<?xml version="1.0" encoding="UTF-8" standalone="no"?>
<!DOCTYPE svg PUBLIC "-//W3C//DTD SVG 1.1//EN" 
  "http://www.w3.org/Graphics/SVG/1.1/DTD/svg11.dtd">
<svg width="108" height="132"
     xmlns="http://www.w3.org/2000/svg" version="1.1">
 <path d="  M 9,75  L 9,76  L 11,76  L 11,75  L 14,75  L 14,74  L 15,74  L 15,73  L 16,73  L 16,72  L 17,72  L 17,71  L 18,71  L 18,70  L 19,70  L 19,69  L 20,69  L 20,68  L 21,68  L 21,66  L 22,66  L 22,65  L 23,65  L 23,64  L 24,64  L 24,63  L 25,63  L 25,62  L 26,62  L 26,60  L 27,60  L 27,59  L 28,59  L 28,57  L 29,57  L 29,56  L 30,56  L 30,54  L 31,54  L 31,52  L 32,52  L 32,51  L 33,51  L 33,49  L 34,49  L 34,47  L 35,47  L 35,46  L 36,46  L 36,45  L 37,45  L 37,42  L 38,42  L 38,40  L 39,40  L 39,38  L 40,38  L 40,36  L 41,36  L 41,33  L 42,33  L 42,31  L 43,31  L 43,29  L 44,29  L 44,27  L 45,27  L 45,25  L 46,25  L 46,23  L 47,23  L 47,20  L 48,20  L 48,16  L 47,16  L 47,15  L 46,15  L 46,14  L 45,14  L 45,12  L 43,12  L 43,11  L 42,11  L 42,10  L 39,10  L 39,9  L 31,9  L 31,10  L 30,10  L 30,9  L 29,9  L 29,10  L 13,10  L 13,11  L 3,11  L 3,12  L 2,12  L 2,13  L 0,13  L 0,14  L 1,14  L 1,17  L 4,17  L 4,18  L 6,18  L 6,19  L 7,19  L 7,18  L 12,18  L 12,17  L 20,17  L 20,16  L 21,16  L 21,17  L 23,17  L 23,16  L 39,16  L 39,17  L 40,17  L 40,16  L 41,16  L 41,22  L 40,22  L 40,23  L 39,23  L 39,25  L 38,25  L 38,26  L 37,26  L 37,28  L 36,28  L 36,30  L 35,30  L 35,32  L 34,32  L 34,34  L 33,34  L 33,36  L 32,36  L 32,38  L 31,38  L 31,40  L 30,40  L 30,41  L 29,41  L 29,43  L 28,43  L 28,44  L 27,44  L 27,46  L 26,46  L 26,47  L 25,47  L 25,49  L 24,49  L 24,52  L 23,52  L 23,53  L 22,53  L 22,54  L 21,54  L 21,56  L 20,56  L 20,57  L 19,57  L 19,58  L 18,58  L 18,59  L 17,59  L 17,60  L 16,60  L 16,62  L 15,62  L 15,63  L 14,63  L 14,64  L 13,64  L 13,65  L 12,65  L 12,67  L 10,67  L 10,68  L 9,68  L 9,69  L 8,69  L 8,70  L 6,70  L 6,71  L 5,71  L 5,73  L 4,73  L 4,74  L 5,74  L 5,75  Z  " style="fill:rgb(0, 0, 0); fill-opacity:1.000; stroke:none;" />
 <path d="  M 23,92  L 22,92  L 22,93  L 23,93  L 23,109  L 24,109  L 24,110  L 23,110  L 23,111  L 24,111  L 24,112  L 23,112  L 23,113  L 24,113  L 24,120  L 25,120  L 25,125  L 26,125  L 26,128  L 27,128  L 27,129  L 28,129  L 28,130  L 29,130  L 29,131  L 30,131  L 30,132  L 50,132  L 50,131  L 59,131  L 59,130  L 66,130  L 66,129  L 76,129  L 76,128  L 77,128  L 77,129  L 80,129  L 80,128  L 82,128  L 82,129  L 83,129  L 83,128  L 86,128  L 86,129  L 87,129  L 87,128  L 90,128  L 90,127  L 91,127  L 91,126  L 92,126  L 92,121  L 91,121  L 91,120  L 90,120  L 90,121  L 83,121  L 83,122  L 68,122  L 68,123  L 67,123  L 67,122  L 66,122  L 66,123  L 60,123  L 60,124  L 51,124  L 51,125  L 48,125  L 48,124  L 47,124  L 47,125  L 42,125  L 42,126  L 33,126  L 33,125  L 32,125  L 32,122  L 31,122  L 31,116  L 30,116  L 30,104  L 29,104  L 29,90  L 28,90  L 28,89  L 23,89  Z  " style="fill:rgb(0, 0, 0); fill-opacity:1.000; stroke:none;" />
 <path d="  M 64,16  L 65,16  L 65,21  L 66,21  L 66,22  L 65,22  L 65,23  L 66,23  L 66,73  L 67,73  L 67,74  L 66,74  L 66,77  L 67,77  L 67,86  L 68,86  L 68,87  L 72,87  L 72,86  L 74,86  L 74,83  L 75,83  L 75,82  L 74,82  L 74,64  L 73,64  L 73,63  L 74,63  L 74,60  L 73,60  L 73,59  L 74,59  L 74,58  L 73,58  L 73,51  L 74,51  L 74,48  L 75,48  L 75,47  L 76,47  L 76,46  L 81,46  L 81,45  L 99,45  L 99,44  L 100,44  L 100,45  L 101,45  L 101,44  L 108,44  L 108,39  L 107,39  L 107,38  L 106,38  L 106,37  L 88,37  L 88,38  L 80,38  L 80,37  L 79,37  L 79,38  L 76,38  L 76,37  L 75,37  L 75,38  L 74,38  L 74,37  L 73,37  L 73,30  L 72,30  L 72,29  L 73,29  L 73,28  L 72,28  L 72,27  L 73,27  L 73,26  L 72,26  L 72,19  L 71,19  L 71,10  L 70,10  L 70,3  L 69,3  L 69,1  L 68,1  L 68,0  L 64,0  L 64,1  L 63,1  L 63,7  L 64,7  L 64,8  L 63,8  L 63,11  L 64,11  Z  " style="fill:rgb(0, 0, 0); fill-opacity:1.000; stroke:none;" />
</svg>
