<?xml version="1.0" encoding="UTF-8" standalone="no"?>
<!DOCTYPE svg PUBLIC "-//W3C//DTD SVG 1.1//EN" 
  "http://www.w3.org/Graphics/SVG/1.1/DTD/svg11.dtd">
<svg width="103" height="139"
     xmlns="http://www.w3.org/2000/svg" version="1.1">
 <path d="  M 45,27  L 45,25  L 46,25  L 46,24  L 47,24  L 47,22  L 48,22  L 48,20  L 49,20  L 49,19  L 50,19  L 50,14  L 49,14  L 49,12  L 48,12  L 48,11  L 47,11  L 47,10  L 45,10  L 45,9  L 17,9  L 17,10  L 10,10  L 10,11  L 5,11  L 5,12  L 2,12  L 2,13  L 1,13  L 1,14  L 2,14  L 2,15  L 1,15  L 1,16  L 0,16  L 0,17  L 4,17  L 4,18  L 6,18  L 6,19  L 7,19  L 7,18  L 12,18  L 12,17  L 15,17  L 15,16  L 23,16  L 23,15  L 24,15  L 24,16  L 25,16  L 25,15  L 42,15  L 42,16  L 43,16  L 43,19  L 42,19  L 42,20  L 41,20  L 41,22  L 40,22  L 40,24  L 39,24  L 39,25  L 38,25  L 38,27  L 37,27  L 37,29  L 36,29  L 36,30  L 35,30  L 35,32  L 34,32  L 34,34  L 33,34  L 33,36  L 32,36  L 32,38  L 31,38  L 31,40  L 30,40  L 30,42  L 29,42  L 29,43  L 28,43  L 28,45  L 27,45  L 27,46  L 26,46  L 26,48  L 25,48  L 25,50  L 24,50  L 24,51  L 23,51  L 23,53  L 22,53  L 22,54  L 21,54  L 21,56  L 20,56  L 20,57  L 19,57  L 19,58  L 18,58  L 18,60  L 17,60  L 17,61  L 16,61  L 16,63  L 15,63  L 15,64  L 14,64  L 14,65  L 13,65  L 13,66  L 12,66  L 12,67  L 11,67  L 11,69  L 10,69  L 10,70  L 9,70  L 9,72  L 8,72  L 8,74  L 7,74  L 7,76  L 8,76  L 8,78  L 12,78  L 12,77  L 14,77  L 14,76  L 15,76  L 15,75  L 16,75  L 16,73  L 17,73  L 17,72  L 18,72  L 18,70  L 19,70  L 19,68  L 21,68  L 21,66  L 22,66  L 22,65  L 23,65  L 23,64  L 24,64  L 24,63  L 25,63  L 25,61  L 26,61  L 26,60  L 27,60  L 27,58  L 28,58  L 28,56  L 29,56  L 29,54  L 30,54  L 30,53  L 31,53  L 31,52  L 32,52  L 32,50  L 33,50  L 33,48  L 34,48  L 34,47  L 35,47  L 35,45  L 36,45  L 36,43  L 37,43  L 37,41  L 38,41  L 38,39  L 39,39  L 39,37  L 40,37  L 40,35  L 41,35  L 41,33  L 42,33  L 42,31  L 43,31  L 43,30  L 44,30  L 44,27  Z  " style="fill:rgb(0, 0, 0); fill-opacity:1.000; stroke:none;" />
 <path d="  M 53,97  L 53,96  L 56,96  L 56,97  L 57,97  L 57,96  L 63,96  L 63,95  L 64,95  L 64,96  L 67,96  L 67,95  L 68,95  L 68,96  L 71,96  L 71,95  L 73,95  L 73,96  L 75,96  L 75,106  L 74,106  L 74,118  L 73,118  L 73,124  L 72,124  L 72,128  L 71,128  L 71,129  L 70,129  L 70,130  L 64,130  L 64,131  L 63,131  L 63,130  L 62,130  L 62,131  L 60,131  L 60,132  L 54,132  L 54,133  L 42,133  L 42,132  L 40,132  L 40,127  L 39,127  L 39,125  L 40,125  L 40,124  L 39,124  L 39,102  L 38,102  L 38,99  L 39,99  L 39,98  L 44,98  L 44,97  Z  M 80,112  L 81,112  L 81,103  L 82,103  L 82,96  L 83,96  L 83,90  L 82,90  L 82,89  L 80,89  L 80,88  L 78,88  L 78,89  L 77,89  L 77,88  L 76,88  L 76,89  L 75,89  L 75,88  L 74,88  L 74,89  L 57,89  L 57,90  L 50,90  L 50,91  L 47,91  L 47,90  L 46,90  L 46,91  L 35,91  L 35,90  L 30,90  L 30,91  L 26,91  L 26,92  L 25,92  L 25,93  L 24,93  L 24,94  L 22,94  L 22,97  L 24,97  L 24,98  L 26,98  L 26,99  L 31,99  L 31,100  L 32,100  L 32,123  L 33,123  L 33,124  L 32,124  L 32,125  L 33,125  L 33,132  L 34,132  L 34,135  L 35,135  L 35,137  L 36,137  L 36,139  L 58,139  L 58,138  L 63,138  L 63,137  L 67,137  L 67,136  L 70,136  L 70,135  L 71,135  L 71,134  L 74,134  L 74,133  L 76,133  L 76,132  L 77,132  L 77,131  L 78,131  L 78,126  L 79,126  L 79,119  L 80,119  Z  " style="fill:rgb(0, 0, 0); fill-opacity:1.000; stroke:none;" />
 <path d="  M 66,20  L 67,20  L 67,41  L 68,41  L 68,42  L 67,42  L 67,44  L 68,44  L 68,47  L 67,47  L 67,48  L 68,48  L 68,50  L 67,50  L 67,52  L 68,52  L 68,53  L 67,53  L 67,54  L 68,54  L 68,55  L 67,55  L 67,57  L 68,57  L 68,59  L 67,59  L 67,60  L 68,60  L 68,80  L 69,80  L 69,82  L 74,82  L 74,81  L 75,81  L 75,77  L 74,77  L 74,76  L 75,76  L 75,73  L 74,73  L 74,43  L 73,43  L 73,42  L 74,42  L 74,41  L 73,41  L 73,40  L 74,40  L 74,38  L 76,38  L 76,37  L 78,37  L 78,36  L 84,36  L 84,35  L 86,35  L 86,36  L 87,36  L 87,35  L 103,35  L 103,29  L 102,29  L 102,28  L 100,28  L 100,29  L 78,29  L 78,30  L 74,30  L 74,27  L 73,27  L 73,22  L 72,22  L 72,21  L 73,21  L 73,20  L 72,20  L 72,19  L 73,19  L 73,18  L 72,18  L 72,15  L 73,15  L 73,14  L 72,14  L 72,2  L 71,2  L 71,0  L 67,0  L 67,1  L 66,1  Z  " style="fill:rgb(0, 0, 0); fill-opacity:1.000; stroke:none;" />
</svg>
