<?xml version="1.0" encoding="UTF-8" standalone="no"?>
<!DOCTYPE svg PUBLIC "-//W3C//DTD SVG 1.1//EN" 
  "http://www.w3.org/Graphics/SVG/1.1/DTD/svg11.dtd">
<svg width="102" height="153"
     xmlns="http://www.w3.org/2000/svg" version="1.1">
 <path d="  M 39,17  L 39,16  L 42,16  L 42,17  L 43,17  L 43,18  L 44,18  L 44,20  L 43,20  L 43,22  L 42,22  L 42,24  L 41,24  L 41,26  L 40,26  L 40,27  L 39,27  L 39,29  L 38,29  L 38,30  L 37,30  L 37,33  L 36,33  L 36,34  L 35,34  L 35,36  L 34,36  L 34,37  L 33,37  L 33,38  L 32,38  L 32,40  L 31,40  L 31,42  L 30,42  L 30,43  L 29,43  L 29,45  L 28,45  L 28,46  L 27,46  L 27,48  L 26,48  L 26,49  L 25,49  L 25,51  L 24,51  L 24,53  L 23,53  L 23,55  L 22,55  L 22,56  L 21,56  L 21,57  L 20,57  L 20,58  L 19,58  L 19,60  L 18,60  L 18,61  L 17,61  L 17,62  L 16,62  L 16,64  L 15,64  L 15,65  L 13,65  L 13,66  L 12,66  L 12,68  L 11,68  L 11,69  L 9,69  L 9,70  L 8,70  L 8,72  L 7,72  L 7,73  L 6,73  L 6,74  L 4,74  L 4,77  L 3,77  L 3,78  L 4,78  L 4,79  L 5,79  L 5,80  L 6,80  L 6,79  L 7,79  L 7,80  L 8,80  L 8,79  L 10,79  L 10,78  L 11,78  L 11,77  L 12,77  L 12,76  L 14,76  L 14,75  L 15,75  L 15,74  L 16,74  L 16,73  L 17,73  L 17,72  L 18,72  L 18,71  L 19,71  L 19,70  L 20,70  L 20,69  L 21,69  L 21,67  L 22,67  L 22,66  L 23,66  L 23,65  L 24,65  L 24,63  L 25,63  L 25,62  L 26,62  L 26,61  L 27,61  L 27,60  L 28,60  L 28,58  L 29,58  L 29,57  L 30,57  L 30,55  L 31,55  L 31,53  L 32,53  L 32,52  L 33,52  L 33,51  L 34,51  L 34,49  L 35,49  L 35,47  L 36,47  L 36,45  L 37,45  L 37,43  L 38,43  L 38,42  L 39,42  L 39,41  L 40,41  L 40,38  L 41,38  L 41,37  L 42,37  L 42,35  L 43,35  L 43,33  L 44,33  L 44,31  L 45,31  L 45,30  L 46,30  L 46,28  L 47,28  L 47,27  L 48,27  L 48,25  L 49,25  L 49,22  L 50,22  L 50,19  L 51,19  L 51,15  L 50,15  L 50,14  L 49,14  L 49,12  L 48,12  L 48,11  L 47,11  L 47,10  L 32,10  L 32,11  L 31,11  L 31,10  L 29,10  L 29,11  L 16,11  L 16,12  L 15,12  L 15,11  L 14,11  L 14,12  L 9,12  L 9,13  L 7,13  L 7,12  L 5,12  L 5,13  L 1,13  L 1,16  L 0,16  L 0,19  L 1,19  L 1,20  L 2,20  L 2,21  L 7,21  L 7,20  L 9,20  L 9,19  L 11,19  L 11,18  L 18,18  L 18,17  Z  " style="fill:rgb(0, 0, 0); fill-opacity:1.000; stroke:none;" />
 <path d="  M 24,90  L 24,91  L 22,91  L 22,93  L 21,93  L 21,125  L 22,125  L 22,133  L 23,133  L 23,136  L 22,136  L 22,137  L 23,137  L 23,146  L 24,146  L 24,148  L 25,148  L 25,149  L 26,149  L 26,151  L 28,151  L 28,152  L 29,152  L 29,153  L 51,153  L 51,152  L 54,152  L 54,151  L 58,151  L 58,150  L 59,150  L 59,149  L 62,149  L 62,148  L 64,148  L 64,147  L 66,147  L 66,146  L 68,146  L 68,145  L 70,145  L 70,144  L 71,144  L 71,143  L 72,143  L 72,141  L 73,141  L 73,139  L 74,139  L 74,136  L 75,136  L 75,131  L 76,131  L 76,126  L 77,126  L 77,122  L 78,122  L 78,118  L 79,118  L 79,108  L 78,108  L 78,107  L 79,107  L 79,106  L 78,106  L 78,105  L 79,105  L 79,103  L 78,103  L 78,100  L 79,100  L 79,99  L 78,99  L 78,96  L 79,96  L 79,95  L 78,95  L 78,92  L 72,92  L 72,117  L 68,117  L 68,118  L 28,118  L 28,116  L 27,116  L 27,115  L 28,115  L 28,92  L 27,92  L 27,91  L 26,91  L 26,90  Z  M 52,125  L 52,124  L 53,124  L 53,125  L 54,125  L 54,124  L 57,124  L 57,125  L 58,125  L 58,124  L 61,124  L 61,125  L 62,125  L 62,124  L 64,124  L 64,125  L 66,125  L 66,124  L 67,124  L 67,125  L 69,125  L 69,127  L 70,127  L 70,128  L 69,128  L 69,134  L 68,134  L 68,136  L 67,136  L 67,138  L 66,138  L 66,139  L 65,139  L 65,141  L 62,141  L 62,142  L 60,142  L 60,143  L 57,143  L 57,144  L 50,144  L 50,145  L 47,145  L 47,146  L 41,146  L 41,147  L 39,147  L 39,146  L 33,146  L 33,145  L 32,145  L 32,144  L 31,144  L 31,142  L 30,142  L 30,138  L 29,138  L 29,133  L 30,133  L 30,132  L 29,132  L 29,126  L 32,126  L 32,125  Z  " style="fill:rgb(0, 0, 0); fill-opacity:1.000; stroke:none;" />
 <path d="  M 69,69  L 70,69  L 70,70  L 69,70  L 69,71  L 70,71  L 70,72  L 69,72  L 69,73  L 70,73  L 70,83  L 72,83  L 72,84  L 74,84  L 74,83  L 75,83  L 75,82  L 76,82  L 76,43  L 77,43  L 77,42  L 78,42  L 78,41  L 84,41  L 84,40  L 102,40  L 102,35  L 101,35  L 101,34  L 83,34  L 83,33  L 82,33  L 82,34  L 76,34  L 76,31  L 75,31  L 75,30  L 76,30  L 76,28  L 75,28  L 75,27  L 76,27  L 76,26  L 75,26  L 75,21  L 76,21  L 76,20  L 75,20  L 75,7  L 74,7  L 74,6  L 75,6  L 75,4  L 74,4  L 74,2  L 73,2  L 73,1  L 71,1  L 71,0  L 70,0  L 70,1  L 69,1  L 69,2  L 68,2  L 68,8  L 69,8  Z  " style="fill:rgb(0, 0, 0); fill-opacity:1.000; stroke:none;" />
</svg>
