<?xml version="1.0" encoding="UTF-8" standalone="no"?>
<!DOCTYPE svg PUBLIC "-//W3C//DTD SVG 1.1//EN" 
  "http://www.w3.org/Graphics/SVG/1.1/DTD/svg11.dtd">
<svg width="102" height="140"
     xmlns="http://www.w3.org/2000/svg" version="1.1">
 <path d="  M 45,26  L 46,26  L 46,24  L 47,24  L 47,22  L 48,22  L 48,20  L 49,20  L 49,19  L 48,19  L 48,16  L 46,16  L 46,14  L 45,14  L 45,13  L 43,13  L 43,12  L 42,12  L 42,11  L 37,11  L 37,10  L 28,10  L 28,11  L 27,11  L 27,10  L 26,10  L 26,11  L 16,11  L 16,12  L 15,12  L 15,11  L 14,11  L 14,12  L 7,12  L 7,13  L 4,13  L 4,14  L 2,14  L 2,17  L 1,17  L 1,19  L 2,19  L 2,18  L 4,18  L 4,19  L 6,19  L 6,20  L 7,20  L 7,19  L 8,19  L 8,20  L 9,20  L 9,19  L 14,19  L 14,18  L 19,18  L 19,17  L 20,17  L 20,18  L 21,18  L 21,17  L 38,17  L 38,18  L 40,18  L 40,19  L 41,19  L 41,22  L 40,22  L 40,24  L 39,24  L 39,26  L 38,26  L 38,27  L 37,27  L 37,29  L 36,29  L 36,31  L 35,31  L 35,32  L 34,32  L 34,34  L 33,34  L 33,36  L 32,36  L 32,38  L 31,38  L 31,40  L 30,40  L 30,41  L 29,41  L 29,43  L 28,43  L 28,45  L 27,45  L 27,47  L 26,47  L 26,48  L 25,48  L 25,50  L 24,50  L 24,51  L 23,51  L 23,54  L 22,54  L 22,55  L 21,55  L 21,56  L 20,56  L 20,57  L 19,57  L 19,59  L 18,59  L 18,60  L 17,60  L 17,61  L 16,61  L 16,63  L 15,63  L 15,64  L 14,64  L 14,65  L 13,65  L 13,66  L 12,66  L 12,67  L 11,67  L 11,68  L 10,68  L 10,69  L 9,69  L 9,71  L 8,71  L 8,72  L 7,72  L 7,77  L 10,77  L 10,78  L 11,78  L 11,77  L 14,77  L 14,76  L 15,76  L 15,74  L 16,74  L 16,73  L 17,73  L 17,71  L 18,71  L 18,70  L 19,70  L 19,69  L 20,69  L 20,68  L 21,68  L 21,67  L 22,67  L 22,66  L 23,66  L 23,65  L 24,65  L 24,64  L 25,64  L 25,62  L 26,62  L 26,61  L 27,61  L 27,60  L 28,60  L 28,58  L 29,58  L 29,56  L 30,56  L 30,54  L 31,54  L 31,53  L 32,53  L 32,52  L 33,52  L 33,50  L 34,50  L 34,48  L 35,48  L 35,46  L 36,46  L 36,44  L 37,44  L 37,42  L 38,42  L 38,39  L 39,39  L 39,37  L 40,37  L 40,36  L 41,36  L 41,33  L 42,33  L 42,31  L 43,31  L 43,30  L 44,30  L 44,28  L 45,28  Z  " style="fill:rgb(0, 0, 0); fill-opacity:1.000; stroke:none;" />
 <path d="  M 50,97  L 52,97  L 52,98  L 54,98  L 54,97  L 56,97  L 56,98  L 57,98  L 57,97  L 60,97  L 60,98  L 63,98  L 63,97  L 64,97  L 64,98  L 70,98  L 70,99  L 73,99  L 73,100  L 75,100  L 75,101  L 77,101  L 77,103  L 78,103  L 78,104  L 79,104  L 79,115  L 78,115  L 78,119  L 77,119  L 77,121  L 76,121  L 76,123  L 75,123  L 75,124  L 74,124  L 74,125  L 73,125  L 73,126  L 72,126  L 72,127  L 70,127  L 70,128  L 68,128  L 68,129  L 65,129  L 65,130  L 64,130  L 64,131  L 61,131  L 61,132  L 56,132  L 56,133  L 53,133  L 53,134  L 47,134  L 47,133  L 42,133  L 42,132  L 38,132  L 38,131  L 36,131  L 36,130  L 35,130  L 35,129  L 34,129  L 34,128  L 33,128  L 33,127  L 32,127  L 32,120  L 33,120  L 33,115  L 34,115  L 34,113  L 35,113  L 35,111  L 36,111  L 36,109  L 37,109  L 37,108  L 38,108  L 38,107  L 39,107  L 39,105  L 40,105  L 40,104  L 41,104  L 41,103  L 42,103  L 42,102  L 43,102  L 43,101  L 44,101  L 44,100  L 46,100  L 46,99  L 47,99  L 47,98  L 50,98  Z  M 58,140  L 58,139  L 60,139  L 60,138  L 63,138  L 63,137  L 66,137  L 66,136  L 69,136  L 69,135  L 70,135  L 70,134  L 72,134  L 72,133  L 74,133  L 74,132  L 76,132  L 76,131  L 77,131  L 77,130  L 79,130  L 79,129  L 80,129  L 80,128  L 81,128  L 81,127  L 82,127  L 82,125  L 83,125  L 83,123  L 84,123  L 84,120  L 85,120  L 85,116  L 86,116  L 86,105  L 85,105  L 85,99  L 84,99  L 84,98  L 83,98  L 83,97  L 82,97  L 82,96  L 81,96  L 81,95  L 79,95  L 79,94  L 78,94  L 78,93  L 75,93  L 75,92  L 71,92  L 71,91  L 59,91  L 59,90  L 54,90  L 54,89  L 49,89  L 49,88  L 46,88  L 46,89  L 44,89  L 44,91  L 43,91  L 43,92  L 42,92  L 42,93  L 41,93  L 41,95  L 40,95  L 40,96  L 39,96  L 39,97  L 38,97  L 38,98  L 37,98  L 37,99  L 36,99  L 36,101  L 35,101  L 35,102  L 34,102  L 34,103  L 33,103  L 33,105  L 32,105  L 32,106  L 31,106  L 31,108  L 30,108  L 30,110  L 29,110  L 29,111  L 28,111  L 28,114  L 27,114  L 27,116  L 26,116  L 26,119  L 25,119  L 25,127  L 26,127  L 26,130  L 27,130  L 27,133  L 28,133  L 28,134  L 29,134  L 29,135  L 31,135  L 31,137  L 33,137  L 33,138  L 37,138  L 37,139  L 42,139  L 42,140  Z  " style="fill:rgb(0, 0, 0); fill-opacity:1.000; stroke:none;" />
 <path d="  M 68,22  L 69,22  L 69,25  L 68,25  L 68,26  L 69,26  L 69,29  L 68,29  L 68,30  L 69,30  L 69,31  L 68,31  L 68,52  L 69,52  L 69,53  L 68,53  L 68,54  L 69,54  L 69,68  L 70,68  L 70,78  L 71,78  L 71,83  L 72,83  L 72,84  L 76,84  L 76,83  L 77,83  L 77,77  L 76,77  L 76,76  L 77,76  L 77,75  L 76,75  L 76,59  L 75,59  L 75,58  L 76,58  L 76,57  L 75,57  L 75,56  L 76,56  L 76,55  L 75,55  L 75,54  L 76,54  L 76,53  L 75,53  L 75,52  L 76,52  L 76,51  L 75,51  L 75,43  L 76,43  L 76,42  L 77,42  L 77,41  L 80,41  L 80,40  L 81,40  L 81,41  L 82,41  L 82,40  L 94,40  L 94,39  L 100,39  L 100,40  L 101,40  L 101,39  L 102,39  L 102,34  L 101,34  L 101,33  L 78,33  L 78,34  L 75,34  L 75,22  L 74,22  L 74,20  L 75,20  L 75,19  L 74,19  L 74,7  L 73,7  L 73,2  L 72,2  L 72,1  L 71,1  L 71,0  L 69,0  L 69,1  L 67,1  L 67,7  L 68,7  L 68,9  L 67,9  L 67,10  L 68,10  Z  " style="fill:rgb(0, 0, 0); fill-opacity:1.000; stroke:none;" />
</svg>
