<?xml version="1.0" encoding="UTF-8" standalone="no"?>
<!DOCTYPE svg PUBLIC "-//W3C//DTD SVG 1.1//EN" 
  "http://www.w3.org/Graphics/SVG/1.1/DTD/svg11.dtd">
<svg width="103" height="155"
     xmlns="http://www.w3.org/2000/svg" version="1.1">
 <path d="  M 19,12  L 19,13  L 10,13  L 10,14  L 4,14  L 4,15  L 2,15  L 2,16  L 1,16  L 1,17  L 0,17  L 0,18  L 1,18  L 1,19  L 0,19  L 0,20  L 1,20  L 1,22  L 7,22  L 7,21  L 9,21  L 9,20  L 14,20  L 14,19  L 23,19  L 23,18  L 24,18  L 24,19  L 25,19  L 25,18  L 41,18  L 41,19  L 42,19  L 42,20  L 41,20  L 41,23  L 40,23  L 40,25  L 39,25  L 39,27  L 38,27  L 38,29  L 37,29  L 37,30  L 36,30  L 36,32  L 35,32  L 35,34  L 34,34  L 34,35  L 33,35  L 33,37  L 32,37  L 32,38  L 31,38  L 31,40  L 30,40  L 30,41  L 29,41  L 29,43  L 28,43  L 28,45  L 27,45  L 27,47  L 26,47  L 26,48  L 25,48  L 25,50  L 24,50  L 24,52  L 23,52  L 23,54  L 22,54  L 22,55  L 21,55  L 21,57  L 20,57  L 20,58  L 19,58  L 19,60  L 18,60  L 18,61  L 17,61  L 17,62  L 16,62  L 16,64  L 15,64  L 15,65  L 14,65  L 14,66  L 13,66  L 13,68  L 12,68  L 12,69  L 11,69  L 11,71  L 10,71  L 10,72  L 9,72  L 9,74  L 8,74  L 8,76  L 7,76  L 7,78  L 8,78  L 8,81  L 9,81  L 9,82  L 11,82  L 11,81  L 13,81  L 13,80  L 14,80  L 14,78  L 15,78  L 15,77  L 16,77  L 16,75  L 17,75  L 17,74  L 18,74  L 18,72  L 19,72  L 19,70  L 20,70  L 20,69  L 21,69  L 21,67  L 22,67  L 22,66  L 23,66  L 23,64  L 24,64  L 24,63  L 25,63  L 25,62  L 26,62  L 26,60  L 27,60  L 27,59  L 28,59  L 28,57  L 29,57  L 29,56  L 30,56  L 30,54  L 31,54  L 31,52  L 32,52  L 32,50  L 33,50  L 33,49  L 34,49  L 34,47  L 35,47  L 35,46  L 36,46  L 36,44  L 37,44  L 37,41  L 38,41  L 38,40  L 39,40  L 39,38  L 40,38  L 40,36  L 41,36  L 41,34  L 42,34  L 42,32  L 43,32  L 43,30  L 44,30  L 44,29  L 45,29  L 45,27  L 46,27  L 46,25  L 47,25  L 47,24  L 48,24  L 48,20  L 49,20  L 49,19  L 48,19  L 48,16  L 47,16  L 47,15  L 46,15  L 46,14  L 45,14  L 45,13  L 43,13  L 43,12  L 40,12  L 40,11  L 30,11  L 30,12  L 27,12  L 27,11  L 26,11  L 26,12  Z  " style="fill:rgb(0, 0, 0); fill-opacity:1.000; stroke:none;" />
 <path d="  M 61,128  L 63,128  L 63,129  L 65,129  L 65,130  L 67,130  L 67,131  L 68,131  L 68,132  L 70,132  L 70,133  L 72,133  L 72,134  L 74,134  L 74,135  L 76,135  L 76,136  L 78,136  L 78,137  L 80,137  L 80,138  L 81,138  L 81,139  L 84,139  L 84,140  L 85,140  L 85,141  L 87,141  L 87,142  L 89,142  L 89,143  L 94,143  L 94,142  L 95,142  L 95,141  L 96,141  L 96,138  L 95,138  L 95,137  L 93,137  L 93,136  L 92,136  L 92,135  L 91,135  L 91,134  L 89,134  L 89,133  L 87,133  L 87,132  L 85,132  L 85,131  L 82,131  L 82,130  L 80,130  L 80,129  L 78,129  L 78,128  L 76,128  L 76,127  L 74,127  L 74,126  L 73,126  L 73,125  L 70,125  L 70,124  L 68,124  L 68,123  L 66,123  L 66,122  L 64,122  L 64,121  L 62,121  L 62,120  L 61,120  L 61,119  L 59,119  L 59,118  L 60,118  L 60,117  L 61,117  L 61,116  L 62,116  L 62,115  L 63,115  L 63,114  L 64,114  L 64,113  L 65,113  L 65,112  L 66,112  L 66,110  L 67,110  L 67,109  L 68,109  L 68,108  L 69,108  L 69,106  L 70,106  L 70,105  L 71,105  L 71,104  L 72,104  L 72,103  L 73,103  L 73,101  L 74,101  L 74,98  L 73,98  L 73,96  L 72,96  L 72,95  L 71,95  L 71,94  L 70,94  L 70,93  L 68,93  L 68,92  L 66,92  L 66,91  L 50,91  L 50,92  L 45,92  L 45,93  L 40,93  L 40,94  L 37,94  L 37,95  L 36,95  L 36,94  L 35,94  L 35,95  L 33,95  L 33,96  L 31,96  L 31,97  L 29,97  L 29,98  L 27,98  L 27,99  L 26,99  L 26,100  L 25,100  L 25,101  L 24,101  L 24,102  L 25,102  L 25,103  L 24,103  L 24,104  L 25,104  L 25,105  L 26,105  L 26,106  L 27,106  L 27,105  L 28,105  L 28,104  L 31,104  L 31,103  L 33,103  L 33,102  L 35,102  L 35,101  L 36,101  L 36,102  L 37,102  L 37,101  L 38,101  L 38,100  L 43,100  L 43,99  L 44,99  L 44,100  L 46,100  L 46,99  L 51,99  L 51,98  L 52,98  L 52,99  L 53,99  L 53,98  L 62,98  L 62,97  L 64,97  L 64,98  L 65,98  L 65,99  L 66,99  L 66,100  L 65,100  L 65,102  L 64,102  L 64,104  L 63,104  L 63,105  L 62,105  L 62,106  L 60,106  L 60,107  L 59,107  L 59,109  L 57,109  L 57,110  L 56,110  L 56,111  L 55,111  L 55,112  L 54,112  L 54,113  L 53,113  L 53,114  L 52,114  L 52,115  L 51,115  L 51,116  L 50,116  L 50,118  L 49,118  L 49,119  L 48,119  L 48,120  L 47,120  L 47,123  L 46,123  L 46,124  L 45,124  L 45,126  L 44,126  L 44,128  L 43,128  L 43,129  L 42,129  L 42,131  L 41,131  L 41,133  L 40,133  L 40,134  L 39,134  L 39,136  L 38,136  L 38,137  L 37,137  L 37,139  L 36,139  L 36,140  L 35,140  L 35,141  L 34,141  L 34,142  L 33,142  L 33,143  L 32,143  L 32,145  L 31,145  L 31,146  L 30,146  L 30,147  L 28,147  L 28,150  L 27,150  L 27,154  L 28,154  L 28,155  L 32,155  L 32,154  L 33,154  L 33,153  L 35,153  L 35,152  L 36,152  L 36,150  L 37,150  L 37,148  L 38,148  L 38,147  L 39,147  L 39,146  L 40,146  L 40,145  L 41,145  L 41,143  L 42,143  L 42,142  L 43,142  L 43,140  L 44,140  L 44,139  L 45,139  L 45,138  L 46,138  L 46,137  L 47,137  L 47,135  L 48,135  L 48,134  L 49,134  L 49,132  L 50,132  L 50,130  L 51,130  L 51,128  L 52,128  L 52,127  L 53,127  L 53,125  L 55,125  L 55,124  L 57,124  L 57,125  L 58,125  L 58,126  L 60,126  L 60,127  L 61,127  Z  " style="fill:rgb(0, 0, 0); fill-opacity:1.000; stroke:none;" />
 <path d="  M 72,85  L 73,85  L 73,84  L 74,84  L 74,46  L 73,46  L 73,44  L 74,44  L 74,43  L 75,43  L 75,42  L 77,42  L 77,41  L 78,41  L 78,40  L 83,40  L 83,39  L 93,39  L 93,38  L 94,38  L 94,39  L 103,39  L 103,33  L 102,33  L 102,32  L 90,32  L 90,33  L 89,33  L 89,32  L 88,32  L 88,33  L 78,33  L 78,34  L 76,34  L 76,33  L 74,33  L 74,25  L 73,25  L 73,24  L 74,24  L 74,23  L 73,23  L 73,7  L 72,7  L 72,6  L 73,6  L 73,5  L 72,5  L 72,4  L 73,4  L 73,3  L 72,3  L 72,1  L 70,1  L 70,0  L 67,0  L 67,6  L 66,6  L 66,8  L 67,8  L 67,9  L 66,9  L 66,10  L 67,10  L 67,42  L 68,42  L 68,43  L 67,43  L 67,44  L 68,44  L 68,56  L 67,56  L 67,57  L 68,57  L 68,60  L 67,60  L 67,61  L 68,61  L 68,64  L 67,64  L 67,65  L 68,65  L 68,68  L 67,68  L 67,70  L 68,70  L 68,81  L 67,81  L 67,82  L 68,82  L 68,84  L 69,84  L 69,86  L 70,86  L 70,85  L 71,85  L 71,86  L 72,86  Z  " style="fill:rgb(0, 0, 0); fill-opacity:1.000; stroke:none;" />
</svg>
