<?xml version="1.0" encoding="UTF-8" standalone="no"?>
<!DOCTYPE svg PUBLIC "-//W3C//DTD SVG 1.1//EN" 
  "http://www.w3.org/Graphics/SVG/1.1/DTD/svg11.dtd">
<svg width="108" height="127"
     xmlns="http://www.w3.org/2000/svg" version="1.1">
 <path d="  M 66,59  L 66,60  L 67,60  L 67,59  L 76,59  L 76,58  L 83,58  L 83,57  L 84,57  L 84,58  L 86,58  L 86,57  L 93,57  L 93,56  L 96,56  L 96,55  L 98,55  L 98,54  L 101,54  L 101,75  L 100,75  L 100,76  L 101,76  L 101,79  L 100,79  L 100,81  L 101,81  L 101,83  L 100,83  L 100,98  L 101,98  L 101,99  L 100,99  L 100,101  L 101,101  L 101,103  L 100,103  L 100,104  L 101,104  L 101,107  L 100,107  L 100,108  L 101,108  L 101,111  L 100,111  L 100,112  L 101,112  L 101,115  L 100,115  L 100,116  L 101,116  L 101,126  L 102,126  L 102,127  L 108,127  L 108,25  L 107,25  L 107,24  L 108,24  L 108,23  L 107,23  L 107,18  L 106,18  L 106,7  L 105,7  L 105,2  L 104,2  L 104,1  L 103,1  L 103,0  L 100,0  L 100,1  L 98,1  L 98,3  L 97,3  L 97,8  L 98,8  L 98,15  L 99,15  L 99,23  L 100,23  L 100,32  L 101,32  L 101,39  L 102,39  L 102,40  L 101,40  L 101,42  L 102,42  L 102,43  L 101,43  L 101,46  L 100,46  L 100,47  L 96,47  L 96,48  L 93,48  L 93,49  L 89,49  L 89,50  L 86,50  L 86,51  L 82,51  L 82,52  L 73,52  L 73,53  L 66,53  L 66,52  L 64,52  L 64,51  L 63,51  L 63,50  L 62,50  L 62,45  L 63,45  L 63,42  L 64,42  L 64,41  L 65,41  L 65,39  L 66,39  L 66,35  L 65,35  L 65,33  L 62,33  L 62,32  L 59,32  L 59,31  L 24,31  L 24,32  L 23,32  L 23,31  L 22,31  L 22,32  L 17,32  L 17,33  L 12,33  L 12,34  L 8,34  L 8,35  L 1,35  L 1,38  L 0,38  L 0,42  L 1,42  L 1,44  L 2,44  L 2,45  L 7,45  L 7,44  L 9,44  L 9,43  L 11,43  L 11,42  L 15,42  L 15,41  L 19,41  L 19,40  L 31,40  L 31,39  L 32,39  L 32,40  L 33,40  L 33,39  L 34,39  L 34,40  L 35,40  L 35,39  L 38,39  L 38,40  L 39,40  L 39,39  L 44,39  L 44,40  L 47,40  L 47,39  L 48,39  L 48,40  L 49,40  L 49,39  L 55,39  L 55,40  L 56,40  L 56,43  L 55,43  L 55,48  L 54,48  L 54,52  L 53,52  L 53,55  L 52,55  L 52,58  L 51,58  L 51,61  L 50,61  L 50,63  L 49,63  L 49,65  L 48,65  L 48,68  L 47,68  L 47,69  L 46,69  L 46,71  L 45,71  L 45,73  L 44,73  L 44,74  L 43,74  L 43,75  L 42,75  L 42,76  L 41,76  L 41,78  L 40,78  L 40,79  L 39,79  L 39,81  L 38,81  L 38,82  L 37,82  L 37,83  L 36,83  L 36,84  L 35,84  L 35,86  L 34,86  L 34,87  L 33,87  L 33,89  L 32,89  L 32,91  L 30,91  L 30,93  L 29,93  L 29,94  L 28,94  L 28,96  L 27,96  L 27,97  L 26,97  L 26,98  L 25,98  L 25,99  L 24,99  L 24,101  L 23,101  L 23,102  L 22,102  L 22,103  L 21,103  L 21,105  L 20,105  L 20,106  L 19,106  L 19,107  L 18,107  L 18,108  L 17,108  L 17,109  L 16,109  L 16,111  L 15,111  L 15,113  L 14,113  L 14,118  L 15,118  L 15,119  L 18,119  L 18,118  L 19,118  L 19,117  L 20,117  L 20,116  L 21,116  L 21,115  L 22,115  L 22,114  L 23,114  L 23,113  L 24,113  L 24,112  L 25,112  L 25,110  L 27,110  L 27,108  L 28,108  L 28,107  L 29,107  L 29,105  L 30,105  L 30,104  L 31,104  L 31,103  L 32,103  L 32,102  L 33,102  L 33,101  L 34,101  L 34,99  L 35,99  L 35,97  L 36,97  L 36,96  L 37,96  L 37,94  L 38,94  L 38,93  L 39,93  L 39,92  L 40,92  L 40,91  L 41,91  L 41,89  L 42,89  L 42,88  L 43,88  L 43,87  L 44,87  L 44,85  L 45,85  L 45,84  L 46,84  L 46,83  L 47,83  L 47,81  L 48,81  L 48,80  L 49,80  L 49,79  L 50,79  L 50,78  L 51,78  L 51,75  L 52,75  L 52,74  L 53,74  L 53,73  L 54,73  L 54,71  L 55,71  L 55,68  L 56,68  L 56,67  L 57,67  L 57,65  L 58,65  L 58,63  L 59,63  L 59,60  L 60,60  L 60,59  L 61,59  L 61,58  L 63,58  L 63,59  Z  " style="fill:rgb(0, 0, 0); fill-opacity:1.000; stroke:none;" />
</svg>
