<?xml version="1.0" encoding="UTF-8" standalone="no"?>
<!DOCTYPE svg PUBLIC "-//W3C//DTD SVG 1.1//EN" 
  "http://www.w3.org/Graphics/SVG/1.1/DTD/svg11.dtd">
<svg width="100" height="157"
     xmlns="http://www.w3.org/2000/svg" version="1.1">
 <path d="  M 26,12  L 26,13  L 18,13  L 18,14  L 15,14  L 15,13  L 14,13  L 14,14  L 11,14  L 11,15  L 10,15  L 10,14  L 9,14  L 9,15  L 5,15  L 5,16  L 2,16  L 2,17  L 1,17  L 1,19  L 0,19  L 0,20  L 1,20  L 1,21  L 0,21  L 0,24  L 2,24  L 2,23  L 8,23  L 8,22  L 11,22  L 11,21  L 17,21  L 17,20  L 25,20  L 25,19  L 35,19  L 35,18  L 44,18  L 44,19  L 45,19  L 45,22  L 44,22  L 44,24  L 43,24  L 43,25  L 42,25  L 42,27  L 41,27  L 41,30  L 40,30  L 40,32  L 39,32  L 39,34  L 38,34  L 38,35  L 37,35  L 37,37  L 36,37  L 36,39  L 35,39  L 35,41  L 34,41  L 34,42  L 33,42  L 33,43  L 32,43  L 32,45  L 31,45  L 31,47  L 30,47  L 30,48  L 29,48  L 29,50  L 28,50  L 28,51  L 27,51  L 27,53  L 25,53  L 25,55  L 24,55  L 24,57  L 23,57  L 23,58  L 22,58  L 22,59  L 21,59  L 21,60  L 20,60  L 20,61  L 19,61  L 19,64  L 18,64  L 18,65  L 17,65  L 17,67  L 16,67  L 16,68  L 15,68  L 15,69  L 14,69  L 14,70  L 13,70  L 13,71  L 12,71  L 12,73  L 11,73  L 11,74  L 9,74  L 9,76  L 8,76  L 8,77  L 7,77  L 7,78  L 5,78  L 5,79  L 4,79  L 4,80  L 3,80  L 3,81  L 2,81  L 2,84  L 3,84  L 3,86  L 7,86  L 7,85  L 9,85  L 9,84  L 10,84  L 10,83  L 12,83  L 12,82  L 13,82  L 13,81  L 14,81  L 14,80  L 15,80  L 15,79  L 16,79  L 16,78  L 17,78  L 17,77  L 18,77  L 18,76  L 19,76  L 19,74  L 20,74  L 20,73  L 21,73  L 21,72  L 22,72  L 22,71  L 23,71  L 23,69  L 24,69  L 24,67  L 25,67  L 25,66  L 26,66  L 26,65  L 27,65  L 27,64  L 28,64  L 28,63  L 29,63  L 29,61  L 30,61  L 30,60  L 31,60  L 31,59  L 32,59  L 32,56  L 33,56  L 33,55  L 34,55  L 34,53  L 35,53  L 35,52  L 36,52  L 36,50  L 37,50  L 37,48  L 38,48  L 38,47  L 39,47  L 39,45  L 40,45  L 40,43  L 41,43  L 41,42  L 42,42  L 42,41  L 43,41  L 43,39  L 44,39  L 44,38  L 45,38  L 45,35  L 46,35  L 46,33  L 47,33  L 47,31  L 48,31  L 48,30  L 49,30  L 49,28  L 50,28  L 50,25  L 51,25  L 51,24  L 52,24  L 52,22  L 53,22  L 53,17  L 52,17  L 52,15  L 51,15  L 51,14  L 50,14  L 50,13  L 48,13  L 48,12  L 46,12  L 46,11  L 34,11  L 34,12  Z  " style="fill:rgb(0, 0, 0); fill-opacity:1.000; stroke:none;" />
 <path d="  M 40,122  L 39,122  L 39,124  L 38,124  L 38,125  L 37,125  L 37,126  L 36,126  L 36,128  L 35,128  L 35,130  L 34,130  L 34,131  L 33,131  L 33,132  L 32,132  L 32,134  L 31,134  L 31,135  L 30,135  L 30,136  L 29,136  L 29,138  L 28,138  L 28,140  L 27,140  L 27,141  L 26,141  L 26,142  L 25,142  L 25,143  L 24,143  L 24,145  L 23,145  L 23,146  L 22,146  L 22,147  L 21,147  L 21,148  L 20,148  L 20,150  L 19,150  L 19,151  L 18,151  L 18,152  L 17,152  L 17,153  L 16,153  L 16,154  L 17,154  L 17,157  L 23,157  L 23,156  L 24,156  L 24,155  L 25,155  L 25,153  L 27,153  L 27,151  L 28,151  L 28,150  L 29,150  L 29,149  L 30,149  L 30,147  L 31,147  L 31,146  L 32,146  L 32,145  L 33,145  L 33,144  L 34,144  L 34,143  L 35,143  L 35,141  L 36,141  L 36,139  L 37,139  L 37,137  L 38,137  L 38,136  L 39,136  L 39,134  L 40,134  L 40,133  L 41,133  L 41,132  L 42,132  L 42,131  L 43,131  L 43,129  L 44,129  L 44,128  L 45,128  L 45,126  L 46,126  L 46,124  L 47,124  L 47,123  L 50,123  L 50,124  L 52,124  L 52,125  L 53,125  L 53,126  L 55,126  L 55,127  L 56,127  L 56,129  L 58,129  L 58,130  L 59,130  L 59,131  L 61,131  L 61,132  L 62,132  L 62,133  L 63,133  L 63,134  L 65,134  L 65,135  L 66,135  L 66,136  L 68,136  L 68,137  L 70,137  L 70,138  L 71,138  L 71,139  L 73,139  L 73,140  L 75,140  L 75,141  L 78,141  L 78,142  L 79,142  L 79,143  L 81,143  L 81,144  L 83,144  L 83,145  L 87,145  L 87,146  L 90,146  L 90,147  L 92,147  L 92,148  L 99,148  L 99,147  L 100,147  L 100,143  L 99,143  L 99,142  L 98,142  L 98,141  L 95,141  L 95,140  L 92,140  L 92,139  L 87,139  L 87,138  L 84,138  L 84,137  L 82,137  L 82,136  L 81,136  L 81,135  L 79,135  L 79,134  L 77,134  L 77,133  L 75,133  L 75,132  L 74,132  L 74,131  L 72,131  L 72,130  L 71,130  L 71,129  L 68,129  L 68,128  L 67,128  L 67,127  L 66,127  L 66,126  L 64,126  L 64,125  L 63,125  L 63,124  L 61,124  L 61,123  L 60,123  L 60,122  L 59,122  L 59,121  L 58,121  L 58,120  L 57,120  L 57,119  L 56,119  L 56,118  L 55,118  L 55,117  L 53,117  L 53,115  L 54,115  L 54,114  L 56,114  L 56,112  L 57,112  L 57,110  L 58,110  L 58,109  L 59,109  L 59,108  L 60,108  L 60,106  L 61,106  L 61,104  L 62,104  L 62,101  L 63,101  L 63,95  L 62,95  L 62,93  L 61,93  L 61,92  L 57,92  L 57,93  L 56,93  L 56,94  L 57,94  L 57,95  L 56,95  L 56,99  L 55,99  L 55,101  L 54,101  L 54,102  L 53,102  L 53,103  L 52,103  L 52,105  L 51,105  L 51,107  L 50,107  L 50,108  L 49,108  L 49,110  L 48,110  L 48,111  L 47,111  L 47,113  L 45,113  L 45,115  L 44,115  L 44,116  L 43,116  L 43,118  L 42,118  L 42,119  L 41,119  L 41,121  L 40,121  Z  " style="fill:rgb(0, 0, 0); fill-opacity:1.000; stroke:none;" />
 <path d="  M 95,17  L 95,16  L 96,16  L 96,15  L 95,15  L 95,2  L 94,2  L 94,1  L 93,1  L 93,0  L 90,0  L 90,1  L 89,1  L 89,2  L 88,2  L 88,20  L 89,20  L 89,21  L 88,21  L 88,22  L 89,22  L 89,32  L 88,32  L 88,33  L 87,33  L 87,34  L 78,34  L 78,35  L 77,35  L 77,34  L 76,34  L 76,35  L 75,35  L 75,34  L 74,34  L 74,35  L 69,35  L 69,36  L 68,36  L 68,35  L 66,35  L 66,36  L 58,36  L 58,37  L 57,37  L 57,36  L 56,36  L 56,37  L 51,37  L 51,38  L 48,38  L 48,40  L 47,40  L 47,44  L 46,44  L 46,45  L 50,45  L 50,44  L 61,44  L 61,43  L 69,43  L 69,42  L 88,42  L 88,41  L 89,41  L 89,42  L 90,42  L 90,49  L 89,49  L 89,50  L 90,50  L 90,67  L 91,67  L 91,68  L 90,68  L 90,71  L 91,71  L 91,73  L 90,73  L 90,74  L 91,74  L 91,77  L 90,77  L 90,78  L 91,78  L 91,95  L 92,95  L 92,96  L 95,96  L 95,95  L 97,95  L 97,94  L 98,94  L 98,93  L 99,93  L 99,87  L 98,87  L 98,86  L 99,86  L 99,85  L 98,85  L 98,82  L 99,82  L 99,81  L 98,81  L 98,61  L 97,61  L 97,60  L 98,60  L 98,59  L 97,59  L 97,58  L 98,58  L 98,57  L 97,57  L 97,56  L 98,56  L 98,55  L 97,55  L 97,54  L 98,54  L 98,53  L 97,53  L 97,36  L 96,36  L 96,25  L 95,25  L 95,24  L 96,24  L 96,23  L 95,23  L 95,22  L 96,22  L 96,21  L 95,21  L 95,20  L 96,20  L 96,19  L 95,19  L 95,18  L 96,18  L 96,17  Z  " style="fill:rgb(0, 0, 0); fill-opacity:1.000; stroke:none;" />
</svg>
