<?xml version="1.0" encoding="UTF-8" standalone="no"?>
<!DOCTYPE svg PUBLIC "-//W3C//DTD SVG 1.1//EN" 
  "http://www.w3.org/Graphics/SVG/1.1/DTD/svg11.dtd">
<svg width="107" height="127"
     xmlns="http://www.w3.org/2000/svg" version="1.1">
 <path d="  M 61,43  L 61,41  L 60,41  L 60,38  L 59,38  L 59,35  L 58,35  L 58,33  L 57,33  L 57,32  L 56,32  L 56,30  L 54,30  L 54,29  L 45,29  L 45,28  L 43,28  L 43,29  L 42,29  L 42,28  L 40,28  L 40,29  L 38,29  L 38,28  L 35,28  L 35,29  L 34,29  L 34,28  L 32,28  L 32,29  L 30,29  L 30,28  L 28,28  L 28,29  L 26,29  L 26,28  L 25,28  L 25,29  L 19,29  L 19,30  L 12,30  L 12,31  L 10,31  L 10,30  L 9,30  L 9,31  L 4,31  L 4,32  L 2,32  L 2,33  L 1,33  L 1,34  L 0,34  L 0,38  L 3,38  L 3,39  L 5,39  L 5,38  L 10,38  L 10,37  L 21,37  L 21,36  L 24,36  L 24,37  L 25,37  L 25,36  L 40,36  L 40,37  L 41,37  L 41,36  L 42,36  L 42,37  L 52,37  L 52,39  L 53,39  L 53,42  L 52,42  L 52,47  L 51,47  L 51,50  L 50,50  L 50,54  L 49,54  L 49,56  L 48,56  L 48,59  L 47,59  L 47,61  L 46,61  L 46,63  L 45,63  L 45,64  L 44,64  L 44,66  L 43,66  L 43,68  L 42,68  L 42,70  L 41,70  L 41,71  L 40,71  L 40,72  L 39,72  L 39,75  L 38,75  L 38,77  L 37,77  L 37,78  L 36,78  L 36,79  L 35,79  L 35,81  L 34,81  L 34,83  L 33,83  L 33,84  L 32,84  L 32,86  L 31,86  L 31,87  L 30,87  L 30,89  L 29,89  L 29,90  L 28,90  L 28,92  L 27,92  L 27,94  L 26,94  L 26,95  L 25,95  L 25,97  L 24,97  L 24,98  L 23,98  L 23,100  L 22,100  L 22,101  L 20,101  L 20,103  L 19,103  L 19,105  L 18,105  L 18,106  L 16,106  L 16,108  L 15,108  L 15,110  L 14,110  L 14,112  L 13,112  L 13,117  L 14,117  L 14,118  L 15,118  L 15,119  L 18,119  L 18,118  L 19,118  L 19,116  L 20,116  L 20,115  L 21,115  L 21,114  L 22,114  L 22,112  L 23,112  L 23,110  L 24,110  L 24,109  L 25,109  L 25,108  L 26,108  L 26,107  L 27,107  L 27,106  L 28,106  L 28,104  L 29,104  L 29,103  L 30,103  L 30,102  L 31,102  L 31,100  L 32,100  L 32,99  L 33,99  L 33,97  L 34,97  L 34,95  L 35,95  L 35,94  L 36,94  L 36,92  L 37,92  L 37,91  L 38,91  L 38,89  L 39,89  L 39,88  L 40,88  L 40,86  L 41,86  L 41,84  L 42,84  L 42,83  L 43,83  L 43,81  L 44,81  L 44,80  L 45,80  L 45,79  L 46,79  L 46,77  L 47,77  L 47,75  L 48,75  L 48,73  L 49,73  L 49,71  L 50,71  L 50,70  L 51,70  L 51,69  L 52,69  L 52,66  L 53,66  L 53,64  L 54,64  L 54,61  L 55,61  L 55,59  L 56,59  L 56,57  L 57,57  L 57,55  L 58,55  L 58,53  L 59,53  L 59,51  L 60,51  L 60,49  L 61,49  L 61,48  L 63,48  L 63,49  L 65,49  L 65,48  L 69,48  L 69,47  L 82,47  L 82,46  L 83,46  L 83,47  L 84,47  L 84,46  L 85,46  L 85,47  L 86,47  L 86,46  L 87,46  L 87,47  L 88,47  L 88,46  L 98,46  L 98,45  L 100,45  L 100,46  L 101,46  L 101,64  L 100,64  L 100,65  L 101,65  L 101,66  L 100,66  L 100,68  L 99,68  L 99,69  L 98,69  L 98,68  L 96,68  L 96,69  L 92,69  L 92,70  L 85,70  L 85,71  L 72,71  L 72,72  L 65,72  L 65,71  L 63,71  L 63,72  L 62,72  L 62,76  L 63,76  L 63,78  L 64,78  L 64,79  L 66,79  L 66,78  L 67,78  L 67,79  L 68,79  L 68,78  L 76,78  L 76,77  L 77,77  L 77,78  L 78,78  L 78,77  L 79,77  L 79,78  L 80,78  L 80,77  L 89,77  L 89,76  L 92,76  L 92,77  L 93,77  L 93,76  L 97,76  L 97,75  L 98,75  L 98,74  L 99,74  L 99,73  L 100,73  L 100,77  L 101,77  L 101,79  L 100,79  L 100,81  L 101,81  L 101,83  L 100,83  L 100,85  L 101,85  L 101,88  L 100,88  L 100,89  L 101,89  L 101,92  L 100,92  L 100,93  L 101,93  L 101,96  L 100,96  L 100,98  L 101,98  L 101,99  L 100,99  L 100,118  L 99,118  L 99,127  L 105,127  L 105,126  L 106,126  L 106,121  L 107,121  L 107,120  L 106,120  L 106,119  L 107,119  L 107,14  L 106,14  L 106,8  L 105,8  L 105,4  L 104,4  L 104,2  L 103,2  L 103,1  L 101,1  L 101,0  L 100,0  L 100,1  L 99,1  L 99,2  L 98,2  L 98,4  L 97,4  L 97,7  L 98,7  L 98,12  L 99,12  L 99,17  L 100,17  L 100,21  L 101,21  L 101,38  L 98,38  L 98,39  L 93,39  L 93,40  L 87,40  L 87,41  L 86,41  L 86,40  L 85,40  L 85,41  L 82,41  L 82,40  L 81,40  L 81,41  L 78,41  L 78,40  L 77,40  L 77,41  L 74,41  L 74,40  L 73,40  L 73,41  L 70,41  L 70,40  L 69,40  L 69,41  L 66,41  L 66,40  L 65,40  L 65,41  L 62,41  L 62,43  Z  " style="fill:rgb(0, 0, 0); fill-opacity:1.000; stroke:none;" />
</svg>
