<?xml version="1.0" encoding="UTF-8" standalone="no"?>
<!DOCTYPE svg PUBLIC "-//W3C//DTD SVG 1.1//EN" 
  "http://www.w3.org/Graphics/SVG/1.1/DTD/svg11.dtd">
<svg width="105" height="97"
     xmlns="http://www.w3.org/2000/svg" version="1.1">
 <path d="  M 39,87  L 40,87  L 40,88  L 39,88  L 39,89  L 35,89  L 35,90  L 34,90  L 34,89  L 33,89  L 33,90  L 30,90  L 30,89  L 29,89  L 29,90  L 18,90  L 18,91  L 7,91  L 7,92  L 6,92  L 6,91  L 5,91  L 5,92  L 1,92  L 1,95  L 0,95  L 0,96  L 2,96  L 2,97  L 30,97  L 30,96  L 31,96  L 31,97  L 32,97  L 32,96  L 33,96  L 33,97  L 34,97  L 34,96  L 50,96  L 50,95  L 51,95  L 51,96  L 52,96  L 52,95  L 55,95  L 55,96  L 56,96  L 56,95  L 70,95  L 70,94  L 71,94  L 71,95  L 72,95  L 72,94  L 73,94  L 73,95  L 74,95  L 74,94  L 82,94  L 82,93  L 98,93  L 98,92  L 99,92  L 99,93  L 101,93  L 101,92  L 104,92  L 104,91  L 105,91  L 105,85  L 104,85  L 104,84  L 101,84  L 101,85  L 96,85  L 96,86  L 93,86  L 93,87  L 79,87  L 79,88  L 67,88  L 67,89  L 66,89  L 66,88  L 64,88  L 64,89  L 44,89  L 44,88  L 43,88  L 43,87  L 44,87  L 44,69  L 43,69  L 43,68  L 44,68  L 44,67  L 43,67  L 43,66  L 44,66  L 44,65  L 43,65  L 43,62  L 44,62  L 44,61  L 43,61  L 43,58  L 44,58  L 44,57  L 43,57  L 43,54  L 44,54  L 44,53  L 43,53  L 43,50  L 44,50  L 44,49  L 43,49  L 43,48  L 44,48  L 44,40  L 42,40  L 42,39  L 41,39  L 41,40  L 39,40  L 39,41  L 38,41  L 38,43  L 37,43  L 37,70  L 38,70  L 38,71  L 37,71  L 37,72  L 38,72  L 38,73  L 37,73  L 37,74  L 38,74  L 38,77  L 37,77  L 37,78  L 38,78  L 38,86  L 39,86  Z  " style="fill:rgb(0, 0, 0); fill-opacity:1.000; stroke:none;" />
 <path d="  M 28,8  L 28,9  L 29,9  L 29,8  L 31,8  L 31,9  L 44,9  L 44,8  L 58,8  L 58,7  L 60,7  L 60,8  L 61,8  L 61,7  L 64,7  L 64,8  L 65,8  L 65,7  L 66,7  L 66,8  L 71,8  L 71,9  L 75,9  L 75,10  L 77,10  L 77,11  L 78,11  L 78,14  L 79,14  L 79,15  L 78,15  L 78,17  L 77,17  L 77,21  L 76,21  L 76,23  L 75,23  L 75,28  L 74,28  L 74,34  L 73,34  L 73,43  L 72,43  L 72,61  L 71,61  L 71,67  L 72,67  L 72,69  L 76,69  L 76,68  L 77,68  L 77,67  L 78,67  L 78,66  L 79,66  L 79,65  L 78,65  L 78,64  L 79,64  L 79,54  L 80,54  L 80,53  L 79,53  L 79,52  L 80,52  L 80,49  L 79,49  L 79,48  L 80,48  L 80,37  L 81,37  L 81,30  L 82,30  L 82,29  L 81,29  L 81,28  L 82,28  L 82,25  L 83,25  L 83,20  L 84,20  L 84,16  L 85,16  L 85,9  L 84,9  L 84,7  L 83,7  L 83,6  L 82,6  L 82,5  L 81,5  L 81,4  L 79,4  L 79,3  L 77,3  L 77,2  L 74,2  L 74,1  L 65,1  L 65,0  L 62,0  L 62,1  L 61,1  L 61,0  L 60,0  L 60,1  L 59,1  L 59,0  L 57,0  L 57,1  L 41,1  L 41,2  L 38,2  L 38,1  L 37,1  L 37,2  L 27,2  L 27,4  L 25,4  L 25,6  L 26,6  L 26,7  L 27,7  L 27,8  Z  " style="fill:rgb(0, 0, 0); fill-opacity:1.000; stroke:none;" />
 <path d="  M 26,7  L 25,7  L 25,8  L 26,8  Z  " style="fill:rgb(0, 0, 0); fill-opacity:1.000; stroke:none;" />
</svg>
