<?xml version="1.0" encoding="UTF-8" standalone="no"?>
<!DOCTYPE svg PUBLIC "-//W3C//DTD SVG 1.1//EN" 
  "http://www.w3.org/Graphics/SVG/1.1/DTD/svg11.dtd">
<svg width="101" height="156"
     xmlns="http://www.w3.org/2000/svg" version="1.1">
 <path d="  M 72,74  L 72,75  L 71,75  L 71,74  L 70,74  L 70,75  L 69,75  L 69,74  L 68,74  L 68,75  L 53,75  L 53,76  L 50,76  L 50,75  L 49,75  L 49,67  L 48,67  L 48,55  L 47,55  L 47,32  L 46,32  L 46,30  L 43,30  L 43,31  L 42,31  L 42,32  L 41,32  L 41,35  L 40,35  L 40,60  L 41,60  L 41,73  L 42,73  L 42,74  L 43,74  L 43,75  L 44,75  L 44,76  L 42,76  L 42,77  L 32,77  L 32,78  L 24,78  L 24,79  L 17,79  L 17,80  L 16,80  L 16,79  L 15,79  L 15,80  L 14,80  L 14,79  L 13,79  L 13,80  L 12,80  L 12,81  L 8,81  L 8,82  L 4,82  L 4,83  L 2,83  L 2,85  L 1,85  L 1,86  L 0,86  L 0,87  L 1,87  L 1,88  L 3,88  L 3,89  L 11,89  L 11,88  L 13,88  L 13,87  L 14,87  L 14,88  L 15,88  L 15,87  L 16,87  L 16,88  L 17,88  L 17,87  L 20,87  L 20,86  L 26,86  L 26,85  L 32,85  L 32,84  L 41,84  L 41,83  L 44,83  L 44,84  L 45,84  L 45,83  L 54,83  L 54,82  L 55,82  L 55,83  L 56,83  L 56,82  L 57,82  L 57,83  L 58,83  L 58,82  L 68,82  L 68,81  L 69,81  L 69,82  L 70,82  L 70,81  L 78,81  L 78,80  L 79,80  L 79,81  L 82,81  L 82,80  L 93,80  L 93,79  L 94,79  L 94,80  L 97,80  L 97,79  L 98,79  L 98,78  L 100,78  L 100,77  L 101,77  L 101,71  L 97,71  L 97,72  L 91,72  L 91,73  L 84,73  L 84,74  L 82,74  L 82,73  L 81,73  L 81,74  Z  " style="fill:rgb(0, 0, 0); fill-opacity:1.000; stroke:none;" />
 <path d="  M 41,10  L 41,9  L 52,9  L 52,8  L 54,8  L 54,9  L 56,9  L 56,8  L 58,8  L 58,9  L 59,9  L 59,8  L 66,8  L 66,9  L 70,9  L 70,11  L 71,11  L 71,23  L 70,23  L 70,27  L 69,27  L 69,28  L 70,28  L 70,29  L 69,29  L 69,41  L 68,41  L 68,44  L 69,44  L 69,45  L 68,45  L 68,48  L 69,48  L 69,52  L 71,52  L 71,53  L 72,53  L 72,54  L 75,54  L 75,52  L 76,52  L 76,50  L 77,50  L 77,49  L 76,49  L 76,48  L 77,48  L 77,47  L 76,47  L 76,40  L 77,40  L 77,39  L 76,39  L 76,38  L 77,38  L 77,37  L 76,37  L 76,36  L 77,36  L 77,25  L 78,25  L 78,17  L 79,17  L 79,15  L 78,15  L 78,14  L 79,14  L 79,11  L 78,11  L 78,7  L 77,7  L 77,5  L 76,5  L 76,4  L 73,4  L 73,3  L 71,3  L 71,2  L 66,2  L 66,1  L 57,1  L 57,2  L 41,2  L 41,3  L 29,3  L 29,4  L 26,4  L 26,5  L 23,5  L 23,6  L 21,6  L 21,7  L 20,7  L 20,8  L 19,8  L 19,9  L 18,9  L 18,10  L 17,10  L 17,12  L 16,12  L 16,13  L 15,13  L 15,14  L 16,14  L 16,15  L 17,15  L 17,16  L 20,16  L 20,15  L 23,15  L 23,14  L 24,14  L 24,13  L 27,13  L 27,12  L 30,12  L 30,11  L 34,11  L 34,10  Z  " style="fill:rgb(0, 0, 0); fill-opacity:1.000; stroke:none;" />
 <path d="  M 71,113  L 70,113  L 70,115  L 69,115  L 69,123  L 68,123  L 68,129  L 67,129  L 67,134  L 66,134  L 66,137  L 65,137  L 65,143  L 64,143  L 64,149  L 63,149  L 63,153  L 62,153  L 62,154  L 63,154  L 63,156  L 70,156  L 70,153  L 71,153  L 71,148  L 72,148  L 72,144  L 73,144  L 73,138  L 74,138  L 74,133  L 75,133  L 75,125  L 76,125  L 76,122  L 77,122  L 77,121  L 76,121  L 76,120  L 77,120  L 77,116  L 78,116  L 78,111  L 79,111  L 79,104  L 78,104  L 78,103  L 77,103  L 77,101  L 76,101  L 76,100  L 75,100  L 75,99  L 71,99  L 71,98  L 60,98  L 60,99  L 53,99  L 53,100  L 50,100  L 50,99  L 49,99  L 49,100  L 45,100  L 45,101  L 39,101  L 39,102  L 32,102  L 32,103  L 26,103  L 26,104  L 24,104  L 24,105  L 23,105  L 23,110  L 24,110  L 24,111  L 28,111  L 28,110  L 33,110  L 33,109  L 38,109  L 38,108  L 46,108  L 46,107  L 47,107  L 47,108  L 48,108  L 48,107  L 54,107  L 54,106  L 59,106  L 59,105  L 66,105  L 66,106  L 70,106  L 70,107  L 71,107  Z  " style="fill:rgb(0, 0, 0); fill-opacity:1.000; stroke:none;" />
</svg>
