<?xml version="1.0" encoding="UTF-8" standalone="no"?>
<!DOCTYPE svg PUBLIC "-//W3C//DTD SVG 1.1//EN" 
  "http://www.w3.org/Graphics/SVG/1.1/DTD/svg11.dtd">
<svg width="109" height="107"
     xmlns="http://www.w3.org/2000/svg" version="1.1">
 <path d="  M 46,99  L 46,100  L 43,100  L 43,99  L 42,99  L 42,100  L 39,100  L 39,99  L 38,99  L 38,100  L 37,100  L 37,99  L 36,99  L 36,100  L 35,100  L 35,99  L 33,99  L 33,81  L 32,81  L 32,78  L 33,78  L 33,77  L 32,77  L 32,58  L 33,58  L 33,57  L 32,57  L 32,55  L 33,55  L 33,53  L 32,53  L 32,52  L 33,52  L 33,46  L 31,46  L 31,45  L 29,45  L 29,46  L 28,46  L 28,47  L 27,47  L 27,53  L 26,53  L 26,54  L 27,54  L 27,56  L 26,56  L 26,91  L 27,91  L 27,92  L 26,92  L 26,93  L 27,93  L 27,100  L 17,100  L 17,101  L 16,101  L 16,100  L 15,100  L 15,101  L 2,101  L 2,102  L 1,102  L 1,103  L 0,103  L 0,104  L 1,104  L 1,106  L 2,106  L 2,107  L 51,107  L 51,106  L 52,106  L 52,107  L 55,107  L 55,106  L 57,106  L 57,107  L 59,107  L 59,106  L 71,106  L 71,105  L 72,105  L 72,106  L 74,106  L 74,105  L 81,105  L 81,104  L 82,104  L 82,105  L 83,105  L 83,104  L 89,104  L 89,103  L 98,103  L 98,102  L 106,102  L 106,101  L 107,101  L 107,100  L 109,100  L 109,95  L 108,95  L 108,94  L 100,94  L 100,95  L 94,95  L 94,96  L 86,96  L 86,97  L 80,97  L 80,98  L 79,98  L 79,97  L 78,97  L 78,98  L 70,98  L 70,99  L 69,99  L 69,98  L 68,98  L 68,99  L 65,99  L 65,98  L 61,98  L 61,93  L 60,93  L 60,92  L 61,92  L 61,91  L 60,91  L 60,90  L 61,90  L 61,89  L 60,89  L 60,50  L 61,50  L 61,49  L 60,49  L 60,48  L 61,48  L 61,46  L 60,46  L 60,45  L 59,45  L 59,44  L 58,44  L 58,45  L 56,45  L 56,46  L 55,46  L 55,49  L 54,49  L 54,50  L 55,50  L 55,52  L 54,52  L 54,61  L 53,61  L 53,75  L 54,75  L 54,76  L 53,76  L 53,79  L 54,79  L 54,81  L 53,81  L 53,82  L 54,82  L 54,99  Z  " style="fill:rgb(0, 0, 0); fill-opacity:1.000; stroke:none;" />
 <path d="  M 46,2  L 32,2  L 32,3  L 30,3  L 30,2  L 29,2  L 29,3  L 26,3  L 26,4  L 25,4  L 25,5  L 24,5  L 24,8  L 25,8  L 25,9  L 26,9  L 26,10  L 27,10  L 27,9  L 28,9  L 28,10  L 37,10  L 37,9  L 38,9  L 38,10  L 39,10  L 39,9  L 55,9  L 55,8  L 56,8  L 56,9  L 59,9  L 59,8  L 60,8  L 60,9  L 62,9  L 62,8  L 64,8  L 64,9  L 65,9  L 65,8  L 68,8  L 68,9  L 70,9  L 70,8  L 71,8  L 71,9  L 78,9  L 78,10  L 80,10  L 80,12  L 81,12  L 81,19  L 80,19  L 80,24  L 79,24  L 79,29  L 78,29  L 78,40  L 77,40  L 77,42  L 78,42  L 78,44  L 77,44  L 77,60  L 76,60  L 76,61  L 77,61  L 77,62  L 76,62  L 76,69  L 75,69  L 75,73  L 76,73  L 76,74  L 77,74  L 77,75  L 79,75  L 79,74  L 80,74  L 80,72  L 81,72  L 81,71  L 82,71  L 82,68  L 83,68  L 83,62  L 84,62  L 84,54  L 85,54  L 85,53  L 84,53  L 84,50  L 85,50  L 85,36  L 86,36  L 86,35  L 85,35  L 85,34  L 86,34  L 86,26  L 87,26  L 87,17  L 88,17  L 88,12  L 87,12  L 87,10  L 86,10  L 86,9  L 85,9  L 85,7  L 84,7  L 84,6  L 83,6  L 83,5  L 82,5  L 82,4  L 81,4  L 81,3  L 79,3  L 79,2  L 76,2  L 76,1  L 54,1  L 54,2  L 51,2  L 51,1  L 50,1  L 50,2  L 47,2  L 47,1  L 46,1  Z  " style="fill:rgb(0, 0, 0); fill-opacity:1.000; stroke:none;" />
</svg>
