<?xml version="1.0" encoding="UTF-8" standalone="no"?>
<!DOCTYPE svg PUBLIC "-//W3C//DTD SVG 1.1//EN" 
  "http://www.w3.org/Graphics/SVG/1.1/DTD/svg11.dtd">
<svg width="102" height="147"
     xmlns="http://www.w3.org/2000/svg" version="1.1">
 <path d="  M 0,77  L 1,77  L 1,79  L 4,79  L 4,80  L 5,80  L 5,81  L 24,81  L 24,80  L 25,80  L 25,81  L 26,81  L 26,80  L 27,80  L 27,81  L 32,81  L 32,80  L 33,80  L 33,81  L 34,81  L 34,80  L 35,80  L 35,81  L 36,81  L 36,80  L 37,80  L 37,81  L 38,81  L 38,80  L 41,80  L 41,81  L 42,81  L 42,80  L 43,80  L 43,81  L 44,81  L 44,80  L 45,80  L 45,81  L 46,81  L 46,80  L 51,80  L 51,79  L 58,79  L 58,78  L 67,78  L 67,77  L 75,77  L 75,76  L 76,76  L 76,77  L 78,77  L 78,76  L 81,76  L 81,75  L 82,75  L 82,76  L 83,76  L 83,75  L 89,75  L 89,74  L 95,74  L 95,73  L 100,73  L 100,72  L 101,72  L 101,71  L 102,71  L 102,65  L 100,65  L 100,66  L 99,66  L 99,65  L 98,65  L 98,66  L 93,66  L 93,67  L 82,67  L 82,68  L 76,68  L 76,69  L 75,69  L 75,68  L 74,68  L 74,69  L 70,69  L 70,70  L 60,70  L 60,71  L 53,71  L 53,72  L 52,72  L 52,71  L 51,71  L 51,72  L 42,72  L 42,73  L 41,73  L 41,72  L 30,72  L 30,73  L 29,73  L 29,72  L 26,72  L 26,73  L 25,73  L 25,72  L 24,72  L 24,73  L 23,73  L 23,72  L 22,72  L 22,73  L 19,73  L 19,72  L 18,72  L 18,73  L 8,73  L 8,74  L 6,74  L 6,73  L 5,73  L 5,74  L 3,74  L 3,73  L 2,73  L 2,74  L 0,74  Z  " style="fill:rgb(0, 0, 0); fill-opacity:1.000; stroke:none;" />
 <path d="  M 68,18  L 67,18  L 67,23  L 66,23  L 66,29  L 65,29  L 65,34  L 64,34  L 64,35  L 65,35  L 65,36  L 64,36  L 64,37  L 65,37  L 65,38  L 64,38  L 64,56  L 65,56  L 65,59  L 67,59  L 67,60  L 70,60  L 70,59  L 71,59  L 71,58  L 72,58  L 72,33  L 73,33  L 73,32  L 72,32  L 72,31  L 73,31  L 73,25  L 74,25  L 74,19  L 75,19  L 75,14  L 76,14  L 76,13  L 75,13  L 75,12  L 76,12  L 76,9  L 75,9  L 75,7  L 74,7  L 74,6  L 73,6  L 73,5  L 72,5  L 72,4  L 71,4  L 71,3  L 70,3  L 70,2  L 66,2  L 66,1  L 56,1  L 56,0  L 54,0  L 54,1  L 35,1  L 35,2  L 29,2  L 29,3  L 25,3  L 25,4  L 22,4  L 22,5  L 20,5  L 20,6  L 18,6  L 18,7  L 17,7  L 17,8  L 16,8  L 16,13  L 15,13  L 15,14  L 16,14  L 16,15  L 19,15  L 19,14  L 22,14  L 22,13  L 24,13  L 24,12  L 26,12  L 26,11  L 28,11  L 28,10  L 33,10  L 33,9  L 41,9  L 41,8  L 42,8  L 42,9  L 43,9  L 43,8  L 62,8  L 62,9  L 66,9  L 66,10  L 67,10  L 67,11  L 68,11  Z  " style="fill:rgb(0, 0, 0); fill-opacity:1.000; stroke:none;" />
 <path d="  M 24,132  L 24,142  L 25,142  L 25,144  L 26,144  L 26,145  L 27,145  L 27,147  L 43,147  L 43,146  L 47,146  L 47,145  L 52,145  L 52,144  L 57,144  L 57,143  L 62,143  L 62,142  L 69,142  L 69,141  L 75,141  L 75,140  L 81,140  L 81,139  L 86,139  L 86,138  L 89,138  L 89,137  L 91,137  L 91,136  L 92,136  L 92,135  L 94,135  L 94,132  L 93,132  L 93,131  L 91,131  L 91,130  L 88,130  L 88,131  L 85,131  L 85,132  L 80,132  L 80,133  L 75,133  L 75,134  L 72,134  L 72,135  L 71,135  L 71,134  L 70,134  L 70,135  L 63,135  L 63,136  L 62,136  L 62,135  L 61,135  L 61,136  L 58,136  L 58,137  L 55,137  L 55,136  L 54,136  L 54,138  L 49,138  L 49,139  L 44,139  L 44,140  L 37,140  L 37,141  L 34,141  L 34,140  L 32,140  L 32,133  L 31,133  L 31,132  L 32,132  L 32,129  L 31,129  L 31,128  L 32,128  L 32,122  L 31,122  L 31,121  L 32,121  L 32,101  L 33,101  L 33,100  L 32,100  L 32,99  L 33,99  L 33,91  L 32,91  L 32,90  L 29,90  L 29,91  L 28,91  L 28,93  L 27,93  L 27,94  L 26,94  L 26,96  L 25,96  L 25,98  L 24,98  L 24,107  L 23,107  L 23,109  L 24,109  L 24,111  L 23,111  L 23,113  L 24,113  L 24,115  L 23,115  L 23,117  L 24,117  L 24,119  L 23,119  L 23,121  L 24,121  L 24,123  L 23,123  L 23,125  L 24,125  L 24,127  L 23,127  L 23,129  L 24,129  L 24,131  L 23,131  L 23,132  Z  " style="fill:rgb(0, 0, 0); fill-opacity:1.000; stroke:none;" />
</svg>
