<?xml version="1.0" encoding="UTF-8" standalone="no"?>
<!DOCTYPE svg PUBLIC "-//W3C//DTD SVG 1.1//EN" 
  "http://www.w3.org/Graphics/SVG/1.1/DTD/svg11.dtd">
<svg width="96" height="178"
     xmlns="http://www.w3.org/2000/svg" version="1.1">
 <path d="  M 36,48  L 36,50  L 35,50  L 35,51  L 34,51  L 34,53  L 33,53  L 33,54  L 32,54  L 32,55  L 31,55  L 31,57  L 30,57  L 30,59  L 29,59  L 29,60  L 28,60  L 28,62  L 27,62  L 27,63  L 26,63  L 26,64  L 25,64  L 25,66  L 23,66  L 23,67  L 22,67  L 22,68  L 21,68  L 21,70  L 20,70  L 20,71  L 19,71  L 19,72  L 18,72  L 18,74  L 17,74  L 17,76  L 16,76  L 16,77  L 15,77  L 15,79  L 14,79  L 14,80  L 13,80  L 13,82  L 12,82  L 12,84  L 11,84  L 11,85  L 10,85  L 10,86  L 9,86  L 9,89  L 10,89  L 10,90  L 12,90  L 12,91  L 13,91  L 13,90  L 15,90  L 15,89  L 17,89  L 17,88  L 19,88  L 19,86  L 20,86  L 20,85  L 21,85  L 21,84  L 22,84  L 22,82  L 23,82  L 23,80  L 24,80  L 24,79  L 25,79  L 25,76  L 26,76  L 26,75  L 27,75  L 27,74  L 28,74  L 28,73  L 29,73  L 29,72  L 30,72  L 30,71  L 31,71  L 31,69  L 32,69  L 32,68  L 33,68  L 33,67  L 34,67  L 34,65  L 35,65  L 35,64  L 36,64  L 36,63  L 37,63  L 37,61  L 38,61  L 38,59  L 39,59  L 39,57  L 40,57  L 40,56  L 41,56  L 41,55  L 42,55  L 42,53  L 43,53  L 43,51  L 44,51  L 44,50  L 45,50  L 45,48  L 46,48  L 46,47  L 47,47  L 47,46  L 48,46  L 48,45  L 49,45  L 49,43  L 50,43  L 50,41  L 51,41  L 51,40  L 52,40  L 52,39  L 53,39  L 53,37  L 54,37  L 54,35  L 55,35  L 55,34  L 56,34  L 56,32  L 57,32  L 57,31  L 58,31  L 58,29  L 59,29  L 59,22  L 58,22  L 58,21  L 57,21  L 57,20  L 55,20  L 55,19  L 54,19  L 54,18  L 53,18  L 53,17  L 52,17  L 52,16  L 51,16  L 51,15  L 45,15  L 45,14  L 43,14  L 43,15  L 31,15  L 31,16  L 30,16  L 30,15  L 29,15  L 29,16  L 22,16  L 22,17  L 17,17  L 17,18  L 14,18  L 14,19  L 13,19  L 13,18  L 11,18  L 11,19  L 9,19  L 9,20  L 6,20  L 6,21  L 2,21  L 2,22  L 1,22  L 1,29  L 7,29  L 7,28  L 10,28  L 10,27  L 12,27  L 12,26  L 15,26  L 15,25  L 20,25  L 20,24  L 21,24  L 21,25  L 22,25  L 22,24  L 26,24  L 26,23  L 32,23  L 32,22  L 33,22  L 33,23  L 34,23  L 34,22  L 43,22  L 43,23  L 46,23  L 46,22  L 47,22  L 47,23  L 49,23  L 49,24  L 50,24  L 50,25  L 51,25  L 51,29  L 50,29  L 50,31  L 49,31  L 49,32  L 48,32  L 48,34  L 47,34  L 47,35  L 46,35  L 46,36  L 45,36  L 45,37  L 44,37  L 44,38  L 43,38  L 43,40  L 42,40  L 42,41  L 41,41  L 41,43  L 40,43  L 40,44  L 39,44  L 39,45  L 38,45  L 38,46  L 37,46  L 37,48  Z  " style="fill:rgb(0, 0, 0); fill-opacity:1.000; stroke:none;" />
 <path d="  M 39,107  L 39,108  L 32,108  L 32,109  L 30,109  L 30,115  L 32,115  L 32,116  L 35,116  L 35,115  L 40,115  L 40,114  L 48,114  L 48,113  L 52,113  L 52,114  L 55,114  L 55,113  L 56,113  L 56,114  L 65,114  L 65,115  L 69,115  L 69,116  L 70,116  L 70,117  L 73,117  L 73,118  L 74,118  L 74,120  L 75,120  L 75,124  L 74,124  L 74,125  L 73,125  L 73,126  L 72,126  L 72,127  L 71,127  L 71,128  L 69,128  L 69,129  L 67,129  L 67,130  L 66,130  L 66,131  L 64,131  L 64,132  L 62,132  L 62,133  L 60,133  L 60,134  L 57,134  L 57,135  L 56,135  L 56,136  L 54,136  L 54,137  L 52,137  L 52,138  L 50,138  L 50,139  L 48,139  L 48,140  L 45,140  L 45,141  L 42,141  L 42,142  L 38,142  L 38,143  L 36,143  L 36,144  L 34,144  L 34,145  L 32,145  L 32,144  L 31,144  L 31,146  L 29,146  L 29,147  L 28,147  L 28,149  L 27,149  L 27,150  L 26,150  L 26,152  L 25,152  L 25,154  L 24,154  L 24,158  L 25,158  L 25,166  L 26,166  L 26,171  L 27,171  L 27,173  L 28,173  L 28,174  L 30,174  L 30,175  L 32,175  L 32,176  L 33,176  L 33,177  L 37,177  L 37,178  L 63,178  L 63,177  L 68,177  L 68,176  L 71,176  L 71,175  L 73,175  L 73,174  L 75,174  L 75,173  L 78,173  L 78,172  L 80,172  L 80,171  L 83,171  L 83,170  L 85,170  L 85,169  L 87,169  L 87,168  L 89,168  L 89,167  L 90,167  L 90,166  L 92,166  L 92,165  L 93,165  L 93,164  L 95,164  L 95,162  L 96,162  L 96,157  L 92,157  L 92,158  L 89,158  L 89,159  L 87,159  L 87,160  L 85,160  L 85,161  L 84,161  L 84,162  L 83,162  L 83,163  L 80,163  L 80,164  L 79,164  L 79,165  L 75,165  L 75,166  L 71,166  L 71,167  L 68,167  L 68,168  L 66,168  L 66,169  L 62,169  L 62,170  L 54,170  L 54,171  L 52,171  L 52,170  L 50,170  L 50,171  L 49,171  L 49,170  L 37,170  L 37,169  L 36,169  L 36,168  L 34,168  L 34,166  L 33,166  L 33,156  L 34,156  L 34,153  L 35,153  L 35,152  L 37,152  L 37,151  L 39,151  L 39,150  L 42,150  L 42,149  L 44,149  L 44,148  L 46,148  L 46,147  L 49,147  L 49,146  L 52,146  L 52,145  L 55,145  L 55,144  L 57,144  L 57,143  L 59,143  L 59,142  L 60,142  L 60,141  L 63,141  L 63,140  L 65,140  L 65,139  L 67,139  L 67,138  L 68,138  L 68,137  L 70,137  L 70,136  L 72,136  L 72,135  L 74,135  L 74,134  L 76,134  L 76,133  L 77,133  L 77,132  L 79,132  L 79,131  L 80,131  L 80,130  L 81,130  L 81,129  L 82,129  L 82,128  L 83,128  L 83,126  L 84,126  L 84,120  L 83,120  L 83,118  L 82,118  L 82,115  L 81,115  L 81,114  L 80,114  L 80,113  L 79,113  L 79,112  L 78,112  L 78,111  L 76,111  L 76,110  L 72,110  L 72,109  L 69,109  L 69,108  L 62,108  L 62,107  L 52,107  L 52,106  L 51,106  L 51,107  L 48,107  L 48,106  L 47,106  L 47,107  L 44,107  L 44,106  L 43,106  L 43,107  Z  " style="fill:rgb(0, 0, 0); fill-opacity:1.000; stroke:none;" />
 <path d="  M 87,7  L 88,7  L 88,8  L 87,8  L 87,11  L 88,11  L 88,12  L 87,12  L 87,15  L 88,15  L 88,16  L 87,16  L 87,19  L 88,19  L 88,50  L 89,50  L 89,51  L 88,51  L 88,53  L 89,53  L 89,55  L 88,55  L 88,56  L 89,56  L 89,91  L 90,91  L 90,97  L 89,97  L 89,100  L 90,100  L 90,102  L 92,102  L 92,103  L 94,103  L 94,102  L 95,102  L 95,101  L 96,101  L 96,13  L 95,13  L 95,12  L 96,12  L 96,11  L 95,11  L 95,7  L 96,7  L 96,4  L 95,4  L 95,2  L 94,2  L 94,1  L 92,1  L 92,0  L 88,0  L 88,1  L 87,1  Z  " style="fill:rgb(0, 0, 0); fill-opacity:1.000; stroke:none;" />
</svg>
