<?xml version="1.0" encoding="UTF-8" standalone="no"?>
<!DOCTYPE svg PUBLIC "-//W3C//DTD SVG 1.1//EN" 
  "http://www.w3.org/Graphics/SVG/1.1/DTD/svg11.dtd">
<svg width="111" height="92"
     xmlns="http://www.w3.org/2000/svg" version="1.1">
 <path d="  M 37,31  L 38,31  L 38,29  L 39,29  L 39,26  L 40,26  L 40,24  L 41,24  L 41,23  L 43,23  L 43,22  L 47,22  L 47,21  L 48,21  L 48,22  L 50,22  L 50,21  L 58,21  L 58,22  L 59,22  L 59,23  L 60,23  L 60,24  L 59,24  L 59,28  L 58,28  L 58,29  L 59,29  L 59,30  L 58,30  L 58,34  L 57,34  L 57,38  L 56,38  L 56,41  L 55,41  L 55,44  L 54,44  L 54,47  L 53,47  L 53,51  L 52,51  L 52,54  L 51,54  L 51,56  L 50,56  L 50,57  L 49,57  L 49,59  L 48,59  L 48,61  L 47,61  L 47,64  L 46,64  L 46,65  L 45,65  L 45,66  L 44,66  L 44,68  L 43,68  L 43,70  L 42,70  L 42,71  L 41,71  L 41,72  L 40,72  L 40,74  L 39,74  L 39,75  L 43,75  L 43,74  L 46,74  L 46,73  L 47,73  L 47,72  L 48,72  L 48,71  L 49,71  L 49,70  L 50,70  L 50,69  L 51,69  L 51,67  L 52,67  L 52,66  L 53,66  L 53,64  L 54,64  L 54,62  L 55,62  L 55,60  L 56,60  L 56,58  L 57,58  L 57,56  L 58,56  L 58,53  L 59,53  L 59,51  L 60,51  L 60,49  L 61,49  L 61,45  L 62,45  L 62,42  L 63,42  L 63,37  L 64,37  L 64,33  L 65,33  L 65,27  L 66,27  L 66,23  L 67,23  L 67,18  L 66,18  L 66,17  L 65,17  L 65,16  L 60,16  L 60,15  L 49,15  L 49,16  L 46,16  L 46,15  L 45,15  L 45,16  L 38,16  L 38,15  L 37,15  L 37,16  L 34,16  L 34,15  L 32,15  L 32,14  L 22,14  L 22,15  L 18,15  L 18,16  L 12,16  L 12,17  L 4,17  L 4,18  L 1,18  L 1,20  L 0,20  L 0,22  L 1,22  L 1,24  L 4,24  L 4,25  L 8,25  L 8,24  L 9,24  L 9,25  L 10,25  L 10,24  L 15,24  L 15,23  L 16,23  L 16,24  L 17,24  L 17,23  L 21,23  L 21,22  L 27,22  L 27,21  L 30,21  L 30,20  L 32,20  L 32,21  L 33,21  L 33,27  L 32,27  L 32,30  L 31,30  L 31,32  L 30,32  L 30,34  L 29,34  L 29,35  L 28,35  L 28,36  L 27,36  L 27,38  L 26,38  L 26,39  L 25,39  L 25,40  L 24,40  L 24,41  L 23,41  L 23,44  L 22,44  L 22,46  L 21,46  L 21,47  L 20,47  L 20,49  L 19,49  L 19,52  L 18,52  L 18,53  L 17,53  L 17,55  L 16,55  L 16,57  L 15,57  L 15,60  L 14,60  L 14,62  L 13,62  L 13,64  L 12,64  L 12,65  L 11,65  L 11,68  L 10,68  L 10,71  L 11,71  L 11,73  L 13,73  L 13,74  L 14,74  L 14,73  L 15,73  L 15,72  L 16,72  L 16,70  L 17,70  L 17,68  L 18,68  L 18,67  L 19,67  L 19,64  L 20,64  L 20,62  L 21,62  L 21,60  L 22,60  L 22,58  L 23,58  L 23,56  L 24,56  L 24,53  L 25,53  L 25,52  L 26,52  L 26,50  L 27,50  L 27,49  L 28,49  L 28,48  L 29,48  L 29,46  L 30,46  L 30,44  L 31,44  L 31,42  L 32,42  L 32,40  L 33,40  L 33,38  L 34,38  L 34,37  L 35,37  L 35,36  L 36,36  L 36,33  L 37,33  Z  " style="fill:rgb(0, 0, 0); fill-opacity:1.000; stroke:none;" />
 <path d="  M 111,19  L 110,19  L 110,17  L 111,17  L 111,16  L 110,16  L 110,1  L 107,1  L 107,0  L 106,0  L 106,1  L 105,1  L 105,2  L 104,2  L 104,24  L 105,24  L 105,26  L 104,26  L 104,27  L 105,27  L 105,30  L 104,30  L 104,31  L 105,31  L 105,33  L 104,33  L 104,35  L 99,35  L 99,36  L 98,36  L 98,35  L 97,35  L 97,36  L 89,36  L 89,35  L 88,35  L 88,33  L 89,33  L 89,32  L 88,32  L 88,14  L 87,14  L 87,13  L 88,13  L 88,12  L 87,12  L 87,11  L 88,11  L 88,6  L 87,6  L 87,5  L 84,5  L 84,6  L 82,6  L 82,7  L 81,7  L 81,8  L 80,8  L 80,23  L 81,23  L 81,24  L 80,24  L 80,25  L 81,25  L 81,26  L 80,26  L 80,27  L 81,27  L 81,30  L 80,30  L 80,31  L 81,31  L 81,32  L 80,32  L 80,33  L 81,33  L 81,34  L 80,34  L 80,35  L 81,35  L 81,36  L 80,36  L 80,55  L 79,55  L 79,56  L 80,56  L 80,57  L 79,57  L 79,60  L 80,60  L 80,61  L 79,61  L 79,84  L 80,84  L 80,85  L 82,85  L 82,84  L 84,84  L 84,83  L 85,83  L 85,81  L 86,81  L 86,48  L 87,48  L 87,42  L 88,42  L 88,41  L 105,41  L 105,58  L 104,58  L 104,59  L 105,59  L 105,62  L 104,62  L 104,63  L 105,63  L 105,66  L 104,66  L 104,67  L 105,67  L 105,69  L 104,69  L 104,89  L 105,89  L 105,91  L 106,91  L 106,92  L 109,92  L 109,90  L 110,90  L 110,73  L 111,73  L 111,71  L 110,71  L 110,70  L 111,70  Z  " style="fill:rgb(0, 0, 0); fill-opacity:1.000; stroke:none;" />
</svg>
