<?xml version="1.0" encoding="UTF-8" standalone="no"?>
<!DOCTYPE svg PUBLIC "-//W3C//DTD SVG 1.1//EN" 
  "http://www.w3.org/Graphics/SVG/1.1/DTD/svg11.dtd">
<svg width="100" height="157"
     xmlns="http://www.w3.org/2000/svg" version="1.1">
 <path d="  M 4,80  L 4,81  L 3,81  L 3,80  L 2,80  L 2,81  L 1,81  L 1,84  L 0,84  L 0,85  L 1,85  L 1,86  L 2,86  L 2,87  L 4,87  L 4,88  L 9,88  L 9,87  L 12,87  L 12,86  L 13,86  L 13,87  L 14,87  L 14,86  L 19,86  L 19,85  L 27,85  L 27,84  L 28,84  L 28,85  L 29,85  L 29,84  L 38,84  L 38,83  L 55,83  L 55,82  L 57,82  L 57,83  L 58,83  L 58,82  L 61,82  L 61,83  L 62,83  L 62,82  L 65,82  L 65,83  L 66,83  L 66,82  L 87,82  L 87,81  L 98,81  L 98,80  L 99,80  L 99,79  L 100,79  L 100,73  L 94,73  L 94,74  L 86,74  L 86,75  L 85,75  L 85,74  L 84,74  L 84,75  L 83,75  L 83,74  L 82,74  L 82,75  L 79,75  L 79,74  L 78,74  L 78,75  L 75,75  L 75,74  L 74,74  L 74,75  L 71,75  L 71,74  L 70,74  L 70,75  L 67,75  L 67,74  L 66,74  L 66,75  L 57,75  L 57,73  L 58,73  L 58,71  L 57,71  L 57,66  L 56,66  L 56,60  L 55,60  L 55,54  L 54,54  L 54,36  L 53,36  L 53,32  L 52,32  L 52,31  L 51,31  L 51,32  L 49,32  L 49,35  L 48,35  L 48,37  L 47,37  L 47,57  L 48,57  L 48,61  L 49,61  L 49,70  L 50,70  L 50,72  L 51,72  L 51,76  L 40,76  L 40,77  L 39,77  L 39,76  L 37,76  L 37,77  L 25,77  L 25,78  L 18,78  L 18,79  L 17,79  L 17,78  L 16,78  L 16,79  L 15,79  L 15,78  L 14,78  L 14,79  L 11,79  L 11,80  Z  " style="fill:rgb(0, 0, 0); fill-opacity:1.000; stroke:none;" />
 <path d="  M 18,9  L 30,9  L 30,18  L 29,18  L 29,20  L 28,20  L 28,24  L 27,24  L 27,26  L 26,26  L 26,30  L 25,30  L 25,34  L 24,34  L 24,39  L 23,39  L 23,50  L 22,50  L 22,51  L 23,51  L 23,52  L 25,52  L 25,53  L 27,53  L 27,52  L 29,52  L 29,51  L 30,51  L 30,49  L 31,49  L 31,37  L 32,37  L 32,31  L 33,31  L 33,27  L 34,27  L 34,24  L 35,24  L 35,20  L 36,20  L 36,15  L 37,15  L 37,7  L 36,7  L 36,6  L 35,6  L 35,4  L 33,4  L 33,3  L 32,3  L 32,2  L 30,2  L 30,1  L 28,1  L 28,2  L 27,2  L 27,1  L 26,1  L 26,2  L 18,2  L 18,3  L 15,3  L 15,4  L 10,4  L 10,5  L 7,5  L 7,6  L 6,6  L 6,7  L 5,7  L 5,11  L 6,11  L 6,12  L 7,12  L 7,13  L 10,13  L 10,12  L 13,12  L 13,11  L 15,11  L 15,10  L 18,10  Z  " style="fill:rgb(0, 0, 0); fill-opacity:1.000; stroke:none;" />
 <path d="  M 75,124  L 76,124  L 76,123  L 77,123  L 77,120  L 78,120  L 78,117  L 79,117  L 79,116  L 80,116  L 80,113  L 81,113  L 81,111  L 82,111  L 82,108  L 81,108  L 81,107  L 82,107  L 82,106  L 81,106  L 81,105  L 80,105  L 80,104  L 79,104  L 79,103  L 78,103  L 78,102  L 76,102  L 76,101  L 74,101  L 74,100  L 72,100  L 72,99  L 69,99  L 69,98  L 54,98  L 54,99  L 43,99  L 43,100  L 38,100  L 38,101  L 29,101  L 29,102  L 22,102  L 22,103  L 20,103  L 20,104  L 19,104  L 19,108  L 18,108  L 18,109  L 20,109  L 20,110  L 21,110  L 21,111  L 24,111  L 24,110  L 27,110  L 27,109  L 33,109  L 33,108  L 37,108  L 37,107  L 43,107  L 43,106  L 44,106  L 44,107  L 45,107  L 45,106  L 58,106  L 58,105  L 61,105  L 61,106  L 68,106  L 68,107  L 70,107  L 70,108  L 71,108  L 71,109  L 72,109  L 72,110  L 73,110  L 73,112  L 72,112  L 72,114  L 71,114  L 71,116  L 70,116  L 70,118  L 69,118  L 69,121  L 68,121  L 68,124  L 67,124  L 67,127  L 66,127  L 66,131  L 65,131  L 65,136  L 64,136  L 64,138  L 63,138  L 63,142  L 62,142  L 62,147  L 61,147  L 61,152  L 60,152  L 60,157  L 66,157  L 66,156  L 67,156  L 67,155  L 68,155  L 68,154  L 67,154  L 67,153  L 68,153  L 68,151  L 69,151  L 69,147  L 70,147  L 70,144  L 71,144  L 71,139  L 72,139  L 72,136  L 73,136  L 73,133  L 74,133  L 74,128  L 75,128  Z  " style="fill:rgb(0, 0, 0); fill-opacity:1.000; stroke:none;" />
 <path d="  M 61,2  L 61,3  L 55,3  L 55,4  L 43,4  L 43,5  L 42,5  L 42,4  L 41,4  L 41,9  L 42,9  L 42,12  L 47,12  L 47,11  L 57,11  L 57,10  L 66,10  L 66,9  L 73,9  L 73,16  L 72,16  L 72,24  L 71,24  L 71,34  L 70,34  L 70,47  L 73,47  L 73,48  L 75,48  L 75,47  L 76,47  L 76,44  L 77,44  L 77,34  L 78,34  L 78,24  L 79,24  L 79,13  L 80,13  L 80,6  L 79,6  L 79,4  L 78,4  L 78,3  L 77,3  L 77,2  L 76,2  L 76,1  L 70,1  L 70,2  Z  " style="fill:rgb(0, 0, 0); fill-opacity:1.000; stroke:none;" />
</svg>
