<?xml version="1.0" encoding="UTF-8" standalone="no"?>
<!DOCTYPE svg PUBLIC "-//W3C//DTD SVG 1.1//EN" 
  "http://www.w3.org/Graphics/SVG/1.1/DTD/svg11.dtd">
<svg width="104" height="149"
     xmlns="http://www.w3.org/2000/svg" version="1.1">
 <path d="  M 7,14  L 8,14  L 8,13  L 7,13  L 7,12  L 6,12  L 6,10  L 5,10  L 5,9  L 3,9  L 3,8  L 2,8  L 2,9  L 1,9  L 1,13  L 0,13  L 0,14  L 1,14  L 1,15  L 0,15  L 0,16  L 1,16  L 1,17  L 0,17  L 0,18  L 1,18  L 1,30  L 2,30  L 2,39  L 3,39  L 3,45  L 4,45  L 4,50  L 5,50  L 5,54  L 6,54  L 6,60  L 7,60  L 7,61  L 6,61  L 6,62  L 7,62  L 7,65  L 8,65  L 8,67  L 9,67  L 9,68  L 10,68  L 10,69  L 12,69  L 12,70  L 13,70  L 13,71  L 18,71  L 18,72  L 19,72  L 19,71  L 26,71  L 26,70  L 31,70  L 31,69  L 32,69  L 32,70  L 33,70  L 33,69  L 49,69  L 49,68  L 50,68  L 50,69  L 52,69  L 52,68  L 56,68  L 56,67  L 57,67  L 57,66  L 58,66  L 58,65  L 59,65  L 59,64  L 61,64  L 61,63  L 60,63  L 60,62  L 50,62  L 50,63  L 49,63  L 49,62  L 47,62  L 47,63  L 46,63  L 46,62  L 31,62  L 31,63  L 25,63  L 25,64  L 17,64  L 17,63  L 15,63  L 15,62  L 14,62  L 14,61  L 13,61  L 13,59  L 12,59  L 12,53  L 11,53  L 11,49  L 10,49  L 10,42  L 9,42  L 9,35  L 8,35  L 8,27  L 7,27  Z  " style="fill:rgb(0, 0, 0); fill-opacity:1.000; stroke:none;" />
 <path d="  M 26,136  L 27,136  L 27,137  L 26,137  L 26,138  L 27,138  L 27,141  L 28,141  L 28,144  L 29,144  L 29,145  L 30,145  L 30,146  L 31,146  L 31,148  L 34,148  L 34,149  L 59,149  L 59,148  L 64,148  L 64,147  L 71,147  L 71,146  L 79,146  L 79,145  L 92,145  L 92,144  L 94,144  L 94,145  L 95,145  L 95,144  L 101,144  L 101,143  L 103,143  L 103,142  L 104,142  L 104,137  L 103,137  L 103,136  L 98,136  L 98,137  L 91,137  L 91,138  L 89,138  L 89,137  L 88,137  L 88,138  L 80,138  L 80,139  L 79,139  L 79,138  L 77,138  L 77,139  L 65,139  L 65,140  L 59,140  L 59,141  L 52,141  L 52,142  L 37,142  L 37,141  L 36,141  L 36,140  L 35,140  L 35,137  L 34,137  L 34,130  L 33,130  L 33,111  L 32,111  L 32,110  L 33,110  L 33,109  L 32,109  L 32,103  L 33,103  L 33,97  L 32,97  L 32,95  L 27,95  L 27,96  L 26,96  L 26,97  L 25,97  L 25,98  L 26,98  L 26,100  L 25,100  L 25,127  L 26,127  L 26,128  L 25,128  L 25,129  L 26,129  Z  " style="fill:rgb(0, 0, 0); fill-opacity:1.000; stroke:none;" />
 <path d="  M 88,88  L 89,88  L 89,89  L 92,89  L 92,88  L 93,88  L 93,89  L 94,89  L 94,88  L 95,88  L 95,60  L 96,60  L 96,59  L 95,59  L 95,33  L 94,33  L 94,32  L 95,32  L 95,29  L 94,29  L 94,22  L 93,22  L 93,18  L 92,18  L 92,13  L 91,13  L 91,12  L 92,12  L 92,11  L 91,11  L 91,5  L 90,5  L 90,2  L 89,2  L 89,1  L 84,1  L 84,8  L 85,8  L 85,16  L 86,16  L 86,17  L 85,17  L 85,18  L 84,18  L 84,19  L 83,19  L 83,18  L 82,18  L 82,19  L 71,19  L 71,20  L 69,20  L 69,19  L 68,19  L 68,20  L 59,20  L 59,21  L 58,21  L 58,20  L 57,20  L 57,21  L 53,21  L 53,22  L 50,22  L 50,23  L 47,23  L 47,24  L 42,24  L 42,28  L 43,28  L 43,29  L 45,29  L 45,28  L 46,28  L 46,29  L 47,29  L 47,30  L 48,30  L 48,29  L 54,29  L 54,28  L 61,28  L 61,27  L 62,27  L 62,28  L 63,28  L 63,27  L 69,27  L 69,26  L 70,26  L 70,27  L 71,27  L 71,26  L 87,26  L 87,34  L 88,34  L 88,35  L 87,35  L 87,38  L 81,38  L 81,39  L 74,39  L 74,40  L 73,40  L 73,39  L 71,39  L 71,40  L 63,40  L 63,41  L 56,41  L 56,42  L 53,42  L 53,43  L 50,43  L 50,44  L 47,44  L 47,45  L 43,45  L 43,46  L 42,46  L 42,48  L 41,48  L 41,49  L 42,49  L 42,50  L 44,50  L 44,51  L 52,51  L 52,50  L 54,50  L 54,49  L 57,49  L 57,48  L 61,48  L 61,47  L 62,47  L 62,48  L 63,48  L 63,47  L 67,47  L 67,46  L 78,46  L 78,45  L 84,45  L 84,44  L 86,44  L 86,45  L 87,45  L 87,46  L 88,46  L 88,49  L 87,49  L 87,50  L 88,50  Z  " style="fill:rgb(0, 0, 0); fill-opacity:1.000; stroke:none;" />
</svg>
