<?xml version="1.0" encoding="UTF-8" standalone="no"?>
<!DOCTYPE svg PUBLIC "-//W3C//DTD SVG 1.1//EN" 
  "http://www.w3.org/Graphics/SVG/1.1/DTD/svg11.dtd">
<svg width="107" height="106"
     xmlns="http://www.w3.org/2000/svg" version="1.1">
 <path d="  M 14,10  L 15,10  L 15,48  L 16,48  L 16,52  L 17,52  L 17,53  L 18,53  L 18,54  L 19,54  L 19,55  L 21,55  L 21,56  L 24,56  L 24,57  L 37,57  L 37,56  L 38,56  L 38,57  L 39,57  L 39,56  L 40,56  L 40,57  L 41,57  L 41,56  L 48,56  L 48,95  L 47,95  L 47,97  L 45,97  L 45,96  L 42,96  L 42,97  L 30,97  L 30,98  L 18,98  L 18,99  L 8,99  L 8,100  L 2,100  L 2,102  L 0,102  L 0,103  L 1,103  L 1,105  L 2,105  L 2,106  L 25,106  L 25,105  L 33,105  L 33,104  L 34,104  L 34,105  L 35,105  L 35,104  L 49,104  L 49,103  L 51,103  L 51,104  L 70,104  L 70,105  L 73,105  L 73,104  L 74,104  L 74,105  L 81,105  L 81,104  L 82,104  L 82,105  L 85,105  L 85,104  L 86,104  L 86,105  L 87,105  L 87,104  L 104,104  L 104,103  L 106,103  L 106,102  L 107,102  L 107,97  L 105,97  L 105,96  L 98,96  L 98,97  L 85,97  L 85,98  L 73,98  L 73,97  L 70,97  L 70,98  L 69,98  L 69,97  L 66,97  L 66,98  L 65,98  L 65,97  L 55,97  L 55,91  L 54,91  L 54,90  L 55,90  L 55,87  L 54,87  L 54,84  L 55,84  L 55,83  L 54,83  L 54,81  L 55,81  L 55,78  L 54,78  L 54,77  L 55,77  L 55,67  L 54,67  L 54,66  L 55,66  L 55,58  L 54,58  L 54,56  L 57,56  L 57,55  L 63,55  L 63,54  L 75,54  L 75,53  L 83,53  L 83,52  L 84,52  L 84,53  L 85,53  L 85,52  L 89,52  L 89,51  L 91,51  L 91,50  L 92,50  L 92,49  L 93,49  L 93,46  L 94,46  L 94,44  L 93,44  L 93,43  L 92,43  L 92,42  L 90,42  L 90,43  L 88,43  L 88,44  L 86,44  L 86,45  L 83,45  L 83,46  L 76,46  L 76,47  L 64,47  L 64,48  L 61,48  L 61,47  L 60,47  L 60,48  L 53,48  L 53,49  L 38,49  L 38,50  L 37,50  L 37,49  L 35,49  L 35,50  L 23,50  L 23,47  L 22,47  L 22,39  L 21,39  L 21,38  L 22,38  L 22,37  L 21,37  L 21,34  L 22,34  L 22,33  L 21,33  L 21,32  L 22,32  L 22,31  L 21,31  L 21,30  L 22,30  L 22,29  L 21,29  L 21,3  L 20,3  L 20,1  L 19,1  L 19,0  L 16,0  L 16,1  L 15,1  L 15,2  L 14,2  Z  " style="fill:rgb(0, 0, 0); fill-opacity:1.000; stroke:none;" />
</svg>
