<?xml version="1.0" encoding="UTF-8" standalone="no"?>
<!DOCTYPE svg PUBLIC "-//W3C//DTD SVG 1.1//EN" 
  "http://www.w3.org/Graphics/SVG/1.1/DTD/svg11.dtd">
<svg width="105" height="163"
     xmlns="http://www.w3.org/2000/svg" version="1.1">
 <path d="  M 54,54  L 53,54  L 53,52  L 52,52  L 52,51  L 53,51  L 53,48  L 58,48  L 58,47  L 62,47  L 62,46  L 66,46  L 66,45  L 70,45  L 70,44  L 74,44  L 74,43  L 75,43  L 75,44  L 76,44  L 76,43  L 78,43  L 78,42  L 82,42  L 82,41  L 84,41  L 84,40  L 87,40  L 87,39  L 88,39  L 88,38  L 89,38  L 89,37  L 90,37  L 90,35  L 89,35  L 89,33  L 88,33  L 88,31  L 85,31  L 85,32  L 83,32  L 83,33  L 82,33  L 82,34  L 79,34  L 79,35  L 76,35  L 76,36  L 71,36  L 71,37  L 68,37  L 68,38  L 64,38  L 64,39  L 59,39  L 59,40  L 55,40  L 55,41  L 49,41  L 49,42  L 42,42  L 42,43  L 27,43  L 27,42  L 23,42  L 23,41  L 22,41  L 22,39  L 21,39  L 21,29  L 22,29  L 22,20  L 23,20  L 23,16  L 24,16  L 24,15  L 23,15  L 23,13  L 24,13  L 24,4  L 25,4  L 25,3  L 24,3  L 24,1  L 23,1  L 23,0  L 20,0  L 20,1  L 19,1  L 19,2  L 18,2  L 18,3  L 17,3  L 17,4  L 18,4  L 18,6  L 17,6  L 17,8  L 18,8  L 18,9  L 17,9  L 17,18  L 16,18  L 16,23  L 15,23  L 15,31  L 14,31  L 14,32  L 15,32  L 15,33  L 14,33  L 14,40  L 15,40  L 15,42  L 14,42  L 14,43  L 15,43  L 15,46  L 16,46  L 16,47  L 18,47  L 18,48  L 20,48  L 20,49  L 24,49  L 24,50  L 45,50  L 45,52  L 46,52  L 46,55  L 47,55  L 47,93  L 48,93  L 48,94  L 47,94  L 47,95  L 39,95  L 39,96  L 36,96  L 36,95  L 35,95  L 35,96  L 31,96  L 31,97  L 25,97  L 25,98  L 20,98  L 20,99  L 3,99  L 3,100  L 2,100  L 2,101  L 1,101  L 1,106  L 3,106  L 3,107  L 14,107  L 14,106  L 15,106  L 15,107  L 16,107  L 16,106  L 18,106  L 18,107  L 19,107  L 19,106  L 21,106  L 21,107  L 22,107  L 22,106  L 26,106  L 26,105  L 30,105  L 30,104  L 37,104  L 37,103  L 38,103  L 38,104  L 39,104  L 39,103  L 48,103  L 48,102  L 52,102  L 52,101  L 53,101  L 53,102  L 54,102  L 54,101  L 60,101  L 60,100  L 61,100  L 61,101  L 62,101  L 62,100  L 80,100  L 80,99  L 82,99  L 82,100  L 83,100  L 83,99  L 86,99  L 86,100  L 87,100  L 87,99  L 92,99  L 92,98  L 103,98  L 103,97  L 105,97  L 105,91  L 104,91  L 104,90  L 96,90  L 96,91  L 90,91  L 90,92  L 88,92  L 88,91  L 87,91  L 87,92  L 71,92  L 71,93  L 70,93  L 70,92  L 67,92  L 67,93  L 66,93  L 66,92  L 65,92  L 65,93  L 57,93  L 57,92  L 56,92  L 56,93  L 55,93  L 55,91  L 54,91  L 54,64  L 55,64  L 55,63  L 54,63  Z  " style="fill:rgb(0, 0, 0); fill-opacity:1.000; stroke:none;" />
 <path d="  M 47,163  L 47,162  L 50,162  L 50,161  L 54,161  L 54,160  L 61,160  L 61,159  L 64,159  L 64,158  L 65,158  L 65,159  L 66,159  L 66,158  L 71,158  L 71,157  L 76,157  L 76,156  L 77,156  L 77,157  L 78,157  L 78,156  L 84,156  L 84,155  L 90,155  L 90,154  L 92,154  L 92,153  L 93,153  L 93,154  L 94,154  L 94,153  L 96,153  L 96,152  L 97,152  L 97,151  L 99,151  L 99,149  L 100,149  L 100,146  L 99,146  L 99,145  L 94,145  L 94,146  L 90,146  L 90,147  L 87,147  L 87,148  L 83,148  L 83,149  L 82,149  L 82,148  L 80,148  L 80,149  L 77,149  L 77,150  L 76,150  L 76,149  L 75,149  L 75,150  L 72,150  L 72,151  L 63,151  L 63,152  L 60,152  L 60,151  L 59,151  L 59,152  L 55,152  L 55,153  L 51,153  L 51,154  L 49,154  L 49,155  L 43,155  L 43,156  L 39,156  L 39,157  L 30,157  L 30,156  L 29,156  L 29,122  L 30,122  L 30,116  L 31,116  L 31,113  L 30,113  L 30,112  L 25,112  L 25,113  L 24,113  L 24,115  L 23,115  L 23,123  L 22,123  L 22,124  L 23,124  L 23,125  L 22,125  L 22,128  L 23,128  L 23,129  L 22,129  L 22,142  L 23,142  L 23,143  L 22,143  L 22,144  L 23,144  L 23,145  L 22,145  L 22,148  L 23,148  L 23,150  L 22,150  L 22,152  L 23,152  L 23,153  L 22,153  L 22,159  L 23,159  L 23,162  L 24,162  L 24,163  Z  " style="fill:rgb(0, 0, 0); fill-opacity:1.000; stroke:none;" />
</svg>
