<?xml version="1.0" encoding="UTF-8" standalone="no"?>
<!DOCTYPE svg PUBLIC "-//W3C//DTD SVG 1.1//EN" 
  "http://www.w3.org/Graphics/SVG/1.1/DTD/svg11.dtd">
<svg width="107" height="148"
     xmlns="http://www.w3.org/2000/svg" version="1.1">
 <path d="  M 1,86  L 2,86  L 2,87  L 5,87  L 5,88  L 7,88  L 7,87  L 9,87  L 9,86  L 11,86  L 11,85  L 16,85  L 16,84  L 20,84  L 20,83  L 21,83  L 21,84  L 23,84  L 23,83  L 31,83  L 31,82  L 36,82  L 36,81  L 44,81  L 44,80  L 63,80  L 63,79  L 67,79  L 67,78  L 68,78  L 68,75  L 67,75  L 67,74  L 66,74  L 66,73  L 65,73  L 65,74  L 64,74  L 64,73  L 63,73  L 63,74  L 50,74  L 50,75  L 38,75  L 38,54  L 37,54  L 37,53  L 38,53  L 38,52  L 40,52  L 40,51  L 46,51  L 46,50  L 51,50  L 51,49  L 56,49  L 56,48  L 60,48  L 60,47  L 63,47  L 63,46  L 65,46  L 65,45  L 66,45  L 66,44  L 67,44  L 67,39  L 61,39  L 61,40  L 58,40  L 58,41  L 55,41  L 55,42  L 51,42  L 51,43  L 46,43  L 46,44  L 39,44  L 39,45  L 34,45  L 34,46  L 30,46  L 30,47  L 26,47  L 26,48  L 18,48  L 18,49  L 15,49  L 15,48  L 14,48  L 14,47  L 13,47  L 13,46  L 12,46  L 12,41  L 11,41  L 11,33  L 10,33  L 10,32  L 11,32  L 11,31  L 10,31  L 10,10  L 9,10  L 9,8  L 8,8  L 8,7  L 4,7  L 4,11  L 3,11  L 3,12  L 4,12  L 4,15  L 3,15  L 3,16  L 4,16  L 4,35  L 5,35  L 5,44  L 6,44  L 6,45  L 5,45  L 5,46  L 6,46  L 6,48  L 7,48  L 7,52  L 8,52  L 8,53  L 9,53  L 9,54  L 10,54  L 10,55  L 12,55  L 12,54  L 13,54  L 13,55  L 19,55  L 19,54  L 20,54  L 20,55  L 22,55  L 22,54  L 27,54  L 27,53  L 28,53  L 28,54  L 32,54  L 32,73  L 33,73  L 33,77  L 32,77  L 32,78  L 22,78  L 22,79  L 15,79  L 15,80  L 9,80  L 9,81  L 3,81  L 3,80  L 2,80  L 2,81  L 1,81  Z  " style="fill:rgb(0, 0, 0); fill-opacity:1.000; stroke:none;" />
 <path d="  M 23,135  L 24,135  L 24,134  L 25,134  L 25,133  L 26,133  L 26,132  L 27,132  L 27,131  L 28,131  L 28,129  L 29,129  L 29,128  L 30,128  L 30,127  L 31,127  L 31,126  L 32,126  L 32,125  L 33,125  L 33,123  L 34,123  L 34,121  L 35,121  L 35,118  L 38,118  L 38,119  L 41,119  L 41,120  L 43,120  L 43,121  L 46,121  L 46,122  L 49,122  L 49,123  L 51,123  L 51,124  L 53,124  L 53,125  L 54,125  L 54,126  L 56,126  L 56,127  L 57,127  L 57,129  L 58,129  L 58,130  L 57,130  L 57,134  L 56,134  L 56,135  L 55,135  L 55,137  L 54,137  L 54,139  L 53,139  L 53,143  L 52,143  L 52,147  L 53,147  L 53,148  L 57,148  L 57,147  L 58,147  L 58,144  L 59,144  L 59,142  L 60,142  L 60,139  L 61,139  L 61,136  L 62,136  L 62,134  L 63,134  L 63,133  L 65,133  L 65,132  L 66,132  L 66,130  L 67,130  L 67,129  L 68,129  L 68,127  L 69,127  L 69,125  L 70,125  L 70,123  L 71,123  L 71,120  L 72,120  L 72,119  L 75,119  L 75,120  L 76,120  L 76,121  L 77,121  L 77,122  L 78,122  L 78,123  L 80,123  L 80,124  L 81,124  L 81,125  L 82,125  L 82,126  L 85,126  L 85,127  L 86,127  L 86,128  L 88,128  L 88,129  L 89,129  L 89,130  L 91,130  L 91,131  L 93,131  L 93,132  L 95,132  L 95,133  L 96,133  L 96,134  L 97,134  L 97,135  L 98,135  L 98,136  L 99,136  L 99,137  L 100,137  L 100,138  L 101,138  L 101,139  L 103,139  L 103,140  L 105,140  L 105,138  L 106,138  L 106,134  L 105,134  L 105,133  L 104,133  L 104,132  L 103,132  L 103,131  L 101,131  L 101,130  L 100,130  L 100,129  L 99,129  L 99,128  L 97,128  L 97,127  L 96,127  L 96,126  L 95,126  L 95,125  L 93,125  L 93,124  L 91,124  L 91,123  L 89,123  L 89,122  L 88,122  L 88,121  L 86,121  L 86,120  L 85,120  L 85,119  L 83,119  L 83,118  L 82,118  L 82,117  L 81,117  L 81,116  L 80,116  L 80,115  L 78,115  L 78,111  L 77,111  L 77,109  L 78,109  L 78,106  L 79,106  L 79,104  L 80,104  L 80,101  L 81,101  L 81,95  L 80,95  L 80,96  L 79,96  L 79,97  L 76,97  L 76,98  L 75,98  L 75,100  L 74,100  L 74,102  L 73,102  L 73,105  L 72,105  L 72,106  L 71,106  L 71,107  L 70,107  L 70,109  L 69,109  L 69,111  L 68,111  L 68,114  L 67,114  L 67,115  L 66,115  L 66,119  L 65,119  L 65,124  L 64,124  L 64,126  L 63,126  L 63,127  L 62,127  L 62,126  L 61,126  L 61,123  L 60,123  L 60,122  L 59,122  L 59,121  L 57,121  L 57,120  L 55,120  L 55,119  L 53,119  L 53,118  L 52,118  L 52,117  L 48,117  L 48,116  L 46,116  L 46,115  L 44,115  L 44,114  L 42,114  L 42,113  L 41,113  L 41,109  L 42,109  L 42,108  L 44,108  L 44,106  L 45,106  L 45,104  L 46,104  L 46,103  L 47,103  L 47,101  L 48,101  L 48,98  L 49,98  L 49,93  L 48,93  L 48,92  L 47,92  L 47,91  L 42,91  L 42,90  L 41,90  L 41,91  L 40,91  L 40,93  L 42,93  L 42,95  L 43,95  L 43,98  L 42,98  L 42,101  L 41,101  L 41,104  L 40,104  L 40,105  L 39,105  L 39,106  L 38,106  L 38,107  L 37,107  L 37,109  L 36,109  L 36,110  L 35,110  L 35,112  L 34,112  L 34,114  L 33,114  L 33,115  L 32,115  L 32,116  L 31,116  L 31,117  L 30,117  L 30,119  L 29,119  L 29,120  L 28,120  L 28,122  L 27,122  L 27,123  L 26,123  L 26,124  L 25,124  L 25,125  L 24,125  L 24,126  L 23,126  L 23,127  L 22,127  L 22,129  L 21,129  L 21,130  L 20,130  L 20,131  L 19,131  L 19,132  L 18,132  L 18,133  L 17,133  L 17,135  L 16,135  L 16,137  L 15,137  L 15,140  L 16,140  L 16,142  L 18,142  L 18,143  L 20,143  L 20,141  L 21,141  L 21,139  L 22,139  L 22,136  L 23,136  Z  " style="fill:rgb(0, 0, 0); fill-opacity:1.000; stroke:none;" />
 <path d="  M 35,97  L 35,96  L 36,96  L 36,95  L 37,95  L 37,94  L 38,94  L 38,92  L 39,92  L 39,91  L 37,91  L 37,90  L 35,90  L 35,91  L 32,91  L 32,92  L 31,92  L 31,93  L 29,93  L 29,96  L 31,96  L 31,97  Z  " style="fill:rgb(0, 0, 0); fill-opacity:1.000; stroke:none;" />
 <path d="  M 75,86  L 76,86  L 76,87  L 81,87  L 81,84  L 82,84  L 82,83  L 81,83  L 81,80  L 82,80  L 82,79  L 81,79  L 81,76  L 82,76  L 82,75  L 81,75  L 81,72  L 82,72  L 82,71  L 81,71  L 81,70  L 82,70  L 82,67  L 81,67  L 81,66  L 82,66  L 82,63  L 81,63  L 81,62  L 82,62  L 82,59  L 81,59  L 81,58  L 82,58  L 82,56  L 81,56  L 81,54  L 82,54  L 82,48  L 87,48  L 87,47  L 106,47  L 106,46  L 107,46  L 107,41  L 98,41  L 98,40  L 97,40  L 97,41  L 94,41  L 94,40  L 93,40  L 93,41  L 89,41  L 89,40  L 86,40  L 86,41  L 82,41  L 82,40  L 81,40  L 81,31  L 80,31  L 80,25  L 79,25  L 79,17  L 78,17  L 78,9  L 77,9  L 77,8  L 78,8  L 78,7  L 77,7  L 77,3  L 76,3  L 76,1  L 75,1  L 75,0  L 72,0  L 72,3  L 71,3  L 71,4  L 72,4  L 72,5  L 71,5  L 71,13  L 72,13  L 72,19  L 73,19  L 73,26  L 74,26  L 74,32  L 75,32  L 75,34  L 74,34  L 74,35  L 75,35  Z  " style="fill:rgb(0, 0, 0); fill-opacity:1.000; stroke:none;" />
</svg>
