<?xml version="1.0" encoding="UTF-8" standalone="no"?>
<!DOCTYPE svg PUBLIC "-//W3C//DTD SVG 1.1//EN" 
  "http://www.w3.org/Graphics/SVG/1.1/DTD/svg11.dtd">
<svg width="102" height="158"
     xmlns="http://www.w3.org/2000/svg" version="1.1">
 <path d="  M 52,87  L 52,86  L 63,86  L 63,85  L 64,85  L 64,86  L 65,86  L 65,85  L 83,85  L 83,84  L 84,84  L 84,85  L 87,85  L 87,84  L 88,84  L 88,85  L 89,85  L 89,84  L 101,84  L 101,83  L 102,83  L 102,75  L 98,75  L 98,76  L 94,76  L 94,77  L 88,77  L 88,78  L 68,78  L 68,79  L 67,79  L 67,78  L 64,78  L 64,79  L 49,79  L 49,80  L 48,80  L 48,79  L 45,79  L 45,80  L 43,80  L 43,79  L 42,79  L 42,80  L 20,80  L 20,81  L 19,81  L 19,80  L 18,80  L 18,81  L 14,81  L 14,82  L 8,82  L 8,83  L 7,83  L 7,82  L 2,82  L 2,83  L 1,83  L 1,84  L 0,84  L 0,87  L 1,87  L 1,89  L 3,89  L 3,90  L 8,90  L 8,89  L 21,89  L 21,88  L 34,88  L 34,87  Z  " style="fill:rgb(0, 0, 0); fill-opacity:1.000; stroke:none;" />
 <path d="  M 19,36  L 20,36  L 20,42  L 21,42  L 21,45  L 22,45  L 22,48  L 23,48  L 23,50  L 24,50  L 24,52  L 25,52  L 25,53  L 27,53  L 27,54  L 32,54  L 32,55  L 34,55  L 34,54  L 41,54  L 41,53  L 49,53  L 49,52  L 50,52  L 50,53  L 51,53  L 51,52  L 55,52  L 55,51  L 56,51  L 56,52  L 57,52  L 57,51  L 62,51  L 62,50  L 67,50  L 67,49  L 71,49  L 71,48  L 75,48  L 75,47  L 76,47  L 76,48  L 77,48  L 77,47  L 79,47  L 79,46  L 83,46  L 83,45  L 85,45  L 85,44  L 86,44  L 86,43  L 88,43  L 88,39  L 89,39  L 89,37  L 88,37  L 88,36  L 84,36  L 84,37  L 82,37  L 82,38  L 80,38  L 80,39  L 76,39  L 76,40  L 73,40  L 73,41  L 68,41  L 68,42  L 63,42  L 63,43  L 59,43  L 59,44  L 54,44  L 54,45  L 51,45  L 51,46  L 40,46  L 40,47  L 30,47  L 30,45  L 29,45  L 29,44  L 28,44  L 28,39  L 27,39  L 27,35  L 26,35  L 26,28  L 25,28  L 25,26  L 26,26  L 26,8  L 25,8  L 25,7  L 26,7  L 26,4  L 25,4  L 25,1  L 24,1  L 24,0  L 20,0  L 20,1  L 19,1  Z  " style="fill:rgb(0, 0, 0); fill-opacity:1.000; stroke:none;" />
 <path d="  M 34,100  L 33,100  L 33,99  L 30,99  L 30,100  L 28,100  L 28,102  L 27,102  L 27,103  L 26,103  L 26,108  L 25,108  L 25,115  L 24,115  L 24,117  L 25,117  L 25,118  L 24,118  L 24,131  L 23,131  L 23,132  L 24,132  L 24,135  L 23,135  L 23,136  L 24,136  L 24,139  L 23,139  L 23,140  L 24,140  L 24,143  L 23,143  L 23,144  L 24,144  L 24,153  L 25,153  L 25,156  L 26,156  L 26,157  L 28,157  L 28,158  L 41,158  L 41,157  L 45,157  L 45,156  L 49,156  L 49,155  L 53,155  L 53,154  L 55,154  L 55,153  L 61,153  L 61,152  L 69,152  L 69,151  L 74,151  L 74,150  L 79,150  L 79,149  L 85,149  L 85,148  L 88,148  L 88,147  L 91,147  L 91,146  L 92,146  L 92,147  L 93,147  L 93,146  L 95,146  L 95,145  L 96,145  L 96,144  L 97,144  L 97,140  L 96,140  L 96,139  L 91,139  L 91,140  L 88,140  L 88,141  L 84,141  L 84,142  L 80,142  L 80,143  L 75,143  L 75,144  L 74,144  L 74,143  L 73,143  L 73,144  L 66,144  L 66,145  L 62,145  L 62,146  L 61,146  L 61,145  L 59,145  L 59,146  L 54,146  L 54,147  L 51,147  L 51,148  L 46,148  L 46,149  L 42,149  L 42,150  L 39,150  L 39,151  L 37,151  L 37,152  L 35,152  L 35,153  L 34,153  L 34,152  L 32,152  L 32,147  L 31,147  L 31,146  L 32,146  L 32,145  L 31,145  L 31,144  L 32,144  L 32,121  L 33,121  L 33,120  L 32,120  L 32,119  L 33,119  L 33,113  L 34,113  L 34,112  L 33,112  L 33,111  L 34,111  L 34,110  L 33,110  L 33,109  L 34,109  L 34,105  L 35,105  L 35,101  L 34,101  Z  " style="fill:rgb(0, 0, 0); fill-opacity:1.000; stroke:none;" />
</svg>
