<?xml version="1.0" encoding="UTF-8" standalone="no"?>
<!DOCTYPE svg PUBLIC "-//W3C//DTD SVG 1.1//EN" 
  "http://www.w3.org/Graphics/SVG/1.1/DTD/svg11.dtd">
<svg width="103" height="157"
     xmlns="http://www.w3.org/2000/svg" version="1.1">
 <path d="  M 0,79  L 3,79  L 3,80  L 5,80  L 5,81  L 6,81  L 6,80  L 9,80  L 9,81  L 10,81  L 10,80  L 21,80  L 21,79  L 34,79  L 34,78  L 35,78  L 35,79  L 36,79  L 36,78  L 37,78  L 37,79  L 38,79  L 38,78  L 39,78  L 39,79  L 40,79  L 40,78  L 54,78  L 54,77  L 55,77  L 55,78  L 56,78  L 56,77  L 69,77  L 69,76  L 82,76  L 82,75  L 83,75  L 83,76  L 84,76  L 84,75  L 85,75  L 85,76  L 86,76  L 86,75  L 87,75  L 87,76  L 88,76  L 88,75  L 89,75  L 89,76  L 90,76  L 90,75  L 91,75  L 91,76  L 94,76  L 94,75  L 95,75  L 95,76  L 102,76  L 102,75  L 103,75  L 103,69  L 102,69  L 102,68  L 101,68  L 101,67  L 96,67  L 96,68  L 92,68  L 92,69  L 90,69  L 90,68  L 89,68  L 89,69  L 86,69  L 86,68  L 85,68  L 85,69  L 67,69  L 67,70  L 55,70  L 55,71  L 54,71  L 54,70  L 52,70  L 52,71  L 35,71  L 35,72  L 34,72  L 34,71  L 32,71  L 32,72  L 18,72  L 18,73  L 10,73  L 10,74  L 9,74  L 9,73  L 8,73  L 8,74  L 3,74  L 3,75  L 2,75  L 2,74  L 1,74  L 1,75  L 0,75  Z  " style="fill:rgb(0, 0, 0); fill-opacity:1.000; stroke:none;" />
 <path d="  M 83,36  L 83,37  L 81,37  L 81,38  L 78,38  L 78,39  L 73,39  L 73,40  L 68,40  L 68,41  L 66,41  L 66,40  L 65,40  L 65,41  L 61,41  L 61,42  L 52,42  L 52,43  L 33,43  L 33,42  L 32,42  L 32,40  L 31,40  L 31,33  L 30,33  L 30,23  L 29,23  L 29,3  L 30,3  L 30,2  L 29,2  L 29,1  L 28,1  L 28,0  L 24,0  L 24,2  L 23,2  L 23,33  L 24,33  L 24,41  L 25,41  L 25,45  L 26,45  L 26,46  L 27,46  L 27,47  L 28,47  L 28,49  L 32,49  L 32,50  L 50,50  L 50,49  L 51,49  L 51,50  L 52,50  L 52,49  L 62,49  L 62,48  L 68,48  L 68,47  L 74,47  L 74,46  L 80,46  L 80,45  L 83,45  L 83,44  L 85,44  L 85,42  L 86,42  L 86,41  L 87,41  L 87,36  Z  " style="fill:rgb(0, 0, 0); fill-opacity:1.000; stroke:none;" />
 <path d="  M 42,107  L 41,107  L 41,108  L 40,108  L 40,109  L 39,109  L 39,110  L 38,110  L 38,111  L 37,111  L 37,112  L 35,112  L 35,114  L 33,114  L 33,116  L 32,116  L 32,118  L 31,118  L 31,119  L 30,119  L 30,120  L 29,120  L 29,122  L 28,122  L 28,123  L 27,123  L 27,126  L 26,126  L 26,127  L 25,127  L 25,129  L 24,129  L 24,133  L 23,133  L 23,147  L 24,147  L 24,149  L 25,149  L 25,150  L 26,150  L 26,151  L 27,151  L 27,152  L 28,152  L 28,153  L 29,153  L 29,154  L 31,154  L 31,155  L 33,155  L 33,156  L 37,156  L 37,157  L 61,157  L 61,156  L 62,156  L 62,155  L 65,155  L 65,154  L 66,154  L 66,153  L 68,153  L 68,152  L 70,152  L 70,150  L 72,150  L 72,149  L 73,149  L 73,148  L 74,148  L 74,147  L 75,147  L 75,146  L 76,146  L 76,145  L 77,145  L 77,144  L 78,144  L 78,143  L 79,143  L 79,141  L 81,141  L 81,138  L 82,138  L 82,136  L 83,136  L 83,133  L 84,133  L 84,129  L 85,129  L 85,120  L 84,120  L 84,117  L 83,117  L 83,115  L 81,115  L 81,113  L 80,113  L 80,112  L 79,112  L 79,111  L 78,111  L 78,110  L 77,110  L 77,109  L 76,109  L 76,108  L 73,108  L 73,107  L 70,107  L 70,106  L 69,106  L 69,107  L 68,107  L 68,106  L 66,106  L 66,105  L 64,105  L 64,104  L 61,104  L 61,103  L 60,103  L 60,102  L 59,102  L 59,101  L 58,101  L 58,100  L 57,100  L 57,99  L 56,99  L 56,97  L 53,97  L 53,98  L 51,98  L 51,99  L 50,99  L 50,100  L 49,100  L 49,101  L 48,101  L 48,102  L 47,102  L 47,103  L 46,103  L 46,104  L 45,104  L 45,105  L 44,105  L 44,106  L 42,106  Z  M 75,119  L 75,120  L 76,120  L 76,122  L 77,122  L 77,130  L 76,130  L 76,134  L 75,134  L 75,137  L 74,137  L 74,138  L 73,138  L 73,139  L 72,139  L 72,141  L 71,141  L 71,142  L 70,142  L 70,143  L 68,143  L 68,144  L 67,144  L 67,145  L 65,145  L 65,146  L 64,146  L 64,147  L 63,147  L 63,148  L 61,148  L 61,149  L 59,149  L 59,150  L 45,150  L 45,149  L 43,149  L 43,150  L 42,150  L 42,149  L 37,149  L 37,148  L 35,148  L 35,147  L 33,147  L 33,146  L 32,146  L 32,144  L 31,144  L 31,134  L 32,134  L 32,132  L 33,132  L 33,129  L 34,129  L 34,127  L 35,127  L 35,125  L 36,125  L 36,123  L 37,123  L 37,122  L 38,122  L 38,120  L 39,120  L 39,119  L 40,119  L 40,118  L 42,118  L 42,117  L 43,117  L 43,116  L 44,116  L 44,115  L 46,115  L 46,114  L 47,114  L 47,113  L 50,113  L 50,112  L 53,112  L 53,111  L 54,111  L 54,110  L 55,110  L 55,111  L 58,111  L 58,112  L 60,112  L 60,113  L 63,113  L 63,114  L 67,114  L 67,115  L 69,115  L 69,116  L 72,116  L 72,117  L 73,117  L 73,119  Z  " style="fill:rgb(0, 0, 0); fill-opacity:1.000; stroke:none;" />
</svg>
