<?xml version="1.0" encoding="UTF-8" standalone="no"?>
<!DOCTYPE svg PUBLIC "-//W3C//DTD SVG 1.1//EN" 
  "http://www.w3.org/Graphics/SVG/1.1/DTD/svg11.dtd">
<svg width="108" height="158"
     xmlns="http://www.w3.org/2000/svg" version="1.1">
 <path d="  M 60,64  L 53,64  L 53,65  L 49,65  L 49,66  L 45,66  L 45,67  L 40,67  L 40,68  L 34,68  L 34,69  L 26,69  L 26,70  L 25,70  L 25,69  L 24,69  L 24,70  L 21,70  L 21,69  L 17,69  L 17,68  L 16,68  L 16,66  L 15,66  L 15,62  L 14,62  L 14,49  L 13,49  L 13,26  L 14,26  L 14,24  L 15,24  L 15,23  L 19,23  L 19,24  L 20,24  L 20,23  L 27,23  L 27,22  L 28,22  L 28,23  L 29,23  L 29,22  L 30,22  L 30,23  L 31,23  L 31,22  L 35,22  L 35,21  L 41,21  L 41,20  L 42,20  L 42,21  L 43,21  L 43,20  L 47,20  L 47,19  L 52,19  L 52,18  L 54,18  L 54,17  L 55,17  L 55,16  L 56,16  L 56,11  L 51,11  L 51,12  L 46,12  L 46,13  L 40,13  L 40,14  L 35,14  L 35,15  L 27,15  L 27,16  L 25,16  L 25,15  L 24,15  L 24,16  L 10,16  L 10,17  L 9,17  L 9,18  L 7,18  L 7,19  L 6,19  L 6,20  L 3,20  L 3,21  L 2,21  L 2,22  L 1,22  L 1,23  L 0,23  L 0,25  L 1,25  L 1,24  L 2,24  L 2,25  L 4,25  L 4,24  L 5,24  L 5,25  L 6,25  L 6,48  L 7,48  L 7,51  L 6,51  L 6,52  L 7,52  L 7,64  L 8,64  L 8,68  L 9,68  L 9,69  L 8,69  L 8,70  L 9,70  L 9,73  L 10,73  L 10,74  L 11,74  L 11,75  L 13,75  L 13,76  L 20,76  L 20,77  L 27,77  L 27,76  L 33,76  L 33,75  L 34,75  L 34,76  L 35,76  L 35,75  L 40,75  L 40,74  L 44,74  L 44,73  L 49,73  L 49,72  L 56,72  L 56,71  L 57,71  L 57,70  L 59,70  L 59,69  L 60,69  Z  " style="fill:rgb(0, 0, 0); fill-opacity:1.000; stroke:none;" />
 <path d="  M 49,150  L 49,151  L 48,151  L 48,150  L 47,150  L 47,151  L 44,151  L 44,150  L 43,150  L 43,151  L 40,151  L 40,150  L 35,150  L 35,149  L 34,149  L 34,148  L 33,148  L 33,147  L 32,147  L 32,145  L 31,145  L 31,139  L 32,139  L 32,138  L 33,138  L 33,137  L 35,137  L 35,136  L 38,136  L 38,135  L 40,135  L 40,134  L 43,134  L 43,133  L 47,133  L 47,132  L 50,132  L 50,131  L 52,131  L 52,130  L 55,130  L 55,129  L 59,129  L 59,128  L 64,128  L 64,127  L 65,127  L 65,126  L 69,126  L 69,125  L 72,125  L 72,124  L 73,124  L 73,123  L 74,123  L 74,122  L 76,122  L 76,121  L 78,121  L 78,119  L 79,119  L 79,118  L 80,118  L 80,117  L 81,117  L 81,115  L 82,115  L 82,112  L 83,112  L 83,107  L 82,107  L 82,106  L 80,106  L 80,103  L 79,103  L 79,102  L 77,102  L 77,101  L 76,101  L 76,100  L 75,100  L 75,99  L 72,99  L 72,98  L 69,98  L 69,97  L 66,97  L 66,96  L 63,96  L 63,95  L 60,95  L 60,94  L 53,94  L 53,93  L 52,93  L 52,94  L 51,94  L 51,93  L 48,93  L 48,94  L 47,94  L 47,93  L 46,93  L 46,94  L 45,94  L 45,93  L 38,93  L 38,94  L 35,94  L 35,95  L 32,95  L 32,96  L 31,96  L 31,97  L 30,97  L 30,100  L 31,100  L 31,101  L 32,101  L 32,102  L 33,102  L 33,101  L 34,101  L 34,102  L 37,102  L 37,101  L 51,101  L 51,100  L 52,100  L 52,101  L 59,101  L 59,102  L 62,102  L 62,103  L 64,103  L 64,104  L 67,104  L 67,106  L 70,106  L 70,107  L 72,107  L 72,108  L 73,108  L 73,110  L 74,110  L 74,111  L 75,111  L 75,112  L 74,112  L 74,113  L 73,113  L 73,114  L 72,114  L 72,115  L 71,115  L 71,116  L 69,116  L 69,117  L 67,117  L 67,118  L 65,118  L 65,119  L 63,119  L 63,120  L 61,120  L 61,121  L 55,121  L 55,122  L 51,122  L 51,123  L 48,123  L 48,124  L 47,124  L 47,125  L 44,125  L 44,126  L 41,126  L 41,127  L 38,127  L 38,128  L 35,128  L 35,129  L 32,129  L 32,130  L 29,130  L 29,131  L 27,131  L 27,132  L 26,132  L 26,134  L 25,134  L 25,135  L 24,135  L 24,146  L 25,146  L 25,149  L 26,149  L 26,151  L 27,151  L 27,154  L 29,154  L 29,155  L 30,155  L 30,156  L 31,156  L 31,157  L 34,157  L 34,158  L 55,158  L 55,157  L 61,157  L 61,156  L 65,156  L 65,155  L 68,155  L 68,154  L 72,154  L 72,153  L 75,153  L 75,152  L 77,152  L 77,151  L 80,151  L 80,150  L 81,150  L 81,149  L 85,149  L 85,148  L 86,148  L 86,147  L 88,147  L 88,146  L 89,146  L 89,145  L 90,145  L 90,144  L 91,144  L 91,142  L 92,142  L 92,137  L 88,137  L 88,138  L 87,138  L 87,139  L 84,139  L 84,140  L 82,140  L 82,141  L 81,141  L 81,142  L 79,142  L 79,143  L 76,143  L 76,145  L 73,145  L 73,146  L 71,146  L 71,147  L 64,147  L 64,148  L 61,148  L 61,149  L 55,149  L 55,150  Z  " style="fill:rgb(0, 0, 0); fill-opacity:1.000; stroke:none;" />
 <path d="  M 74,54  L 75,54  L 75,57  L 74,57  L 74,58  L 75,58  L 75,61  L 74,61  L 74,62  L 75,62  L 75,80  L 76,80  L 76,86  L 77,86  L 77,87  L 78,87  L 78,88  L 81,88  L 81,87  L 82,87  L 82,71  L 81,71  L 81,70  L 82,70  L 82,69  L 81,69  L 81,66  L 82,66  L 82,65  L 81,65  L 81,62  L 82,62  L 82,61  L 81,61  L 81,52  L 80,52  L 80,51  L 81,51  L 81,48  L 80,48  L 80,47  L 81,47  L 81,41  L 83,41  L 83,40  L 86,40  L 86,39  L 101,39  L 101,38  L 102,38  L 102,39  L 108,39  L 108,32  L 107,32  L 107,31  L 104,31  L 104,32  L 97,32  L 97,31  L 96,31  L 96,32  L 88,32  L 88,33  L 80,33  L 80,19  L 79,19  L 79,18  L 80,18  L 80,17  L 79,17  L 79,16  L 80,16  L 80,15  L 79,15  L 79,8  L 80,8  L 80,3  L 79,3  L 79,2  L 78,2  L 78,1  L 76,1  L 76,0  L 75,0  L 75,1  L 74,1  L 74,2  L 73,2  L 73,34  L 74,34  L 74,35  L 73,35  L 73,38  L 74,38  Z  " style="fill:rgb(0, 0, 0); fill-opacity:1.000; stroke:none;" />
</svg>
