<?xml version="1.0" encoding="UTF-8" standalone="no"?>
<!DOCTYPE svg PUBLIC "-//W3C//DTD SVG 1.1//EN" 
  "http://www.w3.org/Graphics/SVG/1.1/DTD/svg11.dtd">
<svg width="107" height="106"
     xmlns="http://www.w3.org/2000/svg" version="1.1">
 <path d="  M 2,20  L 2,21  L 0,21  L 0,23  L 2,23  L 2,24  L 3,24  L 3,25  L 5,25  L 5,26  L 10,26  L 10,27  L 11,27  L 11,28  L 12,28  L 12,41  L 11,41  L 11,42  L 12,42  L 12,49  L 11,49  L 11,50  L 12,50  L 12,53  L 11,53  L 11,54  L 12,54  L 12,55  L 11,55  L 11,58  L 12,58  L 12,59  L 11,59  L 11,78  L 12,78  L 12,80  L 11,80  L 11,81  L 12,81  L 12,82  L 13,82  L 13,83  L 14,83  L 14,84  L 18,84  L 18,85  L 19,85  L 19,84  L 20,84  L 20,85  L 23,85  L 23,84  L 25,84  L 25,83  L 27,83  L 27,82  L 31,82  L 31,81  L 36,81  L 36,80  L 39,80  L 39,79  L 41,79  L 41,78  L 45,78  L 45,77  L 48,77  L 48,76  L 49,76  L 49,75  L 51,75  L 51,74  L 53,74  L 53,73  L 58,73  L 58,74  L 59,74  L 59,73  L 60,73  L 60,74  L 61,74  L 61,75  L 64,75  L 64,74  L 65,74  L 65,68  L 64,68  L 64,67  L 63,67  L 63,66  L 60,66  L 60,65  L 57,65  L 57,66  L 54,66  L 54,67  L 53,67  L 53,68  L 51,68  L 51,69  L 48,69  L 48,70  L 45,70  L 45,71  L 42,71  L 42,72  L 40,72  L 40,73  L 36,73  L 36,74  L 33,74  L 33,75  L 30,75  L 30,76  L 28,76  L 28,77  L 23,77  L 23,78  L 18,78  L 18,50  L 19,50  L 19,49  L 18,49  L 18,46  L 19,46  L 19,45  L 18,45  L 18,44  L 19,44  L 19,43  L 18,43  L 18,42  L 19,42  L 19,41  L 18,41  L 18,40  L 19,40  L 19,27  L 20,27  L 20,26  L 29,26  L 29,25  L 31,25  L 31,26  L 32,26  L 32,25  L 37,25  L 37,24  L 38,24  L 38,25  L 41,25  L 41,24  L 45,24  L 45,23  L 46,23  L 46,24  L 47,24  L 47,23  L 51,23  L 51,22  L 54,22  L 54,21  L 57,21  L 57,18  L 58,18  L 58,17  L 57,17  L 57,16  L 56,16  L 56,15  L 48,15  L 48,16  L 43,16  L 43,17  L 34,17  L 34,18  L 32,18  L 32,17  L 31,17  L 31,18  L 21,18  L 21,19  L 20,19  L 20,18  L 19,18  L 19,19  L 12,19  L 12,20  L 6,20  L 6,21  L 4,21  L 4,20  Z  " style="fill:rgb(0, 0, 0); fill-opacity:1.000; stroke:none;" />
 <path d="  M 79,65  L 79,62  L 80,62  L 80,54  L 81,54  L 81,53  L 82,53  L 82,52  L 100,52  L 100,53  L 101,53  L 101,57  L 100,57  L 100,58  L 101,58  L 101,73  L 100,73  L 100,106  L 106,106  L 106,103  L 107,103  L 107,12  L 106,12  L 106,11  L 107,11  L 107,9  L 106,9  L 106,2  L 105,2  L 105,1  L 104,1  L 104,0  L 101,0  L 101,1  L 99,1  L 99,14  L 100,14  L 100,25  L 101,25  L 101,46  L 98,46  L 98,47  L 93,47  L 93,46  L 92,46  L 92,47  L 82,47  L 82,46  L 81,46  L 81,32  L 80,32  L 80,25  L 79,25  L 79,22  L 80,22  L 80,21  L 79,21  L 79,8  L 78,8  L 78,6  L 74,6  L 74,7  L 73,7  L 73,8  L 72,8  L 72,9  L 71,9  L 71,10  L 72,10  L 72,11  L 71,11  L 71,14  L 72,14  L 72,31  L 73,31  L 73,32  L 72,32  L 72,34  L 73,34  L 73,52  L 72,52  L 72,54  L 73,54  L 73,56  L 72,56  L 72,58  L 73,58  L 73,59  L 72,59  L 72,89  L 71,89  L 71,90  L 72,90  L 72,95  L 74,95  L 74,96  L 75,96  L 75,95  L 76,95  L 76,94  L 79,94  L 79,93  L 78,93  L 78,92  L 79,92  L 79,66  L 80,66  L 80,65  Z  " style="fill:rgb(0, 0, 0); fill-opacity:1.000; stroke:none;" />
</svg>
