<?xml version="1.0" encoding="UTF-8" standalone="no"?>
<!DOCTYPE svg PUBLIC "-//W3C//DTD SVG 1.1//EN" 
  "http://www.w3.org/Graphics/SVG/1.1/DTD/svg11.dtd">
<svg width="106" height="102"
     xmlns="http://www.w3.org/2000/svg" version="1.1">
 <path d="  M 16,37  L 17,37  L 17,36  L 16,36  L 16,35  L 17,35  L 17,28  L 18,28  L 18,27  L 21,27  L 21,26  L 23,26  L 23,27  L 31,27  L 31,26  L 32,26  L 32,27  L 37,27  L 37,26  L 43,26  L 43,25  L 48,25  L 48,24  L 50,24  L 50,23  L 52,23  L 52,22  L 54,22  L 54,21  L 56,21  L 56,19  L 55,19  L 55,18  L 54,18  L 54,17  L 48,17  L 48,18  L 46,18  L 46,17  L 45,17  L 45,18  L 25,18  L 25,19  L 23,19  L 23,18  L 22,18  L 22,19  L 18,19  L 18,20  L 13,20  L 13,21  L 8,21  L 8,22  L 7,22  L 7,21  L 6,21  L 6,22  L 2,22  L 2,23  L 0,23  L 0,24  L 1,24  L 1,25  L 2,25  L 2,26  L 3,26  L 3,25  L 4,25  L 4,26  L 8,26  L 8,27  L 10,27  L 10,48  L 9,48  L 9,49  L 10,49  L 10,52  L 9,52  L 9,53  L 10,53  L 10,54  L 9,54  L 9,57  L 10,57  L 10,58  L 9,58  L 9,61  L 10,61  L 10,62  L 9,62  L 9,65  L 10,65  L 10,67  L 9,67  L 9,69  L 10,69  L 10,70  L 9,70  L 9,73  L 10,73  L 10,75  L 9,75  L 9,76  L 10,76  L 10,77  L 11,77  L 11,78  L 12,78  L 12,79  L 16,79  L 16,80  L 25,80  L 25,79  L 27,79  L 27,78  L 32,78  L 32,77  L 36,77  L 36,76  L 39,76  L 39,75  L 40,75  L 40,76  L 41,76  L 41,75  L 43,75  L 43,74  L 44,74  L 44,73  L 47,73  L 47,72  L 50,72  L 50,71  L 53,71  L 53,70  L 54,70  L 54,71  L 55,71  L 55,70  L 56,70  L 56,71  L 57,71  L 57,70  L 60,70  L 60,69  L 61,69  L 61,66  L 60,66  L 60,65  L 59,65  L 59,64  L 57,64  L 57,63  L 51,63  L 51,64  L 49,64  L 49,65  L 46,65  L 46,66  L 44,66  L 44,67  L 42,67  L 42,68  L 40,68  L 40,69  L 36,69  L 36,70  L 33,70  L 33,71  L 29,71  L 29,72  L 25,72  L 25,73  L 17,73  L 17,72  L 16,72  Z  " style="fill:rgb(0, 0, 0); fill-opacity:1.000; stroke:none;" />
 <path d="  M 76,57  L 77,57  L 77,58  L 76,58  L 76,85  L 77,85  L 77,88  L 79,88  L 79,89  L 81,89  L 81,88  L 84,88  L 84,31  L 83,31  L 83,29  L 84,29  L 84,28  L 83,28  L 83,17  L 82,17  L 82,16  L 81,16  L 81,15  L 80,15  L 80,14  L 78,14  L 78,13  L 77,13  L 77,14  L 75,14  L 75,41  L 73,41  L 73,42  L 68,42  L 68,43  L 67,43  L 67,42  L 66,42  L 66,43  L 65,43  L 65,42  L 64,42  L 64,43  L 59,43  L 59,42  L 58,42  L 58,43  L 47,43  L 47,44  L 46,44  L 46,43  L 45,43  L 45,44  L 44,44  L 44,43  L 41,43  L 41,47  L 42,47  L 42,48  L 43,48  L 43,49  L 44,49  L 44,50  L 47,50  L 47,49  L 52,49  L 52,48  L 53,48  L 53,49  L 55,49  L 55,48  L 57,48  L 57,49  L 58,49  L 58,48  L 69,48  L 69,49  L 70,49  L 70,48  L 71,48  L 71,49  L 73,49  L 73,48  L 75,48  L 75,49  L 76,49  L 76,53  L 77,53  L 77,54  L 76,54  Z  " style="fill:rgb(0, 0, 0); fill-opacity:1.000; stroke:none;" />
 <path d="  M 106,12  L 105,12  L 105,11  L 106,11  L 106,10  L 105,10  L 105,9  L 106,9  L 106,8  L 105,8  L 105,4  L 104,4  L 104,1  L 97,1  L 97,2  L 98,2  L 98,11  L 99,11  L 99,23  L 100,23  L 100,101  L 101,101  L 101,102  L 106,102  Z  " style="fill:rgb(0, 0, 0); fill-opacity:1.000; stroke:none;" />
</svg>
