<?xml version="1.0" encoding="UTF-8" standalone="no"?>
<!DOCTYPE svg PUBLIC "-//W3C//DTD SVG 1.1//EN" 
  "http://www.w3.org/Graphics/SVG/1.1/DTD/svg11.dtd">
<svg width="101" height="131"
     xmlns="http://www.w3.org/2000/svg" version="1.1">
 <path d="  M 3,104  L 3,105  L 1,105  L 1,106  L 0,106  L 0,109  L 1,109  L 1,111  L 8,111  L 8,110  L 14,110  L 14,109  L 19,109  L 19,108  L 23,108  L 23,107  L 27,107  L 27,106  L 30,106  L 30,105  L 33,105  L 33,104  L 35,104  L 35,103  L 38,103  L 38,102  L 40,102  L 40,101  L 42,101  L 42,100  L 46,100  L 46,99  L 51,99  L 51,98  L 57,98  L 57,97  L 61,97  L 61,96  L 67,96  L 67,95  L 71,95  L 71,94  L 75,94  L 75,93  L 76,93  L 76,94  L 77,94  L 77,93  L 80,93  L 80,92  L 82,92  L 82,91  L 85,91  L 85,89  L 86,89  L 86,88  L 85,88  L 85,87  L 84,87  L 84,86  L 83,86  L 83,85  L 80,85  L 80,86  L 78,86  L 78,87  L 76,87  L 76,88  L 74,88  L 74,89  L 70,89  L 70,90  L 65,90  L 65,91  L 63,91  L 63,90  L 62,90  L 62,91  L 58,91  L 58,92  L 44,92  L 44,89  L 43,89  L 43,88  L 44,88  L 44,86  L 43,86  L 43,85  L 44,85  L 44,66  L 45,66  L 45,65  L 50,65  L 50,64  L 52,64  L 52,65  L 53,65  L 53,64  L 63,64  L 63,63  L 70,63  L 70,62  L 73,62  L 73,61  L 74,61  L 74,60  L 76,60  L 76,57  L 75,57  L 75,55  L 70,55  L 70,56  L 66,56  L 66,57  L 60,57  L 60,58  L 52,58  L 52,59  L 51,59  L 51,58  L 50,58  L 50,59  L 47,59  L 47,58  L 46,58  L 46,59  L 44,59  L 44,60  L 37,60  L 37,61  L 31,61  L 31,62  L 24,62  L 24,63  L 23,63  L 23,62  L 22,62  L 22,63  L 17,63  L 17,62  L 16,62  L 16,59  L 15,59  L 15,57  L 14,57  L 14,53  L 13,53  L 13,46  L 12,46  L 12,33  L 13,33  L 13,31  L 14,31  L 14,30  L 16,30  L 16,29  L 19,29  L 19,28  L 20,28  L 20,29  L 21,29  L 21,28  L 23,28  L 23,27  L 28,27  L 28,26  L 30,26  L 30,25  L 34,25  L 34,24  L 37,24  L 37,23  L 42,23  L 42,22  L 44,22  L 44,21  L 48,21  L 48,20  L 53,20  L 53,19  L 54,19  L 54,20  L 55,20  L 55,19  L 67,19  L 67,18  L 68,18  L 68,17  L 69,17  L 69,16  L 68,16  L 68,13  L 64,13  L 64,12  L 61,12  L 61,13  L 52,13  L 52,14  L 44,14  L 44,15  L 40,15  L 40,16  L 37,16  L 37,17  L 33,17  L 33,18  L 30,18  L 30,19  L 27,19  L 27,20  L 24,20  L 24,21  L 20,21  L 20,22  L 16,22  L 16,23  L 15,23  L 15,22  L 14,22  L 14,23  L 8,23  L 8,24  L 1,24  L 1,27  L 4,27  L 4,28  L 5,28  L 5,39  L 6,39  L 6,40  L 5,40  L 5,43  L 6,43  L 6,55  L 7,55  L 7,58  L 8,58  L 8,61  L 9,61  L 9,64  L 10,64  L 10,66  L 11,66  L 11,68  L 12,68  L 12,69  L 13,69  L 13,70  L 17,70  L 17,69  L 23,69  L 23,68  L 24,68  L 24,69  L 25,69  L 25,68  L 31,68  L 31,67  L 32,67  L 32,68  L 33,68  L 33,67  L 38,67  L 38,76  L 37,76  L 37,77  L 38,77  L 38,78  L 37,78  L 37,79  L 38,79  L 38,80  L 37,80  L 37,83  L 38,83  L 38,84  L 37,84  L 37,96  L 36,96  L 36,97  L 35,97  L 35,98  L 32,98  L 32,99  L 31,99  L 31,98  L 30,98  L 30,99  L 28,99  L 28,100  L 25,100  L 25,101  L 21,101  L 21,102  L 14,102  L 14,103  L 8,103  L 8,104  Z  " style="fill:rgb(0, 0, 0); fill-opacity:1.000; stroke:none;" />
 <path d="  M 101,30  L 100,30  L 100,24  L 99,24  L 99,19  L 98,19  L 98,11  L 97,11  L 97,6  L 96,6  L 96,1  L 95,1  L 95,0  L 91,0  L 91,1  L 90,1  L 90,2  L 89,2  L 89,7  L 90,7  L 90,12  L 91,12  L 91,17  L 92,17  L 92,23  L 93,23  L 93,28  L 94,28  L 94,38  L 95,38  L 95,90  L 96,90  L 96,91  L 95,91  L 95,131  L 101,131  Z  " style="fill:rgb(0, 0, 0); fill-opacity:1.000; stroke:none;" />
</svg>
