<?xml version="1.0" encoding="UTF-8" standalone="no"?>
<!DOCTYPE svg PUBLIC "-//W3C//DTD SVG 1.1//EN" 
  "http://www.w3.org/Graphics/SVG/1.1/DTD/svg11.dtd">
<svg width="103" height="148"
     xmlns="http://www.w3.org/2000/svg" version="1.1">
 <path d="  M 36,48  L 36,59  L 37,59  L 37,71  L 38,71  L 38,77  L 36,77  L 36,78  L 30,78  L 30,79  L 25,79  L 25,80  L 24,80  L 24,79  L 21,79  L 21,80  L 13,80  L 13,81  L 12,81  L 12,80  L 11,80  L 11,81  L 6,81  L 6,82  L 5,82  L 5,83  L 4,83  L 4,84  L 3,84  L 3,85  L 2,85  L 2,87  L 1,87  L 1,88  L 2,88  L 2,89  L 3,89  L 3,90  L 6,90  L 6,89  L 10,89  L 10,88  L 12,88  L 12,87  L 13,87  L 13,88  L 14,88  L 14,87  L 19,87  L 19,86  L 30,86  L 30,85  L 38,85  L 38,84  L 43,84  L 43,83  L 47,83  L 47,82  L 48,82  L 48,83  L 50,83  L 50,82  L 58,82  L 58,81  L 62,81  L 62,80  L 66,80  L 66,79  L 69,79  L 69,78  L 72,78  L 72,77  L 75,77  L 75,76  L 77,76  L 77,75  L 81,75  L 81,74  L 85,74  L 85,73  L 86,73  L 86,70  L 85,70  L 85,69  L 84,69  L 84,67  L 83,67  L 83,66  L 77,66  L 77,67  L 76,67  L 76,68  L 74,68  L 74,69  L 72,69  L 72,70  L 69,70  L 69,71  L 67,71  L 67,72  L 64,72  L 64,73  L 61,73  L 61,74  L 57,74  L 57,75  L 46,75  L 46,73  L 45,73  L 45,63  L 44,63  L 44,62  L 45,62  L 45,61  L 44,61  L 44,60  L 45,60  L 45,59  L 44,59  L 44,58  L 45,58  L 45,57  L 44,57  L 44,48  L 45,48  L 45,47  L 48,47  L 48,46  L 60,46  L 60,45  L 64,45  L 64,44  L 67,44  L 67,43  L 70,43  L 70,42  L 73,42  L 73,41  L 75,41  L 75,38  L 76,38  L 76,35  L 75,35  L 75,34  L 74,34  L 74,33  L 73,33  L 73,34  L 69,34  L 69,35  L 68,35  L 68,36  L 64,36  L 64,37  L 62,37  L 62,38  L 58,38  L 58,39  L 50,39  L 50,40  L 16,40  L 16,39  L 15,39  L 15,37  L 14,37  L 14,36  L 15,36  L 15,21  L 16,21  L 16,18  L 17,18  L 17,13  L 18,13  L 18,12  L 19,12  L 19,11  L 32,11  L 32,10  L 33,10  L 33,11  L 34,11  L 34,10  L 39,10  L 39,11  L 40,11  L 40,10  L 41,10  L 41,11  L 42,11  L 42,10  L 49,10  L 49,11  L 50,11  L 50,10  L 58,10  L 58,9  L 59,9  L 59,10  L 64,10  L 64,9  L 65,9  L 65,7  L 66,7  L 66,4  L 65,4  L 65,2  L 64,2  L 64,1  L 58,1  L 58,2  L 55,2  L 55,3  L 29,3  L 29,4  L 28,4  L 28,3  L 25,3  L 25,4  L 24,4  L 24,3  L 21,3  L 21,4  L 20,4  L 20,3  L 19,3  L 19,4  L 13,4  L 13,5  L 10,5  L 10,6  L 9,6  L 9,7  L 6,7  L 6,9  L 2,9  L 2,10  L 1,10  L 1,11  L 0,11  L 0,12  L 1,12  L 1,13  L 4,13  L 4,12  L 5,12  L 5,13  L 7,13  L 7,14  L 8,14  L 8,25  L 7,25  L 7,43  L 8,43  L 8,45  L 10,45  L 10,46  L 16,46  L 16,47  L 18,47  L 18,46  L 19,46  L 19,47  L 35,47  L 35,48  Z  " style="fill:rgb(0, 0, 0); fill-opacity:1.000; stroke:none;" />
 <path d="  M 40,111  L 41,111  L 41,104  L 40,104  L 40,103  L 39,103  L 39,102  L 34,102  L 34,103  L 33,103  L 33,116  L 32,116  L 32,118  L 33,118  L 33,120  L 32,120  L 32,134  L 33,134  L 33,135  L 32,135  L 32,137  L 33,137  L 33,140  L 34,140  L 34,145  L 35,145  L 35,146  L 36,146  L 36,147  L 37,147  L 37,148  L 56,148  L 56,147  L 57,147  L 57,148  L 58,148  L 58,147  L 64,147  L 64,146  L 72,146  L 72,145  L 73,145  L 73,146  L 74,146  L 74,145  L 81,145  L 81,144  L 89,144  L 89,143  L 96,143  L 96,142  L 100,142  L 100,141  L 102,141  L 102,140  L 103,140  L 103,134  L 97,134  L 97,135  L 92,135  L 92,136  L 84,136  L 84,137  L 75,137  L 75,138  L 72,138  L 72,137  L 71,137  L 71,138  L 69,138  L 69,139  L 62,139  L 62,140  L 54,140  L 54,141  L 53,141  L 53,140  L 52,140  L 52,141  L 42,141  L 42,140  L 41,140  L 41,138  L 40,138  Z  " style="fill:rgb(0, 0, 0); fill-opacity:1.000; stroke:none;" />
 <path d="  M 94,87  L 95,87  L 95,89  L 94,89  L 94,90  L 95,90  L 95,92  L 94,92  L 94,94  L 95,94  L 95,100  L 101,100  L 101,49  L 100,49  L 100,48  L 101,48  L 101,45  L 100,45  L 100,44  L 101,44  L 101,43  L 100,43  L 100,36  L 99,36  L 99,29  L 98,29  L 98,28  L 99,28  L 99,27  L 98,27  L 98,21  L 97,21  L 97,10  L 96,10  L 96,3  L 95,3  L 95,1  L 93,1  L 93,0  L 90,0  L 90,1  L 89,1  L 89,3  L 88,3  L 88,4  L 89,4  L 89,10  L 90,10  L 90,18  L 91,18  L 91,26  L 92,26  L 92,32  L 93,32  L 93,41  L 94,41  L 94,43  L 93,43  L 93,44  L 94,44  L 94,75  L 95,75  L 95,76  L 94,76  L 94,80  L 95,80  L 95,81  L 94,81  L 94,83  L 95,83  L 95,84  L 94,84  Z  " style="fill:rgb(0, 0, 0); fill-opacity:1.000; stroke:none;" />
</svg>
