<?xml version="1.0" encoding="UTF-8" standalone="no"?>
<!DOCTYPE svg PUBLIC "-//W3C//DTD SVG 1.1//EN" 
  "http://www.w3.org/Graphics/SVG/1.1/DTD/svg11.dtd">
<svg width="107" height="150"
     xmlns="http://www.w3.org/2000/svg" version="1.1">
 <path d="  M 4,80  L 4,81  L 3,81  L 3,82  L 2,82  L 2,83  L 1,83  L 1,85  L 0,85  L 0,86  L 1,86  L 1,87  L 2,87  L 2,88  L 4,88  L 4,87  L 8,87  L 8,86  L 10,86  L 10,85  L 16,85  L 16,84  L 23,84  L 23,83  L 33,83  L 33,82  L 37,82  L 37,81  L 41,81  L 41,80  L 42,80  L 42,81  L 44,81  L 44,80  L 54,80  L 54,85  L 53,85  L 53,90  L 54,90  L 54,94  L 55,94  L 55,95  L 54,95  L 54,96  L 55,96  L 55,102  L 56,102  L 56,103  L 55,103  L 55,106  L 56,106  L 56,109  L 55,109  L 55,119  L 54,119  L 54,126  L 53,126  L 53,133  L 52,133  L 52,134  L 53,134  L 53,137  L 52,137  L 52,139  L 53,139  L 53,148  L 54,148  L 54,150  L 60,150  L 60,142  L 61,142  L 61,140  L 60,140  L 60,139  L 61,139  L 61,136  L 60,136  L 60,135  L 61,135  L 61,129  L 62,129  L 62,119  L 63,119  L 63,110  L 64,110  L 64,109  L 63,109  L 63,108  L 64,108  L 64,105  L 63,105  L 63,104  L 64,104  L 64,103  L 63,103  L 63,97  L 62,97  L 62,93  L 61,93  L 61,90  L 60,90  L 60,89  L 61,89  L 61,86  L 60,86  L 60,82  L 59,82  L 59,80  L 60,80  L 60,79  L 90,79  L 90,78  L 97,78  L 97,77  L 98,77  L 98,78  L 99,78  L 99,77  L 100,77  L 100,78  L 101,78  L 101,77  L 104,77  L 104,76  L 106,76  L 106,75  L 107,75  L 107,68  L 101,68  L 101,69  L 100,69  L 100,70  L 97,70  L 97,71  L 95,71  L 95,72  L 85,72  L 85,73  L 74,73  L 74,72  L 73,72  L 73,73  L 72,73  L 72,72  L 68,72  L 68,73  L 67,73  L 67,72  L 65,72  L 65,73  L 62,73  L 62,72  L 61,72  L 61,73  L 51,73  L 51,74  L 42,74  L 42,75  L 34,75  L 34,76  L 27,76  L 27,77  L 26,77  L 26,76  L 24,76  L 24,77  L 15,77  L 15,78  L 10,78  L 10,79  L 7,79  L 7,80  Z  " style="fill:rgb(0, 0, 0); fill-opacity:1.000; stroke:none;" />
 <path d="  M 86,46  L 86,47  L 85,47  L 85,48  L 81,48  L 81,49  L 75,49  L 75,50  L 74,50  L 74,49  L 72,49  L 72,50  L 63,50  L 63,51  L 62,51  L 62,50  L 61,50  L 61,51  L 43,51  L 43,52  L 34,52  L 34,51  L 32,51  L 32,50  L 31,50  L 31,48  L 30,48  L 30,38  L 29,38  L 29,32  L 28,32  L 28,24  L 29,24  L 29,20  L 30,20  L 30,16  L 31,16  L 31,15  L 32,15  L 32,14  L 33,14  L 33,13  L 39,13  L 39,12  L 40,12  L 40,13  L 41,13  L 41,12  L 42,12  L 42,13  L 43,13  L 43,12  L 55,12  L 55,11  L 56,11  L 56,12  L 57,12  L 57,11  L 58,11  L 58,12  L 59,12  L 59,11  L 69,11  L 69,10  L 79,10  L 79,9  L 81,9  L 81,8  L 82,8  L 82,7  L 83,7  L 83,4  L 82,4  L 82,3  L 81,3  L 81,2  L 80,2  L 80,1  L 75,1  L 75,2  L 74,2  L 74,1  L 72,1  L 72,2  L 69,2  L 69,3  L 62,3  L 62,4  L 52,4  L 52,5  L 35,5  L 35,6  L 33,6  L 33,5  L 32,5  L 32,6  L 27,6  L 27,7  L 26,7  L 26,8  L 24,8  L 24,9  L 19,9  L 19,10  L 15,10  L 15,11  L 12,11  L 12,12  L 11,12  L 11,14  L 12,14  L 12,15  L 13,15  L 13,16  L 15,16  L 15,17  L 21,17  L 21,18  L 22,18  L 22,32  L 23,32  L 23,45  L 24,45  L 24,51  L 25,51  L 25,55  L 26,55  L 26,56  L 27,56  L 27,57  L 28,57  L 28,58  L 32,58  L 32,59  L 41,59  L 41,58  L 52,58  L 52,57  L 71,57  L 71,56  L 72,56  L 72,57  L 73,57  L 73,56  L 74,56  L 74,57  L 75,57  L 75,56  L 83,56  L 83,55  L 84,55  L 84,56  L 85,56  L 85,55  L 86,55  L 86,56  L 92,56  L 92,53  L 91,53  L 91,49  L 90,49  L 90,47  L 89,47  L 89,46  Z  " style="fill:rgb(0, 0, 0); fill-opacity:1.000; stroke:none;" />
</svg>
