<?xml version="1.0" encoding="UTF-8" standalone="no"?>
<!DOCTYPE svg PUBLIC "-//W3C//DTD SVG 1.1//EN" 
  "http://www.w3.org/Graphics/SVG/1.1/DTD/svg11.dtd">
<svg width="103" height="129"
     xmlns="http://www.w3.org/2000/svg" version="1.1">
 <path d="  M 89,71  L 89,72  L 90,72  L 90,71  L 92,71  L 92,67  L 91,67  L 91,65  L 90,65  L 90,64  L 88,64  L 88,63  L 85,63  L 85,64  L 81,64  L 81,65  L 79,65  L 79,66  L 77,66  L 77,67  L 75,67  L 75,68  L 70,68  L 70,69  L 66,69  L 66,70  L 57,70  L 57,71  L 50,71  L 50,72  L 48,72  L 48,71  L 47,71  L 47,72  L 38,72  L 38,73  L 36,73  L 36,72  L 35,72  L 35,73  L 29,73  L 29,74  L 23,74  L 23,75  L 22,75  L 22,74  L 21,74  L 21,75  L 14,75  L 14,76  L 10,76  L 10,77  L 5,77  L 5,78  L 1,78  L 1,80  L 0,80  L 0,82  L 1,82  L 1,85  L 8,85  L 8,84  L 9,84  L 9,83  L 15,83  L 15,82  L 20,82  L 20,81  L 27,81  L 27,80  L 35,80  L 35,79  L 46,79  L 46,78  L 51,78  L 51,77  L 56,77  L 56,76  L 64,76  L 64,75  L 65,75  L 65,76  L 66,76  L 66,75  L 72,75  L 72,74  L 76,74  L 76,73  L 78,73  L 78,72  L 79,72  L 79,73  L 80,73  L 80,72  L 83,72  L 83,71  Z  " style="fill:rgb(0, 0, 0); fill-opacity:1.000; stroke:none;" />
 <path d="  M 15,34  L 14,34  L 14,33  L 15,33  L 15,32  L 14,32  L 14,31  L 15,31  L 15,30  L 14,30  L 14,29  L 15,29  L 15,27  L 16,27  L 16,26  L 20,26  L 20,25  L 25,25  L 25,24  L 26,24  L 26,25  L 27,25  L 27,24  L 30,24  L 30,23  L 35,23  L 35,22  L 39,22  L 39,21  L 43,21  L 43,20  L 45,20  L 45,19  L 49,19  L 49,18  L 53,18  L 53,17  L 60,17  L 60,16  L 68,16  L 68,15  L 72,15  L 72,13  L 73,13  L 73,8  L 70,8  L 70,9  L 67,9  L 67,10  L 66,10  L 66,9  L 64,9  L 64,10  L 58,10  L 58,11  L 56,11  L 56,10  L 55,10  L 55,11  L 51,11  L 51,12  L 45,12  L 45,13  L 43,13  L 43,14  L 38,14  L 38,15  L 34,15  L 34,16  L 30,16  L 30,17  L 27,17  L 27,18  L 21,18  L 21,19  L 20,19  L 20,18  L 19,18  L 19,19  L 15,19  L 15,20  L 9,20  L 9,21  L 7,21  L 7,22  L 6,22  L 6,23  L 7,23  L 7,33  L 8,33  L 8,36  L 7,36  L 7,37  L 8,37  L 8,49  L 9,49  L 9,50  L 8,50  L 8,51  L 9,51  L 9,56  L 10,56  L 10,57  L 9,57  L 9,58  L 10,58  L 10,60  L 11,60  L 11,63  L 12,63  L 12,65  L 17,65  L 17,64  L 18,64  L 18,65  L 19,65  L 19,64  L 27,64  L 27,63  L 33,63  L 33,62  L 39,62  L 39,61  L 45,61  L 45,60  L 50,60  L 50,59  L 56,59  L 56,58  L 62,58  L 62,57  L 68,57  L 68,56  L 72,56  L 72,55  L 79,55  L 79,54  L 80,54  L 80,53  L 81,53  L 81,50  L 80,50  L 80,49  L 79,49  L 79,48  L 72,48  L 72,49  L 71,49  L 71,50  L 70,50  L 70,49  L 69,49  L 69,50  L 66,50  L 66,51  L 62,51  L 62,52  L 55,52  L 55,53  L 52,53  L 52,52  L 51,52  L 51,53  L 48,53  L 48,54  L 42,54  L 42,55  L 38,55  L 38,56  L 33,56  L 33,57  L 32,57  L 32,56  L 31,56  L 31,57  L 28,57  L 28,58  L 21,58  L 21,59  L 18,59  L 18,58  L 17,58  L 17,54  L 16,54  L 16,48  L 15,48  Z  " style="fill:rgb(0, 0, 0); fill-opacity:1.000; stroke:none;" />
 <path d="  M 50,92  L 49,92  L 49,85  L 47,85  L 47,84  L 43,84  L 43,85  L 42,85  L 42,96  L 43,96  L 43,98  L 42,98  L 42,105  L 41,105  L 41,107  L 40,107  L 40,111  L 39,111  L 39,114  L 38,114  L 38,118  L 37,118  L 37,120  L 36,120  L 36,121  L 37,121  L 37,122  L 36,122  L 36,123  L 37,123  L 37,125  L 42,125  L 42,124  L 44,124  L 44,122  L 45,122  L 45,121  L 46,121  L 46,120  L 45,120  L 45,117  L 46,117  L 46,113  L 47,113  L 47,111  L 48,111  L 48,107  L 49,107  L 49,103  L 50,103  Z  " style="fill:rgb(0, 0, 0); fill-opacity:1.000; stroke:none;" />
 <path d="  M 103,30  L 102,30  L 102,22  L 101,22  L 101,16  L 100,16  L 100,15  L 101,15  L 101,14  L 100,14  L 100,6  L 99,6  L 99,1  L 98,1  L 98,0  L 94,0  L 94,1  L 93,1  L 93,4  L 92,4  L 92,5  L 93,5  L 93,12  L 94,12  L 94,18  L 95,18  L 95,26  L 96,26  L 96,36  L 97,36  L 97,37  L 96,37  L 96,38  L 97,38  L 97,96  L 98,96  L 98,98  L 97,98  L 97,100  L 98,100  L 98,102  L 97,102  L 97,103  L 98,103  L 98,106  L 97,106  L 97,107  L 98,107  L 98,110  L 97,110  L 97,111  L 98,111  L 98,114  L 97,114  L 97,115  L 98,115  L 98,118  L 97,118  L 97,129  L 103,129  Z  " style="fill:rgb(0, 0, 0); fill-opacity:1.000; stroke:none;" />
</svg>
