<?xml version="1.0" encoding="UTF-8" standalone="no"?>
<!DOCTYPE svg PUBLIC "-//W3C//DTD SVG 1.1//EN" 
  "http://www.w3.org/Graphics/SVG/1.1/DTD/svg11.dtd">
<svg width="105" height="132"
     xmlns="http://www.w3.org/2000/svg" version="1.1">
 <path d="  M 34,96  L 34,95  L 39,95  L 39,94  L 42,94  L 42,93  L 45,93  L 45,92  L 46,92  L 46,93  L 47,93  L 47,92  L 51,92  L 51,91  L 55,91  L 55,90  L 58,90  L 58,89  L 61,89  L 61,88  L 62,88  L 62,89  L 63,89  L 63,88  L 66,88  L 66,87  L 69,87  L 69,86  L 73,86  L 73,85  L 77,85  L 77,84  L 82,84  L 82,83  L 83,83  L 83,84  L 84,84  L 84,83  L 85,83  L 85,84  L 86,84  L 86,83  L 88,83  L 88,78  L 87,78  L 87,77  L 86,77  L 86,76  L 81,76  L 81,77  L 76,77  L 76,78  L 72,78  L 72,79  L 70,79  L 70,80  L 69,80  L 69,79  L 68,79  L 68,80  L 65,80  L 65,81  L 62,81  L 62,82  L 59,82  L 59,83  L 55,83  L 55,84  L 50,84  L 50,85  L 47,85  L 47,86  L 42,86  L 42,87  L 38,87  L 38,88  L 34,88  L 34,89  L 29,89  L 29,90  L 27,90  L 27,91  L 22,91  L 22,90  L 21,90  L 21,88  L 20,88  L 20,57  L 21,57  L 21,56  L 20,56  L 20,53  L 21,53  L 21,52  L 20,52  L 20,50  L 21,50  L 21,48  L 20,48  L 20,47  L 21,47  L 21,44  L 20,44  L 20,43  L 21,43  L 21,37  L 22,37  L 22,36  L 29,36  L 29,35  L 30,35  L 30,36  L 31,36  L 31,35  L 43,35  L 43,34  L 50,34  L 50,33  L 71,33  L 71,32  L 72,32  L 72,31  L 73,31  L 73,29  L 72,29  L 72,28  L 71,28  L 71,27  L 70,27  L 70,26  L 69,26  L 69,25  L 59,25  L 59,26  L 56,26  L 56,25  L 55,25  L 55,26  L 45,26  L 45,27  L 43,27  L 43,26  L 41,26  L 41,27  L 37,27  L 37,28  L 34,28  L 34,27  L 33,27  L 33,28  L 13,28  L 13,29  L 11,29  L 11,28  L 6,28  L 6,27  L 4,27  L 4,28  L 0,28  L 0,30  L 2,30  L 2,31  L 3,31  L 3,32  L 7,32  L 7,33  L 11,33  L 11,34  L 12,34  L 12,67  L 11,67  L 11,68  L 12,68  L 12,86  L 13,86  L 13,92  L 14,92  L 14,94  L 15,94  L 15,96  L 16,96  L 16,97  L 19,97  L 19,98  L 20,98  L 20,99  L 23,99  L 23,98  L 29,98  L 29,97  L 32,97  L 32,96  Z  " style="fill:rgb(0, 0, 0); fill-opacity:1.000; stroke:none;" />
 <path d="  M 102,8  L 102,7  L 101,7  L 101,4  L 100,4  L 100,1  L 99,1  L 99,0  L 97,0  L 97,1  L 96,1  L 96,2  L 95,2  L 95,4  L 94,4  L 94,6  L 93,6  L 93,10  L 94,10  L 94,18  L 95,18  L 95,24  L 96,24  L 96,25  L 95,25  L 95,26  L 96,26  L 96,33  L 97,33  L 97,34  L 96,34  L 96,35  L 97,35  L 97,41  L 98,41  L 98,70  L 99,70  L 99,81  L 98,81  L 98,83  L 99,83  L 99,84  L 98,84  L 98,87  L 99,87  L 99,88  L 98,88  L 98,91  L 99,91  L 99,92  L 98,92  L 98,116  L 97,116  L 97,117  L 98,117  L 98,120  L 97,120  L 97,131  L 98,131  L 98,132  L 102,132  L 102,131  L 104,131  L 104,117  L 105,117  L 105,116  L 104,116  L 104,113  L 105,113  L 105,112  L 104,112  L 104,111  L 105,111  L 105,38  L 104,38  L 104,37  L 105,37  L 105,36  L 104,36  L 104,28  L 103,28  L 103,27  L 104,27  L 104,26  L 103,26  L 103,21  L 102,21  L 102,10  L 101,10  L 101,8  Z  " style="fill:rgb(0, 0, 0); fill-opacity:1.000; stroke:none;" />
</svg>
