<?xml version="1.0" encoding="UTF-8" standalone="no"?>
<!DOCTYPE svg PUBLIC "-//W3C//DTD SVG 1.1//EN" 
  "http://www.w3.org/Graphics/SVG/1.1/DTD/svg11.dtd">
<svg width="112" height="125"
     xmlns="http://www.w3.org/2000/svg" version="1.1">
 <path d="  M 11,61  L 12,61  L 12,62  L 22,62  L 22,61  L 26,61  L 26,60  L 32,60  L 32,59  L 37,59  L 37,58  L 38,58  L 38,57  L 39,57  L 39,54  L 38,54  L 38,53  L 35,53  L 35,52  L 32,52  L 32,53  L 28,53  L 28,54  L 26,54  L 26,55  L 22,55  L 22,56  L 19,56  L 19,55  L 18,55  L 18,56  L 17,56  L 17,54  L 16,54  L 16,53  L 15,53  L 15,40  L 14,40  L 14,39  L 15,39  L 15,38  L 14,38  L 14,37  L 15,37  L 15,36  L 14,36  L 14,35  L 15,35  L 15,34  L 14,34  L 14,33  L 15,33  L 15,32  L 14,32  L 14,29  L 15,29  L 15,28  L 14,28  L 14,25  L 15,25  L 15,24  L 14,24  L 14,17  L 18,17  L 18,18  L 42,18  L 42,29  L 43,29  L 43,30  L 42,30  L 42,31  L 43,31  L 43,32  L 42,32  L 42,33  L 43,33  L 43,34  L 42,34  L 42,35  L 43,35  L 43,36  L 42,36  L 42,37  L 43,37  L 43,57  L 44,57  L 44,59  L 45,59  L 45,61  L 46,61  L 46,62  L 47,62  L 47,63  L 48,63  L 48,62  L 49,62  L 49,63  L 59,63  L 59,62  L 70,62  L 70,61  L 75,61  L 75,60  L 76,60  L 76,61  L 77,61  L 77,60  L 79,60  L 79,58  L 80,58  L 80,52  L 77,52  L 77,53  L 75,53  L 75,54  L 71,54  L 71,55  L 66,55  L 66,56  L 55,56  L 55,57  L 54,57  L 54,56  L 51,56  L 51,55  L 50,55  L 50,54  L 49,54  L 49,53  L 50,53  L 50,51  L 49,51  L 49,20  L 50,20  L 50,19  L 56,19  L 56,18  L 57,18  L 57,19  L 58,19  L 58,18  L 72,18  L 72,17  L 73,17  L 73,16  L 74,16  L 74,15  L 77,15  L 77,11  L 75,11  L 75,10  L 73,10  L 73,11  L 72,11  L 72,10  L 71,10  L 71,11  L 66,11  L 66,12  L 57,12  L 57,13  L 56,13  L 56,12  L 55,12  L 55,13  L 52,13  L 52,12  L 51,12  L 51,13  L 44,13  L 44,12  L 43,12  L 43,13  L 42,13  L 42,12  L 38,12  L 38,13  L 37,13  L 37,12  L 31,12  L 31,11  L 30,11  L 30,12  L 16,12  L 16,11  L 15,11  L 15,10  L 13,10  L 13,9  L 11,9  L 11,8  L 5,8  L 5,7  L 2,7  L 2,8  L 1,8  L 1,11  L 0,11  L 0,13  L 2,13  L 2,14  L 3,14  L 3,13  L 5,13  L 5,14  L 7,14  L 7,15  L 8,15  L 8,18  L 7,18  L 7,21  L 8,21  L 8,22  L 7,22  L 7,25  L 8,25  L 8,26  L 7,26  L 7,29  L 8,29  L 8,30  L 7,30  L 7,33  L 8,33  L 8,34  L 7,34  L 7,37  L 8,37  L 8,38  L 7,38  L 7,41  L 8,41  L 8,44  L 7,44  L 7,45  L 8,45  L 8,52  L 9,52  L 9,58  L 10,58  L 10,60  L 11,60  Z  " style="fill:rgb(0, 0, 0); fill-opacity:1.000; stroke:none;" />
 <path d="  M 69,83  L 69,82  L 68,82  L 68,81  L 65,81  L 65,80  L 54,80  L 54,81  L 53,81  L 53,80  L 51,80  L 51,81  L 44,81  L 44,82  L 39,82  L 39,83  L 38,83  L 38,84  L 37,84  L 37,87  L 38,87  L 38,88  L 47,88  L 47,87  L 56,87  L 56,86  L 58,86  L 58,87  L 65,87  L 65,88  L 67,88  L 67,89  L 68,89  L 68,90  L 69,90  L 69,92  L 70,92  L 70,99  L 69,99  L 69,103  L 68,103  L 68,108  L 67,108  L 67,113  L 66,113  L 66,118  L 65,118  L 65,121  L 64,121  L 64,124  L 65,124  L 65,125  L 71,125  L 71,122  L 72,122  L 72,117  L 73,117  L 73,113  L 74,113  L 74,112  L 73,112  L 73,111  L 74,111  L 74,105  L 75,105  L 75,100  L 76,100  L 76,95  L 77,95  L 77,89  L 76,89  L 76,87  L 75,87  L 75,86  L 74,86  L 74,85  L 73,85  L 73,84  L 72,84  L 72,83  Z  " style="fill:rgb(0, 0, 0); fill-opacity:1.000; stroke:none;" />
 <path d="  M 91,13  L 91,12  L 90,12  L 90,11  L 91,11  L 91,3  L 92,3  L 92,2  L 91,2  L 91,0  L 87,0  L 87,1  L 86,1  L 86,3  L 85,3  L 85,9  L 84,9  L 84,28  L 83,28  L 83,29  L 84,29  L 84,32  L 83,32  L 83,33  L 84,33  L 84,36  L 83,36  L 83,37  L 84,37  L 84,39  L 83,39  L 83,59  L 84,59  L 84,71  L 88,71  L 88,70  L 89,70  L 89,65  L 90,65  L 90,64  L 89,64  L 89,61  L 90,61  L 90,60  L 89,60  L 89,57  L 90,57  L 90,56  L 89,56  L 89,53  L 90,53  L 90,52  L 89,52  L 89,49  L 90,49  L 90,48  L 89,48  L 89,47  L 90,47  L 90,46  L 89,46  L 89,45  L 90,45  L 90,44  L 89,44  L 89,43  L 90,43  L 90,42  L 89,42  L 89,39  L 90,39  L 90,38  L 89,38  L 89,36  L 90,36  L 90,34  L 89,34  L 89,33  L 90,33  L 90,31  L 91,31  L 91,30  L 100,30  L 100,29  L 101,29  L 101,30  L 102,30  L 102,29  L 103,29  L 103,30  L 104,30  L 104,29  L 105,29  L 105,30  L 112,30  L 112,26  L 111,26  L 111,24  L 106,24  L 106,23  L 105,23  L 105,24  L 102,24  L 102,23  L 101,23  L 101,24  L 96,24  L 96,23  L 95,23  L 95,24  L 91,24  L 91,23  L 90,23  L 90,13  Z  " style="fill:rgb(0, 0, 0); fill-opacity:1.000; stroke:none;" />
</svg>
