<?xml version="1.0" encoding="UTF-8" standalone="no"?>
<!DOCTYPE svg PUBLIC "-//W3C//DTD SVG 1.1//EN" 
  "http://www.w3.org/Graphics/SVG/1.1/DTD/svg11.dtd">
<svg width="110" height="163"
     xmlns="http://www.w3.org/2000/svg" version="1.1">
 <path d="  M 54,54  L 53,54  L 53,44  L 52,44  L 52,38  L 51,38  L 51,23  L 59,23  L 59,22  L 62,22  L 62,23  L 63,23  L 63,22  L 68,22  L 68,21  L 69,21  L 69,22  L 70,22  L 70,21  L 76,21  L 76,20  L 79,20  L 79,19  L 80,19  L 80,18  L 81,18  L 81,14  L 80,14  L 80,12  L 75,12  L 75,13  L 71,13  L 71,14  L 65,14  L 65,15  L 64,15  L 64,14  L 63,14  L 63,15  L 57,15  L 57,16  L 45,16  L 45,17  L 39,17  L 39,16  L 38,16  L 38,17  L 24,17  L 24,18  L 23,18  L 23,17  L 16,17  L 16,16  L 12,16  L 12,15  L 9,15  L 9,16  L 7,16  L 7,17  L 6,17  L 6,18  L 3,18  L 3,19  L 1,19  L 1,21  L 0,21  L 0,23  L 2,23  L 2,22  L 4,22  L 4,21  L 5,21  L 5,22  L 7,22  L 7,25  L 8,25  L 8,39  L 9,39  L 9,40  L 8,40  L 8,43  L 9,43  L 9,44  L 8,44  L 8,47  L 9,47  L 9,61  L 10,61  L 10,62  L 9,62  L 9,63  L 10,63  L 10,67  L 11,67  L 11,69  L 10,69  L 10,70  L 11,70  L 11,71  L 12,71  L 12,73  L 13,73  L 13,75  L 16,75  L 16,76  L 17,76  L 17,77  L 20,77  L 20,76  L 21,76  L 21,77  L 23,77  L 23,76  L 27,76  L 27,75  L 28,75  L 28,76  L 29,76  L 29,75  L 32,75  L 32,74  L 40,74  L 40,73  L 41,73  L 41,72  L 43,72  L 43,71  L 44,71  L 44,69  L 43,69  L 43,68  L 44,68  L 44,67  L 43,67  L 43,66  L 39,66  L 39,65  L 37,65  L 37,66  L 34,66  L 34,67  L 31,67  L 31,68  L 27,68  L 27,69  L 24,69  L 24,68  L 23,68  L 23,69  L 19,69  L 19,68  L 18,68  L 18,66  L 17,66  L 17,52  L 16,52  L 16,51  L 17,51  L 17,49  L 16,49  L 16,31  L 15,31  L 15,30  L 16,30  L 16,28  L 15,28  L 15,23  L 19,23  L 19,24  L 24,24  L 24,23  L 25,23  L 25,24  L 28,24  L 28,23  L 29,23  L 29,24  L 30,24  L 30,23  L 38,23  L 38,22  L 41,22  L 41,21  L 42,21  L 42,22  L 44,22  L 44,23  L 45,23  L 45,24  L 44,24  L 44,31  L 45,31  L 45,32  L 44,32  L 44,34  L 45,34  L 45,45  L 46,45  L 46,48  L 45,48  L 45,49  L 46,49  L 46,55  L 47,55  L 47,63  L 48,63  L 48,66  L 49,66  L 49,68  L 50,68  L 50,71  L 51,71  L 51,73  L 52,73  L 52,74  L 53,74  L 53,75  L 56,75  L 56,76  L 63,76  L 63,75  L 65,75  L 65,76  L 66,76  L 66,75  L 76,75  L 76,74  L 78,74  L 78,73  L 79,73  L 79,72  L 80,72  L 80,68  L 81,68  L 81,66  L 80,66  L 80,65  L 76,65  L 76,66  L 74,66  L 74,67  L 72,67  L 72,68  L 66,68  L 66,69  L 58,69  L 58,68  L 57,68  L 57,67  L 56,67  L 56,64  L 55,64  L 55,60  L 54,60  Z  " style="fill:rgb(0, 0, 0); fill-opacity:1.000; stroke:none;" />
 <path d="  M 51,96  L 51,95  L 49,95  L 49,96  L 47,96  L 47,98  L 46,98  L 46,99  L 45,99  L 45,102  L 44,102  L 44,103  L 45,103  L 45,105  L 47,105  L 47,106  L 48,106  L 48,105  L 51,105  L 51,104  L 67,104  L 67,105  L 72,105  L 72,106  L 75,106  L 75,107  L 76,107  L 76,108  L 78,108  L 78,109  L 79,109  L 79,110  L 80,110  L 80,112  L 81,112  L 81,113  L 82,113  L 82,117  L 81,117  L 81,118  L 80,118  L 80,119  L 79,119  L 79,120  L 76,120  L 76,121  L 75,121  L 75,122  L 71,122  L 71,123  L 69,123  L 69,124  L 65,124  L 65,125  L 63,125  L 63,126  L 61,126  L 61,127  L 60,127  L 60,128  L 57,128  L 57,129  L 56,129  L 56,130  L 54,130  L 54,131  L 52,131  L 52,132  L 51,132  L 51,133  L 50,133  L 50,134  L 49,134  L 49,135  L 48,135  L 48,139  L 47,139  L 47,141  L 46,141  L 46,145  L 45,145  L 45,153  L 46,153  L 46,156  L 45,156  L 45,159  L 46,159  L 46,161  L 48,161  L 48,162  L 50,162  L 50,163  L 72,163  L 72,162  L 76,162  L 76,161  L 79,161  L 79,160  L 81,160  L 81,159  L 84,159  L 84,158  L 87,158  L 87,157  L 90,157  L 90,156  L 92,156  L 92,155  L 95,155  L 95,154  L 96,154  L 96,153  L 98,153  L 98,152  L 99,152  L 99,150  L 100,150  L 100,149  L 101,149  L 101,148  L 102,148  L 102,145  L 101,145  L 101,144  L 98,144  L 98,145  L 95,145  L 95,146  L 93,146  L 93,147  L 91,147  L 91,148  L 89,148  L 89,149  L 87,149  L 87,150  L 85,150  L 85,151  L 84,151  L 84,150  L 83,150  L 83,152  L 81,152  L 81,153  L 78,153  L 78,154  L 75,154  L 75,155  L 71,155  L 71,156  L 65,156  L 65,157  L 64,157  L 64,156  L 63,156  L 63,157  L 60,157  L 60,156  L 59,156  L 59,157  L 58,157  L 58,156  L 57,156  L 57,157  L 56,157  L 56,156  L 54,156  L 54,155  L 52,155  L 52,151  L 51,151  L 51,149  L 52,149  L 52,147  L 51,147  L 51,146  L 52,146  L 52,141  L 53,141  L 53,140  L 54,140  L 54,139  L 55,139  L 55,138  L 57,138  L 57,137  L 58,137  L 58,136  L 60,136  L 60,135  L 63,135  L 63,134  L 65,134  L 65,133  L 67,133  L 67,132  L 70,132  L 70,131  L 72,131  L 72,130  L 75,130  L 75,129  L 77,129  L 77,128  L 80,128  L 80,127  L 81,127  L 81,126  L 83,126  L 83,125  L 84,125  L 84,124  L 85,124  L 85,123  L 87,123  L 87,122  L 88,122  L 88,121  L 89,121  L 89,120  L 90,120  L 90,119  L 91,119  L 91,113  L 90,113  L 90,111  L 89,111  L 89,109  L 88,109  L 88,107  L 87,107  L 87,106  L 86,106  L 86,105  L 85,105  L 85,104  L 84,104  L 84,103  L 83,103  L 83,102  L 81,102  L 81,101  L 78,101  L 78,100  L 76,100  L 76,99  L 74,99  L 74,98  L 69,98  L 69,97  L 64,97  L 64,96  L 63,96  L 63,97  L 62,97  L 62,96  L 61,96  L 61,97  L 60,97  L 60,96  Z  " style="fill:rgb(0, 0, 0); fill-opacity:1.000; stroke:none;" />
 <path d="  M 102,64  L 101,64  L 101,65  L 102,65  L 102,68  L 101,68  L 101,69  L 102,69  L 102,72  L 101,72  L 101,73  L 102,73  L 102,76  L 101,76  L 101,77  L 102,77  L 102,80  L 101,80  L 101,81  L 102,81  L 102,83  L 101,83  L 101,85  L 102,85  L 102,87  L 101,87  L 101,91  L 102,91  L 102,92  L 107,92  L 107,90  L 108,90  L 108,87  L 109,87  L 109,59  L 110,59  L 110,58  L 109,58  L 109,55  L 110,55  L 110,54  L 109,54  L 109,52  L 110,52  L 110,50  L 109,50  L 109,48  L 110,48  L 110,46  L 109,46  L 109,45  L 110,45  L 110,2  L 108,2  L 108,1  L 106,1  L 106,0  L 105,0  L 105,1  L 104,1  L 104,2  L 103,2  L 103,26  L 102,26  L 102,27  L 87,27  L 87,28  L 82,28  L 82,29  L 80,29  L 80,30  L 76,30  L 76,31  L 72,31  L 72,32  L 70,32  L 70,33  L 69,33  L 69,35  L 70,35  L 70,36  L 75,36  L 75,37  L 80,37  L 80,36  L 85,36  L 85,35  L 93,35  L 93,34  L 99,34  L 99,35  L 101,35  L 101,36  L 102,36  L 102,44  L 101,44  L 101,45  L 102,45  L 102,48  L 101,48  L 101,49  L 102,49  Z  " style="fill:rgb(0, 0, 0); fill-opacity:1.000; stroke:none;" />
</svg>
