<?xml version="1.0" encoding="UTF-8" standalone="no"?>
<!DOCTYPE svg PUBLIC "-//W3C//DTD SVG 1.1//EN" 
  "http://www.w3.org/Graphics/SVG/1.1/DTD/svg11.dtd">
<svg width="103" height="108"
     xmlns="http://www.w3.org/2000/svg" version="1.1">
 <path d="  M 37,45  L 37,46  L 35,46  L 35,47  L 33,47  L 33,48  L 31,48  L 31,49  L 30,49  L 30,48  L 29,48  L 29,49  L 26,49  L 26,50  L 24,50  L 24,51  L 17,51  L 17,52  L 15,52  L 15,53  L 10,53  L 10,54  L 8,54  L 8,55  L 6,55  L 6,56  L 4,56  L 4,57  L 2,57  L 2,58  L 1,58  L 1,59  L 0,59  L 0,60  L 2,60  L 2,61  L 3,61  L 3,62  L 4,62  L 4,67  L 5,67  L 5,76  L 6,76  L 6,81  L 7,81  L 7,83  L 8,83  L 8,85  L 9,85  L 9,86  L 10,86  L 10,88  L 16,88  L 16,89  L 28,89  L 28,88  L 34,88  L 34,87  L 38,87  L 38,86  L 42,86  L 42,85  L 46,85  L 46,84  L 52,84  L 52,83  L 55,83  L 55,82  L 59,82  L 59,81  L 62,81  L 62,80  L 63,80  L 63,78  L 64,78  L 64,76  L 63,76  L 63,75  L 62,75  L 62,74  L 61,74  L 61,75  L 57,75  L 57,76  L 55,76  L 55,77  L 51,77  L 51,78  L 47,78  L 47,79  L 41,79  L 41,80  L 36,80  L 36,81  L 31,81  L 31,82  L 26,82  L 26,83  L 19,83  L 19,82  L 16,82  L 16,81  L 14,81  L 14,79  L 13,79  L 13,76  L 12,76  L 12,71  L 11,71  L 11,62  L 12,62  L 12,60  L 14,60  L 14,59  L 15,59  L 15,58  L 18,58  L 18,57  L 22,57  L 22,56  L 27,56  L 27,55  L 32,55  L 32,54  L 35,54  L 35,53  L 38,53  L 38,52  L 40,52  L 40,51  L 42,51  L 42,50  L 44,50  L 44,49  L 45,49  L 45,48  L 46,48  L 46,47  L 47,47  L 47,45  L 48,45  L 48,44  L 49,44  L 49,41  L 50,41  L 50,40  L 51,40  L 51,35  L 52,35  L 52,25  L 51,25  L 51,24  L 50,24  L 50,23  L 47,23  L 47,22  L 45,22  L 45,21  L 43,21  L 43,20  L 36,20  L 36,19  L 14,19  L 14,20  L 13,20  L 13,19  L 10,19  L 10,20  L 9,20  L 9,22  L 6,22  L 6,25  L 7,25  L 7,26  L 12,26  L 12,25  L 31,25  L 31,26  L 37,26  L 37,27  L 42,27  L 42,28  L 44,28  L 44,38  L 43,38  L 43,41  L 42,41  L 42,42  L 41,42  L 41,44  L 39,44  L 39,45  Z  " style="fill:rgb(0, 0, 0); fill-opacity:1.000; stroke:none;" />
 <path d="  M 74,108  L 80,108  L 80,102  L 81,102  L 81,101  L 80,101  L 80,98  L 81,98  L 81,97  L 80,97  L 80,94  L 81,94  L 81,91  L 80,91  L 80,90  L 81,90  L 81,89  L 80,89  L 80,88  L 81,88  L 81,87  L 80,87  L 80,86  L 81,86  L 81,57  L 82,57  L 82,56  L 83,56  L 83,55  L 86,55  L 86,56  L 87,56  L 87,55  L 90,55  L 90,56  L 91,56  L 91,55  L 103,55  L 103,49  L 83,49  L 83,50  L 81,50  L 81,45  L 80,45  L 80,44  L 81,44  L 81,41  L 80,41  L 80,40  L 81,40  L 81,39  L 80,39  L 80,38  L 81,38  L 81,37  L 80,37  L 80,34  L 81,34  L 81,33  L 80,33  L 80,30  L 81,30  L 81,29  L 80,29  L 80,18  L 79,18  L 79,17  L 80,17  L 80,15  L 79,15  L 79,3  L 78,3  L 78,1  L 77,1  L 77,0  L 73,0  L 73,1  L 72,1  L 72,2  L 71,2  L 71,8  L 72,8  L 72,14  L 73,14  L 73,32  L 74,32  L 74,33  L 73,33  L 73,34  L 74,34  Z  " style="fill:rgb(0, 0, 0); fill-opacity:1.000; stroke:none;" />
</svg>
