<?xml version="1.0" encoding="UTF-8" standalone="no"?>
<!DOCTYPE svg PUBLIC "-//W3C//DTD SVG 1.1//EN" 
  "http://www.w3.org/Graphics/SVG/1.1/DTD/svg11.dtd">
<svg width="103" height="145"
     xmlns="http://www.w3.org/2000/svg" version="1.1">
 <path d="  M 29,75  L 29,74  L 38,74  L 38,73  L 39,73  L 39,74  L 40,74  L 40,73  L 46,73  L 46,72  L 47,72  L 47,71  L 48,71  L 48,67  L 47,67  L 47,66  L 40,66  L 40,67  L 29,67  L 29,68  L 14,68  L 14,67  L 9,67  L 9,66  L 8,66  L 8,63  L 7,63  L 7,52  L 8,52  L 8,51  L 9,51  L 9,50  L 10,50  L 10,49  L 11,49  L 11,48  L 12,48  L 12,47  L 13,47  L 13,46  L 15,46  L 15,45  L 17,45  L 17,44  L 19,44  L 19,43  L 22,43  L 22,42  L 26,42  L 26,41  L 31,41  L 31,40  L 33,40  L 33,39  L 34,39  L 34,38  L 36,38  L 36,37  L 38,37  L 38,35  L 39,35  L 39,34  L 40,34  L 40,33  L 41,33  L 41,32  L 42,32  L 42,31  L 43,31  L 43,30  L 44,30  L 44,28  L 45,28  L 45,27  L 46,27  L 46,25  L 47,25  L 47,24  L 46,24  L 46,23  L 47,23  L 47,20  L 46,20  L 46,18  L 45,18  L 45,17  L 44,17  L 44,15  L 43,15  L 43,14  L 42,14  L 42,13  L 40,13  L 40,12  L 37,12  L 37,11  L 31,11  L 31,10  L 26,10  L 26,9  L 25,9  L 25,10  L 22,10  L 22,9  L 11,9  L 11,10  L 9,10  L 9,13  L 7,13  L 7,14  L 8,14  L 8,15  L 11,15  L 11,16  L 18,16  L 18,15  L 19,15  L 19,16  L 20,16  L 20,15  L 21,15  L 21,16  L 22,16  L 22,15  L 23,15  L 23,16  L 30,16  L 30,17  L 32,17  L 32,18  L 36,18  L 36,19  L 37,19  L 37,20  L 39,20  L 39,26  L 38,26  L 38,27  L 37,27  L 37,28  L 36,28  L 36,29  L 34,29  L 34,30  L 33,30  L 33,31  L 31,31  L 31,32  L 30,32  L 30,33  L 27,33  L 27,34  L 25,34  L 25,35  L 24,35  L 24,36  L 19,36  L 19,37  L 15,37  L 15,38  L 14,38  L 14,39  L 12,39  L 12,40  L 10,40  L 10,41  L 7,41  L 7,42  L 5,42  L 5,43  L 4,43  L 4,44  L 3,44  L 3,48  L 2,48  L 2,49  L 1,49  L 1,50  L 2,50  L 2,51  L 1,51  L 1,66  L 2,66  L 2,69  L 3,69  L 3,70  L 4,70  L 4,72  L 6,72  L 6,73  L 8,73  L 8,74  L 12,74  L 12,75  Z  " style="fill:rgb(0, 0, 0); fill-opacity:1.000; stroke:none;" />
 <path d="  M 22,123  L 23,123  L 23,122  L 24,122  L 24,120  L 25,120  L 25,118  L 26,118  L 26,117  L 30,117  L 30,118  L 31,118  L 31,119  L 35,119  L 35,120  L 37,120  L 37,121  L 40,121  L 40,122  L 43,122  L 43,123  L 45,123  L 45,124  L 46,124  L 46,125  L 48,125  L 48,126  L 53,126  L 53,121  L 52,121  L 52,120  L 51,120  L 51,119  L 49,119  L 49,118  L 47,118  L 47,117  L 44,117  L 44,116  L 41,116  L 41,115  L 37,115  L 37,114  L 35,114  L 35,113  L 33,113  L 33,112  L 32,112  L 32,111  L 31,111  L 31,109  L 32,109  L 32,107  L 33,107  L 33,105  L 35,105  L 35,102  L 36,102  L 36,101  L 37,101  L 37,100  L 38,100  L 38,98  L 39,98  L 39,97  L 40,97  L 40,96  L 41,96  L 41,95  L 42,95  L 42,93  L 43,93  L 43,89  L 42,89  L 42,88  L 41,88  L 41,87  L 40,87  L 40,86  L 39,86  L 39,85  L 34,85  L 34,87  L 35,87  L 35,90  L 36,90  L 36,94  L 35,94  L 35,96  L 34,96  L 34,97  L 32,97  L 32,99  L 31,99  L 31,100  L 30,100  L 30,101  L 29,101  L 29,102  L 28,102  L 28,103  L 27,103  L 27,104  L 26,104  L 26,107  L 25,107  L 25,109  L 24,109  L 24,111  L 23,111  L 23,112  L 22,112  L 22,114  L 21,114  L 21,115  L 20,115  L 20,116  L 19,116  L 19,118  L 18,118  L 18,120  L 17,120  L 17,121  L 16,121  L 16,122  L 15,122  L 15,123  L 14,123  L 14,124  L 13,124  L 13,125  L 12,125  L 12,127  L 11,127  L 11,128  L 10,128  L 10,129  L 9,129  L 9,130  L 8,130  L 8,131  L 7,131  L 7,137  L 8,137  L 8,138  L 11,138  L 11,137  L 12,137  L 12,136  L 13,136  L 13,135  L 14,135  L 14,133  L 15,133  L 15,132  L 16,132  L 16,130  L 18,130  L 18,128  L 19,128  L 19,126  L 20,126  L 20,125  L 21,125  L 21,124  L 22,124  Z  M 35,87  L 35,86  L 36,86  L 36,87  Z  " style="fill:rgb(0, 0, 0); fill-opacity:1.000; stroke:none;" />
 <path d="  M 31,86  L 31,85  L 30,85  L 30,86  L 26,86  L 26,90  L 30,90  L 30,91  L 31,91  L 31,90  L 32,90  L 32,89  L 33,89  L 33,88  L 34,88  L 34,87  L 33,87  L 33,86  Z  " style="fill:rgb(0, 0, 0); fill-opacity:1.000; stroke:none;" />
 <path d="  M 59,123  L 56,123  L 56,124  L 55,124  L 55,127  L 54,127  L 54,129  L 53,129  L 53,130  L 52,130  L 52,131  L 51,131  L 51,132  L 50,132  L 50,134  L 49,134  L 49,137  L 48,137  L 48,142  L 47,142  L 47,144  L 48,144  L 48,145  L 52,145  L 52,144  L 53,144  L 53,142  L 54,142  L 54,139  L 55,139  L 55,137  L 56,137  L 56,135  L 57,135  L 57,134  L 58,134  L 58,133  L 59,133  L 59,132  L 60,132  L 60,130  L 61,130  L 61,129  L 62,129  L 62,127  L 63,127  L 63,126  L 64,126  L 64,124  L 65,124  L 65,123  L 66,123  L 66,121  L 67,121  L 67,118  L 68,118  L 68,117  L 70,117  L 70,118  L 71,118  L 71,119  L 72,119  L 72,120  L 73,120  L 73,121  L 75,121  L 75,122  L 76,122  L 76,123  L 77,123  L 77,124  L 78,124  L 78,125  L 80,125  L 80,126  L 82,126  L 82,127  L 84,127  L 84,128  L 86,128  L 86,129  L 88,129  L 88,130  L 89,130  L 89,131  L 90,131  L 90,132  L 92,132  L 92,133  L 93,133  L 93,134  L 95,134  L 95,135  L 97,135  L 97,136  L 102,136  L 102,135  L 103,135  L 103,131  L 102,131  L 102,130  L 100,130  L 100,129  L 98,129  L 98,128  L 95,128  L 95,127  L 94,127  L 94,126  L 93,126  L 93,125  L 91,125  L 91,124  L 90,124  L 90,123  L 88,123  L 88,122  L 87,122  L 87,121  L 85,121  L 85,120  L 83,120  L 83,119  L 81,119  L 81,118  L 80,118  L 80,117  L 79,117  L 79,116  L 78,116  L 78,115  L 76,115  L 76,114  L 75,114  L 75,113  L 74,113  L 74,112  L 73,112  L 73,111  L 72,111  L 72,107  L 73,107  L 73,106  L 74,106  L 74,104  L 75,104  L 75,102  L 76,102  L 76,101  L 77,101  L 77,99  L 78,99  L 78,98  L 79,98  L 79,96  L 80,96  L 80,94  L 81,94  L 81,91  L 80,91  L 80,90  L 78,90  L 78,91  L 76,91  L 76,92  L 74,92  L 74,93  L 73,93  L 73,94  L 72,94  L 72,96  L 71,96  L 71,98  L 69,98  L 69,100  L 68,100  L 68,101  L 67,101  L 67,103  L 66,103  L 66,105  L 65,105  L 65,107  L 64,107  L 64,109  L 63,109  L 63,111  L 62,111  L 62,115  L 61,115  L 61,119  L 60,119  L 60,122  L 59,122  Z  " style="fill:rgb(0, 0, 0); fill-opacity:1.000; stroke:none;" />
 <path d="  M 72,53  L 71,53  L 71,54  L 72,54  L 72,80  L 73,80  L 73,82  L 78,82  L 78,70  L 79,70  L 79,69  L 78,69  L 78,68  L 79,68  L 79,67  L 78,67  L 78,66  L 79,66  L 79,65  L 78,65  L 78,64  L 79,64  L 79,63  L 78,63  L 78,62  L 79,62  L 79,61  L 78,61  L 78,60  L 79,60  L 79,59  L 78,59  L 78,56  L 79,56  L 79,55  L 78,55  L 78,54  L 79,54  L 79,53  L 78,53  L 78,52  L 79,52  L 79,51  L 78,51  L 78,50  L 79,50  L 79,47  L 78,47  L 78,46  L 79,46  L 79,45  L 78,45  L 78,41  L 77,41  L 77,40  L 78,40  L 78,39  L 79,39  L 79,38  L 80,38  L 80,37  L 83,37  L 83,36  L 102,36  L 102,35  L 103,35  L 103,30  L 101,30  L 101,29  L 95,29  L 95,30  L 94,30  L 94,29  L 92,29  L 92,30  L 90,30  L 90,29  L 89,29  L 89,30  L 86,30  L 86,29  L 85,29  L 85,30  L 83,30  L 83,29  L 82,29  L 82,30  L 78,30  L 78,27  L 77,27  L 77,17  L 76,17  L 76,11  L 75,11  L 75,8  L 76,8  L 76,7  L 75,7  L 75,2  L 74,2  L 74,0  L 71,0  L 71,1  L 69,1  L 69,3  L 68,3  L 68,4  L 69,4  L 69,11  L 70,11  L 70,17  L 71,17  L 71,28  L 72,28  L 72,35  L 71,35  L 71,36  L 72,36  L 72,45  L 71,45  L 71,46  L 72,46  L 72,49  L 71,49  L 71,50  L 72,50  Z  " style="fill:rgb(0, 0, 0); fill-opacity:1.000; stroke:none;" />
</svg>
