<?xml version="1.0" encoding="UTF-8" standalone="no"?>
<!DOCTYPE svg PUBLIC "-//W3C//DTD SVG 1.1//EN" 
  "http://www.w3.org/Graphics/SVG/1.1/DTD/svg11.dtd">
<svg width="108" height="94"
     xmlns="http://www.w3.org/2000/svg" version="1.1">
 <path d="  M 12,15  L 13,15  L 13,16  L 15,16  L 15,15  L 24,15  L 24,14  L 25,14  L 25,15  L 30,15  L 30,14  L 31,14  L 31,15  L 32,15  L 32,14  L 35,14  L 35,15  L 41,15  L 41,35  L 42,35  L 42,36  L 41,36  L 41,38  L 40,38  L 40,39  L 34,39  L 34,40  L 30,40  L 30,41  L 25,41  L 25,42  L 24,42  L 24,41  L 23,41  L 23,42  L 20,42  L 20,43  L 15,43  L 15,44  L 10,44  L 10,45  L 9,45  L 9,46  L 5,46  L 5,47  L 3,47  L 3,48  L 1,48  L 1,50  L 4,50  L 4,51  L 5,51  L 5,59  L 6,59  L 6,61  L 5,61  L 5,62  L 6,62  L 6,67  L 7,67  L 7,68  L 6,68  L 6,69  L 7,69  L 7,73  L 8,73  L 8,75  L 9,75  L 9,78  L 10,78  L 10,79  L 12,79  L 12,80  L 13,80  L 13,81  L 14,81  L 14,82  L 26,82  L 26,81  L 30,81  L 30,80  L 32,80  L 32,79  L 35,79  L 35,78  L 38,78  L 38,77  L 40,77  L 40,76  L 42,76  L 42,75  L 45,75  L 45,74  L 48,74  L 48,73  L 51,73  L 51,72  L 52,72  L 52,71  L 54,71  L 54,70  L 56,70  L 56,69  L 63,69  L 63,65  L 62,65  L 62,63  L 60,63  L 60,62  L 59,62  L 59,61  L 58,61  L 58,62  L 55,62  L 55,63  L 53,63  L 53,64  L 51,64  L 51,65  L 50,65  L 50,66  L 47,66  L 47,67  L 46,67  L 46,68  L 44,68  L 44,69  L 41,69  L 41,70  L 38,70  L 38,71  L 34,71  L 34,72  L 32,72  L 32,73  L 28,73  L 28,74  L 24,74  L 24,75  L 23,75  L 23,74  L 21,74  L 21,75  L 20,75  L 20,74  L 16,74  L 16,73  L 15,73  L 15,72  L 14,72  L 14,69  L 13,69  L 13,66  L 12,66  L 12,51  L 14,51  L 14,50  L 16,50  L 16,49  L 18,49  L 18,48  L 24,48  L 24,47  L 28,47  L 28,46  L 29,46  L 29,47  L 30,47  L 30,46  L 35,46  L 35,45  L 39,45  L 39,44  L 43,44  L 43,43  L 45,43  L 45,42  L 48,42  L 48,30  L 49,30  L 49,27  L 48,27  L 48,26  L 49,26  L 49,14  L 50,14  L 50,11  L 49,11  L 49,10  L 48,10  L 48,9  L 17,9  L 17,10  L 16,10  L 16,9  L 14,9  L 14,10  L 11,10  L 11,9  L 2,9  L 2,10  L 1,10  L 1,15  L 2,15  L 2,16  L 3,16  L 3,17  L 9,17  L 9,16  L 12,16  Z  " style="fill:rgb(0, 0, 0); fill-opacity:1.000; stroke:none;" />
 <path d="  M 79,77  L 78,77  L 78,78  L 79,78  L 79,82  L 80,82  L 80,83  L 81,83  L 81,82  L 85,82  L 85,78  L 86,78  L 86,77  L 85,77  L 85,76  L 86,76  L 86,39  L 85,39  L 85,38  L 86,38  L 86,37  L 85,37  L 85,23  L 84,23  L 84,16  L 83,16  L 83,9  L 76,9  L 76,10  L 75,10  L 75,11  L 76,11  L 76,12  L 75,12  L 75,14  L 76,14  L 76,26  L 77,26  L 77,29  L 76,29  L 76,30  L 77,30  L 77,36  L 78,36  L 78,39  L 77,39  L 77,40  L 65,40  L 65,41  L 63,41  L 63,40  L 62,40  L 62,41  L 54,41  L 54,40  L 53,40  L 53,41  L 52,41  L 52,42  L 51,42  L 51,44  L 52,44  L 52,45  L 53,45  L 53,46  L 54,46  L 54,47  L 57,47  L 57,48  L 58,48  L 58,47  L 71,47  L 71,48  L 72,48  L 72,47  L 79,47  Z  " style="fill:rgb(0, 0, 0); fill-opacity:1.000; stroke:none;" />
 <path d="  M 102,91  L 103,91  L 103,94  L 107,94  L 107,92  L 108,92  L 108,11  L 107,11  L 107,1  L 106,1  L 106,0  L 102,0  L 102,1  L 100,1  L 100,4  L 101,4  L 101,28  L 102,28  L 102,29  L 101,29  L 101,30  L 102,30  L 102,31  L 101,31  L 101,32  L 102,32  L 102,33  L 101,33  L 101,34  L 102,34  Z  " style="fill:rgb(0, 0, 0); fill-opacity:1.000; stroke:none;" />
</svg>
