<?xml version="1.0" encoding="UTF-8" standalone="no"?>
<!DOCTYPE svg PUBLIC "-//W3C//DTD SVG 1.1//EN" 
  "http://www.w3.org/Graphics/SVG/1.1/DTD/svg11.dtd">
<svg width="102" height="125"
     xmlns="http://www.w3.org/2000/svg" version="1.1">
 <path d="  M 15,88  L 15,87  L 13,87  L 13,85  L 12,85  L 12,82  L 11,82  L 11,70  L 10,70  L 10,69  L 11,69  L 11,66  L 12,66  L 12,64  L 15,64  L 15,63  L 18,63  L 18,62  L 23,62  L 23,61  L 27,61  L 27,60  L 28,60  L 28,59  L 31,59  L 31,58  L 32,58  L 32,57  L 35,57  L 35,56  L 37,56  L 37,55  L 39,55  L 39,54  L 41,54  L 41,53  L 42,53  L 42,52  L 43,52  L 43,51  L 44,51  L 44,50  L 45,50  L 45,49  L 46,49  L 46,48  L 47,48  L 47,46  L 48,46  L 48,42  L 49,42  L 49,41  L 50,41  L 50,40  L 49,40  L 49,37  L 50,37  L 50,36  L 49,36  L 49,33  L 50,33  L 50,32  L 49,32  L 49,29  L 48,29  L 48,28  L 47,28  L 47,26  L 46,26  L 46,24  L 45,24  L 45,23  L 44,23  L 44,22  L 43,22  L 43,21  L 42,21  L 42,20  L 39,20  L 39,19  L 35,19  L 35,18  L 30,18  L 30,17  L 24,17  L 24,16  L 11,16  L 11,15  L 5,15  L 5,21  L 6,21  L 6,22  L 7,22  L 7,23  L 20,23  L 20,24  L 30,24  L 30,25  L 34,25  L 34,26  L 37,26  L 37,27  L 39,27  L 39,28  L 40,28  L 40,29  L 41,29  L 41,33  L 42,33  L 42,34  L 41,34  L 41,35  L 42,35  L 42,36  L 41,36  L 41,40  L 40,40  L 40,43  L 39,43  L 39,44  L 38,44  L 38,45  L 37,45  L 37,46  L 36,46  L 36,47  L 35,47  L 35,48  L 33,48  L 33,49  L 32,49  L 32,50  L 30,50  L 30,52  L 27,52  L 27,53  L 24,53  L 24,54  L 22,54  L 22,55  L 18,55  L 18,56  L 15,56  L 15,57  L 11,57  L 11,58  L 10,58  L 10,57  L 9,57  L 9,58  L 7,58  L 7,59  L 5,59  L 5,60  L 3,60  L 3,61  L 1,61  L 1,66  L 2,66  L 2,67  L 3,67  L 3,73  L 4,73  L 4,80  L 5,80  L 5,86  L 6,86  L 6,89  L 7,89  L 7,92  L 8,92  L 8,93  L 10,93  L 10,94  L 12,94  L 12,95  L 16,95  L 16,96  L 19,96  L 19,95  L 20,95  L 20,96  L 21,96  L 21,95  L 27,95  L 27,94  L 31,94  L 31,93  L 36,93  L 36,92  L 40,92  L 40,91  L 44,91  L 44,90  L 49,90  L 49,89  L 54,89  L 54,88  L 56,88  L 56,87  L 60,87  L 60,86  L 61,86  L 61,85  L 64,85  L 64,84  L 67,84  L 67,83  L 70,83  L 70,82  L 71,82  L 71,81  L 73,81  L 73,79  L 74,79  L 74,78  L 72,78  L 72,77  L 67,77  L 67,78  L 62,78  L 62,79  L 59,79  L 59,80  L 56,80  L 56,81  L 53,81  L 53,82  L 50,82  L 50,83  L 47,83  L 47,84  L 43,84  L 43,85  L 39,85  L 39,86  L 30,86  L 30,87  L 26,87  L 26,88  Z  " style="fill:rgb(0, 0, 0); fill-opacity:1.000; stroke:none;" />
 <path d="  M 95,116  L 94,116  L 94,117  L 95,117  L 95,120  L 94,120  L 94,121  L 95,121  L 95,125  L 101,125  L 101,121  L 102,121  L 102,120  L 101,120  L 101,118  L 102,118  L 102,116  L 101,116  L 101,115  L 102,115  L 102,30  L 101,30  L 101,29  L 102,29  L 102,28  L 101,28  L 101,22  L 100,22  L 100,17  L 99,17  L 99,16  L 100,16  L 100,15  L 99,15  L 99,11  L 98,11  L 98,6  L 97,6  L 97,3  L 96,3  L 96,1  L 91,1  L 91,2  L 90,2  L 90,8  L 91,8  L 91,14  L 92,14  L 92,19  L 93,19  L 93,24  L 94,24  L 94,25  L 93,25  L 93,26  L 94,26  L 94,32  L 91,32  L 91,33  L 89,33  L 89,34  L 85,34  L 85,35  L 84,35  L 84,34  L 83,34  L 83,35  L 78,35  L 78,36  L 71,36  L 71,37  L 68,37  L 68,36  L 67,36  L 67,37  L 64,37  L 64,36  L 62,36  L 62,37  L 58,37  L 58,36  L 56,36  L 56,37  L 55,37  L 55,42  L 54,42  L 54,43  L 55,43  L 55,44  L 56,44  L 56,45  L 59,45  L 59,46  L 60,46  L 60,45  L 64,45  L 64,44  L 66,44  L 66,43  L 70,43  L 70,42  L 71,42  L 71,43  L 72,43  L 72,42  L 78,42  L 78,41  L 84,41  L 84,40  L 91,40  L 91,39  L 93,39  L 93,38  L 95,38  L 95,40  L 96,40  L 96,56  L 90,56  L 90,57  L 87,57  L 87,58  L 85,58  L 85,59  L 82,59  L 82,60  L 79,60  L 79,62  L 77,62  L 77,63  L 74,63  L 74,64  L 73,64  L 73,63  L 71,63  L 71,64  L 64,64  L 64,63  L 58,63  L 58,62  L 57,62  L 57,68  L 59,68  L 59,69  L 61,69  L 61,70  L 62,70  L 62,69  L 63,69  L 63,70  L 64,70  L 64,69  L 76,69  L 76,68  L 81,68  L 81,67  L 83,67  L 83,66  L 87,66  L 87,65  L 91,65  L 91,64  L 93,64  L 93,63  L 94,63  L 94,64  L 95,64  L 95,66  L 96,66  L 96,67  L 95,67  L 95,69  L 96,69  L 96,71  L 95,71  L 95,73  L 96,73  L 96,74  L 95,74  L 95,75  L 96,75  L 96,84  L 95,84  L 95,85  L 96,85  L 96,88  L 95,88  Z  " style="fill:rgb(0, 0, 0); fill-opacity:1.000; stroke:none;" />
</svg>
