<?xml version="1.0" encoding="UTF-8" standalone="no"?>
<!DOCTYPE svg PUBLIC "-//W3C//DTD SVG 1.1//EN" 
  "http://www.w3.org/Graphics/SVG/1.1/DTD/svg11.dtd">
<svg width="103" height="147"
     xmlns="http://www.w3.org/2000/svg" version="1.1">
 <path d="  M 24,34  L 24,35  L 21,35  L 21,36  L 20,36  L 20,37  L 16,37  L 16,38  L 13,38  L 13,39  L 11,39  L 11,40  L 8,40  L 8,41  L 6,41  L 6,43  L 4,43  L 4,44  L 3,44  L 3,45  L 2,45  L 2,49  L 1,49  L 1,55  L 0,55  L 0,56  L 1,56  L 1,67  L 2,67  L 2,68  L 3,68  L 3,70  L 4,70  L 4,71  L 5,71  L 5,72  L 7,72  L 7,73  L 10,73  L 10,74  L 27,74  L 27,73  L 28,73  L 28,74  L 29,74  L 29,73  L 36,73  L 36,72  L 42,72  L 42,71  L 45,71  L 45,70  L 46,70  L 46,68  L 47,68  L 47,65  L 46,65  L 46,64  L 44,64  L 44,65  L 40,65  L 40,66  L 33,66  L 33,67  L 20,67  L 20,68  L 17,68  L 17,67  L 9,67  L 9,66  L 8,66  L 8,63  L 7,63  L 7,62  L 8,62  L 8,61  L 7,61  L 7,52  L 8,52  L 8,49  L 9,49  L 9,48  L 11,48  L 11,47  L 13,47  L 13,46  L 16,46  L 16,45  L 17,45  L 17,44  L 20,44  L 20,43  L 24,43  L 24,42  L 27,42  L 27,41  L 28,41  L 28,40  L 30,40  L 30,39  L 32,39  L 32,38  L 33,38  L 33,37  L 35,37  L 35,36  L 36,36  L 36,35  L 37,35  L 37,34  L 38,34  L 38,32  L 39,32  L 39,31  L 40,31  L 40,29  L 41,29  L 41,26  L 42,26  L 42,22  L 43,22  L 43,21  L 42,21  L 42,16  L 41,16  L 41,15  L 40,15  L 40,13  L 39,13  L 39,12  L 38,12  L 38,11  L 36,11  L 36,10  L 34,10  L 34,9  L 31,9  L 31,8  L 27,8  L 27,7  L 16,7  L 16,6  L 10,6  L 10,7  L 9,7  L 9,8  L 7,8  L 7,9  L 8,9  L 8,11  L 7,11  L 7,13  L 8,13  L 8,14  L 19,14  L 19,13  L 20,13  L 20,14  L 26,14  L 26,15  L 31,15  L 31,16  L 33,16  L 33,17  L 35,17  L 35,19  L 36,19  L 36,22  L 37,22  L 37,23  L 36,23  L 36,25  L 35,25  L 35,27  L 34,27  L 34,28  L 33,28  L 33,29  L 32,29  L 32,30  L 31,30  L 31,31  L 30,31  L 30,32  L 29,32  L 29,33  L 27,33  L 27,34  Z  M 8,12  L 9,12  L 9,13  L 8,13  Z  " style="fill:rgb(0, 0, 0); fill-opacity:1.000; stroke:none;" />
 <path d="  M 15,132  L 15,130  L 16,130  L 16,129  L 17,129  L 17,127  L 18,127  L 18,126  L 19,126  L 19,125  L 20,125  L 20,124  L 21,124  L 21,122  L 22,122  L 22,121  L 23,121  L 23,119  L 25,119  L 25,118  L 29,118  L 29,119  L 30,119  L 30,120  L 31,120  L 31,121  L 34,121  L 34,122  L 35,122  L 35,123  L 37,123  L 37,124  L 39,124  L 39,125  L 40,125  L 40,124  L 41,124  L 41,125  L 44,125  L 44,126  L 47,126  L 47,127  L 49,127  L 49,128  L 50,128  L 50,129  L 51,129  L 51,131  L 52,131  L 52,132  L 51,132  L 51,133  L 52,133  L 52,134  L 51,134  L 51,135  L 50,135  L 50,136  L 49,136  L 49,139  L 48,139  L 48,143  L 47,143  L 47,147  L 52,147  L 52,146  L 53,146  L 53,144  L 54,144  L 54,140  L 55,140  L 55,138  L 56,138  L 56,137  L 57,137  L 57,135  L 58,135  L 58,134  L 59,134  L 59,132  L 60,132  L 60,131  L 61,131  L 61,130  L 62,130  L 62,129  L 63,129  L 63,128  L 64,128  L 64,126  L 65,126  L 65,124  L 66,124  L 66,122  L 67,122  L 67,121  L 68,121  L 68,120  L 69,120  L 69,119  L 70,119  L 70,120  L 71,120  L 71,121  L 72,121  L 72,122  L 74,122  L 74,123  L 75,123  L 75,124  L 77,124  L 77,125  L 78,125  L 78,126  L 81,126  L 81,127  L 83,127  L 83,128  L 85,128  L 85,129  L 87,129  L 87,130  L 89,130  L 89,131  L 91,131  L 91,133  L 94,133  L 94,134  L 103,134  L 103,130  L 101,130  L 101,129  L 99,129  L 99,128  L 96,128  L 96,127  L 94,127  L 94,126  L 93,126  L 93,125  L 90,125  L 90,124  L 89,124  L 89,123  L 87,123  L 87,122  L 85,122  L 85,121  L 83,121  L 83,120  L 82,120  L 82,119  L 80,119  L 80,118  L 79,118  L 79,117  L 78,117  L 78,116  L 76,116  L 76,115  L 75,115  L 75,114  L 74,114  L 74,113  L 73,113  L 73,105  L 74,105  L 74,102  L 75,102  L 75,94  L 73,94  L 73,93  L 72,93  L 72,94  L 71,94  L 71,95  L 70,95  L 70,97  L 69,97  L 69,100  L 68,100  L 68,102  L 67,102  L 67,104  L 66,104  L 66,107  L 65,107  L 65,110  L 64,110  L 64,112  L 63,112  L 63,115  L 62,115  L 62,118  L 61,118  L 61,121  L 60,121  L 60,124  L 59,124  L 59,125  L 56,125  L 56,124  L 53,124  L 53,123  L 51,123  L 51,122  L 49,122  L 49,121  L 47,121  L 47,120  L 45,120  L 45,119  L 42,119  L 42,118  L 40,118  L 40,117  L 38,117  L 38,116  L 36,116  L 36,115  L 34,115  L 34,114  L 33,114  L 33,113  L 32,113  L 32,112  L 31,112  L 31,107  L 32,107  L 32,105  L 33,105  L 33,103  L 34,103  L 34,102  L 35,102  L 35,100  L 36,100  L 36,98  L 37,98  L 37,96  L 38,96  L 38,93  L 37,93  L 37,92  L 36,92  L 36,91  L 35,91  L 35,90  L 34,90  L 34,89  L 31,89  L 31,88  L 27,88  L 27,89  L 26,89  L 26,88  L 25,88  L 25,93  L 26,93  L 26,94  L 28,94  L 28,96  L 29,96  L 29,97  L 30,97  L 30,99  L 29,99  L 29,101  L 28,101  L 28,102  L 27,102  L 27,104  L 26,104  L 26,106  L 25,106  L 25,108  L 24,108  L 24,109  L 23,109  L 23,111  L 22,111  L 22,113  L 21,113  L 21,115  L 19,115  L 19,117  L 18,117  L 18,118  L 17,118  L 17,120  L 16,120  L 16,121  L 15,121  L 15,123  L 13,123  L 13,125  L 12,125  L 12,126  L 11,126  L 11,128  L 10,128  L 10,129  L 9,129  L 9,130  L 8,130  L 8,131  L 7,131  L 7,132  L 6,132  L 6,134  L 5,134  L 5,136  L 6,136  L 6,139  L 10,139  L 10,138  L 11,138  L 11,137  L 12,137  L 12,135  L 13,135  L 13,133  L 14,133  L 14,132  Z  " style="fill:rgb(0, 0, 0); fill-opacity:1.000; stroke:none;" />
 <path d="  M 75,64  L 76,64  L 76,65  L 75,65  L 75,66  L 76,66  L 76,88  L 78,88  L 78,89  L 82,89  L 82,86  L 83,86  L 83,85  L 82,85  L 82,82  L 83,82  L 83,81  L 82,81  L 82,78  L 83,78  L 83,77  L 82,77  L 82,75  L 83,75  L 83,73  L 82,73  L 82,70  L 83,70  L 83,69  L 82,69  L 82,66  L 83,66  L 83,65  L 82,65  L 82,42  L 81,42  L 81,41  L 82,41  L 82,30  L 81,30  L 81,29  L 82,29  L 82,26  L 81,26  L 81,17  L 80,17  L 80,10  L 79,10  L 79,3  L 78,3  L 78,2  L 77,2  L 77,0  L 74,0  L 74,1  L 73,1  L 73,2  L 72,2  L 72,8  L 73,8  L 73,14  L 74,14  L 74,20  L 75,20  L 75,23  L 76,23  L 76,24  L 75,24  L 75,25  L 74,25  L 74,26  L 73,26  L 73,25  L 72,25  L 72,26  L 69,26  L 69,25  L 68,25  L 68,26  L 57,26  L 57,25  L 56,25  L 56,26  L 53,26  L 53,25  L 51,25  L 51,26  L 50,26  L 50,27  L 49,27  L 49,28  L 48,28  L 48,29  L 49,29  L 49,34  L 52,34  L 52,35  L 53,35  L 53,34  L 57,34  L 57,33  L 66,33  L 66,32  L 74,32  L 74,33  L 75,33  L 75,34  L 76,34  L 76,35  L 75,35  L 75,36  L 76,36  L 76,37  L 75,37  L 75,38  L 76,38  L 76,39  L 75,39  L 75,42  L 74,42  L 74,43  L 73,43  L 73,42  L 72,42  L 72,43  L 64,43  L 64,44  L 58,44  L 58,43  L 53,43  L 53,42  L 48,42  L 48,41  L 47,41  L 47,44  L 48,44  L 48,47  L 49,47  L 49,48  L 50,48  L 50,49  L 51,49  L 51,50  L 53,50  L 53,51  L 59,51  L 59,50  L 60,50  L 60,51  L 61,51  L 61,50  L 68,50  L 68,49  L 69,49  L 69,50  L 72,50  L 72,49  L 74,49  L 74,50  L 75,50  Z  " style="fill:rgb(0, 0, 0); fill-opacity:1.000; stroke:none;" />
</svg>
