<?xml version="1.0" encoding="UTF-8" standalone="no"?>
<!DOCTYPE svg PUBLIC "-//W3C//DTD SVG 1.1//EN" 
  "http://www.w3.org/Graphics/SVG/1.1/DTD/svg11.dtd">
<svg width="106" height="118"
     xmlns="http://www.w3.org/2000/svg" version="1.1">
 <path d="  M 59,116  L 60,116  L 60,115  L 63,115  L 63,116  L 64,116  L 64,115  L 67,115  L 67,116  L 68,116  L 68,115  L 71,115  L 71,116  L 72,116  L 72,115  L 82,115  L 82,114  L 83,114  L 83,115  L 84,115  L 84,114  L 90,114  L 90,113  L 91,113  L 91,114  L 94,114  L 94,113  L 95,113  L 95,114  L 97,114  L 97,113  L 100,113  L 100,114  L 101,114  L 101,113  L 105,113  L 105,112  L 106,112  L 106,106  L 97,106  L 97,107  L 96,107  L 96,106  L 95,106  L 95,107  L 87,107  L 87,108  L 74,108  L 74,109  L 61,109  L 61,108  L 58,108  L 58,103  L 57,103  L 57,102  L 58,102  L 58,101  L 57,101  L 57,70  L 59,70  L 59,69  L 74,69  L 74,68  L 78,68  L 78,67  L 81,67  L 81,66  L 84,66  L 84,65  L 87,65  L 87,64  L 89,64  L 89,62  L 90,62  L 90,61  L 91,61  L 91,58  L 90,58  L 90,57  L 89,57  L 89,56  L 87,56  L 87,55  L 86,55  L 86,56  L 84,56  L 84,57  L 82,57  L 82,58  L 80,58  L 80,59  L 78,59  L 78,60  L 77,60  L 77,61  L 72,61  L 72,62  L 66,62  L 66,63  L 56,63  L 56,64  L 51,64  L 51,65  L 40,65  L 40,66  L 39,66  L 39,65  L 37,65  L 37,66  L 31,66  L 31,65  L 30,65  L 30,64  L 29,64  L 29,62  L 28,62  L 28,50  L 29,50  L 29,46  L 30,46  L 30,44  L 31,44  L 31,43  L 33,43  L 33,42  L 35,42  L 35,41  L 45,41  L 45,40  L 47,40  L 47,41  L 49,41  L 49,40  L 54,40  L 54,39  L 58,39  L 58,38  L 62,38  L 62,37  L 66,37  L 66,36  L 67,36  L 67,35  L 68,35  L 68,34  L 70,34  L 70,33  L 72,33  L 72,32  L 73,32  L 73,30  L 74,30  L 74,29  L 76,29  L 76,27  L 77,27  L 77,26  L 78,26  L 78,25  L 79,25  L 79,23  L 80,23  L 80,20  L 81,20  L 81,13  L 80,13  L 80,11  L 79,11  L 79,10  L 78,10  L 78,9  L 76,9  L 76,8  L 75,8  L 75,7  L 74,7  L 74,6  L 71,6  L 71,5  L 68,5  L 68,4  L 66,4  L 66,3  L 62,3  L 62,2  L 58,2  L 58,1  L 53,1  L 53,2  L 51,2  L 51,1  L 49,1  L 49,2  L 47,2  L 47,1  L 45,1  L 45,2  L 42,2  L 42,1  L 41,1  L 41,2  L 31,2  L 31,3  L 27,3  L 27,4  L 26,4  L 26,5  L 24,5  L 24,6  L 23,6  L 23,8  L 24,8  L 24,9  L 23,9  L 23,11  L 24,11  L 24,12  L 25,12  L 25,11  L 27,11  L 27,12  L 29,12  L 29,11  L 32,11  L 32,10  L 36,10  L 36,9  L 37,9  L 37,10  L 38,10  L 38,9  L 39,9  L 39,10  L 40,10  L 40,9  L 61,9  L 61,10  L 65,10  L 65,11  L 67,11  L 67,12  L 69,12  L 69,13  L 71,13  L 71,14  L 72,14  L 72,16  L 74,16  L 74,19  L 73,19  L 73,23  L 72,23  L 72,24  L 71,24  L 71,25  L 69,25  L 69,26  L 66,26  L 66,27  L 64,27  L 64,28  L 62,28  L 62,29  L 59,29  L 59,30  L 57,30  L 57,31  L 54,31  L 54,32  L 52,32  L 52,33  L 41,33  L 41,34  L 35,34  L 35,35  L 30,35  L 30,36  L 28,36  L 28,37  L 26,37  L 26,38  L 25,38  L 25,39  L 24,39  L 24,40  L 23,40  L 23,41  L 21,41  L 21,42  L 20,42  L 20,44  L 21,44  L 21,63  L 22,63  L 22,67  L 23,67  L 23,70  L 25,70  L 25,71  L 26,71  L 26,72  L 29,72  L 29,73  L 34,73  L 34,72  L 35,72  L 35,73  L 37,73  L 37,72  L 47,72  L 47,71  L 49,71  L 49,72  L 50,72  L 50,109  L 49,109  L 49,110  L 38,110  L 38,111  L 27,111  L 27,112  L 26,112  L 26,111  L 25,111  L 25,112  L 2,112  L 2,113  L 1,113  L 1,114  L 2,114  L 2,115  L 1,115  L 1,116  L 0,116  L 0,117  L 3,117  L 3,118  L 38,118  L 38,117  L 48,117  L 48,116  L 58,116  L 58,115  L 59,115  Z  " style="fill:rgb(0, 0, 0); fill-opacity:1.000; stroke:none;" />
</svg>
