<?xml version="1.0" encoding="UTF-8" standalone="no"?>
<!DOCTYPE svg PUBLIC "-//W3C//DTD SVG 1.1//EN" 
  "http://www.w3.org/Graphics/SVG/1.1/DTD/svg11.dtd">
<svg width="103" height="185"
     xmlns="http://www.w3.org/2000/svg" version="1.1">
 <path d="  M 79,79  L 79,80  L 56,80  L 56,79  L 55,79  L 55,80  L 54,80  L 54,79  L 53,79  L 53,80  L 48,80  L 48,79  L 47,79  L 47,80  L 46,80  L 46,79  L 31,79  L 31,80  L 21,80  L 21,81  L 16,81  L 16,82  L 11,82  L 11,83  L 8,83  L 8,84  L 6,84  L 6,85  L 2,85  L 2,86  L 0,86  L 0,89  L 1,89  L 1,92  L 4,92  L 4,93  L 5,93  L 5,92  L 8,92  L 8,91  L 11,91  L 11,90  L 16,90  L 16,89  L 24,89  L 24,88  L 72,88  L 72,87  L 73,87  L 73,88  L 75,88  L 75,87  L 86,87  L 86,86  L 96,86  L 96,85  L 101,85  L 101,84  L 102,84  L 102,83  L 103,83  L 103,79  L 102,79  L 102,78  L 101,78  L 101,77  L 96,77  L 96,78  L 94,78  L 94,79  L 93,79  L 93,78  L 92,78  L 92,79  L 81,79  L 81,80  L 80,80  L 80,79  Z  " style="fill:rgb(0, 0, 0); fill-opacity:1.000; stroke:none;" />
 <path d="  M 76,24  L 75,24  L 75,15  L 74,15  L 74,14  L 75,14  L 75,11  L 74,11  L 74,10  L 73,10  L 73,9  L 70,9  L 70,8  L 65,8  L 65,7  L 61,7  L 61,6  L 57,6  L 57,5  L 54,5  L 54,4  L 50,4  L 50,3  L 49,3  L 49,2  L 42,2  L 42,1  L 35,1  L 35,2  L 33,2  L 33,1  L 32,1  L 32,2  L 27,2  L 27,3  L 22,3  L 22,2  L 21,2  L 21,1  L 16,1  L 16,3  L 15,3  L 15,4  L 16,4  L 16,5  L 15,5  L 15,8  L 16,8  L 16,13  L 17,13  L 17,14  L 18,14  L 18,13  L 21,13  L 21,12  L 24,12  L 24,11  L 28,11  L 28,10  L 40,10  L 40,9  L 43,9  L 43,10  L 49,10  L 49,11  L 53,11  L 53,12  L 56,12  L 56,13  L 59,13  L 59,14  L 60,14  L 60,15  L 62,15  L 62,16  L 63,16  L 63,17  L 62,17  L 62,20  L 63,20  L 63,22  L 64,22  L 64,24  L 65,24  L 65,26  L 64,26  L 64,27  L 65,27  L 65,28  L 64,28  L 64,29  L 63,29  L 63,28  L 60,28  L 60,27  L 58,27  L 58,26  L 54,26  L 54,27  L 49,27  L 49,28  L 48,28  L 48,29  L 44,29  L 44,28  L 43,28  L 43,29  L 42,29  L 42,28  L 41,28  L 41,29  L 37,29  L 37,30  L 36,30  L 36,31  L 35,31  L 35,32  L 33,32  L 33,33  L 32,33  L 32,34  L 31,34  L 31,33  L 30,33  L 30,34  L 28,34  L 28,35  L 27,35  L 27,37  L 26,37  L 26,40  L 25,40  L 25,41  L 24,41  L 24,43  L 23,43  L 23,44  L 24,44  L 24,46  L 23,46  L 23,56  L 24,56  L 24,61  L 25,61  L 25,64  L 26,64  L 26,65  L 27,65  L 27,66  L 28,66  L 28,67  L 30,67  L 30,68  L 36,68  L 36,67  L 37,67  L 37,68  L 40,68  L 40,67  L 43,67  L 43,66  L 46,66  L 46,65  L 51,65  L 51,64  L 56,64  L 56,63  L 62,63  L 62,62  L 66,62  L 66,61  L 70,61  L 70,60  L 72,60  L 72,59  L 74,59  L 74,58  L 77,58  L 77,56  L 78,56  L 78,54  L 79,54  L 79,53  L 78,53  L 78,52  L 73,52  L 73,51  L 68,51  L 68,52  L 61,52  L 61,53  L 57,53  L 57,55  L 56,55  L 56,56  L 50,56  L 50,57  L 46,57  L 46,58  L 45,58  L 45,57  L 44,57  L 44,58  L 34,58  L 34,59  L 33,59  L 33,58  L 32,58  L 32,57  L 31,57  L 31,56  L 30,56  L 30,53  L 31,53  L 31,51  L 30,51  L 30,50  L 31,50  L 31,49  L 30,49  L 30,43  L 31,43  L 31,42  L 33,42  L 33,41  L 34,41  L 34,40  L 36,40  L 36,39  L 38,39  L 38,38  L 46,38  L 46,37  L 50,37  L 50,36  L 63,36  L 63,35  L 65,35  L 65,34  L 70,34  L 70,33  L 71,33  L 71,34  L 72,34  L 72,32  L 74,32  L 74,29  L 75,29  L 75,25  L 76,25  Z  " style="fill:rgb(0, 0, 0); fill-opacity:1.000; stroke:none;" />
 <path d="  M 70,142  L 70,141  L 67,141  L 67,142  L 62,142  L 62,143  L 59,143  L 59,144  L 55,144  L 55,145  L 51,145  L 51,146  L 46,146  L 46,147  L 45,147  L 45,146  L 43,146  L 43,147  L 35,147  L 35,146  L 34,146  L 34,147  L 33,147  L 33,146  L 22,146  L 22,147  L 20,147  L 20,148  L 19,148  L 19,151  L 18,151  L 18,153  L 19,153  L 19,155  L 18,155  L 18,168  L 19,168  L 19,174  L 20,174  L 20,177  L 21,177  L 21,179  L 22,179  L 22,180  L 24,180  L 24,181  L 25,181  L 25,182  L 26,182  L 26,183  L 29,183  L 29,184  L 31,184  L 31,185  L 66,185  L 66,184  L 72,184  L 72,183  L 75,183  L 75,182  L 78,182  L 78,181  L 82,181  L 82,180  L 86,180  L 86,179  L 88,179  L 88,178  L 90,178  L 90,177  L 92,177  L 92,176  L 94,176  L 94,175  L 95,175  L 95,174  L 100,174  L 100,173  L 102,173  L 102,172  L 103,172  L 103,167  L 100,167  L 100,166  L 97,166  L 97,167  L 93,167  L 93,168  L 92,168  L 92,169  L 89,169  L 89,170  L 88,170  L 88,171  L 86,171  L 86,172  L 84,172  L 84,171  L 83,171  L 83,172  L 81,172  L 81,173  L 79,173  L 79,174  L 78,174  L 78,175  L 73,175  L 73,176  L 68,176  L 68,177  L 62,177  L 62,178  L 60,178  L 60,177  L 59,177  L 59,178  L 54,178  L 54,179  L 43,179  L 43,178  L 42,178  L 42,179  L 39,179  L 39,178  L 36,178  L 36,177  L 31,177  L 31,176  L 28,176  L 28,175  L 27,175  L 27,173  L 25,173  L 25,168  L 24,168  L 24,167  L 25,167  L 25,156  L 26,156  L 26,154  L 28,154  L 28,153  L 31,153  L 31,154  L 38,154  L 38,155  L 39,155  L 39,154  L 40,154  L 40,155  L 43,155  L 43,154  L 44,154  L 44,155  L 51,155  L 51,154  L 52,154  L 52,155  L 53,155  L 53,154  L 65,154  L 65,153  L 67,153  L 67,154  L 68,154  L 68,153  L 69,153  L 69,152  L 70,152  L 70,151  L 72,151  L 72,150  L 74,150  L 74,148  L 77,148  L 77,146  L 78,146  L 78,142  Z  " style="fill:rgb(0, 0, 0); fill-opacity:1.000; stroke:none;" />
 <path d="  M 69,122  L 69,125  L 68,125  L 68,127  L 69,127  L 69,129  L 70,129  L 70,132  L 75,132  L 75,130  L 77,130  L 77,131  L 78,131  L 78,130  L 79,130  L 79,129  L 80,129  L 80,128  L 81,128  L 81,124  L 80,124  L 80,123  L 79,123  L 79,122  L 78,122  L 78,120  L 77,120  L 77,118  L 76,118  L 76,117  L 75,117  L 75,114  L 74,114  L 74,113  L 73,113  L 73,111  L 71,111  L 71,110  L 70,110  L 70,109  L 68,109  L 68,108  L 67,108  L 67,107  L 65,107  L 65,106  L 63,106  L 63,105  L 60,105  L 60,104  L 49,104  L 49,105  L 44,105  L 44,106  L 37,106  L 37,107  L 31,107  L 31,108  L 29,108  L 29,109  L 28,109  L 28,110  L 26,110  L 26,111  L 25,111  L 25,113  L 24,113  L 24,114  L 23,114  L 23,116  L 24,116  L 24,119  L 26,119  L 26,120  L 28,120  L 28,119  L 30,119  L 30,118  L 32,118  L 32,117  L 34,117  L 34,116  L 36,116  L 36,115  L 37,115  L 37,116  L 38,116  L 38,115  L 43,115  L 43,114  L 50,114  L 50,113  L 55,113  L 55,114  L 60,114  L 60,115  L 63,115  L 63,116  L 65,116  L 65,117  L 66,117  L 66,118  L 67,118  L 67,120  L 68,120  L 68,122  Z  " style="fill:rgb(0, 0, 0); fill-opacity:1.000; stroke:none;" />
 <path d="  M 64,28  L 64,27  L 63,27  L 63,28  Z  " style="fill:rgb(0, 0, 0); fill-opacity:1.000; stroke:none;" />
</svg>
