<?xml version="1.0" encoding="UTF-8" standalone="no"?>
<!DOCTYPE svg PUBLIC "-//W3C//DTD SVG 1.1//EN" 
  "http://www.w3.org/Graphics/SVG/1.1/DTD/svg11.dtd">
<svg width="105" height="137"
     xmlns="http://www.w3.org/2000/svg" version="1.1">
 <path d="  M 39,71  L 39,70  L 40,70  L 40,69  L 43,69  L 43,68  L 44,68  L 44,66  L 45,66  L 45,65  L 46,65  L 46,57  L 47,57  L 47,47  L 48,47  L 48,33  L 49,33  L 49,32  L 48,32  L 48,30  L 49,30  L 49,22  L 50,22  L 50,16  L 49,16  L 49,15  L 48,15  L 48,14  L 47,14  L 47,13  L 46,13  L 46,12  L 43,12  L 43,11  L 31,11  L 31,12  L 30,12  L 30,11  L 29,11  L 29,12  L 28,12  L 28,11  L 27,11  L 27,12  L 16,12  L 16,11  L 15,11  L 15,12  L 14,12  L 14,11  L 11,11  L 11,10  L 8,10  L 8,11  L 6,11  L 6,12  L 4,12  L 4,13  L 2,13  L 2,14  L 1,14  L 1,15  L 0,15  L 0,16  L 1,16  L 1,17  L 3,17  L 3,18  L 4,18  L 4,39  L 3,39  L 3,40  L 4,40  L 4,57  L 5,57  L 5,65  L 6,65  L 6,67  L 7,67  L 7,70  L 8,70  L 8,71  L 10,71  L 10,72  L 12,72  L 12,73  L 15,73  L 15,74  L 16,74  L 16,73  L 19,73  L 19,74  L 21,74  L 21,73  L 27,73  L 27,72  L 28,72  L 28,73  L 29,73  L 29,72  L 34,72  L 34,71  Z  M 14,66  L 14,65  L 13,65  L 13,64  L 12,64  L 12,46  L 11,46  L 11,45  L 12,45  L 12,43  L 11,43  L 11,41  L 12,41  L 12,39  L 11,39  L 11,33  L 12,33  L 12,32  L 11,32  L 11,23  L 12,23  L 12,18  L 14,18  L 14,19  L 29,19  L 29,18  L 39,18  L 39,19  L 42,19  L 42,32  L 41,32  L 41,46  L 40,46  L 40,47  L 41,47  L 41,48  L 40,48  L 40,57  L 39,57  L 39,61  L 38,61  L 38,62  L 37,62  L 37,63  L 36,63  L 36,64  L 33,64  L 33,65  L 28,65  L 28,66  L 23,66  L 23,67  L 17,67  L 17,66  Z  " style="fill:rgb(0, 0, 0); fill-opacity:1.000; stroke:none;" />
 <path d="  M 35,114  L 34,114  L 34,102  L 33,102  L 33,97  L 34,97  L 34,96  L 33,96  L 33,92  L 27,92  L 27,95  L 26,95  L 26,97  L 27,97  L 27,117  L 28,117  L 28,119  L 27,119  L 27,120  L 28,120  L 28,125  L 29,125  L 29,129  L 30,129  L 30,133  L 31,133  L 31,134  L 32,134  L 32,135  L 33,135  L 33,136  L 34,136  L 34,137  L 55,137  L 55,136  L 56,136  L 56,137  L 58,137  L 58,136  L 65,136  L 65,135  L 71,135  L 71,134  L 77,134  L 77,133  L 83,133  L 83,132  L 87,132  L 87,131  L 89,131  L 89,130  L 90,130  L 90,125  L 82,125  L 82,126  L 73,126  L 73,127  L 67,127  L 67,128  L 62,128  L 62,129  L 59,129  L 59,128  L 58,128  L 58,129  L 55,129  L 55,130  L 46,130  L 46,131  L 39,131  L 39,130  L 37,130  L 37,129  L 36,129  L 36,125  L 35,125  Z  " style="fill:rgb(0, 0, 0); fill-opacity:1.000; stroke:none;" />
 <path d="  M 68,19  L 69,19  L 69,29  L 70,29  L 70,30  L 69,30  L 69,33  L 70,33  L 70,86  L 71,86  L 71,87  L 73,87  L 73,86  L 74,86  L 74,87  L 75,87  L 75,86  L 76,86  L 76,85  L 77,85  L 77,83  L 78,83  L 78,82  L 77,82  L 77,60  L 76,60  L 76,59  L 77,59  L 77,49  L 78,49  L 78,48  L 79,48  L 79,47  L 81,47  L 81,46  L 95,46  L 95,45  L 96,45  L 96,46  L 99,46  L 99,45  L 105,45  L 105,40  L 104,40  L 104,39  L 102,39  L 102,38  L 83,38  L 83,37  L 82,37  L 82,38  L 77,38  L 77,37  L 76,37  L 76,36  L 77,36  L 77,34  L 76,34  L 76,25  L 75,25  L 75,16  L 74,16  L 74,10  L 73,10  L 73,2  L 72,2  L 72,1  L 71,1  L 71,0  L 67,0  L 67,13  L 68,13  Z  " style="fill:rgb(0, 0, 0); fill-opacity:1.000; stroke:none;" />
</svg>
