<?xml version="1.0" encoding="UTF-8" standalone="no"?>
<!DOCTYPE svg PUBLIC "-//W3C//DTD SVG 1.1//EN" 
  "http://www.w3.org/Graphics/SVG/1.1/DTD/svg11.dtd">
<svg width="105" height="180"
     xmlns="http://www.w3.org/2000/svg" version="1.1">
 <path d="  M 5,37  L 6,37  L 6,38  L 5,38  L 5,39  L 6,39  L 6,59  L 7,59  L 7,60  L 6,60  L 6,71  L 7,71  L 7,73  L 6,73  L 6,74  L 7,74  L 7,77  L 6,77  L 6,78  L 7,78  L 7,79  L 8,79  L 8,80  L 7,80  L 7,81  L 8,81  L 8,84  L 9,84  L 9,85  L 10,85  L 10,86  L 14,86  L 14,87  L 17,87  L 17,86  L 18,86  L 18,87  L 19,87  L 19,86  L 22,86  L 22,87  L 23,87  L 23,86  L 27,86  L 27,85  L 32,85  L 32,84  L 37,84  L 37,83  L 42,83  L 42,82  L 44,82  L 44,81  L 47,81  L 47,80  L 48,80  L 48,79  L 49,79  L 49,78  L 50,78  L 50,77  L 51,77  L 51,76  L 53,76  L 53,72  L 54,72  L 54,65  L 55,65  L 55,64  L 54,64  L 54,63  L 55,63  L 55,33  L 56,33  L 56,29  L 57,29  L 57,23  L 58,23  L 58,22  L 57,22  L 57,19  L 56,19  L 56,18  L 55,18  L 55,17  L 54,17  L 54,16  L 53,16  L 53,15  L 52,15  L 52,14  L 50,14  L 50,13  L 49,13  L 49,14  L 48,14  L 48,13  L 47,13  L 47,14  L 27,14  L 27,15  L 25,15  L 25,14  L 23,14  L 23,15  L 12,15  L 12,14  L 11,14  L 11,15  L 7,15  L 7,16  L 5,16  L 5,17  L 4,17  L 4,18  L 2,18  L 2,19  L 1,19  L 1,20  L 0,20  L 0,23  L 2,23  L 2,24  L 4,24  L 4,26  L 5,26  Z  M 31,23  L 31,22  L 48,22  L 48,23  L 49,23  L 49,28  L 48,28  L 48,33  L 47,33  L 47,58  L 46,58  L 46,59  L 47,59  L 47,62  L 46,62  L 46,68  L 45,68  L 45,72  L 44,72  L 44,73  L 43,73  L 43,74  L 41,74  L 41,75  L 39,75  L 39,76  L 36,76  L 36,77  L 31,77  L 31,78  L 23,78  L 23,79  L 20,79  L 20,78  L 19,78  L 19,79  L 16,79  L 16,78  L 15,78  L 15,76  L 14,76  L 14,46  L 13,46  L 13,24  L 15,24  L 15,23  Z  " style="fill:rgb(0, 0, 0); fill-opacity:1.000; stroke:none;" />
 <path d="  M 104,163  L 105,163  L 105,158  L 104,158  L 104,157  L 103,157  L 103,158  L 101,158  L 101,159  L 99,159  L 99,160  L 97,160  L 97,161  L 96,161  L 96,162  L 95,162  L 95,163  L 93,163  L 93,164  L 92,164  L 92,165  L 90,165  L 90,166  L 88,166  L 88,167  L 87,167  L 87,168  L 84,168  L 84,169  L 80,169  L 80,170  L 77,170  L 77,171  L 76,171  L 76,170  L 75,170  L 75,171  L 72,171  L 72,172  L 70,172  L 70,173  L 56,173  L 56,172  L 51,172  L 51,171  L 48,171  L 48,170  L 45,170  L 45,169  L 44,169  L 44,168  L 43,168  L 43,166  L 42,166  L 42,155  L 43,155  L 43,154  L 44,154  L 44,152  L 46,152  L 46,151  L 48,151  L 48,150  L 50,150  L 50,149  L 52,149  L 52,148  L 54,148  L 54,147  L 56,147  L 56,146  L 60,146  L 60,145  L 63,145  L 63,144  L 64,144  L 64,143  L 68,143  L 68,141  L 71,141  L 71,140  L 72,140  L 72,138  L 75,138  L 75,137  L 76,137  L 76,136  L 77,136  L 77,135  L 78,135  L 78,134  L 79,134  L 79,133  L 80,133  L 80,132  L 83,132  L 83,131  L 84,131  L 84,130  L 85,130  L 85,129  L 87,129  L 87,128  L 88,128  L 88,126  L 89,126  L 89,125  L 90,125  L 90,121  L 89,121  L 89,118  L 88,118  L 88,117  L 87,117  L 87,115  L 86,115  L 86,113  L 84,113  L 84,112  L 83,112  L 83,111  L 82,111  L 82,110  L 79,110  L 79,109  L 76,109  L 76,108  L 73,108  L 73,107  L 69,107  L 69,106  L 63,106  L 63,105  L 58,105  L 58,104  L 44,104  L 44,105  L 41,105  L 41,106  L 39,106  L 39,107  L 37,107  L 37,108  L 36,108  L 36,110  L 35,110  L 35,111  L 36,111  L 36,113  L 37,113  L 37,114  L 38,114  L 38,115  L 41,115  L 41,114  L 43,114  L 43,113  L 47,113  L 47,112  L 61,112  L 61,113  L 66,113  L 66,114  L 70,114  L 70,115  L 74,115  L 74,116  L 75,116  L 75,117  L 77,117  L 77,119  L 78,119  L 78,120  L 79,120  L 79,121  L 80,121  L 80,124  L 78,124  L 78,125  L 77,125  L 77,126  L 76,126  L 76,127  L 75,127  L 75,128  L 73,128  L 73,129  L 71,129  L 71,130  L 70,130  L 70,131  L 68,131  L 68,132  L 66,132  L 66,133  L 65,133  L 65,134  L 63,134  L 63,135  L 60,135  L 60,137  L 58,137  L 58,138  L 55,138  L 55,140  L 51,140  L 51,141  L 49,141  L 49,142  L 46,142  L 46,143  L 45,143  L 45,144  L 43,144  L 43,145  L 42,145  L 42,146  L 41,146  L 41,147  L 40,147  L 40,148  L 38,148  L 38,150  L 37,150  L 37,151  L 36,151  L 36,152  L 35,152  L 35,154  L 34,154  L 34,164  L 35,164  L 35,165  L 34,165  L 34,166  L 35,166  L 35,167  L 36,167  L 36,168  L 35,168  L 35,169  L 36,169  L 36,170  L 37,170  L 37,171  L 36,171  L 36,172  L 37,172  L 37,173  L 38,173  L 38,174  L 39,174  L 39,175  L 40,175  L 40,176  L 42,176  L 42,177  L 44,177  L 44,176  L 45,176  L 45,177  L 46,177  L 46,178  L 50,178  L 50,179  L 55,179  L 55,180  L 72,180  L 72,179  L 73,179  L 73,180  L 74,180  L 74,179  L 78,179  L 78,178  L 82,178  L 82,177  L 84,177  L 84,176  L 87,176  L 87,175  L 90,175  L 90,174  L 91,174  L 91,173  L 93,173  L 93,172  L 95,172  L 95,171  L 96,171  L 96,170  L 98,170  L 98,169  L 99,169  L 99,168  L 101,168  L 101,166  L 102,166  L 102,165  L 103,165  L 103,164  L 104,164  Z  " style="fill:rgb(0, 0, 0); fill-opacity:1.000; stroke:none;" />
 <path d="  M 94,99  L 95,99  L 95,100  L 96,100  L 96,101  L 97,101  L 97,100  L 100,100  L 100,99  L 102,99  L 102,90  L 101,90  L 101,89  L 102,89  L 102,88  L 101,88  L 101,87  L 102,87  L 102,59  L 103,59  L 103,58  L 102,58  L 102,57  L 103,57  L 103,56  L 102,56  L 102,55  L 103,55  L 103,54  L 102,54  L 102,53  L 103,53  L 103,52  L 102,52  L 102,51  L 103,51  L 103,50  L 102,50  L 102,49  L 103,49  L 103,48  L 102,48  L 102,47  L 103,47  L 103,46  L 102,46  L 102,45  L 103,45  L 103,24  L 102,24  L 102,23  L 103,23  L 103,22  L 102,22  L 102,21  L 103,21  L 103,20  L 102,20  L 102,6  L 101,6  L 101,3  L 100,3  L 100,2  L 99,2  L 99,1  L 97,1  L 97,0  L 95,0  L 95,2  L 93,2  L 93,6  L 94,6  L 94,20  L 95,20  L 95,21  L 94,21  L 94,23  L 95,23  L 95,26  L 94,26  L 94,27  L 95,27  L 95,29  L 94,29  L 94,33  L 90,33  L 90,34  L 83,34  L 83,35  L 79,35  L 79,36  L 71,36  L 71,37  L 65,37  L 65,38  L 61,38  L 61,44  L 62,44  L 62,45  L 63,45  L 63,46  L 65,46  L 65,45  L 70,45  L 70,44  L 76,44  L 76,43  L 81,43  L 81,42  L 86,42  L 86,41  L 93,41  L 93,40  L 94,40  L 94,48  L 95,48  L 95,49  L 94,49  Z  " style="fill:rgb(0, 0, 0); fill-opacity:1.000; stroke:none;" />
</svg>
