<?xml version="1.0" encoding="UTF-8" standalone="no"?>
<!DOCTYPE svg PUBLIC "-//W3C//DTD SVG 1.1//EN" 
  "http://www.w3.org/Graphics/SVG/1.1/DTD/svg11.dtd">
<svg width="102" height="147"
     xmlns="http://www.w3.org/2000/svg" version="1.1">
 <path d="  M 46,17  L 46,29  L 45,29  L 45,30  L 46,30  L 46,31  L 45,31  L 45,42  L 46,42  L 46,43  L 45,43  L 45,44  L 46,44  L 46,47  L 45,47  L 45,48  L 46,48  L 46,55  L 45,55  L 45,60  L 43,60  L 43,61  L 38,61  L 38,62  L 33,62  L 33,63  L 23,63  L 23,64  L 16,64  L 16,63  L 15,63  L 15,62  L 14,62  L 14,18  L 15,18  L 15,17  L 16,17  L 16,16  L 18,16  L 18,17  Z  M 12,8  L 12,7  L 10,7  L 10,6  L 9,6  L 9,7  L 6,7  L 6,8  L 4,8  L 4,9  L 3,9  L 3,10  L 1,10  L 1,15  L 2,15  L 2,16  L 3,16  L 3,15  L 7,15  L 7,58  L 8,58  L 8,59  L 7,59  L 7,62  L 8,62  L 8,67  L 9,67  L 9,68  L 10,68  L 10,69  L 12,69  L 12,70  L 31,70  L 31,69  L 38,69  L 38,68  L 42,68  L 42,67  L 47,67  L 47,66  L 48,66  L 48,65  L 49,65  L 49,64  L 50,64  L 50,63  L 51,63  L 51,61  L 52,61  L 52,59  L 53,59  L 53,47  L 52,47  L 52,46  L 53,46  L 53,43  L 52,43  L 52,42  L 53,42  L 53,41  L 52,41  L 52,14  L 51,14  L 51,13  L 50,13  L 50,12  L 47,12  L 47,11  L 41,11  L 41,10  L 39,10  L 39,11  L 38,11  L 38,10  L 35,10  L 35,11  L 34,11  L 34,10  L 31,10  L 31,11  L 30,11  L 30,10  L 27,10  L 27,11  L 26,11  L 26,10  L 23,10  L 23,11  L 22,11  L 22,10  L 17,10  L 17,9  L 15,9  L 15,8  Z  " style="fill:rgb(0, 0, 0); fill-opacity:1.000; stroke:none;" />
 <path d="  M 33,93  L 32,93  L 32,92  L 28,92  L 28,93  L 26,93  L 26,130  L 27,130  L 27,138  L 28,138  L 28,141  L 29,141  L 29,142  L 28,142  L 28,143  L 29,143  L 29,144  L 30,144  L 30,146  L 32,146  L 32,147  L 58,147  L 58,146  L 59,146  L 59,147  L 60,147  L 60,146  L 66,146  L 66,145  L 75,145  L 75,144  L 80,144  L 80,143  L 81,143  L 81,144  L 82,144  L 82,143  L 88,143  L 88,142  L 96,142  L 96,141  L 97,141  L 97,142  L 98,142  L 98,141  L 100,141  L 100,140  L 102,140  L 102,134  L 101,134  L 101,133  L 99,133  L 99,134  L 95,134  L 95,135  L 94,135  L 94,134  L 93,134  L 93,135  L 86,135  L 86,136  L 81,136  L 81,137  L 75,137  L 75,138  L 72,138  L 72,137  L 71,137  L 71,138  L 68,138  L 68,139  L 60,139  L 60,140  L 54,140  L 54,141  L 53,141  L 53,140  L 52,140  L 52,141  L 37,141  L 37,140  L 36,140  L 36,139  L 35,139  L 35,137  L 34,137  L 34,129  L 33,129  L 33,128  L 34,128  L 34,127  L 33,127  Z  " style="fill:rgb(0, 0, 0); fill-opacity:1.000; stroke:none;" />
 <path d="  M 85,90  L 86,90  L 86,91  L 87,91  L 87,92  L 88,92  L 88,93  L 90,93  L 90,92  L 91,92  L 91,90  L 92,90  L 92,12  L 91,12  L 91,5  L 90,5  L 90,2  L 89,2  L 89,1  L 84,1  L 84,6  L 85,6  L 85,10  L 86,10  L 86,20  L 87,20  L 87,23  L 88,23  L 88,24  L 87,24  L 87,25  L 79,25  L 79,26  L 78,26  L 78,25  L 77,25  L 77,26  L 76,26  L 76,25  L 75,25  L 75,26  L 72,26  L 72,25  L 71,25  L 71,26  L 67,26  L 67,27  L 56,27  L 56,28  L 55,28  L 55,31  L 56,31  L 56,33  L 57,33  L 57,34  L 61,34  L 61,33  L 62,33  L 62,34  L 63,34  L 63,33  L 68,33  L 68,32  L 85,32  L 85,33  L 86,33  L 86,35  L 85,35  L 85,38  L 86,38  L 86,39  L 85,39  L 85,40  L 86,40  L 86,42  L 85,42  L 85,44  L 79,44  L 79,45  L 67,45  L 67,46  L 64,46  L 64,45  L 63,45  L 63,46  L 59,46  L 59,47  L 58,47  L 58,52  L 59,52  L 59,53  L 65,53  L 65,52  L 72,52  L 72,51  L 83,51  L 83,50  L 84,50  L 84,51  L 85,51  L 85,54  L 86,54  L 86,55  L 85,55  L 85,57  L 86,57  L 86,59  L 85,59  L 85,61  L 86,61  L 86,63  L 85,63  Z  " style="fill:rgb(0, 0, 0); fill-opacity:1.000; stroke:none;" />
</svg>
