<?xml version="1.0" encoding="UTF-8" standalone="no"?>
<!DOCTYPE svg PUBLIC "-//W3C//DTD SVG 1.1//EN" 
  "http://www.w3.org/Graphics/SVG/1.1/DTD/svg11.dtd">
<svg width="109" height="109"
     xmlns="http://www.w3.org/2000/svg" version="1.1">
 <path d="  M 2,107  L 1,107  L 1,108  L 2,108  Z  " style="fill:rgb(0, 0, 0); fill-opacity:1.000; stroke:none;" />
 <path d="  M 24,4  L 24,5  L 22,5  L 22,6  L 21,6  L 21,7  L 20,7  L 20,8  L 18,8  L 18,9  L 17,9  L 17,10  L 18,10  L 18,11  L 17,11  L 17,17  L 16,17  L 16,19  L 15,19  L 15,28  L 14,28  L 14,29  L 15,29  L 15,31  L 14,31  L 14,54  L 15,54  L 15,57  L 17,57  L 17,59  L 20,59  L 20,60  L 24,60  L 24,61  L 25,61  L 25,60  L 26,60  L 26,61  L 51,61  L 51,99  L 44,99  L 44,100  L 36,100  L 36,101  L 35,101  L 35,100  L 34,100  L 34,101  L 27,101  L 27,102  L 16,102  L 16,103  L 5,103  L 5,104  L 4,104  L 4,105  L 3,105  L 3,108  L 4,108  L 4,109  L 27,109  L 27,108  L 28,108  L 28,109  L 30,109  L 30,108  L 32,108  L 32,109  L 33,109  L 33,108  L 38,108  L 38,107  L 39,107  L 39,108  L 40,108  L 40,107  L 51,107  L 51,106  L 52,106  L 52,107  L 53,107  L 53,106  L 56,106  L 56,107  L 59,107  L 59,106  L 60,106  L 60,107  L 63,107  L 63,106  L 64,106  L 64,107  L 67,107  L 67,106  L 68,106  L 68,107  L 69,107  L 69,106  L 70,106  L 70,107  L 71,107  L 71,106  L 72,106  L 72,107  L 73,107  L 73,106  L 83,106  L 83,105  L 91,105  L 91,104  L 106,104  L 106,103  L 108,103  L 108,102  L 109,102  L 109,97  L 108,97  L 108,96  L 107,96  L 107,95  L 106,95  L 106,96  L 98,96  L 98,97  L 92,97  L 92,98  L 82,98  L 82,99  L 72,99  L 72,100  L 70,100  L 70,99  L 69,99  L 69,100  L 62,100  L 62,99  L 59,99  L 59,60  L 60,60  L 60,59  L 63,59  L 63,58  L 67,58  L 67,57  L 70,57  L 70,56  L 73,56  L 73,55  L 77,55  L 77,54  L 79,54  L 79,53  L 81,53  L 81,52  L 82,52  L 82,51  L 85,51  L 85,50  L 86,50  L 86,33  L 87,33  L 87,23  L 88,23  L 88,17  L 89,17  L 89,8  L 88,8  L 88,6  L 87,6  L 87,5  L 86,5  L 86,4  L 84,4  L 84,3  L 82,3  L 82,2  L 79,2  L 79,1  L 76,1  L 76,0  L 74,0  L 74,1  L 72,1  L 72,0  L 70,0  L 70,1  L 68,1  L 68,0  L 66,0  L 66,1  L 55,1  L 55,2  L 30,2  L 30,3  L 26,3  L 26,4  Z  M 22,21  L 23,21  L 23,18  L 24,18  L 24,15  L 25,15  L 25,13  L 26,13  L 26,12  L 28,12  L 28,11  L 31,11  L 31,10  L 41,10  L 41,9  L 44,9  L 44,10  L 45,10  L 45,9  L 63,9  L 63,8  L 78,8  L 78,9  L 81,9  L 81,10  L 82,10  L 82,16  L 81,16  L 81,22  L 80,22  L 80,23  L 81,23  L 81,25  L 80,25  L 80,31  L 79,31  L 79,38  L 78,38  L 78,42  L 77,42  L 77,44  L 76,44  L 76,46  L 75,46  L 75,47  L 74,47  L 74,48  L 72,48  L 72,49  L 70,49  L 70,50  L 68,50  L 68,51  L 64,51  L 64,52  L 60,52  L 60,53  L 59,53  L 59,52  L 58,52  L 58,53  L 55,53  L 55,54  L 36,54  L 36,55  L 35,55  L 35,54  L 25,54  L 25,53  L 23,53  L 23,52  L 22,52  Z  " style="fill:rgb(0, 0, 0); fill-opacity:1.000; stroke:none;" />
</svg>
