<?xml version="1.0" encoding="UTF-8" standalone="no"?>
<!DOCTYPE svg PUBLIC "-//W3C//DTD SVG 1.1//EN" 
  "http://www.w3.org/Graphics/SVG/1.1/DTD/svg11.dtd">
<svg width="101" height="112"
     xmlns="http://www.w3.org/2000/svg" version="1.1">
 <path d="  M 39,59  L 40,59  L 40,58  L 55,58  L 55,57  L 62,57  L 62,97  L 63,97  L 63,99  L 62,99  L 62,102  L 53,102  L 53,103  L 52,103  L 52,102  L 51,102  L 51,103  L 50,103  L 50,102  L 49,102  L 49,103  L 40,103  L 40,102  L 38,102  L 38,100  L 39,100  L 39,98  L 38,98  L 38,96  L 39,96  L 39,94  L 38,94  L 38,87  L 39,87  L 39,86  L 38,86  L 38,85  L 39,85  Z  M 26,39  L 25,39  L 25,36  L 26,36  L 26,35  L 25,35  L 25,28  L 26,28  L 26,27  L 25,27  L 25,24  L 26,24  L 26,23  L 25,23  L 25,22  L 26,22  L 26,14  L 27,14  L 27,12  L 28,12  L 28,11  L 29,11  L 29,10  L 34,10  L 34,9  L 43,9  L 43,8  L 44,8  L 44,9  L 45,9  L 45,8  L 76,8  L 76,10  L 77,10  L 77,13  L 76,13  L 76,19  L 75,19  L 75,23  L 74,23  L 74,31  L 73,31  L 73,37  L 72,37  L 72,45  L 71,45  L 71,47  L 70,47  L 70,48  L 68,48  L 68,49  L 67,49  L 67,50  L 62,50  L 62,51  L 57,51  L 57,52  L 55,52  L 55,51  L 54,51  L 54,52  L 51,52  L 51,53  L 50,53  L 50,52  L 49,52  L 49,53  L 48,53  L 48,52  L 47,52  L 47,53  L 30,53  L 30,52  L 28,52  L 28,51  L 27,51  L 27,46  L 26,46  Z  M 19,13  L 20,13  L 20,48  L 21,48  L 21,52  L 22,52  L 22,55  L 23,55  L 23,56  L 25,56  L 25,57  L 28,57  L 28,58  L 31,58  L 31,59  L 32,59  L 32,60  L 33,60  L 33,61  L 32,61  L 32,65  L 33,65  L 33,66  L 32,66  L 32,71  L 33,71  L 33,73  L 32,73  L 32,76  L 33,76  L 33,77  L 32,77  L 32,103  L 28,103  L 28,104  L 27,104  L 27,103  L 26,103  L 26,104  L 23,104  L 23,103  L 22,103  L 22,104  L 18,104  L 18,105  L 13,105  L 13,106  L 5,106  L 5,107  L 4,107  L 4,106  L 3,106  L 3,107  L 1,107  L 1,108  L 0,108  L 0,112  L 19,112  L 19,111  L 27,111  L 27,110  L 43,110  L 43,109  L 44,109  L 44,110  L 45,110  L 45,109  L 59,109  L 59,108  L 75,108  L 75,107  L 76,107  L 76,108  L 78,108  L 78,107  L 99,107  L 99,106  L 101,106  L 101,100  L 99,100  L 99,99  L 94,99  L 94,100  L 86,100  L 86,101  L 85,101  L 85,100  L 84,100  L 84,101  L 70,101  L 70,100  L 69,100  L 69,68  L 70,68  L 70,67  L 69,67  L 69,64  L 70,64  L 70,63  L 69,63  L 69,62  L 70,62  L 70,58  L 71,58  L 71,56  L 73,56  L 73,55  L 74,55  L 74,54  L 76,54  L 76,53  L 78,53  L 78,51  L 79,51  L 79,39  L 80,39  L 80,29  L 81,29  L 81,22  L 82,22  L 82,21  L 81,21  L 81,20  L 82,20  L 82,14  L 83,14  L 83,12  L 82,12  L 82,11  L 83,11  L 83,7  L 82,7  L 82,5  L 81,5  L 81,4  L 79,4  L 79,3  L 78,3  L 78,2  L 76,2  L 76,1  L 53,1  L 53,2  L 34,2  L 34,3  L 33,3  L 33,2  L 30,2  L 30,3  L 29,3  L 29,2  L 27,2  L 27,3  L 24,3  L 24,4  L 22,4  L 22,5  L 21,5  L 21,6  L 20,6  L 20,7  L 18,7  L 18,8  L 17,8  L 17,9  L 16,9  L 16,10  L 17,10  L 17,11  L 19,11  Z  " style="fill:rgb(0, 0, 0); fill-opacity:1.000; stroke:none;" />
</svg>
