<?xml version="1.0" encoding="UTF-8" standalone="no"?>
<!DOCTYPE svg PUBLIC "-//W3C//DTD SVG 1.1//EN" 
  "http://www.w3.org/Graphics/SVG/1.1/DTD/svg11.dtd">
<svg width="107" height="150"
     xmlns="http://www.w3.org/2000/svg" version="1.1">
 <path d="  M 16,39  L 15,39  L 15,38  L 16,38  L 16,35  L 15,35  L 15,34  L 16,34  L 16,31  L 15,31  L 15,30  L 16,30  L 16,28  L 15,28  L 15,26  L 16,26  L 16,25  L 15,25  L 15,23  L 16,23  L 16,22  L 46,22  L 46,23  L 47,23  L 47,29  L 46,29  L 46,30  L 47,30  L 47,31  L 46,31  L 46,53  L 45,53  L 45,59  L 44,59  L 44,63  L 43,63  L 43,66  L 40,66  L 40,67  L 37,67  L 37,68  L 33,68  L 33,69  L 32,69  L 32,68  L 31,68  L 31,69  L 17,69  L 17,68  L 16,68  Z  M 31,75  L 31,74  L 38,74  L 38,73  L 42,73  L 42,72  L 45,72  L 45,71  L 46,71  L 46,70  L 47,70  L 47,69  L 48,69  L 48,68  L 49,68  L 49,67  L 50,67  L 50,65  L 51,65  L 51,62  L 52,62  L 52,61  L 51,61  L 51,59  L 52,59  L 52,50  L 53,50  L 53,49  L 52,49  L 52,46  L 53,46  L 53,45  L 52,45  L 52,43  L 53,43  L 53,32  L 54,32  L 54,31  L 53,31  L 53,30  L 54,30  L 54,24  L 55,24  L 55,19  L 54,19  L 54,18  L 53,18  L 53,17  L 51,17  L 51,16  L 39,16  L 39,15  L 38,15  L 38,16  L 19,16  L 19,15  L 18,15  L 18,16  L 17,16  L 17,15  L 13,15  L 13,14  L 11,14  L 11,13  L 6,13  L 6,14  L 4,14  L 4,15  L 2,15  L 2,16  L 1,16  L 1,18  L 0,18  L 0,20  L 1,20  L 1,21  L 3,21  L 3,20  L 5,20  L 5,21  L 7,21  L 7,23  L 8,23  L 8,50  L 9,50  L 9,51  L 8,51  L 8,54  L 9,54  L 9,55  L 8,55  L 8,66  L 9,66  L 9,70  L 10,70  L 10,72  L 11,72  L 11,74  L 13,74  L 13,75  L 16,75  L 16,76  L 21,76  L 21,75  Z  " style="fill:rgb(0, 0, 0); fill-opacity:1.000; stroke:none;" />
 <path d="  M 33,111  L 33,109  L 34,109  L 34,108  L 35,108  L 35,107  L 36,107  L 36,106  L 37,106  L 37,104  L 38,104  L 38,103  L 39,103  L 39,102  L 41,102  L 41,100  L 42,100  L 42,95  L 41,95  L 41,94  L 40,94  L 40,93  L 39,93  L 39,92  L 34,92  L 34,91  L 26,91  L 26,92  L 25,92  L 25,93  L 26,93  L 26,95  L 28,95  L 28,96  L 29,96  L 29,97  L 32,97  L 32,98  L 33,98  L 33,97  L 34,97  L 34,96  L 35,96  L 35,97  L 36,97  L 36,100  L 34,100  L 34,101  L 33,101  L 33,103  L 32,103  L 32,104  L 31,104  L 31,105  L 30,105  L 30,106  L 29,106  L 29,108  L 28,108  L 28,109  L 27,109  L 27,111  L 26,111  L 26,113  L 25,113  L 25,114  L 24,114  L 24,115  L 23,115  L 23,117  L 22,117  L 22,118  L 21,118  L 21,119  L 20,119  L 20,121  L 18,121  L 18,123  L 17,123  L 17,124  L 16,124  L 16,125  L 15,125  L 15,126  L 14,126  L 14,127  L 13,127  L 13,128  L 12,128  L 12,130  L 11,130  L 11,131  L 9,131  L 9,133  L 8,133  L 8,135  L 7,135  L 7,139  L 8,139  L 8,140  L 9,140  L 9,141  L 10,141  L 10,140  L 12,140  L 12,138  L 13,138  L 13,137  L 14,137  L 14,135  L 15,135  L 15,134  L 16,134  L 16,132  L 17,132  L 17,131  L 18,131  L 18,130  L 19,130  L 19,129  L 20,129  L 20,128  L 21,128  L 21,127  L 22,127  L 22,125  L 23,125  L 23,124  L 25,124  L 25,122  L 27,122  L 27,121  L 28,121  L 28,120  L 29,120  L 29,121  L 31,121  L 31,122  L 33,122  L 33,123  L 36,123  L 36,124  L 37,124  L 37,125  L 41,125  L 41,126  L 43,126  L 43,127  L 47,127  L 47,128  L 49,128  L 49,129  L 51,129  L 51,130  L 52,130  L 52,131  L 53,131  L 53,133  L 54,133  L 54,136  L 53,136  L 53,138  L 52,138  L 52,139  L 51,139  L 51,141  L 50,141  L 50,145  L 49,145  L 49,149  L 50,149  L 50,150  L 54,150  L 54,149  L 55,149  L 55,147  L 56,147  L 56,143  L 57,143  L 57,141  L 58,141  L 58,140  L 59,140  L 59,138  L 60,138  L 60,137  L 61,137  L 61,136  L 62,136  L 62,135  L 63,135  L 63,134  L 64,134  L 64,132  L 65,132  L 65,130  L 66,130  L 66,129  L 67,129  L 67,127  L 68,127  L 68,125  L 69,125  L 69,122  L 70,122  L 70,120  L 72,120  L 72,121  L 73,121  L 73,122  L 74,122  L 74,124  L 76,124  L 76,125  L 77,125  L 77,126  L 79,126  L 79,127  L 80,127  L 80,128  L 81,128  L 81,129  L 84,129  L 84,130  L 85,130  L 85,131  L 87,131  L 87,132  L 88,132  L 88,133  L 90,133  L 90,134  L 91,134  L 91,135  L 93,135  L 93,136  L 95,136  L 95,137  L 98,137  L 98,138  L 99,138  L 99,139  L 101,139  L 101,140  L 103,140  L 103,141  L 106,141  L 106,140  L 107,140  L 107,136  L 106,136  L 106,135  L 105,135  L 105,134  L 103,134  L 103,133  L 101,133  L 101,132  L 99,132  L 99,131  L 98,131  L 98,130  L 96,130  L 96,129  L 94,129  L 94,128  L 92,128  L 92,127  L 91,127  L 91,126  L 88,126  L 88,125  L 87,125  L 87,124  L 86,124  L 86,123  L 84,123  L 84,122  L 83,122  L 83,121  L 82,121  L 82,120  L 81,120  L 81,119  L 80,119  L 80,118  L 79,118  L 79,117  L 78,117  L 78,116  L 77,116  L 77,114  L 76,114  L 76,112  L 75,112  L 75,108  L 76,108  L 76,104  L 77,104  L 77,100  L 78,100  L 78,95  L 77,95  L 77,93  L 74,93  L 74,94  L 72,94  L 72,96  L 71,96  L 71,99  L 70,99  L 70,102  L 69,102  L 69,105  L 68,105  L 68,109  L 67,109  L 67,111  L 66,111  L 66,113  L 65,113  L 65,115  L 64,115  L 64,119  L 63,119  L 63,121  L 62,121  L 62,126  L 61,126  L 61,128  L 59,128  L 59,126  L 58,126  L 58,125  L 57,125  L 57,124  L 52,124  L 52,123  L 51,123  L 51,122  L 48,122  L 48,121  L 46,121  L 46,120  L 44,120  L 44,119  L 42,119  L 42,118  L 39,118  L 39,117  L 37,117  L 37,116  L 35,116  L 35,114  L 33,114  L 33,113  L 32,113  L 32,111  Z  " style="fill:rgb(0, 0, 0); fill-opacity:1.000; stroke:none;" />
 <path d="  M 77,67  L 76,67  L 76,68  L 77,68  L 77,89  L 78,89  L 78,90  L 80,90  L 80,89  L 82,89  L 82,88  L 83,88  L 83,87  L 84,87  L 84,70  L 85,70  L 85,69  L 84,69  L 84,66  L 85,66  L 85,65  L 84,65  L 84,62  L 85,62  L 85,61  L 84,61  L 84,58  L 85,58  L 85,57  L 84,57  L 84,54  L 85,54  L 85,53  L 84,53  L 84,50  L 85,50  L 85,49  L 84,49  L 84,46  L 85,46  L 85,45  L 84,45  L 84,35  L 83,35  L 83,24  L 82,24  L 82,15  L 81,15  L 81,5  L 80,5  L 80,2  L 79,2  L 79,0  L 75,0  L 75,1  L 74,1  L 74,14  L 75,14  L 75,22  L 76,22  L 76,32  L 77,32  L 77,33  L 76,33  L 76,34  L 77,34  L 77,35  L 76,35  L 76,36  L 77,36  L 77,39  L 76,39  L 76,40  L 77,40  Z  " style="fill:rgb(0, 0, 0); fill-opacity:1.000; stroke:none;" />
</svg>
