<?xml version="1.0" encoding="UTF-8" standalone="no"?>
<!DOCTYPE svg PUBLIC "-//W3C//DTD SVG 1.1//EN" 
  "http://www.w3.org/Graphics/SVG/1.1/DTD/svg11.dtd">
<svg width="104" height="95"
     xmlns="http://www.w3.org/2000/svg" version="1.1">
 <path d="  M 1,46  L 2,46  L 2,47  L 1,47  L 1,48  L 2,48  L 2,68  L 3,68  L 3,73  L 4,73  L 4,76  L 5,76  L 5,79  L 6,79  L 6,81  L 7,81  L 7,82  L 18,82  L 18,81  L 24,81  L 24,80  L 25,80  L 25,81  L 26,81  L 26,80  L 29,80  L 29,79  L 33,79  L 33,78  L 35,78  L 35,77  L 38,77  L 38,76  L 40,76  L 40,75  L 41,75  L 41,74  L 43,74  L 43,73  L 45,73  L 45,72  L 47,72  L 47,71  L 48,71  L 48,70  L 49,70  L 49,67  L 50,67  L 50,66  L 51,66  L 51,65  L 52,65  L 52,64  L 53,64  L 53,60  L 54,60  L 54,57  L 53,57  L 53,56  L 54,56  L 54,19  L 52,19  L 52,18  L 47,18  L 47,19  L 46,19  L 46,23  L 47,23  L 47,26  L 46,26  L 46,28  L 47,28  L 47,34  L 46,34  L 46,35  L 47,35  L 47,36  L 46,36  L 46,37  L 47,37  L 47,39  L 48,39  L 48,40  L 47,40  L 47,41  L 43,41  L 43,42  L 36,42  L 36,43  L 23,43  L 23,44  L 22,44  L 22,43  L 21,43  L 21,44  L 12,44  L 12,45  L 11,45  L 11,44  L 7,44  L 7,39  L 8,39  L 8,38  L 7,38  L 7,36  L 8,36  L 8,34  L 7,34  L 7,32  L 8,32  L 8,26  L 9,26  L 9,19  L 2,19  L 2,21  L 1,21  Z  M 47,51  L 47,52  L 48,52  L 48,57  L 47,57  L 47,64  L 46,64  L 46,65  L 45,65  L 45,66  L 43,66  L 43,67  L 41,67  L 41,68  L 40,68  L 40,69  L 38,69  L 38,70  L 36,70  L 36,71  L 33,71  L 33,72  L 31,72  L 31,73  L 29,73  L 29,74  L 22,74  L 22,75  L 14,75  L 14,76  L 13,76  L 13,75  L 11,75  L 11,73  L 10,73  L 10,71  L 9,71  L 9,63  L 8,63  L 8,52  L 9,52  L 9,51  L 10,51  L 10,52  L 13,52  L 13,51  L 16,51  L 16,50  L 22,50  L 22,49  L 23,49  L 23,50  L 24,50  L 24,49  L 25,49  L 25,50  L 26,50  L 26,49  L 46,49  L 46,48  L 47,48  L 47,50  L 48,50  L 48,51  Z  " style="fill:rgb(0, 0, 0); fill-opacity:1.000; stroke:none;" />
 <path d="  M 71,90  L 72,90  L 72,91  L 71,91  L 71,92  L 72,92  L 72,94  L 73,94  L 73,95  L 77,95  L 77,94  L 78,94  L 78,92  L 79,92  L 79,91  L 78,91  L 78,90  L 79,90  L 79,89  L 78,89  L 78,86  L 79,86  L 79,85  L 78,85  L 78,82  L 79,82  L 79,81  L 78,81  L 78,78  L 79,78  L 79,77  L 78,77  L 78,74  L 79,74  L 79,73  L 78,73  L 78,72  L 79,72  L 79,71  L 78,71  L 78,70  L 79,70  L 79,69  L 78,69  L 78,68  L 79,68  L 79,67  L 78,67  L 78,66  L 79,66  L 79,65  L 78,65  L 78,64  L 79,64  L 79,63  L 78,63  L 78,62  L 79,62  L 79,61  L 78,61  L 78,60  L 79,60  L 79,59  L 78,59  L 78,58  L 79,58  L 79,55  L 78,55  L 78,54  L 79,54  L 79,48  L 102,48  L 102,47  L 104,47  L 104,42  L 103,42  L 103,41  L 79,41  L 79,40  L 78,40  L 78,36  L 79,36  L 79,33  L 78,33  L 78,32  L 79,32  L 79,31  L 78,31  L 78,30  L 79,30  L 79,29  L 78,29  L 78,28  L 79,28  L 79,25  L 78,25  L 78,24  L 79,24  L 79,23  L 78,23  L 78,22  L 79,22  L 79,21  L 78,21  L 78,20  L 79,20  L 79,17  L 78,17  L 78,16  L 79,16  L 79,15  L 78,15  L 78,14  L 79,14  L 79,13  L 78,13  L 78,12  L 79,12  L 79,2  L 78,2  L 78,1  L 73,1  L 73,2  L 72,2  L 72,3  L 71,3  L 71,31  L 72,31  L 72,33  L 71,33  L 71,38  L 72,38  L 72,39  L 71,39  Z  " style="fill:rgb(0, 0, 0); fill-opacity:1.000; stroke:none;" />
</svg>
