<?xml version="1.0" encoding="UTF-8" standalone="no"?>
<!DOCTYPE svg PUBLIC "-//W3C//DTD SVG 1.1//EN" 
  "http://www.w3.org/Graphics/SVG/1.1/DTD/svg11.dtd">
<svg width="102" height="147"
     xmlns="http://www.w3.org/2000/svg" version="1.1">
 <path d="  M 33,75  L 33,74  L 36,74  L 36,73  L 37,73  L 37,72  L 39,72  L 39,71  L 41,71  L 41,69  L 44,69  L 44,68  L 45,68  L 45,67  L 46,67  L 46,65  L 47,65  L 47,62  L 48,62  L 48,56  L 49,56  L 49,50  L 50,50  L 50,35  L 51,35  L 51,34  L 50,34  L 50,33  L 51,33  L 51,27  L 52,27  L 52,26  L 51,26  L 51,25  L 52,25  L 52,21  L 53,21  L 53,15  L 54,15  L 54,13  L 53,13  L 53,12  L 54,12  L 54,4  L 53,4  L 53,2  L 49,2  L 49,3  L 48,3  L 48,8  L 47,8  L 47,9  L 48,9  L 48,12  L 47,12  L 47,13  L 48,13  L 48,14  L 47,14  L 47,20  L 46,20  L 46,25  L 45,25  L 45,30  L 44,30  L 44,31  L 45,31  L 45,32  L 44,32  L 44,38  L 43,38  L 43,41  L 41,41  L 41,42  L 40,42  L 40,41  L 32,41  L 32,42  L 24,42  L 24,43  L 23,43  L 23,42  L 22,42  L 22,43  L 21,43  L 21,42  L 20,42  L 20,43  L 17,43  L 17,42  L 16,42  L 16,43  L 9,43  L 9,40  L 8,40  L 8,29  L 9,29  L 9,18  L 10,18  L 10,17  L 9,17  L 9,15  L 10,15  L 10,2  L 9,2  L 9,1  L 8,1  L 8,0  L 4,0  L 4,1  L 3,1  L 3,2  L 2,2  L 2,10  L 1,10  L 1,11  L 2,11  L 2,13  L 1,13  L 1,16  L 2,16  L 2,17  L 1,17  L 1,30  L 0,30  L 0,31  L 1,31  L 1,34  L 0,34  L 0,35  L 1,35  L 1,38  L 0,38  L 0,39  L 1,39  L 1,42  L 0,42  L 0,43  L 1,43  L 1,59  L 2,59  L 2,65  L 3,65  L 3,68  L 4,68  L 4,69  L 3,69  L 3,70  L 5,70  L 5,72  L 6,72  L 6,73  L 7,73  L 7,75  L 8,75  L 8,76  L 10,76  L 10,77  L 13,77  L 13,76  L 14,76  L 14,77  L 17,77  L 17,76  L 18,76  L 18,77  L 20,77  L 20,76  L 27,76  L 27,75  Z  M 25,49  L 25,48  L 26,48  L 26,49  L 27,49  L 27,48  L 42,48  L 42,52  L 41,52  L 41,53  L 42,53  L 42,54  L 41,54  L 41,58  L 40,58  L 40,61  L 39,61  L 39,63  L 38,63  L 38,64  L 37,64  L 37,65  L 35,65  L 35,66  L 32,66  L 32,67  L 29,67  L 29,68  L 26,68  L 26,69  L 19,69  L 19,70  L 16,70  L 16,69  L 12,69  L 12,68  L 11,68  L 11,67  L 10,67  L 10,65  L 9,65  L 9,60  L 8,60  L 8,51  L 11,51  L 11,50  L 14,50  L 14,49  Z  " style="fill:rgb(0, 0, 0); fill-opacity:1.000; stroke:none;" />
 <path d="  M 61,147  L 61,146  L 67,146  L 67,145  L 73,145  L 73,144  L 77,144  L 77,143  L 81,143  L 81,142  L 83,142  L 83,141  L 85,141  L 85,140  L 86,140  L 86,134  L 81,134  L 81,135  L 78,135  L 78,136  L 74,136  L 74,137  L 71,137  L 71,138  L 66,138  L 66,139  L 65,139  L 65,138  L 64,138  L 64,139  L 61,139  L 61,140  L 54,140  L 54,141  L 53,141  L 53,140  L 52,140  L 52,141  L 42,141  L 42,140  L 40,140  L 40,139  L 39,139  L 39,136  L 38,136  L 38,127  L 37,127  L 37,126  L 38,126  L 38,125  L 37,125  L 37,120  L 36,120  L 36,109  L 37,109  L 37,107  L 38,107  L 38,106  L 40,106  L 40,105  L 44,105  L 44,104  L 49,104  L 49,103  L 50,103  L 50,104  L 51,104  L 51,103  L 56,103  L 56,102  L 58,102  L 58,103  L 59,103  L 59,102  L 64,102  L 64,101  L 72,101  L 72,100  L 85,100  L 85,99  L 89,99  L 89,98  L 90,98  L 90,96  L 91,96  L 91,95  L 92,95  L 92,94  L 91,94  L 91,92  L 90,92  L 90,91  L 89,91  L 89,92  L 80,92  L 80,93  L 67,93  L 67,94  L 60,94  L 60,95  L 53,95  L 53,96  L 46,96  L 46,97  L 41,97  L 41,98  L 29,98  L 29,99  L 28,99  L 28,100  L 27,100  L 27,101  L 26,101  L 26,105  L 27,105  L 27,107  L 28,107  L 28,109  L 29,109  L 29,118  L 30,118  L 30,121  L 29,121  L 29,122  L 30,122  L 30,128  L 31,128  L 31,130  L 30,130  L 30,131  L 31,131  L 31,138  L 32,138  L 32,143  L 33,143  L 33,144  L 34,144  L 34,146  L 38,146  L 38,147  Z  " style="fill:rgb(0, 0, 0); fill-opacity:1.000; stroke:none;" />
 <path d="  M 69,85  L 70,85  L 70,86  L 71,86  L 71,87  L 72,87  L 72,86  L 75,86  L 75,85  L 76,85  L 76,56  L 75,56  L 75,55  L 76,55  L 76,54  L 75,54  L 75,53  L 76,53  L 76,47  L 77,47  L 77,46  L 79,46  L 79,45  L 85,45  L 85,44  L 86,44  L 86,45  L 87,45  L 87,44  L 88,44  L 88,45  L 89,45  L 89,44  L 101,44  L 101,43  L 102,43  L 102,37  L 100,37  L 100,36  L 90,36  L 90,37  L 89,37  L 89,36  L 86,36  L 86,37  L 85,37  L 85,36  L 84,36  L 84,37  L 83,37  L 83,36  L 80,36  L 80,37  L 78,37  L 78,36  L 76,36  L 76,22  L 75,22  L 75,12  L 74,12  L 74,11  L 75,11  L 75,10  L 74,10  L 74,3  L 73,3  L 73,2  L 69,2  L 69,4  L 68,4  L 68,13  L 69,13  Z  " style="fill:rgb(0, 0, 0); fill-opacity:1.000; stroke:none;" />
</svg>
