<?xml version="1.0" encoding="UTF-8" standalone="no"?>
<!DOCTYPE svg PUBLIC "-//W3C//DTD SVG 1.1//EN" 
  "http://www.w3.org/Graphics/SVG/1.1/DTD/svg11.dtd">
<svg width="104" height="160"
     xmlns="http://www.w3.org/2000/svg" version="1.1">
 <path d="  M 6,75  L 7,75  L 7,76  L 8,76  L 8,77  L 18,77  L 18,76  L 24,76  L 24,75  L 28,75  L 28,74  L 31,74  L 31,73  L 33,73  L 33,72  L 37,72  L 37,71  L 39,71  L 39,70  L 42,70  L 42,69  L 43,69  L 43,68  L 44,68  L 44,66  L 45,66  L 45,61  L 46,61  L 46,50  L 47,50  L 47,49  L 46,49  L 46,48  L 47,48  L 47,38  L 48,38  L 48,34  L 49,34  L 49,28  L 50,28  L 50,24  L 51,24  L 51,5  L 50,5  L 50,4  L 46,4  L 46,6  L 45,6  L 45,12  L 46,12  L 46,13  L 45,13  L 45,16  L 46,16  L 46,17  L 45,17  L 45,24  L 44,24  L 44,28  L 43,28  L 43,32  L 42,32  L 42,37  L 41,37  L 41,40  L 40,40  L 40,42  L 31,42  L 31,43  L 27,43  L 27,44  L 19,44  L 19,45  L 18,45  L 18,44  L 15,44  L 15,45  L 14,45  L 14,44  L 10,44  L 10,42  L 9,42  L 9,40  L 10,40  L 10,39  L 9,39  L 9,36  L 10,36  L 10,35  L 9,35  L 9,34  L 10,34  L 10,6  L 9,6  L 9,4  L 8,4  L 8,3  L 3,3  L 3,4  L 2,4  L 2,5  L 1,5  L 1,50  L 2,50  L 2,51  L 1,51  L 1,52  L 2,52  L 2,64  L 3,64  L 3,66  L 2,66  L 2,67  L 3,67  L 3,70  L 4,70  L 4,73  L 5,73  L 5,74  L 6,74  Z  M 38,61  L 37,61  L 37,63  L 36,63  L 36,64  L 33,64  L 33,65  L 32,65  L 32,66  L 30,66  L 30,67  L 27,67  L 27,68  L 24,68  L 24,69  L 19,69  L 19,70  L 12,70  L 12,69  L 11,69  L 11,68  L 10,68  L 10,66  L 9,66  L 9,64  L 10,64  L 10,63  L 9,63  L 9,53  L 10,53  L 10,52  L 11,52  L 11,51  L 13,51  L 13,52  L 15,52  L 15,51  L 23,51  L 23,50  L 30,50  L 30,49  L 36,49  L 36,48  L 38,48  L 38,49  L 39,49  L 39,56  L 38,56  Z  " style="fill:rgb(0, 0, 0); fill-opacity:1.000; stroke:none;" />
 <path d="  M 21,147  L 22,147  L 22,148  L 21,148  L 21,149  L 22,149  L 22,152  L 23,152  L 23,156  L 24,156  L 24,157  L 25,157  L 25,158  L 26,158  L 26,159  L 30,159  L 30,160  L 56,160  L 56,159  L 59,159  L 59,158  L 62,158  L 62,157  L 64,157  L 64,156  L 68,156  L 68,155  L 71,155  L 71,154  L 74,154  L 74,153  L 78,153  L 78,152  L 82,152  L 82,151  L 83,151  L 83,150  L 85,150  L 85,149  L 86,149  L 86,147  L 87,147  L 87,143  L 86,143  L 86,142  L 83,142  L 83,143  L 81,143  L 81,144  L 79,144  L 79,145  L 77,145  L 77,146  L 75,146  L 75,147  L 71,147  L 71,148  L 68,148  L 68,149  L 66,149  L 66,150  L 62,150  L 62,151  L 59,151  L 59,152  L 55,152  L 55,153  L 46,153  L 46,154  L 44,154  L 44,153  L 43,153  L 43,154  L 40,154  L 40,153  L 39,153  L 39,154  L 36,154  L 36,153  L 35,153  L 35,154  L 34,154  L 34,153  L 31,153  L 31,152  L 29,152  L 29,148  L 28,148  L 28,137  L 29,137  L 29,136  L 30,136  L 30,135  L 31,135  L 31,134  L 34,134  L 34,133  L 37,133  L 37,132  L 40,132  L 40,131  L 43,131  L 43,130  L 44,130  L 44,129  L 48,129  L 48,128  L 51,128  L 51,127  L 52,127  L 52,126  L 54,126  L 54,125  L 57,125  L 57,124  L 58,124  L 58,123  L 60,123  L 60,122  L 62,122  L 62,121  L 64,121  L 64,120  L 66,120  L 66,119  L 68,119  L 68,118  L 70,118  L 70,117  L 72,117  L 72,115  L 73,115  L 73,114  L 74,114  L 74,113  L 75,113  L 75,107  L 74,107  L 74,103  L 73,103  L 73,101  L 72,101  L 72,99  L 71,99  L 71,98  L 70,98  L 70,97  L 68,97  L 68,96  L 67,96  L 67,95  L 65,95  L 65,94  L 64,94  L 64,93  L 61,93  L 61,92  L 58,92  L 58,91  L 54,91  L 54,90  L 43,90  L 43,91  L 36,91  L 36,92  L 31,92  L 31,93  L 29,93  L 29,94  L 27,94  L 27,95  L 26,95  L 26,97  L 25,97  L 25,98  L 26,98  L 26,102  L 28,102  L 28,101  L 29,101  L 29,102  L 30,102  L 30,101  L 33,101  L 33,100  L 36,100  L 36,99  L 39,99  L 39,98  L 56,98  L 56,99  L 58,99  L 58,100  L 60,100  L 60,101  L 62,101  L 62,103  L 63,103  L 63,104  L 64,104  L 64,106  L 65,106  L 65,107  L 66,107  L 66,109  L 65,109  L 65,111  L 63,111  L 63,112  L 62,112  L 62,113  L 61,113  L 61,114  L 59,114  L 59,115  L 57,115  L 57,116  L 55,116  L 55,117  L 53,117  L 53,118  L 51,118  L 51,119  L 50,119  L 50,120  L 48,120  L 48,121  L 45,121  L 45,122  L 44,122  L 44,123  L 41,123  L 41,124  L 39,124  L 39,125  L 35,125  L 35,126  L 32,126  L 32,127  L 30,127  L 30,128  L 29,128  L 29,129  L 27,129  L 27,130  L 25,130  L 25,131  L 24,131  L 24,132  L 23,132  L 23,133  L 22,133  L 22,134  L 21,134  Z  " style="fill:rgb(0, 0, 0); fill-opacity:1.000; stroke:none;" />
 <path d="  M 70,39  L 69,39  L 69,40  L 70,40  L 70,47  L 69,47  L 69,48  L 70,48  L 70,61  L 69,61  L 69,62  L 70,62  L 70,65  L 69,65  L 69,66  L 70,66  L 70,81  L 71,81  L 71,82  L 70,82  L 70,83  L 71,83  L 71,85  L 72,85  L 72,86  L 74,86  L 74,87  L 76,87  L 76,86  L 78,86  L 78,85  L 77,85  L 77,84  L 78,84  L 78,83  L 77,83  L 77,51  L 76,51  L 76,48  L 77,48  L 77,46  L 78,46  L 78,45  L 80,45  L 80,44  L 89,44  L 89,43  L 90,43  L 90,44  L 91,44  L 91,43  L 103,43  L 103,42  L 104,42  L 104,36  L 95,36  L 95,37  L 94,37  L 94,36  L 92,36  L 92,37  L 77,37  L 77,31  L 76,31  L 76,30  L 77,30  L 77,29  L 76,29  L 76,28  L 77,28  L 77,25  L 76,25  L 76,24  L 77,24  L 77,23  L 76,23  L 76,20  L 77,20  L 77,19  L 76,19  L 76,2  L 75,2  L 75,1  L 73,1  L 73,0  L 70,0  L 70,2  L 69,2  L 69,20  L 70,20  L 70,21  L 69,21  L 69,22  L 70,22  L 70,23  L 69,23  L 69,24  L 70,24  Z  " style="fill:rgb(0, 0, 0); fill-opacity:1.000; stroke:none;" />
</svg>
