<?xml version="1.0" encoding="UTF-8" standalone="no"?>
<!DOCTYPE svg PUBLIC "-//W3C//DTD SVG 1.1//EN" 
  "http://www.w3.org/Graphics/SVG/1.1/DTD/svg11.dtd">
<svg width="101" height="142"
     xmlns="http://www.w3.org/2000/svg" version="1.1">
 <path d="  M 11,61  L 11,57  L 10,57  L 10,56  L 11,56  L 11,55  L 10,55  L 10,45  L 19,45  L 19,44  L 20,44  L 20,45  L 23,45  L 23,44  L 41,44  L 41,53  L 40,53  L 40,60  L 37,60  L 37,61  L 32,61  L 32,62  L 25,62  L 25,63  L 17,63  L 17,64  L 12,64  L 12,61  Z  M 45,64  L 45,63  L 46,63  L 46,62  L 47,62  L 47,61  L 48,61  L 48,51  L 49,51  L 49,46  L 50,46  L 50,45  L 55,45  L 55,44  L 56,44  L 56,45  L 57,45  L 57,44  L 67,44  L 67,79  L 66,79  L 66,80  L 67,80  L 67,81  L 72,81  L 72,80  L 73,80  L 73,77  L 74,77  L 74,52  L 75,52  L 75,6  L 73,6  L 73,5  L 69,5  L 69,6  L 68,6  L 68,35  L 67,35  L 67,36  L 62,36  L 62,37  L 54,37  L 54,38  L 51,38  L 51,39  L 50,39  L 50,37  L 49,37  L 49,12  L 50,12  L 50,10  L 49,10  L 49,7  L 48,7  L 48,6  L 45,6  L 45,7  L 43,7  L 43,10  L 42,10  L 42,37  L 41,37  L 41,38  L 32,38  L 32,39  L 30,39  L 30,38  L 29,38  L 29,39  L 14,39  L 14,40  L 10,40  L 10,39  L 9,39  L 9,20  L 10,20  L 10,19  L 9,19  L 9,18  L 10,18  L 10,15  L 9,15  L 9,14  L 10,14  L 10,1  L 8,1  L 8,0  L 4,0  L 4,2  L 2,2  L 2,9  L 1,9  L 1,36  L 2,36  L 2,52  L 3,52  L 3,60  L 4,60  L 4,65  L 5,65  L 5,67  L 6,67  L 6,68  L 7,68  L 7,69  L 8,69  L 8,70  L 9,70  L 9,71  L 11,71  L 11,72  L 17,72  L 17,71  L 23,71  L 23,70  L 28,70  L 28,69  L 32,69  L 32,68  L 37,68  L 37,67  L 40,67  L 40,66  L 42,66  L 42,65  L 44,65  L 44,64  Z  " style="fill:rgb(0, 0, 0); fill-opacity:1.000; stroke:none;" />
 <path d="  M 35,117  L 35,94  L 34,94  L 34,93  L 30,93  L 30,94  L 28,94  L 28,98  L 27,98  L 27,102  L 28,102  L 28,112  L 29,112  L 29,124  L 30,124  L 30,134  L 31,134  L 31,137  L 32,137  L 32,138  L 33,138  L 33,140  L 35,140  L 35,141  L 36,141  L 36,142  L 65,142  L 65,141  L 66,141  L 66,142  L 67,142  L 67,141  L 68,141  L 68,142  L 69,142  L 69,141  L 79,141  L 79,140  L 80,140  L 80,141  L 81,141  L 81,140  L 82,140  L 82,141  L 83,141  L 83,140  L 84,140  L 84,141  L 85,141  L 85,140  L 98,140  L 98,139  L 99,139  L 99,138  L 101,138  L 101,131  L 97,131  L 97,132  L 95,132  L 95,131  L 94,131  L 94,132  L 90,132  L 90,133  L 72,133  L 72,134  L 71,134  L 71,133  L 68,133  L 68,134  L 67,134  L 67,133  L 65,133  L 65,134  L 51,134  L 51,135  L 40,135  L 40,134  L 38,134  L 38,133  L 37,133  L 37,129  L 36,129  L 36,128  L 37,128  L 37,127  L 36,127  L 36,117  Z  " style="fill:rgb(0, 0, 0); fill-opacity:1.000; stroke:none;" />
 <path d="  M 86,43  L 86,45  L 85,45  L 85,47  L 86,47  L 86,50  L 85,50  L 85,51  L 86,51  L 86,54  L 85,54  L 85,55  L 86,55  L 86,58  L 85,58  L 85,59  L 86,59  L 86,62  L 85,62  L 85,63  L 86,63  L 86,86  L 89,86  L 89,85  L 92,85  L 92,84  L 93,84  L 93,23  L 92,23  L 92,22  L 93,22  L 93,19  L 92,19  L 92,16  L 93,16  L 93,15  L 92,15  L 92,10  L 91,10  L 91,9  L 90,9  L 90,7  L 86,7  L 86,9  L 85,9  L 85,12  L 86,12  L 86,13  L 85,13  L 85,15  L 86,15  L 86,17  L 85,17  L 85,18  L 86,18  L 86,21  L 85,21  L 85,23  L 86,23  L 86,30  L 85,30  L 85,31  L 86,31  L 86,34  L 85,34  L 85,35  L 86,35  L 86,38  L 85,38  L 85,39  L 86,39  L 86,42  L 85,42  L 85,43  Z  " style="fill:rgb(0, 0, 0); fill-opacity:1.000; stroke:none;" />
</svg>
