<?xml version="1.0" encoding="UTF-8" standalone="no"?>
<!DOCTYPE svg PUBLIC "-//W3C//DTD SVG 1.1//EN" 
  "http://www.w3.org/Graphics/SVG/1.1/DTD/svg11.dtd">
<svg width="105" height="177"
     xmlns="http://www.w3.org/2000/svg" version="1.1">
 <path d="  M 24,5  L 23,5  L 23,6  L 24,6  L 24,29  L 23,29  L 23,30  L 24,30  L 24,31  L 23,31  L 23,39  L 22,39  L 22,49  L 23,49  L 23,58  L 24,58  L 24,62  L 25,62  L 25,63  L 24,63  L 24,64  L 25,64  L 25,69  L 26,69  L 26,70  L 27,70  L 27,71  L 28,71  L 28,72  L 31,72  L 31,73  L 44,73  L 44,72  L 47,72  L 47,74  L 48,74  L 48,108  L 47,108  L 47,109  L 44,109  L 44,108  L 43,108  L 43,109  L 34,109  L 34,110  L 33,110  L 33,109  L 32,109  L 32,110  L 29,110  L 29,109  L 28,109  L 28,110  L 25,110  L 25,109  L 24,109  L 24,110  L 21,110  L 21,109  L 20,109  L 20,110  L 13,110  L 13,109  L 12,109  L 12,110  L 6,110  L 6,111  L 3,111  L 3,112  L 1,112  L 1,114  L 0,114  L 0,117  L 2,117  L 2,118  L 40,118  L 40,117  L 43,117  L 43,118  L 44,118  L 44,117  L 49,117  L 49,116  L 57,116  L 57,115  L 65,115  L 65,114  L 82,114  L 82,113  L 83,113  L 83,114  L 84,114  L 84,113  L 87,113  L 87,114  L 88,114  L 88,113  L 91,113  L 91,114  L 92,114  L 92,113  L 103,113  L 103,112  L 104,112  L 104,111  L 105,111  L 105,107  L 104,107  L 104,105  L 92,105  L 92,106  L 91,106  L 91,105  L 90,105  L 90,106  L 89,106  L 89,105  L 88,105  L 88,106  L 85,106  L 85,105  L 84,105  L 84,106  L 81,106  L 81,105  L 80,105  L 80,106  L 78,106  L 78,107  L 77,107  L 77,106  L 76,106  L 76,107  L 56,107  L 56,106  L 55,106  L 55,102  L 56,102  L 56,101  L 55,101  L 55,100  L 56,100  L 56,99  L 55,99  L 55,98  L 56,98  L 56,97  L 55,97  L 55,96  L 56,96  L 56,95  L 55,95  L 55,94  L 56,94  L 56,93  L 55,93  L 55,92  L 56,92  L 56,91  L 55,91  L 55,90  L 56,90  L 56,89  L 55,89  L 55,88  L 56,88  L 56,87  L 55,87  L 55,86  L 56,86  L 56,85  L 55,85  L 55,84  L 56,84  L 56,83  L 55,83  L 55,82  L 56,82  L 56,81  L 55,81  L 55,78  L 56,78  L 56,77  L 55,77  L 55,76  L 56,76  L 56,75  L 55,75  L 55,74  L 56,74  L 56,68  L 58,68  L 58,67  L 61,67  L 61,66  L 63,66  L 63,65  L 64,65  L 64,64  L 66,64  L 66,63  L 68,63  L 68,62  L 69,62  L 69,61  L 70,61  L 70,60  L 71,60  L 71,58  L 73,58  L 73,57  L 74,57  L 74,56  L 75,56  L 75,55  L 76,55  L 76,54  L 77,54  L 77,53  L 78,53  L 78,52  L 79,52  L 79,49  L 80,49  L 80,44  L 81,44  L 81,40  L 82,40  L 82,23  L 81,23  L 81,7  L 80,7  L 80,6  L 79,6  L 79,5  L 74,5  L 74,7  L 73,7  L 73,8  L 74,8  L 74,23  L 75,23  L 75,24  L 74,24  L 74,25  L 75,25  L 75,30  L 72,30  L 72,31  L 60,31  L 60,32  L 53,32  L 53,33  L 44,33  L 44,34  L 31,34  L 31,3  L 30,3  L 30,2  L 29,2  L 29,1  L 24,1  Z  M 60,58  L 60,59  L 58,59  L 58,60  L 57,60  L 57,61  L 55,61  L 55,62  L 53,62  L 53,63  L 49,63  L 49,64  L 47,64  L 47,65  L 43,65  L 43,66  L 42,66  L 42,65  L 40,65  L 40,66  L 34,66  L 34,65  L 32,65  L 32,64  L 31,64  L 31,62  L 30,62  L 30,43  L 32,43  L 32,42  L 41,42  L 41,41  L 49,41  L 49,40  L 50,40  L 50,41  L 51,41  L 51,40  L 56,40  L 56,39  L 60,39  L 60,38  L 61,38  L 61,39  L 62,39  L 62,38  L 72,38  L 72,37  L 73,37  L 73,38  L 74,38  L 74,41  L 73,41  L 73,43  L 72,43  L 72,48  L 71,48  L 71,50  L 70,50  L 70,51  L 69,51  L 69,53  L 68,53  L 68,54  L 67,54  L 67,55  L 66,55  L 66,56  L 64,56  L 64,57  L 62,57  L 62,58  Z  " style="fill:rgb(0, 0, 0); fill-opacity:1.000; stroke:none;" />
 <path d="  M 21,169  L 22,169  L 22,174  L 23,174  L 23,176  L 24,176  L 24,177  L 41,177  L 41,176  L 42,176  L 42,177  L 43,177  L 43,176  L 49,176  L 49,175  L 56,175  L 56,174  L 65,174  L 65,173  L 67,173  L 67,174  L 68,174  L 68,173  L 73,173  L 73,172  L 77,172  L 77,171  L 78,171  L 78,172  L 79,172  L 79,171  L 87,171  L 87,170  L 93,170  L 93,169  L 96,169  L 96,168  L 100,168  L 100,167  L 103,167  L 103,166  L 105,166  L 105,162  L 104,162  L 104,161  L 102,161  L 102,160  L 95,160  L 95,161  L 91,161  L 91,162  L 85,162  L 85,163  L 79,163  L 79,164  L 71,164  L 71,165  L 67,165  L 67,166  L 65,166  L 65,165  L 64,165  L 64,166  L 57,166  L 57,167  L 46,167  L 46,168  L 45,168  L 45,167  L 43,167  L 43,168  L 41,168  L 41,167  L 40,167  L 40,168  L 39,168  L 39,169  L 38,169  L 38,168  L 37,168  L 37,169  L 36,169  L 36,168  L 35,168  L 35,169  L 29,169  L 29,168  L 28,168  L 28,157  L 29,157  L 29,155  L 28,155  L 28,152  L 29,152  L 29,151  L 28,151  L 28,148  L 29,148  L 29,147  L 28,147  L 28,132  L 29,132  L 29,130  L 28,130  L 28,129  L 27,129  L 27,128  L 25,128  L 25,129  L 23,129  L 23,130  L 22,130  L 22,131  L 21,131  Z  " style="fill:rgb(0, 0, 0); fill-opacity:1.000; stroke:none;" />
</svg>
