<?xml version="1.0" encoding="UTF-8" standalone="no"?>
<!DOCTYPE svg PUBLIC "-//W3C//DTD SVG 1.1//EN" 
  "http://www.w3.org/Graphics/SVG/1.1/DTD/svg11.dtd">
<svg width="104" height="187"
     xmlns="http://www.w3.org/2000/svg" version="1.1">
 <path d="  M 40,122  L 34,122  L 34,123  L 33,123  L 33,122  L 32,122  L 32,123  L 28,123  L 28,124  L 26,124  L 26,125  L 25,125  L 25,127  L 24,127  L 24,131  L 23,131  L 23,133  L 22,133  L 22,137  L 21,137  L 21,151  L 22,151  L 22,152  L 21,152  L 21,154  L 22,154  L 22,156  L 21,156  L 21,158  L 22,158  L 22,160  L 21,160  L 21,162  L 22,162  L 22,175  L 23,175  L 23,179  L 24,179  L 24,181  L 25,181  L 25,183  L 26,183  L 26,184  L 27,184  L 27,185  L 28,185  L 28,186  L 32,186  L 32,187  L 59,187  L 59,186  L 62,186  L 62,187  L 63,187  L 63,186  L 69,186  L 69,185  L 72,185  L 72,184  L 75,184  L 75,183  L 79,183  L 79,182  L 84,182  L 84,181  L 88,181  L 88,180  L 90,180  L 90,179  L 93,179  L 93,178  L 95,178  L 95,177  L 98,177  L 98,176  L 101,176  L 101,175  L 103,175  L 103,174  L 104,174  L 104,170  L 102,170  L 102,169  L 94,169  L 94,170  L 93,170  L 93,171  L 90,171  L 90,172  L 89,172  L 89,173  L 86,173  L 86,174  L 85,174  L 85,173  L 84,173  L 84,174  L 82,174  L 82,175  L 80,175  L 80,176  L 77,176  L 77,177  L 74,177  L 74,178  L 72,178  L 72,177  L 71,177  L 71,178  L 69,178  L 69,179  L 60,179  L 60,180  L 57,180  L 57,179  L 56,179  L 56,180  L 55,180  L 55,181  L 40,181  L 40,180  L 39,180  L 39,181  L 38,181  L 38,180  L 37,180  L 37,179  L 32,179  L 32,178  L 30,178  L 30,176  L 29,176  L 29,157  L 30,157  L 30,155  L 31,155  L 31,154  L 34,154  L 34,155  L 38,155  L 38,156  L 41,156  L 41,157  L 44,157  L 44,156  L 45,156  L 45,157  L 72,157  L 72,156  L 77,156  L 77,155  L 85,155  L 85,154  L 87,154  L 87,153  L 90,153  L 90,151  L 91,151  L 91,150  L 92,150  L 92,151  L 93,151  L 93,150  L 95,150  L 95,149  L 94,149  L 94,148  L 92,148  L 92,147  L 91,147  L 91,146  L 90,146  L 90,145  L 85,145  L 85,146  L 82,146  L 82,147  L 76,147  L 76,148  L 67,148  L 67,149  L 50,149  L 50,150  L 40,150  L 40,149  L 36,149  L 36,148  L 32,148  L 32,147  L 29,147  L 29,146  L 28,146  L 28,145  L 26,145  L 26,144  L 25,144  L 25,138  L 26,138  L 26,135  L 27,135  L 27,134  L 28,134  L 28,132  L 30,132  L 30,131  L 35,131  L 35,130  L 37,130  L 37,131  L 38,131  L 38,130  L 53,130  L 53,131  L 55,131  L 55,130  L 56,130  L 56,131  L 59,131  L 59,130  L 60,130  L 60,131  L 63,131  L 63,130  L 66,130  L 66,129  L 69,129  L 69,130  L 70,130  L 70,129  L 83,129  L 83,128  L 84,128  L 84,129  L 88,129  L 88,130  L 90,130  L 90,128  L 89,128  L 89,126  L 88,126  L 88,125  L 87,125  L 87,124  L 86,124  L 86,123  L 85,123  L 85,122  L 84,122  L 84,121  L 81,121  L 81,120  L 61,120  L 61,119  L 60,119  L 60,107  L 61,107  L 61,94  L 62,94  L 62,93  L 61,93  L 61,90  L 62,90  L 62,87  L 61,87  L 61,86  L 62,86  L 62,85  L 61,85  L 61,82  L 62,82  L 62,81  L 63,81  L 63,80  L 64,80  L 64,81  L 73,81  L 73,80  L 85,80  L 85,79  L 92,79  L 92,78  L 93,78  L 93,79  L 95,79  L 95,78  L 100,78  L 100,77  L 102,77  L 102,76  L 103,76  L 103,75  L 104,75  L 104,70  L 102,70  L 102,69  L 99,69  L 99,70  L 98,70  L 98,69  L 97,69  L 97,70  L 94,70  L 94,71  L 81,71  L 81,72  L 78,72  L 78,71  L 77,71  L 77,72  L 73,72  L 73,73  L 67,73  L 67,74  L 52,74  L 52,75  L 49,75  L 49,74  L 48,74  L 48,75  L 39,75  L 39,76  L 38,76  L 38,75  L 37,75  L 37,76  L 16,76  L 16,77  L 10,77  L 10,78  L 2,78  L 2,79  L 1,79  L 1,80  L 0,80  L 0,84  L 1,84  L 1,85  L 2,85  L 2,86  L 3,86  L 3,88  L 4,88  L 4,87  L 10,87  L 10,86  L 13,86  L 13,85  L 17,85  L 17,84  L 18,84  L 18,85  L 19,85  L 19,84  L 23,84  L 23,83  L 24,83  L 24,84  L 26,84  L 26,83  L 42,83  L 42,82  L 45,82  L 45,83  L 46,83  L 46,82  L 53,82  L 53,83  L 54,83  L 54,92  L 53,92  L 53,93  L 54,93  L 54,96  L 53,96  L 53,119  L 54,119  L 54,120  L 53,120  L 53,121  L 51,121  L 51,122  L 49,122  L 49,121  L 47,121  L 47,122  L 45,122  L 45,121  L 44,121  L 44,122  L 41,122  L 41,121  L 40,121  Z  " style="fill:rgb(0, 0, 0); fill-opacity:1.000; stroke:none;" />
 <path d="  M 25,21  L 26,21  L 26,23  L 25,23  L 25,26  L 26,26  L 26,27  L 25,27  L 25,30  L 26,30  L 26,31  L 25,31  L 25,34  L 26,34  L 26,36  L 25,36  L 25,37  L 26,37  L 26,40  L 25,40  L 25,43  L 26,43  L 26,50  L 27,50  L 27,54  L 28,54  L 28,56  L 29,56  L 29,57  L 30,57  L 30,58  L 32,58  L 32,59  L 47,59  L 47,58  L 53,58  L 53,57  L 54,57  L 54,58  L 55,58  L 55,57  L 64,57  L 64,56  L 71,56  L 71,55  L 76,55  L 76,54  L 81,54  L 81,53  L 82,53  L 82,52  L 83,52  L 83,51  L 84,51  L 84,50  L 86,50  L 86,48  L 87,48  L 87,46  L 88,46  L 88,41  L 89,41  L 89,35  L 90,35  L 90,30  L 91,30  L 91,29  L 90,29  L 90,27  L 91,27  L 91,25  L 90,25  L 90,24  L 91,24  L 91,14  L 92,14  L 92,13  L 91,13  L 91,12  L 92,12  L 92,11  L 91,11  L 91,5  L 90,5  L 90,3  L 89,3  L 89,2  L 87,2  L 87,1  L 86,1  L 86,2  L 84,2  L 84,4  L 83,4  L 83,5  L 82,5  L 82,6  L 83,6  L 83,12  L 84,12  L 84,13  L 83,13  L 83,26  L 82,26  L 82,27  L 81,27  L 81,26  L 76,26  L 76,25  L 66,25  L 66,24  L 58,24  L 58,23  L 56,23  L 56,24  L 54,24  L 54,23  L 53,23  L 53,24  L 37,24  L 37,25  L 34,25  L 34,24  L 33,24  L 33,3  L 32,3  L 32,1  L 29,1  L 29,0  L 28,0  L 28,1  L 26,1  L 26,4  L 25,4  Z  M 65,48  L 65,49  L 59,49  L 59,50  L 47,50  L 47,51  L 45,51  L 45,50  L 43,50  L 43,51  L 37,51  L 37,50  L 36,50  L 36,49  L 35,49  L 35,34  L 37,34  L 37,33  L 42,33  L 42,32  L 51,32  L 51,31  L 52,31  L 52,32  L 53,32  L 53,31  L 54,31  L 54,32  L 55,32  L 55,31  L 56,31  L 56,32  L 57,32  L 57,31  L 58,31  L 58,32  L 59,32  L 59,31  L 60,31  L 60,32  L 61,32  L 61,31  L 64,31  L 64,32  L 70,32  L 70,33  L 77,33  L 77,34  L 79,34  L 79,33  L 80,33  L 80,34  L 81,34  L 81,33  L 83,33  L 83,37  L 82,37  L 82,39  L 81,39  L 81,42  L 80,42  L 80,44  L 79,44  L 79,46  L 76,46  L 76,47  L 69,47  L 69,48  Z  " style="fill:rgb(0, 0, 0); fill-opacity:1.000; stroke:none;" />
</svg>
