<?xml version="1.0" encoding="UTF-8" standalone="no"?>
<!DOCTYPE svg PUBLIC "-//W3C//DTD SVG 1.1//EN" 
  "http://www.w3.org/Graphics/SVG/1.1/DTD/svg11.dtd">
<svg width="111" height="151"
     xmlns="http://www.w3.org/2000/svg" version="1.1">
 <path d="  M 7,49  L 6,49  L 6,50  L 5,50  L 5,52  L 4,52  L 4,53  L 3,53  L 3,54  L 2,54  L 2,56  L 1,56  L 1,58  L 0,58  L 0,59  L 1,59  L 1,61  L 2,61  L 2,62  L 3,62  L 3,63  L 5,63  L 5,62  L 6,62  L 6,61  L 7,61  L 7,60  L 9,60  L 9,59  L 10,59  L 10,57  L 11,57  L 11,55  L 12,55  L 12,54  L 13,54  L 13,53  L 14,53  L 14,51  L 15,51  L 15,50  L 16,50  L 16,48  L 17,48  L 17,47  L 18,47  L 18,45  L 19,45  L 19,43  L 20,43  L 20,42  L 23,42  L 23,43  L 24,43  L 24,44  L 25,44  L 25,45  L 26,45  L 26,46  L 28,46  L 28,47  L 29,47  L 29,48  L 30,48  L 30,50  L 31,50  L 31,51  L 33,51  L 33,52  L 34,52  L 34,53  L 35,53  L 35,55  L 36,55  L 36,56  L 38,56  L 38,57  L 39,57  L 39,58  L 40,58  L 40,59  L 41,59  L 41,60  L 42,60  L 42,61  L 44,61  L 44,62  L 45,62  L 45,63  L 46,63  L 46,64  L 48,64  L 48,65  L 49,65  L 49,66  L 50,66  L 50,67  L 56,67  L 56,66  L 57,66  L 57,64  L 56,64  L 56,62  L 55,62  L 55,61  L 53,61  L 53,60  L 52,60  L 52,59  L 51,59  L 51,58  L 49,58  L 49,57  L 48,57  L 48,56  L 46,56  L 46,54  L 45,54  L 45,53  L 43,53  L 43,52  L 42,52  L 42,51  L 41,51  L 41,50  L 40,50  L 40,49  L 39,49  L 39,48  L 38,48  L 38,47  L 37,47  L 37,46  L 36,46  L 36,45  L 35,45  L 35,44  L 34,44  L 34,43  L 33,43  L 33,42  L 32,42  L 32,40  L 31,40  L 31,39  L 30,39  L 30,37  L 29,37  L 29,36  L 28,36  L 28,30  L 29,30  L 29,29  L 30,29  L 30,27  L 31,27  L 31,26  L 32,26  L 32,24  L 33,24  L 33,23  L 34,23  L 34,22  L 35,22  L 35,21  L 36,21  L 36,20  L 37,20  L 37,19  L 38,19  L 38,18  L 39,18  L 39,16  L 40,16  L 40,14  L 41,14  L 41,11  L 42,11  L 42,10  L 40,10  L 40,9  L 37,9  L 37,10  L 36,10  L 36,11  L 35,11  L 35,12  L 33,12  L 33,13  L 32,13  L 32,14  L 31,14  L 31,16  L 30,16  L 30,17  L 29,17  L 29,19  L 28,19  L 28,20  L 27,20  L 27,21  L 26,21  L 26,22  L 25,22  L 25,23  L 24,23  L 24,24  L 23,24  L 23,25  L 22,25  L 22,26  L 21,26  L 21,28  L 20,28  L 20,29  L 19,29  L 19,31  L 18,31  L 18,32  L 17,32  L 17,33  L 16,33  L 16,34  L 15,34  L 15,36  L 14,36  L 14,38  L 13,38  L 13,40  L 12,40  L 12,41  L 11,41  L 11,42  L 10,42  L 10,44  L 9,44  L 9,46  L 8,46  L 8,47  L 7,47  Z  " style="fill:rgb(0, 0, 0); fill-opacity:1.000; stroke:none;" />
 <path d="  M 29,142  L 30,142  L 30,144  L 31,144  L 31,145  L 30,145  L 30,147  L 31,147  L 31,148  L 34,148  L 34,149  L 33,149  L 33,150  L 35,150  L 35,151  L 37,151  L 37,150  L 38,150  L 38,151  L 63,151  L 63,150  L 65,150  L 65,149  L 69,149  L 69,148  L 72,148  L 72,147  L 75,147  L 75,146  L 77,146  L 77,145  L 79,145  L 79,144  L 82,144  L 82,143  L 85,143  L 85,142  L 88,142  L 88,141  L 90,141  L 90,140  L 91,140  L 91,139  L 92,139  L 92,138  L 93,138  L 93,137  L 94,137  L 94,136  L 93,136  L 93,134  L 92,134  L 92,133  L 89,133  L 89,134  L 86,134  L 86,135  L 84,135  L 84,136  L 80,136  L 80,137  L 78,137  L 78,138  L 76,138  L 76,139  L 74,139  L 74,140  L 72,140  L 72,141  L 69,141  L 69,142  L 66,142  L 66,143  L 63,143  L 63,144  L 60,144  L 60,145  L 45,145  L 45,144  L 44,144  L 44,145  L 42,145  L 42,144  L 38,144  L 38,142  L 37,142  L 37,138  L 36,138  L 36,136  L 37,136  L 37,133  L 38,133  L 38,132  L 39,132  L 39,131  L 41,131  L 41,130  L 43,130  L 43,129  L 45,129  L 45,128  L 47,128  L 47,127  L 51,127  L 51,126  L 55,126  L 55,125  L 57,125  L 57,124  L 59,124  L 59,123  L 61,123  L 61,122  L 63,122  L 63,121  L 65,121  L 65,120  L 68,120  L 68,119  L 69,119  L 69,118  L 73,118  L 73,117  L 75,117  L 75,116  L 76,116  L 76,115  L 79,115  L 79,114  L 81,114  L 81,113  L 82,113  L 82,110  L 83,110  L 83,107  L 82,107  L 82,105  L 81,105  L 81,104  L 80,104  L 80,103  L 79,103  L 79,100  L 78,100  L 78,99  L 76,99  L 76,96  L 75,96  L 75,95  L 74,95  L 74,94  L 72,94  L 72,93  L 71,93  L 71,92  L 69,92  L 69,91  L 67,91  L 67,90  L 65,90  L 65,89  L 62,89  L 62,88  L 58,88  L 58,87  L 47,87  L 47,88  L 39,88  L 39,89  L 36,89  L 36,90  L 34,90  L 34,95  L 35,95  L 35,96  L 41,96  L 41,95  L 61,95  L 61,96  L 64,96  L 64,97  L 66,97  L 66,98  L 67,98  L 67,99  L 69,99  L 69,100  L 70,100  L 70,103  L 72,103  L 72,105  L 73,105  L 73,110  L 69,110  L 69,111  L 68,111  L 68,112  L 65,112  L 65,113  L 62,113  L 62,114  L 60,114  L 60,115  L 59,115  L 59,116  L 55,116  L 55,117  L 53,117  L 53,118  L 50,118  L 50,119  L 48,119  L 48,120  L 47,120  L 47,121  L 45,121  L 45,122  L 43,122  L 43,123  L 40,123  L 40,124  L 38,124  L 38,125  L 35,125  L 35,126  L 34,126  L 34,127  L 32,127  L 32,128  L 31,128  L 31,129  L 30,129  L 30,131  L 29,131  L 29,134  L 28,134  L 28,135  L 29,135  L 29,136  L 28,136  L 28,137  L 29,137  Z  " style="fill:rgb(0, 0, 0); fill-opacity:1.000; stroke:none;" />
 <path d="  M 78,71  L 79,71  L 79,78  L 80,78  L 80,81  L 81,81  L 81,82  L 82,82  L 82,83  L 83,83  L 83,84  L 85,84  L 85,83  L 86,83  L 86,74  L 85,74  L 85,71  L 86,71  L 86,70  L 85,70  L 85,59  L 84,59  L 84,45  L 83,45  L 83,44  L 84,44  L 84,43  L 83,43  L 83,42  L 84,42  L 84,41  L 85,41  L 85,40  L 89,40  L 89,39  L 91,39  L 91,38  L 92,38  L 92,39  L 93,39  L 93,38  L 103,38  L 103,37  L 110,37  L 110,36  L 111,36  L 111,30  L 102,30  L 102,31  L 101,31  L 101,30  L 99,30  L 99,31  L 92,31  L 92,32  L 88,32  L 88,33  L 84,33  L 84,32  L 83,32  L 83,31  L 84,31  L 84,29  L 83,29  L 83,5  L 84,5  L 84,4  L 83,4  L 83,2  L 82,2  L 82,1  L 81,1  L 81,0  L 77,0  L 77,1  L 76,1  L 76,31  L 77,31  L 77,32  L 76,32  L 76,37  L 77,37  L 77,53  L 78,53  Z  " style="fill:rgb(0, 0, 0); fill-opacity:1.000; stroke:none;" />
</svg>
