<?xml version="1.0" encoding="UTF-8" standalone="no"?>
<!DOCTYPE svg PUBLIC "-//W3C//DTD SVG 1.1//EN" 
  "http://www.w3.org/Graphics/SVG/1.1/DTD/svg11.dtd">
<svg width="107" height="140"
     xmlns="http://www.w3.org/2000/svg" version="1.1">
 <path d="  M 21,44  L 25,44  L 25,45  L 26,45  L 26,47  L 27,47  L 27,48  L 28,48  L 28,49  L 29,49  L 29,50  L 30,50  L 30,51  L 31,51  L 31,52  L 33,52  L 33,53  L 34,53  L 34,54  L 35,54  L 35,55  L 36,55  L 36,56  L 39,56  L 39,57  L 40,57  L 40,59  L 42,59  L 42,60  L 43,60  L 43,61  L 44,61  L 44,63  L 46,63  L 46,64  L 47,64  L 47,65  L 49,65  L 49,66  L 50,66  L 50,67  L 51,67  L 51,68  L 52,68  L 52,69  L 56,69  L 56,68  L 57,68  L 57,67  L 58,67  L 58,65  L 57,65  L 57,64  L 56,64  L 56,62  L 54,62  L 54,60  L 53,60  L 53,59  L 51,59  L 51,58  L 50,58  L 50,57  L 49,57  L 49,56  L 47,56  L 47,55  L 46,55  L 46,54  L 45,54  L 45,53  L 43,53  L 43,52  L 42,52  L 42,51  L 41,51  L 41,50  L 39,50  L 39,49  L 38,49  L 38,48  L 37,48  L 37,47  L 35,47  L 35,46  L 34,46  L 34,45  L 33,45  L 33,44  L 32,44  L 32,43  L 31,43  L 31,42  L 30,42  L 30,41  L 29,41  L 29,40  L 28,40  L 28,35  L 29,35  L 29,34  L 30,34  L 30,33  L 31,33  L 31,30  L 32,30  L 32,28  L 33,28  L 33,27  L 34,27  L 34,26  L 35,26  L 35,25  L 36,25  L 36,23  L 37,23  L 37,22  L 38,22  L 38,20  L 39,20  L 39,19  L 40,19  L 40,18  L 41,18  L 41,17  L 42,17  L 42,16  L 43,16  L 43,14  L 44,14  L 44,13  L 45,13  L 45,10  L 46,10  L 46,7  L 45,7  L 45,5  L 44,5  L 44,4  L 41,4  L 41,5  L 40,5  L 40,7  L 39,7  L 39,8  L 38,8  L 38,11  L 37,11  L 37,12  L 36,12  L 36,15  L 35,15  L 35,17  L 34,17  L 34,18  L 32,18  L 32,20  L 31,20  L 31,21  L 30,21  L 30,22  L 29,22  L 29,23  L 28,23  L 28,24  L 27,24  L 27,26  L 26,26  L 26,27  L 25,27  L 25,28  L 24,28  L 24,30  L 23,30  L 23,31  L 22,31  L 22,32  L 21,32  L 21,33  L 20,33  L 20,35  L 19,35  L 19,37  L 18,37  L 18,38  L 16,38  L 16,40  L 15,40  L 15,41  L 14,41  L 14,42  L 13,42  L 13,43  L 12,43  L 12,44  L 11,44  L 11,45  L 10,45  L 10,46  L 9,46  L 9,47  L 8,47  L 8,48  L 7,48  L 7,49  L 6,49  L 6,51  L 5,51  L 5,52  L 4,52  L 4,53  L 3,53  L 3,54  L 2,54  L 2,55  L 1,55  L 1,57  L 0,57  L 0,61  L 2,61  L 2,63  L 6,63  L 6,62  L 7,62  L 7,61  L 8,61  L 8,59  L 9,59  L 9,58  L 10,58  L 10,56  L 11,56  L 11,55  L 12,55  L 12,54  L 13,54  L 13,53  L 14,53  L 14,52  L 15,52  L 15,50  L 17,50  L 17,49  L 18,49  L 18,47  L 19,47  L 19,45  L 21,45  Z  " style="fill:rgb(0, 0, 0); fill-opacity:1.000; stroke:none;" />
 <path d="  M 65,138  L 65,137  L 68,137  L 68,136  L 71,136  L 71,135  L 73,135  L 73,134  L 75,134  L 75,133  L 76,133  L 76,132  L 78,132  L 78,131  L 79,131  L 79,130  L 81,130  L 81,128  L 82,128  L 82,127  L 83,127  L 83,126  L 84,126  L 84,125  L 85,125  L 85,123  L 86,123  L 86,121  L 87,121  L 87,118  L 88,118  L 88,109  L 89,109  L 89,108  L 88,108  L 88,100  L 87,100  L 87,98  L 86,98  L 86,97  L 84,97  L 84,96  L 82,96  L 82,95  L 79,95  L 79,94  L 73,94  L 73,93  L 62,93  L 62,92  L 55,92  L 55,91  L 51,91  L 51,90  L 46,90  L 46,91  L 45,91  L 45,92  L 43,92  L 43,93  L 42,93  L 42,95  L 41,95  L 41,96  L 40,96  L 40,97  L 39,97  L 39,98  L 38,98  L 38,100  L 36,100  L 36,102  L 35,102  L 35,103  L 34,103  L 34,104  L 33,104  L 33,106  L 32,106  L 32,108  L 31,108  L 31,111  L 30,111  L 30,114  L 29,114  L 29,116  L 28,116  L 28,120  L 27,120  L 27,129  L 28,129  L 28,132  L 29,132  L 29,133  L 30,133  L 30,135  L 31,135  L 31,136  L 32,136  L 32,137  L 33,137  L 33,138  L 36,138  L 36,139  L 39,139  L 39,140  L 59,140  L 59,139  L 62,139  L 62,138  Z  M 70,100  L 71,100  L 71,101  L 76,101  L 76,102  L 78,102  L 78,103  L 79,103  L 79,104  L 80,104  L 80,105  L 81,105  L 81,106  L 82,106  L 82,107  L 81,107  L 81,108  L 82,108  L 82,114  L 81,114  L 81,117  L 80,117  L 80,119  L 79,119  L 79,122  L 78,122  L 78,123  L 77,123  L 77,124  L 76,124  L 76,125  L 75,125  L 75,126  L 74,126  L 74,127  L 73,127  L 73,128  L 71,128  L 71,129  L 68,129  L 68,130  L 65,130  L 65,131  L 63,131  L 63,132  L 60,132  L 60,133  L 55,133  L 55,134  L 46,134  L 46,133  L 40,133  L 40,132  L 37,132  L 37,131  L 36,131  L 36,130  L 35,130  L 35,128  L 34,128  L 34,120  L 35,120  L 35,117  L 36,117  L 36,112  L 37,112  L 37,111  L 38,111  L 38,109  L 39,109  L 39,108  L 40,108  L 40,106  L 41,106  L 41,105  L 42,105  L 42,104  L 43,104  L 43,103  L 44,103  L 44,102  L 46,102  L 46,101  L 47,101  L 47,100  L 50,100  L 50,99  L 62,99  L 62,100  L 63,100  L 63,99  L 64,99  L 64,100  L 69,100  L 69,101  L 70,101  Z  " style="fill:rgb(0, 0, 0); fill-opacity:1.000; stroke:none;" />
 <path d="  M 74,61  L 75,61  L 75,71  L 76,71  L 76,74  L 75,74  L 75,75  L 76,75  L 76,81  L 77,81  L 77,83  L 78,83  L 78,84  L 79,84  L 79,83  L 80,83  L 80,84  L 81,84  L 81,83  L 82,83  L 82,82  L 83,82  L 83,81  L 82,81  L 82,79  L 83,79  L 83,78  L 82,78  L 82,70  L 81,70  L 81,50  L 80,50  L 80,45  L 81,45  L 81,44  L 83,44  L 83,43  L 86,43  L 86,42  L 88,42  L 88,41  L 98,41  L 98,40  L 107,40  L 107,34  L 91,34  L 91,35  L 90,35  L 90,34  L 89,34  L 89,35  L 84,35  L 84,36  L 80,36  L 80,28  L 79,28  L 79,27  L 80,27  L 80,26  L 79,26  L 79,25  L 80,25  L 80,24  L 79,24  L 79,14  L 78,14  L 78,1  L 77,1  L 77,0  L 73,0  L 73,1  L 72,1  L 72,13  L 73,13  L 73,45  L 74,45  Z  " style="fill:rgb(0, 0, 0); fill-opacity:1.000; stroke:none;" />
</svg>
