<?xml version="1.0" encoding="UTF-8" standalone="no"?>
<!DOCTYPE svg PUBLIC "-//W3C//DTD SVG 1.1//EN" 
  "http://www.w3.org/Graphics/SVG/1.1/DTD/svg11.dtd">
<svg width="104" height="151"
     xmlns="http://www.w3.org/2000/svg" version="1.1">
 <path d="  M 2,74  L 6,74  L 6,73  L 7,73  L 7,72  L 8,72  L 8,71  L 9,71  L 9,70  L 10,70  L 10,69  L 11,69  L 11,67  L 12,67  L 12,66  L 13,66  L 13,65  L 14,65  L 14,64  L 15,64  L 15,63  L 16,63  L 16,62  L 17,62  L 17,61  L 18,61  L 18,60  L 19,60  L 19,59  L 20,59  L 20,58  L 21,58  L 21,57  L 22,57  L 22,56  L 23,56  L 23,55  L 24,55  L 24,53  L 25,53  L 25,52  L 26,52  L 26,49  L 29,49  L 29,50  L 31,50  L 31,52  L 33,52  L 33,54  L 35,54  L 35,55  L 37,55  L 37,56  L 39,56  L 39,57  L 40,57  L 40,58  L 41,58  L 41,59  L 42,59  L 42,60  L 43,60  L 43,61  L 44,61  L 44,62  L 45,62  L 45,63  L 46,63  L 46,64  L 47,64  L 47,65  L 48,65  L 48,67  L 50,67  L 50,69  L 52,69  L 52,70  L 53,70  L 53,71  L 55,71  L 55,72  L 56,72  L 56,71  L 57,71  L 57,73  L 58,73  L 58,71  L 60,71  L 60,69  L 59,69  L 59,67  L 58,67  L 58,65  L 57,65  L 57,64  L 56,64  L 56,63  L 55,63  L 55,61  L 54,61  L 54,60  L 53,60  L 53,59  L 52,59  L 52,58  L 51,58  L 51,57  L 50,57  L 50,56  L 49,56  L 49,55  L 48,55  L 48,54  L 47,54  L 47,53  L 45,53  L 45,52  L 44,52  L 44,51  L 43,51  L 43,50  L 41,50  L 41,49  L 40,49  L 40,48  L 39,48  L 39,47  L 38,47  L 38,46  L 37,46  L 37,45  L 36,45  L 36,44  L 35,44  L 35,43  L 34,43  L 34,41  L 35,41  L 35,39  L 36,39  L 36,38  L 37,38  L 37,36  L 38,36  L 38,35  L 39,35  L 39,34  L 40,34  L 40,33  L 41,33  L 41,32  L 42,32  L 42,31  L 43,31  L 43,29  L 44,29  L 44,28  L 46,28  L 46,25  L 47,25  L 47,23  L 48,23  L 48,20  L 49,20  L 49,13  L 48,13  L 48,12  L 45,12  L 45,14  L 43,14  L 43,16  L 42,16  L 42,19  L 41,19  L 41,22  L 40,22  L 40,23  L 39,23  L 39,25  L 38,25  L 38,27  L 37,27  L 37,28  L 36,28  L 36,29  L 35,29  L 35,30  L 34,30  L 34,31  L 33,31  L 33,32  L 32,32  L 32,33  L 31,33  L 31,34  L 30,34  L 30,35  L 29,35  L 29,36  L 28,36  L 28,37  L 27,37  L 27,38  L 26,38  L 26,39  L 25,39  L 25,40  L 24,40  L 24,42  L 23,42  L 23,44  L 22,44  L 22,45  L 21,45  L 21,46  L 20,46  L 20,48  L 19,48  L 19,49  L 18,49  L 18,50  L 17,50  L 17,51  L 16,51  L 16,52  L 15,52  L 15,53  L 14,53  L 14,54  L 13,54  L 13,56  L 12,56  L 12,57  L 11,57  L 11,58  L 10,58  L 10,59  L 9,59  L 9,60  L 7,60  L 7,62  L 6,62  L 6,63  L 5,63  L 5,64  L 4,64  L 4,65  L 3,65  L 3,66  L 2,66  L 2,68  L 1,68  L 1,69  L 0,69  L 0,71  L 1,71  L 1,72  L 2,72  Z  " style="fill:rgb(0, 0, 0); fill-opacity:1.000; stroke:none;" />
 <path d="  M 83,101  L 83,100  L 84,100  L 84,101  L 89,101  L 89,102  L 92,102  L 92,103  L 94,103  L 94,104  L 95,104  L 95,106  L 96,106  L 96,109  L 97,109  L 97,121  L 96,121  L 96,124  L 95,124  L 95,126  L 94,126  L 94,128  L 93,128  L 93,129  L 92,129  L 92,131  L 91,131  L 91,133  L 90,133  L 90,134  L 89,134  L 89,135  L 88,135  L 88,136  L 87,136  L 87,137  L 86,137  L 86,138  L 85,138  L 85,139  L 84,139  L 84,140  L 82,140  L 82,141  L 80,141  L 80,142  L 77,142  L 77,143  L 76,143  L 76,144  L 72,144  L 72,145  L 53,145  L 53,144  L 48,144  L 48,143  L 45,143  L 45,142  L 44,142  L 44,141  L 43,141  L 43,140  L 42,140  L 42,129  L 43,129  L 43,128  L 42,128  L 42,127  L 43,127  L 43,123  L 44,123  L 44,120  L 45,120  L 45,118  L 46,118  L 46,116  L 47,116  L 47,114  L 48,114  L 48,113  L 49,113  L 49,112  L 50,112  L 50,111  L 51,111  L 51,110  L 52,110  L 52,109  L 53,109  L 53,108  L 55,108  L 55,107  L 57,107  L 57,106  L 58,106  L 58,105  L 60,105  L 60,104  L 62,104  L 62,103  L 65,103  L 65,102  L 68,102  L 68,101  L 75,101  L 75,100  L 76,100  L 76,101  L 77,101  L 77,100  L 80,100  L 80,101  L 81,101  L 81,100  L 82,100  L 82,101  Z  M 39,147  L 40,147  L 40,148  L 43,148  L 43,149  L 45,149  L 45,150  L 46,150  L 46,151  L 74,151  L 74,150  L 77,150  L 77,149  L 81,149  L 81,148  L 83,148  L 83,147  L 85,147  L 85,146  L 87,146  L 87,145  L 89,145  L 89,144  L 90,144  L 90,143  L 92,143  L 92,142  L 93,142  L 93,140  L 94,140  L 94,139  L 96,139  L 96,137  L 97,137  L 97,136  L 98,136  L 98,133  L 99,133  L 99,132  L 100,132  L 100,130  L 101,130  L 101,128  L 102,128  L 102,126  L 103,126  L 103,123  L 104,123  L 104,103  L 103,103  L 103,101  L 102,101  L 102,100  L 101,100  L 101,99  L 100,99  L 100,97  L 97,97  L 97,96  L 96,96  L 96,95  L 94,95  L 94,94  L 91,94  L 91,93  L 66,93  L 66,94  L 64,94  L 64,95  L 60,95  L 60,96  L 58,96  L 58,97  L 57,97  L 57,98  L 54,98  L 54,99  L 53,99  L 53,100  L 52,100  L 52,101  L 50,101  L 50,102  L 48,102  L 48,103  L 47,103  L 47,104  L 46,104  L 46,105  L 44,105  L 44,106  L 43,106  L 43,108  L 42,108  L 42,110  L 41,110  L 41,112  L 40,112  L 40,113  L 39,113  L 39,116  L 38,116  L 38,118  L 37,118  L 37,121  L 36,121  L 36,123  L 35,123  L 35,129  L 34,129  L 34,137  L 35,137  L 35,141  L 36,141  L 36,143  L 37,143  L 37,146  L 39,146  Z  " style="fill:rgb(0, 0, 0); fill-opacity:1.000; stroke:none;" />
 <path d="  M 79,61  L 80,61  L 80,60  L 79,60  L 79,59  L 80,59  L 80,51  L 81,51  L 81,50  L 80,50  L 80,49  L 81,49  L 81,48  L 80,48  L 80,47  L 81,47  L 81,46  L 80,46  L 80,42  L 81,42  L 81,41  L 83,41  L 83,40  L 88,40  L 88,39  L 94,39  L 94,38  L 96,38  L 96,72  L 95,72  L 95,73  L 96,73  L 96,76  L 95,76  L 95,77  L 96,77  L 96,79  L 95,79  L 95,81  L 96,81  L 96,85  L 100,85  L 100,84  L 101,84  L 101,85  L 102,85  L 102,81  L 103,81  L 103,80  L 102,80  L 102,77  L 103,77  L 103,76  L 102,76  L 102,74  L 103,74  L 103,37  L 104,37  L 104,36  L 103,36  L 103,31  L 102,31  L 102,26  L 101,26  L 101,20  L 100,20  L 100,13  L 99,13  L 99,5  L 98,5  L 98,3  L 97,3  L 97,2  L 93,2  L 93,3  L 92,3  L 92,7  L 91,7  L 91,8  L 92,8  L 92,19  L 93,19  L 93,24  L 94,24  L 94,28  L 95,28  L 95,31  L 94,31  L 94,32  L 92,32  L 92,33  L 85,33  L 85,34  L 80,34  L 80,35  L 79,35  L 79,34  L 78,34  L 78,3  L 77,3  L 77,1  L 75,1  L 75,0  L 73,0  L 73,1  L 72,1  L 72,45  L 73,45  L 73,60  L 72,60  L 72,61  L 73,61  L 73,63  L 72,63  L 72,70  L 71,70  L 71,78  L 72,78  L 72,79  L 75,79  L 75,78  L 76,78  L 76,77  L 77,77  L 77,76  L 78,76  L 78,69  L 79,69  Z  " style="fill:rgb(0, 0, 0); fill-opacity:1.000; stroke:none;" />
</svg>
