<?xml version="1.0" encoding="UTF-8" standalone="no"?>
<!DOCTYPE svg PUBLIC "-//W3C//DTD SVG 1.1//EN" 
  "http://www.w3.org/Graphics/SVG/1.1/DTD/svg11.dtd">
<svg width="108" height="146"
     xmlns="http://www.w3.org/2000/svg" version="1.1">
 <path d="  M 30,19  L 30,20  L 29,20  L 29,21  L 28,21  L 28,23  L 27,23  L 27,25  L 26,25  L 26,26  L 25,26  L 25,27  L 24,27  L 24,28  L 23,28  L 23,29  L 22,29  L 22,31  L 21,31  L 21,33  L 20,33  L 20,34  L 19,34  L 19,36  L 18,36  L 18,37  L 17,37  L 17,40  L 16,40  L 16,41  L 15,41  L 15,43  L 14,43  L 14,44  L 13,44  L 13,46  L 12,46  L 12,47  L 11,47  L 11,49  L 10,49  L 10,51  L 9,51  L 9,52  L 8,52  L 8,53  L 7,53  L 7,55  L 6,55  L 6,56  L 5,56  L 5,57  L 4,57  L 4,58  L 3,58  L 3,59  L 2,59  L 2,60  L 1,60  L 1,66  L 2,66  L 2,68  L 5,68  L 5,67  L 7,67  L 7,66  L 8,66  L 8,65  L 9,65  L 9,63  L 10,63  L 10,61  L 11,61  L 11,60  L 12,60  L 12,58  L 13,58  L 13,56  L 14,56  L 14,55  L 15,55  L 15,54  L 16,54  L 16,53  L 17,53  L 17,51  L 18,51  L 18,50  L 19,50  L 19,48  L 20,48  L 20,46  L 21,46  L 21,45  L 22,45  L 22,44  L 25,44  L 25,45  L 26,45  L 26,46  L 27,46  L 27,47  L 28,47  L 28,48  L 29,48  L 29,50  L 30,50  L 30,51  L 31,51  L 31,52  L 32,52  L 32,54  L 33,54  L 33,55  L 34,55  L 34,56  L 35,56  L 35,57  L 36,57  L 36,58  L 38,58  L 38,59  L 39,59  L 39,60  L 40,60  L 40,62  L 42,62  L 42,63  L 43,63  L 43,64  L 45,64  L 45,65  L 46,65  L 46,66  L 48,66  L 48,67  L 51,67  L 51,66  L 52,66  L 52,65  L 53,65  L 53,64  L 52,64  L 52,61  L 51,61  L 51,60  L 49,60  L 49,59  L 48,59  L 48,58  L 46,58  L 46,57  L 44,57  L 44,56  L 43,56  L 43,55  L 42,55  L 42,53  L 40,53  L 40,52  L 39,52  L 39,51  L 38,51  L 38,50  L 37,50  L 37,49  L 36,49  L 36,47  L 35,47  L 35,46  L 34,46  L 34,45  L 33,45  L 33,44  L 32,44  L 32,42  L 31,42  L 31,41  L 30,41  L 30,39  L 29,39  L 29,38  L 28,38  L 28,34  L 29,34  L 29,32  L 30,32  L 30,29  L 31,29  L 31,28  L 32,28  L 32,27  L 33,27  L 33,25  L 34,25  L 34,24  L 35,24  L 35,22  L 36,22  L 36,21  L 37,21  L 37,19  L 38,19  L 38,17  L 39,17  L 39,16  L 40,16  L 40,13  L 41,13  L 41,10  L 40,10  L 40,8  L 36,8  L 36,9  L 35,9  L 35,11  L 34,11  L 34,14  L 33,14  L 33,15  L 32,15  L 32,17  L 31,17  L 31,19  Z  " style="fill:rgb(0, 0, 0); fill-opacity:1.000; stroke:none;" />
 <path d="  M 55,119  L 55,118  L 53,118  L 53,117  L 51,117  L 51,116  L 48,116  L 48,115  L 46,115  L 46,114  L 44,114  L 44,113  L 43,113  L 43,112  L 41,112  L 41,111  L 40,111  L 40,110  L 39,110  L 39,104  L 40,104  L 40,102  L 41,102  L 41,101  L 42,101  L 42,100  L 43,100  L 43,98  L 44,98  L 44,97  L 45,97  L 45,90  L 44,90  L 44,88  L 43,88  L 43,87  L 38,87  L 38,86  L 37,86  L 37,87  L 34,87  L 34,88  L 33,88  L 33,89  L 34,89  L 34,90  L 38,90  L 38,91  L 39,91  L 39,92  L 40,92  L 40,94  L 41,94  L 41,95  L 40,95  L 40,97  L 39,97  L 39,98  L 38,98  L 38,99  L 36,99  L 36,100  L 35,100  L 35,101  L 34,101  L 34,103  L 33,103  L 33,105  L 32,105  L 32,106  L 31,106  L 31,108  L 30,108  L 30,109  L 29,109  L 29,111  L 28,111  L 28,112  L 27,112  L 27,114  L 26,114  L 26,116  L 25,116  L 25,117  L 24,117  L 24,118  L 23,118  L 23,119  L 22,119  L 22,121  L 21,121  L 21,122  L 20,122  L 20,123  L 19,123  L 19,124  L 18,124  L 18,125  L 17,125  L 17,126  L 16,126  L 16,127  L 15,127  L 15,129  L 14,129  L 14,134  L 15,134  L 15,136  L 16,136  L 16,135  L 18,135  L 18,134  L 19,134  L 19,133  L 20,133  L 20,132  L 21,132  L 21,130  L 22,130  L 22,128  L 23,128  L 23,127  L 24,127  L 24,126  L 25,126  L 25,125  L 26,125  L 26,124  L 27,124  L 27,122  L 29,122  L 29,120  L 30,120  L 30,119  L 31,119  L 31,117  L 32,117  L 32,116  L 33,116  L 33,114  L 35,114  L 35,115  L 36,115  L 36,116  L 37,116  L 37,117  L 38,117  L 38,118  L 40,118  L 40,119  L 42,119  L 42,120  L 44,120  L 44,121  L 47,121  L 47,122  L 50,122  L 50,123  L 52,123  L 52,124  L 54,124  L 54,125  L 55,125  L 55,126  L 56,126  L 56,127  L 57,127  L 57,129  L 58,129  L 58,132  L 57,132  L 57,135  L 56,135  L 56,138  L 55,138  L 55,140  L 54,140  L 54,142  L 53,142  L 53,146  L 59,146  L 59,145  L 60,145  L 60,143  L 61,143  L 61,140  L 62,140  L 62,137  L 63,137  L 63,134  L 64,134  L 64,133  L 66,133  L 66,132  L 67,132  L 67,130  L 68,130  L 68,128  L 69,128  L 69,126  L 70,126  L 70,124  L 71,124  L 71,120  L 72,120  L 72,119  L 73,119  L 73,118  L 74,118  L 74,117  L 75,117  L 75,118  L 77,118  L 77,119  L 78,119  L 78,120  L 79,120  L 79,121  L 80,121  L 80,122  L 82,122  L 82,123  L 83,123  L 83,124  L 85,124  L 85,125  L 87,125  L 87,126  L 88,126  L 88,127  L 90,127  L 90,128  L 93,128  L 93,129  L 95,129  L 95,130  L 97,130  L 97,131  L 98,131  L 98,132  L 100,132  L 100,133  L 102,133  L 102,134  L 103,134  L 103,135  L 104,135  L 104,136  L 107,136  L 107,135  L 108,135  L 108,130  L 107,130  L 107,129  L 105,129  L 105,128  L 104,128  L 104,127  L 101,127  L 101,126  L 99,126  L 99,125  L 97,125  L 97,124  L 95,124  L 95,123  L 93,123  L 93,122  L 91,122  L 91,121  L 90,121  L 90,120  L 88,120  L 88,119  L 86,119  L 86,118  L 85,118  L 85,117  L 84,117  L 84,116  L 83,116  L 83,115  L 82,115  L 82,114  L 81,114  L 81,113  L 80,113  L 80,111  L 79,111  L 79,110  L 78,110  L 78,109  L 79,109  L 79,107  L 80,107  L 80,104  L 81,104  L 81,101  L 82,101  L 82,94  L 78,94  L 78,95  L 77,95  L 77,97  L 76,97  L 76,99  L 75,99  L 75,101  L 74,101  L 74,104  L 73,104  L 73,106  L 72,106  L 72,107  L 71,107  L 71,109  L 70,109  L 70,111  L 69,111  L 69,114  L 68,114  L 68,115  L 67,115  L 67,118  L 66,118  L 66,122  L 65,122  L 65,124  L 63,124  L 63,125  L 62,125  L 62,123  L 61,123  L 61,122  L 60,122  L 60,121  L 58,121  L 58,120  L 57,120  L 57,119  Z  " style="fill:rgb(0, 0, 0); fill-opacity:1.000; stroke:none;" />
 <path d="  M 68,53  L 68,52  L 72,52  L 72,51  L 82,51  L 82,56  L 83,56  L 83,57  L 82,57  L 82,60  L 83,60  L 83,61  L 82,61  L 82,64  L 83,64  L 83,65  L 82,65  L 82,66  L 83,66  L 83,69  L 82,69  L 82,70  L 83,70  L 83,71  L 82,71  L 82,72  L 83,72  L 83,73  L 82,73  L 82,74  L 83,74  L 83,77  L 82,77  L 82,78  L 83,78  L 83,80  L 82,80  L 82,81  L 83,81  L 83,83  L 82,83  L 82,84  L 83,84  L 83,86  L 84,86  L 84,87  L 88,87  L 88,86  L 89,86  L 89,26  L 88,26  L 88,19  L 87,19  L 87,11  L 86,11  L 86,8  L 87,8  L 87,7  L 86,7  L 86,2  L 85,2  L 85,1  L 84,1  L 84,0  L 83,0  L 83,1  L 80,1  L 80,4  L 79,4  L 79,6  L 80,6  L 80,18  L 81,18  L 81,24  L 79,24  L 79,25  L 77,25  L 77,24  L 76,24  L 76,25  L 70,25  L 70,26  L 57,26  L 57,27  L 56,27  L 56,26  L 53,26  L 53,27  L 52,27  L 52,28  L 51,28  L 51,29  L 50,29  L 50,30  L 49,30  L 49,35  L 50,35  L 50,36  L 52,36  L 52,35  L 57,35  L 57,34  L 61,34  L 61,33  L 66,33  L 66,32  L 72,32  L 72,31  L 73,31  L 73,32  L 76,32  L 76,31  L 81,31  L 81,32  L 82,32  L 82,42  L 81,42  L 81,43  L 80,43  L 80,44  L 78,44  L 78,45  L 71,45  L 71,46  L 68,46  L 68,47  L 63,47  L 63,48  L 61,48  L 61,47  L 60,47  L 60,49  L 59,49  L 59,50  L 58,50  L 58,52  L 57,52  L 57,54  L 58,54  L 58,56  L 60,56  L 60,55  L 64,55  L 64,54  L 66,54  L 66,53  Z  " style="fill:rgb(0, 0, 0); fill-opacity:1.000; stroke:none;" />
</svg>
