<?xml version="1.0" encoding="UTF-8" standalone="no"?>
<!DOCTYPE svg PUBLIC "-//W3C//DTD SVG 1.1//EN" 
  "http://www.w3.org/Graphics/SVG/1.1/DTD/svg11.dtd">
<svg width="108" height="119"
     xmlns="http://www.w3.org/2000/svg" version="1.1">
 <path d="  M 55,76  L 55,75  L 54,75  L 54,72  L 55,72  L 55,70  L 54,70  L 54,69  L 55,69  L 55,61  L 49,61  L 49,62  L 48,62  L 48,64  L 47,64  L 47,65  L 46,65  L 46,66  L 47,66  L 47,69  L 48,69  L 48,70  L 47,70  L 47,75  L 48,75  L 48,76  L 47,76  L 47,78  L 48,78  L 48,79  L 47,79  L 47,81  L 48,81  L 48,84  L 47,84  L 47,85  L 48,85  L 48,88  L 47,88  L 47,89  L 48,89  L 48,110  L 43,110  L 43,111  L 36,111  L 36,112  L 23,112  L 23,113  L 22,113  L 22,112  L 21,112  L 21,113  L 20,113  L 20,112  L 19,112  L 19,113  L 3,113  L 3,114  L 1,114  L 1,115  L 0,115  L 0,118  L 1,118  L 1,119  L 33,119  L 33,118  L 43,118  L 43,117  L 44,117  L 44,118  L 46,118  L 46,117  L 53,117  L 53,118  L 54,118  L 54,117  L 56,117  L 56,118  L 59,118  L 59,117  L 60,117  L 60,118  L 63,118  L 63,117  L 64,117  L 64,118  L 67,118  L 67,117  L 68,117  L 68,118  L 71,118  L 71,117  L 72,117  L 72,118  L 75,118  L 75,117  L 77,117  L 77,118  L 78,118  L 78,117  L 85,117  L 85,116  L 94,116  L 94,115  L 103,115  L 103,114  L 104,114  L 104,115  L 105,115  L 105,114  L 107,114  L 107,113  L 108,113  L 108,108  L 97,108  L 97,109  L 90,109  L 90,110  L 82,110  L 82,111  L 81,111  L 81,110  L 80,110  L 80,111  L 56,111  L 56,110  L 55,110  L 55,91  L 54,91  L 54,90  L 55,90  L 55,89  L 54,89  L 54,86  L 55,86  L 55,85  L 54,85  L 54,83  L 55,83  L 55,81  L 54,81  L 54,80  L 55,80  L 55,78  L 54,78  L 54,76  Z  " style="fill:rgb(0, 0, 0); fill-opacity:1.000; stroke:none;" />
 <path d="  M 50,34  L 51,34  L 51,35  L 53,35  L 53,36  L 56,36  L 56,37  L 58,37  L 58,38  L 59,38  L 59,39  L 61,39  L 61,40  L 63,40  L 63,41  L 66,41  L 66,42  L 67,42  L 67,43  L 70,43  L 70,44  L 72,44  L 72,45  L 74,45  L 74,46  L 75,46  L 75,47  L 78,47  L 78,48  L 81,48  L 81,49  L 83,49  L 83,50  L 86,50  L 86,51  L 88,51  L 88,52  L 91,52  L 91,53  L 94,53  L 94,54  L 97,54  L 97,53  L 100,53  L 100,52  L 102,52  L 102,51  L 101,51  L 101,50  L 100,50  L 100,49  L 99,49  L 99,48  L 97,48  L 97,47  L 96,47  L 96,46  L 93,46  L 93,45  L 91,45  L 91,44  L 88,44  L 88,43  L 85,43  L 85,42  L 82,42  L 82,41  L 79,41  L 79,40  L 76,40  L 76,39  L 74,39  L 74,38  L 72,38  L 72,37  L 70,37  L 70,36  L 67,36  L 67,35  L 66,35  L 66,34  L 64,34  L 64,33  L 62,33  L 62,32  L 60,32  L 60,31  L 58,31  L 58,30  L 56,30  L 56,29  L 54,29  L 54,28  L 52,28  L 52,27  L 51,27  L 51,26  L 50,26  L 50,25  L 49,25  L 49,21  L 48,21  L 48,20  L 49,20  L 49,18  L 50,18  L 50,15  L 51,15  L 51,14  L 53,14  L 53,13  L 52,13  L 52,12  L 53,12  L 53,11  L 54,11  L 54,7  L 53,7  L 53,4  L 52,4  L 52,3  L 51,3  L 51,1  L 48,1  L 48,3  L 47,3  L 47,6  L 46,6  L 46,9  L 45,9  L 45,11  L 44,11  L 44,13  L 43,13  L 43,15  L 42,15  L 42,17  L 41,17  L 41,19  L 40,19  L 40,21  L 39,21  L 39,22  L 38,22  L 38,23  L 37,23  L 37,24  L 36,24  L 36,25  L 35,25  L 35,27  L 34,27  L 34,28  L 33,28  L 33,30  L 32,30  L 32,31  L 31,31  L 31,33  L 30,33  L 30,34  L 29,34  L 29,36  L 28,36  L 28,37  L 27,37  L 27,39  L 26,39  L 26,40  L 25,40  L 25,42  L 24,42  L 24,43  L 23,43  L 23,44  L 22,44  L 22,45  L 21,45  L 21,47  L 19,47  L 19,49  L 18,49  L 18,50  L 17,50  L 17,51  L 16,51  L 16,53  L 14,53  L 14,54  L 13,54  L 13,55  L 12,55  L 12,56  L 11,56  L 11,57  L 10,57  L 10,58  L 9,58  L 9,59  L 8,59  L 8,61  L 7,61  L 7,63  L 8,63  L 8,64  L 9,64  L 9,65  L 10,65  L 10,66  L 13,66  L 13,65  L 14,65  L 14,64  L 15,64  L 15,63  L 16,63  L 16,62  L 17,62  L 17,61  L 19,61  L 19,59  L 20,59  L 20,58  L 21,58  L 21,57  L 22,57  L 22,56  L 23,56  L 23,54  L 24,54  L 24,53  L 25,53  L 25,52  L 26,52  L 26,51  L 27,51  L 27,49  L 28,49  L 28,48  L 29,48  L 29,47  L 30,47  L 30,46  L 31,46  L 31,45  L 32,45  L 32,43  L 33,43  L 33,42  L 34,42  L 34,41  L 35,41  L 35,40  L 36,40  L 36,38  L 37,38  L 37,37  L 38,37  L 38,35  L 39,35  L 39,33  L 40,33  L 40,31  L 41,31  L 41,30  L 43,30  L 43,31  L 45,31  L 45,32  L 48,32  L 48,33  L 50,33  Z  " style="fill:rgb(0, 0, 0); fill-opacity:1.000; stroke:none;" />
</svg>
