<?xml version="1.0" encoding="UTF-8" standalone="no"?>
<!DOCTYPE svg PUBLIC "-//W3C//DTD SVG 1.1//EN" 
  "http://www.w3.org/Graphics/SVG/1.1/DTD/svg11.dtd">
<svg width="103" height="173"
     xmlns="http://www.w3.org/2000/svg" version="1.1">
 <path d="  M 40,97  L 40,96  L 41,96  L 41,97  L 42,97  L 42,96  L 48,96  L 48,95  L 64,95  L 64,94  L 65,94  L 65,95  L 67,95  L 67,94  L 69,94  L 69,95  L 71,95  L 71,94  L 74,94  L 74,95  L 75,95  L 75,94  L 80,94  L 80,93  L 88,93  L 88,92  L 89,92  L 89,93  L 90,93  L 90,92  L 98,92  L 98,91  L 101,91  L 101,90  L 102,90  L 102,89  L 103,89  L 103,83  L 101,83  L 101,84  L 100,84  L 100,83  L 99,83  L 99,84  L 96,84  L 96,85  L 92,85  L 92,86  L 86,86  L 86,87  L 84,87  L 84,86  L 83,86  L 83,87  L 76,87  L 76,88  L 74,88  L 74,87  L 73,87  L 73,88  L 59,88  L 59,89  L 58,89  L 58,88  L 56,88  L 56,87  L 55,87  L 55,54  L 52,54  L 52,53  L 51,53  L 51,54  L 49,54  L 49,55  L 48,55  L 48,88  L 47,88  L 47,89  L 40,89  L 40,90  L 33,90  L 33,91  L 32,91  L 32,90  L 31,90  L 31,91  L 22,91  L 22,92  L 14,92  L 14,93  L 6,93  L 6,94  L 2,94  L 2,95  L 1,95  L 1,97  L 0,97  L 0,99  L 1,99  L 1,101  L 8,101  L 8,100  L 16,100  L 16,99  L 27,99  L 27,98  L 32,98  L 32,97  Z  " style="fill:rgb(0, 0, 0); fill-opacity:1.000; stroke:none;" />
 <path d="  M 94,41  L 95,41  L 95,38  L 94,38  L 94,37  L 93,37  L 93,36  L 92,36  L 92,35  L 90,35  L 90,34  L 88,34  L 88,33  L 87,33  L 87,32  L 86,32  L 86,31  L 83,31  L 83,30  L 81,30  L 81,29  L 80,29  L 80,28  L 77,28  L 77,27  L 74,27  L 74,26  L 72,26  L 72,25  L 70,25  L 70,24  L 68,24  L 68,23  L 67,23  L 67,22  L 65,22  L 65,21  L 63,21  L 63,20  L 62,20  L 62,19  L 61,19  L 61,18  L 59,18  L 59,17  L 57,17  L 57,15  L 55,15  L 55,14  L 54,14  L 54,13  L 52,13  L 52,12  L 50,12  L 50,11  L 49,11  L 49,10  L 48,10  L 48,5  L 47,5  L 47,1  L 46,1  L 46,0  L 43,0  L 43,1  L 41,1  L 41,2  L 40,2  L 40,3  L 39,3  L 39,6  L 38,6  L 38,8  L 37,8  L 37,10  L 36,10  L 36,12  L 34,12  L 34,14  L 33,14  L 33,15  L 32,15  L 32,17  L 31,17  L 31,18  L 30,18  L 30,19  L 29,19  L 29,20  L 28,20  L 28,22  L 27,22  L 27,24  L 26,24  L 26,26  L 25,26  L 25,28  L 24,28  L 24,30  L 23,30  L 23,31  L 22,31  L 22,33  L 21,33  L 21,34  L 20,34  L 20,35  L 19,35  L 19,37  L 18,37  L 18,38  L 17,38  L 17,40  L 16,40  L 16,41  L 15,41  L 15,42  L 14,42  L 14,43  L 13,43  L 13,44  L 12,44  L 12,45  L 11,45  L 11,46  L 10,46  L 10,47  L 9,47  L 9,48  L 8,48  L 8,50  L 7,50  L 7,51  L 6,51  L 6,53  L 5,53  L 5,56  L 7,56  L 7,57  L 8,57  L 8,58  L 9,58  L 9,59  L 11,59  L 11,58  L 12,58  L 12,57  L 13,57  L 13,56  L 14,56  L 14,54  L 15,54  L 15,53  L 17,53  L 17,51  L 18,51  L 18,49  L 20,49  L 20,48  L 21,48  L 21,46  L 22,46  L 22,44  L 24,44  L 24,42  L 25,42  L 25,41  L 26,41  L 26,40  L 27,40  L 27,38  L 28,38  L 28,37  L 29,37  L 29,35  L 30,35  L 30,33  L 31,33  L 31,32  L 32,32  L 32,31  L 33,31  L 33,29  L 34,29  L 34,28  L 35,28  L 35,26  L 36,26  L 36,24  L 37,24  L 37,22  L 38,22  L 38,21  L 39,21  L 39,20  L 40,20  L 40,18  L 41,18  L 41,17  L 42,17  L 42,16  L 43,16  L 43,15  L 45,15  L 45,13  L 46,13  L 46,14  L 47,14  L 47,17  L 46,17  L 46,18  L 47,18  L 47,19  L 48,19  L 48,21  L 50,21  L 50,22  L 51,22  L 51,21  L 52,21  L 52,23  L 53,23  L 53,24  L 55,24  L 55,25  L 57,25  L 57,26  L 59,26  L 59,27  L 60,27  L 60,28  L 61,28  L 61,29  L 64,29  L 64,30  L 65,30  L 65,31  L 68,31  L 68,32  L 69,32  L 69,33  L 72,33  L 72,34  L 73,34  L 73,35  L 74,35  L 74,34  L 75,34  L 75,35  L 76,35  L 76,36  L 78,36  L 78,37  L 80,37  L 80,38  L 81,38  L 81,39  L 82,39  L 82,38  L 83,38  L 83,39  L 84,39  L 84,40  L 85,40  L 85,41  L 88,41  L 88,42  L 89,42  L 89,43  L 90,43  L 90,42  L 93,42  L 93,43  L 94,43  Z  M 49,12  L 50,12  L 50,13  L 49,13  Z  " style="fill:rgb(0, 0, 0); fill-opacity:1.000; stroke:none;" />
 <path d="  M 66,138  L 66,144  L 65,144  L 65,149  L 64,149  L 64,154  L 63,154  L 63,159  L 62,159  L 62,164  L 61,164  L 61,173  L 67,173  L 67,172  L 68,172  L 68,171  L 69,171  L 69,170  L 68,170  L 68,169  L 69,169  L 69,164  L 70,164  L 70,161  L 71,161  L 71,160  L 70,160  L 70,159  L 71,159  L 71,155  L 72,155  L 72,149  L 73,149  L 73,144  L 74,144  L 74,139  L 75,139  L 75,138  L 74,138  L 74,137  L 75,137  L 75,133  L 76,133  L 76,131  L 77,131  L 77,129  L 78,129  L 78,125  L 79,125  L 79,124  L 78,124  L 78,118  L 77,118  L 77,117  L 76,117  L 76,116  L 73,116  L 73,115  L 68,115  L 68,114  L 54,114  L 54,115  L 52,115  L 52,114  L 51,114  L 51,115  L 43,115  L 43,116  L 37,116  L 37,117  L 26,117  L 26,118  L 22,118  L 22,119  L 21,119  L 21,121  L 20,121  L 20,124  L 19,124  L 19,125  L 22,125  L 22,126  L 25,126  L 25,125  L 31,125  L 31,124  L 38,124  L 38,123  L 44,123  L 44,122  L 45,122  L 45,123  L 47,123  L 47,122  L 55,122  L 55,121  L 64,121  L 64,122  L 67,122  L 67,123  L 69,123  L 69,124  L 70,124  L 70,125  L 69,125  L 69,126  L 70,126  L 70,127  L 69,127  L 69,130  L 68,130  L 68,133  L 67,133  L 67,138  Z  " style="fill:rgb(0, 0, 0); fill-opacity:1.000; stroke:none;" />
</svg>
