<?xml version="1.0" encoding="UTF-8" standalone="no"?>
<!DOCTYPE svg PUBLIC "-//W3C//DTD SVG 1.1//EN" 
  "http://www.w3.org/Graphics/SVG/1.1/DTD/svg11.dtd">
<svg width="106" height="155"
     xmlns="http://www.w3.org/2000/svg" version="1.1">
 <path d="  M 16,66  L 16,65  L 17,65  L 17,64  L 19,64  L 19,62  L 20,62  L 20,61  L 21,61  L 21,60  L 22,60  L 22,59  L 23,59  L 23,58  L 24,58  L 24,57  L 25,57  L 25,56  L 26,56  L 26,55  L 27,55  L 27,53  L 29,53  L 29,51  L 30,51  L 30,50  L 31,50  L 31,48  L 32,48  L 32,46  L 33,46  L 33,45  L 37,45  L 37,46  L 38,46  L 38,47  L 39,47  L 39,48  L 40,48  L 40,49  L 42,49  L 42,50  L 43,50  L 43,52  L 45,52  L 45,53  L 46,53  L 46,54  L 47,54  L 47,56  L 49,56  L 49,57  L 50,57  L 50,58  L 51,58  L 51,59  L 52,59  L 52,60  L 53,60  L 53,61  L 55,61  L 55,62  L 56,62  L 56,63  L 57,63  L 57,64  L 58,64  L 58,65  L 59,65  L 59,66  L 60,66  L 60,67  L 61,67  L 61,68  L 64,68  L 64,69  L 66,69  L 66,68  L 67,68  L 67,65  L 68,65  L 68,64  L 67,64  L 67,61  L 66,61  L 66,59  L 64,59  L 64,58  L 63,58  L 63,57  L 61,57  L 61,56  L 60,56  L 60,55  L 59,55  L 59,54  L 57,54  L 57,53  L 55,53  L 55,52  L 54,52  L 54,51  L 53,51  L 53,50  L 52,50  L 52,48  L 51,48  L 51,47  L 50,47  L 50,46  L 49,46  L 49,45  L 47,45  L 47,44  L 46,44  L 46,43  L 45,43  L 45,42  L 44,42  L 44,41  L 42,41  L 42,40  L 41,40  L 41,39  L 40,39  L 40,38  L 39,38  L 39,37  L 38,37  L 38,36  L 39,36  L 39,34  L 40,34  L 40,31  L 41,31  L 41,30  L 42,30  L 42,28  L 43,28  L 43,26  L 44,26  L 44,24  L 45,24  L 45,23  L 46,23  L 46,20  L 47,20  L 47,19  L 48,19  L 48,17  L 49,17  L 49,15  L 50,15  L 50,14  L 51,14  L 51,13  L 52,13  L 52,11  L 51,11  L 51,9  L 50,9  L 50,8  L 46,8  L 46,7  L 45,7  L 45,8  L 43,8  L 43,9  L 42,9  L 42,12  L 41,12  L 41,14  L 40,14  L 40,16  L 39,16  L 39,18  L 38,18  L 38,19  L 37,19  L 37,22  L 36,22  L 36,25  L 35,25  L 35,27  L 34,27  L 34,30  L 33,30  L 33,31  L 32,31  L 32,33  L 30,33  L 30,35  L 29,35  L 29,36  L 28,36  L 28,37  L 27,37  L 27,39  L 26,39  L 26,40  L 25,40  L 25,42  L 24,42  L 24,44  L 23,44  L 23,45  L 22,45  L 22,47  L 21,47  L 21,49  L 20,49  L 20,50  L 19,50  L 19,51  L 18,51  L 18,52  L 17,52  L 17,53  L 16,53  L 16,54  L 15,54  L 15,55  L 14,55  L 14,56  L 13,56  L 13,57  L 12,57  L 12,58  L 10,58  L 10,59  L 8,59  L 8,61  L 6,61  L 6,62  L 5,62  L 5,63  L 4,63  L 4,64  L 2,64  L 2,65  L 0,65  L 0,66  L 1,66  L 1,67  L 2,67  L 2,68  L 4,68  L 4,70  L 8,70  L 8,71  L 10,71  L 10,70  L 12,70  L 12,69  L 13,69  L 13,68  L 14,68  L 14,67  L 15,67  L 15,66  Z  " style="fill:rgb(0, 0, 0); fill-opacity:1.000; stroke:none;" />
 <path d="  M 97,110  L 97,121  L 96,121  L 96,127  L 95,127  L 95,137  L 94,137  L 94,146  L 93,146  L 93,147  L 73,147  L 73,148  L 72,148  L 72,147  L 71,147  L 71,148  L 68,148  L 68,147  L 67,147  L 67,148  L 51,148  L 51,147  L 50,147  L 50,145  L 49,145  L 49,113  L 56,113  L 56,112  L 66,112  L 66,111  L 76,111  L 76,110  L 89,110  L 89,109  L 90,109  L 90,110  Z  M 43,149  L 44,149  L 44,151  L 45,151  L 45,153  L 46,153  L 46,154  L 48,154  L 48,155  L 64,155  L 64,154  L 65,154  L 65,155  L 67,155  L 67,154  L 83,154  L 83,153  L 86,153  L 86,154  L 87,154  L 87,153  L 90,153  L 90,154  L 91,154  L 91,153  L 95,153  L 95,152  L 98,152  L 98,151  L 99,151  L 99,149  L 100,149  L 100,147  L 101,147  L 101,134  L 102,134  L 102,133  L 101,133  L 101,132  L 102,132  L 102,124  L 103,124  L 103,118  L 104,118  L 104,112  L 105,112  L 105,109  L 104,109  L 104,107  L 103,107  L 103,105  L 102,105  L 102,104  L 100,104  L 100,103  L 89,103  L 89,104  L 88,104  L 88,103  L 87,103  L 87,104  L 73,104  L 73,105  L 65,105  L 65,106  L 64,106  L 64,105  L 63,105  L 63,106  L 60,106  L 60,105  L 59,105  L 59,106  L 48,106  L 48,105  L 44,105  L 44,104  L 33,104  L 33,105  L 31,105  L 31,107  L 30,107  L 30,108  L 31,108  L 31,110  L 32,110  L 32,111  L 34,111  L 34,112  L 41,112  L 41,113  L 42,113  L 42,116  L 43,116  L 43,121  L 42,121  L 42,122  L 43,122  L 43,123  L 42,123  L 42,124  L 43,124  L 43,125  L 42,125  L 42,126  L 43,126  L 43,129  L 42,129  L 42,130  L 43,130  L 43,133  L 42,133  L 42,134  L 43,134  L 43,137  L 42,137  L 42,138  L 43,138  L 43,141  L 42,141  L 42,142  L 43,142  Z  " style="fill:rgb(0, 0, 0); fill-opacity:1.000; stroke:none;" />
 <path d="  M 105,86  L 106,86  L 106,85  L 105,85  L 105,82  L 106,82  L 106,81  L 105,81  L 105,79  L 106,79  L 106,77  L 105,77  L 105,75  L 106,75  L 106,5  L 105,5  L 105,2  L 104,2  L 104,1  L 102,1  L 102,0  L 101,0  L 101,1  L 99,1  L 99,2  L 98,2  L 98,10  L 99,10  L 99,27  L 100,27  L 100,42  L 99,42  L 99,69  L 98,69  L 98,70  L 99,70  L 99,72  L 98,72  L 98,75  L 99,75  L 99,76  L 98,76  L 98,95  L 99,95  L 99,96  L 105,96  Z  " style="fill:rgb(0, 0, 0); fill-opacity:1.000; stroke:none;" />
</svg>
