<?xml version="1.0" encoding="UTF-8" standalone="no"?>
<!DOCTYPE svg PUBLIC "-//W3C//DTD SVG 1.1//EN" 
  "http://www.w3.org/Graphics/SVG/1.1/DTD/svg11.dtd">
<svg width="109" height="119"
     xmlns="http://www.w3.org/2000/svg" version="1.1">
 <path d="  M 62,51  L 61,51  L 61,47  L 62,47  L 62,45  L 63,45  L 63,43  L 64,43  L 64,42  L 63,42  L 63,41  L 64,41  L 64,39  L 65,39  L 65,35  L 66,35  L 66,33  L 67,33  L 67,29  L 68,29  L 68,26  L 69,26  L 69,23  L 70,23  L 70,17  L 69,17  L 69,16  L 68,16  L 68,15  L 66,15  L 66,16  L 65,16  L 65,17  L 64,17  L 64,20  L 63,20  L 63,22  L 62,22  L 62,26  L 61,26  L 61,28  L 60,28  L 60,33  L 59,33  L 59,36  L 58,36  L 58,38  L 57,38  L 57,42  L 56,42  L 56,44  L 55,44  L 55,48  L 54,48  L 54,50  L 53,50  L 53,51  L 54,51  L 54,53  L 53,53  L 53,55  L 52,55  L 52,59  L 51,59  L 51,60  L 48,60  L 48,59  L 47,59  L 47,58  L 45,58  L 45,57  L 44,57  L 44,56  L 43,56  L 43,55  L 41,55  L 41,54  L 39,54  L 39,53  L 38,53  L 38,52  L 37,52  L 37,51  L 34,51  L 34,50  L 33,50  L 33,49  L 31,49  L 31,48  L 30,48  L 30,47  L 29,47  L 29,46  L 28,46  L 28,45  L 27,45  L 27,43  L 28,43  L 28,40  L 29,40  L 29,39  L 30,39  L 30,37  L 31,37  L 31,35  L 32,35  L 32,33  L 33,33  L 33,31  L 34,31  L 34,29  L 35,29  L 35,27  L 36,27  L 36,25  L 37,25  L 37,24  L 38,24  L 38,22  L 39,22  L 39,18  L 40,18  L 40,16  L 39,16  L 39,15  L 38,15  L 38,14  L 35,14  L 35,15  L 33,15  L 33,16  L 32,16  L 32,19  L 31,19  L 31,23  L 30,23  L 30,26  L 29,26  L 29,27  L 28,27  L 28,29  L 27,29  L 27,31  L 26,31  L 26,33  L 25,33  L 25,35  L 24,35  L 24,36  L 23,36  L 23,38  L 22,38  L 22,40  L 21,40  L 21,42  L 20,42  L 20,43  L 19,43  L 19,47  L 18,47  L 18,49  L 17,49  L 17,50  L 16,50  L 16,53  L 15,53  L 15,55  L 14,55  L 14,57  L 13,57  L 13,59  L 12,59  L 12,62  L 11,62  L 11,64  L 10,64  L 10,65  L 9,65  L 9,67  L 8,67  L 8,69  L 7,69  L 7,71  L 6,71  L 6,72  L 5,72  L 5,73  L 4,73  L 4,74  L 3,74  L 3,76  L 2,76  L 2,77  L 1,77  L 1,78  L 0,78  L 0,81  L 2,81  L 2,82  L 6,82  L 6,81  L 7,81  L 7,80  L 8,80  L 8,79  L 9,79  L 9,77  L 10,77  L 10,75  L 11,75  L 11,73  L 12,73  L 12,72  L 13,72  L 13,70  L 14,70  L 14,68  L 15,68  L 15,67  L 16,67  L 16,65  L 17,65  L 17,64  L 18,64  L 18,62  L 19,62  L 19,60  L 20,60  L 20,57  L 21,57  L 21,56  L 22,56  L 22,53  L 23,53  L 23,52  L 25,52  L 25,53  L 26,53  L 26,54  L 28,54  L 28,55  L 30,55  L 30,56  L 31,56  L 31,57  L 32,57  L 32,58  L 34,58  L 34,59  L 36,59  L 36,60  L 37,60  L 37,61  L 39,61  L 39,62  L 41,62  L 41,63  L 43,63  L 43,65  L 44,65  L 44,69  L 43,69  L 43,74  L 42,74  L 42,77  L 41,77  L 41,80  L 40,80  L 40,82  L 39,82  L 39,84  L 38,84  L 38,86  L 37,86  L 37,87  L 38,87  L 38,88  L 39,88  L 39,89  L 40,89  L 40,90  L 42,90  L 42,89  L 43,89  L 43,87  L 44,87  L 44,85  L 45,85  L 45,83  L 46,83  L 46,81  L 47,81  L 47,79  L 48,79  L 48,76  L 49,76  L 49,73  L 50,73  L 50,72  L 51,72  L 51,70  L 52,70  L 52,69  L 53,69  L 53,68  L 54,68  L 54,66  L 55,66  L 55,63  L 56,63  L 56,60  L 57,60  L 57,59  L 60,59  L 60,60  L 61,60  L 61,61  L 62,61  L 62,62  L 64,62  L 64,64  L 65,64  L 65,65  L 66,65  L 66,66  L 68,66  L 68,69  L 70,69  L 70,70  L 71,70  L 71,71  L 72,71  L 72,73  L 74,73  L 74,74  L 75,74  L 75,75  L 76,75  L 76,76  L 77,76  L 77,77  L 78,77  L 78,78  L 79,78  L 79,79  L 81,79  L 81,80  L 83,80  L 83,81  L 86,81  L 86,80  L 87,80  L 87,78  L 86,78  L 86,77  L 85,77  L 85,76  L 84,76  L 84,74  L 83,74  L 83,73  L 82,73  L 82,72  L 81,72  L 81,71  L 79,71  L 79,70  L 78,70  L 78,69  L 77,69  L 77,68  L 76,68  L 76,67  L 75,67  L 75,65  L 73,65  L 73,63  L 72,63  L 72,62  L 71,62  L 71,61  L 70,61  L 70,60  L 69,60  L 69,59  L 68,59  L 68,58  L 67,58  L 67,57  L 66,57  L 66,56  L 65,56  L 65,55  L 64,55  L 64,54  L 63,54  L 63,52  L 62,52  Z  " style="fill:rgb(0, 0, 0); fill-opacity:1.000; stroke:none;" />
 <path d="  M 108,119  L 108,117  L 109,117  L 109,28  L 108,28  L 108,22  L 107,22  L 107,14  L 106,14  L 106,13  L 107,13  L 107,12  L 106,12  L 106,9  L 105,9  L 105,2  L 104,2  L 104,1  L 99,1  L 99,2  L 98,2  L 98,7  L 99,7  L 99,12  L 100,12  L 100,17  L 101,17  L 101,18  L 100,18  L 100,19  L 101,19  L 101,25  L 102,25  L 102,40  L 103,40  L 103,42  L 102,42  L 102,43  L 101,43  L 101,44  L 95,44  L 95,45  L 94,45  L 94,44  L 91,44  L 91,45  L 90,45  L 90,44  L 89,44  L 89,45  L 80,45  L 80,46  L 77,46  L 77,48  L 76,48  L 76,49  L 77,49  L 77,51  L 78,51  L 78,52  L 82,52  L 82,51  L 93,51  L 93,50  L 96,50  L 96,51  L 97,51  L 97,50  L 98,50  L 98,51  L 99,51  L 99,50  L 102,50  L 102,51  L 103,51  L 103,119  Z  " style="fill:rgb(0, 0, 0); fill-opacity:1.000; stroke:none;" />
</svg>
