<?xml version="1.0" encoding="UTF-8" standalone="no"?>
<!DOCTYPE svg PUBLIC "-//W3C//DTD SVG 1.1//EN" 
  "http://www.w3.org/Graphics/SVG/1.1/DTD/svg11.dtd">
<svg width="104" height="155"
     xmlns="http://www.w3.org/2000/svg" version="1.1">
 <path d="  M 49,63  L 49,61  L 50,61  L 50,58  L 51,58  L 51,54  L 52,54  L 52,35  L 51,35  L 51,31  L 50,31  L 50,29  L 48,29  L 48,27  L 47,27  L 47,26  L 45,26  L 45,25  L 43,25  L 43,24  L 41,24  L 41,23  L 39,23  L 39,22  L 36,22  L 36,21  L 30,21  L 30,20  L 28,20  L 28,19  L 25,19  L 25,18  L 22,18  L 22,17  L 18,17  L 18,18  L 17,18  L 17,20  L 16,20  L 16,21  L 15,21  L 15,22  L 14,22  L 14,23  L 13,23  L 13,24  L 12,24  L 12,25  L 11,25  L 11,26  L 10,26  L 10,28  L 9,28  L 9,30  L 8,30  L 8,31  L 7,31  L 7,33  L 6,33  L 6,37  L 5,37  L 5,39  L 4,39  L 4,42  L 3,42  L 3,48  L 2,48  L 2,55  L 1,55  L 1,66  L 2,66  L 2,68  L 3,68  L 3,70  L 4,70  L 4,71  L 5,71  L 5,72  L 7,72  L 7,73  L 9,73  L 9,74  L 11,74  L 11,75  L 13,75  L 13,74  L 14,74  L 14,75  L 22,75  L 22,76  L 23,76  L 23,75  L 28,75  L 28,74  L 32,74  L 32,73  L 37,73  L 37,72  L 40,72  L 40,71  L 41,71  L 41,70  L 42,70  L 42,69  L 43,69  L 43,68  L 44,68  L 44,67  L 45,67  L 45,66  L 46,66  L 46,65  L 48,65  L 48,63  Z  M 25,25  L 25,26  L 31,26  L 31,27  L 34,27  L 34,28  L 38,28  L 38,29  L 41,29  L 41,30  L 42,30  L 42,31  L 43,31  L 43,32  L 44,32  L 44,33  L 45,33  L 45,34  L 46,34  L 46,50  L 45,50  L 45,56  L 44,56  L 44,58  L 43,58  L 43,60  L 42,60  L 42,61  L 41,61  L 41,63  L 40,63  L 40,64  L 38,64  L 38,65  L 37,65  L 37,66  L 35,66  L 35,67  L 32,67  L 32,68  L 25,68  L 25,69  L 18,69  L 18,68  L 15,68  L 15,67  L 13,67  L 13,66  L 12,66  L 12,67  L 11,67  L 11,66  L 10,66  L 10,65  L 8,65  L 8,62  L 7,62  L 7,61  L 8,61  L 8,60  L 7,60  L 7,53  L 8,53  L 8,47  L 9,47  L 9,44  L 10,44  L 10,41  L 11,41  L 11,37  L 12,37  L 12,35  L 13,35  L 13,32  L 14,32  L 14,31  L 15,31  L 15,30  L 16,30  L 16,28  L 17,28  L 17,27  L 18,27  L 18,26  L 20,26  L 20,25  Z  " style="fill:rgb(0, 0, 0); fill-opacity:1.000; stroke:none;" />
 <path d="  M 50,97  L 51,97  L 51,96  L 54,96  L 54,97  L 59,97  L 59,98  L 63,98  L 63,99  L 65,99  L 65,100  L 66,100  L 66,101  L 67,101  L 67,103  L 69,103  L 69,105  L 70,105  L 70,106  L 69,106  L 69,107  L 70,107  L 70,108  L 69,108  L 69,110  L 68,110  L 68,111  L 66,111  L 66,112  L 63,112  L 63,113  L 61,113  L 61,114  L 59,114  L 59,115  L 58,115  L 58,116  L 56,116  L 56,117  L 54,117  L 54,118  L 53,118  L 53,119  L 51,119  L 51,120  L 48,120  L 48,121  L 45,121  L 45,122  L 43,122  L 43,123  L 40,123  L 40,124  L 38,124  L 38,125  L 37,125  L 37,126  L 34,126  L 34,127  L 33,127  L 33,126  L 32,126  L 32,127  L 31,127  L 31,128  L 29,128  L 29,129  L 26,129  L 26,130  L 25,130  L 25,131  L 24,131  L 24,132  L 23,132  L 23,133  L 22,133  L 22,147  L 23,147  L 23,149  L 24,149  L 24,151  L 25,151  L 25,152  L 27,152  L 27,153  L 28,153  L 28,154  L 31,154  L 31,155  L 56,155  L 56,154  L 59,154  L 59,153  L 64,153  L 64,152  L 65,152  L 65,151  L 69,151  L 69,150  L 71,150  L 71,149  L 73,149  L 73,148  L 74,148  L 74,149  L 75,149  L 75,148  L 77,148  L 77,147  L 79,147  L 79,146  L 82,146  L 82,145  L 84,145  L 84,144  L 85,144  L 85,143  L 87,143  L 87,142  L 88,142  L 88,140  L 89,140  L 89,138  L 90,138  L 90,136  L 89,136  L 89,135  L 85,135  L 85,136  L 82,136  L 82,137  L 80,137  L 80,138  L 78,138  L 78,139  L 76,139  L 76,140  L 74,140  L 74,141  L 73,141  L 73,142  L 71,142  L 71,143  L 69,143  L 69,144  L 66,144  L 66,145  L 62,145  L 62,146  L 60,146  L 60,147  L 55,147  L 55,148  L 48,148  L 48,149  L 47,149  L 47,148  L 44,148  L 44,149  L 43,149  L 43,148  L 40,148  L 40,149  L 39,149  L 39,148  L 33,148  L 33,147  L 31,147  L 31,146  L 30,146  L 30,145  L 29,145  L 29,140  L 30,140  L 30,137  L 31,137  L 31,134  L 32,134  L 32,135  L 33,135  L 33,134  L 35,134  L 35,133  L 38,133  L 38,132  L 40,132  L 40,131  L 43,131  L 43,130  L 45,130  L 45,129  L 48,129  L 48,128  L 51,128  L 51,127  L 53,127  L 53,126  L 56,126  L 56,125  L 58,125  L 58,123  L 61,123  L 61,122  L 63,122  L 63,121  L 64,121  L 64,120  L 65,120  L 65,119  L 68,119  L 68,118  L 70,118  L 70,117  L 71,117  L 71,116  L 72,116  L 72,115  L 73,115  L 73,114  L 74,114  L 74,113  L 77,113  L 77,111  L 78,111  L 78,109  L 79,109  L 79,107  L 78,107  L 78,103  L 77,103  L 77,101  L 76,101  L 76,99  L 75,99  L 75,98  L 74,98  L 74,97  L 73,97  L 73,96  L 72,96  L 72,95  L 71,95  L 71,94  L 69,94  L 69,93  L 67,93  L 67,92  L 64,92  L 64,91  L 61,91  L 61,90  L 55,90  L 55,89  L 52,89  L 52,90  L 51,90  L 51,89  L 48,89  L 48,90  L 37,90  L 37,91  L 32,91  L 32,92  L 29,92  L 29,93  L 28,93  L 28,94  L 27,94  L 27,100  L 28,100  L 28,101  L 29,101  L 29,100  L 31,100  L 31,99  L 35,99  L 35,98  L 40,98  L 40,97  L 48,97  L 48,96  L 50,96  Z  " style="fill:rgb(0, 0, 0); fill-opacity:1.000; stroke:none;" />
 <path d="  M 68,29  L 69,29  L 69,46  L 70,46  L 70,65  L 71,65  L 71,66  L 70,66  L 70,67  L 71,67  L 71,81  L 72,81  L 72,84  L 73,84  L 73,85  L 77,85  L 77,84  L 78,84  L 78,72  L 77,72  L 77,71  L 78,71  L 78,70  L 77,70  L 77,69  L 78,69  L 78,68  L 77,68  L 77,50  L 76,50  L 76,43  L 77,43  L 77,42  L 80,42  L 80,41  L 85,41  L 85,40  L 86,40  L 86,41  L 87,41  L 87,40  L 95,40  L 95,39  L 96,39  L 96,40  L 97,40  L 97,39  L 98,39  L 98,40  L 99,40  L 99,39  L 100,39  L 100,40  L 103,40  L 103,39  L 104,39  L 104,34  L 103,34  L 103,32  L 95,32  L 95,33  L 94,33  L 94,32  L 91,32  L 91,33  L 90,33  L 90,32  L 88,32  L 88,33  L 84,33  L 84,34  L 82,34  L 82,33  L 81,33  L 81,34  L 76,34  L 76,32  L 75,32  L 75,31  L 76,31  L 76,29  L 75,29  L 75,20  L 74,20  L 74,17  L 75,17  L 75,16  L 74,16  L 74,13  L 75,13  L 75,12  L 74,12  L 74,11  L 75,11  L 75,10  L 74,10  L 74,9  L 75,9  L 75,8  L 74,8  L 74,7  L 75,7  L 75,6  L 74,6  L 74,5  L 75,5  L 75,4  L 74,4  L 74,2  L 73,2  L 73,1  L 72,1  L 72,0  L 69,0  L 69,3  L 68,3  Z  " style="fill:rgb(0, 0, 0); fill-opacity:1.000; stroke:none;" />
</svg>
