<?xml version="1.0" encoding="UTF-8" standalone="no"?>
<!DOCTYPE svg PUBLIC "-//W3C//DTD SVG 1.1//EN" 
  "http://www.w3.org/Graphics/SVG/1.1/DTD/svg11.dtd">
<svg width="107" height="139"
     xmlns="http://www.w3.org/2000/svg" version="1.1">
 <path d="  M 47,46  L 46,46  L 46,49  L 45,49  L 45,51  L 44,51  L 44,53  L 43,53  L 43,54  L 42,54  L 42,55  L 41,55  L 41,56  L 40,56  L 40,57  L 39,57  L 39,58  L 37,58  L 37,59  L 35,59  L 35,60  L 31,60  L 31,61  L 16,61  L 16,60  L 13,60  L 13,59  L 11,59  L 11,58  L 9,58  L 9,57  L 8,57  L 8,56  L 7,56  L 7,47  L 8,47  L 8,42  L 9,42  L 9,41  L 10,41  L 10,37  L 11,37  L 11,35  L 12,35  L 12,32  L 13,32  L 13,29  L 14,29  L 14,28  L 15,28  L 15,26  L 16,26  L 16,24  L 17,24  L 17,23  L 18,23  L 18,21  L 19,21  L 19,19  L 20,19  L 20,18  L 21,18  L 21,17  L 22,17  L 22,18  L 27,18  L 27,19  L 32,19  L 32,20  L 35,20  L 35,21  L 36,21  L 36,20  L 37,20  L 37,21  L 40,21  L 40,22  L 42,22  L 42,23  L 44,23  L 44,24  L 45,24  L 45,26  L 46,26  L 46,28  L 47,28  Z  M 27,68  L 27,67  L 32,67  L 32,66  L 36,66  L 36,65  L 38,65  L 38,64  L 40,64  L 40,63  L 42,63  L 42,62  L 43,62  L 43,61  L 45,61  L 45,60  L 46,60  L 46,59  L 47,59  L 47,58  L 48,58  L 48,56  L 49,56  L 49,55  L 50,55  L 50,54  L 51,54  L 51,51  L 52,51  L 52,48  L 53,48  L 53,26  L 51,26  L 51,24  L 50,24  L 50,22  L 49,22  L 49,21  L 48,21  L 48,20  L 47,20  L 47,19  L 46,19  L 46,18  L 44,18  L 44,17  L 43,17  L 43,16  L 39,16  L 39,15  L 35,15  L 35,14  L 30,14  L 30,13  L 26,13  L 26,12  L 21,12  L 21,13  L 20,13  L 20,15  L 18,15  L 18,16  L 16,16  L 16,17  L 15,17  L 15,18  L 13,18  L 13,20  L 12,20  L 12,21  L 11,21  L 11,22  L 10,22  L 10,24  L 9,24  L 9,26  L 8,26  L 8,29  L 7,29  L 7,31  L 6,31  L 6,35  L 5,35  L 5,38  L 4,38  L 4,41  L 3,41  L 3,44  L 2,44  L 2,48  L 1,48  L 1,57  L 2,57  L 2,60  L 4,60  L 4,62  L 5,62  L 5,63  L 6,63  L 6,64  L 8,64  L 8,66  L 9,66  L 9,65  L 10,65  L 10,66  L 13,66  L 13,67  L 16,67  L 16,68  Z  " style="fill:rgb(0, 0, 0); fill-opacity:1.000; stroke:none;" />
 <path d="  M 14,120  L 13,120  L 13,121  L 12,121  L 12,122  L 11,122  L 11,123  L 10,123  L 10,124  L 9,124  L 9,126  L 8,126  L 8,130  L 9,130  L 9,131  L 13,131  L 13,129  L 14,129  L 14,128  L 15,128  L 15,126  L 16,126  L 16,125  L 17,125  L 17,123  L 18,123  L 18,122  L 19,122  L 19,121  L 20,121  L 20,120  L 21,120  L 21,119  L 22,119  L 22,118  L 23,118  L 23,116  L 24,116  L 24,115  L 25,115  L 25,114  L 26,114  L 26,113  L 27,113  L 27,111  L 28,111  L 28,110  L 32,110  L 32,111  L 34,111  L 34,112  L 37,112  L 37,113  L 39,113  L 39,114  L 42,114  L 42,115  L 45,115  L 45,116  L 47,116  L 47,117  L 50,117  L 50,118  L 52,118  L 52,119  L 53,119  L 53,120  L 54,120  L 54,122  L 53,122  L 53,124  L 52,124  L 52,126  L 51,126  L 51,127  L 50,127  L 50,128  L 51,128  L 51,129  L 50,129  L 50,130  L 49,130  L 49,134  L 48,134  L 48,135  L 49,135  L 49,136  L 48,136  L 48,137  L 49,137  L 49,139  L 53,139  L 53,137  L 54,137  L 54,134  L 55,134  L 55,132  L 56,132  L 56,129  L 57,129  L 57,127  L 58,127  L 58,126  L 59,126  L 59,125  L 60,125  L 60,123  L 61,123  L 61,121  L 62,121  L 62,119  L 63,119  L 63,118  L 64,118  L 64,116  L 65,116  L 65,113  L 66,113  L 66,111  L 67,111  L 67,110  L 68,110  L 68,108  L 71,108  L 71,111  L 72,111  L 72,112  L 73,112  L 73,113  L 75,113  L 75,114  L 77,114  L 77,115  L 78,115  L 78,116  L 80,116  L 80,117  L 82,117  L 82,118  L 83,118  L 83,119  L 85,119  L 85,120  L 87,120  L 87,121  L 88,121  L 88,122  L 90,122  L 90,123  L 92,123  L 92,124  L 95,124  L 95,125  L 96,125  L 96,126  L 97,126  L 97,127  L 99,127  L 99,126  L 101,126  L 101,125  L 102,125  L 102,123  L 103,123  L 103,122  L 101,122  L 101,120  L 99,120  L 99,119  L 97,119  L 97,118  L 95,118  L 95,117  L 93,117  L 93,116  L 91,116  L 91,115  L 89,115  L 89,114  L 87,114  L 87,113  L 85,113  L 85,112  L 83,112  L 83,111  L 82,111  L 82,110  L 81,110  L 81,109  L 80,109  L 80,108  L 78,108  L 78,107  L 77,107  L 77,105  L 76,105  L 76,104  L 75,104  L 75,103  L 74,103  L 74,100  L 73,100  L 73,93  L 74,93  L 74,92  L 73,92  L 73,87  L 72,87  L 72,86  L 68,86  L 68,88  L 67,88  L 67,92  L 66,92  L 66,94  L 65,94  L 65,96  L 64,96  L 64,99  L 63,99  L 63,100  L 62,100  L 62,103  L 61,103  L 61,107  L 60,107  L 60,110  L 59,110  L 59,114  L 58,114  L 58,115  L 55,115  L 55,114  L 54,114  L 54,113  L 53,113  L 53,112  L 51,112  L 51,111  L 49,111  L 49,110  L 46,110  L 46,109  L 43,109  L 43,108  L 40,108  L 40,107  L 38,107  L 38,106  L 37,106  L 37,105  L 35,105  L 35,104  L 34,104  L 34,103  L 33,103  L 33,102  L 34,102  L 34,99  L 35,99  L 35,98  L 36,98  L 36,97  L 37,97  L 37,95  L 38,95  L 38,94  L 39,94  L 39,93  L 40,93  L 40,92  L 41,92  L 41,90  L 42,90  L 42,89  L 43,89  L 43,82  L 42,82  L 42,81  L 41,81  L 41,82  L 39,82  L 39,83  L 38,83  L 38,84  L 37,84  L 37,89  L 36,89  L 36,90  L 34,90  L 34,91  L 33,91  L 33,92  L 32,92  L 32,94  L 31,94  L 31,95  L 30,95  L 30,97  L 29,97  L 29,99  L 28,99  L 28,100  L 27,100  L 27,103  L 26,103  L 26,105  L 25,105  L 25,107  L 24,107  L 24,108  L 23,108  L 23,109  L 22,109  L 22,111  L 21,111  L 21,112  L 20,112  L 20,113  L 19,113  L 19,114  L 18,114  L 18,115  L 17,115  L 17,117  L 16,117  L 16,118  L 14,118  Z  " style="fill:rgb(0, 0, 0); fill-opacity:1.000; stroke:none;" />
 <path d="  M 34,83  L 32,83  L 32,85  L 34,85  Z  " style="fill:rgb(0, 0, 0); fill-opacity:1.000; stroke:none;" />
 <path d="  M 70,76  L 71,76  L 71,77  L 73,77  L 73,78  L 74,78  L 74,77  L 76,77  L 76,75  L 77,75  L 77,39  L 78,39  L 78,38  L 81,38  L 81,37  L 82,37  L 82,38  L 83,38  L 83,37  L 92,37  L 92,36  L 93,36  L 93,37  L 95,37  L 95,36  L 106,36  L 106,35  L 107,35  L 107,31  L 106,31  L 106,30  L 104,30  L 104,29  L 96,29  L 96,28  L 95,28  L 95,30  L 94,30  L 94,29  L 92,29  L 92,30  L 89,30  L 89,29  L 88,29  L 88,30  L 84,30  L 84,29  L 83,29  L 83,30  L 78,30  L 78,31  L 77,31  L 77,30  L 76,30  L 76,29  L 75,29  L 75,27  L 76,27  L 76,24  L 75,24  L 75,16  L 74,16  L 74,15  L 75,15  L 75,14  L 74,14  L 74,6  L 73,6  L 73,5  L 74,5  L 74,4  L 73,4  L 73,2  L 72,2  L 72,1  L 71,1  L 71,0  L 68,0  L 68,13  L 69,13  L 69,14  L 68,14  L 68,15  L 69,15  L 69,22  L 70,22  Z  " style="fill:rgb(0, 0, 0); fill-opacity:1.000; stroke:none;" />
</svg>
