<?xml version="1.0" encoding="UTF-8" standalone="no"?>
<!DOCTYPE svg PUBLIC "-//W3C//DTD SVG 1.1//EN" 
  "http://www.w3.org/Graphics/SVG/1.1/DTD/svg11.dtd">
<svg width="103" height="120"
     xmlns="http://www.w3.org/2000/svg" version="1.1">
 <path d="  M 35,91  L 35,90  L 36,90  L 36,89  L 38,89  L 38,88  L 40,88  L 40,87  L 41,87  L 41,86  L 44,86  L 44,85  L 45,85  L 45,84  L 47,84  L 47,83  L 48,83  L 48,82  L 51,82  L 51,81  L 52,81  L 52,80  L 53,80  L 53,79  L 54,79  L 54,78  L 55,78  L 55,77  L 56,77  L 56,76  L 57,76  L 57,75  L 58,75  L 58,72  L 59,72  L 59,71  L 60,71  L 60,69  L 61,69  L 61,66  L 62,66  L 62,62  L 63,62  L 63,61  L 62,61  L 62,60  L 63,60  L 63,54  L 64,54  L 64,53  L 63,53  L 63,52  L 64,52  L 64,49  L 63,49  L 63,37  L 62,37  L 62,35  L 61,35  L 61,33  L 60,33  L 60,32  L 58,32  L 58,30  L 57,30  L 57,29  L 56,29  L 56,28  L 55,28  L 55,27  L 54,27  L 54,26  L 53,26  L 53,25  L 51,25  L 51,24  L 50,24  L 50,23  L 48,23  L 48,22  L 44,22  L 44,21  L 26,21  L 26,22  L 24,22  L 24,21  L 23,21  L 23,22  L 20,22  L 20,23  L 18,23  L 18,24  L 17,24  L 17,25  L 15,25  L 15,27  L 14,27  L 14,30  L 13,30  L 13,31  L 12,31  L 12,32  L 11,32  L 11,33  L 10,33  L 10,35  L 9,35  L 9,36  L 8,36  L 8,39  L 7,39  L 7,41  L 6,41  L 6,45  L 5,45  L 5,48  L 4,48  L 4,51  L 3,51  L 3,55  L 2,55  L 2,60  L 1,60  L 1,76  L 2,76  L 2,84  L 3,84  L 3,86  L 4,86  L 4,88  L 5,88  L 5,89  L 6,89  L 6,90  L 9,90  L 9,91  L 11,91  L 11,92  L 14,92  L 14,93  L 20,93  L 20,94  L 21,94  L 21,93  L 22,93  L 22,94  L 25,94  L 25,93  L 28,93  L 28,92  L 32,92  L 32,91  Z  M 7,60  L 8,60  L 8,55  L 9,55  L 9,53  L 10,53  L 10,50  L 11,50  L 11,47  L 12,47  L 12,45  L 13,45  L 13,42  L 14,42  L 14,40  L 15,40  L 15,38  L 16,38  L 16,37  L 17,37  L 17,36  L 18,36  L 18,35  L 19,35  L 19,34  L 20,34  L 20,33  L 21,33  L 21,32  L 24,32  L 24,31  L 29,31  L 29,30  L 34,30  L 34,29  L 35,29  L 35,30  L 36,30  L 36,29  L 39,29  L 39,30  L 40,30  L 40,29  L 43,29  L 43,30  L 47,30  L 47,31  L 50,31  L 50,32  L 51,32  L 51,33  L 52,33  L 52,34  L 54,34  L 54,35  L 55,35  L 55,37  L 56,37  L 56,46  L 57,46  L 57,49  L 56,49  L 56,50  L 57,50  L 57,52  L 56,52  L 56,61  L 55,61  L 55,65  L 54,65  L 54,68  L 53,68  L 53,69  L 52,69  L 52,70  L 51,70  L 51,72  L 50,72  L 50,74  L 48,74  L 48,75  L 47,75  L 47,76  L 46,76  L 46,77  L 44,77  L 44,78  L 42,78  L 42,79  L 41,79  L 41,80  L 40,80  L 40,81  L 38,81  L 38,82  L 36,82  L 36,83  L 34,83  L 34,84  L 32,84  L 32,85  L 30,85  L 30,86  L 27,86  L 27,87  L 21,87  L 21,86  L 17,86  L 17,85  L 12,85  L 12,84  L 11,84  L 11,83  L 10,83  L 10,82  L 9,82  L 9,81  L 8,81  L 8,78  L 7,78  Z  " style="fill:rgb(0, 0, 0); fill-opacity:1.000; stroke:none;" />
 <path d="  M 95,119  L 96,119  L 96,120  L 102,120  L 102,110  L 103,110  L 103,109  L 102,109  L 102,106  L 103,106  L 103,105  L 102,105  L 102,102  L 103,102  L 103,101  L 102,101  L 102,99  L 103,99  L 103,97  L 102,97  L 102,95  L 103,95  L 103,13  L 102,13  L 102,6  L 101,6  L 101,3  L 100,3  L 100,1  L 97,1  L 97,0  L 94,0  L 94,1  L 93,1  L 93,6  L 94,6  L 94,10  L 95,10  L 95,15  L 96,15  L 96,26  L 97,26  L 97,40  L 96,40  L 96,42  L 95,42  L 95,43  L 90,43  L 90,44  L 83,44  L 83,45  L 71,45  L 71,46  L 70,46  L 70,45  L 69,45  L 69,46  L 68,46  L 68,50  L 69,50  L 69,51  L 77,51  L 77,50  L 93,50  L 93,49  L 94,49  L 94,50  L 96,50  L 96,81  L 95,81  L 95,82  L 96,82  L 96,85  L 95,85  L 95,86  L 96,86  L 96,88  L 95,88  L 95,91  L 96,91  L 96,92  L 95,92  Z  " style="fill:rgb(0, 0, 0); fill-opacity:1.000; stroke:none;" />
</svg>
