<?xml version="1.0" encoding="UTF-8" standalone="no"?>
<!DOCTYPE svg PUBLIC "-//W3C//DTD SVG 1.1//EN" 
  "http://www.w3.org/Graphics/SVG/1.1/DTD/svg11.dtd">
<svg width="104" height="173"
     xmlns="http://www.w3.org/2000/svg" version="1.1">
 <path d="  M 53,42  L 53,54  L 52,54  L 52,59  L 51,59  L 51,60  L 50,60  L 50,63  L 49,63  L 49,65  L 48,65  L 48,66  L 46,66  L 46,68  L 45,68  L 45,69  L 44,69  L 44,70  L 42,70  L 42,71  L 41,71  L 41,72  L 39,72  L 39,73  L 36,73  L 36,74  L 31,74  L 31,75  L 28,75  L 28,76  L 27,76  L 27,75  L 26,75  L 26,76  L 23,76  L 23,75  L 22,75  L 22,76  L 21,76  L 21,75  L 16,75  L 16,74  L 11,74  L 11,73  L 9,73  L 9,72  L 8,72  L 8,70  L 7,70  L 7,69  L 8,69  L 8,61  L 9,61  L 9,59  L 8,59  L 8,58  L 9,58  L 9,54  L 10,54  L 10,49  L 11,49  L 11,46  L 12,46  L 12,44  L 13,44  L 13,41  L 14,41  L 14,38  L 15,38  L 15,36  L 16,36  L 16,34  L 17,34  L 17,32  L 18,32  L 18,31  L 19,31  L 19,30  L 20,30  L 20,28  L 21,28  L 21,27  L 22,27  L 22,26  L 23,26  L 23,25  L 25,25  L 25,24  L 38,24  L 38,25  L 43,25  L 43,26  L 45,26  L 45,27  L 46,27  L 46,28  L 47,28  L 47,29  L 48,29  L 48,30  L 49,30  L 49,31  L 50,31  L 50,34  L 51,34  L 51,37  L 52,37  L 52,42  Z  M 27,17  L 27,18  L 25,18  L 25,19  L 22,19  L 22,20  L 21,20  L 21,21  L 20,21  L 20,22  L 18,22  L 18,23  L 17,23  L 17,25  L 15,25  L 15,26  L 14,26  L 14,27  L 13,27  L 13,29  L 12,29  L 12,30  L 11,30  L 11,31  L 10,31  L 10,32  L 9,32  L 9,35  L 8,35  L 8,37  L 7,37  L 7,40  L 6,40  L 6,44  L 5,44  L 5,47  L 4,47  L 4,49  L 3,49  L 3,53  L 2,53  L 2,60  L 1,60  L 1,73  L 0,73  L 0,74  L 1,74  L 1,76  L 2,76  L 2,77  L 3,77  L 3,78  L 5,78  L 5,79  L 7,79  L 7,80  L 11,80  L 11,81  L 15,81  L 15,82  L 17,82  L 17,83  L 28,83  L 28,82  L 33,82  L 33,81  L 35,81  L 35,80  L 39,80  L 39,79  L 41,79  L 41,78  L 43,78  L 43,77  L 45,77  L 45,76  L 46,76  L 46,75  L 48,75  L 48,74  L 50,74  L 50,73  L 51,73  L 51,72  L 52,72  L 52,70  L 53,70  L 53,69  L 54,69  L 54,68  L 55,68  L 55,66  L 56,66  L 56,65  L 57,65  L 57,62  L 58,62  L 58,60  L 59,60  L 59,56  L 60,56  L 60,43  L 59,43  L 59,39  L 58,39  L 58,36  L 57,36  L 57,33  L 56,33  L 56,31  L 55,31  L 55,28  L 54,28  L 54,27  L 53,27  L 53,26  L 52,26  L 52,25  L 51,25  L 51,24  L 50,24  L 50,23  L 49,23  L 49,22  L 47,22  L 47,21  L 45,21  L 45,20  L 42,20  L 42,19  L 36,19  L 36,18  L 32,18  L 32,17  Z  " style="fill:rgb(0, 0, 0); fill-opacity:1.000; stroke:none;" />
 <path d="  M 89,129  L 90,129  L 90,128  L 89,128  L 89,126  L 90,126  L 90,123  L 91,123  L 91,121  L 92,121  L 92,108  L 91,108  L 91,106  L 90,106  L 90,105  L 88,105  L 88,104  L 86,104  L 86,103  L 82,103  L 82,102  L 81,102  L 81,103  L 80,103  L 80,102  L 65,102  L 65,103  L 64,103  L 64,102  L 63,102  L 63,103  L 62,103  L 62,102  L 61,102  L 61,103  L 52,103  L 52,104  L 46,104  L 46,105  L 41,105  L 41,106  L 38,106  L 38,107  L 37,107  L 37,108  L 36,108  L 36,111  L 37,111  L 37,112  L 43,112  L 43,111  L 49,111  L 49,110  L 58,110  L 58,109  L 68,109  L 68,108  L 69,108  L 69,109  L 72,109  L 72,108  L 73,108  L 73,109  L 74,109  L 74,108  L 75,108  L 75,109  L 76,109  L 76,108  L 77,108  L 77,109  L 81,109  L 81,110  L 82,110  L 82,111  L 84,111  L 84,112  L 85,112  L 85,117  L 84,117  L 84,119  L 83,119  L 83,122  L 82,122  L 82,126  L 81,126  L 81,135  L 80,135  L 80,136  L 81,136  L 81,137  L 80,137  L 80,148  L 79,148  L 79,153  L 78,153  L 78,158  L 77,158  L 77,161  L 76,161  L 76,163  L 75,163  L 75,167  L 74,167  L 74,168  L 75,168  L 75,173  L 81,173  L 81,172  L 82,172  L 82,171  L 83,171  L 83,169  L 84,169  L 84,166  L 85,166  L 85,162  L 86,162  L 86,159  L 87,159  L 87,154  L 88,154  L 88,145  L 89,145  L 89,144  L 88,144  L 88,141  L 89,141  Z  " style="fill:rgb(0, 0, 0); fill-opacity:1.000; stroke:none;" />
 <path d="  M 103,76  L 102,76  L 102,75  L 103,75  L 103,59  L 104,59  L 104,9  L 103,9  L 103,6  L 104,6  L 104,4  L 103,4  L 103,2  L 102,2  L 102,1  L 97,1  L 97,3  L 96,3  L 96,15  L 97,15  L 97,36  L 96,36  L 96,37  L 91,37  L 91,38  L 86,38  L 86,39  L 77,39  L 77,40  L 76,40  L 76,39  L 75,39  L 75,40  L 65,40  L 65,41  L 64,41  L 64,45  L 65,45  L 65,47  L 67,47  L 67,48  L 69,48  L 69,47  L 74,47  L 74,46  L 80,46  L 80,45  L 81,45  L 81,46  L 82,46  L 82,45  L 91,45  L 91,44  L 92,44  L 92,45  L 93,45  L 93,44  L 96,44  L 96,45  L 97,45  L 97,49  L 96,49  L 96,72  L 95,72  L 95,96  L 96,96  L 96,97  L 100,97  L 100,96  L 101,96  L 101,94  L 102,94  L 102,83  L 103,83  L 103,82  L 102,82  L 102,81  L 103,81  L 103,80  L 102,80  L 102,79  L 103,79  L 103,78  L 102,78  L 102,77  L 103,77  Z  " style="fill:rgb(0, 0, 0); fill-opacity:1.000; stroke:none;" />
</svg>
