<?xml version="1.0" encoding="UTF-8" standalone="no"?>
<!DOCTYPE svg PUBLIC "-//W3C//DTD SVG 1.1//EN" 
  "http://www.w3.org/Graphics/SVG/1.1/DTD/svg11.dtd">
<svg width="102" height="176"
     xmlns="http://www.w3.org/2000/svg" version="1.1">
 <path d="  M 14,31  L 13,31  L 13,32  L 12,32  L 12,33  L 11,33  L 11,34  L 10,34  L 10,36  L 9,36  L 9,37  L 8,37  L 8,39  L 7,39  L 7,41  L 6,41  L 6,43  L 5,43  L 5,46  L 4,46  L 4,51  L 3,51  L 3,55  L 2,55  L 2,63  L 1,63  L 1,73  L 0,73  L 0,76  L 1,76  L 1,78  L 2,78  L 2,80  L 3,80  L 3,82  L 4,82  L 4,83  L 5,83  L 5,84  L 6,84  L 6,85  L 7,85  L 7,86  L 10,86  L 10,87  L 15,87  L 15,88  L 16,88  L 16,87  L 17,87  L 17,88  L 28,88  L 28,87  L 31,87  L 31,86  L 35,86  L 35,85  L 37,85  L 37,84  L 40,84  L 40,83  L 42,83  L 42,82  L 44,82  L 44,81  L 46,81  L 46,80  L 47,80  L 47,79  L 48,79  L 48,78  L 49,78  L 49,76  L 50,76  L 50,75  L 51,75  L 51,74  L 52,74  L 52,72  L 53,72  L 53,69  L 54,69  L 54,66  L 55,66  L 55,62  L 56,62  L 56,45  L 57,45  L 57,42  L 56,42  L 56,40  L 55,40  L 55,38  L 54,38  L 54,35  L 53,35  L 53,32  L 52,32  L 52,30  L 51,30  L 51,29  L 50,29  L 50,28  L 49,28  L 49,27  L 48,27  L 48,26  L 47,26  L 47,25  L 45,25  L 45,24  L 43,24  L 43,23  L 33,23  L 33,22  L 32,22  L 32,23  L 31,23  L 31,22  L 29,22  L 29,21  L 26,21  L 26,20  L 21,20  L 21,21  L 20,21  L 20,23  L 19,23  L 19,24  L 18,24  L 18,26  L 17,26  L 17,27  L 16,27  L 16,29  L 15,29  L 15,30  L 14,30  Z  M 43,74  L 42,74  L 42,75  L 41,75  L 41,76  L 40,76  L 40,77  L 38,77  L 38,78  L 36,78  L 36,79  L 34,79  L 34,80  L 28,80  L 28,81  L 19,81  L 19,80  L 14,80  L 14,79  L 11,79  L 11,78  L 9,78  L 9,76  L 8,76  L 8,60  L 9,60  L 9,56  L 10,56  L 10,52  L 11,52  L 11,48  L 12,48  L 12,45  L 13,45  L 13,42  L 14,42  L 14,40  L 15,40  L 15,39  L 16,39  L 16,37  L 17,37  L 17,35  L 18,35  L 18,34  L 19,34  L 19,33  L 20,33  L 20,32  L 21,32  L 21,31  L 22,31  L 22,30  L 23,30  L 23,29  L 25,29  L 25,28  L 26,28  L 26,29  L 27,29  L 27,28  L 28,28  L 28,29  L 34,29  L 34,30  L 35,30  L 35,29  L 36,29  L 36,30  L 40,30  L 40,31  L 42,31  L 42,32  L 44,32  L 44,33  L 45,33  L 45,34  L 46,34  L 46,35  L 47,35  L 47,36  L 48,36  L 48,45  L 49,45  L 49,56  L 48,56  L 48,63  L 47,63  L 47,67  L 46,67  L 46,69  L 45,69  L 45,72  L 44,72  L 44,73  L 43,73  Z  " style="fill:rgb(0, 0, 0); fill-opacity:1.000; stroke:none;" />
 <path d="  M 95,155  L 95,156  L 92,156  L 92,157  L 90,157  L 90,158  L 88,158  L 88,159  L 86,159  L 86,160  L 85,160  L 85,161  L 83,161  L 83,162  L 82,162  L 82,163  L 79,163  L 79,164  L 77,164  L 77,165  L 75,165  L 75,166  L 74,166  L 74,167  L 71,167  L 71,168  L 69,168  L 69,167  L 67,167  L 67,168  L 63,168  L 63,169  L 50,169  L 50,168  L 44,168  L 44,167  L 42,167  L 42,166  L 41,166  L 41,165  L 40,165  L 40,164  L 39,164  L 39,154  L 40,154  L 40,152  L 42,152  L 42,150  L 44,150  L 44,149  L 46,149  L 46,148  L 51,148  L 51,147  L 52,147  L 52,146  L 55,146  L 55,145  L 58,145  L 58,144  L 60,144  L 60,142  L 63,142  L 63,141  L 65,141  L 65,140  L 67,140  L 67,139  L 68,139  L 68,138  L 70,138  L 70,137  L 71,137  L 71,136  L 72,136  L 72,135  L 75,135  L 75,134  L 76,134  L 76,133  L 79,133  L 79,132  L 80,132  L 80,131  L 81,131  L 81,130  L 82,130  L 82,129  L 84,129  L 84,127  L 85,127  L 85,121  L 84,121  L 84,120  L 83,120  L 83,119  L 82,119  L 82,117  L 81,117  L 81,116  L 80,116  L 80,115  L 78,115  L 78,114  L 77,114  L 77,113  L 75,113  L 75,112  L 73,112  L 73,111  L 69,111  L 69,110  L 66,110  L 66,109  L 60,109  L 60,108  L 56,108  L 56,107  L 55,107  L 55,108  L 54,108  L 54,107  L 49,107  L 49,108  L 48,108  L 48,107  L 47,107  L 47,108  L 44,108  L 44,109  L 39,109  L 39,110  L 38,110  L 38,111  L 37,111  L 37,112  L 36,112  L 36,116  L 37,116  L 37,117  L 39,117  L 39,118  L 40,118  L 40,117  L 43,117  L 43,116  L 47,116  L 47,115  L 58,115  L 58,116  L 63,116  L 63,117  L 66,117  L 66,118  L 68,118  L 68,120  L 71,120  L 71,121  L 73,121  L 73,122  L 74,122  L 74,123  L 75,123  L 75,124  L 76,124  L 76,125  L 75,125  L 75,126  L 74,126  L 74,127  L 72,127  L 72,128  L 70,128  L 70,129  L 68,129  L 68,130  L 67,130  L 67,131  L 65,131  L 65,132  L 62,132  L 62,133  L 60,133  L 60,134  L 58,134  L 58,135  L 57,135  L 57,136  L 56,136  L 56,137  L 53,137  L 53,138  L 52,138  L 52,139  L 49,139  L 49,140  L 47,140  L 47,141  L 45,141  L 45,142  L 44,142  L 44,141  L 43,141  L 43,142  L 42,142  L 42,143  L 39,143  L 39,145  L 37,145  L 37,146  L 36,146  L 36,147  L 34,147  L 34,149  L 33,149  L 33,152  L 32,152  L 32,153  L 31,153  L 31,156  L 30,156  L 30,161  L 31,161  L 31,162  L 30,162  L 30,163  L 31,163  L 31,166  L 32,166  L 32,169  L 33,169  L 33,170  L 34,170  L 34,171  L 36,171  L 36,173  L 38,173  L 38,174  L 41,174  L 41,175  L 46,175  L 46,176  L 69,176  L 69,175  L 70,175  L 70,176  L 71,176  L 71,175  L 74,175  L 74,174  L 76,174  L 76,173  L 78,173  L 78,172  L 80,172  L 80,171  L 83,171  L 83,170  L 86,170  L 86,169  L 87,169  L 87,168  L 89,168  L 89,167  L 91,167  L 91,166  L 92,166  L 92,165  L 94,165  L 94,164  L 95,164  L 95,163  L 96,163  L 96,162  L 97,162  L 97,161  L 99,161  L 99,159  L 100,159  L 100,155  Z  " style="fill:rgb(0, 0, 0); fill-opacity:1.000; stroke:none;" />
 <path d="  M 94,101  L 95,101  L 95,102  L 96,102  L 96,103  L 98,103  L 98,102  L 100,102  L 100,101  L 101,101  L 101,100  L 102,100  L 102,93  L 101,93  L 101,92  L 102,92  L 102,91  L 101,91  L 101,90  L 102,90  L 102,11  L 101,11  L 101,8  L 102,8  L 102,7  L 101,7  L 101,2  L 100,2  L 100,1  L 99,1  L 99,0  L 95,0  L 95,2  L 94,2  L 94,14  L 95,14  L 95,15  L 94,15  L 94,16  L 95,16  L 95,19  L 94,19  L 94,20  L 95,20  L 95,23  L 94,23  L 94,24  L 95,24  L 95,34  L 94,34  L 94,36  L 90,36  L 90,37  L 82,37  L 82,38  L 75,38  L 75,39  L 70,39  L 70,40  L 69,40  L 69,39  L 67,39  L 67,40  L 63,40  L 63,41  L 62,41  L 62,42  L 61,42  L 61,47  L 62,47  L 62,48  L 66,48  L 66,47  L 76,47  L 76,46  L 77,46  L 77,47  L 78,47  L 78,46  L 81,46  L 81,45  L 86,45  L 86,44  L 87,44  L 87,45  L 89,45  L 89,44  L 94,44  L 94,48  L 95,48  L 95,50  L 94,50  L 94,53  L 95,53  L 95,55  L 94,55  L 94,56  L 95,56  L 95,58  L 94,58  L 94,60  L 95,60  L 95,62  L 94,62  L 94,65  L 95,65  L 95,66  L 94,66  L 94,69  L 95,69  L 95,70  L 94,70  Z  " style="fill:rgb(0, 0, 0); fill-opacity:1.000; stroke:none;" />
</svg>
