<?xml version="1.0" encoding="UTF-8" standalone="no"?>
<!DOCTYPE svg PUBLIC "-//W3C//DTD SVG 1.1//EN" 
  "http://www.w3.org/Graphics/SVG/1.1/DTD/svg11.dtd">
<svg width="103" height="113"
     xmlns="http://www.w3.org/2000/svg" version="1.1">
 <path d="  M 95,100  L 94,100  L 94,101  L 95,101  L 95,102  L 94,102  L 94,113  L 101,113  L 101,111  L 102,111  L 102,95  L 103,95  L 103,94  L 102,94  L 102,92  L 103,92  L 103,90  L 102,90  L 102,88  L 103,88  L 103,22  L 102,22  L 102,15  L 101,15  L 101,13  L 102,13  L 102,12  L 101,12  L 101,7  L 100,7  L 100,3  L 99,3  L 99,2  L 97,2  L 97,1  L 96,1  L 96,0  L 93,0  L 93,1  L 92,1  L 92,6  L 93,6  L 93,10  L 94,10  L 94,14  L 95,14  L 95,15  L 94,15  L 94,17  L 95,17  L 95,23  L 96,23  L 96,24  L 95,24  L 95,26  L 92,26  L 92,27  L 91,27  L 91,26  L 90,26  L 90,27  L 89,27  L 89,26  L 88,26  L 88,27  L 84,27  L 84,28  L 78,28  L 78,29  L 75,29  L 75,30  L 70,30  L 70,31  L 69,31  L 69,30  L 67,30  L 67,31  L 63,31  L 63,32  L 59,32  L 59,31  L 58,31  L 58,30  L 57,30  L 57,29  L 56,29  L 56,28  L 54,28  L 54,27  L 53,27  L 53,26  L 51,26  L 51,24  L 49,24  L 49,23  L 48,23  L 48,22  L 46,22  L 46,21  L 43,21  L 43,20  L 20,20  L 20,21  L 18,21  L 18,22  L 17,22  L 17,23  L 16,23  L 16,24  L 15,24  L 15,25  L 14,25  L 14,28  L 12,28  L 12,30  L 11,30  L 11,32  L 10,32  L 10,34  L 9,34  L 9,36  L 8,36  L 8,38  L 7,38  L 7,41  L 6,41  L 6,44  L 5,44  L 5,48  L 4,48  L 4,51  L 3,51  L 3,54  L 2,54  L 2,61  L 1,61  L 1,63  L 2,63  L 2,64  L 1,64  L 1,72  L 2,72  L 2,81  L 3,81  L 3,82  L 4,82  L 4,83  L 5,83  L 5,85  L 6,85  L 6,86  L 8,86  L 8,87  L 13,87  L 13,88  L 18,88  L 18,89  L 21,89  L 21,88  L 22,88  L 22,89  L 25,89  L 25,88  L 30,88  L 30,87  L 33,87  L 33,86  L 35,86  L 35,85  L 37,85  L 37,84  L 40,84  L 40,83  L 42,83  L 42,82  L 45,82  L 45,81  L 46,81  L 46,80  L 48,80  L 48,79  L 51,79  L 51,78  L 53,78  L 53,77  L 54,77  L 54,75  L 55,75  L 55,74  L 56,74  L 56,73  L 57,73  L 57,72  L 58,72  L 58,70  L 59,70  L 59,68  L 60,68  L 60,66  L 61,66  L 61,64  L 62,64  L 62,62  L 63,62  L 63,61  L 67,61  L 67,60  L 87,60  L 87,59  L 88,59  L 88,60  L 89,60  L 89,59  L 90,59  L 90,60  L 91,60  L 91,59  L 95,59  L 95,60  L 96,60  L 96,62  L 95,62  L 95,63  L 96,63  L 96,78  L 95,78  L 95,79  L 96,79  L 96,82  L 95,82  L 95,84  L 96,84  L 96,85  L 95,85  L 95,88  L 96,88  L 96,89  L 95,89  Z  M 95,34  L 95,39  L 96,39  L 96,52  L 94,52  L 94,53  L 88,53  L 88,54  L 87,54  L 87,53  L 86,53  L 86,54  L 62,54  L 62,48  L 63,48  L 63,41  L 64,41  L 64,38  L 68,38  L 68,37  L 70,37  L 70,36  L 73,36  L 73,35  L 74,35  L 74,36  L 75,36  L 75,35  L 78,35  L 78,34  L 79,34  L 79,35  L 80,35  L 80,34  Z  M 18,36  L 18,35  L 19,35  L 19,33  L 20,33  L 20,32  L 21,32  L 21,31  L 23,31  L 23,30  L 25,30  L 25,29  L 33,29  L 33,28  L 36,28  L 36,29  L 37,29  L 37,28  L 38,28  L 38,29  L 46,29  L 46,30  L 48,30  L 48,31  L 50,31  L 50,32  L 51,32  L 51,33  L 54,33  L 54,34  L 55,34  L 55,36  L 56,36  L 56,46  L 55,46  L 55,47  L 56,47  L 56,48  L 55,48  L 55,56  L 54,56  L 54,57  L 55,57  L 55,58  L 54,58  L 54,63  L 53,63  L 53,65  L 52,65  L 52,66  L 51,66  L 51,69  L 50,69  L 50,70  L 49,70  L 49,71  L 48,71  L 48,72  L 47,72  L 47,73  L 45,73  L 45,74  L 43,74  L 43,75  L 42,75  L 42,76  L 41,76  L 41,77  L 39,77  L 39,78  L 37,78  L 37,79  L 35,79  L 35,80  L 32,80  L 32,81  L 29,81  L 29,82  L 20,82  L 20,81  L 15,81  L 15,80  L 12,80  L 12,79  L 10,79  L 10,78  L 9,78  L 9,76  L 8,76  L 8,57  L 9,57  L 9,52  L 10,52  L 10,49  L 11,49  L 11,47  L 12,47  L 12,45  L 13,45  L 13,43  L 14,43  L 14,42  L 15,42  L 15,39  L 16,39  L 16,37  L 17,37  L 17,36  Z  " style="fill:rgb(0, 0, 0); fill-opacity:1.000; stroke:none;" />
</svg>
