<?xml version="1.0" encoding="UTF-8" standalone="no"?>
<!DOCTYPE svg PUBLIC "-//W3C//DTD SVG 1.1//EN" 
  "http://www.w3.org/Graphics/SVG/1.1/DTD/svg11.dtd">
<svg width="100" height="181"
     xmlns="http://www.w3.org/2000/svg" version="1.1">
 <path d="  M 94,85  L 93,85  L 93,86  L 94,86  L 94,89  L 93,89  L 93,91  L 94,91  L 94,93  L 93,93  L 93,103  L 98,103  L 98,102  L 100,102  L 100,9  L 99,9  L 99,2  L 98,2  L 98,1  L 92,1  L 92,2  L 91,2  L 91,4  L 92,4  L 92,11  L 93,11  L 93,24  L 92,24  L 92,25  L 89,25  L 89,26  L 84,26  L 84,27  L 80,27  L 80,28  L 79,28  L 79,27  L 77,27  L 77,28  L 72,28  L 72,29  L 66,29  L 66,30  L 63,30  L 63,31  L 62,31  L 62,30  L 61,30  L 61,31  L 60,31  L 60,32  L 54,32  L 54,31  L 51,31  L 51,30  L 49,30  L 49,29  L 47,29  L 47,28  L 46,28  L 46,27  L 43,27  L 43,26  L 39,26  L 39,25  L 38,25  L 38,26  L 37,26  L 37,25  L 30,25  L 30,24  L 26,24  L 26,23  L 22,23  L 22,24  L 20,24  L 20,25  L 18,25  L 18,27  L 17,27  L 17,28  L 16,28  L 16,29  L 15,29  L 15,30  L 14,30  L 14,31  L 13,31  L 13,33  L 11,33  L 11,35  L 9,35  L 9,37  L 8,37  L 8,39  L 7,39  L 7,41  L 6,41  L 6,43  L 5,43  L 5,45  L 4,45  L 4,50  L 3,50  L 3,53  L 2,53  L 2,60  L 1,60  L 1,81  L 2,81  L 2,82  L 3,82  L 3,83  L 4,83  L 4,85  L 6,85  L 6,86  L 7,86  L 7,87  L 8,87  L 8,86  L 10,86  L 10,87  L 12,87  L 12,88  L 17,88  L 17,89  L 26,89  L 26,88  L 31,88  L 31,87  L 34,87  L 34,86  L 38,86  L 38,85  L 39,85  L 39,84  L 42,84  L 42,83  L 44,83  L 44,82  L 45,82  L 45,81  L 46,81  L 46,80  L 47,80  L 47,79  L 48,79  L 48,78  L 49,78  L 49,77  L 50,77  L 50,75  L 51,75  L 51,73  L 52,73  L 52,71  L 53,71  L 53,68  L 54,68  L 54,62  L 55,62  L 55,60  L 54,60  L 54,58  L 55,58  L 55,56  L 54,56  L 54,55  L 55,55  L 55,52  L 54,52  L 54,51  L 55,51  L 55,39  L 56,39  L 56,38  L 65,38  L 65,37  L 69,37  L 69,36  L 71,36  L 71,35  L 77,35  L 77,34  L 84,34  L 84,33  L 87,33  L 87,34  L 88,34  L 88,33  L 90,33  L 90,32  L 93,32  L 93,36  L 94,36  L 94,37  L 93,37  L 93,38  L 94,38  L 94,41  L 93,41  L 93,42  L 94,42  L 94,45  L 93,45  L 93,46  L 94,46  L 94,49  L 93,49  L 93,52  L 90,52  L 90,51  L 88,51  L 88,52  L 86,52  L 86,53  L 80,53  L 80,54  L 79,54  L 79,53  L 78,53  L 78,54  L 75,54  L 75,55  L 69,55  L 69,56  L 62,56  L 62,57  L 61,57  L 61,58  L 60,58  L 60,61  L 59,61  L 59,64  L 60,64  L 60,65  L 62,65  L 62,64  L 67,64  L 67,63  L 73,63  L 73,62  L 79,62  L 79,61  L 81,61  L 81,60  L 86,60  L 86,59  L 87,59  L 87,60  L 90,60  L 90,59  L 93,59  L 93,66  L 94,66  L 94,68  L 93,68  L 93,70  L 94,70  L 94,72  L 93,72  L 93,74  L 94,74  L 94,77  L 93,77  L 93,78  L 94,78  L 94,81  L 93,81  L 93,82  L 94,82  Z  M 47,65  L 46,65  L 46,69  L 45,69  L 45,72  L 44,72  L 44,74  L 43,74  L 43,76  L 41,76  L 41,77  L 40,77  L 40,78  L 39,78  L 39,79  L 36,79  L 36,80  L 34,80  L 34,81  L 32,81  L 32,82  L 19,82  L 19,81  L 14,81  L 14,80  L 11,80  L 11,79  L 9,79  L 9,78  L 8,78  L 8,69  L 7,69  L 7,63  L 8,63  L 8,58  L 9,58  L 9,57  L 8,57  L 8,56  L 9,56  L 9,52  L 10,52  L 10,48  L 11,48  L 11,45  L 12,45  L 12,43  L 13,43  L 13,41  L 14,41  L 14,39  L 15,39  L 15,38  L 16,38  L 16,37  L 17,37  L 17,35  L 18,35  L 18,34  L 19,34  L 19,33  L 20,33  L 20,32  L 21,32  L 21,31  L 24,31  L 24,30  L 27,30  L 27,31  L 36,31  L 36,32  L 40,32  L 40,33  L 42,33  L 42,34  L 45,34  L 45,35  L 46,35  L 46,36  L 47,36  L 47,38  L 48,38  L 48,55  L 47,55  Z  " style="fill:rgb(0, 0, 0); fill-opacity:1.000; stroke:none;" />
 <path d="  M 71,181  L 71,180  L 75,180  L 75,179  L 77,179  L 77,178  L 80,178  L 80,177  L 83,177  L 83,176  L 85,176  L 85,175  L 87,175  L 87,174  L 89,174  L 89,173  L 91,173  L 91,172  L 93,172  L 93,171  L 95,171  L 95,170  L 96,170  L 96,169  L 97,169  L 97,168  L 98,168  L 98,167  L 99,167  L 99,166  L 100,166  L 100,160  L 96,160  L 96,161  L 94,161  L 94,162  L 92,162  L 92,163  L 91,163  L 91,164  L 90,164  L 90,165  L 88,165  L 88,166  L 86,166  L 86,167  L 85,167  L 85,168  L 83,168  L 83,169  L 81,169  L 81,170  L 78,170  L 78,171  L 77,171  L 77,170  L 76,170  L 76,171  L 74,171  L 74,172  L 73,172  L 73,173  L 72,173  L 72,172  L 71,172  L 71,173  L 68,173  L 68,174  L 67,174  L 67,173  L 66,173  L 66,174  L 63,174  L 63,175  L 53,175  L 53,174  L 47,174  L 47,173  L 42,173  L 42,172  L 41,172  L 41,171  L 40,171  L 40,170  L 39,170  L 39,169  L 38,169  L 38,168  L 37,168  L 37,158  L 38,158  L 38,156  L 39,156  L 39,155  L 40,155  L 40,154  L 41,154  L 41,153  L 42,153  L 42,152  L 45,152  L 45,151  L 48,151  L 48,150  L 50,150  L 50,149  L 52,149  L 52,148  L 55,148  L 55,147  L 58,147  L 58,146  L 59,146  L 59,145  L 60,145  L 60,144  L 63,144  L 63,143  L 65,143  L 65,142  L 67,142  L 67,141  L 68,141  L 68,140  L 70,140  L 70,139  L 72,139  L 72,138  L 74,138  L 74,137  L 75,137  L 75,136  L 77,136  L 77,135  L 79,135  L 79,133  L 80,133  L 80,132  L 82,132  L 82,131  L 84,131  L 84,130  L 85,130  L 85,127  L 86,127  L 86,122  L 85,122  L 85,119  L 84,119  L 84,118  L 85,118  L 85,117  L 84,117  L 84,116  L 83,116  L 83,115  L 82,115  L 82,114  L 81,114  L 81,113  L 78,113  L 78,112  L 77,112  L 77,111  L 74,111  L 74,110  L 72,110  L 72,109  L 68,109  L 68,108  L 63,108  L 63,107  L 54,107  L 54,106  L 47,106  L 47,107  L 40,107  L 40,108  L 37,108  L 37,109  L 35,109  L 35,111  L 34,111  L 34,112  L 35,112  L 35,115  L 42,115  L 42,114  L 47,114  L 47,113  L 48,113  L 48,114  L 49,114  L 49,113  L 53,113  L 53,114  L 55,114  L 55,113  L 56,113  L 56,114  L 63,114  L 63,115  L 68,115  L 68,116  L 70,116  L 70,117  L 71,117  L 71,118  L 73,118  L 73,119  L 74,119  L 74,120  L 76,120  L 76,122  L 77,122  L 77,127  L 75,127  L 75,128  L 73,128  L 73,129  L 72,129  L 72,130  L 70,130  L 70,131  L 69,131  L 69,132  L 67,132  L 67,133  L 65,133  L 65,134  L 63,134  L 63,135  L 61,135  L 61,136  L 60,136  L 60,137  L 58,137  L 58,138  L 56,138  L 56,139  L 55,139  L 55,140  L 53,140  L 53,141  L 50,141  L 50,142  L 48,142  L 48,143  L 46,143  L 46,144  L 43,144  L 43,145  L 41,145  L 41,146  L 40,146  L 40,147  L 38,147  L 38,148  L 37,148  L 37,149  L 34,149  L 34,150  L 33,150  L 33,151  L 32,151  L 32,153  L 31,153  L 31,154  L 30,154  L 30,158  L 29,158  L 29,159  L 28,159  L 28,164  L 29,164  L 29,167  L 30,167  L 30,168  L 29,168  L 29,169  L 30,169  L 30,172  L 31,172  L 31,173  L 32,173  L 32,175  L 33,175  L 33,176  L 35,176  L 35,177  L 37,177  L 37,178  L 38,178  L 38,179  L 40,179  L 40,180  L 45,180  L 45,181  Z  " style="fill:rgb(0, 0, 0); fill-opacity:1.000; stroke:none;" />
</svg>
