<?xml version="1.0" encoding="UTF-8" standalone="no"?>
<!DOCTYPE svg PUBLIC "-//W3C//DTD SVG 1.1//EN" 
  "http://www.w3.org/Graphics/SVG/1.1/DTD/svg11.dtd">
<svg width="106" height="99"
     xmlns="http://www.w3.org/2000/svg" version="1.1">
 <path d="  M 50,8  L 50,7  L 46,7  L 46,6  L 43,6  L 43,5  L 39,5  L 39,4  L 31,4  L 31,5  L 30,5  L 30,6  L 29,6  L 29,7  L 28,7  L 28,8  L 26,8  L 26,10  L 25,10  L 25,11  L 24,11  L 24,12  L 23,12  L 23,13  L 22,13  L 22,14  L 21,14  L 21,15  L 20,15  L 20,16  L 19,16  L 19,17  L 18,17  L 18,20  L 17,20  L 17,22  L 16,22  L 16,23  L 15,23  L 15,26  L 14,26  L 14,30  L 13,30  L 13,35  L 12,35  L 12,39  L 11,39  L 11,42  L 12,42  L 12,46  L 13,46  L 13,47  L 14,47  L 14,49  L 15,49  L 15,50  L 16,50  L 16,51  L 17,51  L 17,52  L 19,52  L 19,53  L 24,53  L 24,54  L 29,54  L 29,55  L 37,55  L 37,59  L 36,59  L 36,77  L 33,77  L 33,78  L 27,78  L 27,79  L 21,79  L 21,80  L 13,80  L 13,81  L 6,81  L 6,82  L 4,82  L 4,81  L 3,81  L 3,82  L 1,82  L 1,84  L 0,84  L 0,87  L 1,87  L 1,88  L 7,88  L 7,87  L 11,87  L 11,86  L 19,86  L 19,85  L 26,85  L 26,84  L 33,84  L 33,83  L 39,83  L 39,82  L 44,82  L 44,81  L 56,81  L 56,80  L 62,80  L 62,79  L 70,79  L 70,77  L 71,77  L 71,74  L 69,74  L 69,73  L 63,73  L 63,74  L 59,74  L 59,75  L 53,75  L 53,76  L 52,76  L 52,75  L 51,75  L 51,76  L 43,76  L 43,75  L 42,75  L 42,62  L 43,62  L 43,61  L 42,61  L 42,60  L 43,60  L 43,56  L 44,56  L 44,55  L 43,55  L 43,54  L 44,54  L 44,53  L 45,53  L 45,52  L 47,52  L 47,50  L 49,50  L 49,49  L 51,49  L 51,48  L 52,48  L 52,47  L 53,47  L 53,46  L 54,46  L 54,45  L 56,45  L 56,44  L 57,44  L 57,43  L 58,43  L 58,41  L 59,41  L 59,39  L 60,39  L 60,38  L 61,38  L 61,34  L 62,34  L 62,20  L 61,20  L 61,16  L 60,16  L 60,15  L 59,15  L 59,13  L 57,13  L 57,12  L 56,12  L 56,11  L 55,11  L 55,10  L 53,10  L 53,9  L 52,9  L 52,8  Z  M 19,45  L 19,43  L 18,43  L 18,41  L 17,41  L 17,38  L 18,38  L 18,33  L 19,33  L 19,30  L 20,30  L 20,27  L 21,27  L 21,25  L 22,25  L 22,24  L 23,24  L 23,23  L 24,23  L 24,21  L 25,21  L 25,20  L 26,20  L 26,18  L 27,18  L 27,17  L 28,17  L 28,16  L 29,16  L 29,15  L 31,15  L 31,13  L 32,13  L 32,11  L 33,11  L 33,10  L 37,10  L 37,11  L 45,11  L 45,12  L 46,12  L 46,13  L 49,13  L 49,14  L 50,14  L 50,15  L 52,15  L 52,16  L 53,16  L 53,17  L 54,17  L 54,18  L 55,18  L 55,19  L 56,19  L 56,32  L 55,32  L 55,35  L 54,35  L 54,37  L 53,37  L 53,38  L 52,38  L 52,40  L 51,40  L 51,41  L 50,41  L 50,42  L 49,42  L 49,43  L 47,43  L 47,44  L 46,44  L 46,45  L 45,45  L 45,46  L 42,46  L 42,47  L 40,47  L 40,48  L 30,48  L 30,47  L 25,47  L 25,46  L 22,46  L 22,45  Z  " style="fill:rgb(0, 0, 0); fill-opacity:1.000; stroke:none;" />
 <path d="  M 77,72  L 76,72  L 76,99  L 81,99  L 81,98  L 82,98  L 82,94  L 83,94  L 83,93  L 82,93  L 82,92  L 83,92  L 83,89  L 82,89  L 82,88  L 83,88  L 83,52  L 84,52  L 84,50  L 92,50  L 92,49  L 94,49  L 94,50  L 95,50  L 95,49  L 102,49  L 102,50  L 103,50  L 103,49  L 106,49  L 106,43  L 87,43  L 87,44  L 85,44  L 85,43  L 83,43  L 83,40  L 84,40  L 84,37  L 83,37  L 83,34  L 84,34  L 84,33  L 83,33  L 83,31  L 84,31  L 84,29  L 83,29  L 83,4  L 82,4  L 82,1  L 76,1  L 76,2  L 77,2  L 77,3  L 76,3  L 76,5  L 77,5  Z  " style="fill:rgb(0, 0, 0); fill-opacity:1.000; stroke:none;" />
</svg>
