<?xml version="1.0" encoding="UTF-8" standalone="no"?>
<!DOCTYPE svg PUBLIC "-//W3C//DTD SVG 1.1//EN" 
  "http://www.w3.org/Graphics/SVG/1.1/DTD/svg11.dtd">
<svg width="107" height="166"
     xmlns="http://www.w3.org/2000/svg" version="1.1">
 <path d="  M 67,83  L 66,83  L 66,81  L 68,81  L 68,80  L 87,80  L 87,79  L 89,79  L 89,80  L 91,80  L 91,79  L 98,79  L 98,78  L 104,78  L 104,77  L 106,77  L 106,75  L 107,75  L 107,69  L 102,69  L 102,70  L 98,70  L 98,71  L 95,71  L 95,72  L 87,72  L 87,73  L 65,73  L 65,74  L 64,74  L 64,73  L 62,73  L 62,74  L 50,74  L 50,75  L 48,75  L 48,74  L 47,74  L 47,75  L 42,75  L 42,76  L 35,76  L 35,77  L 30,77  L 30,78  L 28,78  L 28,77  L 27,77  L 27,78  L 22,78  L 22,79  L 9,79  L 9,80  L 8,80  L 8,79  L 5,79  L 5,80  L 0,80  L 0,83  L 1,83  L 1,84  L 2,84  L 2,85  L 3,85  L 3,86  L 4,86  L 4,85  L 5,85  L 5,86  L 16,86  L 16,85  L 17,85  L 17,86  L 19,86  L 19,85  L 26,85  L 26,84  L 34,84  L 34,83  L 35,83  L 35,84  L 36,84  L 36,83  L 45,83  L 45,82  L 47,82  L 47,83  L 50,83  L 50,82  L 54,82  L 54,81  L 57,81  L 57,82  L 58,82  L 58,91  L 59,91  L 59,104  L 58,104  L 58,116  L 57,116  L 57,120  L 58,120  L 58,126  L 59,126  L 59,125  L 62,125  L 62,124  L 63,124  L 63,123  L 64,123  L 64,121  L 65,121  L 65,120  L 64,120  L 64,119  L 65,119  L 65,114  L 66,114  L 66,113  L 65,113  L 65,112  L 66,112  L 66,104  L 67,104  L 67,103  L 66,103  L 66,102  L 67,102  L 67,101  L 66,101  L 66,100  L 67,100  Z  " style="fill:rgb(0, 0, 0); fill-opacity:1.000; stroke:none;" />
 <path d="  M 89,30  L 90,30  L 90,29  L 89,29  L 89,28  L 90,28  L 90,16  L 89,16  L 89,14  L 88,14  L 88,12  L 87,12  L 87,11  L 86,11  L 86,10  L 85,10  L 85,9  L 84,9  L 84,8  L 82,8  L 82,7  L 81,7  L 81,6  L 79,6  L 79,5  L 77,5  L 77,4  L 74,4  L 74,3  L 70,3  L 70,2  L 65,2  L 65,1  L 46,1  L 46,2  L 41,2  L 41,3  L 40,3  L 40,4  L 39,4  L 39,5  L 37,5  L 37,6  L 36,6  L 36,8  L 35,8  L 35,9  L 34,9  L 34,10  L 33,10  L 33,13  L 32,13  L 32,14  L 31,14  L 31,15  L 30,15  L 30,17  L 29,17  L 29,18  L 28,18  L 28,19  L 26,19  L 26,21  L 25,21  L 25,22  L 24,22  L 24,23  L 23,23  L 23,24  L 22,24  L 22,26  L 21,26  L 21,27  L 20,27  L 20,29  L 19,29  L 19,30  L 18,30  L 18,32  L 17,32  L 17,34  L 16,34  L 16,37  L 15,37  L 15,38  L 16,38  L 16,44  L 17,44  L 17,46  L 18,46  L 18,49  L 19,49  L 19,50  L 20,50  L 20,51  L 21,51  L 21,52  L 22,52  L 22,53  L 23,53  L 23,54  L 24,54  L 24,55  L 25,55  L 25,56  L 26,56  L 26,57  L 28,57  L 28,59  L 31,59  L 31,60  L 33,60  L 33,61  L 36,61  L 36,62  L 41,62  L 41,63  L 42,63  L 42,62  L 56,62  L 56,61  L 62,61  L 62,60  L 64,60  L 64,59  L 67,59  L 67,58  L 70,58  L 70,57  L 72,57  L 72,56  L 73,56  L 73,55  L 75,55  L 75,54  L 76,54  L 76,53  L 77,53  L 77,52  L 79,52  L 79,51  L 80,51  L 80,50  L 81,50  L 81,48  L 82,48  L 82,47  L 83,47  L 83,45  L 84,45  L 84,44  L 85,44  L 85,42  L 86,42  L 86,41  L 85,41  L 85,40  L 86,40  L 86,38  L 87,38  L 87,34  L 88,34  L 88,32  L 89,32  Z  M 81,17  L 82,17  L 82,22  L 83,22  L 83,23  L 82,23  L 82,27  L 81,27  L 81,30  L 80,30  L 80,33  L 79,33  L 79,37  L 78,37  L 78,39  L 77,39  L 77,41  L 76,41  L 76,43  L 75,43  L 75,44  L 74,44  L 74,45  L 73,45  L 73,46  L 72,46  L 72,48  L 69,48  L 69,49  L 67,49  L 67,50  L 64,50  L 64,51  L 62,51  L 62,52  L 60,52  L 60,53  L 57,53  L 57,54  L 56,54  L 56,53  L 55,53  L 55,54  L 53,54  L 53,55  L 39,55  L 39,54  L 38,54  L 38,55  L 37,55  L 37,54  L 35,54  L 35,53  L 33,53  L 33,52  L 32,52  L 32,51  L 31,51  L 31,50  L 30,50  L 30,49  L 29,49  L 29,48  L 27,48  L 27,47  L 26,47  L 26,45  L 25,45  L 25,44  L 24,44  L 24,41  L 23,41  L 23,37  L 24,37  L 24,35  L 25,35  L 25,34  L 26,34  L 26,32  L 27,32  L 27,30  L 28,30  L 28,28  L 30,28  L 30,26  L 31,26  L 31,25  L 32,25  L 32,24  L 33,24  L 33,23  L 34,23  L 34,22  L 35,22  L 35,21  L 36,21  L 36,20  L 37,20  L 37,18  L 38,18  L 38,17  L 39,17  L 39,16  L 40,16  L 40,15  L 41,15  L 41,14  L 42,14  L 42,13  L 43,13  L 43,11  L 45,11  L 45,10  L 48,10  L 48,9  L 57,9  L 57,8  L 58,8  L 58,9  L 69,9  L 69,10  L 72,10  L 72,11  L 75,11  L 75,12  L 77,12  L 77,13  L 78,13  L 78,14  L 79,14  L 79,15  L 80,15  L 80,16  L 81,16  Z  " style="fill:rgb(0, 0, 0); fill-opacity:1.000; stroke:none;" />
 <path d="  M 23,127  L 22,127  L 22,136  L 21,136  L 21,137  L 22,137  L 22,139  L 21,139  L 21,151  L 20,151  L 20,153  L 21,153  L 21,155  L 20,155  L 20,164  L 21,164  L 21,166  L 36,166  L 36,165  L 37,165  L 37,166  L 40,166  L 40,165  L 42,165  L 42,166  L 43,166  L 43,165  L 46,165  L 46,166  L 47,166  L 47,165  L 56,165  L 56,164  L 64,164  L 64,163  L 65,163  L 65,164  L 66,164  L 66,163  L 76,163  L 76,162  L 88,162  L 88,161  L 92,161  L 92,160  L 93,160  L 93,161  L 94,161  L 94,160  L 97,160  L 97,159  L 100,159  L 100,158  L 103,158  L 103,157  L 104,157  L 104,156  L 105,156  L 105,153  L 104,153  L 104,152  L 103,152  L 103,151  L 98,151  L 98,152  L 94,152  L 94,153  L 87,153  L 87,154  L 80,154  L 80,155  L 69,155  L 69,156  L 68,156  L 68,155  L 66,155  L 66,156  L 64,156  L 64,155  L 63,155  L 63,156  L 54,156  L 54,157  L 42,157  L 42,158  L 40,158  L 40,157  L 39,157  L 39,158  L 36,158  L 36,157  L 35,157  L 35,158  L 28,158  L 28,157  L 27,157  L 27,154  L 28,154  L 28,152  L 27,152  L 27,151  L 28,151  L 28,145  L 29,145  L 29,128  L 30,128  L 30,119  L 31,119  L 31,113  L 30,113  L 30,112  L 27,112  L 27,113  L 25,113  L 25,114  L 24,114  L 24,115  L 23,115  Z  " style="fill:rgb(0, 0, 0); fill-opacity:1.000; stroke:none;" />
</svg>
