<?xml version="1.0" encoding="UTF-8" standalone="no"?>
<!DOCTYPE svg PUBLIC "-//W3C//DTD SVG 1.1//EN" 
  "http://www.w3.org/Graphics/SVG/1.1/DTD/svg11.dtd">
<svg width="108" height="186"
     xmlns="http://www.w3.org/2000/svg" version="1.1">
 <path d="  M 55,76  L 55,75  L 54,75  L 54,76  L 49,76  L 49,77  L 23,77  L 23,78  L 18,78  L 18,79  L 11,79  L 11,80  L 8,80  L 8,81  L 3,81  L 3,82  L 2,82  L 2,83  L 0,83  L 0,86  L 1,86  L 1,87  L 2,87  L 2,88  L 4,88  L 4,89  L 5,89  L 5,88  L 6,88  L 6,89  L 7,89  L 7,88  L 9,88  L 9,87  L 16,87  L 16,86  L 22,86  L 22,85  L 32,85  L 32,84  L 33,84  L 33,85  L 36,85  L 36,84  L 48,84  L 48,83  L 53,83  L 53,82  L 55,82  L 55,83  L 56,83  L 56,92  L 57,92  L 57,93  L 56,93  L 56,111  L 55,111  L 55,122  L 54,122  L 54,123  L 53,123  L 53,124  L 52,124  L 52,123  L 49,123  L 49,122  L 48,122  L 48,123  L 39,123  L 39,124  L 38,124  L 38,123  L 35,123  L 35,124  L 34,124  L 34,123  L 33,123  L 33,124  L 26,124  L 26,129  L 27,129  L 27,130  L 30,130  L 30,131  L 36,131  L 36,130  L 38,130  L 38,131  L 39,131  L 39,130  L 51,130  L 51,129  L 54,129  L 54,130  L 63,130  L 63,129  L 64,129  L 64,130  L 65,130  L 65,129  L 70,129  L 70,130  L 74,130  L 74,131  L 76,131  L 76,132  L 79,132  L 79,134  L 80,134  L 80,135  L 79,135  L 79,137  L 80,137  L 80,140  L 79,140  L 79,144  L 78,144  L 78,145  L 76,145  L 76,146  L 73,146  L 73,147  L 69,147  L 69,148  L 66,148  L 66,149  L 65,149  L 65,148  L 64,148  L 64,149  L 59,149  L 59,150  L 58,150  L 58,149  L 57,149  L 57,150  L 54,150  L 54,151  L 44,151  L 44,152  L 43,152  L 43,151  L 40,151  L 40,152  L 39,152  L 39,151  L 30,151  L 30,150  L 28,150  L 28,151  L 24,151  L 24,152  L 22,152  L 22,153  L 21,153  L 21,154  L 20,154  L 20,167  L 21,167  L 21,172  L 22,172  L 22,175  L 23,175  L 23,177  L 24,177  L 24,179  L 25,179  L 25,180  L 26,180  L 26,181  L 27,181  L 27,182  L 28,182  L 28,183  L 29,183  L 29,184  L 31,184  L 31,185  L 34,185  L 34,186  L 69,186  L 69,185  L 74,185  L 74,184  L 77,184  L 77,183  L 80,183  L 80,182  L 85,182  L 85,181  L 88,181  L 88,180  L 90,180  L 90,179  L 93,179  L 93,178  L 96,178  L 96,177  L 99,177  L 99,176  L 101,176  L 101,175  L 103,175  L 103,174  L 105,174  L 105,173  L 106,173  L 106,171  L 104,171  L 104,170  L 95,170  L 95,171  L 93,171  L 93,172  L 91,172  L 91,173  L 87,173  L 87,174  L 85,174  L 85,175  L 84,175  L 84,174  L 83,174  L 83,175  L 80,175  L 80,176  L 78,176  L 78,177  L 73,177  L 73,178  L 70,178  L 70,179  L 64,179  L 64,180  L 63,180  L 63,179  L 61,179  L 61,180  L 42,180  L 42,179  L 36,179  L 36,178  L 34,178  L 34,177  L 32,177  L 32,176  L 31,176  L 31,175  L 29,175  L 29,173  L 28,173  L 28,169  L 27,169  L 27,160  L 28,160  L 28,158  L 29,158  L 29,157  L 30,157  L 30,158  L 35,158  L 35,159  L 36,159  L 36,158  L 37,158  L 37,159  L 45,159  L 45,160  L 46,160  L 46,159  L 49,159  L 49,160  L 51,160  L 51,159  L 53,159  L 53,160  L 54,160  L 54,159  L 57,159  L 57,160  L 58,160  L 58,159  L 60,159  L 60,158  L 61,158  L 61,159  L 62,159  L 62,158  L 67,158  L 67,157  L 69,157  L 69,156  L 72,156  L 72,155  L 73,155  L 73,156  L 74,156  L 74,155  L 75,155  L 75,154  L 77,154  L 77,153  L 80,153  L 80,152  L 82,152  L 82,151  L 84,151  L 84,150  L 86,150  L 86,146  L 87,146  L 87,145  L 88,145  L 88,141  L 87,141  L 87,138  L 88,138  L 88,137  L 87,137  L 87,135  L 88,135  L 88,132  L 87,132  L 87,130  L 86,130  L 86,128  L 85,128  L 85,127  L 84,127  L 84,126  L 83,126  L 83,125  L 81,125  L 81,124  L 79,124  L 79,123  L 77,123  L 77,122  L 75,122  L 75,121  L 71,121  L 71,120  L 70,120  L 70,121  L 69,121  L 69,120  L 63,120  L 63,99  L 64,99  L 64,98  L 63,98  L 63,96  L 64,96  L 64,95  L 63,95  L 63,94  L 64,94  L 64,93  L 63,93  L 63,92  L 64,92  L 64,83  L 65,83  L 65,82  L 100,82  L 100,81  L 101,81  L 101,82  L 102,82  L 102,81  L 107,81  L 107,80  L 108,80  L 108,74  L 107,74  L 107,73  L 102,73  L 102,74  L 95,74  L 95,75  L 94,75  L 94,74  L 93,74  L 93,75  L 84,75  L 84,76  L 83,76  L 83,75  L 69,75  L 69,76  L 68,76  L 68,75  L 66,75  L 66,76  L 63,76  L 63,75  L 58,75  L 58,76  Z  " style="fill:rgb(0, 0, 0); fill-opacity:1.000; stroke:none;" />
 <path d="  M 47,68  L 47,69  L 54,69  L 54,68  L 58,68  L 58,67  L 59,67  L 59,68  L 60,68  L 60,67  L 62,67  L 62,66  L 65,66  L 65,65  L 66,65  L 66,64  L 68,64  L 68,63  L 69,63  L 69,62  L 73,62  L 73,61  L 76,61  L 76,60  L 78,60  L 78,59  L 79,59  L 79,58  L 81,58  L 81,57  L 82,57  L 82,56  L 83,56  L 83,54  L 84,54  L 84,53  L 85,53  L 85,51  L 86,51  L 86,49  L 87,49  L 87,48  L 88,48  L 88,47  L 89,47  L 89,44  L 90,44  L 90,43  L 91,43  L 91,39  L 92,39  L 92,35  L 93,35  L 93,30  L 94,30  L 94,28  L 93,28  L 93,23  L 92,23  L 92,21  L 91,21  L 91,19  L 90,19  L 90,17  L 89,17  L 89,16  L 88,16  L 88,14  L 86,14  L 86,13  L 85,13  L 85,12  L 84,12  L 84,11  L 83,11  L 83,10  L 82,10  L 82,9  L 81,9  L 81,8  L 80,8  L 80,7  L 79,7  L 79,6  L 77,6  L 77,5  L 75,5  L 75,4  L 73,4  L 73,3  L 72,3  L 72,2  L 69,2  L 69,1  L 50,1  L 50,2  L 49,2  L 49,1  L 48,1  L 48,2  L 47,2  L 47,3  L 45,3  L 45,4  L 43,4  L 43,5  L 41,5  L 41,6  L 40,6  L 40,7  L 39,7  L 39,8  L 38,8  L 38,9  L 37,9  L 37,10  L 36,10  L 36,11  L 35,11  L 35,16  L 34,16  L 34,17  L 33,17  L 33,19  L 32,19  L 32,20  L 31,20  L 31,22  L 30,22  L 30,24  L 29,24  L 29,26  L 28,26  L 28,28  L 27,28  L 27,31  L 26,31  L 26,33  L 25,33  L 25,34  L 24,34  L 24,36  L 23,36  L 23,38  L 22,38  L 22,39  L 21,39  L 21,40  L 20,40  L 20,42  L 19,42  L 19,43  L 18,43  L 18,47  L 17,47  L 17,48  L 18,48  L 18,52  L 19,52  L 19,53  L 20,53  L 20,54  L 21,54  L 21,55  L 22,55  L 22,56  L 23,56  L 23,57  L 24,57  L 24,58  L 25,58  L 25,59  L 26,59  L 26,60  L 27,60  L 27,61  L 28,61  L 28,62  L 30,62  L 30,63  L 31,63  L 31,64  L 34,64  L 34,66  L 38,66  L 38,67  L 41,67  L 41,68  Z  M 40,21  L 40,20  L 41,20  L 41,19  L 42,19  L 42,18  L 43,18  L 43,16  L 44,16  L 44,15  L 46,15  L 46,14  L 48,14  L 48,13  L 49,13  L 49,12  L 51,12  L 51,11  L 56,11  L 56,10  L 69,10  L 69,11  L 71,11  L 71,12  L 74,12  L 74,13  L 75,13  L 75,14  L 77,14  L 77,15  L 78,15  L 78,16  L 79,16  L 79,18  L 81,18  L 81,19  L 82,19  L 82,20  L 83,20  L 83,24  L 84,24  L 84,25  L 85,25  L 85,27  L 84,27  L 84,30  L 85,30  L 85,38  L 84,38  L 84,39  L 83,39  L 83,41  L 82,41  L 82,43  L 81,43  L 81,45  L 80,45  L 80,47  L 79,47  L 79,48  L 78,48  L 78,49  L 77,49  L 77,50  L 76,50  L 76,51  L 74,51  L 74,52  L 72,52  L 72,53  L 71,53  L 71,54  L 67,54  L 67,55  L 66,55  L 66,56  L 64,56  L 64,57  L 62,57  L 62,58  L 59,58  L 59,59  L 56,59  L 56,60  L 54,60  L 54,61  L 46,61  L 46,60  L 41,60  L 41,59  L 38,59  L 38,58  L 36,58  L 36,57  L 34,57  L 34,56  L 33,56  L 33,55  L 32,55  L 32,54  L 30,54  L 30,52  L 29,52  L 29,51  L 28,51  L 28,49  L 26,49  L 26,47  L 25,47  L 25,44  L 26,44  L 26,43  L 27,43  L 27,42  L 28,42  L 28,41  L 29,41  L 29,39  L 30,39  L 30,38  L 31,38  L 31,36  L 32,36  L 32,34  L 33,34  L 33,32  L 34,32  L 34,30  L 35,30  L 35,28  L 36,28  L 36,27  L 37,27  L 37,25  L 38,25  L 38,24  L 39,24  L 39,21  Z  " style="fill:rgb(0, 0, 0); fill-opacity:1.000; stroke:none;" />
</svg>
