<?xml version="1.0" encoding="UTF-8" standalone="no"?>
<!DOCTYPE svg PUBLIC "-//W3C//DTD SVG 1.1//EN" 
  "http://www.w3.org/Graphics/SVG/1.1/DTD/svg11.dtd">
<svg width="111" height="181"
     xmlns="http://www.w3.org/2000/svg" version="1.1">
 <path d="  M 41,116  L 40,116  L 40,117  L 37,117  L 37,116  L 30,116  L 30,117  L 25,117  L 25,118  L 22,118  L 22,119  L 19,119  L 19,120  L 18,120  L 18,121  L 17,121  L 17,124  L 18,124  L 18,125  L 19,125  L 19,126  L 22,126  L 22,125  L 26,125  L 26,124  L 35,124  L 35,123  L 36,123  L 36,124  L 37,124  L 37,123  L 50,123  L 50,122  L 53,122  L 53,123  L 54,123  L 54,122  L 60,122  L 60,121  L 70,121  L 70,120  L 73,120  L 73,121  L 75,121  L 75,122  L 76,122  L 76,124  L 77,124  L 77,125  L 76,125  L 76,126  L 75,126  L 75,129  L 74,129  L 74,133  L 73,133  L 73,139  L 72,139  L 72,145  L 71,145  L 71,150  L 70,150  L 70,153  L 69,153  L 69,159  L 68,159  L 68,165  L 67,165  L 67,173  L 66,173  L 66,178  L 67,178  L 67,180  L 69,180  L 69,181  L 74,181  L 74,176  L 75,176  L 75,172  L 76,172  L 76,171  L 75,171  L 75,170  L 76,170  L 76,166  L 77,166  L 77,165  L 76,165  L 76,164  L 77,164  L 77,161  L 78,161  L 78,154  L 79,154  L 79,152  L 80,152  L 80,151  L 79,151  L 79,149  L 80,149  L 80,144  L 81,144  L 81,138  L 82,138  L 82,135  L 83,135  L 83,132  L 84,132  L 84,128  L 85,128  L 85,118  L 84,118  L 84,115  L 82,115  L 82,114  L 81,114  L 81,113  L 79,113  L 79,111  L 78,111  L 78,109  L 77,109  L 77,107  L 76,107  L 76,106  L 77,106  L 77,103  L 76,103  L 76,102  L 77,102  L 77,101  L 76,101  L 76,100  L 77,100  L 77,99  L 76,99  L 76,98  L 77,98  L 77,97  L 76,97  L 76,96  L 77,96  L 77,95  L 76,95  L 76,94  L 77,94  L 77,79  L 78,79  L 78,78  L 77,78  L 77,73  L 78,73  L 78,72  L 80,72  L 80,71  L 81,71  L 81,72  L 82,72  L 82,71  L 87,71  L 87,70  L 95,70  L 95,69  L 100,69  L 100,68  L 105,68  L 105,67  L 107,67  L 107,66  L 108,66  L 108,65  L 109,65  L 109,64  L 110,64  L 110,63  L 111,63  L 111,60  L 110,60  L 110,59  L 104,59  L 104,60  L 101,60  L 101,61  L 96,61  L 96,62  L 91,62  L 91,63  L 88,63  L 88,64  L 87,64  L 87,63  L 86,63  L 86,64  L 85,64  L 85,63  L 84,63  L 84,64  L 79,64  L 79,65  L 72,65  L 72,66  L 71,66  L 71,65  L 70,65  L 70,66  L 62,66  L 62,67  L 61,67  L 61,66  L 60,66  L 60,67  L 59,67  L 59,66  L 58,66  L 58,67  L 48,67  L 48,68  L 45,68  L 45,67  L 44,67  L 44,68  L 37,68  L 37,69  L 35,69  L 35,68  L 34,68  L 34,69  L 26,69  L 26,70  L 22,70  L 22,71  L 16,71  L 16,72  L 9,72  L 9,73  L 8,73  L 8,72  L 7,72  L 7,73  L 3,73  L 3,74  L 1,74  L 1,75  L 0,75  L 0,79  L 3,79  L 3,80  L 8,80  L 8,79  L 9,79  L 9,80  L 10,80  L 10,79  L 15,79  L 15,78  L 20,78  L 20,77  L 21,77  L 21,78  L 22,78  L 22,77  L 28,77  L 28,76  L 40,76  L 40,77  L 41,77  Z  M 62,114  L 62,115  L 61,115  L 61,114  L 60,114  L 60,115  L 59,115  L 59,114  L 58,114  L 58,115  L 47,115  L 47,113  L 48,113  L 48,76  L 47,76  L 47,75  L 50,75  L 50,74  L 56,74  L 56,73  L 62,73  L 62,72  L 63,72  L 63,73  L 64,73  L 64,72  L 67,72  L 67,73  L 69,73  L 69,75  L 68,75  L 68,76  L 69,76  L 69,114  Z  " style="fill:rgb(0, 0, 0); fill-opacity:1.000; stroke:none;" />
 <path d="  M 40,21  L 40,20  L 41,20  L 41,19  L 42,19  L 42,18  L 43,18  L 43,16  L 44,16  L 44,15  L 45,15  L 45,14  L 46,14  L 46,13  L 47,13  L 47,12  L 49,12  L 49,11  L 53,11  L 53,10  L 57,10  L 57,9  L 65,9  L 65,10  L 66,10  L 66,9  L 67,9  L 67,10  L 72,10  L 72,11  L 75,11  L 75,12  L 78,12  L 78,13  L 80,13  L 80,14  L 81,14  L 81,16  L 82,16  L 82,18  L 83,18  L 83,27  L 82,27  L 82,31  L 81,31  L 81,36  L 80,36  L 80,38  L 79,38  L 79,41  L 78,41  L 78,43  L 77,43  L 77,44  L 76,44  L 76,45  L 74,45  L 74,46  L 73,46  L 73,47  L 71,47  L 71,48  L 69,48  L 69,49  L 67,49  L 67,50  L 65,50  L 65,51  L 63,51  L 63,52  L 61,52  L 61,53  L 58,53  L 58,54  L 54,54  L 54,55  L 38,55  L 38,54  L 36,54  L 36,53  L 34,53  L 34,52  L 33,52  L 33,51  L 31,51  L 31,50  L 30,50  L 30,49  L 29,49  L 29,48  L 28,48  L 28,46  L 27,46  L 27,44  L 26,44  L 26,39  L 27,39  L 27,37  L 28,37  L 28,35  L 29,35  L 29,33  L 30,33  L 30,32  L 31,32  L 31,30  L 32,30  L 32,29  L 33,29  L 33,27  L 34,27  L 34,26  L 36,26  L 36,25  L 37,25  L 37,24  L 38,24  L 38,22  L 39,22  L 39,21  Z  M 65,59  L 65,58  L 67,58  L 67,57  L 69,57  L 69,56  L 74,56  L 74,55  L 75,55  L 75,54  L 76,54  L 76,53  L 77,53  L 77,52  L 79,52  L 79,51  L 81,51  L 81,50  L 82,50  L 82,48  L 83,48  L 83,47  L 84,47  L 84,45  L 85,45  L 85,43  L 86,43  L 86,40  L 88,40  L 88,39  L 87,39  L 87,38  L 88,38  L 88,34  L 89,34  L 89,31  L 90,31  L 90,28  L 91,28  L 91,16  L 90,16  L 90,14  L 89,14  L 89,12  L 88,12  L 88,11  L 87,11  L 87,10  L 86,10  L 86,9  L 84,9  L 84,7  L 82,7  L 82,6  L 80,6  L 80,5  L 77,5  L 77,4  L 74,4  L 74,3  L 70,3  L 70,2  L 69,2  L 69,3  L 68,3  L 68,2  L 65,2  L 65,1  L 64,1  L 64,2  L 63,2  L 63,1  L 53,1  L 53,2  L 50,2  L 50,3  L 46,3  L 46,4  L 45,4  L 45,5  L 43,5  L 43,6  L 42,6  L 42,7  L 41,7  L 41,9  L 40,9  L 40,10  L 39,10  L 39,11  L 38,11  L 38,12  L 37,12  L 37,14  L 36,14  L 36,15  L 35,15  L 35,17  L 34,17  L 34,18  L 33,18  L 33,19  L 32,19  L 32,20  L 31,20  L 31,21  L 30,21  L 30,23  L 28,23  L 28,25  L 27,25  L 27,26  L 26,26  L 26,27  L 25,27  L 25,29  L 24,29  L 24,30  L 23,30  L 23,32  L 22,32  L 22,33  L 21,33  L 21,34  L 20,34  L 20,37  L 19,37  L 19,46  L 20,46  L 20,48  L 21,48  L 21,51  L 22,51  L 22,53  L 24,53  L 24,55  L 26,55  L 26,57  L 28,57  L 28,58  L 30,58  L 30,59  L 31,59  L 31,60  L 34,60  L 34,61  L 35,61  L 35,62  L 54,62  L 54,61  L 60,61  L 60,60  L 63,60  L 63,59  Z  " style="fill:rgb(0, 0, 0); fill-opacity:1.000; stroke:none;" />
</svg>
