<?xml version="1.0" encoding="UTF-8" standalone="no"?>
<!DOCTYPE svg PUBLIC "-//W3C//DTD SVG 1.1//EN" 
  "http://www.w3.org/Graphics/SVG/1.1/DTD/svg11.dtd">
<svg width="102" height="167"
     xmlns="http://www.w3.org/2000/svg" version="1.1">
 <path d="  M 12,77  L 12,78  L 11,78  L 11,77  L 10,77  L 10,78  L 6,78  L 6,79  L 1,79  L 1,81  L 0,81  L 0,82  L 1,82  L 1,83  L 0,83  L 0,84  L 1,84  L 1,85  L 2,85  L 2,86  L 3,86  L 3,85  L 4,85  L 4,86  L 9,86  L 9,85  L 11,85  L 11,84  L 19,84  L 19,83  L 20,83  L 20,84  L 21,84  L 21,83  L 27,83  L 27,82  L 47,82  L 47,81  L 48,81  L 48,82  L 50,82  L 50,81  L 52,81  L 52,82  L 81,82  L 81,83  L 82,83  L 82,82  L 97,82  L 97,81  L 98,81  L 98,80  L 101,80  L 101,79  L 102,79  L 102,73  L 97,73  L 97,74  L 90,74  L 90,75  L 68,75  L 68,74  L 55,74  L 55,73  L 54,73  L 54,74  L 51,74  L 51,73  L 50,73  L 50,74  L 47,74  L 47,73  L 46,73  L 46,74  L 38,74  L 38,75  L 28,75  L 28,76  L 19,76  L 19,77  Z  " style="fill:rgb(0, 0, 0); fill-opacity:1.000; stroke:none;" />
 <path d="  M 18,30  L 17,30  L 17,32  L 16,32  L 16,33  L 15,33  L 15,35  L 14,35  L 14,38  L 15,38  L 15,43  L 16,43  L 16,45  L 17,45  L 17,46  L 18,46  L 18,47  L 19,47  L 19,49  L 20,49  L 20,50  L 21,50  L 21,51  L 22,51  L 22,52  L 23,52  L 23,54  L 25,54  L 25,56  L 28,56  L 28,57  L 29,57  L 29,58  L 30,58  L 30,59  L 32,59  L 32,60  L 39,60  L 39,61  L 51,61  L 51,60  L 57,60  L 57,59  L 61,59  L 61,58  L 63,58  L 63,57  L 65,57  L 65,56  L 67,56  L 67,55  L 68,55  L 68,54  L 71,54  L 71,53  L 72,53  L 72,52  L 74,52  L 74,51  L 76,51  L 76,50  L 78,50  L 78,49  L 79,49  L 79,47  L 80,47  L 80,46  L 81,46  L 81,45  L 82,45  L 82,43  L 83,43  L 83,42  L 84,42  L 84,41  L 85,41  L 85,40  L 86,40  L 86,36  L 87,36  L 87,35  L 88,35  L 88,34  L 89,34  L 89,31  L 90,31  L 90,30  L 91,30  L 91,29  L 92,29  L 92,27  L 93,27  L 93,24  L 94,24  L 94,21  L 93,21  L 93,20  L 94,20  L 94,19  L 93,19  L 93,15  L 92,15  L 92,14  L 91,14  L 91,13  L 90,13  L 90,12  L 89,12  L 89,11  L 88,11  L 88,10  L 86,10  L 86,9  L 85,9  L 85,8  L 84,8  L 84,7  L 82,7  L 82,6  L 80,6  L 80,5  L 77,5  L 77,4  L 74,4  L 74,3  L 69,3  L 69,2  L 64,2  L 64,1  L 48,1  L 48,2  L 45,2  L 45,3  L 43,3  L 43,4  L 42,4  L 42,5  L 40,5  L 40,6  L 39,6  L 39,8  L 37,8  L 37,9  L 36,9  L 36,10  L 35,10  L 35,11  L 34,11  L 34,12  L 33,12  L 33,13  L 32,13  L 32,14  L 31,14  L 31,15  L 30,15  L 30,17  L 29,17  L 29,18  L 28,18  L 28,19  L 27,19  L 27,20  L 26,20  L 26,21  L 25,21  L 25,23  L 23,23  L 23,25  L 21,25  L 21,27  L 19,27  L 19,29  L 18,29  Z  M 26,32  L 26,31  L 27,31  L 27,30  L 28,30  L 28,28  L 29,28  L 29,27  L 30,27  L 30,26  L 31,26  L 31,25  L 32,25  L 32,24  L 33,24  L 33,23  L 34,23  L 34,22  L 35,22  L 35,21  L 36,21  L 36,20  L 37,20  L 37,19  L 38,19  L 38,18  L 39,18  L 39,16  L 41,16  L 41,15  L 42,15  L 42,14  L 43,14  L 43,13  L 46,13  L 46,12  L 49,12  L 49,11  L 51,11  L 51,10  L 53,10  L 53,9  L 64,9  L 64,10  L 65,10  L 65,9  L 66,9  L 66,10  L 70,10  L 70,11  L 74,11  L 74,12  L 77,12  L 77,13  L 79,13  L 79,14  L 81,14  L 81,15  L 82,15  L 82,16  L 83,16  L 83,19  L 84,19  L 84,21  L 85,21  L 85,22  L 84,22  L 84,27  L 83,27  L 83,28  L 82,28  L 82,30  L 81,30  L 81,31  L 80,31  L 80,33  L 79,33  L 79,35  L 78,35  L 78,36  L 77,36  L 77,38  L 76,38  L 76,39  L 75,39  L 75,40  L 74,40  L 74,41  L 73,41  L 73,42  L 72,42  L 72,43  L 71,43  L 71,44  L 69,44  L 69,45  L 68,45  L 68,46  L 65,46  L 65,47  L 63,47  L 63,48  L 62,48  L 62,49  L 61,49  L 61,50  L 58,50  L 58,51  L 56,51  L 56,52  L 54,52  L 54,53  L 38,53  L 38,52  L 33,52  L 33,51  L 31,51  L 31,50  L 29,50  L 29,49  L 28,49  L 28,48  L 27,48  L 27,46  L 26,46  L 26,45  L 25,45  L 25,44  L 24,44  L 24,42  L 23,42  L 23,38  L 22,38  L 22,37  L 23,37  L 23,35  L 24,35  L 24,34  L 25,34  L 25,32  Z  " style="fill:rgb(0, 0, 0); fill-opacity:1.000; stroke:none;" />
 <path d="  M 63,135  L 62,135  L 62,134  L 61,134  L 61,133  L 59,133  L 59,130  L 61,130  L 61,129  L 62,129  L 62,128  L 65,128  L 65,127  L 66,127  L 66,126  L 67,126  L 67,125  L 69,125  L 69,124  L 70,124  L 70,123  L 71,123  L 71,122  L 73,122  L 73,116  L 72,116  L 72,114  L 71,114  L 71,113  L 70,113  L 70,110  L 69,110  L 69,108  L 68,108  L 68,107  L 66,107  L 66,105  L 64,105  L 64,104  L 63,104  L 63,103  L 61,103  L 61,102  L 59,102  L 59,101  L 56,101  L 56,100  L 41,100  L 41,101  L 29,101  L 29,102  L 26,102  L 26,103  L 24,103  L 24,105  L 23,105  L 23,107  L 24,107  L 24,108  L 23,108  L 23,110  L 24,110  L 24,112  L 28,112  L 28,111  L 30,111  L 30,110  L 34,110  L 34,109  L 38,109  L 38,108  L 43,108  L 43,107  L 44,107  L 44,108  L 46,108  L 46,107  L 52,107  L 52,108  L 55,108  L 55,109  L 58,109  L 58,110  L 60,110  L 60,113  L 61,113  L 61,114  L 62,114  L 62,116  L 63,116  L 63,119  L 62,119  L 62,120  L 61,120  L 61,121  L 60,121  L 60,122  L 59,122  L 59,123  L 58,123  L 58,125  L 57,125  L 57,127  L 56,127  L 56,129  L 55,129  L 55,130  L 57,130  L 57,131  L 58,131  L 58,132  L 56,132  L 56,133  L 54,133  L 54,134  L 51,134  L 51,135  L 45,135  L 45,136  L 43,136  L 43,135  L 42,135  L 42,136  L 37,136  L 37,137  L 36,137  L 36,136  L 27,136  L 27,135  L 21,135  L 21,136  L 20,136  L 20,137  L 19,137  L 19,139  L 18,139  L 18,142  L 17,142  L 17,147  L 18,147  L 18,148  L 17,148  L 17,149  L 18,149  L 18,154  L 19,154  L 19,156  L 20,156  L 20,159  L 21,159  L 21,160  L 22,160  L 22,161  L 23,161  L 23,162  L 24,162  L 24,163  L 25,163  L 25,164  L 27,164  L 27,165  L 30,165  L 30,166  L 33,166  L 33,167  L 63,167  L 63,166  L 69,166  L 69,165  L 71,165  L 71,164  L 74,164  L 74,163  L 77,163  L 77,162  L 78,162  L 78,161  L 80,161  L 80,160  L 83,160  L 83,159  L 85,159  L 85,158  L 86,158  L 86,157  L 87,157  L 87,156  L 88,156  L 88,154  L 89,154  L 89,152  L 90,152  L 90,149  L 89,149  L 89,148  L 85,148  L 85,149  L 84,149  L 84,151  L 83,151  L 83,152  L 82,152  L 82,153  L 80,153  L 80,154  L 78,154  L 78,155  L 75,155  L 75,156  L 73,156  L 73,157  L 70,157  L 70,158  L 66,158  L 66,159  L 62,159  L 62,160  L 57,160  L 57,161  L 54,161  L 54,160  L 53,160  L 53,161  L 46,161  L 46,160  L 45,160  L 45,161  L 44,161  L 44,160  L 38,160  L 38,159  L 33,159  L 33,158  L 31,158  L 31,157  L 30,157  L 30,156  L 27,156  L 27,155  L 26,155  L 26,153  L 25,153  L 25,145  L 26,145  L 26,144  L 29,144  L 29,143  L 33,143  L 33,144  L 48,144  L 48,145  L 50,145  L 50,144  L 59,144  L 59,143  L 60,143  L 60,142  L 61,142  L 61,140  L 63,140  L 63,139  L 62,139  L 62,137  L 63,137  Z  " style="fill:rgb(0, 0, 0); fill-opacity:1.000; stroke:none;" />
 <path d="  M 89,146  L 89,145  L 88,145  L 88,146  Z  " style="fill:rgb(0, 0, 0); fill-opacity:1.000; stroke:none;" />
 <path d="  M 91,151  L 92,151  L 92,150  L 91,150  Z  " style="fill:rgb(0, 0, 0); fill-opacity:1.000; stroke:none;" />
</svg>
