<?xml version="1.0" encoding="UTF-8" standalone="no"?>
<!DOCTYPE svg PUBLIC "-//W3C//DTD SVG 1.1//EN" 
  "http://www.w3.org/Graphics/SVG/1.1/DTD/svg11.dtd">
<svg width="103" height="132"
     xmlns="http://www.w3.org/2000/svg" version="1.1">
 <path d="  M 50,89  L 50,90  L 43,90  L 43,91  L 35,91  L 35,92  L 33,92  L 33,91  L 32,91  L 32,92  L 27,92  L 27,93  L 20,93  L 20,94  L 16,94  L 16,95  L 11,95  L 11,96  L 10,96  L 10,95  L 9,95  L 9,96  L 6,96  L 6,97  L 3,97  L 3,98  L 1,98  L 1,99  L 0,99  L 0,102  L 1,102  L 1,104  L 9,104  L 9,103  L 11,103  L 11,102  L 16,102  L 16,101  L 22,101  L 22,100  L 27,100  L 27,99  L 33,99  L 33,98  L 39,98  L 39,97  L 44,97  L 44,96  L 49,96  L 49,95  L 56,95  L 56,94  L 61,94  L 61,93  L 69,93  L 69,92  L 73,92  L 73,91  L 77,91  L 77,90  L 80,90  L 80,89  L 83,89  L 83,88  L 85,88  L 85,87  L 87,87  L 87,84  L 86,84  L 86,83  L 85,83  L 85,82  L 80,82  L 80,83  L 76,83  L 76,84  L 73,84  L 73,85  L 70,85  L 70,86  L 66,86  L 66,87  L 63,87  L 63,88  L 61,88  L 61,87  L 60,87  L 60,88  L 56,88  L 56,89  Z  " style="fill:rgb(0, 0, 0); fill-opacity:1.000; stroke:none;" />
 <path d="  M 18,30  L 17,30  L 17,32  L 16,32  L 16,33  L 15,33  L 15,35  L 14,35  L 14,37  L 13,37  L 13,39  L 12,39  L 12,41  L 11,41  L 11,44  L 10,44  L 10,50  L 9,50  L 9,55  L 8,55  L 8,56  L 9,56  L 9,57  L 8,57  L 8,60  L 9,60  L 9,65  L 10,65  L 10,69  L 11,69  L 11,70  L 13,70  L 13,71  L 14,71  L 14,72  L 16,72  L 16,73  L 17,73  L 17,74  L 21,74  L 21,75  L 24,75  L 24,76  L 29,76  L 29,77  L 35,77  L 35,76  L 40,76  L 40,75  L 43,75  L 43,74  L 45,74  L 45,73  L 48,73  L 48,72  L 50,72  L 50,71  L 53,71  L 53,70  L 54,70  L 54,69  L 56,69  L 56,68  L 57,68  L 57,67  L 58,67  L 58,66  L 60,66  L 60,65  L 61,65  L 61,64  L 62,64  L 62,63  L 63,63  L 63,62  L 64,62  L 64,60  L 65,60  L 65,57  L 66,57  L 66,56  L 67,56  L 67,55  L 66,55  L 66,54  L 67,54  L 67,50  L 68,50  L 68,41  L 67,41  L 67,35  L 66,35  L 66,33  L 65,33  L 65,32  L 64,32  L 64,30  L 63,30  L 63,29  L 62,29  L 62,28  L 61,28  L 61,27  L 60,27  L 60,26  L 59,26  L 59,24  L 58,24  L 58,23  L 57,23  L 57,22  L 56,22  L 56,21  L 55,21  L 55,20  L 53,20  L 53,19  L 48,19  L 48,18  L 43,18  L 43,17  L 39,17  L 39,16  L 38,16  L 38,17  L 37,17  L 37,16  L 34,16  L 34,15  L 31,15  L 31,16  L 29,16  L 29,17  L 28,17  L 28,18  L 27,18  L 27,19  L 26,19  L 26,20  L 25,20  L 25,21  L 24,21  L 24,22  L 23,22  L 23,24  L 22,24  L 22,25  L 21,25  L 21,26  L 20,26  L 20,27  L 19,27  L 19,29  L 18,29  Z  M 26,69  L 26,68  L 21,68  L 21,67  L 19,67  L 19,66  L 18,66  L 18,65  L 17,65  L 17,64  L 16,64  L 16,63  L 15,63  L 15,58  L 14,58  L 14,56  L 15,56  L 15,48  L 16,48  L 16,46  L 17,46  L 17,43  L 18,43  L 18,40  L 19,40  L 19,39  L 20,39  L 20,38  L 21,38  L 21,35  L 22,35  L 22,34  L 23,34  L 23,33  L 24,33  L 24,32  L 25,32  L 25,30  L 27,30  L 27,29  L 28,29  L 28,27  L 29,27  L 29,25  L 31,25  L 31,24  L 33,24  L 33,23  L 42,23  L 42,24  L 47,24  L 47,25  L 50,25  L 50,26  L 51,26  L 51,27  L 52,27  L 52,28  L 54,28  L 54,29  L 55,29  L 55,30  L 56,30  L 56,31  L 57,31  L 57,32  L 58,32  L 58,33  L 59,33  L 59,35  L 60,35  L 60,38  L 61,38  L 61,51  L 60,51  L 60,54  L 59,54  L 59,57  L 58,57  L 58,59  L 57,59  L 57,60  L 56,60  L 56,61  L 55,61  L 55,62  L 54,62  L 54,63  L 52,63  L 52,64  L 50,64  L 50,65  L 49,65  L 49,66  L 47,66  L 47,67  L 44,67  L 44,68  L 40,68  L 40,69  L 36,69  L 36,70  L 33,70  L 33,69  L 32,69  L 32,70  L 31,70  L 31,69  Z  " style="fill:rgb(0, 0, 0); fill-opacity:1.000; stroke:none;" />
 <path d="  M 103,37  L 102,37  L 102,28  L 101,28  L 101,26  L 102,26  L 102,25  L 101,25  L 101,23  L 100,23  L 100,18  L 99,18  L 99,15  L 98,15  L 98,11  L 97,11  L 97,7  L 96,7  L 96,3  L 95,3  L 95,1  L 94,1  L 94,0  L 90,0  L 90,1  L 89,1  L 89,4  L 90,4  L 90,10  L 91,10  L 91,15  L 92,15  L 92,18  L 93,18  L 93,22  L 94,22  L 94,27  L 95,27  L 95,33  L 96,33  L 96,45  L 97,45  L 97,123  L 96,123  L 96,130  L 97,130  L 97,132  L 102,132  L 102,126  L 103,126  Z  " style="fill:rgb(0, 0, 0); fill-opacity:1.000; stroke:none;" />
</svg>
