<?xml version="1.0" encoding="UTF-8" standalone="no"?>
<!DOCTYPE svg PUBLIC "-//W3C//DTD SVG 1.1//EN" 
  "http://www.w3.org/Graphics/SVG/1.1/DTD/svg11.dtd">
<svg width="104" height="147"
     xmlns="http://www.w3.org/2000/svg" version="1.1">
 <path d="  M 61,41  L 60,41  L 60,35  L 59,35  L 59,32  L 58,32  L 58,29  L 57,29  L 57,27  L 56,27  L 56,25  L 55,25  L 55,24  L 54,24  L 54,23  L 53,23  L 53,22  L 52,22  L 52,21  L 51,21  L 51,20  L 50,20  L 50,19  L 47,19  L 47,18  L 45,18  L 45,17  L 42,17  L 42,16  L 40,16  L 40,15  L 36,15  L 36,14  L 32,14  L 32,13  L 29,13  L 29,12  L 23,12  L 23,13  L 21,13  L 21,14  L 20,14  L 20,15  L 19,15  L 19,17  L 18,17  L 18,18  L 17,18  L 17,19  L 16,19  L 16,20  L 14,20  L 14,21  L 13,21  L 13,22  L 12,22  L 12,23  L 10,23  L 10,25  L 9,25  L 9,26  L 8,26  L 8,28  L 7,28  L 7,30  L 6,30  L 6,33  L 5,33  L 5,35  L 4,35  L 4,39  L 3,39  L 3,41  L 2,41  L 2,47  L 1,47  L 1,53  L 0,53  L 0,54  L 1,54  L 1,56  L 0,56  L 0,58  L 1,58  L 1,67  L 2,67  L 2,68  L 3,68  L 3,70  L 5,70  L 5,71  L 6,71  L 6,72  L 7,72  L 7,73  L 10,73  L 10,74  L 13,74  L 13,75  L 14,75  L 14,74  L 16,74  L 16,75  L 19,75  L 19,76  L 33,76  L 33,75  L 37,75  L 37,74  L 41,74  L 41,73  L 44,73  L 44,72  L 45,72  L 45,71  L 47,71  L 47,70  L 48,70  L 48,69  L 49,69  L 49,68  L 50,68  L 50,67  L 51,67  L 51,66  L 52,66  L 52,65  L 53,65  L 53,64  L 54,64  L 54,62  L 55,62  L 55,61  L 56,61  L 56,59  L 57,59  L 57,58  L 58,58  L 58,55  L 59,55  L 59,54  L 60,54  L 60,48  L 61,48  Z  M 21,21  L 22,21  L 22,20  L 24,20  L 24,19  L 28,19  L 28,18  L 29,18  L 29,19  L 30,19  L 30,18  L 31,18  L 31,19  L 34,19  L 34,20  L 37,20  L 37,21  L 39,21  L 39,22  L 42,22  L 42,23  L 43,23  L 43,24  L 46,24  L 46,25  L 48,25  L 48,26  L 49,26  L 49,27  L 50,27  L 50,28  L 51,28  L 51,30  L 52,30  L 52,33  L 53,33  L 53,37  L 54,37  L 54,50  L 53,50  L 53,53  L 52,53  L 52,54  L 51,54  L 51,56  L 50,56  L 50,58  L 49,58  L 49,59  L 48,59  L 48,60  L 47,60  L 47,61  L 46,61  L 46,63  L 45,63  L 45,64  L 44,64  L 44,65  L 42,65  L 42,66  L 41,66  L 41,67  L 39,67  L 39,68  L 35,68  L 35,69  L 27,69  L 27,70  L 26,70  L 26,69  L 25,69  L 25,70  L 22,70  L 22,69  L 16,69  L 16,68  L 13,68  L 13,67  L 10,67  L 10,66  L 9,66  L 9,65  L 8,65  L 8,63  L 7,63  L 7,59  L 6,59  L 6,58  L 7,58  L 7,57  L 6,57  L 6,54  L 7,54  L 7,53  L 6,53  L 6,52  L 7,52  L 7,47  L 8,47  L 8,42  L 9,42  L 9,39  L 10,39  L 10,38  L 11,38  L 11,34  L 12,34  L 12,32  L 13,32  L 13,31  L 14,31  L 14,29  L 15,29  L 15,28  L 16,28  L 16,27  L 17,27  L 17,25  L 18,25  L 18,24  L 19,24  L 19,23  L 20,23  L 20,22  L 21,22  Z  " style="fill:rgb(0, 0, 0); fill-opacity:1.000; stroke:none;" />
 <path d="  M 28,138  L 29,138  L 29,140  L 30,140  L 30,142  L 31,142  L 31,143  L 32,143  L 32,144  L 33,144  L 33,146  L 36,146  L 36,147  L 55,147  L 55,146  L 64,146  L 64,145  L 72,145  L 72,144  L 80,144  L 80,143  L 87,143  L 87,142  L 96,142  L 96,141  L 101,141  L 101,140  L 103,140  L 103,139  L 104,139  L 104,133  L 99,133  L 99,134  L 97,134  L 97,133  L 96,133  L 96,134  L 93,134  L 93,135  L 85,135  L 85,136  L 84,136  L 84,135  L 82,135  L 82,136  L 75,136  L 75,137  L 66,137  L 66,138  L 65,138  L 65,137  L 64,137  L 64,138  L 60,138  L 60,139  L 52,139  L 52,140  L 38,140  L 38,139  L 37,139  L 37,138  L 36,138  L 36,136  L 35,136  L 35,132  L 34,132  L 34,127  L 33,127  L 33,123  L 32,123  L 32,115  L 31,115  L 31,114  L 32,114  L 32,113  L 31,113  L 31,112  L 32,112  L 32,111  L 31,111  L 31,110  L 32,110  L 32,109  L 31,109  L 31,108  L 32,108  L 32,107  L 31,107  L 31,106  L 32,106  L 32,105  L 31,105  L 31,104  L 32,104  L 32,103  L 31,103  L 31,102  L 32,102  L 32,101  L 31,101  L 31,100  L 32,100  L 32,97  L 31,97  L 31,95  L 27,95  L 27,96  L 26,96  L 26,97  L 25,97  L 25,121  L 26,121  L 26,126  L 27,126  L 27,131  L 28,131  Z  " style="fill:rgb(0, 0, 0); fill-opacity:1.000; stroke:none;" />
 <path d="  M 85,44  L 86,44  L 86,45  L 85,45  L 85,47  L 86,47  L 86,66  L 85,66  L 85,69  L 86,69  L 86,70  L 85,70  L 85,73  L 86,73  L 86,74  L 85,74  L 85,77  L 86,77  L 86,78  L 85,78  L 85,81  L 86,81  L 86,82  L 85,82  L 85,84  L 86,84  L 86,87  L 87,87  L 87,88  L 88,88  L 88,89  L 91,89  L 91,88  L 92,88  L 92,86  L 93,86  L 93,84  L 92,84  L 92,82  L 93,82  L 93,81  L 92,81  L 92,33  L 91,33  L 91,25  L 90,25  L 90,19  L 89,19  L 89,9  L 88,9  L 88,1  L 87,1  L 87,0  L 83,0  L 83,1  L 81,1  L 81,6  L 82,6  L 82,7  L 81,7  L 81,8  L 82,8  L 82,14  L 83,14  L 83,22  L 84,22  L 84,30  L 85,30  Z  " style="fill:rgb(0, 0, 0); fill-opacity:1.000; stroke:none;" />
</svg>
