<?xml version="1.0" encoding="UTF-8" standalone="no"?>
<!DOCTYPE svg PUBLIC "-//W3C//DTD SVG 1.1//EN" 
  "http://www.w3.org/Graphics/SVG/1.1/DTD/svg11.dtd">
<svg width="101" height="175"
     xmlns="http://www.w3.org/2000/svg" version="1.1">
 <path d="  M 51,45  L 52,45  L 52,46  L 51,46  L 51,48  L 52,48  L 52,50  L 51,50  L 51,51  L 52,51  L 52,54  L 51,54  L 51,60  L 50,60  L 50,62  L 49,62  L 49,66  L 48,66  L 48,68  L 47,68  L 47,70  L 46,70  L 46,71  L 45,71  L 45,72  L 44,72  L 44,73  L 43,73  L 43,74  L 41,74  L 41,75  L 40,75  L 40,76  L 38,76  L 38,77  L 35,77  L 35,78  L 32,78  L 32,79  L 29,79  L 29,80  L 28,80  L 28,79  L 27,79  L 27,80  L 26,80  L 26,79  L 25,79  L 25,80  L 24,80  L 24,79  L 23,79  L 23,80  L 22,80  L 22,79  L 21,79  L 21,80  L 20,80  L 20,79  L 15,79  L 15,78  L 11,78  L 11,77  L 10,77  L 10,76  L 8,76  L 8,74  L 7,74  L 7,71  L 8,71  L 8,65  L 9,65  L 9,64  L 8,64  L 8,62  L 9,62  L 9,53  L 10,53  L 10,51  L 11,51  L 11,48  L 12,48  L 12,45  L 13,45  L 13,42  L 14,42  L 14,39  L 15,39  L 15,38  L 16,38  L 16,36  L 17,36  L 17,35  L 18,35  L 18,34  L 19,34  L 19,32  L 20,32  L 20,31  L 21,31  L 21,30  L 23,30  L 23,29  L 35,29  L 35,30  L 36,30  L 36,29  L 37,29  L 37,30  L 40,30  L 40,31  L 44,31  L 44,32  L 46,32  L 46,33  L 48,33  L 48,35  L 49,35  L 49,37  L 50,37  L 50,40  L 51,40  Z  M 18,25  L 18,26  L 17,26  L 17,27  L 16,27  L 16,28  L 15,28  L 15,29  L 14,29  L 14,30  L 13,30  L 13,31  L 12,31  L 12,33  L 11,33  L 11,34  L 10,34  L 10,35  L 9,35  L 9,36  L 8,36  L 8,39  L 7,39  L 7,41  L 6,41  L 6,43  L 5,43  L 5,48  L 4,48  L 4,51  L 3,51  L 3,57  L 2,57  L 2,63  L 1,63  L 1,68  L 0,68  L 0,70  L 1,70  L 1,71  L 0,71  L 0,74  L 1,74  L 1,78  L 2,78  L 2,80  L 3,80  L 3,82  L 5,82  L 5,83  L 8,83  L 8,84  L 11,84  L 11,85  L 14,85  L 14,86  L 17,86  L 17,87  L 30,87  L 30,86  L 33,86  L 33,85  L 36,85  L 36,84  L 38,84  L 38,83  L 39,83  L 39,82  L 42,82  L 42,81  L 44,81  L 44,80  L 46,80  L 46,79  L 47,79  L 47,78  L 48,78  L 48,77  L 49,77  L 49,76  L 51,76  L 51,75  L 52,75  L 52,73  L 53,73  L 53,72  L 54,72  L 54,71  L 55,71  L 55,69  L 56,69  L 56,66  L 57,66  L 57,65  L 58,65  L 58,61  L 59,61  L 59,55  L 60,55  L 60,49  L 59,49  L 59,41  L 58,41  L 58,39  L 57,39  L 57,36  L 56,36  L 56,35  L 55,35  L 55,33  L 54,33  L 54,32  L 53,32  L 53,30  L 51,30  L 51,28  L 50,28  L 50,27  L 48,27  L 48,26  L 45,26  L 45,25  L 43,25  L 43,24  L 38,24  L 38,23  L 30,23  L 30,22  L 27,22  L 27,21  L 23,21  L 23,22  L 22,22  L 22,23  L 20,23  L 20,24  L 19,24  L 19,25  Z  " style="fill:rgb(0, 0, 0); fill-opacity:1.000; stroke:none;" />
 <path d="  M 39,147  L 41,147  L 41,146  L 44,146  L 44,145  L 46,145  L 46,144  L 50,144  L 50,143  L 53,143  L 53,142  L 55,142  L 55,141  L 58,141  L 58,140  L 59,140  L 59,139  L 62,139  L 62,138  L 65,138  L 65,137  L 67,137  L 67,136  L 68,136  L 68,135  L 71,135  L 71,134  L 73,134  L 73,133  L 75,133  L 75,132  L 76,132  L 76,131  L 78,131  L 78,130  L 80,130  L 80,129  L 81,129  L 81,128  L 83,128  L 83,127  L 85,127  L 85,126  L 86,126  L 86,123  L 87,123  L 87,121  L 86,121  L 86,117  L 85,117  L 85,115  L 84,115  L 84,114  L 83,114  L 83,112  L 81,112  L 81,111  L 80,111  L 80,110  L 78,110  L 78,109  L 77,109  L 77,108  L 74,108  L 74,107  L 69,107  L 69,106  L 63,106  L 63,105  L 59,105  L 59,104  L 58,104  L 58,105  L 57,105  L 57,104  L 42,104  L 42,105  L 37,105  L 37,106  L 34,106  L 34,107  L 33,107  L 33,110  L 32,110  L 32,111  L 33,111  L 33,113  L 42,113  L 42,112  L 46,112  L 46,111  L 55,111  L 55,112  L 61,112  L 61,113  L 67,113  L 67,114  L 71,114  L 71,115  L 72,115  L 72,116  L 73,116  L 73,117  L 74,117  L 74,118  L 76,118  L 76,119  L 77,119  L 77,120  L 78,120  L 78,121  L 77,121  L 77,122  L 75,122  L 75,123  L 74,123  L 74,124  L 72,124  L 72,125  L 70,125  L 70,126  L 68,126  L 68,127  L 66,127  L 66,128  L 65,128  L 65,129  L 62,129  L 62,130  L 59,130  L 59,131  L 58,131  L 58,132  L 55,132  L 55,133  L 54,133  L 54,134  L 51,134  L 51,135  L 49,135  L 49,136  L 46,136  L 46,137  L 43,137  L 43,138  L 41,138  L 41,139  L 39,139  L 39,140  L 37,140  L 37,141  L 36,141  L 36,142  L 34,142  L 34,143  L 33,143  L 33,144  L 32,144  L 32,146  L 31,146  L 31,147  L 30,147  L 30,148  L 29,148  L 29,150  L 28,150  L 28,154  L 27,154  L 27,155  L 28,155  L 28,163  L 29,163  L 29,166  L 30,166  L 30,167  L 29,167  L 29,168  L 30,168  L 30,169  L 31,169  L 31,170  L 32,170  L 32,171  L 33,171  L 33,172  L 34,172  L 34,171  L 35,171  L 35,172  L 37,172  L 37,173  L 39,173  L 39,174  L 41,174  L 41,175  L 43,175  L 43,174  L 44,174  L 44,175  L 67,175  L 67,174  L 70,174  L 70,173  L 74,173  L 74,172  L 75,172  L 75,171  L 77,171  L 77,170  L 79,170  L 79,169  L 82,169  L 82,168  L 84,168  L 84,167  L 86,167  L 86,166  L 88,166  L 88,165  L 90,165  L 90,164  L 91,164  L 91,163  L 93,163  L 93,162  L 96,162  L 96,161  L 97,161  L 97,160  L 98,160  L 98,159  L 99,159  L 99,158  L 100,158  L 100,157  L 101,157  L 101,152  L 96,152  L 96,153  L 94,153  L 94,154  L 91,154  L 91,155  L 90,155  L 90,156  L 88,156  L 88,157  L 87,157  L 87,158  L 85,158  L 85,159  L 83,159  L 83,160  L 82,160  L 82,161  L 80,161  L 80,162  L 78,162  L 78,163  L 75,163  L 75,164  L 74,164  L 74,165  L 70,165  L 70,166  L 66,166  L 66,167  L 61,167  L 61,168  L 46,168  L 46,167  L 43,167  L 43,166  L 40,166  L 40,165  L 38,165  L 38,164  L 37,164  L 37,162  L 36,162  L 36,153  L 37,153  L 37,149  L 38,149  L 38,148  L 39,148  Z  " style="fill:rgb(0, 0, 0); fill-opacity:1.000; stroke:none;" />
 <path d="  M 101,51  L 101,48  L 100,48  L 100,47  L 101,47  L 101,44  L 100,44  L 100,43  L 101,43  L 101,40  L 100,40  L 100,39  L 101,39  L 101,36  L 100,36  L 100,35  L 101,35  L 101,32  L 100,32  L 100,29  L 101,29  L 101,28  L 100,28  L 100,16  L 99,16  L 99,15  L 100,15  L 100,14  L 99,14  L 99,5  L 98,5  L 98,3  L 97,3  L 97,2  L 96,2  L 96,1  L 93,1  L 93,0  L 92,0  L 92,1  L 91,1  L 91,15  L 92,15  L 92,17  L 91,17  L 91,18  L 92,18  L 92,61  L 93,61  L 93,62  L 92,62  L 92,65  L 93,65  L 93,66  L 92,66  L 92,67  L 93,67  L 93,68  L 92,68  L 92,69  L 93,69  L 93,70  L 92,70  L 92,71  L 93,71  L 93,91  L 94,91  L 94,92  L 93,92  L 93,98  L 94,98  L 94,99  L 95,99  L 95,100  L 97,100  L 97,99  L 100,99  L 100,98  L 101,98  L 101,94  L 100,94  L 100,93  L 101,93  L 101,90  L 100,90  L 100,89  L 101,89  L 101,88  L 100,88  L 100,85  L 101,85  L 101,84  L 100,84  L 100,82  L 101,82  L 101,80  L 100,80  L 100,77  L 101,77  L 101,76  L 100,76  L 100,73  L 101,73  L 101,72  L 100,72  L 100,69  L 101,69  L 101,68  L 100,68  L 100,65  L 101,65  L 101,64  L 100,64  L 100,61  L 101,61  L 101,60  L 100,60  L 100,58  L 101,58  L 101,56  L 100,56  L 100,53  L 101,53  L 101,52  L 100,52  L 100,51  Z  " style="fill:rgb(0, 0, 0); fill-opacity:1.000; stroke:none;" />
</svg>
