<?xml version="1.0" encoding="UTF-8" standalone="no"?>
<!DOCTYPE svg PUBLIC "-//W3C//DTD SVG 1.1//EN" 
  "http://www.w3.org/Graphics/SVG/1.1/DTD/svg11.dtd">
<svg width="105" height="146"
     xmlns="http://www.w3.org/2000/svg" version="1.1">
 <path d="  M 1,22  L 6,22  L 6,21  L 8,21  L 8,20  L 9,20  L 9,19  L 14,19  L 14,18  L 20,18  L 20,17  L 28,17  L 28,16  L 29,16  L 29,17  L 30,17  L 30,16  L 34,16  L 34,15  L 35,15  L 35,16  L 36,16  L 36,15  L 39,15  L 39,20  L 38,20  L 38,21  L 37,21  L 37,23  L 35,23  L 35,25  L 33,25  L 33,27  L 31,27  L 31,29  L 30,29  L 30,30  L 29,30  L 29,32  L 28,32  L 28,34  L 27,34  L 27,35  L 26,35  L 26,37  L 25,37  L 25,38  L 24,38  L 24,39  L 23,39  L 23,41  L 22,41  L 22,42  L 21,42  L 21,43  L 20,43  L 20,45  L 19,45  L 19,47  L 18,47  L 18,48  L 17,48  L 17,49  L 16,49  L 16,51  L 15,51  L 15,52  L 14,52  L 14,54  L 13,54  L 13,55  L 12,55  L 12,56  L 11,56  L 11,57  L 10,57  L 10,58  L 9,58  L 9,59  L 8,59  L 8,60  L 6,60  L 6,61  L 4,61  L 4,62  L 3,62  L 3,63  L 2,63  L 2,64  L 1,64  L 1,68  L 2,68  L 2,69  L 7,69  L 7,68  L 9,68  L 9,67  L 10,67  L 10,66  L 12,66  L 12,65  L 13,65  L 13,64  L 14,64  L 14,62  L 15,62  L 15,61  L 16,61  L 16,60  L 17,60  L 17,59  L 18,59  L 18,58  L 19,58  L 19,57  L 20,57  L 20,56  L 21,56  L 21,55  L 22,55  L 22,53  L 23,53  L 23,52  L 24,52  L 24,50  L 25,50  L 25,48  L 26,48  L 26,47  L 28,47  L 28,48  L 29,48  L 29,49  L 31,49  L 31,51  L 32,51  L 32,52  L 33,52  L 33,53  L 34,53  L 34,54  L 35,54  L 35,55  L 36,55  L 36,56  L 37,56  L 37,57  L 38,57  L 38,58  L 40,58  L 40,59  L 41,59  L 41,60  L 43,60  L 43,61  L 44,61  L 44,62  L 45,62  L 45,63  L 46,63  L 46,64  L 48,64  L 48,65  L 49,65  L 49,67  L 51,67  L 51,68  L 52,68  L 52,69  L 54,69  L 54,70  L 55,70  L 55,69  L 57,69  L 57,68  L 58,68  L 58,65  L 57,65  L 57,64  L 56,64  L 56,63  L 55,63  L 55,62  L 54,62  L 54,61  L 53,61  L 53,60  L 52,60  L 52,59  L 51,59  L 51,58  L 49,58  L 49,57  L 48,57  L 48,56  L 47,56  L 47,55  L 46,55  L 46,54  L 45,54  L 45,53  L 44,53  L 44,52  L 42,52  L 42,51  L 41,51  L 41,50  L 40,50  L 40,49  L 39,49  L 39,48  L 38,48  L 38,47  L 37,47  L 37,45  L 35,45  L 35,43  L 34,43  L 34,42  L 33,42  L 33,40  L 32,40  L 32,38  L 33,38  L 33,37  L 34,37  L 34,36  L 35,36  L 35,34  L 36,34  L 36,32  L 38,32  L 38,30  L 39,30  L 39,29  L 40,29  L 40,28  L 41,28  L 41,26  L 42,26  L 42,25  L 43,25  L 43,23  L 44,23  L 44,22  L 45,22  L 45,21  L 46,21  L 46,19  L 47,19  L 47,15  L 46,15  L 46,14  L 45,14  L 45,12  L 44,12  L 44,11  L 43,11  L 43,9  L 42,9  L 42,8  L 41,8  L 41,7  L 37,7  L 37,8  L 34,8  L 34,9  L 30,9  L 30,10  L 25,10  L 25,11  L 24,11  L 24,10  L 23,10  L 23,11  L 18,11  L 18,12  L 16,12  L 16,11  L 15,11  L 15,12  L 12,12  L 12,13  L 6,13  L 6,14  L 4,14  L 4,15  L 3,15  L 3,16  L 1,16  Z  " style="fill:rgb(0, 0, 0); fill-opacity:1.000; stroke:none;" />
 <path d="  M 33,86  L 32,86  L 32,85  L 28,85  L 28,86  L 27,86  L 27,87  L 26,87  L 26,109  L 25,109  L 25,110  L 26,110  L 26,126  L 27,126  L 27,132  L 28,132  L 28,141  L 29,141  L 29,142  L 30,142  L 30,144  L 31,144  L 31,145  L 32,145  L 32,146  L 52,146  L 52,145  L 58,145  L 58,144  L 60,144  L 60,143  L 63,143  L 63,142  L 66,142  L 66,141  L 67,141  L 67,140  L 69,140  L 69,139  L 71,139  L 71,138  L 72,138  L 72,137  L 73,137  L 73,136  L 74,136  L 74,133  L 75,133  L 75,129  L 76,129  L 76,124  L 77,124  L 77,120  L 78,120  L 78,112  L 79,112  L 79,105  L 78,105  L 78,104  L 79,104  L 79,98  L 78,98  L 78,96  L 76,96  L 76,95  L 75,95  L 75,96  L 73,96  L 73,98  L 72,98  L 72,101  L 73,101  L 73,102  L 72,102  L 72,104  L 73,104  L 73,105  L 72,105  L 72,108  L 73,108  L 73,109  L 72,109  L 72,110  L 73,110  L 73,111  L 72,111  L 72,116  L 64,116  L 64,115  L 63,115  L 63,116  L 60,116  L 60,115  L 59,115  L 59,116  L 56,116  L 56,115  L 55,115  L 55,116  L 52,116  L 52,115  L 51,115  L 51,116  L 48,116  L 48,115  L 47,115  L 47,116  L 44,116  L 44,115  L 43,115  L 43,116  L 40,116  L 40,115  L 39,115  L 39,116  L 38,116  L 38,117  L 37,117  L 37,116  L 35,116  L 35,117  L 34,117  L 34,116  L 33,116  L 33,115  L 32,115  L 32,114  L 33,114  Z  M 68,122  L 68,123  L 70,123  L 70,127  L 69,127  L 69,131  L 68,131  L 68,134  L 67,134  L 67,135  L 66,135  L 66,136  L 63,136  L 63,137  L 61,137  L 61,138  L 58,138  L 58,139  L 54,139  L 54,140  L 47,140  L 47,141  L 46,141  L 46,140  L 44,140  L 44,141  L 41,141  L 41,140  L 40,140  L 40,141  L 38,141  L 38,140  L 36,140  L 36,139  L 35,139  L 35,134  L 34,134  L 34,127  L 33,127  L 33,125  L 34,125  L 34,124  L 35,124  L 35,123  L 38,123  L 38,122  L 39,122  L 39,123  L 40,123  L 40,122  L 47,122  L 47,123  L 48,123  L 48,122  Z  " style="fill:rgb(0, 0, 0); fill-opacity:1.000; stroke:none;" />
 <path d="  M 74,68  L 75,68  L 75,69  L 74,69  L 74,70  L 75,70  L 75,71  L 74,71  L 74,72  L 75,72  L 75,82  L 76,82  L 76,83  L 80,83  L 80,82  L 81,82  L 81,57  L 80,57  L 80,56  L 81,56  L 81,55  L 80,55  L 80,54  L 81,54  L 81,53  L 80,53  L 80,52  L 81,52  L 81,51  L 80,51  L 80,50  L 81,50  L 81,49  L 80,49  L 80,48  L 81,48  L 81,46  L 80,46  L 80,45  L 79,45  L 79,42  L 80,42  L 80,41  L 81,41  L 81,40  L 83,40  L 83,39  L 88,39  L 88,38  L 105,38  L 105,33  L 104,33  L 104,32  L 101,32  L 101,31  L 99,31  L 99,32  L 97,32  L 97,31  L 95,31  L 95,32  L 93,32  L 93,31  L 91,31  L 91,32  L 89,32  L 89,31  L 88,31  L 88,32  L 79,32  L 79,31  L 78,31  L 78,25  L 77,25  L 77,19  L 76,19  L 76,12  L 75,12  L 75,4  L 74,4  L 74,3  L 73,3  L 73,1  L 71,1  L 71,0  L 70,0  L 70,1  L 69,1  L 69,2  L 68,2  L 68,4  L 69,4  L 69,14  L 70,14  L 70,20  L 71,20  L 71,28  L 72,28  L 72,34  L 73,34  L 73,35  L 72,35  L 72,36  L 73,36  L 73,42  L 74,42  Z  " style="fill:rgb(0, 0, 0); fill-opacity:1.000; stroke:none;" />
</svg>
