<?xml version="1.0" encoding="UTF-8" standalone="no"?>
<!DOCTYPE svg PUBLIC "-//W3C//DTD SVG 1.1//EN" 
  "http://www.w3.org/Graphics/SVG/1.1/DTD/svg11.dtd">
<svg width="106" height="166"
     xmlns="http://www.w3.org/2000/svg" version="1.1">
 <path d="  M 42,82  L 42,83  L 37,83  L 37,84  L 34,84  L 34,85  L 29,85  L 29,86  L 28,86  L 28,85  L 27,85  L 27,86  L 24,86  L 24,87  L 18,87  L 18,88  L 12,88  L 12,89  L 7,89  L 7,90  L 4,90  L 4,91  L 2,91  L 2,93  L 1,93  L 1,94  L 2,94  L 2,96  L 3,96  L 3,97  L 6,97  L 6,96  L 7,96  L 7,97  L 9,97  L 9,96  L 12,96  L 12,95  L 20,95  L 20,94  L 25,94  L 25,93  L 26,93  L 26,94  L 27,94  L 27,93  L 29,93  L 29,92  L 32,92  L 32,91  L 33,91  L 33,92  L 34,92  L 34,91  L 37,91  L 37,90  L 43,90  L 43,89  L 46,89  L 46,90  L 47,90  L 47,89  L 56,89  L 56,88  L 57,88  L 57,89  L 58,89  L 58,88  L 59,88  L 59,89  L 60,89  L 60,88  L 76,88  L 76,87  L 77,87  L 77,88  L 78,88  L 78,87  L 88,87  L 88,86  L 89,86  L 89,87  L 92,87  L 92,86  L 93,86  L 93,87  L 94,87  L 94,86  L 103,86  L 103,85  L 104,85  L 104,84  L 106,84  L 106,78  L 104,78  L 104,77  L 103,77  L 103,78  L 97,78  L 97,79  L 93,79  L 93,80  L 86,80  L 86,81  L 85,81  L 85,80  L 84,80  L 84,81  L 57,81  L 57,79  L 56,79  L 56,75  L 55,75  L 55,67  L 54,67  L 54,66  L 55,66  L 55,65  L 54,65  L 54,64  L 55,64  L 55,63  L 54,63  L 54,58  L 55,58  L 55,53  L 56,53  L 56,51  L 57,51  L 57,48  L 58,48  L 58,47  L 59,47  L 59,46  L 60,46  L 60,44  L 61,44  L 61,42  L 63,42  L 63,40  L 64,40  L 64,37  L 65,37  L 65,36  L 66,36  L 66,35  L 67,35  L 67,36  L 68,36  L 68,35  L 69,35  L 69,36  L 72,36  L 72,37  L 74,37  L 74,38  L 76,38  L 76,39  L 77,39  L 77,40  L 78,40  L 78,41  L 80,41  L 80,42  L 81,42  L 81,43  L 83,43  L 83,44  L 84,44  L 84,45  L 85,45  L 85,46  L 87,46  L 87,47  L 88,47  L 88,48  L 89,48  L 89,49  L 90,49  L 90,50  L 91,50  L 91,51  L 92,51  L 92,52  L 94,52  L 94,53  L 96,53  L 96,52  L 97,52  L 97,50  L 98,50  L 98,48  L 97,48  L 97,46  L 96,46  L 96,45  L 95,45  L 95,44  L 94,44  L 94,43  L 93,43  L 93,42  L 91,42  L 91,40  L 89,40  L 89,39  L 88,39  L 88,38  L 87,38  L 87,37  L 85,37  L 85,36  L 84,36  L 84,35  L 83,35  L 83,34  L 81,34  L 81,33  L 80,33  L 80,32  L 79,32  L 79,31  L 78,31  L 78,30  L 76,30  L 76,29  L 75,29  L 75,24  L 74,24  L 74,23  L 75,23  L 75,20  L 76,20  L 76,17  L 77,17  L 77,15  L 78,15  L 78,8  L 77,8  L 77,5  L 76,5  L 76,3  L 75,3  L 75,2  L 72,2  L 72,1  L 70,1  L 70,2  L 69,2  L 69,1  L 68,1  L 68,2  L 65,2  L 65,1  L 64,1  L 64,2  L 61,2  L 61,1  L 60,1  L 60,2  L 50,2  L 50,3  L 49,3  L 49,4  L 48,4  L 48,7  L 49,7  L 49,9  L 50,9  L 50,10  L 51,10  L 51,11  L 53,11  L 53,10  L 71,10  L 71,15  L 70,15  L 70,16  L 69,16  L 69,18  L 68,18  L 68,19  L 67,19  L 67,21  L 66,21  L 66,24  L 65,24  L 65,25  L 64,25  L 64,27  L 63,27  L 63,29  L 62,29  L 62,31  L 60,31  L 60,33  L 59,33  L 59,34  L 58,34  L 58,35  L 56,35  L 56,37  L 55,37  L 55,41  L 54,41  L 54,42  L 53,42  L 53,43  L 52,43  L 52,45  L 51,45  L 51,46  L 49,46  L 49,45  L 47,45  L 47,43  L 46,43  L 46,42  L 45,42  L 45,41  L 44,41  L 44,40  L 42,40  L 42,39  L 40,39  L 40,37  L 39,37  L 39,36  L 38,36  L 38,35  L 36,35  L 36,34  L 35,34  L 35,33  L 34,33  L 34,32  L 33,32  L 33,30  L 32,30  L 32,29  L 33,29  L 33,27  L 34,27  L 34,23  L 35,23  L 35,22  L 36,22  L 36,20  L 37,20  L 37,18  L 38,18  L 38,15  L 39,15  L 39,13  L 40,13  L 40,10  L 41,10  L 41,9  L 40,9  L 40,8  L 41,8  L 41,5  L 40,5  L 40,4  L 39,4  L 39,2  L 38,2  L 38,1  L 26,1  L 26,2  L 25,2  L 25,1  L 22,1  L 22,2  L 21,2  L 21,1  L 20,1  L 20,2  L 15,2  L 15,3  L 11,3  L 11,4  L 7,4  L 7,5  L 4,5  L 4,6  L 2,6  L 2,7  L 1,7  L 1,12  L 2,12  L 2,13  L 8,13  L 8,12  L 10,12  L 10,11  L 11,11  L 11,10  L 16,10  L 16,9  L 17,9  L 17,10  L 18,10  L 18,9  L 32,9  L 32,13  L 31,13  L 31,15  L 30,15  L 30,16  L 29,16  L 29,18  L 28,18  L 28,19  L 27,19  L 27,21  L 26,21  L 26,22  L 25,22  L 25,23  L 24,23  L 24,25  L 23,25  L 23,27  L 22,27  L 22,28  L 21,28  L 21,31  L 20,31  L 20,32  L 19,32  L 19,34  L 18,34  L 18,36  L 17,36  L 17,39  L 16,39  L 16,43  L 15,43  L 15,45  L 14,45  L 14,47  L 13,47  L 13,49  L 12,49  L 12,51  L 10,51  L 10,53  L 9,53  L 9,58  L 10,58  L 10,59  L 11,59  L 11,58  L 12,58  L 12,59  L 13,59  L 13,58  L 15,58  L 15,57  L 16,57  L 16,55  L 17,55  L 17,54  L 18,54  L 18,52  L 19,52  L 19,50  L 20,50  L 20,48  L 21,48  L 21,46  L 22,46  L 22,45  L 23,45  L 23,42  L 24,42  L 24,40  L 25,40  L 25,39  L 28,39  L 28,40  L 29,40  L 29,41  L 31,41  L 31,42  L 33,42  L 33,43  L 35,43  L 35,44  L 36,44  L 36,45  L 37,45  L 37,46  L 39,46  L 39,47  L 41,47  L 41,48  L 42,48  L 42,49  L 43,49  L 43,50  L 45,50  L 45,51  L 46,51  L 46,55  L 47,55  L 47,57  L 46,57  L 46,58  L 47,58  L 47,59  L 46,59  L 46,60  L 47,60  L 47,71  L 48,71  L 48,73  L 47,73  L 47,74  L 48,74  L 48,79  L 49,79  L 49,81  L 48,81  L 48,82  Z  " style="fill:rgb(0, 0, 0); fill-opacity:1.000; stroke:none;" />
 <path d="  M 71,155  L 72,155  L 72,152  L 73,152  L 73,147  L 74,147  L 74,144  L 75,144  L 75,139  L 76,139  L 76,134  L 77,134  L 77,131  L 78,131  L 78,128  L 79,128  L 79,126  L 80,126  L 80,122  L 81,122  L 81,119  L 82,119  L 82,114  L 81,114  L 81,111  L 79,111  L 79,110  L 78,110  L 78,109  L 76,109  L 76,108  L 72,108  L 72,107  L 62,107  L 62,106  L 61,106  L 61,107  L 51,107  L 51,108  L 42,108  L 42,109  L 28,109  L 28,110  L 25,110  L 25,111  L 21,111  L 21,112  L 19,112  L 19,113  L 18,113  L 18,115  L 17,115  L 17,116  L 18,116  L 18,118  L 19,118  L 19,120  L 20,120  L 20,119  L 21,119  L 21,120  L 23,120  L 23,119  L 25,119  L 25,118  L 28,118  L 28,117  L 38,117  L 38,116  L 44,116  L 44,115  L 45,115  L 45,116  L 46,116  L 46,115  L 52,115  L 52,114  L 53,114  L 53,115  L 54,115  L 54,114  L 55,114  L 55,115  L 56,115  L 56,114  L 69,114  L 69,115  L 71,115  L 71,116  L 72,116  L 72,117  L 73,117  L 73,119  L 72,119  L 72,122  L 71,122  L 71,125  L 70,125  L 70,127  L 69,127  L 69,130  L 68,130  L 68,134  L 67,134  L 67,139  L 66,139  L 66,140  L 67,140  L 67,141  L 66,141  L 66,143  L 65,143  L 65,150  L 64,150  L 64,153  L 63,153  L 63,159  L 62,159  L 62,165  L 63,165  L 63,166  L 69,166  L 69,163  L 70,163  L 70,160  L 71,160  Z  " style="fill:rgb(0, 0, 0); fill-opacity:1.000; stroke:none;" />
</svg>
