<?xml version="1.0" encoding="UTF-8" standalone="no"?>
<!DOCTYPE svg PUBLIC "-//W3C//DTD SVG 1.1//EN" 
  "http://www.w3.org/Graphics/SVG/1.1/DTD/svg11.dtd">
<svg width="108" height="142"
     xmlns="http://www.w3.org/2000/svg" version="1.1">
 <path d="  M 38,59  L 38,60  L 39,60  L 39,61  L 40,61  L 40,62  L 41,62  L 41,63  L 42,63  L 42,64  L 43,64  L 43,65  L 45,65  L 45,67  L 47,67  L 47,68  L 49,68  L 49,70  L 51,70  L 51,71  L 52,71  L 52,72  L 53,72  L 53,73  L 54,73  L 54,74  L 56,74  L 56,75  L 57,75  L 57,76  L 59,76  L 59,77  L 64,77  L 64,76  L 65,76  L 65,75  L 64,75  L 64,74  L 63,74  L 63,72  L 62,72  L 62,71  L 61,71  L 61,69  L 59,69  L 59,68  L 58,68  L 58,67  L 57,67  L 57,66  L 56,66  L 56,65  L 55,65  L 55,64  L 53,64  L 53,63  L 51,63  L 51,62  L 50,62  L 50,61  L 49,61  L 49,60  L 48,60  L 48,59  L 46,59  L 46,57  L 44,57  L 44,56  L 43,56  L 43,55  L 42,55  L 42,54  L 41,54  L 41,53  L 40,53  L 40,52  L 39,52  L 39,51  L 37,51  L 37,48  L 38,48  L 38,46  L 39,46  L 39,45  L 40,45  L 40,44  L 41,44  L 41,43  L 42,43  L 42,41  L 43,41  L 43,40  L 44,40  L 44,39  L 45,39  L 45,38  L 46,38  L 46,37  L 47,37  L 47,35  L 48,35  L 48,34  L 49,34  L 49,32  L 50,32  L 50,31  L 49,31  L 49,28  L 48,28  L 48,27  L 47,27  L 47,26  L 46,26  L 46,25  L 45,25  L 45,24  L 36,24  L 36,25  L 30,25  L 30,26  L 25,26  L 25,27  L 18,27  L 18,28  L 15,28  L 15,27  L 14,27  L 14,28  L 12,28  L 12,29  L 8,29  L 8,30  L 3,30  L 3,29  L 1,29  L 1,31  L 0,31  L 0,34  L 1,34  L 1,35  L 2,35  L 2,36  L 3,36  L 3,35  L 4,35  L 4,36  L 6,36  L 6,35  L 8,35  L 8,34  L 13,34  L 13,33  L 19,33  L 19,32  L 30,32  L 30,31  L 37,31  L 37,30  L 42,30  L 42,31  L 43,31  L 43,32  L 42,32  L 42,34  L 41,34  L 41,35  L 40,35  L 40,36  L 39,36  L 39,37  L 38,37  L 38,38  L 37,38  L 37,39  L 36,39  L 36,40  L 35,40  L 35,41  L 34,41  L 34,43  L 33,43  L 33,44  L 32,44  L 32,45  L 31,45  L 31,46  L 30,46  L 30,47  L 28,47  L 28,48  L 27,48  L 27,50  L 26,50  L 26,51  L 25,51  L 25,53  L 24,53  L 24,54  L 23,54  L 23,55  L 22,55  L 22,56  L 21,56  L 21,57  L 20,57  L 20,59  L 18,59  L 18,60  L 17,60  L 17,61  L 16,61  L 16,62  L 15,62  L 15,63  L 14,63  L 14,64  L 13,64  L 13,65  L 12,65  L 12,66  L 11,66  L 11,67  L 9,67  L 9,68  L 8,68  L 8,69  L 7,69  L 7,74  L 9,74  L 9,75  L 11,75  L 11,74  L 13,74  L 13,73  L 14,73  L 14,72  L 16,72  L 16,70  L 17,70  L 17,69  L 18,69  L 18,68  L 19,68  L 19,67  L 20,67  L 20,66  L 21,66  L 21,65  L 22,65  L 22,63  L 23,63  L 23,62  L 24,62  L 24,61  L 26,61  L 26,59  L 27,59  L 27,58  L 28,58  L 28,56  L 29,56  L 29,55  L 30,55  L 30,54  L 31,54  L 31,53  L 33,53  L 33,55  L 34,55  L 34,56  L 35,56  L 35,57  L 36,57  L 36,58  L 37,58  L 37,59  Z  " style="fill:rgb(0, 0, 0); fill-opacity:1.000; stroke:none;" />
 <path d="  M 30,4  L 30,5  L 29,5  L 29,6  L 27,6  L 27,7  L 26,7  L 26,8  L 24,8  L 24,7  L 23,7  L 23,8  L 22,8  L 22,9  L 21,9  L 21,10  L 25,10  L 25,11  L 27,11  L 27,12  L 28,12  L 28,14  L 29,14  L 29,15  L 30,15  L 30,16  L 33,16  L 33,15  L 34,15  L 34,13  L 35,13  L 35,6  L 34,6  L 34,3  L 32,3  L 32,4  Z  " style="fill:rgb(0, 0, 0); fill-opacity:1.000; stroke:none;" />
 <path d="  M 60,142  L 60,141  L 67,141  L 67,140  L 71,140  L 71,139  L 75,139  L 75,138  L 77,138  L 77,137  L 79,137  L 79,136  L 81,136  L 81,134  L 82,134  L 82,132  L 83,132  L 83,127  L 84,127  L 84,122  L 85,122  L 85,118  L 86,118  L 86,112  L 87,112  L 87,106  L 88,106  L 88,100  L 89,100  L 89,95  L 87,95  L 87,94  L 66,94  L 66,95  L 52,95  L 52,96  L 51,96  L 51,95  L 50,95  L 50,96  L 47,96  L 47,95  L 46,95  L 46,96  L 43,96  L 43,95  L 42,95  L 42,96  L 41,96  L 41,95  L 39,95  L 39,94  L 37,94  L 37,93  L 35,93  L 35,92  L 34,92  L 34,93  L 33,93  L 33,94  L 31,94  L 31,95  L 30,95  L 30,96  L 29,96  L 29,97  L 28,97  L 28,98  L 29,98  L 29,99  L 31,99  L 31,100  L 32,100  L 32,104  L 33,104  L 33,110  L 34,110  L 34,125  L 35,125  L 35,126  L 34,126  L 34,128  L 35,128  L 35,135  L 36,135  L 36,140  L 37,140  L 37,141  L 38,141  L 38,142  Z  M 81,100  L 81,112  L 80,112  L 80,118  L 79,118  L 79,121  L 78,121  L 78,127  L 77,127  L 77,129  L 76,129  L 76,132  L 74,132  L 74,133  L 71,133  L 71,134  L 65,134  L 65,135  L 61,135  L 61,136  L 59,136  L 59,135  L 58,135  L 58,136  L 50,136  L 50,137  L 48,137  L 48,136  L 47,136  L 47,137  L 44,137  L 44,136  L 43,136  L 43,133  L 42,133  L 42,129  L 41,129  L 41,115  L 40,115  L 40,102  L 42,102  L 42,103  L 43,103  L 43,102  L 51,102  L 51,101  L 52,101  L 52,102  L 53,102  L 53,101  L 63,101  L 63,100  L 64,100  L 64,101  L 67,101  L 67,100  L 68,100  L 68,101  L 69,101  L 69,100  Z  " style="fill:rgb(0, 0, 0); fill-opacity:1.000; stroke:none;" />
 <path d="  M 76,66  L 77,66  L 77,76  L 78,76  L 78,86  L 79,86  L 79,87  L 82,87  L 82,86  L 83,86  L 83,85  L 84,85  L 84,76  L 83,76  L 83,74  L 84,74  L 84,73  L 83,73  L 83,70  L 84,70  L 84,69  L 83,69  L 83,65  L 82,65  L 82,50  L 81,50  L 81,48  L 82,48  L 82,47  L 81,47  L 81,45  L 80,45  L 80,42  L 81,42  L 81,41  L 82,41  L 82,40  L 87,40  L 87,39  L 95,39  L 95,38  L 96,38  L 96,39  L 97,39  L 97,38  L 98,38  L 98,39  L 99,39  L 99,38  L 100,38  L 100,39  L 101,39  L 101,38  L 104,38  L 104,39  L 105,39  L 105,38  L 108,38  L 108,33  L 107,33  L 107,32  L 98,32  L 98,33  L 97,33  L 97,32  L 96,32  L 96,33  L 82,33  L 82,34  L 81,34  L 81,33  L 79,33  L 79,27  L 78,27  L 78,21  L 77,21  L 77,17  L 76,17  L 76,16  L 77,16  L 77,15  L 76,15  L 76,10  L 75,10  L 75,3  L 74,3  L 74,1  L 72,1  L 72,0  L 69,0  L 69,2  L 68,2  L 68,4  L 69,4  L 69,5  L 68,5  L 68,6  L 69,6  L 69,11  L 70,11  L 70,16  L 71,16  L 71,20  L 72,20  L 72,25  L 73,25  L 73,32  L 74,32  L 74,33  L 73,33  L 73,36  L 74,36  L 74,44  L 75,44  L 75,54  L 76,54  Z  " style="fill:rgb(0, 0, 0); fill-opacity:1.000; stroke:none;" />
</svg>
