<?xml version="1.0" encoding="UTF-8" standalone="no"?>
<!DOCTYPE svg PUBLIC "-//W3C//DTD SVG 1.1//EN" 
  "http://www.w3.org/Graphics/SVG/1.1/DTD/svg11.dtd">
<svg width="102" height="163"
     xmlns="http://www.w3.org/2000/svg" version="1.1">
 <path d="  M 1,86  L 4,86  L 4,87  L 6,87  L 6,86  L 8,86  L 8,85  L 9,85  L 9,84  L 10,84  L 10,83  L 11,83  L 11,82  L 13,82  L 13,81  L 14,81  L 14,80  L 15,80  L 15,79  L 17,79  L 17,78  L 18,78  L 18,77  L 20,77  L 20,76  L 21,76  L 21,75  L 22,75  L 22,74  L 23,74  L 23,73  L 24,73  L 24,72  L 25,72  L 25,71  L 26,71  L 26,70  L 28,70  L 28,68  L 29,68  L 29,67  L 30,67  L 30,65  L 31,65  L 31,64  L 33,64  L 33,63  L 35,63  L 35,64  L 36,64  L 36,65  L 37,65  L 37,66  L 39,66  L 39,67  L 41,67  L 41,68  L 42,68  L 42,69  L 43,69  L 43,70  L 45,70  L 45,71  L 46,71  L 46,72  L 47,72  L 47,73  L 48,73  L 48,74  L 49,74  L 49,75  L 50,75  L 50,76  L 51,76  L 51,77  L 52,77  L 52,78  L 53,78  L 53,79  L 55,79  L 55,80  L 56,80  L 56,81  L 57,81  L 57,82  L 58,82  L 58,83  L 59,83  L 59,84  L 60,84  L 60,85  L 61,85  L 61,84  L 62,84  L 62,83  L 63,83  L 63,78  L 62,78  L 62,76  L 60,76  L 60,75  L 59,75  L 59,74  L 58,74  L 58,73  L 56,73  L 56,72  L 55,72  L 55,71  L 54,71  L 54,70  L 53,70  L 53,69  L 52,69  L 52,68  L 51,68  L 51,67  L 50,67  L 50,66  L 49,66  L 49,65  L 48,65  L 48,64  L 47,64  L 47,63  L 45,63  L 45,62  L 44,62  L 44,61  L 42,61  L 42,60  L 41,60  L 41,59  L 40,59  L 40,58  L 38,58  L 38,56  L 39,56  L 39,55  L 40,55  L 40,53  L 41,53  L 41,52  L 42,52  L 42,51  L 43,51  L 43,49  L 44,49  L 44,48  L 45,48  L 45,47  L 46,47  L 46,45  L 47,45  L 47,44  L 48,44  L 48,41  L 49,41  L 49,40  L 50,40  L 50,37  L 51,37  L 51,35  L 50,35  L 50,31  L 49,31  L 49,29  L 48,29  L 48,28  L 47,28  L 47,27  L 44,27  L 44,26  L 36,26  L 36,27  L 35,27  L 35,28  L 31,28  L 31,29  L 26,29  L 26,30  L 22,30  L 22,31  L 15,31  L 15,32  L 12,32  L 12,33  L 9,33  L 9,34  L 6,34  L 6,35  L 2,35  L 2,36  L 1,36  L 1,37  L 0,37  L 0,39  L 1,39  L 1,41  L 2,41  L 2,42  L 4,42  L 4,41  L 6,41  L 6,40  L 8,40  L 8,39  L 9,39  L 9,40  L 10,40  L 10,39  L 12,39  L 12,38  L 16,38  L 16,37  L 24,37  L 24,36  L 32,36  L 32,35  L 34,35  L 34,36  L 35,36  L 35,35  L 39,35  L 39,34  L 43,34  L 43,35  L 44,35  L 44,36  L 43,36  L 43,37  L 42,37  L 42,39  L 41,39  L 41,41  L 40,41  L 40,43  L 39,43  L 39,45  L 38,45  L 38,46  L 37,46  L 37,47  L 36,47  L 36,48  L 35,48  L 35,49  L 34,49  L 34,50  L 33,50  L 33,51  L 32,51  L 32,52  L 31,52  L 31,53  L 30,53  L 30,55  L 29,55  L 29,56  L 28,56  L 28,58  L 27,58  L 27,59  L 26,59  L 26,61  L 25,61  L 25,63  L 24,63  L 24,64  L 23,64  L 23,65  L 22,65  L 22,67  L 21,67  L 21,68  L 20,68  L 20,69  L 18,69  L 18,70  L 17,70  L 17,71  L 16,71  L 16,72  L 14,72  L 14,73  L 12,73  L 12,74  L 10,74  L 10,75  L 9,75  L 9,76  L 8,76  L 8,77  L 6,77  L 6,78  L 5,78  L 5,79  L 4,79  L 4,80  L 1,80  Z  " style="fill:rgb(0, 0, 0); fill-opacity:1.000; stroke:none;" />
 <path d="  M 24,4  L 24,8  L 25,8  L 25,10  L 26,10  L 26,13  L 27,13  L 27,16  L 28,16  L 28,17  L 29,17  L 29,18  L 30,18  L 30,19  L 31,19  L 31,20  L 32,20  L 32,21  L 33,21  L 33,20  L 34,20  L 34,14  L 33,14  L 33,12  L 34,12  L 34,11  L 33,11  L 33,4  L 32,4  L 32,2  L 31,2  L 31,1  L 30,1  L 30,0  L 29,0  L 29,1  L 26,1  L 26,2  L 25,2  L 25,4  Z  " style="fill:rgb(0, 0, 0); fill-opacity:1.000; stroke:none;" />
 <path d="  M 29,145  L 30,145  L 30,151  L 31,151  L 31,152  L 32,152  L 32,155  L 33,155  L 33,156  L 34,156  L 34,158  L 37,158  L 37,159  L 40,159  L 40,160  L 43,160  L 43,161  L 45,161  L 45,162  L 49,162  L 49,163  L 70,163  L 70,162  L 73,162  L 73,161  L 76,161  L 76,160  L 80,160  L 80,159  L 83,159  L 83,158  L 84,158  L 84,157  L 87,157  L 87,156  L 88,156  L 88,155  L 90,155  L 90,154  L 92,154  L 92,153  L 93,153  L 93,152  L 94,152  L 94,151  L 96,151  L 96,149  L 97,149  L 97,148  L 98,148  L 98,147  L 99,147  L 99,145  L 100,145  L 100,143  L 101,143  L 101,140  L 102,140  L 102,139  L 101,139  L 101,138  L 102,138  L 102,118  L 101,118  L 101,116  L 100,116  L 100,114  L 99,114  L 99,113  L 98,113  L 98,112  L 97,112  L 97,111  L 95,111  L 95,110  L 94,110  L 94,109  L 92,109  L 92,108  L 88,108  L 88,107  L 80,107  L 80,106  L 71,106  L 71,105  L 63,105  L 63,104  L 56,104  L 56,105  L 51,105  L 51,106  L 50,106  L 50,107  L 49,107  L 49,108  L 48,108  L 48,109  L 46,109  L 46,110  L 45,110  L 45,111  L 43,111  L 43,112  L 42,112  L 42,113  L 41,113  L 41,114  L 40,114  L 40,115  L 39,115  L 39,116  L 38,116  L 38,117  L 37,117  L 37,119  L 36,119  L 36,120  L 35,120  L 35,121  L 34,121  L 34,123  L 33,123  L 33,125  L 32,125  L 32,127  L 31,127  L 31,129  L 30,129  L 30,134  L 29,134  Z  M 40,153  L 40,152  L 39,152  L 39,150  L 38,150  L 38,146  L 37,146  L 37,134  L 38,134  L 38,130  L 39,130  L 39,128  L 40,128  L 40,126  L 41,126  L 41,125  L 42,125  L 42,123  L 43,123  L 43,122  L 44,122  L 44,120  L 46,120  L 46,119  L 47,119  L 47,118  L 48,118  L 48,117  L 50,117  L 50,116  L 51,116  L 51,115  L 52,115  L 52,114  L 55,114  L 55,113  L 59,113  L 59,112  L 62,112  L 62,113  L 67,113  L 67,112  L 68,112  L 68,113  L 79,113  L 79,114  L 86,114  L 86,115  L 87,115  L 87,116  L 90,116  L 90,117  L 91,117  L 91,118  L 93,118  L 93,119  L 94,119  L 94,120  L 95,120  L 95,123  L 96,123  L 96,126  L 95,126  L 95,138  L 94,138  L 94,140  L 93,140  L 93,142  L 92,142  L 92,143  L 91,143  L 91,144  L 90,144  L 90,146  L 89,146  L 89,147  L 88,147  L 88,148  L 87,148  L 87,149  L 85,149  L 85,150  L 84,150  L 84,151  L 82,151  L 82,152  L 80,152  L 80,153  L 78,153  L 78,154  L 75,154  L 75,155  L 71,155  L 71,156  L 68,156  L 68,157  L 55,157  L 55,156  L 49,156  L 49,155  L 44,155  L 44,154  L 42,154  L 42,153  Z  " style="fill:rgb(0, 0, 0); fill-opacity:1.000; stroke:none;" />
 <path d="  M 94,83  L 94,84  L 95,84  L 95,93  L 96,93  L 96,101  L 97,101  L 97,103  L 99,103  L 99,104  L 101,104  L 101,103  L 102,103  L 102,89  L 101,89  L 101,88  L 102,88  L 102,87  L 101,87  L 101,84  L 102,84  L 102,83  L 101,83  L 101,49  L 100,49  L 100,48  L 101,48  L 101,47  L 100,47  L 100,46  L 101,46  L 101,44  L 100,44  L 100,40  L 99,40  L 99,37  L 98,37  L 98,34  L 97,34  L 97,30  L 96,30  L 96,28  L 95,28  L 95,24  L 94,24  L 94,19  L 93,19  L 93,16  L 92,16  L 92,7  L 91,7  L 91,3  L 90,3  L 90,1  L 87,1  L 87,0  L 86,0  L 86,2  L 85,2  L 85,3  L 84,3  L 84,11  L 85,11  L 85,17  L 86,17  L 86,21  L 87,21  L 87,26  L 88,26  L 88,31  L 89,31  L 89,33  L 90,33  L 90,36  L 91,36  L 91,38  L 89,38  L 89,39  L 82,39  L 82,40  L 78,40  L 78,41  L 72,41  L 72,42  L 67,42  L 67,43  L 66,43  L 66,44  L 65,44  L 65,45  L 63,45  L 63,46  L 61,46  L 61,47  L 60,47  L 60,48  L 59,48  L 59,50  L 58,50  L 58,51  L 57,51  L 57,54  L 58,54  L 58,55  L 59,55  L 59,54  L 61,54  L 61,53  L 63,53  L 63,52  L 65,52  L 65,51  L 66,51  L 66,50  L 69,50  L 69,49  L 74,49  L 74,48  L 78,48  L 78,47  L 83,47  L 83,46  L 88,46  L 88,45  L 94,45  L 94,49  L 93,49  L 93,51  L 94,51  L 94,57  L 93,57  L 93,58  L 94,58  L 94,61  L 93,61  L 93,62  L 94,62  L 94,73  L 95,73  L 95,74  L 94,74  L 94,76  L 95,76  L 95,79  L 94,79  L 94,80  L 95,80  L 95,83  Z  " style="fill:rgb(0, 0, 0); fill-opacity:1.000; stroke:none;" />
</svg>
