<?xml version="1.0" encoding="UTF-8" standalone="no"?>
<!DOCTYPE svg PUBLIC "-//W3C//DTD SVG 1.1//EN" 
  "http://www.w3.org/Graphics/SVG/1.1/DTD/svg11.dtd">
<svg width="103" height="177"
     xmlns="http://www.w3.org/2000/svg" version="1.1">
 <path d="  M 67,85  L 67,84  L 66,84  L 66,83  L 64,83  L 64,82  L 63,82  L 63,81  L 62,81  L 62,80  L 61,80  L 61,79  L 59,79  L 59,77  L 58,77  L 58,76  L 56,76  L 56,75  L 55,75  L 55,74  L 53,74  L 53,73  L 51,73  L 51,72  L 49,72  L 49,71  L 48,71  L 48,70  L 47,70  L 47,69  L 45,69  L 45,68  L 44,68  L 44,67  L 43,67  L 43,66  L 41,66  L 41,65  L 40,65  L 40,63  L 39,63  L 39,60  L 40,60  L 40,59  L 41,59  L 41,58  L 42,58  L 42,57  L 43,57  L 43,55  L 44,55  L 44,54  L 45,54  L 45,53  L 46,53  L 46,52  L 47,52  L 47,50  L 49,50  L 49,48  L 50,48  L 50,45  L 51,45  L 51,44  L 52,44  L 52,43  L 53,43  L 53,41  L 54,41  L 54,38  L 55,38  L 55,36  L 54,36  L 54,35  L 53,35  L 53,33  L 51,33  L 51,32  L 39,32  L 39,33  L 33,33  L 33,34  L 28,34  L 28,35  L 24,35  L 24,36  L 18,36  L 18,37  L 14,37  L 14,38  L 12,38  L 12,39  L 10,39  L 10,40  L 7,40  L 7,41  L 5,41  L 5,42  L 3,42  L 3,43  L 1,43  L 1,46  L 2,46  L 2,48  L 7,48  L 7,47  L 9,47  L 9,46  L 10,46  L 10,45  L 14,45  L 14,44  L 18,44  L 18,43  L 25,43  L 25,42  L 32,42  L 32,41  L 33,41  L 33,42  L 34,42  L 34,41  L 39,41  L 39,40  L 44,40  L 44,41  L 45,41  L 45,42  L 44,42  L 44,43  L 43,43  L 43,45  L 42,45  L 42,47  L 41,47  L 41,48  L 40,48  L 40,49  L 39,49  L 39,50  L 38,50  L 38,52  L 37,52  L 37,53  L 36,53  L 36,55  L 35,55  L 35,56  L 34,56  L 34,57  L 33,57  L 33,58  L 32,58  L 32,59  L 31,59  L 31,61  L 30,61  L 30,63  L 29,63  L 29,64  L 28,64  L 28,66  L 27,66  L 27,67  L 26,67  L 26,68  L 25,68  L 25,69  L 24,69  L 24,70  L 23,70  L 23,72  L 22,72  L 22,73  L 21,73  L 21,74  L 19,74  L 19,75  L 18,75  L 18,76  L 17,76  L 17,77  L 16,77  L 16,78  L 15,78  L 15,79  L 13,79  L 13,81  L 12,81  L 12,82  L 10,82  L 10,83  L 8,83  L 8,84  L 7,84  L 7,85  L 5,85  L 5,86  L 4,86  L 4,87  L 2,87  L 2,88  L 1,88  L 1,89  L 0,89  L 0,92  L 1,92  L 1,94  L 3,94  L 3,95  L 5,95  L 5,94  L 8,94  L 8,93  L 9,93  L 9,91  L 11,91  L 11,90  L 12,90  L 12,89  L 14,89  L 14,88  L 15,88  L 15,87  L 17,87  L 17,85  L 19,85  L 19,83  L 20,83  L 20,82  L 22,82  L 22,81  L 23,81  L 23,80  L 24,80  L 24,79  L 25,79  L 25,78  L 26,78  L 26,77  L 27,77  L 27,75  L 29,75  L 29,74  L 30,74  L 30,72  L 31,72  L 31,70  L 33,70  L 33,69  L 34,69  L 34,70  L 35,70  L 35,71  L 37,71  L 37,72  L 39,72  L 39,73  L 40,73  L 40,74  L 42,74  L 42,75  L 43,75  L 43,76  L 44,76  L 44,77  L 46,77  L 46,78  L 47,78  L 47,79  L 49,79  L 49,80  L 50,80  L 50,81  L 52,81  L 52,83  L 53,83  L 53,84  L 55,84  L 55,86  L 56,86  L 56,87  L 57,87  L 57,88  L 58,88  L 58,89  L 59,89  L 59,90  L 60,90  L 60,92  L 63,92  L 63,94  L 66,94  L 66,93  L 67,93  L 67,92  L 68,92  L 68,91  L 69,91  L 69,87  L 68,87  L 68,85  Z  " style="fill:rgb(0, 0, 0); fill-opacity:1.000; stroke:none;" />
 <path d="  M 19,12  L 19,13  L 18,13  L 18,14  L 16,14  L 16,18  L 17,18  L 17,20  L 18,20  L 18,19  L 20,19  L 20,18  L 31,18  L 31,19  L 32,19  L 32,18  L 33,18  L 33,19  L 35,19  L 35,18  L 37,18  L 37,16  L 38,16  L 38,14  L 37,14  L 37,12  L 36,12  L 36,11  L 35,11  L 35,10  L 34,10  L 34,9  L 33,9  L 33,8  L 27,8  L 27,9  L 24,9  L 24,10  L 23,10  L 23,11  L 21,11  L 21,12  Z  " style="fill:rgb(0, 0, 0); fill-opacity:1.000; stroke:none;" />
 <path d="  M 59,116  L 59,115  L 60,115  L 60,116  L 64,116  L 64,117  L 65,117  L 65,118  L 69,118  L 69,119  L 72,119  L 72,120  L 74,120  L 74,121  L 76,121  L 76,122  L 77,122  L 77,123  L 78,123  L 78,124  L 79,124  L 79,125  L 78,125  L 78,128  L 76,128  L 76,129  L 74,129  L 74,130  L 72,130  L 72,131  L 69,131  L 69,133  L 66,133  L 66,134  L 64,134  L 64,135  L 62,135  L 62,136  L 61,136  L 61,137  L 58,137  L 58,138  L 55,138  L 55,139  L 52,139  L 52,140  L 49,140  L 49,141  L 45,141  L 45,142  L 43,142  L 43,143  L 40,143  L 40,144  L 39,144  L 39,143  L 38,143  L 38,144  L 37,144  L 37,145  L 33,145  L 33,146  L 32,146  L 32,148  L 30,148  L 30,149  L 29,149  L 29,151  L 28,151  L 28,153  L 27,153  L 27,157  L 28,157  L 28,164  L 29,164  L 29,166  L 30,166  L 30,169  L 31,169  L 31,171  L 32,171  L 32,172  L 33,172  L 33,173  L 34,173  L 34,172  L 35,172  L 35,173  L 37,173  L 37,174  L 38,174  L 38,175  L 40,175  L 40,176  L 44,176  L 44,177  L 70,177  L 70,176  L 73,176  L 73,175  L 75,175  L 75,174  L 79,174  L 79,173  L 82,173  L 82,172  L 84,172  L 84,171  L 87,171  L 87,170  L 89,170  L 89,169  L 90,169  L 90,168  L 92,168  L 92,167  L 95,167  L 95,166  L 96,166  L 96,165  L 98,165  L 98,164  L 99,164  L 99,163  L 100,163  L 100,162  L 101,162  L 101,161  L 102,161  L 102,159  L 103,159  L 103,152  L 100,152  L 100,153  L 99,153  L 99,154  L 97,154  L 97,155  L 96,155  L 96,156  L 95,156  L 95,157  L 94,157  L 94,158  L 92,158  L 92,159  L 91,159  L 91,160  L 89,160  L 89,161  L 88,161  L 88,162  L 86,162  L 86,163  L 85,163  L 85,164  L 82,164  L 82,165  L 78,165  L 78,166  L 75,166  L 75,167  L 73,167  L 73,168  L 69,168  L 69,169  L 62,169  L 62,170  L 55,170  L 55,169  L 54,169  L 54,170  L 51,170  L 51,169  L 49,169  L 49,170  L 48,170  L 48,169  L 43,169  L 43,168  L 41,168  L 41,167  L 39,167  L 39,166  L 38,166  L 38,165  L 37,165  L 37,163  L 36,163  L 36,162  L 37,162  L 37,161  L 36,161  L 36,156  L 37,156  L 37,153  L 38,153  L 38,152  L 40,152  L 40,151  L 43,151  L 43,150  L 46,150  L 46,149  L 49,149  L 49,148  L 51,148  L 51,147  L 55,147  L 55,146  L 58,146  L 58,145  L 61,145  L 61,144  L 65,144  L 65,143  L 67,143  L 67,142  L 69,142  L 69,141  L 70,141  L 70,140  L 73,140  L 73,139  L 74,139  L 74,138  L 75,138  L 75,137  L 77,137  L 77,136  L 79,136  L 79,135  L 80,135  L 80,134  L 83,134  L 83,132  L 85,132  L 85,131  L 86,131  L 86,130  L 88,130  L 88,128  L 89,128  L 89,127  L 90,127  L 90,122  L 89,122  L 89,121  L 88,121  L 88,119  L 86,119  L 86,117  L 84,117  L 84,116  L 83,116  L 83,115  L 82,115  L 82,116  L 81,116  L 81,115  L 79,115  L 79,114  L 77,114  L 77,113  L 74,113  L 74,112  L 71,112  L 71,111  L 67,111  L 67,110  L 64,110  L 64,109  L 54,109  L 54,108  L 45,108  L 45,109  L 35,109  L 35,111  L 34,111  L 34,112  L 33,112  L 33,114  L 34,114  L 34,116  L 35,116  L 35,115  L 36,115  L 36,116  L 37,116  L 37,117  L 41,117  L 41,116  L 46,116  L 46,115  L 57,115  L 57,116  Z  " style="fill:rgb(0, 0, 0); fill-opacity:1.000; stroke:none;" />
 <path d="  M 94,91  L 95,91  L 95,94  L 94,94  L 94,95  L 95,95  L 95,97  L 94,97  L 94,98  L 95,98  L 95,105  L 96,105  L 96,106  L 97,106  L 97,105  L 100,105  L 100,104  L 101,104  L 101,101  L 102,101  L 102,98  L 101,98  L 101,96  L 102,96  L 102,95  L 101,95  L 101,84  L 102,84  L 102,83  L 101,83  L 101,80  L 102,80  L 102,79  L 101,79  L 101,78  L 102,78  L 102,77  L 101,77  L 101,76  L 102,76  L 102,75  L 101,75  L 101,74  L 102,74  L 102,73  L 101,73  L 101,72  L 102,72  L 102,71  L 101,71  L 101,70  L 102,70  L 102,67  L 101,67  L 101,66  L 102,66  L 102,37  L 101,37  L 101,36  L 102,36  L 102,35  L 101,35  L 101,34  L 102,34  L 102,33  L 101,33  L 101,21  L 100,21  L 100,19  L 101,19  L 101,17  L 100,17  L 100,9  L 99,9  L 99,8  L 100,8  L 100,3  L 99,3  L 99,2  L 97,2  L 97,1  L 92,1  L 92,10  L 93,10  L 93,11  L 92,11  L 92,13  L 93,13  L 93,15  L 92,15  L 92,16  L 93,16  L 93,27  L 94,27  L 94,29  L 93,29  L 93,30  L 94,30  Z  " style="fill:rgb(0, 0, 0); fill-opacity:1.000; stroke:none;" />
</svg>
