<?xml version="1.0" encoding="UTF-8" standalone="no"?>
<!DOCTYPE svg PUBLIC "-//W3C//DTD SVG 1.1//EN" 
  "http://www.w3.org/Graphics/SVG/1.1/DTD/svg11.dtd">
<svg width="103" height="122"
     xmlns="http://www.w3.org/2000/svg" version="1.1">
 <path d="  M 94,19  L 94,25  L 95,25  L 95,30  L 96,30  L 96,42  L 97,42  L 97,46  L 96,46  L 96,48  L 95,48  L 95,49  L 94,49  L 94,48  L 90,48  L 90,49  L 73,49  L 73,50  L 70,50  L 70,49  L 69,49  L 69,50  L 62,50  L 62,49  L 60,49  L 60,48  L 58,48  L 58,47  L 49,47  L 49,48  L 45,48  L 45,49  L 40,49  L 40,50  L 36,50  L 36,51  L 35,51  L 35,50  L 34,50  L 34,51  L 29,51  L 29,52  L 26,52  L 26,51  L 25,51  L 25,52  L 17,52  L 17,53  L 15,53  L 15,51  L 14,51  L 14,48  L 15,48  L 15,47  L 14,47  L 14,44  L 15,44  L 15,41  L 14,41  L 14,40  L 15,40  L 15,37  L 14,37  L 14,36  L 15,36  L 15,33  L 14,33  L 14,32  L 15,32  L 15,25  L 16,25  L 16,24  L 21,24  L 21,23  L 24,23  L 24,24  L 25,24  L 25,23  L 28,23  L 28,24  L 29,24  L 29,23  L 34,23  L 34,22  L 35,22  L 35,23  L 36,23  L 36,22  L 42,22  L 42,21  L 49,21  L 49,20  L 63,20  L 63,17  L 62,17  L 62,16  L 61,16  L 61,14  L 59,14  L 59,13  L 56,13  L 56,12  L 55,12  L 55,13  L 51,13  L 51,14  L 44,14  L 44,15  L 36,15  L 36,16  L 11,16  L 11,17  L 5,17  L 5,18  L 4,18  L 4,17  L 3,17  L 3,18  L 1,18  L 1,21  L 3,21  L 3,22  L 7,22  L 7,25  L 8,25  L 8,26  L 7,26  L 7,29  L 8,29  L 8,30  L 7,30  L 7,32  L 8,32  L 8,34  L 7,34  L 7,56  L 8,56  L 8,72  L 9,72  L 9,73  L 8,73  L 8,74  L 9,74  L 9,75  L 8,75  L 8,76  L 9,76  L 9,86  L 10,86  L 10,89  L 11,89  L 11,90  L 12,90  L 12,92  L 14,92  L 14,93  L 27,93  L 27,92  L 30,92  L 30,91  L 34,91  L 34,90  L 35,90  L 35,91  L 36,91  L 36,90  L 38,90  L 38,89  L 42,89  L 42,88  L 46,88  L 46,87  L 50,87  L 50,86  L 54,86  L 54,85  L 59,85  L 59,84  L 62,84  L 62,83  L 64,83  L 64,82  L 66,82  L 66,81  L 68,81  L 68,80  L 71,80  L 71,79  L 73,79  L 73,78  L 74,78  L 74,77  L 75,77  L 75,76  L 77,76  L 77,75  L 78,75  L 78,74  L 80,74  L 80,71  L 79,71  L 79,70  L 77,70  L 77,71  L 74,71  L 74,72  L 71,72  L 71,73  L 70,73  L 70,74  L 69,74  L 69,75  L 65,75  L 65,76  L 62,76  L 62,77  L 60,77  L 60,78  L 57,78  L 57,79  L 53,79  L 53,80  L 49,80  L 49,81  L 45,81  L 45,82  L 41,82  L 41,83  L 36,83  L 36,84  L 31,84  L 31,85  L 25,85  L 25,86  L 19,86  L 19,85  L 17,85  L 17,84  L 16,84  L 16,82  L 15,82  L 15,65  L 14,65  L 14,64  L 15,64  L 15,63  L 14,63  L 14,59  L 15,59  L 15,58  L 17,58  L 17,59  L 20,59  L 20,58  L 21,58  L 21,59  L 23,59  L 23,58  L 34,58  L 34,57  L 40,57  L 40,56  L 43,56  L 43,55  L 46,55  L 46,54  L 49,54  L 49,53  L 59,53  L 59,54  L 63,54  L 63,55  L 65,55  L 65,56  L 67,56  L 67,57  L 78,57  L 78,56  L 96,56  L 96,57  L 97,57  L 97,59  L 96,59  L 96,60  L 97,60  L 97,62  L 96,62  L 96,64  L 97,64  L 97,67  L 96,67  L 96,68  L 97,68  L 97,71  L 96,71  L 96,72  L 97,72  L 97,75  L 96,75  L 96,76  L 97,76  L 97,79  L 96,79  L 96,80  L 97,80  L 97,83  L 96,83  L 96,84  L 97,84  L 97,87  L 96,87  L 96,88  L 97,88  L 97,91  L 96,91  L 96,92  L 97,92  L 97,95  L 96,95  L 96,96  L 97,96  L 97,99  L 96,99  L 96,101  L 97,101  L 97,102  L 96,102  L 96,121  L 97,121  L 97,122  L 103,122  L 103,25  L 102,25  L 102,20  L 101,20  L 101,13  L 100,13  L 100,7  L 99,7  L 99,6  L 100,6  L 100,5  L 99,5  L 99,4  L 100,4  L 100,3  L 99,3  L 99,2  L 98,2  L 98,1  L 97,1  L 97,0  L 93,0  L 93,1  L 92,1  L 92,2  L 91,2  L 91,4  L 92,4  L 92,5  L 91,5  L 91,6  L 92,6  L 92,15  L 93,15  L 93,19  Z  " style="fill:rgb(0, 0, 0); fill-opacity:1.000; stroke:none;" />
</svg>
