<?xml version="1.0" encoding="UTF-8" standalone="no"?>
<!DOCTYPE svg PUBLIC "-//W3C//DTD SVG 1.1//EN" 
  "http://www.w3.org/Graphics/SVG/1.1/DTD/svg11.dtd">
<svg width="99" height="164"
     xmlns="http://www.w3.org/2000/svg" version="1.1">
 <path d="  M 38,72  L 37,72  L 37,73  L 27,73  L 27,74  L 19,74  L 19,75  L 16,75  L 16,76  L 15,76  L 15,75  L 14,75  L 14,76  L 11,76  L 11,77  L 8,77  L 8,78  L 6,78  L 6,79  L 4,79  L 4,80  L 2,80  L 2,82  L 1,82  L 1,83  L 0,83  L 0,84  L 1,84  L 1,85  L 0,85  L 0,86  L 1,86  L 1,87  L 2,87  L 2,86  L 3,86  L 3,87  L 6,87  L 6,86  L 7,86  L 7,85  L 10,85  L 10,84  L 16,84  L 16,83  L 20,83  L 20,82  L 28,82  L 28,81  L 38,81  L 38,80  L 39,80  L 39,81  L 41,81  L 41,80  L 50,80  L 50,79  L 60,79  L 60,78  L 61,78  L 61,79  L 62,79  L 62,78  L 72,78  L 72,77  L 86,77  L 86,76  L 91,76  L 91,77  L 93,77  L 93,76  L 97,76  L 97,75  L 99,75  L 99,69  L 98,69  L 98,68  L 95,68  L 95,69  L 89,69  L 89,70  L 75,70  L 75,71  L 74,71  L 74,70  L 73,70  L 73,71  L 56,71  L 56,72  L 54,72  L 54,71  L 53,71  L 53,72  L 40,72  L 40,73  L 38,73  Z  " style="fill:rgb(0, 0, 0); fill-opacity:1.000; stroke:none;" />
 <path d="  M 32,58  L 32,57  L 51,57  L 51,56  L 52,56  L 52,57  L 53,57  L 53,56  L 65,56  L 65,55  L 70,55  L 70,54  L 71,54  L 71,55  L 72,55  L 72,54  L 87,54  L 87,53  L 89,53  L 89,50  L 88,50  L 88,48  L 87,48  L 87,47  L 72,47  L 72,48  L 69,48  L 69,47  L 68,47  L 68,35  L 69,35  L 69,34  L 68,34  L 68,33  L 69,33  L 69,32  L 68,32  L 68,31  L 69,31  L 69,30  L 68,30  L 68,29  L 69,29  L 69,28  L 68,28  L 68,27  L 69,27  L 69,12  L 70,12  L 70,11  L 71,11  L 71,10  L 73,10  L 73,11  L 77,11  L 77,10  L 82,10  L 82,9  L 84,9  L 84,8  L 85,8  L 85,7  L 86,7  L 86,5  L 85,5  L 85,4  L 84,4  L 84,3  L 83,3  L 83,2  L 81,2  L 81,1  L 73,1  L 73,2  L 64,2  L 64,3  L 63,3  L 63,2  L 62,2  L 62,3  L 61,3  L 61,2  L 60,2  L 60,3  L 59,3  L 59,2  L 58,2  L 58,3  L 53,3  L 53,2  L 52,2  L 52,3  L 51,3  L 51,2  L 50,2  L 50,3  L 42,3  L 42,2  L 40,2  L 40,3  L 39,3  L 39,2  L 36,2  L 36,3  L 23,3  L 23,4  L 17,4  L 17,5  L 12,5  L 12,6  L 10,6  L 10,7  L 9,7  L 9,9  L 8,9  L 8,10  L 7,10  L 7,11  L 8,11  L 8,13  L 10,13  L 10,14  L 16,14  L 16,13  L 20,13  L 20,12  L 25,12  L 25,11  L 30,11  L 30,20  L 29,20  L 29,21  L 30,21  L 30,24  L 29,24  L 29,25  L 30,25  L 30,28  L 29,28  L 29,29  L 30,29  L 30,32  L 29,32  L 29,33  L 30,33  L 30,36  L 29,36  L 29,37  L 30,37  L 30,40  L 29,40  L 29,41  L 30,41  L 30,44  L 29,44  L 29,45  L 30,45  L 30,47  L 29,47  L 29,48  L 28,48  L 28,49  L 19,49  L 19,50  L 15,50  L 15,51  L 14,51  L 14,50  L 13,50  L 13,51  L 10,51  L 10,52  L 9,52  L 9,54  L 8,54  L 8,56  L 7,56  L 7,59  L 8,59  L 8,60  L 12,60  L 12,59  L 15,59  L 15,58  Z  M 63,11  L 63,12  L 62,12  L 62,20  L 61,20  L 61,21  L 62,21  L 62,24  L 61,24  L 61,25  L 62,25  L 62,28  L 61,28  L 61,29  L 62,29  L 62,41  L 61,41  L 61,43  L 62,43  L 62,44  L 61,44  L 61,47  L 60,47  L 60,48  L 56,48  L 56,49  L 55,49  L 55,48  L 49,48  L 49,49  L 47,49  L 47,48  L 45,48  L 45,49  L 42,49  L 42,48  L 41,48  L 41,49  L 38,49  L 38,48  L 37,48  L 37,47  L 36,47  L 36,46  L 37,46  L 37,12  L 39,12  L 39,11  Z  " style="fill:rgb(0, 0, 0); fill-opacity:1.000; stroke:none;" />
 <path d="  M 36,132  L 36,133  L 23,133  L 23,134  L 22,134  L 22,135  L 20,135  L 20,137  L 19,137  L 19,138  L 18,138  L 18,139  L 19,139  L 19,140  L 18,140  L 18,150  L 17,150  L 17,151  L 18,151  L 18,153  L 19,153  L 19,156  L 20,156  L 20,158  L 21,158  L 21,159  L 22,159  L 22,160  L 23,160  L 23,161  L 24,161  L 24,163  L 27,163  L 27,164  L 60,164  L 60,163  L 64,163  L 64,162  L 68,162  L 68,161  L 71,161  L 71,160  L 76,160  L 76,159  L 78,159  L 78,158  L 82,158  L 82,157  L 84,157  L 84,156  L 87,156  L 87,155  L 88,155  L 88,154  L 89,154  L 89,153  L 92,153  L 92,152  L 93,152  L 93,151  L 94,151  L 94,149  L 93,149  L 93,148  L 91,148  L 91,147  L 84,147  L 84,148  L 82,148  L 82,149  L 81,149  L 81,150  L 79,150  L 79,151  L 75,151  L 75,152  L 72,152  L 72,153  L 69,153  L 69,154  L 68,154  L 68,153  L 67,153  L 67,154  L 64,154  L 64,155  L 60,155  L 60,156  L 56,156  L 56,157  L 55,157  L 55,156  L 53,156  L 53,157  L 49,157  L 49,158  L 34,158  L 34,157  L 30,157  L 30,156  L 29,156  L 29,155  L 27,155  L 27,154  L 26,154  L 26,153  L 25,153  L 25,150  L 24,150  L 24,145  L 25,145  L 25,143  L 26,143  L 26,142  L 28,142  L 28,141  L 35,141  L 35,140  L 41,140  L 41,139  L 45,139  L 45,138  L 48,138  L 48,137  L 49,137  L 49,136  L 52,136  L 52,135  L 53,135  L 53,134  L 55,134  L 55,133  L 57,133  L 57,132  L 58,132  L 58,131  L 59,131  L 59,130  L 60,130  L 60,129  L 61,129  L 61,127  L 63,127  L 63,126  L 65,126  L 65,125  L 66,125  L 66,124  L 68,124  L 68,123  L 70,123  L 70,122  L 71,122  L 71,121  L 76,121  L 76,118  L 77,118  L 77,110  L 76,110  L 76,105  L 75,105  L 75,104  L 74,104  L 74,103  L 73,103  L 73,101  L 71,101  L 71,100  L 70,100  L 70,99  L 69,99  L 69,98  L 67,98  L 67,97  L 66,97  L 66,96  L 63,96  L 63,95  L 58,95  L 58,94  L 48,94  L 48,95  L 41,95  L 41,96  L 34,96  L 34,97  L 30,97  L 30,98  L 26,98  L 26,99  L 25,99  L 25,100  L 23,100  L 23,104  L 22,104  L 22,105  L 23,105  L 23,108  L 25,108  L 25,109  L 26,109  L 26,108  L 27,108  L 27,107  L 30,107  L 30,106  L 35,106  L 35,105  L 37,105  L 37,104  L 41,104  L 41,103  L 46,103  L 46,102  L 47,102  L 47,103  L 49,103  L 49,102  L 51,102  L 51,103  L 59,103  L 59,104  L 61,104  L 61,105  L 64,105  L 64,107  L 66,107  L 66,108  L 67,108  L 67,111  L 68,111  L 68,113  L 67,113  L 67,114  L 66,114  L 66,116  L 65,116  L 65,117  L 64,117  L 64,118  L 62,118  L 62,119  L 59,119  L 59,120  L 57,120  L 57,121  L 55,121  L 55,122  L 54,122  L 54,123  L 53,123  L 53,124  L 52,124  L 52,125  L 50,125  L 50,126  L 49,126  L 49,127  L 47,127  L 47,128  L 45,128  L 45,129  L 43,129  L 43,131  L 40,131  L 40,132  Z  " style="fill:rgb(0, 0, 0); fill-opacity:1.000; stroke:none;" />
</svg>
