<?xml version="1.0" encoding="UTF-8" standalone="no"?>
<!DOCTYPE svg PUBLIC "-//W3C//DTD SVG 1.1//EN" 
  "http://www.w3.org/Graphics/SVG/1.1/DTD/svg11.dtd">
<svg width="109" height="153"
     xmlns="http://www.w3.org/2000/svg" version="1.1">
 <path d="  M 3,30  L 2,30  L 2,31  L 1,31  L 1,32  L 0,32  L 0,33  L 1,33  L 1,36  L 2,36  L 2,37  L 8,37  L 8,36  L 11,36  L 11,35  L 14,35  L 14,36  L 15,36  L 15,35  L 20,35  L 20,34  L 26,34  L 26,33  L 27,33  L 27,34  L 28,34  L 28,33  L 33,33  L 33,32  L 56,32  L 56,31  L 58,31  L 58,30  L 59,30  L 59,26  L 58,26  L 58,25  L 41,25  L 41,26  L 37,26  L 37,25  L 36,25  L 36,22  L 35,22  L 35,5  L 36,5  L 36,1  L 35,1  L 35,0  L 32,0  L 32,1  L 31,1  L 31,3  L 30,3  L 30,5  L 29,5  L 29,12  L 28,12  L 28,20  L 29,20  L 29,21  L 28,21  L 28,22  L 29,22  L 29,25  L 30,25  L 30,27  L 29,27  L 29,28  L 24,28  L 24,29  L 17,29  L 17,30  L 16,30  L 16,29  L 15,29  L 15,30  L 10,30  L 10,31  L 3,31  Z  " style="fill:rgb(0, 0, 0); fill-opacity:1.000; stroke:none;" />
 <path d="  M 39,87  L 40,87  L 40,86  L 43,86  L 43,85  L 45,85  L 45,84  L 46,84  L 46,83  L 48,83  L 48,82  L 49,82  L 49,81  L 51,81  L 51,80  L 52,80  L 52,79  L 53,79  L 53,78  L 54,78  L 54,77  L 55,77  L 55,76  L 56,76  L 56,74  L 57,74  L 57,72  L 58,72  L 58,65  L 57,65  L 57,60  L 56,60  L 56,58  L 55,58  L 55,57  L 54,57  L 54,55  L 52,55  L 52,54  L 51,54  L 51,53  L 49,53  L 49,52  L 48,52  L 48,51  L 47,51  L 47,50  L 45,50  L 45,49  L 43,49  L 43,48  L 41,48  L 41,47  L 39,47  L 39,46  L 38,46  L 38,45  L 37,45  L 37,44  L 34,44  L 34,43  L 28,43  L 28,44  L 26,44  L 26,45  L 25,45  L 25,46  L 24,46  L 24,48  L 23,48  L 23,49  L 22,49  L 22,51  L 21,51  L 21,53  L 20,53  L 20,55  L 19,55  L 19,57  L 18,57  L 18,59  L 17,59  L 17,64  L 16,64  L 16,68  L 15,68  L 15,73  L 16,73  L 16,77  L 17,77  L 17,80  L 18,80  L 18,82  L 19,82  L 19,83  L 21,83  L 21,84  L 22,84  L 22,85  L 23,85  L 23,86  L 25,86  L 25,87  L 29,87  L 29,88  L 31,88  L 31,89  L 33,89  L 33,90  L 34,90  L 34,89  L 36,89  L 36,88  L 39,88  Z  M 22,64  L 23,64  L 23,62  L 24,62  L 24,61  L 25,61  L 25,59  L 26,59  L 26,57  L 27,57  L 27,55  L 28,55  L 28,54  L 29,54  L 29,53  L 30,53  L 30,51  L 31,51  L 31,50  L 34,50  L 34,51  L 35,51  L 35,52  L 36,52  L 36,53  L 38,53  L 38,54  L 39,54  L 39,55  L 41,55  L 41,56  L 44,56  L 44,57  L 46,57  L 46,58  L 47,58  L 47,59  L 49,59  L 49,60  L 50,60  L 50,63  L 51,63  L 51,67  L 50,67  L 50,70  L 49,70  L 49,73  L 48,73  L 48,74  L 47,74  L 47,75  L 46,75  L 46,76  L 45,76  L 45,77  L 44,77  L 44,78  L 43,78  L 43,79  L 40,79  L 40,80  L 36,80  L 36,81  L 35,81  L 35,80  L 34,80  L 34,81  L 30,81  L 30,80  L 28,80  L 28,79  L 25,79  L 25,78  L 23,78  L 23,76  L 22,76  Z  " style="fill:rgb(0, 0, 0); fill-opacity:1.000; stroke:none;" />
 <path d="  M 70,140  L 69,140  L 69,144  L 68,144  L 68,149  L 67,149  L 67,151  L 68,151  L 68,153  L 73,153  L 73,149  L 74,149  L 74,147  L 75,147  L 75,144  L 76,144  L 76,139  L 77,139  L 77,133  L 78,133  L 78,128  L 79,128  L 79,123  L 80,123  L 80,118  L 81,118  L 81,116  L 82,116  L 82,115  L 81,115  L 81,110  L 80,110  L 80,108  L 79,108  L 79,106  L 78,106  L 78,105  L 76,105  L 76,104  L 74,104  L 74,103  L 50,103  L 50,104  L 48,104  L 48,103  L 47,103  L 47,104  L 39,104  L 39,105  L 31,105  L 31,106  L 30,106  L 30,109  L 31,109  L 31,110  L 33,110  L 33,111  L 36,111  L 36,112  L 39,112  L 39,111  L 44,111  L 44,110  L 50,110  L 50,109  L 51,109  L 51,110  L 52,110  L 52,109  L 53,109  L 53,110  L 54,110  L 54,109  L 57,109  L 57,110  L 58,110  L 58,109  L 67,109  L 67,110  L 71,110  L 71,111  L 73,111  L 73,112  L 74,112  L 74,114  L 75,114  L 75,115  L 74,115  L 74,116  L 75,116  L 75,117  L 74,117  L 74,123  L 73,123  L 73,126  L 72,126  L 72,131  L 71,131  L 71,135  L 70,135  Z  " style="fill:rgb(0, 0, 0); fill-opacity:1.000; stroke:none;" />
 <path d="  M 78,68  L 79,68  L 79,70  L 78,70  L 78,72  L 79,72  L 79,85  L 80,85  L 80,89  L 81,89  L 81,90  L 86,90  L 86,85  L 85,85  L 85,84  L 86,84  L 86,83  L 85,83  L 85,65  L 84,65  L 84,62  L 85,62  L 85,61  L 84,61  L 84,54  L 83,54  L 83,50  L 82,50  L 82,49  L 83,49  L 83,48  L 85,48  L 85,47  L 90,47  L 90,46  L 109,46  L 109,41  L 108,41  L 108,40  L 107,40  L 107,39  L 103,39  L 103,40  L 101,40  L 101,39  L 99,39  L 99,40  L 97,40  L 97,39  L 95,39  L 95,40  L 94,40  L 94,39  L 91,39  L 91,40  L 83,40  L 83,39  L 82,39  L 82,27  L 81,27  L 81,26  L 82,26  L 82,25  L 81,25  L 81,24  L 82,24  L 82,23  L 81,23  L 81,20  L 80,20  L 80,13  L 79,13  L 79,8  L 78,8  L 78,7  L 77,7  L 77,6  L 76,6  L 76,5  L 74,5  L 74,6  L 73,6  L 73,10  L 74,10  L 74,16  L 75,16  L 75,23  L 76,23  L 76,40  L 77,40  L 77,41  L 76,41  L 76,42  L 77,42  L 77,43  L 76,43  L 76,44  L 77,44  L 77,52  L 78,52  L 78,53  L 77,53  L 77,54  L 78,54  Z  " style="fill:rgb(0, 0, 0); fill-opacity:1.000; stroke:none;" />
</svg>
