<?xml version="1.0" encoding="UTF-8" standalone="no"?>
<!DOCTYPE svg PUBLIC "-//W3C//DTD SVG 1.1//EN" 
  "http://www.w3.org/Graphics/SVG/1.1/DTD/svg11.dtd">
<svg width="111" height="147"
     xmlns="http://www.w3.org/2000/svg" version="1.1">
 <path d="  M 36,22  L 35,22  L 35,8  L 36,8  L 36,6  L 35,6  L 35,4  L 36,4  L 36,2  L 35,2  L 35,0  L 34,0  L 34,1  L 33,1  L 33,2  L 32,2  L 32,3  L 31,3  L 31,5  L 30,5  L 30,6  L 29,6  L 29,10  L 28,10  L 28,24  L 29,24  L 29,28  L 30,28  L 30,29  L 29,29  L 29,30  L 25,30  L 25,31  L 24,31  L 24,30  L 21,30  L 21,31  L 15,31  L 15,32  L 11,32  L 11,33  L 8,33  L 8,34  L 4,34  L 4,35  L 2,35  L 2,36  L 1,36  L 1,37  L 0,37  L 0,38  L 1,38  L 1,39  L 2,39  L 2,40  L 3,40  L 3,41  L 4,41  L 4,40  L 5,40  L 5,41  L 6,41  L 6,40  L 7,40  L 7,39  L 11,39  L 11,38  L 12,38  L 12,39  L 13,39  L 13,38  L 14,38  L 14,37  L 20,37  L 20,36  L 25,36  L 25,35  L 26,35  L 26,36  L 27,36  L 27,35  L 33,35  L 33,34  L 48,34  L 48,33  L 49,33  L 49,34  L 50,34  L 50,33  L 57,33  L 57,32  L 58,32  L 58,31  L 59,31  L 59,28  L 58,28  L 58,27  L 57,27  L 57,26  L 56,26  L 56,27  L 55,27  L 55,26  L 48,26  L 48,27  L 46,27  L 46,26  L 45,26  L 45,27  L 42,27  L 42,26  L 41,26  L 41,27  L 36,27  Z  " style="fill:rgb(0, 0, 0); fill-opacity:1.000; stroke:none;" />
 <path d="  M 55,76  L 55,75  L 56,75  L 56,71  L 57,71  L 57,62  L 56,62  L 56,60  L 55,60  L 55,58  L 54,58  L 54,56  L 53,56  L 53,55  L 52,55  L 52,54  L 51,54  L 51,53  L 49,53  L 49,52  L 47,52  L 47,51  L 46,51  L 46,50  L 43,50  L 43,49  L 41,49  L 41,48  L 39,48  L 39,47  L 38,47  L 38,46  L 35,46  L 35,45  L 34,45  L 34,44  L 28,44  L 28,45  L 25,45  L 25,46  L 24,46  L 24,47  L 22,47  L 22,49  L 21,49  L 21,50  L 20,50  L 20,52  L 19,52  L 19,53  L 18,53  L 18,55  L 17,55  L 17,57  L 16,57  L 16,60  L 15,60  L 15,63  L 14,63  L 14,66  L 13,66  L 13,73  L 14,73  L 14,77  L 15,77  L 15,79  L 16,79  L 16,81  L 17,81  L 17,82  L 18,82  L 18,84  L 20,84  L 20,85  L 21,85  L 21,86  L 23,86  L 23,87  L 25,87  L 25,88  L 26,88  L 26,89  L 29,89  L 29,91  L 30,91  L 30,92  L 31,92  L 31,91  L 33,91  L 33,89  L 36,89  L 36,88  L 37,88  L 37,87  L 38,87  L 38,86  L 41,86  L 41,85  L 42,85  L 42,84  L 45,84  L 45,83  L 47,83  L 47,82  L 49,82  L 49,81  L 50,81  L 50,80  L 51,80  L 51,79  L 52,79  L 52,78  L 53,78  L 53,76  Z  M 35,52  L 35,53  L 36,53  L 36,54  L 39,54  L 39,55  L 41,55  L 41,56  L 43,56  L 43,57  L 45,57  L 45,58  L 47,58  L 47,59  L 48,59  L 48,60  L 49,60  L 49,61  L 50,61  L 50,62  L 51,62  L 51,64  L 50,64  L 50,68  L 49,68  L 49,70  L 48,70  L 48,73  L 47,73  L 47,74  L 46,74  L 46,75  L 45,75  L 45,76  L 44,76  L 44,77  L 43,77  L 43,78  L 41,78  L 41,79  L 38,79  L 38,80  L 33,80  L 33,81  L 27,81  L 27,80  L 25,80  L 25,79  L 23,79  L 23,78  L 22,78  L 22,76  L 21,76  L 21,74  L 20,74  L 20,66  L 21,66  L 21,64  L 22,64  L 22,61  L 23,61  L 23,59  L 24,59  L 24,57  L 25,57  L 25,56  L 26,56  L 26,54  L 27,54  L 27,53  L 28,53  L 28,52  L 29,52  L 29,51  L 30,51  L 30,52  L 31,52  L 31,51  L 32,51  L 32,52  Z  " style="fill:rgb(0, 0, 0); fill-opacity:1.000; stroke:none;" />
 <path d="  M 79,130  L 78,130  L 78,132  L 77,132  L 77,134  L 76,134  L 76,135  L 75,135  L 75,136  L 74,136  L 74,137  L 70,137  L 70,138  L 65,138  L 65,139  L 61,139  L 61,140  L 55,140  L 55,141  L 54,141  L 54,140  L 53,140  L 53,141  L 45,141  L 45,140  L 44,140  L 44,138  L 43,138  L 43,120  L 42,120  L 42,119  L 43,119  L 43,118  L 42,118  L 42,117  L 43,117  L 43,116  L 42,116  L 42,113  L 43,113  L 43,109  L 46,109  L 46,108  L 47,108  L 47,109  L 48,109  L 48,108  L 54,108  L 54,107  L 55,107  L 55,108  L 56,108  L 56,107  L 66,107  L 66,106  L 67,106  L 67,107  L 69,107  L 69,106  L 77,106  L 77,105  L 82,105  L 82,114  L 81,114  L 81,122  L 80,122  L 80,126  L 79,126  Z  M 57,147  L 57,146  L 62,146  L 62,145  L 67,145  L 67,144  L 71,144  L 71,143  L 74,143  L 74,142  L 75,142  L 75,141  L 77,141  L 77,140  L 79,140  L 79,139  L 81,139  L 81,138  L 82,138  L 82,136  L 83,136  L 83,133  L 84,133  L 84,131  L 85,131  L 85,127  L 86,127  L 86,123  L 87,123  L 87,119  L 88,119  L 88,118  L 87,118  L 87,117  L 88,117  L 88,113  L 89,113  L 89,105  L 90,105  L 90,101  L 89,101  L 89,99  L 88,99  L 88,98  L 77,98  L 77,99  L 69,99  L 69,100  L 61,100  L 61,101  L 52,101  L 52,102  L 45,102  L 45,101  L 39,101  L 39,100  L 36,100  L 36,99  L 33,99  L 33,100  L 32,100  L 32,101  L 30,101  L 30,105  L 31,105  L 31,106  L 32,106  L 32,107  L 33,107  L 33,108  L 34,108  L 34,109  L 35,109  L 35,119  L 36,119  L 36,122  L 35,122  L 35,123  L 36,123  L 36,140  L 37,140  L 37,141  L 36,141  L 36,142  L 37,142  L 37,143  L 38,143  L 38,146  L 40,146  L 40,147  Z  " style="fill:rgb(0, 0, 0); fill-opacity:1.000; stroke:none;" />
 <path d="  M 75,60  L 75,61  L 76,61  L 76,77  L 77,77  L 77,78  L 76,78  L 76,79  L 77,79  L 77,88  L 78,88  L 78,89  L 83,89  L 83,87  L 84,87  L 84,86  L 83,86  L 83,68  L 82,68  L 82,65  L 83,65  L 83,64  L 82,64  L 82,56  L 81,56  L 81,55  L 82,55  L 82,54  L 81,54  L 81,49  L 82,49  L 82,48  L 85,48  L 85,47  L 102,47  L 102,46  L 111,46  L 111,41  L 110,41  L 110,40  L 103,40  L 103,41  L 102,41  L 102,40  L 100,40  L 100,41  L 98,41  L 98,40  L 96,40  L 96,41  L 94,41  L 94,40  L 93,40  L 93,41  L 90,41  L 90,40  L 89,40  L 89,41  L 87,41  L 87,40  L 85,40  L 85,41  L 84,41  L 84,40  L 82,40  L 82,22  L 81,22  L 81,19  L 82,19  L 82,18  L 81,18  L 81,15  L 80,15  L 80,14  L 79,14  L 79,13  L 78,13  L 78,12  L 76,12  L 76,13  L 75,13  L 75,14  L 74,14  L 74,18  L 75,18  L 75,25  L 76,25  L 76,28  L 75,28  L 75,29  L 76,29  L 76,40  L 75,40  L 75,57  L 76,57  L 76,60  Z  " style="fill:rgb(0, 0, 0); fill-opacity:1.000; stroke:none;" />
</svg>
