<?xml version="1.0" encoding="UTF-8" standalone="no"?>
<!DOCTYPE svg PUBLIC "-//W3C//DTD SVG 1.1//EN" 
  "http://www.w3.org/Graphics/SVG/1.1/DTD/svg11.dtd">
<svg width="108" height="103"
     xmlns="http://www.w3.org/2000/svg" version="1.1">
 <path d="  M 18,26  L 18,27  L 10,27  L 10,28  L 3,28  L 3,29  L 1,29  L 1,30  L 0,30  L 0,33  L 1,33  L 1,34  L 3,34  L 3,35  L 6,35  L 6,34  L 7,34  L 7,35  L 8,35  L 8,34  L 11,34  L 11,35  L 12,35  L 12,34  L 13,34  L 13,33  L 14,33  L 14,34  L 15,34  L 15,33  L 26,33  L 26,32  L 28,32  L 28,33  L 29,33  L 29,32  L 32,32  L 32,31  L 33,31  L 33,32  L 34,32  L 34,31  L 38,31  L 38,30  L 39,30  L 39,31  L 40,31  L 40,30  L 52,30  L 52,29  L 57,29  L 57,28  L 61,28  L 61,27  L 63,27  L 63,26  L 64,26  L 64,23  L 53,23  L 53,22  L 52,22  L 52,23  L 40,23  L 40,24  L 39,24  L 39,23  L 37,23  L 37,24  L 31,24  L 31,25  L 25,25  L 25,26  Z  " style="fill:rgb(0, 0, 0); fill-opacity:1.000; stroke:none;" />
 <path d="  M 30,95  L 30,94  L 32,94  L 32,93  L 35,93  L 35,92  L 37,92  L 37,91  L 40,91  L 40,90  L 41,90  L 41,89  L 44,89  L 44,88  L 45,88  L 45,87  L 47,87  L 47,86  L 49,86  L 49,85  L 50,85  L 50,84  L 52,84  L 52,83  L 53,83  L 53,81  L 54,81  L 54,80  L 55,80  L 55,79  L 56,79  L 56,78  L 57,78  L 57,76  L 58,76  L 58,71  L 59,71  L 59,70  L 58,70  L 58,69  L 59,69  L 59,66  L 58,66  L 58,65  L 59,65  L 59,62  L 58,62  L 58,60  L 59,60  L 59,59  L 58,59  L 58,55  L 57,55  L 57,54  L 56,54  L 56,53  L 55,53  L 55,51  L 54,51  L 54,49  L 53,49  L 53,48  L 52,48  L 52,47  L 51,47  L 51,46  L 50,46  L 50,45  L 49,45  L 49,44  L 46,44  L 46,43  L 43,43  L 43,42  L 39,42  L 39,41  L 33,41  L 33,40  L 27,40  L 27,41  L 26,41  L 26,43  L 25,43  L 25,44  L 24,44  L 24,45  L 23,45  L 23,47  L 22,47  L 22,48  L 21,48  L 21,49  L 20,49  L 20,50  L 19,50  L 19,53  L 18,53  L 18,55  L 17,55  L 17,56  L 16,56  L 16,59  L 15,59  L 15,62  L 14,62  L 14,65  L 13,65  L 13,69  L 12,69  L 12,73  L 11,73  L 11,82  L 12,82  L 12,85  L 13,85  L 13,86  L 14,86  L 14,87  L 15,87  L 15,88  L 16,88  L 16,89  L 17,89  L 17,90  L 19,90  L 19,91  L 20,91  L 20,92  L 21,92  L 21,93  L 22,93  L 22,94  L 23,94  L 23,95  Z  M 44,82  L 43,82  L 43,83  L 39,83  L 39,84  L 37,84  L 37,85  L 35,85  L 35,86  L 32,86  L 32,87  L 26,87  L 26,86  L 24,86  L 24,85  L 21,85  L 21,84  L 20,84  L 20,83  L 19,83  L 19,82  L 18,82  L 18,81  L 17,81  L 17,80  L 16,80  L 16,74  L 17,74  L 17,70  L 18,70  L 18,65  L 19,65  L 19,63  L 20,63  L 20,61  L 21,61  L 21,59  L 22,59  L 22,57  L 23,57  L 23,56  L 24,56  L 24,55  L 25,55  L 25,53  L 26,53  L 26,51  L 28,51  L 28,50  L 29,50  L 29,49  L 31,49  L 31,48  L 32,48  L 32,47  L 40,47  L 40,48  L 42,48  L 42,47  L 43,47  L 43,48  L 44,48  L 44,49  L 46,49  L 46,50  L 47,50  L 47,51  L 49,51  L 49,52  L 50,52  L 50,53  L 51,53  L 51,57  L 52,57  L 52,72  L 51,72  L 51,74  L 50,74  L 50,76  L 49,76  L 49,78  L 47,78  L 47,79  L 46,79  L 46,81  L 44,81  Z  " style="fill:rgb(0, 0, 0); fill-opacity:1.000; stroke:none;" />
 <path d="  M 30,12  L 31,12  L 31,13  L 38,13  L 38,12  L 41,12  L 41,11  L 42,11  L 42,10  L 44,10  L 44,9  L 45,9  L 45,10  L 47,10  L 47,8  L 48,8  L 48,7  L 47,7  L 47,6  L 43,6  L 43,5  L 40,5  L 40,4  L 38,4  L 38,3  L 37,3  L 37,2  L 35,2  L 35,1  L 32,1  L 32,0  L 31,0  L 31,1  L 30,1  L 30,0  L 29,0  L 29,1  L 28,1  L 28,2  L 27,2  L 27,5  L 28,5  L 28,7  L 29,7  L 29,8  L 30,8  Z  " style="fill:rgb(0, 0, 0); fill-opacity:1.000; stroke:none;" />
 <path d="  M 75,63  L 76,63  L 76,64  L 75,64  L 75,67  L 76,67  L 76,68  L 75,68  L 75,71  L 76,71  L 76,72  L 75,72  L 75,75  L 76,75  L 76,76  L 75,76  L 75,79  L 76,79  L 76,80  L 75,80  L 75,83  L 76,83  L 76,84  L 75,84  L 75,87  L 76,87  L 76,88  L 75,88  L 75,95  L 76,95  L 76,97  L 77,97  L 77,96  L 80,96  L 80,95  L 81,95  L 81,94  L 82,94  L 82,54  L 89,54  L 89,53  L 102,53  L 102,54  L 103,54  L 103,60  L 102,60  L 102,61  L 103,61  L 103,72  L 102,72  L 102,73  L 103,73  L 103,76  L 102,76  L 102,77  L 103,77  L 103,80  L 102,80  L 102,81  L 103,81  L 103,84  L 102,84  L 102,85  L 103,85  L 103,88  L 102,88  L 102,89  L 103,89  L 103,92  L 102,92  L 102,101  L 103,101  L 103,103  L 107,103  L 107,101  L 108,101  L 108,30  L 107,30  L 107,29  L 108,29  L 108,28  L 107,28  L 107,22  L 106,22  L 106,19  L 105,19  L 105,17  L 106,17  L 106,16  L 105,16  L 105,13  L 104,13  L 104,10  L 103,10  L 103,9  L 102,9  L 102,8  L 98,8  L 98,15  L 99,15  L 99,19  L 100,19  L 100,25  L 101,25  L 101,32  L 102,32  L 102,45  L 103,45  L 103,46  L 102,46  L 102,47  L 101,47  L 101,48  L 99,48  L 99,47  L 98,47  L 98,48  L 84,48  L 84,49  L 81,49  L 81,32  L 80,32  L 80,24  L 79,24  L 79,11  L 80,11  L 80,10  L 79,10  L 79,9  L 78,9  L 78,8  L 76,8  L 76,7  L 75,7  L 75,8  L 74,8  L 74,10  L 73,10  L 73,21  L 74,21  L 74,23  L 73,23  L 73,24  L 74,24  L 74,39  L 75,39  L 75,42  L 74,42  L 74,43  L 75,43  Z  " style="fill:rgb(0, 0, 0); fill-opacity:1.000; stroke:none;" />
</svg>
