<?xml version="1.0" encoding="UTF-8" standalone="no"?>
<!DOCTYPE svg PUBLIC "-//W3C//DTD SVG 1.1//EN" 
  "http://www.w3.org/Graphics/SVG/1.1/DTD/svg11.dtd">
<svg width="106" height="142"
     xmlns="http://www.w3.org/2000/svg" version="1.1">
 <path d="  M 52,28  L 52,27  L 53,27  L 53,24  L 52,24  L 52,23  L 50,23  L 50,22  L 44,22  L 44,23  L 35,23  L 35,24  L 34,24  L 34,23  L 33,23  L 33,24  L 30,24  L 30,23  L 29,23  L 29,24  L 27,24  L 27,25  L 23,25  L 23,26  L 22,26  L 22,25  L 21,25  L 21,26  L 14,26  L 14,27  L 13,27  L 13,26  L 12,26  L 12,27  L 7,27  L 7,28  L 6,28  L 6,27  L 5,27  L 5,28  L 2,28  L 2,29  L 1,29  L 1,30  L 0,30  L 0,32  L 1,32  L 1,34  L 6,34  L 6,33  L 10,33  L 10,32  L 15,32  L 15,31  L 16,31  L 16,32  L 17,32  L 17,31  L 23,31  L 23,30  L 34,30  L 34,29  L 35,29  L 35,30  L 36,30  L 36,29  L 46,29  L 46,28  L 47,28  L 47,29  L 49,29  L 49,28  Z  " style="fill:rgb(0, 0, 0); fill-opacity:1.000; stroke:none;" />
 <path d="  M 36,48  L 36,49  L 38,49  L 38,50  L 39,50  L 39,51  L 41,51  L 41,52  L 42,52  L 42,54  L 43,54  L 43,57  L 44,57  L 44,58  L 43,58  L 43,63  L 42,63  L 42,66  L 41,66  L 41,67  L 40,67  L 40,68  L 39,68  L 39,69  L 38,69  L 38,70  L 36,70  L 36,71  L 35,71  L 35,72  L 23,72  L 23,71  L 21,71  L 21,70  L 20,70  L 20,69  L 19,69  L 19,68  L 18,68  L 18,67  L 17,67  L 17,58  L 18,58  L 18,56  L 19,56  L 19,54  L 20,54  L 20,52  L 21,52  L 21,50  L 22,50  L 22,49  L 23,49  L 23,48  L 24,48  L 24,47  L 25,47  L 25,46  L 30,46  L 30,47  L 34,47  L 34,48  Z  M 49,57  L 48,57  L 48,54  L 47,54  L 47,51  L 46,51  L 46,50  L 45,50  L 45,48  L 44,48  L 44,47  L 43,47  L 43,46  L 42,46  L 42,45  L 40,45  L 40,44  L 38,44  L 38,43  L 37,43  L 37,42  L 34,42  L 34,41  L 31,41  L 31,40  L 27,40  L 27,39  L 24,39  L 24,40  L 21,40  L 21,41  L 20,41  L 20,42  L 19,42  L 19,43  L 18,43  L 18,45  L 17,45  L 17,46  L 16,46  L 16,48  L 15,48  L 15,50  L 14,50  L 14,52  L 13,52  L 13,55  L 12,55  L 12,59  L 11,59  L 11,69  L 12,69  L 12,72  L 14,72  L 14,74  L 15,74  L 15,75  L 16,75  L 16,76  L 18,76  L 18,77  L 19,77  L 19,78  L 23,78  L 23,79  L 25,79  L 25,78  L 26,78  L 26,79  L 29,79  L 29,78  L 32,78  L 32,77  L 35,77  L 35,76  L 38,76  L 38,75  L 40,75  L 40,74  L 42,74  L 42,73  L 43,73  L 43,72  L 44,72  L 44,71  L 45,71  L 45,70  L 46,70  L 46,69  L 47,69  L 47,68  L 48,68  L 48,65  L 49,65  Z  " style="fill:rgb(0, 0, 0); fill-opacity:1.000; stroke:none;" />
 <path d="  M 11,132  L 12,132  L 12,134  L 13,134  L 13,135  L 14,135  L 14,136  L 16,136  L 16,135  L 17,135  L 17,134  L 18,134  L 18,132  L 19,132  L 19,130  L 20,130  L 20,128  L 21,128  L 21,127  L 22,127  L 22,126  L 23,126  L 23,124  L 24,124  L 24,123  L 25,123  L 25,122  L 26,122  L 26,121  L 27,121  L 27,120  L 28,120  L 28,119  L 29,119  L 29,117  L 30,117  L 30,116  L 31,116  L 31,114  L 32,114  L 32,112  L 33,112  L 33,111  L 35,111  L 35,112  L 37,112  L 37,113  L 38,113  L 38,114  L 40,114  L 40,115  L 43,115  L 43,116  L 45,116  L 45,117  L 48,117  L 48,118  L 51,118  L 51,119  L 52,119  L 52,120  L 53,120  L 53,121  L 54,121  L 54,122  L 55,122  L 55,123  L 57,123  L 57,124  L 58,124  L 58,121  L 59,121  L 59,119  L 58,119  L 58,117  L 57,117  L 57,116  L 55,116  L 55,115  L 54,115  L 54,114  L 51,114  L 51,113  L 50,113  L 50,112  L 48,112  L 48,111  L 45,111  L 45,110  L 43,110  L 43,109  L 41,109  L 41,108  L 40,108  L 40,107  L 39,107  L 39,105  L 38,105  L 38,102  L 39,102  L 39,100  L 41,100  L 41,97  L 42,97  L 42,95  L 43,95  L 43,94  L 44,94  L 44,90  L 43,90  L 43,89  L 42,89  L 42,87  L 33,87  L 33,89  L 32,89  L 32,90  L 36,90  L 36,91  L 37,91  L 37,92  L 38,92  L 38,95  L 37,95  L 37,97  L 36,97  L 36,98  L 35,98  L 35,99  L 34,99  L 34,100  L 33,100  L 33,102  L 32,102  L 32,104  L 31,104  L 31,106  L 30,106  L 30,108  L 29,108  L 29,109  L 28,109  L 28,111  L 27,111  L 27,112  L 26,112  L 26,113  L 25,113  L 25,114  L 24,114  L 24,116  L 23,116  L 23,117  L 22,117  L 22,119  L 20,119  L 20,121  L 19,121  L 19,123  L 18,123  L 18,124  L 16,124  L 16,125  L 15,125  L 15,127  L 14,127  L 14,128  L 13,128  L 13,129  L 12,129  L 12,130  L 11,130  Z  M 37,89  L 36,89  L 36,88  L 37,88  Z  " style="fill:rgb(0, 0, 0); fill-opacity:1.000; stroke:none;" />
 <path d="  M 22,13  L 23,13  L 23,18  L 24,18  L 24,19  L 25,19  L 25,20  L 29,20  L 29,9  L 28,9  L 28,8  L 29,8  L 29,1  L 28,1  L 28,0  L 27,0  L 27,1  L 25,1  L 25,2  L 23,2  L 23,3  L 22,3  L 22,5  L 23,5  L 23,7  L 22,7  Z  " style="fill:rgb(0, 0, 0); fill-opacity:1.000; stroke:none;" />
 <path d="  M 73,96  L 72,96  L 72,98  L 71,98  L 71,103  L 70,103  L 70,105  L 69,105  L 69,107  L 68,107  L 68,109  L 67,109  L 67,112  L 66,112  L 66,115  L 65,115  L 65,117  L 64,117  L 64,120  L 63,120  L 63,122  L 62,122  L 62,123  L 61,123  L 61,125  L 60,125  L 60,127  L 58,127  L 58,126  L 57,126  L 57,128  L 56,128  L 56,129  L 55,129  L 55,131  L 54,131  L 54,133  L 53,133  L 53,136  L 52,136  L 52,137  L 51,137  L 51,138  L 52,138  L 52,139  L 51,139  L 51,140  L 52,140  L 52,142  L 57,142  L 57,141  L 58,141  L 58,140  L 59,140  L 59,137  L 60,137  L 60,134  L 61,134  L 61,132  L 63,132  L 63,130  L 64,130  L 64,128  L 65,128  L 65,127  L 66,127  L 66,125  L 67,125  L 67,124  L 68,124  L 68,121  L 69,121  L 69,119  L 70,119  L 70,117  L 71,117  L 71,112  L 72,112  L 72,111  L 73,111  L 73,110  L 75,110  L 75,112  L 76,112  L 76,113  L 77,113  L 77,114  L 78,114  L 78,115  L 79,115  L 79,116  L 81,116  L 81,117  L 83,117  L 83,118  L 84,118  L 84,119  L 86,119  L 86,120  L 88,120  L 88,121  L 89,121  L 89,122  L 91,122  L 91,123  L 94,123  L 94,124  L 95,124  L 95,125  L 96,125  L 96,126  L 98,126  L 98,127  L 99,127  L 99,128  L 101,128  L 101,129  L 102,129  L 102,130  L 103,130  L 103,132  L 104,132  L 104,131  L 105,131  L 105,130  L 106,130  L 106,124  L 105,124  L 105,123  L 103,123  L 103,122  L 102,122  L 102,121  L 100,121  L 100,120  L 98,120  L 98,119  L 96,119  L 96,118  L 94,118  L 94,117  L 92,117  L 92,116  L 90,116  L 90,115  L 89,115  L 89,114  L 88,114  L 88,113  L 86,113  L 86,112  L 84,112  L 84,111  L 83,111  L 83,110  L 82,110  L 82,109  L 81,109  L 81,108  L 80,108  L 80,106  L 79,106  L 79,100  L 80,100  L 80,92  L 79,92  L 79,91  L 78,91  L 78,90  L 74,90  L 74,91  L 73,91  Z  " style="fill:rgb(0, 0, 0); fill-opacity:1.000; stroke:none;" />
 <path d="  M 80,43  L 81,43  L 81,44  L 82,44  L 82,82  L 87,82  L 87,81  L 88,81  L 88,54  L 89,54  L 89,53  L 88,53  L 88,48  L 89,48  L 89,45  L 88,45  L 88,43  L 89,43  L 89,39  L 88,39  L 88,34  L 87,34  L 87,26  L 86,26  L 86,19  L 85,19  L 85,12  L 84,12  L 84,10  L 83,10  L 83,8  L 78,8  L 78,12  L 79,12  L 79,18  L 80,18  L 80,19  L 79,19  L 79,20  L 80,20  L 80,26  L 81,26  L 81,32  L 82,32  L 82,35  L 80,35  L 80,36  L 79,36  L 79,35  L 73,35  L 73,36  L 72,36  L 72,35  L 71,35  L 71,36  L 69,36  L 69,35  L 68,35  L 68,31  L 67,31  L 67,25  L 66,25  L 66,19  L 65,19  L 65,11  L 64,11  L 64,8  L 62,8  L 62,7  L 58,7  L 58,17  L 59,17  L 59,20  L 60,20  L 60,28  L 61,28  L 61,40  L 62,40  L 62,62  L 63,62  L 63,76  L 64,76  L 64,77  L 65,77  L 65,78  L 66,78  L 66,77  L 68,77  L 68,76  L 69,76  L 69,55  L 68,55  L 68,54  L 69,54  L 69,53  L 68,53  L 68,52  L 69,52  L 69,51  L 68,51  L 68,50  L 69,50  L 69,49  L 68,49  L 68,48  L 69,48  L 69,47  L 68,47  L 68,44  L 69,44  L 69,42  L 80,42  Z  " style="fill:rgb(0, 0, 0); fill-opacity:1.000; stroke:none;" />
</svg>
