<?xml version="1.0" encoding="UTF-8" standalone="no"?>
<!DOCTYPE svg PUBLIC "-//W3C//DTD SVG 1.1//EN" 
  "http://www.w3.org/Graphics/SVG/1.1/DTD/svg11.dtd">
<svg width="104" height="161"
     xmlns="http://www.w3.org/2000/svg" version="1.1">
 <path d="  M 26,2  L 26,3  L 25,3  L 25,11  L 26,11  L 26,12  L 25,12  L 25,13  L 26,13  L 26,14  L 25,14  L 25,15  L 26,15  L 26,25  L 27,25  L 27,30  L 28,30  L 28,35  L 29,35  L 29,36  L 28,36  L 28,37  L 20,37  L 20,38  L 16,38  L 16,39  L 15,39  L 15,38  L 14,38  L 14,39  L 9,39  L 9,40  L 6,40  L 6,41  L 3,41  L 3,42  L 1,42  L 1,44  L 0,44  L 0,47  L 1,47  L 1,48  L 5,48  L 5,47  L 7,47  L 7,46  L 8,46  L 8,47  L 9,47  L 9,46  L 11,46  L 11,45  L 19,45  L 19,44  L 21,44  L 21,45  L 22,45  L 22,44  L 29,44  L 29,43  L 30,43  L 30,44  L 31,44  L 31,43  L 39,43  L 39,42  L 47,42  L 47,41  L 63,41  L 63,40  L 64,40  L 64,39  L 65,39  L 65,37  L 66,37  L 66,36  L 65,36  L 65,35  L 64,35  L 64,34  L 62,34  L 62,33  L 51,33  L 51,34  L 43,34  L 43,33  L 42,33  L 42,34  L 40,34  L 40,35  L 36,35  L 36,33  L 35,33  L 35,30  L 34,30  L 34,29  L 35,29  L 35,28  L 34,28  L 34,22  L 33,22  L 33,12  L 32,12  L 32,9  L 33,9  L 33,8  L 32,8  L 32,6  L 31,6  L 31,3  L 30,3  L 30,2  L 29,2  L 29,0  L 28,0  L 28,1  L 27,1  L 27,2  Z  " style="fill:rgb(0, 0, 0); fill-opacity:1.000; stroke:none;" />
 <path d="  M 19,89  L 18,89  L 18,83  L 17,83  L 17,81  L 18,81  L 18,78  L 19,78  L 19,75  L 20,75  L 20,74  L 21,74  L 21,72  L 22,72  L 22,71  L 23,71  L 23,69  L 24,69  L 24,68  L 25,68  L 25,67  L 26,67  L 26,65  L 27,65  L 27,64  L 28,64  L 28,63  L 30,63  L 30,62  L 35,62  L 35,63  L 38,63  L 38,64  L 40,64  L 40,65  L 43,65  L 43,66  L 44,66  L 44,67  L 45,67  L 45,68  L 48,68  L 48,69  L 49,69  L 49,72  L 50,72  L 50,73  L 51,73  L 51,74  L 50,74  L 50,77  L 51,77  L 51,79  L 50,79  L 50,80  L 49,80  L 49,81  L 50,81  L 50,82  L 49,82  L 49,84  L 48,84  L 48,86  L 47,86  L 47,88  L 46,88  L 46,90  L 45,90  L 45,91  L 44,91  L 44,92  L 43,92  L 43,93  L 41,93  L 41,94  L 39,94  L 39,95  L 32,95  L 32,96  L 31,96  L 31,95  L 26,95  L 26,94  L 24,94  L 24,93  L 22,93  L 22,92  L 21,92  L 21,91  L 19,91  Z  M 87,102  L 88,102  L 88,103  L 93,103  L 93,101  L 94,101  L 94,74  L 93,74  L 93,73  L 94,73  L 94,72  L 93,72  L 93,71  L 94,71  L 94,70  L 93,70  L 93,67  L 94,67  L 94,66  L 93,66  L 93,65  L 94,65  L 94,64  L 93,64  L 93,63  L 94,63  L 94,62  L 93,62  L 93,53  L 92,53  L 92,50  L 91,50  L 91,48  L 90,48  L 90,44  L 89,44  L 89,40  L 88,40  L 88,33  L 87,33  L 87,24  L 86,24  L 86,20  L 85,20  L 85,18  L 84,18  L 84,17  L 80,17  L 80,18  L 79,18  L 79,29  L 80,29  L 80,31  L 81,31  L 81,32  L 80,32  L 80,33  L 81,33  L 81,43  L 82,43  L 82,45  L 83,45  L 83,47  L 85,47  L 85,49  L 84,49  L 84,50  L 79,50  L 79,51  L 72,51  L 72,52  L 66,52  L 66,53  L 64,53  L 64,54  L 63,54  L 63,58  L 69,58  L 69,57  L 82,57  L 82,56  L 85,56  L 85,57  L 87,57  L 87,58  L 86,58  L 86,72  L 85,72  L 85,73  L 82,73  L 82,74  L 81,74  L 81,75  L 75,75  L 75,76  L 73,76  L 73,77  L 72,77  L 72,76  L 70,76  L 70,77  L 67,77  L 67,78  L 64,78  L 64,79  L 61,79  L 61,80  L 60,80  L 60,81  L 59,81  L 59,83  L 58,83  L 58,81  L 57,81  L 57,76  L 56,76  L 56,70  L 55,70  L 55,68  L 54,68  L 54,66  L 53,66  L 53,64  L 52,64  L 52,62  L 51,62  L 51,61  L 49,61  L 49,60  L 47,60  L 47,59  L 45,59  L 45,58  L 43,58  L 43,57  L 41,57  L 41,56  L 39,56  L 39,55  L 38,55  L 38,54  L 36,54  L 36,53  L 28,53  L 28,54  L 27,54  L 27,55  L 26,55  L 26,56  L 25,56  L 25,57  L 24,57  L 24,58  L 23,58  L 23,59  L 22,59  L 22,60  L 21,60  L 21,61  L 20,61  L 20,63  L 19,63  L 19,64  L 18,64  L 18,65  L 17,65  L 17,68  L 16,68  L 16,69  L 15,69  L 15,71  L 14,71  L 14,74  L 13,74  L 13,75  L 12,75  L 12,79  L 11,79  L 11,90  L 12,90  L 12,93  L 13,93  L 13,95  L 15,95  L 15,96  L 16,96  L 16,97  L 18,97  L 18,98  L 19,98  L 19,99  L 20,99  L 20,100  L 22,100  L 22,101  L 24,101  L 24,102  L 37,102  L 37,101  L 41,101  L 41,100  L 44,100  L 44,99  L 46,99  L 46,98  L 47,98  L 47,97  L 48,97  L 48,96  L 50,96  L 50,95  L 51,95  L 51,94  L 52,94  L 52,92  L 53,92  L 53,91  L 54,91  L 54,89  L 55,89  L 55,87  L 56,87  L 56,86  L 64,86  L 64,85  L 66,85  L 66,84  L 69,84  L 69,83  L 73,83  L 73,82  L 77,82  L 77,81  L 81,81  L 81,80  L 87,80  Z  M 86,49  L 86,50  L 85,50  L 85,49  Z  " style="fill:rgb(0, 0, 0); fill-opacity:1.000; stroke:none;" />
 <path d="  M 28,141  L 29,141  L 29,142  L 28,142  L 28,143  L 29,143  L 29,149  L 30,149  L 30,154  L 31,154  L 31,158  L 32,158  L 32,159  L 33,159  L 33,160  L 36,160  L 36,161  L 55,161  L 55,160  L 61,160  L 61,159  L 65,159  L 65,158  L 71,158  L 71,157  L 77,157  L 77,156  L 85,156  L 85,155  L 91,155  L 91,154  L 97,154  L 97,153  L 103,153  L 103,152  L 104,152  L 104,146  L 103,146  L 103,145  L 102,145  L 102,146  L 101,146  L 101,145  L 100,145  L 100,146  L 97,146  L 97,147  L 92,147  L 92,148  L 86,148  L 86,149  L 79,149  L 79,150  L 73,150  L 73,151  L 67,151  L 67,152  L 62,152  L 62,153  L 56,153  L 56,154  L 48,154  L 48,155  L 47,155  L 47,154  L 44,154  L 44,155  L 42,155  L 42,154  L 38,154  L 38,152  L 37,152  L 37,144  L 36,144  L 36,116  L 34,116  L 34,115  L 30,115  L 30,116  L 29,116  L 29,117  L 28,117  Z  " style="fill:rgb(0, 0, 0); fill-opacity:1.000; stroke:none;" />
</svg>
