<?xml version="1.0" encoding="UTF-8" standalone="no"?>
<!DOCTYPE svg PUBLIC "-//W3C//DTD SVG 1.1//EN" 
  "http://www.w3.org/Graphics/SVG/1.1/DTD/svg11.dtd">
<svg width="101" height="151"
     xmlns="http://www.w3.org/2000/svg" version="1.1">
 <path d="  M 20,66  L 20,64  L 21,64  L 21,62  L 22,62  L 22,61  L 23,61  L 23,60  L 24,60  L 24,59  L 25,59  L 25,57  L 26,57  L 26,55  L 27,55  L 27,54  L 28,54  L 28,52  L 29,52  L 29,51  L 30,51  L 30,49  L 31,49  L 31,48  L 32,48  L 32,46  L 33,46  L 33,45  L 34,45  L 34,43  L 35,43  L 35,41  L 36,41  L 36,39  L 37,39  L 37,38  L 38,38  L 38,36  L 39,36  L 39,34  L 40,34  L 40,33  L 41,33  L 41,31  L 42,31  L 42,29  L 43,29  L 43,28  L 44,28  L 44,26  L 45,26  L 45,24  L 46,24  L 46,22  L 47,22  L 47,17  L 46,17  L 46,15  L 45,15  L 45,14  L 44,14  L 44,13  L 42,13  L 42,12  L 40,12  L 40,11  L 22,11  L 22,12  L 13,12  L 13,13  L 5,13  L 5,14  L 2,14  L 2,15  L 1,15  L 1,16  L 0,16  L 0,20  L 3,20  L 3,21  L 7,21  L 7,20  L 11,20  L 11,19  L 16,19  L 16,18  L 39,18  L 39,19  L 40,19  L 40,22  L 39,22  L 39,24  L 38,24  L 38,25  L 37,25  L 37,27  L 36,27  L 36,29  L 35,29  L 35,30  L 34,30  L 34,31  L 33,31  L 33,33  L 32,33  L 32,35  L 31,35  L 31,36  L 30,36  L 30,37  L 29,37  L 29,39  L 28,39  L 28,40  L 27,40  L 27,42  L 26,42  L 26,43  L 25,43  L 25,45  L 24,45  L 24,46  L 23,46  L 23,48  L 22,48  L 22,50  L 21,50  L 21,52  L 20,52  L 20,53  L 19,53  L 19,54  L 18,54  L 18,55  L 17,55  L 17,57  L 16,57  L 16,59  L 15,59  L 15,60  L 14,60  L 14,61  L 13,61  L 13,63  L 12,63  L 12,64  L 11,64  L 11,66  L 10,66  L 10,67  L 9,67  L 9,69  L 8,69  L 8,70  L 7,70  L 7,72  L 6,72  L 6,74  L 5,74  L 5,78  L 6,78  L 6,80  L 7,80  L 7,81  L 8,81  L 8,82  L 10,82  L 10,81  L 11,81  L 11,80  L 12,80  L 12,79  L 13,79  L 13,76  L 14,76  L 14,74  L 15,74  L 15,72  L 16,72  L 16,70  L 17,70  L 17,68  L 18,68  L 18,67  L 19,67  L 19,66  Z  " style="fill:rgb(0, 0, 0); fill-opacity:1.000; stroke:none;" />
 <path d="  M 43,101  L 43,100  L 59,100  L 59,101  L 62,101  L 62,102  L 64,102  L 64,104  L 65,104  L 65,105  L 66,105  L 66,107  L 65,107  L 65,109  L 64,109  L 64,113  L 63,113  L 63,116  L 62,116  L 62,121  L 61,121  L 61,125  L 60,125  L 60,130  L 59,130  L 59,135  L 58,135  L 58,138  L 57,138  L 57,141  L 56,141  L 56,146  L 55,146  L 55,151  L 62,151  L 62,150  L 63,150  L 63,148  L 64,148  L 64,143  L 65,143  L 65,138  L 66,138  L 66,134  L 67,134  L 67,133  L 66,133  L 66,132  L 67,132  L 67,128  L 68,128  L 68,122  L 69,122  L 69,115  L 70,115  L 70,114  L 71,114  L 71,113  L 70,113  L 70,112  L 71,112  L 71,109  L 72,109  L 72,107  L 73,107  L 73,102  L 72,102  L 72,99  L 71,99  L 71,97  L 70,97  L 70,96  L 69,96  L 69,95  L 66,95  L 66,94  L 65,94  L 65,93  L 46,93  L 46,94  L 45,94  L 45,93  L 44,93  L 44,94  L 38,94  L 38,95  L 32,95  L 32,96  L 29,96  L 29,97  L 26,97  L 26,98  L 24,98  L 24,99  L 23,99  L 23,104  L 29,104  L 29,103  L 31,103  L 31,102  L 36,102  L 36,101  Z  " style="fill:rgb(0, 0, 0); fill-opacity:1.000; stroke:none;" />
 <path d="  M 64,20  L 65,20  L 65,44  L 66,44  L 66,46  L 65,46  L 65,47  L 66,47  L 66,70  L 67,70  L 67,71  L 66,71  L 66,72  L 67,72  L 67,85  L 68,85  L 68,86  L 73,86  L 73,85  L 74,85  L 74,77  L 73,77  L 73,76  L 74,76  L 74,75  L 73,75  L 73,74  L 74,74  L 74,73  L 73,73  L 73,72  L 74,72  L 74,71  L 73,71  L 73,55  L 72,55  L 72,52  L 73,52  L 73,51  L 72,51  L 72,49  L 73,49  L 73,47  L 72,47  L 72,43  L 73,43  L 73,42  L 75,42  L 75,41  L 78,41  L 78,40  L 87,40  L 87,39  L 99,39  L 99,40  L 100,40  L 100,39  L 101,39  L 101,34  L 100,34  L 100,33  L 79,33  L 79,34  L 78,34  L 78,33  L 77,33  L 77,34  L 73,34  L 73,33  L 72,33  L 72,25  L 71,25  L 71,17  L 70,17  L 70,14  L 71,14  L 71,13  L 70,13  L 70,2  L 69,2  L 69,1  L 67,1  L 67,0  L 65,0  L 65,1  L 64,1  L 64,3  L 63,3  L 63,6  L 64,6  Z  " style="fill:rgb(0, 0, 0); fill-opacity:1.000; stroke:none;" />
</svg>
