<?xml version="1.0" encoding="UTF-8" standalone="no"?>
<!DOCTYPE svg PUBLIC "-//W3C//DTD SVG 1.1//EN" 
  "http://www.w3.org/Graphics/SVG/1.1/DTD/svg11.dtd">
<svg width="104" height="138"
     xmlns="http://www.w3.org/2000/svg" version="1.1">
 <path d="  M 45,26  L 46,26  L 46,24  L 47,24  L 47,22  L 48,22  L 48,20  L 49,20  L 49,17  L 50,17  L 50,14  L 49,14  L 49,12  L 48,12  L 48,11  L 47,11  L 47,10  L 46,10  L 46,9  L 44,9  L 44,8  L 23,8  L 23,9  L 22,9  L 22,8  L 21,8  L 21,9  L 9,9  L 9,10  L 8,10  L 8,9  L 4,9  L 4,10  L 2,10  L 2,11  L 1,11  L 1,12  L 0,12  L 0,13  L 1,13  L 1,15  L 2,15  L 2,16  L 16,16  L 16,15  L 28,15  L 28,14  L 41,14  L 41,15  L 43,15  L 43,18  L 42,18  L 42,20  L 41,20  L 41,23  L 40,23  L 40,24  L 39,24  L 39,25  L 38,25  L 38,28  L 37,28  L 37,30  L 36,30  L 36,31  L 35,31  L 35,33  L 34,33  L 34,35  L 33,35  L 33,37  L 32,37  L 32,38  L 31,38  L 31,40  L 30,40  L 30,41  L 29,41  L 29,43  L 28,43  L 28,44  L 27,44  L 27,45  L 26,45  L 26,47  L 25,47  L 25,48  L 24,48  L 24,50  L 23,50  L 23,51  L 22,51  L 22,52  L 21,52  L 21,53  L 20,53  L 20,55  L 18,55  L 18,57  L 17,57  L 17,58  L 16,58  L 16,59  L 15,59  L 15,60  L 14,60  L 14,62  L 13,62  L 13,63  L 11,63  L 11,64  L 10,64  L 10,66  L 9,66  L 9,69  L 11,69  L 11,70  L 12,70  L 12,69  L 15,69  L 15,68  L 17,68  L 17,67  L 18,67  L 18,66  L 19,66  L 19,65  L 20,65  L 20,64  L 21,64  L 21,62  L 22,62  L 22,61  L 23,61  L 23,60  L 24,60  L 24,59  L 25,59  L 25,58  L 26,58  L 26,57  L 27,57  L 27,55  L 28,55  L 28,54  L 29,54  L 29,53  L 30,53  L 30,51  L 31,51  L 31,50  L 32,50  L 32,49  L 33,49  L 33,48  L 34,48  L 34,46  L 35,46  L 35,45  L 36,45  L 36,44  L 37,44  L 37,41  L 38,41  L 38,40  L 39,40  L 39,38  L 40,38  L 40,36  L 41,36  L 41,33  L 42,33  L 42,32  L 43,32  L 43,30  L 44,30  L 44,28  L 45,28  Z  " style="fill:rgb(0, 0, 0); fill-opacity:1.000; stroke:none;" />
 <path d="  M 35,107  L 34,107  L 34,108  L 33,108  L 33,110  L 32,110  L 32,111  L 31,111  L 31,113  L 30,113  L 30,115  L 29,115  L 29,116  L 28,116  L 28,118  L 27,118  L 27,119  L 26,119  L 26,121  L 25,121  L 25,123  L 24,123  L 24,124  L 23,124  L 23,125  L 22,125  L 22,127  L 21,127  L 21,128  L 20,128  L 20,130  L 19,130  L 19,131  L 18,131  L 18,133  L 17,133  L 17,136  L 18,136  L 18,138  L 23,138  L 23,137  L 24,137  L 24,135  L 25,135  L 25,133  L 26,133  L 26,132  L 27,132  L 27,131  L 28,131  L 28,129  L 29,129  L 29,128  L 30,128  L 30,127  L 31,127  L 31,126  L 32,126  L 32,124  L 33,124  L 33,122  L 34,122  L 34,120  L 35,120  L 35,118  L 36,118  L 36,116  L 37,116  L 37,114  L 38,114  L 38,113  L 39,113  L 39,111  L 40,111  L 40,110  L 41,110  L 41,108  L 42,108  L 42,107  L 43,107  L 43,106  L 44,106  L 44,104  L 48,104  L 48,105  L 49,105  L 49,106  L 50,106  L 50,107  L 51,107  L 51,108  L 52,108  L 52,109  L 53,109  L 53,111  L 55,111  L 55,112  L 56,112  L 56,113  L 58,113  L 58,114  L 60,114  L 60,115  L 61,115  L 61,116  L 63,116  L 63,117  L 64,117  L 64,118  L 65,118  L 65,119  L 67,119  L 67,120  L 68,120  L 68,121  L 69,121  L 69,122  L 70,122  L 70,123  L 72,123  L 72,124  L 73,124  L 73,125  L 75,125  L 75,126  L 77,126  L 77,127  L 78,127  L 78,128  L 80,128  L 80,129  L 81,129  L 81,130  L 82,130  L 82,131  L 85,131  L 85,132  L 88,132  L 88,131  L 90,131  L 90,130  L 91,130  L 91,129  L 92,129  L 92,128  L 91,128  L 91,126  L 89,126  L 89,125  L 87,125  L 87,124  L 85,124  L 85,123  L 83,123  L 83,122  L 82,122  L 82,121  L 80,121  L 80,120  L 79,120  L 79,119  L 77,119  L 77,118  L 76,118  L 76,117  L 75,117  L 75,116  L 73,116  L 73,115  L 72,115  L 72,114  L 71,114  L 71,113  L 70,113  L 70,112  L 69,112  L 69,111  L 67,111  L 67,110  L 66,110  L 66,109  L 64,109  L 64,108  L 62,108  L 62,107  L 61,107  L 61,106  L 60,106  L 60,105  L 58,105  L 58,104  L 57,104  L 57,103  L 56,103  L 56,102  L 55,102  L 55,101  L 54,101  L 54,100  L 53,100  L 53,99  L 52,99  L 52,97  L 51,97  L 51,95  L 50,95  L 50,94  L 51,94  L 51,92  L 52,92  L 52,90  L 53,90  L 53,82  L 52,82  L 52,81  L 48,81  L 48,82  L 47,82  L 47,85  L 46,85  L 46,88  L 45,88  L 45,90  L 44,90  L 44,91  L 43,91  L 43,93  L 42,93  L 42,95  L 41,95  L 41,97  L 40,97  L 40,99  L 39,99  L 39,100  L 38,100  L 38,102  L 37,102  L 37,104  L 36,104  L 36,105  L 35,105  Z  " style="fill:rgb(0, 0, 0); fill-opacity:1.000; stroke:none;" />
 <path d="  M 70,29  L 69,29  L 69,46  L 68,46  L 68,82  L 69,82  L 69,83  L 70,83  L 70,84  L 71,84  L 71,83  L 73,83  L 73,82  L 74,82  L 74,81  L 75,81  L 75,75  L 74,75  L 74,74  L 75,74  L 75,71  L 74,71  L 74,70  L 75,70  L 75,67  L 74,67  L 74,66  L 75,66  L 75,63  L 74,63  L 74,62  L 75,62  L 75,61  L 74,61  L 74,60  L 75,60  L 75,59  L 74,59  L 74,58  L 75,58  L 75,57  L 74,57  L 74,56  L 75,56  L 75,55  L 74,55  L 74,54  L 75,54  L 75,42  L 76,42  L 76,41  L 78,41  L 78,40  L 87,40  L 87,39  L 88,39  L 88,40  L 89,40  L 89,39  L 90,39  L 90,40  L 91,40  L 91,39  L 94,39  L 94,40  L 95,40  L 95,39  L 104,39  L 104,34  L 103,34  L 103,33  L 94,33  L 94,32  L 87,32  L 87,33  L 86,33  L 86,32  L 82,32  L 82,33  L 81,33  L 81,32  L 79,32  L 79,33  L 77,33  L 77,32  L 76,32  L 76,26  L 77,26  L 77,25  L 76,25  L 76,17  L 75,17  L 75,9  L 74,9  L 74,3  L 73,3  L 73,1  L 72,1  L 72,0  L 69,0  L 69,1  L 68,1  L 68,11  L 69,11  L 69,18  L 70,18  L 70,21  L 69,21  L 69,22  L 70,22  Z  " style="fill:rgb(0, 0, 0); fill-opacity:1.000; stroke:none;" />
</svg>
