<?xml version="1.0" encoding="UTF-8" standalone="no"?>
<!DOCTYPE svg PUBLIC "-//W3C//DTD SVG 1.1//EN" 
  "http://www.w3.org/Graphics/SVG/1.1/DTD/svg11.dtd">
<svg width="104" height="150"
     xmlns="http://www.w3.org/2000/svg" version="1.1">
 <path d="  M 43,32  L 43,31  L 44,31  L 44,29  L 45,29  L 45,28  L 46,28  L 46,26  L 47,26  L 47,25  L 48,25  L 48,23  L 49,23  L 49,20  L 50,20  L 50,18  L 49,18  L 49,16  L 48,16  L 48,14  L 47,14  L 47,13  L 46,13  L 46,12  L 43,12  L 43,11  L 24,11  L 24,12  L 23,12  L 23,11  L 22,11  L 22,12  L 19,12  L 19,11  L 18,11  L 18,12  L 15,12  L 15,13  L 4,13  L 4,14  L 2,14  L 2,15  L 1,15  L 1,16  L 0,16  L 0,18  L 1,18  L 1,20  L 3,20  L 3,21  L 4,21  L 4,22  L 5,22  L 5,21  L 8,21  L 8,20  L 11,20  L 11,19  L 17,19  L 17,18  L 29,18  L 29,17  L 30,17  L 30,18  L 31,18  L 31,17  L 32,17  L 32,18  L 33,18  L 33,17  L 41,17  L 41,18  L 43,18  L 43,21  L 42,21  L 42,22  L 41,22  L 41,24  L 40,24  L 40,25  L 39,25  L 39,27  L 38,27  L 38,28  L 37,28  L 37,29  L 36,29  L 36,31  L 35,31  L 35,33  L 34,33  L 34,34  L 33,34  L 33,35  L 32,35  L 32,37  L 31,37  L 31,38  L 30,38  L 30,40  L 29,40  L 29,41  L 28,41  L 28,43  L 27,43  L 27,45  L 26,45  L 26,46  L 25,46  L 25,48  L 24,48  L 24,49  L 23,49  L 23,51  L 22,51  L 22,52  L 21,52  L 21,54  L 20,54  L 20,55  L 19,55  L 19,56  L 18,56  L 18,57  L 17,57  L 17,59  L 16,59  L 16,60  L 15,60  L 15,62  L 14,62  L 14,63  L 13,63  L 13,64  L 12,64  L 12,65  L 11,65  L 11,67  L 10,67  L 10,68  L 9,68  L 9,70  L 8,70  L 8,72  L 9,72  L 9,73  L 8,73  L 8,74  L 9,74  L 9,75  L 11,75  L 11,74  L 15,74  L 15,73  L 16,73  L 16,72  L 17,72  L 17,70  L 18,70  L 18,69  L 19,69  L 19,68  L 20,68  L 20,66  L 21,66  L 21,65  L 22,65  L 22,63  L 23,63  L 23,62  L 24,62  L 24,61  L 25,61  L 25,60  L 26,60  L 26,58  L 27,58  L 27,57  L 28,57  L 28,56  L 29,56  L 29,54  L 30,54  L 30,52  L 31,52  L 31,51  L 32,51  L 32,49  L 33,49  L 33,47  L 34,47  L 34,45  L 35,45  L 35,44  L 36,44  L 36,42  L 37,42  L 37,40  L 38,40  L 38,39  L 39,39  L 39,37  L 40,37  L 40,35  L 41,35  L 41,33  L 42,33  L 42,32  Z  " style="fill:rgb(0, 0, 0); fill-opacity:1.000; stroke:none;" />
 <path d="  M 39,97  L 39,96  L 45,96  L 45,95  L 57,95  L 57,94  L 83,94  L 83,93  L 85,93  L 85,92  L 86,92  L 86,89  L 85,89  L 85,87  L 54,87  L 54,88  L 53,88  L 53,87  L 50,87  L 50,88  L 40,88  L 40,89  L 36,89  L 36,90  L 33,90  L 33,91  L 32,91  L 32,90  L 31,90  L 31,91  L 29,91  L 29,92  L 28,92  L 28,93  L 27,93  L 27,95  L 26,95  L 26,97  L 25,97  L 25,100  L 24,100  L 24,102  L 23,102  L 23,111  L 22,111  L 22,112  L 23,112  L 23,115  L 22,115  L 22,116  L 23,116  L 23,117  L 22,117  L 22,118  L 23,118  L 23,119  L 22,119  L 22,122  L 23,122  L 23,123  L 22,123  L 22,126  L 23,126  L 23,131  L 24,131  L 24,138  L 25,138  L 25,144  L 26,144  L 26,146  L 27,146  L 27,149  L 28,149  L 28,150  L 51,150  L 51,149  L 55,149  L 55,148  L 59,148  L 59,147  L 62,147  L 62,146  L 65,146  L 65,145  L 67,145  L 67,144  L 71,144  L 71,143  L 74,143  L 74,142  L 76,142  L 76,141  L 80,141  L 80,140  L 82,140  L 82,139  L 83,139  L 83,138  L 85,138  L 85,137  L 87,137  L 87,136  L 88,136  L 88,133  L 89,133  L 89,129  L 86,129  L 86,130  L 84,130  L 84,131  L 82,131  L 82,132  L 79,132  L 79,133  L 76,133  L 76,134  L 74,134  L 74,135  L 72,135  L 72,136  L 70,136  L 70,137  L 68,137  L 68,138  L 66,138  L 66,139  L 62,139  L 62,140  L 59,140  L 59,141  L 54,141  L 54,142  L 51,142  L 51,143  L 46,143  L 46,144  L 44,144  L 44,143  L 42,143  L 42,144  L 36,144  L 36,143  L 33,143  L 33,141  L 32,141  L 32,132  L 31,132  L 31,129  L 32,129  L 32,128  L 33,128  L 33,127  L 34,127  L 34,126  L 35,126  L 35,125  L 39,125  L 39,124  L 43,124  L 43,123  L 45,123  L 45,122  L 49,122  L 49,121  L 54,121  L 54,120  L 58,120  L 58,119  L 60,119  L 60,118  L 63,118  L 63,117  L 67,117  L 67,116  L 70,116  L 70,115  L 74,115  L 74,114  L 77,114  L 77,113  L 79,113  L 79,112  L 80,112  L 80,111  L 81,111  L 81,110  L 82,110  L 82,104  L 79,104  L 79,105  L 76,105  L 76,106  L 74,106  L 74,107  L 70,107  L 70,108  L 67,108  L 67,109  L 65,109  L 65,110  L 62,110  L 62,111  L 58,111  L 58,112  L 56,112  L 56,113  L 52,113  L 52,114  L 49,114  L 49,115  L 46,115  L 46,116  L 43,116  L 43,117  L 37,117  L 37,118  L 35,118  L 35,119  L 34,119  L 34,118  L 33,118  L 33,119  L 32,119  L 32,118  L 31,118  L 31,117  L 30,117  L 30,101  L 31,101  L 31,100  L 32,100  L 32,99  L 33,99  L 33,98  L 35,98  L 35,97  Z  " style="fill:rgb(0, 0, 0); fill-opacity:1.000; stroke:none;" />
 <path d="  M 81,31  L 81,30  L 78,30  L 78,31  L 74,31  L 74,9  L 73,9  L 73,8  L 74,8  L 74,3  L 73,3  L 73,1  L 72,1  L 72,0  L 68,0  L 68,2  L 67,2  L 67,46  L 68,46  L 68,47  L 67,47  L 67,49  L 68,49  L 68,56  L 67,56  L 67,57  L 68,57  L 68,60  L 67,60  L 67,61  L 68,61  L 68,78  L 69,78  L 69,80  L 74,80  L 74,79  L 75,79  L 75,70  L 74,70  L 74,68  L 75,68  L 75,67  L 74,67  L 74,46  L 73,46  L 73,41  L 74,41  L 74,40  L 76,40  L 76,39  L 79,39  L 79,38  L 83,38  L 83,37  L 84,37  L 84,38  L 85,38  L 85,37  L 97,37  L 97,36  L 98,36  L 98,37  L 101,37  L 101,36  L 102,36  L 102,37  L 103,37  L 103,36  L 104,36  L 104,31  L 103,31  L 103,30  L 82,30  L 82,31  Z  " style="fill:rgb(0, 0, 0); fill-opacity:1.000; stroke:none;" />
</svg>
