<?xml version="1.0" encoding="UTF-8" standalone="no"?>
<!DOCTYPE svg PUBLIC "-//W3C//DTD SVG 1.1//EN" 
  "http://www.w3.org/Graphics/SVG/1.1/DTD/svg11.dtd">
<svg width="104" height="142"
     xmlns="http://www.w3.org/2000/svg" version="1.1">
 <path d="  M 45,26  L 46,26  L 46,24  L 47,24  L 47,23  L 48,23  L 48,20  L 49,20  L 49,19  L 48,19  L 48,16  L 47,16  L 47,15  L 46,15  L 46,14  L 45,14  L 45,13  L 43,13  L 43,12  L 42,12  L 42,11  L 33,11  L 33,10  L 32,10  L 32,11  L 17,11  L 17,12  L 15,12  L 15,11  L 14,11  L 14,12  L 8,12  L 8,13  L 3,13  L 3,14  L 1,14  L 1,15  L 2,15  L 2,16  L 1,16  L 1,17  L 0,17  L 0,18  L 1,18  L 1,19  L 2,19  L 2,18  L 3,18  L 3,19  L 5,19  L 5,20  L 7,20  L 7,19  L 8,19  L 8,20  L 9,20  L 9,19  L 14,19  L 14,18  L 22,18  L 22,17  L 37,17  L 37,18  L 40,18  L 40,19  L 42,19  L 42,21  L 41,21  L 41,22  L 40,22  L 40,24  L 39,24  L 39,26  L 38,26  L 38,27  L 37,27  L 37,29  L 36,29  L 36,31  L 35,31  L 35,32  L 34,32  L 34,34  L 33,34  L 33,35  L 32,35  L 32,37  L 31,37  L 31,39  L 30,39  L 30,41  L 29,41  L 29,42  L 28,42  L 28,44  L 27,44  L 27,46  L 26,46  L 26,47  L 25,47  L 25,49  L 24,49  L 24,51  L 23,51  L 23,52  L 22,52  L 22,53  L 21,53  L 21,55  L 20,55  L 20,56  L 19,56  L 19,58  L 18,58  L 18,59  L 17,59  L 17,61  L 16,61  L 16,64  L 15,64  L 15,65  L 14,65  L 14,66  L 13,66  L 13,67  L 12,67  L 12,68  L 11,68  L 11,70  L 10,70  L 10,72  L 9,72  L 9,73  L 10,73  L 10,74  L 11,74  L 11,76  L 13,76  L 13,77  L 14,77  L 14,76  L 16,76  L 16,74  L 17,74  L 17,73  L 18,73  L 18,72  L 19,72  L 19,71  L 20,71  L 20,69  L 21,69  L 21,67  L 22,67  L 22,66  L 23,66  L 23,65  L 24,65  L 24,63  L 25,63  L 25,61  L 26,61  L 26,60  L 27,60  L 27,58  L 28,58  L 28,56  L 29,56  L 29,54  L 30,54  L 30,53  L 31,53  L 31,52  L 32,52  L 32,50  L 33,50  L 33,48  L 34,48  L 34,46  L 35,46  L 35,44  L 36,44  L 36,42  L 37,42  L 37,40  L 38,40  L 38,39  L 39,39  L 39,37  L 40,37  L 40,34  L 41,34  L 41,33  L 42,33  L 42,31  L 43,31  L 43,29  L 44,29  L 44,28  L 45,28  Z  " style="fill:rgb(0, 0, 0); fill-opacity:1.000; stroke:none;" />
 <path d="  M 63,112  L 63,115  L 64,115  L 64,116  L 63,116  L 63,119  L 64,119  L 64,120  L 63,120  L 63,124  L 64,124  L 64,125  L 63,125  L 63,129  L 64,129  L 64,133  L 63,133  L 63,134  L 53,134  L 53,135  L 52,135  L 52,134  L 51,134  L 51,135  L 50,135  L 50,134  L 49,134  L 49,135  L 48,135  L 48,134  L 46,134  L 46,133  L 45,133  L 45,129  L 44,129  L 44,128  L 45,128  L 45,107  L 44,107  L 44,106  L 45,106  L 45,105  L 44,105  L 44,102  L 45,102  L 45,100  L 44,100  L 44,98  L 45,98  L 45,96  L 47,96  L 47,95  L 59,95  L 59,94  L 64,94  L 64,101  L 63,101  L 63,102  L 64,102  L 64,103  L 63,103  L 63,104  L 64,104  L 64,106  L 63,106  L 63,107  L 64,107  L 64,110  L 63,110  L 63,111  L 64,111  L 64,112  Z  M 70,95  L 71,95  L 71,93  L 72,93  L 72,92  L 86,92  L 86,91  L 87,91  L 87,92  L 88,92  L 88,91  L 90,91  L 90,90  L 92,90  L 92,89  L 94,89  L 94,85  L 92,85  L 92,84  L 86,84  L 86,85  L 72,85  L 72,86  L 65,86  L 65,87  L 58,87  L 58,88  L 55,88  L 55,87  L 54,87  L 54,88  L 39,88  L 39,89  L 32,89  L 32,90  L 27,90  L 27,91  L 26,91  L 26,92  L 24,92  L 24,94  L 22,94  L 22,95  L 21,95  L 21,97  L 22,97  L 22,98  L 34,98  L 34,97  L 37,97  L 37,98  L 38,98  L 38,135  L 36,135  L 36,136  L 35,136  L 35,135  L 28,135  L 28,136  L 23,136  L 23,137  L 20,137  L 20,138  L 18,138  L 18,142  L 32,142  L 32,141  L 55,141  L 55,140  L 56,140  L 56,141  L 59,141  L 59,140  L 61,140  L 61,141  L 63,141  L 63,140  L 79,140  L 79,139  L 80,139  L 80,140  L 82,140  L 82,139  L 85,139  L 85,138  L 86,138  L 86,137  L 87,137  L 87,134  L 86,134  L 86,132  L 84,132  L 84,133  L 72,133  L 72,134  L 71,134  L 71,133  L 70,133  L 70,123  L 69,123  L 69,122  L 70,122  Z  " style="fill:rgb(0, 0, 0); fill-opacity:1.000; stroke:none;" />
 <path d="  M 68,22  L 69,22  L 69,48  L 70,48  L 70,49  L 69,49  L 69,52  L 70,52  L 70,53  L 69,53  L 69,56  L 70,56  L 70,57  L 69,57  L 69,58  L 70,58  L 70,59  L 69,59  L 69,60  L 70,60  L 70,61  L 69,61  L 69,62  L 70,62  L 70,63  L 69,63  L 69,64  L 70,64  L 70,67  L 69,67  L 69,68  L 70,68  L 70,79  L 71,79  L 71,80  L 75,80  L 75,79  L 76,79  L 76,54  L 77,54  L 77,53  L 76,53  L 76,50  L 77,50  L 77,49  L 76,49  L 76,42  L 77,42  L 77,41  L 78,41  L 78,40  L 83,40  L 83,39  L 102,39  L 102,38  L 104,38  L 104,33  L 102,33  L 102,32  L 101,32  L 101,33  L 78,33  L 78,34  L 77,34  L 77,33  L 76,33  L 76,29  L 75,29  L 75,21  L 74,21  L 74,13  L 73,13  L 73,3  L 72,3  L 72,1  L 71,1  L 71,0  L 68,0  L 68,1  L 67,1  L 67,14  L 68,14  Z  " style="fill:rgb(0, 0, 0); fill-opacity:1.000; stroke:none;" />
</svg>
