<?xml version="1.0" encoding="UTF-8" standalone="no"?>
<!DOCTYPE svg PUBLIC "-//W3C//DTD SVG 1.1//EN" 
  "http://www.w3.org/Graphics/SVG/1.1/DTD/svg11.dtd">
<svg width="105" height="165"
     xmlns="http://www.w3.org/2000/svg" version="1.1">
 <path d="  M 30,15  L 30,14  L 44,14  L 44,15  L 46,15  L 46,18  L 47,18  L 47,19  L 46,19  L 46,23  L 45,23  L 45,25  L 44,25  L 44,27  L 43,27  L 43,28  L 42,28  L 42,29  L 41,29  L 41,31  L 40,31  L 40,32  L 39,32  L 39,35  L 38,35  L 38,36  L 37,36  L 37,37  L 36,37  L 36,39  L 35,39  L 35,41  L 34,41  L 34,43  L 33,43  L 33,44  L 32,44  L 32,46  L 31,46  L 31,48  L 30,48  L 30,50  L 29,50  L 29,51  L 28,51  L 28,53  L 27,53  L 27,55  L 26,55  L 26,56  L 25,56  L 25,57  L 24,57  L 24,59  L 23,59  L 23,61  L 22,61  L 22,62  L 21,62  L 21,63  L 20,63  L 20,65  L 19,65  L 19,66  L 18,66  L 18,67  L 17,67  L 17,69  L 16,69  L 16,70  L 15,70  L 15,71  L 14,71  L 14,72  L 13,72  L 13,74  L 12,74  L 12,75  L 10,75  L 10,76  L 9,76  L 9,79  L 8,79  L 8,82  L 10,82  L 10,83  L 11,83  L 11,84  L 12,84  L 12,83  L 13,83  L 13,82  L 15,82  L 15,81  L 16,81  L 16,80  L 17,80  L 17,79  L 19,79  L 19,77  L 20,77  L 20,76  L 21,76  L 21,75  L 22,75  L 22,74  L 23,74  L 23,72  L 24,72  L 24,71  L 25,71  L 25,70  L 26,70  L 26,68  L 27,68  L 27,67  L 28,67  L 28,65  L 29,65  L 29,64  L 30,64  L 30,62  L 31,62  L 31,60  L 32,60  L 32,59  L 33,59  L 33,58  L 34,58  L 34,56  L 35,56  L 35,54  L 36,54  L 36,52  L 37,52  L 37,50  L 38,50  L 38,48  L 39,48  L 39,47  L 40,47  L 40,45  L 41,45  L 41,43  L 42,43  L 42,42  L 43,42  L 43,40  L 44,40  L 44,39  L 45,39  L 45,38  L 46,38  L 46,36  L 47,36  L 47,34  L 48,34  L 48,33  L 49,33  L 49,30  L 50,30  L 50,28  L 51,28  L 51,27  L 52,27  L 52,24  L 53,24  L 53,11  L 52,11  L 52,9  L 51,9  L 51,7  L 50,7  L 50,6  L 49,6  L 49,7  L 48,7  L 48,6  L 45,6  L 45,7  L 27,7  L 27,8  L 19,8  L 19,9  L 12,9  L 12,10  L 9,10  L 9,11  L 3,11  L 3,12  L 1,12  L 1,13  L 0,13  L 0,15  L 1,15  L 1,20  L 3,20  L 3,19  L 6,19  L 6,18  L 9,18  L 9,17  L 12,17  L 12,16  L 20,16  L 20,15  Z  " style="fill:rgb(0, 0, 0); fill-opacity:1.000; stroke:none;" />
 <path d="  M 82,159  L 82,158  L 83,158  L 83,157  L 85,157  L 85,156  L 87,156  L 87,155  L 89,155  L 89,154  L 91,154  L 91,153  L 93,153  L 93,152  L 96,152  L 96,151  L 98,151  L 98,150  L 99,150  L 99,149  L 100,149  L 100,148  L 101,148  L 101,144  L 100,144  L 100,143  L 95,143  L 95,144  L 91,144  L 91,145  L 89,145  L 89,146  L 87,146  L 87,147  L 85,147  L 85,148  L 84,148  L 84,149  L 83,149  L 83,150  L 81,150  L 81,151  L 79,151  L 79,152  L 78,152  L 78,153  L 76,153  L 76,154  L 75,154  L 75,155  L 73,155  L 73,156  L 70,156  L 70,157  L 67,157  L 67,158  L 63,158  L 63,159  L 48,159  L 48,158  L 46,158  L 46,157  L 45,157  L 45,156  L 44,156  L 44,154  L 43,154  L 43,144  L 44,144  L 44,143  L 45,143  L 45,142  L 47,142  L 47,141  L 48,141  L 48,140  L 50,140  L 50,139  L 54,139  L 54,138  L 56,138  L 56,137  L 59,137  L 59,136  L 61,136  L 61,135  L 63,135  L 63,134  L 67,134  L 67,133  L 68,133  L 68,132  L 72,132  L 72,131  L 75,131  L 75,130  L 77,130  L 77,129  L 79,129  L 79,128  L 82,128  L 82,127  L 84,127  L 84,126  L 86,126  L 86,125  L 87,125  L 87,124  L 88,124  L 88,120  L 89,120  L 89,118  L 88,118  L 88,115  L 87,115  L 87,113  L 86,113  L 86,109  L 85,109  L 85,108  L 84,108  L 84,107  L 83,107  L 83,106  L 82,106  L 82,105  L 81,105  L 81,104  L 80,104  L 80,103  L 78,103  L 78,102  L 75,102  L 75,101  L 72,101  L 72,100  L 66,100  L 66,99  L 65,99  L 65,100  L 64,100  L 64,99  L 45,99  L 45,100  L 42,100  L 42,101  L 40,101  L 40,102  L 39,102  L 39,103  L 37,103  L 37,106  L 38,106  L 38,107  L 39,107  L 39,108  L 40,108  L 40,107  L 41,107  L 41,108  L 42,108  L 42,107  L 49,107  L 49,106  L 68,106  L 68,107  L 71,107  L 71,108  L 73,108  L 73,109  L 74,109  L 74,110  L 76,110  L 76,111  L 77,111  L 77,112  L 78,112  L 78,113  L 79,113  L 79,114  L 80,114  L 80,116  L 81,116  L 81,119  L 80,119  L 80,120  L 79,120  L 79,121  L 77,121  L 77,122  L 74,122  L 74,123  L 72,123  L 72,124  L 70,124  L 70,125  L 67,125  L 67,126  L 64,126  L 64,127  L 61,127  L 61,128  L 58,128  L 58,129  L 55,129  L 55,130  L 53,130  L 53,131  L 51,131  L 51,132  L 49,132  L 49,133  L 46,133  L 46,134  L 44,134  L 44,135  L 42,135  L 42,136  L 41,136  L 41,137  L 40,137  L 40,138  L 39,138  L 39,139  L 38,139  L 38,140  L 37,140  L 37,142  L 36,142  L 36,145  L 35,145  L 35,148  L 36,148  L 36,154  L 37,154  L 37,159  L 38,159  L 38,161  L 39,161  L 39,162  L 40,162  L 40,163  L 41,163  L 41,164  L 45,164  L 45,165  L 68,165  L 68,164  L 71,164  L 71,163  L 74,163  L 74,162  L 76,162  L 76,161  L 78,161  L 78,160  L 80,160  L 80,159  Z  " style="fill:rgb(0, 0, 0); fill-opacity:1.000; stroke:none;" />
 <path d="  M 78,46  L 77,46  L 77,45  L 78,45  L 78,43  L 81,43  L 81,42  L 84,42  L 84,43  L 85,43  L 85,42  L 97,42  L 97,43  L 98,43  L 98,45  L 97,45  L 97,82  L 96,82  L 96,85  L 97,85  L 97,86  L 96,86  L 96,94  L 97,94  L 97,95  L 100,95  L 100,94  L 102,94  L 102,92  L 103,92  L 103,90  L 104,90  L 104,84  L 105,84  L 105,83  L 104,83  L 104,80  L 105,80  L 105,79  L 104,79  L 104,78  L 105,78  L 105,77  L 104,77  L 104,76  L 105,76  L 105,21  L 104,21  L 104,20  L 105,20  L 105,19  L 104,19  L 104,18  L 105,18  L 105,17  L 104,17  L 104,16  L 105,16  L 105,15  L 104,15  L 104,14  L 105,14  L 105,13  L 104,13  L 104,12  L 105,12  L 105,11  L 104,11  L 104,6  L 103,6  L 103,5  L 97,5  L 97,26  L 98,26  L 98,27  L 97,27  L 97,34  L 95,34  L 95,35  L 78,35  L 78,36  L 76,36  L 76,31  L 77,31  L 77,3  L 76,3  L 76,2  L 75,2  L 75,1  L 74,1  L 74,0  L 71,0  L 71,1  L 69,1  L 69,2  L 70,2  L 70,23  L 69,23  L 69,36  L 68,36  L 68,38  L 69,38  L 69,46  L 70,46  L 70,58  L 71,58  L 71,59  L 70,59  L 70,77  L 69,77  L 69,78  L 70,78  L 70,81  L 69,81  L 69,82  L 70,82  L 70,87  L 71,87  L 71,88  L 74,88  L 74,87  L 75,87  L 75,86  L 76,86  L 76,84  L 77,84  L 77,71  L 78,71  L 78,69  L 77,69  L 77,68  L 78,68  L 78,62  L 79,62  L 79,61  L 78,61  L 78,59  L 79,59  L 79,57  L 78,57  L 78,56  L 79,56  L 79,49  L 78,49  Z  " style="fill:rgb(0, 0, 0); fill-opacity:1.000; stroke:none;" />
</svg>
