<?xml version="1.0" encoding="UTF-8" standalone="no"?>
<!DOCTYPE svg PUBLIC "-//W3C//DTD SVG 1.1//EN" 
  "http://www.w3.org/Graphics/SVG/1.1/DTD/svg11.dtd">
<svg width="101" height="148"
     xmlns="http://www.w3.org/2000/svg" version="1.1">
 <path d="  M 14,70  L 14,71  L 17,71  L 17,70  L 20,70  L 20,69  L 21,69  L 21,68  L 22,68  L 22,66  L 23,66  L 23,65  L 24,65  L 24,64  L 25,64  L 25,63  L 26,63  L 26,61  L 27,61  L 27,60  L 28,60  L 28,58  L 29,58  L 29,57  L 30,57  L 30,55  L 31,55  L 31,53  L 33,53  L 33,51  L 34,51  L 34,49  L 35,49  L 35,47  L 36,47  L 36,45  L 37,45  L 37,43  L 38,43  L 38,42  L 39,42  L 39,41  L 40,41  L 40,38  L 41,38  L 41,36  L 42,36  L 42,35  L 43,35  L 43,33  L 44,33  L 44,31  L 45,31  L 45,29  L 46,29  L 46,27  L 47,27  L 47,25  L 48,25  L 48,22  L 49,22  L 49,20  L 50,20  L 50,16  L 49,16  L 49,14  L 47,14  L 47,13  L 45,13  L 45,12  L 41,12  L 41,11  L 40,11  L 40,12  L 30,12  L 30,13  L 27,13  L 27,12  L 26,12  L 26,13  L 22,13  L 22,14  L 21,14  L 21,13  L 20,13  L 20,14  L 14,14  L 14,15  L 7,15  L 7,14  L 4,14  L 4,15  L 2,15  L 2,17  L 1,17  L 1,18  L 0,18  L 0,19  L 1,19  L 1,21  L 3,21  L 3,22  L 4,22  L 4,23  L 6,23  L 6,22  L 8,22  L 8,21  L 11,21  L 11,20  L 12,20  L 12,21  L 14,21  L 14,20  L 21,20  L 21,19  L 27,19  L 27,18  L 28,18  L 28,19  L 29,19  L 29,18  L 42,18  L 42,22  L 41,22  L 41,24  L 40,24  L 40,26  L 39,26  L 39,28  L 38,28  L 38,30  L 37,30  L 37,32  L 36,32  L 36,34  L 35,34  L 35,35  L 34,35  L 34,37  L 33,37  L 33,38  L 32,38  L 32,40  L 31,40  L 31,42  L 30,42  L 30,44  L 29,44  L 29,45  L 28,45  L 28,47  L 27,47  L 27,48  L 26,48  L 26,49  L 25,49  L 25,51  L 24,51  L 24,53  L 23,53  L 23,55  L 22,55  L 22,56  L 21,56  L 21,57  L 20,57  L 20,59  L 19,59  L 19,60  L 18,60  L 18,61  L 17,61  L 17,63  L 16,63  L 16,64  L 15,64  L 15,65  L 14,65  L 14,67  L 13,67  L 13,68  L 12,68  L 12,69  L 13,69  L 13,70  Z  " style="fill:rgb(0, 0, 0); fill-opacity:1.000; stroke:none;" />
 <path d="  M 46,99  L 46,100  L 45,100  L 45,101  L 44,101  L 44,102  L 43,102  L 43,103  L 42,103  L 42,104  L 41,104  L 41,106  L 40,106  L 40,107  L 39,107  L 39,109  L 38,109  L 38,110  L 37,110  L 37,112  L 36,112  L 36,113  L 37,113  L 37,114  L 36,114  L 36,117  L 35,117  L 35,118  L 34,118  L 34,120  L 33,120  L 33,121  L 34,121  L 34,122  L 33,122  L 33,128  L 32,128  L 32,130  L 33,130  L 33,132  L 32,132  L 32,133  L 33,133  L 33,137  L 34,137  L 34,140  L 35,140  L 35,142  L 36,142  L 36,143  L 37,143  L 37,144  L 40,144  L 40,145  L 43,145  L 43,146  L 44,146  L 44,147  L 48,147  L 48,148  L 49,148  L 49,147  L 50,147  L 50,148  L 69,148  L 69,147  L 72,147  L 72,146  L 74,146  L 74,145  L 78,145  L 78,144  L 79,144  L 79,143  L 82,143  L 82,142  L 84,142  L 84,141  L 86,141  L 86,140  L 87,140  L 87,139  L 88,139  L 88,138  L 90,138  L 90,137  L 91,137  L 91,136  L 92,136  L 92,134  L 93,134  L 93,133  L 94,133  L 94,132  L 95,132  L 95,129  L 97,129  L 97,128  L 96,128  L 96,127  L 98,127  L 98,124  L 99,124  L 99,121  L 100,121  L 100,117  L 101,117  L 101,112  L 100,112  L 100,104  L 99,104  L 99,101  L 98,101  L 98,99  L 97,99  L 97,97  L 96,97  L 96,96  L 95,96  L 95,95  L 94,95  L 94,94  L 93,94  L 93,93  L 91,93  L 91,92  L 89,92  L 89,91  L 84,91  L 84,90  L 81,90  L 81,89  L 75,89  L 75,88  L 74,88  L 74,89  L 73,89  L 73,88  L 71,88  L 71,87  L 70,87  L 70,88  L 69,88  L 69,87  L 66,87  L 66,88  L 65,88  L 65,87  L 64,87  L 64,88  L 61,88  L 61,89  L 59,89  L 59,90  L 57,90  L 57,91  L 55,91  L 55,92  L 54,92  L 54,93  L 53,93  L 53,94  L 52,94  L 52,95  L 51,95  L 51,96  L 50,96  L 50,97  L 48,97  L 48,98  L 47,98  L 47,99  Z  M 44,113  L 44,111  L 45,111  L 45,110  L 46,110  L 46,109  L 47,109  L 47,108  L 48,108  L 48,107  L 49,107  L 49,106  L 50,106  L 50,105  L 51,105  L 51,104  L 53,104  L 53,103  L 54,103  L 54,102  L 56,102  L 56,101  L 57,101  L 57,100  L 59,100  L 59,99  L 61,99  L 61,98  L 63,98  L 63,97  L 66,97  L 66,96  L 69,96  L 69,97  L 80,97  L 80,98  L 85,98  L 85,99  L 87,99  L 87,100  L 88,100  L 88,101  L 89,101  L 89,102  L 90,102  L 90,103  L 91,103  L 91,105  L 92,105  L 92,106  L 93,106  L 93,109  L 94,109  L 94,116  L 93,116  L 93,120  L 92,120  L 92,122  L 91,122  L 91,125  L 90,125  L 90,126  L 89,126  L 89,128  L 88,128  L 88,130  L 87,130  L 87,131  L 86,131  L 86,132  L 85,132  L 85,133  L 84,133  L 84,134  L 83,134  L 83,135  L 82,135  L 82,136  L 80,136  L 80,137  L 77,137  L 77,138  L 75,138  L 75,139  L 73,139  L 73,140  L 70,140  L 70,141  L 48,141  L 48,140  L 44,140  L 44,139  L 43,139  L 43,138  L 42,138  L 42,137  L 41,137  L 41,136  L 40,136  L 40,123  L 41,123  L 41,119  L 42,119  L 42,115  L 43,115  L 43,113  Z  " style="fill:rgb(0, 0, 0); fill-opacity:1.000; stroke:none;" />
 <path d="  M 94,29  L 92,29  L 92,30  L 89,30  L 89,31  L 87,31  L 87,30  L 86,30  L 86,31  L 77,31  L 77,32  L 76,32  L 76,31  L 75,31  L 75,32  L 74,32  L 74,8  L 75,8  L 75,2  L 74,2  L 74,1  L 73,1  L 73,0  L 71,0  L 71,1  L 69,1  L 69,3  L 68,3  L 68,22  L 67,22  L 67,23  L 68,23  L 68,26  L 67,26  L 67,28  L 68,28  L 68,30  L 67,30  L 67,35  L 68,35  L 68,38  L 67,38  L 67,39  L 68,39  L 68,62  L 67,62  L 67,72  L 66,72  L 66,73  L 67,73  L 67,74  L 66,74  L 66,77  L 67,77  L 67,78  L 72,78  L 72,77  L 73,77  L 73,69  L 74,69  L 74,59  L 75,59  L 75,53  L 76,53  L 76,42  L 75,42  L 75,39  L 76,39  L 76,38  L 80,38  L 80,37  L 88,37  L 88,36  L 95,36  L 95,39  L 94,39  L 94,40  L 95,40  L 95,44  L 94,44  L 94,45  L 95,45  L 95,46  L 94,46  L 94,47  L 95,47  L 95,48  L 94,48  L 94,51  L 95,51  L 95,60  L 94,60  L 94,82  L 98,82  L 98,83  L 100,83  L 100,82  L 101,82  L 101,19  L 100,19  L 100,17  L 101,17  L 101,16  L 100,16  L 100,8  L 99,8  L 99,5  L 97,5  L 97,4  L 96,4  L 96,5  L 95,5  L 95,4  L 94,4  L 94,5  L 93,5  L 93,7  L 92,7  L 92,11  L 93,11  L 93,17  L 94,17  Z  " style="fill:rgb(0, 0, 0); fill-opacity:1.000; stroke:none;" />
</svg>
