<?xml version="1.0" encoding="UTF-8" standalone="no"?>
<!DOCTYPE svg PUBLIC "-//W3C//DTD SVG 1.1//EN" 
  "http://www.w3.org/Graphics/SVG/1.1/DTD/svg11.dtd">
<svg width="106" height="131"
     xmlns="http://www.w3.org/2000/svg" version="1.1">
 <path d="  M 45,25  L 46,25  L 46,23  L 47,23  L 47,20  L 48,20  L 48,15  L 47,15  L 47,14  L 46,14  L 46,12  L 45,12  L 45,11  L 44,11  L 44,10  L 43,10  L 43,9  L 41,9  L 41,8  L 36,8  L 36,7  L 35,7  L 35,8  L 34,8  L 34,7  L 33,7  L 33,8  L 32,8  L 32,7  L 31,7  L 31,8  L 15,8  L 15,9  L 14,9  L 14,8  L 13,8  L 13,9  L 12,9  L 12,8  L 11,8  L 11,9  L 5,9  L 5,10  L 2,10  L 2,12  L 1,12  L 1,13  L 0,13  L 0,14  L 1,14  L 1,15  L 2,15  L 2,16  L 3,16  L 3,17  L 4,17  L 4,16  L 5,16  L 5,17  L 8,17  L 8,16  L 10,16  L 10,15  L 20,15  L 20,14  L 39,14  L 39,15  L 41,15  L 41,16  L 42,16  L 42,19  L 41,19  L 41,21  L 40,21  L 40,23  L 39,23  L 39,25  L 38,25  L 38,27  L 37,27  L 37,30  L 36,30  L 36,32  L 35,32  L 35,34  L 34,34  L 34,37  L 33,37  L 33,38  L 32,38  L 32,40  L 31,40  L 31,42  L 30,42  L 30,43  L 29,43  L 29,45  L 28,45  L 28,47  L 27,47  L 27,48  L 26,48  L 26,50  L 25,50  L 25,52  L 24,52  L 24,54  L 23,54  L 23,55  L 22,55  L 22,56  L 21,56  L 21,57  L 20,57  L 20,59  L 18,59  L 18,60  L 17,60  L 17,62  L 16,62  L 16,63  L 14,63  L 14,64  L 13,64  L 13,65  L 12,65  L 12,66  L 11,66  L 11,67  L 10,67  L 10,68  L 9,68  L 9,69  L 7,69  L 7,70  L 5,70  L 5,71  L 4,71  L 4,72  L 3,72  L 3,73  L 4,73  L 4,74  L 5,74  L 5,75  L 6,75  L 6,76  L 7,76  L 7,75  L 9,75  L 9,76  L 10,76  L 10,75  L 12,75  L 12,74  L 13,74  L 13,73  L 15,73  L 15,72  L 16,72  L 16,71  L 17,71  L 17,70  L 19,70  L 19,69  L 20,69  L 20,68  L 21,68  L 21,67  L 22,67  L 22,66  L 23,66  L 23,65  L 24,65  L 24,64  L 25,64  L 25,63  L 26,63  L 26,62  L 27,62  L 27,60  L 28,60  L 28,59  L 29,59  L 29,57  L 30,57  L 30,56  L 31,56  L 31,54  L 32,54  L 32,53  L 33,53  L 33,50  L 34,50  L 34,49  L 35,49  L 35,48  L 36,48  L 36,46  L 37,46  L 37,43  L 38,43  L 38,41  L 39,41  L 39,39  L 40,39  L 40,37  L 41,37  L 41,34  L 42,34  L 42,31  L 43,31  L 43,30  L 44,30  L 44,28  L 45,28  Z  " style="fill:rgb(0, 0, 0); fill-opacity:1.000; stroke:none;" />
 <path d="  M 64,131  L 64,130  L 80,130  L 80,129  L 81,129  L 81,130  L 84,130  L 84,129  L 85,129  L 85,130  L 88,130  L 88,129  L 89,129  L 89,128  L 90,128  L 90,125  L 91,125  L 91,124  L 90,124  L 90,123  L 77,123  L 77,124  L 59,124  L 59,125  L 56,125  L 56,124  L 55,124  L 55,125  L 48,125  L 48,126  L 37,126  L 37,125  L 36,125  L 36,126  L 35,126  L 35,125  L 34,125  L 34,124  L 33,124  L 33,119  L 32,119  L 32,114  L 31,114  L 31,106  L 30,106  L 30,100  L 29,100  L 29,97  L 30,97  L 30,96  L 29,96  L 29,90  L 24,90  L 24,94  L 23,94  L 23,97  L 24,97  L 24,98  L 23,98  L 23,101  L 24,101  L 24,106  L 25,106  L 25,113  L 26,113  L 26,121  L 27,121  L 27,125  L 28,125  L 28,126  L 29,126  L 29,129  L 30,129  L 30,131  Z  " style="fill:rgb(0, 0, 0); fill-opacity:1.000; stroke:none;" />
 <path d="  M 67,30  L 66,30  L 66,33  L 67,33  L 67,65  L 68,65  L 68,80  L 69,80  L 69,81  L 68,81  L 68,82  L 69,82  L 69,87  L 70,87  L 70,88  L 75,88  L 75,85  L 76,85  L 76,84  L 75,84  L 75,74  L 74,74  L 74,60  L 75,60  L 75,59  L 76,59  L 76,58  L 77,58  L 77,57  L 81,57  L 81,56  L 88,56  L 88,55  L 92,55  L 92,56  L 93,56  L 93,55  L 100,55  L 100,54  L 103,54  L 103,53  L 106,53  L 106,48  L 105,48  L 105,47  L 104,47  L 104,46  L 102,46  L 102,47  L 99,47  L 99,48  L 94,48  L 94,49  L 93,49  L 93,48  L 92,48  L 92,49  L 91,49  L 91,48  L 90,48  L 90,49  L 84,49  L 84,50  L 79,50  L 79,51  L 75,51  L 75,50  L 74,50  L 74,45  L 73,45  L 73,43  L 74,43  L 74,42  L 73,42  L 73,35  L 74,35  L 74,34  L 77,34  L 77,33  L 87,33  L 87,32  L 98,32  L 98,31  L 99,31  L 99,30  L 100,30  L 100,27  L 98,27  L 98,26  L 86,26  L 86,27  L 85,27  L 85,26  L 83,26  L 83,27  L 73,27  L 73,26  L 72,26  L 72,20  L 71,20  L 71,14  L 70,14  L 70,8  L 69,8  L 69,5  L 70,5  L 70,4  L 69,4  L 69,1  L 68,1  L 68,0  L 64,0  L 64,2  L 63,2  L 63,7  L 64,7  L 64,8  L 63,8  L 63,11  L 64,11  L 64,15  L 65,15  L 65,19  L 66,19  L 66,29  L 67,29  Z  " style="fill:rgb(0, 0, 0); fill-opacity:1.000; stroke:none;" />
</svg>
