<?xml version="1.0" encoding="UTF-8" standalone="no"?>
<!DOCTYPE svg PUBLIC "-//W3C//DTD SVG 1.1//EN" 
  "http://www.w3.org/Graphics/SVG/1.1/DTD/svg11.dtd">
<svg width="105" height="139"
     xmlns="http://www.w3.org/2000/svg" version="1.1">
 <path d="  M 19,15  L 19,14  L 20,14  L 20,15  L 21,15  L 21,14  L 22,14  L 22,15  L 23,15  L 23,14  L 24,14  L 24,15  L 25,15  L 25,14  L 32,14  L 32,13  L 36,13  L 36,14  L 39,14  L 39,18  L 38,18  L 38,20  L 37,20  L 37,22  L 36,22  L 36,23  L 35,23  L 35,26  L 34,26  L 34,28  L 33,28  L 33,29  L 32,29  L 32,32  L 31,32  L 31,34  L 30,34  L 30,36  L 29,36  L 29,37  L 28,37  L 28,39  L 27,39  L 27,41  L 26,41  L 26,42  L 25,42  L 25,44  L 24,44  L 24,45  L 23,45  L 23,47  L 22,47  L 22,48  L 21,48  L 21,50  L 20,50  L 20,51  L 19,51  L 19,53  L 18,53  L 18,55  L 17,55  L 17,56  L 16,56  L 16,58  L 15,58  L 15,59  L 14,59  L 14,61  L 13,61  L 13,62  L 12,62  L 12,63  L 11,63  L 11,65  L 10,65  L 10,66  L 9,66  L 9,67  L 8,67  L 8,68  L 7,68  L 7,70  L 6,70  L 6,72  L 5,72  L 5,73  L 6,73  L 6,74  L 7,74  L 7,75  L 9,75  L 9,74  L 11,74  L 11,73  L 13,73  L 13,72  L 14,72  L 14,71  L 15,71  L 15,70  L 16,70  L 16,69  L 17,69  L 17,68  L 18,68  L 18,66  L 19,66  L 19,65  L 20,65  L 20,64  L 21,64  L 21,62  L 22,62  L 22,61  L 23,61  L 23,60  L 24,60  L 24,58  L 25,58  L 25,57  L 26,57  L 26,55  L 27,55  L 27,53  L 28,53  L 28,52  L 29,52  L 29,50  L 30,50  L 30,49  L 31,49  L 31,47  L 32,47  L 32,45  L 33,45  L 33,43  L 34,43  L 34,41  L 35,41  L 35,39  L 36,39  L 36,37  L 37,37  L 37,35  L 38,35  L 38,34  L 39,34  L 39,31  L 40,31  L 40,28  L 41,28  L 41,26  L 42,26  L 42,24  L 43,24  L 43,22  L 44,22  L 44,20  L 45,20  L 45,18  L 46,18  L 46,15  L 45,15  L 45,11  L 44,11  L 44,10  L 43,10  L 43,9  L 42,9  L 42,8  L 41,8  L 41,7  L 39,7  L 39,6  L 32,6  L 32,7  L 22,7  L 22,8  L 19,8  L 19,7  L 18,7  L 18,8  L 11,8  L 11,9  L 4,9  L 4,10  L 2,10  L 2,11  L 1,11  L 1,12  L 0,12  L 0,16  L 1,16  L 1,17  L 7,17  L 7,16  L 10,16  L 10,15  Z  " style="fill:rgb(0, 0, 0); fill-opacity:1.000; stroke:none;" />
 <path d="  M 26,132  L 27,132  L 27,135  L 28,135  L 28,136  L 29,136  L 29,137  L 30,137  L 30,138  L 32,138  L 32,139  L 65,139  L 65,138  L 74,138  L 74,137  L 87,137  L 87,136  L 88,136  L 88,137  L 89,137  L 89,136  L 103,136  L 103,135  L 104,135  L 104,134  L 105,134  L 105,130  L 104,130  L 104,129  L 103,129  L 103,128  L 102,128  L 102,129  L 92,129  L 92,130  L 80,130  L 80,131  L 79,131  L 79,130  L 78,130  L 78,131  L 66,131  L 66,132  L 63,132  L 63,131  L 62,131  L 62,132  L 59,132  L 59,133  L 40,133  L 40,134  L 39,134  L 39,133  L 34,133  L 34,131  L 33,131  L 33,127  L 32,127  L 32,115  L 31,115  L 31,114  L 32,114  L 32,113  L 31,113  L 31,90  L 26,90  L 26,91  L 25,91  L 25,94  L 24,94  L 24,96  L 25,96  L 25,97  L 24,97  L 24,98  L 25,98  L 25,101  L 24,101  L 24,104  L 25,104  L 25,105  L 24,105  L 24,110  L 25,110  L 25,111  L 24,111  L 24,112  L 25,112  L 25,113  L 24,113  L 24,114  L 25,114  L 25,117  L 24,117  L 24,118  L 25,118  L 25,125  L 26,125  Z  " style="fill:rgb(0, 0, 0); fill-opacity:1.000; stroke:none;" />
 <path d="  M 67,84  L 68,84  L 68,83  L 67,83  L 67,82  L 68,82  L 68,81  L 67,81  L 67,80  L 68,80  L 68,79  L 67,79  L 67,78  L 68,78  L 68,77  L 67,77  L 67,76  L 68,76  L 68,75  L 67,75  L 67,69  L 66,69  L 66,63  L 67,63  L 67,62  L 70,62  L 70,61  L 77,61  L 77,60  L 78,60  L 78,61  L 79,61  L 79,60  L 87,60  L 87,67  L 86,67  L 86,68  L 87,68  L 87,69  L 86,69  L 86,70  L 87,70  L 87,71  L 86,71  L 86,89  L 87,89  L 87,90  L 89,90  L 89,89  L 90,89  L 90,88  L 93,88  L 93,78  L 94,78  L 94,77  L 93,77  L 93,76  L 94,76  L 94,75  L 93,75  L 93,74  L 94,74  L 94,73  L 93,73  L 93,70  L 94,70  L 94,69  L 93,69  L 93,68  L 94,68  L 94,67  L 93,67  L 93,66  L 94,66  L 94,63  L 93,63  L 93,62  L 94,62  L 94,60  L 93,60  L 93,59  L 94,59  L 94,57  L 93,57  L 93,28  L 92,28  L 92,25  L 91,25  L 91,16  L 90,16  L 90,8  L 91,8  L 91,7  L 90,7  L 90,2  L 89,2  L 89,1  L 84,1  L 84,2  L 83,2  L 83,5  L 82,5  L 82,6  L 83,6  L 83,8  L 84,8  L 84,16  L 85,16  L 85,22  L 86,22  L 86,24  L 87,24  L 87,27  L 82,27  L 82,28  L 79,28  L 79,27  L 78,27  L 78,28  L 74,28  L 74,29  L 72,29  L 72,28  L 66,28  L 66,27  L 64,27  L 64,26  L 65,26  L 65,15  L 64,15  L 64,14  L 65,14  L 65,13  L 64,13  L 64,5  L 63,5  L 63,2  L 62,2  L 62,1  L 61,1  L 61,0  L 57,0  L 57,2  L 56,2  L 56,4  L 57,4  L 57,5  L 56,5  L 56,6  L 57,6  L 57,24  L 58,24  L 58,25  L 57,25  L 57,27  L 58,27  L 58,32  L 59,32  L 59,70  L 60,70  L 60,86  L 61,86  L 61,89  L 67,89  L 67,88  L 68,88  L 68,87  L 67,87  Z  M 86,52  L 84,52  L 84,53  L 83,53  L 83,52  L 82,52  L 82,53  L 77,53  L 77,54  L 70,54  L 70,55  L 67,55  L 67,53  L 66,53  L 66,36  L 67,36  L 67,35  L 77,35  L 77,34  L 78,34  L 78,35  L 79,35  L 79,34  L 86,34  L 86,39  L 85,39  L 85,40  L 86,40  Z  " style="fill:rgb(0, 0, 0); fill-opacity:1.000; stroke:none;" />
</svg>
