<?xml version="1.0" encoding="UTF-8" standalone="no"?>
<!DOCTYPE svg PUBLIC "-//W3C//DTD SVG 1.1//EN" 
  "http://www.w3.org/Graphics/SVG/1.1/DTD/svg11.dtd">
<svg width="99" height="171"
     xmlns="http://www.w3.org/2000/svg" version="1.1">
 <path d="  M 22,28  L 22,27  L 23,27  L 23,28  L 24,28  L 24,27  L 32,27  L 32,26  L 44,26  L 44,27  L 46,27  L 46,29  L 45,29  L 45,31  L 44,31  L 44,32  L 43,32  L 43,34  L 42,34  L 42,35  L 41,35  L 41,37  L 40,37  L 40,39  L 39,39  L 39,40  L 38,40  L 38,42  L 37,42  L 37,43  L 36,43  L 36,45  L 35,45  L 35,47  L 34,47  L 34,49  L 33,49  L 33,51  L 32,51  L 32,52  L 31,52  L 31,55  L 30,55  L 30,56  L 29,56  L 29,57  L 28,57  L 28,59  L 27,59  L 27,60  L 26,60  L 26,62  L 25,62  L 25,63  L 24,63  L 24,64  L 23,64  L 23,66  L 22,66  L 22,67  L 21,67  L 21,68  L 20,68  L 20,70  L 19,70  L 19,72  L 18,72  L 18,73  L 16,73  L 16,75  L 15,75  L 15,77  L 14,77  L 14,78  L 13,78  L 13,79  L 12,79  L 12,80  L 11,80  L 11,81  L 10,81  L 10,82  L 9,82  L 9,84  L 8,84  L 8,85  L 7,85  L 7,86  L 6,86  L 6,87  L 5,87  L 5,88  L 4,88  L 4,89  L 3,89  L 3,96  L 4,96  L 4,97  L 6,97  L 6,96  L 8,96  L 8,95  L 9,95  L 9,93  L 10,93  L 10,91  L 11,91  L 11,90  L 13,90  L 13,89  L 14,89  L 14,88  L 15,88  L 15,87  L 16,87  L 16,86  L 17,86  L 17,85  L 18,85  L 18,83  L 19,83  L 19,82  L 20,82  L 20,81  L 21,81  L 21,80  L 22,80  L 22,78  L 23,78  L 23,76  L 24,76  L 24,75  L 25,75  L 25,74  L 26,74  L 26,72  L 28,72  L 28,70  L 29,70  L 29,69  L 30,69  L 30,68  L 31,68  L 31,66  L 32,66  L 32,64  L 33,64  L 33,63  L 34,63  L 34,62  L 35,62  L 35,60  L 36,60  L 36,58  L 37,58  L 37,57  L 38,57  L 38,55  L 39,55  L 39,53  L 40,53  L 40,52  L 41,52  L 41,50  L 42,50  L 42,48  L 43,48  L 43,46  L 44,46  L 44,44  L 45,44  L 45,42  L 46,42  L 46,40  L 47,40  L 47,38  L 48,38  L 48,37  L 49,37  L 49,35  L 50,35  L 50,34  L 51,34  L 51,32  L 52,32  L 52,30  L 53,30  L 53,23  L 51,23  L 51,22  L 50,22  L 50,21  L 49,21  L 49,20  L 43,20  L 43,19  L 37,19  L 37,20  L 34,20  L 34,19  L 33,19  L 33,20  L 29,20  L 29,21  L 28,21  L 28,20  L 27,20  L 27,21  L 21,21  L 21,22  L 12,22  L 12,23  L 9,23  L 9,22  L 8,22  L 8,23  L 7,23  L 7,22  L 6,22  L 6,23  L 5,23  L 5,22  L 4,22  L 4,23  L 2,23  L 2,25  L 0,25  L 0,27  L 1,27  L 1,30  L 4,30  L 4,31  L 5,31  L 5,30  L 10,30  L 10,29  L 16,29  L 16,28  Z  " style="fill:rgb(0, 0, 0); fill-opacity:1.000; stroke:none;" />
 <path d="  M 33,111  L 33,110  L 30,110  L 30,109  L 29,109  L 29,110  L 28,110  L 28,109  L 21,109  L 21,108  L 19,108  L 19,109  L 17,109  L 17,108  L 16,108  L 16,109  L 13,109  L 13,110  L 12,110  L 12,111  L 11,111  L 11,114  L 10,114  L 10,115  L 9,115  L 9,116  L 10,116  L 10,117  L 8,117  L 8,120  L 9,120  L 9,121  L 8,121  L 8,122  L 10,122  L 10,121  L 11,121  L 11,118  L 12,118  L 12,117  L 15,117  L 15,116  L 19,116  L 19,115  L 21,115  L 21,116  L 22,116  L 22,115  L 24,115  L 24,116  L 28,116  L 28,117  L 30,117  L 30,118  L 32,118  L 32,119  L 33,119  L 33,120  L 34,120  L 34,121  L 35,121  L 35,123  L 36,123  L 36,124  L 37,124  L 37,126  L 36,126  L 36,128  L 35,128  L 35,129  L 34,129  L 34,130  L 32,130  L 32,131  L 31,131  L 31,132  L 29,132  L 29,133  L 27,133  L 27,134  L 26,134  L 26,135  L 25,135  L 25,136  L 22,136  L 22,137  L 20,137  L 20,138  L 18,138  L 18,139  L 16,139  L 16,140  L 14,140  L 14,141  L 12,141  L 12,142  L 10,142  L 10,144  L 9,144  L 9,145  L 8,145  L 8,146  L 7,146  L 7,148  L 6,148  L 6,149  L 5,149  L 5,152  L 4,152  L 4,156  L 3,156  L 3,161  L 5,161  L 5,162  L 4,162  L 4,163  L 5,163  L 5,164  L 6,164  L 6,165  L 7,165  L 7,166  L 8,166  L 8,168  L 10,168  L 10,169  L 11,169  L 11,170  L 12,170  L 12,171  L 36,171  L 36,170  L 38,170  L 38,169  L 40,169  L 40,168  L 42,168  L 42,167  L 45,167  L 45,166  L 48,166  L 48,165  L 49,165  L 49,164  L 51,164  L 51,163  L 53,163  L 53,162  L 58,162  L 58,165  L 59,165  L 59,166  L 61,166  L 61,167  L 63,167  L 63,168  L 82,168  L 82,167  L 83,167  L 83,168  L 85,168  L 85,167  L 90,167  L 90,166  L 93,166  L 93,165  L 95,165  L 95,164  L 96,164  L 96,162  L 97,162  L 97,156  L 98,156  L 98,142  L 99,142  L 99,141  L 98,141  L 98,140  L 99,140  L 99,137  L 98,137  L 98,136  L 99,136  L 99,112  L 97,112  L 97,111  L 85,111  L 85,112  L 84,112  L 84,111  L 83,111  L 83,112  L 82,112  L 82,111  L 81,111  L 81,112  L 80,112  L 80,111  L 79,111  L 79,112  L 78,112  L 78,111  L 77,111  L 77,112  L 74,112  L 74,111  L 73,111  L 73,112  L 70,112  L 70,111  L 69,111  L 69,112  L 60,112  L 60,113  L 57,113  L 57,114  L 55,114  L 55,115  L 54,115  L 54,116  L 53,116  L 53,117  L 52,117  L 52,120  L 53,120  L 53,121  L 54,121  L 54,122  L 55,122  L 55,123  L 56,123  L 56,124  L 57,124  L 57,125  L 56,125  L 56,154  L 55,154  L 55,157  L 53,157  L 53,156  L 48,156  L 48,157  L 46,157  L 46,158  L 44,158  L 44,159  L 42,159  L 42,160  L 39,160  L 39,161  L 37,161  L 37,162  L 36,162  L 36,163  L 35,163  L 35,162  L 34,162  L 34,163  L 29,163  L 29,164  L 26,164  L 26,165  L 15,165  L 15,164  L 13,164  L 13,163  L 11,163  L 11,154  L 12,154  L 12,151  L 13,151  L 13,150  L 14,150  L 14,149  L 15,149  L 15,148  L 17,148  L 17,146  L 18,146  L 18,145  L 21,145  L 21,144  L 25,144  L 25,143  L 26,143  L 26,142  L 28,142  L 28,141  L 30,141  L 30,140  L 33,140  L 33,139  L 34,139  L 34,138  L 35,138  L 35,137  L 36,137  L 36,136  L 38,136  L 38,134  L 40,134  L 40,133  L 41,133  L 41,132  L 43,132  L 43,131  L 44,131  L 44,128  L 45,128  L 45,122  L 44,122  L 44,120  L 43,120  L 43,119  L 42,119  L 42,118  L 41,118  L 41,117  L 40,117  L 40,116  L 39,116  L 39,114  L 38,114  L 38,113  L 36,113  L 36,112  L 34,112  L 34,111  Z  M 63,130  L 64,130  L 64,122  L 65,122  L 65,121  L 70,121  L 70,120  L 71,120  L 71,121  L 74,121  L 74,120  L 75,120  L 75,121  L 77,121  L 77,120  L 91,120  L 91,121  L 92,121  L 92,122  L 93,122  L 93,123  L 92,123  L 92,133  L 91,133  L 91,134  L 92,134  L 92,137  L 91,137  L 91,138  L 92,138  L 92,139  L 91,139  L 91,155  L 90,155  L 90,158  L 89,158  L 89,159  L 88,159  L 88,160  L 87,160  L 87,161  L 86,161  L 86,160  L 85,160  L 85,161  L 81,161  L 81,162  L 70,162  L 70,161  L 69,161  L 69,162  L 68,162  L 68,161  L 65,161  L 65,160  L 64,160  L 64,159  L 63,159  Z  " style="fill:rgb(0, 0, 0); fill-opacity:1.000; stroke:none;" />
 <path d="  M 9,114  L 10,114  L 10,113  L 9,113  Z  " style="fill:rgb(0, 0, 0); fill-opacity:1.000; stroke:none;" />
 <path d="  M 59,52  L 64,52  L 64,51  L 70,51  L 70,50  L 71,50  L 71,51  L 72,51  L 72,50  L 73,50  L 73,51  L 74,51  L 74,50  L 81,50  L 81,49  L 84,49  L 84,61  L 83,61  L 83,62  L 84,62  L 84,65  L 83,65  L 83,66  L 84,66  L 84,69  L 83,69  L 83,70  L 84,70  L 84,73  L 83,73  L 83,74  L 84,74  L 84,77  L 83,77  L 83,79  L 84,79  L 84,81  L 83,81  L 83,84  L 84,84  L 84,85  L 83,85  L 83,88  L 84,88  L 84,89  L 83,89  L 83,90  L 84,90  L 84,93  L 83,93  L 83,94  L 84,94  L 84,102  L 86,102  L 86,103  L 90,103  L 90,101  L 91,101  L 91,92  L 90,92  L 90,90  L 91,90  L 91,89  L 90,89  L 90,88  L 91,88  L 91,87  L 90,87  L 90,86  L 91,86  L 91,64  L 92,64  L 92,63  L 91,63  L 91,60  L 92,60  L 92,59  L 91,59  L 91,56  L 92,56  L 92,55  L 91,55  L 91,53  L 92,53  L 92,51  L 91,51  L 91,49  L 92,49  L 92,47  L 91,47  L 91,46  L 92,46  L 92,43  L 91,43  L 91,35  L 90,35  L 90,22  L 89,22  L 89,3  L 87,3  L 87,2  L 86,2  L 86,1  L 85,1  L 85,0  L 82,0  L 82,1  L 81,1  L 81,20  L 82,20  L 82,30  L 83,30  L 83,33  L 82,33  L 82,34  L 83,34  L 83,41  L 81,41  L 81,42  L 77,42  L 77,43  L 72,43  L 72,44  L 71,44  L 71,43  L 69,43  L 69,44  L 65,44  L 65,45  L 58,45  L 58,46  L 51,46  L 51,47  L 49,47  L 49,48  L 48,48  L 48,55  L 49,55  L 49,57  L 50,57  L 50,56  L 51,56  L 51,55  L 53,55  L 53,54  L 56,54  L 56,53  L 59,53  Z  " style="fill:rgb(0, 0, 0); fill-opacity:1.000; stroke:none;" />
</svg>
