<?xml version="1.0" encoding="UTF-8" standalone="no"?>
<!DOCTYPE svg PUBLIC "-//W3C//DTD SVG 1.1//EN" 
  "http://www.w3.org/Graphics/SVG/1.1/DTD/svg11.dtd">
<svg width="101" height="147"
     xmlns="http://www.w3.org/2000/svg" version="1.1">
 <path d="  M 28,54  L 29,54  L 29,52  L 30,52  L 30,50  L 31,50  L 31,48  L 32,48  L 32,46  L 33,46  L 33,44  L 34,44  L 34,42  L 35,42  L 35,40  L 36,40  L 36,38  L 37,38  L 37,37  L 38,37  L 38,36  L 39,36  L 39,34  L 40,34  L 40,32  L 41,32  L 41,30  L 42,30  L 42,29  L 43,29  L 43,28  L 44,28  L 44,26  L 45,26  L 45,25  L 46,25  L 46,23  L 47,23  L 47,21  L 48,21  L 48,19  L 49,19  L 49,15  L 48,15  L 48,13  L 47,13  L 47,12  L 46,12  L 46,11  L 44,11  L 44,10  L 42,10  L 42,9  L 28,9  L 28,10  L 21,10  L 21,11  L 13,11  L 13,12  L 7,12  L 7,13  L 6,13  L 6,12  L 5,12  L 5,13  L 1,13  L 1,19  L 2,19  L 2,20  L 7,20  L 7,19  L 10,19  L 10,18  L 13,18  L 13,17  L 19,17  L 19,16  L 20,16  L 20,17  L 21,17  L 21,16  L 35,16  L 35,15  L 38,15  L 38,16  L 39,16  L 39,15  L 41,15  L 41,16  L 42,16  L 42,17  L 43,17  L 43,19  L 42,19  L 42,20  L 41,20  L 41,21  L 40,21  L 40,22  L 39,22  L 39,23  L 38,23  L 38,25  L 37,25  L 37,26  L 36,26  L 36,27  L 35,27  L 35,29  L 34,29  L 34,30  L 33,30  L 33,32  L 32,32  L 32,33  L 31,33  L 31,35  L 30,35  L 30,37  L 29,37  L 29,38  L 28,38  L 28,41  L 27,41  L 27,43  L 26,43  L 26,44  L 25,44  L 25,46  L 24,46  L 24,48  L 23,48  L 23,51  L 22,51  L 22,52  L 21,52  L 21,54  L 20,54  L 20,55  L 19,55  L 19,57  L 18,57  L 18,59  L 17,59  L 17,60  L 16,60  L 16,62  L 15,62  L 15,63  L 14,63  L 14,64  L 13,64  L 13,66  L 12,66  L 12,68  L 11,68  L 11,69  L 10,69  L 10,70  L 9,70  L 9,77  L 12,77  L 12,76  L 14,76  L 14,75  L 15,75  L 15,74  L 16,74  L 16,72  L 17,72  L 17,71  L 18,71  L 18,70  L 19,70  L 19,68  L 20,68  L 20,66  L 21,66  L 21,65  L 22,65  L 22,64  L 23,64  L 23,62  L 24,62  L 24,61  L 25,61  L 25,59  L 26,59  L 26,58  L 27,58  L 27,56  L 28,56  Z  " style="fill:rgb(0, 0, 0); fill-opacity:1.000; stroke:none;" />
 <path d="  M 35,89  L 34,89  L 34,88  L 25,88  L 25,89  L 24,89  L 24,90  L 23,90  L 23,91  L 24,91  L 24,92  L 25,92  L 25,93  L 27,93  L 27,94  L 28,94  L 28,95  L 29,95  L 29,98  L 28,98  L 28,101  L 27,101  L 27,102  L 26,102  L 26,104  L 25,104  L 25,106  L 24,106  L 24,107  L 23,107  L 23,109  L 22,109  L 22,111  L 21,111  L 21,113  L 20,113  L 20,114  L 19,114  L 19,115  L 18,115  L 18,116  L 17,116  L 17,117  L 16,117  L 16,119  L 14,119  L 14,120  L 13,120  L 13,122  L 12,122  L 12,123  L 11,123  L 11,124  L 10,124  L 10,125  L 9,125  L 9,127  L 8,127  L 8,128  L 7,128  L 7,129  L 6,129  L 6,131  L 5,131  L 5,132  L 4,132  L 4,133  L 3,133  L 3,137  L 4,137  L 4,138  L 5,138  L 5,139  L 8,139  L 8,138  L 9,138  L 9,136  L 10,136  L 10,134  L 11,134  L 11,132  L 12,132  L 12,130  L 13,130  L 13,129  L 14,129  L 14,128  L 15,128  L 15,127  L 16,127  L 16,126  L 17,126  L 17,125  L 18,125  L 18,123  L 19,123  L 19,122  L 20,122  L 20,121  L 21,121  L 21,120  L 22,120  L 22,119  L 23,119  L 23,117  L 26,117  L 26,116  L 27,116  L 27,117  L 28,117  L 28,118  L 29,118  L 29,119  L 31,119  L 31,120  L 32,120  L 32,121  L 33,121  L 33,122  L 35,122  L 35,123  L 37,123  L 37,124  L 39,124  L 39,125  L 41,125  L 41,126  L 44,126  L 44,127  L 46,127  L 46,128  L 47,128  L 47,129  L 48,129  L 48,134  L 47,134  L 47,137  L 46,137  L 46,140  L 45,140  L 45,142  L 44,142  L 44,147  L 50,147  L 50,145  L 51,145  L 51,143  L 52,143  L 52,140  L 53,140  L 53,138  L 54,138  L 54,137  L 55,137  L 55,135  L 56,135  L 56,133  L 57,133  L 57,132  L 58,132  L 58,131  L 59,131  L 59,130  L 60,130  L 60,128  L 61,128  L 61,127  L 62,127  L 62,124  L 63,124  L 63,121  L 64,121  L 64,119  L 65,119  L 65,118  L 67,118  L 67,117  L 68,117  L 68,118  L 69,118  L 69,119  L 70,119  L 70,120  L 71,120  L 71,122  L 73,122  L 73,123  L 74,123  L 74,124  L 76,124  L 76,125  L 77,125  L 77,126  L 79,126  L 79,127  L 81,127  L 81,128  L 83,128  L 83,129  L 84,129  L 84,130  L 85,130  L 85,131  L 89,131  L 89,132  L 91,132  L 91,133  L 93,133  L 93,134  L 95,134  L 95,135  L 101,135  L 101,130  L 99,130  L 99,129  L 97,129  L 97,128  L 95,128  L 95,127  L 92,127  L 92,126  L 90,126  L 90,125  L 88,125  L 88,124  L 86,124  L 86,123  L 84,123  L 84,122  L 83,122  L 83,121  L 81,121  L 81,120  L 80,120  L 80,119  L 78,119  L 78,118  L 77,118  L 77,117  L 76,117  L 76,116  L 75,116  L 75,115  L 74,115  L 74,114  L 73,114  L 73,112  L 72,112  L 72,111  L 71,111  L 71,109  L 70,109  L 70,107  L 71,107  L 71,103  L 72,103  L 72,100  L 73,100  L 73,97  L 74,97  L 74,92  L 73,92  L 73,91  L 69,91  L 69,92  L 68,92  L 68,93  L 67,93  L 67,96  L 66,96  L 66,99  L 65,99  L 65,102  L 64,102  L 64,105  L 63,105  L 63,108  L 62,108  L 62,110  L 61,110  L 61,112  L 60,112  L 60,115  L 59,115  L 59,117  L 58,117  L 58,120  L 57,120  L 57,125  L 56,125  L 56,126  L 55,126  L 55,125  L 54,125  L 54,124  L 52,124  L 52,123  L 49,123  L 49,122  L 47,122  L 47,121  L 45,121  L 45,120  L 43,120  L 43,119  L 41,119  L 41,118  L 40,118  L 40,117  L 38,117  L 38,116  L 36,116  L 36,115  L 35,115  L 35,114  L 33,114  L 33,113  L 32,113  L 32,112  L 31,112  L 31,111  L 30,111  L 30,107  L 31,107  L 31,105  L 32,105  L 32,104  L 33,104  L 33,101  L 34,101  L 34,100  L 35,100  L 35,98  L 36,98  L 36,97  L 37,97  L 37,96  L 38,96  L 38,93  L 37,93  L 37,91  L 36,91  L 36,90  L 35,90  Z  " style="fill:rgb(0, 0, 0); fill-opacity:1.000; stroke:none;" />
 <path d="  M 73,83  L 74,83  L 74,84  L 76,84  L 76,85  L 79,85  L 79,84  L 80,84  L 80,80  L 81,80  L 81,79  L 80,79  L 80,68  L 81,68  L 81,67  L 80,67  L 80,33  L 79,33  L 79,23  L 78,23  L 78,13  L 77,13  L 77,7  L 76,7  L 76,2  L 75,2  L 75,1  L 74,1  L 74,0  L 72,0  L 72,1  L 70,1  L 70,17  L 71,17  L 71,24  L 72,24  L 72,31  L 73,31  L 73,33  L 72,33  L 72,35  L 64,35  L 64,36  L 63,36  L 63,35  L 62,35  L 62,36  L 59,36  L 59,35  L 58,35  L 58,36  L 46,36  L 46,37  L 45,37  L 45,38  L 44,38  L 44,39  L 43,39  L 43,42  L 42,42  L 42,43  L 43,43  L 43,44  L 51,44  L 51,43  L 52,43  L 52,44  L 54,44  L 54,43  L 59,43  L 59,42  L 70,42  L 70,41  L 73,41  Z  " style="fill:rgb(0, 0, 0); fill-opacity:1.000; stroke:none;" />
</svg>
