<?xml version="1.0" encoding="UTF-8" standalone="no"?>
<!DOCTYPE svg PUBLIC "-//W3C//DTD SVG 1.1//EN" 
  "http://www.w3.org/Graphics/SVG/1.1/DTD/svg11.dtd">
<svg width="101" height="187"
     xmlns="http://www.w3.org/2000/svg" version="1.1">
 <path d="  M 2,1  L 2,0  L 1,0  L 1,5  L 2,5  L 2,6  L 3,6  L 3,5  L 4,5  L 4,2  L 3,2  L 3,1  Z  " style="fill:rgb(0, 0, 0); fill-opacity:1.000; stroke:none;" />
 <path d="  M 40,21  L 40,20  L 41,20  L 41,21  L 42,21  L 42,20  L 43,20  L 43,21  L 49,21  L 49,22  L 50,22  L 50,24  L 51,24  L 51,26  L 50,26  L 50,30  L 49,30  L 49,32  L 48,32  L 48,34  L 46,34  L 46,36  L 45,36  L 45,38  L 43,38  L 43,40  L 42,40  L 42,43  L 41,43  L 41,45  L 40,45  L 40,46  L 39,46  L 39,48  L 38,48  L 38,50  L 37,50  L 37,52  L 36,52  L 36,54  L 35,54  L 35,56  L 34,56  L 34,57  L 33,57  L 33,58  L 32,58  L 32,60  L 31,60  L 31,62  L 30,62  L 30,64  L 29,64  L 29,65  L 28,65  L 28,67  L 27,67  L 27,68  L 26,68  L 26,71  L 25,71  L 25,72  L 24,72  L 24,73  L 23,73  L 23,74  L 22,74  L 22,75  L 21,75  L 21,76  L 20,76  L 20,78  L 19,78  L 19,79  L 18,79  L 18,80  L 17,80  L 17,81  L 16,81  L 16,82  L 15,82  L 15,83  L 14,83  L 14,84  L 13,84  L 13,85  L 12,85  L 12,86  L 11,86  L 11,88  L 10,88  L 10,90  L 9,90  L 9,91  L 10,91  L 10,93  L 12,93  L 12,94  L 15,94  L 15,93  L 16,93  L 16,94  L 17,94  L 17,93  L 19,93  L 19,91  L 20,91  L 20,90  L 23,90  L 23,87  L 24,87  L 24,85  L 25,85  L 25,84  L 26,84  L 26,82  L 28,82  L 28,80  L 29,80  L 29,78  L 30,78  L 30,76  L 31,76  L 31,75  L 32,75  L 32,73  L 33,73  L 33,72  L 34,72  L 34,71  L 35,71  L 35,70  L 36,70  L 36,68  L 37,68  L 37,66  L 38,66  L 38,65  L 39,65  L 39,63  L 40,63  L 40,61  L 41,61  L 41,59  L 42,59  L 42,57  L 43,57  L 43,55  L 44,55  L 44,54  L 45,54  L 45,52  L 46,52  L 46,50  L 47,50  L 47,49  L 48,49  L 48,47  L 49,47  L 49,46  L 50,46  L 50,44  L 51,44  L 51,42  L 52,42  L 52,41  L 53,41  L 53,39  L 54,39  L 54,37  L 55,37  L 55,35  L 56,35  L 56,33  L 57,33  L 57,31  L 58,31  L 58,27  L 59,27  L 59,22  L 58,22  L 58,20  L 57,20  L 57,19  L 56,19  L 56,16  L 55,16  L 55,15  L 54,15  L 54,14  L 42,14  L 42,13  L 41,13  L 41,14  L 40,14  L 40,13  L 37,13  L 37,14  L 22,14  L 22,15  L 16,15  L 16,16  L 12,16  L 12,17  L 8,17  L 8,18  L 6,18  L 6,19  L 5,19  L 5,21  L 4,21  L 4,24  L 5,24  L 5,25  L 6,25  L 6,26  L 7,26  L 7,27  L 9,27  L 9,26  L 11,26  L 11,25  L 12,25  L 12,24  L 16,24  L 16,23  L 18,23  L 18,22  L 24,22  L 24,21  L 34,21  L 34,20  L 35,20  L 35,21  L 36,21  L 36,20  L 37,20  L 37,21  L 38,21  L 38,20  L 39,20  L 39,21  Z  " style="fill:rgb(0, 0, 0); fill-opacity:1.000; stroke:none;" />
 <path d="  M 39,126  L 39,127  L 38,127  L 38,126  L 37,126  L 37,127  L 34,127  L 34,128  L 33,128  L 33,129  L 32,129  L 32,131  L 33,131  L 33,132  L 34,132  L 34,133  L 35,133  L 35,132  L 36,132  L 36,133  L 37,133  L 37,132  L 38,132  L 38,133  L 39,133  L 39,132  L 44,132  L 44,131  L 45,131  L 45,132  L 46,132  L 46,131  L 47,131  L 47,132  L 48,132  L 48,131  L 54,131  L 54,130  L 60,130  L 60,129  L 70,129  L 70,128  L 71,128  L 71,129  L 73,129  L 73,128  L 77,128  L 77,127  L 84,127  L 84,126  L 98,126  L 98,125  L 99,125  L 99,121  L 98,121  L 98,120  L 97,120  L 97,119  L 84,119  L 84,120  L 77,120  L 77,121  L 72,121  L 72,122  L 71,122  L 71,121  L 69,121  L 69,118  L 68,118  L 68,116  L 67,116  L 67,114  L 66,114  L 66,111  L 65,111  L 65,108  L 64,108  L 64,104  L 63,104  L 63,102  L 61,102  L 61,100  L 59,100  L 59,99  L 52,99  L 52,101  L 53,101  L 53,104  L 54,104  L 54,106  L 55,106  L 55,108  L 56,108  L 56,110  L 57,110  L 57,115  L 58,115  L 58,118  L 59,118  L 59,119  L 60,119  L 60,121  L 61,121  L 61,122  L 62,122  L 62,123  L 58,123  L 58,124  L 48,124  L 48,125  L 43,125  L 43,126  Z  " style="fill:rgb(0, 0, 0); fill-opacity:1.000; stroke:none;" />
 <path d="  M 91,148  L 90,148  L 90,147  L 89,147  L 89,146  L 88,146  L 88,145  L 87,145  L 87,144  L 85,144  L 85,143  L 83,143  L 83,142  L 81,142  L 81,141  L 78,141  L 78,140  L 73,140  L 73,139  L 67,139  L 67,140  L 61,140  L 61,141  L 60,141  L 60,142  L 58,142  L 58,143  L 57,143  L 57,144  L 56,144  L 56,146  L 55,146  L 55,147  L 54,147  L 54,148  L 53,148  L 53,150  L 52,150  L 52,152  L 51,152  L 51,155  L 50,155  L 50,157  L 49,157  L 49,158  L 48,158  L 48,159  L 47,159  L 47,160  L 46,160  L 46,162  L 45,162  L 45,164  L 44,164  L 44,175  L 45,175  L 45,177  L 46,177  L 46,179  L 47,179  L 47,181  L 48,181  L 48,183  L 50,183  L 50,184  L 52,184  L 52,185  L 55,185  L 55,186  L 56,186  L 56,187  L 70,187  L 70,186  L 73,186  L 73,185  L 76,185  L 76,184  L 77,184  L 77,183  L 78,183  L 78,182  L 80,182  L 80,181  L 81,181  L 81,180  L 82,180  L 82,179  L 84,179  L 84,178  L 85,178  L 85,177  L 86,177  L 86,176  L 87,176  L 87,175  L 88,175  L 88,174  L 89,174  L 89,172  L 90,172  L 90,170  L 91,170  L 91,169  L 92,169  L 92,165  L 93,165  L 93,156  L 92,156  L 92,151  L 91,151  Z  M 77,147  L 77,148  L 80,148  L 80,149  L 81,149  L 81,150  L 82,150  L 82,151  L 84,151  L 84,152  L 85,152  L 85,153  L 86,153  L 86,157  L 87,157  L 87,162  L 86,162  L 86,166  L 85,166  L 85,167  L 84,167  L 84,170  L 83,170  L 83,171  L 82,171  L 82,172  L 80,172  L 80,173  L 79,173  L 79,174  L 78,174  L 78,175  L 77,175  L 77,176  L 75,176  L 75,177  L 73,177  L 73,178  L 71,178  L 71,179  L 69,179  L 69,180  L 64,180  L 64,181  L 63,181  L 63,180  L 60,180  L 60,179  L 57,179  L 57,178  L 54,178  L 54,176  L 53,176  L 53,175  L 52,175  L 52,174  L 51,174  L 51,172  L 50,172  L 50,170  L 49,170  L 49,168  L 50,168  L 50,166  L 51,166  L 51,165  L 52,165  L 52,163  L 54,163  L 54,159  L 55,159  L 55,157  L 56,157  L 56,156  L 57,156  L 57,155  L 58,155  L 58,152  L 59,152  L 59,151  L 60,151  L 60,150  L 62,150  L 62,149  L 64,149  L 64,148  L 66,148  L 66,147  Z  " style="fill:rgb(0, 0, 0); fill-opacity:1.000; stroke:none;" />
 <path d="  M 63,52  L 63,51  L 68,51  L 68,50  L 76,50  L 76,49  L 84,49  L 84,48  L 85,48  L 85,49  L 88,49  L 88,48  L 93,48  L 93,49  L 94,49  L 94,52  L 93,52  L 93,54  L 94,54  L 94,55  L 93,55  L 93,57  L 94,57  L 94,58  L 93,58  L 93,88  L 92,88  L 92,97  L 93,97  L 93,99  L 95,99  L 95,100  L 96,100  L 96,99  L 98,99  L 98,98  L 99,98  L 99,93  L 100,93  L 100,77  L 101,77  L 101,76  L 100,76  L 100,75  L 101,75  L 101,74  L 100,74  L 100,73  L 101,73  L 101,72  L 100,72  L 100,71  L 101,71  L 101,32  L 100,32  L 100,31  L 101,31  L 101,30  L 100,30  L 100,21  L 101,21  L 101,20  L 100,20  L 100,17  L 101,17  L 101,16  L 100,16  L 100,15  L 101,15  L 101,14  L 100,14  L 100,13  L 101,13  L 101,12  L 100,12  L 100,11  L 101,11  L 101,2  L 100,2  L 100,1  L 97,1  L 97,0  L 95,0  L 95,1  L 93,1  L 93,20  L 92,20  L 92,21  L 93,21  L 93,24  L 92,24  L 92,25  L 93,25  L 93,28  L 92,28  L 92,29  L 93,29  L 93,32  L 92,32  L 92,33  L 93,33  L 93,38  L 92,38  L 92,39  L 91,39  L 91,40  L 90,40  L 90,39  L 88,39  L 88,40  L 84,40  L 84,41  L 81,41  L 81,40  L 80,40  L 80,41  L 77,41  L 77,42  L 72,42  L 72,43  L 71,43  L 71,42  L 70,42  L 70,43  L 65,43  L 65,44  L 62,44  L 62,45  L 60,45  L 60,46  L 58,46  L 58,47  L 56,47  L 56,48  L 55,48  L 55,50  L 54,50  L 54,51  L 53,51  L 53,54  L 55,54  L 55,53  L 59,53  L 59,52  Z  " style="fill:rgb(0, 0, 0); fill-opacity:1.000; stroke:none;" />
</svg>
