<?xml version="1.0" encoding="UTF-8" standalone="no"?>
<!DOCTYPE svg PUBLIC "-//W3C//DTD SVG 1.1//EN" 
  "http://www.w3.org/Graphics/SVG/1.1/DTD/svg11.dtd">
<svg width="113" height="98"
     xmlns="http://www.w3.org/2000/svg" version="1.1">
 <path d="  M 85,89  L 86,89  L 86,90  L 87,90  L 87,89  L 90,89  L 90,88  L 92,88  L 92,76  L 93,76  L 93,75  L 92,75  L 92,72  L 93,72  L 93,71  L 92,71  L 92,69  L 93,69  L 93,67  L 92,67  L 92,66  L 93,66  L 93,63  L 92,63  L 92,62  L 93,62  L 93,47  L 92,47  L 92,46  L 93,46  L 93,43  L 92,43  L 92,40  L 93,40  L 93,39  L 92,39  L 92,25  L 91,25  L 91,18  L 90,18  L 90,11  L 89,11  L 89,9  L 88,9  L 88,8  L 87,8  L 87,9  L 86,9  L 86,8  L 85,8  L 85,9  L 83,9  L 83,10  L 82,10  L 82,16  L 83,16  L 83,20  L 84,20  L 84,35  L 83,35  L 83,36  L 75,36  L 75,37  L 72,37  L 72,38  L 62,38  L 62,37  L 61,37  L 61,24  L 62,24  L 62,21  L 60,21  L 60,20  L 59,20  L 59,19  L 58,19  L 58,18  L 56,18  L 56,17  L 54,17  L 54,16  L 51,16  L 51,15  L 42,15  L 42,14  L 41,14  L 41,15  L 39,15  L 39,14  L 37,14  L 37,15  L 34,15  L 34,14  L 33,14  L 33,15  L 24,15  L 24,16  L 22,16  L 22,15  L 21,15  L 21,16  L 16,16  L 16,17  L 8,17  L 8,18  L 7,18  L 7,17  L 6,17  L 6,18  L 3,18  L 3,19  L 1,19  L 1,22  L 3,22  L 3,23  L 4,23  L 4,24  L 20,24  L 20,23  L 21,23  L 21,24  L 22,24  L 22,23  L 27,23  L 27,22  L 52,22  L 52,23  L 53,23  L 53,31  L 52,31  L 52,36  L 51,36  L 51,39  L 50,39  L 50,40  L 49,40  L 49,41  L 48,41  L 48,43  L 47,43  L 47,45  L 46,45  L 46,46  L 45,46  L 45,47  L 44,47  L 44,50  L 43,50  L 43,51  L 42,51  L 42,53  L 41,53  L 41,55  L 40,55  L 40,56  L 39,56  L 39,58  L 38,58  L 38,59  L 37,59  L 37,60  L 36,60  L 36,62  L 35,62  L 35,63  L 34,63  L 34,64  L 33,64  L 33,66  L 32,66  L 32,68  L 31,68  L 31,69  L 30,69  L 30,71  L 29,71  L 29,73  L 28,73  L 28,75  L 27,75  L 27,76  L 26,76  L 26,78  L 25,78  L 25,80  L 23,80  L 23,85  L 24,85  L 24,86  L 25,86  L 25,87  L 26,87  L 26,86  L 29,86  L 29,85  L 30,85  L 30,83  L 31,83  L 31,81  L 32,81  L 32,80  L 33,80  L 33,78  L 34,78  L 34,77  L 35,77  L 35,75  L 36,75  L 36,73  L 37,73  L 37,71  L 38,71  L 38,70  L 39,70  L 39,69  L 40,69  L 40,67  L 41,67  L 41,66  L 42,66  L 42,65  L 43,65  L 43,63  L 44,63  L 44,62  L 45,62  L 45,61  L 46,61  L 46,59  L 47,59  L 47,57  L 48,57  L 48,56  L 49,56  L 49,54  L 50,54  L 50,53  L 51,53  L 51,50  L 52,50  L 52,48  L 53,48  L 53,47  L 54,47  L 54,45  L 55,45  L 55,44  L 57,44  L 57,43  L 58,43  L 58,44  L 71,44  L 71,43  L 73,43  L 73,44  L 74,44  L 74,43  L 84,43  L 84,44  L 85,44  Z  " style="fill:rgb(0, 0, 0); fill-opacity:1.000; stroke:none;" />
 <path d="  M 21,85  L 22,85  L 22,84  L 21,84  Z  " style="fill:rgb(0, 0, 0); fill-opacity:1.000; stroke:none;" />
 <path d="  M 107,30  L 108,30  L 108,34  L 107,34  L 107,36  L 108,36  L 108,38  L 107,38  L 107,39  L 108,39  L 108,42  L 107,42  L 107,44  L 108,44  L 108,45  L 107,45  L 107,97  L 108,97  L 108,98  L 113,98  L 113,11  L 112,11  L 112,3  L 111,3  L 111,1  L 110,1  L 110,0  L 107,0  L 107,1  L 105,1  L 105,2  L 106,2  L 106,3  L 105,3  L 105,5  L 106,5  L 106,14  L 107,14  Z  " style="fill:rgb(0, 0, 0); fill-opacity:1.000; stroke:none;" />
</svg>
