<?xml version="1.0" encoding="UTF-8" standalone="no"?>
<!DOCTYPE svg PUBLIC "-//W3C//DTD SVG 1.1//EN" 
  "http://www.w3.org/Graphics/SVG/1.1/DTD/svg11.dtd">
<svg width="101" height="137"
     xmlns="http://www.w3.org/2000/svg" version="1.1">
 <path d="  M 64,79  L 66,79  L 66,80  L 67,80  L 67,79  L 69,79  L 69,78  L 71,78  L 71,77  L 72,77  L 72,76  L 71,76  L 71,73  L 72,73  L 72,70  L 71,70  L 71,69  L 72,69  L 72,34  L 71,34  L 71,31  L 72,31  L 72,30  L 71,30  L 71,18  L 70,18  L 70,17  L 71,17  L 71,16  L 70,16  L 70,15  L 71,15  L 71,14  L 70,14  L 70,5  L 71,5  L 71,4  L 70,4  L 70,1  L 65,1  L 65,2  L 64,2  L 64,4  L 63,4  L 63,27  L 62,27  L 62,28  L 45,28  L 45,29  L 42,29  L 42,28  L 41,28  L 41,29  L 40,29  L 40,28  L 39,28  L 39,26  L 40,26  L 40,23  L 41,23  L 41,22  L 42,22  L 42,21  L 43,21  L 43,18  L 44,18  L 44,15  L 45,15  L 45,13  L 46,13  L 46,10  L 45,10  L 45,8  L 44,8  L 44,7  L 43,7  L 43,6  L 41,6  L 41,5  L 39,5  L 39,4  L 27,4  L 27,5  L 24,5  L 24,4  L 23,4  L 23,5  L 20,5  L 20,4  L 19,4  L 19,5  L 13,5  L 13,6  L 5,6  L 5,7  L 2,7  L 2,8  L 1,8  L 1,9  L 0,9  L 0,10  L 1,10  L 1,12  L 2,12  L 2,13  L 4,13  L 4,14  L 5,14  L 5,13  L 6,13  L 6,14  L 7,14  L 7,13  L 12,13  L 12,12  L 13,12  L 13,13  L 15,13  L 15,12  L 18,12  L 18,13  L 19,13  L 19,12  L 22,12  L 22,13  L 23,13  L 23,12  L 26,12  L 26,11  L 38,11  L 38,15  L 37,15  L 37,16  L 36,16  L 36,19  L 35,19  L 35,20  L 34,20  L 34,22  L 33,22  L 33,24  L 32,24  L 32,27  L 31,27  L 31,28  L 30,28  L 30,30  L 29,30  L 29,32  L 28,32  L 28,34  L 27,34  L 27,36  L 26,36  L 26,37  L 25,37  L 25,39  L 24,39  L 24,40  L 23,40  L 23,42  L 22,42  L 22,44  L 21,44  L 21,46  L 20,46  L 20,48  L 19,48  L 19,49  L 18,49  L 18,51  L 17,51  L 17,52  L 16,52  L 16,54  L 15,54  L 15,55  L 14,55  L 14,56  L 13,56  L 13,57  L 12,57  L 12,59  L 11,59  L 11,60  L 10,60  L 10,61  L 9,61  L 9,62  L 8,62  L 8,63  L 7,63  L 7,64  L 6,64  L 6,65  L 5,65  L 5,66  L 3,66  L 3,67  L 2,67  L 2,69  L 3,69  L 3,70  L 5,70  L 5,71  L 8,71  L 8,70  L 11,70  L 11,69  L 12,69  L 12,68  L 14,68  L 14,67  L 15,67  L 15,65  L 16,65  L 16,64  L 17,64  L 17,62  L 18,62  L 18,61  L 19,61  L 19,60  L 20,60  L 20,59  L 21,59  L 21,58  L 22,58  L 22,56  L 23,56  L 23,55  L 24,55  L 24,53  L 25,53  L 25,52  L 26,52  L 26,50  L 27,50  L 27,49  L 28,49  L 28,47  L 29,47  L 29,45  L 30,45  L 30,44  L 31,44  L 31,42  L 32,42  L 32,40  L 33,40  L 33,38  L 35,38  L 35,37  L 42,37  L 42,36  L 50,36  L 50,35  L 51,35  L 51,36  L 53,36  L 53,35  L 54,35  L 54,36  L 63,36  L 63,37  L 64,37  L 64,40  L 63,40  L 63,41  L 64,41  L 64,44  L 63,44  L 63,45  L 64,45  Z  " style="fill:rgb(0, 0, 0); fill-opacity:1.000; stroke:none;" />
 <path d="  M 23,92  L 22,92  L 22,93  L 23,93  L 23,94  L 22,94  L 22,95  L 23,95  L 23,96  L 22,96  L 22,97  L 23,97  L 23,98  L 22,98  L 22,99  L 23,99  L 23,100  L 22,100  L 22,101  L 23,101  L 23,102  L 22,102  L 22,103  L 23,103  L 23,104  L 22,104  L 22,105  L 23,105  L 23,108  L 22,108  L 22,109  L 23,109  L 23,118  L 24,118  L 24,124  L 25,124  L 25,130  L 26,130  L 26,132  L 27,132  L 27,134  L 28,134  L 28,135  L 29,135  L 29,136  L 31,136  L 31,137  L 59,137  L 59,136  L 70,136  L 70,135  L 84,135  L 84,134  L 100,134  L 100,132  L 101,132  L 101,126  L 95,126  L 95,127  L 85,127  L 85,128  L 84,128  L 84,127  L 82,127  L 82,128  L 80,128  L 80,127  L 79,127  L 79,128  L 70,128  L 70,129  L 69,129  L 69,128  L 67,128  L 67,129  L 64,129  L 64,128  L 63,128  L 63,129  L 59,129  L 59,130  L 45,130  L 45,131  L 44,131  L 44,130  L 41,130  L 41,131  L 38,131  L 38,130  L 37,130  L 37,131  L 35,131  L 35,130  L 33,130  L 33,129  L 32,129  L 32,126  L 31,126  L 31,123  L 30,123  L 30,112  L 29,112  L 29,109  L 30,109  L 30,108  L 29,108  L 29,105  L 30,105  L 30,104  L 29,104  L 29,93  L 30,93  L 30,92  L 29,92  L 29,90  L 27,90  L 27,89  L 25,89  L 25,90  L 23,90  Z  " style="fill:rgb(0, 0, 0); fill-opacity:1.000; stroke:none;" />
 <path d="  M 82,48  L 83,48  L 83,51  L 82,51  L 82,52  L 83,52  L 83,83  L 86,83  L 86,82  L 89,82  L 89,81  L 90,81  L 90,43  L 89,43  L 89,42  L 90,42  L 90,40  L 89,40  L 89,37  L 90,37  L 90,36  L 89,36  L 89,33  L 90,33  L 90,32  L 89,32  L 89,25  L 88,25  L 88,24  L 89,24  L 89,23  L 88,23  L 88,15  L 87,15  L 87,14  L 88,14  L 88,13  L 87,13  L 87,5  L 86,5  L 86,4  L 84,4  L 84,2  L 82,2  L 82,4  L 81,4  L 81,17  L 82,17  L 82,18  L 81,18  L 81,19  L 82,19  L 82,40  L 83,40  L 83,42  L 82,42  L 82,45  L 83,45  L 83,46  L 82,46  Z  " style="fill:rgb(0, 0, 0); fill-opacity:1.000; stroke:none;" />
</svg>
