<?xml version="1.0" encoding="UTF-8" standalone="no"?>
<!DOCTYPE svg PUBLIC "-//W3C//DTD SVG 1.1//EN" 
  "http://www.w3.org/Graphics/SVG/1.1/DTD/svg11.dtd">
<svg width="101" height="141"
     xmlns="http://www.w3.org/2000/svg" version="1.1">
 <path d="  M 24,4  L 24,5  L 23,5  L 23,4  L 22,4  L 22,5  L 13,5  L 13,6  L 11,6  L 11,5  L 10,5  L 10,6  L 4,6  L 4,7  L 2,7  L 2,8  L 1,8  L 1,11  L 0,11  L 0,12  L 1,12  L 1,13  L 5,13  L 5,14  L 7,14  L 7,13  L 9,13  L 9,12  L 17,12  L 17,11  L 32,11  L 32,10  L 35,10  L 35,11  L 36,11  L 36,15  L 35,15  L 35,16  L 34,16  L 34,17  L 33,17  L 33,19  L 32,19  L 32,21  L 31,21  L 31,24  L 30,24  L 30,26  L 29,26  L 29,27  L 28,27  L 28,31  L 27,31  L 27,33  L 26,33  L 26,35  L 25,35  L 25,38  L 24,38  L 24,40  L 23,40  L 23,42  L 22,42  L 22,44  L 21,44  L 21,45  L 20,45  L 20,47  L 19,47  L 19,49  L 18,49  L 18,51  L 17,51  L 17,53  L 16,53  L 16,55  L 15,55  L 15,56  L 14,56  L 14,57  L 13,57  L 13,58  L 12,58  L 12,60  L 11,60  L 11,64  L 12,64  L 12,66  L 15,66  L 15,65  L 16,65  L 16,64  L 17,64  L 17,63  L 18,63  L 18,62  L 19,62  L 19,60  L 20,60  L 20,59  L 21,59  L 21,57  L 22,57  L 22,55  L 23,55  L 23,54  L 24,54  L 24,52  L 25,52  L 25,51  L 26,51  L 26,49  L 27,49  L 27,47  L 28,47  L 28,46  L 29,46  L 29,43  L 30,43  L 30,42  L 31,42  L 31,40  L 32,40  L 32,38  L 33,38  L 33,37  L 34,37  L 34,35  L 35,35  L 35,33  L 36,33  L 36,34  L 41,34  L 41,33  L 56,33  L 56,34  L 57,34  L 57,33  L 59,33  L 59,34  L 63,34  L 63,36  L 62,36  L 62,39  L 63,39  L 63,40  L 62,40  L 62,42  L 63,42  L 63,45  L 62,45  L 62,46  L 63,46  L 63,49  L 62,49  L 62,50  L 63,50  L 63,53  L 62,53  L 62,54  L 63,54  L 63,57  L 62,57  L 62,58  L 63,58  L 63,61  L 62,61  L 62,62  L 63,62  L 63,65  L 62,65  L 62,66  L 63,66  L 63,69  L 62,69  L 62,70  L 63,70  L 63,72  L 68,72  L 68,71  L 69,71  L 69,64  L 70,64  L 70,63  L 69,63  L 69,60  L 70,60  L 70,59  L 69,59  L 69,58  L 70,58  L 70,57  L 69,57  L 69,56  L 70,56  L 70,55  L 69,55  L 69,54  L 70,54  L 70,53  L 69,53  L 69,52  L 70,52  L 70,51  L 69,51  L 69,50  L 70,50  L 70,49  L 69,49  L 69,48  L 70,48  L 70,45  L 69,45  L 69,44  L 70,44  L 70,41  L 69,41  L 69,40  L 70,40  L 70,31  L 69,31  L 69,30  L 70,30  L 70,29  L 69,29  L 69,21  L 68,21  L 68,20  L 69,20  L 69,19  L 68,19  L 68,18  L 69,18  L 69,17  L 68,17  L 68,14  L 69,14  L 69,13  L 68,13  L 68,1  L 67,1  L 67,0  L 64,0  L 64,1  L 63,1  L 63,2  L 62,2  L 62,24  L 63,24  L 63,25  L 62,25  L 62,26  L 61,26  L 61,27  L 60,27  L 60,26  L 58,26  L 58,27  L 55,27  L 55,26  L 54,26  L 54,27  L 53,27  L 53,26  L 50,26  L 50,27  L 43,27  L 43,26  L 42,26  L 42,27  L 38,27  L 38,23  L 39,23  L 39,22  L 40,22  L 40,19  L 41,19  L 41,18  L 42,18  L 42,15  L 43,15  L 43,12  L 44,12  L 44,9  L 43,9  L 43,8  L 42,8  L 42,7  L 41,7  L 41,6  L 40,6  L 40,5  L 39,5  L 39,4  Z  " style="fill:rgb(0, 0, 0); fill-opacity:1.000; stroke:none;" />
 <path d="  M 35,107  L 34,107  L 34,106  L 33,106  L 33,105  L 32,105  L 32,102  L 33,102  L 33,101  L 34,101  L 34,99  L 35,99  L 35,97  L 36,97  L 36,96  L 37,96  L 37,94  L 38,94  L 38,93  L 39,93  L 39,91  L 40,91  L 40,90  L 41,90  L 41,86  L 40,86  L 40,85  L 39,85  L 39,84  L 38,84  L 38,82  L 36,82  L 36,81  L 27,81  L 27,82  L 26,82  L 26,84  L 25,84  L 25,85  L 26,85  L 26,86  L 28,86  L 28,87  L 29,87  L 29,86  L 34,86  L 34,88  L 35,88  L 35,91  L 34,91  L 34,92  L 33,92  L 33,93  L 32,93  L 32,94  L 31,94  L 31,95  L 30,95  L 30,96  L 29,96  L 29,98  L 28,98  L 28,100  L 27,100  L 27,102  L 26,102  L 26,103  L 25,103  L 25,105  L 24,105  L 24,106  L 23,106  L 23,108  L 22,108  L 22,110  L 21,110  L 21,112  L 20,112  L 20,113  L 19,113  L 19,114  L 18,114  L 18,115  L 17,115  L 17,117  L 16,117  L 16,118  L 15,118  L 15,119  L 14,119  L 14,120  L 13,120  L 13,121  L 12,121  L 12,122  L 11,122  L 11,123  L 10,123  L 10,125  L 9,125  L 9,126  L 8,126  L 8,127  L 7,127  L 7,132  L 8,132  L 8,133  L 9,133  L 9,134  L 12,134  L 12,131  L 13,131  L 13,130  L 14,130  L 14,129  L 15,129  L 15,127  L 16,127  L 16,125  L 17,125  L 17,124  L 18,124  L 18,123  L 19,123  L 19,122  L 20,122  L 20,121  L 21,121  L 21,120  L 22,120  L 22,119  L 23,119  L 23,117  L 24,117  L 24,116  L 25,116  L 25,114  L 26,114  L 26,112  L 28,112  L 28,111  L 29,111  L 29,112  L 31,112  L 31,113  L 33,113  L 33,114  L 35,114  L 35,115  L 37,115  L 37,116  L 39,116  L 39,117  L 42,117  L 42,118  L 45,118  L 45,119  L 46,119  L 46,120  L 48,120  L 48,121  L 49,121  L 49,122  L 50,122  L 50,128  L 49,128  L 49,130  L 48,130  L 48,132  L 47,132  L 47,135  L 46,135  L 46,141  L 51,141  L 51,140  L 52,140  L 52,138  L 53,138  L 53,135  L 54,135  L 54,133  L 55,133  L 55,130  L 56,130  L 56,128  L 57,128  L 57,127  L 58,127  L 58,126  L 59,126  L 59,125  L 60,125  L 60,124  L 61,124  L 61,123  L 62,123  L 62,121  L 63,121  L 63,119  L 64,119  L 64,118  L 65,118  L 65,114  L 66,114  L 66,112  L 68,112  L 68,113  L 70,113  L 70,114  L 71,114  L 71,116  L 73,116  L 73,117  L 74,117  L 74,118  L 76,118  L 76,119  L 77,119  L 77,120  L 79,120  L 79,121  L 81,121  L 81,122  L 83,122  L 83,123  L 85,123  L 85,124  L 86,124  L 86,125  L 89,125  L 89,126  L 91,126  L 91,127  L 93,127  L 93,128  L 95,128  L 95,129  L 98,129  L 98,130  L 100,130  L 100,129  L 101,129  L 101,125  L 100,125  L 100,124  L 99,124  L 99,123  L 97,123  L 97,122  L 95,122  L 95,121  L 92,121  L 92,120  L 90,120  L 90,119  L 88,119  L 88,118  L 86,118  L 86,117  L 84,117  L 84,116  L 83,116  L 83,115  L 82,115  L 82,114  L 80,114  L 80,113  L 78,113  L 78,112  L 77,112  L 77,111  L 76,111  L 76,110  L 75,110  L 75,109  L 74,109  L 74,107  L 73,107  L 73,105  L 72,105  L 72,102  L 73,102  L 73,98  L 74,98  L 74,94  L 75,94  L 75,91  L 76,91  L 76,88  L 75,88  L 75,87  L 71,87  L 71,88  L 70,88  L 70,89  L 69,89  L 69,90  L 68,90  L 68,93  L 67,93  L 67,96  L 66,96  L 66,98  L 65,98  L 65,100  L 64,100  L 64,103  L 63,103  L 63,105  L 62,105  L 62,107  L 61,107  L 61,110  L 60,110  L 60,113  L 59,113  L 59,117  L 58,117  L 58,119  L 57,119  L 57,120  L 55,120  L 55,118  L 54,118  L 54,117  L 53,117  L 53,116  L 51,116  L 51,115  L 49,115  L 49,114  L 47,114  L 47,113  L 45,113  L 45,112  L 43,112  L 43,111  L 42,111  L 42,110  L 39,110  L 39,109  L 37,109  L 37,108  L 35,108  Z  " style="fill:rgb(0, 0, 0); fill-opacity:1.000; stroke:none;" />
 <path d="  M 78,76  L 83,76  L 83,75  L 85,75  L 85,68  L 84,68  L 84,67  L 85,67  L 85,65  L 84,65  L 84,63  L 85,63  L 85,60  L 84,60  L 84,59  L 85,59  L 85,56  L 84,56  L 84,55  L 85,55  L 85,48  L 84,48  L 84,47  L 85,47  L 85,41  L 84,41  L 84,39  L 85,39  L 85,37  L 84,37  L 84,34  L 85,34  L 85,33  L 84,33  L 84,23  L 83,23  L 83,16  L 82,16  L 82,5  L 80,5  L 80,4  L 78,4  L 78,3  L 77,3  L 77,5  L 76,5  L 76,20  L 77,20  L 77,21  L 76,21  L 76,22  L 77,22  L 77,33  L 78,33  Z  " style="fill:rgb(0, 0, 0); fill-opacity:1.000; stroke:none;" />
</svg>
