<?xml version="1.0" encoding="UTF-8" standalone="no"?>
<!DOCTYPE svg PUBLIC "-//W3C//DTD SVG 1.1//EN" 
  "http://www.w3.org/Graphics/SVG/1.1/DTD/svg11.dtd">
<svg width="102" height="148"
     xmlns="http://www.w3.org/2000/svg" version="1.1">
 <path d="  M 74,77  L 78,77  L 78,76  L 81,76  L 81,35  L 80,35  L 80,34  L 81,34  L 81,31  L 80,31  L 80,1  L 79,1  L 79,0  L 75,0  L 75,1  L 74,1  L 74,19  L 73,19  L 73,20  L 74,20  L 74,22  L 73,22  L 73,24  L 74,24  L 74,28  L 73,28  L 73,29  L 65,29  L 65,30  L 64,30  L 64,29  L 62,29  L 62,30  L 60,30  L 60,29  L 58,29  L 58,30  L 48,30  L 48,29  L 47,29  L 47,30  L 46,30  L 46,29  L 45,29  L 45,26  L 46,26  L 46,25  L 47,25  L 47,22  L 48,22  L 48,21  L 49,21  L 49,18  L 50,18  L 50,15  L 51,15  L 51,14  L 50,14  L 50,11  L 48,11  L 48,9  L 46,9  L 46,8  L 44,8  L 44,7  L 42,7  L 42,6  L 26,6  L 26,7  L 20,7  L 20,8  L 19,8  L 19,7  L 18,7  L 18,8  L 7,8  L 7,9  L 5,9  L 5,8  L 4,8  L 4,9  L 2,9  L 2,10  L 1,10  L 1,11  L 0,11  L 0,12  L 1,12  L 1,13  L 0,13  L 0,14  L 1,14  L 1,15  L 2,15  L 2,14  L 4,14  L 4,15  L 6,15  L 6,16  L 7,16  L 7,15  L 13,15  L 13,14  L 19,14  L 19,13  L 27,13  L 27,12  L 28,12  L 28,13  L 29,13  L 29,12  L 41,12  L 41,13  L 43,13  L 43,14  L 44,14  L 44,16  L 43,16  L 43,18  L 42,18  L 42,20  L 41,20  L 41,22  L 40,22  L 40,23  L 39,23  L 39,26  L 38,26  L 38,28  L 37,28  L 37,30  L 36,30  L 36,31  L 34,31  L 34,34  L 33,34  L 33,35  L 32,35  L 32,37  L 31,37  L 31,39  L 30,39  L 30,40  L 29,40  L 29,42  L 28,42  L 28,45  L 27,45  L 27,47  L 26,47  L 26,48  L 25,48  L 25,50  L 24,50  L 24,52  L 23,52  L 23,53  L 22,53  L 22,55  L 21,55  L 21,56  L 20,56  L 20,57  L 19,57  L 19,59  L 17,59  L 17,61  L 16,61  L 16,63  L 15,63  L 15,64  L 14,64  L 14,65  L 13,65  L 13,66  L 12,66  L 12,67  L 11,67  L 11,69  L 10,69  L 10,70  L 11,70  L 11,72  L 13,72  L 13,73  L 14,73  L 14,72  L 17,72  L 17,71  L 18,71  L 18,70  L 19,70  L 19,69  L 20,69  L 20,68  L 21,68  L 21,67  L 22,67  L 22,65  L 23,65  L 23,64  L 24,64  L 24,63  L 25,63  L 25,62  L 26,62  L 26,61  L 27,61  L 27,59  L 28,59  L 28,57  L 29,57  L 29,56  L 30,56  L 30,54  L 31,54  L 31,53  L 32,53  L 32,52  L 33,52  L 33,50  L 34,50  L 34,48  L 35,48  L 35,47  L 36,47  L 36,46  L 37,46  L 37,44  L 38,44  L 38,38  L 39,38  L 39,37  L 41,37  L 41,36  L 43,36  L 43,37  L 49,37  L 49,36  L 71,36  L 71,37  L 73,37  L 73,38  L 74,38  L 74,41  L 73,41  L 73,42  L 74,42  L 74,43  L 73,43  L 73,44  L 74,44  Z  " style="fill:rgb(0, 0, 0); fill-opacity:1.000; stroke:none;" />
 <path d="  M 70,148  L 70,147  L 74,147  L 74,146  L 77,146  L 77,145  L 79,145  L 79,144  L 82,144  L 82,143  L 84,143  L 84,142  L 87,142  L 87,141  L 89,141  L 89,140  L 90,140  L 90,139  L 92,139  L 92,138  L 93,138  L 93,137  L 94,137  L 94,136  L 95,136  L 95,135  L 96,135  L 96,133  L 98,133  L 98,131  L 99,131  L 99,128  L 100,128  L 100,125  L 101,125  L 101,121  L 102,121  L 102,104  L 101,104  L 101,101  L 100,101  L 100,99  L 99,99  L 99,98  L 98,98  L 98,97  L 97,97  L 97,95  L 95,95  L 95,94  L 93,94  L 93,93  L 92,93  L 92,92  L 89,92  L 89,91  L 87,91  L 87,90  L 86,90  L 86,91  L 85,91  L 85,90  L 83,90  L 83,89  L 77,89  L 77,88  L 72,88  L 72,89  L 71,89  L 71,88  L 68,88  L 68,89  L 67,89  L 67,88  L 64,88  L 64,89  L 62,89  L 62,90  L 59,90  L 59,91  L 58,91  L 58,92  L 56,92  L 56,93  L 55,93  L 55,94  L 54,94  L 54,95  L 53,95  L 53,96  L 51,96  L 51,97  L 50,97  L 50,98  L 49,98  L 49,99  L 48,99  L 48,100  L 46,100  L 46,101  L 45,101  L 45,102  L 44,102  L 44,104  L 42,104  L 42,105  L 41,105  L 41,107  L 40,107  L 40,109  L 39,109  L 39,111  L 38,111  L 38,113  L 37,113  L 37,115  L 36,115  L 36,116  L 37,116  L 37,117  L 36,117  L 36,121  L 35,121  L 35,123  L 34,123  L 34,129  L 33,129  L 33,132  L 34,132  L 34,133  L 33,133  L 33,135  L 34,135  L 34,140  L 35,140  L 35,141  L 36,141  L 36,143  L 37,143  L 37,144  L 39,144  L 39,145  L 41,145  L 41,146  L 44,146  L 44,147  L 48,147  L 48,148  Z  M 51,142  L 51,141  L 48,141  L 48,140  L 45,140  L 45,139  L 43,139  L 43,138  L 42,138  L 42,136  L 41,136  L 41,124  L 42,124  L 42,120  L 43,120  L 43,116  L 44,116  L 44,114  L 45,114  L 45,112  L 46,112  L 46,111  L 47,111  L 47,110  L 48,110  L 48,109  L 49,109  L 49,107  L 50,107  L 50,106  L 51,106  L 51,105  L 53,105  L 53,104  L 55,104  L 55,103  L 57,103  L 57,102  L 58,102  L 58,101  L 59,101  L 59,100  L 62,100  L 62,99  L 63,99  L 63,98  L 66,98  L 66,97  L 73,97  L 73,96  L 75,96  L 75,97  L 76,97  L 76,96  L 79,96  L 79,97  L 84,97  L 84,98  L 86,98  L 86,99  L 87,99  L 87,100  L 89,100  L 89,101  L 90,101  L 90,102  L 92,102  L 92,103  L 93,103  L 93,105  L 94,105  L 94,106  L 95,106  L 95,108  L 96,108  L 96,114  L 95,114  L 95,120  L 94,120  L 94,124  L 93,124  L 93,126  L 92,126  L 92,129  L 91,129  L 91,130  L 90,130  L 90,131  L 89,131  L 89,132  L 88,132  L 88,133  L 87,133  L 87,134  L 85,134  L 85,135  L 84,135  L 84,136  L 81,136  L 81,137  L 79,137  L 79,138  L 78,138  L 78,139  L 75,139  L 75,140  L 71,140  L 71,141  L 66,141  L 66,142  Z  " style="fill:rgb(0, 0, 0); fill-opacity:1.000; stroke:none;" />
 <path d="  M 101,64  L 101,63  L 100,63  L 100,43  L 99,43  L 99,42  L 100,42  L 100,39  L 99,39  L 99,38  L 100,38  L 100,37  L 99,37  L 99,36  L 100,36  L 100,35  L 99,35  L 99,34  L 100,34  L 100,33  L 99,33  L 99,32  L 100,32  L 100,31  L 99,31  L 99,30  L 100,30  L 100,29  L 99,29  L 99,18  L 98,18  L 98,4  L 97,4  L 97,3  L 96,3  L 96,2  L 92,2  L 92,3  L 91,3  L 91,4  L 90,4  L 90,6  L 91,6  L 91,8  L 90,8  L 90,10  L 91,10  L 91,20  L 92,20  L 92,21  L 91,21  L 91,24  L 92,24  L 92,25  L 91,25  L 91,26  L 92,26  L 92,27  L 91,27  L 91,28  L 92,28  L 92,29  L 91,29  L 91,30  L 92,30  L 92,31  L 91,31  L 91,32  L 92,32  L 92,50  L 93,50  L 93,53  L 92,53  L 92,54  L 93,54  L 93,57  L 92,57  L 92,58  L 93,58  L 93,64  L 94,64  L 94,67  L 93,67  L 93,68  L 94,68  L 94,78  L 95,78  L 95,83  L 96,83  L 96,84  L 95,84  L 95,85  L 97,85  L 97,86  L 101,86  L 101,67  L 100,67  L 100,64  Z  " style="fill:rgb(0, 0, 0); fill-opacity:1.000; stroke:none;" />
</svg>
