<?xml version="1.0" encoding="UTF-8" standalone="no"?>
<!DOCTYPE svg PUBLIC "-//W3C//DTD SVG 1.1//EN" 
  "http://www.w3.org/Graphics/SVG/1.1/DTD/svg11.dtd">
<svg width="101" height="177"
     xmlns="http://www.w3.org/2000/svg" version="1.1">
 <path d="  M 45,12  L 44,12  L 44,11  L 34,11  L 34,12  L 25,12  L 25,13  L 17,13  L 17,14  L 13,14  L 13,15  L 8,15  L 8,16  L 5,16  L 5,17  L 2,17  L 2,18  L 1,18  L 1,20  L 0,20  L 0,21  L 1,21  L 1,23  L 0,23  L 0,24  L 3,24  L 3,25  L 7,25  L 7,24  L 8,24  L 8,23  L 10,23  L 10,22  L 14,22  L 14,21  L 21,21  L 21,20  L 28,20  L 28,19  L 35,19  L 35,18  L 41,18  L 41,19  L 43,19  L 43,27  L 42,27  L 42,29  L 41,29  L 41,30  L 40,30  L 40,31  L 39,31  L 39,33  L 38,33  L 38,36  L 37,36  L 37,38  L 36,38  L 36,40  L 35,40  L 35,41  L 34,41  L 34,44  L 33,44  L 33,45  L 32,45  L 32,47  L 31,47  L 31,49  L 30,49  L 30,50  L 29,50  L 29,52  L 28,52  L 28,54  L 27,54  L 27,56  L 26,56  L 26,58  L 25,58  L 25,60  L 24,60  L 24,62  L 23,62  L 23,63  L 22,63  L 22,65  L 21,65  L 21,66  L 20,66  L 20,67  L 19,67  L 19,69  L 18,69  L 18,70  L 17,70  L 17,71  L 16,71  L 16,73  L 15,73  L 15,74  L 14,74  L 14,76  L 13,76  L 13,77  L 12,77  L 12,78  L 11,78  L 11,79  L 10,79  L 10,80  L 9,80  L 9,82  L 8,82  L 8,83  L 7,83  L 7,86  L 8,86  L 8,88  L 13,88  L 13,87  L 15,87  L 15,85  L 16,85  L 16,84  L 17,84  L 17,83  L 19,83  L 19,80  L 20,80  L 20,79  L 21,79  L 21,78  L 22,78  L 22,76  L 23,76  L 23,75  L 24,75  L 24,74  L 25,74  L 25,73  L 26,73  L 26,72  L 27,72  L 27,71  L 28,71  L 28,69  L 29,69  L 29,67  L 30,67  L 30,65  L 31,65  L 31,63  L 32,63  L 32,62  L 33,62  L 33,60  L 34,60  L 34,58  L 35,58  L 35,56  L 36,56  L 36,54  L 37,54  L 37,52  L 38,52  L 38,49  L 39,49  L 39,48  L 40,48  L 40,46  L 41,46  L 41,44  L 42,44  L 42,42  L 43,42  L 43,40  L 44,40  L 44,38  L 45,38  L 45,36  L 46,36  L 46,34  L 47,34  L 47,32  L 49,32  L 49,29  L 50,29  L 50,28  L 51,28  L 51,27  L 52,27  L 52,21  L 51,21  L 51,19  L 50,19  L 50,18  L 49,18  L 49,16  L 47,16  L 47,14  L 46,14  L 46,13  L 45,13  Z  " style="fill:rgb(0, 0, 0); fill-opacity:1.000; stroke:none;" />
 <path d="  M 40,167  L 39,167  L 39,166  L 38,166  L 38,153  L 39,153  L 39,151  L 40,151  L 40,150  L 42,150  L 42,149  L 43,149  L 43,148  L 45,148  L 45,147  L 48,147  L 48,146  L 50,146  L 50,145  L 53,145  L 53,144  L 58,144  L 58,143  L 61,143  L 61,142  L 64,142  L 64,141  L 66,141  L 66,140  L 68,140  L 68,139  L 71,139  L 71,138  L 72,138  L 72,137  L 74,137  L 74,136  L 77,136  L 77,135  L 79,135  L 79,134  L 80,134  L 80,132  L 82,132  L 82,131  L 83,131  L 83,130  L 84,130  L 84,127  L 85,127  L 85,125  L 86,125  L 86,122  L 85,122  L 85,120  L 84,120  L 84,117  L 83,117  L 83,116  L 82,116  L 82,115  L 81,115  L 81,114  L 80,114  L 80,113  L 79,113  L 79,112  L 76,112  L 76,111  L 74,111  L 74,110  L 71,110  L 71,109  L 65,109  L 65,108  L 58,108  L 58,107  L 57,107  L 57,108  L 54,108  L 54,107  L 53,107  L 53,108  L 52,108  L 52,107  L 51,107  L 51,108  L 50,108  L 50,107  L 49,107  L 49,108  L 42,108  L 42,109  L 37,109  L 37,110  L 35,110  L 35,111  L 33,111  L 33,113  L 32,113  L 32,114  L 33,114  L 33,116  L 36,116  L 36,117  L 38,117  L 38,116  L 42,116  L 42,115  L 48,115  L 48,114  L 62,114  L 62,115  L 67,115  L 67,116  L 70,116  L 70,117  L 71,117  L 71,118  L 73,118  L 73,119  L 75,119  L 75,120  L 76,120  L 76,121  L 77,121  L 77,122  L 78,122  L 78,124  L 77,124  L 77,126  L 76,126  L 76,127  L 74,127  L 74,128  L 73,128  L 73,129  L 71,129  L 71,130  L 68,130  L 68,131  L 66,131  L 66,132  L 64,132  L 64,133  L 62,133  L 62,134  L 58,134  L 58,135  L 56,135  L 56,136  L 54,136  L 54,137  L 52,137  L 52,138  L 50,138  L 50,139  L 47,139  L 47,140  L 46,140  L 46,139  L 45,139  L 45,140  L 42,140  L 42,141  L 40,141  L 40,142  L 39,142  L 39,143  L 37,143  L 37,145  L 35,145  L 35,147  L 33,147  L 33,149  L 32,149  L 32,151  L 31,151  L 31,153  L 30,153  L 30,154  L 29,154  L 29,164  L 30,164  L 30,165  L 29,165  L 29,166  L 30,166  L 30,169  L 31,169  L 31,172  L 32,172  L 32,173  L 35,173  L 35,174  L 36,174  L 36,176  L 40,176  L 40,177  L 41,177  L 41,176  L 43,176  L 43,177  L 69,177  L 69,176  L 72,176  L 72,175  L 74,175  L 74,174  L 78,174  L 78,173  L 81,173  L 81,172  L 83,172  L 83,171  L 84,171  L 84,170  L 86,170  L 86,169  L 89,169  L 89,168  L 90,168  L 90,167  L 93,167  L 93,166  L 94,166  L 94,165  L 96,165  L 96,164  L 97,164  L 97,163  L 98,163  L 98,160  L 99,160  L 99,157  L 94,157  L 94,158  L 92,158  L 92,159  L 90,159  L 90,160  L 88,160  L 88,161  L 86,161  L 86,162  L 85,162  L 85,163  L 82,163  L 82,164  L 80,164  L 80,165  L 77,165  L 77,166  L 74,166  L 74,167  L 71,167  L 71,168  L 68,168  L 68,169  L 63,169  L 63,170  L 62,170  L 62,169  L 61,169  L 61,170  L 46,170  L 46,169  L 44,169  L 44,170  L 43,170  L 43,169  L 40,169  Z  " style="fill:rgb(0, 0, 0); fill-opacity:1.000; stroke:none;" />
 <path d="  M 94,22  L 93,22  L 93,23  L 90,23  L 90,24  L 87,24  L 87,23  L 86,23  L 86,24  L 63,24  L 63,25  L 58,25  L 58,26  L 56,26  L 56,27  L 54,27  L 54,28  L 55,28  L 55,29  L 54,29  L 54,31  L 55,31  L 55,32  L 56,32  L 56,33  L 57,33  L 57,34  L 60,34  L 60,33  L 68,33  L 68,32  L 69,32  L 69,33  L 70,33  L 70,32  L 82,32  L 82,31  L 85,31  L 85,32  L 86,32  L 86,31  L 93,31  L 93,32  L 94,32  L 94,35  L 93,35  L 93,50  L 92,50  L 92,51  L 90,51  L 90,50  L 87,50  L 87,51  L 86,51  L 86,50  L 85,50  L 85,51  L 80,51  L 80,52  L 77,52  L 77,53  L 76,53  L 76,52  L 75,52  L 75,53  L 72,53  L 72,54  L 71,54  L 71,53  L 70,53  L 70,54  L 64,54  L 64,55  L 60,55  L 60,56  L 56,56  L 56,57  L 52,57  L 52,58  L 51,58  L 51,59  L 52,59  L 52,60  L 53,60  L 53,61  L 57,61  L 57,62  L 58,62  L 58,61  L 66,61  L 66,60  L 76,60  L 76,59  L 80,59  L 80,58  L 92,58  L 92,61  L 93,61  L 93,69  L 92,69  L 92,70  L 93,70  L 93,72  L 92,72  L 92,75  L 93,75  L 93,76  L 92,76  L 92,79  L 93,79  L 93,80  L 92,80  L 92,103  L 96,103  L 96,102  L 97,102  L 97,101  L 98,101  L 98,100  L 99,100  L 99,94  L 100,94  L 100,93  L 99,93  L 99,90  L 100,90  L 100,89  L 99,89  L 99,87  L 100,87  L 100,72  L 101,72  L 101,71  L 100,71  L 100,70  L 101,70  L 101,69  L 100,69  L 100,68  L 101,68  L 101,1  L 99,1  L 99,0  L 95,0  L 95,1  L 94,1  Z  " style="fill:rgb(0, 0, 0); fill-opacity:1.000; stroke:none;" />
 <path d="  M 52,27  L 52,28  L 53,28  L 53,27  Z  " style="fill:rgb(0, 0, 0); fill-opacity:1.000; stroke:none;" />
</svg>
