<?xml version="1.0" encoding="UTF-8" standalone="no"?>
<!DOCTYPE svg PUBLIC "-//W3C//DTD SVG 1.1//EN" 
  "http://www.w3.org/Graphics/SVG/1.1/DTD/svg11.dtd">
<svg width="96" height="162"
     xmlns="http://www.w3.org/2000/svg" version="1.1">
 <path d="  M 21,23  L 21,22  L 31,22  L 31,21  L 33,21  L 33,22  L 35,22  L 35,21  L 36,21  L 36,22  L 39,22  L 39,23  L 41,23  L 41,25  L 42,25  L 42,27  L 41,27  L 41,28  L 40,28  L 40,30  L 39,30  L 39,31  L 38,31  L 38,33  L 37,33  L 37,35  L 36,35  L 36,37  L 35,37  L 35,38  L 34,38  L 34,39  L 33,39  L 33,41  L 32,41  L 32,43  L 31,43  L 31,45  L 30,45  L 30,47  L 29,47  L 29,48  L 28,48  L 28,51  L 27,51  L 27,53  L 26,53  L 26,55  L 25,55  L 25,56  L 24,56  L 24,58  L 23,58  L 23,60  L 22,60  L 22,61  L 21,61  L 21,63  L 20,63  L 20,64  L 19,64  L 19,66  L 18,66  L 18,67  L 17,67  L 17,69  L 16,69  L 16,71  L 15,71  L 15,72  L 14,72  L 14,73  L 13,73  L 13,75  L 12,75  L 12,77  L 11,77  L 11,79  L 9,79  L 9,81  L 8,81  L 8,85  L 9,85  L 9,86  L 13,86  L 13,85  L 15,85  L 15,84  L 16,84  L 16,83  L 17,83  L 17,82  L 18,82  L 18,80  L 19,80  L 19,79  L 20,79  L 20,78  L 21,78  L 21,76  L 22,76  L 22,75  L 23,75  L 23,73  L 24,73  L 24,71  L 25,71  L 25,69  L 26,69  L 26,67  L 27,67  L 27,66  L 28,66  L 28,64  L 29,64  L 29,63  L 30,63  L 30,62  L 31,62  L 31,61  L 32,61  L 32,58  L 33,58  L 33,56  L 34,56  L 34,54  L 35,54  L 35,53  L 36,53  L 36,50  L 37,50  L 37,48  L 38,48  L 38,46  L 39,46  L 39,43  L 40,43  L 40,41  L 41,41  L 41,39  L 42,39  L 42,38  L 43,38  L 43,35  L 44,35  L 44,34  L 45,34  L 45,32  L 46,32  L 46,31  L 47,31  L 47,30  L 48,30  L 48,27  L 49,27  L 49,21  L 48,21  L 48,20  L 47,20  L 47,19  L 46,19  L 46,18  L 45,18  L 45,17  L 42,17  L 42,16  L 39,16  L 39,15  L 26,15  L 26,16  L 20,16  L 20,17  L 14,17  L 14,18  L 8,18  L 8,19  L 2,19  L 2,20  L 1,20  L 1,21  L 0,21  L 0,24  L 1,24  L 1,26  L 3,26  L 3,27  L 4,27  L 4,26  L 8,26  L 8,25  L 12,25  L 12,24  L 17,24  L 17,23  Z  " style="fill:rgb(0, 0, 0); fill-opacity:1.000; stroke:none;" />
 <path d="  M 94,121  L 95,121  L 95,115  L 96,115  L 96,113  L 95,113  L 95,111  L 94,111  L 94,109  L 93,109  L 93,107  L 91,107  L 91,105  L 88,105  L 88,104  L 76,104  L 76,105  L 75,105  L 75,104  L 74,104  L 74,105  L 66,105  L 66,106  L 65,106  L 65,105  L 64,105  L 64,106  L 63,106  L 63,105  L 62,105  L 62,106  L 58,106  L 58,107  L 57,107  L 57,106  L 56,106  L 56,107  L 46,107  L 46,108  L 33,108  L 33,109  L 28,109  L 28,110  L 26,110  L 26,111  L 24,111  L 24,112  L 23,112  L 23,113  L 22,113  L 22,115  L 23,115  L 23,116  L 24,116  L 24,117  L 27,117  L 27,118  L 28,118  L 28,117  L 29,117  L 29,118  L 30,118  L 30,119  L 31,119  L 31,134  L 32,134  L 32,135  L 31,135  L 31,138  L 32,138  L 32,139  L 31,139  L 31,142  L 32,142  L 32,144  L 31,144  L 31,145  L 32,145  L 32,153  L 33,153  L 33,157  L 34,157  L 34,158  L 35,158  L 35,160  L 36,160  L 36,161  L 37,161  L 37,162  L 66,162  L 66,161  L 69,161  L 69,162  L 70,162  L 70,161  L 78,161  L 78,160  L 83,160  L 83,159  L 86,159  L 86,158  L 88,158  L 88,157  L 90,157  L 90,156  L 91,156  L 91,153  L 92,153  L 92,142  L 93,142  L 93,141  L 92,141  L 92,140  L 93,140  L 93,132  L 94,132  L 94,131  L 93,131  L 93,129  L 94,129  Z  M 38,125  L 37,125  L 37,124  L 38,124  L 38,119  L 37,119  L 37,117  L 38,117  L 38,115  L 43,115  L 43,114  L 44,114  L 44,115  L 45,115  L 45,114  L 56,114  L 56,113  L 57,113  L 57,114  L 58,114  L 58,113  L 61,113  L 61,114  L 62,114  L 62,113  L 67,113  L 67,112  L 68,112  L 68,113  L 69,113  L 69,112  L 75,112  L 75,111  L 76,111  L 76,112  L 77,112  L 77,111  L 85,111  L 85,112  L 87,112  L 87,113  L 88,113  L 88,124  L 87,124  L 87,131  L 86,131  L 86,141  L 85,141  L 85,152  L 84,152  L 84,153  L 78,153  L 78,154  L 75,154  L 75,153  L 74,153  L 74,154  L 70,154  L 70,155  L 69,155  L 69,154  L 68,154  L 68,155  L 56,155  L 56,156  L 55,156  L 55,155  L 53,155  L 53,156  L 51,156  L 51,155  L 50,155  L 50,156  L 47,156  L 47,155  L 46,155  L 46,156  L 43,156  L 43,155  L 40,155  L 40,154  L 39,154  L 39,149  L 38,149  L 38,129  L 37,129  L 37,128  L 38,128  Z  " style="fill:rgb(0, 0, 0); fill-opacity:1.000; stroke:none;" />
 <path d="  M 74,50  L 74,51  L 66,51  L 66,52  L 55,52  L 55,53  L 51,53  L 51,54  L 49,54  L 49,56  L 50,56  L 50,57  L 52,57  L 52,58  L 54,58  L 54,59  L 57,59  L 57,58  L 74,58  L 74,57  L 79,57  L 79,56  L 84,56  L 84,55  L 89,55  L 89,63  L 88,63  L 88,64  L 89,64  L 89,67  L 88,67  L 88,68  L 89,68  L 89,71  L 88,71  L 88,83  L 87,83  L 87,94  L 86,94  L 86,95  L 87,95  L 87,99  L 89,99  L 89,100  L 90,100  L 90,99  L 92,99  L 92,98  L 93,98  L 93,97  L 95,97  L 95,96  L 94,96  L 94,94  L 95,94  L 95,93  L 94,93  L 94,91  L 95,91  L 95,84  L 96,84  L 96,83  L 95,83  L 95,82  L 96,82  L 96,81  L 95,81  L 95,80  L 96,80  L 96,17  L 95,17  L 95,9  L 94,9  L 94,4  L 93,4  L 93,2  L 91,2  L 91,1  L 85,1  L 85,3  L 84,3  L 84,4  L 85,4  L 85,7  L 86,7  L 86,12  L 87,12  L 87,18  L 88,18  L 88,22  L 89,22  L 89,24  L 88,24  L 88,25  L 85,25  L 85,26  L 83,26  L 83,25  L 82,25  L 82,26  L 76,26  L 76,27  L 56,27  L 56,28  L 53,28  L 53,29  L 52,29  L 52,33  L 53,33  L 53,35  L 59,35  L 59,34  L 76,34  L 76,33  L 77,33  L 77,34  L 78,34  L 78,33  L 87,33  L 87,32  L 88,32  L 88,33  L 89,33  L 89,43  L 90,43  L 90,44  L 89,44  L 89,47  L 88,47  L 88,48  L 82,48  L 82,49  L 77,49  L 77,50  Z  " style="fill:rgb(0, 0, 0); fill-opacity:1.000; stroke:none;" />
</svg>
