<?xml version="1.0" encoding="UTF-8" standalone="no"?>
<!DOCTYPE svg PUBLIC "-//W3C//DTD SVG 1.1//EN" 
  "http://www.w3.org/Graphics/SVG/1.1/DTD/svg11.dtd">
<svg width="100" height="173"
     xmlns="http://www.w3.org/2000/svg" version="1.1">
 <path d="  M 26,21  L 26,20  L 40,20  L 40,21  L 42,21  L 42,22  L 44,22  L 44,23  L 45,23  L 45,26  L 44,26  L 44,28  L 43,28  L 43,29  L 42,29  L 42,30  L 41,30  L 41,33  L 40,33  L 40,35  L 39,35  L 39,37  L 38,37  L 38,39  L 37,39  L 37,41  L 36,41  L 36,43  L 35,43  L 35,44  L 34,44  L 34,46  L 33,46  L 33,47  L 32,47  L 32,50  L 31,50  L 31,51  L 30,51  L 30,53  L 29,53  L 29,56  L 28,56  L 28,58  L 27,58  L 27,59  L 26,59  L 26,61  L 25,61  L 25,62  L 24,62  L 24,63  L 23,63  L 23,64  L 22,64  L 22,66  L 21,66  L 21,68  L 20,68  L 20,70  L 19,70  L 19,71  L 18,71  L 18,72  L 17,72  L 17,73  L 16,73  L 16,75  L 15,75  L 15,76  L 14,76  L 14,77  L 12,77  L 12,79  L 11,79  L 11,80  L 10,80  L 10,81  L 9,81  L 9,84  L 10,84  L 10,85  L 11,85  L 11,84  L 12,84  L 12,85  L 13,85  L 13,84  L 14,84  L 14,85  L 15,85  L 15,84  L 18,84  L 18,83  L 19,83  L 19,82  L 21,82  L 21,81  L 22,81  L 22,80  L 23,80  L 23,78  L 24,78  L 24,77  L 25,77  L 25,74  L 26,74  L 26,73  L 27,73  L 27,71  L 28,71  L 28,70  L 29,70  L 29,69  L 30,69  L 30,67  L 31,67  L 31,66  L 32,66  L 32,64  L 33,64  L 33,62  L 34,62  L 34,60  L 35,60  L 35,59  L 36,59  L 36,56  L 37,56  L 37,54  L 38,54  L 38,52  L 39,52  L 39,51  L 40,51  L 40,49  L 41,49  L 41,46  L 42,46  L 42,44  L 43,44  L 43,42  L 44,42  L 44,40  L 45,40  L 45,38  L 46,38  L 46,36  L 47,36  L 47,35  L 48,35  L 48,33  L 49,33  L 49,32  L 50,32  L 50,30  L 51,30  L 51,29  L 52,29  L 52,26  L 53,26  L 53,23  L 52,23  L 52,20  L 51,20  L 51,19  L 50,19  L 50,18  L 49,18  L 49,17  L 48,17  L 48,16  L 46,16  L 46,15  L 44,15  L 44,14  L 41,14  L 41,13  L 26,13  L 26,14  L 18,14  L 18,15  L 11,15  L 11,16  L 6,16  L 6,17  L 1,17  L 1,18  L 0,18  L 0,21  L 1,21  L 1,24  L 8,24  L 8,23  L 11,23  L 11,22  L 18,22  L 18,21  Z  " style="fill:rgb(0, 0, 0); fill-opacity:1.000; stroke:none;" />
 <path d="  M 26,144  L 27,144  L 27,153  L 28,153  L 28,154  L 27,154  L 27,156  L 28,156  L 28,163  L 29,163  L 29,166  L 30,166  L 30,168  L 31,168  L 31,169  L 33,169  L 33,170  L 34,170  L 34,171  L 35,171  L 35,172  L 39,172  L 39,173  L 64,173  L 64,172  L 65,172  L 65,173  L 66,173  L 66,172  L 70,172  L 70,171  L 72,171  L 72,170  L 74,170  L 74,169  L 75,169  L 75,168  L 76,168  L 76,167  L 79,167  L 79,166  L 82,166  L 82,165  L 83,165  L 83,164  L 85,164  L 85,162  L 86,162  L 86,160  L 87,160  L 87,156  L 88,156  L 88,148  L 89,148  L 89,142  L 90,142  L 90,138  L 91,138  L 91,132  L 92,132  L 92,131  L 91,131  L 91,125  L 92,125  L 92,123  L 91,123  L 91,121  L 92,121  L 92,106  L 85,106  L 85,107  L 84,107  L 84,108  L 85,108  L 85,109  L 84,109  L 84,113  L 85,113  L 85,114  L 84,114  L 84,117  L 85,117  L 85,118  L 84,118  L 84,120  L 85,120  L 85,122  L 84,122  L 84,130  L 85,130  L 85,131  L 84,131  L 84,134  L 61,134  L 61,135  L 60,135  L 60,134  L 58,134  L 58,135  L 56,135  L 56,134  L 54,134  L 54,135  L 52,135  L 52,134  L 51,134  L 51,135  L 39,135  L 39,136  L 38,136  L 38,135  L 33,135  L 33,133  L 34,133  L 34,130  L 33,130  L 33,124  L 34,124  L 34,123  L 33,123  L 33,121  L 34,121  L 34,119  L 33,119  L 33,118  L 34,118  L 34,108  L 30,108  L 30,107  L 29,107  L 29,108  L 27,108  L 27,109  L 26,109  Z  M 63,142  L 63,143  L 64,143  L 64,142  L 67,142  L 67,143  L 68,143  L 68,142  L 71,142  L 71,143  L 72,143  L 72,142  L 75,142  L 75,143  L 76,143  L 76,142  L 79,142  L 79,143  L 81,143  L 81,154  L 80,154  L 80,156  L 79,156  L 79,158  L 78,158  L 78,160  L 77,160  L 77,161  L 74,161  L 74,162  L 71,162  L 71,163  L 67,163  L 67,164  L 64,164  L 64,165  L 58,165  L 58,166  L 48,166  L 48,167  L 47,167  L 47,166  L 40,166  L 40,165  L 37,165  L 37,162  L 36,162  L 36,159  L 35,159  L 35,153  L 34,153  L 34,152  L 35,152  L 35,151  L 34,151  L 34,145  L 35,145  L 35,144  L 39,144  L 39,143  L 52,143  L 52,142  L 53,142  L 53,143  L 56,143  L 56,142  L 59,142  L 59,143  L 60,143  L 60,142  Z  " style="fill:rgb(0, 0, 0); fill-opacity:1.000; stroke:none;" />
 <path d="  M 53,26  L 53,28  L 54,28  L 54,26  Z  " style="fill:rgb(0, 0, 0); fill-opacity:1.000; stroke:none;" />
 <path d="  M 91,94  L 92,94  L 92,97  L 93,97  L 93,98  L 95,98  L 95,99  L 96,99  L 96,98  L 97,98  L 97,97  L 98,97  L 98,95  L 99,95  L 99,68  L 100,68  L 100,21  L 99,21  L 99,8  L 98,8  L 98,5  L 99,5  L 99,3  L 97,3  L 97,2  L 96,2  L 96,1  L 95,1  L 95,0  L 92,0  L 92,1  L 90,1  L 90,2  L 89,2  L 89,6  L 90,6  L 90,9  L 91,9  L 91,18  L 92,18  L 92,24  L 91,24  L 91,25  L 89,25  L 89,26  L 79,26  L 79,27  L 78,27  L 78,26  L 77,26  L 77,27  L 61,27  L 61,28  L 60,28  L 60,27  L 59,27  L 59,28  L 54,28  L 54,33  L 55,33  L 55,34  L 56,34  L 56,35  L 57,35  L 57,34  L 58,34  L 58,35  L 61,35  L 61,34  L 71,34  L 71,35  L 72,35  L 72,34  L 82,34  L 82,33  L 83,33  L 83,34  L 84,34  L 84,33  L 92,33  L 92,34  L 93,34  L 93,35  L 92,35  L 92,48  L 93,48  L 93,49  L 92,49  L 92,52  L 91,52  L 91,53  L 84,53  L 84,54  L 79,54  L 79,55  L 75,55  L 75,56  L 65,56  L 65,57  L 60,57  L 60,58  L 56,58  L 56,59  L 55,59  L 55,61  L 54,61  L 54,62  L 55,62  L 55,64  L 56,64  L 56,63  L 57,63  L 57,64  L 63,64  L 63,63  L 74,63  L 74,62  L 79,62  L 79,61  L 87,61  L 87,60  L 91,60  Z  " style="fill:rgb(0, 0, 0); fill-opacity:1.000; stroke:none;" />
</svg>
