<?xml version="1.0" encoding="UTF-8" standalone="no"?>
<!DOCTYPE svg PUBLIC "-//W3C//DTD SVG 1.1//EN" 
  "http://www.w3.org/Graphics/SVG/1.1/DTD/svg11.dtd">
<svg width="101" height="146"
     xmlns="http://www.w3.org/2000/svg" version="1.1">
 <path d="  M 41,15  L 41,18  L 40,18  L 40,19  L 39,19  L 39,20  L 38,20  L 38,22  L 37,22  L 37,23  L 36,23  L 36,25  L 35,25  L 35,26  L 34,26  L 34,28  L 33,28  L 33,29  L 32,29  L 32,31  L 31,31  L 31,33  L 30,33  L 30,34  L 29,34  L 29,36  L 28,36  L 28,37  L 27,37  L 27,40  L 26,40  L 26,41  L 25,41  L 25,43  L 24,43  L 24,45  L 23,45  L 23,48  L 22,48  L 22,49  L 21,49  L 21,51  L 20,51  L 20,53  L 19,53  L 19,54  L 18,54  L 18,55  L 17,55  L 17,58  L 16,58  L 16,60  L 15,60  L 15,61  L 14,61  L 14,62  L 13,62  L 13,64  L 12,64  L 12,66  L 11,66  L 11,67  L 10,67  L 10,69  L 9,69  L 9,73  L 10,73  L 10,74  L 11,74  L 11,75  L 13,75  L 13,74  L 14,74  L 14,73  L 15,73  L 15,72  L 16,72  L 16,71  L 17,71  L 17,69  L 18,69  L 18,68  L 19,68  L 19,67  L 20,67  L 20,65  L 21,65  L 21,64  L 22,64  L 22,62  L 23,62  L 23,60  L 24,60  L 24,59  L 25,59  L 25,57  L 26,57  L 26,56  L 27,56  L 27,53  L 28,53  L 28,51  L 29,51  L 29,49  L 30,49  L 30,47  L 31,47  L 31,46  L 32,46  L 32,43  L 33,43  L 33,41  L 34,41  L 34,39  L 35,39  L 35,38  L 36,38  L 36,36  L 37,36  L 37,34  L 38,34  L 38,33  L 39,33  L 39,31  L 40,31  L 40,29  L 41,29  L 41,28  L 42,28  L 42,27  L 43,27  L 43,26  L 45,26  L 45,25  L 47,25  L 47,26  L 46,26  L 46,27  L 47,27  L 47,29  L 48,29  L 48,30  L 49,30  L 49,31  L 53,31  L 53,30  L 63,30  L 63,29  L 75,29  L 75,32  L 76,32  L 76,33  L 75,33  L 75,35  L 76,35  L 76,42  L 75,42  L 75,44  L 76,44  L 76,45  L 75,45  L 75,46  L 74,46  L 74,47  L 66,47  L 66,48  L 59,48  L 59,49  L 49,49  L 49,50  L 47,50  L 47,54  L 48,54  L 48,55  L 50,55  L 50,56  L 55,56  L 55,55  L 61,55  L 61,54  L 70,54  L 70,53  L 75,53  L 75,56  L 76,56  L 76,73  L 77,73  L 77,74  L 76,74  L 76,84  L 77,84  L 77,85  L 81,85  L 81,84  L 82,84  L 82,83  L 83,83  L 83,56  L 82,56  L 82,54  L 83,54  L 83,52  L 82,52  L 82,25  L 81,25  L 81,21  L 80,21  L 80,16  L 79,16  L 79,9  L 78,9  L 78,5  L 77,5  L 77,2  L 76,2  L 76,1  L 71,1  L 71,9  L 72,9  L 72,16  L 73,16  L 73,18  L 74,18  L 74,19  L 75,19  L 75,22  L 74,22  L 74,23  L 53,23  L 53,22  L 49,22  L 49,20  L 48,20  L 48,15  L 47,15  L 47,13  L 46,13  L 46,12  L 45,12  L 45,11  L 44,11  L 44,10  L 43,10  L 43,9  L 40,9  L 40,8  L 32,8  L 32,9  L 31,9  L 31,8  L 30,8  L 30,9  L 22,9  L 22,10  L 19,10  L 19,9  L 18,9  L 18,10  L 12,10  L 12,11  L 4,11  L 4,12  L 3,12  L 3,11  L 2,11  L 2,12  L 1,12  L 1,13  L 0,13  L 0,16  L 1,16  L 1,18  L 3,18  L 3,19  L 7,19  L 7,18  L 10,18  L 10,17  L 14,17  L 14,16  L 21,16  L 21,15  Z  " style="fill:rgb(0, 0, 0); fill-opacity:1.000; stroke:none;" />
 <path d="  M 13,122  L 13,124  L 12,124  L 12,125  L 10,125  L 10,127  L 9,127  L 9,128  L 8,128  L 8,130  L 6,130  L 6,132  L 5,132  L 5,134  L 6,134  L 6,136  L 7,136  L 7,137  L 10,137  L 10,136  L 11,136  L 11,135  L 12,135  L 12,133  L 13,133  L 13,131  L 14,131  L 14,129  L 15,129  L 15,128  L 16,128  L 16,127  L 17,127  L 17,126  L 18,126  L 18,125  L 19,125  L 19,123  L 20,123  L 20,122  L 21,122  L 21,121  L 22,121  L 22,120  L 23,120  L 23,119  L 24,119  L 24,118  L 25,118  L 25,117  L 26,117  L 26,116  L 28,116  L 28,117  L 29,117  L 29,118  L 31,118  L 31,119  L 33,119  L 33,120  L 34,120  L 34,121  L 37,121  L 37,122  L 39,122  L 39,123  L 42,123  L 42,124  L 45,124  L 45,125  L 47,125  L 47,126  L 48,126  L 48,127  L 49,127  L 49,129  L 50,129  L 50,134  L 49,134  L 49,135  L 48,135  L 48,137  L 47,137  L 47,140  L 46,140  L 46,146  L 52,146  L 52,144  L 53,144  L 53,141  L 54,141  L 54,139  L 55,139  L 55,137  L 56,137  L 56,135  L 57,135  L 57,133  L 60,133  L 60,131  L 61,131  L 61,130  L 62,130  L 62,128  L 63,128  L 63,126  L 64,126  L 64,123  L 65,123  L 65,122  L 66,122  L 66,119  L 67,119  L 67,117  L 71,117  L 71,119  L 73,119  L 73,121  L 75,121  L 75,122  L 77,122  L 77,123  L 78,123  L 78,124  L 80,124  L 80,125  L 82,125  L 82,126  L 83,126  L 83,127  L 85,127  L 85,128  L 87,128  L 87,129  L 89,129  L 89,130  L 91,130  L 91,131  L 92,131  L 92,132  L 93,132  L 93,133  L 96,133  L 96,134  L 97,134  L 97,136  L 101,136  L 101,129  L 100,129  L 100,128  L 98,128  L 98,127  L 96,127  L 96,126  L 94,126  L 94,125  L 92,125  L 92,124  L 90,124  L 90,123  L 88,123  L 88,122  L 87,122  L 87,121  L 85,121  L 85,120  L 84,120  L 84,119  L 82,119  L 82,118  L 80,118  L 80,117  L 79,117  L 79,116  L 78,116  L 78,115  L 77,115  L 77,114  L 75,114  L 75,113  L 74,113  L 74,110  L 73,110  L 73,106  L 74,106  L 74,102  L 75,102  L 75,98  L 76,98  L 76,95  L 77,95  L 77,91  L 78,91  L 78,90  L 77,90  L 77,89  L 75,89  L 75,88  L 74,88  L 74,89  L 72,89  L 72,90  L 71,90  L 71,92  L 70,92  L 70,95  L 69,95  L 69,99  L 68,99  L 68,102  L 67,102  L 67,104  L 66,104  L 66,106  L 65,106  L 65,108  L 64,108  L 64,110  L 63,110  L 63,112  L 62,112  L 62,114  L 61,114  L 61,117  L 60,117  L 60,122  L 59,122  L 59,125  L 58,125  L 58,126  L 57,126  L 57,127  L 56,127  L 56,125  L 55,125  L 55,124  L 54,124  L 54,123  L 53,123  L 53,122  L 51,122  L 51,121  L 49,121  L 49,120  L 47,120  L 47,119  L 46,119  L 46,118  L 43,118  L 43,117  L 41,117  L 41,116  L 39,116  L 39,115  L 37,115  L 37,114  L 35,114  L 35,113  L 34,113  L 34,112  L 32,112  L 32,111  L 31,111  L 31,110  L 30,110  L 30,106  L 31,106  L 31,104  L 32,104  L 32,102  L 33,102  L 33,100  L 34,100  L 34,98  L 35,98  L 35,97  L 36,97  L 36,95  L 37,95  L 37,94  L 38,94  L 38,92  L 37,92  L 37,91  L 36,91  L 36,90  L 35,90  L 35,89  L 33,89  L 33,88  L 30,88  L 30,87  L 24,87  L 24,88  L 23,88  L 23,90  L 24,90  L 24,91  L 25,91  L 25,92  L 28,92  L 28,93  L 29,93  L 29,97  L 28,97  L 28,100  L 27,100  L 27,101  L 26,101  L 26,104  L 25,104  L 25,105  L 24,105  L 24,107  L 23,107  L 23,109  L 22,109  L 22,111  L 21,111  L 21,113  L 20,113  L 20,115  L 19,115  L 19,116  L 18,116  L 18,117  L 17,117  L 17,118  L 16,118  L 16,119  L 15,119  L 15,121  L 14,121  L 14,122  Z  " style="fill:rgb(0, 0, 0); fill-opacity:1.000; stroke:none;" />
</svg>
