<?xml version="1.0" encoding="UTF-8" standalone="no"?>
<!DOCTYPE svg PUBLIC "-//W3C//DTD SVG 1.1//EN" 
  "http://www.w3.org/Graphics/SVG/1.1/DTD/svg11.dtd">
<svg width="98" height="175"
     xmlns="http://www.w3.org/2000/svg" version="1.1">
 <path d="  M 37,35  L 36,35  L 36,37  L 35,37  L 35,39  L 34,39  L 34,41  L 33,41  L 33,42  L 32,42  L 32,44  L 31,44  L 31,46  L 30,46  L 30,47  L 29,47  L 29,49  L 28,49  L 28,51  L 27,51  L 27,53  L 26,53  L 26,54  L 25,54  L 25,56  L 24,56  L 24,58  L 23,58  L 23,59  L 22,59  L 22,61  L 21,61  L 21,62  L 20,62  L 20,64  L 19,64  L 19,65  L 18,65  L 18,66  L 17,66  L 17,67  L 16,67  L 16,69  L 14,69  L 14,71  L 13,71  L 13,72  L 12,72  L 12,73  L 11,73  L 11,74  L 10,74  L 10,75  L 8,75  L 8,77  L 7,77  L 7,78  L 8,78  L 8,80  L 9,80  L 9,81  L 11,81  L 11,80  L 13,80  L 13,81  L 14,81  L 14,80  L 16,80  L 16,79  L 18,79  L 18,78  L 19,78  L 19,77  L 20,77  L 20,76  L 21,76  L 21,75  L 22,75  L 22,74  L 23,74  L 23,72  L 24,72  L 24,71  L 25,71  L 25,70  L 26,70  L 26,68  L 27,68  L 27,67  L 28,67  L 28,65  L 29,65  L 29,64  L 30,64  L 30,62  L 31,62  L 31,61  L 32,61  L 32,59  L 33,59  L 33,56  L 34,56  L 34,55  L 35,55  L 35,53  L 36,53  L 36,51  L 37,51  L 37,48  L 38,48  L 38,46  L 39,46  L 39,45  L 40,45  L 40,43  L 41,43  L 41,42  L 42,42  L 42,40  L 43,40  L 43,38  L 44,38  L 44,36  L 45,36  L 45,34  L 46,34  L 46,33  L 47,33  L 47,31  L 48,31  L 48,29  L 50,29  L 50,28  L 51,28  L 51,26  L 50,26  L 50,24  L 51,24  L 51,23  L 50,23  L 50,21  L 49,21  L 49,20  L 48,20  L 48,19  L 47,19  L 47,18  L 46,18  L 46,17  L 45,17  L 45,16  L 44,16  L 44,15  L 43,15  L 43,14  L 37,14  L 37,13  L 35,13  L 35,14  L 33,14  L 33,13  L 32,13  L 32,14  L 23,14  L 23,15  L 13,15  L 13,16  L 7,16  L 7,17  L 2,17  L 2,18  L 0,18  L 0,19  L 1,19  L 1,20  L 0,20  L 0,23  L 1,23  L 1,24  L 2,24  L 2,25  L 6,25  L 6,24  L 10,24  L 10,23  L 14,23  L 14,22  L 22,22  L 22,21  L 31,21  L 31,20  L 33,20  L 33,21  L 39,21  L 39,22  L 41,22  L 41,23  L 42,23  L 42,25  L 43,25  L 43,26  L 42,26  L 42,27  L 41,27  L 41,29  L 40,29  L 40,30  L 39,30  L 39,31  L 38,31  L 38,33  L 37,33  Z  " style="fill:rgb(0, 0, 0); fill-opacity:1.000; stroke:none;" />
 <path d="  M 38,119  L 39,119  L 39,118  L 41,118  L 41,117  L 42,117  L 42,116  L 48,116  L 48,115  L 54,115  L 54,114  L 59,114  L 59,113  L 61,113  L 61,114  L 62,114  L 62,113  L 72,113  L 72,112  L 77,112  L 77,113  L 87,113  L 87,114  L 90,114  L 90,115  L 93,115  L 93,114  L 94,114  L 94,109  L 93,109  L 93,107  L 92,107  L 92,106  L 77,106  L 77,105  L 75,105  L 75,106  L 72,106  L 72,105  L 71,105  L 71,106  L 61,106  L 61,107  L 54,107  L 54,108  L 46,108  L 46,109  L 39,109  L 39,110  L 36,110  L 36,111  L 35,111  L 35,112  L 33,112  L 33,113  L 32,113  L 32,117  L 31,117  L 31,119  L 30,119  L 30,125  L 29,125  L 29,126  L 30,126  L 30,138  L 31,138  L 31,140  L 32,140  L 32,142  L 33,142  L 33,140  L 35,140  L 35,142  L 34,142  L 34,143  L 31,143  L 31,144  L 30,144  L 30,149  L 31,149  L 31,152  L 32,152  L 32,153  L 31,153  L 31,154  L 32,154  L 32,161  L 33,161  L 33,167  L 34,167  L 34,170  L 35,170  L 35,171  L 37,171  L 37,173  L 41,173  L 41,174  L 43,174  L 43,175  L 64,175  L 64,174  L 68,174  L 68,173  L 72,173  L 72,172  L 74,172  L 74,171  L 76,171  L 76,170  L 79,170  L 79,169  L 83,169  L 83,168  L 84,168  L 84,167  L 86,167  L 86,166  L 87,166  L 87,165  L 88,165  L 88,164  L 90,164  L 90,163  L 91,163  L 91,162  L 92,162  L 92,160  L 93,160  L 93,158  L 94,158  L 94,157  L 93,157  L 93,156  L 90,156  L 90,157  L 87,157  L 87,158  L 85,158  L 85,159  L 84,159  L 84,160  L 82,160  L 82,161  L 80,161  L 80,162  L 79,162  L 79,163  L 75,163  L 75,164  L 74,164  L 74,165  L 70,165  L 70,166  L 69,166  L 69,165  L 67,165  L 67,166  L 64,166  L 64,167  L 59,167  L 59,168  L 56,168  L 56,167  L 55,167  L 55,168  L 46,168  L 46,167  L 42,167  L 42,166  L 41,166  L 41,165  L 40,165  L 40,164  L 41,164  L 41,163  L 40,163  L 40,155  L 39,155  L 39,154  L 40,154  L 40,153  L 39,153  L 39,152  L 40,152  L 40,150  L 41,150  L 41,149  L 42,149  L 42,148  L 46,148  L 46,147  L 49,147  L 49,146  L 53,146  L 53,145  L 54,145  L 54,146  L 55,146  L 55,145  L 60,145  L 60,144  L 64,144  L 64,143  L 67,143  L 67,142  L 69,142  L 69,141  L 71,141  L 71,140  L 73,140  L 73,139  L 75,139  L 75,138  L 78,138  L 78,137  L 81,137  L 81,136  L 84,136  L 84,135  L 88,135  L 88,134  L 89,134  L 89,133  L 90,133  L 90,131  L 91,131  L 91,126  L 90,126  L 90,125  L 89,125  L 89,126  L 87,126  L 87,127  L 84,127  L 84,128  L 83,128  L 83,129  L 79,129  L 79,130  L 76,130  L 76,131  L 73,131  L 73,132  L 70,132  L 70,133  L 68,133  L 68,134  L 67,134  L 67,135  L 64,135  L 64,136  L 62,136  L 62,137  L 57,137  L 57,138  L 56,138  L 56,137  L 55,137  L 55,138  L 52,138  L 52,139  L 46,139  L 46,140  L 44,140  L 44,139  L 43,139  L 43,140  L 40,140  L 40,141  L 37,141  L 37,140  L 36,140  L 36,137  L 37,137  L 37,136  L 38,136  Z  " style="fill:rgb(0, 0, 0); fill-opacity:1.000; stroke:none;" />
 <path d="  M 82,26  L 71,26  L 71,27  L 60,27  L 60,28  L 56,28  L 56,29  L 54,29  L 54,30  L 53,30  L 53,31  L 52,31  L 52,32  L 53,32  L 53,34  L 52,34  L 52,35  L 53,35  L 53,36  L 61,36  L 61,35  L 71,35  L 71,34  L 78,34  L 78,33  L 79,33  L 79,34  L 80,34  L 80,33  L 91,33  L 91,37  L 90,37  L 90,38  L 91,38  L 91,41  L 90,41  L 90,42  L 91,42  L 91,51  L 90,51  L 90,53  L 78,53  L 78,54  L 73,54  L 73,55  L 70,55  L 70,56  L 69,56  L 69,55  L 66,55  L 66,56  L 63,56  L 63,57  L 58,57  L 58,58  L 53,58  L 53,59  L 52,59  L 52,60  L 51,60  L 51,61  L 52,61  L 52,62  L 53,62  L 53,64  L 57,64  L 57,63  L 61,63  L 61,62  L 68,62  L 68,61  L 69,61  L 69,62  L 70,62  L 70,61  L 77,61  L 77,60  L 82,60  L 82,59  L 90,59  L 90,62  L 91,62  L 91,63  L 90,63  L 90,64  L 91,64  L 91,65  L 90,65  L 90,66  L 91,66  L 91,69  L 90,69  L 90,70  L 91,70  L 91,72  L 90,72  L 90,74  L 91,74  L 91,76  L 90,76  L 90,78  L 91,78  L 91,81  L 90,81  L 90,82  L 91,82  L 91,85  L 90,85  L 90,86  L 91,86  L 91,95  L 92,95  L 92,96  L 93,96  L 93,97  L 97,97  L 97,96  L 98,96  L 98,2  L 97,2  L 97,1  L 96,1  L 96,0  L 92,0  L 92,1  L 91,1  L 91,25  L 87,25  L 87,26  L 83,26  L 83,25  L 82,25  Z  " style="fill:rgb(0, 0, 0); fill-opacity:1.000; stroke:none;" />
</svg>
