<?xml version="1.0" encoding="UTF-8" standalone="no"?>
<!DOCTYPE svg PUBLIC "-//W3C//DTD SVG 1.1//EN" 
  "http://www.w3.org/Graphics/SVG/1.1/DTD/svg11.dtd">
<svg width="103" height="156"
     xmlns="http://www.w3.org/2000/svg" version="1.1">
 <path d="  M 61,43  L 61,42  L 60,42  L 60,43  L 56,43  L 56,44  L 54,44  L 54,43  L 53,43  L 53,44  L 48,44  L 48,45  L 43,45  L 43,46  L 40,46  L 40,47  L 39,47  L 39,48  L 38,48  L 38,50  L 56,50  L 56,49  L 72,49  L 72,50  L 73,50  L 73,59  L 74,59  L 74,61  L 73,61  L 73,73  L 74,73  L 74,77  L 75,77  L 75,78  L 76,78  L 76,79  L 79,79  L 79,77  L 81,77  L 81,5  L 82,5  L 82,4  L 81,4  L 81,2  L 80,2  L 80,1  L 75,1  L 75,2  L 74,2  L 74,19  L 73,19  L 73,20  L 71,20  L 71,19  L 52,19  L 52,18  L 49,18  L 49,12  L 50,12  L 50,9  L 49,9  L 49,7  L 48,7  L 48,6  L 47,6  L 47,5  L 46,5  L 46,4  L 44,4  L 44,3  L 43,3  L 43,4  L 42,4  L 42,3  L 41,3  L 41,4  L 35,4  L 35,5  L 29,5  L 29,6  L 21,6  L 21,7  L 16,7  L 16,8  L 8,8  L 8,9  L 3,9  L 3,10  L 2,10  L 2,11  L 1,11  L 1,12  L 0,12  L 0,14  L 1,14  L 1,15  L 2,15  L 2,16  L 3,16  L 3,17  L 5,17  L 5,16  L 9,16  L 9,15  L 13,15  L 13,14  L 20,14  L 20,13  L 28,13  L 28,12  L 37,12  L 37,11  L 40,11  L 40,12  L 41,12  L 41,11  L 42,11  L 42,12  L 43,12  L 43,18  L 42,18  L 42,19  L 41,19  L 41,20  L 39,20  L 39,21  L 38,21  L 38,22  L 37,22  L 37,24  L 36,24  L 36,25  L 35,25  L 35,27  L 34,27  L 34,28  L 33,28  L 33,29  L 32,29  L 32,30  L 31,30  L 31,31  L 30,31  L 30,33  L 29,33  L 29,34  L 28,34  L 28,35  L 27,35  L 27,37  L 26,37  L 26,39  L 25,39  L 25,41  L 24,41  L 24,42  L 23,42  L 23,44  L 22,44  L 22,47  L 21,47  L 21,49  L 20,49  L 20,50  L 19,50  L 19,52  L 18,52  L 18,54  L 17,54  L 17,55  L 16,55  L 16,57  L 15,57  L 15,58  L 14,58  L 14,59  L 13,59  L 13,60  L 12,60  L 12,61  L 11,61  L 11,62  L 9,62  L 9,63  L 8,63  L 8,64  L 6,64  L 6,67  L 7,67  L 7,69  L 10,69  L 10,70  L 13,70  L 13,69  L 14,69  L 14,68  L 16,68  L 16,67  L 17,67  L 17,66  L 18,66  L 18,65  L 19,65  L 19,64  L 20,64  L 20,62  L 21,62  L 21,61  L 22,61  L 22,59  L 24,59  L 24,57  L 25,57  L 25,55  L 26,55  L 26,53  L 27,53  L 27,51  L 28,51  L 28,49  L 29,49  L 29,47  L 30,47  L 30,45  L 31,45  L 31,43  L 32,43  L 32,41  L 33,41  L 33,40  L 34,40  L 34,38  L 35,38  L 35,35  L 36,35  L 36,33  L 37,33  L 37,31  L 39,31  L 39,27  L 46,27  L 46,26  L 56,26  L 56,27  L 59,27  L 59,26  L 60,26  L 60,27  L 73,27  L 73,41  L 72,41  L 72,42  L 64,42  L 64,43  Z  " style="fill:rgb(0, 0, 0); fill-opacity:1.000; stroke:none;" />
 <path d="  M 44,91  L 44,92  L 41,92  L 41,93  L 40,93  L 40,94  L 38,94  L 38,95  L 37,95  L 37,97  L 36,97  L 36,99  L 37,99  L 37,100  L 44,100  L 44,99  L 49,99  L 49,98  L 66,98  L 66,99  L 69,99  L 69,100  L 71,100  L 71,101  L 72,101  L 72,102  L 73,102  L 73,103  L 74,103  L 74,104  L 75,104  L 75,106  L 76,106  L 76,112  L 74,112  L 74,113  L 73,113  L 73,114  L 71,114  L 71,115  L 69,115  L 69,116  L 67,116  L 67,117  L 65,117  L 65,118  L 63,118  L 63,119  L 62,119  L 62,118  L 61,118  L 61,119  L 59,119  L 59,120  L 57,120  L 57,121  L 54,121  L 54,122  L 52,122  L 52,123  L 50,123  L 50,124  L 47,124  L 47,125  L 46,125  L 46,126  L 45,126  L 45,127  L 43,127  L 43,128  L 42,128  L 42,129  L 41,129  L 41,130  L 39,130  L 39,132  L 37,132  L 37,134  L 36,134  L 36,137  L 35,137  L 35,147  L 36,147  L 36,150  L 37,150  L 37,153  L 38,153  L 38,154  L 39,154  L 39,155  L 41,155  L 41,156  L 68,156  L 68,155  L 71,155  L 71,154  L 74,154  L 74,153  L 76,153  L 76,152  L 79,152  L 79,151  L 81,151  L 81,150  L 84,150  L 84,149  L 86,149  L 86,148  L 89,148  L 89,147  L 91,147  L 91,146  L 93,146  L 93,145  L 94,145  L 94,144  L 95,144  L 95,143  L 96,143  L 96,141  L 97,141  L 97,139  L 96,139  L 96,138  L 89,138  L 89,139  L 87,139  L 87,140  L 85,140  L 85,141  L 84,141  L 84,142  L 81,142  L 81,143  L 79,143  L 79,144  L 77,144  L 77,145  L 74,145  L 74,146  L 72,146  L 72,147  L 70,147  L 70,148  L 67,148  L 67,149  L 64,149  L 64,150  L 63,150  L 63,149  L 62,149  L 62,150  L 57,150  L 57,151  L 56,151  L 56,150  L 53,150  L 53,151  L 51,151  L 51,150  L 45,150  L 45,149  L 43,149  L 43,148  L 42,148  L 42,138  L 43,138  L 43,136  L 44,136  L 44,135  L 45,135  L 45,134  L 47,134  L 47,133  L 48,133  L 48,132  L 50,132  L 50,131  L 53,131  L 53,130  L 54,130  L 54,129  L 57,129  L 57,128  L 58,128  L 58,127  L 61,127  L 61,126  L 65,126  L 65,125  L 67,125  L 67,124  L 70,124  L 70,123  L 72,123  L 72,122  L 74,122  L 74,121  L 77,121  L 77,120  L 78,120  L 78,119  L 79,119  L 79,118  L 81,118  L 81,117  L 82,117  L 82,116  L 83,116  L 83,115  L 84,115  L 84,113  L 85,113  L 85,108  L 84,108  L 84,106  L 83,106  L 83,103  L 82,103  L 82,100  L 81,100  L 81,99  L 80,99  L 80,98  L 79,98  L 79,97  L 78,97  L 78,96  L 77,96  L 77,95  L 75,95  L 75,94  L 73,94  L 73,93  L 70,93  L 70,92  L 68,92  L 68,91  Z  " style="fill:rgb(0, 0, 0); fill-opacity:1.000; stroke:none;" />
 <path d="  M 103,5  L 102,5  L 102,4  L 101,4  L 101,3  L 98,3  L 98,4  L 97,4  L 97,5  L 96,5  L 96,6  L 95,6  L 95,19  L 96,19  L 96,20  L 95,20  L 95,23  L 96,23  L 96,24  L 95,24  L 95,27  L 96,27  L 96,28  L 95,28  L 95,29  L 96,29  L 96,30  L 95,30  L 95,31  L 96,31  L 96,32  L 95,32  L 95,33  L 96,33  L 96,34  L 95,34  L 95,35  L 96,35  L 96,36  L 95,36  L 95,37  L 96,37  L 96,40  L 95,40  L 95,41  L 96,41  L 96,44  L 95,44  L 95,45  L 96,45  L 96,48  L 95,48  L 95,49  L 96,49  L 96,50  L 95,50  L 95,51  L 96,51  L 96,52  L 95,52  L 95,53  L 96,53  L 96,54  L 95,54  L 95,85  L 94,85  L 94,86  L 95,86  L 95,89  L 99,89  L 99,88  L 101,88  L 101,86  L 102,86  L 102,85  L 101,85  L 101,84  L 102,84  L 102,81  L 103,81  Z  " style="fill:rgb(0, 0, 0); fill-opacity:1.000; stroke:none;" />
</svg>
