<?xml version="1.0" encoding="UTF-8" standalone="no"?>
<!DOCTYPE svg PUBLIC "-//W3C//DTD SVG 1.1//EN" 
  "http://www.w3.org/Graphics/SVG/1.1/DTD/svg11.dtd">
<svg width="106" height="147"
     xmlns="http://www.w3.org/2000/svg" version="1.1">
 <path d="  M 12,68  L 12,67  L 13,67  L 13,66  L 15,66  L 15,65  L 17,65  L 17,64  L 18,64  L 18,63  L 19,63  L 19,62  L 20,62  L 20,60  L 21,60  L 21,58  L 22,58  L 22,57  L 23,57  L 23,55  L 24,55  L 24,54  L 25,54  L 25,52  L 26,52  L 26,50  L 27,50  L 27,49  L 28,49  L 28,48  L 29,48  L 29,45  L 30,45  L 30,43  L 31,43  L 31,41  L 32,41  L 32,39  L 33,39  L 33,37  L 34,37  L 34,35  L 35,35  L 35,34  L 36,34  L 36,33  L 37,33  L 37,30  L 38,30  L 38,27  L 39,27  L 39,26  L 40,26  L 40,25  L 41,25  L 41,24  L 44,24  L 44,25  L 50,25  L 50,24  L 51,24  L 51,25  L 53,25  L 53,24  L 56,24  L 56,25  L 57,25  L 57,24  L 60,24  L 60,25  L 62,25  L 62,24  L 63,24  L 63,25  L 75,25  L 75,26  L 76,26  L 76,29  L 75,29  L 75,36  L 76,36  L 76,38  L 75,38  L 75,41  L 74,41  L 74,42  L 63,42  L 63,43  L 62,43  L 62,42  L 59,42  L 59,43  L 58,43  L 58,42  L 57,42  L 57,43  L 54,43  L 54,44  L 53,44  L 53,43  L 52,43  L 52,44  L 49,44  L 49,43  L 48,43  L 48,44  L 42,44  L 42,45  L 40,45  L 40,47  L 39,47  L 39,49  L 47,49  L 47,50  L 50,50  L 50,49  L 75,49  L 75,60  L 76,60  L 76,61  L 75,61  L 75,73  L 76,73  L 76,74  L 78,74  L 78,75  L 81,75  L 81,74  L 82,74  L 82,72  L 83,72  L 83,60  L 84,60  L 84,33  L 83,33  L 83,27  L 84,27  L 84,25  L 83,25  L 83,7  L 84,7  L 84,4  L 83,4  L 83,2  L 82,2  L 82,1  L 80,1  L 80,0  L 77,0  L 77,2  L 76,2  L 76,16  L 75,16  L 75,17  L 73,17  L 73,18  L 57,18  L 57,17  L 56,17  L 56,18  L 53,18  L 53,17  L 52,17  L 52,18  L 51,18  L 51,17  L 50,17  L 50,18  L 49,18  L 49,17  L 48,17  L 48,18  L 47,18  L 47,17  L 46,17  L 46,18  L 45,18  L 45,17  L 44,17  L 44,15  L 45,15  L 45,13  L 46,13  L 46,12  L 47,12  L 47,11  L 48,11  L 48,10  L 49,10  L 49,5  L 48,5  L 48,4  L 47,4  L 47,2  L 45,2  L 45,1  L 38,1  L 38,2  L 37,2  L 37,1  L 36,1  L 36,2  L 29,2  L 29,3  L 19,3  L 19,4  L 16,4  L 16,3  L 15,3  L 15,4  L 8,4  L 8,5  L 2,5  L 2,7  L 0,7  L 0,9  L 1,9  L 1,10  L 2,10  L 2,11  L 3,11  L 3,12  L 9,12  L 9,11  L 16,11  L 16,10  L 17,10  L 17,11  L 18,11  L 18,10  L 26,10  L 26,9  L 27,9  L 27,10  L 28,10  L 28,9  L 39,9  L 39,8  L 42,8  L 42,9  L 43,9  L 43,11  L 42,11  L 42,12  L 41,12  L 41,14  L 40,14  L 40,15  L 39,15  L 39,17  L 38,17  L 38,18  L 37,18  L 37,20  L 36,20  L 36,22  L 35,22  L 35,23  L 34,23  L 34,24  L 33,24  L 33,25  L 32,25  L 32,27  L 31,27  L 31,28  L 30,28  L 30,30  L 29,30  L 29,33  L 28,33  L 28,35  L 27,35  L 27,36  L 26,36  L 26,38  L 25,38  L 25,40  L 24,40  L 24,42  L 23,42  L 23,43  L 22,43  L 22,45  L 21,45  L 21,47  L 20,47  L 20,48  L 19,48  L 19,49  L 18,49  L 18,51  L 17,51  L 17,52  L 16,52  L 16,54  L 15,54  L 15,55  L 14,55  L 14,56  L 13,56  L 13,58  L 12,58  L 12,59  L 11,59  L 11,60  L 10,60  L 10,62  L 9,62  L 9,63  L 8,63  L 8,64  L 7,64  L 7,66  L 8,66  L 8,67  L 9,67  L 9,68  Z  M 43,17  L 44,17  L 44,19  L 43,19  Z  " style="fill:rgb(0, 0, 0); fill-opacity:1.000; stroke:none;" />
 <path d="  M 55,96  L 55,97  L 54,97  L 54,99  L 53,99  L 53,100  L 52,100  L 52,101  L 51,101  L 51,102  L 50,102  L 50,103  L 49,103  L 49,105  L 48,105  L 48,106  L 47,106  L 47,107  L 46,107  L 46,109  L 45,109  L 45,110  L 44,110  L 44,111  L 43,111  L 43,113  L 42,113  L 42,114  L 41,114  L 41,115  L 40,115  L 40,117  L 38,117  L 38,119  L 37,119  L 37,120  L 36,120  L 36,122  L 35,122  L 35,123  L 34,123  L 34,124  L 33,124  L 33,126  L 32,126  L 32,128  L 31,128  L 31,129  L 30,129  L 30,130  L 29,130  L 29,132  L 28,132  L 28,133  L 26,133  L 26,135  L 25,135  L 25,136  L 24,136  L 24,137  L 23,137  L 23,138  L 22,138  L 22,139  L 21,139  L 21,140  L 20,140  L 20,141  L 19,141  L 19,142  L 18,142  L 18,145  L 19,145  L 19,146  L 20,146  L 20,147  L 24,147  L 24,146  L 25,146  L 25,145  L 26,145  L 26,144  L 27,144  L 27,143  L 28,143  L 28,142  L 29,142  L 29,141  L 30,141  L 30,140  L 31,140  L 31,139  L 32,139  L 32,138  L 33,138  L 33,137  L 34,137  L 34,135  L 35,135  L 35,134  L 36,134  L 36,133  L 37,133  L 37,131  L 38,131  L 38,130  L 39,130  L 39,129  L 40,129  L 40,127  L 41,127  L 41,126  L 42,126  L 42,124  L 43,124  L 43,123  L 44,123  L 44,122  L 45,122  L 45,120  L 46,120  L 46,118  L 47,118  L 47,116  L 48,116  L 48,115  L 51,115  L 51,116  L 52,116  L 52,117  L 53,117  L 53,118  L 54,118  L 54,119  L 56,119  L 56,120  L 57,120  L 57,121  L 58,121  L 58,122  L 60,122  L 60,123  L 61,123  L 61,124  L 63,124  L 63,125  L 65,125  L 65,127  L 67,127  L 67,128  L 68,128  L 68,129  L 70,129  L 70,130  L 71,130  L 71,131  L 73,131  L 73,132  L 74,132  L 74,133  L 76,133  L 76,134  L 78,134  L 78,135  L 80,135  L 80,136  L 82,136  L 82,137  L 84,137  L 84,138  L 86,138  L 86,139  L 89,139  L 89,140  L 92,140  L 92,141  L 97,141  L 97,140  L 100,140  L 100,136  L 99,136  L 99,135  L 95,135  L 95,134  L 92,134  L 92,133  L 91,133  L 91,132  L 88,132  L 88,131  L 86,131  L 86,130  L 84,130  L 84,129  L 83,129  L 83,128  L 80,128  L 80,127  L 79,127  L 79,126  L 77,126  L 77,125  L 76,125  L 76,124  L 74,124  L 74,123  L 72,123  L 72,121  L 69,121  L 69,120  L 68,120  L 68,119  L 66,119  L 66,118  L 65,118  L 65,117  L 63,117  L 63,116  L 62,116  L 62,115  L 61,115  L 61,114  L 60,114  L 60,113  L 59,113  L 59,112  L 58,112  L 58,111  L 57,111  L 57,110  L 56,110  L 56,107  L 55,107  L 55,106  L 56,106  L 56,105  L 57,105  L 57,104  L 59,104  L 59,103  L 60,103  L 60,102  L 61,102  L 61,101  L 62,101  L 62,100  L 63,100  L 63,99  L 65,99  L 65,98  L 66,98  L 66,97  L 67,97  L 67,96  L 68,96  L 68,91  L 67,91  L 67,90  L 66,90  L 66,89  L 62,89  L 62,90  L 61,90  L 61,91  L 59,91  L 59,93  L 58,93  L 58,94  L 57,94  L 57,96  Z  " style="fill:rgb(0, 0, 0); fill-opacity:1.000; stroke:none;" />
 <path d="  M 97,6  L 97,7  L 96,7  L 96,8  L 97,8  L 97,31  L 98,31  L 98,32  L 97,32  L 97,34  L 98,34  L 98,37  L 97,37  L 97,38  L 98,38  L 98,56  L 99,56  L 99,59  L 98,59  L 98,60  L 99,60  L 99,63  L 98,63  L 98,64  L 99,64  L 99,67  L 98,67  L 98,68  L 99,68  L 99,71  L 98,71  L 98,72  L 99,72  L 99,75  L 98,75  L 98,76  L 99,76  L 99,79  L 98,79  L 98,84  L 99,84  L 99,86  L 100,86  L 100,87  L 101,87  L 101,86  L 104,86  L 104,85  L 105,85  L 105,84  L 106,84  L 106,39  L 105,39  L 105,38  L 106,38  L 106,35  L 105,35  L 105,23  L 104,23  L 104,22  L 105,22  L 105,21  L 104,21  L 104,8  L 103,8  L 103,6  L 102,6  L 102,5  L 99,5  L 99,6  Z  " style="fill:rgb(0, 0, 0); fill-opacity:1.000; stroke:none;" />
</svg>
