<?xml version="1.0" encoding="UTF-8" standalone="no"?>
<!DOCTYPE svg PUBLIC "-//W3C//DTD SVG 1.1//EN" 
  "http://www.w3.org/Graphics/SVG/1.1/DTD/svg11.dtd">
<svg width="108" height="155"
     xmlns="http://www.w3.org/2000/svg" version="1.1">
 <path d="  M 23,92  L 23,91  L 24,91  L 24,92  L 27,92  L 27,91  L 38,91  L 38,90  L 56,90  L 56,89  L 57,89  L 57,90  L 58,90  L 58,89  L 61,89  L 61,90  L 62,90  L 62,89  L 77,89  L 77,88  L 78,88  L 78,89  L 79,89  L 79,88  L 82,88  L 82,89  L 83,89  L 83,88  L 105,88  L 105,87  L 107,87  L 107,86  L 108,86  L 108,81  L 107,81  L 107,80  L 81,80  L 81,81  L 79,81  L 79,80  L 77,80  L 77,81  L 75,81  L 75,80  L 73,80  L 73,81  L 54,81  L 54,82  L 51,82  L 51,81  L 50,81  L 50,82  L 47,82  L 47,79  L 49,79  L 49,71  L 48,71  L 48,59  L 47,59  L 47,45  L 46,45  L 46,43  L 47,43  L 47,42  L 46,42  L 46,41  L 47,41  L 47,40  L 46,40  L 46,39  L 47,39  L 47,36  L 46,36  L 46,35  L 47,35  L 47,30  L 46,30  L 46,29  L 41,29  L 41,31  L 40,31  L 40,34  L 39,34  L 39,41  L 38,41  L 38,51  L 39,51  L 39,52  L 38,52  L 38,55  L 39,55  L 39,57  L 38,57  L 38,58  L 39,58  L 39,65  L 40,65  L 40,72  L 41,72  L 41,76  L 40,76  L 40,77  L 41,77  L 41,79  L 43,79  L 43,80  L 45,80  L 45,81  L 46,81  L 46,82  L 40,82  L 40,83  L 38,83  L 38,82  L 37,82  L 37,83  L 28,83  L 28,84  L 27,84  L 27,83  L 24,83  L 24,84  L 23,84  L 23,83  L 20,83  L 20,84  L 19,84  L 19,83  L 18,83  L 18,84  L 4,84  L 4,85  L 2,85  L 2,86  L 1,86  L 1,87  L 0,87  L 0,88  L 1,88  L 1,89  L 0,89  L 0,90  L 1,90  L 1,92  Z  " style="fill:rgb(0, 0, 0); fill-opacity:1.000; stroke:none;" />
 <path d="  M 31,1  L 31,2  L 27,2  L 27,3  L 23,3  L 23,4  L 22,4  L 22,5  L 19,5  L 19,7  L 18,7  L 18,11  L 17,11  L 17,13  L 18,13  L 18,14  L 21,14  L 21,13  L 22,13  L 22,14  L 23,14  L 23,13  L 24,13  L 24,12  L 26,12  L 26,11  L 28,11  L 28,10  L 32,10  L 32,9  L 39,9  L 39,8  L 40,8  L 40,9  L 41,9  L 41,8  L 56,8  L 56,9  L 62,9  L 62,10  L 65,10  L 65,11  L 67,11  L 67,12  L 68,12  L 68,13  L 69,13  L 69,15  L 70,15  L 70,18  L 71,18  L 71,19  L 70,19  L 70,27  L 69,27  L 69,39  L 68,39  L 68,40  L 69,40  L 69,43  L 68,43  L 68,44  L 69,44  L 69,47  L 70,47  L 70,48  L 71,48  L 71,49  L 72,49  L 72,48  L 75,48  L 75,46  L 76,46  L 76,38  L 77,38  L 77,37  L 76,37  L 76,34  L 77,34  L 77,33  L 76,33  L 76,30  L 77,30  L 77,29  L 76,29  L 76,26  L 77,26  L 77,25  L 76,25  L 76,23  L 77,23  L 77,21  L 76,21  L 76,20  L 77,20  L 77,13  L 76,13  L 76,11  L 75,11  L 75,9  L 74,9  L 74,8  L 73,8  L 73,7  L 72,7  L 72,6  L 71,6  L 71,5  L 69,5  L 69,4  L 66,4  L 66,3  L 64,3  L 64,2  L 61,2  L 61,1  Z  " style="fill:rgb(0, 0, 0); fill-opacity:1.000; stroke:none;" />
 <path d="  M 95,148  L 95,147  L 96,147  L 96,148  L 97,148  L 97,147  L 100,147  L 100,146  L 105,146  L 105,145  L 106,145  L 106,144  L 107,144  L 107,140  L 106,140  L 106,139  L 105,139  L 105,138  L 102,138  L 102,137  L 101,137  L 101,138  L 100,138  L 100,139  L 98,139  L 98,140  L 97,140  L 97,141  L 90,141  L 90,142  L 87,142  L 87,141  L 86,141  L 86,142  L 78,142  L 78,143  L 69,143  L 69,144  L 63,144  L 63,145  L 56,145  L 56,146  L 55,146  L 55,145  L 54,145  L 54,146  L 49,146  L 49,147  L 32,147  L 32,146  L 31,146  L 31,136  L 32,136  L 32,135  L 31,135  L 31,133  L 32,133  L 32,131  L 31,131  L 31,107  L 32,107  L 32,104  L 31,104  L 31,103  L 26,103  L 26,104  L 25,104  L 25,105  L 24,105  L 24,109  L 23,109  L 23,111  L 24,111  L 24,134  L 25,134  L 25,135  L 24,135  L 24,149  L 25,149  L 25,152  L 26,152  L 26,154  L 28,154  L 28,155  L 47,155  L 47,154  L 56,154  L 56,153  L 57,153  L 57,154  L 58,154  L 58,153  L 62,153  L 62,152  L 67,152  L 67,151  L 73,151  L 73,150  L 82,150  L 82,149  L 90,149  L 90,148  Z  " style="fill:rgb(0, 0, 0); fill-opacity:1.000; stroke:none;" />
</svg>
