<?xml version="1.0" encoding="UTF-8" standalone="no"?>
<!DOCTYPE svg PUBLIC "-//W3C//DTD SVG 1.1//EN" 
  "http://www.w3.org/Graphics/SVG/1.1/DTD/svg11.dtd">
<svg width="104" height="146"
     xmlns="http://www.w3.org/2000/svg" version="1.1">
 <path d="  M 36,56  L 35,56  L 35,57  L 36,57  L 36,62  L 37,62  L 37,63  L 38,63  L 38,65  L 37,65  L 37,66  L 29,66  L 29,67  L 17,67  L 17,68  L 16,68  L 16,67  L 15,67  L 15,68  L 3,68  L 3,69  L 2,69  L 2,70  L 1,70  L 1,73  L 2,73  L 2,74  L 4,74  L 4,75  L 5,75  L 5,76  L 12,76  L 12,75  L 19,75  L 19,74  L 29,74  L 29,73  L 30,73  L 30,74  L 31,74  L 31,73  L 32,73  L 32,74  L 33,74  L 33,73  L 34,73  L 34,74  L 35,74  L 35,73  L 38,73  L 38,74  L 39,74  L 39,73  L 42,73  L 42,74  L 43,74  L 43,73  L 44,73  L 44,74  L 52,74  L 52,73  L 54,73  L 54,74  L 55,74  L 55,73  L 58,73  L 58,74  L 59,74  L 59,73  L 62,73  L 62,74  L 63,74  L 63,73  L 73,73  L 73,72  L 79,72  L 79,73  L 80,73  L 80,72  L 94,72  L 94,71  L 95,71  L 95,70  L 96,70  L 96,64  L 77,64  L 77,65  L 76,65  L 76,64  L 74,64  L 74,65  L 72,65  L 72,64  L 70,64  L 70,65  L 67,65  L 67,64  L 66,64  L 66,65  L 44,65  L 44,64  L 43,64  L 43,62  L 44,62  L 44,60  L 43,60  L 43,58  L 44,58  L 44,57  L 43,57  L 43,54  L 44,54  L 44,53  L 43,53  L 43,46  L 44,46  L 44,45  L 43,45  L 43,44  L 44,44  L 44,22  L 43,22  L 43,21  L 42,21  L 42,22  L 39,22  L 39,25  L 38,25  L 38,30  L 37,30  L 37,36  L 36,36  Z  " style="fill:rgb(0, 0, 0); fill-opacity:1.000; stroke:none;" />
 <path d="  M 6,91  L 6,92  L 5,92  L 5,100  L 6,100  L 6,101  L 8,101  L 8,100  L 11,100  L 11,98  L 12,98  L 12,97  L 14,97  L 14,96  L 18,96  L 18,95  L 30,95  L 30,96  L 33,96  L 33,97  L 34,97  L 34,98  L 36,98  L 36,103  L 34,103  L 34,104  L 33,104  L 33,105  L 31,105  L 31,106  L 29,106  L 29,107  L 26,107  L 26,108  L 24,108  L 24,109  L 21,109  L 21,110  L 19,110  L 19,111  L 15,111  L 15,112  L 14,112  L 14,113  L 13,113  L 13,112  L 12,112  L 12,113  L 8,113  L 8,114  L 7,114  L 7,115  L 6,115  L 6,116  L 4,116  L 4,117  L 3,117  L 3,118  L 2,118  L 2,120  L 1,120  L 1,132  L 2,132  L 2,135  L 3,135  L 3,136  L 4,136  L 4,137  L 5,137  L 5,138  L 4,138  L 4,139  L 6,139  L 6,140  L 10,140  L 10,141  L 14,141  L 14,142  L 25,142  L 25,141  L 29,141  L 29,140  L 32,140  L 32,139  L 36,139  L 36,138  L 38,138  L 38,137  L 41,137  L 41,136  L 44,136  L 44,135  L 47,135  L 47,134  L 50,134  L 50,133  L 53,133  L 53,132  L 54,132  L 54,131  L 55,131  L 55,130  L 58,130  L 58,131  L 62,131  L 62,130  L 63,130  L 63,128  L 64,128  L 64,125  L 65,125  L 65,121  L 66,121  L 66,118  L 67,118  L 67,115  L 68,115  L 68,114  L 69,114  L 69,110  L 70,110  L 70,109  L 71,109  L 71,108  L 73,108  L 73,109  L 74,109  L 74,111  L 75,111  L 75,112  L 76,112  L 76,113  L 77,113  L 77,114  L 78,114  L 78,115  L 79,115  L 79,116  L 80,116  L 80,117  L 82,117  L 82,118  L 84,118  L 84,119  L 85,119  L 85,121  L 87,121  L 87,122  L 88,122  L 88,123  L 90,123  L 90,125  L 91,125  L 91,126  L 92,126  L 92,127  L 94,127  L 94,129  L 96,129  L 96,130  L 97,130  L 97,132  L 98,132  L 98,144  L 99,144  L 99,146  L 104,146  L 104,130  L 103,130  L 103,129  L 102,129  L 102,126  L 101,126  L 101,125  L 100,125  L 100,123  L 98,123  L 98,122  L 97,122  L 97,121  L 96,121  L 96,120  L 95,120  L 95,119  L 94,119  L 94,118  L 92,118  L 92,117  L 91,117  L 91,116  L 90,116  L 90,115  L 88,115  L 88,114  L 87,114  L 87,113  L 86,113  L 86,112  L 85,112  L 85,111  L 83,111  L 83,109  L 81,109  L 81,107  L 80,107  L 80,106  L 79,106  L 79,105  L 78,105  L 78,103  L 77,103  L 77,101  L 76,101  L 76,98  L 77,98  L 77,94  L 78,94  L 78,93  L 77,93  L 77,92  L 78,92  L 78,87  L 79,87  L 79,83  L 78,83  L 78,82  L 73,82  L 73,84  L 72,84  L 72,89  L 71,89  L 71,93  L 70,93  L 70,95  L 69,95  L 69,98  L 68,98  L 68,100  L 67,100  L 67,101  L 66,101  L 66,103  L 65,103  L 65,105  L 64,105  L 64,106  L 63,106  L 63,107  L 62,107  L 62,110  L 61,110  L 61,115  L 60,115  L 60,119  L 59,119  L 59,122  L 58,122  L 58,124  L 57,124  L 57,125  L 55,125  L 55,126  L 51,126  L 51,127  L 48,127  L 48,128  L 46,128  L 46,129  L 42,129  L 42,130  L 37,130  L 37,131  L 35,131  L 35,132  L 33,132  L 33,133  L 28,133  L 28,134  L 24,134  L 24,135  L 13,135  L 13,134  L 10,134  L 10,133  L 9,133  L 9,131  L 8,131  L 8,125  L 9,125  L 9,123  L 10,123  L 10,122  L 12,122  L 12,121  L 13,121  L 13,120  L 14,120  L 14,119  L 16,119  L 16,118  L 20,118  L 20,117  L 23,117  L 23,116  L 25,116  L 25,115  L 28,115  L 28,114  L 30,114  L 30,113  L 31,113  L 31,112  L 34,112  L 34,111  L 36,111  L 36,110  L 38,110  L 38,109  L 39,109  L 39,108  L 40,108  L 40,107  L 41,107  L 41,106  L 42,106  L 42,104  L 43,104  L 43,99  L 42,99  L 42,97  L 41,97  L 41,95  L 40,95  L 40,94  L 39,94  L 39,92  L 38,92  L 38,91  L 36,91  L 36,90  L 35,90  L 35,89  L 29,89  L 29,88  L 28,88  L 28,89  L 27,89  L 27,88  L 26,88  L 26,89  L 25,89  L 25,88  L 24,88  L 24,89  L 14,89  L 14,90  L 8,90  L 8,91  Z  " style="fill:rgb(0, 0, 0); fill-opacity:1.000; stroke:none;" />
 <path d="  M 72,21  L 73,21  L 73,18  L 72,18  L 72,17  L 73,17  L 73,6  L 72,6  L 72,5  L 71,5  L 71,3  L 69,3  L 69,2  L 67,2  L 67,1  L 51,1  L 51,2  L 48,2  L 48,1  L 47,1  L 47,2  L 43,2  L 43,3  L 42,3  L 42,2  L 39,2  L 39,3  L 38,3  L 38,2  L 37,2  L 37,3  L 27,3  L 27,4  L 22,4  L 22,5  L 18,5  L 18,6  L 16,6  L 16,7  L 14,7  L 14,12  L 17,12  L 17,13  L 19,13  L 19,12  L 24,12  L 24,11  L 32,11  L 32,10  L 48,10  L 48,9  L 49,9  L 49,10  L 50,10  L 50,9  L 51,9  L 51,10  L 52,10  L 52,9  L 53,9  L 53,10  L 54,10  L 54,9  L 63,9  L 63,10  L 65,10  L 65,12  L 66,12  L 66,19  L 65,19  L 65,22  L 66,22  L 66,23  L 65,23  L 65,32  L 64,32  L 64,33  L 65,33  L 65,35  L 64,35  L 64,42  L 65,42  L 65,46  L 66,46  L 66,48  L 68,48  L 68,49  L 69,49  L 69,48  L 70,48  L 70,47  L 71,47  L 71,42  L 72,42  L 72,41  L 71,41  L 71,39  L 72,39  Z  " style="fill:rgb(0, 0, 0); fill-opacity:1.000; stroke:none;" />
</svg>
