<?xml version="1.0" encoding="UTF-8" standalone="no"?>
<!DOCTYPE svg PUBLIC "-//W3C//DTD SVG 1.1//EN" 
  "http://www.w3.org/Graphics/SVG/1.1/DTD/svg11.dtd">
<svg width="102" height="157"
     xmlns="http://www.w3.org/2000/svg" version="1.1">
 <path d="  M 11,79  L 11,80  L 10,80  L 10,79  L 8,79  L 8,80  L 1,80  L 1,81  L 0,81  L 0,85  L 2,85  L 2,86  L 4,86  L 4,87  L 14,87  L 14,86  L 15,86  L 15,87  L 16,87  L 16,86  L 27,86  L 27,85  L 28,85  L 28,86  L 29,86  L 29,85  L 35,85  L 35,84  L 37,84  L 37,85  L 38,85  L 38,84  L 44,84  L 44,83  L 45,83  L 45,84  L 46,84  L 46,83  L 58,83  L 58,82  L 60,82  L 60,83  L 61,83  L 61,82  L 77,82  L 77,81  L 80,81  L 80,82  L 81,82  L 81,81  L 84,81  L 84,82  L 85,82  L 85,81  L 88,81  L 88,82  L 89,82  L 89,81  L 92,81  L 92,82  L 93,82  L 93,81  L 101,81  L 101,80  L 102,80  L 102,73  L 101,73  L 101,72  L 99,72  L 99,73  L 93,73  L 93,74  L 90,74  L 90,73  L 89,73  L 89,74  L 86,74  L 86,73  L 85,73  L 85,74  L 82,74  L 82,73  L 81,73  L 81,74  L 78,74  L 78,73  L 77,73  L 77,74  L 71,74  L 71,75  L 70,75  L 70,74  L 69,74  L 69,75  L 49,75  L 49,73  L 48,73  L 48,65  L 47,65  L 47,63  L 48,63  L 48,61  L 47,61  L 47,51  L 46,51  L 46,34  L 45,34  L 45,33  L 43,33  L 43,34  L 42,34  L 42,35  L 41,35  L 41,36  L 40,36  L 40,37  L 39,37  L 39,45  L 38,45  L 38,57  L 39,57  L 39,66  L 40,66  L 40,67  L 39,67  L 39,68  L 40,68  L 40,75  L 41,75  L 41,76  L 40,76  L 40,77  L 32,77  L 32,78  L 30,78  L 30,77  L 29,77  L 29,78  L 26,78  L 26,77  L 25,77  L 25,78  L 24,78  L 24,79  Z  " style="fill:rgb(0, 0, 0); fill-opacity:1.000; stroke:none;" />
 <path d="  M 69,27  L 68,27  L 68,35  L 67,35  L 67,36  L 68,36  L 68,37  L 67,37  L 67,54  L 68,54  L 68,55  L 69,55  L 69,57  L 72,57  L 72,56  L 73,56  L 73,55  L 74,55  L 74,46  L 75,46  L 75,30  L 76,30  L 76,29  L 75,29  L 75,27  L 76,27  L 76,25  L 75,25  L 75,23  L 76,23  L 76,8  L 75,8  L 75,6  L 74,6  L 74,5  L 73,5  L 73,4  L 72,4  L 72,3  L 69,3  L 69,2  L 64,2  L 64,1  L 53,1  L 53,2  L 43,2  L 43,3  L 37,3  L 37,4  L 33,4  L 33,5  L 26,5  L 26,6  L 25,6  L 25,7  L 22,7  L 22,8  L 21,8  L 21,9  L 20,9  L 20,10  L 19,10  L 19,11  L 18,11  L 18,13  L 17,13  L 17,14  L 18,14  L 18,16  L 19,16  L 19,17  L 23,17  L 23,16  L 25,16  L 25,15  L 27,15  L 27,14  L 30,14  L 30,13  L 32,13  L 32,12  L 35,12  L 35,11  L 41,11  L 41,10  L 47,10  L 47,9  L 67,9  L 67,11  L 68,11  L 68,13  L 69,13  Z  " style="fill:rgb(0, 0, 0); fill-opacity:1.000; stroke:none;" />
 <path d="  M 62,147  L 61,147  L 61,148  L 59,148  L 59,149  L 56,149  L 56,150  L 43,150  L 43,149  L 37,149  L 37,148  L 34,148  L 34,147  L 32,147  L 32,146  L 31,146  L 31,145  L 30,145  L 30,142  L 29,142  L 29,137  L 30,137  L 30,134  L 31,134  L 31,131  L 32,131  L 32,129  L 33,129  L 33,128  L 34,128  L 34,125  L 35,125  L 35,124  L 36,124  L 36,122  L 37,122  L 37,121  L 38,121  L 38,120  L 39,120  L 39,118  L 40,118  L 40,117  L 41,117  L 41,116  L 42,116  L 42,115  L 44,115  L 44,114  L 46,114  L 46,113  L 49,113  L 49,112  L 50,112  L 50,113  L 56,113  L 56,114  L 61,114  L 61,115  L 64,115  L 64,116  L 66,116  L 66,117  L 68,117  L 68,118  L 69,118  L 69,119  L 71,119  L 71,120  L 72,120  L 72,122  L 73,122  L 73,131  L 72,131  L 72,135  L 71,135  L 71,137  L 70,137  L 70,138  L 69,138  L 69,139  L 68,139  L 68,140  L 67,140  L 67,142  L 66,142  L 66,143  L 65,143  L 65,144  L 64,144  L 64,145  L 63,145  L 63,146  L 62,146  Z  M 79,119  L 78,119  L 78,118  L 77,118  L 77,117  L 76,117  L 76,116  L 75,116  L 75,115  L 74,115  L 74,114  L 73,114  L 73,112  L 72,112  L 72,111  L 70,111  L 70,110  L 68,110  L 68,109  L 65,109  L 65,108  L 62,108  L 62,107  L 60,107  L 60,106  L 58,106  L 58,105  L 55,105  L 55,104  L 53,104  L 53,103  L 52,103  L 52,102  L 47,102  L 47,103  L 43,103  L 43,104  L 42,104  L 42,105  L 41,105  L 41,106  L 40,106  L 40,107  L 39,107  L 39,108  L 38,108  L 38,109  L 37,109  L 37,110  L 36,110  L 36,111  L 35,111  L 35,113  L 34,113  L 34,114  L 33,114  L 33,115  L 32,115  L 32,117  L 31,117  L 31,118  L 30,118  L 30,119  L 29,119  L 29,121  L 28,121  L 28,123  L 27,123  L 27,125  L 26,125  L 26,127  L 25,127  L 25,129  L 24,129  L 24,132  L 23,132  L 23,135  L 22,135  L 22,144  L 23,144  L 23,147  L 24,147  L 24,149  L 25,149  L 25,150  L 26,150  L 26,151  L 27,151  L 27,152  L 28,152  L 28,153  L 30,153  L 30,154  L 32,154  L 32,155  L 33,155  L 33,156  L 36,156  L 36,157  L 61,157  L 61,156  L 62,156  L 62,155  L 64,155  L 64,154  L 65,154  L 65,153  L 66,153  L 66,152  L 68,152  L 68,151  L 69,151  L 69,150  L 70,150  L 70,149  L 71,149  L 71,148  L 72,148  L 72,147  L 73,147  L 73,145  L 74,145  L 74,144  L 75,144  L 75,142  L 76,142  L 76,140  L 77,140  L 77,139  L 78,139  L 78,137  L 79,137  L 79,134  L 80,134  L 80,121  L 79,121  Z  " style="fill:rgb(0, 0, 0); fill-opacity:1.000; stroke:none;" />
</svg>
