<?xml version="1.0" encoding="UTF-8" standalone="no"?>
<!DOCTYPE svg PUBLIC "-//W3C//DTD SVG 1.1//EN" 
  "http://www.w3.org/Graphics/SVG/1.1/DTD/svg11.dtd">
<svg width="109" height="141"
     xmlns="http://www.w3.org/2000/svg" version="1.1">
 <path d="  M 6,75  L 12,75  L 12,74  L 17,74  L 17,73  L 28,73  L 28,72  L 53,72  L 53,73  L 54,73  L 54,72  L 57,72  L 57,73  L 58,73  L 58,72  L 60,72  L 60,73  L 62,73  L 62,72  L 63,72  L 63,73  L 66,73  L 66,72  L 67,72  L 67,73  L 68,73  L 68,72  L 69,72  L 69,68  L 67,68  L 67,67  L 65,67  L 65,66  L 62,66  L 62,65  L 61,65  L 61,66  L 58,66  L 58,65  L 57,65  L 57,66  L 54,66  L 54,65  L 53,65  L 53,66  L 52,66  L 52,65  L 51,65  L 51,66  L 50,66  L 50,65  L 49,65  L 49,66  L 48,66  L 48,65  L 47,65  L 47,66  L 46,66  L 46,65  L 45,65  L 45,66  L 44,66  L 44,65  L 43,65  L 43,66  L 42,66  L 42,65  L 41,65  L 41,66  L 40,66  L 40,65  L 29,65  L 29,55  L 28,55  L 28,29  L 27,29  L 27,28  L 24,28  L 24,29  L 23,29  L 23,31  L 22,31  L 22,33  L 21,33  L 21,61  L 22,61  L 22,62  L 23,62  L 23,63  L 24,63  L 24,64  L 23,64  L 23,65  L 20,65  L 20,66  L 18,66  L 18,65  L 17,65  L 17,66  L 15,66  L 15,67  L 11,67  L 11,68  L 8,68  L 8,69  L 5,69  L 5,70  L 1,70  L 1,71  L 0,71  L 0,74  L 1,74  L 1,75  L 3,75  L 3,76  L 6,76  Z  " style="fill:rgb(0, 0, 0); fill-opacity:1.000; stroke:none;" />
 <path d="  M 46,37  L 45,37  L 45,41  L 44,41  L 44,50  L 47,50  L 47,49  L 50,49  L 50,47  L 51,47  L 51,46  L 52,46  L 52,45  L 51,45  L 51,43  L 52,43  L 52,38  L 53,38  L 53,34  L 54,34  L 54,33  L 53,33  L 53,32  L 54,32  L 54,26  L 55,26  L 55,22  L 56,22  L 56,17  L 57,17  L 57,13  L 58,13  L 58,9  L 57,9  L 57,7  L 56,7  L 56,5  L 55,5  L 55,4  L 54,4  L 54,3  L 53,3  L 53,2  L 51,2  L 51,1  L 37,1  L 37,2  L 35,2  L 35,1  L 33,1  L 33,2  L 23,2  L 23,3  L 15,3  L 15,4  L 11,4  L 11,5  L 10,5  L 10,6  L 9,6  L 9,7  L 8,7  L 8,12  L 11,12  L 11,13  L 12,13  L 12,12  L 14,12  L 14,11  L 17,11  L 17,10  L 20,10  L 20,9  L 30,9  L 30,8  L 31,8  L 31,9  L 34,9  L 34,8  L 35,8  L 35,9  L 36,9  L 36,8  L 43,8  L 43,9  L 45,9  L 45,8  L 50,8  L 50,9  L 51,9  L 51,13  L 50,13  L 50,17  L 49,17  L 49,23  L 48,23  L 48,27  L 47,27  L 47,32  L 46,32  Z  " style="fill:rgb(0, 0, 0); fill-opacity:1.000; stroke:none;" />
 <path d="  M 59,116  L 60,116  L 60,115  L 61,115  L 61,116  L 62,116  L 62,115  L 63,115  L 63,116  L 64,116  L 64,115  L 69,115  L 69,116  L 70,116  L 70,115  L 73,115  L 73,116  L 77,116  L 77,117  L 76,117  L 76,118  L 77,118  L 77,119  L 76,119  L 76,124  L 75,124  L 75,127  L 74,127  L 74,129  L 73,129  L 73,130  L 71,130  L 71,131  L 68,131  L 68,132  L 65,132  L 65,133  L 61,133  L 61,134  L 58,134  L 58,133  L 57,133  L 57,134  L 49,134  L 49,135  L 48,135  L 48,134  L 45,134  L 45,135  L 44,135  L 44,134  L 42,134  L 42,133  L 41,133  L 41,127  L 40,127  L 40,126  L 41,126  L 41,123  L 40,123  L 40,117  L 41,117  L 41,116  L 44,116  L 44,115  L 45,115  L 45,116  L 48,116  L 48,115  L 49,115  L 49,116  L 50,116  L 50,115  L 51,115  L 51,116  L 52,116  L 52,115  L 53,115  L 53,116  L 54,116  L 54,115  L 55,115  L 55,116  L 56,116  L 56,115  L 57,115  L 57,116  L 58,116  L 58,115  L 59,115  Z  M 77,134  L 77,133  L 78,133  L 78,132  L 79,132  L 79,130  L 80,130  L 80,129  L 81,129  L 81,125  L 82,125  L 82,121  L 83,121  L 83,118  L 84,118  L 84,117  L 83,117  L 83,116  L 84,116  L 84,112  L 85,112  L 85,107  L 84,107  L 84,106  L 85,106  L 85,105  L 84,105  L 84,104  L 85,104  L 85,103  L 84,103  L 84,91  L 83,91  L 83,90  L 79,90  L 79,91  L 78,91  L 78,109  L 45,109  L 45,110  L 42,110  L 42,109  L 40,109  L 40,108  L 39,108  L 39,107  L 40,107  L 40,98  L 41,98  L 41,97  L 40,97  L 40,96  L 41,96  L 41,95  L 40,95  L 40,94  L 41,94  L 41,93  L 40,93  L 40,92  L 41,92  L 41,91  L 40,91  L 40,90  L 41,90  L 41,83  L 40,83  L 40,82  L 35,82  L 35,84  L 34,84  L 34,85  L 33,85  L 33,99  L 32,99  L 32,120  L 33,120  L 33,121  L 32,121  L 32,122  L 33,122  L 33,134  L 34,134  L 34,135  L 33,135  L 33,136  L 34,136  L 34,137  L 35,137  L 35,138  L 36,138  L 36,140  L 40,140  L 40,141  L 58,141  L 58,140  L 65,140  L 65,139  L 68,139  L 68,138  L 70,138  L 70,137  L 73,137  L 73,136  L 74,136  L 74,135  L 75,135  L 75,134  Z  " style="fill:rgb(0, 0, 0); fill-opacity:1.000; stroke:none;" />
 <path d="  M 81,31  L 81,19  L 80,19  L 80,13  L 79,13  L 79,9  L 78,9  L 78,4  L 77,4  L 77,2  L 76,2  L 76,1  L 72,1  L 72,10  L 73,10  L 73,18  L 74,18  L 74,24  L 75,24  L 75,52  L 76,52  L 76,55  L 75,55  L 75,57  L 76,57  L 76,59  L 75,59  L 75,60  L 76,60  L 76,63  L 75,63  L 75,65  L 76,65  L 76,66  L 75,66  L 75,78  L 76,78  L 76,80  L 77,80  L 77,81  L 81,81  L 81,75  L 82,75  L 82,72  L 81,72  L 81,71  L 82,71  L 82,69  L 81,69  L 81,66  L 82,66  L 82,63  L 81,63  L 81,62  L 82,62  L 82,59  L 81,59  L 81,56  L 82,56  L 82,55  L 81,55  L 81,53  L 82,53  L 82,52  L 81,52  L 81,49  L 82,49  L 82,47  L 81,47  L 81,43  L 82,43  L 82,42  L 83,42  L 83,41  L 86,41  L 86,40  L 88,40  L 88,39  L 89,39  L 89,40  L 90,40  L 90,39  L 103,39  L 103,40  L 104,40  L 104,39  L 105,39  L 105,40  L 109,40  L 109,36  L 108,36  L 108,35  L 107,35  L 107,33  L 82,33  L 82,31  Z  " style="fill:rgb(0, 0, 0); fill-opacity:1.000; stroke:none;" />
</svg>
