<?xml version="1.0" encoding="UTF-8" standalone="no"?>
<!DOCTYPE svg PUBLIC "-//W3C//DTD SVG 1.1//EN" 
  "http://www.w3.org/Graphics/SVG/1.1/DTD/svg11.dtd">
<svg width="111" height="133"
     xmlns="http://www.w3.org/2000/svg" version="1.1">
 <path d="  M 26,71  L 26,70  L 27,70  L 27,71  L 30,71  L 30,70  L 31,70  L 31,71  L 33,71  L 33,70  L 61,70  L 61,71  L 62,71  L 62,70  L 63,70  L 63,71  L 65,71  L 65,70  L 67,70  L 67,71  L 68,71  L 68,70  L 71,70  L 71,69  L 73,69  L 73,64  L 68,64  L 68,63  L 67,63  L 67,64  L 66,64  L 66,63  L 65,63  L 65,64  L 64,64  L 64,63  L 63,63  L 63,64  L 62,64  L 62,63  L 61,63  L 61,64  L 60,64  L 60,63  L 59,63  L 59,64  L 58,64  L 58,63  L 57,63  L 57,64  L 54,64  L 54,63  L 53,63  L 53,64  L 50,64  L 50,63  L 49,63  L 49,64  L 46,64  L 46,63  L 45,63  L 45,64  L 42,64  L 42,63  L 41,63  L 41,64  L 38,64  L 38,63  L 37,63  L 37,64  L 36,64  L 36,63  L 35,63  L 35,64  L 34,64  L 34,63  L 33,63  L 33,61  L 34,61  L 34,60  L 33,60  L 33,51  L 32,51  L 32,50  L 33,50  L 33,49  L 32,49  L 32,34  L 33,34  L 33,33  L 32,33  L 32,32  L 33,32  L 33,31  L 32,31  L 32,28  L 31,28  L 31,27  L 28,27  L 28,29  L 27,29  L 27,31  L 26,31  L 26,40  L 25,40  L 25,42  L 26,42  L 26,58  L 27,58  L 27,62  L 28,62  L 28,63  L 30,63  L 30,64  L 28,64  L 28,65  L 20,65  L 20,66  L 18,66  L 18,65  L 17,65  L 17,66  L 14,66  L 14,65  L 13,65  L 13,66  L 9,66  L 9,67  L 8,67  L 8,66  L 7,66  L 7,67  L 0,67  L 0,71  L 1,71  L 1,72  L 3,72  L 3,73  L 7,73  L 7,72  L 16,72  L 16,71  Z  " style="fill:rgb(0, 0, 0); fill-opacity:1.000; stroke:none;" />
 <path d="  M 54,12  L 53,12  L 53,19  L 52,19  L 52,23  L 51,23  L 51,29  L 50,29  L 50,33  L 49,33  L 49,38  L 48,38  L 48,47  L 49,47  L 49,48  L 51,48  L 51,49  L 53,49  L 53,48  L 54,48  L 54,46  L 55,46  L 55,38  L 56,38  L 56,32  L 57,32  L 57,26  L 58,26  L 58,21  L 59,21  L 59,16  L 60,16  L 60,12  L 61,12  L 61,8  L 60,8  L 60,7  L 59,7  L 59,6  L 58,6  L 58,5  L 57,5  L 57,4  L 56,4  L 56,3  L 54,3  L 54,2  L 47,2  L 47,1  L 24,1  L 24,2  L 18,2  L 18,3  L 17,3  L 17,2  L 16,2  L 16,3  L 15,3  L 15,4  L 13,4  L 13,7  L 12,7  L 12,8  L 14,8  L 14,9  L 17,9  L 17,10  L 18,10  L 18,9  L 21,9  L 21,8  L 26,8  L 26,7  L 27,7  L 27,8  L 28,8  L 28,7  L 45,7  L 45,8  L 53,8  L 53,9  L 54,9  Z  " style="fill:rgb(0, 0, 0); fill-opacity:1.000; stroke:none;" />
 <path d="  M 35,124  L 36,124  L 36,126  L 37,126  L 37,127  L 38,127  L 38,128  L 39,128  L 39,129  L 41,129  L 41,130  L 42,130  L 42,131  L 45,131  L 45,132  L 51,132  L 51,133  L 65,133  L 65,132  L 70,132  L 70,131  L 73,131  L 73,130  L 76,130  L 76,129  L 77,129  L 77,128  L 80,128  L 80,127  L 81,127  L 81,126  L 84,126  L 84,125  L 85,125  L 85,124  L 86,124  L 86,123  L 87,123  L 87,122  L 88,122  L 88,121  L 89,121  L 89,120  L 90,120  L 90,118  L 91,118  L 91,114  L 92,114  L 92,101  L 91,101  L 91,98  L 90,98  L 90,95  L 89,95  L 89,93  L 87,93  L 87,92  L 85,92  L 85,91  L 80,91  L 80,90  L 74,90  L 74,89  L 64,89  L 64,88  L 61,88  L 61,87  L 59,87  L 59,86  L 53,86  L 53,87  L 52,87  L 52,88  L 51,88  L 51,90  L 50,90  L 50,91  L 49,91  L 49,92  L 48,92  L 48,94  L 47,94  L 47,95  L 46,95  L 46,96  L 45,96  L 45,97  L 44,97  L 44,98  L 43,98  L 43,100  L 42,100  L 42,102  L 41,102  L 41,103  L 40,103  L 40,105  L 39,105  L 39,107  L 38,107  L 38,109  L 37,109  L 37,113  L 36,113  L 36,114  L 35,114  Z  M 75,123  L 74,123  L 74,124  L 70,124  L 70,125  L 67,125  L 67,126  L 66,126  L 66,125  L 65,125  L 65,126  L 59,126  L 59,127  L 57,127  L 57,126  L 50,126  L 50,125  L 45,125  L 45,124  L 44,124  L 44,123  L 43,123  L 43,122  L 42,122  L 42,121  L 41,121  L 41,117  L 42,117  L 42,114  L 43,114  L 43,112  L 44,112  L 44,109  L 45,109  L 45,106  L 46,106  L 46,105  L 47,105  L 47,104  L 48,104  L 48,103  L 49,103  L 49,101  L 50,101  L 50,100  L 52,100  L 52,99  L 53,99  L 53,98  L 54,98  L 54,97  L 55,97  L 55,96  L 58,96  L 58,95  L 63,95  L 63,96  L 73,96  L 73,97  L 80,97  L 80,98  L 82,98  L 82,99  L 83,99  L 83,100  L 84,100  L 84,101  L 85,101  L 85,102  L 86,102  L 86,110  L 85,110  L 85,113  L 84,113  L 84,116  L 83,116  L 83,118  L 82,118  L 82,119  L 81,119  L 81,120  L 80,120  L 80,121  L 78,121  L 78,122  L 75,122  Z  " style="fill:rgb(0, 0, 0); fill-opacity:1.000; stroke:none;" />
 <path d="  M 78,68  L 79,68  L 79,78  L 80,78  L 80,80  L 81,80  L 81,81  L 84,81  L 84,79  L 85,79  L 85,73  L 84,73  L 84,72  L 85,72  L 85,71  L 84,71  L 84,62  L 85,62  L 85,61  L 84,61  L 84,58  L 85,58  L 85,57  L 84,57  L 84,54  L 85,54  L 85,53  L 84,53  L 84,50  L 85,50  L 85,49  L 84,49  L 84,46  L 85,46  L 85,45  L 84,45  L 84,38  L 85,38  L 85,37  L 91,37  L 91,36  L 100,36  L 100,35  L 101,35  L 101,36  L 102,36  L 102,35  L 105,35  L 105,36  L 106,36  L 106,35  L 107,35  L 107,36  L 108,36  L 108,35  L 109,35  L 109,36  L 111,36  L 111,30  L 110,30  L 110,29  L 89,29  L 89,30  L 84,30  L 84,19  L 83,19  L 83,18  L 84,18  L 84,17  L 83,17  L 83,15  L 82,15  L 82,13  L 81,13  L 81,7  L 80,7  L 80,4  L 79,4  L 79,2  L 78,2  L 78,1  L 75,1  L 75,3  L 74,3  L 74,5  L 73,5  L 73,8  L 74,8  L 74,10  L 75,10  L 75,12  L 76,12  L 76,13  L 75,13  L 75,14  L 76,14  L 76,15  L 77,15  L 77,24  L 78,24  Z  " style="fill:rgb(0, 0, 0); fill-opacity:1.000; stroke:none;" />
</svg>
