<?xml version="1.0" encoding="UTF-8" standalone="no"?>
<!DOCTYPE svg PUBLIC "-//W3C//DTD SVG 1.1//EN" 
  "http://www.w3.org/Graphics/SVG/1.1/DTD/svg11.dtd">
<svg width="109" height="143"
     xmlns="http://www.w3.org/2000/svg" version="1.1">
 <path d="  M 0,77  L 1,77  L 1,78  L 2,78  L 2,79  L 7,79  L 7,78  L 11,78  L 11,77  L 17,77  L 17,76  L 45,76  L 45,75  L 46,75  L 46,76  L 49,76  L 49,75  L 68,75  L 68,74  L 70,74  L 70,71  L 68,71  L 68,70  L 67,70  L 67,69  L 66,69  L 66,68  L 56,68  L 56,69  L 55,69  L 55,68  L 52,68  L 52,69  L 33,69  L 33,64  L 32,64  L 32,46  L 31,46  L 31,45  L 32,45  L 32,44  L 31,44  L 31,36  L 30,36  L 30,34  L 27,34  L 27,35  L 25,35  L 25,36  L 24,36  L 24,38  L 23,38  L 23,39  L 24,39  L 24,40  L 23,40  L 23,41  L 24,41  L 24,57  L 25,57  L 25,60  L 24,60  L 24,61  L 25,61  L 25,66  L 26,66  L 26,68  L 25,68  L 25,69  L 24,69  L 24,70  L 15,70  L 15,71  L 9,71  L 9,72  L 6,72  L 6,73  L 2,73  L 2,74  L 1,74  L 1,75  L 0,75  Z  " style="fill:rgb(0, 0, 0); fill-opacity:1.000; stroke:none;" />
 <path d="  M 54,17  L 53,17  L 53,20  L 52,20  L 52,21  L 53,21  L 53,22  L 52,22  L 52,24  L 51,24  L 51,30  L 50,30  L 50,34  L 49,34  L 49,36  L 48,36  L 48,40  L 47,40  L 47,44  L 46,44  L 46,47  L 47,47  L 47,50  L 50,50  L 50,49  L 51,49  L 51,48  L 52,48  L 52,47  L 53,47  L 53,45  L 54,45  L 54,38  L 55,38  L 55,34  L 56,34  L 56,30  L 57,30  L 57,26  L 58,26  L 58,21  L 59,21  L 59,17  L 60,17  L 60,10  L 59,10  L 59,7  L 58,7  L 58,5  L 56,5  L 56,4  L 55,4  L 55,3  L 54,3  L 54,2  L 53,2  L 53,1  L 37,1  L 37,2  L 24,2  L 24,3  L 15,3  L 15,4  L 13,4  L 13,9  L 15,9  L 15,10  L 21,10  L 21,9  L 29,9  L 29,8  L 31,8  L 31,9  L 32,9  L 32,8  L 44,8  L 44,7  L 45,7  L 45,8  L 52,8  L 52,9  L 54,9  Z  " style="fill:rgb(0, 0, 0); fill-opacity:1.000; stroke:none;" />
 <path d="  M 73,99  L 73,98  L 88,98  L 88,99  L 94,99  L 94,100  L 96,100  L 96,101  L 97,101  L 97,102  L 98,102  L 98,103  L 99,103  L 99,104  L 100,104  L 100,106  L 101,106  L 101,119  L 100,119  L 100,121  L 99,121  L 99,123  L 98,123  L 98,124  L 97,124  L 97,126  L 96,126  L 96,127  L 95,127  L 95,128  L 94,128  L 94,129  L 93,129  L 93,130  L 91,130  L 91,131  L 90,131  L 90,132  L 89,132  L 89,133  L 86,133  L 86,134  L 83,134  L 83,135  L 81,135  L 81,136  L 78,136  L 78,137  L 59,137  L 59,136  L 56,136  L 56,135  L 53,135  L 53,134  L 52,134  L 52,133  L 50,133  L 50,132  L 49,132  L 49,120  L 50,120  L 50,117  L 51,117  L 51,114  L 52,114  L 52,112  L 53,112  L 53,110  L 55,110  L 55,109  L 56,109  L 56,108  L 57,108  L 57,106  L 58,106  L 58,105  L 60,105  L 60,104  L 61,104  L 61,103  L 63,103  L 63,102  L 65,102  L 65,101  L 68,101  L 68,100  L 70,100  L 70,99  Z  M 105,125  L 107,125  L 107,121  L 108,121  L 108,105  L 107,105  L 107,100  L 106,100  L 106,99  L 105,99  L 105,98  L 104,98  L 104,97  L 102,97  L 102,96  L 101,96  L 101,95  L 99,95  L 99,94  L 98,94  L 98,93  L 96,93  L 96,92  L 93,92  L 93,91  L 92,91  L 92,92  L 91,92  L 91,91  L 68,91  L 68,92  L 66,92  L 66,93  L 65,93  L 65,94  L 62,94  L 62,95  L 61,95  L 61,96  L 60,96  L 60,97  L 58,97  L 58,98  L 57,98  L 57,99  L 55,99  L 55,100  L 54,100  L 54,101  L 52,101  L 52,102  L 51,102  L 51,104  L 50,104  L 50,105  L 49,105  L 49,106  L 47,106  L 47,108  L 46,108  L 46,110  L 45,110  L 45,112  L 44,112  L 44,115  L 43,115  L 43,120  L 42,120  L 42,126  L 41,126  L 41,130  L 42,130  L 42,135  L 43,135  L 43,137  L 45,137  L 45,138  L 46,138  L 46,139  L 48,139  L 48,140  L 50,140  L 50,141  L 52,141  L 52,142  L 57,142  L 57,143  L 80,143  L 80,142  L 84,142  L 84,141  L 87,141  L 87,140  L 89,140  L 89,139  L 92,139  L 92,138  L 94,138  L 94,137  L 95,137  L 95,136  L 97,136  L 97,135  L 98,135  L 98,134  L 100,134  L 100,132  L 101,132  L 101,131  L 102,131  L 102,130  L 103,130  L 103,129  L 104,129  L 104,128  L 105,128  Z  " style="fill:rgb(0, 0, 0); fill-opacity:1.000; stroke:none;" />
 <path d="  M 79,55  L 79,58  L 78,58  L 78,78  L 77,78  L 77,79  L 79,79  L 79,81  L 81,81  L 81,80  L 82,80  L 82,78  L 83,78  L 83,76  L 84,76  L 84,65  L 85,65  L 85,64  L 84,64  L 84,63  L 85,63  L 85,53  L 86,53  L 86,52  L 85,52  L 85,51  L 86,51  L 86,50  L 85,50  L 85,49  L 86,49  L 86,46  L 85,46  L 85,45  L 86,45  L 86,42  L 85,42  L 85,38  L 86,38  L 86,37  L 90,37  L 90,36  L 96,36  L 96,35  L 100,35  L 100,34  L 101,34  L 101,35  L 103,35  L 103,42  L 102,42  L 102,43  L 103,43  L 103,46  L 102,46  L 102,47  L 103,47  L 103,50  L 102,50  L 102,51  L 103,51  L 103,54  L 102,54  L 102,55  L 103,55  L 103,58  L 102,58  L 102,59  L 103,59  L 103,62  L 102,62  L 102,63  L 103,63  L 103,66  L 102,66  L 102,67  L 103,67  L 103,78  L 104,78  L 104,83  L 105,83  L 105,82  L 108,82  L 108,81  L 109,81  L 109,30  L 108,30  L 108,26  L 107,26  L 107,18  L 106,18  L 106,13  L 105,13  L 105,7  L 104,7  L 104,5  L 103,5  L 103,4  L 100,4  L 100,5  L 99,5  L 99,6  L 98,6  L 98,11  L 99,11  L 99,15  L 100,15  L 100,19  L 101,19  L 101,28  L 99,28  L 99,29  L 92,29  L 92,30  L 87,30  L 87,31  L 84,31  L 84,30  L 83,30  L 83,22  L 82,22  L 82,21  L 83,21  L 83,20  L 82,20  L 82,17  L 83,17  L 83,16  L 82,16  L 82,4  L 81,4  L 81,1  L 80,1  L 80,0  L 76,0  L 76,1  L 75,1  L 75,3  L 74,3  L 74,4  L 75,4  L 75,13  L 76,13  L 76,30  L 77,30  L 77,32  L 76,32  L 76,33  L 77,33  L 77,40  L 78,40  L 78,47  L 79,47  L 79,50  L 78,50  L 78,51  L 79,51  L 79,54  L 78,54  L 78,55  Z  " style="fill:rgb(0, 0, 0); fill-opacity:1.000; stroke:none;" />
</svg>
