<?xml version="1.0" encoding="UTF-8" standalone="no"?>
<!DOCTYPE svg PUBLIC "-//W3C//DTD SVG 1.1//EN" 
  "http://www.w3.org/Graphics/SVG/1.1/DTD/svg11.dtd">
<svg width="105" height="127"
     xmlns="http://www.w3.org/2000/svg" version="1.1">
 <path d="  M 39,56  L 38,56  L 38,54  L 33,54  L 33,55  L 32,55  L 32,58  L 31,58  L 31,59  L 32,59  L 32,75  L 33,75  L 33,91  L 34,91  L 34,93  L 33,93  L 33,94  L 24,94  L 24,95  L 21,95  L 21,96  L 16,96  L 16,97  L 13,97  L 13,98  L 9,98  L 9,99  L 7,99  L 7,100  L 4,100  L 4,101  L 1,101  L 1,104  L 0,104  L 0,105  L 1,105  L 1,106  L 2,106  L 2,107  L 8,107  L 8,106  L 10,106  L 10,105  L 13,105  L 13,104  L 17,104  L 17,103  L 23,103  L 23,102  L 29,102  L 29,101  L 33,101  L 33,100  L 42,100  L 42,99  L 48,99  L 48,98  L 54,98  L 54,97  L 57,97  L 57,96  L 63,96  L 63,95  L 66,95  L 66,94  L 71,94  L 71,93  L 75,93  L 75,92  L 78,92  L 78,91  L 80,91  L 80,90  L 84,90  L 84,89  L 87,89  L 87,88  L 89,88  L 89,84  L 87,84  L 87,83  L 86,83  L 86,82  L 84,82  L 84,83  L 83,83  L 83,84  L 80,84  L 80,85  L 78,85  L 78,86  L 74,86  L 74,87  L 71,87  L 71,88  L 67,88  L 67,89  L 65,89  L 65,90  L 64,90  L 64,89  L 63,89  L 63,90  L 57,90  L 57,91  L 53,91  L 53,92  L 40,92  L 40,91  L 39,91  L 39,88  L 40,88  L 40,87  L 39,87  L 39,84  L 40,84  L 40,83  L 39,83  L 39,82  L 40,82  L 40,81  L 39,81  L 39,66  L 38,66  L 38,62  L 39,62  Z  " style="fill:rgb(0, 0, 0); fill-opacity:1.000; stroke:none;" />
 <path d="  M 18,26  L 18,27  L 17,27  L 17,28  L 16,28  L 16,29  L 15,29  L 15,28  L 14,28  L 14,29  L 13,29  L 13,31  L 14,31  L 14,32  L 15,32  L 15,33  L 16,33  L 16,34  L 17,34  L 17,33  L 18,33  L 18,34  L 29,34  L 29,35  L 30,35  L 30,34  L 33,34  L 33,35  L 34,35  L 34,34  L 37,34  L 37,35  L 39,35  L 39,34  L 41,34  L 41,35  L 42,35  L 42,34  L 45,34  L 45,35  L 46,35  L 46,34  L 49,34  L 49,35  L 50,35  L 50,34  L 53,34  L 53,35  L 54,35  L 54,34  L 57,34  L 57,35  L 59,35  L 59,37  L 60,37  L 60,38  L 59,38  L 59,44  L 58,44  L 58,54  L 57,54  L 57,64  L 56,64  L 56,70  L 55,70  L 55,71  L 56,71  L 56,72  L 55,72  L 55,73  L 56,73  L 56,75  L 57,75  L 57,76  L 58,76  L 58,75  L 60,75  L 60,74  L 62,74  L 62,72  L 63,72  L 63,69  L 64,69  L 64,59  L 65,59  L 65,58  L 64,58  L 64,57  L 65,57  L 65,47  L 66,47  L 66,41  L 67,41  L 67,37  L 68,37  L 68,31  L 67,31  L 67,30  L 66,30  L 66,29  L 64,29  L 64,28  L 62,28  L 62,27  L 58,27  L 58,26  L 53,26  L 53,27  L 51,27  L 51,26  L 48,26  L 48,27  L 47,27  L 47,26  L 45,26  L 45,27  L 23,27  L 23,26  L 21,26  L 21,27  L 19,27  L 19,26  Z  " style="fill:rgb(0, 0, 0); fill-opacity:1.000; stroke:none;" />
 <path d="  M 105,32  L 104,32  L 104,31  L 105,31  L 105,30  L 104,30  L 104,24  L 103,24  L 103,22  L 102,22  L 102,17  L 101,17  L 101,14  L 100,14  L 100,9  L 99,9  L 99,6  L 98,6  L 98,2  L 97,2  L 97,1  L 95,1  L 95,0  L 93,0  L 93,1  L 91,1  L 91,6  L 92,6  L 92,11  L 93,11  L 93,16  L 94,16  L 94,19  L 95,19  L 95,22  L 96,22  L 96,26  L 97,26  L 97,31  L 98,31  L 98,40  L 99,40  L 99,120  L 98,120  L 98,121  L 99,121  L 99,122  L 98,122  L 98,125  L 99,125  L 99,127  L 104,127  L 104,125  L 105,125  Z  " style="fill:rgb(0, 0, 0); fill-opacity:1.000; stroke:none;" />
</svg>
