<?xml version="1.0" encoding="UTF-8" standalone="no"?>
<!DOCTYPE svg PUBLIC "-//W3C//DTD SVG 1.1//EN" 
  "http://www.w3.org/Graphics/SVG/1.1/DTD/svg11.dtd">
<svg width="102" height="149"
     xmlns="http://www.w3.org/2000/svg" version="1.1">
 <path d="  M 31,84  L 31,83  L 42,83  L 42,84  L 43,84  L 43,83  L 54,83  L 54,82  L 60,82  L 60,81  L 66,81  L 66,80  L 74,80  L 74,79  L 78,79  L 78,78  L 79,78  L 79,77  L 80,77  L 80,73  L 79,73  L 79,72  L 78,72  L 78,71  L 77,71  L 77,72  L 72,72  L 72,73  L 67,73  L 67,74  L 62,74  L 62,75  L 54,75  L 54,76  L 43,76  L 43,77  L 41,77  L 41,76  L 40,76  L 40,77  L 37,77  L 37,76  L 32,76  L 32,75  L 33,75  L 33,68  L 32,68  L 32,54  L 31,54  L 31,53  L 32,53  L 32,51  L 31,51  L 31,49  L 32,49  L 32,46  L 31,46  L 31,45  L 32,45  L 32,35  L 31,35  L 31,34  L 29,34  L 29,35  L 28,35  L 28,36  L 27,36  L 27,38  L 26,38  L 26,42  L 25,42  L 25,66  L 26,66  L 26,73  L 27,73  L 27,74  L 28,74  L 28,76  L 26,76  L 26,77  L 20,77  L 20,78  L 15,78  L 15,79  L 11,79  L 11,80  L 9,80  L 9,81  L 6,81  L 6,82  L 3,82  L 3,83  L 1,83  L 1,85  L 0,85  L 0,87  L 1,87  L 1,88  L 2,88  L 2,89  L 5,89  L 5,88  L 9,88  L 9,87  L 13,87  L 13,86  L 16,86  L 16,85  L 22,85  L 22,84  Z  " style="fill:rgb(0, 0, 0); fill-opacity:1.000; stroke:none;" />
 <path d="  M 55,9  L 55,8  L 54,8  L 54,7  L 53,7  L 53,6  L 51,6  L 51,5  L 50,5  L 50,4  L 48,4  L 48,3  L 47,3  L 47,4  L 46,4  L 46,3  L 26,3  L 26,4  L 25,4  L 25,3  L 23,3  L 23,4  L 19,4  L 19,5  L 15,5  L 15,6  L 12,6  L 12,7  L 11,7  L 11,8  L 10,8  L 10,13  L 9,13  L 9,14  L 13,14  L 13,15  L 14,15  L 14,14  L 16,14  L 16,13  L 18,13  L 18,12  L 21,12  L 21,11  L 27,11  L 27,10  L 42,10  L 42,11  L 43,11  L 43,10  L 44,10  L 44,11  L 46,11  L 46,12  L 48,12  L 48,13  L 49,13  L 49,14  L 50,14  L 50,15  L 51,15  L 51,16  L 52,16  L 52,18  L 53,18  L 53,21  L 52,21  L 52,23  L 51,23  L 51,27  L 50,27  L 50,33  L 49,33  L 49,34  L 50,34  L 50,35  L 49,35  L 49,42  L 48,42  L 48,43  L 49,43  L 49,45  L 48,45  L 48,52  L 47,52  L 47,54  L 48,54  L 48,55  L 49,55  L 49,56  L 51,56  L 51,54  L 53,54  L 53,52  L 54,52  L 54,51  L 55,51  L 55,49  L 56,49  L 56,37  L 57,37  L 57,32  L 58,32  L 58,31  L 57,31  L 57,29  L 58,29  L 58,25  L 59,25  L 59,22  L 60,22  L 60,16  L 59,16  L 59,14  L 58,14  L 58,12  L 57,12  L 57,11  L 56,11  L 56,9  Z  " style="fill:rgb(0, 0, 0); fill-opacity:1.000; stroke:none;" />
 <path d="  M 69,140  L 69,141  L 62,141  L 62,142  L 54,142  L 54,143  L 43,143  L 43,142  L 41,142  L 41,140  L 40,140  L 40,104  L 41,104  L 41,99  L 39,99  L 39,98  L 36,98  L 36,99  L 35,99  L 35,100  L 34,100  L 34,103  L 33,103  L 33,118  L 32,118  L 32,120  L 33,120  L 33,122  L 32,122  L 32,124  L 33,124  L 33,126  L 32,126  L 32,128  L 33,128  L 33,130  L 32,130  L 32,132  L 33,132  L 33,134  L 32,134  L 32,135  L 33,135  L 33,141  L 34,141  L 34,144  L 35,144  L 35,146  L 36,146  L 36,147  L 37,147  L 37,148  L 38,148  L 38,149  L 60,149  L 60,148  L 68,148  L 68,147  L 69,147  L 69,148  L 71,148  L 71,147  L 79,147  L 79,146  L 87,146  L 87,145  L 92,145  L 92,144  L 93,144  L 93,145  L 95,145  L 95,144  L 100,144  L 100,143  L 102,143  L 102,136  L 99,136  L 99,137  L 98,137  L 98,136  L 97,136  L 97,137  L 93,137  L 93,138  L 84,138  L 84,139  L 77,139  L 77,140  L 76,140  L 76,139  L 75,139  L 75,140  Z  " style="fill:rgb(0, 0, 0); fill-opacity:1.000; stroke:none;" />
 <path d="  M 93,92  L 94,92  L 94,94  L 95,94  L 95,95  L 96,95  L 96,96  L 98,96  L 98,95  L 100,95  L 100,78  L 99,78  L 99,77  L 100,77  L 100,74  L 99,74  L 99,53  L 98,53  L 98,52  L 99,52  L 99,51  L 98,51  L 98,50  L 99,50  L 99,49  L 98,49  L 98,43  L 97,43  L 97,42  L 98,42  L 98,41  L 97,41  L 97,37  L 96,37  L 96,34  L 95,34  L 95,30  L 94,30  L 94,27  L 93,27  L 93,25  L 92,25  L 92,23  L 91,23  L 91,17  L 90,17  L 90,3  L 89,3  L 89,1  L 87,1  L 87,0  L 86,0  L 86,1  L 85,1  L 85,2  L 84,2  L 84,3  L 83,3  L 83,7  L 82,7  L 82,8  L 83,8  L 83,9  L 82,9  L 82,12  L 83,12  L 83,18  L 84,18  L 84,22  L 85,22  L 85,26  L 86,26  L 86,28  L 87,28  L 87,31  L 88,31  L 88,33  L 89,33  L 89,38  L 90,38  L 90,44  L 91,44  L 91,51  L 92,51  L 92,72  L 93,72  Z  " style="fill:rgb(0, 0, 0); fill-opacity:1.000; stroke:none;" />
</svg>
