<?xml version="1.0" encoding="UTF-8" standalone="no"?>
<!DOCTYPE svg PUBLIC "-//W3C//DTD SVG 1.1//EN" 
  "http://www.w3.org/Graphics/SVG/1.1/DTD/svg11.dtd">
<svg width="105" height="153"
     xmlns="http://www.w3.org/2000/svg" version="1.1">
 <path d="  M 26,83  L 26,82  L 33,82  L 33,81  L 82,81  L 82,78  L 83,78  L 83,77  L 82,77  L 82,75  L 81,75  L 81,74  L 80,74  L 80,73  L 75,73  L 75,74  L 47,74  L 47,73  L 40,73  L 40,72  L 39,72  L 39,70  L 38,70  L 38,62  L 37,62  L 37,55  L 36,55  L 36,52  L 37,52  L 37,51  L 36,51  L 36,40  L 37,40  L 37,39  L 36,39  L 36,37  L 33,37  L 33,38  L 31,38  L 31,39  L 30,39  L 30,41  L 29,41  L 29,42  L 30,42  L 30,43  L 29,43  L 29,59  L 30,59  L 30,70  L 31,70  L 31,72  L 32,72  L 32,73  L 31,73  L 31,74  L 26,74  L 26,75  L 21,75  L 21,76  L 19,76  L 19,77  L 16,77  L 16,78  L 13,78  L 13,79  L 10,79  L 10,80  L 8,80  L 8,81  L 5,81  L 5,82  L 1,82  L 1,87  L 2,87  L 2,88  L 7,88  L 7,87  L 9,87  L 9,86  L 13,86  L 13,85  L 17,85  L 17,84  L 22,84  L 22,83  Z  " style="fill:rgb(0, 0, 0); fill-opacity:1.000; stroke:none;" />
 <path d="  M 59,36  L 60,36  L 60,28  L 61,28  L 61,27  L 60,27  L 60,26  L 61,26  L 61,21  L 62,21  L 62,15  L 61,15  L 61,14  L 60,14  L 60,13  L 59,13  L 59,12  L 58,12  L 58,11  L 57,11  L 57,10  L 55,10  L 55,9  L 53,9  L 53,8  L 48,8  L 48,7  L 26,7  L 26,8  L 20,8  L 20,9  L 15,9  L 15,10  L 14,10  L 14,11  L 13,11  L 13,13  L 12,13  L 12,14  L 13,14  L 13,16  L 15,16  L 15,17  L 20,17  L 20,16  L 23,16  L 23,15  L 31,15  L 31,14  L 32,14  L 32,15  L 33,15  L 33,14  L 43,14  L 43,15  L 49,15  L 49,16  L 51,16  L 51,17  L 52,17  L 52,18  L 53,18  L 53,20  L 54,20  L 54,21  L 53,21  L 53,29  L 52,29  L 52,40  L 51,40  L 51,41  L 52,41  L 52,42  L 51,42  L 51,53  L 50,53  L 50,54  L 51,54  L 51,55  L 50,55  L 50,57  L 51,57  L 51,59  L 52,59  L 52,60  L 55,60  L 55,59  L 56,59  L 56,58  L 57,58  L 57,56  L 58,56  L 58,53  L 59,53  Z  " style="fill:rgb(0, 0, 0); fill-opacity:1.000; stroke:none;" />
 <path d="  M 46,99  L 46,100  L 40,100  L 40,101  L 37,101  L 37,102  L 30,102  L 30,103  L 29,103  L 29,104  L 28,104  L 28,106  L 27,106  L 27,108  L 28,108  L 28,109  L 29,109  L 29,110  L 31,110  L 31,112  L 33,112  L 33,111  L 34,111  L 34,112  L 36,112  L 36,111  L 38,111  L 38,110  L 41,110  L 41,111  L 42,111  L 42,144  L 43,144  L 43,147  L 44,147  L 44,150  L 45,150  L 45,151  L 46,151  L 46,152  L 48,152  L 48,153  L 67,153  L 67,152  L 68,152  L 68,153  L 71,153  L 71,152  L 72,152  L 72,153  L 73,153  L 73,152  L 83,152  L 83,151  L 84,151  L 84,152  L 86,152  L 86,151  L 94,151  L 94,150  L 95,150  L 95,149  L 98,149  L 98,148  L 99,148  L 99,147  L 100,147  L 100,146  L 101,146  L 101,145  L 102,145  L 102,143  L 103,143  L 103,142  L 102,142  L 102,141  L 103,141  L 103,134  L 104,134  L 104,125  L 105,125  L 105,104  L 104,104  L 104,102  L 102,102  L 102,100  L 100,100  L 100,99  L 98,99  L 98,98  L 96,98  L 96,99  L 95,99  L 95,98  L 93,98  L 93,99  L 92,99  L 92,98  L 73,98  L 73,99  L 62,99  L 62,100  L 56,100  L 56,101  L 50,101  L 50,100  L 47,100  L 47,99  Z  M 99,123  L 98,123  L 98,131  L 97,131  L 97,138  L 96,138  L 96,141  L 95,141  L 95,142  L 96,142  L 96,143  L 95,143  L 95,144  L 91,144  L 91,145  L 80,145  L 80,146  L 79,146  L 79,145  L 78,145  L 78,146  L 61,146  L 61,147  L 52,147  L 52,146  L 50,146  L 50,144  L 49,144  L 49,137  L 48,137  L 48,136  L 49,136  L 49,135  L 48,135  L 48,134  L 49,134  L 49,133  L 48,133  L 48,132  L 49,132  L 49,131  L 48,131  L 48,124  L 49,124  L 49,123  L 48,123  L 48,118  L 49,118  L 49,117  L 48,117  L 48,114  L 49,114  L 49,113  L 48,113  L 48,112  L 49,112  L 49,108  L 55,108  L 55,107  L 65,107  L 65,106  L 71,106  L 71,105  L 72,105  L 72,106  L 73,106  L 73,105  L 94,105  L 94,106  L 99,106  Z  " style="fill:rgb(0, 0, 0); fill-opacity:1.000; stroke:none;" />
 <path d="  M 104,83  L 103,83  L 103,82  L 104,82  L 104,51  L 103,51  L 103,50  L 104,50  L 104,49  L 103,49  L 103,48  L 104,48  L 104,47  L 103,47  L 103,46  L 104,46  L 104,45  L 103,45  L 103,41  L 102,41  L 102,33  L 101,33  L 101,29  L 100,29  L 100,25  L 99,25  L 99,21  L 98,21  L 98,15  L 97,15  L 97,6  L 96,6  L 96,4  L 97,4  L 97,3  L 96,3  L 96,1  L 95,1  L 95,0  L 92,0  L 92,1  L 91,1  L 91,2  L 90,2  L 90,18  L 91,18  L 91,21  L 92,21  L 92,26  L 93,26  L 93,32  L 94,32  L 94,36  L 95,36  L 95,42  L 96,42  L 96,54  L 97,54  L 97,57  L 96,57  L 96,58  L 97,58  L 97,93  L 98,93  L 98,94  L 102,94  L 102,93  L 104,93  L 104,91  L 103,91  L 103,90  L 104,90  L 104,89  L 103,89  L 103,86  L 104,86  Z  " style="fill:rgb(0, 0, 0); fill-opacity:1.000; stroke:none;" />
</svg>
