<?xml version="1.0" encoding="UTF-8" standalone="no"?>
<!DOCTYPE svg PUBLIC "-//W3C//DTD SVG 1.1//EN" 
  "http://www.w3.org/Graphics/SVG/1.1/DTD/svg11.dtd">
<svg width="107" height="163"
     xmlns="http://www.w3.org/2000/svg" version="1.1">
 <path d="  M 86,88  L 86,87  L 87,87  L 87,82  L 86,82  L 86,81  L 84,81  L 84,80  L 82,80  L 82,81  L 69,81  L 69,82  L 68,82  L 68,81  L 65,81  L 65,82  L 64,82  L 64,81  L 63,81  L 63,82  L 62,82  L 62,81  L 61,81  L 61,82  L 60,82  L 60,81  L 59,81  L 59,82  L 58,82  L 58,81  L 57,81  L 57,82  L 56,82  L 56,81  L 55,81  L 55,82  L 54,82  L 54,81  L 53,81  L 53,82  L 50,82  L 50,81  L 49,81  L 49,82  L 48,82  L 48,81  L 43,81  L 43,80  L 42,80  L 42,74  L 41,74  L 41,66  L 40,66  L 40,54  L 39,54  L 39,45  L 38,45  L 38,41  L 37,41  L 37,40  L 35,40  L 35,41  L 33,41  L 33,42  L 32,42  L 32,51  L 33,51  L 33,63  L 34,63  L 34,64  L 33,64  L 33,65  L 34,65  L 34,78  L 35,78  L 35,82  L 28,82  L 28,83  L 27,83  L 27,82  L 26,82  L 26,83  L 23,83  L 23,82  L 22,82  L 22,83  L 17,83  L 17,84  L 12,84  L 12,85  L 11,85  L 11,84  L 10,84  L 10,85  L 5,85  L 5,86  L 4,86  L 4,85  L 1,85  L 1,86  L 0,86  L 0,90  L 1,90  L 1,91  L 2,91  L 2,92  L 10,92  L 10,91  L 19,91  L 19,90  L 21,90  L 21,91  L 22,91  L 22,90  L 31,90  L 31,89  L 55,89  L 55,88  L 56,88  L 56,89  L 57,89  L 57,88  L 58,88  L 58,89  L 59,89  L 59,88  L 60,88  L 60,89  L 61,89  L 61,88  L 62,88  L 62,89  L 63,89  L 63,88  L 64,88  L 64,89  L 65,89  L 65,88  L 66,88  L 66,89  L 67,89  L 67,88  L 68,88  L 68,89  L 69,89  L 69,88  Z  " style="fill:rgb(0, 0, 0); fill-opacity:1.000; stroke:none;" />
 <path d="  M 66,30  L 67,30  L 67,28  L 68,28  L 68,27  L 69,27  L 69,18  L 68,18  L 68,16  L 67,16  L 67,15  L 66,15  L 66,14  L 65,14  L 65,13  L 62,13  L 62,12  L 61,12  L 61,11  L 58,11  L 58,10  L 53,10  L 53,9  L 33,9  L 33,10  L 25,10  L 25,11  L 20,11  L 20,12  L 16,12  L 16,13  L 14,13  L 14,16  L 13,16  L 13,18  L 14,18  L 14,19  L 20,19  L 20,18  L 25,18  L 25,17  L 31,17  L 31,16  L 53,16  L 53,17  L 56,17  L 56,18  L 58,18  L 58,19  L 60,19  L 60,22  L 61,22  L 61,24  L 60,24  L 60,26  L 59,26  L 59,28  L 58,28  L 58,31  L 57,31  L 57,35  L 56,35  L 56,38  L 55,38  L 55,42  L 54,42  L 54,52  L 53,52  L 53,55  L 54,55  L 54,61  L 56,61  L 56,62  L 58,62  L 58,61  L 59,61  L 59,60  L 60,60  L 60,59  L 61,59  L 61,55  L 62,55  L 62,47  L 63,47  L 63,40  L 64,40  L 64,37  L 65,37  L 65,33  L 66,33  Z  " style="fill:rgb(0, 0, 0); fill-opacity:1.000; stroke:none;" />
 <path d="  M 95,147  L 96,147  L 96,143  L 97,143  L 97,142  L 96,142  L 96,141  L 97,141  L 97,136  L 98,136  L 98,131  L 99,131  L 99,106  L 98,106  L 98,105  L 93,105  L 93,106  L 92,106  L 92,108  L 93,108  L 93,128  L 84,128  L 84,129  L 83,129  L 83,128  L 80,128  L 80,129  L 79,129  L 79,128  L 76,128  L 76,129  L 75,129  L 75,128  L 72,128  L 72,129  L 71,129  L 71,128  L 68,128  L 68,129  L 67,129  L 67,128  L 64,128  L 64,129  L 63,129  L 63,128  L 60,128  L 60,129  L 59,129  L 59,128  L 56,128  L 56,129  L 55,129  L 55,128  L 52,128  L 52,129  L 51,129  L 51,128  L 49,128  L 49,129  L 45,129  L 45,125  L 44,125  L 44,124  L 45,124  L 45,111  L 46,111  L 46,105  L 47,105  L 47,101  L 46,101  L 46,100  L 45,100  L 45,99  L 43,99  L 43,100  L 42,100  L 42,101  L 41,101  L 41,103  L 40,103  L 40,104  L 39,104  L 39,106  L 38,106  L 38,119  L 37,119  L 37,137  L 38,137  L 38,138  L 37,138  L 37,139  L 38,139  L 38,143  L 39,143  L 39,149  L 40,149  L 40,156  L 41,156  L 41,159  L 42,159  L 42,160  L 43,160  L 43,161  L 44,161  L 44,162  L 45,162  L 45,163  L 66,163  L 66,162  L 71,162  L 71,161  L 75,161  L 75,160  L 77,160  L 77,159  L 79,159  L 79,158  L 83,158  L 83,157  L 86,157  L 86,156  L 88,156  L 88,155  L 91,155  L 91,154  L 92,154  L 92,153  L 93,153  L 93,152  L 94,152  L 94,151  L 95,151  Z  M 50,157  L 50,156  L 48,156  L 48,155  L 47,155  L 47,151  L 46,151  L 46,145  L 45,145  L 45,137  L 47,137  L 47,136  L 51,136  L 51,135  L 52,135  L 52,136  L 54,136  L 54,135  L 61,135  L 61,136  L 62,136  L 62,135  L 65,135  L 65,136  L 66,136  L 66,135  L 69,135  L 69,136  L 70,136  L 70,135  L 73,135  L 73,136  L 74,136  L 74,135  L 87,135  L 87,136  L 89,136  L 89,137  L 90,137  L 90,142  L 89,142  L 89,146  L 88,146  L 88,148  L 87,148  L 87,149  L 85,149  L 85,150  L 83,150  L 83,151  L 80,151  L 80,152  L 77,152  L 77,153  L 74,153  L 74,154  L 70,154  L 70,155  L 67,155  L 67,156  L 62,156  L 62,157  Z  " style="fill:rgb(0, 0, 0); fill-opacity:1.000; stroke:none;" />
 <path d="  M 107,38  L 106,38  L 106,24  L 105,24  L 105,23  L 106,23  L 106,22  L 105,22  L 105,16  L 104,16  L 104,10  L 103,10  L 103,5  L 102,5  L 102,2  L 101,2  L 101,1  L 100,1  L 100,0  L 96,0  L 96,1  L 95,1  L 95,7  L 96,7  L 96,13  L 97,13  L 97,19  L 98,19  L 98,25  L 99,25  L 99,38  L 100,38  L 100,77  L 101,77  L 101,80  L 100,80  L 100,81  L 101,81  L 101,84  L 100,84  L 100,85  L 101,85  L 101,88  L 100,88  L 100,89  L 101,89  L 101,91  L 100,91  L 100,92  L 101,92  L 101,93  L 100,93  L 100,97  L 101,97  L 101,98  L 107,98  Z  " style="fill:rgb(0, 0, 0); fill-opacity:1.000; stroke:none;" />
</svg>
