<?xml version="1.0" encoding="UTF-8" standalone="no"?>
<!DOCTYPE svg PUBLIC "-//W3C//DTD SVG 1.1//EN" 
  "http://www.w3.org/Graphics/SVG/1.1/DTD/svg11.dtd">
<svg width="106" height="160"
     xmlns="http://www.w3.org/2000/svg" version="1.1">
 <path d="  M 63,87  L 63,86  L 66,86  L 66,87  L 67,87  L 67,86  L 83,86  L 83,85  L 84,85  L 84,83  L 83,83  L 83,81  L 82,81  L 82,80  L 81,80  L 81,79  L 70,79  L 70,80  L 69,80  L 69,79  L 68,79  L 68,80  L 67,80  L 67,79  L 66,79  L 66,80  L 63,80  L 63,79  L 62,79  L 62,80  L 59,80  L 59,79  L 58,79  L 58,80  L 55,80  L 55,79  L 54,79  L 54,80  L 51,80  L 51,79  L 50,79  L 50,80  L 47,80  L 47,79  L 46,79  L 46,80  L 43,80  L 43,79  L 41,79  L 41,77  L 40,77  L 40,70  L 39,70  L 39,64  L 38,64  L 38,57  L 37,57  L 37,45  L 36,45  L 36,42  L 32,42  L 32,43  L 31,43  L 31,44  L 30,44  L 30,56  L 31,56  L 31,58  L 30,58  L 30,60  L 31,60  L 31,67  L 32,67  L 32,75  L 33,75  L 33,79  L 32,79  L 32,80  L 29,80  L 29,81  L 22,81  L 22,82  L 15,82  L 15,83  L 14,83  L 14,82  L 13,82  L 13,83  L 6,83  L 6,84  L 3,84  L 3,83  L 2,83  L 2,84  L 0,84  L 0,88  L 1,88  L 1,89  L 2,89  L 2,90  L 3,90  L 3,89  L 4,89  L 4,90  L 7,90  L 7,89  L 8,89  L 8,90  L 9,90  L 9,89  L 15,89  L 15,88  L 16,88  L 16,89  L 17,89  L 17,88  L 27,88  L 27,87  L 28,87  L 28,88  L 30,88  L 30,87  Z  " style="fill:rgb(0, 0, 0); fill-opacity:1.000; stroke:none;" />
 <path d="  M 13,18  L 13,19  L 20,19  L 20,18  L 21,18  L 21,17  L 26,17  L 26,16  L 28,16  L 28,17  L 29,17  L 29,16  L 51,16  L 51,17  L 53,17  L 53,18  L 55,18  L 55,19  L 56,19  L 56,20  L 57,20  L 57,23  L 58,23  L 58,25  L 57,25  L 57,30  L 56,30  L 56,34  L 55,34  L 55,38  L 54,38  L 54,45  L 53,45  L 53,53  L 52,53  L 52,54  L 53,54  L 53,57  L 52,57  L 52,61  L 53,61  L 53,64  L 56,64  L 56,63  L 57,63  L 57,62  L 58,62  L 58,61  L 59,61  L 59,58  L 60,58  L 60,56  L 61,56  L 61,55  L 60,55  L 60,52  L 61,52  L 61,51  L 60,51  L 60,50  L 61,50  L 61,44  L 62,44  L 62,37  L 63,37  L 63,33  L 64,33  L 64,29  L 65,29  L 65,24  L 66,24  L 66,21  L 65,21  L 65,20  L 66,20  L 66,19  L 65,19  L 65,18  L 64,18  L 64,17  L 63,17  L 63,16  L 62,16  L 62,15  L 61,15  L 61,14  L 60,14  L 60,13  L 58,13  L 58,12  L 56,12  L 56,11  L 54,11  L 54,10  L 51,10  L 51,9  L 32,9  L 32,10  L 31,10  L 31,9  L 29,9  L 29,10  L 21,10  L 21,11  L 15,11  L 15,12  L 13,12  L 13,15  L 12,15  L 12,18  Z  " style="fill:rgb(0, 0, 0); fill-opacity:1.000; stroke:none;" />
 <path d="  M 97,150  L 98,150  L 98,149  L 100,149  L 100,148  L 101,148  L 101,147  L 102,147  L 102,146  L 103,146  L 103,144  L 104,144  L 104,141  L 105,141  L 105,136  L 106,136  L 106,127  L 105,127  L 105,123  L 104,123  L 104,118  L 103,118  L 103,117  L 102,117  L 102,115  L 101,115  L 101,113  L 100,113  L 100,112  L 99,112  L 99,111  L 97,111  L 97,110  L 95,110  L 95,109  L 93,109  L 93,108  L 89,108  L 89,107  L 78,107  L 78,106  L 73,106  L 73,105  L 67,105  L 67,104  L 64,104  L 64,105  L 62,105  L 62,106  L 61,106  L 61,107  L 59,107  L 59,108  L 57,108  L 57,109  L 55,109  L 55,110  L 54,110  L 54,111  L 52,111  L 52,113  L 50,113  L 50,114  L 49,114  L 49,115  L 48,115  L 48,116  L 47,116  L 47,118  L 46,118  L 46,119  L 45,119  L 45,121  L 44,121  L 44,122  L 43,122  L 43,123  L 42,123  L 42,125  L 41,125  L 41,127  L 40,127  L 40,130  L 39,130  L 39,132  L 38,132  L 38,134  L 37,134  L 37,137  L 36,137  L 36,146  L 35,146  L 35,149  L 36,149  L 36,152  L 37,152  L 37,155  L 40,155  L 40,156  L 41,156  L 41,157  L 42,157  L 42,158  L 43,158  L 43,157  L 44,157  L 44,158  L 48,158  L 48,159  L 53,159  L 53,160  L 75,160  L 75,159  L 76,159  L 76,160  L 77,160  L 77,159  L 79,159  L 79,158  L 82,158  L 82,157  L 84,157  L 84,156  L 87,156  L 87,155  L 89,155  L 89,154  L 91,154  L 91,153  L 93,153  L 93,152  L 95,152  L 95,151  L 97,151  Z  M 66,115  L 66,114  L 70,114  L 70,113  L 72,113  L 72,114  L 83,114  L 83,115  L 88,115  L 88,116  L 91,116  L 91,117  L 93,117  L 93,118  L 94,118  L 94,119  L 96,119  L 96,120  L 97,120  L 97,123  L 98,123  L 98,128  L 99,128  L 99,134  L 98,134  L 98,139  L 97,139  L 97,141  L 96,141  L 96,143  L 95,143  L 95,144  L 94,144  L 94,145  L 92,145  L 92,146  L 91,146  L 91,147  L 89,147  L 89,148  L 86,148  L 86,149  L 83,149  L 83,150  L 82,150  L 82,151  L 80,151  L 80,152  L 76,152  L 76,153  L 72,153  L 72,154  L 59,154  L 59,153  L 51,153  L 51,152  L 48,152  L 48,151  L 46,151  L 46,150  L 45,150  L 45,149  L 44,149  L 44,148  L 43,148  L 43,146  L 44,146  L 44,144  L 43,144  L 43,143  L 44,143  L 44,140  L 45,140  L 45,135  L 46,135  L 46,132  L 47,132  L 47,130  L 48,130  L 48,129  L 49,129  L 49,127  L 50,127  L 50,126  L 51,126  L 51,125  L 52,125  L 52,123  L 53,123  L 53,122  L 54,122  L 54,121  L 55,121  L 55,120  L 56,120  L 56,119  L 57,119  L 57,118  L 59,118  L 59,117  L 60,117  L 60,116  L 62,116  L 62,115  Z  " style="fill:rgb(0, 0, 0); fill-opacity:1.000; stroke:none;" />
 <path d="  M 106,67  L 105,67  L 105,66  L 106,66  L 106,65  L 105,65  L 105,64  L 106,64  L 106,63  L 105,63  L 105,51  L 104,51  L 104,41  L 103,41  L 103,34  L 102,34  L 102,29  L 101,29  L 101,25  L 100,25  L 100,21  L 99,21  L 99,17  L 98,17  L 98,9  L 97,9  L 97,3  L 96,3  L 96,1  L 94,1  L 94,0  L 91,0  L 91,1  L 90,1  L 90,14  L 91,14  L 91,19  L 92,19  L 92,24  L 93,24  L 93,28  L 94,28  L 94,32  L 95,32  L 95,35  L 96,35  L 96,42  L 97,42  L 97,49  L 98,49  L 98,51  L 97,51  L 97,52  L 98,52  L 98,62  L 99,62  L 99,81  L 100,81  L 100,98  L 101,98  L 101,99  L 100,99  L 100,100  L 101,100  L 101,103  L 102,103  L 102,104  L 103,104  L 103,105  L 105,105  L 105,104  L 106,104  Z  " style="fill:rgb(0, 0, 0); fill-opacity:1.000; stroke:none;" />
</svg>
