<?xml version="1.0" encoding="UTF-8" standalone="no"?>
<!DOCTYPE svg PUBLIC "-//W3C//DTD SVG 1.1//EN" 
  "http://www.w3.org/Graphics/SVG/1.1/DTD/svg11.dtd">
<svg width="105" height="143"
     xmlns="http://www.w3.org/2000/svg" version="1.1">
 <path d="  M 17,92  L 17,93  L 16,93  L 16,92  L 14,92  L 14,93  L 13,93  L 13,92  L 11,92  L 11,93  L 8,93  L 8,95  L 7,95  L 7,97  L 8,97  L 8,100  L 10,100  L 10,101  L 11,101  L 11,102  L 13,102  L 13,101  L 15,101  L 15,100  L 18,100  L 18,99  L 31,99  L 31,100  L 32,100  L 32,99  L 33,99  L 33,100  L 36,100  L 36,101  L 37,101  L 37,102  L 36,102  L 36,103  L 37,103  L 37,105  L 36,105  L 36,109  L 35,109  L 35,112  L 34,112  L 34,113  L 31,113  L 31,114  L 27,114  L 27,115  L 22,115  L 22,116  L 21,116  L 21,115  L 20,115  L 20,116  L 18,116  L 18,117  L 15,117  L 15,118  L 11,118  L 11,119  L 10,119  L 10,118  L 9,118  L 9,119  L 6,119  L 6,120  L 5,120  L 5,121  L 4,121  L 4,122  L 3,122  L 3,123  L 2,123  L 2,127  L 1,127  L 1,133  L 2,133  L 2,138  L 3,138  L 3,139  L 4,139  L 4,140  L 5,140  L 5,141  L 6,141  L 6,142  L 7,142  L 7,143  L 8,143  L 8,142  L 9,142  L 9,143  L 40,143  L 40,142  L 44,142  L 44,141  L 46,141  L 46,142  L 47,142  L 47,141  L 54,141  L 54,140  L 57,140  L 57,137  L 58,137  L 58,136  L 57,136  L 57,134  L 56,134  L 56,132  L 55,132  L 55,131  L 52,131  L 52,132  L 50,132  L 50,133  L 48,133  L 48,134  L 45,134  L 45,135  L 40,135  L 40,136  L 36,136  L 36,137  L 34,137  L 34,136  L 33,136  L 33,137  L 26,137  L 26,138  L 25,138  L 25,137  L 24,137  L 24,138  L 21,138  L 21,137  L 20,137  L 20,138  L 19,138  L 19,137  L 15,137  L 15,136  L 11,136  L 11,135  L 10,135  L 10,134  L 9,134  L 9,133  L 8,133  L 8,128  L 9,128  L 9,127  L 10,127  L 10,126  L 12,126  L 12,125  L 15,125  L 15,124  L 18,124  L 18,123  L 19,123  L 19,124  L 20,124  L 20,123  L 21,123  L 21,122  L 25,122  L 25,121  L 28,121  L 28,120  L 32,120  L 32,119  L 36,119  L 36,118  L 38,118  L 38,117  L 39,117  L 39,116  L 40,116  L 40,115  L 41,115  L 41,113  L 42,113  L 42,112  L 43,112  L 43,111  L 44,111  L 44,110  L 45,110  L 45,105  L 46,105  L 46,100  L 47,100  L 47,98  L 57,98  L 57,99  L 58,99  L 58,103  L 59,103  L 59,105  L 58,105  L 58,106  L 59,106  L 59,109  L 58,109  L 58,110  L 59,110  L 59,120  L 60,120  L 60,125  L 61,125  L 61,129  L 62,129  L 62,139  L 63,139  L 63,142  L 66,142  L 66,143  L 75,143  L 75,142  L 83,142  L 83,141  L 85,141  L 85,140  L 87,140  L 87,139  L 88,139  L 88,138  L 89,138  L 89,137  L 90,137  L 90,136  L 91,136  L 91,135  L 92,135  L 92,133  L 94,133  L 94,132  L 95,132  L 95,131  L 96,131  L 96,130  L 97,130  L 97,129  L 98,129  L 98,126  L 99,126  L 99,124  L 100,124  L 100,123  L 101,123  L 101,121  L 102,121  L 102,119  L 103,119  L 103,116  L 104,116  L 104,114  L 105,114  L 105,104  L 104,104  L 104,101  L 103,101  L 103,99  L 102,99  L 102,98  L 101,98  L 101,97  L 100,97  L 100,96  L 99,96  L 99,95  L 98,95  L 98,94  L 97,94  L 97,93  L 96,93  L 96,92  L 89,92  L 89,91  L 88,91  L 88,92  L 87,92  L 87,91  L 77,91  L 77,90  L 75,90  L 75,91  L 73,91  L 73,90  L 71,90  L 71,91  L 69,91  L 69,90  L 66,90  L 66,91  L 65,91  L 65,90  L 55,90  L 55,91  L 50,91  L 50,92  L 48,92  L 48,91  L 46,91  L 46,92  L 45,92  L 45,91  L 44,91  L 44,92  L 33,92  L 33,91  L 32,91  L 32,92  L 29,92  L 29,91  L 28,91  L 28,92  L 25,92  L 25,91  L 24,91  L 24,92  Z  M 94,100  L 94,101  L 95,101  L 95,102  L 96,102  L 96,114  L 95,114  L 95,117  L 94,117  L 94,120  L 93,120  L 93,121  L 92,121  L 92,122  L 91,122  L 91,124  L 90,124  L 90,126  L 89,126  L 89,128  L 88,128  L 88,129  L 87,129  L 87,130  L 86,130  L 86,131  L 85,131  L 85,132  L 84,132  L 84,133  L 82,133  L 82,134  L 81,134  L 81,135  L 79,135  L 79,136  L 73,136  L 73,137  L 69,137  L 69,133  L 68,133  L 68,123  L 67,123  L 67,115  L 66,115  L 66,113  L 67,113  L 67,111  L 66,111  L 66,103  L 67,103  L 67,101  L 68,101  L 68,100  Z  " style="fill:rgb(0, 0, 0); fill-opacity:1.000; stroke:none;" />
 <path d="  M 99,52  L 98,52  L 98,51  L 83,51  L 83,52  L 81,52  L 81,51  L 80,51  L 80,52  L 69,52  L 69,51  L 68,51  L 68,52  L 65,52  L 65,51  L 64,51  L 64,52  L 61,52  L 61,51  L 60,51  L 60,52  L 56,52  L 56,53  L 51,53  L 51,54  L 39,54  L 39,55  L 22,55  L 22,56  L 21,56  L 21,55  L 20,55  L 20,56  L 17,56  L 17,55  L 16,55  L 16,56  L 5,56  L 5,57  L 4,57  L 4,58  L 3,58  L 3,60  L 4,60  L 4,62  L 7,62  L 7,63  L 8,63  L 8,64  L 16,64  L 16,63  L 17,63  L 17,64  L 18,64  L 18,63  L 19,63  L 19,64  L 20,64  L 20,63  L 23,63  L 23,64  L 24,64  L 24,63  L 27,63  L 27,64  L 28,64  L 28,63  L 33,63  L 33,62  L 34,62  L 34,63  L 35,63  L 35,62  L 36,62  L 36,63  L 37,63  L 37,62  L 49,62  L 49,63  L 50,63  L 50,74  L 49,74  L 49,76  L 50,76  L 50,83  L 51,83  L 51,86  L 52,86  L 52,87  L 53,87  L 53,88  L 55,88  L 55,89  L 57,89  L 57,88  L 59,88  L 59,86  L 60,86  L 60,84  L 59,84  L 59,81  L 58,81  L 58,80  L 59,80  L 59,79  L 58,79  L 58,73  L 57,73  L 57,72  L 58,72  L 58,71  L 57,71  L 57,70  L 58,70  L 58,69  L 57,69  L 57,68  L 58,68  L 58,67  L 57,67  L 57,66  L 58,66  L 58,65  L 57,65  L 57,61  L 59,61  L 59,60  L 60,60  L 60,61  L 61,61  L 61,60  L 92,60  L 92,59  L 97,59  L 97,58  L 98,58  L 98,56  L 99,56  Z  " style="fill:rgb(0, 0, 0); fill-opacity:1.000; stroke:none;" />
 <path d="  M 69,19  L 68,19  L 68,25  L 67,25  L 67,26  L 68,26  L 68,27  L 67,27  L 67,33  L 66,33  L 66,41  L 65,41  L 65,46  L 66,46  L 66,47  L 67,47  L 67,48  L 71,48  L 71,47  L 73,47  L 73,44  L 74,44  L 74,36  L 75,36  L 75,35  L 74,35  L 74,32  L 75,32  L 75,31  L 74,31  L 74,30  L 75,30  L 75,20  L 76,20  L 76,19  L 75,19  L 75,18  L 76,18  L 76,5  L 75,5  L 75,4  L 74,4  L 74,3  L 73,3  L 73,2  L 72,2  L 72,1  L 71,1  L 71,2  L 70,2  L 70,1  L 67,1  L 67,2  L 66,2  L 66,1  L 59,1  L 59,2  L 58,2  L 58,1  L 56,1  L 56,2  L 44,2  L 44,3  L 31,3  L 31,4  L 30,4  L 30,3  L 28,3  L 28,4  L 22,4  L 22,5  L 20,5  L 20,6  L 19,6  L 19,7  L 18,7  L 18,8  L 17,8  L 17,10  L 16,10  L 16,12  L 17,12  L 17,13  L 18,13  L 18,14  L 21,14  L 21,13  L 23,13  L 23,12  L 26,12  L 26,11  L 31,11  L 31,10  L 37,10  L 37,9  L 38,9  L 38,10  L 39,10  L 39,9  L 67,9  L 67,10  L 69,10  Z  " style="fill:rgb(0, 0, 0); fill-opacity:1.000; stroke:none;" />
</svg>
