<?xml version="1.0" encoding="UTF-8" standalone="no"?>
<!DOCTYPE svg PUBLIC "-//W3C//DTD SVG 1.1//EN" 
  "http://www.w3.org/Graphics/SVG/1.1/DTD/svg11.dtd">
<svg width="100" height="141"
     xmlns="http://www.w3.org/2000/svg" version="1.1">
 <path d="  M 26,134  L 27,134  L 27,138  L 28,138  L 28,139  L 29,139  L 29,140  L 31,140  L 31,141  L 50,141  L 50,140  L 51,140  L 51,141  L 52,141  L 52,140  L 55,140  L 55,139  L 60,139  L 60,138  L 62,138  L 62,137  L 65,137  L 65,136  L 66,136  L 66,137  L 67,137  L 67,136  L 69,136  L 69,135  L 72,135  L 72,134  L 74,134  L 74,133  L 76,133  L 76,132  L 77,132  L 77,130  L 78,130  L 78,127  L 79,127  L 79,125  L 80,125  L 80,121  L 81,121  L 81,117  L 82,117  L 82,113  L 83,113  L 83,112  L 82,112  L 82,111  L 83,111  L 83,107  L 84,107  L 84,102  L 85,102  L 85,99  L 84,99  L 84,95  L 83,95  L 83,94  L 81,94  L 81,93  L 77,93  L 77,92  L 76,92  L 76,93  L 73,93  L 73,92  L 72,92  L 72,93  L 69,93  L 69,94  L 62,94  L 62,93  L 61,93  L 61,94  L 60,94  L 60,93  L 59,93  L 59,91  L 58,91  L 58,89  L 59,89  L 59,88  L 58,88  L 58,85  L 59,85  L 59,84  L 58,84  L 58,81  L 59,81  L 59,80  L 58,80  L 58,77  L 59,77  L 59,76  L 58,76  L 58,71  L 59,71  L 59,70  L 58,70  L 58,67  L 59,67  L 59,66  L 58,66  L 58,59  L 59,59  L 59,58  L 69,58  L 69,57  L 77,57  L 77,56  L 78,56  L 78,57  L 79,57  L 79,56  L 85,56  L 85,55  L 86,55  L 86,56  L 87,56  L 87,55  L 95,55  L 95,54  L 99,54  L 99,53  L 100,53  L 100,48  L 86,48  L 86,49  L 85,49  L 85,48  L 84,48  L 84,49  L 76,49  L 76,50  L 65,50  L 65,49  L 67,49  L 67,47  L 68,47  L 68,45  L 69,45  L 69,43  L 68,43  L 68,42  L 69,42  L 69,33  L 70,33  L 70,25  L 71,25  L 71,24  L 70,24  L 70,23  L 71,23  L 71,17  L 72,17  L 72,9  L 73,9  L 73,8  L 72,8  L 72,4  L 71,4  L 71,3  L 70,3  L 70,2  L 68,2  L 68,1  L 62,1  L 62,0  L 60,0  L 60,1  L 49,1  L 49,2  L 31,2  L 31,3  L 24,3  L 24,4  L 19,4  L 19,5  L 17,5  L 17,6  L 16,6  L 16,7  L 15,7  L 15,8  L 14,8  L 14,11  L 13,11  L 13,12  L 12,12  L 12,13  L 13,13  L 13,14  L 14,14  L 14,15  L 17,15  L 17,14  L 19,14  L 19,13  L 21,13  L 21,12  L 23,12  L 23,11  L 26,11  L 26,10  L 31,10  L 31,9  L 49,9  L 49,8  L 50,8  L 50,9  L 53,9  L 53,8  L 56,8  L 56,9  L 57,9  L 57,8  L 63,8  L 63,9  L 64,9  L 64,12  L 65,12  L 65,18  L 64,18  L 64,26  L 63,26  L 63,30  L 62,30  L 62,36  L 61,36  L 61,44  L 60,44  L 60,46  L 61,46  L 61,48  L 62,48  L 62,49  L 64,49  L 64,51  L 61,51  L 61,50  L 60,50  L 60,51  L 55,51  L 55,52  L 40,52  L 40,53  L 37,53  L 37,52  L 36,52  L 36,53  L 30,53  L 30,54  L 14,54  L 14,55  L 6,55  L 6,56  L 0,56  L 0,57  L 1,57  L 1,58  L 0,58  L 0,59  L 1,59  L 1,62  L 2,62  L 2,61  L 3,61  L 3,63  L 4,63  L 4,62  L 11,62  L 11,61  L 13,61  L 13,62  L 14,62  L 14,61  L 25,61  L 25,60  L 27,60  L 27,61  L 28,61  L 28,60  L 35,60  L 35,59  L 36,59  L 36,60  L 48,60  L 48,59  L 51,59  L 51,61  L 52,61  L 52,62  L 51,62  L 51,63  L 52,63  L 52,64  L 51,64  L 51,67  L 52,67  L 52,68  L 51,68  L 51,71  L 52,71  L 52,74  L 51,74  L 51,75  L 52,75  L 52,96  L 49,96  L 49,97  L 45,97  L 45,96  L 44,96  L 44,97  L 31,97  L 31,96  L 30,96  L 30,95  L 29,95  L 29,94  L 27,94  L 27,93  L 26,93  L 26,94  L 24,94  L 24,95  L 23,95  L 23,96  L 19,96  L 19,97  L 18,97  L 18,100  L 19,100  L 19,101  L 22,101  L 22,102  L 24,102  L 24,109  L 25,109  L 25,111  L 24,111  L 24,113  L 25,113  L 25,121  L 26,121  L 26,122  L 25,122  L 25,125  L 26,125  L 26,127  L 25,127  L 25,129  L 26,129  Z  M 32,109  L 32,104  L 34,104  L 34,103  L 41,103  L 41,102  L 42,102  L 42,103  L 43,103  L 43,102  L 53,102  L 53,101  L 54,101  L 54,102  L 57,102  L 57,101  L 65,101  L 65,100  L 67,100  L 67,101  L 68,101  L 68,100  L 74,100  L 74,99  L 76,99  L 76,100  L 77,100  L 77,107  L 76,107  L 76,114  L 75,114  L 75,118  L 74,118  L 74,121  L 73,121  L 73,124  L 72,124  L 72,126  L 71,126  L 71,128  L 70,128  L 70,129  L 67,129  L 67,130  L 65,130  L 65,131  L 62,131  L 62,132  L 57,132  L 57,133  L 53,133  L 53,134  L 50,134  L 50,135  L 43,135  L 43,136  L 40,136  L 40,135  L 39,135  L 39,136  L 38,136  L 38,135  L 34,135  L 34,133  L 33,133  L 33,128  L 32,128  L 32,118  L 31,118  L 31,117  L 32,117  L 32,114  L 31,114  L 31,113  L 32,113  L 32,111  L 31,111  L 31,109  Z  " style="fill:rgb(0, 0, 0); fill-opacity:1.000; stroke:none;" />
</svg>
