<?xml version="1.0" encoding="UTF-8" standalone="no"?>
<!DOCTYPE svg PUBLIC "-//W3C//DTD SVG 1.1//EN" 
  "http://www.w3.org/Graphics/SVG/1.1/DTD/svg11.dtd">
<svg width="101" height="152"
     xmlns="http://www.w3.org/2000/svg" version="1.1">
 <path d="  M 55,59  L 59,59  L 59,58  L 70,58  L 70,57  L 71,57  L 71,58  L 74,58  L 74,57  L 75,57  L 75,58  L 76,58  L 76,57  L 82,57  L 82,56  L 88,56  L 88,55  L 91,55  L 91,54  L 93,54  L 93,53  L 95,53  L 95,52  L 97,52  L 97,51  L 99,51  L 99,50  L 100,50  L 100,49  L 101,49  L 101,46  L 94,46  L 94,47  L 90,47  L 90,48  L 85,48  L 85,49  L 79,49  L 79,50  L 66,50  L 66,48  L 68,48  L 68,47  L 69,47  L 69,43  L 70,43  L 70,42  L 69,42  L 69,39  L 70,39  L 70,29  L 71,29  L 71,22  L 72,22  L 72,14  L 73,14  L 73,6  L 72,6  L 72,5  L 71,5  L 71,3  L 70,3  L 70,2  L 65,2  L 65,1  L 56,1  L 56,0  L 55,0  L 55,1  L 31,1  L 31,2  L 24,2  L 24,3  L 22,3  L 22,4  L 19,4  L 19,5  L 18,5  L 18,6  L 16,6  L 16,8  L 15,8  L 15,13  L 16,13  L 16,14  L 19,14  L 19,13  L 21,13  L 21,12  L 24,12  L 24,11  L 26,11  L 26,10  L 30,10  L 30,9  L 35,9  L 35,8  L 36,8  L 36,9  L 37,9  L 37,8  L 63,8  L 63,9  L 65,9  L 65,13  L 66,13  L 66,16  L 65,16  L 65,18  L 66,18  L 66,19  L 65,19  L 65,24  L 64,24  L 64,28  L 63,28  L 63,32  L 62,32  L 62,39  L 61,39  L 61,47  L 62,47  L 62,48  L 63,48  L 63,50  L 59,50  L 59,51  L 54,51  L 54,52  L 41,52  L 41,53  L 40,53  L 40,52  L 39,52  L 39,53  L 30,53  L 30,54  L 22,54  L 22,55  L 10,55  L 10,56  L 1,56  L 1,61  L 2,61  L 2,62  L 5,62  L 5,63  L 15,63  L 15,62  L 17,62  L 17,63  L 19,63  L 19,62  L 23,62  L 23,61  L 30,61  L 30,60  L 44,60  L 44,59  L 45,59  L 45,60  L 48,60  L 48,87  L 49,87  L 49,93  L 50,93  L 50,95  L 53,95  L 53,97  L 48,97  L 48,98  L 37,98  L 37,99  L 36,99  L 36,98  L 35,98  L 35,99  L 31,99  L 31,100  L 26,100  L 26,101  L 22,101  L 22,102  L 21,102  L 21,104  L 20,104  L 20,105  L 21,105  L 21,107  L 22,107  L 22,108  L 23,108  L 23,107  L 27,107  L 27,106  L 34,106  L 34,105  L 35,105  L 35,106  L 36,106  L 36,105  L 44,105  L 44,104  L 50,104  L 50,103  L 57,103  L 57,102  L 58,102  L 58,103  L 59,103  L 59,102  L 63,102  L 63,106  L 62,106  L 62,107  L 60,107  L 60,108  L 59,108  L 59,109  L 58,109  L 58,110  L 57,110  L 57,111  L 56,111  L 56,112  L 55,112  L 55,113  L 54,113  L 54,114  L 53,114  L 53,115  L 52,115  L 52,116  L 51,116  L 51,117  L 50,117  L 50,119  L 49,119  L 49,120  L 48,120  L 48,121  L 47,121  L 47,123  L 46,123  L 46,124  L 45,124  L 45,126  L 44,126  L 44,127  L 43,127  L 43,128  L 42,128  L 42,130  L 41,130  L 41,132  L 40,132  L 40,133  L 39,133  L 39,134  L 38,134  L 38,136  L 37,136  L 37,137  L 36,137  L 36,138  L 35,138  L 35,139  L 34,139  L 34,140  L 33,140  L 33,141  L 32,141  L 32,142  L 30,142  L 30,144  L 29,144  L 29,146  L 28,146  L 28,147  L 27,147  L 27,151  L 28,151  L 28,152  L 33,152  L 33,151  L 34,151  L 34,150  L 35,150  L 35,149  L 36,149  L 36,148  L 37,148  L 37,147  L 38,147  L 38,146  L 39,146  L 39,145  L 40,145  L 40,144  L 41,144  L 41,143  L 42,143  L 42,141  L 43,141  L 43,140  L 44,140  L 44,138  L 45,138  L 45,137  L 46,137  L 46,135  L 47,135  L 47,134  L 48,134  L 48,133  L 49,133  L 49,132  L 50,132  L 50,130  L 51,130  L 51,128  L 52,128  L 52,127  L 53,127  L 53,126  L 54,126  L 54,124  L 55,124  L 55,123  L 57,123  L 57,122  L 56,122  L 56,121  L 58,121  L 58,122  L 59,122  L 59,123  L 61,123  L 61,124  L 62,124  L 62,125  L 63,125  L 63,126  L 65,126  L 65,127  L 67,127  L 67,128  L 69,128  L 69,129  L 70,129  L 70,130  L 71,130  L 71,131  L 73,131  L 73,132  L 75,132  L 75,133  L 77,133  L 77,134  L 79,134  L 79,135  L 81,135  L 81,136  L 84,136  L 84,137  L 85,137  L 85,138  L 87,138  L 87,139  L 89,139  L 89,140  L 92,140  L 92,141  L 96,141  L 96,142  L 97,142  L 97,143  L 98,143  L 98,142  L 99,142  L 99,143  L 101,143  L 101,139  L 100,139  L 100,137  L 97,137  L 97,136  L 96,136  L 96,135  L 95,135  L 95,134  L 93,134  L 93,133  L 92,133  L 92,132  L 89,132  L 89,131  L 88,131  L 88,130  L 86,130  L 86,129  L 84,129  L 84,128  L 82,128  L 82,127  L 80,127  L 80,126  L 79,126  L 79,125  L 77,125  L 77,124  L 75,124  L 75,123  L 73,123  L 73,122  L 71,122  L 71,121  L 70,121  L 70,120  L 69,120  L 69,119  L 67,119  L 67,118  L 65,118  L 65,116  L 64,116  L 64,115  L 65,115  L 65,113  L 66,113  L 66,112  L 67,112  L 67,111  L 68,111  L 68,110  L 69,110  L 69,109  L 70,109  L 70,108  L 71,108  L 71,107  L 72,107  L 72,104  L 73,104  L 73,99  L 72,99  L 72,98  L 71,98  L 71,97  L 70,97  L 70,96  L 66,96  L 66,95  L 62,95  L 62,96  L 61,96  L 61,95  L 60,95  L 60,96  L 57,96  L 57,95  L 56,95  L 56,94  L 57,94  L 57,90  L 56,90  L 56,82  L 55,82  Z  " style="fill:rgb(0, 0, 0); fill-opacity:1.000; stroke:none;" />
</svg>
