<?xml version="1.0" encoding="UTF-8" standalone="no"?>
<!DOCTYPE svg PUBLIC "-//W3C//DTD SVG 1.1//EN" 
  "http://www.w3.org/Graphics/SVG/1.1/DTD/svg11.dtd">
<svg width="107" height="144"
     xmlns="http://www.w3.org/2000/svg" version="1.1">
 <path d="  M 71,58  L 71,59  L 68,59  L 68,60  L 65,60  L 65,61  L 64,61  L 64,62  L 61,62  L 61,63  L 56,63  L 56,64  L 51,64  L 51,65  L 49,65  L 49,66  L 47,66  L 47,69  L 46,69  L 46,71  L 47,71  L 47,72  L 48,72  L 48,71  L 50,71  L 50,70  L 52,70  L 52,69  L 55,69  L 55,68  L 57,68  L 57,67  L 61,67  L 61,66  L 65,66  L 65,65  L 67,65  L 67,64  L 73,64  L 73,63  L 74,63  L 74,64  L 75,64  L 75,63  L 76,63  L 76,64  L 77,64  L 77,83  L 78,83  L 78,88  L 79,88  L 79,90  L 81,90  L 81,91  L 83,91  L 83,90  L 84,90  L 84,89  L 83,89  L 83,88  L 84,88  L 84,59  L 83,59  L 83,56  L 84,56  L 84,55  L 83,55  L 83,45  L 82,45  L 82,35  L 81,35  L 81,27  L 80,27  L 80,19  L 79,19  L 79,16  L 80,16  L 80,15  L 79,15  L 79,9  L 78,9  L 78,4  L 77,4  L 77,3  L 76,3  L 76,2  L 74,2  L 74,3  L 73,3  L 73,5  L 72,5  L 72,17  L 73,17  L 73,19  L 72,19  L 72,20  L 73,20  L 73,26  L 74,26  L 74,32  L 75,32  L 75,38  L 74,38  L 74,39  L 68,39  L 68,40  L 65,40  L 65,41  L 62,41  L 62,42  L 60,42  L 60,43  L 56,43  L 56,44  L 50,44  L 50,41  L 51,41  L 51,36  L 52,36  L 52,31  L 53,31  L 53,27  L 54,27  L 54,23  L 55,23  L 55,20  L 56,20  L 56,19  L 55,19  L 55,18  L 56,18  L 56,10  L 55,10  L 55,9  L 54,9  L 54,8  L 53,8  L 53,6  L 52,6  L 52,5  L 51,5  L 51,4  L 50,4  L 50,3  L 49,3  L 49,2  L 46,2  L 46,1  L 38,1  L 38,2  L 31,2  L 31,3  L 30,3  L 30,2  L 29,2  L 29,3  L 20,3  L 20,4  L 15,4  L 15,5  L 11,5  L 11,6  L 9,6  L 9,7  L 8,7  L 8,14  L 13,14  L 13,13  L 14,13  L 14,12  L 16,12  L 16,11  L 20,11  L 20,10  L 28,10  L 28,9  L 46,9  L 46,10  L 48,10  L 48,11  L 49,11  L 49,12  L 50,12  L 50,13  L 49,13  L 49,20  L 48,20  L 48,24  L 47,24  L 47,27  L 46,27  L 46,30  L 45,30  L 45,33  L 44,33  L 44,36  L 43,36  L 43,39  L 42,39  L 42,42  L 41,42  L 41,44  L 40,44  L 40,45  L 39,45  L 39,46  L 35,46  L 35,47  L 34,47  L 34,46  L 31,46  L 31,47  L 20,47  L 20,48  L 18,48  L 18,47  L 17,47  L 17,48  L 12,48  L 12,49  L 9,49  L 9,50  L 4,50  L 4,51  L 2,51  L 2,53  L 0,53  L 0,55  L 1,55  L 1,56  L 2,56  L 2,57  L 7,57  L 7,56  L 9,56  L 9,55  L 13,55  L 13,54  L 17,54  L 17,53  L 28,53  L 28,73  L 27,73  L 27,81  L 26,81  L 26,82  L 27,82  L 27,84  L 28,84  L 28,85  L 29,85  L 29,84  L 30,84  L 30,83  L 31,83  L 31,82  L 32,82  L 32,80  L 33,80  L 33,75  L 34,75  L 34,53  L 46,53  L 46,52  L 54,52  L 54,51  L 58,51  L 58,50  L 62,50  L 62,49  L 67,49  L 67,48  L 69,48  L 69,47  L 71,47  L 71,46  L 74,46  L 74,45  L 75,45  L 75,46  L 76,46  L 76,49  L 75,49  L 75,50  L 76,50  L 76,55  L 75,55  L 75,56  L 76,56  L 76,57  L 74,57  L 74,58  Z  " style="fill:rgb(0, 0, 0); fill-opacity:1.000; stroke:none;" />
 <path d="  M 14,132  L 15,132  L 15,133  L 16,133  L 16,134  L 19,134  L 19,132  L 20,132  L 20,131  L 21,131  L 21,130  L 22,130  L 22,129  L 23,129  L 23,128  L 24,128  L 24,127  L 25,127  L 25,126  L 26,126  L 26,125  L 27,125  L 27,124  L 28,124  L 28,122  L 29,122  L 29,121  L 30,121  L 30,120  L 31,120  L 31,118  L 32,118  L 32,117  L 33,117  L 33,116  L 36,116  L 36,117  L 38,117  L 38,118  L 40,118  L 40,119  L 41,119  L 41,118  L 42,118  L 42,119  L 44,119  L 44,120  L 46,120  L 46,121  L 50,121  L 50,122  L 51,122  L 51,123  L 53,123  L 53,124  L 54,124  L 54,125  L 55,125  L 55,126  L 56,126  L 56,127  L 57,127  L 57,126  L 58,126  L 58,125  L 60,125  L 60,123  L 59,123  L 59,121  L 58,121  L 58,120  L 57,120  L 57,119  L 55,119  L 55,118  L 53,118  L 53,117  L 50,117  L 50,116  L 49,116  L 49,115  L 46,115  L 46,114  L 44,114  L 44,113  L 42,113  L 42,112  L 40,112  L 40,110  L 39,110  L 39,107  L 40,107  L 40,106  L 43,106  L 43,104  L 44,104  L 44,103  L 45,103  L 45,102  L 46,102  L 46,100  L 47,100  L 47,99  L 48,99  L 48,98  L 47,98  L 47,97  L 46,97  L 46,96  L 45,96  L 45,95  L 41,95  L 41,94  L 38,94  L 38,95  L 36,95  L 36,94  L 27,94  L 27,95  L 26,95  L 26,98  L 27,98  L 27,99  L 28,99  L 28,100  L 30,100  L 30,101  L 31,101  L 31,103  L 32,103  L 32,102  L 33,102  L 33,103  L 34,103  L 34,101  L 35,101  L 35,100  L 36,100  L 36,99  L 37,99  L 37,98  L 38,98  L 38,100  L 37,100  L 37,102  L 36,102  L 36,104  L 37,104  L 37,106  L 36,106  L 36,107  L 34,107  L 34,108  L 33,108  L 33,109  L 32,109  L 32,111  L 30,111  L 30,113  L 28,113  L 28,115  L 26,115  L 26,116  L 25,116  L 25,117  L 24,117  L 24,119  L 23,119  L 23,120  L 22,120  L 22,121  L 21,121  L 21,122  L 20,122  L 20,123  L 19,123  L 19,124  L 18,124  L 18,125  L 17,125  L 17,126  L 16,126  L 16,127  L 15,127  L 15,128  L 14,128  Z  " style="fill:rgb(0, 0, 0); fill-opacity:1.000; stroke:none;" />
 <path d="  M 107,132  L 106,132  L 106,130  L 104,130  L 104,129  L 103,129  L 103,128  L 101,128  L 101,127  L 99,127  L 99,126  L 98,126  L 98,125  L 97,125  L 97,124  L 95,124  L 95,123  L 93,123  L 93,122  L 92,122  L 92,121  L 90,121  L 90,120  L 88,120  L 88,119  L 86,119  L 86,118  L 85,118  L 85,117  L 83,117  L 83,116  L 82,116  L 82,115  L 81,115  L 81,114  L 80,114  L 80,113  L 79,113  L 79,112  L 78,112  L 78,108  L 79,108  L 79,105  L 80,105  L 80,103  L 81,103  L 81,100  L 82,100  L 82,97  L 81,97  L 81,95  L 76,95  L 76,97  L 75,97  L 75,100  L 74,100  L 74,102  L 73,102  L 73,105  L 72,105  L 72,108  L 71,108  L 71,111  L 70,111  L 70,113  L 69,113  L 69,115  L 68,115  L 68,116  L 67,116  L 67,119  L 66,119  L 66,120  L 65,120  L 65,123  L 64,123  L 64,124  L 63,124  L 63,126  L 62,126  L 62,128  L 61,128  L 61,130  L 60,130  L 60,132  L 57,132  L 57,133  L 56,133  L 56,135  L 55,135  L 55,136  L 54,136  L 54,139  L 53,139  L 53,140  L 54,140  L 54,144  L 59,144  L 59,143  L 60,143  L 60,141  L 61,141  L 61,138  L 62,138  L 62,136  L 64,136  L 64,134  L 65,134  L 65,132  L 66,132  L 66,131  L 67,131  L 67,128  L 68,128  L 68,127  L 69,127  L 69,125  L 70,125  L 70,123  L 71,123  L 71,121  L 72,121  L 72,118  L 73,118  L 73,117  L 74,117  L 74,118  L 75,118  L 75,119  L 76,119  L 76,120  L 77,120  L 77,121  L 78,121  L 78,122  L 80,122  L 80,123  L 83,123  L 83,124  L 85,124  L 85,125  L 87,125  L 87,126  L 88,126  L 88,127  L 91,127  L 91,128  L 92,128  L 92,129  L 94,129  L 94,130  L 95,130  L 95,131  L 96,131  L 96,132  L 97,132  L 97,133  L 98,133  L 98,134  L 99,134  L 99,135  L 101,135  L 101,136  L 102,136  L 102,138  L 103,138  L 103,140  L 104,140  L 104,141  L 105,141  L 105,142  L 106,142  L 106,141  L 107,141  Z  " style="fill:rgb(0, 0, 0); fill-opacity:1.000; stroke:none;" />
</svg>
