<?xml version="1.0" encoding="UTF-8" standalone="no"?>
<!DOCTYPE svg PUBLIC "-//W3C//DTD SVG 1.1//EN" 
  "http://www.w3.org/Graphics/SVG/1.1/DTD/svg11.dtd">
<svg width="110" height="145"
     xmlns="http://www.w3.org/2000/svg" version="1.1">
 <path d="  M 13,12  L 13,11  L 15,11  L 15,10  L 21,10  L 21,9  L 22,9  L 22,10  L 23,10  L 23,9  L 35,9  L 35,8  L 36,8  L 36,9  L 39,9  L 39,8  L 41,8  L 41,9  L 42,9  L 42,8  L 47,8  L 47,9  L 48,9  L 48,10  L 47,10  L 47,11  L 48,11  L 48,12  L 47,12  L 47,13  L 48,13  L 48,14  L 47,14  L 47,17  L 46,17  L 46,18  L 45,18  L 45,19  L 44,19  L 44,22  L 43,22  L 43,25  L 42,25  L 42,29  L 41,29  L 41,33  L 40,33  L 40,36  L 39,36  L 39,39  L 38,39  L 38,41  L 37,41  L 37,45  L 33,45  L 33,46  L 29,46  L 29,47  L 20,47  L 20,48  L 12,48  L 12,49  L 7,49  L 7,50  L 5,50  L 5,51  L 4,51  L 4,52  L 1,52  L 1,54  L 0,54  L 0,56  L 1,56  L 1,57  L 2,57  L 2,59  L 4,59  L 4,58  L 7,58  L 7,57  L 9,57  L 9,56  L 11,56  L 11,55  L 19,55  L 19,54  L 26,54  L 26,59  L 25,59  L 25,60  L 26,60  L 26,61  L 25,61  L 25,71  L 24,71  L 24,76  L 23,76  L 23,80  L 22,80  L 22,84  L 21,84  L 21,87  L 20,87  L 20,92  L 21,92  L 21,93  L 23,93  L 23,92  L 25,92  L 25,91  L 26,91  L 26,90  L 27,90  L 27,87  L 28,87  L 28,86  L 29,86  L 29,85  L 28,85  L 28,83  L 29,83  L 29,78  L 30,78  L 30,72  L 31,72  L 31,66  L 32,66  L 32,57  L 33,57  L 33,54  L 34,54  L 34,53  L 35,53  L 35,52  L 43,52  L 43,51  L 44,51  L 44,52  L 45,52  L 45,51  L 53,51  L 53,50  L 55,50  L 55,49  L 61,49  L 61,48  L 65,48  L 65,47  L 67,47  L 67,44  L 53,44  L 53,45  L 44,45  L 44,43  L 45,43  L 45,40  L 46,40  L 46,38  L 47,38  L 47,33  L 48,33  L 48,30  L 49,30  L 49,28  L 50,28  L 50,25  L 51,25  L 51,22  L 52,22  L 52,19  L 53,19  L 53,17  L 54,17  L 54,14  L 55,14  L 55,5  L 54,5  L 54,3  L 53,3  L 53,2  L 52,2  L 52,1  L 41,1  L 41,2  L 36,2  L 36,3  L 21,3  L 21,4  L 14,4  L 14,5  L 7,5  L 7,6  L 6,6  L 6,8  L 5,8  L 5,11  L 4,11  L 4,12  L 5,12  L 5,13  L 6,13  L 6,14  L 9,14  L 9,13  L 10,13  L 10,14  L 11,14  L 11,13  L 12,13  L 12,12  Z  " style="fill:rgb(0, 0, 0); fill-opacity:1.000; stroke:none;" />
 <path d="  M 52,129  L 52,127  L 53,127  L 53,125  L 54,125  L 54,124  L 55,124  L 55,122  L 56,122  L 56,121  L 57,121  L 57,120  L 58,120  L 58,119  L 59,119  L 59,118  L 60,118  L 60,116  L 61,116  L 61,114  L 65,114  L 65,115  L 66,115  L 66,116  L 67,116  L 67,117  L 68,117  L 68,118  L 70,118  L 70,119  L 71,119  L 71,120  L 72,120  L 72,121  L 74,121  L 74,122  L 75,122  L 75,123  L 77,123  L 77,124  L 79,124  L 79,125  L 81,125  L 81,126  L 82,126  L 82,127  L 84,127  L 84,128  L 85,128  L 85,129  L 88,129  L 88,130  L 90,130  L 90,131  L 93,131  L 93,132  L 96,132  L 96,133  L 98,133  L 98,134  L 99,134  L 99,135  L 101,135  L 101,136  L 103,136  L 103,137  L 105,137  L 105,138  L 109,138  L 109,137  L 110,137  L 110,133  L 109,133  L 109,132  L 108,132  L 108,131  L 107,131  L 107,130  L 104,130  L 104,129  L 103,129  L 103,128  L 101,128  L 101,127  L 98,127  L 98,126  L 95,126  L 95,125  L 92,125  L 92,124  L 91,124  L 91,123  L 89,123  L 89,122  L 87,122  L 87,121  L 86,121  L 86,120  L 84,120  L 84,119  L 82,119  L 82,118  L 80,118  L 80,117  L 79,117  L 79,116  L 78,116  L 78,115  L 77,115  L 77,114  L 75,114  L 75,113  L 73,113  L 73,112  L 72,112  L 72,111  L 70,111  L 70,110  L 69,110  L 69,109  L 68,109  L 68,108  L 67,108  L 67,105  L 68,105  L 68,104  L 69,104  L 69,103  L 71,103  L 71,102  L 73,102  L 73,100  L 74,100  L 74,99  L 75,99  L 75,98  L 76,98  L 76,97  L 77,97  L 77,96  L 78,96  L 78,95  L 79,95  L 79,91  L 80,91  L 80,89  L 81,89  L 81,86  L 82,86  L 82,84  L 83,84  L 83,82  L 84,82  L 84,70  L 85,70  L 85,69  L 84,69  L 84,66  L 85,66  L 85,65  L 84,65  L 84,43  L 83,43  L 83,37  L 82,37  L 82,29  L 81,29  L 81,21  L 80,21  L 80,9  L 79,9  L 79,8  L 78,8  L 78,6  L 77,6  L 77,5  L 74,5  L 74,6  L 73,6  L 73,14  L 74,14  L 74,23  L 75,23  L 75,25  L 74,25  L 74,26  L 75,26  L 75,30  L 76,30  L 76,31  L 75,31  L 75,32  L 76,32  L 76,38  L 77,38  L 77,39  L 76,39  L 76,40  L 77,40  L 77,60  L 75,60  L 75,59  L 67,59  L 67,58  L 66,58  L 66,59  L 63,59  L 63,60  L 58,60  L 58,61  L 57,61  L 57,60  L 56,60  L 56,61  L 51,61  L 51,62  L 49,62  L 49,63  L 47,63  L 47,64  L 44,64  L 44,65  L 41,65  L 41,72  L 42,72  L 42,71  L 43,71  L 43,70  L 45,70  L 45,69  L 47,69  L 47,68  L 53,68  L 53,67  L 60,67  L 60,66  L 72,66  L 72,65  L 73,65  L 73,66  L 76,66  L 76,67  L 77,67  L 77,79  L 76,79  L 76,80  L 77,80  L 77,82  L 76,82  L 76,86  L 75,86  L 75,92  L 72,92  L 72,93  L 71,93  L 71,94  L 70,94  L 70,95  L 69,95  L 69,96  L 68,96  L 68,97  L 67,97  L 67,98  L 66,98  L 66,99  L 64,99  L 64,100  L 63,100  L 63,101  L 61,101  L 61,102  L 60,102  L 60,104  L 59,104  L 59,105  L 58,105  L 58,107  L 57,107  L 57,108  L 56,108  L 56,110  L 55,110  L 55,112  L 54,112  L 54,113  L 53,113  L 53,114  L 52,114  L 52,115  L 51,115  L 51,117  L 50,117  L 50,118  L 49,118  L 49,119  L 48,119  L 48,121  L 47,121  L 47,122  L 46,122  L 46,123  L 45,123  L 45,126  L 44,126  L 44,127  L 43,127  L 43,128  L 42,128  L 42,129  L 41,129  L 41,131  L 40,131  L 40,133  L 39,133  L 39,134  L 38,134  L 38,135  L 37,135  L 37,137  L 35,137  L 35,139  L 34,139  L 34,140  L 33,140  L 33,144  L 34,144  L 34,145  L 39,145  L 39,144  L 41,144  L 41,143  L 42,143  L 42,142  L 43,142  L 43,140  L 44,140  L 44,139  L 45,139  L 45,138  L 46,138  L 46,137  L 47,137  L 47,135  L 48,135  L 48,134  L 49,134  L 49,132  L 50,132  L 50,130  L 51,130  L 51,129  Z  " style="fill:rgb(0, 0, 0); fill-opacity:1.000; stroke:none;" />
 <path d="  M 99,28  L 99,34  L 100,34  L 100,44  L 101,44  L 101,62  L 102,62  L 102,63  L 101,63  L 101,66  L 102,66  L 102,69  L 101,69  L 101,70  L 102,70  L 102,73  L 101,73  L 101,74  L 102,74  L 102,76  L 101,76  L 101,78  L 102,78  L 102,80  L 101,80  L 101,82  L 102,82  L 102,83  L 101,83  L 101,86  L 102,86  L 102,87  L 101,87  L 101,90  L 102,90  L 102,92  L 103,92  L 103,93  L 104,93  L 104,92  L 106,92  L 106,91  L 107,91  L 107,90  L 108,90  L 108,86  L 109,86  L 109,85  L 108,85  L 108,82  L 109,82  L 109,81  L 108,81  L 108,80  L 109,80  L 109,77  L 108,77  L 108,76  L 109,76  L 109,69  L 108,69  L 108,68  L 109,68  L 109,61  L 108,61  L 108,60  L 109,60  L 109,59  L 108,59  L 108,58  L 109,58  L 109,57  L 108,57  L 108,47  L 107,47  L 107,46  L 108,46  L 108,45  L 107,45  L 107,44  L 108,44  L 108,43  L 107,43  L 107,40  L 106,40  L 106,33  L 105,33  L 105,27  L 104,27  L 104,26  L 105,26  L 105,25  L 104,25  L 104,19  L 103,19  L 103,12  L 102,12  L 102,10  L 101,10  L 101,9  L 100,9  L 100,10  L 98,10  L 98,13  L 97,13  L 97,22  L 98,22  L 98,28  Z  " style="fill:rgb(0, 0, 0); fill-opacity:1.000; stroke:none;" />
</svg>
