<?xml version="1.0" encoding="UTF-8" standalone="no"?>
<!DOCTYPE svg PUBLIC "-//W3C//DTD SVG 1.1//EN" 
  "http://www.w3.org/Graphics/SVG/1.1/DTD/svg11.dtd">
<svg width="99" height="168"
     xmlns="http://www.w3.org/2000/svg" version="1.1">
 <path d="  M 30,85  L 31,85  L 31,95  L 32,95  L 32,102  L 33,102  L 33,105  L 34,105  L 34,111  L 33,111  L 33,113  L 35,113  L 35,114  L 47,114  L 47,113  L 49,113  L 49,114  L 50,114  L 50,113  L 53,113  L 53,114  L 63,114  L 63,115  L 64,115  L 64,114  L 66,114  L 66,115  L 68,115  L 68,116  L 71,116  L 71,117  L 73,117  L 73,118  L 74,118  L 74,119  L 75,119  L 75,120  L 74,120  L 74,122  L 73,122  L 73,123  L 72,123  L 72,124  L 70,124  L 70,125  L 67,125  L 67,126  L 65,126  L 65,127  L 64,127  L 64,128  L 62,128  L 62,129  L 60,129  L 60,130  L 58,130  L 58,132  L 56,132  L 56,134  L 55,134  L 55,135  L 52,135  L 52,136  L 48,136  L 48,137  L 46,137  L 46,138  L 43,138  L 43,139  L 41,139  L 41,138  L 40,138  L 40,139  L 39,139  L 39,140  L 33,140  L 33,141  L 30,141  L 30,143  L 28,143  L 28,144  L 27,144  L 27,145  L 26,145  L 26,147  L 25,147  L 25,148  L 23,148  L 23,150  L 22,150  L 22,155  L 23,155  L 23,156  L 24,156  L 24,157  L 25,157  L 25,158  L 24,158  L 24,159  L 26,159  L 26,163  L 27,163  L 27,164  L 28,164  L 28,165  L 29,165  L 29,166  L 30,166  L 30,165  L 31,165  L 31,167  L 32,167  L 32,166  L 34,166  L 34,167  L 38,167  L 38,168  L 67,168  L 67,167  L 69,167  L 69,166  L 73,166  L 73,165  L 75,165  L 75,164  L 78,164  L 78,163  L 81,163  L 81,162  L 83,162  L 83,161  L 85,161  L 85,160  L 88,160  L 88,159  L 89,159  L 89,158  L 92,158  L 92,157  L 93,157  L 93,156  L 94,156  L 94,155  L 95,155  L 95,154  L 96,154  L 96,151  L 95,151  L 95,149  L 94,149  L 94,148  L 92,148  L 92,149  L 90,149  L 90,150  L 88,150  L 88,151  L 85,151  L 85,152  L 83,152  L 83,153  L 81,153  L 81,154  L 80,154  L 80,155  L 78,155  L 78,156  L 76,156  L 76,157  L 73,157  L 73,158  L 72,158  L 72,159  L 68,159  L 68,160  L 64,160  L 64,161  L 61,161  L 61,160  L 60,160  L 60,161  L 56,161  L 56,162  L 45,162  L 45,161  L 41,161  L 41,160  L 40,160  L 40,161  L 39,161  L 39,160  L 34,160  L 34,159  L 33,159  L 33,158  L 31,158  L 31,156  L 30,156  L 30,153  L 31,153  L 31,150  L 34,150  L 34,149  L 36,149  L 36,148  L 39,148  L 39,147  L 41,147  L 41,146  L 47,146  L 47,145  L 49,145  L 49,144  L 51,144  L 51,143  L 53,143  L 53,142  L 55,142  L 55,141  L 58,141  L 58,140  L 60,140  L 60,139  L 62,139  L 62,138  L 64,138  L 64,137  L 65,137  L 65,136  L 66,136  L 66,135  L 68,135  L 68,134  L 69,134  L 69,133  L 71,133  L 71,132  L 72,132  L 72,131  L 73,131  L 73,130  L 76,130  L 76,129  L 77,129  L 77,128  L 79,128  L 79,127  L 80,127  L 80,126  L 81,126  L 81,125  L 82,125  L 82,124  L 83,124  L 83,123  L 84,123  L 84,120  L 85,120  L 85,117  L 84,117  L 84,115  L 83,115  L 83,114  L 82,114  L 82,113  L 81,113  L 81,112  L 79,112  L 79,111  L 78,111  L 78,110  L 72,110  L 72,109  L 70,109  L 70,108  L 64,108  L 64,107  L 63,107  L 63,108  L 62,108  L 62,107  L 55,107  L 55,106  L 54,106  L 54,107  L 53,107  L 53,106  L 41,106  L 41,105  L 40,105  L 40,98  L 39,98  L 39,89  L 38,89  L 38,79  L 37,79  L 37,77  L 38,77  L 38,76  L 37,76  L 37,75  L 38,75  L 38,74  L 37,74  L 37,70  L 40,70  L 40,69  L 49,69  L 49,68  L 50,68  L 50,69  L 52,69  L 52,68  L 55,68  L 55,69  L 56,69  L 56,68  L 61,68  L 61,67  L 62,67  L 62,68  L 63,68  L 63,67  L 73,67  L 73,66  L 77,66  L 77,65  L 78,65  L 78,63  L 79,63  L 79,59  L 77,59  L 77,58  L 76,58  L 76,59  L 54,59  L 54,58  L 53,58  L 53,59  L 51,59  L 51,58  L 52,58  L 52,53  L 53,53  L 53,46  L 54,46  L 54,41  L 55,41  L 55,37  L 56,37  L 56,33  L 57,33  L 57,30  L 58,30  L 58,25  L 59,25  L 59,19  L 60,19  L 60,16  L 59,16  L 59,13  L 58,13  L 58,11  L 57,11  L 57,10  L 56,10  L 56,9  L 55,9  L 55,8  L 54,8  L 54,7  L 53,7  L 53,6  L 51,6  L 51,5  L 48,5  L 48,4  L 35,4  L 35,5  L 24,5  L 24,6  L 18,6  L 18,7  L 13,7  L 13,8  L 11,8  L 11,9  L 9,9  L 9,10  L 7,10  L 7,11  L 6,11  L 6,12  L 5,12  L 5,13  L 4,13  L 4,17  L 5,17  L 5,18  L 6,18  L 6,19  L 8,19  L 8,18  L 10,18  L 10,17  L 11,17  L 11,16  L 13,16  L 13,15  L 15,15  L 15,14  L 19,14  L 19,13  L 22,13  L 22,12  L 33,12  L 33,11  L 47,11  L 47,12  L 49,12  L 49,13  L 50,13  L 50,14  L 51,14  L 51,16  L 52,16  L 52,22  L 51,22  L 51,26  L 50,26  L 50,30  L 49,30  L 49,33  L 48,33  L 48,36  L 47,36  L 47,38  L 46,38  L 46,39  L 47,39  L 47,40  L 46,40  L 46,44  L 45,44  L 45,48  L 44,48  L 44,52  L 43,52  L 43,57  L 44,57  L 44,58  L 45,58  L 45,59  L 46,59  L 46,60  L 40,60  L 40,61  L 32,61  L 32,62  L 18,62  L 18,63  L 17,63  L 17,62  L 16,62  L 16,63  L 12,63  L 12,64  L 8,64  L 8,65  L 5,65  L 5,66  L 1,66  L 1,67  L 0,67  L 0,71  L 1,71  L 1,72  L 3,72  L 3,73  L 5,73  L 5,72  L 10,72  L 10,71  L 13,71  L 13,70  L 21,70  L 21,69  L 22,69  L 22,70  L 23,70  L 23,69  L 28,69  L 28,70  L 29,70  L 29,71  L 30,71  L 30,72  L 29,72  L 29,73  L 30,73  L 30,74  L 29,74  L 29,75  L 30,75  Z  " style="fill:rgb(0, 0, 0); fill-opacity:1.000; stroke:none;" />
 <path d="  M 92,94  L 91,94  L 91,101  L 94,101  L 94,100  L 95,100  L 95,99  L 97,99  L 97,98  L 98,98  L 98,97  L 99,97  L 99,24  L 98,24  L 98,23  L 99,23  L 99,22  L 98,22  L 98,21  L 99,21  L 99,20  L 98,20  L 98,8  L 97,8  L 97,3  L 96,3  L 96,1  L 94,1  L 94,0  L 92,0  L 92,1  L 91,1  L 91,2  L 90,2  L 90,3  L 89,3  L 89,5  L 90,5  L 90,12  L 91,12  L 91,14  L 90,14  L 90,15  L 91,15  L 91,25  L 92,25  L 92,28  L 91,28  L 91,29  L 92,29  Z  " style="fill:rgb(0, 0, 0); fill-opacity:1.000; stroke:none;" />
</svg>
