<?xml version="1.0" encoding="UTF-8" standalone="no"?>
<!DOCTYPE svg PUBLIC "-//W3C//DTD SVG 1.1//EN" 
  "http://www.w3.org/Graphics/SVG/1.1/DTD/svg11.dtd">
<svg width="101" height="158"
     xmlns="http://www.w3.org/2000/svg" version="1.1">
 <path d="  M 34,89  L 35,89  L 35,83  L 36,83  L 36,82  L 35,82  L 35,81  L 36,81  L 36,74  L 37,74  L 37,65  L 38,65  L 38,64  L 39,64  L 39,63  L 51,63  L 51,62  L 59,62  L 59,61  L 63,61  L 63,60  L 67,60  L 67,59  L 71,59  L 71,58  L 75,58  L 75,57  L 80,57  L 80,56  L 81,56  L 81,55  L 82,55  L 82,54  L 83,54  L 83,53  L 84,53  L 84,52  L 83,52  L 83,50  L 81,50  L 81,49  L 80,49  L 80,50  L 76,50  L 76,51  L 69,51  L 69,52  L 64,52  L 64,53  L 58,53  L 58,54  L 55,54  L 55,53  L 54,53  L 54,49  L 55,49  L 55,48  L 54,48  L 54,47  L 55,47  L 55,37  L 56,37  L 56,33  L 57,33  L 57,32  L 56,32  L 56,31  L 57,31  L 57,27  L 58,27  L 58,25  L 59,25  L 59,23  L 60,23  L 60,21  L 61,21  L 61,12  L 60,12  L 60,11  L 59,11  L 59,10  L 58,10  L 58,8  L 57,8  L 57,7  L 56,7  L 56,6  L 54,6  L 54,5  L 52,5  L 52,4  L 49,4  L 49,3  L 34,3  L 34,4  L 26,4  L 26,5  L 23,5  L 23,6  L 18,6  L 18,7  L 14,7  L 14,8  L 12,8  L 12,9  L 9,9  L 9,15  L 11,15  L 11,16  L 14,16  L 14,15  L 16,15  L 16,14  L 18,14  L 18,13  L 22,13  L 22,12  L 27,12  L 27,11  L 33,11  L 33,10  L 47,10  L 47,11  L 49,11  L 49,12  L 51,12  L 51,13  L 52,13  L 52,15  L 53,15  L 53,16  L 54,16  L 54,18  L 53,18  L 53,19  L 52,19  L 52,22  L 51,22  L 51,24  L 50,24  L 50,25  L 51,25  L 51,26  L 50,26  L 50,30  L 49,30  L 49,34  L 48,34  L 48,43  L 47,43  L 47,50  L 46,50  L 46,55  L 42,55  L 42,56  L 25,56  L 25,57  L 23,57  L 23,56  L 22,56  L 22,57  L 19,57  L 19,56  L 18,56  L 18,57  L 12,57  L 12,58  L 8,58  L 8,59  L 5,59  L 5,60  L 2,60  L 2,61  L 1,61  L 1,62  L 0,62  L 0,65  L 1,65  L 1,66  L 4,66  L 4,67  L 6,67  L 6,66  L 8,66  L 8,65  L 14,65  L 14,64  L 21,64  L 21,63  L 22,63  L 22,64  L 23,64  L 23,63  L 24,63  L 24,64  L 26,64  L 26,63  L 30,63  L 30,64  L 31,64  L 31,65  L 30,65  L 30,69  L 29,69  L 29,78  L 28,78  L 28,86  L 27,86  L 27,94  L 26,94  L 26,99  L 25,99  L 25,104  L 26,104  L 26,105  L 27,105  L 27,106  L 26,106  L 26,107  L 27,107  L 27,109  L 28,109  L 28,110  L 29,110  L 29,125  L 30,125  L 30,128  L 29,128  L 29,129  L 30,129  L 30,131  L 31,131  L 31,136  L 32,136  L 32,142  L 33,142  L 33,149  L 34,149  L 34,151  L 33,151  L 33,152  L 34,152  L 34,155  L 35,155  L 35,156  L 37,156  L 37,157  L 40,157  L 40,158  L 63,158  L 63,157  L 64,157  L 64,158  L 65,158  L 65,157  L 71,157  L 71,156  L 72,156  L 72,157  L 73,157  L 73,156  L 78,156  L 78,155  L 83,155  L 83,154  L 84,154  L 84,153  L 86,153  L 86,152  L 88,152  L 88,151  L 89,151  L 89,150  L 91,150  L 91,149  L 92,149  L 92,145  L 93,145  L 93,144  L 92,144  L 92,143  L 93,143  L 93,135  L 94,135  L 94,130  L 95,130  L 95,125  L 96,125  L 96,121  L 95,121  L 95,120  L 96,120  L 96,102  L 94,102  L 94,101  L 93,101  L 93,102  L 91,102  L 91,104  L 90,104  L 90,118  L 89,118  L 89,119  L 90,119  L 90,122  L 89,122  L 89,123  L 40,123  L 40,124  L 39,124  L 39,123  L 36,123  L 36,122  L 37,122  L 37,119  L 38,119  L 38,118  L 37,118  L 37,109  L 36,109  L 36,107  L 35,107  L 35,106  L 34,106  L 34,105  L 33,105  L 33,104  L 32,104  L 32,99  L 33,99  L 33,98  L 34,98  Z  M 83,147  L 83,148  L 78,148  L 78,149  L 74,149  L 74,150  L 73,150  L 73,149  L 72,149  L 72,150  L 68,150  L 68,151  L 57,151  L 57,152  L 56,152  L 56,151  L 55,151  L 55,152  L 54,152  L 54,151  L 53,151  L 53,152  L 44,152  L 44,151  L 42,151  L 42,150  L 41,150  L 41,149  L 40,149  L 40,143  L 39,143  L 39,138  L 38,138  L 38,132  L 39,132  L 39,131  L 43,131  L 43,130  L 44,130  L 44,131  L 45,131  L 45,130  L 87,130  L 87,136  L 86,136  L 86,137  L 87,137  L 87,138  L 86,138  L 86,144  L 85,144  L 85,146  L 84,146  L 84,147  Z  " style="fill:rgb(0, 0, 0); fill-opacity:1.000; stroke:none;" />
 <path d="  M 94,67  L 95,67  L 95,85  L 94,85  L 94,86  L 95,86  L 95,88  L 94,88  L 94,90  L 95,90  L 95,92  L 94,92  L 94,95  L 95,95  L 95,96  L 97,96  L 97,97  L 99,97  L 99,96  L 101,96  L 101,32  L 100,32  L 100,21  L 99,21  L 99,15  L 98,15  L 98,8  L 97,8  L 97,4  L 96,4  L 96,1  L 94,1  L 94,0  L 90,0  L 90,11  L 91,11  L 91,18  L 92,18  L 92,23  L 93,23  L 93,30  L 94,30  L 94,31  L 93,31  L 93,33  L 94,33  L 94,51  L 95,51  L 95,52  L 94,52  L 94,55  L 95,55  L 95,57  L 94,57  L 94,59  L 95,59  L 95,62  L 94,62  L 94,63  L 95,63  L 95,66  L 94,66  Z  " style="fill:rgb(0, 0, 0); fill-opacity:1.000; stroke:none;" />
</svg>
