<?xml version="1.0" encoding="UTF-8" standalone="no"?>
<!DOCTYPE svg PUBLIC "-//W3C//DTD SVG 1.1//EN" 
  "http://www.w3.org/Graphics/SVG/1.1/DTD/svg11.dtd">
<svg width="101" height="167"
     xmlns="http://www.w3.org/2000/svg" version="1.1">
 <path d="  M 76,13  L 77,13  L 77,11  L 78,11  L 78,7  L 79,7  L 79,6  L 78,6  L 78,5  L 77,5  L 77,3  L 75,3  L 75,2  L 74,2  L 74,1  L 68,1  L 68,0  L 67,0  L 67,1  L 47,1  L 47,2  L 35,2  L 35,3  L 29,3  L 29,4  L 26,4  L 26,5  L 21,5  L 21,6  L 18,6  L 18,7  L 16,7  L 16,8  L 15,8  L 15,11  L 14,11  L 14,16  L 13,16  L 13,17  L 18,17  L 18,16  L 20,16  L 20,15  L 22,15  L 22,14  L 24,14  L 24,13  L 26,13  L 26,12  L 30,12  L 30,11  L 34,11  L 34,10  L 35,10  L 35,11  L 36,11  L 36,10  L 43,10  L 43,9  L 44,9  L 44,10  L 51,10  L 51,9  L 58,9  L 58,10  L 59,10  L 59,9  L 66,9  L 66,10  L 67,10  L 67,9  L 68,9  L 68,18  L 67,18  L 67,33  L 66,33  L 66,36  L 65,36  L 65,37  L 66,37  L 66,38  L 65,38  L 65,43  L 64,43  L 64,47  L 63,47  L 63,51  L 62,51  L 62,56  L 61,56  L 61,57  L 60,57  L 60,58  L 58,58  L 58,59  L 56,59  L 56,58  L 55,58  L 55,59  L 50,59  L 50,60  L 49,60  L 49,59  L 48,59  L 48,60  L 41,60  L 41,59  L 33,59  L 33,58  L 31,58  L 31,59  L 29,59  L 29,58  L 27,58  L 27,59  L 25,59  L 25,58  L 23,58  L 23,59  L 21,59  L 21,58  L 19,58  L 19,59  L 9,59  L 9,60  L 4,60  L 4,61  L 3,61  L 3,62  L 1,62  L 1,66  L 0,66  L 0,67  L 1,67  L 1,69  L 7,69  L 7,68  L 10,68  L 10,67  L 14,67  L 14,66  L 24,66  L 24,67  L 35,67  L 35,74  L 34,74  L 34,92  L 33,92  L 33,95  L 34,95  L 34,96  L 33,96  L 33,105  L 34,105  L 34,107  L 37,107  L 37,108  L 38,108  L 38,106  L 40,106  L 40,104  L 41,104  L 41,87  L 42,87  L 42,86  L 41,86  L 41,85  L 42,85  L 42,75  L 43,75  L 43,74  L 42,74  L 42,72  L 43,72  L 43,67  L 62,67  L 62,68  L 63,68  L 63,70  L 62,70  L 62,71  L 63,71  L 63,89  L 64,89  L 64,105  L 65,105  L 65,108  L 64,108  L 64,109  L 62,109  L 62,110  L 41,110  L 41,109  L 36,109  L 36,108  L 35,108  L 35,109  L 30,109  L 30,110  L 24,110  L 24,112  L 23,112  L 23,113  L 24,113  L 24,115  L 25,115  L 25,116  L 26,116  L 26,117  L 28,117  L 28,118  L 42,118  L 42,117  L 43,117  L 43,118  L 46,118  L 46,117  L 47,117  L 47,118  L 62,118  L 62,119  L 63,119  L 63,121  L 64,121  L 64,128  L 63,128  L 63,130  L 61,130  L 61,133  L 59,133  L 59,134  L 57,134  L 57,135  L 54,135  L 54,136  L 50,136  L 50,137  L 48,137  L 48,136  L 47,136  L 47,137  L 43,137  L 43,138  L 26,138  L 26,140  L 25,140  L 25,142  L 23,142  L 23,148  L 22,148  L 22,152  L 23,152  L 23,153  L 22,153  L 22,154  L 23,154  L 23,157  L 24,157  L 24,158  L 25,158  L 25,159  L 24,159  L 24,160  L 25,160  L 25,161  L 26,161  L 26,162  L 29,162  L 29,163  L 30,163  L 30,165  L 33,165  L 33,166  L 35,166  L 35,167  L 56,167  L 56,166  L 59,166  L 59,165  L 63,165  L 63,164  L 65,164  L 65,163  L 68,163  L 68,162  L 70,162  L 70,161  L 71,161  L 71,160  L 73,160  L 73,159  L 74,159  L 74,158  L 75,158  L 75,157  L 77,157  L 77,156  L 78,156  L 78,155  L 79,155  L 79,154  L 80,154  L 80,153  L 82,153  L 82,152  L 83,152  L 83,150  L 85,150  L 85,149  L 87,149  L 87,148  L 88,148  L 88,146  L 89,146  L 89,145  L 90,145  L 90,144  L 91,144  L 91,143  L 90,143  L 90,141  L 88,141  L 88,140  L 86,140  L 86,141  L 84,141  L 84,142  L 80,142  L 80,143  L 78,143  L 78,144  L 76,144  L 76,145  L 75,145  L 75,146  L 74,146  L 74,147  L 73,147  L 73,149  L 72,149  L 72,150  L 71,150  L 71,152  L 69,152  L 69,153  L 68,153  L 68,154  L 66,154  L 66,155  L 63,155  L 63,156  L 60,156  L 60,157  L 58,157  L 58,158  L 56,158  L 56,159  L 51,159  L 51,160  L 46,160  L 46,159  L 45,159  L 45,160  L 44,160  L 44,159  L 40,159  L 40,158  L 35,158  L 35,157  L 33,157  L 33,156  L 32,156  L 32,155  L 31,155  L 31,153  L 30,153  L 30,147  L 31,147  L 31,146  L 35,146  L 35,145  L 41,145  L 41,146  L 43,146  L 43,145  L 56,145  L 56,144  L 58,144  L 58,143  L 61,143  L 61,142  L 63,142  L 63,141  L 64,141  L 64,140  L 66,140  L 66,138  L 67,138  L 67,134  L 68,134  L 68,130  L 69,130  L 69,129  L 70,129  L 70,127  L 71,127  L 71,126  L 72,126  L 72,124  L 73,124  L 73,123  L 75,123  L 75,121  L 74,121  L 74,114  L 73,114  L 73,112  L 72,112  L 72,111  L 71,111  L 71,109  L 70,109  L 70,108  L 71,108  L 71,80  L 70,80  L 70,79  L 71,79  L 71,78  L 70,78  L 70,75  L 71,75  L 71,74  L 70,74  L 70,68  L 71,68  L 71,66  L 73,66  L 73,67  L 80,67  L 80,66  L 84,66  L 84,65  L 85,65  L 85,66  L 86,66  L 86,65  L 91,65  L 91,64  L 99,64  L 99,63  L 101,63  L 101,56  L 100,56  L 100,55  L 93,55  L 93,56  L 87,56  L 87,57  L 79,57  L 79,58  L 78,58  L 78,57  L 77,57  L 77,58  L 76,58  L 76,57  L 75,57  L 75,58  L 72,58  L 72,57  L 71,57  L 71,53  L 72,53  L 72,47  L 73,47  L 73,39  L 74,39  L 74,38  L 73,38  L 73,37  L 74,37  L 74,31  L 75,31  L 75,30  L 74,30  L 74,29  L 75,29  L 75,28  L 74,28  L 74,27  L 75,27  L 75,20  L 76,20  Z  " style="fill:rgb(0, 0, 0); fill-opacity:1.000; stroke:none;" />
</svg>
