<?xml version="1.0" encoding="UTF-8" standalone="no"?>
<!DOCTYPE svg PUBLIC "-//W3C//DTD SVG 1.1//EN" 
  "http://www.w3.org/Graphics/SVG/1.1/DTD/svg11.dtd">
<svg width="110" height="156"
     xmlns="http://www.w3.org/2000/svg" version="1.1">
 <path d="  M 0,78  L 1,78  L 1,80  L 2,80  L 2,81  L 3,81  L 3,82  L 8,82  L 8,83  L 13,83  L 13,82  L 14,82  L 14,83  L 15,83  L 15,82  L 28,82  L 28,81  L 31,81  L 31,82  L 32,82  L 32,81  L 35,81  L 35,80  L 45,80  L 45,79  L 46,79  L 46,80  L 47,80  L 47,79  L 53,79  L 53,78  L 73,78  L 73,77  L 74,77  L 74,78  L 77,78  L 77,77  L 78,77  L 78,78  L 80,78  L 80,77  L 83,77  L 83,78  L 84,78  L 84,77  L 89,77  L 89,76  L 95,76  L 95,75  L 97,75  L 97,73  L 98,73  L 98,72  L 99,72  L 99,70  L 100,70  L 100,69  L 98,69  L 98,68  L 91,68  L 91,69  L 78,69  L 78,70  L 77,70  L 77,69  L 76,69  L 76,70  L 73,70  L 73,69  L 72,69  L 72,70  L 58,70  L 58,71  L 50,71  L 50,72  L 49,72  L 49,71  L 48,71  L 48,72  L 35,72  L 35,73  L 27,73  L 27,74  L 25,74  L 25,73  L 24,73  L 24,74  L 16,74  L 16,75  L 2,75  L 2,76  L 1,76  L 1,75  L 0,75  Z  " style="fill:rgb(0, 0, 0); fill-opacity:1.000; stroke:none;" />
 <path d="  M 58,98  L 58,101  L 56,101  L 56,102  L 55,102  L 55,103  L 53,103  L 53,104  L 52,104  L 52,105  L 51,105  L 51,106  L 50,106  L 50,108  L 49,108  L 49,109  L 47,109  L 47,111  L 46,111  L 46,112  L 45,112  L 45,113  L 44,113  L 44,114  L 43,114  L 43,115  L 42,115  L 42,117  L 41,117  L 41,118  L 40,118  L 40,119  L 39,119  L 39,120  L 38,120  L 38,121  L 37,121  L 37,123  L 35,123  L 35,125  L 34,125  L 34,127  L 33,127  L 33,128  L 32,128  L 32,129  L 31,129  L 31,131  L 29,131  L 29,134  L 28,134  L 28,135  L 27,135  L 27,136  L 26,136  L 26,138  L 25,138  L 25,139  L 24,139  L 24,140  L 23,140  L 23,141  L 22,141  L 22,143  L 21,143  L 21,144  L 20,144  L 20,145  L 18,145  L 18,147  L 17,147  L 17,148  L 16,148  L 16,149  L 14,149  L 14,152  L 13,152  L 13,156  L 19,156  L 19,155  L 21,155  L 21,154  L 22,154  L 22,153  L 23,153  L 23,152  L 24,152  L 24,151  L 25,151  L 25,150  L 26,150  L 26,149  L 27,149  L 27,148  L 28,148  L 28,147  L 29,147  L 29,145  L 30,145  L 30,144  L 31,144  L 31,142  L 32,142  L 32,141  L 33,141  L 33,140  L 34,140  L 34,139  L 35,139  L 35,138  L 36,138  L 36,137  L 37,137  L 37,135  L 38,135  L 38,134  L 39,134  L 39,132  L 40,132  L 40,131  L 41,131  L 41,130  L 42,130  L 42,129  L 43,129  L 43,128  L 44,128  L 44,127  L 45,127  L 45,126  L 46,126  L 46,125  L 47,125  L 47,124  L 48,124  L 48,123  L 49,123  L 49,124  L 50,124  L 50,125  L 51,125  L 51,126  L 52,126  L 52,127  L 54,127  L 54,128  L 55,128  L 55,129  L 57,129  L 57,130  L 58,130  L 58,131  L 59,131  L 59,132  L 60,132  L 60,133  L 61,133  L 61,134  L 63,134  L 63,135  L 64,135  L 64,136  L 66,136  L 66,137  L 68,137  L 68,138  L 69,138  L 69,139  L 71,139  L 71,140  L 73,140  L 73,141  L 74,141  L 74,142  L 76,142  L 76,143  L 79,143  L 79,144  L 82,144  L 82,145  L 85,145  L 85,146  L 88,146  L 88,147  L 90,147  L 90,148  L 91,148  L 91,149  L 94,149  L 94,150  L 96,150  L 96,151  L 97,151  L 97,154  L 98,154  L 98,155  L 100,155  L 100,154  L 104,154  L 104,153  L 107,153  L 107,152  L 109,152  L 109,151  L 110,151  L 110,147  L 109,147  L 109,146  L 100,146  L 100,145  L 98,145  L 98,144  L 97,144  L 97,143  L 95,143  L 95,142  L 93,142  L 93,141  L 91,141  L 91,140  L 89,140  L 89,139  L 87,139  L 87,138  L 85,138  L 85,137  L 82,137  L 82,136  L 80,136  L 80,135  L 78,135  L 78,134  L 77,134  L 77,133  L 74,133  L 74,132  L 73,132  L 73,131  L 71,131  L 71,130  L 70,130  L 70,129  L 68,129  L 68,128  L 67,128  L 67,127  L 65,127  L 65,126  L 64,126  L 64,125  L 63,125  L 63,124  L 62,124  L 62,123  L 60,123  L 60,122  L 59,122  L 59,121  L 58,121  L 58,120  L 57,120  L 57,119  L 56,119  L 56,118  L 55,118  L 55,116  L 54,116  L 54,114  L 55,114  L 55,112  L 58,112  L 58,111  L 59,111  L 59,110  L 61,110  L 61,109  L 62,109  L 62,108  L 64,108  L 64,107  L 65,107  L 65,105  L 67,105  L 67,102  L 68,102  L 68,100  L 69,100  L 69,97  L 70,97  L 70,92  L 69,92  L 69,91  L 67,91  L 67,90  L 65,90  L 65,91  L 64,91  L 64,92  L 63,92  L 63,93  L 62,93  L 62,95  L 61,95  L 61,96  L 60,96  L 60,97  L 59,97  L 59,98  Z  " style="fill:rgb(0, 0, 0); fill-opacity:1.000; stroke:none;" />
 <path d="  M 19,12  L 19,13  L 18,13  L 18,16  L 19,16  L 19,17  L 20,17  L 20,18  L 21,18  L 21,17  L 23,17  L 23,16  L 24,16  L 24,15  L 26,15  L 26,14  L 28,14  L 28,13  L 31,13  L 31,12  L 33,12  L 33,11  L 36,11  L 36,10  L 41,10  L 41,9  L 53,9  L 53,8  L 54,8  L 54,9  L 57,9  L 57,8  L 58,8  L 58,9  L 61,9  L 61,8  L 62,8  L 62,9  L 68,9  L 68,10  L 69,10  L 69,23  L 68,23  L 68,28  L 67,28  L 67,35  L 66,35  L 66,40  L 65,40  L 65,49  L 64,49  L 64,60  L 65,60  L 65,61  L 66,61  L 66,62  L 67,62  L 67,63  L 68,63  L 68,64  L 69,64  L 69,63  L 70,63  L 70,62  L 72,62  L 72,60  L 73,60  L 73,57  L 72,57  L 72,55  L 73,55  L 73,53  L 72,53  L 72,52  L 73,52  L 73,38  L 74,38  L 74,34  L 75,34  L 75,33  L 74,33  L 74,31  L 75,31  L 75,24  L 76,24  L 76,20  L 77,20  L 77,8  L 76,8  L 76,5  L 75,5  L 75,4  L 72,4  L 72,3  L 68,3  L 68,2  L 63,2  L 63,1  L 51,1  L 51,2  L 50,2  L 50,1  L 45,1  L 45,2  L 38,2  L 38,3  L 33,3  L 33,4  L 29,4  L 29,5  L 26,5  L 26,6  L 23,6  L 23,7  L 21,7  L 21,8  L 20,8  L 20,9  L 19,9  L 19,10  L 18,10  L 18,12  Z  " style="fill:rgb(0, 0, 0); fill-opacity:1.000; stroke:none;" />
</svg>
