<?xml version="1.0" encoding="UTF-8" standalone="no"?>
<!DOCTYPE svg PUBLIC "-//W3C//DTD SVG 1.1//EN" 
  "http://www.w3.org/Graphics/SVG/1.1/DTD/svg11.dtd">
<svg width="104" height="128"
     xmlns="http://www.w3.org/2000/svg" version="1.1">
 <path d="  M 39,97  L 39,96  L 41,96  L 41,95  L 45,95  L 45,94  L 47,94  L 47,93  L 50,93  L 50,92  L 55,92  L 55,91  L 56,91  L 56,92  L 57,92  L 57,91  L 84,91  L 84,90  L 85,90  L 85,89  L 86,89  L 86,87  L 85,87  L 85,86  L 84,86  L 84,85  L 62,85  L 62,84  L 57,84  L 57,82  L 58,82  L 58,76  L 59,76  L 59,75  L 58,75  L 58,73  L 59,73  L 59,68  L 60,68  L 60,67  L 59,67  L 59,66  L 60,66  L 60,60  L 61,60  L 61,52  L 62,52  L 62,51  L 61,51  L 61,50  L 62,50  L 62,44  L 63,44  L 63,43  L 62,43  L 62,42  L 63,42  L 63,35  L 62,35  L 62,34  L 61,34  L 61,33  L 60,33  L 60,32  L 57,32  L 57,31  L 44,31  L 44,30  L 43,30  L 43,31  L 40,31  L 40,30  L 39,30  L 39,31  L 36,31  L 36,30  L 25,30  L 25,29  L 18,29  L 18,30  L 17,30  L 17,29  L 16,29  L 16,30  L 14,30  L 14,31  L 11,31  L 11,33  L 10,33  L 10,34  L 11,34  L 11,36  L 30,36  L 30,37  L 46,37  L 46,38  L 50,38  L 50,39  L 54,39  L 54,55  L 53,55  L 53,62  L 52,62  L 52,70  L 51,70  L 51,77  L 50,77  L 50,82  L 51,82  L 51,84  L 50,84  L 50,85  L 47,85  L 47,86  L 46,86  L 46,87  L 43,87  L 43,88  L 40,88  L 40,89  L 38,89  L 38,90  L 35,90  L 35,91  L 30,91  L 30,92  L 29,92  L 29,91  L 28,91  L 28,92  L 24,92  L 24,93  L 19,93  L 19,94  L 18,94  L 18,93  L 17,93  L 17,94  L 12,94  L 12,95  L 5,95  L 5,96  L 3,96  L 3,97  L 2,97  L 2,98  L 1,98  L 1,99  L 0,99  L 0,102  L 1,102  L 1,103  L 4,103  L 4,104  L 6,104  L 6,103  L 9,103  L 9,102  L 15,102  L 15,101  L 21,101  L 21,100  L 25,100  L 25,99  L 31,99  L 31,98  L 35,98  L 35,97  Z  " style="fill:rgb(0, 0, 0); fill-opacity:1.000; stroke:none;" />
 <path d="  M 0,103  L 0,104  L 1,104  L 1,103  Z  " style="fill:rgb(0, 0, 0); fill-opacity:1.000; stroke:none;" />
 <path d="  M 98,114  L 97,114  L 97,115  L 98,115  L 98,118  L 97,118  L 97,119  L 98,119  L 98,121  L 97,121  L 97,128  L 103,128  L 103,120  L 104,120  L 104,41  L 103,41  L 103,40  L 104,40  L 104,39  L 103,39  L 103,31  L 102,31  L 102,25  L 101,25  L 101,23  L 100,23  L 100,18  L 99,18  L 99,15  L 98,15  L 98,12  L 97,12  L 97,7  L 96,7  L 96,3  L 95,3  L 95,2  L 94,2  L 94,1  L 92,1  L 92,0  L 91,0  L 91,1  L 90,1  L 90,2  L 89,2  L 89,8  L 90,8  L 90,14  L 91,14  L 91,17  L 92,17  L 92,21  L 93,21  L 93,24  L 94,24  L 94,27  L 95,27  L 95,32  L 96,32  L 96,40  L 97,40  L 97,59  L 98,59  L 98,60  L 97,60  L 97,62  L 98,62  Z  " style="fill:rgb(0, 0, 0); fill-opacity:1.000; stroke:none;" />
</svg>
