<?xml version="1.0" encoding="UTF-8" standalone="no"?>
<!DOCTYPE svg PUBLIC "-//W3C//DTD SVG 1.1//EN" 
  "http://www.w3.org/Graphics/SVG/1.1/DTD/svg11.dtd">
<svg width="103" height="132"
     xmlns="http://www.w3.org/2000/svg" version="1.1">
 <path d="  M 60,64  L 61,64  L 61,62  L 62,62  L 62,61  L 63,61  L 63,59  L 64,59  L 64,56  L 65,56  L 65,52  L 66,52  L 66,45  L 67,45  L 67,44  L 66,44  L 66,43  L 67,43  L 67,41  L 66,41  L 66,35  L 65,35  L 65,34  L 64,34  L 64,33  L 63,33  L 63,32  L 62,32  L 62,31  L 60,31  L 60,30  L 57,30  L 57,29  L 45,29  L 45,30  L 43,30  L 43,29  L 41,29  L 41,30  L 39,30  L 39,29  L 37,29  L 37,30  L 29,30  L 29,31  L 28,31  L 28,30  L 27,30  L 27,31  L 26,31  L 26,30  L 25,30  L 25,31  L 16,31  L 16,32  L 15,32  L 15,31  L 13,31  L 13,32  L 9,32  L 9,33  L 6,33  L 6,34  L 3,34  L 3,35  L 1,35  L 1,37  L 0,37  L 0,39  L 1,39  L 1,40  L 2,40  L 2,39  L 4,39  L 4,40  L 7,40  L 7,39  L 9,39  L 9,40  L 11,40  L 11,39  L 19,39  L 19,38  L 20,38  L 20,39  L 21,39  L 21,38  L 29,38  L 29,37  L 32,37  L 32,38  L 33,38  L 33,37  L 34,37  L 34,38  L 35,38  L 35,37  L 36,37  L 36,38  L 37,38  L 37,37  L 43,37  L 43,38  L 57,38  L 57,39  L 58,39  L 58,49  L 57,49  L 57,51  L 56,51  L 56,54  L 55,54  L 55,55  L 54,55  L 54,57  L 53,57  L 53,59  L 52,59  L 52,62  L 51,62  L 51,63  L 50,63  L 50,65  L 49,65  L 49,66  L 48,66  L 48,68  L 47,68  L 47,69  L 46,69  L 46,70  L 45,70  L 45,71  L 44,71  L 44,73  L 43,73  L 43,75  L 41,75  L 41,77  L 39,77  L 39,79  L 38,79  L 38,80  L 37,80  L 37,81  L 36,81  L 36,83  L 35,83  L 35,84  L 34,84  L 34,85  L 33,85  L 33,86  L 32,86  L 32,87  L 31,87  L 31,88  L 30,88  L 30,89  L 29,89  L 29,90  L 28,90  L 28,92  L 27,92  L 27,93  L 26,93  L 26,94  L 25,94  L 25,95  L 24,95  L 24,97  L 23,97  L 23,99  L 22,99  L 22,100  L 21,100  L 21,101  L 20,101  L 20,103  L 19,103  L 19,104  L 18,104  L 18,105  L 17,105  L 17,106  L 16,106  L 16,108  L 15,108  L 15,109  L 14,109  L 14,110  L 13,110  L 13,111  L 12,111  L 12,113  L 11,113  L 11,114  L 10,114  L 10,115  L 9,115  L 9,117  L 8,117  L 8,124  L 9,124  L 9,125  L 11,125  L 11,124  L 12,124  L 12,123  L 13,123  L 13,122  L 14,122  L 14,121  L 15,121  L 15,120  L 16,120  L 16,119  L 17,119  L 17,118  L 18,118  L 18,117  L 19,117  L 19,116  L 20,116  L 20,115  L 21,115  L 21,113  L 22,113  L 22,112  L 23,112  L 23,111  L 24,111  L 24,109  L 25,109  L 25,108  L 26,108  L 26,107  L 27,107  L 27,105  L 28,105  L 28,104  L 29,104  L 29,103  L 30,103  L 30,102  L 31,102  L 31,100  L 32,100  L 32,99  L 33,99  L 33,98  L 34,98  L 34,97  L 35,97  L 35,95  L 36,95  L 36,94  L 37,94  L 37,93  L 38,93  L 38,92  L 39,92  L 39,91  L 40,91  L 40,89  L 42,89  L 42,88  L 43,88  L 43,87  L 44,87  L 44,85  L 45,85  L 45,84  L 47,84  L 47,82  L 48,82  L 48,81  L 49,81  L 49,80  L 50,80  L 50,78  L 51,78  L 51,77  L 52,77  L 52,76  L 53,76  L 53,73  L 55,73  L 55,71  L 56,71  L 56,69  L 58,69  L 58,67  L 59,67  L 59,66  L 60,66  Z  " style="fill:rgb(0, 0, 0); fill-opacity:1.000; stroke:none;" />
 <path d="  M 94,22  L 95,22  L 95,29  L 96,29  L 96,44  L 97,44  L 97,45  L 96,45  L 96,46  L 97,46  L 97,49  L 96,49  L 96,50  L 97,50  L 97,53  L 96,53  L 96,54  L 97,54  L 97,57  L 96,57  L 96,58  L 97,58  L 97,61  L 96,61  L 96,62  L 97,62  L 97,65  L 96,65  L 96,66  L 97,66  L 97,69  L 96,69  L 96,71  L 97,71  L 97,72  L 96,72  L 96,101  L 95,101  L 95,102  L 96,102  L 96,104  L 95,104  L 95,107  L 96,107  L 96,108  L 95,108  L 95,111  L 96,111  L 96,112  L 95,112  L 95,132  L 102,132  L 102,124  L 103,124  L 103,25  L 102,25  L 102,17  L 101,17  L 101,11  L 100,11  L 100,4  L 99,4  L 99,2  L 98,2  L 98,1  L 97,1  L 97,0  L 94,0  L 94,1  L 93,1  L 93,2  L 92,2  L 92,8  L 93,8  L 93,16  L 94,16  Z  " style="fill:rgb(0, 0, 0); fill-opacity:1.000; stroke:none;" />
</svg>
