<?xml version="1.0" encoding="UTF-8" standalone="no"?>
<!DOCTYPE svg PUBLIC "-//W3C//DTD SVG 1.1//EN" 
  "http://www.w3.org/Graphics/SVG/1.1/DTD/svg11.dtd">
<svg width="98" height="177"
     xmlns="http://www.w3.org/2000/svg" version="1.1">
 <path d="  M 56,37  L 56,35  L 57,35  L 57,33  L 58,33  L 58,31  L 59,31  L 59,30  L 60,30  L 60,28  L 61,28  L 61,27  L 62,27  L 62,24  L 61,24  L 61,22  L 60,22  L 60,21  L 59,21  L 59,20  L 57,20  L 57,19  L 55,19  L 55,18  L 47,18  L 47,17  L 22,17  L 22,18  L 15,18  L 15,19  L 8,19  L 8,20  L 1,20  L 1,23  L 0,23  L 0,24  L 1,24  L 1,25  L 2,25  L 2,27  L 4,27  L 4,28  L 5,28  L 5,27  L 10,27  L 10,26  L 18,26  L 18,25  L 23,25  L 23,24  L 34,24  L 34,23  L 35,23  L 35,24  L 42,24  L 42,25  L 44,25  L 44,24  L 45,24  L 45,25  L 53,25  L 53,29  L 52,29  L 52,30  L 51,30  L 51,32  L 50,32  L 50,33  L 49,33  L 49,35  L 48,35  L 48,36  L 47,36  L 47,37  L 46,37  L 46,39  L 45,39  L 45,40  L 44,40  L 44,42  L 43,42  L 43,43  L 42,43  L 42,44  L 41,44  L 41,46  L 40,46  L 40,48  L 39,48  L 39,49  L 38,49  L 38,51  L 37,51  L 37,54  L 35,54  L 35,55  L 34,55  L 34,57  L 33,57  L 33,59  L 32,59  L 32,60  L 30,60  L 30,62  L 29,62  L 29,64  L 28,64  L 28,65  L 27,65  L 27,66  L 26,66  L 26,67  L 25,67  L 25,68  L 24,68  L 24,69  L 23,69  L 23,70  L 22,70  L 22,72  L 21,72  L 21,73  L 20,73  L 20,75  L 19,75  L 19,76  L 18,76  L 18,78  L 17,78  L 17,79  L 16,79  L 16,81  L 15,81  L 15,82  L 14,82  L 14,84  L 13,84  L 13,86  L 12,86  L 12,87  L 11,87  L 11,88  L 10,88  L 10,90  L 9,90  L 9,93  L 10,93  L 10,96  L 11,96  L 11,95  L 16,95  L 16,93  L 17,93  L 17,92  L 18,92  L 18,91  L 19,91  L 19,90  L 20,90  L 20,88  L 21,88  L 21,87  L 22,87  L 22,85  L 23,85  L 23,83  L 24,83  L 24,81  L 25,81  L 25,80  L 26,80  L 26,79  L 27,79  L 27,77  L 28,77  L 28,76  L 29,76  L 29,75  L 30,75  L 30,74  L 31,74  L 31,72  L 32,72  L 32,71  L 33,71  L 33,70  L 34,70  L 34,69  L 35,69  L 35,67  L 36,67  L 36,66  L 37,66  L 37,64  L 38,64  L 38,63  L 39,63  L 39,61  L 40,61  L 40,60  L 41,60  L 41,59  L 42,59  L 42,57  L 43,57  L 43,56  L 44,56  L 44,54  L 45,54  L 45,52  L 46,52  L 46,51  L 47,51  L 47,49  L 48,49  L 48,48  L 49,48  L 49,47  L 50,47  L 50,45  L 51,45  L 51,44  L 52,44  L 52,42  L 53,42  L 53,40  L 54,40  L 54,38  L 55,38  L 55,37  Z  " style="fill:rgb(0, 0, 0); fill-opacity:1.000; stroke:none;" />
 <path d="  M 78,134  L 77,134  L 77,135  L 78,135  L 78,136  L 77,136  L 77,149  L 76,149  L 76,150  L 77,150  L 77,151  L 76,151  L 76,158  L 75,158  L 75,162  L 74,162  L 74,165  L 73,165  L 73,168  L 72,168  L 72,172  L 71,172  L 71,174  L 72,174  L 72,177  L 79,177  L 79,176  L 80,176  L 80,173  L 81,173  L 81,171  L 82,171  L 82,170  L 81,170  L 81,168  L 82,168  L 82,165  L 83,165  L 83,163  L 84,163  L 84,162  L 83,162  L 83,160  L 84,160  L 84,151  L 85,151  L 85,150  L 84,150  L 84,149  L 85,149  L 85,148  L 84,148  L 84,147  L 85,147  L 85,140  L 84,140  L 84,138  L 85,138  L 85,131  L 86,131  L 86,130  L 85,130  L 85,129  L 86,129  L 86,118  L 85,118  L 85,117  L 84,117  L 84,116  L 83,116  L 83,115  L 82,115  L 82,114  L 79,114  L 79,113  L 78,113  L 78,112  L 74,112  L 74,111  L 58,111  L 58,112  L 51,112  L 51,113  L 46,113  L 46,114  L 41,114  L 41,115  L 37,115  L 37,116  L 34,116  L 34,117  L 32,117  L 32,119  L 31,119  L 31,120  L 30,120  L 30,123  L 31,123  L 31,124  L 37,124  L 37,123  L 40,123  L 40,122  L 41,122  L 41,123  L 42,123  L 42,122  L 46,122  L 46,121  L 52,121  L 52,120  L 58,120  L 58,119  L 73,119  L 73,120  L 74,120  L 74,121  L 77,121  L 77,122  L 78,122  Z  " style="fill:rgb(0, 0, 0); fill-opacity:1.000; stroke:none;" />
 <path d="  M 91,103  L 97,103  L 97,102  L 98,102  L 98,8  L 97,8  L 97,7  L 98,7  L 98,6  L 97,6  L 97,3  L 96,3  L 96,2  L 95,2  L 95,1  L 93,1  L 93,0  L 91,0  L 91,1  L 90,1  L 90,2  L 89,2  L 89,7  L 90,7  L 90,15  L 91,15  L 91,18  L 90,18  L 90,19  L 91,19  Z  " style="fill:rgb(0, 0, 0); fill-opacity:1.000; stroke:none;" />
</svg>
