<?xml version="1.0" encoding="UTF-8" standalone="no"?>
<!DOCTYPE svg PUBLIC "-//W3C//DTD SVG 1.1//EN" 
  "http://www.w3.org/Graphics/SVG/1.1/DTD/svg11.dtd">
<svg width="96" height="152"
     xmlns="http://www.w3.org/2000/svg" version="1.1">
 <path d="  M 27,21  L 27,20  L 28,20  L 28,21  L 29,21  L 29,20  L 45,20  L 45,21  L 46,21  L 46,22  L 47,22  L 47,26  L 46,26  L 46,27  L 45,27  L 45,28  L 44,28  L 44,29  L 43,29  L 43,31  L 42,31  L 42,33  L 41,33  L 41,36  L 40,36  L 40,38  L 39,38  L 39,39  L 38,39  L 38,41  L 37,41  L 37,43  L 36,43  L 36,45  L 35,45  L 35,47  L 34,47  L 34,48  L 33,48  L 33,49  L 32,49  L 32,51  L 31,51  L 31,52  L 30,52  L 30,53  L 29,53  L 29,55  L 28,55  L 28,56  L 27,56  L 27,57  L 26,57  L 26,58  L 25,58  L 25,59  L 24,59  L 24,61  L 23,61  L 23,62  L 22,62  L 22,63  L 21,63  L 21,65  L 19,65  L 19,67  L 18,67  L 18,68  L 17,68  L 17,70  L 16,70  L 16,71  L 15,71  L 15,72  L 14,72  L 14,73  L 13,73  L 13,74  L 12,74  L 12,75  L 11,75  L 11,77  L 10,77  L 10,78  L 9,78  L 9,79  L 7,79  L 7,80  L 6,80  L 6,81  L 5,81  L 5,82  L 3,82  L 3,83  L 2,83  L 2,84  L 1,84  L 1,85  L 0,85  L 0,86  L 2,86  L 2,87  L 3,87  L 3,88  L 9,88  L 9,87  L 10,87  L 10,86  L 12,86  L 12,85  L 13,85  L 13,84  L 14,84  L 14,83  L 15,83  L 15,82  L 16,82  L 16,81  L 17,81  L 17,80  L 18,80  L 18,79  L 19,79  L 19,78  L 20,78  L 20,77  L 21,77  L 21,75  L 22,75  L 22,74  L 23,74  L 23,73  L 24,73  L 24,72  L 25,72  L 25,70  L 26,70  L 26,69  L 27,69  L 27,68  L 28,68  L 28,66  L 29,66  L 29,65  L 30,65  L 30,64  L 31,64  L 31,63  L 32,63  L 32,61  L 34,61  L 34,59  L 35,59  L 35,58  L 36,58  L 36,57  L 37,57  L 37,56  L 38,56  L 38,55  L 39,55  L 39,53  L 40,53  L 40,52  L 41,52  L 41,50  L 42,50  L 42,48  L 43,48  L 43,46  L 44,46  L 44,44  L 45,44  L 45,42  L 46,42  L 46,40  L 47,40  L 47,38  L 48,38  L 48,36  L 49,36  L 49,34  L 50,34  L 50,31  L 51,31  L 51,29  L 52,29  L 52,28  L 53,28  L 53,26  L 54,26  L 54,19  L 53,19  L 53,18  L 52,18  L 52,17  L 51,17  L 51,16  L 49,16  L 49,15  L 47,15  L 47,14  L 43,14  L 43,13  L 38,13  L 38,14  L 37,14  L 37,13  L 36,13  L 36,14  L 35,14  L 35,13  L 34,13  L 34,14  L 33,14  L 33,13  L 32,13  L 32,14  L 16,14  L 16,15  L 10,15  L 10,16  L 3,16  L 3,17  L 2,17  L 2,18  L 1,18  L 1,21  L 0,21  L 0,22  L 1,22  L 1,23  L 2,23  L 2,22  L 4,22  L 4,23  L 9,23  L 9,22  L 14,22  L 14,21  Z  " style="fill:rgb(0, 0, 0); fill-opacity:1.000; stroke:none;" />
 <path d="  M 66,142  L 66,143  L 58,143  L 58,144  L 55,144  L 55,143  L 54,143  L 54,144  L 51,144  L 51,145  L 36,145  L 36,146  L 34,146  L 34,145  L 31,145  L 31,144  L 30,144  L 30,139  L 29,139  L 29,119  L 28,119  L 28,118  L 29,118  L 29,117  L 28,117  L 28,116  L 29,116  L 29,115  L 28,115  L 28,112  L 29,112  L 29,111  L 28,111  L 28,108  L 29,108  L 29,107  L 28,107  L 28,104  L 29,104  L 29,103  L 28,103  L 28,101  L 26,101  L 26,100  L 22,100  L 22,102  L 21,102  L 21,132  L 22,132  L 22,140  L 23,140  L 23,145  L 24,145  L 24,148  L 25,148  L 25,149  L 26,149  L 26,150  L 27,150  L 27,151  L 29,151  L 29,152  L 50,152  L 50,151  L 58,151  L 58,150  L 67,150  L 67,149  L 75,149  L 75,148  L 91,148  L 91,147  L 92,147  L 92,148  L 93,148  L 93,147  L 95,147  L 95,146  L 96,146  L 96,140  L 90,140  L 90,141  L 80,141  L 80,142  Z  " style="fill:rgb(0, 0, 0); fill-opacity:1.000; stroke:none;" />
 <path d="  M 88,55  L 87,55  L 87,54  L 88,54  L 88,53  L 87,53  L 87,52  L 88,52  L 88,51  L 87,51  L 87,50  L 88,50  L 88,49  L 87,49  L 87,48  L 88,48  L 88,47  L 87,47  L 87,46  L 88,46  L 88,45  L 87,45  L 87,44  L 88,44  L 88,43  L 87,43  L 87,42  L 88,42  L 88,41  L 87,41  L 87,40  L 88,40  L 88,39  L 87,39  L 87,38  L 88,38  L 88,37  L 87,37  L 87,36  L 88,36  L 88,35  L 87,35  L 87,34  L 88,34  L 88,33  L 87,33  L 87,32  L 88,32  L 88,31  L 87,31  L 87,30  L 88,30  L 88,29  L 87,29  L 87,28  L 88,28  L 88,27  L 87,27  L 87,24  L 88,24  L 88,23  L 87,23  L 87,5  L 86,5  L 86,3  L 85,3  L 85,2  L 84,2  L 84,1  L 83,1  L 83,0  L 81,0  L 81,1  L 80,1  L 80,2  L 79,2  L 79,7  L 80,7  L 80,9  L 79,9  L 79,10  L 80,10  L 80,40  L 79,40  L 79,42  L 80,42  L 80,44  L 79,44  L 79,46  L 80,46  L 80,48  L 79,48  L 79,50  L 80,50  L 80,52  L 79,52  L 79,53  L 80,53  L 80,83  L 81,83  L 81,85  L 80,85  L 80,86  L 81,86  L 81,93  L 82,93  L 82,94  L 83,94  L 83,95  L 84,95  L 84,94  L 88,94  L 88,92  L 89,92  L 89,91  L 88,91  Z  " style="fill:rgb(0, 0, 0); fill-opacity:1.000; stroke:none;" />
</svg>
