<?xml version="1.0" encoding="UTF-8" standalone="no"?>
<!DOCTYPE svg PUBLIC "-//W3C//DTD SVG 1.1//EN" 
  "http://www.w3.org/Graphics/SVG/1.1/DTD/svg11.dtd">
<svg width="102" height="160"
     xmlns="http://www.w3.org/2000/svg" version="1.1">
 <path d="  M 24,23  L 24,22  L 48,22  L 48,23  L 50,23  L 50,26  L 49,26  L 49,28  L 47,28  L 47,29  L 46,29  L 46,30  L 45,30  L 45,32  L 44,32  L 44,33  L 43,33  L 43,35  L 42,35  L 42,37  L 41,37  L 41,38  L 40,38  L 40,39  L 39,39  L 39,41  L 38,41  L 38,43  L 37,43  L 37,44  L 36,44  L 36,45  L 35,45  L 35,47  L 34,47  L 34,49  L 33,49  L 33,50  L 32,50  L 32,51  L 31,51  L 31,52  L 30,52  L 30,53  L 29,53  L 29,55  L 28,55  L 28,56  L 27,56  L 27,57  L 26,57  L 26,58  L 25,58  L 25,60  L 24,60  L 24,61  L 23,61  L 23,62  L 22,62  L 22,64  L 21,64  L 21,65  L 20,65  L 20,67  L 19,67  L 19,68  L 18,68  L 18,70  L 17,70  L 17,71  L 16,71  L 16,72  L 15,72  L 15,74  L 14,74  L 14,76  L 13,76  L 13,77  L 12,77  L 12,78  L 11,78  L 11,79  L 10,79  L 10,81  L 9,81  L 9,82  L 8,82  L 8,84  L 7,84  L 7,86  L 6,86  L 6,90  L 7,90  L 7,91  L 8,91  L 8,90  L 12,90  L 12,88  L 13,88  L 13,87  L 14,87  L 14,86  L 15,86  L 15,85  L 16,85  L 16,83  L 17,83  L 17,82  L 18,82  L 18,80  L 19,80  L 19,79  L 20,79  L 20,78  L 21,78  L 21,77  L 22,77  L 22,75  L 23,75  L 23,74  L 24,74  L 24,72  L 25,72  L 25,71  L 26,71  L 26,70  L 27,70  L 27,68  L 28,68  L 28,66  L 29,66  L 29,65  L 30,65  L 30,64  L 31,64  L 31,63  L 32,63  L 32,62  L 33,62  L 33,61  L 34,61  L 34,59  L 35,59  L 35,58  L 36,58  L 36,56  L 37,56  L 37,55  L 38,55  L 38,54  L 39,54  L 39,52  L 40,52  L 40,51  L 41,51  L 41,50  L 42,50  L 42,48  L 43,48  L 43,46  L 44,46  L 44,45  L 45,45  L 45,43  L 46,43  L 46,40  L 47,40  L 47,39  L 48,39  L 48,38  L 49,38  L 49,37  L 50,37  L 50,35  L 51,35  L 51,34  L 52,34  L 52,32  L 53,32  L 53,31  L 54,31  L 54,30  L 55,30  L 55,28  L 56,28  L 56,26  L 57,26  L 57,24  L 58,24  L 58,21  L 57,21  L 57,20  L 56,20  L 56,19  L 55,19  L 55,18  L 54,18  L 54,17  L 52,17  L 52,16  L 47,16  L 47,15  L 32,15  L 32,16  L 31,16  L 31,15  L 30,15  L 30,16  L 29,16  L 29,15  L 28,15  L 28,16  L 20,16  L 20,17  L 12,17  L 12,18  L 5,18  L 5,19  L 4,19  L 4,18  L 3,18  L 3,19  L 2,19  L 2,20  L 0,20  L 0,24  L 2,24  L 2,26  L 5,26  L 5,25  L 10,25  L 10,24  L 15,24  L 15,23  Z  " style="fill:rgb(0, 0, 0); fill-opacity:1.000; stroke:none;" />
 <path d="  M 57,109  L 57,108  L 63,108  L 63,107  L 69,107  L 69,106  L 70,106  L 70,107  L 71,107  L 71,106  L 81,106  L 81,105  L 92,105  L 92,104  L 94,104  L 94,105  L 95,105  L 95,104  L 98,104  L 98,105  L 100,105  L 100,104  L 101,104  L 101,103  L 102,103  L 102,98  L 101,98  L 101,97  L 94,97  L 94,98  L 84,98  L 84,99  L 70,99  L 70,100  L 69,100  L 69,99  L 67,99  L 67,100  L 60,100  L 60,101  L 54,101  L 54,102  L 53,102  L 53,101  L 52,101  L 52,102  L 42,102  L 42,103  L 41,103  L 41,102  L 38,102  L 38,103  L 33,103  L 33,104  L 29,104  L 29,105  L 27,105  L 27,106  L 26,106  L 26,107  L 25,107  L 25,108  L 24,108  L 24,110  L 25,110  L 25,111  L 26,111  L 26,112  L 31,112  L 31,113  L 34,113  L 34,134  L 35,134  L 35,136  L 34,136  L 34,138  L 35,138  L 35,150  L 36,150  L 36,154  L 37,154  L 37,157  L 38,157  L 38,158  L 41,158  L 41,159  L 42,159  L 42,160  L 60,160  L 60,159  L 67,159  L 67,158  L 68,158  L 68,159  L 69,159  L 69,158  L 73,158  L 73,157  L 74,157  L 74,158  L 75,158  L 75,157  L 81,157  L 81,156  L 87,156  L 87,155  L 92,155  L 92,154  L 95,154  L 95,153  L 96,153  L 96,152  L 97,152  L 97,151  L 98,151  L 98,148  L 97,148  L 97,147  L 96,147  L 96,146  L 92,146  L 92,147  L 88,147  L 88,148  L 85,148  L 85,149  L 80,149  L 80,150  L 74,150  L 74,151  L 68,151  L 68,152  L 60,152  L 60,153  L 52,153  L 52,154  L 51,154  L 51,153  L 46,153  L 46,152  L 44,152  L 44,151  L 43,151  L 43,148  L 42,148  L 42,135  L 41,135  L 41,134  L 42,134  L 42,131  L 41,131  L 41,111  L 42,111  L 42,110  L 48,110  L 48,109  L 51,109  L 51,110  L 52,110  L 52,109  Z  " style="fill:rgb(0, 0, 0); fill-opacity:1.000; stroke:none;" />
 <path d="  M 88,69  L 87,69  L 87,70  L 88,70  L 88,73  L 87,73  L 87,90  L 88,90  L 88,93  L 91,93  L 91,94  L 92,94  L 92,93  L 93,93  L 93,92  L 95,92  L 95,72  L 96,72  L 96,71  L 95,71  L 95,68  L 96,68  L 96,67  L 95,67  L 95,66  L 96,66  L 96,65  L 95,65  L 95,64  L 96,64  L 96,63  L 95,63  L 95,62  L 96,62  L 96,61  L 95,61  L 95,60  L 96,60  L 96,37  L 95,37  L 95,36  L 96,36  L 96,35  L 95,35  L 95,21  L 94,21  L 94,6  L 93,6  L 93,3  L 92,3  L 92,2  L 91,2  L 91,1  L 86,1  L 86,3  L 85,3  L 85,5  L 86,5  L 86,18  L 87,18  L 87,19  L 86,19  L 86,20  L 87,20  L 87,38  L 88,38  L 88,41  L 87,41  L 87,42  L 88,42  Z  " style="fill:rgb(0, 0, 0); fill-opacity:1.000; stroke:none;" />
</svg>
