<?xml version="1.0" encoding="UTF-8" standalone="no"?>
<!DOCTYPE svg PUBLIC "-//W3C//DTD SVG 1.1//EN" 
  "http://www.w3.org/Graphics/SVG/1.1/DTD/svg11.dtd">
<svg width="98" height="167"
     xmlns="http://www.w3.org/2000/svg" version="1.1">
 <path d="  M 52,20  L 52,19  L 51,19  L 51,18  L 50,18  L 50,19  L 49,19  L 49,18  L 48,18  L 48,17  L 46,17  L 46,16  L 37,16  L 37,17  L 36,17  L 36,16  L 35,16  L 35,17  L 26,17  L 26,18  L 24,18  L 24,17  L 23,17  L 23,18  L 16,18  L 16,19  L 9,19  L 9,20  L 6,20  L 6,21  L 3,21  L 3,22  L 2,22  L 2,23  L 1,23  L 1,26  L 0,26  L 0,27  L 1,27  L 1,28  L 2,28  L 2,29  L 3,29  L 3,28  L 4,28  L 4,29  L 6,29  L 6,28  L 8,28  L 8,27  L 12,27  L 12,26  L 16,26  L 16,25  L 24,25  L 24,24  L 25,24  L 25,25  L 26,25  L 26,24  L 40,24  L 40,23  L 42,23  L 42,24  L 46,24  L 46,25  L 48,25  L 48,28  L 47,28  L 47,30  L 46,30  L 46,31  L 45,31  L 45,32  L 44,32  L 44,33  L 43,33  L 43,36  L 42,36  L 42,38  L 41,38  L 41,39  L 40,39  L 40,41  L 39,41  L 39,42  L 38,42  L 38,43  L 37,43  L 37,45  L 36,45  L 36,47  L 35,47  L 35,48  L 34,48  L 34,49  L 33,49  L 33,51  L 32,51  L 32,53  L 31,53  L 31,54  L 30,54  L 30,55  L 29,55  L 29,57  L 28,57  L 28,58  L 27,58  L 27,59  L 26,59  L 26,61  L 25,61  L 25,62  L 24,62  L 24,63  L 23,63  L 23,65  L 22,65  L 22,66  L 21,66  L 21,68  L 20,68  L 20,69  L 19,69  L 19,70  L 18,70  L 18,72  L 17,72  L 17,73  L 16,73  L 16,74  L 15,74  L 15,75  L 14,75  L 14,77  L 13,77  L 13,78  L 12,78  L 12,80  L 11,80  L 11,81  L 10,81  L 10,82  L 9,82  L 9,83  L 8,83  L 8,85  L 7,85  L 7,86  L 6,86  L 6,88  L 5,88  L 5,92  L 4,92  L 4,94  L 5,94  L 5,95  L 6,95  L 6,96  L 9,96  L 9,95  L 11,95  L 11,94  L 12,94  L 12,92  L 13,92  L 13,91  L 14,91  L 14,89  L 15,89  L 15,88  L 16,88  L 16,87  L 17,87  L 17,85  L 18,85  L 18,83  L 19,83  L 19,82  L 20,82  L 20,80  L 21,80  L 21,79  L 22,79  L 22,78  L 23,78  L 23,76  L 24,76  L 24,74  L 26,74  L 26,72  L 27,72  L 27,70  L 28,70  L 28,69  L 29,69  L 29,67  L 30,67  L 30,66  L 31,66  L 31,65  L 32,65  L 32,64  L 33,64  L 33,62  L 34,62  L 34,61  L 35,61  L 35,59  L 36,59  L 36,58  L 37,58  L 37,56  L 38,56  L 38,55  L 39,55  L 39,53  L 40,53  L 40,51  L 41,51  L 41,50  L 42,50  L 42,48  L 43,48  L 43,47  L 44,47  L 44,45  L 45,45  L 45,43  L 46,43  L 46,42  L 47,42  L 47,41  L 48,41  L 48,39  L 49,39  L 49,38  L 50,38  L 50,36  L 51,36  L 51,35  L 52,35  L 52,33  L 53,33  L 53,31  L 54,31  L 54,30  L 55,30  L 55,28  L 56,28  L 56,23  L 55,23  L 55,21  L 54,21  L 54,20  Z  " style="fill:rgb(0, 0, 0); fill-opacity:1.000; stroke:none;" />
 <path d="  M 54,142  L 55,142  L 55,141  L 56,141  L 56,139  L 57,139  L 57,138  L 58,138  L 58,136  L 59,136  L 59,135  L 62,135  L 62,136  L 64,136  L 64,137  L 65,137  L 65,138  L 68,138  L 68,139  L 70,139  L 70,140  L 71,140  L 71,141  L 73,141  L 73,142  L 75,142  L 75,143  L 77,143  L 77,144  L 78,144  L 78,145  L 80,145  L 80,146  L 82,146  L 82,148  L 84,148  L 84,149  L 86,149  L 86,150  L 88,150  L 88,151  L 89,151  L 89,152  L 90,152  L 90,153  L 91,153  L 91,154  L 92,154  L 92,155  L 93,155  L 93,156  L 96,156  L 96,157  L 97,157  L 97,156  L 98,156  L 98,149  L 97,149  L 97,148  L 96,148  L 96,147  L 95,147  L 95,146  L 93,146  L 93,145  L 91,145  L 91,143  L 89,143  L 89,142  L 88,142  L 88,141  L 85,141  L 85,140  L 83,140  L 83,139  L 82,139  L 82,138  L 80,138  L 80,137  L 78,137  L 78,136  L 77,136  L 77,135  L 75,135  L 75,134  L 73,134  L 73,133  L 71,133  L 71,132  L 69,132  L 69,131  L 68,131  L 68,130  L 65,130  L 65,129  L 64,129  L 64,127  L 65,127  L 65,126  L 66,126  L 66,125  L 67,125  L 67,123  L 68,123  L 68,121  L 69,121  L 69,120  L 70,120  L 70,119  L 71,119  L 71,118  L 72,118  L 72,116  L 73,116  L 73,114  L 74,114  L 74,113  L 75,113  L 75,107  L 74,107  L 74,106  L 72,106  L 72,105  L 71,105  L 71,104  L 69,104  L 69,103  L 58,103  L 58,104  L 51,104  L 51,105  L 45,105  L 45,106  L 44,106  L 44,105  L 43,105  L 43,106  L 41,106  L 41,107  L 38,107  L 38,108  L 35,108  L 35,109  L 32,109  L 32,110  L 30,110  L 30,111  L 29,111  L 29,112  L 28,112  L 28,115  L 29,115  L 29,116  L 30,116  L 30,117  L 32,117  L 32,116  L 34,116  L 34,115  L 36,115  L 36,114  L 40,114  L 40,113  L 41,113  L 41,114  L 43,114  L 43,113  L 46,113  L 46,112  L 50,112  L 50,111  L 55,111  L 55,110  L 61,110  L 61,109  L 66,109  L 66,110  L 67,110  L 67,112  L 66,112  L 66,114  L 65,114  L 65,115  L 64,115  L 64,116  L 63,116  L 63,117  L 62,117  L 62,118  L 61,118  L 61,119  L 60,119  L 60,121  L 59,121  L 59,122  L 58,122  L 58,124  L 57,124  L 57,125  L 56,125  L 56,126  L 55,126  L 55,128  L 54,128  L 54,129  L 53,129  L 53,132  L 52,132  L 52,134  L 51,134  L 51,136  L 50,136  L 50,137  L 49,137  L 49,139  L 48,139  L 48,141  L 47,141  L 47,143  L 46,143  L 46,144  L 45,144  L 45,146  L 44,146  L 44,147  L 43,147  L 43,148  L 42,148  L 42,150  L 41,150  L 41,151  L 40,151  L 40,153  L 39,153  L 39,154  L 38,154  L 38,156  L 37,156  L 37,157  L 35,157  L 35,159  L 34,159  L 34,160  L 33,160  L 33,162  L 32,162  L 32,163  L 31,163  L 31,166  L 32,166  L 32,167  L 37,167  L 37,166  L 38,166  L 38,165  L 39,165  L 39,164  L 40,164  L 40,163  L 41,163  L 41,162  L 42,162  L 42,160  L 43,160  L 43,159  L 44,159  L 44,158  L 45,158  L 45,156  L 46,156  L 46,154  L 47,154  L 47,153  L 48,153  L 48,152  L 49,152  L 49,150  L 50,150  L 50,148  L 51,148  L 51,147  L 52,147  L 52,145  L 53,145  L 53,144  L 54,144  Z  " style="fill:rgb(0, 0, 0); fill-opacity:1.000; stroke:none;" />
 <path d="  M 97,3  L 96,3  L 96,2  L 95,2  L 95,1  L 94,1  L 94,0  L 92,0  L 92,1  L 89,1  L 89,2  L 90,2  L 90,3  L 89,3  L 89,4  L 90,4  L 90,11  L 89,11  L 89,12  L 90,12  L 90,15  L 89,15  L 89,16  L 90,16  L 90,19  L 89,19  L 89,88  L 88,88  L 88,95  L 89,95  L 89,96  L 93,96  L 93,95  L 94,95  L 94,94  L 95,94  L 95,93  L 96,93  L 96,91  L 97,91  L 97,70  L 98,70  L 98,69  L 97,69  L 97,66  L 98,66  L 98,65  L 97,65  L 97,62  L 98,62  L 98,61  L 97,61  L 97,58  L 98,58  L 98,57  L 97,57  L 97,54  L 98,54  L 98,53  L 97,53  Z  " style="fill:rgb(0, 0, 0); fill-opacity:1.000; stroke:none;" />
</svg>
