<?xml version="1.0" encoding="UTF-8" standalone="no"?>
<!DOCTYPE svg PUBLIC "-//W3C//DTD SVG 1.1//EN" 
  "http://www.w3.org/Graphics/SVG/1.1/DTD/svg11.dtd">
<svg width="98" height="172"
     xmlns="http://www.w3.org/2000/svg" version="1.1">
 <path d="  M 46,26  L 46,27  L 47,27  L 47,28  L 48,28  L 48,30  L 47,30  L 47,31  L 45,31  L 45,32  L 44,32  L 44,33  L 43,33  L 43,34  L 42,34  L 42,36  L 41,36  L 41,38  L 40,38  L 40,39  L 39,39  L 39,40  L 38,40  L 38,42  L 37,42  L 37,43  L 36,43  L 36,45  L 35,45  L 35,46  L 34,46  L 34,47  L 33,47  L 33,49  L 32,49  L 32,50  L 31,50  L 31,52  L 30,52  L 30,53  L 29,53  L 29,55  L 28,55  L 28,56  L 27,56  L 27,57  L 26,57  L 26,58  L 25,58  L 25,59  L 24,59  L 24,61  L 23,61  L 23,62  L 22,62  L 22,63  L 21,63  L 21,64  L 20,64  L 20,66  L 19,66  L 19,67  L 18,67  L 18,69  L 17,69  L 17,70  L 16,70  L 16,71  L 15,71  L 15,73  L 14,73  L 14,74  L 13,74  L 13,75  L 12,75  L 12,77  L 11,77  L 11,78  L 10,78  L 10,79  L 9,79  L 9,80  L 8,80  L 8,82  L 7,82  L 7,83  L 5,83  L 5,85  L 4,85  L 4,86  L 3,86  L 3,88  L 2,88  L 2,90  L 1,90  L 1,91  L 2,91  L 2,94  L 3,94  L 3,95  L 6,95  L 6,94  L 8,94  L 8,92  L 9,92  L 9,91  L 11,91  L 11,89  L 12,89  L 12,87  L 13,87  L 13,86  L 14,86  L 14,85  L 15,85  L 15,83  L 16,83  L 16,82  L 17,82  L 17,81  L 18,81  L 18,80  L 19,80  L 19,79  L 20,79  L 20,77  L 21,77  L 21,76  L 22,76  L 22,74  L 23,74  L 23,73  L 24,73  L 24,71  L 25,71  L 25,70  L 26,70  L 26,69  L 27,69  L 27,68  L 28,68  L 28,67  L 29,67  L 29,65  L 30,65  L 30,64  L 31,64  L 31,63  L 32,63  L 32,62  L 33,62  L 33,60  L 34,60  L 34,59  L 35,59  L 35,57  L 36,57  L 36,55  L 37,55  L 37,54  L 38,54  L 38,53  L 39,53  L 39,51  L 40,51  L 40,50  L 41,50  L 41,48  L 42,48  L 42,47  L 43,47  L 43,45  L 44,45  L 44,43  L 45,43  L 45,42  L 46,42  L 46,40  L 47,40  L 47,39  L 48,39  L 48,38  L 49,38  L 49,37  L 50,37  L 50,35  L 51,35  L 51,34  L 52,34  L 52,33  L 53,33  L 53,31  L 54,31  L 54,29  L 55,29  L 55,28  L 56,28  L 56,26  L 55,26  L 55,24  L 54,24  L 54,23  L 53,23  L 53,22  L 52,22  L 52,21  L 50,21  L 50,20  L 45,20  L 45,19  L 28,19  L 28,20  L 27,20  L 27,19  L 26,19  L 26,20  L 17,20  L 17,21  L 10,21  L 10,22  L 3,22  L 3,23  L 1,23  L 1,25  L 0,25  L 0,28  L 1,28  L 1,29  L 2,29  L 2,30  L 3,30  L 3,29  L 10,29  L 10,28  L 11,28  L 11,29  L 12,29  L 12,28  L 15,28  L 15,27  L 22,27  L 22,26  Z  " style="fill:rgb(0, 0, 0); fill-opacity:1.000; stroke:none;" />
 <path d="  M 74,154  L 75,154  L 75,153  L 74,153  L 74,150  L 75,150  L 75,149  L 74,149  L 74,139  L 75,139  L 75,136  L 74,136  L 74,135  L 75,135  L 75,134  L 74,134  L 74,133  L 75,133  L 75,120  L 76,120  L 76,119  L 75,119  L 75,113  L 76,113  L 76,112  L 84,112  L 84,113  L 85,113  L 85,112  L 86,112  L 86,113  L 87,113  L 87,112  L 88,112  L 88,113  L 89,113  L 89,112  L 90,112  L 90,113  L 91,113  L 91,112  L 92,112  L 92,113  L 97,113  L 97,112  L 98,112  L 98,105  L 96,105  L 96,104  L 76,104  L 76,105  L 72,105  L 72,106  L 71,106  L 71,105  L 70,105  L 70,106  L 67,106  L 67,107  L 61,107  L 61,108  L 55,108  L 55,109  L 41,109  L 41,110  L 34,110  L 34,111  L 28,111  L 28,112  L 27,112  L 27,111  L 26,111  L 26,112  L 25,112  L 25,113  L 23,113  L 23,114  L 22,114  L 22,115  L 21,115  L 21,117  L 22,117  L 22,118  L 31,118  L 31,119  L 33,119  L 33,118  L 39,118  L 39,119  L 40,119  L 40,155  L 39,155  L 39,157  L 40,157  L 40,158  L 39,158  L 39,162  L 38,162  L 38,163  L 36,163  L 36,164  L 31,164  L 31,165  L 28,165  L 28,166  L 26,166  L 26,167  L 25,167  L 25,168  L 24,168  L 24,171  L 25,171  L 25,172  L 37,172  L 37,171  L 41,171  L 41,170  L 48,170  L 48,169  L 49,169  L 49,170  L 50,170  L 50,169  L 58,169  L 58,168  L 65,168  L 65,167  L 71,167  L 71,166  L 82,166  L 82,165  L 85,165  L 85,166  L 86,166  L 86,165  L 92,165  L 92,164  L 95,164  L 95,163  L 97,163  L 97,159  L 98,159  L 98,158  L 97,158  L 97,157  L 86,157  L 86,158  L 78,158  L 78,159  L 76,159  L 76,158  L 73,158  L 73,156  L 74,156  Z  M 51,161  L 50,161  L 50,162  L 47,162  L 47,161  L 46,161  L 46,155  L 47,155  L 47,149  L 48,149  L 48,148  L 47,148  L 47,119  L 48,119  L 48,117  L 51,117  L 51,116  L 58,116  L 58,115  L 63,115  L 63,114  L 68,114  L 68,151  L 67,151  L 67,152  L 68,152  L 68,156  L 69,156  L 69,158  L 68,158  L 68,160  L 67,160  L 67,159  L 66,159  L 66,160  L 63,160  L 63,161  L 62,161  L 62,160  L 61,160  L 61,161  L 54,161  L 54,162  L 53,162  L 53,161  L 52,161  L 52,162  L 51,162  Z  " style="fill:rgb(0, 0, 0); fill-opacity:1.000; stroke:none;" />
 <path d="  M 82,99  L 83,99  L 83,100  L 85,100  L 85,101  L 88,101  L 88,100  L 89,100  L 89,99  L 90,99  L 90,94  L 89,94  L 89,93  L 90,93  L 90,75  L 91,75  L 91,64  L 92,64  L 92,63  L 91,63  L 91,60  L 92,60  L 92,59  L 91,59  L 91,56  L 92,56  L 92,55  L 91,55  L 91,54  L 92,54  L 92,51  L 91,51  L 91,50  L 92,50  L 92,35  L 91,35  L 91,34  L 92,34  L 92,31  L 91,31  L 91,30  L 92,30  L 92,29  L 91,29  L 91,28  L 92,28  L 92,27  L 91,27  L 91,26  L 92,26  L 92,25  L 91,25  L 91,24  L 92,24  L 92,23  L 91,23  L 91,22  L 92,22  L 92,21  L 91,21  L 91,20  L 92,20  L 92,19  L 91,19  L 91,5  L 90,5  L 90,2  L 89,2  L 89,1  L 87,1  L 87,0  L 86,0  L 86,1  L 83,1  L 83,74  L 82,74  Z  " style="fill:rgb(0, 0, 0); fill-opacity:1.000; stroke:none;" />
</svg>
