<?xml version="1.0" encoding="UTF-8" standalone="no"?>
<!DOCTYPE svg PUBLIC "-//W3C//DTD SVG 1.1//EN" 
  "http://www.w3.org/Graphics/SVG/1.1/DTD/svg11.dtd">
<svg width="109" height="95"
     xmlns="http://www.w3.org/2000/svg" version="1.1">
 <path d="  M 63,52  L 63,48  L 64,48  L 64,45  L 65,45  L 65,41  L 66,41  L 66,37  L 67,37  L 67,29  L 68,29  L 68,25  L 69,25  L 69,24  L 68,24  L 68,22  L 67,22  L 67,21  L 66,21  L 66,20  L 64,20  L 64,19  L 63,19  L 63,20  L 62,20  L 62,19  L 61,19  L 61,20  L 60,20  L 60,19  L 58,19  L 58,20  L 51,20  L 51,21  L 44,21  L 44,22  L 38,22  L 38,23  L 35,23  L 35,22  L 34,22  L 34,23  L 33,23  L 33,22  L 30,22  L 30,21  L 24,21  L 24,20  L 23,20  L 23,21  L 14,21  L 14,22  L 8,22  L 8,23  L 7,23  L 7,22  L 6,22  L 6,23  L 2,23  L 2,24  L 1,24  L 1,25  L 0,25  L 0,29  L 1,29  L 1,30  L 9,30  L 9,29  L 22,29  L 22,28  L 26,28  L 26,27  L 28,27  L 28,26  L 29,26  L 29,27  L 30,27  L 30,28  L 31,28  L 31,29  L 30,29  L 30,33  L 29,33  L 29,35  L 28,35  L 28,37  L 27,37  L 27,40  L 26,40  L 26,41  L 25,41  L 25,43  L 24,43  L 24,45  L 23,45  L 23,49  L 22,49  L 22,51  L 21,51  L 21,52  L 20,52  L 20,55  L 19,55  L 19,57  L 18,57  L 18,59  L 17,59  L 17,60  L 16,60  L 16,65  L 15,65  L 15,68  L 14,68  L 14,70  L 13,70  L 13,71  L 12,71  L 12,78  L 13,78  L 13,81  L 14,81  L 14,82  L 15,82  L 15,81  L 17,81  L 17,79  L 18,79  L 18,77  L 19,77  L 19,73  L 20,73  L 20,70  L 21,70  L 21,67  L 22,67  L 22,64  L 23,64  L 23,62  L 24,62  L 24,59  L 25,59  L 25,57  L 26,57  L 26,55  L 27,55  L 27,54  L 28,54  L 28,52  L 29,52  L 29,49  L 30,49  L 30,47  L 31,47  L 31,46  L 32,46  L 32,42  L 33,42  L 33,41  L 34,41  L 34,39  L 35,39  L 35,37  L 36,37  L 36,34  L 37,34  L 37,32  L 38,32  L 38,30  L 40,30  L 40,29  L 43,29  L 43,28  L 49,28  L 49,27  L 57,27  L 57,26  L 61,26  L 61,27  L 62,27  L 62,28  L 61,28  L 61,34  L 60,34  L 60,39  L 59,39  L 59,41  L 58,41  L 58,44  L 57,44  L 57,48  L 56,48  L 56,51  L 55,51  L 55,55  L 54,55  L 54,58  L 53,58  L 53,62  L 52,62  L 52,64  L 51,64  L 51,67  L 50,67  L 50,73  L 51,73  L 51,74  L 53,74  L 53,73  L 55,73  L 55,72  L 56,72  L 56,70  L 57,70  L 57,67  L 58,67  L 58,63  L 59,63  L 59,61  L 60,61  L 60,58  L 61,58  L 61,55  L 62,55  L 62,52  Z  " style="fill:rgb(0, 0, 0); fill-opacity:1.000; stroke:none;" />
 <path d="  M 81,54  L 81,57  L 82,57  L 82,58  L 81,58  L 81,61  L 82,61  L 82,62  L 81,62  L 81,94  L 82,94  L 82,95  L 87,95  L 87,93  L 88,93  L 88,49  L 89,49  L 89,47  L 90,47  L 90,46  L 107,46  L 107,45  L 109,45  L 109,40  L 94,40  L 94,41  L 90,41  L 90,42  L 89,42  L 89,40  L 88,40  L 88,0  L 84,0  L 84,1  L 83,1  L 83,3  L 82,3  L 82,54  Z  " style="fill:rgb(0, 0, 0); fill-opacity:1.000; stroke:none;" />
</svg>
