<?xml version="1.0" encoding="UTF-8" standalone="no"?>
<!DOCTYPE svg PUBLIC "-//W3C//DTD SVG 1.1//EN" 
  "http://www.w3.org/Graphics/SVG/1.1/DTD/svg11.dtd">
<svg width="112" height="120"
     xmlns="http://www.w3.org/2000/svg" version="1.1">
 <path d="  M 25,7  L 25,12  L 24,12  L 24,17  L 23,17  L 23,18  L 22,18  L 22,22  L 21,22  L 21,24  L 20,24  L 20,26  L 19,26  L 19,28  L 18,28  L 18,31  L 17,31  L 17,32  L 16,32  L 16,35  L 15,35  L 15,38  L 14,38  L 14,40  L 13,40  L 13,42  L 12,42  L 12,43  L 11,43  L 11,45  L 10,45  L 10,46  L 9,46  L 9,48  L 8,48  L 8,49  L 7,49  L 7,50  L 6,50  L 6,52  L 5,52  L 5,54  L 6,54  L 6,55  L 7,55  L 7,56  L 8,56  L 8,57  L 10,57  L 10,55  L 11,55  L 11,54  L 12,54  L 12,53  L 14,53  L 14,51  L 15,51  L 15,50  L 16,50  L 16,48  L 17,48  L 17,46  L 18,46  L 18,44  L 19,44  L 19,43  L 20,43  L 20,41  L 21,41  L 21,38  L 22,38  L 22,37  L 23,37  L 23,34  L 24,34  L 24,32  L 25,32  L 25,30  L 26,30  L 26,27  L 27,27  L 27,25  L 28,25  L 28,22  L 29,22  L 29,20  L 30,20  L 30,17  L 31,17  L 31,13  L 32,13  L 32,4  L 31,4  L 31,3  L 30,3  L 30,2  L 25,2  L 25,1  L 18,1  L 18,2  L 4,2  L 4,3  L 2,3  L 2,4  L 1,4  L 1,6  L 0,6  L 0,7  L 1,7  L 1,8  L 2,8  L 2,9  L 8,9  L 8,8  L 20,8  L 20,7  Z  " style="fill:rgb(0, 0, 0); fill-opacity:1.000; stroke:none;" />
 <path d="  M 62,118  L 62,119  L 63,119  L 63,118  L 77,118  L 77,117  L 78,117  L 78,118  L 79,118  L 79,117  L 80,117  L 80,118  L 81,118  L 81,117  L 89,117  L 89,116  L 91,116  L 91,115  L 92,115  L 92,114  L 93,114  L 93,113  L 94,113  L 94,112  L 93,112  L 93,110  L 91,110  L 91,109  L 88,109  L 88,110  L 82,110  L 82,111  L 81,111  L 81,110  L 79,110  L 79,111  L 66,111  L 66,112  L 65,112  L 65,111  L 64,111  L 64,112  L 55,112  L 55,113  L 53,113  L 53,112  L 52,112  L 52,113  L 46,113  L 46,114  L 32,114  L 32,113  L 31,113  L 31,111  L 30,111  L 30,105  L 29,105  L 29,96  L 28,96  L 28,90  L 29,90  L 29,82  L 25,82  L 25,83  L 24,83  L 24,84  L 23,84  L 23,85  L 24,85  L 24,86  L 23,86  L 23,105  L 24,105  L 24,114  L 25,114  L 25,117  L 26,117  L 26,119  L 27,119  L 27,120  L 53,120  L 53,119  L 61,119  L 61,118  Z  " style="fill:rgb(0, 0, 0); fill-opacity:1.000; stroke:none;" />
 <path d="  M 57,37  L 58,37  L 58,34  L 59,34  L 59,32  L 60,32  L 60,29  L 61,29  L 61,26  L 62,26  L 62,23  L 63,23  L 63,20  L 64,20  L 64,12  L 63,12  L 63,11  L 62,11  L 62,9  L 60,9  L 60,7  L 58,7  L 58,6  L 51,6  L 51,5  L 50,5  L 50,6  L 49,6  L 49,5  L 48,5  L 48,6  L 47,6  L 47,5  L 39,5  L 39,6  L 38,6  L 38,10  L 39,10  L 39,11  L 55,11  L 55,12  L 57,12  L 57,13  L 58,13  L 58,16  L 57,16  L 57,22  L 56,22  L 56,24  L 55,24  L 55,28  L 54,28  L 54,31  L 53,31  L 53,32  L 52,32  L 52,36  L 51,36  L 51,39  L 50,39  L 50,42  L 49,42  L 49,44  L 48,44  L 48,48  L 47,48  L 47,51  L 46,51  L 46,53  L 45,53  L 45,55  L 44,55  L 44,56  L 43,56  L 43,58  L 44,58  L 44,59  L 45,59  L 45,60  L 48,60  L 48,59  L 49,59  L 49,58  L 50,58  L 50,57  L 51,57  L 51,54  L 52,54  L 52,52  L 53,52  L 53,49  L 54,49  L 54,46  L 55,46  L 55,43  L 56,43  L 56,41  L 57,41  Z  " style="fill:rgb(0, 0, 0); fill-opacity:1.000; stroke:none;" />
 <path d="  M 78,16  L 77,16  L 77,19  L 78,19  L 78,20  L 77,20  L 77,30  L 76,30  L 76,58  L 75,58  L 75,61  L 76,61  L 76,62  L 75,62  L 75,76  L 76,76  L 76,78  L 78,78  L 78,77  L 80,77  L 80,76  L 81,76  L 81,73  L 82,73  L 82,41  L 81,41  L 81,39  L 82,39  L 82,37  L 85,37  L 85,36  L 111,36  L 111,35  L 112,35  L 112,31  L 111,31  L 111,30  L 109,30  L 109,29  L 92,29  L 92,30  L 91,30  L 91,29  L 83,29  L 83,28  L 82,28  L 82,27  L 83,27  L 83,15  L 84,15  L 84,14  L 83,14  L 83,13  L 84,13  L 84,1  L 83,1  L 83,0  L 80,0  L 80,1  L 79,1  L 79,2  L 78,2  Z  " style="fill:rgb(0, 0, 0); fill-opacity:1.000; stroke:none;" />
</svg>
