<?xml version="1.0" encoding="UTF-8" standalone="no"?>
<!DOCTYPE svg PUBLIC "-//W3C//DTD SVG 1.1//EN" 
  "http://www.w3.org/Graphics/SVG/1.1/DTD/svg11.dtd">
<svg width="104" height="131"
     xmlns="http://www.w3.org/2000/svg" version="1.1">
 <path d="  M 17,31  L 16,31  L 16,33  L 15,33  L 15,35  L 14,35  L 14,36  L 13,36  L 13,38  L 12,38  L 12,40  L 11,40  L 11,42  L 10,42  L 10,43  L 9,43  L 9,44  L 8,44  L 8,46  L 7,46  L 7,48  L 6,48  L 6,50  L 5,50  L 5,53  L 6,53  L 6,54  L 7,54  L 7,53  L 10,53  L 10,52  L 11,52  L 11,51  L 12,51  L 12,50  L 13,50  L 13,49  L 14,49  L 14,48  L 15,48  L 15,46  L 16,46  L 16,45  L 17,45  L 17,43  L 18,43  L 18,42  L 19,42  L 19,39  L 20,39  L 20,37  L 22,37  L 22,34  L 23,34  L 23,32  L 24,32  L 24,30  L 25,30  L 25,28  L 26,28  L 26,25  L 27,25  L 27,24  L 28,24  L 28,20  L 29,20  L 29,17  L 30,17  L 30,15  L 31,15  L 31,10  L 30,10  L 30,5  L 8,5  L 8,6  L 7,6  L 7,5  L 6,5  L 6,6  L 2,6  L 2,7  L 1,7  L 1,8  L 0,8  L 0,10  L 1,10  L 1,11  L 2,11  L 2,12  L 10,12  L 10,11  L 19,11  L 19,10  L 24,10  L 24,15  L 23,15  L 23,18  L 22,18  L 22,21  L 21,21  L 21,23  L 20,23  L 20,25  L 19,25  L 19,27  L 18,27  L 18,29  L 17,29  Z  " style="fill:rgb(0, 0, 0); fill-opacity:1.000; stroke:none;" />
 <path d="  M 62,128  L 62,127  L 66,127  L 66,126  L 67,126  L 67,125  L 69,125  L 69,124  L 70,124  L 70,123  L 71,123  L 71,122  L 72,122  L 72,120  L 73,120  L 73,117  L 74,117  L 74,114  L 75,114  L 75,109  L 76,109  L 76,105  L 77,105  L 77,102  L 78,102  L 78,87  L 79,87  L 79,78  L 73,78  L 73,99  L 72,99  L 72,100  L 71,100  L 71,101  L 69,101  L 69,100  L 68,100  L 68,101  L 38,101  L 38,102  L 36,102  L 36,99  L 35,99  L 35,98  L 36,98  L 36,82  L 37,82  L 37,76  L 33,76  L 33,77  L 31,77  L 31,78  L 30,78  L 30,83  L 29,83  L 29,108  L 30,108  L 30,109  L 29,109  L 29,110  L 30,110  L 30,111  L 29,111  L 29,112  L 30,112  L 30,122  L 31,122  L 31,123  L 30,123  L 30,124  L 31,124  L 31,129  L 32,129  L 32,130  L 33,130  L 33,131  L 53,131  L 53,130  L 57,130  L 57,129  L 59,129  L 59,128  Z  M 59,107  L 59,106  L 60,106  L 60,107  L 61,107  L 61,106  L 62,106  L 62,107  L 63,107  L 63,106  L 64,106  L 64,107  L 65,107  L 65,106  L 68,106  L 68,107  L 69,107  L 69,113  L 68,113  L 68,117  L 67,117  L 67,119  L 66,119  L 66,120  L 64,120  L 64,121  L 60,121  L 60,122  L 58,122  L 58,123  L 54,123  L 54,124  L 51,124  L 51,125  L 44,125  L 44,126  L 41,126  L 41,125  L 39,125  L 39,124  L 38,124  L 38,121  L 37,121  L 37,120  L 38,120  L 38,118  L 37,118  L 37,114  L 36,114  L 36,110  L 37,110  L 37,109  L 38,109  L 38,108  L 42,108  L 42,107  Z  " style="fill:rgb(0, 0, 0); fill-opacity:1.000; stroke:none;" />
 <path d="  M 45,50  L 45,53  L 44,53  L 44,56  L 43,56  L 43,60  L 44,60  L 44,62  L 46,62  L 46,63  L 48,63  L 48,61  L 49,61  L 49,60  L 50,60  L 50,57  L 51,57  L 51,54  L 52,54  L 52,50  L 53,50  L 53,47  L 54,47  L 54,43  L 55,43  L 55,39  L 56,39  L 56,36  L 57,36  L 57,32  L 58,32  L 58,30  L 59,30  L 59,26  L 60,26  L 60,22  L 61,22  L 61,20  L 62,20  L 62,14  L 61,14  L 61,13  L 60,13  L 60,11  L 59,11  L 59,10  L 58,10  L 58,9  L 56,9  L 56,8  L 51,8  L 51,7  L 50,7  L 50,8  L 49,8  L 49,7  L 48,7  L 48,8  L 47,8  L 47,7  L 46,7  L 46,8  L 43,8  L 43,7  L 37,7  L 37,8  L 36,8  L 36,13  L 37,13  L 37,14  L 38,14  L 38,13  L 54,13  L 54,14  L 55,14  L 55,18  L 54,18  L 54,23  L 53,23  L 53,28  L 52,28  L 52,31  L 51,31  L 51,34  L 50,34  L 50,37  L 49,37  L 49,40  L 48,40  L 48,43  L 47,43  L 47,47  L 46,47  L 46,50  Z  " style="fill:rgb(0, 0, 0); fill-opacity:1.000; stroke:none;" />
 <path d="  M 75,62  L 76,62  L 76,64  L 75,64  L 75,66  L 76,66  L 76,69  L 77,69  L 77,70  L 78,70  L 78,69  L 80,69  L 80,68  L 81,68  L 81,33  L 82,33  L 82,32  L 83,32  L 83,31  L 87,31  L 87,30  L 94,30  L 94,31  L 95,31  L 95,30  L 98,30  L 98,31  L 99,31  L 99,30  L 100,30  L 100,31  L 104,31  L 104,26  L 103,26  L 103,25  L 82,25  L 82,3  L 81,3  L 81,1  L 80,1  L 80,0  L 77,0  L 77,1  L 75,1  L 75,6  L 76,6  L 76,42  L 75,42  L 75,55  L 76,55  L 76,56  L 75,56  Z  " style="fill:rgb(0, 0, 0); fill-opacity:1.000; stroke:none;" />
</svg>
