<?xml version="1.0" encoding="UTF-8" standalone="no"?>
<!DOCTYPE svg PUBLIC "-//W3C//DTD SVG 1.1//EN" 
  "http://www.w3.org/Graphics/SVG/1.1/DTD/svg11.dtd">
<svg width="111" height="126"
     xmlns="http://www.w3.org/2000/svg" version="1.1">
 <path d="  M 19,9  L 19,10  L 20,10  L 20,9  L 26,9  L 26,10  L 27,10  L 27,12  L 26,12  L 26,15  L 25,15  L 25,18  L 24,18  L 24,20  L 23,20  L 23,23  L 22,23  L 22,26  L 21,26  L 21,28  L 20,28  L 20,30  L 19,30  L 19,31  L 18,31  L 18,33  L 17,33  L 17,35  L 16,35  L 16,37  L 15,37  L 15,39  L 14,39  L 14,40  L 13,40  L 13,42  L 12,42  L 12,44  L 11,44  L 11,45  L 10,45  L 10,47  L 9,47  L 9,48  L 8,48  L 8,50  L 7,50  L 7,51  L 8,51  L 8,52  L 9,52  L 9,53  L 14,53  L 14,51  L 15,51  L 15,50  L 16,50  L 16,49  L 17,49  L 17,48  L 18,48  L 18,46  L 19,46  L 19,44  L 20,44  L 20,43  L 21,43  L 21,41  L 22,41  L 22,38  L 23,38  L 23,37  L 24,37  L 24,35  L 25,35  L 25,34  L 26,34  L 26,31  L 27,31  L 27,29  L 28,29  L 28,27  L 29,27  L 29,24  L 30,24  L 30,21  L 31,21  L 31,17  L 32,17  L 32,13  L 33,13  L 33,4  L 32,4  L 32,3  L 12,3  L 12,4  L 2,4  L 2,5  L 1,5  L 1,6  L 0,6  L 0,9  L 2,9  L 2,10  L 14,10  L 14,9  L 15,9  L 15,10  L 16,10  L 16,9  Z  " style="fill:rgb(0, 0, 0); fill-opacity:1.000; stroke:none;" />
 <path d="  M 50,97  L 52,97  L 52,98  L 54,98  L 54,99  L 56,99  L 56,100  L 57,100  L 57,101  L 59,101  L 59,102  L 60,102  L 60,103  L 62,103  L 62,104  L 63,104  L 63,105  L 66,105  L 66,106  L 67,106  L 67,107  L 68,107  L 68,108  L 70,108  L 70,109  L 72,109  L 72,110  L 74,110  L 74,111  L 75,111  L 75,112  L 78,112  L 78,113  L 81,113  L 81,114  L 84,114  L 84,115  L 86,115  L 86,116  L 89,116  L 89,117  L 92,117  L 92,116  L 94,116  L 94,114  L 95,114  L 95,112  L 93,112  L 93,111  L 91,111  L 91,110  L 89,110  L 89,109  L 86,109  L 86,108  L 83,108  L 83,107  L 82,107  L 82,106  L 80,106  L 80,105  L 78,105  L 78,104  L 76,104  L 76,103  L 75,103  L 75,102  L 73,102  L 73,101  L 70,101  L 70,100  L 69,100  L 69,99  L 67,99  L 67,98  L 66,98  L 66,97  L 64,97  L 64,96  L 63,96  L 63,95  L 62,95  L 62,94  L 60,94  L 60,93  L 59,93  L 59,92  L 57,92  L 57,89  L 58,89  L 58,87  L 59,87  L 59,86  L 60,86  L 60,84  L 61,84  L 61,82  L 62,82  L 62,79  L 63,79  L 63,77  L 64,77  L 64,73  L 63,73  L 63,72  L 60,72  L 60,73  L 58,73  L 58,74  L 56,74  L 56,78  L 55,78  L 55,80  L 54,80  L 54,81  L 53,81  L 53,82  L 52,82  L 52,85  L 51,85  L 51,86  L 50,86  L 50,88  L 49,88  L 49,89  L 48,89  L 48,91  L 47,91  L 47,93  L 46,93  L 46,94  L 45,94  L 45,96  L 44,96  L 44,97  L 43,97  L 43,99  L 42,99  L 42,100  L 41,100  L 41,102  L 40,102  L 40,103  L 39,103  L 39,105  L 38,105  L 38,106  L 37,106  L 37,107  L 36,107  L 36,109  L 35,109  L 35,111  L 34,111  L 34,112  L 33,112  L 33,114  L 32,114  L 32,115  L 31,115  L 31,117  L 30,117  L 30,118  L 29,118  L 29,119  L 28,119  L 28,120  L 27,120  L 27,121  L 26,121  L 26,123  L 25,123  L 25,126  L 31,126  L 31,125  L 32,125  L 32,124  L 33,124  L 33,123  L 34,123  L 34,122  L 35,122  L 35,120  L 36,120  L 36,119  L 37,119  L 37,118  L 38,118  L 38,116  L 39,116  L 39,114  L 40,114  L 40,113  L 41,113  L 41,111  L 42,111  L 42,110  L 43,110  L 43,108  L 44,108  L 44,107  L 45,107  L 45,105  L 46,105  L 46,103  L 47,103  L 47,102  L 48,102  L 48,101  L 49,101  L 49,99  L 50,99  Z  " style="fill:rgb(0, 0, 0); fill-opacity:1.000; stroke:none;" />
 <path d="  M 51,45  L 50,45  L 50,48  L 49,48  L 49,51  L 48,51  L 48,54  L 49,54  L 49,55  L 48,55  L 48,56  L 49,56  L 49,57  L 50,57  L 50,58  L 53,58  L 53,56  L 54,56  L 54,54  L 55,54  L 55,51  L 56,51  L 56,49  L 57,49  L 57,44  L 58,44  L 58,41  L 59,41  L 59,37  L 60,37  L 60,35  L 61,35  L 61,31  L 62,31  L 62,27  L 63,27  L 63,25  L 64,25  L 64,24  L 63,24  L 63,23  L 64,23  L 64,19  L 65,19  L 65,13  L 64,13  L 64,11  L 63,11  L 63,10  L 62,10  L 62,9  L 61,9  L 61,8  L 60,8  L 60,7  L 59,7  L 59,6  L 52,6  L 52,5  L 51,5  L 51,6  L 50,6  L 50,5  L 49,5  L 49,6  L 48,6  L 48,5  L 39,5  L 39,6  L 38,6  L 38,11  L 55,11  L 55,12  L 58,12  L 58,13  L 59,13  L 59,16  L 58,16  L 58,17  L 59,17  L 59,18  L 58,18  L 58,22  L 57,22  L 57,24  L 56,24  L 56,25  L 57,25  L 57,26  L 56,26  L 56,28  L 55,28  L 55,32  L 54,32  L 54,35  L 53,35  L 53,38  L 52,38  L 52,41  L 51,41  Z  " style="fill:rgb(0, 0, 0); fill-opacity:1.000; stroke:none;" />
 <path d="  M 111,29  L 110,29  L 110,28  L 109,28  L 109,27  L 103,27  L 103,28  L 102,28  L 102,27  L 86,27  L 86,21  L 87,21  L 87,20  L 86,20  L 86,19  L 87,19  L 87,18  L 86,18  L 86,3  L 85,3  L 85,1  L 84,1  L 84,0  L 81,0  L 81,2  L 80,2  L 80,3  L 81,3  L 81,4  L 80,4  L 80,9  L 81,9  L 81,35  L 80,35  L 80,70  L 81,70  L 81,71  L 80,71  L 80,73  L 81,73  L 81,75  L 82,75  L 82,74  L 85,74  L 85,71  L 86,71  L 86,58  L 85,58  L 85,35  L 86,35  L 86,34  L 89,34  L 89,33  L 109,33  L 109,34  L 111,34  Z  " style="fill:rgb(0, 0, 0); fill-opacity:1.000; stroke:none;" />
</svg>
