<?xml version="1.0" encoding="UTF-8" standalone="no"?>
<!DOCTYPE svg PUBLIC "-//W3C//DTD SVG 1.1//EN" 
  "http://www.w3.org/Graphics/SVG/1.1/DTD/svg11.dtd">
<svg width="110" height="142"
     xmlns="http://www.w3.org/2000/svg" version="1.1">
 <path d="  M 31,19  L 32,19  L 32,17  L 33,17  L 33,11  L 32,11  L 32,10  L 31,10  L 31,9  L 30,9  L 30,8  L 29,8  L 29,7  L 28,7  L 28,6  L 24,6  L 24,5  L 23,5  L 23,6  L 8,6  L 8,7  L 4,7  L 4,8  L 2,8  L 2,9  L 1,9  L 1,12  L 0,12  L 0,13  L 1,13  L 1,14  L 5,14  L 5,15  L 6,15  L 6,14  L 12,14  L 12,13  L 13,13  L 13,14  L 14,14  L 14,13  L 25,13  L 25,18  L 24,18  L 24,20  L 23,20  L 23,22  L 22,22  L 22,25  L 21,25  L 21,26  L 20,26  L 20,28  L 19,28  L 19,30  L 18,30  L 18,33  L 17,33  L 17,35  L 16,35  L 16,37  L 15,37  L 15,39  L 14,39  L 14,40  L 13,40  L 13,41  L 12,41  L 12,43  L 11,43  L 11,44  L 10,44  L 10,46  L 9,46  L 9,47  L 8,47  L 8,48  L 7,48  L 7,49  L 6,49  L 6,50  L 5,50  L 5,51  L 4,51  L 4,52  L 3,52  L 3,55  L 6,55  L 6,56  L 11,56  L 11,55  L 12,55  L 12,54  L 13,54  L 13,53  L 14,53  L 14,52  L 15,52  L 15,49  L 17,49  L 17,47  L 18,47  L 18,45  L 19,45  L 19,43  L 20,43  L 20,42  L 21,42  L 21,40  L 22,40  L 22,39  L 23,39  L 23,36  L 24,36  L 24,35  L 25,35  L 25,32  L 26,32  L 26,31  L 27,31  L 27,28  L 28,28  L 28,27  L 29,27  L 29,24  L 30,24  L 30,22  L 31,22  Z  " style="fill:rgb(0, 0, 0); fill-opacity:1.000; stroke:none;" />
 <path d="  M 27,140  L 27,141  L 32,141  L 32,142  L 50,142  L 50,141  L 56,141  L 56,140  L 60,140  L 60,139  L 62,139  L 62,138  L 66,138  L 66,137  L 69,137  L 69,136  L 72,136  L 72,135  L 74,135  L 74,134  L 77,134  L 77,133  L 79,133  L 79,132  L 83,132  L 83,131  L 85,131  L 85,130  L 87,130  L 87,129  L 88,129  L 88,127  L 89,127  L 89,125  L 88,125  L 88,124  L 82,124  L 82,125  L 79,125  L 79,126  L 76,126  L 76,127  L 74,127  L 74,128  L 71,128  L 71,129  L 69,129  L 69,130  L 65,130  L 65,131  L 62,131  L 62,132  L 59,132  L 59,133  L 56,133  L 56,134  L 49,134  L 49,135  L 41,135  L 41,136  L 39,136  L 39,135  L 37,135  L 37,136  L 36,136  L 36,135  L 34,135  L 34,134  L 32,134  L 32,132  L 31,132  L 31,124  L 32,124  L 32,123  L 33,123  L 33,122  L 34,122  L 34,121  L 36,121  L 36,120  L 39,120  L 39,119  L 42,119  L 42,118  L 45,118  L 45,117  L 48,117  L 48,116  L 53,116  L 53,115  L 56,115  L 56,114  L 58,114  L 58,113  L 60,113  L 60,112  L 62,112  L 62,111  L 64,111  L 64,110  L 65,110  L 65,109  L 68,109  L 68,108  L 70,108  L 70,107  L 71,107  L 71,106  L 73,106  L 73,104  L 74,104  L 74,101  L 75,101  L 75,99  L 74,99  L 74,96  L 73,96  L 73,94  L 72,94  L 72,91  L 71,91  L 71,90  L 70,90  L 70,89  L 69,89  L 69,88  L 68,88  L 68,87  L 67,87  L 67,86  L 66,86  L 66,85  L 65,85  L 65,84  L 64,84  L 64,83  L 62,83  L 62,82  L 60,82  L 60,81  L 56,81  L 56,80  L 43,80  L 43,81  L 36,81  L 36,82  L 32,82  L 32,83  L 31,83  L 31,85  L 30,85  L 30,87  L 31,87  L 31,89  L 35,89  L 35,88  L 40,88  L 40,87  L 56,87  L 56,88  L 58,88  L 58,89  L 60,89  L 60,91  L 62,91  L 62,92  L 63,92  L 63,93  L 64,93  L 64,94  L 65,94  L 65,95  L 66,95  L 66,98  L 67,98  L 67,100  L 66,100  L 66,102  L 65,102  L 65,103  L 63,103  L 63,104  L 61,104  L 61,105  L 59,105  L 59,106  L 57,106  L 57,107  L 54,107  L 54,108  L 51,108  L 51,109  L 48,109  L 48,110  L 45,110  L 45,111  L 42,111  L 42,112  L 39,112  L 39,113  L 38,113  L 38,112  L 37,112  L 37,113  L 36,113  L 36,114  L 33,114  L 33,115  L 31,115  L 31,116  L 29,116  L 29,117  L 28,117  L 28,118  L 27,118  L 27,119  L 25,119  L 25,120  L 24,120  L 24,121  L 23,121  L 23,124  L 22,124  L 22,126  L 23,126  L 23,134  L 24,134  L 24,136  L 25,136  L 25,137  L 26,137  L 26,140  Z  " style="fill:rgb(0, 0, 0); fill-opacity:1.000; stroke:none;" />
 <path d="  M 38,10  L 37,10  L 37,13  L 38,13  L 38,15  L 40,15  L 40,16  L 42,16  L 42,15  L 58,15  L 58,16  L 61,16  L 61,19  L 60,19  L 60,21  L 59,21  L 59,22  L 58,22  L 58,24  L 57,24  L 57,26  L 56,26  L 56,28  L 55,28  L 55,32  L 54,32  L 54,34  L 53,34  L 53,37  L 52,37  L 52,39  L 51,39  L 51,42  L 50,42  L 50,45  L 49,45  L 49,48  L 48,48  L 48,51  L 47,51  L 47,54  L 46,54  L 46,56  L 45,56  L 45,58  L 44,58  L 44,64  L 45,64  L 45,65  L 46,65  L 46,66  L 48,66  L 48,65  L 50,65  L 50,63  L 51,63  L 51,59  L 52,59  L 52,56  L 53,56  L 53,52  L 54,52  L 54,50  L 55,50  L 55,47  L 56,47  L 56,44  L 57,44  L 57,42  L 58,42  L 58,40  L 59,40  L 59,37  L 60,37  L 60,35  L 61,35  L 61,33  L 62,33  L 62,30  L 63,30  L 63,27  L 64,27  L 64,25  L 65,25  L 65,22  L 66,22  L 66,19  L 67,19  L 67,18  L 66,18  L 66,17  L 67,17  L 67,14  L 66,14  L 66,13  L 65,13  L 65,12  L 64,12  L 64,11  L 63,11  L 63,10  L 62,10  L 62,9  L 50,9  L 50,8  L 49,8  L 49,9  L 48,9  L 48,8  L 47,8  L 47,9  L 46,9  L 46,8  L 43,8  L 43,9  L 42,9  L 42,8  L 39,8  L 39,9  L 38,9  Z  " style="fill:rgb(0, 0, 0); fill-opacity:1.000; stroke:none;" />
 <path d="  M 105,23  L 105,22  L 106,22  L 106,21  L 107,21  L 107,18  L 106,18  L 106,17  L 104,17  L 104,16  L 86,16  L 86,15  L 85,15  L 85,2  L 84,2  L 84,1  L 83,1  L 83,0  L 80,0  L 80,1  L 78,1  L 78,3  L 79,3  L 79,8  L 78,8  L 78,9  L 79,9  L 79,10  L 78,10  L 78,16  L 77,16  L 77,17  L 78,17  L 78,29  L 79,29  L 79,68  L 80,68  L 80,77  L 81,77  L 81,78  L 84,78  L 84,77  L 85,77  L 85,76  L 86,76  L 86,64  L 85,64  L 85,47  L 87,47  L 87,46  L 100,46  L 100,45  L 101,45  L 101,46  L 109,46  L 109,45  L 110,45  L 110,40  L 109,40  L 109,39  L 94,39  L 94,40  L 88,40  L 88,39  L 85,39  L 85,38  L 84,38  L 84,37  L 85,37  L 85,36  L 84,36  L 84,30  L 83,30  L 83,29  L 84,29  L 84,26  L 83,26  L 83,25  L 84,25  L 84,23  L 85,23  L 85,22  L 86,22  L 86,23  L 87,23  L 87,22  L 88,22  L 88,23  L 89,23  L 89,22  L 96,22  L 96,23  L 97,23  L 97,22  L 100,22  L 100,23  L 101,23  L 101,22  L 102,22  L 102,23  Z  " style="fill:rgb(0, 0, 0); fill-opacity:1.000; stroke:none;" />
</svg>
