<?xml version="1.0" encoding="UTF-8" standalone="no"?>
<!DOCTYPE svg PUBLIC "-//W3C//DTD SVG 1.1//EN" 
  "http://www.w3.org/Graphics/SVG/1.1/DTD/svg11.dtd">
<svg width="113" height="113"
     xmlns="http://www.w3.org/2000/svg" version="1.1">
 <path d="  M 76,24  L 74,24  L 74,23  L 62,23  L 62,24  L 50,24  L 50,25  L 41,25  L 41,24  L 38,24  L 38,23  L 36,23  L 36,22  L 27,22  L 27,23  L 22,23  L 22,24  L 17,24  L 17,25  L 12,25  L 12,26  L 7,26  L 7,27  L 2,27  L 2,28  L 1,28  L 1,29  L 0,29  L 0,32  L 1,32  L 1,35  L 9,35  L 9,34  L 13,34  L 13,33  L 19,33  L 19,32  L 26,32  L 26,31  L 27,31  L 27,32  L 28,32  L 28,31  L 30,31  L 30,30  L 33,30  L 33,29  L 36,29  L 36,30  L 37,30  L 37,34  L 36,34  L 36,37  L 35,37  L 35,39  L 34,39  L 34,42  L 33,42  L 33,44  L 32,44  L 32,46  L 31,46  L 31,47  L 30,47  L 30,49  L 29,49  L 29,51  L 28,51  L 28,52  L 27,52  L 27,54  L 26,54  L 26,56  L 25,56  L 25,58  L 24,58  L 24,59  L 23,59  L 23,61  L 22,61  L 22,63  L 21,63  L 21,65  L 20,65  L 20,66  L 19,66  L 19,67  L 18,67  L 18,70  L 17,70  L 17,73  L 16,73  L 16,76  L 15,76  L 15,77  L 14,77  L 14,79  L 13,79  L 13,81  L 12,81  L 12,82  L 11,82  L 11,86  L 10,86  L 10,95  L 11,95  L 11,97  L 12,97  L 12,96  L 14,96  L 14,94  L 15,94  L 15,91  L 16,91  L 16,89  L 17,89  L 17,86  L 18,86  L 18,84  L 19,84  L 19,81  L 20,81  L 20,80  L 21,80  L 21,78  L 22,78  L 22,76  L 23,76  L 23,75  L 24,75  L 24,73  L 25,73  L 25,71  L 26,71  L 26,69  L 27,69  L 27,67  L 28,67  L 28,65  L 29,65  L 29,63  L 30,63  L 30,61  L 31,61  L 31,60  L 32,60  L 32,59  L 33,59  L 33,57  L 34,57  L 34,55  L 35,55  L 35,53  L 36,53  L 36,52  L 37,52  L 37,51  L 38,51  L 38,48  L 39,48  L 39,47  L 40,47  L 40,45  L 41,45  L 41,44  L 42,44  L 42,40  L 43,40  L 43,38  L 44,38  L 44,35  L 45,35  L 45,33  L 47,33  L 47,32  L 54,32  L 54,31  L 55,31  L 55,32  L 56,32  L 56,31  L 67,31  L 67,32  L 68,32  L 68,31  L 71,31  L 71,32  L 72,32  L 72,41  L 71,41  L 71,45  L 70,45  L 70,47  L 69,47  L 69,50  L 68,50  L 68,51  L 67,51  L 67,54  L 66,54  L 66,56  L 65,56  L 65,58  L 64,58  L 64,60  L 63,60  L 63,62  L 62,62  L 62,63  L 61,63  L 61,65  L 60,65  L 60,66  L 59,66  L 59,68  L 58,68  L 58,70  L 57,70  L 57,71  L 56,71  L 56,73  L 55,73  L 55,75  L 54,75  L 54,77  L 53,77  L 53,79  L 52,79  L 52,80  L 51,80  L 51,82  L 50,82  L 50,83  L 49,83  L 49,86  L 50,86  L 50,87  L 52,87  L 52,88  L 53,88  L 53,87  L 55,87  L 55,86  L 56,86  L 56,85  L 57,85  L 57,84  L 58,84  L 58,82  L 59,82  L 59,81  L 60,81  L 60,79  L 61,79  L 61,77  L 62,77  L 62,76  L 63,76  L 63,74  L 64,74  L 64,71  L 65,71  L 65,70  L 66,70  L 66,69  L 67,69  L 67,67  L 68,67  L 68,66  L 69,66  L 69,64  L 70,64  L 70,62  L 71,62  L 71,61  L 72,61  L 72,59  L 73,59  L 73,56  L 74,56  L 74,54  L 75,54  L 75,53  L 76,53  L 76,50  L 77,50  L 77,49  L 78,49  L 78,48  L 81,48  L 81,49  L 97,49  L 97,48  L 98,48  L 98,49  L 104,49  L 104,48  L 106,48  L 106,50  L 107,50  L 107,57  L 106,57  L 106,58  L 107,58  L 107,61  L 106,61  L 106,62  L 107,62  L 107,65  L 106,65  L 106,90  L 105,90  L 105,91  L 106,91  L 106,93  L 105,93  L 105,113  L 110,113  L 110,112  L 111,112  L 111,109  L 112,109  L 112,88  L 113,88  L 113,18  L 112,18  L 112,11  L 111,11  L 111,5  L 110,5  L 110,2  L 109,2  L 109,1  L 108,1  L 108,0  L 106,0  L 106,1  L 104,1  L 104,3  L 103,3  L 103,4  L 104,4  L 104,8  L 105,8  L 105,14  L 106,14  L 106,23  L 107,23  L 107,25  L 106,25  L 106,26  L 107,26  L 107,37  L 106,37  L 106,38  L 107,38  L 107,39  L 104,39  L 104,40  L 100,40  L 100,41  L 98,41  L 98,42  L 92,42  L 92,43  L 90,43  L 90,42  L 80,42  L 80,41  L 79,41  L 79,30  L 80,30  L 80,27  L 79,27  L 79,26  L 78,26  L 78,25  L 76,25  Z  " style="fill:rgb(0, 0, 0); fill-opacity:1.000; stroke:none;" />
</svg>
