<?xml version="1.0" encoding="UTF-8" standalone="no"?>
<!DOCTYPE svg PUBLIC "-//W3C//DTD SVG 1.1//EN" 
  "http://www.w3.org/Graphics/SVG/1.1/DTD/svg11.dtd">
<svg width="99" height="149"
     xmlns="http://www.w3.org/2000/svg" version="1.1">
 <path d="  M 3,21  L 3,20  L 7,20  L 7,19  L 9,19  L 9,18  L 17,18  L 17,17  L 18,17  L 18,18  L 20,18  L 20,17  L 24,17  L 24,18  L 25,18  L 25,19  L 26,19  L 26,22  L 25,22  L 25,24  L 24,24  L 24,27  L 23,27  L 23,29  L 22,29  L 22,30  L 21,30  L 21,32  L 20,32  L 20,33  L 19,33  L 19,35  L 18,35  L 18,36  L 17,36  L 17,38  L 16,38  L 16,40  L 15,40  L 15,42  L 14,42  L 14,44  L 13,44  L 13,45  L 12,45  L 12,47  L 11,47  L 11,49  L 10,49  L 10,52  L 9,52  L 9,54  L 8,54  L 8,56  L 7,56  L 7,58  L 6,58  L 6,59  L 5,59  L 5,62  L 4,62  L 4,64  L 3,64  L 3,65  L 4,65  L 4,69  L 5,69  L 5,70  L 6,70  L 6,71  L 9,71  L 9,70  L 10,70  L 10,67  L 11,67  L 11,65  L 12,65  L 12,62  L 13,62  L 13,61  L 14,61  L 14,59  L 15,59  L 15,57  L 16,57  L 16,55  L 17,55  L 17,54  L 18,54  L 18,51  L 19,51  L 19,50  L 20,50  L 20,47  L 21,47  L 21,46  L 22,46  L 22,43  L 23,43  L 23,42  L 24,42  L 24,39  L 25,39  L 25,38  L 26,38  L 26,36  L 27,36  L 27,34  L 28,34  L 28,33  L 29,33  L 29,29  L 30,29  L 30,28  L 31,28  L 31,25  L 32,25  L 32,23  L 33,23  L 33,16  L 32,16  L 32,14  L 31,14  L 31,13  L 30,13  L 30,12  L 26,12  L 26,11  L 18,11  L 18,12  L 17,12  L 17,11  L 16,11  L 16,12  L 9,12  L 9,13  L 7,13  L 7,12  L 6,12  L 6,13  L 3,13  L 3,14  L 1,14  L 1,16  L 0,16  L 0,19  L 1,19  L 1,20  L 2,20  L 2,21  Z  " style="fill:rgb(0, 0, 0); fill-opacity:1.000; stroke:none;" />
 <path d="  M 39,101  L 39,100  L 59,100  L 59,99  L 60,99  L 60,100  L 63,100  L 63,99  L 64,99  L 64,100  L 67,100  L 67,99  L 68,99  L 68,100  L 69,100  L 69,99  L 80,99  L 80,100  L 85,100  L 85,101  L 86,101  L 86,107  L 85,107  L 85,110  L 84,110  L 84,114  L 83,114  L 83,115  L 82,115  L 82,118  L 81,118  L 81,122  L 80,122  L 80,125  L 79,125  L 79,132  L 78,132  L 78,142  L 77,142  L 77,146  L 78,146  L 78,149  L 85,149  L 85,143  L 86,143  L 86,130  L 87,130  L 87,123  L 88,123  L 88,121  L 89,121  L 89,120  L 88,120  L 88,119  L 89,119  L 89,117  L 90,117  L 90,115  L 91,115  L 91,112  L 92,112  L 92,110  L 93,110  L 93,109  L 94,109  L 94,100  L 93,100  L 93,98  L 92,98  L 92,97  L 91,97  L 91,96  L 90,96  L 90,95  L 89,95  L 89,94  L 87,94  L 87,93  L 75,93  L 75,92  L 74,92  L 74,93  L 38,93  L 38,94  L 37,94  L 37,93  L 36,93  L 36,94  L 33,94  L 33,95  L 32,95  L 32,96  L 31,96  L 31,100  L 33,100  L 33,101  Z  " style="fill:rgb(0, 0, 0); fill-opacity:1.000; stroke:none;" />
 <path d="  M 61,43  L 61,40  L 63,40  L 63,39  L 64,39  L 64,40  L 69,40  L 69,39  L 77,39  L 77,38  L 85,38  L 85,37  L 87,37  L 87,38  L 89,38  L 89,37  L 91,37  L 91,38  L 93,38  L 93,50  L 92,50  L 92,51  L 93,51  L 93,54  L 92,54  L 92,55  L 93,55  L 93,58  L 92,58  L 92,59  L 93,59  L 93,62  L 92,62  L 92,63  L 93,63  L 93,66  L 92,66  L 92,87  L 93,87  L 93,89  L 94,89  L 94,88  L 96,88  L 96,87  L 97,87  L 97,86  L 98,86  L 98,81  L 99,81  L 99,80  L 98,80  L 98,77  L 99,77  L 99,75  L 98,75  L 98,74  L 99,74  L 99,23  L 98,23  L 98,12  L 97,12  L 97,11  L 98,11  L 98,10  L 97,10  L 97,9  L 98,9  L 98,8  L 97,8  L 97,2  L 96,2  L 96,1  L 95,1  L 95,0  L 91,0  L 91,14  L 92,14  L 92,30  L 91,30  L 91,31  L 78,31  L 78,32  L 71,32  L 71,33  L 64,33  L 64,27  L 65,27  L 65,20  L 64,20  L 64,19  L 63,19  L 63,18  L 61,18  L 61,17  L 59,17  L 59,16  L 41,16  L 41,15  L 40,15  L 40,16  L 38,16  L 38,17  L 37,17  L 37,19  L 38,19  L 38,22  L 57,22  L 57,23  L 58,23  L 58,25  L 59,25  L 59,26  L 58,26  L 58,28  L 57,28  L 57,29  L 58,29  L 58,30  L 57,30  L 57,33  L 56,33  L 56,36  L 55,36  L 55,39  L 54,39  L 54,42  L 53,42  L 53,46  L 52,46  L 52,48  L 51,48  L 51,52  L 50,52  L 50,54  L 49,54  L 49,58  L 48,58  L 48,62  L 47,62  L 47,64  L 46,64  L 46,69  L 47,69  L 47,71  L 49,71  L 49,72  L 52,72  L 52,69  L 53,69  L 53,66  L 54,66  L 54,64  L 55,64  L 55,59  L 56,59  L 56,55  L 57,55  L 57,50  L 58,50  L 58,47  L 59,47  L 59,45  L 60,45  L 60,43  Z  " style="fill:rgb(0, 0, 0); fill-opacity:1.000; stroke:none;" />
</svg>
