<?xml version="1.0" encoding="UTF-8" standalone="no"?>
<!DOCTYPE svg PUBLIC "-//W3C//DTD SVG 1.1//EN" 
  "http://www.w3.org/Graphics/SVG/1.1/DTD/svg11.dtd">
<svg width="102" height="145"
     xmlns="http://www.w3.org/2000/svg" version="1.1">
 <path d="  M 22,46  L 23,46  L 23,44  L 24,44  L 24,42  L 25,42  L 25,41  L 26,41  L 26,38  L 27,38  L 27,37  L 28,37  L 28,34  L 29,34  L 29,33  L 30,33  L 30,30  L 31,30  L 31,28  L 32,28  L 32,26  L 33,26  L 33,25  L 34,25  L 34,22  L 35,22  L 35,16  L 34,16  L 34,15  L 33,15  L 33,14  L 32,14  L 32,13  L 29,13  L 29,12  L 26,12  L 26,11  L 15,11  L 15,12  L 9,12  L 9,13  L 4,13  L 4,14  L 2,14  L 2,15  L 1,15  L 1,18  L 0,18  L 0,19  L 1,19  L 1,20  L 2,20  L 2,19  L 4,19  L 4,20  L 9,20  L 9,19  L 10,19  L 10,18  L 14,18  L 14,17  L 15,17  L 15,18  L 17,18  L 17,17  L 24,17  L 24,16  L 25,16  L 25,17  L 27,17  L 27,22  L 26,22  L 26,25  L 25,25  L 25,27  L 24,27  L 24,29  L 23,29  L 23,31  L 22,31  L 22,33  L 21,33  L 21,35  L 20,35  L 20,36  L 19,36  L 19,38  L 18,38  L 18,40  L 17,40  L 17,42  L 16,42  L 16,44  L 15,44  L 15,47  L 14,47  L 14,49  L 13,49  L 13,51  L 12,51  L 12,53  L 11,53  L 11,55  L 10,55  L 10,56  L 9,56  L 9,59  L 8,59  L 8,63  L 9,63  L 9,64  L 10,64  L 10,65  L 11,65  L 11,66  L 12,66  L 12,65  L 14,65  L 14,63  L 15,63  L 15,61  L 16,61  L 16,58  L 17,58  L 17,57  L 18,57  L 18,55  L 19,55  L 19,53  L 20,53  L 20,50  L 21,50  L 21,49  L 22,49  Z  " style="fill:rgb(0, 0, 0); fill-opacity:1.000; stroke:none;" />
 <path d="  M 56,101  L 57,101  L 57,104  L 58,104  L 58,109  L 59,109  L 59,110  L 58,110  L 58,113  L 59,113  L 59,114  L 58,114  L 58,118  L 57,118  L 57,123  L 56,123  L 56,126  L 55,126  L 55,130  L 54,130  L 54,135  L 53,135  L 53,137  L 52,137  L 52,139  L 51,139  L 51,145  L 56,145  L 56,144  L 57,144  L 57,143  L 58,143  L 58,141  L 59,141  L 59,137  L 60,137  L 60,131  L 61,131  L 61,126  L 62,126  L 62,123  L 63,123  L 63,121  L 64,121  L 64,115  L 65,115  L 65,109  L 66,109  L 66,108  L 65,108  L 65,107  L 66,107  L 66,106  L 65,106  L 65,103  L 64,103  L 64,101  L 63,101  L 63,99  L 62,99  L 62,98  L 61,98  L 61,97  L 60,97  L 60,96  L 59,96  L 59,95  L 58,95  L 58,94  L 57,94  L 57,93  L 55,93  L 55,92  L 43,92  L 43,91  L 42,91  L 42,92  L 32,92  L 32,93  L 28,93  L 28,94  L 27,94  L 27,96  L 26,96  L 26,97  L 27,97  L 27,99  L 28,99  L 28,100  L 32,100  L 32,99  L 45,99  L 45,98  L 46,98  L 46,99  L 49,99  L 49,98  L 50,98  L 50,99  L 56,99  Z  " style="fill:rgb(0, 0, 0); fill-opacity:1.000; stroke:none;" />
 <path d="  M 61,42  L 62,42  L 62,41  L 63,41  L 63,39  L 64,39  L 64,38  L 73,38  L 73,37  L 83,37  L 83,36  L 93,36  L 93,37  L 94,37  L 94,44  L 93,44  L 93,45  L 94,45  L 94,56  L 93,56  L 93,57  L 94,57  L 94,59  L 93,59  L 93,74  L 92,74  L 92,75  L 93,75  L 93,78  L 92,78  L 92,87  L 93,87  L 93,88  L 98,88  L 98,86  L 99,86  L 99,71  L 100,71  L 100,54  L 101,54  L 101,52  L 100,52  L 100,51  L 101,51  L 101,23  L 100,23  L 100,12  L 99,12  L 99,11  L 100,11  L 100,10  L 99,10  L 99,4  L 98,4  L 98,2  L 97,2  L 97,0  L 93,0  L 93,1  L 92,1  L 92,9  L 93,9  L 93,10  L 92,10  L 92,11  L 93,11  L 93,17  L 94,17  L 94,19  L 93,19  L 93,20  L 94,20  L 94,28  L 93,28  L 93,29  L 90,29  L 90,30  L 81,30  L 81,31  L 71,31  L 71,32  L 69,32  L 69,31  L 67,31  L 67,32  L 66,32  L 66,28  L 67,28  L 67,27  L 68,27  L 68,20  L 67,20  L 67,19  L 66,19  L 66,17  L 64,17  L 64,16  L 62,16  L 62,15  L 57,15  L 57,14  L 56,14  L 56,15  L 55,15  L 55,14  L 54,14  L 54,15  L 51,15  L 51,14  L 50,14  L 50,15  L 49,15  L 49,14  L 48,14  L 48,15  L 47,15  L 47,14  L 40,14  L 40,21  L 42,21  L 42,20  L 49,20  L 49,21  L 50,21  L 50,20  L 56,20  L 56,21  L 60,21  L 60,22  L 61,22  L 61,23  L 62,23  L 62,24  L 61,24  L 61,27  L 60,27  L 60,31  L 59,31  L 59,33  L 58,33  L 58,36  L 57,36  L 57,38  L 56,38  L 56,40  L 55,40  L 55,44  L 54,44  L 54,46  L 53,46  L 53,50  L 52,50  L 52,53  L 51,53  L 51,56  L 50,56  L 50,58  L 49,58  L 49,62  L 48,62  L 48,68  L 49,68  L 49,69  L 51,69  L 51,70  L 52,70  L 52,69  L 53,69  L 53,67  L 54,67  L 54,65  L 55,65  L 55,61  L 56,61  L 56,57  L 57,57  L 57,54  L 58,54  L 58,51  L 59,51  L 59,48  L 60,48  L 60,45  L 61,45  Z  " style="fill:rgb(0, 0, 0); fill-opacity:1.000; stroke:none;" />
 <path d="  M 96,111  L 95,111  L 95,116  L 94,116  L 94,124  L 93,124  L 93,125  L 94,125  L 94,126  L 93,126  L 93,134  L 92,134  L 92,144  L 94,144  L 94,145  L 97,145  L 97,143  L 98,143  L 98,141  L 99,141  L 99,131  L 100,131  L 100,122  L 101,122  L 101,115  L 102,115  L 102,97  L 101,97  L 101,96  L 100,96  L 100,95  L 98,95  L 98,94  L 95,94  L 95,93  L 92,93  L 92,94  L 66,94  L 66,96  L 65,96  L 65,99  L 66,99  L 66,100  L 68,100  L 68,101  L 70,101  L 70,100  L 95,100  L 95,101  L 96,101  L 96,104  L 97,104  L 97,106  L 96,106  Z  " style="fill:rgb(0, 0, 0); fill-opacity:1.000; stroke:none;" />
</svg>
