<?xml version="1.0" encoding="UTF-8" standalone="no"?>
<!DOCTYPE svg PUBLIC "-//W3C//DTD SVG 1.1//EN" 
  "http://www.w3.org/Graphics/SVG/1.1/DTD/svg11.dtd">
<svg width="104" height="157"
     xmlns="http://www.w3.org/2000/svg" version="1.1">
 <path d="  M 19,39  L 19,41  L 18,41  L 18,42  L 17,42  L 17,44  L 16,44  L 16,46  L 15,46  L 15,48  L 14,48  L 14,50  L 13,50  L 13,52  L 12,52  L 12,54  L 11,54  L 11,55  L 10,55  L 10,57  L 9,57  L 9,58  L 8,58  L 8,60  L 7,60  L 7,61  L 6,61  L 6,64  L 8,64  L 8,65  L 12,65  L 12,64  L 14,64  L 14,63  L 15,63  L 15,62  L 16,62  L 16,59  L 17,59  L 17,58  L 18,58  L 18,56  L 19,56  L 19,54  L 20,54  L 20,52  L 21,52  L 21,50  L 22,50  L 22,48  L 23,48  L 23,46  L 25,46  L 25,44  L 26,44  L 26,42  L 27,42  L 27,40  L 28,40  L 28,39  L 29,39  L 29,38  L 30,38  L 30,35  L 31,35  L 31,33  L 32,33  L 32,31  L 33,31  L 33,29  L 34,29  L 34,26  L 35,26  L 35,18  L 34,18  L 34,16  L 32,16  L 32,15  L 31,15  L 31,14  L 30,14  L 30,13  L 10,13  L 10,14  L 4,14  L 4,15  L 2,15  L 2,16  L 1,16  L 1,19  L 0,19  L 0,20  L 4,20  L 4,21  L 5,21  L 5,22  L 8,22  L 8,21  L 9,21  L 9,20  L 13,20  L 13,19  L 14,19  L 14,20  L 15,20  L 15,19  L 26,19  L 26,20  L 27,20  L 27,24  L 26,24  L 26,27  L 25,27  L 25,30  L 24,30  L 24,32  L 23,32  L 23,34  L 22,34  L 22,35  L 21,35  L 21,37  L 20,37  L 20,39  Z  " style="fill:rgb(0, 0, 0); fill-opacity:1.000; stroke:none;" />
 <path d="  M 35,107  L 34,107  L 34,119  L 33,119  L 33,121  L 34,121  L 34,123  L 33,123  L 33,128  L 34,128  L 34,129  L 33,129  L 33,130  L 34,130  L 34,138  L 35,138  L 35,145  L 36,145  L 36,150  L 37,150  L 37,154  L 39,154  L 39,155  L 40,155  L 40,156  L 41,156  L 41,157  L 64,157  L 64,156  L 68,156  L 68,155  L 71,155  L 71,154  L 74,154  L 74,153  L 76,153  L 76,152  L 79,152  L 79,151  L 80,151  L 80,150  L 82,150  L 82,149  L 83,149  L 83,148  L 85,148  L 85,147  L 86,147  L 86,143  L 87,143  L 87,135  L 88,135  L 88,130  L 89,130  L 89,126  L 90,126  L 90,97  L 89,97  L 89,96  L 84,96  L 84,97  L 83,97  L 83,119  L 84,119  L 84,121  L 83,121  L 83,124  L 41,124  L 41,114  L 42,114  L 42,113  L 41,113  L 41,110  L 42,110  L 42,109  L 41,109  L 41,108  L 42,108  L 42,107  L 41,107  L 41,106  L 42,106  L 42,97  L 39,97  L 39,98  L 37,98  L 37,99  L 36,99  L 36,100  L 35,100  L 35,101  L 34,101  L 34,102  L 35,102  L 35,104  L 34,104  L 34,106  L 35,106  Z  M 69,149  L 65,149  L 65,150  L 60,150  L 60,151  L 52,151  L 52,152  L 49,152  L 49,151  L 46,151  L 46,150  L 44,150  L 44,148  L 43,148  L 43,145  L 42,145  L 42,139  L 41,139  L 41,137  L 42,137  L 42,136  L 41,136  L 41,134  L 42,134  L 42,133  L 43,133  L 43,132  L 45,132  L 45,131  L 46,131  L 46,132  L 47,132  L 47,131  L 48,131  L 48,132  L 49,132  L 49,131  L 50,131  L 50,132  L 51,132  L 51,131  L 80,131  L 80,132  L 81,132  L 81,138  L 80,138  L 80,141  L 79,141  L 79,144  L 78,144  L 78,145  L 77,145  L 77,146  L 75,146  L 75,147  L 72,147  L 72,148  L 69,148  Z  " style="fill:rgb(0, 0, 0); fill-opacity:1.000; stroke:none;" />
 <path d="  M 102,5  L 101,5  L 101,1  L 99,1  L 99,0  L 98,0  L 98,1  L 95,1  L 95,9  L 96,9  L 96,10  L 95,10  L 95,11  L 96,11  L 96,31  L 97,31  L 97,32  L 96,32  L 96,33  L 89,33  L 89,34  L 86,34  L 86,33  L 85,33  L 85,34  L 84,34  L 84,33  L 83,33  L 83,34  L 78,34  L 78,35  L 68,35  L 68,36  L 67,36  L 67,32  L 68,32  L 68,30  L 69,30  L 69,26  L 70,26  L 70,25  L 69,25  L 69,24  L 70,24  L 70,23  L 69,23  L 69,21  L 68,21  L 68,20  L 67,20  L 67,19  L 66,19  L 66,18  L 65,18  L 65,17  L 63,17  L 63,16  L 41,16  L 41,17  L 40,17  L 40,22  L 61,22  L 61,23  L 62,23  L 62,24  L 63,24  L 63,26  L 62,26  L 62,29  L 61,29  L 61,34  L 60,34  L 60,37  L 59,37  L 59,40  L 58,40  L 58,43  L 57,43  L 57,47  L 56,47  L 56,49  L 55,49  L 55,52  L 54,52  L 54,55  L 53,55  L 53,58  L 52,58  L 52,61  L 51,61  L 51,64  L 50,64  L 50,65  L 49,65  L 49,68  L 48,68  L 48,72  L 49,72  L 49,73  L 53,73  L 53,72  L 54,72  L 54,71  L 55,71  L 55,70  L 56,70  L 56,67  L 57,67  L 57,65  L 58,65  L 58,61  L 59,61  L 59,59  L 60,59  L 60,56  L 61,56  L 61,52  L 62,52  L 62,48  L 63,48  L 63,46  L 64,46  L 64,43  L 65,43  L 65,42  L 73,42  L 73,41  L 74,41  L 74,42  L 75,42  L 75,41  L 85,41  L 85,40  L 86,40  L 86,41  L 88,41  L 88,40  L 90,40  L 90,41  L 93,41  L 93,40  L 96,40  L 96,41  L 97,41  L 97,51  L 96,51  L 96,52  L 97,52  L 97,55  L 96,55  L 96,56  L 97,56  L 97,67  L 96,67  L 96,68  L 97,68  L 97,71  L 96,71  L 96,72  L 97,72  L 97,75  L 96,75  L 96,76  L 97,76  L 97,79  L 96,79  L 96,87  L 97,87  L 97,88  L 101,88  L 101,87  L 103,87  L 103,84  L 104,84  L 104,83  L 103,83  L 103,82  L 104,82  L 104,29  L 103,29  L 103,28  L 104,28  L 104,27  L 103,27  L 103,26  L 104,26  L 104,25  L 103,25  L 103,24  L 104,24  L 104,23  L 103,23  L 103,15  L 102,15  Z  M 66,36  L 67,36  L 67,37  L 66,37  Z  " style="fill:rgb(0, 0, 0); fill-opacity:1.000; stroke:none;" />
</svg>
