<?xml version="1.0" encoding="UTF-8" standalone="no"?>
<!DOCTYPE svg PUBLIC "-//W3C//DTD SVG 1.1//EN" 
  "http://www.w3.org/Graphics/SVG/1.1/DTD/svg11.dtd">
<svg width="104" height="155"
     xmlns="http://www.w3.org/2000/svg" version="1.1">
 <path d="  M 22,46  L 23,46  L 23,45  L 24,45  L 24,42  L 25,42  L 25,40  L 26,40  L 26,38  L 27,38  L 27,36  L 28,36  L 28,34  L 29,34  L 29,33  L 30,33  L 30,31  L 31,31  L 31,29  L 32,29  L 32,26  L 33,26  L 33,22  L 34,22  L 34,14  L 33,14  L 33,13  L 32,13  L 32,12  L 30,12  L 30,11  L 29,11  L 29,10  L 23,10  L 23,9  L 22,9  L 22,10  L 3,10  L 3,11  L 1,11  L 1,14  L 0,14  L 0,15  L 1,15  L 1,16  L 6,16  L 6,17  L 7,17  L 7,16  L 26,16  L 26,18  L 27,18  L 27,19  L 26,19  L 26,23  L 25,23  L 25,27  L 24,27  L 24,29  L 23,29  L 23,32  L 22,32  L 22,33  L 21,33  L 21,35  L 20,35  L 20,37  L 19,37  L 19,39  L 18,39  L 18,40  L 17,40  L 17,42  L 16,42  L 16,44  L 15,44  L 15,47  L 14,47  L 14,49  L 13,49  L 13,52  L 12,52  L 12,54  L 11,54  L 11,55  L 10,55  L 10,57  L 9,57  L 9,59  L 8,59  L 8,61  L 7,61  L 7,63  L 8,63  L 8,64  L 7,64  L 7,65  L 9,65  L 9,66  L 10,66  L 10,65  L 11,65  L 11,66  L 12,66  L 12,65  L 13,65  L 13,63  L 14,63  L 14,62  L 15,62  L 15,61  L 16,61  L 16,58  L 17,58  L 17,57  L 18,57  L 18,55  L 19,55  L 19,53  L 20,53  L 20,50  L 21,50  L 21,48  L 22,48  Z  " style="fill:rgb(0, 0, 0); fill-opacity:1.000; stroke:none;" />
 <path d="  M 97,115  L 96,115  L 96,116  L 97,116  L 97,118  L 96,118  L 96,124  L 95,124  L 95,128  L 94,128  L 94,132  L 93,132  L 93,133  L 92,133  L 92,135  L 91,135  L 91,137  L 89,137  L 89,138  L 88,138  L 88,139  L 86,139  L 86,140  L 85,140  L 85,141  L 82,141  L 82,142  L 81,142  L 81,143  L 79,143  L 79,144  L 77,144  L 77,145  L 73,145  L 73,146  L 70,146  L 70,147  L 67,147  L 67,148  L 50,148  L 50,147  L 48,147  L 48,146  L 46,146  L 46,145  L 43,145  L 43,144  L 42,144  L 42,140  L 41,140  L 41,138  L 42,138  L 42,136  L 41,136  L 41,133  L 42,133  L 42,126  L 43,126  L 43,124  L 44,124  L 44,121  L 45,121  L 45,119  L 46,119  L 46,117  L 47,117  L 47,115  L 48,115  L 48,114  L 49,114  L 49,113  L 50,113  L 50,112  L 51,112  L 51,110  L 53,110  L 53,109  L 55,109  L 55,108  L 56,108  L 56,107  L 57,107  L 57,106  L 58,106  L 58,105  L 59,105  L 59,104  L 61,104  L 61,103  L 63,103  L 63,102  L 64,102  L 64,101  L 67,101  L 67,100  L 68,100  L 68,101  L 71,101  L 71,100  L 72,100  L 72,101  L 75,101  L 75,100  L 76,100  L 76,101  L 77,101  L 77,100  L 78,100  L 78,101  L 79,101  L 79,100  L 80,100  L 80,101  L 81,101  L 81,100  L 82,100  L 82,101  L 87,101  L 87,102  L 90,102  L 90,103  L 93,103  L 93,104  L 94,104  L 94,105  L 95,105  L 95,107  L 96,107  L 96,108  L 97,108  Z  M 67,155  L 67,154  L 71,154  L 71,153  L 74,153  L 74,152  L 76,152  L 76,151  L 79,151  L 79,150  L 81,150  L 81,149  L 84,149  L 84,148  L 87,148  L 87,147  L 89,147  L 89,146  L 90,146  L 90,145  L 92,145  L 92,144  L 93,144  L 93,143  L 94,143  L 94,142  L 95,142  L 95,141  L 96,141  L 96,140  L 97,140  L 97,139  L 98,139  L 98,138  L 99,138  L 99,136  L 100,136  L 100,134  L 101,134  L 101,131  L 102,131  L 102,126  L 103,126  L 103,122  L 104,122  L 104,104  L 103,104  L 103,103  L 102,103  L 102,100  L 101,100  L 101,99  L 100,99  L 100,98  L 98,98  L 98,97  L 96,97  L 96,96  L 94,96  L 94,95  L 92,95  L 92,94  L 91,94  L 91,95  L 90,95  L 90,94  L 87,94  L 87,93  L 80,93  L 80,92  L 78,92  L 78,93  L 71,93  L 71,92  L 60,92  L 60,93  L 59,93  L 59,94  L 58,94  L 58,95  L 57,95  L 57,96  L 56,96  L 56,98  L 55,98  L 55,99  L 54,99  L 54,100  L 53,100  L 53,101  L 52,101  L 52,102  L 51,102  L 51,103  L 50,103  L 50,104  L 49,104  L 49,105  L 48,105  L 48,106  L 47,106  L 47,107  L 46,107  L 46,108  L 45,108  L 45,109  L 44,109  L 44,110  L 43,110  L 43,111  L 42,111  L 42,112  L 41,112  L 41,114  L 40,114  L 40,116  L 39,116  L 39,118  L 38,118  L 38,121  L 37,121  L 37,124  L 36,124  L 36,130  L 35,130  L 35,132  L 34,132  L 34,141  L 35,141  L 35,142  L 34,142  L 34,143  L 35,143  L 35,146  L 36,146  L 36,148  L 37,148  L 37,149  L 39,149  L 39,150  L 40,150  L 40,151  L 42,151  L 42,152  L 44,152  L 44,153  L 47,153  L 47,154  L 52,154  L 52,155  Z  " style="fill:rgb(0, 0, 0); fill-opacity:1.000; stroke:none;" />
 <path d="  M 95,41  L 95,58  L 96,58  L 96,60  L 95,60  L 95,61  L 96,61  L 96,85  L 97,85  L 97,89  L 99,89  L 99,90  L 100,90  L 100,89  L 101,89  L 101,88  L 102,88  L 102,36  L 101,36  L 101,31  L 100,31  L 100,20  L 99,20  L 99,19  L 100,19  L 100,18  L 99,18  L 99,13  L 98,13  L 98,4  L 97,4  L 97,1  L 96,1  L 96,0  L 92,0  L 92,2  L 91,2  L 91,8  L 92,8  L 92,15  L 93,15  L 93,22  L 94,22  L 94,23  L 93,23  L 93,25  L 94,25  L 94,27  L 93,27  L 93,28  L 94,28  L 94,33  L 92,33  L 92,34  L 82,34  L 82,35  L 75,35  L 75,36  L 67,36  L 67,37  L 66,37  L 66,36  L 65,36  L 65,35  L 66,35  L 66,31  L 67,31  L 67,29  L 68,29  L 68,20  L 67,20  L 67,19  L 66,19  L 66,18  L 65,18  L 65,16  L 64,16  L 64,15  L 63,15  L 63,14  L 62,14  L 62,13  L 59,13  L 59,12  L 46,12  L 46,13  L 45,13  L 45,12  L 40,12  L 40,13  L 38,13  L 38,14  L 37,14  L 37,15  L 38,15  L 38,17  L 39,17  L 39,18  L 40,18  L 40,19  L 47,19  L 47,18  L 48,18  L 48,19  L 51,19  L 51,18  L 52,18  L 52,19  L 58,19  L 58,20  L 61,20  L 61,21  L 62,21  L 62,27  L 61,27  L 61,33  L 60,33  L 60,36  L 59,36  L 59,39  L 58,39  L 58,41  L 57,41  L 57,44  L 56,44  L 56,47  L 55,47  L 55,50  L 54,50  L 54,53  L 53,53  L 53,56  L 52,56  L 52,60  L 51,60  L 51,63  L 50,63  L 50,64  L 49,64  L 49,68  L 48,68  L 48,73  L 49,73  L 49,75  L 50,75  L 50,76  L 51,76  L 51,77  L 52,77  L 52,76  L 53,76  L 53,74  L 54,74  L 54,72  L 55,72  L 55,69  L 56,69  L 56,65  L 57,65  L 57,62  L 58,62  L 58,58  L 59,58  L 59,55  L 60,55  L 60,51  L 61,51  L 61,49  L 62,49  L 62,46  L 63,46  L 63,45  L 64,45  L 64,43  L 65,43  L 65,42  L 67,42  L 67,43  L 71,43  L 71,42  L 81,42  L 81,41  Z  " style="fill:rgb(0, 0, 0); fill-opacity:1.000; stroke:none;" />
</svg>
