<?xml version="1.0" encoding="UTF-8" standalone="no"?>
<!DOCTYPE svg PUBLIC "-//W3C//DTD SVG 1.1//EN" 
  "http://www.w3.org/Graphics/SVG/1.1/DTD/svg11.dtd">
<svg width="104" height="138"
     xmlns="http://www.w3.org/2000/svg" version="1.1">
 <path d="  M 18,9  L 19,9  L 19,10  L 20,10  L 20,9  L 22,9  L 22,10  L 23,10  L 23,16  L 22,16  L 22,19  L 21,19  L 21,22  L 20,22  L 20,24  L 19,24  L 19,27  L 18,27  L 18,28  L 17,28  L 17,30  L 16,30  L 16,32  L 15,32  L 15,34  L 14,34  L 14,36  L 13,36  L 13,39  L 12,39  L 12,41  L 11,41  L 11,42  L 10,42  L 10,44  L 9,44  L 9,46  L 8,46  L 8,48  L 7,48  L 7,49  L 6,49  L 6,51  L 5,51  L 5,52  L 4,52  L 4,56  L 9,56  L 9,55  L 11,55  L 11,54  L 12,54  L 12,53  L 13,53  L 13,52  L 14,52  L 14,50  L 15,50  L 15,48  L 16,48  L 16,46  L 17,46  L 17,44  L 18,44  L 18,42  L 19,42  L 19,40  L 20,40  L 20,38  L 21,38  L 21,36  L 22,36  L 22,33  L 23,33  L 23,31  L 24,31  L 24,29  L 25,29  L 25,26  L 26,26  L 26,25  L 27,25  L 27,22  L 28,22  L 28,20  L 29,20  L 29,18  L 30,18  L 30,17  L 29,17  L 29,16  L 30,16  L 30,9  L 29,9  L 29,6  L 28,6  L 28,4  L 26,4  L 26,3  L 16,3  L 16,4  L 3,4  L 3,5  L 1,5  L 1,6  L 0,6  L 0,8  L 1,8  L 1,10  L 18,10  Z  " style="fill:rgb(0, 0, 0); fill-opacity:1.000; stroke:none;" />
 <path d="  M 72,138  L 72,137  L 77,137  L 77,136  L 81,136  L 81,135  L 84,135  L 84,134  L 87,134  L 87,133  L 89,133  L 89,132  L 91,132  L 91,131  L 93,131  L 93,130  L 95,130  L 95,129  L 96,129  L 96,128  L 97,128  L 97,127  L 98,127  L 98,126  L 99,126  L 99,124  L 100,124  L 100,123  L 101,123  L 101,120  L 102,120  L 102,115  L 103,115  L 103,112  L 104,112  L 104,92  L 103,92  L 103,91  L 102,91  L 102,90  L 101,90  L 101,88  L 99,88  L 99,87  L 98,87  L 98,86  L 96,86  L 96,85  L 95,85  L 95,84  L 94,84  L 94,83  L 93,83  L 93,82  L 92,82  L 92,81  L 91,81  L 91,82  L 90,82  L 90,81  L 89,81  L 89,80  L 88,80  L 88,79  L 87,79  L 87,80  L 84,80  L 84,79  L 83,79  L 83,80  L 80,80  L 80,79  L 70,79  L 70,80  L 63,80  L 63,81  L 61,81  L 61,82  L 59,82  L 59,83  L 57,83  L 57,85  L 56,85  L 56,86  L 55,86  L 55,87  L 54,87  L 54,88  L 53,88  L 53,89  L 52,89  L 52,90  L 50,90  L 50,91  L 49,91  L 49,92  L 48,92  L 48,94  L 45,94  L 45,95  L 44,95  L 44,96  L 43,96  L 43,97  L 42,97  L 42,98  L 41,98  L 41,99  L 40,99  L 40,102  L 39,102  L 39,103  L 38,103  L 38,105  L 37,105  L 37,106  L 38,106  L 38,107  L 37,107  L 37,109  L 36,109  L 36,112  L 35,112  L 35,115  L 34,115  L 34,116  L 35,116  L 35,117  L 34,117  L 34,126  L 35,126  L 35,128  L 36,128  L 36,132  L 37,132  L 37,133  L 39,133  L 39,134  L 41,134  L 41,135  L 43,135  L 43,136  L 44,136  L 44,137  L 50,137  L 50,138  Z  M 77,129  L 77,130  L 72,130  L 72,131  L 67,131  L 67,132  L 53,132  L 53,131  L 50,131  L 50,130  L 46,130  L 46,129  L 44,129  L 44,128  L 43,128  L 43,127  L 42,127  L 42,125  L 41,125  L 41,120  L 42,120  L 42,119  L 41,119  L 41,118  L 42,118  L 42,114  L 43,114  L 43,110  L 44,110  L 44,107  L 45,107  L 45,106  L 46,106  L 46,104  L 47,104  L 47,103  L 48,103  L 48,102  L 49,102  L 49,101  L 50,101  L 50,100  L 51,100  L 51,99  L 52,99  L 52,98  L 54,98  L 54,97  L 55,97  L 55,96  L 57,96  L 57,95  L 58,95  L 58,94  L 59,94  L 59,93  L 60,93  L 60,92  L 62,92  L 62,91  L 63,91  L 63,90  L 65,90  L 65,89  L 67,89  L 67,88  L 70,88  L 70,87  L 76,87  L 76,86  L 77,86  L 77,87  L 82,87  L 82,88  L 84,88  L 84,87  L 85,87  L 85,88  L 87,88  L 87,89  L 90,89  L 90,90  L 91,90  L 91,91  L 93,91  L 93,92  L 95,92  L 95,95  L 96,95  L 96,96  L 97,96  L 97,109  L 96,109  L 96,113  L 95,113  L 95,117  L 94,117  L 94,119  L 93,119  L 93,120  L 92,120  L 92,122  L 91,122  L 91,124  L 90,124  L 90,125  L 88,125  L 88,126  L 85,126  L 85,127  L 83,127  L 83,128  L 80,128  L 80,129  Z  " style="fill:rgb(0, 0, 0); fill-opacity:1.000; stroke:none;" />
 <path d="  M 49,62  L 50,62  L 50,59  L 51,59  L 51,55  L 52,55  L 52,51  L 53,51  L 53,46  L 54,46  L 54,44  L 55,44  L 55,43  L 54,43  L 54,42  L 55,42  L 55,40  L 56,40  L 56,37  L 57,37  L 57,31  L 60,31  L 60,30  L 63,30  L 63,31  L 64,31  L 64,30  L 70,30  L 70,31  L 73,31  L 73,30  L 76,30  L 76,31  L 77,31  L 77,63  L 78,63  L 78,64  L 77,64  L 77,66  L 78,66  L 78,68  L 77,68  L 77,70  L 78,70  L 78,71  L 82,71  L 82,70  L 84,70  L 84,3  L 83,3  L 83,1  L 78,1  L 78,3  L 77,3  L 77,4  L 78,4  L 78,5  L 77,5  L 77,14  L 78,14  L 78,15  L 77,15  L 77,18  L 78,18  L 78,20  L 77,20  L 77,24  L 60,24  L 60,23  L 59,23  L 59,24  L 58,24  L 58,23  L 57,23  L 57,20  L 58,20  L 58,18  L 59,18  L 59,10  L 58,10  L 58,8  L 57,8  L 57,7  L 55,7  L 55,6  L 51,6  L 51,5  L 50,5  L 50,6  L 47,6  L 47,5  L 46,5  L 46,6  L 43,6  L 43,5  L 42,5  L 42,6  L 40,6  L 40,5  L 37,5  L 37,6  L 35,6  L 35,11  L 53,11  L 53,12  L 54,12  L 54,17  L 53,17  L 53,20  L 52,20  L 52,24  L 51,24  L 51,28  L 50,28  L 50,31  L 49,31  L 49,35  L 48,35  L 48,42  L 47,42  L 47,47  L 46,47  L 46,51  L 45,51  L 45,55  L 44,55  L 44,58  L 43,58  L 43,63  L 42,63  L 42,64  L 43,64  L 43,65  L 42,65  L 42,66  L 43,66  L 43,68  L 44,68  L 44,70  L 48,70  L 48,67  L 49,67  Z  " style="fill:rgb(0, 0, 0); fill-opacity:1.000; stroke:none;" />
 <path d="  M 103,56  L 102,56  L 102,5  L 101,5  L 101,4  L 97,4  L 97,5  L 96,5  L 96,6  L 95,6  L 95,18  L 96,18  L 96,19  L 95,19  L 95,22  L 96,22  L 96,23  L 95,23  L 95,26  L 96,26  L 96,28  L 95,28  L 95,30  L 96,30  L 96,32  L 95,32  L 95,34  L 96,34  L 96,36  L 95,36  L 95,38  L 96,38  L 96,40  L 95,40  L 95,42  L 96,42  L 96,68  L 97,68  L 97,71  L 96,71  L 96,72  L 97,72  L 97,75  L 98,75  L 98,76  L 99,76  L 99,75  L 102,75  L 102,74  L 103,74  Z  " style="fill:rgb(0, 0, 0); fill-opacity:1.000; stroke:none;" />
</svg>
