<?xml version="1.0" encoding="UTF-8" standalone="no"?>
<!DOCTYPE svg PUBLIC "-//W3C//DTD SVG 1.1//EN" 
  "http://www.w3.org/Graphics/SVG/1.1/DTD/svg11.dtd">
<svg width="105" height="166"
     xmlns="http://www.w3.org/2000/svg" version="1.1">
 <path d="  M 25,21  L 25,22  L 27,22  L 27,26  L 26,26  L 26,29  L 25,29  L 25,32  L 24,32  L 24,34  L 23,34  L 23,36  L 22,36  L 22,38  L 21,38  L 21,40  L 20,40  L 20,42  L 19,42  L 19,44  L 18,44  L 18,46  L 17,46  L 17,48  L 16,48  L 16,51  L 15,51  L 15,52  L 14,52  L 14,55  L 13,55  L 13,57  L 12,57  L 12,59  L 11,59  L 11,60  L 10,60  L 10,62  L 9,62  L 9,64  L 8,64  L 8,65  L 7,65  L 7,66  L 6,66  L 6,67  L 5,67  L 5,68  L 4,68  L 4,69  L 3,69  L 3,71  L 4,71  L 4,73  L 6,73  L 6,74  L 9,74  L 9,73  L 11,73  L 11,71  L 12,71  L 12,70  L 13,70  L 13,69  L 14,69  L 14,68  L 15,68  L 15,66  L 16,66  L 16,64  L 17,64  L 17,62  L 18,62  L 18,60  L 19,60  L 19,58  L 20,58  L 20,57  L 21,57  L 21,54  L 22,54  L 22,52  L 23,52  L 23,50  L 24,50  L 24,48  L 25,48  L 25,46  L 26,46  L 26,44  L 27,44  L 27,42  L 28,42  L 28,40  L 29,40  L 29,39  L 30,39  L 30,37  L 31,37  L 31,35  L 32,35  L 32,33  L 33,33  L 33,31  L 34,31  L 34,27  L 35,27  L 35,20  L 34,20  L 34,18  L 33,18  L 33,16  L 32,16  L 32,15  L 31,15  L 31,14  L 30,14  L 30,13  L 29,13  L 29,14  L 19,14  L 19,15  L 7,15  L 7,16  L 2,16  L 2,17  L 1,17  L 1,19  L 0,19  L 0,20  L 1,20  L 1,23  L 5,23  L 5,22  L 14,22  L 14,21  L 15,21  L 15,22  L 17,22  L 17,21  Z  " style="fill:rgb(0, 0, 0); fill-opacity:1.000; stroke:none;" />
 <path d="  M 46,143  L 46,142  L 48,142  L 48,141  L 51,141  L 51,140  L 52,140  L 52,139  L 54,139  L 54,138  L 56,138  L 56,137  L 59,137  L 59,136  L 61,136  L 61,135  L 65,135  L 65,134  L 68,134  L 68,133  L 71,133  L 71,132  L 72,132  L 72,131  L 75,131  L 75,130  L 77,130  L 77,129  L 79,129  L 79,128  L 81,128  L 81,127  L 84,127  L 84,126  L 85,126  L 85,125  L 87,125  L 87,123  L 88,123  L 88,120  L 89,120  L 89,117  L 88,117  L 88,115  L 87,115  L 87,111  L 86,111  L 86,110  L 85,110  L 85,109  L 84,109  L 84,108  L 83,108  L 83,107  L 80,107  L 80,106  L 78,106  L 78,105  L 73,105  L 73,104  L 67,104  L 67,103  L 46,103  L 46,104  L 42,104  L 42,105  L 41,105  L 41,106  L 39,106  L 39,107  L 38,107  L 38,111  L 40,111  L 40,110  L 41,110  L 41,111  L 44,111  L 44,110  L 45,110  L 45,111  L 46,111  L 46,110  L 70,110  L 70,111  L 73,111  L 73,112  L 77,112  L 77,113  L 78,113  L 78,115  L 80,115  L 80,119  L 79,119  L 79,121  L 77,121  L 77,122  L 75,122  L 75,123  L 73,123  L 73,124  L 71,124  L 71,125  L 68,125  L 68,126  L 66,126  L 66,127  L 64,127  L 64,128  L 61,128  L 61,129  L 59,129  L 59,130  L 55,130  L 55,131  L 54,131  L 54,132  L 51,132  L 51,133  L 49,133  L 49,134  L 47,134  L 47,135  L 44,135  L 44,136  L 43,136  L 43,137  L 42,137  L 42,138  L 41,138  L 41,139  L 39,139  L 39,140  L 38,140  L 38,141  L 37,141  L 37,143  L 36,143  L 36,144  L 35,144  L 35,146  L 34,146  L 34,147  L 35,147  L 35,151  L 36,151  L 36,152  L 35,152  L 35,153  L 36,153  L 36,155  L 37,155  L 37,160  L 38,160  L 38,162  L 39,162  L 39,163  L 40,163  L 40,164  L 41,164  L 41,165  L 44,165  L 44,166  L 68,166  L 68,165  L 72,165  L 72,164  L 76,164  L 76,163  L 79,163  L 79,162  L 81,162  L 81,161  L 84,161  L 84,160  L 87,160  L 87,159  L 89,159  L 89,158  L 92,158  L 92,157  L 94,157  L 94,156  L 96,156  L 96,155  L 97,155  L 97,154  L 98,154  L 98,153  L 99,153  L 99,151  L 100,151  L 100,149  L 99,149  L 99,148  L 93,148  L 93,149  L 91,149  L 91,150  L 89,150  L 89,151  L 87,151  L 87,152  L 85,152  L 85,153  L 83,153  L 83,154  L 81,154  L 81,155  L 78,155  L 78,156  L 75,156  L 75,157  L 71,157  L 71,158  L 67,158  L 67,159  L 62,159  L 62,160  L 61,160  L 61,159  L 60,159  L 60,160  L 49,160  L 49,159  L 46,159  L 46,158  L 45,158  L 45,157  L 44,157  L 44,153  L 43,153  L 43,146  L 44,146  L 44,144  L 45,144  L 45,143  Z  " style="fill:rgb(0, 0, 0); fill-opacity:1.000; stroke:none;" />
 <path d="  M 98,42  L 97,42  L 97,50  L 96,50  L 96,51  L 95,51  L 95,52  L 93,52  L 93,51  L 87,51  L 87,52  L 82,52  L 82,53  L 74,53  L 74,54  L 70,54  L 70,55  L 66,55  L 66,56  L 65,56  L 65,59  L 70,59  L 70,58  L 71,58  L 71,59  L 74,59  L 74,58  L 75,58  L 75,59  L 79,59  L 79,60  L 80,60  L 80,59  L 83,59  L 83,58  L 91,58  L 91,57  L 93,57  L 93,58  L 94,58  L 94,57  L 95,57  L 95,58  L 96,58  L 96,60  L 97,60  L 97,61  L 96,61  L 96,92  L 95,92  L 95,94  L 96,94  L 96,95  L 95,95  L 95,97  L 96,97  L 96,99  L 100,99  L 100,98  L 101,98  L 101,97  L 102,97  L 102,91  L 103,91  L 103,73  L 104,73  L 104,72  L 103,72  L 103,71  L 104,71  L 104,63  L 105,63  L 105,62  L 104,62  L 104,55  L 105,55  L 105,54  L 104,54  L 104,53  L 105,53  L 105,2  L 104,2  L 104,1  L 102,1  L 102,0  L 101,0  L 101,1  L 99,1  L 99,3  L 98,3  L 98,6  L 99,6  L 99,24  L 98,24  L 98,25  L 76,25  L 76,26  L 75,26  L 75,25  L 73,25  L 73,26  L 71,26  L 71,25  L 69,25  L 69,24  L 68,24  L 68,19  L 67,19  L 67,17  L 66,17  L 66,15  L 64,15  L 64,14  L 57,14  L 57,15  L 56,15  L 56,14  L 54,14  L 54,15  L 53,15  L 53,14  L 51,14  L 51,15  L 40,15  L 40,16  L 39,16  L 39,20  L 40,20  L 40,21  L 41,21  L 41,22  L 61,22  L 61,23  L 62,23  L 62,27  L 61,27  L 61,29  L 60,29  L 60,32  L 59,32  L 59,36  L 58,36  L 58,38  L 57,38  L 57,40  L 56,40  L 56,42  L 55,42  L 55,44  L 54,44  L 54,46  L 53,46  L 53,48  L 52,48  L 52,51  L 51,51  L 51,53  L 50,53  L 50,55  L 49,55  L 49,58  L 48,58  L 48,63  L 47,63  L 47,66  L 46,66  L 46,69  L 45,69  L 45,72  L 44,72  L 44,74  L 43,74  L 43,76  L 42,76  L 42,77  L 43,77  L 43,79  L 44,79  L 44,81  L 45,81  L 45,82  L 49,82  L 49,78  L 50,78  L 50,75  L 51,75  L 51,72  L 52,72  L 52,70  L 53,70  L 53,65  L 54,65  L 54,62  L 55,62  L 55,59  L 56,59  L 56,57  L 57,57  L 57,53  L 58,53  L 58,50  L 59,50  L 59,49  L 60,49  L 60,46  L 61,46  L 61,43  L 62,43  L 62,42  L 63,42  L 63,40  L 64,40  L 64,38  L 65,38  L 65,35  L 66,35  L 66,34  L 74,34  L 74,33  L 76,33  L 76,34  L 77,34  L 77,33  L 86,33  L 86,32  L 95,32  L 95,33  L 97,33  L 97,34  L 98,34  L 98,38  L 97,38  L 97,39  L 98,39  Z  " style="fill:rgb(0, 0, 0); fill-opacity:1.000; stroke:none;" />
</svg>
