<?xml version="1.0" encoding="UTF-8" standalone="no"?>
<!DOCTYPE svg PUBLIC "-//W3C//DTD SVG 1.1//EN" 
  "http://www.w3.org/Graphics/SVG/1.1/DTD/svg11.dtd">
<svg width="113" height="91"
     xmlns="http://www.w3.org/2000/svg" version="1.1">
 <path d="  M 45,27  L 45,26  L 62,26  L 62,27  L 63,27  L 63,28  L 62,28  L 62,29  L 63,29  L 63,32  L 62,32  L 62,36  L 61,36  L 61,39  L 60,39  L 60,42  L 59,42  L 59,45  L 58,45  L 58,50  L 57,50  L 57,55  L 56,55  L 56,57  L 55,57  L 55,59  L 54,59  L 54,63  L 53,63  L 53,66  L 52,66  L 52,70  L 51,70  L 51,71  L 52,71  L 52,74  L 53,74  L 53,75  L 54,75  L 54,76  L 55,76  L 55,75  L 56,75  L 56,73  L 57,73  L 57,72  L 58,72  L 58,69  L 59,69  L 59,67  L 60,67  L 60,63  L 61,63  L 61,60  L 62,60  L 62,58  L 63,58  L 63,56  L 64,56  L 64,54  L 65,54  L 65,53  L 68,53  L 68,52  L 83,52  L 83,51  L 85,51  L 85,50  L 87,50  L 87,52  L 88,52  L 88,59  L 87,59  L 87,60  L 88,60  L 88,71  L 87,71  L 87,72  L 88,72  L 88,75  L 87,75  L 87,76  L 88,76  L 88,79  L 87,79  L 87,84  L 88,84  L 88,86  L 89,86  L 89,87  L 90,87  L 90,86  L 94,86  L 94,52  L 95,52  L 95,51  L 94,51  L 94,48  L 95,48  L 95,47  L 94,47  L 94,44  L 95,44  L 95,43  L 94,43  L 94,42  L 95,42  L 95,29  L 94,29  L 94,28  L 95,28  L 95,27  L 94,27  L 94,24  L 95,24  L 95,23  L 94,23  L 94,4  L 95,4  L 95,3  L 94,3  L 94,1  L 90,1  L 90,2  L 89,2  L 89,4  L 88,4  L 88,19  L 87,19  L 87,20  L 88,20  L 88,22  L 89,22  L 89,25  L 88,25  L 88,26  L 87,26  L 87,27  L 86,27  L 86,26  L 85,26  L 85,27  L 84,27  L 84,26  L 83,26  L 83,27  L 74,27  L 74,28  L 73,28  L 73,27  L 71,27  L 71,28  L 69,28  L 69,27  L 68,27  L 68,26  L 67,26  L 67,22  L 68,22  L 68,19  L 67,19  L 67,18  L 66,18  L 66,17  L 64,17  L 64,18  L 58,18  L 58,17  L 57,17  L 57,18  L 47,18  L 47,19  L 36,19  L 36,18  L 34,18  L 34,17  L 32,17  L 32,18  L 30,18  L 30,17  L 29,17  L 29,18  L 23,18  L 23,19  L 18,19  L 18,20  L 9,20  L 9,21  L 4,21  L 4,22  L 3,22  L 3,23  L 1,23  L 1,27  L 0,27  L 0,30  L 1,30  L 1,31  L 7,31  L 7,30  L 10,30  L 10,29  L 14,29  L 14,28  L 22,28  L 22,27  L 23,27  L 23,28  L 24,28  L 24,27  L 26,27  L 26,26  L 29,26  L 29,25  L 33,25  L 33,26  L 34,26  L 34,28  L 33,28  L 33,33  L 32,33  L 32,34  L 31,34  L 31,36  L 30,36  L 30,38  L 29,38  L 29,39  L 28,39  L 28,41  L 27,41  L 27,43  L 26,43  L 26,46  L 25,46  L 25,48  L 24,48  L 24,51  L 23,51  L 23,52  L 22,52  L 22,54  L 21,54  L 21,56  L 20,56  L 20,58  L 19,58  L 19,59  L 18,59  L 18,64  L 17,64  L 17,67  L 16,67  L 16,69  L 15,69  L 15,71  L 16,71  L 16,72  L 17,72  L 17,73  L 18,73  L 18,74  L 19,74  L 19,73  L 20,73  L 20,72  L 21,72  L 21,71  L 22,71  L 22,69  L 23,69  L 23,66  L 24,66  L 24,64  L 25,64  L 25,61  L 26,61  L 26,60  L 27,60  L 27,57  L 28,57  L 28,56  L 29,56  L 29,55  L 30,55  L 30,52  L 31,52  L 31,50  L 32,50  L 32,49  L 33,49  L 33,47  L 34,47  L 34,44  L 35,44  L 35,42  L 36,42  L 36,41  L 37,41  L 37,39  L 38,39  L 38,36  L 39,36  L 39,34  L 40,34  L 40,32  L 41,32  L 41,29  L 42,29  L 42,28  L 43,28  L 43,27  Z  M 89,35  L 89,38  L 88,38  L 88,40  L 89,40  L 89,42  L 88,42  L 88,44  L 87,44  L 87,45  L 78,45  L 78,46  L 77,46  L 77,45  L 76,45  L 76,46  L 67,46  L 67,44  L 66,44  L 66,43  L 67,43  L 67,40  L 68,40  L 68,38  L 69,38  L 69,36  L 70,36  L 70,35  L 71,35  L 71,34  L 77,34  L 77,33  L 84,33  L 84,34  L 85,34  L 85,33  L 86,33  L 86,34  L 88,34  L 88,35  Z  " style="fill:rgb(0, 0, 0); fill-opacity:1.000; stroke:none;" />
 <path d="  M 108,34  L 109,34  L 109,35  L 108,35  L 108,36  L 109,36  L 109,37  L 108,37  L 108,38  L 109,38  L 109,39  L 108,39  L 108,40  L 109,40  L 109,43  L 108,43  L 108,44  L 109,44  L 109,45  L 108,45  L 108,91  L 113,91  L 113,3  L 112,3  L 112,1  L 106,1  L 106,4  L 107,4  L 107,13  L 108,13  Z  " style="fill:rgb(0, 0, 0); fill-opacity:1.000; stroke:none;" />
</svg>
