<?xml version="1.0" encoding="UTF-8" standalone="no"?>
<!DOCTYPE svg PUBLIC "-//W3C//DTD SVG 1.1//EN" 
  "http://www.w3.org/Graphics/SVG/1.1/DTD/svg11.dtd">
<svg width="99" height="145"
     xmlns="http://www.w3.org/2000/svg" version="1.1">
 <path d="  M 27,70  L 27,71  L 25,71  L 25,70  L 24,70  L 24,71  L 16,71  L 16,72  L 3,72  L 3,73  L 1,73  L 1,74  L 0,74  L 0,77  L 1,77  L 1,78  L 18,78  L 18,77  L 19,77  L 19,78  L 27,78  L 27,77  L 29,77  L 29,78  L 30,78  L 30,77  L 35,77  L 35,76  L 38,76  L 38,77  L 39,77  L 39,76  L 59,76  L 59,75  L 60,75  L 60,76  L 61,76  L 61,75  L 62,75  L 62,76  L 63,76  L 63,75  L 64,75  L 64,76  L 65,76  L 65,75  L 74,75  L 74,74  L 98,74  L 98,73  L 99,73  L 99,68  L 98,68  L 98,67  L 92,67  L 92,68  L 91,68  L 91,67  L 90,67  L 90,68  L 71,68  L 71,69  L 70,69  L 70,68  L 69,68  L 69,69  L 58,69  L 58,67  L 57,67  L 57,59  L 56,59  L 56,58  L 57,58  L 57,57  L 56,57  L 56,54  L 57,54  L 57,53  L 56,53  L 56,41  L 55,41  L 55,40  L 56,40  L 56,39  L 55,39  L 55,32  L 54,32  L 54,29  L 51,29  L 51,30  L 50,30  L 50,31  L 49,31  L 49,43  L 48,43  L 48,44  L 49,44  L 49,47  L 48,47  L 48,48  L 49,48  L 49,62  L 50,62  L 50,68  L 51,68  L 51,69  L 46,69  L 46,70  L 43,70  L 43,69  L 42,69  L 42,70  L 39,70  L 39,69  L 38,69  L 38,70  Z  " style="fill:rgb(0, 0, 0); fill-opacity:1.000; stroke:none;" />
 <path d="  M 40,17  L 41,17  L 41,16  L 40,16  L 40,15  L 41,15  L 41,13  L 40,13  L 40,12  L 39,12  L 39,10  L 38,10  L 38,8  L 37,8  L 37,7  L 36,7  L 36,6  L 35,6  L 35,5  L 33,5  L 33,4  L 22,4  L 22,5  L 14,5  L 14,6  L 12,6  L 12,7  L 9,7  L 9,8  L 7,8  L 7,12  L 6,12  L 6,14  L 7,14  L 7,15  L 12,15  L 12,14  L 15,14  L 15,13  L 17,13  L 17,12  L 19,12  L 19,11  L 32,11  L 32,12  L 33,12  L 33,23  L 32,23  L 32,27  L 31,27  L 31,31  L 30,31  L 30,33  L 29,33  L 29,38  L 28,38  L 28,41  L 27,41  L 27,42  L 28,42  L 28,43  L 27,43  L 27,46  L 28,46  L 28,47  L 29,47  L 29,48  L 34,48  L 34,45  L 35,45  L 35,38  L 36,38  L 36,37  L 35,37  L 35,36  L 36,36  L 36,32  L 37,32  L 37,29  L 38,29  L 38,26  L 39,26  L 39,22  L 40,22  Z  " style="fill:rgb(0, 0, 0); fill-opacity:1.000; stroke:none;" />
 <path d="  M 27,141  L 29,141  L 29,142  L 30,142  L 30,143  L 32,143  L 32,144  L 33,144  L 33,145  L 42,145  L 42,144  L 48,144  L 48,143  L 51,143  L 51,142  L 55,142  L 55,141  L 58,141  L 58,140  L 59,140  L 59,139  L 64,139  L 64,138  L 67,138  L 67,137  L 68,137  L 68,138  L 69,138  L 69,137  L 72,137  L 72,136  L 73,136  L 73,135  L 74,135  L 74,134  L 75,134  L 75,132  L 76,132  L 76,130  L 77,130  L 77,129  L 76,129  L 76,127  L 77,127  L 77,124  L 78,124  L 78,116  L 79,116  L 79,111  L 80,111  L 80,110  L 79,110  L 79,84  L 78,84  L 78,83  L 77,83  L 77,82  L 74,82  L 74,84  L 73,84  L 73,87  L 72,87  L 72,94  L 73,94  L 73,95  L 72,95  L 72,97  L 73,97  L 73,98  L 72,98  L 72,101  L 73,101  L 73,102  L 72,102  L 72,108  L 33,108  L 33,100  L 34,100  L 34,99  L 33,99  L 33,98  L 34,98  L 34,82  L 32,82  L 32,81  L 28,81  L 28,82  L 27,82  L 27,83  L 26,83  L 26,98  L 25,98  L 25,103  L 24,103  L 24,104  L 25,104  L 25,107  L 24,107  L 24,120  L 25,120  L 25,121  L 24,121  L 24,122  L 25,122  L 25,134  L 26,134  L 26,136  L 25,136  L 25,137  L 26,137  L 26,139  L 27,139  Z  M 36,139  L 36,138  L 35,138  L 35,137  L 34,137  L 34,136  L 33,136  L 33,135  L 32,135  L 32,134  L 33,134  L 33,133  L 32,133  L 32,116  L 33,116  L 33,115  L 39,115  L 39,114  L 71,114  L 71,116  L 72,116  L 72,119  L 71,119  L 71,126  L 70,126  L 70,129  L 69,129  L 69,131  L 67,131  L 67,132  L 64,132  L 64,133  L 60,133  L 60,134  L 58,134  L 58,135  L 54,135  L 54,136  L 52,136  L 52,137  L 48,137  L 48,138  L 46,138  L 46,139  Z  " style="fill:rgb(0, 0, 0); fill-opacity:1.000; stroke:none;" />
 <path d="  M 81,28  L 82,28  L 82,21  L 83,21  L 83,7  L 84,7  L 84,5  L 83,5  L 83,4  L 82,4  L 82,2  L 81,2  L 81,1  L 75,1  L 75,2  L 70,2  L 70,3  L 61,3  L 61,4  L 50,4  L 50,5  L 43,5  L 43,10  L 44,10  L 44,11  L 46,11  L 46,12  L 49,12  L 49,11  L 57,11  L 57,10  L 58,10  L 58,11  L 59,11  L 59,10  L 65,10  L 65,9  L 76,9  L 76,10  L 77,10  L 77,13  L 76,13  L 76,23  L 75,23  L 75,29  L 74,29  L 74,35  L 73,35  L 73,41  L 74,41  L 74,43  L 78,43  L 78,44  L 79,44  L 79,43  L 80,43  L 80,42  L 81,42  L 81,41  L 80,41  L 80,38  L 81,38  Z  " style="fill:rgb(0, 0, 0); fill-opacity:1.000; stroke:none;" />
</svg>
