<?xml version="1.0" encoding="UTF-8" standalone="no"?>
<!DOCTYPE svg PUBLIC "-//W3C//DTD SVG 1.1//EN" 
  "http://www.w3.org/Graphics/SVG/1.1/DTD/svg11.dtd">
<svg width="104" height="155"
     xmlns="http://www.w3.org/2000/svg" version="1.1">
 <path d="  M 102,84  L 102,83  L 103,83  L 103,82  L 104,82  L 104,77  L 103,77  L 103,76  L 95,76  L 95,77  L 59,77  L 59,76  L 58,76  L 58,73  L 57,73  L 57,58  L 56,58  L 56,57  L 57,57  L 57,56  L 56,56  L 56,40  L 55,40  L 55,38  L 52,38  L 52,39  L 51,39  L 51,41  L 50,41  L 50,44  L 49,44  L 49,45  L 50,45  L 50,46  L 49,46  L 49,64  L 50,64  L 50,78  L 33,78  L 33,79  L 30,79  L 30,78  L 29,78  L 29,79  L 26,79  L 26,78  L 25,78  L 25,79  L 15,79  L 15,80  L 1,80  L 1,81  L 0,81  L 0,83  L 1,83  L 1,84  L 2,84  L 2,85  L 3,85  L 3,86  L 6,86  L 6,87  L 15,87  L 15,86  L 16,86  L 16,87  L 17,87  L 17,86  L 20,86  L 20,87  L 21,87  L 21,86  L 24,86  L 24,87  L 25,87  L 25,86  L 28,86  L 28,87  L 29,87  L 29,86  L 42,86  L 42,85  L 45,85  L 45,86  L 46,86  L 46,85  L 49,85  L 49,86  L 50,86  L 50,85  L 76,85  L 76,84  L 77,84  L 77,85  L 78,85  L 78,84  L 79,84  L 79,85  L 80,85  L 80,84  L 81,84  L 81,85  L 82,85  L 82,84  L 83,84  L 83,85  L 84,85  L 84,84  Z  " style="fill:rgb(0, 0, 0); fill-opacity:1.000; stroke:none;" />
 <path d="  M 34,40  L 34,36  L 35,36  L 35,32  L 36,32  L 36,28  L 37,28  L 37,25  L 38,25  L 38,23  L 39,23  L 39,16  L 40,16  L 40,9  L 39,9  L 39,6  L 38,6  L 38,5  L 37,5  L 37,4  L 36,4  L 36,3  L 33,3  L 33,4  L 29,4  L 29,5  L 21,5  L 21,6  L 16,6  L 16,7  L 13,7  L 13,8  L 9,8  L 9,9  L 7,9  L 7,10  L 6,10  L 6,11  L 7,11  L 7,17  L 11,17  L 11,16  L 13,16  L 13,15  L 15,15  L 15,14  L 16,14  L 16,13  L 19,13  L 19,12  L 28,12  L 28,11  L 33,11  L 33,20  L 32,20  L 32,23  L 31,23  L 31,26  L 30,26  L 30,28  L 29,28  L 29,31  L 28,31  L 28,34  L 27,34  L 27,40  L 26,40  L 26,50  L 25,50  L 25,53  L 26,53  L 26,54  L 25,54  L 25,55  L 26,55  L 26,56  L 28,56  L 28,57  L 30,57  L 30,56  L 32,56  L 32,54  L 33,54  L 33,43  L 34,43  L 34,42  L 33,42  L 33,40  Z  " style="fill:rgb(0, 0, 0); fill-opacity:1.000; stroke:none;" />
 <path d="  M 21,143  L 22,143  L 22,144  L 23,144  L 23,146  L 24,146  L 24,148  L 25,148  L 25,149  L 26,149  L 26,150  L 28,150  L 28,151  L 29,151  L 29,152  L 31,152  L 31,153  L 35,153  L 35,154  L 40,154  L 40,155  L 61,155  L 61,154  L 62,154  L 62,153  L 66,153  L 66,152  L 67,152  L 67,151  L 69,151  L 69,150  L 70,150  L 70,149  L 72,149  L 72,148  L 73,148  L 73,147  L 74,147  L 74,146  L 75,146  L 75,145  L 76,145  L 76,144  L 77,144  L 77,143  L 78,143  L 78,142  L 79,142  L 79,140  L 80,140  L 80,139  L 81,139  L 81,138  L 82,138  L 82,135  L 83,135  L 83,131  L 84,131  L 84,120  L 83,120  L 83,119  L 82,119  L 82,118  L 81,118  L 81,117  L 80,117  L 80,116  L 79,116  L 79,115  L 78,115  L 78,114  L 77,114  L 77,113  L 76,113  L 76,112  L 74,112  L 74,111  L 73,111  L 73,110  L 70,110  L 70,109  L 66,109  L 66,108  L 64,108  L 64,107  L 62,107  L 62,106  L 60,106  L 60,105  L 58,105  L 58,104  L 56,104  L 56,103  L 54,103  L 54,102  L 50,102  L 50,101  L 48,101  L 48,102  L 46,102  L 46,103  L 45,103  L 45,104  L 42,104  L 42,105  L 41,105  L 41,106  L 40,106  L 40,107  L 39,107  L 39,108  L 37,108  L 37,110  L 36,110  L 36,111  L 35,111  L 35,112  L 33,112  L 33,114  L 32,114  L 32,116  L 31,116  L 31,117  L 30,117  L 30,118  L 29,118  L 29,120  L 28,120  L 28,122  L 27,122  L 27,124  L 26,124  L 26,125  L 25,125  L 25,126  L 24,126  L 24,128  L 23,128  L 23,129  L 22,129  L 22,133  L 21,133  Z  M 63,115  L 67,115  L 67,116  L 68,116  L 68,117  L 71,117  L 71,118  L 72,118  L 72,119  L 73,119  L 73,120  L 74,120  L 74,121  L 75,121  L 75,122  L 76,122  L 76,127  L 77,127  L 77,128  L 76,128  L 76,133  L 75,133  L 75,136  L 74,136  L 74,137  L 73,137  L 73,138  L 72,138  L 72,139  L 71,139  L 71,140  L 70,140  L 70,141  L 69,141  L 69,142  L 68,142  L 68,143  L 66,143  L 66,144  L 64,144  L 64,145  L 63,145  L 63,146  L 61,146  L 61,147  L 55,147  L 55,148  L 45,148  L 45,147  L 43,147  L 43,148  L 42,148  L 42,147  L 37,147  L 37,146  L 34,146  L 34,145  L 32,145  L 32,144  L 31,144  L 31,143  L 30,143  L 30,141  L 29,141  L 29,135  L 30,135  L 30,132  L 31,132  L 31,131  L 32,131  L 32,129  L 33,129  L 33,126  L 34,126  L 34,125  L 35,125  L 35,123  L 36,123  L 36,122  L 37,122  L 37,120  L 38,120  L 38,118  L 39,118  L 39,117  L 41,117  L 41,116  L 42,116  L 42,115  L 43,115  L 43,114  L 45,114  L 45,113  L 46,113  L 46,112  L 47,112  L 47,113  L 48,113  L 48,112  L 51,112  L 51,113  L 52,113  L 52,112  L 55,112  L 55,113  L 58,113  L 58,114  L 63,114  Z  " style="fill:rgb(0, 0, 0); fill-opacity:1.000; stroke:none;" />
 <path d="  M 81,28  L 82,28  L 82,17  L 83,17  L 83,7  L 82,7  L 82,4  L 81,4  L 81,3  L 80,3  L 80,2  L 78,2  L 78,1  L 70,1  L 70,2  L 64,2  L 64,3  L 61,3  L 61,4  L 57,4  L 57,5  L 49,5  L 49,6  L 44,6  L 44,9  L 45,9  L 45,12  L 46,12  L 46,13  L 53,13  L 53,12  L 56,12  L 56,11  L 61,11  L 61,10  L 68,10  L 68,9  L 72,9  L 72,8  L 76,8  L 76,10  L 77,10  L 77,12  L 76,12  L 76,16  L 75,16  L 75,18  L 76,18  L 76,19  L 75,19  L 75,28  L 74,28  L 74,35  L 73,35  L 73,53  L 77,53  L 77,52  L 78,52  L 78,51  L 79,51  L 79,47  L 80,47  L 80,38  L 81,38  Z  " style="fill:rgb(0, 0, 0); fill-opacity:1.000; stroke:none;" />
</svg>
