<?xml version="1.0" encoding="UTF-8" standalone="no"?>
<!DOCTYPE svg PUBLIC "-//W3C//DTD SVG 1.1//EN" 
  "http://www.w3.org/Graphics/SVG/1.1/DTD/svg11.dtd">
<svg width="108" height="131"
     xmlns="http://www.w3.org/2000/svg" version="1.1">
 <path d="  M 15,68  L 15,67  L 21,67  L 21,66  L 24,66  L 24,67  L 25,67  L 25,66  L 52,66  L 52,67  L 53,67  L 53,66  L 56,66  L 56,67  L 57,67  L 57,66  L 58,66  L 58,67  L 59,67  L 59,66  L 60,66  L 60,67  L 63,67  L 63,66  L 64,66  L 64,67  L 73,67  L 73,66  L 74,66  L 74,64  L 75,64  L 75,62  L 74,62  L 74,60  L 66,60  L 66,61  L 63,61  L 63,60  L 62,60  L 62,61  L 47,61  L 47,60  L 46,60  L 46,61  L 44,61  L 44,60  L 42,60  L 42,56  L 41,56  L 41,55  L 42,55  L 42,54  L 41,54  L 41,49  L 42,49  L 42,48  L 41,48  L 41,45  L 42,45  L 42,44  L 41,44  L 41,38  L 40,38  L 40,37  L 39,37  L 39,36  L 35,36  L 35,37  L 34,37  L 34,38  L 35,38  L 35,55  L 36,55  L 36,60  L 35,60  L 35,61  L 34,61  L 34,60  L 33,60  L 33,61  L 31,61  L 31,60  L 30,60  L 30,61  L 27,61  L 27,60  L 26,60  L 26,61  L 23,61  L 23,62  L 21,62  L 21,61  L 20,61  L 20,62  L 16,62  L 16,63  L 15,63  L 15,62  L 14,62  L 14,63  L 9,63  L 9,64  L 8,64  L 8,63  L 5,63  L 5,64  L 4,64  L 4,63  L 3,63  L 3,64  L 1,64  L 1,67  L 3,67  L 3,68  L 4,68  L 4,69  L 7,69  L 7,68  L 8,68  L 8,69  L 9,69  L 9,68  Z  " style="fill:rgb(0, 0, 0); fill-opacity:1.000; stroke:none;" />
 <path d="  M 24,7  L 24,8  L 25,8  L 25,16  L 24,16  L 24,22  L 23,22  L 23,24  L 22,24  L 22,25  L 23,25  L 23,26  L 22,26  L 22,28  L 21,28  L 21,44  L 22,44  L 22,45  L 26,45  L 26,44  L 27,44  L 27,43  L 28,43  L 28,42  L 29,42  L 29,40  L 30,40  L 30,39  L 31,39  L 31,37  L 29,37  L 29,36  L 28,36  L 28,26  L 29,26  L 29,22  L 30,22  L 30,17  L 31,17  L 31,10  L 32,10  L 32,8  L 31,8  L 31,5  L 30,5  L 30,3  L 29,3  L 29,2  L 23,2  L 23,1  L 19,1  L 19,2  L 8,2  L 8,3  L 7,3  L 7,2  L 6,2  L 6,3  L 5,3  L 5,4  L 4,4  L 4,5  L 3,5  L 3,7  L 4,7  L 4,8  L 5,8  L 5,9  L 10,9  L 10,8  L 18,8  L 18,7  Z  " style="fill:rgb(0, 0, 0); fill-opacity:1.000; stroke:none;" />
 <path d="  M 33,111  L 33,110  L 34,110  L 34,109  L 35,109  L 35,104  L 36,104  L 36,103  L 37,103  L 37,102  L 38,102  L 38,103  L 39,103  L 39,102  L 40,102  L 40,103  L 43,103  L 43,104  L 45,104  L 45,105  L 47,105  L 47,106  L 49,106  L 49,107  L 51,107  L 51,108  L 52,108  L 52,109  L 54,109  L 54,110  L 56,110  L 56,111  L 57,111  L 57,112  L 58,112  L 58,113  L 59,113  L 59,112  L 61,112  L 61,110  L 62,110  L 62,109  L 61,109  L 61,107  L 60,107  L 60,106  L 59,106  L 59,105  L 58,105  L 58,104  L 56,104  L 56,103  L 55,103  L 55,102  L 52,102  L 52,101  L 51,101  L 51,100  L 49,100  L 49,99  L 45,99  L 45,98  L 43,98  L 43,97  L 41,97  L 41,96  L 40,96  L 40,95  L 41,95  L 41,94  L 42,94  L 42,93  L 44,93  L 44,91  L 45,91  L 45,90  L 46,90  L 46,88  L 47,88  L 47,86  L 48,86  L 48,84  L 49,84  L 49,81  L 50,81  L 50,79  L 49,79  L 49,77  L 48,77  L 48,76  L 44,76  L 44,77  L 43,77  L 43,80  L 44,80  L 44,82  L 43,82  L 43,84  L 42,84  L 42,86  L 41,86  L 41,88  L 40,88  L 40,90  L 39,90  L 39,92  L 37,92  L 37,95  L 36,95  L 36,97  L 35,97  L 35,98  L 34,98  L 34,99  L 33,99  L 33,100  L 32,100  L 32,101  L 31,101  L 31,102  L 30,102  L 30,104  L 29,104  L 29,106  L 28,106  L 28,107  L 27,107  L 27,109  L 26,109  L 26,110  L 24,110  L 24,112  L 23,112  L 23,113  L 22,113  L 22,114  L 21,114  L 21,115  L 20,115  L 20,117  L 19,117  L 19,118  L 18,118  L 18,119  L 17,119  L 17,122  L 18,122  L 18,124  L 19,124  L 19,125  L 20,125  L 20,124  L 21,124  L 21,123  L 22,123  L 22,122  L 23,122  L 23,121  L 24,121  L 24,120  L 25,120  L 25,119  L 26,119  L 26,117  L 27,117  L 27,116  L 28,116  L 28,115  L 29,115  L 29,114  L 30,114  L 30,113  L 31,113  L 31,112  L 32,112  L 32,111  Z  " style="fill:rgb(0, 0, 0); fill-opacity:1.000; stroke:none;" />
 <path d="  M 36,81  L 36,78  L 37,78  L 37,77  L 36,77  L 36,76  L 34,76  L 34,77  L 32,77  L 32,78  L 30,78  L 30,81  L 31,81  L 31,82  L 33,82  L 33,83  L 34,83  L 34,81  Z  " style="fill:rgb(0, 0, 0); fill-opacity:1.000; stroke:none;" />
 <path d="  M 34,6  L 35,6  L 35,7  L 37,7  L 37,8  L 40,8  L 40,7  L 58,7  L 58,16  L 57,16  L 57,24  L 56,24  L 56,25  L 57,25  L 57,26  L 56,26  L 56,33  L 55,33  L 55,40  L 54,40  L 54,41  L 55,41  L 55,44  L 54,44  L 54,45  L 55,45  L 55,47  L 56,47  L 56,48  L 57,48  L 57,49  L 59,49  L 59,48  L 60,48  L 60,45  L 61,45  L 61,44  L 60,44  L 60,42  L 61,42  L 61,33  L 62,33  L 62,25  L 63,25  L 63,19  L 64,19  L 64,13  L 65,13  L 65,8  L 64,8  L 64,7  L 63,7  L 63,6  L 62,6  L 62,5  L 61,5  L 61,4  L 60,4  L 60,3  L 59,3  L 59,2  L 57,2  L 57,1  L 46,1  L 46,2  L 45,2  L 45,1  L 42,1  L 42,2  L 41,2  L 41,1  L 38,1  L 38,2  L 35,2  L 35,4  L 34,4  Z  " style="fill:rgb(0, 0, 0); fill-opacity:1.000; stroke:none;" />
 <path d="  M 87,106  L 87,105  L 84,105  L 84,104  L 83,104  L 83,103  L 82,103  L 82,102  L 80,102  L 80,101  L 79,101  L 79,100  L 78,100  L 78,99  L 77,99  L 77,96  L 76,96  L 76,95  L 77,95  L 77,93  L 78,93  L 78,91  L 79,91  L 79,89  L 80,89  L 80,87  L 81,87  L 81,86  L 82,86  L 82,80  L 77,80  L 77,82  L 76,82  L 76,84  L 75,84  L 75,86  L 74,86  L 74,88  L 73,88  L 73,90  L 72,90  L 72,92  L 71,92  L 71,93  L 70,93  L 70,95  L 69,95  L 69,96  L 68,96  L 68,98  L 67,98  L 67,100  L 66,100  L 66,101  L 67,101  L 67,102  L 66,102  L 66,104  L 65,104  L 65,107  L 64,107  L 64,110  L 63,110  L 63,113  L 60,113  L 60,115  L 58,115  L 58,117  L 57,117  L 57,118  L 56,118  L 56,120  L 55,120  L 55,121  L 54,121  L 54,123  L 53,123  L 53,128  L 52,128  L 52,131  L 56,131  L 56,130  L 57,130  L 57,129  L 58,129  L 58,128  L 59,128  L 59,125  L 60,125  L 60,122  L 61,122  L 61,120  L 63,120  L 63,119  L 64,119  L 64,118  L 65,118  L 65,117  L 66,117  L 66,116  L 67,116  L 67,114  L 68,114  L 68,111  L 69,111  L 69,110  L 70,110  L 70,108  L 71,108  L 71,105  L 72,105  L 72,104  L 75,104  L 75,105  L 76,105  L 76,106  L 77,106  L 77,107  L 78,107  L 78,108  L 79,108  L 79,109  L 81,109  L 81,110  L 83,110  L 83,111  L 84,111  L 84,112  L 86,112  L 86,113  L 89,113  L 89,114  L 91,114  L 91,115  L 93,115  L 93,116  L 96,116  L 96,117  L 97,117  L 97,118  L 98,118  L 98,119  L 103,119  L 103,118  L 104,118  L 104,115  L 103,115  L 103,114  L 102,114  L 102,113  L 100,113  L 100,112  L 98,112  L 98,111  L 97,111  L 97,110  L 95,110  L 95,109  L 92,109  L 92,108  L 90,108  L 90,107  L 89,107  L 89,106  Z  " style="fill:rgb(0, 0, 0); fill-opacity:1.000; stroke:none;" />
 <path d="  M 86,7  L 85,7  L 85,4  L 81,4  L 81,5  L 80,5  L 80,6  L 79,6  L 79,14  L 80,14  L 80,27  L 81,27  L 81,29  L 80,29  L 80,61  L 79,61  L 79,62  L 80,62  L 80,70  L 81,70  L 81,72  L 84,72  L 84,71  L 85,71  L 85,70  L 86,70  L 86,62  L 85,62  L 85,59  L 86,59  L 86,58  L 85,58  L 85,56  L 86,56  L 86,34  L 87,34  L 87,33  L 88,33  L 88,32  L 89,32  L 89,31  L 108,31  L 108,27  L 107,27  L 107,26  L 105,26  L 105,25  L 98,25  L 98,26  L 97,26  L 97,25  L 94,25  L 94,26  L 93,26  L 93,25  L 87,25  L 87,24  L 86,24  Z  " style="fill:rgb(0, 0, 0); fill-opacity:1.000; stroke:none;" />
 <path d="  M 86,81  L 86,80  L 83,80  L 83,81  Z  " style="fill:rgb(0, 0, 0); fill-opacity:1.000; stroke:none;" />
</svg>
