<?xml version="1.0" encoding="UTF-8" standalone="no"?>
<!DOCTYPE svg PUBLIC "-//W3C//DTD SVG 1.1//EN" 
  "http://www.w3.org/Graphics/SVG/1.1/DTD/svg11.dtd">
<svg width="108" height="89"
     xmlns="http://www.w3.org/2000/svg" version="1.1">
 <path d="  M 36,48  L 36,52  L 37,52  L 37,65  L 38,65  L 38,67  L 36,67  L 36,68  L 33,68  L 33,69  L 28,69  L 28,70  L 23,70  L 23,71  L 19,71  L 19,72  L 16,72  L 16,73  L 13,73  L 13,74  L 8,74  L 8,75  L 6,75  L 6,76  L 5,76  L 5,77  L 4,77  L 4,78  L 5,78  L 5,80  L 6,80  L 6,81  L 9,81  L 9,80  L 13,80  L 13,79  L 17,79  L 17,78  L 21,78  L 21,77  L 25,77  L 25,76  L 29,76  L 29,75  L 33,75  L 33,74  L 36,74  L 36,73  L 42,73  L 42,72  L 50,72  L 50,71  L 59,71  L 59,70  L 61,70  L 61,71  L 62,71  L 62,70  L 67,70  L 67,69  L 69,69  L 69,66  L 68,66  L 68,65  L 66,65  L 66,64  L 59,64  L 59,65  L 54,65  L 54,66  L 43,66  L 43,50  L 44,50  L 44,47  L 45,47  L 45,46  L 44,46  L 44,45  L 45,45  L 45,44  L 44,44  L 44,43  L 39,43  L 39,44  L 38,44  L 38,43  L 37,43  L 37,44  L 36,44  L 36,43  L 33,43  L 33,42  L 30,42  L 30,41  L 28,41  L 28,33  L 29,33  L 29,28  L 30,28  L 30,24  L 31,24  L 31,19  L 32,19  L 32,17  L 33,17  L 33,15  L 41,15  L 41,14  L 42,14  L 42,15  L 43,15  L 43,14  L 44,14  L 44,15  L 45,15  L 45,14  L 46,14  L 46,15  L 49,15  L 49,14  L 50,14  L 50,15  L 52,15  L 52,14  L 53,14  L 53,15  L 56,15  L 56,16  L 57,16  L 57,37  L 56,37  L 56,42  L 55,42  L 55,46  L 54,46  L 54,50  L 53,50  L 53,52  L 54,52  L 54,53  L 56,53  L 56,52  L 58,52  L 58,51  L 59,51  L 59,50  L 60,50  L 60,48  L 61,48  L 61,44  L 62,44  L 62,43  L 61,43  L 61,42  L 62,42  L 62,37  L 63,37  L 63,28  L 64,28  L 64,25  L 63,25  L 63,24  L 64,24  L 64,15  L 63,15  L 63,14  L 62,14  L 62,13  L 60,13  L 60,12  L 59,12  L 59,11  L 58,11  L 58,10  L 54,10  L 54,9  L 51,9  L 51,8  L 50,8  L 50,9  L 49,9  L 49,8  L 32,8  L 32,9  L 31,9  L 31,8  L 27,8  L 27,7  L 12,7  L 12,8  L 11,8  L 11,7  L 9,7  L 9,8  L 2,8  L 2,9  L 0,9  L 0,13  L 1,13  L 1,14  L 20,14  L 20,13  L 25,13  L 25,14  L 26,14  L 26,17  L 25,17  L 25,22  L 24,22  L 24,28  L 23,28  L 23,31  L 22,31  L 22,34  L 21,34  L 21,38  L 20,38  L 20,44  L 19,44  L 19,48  L 18,48  L 18,52  L 19,52  L 19,53  L 20,53  L 20,54  L 22,54  L 22,53  L 23,53  L 23,52  L 24,52  L 24,51  L 25,51  L 25,49  L 26,49  L 26,48  L 27,48  L 27,47  L 28,47  L 28,46  L 33,46  L 33,47  L 35,47  L 35,48  Z  " style="fill:rgb(0, 0, 0); fill-opacity:1.000; stroke:none;" />
 <path d="  M 45,43  L 45,42  L 44,42  L 44,43  Z  " style="fill:rgb(0, 0, 0); fill-opacity:1.000; stroke:none;" />
 <path d="  M 84,50  L 85,50  L 85,46  L 95,46  L 95,45  L 96,45  L 96,46  L 99,46  L 99,45  L 100,45  L 100,46  L 103,46  L 103,50  L 102,50  L 102,89  L 107,89  L 107,88  L 108,88  L 108,2  L 107,2  L 107,1  L 106,1  L 106,0  L 105,0  L 105,1  L 102,1  L 102,17  L 103,17  L 103,19  L 102,19  L 102,20  L 103,20  L 103,34  L 104,34  L 104,35  L 103,35  L 103,37  L 104,37  L 104,39  L 103,39  L 103,40  L 91,40  L 91,39  L 90,39  L 90,40  L 88,40  L 88,41  L 86,41  L 86,40  L 85,40  L 85,15  L 84,15  L 84,8  L 85,8  L 85,7  L 84,7  L 84,5  L 80,5  L 80,6  L 79,6  L 79,7  L 77,7  L 77,21  L 78,21  L 78,59  L 77,59  L 77,60  L 78,60  L 78,63  L 77,63  L 77,81  L 78,81  L 78,82  L 81,82  L 81,81  L 84,81  Z  " style="fill:rgb(0, 0, 0); fill-opacity:1.000; stroke:none;" />
</svg>
