<?xml version="1.0" encoding="UTF-8" standalone="no"?>
<!DOCTYPE svg PUBLIC "-//W3C//DTD SVG 1.1//EN" 
  "http://www.w3.org/Graphics/SVG/1.1/DTD/svg11.dtd">
<svg width="108" height="138"
     xmlns="http://www.w3.org/2000/svg" version="1.1">
 <path d="  M 51,93  L 50,93  L 50,94  L 51,94  L 51,96  L 50,96  L 50,135  L 51,135  L 51,137  L 52,137  L 52,138  L 57,138  L 57,129  L 56,129  L 56,128  L 57,128  L 57,125  L 56,125  L 56,124  L 57,124  L 57,108  L 58,108  L 58,107  L 57,107  L 57,106  L 58,106  L 58,105  L 57,105  L 57,104  L 58,104  L 58,87  L 57,87  L 57,86  L 58,86  L 58,79  L 57,79  L 57,78  L 58,78  L 58,76  L 63,76  L 63,75  L 64,75  L 64,76  L 65,76  L 65,75  L 71,75  L 71,74  L 78,74  L 78,73  L 83,73  L 83,72  L 89,72  L 89,71  L 95,71  L 95,70  L 100,70  L 100,69  L 101,69  L 101,70  L 102,70  L 102,69  L 104,69  L 104,68  L 106,68  L 106,67  L 107,67  L 107,66  L 108,66  L 108,61  L 102,61  L 102,62  L 99,62  L 99,63  L 96,63  L 96,64  L 91,64  L 91,65  L 86,65  L 86,66  L 82,66  L 82,67  L 81,67  L 81,66  L 80,66  L 80,67  L 77,67  L 77,68  L 71,68  L 71,69  L 62,69  L 62,70  L 59,70  L 59,69  L 58,69  L 58,70  L 51,70  L 51,69  L 50,69  L 50,70  L 38,70  L 38,71  L 37,71  L 37,70  L 35,70  L 35,71  L 22,71  L 22,72  L 21,72  L 21,71  L 20,71  L 20,72  L 13,72  L 13,73  L 5,73  L 5,74  L 2,74  L 2,75  L 1,75  L 1,80  L 3,80  L 3,81  L 5,81  L 5,80  L 13,80  L 13,79  L 25,79  L 25,78  L 36,78  L 36,77  L 37,77  L 37,78  L 38,78  L 38,77  L 39,77  L 39,78  L 40,78  L 40,77  L 41,77  L 41,78  L 42,78  L 42,77  L 43,77  L 43,78  L 44,78  L 44,77  L 45,77  L 45,78  L 46,78  L 46,77  L 49,77  L 49,78  L 51,78  L 51,89  L 50,89  L 50,90  L 51,90  Z  " style="fill:rgb(0, 0, 0); fill-opacity:1.000; stroke:none;" />
 <path d="  M 43,27  L 44,27  L 44,23  L 45,23  L 45,20  L 46,20  L 46,18  L 47,18  L 47,15  L 48,15  L 48,12  L 49,12  L 49,8  L 50,8  L 50,7  L 49,7  L 49,6  L 48,6  L 48,5  L 47,5  L 47,4  L 46,4  L 46,3  L 43,3  L 43,2  L 27,2  L 27,3  L 22,3  L 22,4  L 17,4  L 17,5  L 12,5  L 12,6  L 11,6  L 11,7  L 10,7  L 10,6  L 9,6  L 9,9  L 8,9  L 8,10  L 9,10  L 9,11  L 8,11  L 8,12  L 18,12  L 18,11  L 21,11  L 21,10  L 26,10  L 26,9  L 34,9  L 34,8  L 35,8  L 35,9  L 36,9  L 36,8  L 43,8  L 43,11  L 42,11  L 42,13  L 41,13  L 41,15  L 40,15  L 40,17  L 39,17  L 39,19  L 38,19  L 38,22  L 37,22  L 37,25  L 36,25  L 36,28  L 35,28  L 35,29  L 34,29  L 34,37  L 33,37  L 33,43  L 32,43  L 32,44  L 33,44  L 33,45  L 32,45  L 32,55  L 33,55  L 33,58  L 34,58  L 34,60  L 36,60  L 36,59  L 37,59  L 37,58  L 38,58  L 38,55  L 39,55  L 39,50  L 40,50  L 40,49  L 39,49  L 39,48  L 40,48  L 40,42  L 41,42  L 41,41  L 40,41  L 40,40  L 41,40  L 41,34  L 42,34  L 42,30  L 43,30  Z  " style="fill:rgb(0, 0, 0); fill-opacity:1.000; stroke:none;" />
 <path d="  M 78,57  L 80,57  L 80,58  L 81,58  L 81,59  L 82,59  L 82,58  L 84,58  L 84,56  L 85,56  L 85,55  L 84,55  L 84,34  L 85,34  L 85,33  L 84,33  L 84,32  L 85,32  L 85,26  L 86,26  L 86,19  L 87,19  L 87,15  L 88,15  L 88,10  L 89,10  L 89,9  L 88,9  L 88,5  L 87,5  L 87,4  L 86,4  L 86,2  L 84,2  L 84,1  L 74,1  L 74,2  L 71,2  L 71,1  L 70,1  L 70,2  L 62,2  L 62,3  L 54,3  L 54,9  L 55,9  L 55,10  L 59,10  L 59,9  L 77,9  L 77,8  L 80,8  L 80,9  L 81,9  L 81,10  L 82,10  L 82,11  L 81,11  L 81,15  L 80,15  L 80,17  L 81,17  L 81,18  L 80,18  L 80,21  L 79,21  L 79,25  L 78,25  L 78,31  L 77,31  L 77,39  L 76,39  L 76,40  L 77,40  L 77,43  L 76,43  L 76,44  L 77,44  L 77,54  L 78,54  Z  " style="fill:rgb(0, 0, 0); fill-opacity:1.000; stroke:none;" />
</svg>
