<?xml version="1.0" encoding="UTF-8" standalone="no"?>
<!DOCTYPE svg PUBLIC "-//W3C//DTD SVG 1.1//EN" 
  "http://www.w3.org/Graphics/SVG/1.1/DTD/svg11.dtd">
<svg width="100" height="149"
     xmlns="http://www.w3.org/2000/svg" version="1.1">
 <path d="  M 54,96  L 53,96  L 53,97  L 42,97  L 42,98  L 35,98  L 35,99  L 34,99  L 34,98  L 33,98  L 33,99  L 26,99  L 26,100  L 21,100  L 21,104  L 22,104  L 22,105  L 23,105  L 23,106  L 29,106  L 29,105  L 35,105  L 35,104  L 42,104  L 42,103  L 59,103  L 59,102  L 62,102  L 62,103  L 69,103  L 69,104  L 70,104  L 70,106  L 69,106  L 69,109  L 68,109  L 68,111  L 67,111  L 67,115  L 66,115  L 66,119  L 65,119  L 65,124  L 64,124  L 64,126  L 63,126  L 63,131  L 62,131  L 62,133  L 61,133  L 61,137  L 60,137  L 60,141  L 59,141  L 59,145  L 58,145  L 58,149  L 64,149  L 64,148  L 65,148  L 65,147  L 66,147  L 66,145  L 67,145  L 67,142  L 68,142  L 68,140  L 69,140  L 69,139  L 68,139  L 68,137  L 69,137  L 69,134  L 70,134  L 70,129  L 71,129  L 71,124  L 72,124  L 72,120  L 73,120  L 73,119  L 72,119  L 72,118  L 73,118  L 73,116  L 74,116  L 74,113  L 75,113  L 75,110  L 76,110  L 76,109  L 77,109  L 77,102  L 76,102  L 76,100  L 75,100  L 75,98  L 74,98  L 74,97  L 73,97  L 73,96  L 64,96  L 64,95  L 61,95  L 61,90  L 60,90  L 60,89  L 61,89  L 61,72  L 62,72  L 62,71  L 61,71  L 61,67  L 60,67  L 60,66  L 61,66  L 61,65  L 62,65  L 62,64  L 66,64  L 66,63  L 75,63  L 75,62  L 81,62  L 81,61  L 87,61  L 87,60  L 88,60  L 88,61  L 89,61  L 89,60  L 96,60  L 96,59  L 98,59  L 98,58  L 100,58  L 100,54  L 99,54  L 99,53  L 88,53  L 88,54  L 80,54  L 80,55  L 76,55  L 76,56  L 75,56  L 75,55  L 74,55  L 74,56  L 70,56  L 70,57  L 69,57  L 69,56  L 68,56  L 68,57  L 61,57  L 61,58  L 55,58  L 55,59  L 46,59  L 46,60  L 43,60  L 43,59  L 42,59  L 42,60  L 35,60  L 35,61  L 25,61  L 25,62  L 23,62  L 23,61  L 22,61  L 22,62  L 17,62  L 17,63  L 16,63  L 16,62  L 15,62  L 15,63  L 14,63  L 14,62  L 13,62  L 13,63  L 10,63  L 10,64  L 7,64  L 7,63  L 6,63  L 6,64  L 4,64  L 4,65  L 1,65  L 1,67  L 0,67  L 0,70  L 1,70  L 1,71  L 9,71  L 9,70  L 14,70  L 14,69  L 23,69  L 23,68  L 28,68  L 28,67  L 29,67  L 29,68  L 30,68  L 30,67  L 45,67  L 45,66  L 46,66  L 46,67  L 49,67  L 49,66  L 54,66  Z  " style="fill:rgb(0, 0, 0); fill-opacity:1.000; stroke:none;" />
 <path d="  M 14,3  L 14,4  L 12,4  L 12,5  L 9,5  L 9,6  L 6,6  L 6,7  L 5,7  L 5,11  L 6,11  L 6,12  L 7,12  L 7,13  L 8,13  L 8,12  L 14,12  L 14,11  L 16,11  L 16,10  L 19,10  L 19,9  L 33,9  L 33,8  L 35,8  L 35,9  L 36,9  L 36,11  L 35,11  L 35,13  L 34,13  L 34,15  L 33,15  L 33,17  L 32,17  L 32,21  L 31,21  L 31,23  L 30,23  L 30,24  L 31,24  L 31,26  L 30,26  L 30,31  L 29,31  L 29,41  L 28,41  L 28,42  L 29,42  L 29,53  L 30,53  L 30,54  L 35,54  L 35,52  L 36,52  L 36,32  L 37,32  L 37,31  L 36,31  L 36,30  L 37,30  L 37,26  L 38,26  L 38,25  L 37,25  L 37,24  L 38,24  L 38,22  L 39,22  L 39,20  L 40,20  L 40,19  L 39,19  L 39,18  L 40,18  L 40,16  L 41,16  L 41,13  L 42,13  L 42,10  L 43,10  L 43,8  L 44,8  L 44,7  L 43,7  L 43,5  L 42,5  L 42,4  L 41,4  L 41,3  L 39,3  L 39,2  L 38,2  L 38,1  L 27,1  L 27,2  L 20,2  L 20,3  Z  " style="fill:rgb(0, 0, 0); fill-opacity:1.000; stroke:none;" />
 <path d="  M 70,47  L 71,47  L 71,48  L 75,48  L 75,47  L 76,47  L 76,36  L 77,36  L 77,35  L 76,35  L 76,33  L 77,33  L 77,26  L 78,26  L 78,18  L 79,18  L 79,10  L 80,10  L 80,3  L 79,3  L 79,2  L 74,2  L 74,3  L 65,3  L 65,4  L 64,4  L 64,3  L 62,3  L 62,4  L 50,4  L 50,3  L 49,3  L 49,4  L 48,4  L 48,8  L 49,8  L 49,10  L 50,10  L 50,11  L 52,11  L 52,10  L 72,10  L 72,11  L 73,11  L 73,14  L 72,14  L 72,16  L 71,16  L 71,26  L 70,26  Z  " style="fill:rgb(0, 0, 0); fill-opacity:1.000; stroke:none;" />
</svg>
