<?xml version="1.0" encoding="UTF-8" standalone="no"?>
<!DOCTYPE svg PUBLIC "-//W3C//DTD SVG 1.1//EN" 
  "http://www.w3.org/Graphics/SVG/1.1/DTD/svg11.dtd">
<svg width="101" height="143"
     xmlns="http://www.w3.org/2000/svg" version="1.1">
 <path d="  M 3,60  L 3,61  L 1,61  L 1,66  L 3,66  L 3,67  L 10,67  L 10,66  L 20,66  L 20,65  L 21,65  L 21,66  L 22,66  L 22,65  L 23,65  L 23,66  L 24,66  L 24,65  L 25,65  L 25,66  L 26,66  L 26,65  L 52,65  L 52,66  L 53,66  L 53,67  L 52,67  L 52,68  L 53,68  L 53,86  L 54,86  L 54,91  L 55,91  L 55,92  L 59,92  L 59,90  L 60,90  L 60,87  L 61,87  L 61,86  L 60,86  L 60,84  L 61,84  L 61,81  L 60,81  L 60,80  L 61,80  L 61,78  L 60,78  L 60,76  L 61,76  L 61,75  L 60,75  L 60,72  L 61,72  L 61,71  L 60,71  L 60,65  L 61,65  L 61,64  L 64,64  L 64,63  L 65,63  L 65,64  L 67,64  L 67,63  L 69,63  L 69,64  L 71,64  L 71,63  L 74,63  L 74,64  L 75,64  L 75,63  L 84,63  L 84,62  L 85,62  L 85,63  L 86,63  L 86,62  L 87,62  L 87,63  L 88,63  L 88,62  L 89,62  L 89,63  L 90,63  L 90,62  L 91,62  L 91,63  L 92,63  L 92,62  L 93,62  L 93,63  L 94,63  L 94,62  L 100,62  L 100,61  L 101,61  L 101,56  L 100,56  L 100,55  L 87,55  L 87,56  L 86,56  L 86,55  L 85,55  L 85,56  L 84,56  L 84,55  L 83,55  L 83,56  L 72,56  L 72,57  L 53,57  L 53,58  L 52,58  L 52,57  L 51,57  L 51,58  L 30,58  L 30,59  L 29,59  L 29,58  L 26,58  L 26,59  L 25,59  L 25,58  L 24,58  L 24,59  L 23,59  L 23,58  L 22,58  L 22,59  L 21,59  L 21,58  L 20,58  L 20,59  L 19,59  L 19,58  L 18,58  L 18,59  L 11,59  L 11,60  Z  " style="fill:rgb(0, 0, 0); fill-opacity:1.000; stroke:none;" />
 <path d="  M 31,39  L 31,40  L 32,40  L 32,43  L 31,43  L 31,50  L 32,50  L 32,52  L 37,52  L 37,50  L 38,50  L 38,46  L 39,46  L 39,45  L 38,45  L 38,44  L 39,44  L 39,37  L 40,37  L 40,30  L 41,30  L 41,25  L 42,25  L 42,22  L 43,22  L 43,19  L 44,19  L 44,16  L 45,16  L 45,12  L 46,12  L 46,7  L 45,7  L 45,5  L 43,5  L 43,4  L 42,4  L 42,3  L 40,3  L 40,2  L 37,2  L 37,1  L 35,1  L 35,2  L 27,2  L 27,3  L 19,3  L 19,4  L 16,4  L 16,5  L 13,5  L 13,6  L 11,6  L 11,7  L 9,7  L 9,14  L 13,14  L 13,13  L 15,13  L 15,12  L 17,12  L 17,11  L 19,11  L 19,10  L 26,10  L 26,9  L 38,9  L 38,10  L 39,10  L 39,13  L 38,13  L 38,16  L 37,16  L 37,19  L 36,19  L 36,22  L 35,22  L 35,25  L 34,25  L 34,29  L 33,29  L 33,34  L 32,34  L 32,39  Z  " style="fill:rgb(0, 0, 0); fill-opacity:1.000; stroke:none;" />
 <path d="  M 26,135  L 27,135  L 27,137  L 28,137  L 28,138  L 29,138  L 29,139  L 30,139  L 30,140  L 31,140  L 31,142  L 33,142  L 33,143  L 42,143  L 42,142  L 49,142  L 49,141  L 52,141  L 52,140  L 55,140  L 55,139  L 58,139  L 58,138  L 59,138  L 59,137  L 61,137  L 61,136  L 66,136  L 66,135  L 68,135  L 68,134  L 70,134  L 70,135  L 71,135  L 71,134  L 73,134  L 73,133  L 75,133  L 75,132  L 76,132  L 76,128  L 77,128  L 77,125  L 78,125  L 78,120  L 79,120  L 79,114  L 80,114  L 80,111  L 81,111  L 81,104  L 80,104  L 80,103  L 81,103  L 81,100  L 80,100  L 80,99  L 81,99  L 81,97  L 80,97  L 80,95  L 81,95  L 81,93  L 80,93  L 80,90  L 81,90  L 81,89  L 80,89  L 80,86  L 81,86  L 81,85  L 80,85  L 80,82  L 79,82  L 79,81  L 75,81  L 75,83  L 73,83  L 73,90  L 74,90  L 74,93  L 73,93  L 73,94  L 74,94  L 74,105  L 75,105  L 75,106  L 74,106  L 74,107  L 32,107  L 32,103  L 33,103  L 33,88  L 34,88  L 34,87  L 33,87  L 33,85  L 34,85  L 34,82  L 33,82  L 33,80  L 32,80  L 32,79  L 29,79  L 29,80  L 27,80  L 27,81  L 26,81  L 26,87  L 25,87  L 25,88  L 26,88  L 26,91  L 25,91  L 25,92  L 26,92  L 26,93  L 25,93  L 25,94  L 26,94  L 26,95  L 25,95  L 25,123  L 26,123  Z  M 72,114  L 73,114  L 73,117  L 72,117  L 72,122  L 71,122  L 71,125  L 70,125  L 70,127  L 69,127  L 69,128  L 66,128  L 66,129  L 64,129  L 64,130  L 62,130  L 62,131  L 59,131  L 59,132  L 56,132  L 56,133  L 54,133  L 54,134  L 52,134  L 52,135  L 47,135  L 47,136  L 44,136  L 44,137  L 41,137  L 41,136  L 36,136  L 36,135  L 35,135  L 35,134  L 34,134  L 34,133  L 33,133  L 33,121  L 32,121  L 32,118  L 33,118  L 33,115  L 34,115  L 34,114  L 36,114  L 36,113  L 72,113  Z  " style="fill:rgb(0, 0, 0); fill-opacity:1.000; stroke:none;" />
 <path d="  M 79,0  L 79,1  L 75,1  L 75,2  L 70,2  L 70,3  L 63,3  L 63,4  L 51,4  L 51,6  L 50,6  L 50,8  L 51,8  L 51,10  L 52,10  L 52,11  L 59,11  L 59,10  L 61,10  L 61,11  L 62,11  L 62,10  L 68,10  L 68,9  L 74,9  L 74,18  L 73,18  L 73,19  L 74,19  L 74,21  L 73,21  L 73,27  L 72,27  L 72,28  L 73,28  L 73,30  L 72,30  L 72,32  L 73,32  L 73,33  L 72,33  L 72,46  L 73,46  L 73,49  L 74,49  L 74,50  L 75,50  L 75,51  L 78,51  L 78,50  L 79,50  L 79,48  L 80,48  L 80,47  L 79,47  L 79,29  L 80,29  L 80,22  L 81,22  L 81,21  L 80,21  L 80,20  L 81,20  L 81,9  L 82,9  L 82,5  L 83,5  L 83,3  L 82,3  L 82,0  L 81,0  L 81,1  L 80,1  L 80,0  Z  " style="fill:rgb(0, 0, 0); fill-opacity:1.000; stroke:none;" />
</svg>
