<?xml version="1.0" encoding="UTF-8" standalone="no"?>
<!DOCTYPE svg PUBLIC "-//W3C//DTD SVG 1.1//EN" 
  "http://www.w3.org/Graphics/SVG/1.1/DTD/svg11.dtd">
<svg width="103" height="153"
     xmlns="http://www.w3.org/2000/svg" version="1.1">
 <path d="  M 96,69  L 96,68  L 97,68  L 97,66  L 98,66  L 98,62  L 96,62  L 96,61  L 94,61  L 94,62  L 76,62  L 76,63  L 75,63  L 75,62  L 74,62  L 74,63  L 65,63  L 65,64  L 54,64  L 54,65  L 51,65  L 51,64  L 50,64  L 50,65  L 42,65  L 42,66  L 29,66  L 29,67  L 19,67  L 19,68  L 13,68  L 13,69  L 11,69  L 11,68  L 10,68  L 10,69  L 6,69  L 6,70  L 1,70  L 1,71  L 0,71  L 0,75  L 1,75  L 1,76  L 2,76  L 2,77  L 8,77  L 8,76  L 9,76  L 9,77  L 10,77  L 10,76  L 13,76  L 13,75  L 19,75  L 19,74  L 27,74  L 27,73  L 49,73  L 49,77  L 50,77  L 50,85  L 51,85  L 51,87  L 52,87  L 52,89  L 53,89  L 53,90  L 54,90  L 54,93  L 55,93  L 55,97  L 56,97  L 56,101  L 55,101  L 55,102  L 53,102  L 53,104  L 52,104  L 52,105  L 51,105  L 51,106  L 49,106  L 49,107  L 48,107  L 48,108  L 46,108  L 46,109  L 45,109  L 45,110  L 44,110  L 44,112  L 43,112  L 43,113  L 42,113  L 42,114  L 41,114  L 41,115  L 40,115  L 40,116  L 39,116  L 39,117  L 38,117  L 38,118  L 37,118  L 37,119  L 36,119  L 36,121  L 35,121  L 35,122  L 34,122  L 34,123  L 33,123  L 33,125  L 32,125  L 32,127  L 31,127  L 31,129  L 30,129  L 30,130  L 29,130  L 29,132  L 28,132  L 28,134  L 27,134  L 27,135  L 26,135  L 26,137  L 25,137  L 25,138  L 24,138  L 24,140  L 23,140  L 23,141  L 22,141  L 22,142  L 21,142  L 21,144  L 20,144  L 20,145  L 19,145  L 19,146  L 18,146  L 18,147  L 17,147  L 17,149  L 16,149  L 16,153  L 24,153  L 24,151  L 25,151  L 25,150  L 27,150  L 27,148  L 28,148  L 28,147  L 29,147  L 29,145  L 30,145  L 30,144  L 31,144  L 31,142  L 32,142  L 32,141  L 33,141  L 33,139  L 34,139  L 34,138  L 35,138  L 35,136  L 36,136  L 36,135  L 37,135  L 37,133  L 38,133  L 38,131  L 39,131  L 39,130  L 40,130  L 40,129  L 41,129  L 41,127  L 42,127  L 42,126  L 43,126  L 43,125  L 44,125  L 44,124  L 45,124  L 45,122  L 46,122  L 46,120  L 47,120  L 47,121  L 49,121  L 49,122  L 50,122  L 50,123  L 51,123  L 51,124  L 52,124  L 52,125  L 54,125  L 54,126  L 56,126  L 56,127  L 57,127  L 57,128  L 59,128  L 59,130  L 61,130  L 61,131  L 63,131  L 63,132  L 64,132  L 64,133  L 66,133  L 66,134  L 68,134  L 68,135  L 69,135  L 69,136  L 71,136  L 71,137  L 72,137  L 72,138  L 74,138  L 74,139  L 76,139  L 76,140  L 78,140  L 78,141  L 82,141  L 82,142  L 84,142  L 84,143  L 89,143  L 89,144  L 94,144  L 94,145  L 95,145  L 95,146  L 96,146  L 96,147  L 97,147  L 97,148  L 98,148  L 98,149  L 101,149  L 101,148  L 103,148  L 103,143  L 102,143  L 102,142  L 100,142  L 100,141  L 97,141  L 97,140  L 95,140  L 95,139  L 93,139  L 93,138  L 91,138  L 91,137  L 90,137  L 90,136  L 88,136  L 88,135  L 86,135  L 86,134  L 82,134  L 82,133  L 80,133  L 80,132  L 78,132  L 78,131  L 76,131  L 76,130  L 74,130  L 74,129  L 72,129  L 72,128  L 71,128  L 71,127  L 69,127  L 69,126  L 68,126  L 68,125  L 66,125  L 66,124  L 64,124  L 64,123  L 63,123  L 63,122  L 62,122  L 62,121  L 60,121  L 60,120  L 59,120  L 59,119  L 58,119  L 58,118  L 57,118  L 57,117  L 56,117  L 56,116  L 54,116  L 54,114  L 53,114  L 53,111  L 54,111  L 54,110  L 56,110  L 56,109  L 59,109  L 59,108  L 60,108  L 60,109  L 61,109  L 61,108  L 62,108  L 62,107  L 63,107  L 63,105  L 64,105  L 64,104  L 65,104  L 65,96  L 64,96  L 64,94  L 63,94  L 63,92  L 62,92  L 62,90  L 61,90  L 61,87  L 60,87  L 60,82  L 59,82  L 59,77  L 58,77  L 58,72  L 59,72  L 59,71  L 63,71  L 63,70  L 64,70  L 64,71  L 65,71  L 65,70  L 75,70  L 75,69  L 76,69  L 76,70  L 78,70  L 78,69  Z  M 47,120  L 47,119  L 48,119  L 48,120  Z  " style="fill:rgb(0, 0, 0); fill-opacity:1.000; stroke:none;" />
 <path d="  M 37,31  L 38,31  L 38,27  L 39,27  L 39,25  L 40,25  L 40,21  L 41,21  L 41,18  L 42,18  L 42,15  L 43,15  L 43,13  L 44,13  L 44,12  L 43,12  L 43,11  L 44,11  L 44,8  L 43,8  L 43,6  L 42,6  L 42,5  L 40,5  L 40,4  L 39,4  L 39,3  L 38,3  L 38,2  L 31,2  L 31,3  L 26,3  L 26,4  L 18,4  L 18,5  L 16,5  L 16,6  L 12,6  L 12,7  L 7,7  L 7,9  L 6,9  L 6,13  L 7,13  L 7,14  L 8,14  L 8,15  L 12,15  L 12,14  L 15,14  L 15,13  L 17,13  L 17,12  L 19,12  L 19,11  L 25,11  L 25,10  L 33,10  L 33,9  L 35,9  L 35,10  L 36,10  L 36,14  L 35,14  L 35,16  L 34,16  L 34,18  L 33,18  L 33,22  L 32,22  L 32,25  L 31,25  L 31,28  L 30,28  L 30,36  L 29,36  L 29,59  L 30,59  L 30,60  L 33,60  L 33,61  L 35,61  L 35,60  L 36,60  L 36,57  L 37,57  L 37,56  L 36,56  L 36,55  L 37,55  L 37,54  L 36,54  L 36,53  L 37,53  L 37,52  L 36,52  L 36,49  L 37,49  L 37,48  L 36,48  L 36,45  L 37,45  L 37,44  L 36,44  L 36,41  L 37,41  L 37,40  L 36,40  L 36,38  L 37,38  Z  " style="fill:rgb(0, 0, 0); fill-opacity:1.000; stroke:none;" />
 <path d="  M 78,34  L 79,34  L 79,28  L 80,28  L 80,21  L 81,21  L 81,20  L 80,20  L 80,17  L 81,17  L 81,11  L 82,11  L 82,7  L 83,7  L 83,3  L 82,3  L 82,1  L 80,1  L 80,0  L 76,0  L 76,1  L 72,1  L 72,2  L 68,2  L 68,3  L 62,3  L 62,4  L 49,4  L 49,5  L 48,5  L 48,6  L 47,6  L 47,8  L 48,8  L 48,9  L 49,9  L 49,11  L 50,11  L 50,12  L 57,12  L 57,11  L 62,11  L 62,10  L 67,10  L 67,9  L 71,9  L 71,8  L 74,8  L 74,9  L 75,9  L 75,11  L 74,11  L 74,18  L 73,18  L 73,26  L 72,26  L 72,32  L 71,32  L 71,33  L 72,33  L 72,34  L 71,34  L 71,51  L 72,51  L 72,52  L 73,52  L 73,53  L 76,53  L 76,54  L 77,54  L 77,51  L 78,51  Z  " style="fill:rgb(0, 0, 0); fill-opacity:1.000; stroke:none;" />
</svg>
