<?xml version="1.0" encoding="UTF-8" standalone="no"?>
<!DOCTYPE svg PUBLIC "-//W3C//DTD SVG 1.1//EN" 
  "http://www.w3.org/Graphics/SVG/1.1/DTD/svg11.dtd">
<svg width="100" height="151"
     xmlns="http://www.w3.org/2000/svg" version="1.1">
 <path d="  M 12,75  L 12,74  L 14,74  L 14,75  L 15,75  L 15,74  L 20,74  L 20,73  L 28,73  L 28,72  L 29,72  L 29,73  L 30,73  L 30,72  L 51,72  L 51,79  L 52,79  L 52,80  L 51,80  L 51,83  L 52,83  L 52,85  L 51,85  L 51,87  L 52,87  L 52,89  L 51,89  L 51,91  L 52,91  L 52,102  L 53,102  L 53,103  L 52,103  L 52,104  L 51,104  L 51,105  L 48,105  L 48,106  L 43,106  L 43,107  L 41,107  L 41,108  L 39,108  L 39,109  L 38,109  L 38,110  L 37,110  L 37,112  L 35,112  L 35,113  L 34,113  L 34,114  L 33,114  L 33,115  L 32,115  L 32,116  L 31,116  L 31,117  L 30,117  L 30,118  L 29,118  L 29,120  L 28,120  L 28,121  L 27,121  L 27,122  L 26,122  L 26,124  L 25,124  L 25,125  L 24,125  L 24,128  L 23,128  L 23,132  L 22,132  L 22,141  L 23,141  L 23,143  L 24,143  L 24,145  L 25,145  L 25,146  L 26,146  L 26,147  L 27,147  L 27,148  L 28,148  L 28,149  L 30,149  L 30,150  L 32,150  L 32,151  L 59,151  L 59,150  L 60,150  L 60,149  L 62,149  L 62,148  L 64,148  L 64,147  L 65,147  L 65,146  L 66,146  L 66,145  L 67,145  L 67,144  L 68,144  L 68,143  L 70,143  L 70,142  L 71,142  L 71,141  L 72,141  L 72,140  L 73,140  L 73,138  L 74,138  L 74,137  L 75,137  L 75,136  L 76,136  L 76,135  L 77,135  L 77,133  L 78,133  L 78,132  L 79,132  L 79,130  L 80,130  L 80,128  L 81,128  L 81,127  L 82,127  L 82,116  L 81,116  L 81,115  L 80,115  L 80,113  L 78,113  L 78,112  L 77,112  L 77,111  L 76,111  L 76,110  L 75,110  L 75,109  L 73,109  L 73,108  L 71,108  L 71,107  L 68,107  L 68,106  L 63,106  L 63,105  L 61,105  L 61,104  L 60,104  L 60,92  L 59,92  L 59,75  L 58,75  L 58,72  L 64,72  L 64,71  L 65,71  L 65,72  L 68,72  L 68,71  L 99,71  L 99,69  L 100,69  L 100,64  L 99,64  L 99,63  L 83,63  L 83,64  L 81,64  L 81,63  L 80,63  L 80,64  L 41,64  L 41,65  L 40,65  L 40,64  L 38,64  L 38,65  L 28,65  L 28,66  L 27,66  L 27,65  L 26,65  L 26,66  L 17,66  L 17,67  L 16,67  L 16,66  L 15,66  L 15,67  L 11,67  L 11,68  L 2,68  L 2,69  L 1,69  L 1,70  L 0,70  L 0,72  L 1,72  L 1,73  L 2,73  L 2,74  L 3,74  L 3,75  Z  M 55,143  L 55,144  L 50,144  L 50,145  L 48,145  L 48,144  L 47,144  L 47,145  L 44,145  L 44,144  L 43,144  L 43,145  L 40,145  L 40,144  L 39,144  L 39,145  L 38,145  L 38,144  L 35,144  L 35,143  L 33,143  L 33,142  L 31,142  L 31,141  L 30,141  L 30,138  L 29,138  L 29,135  L 30,135  L 30,134  L 29,134  L 29,133  L 30,133  L 30,131  L 31,131  L 31,128  L 32,128  L 32,127  L 33,127  L 33,125  L 34,125  L 34,124  L 35,124  L 35,122  L 36,122  L 36,121  L 37,121  L 37,120  L 38,120  L 38,119  L 39,119  L 39,118  L 41,118  L 41,117  L 43,117  L 43,116  L 44,116  L 44,115  L 47,115  L 47,114  L 51,114  L 51,113  L 58,113  L 58,112  L 59,112  L 59,113  L 60,113  L 60,112  L 62,112  L 62,113  L 65,113  L 65,114  L 68,114  L 68,115  L 70,115  L 70,116  L 71,116  L 71,117  L 73,117  L 73,119  L 74,119  L 74,126  L 73,126  L 73,128  L 72,128  L 72,130  L 71,130  L 71,132  L 69,132  L 69,135  L 67,135  L 67,136  L 66,136  L 66,137  L 65,137  L 65,138  L 63,138  L 63,139  L 62,139  L 62,140  L 61,140  L 61,141  L 59,141  L 59,142  L 58,142  L 58,143  Z  " style="fill:rgb(0, 0, 0); fill-opacity:1.000; stroke:none;" />
 <path d="  M 40,19  L 41,19  L 41,16  L 42,16  L 42,15  L 43,15  L 43,11  L 44,11  L 44,8  L 43,8  L 43,6  L 42,6  L 42,5  L 41,5  L 41,4  L 39,4  L 39,3  L 38,3  L 38,2  L 36,2  L 36,1  L 31,1  L 31,2  L 22,2  L 22,3  L 17,3  L 17,4  L 11,4  L 11,5  L 6,5  L 6,6  L 5,6  L 5,11  L 4,11  L 4,12  L 5,12  L 5,13  L 6,13  L 6,14  L 7,14  L 7,15  L 8,15  L 8,14  L 10,14  L 10,13  L 14,13  L 14,12  L 16,12  L 16,11  L 20,11  L 20,10  L 23,10  L 23,9  L 25,9  L 25,10  L 26,10  L 26,9  L 36,9  L 36,12  L 35,12  L 35,14  L 34,14  L 34,16  L 33,16  L 33,18  L 32,18  L 32,21  L 31,21  L 31,28  L 30,28  L 30,32  L 29,32  L 29,33  L 30,33  L 30,36  L 29,36  L 29,56  L 30,56  L 30,58  L 31,58  L 31,59  L 37,59  L 37,31  L 38,31  L 38,25  L 39,25  L 39,22  L 40,22  Z  " style="fill:rgb(0, 0, 0); fill-opacity:1.000; stroke:none;" />
 <path d="  M 71,24  L 71,54  L 72,54  L 72,56  L 73,56  L 73,57  L 74,57  L 74,58  L 77,58  L 77,57  L 78,57  L 78,31  L 79,31  L 79,17  L 80,17  L 80,5  L 79,5  L 79,4  L 78,4  L 78,3  L 75,3  L 75,4  L 66,4  L 66,5  L 49,5  L 49,10  L 50,10  L 50,12  L 51,12  L 51,13  L 53,13  L 53,12  L 64,12  L 64,11  L 65,11  L 65,12  L 66,12  L 66,11  L 72,11  L 72,13  L 73,13  L 73,14  L 72,14  L 72,24  Z  " style="fill:rgb(0, 0, 0); fill-opacity:1.000; stroke:none;" />
</svg>
