<?xml version="1.0" encoding="UTF-8" standalone="no"?>
<!DOCTYPE svg PUBLIC "-//W3C//DTD SVG 1.1//EN" 
  "http://www.w3.org/Graphics/SVG/1.1/DTD/svg11.dtd">
<svg width="104" height="166"
     xmlns="http://www.w3.org/2000/svg" version="1.1">
 <path d="  M 50,158  L 50,157  L 49,157  L 49,156  L 47,156  L 47,155  L 46,155  L 46,154  L 47,154  L 47,150  L 48,150  L 48,148  L 49,148  L 49,147  L 50,147  L 50,145  L 52,145  L 52,144  L 54,144  L 54,143  L 57,143  L 57,142  L 59,142  L 59,141  L 61,141  L 61,140  L 63,140  L 63,139  L 65,139  L 65,138  L 67,138  L 67,137  L 68,137  L 68,136  L 69,136  L 69,135  L 70,135  L 70,134  L 71,134  L 71,133  L 72,133  L 72,132  L 73,132  L 73,131  L 74,131  L 74,130  L 75,130  L 75,129  L 76,129  L 76,128  L 77,128  L 77,127  L 80,127  L 80,126  L 83,126  L 83,125  L 84,125  L 84,124  L 85,124  L 85,123  L 86,123  L 86,122  L 87,122  L 87,121  L 88,121  L 88,120  L 89,120  L 89,119  L 90,119  L 90,118  L 89,118  L 89,115  L 88,115  L 88,114  L 87,114  L 87,113  L 86,113  L 86,111  L 84,111  L 84,110  L 82,110  L 82,109  L 81,109  L 81,108  L 75,108  L 75,107  L 73,107  L 73,106  L 49,106  L 49,96  L 48,96  L 48,95  L 47,95  L 47,90  L 46,90  L 46,69  L 48,69  L 48,68  L 54,68  L 54,67  L 59,67  L 59,66  L 63,66  L 63,65  L 66,65  L 66,64  L 71,64  L 71,63  L 76,63  L 76,62  L 81,62  L 81,61  L 83,61  L 83,60  L 84,60  L 84,59  L 85,59  L 85,57  L 84,57  L 84,56  L 82,56  L 82,55  L 68,55  L 68,54  L 69,54  L 69,53  L 70,53  L 70,51  L 71,51  L 71,48  L 72,48  L 72,41  L 73,41  L 73,35  L 74,35  L 74,34  L 73,34  L 73,33  L 74,33  L 74,29  L 75,29  L 75,24  L 76,24  L 76,19  L 77,19  L 77,17  L 76,17  L 76,16  L 77,16  L 77,14  L 76,14  L 76,13  L 77,13  L 77,10  L 76,10  L 76,6  L 75,6  L 75,5  L 74,5  L 74,4  L 72,4  L 72,3  L 70,3  L 70,2  L 65,2  L 65,1  L 63,1  L 63,2  L 40,2  L 40,3  L 38,3  L 38,4  L 36,4  L 36,5  L 35,5  L 35,4  L 34,4  L 34,3  L 31,3  L 31,2  L 30,2  L 30,1  L 25,1  L 25,0  L 24,0  L 24,1  L 11,1  L 11,2  L 5,2  L 5,3  L 3,3  L 3,4  L 1,4  L 1,9  L 2,9  L 2,10  L 3,10  L 3,11  L 6,11  L 6,10  L 9,10  L 9,9  L 11,9  L 11,8  L 27,8  L 27,9  L 28,9  L 28,10  L 29,10  L 29,15  L 30,15  L 30,20  L 29,20  L 29,21  L 30,21  L 30,24  L 29,24  L 29,40  L 28,40  L 28,42  L 29,42  L 29,43  L 28,43  L 28,46  L 29,46  L 29,50  L 30,50  L 30,51  L 31,51  L 31,52  L 32,52  L 32,53  L 34,53  L 34,54  L 36,54  L 36,52  L 37,52  L 37,51  L 36,51  L 36,50  L 37,50  L 37,49  L 36,49  L 36,41  L 35,41  L 35,40  L 36,40  L 36,37  L 35,37  L 35,36  L 36,36  L 36,31  L 37,31  L 37,12  L 36,12  L 36,7  L 37,7  L 37,6  L 38,6  L 38,7  L 39,7  L 39,8  L 41,8  L 41,9  L 43,9  L 43,10  L 52,10  L 52,9  L 68,9  L 68,10  L 69,10  L 69,19  L 68,19  L 68,24  L 67,24  L 67,32  L 66,32  L 66,36  L 65,36  L 65,41  L 64,41  L 64,46  L 63,46  L 63,53  L 64,53  L 64,54  L 65,54  L 65,57  L 64,57  L 64,58  L 61,58  L 61,59  L 60,59  L 60,58  L 59,58  L 59,59  L 56,59  L 56,60  L 37,60  L 37,59  L 33,59  L 33,58  L 19,58  L 19,59  L 15,59  L 15,60  L 12,60  L 12,61  L 8,61  L 8,62  L 6,62  L 6,63  L 4,63  L 4,64  L 2,64  L 2,65  L 1,65  L 1,69  L 2,69  L 2,70  L 7,70  L 7,69  L 12,69  L 12,68  L 14,68  L 14,67  L 15,67  L 15,68  L 16,68  L 16,67  L 33,67  L 33,68  L 35,68  L 35,67  L 36,67  L 36,68  L 38,68  L 38,76  L 39,76  L 39,95  L 40,95  L 40,98  L 41,98  L 41,102  L 42,102  L 42,104  L 43,104  L 43,105  L 44,105  L 44,107  L 45,107  L 45,113  L 46,113  L 46,114  L 47,114  L 47,115  L 49,115  L 49,114  L 50,114  L 50,115  L 52,115  L 52,114  L 71,114  L 71,115  L 74,115  L 74,116  L 75,116  L 75,117  L 76,117  L 76,118  L 75,118  L 75,119  L 76,119  L 76,120  L 75,120  L 75,121  L 73,121  L 73,122  L 72,122  L 72,123  L 71,123  L 71,124  L 69,124  L 69,125  L 68,125  L 68,126  L 67,126  L 67,127  L 66,127  L 66,128  L 65,128  L 65,130  L 63,130  L 63,132  L 61,132  L 61,133  L 59,133  L 59,134  L 58,134  L 58,135  L 55,135  L 55,136  L 53,136  L 53,137  L 51,137  L 51,138  L 47,138  L 47,139  L 46,139  L 46,140  L 45,140  L 45,141  L 43,141  L 43,142  L 42,142  L 42,145  L 41,145  L 41,150  L 40,150  L 40,153  L 41,153  L 41,159  L 40,159  L 40,160  L 41,160  L 41,161  L 42,161  L 42,162  L 45,162  L 45,163  L 47,163  L 47,164  L 49,164  L 49,165  L 53,165  L 53,166  L 75,166  L 75,165  L 78,165  L 78,164  L 80,164  L 80,163  L 83,163  L 83,162  L 84,162  L 84,161  L 87,161  L 87,160  L 89,160  L 89,159  L 91,159  L 91,158  L 93,158  L 93,157  L 95,157  L 95,156  L 97,156  L 97,155  L 99,155  L 99,154  L 100,154  L 100,153  L 102,153  L 102,152  L 103,152  L 103,150  L 104,150  L 104,145  L 102,145  L 102,144  L 101,144  L 101,145  L 98,145  L 98,146  L 96,146  L 96,147  L 95,147  L 95,148  L 93,148  L 93,149  L 92,149  L 92,150  L 90,150  L 90,151  L 89,151  L 89,152  L 87,152  L 87,153  L 86,153  L 86,154  L 83,154  L 83,155  L 82,155  L 82,156  L 79,156  L 79,157  L 78,157  L 78,158  L 74,158  L 74,159  L 73,159  L 73,158  L 71,158  L 71,159  L 68,159  L 68,160  L 56,160  L 56,159  L 52,159  L 52,158  Z  " style="fill:rgb(0, 0, 0); fill-opacity:1.000; stroke:none;" />
 <path d="  M 64,79  L 64,80  L 65,80  L 65,82  L 66,82  L 66,83  L 67,83  L 67,84  L 69,84  L 69,85  L 72,85  L 72,86  L 73,86  L 73,87  L 75,87  L 75,88  L 77,88  L 77,87  L 78,87  L 78,81  L 77,81  L 77,80  L 73,80  L 73,79  Z  " style="fill:rgb(0, 0, 0); fill-opacity:1.000; stroke:none;" />
 <path d="  M 103,87  L 104,87  L 104,86  L 103,86  L 103,84  L 104,84  L 104,42  L 103,42  L 103,30  L 102,30  L 102,29  L 103,29  L 103,28  L 102,28  L 102,18  L 101,18  L 101,17  L 102,17  L 102,16  L 101,16  L 101,15  L 102,15  L 102,14  L 101,14  L 101,11  L 102,11  L 102,10  L 101,10  L 101,6  L 100,6  L 100,4  L 99,4  L 99,3  L 96,3  L 96,4  L 95,4  L 95,21  L 96,21  L 96,22  L 95,22  L 95,23  L 96,23  L 96,42  L 97,42  L 97,73  L 96,73  L 96,86  L 95,86  L 95,88  L 96,88  L 96,90  L 95,90  L 95,92  L 96,92  L 96,93  L 95,93  L 95,96  L 94,96  L 94,98  L 95,98  L 95,99  L 102,99  L 102,94  L 103,94  Z  " style="fill:rgb(0, 0, 0); fill-opacity:1.000; stroke:none;" />
</svg>
