<?xml version="1.0" encoding="UTF-8" standalone="no"?>
<!DOCTYPE svg PUBLIC "-//W3C//DTD SVG 1.1//EN" 
  "http://www.w3.org/Graphics/SVG/1.1/DTD/svg11.dtd">
<svg width="106" height="133"
     xmlns="http://www.w3.org/2000/svg" version="1.1">
 <path d="  M 28,31  L 29,31  L 29,27  L 30,27  L 30,19  L 31,19  L 31,15  L 32,15  L 32,14  L 31,14  L 31,12  L 32,12  L 32,10  L 31,10  L 31,5  L 30,5  L 30,4  L 29,4  L 29,3  L 28,3  L 28,2  L 23,2  L 23,1  L 15,1  L 15,2  L 6,2  L 6,3  L 4,3  L 4,7  L 5,7  L 5,8  L 4,8  L 4,9  L 8,9  L 8,8  L 13,8  L 13,7  L 16,7  L 16,8  L 18,8  L 18,7  L 23,7  L 23,8  L 24,8  L 24,20  L 23,20  L 23,26  L 22,26  L 22,31  L 21,31  L 21,34  L 20,34  L 20,35  L 21,35  L 21,37  L 20,37  L 20,42  L 21,42  L 21,43  L 22,43  L 22,44  L 23,44  L 23,45  L 21,45  L 21,46  L 15,46  L 15,47  L 12,47  L 12,48  L 10,48  L 10,49  L 8,49  L 8,50  L 6,50  L 6,51  L 5,51  L 5,52  L 2,52  L 2,53  L 1,53  L 1,54  L 0,54  L 0,55  L 1,55  L 1,57  L 2,57  L 2,58  L 5,58  L 5,57  L 7,57  L 7,56  L 8,56  L 8,55  L 12,55  L 12,54  L 15,54  L 15,53  L 19,53  L 19,52  L 32,52  L 32,53  L 34,53  L 34,54  L 33,54  L 33,55  L 34,55  L 34,63  L 35,63  L 35,64  L 34,64  L 34,65  L 35,65  L 35,74  L 36,74  L 36,76  L 37,76  L 37,77  L 38,77  L 38,79  L 39,79  L 39,80  L 40,80  L 40,81  L 43,81  L 43,80  L 44,80  L 44,78  L 43,78  L 43,74  L 42,74  L 42,67  L 41,67  L 41,56  L 40,56  L 40,52  L 44,52  L 44,51  L 48,51  L 48,50  L 53,50  L 53,49  L 57,49  L 57,48  L 61,48  L 61,47  L 64,47  L 64,46  L 67,46  L 67,45  L 68,45  L 68,42  L 67,42  L 67,41  L 66,41  L 66,42  L 65,42  L 65,41  L 60,41  L 60,40  L 59,40  L 59,37  L 60,37  L 60,32  L 61,32  L 61,27  L 62,27  L 62,25  L 63,25  L 63,19  L 64,19  L 64,12  L 65,12  L 65,6  L 64,6  L 64,4  L 61,4  L 61,3  L 60,3  L 60,2  L 57,2  L 57,1  L 56,1  L 56,2  L 53,2  L 53,1  L 50,1  L 50,2  L 49,2  L 49,1  L 48,1  L 48,2  L 37,2  L 37,3  L 35,3  L 35,6  L 36,6  L 36,8  L 57,8  L 57,9  L 58,9  L 58,14  L 57,14  L 57,20  L 56,20  L 56,24  L 55,24  L 55,28  L 54,28  L 54,32  L 53,32  L 53,34  L 52,34  L 52,35  L 53,35  L 53,36  L 52,36  L 52,39  L 51,39  L 51,41  L 52,41  L 52,42  L 51,42  L 51,44  L 49,44  L 49,45  L 46,45  L 46,46  L 44,46  L 44,45  L 43,45  L 43,46  L 33,46  L 33,45  L 26,45  L 26,43  L 27,43  L 27,40  L 28,40  Z  " style="fill:rgb(0, 0, 0); fill-opacity:1.000; stroke:none;" />
 <path d="  M 46,99  L 46,103  L 47,103  L 47,117  L 48,117  L 48,118  L 47,118  L 47,119  L 48,119  L 48,120  L 47,120  L 47,121  L 48,121  L 48,122  L 47,122  L 47,123  L 48,123  L 48,127  L 49,127  L 49,129  L 50,129  L 50,131  L 51,131  L 51,132  L 53,132  L 53,133  L 92,133  L 92,132  L 94,132  L 94,131  L 95,131  L 95,130  L 97,130  L 97,128  L 99,128  L 99,126  L 100,126  L 100,124  L 101,124  L 101,120  L 102,120  L 102,116  L 103,116  L 103,109  L 104,109  L 104,100  L 103,100  L 103,98  L 102,98  L 102,97  L 100,97  L 100,96  L 97,96  L 97,95  L 93,95  L 93,94  L 91,94  L 91,93  L 87,93  L 87,92  L 83,92  L 83,91  L 82,91  L 82,92  L 73,92  L 73,93  L 66,93  L 66,94  L 60,94  L 60,95  L 59,95  L 59,94  L 58,94  L 58,95  L 57,95  L 57,94  L 54,94  L 54,93  L 53,93  L 53,91  L 52,91  L 52,88  L 51,88  L 51,87  L 49,87  L 49,88  L 47,88  L 47,91  L 46,91  L 46,93  L 45,93  L 45,99  Z  M 79,99  L 79,98  L 80,98  L 80,99  L 81,99  L 81,98  L 83,98  L 83,99  L 89,99  L 89,100  L 93,100  L 93,101  L 95,101  L 95,102  L 96,102  L 96,103  L 97,103  L 97,116  L 96,116  L 96,120  L 95,120  L 95,123  L 94,123  L 94,125  L 93,125  L 93,126  L 88,126  L 88,127  L 77,127  L 77,128  L 56,128  L 56,127  L 55,127  L 55,126  L 54,126  L 54,116  L 53,116  L 53,115  L 54,115  L 54,112  L 53,112  L 53,111  L 54,111  L 54,110  L 53,110  L 53,102  L 54,102  L 54,101  L 59,101  L 59,100  L 69,100  L 69,99  Z  " style="fill:rgb(0, 0, 0); fill-opacity:1.000; stroke:none;" />
 <path d="  M 87,30  L 86,30  L 86,29  L 87,29  L 87,26  L 86,26  L 86,25  L 87,25  L 87,22  L 86,22  L 86,21  L 87,21  L 87,18  L 86,18  L 86,17  L 87,17  L 87,10  L 86,10  L 86,9  L 85,9  L 85,8  L 84,8  L 84,7  L 83,7  L 83,6  L 80,6  L 80,7  L 81,7  L 81,9  L 80,9  L 80,56  L 79,56  L 79,57  L 78,57  L 78,56  L 73,56  L 73,57  L 72,57  L 72,56  L 71,56  L 71,57  L 70,57  L 70,56  L 69,56  L 69,57  L 64,57  L 64,58  L 59,58  L 59,59  L 55,59  L 55,60  L 51,60  L 51,61  L 49,61  L 49,62  L 48,62  L 48,63  L 47,63  L 47,64  L 48,64  L 48,66  L 50,66  L 50,67  L 51,67  L 51,66  L 60,66  L 60,65  L 63,65  L 63,64  L 66,64  L 66,63  L 71,63  L 71,62  L 72,62  L 72,63  L 78,63  L 78,62  L 79,62  L 79,63  L 80,63  L 80,80  L 81,80  L 81,83  L 82,83  L 82,84  L 83,84  L 83,83  L 84,83  L 84,82  L 85,82  L 85,80  L 86,80  L 86,79  L 87,79  L 87,78  L 86,78  L 86,75  L 87,75  L 87,74  L 86,74  L 86,72  L 87,72  Z  " style="fill:rgb(0, 0, 0); fill-opacity:1.000; stroke:none;" />
 <path d="  M 106,8  L 105,8  L 105,7  L 104,7  L 104,6  L 102,6  L 102,7  L 101,7  L 101,8  L 100,8  L 100,10  L 99,10  L 99,14  L 100,14  L 100,27  L 101,27  L 101,30  L 100,30  L 100,31  L 101,31  L 101,38  L 100,38  L 100,39  L 101,39  L 101,42  L 100,42  L 100,43  L 101,43  L 101,46  L 100,46  L 100,88  L 101,88  L 101,89  L 102,89  L 102,90  L 103,90  L 103,89  L 105,89  L 105,88  L 106,88  Z  " style="fill:rgb(0, 0, 0); fill-opacity:1.000; stroke:none;" />
</svg>
