<?xml version="1.0" encoding="UTF-8" standalone="no"?>
<!DOCTYPE svg PUBLIC "-//W3C//DTD SVG 1.1//EN" 
  "http://www.w3.org/Graphics/SVG/1.1/DTD/svg11.dtd">
<svg width="105" height="140"
     xmlns="http://www.w3.org/2000/svg" version="1.1">
 <path d="  M 28,27  L 29,27  L 29,18  L 30,18  L 30,5  L 28,5  L 28,4  L 27,4  L 27,3  L 25,3  L 25,2  L 22,2  L 22,1  L 11,1  L 11,2  L 5,2  L 5,4  L 4,4  L 4,8  L 5,8  L 5,9  L 9,9  L 9,8  L 15,8  L 15,7  L 16,7  L 16,8  L 22,8  L 22,9  L 23,9  L 23,19  L 22,19  L 22,27  L 21,27  L 21,34  L 20,34  L 20,40  L 21,40  L 21,42  L 17,42  L 17,43  L 12,43  L 12,44  L 7,44  L 7,45  L 5,45  L 5,46  L 4,46  L 4,47  L 3,47  L 3,48  L 1,48  L 1,53  L 3,53  L 3,54  L 4,54  L 4,53  L 6,53  L 6,52  L 8,52  L 8,51  L 11,51  L 11,50  L 17,50  L 17,49  L 23,49  L 23,50  L 31,50  L 31,52  L 32,52  L 32,65  L 33,65  L 33,71  L 34,71  L 34,73  L 35,73  L 35,75  L 36,75  L 36,76  L 37,76  L 37,78  L 38,78  L 38,79  L 39,79  L 39,80  L 40,80  L 40,82  L 41,82  L 41,83  L 42,83  L 42,85  L 43,85  L 43,91  L 44,91  L 44,95  L 43,95  L 43,98  L 44,98  L 44,99  L 43,99  L 43,107  L 42,107  L 42,118  L 43,118  L 43,121  L 42,121  L 42,122  L 43,122  L 43,126  L 44,126  L 44,134  L 45,134  L 45,136  L 46,136  L 46,138  L 47,138  L 47,139  L 49,139  L 49,140  L 64,140  L 64,139  L 72,139  L 72,138  L 73,138  L 73,139  L 74,139  L 74,138  L 80,138  L 80,137  L 83,137  L 83,136  L 86,136  L 86,135  L 88,135  L 88,134  L 89,134  L 89,132  L 90,132  L 90,128  L 91,128  L 91,119  L 92,119  L 92,111  L 93,111  L 93,98  L 94,98  L 94,97  L 93,97  L 93,93  L 91,93  L 91,92  L 88,92  L 88,93  L 87,93  L 87,109  L 85,109  L 85,110  L 80,110  L 80,109  L 79,109  L 79,110  L 72,110  L 72,109  L 71,109  L 71,110  L 50,110  L 50,86  L 49,86  L 49,83  L 48,83  L 48,82  L 47,82  L 47,81  L 46,81  L 46,80  L 45,80  L 45,79  L 44,79  L 44,78  L 43,78  L 43,75  L 42,75  L 42,73  L 41,73  L 41,72  L 40,72  L 40,71  L 41,71  L 41,70  L 40,70  L 40,67  L 39,67  L 39,61  L 38,61  L 38,51  L 39,51  L 39,50  L 40,50  L 40,51  L 41,51  L 41,50  L 42,50  L 42,51  L 47,51  L 47,50  L 51,50  L 51,49  L 54,49  L 54,48  L 57,48  L 57,47  L 61,47  L 61,46  L 64,46  L 64,45  L 66,45  L 66,44  L 67,44  L 67,43  L 68,43  L 68,42  L 67,42  L 67,41  L 66,41  L 66,40  L 65,40  L 65,41  L 64,41  L 64,40  L 63,40  L 63,41  L 56,41  L 56,40  L 57,40  L 57,35  L 58,35  L 58,30  L 59,30  L 59,26  L 60,26  L 60,23  L 61,23  L 61,20  L 62,20  L 62,16  L 63,16  L 63,5  L 62,5  L 62,4  L 61,4  L 61,3  L 59,3  L 59,2  L 58,2  L 58,1  L 36,1  L 36,2  L 35,2  L 35,7  L 36,7  L 36,8  L 44,8  L 44,7  L 45,7  L 45,8  L 53,8  L 53,7  L 55,7  L 55,8  L 56,8  L 56,14  L 55,14  L 55,18  L 54,18  L 54,22  L 53,22  L 53,25  L 52,25  L 52,28  L 51,28  L 51,32  L 50,32  L 50,35  L 49,35  L 49,38  L 48,38  L 48,42  L 47,42  L 47,43  L 46,43  L 46,44  L 45,44  L 45,43  L 44,43  L 44,44  L 43,44  L 43,43  L 42,43  L 42,44  L 40,44  L 40,43  L 38,43  L 38,44  L 32,44  L 32,43  L 28,43  L 28,42  L 26,42  L 26,40  L 27,40  L 27,38  L 28,38  L 28,37  L 27,37  L 27,35  L 28,35  Z  M 59,116  L 60,116  L 60,115  L 61,115  L 61,116  L 62,116  L 62,115  L 86,115  L 86,119  L 85,119  L 85,124  L 84,124  L 84,130  L 83,130  L 83,131  L 80,131  L 80,132  L 76,132  L 76,133  L 67,133  L 67,134  L 64,134  L 64,133  L 63,133  L 63,134  L 50,134  L 50,128  L 49,128  L 49,116  L 58,116  L 58,115  L 59,115  Z  " style="fill:rgb(0, 0, 0); fill-opacity:1.000; stroke:none;" />
 <path d="  M 86,5  L 85,5  L 85,2  L 83,2  L 83,1  L 80,1  L 80,5  L 79,5  L 79,53  L 78,53  L 78,55  L 66,55  L 66,56  L 63,56  L 63,57  L 54,57  L 54,58  L 51,58  L 51,59  L 49,59  L 49,60  L 47,60  L 47,61  L 46,61  L 46,62  L 49,62  L 49,63  L 53,63  L 53,62  L 54,62  L 54,63  L 63,63  L 63,62  L 66,62  L 66,61  L 67,61  L 67,62  L 68,62  L 68,61  L 76,61  L 76,60  L 77,60  L 77,61  L 79,61  L 79,78  L 80,78  L 80,81  L 81,81  L 81,82  L 84,82  L 84,81  L 85,81  L 85,78  L 86,78  L 86,77  L 85,77  L 85,75  L 86,75  L 86,9  L 85,9  L 85,8  L 86,8  Z  " style="fill:rgb(0, 0, 0); fill-opacity:1.000; stroke:none;" />
 <path d="  M 99,30  L 100,30  L 100,33  L 99,33  L 99,34  L 100,34  L 100,41  L 99,41  L 99,42  L 100,42  L 100,45  L 99,45  L 99,46  L 100,46  L 100,49  L 99,49  L 99,50  L 100,50  L 100,53  L 99,53  L 99,54  L 100,54  L 100,57  L 99,57  L 99,58  L 100,58  L 100,61  L 99,61  L 99,62  L 100,62  L 100,65  L 99,65  L 99,66  L 100,66  L 100,69  L 99,69  L 99,70  L 100,70  L 100,73  L 99,73  L 99,74  L 100,74  L 100,77  L 99,77  L 99,85  L 98,85  L 98,86  L 99,86  L 99,87  L 102,87  L 102,86  L 103,86  L 103,85  L 104,85  L 104,83  L 105,83  L 105,5  L 104,5  L 104,3  L 103,3  L 103,2  L 101,2  L 101,3  L 99,3  L 99,6  L 98,6  L 98,14  L 99,14  Z  " style="fill:rgb(0, 0, 0); fill-opacity:1.000; stroke:none;" />
</svg>
