<?xml version="1.0" encoding="UTF-8" standalone="no"?>
<!DOCTYPE svg PUBLIC "-//W3C//DTD SVG 1.1//EN" 
  "http://www.w3.org/Graphics/SVG/1.1/DTD/svg11.dtd">
<svg width="102" height="154"
     xmlns="http://www.w3.org/2000/svg" version="1.1">
 <path d="  M 65,14  L 65,20  L 64,20  L 64,28  L 63,28  L 63,34  L 62,34  L 62,42  L 61,42  L 61,47  L 60,47  L 60,53  L 61,53  L 61,56  L 57,56  L 57,57  L 49,57  L 49,58  L 48,58  L 48,57  L 47,57  L 47,58  L 46,58  L 46,57  L 45,57  L 45,58  L 44,58  L 44,57  L 31,57  L 31,56  L 30,56  L 30,57  L 27,57  L 27,56  L 24,56  L 24,57  L 18,57  L 18,58  L 14,58  L 14,59  L 11,59  L 11,60  L 8,60  L 8,61  L 5,61  L 5,62  L 4,62  L 4,63  L 2,63  L 2,64  L 1,64  L 1,69  L 6,69  L 6,68  L 9,68  L 9,67  L 14,67  L 14,66  L 17,66  L 17,65  L 21,65  L 21,64  L 34,64  L 34,65  L 39,65  L 39,69  L 38,69  L 38,74  L 37,74  L 37,79  L 36,79  L 36,83  L 35,83  L 35,86  L 34,86  L 34,90  L 33,90  L 33,91  L 35,91  L 35,92  L 36,92  L 36,91  L 37,91  L 37,90  L 38,90  L 38,89  L 40,89  L 40,88  L 41,88  L 41,87  L 42,87  L 42,83  L 43,83  L 43,78  L 44,78  L 44,72  L 45,72  L 45,71  L 44,71  L 44,67  L 43,67  L 43,66  L 45,66  L 45,65  L 51,65  L 51,64  L 52,64  L 52,65  L 53,65  L 53,64  L 57,64  L 57,63  L 64,63  L 64,62  L 65,62  L 65,63  L 66,63  L 66,62  L 71,62  L 71,61  L 72,61  L 72,62  L 73,62  L 73,61  L 78,61  L 78,60  L 81,60  L 81,59  L 82,59  L 82,56  L 83,56  L 83,55  L 82,55  L 82,53  L 77,53  L 77,54  L 67,54  L 67,53  L 68,53  L 68,47  L 69,47  L 69,46  L 68,46  L 68,43  L 69,43  L 69,42  L 68,42  L 68,41  L 69,41  L 69,36  L 70,36  L 70,29  L 71,29  L 71,25  L 72,25  L 72,19  L 73,19  L 73,18  L 72,18  L 72,15  L 73,15  L 73,14  L 72,14  L 72,11  L 71,11  L 71,10  L 70,10  L 70,9  L 69,9  L 69,8  L 67,8  L 67,7  L 65,7  L 65,6  L 58,6  L 58,7  L 50,7  L 50,8  L 49,8  L 49,7  L 41,7  L 41,12  L 42,12  L 42,14  L 44,14  L 44,15  L 47,15  L 47,14  Z  " style="fill:rgb(0, 0, 0); fill-opacity:1.000; stroke:none;" />
 <path d="  M 30,22  L 29,22  L 29,27  L 28,27  L 28,32  L 27,32  L 27,34  L 26,34  L 26,40  L 25,40  L 25,51  L 26,51  L 26,53  L 27,53  L 27,52  L 30,52  L 30,51  L 31,51  L 31,49  L 32,49  L 32,40  L 33,40  L 33,33  L 34,33  L 34,29  L 35,29  L 35,27  L 36,27  L 36,26  L 35,26  L 35,25  L 36,25  L 36,19  L 37,19  L 37,9  L 36,9  L 36,8  L 35,8  L 35,7  L 34,7  L 34,6  L 31,6  L 31,5  L 26,5  L 26,6  L 14,6  L 14,7  L 11,7  L 11,8  L 4,8  L 4,9  L 3,9  L 3,13  L 4,13  L 4,15  L 6,15  L 6,16  L 8,16  L 8,15  L 11,15  L 11,14  L 13,14  L 13,13  L 18,13  L 18,12  L 30,12  L 30,14  L 31,14  L 31,16  L 30,16  Z  " style="fill:rgb(0, 0, 0); fill-opacity:1.000; stroke:none;" />
 <path d="  M 46,142  L 45,142  L 45,135  L 44,135  L 44,131  L 43,131  L 43,128  L 44,128  L 44,127  L 70,127  L 70,126  L 72,126  L 72,127  L 74,127  L 74,126  L 76,126  L 76,127  L 78,127  L 78,126  L 81,126  L 81,127  L 82,127  L 82,126  L 84,126  L 84,128  L 85,128  L 85,130  L 84,130  L 84,140  L 83,140  L 83,143  L 82,143  L 82,145  L 79,145  L 79,146  L 74,146  L 74,147  L 68,147  L 68,148  L 61,148  L 61,149  L 59,149  L 59,148  L 58,148  L 58,149  L 50,149  L 50,148  L 48,148  L 48,147  L 47,147  L 47,146  L 46,146  L 46,145  L 47,145  L 47,144  L 46,144  Z  M 44,104  L 43,104  L 43,102  L 39,102  L 39,103  L 38,103  L 38,105  L 37,105  L 37,127  L 38,127  L 38,136  L 39,136  L 39,137  L 38,137  L 38,139  L 39,139  L 39,146  L 40,146  L 40,149  L 41,149  L 41,151  L 42,151  L 42,152  L 43,152  L 43,153  L 44,153  L 44,154  L 71,154  L 71,153  L 75,153  L 75,152  L 76,152  L 76,153  L 77,153  L 77,152  L 79,152  L 79,151  L 81,151  L 81,150  L 84,150  L 84,149  L 86,149  L 86,148  L 88,148  L 88,147  L 89,147  L 89,144  L 90,144  L 90,136  L 91,136  L 91,128  L 92,128  L 92,124  L 93,124  L 93,103  L 94,103  L 94,102  L 93,102  L 93,101  L 92,101  L 92,100  L 91,100  L 91,99  L 89,99  L 89,100  L 88,100  L 88,101  L 87,101  L 87,119  L 86,119  L 86,120  L 43,120  L 43,116  L 44,116  Z  " style="fill:rgb(0, 0, 0); fill-opacity:1.000; stroke:none;" />
 <path d="  M 102,24  L 101,24  L 101,14  L 100,14  L 100,7  L 99,7  L 99,3  L 98,3  L 98,2  L 97,2  L 97,1  L 96,1  L 96,0  L 94,0  L 94,1  L 93,1  L 93,11  L 94,11  L 94,17  L 95,17  L 95,26  L 96,26  L 96,46  L 97,46  L 97,47  L 96,47  L 96,91  L 95,91  L 95,93  L 96,93  L 96,94  L 99,94  L 99,93  L 101,93  L 101,91  L 102,91  Z  " style="fill:rgb(0, 0, 0); fill-opacity:1.000; stroke:none;" />
</svg>
