<?xml version="1.0" encoding="UTF-8" standalone="no"?>
<!DOCTYPE svg PUBLIC "-//W3C//DTD SVG 1.1//EN" 
  "http://www.w3.org/Graphics/SVG/1.1/DTD/svg11.dtd">
<svg width="105" height="141"
     xmlns="http://www.w3.org/2000/svg" version="1.1">
 <path d="  M 103,70  L 102,70  L 102,69  L 101,69  L 101,70  L 97,70  L 97,71  L 83,71  L 83,72  L 82,72  L 82,71  L 79,71  L 79,72  L 78,72  L 78,71  L 77,71  L 77,72  L 60,72  L 60,73  L 59,73  L 59,72  L 56,72  L 56,73  L 53,73  L 53,72  L 52,72  L 52,73  L 19,73  L 19,74  L 18,74  L 18,73  L 17,73  L 17,74  L 16,74  L 16,73  L 15,73  L 15,74  L 14,74  L 14,73  L 13,73  L 13,74  L 10,74  L 10,73  L 9,73  L 9,74  L 8,74  L 8,75  L 4,75  L 4,76  L 2,76  L 2,77  L 1,77  L 1,78  L 0,78  L 0,80  L 1,80  L 1,81  L 2,81  L 2,82  L 4,82  L 4,83  L 6,83  L 6,82  L 19,82  L 19,81  L 20,81  L 20,82  L 23,82  L 23,81  L 24,81  L 24,82  L 27,82  L 27,81  L 28,81  L 28,82  L 39,82  L 39,81  L 40,81  L 40,82  L 41,82  L 41,81  L 44,81  L 44,82  L 45,82  L 45,81  L 48,81  L 48,82  L 49,82  L 49,81  L 58,81  L 58,80  L 70,80  L 70,79  L 71,79  L 71,80  L 72,80  L 72,79  L 73,79  L 73,80  L 74,80  L 74,79  L 90,79  L 90,78  L 91,78  L 91,79  L 94,79  L 94,78  L 95,78  L 95,79  L 96,79  L 96,78  L 105,78  L 105,70  L 104,70  L 104,69  L 103,69  Z  " style="fill:rgb(0, 0, 0); fill-opacity:1.000; stroke:none;" />
 <path d="  M 42,19  L 42,16  L 43,16  L 43,14  L 44,14  L 44,12  L 45,12  L 45,10  L 46,10  L 46,6  L 45,6  L 45,5  L 44,5  L 44,4  L 42,4  L 42,3  L 39,3  L 39,2  L 38,2  L 38,1  L 25,1  L 25,2  L 21,2  L 21,3  L 16,3  L 16,4  L 13,4  L 13,5  L 11,5  L 11,8  L 10,8  L 10,12  L 11,12  L 11,13  L 14,13  L 14,12  L 16,12  L 16,11  L 19,11  L 19,10  L 22,10  L 22,9  L 29,9  L 29,8  L 37,8  L 37,9  L 38,9  L 38,11  L 37,11  L 37,13  L 36,13  L 36,15  L 35,15  L 35,17  L 34,17  L 34,20  L 33,20  L 33,23  L 32,23  L 32,27  L 31,27  L 31,35  L 30,35  L 30,36  L 31,36  L 31,37  L 30,37  L 30,52  L 31,52  L 31,57  L 32,57  L 32,60  L 33,60  L 33,62  L 34,62  L 34,64  L 35,64  L 35,65  L 36,65  L 36,66  L 41,66  L 41,64  L 42,64  L 42,63  L 41,63  L 41,59  L 40,59  L 40,53  L 39,53  L 39,45  L 38,45  L 38,44  L 39,44  L 39,42  L 38,42  L 38,28  L 39,28  L 39,26  L 40,26  L 40,25  L 39,25  L 39,24  L 40,24  L 40,21  L 41,21  L 41,19  Z  " style="fill:rgb(0, 0, 0); fill-opacity:1.000; stroke:none;" />
 <path d="  M 26,135  L 27,135  L 27,139  L 28,139  L 28,140  L 30,140  L 30,141  L 54,141  L 54,140  L 55,140  L 55,141  L 56,141  L 56,140  L 61,140  L 61,139  L 68,139  L 68,138  L 78,138  L 78,137  L 84,137  L 84,136  L 89,136  L 89,135  L 93,135  L 93,134  L 95,134  L 95,133  L 97,133  L 97,132  L 98,132  L 98,131  L 99,131  L 99,129  L 98,129  L 98,128  L 97,128  L 97,127  L 95,127  L 95,128  L 89,128  L 89,129  L 84,129  L 84,130  L 78,130  L 78,131  L 72,131  L 72,132  L 64,132  L 64,133  L 57,133  L 57,134  L 54,134  L 54,133  L 53,133  L 53,134  L 50,134  L 50,135  L 44,135  L 44,136  L 42,136  L 42,135  L 41,135  L 41,136  L 38,136  L 38,135  L 37,135  L 37,136  L 35,136  L 35,134  L 34,134  L 34,131  L 33,131  L 33,103  L 34,103  L 34,93  L 30,93  L 30,94  L 28,94  L 28,95  L 27,95  L 27,96  L 26,96  L 26,121  L 25,121  L 25,122  L 26,122  L 26,125  L 25,125  L 25,126  L 26,126  Z  " style="fill:rgb(0, 0, 0); fill-opacity:1.000; stroke:none;" />
 <path d="  M 74,52  L 75,52  L 75,57  L 76,57  L 76,60  L 77,60  L 77,61  L 78,61  L 78,62  L 79,62  L 79,61  L 81,61  L 81,60  L 82,60  L 82,55  L 81,55  L 81,27  L 82,27  L 82,21  L 83,21  L 83,6  L 82,6  L 82,4  L 81,4  L 81,1  L 78,1  L 78,0  L 77,0  L 77,1  L 65,1  L 65,2  L 51,2  L 51,3  L 50,3  L 50,5  L 49,5  L 49,7  L 50,7  L 50,8  L 51,8  L 51,9  L 69,9  L 69,8  L 71,8  L 71,9  L 73,9  L 73,8  L 75,8  L 75,9  L 77,9  L 77,11  L 76,11  L 76,19  L 75,19  L 75,23  L 74,23  L 74,33  L 73,33  L 73,44  L 74,44  Z  " style="fill:rgb(0, 0, 0); fill-opacity:1.000; stroke:none;" />
</svg>
