<?xml version="1.0" encoding="UTF-8" standalone="no"?>
<!DOCTYPE svg PUBLIC "-//W3C//DTD SVG 1.1//EN" 
  "http://www.w3.org/Graphics/SVG/1.1/DTD/svg11.dtd">
<svg width="104" height="137"
     xmlns="http://www.w3.org/2000/svg" version="1.1">
 <path d="  M 0,64  L 2,64  L 2,65  L 3,65  L 3,66  L 6,66  L 6,67  L 10,67  L 10,66  L 14,66  L 14,65  L 22,65  L 22,64  L 35,64  L 35,63  L 36,63  L 36,64  L 38,64  L 38,63  L 40,63  L 40,64  L 42,64  L 42,63  L 44,63  L 44,64  L 46,64  L 46,63  L 48,63  L 48,64  L 50,64  L 50,63  L 52,63  L 52,64  L 54,64  L 54,63  L 55,63  L 55,64  L 58,64  L 58,63  L 59,63  L 59,64  L 62,64  L 62,63  L 63,63  L 63,64  L 66,64  L 66,63  L 68,63  L 68,64  L 70,64  L 70,63  L 72,63  L 72,64  L 74,64  L 74,63  L 76,63  L 76,64  L 78,64  L 78,63  L 79,63  L 79,64  L 103,64  L 103,63  L 104,63  L 104,56  L 103,56  L 103,57  L 101,57  L 101,56  L 98,56  L 98,55  L 97,55  L 97,56  L 94,56  L 94,55  L 93,55  L 93,56  L 90,56  L 90,55  L 89,55  L 89,56  L 86,56  L 86,55  L 85,55  L 85,56  L 70,56  L 70,55  L 69,55  L 69,56  L 66,56  L 66,55  L 65,55  L 65,56  L 62,56  L 62,55  L 61,55  L 61,56  L 58,56  L 58,55  L 57,55  L 57,56  L 54,56  L 54,55  L 53,55  L 53,56  L 50,56  L 50,55  L 49,55  L 49,56  L 46,56  L 46,55  L 45,55  L 45,56  L 42,56  L 42,55  L 41,55  L 41,56  L 31,56  L 31,57  L 23,57  L 23,58  L 22,58  L 22,57  L 20,57  L 20,58  L 14,58  L 14,59  L 8,59  L 8,60  L 6,60  L 6,59  L 5,59  L 5,60  L 3,60  L 3,59  L 1,59  L 1,61  L 0,61  Z  " style="fill:rgb(0, 0, 0); fill-opacity:1.000; stroke:none;" />
 <path d="  M 23,104  L 23,105  L 21,105  L 21,106  L 19,106  L 19,107  L 17,107  L 17,108  L 14,108  L 14,109  L 11,109  L 11,110  L 10,110  L 10,111  L 8,111  L 8,113  L 7,113  L 7,114  L 6,114  L 6,115  L 5,115  L 5,119  L 4,119  L 4,127  L 5,127  L 5,130  L 6,130  L 6,131  L 7,131  L 7,132  L 6,132  L 6,133  L 7,133  L 7,134  L 10,134  L 10,135  L 12,135  L 12,136  L 14,136  L 14,137  L 42,137  L 42,136  L 48,136  L 48,135  L 56,135  L 56,134  L 58,134  L 58,132  L 59,132  L 59,131  L 58,131  L 58,127  L 57,127  L 57,126  L 53,126  L 53,127  L 51,127  L 51,128  L 50,128  L 50,129  L 45,129  L 45,130  L 44,130  L 44,129  L 43,129  L 43,130  L 42,130  L 42,129  L 41,129  L 41,130  L 36,130  L 36,131  L 33,131  L 33,130  L 32,130  L 32,131  L 17,131  L 17,130  L 14,130  L 14,129  L 12,129  L 12,127  L 11,127  L 11,120  L 12,120  L 12,118  L 13,118  L 13,117  L 14,117  L 14,116  L 16,116  L 16,115  L 17,115  L 17,114  L 20,114  L 20,113  L 22,113  L 22,112  L 26,112  L 26,111  L 29,111  L 29,110  L 30,110  L 30,109  L 32,109  L 32,108  L 36,108  L 36,107  L 38,107  L 38,106  L 40,106  L 40,105  L 41,105  L 41,104  L 42,104  L 42,103  L 44,103  L 44,102  L 45,102  L 45,101  L 46,101  L 46,99  L 47,99  L 47,93  L 48,93  L 48,91  L 46,91  L 46,90  L 44,90  L 44,89  L 43,89  L 43,88  L 42,88  L 42,87  L 41,87  L 41,86  L 40,86  L 40,85  L 38,85  L 38,84  L 37,84  L 37,83  L 29,83  L 29,82  L 28,82  L 28,83  L 17,83  L 17,84  L 11,84  L 11,85  L 9,85  L 9,86  L 8,86  L 8,87  L 7,87  L 7,90  L 8,90  L 8,93  L 11,93  L 11,94  L 12,94  L 12,93  L 13,93  L 13,92  L 15,92  L 15,91  L 16,91  L 16,90  L 20,90  L 20,89  L 32,89  L 32,90  L 34,90  L 34,91  L 37,91  L 37,92  L 38,92  L 38,97  L 36,97  L 36,100  L 35,100  L 35,101  L 32,101  L 32,102  L 30,102  L 30,103  L 27,103  L 27,104  L 25,104  L 25,105  L 24,105  L 24,104  Z  " style="fill:rgb(0, 0, 0); fill-opacity:1.000; stroke:none;" />
 <path d="  M 33,50  L 34,50  L 34,51  L 35,51  L 35,52  L 38,52  L 38,51  L 39,51  L 39,50  L 40,50  L 40,40  L 41,40  L 41,39  L 40,39  L 40,38  L 41,38  L 41,32  L 42,32  L 42,26  L 43,26  L 43,22  L 44,22  L 44,18  L 45,18  L 45,15  L 46,15  L 46,13  L 47,13  L 47,8  L 48,8  L 48,7  L 47,7  L 47,4  L 46,4  L 46,5  L 45,5  L 45,4  L 43,4  L 43,3  L 40,3  L 40,2  L 31,2  L 31,3  L 23,3  L 23,4  L 22,4  L 22,3  L 21,3  L 21,4  L 18,4  L 18,5  L 17,5  L 17,4  L 16,4  L 16,5  L 13,5  L 13,6  L 11,6  L 11,7  L 10,7  L 10,9  L 9,9  L 9,10  L 8,10  L 8,11  L 9,11  L 9,12  L 10,12  L 10,13  L 11,13  L 11,12  L 12,12  L 12,13  L 13,13  L 13,12  L 14,12  L 14,13  L 15,13  L 15,12  L 18,12  L 18,11  L 20,11  L 20,10  L 24,10  L 24,9  L 40,9  L 40,13  L 39,13  L 39,15  L 38,15  L 38,18  L 37,18  L 37,21  L 36,21  L 36,25  L 35,25  L 35,29  L 34,29  L 34,35  L 33,35  Z  " style="fill:rgb(0, 0, 0); fill-opacity:1.000; stroke:none;" />
 <path d="  M 80,16  L 81,16  L 81,15  L 80,15  L 80,14  L 81,14  L 81,13  L 80,13  L 80,12  L 81,12  L 81,2  L 80,2  L 80,1  L 70,1  L 70,2  L 64,2  L 64,3  L 54,3  L 54,4  L 52,4  L 52,7  L 53,7  L 53,9  L 54,9  L 54,10  L 58,10  L 58,9  L 66,9  L 66,8  L 67,8  L 67,9  L 68,9  L 68,8  L 74,8  L 74,9  L 73,9  L 73,31  L 72,31  L 72,32  L 73,32  L 73,35  L 72,35  L 72,36  L 73,36  L 73,49  L 74,49  L 74,50  L 79,50  L 79,49  L 80,49  Z  " style="fill:rgb(0, 0, 0); fill-opacity:1.000; stroke:none;" />
 <path d="  M 79,128  L 79,129  L 76,129  L 76,130  L 74,130  L 74,131  L 71,131  L 71,130  L 70,130  L 70,126  L 69,126  L 69,121  L 68,121  L 68,117  L 67,117  L 67,116  L 68,116  L 68,115  L 67,115  L 67,109  L 66,109  L 66,104  L 67,104  L 67,103  L 66,103  L 66,102  L 67,102  L 67,101  L 66,101  L 66,100  L 67,100  L 67,99  L 66,99  L 66,98  L 67,98  L 67,94  L 68,94  L 68,93  L 92,93  L 92,94  L 93,94  L 93,95  L 92,95  L 92,96  L 93,96  L 93,99  L 92,99  L 92,108  L 91,108  L 91,111  L 90,111  L 90,114  L 89,114  L 89,116  L 88,116  L 88,117  L 87,117  L 87,119  L 86,119  L 86,120  L 85,120  L 85,123  L 84,123  L 84,124  L 83,124  L 83,125  L 82,125  L 82,126  L 81,126  L 81,127  L 80,127  L 80,128  Z  M 60,114  L 61,114  L 61,120  L 62,120  L 62,123  L 63,123  L 63,126  L 64,126  L 64,133  L 65,133  L 65,135  L 66,135  L 66,136  L 68,136  L 68,137  L 69,137  L 69,136  L 77,136  L 77,135  L 81,135  L 81,134  L 82,134  L 82,133  L 85,133  L 85,132  L 86,132  L 86,131  L 87,131  L 87,130  L 88,130  L 88,129  L 89,129  L 89,128  L 90,128  L 90,127  L 91,127  L 91,125  L 92,125  L 92,124  L 93,124  L 93,123  L 94,123  L 94,121  L 95,121  L 95,118  L 96,118  L 96,116  L 97,116  L 97,113  L 98,113  L 98,110  L 99,110  L 99,108  L 100,108  L 100,99  L 99,99  L 99,95  L 98,95  L 98,91  L 97,91  L 97,87  L 95,87  L 95,86  L 90,86  L 90,85  L 87,85  L 87,86  L 86,86  L 86,85  L 83,85  L 83,86  L 82,86  L 82,85  L 79,85  L 79,86  L 78,86  L 78,85  L 63,85  L 63,86  L 62,86  L 62,85  L 60,85  L 60,86  L 59,86  L 59,87  L 55,87  L 55,89  L 54,89  L 54,88  L 53,88  L 53,89  L 52,89  L 52,90  L 58,90  L 58,91  L 59,91  L 59,108  L 60,108  L 60,109  L 59,109  L 59,110  L 60,110  Z  " style="fill:rgb(0, 0, 0); fill-opacity:1.000; stroke:none;" />
</svg>
