<?xml version="1.0" encoding="UTF-8" standalone="no"?>
<!DOCTYPE svg PUBLIC "-//W3C//DTD SVG 1.1//EN" 
  "http://www.w3.org/Graphics/SVG/1.1/DTD/svg11.dtd">
<svg width="99" height="139"
     xmlns="http://www.w3.org/2000/svg" version="1.1">
 <path d="  M 29,67  L 29,66  L 90,66  L 90,67  L 96,67  L 96,66  L 97,66  L 97,64  L 98,64  L 98,62  L 99,62  L 99,61  L 98,61  L 98,60  L 97,60  L 97,59  L 55,59  L 55,58  L 54,58  L 54,59  L 53,59  L 53,58  L 50,58  L 50,59  L 49,59  L 49,58  L 42,58  L 42,59  L 41,59  L 41,58  L 39,58  L 39,59  L 26,59  L 26,60  L 25,60  L 25,59  L 23,59  L 23,60  L 17,60  L 17,61  L 12,61  L 12,62  L 9,62  L 9,63  L 6,63  L 6,64  L 5,64  L 5,63  L 4,63  L 4,64  L 1,64  L 1,65  L 0,65  L 0,68  L 1,68  L 1,69  L 3,69  L 3,70  L 10,70  L 10,69  L 15,69  L 15,68  L 19,68  L 19,67  Z  " style="fill:rgb(0, 0, 0); fill-opacity:1.000; stroke:none;" />
 <path d="  M 20,9  L 20,8  L 22,8  L 22,9  L 24,9  L 24,8  L 32,8  L 32,11  L 31,11  L 31,14  L 30,14  L 30,15  L 29,15  L 29,20  L 28,20  L 28,25  L 27,25  L 27,31  L 26,31  L 26,32  L 27,32  L 27,35  L 26,35  L 26,38  L 27,38  L 27,39  L 26,39  L 26,42  L 27,42  L 27,52  L 28,52  L 28,54  L 30,54  L 30,55  L 33,55  L 33,54  L 34,54  L 34,53  L 35,53  L 35,47  L 34,47  L 34,46  L 35,46  L 35,45  L 34,45  L 34,34  L 35,34  L 35,33  L 34,33  L 34,31  L 35,31  L 35,24  L 36,24  L 36,20  L 37,20  L 37,18  L 38,18  L 38,17  L 37,17  L 37,16  L 38,16  L 38,14  L 39,14  L 39,12  L 40,12  L 40,7  L 41,7  L 41,6  L 40,6  L 40,4  L 38,4  L 38,3  L 36,3  L 36,2  L 34,2  L 34,1  L 33,1  L 33,0  L 32,0  L 32,1  L 31,1  L 31,0  L 28,0  L 28,1  L 20,1  L 20,2  L 18,2  L 18,1  L 17,1  L 17,2  L 14,2  L 14,3  L 10,3  L 10,4  L 5,4  L 5,5  L 4,5  L 4,6  L 3,6  L 3,7  L 2,7  L 2,8  L 3,8  L 3,10  L 4,10  L 4,11  L 7,11  L 7,12  L 8,12  L 8,11  L 11,11  L 11,10  L 14,10  L 14,9  Z  " style="fill:rgb(0, 0, 0); fill-opacity:1.000; stroke:none;" />
 <path d="  M 60,116  L 60,115  L 63,115  L 63,114  L 64,114  L 64,113  L 65,113  L 65,112  L 67,112  L 67,111  L 69,111  L 69,110  L 71,110  L 71,109  L 72,109  L 72,108  L 79,108  L 79,107  L 80,107  L 80,102  L 79,102  L 79,101  L 73,101  L 73,102  L 68,102  L 68,103  L 66,103  L 66,104  L 64,104  L 64,105  L 62,105  L 62,106  L 61,106  L 61,107  L 59,107  L 59,108  L 57,108  L 57,109  L 56,109  L 56,110  L 53,110  L 53,111  L 50,111  L 50,112  L 46,112  L 46,113  L 40,113  L 40,114  L 38,114  L 38,113  L 36,113  L 36,114  L 30,114  L 30,113  L 29,113  L 29,112  L 28,112  L 28,104  L 29,104  L 29,101  L 28,101  L 28,96  L 29,96  L 29,94  L 30,94  L 30,93  L 31,93  L 31,94  L 32,94  L 32,93  L 41,93  L 41,92  L 59,92  L 59,91  L 60,91  L 60,92  L 73,92  L 73,93  L 74,93  L 74,92  L 75,92  L 75,93  L 76,93  L 76,92  L 77,92  L 77,91  L 78,91  L 78,90  L 79,90  L 79,89  L 78,89  L 78,87  L 77,87  L 77,85  L 76,85  L 76,84  L 43,84  L 43,85  L 34,85  L 34,86  L 33,86  L 33,85  L 32,85  L 32,86  L 29,86  L 29,85  L 28,85  L 28,86  L 26,86  L 26,87  L 23,87  L 23,88  L 22,88  L 22,89  L 21,89  L 21,91  L 20,91  L 20,92  L 21,92  L 21,122  L 22,122  L 22,124  L 21,124  L 21,125  L 22,125  L 22,128  L 23,128  L 23,133  L 24,133  L 24,134  L 25,134  L 25,135  L 26,135  L 26,136  L 27,136  L 27,138  L 29,138  L 29,139  L 57,139  L 57,138  L 63,138  L 63,137  L 68,137  L 68,136  L 72,136  L 72,135  L 73,135  L 73,134  L 77,134  L 77,133  L 80,133  L 80,132  L 81,132  L 81,131  L 82,131  L 82,130  L 83,130  L 83,129  L 84,129  L 84,128  L 85,128  L 85,127  L 86,127  L 86,123  L 85,123  L 85,122  L 84,122  L 84,123  L 81,123  L 81,124  L 80,124  L 80,125  L 76,125  L 76,126  L 74,126  L 74,127  L 71,127  L 71,128  L 69,128  L 69,129  L 66,129  L 66,130  L 63,130  L 63,131  L 58,131  L 58,132  L 51,132  L 51,133  L 36,133  L 36,132  L 33,132  L 33,131  L 31,131  L 31,122  L 32,122  L 32,121  L 34,121  L 34,122  L 35,122  L 35,121  L 36,121  L 36,120  L 41,120  L 41,119  L 42,119  L 42,120  L 43,120  L 43,119  L 44,119  L 44,120  L 45,120  L 45,119  L 48,119  L 48,118  L 49,118  L 49,119  L 50,119  L 50,118  L 53,118  L 53,117  L 57,117  L 57,116  Z  " style="fill:rgb(0, 0, 0); fill-opacity:1.000; stroke:none;" />
 <path d="  M 72,52  L 72,53  L 73,53  L 73,52  L 76,52  L 76,51  L 77,51  L 77,47  L 76,47  L 76,27  L 77,27  L 77,20  L 78,20  L 78,19  L 77,19  L 77,18  L 78,18  L 78,17  L 77,17  L 77,16  L 78,16  L 78,1  L 77,1  L 77,0  L 75,0  L 75,1  L 68,1  L 68,2  L 66,2  L 66,1  L 65,1  L 65,2  L 61,2  L 61,3  L 46,3  L 46,5  L 45,5  L 45,7  L 46,7  L 46,9  L 48,9  L 48,10  L 53,10  L 53,9  L 54,9  L 54,10  L 57,10  L 57,9  L 58,9  L 58,10  L 60,10  L 60,9  L 71,9  L 71,12  L 70,12  L 70,21  L 69,21  L 69,50  L 70,50  L 70,51  L 71,51  L 71,52  Z  " style="fill:rgb(0, 0, 0); fill-opacity:1.000; stroke:none;" />
</svg>
