<?xml version="1.0" encoding="UTF-8" standalone="no"?>
<!DOCTYPE svg PUBLIC "-//W3C//DTD SVG 1.1//EN" 
  "http://www.w3.org/Graphics/SVG/1.1/DTD/svg11.dtd">
<svg width="103" height="163"
     xmlns="http://www.w3.org/2000/svg" version="1.1">
 <path d="  M 15,68  L 15,66  L 16,66  L 16,64  L 17,64  L 17,63  L 18,63  L 18,61  L 19,61  L 19,59  L 20,59  L 20,57  L 21,57  L 21,56  L 22,56  L 22,54  L 23,54  L 23,51  L 24,51  L 24,49  L 25,49  L 25,48  L 26,48  L 26,46  L 27,46  L 27,44  L 28,44  L 28,42  L 29,42  L 29,40  L 30,40  L 30,39  L 31,39  L 31,37  L 32,37  L 32,35  L 33,35  L 33,33  L 34,33  L 34,29  L 35,29  L 35,23  L 36,23  L 36,22  L 35,22  L 35,18  L 33,18  L 33,17  L 32,17  L 32,16  L 31,16  L 31,15  L 30,15  L 30,14  L 14,14  L 14,15  L 13,15  L 13,14  L 11,14  L 11,15  L 3,15  L 3,16  L 1,16  L 1,17  L 0,17  L 0,20  L 1,20  L 1,21  L 2,21  L 2,22  L 3,22  L 3,23  L 4,23  L 4,22  L 7,22  L 7,23  L 8,23  L 8,22  L 12,22  L 12,21  L 13,21  L 13,22  L 14,22  L 14,21  L 17,21  L 17,22  L 23,22  L 23,21  L 25,21  L 25,22  L 27,22  L 27,28  L 26,28  L 26,31  L 25,31  L 25,33  L 24,33  L 24,36  L 23,36  L 23,38  L 22,38  L 22,39  L 21,39  L 21,40  L 20,40  L 20,42  L 19,42  L 19,44  L 18,44  L 18,47  L 17,47  L 17,49  L 16,49  L 16,51  L 15,51  L 15,53  L 14,53  L 14,55  L 13,55  L 13,57  L 12,57  L 12,58  L 11,58  L 11,60  L 10,60  L 10,62  L 9,62  L 9,63  L 8,63  L 8,64  L 7,64  L 7,65  L 6,65  L 6,66  L 5,66  L 5,67  L 4,67  L 4,68  L 2,68  L 2,70  L 1,70  L 1,71  L 2,71  L 2,72  L 3,72  L 3,73  L 6,73  L 6,74  L 9,74  L 9,73  L 11,73  L 11,72  L 12,72  L 12,71  L 13,71  L 13,69  L 14,69  L 14,68  Z  " style="fill:rgb(0, 0, 0); fill-opacity:1.000; stroke:none;" />
 <path d="  M 38,138  L 36,138  L 36,139  L 34,139  L 34,140  L 33,140  L 33,142  L 32,142  L 32,144  L 31,144  L 31,149  L 30,149  L 30,150  L 31,150  L 31,155  L 32,155  L 32,156  L 33,156  L 33,159  L 32,159  L 32,160  L 33,160  L 33,161  L 34,161  L 34,162  L 38,162  L 38,163  L 68,163  L 68,162  L 72,162  L 72,161  L 76,161  L 76,160  L 78,160  L 78,159  L 82,159  L 82,158  L 84,158  L 84,157  L 87,157  L 87,156  L 91,156  L 91,155  L 94,155  L 94,154  L 96,154  L 96,153  L 97,153  L 97,152  L 99,152  L 99,151  L 100,151  L 100,149  L 101,149  L 101,148  L 100,148  L 100,146  L 94,146  L 94,147  L 91,147  L 91,148  L 89,148  L 89,149  L 87,149  L 87,150  L 83,150  L 83,151  L 81,151  L 81,152  L 77,152  L 77,153  L 74,153  L 74,154  L 71,154  L 71,155  L 67,155  L 67,156  L 61,156  L 61,157  L 60,157  L 60,156  L 59,156  L 59,157  L 52,157  L 52,158  L 51,158  L 51,157  L 43,157  L 43,156  L 40,156  L 40,155  L 39,155  L 39,153  L 38,153  L 38,146  L 39,146  L 39,145  L 40,145  L 40,144  L 42,144  L 42,143  L 43,143  L 43,142  L 45,142  L 45,141  L 47,141  L 47,140  L 50,140  L 50,139  L 53,139  L 53,138  L 54,138  L 54,137  L 57,137  L 57,136  L 60,136  L 60,135  L 63,135  L 63,134  L 68,134  L 68,133  L 71,133  L 71,132  L 75,132  L 75,131  L 77,131  L 77,130  L 80,130  L 80,129  L 83,129  L 83,128  L 85,128  L 85,127  L 86,127  L 86,126  L 87,126  L 87,125  L 88,125  L 88,124  L 89,124  L 89,123  L 90,123  L 90,122  L 91,122  L 91,114  L 90,114  L 90,113  L 89,113  L 89,112  L 88,112  L 88,111  L 87,111  L 87,110  L 85,110  L 85,109  L 84,109  L 84,108  L 81,108  L 81,107  L 80,107  L 80,106  L 75,106  L 75,105  L 72,105  L 72,104  L 68,104  L 68,103  L 60,103  L 60,102  L 59,102  L 59,103  L 56,103  L 56,102  L 55,102  L 55,103  L 52,103  L 52,102  L 51,102  L 51,103  L 48,103  L 48,102  L 47,102  L 47,103  L 44,103  L 44,104  L 39,104  L 39,105  L 38,105  L 38,106  L 37,106  L 37,109  L 38,109  L 38,110  L 47,110  L 47,109  L 65,109  L 65,110  L 69,110  L 69,111  L 73,111  L 73,112  L 74,112  L 74,113  L 77,113  L 77,115  L 79,115  L 79,116  L 81,116  L 81,117  L 82,117  L 82,119  L 81,119  L 81,120  L 80,120  L 80,121  L 79,121  L 79,122  L 77,122  L 77,123  L 75,123  L 75,124  L 72,124  L 72,125  L 70,125  L 70,126  L 67,126  L 67,127  L 63,127  L 63,128  L 59,128  L 59,129  L 56,129  L 56,130  L 52,130  L 52,131  L 51,131  L 51,132  L 49,132  L 49,133  L 48,133  L 48,132  L 47,132  L 47,133  L 46,133  L 46,134  L 43,134  L 43,135  L 41,135  L 41,136  L 39,136  L 39,137  L 38,137  Z  " style="fill:rgb(0, 0, 0); fill-opacity:1.000; stroke:none;" />
 <path d="  M 52,64  L 52,66  L 51,66  L 51,68  L 50,68  L 50,71  L 49,71  L 49,73  L 48,73  L 48,78  L 47,78  L 47,81  L 48,81  L 48,84  L 49,84  L 49,85  L 50,85  L 50,86  L 51,86  L 51,85  L 52,85  L 52,84  L 53,84  L 53,82  L 54,82  L 54,80  L 55,80  L 55,78  L 56,78  L 56,75  L 57,75  L 57,72  L 58,72  L 58,69  L 59,69  L 59,66  L 60,66  L 60,64  L 61,64  L 61,61  L 62,61  L 62,59  L 63,59  L 63,56  L 64,56  L 64,55  L 65,55  L 65,52  L 66,52  L 66,50  L 67,50  L 67,48  L 68,48  L 68,46  L 69,46  L 69,43  L 70,43  L 70,41  L 71,41  L 71,39  L 72,39  L 72,37  L 73,37  L 73,35  L 74,35  L 74,31  L 75,31  L 75,28  L 76,28  L 76,24  L 77,24  L 77,22  L 76,22  L 76,18  L 75,18  L 75,16  L 73,16  L 73,15  L 71,15  L 71,14  L 68,14  L 68,15  L 56,15  L 56,16  L 55,16  L 55,15  L 54,15  L 54,16  L 53,16  L 53,15  L 52,15  L 52,16  L 49,16  L 49,15  L 48,15  L 48,16  L 40,16  L 40,20  L 41,20  L 41,23  L 68,23  L 68,28  L 67,28  L 67,31  L 66,31  L 66,33  L 65,33  L 65,36  L 64,36  L 64,38  L 63,38  L 63,42  L 62,42  L 62,44  L 61,44  L 61,46  L 60,46  L 60,49  L 59,49  L 59,51  L 58,51  L 58,53  L 57,53  L 57,55  L 56,55  L 56,58  L 55,58  L 55,59  L 54,59  L 54,62  L 53,62  L 53,64  Z  " style="fill:rgb(0, 0, 0); fill-opacity:1.000; stroke:none;" />
 <path d="  M 103,2  L 102,2  L 102,1  L 97,1  L 97,2  L 96,2  L 96,99  L 97,99  L 97,100  L 101,100  L 101,99  L 103,99  Z  " style="fill:rgb(0, 0, 0); fill-opacity:1.000; stroke:none;" />
</svg>
