<?xml version="1.0" encoding="UTF-8" standalone="no"?>
<!DOCTYPE svg PUBLIC "-//W3C//DTD SVG 1.1//EN" 
  "http://www.w3.org/Graphics/SVG/1.1/DTD/svg11.dtd">
<svg width="103" height="143"
     xmlns="http://www.w3.org/2000/svg" version="1.1">
 <path d="  M 13,59  L 13,51  L 12,51  L 12,43  L 11,43  L 11,33  L 10,33  L 10,28  L 9,28  L 9,19  L 8,19  L 8,18  L 9,18  L 9,14  L 7,14  L 7,13  L 6,13  L 6,12  L 4,12  L 4,11  L 3,11  L 3,12  L 2,12  L 2,13  L 1,13  L 1,18  L 2,18  L 2,19  L 1,19  L 1,20  L 2,20  L 2,31  L 3,31  L 3,36  L 4,36  L 4,46  L 5,46  L 5,54  L 6,54  L 6,61  L 7,61  L 7,65  L 8,65  L 8,67  L 9,67  L 9,68  L 13,68  L 13,69  L 15,69  L 15,68  L 17,68  L 17,69  L 19,69  L 19,68  L 24,68  L 24,67  L 25,67  L 25,68  L 26,68  L 26,67  L 32,67  L 32,66  L 38,66  L 38,65  L 45,65  L 45,64  L 48,64  L 48,63  L 51,63  L 51,62  L 52,62  L 52,61  L 54,61  L 54,60  L 55,60  L 55,56  L 49,56  L 49,57  L 44,57  L 44,58  L 38,58  L 38,59  L 32,59  L 32,60  L 27,60  L 27,61  L 21,61  L 21,62  L 20,62  L 20,61  L 19,61  L 19,62  L 16,62  L 16,61  L 14,61  L 14,59  Z  " style="fill:rgb(0, 0, 0); fill-opacity:1.000; stroke:none;" />
 <path d="  M 54,143  L 54,141  L 55,141  L 55,129  L 56,129  L 56,120  L 57,120  L 57,119  L 56,119  L 56,118  L 57,118  L 57,114  L 58,114  L 58,113  L 57,113  L 57,112  L 58,112  L 58,111  L 57,111  L 57,108  L 64,108  L 64,107  L 68,107  L 68,106  L 71,106  L 71,105  L 80,105  L 80,106  L 83,106  L 83,107  L 85,107  L 85,117  L 84,117  L 84,118  L 85,118  L 85,119  L 84,119  L 84,123  L 83,123  L 83,126  L 82,126  L 82,130  L 81,130  L 81,135  L 80,135  L 80,141  L 81,141  L 81,143  L 83,143  L 83,142  L 85,142  L 85,141  L 86,141  L 86,140  L 87,140  L 87,136  L 88,136  L 88,135  L 87,135  L 87,134  L 88,134  L 88,129  L 89,129  L 89,125  L 90,125  L 90,121  L 91,121  L 91,116  L 92,116  L 92,115  L 91,115  L 91,114  L 92,114  L 92,106  L 91,106  L 91,103  L 90,103  L 90,102  L 89,102  L 89,101  L 88,101  L 88,100  L 87,100  L 87,99  L 84,99  L 84,98  L 72,98  L 72,99  L 65,99  L 65,100  L 58,100  L 58,101  L 55,101  L 55,104  L 52,104  L 52,102  L 51,102  L 51,101  L 49,101  L 49,100  L 42,100  L 42,99  L 41,99  L 41,100  L 23,100  L 23,101  L 21,101  L 21,100  L 20,100  L 20,101  L 16,101  L 16,104  L 17,104  L 17,105  L 16,105  L 16,106  L 18,106  L 18,107  L 28,107  L 28,106  L 31,106  L 31,107  L 32,107  L 32,106  L 34,106  L 34,107  L 38,107  L 38,108  L 41,108  L 41,107  L 42,107  L 42,108  L 43,108  L 43,107  L 48,107  L 48,108  L 50,108  L 50,119  L 49,119  L 49,120  L 50,120  L 50,121  L 49,121  L 49,134  L 48,134  L 48,136  L 49,136  L 49,137  L 48,137  L 48,140  L 49,140  L 49,143  Z  M 56,105  L 55,105  L 55,104  L 56,104  Z  " style="fill:rgb(0, 0, 0); fill-opacity:1.000; stroke:none;" />
 <path d="  M 70,82  L 71,82  L 71,87  L 72,87  L 72,88  L 73,88  L 73,89  L 74,89  L 74,88  L 76,88  L 76,87  L 77,87  L 77,67  L 76,67  L 76,66  L 77,66  L 77,63  L 76,63  L 76,62  L 77,62  L 77,49  L 76,49  L 76,48  L 77,48  L 77,41  L 79,41  L 79,40  L 82,40  L 82,39  L 101,39  L 101,38  L 102,38  L 102,37  L 103,37  L 103,34  L 102,34  L 102,33  L 100,33  L 100,32  L 95,32  L 95,33  L 94,33  L 94,32  L 93,32  L 93,33  L 86,33  L 86,32  L 85,32  L 85,33  L 79,33  L 79,34  L 78,34  L 78,33  L 77,33  L 77,29  L 76,29  L 76,28  L 77,28  L 77,27  L 76,27  L 76,19  L 75,19  L 75,16  L 76,16  L 76,15  L 75,15  L 75,2  L 74,2  L 74,0  L 70,0  L 70,1  L 69,1  L 69,5  L 68,5  L 68,6  L 69,6  L 69,7  L 68,7  L 68,8  L 69,8  L 69,9  L 68,9  L 68,10  L 69,10  L 69,24  L 70,24  Z  " style="fill:rgb(0, 0, 0); fill-opacity:1.000; stroke:none;" />
</svg>
