<?xml version="1.0" encoding="UTF-8" standalone="no"?>
<!DOCTYPE svg PUBLIC "-//W3C//DTD SVG 1.1//EN" 
  "http://www.w3.org/Graphics/SVG/1.1/DTD/svg11.dtd">
<svg width="100" height="134"
     xmlns="http://www.w3.org/2000/svg" version="1.1">
 <path d="  M 12,57  L 12,55  L 11,55  L 11,50  L 10,50  L 10,44  L 9,44  L 9,36  L 8,36  L 8,33  L 9,33  L 9,32  L 8,32  L 8,14  L 7,14  L 7,13  L 5,13  L 5,12  L 2,12  L 2,14  L 1,14  L 1,16  L 0,16  L 0,17  L 1,17  L 1,30  L 2,30  L 2,31  L 1,31  L 1,33  L 2,33  L 2,41  L 3,41  L 3,42  L 2,42  L 2,43  L 3,43  L 3,48  L 4,48  L 4,59  L 5,59  L 5,61  L 6,61  L 6,63  L 7,63  L 7,64  L 10,64  L 10,65  L 17,65  L 17,64  L 18,64  L 18,65  L 19,65  L 19,64  L 22,64  L 22,63  L 26,63  L 26,62  L 30,62  L 30,61  L 33,61  L 33,60  L 37,60  L 37,59  L 40,59  L 40,58  L 43,58  L 43,57  L 47,57  L 47,56  L 50,56  L 50,55  L 52,55  L 52,54  L 54,54  L 54,53  L 57,53  L 57,52  L 58,52  L 58,51  L 59,51  L 59,47  L 60,47  L 60,46  L 58,46  L 58,45  L 52,45  L 52,46  L 50,46  L 50,47  L 47,47  L 47,48  L 45,48  L 45,49  L 43,49  L 43,50  L 41,50  L 41,51  L 38,51  L 38,52  L 33,52  L 33,53  L 31,53  L 31,54  L 27,54  L 27,55  L 25,55  L 25,56  L 21,56  L 21,57  L 16,57  L 16,58  L 14,58  L 14,57  Z  " style="fill:rgb(0, 0, 0); fill-opacity:1.000; stroke:none;" />
 <path d="  M 26,130  L 26,131  L 27,131  L 27,132  L 28,132  L 28,133  L 30,133  L 30,134  L 49,134  L 49,133  L 50,133  L 50,134  L 51,134  L 51,133  L 58,133  L 58,132  L 67,132  L 67,131  L 79,131  L 79,130  L 84,130  L 84,129  L 85,129  L 85,127  L 86,127  L 86,124  L 85,124  L 85,123  L 80,123  L 80,124  L 79,124  L 79,123  L 78,123  L 78,124  L 69,124  L 69,125  L 67,125  L 67,124  L 66,124  L 66,125  L 62,125  L 62,126  L 53,126  L 53,127  L 43,127  L 43,128  L 34,128  L 34,127  L 33,127  L 33,126  L 32,126  L 32,123  L 31,123  L 31,122  L 32,122  L 32,121  L 31,121  L 31,110  L 30,110  L 30,109  L 31,109  L 31,108  L 30,108  L 30,100  L 29,100  L 29,99  L 30,99  L 30,98  L 29,98  L 29,97  L 30,97  L 30,96  L 29,96  L 29,89  L 30,89  L 30,88  L 29,88  L 29,85  L 24,85  L 24,87  L 23,87  L 23,105  L 24,105  L 24,107  L 23,107  L 23,108  L 24,108  L 24,121  L 25,121  L 25,128  L 26,128  L 26,129  L 27,129  L 27,130  Z  " style="fill:rgb(0, 0, 0); fill-opacity:1.000; stroke:none;" />
 <path d="  M 62,54  L 63,54  L 63,67  L 64,67  L 64,69  L 63,69  L 63,70  L 64,70  L 64,82  L 65,82  L 65,84  L 66,84  L 66,85  L 70,85  L 70,84  L 72,84  L 72,74  L 71,74  L 71,73  L 72,73  L 72,72  L 71,72  L 71,63  L 70,63  L 70,62  L 71,62  L 71,61  L 70,61  L 70,55  L 71,55  L 71,54  L 70,54  L 70,45  L 74,45  L 74,44  L 75,44  L 75,45  L 77,45  L 77,44  L 78,44  L 78,45  L 81,45  L 81,44  L 84,44  L 84,45  L 85,45  L 85,44  L 100,44  L 100,37  L 99,37  L 99,36  L 73,36  L 73,37  L 70,37  L 70,35  L 69,35  L 69,26  L 68,26  L 68,25  L 69,25  L 69,24  L 68,24  L 68,18  L 67,18  L 67,11  L 66,11  L 66,2  L 65,2  L 65,1  L 63,1  L 63,0  L 59,0  L 59,5  L 60,5  L 60,13  L 61,13  L 61,14  L 60,14  L 60,15  L 61,15  L 61,25  L 62,25  L 62,26  L 61,26  L 61,29  L 62,29  L 62,30  L 61,30  L 61,33  L 62,33  L 62,34  L 61,34  L 61,37  L 62,37  L 62,44  L 61,44  L 61,45  L 62,45  L 62,46  L 61,46  L 61,49  L 62,49  Z  " style="fill:rgb(0, 0, 0); fill-opacity:1.000; stroke:none;" />
</svg>
