<?xml version="1.0" encoding="UTF-8" standalone="no"?>
<!DOCTYPE svg PUBLIC "-//W3C//DTD SVG 1.1//EN" 
  "http://www.w3.org/Graphics/SVG/1.1/DTD/svg11.dtd">
<svg width="95" height="144"
     xmlns="http://www.w3.org/2000/svg" version="1.1">
 <path d="  M 13,58  L 12,58  L 12,53  L 11,53  L 11,45  L 10,45  L 10,33  L 9,33  L 9,19  L 8,19  L 8,17  L 9,17  L 9,12  L 8,12  L 8,11  L 7,11  L 7,10  L 6,10  L 6,8  L 4,8  L 4,7  L 3,7  L 3,8  L 1,8  L 1,24  L 2,24  L 2,36  L 3,36  L 3,46  L 4,46  L 4,54  L 5,54  L 5,60  L 6,60  L 6,63  L 7,63  L 7,64  L 6,64  L 6,65  L 7,65  L 7,66  L 8,66  L 8,67  L 10,67  L 10,68  L 12,68  L 12,67  L 13,67  L 13,68  L 22,68  L 22,67  L 27,67  L 27,66  L 30,66  L 30,65  L 35,65  L 35,64  L 39,64  L 39,63  L 43,63  L 43,62  L 45,62  L 45,61  L 48,61  L 48,60  L 50,60  L 50,59  L 51,59  L 51,58  L 52,58  L 52,57  L 53,57  L 53,56  L 54,56  L 54,54  L 55,54  L 55,52  L 54,52  L 54,51  L 53,51  L 53,52  L 51,52  L 51,53  L 48,53  L 48,54  L 45,54  L 45,55  L 42,55  L 42,56  L 38,56  L 38,57  L 34,57  L 34,58  L 30,58  L 30,59  L 27,59  L 27,60  L 22,60  L 22,61  L 14,61  L 14,60  L 13,60  Z  " style="fill:rgb(0, 0, 0); fill-opacity:1.000; stroke:none;" />
 <path d="  M 80,99  L 80,98  L 81,98  L 81,99  L 82,99  L 82,98  L 86,98  L 86,97  L 87,97  L 87,95  L 88,95  L 88,94  L 89,94  L 89,93  L 88,93  L 88,92  L 87,92  L 87,91  L 81,91  L 81,92  L 80,92  L 80,91  L 79,91  L 79,92  L 78,92  L 78,91  L 77,91  L 77,92  L 66,92  L 66,93  L 55,93  L 55,94  L 48,94  L 48,95  L 32,95  L 32,94  L 25,94  L 25,95  L 23,95  L 23,96  L 21,96  L 21,97  L 20,97  L 20,98  L 19,98  L 19,101  L 20,101  L 20,102  L 22,102  L 22,103  L 26,103  L 26,105  L 27,105  L 27,127  L 28,127  L 28,128  L 27,128  L 27,130  L 28,130  L 28,134  L 29,134  L 29,139  L 30,139  L 30,141  L 31,141  L 31,142  L 32,142  L 32,143  L 33,143  L 33,144  L 56,144  L 56,143  L 57,143  L 57,144  L 58,144  L 58,143  L 62,143  L 62,142  L 63,142  L 63,143  L 64,143  L 64,142  L 68,142  L 68,141  L 69,141  L 69,142  L 71,142  L 71,141  L 76,141  L 76,140  L 80,140  L 80,139  L 83,139  L 83,138  L 84,138  L 84,136  L 85,136  L 85,132  L 78,132  L 78,133  L 75,133  L 75,134  L 71,134  L 71,135  L 65,135  L 65,136  L 64,136  L 64,135  L 63,135  L 63,136  L 58,136  L 58,137  L 57,137  L 57,136  L 56,136  L 56,137  L 51,137  L 51,138  L 48,138  L 48,137  L 47,137  L 47,138  L 37,138  L 37,136  L 36,136  L 36,135  L 35,135  L 35,128  L 34,128  L 34,103  L 38,103  L 38,102  L 48,102  L 48,101  L 49,101  L 49,102  L 51,102  L 51,101  L 59,101  L 59,100  L 68,100  L 68,99  Z  " style="fill:rgb(0, 0, 0); fill-opacity:1.000; stroke:none;" />
 <path d="  M 64,20  L 65,20  L 65,21  L 64,21  L 64,22  L 65,22  L 65,39  L 64,39  L 64,51  L 65,51  L 65,52  L 64,52  L 64,55  L 65,55  L 65,56  L 64,56  L 64,59  L 65,59  L 65,86  L 66,86  L 66,88  L 69,88  L 69,87  L 71,87  L 71,85  L 72,85  L 72,54  L 71,54  L 71,53  L 72,53  L 72,46  L 73,46  L 73,45  L 86,45  L 86,44  L 87,44  L 87,45  L 88,45  L 88,44  L 89,44  L 89,45  L 91,45  L 91,44  L 94,44  L 94,43  L 95,43  L 95,37  L 91,37  L 91,38  L 90,38  L 90,37  L 87,37  L 87,38  L 86,38  L 86,37  L 79,37  L 79,38  L 77,38  L 77,37  L 75,37  L 75,38  L 72,38  L 72,31  L 71,31  L 71,30  L 72,30  L 72,29  L 71,29  L 71,11  L 70,11  L 70,10  L 71,10  L 71,8  L 70,8  L 70,2  L 69,2  L 69,1  L 64,1  Z  " style="fill:rgb(0, 0, 0); fill-opacity:1.000; stroke:none;" />
</svg>
