<?xml version="1.0" encoding="UTF-8" standalone="no"?>
<!DOCTYPE svg PUBLIC "-//W3C//DTD SVG 1.1//EN" 
  "http://www.w3.org/Graphics/SVG/1.1/DTD/svg11.dtd">
<svg width="101" height="151"
     xmlns="http://www.w3.org/2000/svg" version="1.1">
 <path d="  M 13,57  L 12,57  L 12,56  L 13,56  L 13,55  L 12,55  L 12,46  L 11,46  L 11,38  L 10,38  L 10,28  L 9,28  L 9,10  L 8,10  L 8,8  L 7,8  L 7,7  L 6,7  L 6,6  L 3,6  L 3,7  L 2,7  L 2,8  L 1,8  L 1,17  L 2,17  L 2,25  L 3,25  L 3,28  L 2,28  L 2,29  L 3,29  L 3,37  L 4,37  L 4,38  L 3,38  L 3,39  L 4,39  L 4,45  L 5,45  L 5,46  L 4,46  L 4,48  L 5,48  L 5,55  L 6,55  L 6,56  L 5,56  L 5,57  L 6,57  L 6,62  L 7,62  L 7,63  L 6,63  L 6,64  L 7,64  L 7,67  L 8,67  L 8,69  L 10,69  L 10,70  L 12,70  L 12,71  L 24,71  L 24,70  L 30,70  L 30,69  L 34,69  L 34,68  L 39,68  L 39,67  L 44,67  L 44,66  L 45,66  L 45,65  L 47,65  L 47,64  L 49,64  L 49,63  L 50,63  L 50,61  L 51,61  L 51,59  L 50,59  L 50,58  L 45,58  L 45,59  L 43,59  L 43,60  L 38,60  L 38,61  L 33,61  L 33,62  L 28,62  L 28,63  L 24,63  L 24,64  L 15,64  L 15,63  L 14,63  L 14,62  L 13,62  Z  " style="fill:rgb(0, 0, 0); fill-opacity:1.000; stroke:none;" />
 <path d="  M 69,142  L 69,143  L 62,143  L 62,144  L 51,144  L 51,145  L 48,145  L 48,144  L 47,144  L 47,145  L 37,145  L 37,144  L 36,144  L 36,136  L 35,136  L 35,135  L 36,135  L 36,134  L 35,134  L 35,109  L 36,109  L 36,108  L 41,108  L 41,107  L 54,107  L 54,106  L 55,106  L 55,107  L 56,107  L 56,106  L 57,106  L 57,107  L 58,107  L 58,106  L 61,106  L 61,107  L 62,107  L 62,106  L 79,106  L 79,118  L 78,118  L 78,119  L 79,119  L 79,120  L 78,120  L 78,128  L 77,128  L 77,133  L 76,133  L 76,136  L 75,136  L 75,139  L 74,139  L 74,141  L 73,141  L 73,142  Z  M 29,145  L 30,145  L 30,149  L 31,149  L 31,151  L 56,151  L 56,150  L 64,150  L 64,149  L 71,149  L 71,148  L 73,148  L 73,147  L 75,147  L 75,146  L 77,146  L 77,145  L 78,145  L 78,144  L 79,144  L 79,143  L 80,143  L 80,141  L 81,141  L 81,137  L 82,137  L 82,136  L 81,136  L 81,135  L 82,135  L 82,133  L 83,133  L 83,127  L 84,127  L 84,123  L 85,123  L 85,113  L 86,113  L 86,107  L 87,107  L 87,102  L 86,102  L 86,100  L 83,100  L 83,99  L 58,99  L 58,100  L 45,100  L 45,101  L 44,101  L 44,100  L 43,100  L 43,101  L 42,101  L 42,100  L 41,100  L 41,101  L 40,101  L 40,100  L 39,100  L 39,101  L 38,101  L 38,100  L 35,100  L 35,99  L 33,99  L 33,98  L 32,98  L 32,97  L 29,97  L 29,96  L 27,96  L 27,97  L 25,97  L 25,98  L 23,98  L 23,99  L 22,99  L 22,100  L 21,100  L 21,103  L 22,103  L 22,105  L 26,105  L 26,106  L 27,106  L 27,107  L 28,107  L 28,114  L 29,114  L 29,115  L 28,115  L 28,117  L 29,117  L 29,118  L 28,118  L 28,121  L 29,121  L 29,123  L 28,123  L 28,125  L 29,125  L 29,127  L 28,127  L 28,129  L 29,129  L 29,131  L 28,131  L 28,133  L 29,133  Z  " style="fill:rgb(0, 0, 0); fill-opacity:1.000; stroke:none;" />
 <path d="  M 66,16  L 67,16  L 67,82  L 68,82  L 68,90  L 69,90  L 69,91  L 74,91  L 74,89  L 75,89  L 75,88  L 74,88  L 74,48  L 75,48  L 75,46  L 77,46  L 77,45  L 81,45  L 81,44  L 101,44  L 101,38  L 100,38  L 100,37  L 92,37  L 92,36  L 91,36  L 91,37  L 89,37  L 89,36  L 87,36  L 87,37  L 84,37  L 84,36  L 83,36  L 83,37  L 81,37  L 81,36  L 80,36  L 80,37  L 77,37  L 77,38  L 75,38  L 75,33  L 74,33  L 74,22  L 73,22  L 73,21  L 74,21  L 74,20  L 73,20  L 73,4  L 72,4  L 72,2  L 71,2  L 71,1  L 70,1  L 70,0  L 69,0  L 69,1  L 67,1  L 67,3  L 66,3  Z  " style="fill:rgb(0, 0, 0); fill-opacity:1.000; stroke:none;" />
</svg>
