<?xml version="1.0" encoding="UTF-8" standalone="no"?>
<!DOCTYPE svg PUBLIC "-//W3C//DTD SVG 1.1//EN" 
  "http://www.w3.org/Graphics/SVG/1.1/DTD/svg11.dtd">
<svg width="100" height="154"
     xmlns="http://www.w3.org/2000/svg" version="1.1">
 <path d="  M 3,9  L 3,10  L 2,10  L 2,11  L 1,11  L 1,26  L 2,26  L 2,37  L 3,37  L 3,49  L 4,49  L 4,61  L 5,61  L 5,69  L 6,69  L 6,71  L 7,71  L 7,73  L 8,73  L 8,74  L 9,74  L 9,75  L 11,75  L 11,76  L 14,76  L 14,77  L 21,77  L 21,76  L 27,76  L 27,75  L 31,75  L 31,74  L 35,74  L 35,73  L 39,73  L 39,72  L 43,72  L 43,71  L 45,71  L 45,70  L 48,70  L 48,69  L 50,69  L 50,68  L 51,68  L 51,67  L 52,67  L 52,66  L 53,66  L 53,65  L 54,65  L 54,60  L 53,60  L 53,61  L 52,61  L 52,60  L 51,60  L 51,61  L 49,61  L 49,62  L 46,62  L 46,63  L 44,63  L 44,64  L 40,64  L 40,65  L 36,65  L 36,66  L 32,66  L 32,67  L 29,67  L 29,68  L 24,68  L 24,69  L 14,69  L 14,68  L 13,68  L 13,65  L 12,65  L 12,60  L 11,60  L 11,48  L 10,48  L 10,34  L 9,34  L 9,24  L 8,24  L 8,21  L 9,21  L 9,20  L 8,20  L 8,19  L 9,19  L 9,17  L 8,17  L 8,16  L 9,16  L 9,12  L 8,12  L 8,10  L 6,10  L 6,9  Z  " style="fill:rgb(0, 0, 0); fill-opacity:1.000; stroke:none;" />
 <path d="  M 26,131  L 25,131  L 25,132  L 26,132  L 26,137  L 27,137  L 27,145  L 28,145  L 28,147  L 27,147  L 27,148  L 28,148  L 28,149  L 29,149  L 29,150  L 30,150  L 30,152  L 31,152  L 31,153  L 32,153  L 32,154  L 57,154  L 57,153  L 58,153  L 58,154  L 60,154  L 60,153  L 64,153  L 64,152  L 66,152  L 66,151  L 67,151  L 67,152  L 68,152  L 68,151  L 69,151  L 69,150  L 72,150  L 72,149  L 73,149  L 73,148  L 75,148  L 75,147  L 76,147  L 76,146  L 77,146  L 77,144  L 78,144  L 78,141  L 79,141  L 79,140  L 78,140  L 78,139  L 79,139  L 79,137  L 80,137  L 80,132  L 81,132  L 81,128  L 82,128  L 82,121  L 83,121  L 83,120  L 82,120  L 82,117  L 83,117  L 83,101  L 82,101  L 82,100  L 79,100  L 79,99  L 78,99  L 78,100  L 77,100  L 77,101  L 76,101  L 76,123  L 69,123  L 69,122  L 68,122  L 68,123  L 65,123  L 65,122  L 64,122  L 64,123  L 61,123  L 61,122  L 60,122  L 60,123  L 57,123  L 57,122  L 56,122  L 56,123  L 53,123  L 53,122  L 52,122  L 52,123  L 49,123  L 49,122  L 48,122  L 48,123  L 45,123  L 45,122  L 44,122  L 44,123  L 41,123  L 41,122  L 40,122  L 40,123  L 33,123  L 33,94  L 31,94  L 31,93  L 29,93  L 29,94  L 27,94  L 27,95  L 26,95  L 26,96  L 25,96  L 25,102  L 26,102  L 26,103  L 25,103  L 25,128  L 26,128  Z  M 72,142  L 71,142  L 71,144  L 69,144  L 69,145  L 65,145  L 65,146  L 62,146  L 62,147  L 55,147  L 55,148  L 54,148  L 54,147  L 53,147  L 53,148  L 52,148  L 52,147  L 51,147  L 51,148  L 50,148  L 50,147  L 49,147  L 49,148  L 36,148  L 36,147  L 34,147  L 34,133  L 33,133  L 33,132  L 34,132  L 34,131  L 35,131  L 35,130  L 74,130  L 74,136  L 73,136  L 73,140  L 72,140  Z  " style="fill:rgb(0, 0, 0); fill-opacity:1.000; stroke:none;" />
 <path d="  M 66,23  L 67,23  L 67,37  L 68,37  L 68,39  L 67,39  L 67,40  L 68,40  L 68,65  L 69,65  L 69,66  L 68,66  L 68,67  L 69,67  L 69,88  L 71,88  L 71,89  L 74,89  L 74,88  L 75,88  L 75,87  L 76,87  L 76,76  L 75,76  L 75,75  L 76,75  L 76,74  L 75,74  L 75,57  L 76,57  L 76,56  L 75,56  L 75,49  L 76,49  L 76,48  L 77,48  L 77,47  L 79,47  L 79,46  L 100,46  L 100,40  L 99,40  L 99,39  L 80,39  L 80,40  L 75,40  L 75,38  L 74,38  L 74,30  L 73,30  L 73,12  L 72,12  L 72,11  L 73,11  L 73,8  L 72,8  L 72,2  L 71,2  L 71,0  L 68,0  L 68,1  L 66,1  Z  " style="fill:rgb(0, 0, 0); fill-opacity:1.000; stroke:none;" />
</svg>
