<?xml version="1.0" encoding="UTF-8" standalone="no"?>
<!DOCTYPE svg PUBLIC "-//W3C//DTD SVG 1.1//EN" 
  "http://www.w3.org/Graphics/SVG/1.1/DTD/svg11.dtd">
<svg width="101" height="144"
     xmlns="http://www.w3.org/2000/svg" version="1.1">
 <path d="  M 13,59  L 13,58  L 12,58  L 12,57  L 11,57  L 11,54  L 10,54  L 10,53  L 11,53  L 11,52  L 10,52  L 10,43  L 9,43  L 9,29  L 8,29  L 8,28  L 9,28  L 9,27  L 8,27  L 8,13  L 7,13  L 7,11  L 6,11  L 6,10  L 5,10  L 5,9  L 2,9  L 2,10  L 1,10  L 1,20  L 2,20  L 2,21  L 1,21  L 1,22  L 2,22  L 2,23  L 1,23  L 1,24  L 2,24  L 2,41  L 3,41  L 3,54  L 4,54  L 4,60  L 5,60  L 5,62  L 6,62  L 6,64  L 7,64  L 7,65  L 8,65  L 8,66  L 15,66  L 15,67  L 16,67  L 16,66  L 22,66  L 22,65  L 28,65  L 28,64  L 31,64  L 31,63  L 34,63  L 34,62  L 38,62  L 38,61  L 43,61  L 43,60  L 47,60  L 47,59  L 50,59  L 50,58  L 52,58  L 52,57  L 53,57  L 53,56  L 55,56  L 55,55  L 56,55  L 56,54  L 57,54  L 57,53  L 58,53  L 58,52  L 59,52  L 59,51  L 60,51  L 60,48  L 55,48  L 55,49  L 52,49  L 52,50  L 50,50  L 50,51  L 48,51  L 48,52  L 46,52  L 46,53  L 43,53  L 43,54  L 40,54  L 40,55  L 36,55  L 36,56  L 32,56  L 32,57  L 27,57  L 27,58  L 24,58  L 24,59  Z  " style="fill:rgb(0, 0, 0); fill-opacity:1.000; stroke:none;" />
 <path d="  M 77,134  L 77,135  L 78,135  L 78,137  L 80,137  L 80,138  L 82,138  L 82,139  L 84,139  L 84,140  L 86,140  L 86,141  L 88,141  L 88,140  L 90,140  L 90,139  L 91,139  L 91,138  L 92,138  L 92,135  L 91,135  L 91,134  L 90,134  L 90,132  L 87,132  L 87,131  L 86,131  L 86,130  L 84,130  L 84,129  L 81,129  L 81,128  L 79,128  L 79,127  L 78,127  L 78,126  L 77,126  L 77,125  L 76,125  L 76,124  L 75,124  L 75,123  L 73,123  L 73,122  L 72,122  L 72,121  L 71,121  L 71,120  L 70,120  L 70,119  L 68,119  L 68,118  L 67,118  L 67,117  L 66,117  L 66,116  L 64,116  L 64,115  L 63,115  L 63,114  L 62,114  L 62,113  L 60,113  L 60,112  L 59,112  L 59,111  L 57,111  L 57,110  L 56,110  L 56,109  L 55,109  L 55,108  L 54,108  L 54,107  L 53,107  L 53,106  L 52,106  L 52,104  L 51,104  L 51,103  L 50,103  L 50,99  L 51,99  L 51,97  L 52,97  L 52,94  L 53,94  L 53,92  L 54,92  L 54,89  L 55,89  L 55,87  L 54,87  L 54,86  L 53,86  L 53,85  L 52,85  L 52,84  L 49,84  L 49,85  L 48,85  L 48,87  L 47,87  L 47,91  L 46,91  L 46,93  L 45,93  L 45,94  L 44,94  L 44,96  L 43,96  L 43,97  L 42,97  L 42,99  L 41,99  L 41,101  L 40,101  L 40,102  L 39,102  L 39,104  L 38,104  L 38,105  L 37,105  L 37,107  L 36,107  L 36,108  L 35,108  L 35,110  L 34,110  L 34,112  L 33,112  L 33,113  L 32,113  L 32,115  L 31,115  L 31,117  L 30,117  L 30,119  L 29,119  L 29,120  L 28,120  L 28,121  L 27,121  L 27,123  L 26,123  L 26,125  L 25,125  L 25,126  L 24,126  L 24,127  L 23,127  L 23,129  L 22,129  L 22,130  L 21,130  L 21,132  L 20,132  L 20,133  L 19,133  L 19,135  L 18,135  L 18,136  L 17,136  L 17,137  L 16,137  L 16,139  L 15,139  L 15,142  L 16,142  L 16,144  L 21,144  L 21,143  L 22,143  L 22,141  L 23,141  L 23,140  L 24,140  L 24,139  L 25,139  L 25,137  L 26,137  L 26,136  L 27,136  L 27,135  L 28,135  L 28,133  L 29,133  L 29,131  L 30,131  L 30,130  L 31,130  L 31,128  L 32,128  L 32,127  L 33,127  L 33,125  L 34,125  L 34,123  L 35,123  L 35,122  L 36,122  L 36,120  L 37,120  L 37,118  L 38,118  L 38,117  L 39,117  L 39,115  L 40,115  L 40,113  L 41,113  L 41,112  L 42,112  L 42,110  L 43,110  L 43,109  L 46,109  L 46,110  L 47,110  L 47,111  L 48,111  L 48,112  L 49,112  L 49,113  L 50,113  L 50,114  L 51,114  L 51,115  L 52,115  L 52,116  L 54,116  L 54,117  L 55,117  L 55,118  L 56,118  L 56,119  L 57,119  L 57,120  L 58,120  L 58,121  L 60,121  L 60,122  L 61,122  L 61,123  L 63,123  L 63,124  L 65,124  L 65,126  L 67,126  L 67,127  L 68,127  L 68,128  L 70,128  L 70,129  L 71,129  L 71,130  L 72,130  L 72,131  L 73,131  L 73,132  L 74,132  L 74,133  L 75,133  L 75,134  Z  " style="fill:rgb(0, 0, 0); fill-opacity:1.000; stroke:none;" />
 <path d="  M 66,10  L 66,18  L 67,18  L 67,28  L 68,28  L 68,29  L 67,29  L 67,30  L 68,30  L 68,45  L 67,45  L 67,46  L 68,46  L 68,53  L 67,53  L 67,54  L 68,54  L 68,57  L 67,57  L 67,58  L 68,58  L 68,61  L 67,61  L 67,62  L 68,62  L 68,65  L 67,65  L 67,66  L 68,66  L 68,69  L 67,69  L 67,70  L 68,70  L 68,84  L 69,84  L 69,87  L 70,87  L 70,88  L 71,88  L 71,89  L 74,89  L 74,88  L 75,88  L 75,48  L 76,48  L 76,46  L 77,46  L 77,45  L 84,45  L 84,44  L 85,44  L 85,45  L 86,45  L 86,44  L 89,44  L 89,45  L 90,45  L 90,44  L 91,44  L 91,45  L 92,45  L 92,44  L 98,44  L 98,43  L 101,43  L 101,38  L 99,38  L 99,37  L 98,37  L 98,38  L 97,38  L 97,37  L 96,37  L 96,38  L 86,38  L 86,37  L 85,37  L 85,38  L 78,38  L 78,37  L 77,37  L 77,38  L 76,38  L 76,37  L 75,37  L 75,36  L 74,36  L 74,23  L 73,23  L 73,15  L 72,15  L 72,5  L 71,5  L 71,1  L 70,1  L 70,0  L 66,0  L 66,1  L 65,1  L 65,10  Z  " style="fill:rgb(0, 0, 0); fill-opacity:1.000; stroke:none;" />
</svg>
