<?xml version="1.0" encoding="UTF-8" standalone="no"?>
<!DOCTYPE svg PUBLIC "-//W3C//DTD SVG 1.1//EN" 
  "http://www.w3.org/Graphics/SVG/1.1/DTD/svg11.dtd">
<svg width="100" height="147"
     xmlns="http://www.w3.org/2000/svg" version="1.1">
 <path d="  M 11,61  L 11,54  L 10,54  L 10,36  L 9,36  L 9,29  L 8,29  L 8,16  L 7,16  L 7,15  L 6,15  L 6,14  L 3,14  L 3,13  L 2,13  L 2,14  L 1,14  L 1,28  L 2,28  L 2,39  L 3,39  L 3,55  L 4,55  L 4,61  L 5,61  L 5,66  L 6,66  L 6,68  L 7,68  L 7,69  L 9,69  L 9,70  L 12,70  L 12,71  L 13,71  L 13,70  L 14,70  L 14,71  L 17,71  L 17,70  L 23,70  L 23,69  L 28,69  L 28,68  L 33,68  L 33,67  L 37,67  L 37,66  L 41,66  L 41,65  L 42,65  L 42,66  L 43,66  L 43,65  L 45,65  L 45,64  L 47,64  L 47,63  L 49,63  L 49,62  L 51,62  L 51,60  L 52,60  L 52,57  L 53,57  L 53,56  L 50,56  L 50,57  L 46,57  L 46,58  L 43,58  L 43,59  L 38,59  L 38,60  L 34,60  L 34,61  L 30,61  L 30,62  L 24,62  L 24,63  L 21,63  L 21,64  L 14,64  L 14,63  L 13,63  L 13,62  L 12,62  L 12,61  Z  " style="fill:rgb(0, 0, 0); fill-opacity:1.000; stroke:none;" />
 <path d="  M 24,110  L 23,110  L 23,112  L 22,112  L 22,113  L 21,113  L 21,115  L 20,115  L 20,116  L 19,116  L 19,117  L 18,117  L 18,118  L 17,118  L 17,119  L 16,119  L 16,120  L 15,120  L 15,121  L 14,121  L 14,122  L 13,122  L 13,123  L 12,123  L 12,124  L 11,124  L 11,126  L 10,126  L 10,127  L 9,127  L 9,128  L 8,128  L 8,129  L 7,129  L 7,130  L 6,130  L 6,131  L 5,131  L 5,133  L 4,133  L 4,134  L 3,134  L 3,139  L 4,139  L 4,140  L 7,140  L 7,139  L 8,139  L 8,138  L 9,138  L 9,137  L 10,137  L 10,135  L 11,135  L 11,133  L 12,133  L 12,132  L 13,132  L 13,131  L 14,131  L 14,130  L 15,130  L 15,128  L 16,128  L 16,127  L 17,127  L 17,126  L 18,126  L 18,125  L 19,125  L 19,124  L 20,124  L 20,123  L 21,123  L 21,122  L 22,122  L 22,121  L 23,121  L 23,120  L 24,120  L 24,119  L 25,119  L 25,118  L 29,118  L 29,119  L 31,119  L 31,120  L 35,120  L 35,121  L 37,121  L 37,122  L 40,122  L 40,123  L 42,123  L 42,124  L 44,124  L 44,125  L 47,125  L 47,126  L 49,126  L 49,125  L 52,125  L 52,123  L 51,123  L 51,121  L 50,121  L 50,120  L 48,120  L 48,119  L 47,119  L 47,118  L 45,118  L 45,117  L 43,117  L 43,116  L 41,116  L 41,115  L 36,115  L 36,114  L 34,114  L 34,113  L 32,113  L 32,112  L 31,112  L 31,110  L 30,110  L 30,108  L 32,108  L 32,107  L 33,107  L 33,105  L 34,105  L 34,104  L 35,104  L 35,103  L 36,103  L 36,102  L 37,102  L 37,101  L 38,101  L 38,100  L 39,100  L 39,98  L 40,98  L 40,97  L 41,97  L 41,95  L 42,95  L 42,91  L 43,91  L 43,90  L 42,90  L 42,88  L 41,88  L 41,87  L 40,87  L 40,86  L 39,86  L 39,87  L 37,87  L 37,89  L 36,89  L 36,96  L 35,96  L 35,98  L 34,98  L 34,99  L 32,99  L 32,100  L 31,100  L 31,101  L 30,101  L 30,102  L 29,102  L 29,103  L 28,103  L 28,104  L 27,104  L 27,105  L 26,105  L 26,106  L 25,106  L 25,108  L 24,108  Z  " style="fill:rgb(0, 0, 0); fill-opacity:1.000; stroke:none;" />
 <path d="  M 28,89  L 28,88  L 25,88  L 25,90  L 30,90  L 30,89  Z  " style="fill:rgb(0, 0, 0); fill-opacity:1.000; stroke:none;" />
 <path d="  M 71,99  L 72,99  L 72,94  L 70,94  L 70,93  L 68,93  L 68,94  L 66,94  L 66,96  L 65,96  L 65,97  L 64,97  L 64,99  L 63,99  L 63,101  L 62,101  L 62,104  L 61,104  L 61,106  L 60,106  L 60,107  L 59,107  L 59,109  L 58,109  L 58,112  L 57,112  L 57,115  L 56,115  L 56,118  L 55,118  L 55,121  L 54,121  L 54,125  L 53,125  L 53,127  L 52,127  L 52,128  L 51,128  L 51,130  L 50,130  L 50,131  L 49,131  L 49,132  L 48,132  L 48,135  L 47,135  L 47,136  L 46,136  L 46,139  L 45,139  L 45,142  L 44,142  L 44,143  L 45,143  L 45,145  L 44,145  L 44,147  L 50,147  L 50,143  L 51,143  L 51,140  L 52,140  L 52,138  L 53,138  L 53,136  L 54,136  L 54,134  L 55,134  L 55,133  L 56,133  L 56,132  L 57,132  L 57,131  L 58,131  L 58,128  L 59,128  L 59,127  L 60,127  L 60,125  L 61,125  L 61,123  L 62,123  L 62,121  L 63,121  L 63,117  L 64,117  L 64,116  L 65,116  L 65,115  L 66,115  L 66,116  L 67,116  L 67,118  L 68,118  L 68,119  L 69,119  L 69,121  L 70,121  L 70,122  L 71,122  L 71,123  L 74,123  L 74,124  L 75,124  L 75,125  L 76,125  L 76,126  L 78,126  L 78,127  L 80,127  L 80,128  L 81,128  L 81,129  L 82,129  L 82,130  L 84,130  L 84,131  L 85,131  L 85,132  L 87,132  L 87,133  L 88,133  L 88,134  L 90,134  L 90,135  L 92,135  L 92,136  L 95,136  L 95,135  L 96,135  L 96,134  L 97,134  L 97,131  L 96,131  L 96,130  L 94,130  L 94,129  L 93,129  L 93,128  L 92,128  L 92,127  L 90,127  L 90,126  L 88,126  L 88,125  L 87,125  L 87,124  L 85,124  L 85,123  L 83,123  L 83,122  L 81,122  L 81,121  L 80,121  L 80,120  L 79,120  L 79,119  L 78,119  L 78,118  L 76,118  L 76,117  L 75,117  L 75,116  L 74,116  L 74,115  L 73,115  L 73,114  L 72,114  L 72,112  L 71,112  L 71,110  L 70,110  L 70,108  L 69,108  L 69,105  L 70,105  L 70,101  L 71,101  Z  " style="fill:rgb(0, 0, 0); fill-opacity:1.000; stroke:none;" />
 <path d="  M 67,23  L 68,23  L 68,24  L 67,24  L 67,25  L 68,25  L 68,70  L 67,70  L 67,71  L 68,71  L 68,73  L 67,73  L 67,79  L 68,79  L 68,81  L 69,81  L 69,82  L 74,82  L 74,71  L 75,71  L 75,70  L 74,70  L 74,67  L 75,67  L 75,66  L 74,66  L 74,65  L 75,65  L 75,64  L 74,64  L 74,63  L 75,63  L 75,62  L 74,62  L 74,61  L 75,61  L 75,42  L 76,42  L 76,41  L 77,41  L 77,40  L 87,40  L 87,39  L 88,39  L 88,40  L 89,40  L 89,39  L 90,39  L 90,40  L 91,40  L 91,39  L 92,39  L 92,40  L 93,40  L 93,39  L 94,39  L 94,40  L 95,40  L 95,39  L 96,39  L 96,40  L 98,40  L 98,39  L 100,39  L 100,34  L 99,34  L 99,33  L 80,33  L 80,34  L 75,34  L 75,30  L 74,30  L 74,29  L 75,29  L 75,28  L 74,28  L 74,27  L 75,27  L 75,26  L 74,26  L 74,16  L 73,16  L 73,1  L 72,1  L 72,0  L 68,0  L 68,1  L 67,1  L 67,2  L 66,2  L 66,10  L 67,10  Z  " style="fill:rgb(0, 0, 0); fill-opacity:1.000; stroke:none;" />
</svg>
