<?xml version="1.0" encoding="UTF-8" standalone="no"?>
<!DOCTYPE svg PUBLIC "-//W3C//DTD SVG 1.1//EN" 
  "http://www.w3.org/Graphics/SVG/1.1/DTD/svg11.dtd">
<svg width="100" height="149"
     xmlns="http://www.w3.org/2000/svg" version="1.1">
 <path d="  M 38,58  L 38,59  L 34,59  L 34,60  L 30,60  L 30,61  L 25,61  L 25,62  L 20,62  L 20,63  L 14,63  L 14,62  L 13,62  L 13,60  L 12,60  L 12,57  L 11,57  L 11,50  L 10,50  L 10,48  L 11,48  L 11,47  L 10,47  L 10,39  L 9,39  L 9,29  L 8,29  L 8,13  L 7,13  L 7,12  L 6,12  L 6,11  L 1,11  L 1,19  L 0,19  L 0,20  L 1,20  L 1,28  L 2,28  L 2,40  L 3,40  L 3,50  L 4,50  L 4,59  L 5,59  L 5,64  L 6,64  L 6,67  L 7,67  L 7,68  L 8,68  L 8,69  L 10,69  L 10,70  L 11,70  L 11,69  L 13,69  L 13,70  L 23,70  L 23,69  L 27,69  L 27,68  L 32,68  L 32,67  L 35,67  L 35,66  L 40,66  L 40,65  L 43,65  L 43,64  L 45,64  L 45,63  L 47,63  L 47,62  L 49,62  L 49,61  L 50,61  L 50,60  L 51,60  L 51,59  L 52,59  L 52,58  L 53,58  L 53,56  L 54,56  L 54,55  L 55,55  L 55,54  L 58,54  L 58,53  L 57,53  L 57,51  L 53,51  L 53,52  L 51,52  L 51,53  L 49,53  L 49,54  L 47,54  L 47,55  L 45,55  L 45,56  L 43,56  L 43,57  L 41,57  L 41,58  Z  " style="fill:rgb(0, 0, 0); fill-opacity:1.000; stroke:none;" />
 <path d="  M 41,110  L 42,110  L 42,109  L 43,109  L 43,108  L 44,108  L 44,106  L 46,106  L 46,105  L 48,105  L 48,104  L 50,104  L 50,103  L 66,103  L 66,104  L 72,104  L 72,105  L 74,105  L 74,106  L 75,106  L 75,107  L 77,107  L 77,108  L 78,108  L 78,111  L 79,111  L 79,121  L 78,121  L 78,125  L 77,125  L 77,128  L 76,128  L 76,130  L 75,130  L 75,131  L 74,131  L 74,133  L 72,133  L 72,135  L 70,135  L 70,136  L 68,136  L 68,137  L 66,137  L 66,138  L 65,138  L 65,139  L 63,139  L 63,140  L 60,140  L 60,141  L 56,141  L 56,142  L 50,142  L 50,143  L 49,143  L 49,142  L 44,142  L 44,141  L 39,141  L 39,140  L 36,140  L 36,139  L 34,139  L 34,137  L 33,137  L 33,136  L 32,136  L 32,132  L 31,132  L 31,131  L 32,131  L 32,125  L 33,125  L 33,124  L 34,124  L 34,121  L 35,121  L 35,119  L 36,119  L 36,117  L 37,117  L 37,114  L 38,114  L 38,113  L 39,113  L 39,112  L 40,112  L 40,111  L 41,111  Z  M 51,93  L 50,93  L 50,92  L 47,92  L 47,93  L 45,93  L 45,95  L 44,95  L 44,96  L 43,96  L 43,98  L 42,98  L 42,99  L 41,99  L 41,101  L 40,101  L 40,102  L 39,102  L 39,103  L 38,103  L 38,105  L 37,105  L 37,106  L 36,106  L 36,107  L 35,107  L 35,109  L 34,109  L 34,111  L 33,111  L 33,113  L 32,113  L 32,114  L 31,114  L 31,115  L 30,115  L 30,118  L 29,118  L 29,120  L 28,120  L 28,121  L 27,121  L 27,123  L 26,123  L 26,128  L 25,128  L 25,138  L 26,138  L 26,141  L 27,141  L 27,142  L 28,142  L 28,143  L 29,143  L 29,144  L 31,144  L 31,146  L 34,146  L 34,147  L 37,147  L 37,148  L 43,148  L 43,149  L 58,149  L 58,148  L 61,148  L 61,147  L 63,147  L 63,146  L 65,146  L 65,145  L 67,145  L 67,144  L 69,144  L 69,143  L 70,143  L 70,142  L 72,142  L 72,141  L 74,141  L 74,140  L 75,140  L 75,139  L 77,139  L 77,137  L 79,137  L 79,136  L 80,136  L 80,135  L 81,135  L 81,133  L 82,133  L 82,132  L 83,132  L 83,130  L 84,130  L 84,128  L 85,128  L 85,124  L 86,124  L 86,110  L 85,110  L 85,105  L 84,105  L 84,103  L 83,103  L 83,102  L 82,102  L 82,101  L 81,101  L 81,100  L 79,100  L 79,99  L 77,99  L 77,98  L 74,98  L 74,97  L 67,97  L 67,96  L 60,96  L 60,95  L 59,95  L 59,96  L 58,96  L 58,95  L 53,95  L 53,94  L 51,94  Z  " style="fill:rgb(0, 0, 0); fill-opacity:1.000; stroke:none;" />
 <path d="  M 64,20  L 65,20  L 65,56  L 66,56  L 66,57  L 65,57  L 65,58  L 66,58  L 66,61  L 65,61  L 65,62  L 66,62  L 66,65  L 65,65  L 65,66  L 66,66  L 66,76  L 67,76  L 67,86  L 68,86  L 68,87  L 69,87  L 69,89  L 73,89  L 73,88  L 74,88  L 74,81  L 73,81  L 73,80  L 74,80  L 74,79  L 73,79  L 73,48  L 75,48  L 75,47  L 78,47  L 78,46  L 79,46  L 79,47  L 80,47  L 80,46  L 81,46  L 81,47  L 82,47  L 82,46  L 83,46  L 83,47  L 84,47  L 84,46  L 85,46  L 85,47  L 86,47  L 86,46  L 94,46  L 94,45  L 100,45  L 100,39  L 98,39  L 98,38  L 97,38  L 97,39  L 79,39  L 79,40  L 78,40  L 78,39  L 75,39  L 75,40  L 74,40  L 74,39  L 72,39  L 72,30  L 71,30  L 71,28  L 72,28  L 72,27  L 71,27  L 71,15  L 70,15  L 70,3  L 69,3  L 69,1  L 67,1  L 67,0  L 66,0  L 66,1  L 64,1  L 64,3  L 63,3  L 63,4  L 64,4  L 64,5  L 63,5  L 63,6  L 64,6  Z  " style="fill:rgb(0, 0, 0); fill-opacity:1.000; stroke:none;" />
</svg>
