<?xml version="1.0" encoding="UTF-8" standalone="no"?>
<!DOCTYPE svg PUBLIC "-//W3C//DTD SVG 1.1//EN" 
  "http://www.w3.org/Graphics/SVG/1.1/DTD/svg11.dtd">
<svg width="102" height="156"
     xmlns="http://www.w3.org/2000/svg" version="1.1">
 <path d="  M 25,67  L 25,66  L 29,66  L 29,65  L 33,65  L 33,64  L 37,64  L 37,63  L 42,63  L 42,62  L 44,62  L 44,61  L 46,61  L 46,60  L 47,60  L 47,59  L 48,59  L 48,58  L 49,58  L 49,57  L 51,57  L 51,56  L 52,56  L 52,55  L 53,55  L 53,54  L 54,54  L 54,53  L 55,53  L 55,52  L 56,52  L 56,50  L 57,50  L 57,49  L 55,49  L 55,48  L 54,48  L 54,49  L 52,49  L 52,50  L 49,50  L 49,51  L 47,51  L 47,52  L 45,52  L 45,53  L 44,53  L 44,54  L 40,54  L 40,55  L 37,55  L 37,56  L 35,56  L 35,57  L 32,57  L 32,58  L 28,58  L 28,59  L 25,59  L 25,60  L 21,60  L 21,61  L 17,61  L 17,62  L 16,62  L 16,61  L 15,61  L 15,60  L 14,60  L 14,58  L 13,58  L 13,55  L 12,55  L 12,49  L 11,49  L 11,41  L 10,41  L 10,32  L 9,32  L 9,23  L 8,23  L 8,19  L 9,19  L 9,18  L 8,18  L 8,16  L 9,16  L 9,15  L 8,15  L 8,14  L 9,14  L 9,10  L 8,10  L 8,8  L 6,8  L 6,7  L 3,7  L 3,8  L 2,8  L 2,9  L 1,9  L 1,32  L 2,32  L 2,36  L 3,36  L 3,43  L 4,43  L 4,51  L 5,51  L 5,58  L 6,58  L 6,64  L 7,64  L 7,66  L 8,66  L 8,67  L 9,67  L 9,68  L 15,68  L 15,69  L 16,69  L 16,68  L 21,68  L 21,67  Z  " style="fill:rgb(0, 0, 0); fill-opacity:1.000; stroke:none;" />
 <path d="  M 35,144  L 34,144  L 34,145  L 33,145  L 33,146  L 32,146  L 32,147  L 31,147  L 31,148  L 30,148  L 30,150  L 29,150  L 29,151  L 28,151  L 28,152  L 27,152  L 27,156  L 33,156  L 33,155  L 34,155  L 34,154  L 35,154  L 35,153  L 36,153  L 36,152  L 37,152  L 37,151  L 38,151  L 38,150  L 39,150  L 39,149  L 40,149  L 40,148  L 41,148  L 41,146  L 42,146  L 42,144  L 43,144  L 43,143  L 44,143  L 44,142  L 45,142  L 45,140  L 46,140  L 46,139  L 47,139  L 47,137  L 48,137  L 48,136  L 49,136  L 49,133  L 50,133  L 50,132  L 51,132  L 51,131  L 52,131  L 52,129  L 53,129  L 53,127  L 54,127  L 54,125  L 57,125  L 57,124  L 58,124  L 58,125  L 59,125  L 59,126  L 61,126  L 61,127  L 63,127  L 63,128  L 64,128  L 64,129  L 66,129  L 66,130  L 67,130  L 67,131  L 69,131  L 69,132  L 70,132  L 70,133  L 71,133  L 71,134  L 72,134  L 72,135  L 73,135  L 73,136  L 75,136  L 75,137  L 77,137  L 77,138  L 78,138  L 78,139  L 80,139  L 80,140  L 81,140  L 81,141  L 83,141  L 83,142  L 84,142  L 84,143  L 85,143  L 85,144  L 87,144  L 87,145  L 88,145  L 88,144  L 90,144  L 90,143  L 91,143  L 91,141  L 92,141  L 92,139  L 91,139  L 91,138  L 90,138  L 90,136  L 88,136  L 88,135  L 87,135  L 87,134  L 84,134  L 84,133  L 82,133  L 82,132  L 81,132  L 81,131  L 79,131  L 79,130  L 78,130  L 78,129  L 77,129  L 77,128  L 76,128  L 76,127  L 74,127  L 74,126  L 71,126  L 71,125  L 70,125  L 70,124  L 67,124  L 67,123  L 66,123  L 66,122  L 63,122  L 63,121  L 61,121  L 61,120  L 63,120  L 63,118  L 64,118  L 64,117  L 65,117  L 65,116  L 66,116  L 66,115  L 67,115  L 67,114  L 68,114  L 68,112  L 70,112  L 70,111  L 71,111  L 71,109  L 72,109  L 72,107  L 73,107  L 73,105  L 74,105  L 74,102  L 73,102  L 73,101  L 72,101  L 72,99  L 71,99  L 71,98  L 69,98  L 69,97  L 68,97  L 68,96  L 66,96  L 66,95  L 64,95  L 64,94  L 61,94  L 61,93  L 60,93  L 60,94  L 51,94  L 51,95  L 49,95  L 49,94  L 48,94  L 48,95  L 45,95  L 45,96  L 41,96  L 41,97  L 36,97  L 36,98  L 34,98  L 34,99  L 31,99  L 31,100  L 29,100  L 29,101  L 27,101  L 27,102  L 26,102  L 26,105  L 25,105  L 25,107  L 26,107  L 26,108  L 29,108  L 29,107  L 32,107  L 32,106  L 34,106  L 34,105  L 36,105  L 36,104  L 40,104  L 40,103  L 45,103  L 45,102  L 46,102  L 46,103  L 48,103  L 48,102  L 53,102  L 53,101  L 65,101  L 65,102  L 66,102  L 66,103  L 65,103  L 65,107  L 64,107  L 64,108  L 63,108  L 63,109  L 62,109  L 62,110  L 61,110  L 61,111  L 59,111  L 59,112  L 57,112  L 57,113  L 56,113  L 56,114  L 55,114  L 55,115  L 53,115  L 53,117  L 52,117  L 52,118  L 51,118  L 51,119  L 50,119  L 50,120  L 49,120  L 49,122  L 48,122  L 48,123  L 47,123  L 47,125  L 46,125  L 46,126  L 45,126  L 45,128  L 44,128  L 44,129  L 43,129  L 43,132  L 42,132  L 42,134  L 41,134  L 41,135  L 40,135  L 40,137  L 39,137  L 39,138  L 38,138  L 38,140  L 37,140  L 37,141  L 36,141  L 36,143  L 35,143  Z  " style="fill:rgb(0, 0, 0); fill-opacity:1.000; stroke:none;" />
 <path d="  M 67,23  L 68,23  L 68,86  L 70,86  L 70,87  L 73,87  L 73,86  L 74,86  L 74,83  L 75,83  L 75,82  L 74,82  L 74,79  L 75,79  L 75,78  L 74,78  L 74,77  L 75,77  L 75,43  L 76,43  L 76,42  L 78,42  L 78,41  L 82,41  L 82,40  L 102,40  L 102,34  L 99,34  L 99,33  L 98,33  L 98,34  L 97,34  L 97,33  L 94,33  L 94,34  L 93,34  L 93,33  L 92,33  L 92,34  L 91,34  L 91,33  L 90,33  L 90,34  L 89,34  L 89,33  L 87,33  L 87,34  L 85,34  L 85,33  L 84,33  L 84,34  L 76,34  L 76,33  L 75,33  L 75,26  L 74,26  L 74,23  L 75,23  L 75,22  L 74,22  L 74,4  L 73,4  L 73,1  L 72,1  L 72,0  L 69,0  L 69,1  L 68,1  L 68,2  L 67,2  Z  " style="fill:rgb(0, 0, 0); fill-opacity:1.000; stroke:none;" />
</svg>
