<?xml version="1.0" encoding="UTF-8" standalone="no"?>
<!DOCTYPE svg PUBLIC "-//W3C//DTD SVG 1.1//EN" 
  "http://www.w3.org/Graphics/SVG/1.1/DTD/svg11.dtd">
<svg width="100" height="153"
     xmlns="http://www.w3.org/2000/svg" version="1.1">
 <path d="  M 40,58  L 37,58  L 37,59  L 31,59  L 31,60  L 28,60  L 28,61  L 24,61  L 24,62  L 19,62  L 19,63  L 11,63  L 11,61  L 10,61  L 10,54  L 9,54  L 9,51  L 10,51  L 10,50  L 9,50  L 9,32  L 8,32  L 8,31  L 9,31  L 9,30  L 8,30  L 8,27  L 9,27  L 9,26  L 8,26  L 8,22  L 9,22  L 9,17  L 8,17  L 8,16  L 6,16  L 6,15  L 3,15  L 3,16  L 2,16  L 2,18  L 1,18  L 1,28  L 2,28  L 2,29  L 1,29  L 1,31  L 2,31  L 2,34  L 1,34  L 1,35  L 2,35  L 2,45  L 3,45  L 3,46  L 2,46  L 2,47  L 3,47  L 3,61  L 4,61  L 4,62  L 3,62  L 3,63  L 4,63  L 4,66  L 5,66  L 5,68  L 6,68  L 6,69  L 9,69  L 9,70  L 17,70  L 17,69  L 22,69  L 22,68  L 26,68  L 26,67  L 30,67  L 30,66  L 31,66  L 31,67  L 32,67  L 32,66  L 39,66  L 39,65  L 42,65  L 42,64  L 46,64  L 46,63  L 50,63  L 50,62  L 51,62  L 51,60  L 50,60  L 50,58  L 49,58  L 49,57  L 48,57  L 48,56  L 46,56  L 46,55  L 45,55  L 45,56  L 42,56  L 42,57  L 40,57  Z  " style="fill:rgb(0, 0, 0); fill-opacity:1.000; stroke:none;" />
 <path d="  M 78,132  L 77,132  L 77,141  L 76,141  L 76,142  L 77,142  L 77,143  L 76,143  L 76,147  L 77,147  L 77,148  L 76,148  L 76,150  L 77,150  L 77,153  L 82,153  L 82,152  L 83,152  L 83,150  L 84,150  L 84,131  L 85,131  L 85,124  L 86,124  L 86,121  L 87,121  L 87,118  L 88,118  L 88,114  L 89,114  L 89,111  L 90,111  L 90,107  L 91,107  L 91,106  L 90,106  L 90,101  L 89,101  L 89,99  L 88,99  L 88,97  L 86,97  L 86,96  L 84,96  L 84,95  L 79,95  L 79,94  L 55,94  L 55,95  L 51,95  L 51,96  L 39,96  L 39,97  L 35,97  L 35,98  L 31,98  L 31,99  L 30,99  L 30,100  L 29,100  L 29,105  L 35,105  L 35,104  L 42,104  L 42,103  L 43,103  L 43,104  L 44,104  L 44,103  L 50,103  L 50,102  L 60,102  L 60,101  L 61,101  L 61,102  L 62,102  L 62,101  L 78,101  L 78,102  L 79,102  L 79,101  L 80,101  L 80,102  L 82,102  L 82,103  L 83,103  L 83,112  L 82,112  L 82,116  L 81,116  L 81,118  L 80,118  L 80,121  L 79,121  L 79,126  L 78,126  Z  " style="fill:rgb(0, 0, 0); fill-opacity:1.000; stroke:none;" />
 <path d="  M 72,58  L 71,58  L 71,57  L 72,57  L 72,51  L 73,51  L 73,43  L 75,43  L 75,42  L 82,42  L 82,41  L 91,41  L 91,40  L 93,40  L 93,43  L 94,43  L 94,44  L 93,44  L 93,58  L 92,58  L 92,70  L 91,70  L 91,84  L 97,84  L 97,83  L 98,83  L 98,77  L 99,77  L 99,65  L 100,65  L 100,16  L 99,16  L 99,8  L 98,8  L 98,6  L 97,6  L 97,5  L 96,5  L 96,4  L 87,4  L 87,6  L 88,6  L 88,7  L 89,7  L 89,8  L 90,8  L 90,10  L 91,10  L 91,13  L 92,13  L 92,21  L 93,21  L 93,33  L 91,33  L 91,34  L 87,34  L 87,35  L 80,35  L 80,36  L 71,36  L 71,35  L 70,35  L 70,22  L 69,22  L 69,21  L 70,21  L 70,18  L 69,18  L 69,3  L 68,3  L 68,1  L 67,1  L 67,0  L 63,0  L 63,1  L 62,1  L 62,2  L 61,2  L 61,5  L 62,5  L 62,6  L 61,6  L 61,7  L 62,7  L 62,8  L 61,8  L 61,9  L 62,9  L 62,23  L 63,23  L 63,24  L 62,24  L 62,25  L 63,25  L 63,26  L 62,26  L 62,27  L 63,27  L 63,34  L 62,34  L 62,35  L 63,35  L 63,48  L 64,48  L 64,49  L 63,49  L 63,51  L 64,51  L 64,53  L 63,53  L 63,55  L 64,55  L 64,57  L 63,57  L 63,59  L 64,59  L 64,61  L 63,61  L 63,75  L 64,75  L 64,76  L 65,76  L 65,75  L 70,75  L 70,71  L 71,71  L 71,59  L 72,59  Z  " style="fill:rgb(0, 0, 0); fill-opacity:1.000; stroke:none;" />
</svg>
