<?xml version="1.0" encoding="UTF-8" standalone="no"?>
<!DOCTYPE svg PUBLIC "-//W3C//DTD SVG 1.1//EN" 
  "http://www.w3.org/Graphics/SVG/1.1/DTD/svg11.dtd">
<svg width="107" height="169"
     xmlns="http://www.w3.org/2000/svg" version="1.1">
 <path d="  M 24,73  L 24,72  L 25,72  L 25,73  L 27,73  L 27,72  L 32,72  L 32,71  L 40,71  L 40,70  L 46,70  L 46,69  L 51,69  L 51,68  L 55,68  L 55,67  L 56,67  L 56,66  L 57,66  L 57,63  L 56,63  L 56,62  L 55,62  L 55,61  L 54,61  L 54,60  L 51,60  L 51,61  L 50,61  L 50,62  L 45,62  L 45,63  L 39,63  L 39,64  L 32,64  L 32,65  L 18,65  L 18,66  L 17,66  L 17,65  L 14,65  L 14,64  L 13,64  L 13,59  L 12,59  L 12,51  L 11,51  L 11,46  L 10,46  L 10,41  L 9,41  L 9,11  L 7,11  L 7,10  L 3,10  L 3,11  L 1,11  L 1,12  L 2,12  L 2,13  L 1,13  L 1,40  L 2,40  L 2,47  L 3,47  L 3,54  L 4,54  L 4,57  L 5,57  L 5,58  L 4,58  L 4,59  L 5,59  L 5,62  L 6,62  L 6,65  L 7,65  L 7,68  L 8,68  L 8,70  L 10,70  L 10,71  L 11,71  L 11,72  L 17,72  L 17,73  Z  " style="fill:rgb(0, 0, 0); fill-opacity:1.000; stroke:none;" />
 <path d="  M 43,139  L 42,139  L 42,140  L 41,140  L 41,141  L 40,141  L 40,142  L 39,142  L 39,144  L 38,144  L 38,145  L 37,145  L 37,147  L 36,147  L 36,148  L 37,148  L 37,149  L 36,149  L 36,151  L 37,151  L 37,156  L 38,156  L 38,157  L 37,157  L 37,158  L 38,158  L 38,161  L 39,161  L 39,162  L 40,162  L 40,164  L 41,164  L 41,165  L 43,165  L 43,166  L 44,166  L 44,167  L 47,167  L 47,168  L 49,168  L 49,169  L 70,169  L 70,168  L 73,168  L 73,167  L 77,167  L 77,166  L 79,166  L 79,165  L 82,165  L 82,164  L 85,164  L 85,163  L 87,163  L 87,162  L 89,162  L 89,161  L 91,161  L 91,160  L 93,160  L 93,159  L 94,159  L 94,158  L 95,158  L 95,157  L 96,157  L 96,156  L 97,156  L 97,153  L 98,153  L 98,151  L 97,151  L 97,150  L 95,150  L 95,151  L 92,151  L 92,152  L 91,152  L 91,153  L 89,153  L 89,154  L 86,154  L 86,155  L 84,155  L 84,156  L 82,156  L 82,157  L 81,157  L 81,158  L 78,158  L 78,159  L 75,159  L 75,160  L 73,160  L 73,161  L 68,161  L 68,162  L 60,162  L 60,163  L 57,163  L 57,162  L 56,162  L 56,163  L 55,163  L 55,162  L 51,162  L 51,161  L 48,161  L 48,160  L 47,160  L 47,159  L 46,159  L 46,156  L 45,156  L 45,154  L 46,154  L 46,153  L 45,153  L 45,146  L 46,146  L 46,145  L 47,145  L 47,144  L 49,144  L 49,143  L 50,143  L 50,142  L 52,142  L 52,141  L 54,141  L 54,140  L 57,140  L 57,139  L 58,139  L 58,138  L 61,138  L 61,137  L 63,137  L 63,136  L 66,136  L 66,135  L 69,135  L 69,134  L 71,134  L 71,133  L 74,133  L 74,132  L 76,132  L 76,131  L 78,131  L 78,130  L 81,130  L 81,129  L 83,129  L 83,128  L 85,128  L 85,127  L 86,127  L 86,126  L 88,126  L 88,125  L 89,125  L 89,115  L 88,115  L 88,111  L 87,111  L 87,110  L 86,110  L 86,108  L 85,108  L 85,107  L 84,107  L 84,106  L 82,106  L 82,105  L 81,105  L 81,104  L 79,104  L 79,103  L 77,103  L 77,102  L 75,102  L 75,101  L 73,101  L 73,100  L 71,100  L 71,99  L 64,99  L 64,98  L 44,98  L 44,99  L 42,99  L 42,100  L 41,100  L 41,101  L 40,101  L 40,103  L 39,103  L 39,106  L 40,106  L 40,108  L 43,108  L 43,107  L 47,107  L 47,106  L 50,106  L 50,105  L 61,105  L 61,106  L 62,106  L 62,105  L 63,105  L 63,106  L 67,106  L 67,107  L 71,107  L 71,108  L 74,108  L 74,109  L 75,109  L 75,110  L 77,110  L 77,112  L 79,112  L 79,114  L 80,114  L 80,115  L 81,115  L 81,116  L 82,116  L 82,120  L 81,120  L 81,121  L 80,121  L 80,122  L 77,122  L 77,123  L 76,123  L 76,124  L 73,124  L 73,125  L 71,125  L 71,126  L 69,126  L 69,127  L 65,127  L 65,128  L 63,128  L 63,129  L 61,129  L 61,130  L 58,130  L 58,131  L 56,131  L 56,132  L 54,132  L 54,133  L 52,133  L 52,134  L 49,134  L 49,135  L 47,135  L 47,136  L 46,136  L 46,137  L 44,137  L 44,138  L 43,138  Z  " style="fill:rgb(0, 0, 0); fill-opacity:1.000; stroke:none;" />
 <path d="  M 99,31  L 99,32  L 98,32  L 98,33  L 93,33  L 93,34  L 81,34  L 81,35  L 78,35  L 78,33  L 77,33  L 77,32  L 78,32  L 78,20  L 79,20  L 79,17  L 78,17  L 78,16  L 79,16  L 79,3  L 78,3  L 78,2  L 77,2  L 77,1  L 72,1  L 72,2  L 71,2  L 71,3  L 70,3  L 70,5  L 71,5  L 71,8  L 70,8  L 70,9  L 71,9  L 71,10  L 70,10  L 70,19  L 69,19  L 69,20  L 70,20  L 70,21  L 69,21  L 69,35  L 68,35  L 68,36  L 69,36  L 69,37  L 68,37  L 68,48  L 69,48  L 69,49  L 68,49  L 68,50  L 69,50  L 69,59  L 68,59  L 68,60  L 69,60  L 69,61  L 68,61  L 68,64  L 69,64  L 69,65  L 68,65  L 68,81  L 69,81  L 69,83  L 70,83  L 70,84  L 76,84  L 76,68  L 77,68  L 77,67  L 76,67  L 76,64  L 77,64  L 77,54  L 78,54  L 78,53  L 77,53  L 77,52  L 78,52  L 78,50  L 79,50  L 79,44  L 81,44  L 81,43  L 87,43  L 87,42  L 92,42  L 92,41  L 99,41  L 99,90  L 98,90  L 98,91  L 99,91  L 99,93  L 98,93  L 98,94  L 99,94  L 99,95  L 102,95  L 102,96  L 103,96  L 103,95  L 104,95  L 104,94  L 105,94  L 105,93  L 106,93  L 106,92  L 107,92  L 107,91  L 106,91  L 106,86  L 107,86  L 107,11  L 106,11  L 106,9  L 105,9  L 105,7  L 99,7  L 99,22  L 100,22  L 100,25  L 99,25  L 99,26  L 100,26  L 100,29  L 99,29  L 99,30  L 100,30  L 100,31  Z  " style="fill:rgb(0, 0, 0); fill-opacity:1.000; stroke:none;" />
</svg>
