<?xml version="1.0" encoding="UTF-8" standalone="no"?>
<!DOCTYPE svg PUBLIC "-//W3C//DTD SVG 1.1//EN" 
  "http://www.w3.org/Graphics/SVG/1.1/DTD/svg11.dtd">
<svg width="102" height="146"
     xmlns="http://www.w3.org/2000/svg" version="1.1">
 <path d="  M 2,33  L 3,33  L 3,40  L 4,40  L 4,46  L 5,46  L 5,52  L 6,52  L 6,55  L 7,55  L 7,58  L 8,58  L 8,59  L 9,59  L 9,60  L 8,60  L 8,61  L 10,61  L 10,62  L 12,62  L 12,63  L 13,63  L 13,62  L 15,62  L 15,63  L 19,63  L 19,62  L 24,62  L 24,61  L 28,61  L 28,60  L 33,60  L 33,59  L 37,59  L 37,58  L 42,58  L 42,57  L 55,57  L 55,52  L 54,52  L 54,50  L 53,50  L 53,49  L 43,49  L 43,50  L 39,50  L 39,51  L 37,51  L 37,52  L 31,52  L 31,53  L 27,53  L 27,54  L 21,54  L 21,55  L 14,55  L 14,53  L 13,53  L 13,50  L 12,50  L 12,47  L 11,47  L 11,41  L 10,41  L 10,32  L 9,32  L 9,18  L 10,18  L 10,17  L 9,17  L 9,13  L 8,13  L 8,11  L 2,11  L 2,12  L 1,12  L 1,23  L 2,23  L 2,25  L 1,25  L 1,26  L 2,26  L 2,31  L 3,31  L 3,32  L 2,32  Z  " style="fill:rgb(0, 0, 0); fill-opacity:1.000; stroke:none;" />
 <path d="  M 41,142  L 42,142  L 42,143  L 43,143  L 43,144  L 44,144  L 44,145  L 45,145  L 45,146  L 92,146  L 92,145  L 94,145  L 94,144  L 95,144  L 95,143  L 96,143  L 96,142  L 98,142  L 98,141  L 97,141  L 97,140  L 98,140  L 98,132  L 99,132  L 99,126  L 100,126  L 100,121  L 101,121  L 101,115  L 102,115  L 102,97  L 101,97  L 101,96  L 100,96  L 100,95  L 99,95  L 99,94  L 98,94  L 98,93  L 58,93  L 58,94  L 56,94  L 56,93  L 55,93  L 55,94  L 50,94  L 50,95  L 39,95  L 39,96  L 36,96  L 36,97  L 35,97  L 35,98  L 33,98  L 33,99  L 32,99  L 32,100  L 30,100  L 30,102  L 29,102  L 29,104  L 30,104  L 30,105  L 31,105  L 31,104  L 35,104  L 35,103  L 39,103  L 39,138  L 40,138  L 40,141  L 41,141  Z  M 70,99  L 71,99  L 71,100  L 72,100  L 72,99  L 73,99  L 73,100  L 74,100  L 74,99  L 75,99  L 75,100  L 88,100  L 88,99  L 89,99  L 89,100  L 90,100  L 90,99  L 91,99  L 91,100  L 96,100  L 96,113  L 95,113  L 95,121  L 94,121  L 94,126  L 93,126  L 93,130  L 92,130  L 92,133  L 91,133  L 91,138  L 90,138  L 90,139  L 86,139  L 86,140  L 85,140  L 85,139  L 81,139  L 81,140  L 80,140  L 80,139  L 77,139  L 77,140  L 76,140  L 76,139  L 73,139  L 73,140  L 72,140  L 72,139  L 65,139  L 65,140  L 64,140  L 64,139  L 61,139  L 61,140  L 60,140  L 60,139  L 57,139  L 57,140  L 56,140  L 56,139  L 49,139  L 49,140  L 48,140  L 48,139  L 46,139  L 46,125  L 45,125  L 45,124  L 46,124  L 46,106  L 45,106  L 45,105  L 46,105  L 46,102  L 48,102  L 48,101  L 54,101  L 54,100  L 55,100  L 55,101  L 56,101  L 56,100  L 66,100  L 66,99  L 67,99  L 67,100  L 68,100  L 68,99  L 69,99  L 69,100  L 70,100  Z  " style="fill:rgb(0, 0, 0); fill-opacity:1.000; stroke:none;" />
 <path d="  M 95,17  L 95,9  L 94,9  L 94,8  L 92,8  L 92,7  L 91,7  L 91,6  L 87,6  L 87,7  L 86,7  L 86,8  L 85,8  L 85,10  L 86,10  L 86,12  L 87,12  L 87,18  L 88,18  L 88,20  L 89,20  L 89,26  L 90,26  L 90,27  L 91,27  L 91,28  L 90,28  L 90,29  L 89,29  L 89,30  L 86,30  L 86,31  L 81,31  L 81,32  L 80,32  L 80,31  L 79,31  L 79,32  L 69,32  L 69,27  L 68,27  L 68,15  L 67,15  L 67,3  L 66,3  L 66,1  L 65,1  L 65,0  L 61,0  L 61,1  L 60,1  L 60,13  L 61,13  L 61,20  L 62,20  L 62,21  L 61,21  L 61,22  L 62,22  L 62,38  L 63,38  L 63,65  L 62,65  L 62,66  L 63,66  L 63,69  L 62,69  L 62,70  L 63,70  L 63,75  L 69,75  L 69,72  L 70,72  L 70,58  L 71,58  L 71,57  L 70,57  L 70,56  L 71,56  L 71,55  L 70,55  L 70,54  L 71,54  L 71,53  L 70,53  L 70,52  L 71,52  L 71,51  L 70,51  L 70,50  L 71,50  L 71,44  L 70,44  L 70,40  L 71,40  L 71,39  L 76,39  L 76,38  L 82,38  L 82,37  L 87,37  L 87,36  L 92,36  L 92,39  L 93,39  L 93,42  L 92,42  L 92,44  L 93,44  L 93,45  L 92,45  L 92,57  L 91,57  L 91,66  L 90,66  L 90,75  L 89,75  L 89,76  L 90,76  L 90,77  L 89,77  L 89,78  L 90,78  L 90,79  L 89,79  L 89,80  L 90,80  L 90,81  L 93,81  L 93,80  L 96,80  L 96,79  L 97,79  L 97,78  L 98,78  L 98,77  L 97,77  L 97,75  L 98,75  L 98,64  L 99,64  L 99,55  L 100,55  L 100,44  L 101,44  L 101,43  L 100,43  L 100,40  L 101,40  L 101,39  L 100,39  L 100,36  L 101,36  L 101,35  L 100,35  L 100,30  L 99,30  L 99,27  L 98,27  L 98,25  L 97,25  L 97,22  L 96,22  L 96,17  Z  " style="fill:rgb(0, 0, 0); fill-opacity:1.000; stroke:none;" />
</svg>
