<?xml version="1.0" encoding="UTF-8" standalone="no"?>
<!DOCTYPE svg PUBLIC "-//W3C//DTD SVG 1.1//EN" 
  "http://www.w3.org/Graphics/SVG/1.1/DTD/svg11.dtd">
<svg width="105" height="150"
     xmlns="http://www.w3.org/2000/svg" version="1.1">
 <path d="  M 5,63  L 6,63  L 6,66  L 7,66  L 7,68  L 8,68  L 8,69  L 10,69  L 10,70  L 11,70  L 11,71  L 16,71  L 16,72  L 17,72  L 17,71  L 23,71  L 23,70  L 28,70  L 28,69  L 31,69  L 31,68  L 35,68  L 35,67  L 39,67  L 39,66  L 43,66  L 43,65  L 46,65  L 46,63  L 47,63  L 47,62  L 48,62  L 48,61  L 49,61  L 49,60  L 50,60  L 50,58  L 49,58  L 49,57  L 45,57  L 45,58  L 41,58  L 41,59  L 37,59  L 37,60  L 33,60  L 33,61  L 29,61  L 29,62  L 25,62  L 25,63  L 19,63  L 19,64  L 16,64  L 16,63  L 14,63  L 14,61  L 13,61  L 13,59  L 12,59  L 12,55  L 11,55  L 11,46  L 10,46  L 10,33  L 9,33  L 9,26  L 8,26  L 8,17  L 9,17  L 9,14  L 8,14  L 8,12  L 7,12  L 7,11  L 5,11  L 5,10  L 2,10  L 2,11  L 1,11  L 1,15  L 0,15  L 0,16  L 1,16  L 1,19  L 0,19  L 0,20  L 1,20  L 1,23  L 0,23  L 0,24  L 1,24  L 1,36  L 2,36  L 2,40  L 3,40  L 3,48  L 4,48  L 4,56  L 5,56  Z  " style="fill:rgb(0, 0, 0); fill-opacity:1.000; stroke:none;" />
 <path d="  M 48,98  L 48,99  L 40,99  L 40,100  L 35,100  L 35,101  L 31,101  L 31,102  L 29,102  L 29,103  L 28,103  L 28,105  L 27,105  L 27,106  L 29,106  L 29,107  L 30,107  L 30,108  L 36,108  L 36,107  L 40,107  L 40,106  L 45,106  L 45,105  L 59,105  L 59,106  L 60,106  L 60,105  L 61,105  L 61,106  L 63,106  L 63,107  L 64,107  L 64,108  L 66,108  L 66,110  L 67,110  L 67,116  L 66,116  L 66,119  L 65,119  L 65,123  L 64,123  L 64,129  L 63,129  L 63,134  L 62,134  L 62,138  L 61,138  L 61,143  L 60,143  L 60,149  L 61,149  L 61,150  L 66,150  L 66,149  L 67,149  L 67,148  L 68,148  L 68,144  L 69,144  L 69,143  L 68,143  L 68,141  L 69,141  L 69,134  L 70,134  L 70,132  L 71,132  L 71,131  L 70,131  L 70,129  L 71,129  L 71,122  L 72,122  L 72,118  L 73,118  L 73,114  L 74,114  L 74,110  L 73,110  L 73,106  L 72,106  L 72,103  L 70,103  L 70,102  L 69,102  L 69,101  L 67,101  L 67,100  L 65,100  L 65,99  L 62,99  L 62,98  Z  " style="fill:rgb(0, 0, 0); fill-opacity:1.000; stroke:none;" />
 <path d="  M 76,46  L 76,47  L 75,47  L 75,46  L 73,46  L 73,42  L 72,42  L 72,38  L 73,38  L 73,37  L 74,37  L 74,36  L 86,36  L 86,35  L 87,35  L 87,36  L 88,36  L 88,35  L 91,35  L 91,36  L 92,36  L 92,35  L 96,35  L 96,34  L 97,34  L 97,32  L 98,32  L 98,30  L 97,30  L 97,28  L 92,28  L 92,29  L 91,29  L 91,28  L 90,28  L 90,29  L 80,29  L 80,30  L 74,30  L 74,31  L 73,31  L 73,29  L 72,29  L 72,19  L 71,19  L 71,3  L 70,3  L 70,1  L 69,1  L 69,0  L 66,0  L 66,1  L 65,1  L 65,3  L 64,3  L 64,14  L 65,14  L 65,26  L 66,26  L 66,52  L 67,52  L 67,53  L 66,53  L 66,54  L 67,54  L 67,57  L 66,57  L 66,58  L 67,58  L 67,61  L 66,61  L 66,62  L 67,62  L 67,65  L 66,65  L 66,66  L 67,66  L 67,87  L 68,87  L 68,89  L 69,89  L 69,90  L 73,90  L 73,89  L 74,89  L 74,63  L 73,63  L 73,62  L 74,62  L 74,59  L 73,59  L 73,58  L 74,58  L 74,55  L 76,55  L 76,54  L 77,54  L 77,55  L 78,55  L 78,54  L 80,54  L 80,53  L 102,53  L 102,52  L 104,52  L 104,51  L 105,51  L 105,47  L 104,47  L 104,46  Z  " style="fill:rgb(0, 0, 0); fill-opacity:1.000; stroke:none;" />
</svg>
