<?xml version="1.0" encoding="UTF-8" standalone="no"?>
<!DOCTYPE svg PUBLIC "-//W3C//DTD SVG 1.1//EN" 
  "http://www.w3.org/Graphics/SVG/1.1/DTD/svg11.dtd">
<svg width="106" height="138"
     xmlns="http://www.w3.org/2000/svg" version="1.1">
 <path d="  M 7,20  L 8,20  L 8,19  L 7,19  L 7,16  L 6,16  L 6,14  L 5,14  L 5,13  L 2,13  L 2,14  L 1,14  L 1,32  L 2,32  L 2,44  L 3,44  L 3,54  L 4,54  L 4,55  L 3,55  L 3,56  L 4,56  L 4,60  L 5,60  L 5,62  L 4,62  L 4,63  L 5,63  L 5,65  L 6,65  L 6,67  L 7,67  L 7,68  L 8,68  L 8,69  L 11,69  L 11,70  L 21,70  L 21,69  L 26,69  L 26,68  L 30,68  L 30,67  L 33,67  L 33,66  L 38,66  L 38,65  L 43,65  L 43,64  L 44,64  L 44,65  L 45,65  L 45,64  L 48,64  L 48,63  L 51,63  L 51,62  L 53,62  L 53,61  L 54,61  L 54,60  L 55,60  L 55,59  L 56,59  L 56,58  L 57,58  L 57,57  L 58,57  L 58,56  L 57,56  L 57,54  L 56,54  L 56,53  L 54,53  L 54,54  L 50,54  L 50,55  L 47,55  L 47,56  L 44,56  L 44,57  L 41,57  L 41,58  L 38,58  L 38,59  L 32,59  L 32,60  L 29,60  L 29,61  L 25,61  L 25,62  L 22,62  L 22,63  L 13,63  L 13,62  L 12,62  L 12,59  L 11,59  L 11,58  L 10,58  L 10,57  L 11,57  L 11,56  L 10,56  L 10,50  L 9,50  L 9,43  L 8,43  L 8,27  L 7,27  Z  " style="fill:rgb(0, 0, 0); fill-opacity:1.000; stroke:none;" />
 <path d="  M 22,110  L 23,110  L 23,122  L 24,122  L 24,126  L 23,126  L 23,127  L 24,127  L 24,128  L 23,128  L 23,129  L 24,129  L 24,133  L 25,133  L 25,135  L 26,135  L 26,137  L 27,137  L 27,138  L 54,138  L 54,137  L 55,137  L 55,138  L 56,138  L 56,137  L 66,137  L 66,136  L 74,136  L 74,135  L 75,135  L 75,136  L 77,136  L 77,135  L 85,135  L 85,134  L 88,134  L 88,133  L 90,133  L 90,127  L 81,127  L 81,128  L 78,128  L 78,127  L 77,127  L 77,128  L 73,128  L 73,129  L 59,129  L 59,130  L 49,130  L 49,131  L 48,131  L 48,130  L 47,130  L 47,131  L 46,131  L 46,130  L 45,130  L 45,131  L 31,131  L 31,130  L 30,130  L 30,128  L 29,128  L 29,127  L 30,127  L 30,126  L 29,126  L 29,117  L 28,117  L 28,105  L 27,105  L 27,100  L 28,100  L 28,99  L 27,99  L 27,93  L 24,93  L 24,94  L 23,94  L 23,95  L 22,95  L 22,97  L 21,97  L 21,99  L 22,99  L 22,103  L 21,103  L 21,104  L 22,104  Z  " style="fill:rgb(0, 0, 0); fill-opacity:1.000; stroke:none;" />
 <path d="  M 89,50  L 89,51  L 85,51  L 85,52  L 81,52  L 81,53  L 76,53  L 76,54  L 73,54  L 73,51  L 72,51  L 72,45  L 71,45  L 71,42  L 72,42  L 72,40  L 74,40  L 74,39  L 84,39  L 84,38  L 85,38  L 85,39  L 86,39  L 86,38  L 97,38  L 97,37  L 98,37  L 98,31  L 97,31  L 97,30  L 95,30  L 95,31  L 81,31  L 81,32  L 72,32  L 72,29  L 71,29  L 71,21  L 70,21  L 70,11  L 69,11  L 69,3  L 68,3  L 68,1  L 67,1  L 67,0  L 64,0  L 64,2  L 63,2  L 63,3  L 62,3  L 62,4  L 63,4  L 63,13  L 64,13  L 64,24  L 65,24  L 65,74  L 66,74  L 66,86  L 67,86  L 67,88  L 68,88  L 68,89  L 73,89  L 73,87  L 74,87  L 74,85  L 73,85  L 73,84  L 74,84  L 74,82  L 73,82  L 73,61  L 74,61  L 74,60  L 79,60  L 79,59  L 86,59  L 86,58  L 91,58  L 91,57  L 100,57  L 100,56  L 101,56  L 101,57  L 102,57  L 102,56  L 104,56  L 104,55  L 106,55  L 106,49  L 104,49  L 104,50  Z  " style="fill:rgb(0, 0, 0); fill-opacity:1.000; stroke:none;" />
</svg>
