<?xml version="1.0" encoding="UTF-8" standalone="no"?>
<!DOCTYPE svg PUBLIC "-//W3C//DTD SVG 1.1//EN" 
  "http://www.w3.org/Graphics/SVG/1.1/DTD/svg11.dtd">
<svg width="101" height="149"
     xmlns="http://www.w3.org/2000/svg" version="1.1">
 <path d="  M 5,62  L 6,62  L 6,65  L 7,65  L 7,66  L 8,66  L 8,68  L 10,68  L 10,69  L 20,69  L 20,68  L 24,68  L 24,67  L 29,67  L 29,66  L 32,66  L 32,65  L 36,65  L 36,64  L 39,64  L 39,63  L 43,63  L 43,62  L 45,62  L 45,61  L 46,61  L 46,60  L 47,60  L 47,58  L 49,58  L 49,56  L 50,56  L 50,55  L 51,55  L 51,52  L 46,52  L 46,53  L 44,53  L 44,54  L 42,54  L 42,55  L 40,55  L 40,56  L 36,56  L 36,57  L 34,57  L 34,58  L 31,58  L 31,59  L 28,59  L 28,60  L 23,60  L 23,61  L 20,61  L 20,62  L 13,62  L 13,61  L 12,61  L 12,56  L 11,56  L 11,48  L 10,48  L 10,40  L 9,40  L 9,30  L 8,30  L 8,10  L 7,10  L 7,8  L 6,8  L 6,7  L 3,7  L 3,8  L 2,8  L 2,9  L 1,9  L 1,29  L 2,29  L 2,39  L 3,39  L 3,47  L 4,47  L 4,56  L 5,56  Z  " style="fill:rgb(0, 0, 0); fill-opacity:1.000; stroke:none;" />
 <path d="  M 26,140  L 27,140  L 27,142  L 28,142  L 28,143  L 29,143  L 29,144  L 30,144  L 30,145  L 32,145  L 32,146  L 34,146  L 34,147  L 37,147  L 37,148  L 39,148  L 39,149  L 40,149  L 40,148  L 41,148  L 41,149  L 58,149  L 58,148  L 60,148  L 60,147  L 63,147  L 63,146  L 65,146  L 65,145  L 67,145  L 67,144  L 69,144  L 69,143  L 71,143  L 71,142  L 73,142  L 73,141  L 74,141  L 74,140  L 75,140  L 75,139  L 76,139  L 76,138  L 78,138  L 78,137  L 79,137  L 79,136  L 80,136  L 80,134  L 81,134  L 81,133  L 82,133  L 82,131  L 83,131  L 83,128  L 84,128  L 84,124  L 85,124  L 85,111  L 84,111  L 84,108  L 83,108  L 83,104  L 82,104  L 82,103  L 81,103  L 81,102  L 79,102  L 79,101  L 78,101  L 78,100  L 75,100  L 75,99  L 72,99  L 72,98  L 67,98  L 67,97  L 58,97  L 58,96  L 57,96  L 57,97  L 56,97  L 56,96  L 53,96  L 53,95  L 52,95  L 52,94  L 50,94  L 50,93  L 49,93  L 49,92  L 47,92  L 47,93  L 45,93  L 45,95  L 44,95  L 44,97  L 43,97  L 43,98  L 42,98  L 42,100  L 41,100  L 41,101  L 40,101  L 40,103  L 39,103  L 39,104  L 38,104  L 38,106  L 37,106  L 37,107  L 36,107  L 36,109  L 35,109  L 35,110  L 34,110  L 34,112  L 33,112  L 33,114  L 32,114  L 32,116  L 31,116  L 31,118  L 30,118  L 30,120  L 29,120  L 29,122  L 28,122  L 28,124  L 27,124  L 27,128  L 26,128  Z  M 41,112  L 42,112  L 42,111  L 43,111  L 43,109  L 44,109  L 44,108  L 45,108  L 45,107  L 47,107  L 47,106  L 48,106  L 48,105  L 51,105  L 51,104  L 59,104  L 59,105  L 60,105  L 60,104  L 61,104  L 61,105  L 70,105  L 70,106  L 73,106  L 73,107  L 74,107  L 74,108  L 75,108  L 75,109  L 77,109  L 77,112  L 78,112  L 78,122  L 77,122  L 77,126  L 76,126  L 76,128  L 75,128  L 75,130  L 74,130  L 74,132  L 73,132  L 73,133  L 72,133  L 72,134  L 71,134  L 71,135  L 70,135  L 70,136  L 69,136  L 69,137  L 66,137  L 66,138  L 64,138  L 64,139  L 63,139  L 63,140  L 61,140  L 61,141  L 60,141  L 60,140  L 59,140  L 59,141  L 56,141  L 56,142  L 43,142  L 43,141  L 37,141  L 37,140  L 36,140  L 36,139  L 35,139  L 35,138  L 34,138  L 34,136  L 33,136  L 33,129  L 34,129  L 34,128  L 33,128  L 33,127  L 34,127  L 34,124  L 35,124  L 35,122  L 36,122  L 36,120  L 37,120  L 37,118  L 38,118  L 38,115  L 39,115  L 39,114  L 40,114  L 40,113  L 41,113  Z  " style="fill:rgb(0, 0, 0); fill-opacity:1.000; stroke:none;" />
 <path d="  M 99,53  L 99,52  L 101,52  L 101,46  L 100,46  L 100,45  L 97,45  L 97,44  L 96,44  L 96,45  L 93,45  L 93,44  L 91,44  L 91,45  L 89,45  L 89,44  L 87,44  L 87,45  L 85,45  L 85,44  L 83,44  L 83,46  L 71,46  L 71,45  L 70,45  L 70,39  L 71,39  L 71,37  L 73,37  L 73,36  L 74,36  L 74,37  L 75,37  L 75,36  L 82,36  L 82,35  L 83,35  L 83,36  L 86,36  L 86,35  L 87,35  L 87,36  L 88,36  L 88,35  L 89,35  L 89,36  L 90,36  L 90,35  L 94,35  L 94,33  L 95,33  L 95,32  L 94,32  L 94,29  L 93,29  L 93,30  L 92,30  L 92,29  L 88,29  L 88,28  L 87,28  L 87,29  L 83,29  L 83,30  L 82,30  L 82,29  L 79,29  L 79,30  L 74,30  L 74,31  L 72,31  L 72,30  L 71,30  L 71,29  L 70,29  L 70,20  L 69,20  L 69,17  L 70,17  L 70,16  L 69,16  L 69,7  L 68,7  L 68,6  L 69,6  L 69,4  L 68,4  L 68,2  L 67,2  L 67,1  L 66,1  L 66,0  L 64,0  L 64,1  L 63,1  L 63,2  L 62,2  L 62,9  L 63,9  L 63,10  L 62,10  L 62,11  L 63,11  L 63,27  L 64,27  L 64,54  L 65,54  L 65,55  L 64,55  L 64,56  L 65,56  L 65,57  L 64,57  L 64,58  L 65,58  L 65,75  L 66,75  L 66,76  L 65,76  L 65,77  L 66,77  L 66,78  L 65,78  L 65,79  L 66,79  L 66,85  L 67,85  L 67,87  L 68,87  L 68,88  L 70,88  L 70,87  L 72,87  L 72,86  L 73,86  L 73,76  L 72,76  L 72,75  L 73,75  L 73,74  L 72,74  L 72,73  L 73,73  L 73,72  L 72,72  L 72,57  L 73,57  L 73,56  L 72,56  L 72,55  L 73,55  L 73,54  L 75,54  L 75,53  L 83,53  L 83,52  L 84,52  L 84,53  L 86,53  L 86,52  L 90,52  L 90,53  L 91,53  L 91,52  L 94,52  L 94,53  L 95,53  L 95,52  L 98,52  L 98,53  Z  " style="fill:rgb(0, 0, 0); fill-opacity:1.000; stroke:none;" />
</svg>
