<?xml version="1.0" encoding="UTF-8" standalone="no"?>
<!DOCTYPE svg PUBLIC "-//W3C//DTD SVG 1.1//EN" 
  "http://www.w3.org/Graphics/SVG/1.1/DTD/svg11.dtd">
<svg width="97" height="127"
     xmlns="http://www.w3.org/2000/svg" version="1.1">
 <path d="  M 4,90  L 5,90  L 5,94  L 6,94  L 6,95  L 7,95  L 7,96  L 10,96  L 10,97  L 14,97  L 14,96  L 19,96  L 19,95  L 23,95  L 23,94  L 26,94  L 26,93  L 30,93  L 30,92  L 33,92  L 33,91  L 37,91  L 37,90  L 40,90  L 40,89  L 43,89  L 43,88  L 48,88  L 48,87  L 53,87  L 53,86  L 58,86  L 58,85  L 63,85  L 63,84  L 67,84  L 67,83  L 69,83  L 69,82  L 72,82  L 72,81  L 74,81  L 74,80  L 76,80  L 76,79  L 77,79  L 77,77  L 76,77  L 76,76  L 73,76  L 73,75  L 72,75  L 72,76  L 67,76  L 67,77  L 64,77  L 64,78  L 59,78  L 59,79  L 54,79  L 54,80  L 50,80  L 50,81  L 49,81  L 49,80  L 48,80  L 48,81  L 45,81  L 45,82  L 41,82  L 41,83  L 38,83  L 38,84  L 34,84  L 34,85  L 33,85  L 33,84  L 32,84  L 32,85  L 29,85  L 29,86  L 24,86  L 24,87  L 21,87  L 21,88  L 15,88  L 15,89  L 13,89  L 13,88  L 12,88  L 12,87  L 11,87  L 11,84  L 10,84  L 10,62  L 9,62  L 9,55  L 8,55  L 8,34  L 7,34  L 7,32  L 3,32  L 3,33  L 2,33  L 2,34  L 1,34  L 1,43  L 2,43  L 2,50  L 3,50  L 3,51  L 2,51  L 2,52  L 3,52  L 3,65  L 4,65  L 4,66  L 3,66  L 3,67  L 4,67  L 4,68  L 3,68  L 3,69  L 4,69  Z  " style="fill:rgb(0, 0, 0); fill-opacity:1.000; stroke:none;" />
 <path d="  M 95,15  L 96,15  L 96,14  L 95,14  L 95,8  L 94,8  L 94,3  L 93,3  L 93,1  L 92,1  L 92,0  L 91,0  L 91,1  L 88,1  L 88,2  L 87,2  L 87,3  L 86,3  L 86,4  L 85,4  L 85,5  L 86,5  L 86,13  L 87,13  L 87,21  L 88,21  L 88,28  L 89,28  L 89,34  L 90,34  L 90,43  L 91,43  L 91,46  L 90,46  L 90,47  L 89,47  L 89,48  L 84,48  L 84,49  L 77,49  L 77,50  L 71,50  L 71,51  L 67,51  L 67,52  L 66,52  L 66,51  L 65,51  L 65,52  L 59,52  L 59,53  L 58,53  L 58,54  L 57,54  L 57,59  L 58,59  L 58,60  L 65,60  L 65,59  L 71,59  L 71,58  L 80,58  L 80,57  L 83,57  L 83,58  L 85,58  L 85,57  L 90,57  L 90,106  L 89,106  L 89,107  L 90,107  L 90,109  L 89,109  L 89,117  L 88,117  L 88,127  L 95,127  L 95,126  L 96,126  L 96,118  L 97,118  L 97,23  L 96,23  L 96,18  L 95,18  Z  " style="fill:rgb(0, 0, 0); fill-opacity:1.000; stroke:none;" />
</svg>
