<?xml version="1.0" encoding="UTF-8" standalone="no"?>
<!DOCTYPE svg PUBLIC "-//W3C//DTD SVG 1.1//EN" 
  "http://www.w3.org/Graphics/SVG/1.1/DTD/svg11.dtd">
<svg width="99" height="180"
     xmlns="http://www.w3.org/2000/svg" version="1.1">
 <path d="  M 11,37  L 10,37  L 10,36  L 11,36  L 11,33  L 10,33  L 10,30  L 11,30  L 11,29  L 10,29  L 10,26  L 11,26  L 11,25  L 10,25  L 10,21  L 9,21  L 9,19  L 7,19  L 7,18  L 3,18  L 3,19  L 2,19  L 2,20  L 1,20  L 1,22  L 0,22  L 0,23  L 2,23  L 2,26  L 3,26  L 3,46  L 4,46  L 4,47  L 3,47  L 3,50  L 4,50  L 4,52  L 3,52  L 3,54  L 4,54  L 4,56  L 3,56  L 3,58  L 4,58  L 4,61  L 3,61  L 3,62  L 4,62  L 4,73  L 5,73  L 5,77  L 6,77  L 6,79  L 7,79  L 7,80  L 8,80  L 8,81  L 9,81  L 9,82  L 11,82  L 11,83  L 13,83  L 13,84  L 23,84  L 23,83  L 30,83  L 30,82  L 34,82  L 34,81  L 35,81  L 35,82  L 36,82  L 36,81  L 40,81  L 40,80  L 44,80  L 44,79  L 45,79  L 45,80  L 47,80  L 47,79  L 53,79  L 53,78  L 56,78  L 56,76  L 57,76  L 57,75  L 58,75  L 58,72  L 59,72  L 59,71  L 60,71  L 60,70  L 59,70  L 59,68  L 55,68  L 55,69  L 51,69  L 51,70  L 49,70  L 49,71  L 44,71  L 44,72  L 41,72  L 41,73  L 34,73  L 34,74  L 30,74  L 30,75  L 25,75  L 25,76  L 21,76  L 21,77  L 17,77  L 17,76  L 16,76  L 16,77  L 15,77  L 15,76  L 14,76  L 14,75  L 13,75  L 13,73  L 12,73  L 12,69  L 11,69  Z  " style="fill:rgb(0, 0, 0); fill-opacity:1.000; stroke:none;" />
 <path d="  M 82,115  L 82,114  L 80,114  L 80,113  L 77,113  L 77,112  L 74,112  L 74,111  L 70,111  L 70,110  L 45,110  L 45,111  L 38,111  L 38,112  L 35,112  L 35,113  L 32,113  L 32,114  L 30,114  L 30,115  L 29,115  L 29,116  L 30,116  L 30,118  L 31,118  L 31,119  L 34,119  L 34,120  L 35,120  L 35,119  L 40,119  L 40,118  L 46,118  L 46,117  L 71,117  L 71,118  L 73,118  L 73,119  L 74,119  L 74,120  L 76,120  L 76,121  L 77,121  L 77,122  L 78,122  L 78,131  L 77,131  L 77,138  L 76,138  L 76,150  L 75,150  L 75,158  L 74,158  L 74,163  L 73,163  L 73,167  L 72,167  L 72,170  L 71,170  L 71,179  L 72,179  L 72,180  L 78,180  L 78,179  L 79,179  L 79,177  L 80,177  L 80,171  L 81,171  L 81,170  L 82,170  L 82,169  L 81,169  L 81,167  L 82,167  L 82,163  L 83,163  L 83,155  L 84,155  L 84,133  L 85,133  L 85,130  L 86,130  L 86,129  L 85,129  L 85,128  L 86,128  L 86,124  L 85,124  L 85,123  L 86,123  L 86,121  L 85,121  L 85,118  L 84,118  L 84,116  L 83,116  L 83,115  Z  " style="fill:rgb(0, 0, 0); fill-opacity:1.000; stroke:none;" />
 <path d="  M 99,5  L 98,5  L 98,2  L 95,2  L 95,1  L 90,1  L 90,8  L 91,8  L 91,22  L 92,22  L 92,34  L 91,34  L 91,36  L 85,36  L 85,37  L 78,37  L 78,38  L 73,38  L 73,39  L 69,39  L 69,40  L 62,40  L 62,41  L 58,41  L 58,42  L 55,42  L 55,43  L 54,43  L 54,49  L 55,49  L 55,50  L 56,50  L 56,49  L 57,49  L 57,50  L 60,50  L 60,49  L 63,49  L 63,48  L 68,48  L 68,47  L 69,47  L 69,48  L 70,48  L 70,47  L 75,47  L 75,46  L 83,46  L 83,45  L 87,45  L 87,44  L 89,44  L 89,43  L 90,43  L 90,44  L 91,44  L 91,45  L 92,45  L 92,66  L 91,66  L 91,101  L 92,101  L 92,102  L 97,102  L 97,100  L 98,100  L 98,88  L 99,88  L 99,87  L 98,87  L 98,86  L 99,86  L 99,85  L 98,85  L 98,84  L 99,84  L 99,83  L 98,83  L 98,82  L 99,82  Z  " style="fill:rgb(0, 0, 0); fill-opacity:1.000; stroke:none;" />
</svg>
