<?xml version="1.0" encoding="UTF-8" standalone="no"?>
<!DOCTYPE svg PUBLIC "-//W3C//DTD SVG 1.1//EN" 
  "http://www.w3.org/Graphics/SVG/1.1/DTD/svg11.dtd">
<svg width="102" height="158"
     xmlns="http://www.w3.org/2000/svg" version="1.1">
 <path d="  M 7,20  L 8,20  L 8,17  L 7,17  L 7,15  L 6,15  L 6,14  L 2,14  L 2,15  L 1,15  L 1,19  L 0,19  L 0,20  L 1,20  L 1,22  L 0,22  L 0,24  L 1,24  L 1,39  L 2,39  L 2,45  L 3,45  L 3,51  L 4,51  L 4,56  L 5,56  L 5,63  L 6,63  L 6,68  L 7,68  L 7,71  L 8,71  L 8,72  L 9,72  L 9,73  L 10,73  L 10,74  L 11,74  L 11,75  L 12,75  L 12,74  L 13,74  L 13,75  L 24,75  L 24,74  L 29,74  L 29,73  L 34,73  L 34,72  L 39,72  L 39,71  L 40,71  L 40,72  L 41,72  L 41,71  L 48,71  L 48,70  L 53,70  L 53,69  L 55,69  L 55,68  L 57,68  L 57,67  L 58,67  L 58,66  L 59,66  L 59,65  L 60,65  L 60,64  L 61,64  L 61,61  L 60,61  L 60,60  L 58,60  L 58,61  L 55,61  L 55,62  L 52,62  L 52,63  L 44,63  L 44,64  L 38,64  L 38,65  L 32,65  L 32,66  L 29,66  L 29,67  L 23,67  L 23,68  L 17,68  L 17,67  L 14,67  L 14,65  L 13,65  L 13,62  L 12,62  L 12,58  L 11,58  L 11,53  L 10,53  L 10,48  L 9,48  L 9,40  L 8,40  L 8,33  L 7,33  L 7,32  L 8,32  L 8,31  L 7,31  Z  " style="fill:rgb(0, 0, 0); fill-opacity:1.000; stroke:none;" />
 <path d="  M 31,146  L 30,146  L 30,144  L 31,144  L 31,143  L 30,143  L 30,129  L 29,129  L 29,128  L 30,128  L 30,102  L 25,102  L 25,103  L 24,103  L 24,105  L 23,105  L 23,113  L 22,113  L 22,114  L 23,114  L 23,117  L 22,117  L 22,146  L 23,146  L 23,151  L 24,151  L 24,152  L 25,152  L 25,154  L 26,154  L 26,156  L 27,156  L 27,157  L 30,157  L 30,158  L 55,158  L 55,157  L 61,157  L 61,156  L 68,156  L 68,155  L 75,155  L 75,154  L 80,154  L 80,153  L 85,153  L 85,152  L 93,152  L 93,151  L 95,151  L 95,152  L 96,152  L 96,151  L 100,151  L 100,150  L 102,150  L 102,143  L 96,143  L 96,144  L 92,144  L 92,145  L 85,145  L 85,146  L 80,146  L 80,147  L 74,147  L 74,148  L 73,148  L 73,147  L 72,147  L 72,148  L 68,148  L 68,149  L 63,149  L 63,150  L 57,150  L 57,151  L 48,151  L 48,152  L 45,152  L 45,151  L 44,151  L 44,152  L 35,152  L 35,151  L 33,151  L 33,150  L 32,150  L 32,149  L 31,149  Z  " style="fill:rgb(0, 0, 0); fill-opacity:1.000; stroke:none;" />
 <path d="  M 90,2  L 89,2  L 89,1  L 88,1  L 88,0  L 87,0  L 87,1  L 85,1  L 85,2  L 84,2  L 84,20  L 85,20  L 85,32  L 84,32  L 84,33  L 74,33  L 74,34  L 66,34  L 66,35  L 62,35  L 62,36  L 61,36  L 61,35  L 60,35  L 60,36  L 58,36  L 58,37  L 55,37  L 55,38  L 52,38  L 52,39  L 50,39  L 50,40  L 47,40  L 47,41  L 43,41  L 43,42  L 42,42  L 42,43  L 41,43  L 41,45  L 42,45  L 42,46  L 51,46  L 51,45  L 53,45  L 53,44  L 56,44  L 56,43  L 60,43  L 60,42  L 64,42  L 64,41  L 69,41  L 69,40  L 70,40  L 70,41  L 71,41  L 71,40  L 84,40  L 84,54  L 83,54  L 83,56  L 84,56  L 84,57  L 83,57  L 83,94  L 84,94  L 84,95  L 87,95  L 87,94  L 89,94  L 89,88  L 90,88  L 90,72  L 91,72  L 91,71  L 90,71  L 90,68  L 91,68  L 91,67  L 90,67  L 90,64  L 91,64  L 91,63  L 90,63  L 90,60  L 91,60  L 91,59  L 90,59  L 90,57  L 91,57  L 91,46  L 92,46  L 92,45  L 91,45  L 91,44  L 92,44  L 92,21  L 91,21  L 91,7  L 90,7  Z  " style="fill:rgb(0, 0, 0); fill-opacity:1.000; stroke:none;" />
</svg>
