<?xml version="1.0" encoding="UTF-8" standalone="no"?>
<!DOCTYPE svg PUBLIC "-//W3C//DTD SVG 1.1//EN" 
  "http://www.w3.org/Graphics/SVG/1.1/DTD/svg11.dtd">
<svg width="103" height="185"
     xmlns="http://www.w3.org/2000/svg" version="1.1">
 <path d="  M 13,52  L 12,52  L 12,48  L 11,48  L 11,38  L 10,38  L 10,17  L 9,17  L 9,14  L 8,14  L 8,13  L 7,13  L 7,12  L 3,12  L 3,13  L 2,13  L 2,14  L 1,14  L 1,25  L 2,25  L 2,26  L 1,26  L 1,27  L 2,27  L 2,39  L 3,39  L 3,41  L 2,41  L 2,42  L 3,42  L 3,47  L 4,47  L 4,52  L 5,52  L 5,57  L 6,57  L 6,58  L 5,58  L 5,59  L 6,59  L 6,66  L 7,66  L 7,73  L 8,73  L 8,76  L 9,76  L 9,77  L 10,77  L 10,79  L 11,79  L 11,80  L 13,80  L 13,81  L 14,81  L 14,82  L 15,82  L 15,83  L 20,83  L 20,84  L 22,84  L 22,83  L 29,83  L 29,82  L 38,82  L 38,81  L 47,81  L 47,80  L 53,80  L 53,79  L 58,79  L 58,78  L 60,78  L 60,77  L 61,77  L 61,73  L 62,73  L 62,69  L 63,69  L 63,68  L 59,68  L 59,69  L 56,69  L 56,70  L 54,70  L 54,71  L 52,71  L 52,72  L 47,72  L 47,73  L 42,73  L 42,74  L 32,74  L 32,75  L 18,75  L 18,74  L 16,74  L 16,72  L 15,72  L 15,70  L 14,70  L 14,62  L 13,62  Z  " style="fill:rgb(0, 0, 0); fill-opacity:1.000; stroke:none;" />
 <path d="  M 79,128  L 79,130  L 78,130  L 78,131  L 77,131  L 77,132  L 76,132  L 76,133  L 75,133  L 75,134  L 74,134  L 74,135  L 71,135  L 71,136  L 70,136  L 70,137  L 68,137  L 68,138  L 65,138  L 65,139  L 64,139  L 64,140  L 61,140  L 61,141  L 58,141  L 58,142  L 54,142  L 54,143  L 52,143  L 52,142  L 51,142  L 51,143  L 48,143  L 48,144  L 42,144  L 42,145  L 39,145  L 39,146  L 35,146  L 35,148  L 33,148  L 33,149  L 32,149  L 32,150  L 31,150  L 31,152  L 30,152  L 30,154  L 29,154  L 29,155  L 28,155  L 28,158  L 27,158  L 27,159  L 28,159  L 28,166  L 29,166  L 29,171  L 30,171  L 30,172  L 29,172  L 29,173  L 30,173  L 30,176  L 31,176  L 31,178  L 32,178  L 32,180  L 33,180  L 33,181  L 34,181  L 34,182  L 35,182  L 35,181  L 36,181  L 36,182  L 38,182  L 38,183  L 39,183  L 39,184  L 41,184  L 41,185  L 68,185  L 68,184  L 72,184  L 72,183  L 76,183  L 76,182  L 79,182  L 79,181  L 82,181  L 82,180  L 84,180  L 84,179  L 86,179  L 86,178  L 87,178  L 87,177  L 89,177  L 89,176  L 91,176  L 91,175  L 92,175  L 92,174  L 93,174  L 93,173  L 94,173  L 94,172  L 96,172  L 96,171  L 97,171  L 97,169  L 98,169  L 98,168  L 99,168  L 99,164  L 98,164  L 98,163  L 97,163  L 97,164  L 94,164  L 94,165  L 93,165  L 93,166  L 91,166  L 91,167  L 89,167  L 89,168  L 88,168  L 88,169  L 87,169  L 87,170  L 84,170  L 84,171  L 83,171  L 83,172  L 81,172  L 81,173  L 78,173  L 78,174  L 73,174  L 73,175  L 71,175  L 71,176  L 68,176  L 68,177  L 62,177  L 62,178  L 45,178  L 45,177  L 42,177  L 42,176  L 41,176  L 41,175  L 40,175  L 40,174  L 39,174  L 39,172  L 38,172  L 38,165  L 37,165  L 37,163  L 38,163  L 38,162  L 37,162  L 37,156  L 38,156  L 38,155  L 39,155  L 39,153  L 42,153  L 42,152  L 46,152  L 46,151  L 53,151  L 53,150  L 54,150  L 54,151  L 55,151  L 55,150  L 58,150  L 58,149  L 62,149  L 62,148  L 64,148  L 64,147  L 68,147  L 68,146  L 71,146  L 71,145  L 72,145  L 72,144  L 73,144  L 73,143  L 75,143  L 75,142  L 76,142  L 76,141  L 79,141  L 79,140  L 81,140  L 81,139  L 82,139  L 82,138  L 83,138  L 83,137  L 85,137  L 85,136  L 86,136  L 86,134  L 87,134  L 87,129  L 88,129  L 88,125  L 87,125  L 87,124  L 86,124  L 86,122  L 85,122  L 85,121  L 84,121  L 84,119  L 83,119  L 83,117  L 82,117  L 82,116  L 80,116  L 80,114  L 75,114  L 75,113  L 72,113  L 72,112  L 67,112  L 67,111  L 60,111  L 60,110  L 41,110  L 41,111  L 37,111  L 37,112  L 35,112  L 35,113  L 34,113  L 34,116  L 33,116  L 33,117  L 34,117  L 34,119  L 43,119  L 43,118  L 48,118  L 48,117  L 56,117  L 56,118  L 65,118  L 65,119  L 71,119  L 71,120  L 73,120  L 73,121  L 74,121  L 74,122  L 75,122  L 75,123  L 76,123  L 76,124  L 77,124  L 77,125  L 78,125  L 78,126  L 79,126  L 79,127  L 80,127  L 80,128  Z  " style="fill:rgb(0, 0, 0); fill-opacity:1.000; stroke:none;" />
 <path d="  M 51,44  L 51,45  L 56,45  L 56,46  L 57,46  L 57,45  L 58,45  L 58,44  L 61,44  L 61,43  L 67,43  L 67,42  L 76,42  L 76,41  L 91,41  L 91,40  L 94,40  L 94,42  L 95,42  L 95,102  L 94,102  L 94,103  L 95,103  L 95,104  L 101,104  L 101,103  L 102,103  L 102,89  L 103,89  L 103,88  L 102,88  L 102,87  L 103,87  L 103,86  L 102,86  L 102,85  L 103,85  L 103,84  L 102,84  L 102,83  L 103,83  L 103,82  L 102,82  L 102,81  L 103,81  L 103,2  L 102,2  L 102,1  L 98,1  L 98,0  L 97,0  L 97,1  L 95,1  L 95,30  L 94,30  L 94,32  L 87,32  L 87,33  L 73,33  L 73,34  L 72,34  L 72,33  L 71,33  L 71,34  L 63,34  L 63,35  L 58,35  L 58,36  L 54,36  L 54,37  L 52,37  L 52,38  L 51,38  L 51,39  L 50,39  L 50,44  Z  " style="fill:rgb(0, 0, 0); fill-opacity:1.000; stroke:none;" />
</svg>
