<?xml version="1.0" encoding="UTF-8" standalone="no"?>
<!DOCTYPE svg PUBLIC "-//W3C//DTD SVG 1.1//EN" 
  "http://www.w3.org/Graphics/SVG/1.1/DTD/svg11.dtd">
<svg width="101" height="173"
     xmlns="http://www.w3.org/2000/svg" version="1.1">
 <path d="  M 13,57  L 12,57  L 12,49  L 11,49  L 11,41  L 10,41  L 10,29  L 9,29  L 9,28  L 10,28  L 10,27  L 9,27  L 9,14  L 8,14  L 8,13  L 7,13  L 7,12  L 2,12  L 2,13  L 1,13  L 1,25  L 2,25  L 2,32  L 3,32  L 3,40  L 4,40  L 4,52  L 5,52  L 5,64  L 6,64  L 6,66  L 5,66  L 5,67  L 6,67  L 6,73  L 7,73  L 7,76  L 8,76  L 8,78  L 9,78  L 9,81  L 11,81  L 11,82  L 12,82  L 12,81  L 14,81  L 14,82  L 24,82  L 24,81  L 29,81  L 29,80  L 33,80  L 33,79  L 34,79  L 34,80  L 35,80  L 35,79  L 40,79  L 40,78  L 45,78  L 45,77  L 51,77  L 51,76  L 53,76  L 53,75  L 54,75  L 54,76  L 55,76  L 55,75  L 58,75  L 58,74  L 60,74  L 60,73  L 61,73  L 61,71  L 62,71  L 62,66  L 60,66  L 60,65  L 59,65  L 59,66  L 57,66  L 57,67  L 55,67  L 55,68  L 52,68  L 52,69  L 48,69  L 48,70  L 43,70  L 43,71  L 36,71  L 36,72  L 32,72  L 32,73  L 26,73  L 26,74  L 17,74  L 17,73  L 15,73  L 15,71  L 14,71  L 14,66  L 13,66  Z  " style="fill:rgb(0, 0, 0); fill-opacity:1.000; stroke:none;" />
 <path d="  M 51,166  L 51,165  L 52,165  L 52,164  L 54,164  L 54,163  L 56,163  L 56,162  L 59,162  L 59,163  L 60,163  L 60,166  L 62,166  L 62,167  L 64,167  L 64,168  L 65,168  L 65,169  L 67,169  L 67,170  L 69,170  L 69,169  L 70,169  L 70,170  L 77,170  L 77,169  L 82,169  L 82,168  L 87,168  L 87,167  L 89,167  L 89,166  L 91,166  L 91,167  L 94,167  L 94,166  L 95,166  L 95,165  L 97,165  L 97,164  L 98,164  L 98,161  L 99,161  L 99,159  L 100,159  L 100,153  L 101,153  L 101,111  L 100,111  L 100,108  L 99,108  L 99,107  L 98,107  L 98,106  L 97,106  L 97,105  L 94,105  L 94,106  L 92,106  L 92,113  L 93,113  L 93,117  L 94,117  L 94,119  L 93,119  L 93,120  L 94,120  L 94,127  L 95,127  L 95,131  L 96,131  L 96,132  L 94,132  L 94,133  L 73,133  L 73,132  L 72,132  L 72,133  L 66,133  L 66,129  L 67,129  L 67,127  L 68,127  L 68,116  L 69,116  L 69,115  L 68,115  L 68,111  L 65,111  L 65,112  L 62,112  L 62,114  L 61,114  L 61,115  L 60,115  L 60,116  L 59,116  L 59,119  L 58,119  L 58,120  L 59,120  L 59,133  L 58,133  L 58,134  L 59,134  L 59,135  L 58,135  L 58,136  L 59,136  L 59,137  L 58,137  L 58,149  L 57,149  L 57,156  L 56,156  L 56,157  L 54,157  L 54,156  L 50,156  L 50,157  L 47,157  L 47,158  L 45,158  L 45,159  L 43,159  L 43,160  L 41,160  L 41,161  L 39,161  L 39,162  L 37,162  L 37,163  L 35,163  L 35,164  L 33,164  L 33,165  L 29,165  L 29,166  L 19,166  L 19,165  L 16,165  L 16,164  L 14,164  L 14,163  L 13,163  L 13,162  L 14,162  L 14,161  L 13,161  L 13,159  L 12,159  L 12,156  L 13,156  L 13,154  L 14,154  L 14,152  L 15,152  L 15,150  L 16,150  L 16,149  L 17,149  L 17,148  L 19,148  L 19,147  L 20,147  L 20,146  L 21,146  L 21,145  L 24,145  L 24,144  L 27,144  L 27,143  L 29,143  L 29,142  L 31,142  L 31,141  L 33,141  L 33,140  L 36,140  L 36,139  L 37,139  L 37,138  L 40,138  L 40,137  L 42,137  L 42,135  L 43,135  L 43,134  L 44,134  L 44,133  L 45,133  L 45,131  L 46,131  L 46,129  L 47,129  L 47,126  L 48,126  L 48,122  L 47,122  L 47,120  L 46,120  L 46,119  L 45,119  L 45,118  L 44,118  L 44,117  L 43,117  L 43,116  L 42,116  L 42,115  L 41,115  L 41,114  L 39,114  L 39,113  L 38,113  L 38,112  L 37,112  L 37,111  L 35,111  L 35,110  L 33,110  L 33,109  L 29,109  L 29,108  L 26,108  L 26,107  L 24,107  L 24,108  L 22,108  L 22,107  L 21,107  L 21,108  L 18,108  L 18,107  L 17,107  L 17,109  L 16,109  L 16,108  L 15,108  L 15,109  L 14,109  L 14,114  L 13,114  L 13,115  L 12,115  L 12,116  L 13,116  L 13,117  L 14,117  L 14,118  L 15,118  L 15,117  L 19,117  L 19,116  L 24,116  L 24,115  L 27,115  L 27,116  L 32,116  L 32,117  L 33,117  L 33,118  L 35,118  L 35,119  L 36,119  L 36,120  L 38,120  L 38,121  L 39,121  L 39,123  L 40,123  L 40,127  L 39,127  L 39,129  L 38,129  L 38,130  L 37,130  L 37,131  L 36,131  L 36,132  L 34,132  L 34,133  L 31,133  L 31,135  L 28,135  L 28,136  L 25,136  L 25,137  L 23,137  L 23,138  L 20,138  L 20,139  L 19,139  L 19,140  L 17,140  L 17,141  L 15,141  L 15,142  L 13,142  L 13,143  L 11,143  L 11,144  L 10,144  L 10,146  L 9,146  L 9,147  L 7,147  L 7,149  L 6,149  L 6,151  L 5,151  L 5,153  L 4,153  L 4,154  L 5,154  L 5,155  L 4,155  L 4,156  L 5,156  L 5,157  L 4,157  L 4,158  L 5,158  L 5,161  L 6,161  L 6,163  L 7,163  L 7,165  L 8,165  L 8,166  L 9,166  L 9,167  L 10,167  L 10,168  L 9,168  L 9,169  L 10,169  L 10,170  L 11,170  L 11,171  L 14,171  L 14,172  L 16,172  L 16,173  L 33,173  L 33,172  L 37,172  L 37,171  L 40,171  L 40,170  L 41,170  L 41,169  L 43,169  L 43,168  L 45,168  L 45,167  L 48,167  L 48,166  Z  M 67,162  L 67,161  L 66,161  L 66,159  L 65,159  L 65,146  L 66,146  L 66,145  L 65,145  L 65,144  L 66,144  L 66,141  L 68,141  L 68,140  L 69,140  L 69,141  L 77,141  L 77,140  L 78,140  L 78,141  L 81,141  L 81,140  L 82,140  L 82,141  L 85,141  L 85,140  L 86,140  L 86,141  L 89,141  L 89,140  L 90,140  L 90,141  L 95,141  L 95,144  L 94,144  L 94,149  L 93,149  L 93,153  L 92,153  L 92,156  L 91,156  L 91,157  L 90,157  L 90,159  L 86,159  L 86,160  L 83,160  L 83,161  L 80,161  L 80,162  Z  " style="fill:rgb(0, 0, 0); fill-opacity:1.000; stroke:none;" />
 <path d="  M 7,167  L 8,167  L 8,166  L 7,166  Z  " style="fill:rgb(0, 0, 0); fill-opacity:1.000; stroke:none;" />
 <path d="  M 8,167  L 8,168  L 9,168  L 9,167  Z  " style="fill:rgb(0, 0, 0); fill-opacity:1.000; stroke:none;" />
 <path d="  M 13,113  L 12,113  L 12,114  L 13,114  Z  " style="fill:rgb(0, 0, 0); fill-opacity:1.000; stroke:none;" />
 <path d="  M 13,118  L 13,117  L 12,117  L 12,118  Z  " style="fill:rgb(0, 0, 0); fill-opacity:1.000; stroke:none;" />
 <path d="  M 87,65  L 86,65  L 86,66  L 87,66  L 87,69  L 86,69  L 86,93  L 85,93  L 85,94  L 86,94  L 86,95  L 87,95  L 87,96  L 89,96  L 89,95  L 91,95  L 91,94  L 92,94  L 92,88  L 93,88  L 93,87  L 92,87  L 92,85  L 93,85  L 93,82  L 92,82  L 92,81  L 93,81  L 93,68  L 94,68  L 94,67  L 93,67  L 93,66  L 94,66  L 94,65  L 93,65  L 93,64  L 94,64  L 94,52  L 95,52  L 95,51  L 94,51  L 94,48  L 95,48  L 95,47  L 94,47  L 94,45  L 95,45  L 95,43  L 94,43  L 94,42  L 95,42  L 95,39  L 94,39  L 94,38  L 95,38  L 95,33  L 94,33  L 94,32  L 95,32  L 95,31  L 94,31  L 94,28  L 95,28  L 95,27  L 94,27  L 94,24  L 95,24  L 95,23  L 94,23  L 94,20  L 95,20  L 95,19  L 94,19  L 94,13  L 93,13  L 93,12  L 94,12  L 94,11  L 93,11  L 93,4  L 92,4  L 92,3  L 91,3  L 91,1  L 89,1  L 89,0  L 87,0  L 87,1  L 86,1  L 86,2  L 85,2  L 85,9  L 86,9  L 86,20  L 87,20  L 87,35  L 80,35  L 80,36  L 77,36  L 77,35  L 76,35  L 76,36  L 72,36  L 72,37  L 71,37  L 71,36  L 68,36  L 68,37  L 67,37  L 67,36  L 66,36  L 66,37  L 51,37  L 51,39  L 50,39  L 50,40  L 51,40  L 51,42  L 52,42  L 52,43  L 53,43  L 53,44  L 55,44  L 55,45  L 57,45  L 57,44  L 77,44  L 77,43  L 78,43  L 78,44  L 80,44  L 80,43  L 81,43  L 81,44  L 84,44  L 84,43  L 86,43  L 86,44  L 87,44  L 87,57  L 86,57  L 86,58  L 87,58  L 87,61  L 86,61  L 86,62  L 87,62  Z  " style="fill:rgb(0, 0, 0); fill-opacity:1.000; stroke:none;" />
</svg>
