<?xml version="1.0" encoding="UTF-8" standalone="no"?>
<!DOCTYPE svg PUBLIC "-//W3C//DTD SVG 1.1//EN" 
  "http://www.w3.org/Graphics/SVG/1.1/DTD/svg11.dtd">
<svg width="105" height="151"
     xmlns="http://www.w3.org/2000/svg" version="1.1">
 <path d="  M 13,57  L 12,57  L 12,54  L 11,54  L 11,50  L 10,50  L 10,44  L 9,44  L 9,37  L 8,37  L 8,27  L 7,27  L 7,26  L 8,26  L 8,23  L 7,23  L 7,22  L 8,22  L 8,6  L 7,6  L 7,5  L 5,5  L 5,4  L 2,4  L 2,6  L 1,6  L 1,11  L 0,11  L 0,12  L 1,12  L 1,15  L 0,15  L 0,16  L 1,16  L 1,19  L 0,19  L 0,20  L 1,20  L 1,23  L 0,23  L 0,24  L 1,24  L 1,39  L 2,39  L 2,45  L 3,45  L 3,49  L 4,49  L 4,50  L 3,50  L 3,51  L 4,51  L 4,56  L 5,56  L 5,61  L 6,61  L 6,62  L 7,62  L 7,64  L 8,64  L 8,66  L 10,66  L 10,67  L 14,67  L 14,68  L 17,68  L 17,69  L 18,69  L 18,68  L 27,68  L 27,67  L 28,67  L 28,68  L 29,68  L 29,67  L 32,67  L 32,66  L 34,66  L 34,65  L 35,65  L 35,66  L 37,66  L 37,65  L 39,65  L 39,64  L 43,64  L 43,63  L 44,63  L 44,64  L 45,64  L 45,63  L 48,63  L 48,62  L 50,62  L 50,61  L 53,61  L 53,60  L 55,60  L 55,58  L 54,58  L 54,55  L 52,55  L 52,54  L 41,54  L 41,55  L 38,55  L 38,56  L 35,56  L 35,57  L 34,57  L 34,58  L 32,58  L 32,59  L 30,59  L 30,60  L 25,60  L 25,61  L 18,61  L 18,62  L 17,62  L 17,61  L 14,61  L 14,60  L 13,60  Z  " style="fill:rgb(0, 0, 0); fill-opacity:1.000; stroke:none;" />
 <path d="  M 72,148  L 72,147  L 81,147  L 81,146  L 88,146  L 88,145  L 96,145  L 96,144  L 102,144  L 102,143  L 104,143  L 104,142  L 105,142  L 105,136  L 100,136  L 100,137  L 96,137  L 96,138  L 88,138  L 88,139  L 80,139  L 80,140  L 72,140  L 72,141  L 64,141  L 64,142  L 60,142  L 60,143  L 56,143  L 56,144  L 53,144  L 53,143  L 52,143  L 52,144  L 49,144  L 49,145  L 36,145  L 36,144  L 35,144  L 35,143  L 34,143  L 34,140  L 33,140  L 33,137  L 32,137  L 32,127  L 31,127  L 31,126  L 32,126  L 32,125  L 31,125  L 31,124  L 32,124  L 32,123  L 31,123  L 31,116  L 32,116  L 32,115  L 31,115  L 31,114  L 32,114  L 32,113  L 31,113  L 31,112  L 32,112  L 32,111  L 31,111  L 31,110  L 32,110  L 32,109  L 31,109  L 31,108  L 32,108  L 32,94  L 28,94  L 28,95  L 26,95  L 26,96  L 25,96  L 25,101  L 24,101  L 24,136  L 25,136  L 25,139  L 24,139  L 24,140  L 25,140  L 25,142  L 26,142  L 26,146  L 27,146  L 27,148  L 28,148  L 28,149  L 30,149  L 30,151  L 55,151  L 55,150  L 60,150  L 60,149  L 65,149  L 65,148  Z  " style="fill:rgb(0, 0, 0); fill-opacity:1.000; stroke:none;" />
 <path d="  M 68,22  L 67,22  L 67,24  L 65,24  L 65,23  L 63,23  L 63,24  L 60,24  L 60,25  L 55,25  L 55,26  L 50,26  L 50,27  L 44,27  L 44,28  L 41,28  L 41,29  L 34,29  L 34,30  L 29,30  L 29,31  L 28,31  L 28,32  L 27,32  L 27,34  L 28,34  L 28,35  L 29,35  L 29,36  L 30,36  L 30,37  L 32,37  L 32,38  L 33,38  L 33,39  L 34,39  L 34,38  L 35,38  L 35,37  L 36,37  L 36,38  L 37,38  L 37,37  L 38,37  L 38,36  L 44,36  L 44,35  L 47,35  L 47,34  L 53,34  L 53,33  L 58,33  L 58,32  L 67,32  L 67,40  L 68,40  L 68,41  L 67,41  L 67,44  L 68,44  L 68,47  L 67,47  L 67,48  L 68,48  L 68,51  L 67,51  L 67,52  L 68,52  L 68,55  L 67,55  L 67,56  L 68,56  L 68,57  L 67,57  L 67,76  L 68,76  L 68,77  L 70,77  L 70,76  L 72,76  L 72,75  L 74,75  L 74,72  L 75,72  L 75,4  L 76,4  L 76,3  L 75,3  L 75,1  L 74,1  L 74,0  L 70,0  L 70,1  L 69,1  L 69,3  L 68,3  Z  " style="fill:rgb(0, 0, 0); fill-opacity:1.000; stroke:none;" />
 <path d="  M 85,48  L 86,48  L 86,50  L 85,50  L 85,51  L 86,51  L 86,70  L 87,70  L 87,71  L 86,71  L 86,74  L 87,74  L 87,76  L 86,76  L 86,77  L 87,77  L 87,80  L 88,80  L 88,81  L 93,81  L 93,80  L 95,80  L 95,71  L 94,71  L 94,69  L 95,69  L 95,67  L 94,67  L 94,65  L 95,65  L 95,63  L 94,63  L 94,60  L 95,60  L 95,59  L 94,59  L 94,56  L 95,56  L 95,55  L 94,55  L 94,52  L 95,52  L 95,51  L 94,51  L 94,41  L 93,41  L 93,40  L 94,40  L 94,39  L 93,39  L 93,36  L 94,36  L 94,35  L 93,35  L 93,23  L 92,23  L 92,20  L 93,20  L 93,19  L 92,19  L 92,9  L 91,9  L 91,7  L 90,7  L 90,6  L 87,6  L 87,5  L 84,5  L 84,6  L 85,6  L 85,7  L 84,7  L 84,22  L 85,22  L 85,24  L 84,24  L 84,26  L 85,26  L 85,28  L 84,28  L 84,30  L 85,30  Z  " style="fill:rgb(0, 0, 0); fill-opacity:1.000; stroke:none;" />
</svg>
