<?xml version="1.0" encoding="UTF-8" standalone="no"?>
<!DOCTYPE svg PUBLIC "-//W3C//DTD SVG 1.1//EN" 
  "http://www.w3.org/Graphics/SVG/1.1/DTD/svg11.dtd">
<svg width="104" height="143"
     xmlns="http://www.w3.org/2000/svg" version="1.1">
 <path d="  M 7,28  L 7,14  L 8,14  L 8,11  L 7,11  L 7,10  L 6,10  L 6,9  L 4,9  L 4,8  L 1,8  L 1,28  L 2,28  L 2,37  L 3,37  L 3,44  L 4,44  L 4,53  L 5,53  L 5,60  L 6,60  L 6,63  L 7,63  L 7,65  L 9,65  L 9,66  L 11,66  L 11,67  L 13,67  L 13,66  L 14,66  L 14,67  L 17,67  L 17,66  L 24,66  L 24,65  L 27,65  L 27,64  L 31,64  L 31,63  L 36,63  L 36,62  L 41,62  L 41,61  L 43,61  L 43,60  L 44,60  L 44,59  L 45,59  L 45,58  L 46,58  L 46,57  L 47,57  L 47,55  L 45,55  L 45,54  L 41,54  L 41,55  L 37,55  L 37,56  L 32,56  L 32,57  L 29,57  L 29,58  L 25,58  L 25,59  L 23,59  L 23,60  L 18,60  L 18,61  L 15,61  L 15,60  L 13,60  L 13,58  L 12,58  L 12,55  L 11,55  L 11,48  L 10,48  L 10,41  L 9,41  L 9,35  L 8,35  L 8,28  Z  " style="fill:rgb(0, 0, 0); fill-opacity:1.000; stroke:none;" />
 <path d="  M 71,112  L 71,113  L 72,113  L 72,114  L 73,114  L 73,115  L 74,115  L 74,116  L 75,116  L 75,117  L 77,117  L 77,118  L 78,118  L 78,119  L 79,119  L 79,120  L 82,120  L 82,121  L 84,121  L 84,122  L 85,122  L 85,123  L 86,123  L 86,124  L 89,124  L 89,125  L 92,125  L 92,126  L 95,126  L 95,127  L 97,127  L 97,128  L 100,128  L 100,129  L 103,129  L 103,128  L 104,128  L 104,123  L 102,123  L 102,122  L 97,122  L 97,121  L 94,121  L 94,120  L 93,120  L 93,119  L 91,119  L 91,118  L 89,118  L 89,117  L 87,117  L 87,116  L 85,116  L 85,115  L 83,115  L 83,114  L 82,114  L 82,113  L 80,113  L 80,112  L 79,112  L 79,110  L 77,110  L 77,108  L 76,108  L 76,107  L 75,107  L 75,104  L 74,104  L 74,101  L 75,101  L 75,97  L 76,97  L 76,93  L 77,93  L 77,91  L 78,91  L 78,89  L 77,89  L 77,88  L 75,88  L 75,87  L 74,87  L 74,88  L 73,88  L 73,87  L 72,87  L 72,88  L 71,88  L 71,90  L 70,90  L 70,91  L 69,91  L 69,93  L 68,93  L 68,96  L 67,96  L 67,98  L 66,98  L 66,102  L 65,102  L 65,104  L 64,104  L 64,106  L 63,106  L 63,109  L 62,109  L 62,112  L 61,112  L 61,115  L 60,115  L 60,118  L 59,118  L 59,121  L 58,121  L 58,122  L 57,122  L 57,119  L 56,119  L 56,118  L 55,118  L 55,117  L 54,117  L 54,116  L 51,116  L 51,115  L 49,115  L 49,114  L 48,114  L 48,113  L 45,113  L 45,112  L 42,112  L 42,111  L 40,111  L 40,110  L 37,110  L 37,109  L 36,109  L 36,108  L 34,108  L 34,105  L 35,105  L 35,103  L 36,103  L 36,102  L 37,102  L 37,100  L 38,100  L 38,99  L 39,99  L 39,98  L 40,98  L 40,97  L 41,97  L 41,96  L 42,96  L 42,94  L 43,94  L 43,89  L 44,89  L 44,84  L 43,84  L 43,82  L 41,82  L 41,83  L 39,83  L 39,84  L 38,84  L 38,93  L 37,93  L 37,95  L 36,95  L 36,96  L 35,96  L 35,97  L 34,97  L 34,98  L 32,98  L 32,99  L 31,99  L 31,101  L 30,101  L 30,102  L 29,102  L 29,104  L 28,104  L 28,105  L 27,105  L 27,107  L 26,107  L 26,108  L 25,108  L 25,110  L 24,110  L 24,111  L 23,111  L 23,113  L 22,113  L 22,114  L 21,114  L 21,115  L 20,115  L 20,116  L 19,116  L 19,117  L 18,117  L 18,119  L 17,119  L 17,120  L 15,120  L 15,122  L 14,122  L 14,123  L 13,123  L 13,124  L 12,124  L 12,125  L 11,125  L 11,126  L 10,126  L 10,128  L 9,128  L 9,129  L 8,129  L 8,130  L 7,130  L 7,133  L 8,133  L 8,134  L 10,134  L 10,135  L 11,135  L 11,134  L 13,134  L 13,133  L 14,133  L 14,130  L 15,130  L 15,129  L 16,129  L 16,128  L 17,128  L 17,127  L 18,127  L 18,125  L 19,125  L 19,124  L 21,124  L 21,122  L 22,122  L 22,121  L 23,121  L 23,120  L 24,120  L 24,119  L 25,119  L 25,118  L 26,118  L 26,117  L 27,117  L 27,115  L 28,115  L 28,114  L 30,114  L 30,113  L 31,113  L 31,114  L 33,114  L 33,115  L 34,115  L 34,116  L 38,116  L 38,117  L 41,117  L 41,118  L 44,118  L 44,119  L 46,119  L 46,120  L 48,120  L 48,121  L 49,121  L 49,122  L 51,122  L 51,123  L 52,123  L 52,130  L 51,130  L 51,132  L 50,132  L 50,134  L 49,134  L 49,136  L 48,136  L 48,140  L 47,140  L 47,143  L 53,143  L 53,141  L 54,141  L 54,138  L 55,138  L 55,135  L 56,135  L 56,134  L 57,134  L 57,132  L 58,132  L 58,130  L 59,130  L 59,128  L 60,128  L 60,127  L 61,127  L 61,126  L 62,126  L 62,125  L 63,125  L 63,123  L 64,123  L 64,122  L 65,122  L 65,120  L 66,120  L 66,117  L 67,117  L 67,115  L 68,115  L 68,113  L 69,113  L 69,111  L 70,111  L 70,112  Z  " style="fill:rgb(0, 0, 0); fill-opacity:1.000; stroke:none;" />
 <path d="  M 32,87  L 32,86  L 31,86  L 31,85  L 30,85  L 30,84  L 29,84  L 29,85  L 28,85  L 28,86  L 26,86  L 26,88  L 28,88  L 28,89  L 31,89  L 31,87  Z  " style="fill:rgb(0, 0, 0); fill-opacity:1.000; stroke:none;" />
 <path d="  M 64,24  L 63,24  L 63,26  L 58,26  L 58,27  L 55,27  L 55,28  L 53,28  L 53,27  L 52,27  L 52,28  L 48,28  L 48,29  L 45,29  L 45,30  L 42,30  L 42,31  L 36,31  L 36,32  L 30,32  L 30,34  L 29,34  L 29,35  L 30,35  L 30,37  L 31,37  L 31,39  L 33,39  L 33,40  L 34,40  L 34,39  L 36,39  L 36,38  L 37,38  L 37,37  L 41,37  L 41,36  L 43,36  L 43,37  L 44,37  L 44,36  L 49,36  L 49,35  L 55,35  L 55,34  L 63,34  L 63,71  L 64,71  L 64,72  L 65,72  L 65,73  L 67,73  L 67,72  L 68,72  L 68,71  L 69,71  L 69,65  L 70,65  L 70,62  L 69,62  L 69,61  L 70,61  L 70,58  L 69,58  L 69,57  L 70,57  L 70,54  L 69,54  L 69,53  L 70,53  L 70,9  L 71,9  L 71,8  L 70,8  L 70,5  L 71,5  L 71,4  L 70,4  L 70,3  L 69,3  L 69,2  L 68,2  L 68,0  L 64,0  Z  " style="fill:rgb(0, 0, 0); fill-opacity:1.000; stroke:none;" />
 <path d="  M 77,79  L 78,79  L 78,80  L 79,80  L 79,81  L 84,81  L 84,77  L 85,77  L 85,76  L 84,76  L 84,69  L 85,69  L 85,68  L 84,68  L 84,61  L 85,61  L 85,60  L 84,60  L 84,53  L 85,53  L 85,52  L 84,52  L 84,50  L 85,50  L 85,47  L 84,47  L 84,45  L 85,45  L 85,43  L 84,43  L 84,42  L 85,42  L 85,35  L 84,35  L 84,34  L 85,34  L 85,31  L 84,31  L 84,29  L 85,29  L 85,28  L 84,28  L 84,14  L 83,14  L 83,8  L 82,8  L 82,7  L 81,7  L 81,5  L 80,5  L 80,4  L 77,4  L 77,8  L 76,8  L 76,11  L 77,11  L 77,14  L 76,14  L 76,15  L 77,15  Z  " style="fill:rgb(0, 0, 0); fill-opacity:1.000; stroke:none;" />
</svg>
