<?xml version="1.0" encoding="UTF-8" standalone="no"?>
<!DOCTYPE svg PUBLIC "-//W3C//DTD SVG 1.1//EN" 
  "http://www.w3.org/Graphics/SVG/1.1/DTD/svg11.dtd">
<svg width="98" height="160"
     xmlns="http://www.w3.org/2000/svg" version="1.1">
 <path d="  M 34,52  L 35,52  L 35,53  L 36,53  L 36,52  L 43,52  L 43,53  L 44,53  L 44,58  L 43,58  L 43,59  L 44,59  L 44,62  L 43,62  L 43,63  L 44,63  L 44,67  L 43,67  L 43,69  L 44,69  L 44,70  L 43,70  L 43,80  L 34,80  L 34,81  L 27,81  L 27,80  L 26,80  L 26,81  L 23,81  L 23,80  L 22,80  L 22,81  L 15,81  L 15,82  L 10,82  L 10,83  L 5,83  L 5,84  L 2,84  L 2,85  L 0,85  L 0,89  L 1,89  L 1,91  L 3,91  L 3,90  L 9,90  L 9,89  L 10,89  L 10,90  L 11,90  L 11,89  L 18,89  L 18,88  L 22,88  L 22,87  L 23,87  L 23,88  L 26,88  L 26,87  L 35,87  L 35,86  L 46,86  L 46,85  L 47,85  L 47,86  L 51,86  L 51,85  L 52,85  L 52,86  L 54,86  L 54,85  L 66,85  L 66,84  L 69,84  L 69,85  L 70,85  L 70,84  L 93,84  L 93,85  L 94,85  L 94,84  L 97,84  L 97,83  L 98,83  L 98,78  L 97,78  L 97,77  L 95,77  L 95,76  L 94,76  L 94,77  L 88,77  L 88,78  L 72,78  L 72,79  L 71,79  L 71,78  L 70,78  L 70,79  L 53,79  L 53,80  L 51,80  L 51,79  L 50,79  L 50,51  L 52,51  L 52,50  L 55,50  L 55,49  L 59,49  L 59,48  L 63,48  L 63,47  L 67,47  L 67,46  L 70,46  L 70,45  L 72,45  L 72,44  L 75,44  L 75,43  L 77,43  L 77,42  L 78,42  L 78,41  L 79,41  L 79,39  L 80,39  L 80,35  L 79,35  L 79,33  L 78,33  L 78,32  L 77,32  L 77,33  L 76,33  L 76,34  L 75,34  L 75,35  L 73,35  L 73,36  L 71,36  L 71,37  L 69,37  L 69,38  L 66,38  L 66,39  L 63,39  L 63,40  L 60,40  L 60,41  L 59,41  L 59,40  L 58,40  L 58,41  L 56,41  L 56,42  L 52,42  L 52,43  L 49,43  L 49,44  L 42,44  L 42,45  L 37,45  L 37,46  L 33,46  L 33,45  L 30,45  L 30,43  L 29,43  L 29,40  L 28,40  L 28,35  L 27,35  L 27,30  L 26,30  L 26,20  L 25,20  L 25,19  L 26,19  L 26,18  L 25,18  L 25,2  L 24,2  L 24,1  L 23,1  L 23,0  L 20,0  L 20,1  L 19,1  L 19,4  L 18,4  L 18,5  L 19,5  L 19,6  L 18,6  L 18,7  L 19,7  L 19,8  L 18,8  L 18,9  L 19,9  L 19,12  L 18,12  L 18,13  L 19,13  L 19,16  L 18,16  L 18,17  L 19,17  L 19,33  L 20,33  L 20,38  L 21,38  L 21,44  L 22,44  L 22,46  L 23,46  L 23,48  L 24,48  L 24,49  L 25,49  L 25,50  L 26,50  L 26,51  L 27,51  L 27,52  L 30,52  L 30,53  L 31,53  L 31,52  L 32,52  L 32,53  L 34,53  Z  " style="fill:rgb(0, 0, 0); fill-opacity:1.000; stroke:none;" />
 <path d="  M 47,151  L 47,152  L 44,152  L 44,153  L 43,153  L 43,152  L 42,152  L 42,153  L 38,153  L 38,154  L 34,154  L 34,155  L 33,155  L 33,154  L 32,154  L 32,155  L 31,155  L 31,154  L 29,154  L 29,152  L 28,152  L 28,122  L 27,122  L 27,121  L 28,121  L 28,118  L 27,118  L 27,117  L 28,117  L 28,116  L 27,116  L 27,114  L 28,114  L 28,112  L 29,112  L 29,111  L 40,111  L 40,110  L 51,110  L 51,109  L 52,109  L 52,110  L 53,110  L 53,109  L 54,109  L 54,110  L 55,110  L 55,109  L 62,109  L 62,108  L 75,108  L 75,112  L 74,112  L 74,113  L 75,113  L 75,114  L 74,114  L 74,125  L 73,125  L 73,130  L 72,130  L 72,135  L 71,135  L 71,138  L 70,138  L 70,142  L 69,142  L 69,144  L 68,144  L 68,146  L 67,146  L 67,147  L 63,147  L 63,148  L 58,148  L 58,149  L 54,149  L 54,150  L 52,150  L 52,151  L 51,151  L 51,150  L 50,150  L 50,151  Z  M 54,156  L 54,155  L 58,155  L 58,154  L 63,154  L 63,153  L 67,153  L 67,152  L 70,152  L 70,151  L 71,151  L 71,150  L 73,150  L 73,149  L 74,149  L 74,147  L 75,147  L 75,145  L 76,145  L 76,141  L 77,141  L 77,137  L 78,137  L 78,134  L 79,134  L 79,129  L 80,129  L 80,125  L 81,125  L 81,124  L 80,124  L 80,122  L 81,122  L 81,115  L 82,115  L 82,107  L 83,107  L 83,106  L 82,106  L 82,103  L 80,103  L 80,102  L 79,102  L 79,101  L 70,101  L 70,102  L 61,102  L 61,103  L 52,103  L 52,104  L 42,104  L 42,105  L 39,105  L 39,104  L 38,104  L 38,105  L 31,105  L 31,104  L 28,104  L 28,103  L 27,103  L 27,102  L 25,102  L 25,101  L 22,101  L 22,102  L 21,102  L 21,103  L 20,103  L 20,104  L 17,104  L 17,105  L 14,105  L 14,107  L 13,107  L 13,108  L 11,108  L 11,110  L 12,110  L 12,111  L 13,111  L 13,112  L 15,112  L 15,113  L 17,113  L 17,112  L 19,112  L 19,113  L 20,113  L 20,129  L 21,129  L 21,130  L 20,130  L 20,131  L 21,131  L 21,132  L 20,132  L 20,133  L 21,133  L 21,134  L 20,134  L 20,135  L 21,135  L 21,138  L 20,138  L 20,139  L 21,139  L 21,153  L 22,153  L 22,155  L 23,155  L 23,156  L 24,156  L 24,157  L 25,157  L 25,158  L 27,158  L 27,159  L 29,159  L 29,160  L 38,160  L 38,159  L 45,159  L 45,158  L 48,158  L 48,157  L 52,157  L 52,156  Z  " style="fill:rgb(0, 0, 0); fill-opacity:1.000; stroke:none;" />
</svg>
