<?xml version="1.0" encoding="UTF-8" standalone="no"?>
<!DOCTYPE svg PUBLIC "-//W3C//DTD SVG 1.1//EN" 
  "http://www.w3.org/Graphics/SVG/1.1/DTD/svg11.dtd">
<svg width="104" height="166"
     xmlns="http://www.w3.org/2000/svg" version="1.1">
 <path d="  M 0,92  L 0,93  L 1,93  L 1,92  Z  " style="fill:rgb(0, 0, 0); fill-opacity:1.000; stroke:none;" />
 <path d="  M 2,92  L 2,91  L 1,91  L 1,92  Z  " style="fill:rgb(0, 0, 0); fill-opacity:1.000; stroke:none;" />
 <path d="  M 40,52  L 40,51  L 43,51  L 43,52  L 44,52  L 44,51  L 48,51  L 48,52  L 49,52  L 49,83  L 50,83  L 50,84  L 49,84  L 49,85  L 35,85  L 35,86  L 34,86  L 34,85  L 33,85  L 33,86  L 27,86  L 27,87  L 21,87  L 21,88  L 16,88  L 16,89  L 2,89  L 2,91  L 3,91  L 3,92  L 2,92  L 2,93  L 1,93  L 1,94  L 2,94  L 2,95  L 3,95  L 3,96  L 14,96  L 14,95  L 15,95  L 15,96  L 16,96  L 16,95  L 21,95  L 21,94  L 29,94  L 29,93  L 35,93  L 35,92  L 46,92  L 46,91  L 47,91  L 47,92  L 48,92  L 48,91  L 62,91  L 62,90  L 73,90  L 73,89  L 76,89  L 76,90  L 77,90  L 77,89  L 80,89  L 80,90  L 81,90  L 81,89  L 84,89  L 84,90  L 85,90  L 85,89  L 88,89  L 88,90  L 89,90  L 89,89  L 102,89  L 102,88  L 104,88  L 104,82  L 103,82  L 103,81  L 95,81  L 95,82  L 94,82  L 94,81  L 93,81  L 93,82  L 86,82  L 86,83  L 84,83  L 84,82  L 83,82  L 83,83  L 61,83  L 61,84  L 57,84  L 57,81  L 56,81  L 56,80  L 57,80  L 57,61  L 56,61  L 56,60  L 57,60  L 57,57  L 56,57  L 56,51  L 57,51  L 57,49  L 62,49  L 62,48  L 67,48  L 67,47  L 71,47  L 71,46  L 74,46  L 74,45  L 78,45  L 78,44  L 82,44  L 82,43  L 84,43  L 84,42  L 85,42  L 85,41  L 86,41  L 86,40  L 87,40  L 87,39  L 86,39  L 86,38  L 87,38  L 87,37  L 86,37  L 86,35  L 85,35  L 85,33  L 84,33  L 84,34  L 83,34  L 83,35  L 80,35  L 80,36  L 78,36  L 78,37  L 73,37  L 73,38  L 70,38  L 70,39  L 67,39  L 67,40  L 62,40  L 62,41  L 60,41  L 60,42  L 58,42  L 58,41  L 57,41  L 57,42  L 55,42  L 55,43  L 46,43  L 46,44  L 41,44  L 41,45  L 35,45  L 35,44  L 33,44  L 33,43  L 32,43  L 32,41  L 31,41  L 31,38  L 30,38  L 30,2  L 29,2  L 29,1  L 28,1  L 28,0  L 25,0  L 25,1  L 23,1  L 23,6  L 24,6  L 24,8  L 23,8  L 23,10  L 24,10  L 24,13  L 23,13  L 23,14  L 24,14  L 24,15  L 23,15  L 23,17  L 24,17  L 24,19  L 23,19  L 23,20  L 24,20  L 24,23  L 23,23  L 23,41  L 24,41  L 24,47  L 25,47  L 25,49  L 26,49  L 26,50  L 28,50  L 28,51  L 29,51  L 29,52  Z  " style="fill:rgb(0, 0, 0); fill-opacity:1.000; stroke:none;" />
 <path d="  M 72,117  L 72,116  L 68,116  L 68,115  L 65,115  L 65,114  L 62,114  L 62,113  L 61,113  L 61,112  L 59,112  L 59,111  L 57,111  L 57,110  L 56,110  L 56,109  L 53,109  L 53,107  L 52,107  L 52,108  L 51,108  L 51,107  L 50,107  L 50,108  L 49,108  L 49,109  L 47,109  L 47,110  L 45,110  L 45,111  L 42,111  L 42,112  L 41,112  L 41,113  L 40,113  L 40,114  L 39,114  L 39,115  L 38,115  L 38,116  L 37,116  L 37,117  L 36,117  L 36,119  L 34,119  L 34,121  L 33,121  L 33,123  L 32,123  L 32,124  L 31,124  L 31,125  L 30,125  L 30,127  L 29,127  L 29,128  L 28,128  L 28,129  L 27,129  L 27,132  L 26,132  L 26,133  L 25,133  L 25,135  L 24,135  L 24,138  L 23,138  L 23,140  L 22,140  L 22,145  L 21,145  L 21,146  L 22,146  L 22,147  L 21,147  L 21,150  L 22,150  L 22,154  L 23,154  L 23,156  L 24,156  L 24,158  L 25,158  L 25,159  L 26,159  L 26,160  L 27,160  L 27,161  L 28,161  L 28,162  L 30,162  L 30,163  L 31,163  L 31,164  L 33,164  L 33,165  L 36,165  L 36,166  L 62,166  L 62,165  L 65,165  L 65,164  L 66,164  L 66,163  L 68,163  L 68,162  L 69,162  L 69,161  L 70,161  L 70,160  L 72,160  L 72,159  L 73,159  L 73,158  L 74,158  L 74,156  L 75,156  L 75,155  L 76,155  L 76,153  L 77,153  L 77,152  L 78,152  L 78,151  L 79,151  L 79,150  L 80,150  L 80,148  L 81,148  L 81,146  L 82,146  L 82,141  L 83,141  L 83,134  L 84,134  L 84,133  L 83,133  L 83,130  L 84,130  L 84,129  L 83,129  L 83,126  L 81,126  L 81,124  L 80,124  L 80,123  L 79,123  L 79,122  L 78,122  L 78,121  L 77,121  L 77,120  L 76,120  L 76,119  L 74,119  L 74,118  L 73,118  L 73,117  Z  M 50,119  L 51,119  L 51,120  L 52,120  L 52,119  L 55,119  L 55,120  L 58,120  L 58,121  L 61,121  L 61,122  L 65,122  L 65,123  L 67,123  L 67,124  L 69,124  L 69,125  L 71,125  L 71,126  L 73,126  L 73,128  L 75,128  L 75,130  L 76,130  L 76,138  L 75,138  L 75,143  L 74,143  L 74,144  L 73,144  L 73,145  L 72,145  L 72,147  L 71,147  L 71,150  L 70,150  L 70,151  L 68,151  L 68,153  L 67,153  L 67,154  L 66,154  L 66,155  L 65,155  L 65,156  L 63,156  L 63,157  L 61,157  L 61,158  L 55,158  L 55,159  L 45,159  L 45,158  L 38,158  L 38,157  L 34,157  L 34,156  L 32,156  L 32,155  L 31,155  L 31,154  L 30,154  L 30,152  L 29,152  L 29,145  L 30,145  L 30,142  L 31,142  L 31,140  L 32,140  L 32,138  L 33,138  L 33,136  L 34,136  L 34,133  L 35,133  L 35,132  L 36,132  L 36,130  L 37,130  L 37,129  L 38,129  L 38,128  L 39,128  L 39,127  L 40,127  L 40,125  L 41,125  L 41,124  L 42,124  L 42,123  L 44,123  L 44,122  L 46,122  L 46,121  L 47,121  L 47,120  L 50,120  Z  " style="fill:rgb(0, 0, 0); fill-opacity:1.000; stroke:none;" />
</svg>
