<?xml version="1.0" encoding="UTF-8" standalone="no"?>
<!DOCTYPE svg PUBLIC "-//W3C//DTD SVG 1.1//EN" 
  "http://www.w3.org/Graphics/SVG/1.1/DTD/svg11.dtd">
<svg width="105" height="102"
     xmlns="http://www.w3.org/2000/svg" version="1.1">
 <path d="  M 38,59  L 38,60  L 37,60  L 37,61  L 38,61  L 38,62  L 37,62  L 37,63  L 38,63  L 38,64  L 37,64  L 37,66  L 38,66  L 38,68  L 37,68  L 37,72  L 38,72  L 38,73  L 37,73  L 37,75  L 38,75  L 38,77  L 37,77  L 37,78  L 27,78  L 27,79  L 24,79  L 24,80  L 16,80  L 16,81  L 10,81  L 10,82  L 2,82  L 2,83  L 1,83  L 1,89  L 6,89  L 6,88  L 10,88  L 10,87  L 16,87  L 16,86  L 17,86  L 17,87  L 19,87  L 19,86  L 23,86  L 23,85  L 30,85  L 30,84  L 36,84  L 36,83  L 44,83  L 44,82  L 45,82  L 45,83  L 47,83  L 47,82  L 56,82  L 56,81  L 64,81  L 64,80  L 71,80  L 71,75  L 69,75  L 69,74  L 65,74  L 65,75  L 60,75  L 60,76  L 54,76  L 54,77  L 43,77  L 43,63  L 44,63  L 44,62  L 43,62  L 43,59  L 44,59  L 44,58  L 43,58  L 43,55  L 44,55  L 44,49  L 43,49  L 43,48  L 44,48  L 44,47  L 48,47  L 48,46  L 50,46  L 50,47  L 51,47  L 51,46  L 56,46  L 56,45  L 57,45  L 57,46  L 58,46  L 58,45  L 64,45  L 64,44  L 66,44  L 66,43  L 67,43  L 67,41  L 66,41  L 66,39  L 64,39  L 64,38  L 60,38  L 60,39  L 55,39  L 55,40  L 49,40  L 49,41  L 42,41  L 42,42  L 38,42  L 38,43  L 36,43  L 36,42  L 35,42  L 35,43  L 32,43  L 32,44  L 23,44  L 23,45  L 18,45  L 18,44  L 16,44  L 16,43  L 15,43  L 15,41  L 14,41  L 14,38  L 13,38  L 13,27  L 12,27  L 12,25  L 13,25  L 13,23  L 12,23  L 12,21  L 13,21  L 13,20  L 12,20  L 12,17  L 13,17  L 13,15  L 12,15  L 12,12  L 13,12  L 13,8  L 11,8  L 11,7  L 7,7  L 7,8  L 6,8  L 6,12  L 5,12  L 5,13  L 6,13  L 6,16  L 5,16  L 5,17  L 6,17  L 6,20  L 5,20  L 5,21  L 6,21  L 6,24  L 5,24  L 5,25  L 6,25  L 6,28  L 5,28  L 5,29  L 6,29  L 6,35  L 7,35  L 7,43  L 8,43  L 8,44  L 9,44  L 9,45  L 10,45  L 10,46  L 11,46  L 11,48  L 13,48  L 13,50  L 14,50  L 14,51  L 16,51  L 16,52  L 20,52  L 20,51  L 24,51  L 24,50  L 26,50  L 26,51  L 27,51  L 27,50  L 33,50  L 33,49  L 36,49  L 36,50  L 37,50  L 37,55  L 38,55  L 38,56  L 37,56  L 37,59  Z  " style="fill:rgb(0, 0, 0); fill-opacity:1.000; stroke:none;" />
 <path d="  M 83,87  L 84,87  L 84,86  L 83,86  L 83,51  L 84,51  L 84,50  L 86,50  L 86,51  L 87,51  L 87,50  L 96,50  L 96,49  L 97,49  L 97,50  L 98,50  L 98,49  L 99,49  L 99,50  L 101,50  L 101,49  L 105,49  L 105,44  L 104,44  L 104,43  L 101,43  L 101,44  L 100,44  L 100,43  L 99,43  L 99,44  L 98,44  L 98,43  L 97,43  L 97,44  L 96,44  L 96,43  L 95,43  L 95,44  L 94,44  L 94,43  L 91,43  L 91,44  L 90,44  L 90,43  L 87,43  L 87,44  L 82,44  L 82,26  L 81,26  L 81,25  L 82,25  L 82,24  L 81,24  L 81,23  L 82,23  L 82,22  L 81,22  L 81,19  L 82,19  L 82,18  L 81,18  L 81,15  L 82,15  L 82,14  L 81,14  L 81,2  L 80,2  L 80,1  L 79,1  L 79,0  L 76,0  L 76,1  L 75,1  L 75,3  L 74,3  L 74,7  L 75,7  L 75,8  L 74,8  L 74,10  L 75,10  L 75,29  L 76,29  L 76,40  L 77,40  L 77,101  L 78,101  L 78,102  L 83,102  Z  " style="fill:rgb(0, 0, 0); fill-opacity:1.000; stroke:none;" />
</svg>
