<?xml version="1.0" encoding="UTF-8" standalone="no"?>
<!DOCTYPE svg PUBLIC "-//W3C//DTD SVG 1.1//EN" 
  "http://www.w3.org/Graphics/SVG/1.1/DTD/svg11.dtd">
<svg width="107" height="157"
     xmlns="http://www.w3.org/2000/svg" version="1.1">
 <path d="  M 39,48  L 38,48  L 38,47  L 39,47  L 39,45  L 40,45  L 40,44  L 51,44  L 51,43  L 59,43  L 59,44  L 61,44  L 61,43  L 63,43  L 63,42  L 65,42  L 65,39  L 64,39  L 64,38  L 65,38  L 65,37  L 63,37  L 63,35  L 58,35  L 58,34  L 57,34  L 57,35  L 49,35  L 49,36  L 48,36  L 48,35  L 47,35  L 47,36  L 38,36  L 38,37  L 25,37  L 25,36  L 22,36  L 22,35  L 21,35  L 21,34  L 20,34  L 20,32  L 19,32  L 19,23  L 18,23  L 18,2  L 13,2  L 13,3  L 11,3  L 11,4  L 10,4  L 10,21  L 11,21  L 11,22  L 10,22  L 10,24  L 11,24  L 11,26  L 10,26  L 10,27  L 11,27  L 11,37  L 12,37  L 12,39  L 13,39  L 13,41  L 15,41  L 15,42  L 16,42  L 16,43  L 17,43  L 17,42  L 18,42  L 18,43  L 23,43  L 23,44  L 31,44  L 31,48  L 32,48  L 32,49  L 31,49  L 31,52  L 32,52  L 32,55  L 31,55  L 31,56  L 32,56  L 32,75  L 31,75  L 31,76  L 28,76  L 28,75  L 26,75  L 26,76  L 22,76  L 22,77  L 19,77  L 19,78  L 15,78  L 15,79  L 12,79  L 12,80  L 9,80  L 9,81  L 7,81  L 7,82  L 3,82  L 3,83  L 1,83  L 1,88  L 2,88  L 2,89  L 8,89  L 8,88  L 11,88  L 11,87  L 13,87  L 13,86  L 16,86  L 16,85  L 17,85  L 17,86  L 18,86  L 18,85  L 20,85  L 20,84  L 24,84  L 24,83  L 25,83  L 25,84  L 27,84  L 27,83  L 31,83  L 31,82  L 34,82  L 34,83  L 60,83  L 60,82  L 64,82  L 64,81  L 65,81  L 65,78  L 64,78  L 64,77  L 63,77  L 63,76  L 61,76  L 61,75  L 55,75  L 55,76  L 52,76  L 52,75  L 51,75  L 51,76  L 48,76  L 48,75  L 40,75  L 40,74  L 39,74  Z  " style="fill:rgb(0, 0, 0); fill-opacity:1.000; stroke:none;" />
 <path d="  M 72,142  L 71,142  L 71,143  L 69,143  L 69,144  L 67,144  L 67,145  L 65,145  L 65,146  L 62,146  L 62,147  L 61,147  L 61,148  L 59,148  L 59,149  L 55,149  L 55,150  L 52,150  L 52,151  L 51,151  L 51,150  L 50,150  L 50,151  L 40,151  L 40,150  L 38,150  L 38,149  L 37,149  L 37,150  L 36,150  L 36,149  L 33,149  L 33,148  L 32,148  L 32,141  L 33,141  L 33,139  L 34,139  L 34,138  L 40,138  L 40,137  L 42,137  L 42,136  L 45,136  L 45,135  L 47,135  L 47,134  L 48,134  L 48,133  L 51,133  L 51,132  L 53,132  L 53,131  L 55,131  L 55,130  L 57,130  L 57,129  L 58,129  L 58,128  L 59,128  L 59,127  L 60,127  L 60,126  L 62,126  L 62,125  L 63,125  L 63,124  L 64,124  L 64,123  L 67,123  L 67,122  L 68,122  L 68,121  L 69,121  L 69,122  L 70,122  L 70,121  L 72,121  L 72,120  L 73,120  L 73,119  L 74,119  L 74,118  L 75,118  L 75,115  L 74,115  L 74,114  L 73,114  L 73,112  L 72,112  L 72,111  L 71,111  L 71,108  L 70,108  L 70,107  L 69,107  L 69,106  L 68,106  L 68,105  L 67,105  L 67,104  L 66,104  L 66,103  L 64,103  L 64,102  L 62,102  L 62,101  L 61,101  L 61,100  L 60,100  L 60,99  L 57,99  L 57,98  L 54,98  L 54,97  L 36,97  L 36,98  L 32,98  L 32,99  L 30,99  L 30,101  L 29,101  L 29,106  L 30,106  L 30,107  L 33,107  L 33,106  L 39,106  L 39,105  L 46,105  L 46,104  L 48,104  L 48,105  L 49,105  L 49,104  L 51,104  L 51,105  L 55,105  L 55,106  L 57,106  L 57,107  L 59,107  L 59,108  L 60,108  L 60,109  L 61,109  L 61,110  L 62,110  L 62,111  L 63,111  L 63,112  L 64,112  L 64,114  L 65,114  L 65,116  L 64,116  L 64,117  L 61,117  L 61,118  L 59,118  L 59,119  L 58,119  L 58,120  L 56,120  L 56,121  L 54,121  L 54,123  L 52,123  L 52,124  L 51,124  L 51,125  L 47,125  L 47,126  L 46,126  L 46,127  L 43,127  L 43,128  L 40,128  L 40,129  L 39,129  L 39,130  L 38,130  L 38,131  L 33,131  L 33,132  L 31,132  L 31,133  L 30,133  L 30,134  L 29,134  L 29,135  L 28,135  L 28,136  L 27,136  L 27,138  L 26,138  L 26,139  L 25,139  L 25,147  L 26,147  L 26,149  L 25,149  L 25,150  L 26,150  L 26,152  L 27,152  L 27,154  L 29,154  L 29,155  L 30,155  L 30,156  L 35,156  L 35,157  L 56,157  L 56,156  L 60,156  L 60,155  L 62,155  L 62,154  L 64,154  L 64,153  L 66,153  L 66,152  L 68,152  L 68,151  L 71,151  L 71,150  L 72,150  L 72,149  L 74,149  L 74,148  L 76,148  L 76,147  L 79,147  L 79,146  L 82,146  L 82,145  L 84,145  L 84,144  L 85,144  L 85,143  L 86,143  L 86,142  L 87,142  L 87,141  L 88,141  L 88,137  L 87,137  L 87,136  L 83,136  L 83,137  L 80,137  L 80,138  L 78,138  L 78,139  L 76,139  L 76,140  L 74,140  L 74,141  L 72,141  Z  " style="fill:rgb(0, 0, 0); fill-opacity:1.000; stroke:none;" />
 <path d="  M 74,50  L 74,53  L 73,53  L 73,54  L 74,54  L 74,57  L 73,57  L 73,58  L 74,58  L 74,65  L 73,65  L 73,66  L 74,66  L 74,83  L 75,83  L 75,90  L 76,90  L 76,91  L 77,91  L 77,92  L 78,92  L 78,93  L 80,93  L 80,92  L 82,92  L 82,89  L 81,89  L 81,88  L 82,88  L 82,86  L 81,86  L 81,69  L 80,69  L 80,68  L 81,68  L 81,67  L 80,67  L 80,66  L 81,66  L 81,65  L 80,65  L 80,64  L 81,64  L 81,63  L 80,63  L 80,62  L 81,62  L 81,48  L 82,48  L 82,47  L 83,47  L 83,46  L 86,46  L 86,45  L 90,45  L 90,44  L 106,44  L 106,43  L 107,43  L 107,38  L 106,38  L 106,37  L 97,37  L 97,38  L 96,38  L 96,37  L 94,37  L 94,38  L 92,38  L 92,37  L 91,37  L 91,38  L 83,38  L 83,39  L 82,39  L 82,38  L 81,38  L 81,33  L 80,33  L 80,12  L 81,12  L 81,11  L 80,11  L 80,8  L 81,8  L 81,7  L 80,7  L 80,6  L 81,6  L 81,3  L 80,3  L 80,2  L 79,2  L 79,1  L 78,1  L 78,0  L 74,0  L 74,4  L 73,4  L 73,46  L 74,46  L 74,47  L 73,47  L 73,48  L 74,48  L 74,49  L 73,49  L 73,50  Z  " style="fill:rgb(0, 0, 0); fill-opacity:1.000; stroke:none;" />
</svg>
