<?xml version="1.0" encoding="UTF-8" standalone="no"?>
<!DOCTYPE svg PUBLIC "-//W3C//DTD SVG 1.1//EN" 
  "http://www.w3.org/Graphics/SVG/1.1/DTD/svg11.dtd">
<svg width="105" height="134"
     xmlns="http://www.w3.org/2000/svg" version="1.1">
 <path d="  M 12,111  L 12,112  L 14,112  L 14,111  L 21,111  L 21,110  L 25,110  L 25,109  L 29,109  L 29,108  L 32,108  L 32,107  L 34,107  L 34,106  L 37,106  L 37,105  L 40,105  L 40,104  L 43,104  L 43,103  L 48,103  L 48,102  L 51,102  L 51,101  L 59,101  L 59,100  L 63,100  L 63,99  L 69,99  L 69,98  L 71,98  L 71,97  L 76,97  L 76,96  L 79,96  L 79,95  L 81,95  L 81,94  L 84,94  L 84,93  L 86,93  L 86,92  L 88,92  L 88,91  L 89,91  L 89,90  L 90,90  L 90,88  L 89,88  L 89,87  L 88,87  L 88,86  L 83,86  L 83,87  L 81,87  L 81,88  L 79,88  L 79,89  L 77,89  L 77,90  L 75,90  L 75,91  L 73,91  L 73,92  L 68,92  L 68,93  L 65,93  L 65,94  L 58,94  L 58,95  L 48,95  L 48,94  L 47,94  L 47,86  L 46,86  L 46,84  L 47,84  L 47,65  L 48,65  L 48,64  L 54,64  L 54,63  L 59,63  L 59,62  L 60,62  L 60,63  L 61,63  L 61,62  L 65,62  L 65,61  L 71,61  L 71,60  L 76,60  L 76,59  L 77,59  L 77,58  L 78,58  L 78,57  L 79,57  L 79,56  L 80,56  L 80,54  L 81,54  L 81,52  L 80,52  L 80,51  L 79,51  L 79,52  L 78,52  L 78,51  L 77,51  L 77,52  L 74,52  L 74,53  L 70,53  L 70,54  L 66,54  L 66,55  L 60,55  L 60,56  L 59,56  L 59,55  L 58,55  L 58,56  L 54,56  L 54,57  L 52,57  L 52,58  L 47,58  L 47,59  L 41,59  L 41,60  L 38,60  L 38,61  L 32,61  L 32,62  L 25,62  L 25,63  L 20,63  L 20,62  L 18,62  L 18,61  L 16,61  L 16,60  L 15,60  L 15,57  L 14,57  L 14,54  L 13,54  L 13,35  L 12,35  L 12,34  L 13,34  L 13,31  L 12,31  L 12,30  L 13,30  L 13,21  L 14,21  L 14,18  L 12,18  L 12,17  L 9,17  L 9,18  L 8,18  L 8,19  L 7,19  L 7,22  L 6,22  L 6,54  L 7,54  L 7,55  L 6,55  L 6,56  L 7,56  L 7,58  L 8,58  L 8,62  L 9,62  L 9,64  L 10,64  L 10,65  L 11,65  L 11,66  L 13,66  L 13,68  L 15,68  L 15,69  L 16,69  L 16,68  L 17,68  L 17,69  L 18,69  L 18,70  L 22,70  L 22,69  L 27,69  L 27,68  L 34,68  L 34,67  L 35,67  L 35,68  L 36,68  L 36,67  L 39,67  L 39,68  L 40,68  L 40,72  L 41,72  L 41,73  L 40,73  L 40,74  L 41,74  L 41,77  L 40,77  L 40,78  L 41,78  L 41,79  L 40,79  L 40,80  L 41,80  L 41,81  L 40,81  L 40,84  L 41,84  L 41,85  L 40,85  L 40,98  L 37,98  L 37,99  L 32,99  L 32,100  L 29,100  L 29,101  L 26,101  L 26,102  L 23,102  L 23,103  L 20,103  L 20,104  L 16,104  L 16,105  L 12,105  L 12,106  L 5,106  L 5,107  L 2,107  L 2,108  L 1,108  L 1,109  L 0,109  L 0,110  L 1,110  L 1,112  L 2,112  L 2,113  L 8,113  L 8,112  L 11,112  L 11,111  Z  " style="fill:rgb(0, 0, 0); fill-opacity:1.000; stroke:none;" />
 <path d="  M 105,29  L 104,29  L 104,28  L 105,28  L 105,27  L 104,27  L 104,20  L 103,20  L 103,18  L 104,18  L 104,17  L 103,17  L 103,13  L 102,13  L 102,5  L 101,5  L 101,2  L 100,2  L 100,0  L 96,0  L 96,1  L 95,1  L 95,2  L 94,2  L 94,10  L 95,10  L 95,14  L 96,14  L 96,22  L 97,22  L 97,29  L 98,29  L 98,39  L 99,39  L 99,119  L 98,119  L 98,134  L 104,134  L 104,129  L 105,129  Z  " style="fill:rgb(0, 0, 0); fill-opacity:1.000; stroke:none;" />
</svg>
