<?xml version="1.0" encoding="UTF-8" standalone="no"?>
<!DOCTYPE svg PUBLIC "-//W3C//DTD SVG 1.1//EN" 
  "http://www.w3.org/Graphics/SVG/1.1/DTD/svg11.dtd">
<svg width="104" height="174"
     xmlns="http://www.w3.org/2000/svg" version="1.1">
 <path d="  M 38,64  L 39,64  L 39,78  L 40,78  L 40,81  L 39,81  L 39,82  L 32,82  L 32,83  L 30,83  L 30,82  L 29,82  L 29,83  L 26,83  L 26,84  L 19,84  L 19,85  L 12,85  L 12,86  L 8,86  L 8,87  L 7,87  L 7,86  L 4,86  L 4,87  L 3,87  L 3,86  L 1,86  L 1,87  L 2,87  L 2,88  L 1,88  L 1,89  L 0,89  L 0,90  L 1,90  L 1,91  L 2,91  L 2,92  L 3,92  L 3,93  L 4,93  L 4,94  L 12,94  L 12,93  L 14,93  L 14,92  L 22,92  L 22,91  L 31,91  L 31,90  L 32,90  L 32,91  L 33,91  L 33,90  L 36,90  L 36,89  L 42,89  L 42,88  L 43,88  L 43,89  L 44,89  L 44,88  L 49,88  L 49,87  L 58,87  L 58,86  L 59,86  L 59,87  L 62,87  L 62,86  L 63,86  L 63,87  L 65,87  L 65,86  L 67,86  L 67,87  L 70,87  L 70,86  L 71,86  L 71,87  L 74,87  L 74,86  L 75,86  L 75,87  L 84,87  L 84,86  L 85,86  L 85,85  L 86,85  L 86,82  L 85,82  L 85,80  L 83,80  L 83,79  L 82,79  L 82,78  L 80,78  L 80,79  L 79,79  L 79,78  L 77,78  L 77,79  L 76,79  L 76,78  L 73,78  L 73,79  L 66,79  L 66,78  L 65,78  L 65,79  L 58,79  L 58,80  L 47,80  L 47,72  L 46,72  L 46,71  L 47,71  L 47,68  L 46,68  L 46,67  L 47,67  L 47,64  L 46,64  L 46,63  L 47,63  L 47,62  L 46,62  L 46,57  L 47,57  L 47,56  L 52,56  L 52,55  L 58,55  L 58,54  L 64,54  L 64,53  L 70,53  L 70,52  L 76,52  L 76,51  L 78,51  L 78,49  L 80,49  L 80,47  L 81,47  L 81,46  L 80,46  L 80,43  L 79,43  L 79,42  L 74,42  L 74,43  L 72,43  L 72,44  L 69,44  L 69,45  L 65,45  L 65,46  L 57,46  L 57,47  L 51,47  L 51,48  L 40,48  L 40,49  L 32,49  L 32,50  L 23,50  L 23,49  L 21,49  L 21,48  L 20,48  L 20,46  L 19,46  L 19,44  L 18,44  L 18,39  L 17,39  L 17,24  L 18,24  L 18,19  L 19,19  L 19,18  L 18,18  L 18,9  L 19,9  L 19,8  L 18,8  L 18,6  L 17,6  L 17,5  L 15,5  L 15,4  L 12,4  L 12,5  L 10,5  L 10,26  L 9,26  L 9,44  L 10,44  L 10,48  L 11,48  L 11,49  L 12,49  L 12,51  L 14,51  L 14,53  L 15,53  L 15,54  L 16,54  L 16,55  L 17,55  L 17,57  L 38,57  Z  " style="fill:rgb(0, 0, 0); fill-opacity:1.000; stroke:none;" />
 <path d="  M 100,157  L 101,157  L 101,156  L 102,156  L 102,151  L 101,151  L 101,150  L 98,150  L 98,151  L 96,151  L 96,152  L 95,152  L 95,153  L 93,153  L 93,154  L 92,154  L 92,155  L 91,155  L 91,156  L 90,156  L 90,157  L 89,157  L 89,158  L 88,158  L 88,159  L 86,159  L 86,160  L 85,160  L 85,161  L 84,161  L 84,162  L 81,162  L 81,163  L 78,163  L 78,164  L 76,164  L 76,165  L 74,165  L 74,166  L 73,166  L 73,165  L 72,165  L 72,166  L 68,166  L 68,167  L 61,167  L 61,168  L 60,168  L 60,167  L 55,167  L 55,166  L 49,166  L 49,165  L 46,165  L 46,164  L 44,164  L 44,163  L 43,163  L 43,162  L 42,162  L 42,160  L 41,160  L 41,156  L 40,156  L 40,155  L 41,155  L 41,153  L 42,153  L 42,152  L 43,152  L 43,151  L 44,151  L 44,150  L 46,150  L 46,149  L 54,149  L 54,148  L 60,148  L 60,147  L 62,147  L 62,146  L 65,146  L 65,145  L 67,145  L 67,144  L 69,144  L 69,143  L 71,143  L 71,141  L 72,141  L 72,140  L 73,140  L 73,138  L 74,138  L 74,137  L 75,137  L 75,136  L 76,136  L 76,135  L 77,135  L 77,134  L 78,134  L 78,132  L 80,132  L 80,131  L 81,131  L 81,130  L 82,130  L 82,129  L 85,129  L 85,128  L 86,128  L 86,127  L 87,127  L 87,126  L 88,126  L 88,124  L 89,124  L 89,122  L 90,122  L 90,119  L 89,119  L 89,117  L 88,117  L 88,115  L 86,115  L 86,114  L 85,114  L 85,113  L 84,113  L 84,111  L 82,111  L 82,110  L 79,110  L 79,109  L 78,109  L 78,108  L 75,108  L 75,107  L 72,107  L 72,106  L 66,106  L 66,105  L 62,105  L 62,104  L 56,104  L 56,103  L 49,103  L 49,104  L 41,104  L 41,105  L 39,105  L 39,106  L 37,106  L 37,108  L 36,108  L 36,111  L 37,111  L 37,112  L 39,112  L 39,113  L 45,113  L 45,112  L 49,112  L 49,111  L 61,111  L 61,112  L 64,112  L 64,113  L 66,113  L 66,112  L 67,112  L 67,113  L 68,113  L 68,115  L 72,115  L 72,116  L 75,116  L 75,117  L 77,117  L 77,119  L 79,119  L 79,122  L 78,122  L 78,124  L 77,124  L 77,125  L 75,125  L 75,126  L 74,126  L 74,127  L 73,127  L 73,128  L 71,128  L 71,129  L 70,129  L 70,130  L 69,130  L 69,132  L 68,132  L 68,133  L 67,133  L 67,134  L 65,134  L 65,135  L 66,135  L 66,136  L 64,136  L 64,137  L 62,137  L 62,138  L 60,138  L 60,139  L 57,139  L 57,140  L 52,140  L 52,141  L 49,141  L 49,142  L 44,142  L 44,143  L 40,143  L 40,144  L 37,144  L 37,145  L 36,145  L 36,146  L 35,146  L 35,147  L 34,147  L 34,149  L 33,149  L 33,151  L 32,151  L 32,155  L 33,155  L 33,157  L 32,157  L 32,158  L 33,158  L 33,161  L 34,161  L 34,164  L 35,164  L 35,165  L 36,165  L 36,166  L 37,166  L 37,167  L 38,167  L 38,168  L 39,168  L 39,169  L 42,169  L 42,170  L 44,170  L 44,171  L 47,171  L 47,172  L 48,172  L 48,173  L 52,173  L 52,174  L 73,174  L 73,173  L 76,173  L 76,172  L 80,172  L 80,171  L 82,171  L 82,170  L 84,170  L 84,169  L 86,169  L 86,168  L 88,168  L 88,167  L 90,167  L 90,166  L 91,166  L 91,165  L 93,165  L 93,164  L 94,164  L 94,163  L 95,163  L 95,162  L 97,162  L 97,161  L 98,161  L 98,160  L 99,160  L 99,159  L 100,159  Z  " style="fill:rgb(0, 0, 0); fill-opacity:1.000; stroke:none;" />
 <path d="  M 104,2  L 102,2  L 102,1  L 97,1  L 97,3  L 96,3  L 96,8  L 97,8  L 97,10  L 96,10  L 96,11  L 97,11  L 97,14  L 96,14  L 96,15  L 97,15  L 97,18  L 96,18  L 96,19  L 97,19  L 97,44  L 98,44  L 98,46  L 97,46  L 97,47  L 98,47  L 98,82  L 97,82  L 97,83  L 98,83  L 98,86  L 97,86  L 97,87  L 98,87  L 98,94  L 97,94  L 97,95  L 98,95  L 98,99  L 99,99  L 99,100  L 103,100  L 103,99  L 104,99  Z  " style="fill:rgb(0, 0, 0); fill-opacity:1.000; stroke:none;" />
</svg>
