<?xml version="1.0" encoding="UTF-8" standalone="no"?>
<!DOCTYPE svg PUBLIC "-//W3C//DTD SVG 1.1//EN" 
  "http://www.w3.org/Graphics/SVG/1.1/DTD/svg11.dtd">
<svg width="108" height="105"
     xmlns="http://www.w3.org/2000/svg" version="1.1">
 <path d="  M 38,59  L 38,61  L 37,61  L 37,63  L 38,63  L 38,66  L 37,66  L 37,67  L 38,67  L 38,69  L 37,69  L 37,72  L 38,72  L 38,73  L 37,73  L 37,75  L 38,75  L 38,78  L 37,78  L 37,79  L 38,79  L 38,82  L 37,82  L 37,83  L 38,83  L 38,86  L 37,86  L 37,87  L 38,87  L 38,89  L 37,89  L 37,96  L 32,96  L 32,95  L 31,95  L 31,96  L 25,96  L 25,97  L 24,97  L 24,96  L 23,96  L 23,97  L 16,97  L 16,98  L 9,98  L 9,99  L 4,99  L 4,100  L 1,100  L 1,101  L 0,101  L 0,103  L 1,103  L 1,105  L 13,105  L 13,104  L 18,104  L 18,103  L 19,103  L 19,104  L 20,104  L 20,103  L 29,103  L 29,102  L 43,102  L 43,103  L 90,103  L 90,102  L 91,102  L 91,103  L 93,103  L 93,102  L 95,102  L 95,103  L 97,103  L 97,102  L 100,102  L 100,103  L 101,103  L 101,102  L 104,102  L 104,103  L 105,103  L 105,102  L 108,102  L 108,97  L 106,97  L 106,96  L 99,96  L 99,97  L 98,97  L 98,96  L 97,96  L 97,97  L 83,97  L 83,98  L 81,98  L 81,97  L 80,97  L 80,98  L 77,98  L 77,97  L 72,97  L 72,96  L 71,96  L 71,95  L 72,95  L 72,94  L 71,94  L 71,54  L 72,54  L 72,50  L 73,50  L 73,49  L 74,49  L 74,48  L 82,48  L 82,47  L 88,47  L 88,46  L 89,46  L 89,45  L 91,45  L 91,43  L 92,43  L 92,41  L 91,41  L 91,39  L 89,39  L 89,38  L 88,38  L 88,39  L 85,39  L 85,40  L 81,40  L 81,41  L 77,41  L 77,42  L 72,42  L 72,43  L 69,43  L 69,44  L 63,44  L 63,45  L 57,45  L 57,46  L 56,46  L 56,45  L 55,45  L 55,46  L 44,46  L 44,47  L 38,47  L 38,48  L 24,48  L 24,46  L 23,46  L 23,45  L 22,45  L 22,42  L 21,42  L 21,28  L 20,28  L 20,2  L 19,2  L 19,0  L 15,0  L 15,2  L 14,2  L 14,26  L 15,26  L 15,45  L 16,45  L 16,50  L 17,50  L 17,51  L 18,51  L 18,53  L 20,53  L 20,54  L 32,54  L 32,55  L 33,55  L 33,54  L 34,54  L 34,55  L 35,55  L 35,54  L 36,54  L 36,55  L 38,55  L 38,58  L 37,58  L 37,59  Z  M 43,96  L 43,95  L 42,95  L 42,94  L 43,94  L 43,92  L 44,92  L 44,86  L 43,86  L 43,85  L 44,85  L 44,78  L 43,78  L 43,77  L 44,77  L 44,54  L 45,54  L 45,53  L 46,53  L 46,52  L 56,52  L 56,51  L 57,51  L 57,52  L 58,52  L 58,51  L 65,51  L 65,97  L 44,97  L 44,96  Z  " style="fill:rgb(0, 0, 0); fill-opacity:1.000; stroke:none;" />
</svg>
