<?xml version="1.0" encoding="UTF-8" standalone="no"?>
<!DOCTYPE svg PUBLIC "-//W3C//DTD SVG 1.1//EN" 
  "http://www.w3.org/Graphics/SVG/1.1/DTD/svg11.dtd">
<svg width="98" height="173"
     xmlns="http://www.w3.org/2000/svg" version="1.1">
 <path d="  M 91,96  L 91,95  L 92,95  L 92,96  L 95,96  L 95,95  L 97,95  L 97,94  L 98,94  L 98,88  L 92,88  L 92,89  L 86,89  L 86,90  L 70,90  L 70,91  L 68,91  L 68,90  L 67,90  L 67,86  L 66,86  L 66,83  L 67,83  L 67,82  L 66,82  L 66,50  L 67,50  L 67,49  L 66,49  L 66,47  L 65,47  L 65,45  L 68,45  L 68,44  L 75,44  L 75,43  L 78,43  L 78,42  L 80,42  L 80,41  L 81,41  L 81,40  L 82,40  L 82,39  L 84,39  L 84,37  L 85,37  L 85,34  L 84,34  L 84,33  L 82,33  L 82,32  L 79,32  L 79,33  L 78,33  L 78,34  L 76,34  L 76,35  L 74,35  L 74,36  L 69,36  L 69,37  L 64,37  L 64,38  L 58,38  L 58,39  L 54,39  L 54,40  L 50,40  L 50,41  L 43,41  L 43,42  L 32,42  L 32,41  L 29,41  L 29,40  L 28,40  L 28,35  L 27,35  L 27,7  L 28,7  L 28,6  L 27,6  L 27,4  L 28,4  L 28,3  L 27,3  L 27,1  L 25,1  L 25,0  L 22,0  L 22,1  L 21,1  L 21,2  L 20,2  L 20,4  L 21,4  L 21,5  L 20,5  L 20,7  L 21,7  L 21,16  L 20,16  L 20,17  L 21,17  L 21,19  L 20,19  L 20,21  L 21,21  L 21,22  L 20,22  L 20,37  L 21,37  L 21,42  L 22,42  L 22,43  L 23,43  L 23,44  L 24,44  L 24,46  L 25,46  L 25,47  L 27,47  L 27,48  L 30,48  L 30,49  L 36,49  L 36,55  L 37,55  L 37,64  L 36,64  L 36,65  L 37,65  L 37,66  L 36,66  L 36,67  L 37,67  L 37,68  L 36,68  L 36,91  L 35,91  L 35,92  L 29,92  L 29,93  L 21,93  L 21,94  L 16,94  L 16,95  L 15,95  L 15,94  L 14,94  L 14,95  L 12,95  L 12,96  L 5,96  L 5,97  L 2,97  L 2,98  L 1,98  L 1,103  L 3,103  L 3,104  L 4,104  L 4,105  L 9,105  L 9,104  L 11,104  L 11,103  L 14,103  L 14,102  L 16,102  L 16,101  L 19,101  L 19,100  L 27,100  L 27,99  L 40,99  L 40,98  L 41,98  L 41,99  L 42,99  L 42,98  L 45,98  L 45,99  L 46,99  L 46,98  L 49,98  L 49,99  L 50,99  L 50,98  L 53,98  L 53,99  L 54,99  L 54,98  L 57,98  L 57,99  L 58,99  L 58,98  L 63,98  L 63,97  L 75,97  L 75,96  L 76,96  L 76,97  L 79,97  L 79,96  L 80,96  L 80,97  L 81,97  L 81,96  Z  M 43,91  L 43,71  L 44,71  L 44,69  L 43,69  L 43,67  L 44,67  L 44,65  L 43,65  L 43,63  L 44,63  L 44,61  L 43,61  L 43,59  L 44,59  L 44,56  L 43,56  L 43,55  L 44,55  L 44,52  L 43,52  L 43,49  L 44,49  L 44,48  L 51,48  L 51,47  L 59,47  L 59,46  L 61,46  L 61,47  L 60,47  L 60,49  L 59,49  L 59,78  L 60,78  L 60,80  L 59,80  L 59,81  L 60,81  L 60,82  L 59,82  L 59,83  L 60,83  L 60,87  L 59,87  L 59,88  L 60,88  L 60,91  Z  M 63,47  L 63,46  L 64,46  L 64,47  Z  " style="fill:rgb(0, 0, 0); fill-opacity:1.000; stroke:none;" />
 <path d="  M 79,131  L 80,131  L 80,129  L 81,129  L 81,125  L 82,125  L 82,120  L 81,120  L 81,119  L 80,119  L 80,118  L 79,118  L 79,117  L 78,117  L 78,116  L 75,116  L 75,115  L 55,115  L 55,116  L 46,116  L 46,117  L 37,117  L 37,118  L 26,118  L 26,119  L 23,119  L 23,118  L 22,118  L 22,119  L 18,119  L 18,121  L 17,121  L 17,125  L 18,125  L 18,126  L 21,126  L 21,127  L 24,127  L 24,126  L 25,126  L 25,127  L 26,127  L 26,126  L 29,126  L 29,125  L 30,125  L 30,126  L 32,126  L 32,125  L 41,125  L 41,124  L 47,124  L 47,123  L 48,123  L 48,124  L 49,124  L 49,123  L 69,123  L 69,124  L 70,124  L 70,125  L 71,125  L 71,126  L 72,126  L 72,130  L 71,130  L 71,131  L 70,131  L 70,134  L 69,134  L 69,139  L 68,139  L 68,142  L 67,142  L 67,147  L 66,147  L 66,152  L 65,152  L 65,153  L 66,153  L 66,154  L 65,154  L 65,156  L 64,156  L 64,163  L 63,163  L 63,166  L 62,166  L 62,172  L 63,172  L 63,173  L 69,173  L 69,171  L 70,171  L 70,168  L 71,168  L 71,163  L 72,163  L 72,159  L 73,159  L 73,158  L 72,158  L 72,157  L 73,157  L 73,153  L 74,153  L 74,148  L 75,148  L 75,143  L 76,143  L 76,139  L 77,139  L 77,137  L 78,137  L 78,136  L 77,136  L 77,135  L 78,135  L 78,133  L 79,133  Z  " style="fill:rgb(0, 0, 0); fill-opacity:1.000; stroke:none;" />
</svg>
