<?xml version="1.0" encoding="UTF-8" standalone="no"?>
<!DOCTYPE svg PUBLIC "-//W3C//DTD SVG 1.1//EN" 
  "http://www.w3.org/Graphics/SVG/1.1/DTD/svg11.dtd">
<svg width="105" height="171"
     xmlns="http://www.w3.org/2000/svg" version="1.1">
 <path d="  M 45,62  L 44,62  L 44,61  L 45,61  L 45,60  L 44,60  L 44,59  L 45,59  L 45,58  L 44,58  L 44,53  L 46,53  L 46,52  L 51,52  L 51,51  L 56,51  L 56,50  L 62,50  L 62,49  L 63,49  L 63,51  L 64,51  L 64,52  L 63,52  L 63,54  L 62,54  L 62,83  L 63,83  L 63,84  L 62,84  L 62,86  L 63,86  L 63,88  L 62,88  L 62,91  L 63,91  L 63,92  L 62,92  L 62,97  L 63,97  L 63,99  L 64,99  L 64,100  L 62,100  L 62,101  L 56,101  L 56,100  L 55,100  L 55,101  L 47,101  L 47,102  L 45,102  L 45,100  L 44,100  L 44,99  L 45,99  L 45,97  L 44,97  L 44,85  L 45,85  L 45,83  L 44,83  L 44,77  L 45,77  L 45,76  L 44,76  L 44,73  L 45,73  L 45,71  L 44,71  L 44,69  L 45,69  L 45,66  L 44,66  L 44,65  L 45,65  Z  M 37,100  L 38,100  L 38,102  L 37,102  L 37,103  L 28,103  L 28,104  L 19,104  L 19,105  L 16,105  L 16,104  L 15,104  L 15,105  L 12,105  L 12,104  L 11,104  L 11,105  L 1,105  L 1,107  L 0,107  L 0,110  L 1,110  L 1,111  L 2,111  L 2,112  L 6,112  L 6,113  L 7,113  L 7,112  L 10,112  L 10,113  L 11,113  L 11,112  L 12,112  L 12,113  L 15,113  L 15,112  L 16,112  L 16,113  L 19,113  L 19,112  L 20,112  L 20,113  L 23,113  L 23,112  L 28,112  L 28,111  L 36,111  L 36,110  L 37,110  L 37,111  L 38,111  L 38,110  L 47,110  L 47,109  L 57,109  L 57,108  L 58,108  L 58,109  L 59,109  L 59,108  L 68,108  L 68,107  L 82,107  L 82,106  L 83,106  L 83,107  L 84,107  L 84,106  L 94,106  L 94,105  L 103,105  L 103,104  L 104,104  L 104,103  L 105,103  L 105,97  L 104,97  L 104,96  L 103,96  L 103,97  L 97,97  L 97,98  L 90,98  L 90,99  L 82,99  L 82,100  L 81,100  L 81,99  L 78,99  L 78,100  L 76,100  L 76,99  L 74,99  L 74,100  L 71,100  L 71,99  L 70,99  L 70,94  L 69,94  L 69,50  L 68,50  L 68,48  L 69,48  L 69,49  L 70,49  L 70,48  L 75,48  L 75,47  L 80,47  L 80,46  L 83,46  L 83,45  L 85,45  L 85,44  L 86,44  L 86,42  L 87,42  L 87,38  L 86,38  L 86,37  L 85,37  L 85,36  L 81,36  L 81,37  L 79,37  L 79,38  L 77,38  L 77,39  L 75,39  L 75,40  L 74,40  L 74,39  L 73,39  L 73,40  L 67,40  L 67,41  L 63,41  L 63,42  L 58,42  L 58,43  L 52,43  L 52,44  L 47,44  L 47,45  L 41,45  L 41,46  L 32,46  L 32,45  L 31,45  L 31,44  L 30,44  L 30,40  L 29,40  L 29,2  L 28,2  L 28,1  L 27,1  L 27,0  L 25,0  L 25,1  L 24,1  L 24,2  L 23,2  L 23,4  L 22,4  L 22,6  L 23,6  L 23,20  L 22,20  L 22,21  L 23,21  L 23,28  L 22,28  L 22,29  L 23,29  L 23,30  L 22,30  L 22,33  L 23,33  L 23,34  L 22,34  L 22,41  L 23,41  L 23,46  L 24,46  L 24,48  L 25,48  L 25,50  L 26,50  L 26,51  L 29,51  L 29,52  L 31,52  L 31,53  L 35,53  L 35,54  L 36,54  L 36,57  L 37,57  L 37,61  L 38,61  L 38,66  L 37,66  L 37,69  L 38,69  L 38,70  L 37,70  Z  " style="fill:rgb(0, 0, 0); fill-opacity:1.000; stroke:none;" />
 <path d="  M 66,158  L 66,159  L 64,159  L 64,158  L 63,158  L 63,159  L 60,159  L 60,160  L 55,160  L 55,161  L 52,161  L 52,162  L 46,162  L 46,163  L 42,163  L 42,164  L 30,164  L 30,129  L 31,129  L 31,128  L 30,128  L 30,127  L 31,127  L 31,123  L 32,123  L 32,119  L 27,119  L 27,120  L 25,120  L 25,121  L 24,121  L 24,122  L 23,122  L 23,167  L 24,167  L 24,170  L 25,170  L 25,171  L 44,171  L 44,170  L 50,170  L 50,169  L 56,169  L 56,168  L 62,168  L 62,167  L 65,167  L 65,166  L 70,166  L 70,165  L 77,165  L 77,164  L 82,164  L 82,163  L 87,163  L 87,162  L 90,162  L 90,161  L 96,161  L 96,160  L 98,160  L 98,159  L 99,159  L 99,158  L 100,158  L 100,154  L 99,154  L 99,153  L 98,153  L 98,152  L 96,152  L 96,153  L 93,153  L 93,154  L 90,154  L 90,155  L 87,155  L 87,156  L 79,156  L 79,157  L 75,157  L 75,158  L 73,158  L 73,157  L 72,157  L 72,158  Z  " style="fill:rgb(0, 0, 0); fill-opacity:1.000; stroke:none;" />
</svg>
