<?xml version="1.0" encoding="UTF-8" standalone="no"?>
<!DOCTYPE svg PUBLIC "-//W3C//DTD SVG 1.1//EN" 
  "http://www.w3.org/Graphics/SVG/1.1/DTD/svg11.dtd">
<svg width="98" height="170"
     xmlns="http://www.w3.org/2000/svg" version="1.1">
 <path d="  M 28,29  L 27,29  L 27,13  L 28,13  L 28,12  L 27,12  L 27,9  L 28,9  L 28,8  L 27,8  L 27,5  L 28,5  L 28,2  L 27,2  L 27,1  L 26,1  L 26,0  L 22,0  L 22,1  L 21,1  L 21,3  L 20,3  L 20,30  L 19,30  L 19,31  L 20,31  L 20,34  L 21,34  L 21,38  L 22,38  L 22,41  L 23,41  L 23,42  L 24,42  L 24,43  L 25,43  L 25,44  L 27,44  L 27,45  L 29,45  L 29,46  L 30,46  L 30,47  L 32,47  L 32,48  L 34,48  L 34,53  L 35,53  L 35,54  L 34,54  L 34,83  L 35,83  L 35,84  L 29,84  L 29,85  L 27,85  L 27,84  L 26,84  L 26,86  L 24,86  L 24,87  L 21,87  L 21,88  L 16,88  L 16,89  L 15,89  L 15,88  L 14,88  L 14,89  L 12,89  L 12,90  L 5,90  L 5,91  L 3,91  L 3,90  L 2,90  L 2,91  L 1,91  L 1,97  L 5,97  L 5,98  L 9,98  L 9,99  L 11,99  L 11,98  L 12,98  L 12,99  L 15,99  L 15,98  L 20,98  L 20,96  L 21,96  L 21,95  L 25,95  L 25,94  L 26,94  L 26,93  L 27,93  L 27,94  L 28,94  L 28,93  L 32,93  L 32,92  L 33,92  L 33,93  L 34,93  L 34,92  L 37,92  L 37,93  L 38,93  L 38,92  L 41,92  L 41,93  L 44,93  L 44,92  L 45,92  L 45,93  L 46,93  L 46,92  L 48,92  L 48,93  L 52,93  L 52,92  L 53,92  L 53,93  L 54,93  L 54,92  L 56,92  L 56,93  L 94,93  L 94,91  L 95,91  L 95,90  L 97,90  L 97,89  L 98,89  L 98,83  L 93,83  L 93,84  L 72,84  L 72,85  L 69,85  L 69,83  L 68,83  L 68,81  L 69,81  L 69,80  L 68,80  L 68,79  L 69,79  L 69,78  L 68,78  L 68,77  L 69,77  L 69,54  L 68,54  L 68,53  L 69,53  L 69,47  L 70,47  L 70,46  L 71,46  L 71,45  L 78,45  L 78,44  L 83,44  L 83,43  L 86,43  L 86,41  L 87,41  L 87,39  L 88,39  L 88,34  L 87,34  L 87,33  L 84,33  L 84,34  L 81,34  L 81,35  L 78,35  L 78,36  L 72,36  L 72,37  L 67,37  L 67,38  L 61,38  L 61,39  L 57,39  L 57,40  L 50,40  L 50,41  L 35,41  L 35,40  L 32,40  L 32,39  L 31,39  L 31,38  L 30,38  L 30,36  L 29,36  L 29,34  L 28,34  Z  M 41,71  L 42,71  L 42,70  L 41,70  L 41,69  L 42,69  L 42,68  L 41,68  L 41,67  L 42,67  L 42,64  L 41,64  L 41,63  L 42,63  L 42,50  L 43,50  L 43,49  L 45,49  L 45,48  L 49,48  L 49,49  L 51,49  L 51,48  L 58,48  L 58,47  L 61,47  L 61,48  L 62,48  L 62,83  L 61,83  L 61,84  L 58,84  L 58,83  L 57,83  L 57,84  L 54,84  L 54,83  L 53,83  L 53,84  L 50,84  L 50,83  L 49,83  L 49,84  L 48,84  L 48,83  L 45,83  L 45,84  L 42,84  L 42,83  L 41,83  Z  " style="fill:rgb(0, 0, 0); fill-opacity:1.000; stroke:none;" />
 <path d="  M 72,117  L 72,115  L 71,115  L 71,113  L 70,113  L 70,112  L 69,112  L 69,111  L 68,111  L 68,110  L 67,110  L 67,109  L 66,109  L 66,108  L 64,108  L 64,107  L 61,107  L 61,106  L 56,106  L 56,105  L 50,105  L 50,106  L 49,106  L 49,105  L 46,105  L 46,106  L 34,106  L 34,107  L 25,107  L 25,108  L 24,108  L 24,109  L 23,109  L 23,110  L 24,110  L 24,111  L 23,111  L 23,113  L 24,113  L 24,115  L 25,115  L 25,116  L 26,116  L 26,117  L 30,117  L 30,116  L 32,116  L 32,115  L 35,115  L 35,114  L 36,114  L 36,115  L 37,115  L 37,114  L 41,114  L 41,113  L 55,113  L 55,114  L 60,114  L 60,115  L 62,115  L 62,117  L 63,117  L 63,119  L 64,119  L 64,121  L 63,121  L 63,122  L 62,122  L 62,123  L 60,123  L 60,124  L 59,124  L 59,125  L 58,125  L 58,126  L 56,126  L 56,129  L 55,129  L 55,130  L 54,130  L 54,132  L 52,132  L 52,134  L 51,134  L 51,136  L 46,136  L 46,137  L 43,137  L 43,138  L 38,138  L 38,139  L 27,139  L 27,138  L 26,138  L 26,139  L 21,139  L 21,140  L 20,140  L 20,142  L 19,142  L 19,143  L 18,143  L 18,145  L 17,145  L 17,154  L 18,154  L 18,155  L 17,155  L 17,156  L 18,156  L 18,157  L 19,157  L 19,158  L 20,158  L 20,162  L 21,162  L 21,163  L 23,163  L 23,164  L 24,164  L 24,165  L 25,165  L 25,167  L 27,167  L 27,168  L 30,168  L 30,169  L 34,169  L 34,170  L 53,170  L 53,169  L 60,169  L 60,168  L 64,168  L 64,167  L 67,167  L 67,166  L 70,166  L 70,165  L 73,165  L 73,164  L 76,164  L 76,163  L 78,163  L 78,162  L 81,162  L 81,161  L 83,161  L 83,160  L 85,160  L 85,159  L 87,159  L 87,157  L 88,157  L 88,156  L 89,156  L 89,155  L 91,155  L 91,154  L 92,154  L 92,153  L 91,153  L 91,152  L 90,152  L 90,151  L 89,151  L 89,150  L 85,150  L 85,151  L 84,151  L 84,152  L 82,152  L 82,153  L 80,153  L 80,154  L 78,154  L 78,155  L 76,155  L 76,156  L 73,156  L 73,157  L 70,157  L 70,158  L 66,158  L 66,159  L 64,159  L 64,160  L 58,160  L 58,161  L 55,161  L 55,162  L 49,162  L 49,163  L 48,163  L 48,162  L 45,162  L 45,163  L 44,163  L 44,162  L 41,162  L 41,163  L 40,163  L 40,162  L 35,162  L 35,161  L 32,161  L 32,160  L 30,160  L 30,159  L 28,159  L 28,158  L 27,158  L 27,157  L 26,157  L 26,156  L 25,156  L 25,148  L 26,148  L 26,147  L 29,147  L 29,146  L 34,146  L 34,147  L 35,147  L 35,146  L 36,146  L 36,147  L 37,147  L 37,146  L 38,146  L 38,147  L 39,147  L 39,146  L 42,146  L 42,147  L 43,147  L 43,146  L 46,146  L 46,147  L 47,147  L 47,146  L 49,146  L 49,145  L 50,145  L 50,146  L 52,146  L 52,145  L 53,145  L 53,144  L 56,144  L 56,143  L 57,143  L 57,142  L 58,142  L 58,141  L 59,141  L 59,139  L 60,139  L 60,137  L 61,137  L 61,135  L 62,135  L 62,132  L 63,132  L 63,131  L 65,131  L 65,130  L 66,130  L 66,129  L 67,129  L 67,127  L 70,127  L 70,126  L 72,126  L 72,125  L 73,125  L 73,124  L 74,124  L 74,120  L 73,120  L 73,117  Z  " style="fill:rgb(0, 0, 0); fill-opacity:1.000; stroke:none;" />
</svg>
