<?xml version="1.0" encoding="UTF-8" standalone="no"?>
<!DOCTYPE svg PUBLIC "-//W3C//DTD SVG 1.1//EN" 
  "http://www.w3.org/Graphics/SVG/1.1/DTD/svg11.dtd">
<svg width="109" height="144"
     xmlns="http://www.w3.org/2000/svg" version="1.1">
 <path d="  M 90,66  L 90,67  L 65,67  L 65,68  L 64,68  L 64,67  L 63,67  L 63,68  L 49,68  L 49,69  L 40,69  L 40,70  L 31,70  L 31,71  L 24,71  L 24,72  L 22,72  L 22,71  L 21,71  L 21,72  L 12,72  L 12,73  L 5,73  L 5,74  L 1,74  L 1,77  L 0,77  L 0,79  L 1,79  L 1,80  L 2,80  L 2,82  L 4,82  L 4,81  L 8,81  L 8,80  L 10,80  L 10,79  L 17,79  L 17,78  L 25,78  L 25,77  L 26,77  L 26,78  L 27,78  L 27,77  L 32,77  L 32,76  L 39,76  L 39,75  L 40,75  L 40,76  L 43,76  L 43,75  L 49,75  L 49,74  L 50,74  L 50,75  L 51,75  L 51,74  L 52,74  L 52,77  L 51,77  L 51,89  L 52,89  L 52,100  L 53,100  L 53,101  L 52,101  L 52,104  L 53,104  L 53,105  L 52,105  L 52,120  L 51,120  L 51,121  L 52,121  L 52,122  L 51,122  L 51,123  L 52,123  L 52,124  L 51,124  L 51,136  L 50,136  L 50,137  L 51,137  L 51,143  L 52,143  L 52,144  L 58,144  L 58,143  L 59,143  L 59,131  L 60,131  L 60,123  L 61,123  L 61,110  L 62,110  L 62,100  L 61,100  L 61,96  L 60,96  L 60,90  L 59,90  L 59,80  L 58,80  L 58,75  L 57,75  L 57,74  L 62,74  L 62,75  L 63,75  L 63,74  L 77,74  L 77,73  L 79,73  L 79,74  L 81,74  L 81,73  L 83,73  L 83,74  L 84,74  L 84,73  L 96,73  L 96,72  L 100,72  L 100,71  L 108,71  L 108,70  L 109,70  L 109,66  L 108,66  L 108,65  L 107,65  L 107,64  L 106,64  L 106,63  L 100,63  L 100,64  L 98,64  L 98,65  L 96,65  L 96,66  Z  " style="fill:rgb(0, 0, 0); fill-opacity:1.000; stroke:none;" />
 <path d="  M 18,29  L 19,29  L 19,35  L 20,35  L 20,41  L 21,41  L 21,44  L 22,44  L 22,45  L 21,45  L 21,46  L 22,46  L 22,48  L 23,48  L 23,50  L 24,50  L 24,49  L 25,49  L 25,50  L 26,50  L 26,51  L 34,51  L 34,52  L 35,52  L 35,51  L 41,51  L 41,50  L 53,50  L 53,49  L 54,49  L 54,50  L 55,50  L 55,49  L 56,49  L 56,50  L 57,50  L 57,49  L 58,49  L 58,50  L 59,50  L 59,49  L 67,49  L 67,48  L 81,48  L 81,47  L 91,47  L 91,46  L 92,46  L 92,45  L 93,45  L 93,43  L 92,43  L 92,41  L 91,41  L 91,38  L 89,38  L 89,37  L 88,37  L 88,38  L 84,38  L 84,39  L 81,39  L 81,40  L 76,40  L 76,41  L 68,41  L 68,42  L 59,42  L 59,43  L 57,43  L 57,42  L 56,42  L 56,43  L 49,43  L 49,44  L 30,44  L 30,43  L 29,43  L 29,42  L 28,42  L 28,40  L 27,40  L 27,34  L 26,34  L 26,31  L 25,31  L 25,27  L 24,27  L 24,13  L 25,13  L 25,2  L 24,2  L 24,1  L 22,1  L 22,0  L 21,0  L 21,1  L 19,1  L 19,4  L 18,4  L 18,5  L 19,5  L 19,7  L 18,7  Z  " style="fill:rgb(0, 0, 0); fill-opacity:1.000; stroke:none;" />
</svg>
