<?xml version="1.0" encoding="UTF-8" standalone="no"?>
<!DOCTYPE svg PUBLIC "-//W3C//DTD SVG 1.1//EN" 
  "http://www.w3.org/Graphics/SVG/1.1/DTD/svg11.dtd">
<svg width="108" height="152"
     xmlns="http://www.w3.org/2000/svg" version="1.1">
 <path d="  M 49,68  L 49,67  L 53,67  L 53,66  L 55,66  L 55,67  L 56,67  L 56,69  L 57,69  L 57,70  L 56,70  L 56,100  L 55,100  L 55,101  L 52,101  L 52,102  L 51,102  L 51,101  L 50,101  L 50,102  L 43,102  L 43,103  L 42,103  L 42,102  L 41,102  L 41,103  L 35,103  L 35,102  L 33,102  L 33,101  L 31,101  L 31,102  L 29,102  L 29,104  L 22,104  L 22,105  L 21,105  L 21,106  L 20,106  L 20,110  L 21,110  L 21,111  L 27,111  L 27,116  L 28,116  L 28,145  L 29,145  L 29,147  L 30,147  L 30,149  L 32,149  L 32,150  L 34,150  L 34,151  L 36,151  L 36,152  L 51,152  L 51,151  L 55,151  L 55,150  L 59,150  L 59,149  L 63,149  L 63,148  L 67,148  L 67,147  L 70,147  L 70,146  L 75,146  L 75,145  L 78,145  L 78,144  L 80,144  L 80,143  L 81,143  L 81,142  L 82,142  L 82,141  L 84,141  L 84,138  L 85,138  L 85,137  L 86,137  L 86,133  L 87,133  L 87,130  L 88,130  L 88,125  L 89,125  L 89,117  L 90,117  L 90,107  L 91,107  L 91,105  L 90,105  L 90,99  L 89,99  L 89,98  L 88,98  L 88,97  L 83,97  L 83,98  L 76,98  L 76,99  L 70,99  L 70,98  L 69,98  L 69,99  L 64,99  L 64,98  L 63,98  L 63,81  L 64,81  L 64,80  L 63,80  L 63,78  L 64,78  L 64,71  L 63,71  L 63,70  L 64,70  L 64,67  L 66,67  L 66,66  L 81,66  L 81,65  L 90,65  L 90,64  L 97,64  L 97,63  L 102,63  L 102,62  L 105,62  L 105,61  L 108,61  L 108,54  L 107,54  L 107,53  L 105,53  L 105,52  L 102,52  L 102,53  L 101,53  L 101,54  L 98,54  L 98,55  L 95,55  L 95,56  L 94,56  L 94,57  L 93,57  L 93,56  L 92,56  L 92,57  L 88,57  L 88,58  L 80,58  L 80,59  L 79,59  L 79,58  L 78,58  L 78,59  L 75,59  L 75,58  L 74,58  L 74,59  L 69,59  L 69,60  L 68,60  L 68,59  L 65,59  L 65,60  L 63,60  L 63,59  L 62,59  L 62,60  L 53,60  L 53,61  L 41,61  L 41,62  L 24,62  L 24,63  L 16,63  L 16,64  L 5,64  L 5,63  L 3,63  L 3,64  L 1,64  L 1,65  L 0,65  L 0,69  L 1,69  L 1,70  L 3,70  L 3,71  L 4,71  L 4,72  L 8,72  L 8,71  L 12,71  L 12,70  L 23,70  L 23,69  L 34,69  L 34,68  L 35,68  L 35,69  L 36,69  L 36,68  Z  M 83,119  L 82,119  L 82,120  L 83,120  L 83,121  L 82,121  L 82,127  L 81,127  L 81,131  L 80,131  L 80,134  L 79,134  L 79,136  L 78,136  L 78,137  L 77,137  L 77,138  L 75,138  L 75,139  L 73,139  L 73,140  L 69,140  L 69,141  L 65,141  L 65,142  L 63,142  L 63,143  L 58,143  L 58,144  L 55,144  L 55,145  L 53,145  L 53,146  L 49,146  L 49,147  L 46,147  L 46,148  L 40,148  L 40,149  L 38,149  L 38,147  L 37,147  L 37,146  L 36,146  L 36,144  L 35,144  L 35,122  L 34,122  L 34,121  L 35,121  L 35,110  L 39,110  L 39,109  L 45,109  L 45,108  L 53,108  L 53,107  L 58,107  L 58,106  L 70,106  L 70,105  L 79,105  L 79,104  L 82,104  L 82,105  L 83,105  Z  " style="fill:rgb(0, 0, 0); fill-opacity:1.000; stroke:none;" />
 <path d="  M 26,4  L 25,4  L 25,5  L 26,5  L 26,8  L 25,8  L 25,9  L 26,9  L 26,10  L 25,10  L 25,13  L 26,13  L 26,14  L 25,14  L 25,30  L 26,30  L 26,32  L 25,32  L 25,33  L 26,33  L 26,38  L 27,38  L 27,39  L 26,39  L 26,40  L 27,40  L 27,42  L 28,42  L 28,44  L 29,44  L 29,45  L 30,45  L 30,46  L 33,46  L 33,47  L 46,47  L 46,46  L 47,46  L 47,47  L 48,47  L 48,46  L 60,46  L 60,45  L 66,45  L 66,44  L 74,44  L 74,43  L 77,43  L 77,42  L 81,42  L 81,41  L 84,41  L 84,40  L 88,40  L 88,39  L 90,39  L 90,38  L 91,38  L 91,36  L 92,36  L 92,33  L 91,33  L 91,32  L 90,32  L 90,31  L 87,31  L 87,32  L 85,32  L 85,33  L 83,33  L 83,34  L 80,34  L 80,35  L 77,35  L 77,36  L 72,36  L 72,37  L 67,37  L 67,38  L 60,38  L 60,39  L 53,39  L 53,40  L 35,40  L 35,39  L 34,39  L 34,37  L 33,37  L 33,28  L 32,28  L 32,27  L 33,27  L 33,24  L 32,24  L 32,1  L 31,1  L 31,0  L 27,0  L 27,1  L 26,1  Z  " style="fill:rgb(0, 0, 0); fill-opacity:1.000; stroke:none;" />
</svg>
