<?xml version="1.0" encoding="UTF-8" standalone="no"?>
<!DOCTYPE svg PUBLIC "-//W3C//DTD SVG 1.1//EN" 
  "http://www.w3.org/Graphics/SVG/1.1/DTD/svg11.dtd">
<svg width="104" height="163"
     xmlns="http://www.w3.org/2000/svg" version="1.1">
 <path d="  M 97,67  L 97,66  L 100,66  L 100,65  L 103,65  L 103,64  L 104,64  L 104,57  L 103,57  L 103,56  L 98,56  L 98,57  L 96,57  L 96,58  L 95,58  L 95,59  L 94,59  L 94,58  L 93,58  L 93,59  L 92,59  L 92,60  L 86,60  L 86,61  L 79,61  L 79,62  L 69,62  L 69,63  L 61,63  L 61,64  L 53,64  L 53,65  L 44,65  L 44,66  L 36,66  L 36,67  L 27,67  L 27,68  L 26,68  L 26,67  L 25,67  L 25,68  L 16,68  L 16,69  L 2,69  L 2,71  L 0,71  L 0,74  L 1,74  L 1,76  L 4,76  L 4,77  L 5,77  L 5,76  L 18,76  L 18,75  L 19,75  L 19,76  L 20,76  L 20,75  L 28,75  L 28,74  L 37,74  L 37,73  L 42,73  L 42,72  L 52,72  L 52,71  L 56,71  L 56,83  L 55,83  L 55,84  L 56,84  L 56,87  L 55,87  L 55,88  L 56,88  L 56,93  L 55,93  L 55,94  L 56,94  L 56,96  L 55,96  L 55,98  L 56,98  L 56,99  L 55,99  L 55,102  L 56,102  L 56,103  L 55,103  L 55,111  L 54,111  L 54,112  L 45,112  L 45,113  L 43,113  L 43,114  L 41,114  L 41,115  L 40,115  L 40,116  L 39,116  L 39,118  L 38,118  L 38,119  L 36,119  L 36,120  L 35,120  L 35,121  L 34,121  L 34,122  L 33,122  L 33,123  L 32,123  L 32,125  L 31,125  L 31,126  L 30,126  L 30,127  L 29,127  L 29,128  L 28,128  L 28,130  L 27,130  L 27,132  L 26,132  L 26,134  L 25,134  L 25,135  L 24,135  L 24,140  L 23,140  L 23,149  L 24,149  L 24,154  L 25,154  L 25,155  L 26,155  L 26,156  L 27,156  L 27,157  L 28,157  L 28,158  L 29,158  L 29,159  L 30,159  L 30,160  L 31,160  L 31,161  L 33,161  L 33,162  L 36,162  L 36,163  L 62,163  L 62,162  L 65,162  L 65,161  L 66,161  L 66,160  L 69,160  L 69,158  L 70,158  L 70,157  L 71,157  L 71,156  L 72,156  L 72,155  L 73,155  L 73,154  L 74,154  L 74,152  L 75,152  L 75,151  L 76,151  L 76,150  L 77,150  L 77,149  L 78,149  L 78,147  L 79,147  L 79,146  L 80,146  L 80,144  L 81,144  L 81,142  L 82,142  L 82,138  L 83,138  L 83,134  L 84,134  L 84,133  L 83,133  L 83,130  L 84,130  L 84,129  L 83,129  L 83,124  L 82,124  L 82,123  L 81,123  L 81,121  L 80,121  L 80,120  L 78,120  L 78,119  L 77,119  L 77,118  L 76,118  L 76,117  L 75,117  L 75,116  L 74,116  L 74,115  L 71,115  L 71,114  L 69,114  L 69,113  L 65,113  L 65,112  L 63,112  L 63,73  L 64,73  L 64,72  L 63,72  L 63,71  L 64,71  L 64,70  L 68,70  L 68,69  L 69,69  L 69,70  L 70,70  L 70,69  L 82,69  L 82,68  L 90,68  L 90,67  Z  M 70,147  L 69,147  L 69,149  L 68,149  L 68,150  L 67,150  L 67,151  L 66,151  L 66,152  L 65,152  L 65,153  L 64,153  L 64,154  L 61,154  L 61,155  L 57,155  L 57,156  L 54,156  L 54,155  L 53,155  L 53,156  L 42,156  L 42,155  L 40,155  L 40,156  L 39,156  L 39,155  L 37,155  L 37,154  L 35,154  L 35,153  L 33,153  L 33,152  L 32,152  L 32,151  L 31,151  L 31,150  L 30,150  L 30,143  L 31,143  L 31,140  L 32,140  L 32,137  L 33,137  L 33,135  L 34,135  L 34,134  L 35,134  L 35,132  L 36,132  L 36,130  L 37,130  L 37,128  L 38,128  L 38,127  L 40,127  L 40,126  L 41,126  L 41,125  L 42,125  L 42,124  L 44,124  L 44,123  L 45,123  L 45,122  L 47,122  L 47,121  L 53,121  L 53,120  L 58,120  L 58,121  L 62,121  L 62,120  L 63,120  L 63,121  L 67,121  L 67,122  L 70,122  L 70,123  L 72,123  L 72,124  L 73,124  L 73,126  L 74,126  L 74,127  L 75,127  L 75,130  L 76,130  L 76,136  L 75,136  L 75,139  L 74,139  L 74,141  L 73,141  L 73,143  L 72,143  L 72,144  L 71,144  L 71,146  L 70,146  Z  " style="fill:rgb(0, 0, 0); fill-opacity:1.000; stroke:none;" />
 <path d="  M 37,43  L 37,42  L 33,42  L 33,41  L 32,41  L 32,40  L 31,40  L 31,34  L 30,34  L 30,28  L 29,28  L 29,1  L 24,1  L 24,3  L 23,3  L 23,12  L 22,12  L 22,13  L 23,13  L 23,17  L 22,17  L 22,20  L 23,20  L 23,21  L 22,21  L 22,25  L 23,25  L 23,27  L 22,27  L 22,28  L 23,28  L 23,36  L 24,36  L 24,42  L 25,42  L 25,43  L 26,43  L 26,46  L 27,46  L 27,47  L 28,47  L 28,48  L 31,48  L 31,49  L 33,49  L 33,50  L 34,50  L 34,49  L 35,49  L 35,50  L 36,50  L 36,49  L 37,49  L 37,50  L 38,50  L 38,49  L 39,49  L 39,50  L 40,50  L 40,49  L 52,49  L 52,48  L 62,48  L 62,47  L 70,47  L 70,46  L 78,46  L 78,45  L 82,45  L 82,44  L 84,44  L 84,43  L 85,43  L 85,42  L 86,42  L 86,40  L 87,40  L 87,39  L 88,39  L 88,37  L 87,37  L 87,35  L 83,35  L 83,36  L 82,36  L 82,37  L 80,37  L 80,38  L 76,38  L 76,39  L 68,39  L 68,40  L 61,40  L 61,41  L 52,41  L 52,42  L 50,42  L 50,41  L 49,41  L 49,42  L 44,42  L 44,43  Z  " style="fill:rgb(0, 0, 0); fill-opacity:1.000; stroke:none;" />
</svg>
