<?xml version="1.0" encoding="UTF-8" standalone="no"?>
<!DOCTYPE svg PUBLIC "-//W3C//DTD SVG 1.1//EN" 
  "http://www.w3.org/Graphics/SVG/1.1/DTD/svg11.dtd">
<svg width="105" height="113"
     xmlns="http://www.w3.org/2000/svg" version="1.1">
 <path d="  M 62,51  L 62,52  L 61,52  L 61,53  L 59,53  L 59,54  L 58,54  L 58,53  L 56,53  L 56,54  L 51,54  L 51,55  L 49,55  L 49,54  L 48,54  L 48,55  L 39,55  L 39,56  L 26,56  L 26,57  L 18,57  L 18,58  L 12,58  L 12,59  L 9,59  L 9,60  L 6,60  L 6,61  L 5,61  L 5,60  L 4,60  L 4,61  L 2,61  L 2,62  L 1,62  L 1,64  L 0,64  L 0,67  L 1,67  L 1,68  L 4,68  L 4,67  L 7,67  L 7,66  L 10,66  L 10,65  L 13,65  L 13,64  L 19,64  L 19,63  L 29,63  L 29,66  L 28,66  L 28,105  L 29,105  L 29,106  L 30,106  L 30,107  L 32,107  L 32,106  L 33,106  L 33,104  L 34,104  L 34,103  L 35,103  L 35,99  L 36,99  L 36,96  L 35,96  L 35,95  L 36,95  L 36,89  L 35,89  L 35,82  L 34,82  L 34,66  L 35,66  L 35,65  L 34,65  L 34,64  L 35,64  L 35,62  L 40,62  L 40,61  L 49,61  L 49,60  L 50,60  L 50,61  L 51,61  L 51,60  L 57,60  L 57,59  L 61,59  L 61,58  L 64,58  L 64,57  L 71,57  L 71,53  L 70,53  L 70,52  L 69,52  L 69,51  L 68,51  L 68,50  L 65,50  L 65,51  Z  " style="fill:rgb(0, 0, 0); fill-opacity:1.000; stroke:none;" />
 <path d="  M 3,27  L 4,27  L 4,28  L 3,28  L 3,29  L 4,29  L 4,36  L 5,36  L 5,40  L 6,40  L 6,41  L 7,41  L 7,43  L 9,43  L 9,44  L 10,44  L 10,45  L 11,45  L 11,46  L 12,46  L 12,45  L 13,45  L 13,46  L 24,46  L 24,45  L 33,45  L 33,44  L 41,44  L 41,43  L 48,43  L 48,42  L 50,42  L 50,41  L 56,41  L 56,40  L 60,40  L 60,39  L 61,39  L 61,38  L 62,38  L 62,34  L 61,34  L 61,33  L 60,33  L 60,32  L 58,32  L 58,33  L 55,33  L 55,34  L 52,34  L 52,35  L 49,35  L 49,36  L 43,36  L 43,37  L 39,37  L 39,38  L 32,38  L 32,39  L 29,39  L 29,38  L 28,38  L 28,39  L 24,39  L 24,40  L 16,40  L 16,41  L 13,41  L 13,40  L 12,40  L 12,37  L 11,37  L 11,32  L 10,32  L 10,31  L 11,31  L 11,30  L 10,30  L 10,7  L 11,7  L 11,6  L 10,6  L 10,5  L 8,5  L 8,4  L 6,4  L 6,5  L 5,5  L 5,6  L 4,6  L 4,7  L 3,7  Z  " style="fill:rgb(0, 0, 0); fill-opacity:1.000; stroke:none;" />
 <path d="  M 48,75  L 48,76  L 45,76  L 45,77  L 43,77  L 43,79  L 42,79  L 42,81  L 43,81  L 43,82  L 49,82  L 49,81  L 52,81  L 52,80  L 56,80  L 56,79  L 61,79  L 61,78  L 62,78  L 62,79  L 63,79  L 63,78  L 76,78  L 76,77  L 77,77  L 77,79  L 78,79  L 78,91  L 79,91  L 79,92  L 78,92  L 78,99  L 79,99  L 79,104  L 80,104  L 80,105  L 83,105  L 83,103  L 84,103  L 84,52  L 83,52  L 83,51  L 84,51  L 84,50  L 83,50  L 83,34  L 82,34  L 82,24  L 81,24  L 81,23  L 82,23  L 82,22  L 81,22  L 81,21  L 82,21  L 82,20  L 81,20  L 81,9  L 80,9  L 80,7  L 79,7  L 79,6  L 78,6  L 78,7  L 77,7  L 77,6  L 75,6  L 75,8  L 74,8  L 74,23  L 75,23  L 75,24  L 74,24  L 74,25  L 75,25  L 75,35  L 76,35  L 76,44  L 77,44  L 77,45  L 76,45  L 76,47  L 77,47  L 77,56  L 78,56  L 78,69  L 77,69  L 77,70  L 76,70  L 76,71  L 75,71  L 75,70  L 74,70  L 74,71  L 64,71  L 64,72  L 60,72  L 60,73  L 56,73  L 56,74  L 53,74  L 53,75  Z  " style="fill:rgb(0, 0, 0); fill-opacity:1.000; stroke:none;" />
 <path d="  M 100,113  L 105,113  L 105,12  L 104,12  L 104,11  L 105,11  L 105,10  L 104,10  L 104,2  L 103,2  L 103,0  L 99,0  L 99,2  L 98,2  L 98,17  L 99,17  L 99,41  L 100,41  L 100,42  L 99,42  L 99,44  L 100,44  L 100,46  L 99,46  L 99,47  L 100,47  L 100,50  L 99,50  L 99,51  L 100,51  L 100,54  L 99,54  L 99,55  L 100,55  L 100,58  L 99,58  L 99,59  L 100,59  L 100,62  L 99,62  L 99,63  L 100,63  L 100,66  L 99,66  L 99,67  L 100,67  L 100,70  L 99,70  L 99,71  L 100,71  L 100,74  L 99,74  L 99,75  L 100,75  L 100,78  L 99,78  L 99,79  L 100,79  L 100,82  L 99,82  L 99,83  L 100,83  L 100,86  L 99,86  L 99,87  L 100,87  Z  " style="fill:rgb(0, 0, 0); fill-opacity:1.000; stroke:none;" />
</svg>
