<?xml version="1.0" encoding="UTF-8" standalone="no"?>
<!DOCTYPE svg PUBLIC "-//W3C//DTD SVG 1.1//EN" 
  "http://www.w3.org/Graphics/SVG/1.1/DTD/svg11.dtd">
<svg width="104" height="173"
     xmlns="http://www.w3.org/2000/svg" version="1.1">
 <path d="  M 37,67  L 37,68  L 35,68  L 35,67  L 33,67  L 33,68  L 31,68  L 31,67  L 28,67  L 28,68  L 26,68  L 26,67  L 25,67  L 25,68  L 23,68  L 23,67  L 22,67  L 22,68  L 13,68  L 13,69  L 7,69  L 7,70  L 2,70  L 2,71  L 1,71  L 1,72  L 0,72  L 0,75  L 1,75  L 1,76  L 2,76  L 2,77  L 3,77  L 3,78  L 4,78  L 4,77  L 6,77  L 6,78  L 7,78  L 7,77  L 10,77  L 10,76  L 13,76  L 13,75  L 17,75  L 17,74  L 33,74  L 33,75  L 34,75  L 34,74  L 35,74  L 35,75  L 36,75  L 36,91  L 37,91  L 37,94  L 36,94  L 36,95  L 37,95  L 37,99  L 38,99  L 38,107  L 39,107  L 39,108  L 41,108  L 41,110  L 40,110  L 40,111  L 39,111  L 39,112  L 38,112  L 38,113  L 37,113  L 37,114  L 36,114  L 36,118  L 38,118  L 38,119  L 40,119  L 40,118  L 43,118  L 43,119  L 44,119  L 44,118  L 52,118  L 52,117  L 53,117  L 53,118  L 55,118  L 55,117  L 56,117  L 56,118  L 63,118  L 63,119  L 65,119  L 65,118  L 66,118  L 66,119  L 74,119  L 74,120  L 78,120  L 78,121  L 80,121  L 80,123  L 82,123  L 82,125  L 81,125  L 81,127  L 80,127  L 80,128  L 78,128  L 78,129  L 77,129  L 77,130  L 75,130  L 75,131  L 74,131  L 74,132  L 72,132  L 72,133  L 71,133  L 71,134  L 70,134  L 70,135  L 69,135  L 69,134  L 68,134  L 68,136  L 66,136  L 66,137  L 65,137  L 65,136  L 64,136  L 64,137  L 63,137  L 63,138  L 56,138  L 56,139  L 53,139  L 53,140  L 48,140  L 48,141  L 45,141  L 45,142  L 39,142  L 39,143  L 35,143  L 35,145  L 33,145  L 33,146  L 31,146  L 31,149  L 30,149  L 30,161  L 31,161  L 31,162  L 32,162  L 32,165  L 33,165  L 33,166  L 35,166  L 35,167  L 36,167  L 36,168  L 38,168  L 38,169  L 39,169  L 39,170  L 40,170  L 40,169  L 42,169  L 42,170  L 43,170  L 43,171  L 47,171  L 47,172  L 50,172  L 50,173  L 75,173  L 75,172  L 80,172  L 80,171  L 84,171  L 84,170  L 85,170  L 85,169  L 88,169  L 88,168  L 91,168  L 91,167  L 93,167  L 93,166  L 96,166  L 96,165  L 97,165  L 97,164  L 99,164  L 99,162  L 100,162  L 100,161  L 101,161  L 101,159  L 102,159  L 102,158  L 101,158  L 101,156  L 97,156  L 97,157  L 95,157  L 95,158  L 92,158  L 92,160  L 90,160  L 90,161  L 87,161  L 87,162  L 84,162  L 84,163  L 80,163  L 80,164  L 76,164  L 76,165  L 75,165  L 75,166  L 74,166  L 74,165  L 73,165  L 73,166  L 67,166  L 67,167  L 65,167  L 65,166  L 64,166  L 64,167  L 61,167  L 61,166  L 59,166  L 59,167  L 58,167  L 58,166  L 50,166  L 50,165  L 45,165  L 45,164  L 43,164  L 43,163  L 41,163  L 41,162  L 39,162  L 39,160  L 38,160  L 38,158  L 37,158  L 37,154  L 38,154  L 38,152  L 39,152  L 39,151  L 40,151  L 40,150  L 41,150  L 41,149  L 45,149  L 45,148  L 51,148  L 51,147  L 54,147  L 54,146  L 55,146  L 55,147  L 56,147  L 56,146  L 57,146  L 57,145  L 58,145  L 58,146  L 59,146  L 59,145  L 61,145  L 61,144  L 65,144  L 65,143  L 68,143  L 68,142  L 71,142  L 71,141  L 74,141  L 74,140  L 76,140  L 76,139  L 78,139  L 78,137  L 80,137  L 80,136  L 81,136  L 81,135  L 83,135  L 83,134  L 85,134  L 85,133  L 87,133  L 87,132  L 86,132  L 86,131  L 88,131  L 88,129  L 90,129  L 90,127  L 92,127  L 92,125  L 93,125  L 93,119  L 92,119  L 92,118  L 91,118  L 91,117  L 90,117  L 90,116  L 89,116  L 89,115  L 88,115  L 88,114  L 83,114  L 83,113  L 81,113  L 81,112  L 74,112  L 74,111  L 69,111  L 69,110  L 68,110  L 68,111  L 66,111  L 66,110  L 64,110  L 64,111  L 63,111  L 63,110  L 60,110  L 60,111  L 59,111  L 59,110  L 46,110  L 46,109  L 44,109  L 44,108  L 45,108  L 45,104  L 46,104  L 46,103  L 45,103  L 45,99  L 44,99  L 44,92  L 43,92  L 43,76  L 44,76  L 44,75  L 45,75  L 45,76  L 46,76  L 46,75  L 49,75  L 49,74  L 70,74  L 70,73  L 71,73  L 71,74  L 72,74  L 72,73  L 74,73  L 74,74  L 75,74  L 75,73  L 81,73  L 81,72  L 84,72  L 84,69  L 85,69  L 85,68  L 84,68  L 84,66  L 83,66  L 83,65  L 82,65  L 82,64  L 81,64  L 81,65  L 74,65  L 74,66  L 73,66  L 73,65  L 72,65  L 72,66  L 52,66  L 52,67  Z  " style="fill:rgb(0, 0, 0); fill-opacity:1.000; stroke:none;" />
 <path d="  M 13,21  L 12,21  L 12,41  L 13,41  L 13,44  L 14,44  L 14,45  L 15,45  L 15,47  L 17,47  L 17,48  L 18,48  L 18,49  L 22,49  L 22,50  L 24,50  L 24,51  L 25,51  L 25,50  L 26,50  L 26,51  L 41,51  L 41,50  L 42,50  L 42,51  L 45,51  L 45,50  L 47,50  L 47,51  L 48,51  L 48,50  L 56,50  L 56,49  L 64,49  L 64,48  L 70,48  L 70,47  L 75,47  L 75,46  L 76,46  L 76,45  L 77,45  L 77,44  L 78,44  L 78,41  L 77,41  L 77,40  L 78,40  L 78,39  L 77,39  L 77,38  L 72,38  L 72,39  L 69,39  L 69,40  L 64,40  L 64,41  L 61,41  L 61,42  L 56,42  L 56,43  L 40,43  L 40,44  L 38,44  L 38,43  L 37,43  L 37,44  L 26,44  L 26,43  L 22,43  L 22,42  L 21,42  L 21,39  L 20,39  L 20,17  L 21,17  L 21,16  L 20,16  L 20,15  L 21,15  L 21,3  L 22,3  L 22,2  L 21,2  L 21,1  L 19,1  L 19,0  L 16,0  L 16,1  L 14,1  L 14,2  L 13,2  Z  " style="fill:rgb(0, 0, 0); fill-opacity:1.000; stroke:none;" />
 <path d="  M 94,22  L 95,22  L 95,24  L 94,24  L 94,25  L 95,25  L 95,36  L 96,36  L 96,37  L 95,37  L 95,39  L 96,39  L 96,42  L 95,42  L 95,43  L 96,43  L 96,46  L 95,46  L 95,47  L 96,47  L 96,50  L 95,50  L 95,51  L 96,51  L 96,89  L 97,89  L 97,90  L 96,90  L 96,92  L 97,92  L 97,104  L 98,104  L 98,105  L 102,105  L 102,104  L 104,104  L 104,88  L 103,88  L 103,85  L 104,85  L 104,84  L 103,84  L 103,34  L 102,34  L 102,33  L 103,33  L 103,30  L 102,30  L 102,16  L 101,16  L 101,15  L 102,15  L 102,14  L 101,14  L 101,4  L 100,4  L 100,3  L 99,3  L 99,2  L 94,2  Z  " style="fill:rgb(0, 0, 0); fill-opacity:1.000; stroke:none;" />
</svg>
