<?xml version="1.0" encoding="UTF-8" standalone="no"?>
<!DOCTYPE svg PUBLIC "-//W3C//DTD SVG 1.1//EN" 
  "http://www.w3.org/Graphics/SVG/1.1/DTD/svg11.dtd">
<svg width="105" height="163"
     xmlns="http://www.w3.org/2000/svg" version="1.1">
 <path d="  M 23,71  L 25,71  L 25,70  L 42,70  L 42,71  L 41,71  L 41,75  L 40,75  L 40,76  L 41,76  L 41,77  L 40,77  L 40,89  L 39,89  L 39,97  L 38,97  L 38,99  L 37,99  L 37,100  L 38,100  L 38,101  L 39,101  L 39,102  L 41,102  L 41,101  L 45,101  L 45,98  L 46,98  L 46,84  L 47,84  L 47,70  L 48,70  L 48,69  L 51,69  L 51,68  L 58,68  L 58,67  L 66,67  L 66,66  L 70,66  L 70,65  L 73,65  L 73,64  L 76,64  L 76,63  L 81,63  L 81,62  L 82,62  L 82,63  L 84,63  L 84,62  L 86,62  L 86,61  L 88,61  L 88,60  L 89,60  L 89,58  L 90,58  L 90,56  L 89,56  L 89,55  L 88,55  L 88,54  L 82,54  L 82,55  L 80,55  L 80,56  L 77,56  L 77,57  L 74,57  L 74,58  L 70,58  L 70,59  L 65,59  L 65,60  L 57,60  L 57,61  L 52,61  L 52,62  L 46,62  L 46,63  L 29,63  L 29,64  L 19,64  L 19,65  L 15,65  L 15,66  L 11,66  L 11,67  L 4,67  L 4,68  L 2,68  L 2,69  L 1,69  L 1,70  L 0,70  L 0,71  L 1,71  L 1,73  L 2,73  L 2,74  L 3,74  L 3,75  L 5,75  L 5,76  L 6,76  L 6,75  L 8,75  L 8,74  L 11,74  L 11,73  L 14,73  L 14,72  L 18,72  L 18,71  L 22,71  L 22,70  L 23,70  Z  " style="fill:rgb(0, 0, 0); fill-opacity:1.000; stroke:none;" />
 <path d="  M 23,41  L 23,40  L 21,40  L 21,35  L 20,35  L 20,20  L 21,20  L 21,19  L 20,19  L 20,16  L 21,16  L 21,15  L 20,15  L 20,12  L 21,12  L 21,4  L 22,4  L 22,3  L 21,3  L 21,1  L 19,1  L 19,0  L 17,0  L 17,1  L 16,1  L 16,2  L 15,2  L 15,3  L 14,3  L 14,14  L 13,14  L 13,40  L 14,40  L 14,45  L 16,45  L 16,46  L 19,46  L 19,47  L 23,47  L 23,48  L 38,48  L 38,47  L 50,47  L 50,46  L 58,46  L 58,45  L 64,45  L 64,44  L 66,44  L 66,43  L 72,43  L 72,42  L 75,42  L 75,41  L 79,41  L 79,40  L 82,40  L 82,38  L 83,38  L 83,37  L 82,37  L 82,34  L 81,34  L 81,33  L 80,33  L 80,32  L 79,32  L 79,33  L 75,33  L 75,34  L 73,34  L 73,35  L 68,35  L 68,36  L 65,36  L 65,37  L 60,37  L 60,38  L 56,38  L 56,39  L 48,39  L 48,40  L 46,40  L 46,39  L 45,39  L 45,40  L 39,40  L 39,41  Z  " style="fill:rgb(0, 0, 0); fill-opacity:1.000; stroke:none;" />
 <path d="  M 102,4  L 101,4  L 101,2  L 100,2  L 100,1  L 99,1  L 99,0  L 96,0  L 96,2  L 95,2  L 95,7  L 96,7  L 96,9  L 95,9  L 95,10  L 96,10  L 96,16  L 97,16  L 97,25  L 98,25  L 98,34  L 99,34  L 99,50  L 100,50  L 100,53  L 99,53  L 99,54  L 100,54  L 100,57  L 99,57  L 99,58  L 100,58  L 100,61  L 99,61  L 99,62  L 100,62  L 100,63  L 99,63  L 99,90  L 100,90  L 100,92  L 99,92  L 99,94  L 100,94  L 100,97  L 99,97  L 99,105  L 98,105  L 98,128  L 94,128  L 94,127  L 93,127  L 93,128  L 90,128  L 90,127  L 89,127  L 89,128  L 86,128  L 86,127  L 85,127  L 85,128  L 82,128  L 82,127  L 81,127  L 81,128  L 78,128  L 78,127  L 77,127  L 77,128  L 74,128  L 74,127  L 73,127  L 73,128  L 70,128  L 70,127  L 69,127  L 69,128  L 66,128  L 66,127  L 65,127  L 65,128  L 62,128  L 62,127  L 61,127  L 61,128  L 58,128  L 58,127  L 57,127  L 57,128  L 54,128  L 54,127  L 53,127  L 53,128  L 50,128  L 50,127  L 49,127  L 49,128  L 42,128  L 42,127  L 41,127  L 41,128  L 39,128  L 39,126  L 40,126  L 40,125  L 41,125  L 41,124  L 42,124  L 42,122  L 43,122  L 43,113  L 42,113  L 42,112  L 39,112  L 39,111  L 36,111  L 36,110  L 33,110  L 33,111  L 32,111  L 32,116  L 33,116  L 33,121  L 34,121  L 34,122  L 33,122  L 33,124  L 34,124  L 34,125  L 35,125  L 35,127  L 34,127  L 34,128  L 35,128  L 35,129  L 36,129  L 36,131  L 35,131  L 35,135  L 36,135  L 36,138  L 37,138  L 37,140  L 38,140  L 38,147  L 39,147  L 39,155  L 40,155  L 40,156  L 39,156  L 39,157  L 40,157  L 40,159  L 41,159  L 41,160  L 42,160  L 42,161  L 43,161  L 43,162  L 44,162  L 44,163  L 46,163  L 46,162  L 47,162  L 47,163  L 77,163  L 77,162  L 84,162  L 84,161  L 88,161  L 88,160  L 90,160  L 90,159  L 93,159  L 93,158  L 94,158  L 94,157  L 95,157  L 95,156  L 97,156  L 97,155  L 98,155  L 98,153  L 99,153  L 99,152  L 100,152  L 100,148  L 101,148  L 101,143  L 102,143  L 102,138  L 103,138  L 103,133  L 104,133  L 104,108  L 105,108  L 105,31  L 104,31  L 104,30  L 105,30  L 105,29  L 104,29  L 104,19  L 103,19  L 103,13  L 102,13  Z  M 79,156  L 78,156  L 78,155  L 77,155  L 77,156  L 73,156  L 73,157  L 72,157  L 72,156  L 71,156  L 71,157  L 48,157  L 48,156  L 46,156  L 46,153  L 45,153  L 45,149  L 44,149  L 44,142  L 43,142  L 43,140  L 42,140  L 42,139  L 43,139  L 43,137  L 44,137  L 44,136  L 47,136  L 47,135  L 48,135  L 48,136  L 49,136  L 49,135  L 52,135  L 52,136  L 53,136  L 53,135  L 60,135  L 60,136  L 61,136  L 61,135  L 94,135  L 94,136  L 95,136  L 95,137  L 96,137  L 96,138  L 95,138  L 95,139  L 96,139  L 96,140  L 95,140  L 95,144  L 94,144  L 94,150  L 93,150  L 93,151  L 92,151  L 92,152  L 90,152  L 90,153  L 87,153  L 87,154  L 84,154  L 84,155  L 79,155  Z  " style="fill:rgb(0, 0, 0); fill-opacity:1.000; stroke:none;" />
</svg>
