<?xml version="1.0" encoding="UTF-8" standalone="no"?>
<!DOCTYPE svg PUBLIC "-//W3C//DTD SVG 1.1//EN" 
  "http://www.w3.org/Graphics/SVG/1.1/DTD/svg11.dtd">
<svg width="108" height="136"
     xmlns="http://www.w3.org/2000/svg" version="1.1">
 <path d="  M 35,92  L 35,104  L 34,104  L 34,110  L 33,110  L 33,111  L 34,111  L 34,112  L 33,112  L 33,121  L 32,121  L 32,127  L 33,127  L 33,129  L 34,129  L 34,130  L 37,130  L 37,129  L 38,129  L 38,127  L 39,127  L 39,125  L 38,125  L 38,124  L 39,124  L 39,112  L 40,112  L 40,110  L 39,110  L 39,109  L 40,109  L 40,104  L 41,104  L 41,95  L 42,95  L 42,81  L 43,81  L 43,80  L 42,80  L 42,79  L 43,79  L 43,78  L 42,78  L 42,77  L 43,77  L 43,75  L 49,75  L 49,74  L 62,74  L 62,73  L 70,73  L 70,76  L 69,76  L 69,96  L 70,96  L 70,105  L 71,105  L 71,111  L 72,111  L 72,123  L 73,123  L 73,132  L 74,132  L 74,136  L 79,136  L 79,135  L 80,135  L 80,132  L 79,132  L 79,122  L 78,122  L 78,121  L 79,121  L 79,118  L 78,118  L 78,117  L 79,117  L 79,116  L 78,116  L 78,105  L 77,105  L 77,90  L 76,90  L 76,89  L 77,89  L 77,88  L 76,88  L 76,87  L 77,87  L 77,86  L 76,86  L 76,85  L 77,85  L 77,84  L 76,84  L 76,83  L 77,83  L 77,74  L 78,74  L 78,73  L 79,73  L 79,72  L 90,72  L 90,71  L 91,71  L 91,72  L 92,72  L 92,71  L 98,71  L 98,70  L 101,70  L 101,69  L 102,69  L 102,70  L 103,70  L 103,69  L 107,69  L 107,68  L 108,68  L 108,61  L 107,61  L 107,60  L 106,60  L 106,61  L 102,61  L 102,62  L 99,62  L 99,63  L 97,63  L 97,64  L 92,64  L 92,65  L 91,65  L 91,64  L 89,64  L 89,65  L 81,65  L 81,66  L 67,66  L 67,67  L 56,67  L 56,68  L 47,68  L 47,69  L 39,69  L 39,70  L 32,70  L 32,71  L 31,71  L 31,70  L 29,70  L 29,71  L 21,71  L 21,72  L 13,72  L 13,73  L 5,73  L 5,74  L 2,74  L 2,75  L 1,75  L 1,77  L 0,77  L 0,78  L 1,78  L 1,81  L 3,81  L 3,82  L 5,82  L 5,81  L 6,81  L 6,80  L 10,80  L 10,79  L 16,79  L 16,78  L 22,78  L 22,77  L 23,77  L 23,78  L 24,78  L 24,77  L 35,77  L 35,78  L 36,78  L 36,85  L 35,85  L 35,86  L 36,86  L 36,88  L 35,88  L 35,91  L 36,91  L 36,92  Z  " style="fill:rgb(0, 0, 0); fill-opacity:1.000; stroke:none;" />
 <path d="  M 28,33  L 28,26  L 27,26  L 27,24  L 28,24  L 28,22  L 27,22  L 27,21  L 28,21  L 28,15  L 29,15  L 29,14  L 28,14  L 28,13  L 29,13  L 29,4  L 30,4  L 30,3  L 29,3  L 29,0  L 25,0  L 25,1  L 23,1  L 23,11  L 22,11  L 22,17  L 21,17  L 21,33  L 22,33  L 22,39  L 23,39  L 23,49  L 24,49  L 24,51  L 26,51  L 26,52  L 36,52  L 36,51  L 42,51  L 42,50  L 52,50  L 52,49  L 58,49  L 58,48  L 66,48  L 66,47  L 73,47  L 73,46  L 78,46  L 78,45  L 79,45  L 79,46  L 80,46  L 80,45  L 84,45  L 84,44  L 91,44  L 91,43  L 93,43  L 93,42  L 94,42  L 94,38  L 93,38  L 93,36  L 92,36  L 92,35  L 87,35  L 87,36  L 85,36  L 85,37  L 81,37  L 81,38  L 76,38  L 76,39  L 73,39  L 73,40  L 67,40  L 67,41  L 66,41  L 66,40  L 65,40  L 65,41  L 60,41  L 60,42  L 53,42  L 53,43  L 48,43  L 48,44  L 39,44  L 39,45  L 32,45  L 32,44  L 31,44  L 31,43  L 30,43  L 30,39  L 29,39  L 29,33  Z  " style="fill:rgb(0, 0, 0); fill-opacity:1.000; stroke:none;" />
</svg>
