<?xml version="1.0" encoding="UTF-8" standalone="no"?>
<!DOCTYPE svg PUBLIC "-//W3C//DTD SVG 1.1//EN" 
  "http://www.w3.org/Graphics/SVG/1.1/DTD/svg11.dtd">
<svg width="109" height="160"
     xmlns="http://www.w3.org/2000/svg" version="1.1">
 <path d="  M 42,82  L 42,87  L 41,87  L 41,88  L 42,88  L 42,89  L 41,89  L 41,90  L 42,90  L 42,91  L 41,91  L 41,92  L 42,92  L 42,94  L 41,94  L 41,96  L 42,96  L 42,97  L 41,97  L 41,100  L 42,100  L 42,101  L 41,101  L 41,105  L 40,105  L 40,106  L 35,106  L 35,105  L 22,105  L 22,106  L 20,106  L 20,107  L 19,107  L 19,109  L 18,109  L 18,110  L 19,110  L 19,111  L 21,111  L 21,112  L 23,112  L 23,113  L 25,113  L 25,114  L 29,114  L 29,115  L 30,115  L 30,123  L 29,123  L 29,124  L 30,124  L 30,125  L 29,125  L 29,128  L 30,128  L 30,129  L 29,129  L 29,150  L 30,150  L 30,152  L 31,152  L 31,153  L 32,153  L 32,154  L 33,154  L 33,155  L 36,155  L 36,158  L 38,158  L 38,160  L 47,160  L 47,159  L 50,159  L 50,158  L 54,158  L 54,157  L 55,157  L 55,156  L 57,156  L 57,155  L 59,155  L 59,154  L 60,154  L 60,153  L 62,153  L 62,152  L 65,152  L 65,151  L 68,151  L 68,150  L 71,150  L 71,149  L 75,149  L 75,148  L 77,148  L 77,147  L 79,147  L 79,146  L 81,146  L 81,145  L 84,145  L 84,144  L 85,144  L 85,142  L 86,142  L 86,141  L 87,141  L 87,140  L 88,140  L 88,137  L 89,137  L 89,135  L 90,135  L 90,131  L 91,131  L 91,126  L 92,126  L 92,120  L 93,120  L 93,119  L 92,119  L 92,118  L 93,118  L 93,107  L 92,107  L 92,103  L 91,103  L 91,102  L 90,102  L 90,101  L 89,101  L 89,100  L 80,100  L 80,99  L 79,99  L 79,97  L 78,97  L 78,69  L 79,69  L 79,66  L 80,66  L 80,65  L 82,65  L 82,64  L 91,64  L 91,63  L 96,63  L 96,62  L 101,62  L 101,61  L 102,61  L 102,62  L 103,62  L 103,61  L 105,61  L 105,60  L 107,60  L 107,59  L 109,59  L 109,54  L 108,54  L 108,53  L 106,53  L 106,51  L 105,51  L 105,52  L 104,52  L 104,51  L 101,51  L 101,52  L 98,52  L 98,53  L 97,53  L 97,54  L 95,54  L 95,56  L 94,56  L 94,55  L 93,55  L 93,56  L 89,56  L 89,57  L 81,57  L 81,58  L 80,58  L 80,57  L 79,57  L 79,58  L 74,58  L 74,59  L 65,59  L 65,60  L 64,60  L 64,59  L 63,59  L 63,60  L 54,60  L 54,61  L 51,61  L 51,60  L 50,60  L 50,61  L 47,61  L 47,60  L 46,60  L 46,61  L 21,61  L 21,62  L 12,62  L 12,63  L 8,63  L 8,62  L 3,62  L 3,63  L 1,63  L 1,64  L 0,64  L 0,66  L 1,66  L 1,68  L 2,68  L 2,69  L 4,69  L 4,70  L 7,70  L 7,69  L 8,69  L 8,70  L 9,70  L 9,69  L 16,69  L 16,68  L 19,68  L 19,69  L 20,69  L 20,68  L 25,68  L 25,67  L 26,67  L 26,68  L 29,68  L 29,67  L 31,67  L 31,68  L 33,68  L 33,67  L 34,67  L 34,68  L 37,68  L 37,67  L 40,67  L 40,68  L 41,68  L 41,82  Z  M 71,142  L 71,143  L 68,143  L 68,144  L 66,144  L 66,145  L 64,145  L 64,146  L 61,146  L 61,147  L 58,147  L 58,148  L 56,148  L 56,149  L 54,149  L 54,150  L 53,150  L 53,151  L 52,151  L 52,152  L 50,152  L 50,153  L 49,153  L 49,154  L 44,154  L 44,155  L 42,155  L 42,154  L 39,154  L 39,153  L 38,153  L 38,152  L 37,152  L 37,151  L 36,151  L 36,125  L 37,125  L 37,116  L 38,116  L 38,114  L 39,114  L 39,113  L 40,113  L 40,112  L 42,112  L 42,111  L 51,111  L 51,110  L 58,110  L 58,109  L 66,109  L 66,108  L 72,108  L 72,107  L 73,107  L 73,108  L 74,108  L 74,107  L 80,107  L 80,106  L 81,106  L 81,107  L 84,107  L 84,108  L 85,108  L 85,125  L 84,125  L 84,129  L 83,129  L 83,134  L 82,134  L 82,136  L 81,136  L 81,138  L 80,138  L 80,139  L 77,139  L 77,140  L 76,140  L 76,141  L 73,141  L 73,142  Z  M 70,99  L 71,99  L 71,100  L 70,100  L 70,101  L 71,101  L 71,102  L 68,102  L 68,103  L 66,103  L 66,102  L 65,102  L 65,103  L 49,103  L 49,76  L 48,76  L 48,75  L 49,75  L 49,68  L 51,68  L 51,67  L 62,67  L 62,66  L 69,66  L 69,67  L 70,67  L 70,97  L 71,97  L 71,98  L 70,98  Z  " style="fill:rgb(0, 0, 0); fill-opacity:1.000; stroke:none;" />
 <path d="  M 59,40  L 59,39  L 58,39  L 58,40  L 54,40  L 54,41  L 52,41  L 52,40  L 51,40  L 51,41  L 36,41  L 36,40  L 33,40  L 33,39  L 32,39  L 32,37  L 31,37  L 31,34  L 30,34  L 30,27  L 29,27  L 29,1  L 28,1  L 28,0  L 24,0  L 24,1  L 23,1  L 23,3  L 22,3  L 22,5  L 23,5  L 23,6  L 22,6  L 22,23  L 21,23  L 21,24  L 22,24  L 22,34  L 23,34  L 23,39  L 24,39  L 24,42  L 25,42  L 25,43  L 26,43  L 26,44  L 27,44  L 27,45  L 28,45  L 28,46  L 31,46  L 31,47  L 34,47  L 34,48  L 47,48  L 47,47  L 48,47  L 48,48  L 50,48  L 50,47  L 63,47  L 63,46  L 64,46  L 64,47  L 65,47  L 65,46  L 72,46  L 72,45  L 77,45  L 77,44  L 80,44  L 80,43  L 84,43  L 84,42  L 86,42  L 86,41  L 87,41  L 87,40  L 89,40  L 89,39  L 91,39  L 91,38  L 93,38  L 93,36  L 94,36  L 94,34  L 95,34  L 95,31  L 91,31  L 91,32  L 88,32  L 88,33  L 87,33  L 87,34  L 86,34  L 86,35  L 82,35  L 82,36  L 79,36  L 79,37  L 75,37  L 75,38  L 70,38  L 70,39  L 62,39  L 62,40  Z  " style="fill:rgb(0, 0, 0); fill-opacity:1.000; stroke:none;" />
</svg>
