<?xml version="1.0" encoding="UTF-8" standalone="no"?>
<!DOCTYPE svg PUBLIC "-//W3C//DTD SVG 1.1//EN" 
  "http://www.w3.org/Graphics/SVG/1.1/DTD/svg11.dtd">
<svg width="102" height="164"
     xmlns="http://www.w3.org/2000/svg" version="1.1">
 <path d="  M 3,84  L 3,85  L 4,85  L 4,86  L 7,86  L 7,85  L 8,85  L 8,86  L 10,86  L 10,85  L 13,85  L 13,84  L 18,84  L 18,83  L 23,83  L 23,82  L 31,82  L 31,81  L 32,81  L 32,82  L 33,82  L 33,81  L 34,81  L 34,82  L 35,82  L 35,81  L 45,81  L 45,80  L 55,80  L 55,79  L 56,79  L 56,80  L 58,80  L 58,79  L 75,79  L 75,78  L 76,78  L 76,79  L 78,79  L 78,78  L 92,78  L 92,79  L 94,79  L 94,78  L 96,78  L 96,79  L 98,79  L 98,78  L 100,78  L 100,77  L 101,77  L 101,76  L 102,76  L 102,71  L 101,71  L 101,70  L 93,70  L 93,71  L 66,71  L 66,72  L 63,72  L 63,71  L 62,71  L 62,72  L 50,72  L 50,73  L 34,73  L 34,74  L 33,74  L 33,73  L 31,73  L 31,74  L 29,74  L 29,73  L 28,73  L 28,74  L 18,74  L 18,75  L 13,75  L 13,76  L 9,76  L 9,77  L 6,77  L 6,78  L 3,78  L 3,79  L 2,79  L 2,80  L 1,80  L 1,81  L 0,81  L 0,82  L 1,82  L 1,83  L 2,83  L 2,84  Z  " style="fill:rgb(0, 0, 0); fill-opacity:1.000; stroke:none;" />
 <path d="  M 80,117  L 80,113  L 79,113  L 79,106  L 78,106  L 78,104  L 76,104  L 76,103  L 75,103  L 75,102  L 74,102  L 74,101  L 71,101  L 71,100  L 64,100  L 64,99  L 58,99  L 58,98  L 57,98  L 57,99  L 54,99  L 54,98  L 49,98  L 49,99  L 42,99  L 42,100  L 39,100  L 39,101  L 38,101  L 38,100  L 37,100  L 37,101  L 32,101  L 32,102  L 31,102  L 31,101  L 30,101  L 30,102  L 27,102  L 27,103  L 26,103  L 26,104  L 25,104  L 25,105  L 24,105  L 24,107  L 23,107  L 23,108  L 24,108  L 24,110  L 25,110  L 25,111  L 26,111  L 26,112  L 28,112  L 28,111  L 32,111  L 32,110  L 35,110  L 35,109  L 36,109  L 36,110  L 37,110  L 37,109  L 41,109  L 41,108  L 46,108  L 46,107  L 50,107  L 50,106  L 57,106  L 57,107  L 58,107  L 58,106  L 59,106  L 59,107  L 64,107  L 64,108  L 67,108  L 67,109  L 69,109  L 69,110  L 71,110  L 71,111  L 73,111  L 73,117  L 72,117  L 72,119  L 71,119  L 71,120  L 68,120  L 68,121  L 66,121  L 66,122  L 64,122  L 64,123  L 61,123  L 61,124  L 58,124  L 58,125  L 56,125  L 56,126  L 55,126  L 55,127  L 53,127  L 53,128  L 51,128  L 51,129  L 45,129  L 45,130  L 41,130  L 41,131  L 38,131  L 38,132  L 35,132  L 35,133  L 33,133  L 33,134  L 29,134  L 29,135  L 23,135  L 23,136  L 21,136  L 21,137  L 20,137  L 20,138  L 19,138  L 19,139  L 18,139  L 18,141  L 17,141  L 17,149  L 18,149  L 18,150  L 17,150  L 17,151  L 18,151  L 18,154  L 19,154  L 19,157  L 20,157  L 20,158  L 21,158  L 21,160  L 22,160  L 22,161  L 23,161  L 23,162  L 24,162  L 24,163  L 28,163  L 28,164  L 56,164  L 56,163  L 63,163  L 63,162  L 64,162  L 64,163  L 65,163  L 65,162  L 69,162  L 69,161  L 74,161  L 74,160  L 79,160  L 79,159  L 83,159  L 83,158  L 86,158  L 86,157  L 88,157  L 88,156  L 90,156  L 90,155  L 92,155  L 92,154  L 94,154  L 94,153  L 96,153  L 96,151  L 97,151  L 97,150  L 96,150  L 96,148  L 94,148  L 94,147  L 90,147  L 90,148  L 88,148  L 88,149  L 86,149  L 86,150  L 84,150  L 84,151  L 80,151  L 80,152  L 78,152  L 78,153  L 73,153  L 73,154  L 68,154  L 68,155  L 58,155  L 58,156  L 55,156  L 55,155  L 54,155  L 54,156  L 51,156  L 51,157  L 40,157  L 40,158  L 39,158  L 39,157  L 31,157  L 31,156  L 28,156  L 28,155  L 26,155  L 26,153  L 25,153  L 25,150  L 24,150  L 24,149  L 25,149  L 25,144  L 26,144  L 26,142  L 29,142  L 29,141  L 33,141  L 33,140  L 39,140  L 39,139  L 42,139  L 42,138  L 45,138  L 45,137  L 49,137  L 49,136  L 52,136  L 52,135  L 55,135  L 55,134  L 59,134  L 59,133  L 61,133  L 61,132  L 63,132  L 63,131  L 66,131  L 66,130  L 67,130  L 67,129  L 69,129  L 69,128  L 71,128  L 71,127  L 72,127  L 72,126  L 75,126  L 75,125  L 77,125  L 77,124  L 78,124  L 78,122  L 79,122  L 79,117  Z  " style="fill:rgb(0, 0, 0); fill-opacity:1.000; stroke:none;" />
 <path d="  M 22,43  L 22,46  L 23,46  L 23,49  L 24,49  L 24,50  L 25,50  L 25,51  L 26,51  L 26,52  L 27,52  L 27,53  L 29,53  L 29,54  L 36,54  L 36,55  L 43,55  L 43,54  L 44,54  L 44,55  L 45,55  L 45,54  L 53,54  L 53,53  L 61,53  L 61,52  L 65,52  L 65,51  L 66,51  L 66,52  L 67,52  L 67,51  L 74,51  L 74,50  L 79,50  L 79,49  L 80,49  L 80,50  L 81,50  L 81,49  L 83,49  L 83,48  L 87,48  L 87,46  L 88,46  L 88,45  L 89,45  L 89,43  L 90,43  L 90,39  L 89,39  L 89,38  L 86,38  L 86,39  L 84,39  L 84,40  L 81,40  L 81,41  L 78,41  L 78,42  L 74,42  L 74,43  L 66,43  L 66,44  L 61,44  L 61,45  L 52,45  L 52,46  L 46,46  L 46,47  L 34,47  L 34,46  L 33,46  L 33,45  L 31,45  L 31,44  L 30,44  L 30,42  L 29,42  L 29,39  L 28,39  L 28,29  L 27,29  L 27,22  L 28,22  L 28,21  L 27,21  L 27,19  L 28,19  L 28,17  L 27,17  L 27,16  L 28,16  L 28,13  L 27,13  L 27,12  L 28,12  L 28,1  L 27,1  L 27,0  L 23,0  L 23,1  L 22,1  L 22,2  L 21,2  L 21,3  L 20,3  L 20,5  L 21,5  L 21,6  L 20,6  L 20,8  L 21,8  L 21,10  L 20,10  L 20,12  L 21,12  L 21,13  L 20,13  L 20,29  L 19,29  L 19,32  L 20,32  L 20,40  L 21,40  L 21,43  Z  " style="fill:rgb(0, 0, 0); fill-opacity:1.000; stroke:none;" />
</svg>
