<?xml version="1.0" encoding="UTF-8" standalone="no"?>
<!DOCTYPE svg PUBLIC "-//W3C//DTD SVG 1.1//EN" 
  "http://www.w3.org/Graphics/SVG/1.1/DTD/svg11.dtd">
<svg width="105" height="137"
     xmlns="http://www.w3.org/2000/svg" version="1.1">
 <path d="  M 37,97  L 41,97  L 41,96  L 44,96  L 44,95  L 50,95  L 50,94  L 55,94  L 55,93  L 60,93  L 60,92  L 65,92  L 65,91  L 70,91  L 70,90  L 71,90  L 71,91  L 72,91  L 72,90  L 77,90  L 77,89  L 86,89  L 86,88  L 87,88  L 87,89  L 89,89  L 89,88  L 91,88  L 91,86  L 90,86  L 90,84  L 89,84  L 89,83  L 88,83  L 88,82  L 87,82  L 87,81  L 85,81  L 85,80  L 84,80  L 84,81  L 79,81  L 79,82  L 77,82  L 77,83  L 71,83  L 71,84  L 66,84  L 66,85  L 61,85  L 61,86  L 55,86  L 55,87  L 49,87  L 49,88  L 46,88  L 46,89  L 42,89  L 42,90  L 37,90  L 37,91  L 32,91  L 32,92  L 28,92  L 28,93  L 24,93  L 24,94  L 17,94  L 17,95  L 11,95  L 11,96  L 6,96  L 6,97  L 4,97  L 4,98  L 1,98  L 1,99  L 0,99  L 0,103  L 1,103  L 1,104  L 3,104  L 3,105  L 5,105  L 5,104  L 8,104  L 8,103  L 12,103  L 12,102  L 17,102  L 17,101  L 19,101  L 19,102  L 20,102  L 20,101  L 25,101  L 25,100  L 30,100  L 30,99  L 32,99  L 32,98  L 33,98  L 33,99  L 34,99  L 34,98  L 37,98  Z  " style="fill:rgb(0, 0, 0); fill-opacity:1.000; stroke:none;" />
 <path d="  M 11,61  L 11,55  L 10,55  L 10,53  L 11,53  L 11,52  L 10,52  L 10,22  L 11,22  L 11,21  L 10,21  L 10,19  L 9,19  L 9,18  L 8,18  L 8,19  L 5,19  L 5,20  L 4,20  L 4,21  L 3,21  L 3,22  L 2,22  L 2,27  L 3,27  L 3,51  L 4,51  L 4,52  L 3,52  L 3,53  L 4,53  L 4,60  L 5,60  L 5,64  L 6,64  L 6,66  L 7,66  L 7,69  L 8,69  L 8,70  L 10,70  L 10,71  L 14,71  L 14,72  L 15,72  L 15,73  L 18,73  L 18,72  L 19,72  L 19,73  L 20,73  L 20,72  L 28,72  L 28,71  L 33,71  L 33,70  L 37,70  L 37,69  L 42,69  L 42,68  L 48,68  L 48,67  L 50,67  L 50,66  L 51,66  L 51,67  L 52,67  L 52,66  L 57,66  L 57,65  L 64,65  L 64,64  L 68,64  L 68,63  L 73,63  L 73,62  L 74,62  L 74,61  L 75,61  L 75,60  L 76,60  L 76,58  L 75,58  L 75,55  L 74,55  L 74,54  L 70,54  L 70,55  L 67,55  L 67,56  L 64,56  L 64,57  L 61,57  L 61,58  L 57,58  L 57,59  L 53,59  L 53,60  L 49,60  L 49,61  L 46,61  L 46,62  L 40,62  L 40,63  L 35,63  L 35,64  L 31,64  L 31,65  L 24,65  L 24,66  L 23,66  L 23,65  L 22,65  L 22,66  L 21,66  L 21,65  L 18,65  L 18,66  L 17,66  L 17,65  L 14,65  L 14,64  L 13,64  L 13,63  L 12,63  L 12,61  Z  " style="fill:rgb(0, 0, 0); fill-opacity:1.000; stroke:none;" />
 <path d="  M 96,27  L 97,27  L 97,36  L 98,36  L 98,58  L 99,58  L 99,93  L 100,93  L 100,94  L 99,94  L 99,95  L 100,95  L 100,96  L 99,96  L 99,97  L 100,97  L 100,100  L 99,100  L 99,101  L 100,101  L 100,104  L 99,104  L 99,105  L 100,105  L 100,108  L 99,108  L 99,109  L 100,109  L 100,112  L 99,112  L 99,113  L 100,113  L 100,116  L 99,116  L 99,117  L 100,117  L 100,120  L 99,120  L 99,121  L 100,121  L 100,124  L 99,124  L 99,125  L 100,125  L 100,128  L 99,128  L 99,136  L 100,136  L 100,137  L 104,137  L 104,136  L 105,136  L 105,40  L 104,40  L 104,39  L 105,39  L 105,38  L 104,38  L 104,28  L 103,28  L 103,20  L 102,20  L 102,14  L 101,14  L 101,9  L 100,9  L 100,7  L 101,7  L 101,6  L 100,6  L 100,2  L 99,2  L 99,0  L 95,0  L 95,1  L 94,1  L 94,3  L 93,3  L 93,8  L 94,8  L 94,13  L 95,13  L 95,21  L 96,21  Z  " style="fill:rgb(0, 0, 0); fill-opacity:1.000; stroke:none;" />
</svg>
