<?xml version="1.0" encoding="UTF-8" standalone="no"?>
<!DOCTYPE svg PUBLIC "-//W3C//DTD SVG 1.1//EN" 
  "http://www.w3.org/Graphics/SVG/1.1/DTD/svg11.dtd">
<svg width="95" height="137"
     xmlns="http://www.w3.org/2000/svg" version="1.1">
 <path d="  M 1,93  L 2,93  L 2,96  L 3,96  L 3,97  L 14,97  L 14,96  L 19,96  L 19,95  L 22,95  L 22,94  L 25,94  L 25,93  L 29,93  L 29,92  L 32,92  L 32,91  L 34,91  L 34,90  L 38,90  L 38,89  L 42,89  L 42,88  L 44,88  L 44,87  L 50,87  L 50,86  L 56,86  L 56,85  L 59,85  L 59,84  L 62,84  L 62,83  L 64,83  L 64,82  L 65,82  L 65,83  L 66,83  L 66,82  L 73,82  L 73,81  L 76,81  L 76,79  L 77,79  L 77,76  L 76,76  L 76,75  L 74,75  L 74,74  L 70,74  L 70,75  L 65,75  L 65,76  L 62,76  L 62,77  L 57,77  L 57,78  L 51,78  L 51,79  L 47,79  L 47,80  L 44,80  L 44,81  L 41,81  L 41,82  L 37,82  L 37,83  L 35,83  L 35,84  L 30,84  L 30,85  L 28,85  L 28,86  L 24,86  L 24,87  L 20,87  L 20,88  L 15,88  L 15,89  L 9,89  L 9,87  L 8,87  L 8,82  L 7,82  L 7,81  L 8,81  L 8,78  L 7,78  L 7,76  L 8,76  L 8,70  L 7,70  L 7,67  L 8,67  L 8,66  L 7,66  L 7,63  L 8,63  L 8,62  L 7,62  L 7,39  L 8,39  L 8,34  L 7,34  L 7,33  L 6,33  L 6,32  L 3,32  L 3,33  L 2,33  L 2,34  L 1,34  Z  " style="fill:rgb(0, 0, 0); fill-opacity:1.000; stroke:none;" />
 <path d="  M 87,64  L 87,65  L 88,65  L 88,68  L 87,68  L 87,69  L 88,69  L 88,72  L 87,72  L 87,73  L 88,73  L 88,76  L 87,76  L 87,77  L 88,77  L 88,116  L 87,116  L 87,117  L 88,117  L 88,120  L 87,120  L 87,121  L 88,121  L 88,124  L 87,124  L 87,125  L 88,125  L 88,128  L 87,128  L 87,129  L 88,129  L 88,132  L 87,132  L 87,133  L 88,133  L 88,136  L 89,136  L 89,137  L 95,137  L 95,30  L 94,30  L 94,29  L 95,29  L 95,28  L 94,28  L 94,21  L 93,21  L 93,12  L 92,12  L 92,5  L 91,5  L 91,2  L 90,2  L 90,1  L 88,1  L 88,0  L 87,0  L 87,1  L 86,1  L 86,2  L 85,2  L 85,3  L 84,3  L 84,5  L 83,5  L 83,11  L 84,11  L 84,18  L 85,18  L 85,25  L 86,25  L 86,33  L 87,33  L 87,35  L 86,35  L 86,36  L 87,36  L 87,54  L 88,54  L 88,56  L 87,56  L 87,57  L 88,57  L 88,60  L 87,60  L 87,61  L 88,61  L 88,64  Z  " style="fill:rgb(0, 0, 0); fill-opacity:1.000; stroke:none;" />
</svg>
