<?xml version="1.0" encoding="UTF-8" standalone="no"?>
<!DOCTYPE svg PUBLIC "-//W3C//DTD SVG 1.1//EN" 
  "http://www.w3.org/Graphics/SVG/1.1/DTD/svg11.dtd">
<svg width="96" height="182"
     xmlns="http://www.w3.org/2000/svg" version="1.1">
 <path d="  M 1,39  L 2,39  L 2,42  L 1,42  L 1,43  L 2,43  L 2,59  L 3,59  L 3,60  L 2,60  L 2,63  L 3,63  L 3,69  L 4,69  L 4,74  L 5,74  L 5,75  L 6,75  L 6,76  L 7,76  L 7,77  L 8,77  L 8,78  L 9,78  L 9,79  L 19,79  L 19,78  L 23,78  L 23,77  L 26,77  L 26,76  L 31,76  L 31,75  L 34,75  L 34,74  L 38,74  L 38,73  L 43,73  L 43,72  L 45,72  L 45,71  L 48,71  L 48,70  L 50,70  L 50,69  L 52,69  L 52,68  L 53,68  L 53,67  L 54,67  L 54,66  L 55,66  L 55,65  L 56,65  L 56,64  L 57,64  L 57,63  L 58,63  L 58,62  L 59,62  L 59,61  L 60,61  L 60,60  L 62,60  L 62,59  L 63,59  L 63,58  L 64,58  L 64,57  L 66,57  L 66,56  L 64,56  L 64,55  L 63,55  L 63,56  L 59,56  L 59,57  L 57,57  L 57,58  L 55,58  L 55,59  L 54,59  L 54,60  L 52,60  L 52,61  L 50,61  L 50,62  L 47,62  L 47,63  L 44,63  L 44,64  L 41,64  L 41,65  L 39,65  L 39,66  L 36,66  L 36,67  L 32,67  L 32,68  L 28,68  L 28,69  L 25,69  L 25,70  L 20,70  L 20,71  L 18,71  L 18,72  L 17,72  L 17,71  L 16,71  L 16,72  L 13,72  L 13,71  L 12,71  L 12,70  L 11,70  L 11,63  L 10,63  L 10,44  L 9,44  L 9,43  L 10,43  L 10,42  L 9,42  L 9,41  L 10,41  L 10,40  L 9,40  L 9,16  L 8,16  L 8,14  L 7,14  L 7,13  L 2,13  L 2,14  L 1,14  L 1,17  L 0,17  L 0,20  L 1,20  L 1,31  L 2,31  L 2,32  L 1,32  L 1,35  L 2,35  L 2,37  L 1,37  Z  " style="fill:rgb(0, 0, 0); fill-opacity:1.000; stroke:none;" />
 <path d="  M 81,159  L 81,158  L 80,158  L 80,157  L 81,157  L 81,133  L 82,133  L 82,128  L 83,128  L 83,124  L 84,124  L 84,118  L 83,118  L 83,116  L 82,116  L 82,114  L 81,114  L 81,113  L 79,113  L 79,112  L 77,112  L 77,111  L 75,111  L 75,110  L 67,110  L 67,109  L 49,109  L 49,110  L 41,110  L 41,111  L 37,111  L 37,112  L 34,112  L 34,113  L 31,113  L 31,114  L 28,114  L 28,115  L 27,115  L 27,117  L 26,117  L 26,118  L 27,118  L 27,119  L 28,119  L 28,120  L 29,120  L 29,121  L 30,121  L 30,120  L 31,120  L 31,121  L 32,121  L 32,120  L 35,120  L 35,119  L 38,119  L 38,118  L 45,118  L 45,117  L 53,117  L 53,116  L 56,116  L 56,117  L 57,117  L 57,116  L 64,116  L 64,117  L 65,117  L 65,116  L 67,116  L 67,117  L 71,117  L 71,118  L 73,118  L 73,119  L 74,119  L 74,120  L 75,120  L 75,122  L 76,122  L 76,125  L 75,125  L 75,130  L 74,130  L 74,134  L 73,134  L 73,154  L 72,154  L 72,160  L 71,160  L 71,164  L 70,164  L 70,166  L 69,166  L 69,170  L 68,170  L 68,173  L 67,173  L 67,174  L 68,174  L 68,177  L 67,177  L 67,179  L 68,179  L 68,182  L 75,182  L 75,181  L 76,181  L 76,179  L 77,179  L 77,172  L 78,172  L 78,168  L 79,168  L 79,164  L 80,164  L 80,161  L 81,161  L 81,160  L 80,160  L 80,159  Z  " style="fill:rgb(0, 0, 0); fill-opacity:1.000; stroke:none;" />
 <path d="  M 89,58  L 88,58  L 88,59  L 89,59  L 89,62  L 88,62  L 88,63  L 89,63  L 89,66  L 88,66  L 88,67  L 89,67  L 89,70  L 88,70  L 88,71  L 89,71  L 89,74  L 88,74  L 88,76  L 89,76  L 89,78  L 88,78  L 88,80  L 89,80  L 89,82  L 88,82  L 88,100  L 89,100  L 89,101  L 90,101  L 90,102  L 93,102  L 93,101  L 95,101  L 95,99  L 96,99  L 96,98  L 95,98  L 95,95  L 96,95  L 96,94  L 95,94  L 95,91  L 96,91  L 96,90  L 95,90  L 95,88  L 96,88  L 96,86  L 95,86  L 95,85  L 96,85  L 96,14  L 95,14  L 95,5  L 94,5  L 94,4  L 93,4  L 93,2  L 92,2  L 92,1  L 91,1  L 91,0  L 88,0  L 88,1  L 86,1  L 86,2  L 85,2  L 85,3  L 86,3  L 86,8  L 87,8  L 87,18  L 88,18  L 88,20  L 87,20  L 87,21  L 88,21  L 88,28  L 89,28  L 89,30  L 88,30  L 88,31  L 89,31  L 89,34  L 88,34  L 88,35  L 89,35  Z  " style="fill:rgb(0, 0, 0); fill-opacity:1.000; stroke:none;" />
</svg>
