<?xml version="1.0" encoding="UTF-8" standalone="no"?>
<!DOCTYPE svg PUBLIC "-//W3C//DTD SVG 1.1//EN" 
  "http://www.w3.org/Graphics/SVG/1.1/DTD/svg11.dtd">
<svg width="102" height="176"
     xmlns="http://www.w3.org/2000/svg" version="1.1">
 <path d="  M 24,170  L 21,170  L 21,169  L 20,169  L 20,170  L 19,170  L 19,169  L 13,169  L 13,168  L 11,168  L 11,167  L 9,167  L 9,163  L 8,163  L 8,157  L 9,157  L 9,154  L 10,154  L 10,153  L 12,153  L 12,152  L 14,152  L 14,151  L 15,151  L 15,150  L 16,150  L 16,151  L 17,151  L 17,149  L 20,149  L 20,148  L 22,148  L 22,147  L 23,147  L 23,148  L 24,148  L 24,147  L 26,147  L 26,146  L 30,146  L 30,145  L 32,145  L 32,144  L 34,144  L 34,143  L 37,143  L 37,142  L 38,142  L 38,141  L 40,141  L 40,140  L 41,140  L 41,139  L 42,139  L 42,137  L 44,137  L 44,136  L 45,136  L 45,135  L 46,135  L 46,133  L 47,133  L 47,127  L 48,127  L 48,126  L 47,126  L 47,123  L 46,123  L 46,122  L 45,122  L 45,120  L 44,120  L 44,119  L 43,119  L 43,117  L 41,117  L 41,116  L 40,116  L 40,115  L 39,115  L 39,114  L 37,114  L 37,113  L 36,113  L 36,112  L 34,112  L 34,111  L 32,111  L 32,110  L 27,110  L 27,109  L 26,109  L 26,110  L 25,110  L 25,109  L 24,109  L 24,110  L 17,110  L 17,111  L 16,111  L 16,110  L 15,110  L 15,111  L 14,111  L 14,112  L 13,112  L 13,111  L 12,111  L 12,112  L 11,112  L 11,113  L 10,113  L 10,115  L 9,115  L 9,117  L 8,117  L 8,118  L 7,118  L 7,119  L 8,119  L 8,120  L 7,120  L 7,121  L 8,121  L 8,123  L 9,123  L 9,124  L 11,124  L 11,123  L 13,123  L 13,122  L 14,122  L 14,121  L 15,121  L 15,120  L 17,120  L 17,119  L 19,119  L 19,118  L 21,118  L 21,117  L 29,117  L 29,118  L 30,118  L 30,119  L 33,119  L 33,120  L 35,120  L 35,121  L 36,121  L 36,122  L 37,122  L 37,123  L 38,123  L 38,125  L 39,125  L 39,131  L 38,131  L 38,133  L 37,133  L 37,134  L 36,134  L 36,135  L 35,135  L 35,136  L 32,136  L 32,138  L 29,138  L 29,139  L 26,139  L 26,140  L 23,140  L 23,141  L 20,141  L 20,142  L 16,142  L 16,143  L 14,143  L 14,144  L 11,144  L 11,145  L 10,145  L 10,144  L 9,144  L 9,145  L 8,145  L 8,146  L 7,146  L 7,145  L 6,145  L 6,146  L 4,146  L 4,148  L 3,148  L 3,150  L 1,150  L 1,163  L 2,163  L 2,167  L 3,167  L 3,169  L 4,169  L 4,171  L 5,171  L 5,172  L 7,172  L 7,173  L 8,173  L 8,174  L 11,174  L 11,175  L 14,175  L 14,176  L 38,176  L 38,175  L 41,175  L 41,174  L 44,174  L 44,173  L 46,173  L 46,172  L 48,172  L 48,171  L 50,171  L 50,170  L 53,170  L 53,169  L 54,169  L 54,168  L 55,168  L 55,167  L 57,167  L 57,166  L 58,166  L 58,165  L 60,165  L 60,166  L 61,166  L 61,169  L 63,169  L 63,170  L 64,170  L 64,171  L 65,171  L 65,172  L 67,172  L 67,173  L 69,173  L 69,174  L 70,174  L 70,173  L 71,173  L 71,174  L 72,174  L 72,173  L 73,173  L 73,174  L 74,174  L 74,173  L 82,173  L 82,172  L 83,172  L 83,173  L 84,173  L 84,172  L 89,172  L 89,171  L 93,171  L 93,170  L 95,170  L 95,169  L 96,169  L 96,168  L 97,168  L 97,167  L 98,167  L 98,165  L 99,165  L 99,159  L 100,159  L 100,158  L 99,158  L 99,157  L 100,157  L 100,146  L 101,146  L 101,144  L 100,144  L 100,142  L 101,142  L 101,131  L 102,131  L 102,117  L 100,117  L 100,116  L 99,116  L 99,115  L 94,115  L 94,114  L 93,114  L 93,115  L 90,115  L 90,114  L 89,114  L 89,115  L 86,115  L 86,114  L 85,114  L 85,115  L 82,115  L 82,114  L 81,114  L 81,115  L 73,115  L 73,116  L 72,116  L 72,115  L 71,115  L 71,116  L 66,116  L 66,115  L 65,115  L 65,116  L 63,116  L 63,117  L 59,117  L 59,118  L 58,118  L 58,119  L 56,119  L 56,121  L 55,121  L 55,123  L 56,123  L 56,124  L 58,124  L 58,125  L 60,125  L 60,126  L 61,126  L 61,129  L 60,129  L 60,130  L 61,130  L 61,132  L 60,132  L 60,135  L 61,135  L 61,136  L 60,136  L 60,148  L 59,148  L 59,149  L 60,149  L 60,152  L 59,152  L 59,153  L 60,153  L 60,156  L 59,156  L 59,159  L 53,159  L 53,160  L 51,160  L 51,161  L 49,161  L 49,162  L 47,162  L 47,163  L 46,163  L 46,164  L 43,164  L 43,165  L 42,165  L 42,166  L 38,166  L 38,168  L 32,168  L 32,169  L 26,169  L 26,170  L 25,170  L 25,169  L 24,169  Z  M 95,124  L 95,125  L 96,125  L 96,127  L 95,127  L 95,134  L 94,134  L 94,145  L 93,145  L 93,156  L 92,156  L 92,157  L 93,157  L 93,158  L 92,158  L 92,160  L 91,160  L 91,161  L 92,161  L 92,162  L 91,162  L 91,164  L 90,164  L 90,165  L 86,165  L 86,166  L 85,166  L 85,165  L 84,165  L 84,166  L 69,166  L 69,165  L 68,165  L 68,164  L 67,164  L 67,160  L 66,160  L 66,157  L 67,157  L 67,156  L 66,156  L 66,154  L 67,154  L 67,133  L 68,133  L 68,126  L 69,126  L 69,125  L 72,125  L 72,124  L 73,124  L 73,125  L 74,125  L 74,124  Z  " style="fill:rgb(0, 0, 0); fill-opacity:1.000; stroke:none;" />
 <path d="  M 55,76  L 55,75  L 56,75  L 56,74  L 57,74  L 57,73  L 58,73  L 58,72  L 59,72  L 59,71  L 60,71  L 60,70  L 61,70  L 61,69  L 62,69  L 62,68  L 63,68  L 63,67  L 64,67  L 64,64  L 65,64  L 65,62  L 62,62  L 62,63  L 61,63  L 61,64  L 59,64  L 59,65  L 57,65  L 57,66  L 55,66  L 55,67  L 53,67  L 53,68  L 51,68  L 51,69  L 49,69  L 49,70  L 45,70  L 45,71  L 43,71  L 43,72  L 39,72  L 39,73  L 34,73  L 34,74  L 29,74  L 29,75  L 18,75  L 18,74  L 17,74  L 17,73  L 16,73  L 16,70  L 15,70  L 15,63  L 14,63  L 14,62  L 15,62  L 15,61  L 14,61  L 14,53  L 13,53  L 13,48  L 12,48  L 12,42  L 11,42  L 11,39  L 12,39  L 12,38  L 11,38  L 11,28  L 10,28  L 10,15  L 9,15  L 9,14  L 8,14  L 8,13  L 6,13  L 6,12  L 4,12  L 4,13  L 3,13  L 3,14  L 2,14  L 2,22  L 3,22  L 3,29  L 4,29  L 4,30  L 3,30  L 3,31  L 4,31  L 4,39  L 5,39  L 5,48  L 6,48  L 6,56  L 7,56  L 7,65  L 8,65  L 8,66  L 7,66  L 7,67  L 8,67  L 8,71  L 9,71  L 9,73  L 8,73  L 8,74  L 9,74  L 9,77  L 10,77  L 10,80  L 11,80  L 11,81  L 12,81  L 12,82  L 15,82  L 15,83  L 17,83  L 17,84  L 22,84  L 22,83  L 26,83  L 26,82  L 27,82  L 27,83  L 28,83  L 28,82  L 31,82  L 31,81  L 32,81  L 32,82  L 33,82  L 33,81  L 37,81  L 37,80  L 42,80  L 42,79  L 46,79  L 46,78  L 50,78  L 50,77  L 53,77  L 53,76  Z  " style="fill:rgb(0, 0, 0); fill-opacity:1.000; stroke:none;" />
 <path d="  M 56,169  L 56,168  L 55,168  L 55,169  Z  " style="fill:rgb(0, 0, 0); fill-opacity:1.000; stroke:none;" />
 <path d="  M 82,91  L 83,91  L 83,92  L 82,92  L 82,93  L 83,93  L 83,100  L 84,100  L 84,103  L 85,103  L 85,105  L 89,105  L 89,62  L 88,62  L 88,61  L 89,61  L 89,60  L 88,60  L 88,49  L 87,49  L 87,48  L 88,48  L 88,46  L 87,46  L 87,43  L 88,43  L 88,42  L 87,42  L 87,39  L 88,39  L 88,38  L 87,38  L 87,35  L 88,35  L 88,34  L 87,34  L 87,31  L 88,31  L 88,30  L 87,30  L 87,28  L 88,28  L 88,26  L 87,26  L 87,24  L 88,24  L 88,22  L 87,22  L 87,19  L 88,19  L 88,18  L 87,18  L 87,15  L 88,15  L 88,14  L 87,14  L 87,11  L 88,11  L 88,10  L 87,10  L 87,7  L 88,7  L 88,6  L 87,6  L 87,4  L 86,4  L 86,1  L 81,1  L 81,2  L 80,2  L 80,4  L 79,4  L 79,51  L 78,51  L 78,56  L 79,56  L 79,58  L 80,58  L 80,59  L 81,59  L 81,73  L 82,73  L 82,75  L 81,75  L 81,77  L 82,77  Z  " style="fill:rgb(0, 0, 0); fill-opacity:1.000; stroke:none;" />
</svg>
