<?xml version="1.0" encoding="UTF-8" standalone="no"?>
<!DOCTYPE svg PUBLIC "-//W3C//DTD SVG 1.1//EN" 
  "http://www.w3.org/Graphics/SVG/1.1/DTD/svg11.dtd">
<svg width="100" height="177"
     xmlns="http://www.w3.org/2000/svg" version="1.1">
 <path d="  M 61,60  L 60,60  L 60,61  L 58,61  L 58,62  L 56,62  L 56,63  L 55,63  L 55,64  L 51,64  L 51,65  L 48,65  L 48,66  L 45,66  L 45,67  L 43,67  L 43,68  L 39,68  L 39,69  L 37,69  L 37,70  L 34,70  L 34,71  L 32,71  L 32,72  L 29,72  L 29,73  L 27,73  L 27,74  L 23,74  L 23,75  L 18,75  L 18,74  L 15,74  L 15,72  L 14,72  L 14,70  L 13,70  L 13,69  L 14,69  L 14,68  L 13,68  L 13,63  L 12,63  L 12,54  L 11,54  L 11,47  L 10,47  L 10,40  L 9,40  L 9,26  L 8,26  L 8,24  L 9,24  L 9,7  L 8,7  L 8,6  L 3,6  L 3,7  L 2,7  L 2,8  L 1,8  L 1,33  L 2,33  L 2,41  L 3,41  L 3,49  L 4,49  L 4,54  L 5,54  L 5,66  L 6,66  L 6,72  L 7,72  L 7,76  L 8,76  L 8,79  L 9,79  L 9,80  L 10,80  L 10,81  L 12,81  L 12,82  L 15,82  L 15,83  L 16,83  L 16,82  L 24,82  L 24,81  L 30,81  L 30,80  L 32,80  L 32,79  L 35,79  L 35,78  L 38,78  L 38,77  L 40,77  L 40,76  L 43,76  L 43,75  L 46,75  L 46,74  L 49,74  L 49,73  L 52,73  L 52,72  L 54,72  L 54,71  L 56,71  L 56,70  L 58,70  L 58,69  L 60,69  L 60,68  L 61,68  L 61,67  L 63,67  L 63,66  L 65,66  L 65,65  L 66,65  L 66,64  L 67,64  L 67,63  L 69,63  L 69,62  L 70,62  L 70,61  L 71,61  L 71,60  L 73,60  L 73,59  L 74,59  L 74,58  L 75,58  L 75,56  L 69,56  L 69,57  L 64,57  L 64,58  L 63,58  L 63,59  L 61,59  Z  " style="fill:rgb(0, 0, 0); fill-opacity:1.000; stroke:none;" />
 <path d="  M 91,148  L 92,148  L 92,142  L 93,142  L 93,141  L 94,141  L 94,140  L 93,140  L 93,139  L 94,139  L 94,134  L 95,134  L 95,108  L 92,108  L 92,107  L 89,107  L 89,108  L 88,108  L 88,114  L 87,114  L 87,115  L 88,115  L 88,133  L 87,133  L 87,135  L 86,135  L 86,136  L 80,136  L 80,135  L 79,135  L 79,136  L 76,136  L 76,135  L 75,135  L 75,136  L 72,136  L 72,135  L 71,135  L 71,136  L 68,136  L 68,135  L 67,135  L 67,136  L 64,136  L 64,135  L 63,135  L 63,136  L 46,136  L 46,137  L 45,137  L 45,136  L 43,136  L 43,137  L 40,137  L 40,136  L 39,136  L 39,135  L 40,135  L 40,134  L 39,134  L 39,123  L 40,123  L 40,113  L 41,113  L 41,105  L 42,105  L 42,101  L 41,101  L 41,100  L 40,100  L 40,99  L 38,99  L 38,100  L 37,100  L 37,101  L 35,101  L 35,102  L 34,102  L 34,103  L 33,103  L 33,104  L 32,104  L 32,108  L 31,108  L 31,109  L 32,109  L 32,110  L 31,110  L 31,111  L 32,111  L 32,112  L 31,112  L 31,113  L 32,113  L 32,114  L 31,114  L 31,140  L 30,140  L 30,141  L 31,141  L 31,143  L 32,143  L 32,148  L 33,148  L 33,151  L 32,151  L 32,152  L 33,152  L 33,155  L 34,155  L 34,164  L 35,164  L 35,167  L 36,167  L 36,168  L 35,168  L 35,169  L 36,169  L 36,170  L 37,170  L 37,172  L 38,172  L 38,174  L 39,174  L 39,175  L 40,175  L 40,176  L 42,176  L 42,177  L 43,177  L 43,176  L 45,176  L 45,177  L 70,177  L 70,176  L 72,176  L 72,175  L 76,175  L 76,174  L 77,174  L 77,173  L 78,173  L 78,172  L 80,172  L 80,171  L 82,171  L 82,170  L 84,170  L 84,169  L 85,169  L 85,168  L 86,168  L 86,167  L 87,167  L 87,166  L 88,166  L 88,165  L 89,165  L 89,162  L 90,162  L 90,157  L 91,157  L 91,156  L 90,156  L 90,155  L 91,155  Z  M 73,167  L 72,167  L 72,168  L 69,168  L 69,169  L 68,169  L 68,168  L 67,168  L 67,170  L 66,170  L 66,169  L 64,169  L 64,170  L 45,170  L 45,169  L 44,169  L 44,168  L 43,168  L 43,167  L 44,167  L 44,166  L 43,166  L 43,165  L 42,165  L 42,159  L 41,159  L 41,150  L 40,150  L 40,147  L 41,147  L 41,146  L 42,146  L 42,145  L 49,145  L 49,144  L 50,144  L 50,145  L 51,145  L 51,144  L 54,144  L 54,145  L 55,145  L 55,144  L 58,144  L 58,145  L 59,145  L 59,144  L 62,144  L 62,145  L 63,145  L 63,144  L 66,144  L 66,145  L 67,145  L 67,144  L 70,144  L 70,145  L 71,145  L 71,144  L 74,144  L 74,145  L 75,145  L 75,144  L 78,144  L 78,145  L 79,145  L 79,144  L 82,144  L 82,145  L 83,145  L 83,147  L 84,147  L 84,150  L 83,150  L 83,151  L 84,151  L 84,152  L 83,152  L 83,158  L 82,158  L 82,161  L 81,161  L 81,163  L 80,163  L 80,164  L 77,164  L 77,165  L 75,165  L 75,166  L 73,166  Z  " style="fill:rgb(0, 0, 0); fill-opacity:1.000; stroke:none;" />
 <path d="  M 93,93  L 92,93  L 92,95  L 93,95  L 93,96  L 94,96  L 94,97  L 99,97  L 99,98  L 100,98  L 100,13  L 99,13  L 99,12  L 100,12  L 100,11  L 99,11  L 99,10  L 100,10  L 100,9  L 99,9  L 99,4  L 98,4  L 98,3  L 97,3  L 97,2  L 96,2  L 96,1  L 94,1  L 94,0  L 93,0  L 93,1  L 91,1  L 91,3  L 90,3  L 90,9  L 91,9  L 91,19  L 92,19  L 92,30  L 93,30  Z  " style="fill:rgb(0, 0, 0); fill-opacity:1.000; stroke:none;" />
</svg>
