<?xml version="1.0" encoding="UTF-8" standalone="no"?>
<!DOCTYPE svg PUBLIC "-//W3C//DTD SVG 1.1//EN" 
  "http://www.w3.org/Graphics/SVG/1.1/DTD/svg11.dtd">
<svg width="103" height="161"
     xmlns="http://www.w3.org/2000/svg" version="1.1">
 <path d="  M 38,71  L 38,70  L 41,70  L 41,69  L 45,69  L 45,68  L 48,68  L 48,67  L 53,67  L 53,66  L 57,66  L 57,65  L 59,65  L 59,64  L 61,64  L 61,63  L 63,63  L 63,62  L 64,62  L 64,61  L 65,61  L 65,60  L 67,60  L 67,59  L 69,59  L 69,58  L 70,58  L 70,57  L 71,57  L 71,55  L 70,55  L 70,54  L 61,54  L 61,55  L 59,55  L 59,56  L 57,56  L 57,57  L 54,57  L 54,58  L 51,58  L 51,59  L 49,59  L 49,60  L 45,60  L 45,61  L 43,61  L 43,62  L 39,62  L 39,63  L 35,63  L 35,64  L 33,64  L 33,65  L 28,65  L 28,66  L 27,66  L 27,67  L 22,67  L 22,68  L 15,68  L 15,66  L 14,66  L 14,63  L 13,63  L 13,54  L 12,54  L 12,49  L 11,49  L 11,43  L 10,43  L 10,31  L 9,31  L 9,16  L 10,16  L 10,15  L 9,15  L 9,13  L 10,13  L 10,12  L 9,12  L 9,10  L 8,10  L 8,9  L 7,9  L 7,8  L 3,8  L 3,9  L 2,9  L 2,10  L 1,10  L 1,20  L 2,20  L 2,32  L 3,32  L 3,39  L 4,39  L 4,46  L 5,46  L 5,52  L 6,52  L 6,60  L 7,60  L 7,70  L 8,70  L 8,73  L 10,73  L 10,74  L 13,74  L 13,75  L 15,75  L 15,76  L 16,76  L 16,75  L 24,75  L 24,74  L 27,74  L 27,73  L 30,73  L 30,72  L 33,72  L 33,71  Z  " style="fill:rgb(0, 0, 0); fill-opacity:1.000; stroke:none;" />
 <path d="  M 94,147  L 92,147  L 92,146  L 90,146  L 90,145  L 89,145  L 89,144  L 86,144  L 86,143  L 85,143  L 85,142  L 84,142  L 84,141  L 81,141  L 81,140  L 79,140  L 79,139  L 78,139  L 78,138  L 76,138  L 76,137  L 75,137  L 75,136  L 74,136  L 74,135  L 72,135  L 72,134  L 71,134  L 71,133  L 69,133  L 69,132  L 68,132  L 68,131  L 65,131  L 65,130  L 64,130  L 64,129  L 63,129  L 63,128  L 62,128  L 62,127  L 61,127  L 61,126  L 60,126  L 60,125  L 58,125  L 58,124  L 56,124  L 56,123  L 55,123  L 55,121  L 54,121  L 54,119  L 53,119  L 53,117  L 54,117  L 54,115  L 55,115  L 55,114  L 56,114  L 56,113  L 57,113  L 57,112  L 58,112  L 58,111  L 59,111  L 59,109  L 60,109  L 60,108  L 62,108  L 62,106  L 63,106  L 63,104  L 64,104  L 64,102  L 65,102  L 65,99  L 64,99  L 64,98  L 63,98  L 63,97  L 62,97  L 62,98  L 61,98  L 61,97  L 60,97  L 60,98  L 57,98  L 57,99  L 55,99  L 55,103  L 54,103  L 54,104  L 53,104  L 53,105  L 52,105  L 52,107  L 51,107  L 51,108  L 50,108  L 50,109  L 49,109  L 49,111  L 47,111  L 47,113  L 46,113  L 46,114  L 45,114  L 45,116  L 44,116  L 44,117  L 43,117  L 43,119  L 42,119  L 42,121  L 41,121  L 41,123  L 40,123  L 40,124  L 39,124  L 39,125  L 38,125  L 38,127  L 37,127  L 37,129  L 36,129  L 36,130  L 35,130  L 35,132  L 34,132  L 34,134  L 33,134  L 33,136  L 32,136  L 32,139  L 31,139  L 31,140  L 30,140  L 30,142  L 29,142  L 29,144  L 28,144  L 28,145  L 26,145  L 26,147  L 25,147  L 25,149  L 24,149  L 24,150  L 22,150  L 22,152  L 21,152  L 21,154  L 20,154  L 20,156  L 19,156  L 19,157  L 18,157  L 18,159  L 19,159  L 19,160  L 20,160  L 20,161  L 26,161  L 26,159  L 28,159  L 28,157  L 29,157  L 29,156  L 30,156  L 30,154  L 31,154  L 31,152  L 32,152  L 32,150  L 33,150  L 33,149  L 34,149  L 34,147  L 35,147  L 35,146  L 36,146  L 36,144  L 37,144  L 37,143  L 38,143  L 38,141  L 39,141  L 39,139  L 40,139  L 40,137  L 41,137  L 41,136  L 42,136  L 42,134  L 43,134  L 43,132  L 44,132  L 44,129  L 45,129  L 45,128  L 46,128  L 46,126  L 49,126  L 49,127  L 50,127  L 50,128  L 52,128  L 52,130  L 53,130  L 53,131  L 54,131  L 54,132  L 57,132  L 57,133  L 58,133  L 58,134  L 60,134  L 60,135  L 61,135  L 61,136  L 63,136  L 63,137  L 64,137  L 64,138  L 65,138  L 65,139  L 67,139  L 67,140  L 68,140  L 68,141  L 70,141  L 70,142  L 71,142  L 71,143  L 72,143  L 72,144  L 74,144  L 74,145  L 76,145  L 76,146  L 77,146  L 77,147  L 79,147  L 79,148  L 80,148  L 80,149  L 82,149  L 82,150  L 85,150  L 85,151  L 87,151  L 87,152  L 88,152  L 88,153  L 90,153  L 90,154  L 93,154  L 93,155  L 95,155  L 95,156  L 96,156  L 96,157  L 101,157  L 101,156  L 103,156  L 103,151  L 102,151  L 102,150  L 100,150  L 100,149  L 97,149  L 97,148  L 94,148  Z  " style="fill:rgb(0, 0, 0); fill-opacity:1.000; stroke:none;" />
 <path d="  M 90,73  L 89,73  L 89,74  L 90,74  L 90,77  L 89,77  L 89,78  L 90,78  L 90,79  L 89,79  L 89,80  L 90,80  L 90,81  L 89,81  L 89,88  L 90,88  L 90,89  L 89,89  L 89,90  L 90,90  L 90,93  L 89,93  L 89,94  L 90,94  L 90,100  L 91,100  L 91,101  L 93,101  L 93,100  L 94,100  L 94,99  L 95,99  L 95,97  L 96,97  L 96,93  L 97,93  L 97,83  L 96,83  L 96,82  L 97,82  L 97,64  L 98,64  L 98,63  L 97,63  L 97,60  L 98,60  L 98,59  L 97,59  L 97,56  L 98,56  L 98,55  L 97,55  L 97,52  L 98,52  L 98,51  L 97,51  L 97,50  L 98,50  L 98,47  L 97,47  L 97,46  L 98,46  L 98,43  L 97,43  L 97,40  L 98,40  L 98,39  L 97,39  L 97,36  L 98,36  L 98,35  L 97,35  L 97,32  L 98,32  L 98,31  L 97,31  L 97,19  L 96,19  L 96,18  L 97,18  L 97,16  L 96,16  L 96,6  L 95,6  L 95,4  L 94,4  L 94,3  L 93,3  L 93,2  L 92,2  L 92,1  L 90,1  L 90,0  L 89,0  L 89,2  L 88,2  L 88,9  L 89,9  L 89,20  L 90,20  L 90,21  L 89,21  L 89,22  L 90,22  L 90,41  L 91,41  L 91,42  L 90,42  L 90,45  L 91,45  L 91,47  L 90,47  L 90,48  L 91,48  L 91,51  L 90,51  Z  " style="fill:rgb(0, 0, 0); fill-opacity:1.000; stroke:none;" />
</svg>
