<?xml version="1.0" encoding="UTF-8" standalone="no"?>
<!DOCTYPE svg PUBLIC "-//W3C//DTD SVG 1.1//EN" 
  "http://www.w3.org/Graphics/SVG/1.1/DTD/svg11.dtd">
<svg width="96" height="170"
     xmlns="http://www.w3.org/2000/svg" version="1.1">
 <path d="  M 3,72  L 4,72  L 4,77  L 5,77  L 5,80  L 6,80  L 6,81  L 7,81  L 7,82  L 9,82  L 9,84  L 13,84  L 13,85  L 17,85  L 17,84  L 21,84  L 21,83  L 26,83  L 26,82  L 29,82  L 29,81  L 32,81  L 32,80  L 35,80  L 35,79  L 39,79  L 39,78  L 43,78  L 43,77  L 47,77  L 47,76  L 50,76  L 50,75  L 51,75  L 51,74  L 53,74  L 53,73  L 55,73  L 55,72  L 56,72  L 56,71  L 57,71  L 57,70  L 58,70  L 58,69  L 59,69  L 59,68  L 60,68  L 60,67  L 61,67  L 61,66  L 63,66  L 63,65  L 64,65  L 64,64  L 65,64  L 65,63  L 66,63  L 66,62  L 69,62  L 69,61  L 70,61  L 70,60  L 71,60  L 71,59  L 70,59  L 70,58  L 69,58  L 69,57  L 68,57  L 68,58  L 64,58  L 64,59  L 63,59  L 63,60  L 61,60  L 61,61  L 59,61  L 59,62  L 58,62  L 58,63  L 57,63  L 57,64  L 55,64  L 55,65  L 54,65  L 54,66  L 53,66  L 53,67  L 49,67  L 49,68  L 47,68  L 47,69  L 44,69  L 44,70  L 42,70  L 42,71  L 38,71  L 38,72  L 35,72  L 35,73  L 31,73  L 31,74  L 29,74  L 29,75  L 26,75  L 26,76  L 23,76  L 23,77  L 16,77  L 16,78  L 15,78  L 15,77  L 13,77  L 13,76  L 12,76  L 12,74  L 11,74  L 11,65  L 10,65  L 10,64  L 11,64  L 11,63  L 10,63  L 10,62  L 11,62  L 11,61  L 10,61  L 10,39  L 9,39  L 9,38  L 10,38  L 10,35  L 9,35  L 9,34  L 10,34  L 10,33  L 9,33  L 9,32  L 10,32  L 10,31  L 9,31  L 9,24  L 10,24  L 10,23  L 9,23  L 9,20  L 10,20  L 10,19  L 9,19  L 9,18  L 8,18  L 8,16  L 5,16  L 5,15  L 4,15  L 4,16  L 2,16  L 2,17  L 1,17  L 1,23  L 2,23  L 2,40  L 3,40  L 3,41  L 2,41  L 2,44  L 3,44  L 3,45  L 2,45  L 2,48  L 3,48  L 3,51  L 2,51  L 2,52  L 3,52  L 3,55  L 2,55  L 2,56  L 3,56  Z  " style="fill:rgb(0, 0, 0); fill-opacity:1.000; stroke:none;" />
 <path d="  M 87,116  L 84,116  L 84,115  L 79,115  L 79,114  L 71,114  L 71,113  L 70,113  L 70,114  L 69,114  L 69,113  L 60,113  L 60,112  L 59,112  L 59,111  L 56,111  L 56,110  L 52,110  L 52,111  L 51,111  L 51,112  L 50,112  L 50,113  L 49,113  L 49,114  L 48,114  L 48,115  L 47,115  L 47,116  L 46,116  L 46,117  L 44,117  L 44,118  L 43,118  L 43,120  L 42,120  L 42,121  L 41,121  L 41,122  L 40,122  L 40,124  L 39,124  L 39,125  L 38,125  L 38,126  L 37,126  L 37,127  L 36,127  L 36,130  L 35,130  L 35,131  L 34,131  L 34,135  L 33,135  L 33,139  L 32,139  L 32,143  L 31,143  L 31,147  L 30,147  L 30,148  L 31,148  L 31,153  L 30,153  L 30,155  L 31,155  L 31,159  L 32,159  L 32,160  L 31,160  L 31,161  L 32,161  L 32,162  L 33,162  L 33,163  L 34,163  L 34,164  L 35,164  L 35,165  L 36,165  L 36,164  L 37,164  L 37,165  L 38,165  L 38,166  L 40,166  L 40,167  L 43,167  L 43,168  L 47,168  L 47,169  L 48,169  L 48,170  L 67,170  L 67,169  L 70,169  L 70,168  L 75,168  L 75,167  L 78,167  L 78,166  L 79,166  L 79,165  L 82,165  L 82,164  L 84,164  L 84,163  L 85,163  L 85,162  L 87,162  L 87,161  L 89,161  L 89,160  L 90,160  L 90,159  L 91,159  L 91,158  L 92,158  L 92,156  L 93,156  L 93,155  L 94,155  L 94,153  L 95,153  L 95,151  L 96,151  L 96,126  L 95,126  L 95,125  L 94,125  L 94,123  L 93,123  L 93,121  L 92,121  L 92,119  L 90,119  L 90,118  L 89,118  L 89,117  L 87,117  Z  M 50,124  L 50,123  L 51,123  L 51,122  L 53,122  L 53,121  L 59,121  L 59,120  L 65,120  L 65,121  L 66,121  L 66,120  L 67,120  L 67,121  L 76,121  L 76,122  L 81,122  L 81,123  L 83,123  L 83,124  L 85,124  L 85,125  L 86,125  L 86,126  L 87,126  L 87,127  L 88,127  L 88,128  L 89,128  L 89,131  L 90,131  L 90,147  L 89,147  L 89,149  L 88,149  L 88,151  L 87,151  L 87,152  L 86,152  L 86,153  L 85,153  L 85,154  L 84,154  L 84,156  L 81,156  L 81,157  L 79,157  L 79,158  L 78,158  L 78,159  L 76,159  L 76,160  L 73,160  L 73,161  L 69,161  L 69,162  L 67,162  L 67,163  L 58,163  L 58,164  L 56,164  L 56,163  L 50,163  L 50,162  L 47,162  L 47,161  L 44,161  L 44,160  L 41,160  L 41,159  L 39,159  L 39,157  L 38,157  L 38,155  L 37,155  L 37,147  L 38,147  L 38,142  L 39,142  L 39,138  L 40,138  L 40,136  L 41,136  L 41,134  L 42,134  L 42,131  L 43,131  L 43,130  L 45,130  L 45,128  L 46,128  L 46,127  L 47,127  L 47,126  L 48,126  L 48,125  L 49,125  L 49,124  Z  " style="fill:rgb(0, 0, 0); fill-opacity:1.000; stroke:none;" />
 <path d="  M 86,93  L 87,93  L 87,99  L 88,99  L 88,104  L 89,104  L 89,105  L 90,105  L 90,107  L 91,107  L 91,108  L 93,108  L 93,109  L 96,109  L 96,101  L 95,101  L 95,98  L 94,98  L 94,89  L 93,89  L 93,86  L 94,86  L 94,85  L 93,85  L 93,82  L 94,82  L 94,81  L 93,81  L 93,80  L 94,80  L 94,29  L 93,29  L 93,21  L 92,21  L 92,12  L 91,12  L 91,7  L 90,7  L 90,4  L 89,4  L 89,2  L 88,2  L 88,1  L 86,1  L 86,0  L 84,0  L 84,1  L 83,1  L 83,10  L 84,10  L 84,18  L 85,18  L 85,19  L 84,19  L 84,20  L 85,20  L 85,28  L 86,28  Z  " style="fill:rgb(0, 0, 0); fill-opacity:1.000; stroke:none;" />
</svg>
