<?xml version="1.0" encoding="UTF-8" standalone="no"?>
<!DOCTYPE svg PUBLIC "-//W3C//DTD SVG 1.1//EN" 
  "http://www.w3.org/Graphics/SVG/1.1/DTD/svg11.dtd">
<svg width="101" height="136"
     xmlns="http://www.w3.org/2000/svg" version="1.1">
 <path d="  M 1,44  L 2,44  L 2,45  L 1,45  L 1,46  L 2,46  L 2,54  L 3,54  L 3,62  L 4,62  L 4,64  L 5,64  L 5,67  L 6,67  L 6,68  L 8,68  L 8,69  L 10,69  L 10,70  L 16,70  L 16,71  L 18,71  L 18,70  L 19,70  L 19,71  L 22,71  L 22,70  L 30,70  L 30,69  L 35,69  L 35,68  L 40,68  L 40,67  L 48,67  L 48,66  L 53,66  L 53,65  L 55,65  L 55,64  L 56,64  L 56,63  L 57,63  L 57,60  L 56,60  L 56,58  L 52,58  L 52,59  L 50,59  L 50,60  L 44,60  L 44,61  L 38,61  L 38,62  L 32,62  L 32,63  L 23,63  L 23,64  L 14,64  L 14,63  L 11,63  L 11,62  L 10,62  L 10,53  L 9,53  L 9,46  L 8,46  L 8,23  L 9,23  L 9,22  L 10,22  L 10,20  L 16,20  L 16,19  L 26,19  L 26,18  L 32,18  L 32,17  L 33,17  L 33,18  L 34,18  L 34,17  L 39,17  L 39,16  L 45,16  L 45,15  L 46,15  L 46,16  L 47,16  L 47,15  L 49,15  L 49,14  L 51,14  L 51,13  L 52,13  L 52,12  L 53,12  L 53,10  L 52,10  L 52,9  L 50,9  L 50,8  L 47,8  L 47,9  L 40,9  L 40,10  L 35,10  L 35,11  L 25,11  L 25,12  L 24,12  L 24,11  L 21,11  L 21,12  L 8,12  L 8,11  L 7,11  L 7,12  L 5,12  L 5,13  L 4,13  L 4,14  L 2,14  L 2,15  L 1,15  L 1,16  L 2,16  L 2,18  L 1,18  L 1,20  L 2,20  L 2,21  L 1,21  L 1,23  L 2,23  L 2,24  L 1,24  Z  " style="fill:rgb(0, 0, 0); fill-opacity:1.000; stroke:none;" />
 <path d="  M 84,133  L 84,132  L 85,132  L 85,133  L 86,133  L 86,132  L 88,132  L 88,131  L 89,131  L 89,130  L 90,130  L 90,128  L 91,128  L 91,127  L 90,127  L 90,125  L 82,125  L 82,126  L 80,126  L 80,125  L 79,125  L 79,126  L 71,126  L 71,127  L 61,127  L 61,128  L 55,128  L 55,129  L 47,129  L 47,130  L 46,130  L 46,129  L 43,129  L 43,130  L 36,130  L 36,129  L 35,129  L 35,128  L 34,128  L 34,125  L 33,125  L 33,122  L 32,122  L 32,113  L 31,113  L 31,105  L 30,105  L 30,93  L 29,93  L 29,90  L 27,90  L 27,89  L 26,89  L 26,90  L 25,90  L 25,91  L 24,91  L 24,93  L 23,93  L 23,94  L 24,94  L 24,95  L 23,95  L 23,98  L 24,98  L 24,99  L 23,99  L 23,102  L 24,102  L 24,114  L 25,114  L 25,116  L 24,116  L 24,117  L 25,117  L 25,122  L 26,122  L 26,126  L 27,126  L 27,130  L 28,130  L 28,132  L 29,132  L 29,134  L 30,134  L 30,135  L 33,135  L 33,136  L 52,136  L 52,135  L 60,135  L 60,134  L 68,134  L 68,133  L 69,133  L 69,134  L 70,134  L 70,133  Z  " style="fill:rgb(0, 0, 0); fill-opacity:1.000; stroke:none;" />
 <path d="  M 66,12  L 67,12  L 67,16  L 68,16  L 68,24  L 69,24  L 69,46  L 70,46  L 70,47  L 69,47  L 69,48  L 70,48  L 70,59  L 69,59  L 69,60  L 70,60  L 70,67  L 69,67  L 69,68  L 70,68  L 70,86  L 71,86  L 71,87  L 77,87  L 77,46  L 79,46  L 79,45  L 82,45  L 82,44  L 85,44  L 85,45  L 86,45  L 86,44  L 87,44  L 87,45  L 90,45  L 90,44  L 91,44  L 91,45  L 92,45  L 92,44  L 93,44  L 93,45  L 101,45  L 101,39  L 100,39  L 100,38  L 99,38  L 99,37  L 84,37  L 84,36  L 83,36  L 83,37  L 79,37  L 79,38  L 78,38  L 78,37  L 76,37  L 76,35  L 75,35  L 75,34  L 76,34  L 76,33  L 75,33  L 75,20  L 74,20  L 74,13  L 73,13  L 73,5  L 72,5  L 72,2  L 71,2  L 71,1  L 70,1  L 70,0  L 69,0  L 69,1  L 67,1  L 67,2  L 66,2  Z  " style="fill:rgb(0, 0, 0); fill-opacity:1.000; stroke:none;" />
</svg>
