<?xml version="1.0" encoding="UTF-8" standalone="no"?>
<!DOCTYPE svg PUBLIC "-//W3C//DTD SVG 1.1//EN" 
  "http://www.w3.org/Graphics/SVG/1.1/DTD/svg11.dtd">
<svg width="107" height="150"
     xmlns="http://www.w3.org/2000/svg" version="1.1">
 <path d="  M 39,71  L 39,70  L 43,70  L 43,69  L 45,69  L 45,68  L 49,68  L 49,67  L 56,67  L 56,66  L 62,66  L 62,65  L 65,65  L 65,64  L 67,64  L 67,63  L 68,63  L 68,62  L 69,62  L 69,63  L 70,63  L 70,62  L 71,62  L 71,60  L 70,60  L 70,59  L 68,59  L 68,58  L 61,58  L 61,59  L 57,59  L 57,60  L 52,60  L 52,61  L 49,61  L 49,62  L 43,62  L 43,63  L 39,63  L 39,64  L 36,64  L 36,65  L 32,65  L 32,66  L 20,66  L 20,65  L 19,65  L 19,62  L 18,62  L 18,34  L 17,34  L 17,33  L 18,33  L 18,30  L 17,30  L 17,29  L 18,29  L 18,20  L 22,20  L 22,21  L 26,21  L 26,20  L 27,20  L 27,21  L 29,21  L 29,20  L 39,20  L 39,19  L 45,19  L 45,18  L 52,18  L 52,17  L 60,17  L 60,16  L 61,16  L 61,15  L 62,15  L 62,12  L 61,12  L 61,10  L 56,10  L 56,11  L 51,11  L 51,12  L 44,12  L 44,13  L 33,13  L 33,14  L 19,14  L 19,13  L 14,13  L 14,12  L 5,12  L 5,13  L 4,13  L 4,14  L 2,14  L 2,15  L 1,15  L 1,16  L 0,16  L 0,17  L 1,17  L 1,19  L 2,19  L 2,20  L 10,20  L 10,22  L 11,22  L 11,23  L 10,23  L 10,29  L 11,29  L 11,31  L 10,31  L 10,33  L 11,33  L 11,36  L 10,36  L 10,37  L 11,37  L 11,39  L 10,39  L 10,41  L 11,41  L 11,42  L 10,42  L 10,45  L 11,45  L 11,46  L 10,46  L 10,49  L 11,49  L 11,50  L 10,50  L 10,57  L 11,57  L 11,58  L 10,58  L 10,61  L 11,61  L 11,66  L 12,66  L 12,67  L 11,67  L 11,68  L 12,68  L 12,71  L 13,71  L 13,72  L 14,72  L 14,73  L 21,73  L 21,74  L 23,74  L 23,73  L 32,73  L 32,72  L 34,72  L 34,71  Z  " style="fill:rgb(0, 0, 0); fill-opacity:1.000; stroke:none;" />
 <path d="  M 18,92  L 18,93  L 17,93  L 17,94  L 16,94  L 16,95  L 17,95  L 17,98  L 18,98  L 18,99  L 21,99  L 21,98  L 22,98  L 22,99  L 23,99  L 23,98  L 34,98  L 34,99  L 38,99  L 38,100  L 40,100  L 40,101  L 41,101  L 41,109  L 40,109  L 40,110  L 39,110  L 39,111  L 40,111  L 40,112  L 39,112  L 39,113  L 38,113  L 38,114  L 36,114  L 36,115  L 35,115  L 35,116  L 31,116  L 31,117  L 29,117  L 29,118  L 26,118  L 26,119  L 23,119  L 23,120  L 19,120  L 19,121  L 18,121  L 18,122  L 17,122  L 17,123  L 15,123  L 15,124  L 14,124  L 14,125  L 13,125  L 13,138  L 14,138  L 14,142  L 15,142  L 15,144  L 17,144  L 17,146  L 18,146  L 18,147  L 19,147  L 19,148  L 20,148  L 20,149  L 24,149  L 24,150  L 39,150  L 39,149  L 45,149  L 45,148  L 48,148  L 48,149  L 49,149  L 49,148  L 56,148  L 56,147  L 57,147  L 57,146  L 58,146  L 58,145  L 59,145  L 59,143  L 58,143  L 58,142  L 59,142  L 59,140  L 58,140  L 58,139  L 55,139  L 55,138  L 54,138  L 54,139  L 52,139  L 52,140  L 50,140  L 50,141  L 49,141  L 49,142  L 43,142  L 43,143  L 41,143  L 41,142  L 40,142  L 40,143  L 37,143  L 37,142  L 36,142  L 36,143  L 29,143  L 29,142  L 28,142  L 28,143  L 25,143  L 25,142  L 22,142  L 22,141  L 21,141  L 21,140  L 20,140  L 20,138  L 19,138  L 19,129  L 20,129  L 20,127  L 21,127  L 21,126  L 23,126  L 23,125  L 25,125  L 25,124  L 29,124  L 29,123  L 31,123  L 31,122  L 33,122  L 33,121  L 37,121  L 37,120  L 40,120  L 40,119  L 41,119  L 41,118  L 42,118  L 42,117  L 43,117  L 43,116  L 45,116  L 45,114  L 46,114  L 46,113  L 48,113  L 48,111  L 49,111  L 49,105  L 50,105  L 50,101  L 51,101  L 51,99  L 54,99  L 54,98  L 53,98  L 53,97  L 52,97  L 52,96  L 49,96  L 49,95  L 46,95  L 46,94  L 45,94  L 45,93  L 41,93  L 41,92  L 40,92  L 40,93  L 39,93  L 39,92  Z  " style="fill:rgb(0, 0, 0); fill-opacity:1.000; stroke:none;" />
 <path d="  M 55,99  L 57,99  L 57,98  L 58,98  L 58,96  L 55,96  L 55,97  L 54,97  L 54,98  L 55,98  Z  " style="fill:rgb(0, 0, 0); fill-opacity:1.000; stroke:none;" />
 <path d="  M 63,115  L 64,115  L 64,120  L 65,120  L 65,123  L 66,123  L 66,127  L 67,127  L 67,128  L 66,128  L 66,129  L 67,129  L 67,132  L 66,132  L 66,133  L 67,133  L 67,149  L 68,149  L 68,150  L 88,150  L 88,149  L 89,149  L 89,148  L 90,148  L 90,147  L 91,147  L 91,145  L 92,145  L 92,144  L 93,144  L 93,141  L 94,141  L 94,137  L 95,137  L 95,135  L 96,135  L 96,133  L 97,133  L 97,130  L 98,130  L 98,126  L 99,126  L 99,125  L 100,125  L 100,122  L 101,122  L 101,120  L 102,120  L 102,117  L 103,117  L 103,115  L 104,115  L 104,113  L 105,113  L 105,110  L 106,110  L 106,106  L 105,106  L 105,104  L 104,104  L 104,101  L 103,101  L 103,100  L 102,100  L 102,98  L 100,98  L 100,97  L 97,97  L 97,96  L 82,96  L 82,95  L 81,95  L 81,96  L 80,96  L 80,95  L 79,95  L 79,96  L 76,96  L 76,95  L 75,95  L 75,96  L 72,96  L 72,95  L 71,95  L 71,96  L 70,96  L 70,95  L 67,95  L 67,96  L 62,96  L 62,97  L 59,97  L 59,99  L 60,99  L 60,100  L 61,100  L 61,101  L 62,101  L 62,109  L 63,109  L 63,110  L 62,110  L 62,111  L 63,111  Z  M 70,104  L 70,103  L 94,103  L 94,104  L 95,104  L 95,105  L 96,105  L 96,111  L 95,111  L 95,116  L 94,116  L 94,120  L 93,120  L 93,124  L 92,124  L 92,126  L 91,126  L 91,130  L 90,130  L 90,132  L 89,132  L 89,135  L 88,135  L 88,138  L 87,138  L 87,141  L 86,141  L 86,142  L 85,142  L 85,143  L 84,143  L 84,144  L 79,144  L 79,145  L 74,145  L 74,144  L 73,144  L 73,134  L 72,134  L 72,133  L 73,133  L 73,130  L 72,130  L 72,129  L 73,129  L 73,128  L 72,128  L 72,124  L 71,124  L 71,116  L 70,116  L 70,110  L 69,110  L 69,109  L 70,109  L 70,108  L 69,108  L 69,104  Z  " style="fill:rgb(0, 0, 0); fill-opacity:1.000; stroke:none;" />
 <path d="  M 78,36  L 77,36  L 77,37  L 78,37  L 78,39  L 77,39  L 77,64  L 78,64  L 78,75  L 79,75  L 79,79  L 80,79  L 80,82  L 81,82  L 81,83  L 85,83  L 85,82  L 86,82  L 86,78  L 85,78  L 85,70  L 84,70  L 84,36  L 85,36  L 85,35  L 86,35  L 86,34  L 95,34  L 95,33  L 98,33  L 98,34  L 99,34  L 99,33  L 100,33  L 100,34  L 101,34  L 101,33  L 102,33  L 102,34  L 106,34  L 106,33  L 107,33  L 107,28  L 106,28  L 106,27  L 101,27  L 101,26  L 100,26  L 100,27  L 88,27  L 88,28  L 85,28  L 85,24  L 84,24  L 84,22  L 85,22  L 85,21  L 84,21  L 84,11  L 85,11  L 85,3  L 84,3  L 84,1  L 83,1  L 83,0  L 82,0  L 82,1  L 81,1  L 81,0  L 80,0  L 80,1  L 79,1  L 79,3  L 78,3  Z  " style="fill:rgb(0, 0, 0); fill-opacity:1.000; stroke:none;" />
</svg>
