<?xml version="1.0" encoding="UTF-8" standalone="no"?>
<!DOCTYPE svg PUBLIC "-//W3C//DTD SVG 1.1//EN" 
  "http://www.w3.org/Graphics/SVG/1.1/DTD/svg11.dtd">
<svg width="107" height="154"
     xmlns="http://www.w3.org/2000/svg" version="1.1">
 <path d="  M 41,71  L 41,70  L 45,70  L 45,69  L 52,69  L 52,68  L 53,68  L 53,69  L 54,69  L 54,68  L 58,68  L 58,67  L 61,67  L 61,66  L 64,66  L 64,65  L 65,65  L 65,60  L 64,60  L 64,59  L 62,59  L 62,60  L 57,60  L 57,61  L 53,61  L 53,62  L 46,62  L 46,63  L 39,63  L 39,64  L 38,64  L 38,63  L 37,63  L 37,64  L 33,64  L 33,65  L 23,65  L 23,64  L 21,64  L 21,63  L 20,63  L 20,61  L 19,61  L 19,53  L 18,53  L 18,51  L 19,51  L 19,50  L 18,50  L 18,33  L 17,33  L 17,32  L 18,32  L 18,23  L 28,23  L 28,22  L 29,22  L 29,23  L 30,23  L 30,22  L 31,22  L 31,23  L 32,23  L 32,22  L 37,22  L 37,21  L 44,21  L 44,20  L 48,20  L 48,19  L 49,19  L 49,20  L 50,20  L 50,19  L 56,19  L 56,18  L 60,18  L 60,13  L 59,13  L 59,11  L 54,11  L 54,12  L 50,12  L 50,13  L 45,13  L 45,14  L 38,14  L 38,15  L 29,15  L 29,16  L 26,16  L 26,15  L 25,15  L 25,16  L 18,16  L 18,15  L 7,15  L 7,16  L 5,16  L 5,17  L 3,17  L 3,18  L 2,18  L 2,19  L 1,19  L 1,21  L 0,21  L 0,22  L 1,22  L 1,23  L 2,23  L 2,24  L 6,24  L 6,23  L 10,23  L 10,26  L 11,26  L 11,27  L 10,27  L 10,36  L 11,36  L 11,37  L 10,37  L 10,40  L 11,40  L 11,41  L 10,41  L 10,44  L 11,44  L 11,46  L 10,46  L 10,48  L 11,48  L 11,50  L 10,50  L 10,51  L 11,51  L 11,62  L 12,62  L 12,67  L 13,67  L 13,70  L 14,70  L 14,71  L 16,71  L 16,72  L 17,72  L 17,71  L 19,71  L 19,72  L 22,72  L 22,73  L 28,73  L 28,72  L 34,72  L 34,71  Z  " style="fill:rgb(0, 0, 0); fill-opacity:1.000; stroke:none;" />
 <path d="  M 41,154  L 41,153  L 46,153  L 46,152  L 47,152  L 47,153  L 48,153  L 48,152  L 53,152  L 53,153  L 54,153  L 54,152  L 55,152  L 55,153  L 57,153  L 57,152  L 59,152  L 59,151  L 60,151  L 60,150  L 61,150  L 61,149  L 60,149  L 60,147  L 59,147  L 59,146  L 58,146  L 58,144  L 57,144  L 57,143  L 54,143  L 54,144  L 51,144  L 51,145  L 48,145  L 48,146  L 46,146  L 46,145  L 45,145  L 45,146  L 40,146  L 40,147  L 29,147  L 29,148  L 28,148  L 28,147  L 21,147  L 21,146  L 20,146  L 20,145  L 18,145  L 18,143  L 17,143  L 17,140  L 16,140  L 16,135  L 17,135  L 17,131  L 18,131  L 18,129  L 20,129  L 20,128  L 22,128  L 22,127  L 25,127  L 25,126  L 29,126  L 29,125  L 33,125  L 33,124  L 37,124  L 37,123  L 41,123  L 41,122  L 42,122  L 42,121  L 44,121  L 44,120  L 46,120  L 46,118  L 47,118  L 47,116  L 48,116  L 48,108  L 49,108  L 49,107  L 48,107  L 48,106  L 49,106  L 49,99  L 48,99  L 48,98  L 46,98  L 46,97  L 44,97  L 44,96  L 43,96  L 43,97  L 42,97  L 42,96  L 41,96  L 41,95  L 37,95  L 37,94  L 32,94  L 32,93  L 16,93  L 16,97  L 15,97  L 15,98  L 16,98  L 16,99  L 23,99  L 23,100  L 35,100  L 35,101  L 37,101  L 37,102  L 39,102  L 39,103  L 40,103  L 40,105  L 41,105  L 41,109  L 40,109  L 40,114  L 41,114  L 41,116  L 40,116  L 40,117  L 36,117  L 36,118  L 31,118  L 31,119  L 27,119  L 27,120  L 26,120  L 26,119  L 25,119  L 25,120  L 24,120  L 24,121  L 23,121  L 23,120  L 22,120  L 22,121  L 20,121  L 20,122  L 17,122  L 17,123  L 15,123  L 15,124  L 14,124  L 14,125  L 13,125  L 13,126  L 12,126  L 12,127  L 11,127  L 11,128  L 10,128  L 10,131  L 9,131  L 9,132  L 10,132  L 10,141  L 11,141  L 11,146  L 12,146  L 12,148  L 13,148  L 13,149  L 15,149  L 15,150  L 16,150  L 16,152  L 18,152  L 18,153  L 19,153  L 19,154  Z  " style="fill:rgb(0, 0, 0); fill-opacity:1.000; stroke:none;" />
 <path d="  M 93,104  L 94,104  L 94,111  L 95,111  L 95,112  L 96,112  L 96,113  L 97,113  L 97,114  L 96,114  L 96,115  L 69,115  L 69,114  L 68,114  L 68,112  L 69,112  L 69,108  L 68,108  L 68,106  L 69,106  L 69,103  L 68,103  L 68,102  L 69,102  L 69,101  L 68,101  L 68,100  L 69,100  L 69,99  L 68,99  L 68,97  L 69,97  L 69,95  L 61,95  L 61,108  L 62,108  L 62,110  L 61,110  L 61,112  L 62,112  L 62,115  L 61,115  L 61,116  L 62,116  L 62,121  L 63,121  L 63,124  L 64,124  L 64,127  L 65,127  L 65,136  L 66,136  L 66,139  L 65,139  L 65,140  L 66,140  L 66,152  L 67,152  L 67,153  L 73,153  L 73,152  L 81,152  L 81,151  L 85,151  L 85,150  L 86,150  L 86,149  L 87,149  L 87,148  L 89,148  L 89,147  L 90,147  L 90,146  L 91,146  L 91,145  L 92,145  L 92,143  L 93,143  L 93,142  L 94,142  L 94,139  L 95,139  L 95,136  L 96,136  L 96,134  L 97,134  L 97,132  L 98,132  L 98,128  L 99,128  L 99,125  L 100,125  L 100,123  L 101,123  L 101,121  L 102,121  L 102,119  L 103,119  L 103,115  L 104,115  L 104,104  L 103,104  L 103,102  L 102,102  L 102,99  L 101,99  L 101,98  L 100,98  L 100,97  L 99,97  L 99,96  L 96,96  L 96,95  L 93,95  L 93,96  L 94,96  L 94,97  L 93,97  Z  M 73,148  L 73,147  L 72,147  L 72,130  L 71,130  L 71,124  L 70,124  L 70,123  L 71,123  L 71,122  L 72,122  L 72,123  L 73,123  L 73,122  L 93,122  L 93,125  L 92,125  L 92,128  L 91,128  L 91,131  L 90,131  L 90,133  L 89,133  L 89,135  L 88,135  L 88,137  L 87,137  L 87,139  L 86,139  L 86,143  L 84,143  L 84,144  L 81,144  L 81,145  L 77,145  L 77,146  L 76,146  L 76,148  Z  " style="fill:rgb(0, 0, 0); fill-opacity:1.000; stroke:none;" />
 <path d="  M 78,71  L 79,71  L 79,78  L 80,78  L 80,80  L 81,80  L 81,81  L 82,81  L 82,82  L 87,82  L 87,80  L 86,80  L 86,77  L 85,77  L 85,68  L 84,68  L 84,66  L 85,66  L 85,65  L 84,65  L 84,52  L 85,52  L 85,51  L 84,51  L 84,48  L 85,48  L 85,47  L 84,47  L 84,44  L 85,44  L 85,38  L 86,38  L 86,37  L 91,37  L 91,36  L 99,36  L 99,37  L 100,37  L 100,36  L 101,36  L 101,37  L 102,37  L 102,36  L 107,36  L 107,31  L 106,31  L 106,30  L 89,30  L 89,31  L 85,31  L 85,28  L 84,28  L 84,27  L 85,27  L 85,23  L 84,23  L 84,22  L 85,22  L 85,21  L 84,21  L 84,18  L 85,18  L 85,17  L 84,17  L 84,14  L 85,14  L 85,13  L 84,13  L 84,3  L 83,3  L 83,2  L 82,2  L 82,1  L 81,1  L 81,0  L 80,0  L 80,1  L 79,1  L 79,2  L 78,2  L 78,5  L 77,5  L 77,8  L 78,8  Z  " style="fill:rgb(0, 0, 0); fill-opacity:1.000; stroke:none;" />
</svg>
