<?xml version="1.0" encoding="UTF-8" standalone="no"?>
<!DOCTYPE svg PUBLIC "-//W3C//DTD SVG 1.1//EN" 
  "http://www.w3.org/Graphics/SVG/1.1/DTD/svg11.dtd">
<svg width="106" height="159"
     xmlns="http://www.w3.org/2000/svg" version="1.1">
 <path d="  M 41,71  L 41,70  L 45,70  L 45,69  L 46,69  L 46,70  L 47,70  L 47,69  L 50,69  L 50,68  L 56,68  L 56,67  L 62,67  L 62,66  L 64,66  L 64,65  L 65,65  L 65,64  L 66,64  L 66,63  L 67,63  L 67,59  L 66,59  L 66,58  L 62,58  L 62,59  L 60,59  L 60,60  L 56,60  L 56,61  L 52,61  L 52,62  L 46,62  L 46,63  L 42,63  L 42,64  L 37,64  L 37,65  L 32,65  L 32,66  L 21,66  L 21,65  L 20,65  L 20,64  L 19,64  L 19,61  L 18,61  L 18,39  L 17,39  L 17,38  L 18,38  L 18,35  L 17,35  L 17,34  L 18,34  L 18,31  L 17,31  L 17,30  L 18,30  L 18,27  L 17,27  L 17,23  L 18,23  L 18,22  L 29,22  L 29,21  L 30,21  L 30,22  L 32,22  L 32,21  L 39,21  L 39,20  L 45,20  L 45,19  L 52,19  L 52,18  L 57,18  L 57,17  L 59,17  L 59,16  L 60,16  L 60,11  L 59,11  L 59,10  L 58,10  L 58,11  L 53,11  L 53,12  L 49,12  L 49,13  L 40,13  L 40,14  L 33,14  L 33,15  L 16,15  L 16,14  L 12,14  L 12,13  L 10,13  L 10,15  L 9,15  L 9,14  L 8,14  L 8,15  L 6,15  L 6,16  L 5,16  L 5,17  L 4,17  L 4,18  L 2,18  L 2,20  L 1,20  L 1,21  L 0,21  L 0,22  L 1,22  L 1,23  L 2,23  L 2,24  L 5,24  L 5,23  L 10,23  L 10,42  L 11,42  L 11,43  L 10,43  L 10,46  L 11,46  L 11,47  L 10,47  L 10,48  L 11,48  L 11,49  L 10,49  L 10,50  L 11,50  L 11,66  L 12,66  L 12,68  L 11,68  L 11,69  L 12,69  L 12,70  L 13,70  L 13,72  L 15,72  L 15,73  L 16,73  L 16,72  L 18,72  L 18,73  L 20,73  L 20,74  L 28,74  L 28,73  L 32,73  L 32,72  L 35,72  L 35,71  Z  " style="fill:rgb(0, 0, 0); fill-opacity:1.000; stroke:none;" />
 <path d="  M 18,92  L 18,99  L 19,99  L 19,100  L 21,100  L 21,99  L 22,99  L 22,100  L 23,100  L 23,99  L 27,99  L 27,98  L 41,98  L 41,99  L 42,99  L 42,100  L 43,100  L 43,101  L 44,101  L 44,108  L 43,108  L 43,109  L 42,109  L 42,110  L 41,110  L 41,111  L 40,111  L 40,112  L 39,112  L 39,113  L 38,113  L 38,112  L 37,112  L 37,113  L 35,113  L 35,114  L 32,114  L 32,115  L 30,115  L 30,116  L 27,116  L 27,117  L 26,117  L 26,118  L 24,118  L 24,119  L 22,119  L 22,120  L 21,120  L 21,119  L 20,119  L 20,120  L 19,120  L 19,122  L 18,122  L 18,123  L 17,123  L 17,125  L 16,125  L 16,126  L 15,126  L 15,128  L 14,128  L 14,139  L 15,139  L 15,141  L 16,141  L 16,144  L 17,144  L 17,145  L 18,145  L 18,147  L 19,147  L 19,149  L 21,149  L 21,150  L 23,150  L 23,151  L 26,151  L 26,152  L 33,152  L 33,151  L 43,151  L 43,150  L 49,150  L 49,149  L 53,149  L 53,150  L 57,150  L 57,149  L 58,149  L 58,143  L 59,143  L 59,140  L 58,140  L 58,137  L 54,137  L 54,138  L 53,138  L 53,139  L 52,139  L 52,140  L 51,140  L 51,141  L 50,141  L 50,142  L 49,142  L 49,143  L 46,143  L 46,144  L 41,144  L 41,145  L 32,145  L 32,146  L 30,146  L 30,145  L 25,145  L 25,144  L 24,144  L 24,143  L 23,143  L 23,142  L 22,142  L 22,139  L 21,139  L 21,129  L 22,129  L 22,128  L 23,128  L 23,127  L 24,127  L 24,126  L 25,126  L 25,125  L 27,125  L 27,124  L 29,124  L 29,123  L 30,123  L 30,122  L 32,122  L 32,121  L 33,121  L 33,120  L 35,120  L 35,119  L 38,119  L 38,118  L 41,118  L 41,117  L 42,117  L 42,116  L 44,116  L 44,115  L 43,115  L 43,114  L 44,114  L 44,112  L 47,112  L 47,110  L 48,110  L 48,107  L 49,107  L 49,108  L 50,108  L 50,109  L 51,109  L 51,112  L 52,112  L 52,113  L 54,113  L 54,114  L 55,114  L 55,113  L 65,113  L 65,112  L 71,112  L 71,111  L 75,111  L 75,110  L 81,110  L 81,109  L 91,109  L 91,110  L 97,110  L 97,111  L 100,111  L 100,112  L 105,112  L 105,107  L 104,107  L 104,106  L 103,106  L 103,102  L 102,102  L 102,101  L 96,101  L 96,102  L 95,102  L 95,101  L 94,101  L 94,102  L 93,102  L 93,101  L 92,101  L 92,102  L 89,102  L 89,101  L 86,101  L 86,102  L 85,102  L 85,101  L 83,101  L 83,100  L 84,100  L 84,93  L 83,93  L 83,69  L 82,69  L 82,68  L 83,68  L 83,67  L 82,67  L 82,66  L 83,66  L 83,65  L 82,65  L 82,39  L 83,39  L 83,38  L 86,38  L 86,37  L 91,37  L 91,36  L 92,36  L 92,37  L 93,37  L 93,36  L 105,36  L 105,35  L 106,35  L 106,31  L 105,31  L 105,29  L 99,29  L 99,30  L 97,30  L 97,29  L 96,29  L 96,30  L 93,30  L 93,29  L 92,29  L 92,30  L 90,30  L 90,31  L 84,31  L 84,32  L 82,32  L 82,31  L 81,31  L 81,19  L 80,19  L 80,3  L 79,3  L 79,1  L 74,1  L 74,18  L 75,18  L 75,19  L 74,19  L 74,20  L 75,20  L 75,46  L 76,46  L 76,47  L 75,47  L 75,50  L 76,50  L 76,51  L 75,51  L 75,54  L 76,54  L 76,55  L 75,55  L 75,58  L 76,58  L 76,76  L 77,76  L 77,85  L 76,85  L 76,98  L 77,98  L 77,100  L 78,100  L 78,104  L 76,104  L 76,105  L 62,105  L 62,106  L 61,106  L 61,105  L 60,105  L 60,106  L 53,106  L 53,107  L 51,107  L 51,96  L 50,96  L 50,95  L 49,95  L 49,94  L 48,94  L 48,93  L 46,93  L 46,92  L 45,92  L 45,91  L 28,91  L 28,92  Z  " style="fill:rgb(0, 0, 0); fill-opacity:1.000; stroke:none;" />
 <path d="  M 66,152  L 67,152  L 67,154  L 68,154  L 68,156  L 69,156  L 69,157  L 70,157  L 70,159  L 81,159  L 81,158  L 84,158  L 84,157  L 85,157  L 85,156  L 88,156  L 88,155  L 89,155  L 89,154  L 91,154  L 91,153  L 93,153  L 93,151  L 94,151  L 94,150  L 95,150  L 95,149  L 97,149  L 97,146  L 99,146  L 99,144  L 100,144  L 100,141  L 101,141  L 101,138  L 102,138  L 102,134  L 103,134  L 103,132  L 104,132  L 104,129  L 103,129  L 103,127  L 102,127  L 102,125  L 101,125  L 101,124  L 99,124  L 99,123  L 97,123  L 97,122  L 96,122  L 96,121  L 95,121  L 95,120  L 93,120  L 93,119  L 90,119  L 90,118  L 87,118  L 87,117  L 85,117  L 85,116  L 82,116  L 82,115  L 75,115  L 75,116  L 74,116  L 74,120  L 73,120  L 73,121  L 72,121  L 72,122  L 71,122  L 71,123  L 70,123  L 70,125  L 69,125  L 69,126  L 68,126  L 68,128  L 67,128  L 67,133  L 66,133  Z  M 73,152  L 73,151  L 72,151  L 72,149  L 71,149  L 71,136  L 72,136  L 72,131  L 73,131  L 73,127  L 74,127  L 74,125  L 75,125  L 75,122  L 77,122  L 77,120  L 79,120  L 79,121  L 83,121  L 83,122  L 84,122  L 84,123  L 86,123  L 86,124  L 91,124  L 91,125  L 92,125  L 92,126  L 95,126  L 95,128  L 96,128  L 96,130  L 97,130  L 97,132  L 96,132  L 96,135  L 95,135  L 95,138  L 94,138  L 94,142  L 93,142  L 93,143  L 92,143  L 92,144  L 91,144  L 91,146  L 90,146  L 90,147  L 89,147  L 89,148  L 88,148  L 88,149  L 86,149  L 86,150  L 85,150  L 85,151  L 83,151  L 83,152  Z  " style="fill:rgb(0, 0, 0); fill-opacity:1.000; stroke:none;" />
</svg>
