<?xml version="1.0" encoding="UTF-8" standalone="no"?>
<!DOCTYPE svg PUBLIC "-//W3C//DTD SVG 1.1//EN" 
  "http://www.w3.org/Graphics/SVG/1.1/DTD/svg11.dtd">
<svg width="105" height="146"
     xmlns="http://www.w3.org/2000/svg" version="1.1">
 <path d="  M 9,46  L 10,46  L 10,58  L 11,58  L 11,66  L 12,66  L 12,71  L 13,71  L 13,72  L 14,72  L 14,73  L 17,73  L 17,74  L 19,74  L 19,75  L 25,75  L 25,76  L 27,76  L 27,75  L 33,75  L 33,74  L 36,74  L 36,73  L 37,73  L 37,74  L 38,74  L 38,73  L 46,73  L 46,72  L 53,72  L 53,71  L 54,71  L 54,70  L 55,70  L 55,66  L 54,66  L 54,65  L 47,65  L 47,66  L 46,66  L 46,65  L 45,65  L 45,66  L 39,66  L 39,67  L 33,67  L 33,68  L 28,68  L 28,69  L 27,69  L 27,68  L 21,68  L 21,67  L 20,67  L 20,66  L 19,66  L 19,65  L 18,65  L 18,59  L 17,59  L 17,47  L 16,47  L 16,46  L 17,46  L 17,44  L 16,44  L 16,21  L 19,21  L 19,22  L 24,22  L 24,21  L 33,21  L 33,20  L 40,20  L 40,19  L 46,19  L 46,18  L 50,18  L 50,17  L 56,17  L 56,16  L 59,16  L 59,11  L 58,11  L 58,10  L 55,10  L 55,11  L 49,11  L 49,12  L 44,12  L 44,13  L 35,13  L 35,14  L 32,14  L 32,13  L 31,13  L 31,14  L 13,14  L 13,13  L 10,13  L 10,14  L 6,14  L 6,15  L 5,15  L 5,16  L 2,16  L 2,17  L 1,17  L 1,18  L 0,18  L 0,20  L 1,20  L 1,21  L 8,21  L 8,23  L 9,23  Z  " style="fill:rgb(0, 0, 0); fill-opacity:1.000; stroke:none;" />
 <path d="  M 35,140  L 36,140  L 36,145  L 37,145  L 37,146  L 68,146  L 68,145  L 75,145  L 75,144  L 76,144  L 76,143  L 77,143  L 77,142  L 79,142  L 79,141  L 81,141  L 81,139  L 82,139  L 82,138  L 83,138  L 83,135  L 84,135  L 84,129  L 85,129  L 85,122  L 86,122  L 86,121  L 85,121  L 85,119  L 86,119  L 86,112  L 87,112  L 87,111  L 86,111  L 86,110  L 87,110  L 87,104  L 88,104  L 88,99  L 87,99  L 87,98  L 86,98  L 86,97  L 84,97  L 84,96  L 71,96  L 71,97  L 57,97  L 57,98  L 56,98  L 56,97  L 55,97  L 55,98  L 52,98  L 52,97  L 51,97  L 51,98  L 41,98  L 41,97  L 39,97  L 39,96  L 37,96  L 37,95  L 36,95  L 36,94  L 31,94  L 31,98  L 30,98  L 30,99  L 29,99  L 29,100  L 30,100  L 30,101  L 32,101  L 32,102  L 33,102  L 33,103  L 34,103  L 34,107  L 35,107  Z  M 79,128  L 79,129  L 78,129  L 78,132  L 77,132  L 77,135  L 76,135  L 76,137  L 75,137  L 75,138  L 68,138  L 68,139  L 65,139  L 65,140  L 64,140  L 64,139  L 63,139  L 63,140  L 54,140  L 54,141  L 53,141  L 53,140  L 50,140  L 50,141  L 45,141  L 45,140  L 43,140  L 43,138  L 42,138  L 42,125  L 41,125  L 41,124  L 42,124  L 42,123  L 41,123  L 41,122  L 42,122  L 42,121  L 41,121  L 41,120  L 42,120  L 42,119  L 41,119  L 41,118  L 42,118  L 42,117  L 41,117  L 41,107  L 42,107  L 42,106  L 44,106  L 44,105  L 50,105  L 50,104  L 51,104  L 51,105  L 52,105  L 52,104  L 62,104  L 62,103  L 80,103  L 80,104  L 81,104  L 81,107  L 80,107  L 80,108  L 81,108  L 81,109  L 80,109  L 80,117  L 79,117  L 79,127  L 78,127  L 78,128  Z  " style="fill:rgb(0, 0, 0); fill-opacity:1.000; stroke:none;" />
 <path d="  M 74,78  L 75,78  L 75,81  L 74,81  L 74,82  L 75,82  L 75,85  L 76,85  L 76,86  L 77,86  L 77,87  L 79,87  L 79,86  L 80,86  L 80,85  L 81,85  L 81,57  L 80,57  L 80,56  L 81,56  L 81,49  L 80,49  L 80,48  L 81,48  L 81,44  L 80,44  L 80,43  L 81,43  L 81,40  L 82,40  L 82,39  L 85,39  L 85,38  L 105,38  L 105,32  L 103,32  L 103,31  L 100,31  L 100,32  L 83,32  L 83,33  L 82,33  L 82,32  L 81,32  L 81,31  L 80,31  L 80,8  L 79,8  L 79,1  L 78,1  L 78,0  L 76,0  L 76,1  L 74,1  L 74,3  L 73,3  L 73,9  L 74,9  L 74,11  L 73,11  L 73,12  L 74,12  Z  " style="fill:rgb(0, 0, 0); fill-opacity:1.000; stroke:none;" />
</svg>
