<?xml version="1.0" encoding="UTF-8" standalone="no"?>
<!DOCTYPE svg PUBLIC "-//W3C//DTD SVG 1.1//EN" 
  "http://www.w3.org/Graphics/SVG/1.1/DTD/svg11.dtd">
<svg width="105" height="137"
     xmlns="http://www.w3.org/2000/svg" version="1.1">
 <path d="  M 40,15  L 40,14  L 44,14  L 44,13  L 45,13  L 45,14  L 46,14  L 46,13  L 51,13  L 51,12  L 55,12  L 55,11  L 57,11  L 57,10  L 58,10  L 58,9  L 59,9  L 59,7  L 58,7  L 58,5  L 56,5  L 56,4  L 55,4  L 55,5  L 51,5  L 51,6  L 47,6  L 47,7  L 46,7  L 46,6  L 45,6  L 45,7  L 41,7  L 41,8  L 32,8  L 32,9  L 31,9  L 31,8  L 30,8  L 30,9  L 13,9  L 13,8  L 10,8  L 10,7  L 9,7  L 9,8  L 8,8  L 8,9  L 4,9  L 4,10  L 3,10  L 3,11  L 1,11  L 1,16  L 3,16  L 3,15  L 5,15  L 5,16  L 6,16  L 6,19  L 7,19  L 7,25  L 6,25  L 6,26  L 7,26  L 7,27  L 6,27  L 6,30  L 7,30  L 7,31  L 6,31  L 6,34  L 7,34  L 7,35  L 6,35  L 6,36  L 7,36  L 7,37  L 6,37  L 6,38  L 7,38  L 7,50  L 8,50  L 8,57  L 9,57  L 9,60  L 10,60  L 10,62  L 11,62  L 11,63  L 12,63  L 12,64  L 14,64  L 14,65  L 17,65  L 17,66  L 27,66  L 27,65  L 33,65  L 33,64  L 39,64  L 39,63  L 46,63  L 46,62  L 53,62  L 53,61  L 54,61  L 54,60  L 55,60  L 55,59  L 56,59  L 56,57  L 55,57  L 55,56  L 47,56  L 47,57  L 39,57  L 39,58  L 32,58  L 32,59  L 25,59  L 25,60  L 24,60  L 24,59  L 23,59  L 23,60  L 22,60  L 22,59  L 17,59  L 17,58  L 16,58  L 16,55  L 15,55  L 15,49  L 14,49  L 14,37  L 13,37  L 13,20  L 14,20  L 14,17  L 21,17  L 21,16  L 32,16  L 32,15  Z  " style="fill:rgb(0, 0, 0); fill-opacity:1.000; stroke:none;" />
 <path d="  M 14,120  L 13,120  L 13,121  L 12,121  L 12,122  L 11,122  L 11,123  L 10,123  L 10,125  L 9,125  L 9,128  L 10,128  L 10,129  L 12,129  L 12,130  L 13,130  L 13,129  L 14,129  L 14,128  L 15,128  L 15,127  L 17,127  L 17,125  L 18,125  L 18,124  L 19,124  L 19,122  L 20,122  L 20,121  L 21,121  L 21,120  L 22,120  L 22,119  L 23,119  L 23,118  L 24,118  L 24,117  L 25,117  L 25,116  L 26,116  L 26,115  L 27,115  L 27,114  L 29,114  L 29,110  L 34,110  L 34,111  L 39,111  L 39,112  L 40,112  L 40,113  L 44,113  L 44,114  L 46,114  L 46,115  L 48,115  L 48,116  L 50,116  L 50,117  L 55,117  L 55,116  L 57,116  L 57,118  L 56,118  L 56,120  L 55,120  L 55,122  L 54,122  L 54,123  L 53,123  L 53,124  L 52,124  L 52,125  L 51,125  L 51,128  L 50,128  L 50,130  L 49,130  L 49,133  L 48,133  L 48,136  L 49,136  L 49,137  L 53,137  L 53,136  L 54,136  L 54,133  L 55,133  L 55,131  L 56,131  L 56,129  L 57,129  L 57,127  L 58,127  L 58,125  L 60,125  L 60,124  L 61,124  L 61,122  L 62,122  L 62,121  L 63,121  L 63,119  L 64,119  L 64,117  L 65,117  L 65,115  L 66,115  L 66,114  L 67,114  L 67,112  L 68,112  L 68,109  L 69,109  L 69,108  L 70,108  L 70,109  L 71,109  L 71,110  L 72,110  L 72,111  L 73,111  L 73,112  L 74,112  L 74,113  L 77,113  L 77,114  L 78,114  L 78,115  L 79,115  L 79,116  L 81,116  L 81,117  L 83,117  L 83,118  L 85,118  L 85,119  L 86,119  L 86,120  L 89,120  L 89,121  L 90,121  L 90,122  L 92,122  L 92,123  L 93,123  L 93,124  L 94,124  L 94,125  L 97,125  L 97,126  L 100,126  L 100,125  L 103,125  L 103,124  L 104,124  L 104,122  L 103,122  L 103,121  L 101,121  L 101,120  L 100,120  L 100,119  L 98,119  L 98,118  L 96,118  L 96,117  L 94,117  L 94,116  L 93,116  L 93,115  L 91,115  L 91,114  L 89,114  L 89,113  L 87,113  L 87,112  L 86,112  L 86,111  L 84,111  L 84,110  L 82,110  L 82,109  L 81,109  L 81,108  L 80,108  L 80,107  L 79,107  L 79,106  L 77,106  L 77,104  L 75,104  L 75,102  L 74,102  L 74,101  L 73,101  L 73,98  L 74,98  L 74,95  L 75,95  L 75,93  L 76,93  L 76,91  L 77,91  L 77,90  L 78,90  L 78,88  L 79,88  L 79,85  L 78,85  L 78,84  L 75,84  L 75,85  L 72,85  L 72,86  L 71,86  L 71,88  L 70,88  L 70,89  L 69,89  L 69,92  L 68,92  L 68,94  L 67,94  L 67,96  L 66,96  L 66,98  L 65,98  L 65,99  L 64,99  L 64,103  L 63,103  L 63,105  L 62,105  L 62,107  L 61,107  L 61,110  L 60,110  L 60,112  L 58,112  L 58,113  L 57,113  L 57,114  L 56,114  L 56,113  L 55,113  L 55,112  L 53,112  L 53,111  L 51,111  L 51,110  L 49,110  L 49,109  L 48,109  L 48,108  L 45,108  L 45,107  L 43,107  L 43,106  L 39,106  L 39,105  L 37,105  L 37,104  L 35,104  L 35,103  L 34,103  L 34,100  L 35,100  L 35,99  L 37,99  L 37,98  L 38,98  L 38,96  L 39,96  L 39,95  L 40,95  L 40,93  L 41,93  L 41,92  L 42,92  L 42,91  L 43,91  L 43,90  L 44,90  L 44,89  L 45,89  L 45,87  L 46,87  L 46,82  L 44,82  L 44,81  L 43,81  L 43,79  L 41,79  L 41,81  L 40,81  L 40,87  L 39,87  L 39,88  L 38,88  L 38,91  L 36,91  L 36,92  L 34,92  L 34,94  L 33,94  L 33,95  L 32,95  L 32,96  L 31,96  L 31,97  L 30,97  L 30,99  L 29,99  L 29,101  L 28,101  L 28,103  L 27,103  L 27,105  L 26,105  L 26,106  L 25,106  L 25,107  L 24,107  L 24,109  L 23,109  L 23,110  L 22,110  L 22,111  L 21,111  L 21,112  L 20,112  L 20,113  L 19,113  L 19,114  L 18,114  L 18,115  L 17,115  L 17,117  L 15,117  L 15,119  L 14,119  Z  " style="fill:rgb(0, 0, 0); fill-opacity:1.000; stroke:none;" />
 <path d="  M 34,80  L 32,80  L 32,79  L 28,79  L 28,80  L 27,80  L 27,82  L 30,82  L 30,83  L 31,83  L 31,82  L 32,82  L 32,83  L 33,83  L 33,82  L 34,82  Z  " style="fill:rgb(0, 0, 0); fill-opacity:1.000; stroke:none;" />
 <path d="  M 74,75  L 75,75  L 75,76  L 80,76  L 80,74  L 81,74  L 81,73  L 80,73  L 80,72  L 81,72  L 81,71  L 80,71  L 80,70  L 81,70  L 81,69  L 80,69  L 80,68  L 81,68  L 81,67  L 80,67  L 80,66  L 81,66  L 81,65  L 80,65  L 80,64  L 81,64  L 81,35  L 82,35  L 82,34  L 84,34  L 84,33  L 104,33  L 104,32  L 105,32  L 105,28  L 104,28  L 104,27  L 103,27  L 103,26  L 88,26  L 88,25  L 87,25  L 87,26  L 82,26  L 82,25  L 81,25  L 81,15  L 80,15  L 80,14  L 81,14  L 81,13  L 80,13  L 80,12  L 81,12  L 81,11  L 80,11  L 80,10  L 81,10  L 81,9  L 80,9  L 80,2  L 79,2  L 79,0  L 75,0  L 75,1  L 74,1  L 74,14  L 75,14  L 75,21  L 74,21  L 74,22  L 75,22  L 75,25  L 74,25  L 74,26  L 75,26  L 75,27  L 74,27  L 74,30  L 75,30  L 75,31  L 74,31  L 74,34  L 75,34  L 75,35  L 74,35  L 74,38  L 75,38  L 75,39  L 74,39  L 74,42  L 75,42  L 75,43  L 74,43  Z  " style="fill:rgb(0, 0, 0); fill-opacity:1.000; stroke:none;" />
</svg>
