<?xml version="1.0" encoding="UTF-8" standalone="no"?>
<!DOCTYPE svg PUBLIC "-//W3C//DTD SVG 1.1//EN" 
  "http://www.w3.org/Graphics/SVG/1.1/DTD/svg11.dtd">
<svg width="108" height="168"
     xmlns="http://www.w3.org/2000/svg" version="1.1">
 <path d="  M 11,68  L 12,68  L 12,69  L 13,69  L 13,70  L 14,70  L 14,71  L 17,71  L 17,72  L 20,72  L 20,73  L 21,73  L 21,72  L 27,72  L 27,71  L 33,71  L 33,70  L 41,70  L 41,69  L 52,69  L 52,68  L 55,68  L 55,67  L 58,67  L 58,66  L 61,66  L 61,65  L 62,65  L 62,64  L 63,64  L 63,62  L 64,62  L 64,59  L 63,59  L 63,57  L 60,57  L 60,58  L 57,58  L 57,59  L 55,59  L 55,60  L 50,60  L 50,61  L 46,61  L 46,62  L 40,62  L 40,63  L 33,63  L 33,64  L 24,64  L 24,65  L 19,65  L 19,64  L 18,64  L 18,63  L 17,63  L 17,62  L 16,62  L 16,56  L 15,56  L 15,39  L 14,39  L 14,38  L 15,38  L 15,36  L 14,36  L 14,34  L 15,34  L 15,33  L 14,33  L 14,25  L 15,25  L 15,23  L 23,23  L 23,22  L 33,22  L 33,21  L 34,21  L 34,22  L 35,22  L 35,21  L 41,21  L 41,20  L 44,20  L 44,19  L 49,19  L 49,18  L 54,18  L 54,17  L 57,17  L 57,15  L 58,15  L 58,11  L 57,11  L 57,10  L 51,10  L 51,11  L 48,11  L 48,12  L 40,12  L 40,13  L 33,13  L 33,14  L 24,14  L 24,15  L 9,15  L 9,16  L 8,16  L 8,17  L 7,17  L 7,18  L 6,18  L 6,19  L 5,19  L 5,20  L 3,20  L 3,21  L 1,21  L 1,22  L 0,22  L 0,24  L 1,24  L 1,25  L 3,25  L 3,24  L 4,24  L 4,25  L 5,25  L 5,24  L 6,24  L 6,25  L 7,25  L 7,33  L 8,33  L 8,36  L 7,36  L 7,37  L 8,37  L 8,57  L 9,57  L 9,64  L 10,64  L 10,67  L 11,67  Z  " style="fill:rgb(0, 0, 0); fill-opacity:1.000; stroke:none;" />
 <path d="  M 31,111  L 31,112  L 27,112  L 27,114  L 26,114  L 26,115  L 27,115  L 27,116  L 28,116  L 28,117  L 40,117  L 40,116  L 43,116  L 43,117  L 44,117  L 44,116  L 47,116  L 47,117  L 48,117  L 48,116  L 55,116  L 55,115  L 59,115  L 59,114  L 66,114  L 66,113  L 72,113  L 72,112  L 81,112  L 81,111  L 92,111  L 92,110  L 94,110  L 94,107  L 95,107  L 95,106  L 94,106  L 94,104  L 93,104  L 93,103  L 90,103  L 90,104  L 89,104  L 89,103  L 88,103  L 88,104  L 76,104  L 76,105  L 68,105  L 68,106  L 66,106  L 66,107  L 62,107  L 62,106  L 61,106  L 61,105  L 60,105  L 60,102  L 59,102  L 59,99  L 58,99  L 58,97  L 59,97  L 59,96  L 58,96  L 58,94  L 56,94  L 56,91  L 55,91  L 55,86  L 54,86  L 54,83  L 53,83  L 53,82  L 52,82  L 52,81  L 49,81  L 49,80  L 48,80  L 48,81  L 46,81  L 46,86  L 47,86  L 47,92  L 48,92  L 48,93  L 49,93  L 49,96  L 50,96  L 50,99  L 51,99  L 51,101  L 52,101  L 52,105  L 53,105  L 53,106  L 54,106  L 54,108  L 51,108  L 51,109  L 46,109  L 46,110  L 38,110  L 38,111  Z  " style="fill:rgb(0, 0, 0); fill-opacity:1.000; stroke:none;" />
 <path d="  M 49,158  L 49,157  L 46,157  L 46,156  L 45,156  L 45,155  L 44,155  L 44,154  L 43,154  L 43,151  L 44,151  L 44,149  L 45,149  L 45,147  L 46,147  L 46,145  L 47,145  L 47,142  L 48,142  L 48,139  L 49,139  L 49,138  L 50,138  L 50,137  L 51,137  L 51,135  L 52,135  L 52,134  L 53,134  L 53,133  L 54,133  L 54,132  L 55,132  L 55,131  L 56,131  L 56,130  L 58,130  L 58,129  L 61,129  L 61,128  L 62,128  L 62,129  L 68,129  L 68,130  L 71,130  L 71,131  L 73,131  L 73,132  L 75,132  L 75,133  L 77,133  L 77,134  L 78,134  L 78,136  L 79,136  L 79,139  L 80,139  L 80,149  L 79,149  L 79,152  L 78,152  L 78,153  L 77,153  L 77,154  L 76,154  L 76,155  L 75,155  L 75,156  L 74,156  L 74,157  L 72,157  L 72,158  L 70,158  L 70,159  L 68,159  L 68,160  L 65,160  L 65,161  L 57,161  L 57,160  L 54,160  L 54,159  L 52,159  L 52,158  Z  M 81,159  L 81,158  L 82,158  L 82,157  L 83,157  L 83,156  L 84,156  L 84,154  L 85,154  L 85,152  L 86,152  L 86,145  L 87,145  L 87,144  L 86,144  L 86,143  L 87,143  L 87,140  L 86,140  L 86,135  L 85,135  L 85,134  L 84,134  L 84,133  L 83,133  L 83,131  L 82,131  L 82,130  L 81,130  L 81,129  L 80,129  L 80,128  L 79,128  L 79,127  L 78,127  L 78,126  L 75,126  L 75,125  L 73,125  L 73,124  L 70,124  L 70,123  L 67,123  L 67,122  L 62,122  L 62,121  L 60,121  L 60,122  L 56,122  L 56,123  L 54,123  L 54,124  L 53,124  L 53,125  L 52,125  L 52,127  L 51,127  L 51,128  L 50,128  L 50,129  L 49,129  L 49,131  L 48,131  L 48,132  L 47,132  L 47,134  L 46,134  L 46,136  L 45,136  L 45,137  L 44,137  L 44,139  L 43,139  L 43,140  L 42,140  L 42,142  L 41,142  L 41,144  L 40,144  L 40,146  L 39,146  L 39,151  L 38,151  L 38,159  L 39,159  L 39,160  L 41,160  L 41,161  L 42,161  L 42,162  L 43,162  L 43,163  L 45,163  L 45,164  L 48,164  L 48,165  L 52,165  L 52,166  L 54,166  L 54,167  L 57,167  L 57,168  L 65,168  L 65,167  L 68,167  L 68,166  L 70,166  L 70,165  L 72,165  L 72,164  L 74,164  L 74,163  L 76,163  L 76,162  L 77,162  L 77,161  L 78,161  L 78,160  L 80,160  L 80,159  Z  " style="fill:rgb(0, 0, 0); fill-opacity:1.000; stroke:none;" />
 <path d="  M 74,81  L 75,81  L 75,84  L 76,84  L 76,85  L 81,85  L 81,58  L 80,58  L 80,55  L 81,55  L 81,53  L 80,53  L 80,52  L 81,52  L 81,50  L 80,50  L 80,44  L 81,44  L 81,43  L 83,43  L 83,42  L 86,42  L 86,41  L 92,41  L 92,40  L 99,40  L 99,39  L 100,39  L 100,40  L 101,40  L 101,39  L 102,39  L 102,40  L 103,40  L 103,39  L 107,39  L 107,38  L 108,38  L 108,32  L 105,32  L 105,33  L 93,33  L 93,34  L 87,34  L 87,35  L 83,35  L 83,36  L 81,36  L 81,35  L 80,35  L 80,18  L 79,18  L 79,17  L 80,17  L 80,16  L 79,16  L 79,15  L 80,15  L 80,14  L 79,14  L 79,13  L 80,13  L 80,4  L 79,4  L 79,2  L 78,2  L 78,1  L 77,1  L 77,0  L 74,0  L 74,2  L 73,2  L 73,43  L 74,43  Z  " style="fill:rgb(0, 0, 0); fill-opacity:1.000; stroke:none;" />
</svg>
