<?xml version="1.0" encoding="UTF-8" standalone="no"?>
<!DOCTYPE svg PUBLIC "-//W3C//DTD SVG 1.1//EN" 
  "http://www.w3.org/Graphics/SVG/1.1/DTD/svg11.dtd">
<svg width="107" height="141"
     xmlns="http://www.w3.org/2000/svg" version="1.1">
 <path d="  M 11,61  L 12,61  L 12,62  L 13,62  L 13,63  L 14,63  L 14,62  L 15,62  L 15,63  L 18,63  L 18,64  L 27,64  L 27,63  L 34,63  L 34,62  L 39,62  L 39,61  L 49,61  L 49,60  L 51,60  L 51,59  L 54,59  L 54,58  L 57,58  L 57,59  L 58,59  L 58,58  L 59,58  L 59,59  L 62,59  L 62,58  L 63,58  L 63,55  L 62,55  L 62,53  L 61,53  L 61,52  L 60,52  L 60,51  L 57,51  L 57,50  L 56,50  L 56,51  L 52,51  L 52,52  L 48,52  L 48,53  L 45,53  L 45,54  L 42,54  L 42,55  L 38,55  L 38,56  L 35,56  L 35,55  L 34,55  L 34,56  L 29,56  L 29,57  L 18,57  L 18,56  L 17,56  L 17,55  L 16,55  L 16,52  L 15,52  L 15,51  L 16,51  L 16,50  L 15,50  L 15,41  L 14,41  L 14,40  L 15,40  L 15,38  L 14,38  L 14,17  L 13,17  L 13,16  L 14,16  L 14,14  L 15,14  L 15,13  L 17,13  L 17,14  L 27,14  L 27,13  L 28,13  L 28,14  L 29,14  L 29,13  L 35,13  L 35,12  L 42,12  L 42,11  L 50,11  L 50,10  L 52,10  L 52,9  L 54,9  L 54,4  L 48,4  L 48,5  L 44,5  L 44,6  L 43,6  L 43,5  L 42,5  L 42,6  L 35,6  L 35,7  L 26,7  L 26,8  L 23,8  L 23,7  L 22,7  L 22,8  L 21,8  L 21,7  L 14,7  L 14,6  L 11,6  L 11,5  L 8,5  L 8,6  L 6,6  L 6,7  L 4,7  L 4,8  L 3,8  L 3,9  L 1,9  L 1,12  L 0,12  L 0,13  L 1,13  L 1,14  L 2,14  L 2,13  L 6,13  L 6,14  L 7,14  L 7,16  L 8,16  L 8,18  L 7,18  L 7,32  L 8,32  L 8,34  L 7,34  L 7,35  L 8,35  L 8,46  L 9,46  L 9,47  L 8,47  L 8,48  L 9,48  L 9,56  L 10,56  L 10,59  L 11,59  Z  " style="fill:rgb(0, 0, 0); fill-opacity:1.000; stroke:none;" />
 <path d="  M 36,85  L 35,85  L 35,84  L 32,84  L 32,85  L 31,85  L 31,86  L 30,86  L 30,87  L 29,87  L 29,97  L 28,97  L 28,98  L 29,98  L 29,101  L 28,101  L 28,104  L 29,104  L 29,105  L 28,105  L 28,120  L 29,120  L 29,132  L 30,132  L 30,135  L 31,135  L 31,137  L 32,137  L 32,138  L 33,138  L 33,140  L 35,140  L 35,141  L 57,141  L 57,140  L 63,140  L 63,139  L 64,139  L 64,140  L 66,140  L 66,139  L 73,139  L 73,138  L 81,138  L 81,137  L 91,137  L 91,136  L 99,136  L 99,135  L 100,135  L 100,136  L 102,136  L 102,135  L 105,135  L 105,134  L 106,134  L 106,133  L 107,133  L 107,127  L 102,127  L 102,128  L 100,128  L 100,129  L 92,129  L 92,130  L 81,130  L 81,131  L 72,131  L 72,132  L 71,132  L 71,131  L 70,131  L 70,132  L 64,132  L 64,133  L 57,133  L 57,134  L 51,134  L 51,135  L 50,135  L 50,134  L 49,134  L 49,135  L 48,135  L 48,134  L 47,134  L 47,135  L 40,135  L 40,134  L 39,134  L 39,133  L 38,133  L 38,132  L 37,132  L 37,127  L 36,127  L 36,126  L 37,126  L 37,125  L 36,125  Z  " style="fill:rgb(0, 0, 0); fill-opacity:1.000; stroke:none;" />
 <path d="  M 91,77  L 96,77  L 96,76  L 98,76  L 98,38  L 99,38  L 99,37  L 98,37  L 98,35  L 99,35  L 99,33  L 98,33  L 98,32  L 99,32  L 99,31  L 98,31  L 98,25  L 97,25  L 97,24  L 98,24  L 98,23  L 97,23  L 97,15  L 96,15  L 96,12  L 97,12  L 97,11  L 96,11  L 96,5  L 95,5  L 95,3  L 89,3  L 89,10  L 90,10  L 90,22  L 91,22  L 91,27  L 79,27  L 79,28  L 77,28  L 77,27  L 76,27  L 76,1  L 75,1  L 75,0  L 71,0  L 71,1  L 70,1  L 70,3  L 69,3  L 69,32  L 70,32  L 70,33  L 69,33  L 69,34  L 70,34  L 70,35  L 69,35  L 69,36  L 70,36  L 70,59  L 69,59  L 69,60  L 70,60  L 70,63  L 69,63  L 69,64  L 70,64  L 70,65  L 69,65  L 69,68  L 70,68  L 70,73  L 74,73  L 74,72  L 76,72  L 76,68  L 77,68  L 77,67  L 76,67  L 76,64  L 77,64  L 77,63  L 76,63  L 76,60  L 77,60  L 77,59  L 76,59  L 76,58  L 77,58  L 77,44  L 78,44  L 78,43  L 77,43  L 77,35  L 78,35  L 78,34  L 81,34  L 81,33  L 82,33  L 82,34  L 83,34  L 83,33  L 84,33  L 84,34  L 85,34  L 85,33  L 90,33  L 90,34  L 91,34  L 91,38  L 90,38  L 90,39  L 91,39  L 91,43  L 90,43  L 90,44  L 91,44  L 91,73  L 90,73  L 90,74  L 91,74  Z  " style="fill:rgb(0, 0, 0); fill-opacity:1.000; stroke:none;" />
</svg>
