<?xml version="1.0" encoding="UTF-8" standalone="no"?>
<!DOCTYPE svg PUBLIC "-//W3C//DTD SVG 1.1//EN" 
  "http://www.w3.org/Graphics/SVG/1.1/DTD/svg11.dtd">
<svg width="108" height="140"
     xmlns="http://www.w3.org/2000/svg" version="1.1">
 <path d="  M 56,9  L 57,9  L 57,6  L 56,6  L 56,5  L 54,5  L 54,6  L 53,6  L 53,5  L 52,5  L 52,6  L 50,6  L 50,7  L 47,7  L 47,8  L 41,8  L 41,9  L 35,9  L 35,10  L 26,10  L 26,11  L 25,11  L 25,10  L 24,10  L 24,11  L 23,11  L 23,10  L 22,10  L 22,11  L 21,11  L 21,10  L 16,10  L 16,9  L 14,9  L 14,8  L 6,8  L 6,9  L 5,9  L 5,10  L 3,10  L 3,11  L 2,11  L 2,12  L 1,12  L 1,17  L 3,17  L 3,16  L 4,16  L 4,17  L 6,17  L 6,16  L 8,16  L 8,17  L 9,17  L 9,43  L 10,43  L 10,44  L 9,44  L 9,45  L 10,45  L 10,46  L 9,46  L 9,47  L 10,47  L 10,56  L 11,56  L 11,60  L 12,60  L 12,61  L 13,61  L 13,63  L 15,63  L 15,64  L 17,64  L 17,65  L 18,65  L 18,64  L 20,64  L 20,65  L 24,65  L 24,66  L 25,66  L 25,65  L 30,65  L 30,64  L 34,64  L 34,63  L 39,63  L 39,62  L 49,62  L 49,61  L 55,61  L 55,60  L 60,60  L 60,59  L 61,59  L 61,57  L 62,57  L 62,56  L 60,56  L 60,54  L 57,54  L 57,53  L 54,53  L 54,54  L 49,54  L 49,55  L 43,55  L 43,56  L 36,56  L 36,57  L 30,57  L 30,58  L 19,58  L 19,57  L 18,57  L 18,56  L 17,56  L 17,50  L 16,50  L 16,17  L 20,17  L 20,18  L 21,18  L 21,17  L 22,17  L 22,18  L 23,18  L 23,17  L 31,17  L 31,16  L 39,16  L 39,15  L 43,15  L 43,14  L 44,14  L 44,15  L 45,15  L 45,14  L 50,14  L 50,13  L 54,13  L 54,12  L 55,12  L 55,11  L 56,11  Z  " style="fill:rgb(0, 0, 0); fill-opacity:1.000; stroke:none;" />
 <path d="  M 62,95  L 62,94  L 64,94  L 64,93  L 66,93  L 66,92  L 68,92  L 68,91  L 70,91  L 70,90  L 74,90  L 74,89  L 80,89  L 80,88  L 81,88  L 81,89  L 88,89  L 88,90  L 90,90  L 90,91  L 95,91  L 95,92  L 97,92  L 97,93  L 99,93  L 99,95  L 100,95  L 100,97  L 101,97  L 101,109  L 100,109  L 100,113  L 99,113  L 99,118  L 98,118  L 98,120  L 97,120  L 97,122  L 96,122  L 96,124  L 95,124  L 95,125  L 94,125  L 94,126  L 93,126  L 93,127  L 91,127  L 91,128  L 89,128  L 89,129  L 88,129  L 88,130  L 85,130  L 85,131  L 82,131  L 82,132  L 79,132  L 79,133  L 74,133  L 74,134  L 63,134  L 63,133  L 57,133  L 57,132  L 54,132  L 54,131  L 53,131  L 53,130  L 51,130  L 51,129  L 50,129  L 50,127  L 49,127  L 49,126  L 48,126  L 48,115  L 49,115  L 49,114  L 48,114  L 48,113  L 49,113  L 49,109  L 50,109  L 50,108  L 51,108  L 51,105  L 52,105  L 52,104  L 53,104  L 53,102  L 54,102  L 54,101  L 55,101  L 55,99  L 57,99  L 57,98  L 59,98  L 59,97  L 60,97  L 60,96  L 61,96  L 61,95  Z  M 47,99  L 47,100  L 46,100  L 46,102  L 45,102  L 45,103  L 44,103  L 44,106  L 43,106  L 43,109  L 42,109  L 42,114  L 41,114  L 41,115  L 42,115  L 42,116  L 41,116  L 41,126  L 42,126  L 42,129  L 43,129  L 43,132  L 44,132  L 44,133  L 45,133  L 45,134  L 46,134  L 46,135  L 47,135  L 47,136  L 49,136  L 49,137  L 51,137  L 51,138  L 54,138  L 54,139  L 58,139  L 58,140  L 78,140  L 78,139  L 83,139  L 83,138  L 87,138  L 87,137  L 90,137  L 90,136  L 92,136  L 92,135  L 95,135  L 95,134  L 96,134  L 96,133  L 98,133  L 98,132  L 99,132  L 99,131  L 100,131  L 100,129  L 101,129  L 101,128  L 102,128  L 102,127  L 103,127  L 103,125  L 104,125  L 104,123  L 105,123  L 105,121  L 106,121  L 106,116  L 107,116  L 107,112  L 108,112  L 108,93  L 107,93  L 107,92  L 106,92  L 106,91  L 105,91  L 105,90  L 104,90  L 104,89  L 103,89  L 103,88  L 102,88  L 102,87  L 100,87  L 100,86  L 99,86  L 99,85  L 98,85  L 98,84  L 97,84  L 97,83  L 93,83  L 93,82  L 91,82  L 91,81  L 90,81  L 90,82  L 89,82  L 89,81  L 82,81  L 82,82  L 81,82  L 81,81  L 79,81  L 79,82  L 77,82  L 77,81  L 74,81  L 74,82  L 73,82  L 73,81  L 68,81  L 68,82  L 65,82  L 65,83  L 62,83  L 62,84  L 60,84  L 60,85  L 59,85  L 59,86  L 58,86  L 58,87  L 56,87  L 56,88  L 55,88  L 55,90  L 54,90  L 54,91  L 53,91  L 53,92  L 52,92  L 52,93  L 51,93  L 51,94  L 50,94  L 50,95  L 49,95  L 49,97  L 48,97  L 48,99  Z  " style="fill:rgb(0, 0, 0); fill-opacity:1.000; stroke:none;" />
 <path d="  M 99,31  L 99,37  L 100,37  L 100,38  L 99,38  L 99,44  L 100,44  L 100,47  L 99,47  L 99,48  L 100,48  L 100,49  L 99,49  L 99,73  L 101,73  L 101,74  L 102,74  L 102,73  L 103,73  L 103,74  L 104,74  L 104,73  L 105,73  L 105,71  L 106,71  L 106,68  L 105,68  L 105,67  L 106,67  L 106,16  L 105,16  L 105,2  L 104,2  L 104,1  L 99,1  L 99,2  L 98,2  L 98,7  L 99,7  L 99,23  L 98,23  L 98,24  L 96,24  L 96,25  L 90,25  L 90,26  L 81,26  L 81,22  L 80,22  L 80,19  L 81,19  L 81,18  L 80,18  L 80,16  L 81,16  L 81,14  L 80,14  L 80,13  L 81,13  L 81,10  L 80,10  L 80,9  L 81,9  L 81,4  L 82,4  L 82,3  L 81,3  L 81,2  L 80,2  L 80,1  L 78,1  L 78,0  L 76,0  L 76,1  L 74,1  L 74,18  L 73,18  L 73,19  L 74,19  L 74,20  L 73,20  L 73,23  L 74,23  L 74,24  L 73,24  L 73,27  L 74,27  L 74,28  L 73,28  L 73,31  L 74,31  L 74,32  L 73,32  L 73,35  L 74,35  L 74,36  L 73,36  L 73,37  L 74,37  L 74,44  L 73,44  L 73,45  L 74,45  L 74,46  L 73,46  L 73,47  L 74,47  L 74,48  L 73,48  L 73,60  L 72,60  L 72,63  L 73,63  L 73,66  L 76,66  L 76,65  L 77,65  L 77,64  L 78,64  L 78,63  L 79,63  L 79,55  L 80,55  L 80,47  L 81,47  L 81,46  L 80,46  L 80,45  L 81,45  L 81,39  L 82,39  L 82,34  L 83,34  L 83,33  L 85,33  L 85,32  L 91,32  L 91,31  L 92,31  L 92,32  L 93,32  L 93,31  Z  " style="fill:rgb(0, 0, 0); fill-opacity:1.000; stroke:none;" />
</svg>
