<?xml version="1.0" encoding="UTF-8" standalone="no"?>
<!DOCTYPE svg PUBLIC "-//W3C//DTD SVG 1.1//EN" 
  "http://www.w3.org/Graphics/SVG/1.1/DTD/svg11.dtd">
<svg width="107" height="101"
     xmlns="http://www.w3.org/2000/svg" version="1.1">
 <path d="  M 0,25  L 0,27  L 1,27  L 1,28  L 4,28  L 4,29  L 7,29  L 7,30  L 8,30  L 8,29  L 9,29  L 9,30  L 10,30  L 10,38  L 9,38  L 9,40  L 10,40  L 10,41  L 9,41  L 9,73  L 10,73  L 10,76  L 11,76  L 11,78  L 12,78  L 12,79  L 15,79  L 15,80  L 22,80  L 22,79  L 23,79  L 23,80  L 24,80  L 24,79  L 30,79  L 30,78  L 33,78  L 33,77  L 38,77  L 38,76  L 44,76  L 44,75  L 50,75  L 50,74  L 54,74  L 54,73  L 57,73  L 57,72  L 61,72  L 61,71  L 62,71  L 62,70  L 63,70  L 63,65  L 60,65  L 60,66  L 56,66  L 56,67  L 53,67  L 53,68  L 52,68  L 52,67  L 51,67  L 51,68  L 48,68  L 48,69  L 42,69  L 42,70  L 37,70  L 37,71  L 31,71  L 31,72  L 28,72  L 28,73  L 19,73  L 19,72  L 17,72  L 17,68  L 16,68  L 16,67  L 17,67  L 17,66  L 16,66  L 16,65  L 17,65  L 17,64  L 16,64  L 16,63  L 17,63  L 17,62  L 16,62  L 16,60  L 17,60  L 17,57  L 16,57  L 16,56  L 17,56  L 17,53  L 16,53  L 16,52  L 17,52  L 17,34  L 18,34  L 18,32  L 24,32  L 24,31  L 26,31  L 26,32  L 27,32  L 27,31  L 32,31  L 32,30  L 36,30  L 36,29  L 37,29  L 37,30  L 40,30  L 40,29  L 44,29  L 44,28  L 45,28  L 45,29  L 48,29  L 48,28  L 56,28  L 56,27  L 59,27  L 59,26  L 61,26  L 61,25  L 63,25  L 63,21  L 64,21  L 64,20  L 63,20  L 63,19  L 62,19  L 62,20  L 61,20  L 61,19  L 58,19  L 58,20  L 53,20  L 53,21  L 46,21  L 46,22  L 38,22  L 38,23  L 30,23  L 30,24  L 27,24  L 27,23  L 26,23  L 26,24  L 9,24  L 9,25  L 7,25  L 7,24  L 5,24  L 5,25  Z  " style="fill:rgb(0, 0, 0); fill-opacity:1.000; stroke:none;" />
 <path d="  M 79,61  L 81,61  L 81,60  L 83,60  L 83,59  L 84,59  L 84,60  L 85,60  L 85,59  L 101,59  L 101,58  L 103,58  L 103,57  L 104,57  L 104,54  L 103,54  L 103,52  L 95,52  L 95,53  L 94,53  L 94,52  L 86,52  L 86,53  L 85,53  L 85,52  L 83,52  L 83,53  L 79,53  L 79,32  L 80,32  L 80,31  L 83,31  L 83,32  L 87,32  L 87,33  L 88,33  L 88,32  L 107,32  L 107,27  L 103,27  L 103,26  L 102,26  L 102,27  L 101,27  L 101,26  L 94,26  L 94,25  L 83,25  L 83,26  L 80,26  L 80,25  L 79,25  L 79,24  L 78,24  L 78,20  L 79,20  L 79,17  L 78,17  L 78,16  L 79,16  L 79,1  L 78,1  L 78,0  L 77,0  L 77,1  L 75,1  L 75,2  L 74,2  L 74,4  L 73,4  L 73,5  L 72,5  L 72,11  L 71,11  L 71,28  L 72,28  L 72,29  L 71,29  L 71,30  L 72,30  L 72,101  L 78,101  L 78,100  L 79,100  Z  " style="fill:rgb(0, 0, 0); fill-opacity:1.000; stroke:none;" />
</svg>
