<?xml version="1.0" encoding="UTF-8" standalone="no"?>
<!DOCTYPE svg PUBLIC "-//W3C//DTD SVG 1.1//EN" 
  "http://www.w3.org/Graphics/SVG/1.1/DTD/svg11.dtd">
<svg width="102" height="121"
     xmlns="http://www.w3.org/2000/svg" version="1.1">
 <path d="  M 8,87  L 8,88  L 9,88  L 9,89  L 10,89  L 10,91  L 12,91  L 12,92  L 19,92  L 19,91  L 23,91  L 23,90  L 26,90  L 26,89  L 29,89  L 29,88  L 31,88  L 31,87  L 33,87  L 33,86  L 37,86  L 37,85  L 40,85  L 40,84  L 45,84  L 45,83  L 48,83  L 48,82  L 54,82  L 54,81  L 58,81  L 58,80  L 59,80  L 59,81  L 60,81  L 60,80  L 65,80  L 65,79  L 68,79  L 68,78  L 70,78  L 70,77  L 71,77  L 71,76  L 73,76  L 73,75  L 74,75  L 74,74  L 75,74  L 75,72  L 66,72  L 66,73  L 59,73  L 59,74  L 54,74  L 54,75  L 51,75  L 51,76  L 46,76  L 46,77  L 42,77  L 42,78  L 38,78  L 38,79  L 35,79  L 35,80  L 31,80  L 31,81  L 28,81  L 28,82  L 24,82  L 24,83  L 23,83  L 23,84  L 17,84  L 17,85  L 16,85  L 16,84  L 15,84  L 15,83  L 14,83  L 14,61  L 15,61  L 15,60  L 14,60  L 14,59  L 15,59  L 15,45  L 16,45  L 16,37  L 17,37  L 17,32  L 18,32  L 18,31  L 19,31  L 19,32  L 21,32  L 21,31  L 28,31  L 28,30  L 29,30  L 29,31  L 32,31  L 32,30  L 33,30  L 33,31  L 34,31  L 34,30  L 52,30  L 52,29  L 67,29  L 67,28  L 68,28  L 68,27  L 69,27  L 69,26  L 68,26  L 68,24  L 67,24  L 67,23  L 66,23  L 66,24  L 65,24  L 65,23  L 60,23  L 60,22  L 59,22  L 59,23  L 56,23  L 56,22  L 55,22  L 55,23  L 52,23  L 52,22  L 51,22  L 51,23  L 48,23  L 48,22  L 47,22  L 47,23  L 42,23  L 42,24  L 40,24  L 40,23  L 38,23  L 38,24  L 35,24  L 35,23  L 34,23  L 34,24  L 19,24  L 19,23  L 18,23  L 18,24  L 17,24  L 17,23  L 0,23  L 0,25  L 1,25  L 1,26  L 3,26  L 3,27  L 8,27  L 8,30  L 9,30  L 9,35  L 8,35  L 8,37  L 9,37  L 9,38  L 8,38  L 8,60  L 7,60  L 7,61  L 8,61  L 8,64  L 7,64  L 7,65  L 8,65  L 8,68  L 7,68  L 7,69  L 8,69  L 8,71  L 7,71  L 7,73  L 8,73  L 8,74  L 7,74  L 7,78  L 8,78  L 8,79  L 7,79  L 7,81  L 8,81  L 8,86  L 9,86  L 9,87  Z  " style="fill:rgb(0, 0, 0); fill-opacity:1.000; stroke:none;" />
 <path d="  M 94,21  L 95,21  L 95,24  L 94,24  L 94,25  L 95,25  L 95,48  L 94,48  L 94,49  L 89,49  L 89,50  L 73,50  L 73,51  L 72,51  L 72,50  L 71,50  L 71,51  L 66,51  L 66,52  L 65,52  L 65,51  L 60,51  L 60,56  L 61,56  L 61,57  L 62,57  L 62,58  L 68,58  L 68,57  L 73,57  L 73,56  L 74,56  L 74,57  L 75,57  L 75,56  L 84,56  L 84,55  L 93,55  L 93,54  L 94,54  L 94,55  L 95,55  L 95,104  L 94,104  L 94,105  L 95,105  L 95,108  L 94,108  L 94,119  L 95,119  L 95,121  L 99,121  L 99,120  L 100,120  L 100,119  L 101,119  L 101,113  L 102,113  L 102,112  L 101,112  L 101,110  L 102,110  L 102,108  L 101,108  L 101,107  L 102,107  L 102,20  L 101,20  L 101,17  L 102,17  L 102,16  L 101,16  L 101,1  L 98,1  L 98,0  L 97,0  L 97,1  L 94,1  L 94,3  L 93,3  L 93,11  L 94,11  Z  " style="fill:rgb(0, 0, 0); fill-opacity:1.000; stroke:none;" />
</svg>
