<?xml version="1.0" encoding="UTF-8" standalone="no"?>
<!DOCTYPE svg PUBLIC "-//W3C//DTD SVG 1.1//EN" 
  "http://www.w3.org/Graphics/SVG/1.1/DTD/svg11.dtd">
<svg width="104" height="166"
     xmlns="http://www.w3.org/2000/svg" version="1.1">
 <path d="  M 49,74  L 49,75  L 41,75  L 41,76  L 37,76  L 37,77  L 30,77  L 30,78  L 22,78  L 22,77  L 21,77  L 21,76  L 20,76  L 20,73  L 19,73  L 19,49  L 18,49  L 18,48  L 19,48  L 19,45  L 18,45  L 18,44  L 19,44  L 19,41  L 18,41  L 18,40  L 19,40  L 19,37  L 18,37  L 18,36  L 19,36  L 19,35  L 18,35  L 18,31  L 19,31  L 19,30  L 24,30  L 24,29  L 27,29  L 27,30  L 28,30  L 28,29  L 34,29  L 34,28  L 35,28  L 35,29  L 36,29  L 36,28  L 41,28  L 41,27  L 46,27  L 46,26  L 58,26  L 58,25  L 62,25  L 62,24  L 63,24  L 63,23  L 64,23  L 64,22  L 65,22  L 65,20  L 64,20  L 64,19  L 62,19  L 62,18  L 54,18  L 54,19  L 47,19  L 47,20  L 46,20  L 46,19  L 45,19  L 45,20  L 42,20  L 42,21  L 39,21  L 39,22  L 38,22  L 38,21  L 37,21  L 37,22  L 31,22  L 31,23  L 23,23  L 23,24  L 22,24  L 22,23  L 21,23  L 21,24  L 20,24  L 20,23  L 15,23  L 15,22  L 12,22  L 12,21  L 7,21  L 7,22  L 4,22  L 4,23  L 2,23  L 2,24  L 1,24  L 1,25  L 0,25  L 0,29  L 1,29  L 1,30  L 7,30  L 7,29  L 10,29  L 10,31  L 11,31  L 11,32  L 10,32  L 10,52  L 11,52  L 11,53  L 10,53  L 10,56  L 11,56  L 11,57  L 10,57  L 10,60  L 11,60  L 11,61  L 10,61  L 10,64  L 11,64  L 11,66  L 10,66  L 10,68  L 11,68  L 11,70  L 10,70  L 10,71  L 11,71  L 11,76  L 12,76  L 12,79  L 13,79  L 13,80  L 14,80  L 14,81  L 15,81  L 15,82  L 16,82  L 16,83  L 18,83  L 18,84  L 22,84  L 22,85  L 28,85  L 28,84  L 34,84  L 34,83  L 41,83  L 41,82  L 47,82  L 47,81  L 52,81  L 52,80  L 56,80  L 56,79  L 61,79  L 61,78  L 62,78  L 62,77  L 64,77  L 64,76  L 65,76  L 65,74  L 66,74  L 66,73  L 67,73  L 67,71  L 66,71  L 66,70  L 65,70  L 65,71  L 59,71  L 59,72  L 56,72  L 56,73  L 53,73  L 53,74  Z  " style="fill:rgb(0, 0, 0); fill-opacity:1.000; stroke:none;" />
 <path d="  M 31,107  L 31,108  L 28,108  L 28,109  L 26,109  L 26,110  L 25,110  L 25,111  L 24,111  L 24,114  L 26,114  L 26,115  L 32,115  L 32,114  L 34,114  L 34,113  L 47,113  L 47,114  L 50,114  L 50,116  L 51,116  L 51,115  L 52,115  L 52,116  L 53,116  L 53,117  L 55,117  L 55,118  L 58,118  L 58,119  L 59,119  L 59,121  L 60,121  L 60,122  L 59,122  L 59,133  L 58,133  L 58,138  L 57,138  L 57,145  L 56,145  L 56,148  L 55,148  L 55,150  L 54,150  L 54,153  L 53,153  L 53,155  L 52,155  L 52,159  L 53,159  L 53,160  L 54,160  L 54,161  L 57,161  L 57,160  L 60,160  L 60,158  L 61,158  L 61,155  L 62,155  L 62,149  L 63,149  L 63,144  L 64,144  L 64,138  L 65,138  L 65,134  L 66,134  L 66,131  L 67,131  L 67,130  L 66,130  L 66,129  L 67,129  L 67,124  L 68,124  L 68,117  L 73,117  L 73,116  L 81,116  L 81,115  L 84,115  L 84,116  L 85,116  L 85,115  L 96,115  L 96,116  L 98,116  L 98,139  L 97,139  L 97,141  L 98,141  L 98,142  L 97,142  L 97,159  L 96,159  L 96,160  L 97,160  L 97,164  L 98,164  L 98,165  L 99,165  L 99,166  L 102,166  L 102,165  L 103,165  L 103,156  L 104,156  L 104,155  L 103,155  L 103,152  L 104,152  L 104,151  L 103,151  L 103,150  L 104,150  L 104,112  L 103,112  L 103,111  L 102,111  L 102,110  L 100,110  L 100,109  L 98,109  L 98,108  L 86,108  L 86,109  L 71,109  L 71,110  L 68,110  L 68,111  L 67,111  L 67,112  L 59,112  L 59,111  L 56,111  L 56,110  L 53,110  L 53,109  L 51,109  L 51,108  L 49,108  L 49,107  L 44,107  L 44,106  L 37,106  L 37,107  Z  " style="fill:rgb(0, 0, 0); fill-opacity:1.000; stroke:none;" />
 <path d="  M 94,26  L 95,26  L 95,37  L 91,37  L 91,38  L 84,38  L 84,39  L 79,39  L 79,40  L 78,40  L 78,39  L 77,39  L 77,40  L 75,40  L 75,41  L 71,41  L 71,42  L 65,42  L 65,43  L 59,43  L 59,44  L 55,44  L 55,46  L 54,46  L 54,48  L 55,48  L 55,49  L 56,49  L 56,50  L 57,50  L 57,52  L 58,52  L 58,51  L 63,51  L 63,50  L 66,50  L 66,49  L 70,49  L 70,48  L 74,48  L 74,47  L 75,47  L 75,48  L 77,48  L 77,47  L 80,47  L 80,46  L 85,46  L 85,45  L 93,45  L 93,44  L 94,44  L 94,45  L 95,45  L 95,47  L 96,47  L 96,49  L 95,49  L 95,51  L 96,51  L 96,52  L 95,52  L 95,59  L 94,59  L 94,73  L 93,73  L 93,74  L 94,74  L 94,75  L 93,75  L 93,99  L 94,99  L 94,100  L 95,100  L 95,101  L 97,101  L 97,100  L 99,100  L 99,98  L 100,98  L 100,86  L 101,86  L 101,67  L 102,67  L 102,65  L 101,65  L 101,64  L 102,64  L 102,52  L 103,52  L 103,51  L 102,51  L 102,50  L 103,50  L 103,47  L 102,47  L 102,46  L 103,46  L 103,43  L 102,43  L 102,42  L 103,42  L 103,31  L 102,31  L 102,30  L 103,30  L 103,29  L 102,29  L 102,28  L 103,28  L 103,27  L 102,27  L 102,26  L 103,26  L 103,25  L 102,25  L 102,18  L 101,18  L 101,10  L 100,10  L 100,3  L 99,3  L 99,2  L 98,2  L 98,1  L 93,1  L 93,3  L 92,3  L 92,8  L 93,8  L 93,17  L 94,17  Z  " style="fill:rgb(0, 0, 0); fill-opacity:1.000; stroke:none;" />
</svg>
