<?xml version="1.0" encoding="UTF-8" standalone="no"?>
<!DOCTYPE svg PUBLIC "-//W3C//DTD SVG 1.1//EN" 
  "http://www.w3.org/Graphics/SVG/1.1/DTD/svg11.dtd">
<svg width="106" height="178"
     xmlns="http://www.w3.org/2000/svg" version="1.1">
 <path d="  M 5,28  L 6,28  L 6,29  L 7,29  L 7,36  L 8,36  L 8,44  L 9,44  L 9,45  L 8,45  L 8,46  L 9,46  L 9,69  L 10,69  L 10,70  L 9,70  L 9,72  L 10,72  L 10,77  L 11,77  L 11,80  L 12,80  L 12,83  L 14,83  L 14,84  L 16,84  L 16,86  L 18,86  L 18,87  L 20,87  L 20,88  L 29,88  L 29,87  L 32,87  L 32,86  L 38,86  L 38,85  L 44,85  L 44,84  L 50,84  L 50,83  L 51,83  L 51,84  L 53,84  L 53,83  L 57,83  L 57,82  L 59,82  L 59,81  L 60,81  L 60,79  L 61,79  L 61,75  L 60,75  L 60,74  L 57,74  L 57,75  L 53,75  L 53,76  L 49,76  L 49,77  L 41,77  L 41,78  L 38,78  L 38,79  L 37,79  L 37,78  L 36,78  L 36,79  L 29,79  L 29,80  L 23,80  L 23,79  L 20,79  L 20,78  L 19,78  L 19,76  L 18,76  L 18,73  L 17,73  L 17,63  L 16,63  L 16,62  L 17,62  L 17,59  L 16,59  L 16,43  L 15,43  L 15,30  L 14,30  L 14,28  L 15,28  L 15,26  L 28,26  L 28,25  L 36,25  L 36,24  L 44,24  L 44,23  L 45,23  L 45,24  L 46,24  L 46,23  L 54,23  L 54,22  L 55,22  L 55,23  L 56,23  L 56,22  L 60,22  L 60,21  L 62,21  L 62,20  L 63,20  L 63,17  L 62,17  L 62,15  L 60,15  L 60,14  L 59,14  L 59,13  L 54,13  L 54,14  L 53,14  L 53,15  L 45,15  L 45,16  L 39,16  L 39,17  L 31,17  L 31,18  L 21,18  L 21,19  L 18,19  L 18,18  L 17,18  L 17,19  L 15,19  L 15,18  L 9,18  L 9,19  L 7,19  L 7,20  L 5,20  L 5,22  L 4,22  L 4,23  L 3,23  L 3,24  L 2,24  L 2,25  L 0,25  L 0,26  L 1,26  L 1,27  L 2,27  L 2,26  L 3,26  L 3,27  L 5,27  Z  " style="fill:rgb(0, 0, 0); fill-opacity:1.000; stroke:none;" />
 <path d="  M 48,153  L 49,153  L 49,151  L 50,151  L 50,150  L 52,150  L 52,149  L 54,149  L 54,148  L 57,148  L 57,147  L 60,147  L 60,146  L 62,146  L 62,145  L 65,145  L 65,144  L 66,144  L 66,143  L 69,143  L 69,142  L 71,142  L 71,141  L 73,141  L 73,140  L 74,140  L 74,139  L 75,139  L 75,138  L 78,138  L 78,137  L 79,137  L 79,136  L 81,136  L 81,135  L 82,135  L 82,134  L 84,134  L 84,133  L 86,133  L 86,131  L 87,131  L 87,130  L 88,130  L 88,128  L 89,128  L 89,125  L 90,125  L 90,124  L 89,124  L 89,121  L 88,121  L 88,119  L 87,119  L 87,118  L 86,118  L 86,116  L 85,116  L 85,114  L 84,114  L 84,113  L 82,113  L 82,111  L 81,111  L 81,112  L 80,112  L 80,111  L 77,111  L 77,110  L 75,110  L 75,109  L 69,109  L 69,108  L 66,108  L 66,107  L 65,107  L 65,108  L 64,108  L 64,107  L 57,107  L 57,106  L 48,106  L 48,107  L 44,107  L 44,108  L 41,108  L 41,109  L 40,109  L 40,111  L 39,111  L 39,114  L 40,114  L 40,116  L 42,116  L 42,117  L 43,117  L 43,116  L 47,116  L 47,115  L 49,115  L 49,114  L 54,114  L 54,113  L 55,113  L 55,114  L 63,114  L 63,115  L 68,115  L 68,116  L 73,116  L 73,117  L 75,117  L 75,118  L 76,118  L 76,120  L 77,120  L 77,121  L 78,121  L 78,122  L 80,122  L 80,126  L 79,126  L 79,128  L 78,128  L 78,129  L 77,129  L 77,130  L 75,130  L 75,131  L 73,131  L 73,132  L 71,132  L 71,133  L 69,133  L 69,134  L 68,134  L 68,135  L 65,135  L 65,136  L 63,136  L 63,137  L 62,137  L 62,138  L 60,138  L 60,139  L 57,139  L 57,141  L 53,141  L 53,142  L 50,142  L 50,143  L 48,143  L 48,144  L 47,144  L 47,145  L 46,145  L 46,146  L 45,146  L 45,147  L 44,147  L 44,149  L 43,149  L 43,153  L 42,153  L 42,155  L 41,155  L 41,157  L 42,157  L 42,159  L 41,159  L 41,165  L 42,165  L 42,169  L 43,169  L 43,173  L 44,173  L 44,174  L 46,174  L 46,175  L 47,175  L 47,176  L 49,176  L 49,177  L 51,177  L 51,178  L 78,178  L 78,177  L 82,177  L 82,176  L 85,176  L 85,175  L 86,175  L 86,174  L 89,174  L 89,173  L 91,173  L 91,172  L 93,172  L 93,171  L 94,171  L 94,170  L 97,170  L 97,169  L 99,169  L 99,168  L 100,168  L 100,166  L 101,166  L 101,165  L 102,165  L 102,164  L 103,164  L 103,163  L 102,163  L 102,160  L 99,160  L 99,161  L 97,161  L 97,162  L 95,162  L 95,163  L 93,163  L 93,164  L 91,164  L 91,165  L 89,165  L 89,166  L 87,166  L 87,167  L 85,167  L 85,168  L 81,168  L 81,169  L 77,169  L 77,170  L 74,170  L 74,171  L 65,171  L 65,172  L 63,172  L 63,171  L 53,171  L 53,170  L 51,170  L 51,168  L 49,168  L 49,165  L 48,165  Z  " style="fill:rgb(0, 0, 0); fill-opacity:1.000; stroke:none;" />
 <path d="  M 98,42  L 97,42  L 97,44  L 98,44  L 98,51  L 97,51  L 97,52  L 98,52  L 98,53  L 97,53  L 97,54  L 98,54  L 98,55  L 97,55  L 97,56  L 98,56  L 98,59  L 97,59  L 97,61  L 98,61  L 98,62  L 97,62  L 97,100  L 98,100  L 98,101  L 101,101  L 101,100  L 103,100  L 103,99  L 104,99  L 104,72  L 105,72  L 105,71  L 104,71  L 104,70  L 105,70  L 105,52  L 106,52  L 106,50  L 105,50  L 105,49  L 106,49  L 106,2  L 105,2  L 105,1  L 104,1  L 104,0  L 100,0  L 100,1  L 99,1  L 99,3  L 98,3  L 98,4  L 99,4  L 99,30  L 98,30  L 98,31  L 92,31  L 92,32  L 91,32  L 91,31  L 89,31  L 89,32  L 87,32  L 87,31  L 86,31  L 86,32  L 83,32  L 83,31  L 82,31  L 82,32  L 75,32  L 75,33  L 74,33  L 74,32  L 73,32  L 73,33  L 68,33  L 68,34  L 65,34  L 65,35  L 62,35  L 62,36  L 58,36  L 58,37  L 56,37  L 56,38  L 55,38  L 55,39  L 54,39  L 54,40  L 53,40  L 53,41  L 52,41  L 52,43  L 53,43  L 53,42  L 54,42  L 54,43  L 64,43  L 64,42  L 68,42  L 68,41  L 71,41  L 71,40  L 76,40  L 76,39  L 97,39  L 97,38  L 98,38  Z  " style="fill:rgb(0, 0, 0); fill-opacity:1.000; stroke:none;" />
</svg>
