<?xml version="1.0" encoding="UTF-8" standalone="no"?>
<!DOCTYPE svg PUBLIC "-//W3C//DTD SVG 1.1//EN" 
  "http://www.w3.org/Graphics/SVG/1.1/DTD/svg11.dtd">
<svg width="105" height="168"
     xmlns="http://www.w3.org/2000/svg" version="1.1">
 <path d="  M 17,24  L 20,24  L 20,25  L 33,25  L 33,24  L 41,24  L 41,23  L 46,23  L 46,22  L 53,22  L 53,21  L 61,21  L 61,20  L 63,20  L 63,19  L 66,19  L 66,17  L 65,17  L 65,16  L 64,16  L 64,15  L 63,15  L 63,14  L 54,14  L 54,15  L 49,15  L 49,16  L 42,16  L 42,17  L 41,17  L 41,16  L 38,16  L 38,17  L 34,17  L 34,18  L 33,18  L 33,17  L 32,17  L 32,18  L 17,18  L 17,17  L 6,17  L 6,18  L 4,18  L 4,19  L 1,19  L 1,21  L 0,21  L 0,23  L 1,23  L 1,24  L 3,24  L 3,25  L 6,25  L 6,24  L 9,24  L 9,25  L 10,25  L 10,69  L 11,69  L 11,71  L 10,71  L 10,73  L 11,73  L 11,78  L 12,78  L 12,80  L 13,80  L 13,82  L 14,82  L 14,83  L 17,83  L 17,84  L 18,84  L 18,85  L 23,85  L 23,84  L 26,84  L 26,83  L 31,83  L 31,82  L 37,82  L 37,81  L 42,81  L 42,80  L 44,80  L 44,79  L 47,79  L 47,78  L 53,78  L 53,77  L 58,77  L 58,76  L 62,76  L 62,75  L 63,75  L 63,74  L 65,74  L 65,73  L 66,73  L 66,72  L 67,72  L 67,70  L 68,70  L 68,69  L 69,69  L 69,65  L 70,65  L 70,64  L 68,64  L 68,66  L 66,66  L 66,67  L 63,67  L 63,68  L 61,68  L 61,69  L 58,69  L 58,70  L 55,70  L 55,71  L 52,71  L 52,72  L 46,72  L 46,73  L 42,73  L 42,74  L 37,74  L 37,75  L 31,75  L 31,76  L 26,76  L 26,77  L 21,77  L 21,76  L 20,76  L 20,73  L 19,73  L 19,70  L 18,70  L 18,69  L 19,69  L 19,68  L 18,68  L 18,52  L 17,52  L 17,51  L 18,51  L 18,48  L 17,48  L 17,47  L 18,47  L 18,44  L 17,44  L 17,43  L 18,43  L 18,42  L 17,42  L 17,41  L 18,41  L 18,40  L 17,40  L 17,37  L 18,37  L 18,36  L 17,36  L 17,33  L 18,33  L 18,32  L 17,32  Z  " style="fill:rgb(0, 0, 0); fill-opacity:1.000; stroke:none;" />
 <path d="  M 22,146  L 23,146  L 23,144  L 24,144  L 24,143  L 25,143  L 25,142  L 27,142  L 27,141  L 30,141  L 30,140  L 31,140  L 31,139  L 35,139  L 35,138  L 38,138  L 38,137  L 41,137  L 41,136  L 43,136  L 43,135  L 46,135  L 46,134  L 48,134  L 48,133  L 49,133  L 49,132  L 50,132  L 50,131  L 51,131  L 51,130  L 52,130  L 52,129  L 53,129  L 53,127  L 54,127  L 54,119  L 53,119  L 53,116  L 51,116  L 51,115  L 49,115  L 49,114  L 48,114  L 48,113  L 47,113  L 47,112  L 45,112  L 45,111  L 44,111  L 44,110  L 43,110  L 43,109  L 41,109  L 41,108  L 40,108  L 40,107  L 37,107  L 37,106  L 35,106  L 35,105  L 33,105  L 33,104  L 30,104  L 30,103  L 23,103  L 23,104  L 22,104  L 22,105  L 21,105  L 21,109  L 22,109  L 22,111  L 23,111  L 23,110  L 24,110  L 24,111  L 25,111  L 25,110  L 29,110  L 29,111  L 32,111  L 32,112  L 33,112  L 33,113  L 36,113  L 36,114  L 38,114  L 38,115  L 39,115  L 39,116  L 41,116  L 41,117  L 42,117  L 42,118  L 43,118  L 43,119  L 45,119  L 45,120  L 46,120  L 46,122  L 47,122  L 47,124  L 46,124  L 46,128  L 42,128  L 42,129  L 40,129  L 40,130  L 37,130  L 37,131  L 34,131  L 34,132  L 32,132  L 32,133  L 31,133  L 31,132  L 30,132  L 30,133  L 28,133  L 28,134  L 26,134  L 26,135  L 25,135  L 25,136  L 22,136  L 22,137  L 21,137  L 21,138  L 19,138  L 19,139  L 17,139  L 17,141  L 16,141  L 16,144  L 15,144  L 15,148  L 14,148  L 14,153  L 15,153  L 15,158  L 16,158  L 16,159  L 17,159  L 17,161  L 19,161  L 19,162  L 20,162  L 20,165  L 22,165  L 22,166  L 24,166  L 24,167  L 29,167  L 29,168  L 34,168  L 34,167  L 39,167  L 39,166  L 43,166  L 43,165  L 45,165  L 45,164  L 50,164  L 50,163  L 54,163  L 54,162  L 56,162  L 56,163  L 58,163  L 58,162  L 60,162  L 60,163  L 62,163  L 62,162  L 64,162  L 64,163  L 65,163  L 65,164  L 67,164  L 67,166  L 69,166  L 69,167  L 71,167  L 71,168  L 91,168  L 91,167  L 93,167  L 93,166  L 95,166  L 95,165  L 97,165  L 97,164  L 98,164  L 98,163  L 99,163  L 99,162  L 100,162  L 100,161  L 101,161  L 101,159  L 102,159  L 102,154  L 103,154  L 103,147  L 104,147  L 104,141  L 105,141  L 105,140  L 104,140  L 104,139  L 105,139  L 105,108  L 104,108  L 104,106  L 103,106  L 103,105  L 102,105  L 102,104  L 100,104  L 100,103  L 97,103  L 97,104  L 96,104  L 96,105  L 97,105  L 97,110  L 98,110  L 98,126  L 99,126  L 99,129  L 91,129  L 91,128  L 90,128  L 90,129  L 74,129  L 74,130  L 73,130  L 73,129  L 71,129  L 71,127  L 72,127  L 72,125  L 73,125  L 73,110  L 74,110  L 74,108  L 73,108  L 73,107  L 72,107  L 72,106  L 69,106  L 69,107  L 68,107  L 68,108  L 67,108  L 67,109  L 66,109  L 66,110  L 65,110  L 65,112  L 64,112  L 64,114  L 65,114  L 65,128  L 64,128  L 64,139  L 63,139  L 63,153  L 62,153  L 62,154  L 59,154  L 59,153  L 55,153  L 55,154  L 52,154  L 52,155  L 50,155  L 50,156  L 47,156  L 47,157  L 43,157  L 43,158  L 41,158  L 41,159  L 37,159  L 37,160  L 26,160  L 26,159  L 24,159  L 24,158  L 22,158  Z  M 70,152  L 69,152  L 69,151  L 70,151  L 70,148  L 69,148  L 69,147  L 70,147  L 70,146  L 69,146  L 69,145  L 70,145  L 70,139  L 71,139  L 71,137  L 79,137  L 79,136  L 81,136  L 81,137  L 82,137  L 82,136  L 85,136  L 85,137  L 86,137  L 86,136  L 89,136  L 89,137  L 90,137  L 90,136  L 92,136  L 92,137  L 98,137  L 98,140  L 97,140  L 97,145  L 96,145  L 96,150  L 95,150  L 95,154  L 94,154  L 94,157  L 93,157  L 93,159  L 92,159  L 92,160  L 91,160  L 91,161  L 83,161  L 83,162  L 73,162  L 73,161  L 72,161  L 72,160  L 71,160  L 71,159  L 70,159  Z  " style="fill:rgb(0, 0, 0); fill-opacity:1.000; stroke:none;" />
 <path d="  M 18,162  L 18,163  L 19,163  L 19,162  Z  " style="fill:rgb(0, 0, 0); fill-opacity:1.000; stroke:none;" />
 <path d="  M 93,4  L 92,4  L 92,2  L 91,2  L 91,1  L 89,1  L 89,0  L 86,0  L 86,1  L 85,1  L 85,9  L 86,9  L 86,22  L 87,22  L 87,36  L 86,36  L 86,37  L 82,37  L 82,38  L 58,38  L 58,37  L 56,37  L 56,38  L 53,38  L 53,39  L 52,39  L 52,44  L 53,44  L 53,45  L 55,45  L 55,46  L 56,46  L 56,47  L 59,47  L 59,46  L 60,46  L 60,47  L 61,47  L 61,46  L 71,46  L 71,45  L 72,45  L 72,46  L 73,46  L 73,45  L 87,45  L 87,47  L 88,47  L 88,48  L 87,48  L 87,92  L 88,92  L 88,94  L 92,94  L 92,93  L 93,93  L 93,92  L 94,92  L 94,89  L 95,89  L 95,88  L 94,88  L 94,65  L 95,65  L 95,64  L 94,64  L 94,62  L 95,62  L 95,31  L 94,31  L 94,29  L 95,29  L 95,28  L 94,28  L 94,18  L 93,18  Z  " style="fill:rgb(0, 0, 0); fill-opacity:1.000; stroke:none;" />
</svg>
