<?xml version="1.0" encoding="UTF-8" standalone="no"?>
<!DOCTYPE svg PUBLIC "-//W3C//DTD SVG 1.1//EN" 
  "http://www.w3.org/Graphics/SVG/1.1/DTD/svg11.dtd">
<svg width="103" height="168"
     xmlns="http://www.w3.org/2000/svg" version="1.1">
 <path d="  M 41,73  L 41,74  L 37,74  L 37,75  L 36,75  L 36,74  L 35,74  L 35,75  L 32,75  L 32,76  L 28,76  L 28,77  L 24,77  L 24,78  L 23,78  L 23,77  L 22,77  L 22,78  L 21,78  L 21,77  L 19,77  L 19,76  L 18,76  L 18,74  L 17,74  L 17,71  L 16,71  L 16,56  L 15,56  L 15,55  L 16,55  L 16,54  L 15,54  L 15,53  L 16,53  L 16,52  L 15,52  L 15,38  L 14,38  L 14,37  L 15,37  L 15,34  L 14,34  L 14,33  L 15,33  L 15,32  L 14,32  L 14,27  L 15,27  L 15,26  L 17,26  L 17,27  L 24,27  L 24,26  L 25,26  L 25,27  L 28,27  L 28,26  L 29,26  L 29,27  L 30,27  L 30,26  L 38,26  L 38,25  L 43,25  L 43,24  L 49,24  L 49,23  L 53,23  L 53,22  L 59,22  L 59,21  L 60,21  L 60,20  L 61,20  L 61,19  L 60,19  L 60,18  L 59,18  L 59,17  L 58,17  L 58,16  L 56,16  L 56,15  L 51,15  L 51,16  L 47,16  L 47,17  L 40,17  L 40,18  L 31,18  L 31,19  L 23,19  L 23,20  L 22,20  L 22,19  L 12,19  L 12,18  L 8,18  L 8,19  L 6,19  L 6,20  L 3,20  L 3,21  L 2,21  L 2,22  L 1,22  L 1,23  L 0,23  L 0,26  L 3,26  L 3,27  L 4,27  L 4,26  L 6,26  L 6,27  L 7,27  L 7,43  L 8,43  L 8,44  L 7,44  L 7,47  L 8,47  L 8,48  L 7,48  L 7,51  L 8,51  L 8,53  L 7,53  L 7,55  L 8,55  L 8,58  L 7,58  L 7,59  L 8,59  L 8,71  L 9,71  L 9,76  L 10,76  L 10,79  L 12,79  L 12,80  L 13,80  L 13,82  L 14,82  L 14,83  L 16,83  L 16,84  L 21,84  L 21,85  L 25,85  L 25,84  L 30,84  L 30,83  L 32,83  L 32,82  L 38,82  L 38,81  L 40,81  L 40,80  L 46,80  L 46,79  L 52,79  L 52,78  L 55,78  L 55,77  L 56,77  L 56,76  L 57,76  L 57,75  L 58,75  L 58,73  L 59,73  L 59,69  L 55,69  L 55,70  L 51,70  L 51,71  L 48,71  L 48,72  L 44,72  L 44,73  Z  " style="fill:rgb(0, 0, 0); fill-opacity:1.000; stroke:none;" />
 <path d="  M 90,148  L 90,150  L 89,150  L 89,151  L 87,151  L 87,152  L 86,152  L 86,153  L 84,153  L 84,154  L 82,154  L 82,155  L 81,155  L 81,156  L 78,156  L 78,157  L 76,157  L 76,158  L 73,158  L 73,159  L 69,159  L 69,160  L 65,160  L 65,161  L 64,161  L 64,160  L 63,160  L 63,161  L 54,161  L 54,160  L 51,160  L 51,159  L 50,159  L 50,160  L 49,160  L 49,159  L 46,159  L 46,158  L 43,158  L 43,157  L 41,157  L 41,156  L 40,156  L 40,155  L 39,155  L 39,140  L 40,140  L 40,136  L 41,136  L 41,135  L 42,135  L 42,131  L 43,131  L 43,129  L 44,129  L 44,127  L 45,127  L 45,125  L 46,125  L 46,124  L 47,124  L 47,123  L 48,123  L 48,121  L 50,121  L 50,120  L 51,120  L 51,118  L 52,118  L 52,117  L 53,117  L 53,116  L 55,116  L 55,115  L 56,115  L 56,114  L 58,114  L 58,113  L 59,113  L 59,112  L 60,112  L 60,111  L 64,111  L 64,110  L 65,110  L 65,111  L 68,111  L 68,112  L 86,112  L 86,113  L 89,113  L 89,114  L 91,114  L 91,115  L 93,115  L 93,116  L 94,116  L 94,118  L 95,118  L 95,119  L 96,119  L 96,138  L 95,138  L 95,143  L 94,143  L 94,145  L 93,145  L 93,147  L 92,147  L 92,148  Z  M 32,152  L 31,152  L 31,153  L 32,153  L 32,154  L 31,154  L 31,155  L 32,155  L 32,156  L 31,156  L 31,157  L 32,157  L 32,160  L 33,160  L 33,161  L 34,161  L 34,162  L 36,162  L 36,163  L 39,163  L 39,164  L 41,164  L 41,165  L 45,165  L 45,166  L 47,166  L 47,167  L 52,167  L 52,168  L 66,168  L 66,167  L 70,167  L 70,166  L 73,166  L 73,165  L 76,165  L 76,164  L 79,164  L 79,163  L 82,163  L 82,162  L 84,162  L 84,161  L 87,161  L 87,160  L 89,160  L 89,159  L 90,159  L 90,158  L 91,158  L 91,157  L 93,157  L 93,156  L 95,156  L 95,155  L 96,155  L 96,154  L 97,154  L 97,152  L 99,152  L 99,150  L 100,150  L 100,148  L 101,148  L 101,147  L 102,147  L 102,145  L 103,145  L 103,144  L 102,144  L 102,143  L 103,143  L 103,118  L 102,118  L 102,114  L 101,114  L 101,112  L 100,112  L 100,111  L 98,111  L 98,108  L 96,108  L 96,107  L 94,107  L 94,106  L 91,106  L 91,105  L 84,105  L 84,104  L 83,104  L 83,105  L 82,105  L 82,104  L 81,104  L 81,105  L 80,105  L 80,104  L 71,104  L 71,103  L 66,103  L 66,102  L 64,102  L 64,101  L 61,101  L 61,100  L 60,100  L 60,101  L 57,101  L 57,102  L 55,102  L 55,103  L 54,103  L 54,104  L 53,104  L 53,106  L 52,106  L 52,107  L 51,107  L 51,108  L 50,108  L 50,109  L 49,109  L 49,111  L 47,111  L 47,113  L 46,113  L 46,114  L 45,114  L 45,115  L 44,115  L 44,116  L 43,116  L 43,117  L 42,117  L 42,118  L 41,118  L 41,120  L 39,120  L 39,123  L 38,123  L 38,125  L 37,125  L 37,128  L 36,128  L 36,130  L 35,130  L 35,133  L 34,133  L 34,136  L 33,136  L 33,141  L 32,141  Z  " style="fill:rgb(0, 0, 0); fill-opacity:1.000; stroke:none;" />
 <path d="  M 94,85  L 95,85  L 95,86  L 94,86  L 94,87  L 95,87  L 95,96  L 96,96  L 96,97  L 97,97  L 97,98  L 98,98  L 98,100  L 99,100  L 99,101  L 100,101  L 100,100  L 101,100  L 101,99  L 102,99  L 102,95  L 103,95  L 103,94  L 102,94  L 102,88  L 101,88  L 101,87  L 102,87  L 102,86  L 101,86  L 101,83  L 102,83  L 102,82  L 101,82  L 101,30  L 100,30  L 100,29  L 101,29  L 101,28  L 100,28  L 100,21  L 99,21  L 99,16  L 98,16  L 98,8  L 97,8  L 97,7  L 98,7  L 98,6  L 97,6  L 97,3  L 96,3  L 96,2  L 95,2  L 95,1  L 92,1  L 92,0  L 91,0  L 91,1  L 90,1  L 90,2  L 89,2  L 89,5  L 90,5  L 90,12  L 91,12  L 91,13  L 90,13  L 90,14  L 91,14  L 91,19  L 92,19  L 92,26  L 93,26  L 93,34  L 92,34  L 92,35  L 89,35  L 89,36  L 85,36  L 85,37  L 81,37  L 81,38  L 80,38  L 80,37  L 79,37  L 79,38  L 74,38  L 74,39  L 72,39  L 72,38  L 71,38  L 71,39  L 64,39  L 64,40  L 56,40  L 56,41  L 53,41  L 53,43  L 52,43  L 52,44  L 51,44  L 51,46  L 52,46  L 52,47  L 55,47  L 55,48  L 66,48  L 66,47  L 76,47  L 76,46  L 82,46  L 82,45  L 85,45  L 85,44  L 90,44  L 90,43  L 93,43  L 93,45  L 94,45  L 94,52  L 93,52  L 93,53  L 94,53  L 94,56  L 93,56  L 93,57  L 94,57  L 94,60  L 93,60  L 93,61  L 94,61  L 94,64  L 93,64  L 93,65  L 94,65  L 94,68  L 93,68  L 93,69  L 94,69  L 94,72  L 93,72  L 93,73  L 94,73  Z  " style="fill:rgb(0, 0, 0); fill-opacity:1.000; stroke:none;" />
</svg>
