<?xml version="1.0" encoding="UTF-8" standalone="no"?>
<!DOCTYPE svg PUBLIC "-//W3C//DTD SVG 1.1//EN" 
  "http://www.w3.org/Graphics/SVG/1.1/DTD/svg11.dtd">
<svg width="109" height="131"
     xmlns="http://www.w3.org/2000/svg" version="1.1">
 <path d="  M 37,57  L 37,58  L 34,58  L 34,59  L 20,59  L 20,58  L 19,58  L 19,57  L 18,57  L 18,56  L 17,56  L 17,51  L 16,51  L 16,48  L 17,48  L 17,47  L 16,47  L 16,34  L 15,34  L 15,16  L 14,16  L 14,13  L 15,13  L 15,11  L 18,11  L 18,12  L 19,12  L 19,11  L 21,11  L 21,12  L 22,12  L 22,11  L 26,11  L 26,10  L 33,10  L 33,9  L 38,9  L 38,8  L 43,8  L 43,7  L 44,7  L 44,8  L 45,8  L 45,7  L 52,7  L 52,6  L 54,6  L 54,4  L 55,4  L 55,1  L 53,1  L 53,0  L 50,0  L 50,1  L 45,1  L 45,2  L 39,2  L 39,3  L 34,3  L 34,4  L 31,4  L 31,3  L 30,3  L 30,4  L 22,4  L 22,5  L 21,5  L 21,4  L 20,4  L 20,5  L 19,5  L 19,4  L 12,4  L 12,3  L 9,3  L 9,4  L 6,4  L 6,5  L 4,5  L 4,6  L 2,6  L 2,7  L 1,7  L 1,9  L 0,9  L 0,10  L 1,10  L 1,11  L 7,11  L 7,12  L 8,12  L 8,28  L 9,28  L 9,40  L 10,40  L 10,41  L 9,41  L 9,42  L 10,42  L 10,43  L 9,43  L 9,44  L 10,44  L 10,56  L 11,56  L 11,59  L 12,59  L 12,62  L 13,62  L 13,63  L 14,63  L 14,64  L 17,64  L 17,65  L 20,65  L 20,66  L 24,66  L 24,67  L 25,67  L 25,66  L 33,66  L 33,65  L 37,65  L 37,64  L 41,64  L 41,63  L 45,63  L 45,62  L 47,62  L 47,61  L 50,61  L 50,60  L 52,60  L 52,59  L 54,59  L 54,58  L 55,58  L 55,57  L 57,57  L 57,56  L 58,56  L 58,55  L 59,55  L 59,53  L 58,53  L 58,52  L 57,52  L 57,51  L 53,51  L 53,52  L 50,52  L 50,53  L 48,53  L 48,54  L 46,54  L 46,55  L 45,55  L 45,56  L 41,56  L 41,57  Z  " style="fill:rgb(0, 0, 0); fill-opacity:1.000; stroke:none;" />
 <path d="  M 67,131  L 67,130  L 68,130  L 68,131  L 69,131  L 69,130  L 87,130  L 87,129  L 88,129  L 88,130  L 89,130  L 89,129  L 90,129  L 90,130  L 91,130  L 91,129  L 103,129  L 103,128  L 104,128  L 104,129  L 106,129  L 106,128  L 108,128  L 108,127  L 109,127  L 109,121  L 108,121  L 108,120  L 102,120  L 102,121  L 92,121  L 92,122  L 91,122  L 91,121  L 89,121  L 89,122  L 68,122  L 68,123  L 67,123  L 67,122  L 65,122  L 65,123  L 63,123  L 63,122  L 62,122  L 62,123  L 50,123  L 50,124  L 49,124  L 49,123  L 48,123  L 48,124  L 47,124  L 47,123  L 44,123  L 44,119  L 43,119  L 43,113  L 42,113  L 42,107  L 41,107  L 41,99  L 40,99  L 40,85  L 39,85  L 39,84  L 35,84  L 35,86  L 34,86  L 34,87  L 33,87  L 33,93  L 34,93  L 34,95  L 33,95  L 33,96  L 34,96  L 34,104  L 35,104  L 35,109  L 36,109  L 36,110  L 35,110  L 35,111  L 36,111  L 36,116  L 37,116  L 37,124  L 38,124  L 38,126  L 39,126  L 39,129  L 40,129  L 40,130  L 42,130  L 42,131  Z  " style="fill:rgb(0, 0, 0); fill-opacity:1.000; stroke:none;" />
 <path d="  M 75,65  L 76,65  L 76,64  L 77,64  L 77,65  L 81,65  L 81,64  L 82,64  L 82,29  L 81,29  L 81,28  L 82,28  L 82,27  L 81,27  L 81,26  L 82,26  L 82,25  L 81,25  L 81,24  L 82,24  L 82,23  L 81,23  L 81,11  L 80,11  L 80,10  L 81,10  L 81,9  L 80,9  L 80,8  L 81,8  L 81,7  L 80,7  L 80,5  L 81,5  L 81,3  L 80,3  L 80,2  L 79,2  L 79,1  L 78,1  L 78,0  L 75,0  L 75,1  L 74,1  L 74,19  L 73,19  L 73,20  L 69,20  L 69,21  L 60,21  L 60,22  L 56,22  L 56,23  L 53,23  L 53,24  L 49,24  L 49,25  L 43,25  L 43,26  L 39,26  L 39,27  L 38,27  L 38,29  L 37,29  L 37,31  L 38,31  L 38,32  L 39,32  L 39,33  L 42,33  L 42,34  L 43,34  L 43,33  L 45,33  L 45,32  L 48,32  L 48,31  L 53,31  L 53,30  L 55,30  L 55,29  L 60,29  L 60,28  L 70,28  L 70,27  L 71,27  L 71,28  L 72,28  L 72,27  L 73,27  L 73,28  L 75,28  Z  " style="fill:rgb(0, 0, 0); fill-opacity:1.000; stroke:none;" />
 <path d="  M 98,2  L 97,2  L 97,1  L 95,1  L 95,0  L 92,0  L 92,1  L 90,1  L 90,50  L 91,50  L 91,51  L 90,51  L 90,54  L 91,54  L 91,55  L 90,55  L 90,58  L 91,58  L 91,60  L 90,60  L 90,62  L 91,62  L 91,64  L 90,64  L 90,66  L 91,66  L 91,69  L 90,69  L 90,70  L 91,70  L 91,71  L 92,71  L 92,72  L 93,72  L 93,73  L 97,73  L 97,72  L 98,72  Z  " style="fill:rgb(0, 0, 0); fill-opacity:1.000; stroke:none;" />
</svg>
