<?xml version="1.0" encoding="UTF-8" standalone="no"?>
<!DOCTYPE svg PUBLIC "-//W3C//DTD SVG 1.1//EN" 
  "http://www.w3.org/Graphics/SVG/1.1/DTD/svg11.dtd">
<svg width="106" height="155"
     xmlns="http://www.w3.org/2000/svg" version="1.1">
 <path d="  M 0,15  L 2,15  L 2,13  L 1,13  L 1,14  L 0,14  Z  " style="fill:rgb(0, 0, 0); fill-opacity:1.000; stroke:none;" />
 <path d="  M 35,15  L 35,14  L 41,14  L 41,13  L 44,13  L 44,14  L 45,14  L 45,13  L 52,13  L 52,12  L 54,12  L 54,9  L 55,9  L 55,7  L 54,7  L 54,6  L 53,6  L 53,5  L 52,5  L 52,6  L 45,6  L 45,7  L 36,7  L 36,8  L 26,8  L 26,9  L 23,9  L 23,8  L 22,8  L 22,9  L 19,9  L 19,8  L 18,8  L 18,9  L 15,9  L 15,8  L 9,8  L 9,9  L 8,9  L 8,10  L 6,10  L 6,11  L 5,11  L 5,12  L 4,12  L 4,15  L 5,15  L 5,18  L 6,18  L 6,19  L 5,19  L 5,20  L 6,20  L 6,23  L 5,23  L 5,24  L 6,24  L 6,45  L 7,45  L 7,53  L 8,53  L 8,61  L 9,61  L 9,64  L 10,64  L 10,65  L 11,65  L 11,67  L 13,67  L 13,69  L 33,69  L 33,68  L 38,68  L 38,67  L 46,67  L 46,66  L 51,66  L 51,65  L 53,65  L 53,63  L 54,63  L 54,60  L 53,60  L 53,59  L 51,59  L 51,58  L 46,58  L 46,59  L 42,59  L 42,60  L 38,60  L 38,61  L 33,61  L 33,62  L 28,62  L 28,63  L 19,63  L 19,62  L 17,62  L 17,61  L 16,61  L 16,57  L 15,57  L 15,50  L 14,50  L 14,40  L 13,40  L 13,28  L 12,28  L 12,26  L 13,26  L 13,24  L 12,24  L 12,18  L 13,18  L 13,16  L 25,16  L 25,15  Z  " style="fill:rgb(0, 0, 0); fill-opacity:1.000; stroke:none;" />
 <path d="  M 78,22  L 77,22  L 77,23  L 72,23  L 72,24  L 71,24  L 71,23  L 70,23  L 70,24  L 61,24  L 61,25  L 59,25  L 59,24  L 58,24  L 58,25  L 56,25  L 56,26  L 50,26  L 50,27  L 46,27  L 46,28  L 40,28  L 40,29  L 37,29  L 37,30  L 36,30  L 36,33  L 38,33  L 38,36  L 45,36  L 45,35  L 47,35  L 47,34  L 51,34  L 51,33  L 58,33  L 58,32  L 63,32  L 63,31  L 71,31  L 71,30  L 72,30  L 72,31  L 73,31  L 73,30  L 75,30  L 75,31  L 77,31  L 77,66  L 78,66  L 78,67  L 77,67  L 77,69  L 78,69  L 78,71  L 79,71  L 79,72  L 80,72  L 80,71  L 81,71  L 81,72  L 84,72  L 84,71  L 85,71  L 85,9  L 86,9  L 86,8  L 85,8  L 85,7  L 86,7  L 86,3  L 85,3  L 85,1  L 80,1  L 80,2  L 79,2  L 79,4  L 78,4  Z  " style="fill:rgb(0, 0, 0); fill-opacity:1.000; stroke:none;" />
 <path d="  M 47,100  L 47,97  L 48,97  L 48,96  L 47,96  L 47,88  L 46,88  L 46,87  L 42,87  L 42,88  L 41,88  L 41,90  L 40,90  L 40,97  L 41,97  L 41,98  L 40,98  L 40,101  L 41,101  L 41,102  L 40,102  L 40,103  L 41,103  L 41,104  L 40,104  L 40,105  L 41,105  L 41,108  L 40,108  L 40,109  L 41,109  L 41,110  L 40,110  L 40,111  L 41,111  L 41,121  L 42,121  L 42,124  L 41,124  L 41,125  L 42,125  L 42,131  L 43,131  L 43,137  L 44,137  L 44,139  L 43,139  L 43,140  L 44,140  L 44,146  L 45,146  L 45,148  L 46,148  L 46,149  L 47,149  L 47,152  L 48,152  L 48,153  L 49,153  L 49,155  L 51,155  L 51,154  L 52,154  L 52,155  L 60,155  L 60,154  L 65,154  L 65,153  L 67,153  L 67,152  L 71,152  L 71,151  L 74,151  L 74,150  L 76,150  L 76,149  L 81,149  L 81,148  L 83,148  L 83,147  L 85,147  L 85,146  L 86,146  L 86,145  L 87,145  L 87,143  L 88,143  L 88,141  L 89,141  L 89,131  L 90,131  L 90,127  L 91,127  L 91,122  L 92,122  L 92,92  L 91,92  L 91,90  L 86,90  L 86,91  L 85,91  L 85,92  L 84,92  L 84,95  L 85,95  L 85,117  L 86,117  L 86,119  L 85,119  L 85,120  L 84,120  L 84,121  L 79,121  L 79,120  L 78,120  L 78,121  L 75,121  L 75,120  L 74,120  L 74,121  L 71,121  L 71,120  L 70,120  L 70,121  L 67,121  L 67,120  L 66,120  L 66,121  L 63,121  L 63,120  L 62,120  L 62,121  L 59,121  L 59,120  L 58,120  L 58,121  L 55,121  L 55,120  L 54,120  L 54,121  L 48,121  L 48,110  L 47,110  L 47,109  L 48,109  L 48,106  L 47,106  L 47,105  L 48,105  L 48,103  L 47,103  L 47,101  L 48,101  L 48,100  Z  M 52,129  L 52,128  L 53,128  L 53,129  L 54,129  L 54,128  L 81,128  L 81,129  L 82,129  L 82,136  L 81,136  L 81,139  L 80,139  L 80,141  L 79,141  L 79,142  L 76,142  L 76,143  L 73,143  L 73,144  L 70,144  L 70,145  L 67,145  L 67,146  L 63,146  L 63,147  L 59,147  L 59,148  L 56,148  L 56,147  L 55,147  L 55,148  L 54,148  L 54,147  L 52,147  L 52,145  L 51,145  L 51,142  L 50,142  L 50,138  L 49,138  L 49,137  L 50,137  L 50,135  L 49,135  L 49,129  Z  " style="fill:rgb(0, 0, 0); fill-opacity:1.000; stroke:none;" />
 <path d="  M 99,84  L 101,84  L 101,85  L 102,85  L 102,84  L 104,84  L 104,83  L 105,83  L 105,81  L 106,81  L 106,5  L 105,5  L 105,4  L 104,4  L 104,3  L 100,3  L 100,4  L 98,4  L 98,9  L 99,9  L 99,10  L 98,10  L 98,11  L 99,11  Z  " style="fill:rgb(0, 0, 0); fill-opacity:1.000; stroke:none;" />
</svg>
