<?xml version="1.0" encoding="UTF-8" standalone="no"?>
<!DOCTYPE svg PUBLIC "-//W3C//DTD SVG 1.1//EN" 
  "http://www.w3.org/Graphics/SVG/1.1/DTD/svg11.dtd">
<svg width="108" height="177"
     xmlns="http://www.w3.org/2000/svg" version="1.1">
 <path d="  M 1,24  L 2,24  L 2,23  L 1,23  Z  " style="fill:rgb(0, 0, 0); fill-opacity:1.000; stroke:none;" />
 <path d="  M 29,23  L 29,22  L 35,22  L 35,21  L 42,21  L 42,20  L 47,20  L 47,19  L 52,19  L 52,18  L 61,18  L 61,19  L 62,19  L 62,18  L 64,18  L 64,13  L 63,13  L 63,12  L 62,12  L 62,11  L 61,11  L 61,10  L 60,10  L 60,9  L 59,9  L 59,8  L 55,8  L 55,9  L 50,9  L 50,10  L 48,10  L 48,11  L 46,11  L 46,12  L 42,12  L 42,13  L 37,13  L 37,14  L 35,14  L 35,13  L 34,13  L 34,14  L 31,14  L 31,15  L 23,15  L 23,16  L 10,16  L 10,17  L 8,17  L 8,18  L 7,18  L 7,19  L 6,19  L 6,20  L 5,20  L 5,21  L 4,21  L 4,25  L 5,25  L 5,26  L 6,26  L 6,30  L 7,30  L 7,31  L 6,31  L 6,34  L 7,34  L 7,35  L 6,35  L 6,36  L 7,36  L 7,45  L 8,45  L 8,54  L 9,54  L 9,62  L 10,62  L 10,63  L 9,63  L 9,64  L 10,64  L 10,76  L 11,76  L 11,81  L 12,81  L 12,82  L 13,82  L 13,83  L 14,83  L 14,84  L 15,84  L 15,85  L 16,85  L 16,86  L 19,86  L 19,87  L 25,87  L 25,86  L 34,86  L 34,85  L 42,85  L 42,84  L 51,84  L 51,83  L 55,83  L 55,82  L 57,82  L 57,81  L 58,81  L 58,80  L 60,80  L 60,79  L 61,79  L 61,78  L 62,78  L 62,74  L 61,74  L 61,73  L 60,73  L 60,74  L 59,74  L 59,73  L 57,73  L 57,74  L 53,74  L 53,75  L 50,75  L 50,76  L 45,76  L 45,77  L 37,77  L 37,78  L 31,78  L 31,79  L 30,79  L 30,78  L 29,78  L 29,79  L 22,79  L 22,78  L 20,78  L 20,77  L 19,77  L 19,76  L 18,76  L 18,73  L 17,73  L 17,70  L 18,70  L 18,69  L 17,69  L 17,61  L 16,61  L 16,51  L 15,51  L 15,50  L 16,50  L 16,47  L 15,47  L 15,40  L 14,40  L 14,25  L 15,25  L 15,24  L 18,24  L 18,23  Z  " style="fill:rgb(0, 0, 0); fill-opacity:1.000; stroke:none;" />
 <path d="  M 76,119  L 76,120  L 78,120  L 78,121  L 79,121  L 79,122  L 82,122  L 82,123  L 83,123  L 83,124  L 84,124  L 84,125  L 85,125  L 85,128  L 84,128  L 84,130  L 83,130  L 83,131  L 82,131  L 82,132  L 81,132  L 81,133  L 80,133  L 80,134  L 78,134  L 78,135  L 76,135  L 76,136  L 74,136  L 74,137  L 70,137  L 70,138  L 67,138  L 67,137  L 66,137  L 66,138  L 64,138  L 64,139  L 57,139  L 57,140  L 49,140  L 49,141  L 46,141  L 46,142  L 44,142  L 44,143  L 42,143  L 42,144  L 41,144  L 41,145  L 39,145  L 39,147  L 37,147  L 37,148  L 36,148  L 36,149  L 35,149  L 35,152  L 34,152  L 34,154  L 33,154  L 33,157  L 32,157  L 32,158  L 33,158  L 33,159  L 32,159  L 32,160  L 33,160  L 33,163  L 34,163  L 34,164  L 33,164  L 33,165  L 34,165  L 34,166  L 35,166  L 35,169  L 36,169  L 36,171  L 37,171  L 37,172  L 39,172  L 39,173  L 41,173  L 41,174  L 43,174  L 43,175  L 44,175  L 44,176  L 47,176  L 47,175  L 48,175  L 48,176  L 52,176  L 52,177  L 78,177  L 78,176  L 82,176  L 82,175  L 85,175  L 85,174  L 87,174  L 87,173  L 89,173  L 89,172  L 91,172  L 91,171  L 93,171  L 93,170  L 95,170  L 95,169  L 96,169  L 96,168  L 98,168  L 98,167  L 100,167  L 100,166  L 101,166  L 101,165  L 102,165  L 102,164  L 103,164  L 103,163  L 104,163  L 104,162  L 105,162  L 105,159  L 106,159  L 106,157  L 105,157  L 105,156  L 104,156  L 104,157  L 101,157  L 101,158  L 100,158  L 100,159  L 98,159  L 98,160  L 97,160  L 97,161  L 95,161  L 95,162  L 94,162  L 94,163  L 92,163  L 92,164  L 90,164  L 90,165  L 86,165  L 86,166  L 85,166  L 85,167  L 82,167  L 82,168  L 78,168  L 78,169  L 74,169  L 74,170  L 71,170  L 71,169  L 70,169  L 70,170  L 59,170  L 59,169  L 58,169  L 58,170  L 57,170  L 57,169  L 49,169  L 49,168  L 45,168  L 45,167  L 44,167  L 44,166  L 43,166  L 43,163  L 42,163  L 42,160  L 41,160  L 41,157  L 42,157  L 42,153  L 43,153  L 43,152  L 44,152  L 44,151  L 46,151  L 46,150  L 48,150  L 48,149  L 49,149  L 49,150  L 50,150  L 50,149  L 51,149  L 51,148  L 55,148  L 55,147  L 56,147  L 56,148  L 57,148  L 57,147  L 61,147  L 61,146  L 67,146  L 67,145  L 69,145  L 69,146  L 70,146  L 70,145  L 72,145  L 72,144  L 77,144  L 77,143  L 79,143  L 79,142  L 81,142  L 81,141  L 82,141  L 82,140  L 83,140  L 83,139  L 85,139  L 85,138  L 86,138  L 86,137  L 87,137  L 87,136  L 89,136  L 89,135  L 90,135  L 90,133  L 91,133  L 91,132  L 92,132  L 92,131  L 93,131  L 93,124  L 92,124  L 92,122  L 91,122  L 91,121  L 90,121  L 90,120  L 89,120  L 89,118  L 87,118  L 87,117  L 86,117  L 86,116  L 84,116  L 84,115  L 82,115  L 82,114  L 80,114  L 80,113  L 76,113  L 76,112  L 73,112  L 73,111  L 67,111  L 67,110  L 63,110  L 63,109  L 62,109  L 62,110  L 60,110  L 60,109  L 46,109  L 46,110  L 44,110  L 44,111  L 38,111  L 38,112  L 37,112  L 37,114  L 36,114  L 36,120  L 41,120  L 41,119  L 45,119  L 45,118  L 50,118  L 50,117  L 61,117  L 61,118  L 63,118  L 63,117  L 64,117  L 64,118  L 71,118  L 71,119  Z  " style="fill:rgb(0, 0, 0); fill-opacity:1.000; stroke:none;" />
 <path d="  M 74,24  L 74,25  L 73,25  L 73,24  L 67,24  L 67,25  L 65,25  L 65,26  L 64,26  L 64,27  L 63,27  L 63,28  L 61,28  L 61,30  L 59,30  L 59,31  L 58,31  L 58,33  L 66,33  L 66,32  L 67,32  L 67,33  L 68,33  L 68,32  L 99,32  L 99,34  L 100,34  L 100,35  L 99,35  L 99,41  L 98,41  L 98,43  L 85,43  L 85,44  L 79,44  L 79,45  L 73,45  L 73,46  L 72,46  L 72,45  L 71,45  L 71,46  L 68,46  L 68,47  L 65,47  L 65,48  L 63,48  L 63,49  L 61,49  L 61,51  L 60,51  L 60,54  L 65,54  L 65,53  L 71,53  L 71,52  L 77,52  L 77,51  L 82,51  L 82,50  L 99,50  L 99,52  L 100,52  L 100,53  L 99,53  L 99,54  L 100,54  L 100,60  L 99,60  L 99,63  L 100,63  L 100,64  L 99,64  L 99,75  L 100,75  L 100,76  L 99,76  L 99,77  L 100,77  L 100,80  L 99,80  L 99,81  L 100,81  L 100,87  L 99,87  L 99,89  L 100,89  L 100,92  L 99,92  L 99,93  L 100,93  L 100,96  L 99,96  L 99,97  L 100,97  L 100,99  L 99,99  L 99,101  L 100,101  L 100,103  L 105,103  L 105,102  L 106,102  L 106,101  L 107,101  L 107,100  L 106,100  L 106,99  L 107,99  L 107,93  L 108,93  L 108,89  L 107,89  L 107,88  L 108,88  L 108,5  L 107,5  L 107,2  L 106,2  L 106,1  L 105,1  L 105,0  L 101,0  L 101,1  L 100,1  L 100,9  L 101,9  L 101,11  L 100,11  L 100,12  L 101,12  L 101,15  L 100,15  L 100,16  L 101,16  L 101,24  L 96,24  L 96,25  L 95,25  L 95,24  L 94,24  L 94,25  L 91,25  L 91,24  L 90,24  L 90,25  L 89,25  L 89,24  L 88,24  L 88,25  L 84,25  L 84,24  L 83,24  L 83,25  L 81,25  L 81,24  L 78,24  L 78,25  L 77,25  L 77,24  Z  " style="fill:rgb(0, 0, 0); fill-opacity:1.000; stroke:none;" />
</svg>
