<?xml version="1.0" encoding="UTF-8" standalone="no"?>
<!DOCTYPE svg PUBLIC "-//W3C//DTD SVG 1.1//EN" 
  "http://www.w3.org/Graphics/SVG/1.1/DTD/svg11.dtd">
<svg width="107" height="152"
     xmlns="http://www.w3.org/2000/svg" version="1.1">
 <path d="  M 28,21  L 28,20  L 40,20  L 40,19  L 42,19  L 42,20  L 43,20  L 43,19  L 48,19  L 48,20  L 49,20  L 49,19  L 52,19  L 52,18  L 54,18  L 54,15  L 53,15  L 53,14  L 52,14  L 52,13  L 51,13  L 51,12  L 50,12  L 50,11  L 44,11  L 44,12  L 36,12  L 36,13  L 29,13  L 29,14  L 11,14  L 11,13  L 10,13  L 10,14  L 5,14  L 5,15  L 4,15  L 4,16  L 2,16  L 2,19  L 0,19  L 0,20  L 1,20  L 1,21  L 3,21  L 3,22  L 4,22  L 4,52  L 5,52  L 5,60  L 6,60  L 6,69  L 7,69  L 7,71  L 8,71  L 8,72  L 9,72  L 9,73  L 10,73  L 10,74  L 11,74  L 11,75  L 16,75  L 16,76  L 21,76  L 21,75  L 22,75  L 22,76  L 23,76  L 23,75  L 31,75  L 31,74  L 38,74  L 38,73  L 42,73  L 42,72  L 45,72  L 45,71  L 47,71  L 47,70  L 48,70  L 48,67  L 47,67  L 47,66  L 44,66  L 44,65  L 43,65  L 43,66  L 40,66  L 40,67  L 32,67  L 32,68  L 27,68  L 27,69  L 14,69  L 14,66  L 13,66  L 13,65  L 14,65  L 14,64  L 13,64  L 13,57  L 12,57  L 12,49  L 11,49  L 11,48  L 12,48  L 12,47  L 11,47  L 11,22  L 12,22  L 12,21  L 16,21  L 16,22  L 17,22  L 17,21  L 19,21  L 19,22  L 20,22  L 20,21  Z  " style="fill:rgb(0, 0, 0); fill-opacity:1.000; stroke:none;" />
 <path d="  M 37,126  L 39,126  L 39,127  L 40,127  L 40,126  L 41,126  L 41,127  L 44,127  L 44,128  L 47,128  L 47,129  L 48,129  L 48,130  L 50,130  L 50,132  L 52,132  L 52,133  L 54,133  L 54,134  L 56,134  L 56,132  L 57,132  L 57,128  L 56,128  L 56,127  L 54,127  L 54,126  L 53,126  L 53,125  L 50,125  L 50,124  L 49,124  L 49,123  L 47,123  L 47,122  L 45,122  L 45,121  L 41,121  L 41,120  L 40,120  L 40,119  L 37,119  L 37,118  L 36,118  L 36,117  L 34,117  L 34,115  L 32,115  L 32,113  L 33,113  L 33,111  L 34,111  L 34,109  L 35,109  L 35,108  L 36,108  L 36,106  L 37,106  L 37,104  L 39,104  L 39,102  L 40,102  L 40,101  L 41,101  L 41,98  L 42,98  L 42,97  L 41,97  L 41,96  L 42,96  L 42,95  L 41,95  L 41,94  L 40,94  L 40,93  L 36,93  L 36,94  L 37,94  L 37,95  L 36,95  L 36,98  L 35,98  L 35,101  L 34,101  L 34,102  L 33,102  L 33,103  L 32,103  L 32,104  L 31,104  L 31,106  L 30,106  L 30,108  L 29,108  L 29,109  L 28,109  L 28,111  L 27,111  L 27,112  L 26,112  L 26,114  L 25,114  L 25,115  L 24,115  L 24,117  L 23,117  L 23,119  L 22,119  L 22,120  L 21,120  L 21,121  L 20,121  L 20,122  L 19,122  L 19,123  L 18,123  L 18,124  L 17,124  L 17,126  L 15,126  L 15,128  L 14,128  L 14,129  L 13,129  L 13,130  L 12,130  L 12,131  L 11,131  L 11,133  L 10,133  L 10,134  L 9,134  L 9,136  L 8,136  L 8,137  L 7,137  L 7,140  L 8,140  L 8,141  L 10,141  L 10,142  L 11,142  L 11,141  L 13,141  L 13,140  L 14,140  L 14,137  L 15,137  L 15,136  L 16,136  L 16,135  L 17,135  L 17,133  L 18,133  L 18,132  L 19,132  L 19,131  L 20,131  L 20,130  L 21,130  L 21,128  L 23,128  L 23,127  L 24,127  L 24,126  L 25,126  L 25,125  L 26,125  L 26,124  L 27,124  L 27,122  L 28,122  L 28,121  L 29,121  L 29,122  L 31,122  L 31,123  L 33,123  L 33,124  L 35,124  L 35,125  L 37,125  Z  " style="fill:rgb(0, 0, 0); fill-opacity:1.000; stroke:none;" />
 <path d="  M 27,95  L 28,95  L 28,96  L 30,96  L 30,95  L 32,95  L 32,91  L 29,91  L 29,92  L 28,92  L 28,93  L 27,93  Z  " style="fill:rgb(0, 0, 0); fill-opacity:1.000; stroke:none;" />
 <path d="  M 42,47  L 42,50  L 45,50  L 45,49  L 46,49  L 46,47  Z  " style="fill:rgb(0, 0, 0); fill-opacity:1.000; stroke:none;" />
 <path d="  M 51,44  L 51,45  L 50,45  L 50,46  L 49,46  L 49,45  L 48,45  L 48,46  L 47,46  L 47,50  L 49,50  L 49,49  L 50,49  L 50,50  L 55,50  L 55,49  L 58,49  L 58,48  L 61,48  L 61,47  L 66,47  L 66,46  L 69,46  L 69,45  L 76,45  L 76,44  L 77,44  L 77,45  L 79,45  L 79,85  L 80,85  L 80,86  L 83,86  L 83,85  L 85,85  L 85,74  L 86,74  L 86,29  L 85,29  L 85,24  L 84,24  L 84,20  L 83,20  L 83,17  L 82,17  L 82,16  L 83,16  L 83,15  L 82,15  L 82,10  L 81,10  L 81,2  L 80,2  L 80,0  L 77,0  L 77,1  L 76,1  L 76,3  L 75,3  L 75,15  L 76,15  L 76,17  L 77,17  L 77,20  L 75,20  L 75,21  L 60,21  L 60,22  L 59,22  L 59,21  L 58,21  L 58,22  L 57,22  L 57,23  L 53,23  L 53,24  L 51,24  L 51,25  L 49,25  L 49,26  L 48,26  L 48,28  L 49,28  L 49,30  L 51,30  L 51,29  L 52,29  L 52,28  L 53,28  L 53,29  L 62,29  L 62,28  L 78,28  L 78,29  L 79,29  L 79,37  L 77,37  L 77,38  L 74,38  L 74,39  L 71,39  L 71,40  L 70,40  L 70,39  L 67,39  L 67,40  L 64,40  L 64,41  L 60,41  L 60,42  L 56,42  L 56,43  L 53,43  L 53,44  Z  " style="fill:rgb(0, 0, 0); fill-opacity:1.000; stroke:none;" />
 <path d="  M 49,151  L 50,151  L 50,152  L 54,152  L 54,151  L 55,151  L 55,150  L 56,150  L 56,148  L 57,148  L 57,145  L 58,145  L 58,144  L 59,144  L 59,142  L 60,142  L 60,141  L 61,141  L 61,140  L 63,140  L 63,139  L 64,139  L 64,138  L 65,138  L 65,136  L 66,136  L 66,134  L 67,134  L 67,133  L 68,133  L 68,131  L 69,131  L 69,129  L 70,129  L 70,126  L 71,126  L 71,125  L 72,125  L 72,124  L 75,124  L 75,125  L 76,125  L 76,127  L 78,127  L 78,128  L 80,128  L 80,129  L 83,129  L 83,130  L 84,130  L 84,131  L 86,131  L 86,132  L 88,132  L 88,133  L 89,133  L 89,134  L 90,134  L 90,135  L 92,135  L 92,136  L 93,136  L 93,137  L 95,137  L 95,138  L 97,138  L 97,139  L 99,139  L 99,140  L 100,140  L 100,141  L 101,141  L 101,142  L 102,142  L 102,143  L 104,143  L 104,142  L 107,142  L 107,137  L 106,137  L 106,136  L 105,136  L 105,135  L 104,135  L 104,134  L 103,134  L 103,133  L 100,133  L 100,132  L 97,132  L 97,131  L 96,131  L 96,130  L 94,130  L 94,129  L 93,129  L 93,128  L 91,128  L 91,127  L 89,127  L 89,126  L 88,126  L 88,125  L 86,125  L 86,124  L 85,124  L 85,123  L 83,123  L 83,122  L 82,122  L 82,121  L 80,121  L 80,120  L 79,120  L 79,119  L 78,119  L 78,117  L 77,117  L 77,116  L 76,116  L 76,113  L 77,113  L 77,110  L 78,110  L 78,108  L 79,108  L 79,104  L 80,104  L 80,100  L 81,100  L 81,99  L 80,99  L 80,97  L 75,97  L 75,98  L 74,98  L 74,101  L 73,101  L 73,103  L 72,103  L 72,107  L 71,107  L 71,109  L 70,109  L 70,113  L 69,113  L 69,115  L 68,115  L 68,117  L 67,117  L 67,119  L 66,119  L 66,123  L 65,123  L 65,126  L 64,126  L 64,127  L 63,127  L 63,131  L 62,131  L 62,133  L 61,133  L 61,135  L 60,135  L 60,136  L 59,136  L 59,137  L 55,137  L 55,138  L 54,138  L 54,139  L 53,139  L 53,141  L 52,141  L 52,142  L 51,142  L 51,144  L 50,144  L 50,146  L 49,146  Z  " style="fill:rgb(0, 0, 0); fill-opacity:1.000; stroke:none;" />
</svg>
