<?xml version="1.0" encoding="UTF-8" standalone="no"?>
<!DOCTYPE svg PUBLIC "-//W3C//DTD SVG 1.1//EN" 
  "http://www.w3.org/Graphics/SVG/1.1/DTD/svg11.dtd">
<svg width="102" height="186"
     xmlns="http://www.w3.org/2000/svg" version="1.1">
 <path d="  M 73,99  L 73,98  L 74,98  L 74,99  L 77,99  L 77,98  L 78,98  L 78,99  L 81,99  L 81,98  L 82,98  L 82,99  L 84,99  L 84,98  L 86,98  L 86,99  L 88,99  L 88,98  L 90,98  L 90,99  L 92,99  L 92,98  L 94,98  L 94,97  L 96,97  L 96,96  L 97,96  L 97,95  L 98,95  L 98,90  L 97,90  L 97,89  L 96,89  L 96,88  L 92,88  L 92,89  L 91,89  L 91,88  L 90,88  L 90,89  L 57,89  L 57,90  L 54,90  L 54,88  L 53,88  L 53,70  L 52,70  L 52,68  L 53,68  L 53,67  L 52,67  L 52,66  L 53,66  L 53,65  L 52,65  L 52,62  L 53,62  L 53,58  L 54,58  L 54,56  L 57,56  L 57,55  L 65,55  L 65,54  L 66,54  L 66,55  L 67,55  L 67,54  L 71,54  L 71,53  L 75,53  L 75,52  L 76,52  L 76,53  L 77,53  L 77,52  L 80,52  L 80,51  L 84,51  L 84,49  L 85,49  L 85,47  L 86,47  L 86,44  L 84,44  L 84,43  L 74,43  L 74,44  L 69,44  L 69,45  L 68,45  L 68,46  L 65,46  L 65,47  L 56,47  L 56,48  L 47,48  L 47,49  L 46,49  L 46,48  L 44,48  L 44,49  L 25,49  L 25,46  L 24,46  L 24,44  L 25,44  L 25,43  L 24,43  L 24,37  L 25,37  L 25,36  L 24,36  L 24,34  L 25,34  L 25,32  L 24,32  L 24,25  L 26,25  L 26,23  L 27,23  L 27,22  L 28,22  L 28,21  L 31,21  L 31,20  L 32,20  L 32,19  L 36,19  L 36,18  L 38,18  L 38,17  L 43,17  L 43,16  L 46,16  L 46,15  L 49,15  L 49,14  L 50,14  L 50,15  L 51,15  L 51,14  L 54,14  L 54,13  L 63,13  L 63,12  L 64,12  L 64,13  L 65,13  L 65,12  L 66,12  L 66,13  L 67,13  L 67,12  L 68,12  L 68,13  L 69,13  L 69,12  L 72,12  L 72,13  L 73,13  L 73,12  L 78,12  L 78,11  L 80,11  L 80,10  L 81,10  L 81,9  L 82,9  L 82,8  L 81,8  L 81,5  L 80,5  L 80,4  L 79,4  L 79,3  L 78,3  L 78,2  L 77,2  L 77,1  L 60,1  L 60,2  L 59,2  L 59,1  L 58,1  L 58,2  L 50,2  L 50,3  L 48,3  L 48,2  L 47,2  L 47,3  L 46,3  L 46,4  L 44,4  L 44,5  L 42,5  L 42,6  L 39,6  L 39,7  L 38,7  L 38,8  L 35,8  L 35,9  L 33,9  L 33,10  L 30,10  L 30,11  L 28,11  L 28,12  L 26,12  L 26,13  L 24,13  L 24,14  L 19,14  L 19,13  L 18,13  L 18,12  L 13,12  L 13,14  L 12,14  L 12,15  L 13,15  L 13,19  L 14,19  L 14,21  L 15,21  L 15,24  L 16,24  L 16,50  L 17,50  L 17,52  L 18,52  L 18,53  L 19,53  L 19,55  L 21,55  L 21,56  L 23,56  L 23,57  L 29,57  L 29,58  L 30,58  L 30,57  L 33,57  L 33,58  L 36,58  L 36,57  L 42,57  L 42,58  L 43,58  L 43,59  L 44,59  L 44,88  L 43,88  L 43,89  L 42,89  L 42,90  L 41,90  L 41,89  L 27,89  L 27,90  L 22,90  L 22,91  L 21,91  L 21,90  L 20,90  L 20,91  L 18,91  L 18,92  L 13,92  L 13,93  L 10,93  L 10,94  L 8,94  L 8,95  L 5,95  L 5,96  L 4,96  L 4,97  L 2,97  L 2,98  L 0,98  L 0,99  L 1,99  L 1,100  L 0,100  L 0,103  L 2,103  L 2,104  L 3,104  L 3,105  L 4,105  L 4,104  L 8,104  L 8,103  L 12,103  L 12,102  L 16,102  L 16,101  L 19,101  L 19,100  L 22,100  L 22,101  L 23,101  L 23,100  L 27,100  L 27,99  L 37,99  L 37,98  L 38,98  L 38,99  L 45,99  L 45,98  L 46,98  L 46,99  L 49,99  L 49,98  L 50,98  L 50,99  L 61,99  L 61,98  L 62,98  L 62,99  L 65,99  L 65,98  L 66,98  L 66,99  L 69,99  L 69,98  L 70,98  L 70,99  Z  " style="fill:rgb(0, 0, 0); fill-opacity:1.000; stroke:none;" />
 <path d="  M 100,175  L 100,174  L 102,174  L 102,169  L 101,169  L 101,168  L 95,168  L 95,169  L 91,169  L 91,170  L 88,170  L 88,171  L 85,171  L 85,172  L 80,172  L 80,173  L 77,173  L 77,174  L 72,174  L 72,175  L 69,175  L 69,176  L 66,176  L 66,175  L 65,175  L 65,176  L 60,176  L 60,177  L 55,177  L 55,178  L 52,178  L 52,177  L 51,177  L 51,178  L 44,178  L 44,177  L 43,177  L 43,178  L 41,178  L 41,177  L 39,177  L 39,178  L 38,178  L 38,177  L 37,177  L 37,176  L 36,176  L 36,177  L 33,177  L 33,176  L 27,176  L 27,175  L 25,175  L 25,174  L 23,174  L 23,173  L 22,173  L 22,172  L 21,172  L 21,161  L 22,161  L 22,160  L 23,160  L 23,158  L 26,158  L 26,159  L 30,159  L 30,160  L 31,160  L 31,159  L 33,159  L 33,160  L 40,160  L 40,161  L 41,161  L 41,160  L 44,160  L 44,161  L 45,161  L 45,160  L 51,160  L 51,159  L 52,159  L 52,160  L 55,160  L 55,159  L 58,159  L 58,158  L 59,158  L 59,157  L 62,157  L 62,156  L 63,156  L 63,155  L 66,155  L 66,153  L 67,153  L 67,151  L 68,151  L 68,148  L 67,148  L 67,147  L 66,147  L 66,146  L 59,146  L 59,147  L 57,147  L 57,148  L 55,148  L 55,149  L 51,149  L 51,150  L 46,150  L 46,151  L 37,151  L 37,152  L 34,152  L 34,151  L 33,151  L 33,152  L 32,152  L 32,151  L 18,151  L 18,153  L 17,153  L 17,154  L 16,154  L 16,155  L 15,155  L 15,156  L 14,156  L 14,170  L 15,170  L 15,171  L 16,171  L 16,173  L 17,173  L 17,174  L 18,174  L 18,175  L 17,175  L 17,176  L 18,176  L 18,178  L 19,178  L 19,180  L 20,180  L 20,181  L 21,181  L 21,182  L 23,182  L 23,183  L 25,183  L 25,184  L 26,184  L 26,185  L 33,185  L 33,186  L 57,186  L 57,185  L 58,185  L 58,186  L 59,186  L 59,185  L 65,185  L 65,184  L 71,184  L 71,183  L 74,183  L 74,182  L 75,182  L 75,183  L 76,183  L 76,182  L 79,182  L 79,181  L 81,181  L 81,180  L 84,180  L 84,179  L 88,179  L 88,178  L 91,178  L 91,177  L 93,177  L 93,176  L 95,176  L 95,175  Z  " style="fill:rgb(0, 0, 0); fill-opacity:1.000; stroke:none;" />
 <path d="  M 76,134  L 77,134  L 77,131  L 76,131  L 76,129  L 75,129  L 75,127  L 74,127  L 74,126  L 73,126  L 73,124  L 72,124  L 72,122  L 71,122  L 71,121  L 70,121  L 70,120  L 69,120  L 69,119  L 68,119  L 68,118  L 66,118  L 66,117  L 64,117  L 64,116  L 62,116  L 62,115  L 59,115  L 59,114  L 56,114  L 56,113  L 42,113  L 42,114  L 35,114  L 35,115  L 28,115  L 28,116  L 24,116  L 24,117  L 23,117  L 23,118  L 22,118  L 22,119  L 21,119  L 21,122  L 20,122  L 20,123  L 21,123  L 21,126  L 23,126  L 23,128  L 26,128  L 26,127  L 28,127  L 28,126  L 30,126  L 30,125  L 32,125  L 32,124  L 34,124  L 34,123  L 40,123  L 40,122  L 44,122  L 44,121  L 53,121  L 53,122  L 58,122  L 58,123  L 60,123  L 60,124  L 61,124  L 61,125  L 62,125  L 62,126  L 63,126  L 63,127  L 64,127  L 64,130  L 65,130  L 65,133  L 64,133  L 64,134  L 63,134  L 63,135  L 62,135  L 62,140  L 63,140  L 63,142  L 65,142  L 65,141  L 69,141  L 69,140  L 70,140  L 70,139  L 71,139  L 71,138  L 72,138  L 72,137  L 74,137  L 74,136  L 76,136  Z  " style="fill:rgb(0, 0, 0); fill-opacity:1.000; stroke:none;" />
</svg>
