<?xml version="1.0" encoding="UTF-8" standalone="no"?>
<!DOCTYPE svg PUBLIC "-//W3C//DTD SVG 1.1//EN" 
  "http://www.w3.org/Graphics/SVG/1.1/DTD/svg11.dtd">
<svg width="97" height="160"
     xmlns="http://www.w3.org/2000/svg" version="1.1">
 <path d="  M 96,69  L 96,68  L 89,68  L 89,69  L 73,69  L 73,70  L 72,70  L 72,69  L 69,69  L 69,70  L 68,70  L 68,69  L 66,69  L 66,70  L 64,70  L 64,69  L 63,69  L 63,70  L 51,70  L 51,44  L 52,44  L 52,43  L 60,43  L 60,42  L 65,42  L 65,41  L 68,41  L 68,40  L 71,40  L 71,39  L 72,39  L 72,38  L 73,38  L 73,36  L 74,36  L 74,32  L 72,32  L 72,31  L 69,31  L 69,32  L 67,32  L 67,33  L 65,33  L 65,34  L 63,34  L 63,35  L 61,35  L 61,36  L 56,36  L 56,37  L 50,37  L 50,38  L 41,38  L 41,39  L 25,39  L 25,37  L 24,37  L 24,32  L 23,32  L 23,22  L 24,22  L 24,21  L 23,21  L 23,20  L 24,20  L 24,15  L 25,15  L 25,13  L 26,13  L 26,12  L 28,12  L 28,11  L 56,11  L 56,10  L 57,10  L 57,11  L 58,11  L 58,10  L 67,10  L 67,9  L 69,9  L 69,8  L 70,8  L 70,7  L 71,7  L 71,2  L 70,2  L 70,1  L 64,1  L 64,2  L 61,2  L 61,3  L 54,3  L 54,4  L 53,4  L 53,3  L 51,3  L 51,4  L 47,4  L 47,5  L 46,5  L 46,4  L 43,4  L 43,5  L 41,5  L 41,4  L 40,4  L 40,5  L 37,5  L 37,4  L 36,4  L 36,5  L 22,5  L 22,4  L 21,4  L 21,5  L 18,5  L 18,6  L 17,6  L 17,5  L 16,5  L 16,6  L 15,6  L 15,5  L 9,5  L 9,6  L 7,6  L 7,7  L 6,7  L 6,10  L 5,10  L 5,11  L 6,11  L 6,12  L 7,12  L 7,13  L 9,13  L 9,14  L 11,14  L 11,13  L 13,13  L 13,12  L 16,12  L 16,11  L 17,11  L 17,37  L 18,37  L 18,40  L 19,40  L 19,42  L 20,42  L 20,43  L 21,43  L 21,44  L 23,44  L 23,45  L 25,45  L 25,46  L 26,46  L 26,45  L 27,45  L 27,46  L 28,46  L 28,45  L 29,45  L 29,46  L 32,46  L 32,45  L 33,45  L 33,46  L 34,46  L 34,45  L 37,45  L 37,46  L 39,46  L 39,45  L 43,45  L 43,46  L 44,46  L 44,71  L 31,71  L 31,72  L 20,72  L 20,73  L 15,73  L 15,74  L 14,74  L 14,73  L 13,73  L 13,74  L 9,74  L 9,75  L 4,75  L 4,76  L 1,76  L 1,77  L 0,77  L 0,81  L 2,81  L 2,82  L 8,82  L 8,81  L 14,81  L 14,80  L 19,80  L 19,79  L 27,79  L 27,78  L 34,78  L 34,77  L 43,77  L 43,76  L 63,76  L 63,75  L 66,75  L 66,76  L 67,76  L 67,75  L 70,75  L 70,76  L 71,76  L 71,75  L 94,75  L 94,76  L 95,76  L 95,75  L 97,75  L 97,69  Z  " style="fill:rgb(0, 0, 0); fill-opacity:1.000; stroke:none;" />
 <path d="  M 77,99  L 77,100  L 78,100  L 78,105  L 77,105  L 77,112  L 76,112  L 76,119  L 75,119  L 75,126  L 74,126  L 74,130  L 73,130  L 73,133  L 72,133  L 72,135  L 71,135  L 71,137  L 70,137  L 70,138  L 69,138  L 69,139  L 68,139  L 68,140  L 67,140  L 67,141  L 65,141  L 65,142  L 63,142  L 63,143  L 61,143  L 61,144  L 59,144  L 59,145  L 57,145  L 57,146  L 54,146  L 54,147  L 51,147  L 51,148  L 49,148  L 49,149  L 47,149  L 47,150  L 46,150  L 46,151  L 43,151  L 43,152  L 41,152  L 41,153  L 37,153  L 37,154  L 36,154  L 36,153  L 31,153  L 31,152  L 29,152  L 29,151  L 28,151  L 28,150  L 29,150  L 29,149  L 28,149  L 28,141  L 27,141  L 27,138  L 28,138  L 28,137  L 27,137  L 27,134  L 28,134  L 28,133  L 27,133  L 27,126  L 28,126  L 28,125  L 27,125  L 27,118  L 28,118  L 28,117  L 27,117  L 27,114  L 28,114  L 28,113  L 27,113  L 27,110  L 28,110  L 28,109  L 27,109  L 27,106  L 28,106  L 28,105  L 27,105  L 27,104  L 28,104  L 28,102  L 40,102  L 40,101  L 48,101  L 48,100  L 49,100  L 49,101  L 50,101  L 50,100  L 60,100  L 60,99  L 61,99  L 61,100  L 63,100  L 63,99  Z  M 67,148  L 67,147  L 69,147  L 69,146  L 71,146  L 71,145  L 74,145  L 74,144  L 75,144  L 75,143  L 76,143  L 76,141  L 77,141  L 77,138  L 78,138  L 78,135  L 79,135  L 79,132  L 80,132  L 80,129  L 81,129  L 81,125  L 82,125  L 82,118  L 83,118  L 83,110  L 84,110  L 84,105  L 85,105  L 85,97  L 84,97  L 84,96  L 83,96  L 83,94  L 80,94  L 80,93  L 78,93  L 78,92  L 77,92  L 77,93  L 76,93  L 76,92  L 71,92  L 71,93  L 55,93  L 55,94  L 46,94  L 46,95  L 29,95  L 29,94  L 27,94  L 27,93  L 24,93  L 24,92  L 23,92  L 23,93  L 22,93  L 22,94  L 21,94  L 21,95  L 19,95  L 19,96  L 15,96  L 15,97  L 14,97  L 14,98  L 13,98  L 13,99  L 11,99  L 11,102  L 13,102  L 13,104  L 17,104  L 17,103  L 20,103  L 20,148  L 21,148  L 21,151  L 22,151  L 22,153  L 24,153  L 24,154  L 25,154  L 25,155  L 26,155  L 26,156  L 27,156  L 27,158  L 28,158  L 28,159  L 29,159  L 29,160  L 40,160  L 40,159  L 44,159  L 44,158  L 46,158  L 46,157  L 48,157  L 48,156  L 50,156  L 50,155  L 53,155  L 53,154  L 55,154  L 55,153  L 56,153  L 56,152  L 58,152  L 58,151  L 60,151  L 60,150  L 61,150  L 61,149  L 63,149  L 63,148  Z  " style="fill:rgb(0, 0, 0); fill-opacity:1.000; stroke:none;" />
</svg>
