<?xml version="1.0" encoding="UTF-8" standalone="no"?>
<!DOCTYPE svg PUBLIC "-//W3C//DTD SVG 1.1//EN" 
  "http://www.w3.org/Graphics/SVG/1.1/DTD/svg11.dtd">
<svg width="99" height="160"
     xmlns="http://www.w3.org/2000/svg" version="1.1">
 <path d="  M 59,76  L 59,77  L 54,77  L 54,74  L 53,74  L 53,73  L 54,73  L 54,70  L 53,70  L 53,69  L 54,69  L 54,66  L 53,66  L 53,65  L 54,65  L 54,64  L 53,64  L 53,63  L 54,63  L 54,62  L 53,62  L 53,61  L 54,61  L 54,60  L 53,60  L 53,59  L 54,59  L 54,58  L 53,58  L 53,57  L 54,57  L 54,56  L 53,56  L 53,55  L 54,55  L 54,54  L 53,54  L 53,53  L 54,53  L 54,52  L 53,52  L 53,49  L 54,49  L 54,48  L 55,48  L 55,47  L 62,47  L 62,46  L 67,46  L 67,45  L 70,45  L 70,44  L 72,44  L 72,43  L 74,43  L 74,42  L 75,42  L 75,41  L 76,41  L 76,39  L 77,39  L 77,36  L 75,36  L 75,35  L 72,35  L 72,36  L 69,36  L 69,37  L 67,37  L 67,38  L 64,38  L 64,39  L 60,39  L 60,40  L 55,40  L 55,41  L 48,41  L 48,42  L 47,42  L 47,41  L 46,41  L 46,42  L 28,42  L 28,40  L 27,40  L 27,38  L 26,38  L 26,23  L 27,23  L 27,18  L 28,18  L 28,13  L 29,13  L 29,11  L 35,11  L 35,10  L 36,10  L 36,11  L 39,11  L 39,10  L 40,10  L 40,11  L 43,11  L 43,10  L 63,10  L 63,9  L 65,9  L 65,10  L 66,10  L 66,9  L 69,9  L 69,10  L 71,10  L 71,9  L 74,9  L 74,8  L 75,8  L 75,5  L 76,5  L 76,4  L 75,4  L 75,3  L 74,3  L 74,2  L 73,2  L 73,1  L 58,1  L 58,2  L 34,2  L 34,3  L 26,3  L 26,4  L 23,4  L 23,5  L 22,5  L 22,6  L 21,6  L 21,5  L 14,5  L 14,6  L 11,6  L 11,7  L 9,7  L 9,8  L 8,8  L 8,11  L 9,11  L 9,12  L 10,12  L 10,13  L 15,13  L 15,12  L 16,12  L 16,11  L 18,11  L 18,10  L 20,10  L 20,25  L 19,25  L 19,31  L 20,31  L 20,32  L 19,32  L 19,33  L 20,33  L 20,40  L 21,40  L 21,43  L 22,43  L 22,45  L 23,45  L 23,46  L 25,46  L 25,47  L 27,47  L 27,48  L 32,48  L 32,49  L 45,49  L 45,51  L 46,51  L 46,77  L 45,77  L 45,78  L 42,78  L 42,77  L 33,77  L 33,78  L 26,78  L 26,79  L 20,79  L 20,80  L 14,80  L 14,81  L 2,81  L 2,82  L 0,82  L 0,83  L 1,83  L 1,84  L 0,84  L 0,85  L 1,85  L 1,88  L 2,88  L 2,89  L 7,89  L 7,88  L 11,88  L 11,87  L 15,87  L 15,86  L 16,86  L 16,87  L 18,87  L 18,86  L 27,86  L 27,85  L 33,85  L 33,84  L 67,84  L 67,83  L 68,83  L 68,84  L 70,84  L 70,83  L 95,83  L 95,82  L 97,82  L 97,81  L 99,81  L 99,75  L 98,75  L 98,74  L 94,74  L 94,75  L 90,75  L 90,76  L 80,76  L 80,77  L 79,77  L 79,76  L 76,76  L 76,77  L 75,77  L 75,76  L 72,76  L 72,77  L 71,77  L 71,76  L 68,76  L 68,77  L 67,77  L 67,76  L 65,76  L 65,77  L 63,77  L 63,76  Z  " style="fill:rgb(0, 0, 0); fill-opacity:1.000; stroke:none;" />
 <path d="  M 79,120  L 79,119  L 78,119  L 78,117  L 77,117  L 77,116  L 75,116  L 75,114  L 74,114  L 74,113  L 73,113  L 73,112  L 71,112  L 71,111  L 70,111  L 70,110  L 68,110  L 68,109  L 65,109  L 65,108  L 62,108  L 62,107  L 59,107  L 59,106  L 57,106  L 57,105  L 56,105  L 56,104  L 54,104  L 54,103  L 52,103  L 52,102  L 45,102  L 45,103  L 42,103  L 42,104  L 39,104  L 39,105  L 38,105  L 38,106  L 37,106  L 37,107  L 35,107  L 35,108  L 34,108  L 34,109  L 33,109  L 33,110  L 32,110  L 32,111  L 30,111  L 30,113  L 29,113  L 29,114  L 28,114  L 28,116  L 27,116  L 27,117  L 26,117  L 26,118  L 25,118  L 25,120  L 24,120  L 24,121  L 23,121  L 23,123  L 22,123  L 22,124  L 21,124  L 21,125  L 20,125  L 20,127  L 19,127  L 19,130  L 18,130  L 18,134  L 17,134  L 17,144  L 18,144  L 18,147  L 19,147  L 19,150  L 20,150  L 20,151  L 21,151  L 21,153  L 23,153  L 23,155  L 25,155  L 25,156  L 27,156  L 27,158  L 30,158  L 30,159  L 33,159  L 33,160  L 63,160  L 63,159  L 66,159  L 66,158  L 68,158  L 68,157  L 70,157  L 70,155  L 71,155  L 71,154  L 72,154  L 72,153  L 73,153  L 73,152  L 74,152  L 74,151  L 75,151  L 75,149  L 76,149  L 76,147  L 77,147  L 77,145  L 78,145  L 78,143  L 79,143  L 79,140  L 80,140  L 80,136  L 81,136  L 81,122  L 80,122  L 80,120  Z  M 39,153  L 39,152  L 33,152  L 33,151  L 31,151  L 31,150  L 29,150  L 29,149  L 28,149  L 28,148  L 27,148  L 27,147  L 26,147  L 26,145  L 25,145  L 25,134  L 26,134  L 26,132  L 27,132  L 27,130  L 28,130  L 28,128  L 29,128  L 29,126  L 30,126  L 30,125  L 31,125  L 31,122  L 33,122  L 33,121  L 34,121  L 34,119  L 35,119  L 35,118  L 36,118  L 36,117  L 38,117  L 38,116  L 39,116  L 39,115  L 41,115  L 41,114  L 43,114  L 43,113  L 47,113  L 47,112  L 48,112  L 48,113  L 50,113  L 50,112  L 51,112  L 51,113  L 54,113  L 54,114  L 57,114  L 57,115  L 61,115  L 61,116  L 64,116  L 64,117  L 66,117  L 66,118  L 68,118  L 68,119  L 70,119  L 70,121  L 71,121  L 71,122  L 72,122  L 72,125  L 73,125  L 73,137  L 72,137  L 72,139  L 71,139  L 71,140  L 70,140  L 70,143  L 69,143  L 69,145  L 68,145  L 68,148  L 67,148  L 67,149  L 66,149  L 66,150  L 64,150  L 64,151  L 61,151  L 61,152  L 58,152  L 58,153  Z  " style="fill:rgb(0, 0, 0); fill-opacity:1.000; stroke:none;" />
</svg>
