<?xml version="1.0" encoding="UTF-8" standalone="no"?>
<!DOCTYPE svg PUBLIC "-//W3C//DTD SVG 1.1//EN" 
  "http://www.w3.org/Graphics/SVG/1.1/DTD/svg11.dtd">
<svg width="107" height="138"
     xmlns="http://www.w3.org/2000/svg" version="1.1">
 <path d="  M 60,63  L 59,63  L 59,62  L 52,62  L 52,63  L 47,63  L 47,64  L 44,64  L 44,65  L 38,65  L 38,66  L 36,66  L 36,46  L 37,46  L 37,45  L 41,45  L 41,44  L 49,44  L 49,43  L 51,43  L 51,44  L 52,44  L 52,43  L 58,43  L 58,41  L 59,41  L 59,40  L 58,40  L 58,38  L 57,38  L 57,37  L 56,37  L 56,36  L 52,36  L 52,37  L 48,37  L 48,38  L 40,38  L 40,39  L 31,39  L 31,40  L 23,40  L 23,41  L 16,41  L 16,40  L 15,40  L 15,35  L 14,35  L 14,34  L 15,34  L 15,31  L 14,31  L 14,30  L 15,30  L 15,27  L 14,27  L 14,26  L 15,26  L 15,16  L 16,16  L 16,13  L 18,13  L 18,12  L 21,12  L 21,11  L 33,11  L 33,10  L 34,10  L 34,11  L 35,11  L 35,10  L 41,10  L 41,9  L 46,9  L 46,8  L 49,8  L 49,7  L 50,7  L 50,6  L 52,6  L 52,5  L 53,5  L 53,1  L 52,1  L 52,0  L 48,0  L 48,1  L 45,1  L 45,2  L 40,2  L 40,3  L 32,3  L 32,4  L 29,4  L 29,3  L 28,3  L 28,4  L 15,4  L 15,5  L 14,5  L 14,6  L 12,6  L 12,7  L 8,7  L 8,8  L 4,8  L 4,9  L 2,9  L 2,11  L 0,11  L 0,13  L 1,13  L 1,14  L 7,14  L 7,13  L 8,13  L 8,14  L 9,14  L 9,15  L 10,15  L 10,16  L 9,16  L 9,23  L 8,23  L 8,24  L 9,24  L 9,26  L 8,26  L 8,37  L 9,37  L 9,39  L 8,39  L 8,40  L 9,40  L 9,44  L 10,44  L 10,46  L 12,46  L 12,47  L 13,47  L 13,46  L 14,46  L 14,47  L 28,47  L 28,46  L 29,46  L 29,47  L 31,47  L 31,49  L 30,49  L 30,67  L 29,67  L 29,68  L 28,68  L 28,67  L 27,67  L 27,68  L 22,68  L 22,69  L 18,69  L 18,70  L 17,70  L 17,69  L 16,69  L 16,70  L 11,70  L 11,71  L 3,71  L 3,73  L 2,73  L 2,78  L 5,78  L 5,77  L 8,77  L 8,76  L 11,76  L 11,75  L 17,75  L 17,74  L 20,74  L 20,73  L 28,73  L 28,72  L 33,72  L 33,71  L 34,71  L 34,72  L 36,72  L 36,71  L 41,71  L 41,70  L 47,70  L 47,69  L 55,69  L 55,68  L 58,68  L 58,67  L 60,67  Z  " style="fill:rgb(0, 0, 0); fill-opacity:1.000; stroke:none;" />
 <path d="  M 41,87  L 42,87  L 42,95  L 41,95  L 41,97  L 40,97  L 40,98  L 39,98  L 39,99  L 37,99  L 37,100  L 36,100  L 36,102  L 35,102  L 35,103  L 34,103  L 34,104  L 33,104  L 33,106  L 32,106  L 32,107  L 31,107  L 31,108  L 30,108  L 30,109  L 29,109  L 29,111  L 28,111  L 28,112  L 27,112  L 27,113  L 26,113  L 26,115  L 25,115  L 25,116  L 24,116  L 24,117  L 23,117  L 23,118  L 22,118  L 22,119  L 21,119  L 21,120  L 19,120  L 19,121  L 18,121  L 18,123  L 17,123  L 17,124  L 16,124  L 16,125  L 15,125  L 15,126  L 14,126  L 14,130  L 15,130  L 15,131  L 16,131  L 16,132  L 19,132  L 19,131  L 20,131  L 20,129  L 21,129  L 21,128  L 22,128  L 22,126  L 23,126  L 23,125  L 24,125  L 24,124  L 25,124  L 25,123  L 26,123  L 26,122  L 27,122  L 27,121  L 28,121  L 28,120  L 29,120  L 29,118  L 30,118  L 30,117  L 32,117  L 32,115  L 33,115  L 33,113  L 34,113  L 34,111  L 35,111  L 35,110  L 36,110  L 36,109  L 38,109  L 38,110  L 39,110  L 39,111  L 42,111  L 42,112  L 45,112  L 45,113  L 49,113  L 49,114  L 51,114  L 51,115  L 54,115  L 54,116  L 55,116  L 55,117  L 56,117  L 56,118  L 58,118  L 58,119  L 60,119  L 60,120  L 59,120  L 59,123  L 58,123  L 58,126  L 57,126  L 57,128  L 56,128  L 56,130  L 55,130  L 55,132  L 54,132  L 54,135  L 53,135  L 53,136  L 54,136  L 54,138  L 58,138  L 58,137  L 60,137  L 60,135  L 61,135  L 61,132  L 62,132  L 62,129  L 63,129  L 63,126  L 65,126  L 65,125  L 66,125  L 66,124  L 67,124  L 67,123  L 68,123  L 68,121  L 69,121  L 69,119  L 70,119  L 70,117  L 71,117  L 71,115  L 72,115  L 72,113  L 73,113  L 73,111  L 74,111  L 74,110  L 75,110  L 75,109  L 78,109  L 78,110  L 79,110  L 79,111  L 80,111  L 80,112  L 81,112  L 81,114  L 83,114  L 83,115  L 84,115  L 84,116  L 87,116  L 87,117  L 88,117  L 88,118  L 89,118  L 89,119  L 92,119  L 92,120  L 93,120  L 93,121  L 95,121  L 95,122  L 98,122  L 98,123  L 100,123  L 100,124  L 101,124  L 101,125  L 103,125  L 103,127  L 104,127  L 104,126  L 105,126  L 105,127  L 107,127  L 107,121  L 106,121  L 106,120  L 105,120  L 105,119  L 104,119  L 104,118  L 102,118  L 102,117  L 99,117  L 99,116  L 97,116  L 97,115  L 94,115  L 94,114  L 93,114  L 93,113  L 91,113  L 91,112  L 90,112  L 90,111  L 88,111  L 88,110  L 86,110  L 86,109  L 85,109  L 85,108  L 84,108  L 84,107  L 83,107  L 83,106  L 82,106  L 82,105  L 81,105  L 81,103  L 80,103  L 80,100  L 81,100  L 81,96  L 82,96  L 82,88  L 80,88  L 80,87  L 77,87  L 77,88  L 76,88  L 76,91  L 75,91  L 75,94  L 74,94  L 74,97  L 73,97  L 73,99  L 72,99  L 72,100  L 71,100  L 71,102  L 70,102  L 70,105  L 69,105  L 69,107  L 68,107  L 68,109  L 67,109  L 67,112  L 66,112  L 66,115  L 65,115  L 65,116  L 64,116  L 64,115  L 63,115  L 63,114  L 62,114  L 62,113  L 60,113  L 60,112  L 59,112  L 59,111  L 57,111  L 57,110  L 54,110  L 54,109  L 52,109  L 52,108  L 49,108  L 49,107  L 46,107  L 46,106  L 44,106  L 44,105  L 43,105  L 43,104  L 42,104  L 42,103  L 39,103  L 39,101  L 42,101  L 42,99  L 43,99  L 43,98  L 44,98  L 44,97  L 45,97  L 45,96  L 46,96  L 46,95  L 47,95  L 47,93  L 48,93  L 48,87  L 47,87  L 47,86  L 46,86  L 46,85  L 45,85  L 45,84  L 44,84  L 44,83  L 41,83  Z  " style="fill:rgb(0, 0, 0); fill-opacity:1.000; stroke:none;" />
 <path d="  M 29,88  L 29,89  L 30,89  L 30,90  L 31,90  L 31,91  L 35,91  L 35,90  L 36,90  L 36,89  L 37,89  L 37,88  L 38,88  L 38,86  L 40,86  L 40,85  L 39,85  L 39,84  L 40,84  L 40,83  L 32,83  L 32,84  L 31,84  L 31,85  L 29,85  L 29,86  L 28,86  L 28,88  Z  " style="fill:rgb(0, 0, 0); fill-opacity:1.000; stroke:none;" />
 <path d="  M 86,10  L 85,10  L 85,7  L 84,7  L 84,5  L 83,5  L 83,4  L 80,4  L 80,25  L 81,25  L 81,26  L 82,26  L 82,29  L 81,29  L 81,30  L 72,30  L 72,21  L 71,21  L 71,6  L 70,6  L 70,4  L 69,4  L 69,3  L 66,3  L 66,4  L 65,4  L 65,13  L 66,13  L 66,30  L 67,30  L 67,31  L 66,31  L 66,32  L 67,32  L 67,35  L 66,35  L 66,36  L 67,36  L 67,71  L 66,71  L 66,72  L 67,72  L 67,75  L 71,75  L 71,74  L 72,74  L 72,72  L 73,72  L 73,52  L 74,52  L 74,51  L 73,51  L 73,50  L 74,50  L 74,49  L 73,49  L 73,48  L 74,48  L 74,47  L 73,47  L 73,44  L 74,44  L 74,43  L 73,43  L 73,42  L 74,42  L 74,41  L 73,41  L 73,40  L 74,40  L 74,38  L 75,38  L 75,37  L 83,37  L 83,40  L 84,40  L 84,42  L 83,42  L 83,44  L 84,44  L 84,47  L 83,47  L 83,48  L 84,48  L 84,50  L 83,50  L 83,51  L 84,51  L 84,54  L 83,54  L 83,55  L 84,55  L 84,58  L 83,58  L 83,59  L 84,59  L 84,62  L 83,62  L 83,63  L 84,63  L 84,65  L 83,65  L 83,67  L 84,67  L 84,70  L 83,70  L 83,78  L 84,78  L 84,79  L 85,79  L 85,80  L 89,80  L 89,78  L 90,78  L 90,33  L 89,33  L 89,27  L 88,27  L 88,23  L 87,23  L 87,17  L 86,17  L 86,16  L 87,16  L 87,15  L 86,15  Z  M 82,30  L 82,29  L 83,29  L 83,30  Z  " style="fill:rgb(0, 0, 0); fill-opacity:1.000; stroke:none;" />
</svg>
