<?xml version="1.0" encoding="UTF-8" standalone="no"?>
<!DOCTYPE svg PUBLIC "-//W3C//DTD SVG 1.1//EN" 
  "http://www.w3.org/Graphics/SVG/1.1/DTD/svg11.dtd">
<svg width="103" height="173"
     xmlns="http://www.w3.org/2000/svg" version="1.1">
 <path d="  M 38,59  L 38,70  L 39,70  L 39,71  L 38,71  L 38,72  L 39,72  L 39,80  L 38,80  L 38,81  L 32,81  L 32,82  L 28,82  L 28,83  L 25,83  L 25,84  L 19,84  L 19,85  L 14,85  L 14,86  L 13,86  L 13,85  L 12,85  L 12,86  L 8,86  L 8,87  L 2,87  L 2,88  L 0,88  L 0,92  L 1,92  L 1,93  L 2,93  L 2,94  L 3,94  L 3,95  L 9,95  L 9,94  L 12,94  L 12,93  L 18,93  L 18,92  L 23,92  L 23,91  L 28,91  L 28,90  L 32,90  L 32,89  L 36,89  L 36,88  L 40,88  L 40,87  L 51,87  L 51,86  L 79,86  L 79,87  L 81,87  L 81,86  L 83,86  L 83,84  L 84,84  L 84,83  L 83,83  L 83,82  L 82,82  L 82,80  L 80,80  L 80,79  L 66,79  L 66,78  L 65,78  L 65,79  L 47,79  L 47,77  L 46,77  L 46,63  L 45,63  L 45,62  L 46,62  L 46,59  L 45,59  L 45,58  L 46,58  L 46,57  L 45,57  L 45,56  L 46,56  L 46,55  L 45,55  L 45,54  L 44,54  L 44,53  L 45,53  L 45,49  L 46,49  L 46,48  L 55,48  L 55,47  L 56,47  L 56,48  L 57,48  L 57,47  L 61,47  L 61,46  L 66,46  L 66,45  L 72,45  L 72,44  L 74,44  L 74,43  L 75,43  L 75,42  L 76,42  L 76,41  L 77,41  L 77,40  L 78,40  L 78,38  L 77,38  L 77,36  L 76,36  L 76,35  L 73,35  L 73,36  L 68,36  L 68,37  L 63,37  L 63,38  L 57,38  L 57,39  L 48,39  L 48,40  L 43,40  L 43,41  L 42,41  L 42,40  L 41,40  L 41,41  L 22,41  L 22,40  L 19,40  L 19,37  L 18,37  L 18,35  L 19,35  L 19,33  L 18,33  L 18,32  L 19,32  L 19,23  L 20,23  L 20,15  L 22,15  L 22,14  L 25,14  L 25,13  L 34,13  L 34,12  L 49,12  L 49,11  L 58,11  L 58,10  L 67,10  L 67,9  L 71,9  L 71,8  L 72,8  L 72,7  L 73,7  L 73,6  L 74,6  L 74,3  L 73,3  L 73,1  L 67,1  L 67,2  L 58,2  L 58,3  L 57,3  L 57,2  L 56,2  L 56,3  L 51,3  L 51,4  L 50,4  L 50,3  L 49,3  L 49,4  L 48,4  L 48,3  L 47,3  L 47,4  L 36,4  L 36,5  L 35,5  L 35,4  L 34,4  L 34,5  L 26,5  L 26,6  L 20,6  L 20,7  L 17,7  L 17,8  L 14,8  L 14,9  L 11,9  L 11,10  L 8,10  L 8,11  L 3,11  L 3,13  L 2,13  L 2,15  L 1,15  L 1,19  L 2,19  L 2,20  L 4,20  L 4,19  L 10,19  L 10,21  L 11,21  L 11,35  L 10,35  L 10,36  L 11,36  L 11,39  L 10,39  L 10,40  L 11,40  L 11,43  L 10,43  L 10,44  L 11,44  L 11,46  L 12,46  L 12,47  L 14,47  L 14,48  L 25,48  L 25,49  L 37,49  L 37,57  L 38,57  L 38,58  L 37,58  L 37,59  Z  " style="fill:rgb(0, 0, 0); fill-opacity:1.000; stroke:none;" />
 <path d="  M 74,119  L 75,119  L 75,120  L 76,120  L 76,122  L 78,122  L 78,124  L 77,124  L 77,126  L 74,126  L 74,127  L 72,127  L 72,129  L 70,129  L 70,132  L 69,132  L 69,133  L 68,133  L 68,135  L 66,135  L 66,136  L 65,136  L 65,137  L 62,137  L 62,138  L 60,138  L 60,139  L 56,139  L 56,140  L 55,140  L 55,141  L 51,141  L 51,142  L 47,142  L 47,143  L 46,143  L 46,144  L 43,144  L 43,145  L 42,145  L 42,146  L 41,146  L 41,147  L 40,147  L 40,148  L 39,148  L 39,149  L 37,149  L 37,150  L 36,150  L 36,151  L 35,151  L 35,155  L 34,155  L 34,156  L 35,156  L 35,158  L 36,158  L 36,160  L 37,160  L 37,163  L 38,163  L 38,165  L 39,165  L 39,167  L 40,167  L 40,168  L 42,168  L 42,169  L 43,169  L 43,170  L 45,170  L 45,171  L 46,171  L 46,172  L 48,172  L 48,173  L 69,173  L 69,172  L 72,172  L 72,171  L 75,171  L 75,170  L 78,170  L 78,169  L 80,169  L 80,168  L 81,168  L 81,167  L 83,167  L 83,166  L 85,166  L 85,165  L 88,165  L 88,164  L 89,164  L 89,163  L 91,163  L 91,162  L 93,162  L 93,161  L 94,161  L 94,160  L 96,160  L 96,159  L 98,159  L 98,158  L 100,158  L 100,157  L 101,157  L 101,156  L 102,156  L 102,155  L 103,155  L 103,149  L 100,149  L 100,150  L 97,150  L 97,151  L 94,151  L 94,152  L 93,152  L 93,153  L 91,153  L 91,154  L 90,154  L 90,155  L 88,155  L 88,156  L 87,156  L 87,157  L 85,157  L 85,158  L 84,158  L 84,159  L 82,159  L 82,160  L 80,160  L 80,161  L 76,161  L 76,163  L 72,163  L 72,164  L 71,164  L 71,165  L 70,165  L 70,164  L 69,164  L 69,165  L 64,165  L 64,166  L 61,166  L 61,165  L 60,165  L 60,166  L 57,166  L 57,165  L 56,165  L 56,166  L 54,166  L 54,165  L 48,165  L 48,164  L 45,164  L 45,163  L 44,163  L 44,161  L 43,161  L 43,160  L 42,160  L 42,154  L 43,154  L 43,152  L 45,152  L 45,151  L 47,151  L 47,150  L 51,150  L 51,149  L 53,149  L 53,148  L 57,148  L 57,147  L 61,147  L 61,146  L 64,146  L 64,145  L 65,145  L 65,144  L 68,144  L 68,143  L 70,143  L 70,142  L 71,142  L 71,141  L 72,141  L 72,140  L 74,140  L 74,138  L 75,138  L 75,137  L 76,137  L 76,135  L 77,135  L 77,134  L 79,134  L 79,133  L 80,133  L 80,132  L 83,132  L 83,131  L 84,131  L 84,130  L 85,130  L 85,129  L 86,129  L 86,128  L 87,128  L 87,127  L 88,127  L 88,121  L 87,121  L 87,119  L 86,119  L 86,118  L 85,118  L 85,117  L 84,117  L 84,116  L 83,116  L 83,114  L 82,114  L 82,113  L 80,113  L 80,112  L 78,112  L 78,111  L 75,111  L 75,110  L 73,110  L 73,109  L 70,109  L 70,108  L 67,108  L 67,107  L 66,107  L 66,108  L 65,108  L 65,107  L 59,107  L 59,106  L 58,106  L 58,107  L 57,107  L 57,106  L 50,106  L 50,107  L 45,107  L 45,108  L 41,108  L 41,109  L 39,109  L 39,111  L 38,111  L 38,116  L 39,116  L 39,117  L 46,117  L 46,116  L 49,116  L 49,115  L 50,115  L 50,116  L 51,116  L 51,115  L 63,115  L 63,116  L 69,116  L 69,117  L 72,117  L 72,118  L 74,118  Z  " style="fill:rgb(0, 0, 0); fill-opacity:1.000; stroke:none;" />
 <path d="  M 103,25  L 102,25  L 102,24  L 103,24  L 103,23  L 102,23  L 102,22  L 103,22  L 103,21  L 102,21  L 102,9  L 101,9  L 101,3  L 100,3  L 100,2  L 99,2  L 99,1  L 96,1  L 96,2  L 95,2  L 95,3  L 94,3  L 94,14  L 95,14  L 95,15  L 94,15  L 94,16  L 95,16  L 95,26  L 96,26  L 96,29  L 95,29  L 95,30  L 96,30  L 96,51  L 97,51  L 97,52  L 96,52  L 96,55  L 97,55  L 97,57  L 96,57  L 96,59  L 97,59  L 97,61  L 96,61  L 96,63  L 97,63  L 97,64  L 96,64  L 96,76  L 97,76  L 97,77  L 96,77  L 96,80  L 97,80  L 97,81  L 96,81  L 96,82  L 97,82  L 97,85  L 96,85  L 96,86  L 97,86  L 97,102  L 99,102  L 99,103  L 101,103  L 101,102  L 103,102  Z  " style="fill:rgb(0, 0, 0); fill-opacity:1.000; stroke:none;" />
</svg>
