<?xml version="1.0" encoding="UTF-8" standalone="no"?>
<!DOCTYPE svg PUBLIC "-//W3C//DTD SVG 1.1//EN" 
  "http://www.w3.org/Graphics/SVG/1.1/DTD/svg11.dtd">
<svg width="106" height="164"
     xmlns="http://www.w3.org/2000/svg" version="1.1">
 <path d="  M 56,83  L 56,84  L 57,84  L 57,83  L 67,83  L 67,82  L 68,82  L 68,83  L 69,83  L 69,82  L 75,82  L 75,81  L 78,81  L 78,80  L 79,80  L 79,79  L 82,79  L 82,78  L 83,78  L 83,77  L 84,77  L 84,74  L 85,74  L 85,68  L 84,68  L 84,70  L 82,70  L 82,71  L 80,71  L 80,72  L 79,72  L 79,73  L 77,73  L 77,74  L 72,74  L 72,75  L 65,75  L 65,76  L 56,76  L 56,77  L 48,77  L 48,71  L 47,71  L 47,68  L 48,68  L 48,67  L 47,67  L 47,66  L 48,66  L 48,63  L 47,63  L 47,62  L 48,62  L 48,61  L 47,61  L 47,50  L 55,50  L 55,49  L 56,49  L 56,50  L 57,50  L 57,49  L 65,49  L 65,48  L 68,48  L 68,47  L 73,47  L 73,46  L 77,46  L 77,45  L 78,45  L 78,44  L 79,44  L 79,43  L 80,43  L 80,39  L 79,39  L 79,38  L 78,38  L 78,37  L 76,37  L 76,38  L 73,38  L 73,39  L 71,39  L 71,40  L 68,40  L 68,41  L 65,41  L 65,42  L 63,42  L 63,41  L 62,41  L 62,42  L 59,42  L 59,43  L 44,43  L 44,44  L 43,44  L 43,43  L 41,43  L 41,44  L 31,44  L 31,43  L 28,43  L 28,44  L 25,44  L 25,43  L 20,43  L 20,42  L 18,42  L 18,40  L 17,40  L 17,24  L 18,24  L 18,20  L 19,20  L 19,15  L 20,15  L 20,14  L 23,14  L 23,13  L 27,13  L 27,12  L 37,12  L 37,11  L 38,11  L 38,12  L 39,12  L 39,11  L 42,11  L 42,12  L 43,12  L 43,11  L 58,11  L 58,10  L 64,10  L 64,9  L 73,9  L 73,8  L 74,8  L 74,6  L 75,6  L 75,3  L 74,3  L 74,2  L 73,2  L 73,1  L 71,1  L 71,0  L 70,0  L 70,1  L 65,1  L 65,2  L 58,2  L 58,3  L 56,3  L 56,2  L 55,2  L 55,3  L 45,3  L 45,4  L 44,4  L 44,3  L 41,3  L 41,4  L 30,4  L 30,5  L 21,5  L 21,6  L 16,6  L 16,7  L 13,7  L 13,8  L 9,8  L 9,9  L 8,9  L 8,8  L 6,8  L 6,9  L 4,9  L 4,10  L 1,10  L 1,11  L 0,11  L 0,14  L 1,14  L 1,16  L 4,16  L 4,17  L 7,17  L 7,18  L 10,18  L 10,47  L 11,47  L 11,48  L 13,48  L 13,49  L 17,49  L 17,50  L 28,50  L 28,51  L 31,51  L 31,50  L 32,50  L 32,51  L 35,51  L 35,50  L 36,50  L 36,51  L 39,51  L 39,52  L 40,52  L 40,65  L 41,65  L 41,67  L 40,67  L 40,68  L 41,68  L 41,75  L 40,75  L 40,79  L 39,79  L 39,80  L 35,80  L 35,81  L 26,81  L 26,82  L 20,82  L 20,83  L 16,83  L 16,84  L 12,84  L 12,85  L 7,85  L 7,86  L 4,86  L 4,87  L 2,87  L 2,88  L 1,88  L 1,89  L 2,89  L 2,90  L 1,90  L 1,91  L 2,91  L 2,93  L 3,93  L 3,94  L 7,94  L 7,93  L 9,93  L 9,92  L 10,92  L 10,91  L 13,91  L 13,90  L 18,90  L 18,89  L 20,89  L 20,90  L 21,90  L 21,89  L 29,89  L 29,88  L 32,88  L 32,87  L 37,87  L 37,86  L 43,86  L 43,85  L 47,85  L 47,84  L 55,84  L 55,83  Z  " style="fill:rgb(0, 0, 0); fill-opacity:1.000; stroke:none;" />
 <path d="  M 34,107  L 34,108  L 33,108  L 33,111  L 32,111  L 32,113  L 31,113  L 31,117  L 30,117  L 30,118  L 31,118  L 31,120  L 30,120  L 30,122  L 31,122  L 31,123  L 30,123  L 30,133  L 29,133  L 29,134  L 30,134  L 30,135  L 29,135  L 29,136  L 30,136  L 30,137  L 29,137  L 29,138  L 30,138  L 30,144  L 31,144  L 31,145  L 30,145  L 30,146  L 31,146  L 31,155  L 32,155  L 32,157  L 33,157  L 33,159  L 34,159  L 34,161  L 36,161  L 36,162  L 39,162  L 39,163  L 40,163  L 40,164  L 43,164  L 43,163  L 44,163  L 44,164  L 67,164  L 67,163  L 71,163  L 71,162  L 75,162  L 75,161  L 79,161  L 79,160  L 83,160  L 83,159  L 84,159  L 84,158  L 87,158  L 87,157  L 88,157  L 88,156  L 90,156  L 90,155  L 92,155  L 92,154  L 93,154  L 93,153  L 94,153  L 94,151  L 95,151  L 95,148  L 96,148  L 96,138  L 97,138  L 97,133  L 98,133  L 98,126  L 99,126  L 99,125  L 98,125  L 98,124  L 99,124  L 99,106  L 97,106  L 97,105  L 95,105  L 95,106  L 94,106  L 94,107  L 93,107  L 93,119  L 92,119  L 92,120  L 93,120  L 93,122  L 92,122  L 92,123  L 93,123  L 93,124  L 92,124  L 92,128  L 53,128  L 53,129  L 38,129  L 38,125  L 39,125  L 39,118  L 40,118  L 40,110  L 41,110  L 41,109  L 40,109  L 40,108  L 39,108  L 39,107  Z  M 54,157  L 54,158  L 53,158  L 53,157  L 52,157  L 52,158  L 51,158  L 51,157  L 50,157  L 50,158  L 49,158  L 49,157  L 42,157  L 42,156  L 41,156  L 41,155  L 40,155  L 40,154  L 39,154  L 39,151  L 38,151  L 38,143  L 37,143  L 37,142  L 38,142  L 38,139  L 39,139  L 39,138  L 40,138  L 40,137  L 43,137  L 43,136  L 53,136  L 53,135  L 54,135  L 54,136  L 55,136  L 55,135  L 88,135  L 88,136  L 89,136  L 89,138  L 90,138  L 90,139  L 89,139  L 89,146  L 88,146  L 88,149  L 87,149  L 87,150  L 86,150  L 86,151  L 84,151  L 84,152  L 82,152  L 82,153  L 78,153  L 78,154  L 75,154  L 75,155  L 72,155  L 72,156  L 67,156  L 67,157  Z  " style="fill:rgb(0, 0, 0); fill-opacity:1.000; stroke:none;" />
 <path d="  M 99,41  L 100,41  L 100,64  L 99,64  L 99,65  L 100,65  L 100,68  L 99,68  L 99,69  L 100,69  L 100,71  L 99,71  L 99,78  L 100,78  L 100,80  L 99,80  L 99,81  L 100,81  L 100,84  L 99,84  L 99,85  L 100,85  L 100,91  L 99,91  L 99,92  L 100,92  L 100,95  L 99,95  L 99,96  L 100,96  L 100,97  L 101,97  L 101,98  L 105,98  L 105,97  L 106,97  L 106,39  L 105,39  L 105,38  L 106,38  L 106,37  L 105,37  L 105,29  L 104,29  L 104,19  L 103,19  L 103,14  L 102,14  L 102,7  L 101,7  L 101,5  L 100,5  L 100,3  L 98,3  L 98,2  L 96,2  L 96,3  L 95,3  L 95,11  L 96,11  L 96,16  L 97,16  L 97,22  L 98,22  L 98,30  L 99,30  Z  " style="fill:rgb(0, 0, 0); fill-opacity:1.000; stroke:none;" />
</svg>
