<?xml version="1.0" encoding="UTF-8" standalone="no"?>
<!DOCTYPE svg PUBLIC "-//W3C//DTD SVG 1.1//EN" 
  "http://www.w3.org/Graphics/SVG/1.1/DTD/svg11.dtd">
<svg width="106" height="171"
     xmlns="http://www.w3.org/2000/svg" version="1.1">
 <path d="  M 9,75  L 9,74  L 12,74  L 12,75  L 13,75  L 13,74  L 16,74  L 16,73  L 17,73  L 17,74  L 18,74  L 18,73  L 19,73  L 19,74  L 20,74  L 20,73  L 21,73  L 21,74  L 22,74  L 22,73  L 37,73  L 37,72  L 53,72  L 53,71  L 55,71  L 55,72  L 57,72  L 57,80  L 56,80  L 56,97  L 55,97  L 55,98  L 56,98  L 56,101  L 55,101  L 55,102  L 56,102  L 56,108  L 55,108  L 55,109  L 52,109  L 52,108  L 49,108  L 49,109  L 44,109  L 44,110  L 43,110  L 43,111  L 37,111  L 37,112  L 36,112  L 36,111  L 35,111  L 35,112  L 31,112  L 31,113  L 29,113  L 29,116  L 28,116  L 28,117  L 29,117  L 29,119  L 30,119  L 30,120  L 32,120  L 32,121  L 34,121  L 34,120  L 38,120  L 38,119  L 42,119  L 42,118  L 49,118  L 49,117  L 50,117  L 50,118  L 51,118  L 51,117  L 53,117  L 53,116  L 56,116  L 56,115  L 57,115  L 57,114  L 61,114  L 61,113  L 62,113  L 62,114  L 64,114  L 64,113  L 65,113  L 65,114  L 68,114  L 68,115  L 69,115  L 69,116  L 71,116  L 71,118  L 73,118  L 73,119  L 75,119  L 75,120  L 77,120  L 77,121  L 78,121  L 78,122  L 79,122  L 79,124  L 77,124  L 77,125  L 75,125  L 75,126  L 73,126  L 73,130  L 72,130  L 72,131  L 71,131  L 71,132  L 69,132  L 69,133  L 67,133  L 67,135  L 66,135  L 66,136  L 64,136  L 64,137  L 59,137  L 59,138  L 55,138  L 55,139  L 45,139  L 45,140  L 44,140  L 44,139  L 41,139  L 41,140  L 40,140  L 40,139  L 26,139  L 26,140  L 25,140  L 25,141  L 24,141  L 24,142  L 23,142  L 23,143  L 22,143  L 22,145  L 21,145  L 21,157  L 22,157  L 22,159  L 23,159  L 23,161  L 24,161  L 24,163  L 25,163  L 25,165  L 26,165  L 26,166  L 27,166  L 27,167  L 29,167  L 29,168  L 30,168  L 30,169  L 34,169  L 34,170  L 39,170  L 39,171  L 63,171  L 63,170  L 65,170  L 65,171  L 66,171  L 66,170  L 75,170  L 75,169  L 79,169  L 79,168  L 82,168  L 82,167  L 86,167  L 86,166  L 91,166  L 91,165  L 94,165  L 94,164  L 97,164  L 97,163  L 99,163  L 99,162  L 102,162  L 102,161  L 104,161  L 104,160  L 105,160  L 105,157  L 104,157  L 104,156  L 102,156  L 102,155  L 101,155  L 101,156  L 99,156  L 99,157  L 96,157  L 96,158  L 91,158  L 91,159  L 85,159  L 85,160  L 82,160  L 82,161  L 78,161  L 78,162  L 76,162  L 76,161  L 75,161  L 75,162  L 71,162  L 71,163  L 59,163  L 59,164  L 56,164  L 56,163  L 55,163  L 55,164  L 48,164  L 48,163  L 47,163  L 47,164  L 44,164  L 44,163  L 37,163  L 37,162  L 36,162  L 36,161  L 32,161  L 32,160  L 31,160  L 31,159  L 30,159  L 30,158  L 29,158  L 29,154  L 28,154  L 28,151  L 29,151  L 29,148  L 30,148  L 30,147  L 33,147  L 33,146  L 35,146  L 35,147  L 43,147  L 43,148  L 44,148  L 44,147  L 47,147  L 47,148  L 48,148  L 48,147  L 49,147  L 49,148  L 50,148  L 50,147  L 51,147  L 51,148  L 52,148  L 52,147  L 53,147  L 53,148  L 57,148  L 57,147  L 59,147  L 59,148  L 60,148  L 60,147  L 62,147  L 62,146  L 65,146  L 65,145  L 67,145  L 67,144  L 70,144  L 70,142  L 72,142  L 72,141  L 73,141  L 73,140  L 74,140  L 74,139  L 75,139  L 75,138  L 77,138  L 77,135  L 78,135  L 78,134  L 79,134  L 79,133  L 80,133  L 80,132  L 81,132  L 81,131  L 85,131  L 85,130  L 84,130  L 84,129  L 85,129  L 85,128  L 86,128  L 86,127  L 87,127  L 87,121  L 86,121  L 86,118  L 85,118  L 85,116  L 84,116  L 84,115  L 83,115  L 83,113  L 82,113  L 82,112  L 81,112  L 81,111  L 79,111  L 79,109  L 77,109  L 77,108  L 75,108  L 75,107  L 72,107  L 72,106  L 71,106  L 71,105  L 65,105  L 65,102  L 64,102  L 64,94  L 65,94  L 65,93  L 64,93  L 64,90  L 65,90  L 65,88  L 64,88  L 64,86  L 65,86  L 65,83  L 64,83  L 64,82  L 65,82  L 65,79  L 64,79  L 64,78  L 65,78  L 65,72  L 66,72  L 66,71  L 84,71  L 84,70  L 85,70  L 85,71  L 86,71  L 86,70  L 94,70  L 94,69  L 98,69  L 98,68  L 100,68  L 100,69  L 101,69  L 101,68  L 104,68  L 104,67  L 106,67  L 106,60  L 105,60  L 105,59  L 103,59  L 103,58  L 101,58  L 101,57  L 96,57  L 96,58  L 95,58  L 95,59  L 92,59  L 92,61  L 90,61  L 90,62  L 89,62  L 89,61  L 88,61  L 88,62  L 87,62  L 87,61  L 86,61  L 86,62  L 82,62  L 82,63  L 76,63  L 76,64  L 75,64  L 75,63  L 74,63  L 74,64  L 63,64  L 63,65  L 62,65  L 62,64  L 59,64  L 59,65  L 54,65  L 54,66  L 51,66  L 51,65  L 50,65  L 50,66  L 49,66  L 49,65  L 48,65  L 48,66  L 47,66  L 47,65  L 46,65  L 46,66  L 43,66  L 43,65  L 42,65  L 42,66  L 41,66  L 41,65  L 40,65  L 40,66  L 39,66  L 39,65  L 38,65  L 38,66  L 37,66  L 37,65  L 34,65  L 34,66  L 33,66  L 33,65  L 22,65  L 22,66  L 21,66  L 21,65  L 18,65  L 18,66  L 4,66  L 4,67  L 1,67  L 1,68  L 0,68  L 0,71  L 1,71  L 1,72  L 2,72  L 2,74  L 4,74  L 4,75  Z  " style="fill:rgb(0, 0, 0); fill-opacity:1.000; stroke:none;" />
 <path d="  M 23,15  L 24,15  L 24,13  L 25,13  L 25,12  L 22,12  L 22,14  L 21,14  L 21,17  L 20,17  L 20,18  L 19,18  L 19,19  L 18,19  L 18,20  L 22,20  L 22,18  L 23,18  Z  " style="fill:rgb(0, 0, 0); fill-opacity:1.000; stroke:none;" />
 <path d="  M 47,8  L 47,9  L 39,9  L 39,10  L 33,10  L 33,11  L 32,11  L 32,12  L 28,12  L 28,13  L 27,13  L 27,40  L 28,40  L 28,41  L 27,41  L 27,42  L 28,42  L 28,43  L 29,43  L 29,46  L 30,46  L 30,47  L 31,47  L 31,48  L 32,48  L 32,49  L 34,49  L 34,50  L 56,50  L 56,49  L 57,49  L 57,50  L 58,50  L 58,49  L 65,49  L 65,48  L 72,48  L 72,47  L 79,47  L 79,46  L 84,46  L 84,45  L 86,45  L 86,44  L 89,44  L 89,43  L 90,43  L 90,41  L 91,41  L 91,39  L 92,39  L 92,36  L 87,36  L 87,37  L 84,37  L 84,38  L 82,38  L 82,39  L 78,39  L 78,40  L 72,40  L 72,41  L 65,41  L 65,42  L 56,42  L 56,43  L 38,43  L 38,42  L 35,42  L 35,37  L 34,37  L 34,35  L 35,35  L 35,20  L 36,20  L 36,19  L 39,19  L 39,18  L 46,18  L 46,17  L 53,17  L 53,16  L 60,16  L 60,15  L 66,15  L 66,14  L 72,14  L 72,13  L 73,13  L 73,14  L 74,14  L 74,13  L 79,13  L 79,12  L 83,12  L 83,11  L 85,11  L 85,10  L 88,10  L 88,9  L 90,9  L 90,4  L 89,4  L 89,3  L 88,3  L 88,2  L 87,2  L 87,1  L 80,1  L 80,2  L 77,2  L 77,3  L 75,3  L 75,4  L 71,4  L 71,5  L 59,5  L 59,6  L 55,6  L 55,7  L 52,7  L 52,8  Z  " style="fill:rgb(0, 0, 0); fill-opacity:1.000; stroke:none;" />
</svg>
