<?xml version="1.0" encoding="UTF-8" standalone="no"?>
<!DOCTYPE svg PUBLIC "-//W3C//DTD SVG 1.1//EN" 
  "http://www.w3.org/Graphics/SVG/1.1/DTD/svg11.dtd">
<svg width="105" height="126"
     xmlns="http://www.w3.org/2000/svg" version="1.1">
 <path d="  M 12,81  L 12,80  L 17,80  L 17,79  L 28,79  L 28,78  L 32,78  L 32,77  L 35,77  L 35,78  L 36,78  L 36,79  L 35,79  L 35,80  L 36,80  L 36,81  L 35,81  L 35,93  L 34,93  L 34,101  L 33,101  L 33,107  L 32,107  L 32,108  L 33,108  L 33,110  L 32,110  L 32,116  L 31,116  L 31,123  L 32,123  L 32,124  L 35,124  L 35,123  L 36,123  L 36,122  L 37,122  L 37,120  L 38,120  L 38,113  L 39,113  L 39,106  L 40,106  L 40,105  L 39,105  L 39,104  L 40,104  L 40,96  L 41,96  L 41,88  L 42,88  L 42,76  L 45,76  L 45,75  L 49,75  L 49,74  L 57,74  L 57,73  L 65,73  L 65,72  L 66,72  L 66,73  L 67,73  L 67,72  L 73,72  L 73,71  L 77,71  L 77,70  L 78,70  L 78,71  L 79,71  L 79,70  L 81,70  L 81,69  L 86,69  L 86,68  L 89,68  L 89,66  L 90,66  L 90,63  L 89,63  L 89,62  L 86,62  L 86,61  L 84,61  L 84,62  L 80,62  L 80,63  L 78,63  L 78,64  L 75,64  L 75,65  L 69,65  L 69,66  L 64,66  L 64,67  L 56,67  L 56,68  L 48,68  L 48,69  L 42,69  L 42,70  L 38,70  L 38,71  L 31,71  L 31,72  L 24,72  L 24,73  L 16,73  L 16,74  L 11,74  L 11,75  L 6,75  L 6,76  L 3,76  L 3,77  L 2,77  L 2,78  L 0,78  L 0,82  L 2,82  L 2,83  L 7,83  L 7,82  L 9,82  L 9,81  Z  " style="fill:rgb(0, 0, 0); fill-opacity:1.000; stroke:none;" />
 <path d="  M 25,21  L 25,20  L 29,20  L 29,19  L 33,19  L 33,18  L 38,18  L 38,17  L 41,17  L 41,16  L 47,16  L 47,15  L 52,15  L 52,14  L 62,14  L 62,13  L 67,13  L 67,12  L 68,12  L 68,10  L 69,10  L 69,6  L 63,6  L 63,7  L 54,7  L 54,8  L 53,8  L 53,7  L 52,7  L 52,8  L 48,8  L 48,9  L 44,9  L 44,10  L 39,10  L 39,11  L 36,11  L 36,12  L 32,12  L 32,13  L 31,13  L 31,12  L 29,12  L 29,13  L 26,13  L 26,14  L 23,14  L 23,15  L 19,15  L 19,16  L 10,16  L 10,17  L 7,17  L 7,18  L 6,18  L 6,20  L 7,20  L 7,36  L 8,36  L 8,37  L 7,37  L 7,38  L 8,38  L 8,48  L 9,48  L 9,52  L 10,52  L 10,57  L 11,57  L 11,59  L 12,59  L 12,60  L 15,60  L 15,61  L 23,61  L 23,60  L 34,60  L 34,59  L 40,59  L 40,58  L 45,58  L 45,57  L 46,57  L 46,58  L 47,58  L 47,57  L 53,57  L 53,56  L 61,56  L 61,55  L 66,55  L 66,54  L 73,54  L 73,53  L 76,53  L 76,50  L 77,50  L 77,49  L 76,49  L 76,48  L 75,48  L 75,46  L 73,46  L 73,45  L 72,45  L 72,46  L 70,46  L 70,47  L 68,47  L 68,48  L 65,48  L 65,49  L 60,49  L 60,50  L 55,50  L 55,51  L 44,51  L 44,52  L 40,52  L 40,53  L 39,53  L 39,52  L 38,52  L 38,53  L 31,53  L 31,54  L 25,54  L 25,55  L 24,55  L 24,54  L 23,54  L 23,55  L 18,55  L 18,53  L 17,53  L 17,50  L 16,50  L 16,47  L 15,47  L 15,39  L 14,39  L 14,25  L 15,25  L 15,23  L 16,23  L 16,22  L 20,22  L 20,21  Z  " style="fill:rgb(0, 0, 0); fill-opacity:1.000; stroke:none;" />
 <path d="  M 53,95  L 60,95  L 60,94  L 63,94  L 63,93  L 67,93  L 67,92  L 71,92  L 71,91  L 72,91  L 72,92  L 73,92  L 73,91  L 76,91  L 76,90  L 83,90  L 83,89  L 92,89  L 92,90  L 98,90  L 98,91  L 99,91  L 99,100  L 100,100  L 100,107  L 99,107  L 99,108  L 100,108  L 100,111  L 99,111  L 99,112  L 100,112  L 100,115  L 99,115  L 99,116  L 100,116  L 100,126  L 105,126  L 105,59  L 104,59  L 104,56  L 105,56  L 105,55  L 104,55  L 104,35  L 103,35  L 103,34  L 104,34  L 104,33  L 103,33  L 103,25  L 102,25  L 102,19  L 101,19  L 101,18  L 102,18  L 102,17  L 101,17  L 101,11  L 100,11  L 100,3  L 99,3  L 99,1  L 98,1  L 98,0  L 95,0  L 95,1  L 94,1  L 94,2  L 93,2  L 93,10  L 94,10  L 94,16  L 95,16  L 95,24  L 96,24  L 96,30  L 97,30  L 97,45  L 98,45  L 98,83  L 83,83  L 83,84  L 76,84  L 76,85  L 71,85  L 71,86  L 68,86  L 68,87  L 63,87  L 63,88  L 57,88  L 57,89  L 55,89  L 55,90  L 54,90  L 54,92  L 53,92  Z  " style="fill:rgb(0, 0, 0); fill-opacity:1.000; stroke:none;" />
</svg>
