<?xml version="1.0" encoding="UTF-8" standalone="no"?>
<!DOCTYPE svg PUBLIC "-//W3C//DTD SVG 1.1//EN" 
  "http://www.w3.org/Graphics/SVG/1.1/DTD/svg11.dtd">
<svg width="107" height="146"
     xmlns="http://www.w3.org/2000/svg" version="1.1">
 <path d="  M 14,61  L 14,60  L 18,60  L 18,59  L 25,59  L 25,58  L 27,58  L 27,59  L 28,59  L 28,58  L 33,58  L 33,63  L 32,63  L 32,64  L 33,64  L 33,66  L 32,66  L 32,79  L 31,79  L 31,86  L 32,86  L 32,87  L 33,87  L 33,88  L 34,88  L 34,86  L 35,86  L 35,85  L 36,85  L 36,83  L 37,83  L 37,77  L 38,77  L 38,58  L 39,58  L 39,57  L 43,57  L 43,56  L 49,56  L 49,55  L 53,55  L 53,54  L 58,54  L 58,53  L 61,53  L 61,52  L 66,52  L 66,51  L 69,51  L 69,50  L 73,50  L 73,49  L 76,49  L 76,48  L 77,48  L 77,49  L 78,49  L 78,56  L 77,56  L 77,58  L 76,58  L 76,59  L 72,59  L 72,60  L 69,60  L 69,61  L 64,61  L 64,62  L 61,62  L 61,63  L 59,63  L 59,64  L 57,64  L 57,65  L 53,65  L 53,66  L 51,66  L 51,67  L 49,67  L 49,68  L 48,68  L 48,72  L 52,72  L 52,71  L 55,71  L 55,70  L 60,70  L 60,69  L 67,69  L 67,68  L 69,68  L 69,67  L 76,67  L 76,66  L 78,66  L 78,67  L 79,67  L 79,66  L 80,66  L 80,70  L 79,70  L 79,71  L 80,71  L 80,72  L 79,72  L 79,73  L 80,73  L 80,81  L 81,81  L 81,82  L 80,82  L 80,93  L 78,93  L 78,94  L 77,94  L 77,95  L 76,95  L 76,96  L 75,96  L 75,99  L 74,99  L 74,101  L 73,101  L 73,104  L 72,104  L 72,108  L 71,108  L 71,111  L 70,111  L 70,113  L 69,113  L 69,116  L 68,116  L 68,118  L 67,118  L 67,120  L 66,120  L 66,122  L 65,122  L 65,124  L 64,124  L 64,126  L 63,126  L 63,128  L 62,128  L 62,130  L 61,130  L 61,131  L 60,131  L 60,132  L 58,132  L 58,133  L 57,133  L 57,135  L 56,135  L 56,137  L 55,137  L 55,140  L 54,140  L 54,145  L 55,145  L 55,146  L 59,146  L 59,145  L 60,145  L 60,143  L 61,143  L 61,140  L 62,140  L 62,138  L 63,138  L 63,137  L 64,137  L 64,136  L 65,136  L 65,133  L 66,133  L 66,132  L 67,132  L 67,131  L 68,131  L 68,129  L 69,129  L 69,127  L 70,127  L 70,125  L 71,125  L 71,123  L 72,123  L 72,121  L 73,121  L 73,119  L 74,119  L 74,118  L 75,118  L 75,119  L 76,119  L 76,120  L 78,120  L 78,121  L 79,121  L 79,122  L 80,122  L 80,123  L 81,123  L 81,124  L 84,124  L 84,125  L 86,125  L 86,126  L 88,126  L 88,127  L 89,127  L 89,128  L 92,128  L 92,129  L 93,129  L 93,130  L 94,130  L 94,131  L 96,131  L 96,132  L 97,132  L 97,133  L 98,133  L 98,134  L 99,134  L 99,135  L 100,135  L 100,136  L 102,136  L 102,138  L 103,138  L 103,141  L 104,141  L 104,142  L 105,142  L 105,143  L 106,143  L 106,142  L 107,142  L 107,132  L 106,132  L 106,131  L 105,131  L 105,130  L 104,130  L 104,129  L 102,129  L 102,128  L 100,128  L 100,127  L 99,127  L 99,126  L 98,126  L 98,125  L 96,125  L 96,124  L 94,124  L 94,123  L 93,123  L 93,122  L 91,122  L 91,121  L 89,121  L 89,120  L 88,120  L 88,119  L 87,119  L 87,118  L 85,118  L 85,117  L 83,117  L 83,116  L 82,116  L 82,114  L 81,114  L 81,112  L 80,112  L 80,110  L 79,110  L 79,107  L 80,107  L 80,105  L 81,105  L 81,96  L 82,96  L 82,95  L 83,95  L 83,94  L 84,94  L 84,93  L 85,93  L 85,91  L 86,91  L 86,89  L 87,89  L 87,78  L 86,78  L 86,65  L 85,65  L 85,50  L 84,50  L 84,49  L 85,49  L 85,48  L 84,48  L 84,43  L 83,43  L 83,28  L 82,28  L 82,20  L 81,20  L 81,14  L 80,14  L 80,13  L 81,13  L 81,12  L 80,12  L 80,10  L 79,10  L 79,9  L 76,9  L 76,10  L 75,10  L 75,12  L 74,12  L 74,18  L 75,18  L 75,26  L 76,26  L 76,40  L 72,40  L 72,41  L 70,41  L 70,42  L 69,42  L 69,43  L 68,43  L 68,44  L 65,44  L 65,45  L 63,45  L 63,46  L 61,46  L 61,47  L 58,47  L 58,48  L 53,48  L 53,49  L 46,49  L 46,50  L 38,50  L 38,51  L 31,51  L 31,52  L 22,52  L 22,53  L 19,53  L 19,54  L 13,54  L 13,55  L 10,55  L 10,56  L 7,56  L 7,57  L 4,57  L 4,58  L 1,58  L 1,62  L 0,62  L 0,63  L 3,63  L 3,64  L 5,64  L 5,63  L 7,63  L 7,62  L 9,62  L 9,61  Z  " style="fill:rgb(0, 0, 0); fill-opacity:1.000; stroke:none;" />
 <path d="  M 56,10  L 56,9  L 59,9  L 59,7  L 60,7  L 60,6  L 59,6  L 59,4  L 58,4  L 58,2  L 57,2  L 57,1  L 50,1  L 50,2  L 41,2  L 41,3  L 30,3  L 30,4  L 16,4  L 16,5  L 14,5  L 14,6  L 12,6  L 12,8  L 10,8  L 10,9  L 4,9  L 4,10  L 3,10  L 3,11  L 2,11  L 2,13  L 3,13  L 3,14  L 9,14  L 9,15  L 10,15  L 10,22  L 9,22  L 9,23  L 10,23  L 10,24  L 9,24  L 9,25  L 10,25  L 10,34  L 11,34  L 11,35  L 12,35  L 12,36  L 13,36  L 13,37  L 15,37  L 15,38  L 18,38  L 18,39  L 39,39  L 39,38  L 40,38  L 40,39  L 41,39  L 41,38  L 47,38  L 47,37  L 51,37  L 51,36  L 55,36  L 55,35  L 60,35  L 60,34  L 63,34  L 63,33  L 64,33  L 64,32  L 65,32  L 65,31  L 66,31  L 66,27  L 64,27  L 64,26  L 63,26  L 63,27  L 59,27  L 59,28  L 56,28  L 56,29  L 52,29  L 52,30  L 48,30  L 48,31  L 42,31  L 42,32  L 30,32  L 30,33  L 27,33  L 27,32  L 26,32  L 26,33  L 18,33  L 18,32  L 17,32  L 17,28  L 16,28  L 16,27  L 17,27  L 17,26  L 16,26  L 16,25  L 17,25  L 17,24  L 16,24  L 16,23  L 17,23  L 17,16  L 18,16  L 18,13  L 19,13  L 19,12  L 21,12  L 21,11  L 31,11  L 31,10  L 32,10  L 32,11  L 33,11  L 33,10  L 34,10  L 34,11  L 35,11  L 35,10  L 48,10  L 48,9  L 50,9  L 50,10  L 51,10  L 51,9  L 55,9  L 55,10  Z  " style="fill:rgb(0, 0, 0); fill-opacity:1.000; stroke:none;" />
 <path d="  M 37,101  L 38,101  L 38,102  L 39,102  L 39,104  L 38,104  L 38,105  L 39,105  L 39,108  L 37,108  L 37,109  L 35,109  L 35,110  L 33,110  L 33,112  L 32,112  L 32,113  L 31,113  L 31,114  L 30,114  L 30,115  L 29,115  L 29,116  L 28,116  L 28,117  L 27,117  L 27,118  L 26,118  L 26,119  L 25,119  L 25,121  L 24,121  L 24,122  L 23,122  L 23,123  L 22,123  L 22,124  L 21,124  L 21,126  L 20,126  L 20,128  L 18,128  L 18,129  L 17,129  L 17,130  L 16,130  L 16,131  L 15,131  L 15,132  L 14,132  L 14,133  L 13,133  L 13,138  L 14,138  L 14,139  L 15,139  L 15,140  L 19,140  L 19,138  L 20,138  L 20,136  L 21,136  L 21,134  L 22,134  L 22,133  L 23,133  L 23,131  L 24,131  L 24,130  L 25,130  L 25,129  L 26,129  L 26,128  L 27,128  L 27,126  L 28,126  L 28,125  L 29,125  L 29,124  L 30,124  L 30,123  L 31,123  L 31,122  L 32,122  L 32,120  L 33,120  L 33,118  L 34,118  L 34,117  L 35,117  L 35,116  L 40,116  L 40,117  L 43,117  L 43,118  L 45,118  L 45,119  L 47,119  L 47,120  L 49,120  L 49,121  L 51,121  L 51,122  L 52,122  L 52,123  L 53,123  L 53,124  L 55,124  L 55,126  L 57,126  L 57,127  L 59,127  L 59,126  L 61,126  L 61,122  L 60,122  L 60,121  L 59,121  L 59,120  L 57,120  L 57,119  L 56,119  L 56,118  L 54,118  L 54,117  L 52,117  L 52,116  L 51,116  L 51,115  L 49,115  L 49,114  L 47,114  L 47,113  L 45,113  L 45,112  L 44,112  L 44,110  L 43,110  L 43,108  L 44,108  L 44,107  L 45,107  L 45,105  L 46,105  L 46,104  L 47,104  L 47,103  L 48,103  L 48,101  L 49,101  L 49,99  L 50,99  L 50,98  L 48,98  L 48,97  L 47,97  L 47,96  L 42,96  L 42,95  L 40,95  L 40,96  L 37,96  L 37,95  L 36,95  L 36,96  L 29,96  L 29,97  L 27,97  L 27,99  L 26,99  L 26,100  L 27,100  L 27,101  L 30,101  L 30,102  L 31,102  L 31,103  L 32,103  L 32,104  L 33,104  L 33,103  L 36,103  L 36,102  L 37,102  Z  " style="fill:rgb(0, 0, 0); fill-opacity:1.000; stroke:none;" />
</svg>
