<?xml version="1.0" encoding="UTF-8" standalone="no"?>
<!DOCTYPE svg PUBLIC "-//W3C//DTD SVG 1.1//EN" 
  "http://www.w3.org/Graphics/SVG/1.1/DTD/svg11.dtd">
<svg width="104" height="144"
     xmlns="http://www.w3.org/2000/svg" version="1.1">
 <path d="  M 43,2  L 43,3  L 42,3  L 42,2  L 39,2  L 39,3  L 38,3  L 38,2  L 37,2  L 37,3  L 34,3  L 34,2  L 33,2  L 33,3  L 21,3  L 21,4  L 16,4  L 16,5  L 13,5  L 13,6  L 12,6  L 12,7  L 9,7  L 9,8  L 3,8  L 3,9  L 1,9  L 1,12  L 3,12  L 3,13  L 8,13  L 8,14  L 9,14  L 9,33  L 10,33  L 10,35  L 9,35  L 9,36  L 10,36  L 10,39  L 11,39  L 11,41  L 12,41  L 12,43  L 14,43  L 14,44  L 16,44  L 16,45  L 22,45  L 22,46  L 42,46  L 42,45  L 43,45  L 43,46  L 44,46  L 44,45  L 53,45  L 53,44  L 58,44  L 58,43  L 64,43  L 64,42  L 67,42  L 67,41  L 70,41  L 70,40  L 73,40  L 73,39  L 74,39  L 74,38  L 75,38  L 75,37  L 76,37  L 76,32  L 74,32  L 74,31  L 72,31  L 72,32  L 71,32  L 71,33  L 68,33  L 68,34  L 65,34  L 65,35  L 63,35  L 63,36  L 62,36  L 62,35  L 61,35  L 61,36  L 60,36  L 60,37  L 55,37  L 55,38  L 47,38  L 47,39  L 19,39  L 19,38  L 18,38  L 18,37  L 17,37  L 17,31  L 16,31  L 16,30  L 17,30  L 17,29  L 16,29  L 16,28  L 17,28  L 17,27  L 16,27  L 16,20  L 17,20  L 17,14  L 18,14  L 18,12  L 22,12  L 22,11  L 28,11  L 28,10  L 54,10  L 54,9  L 66,9  L 66,8  L 67,8  L 67,6  L 68,6  L 68,3  L 67,3  L 67,2  L 66,2  L 66,0  L 63,0  L 63,1  L 57,1  L 57,2  Z  " style="fill:rgb(0, 0, 0); fill-opacity:1.000; stroke:none;" />
 <path d="  M 100,49  L 100,37  L 99,37  L 99,32  L 98,32  L 98,30  L 99,30  L 99,29  L 98,29  L 98,25  L 97,25  L 97,19  L 96,19  L 96,13  L 95,13  L 95,12  L 96,12  L 96,11  L 95,11  L 95,6  L 94,6  L 94,3  L 93,3  L 93,1  L 92,1  L 92,0  L 90,0  L 90,1  L 89,1  L 89,2  L 88,2  L 88,7  L 89,7  L 89,14  L 90,14  L 90,20  L 91,20  L 91,26  L 92,26  L 92,27  L 91,27  L 91,28  L 92,28  L 92,32  L 93,32  L 93,42  L 94,42  L 94,51  L 93,51  L 93,52  L 91,52  L 91,51  L 89,51  L 89,50  L 88,50  L 88,49  L 86,49  L 86,48  L 85,48  L 85,47  L 80,47  L 80,48  L 79,48  L 79,49  L 77,49  L 77,50  L 75,50  L 75,51  L 72,51  L 72,52  L 68,52  L 68,53  L 64,53  L 64,54  L 63,54  L 63,53  L 62,53  L 62,54  L 57,54  L 57,55  L 53,55  L 53,56  L 45,56  L 45,57  L 42,57  L 42,56  L 41,56  L 41,57  L 38,57  L 38,58  L 35,58  L 35,59  L 31,59  L 31,60  L 30,60  L 30,59  L 29,59  L 29,60  L 26,60  L 26,61  L 21,61  L 21,62  L 18,62  L 18,63  L 12,63  L 12,64  L 7,64  L 7,65  L 6,65  L 6,64  L 5,64  L 5,65  L 3,65  L 3,66  L 1,66  L 1,68  L 2,68  L 2,69  L 3,69  L 3,72  L 7,72  L 7,71  L 10,71  L 10,70  L 13,70  L 13,69  L 18,69  L 18,68  L 22,68  L 22,67  L 26,67  L 26,66  L 32,66  L 32,65  L 36,65  L 36,64  L 40,64  L 40,80  L 41,80  L 41,81  L 40,81  L 40,88  L 41,88  L 41,90  L 42,90  L 42,92  L 48,92  L 48,91  L 47,91  L 47,90  L 48,90  L 48,86  L 47,86  L 47,73  L 46,73  L 46,72  L 47,72  L 47,71  L 46,71  L 46,70  L 47,70  L 47,65  L 46,65  L 46,64  L 47,64  L 47,63  L 48,63  L 48,62  L 54,62  L 54,61  L 61,61  L 61,60  L 66,60  L 66,59  L 67,59  L 67,60  L 68,60  L 68,59  L 71,59  L 71,58  L 74,58  L 74,57  L 80,57  L 80,56  L 89,56  L 89,55  L 90,55  L 90,54  L 91,54  L 91,55  L 93,55  L 93,56  L 94,56  L 94,57  L 95,57  L 95,94  L 96,94  L 96,97  L 97,97  L 97,98  L 98,98  L 98,99  L 99,99  L 99,98  L 101,98  L 101,97  L 102,97  L 102,74  L 101,74  L 101,72  L 102,72  L 102,70  L 101,70  L 101,49  Z  " style="fill:rgb(0, 0, 0); fill-opacity:1.000; stroke:none;" />
 <path d="  M 69,136  L 69,137  L 68,137  L 68,136  L 67,136  L 67,137  L 61,137  L 61,138  L 54,138  L 54,139  L 53,139  L 53,138  L 52,138  L 52,139  L 49,139  L 49,138  L 48,138  L 48,139  L 47,139  L 47,138  L 44,138  L 44,137  L 43,137  L 43,135  L 42,135  L 42,127  L 43,127  L 43,119  L 44,119  L 44,117  L 43,117  L 43,115  L 42,115  L 42,114  L 41,114  L 41,115  L 39,115  L 39,117  L 38,117  L 38,118  L 37,118  L 37,124  L 36,124  L 36,130  L 35,130  L 35,131  L 36,131  L 36,132  L 35,132  L 35,134  L 36,134  L 36,140  L 37,140  L 37,142  L 38,142  L 38,143  L 39,143  L 39,144  L 64,144  L 64,143  L 65,143  L 65,144  L 66,144  L 66,143  L 67,143  L 67,144  L 68,144  L 68,143  L 76,143  L 76,142  L 85,142  L 85,141  L 92,141  L 92,140  L 98,140  L 98,139  L 102,139  L 102,138  L 103,138  L 103,137  L 104,137  L 104,132  L 98,132  L 98,133  L 94,133  L 94,134  L 86,134  L 86,135  L 77,135  L 77,136  L 74,136  L 74,135  L 73,135  L 73,136  Z  " style="fill:rgb(0, 0, 0); fill-opacity:1.000; stroke:none;" />
</svg>
