<?xml version="1.0" encoding="UTF-8" standalone="no"?>
<!DOCTYPE svg PUBLIC "-//W3C//DTD SVG 1.1//EN" 
  "http://www.w3.org/Graphics/SVG/1.1/DTD/svg11.dtd">
<svg width="105" height="172"
     xmlns="http://www.w3.org/2000/svg" version="1.1">
 <path d="  M 66,65  L 70,65  L 70,64  L 74,64  L 74,63  L 76,63  L 76,62  L 80,62  L 80,61  L 85,61  L 85,60  L 86,60  L 86,59  L 87,59  L 87,57  L 88,57  L 88,56  L 87,56  L 87,55  L 86,55  L 86,54  L 85,54  L 85,53  L 84,53  L 84,52  L 81,52  L 81,53  L 80,53  L 80,54  L 76,54  L 76,55  L 74,55  L 74,56  L 71,56  L 71,57  L 69,57  L 69,58  L 65,58  L 65,59  L 60,59  L 60,60  L 50,60  L 50,61  L 21,61  L 21,62  L 18,62  L 18,63  L 11,63  L 11,64  L 8,64  L 8,65  L 5,65  L 5,66  L 3,66  L 3,68  L 1,68  L 1,71  L 0,71  L 0,72  L 3,72  L 3,73  L 6,73  L 6,72  L 9,72  L 9,71  L 12,71  L 12,70  L 18,70  L 18,69  L 22,69  L 22,68  L 38,68  L 38,69  L 39,69  L 39,75  L 38,75  L 38,76  L 39,76  L 39,77  L 38,77  L 38,93  L 39,93  L 39,99  L 40,99  L 40,102  L 41,102  L 41,104  L 42,104  L 42,106  L 43,106  L 43,107  L 46,107  L 46,108  L 47,108  L 47,107  L 48,107  L 48,100  L 47,100  L 47,98  L 46,98  L 46,97  L 47,97  L 47,96  L 46,96  L 46,88  L 45,88  L 45,78  L 46,78  L 46,69  L 47,69  L 47,68  L 50,68  L 50,67  L 60,67  L 60,66  L 66,66  Z  " style="fill:rgb(0, 0, 0); fill-opacity:1.000; stroke:none;" />
 <path d="  M 61,43  L 61,42  L 66,42  L 66,41  L 73,41  L 73,40  L 75,40  L 75,38  L 76,38  L 76,36  L 77,36  L 77,34  L 78,34  L 78,32  L 77,32  L 77,31  L 72,31  L 72,32  L 70,32  L 70,33  L 67,33  L 67,34  L 65,34  L 65,35  L 61,35  L 61,36  L 54,36  L 54,37  L 47,37  L 47,38  L 46,38  L 46,37  L 45,37  L 45,38  L 23,38  L 23,37  L 22,37  L 22,29  L 23,29  L 23,28  L 22,28  L 22,26  L 23,26  L 23,22  L 24,22  L 24,17  L 23,17  L 23,16  L 24,16  L 24,14  L 25,14  L 25,13  L 27,13  L 27,12  L 34,12  L 34,11  L 35,11  L 35,12  L 36,12  L 36,11  L 37,11  L 37,12  L 38,12  L 38,11  L 56,11  L 56,10  L 70,10  L 70,9  L 72,9  L 72,8  L 73,8  L 73,7  L 74,7  L 74,4  L 75,4  L 75,3  L 74,3  L 74,2  L 73,2  L 73,1  L 68,1  L 68,2  L 57,2  L 57,3  L 40,3  L 40,4  L 39,4  L 39,3  L 38,3  L 38,4  L 26,4  L 26,5  L 20,5  L 20,6  L 18,6  L 18,7  L 17,7  L 17,8  L 15,8  L 15,9  L 14,9  L 14,8  L 13,8  L 13,9  L 10,9  L 10,10  L 7,10  L 7,11  L 5,11  L 5,12  L 4,12  L 4,16  L 5,16  L 5,17  L 14,17  L 14,16  L 15,16  L 15,18  L 16,18  L 16,19  L 15,19  L 15,28  L 14,28  L 14,36  L 13,36  L 13,42  L 14,42  L 14,43  L 15,43  L 15,42  L 16,42  L 16,43  L 18,43  L 18,44  L 22,44  L 22,45  L 25,45  L 25,46  L 46,46  L 46,45  L 47,45  L 47,46  L 48,46  L 48,45  L 50,45  L 50,44  L 51,44  L 51,45  L 52,45  L 52,44  L 56,44  L 56,43  Z  " style="fill:rgb(0, 0, 0); fill-opacity:1.000; stroke:none;" />
 <path d="  M 58,140  L 58,141  L 55,141  L 55,142  L 50,142  L 50,143  L 48,143  L 48,144  L 46,144  L 46,145  L 44,145  L 44,146  L 43,146  L 43,148  L 41,148  L 41,149  L 39,149  L 39,150  L 37,150  L 37,151  L 36,151  L 36,152  L 35,152  L 35,153  L 34,153  L 34,154  L 33,154  L 33,156  L 32,156  L 32,157  L 33,157  L 33,161  L 34,161  L 34,163  L 35,163  L 35,164  L 36,164  L 36,165  L 37,165  L 37,166  L 38,166  L 38,167  L 40,167  L 40,168  L 43,168  L 43,169  L 44,169  L 44,170  L 46,170  L 46,169  L 47,169  L 47,170  L 48,170  L 48,171  L 51,171  L 51,172  L 54,172  L 54,171  L 55,171  L 55,172  L 70,172  L 70,171  L 76,171  L 76,170  L 79,170  L 79,169  L 82,169  L 82,168  L 85,168  L 85,167  L 87,167  L 87,166  L 90,166  L 90,165  L 93,165  L 93,164  L 95,164  L 95,163  L 98,163  L 98,162  L 100,162  L 100,161  L 102,161  L 102,160  L 104,160  L 104,159  L 105,159  L 105,153  L 104,153  L 104,152  L 101,152  L 101,153  L 100,153  L 100,154  L 98,154  L 98,155  L 96,155  L 96,156  L 94,156  L 94,157  L 92,157  L 92,158  L 90,158  L 90,159  L 88,159  L 88,160  L 84,160  L 84,161  L 81,161  L 81,162  L 78,162  L 78,163  L 73,163  L 73,164  L 70,164  L 70,165  L 57,165  L 57,164  L 56,164  L 56,165  L 53,165  L 53,164  L 46,164  L 46,163  L 44,163  L 44,162  L 43,162  L 43,161  L 40,161  L 40,159  L 39,159  L 39,158  L 40,158  L 40,157  L 41,157  L 41,155  L 42,155  L 42,154  L 43,154  L 43,153  L 44,153  L 44,152  L 47,152  L 47,151  L 52,151  L 52,150  L 55,150  L 55,149  L 56,149  L 56,148  L 60,148  L 60,147  L 64,147  L 64,146  L 66,146  L 66,145  L 68,145  L 68,144  L 69,144  L 69,143  L 71,143  L 71,142  L 73,142  L 73,141  L 74,141  L 74,140  L 76,140  L 76,139  L 77,139  L 77,137  L 78,137  L 78,135  L 79,135  L 79,134  L 80,134  L 80,133  L 81,133  L 81,132  L 82,132  L 82,131  L 83,131  L 83,130  L 84,130  L 84,129  L 85,129  L 85,128  L 86,128  L 86,127  L 87,127  L 87,125  L 88,125  L 88,121  L 87,121  L 87,120  L 86,120  L 86,118  L 85,118  L 85,117  L 83,117  L 83,116  L 82,116  L 82,115  L 80,115  L 80,114  L 78,114  L 78,113  L 74,113  L 74,112  L 62,112  L 62,111  L 61,111  L 61,112  L 58,112  L 58,111  L 57,111  L 57,112  L 52,112  L 52,111  L 49,111  L 49,112  L 46,112  L 46,113  L 44,113  L 44,114  L 43,114  L 43,116  L 41,116  L 41,118  L 46,118  L 46,119  L 47,119  L 47,120  L 50,120  L 50,121  L 51,121  L 51,120  L 54,120  L 54,121  L 56,121  L 56,120  L 63,120  L 63,121  L 64,121  L 64,120  L 65,120  L 65,121  L 72,121  L 72,122  L 74,122  L 74,123  L 75,123  L 75,124  L 77,124  L 77,125  L 76,125  L 76,127  L 75,127  L 75,129  L 74,129  L 74,130  L 73,130  L 73,131  L 72,131  L 72,133  L 71,133  L 71,134  L 70,134  L 70,135  L 68,135  L 68,136  L 67,136  L 67,137  L 65,137  L 65,138  L 63,138  L 63,139  L 61,139  L 61,140  Z  M 38,166  L 38,165  L 39,165  L 39,166  Z  " style="fill:rgb(0, 0, 0); fill-opacity:1.000; stroke:none;" />
 <path d="  M 102,6  L 101,6  L 101,5  L 99,5  L 99,4  L 97,4  L 97,5  L 96,5  L 96,7  L 95,7  L 95,8  L 96,8  L 96,22  L 97,22  L 97,25  L 96,25  L 96,26  L 97,26  L 97,47  L 98,47  L 98,49  L 97,49  L 97,50  L 98,50  L 98,53  L 97,53  L 97,54  L 98,54  L 98,57  L 97,57  L 97,103  L 98,103  L 98,104  L 99,104  L 99,105  L 100,105  L 100,104  L 101,104  L 101,105  L 102,105  L 102,104  L 103,104  L 103,103  L 104,103  L 104,27  L 103,27  L 103,26  L 104,26  L 104,25  L 103,25  L 103,13  L 102,13  L 102,12  L 103,12  L 103,9  L 102,9  Z  " style="fill:rgb(0, 0, 0); fill-opacity:1.000; stroke:none;" />
</svg>
