<?xml version="1.0" encoding="UTF-8" standalone="no"?>
<!DOCTYPE svg PUBLIC "-//W3C//DTD SVG 1.1//EN" 
  "http://www.w3.org/Graphics/SVG/1.1/DTD/svg11.dtd">
<svg width="108" height="142"
     xmlns="http://www.w3.org/2000/svg" version="1.1">
 <path d="  M 12,81  L 12,80  L 17,80  L 17,79  L 23,79  L 23,78  L 31,78  L 31,77  L 36,77  L 36,99  L 35,99  L 35,100  L 36,100  L 36,101  L 35,101  L 35,107  L 34,107  L 34,116  L 33,116  L 33,134  L 34,134  L 34,136  L 36,136  L 36,137  L 37,137  L 37,136  L 38,136  L 38,135  L 39,135  L 39,122  L 40,122  L 40,121  L 39,121  L 39,119  L 40,119  L 40,109  L 41,109  L 41,100  L 42,100  L 42,90  L 43,90  L 43,89  L 42,89  L 42,88  L 43,88  L 43,87  L 42,87  L 42,86  L 43,86  L 43,76  L 44,76  L 44,75  L 60,75  L 60,74  L 61,74  L 61,75  L 62,75  L 62,74  L 69,74  L 69,88  L 70,88  L 70,96  L 71,96  L 71,100  L 72,100  L 72,106  L 73,106  L 73,107  L 72,107  L 72,108  L 73,108  L 73,109  L 72,109  L 72,110  L 73,110  L 73,127  L 74,127  L 74,129  L 73,129  L 73,130  L 74,130  L 74,141  L 75,141  L 75,142  L 80,142  L 80,141  L 81,141  L 81,137  L 80,137  L 80,132  L 81,132  L 81,131  L 80,131  L 80,117  L 79,117  L 79,116  L 80,116  L 80,115  L 79,115  L 79,114  L 80,114  L 80,113  L 79,113  L 79,102  L 78,102  L 78,100  L 79,100  L 79,99  L 78,99  L 78,89  L 77,89  L 77,78  L 78,78  L 78,74  L 79,74  L 79,73  L 85,73  L 85,74  L 90,74  L 90,73  L 91,73  L 91,74  L 94,74  L 94,73  L 101,73  L 101,72  L 105,72  L 105,71  L 106,71  L 106,70  L 107,70  L 107,69  L 108,69  L 108,64  L 107,64  L 107,63  L 102,63  L 102,64  L 101,64  L 101,65  L 100,65  L 100,66  L 96,66  L 96,67  L 92,67  L 92,68  L 90,68  L 90,67  L 88,67  L 88,68  L 65,68  L 65,69  L 45,69  L 45,70  L 37,70  L 37,71  L 27,71  L 27,72  L 20,72  L 20,73  L 13,73  L 13,74  L 8,74  L 8,75  L 5,75  L 5,76  L 3,76  L 3,77  L 1,77  L 1,79  L 0,79  L 0,81  L 1,81  L 1,82  L 0,82  L 0,83  L 5,83  L 5,82  L 10,82  L 10,81  Z  " style="fill:rgb(0, 0, 0); fill-opacity:1.000; stroke:none;" />
 <path d="  M 85,46  L 85,47  L 68,47  L 68,48  L 66,48  L 66,47  L 64,47  L 64,48  L 47,48  L 47,49  L 33,49  L 33,48  L 32,48  L 32,45  L 31,45  L 31,42  L 32,42  L 32,41  L 31,41  L 31,16  L 32,16  L 32,14  L 33,14  L 33,13  L 35,13  L 35,12  L 46,12  L 46,11  L 47,11  L 47,12  L 48,12  L 48,11  L 62,11  L 62,10  L 72,10  L 72,9  L 86,9  L 86,8  L 87,8  L 87,6  L 88,6  L 88,5  L 87,5  L 87,3  L 86,3  L 86,2  L 85,2  L 85,1  L 77,1  L 77,2  L 75,2  L 75,1  L 74,1  L 74,2  L 70,2  L 70,3  L 62,3  L 62,4  L 54,4  L 54,5  L 41,5  L 41,6  L 38,6  L 38,5  L 37,5  L 37,6  L 30,6  L 30,7  L 27,7  L 27,8  L 17,8  L 17,9  L 13,9  L 13,11  L 12,11  L 12,12  L 14,12  L 14,14  L 16,14  L 16,15  L 23,15  L 23,16  L 24,16  L 24,17  L 25,17  L 25,19  L 24,19  L 24,26  L 25,26  L 25,27  L 24,27  L 24,30  L 25,30  L 25,31  L 24,31  L 24,34  L 25,34  L 25,35  L 24,35  L 24,36  L 25,36  L 25,37  L 24,37  L 24,38  L 25,38  L 25,41  L 24,41  L 24,42  L 25,42  L 25,47  L 26,47  L 26,49  L 25,49  L 25,50  L 26,50  L 26,52  L 28,52  L 28,54  L 30,54  L 30,55  L 31,55  L 31,56  L 38,56  L 38,55  L 46,55  L 46,54  L 47,54  L 47,55  L 48,55  L 48,54  L 69,54  L 69,53  L 72,53  L 72,54  L 73,54  L 73,53  L 88,53  L 88,52  L 89,52  L 89,53  L 94,53  L 94,52  L 95,52  L 95,49  L 94,49  L 94,47  L 93,47  L 93,43  L 91,43  L 91,44  L 90,44  L 90,45  L 89,45  L 89,46  Z  " style="fill:rgb(0, 0, 0); fill-opacity:1.000; stroke:none;" />
</svg>
