<?xml version="1.0" encoding="UTF-8" standalone="no"?>
<!DOCTYPE svg PUBLIC "-//W3C//DTD SVG 1.1//EN" 
  "http://www.w3.org/Graphics/SVG/1.1/DTD/svg11.dtd">
<svg width="112" height="176"
     xmlns="http://www.w3.org/2000/svg" version="1.1">
 <path d="  M 93,124  L 92,124  L 92,123  L 91,123  L 91,122  L 90,122  L 90,119  L 89,119  L 89,118  L 88,118  L 88,117  L 86,117  L 86,115  L 85,115  L 85,114  L 84,114  L 84,113  L 83,113  L 83,110  L 82,110  L 82,105  L 81,105  L 81,77  L 82,77  L 82,76  L 81,76  L 81,75  L 82,75  L 82,72  L 84,72  L 84,71  L 92,71  L 92,70  L 99,70  L 99,69  L 100,69  L 100,70  L 101,70  L 101,69  L 103,69  L 103,68  L 106,68  L 106,67  L 107,67  L 107,68  L 108,68  L 108,67  L 111,67  L 111,65  L 112,65  L 112,60  L 111,60  L 111,59  L 109,59  L 109,58  L 101,58  L 101,59  L 100,59  L 100,60  L 97,60  L 97,61  L 94,61  L 94,62  L 87,62  L 87,63  L 82,63  L 82,64  L 81,64  L 81,63  L 80,63  L 80,64  L 71,64  L 71,65  L 70,65  L 70,64  L 67,64  L 67,65  L 66,65  L 66,64  L 65,64  L 65,65  L 64,65  L 64,64  L 63,64  L 63,65  L 62,65  L 62,64  L 61,64  L 61,65  L 58,65  L 58,64  L 57,64  L 57,65  L 41,65  L 41,66  L 39,66  L 39,65  L 18,65  L 18,66  L 17,66  L 17,65  L 10,65  L 10,66  L 7,66  L 7,65  L 6,65  L 6,66  L 5,66  L 5,65  L 4,65  L 4,66  L 2,66  L 2,67  L 1,67  L 1,73  L 3,73  L 3,74  L 4,74  L 4,73  L 7,73  L 7,74  L 8,74  L 8,73  L 11,73  L 11,74  L 12,74  L 12,73  L 15,73  L 15,74  L 16,74  L 16,73  L 29,73  L 29,72  L 32,72  L 32,73  L 33,73  L 33,72  L 36,72  L 36,73  L 37,73  L 37,72  L 38,72  L 38,73  L 41,73  L 41,72  L 44,72  L 44,73  L 46,73  L 46,76  L 45,76  L 45,86  L 44,86  L 44,116  L 43,116  L 43,117  L 37,117  L 37,118  L 36,118  L 36,119  L 34,119  L 34,120  L 32,120  L 32,123  L 34,123  L 34,125  L 36,125  L 36,124  L 56,124  L 56,123  L 69,123  L 69,122  L 70,122  L 70,123  L 73,123  L 73,122  L 78,122  L 78,123  L 84,123  L 84,125  L 85,125  L 85,127  L 84,127  L 84,128  L 83,128  L 83,129  L 82,129  L 82,130  L 81,130  L 81,132  L 80,132  L 80,135  L 79,135  L 79,136  L 77,136  L 77,137  L 76,137  L 76,139  L 75,139  L 75,140  L 71,140  L 71,141  L 69,141  L 69,142  L 65,142  L 65,143  L 59,143  L 59,144  L 58,144  L 58,143  L 57,143  L 57,144  L 54,144  L 54,143  L 53,143  L 53,144  L 38,144  L 38,143  L 29,143  L 29,144  L 28,144  L 28,145  L 27,145  L 27,146  L 26,146  L 26,148  L 25,148  L 25,158  L 26,158  L 26,159  L 25,159  L 25,160  L 26,160  L 26,161  L 27,161  L 27,162  L 28,162  L 28,166  L 29,166  L 29,167  L 30,167  L 30,168  L 31,168  L 31,170  L 32,170  L 32,171  L 33,171  L 33,172  L 35,172  L 35,173  L 38,173  L 38,174  L 40,174  L 40,175  L 43,175  L 43,176  L 46,176  L 46,175  L 47,175  L 47,176  L 74,176  L 74,175  L 75,175  L 75,176  L 77,176  L 77,175  L 79,175  L 79,174  L 83,174  L 83,173  L 86,173  L 86,172  L 88,172  L 88,171  L 91,171  L 91,170  L 92,170  L 92,169  L 93,169  L 93,168  L 95,168  L 95,167  L 97,167  L 97,166  L 98,166  L 98,165  L 100,165  L 100,164  L 101,164  L 101,163  L 102,163  L 102,161  L 103,161  L 103,160  L 105,160  L 105,157  L 104,157  L 104,156  L 100,156  L 100,157  L 99,157  L 99,159  L 98,159  L 98,160  L 97,160  L 97,161  L 95,161  L 95,162  L 91,162  L 91,163  L 89,163  L 89,164  L 86,164  L 86,165  L 83,165  L 83,166  L 81,166  L 81,167  L 77,167  L 77,168  L 73,168  L 73,169  L 67,169  L 67,170  L 60,170  L 60,169  L 59,169  L 59,170  L 57,170  L 57,169  L 55,169  L 55,170  L 54,170  L 54,169  L 48,169  L 48,168  L 44,168  L 44,167  L 43,167  L 43,166  L 39,166  L 39,165  L 38,165  L 38,164  L 36,164  L 36,163  L 35,163  L 35,162  L 34,162  L 34,160  L 33,160  L 33,153  L 34,153  L 34,151  L 46,151  L 46,152  L 47,152  L 47,151  L 48,151  L 48,152  L 55,152  L 55,153  L 60,153  L 60,152  L 67,152  L 67,151  L 71,151  L 71,150  L 73,150  L 73,149  L 75,149  L 75,148  L 76,148  L 76,147  L 78,147  L 78,146  L 79,146  L 79,145  L 80,145  L 80,144  L 81,144  L 81,143  L 82,143  L 82,140  L 83,140  L 83,139  L 84,139  L 84,138  L 85,138  L 85,137  L 86,137  L 86,135  L 89,135  L 89,134  L 90,134  L 90,132  L 91,132  L 91,131  L 92,131  L 92,130  L 93,130  Z  M 53,73  L 54,73  L 54,72  L 60,72  L 60,71  L 63,71  L 63,72  L 64,72  L 64,71  L 71,71  L 71,72  L 72,72  L 72,73  L 73,73  L 73,98  L 74,98  L 74,100  L 73,100  L 73,101  L 74,101  L 74,111  L 75,111  L 75,112  L 74,112  L 74,113  L 73,113  L 73,114  L 72,114  L 72,115  L 71,115  L 71,114  L 70,114  L 70,115  L 63,115  L 63,116  L 50,116  L 50,111  L 51,111  L 51,104  L 52,104  L 52,103  L 51,103  L 51,100  L 52,100  L 52,99  L 51,99  L 51,97  L 52,97  L 52,94  L 51,94  L 51,93  L 52,93  L 52,76  L 53,76  L 53,75  L 52,75  L 52,74  L 53,74  Z  " style="fill:rgb(0, 0, 0); fill-opacity:1.000; stroke:none;" />
 <path d="  M 25,6  L 25,5  L 24,5  L 24,7  L 23,7  L 23,11  L 24,11  L 24,13  L 25,13  L 25,14  L 26,14  L 26,17  L 27,17  L 27,18  L 28,18  L 28,23  L 29,23  L 29,24  L 28,24  L 28,25  L 29,25  L 29,26  L 28,26  L 28,27  L 29,27  L 29,28  L 28,28  L 28,29  L 29,29  L 29,30  L 28,30  L 28,33  L 29,33  L 29,35  L 28,35  L 28,37  L 29,37  L 29,38  L 28,38  L 28,39  L 29,39  L 29,40  L 28,40  L 28,41  L 29,41  L 29,45  L 30,45  L 30,47  L 31,47  L 31,48  L 32,48  L 32,49  L 34,49  L 34,50  L 35,50  L 35,51  L 43,51  L 43,52  L 44,52  L 44,51  L 45,51  L 45,52  L 46,52  L 46,51  L 62,51  L 62,50  L 73,50  L 73,49  L 79,49  L 79,48  L 80,48  L 80,49  L 83,49  L 83,48  L 86,48  L 86,47  L 89,47  L 89,46  L 90,46  L 90,47  L 91,47  L 91,46  L 92,46  L 92,45  L 94,45  L 94,43  L 96,43  L 96,41  L 97,41  L 97,40  L 96,40  L 96,38  L 93,38  L 93,37  L 91,37  L 91,38  L 87,38  L 87,39  L 86,39  L 86,40  L 83,40  L 83,41  L 78,41  L 78,42  L 73,42  L 73,43  L 72,43  L 72,42  L 69,42  L 69,43  L 68,43  L 68,42  L 67,42  L 67,43  L 59,43  L 59,44  L 56,44  L 56,43  L 55,43  L 55,44  L 48,44  L 48,43  L 47,43  L 47,44  L 42,44  L 42,43  L 37,43  L 37,42  L 36,42  L 36,31  L 37,31  L 37,20  L 39,20  L 39,19  L 42,19  L 42,18  L 44,18  L 44,17  L 47,17  L 47,16  L 48,16  L 48,17  L 49,17  L 49,16  L 50,16  L 50,15  L 51,15  L 51,16  L 52,16  L 52,15  L 57,15  L 57,14  L 61,14  L 61,13  L 63,13  L 63,14  L 64,14  L 64,13  L 73,13  L 73,12  L 74,12  L 74,13  L 75,13  L 75,12  L 76,12  L 76,13  L 77,13  L 77,12  L 84,12  L 84,11  L 85,11  L 85,12  L 86,12  L 86,11  L 91,11  L 91,9  L 92,9  L 92,3  L 91,3  L 91,2  L 89,2  L 89,1  L 82,1  L 82,2  L 81,2  L 81,1  L 80,1  L 80,2  L 75,2  L 75,3  L 60,3  L 60,4  L 53,4  L 53,5  L 50,5  L 50,6  L 46,6  L 46,7  L 42,7  L 42,8  L 38,8  L 38,9  L 36,9  L 36,10  L 33,10  L 33,11  L 31,11  L 31,10  L 30,10  L 30,9  L 29,9  L 29,7  L 28,7  L 28,6  Z  " style="fill:rgb(0, 0, 0); fill-opacity:1.000; stroke:none;" />
</svg>
