<?xml version="1.0" encoding="UTF-8" standalone="no"?>
<!DOCTYPE svg PUBLIC "-//W3C//DTD SVG 1.1//EN" 
  "http://www.w3.org/Graphics/SVG/1.1/DTD/svg11.dtd">
<svg width="109" height="171"
     xmlns="http://www.w3.org/2000/svg" version="1.1">
 <path d="  M 42,108  L 41,108  L 41,109  L 38,109  L 38,108  L 34,108  L 34,107  L 32,107  L 32,108  L 29,108  L 29,109  L 24,109  L 24,110  L 21,110  L 21,111  L 19,111  L 19,113  L 20,113  L 20,114  L 21,114  L 21,115  L 23,115  L 23,116  L 26,116  L 26,118  L 27,118  L 27,119  L 28,119  L 28,122  L 27,122  L 27,160  L 28,160  L 28,164  L 29,164  L 29,167  L 30,167  L 30,168  L 31,168  L 31,169  L 33,169  L 33,170  L 34,170  L 34,171  L 47,171  L 47,170  L 53,170  L 53,169  L 58,169  L 58,168  L 62,168  L 62,167  L 67,167  L 67,166  L 70,166  L 70,165  L 72,165  L 72,164  L 75,164  L 75,163  L 78,163  L 78,162  L 79,162  L 79,161  L 81,161  L 81,160  L 82,160  L 82,159  L 84,159  L 84,157  L 86,157  L 86,156  L 87,156  L 87,155  L 88,155  L 88,145  L 89,145  L 89,142  L 90,142  L 90,141  L 91,141  L 91,137  L 92,137  L 92,133  L 93,133  L 93,132  L 92,132  L 92,131  L 93,131  L 93,127  L 94,127  L 94,126  L 93,126  L 93,125  L 94,125  L 94,107  L 93,107  L 93,103  L 92,103  L 92,102  L 90,102  L 90,100  L 83,100  L 83,101  L 82,101  L 82,100  L 80,100  L 80,97  L 79,97  L 79,88  L 78,88  L 78,87  L 79,87  L 79,86  L 78,86  L 78,85  L 79,85  L 79,84  L 78,84  L 78,71  L 79,71  L 79,70  L 78,70  L 78,68  L 79,68  L 79,66  L 81,66  L 81,65  L 91,65  L 91,64  L 97,64  L 97,63  L 103,63  L 103,62  L 104,62  L 104,63  L 105,63  L 105,62  L 107,62  L 107,61  L 109,61  L 109,56  L 108,56  L 108,55  L 106,55  L 106,54  L 104,54  L 104,53  L 100,53  L 100,52  L 97,52  L 97,53  L 96,53  L 96,54  L 95,54  L 95,55  L 94,55  L 94,56  L 93,56  L 93,57  L 88,57  L 88,58  L 87,58  L 87,57  L 85,57  L 85,58  L 79,58  L 79,59  L 74,59  L 74,60  L 73,60  L 73,59  L 71,59  L 71,60  L 59,60  L 59,61  L 56,61  L 56,60  L 55,60  L 55,61  L 38,61  L 38,62  L 25,62  L 25,63  L 24,63  L 24,62  L 21,62  L 21,63  L 12,63  L 12,64  L 8,64  L 8,63  L 3,63  L 3,64  L 1,64  L 1,65  L 0,65  L 0,69  L 1,69  L 1,70  L 2,70  L 2,71  L 15,71  L 15,70  L 24,70  L 24,69  L 29,69  L 29,68  L 32,68  L 32,69  L 33,69  L 33,68  L 34,68  L 34,69  L 36,69  L 36,68  L 43,68  L 43,71  L 42,71  Z  M 65,111  L 65,110  L 70,110  L 70,109  L 76,109  L 76,108  L 77,108  L 77,109  L 78,109  L 78,108  L 80,108  L 80,107  L 81,107  L 81,108  L 82,108  L 82,107  L 84,107  L 84,108  L 85,108  L 85,109  L 86,109  L 86,129  L 85,129  L 85,134  L 84,134  L 84,138  L 83,138  L 83,141  L 82,141  L 82,147  L 81,147  L 81,150  L 80,150  L 80,152  L 78,152  L 78,153  L 77,153  L 77,154  L 76,154  L 76,155  L 73,155  L 73,156  L 70,156  L 70,158  L 66,158  L 66,159  L 65,159  L 65,160  L 61,160  L 61,161  L 56,161  L 56,162  L 52,162  L 52,163  L 51,163  L 51,162  L 50,162  L 50,163  L 49,163  L 49,164  L 39,164  L 39,163  L 38,163  L 38,162  L 36,162  L 36,161  L 35,161  L 35,159  L 34,159  L 34,131  L 35,131  L 35,130  L 34,130  L 34,125  L 35,125  L 35,118  L 36,118  L 36,117  L 38,117  L 38,116  L 39,116  L 39,115  L 41,115  L 41,114  L 43,114  L 43,113  L 51,113  L 51,112  L 52,112  L 52,113  L 54,113  L 54,112  L 61,112  L 61,111  Z  M 51,105  L 51,104  L 50,104  L 50,100  L 49,100  L 49,98  L 50,98  L 50,96  L 49,96  L 49,95  L 50,95  L 50,92  L 49,92  L 49,91  L 50,91  L 50,88  L 49,88  L 49,87  L 50,87  L 50,84  L 49,84  L 49,83  L 50,83  L 50,80  L 49,80  L 49,79  L 50,79  L 50,68  L 52,68  L 52,67  L 63,67  L 63,66  L 70,66  L 70,77  L 71,77  L 71,78  L 70,78  L 70,81  L 71,81  L 71,84  L 70,84  L 70,85  L 71,85  L 71,88  L 70,88  L 70,89  L 71,89  L 71,96  L 72,96  L 72,103  L 69,103  L 69,104  L 64,104  L 64,105  L 63,105  L 63,104  L 62,104  L 62,105  L 59,105  L 59,104  L 58,104  L 58,105  Z  " style="fill:rgb(0, 0, 0); fill-opacity:1.000; stroke:none;" />
 <path d="  M 33,15  L 36,15  L 36,14  L 46,14  L 46,13  L 55,13  L 55,12  L 66,12  L 66,11  L 71,11  L 71,10  L 80,10  L 80,9  L 82,9  L 82,8  L 83,8  L 83,7  L 84,7  L 84,6  L 85,6  L 85,5  L 84,5  L 84,3  L 83,3  L 83,2  L 82,2  L 82,1  L 81,1  L 81,0  L 80,0  L 80,1  L 76,1  L 76,2  L 71,2  L 71,3  L 63,3  L 63,4  L 54,4  L 54,5  L 46,5  L 46,6  L 35,6  L 35,7  L 28,7  L 28,8  L 24,8  L 24,7  L 20,7  L 20,8  L 18,8  L 18,9  L 17,9  L 17,10  L 13,10  L 13,16  L 14,16  L 14,17  L 15,17  L 15,18  L 17,18  L 17,19  L 18,19  L 18,18  L 19,18  L 19,17  L 21,17  L 21,16  L 22,16  L 22,14  L 24,14  L 24,13  L 25,13  L 25,41  L 26,41  L 26,45  L 27,45  L 27,47  L 28,47  L 28,48  L 29,48  L 29,49  L 31,49  L 31,50  L 33,50  L 33,51  L 49,51  L 49,50  L 50,50  L 50,51  L 51,51  L 51,50  L 59,50  L 59,49  L 67,49  L 67,48  L 71,48  L 71,47  L 72,47  L 72,48  L 73,48  L 73,47  L 76,47  L 76,46  L 80,46  L 80,45  L 83,45  L 83,44  L 85,44  L 85,43  L 86,43  L 86,41  L 87,41  L 87,39  L 88,39  L 88,38  L 87,38  L 87,37  L 86,37  L 86,36  L 84,36  L 84,37  L 82,37  L 82,38  L 79,38  L 79,39  L 77,39  L 77,40  L 72,40  L 72,41  L 67,41  L 67,42  L 59,42  L 59,43  L 53,43  L 53,44  L 33,44  L 33,42  L 32,42  L 32,41  L 31,41  L 31,40  L 32,40  L 32,39  L 31,39  L 31,38  L 32,38  L 32,37  L 31,37  L 31,32  L 32,32  L 32,30  L 31,30  L 31,29  L 32,29  L 32,20  L 33,20  Z  " style="fill:rgb(0, 0, 0); fill-opacity:1.000; stroke:none;" />
</svg>
