<?xml version="1.0" encoding="UTF-8" standalone="no"?>
<!DOCTYPE svg PUBLIC "-//W3C//DTD SVG 1.1//EN" 
  "http://www.w3.org/Graphics/SVG/1.1/DTD/svg11.dtd">
<svg width="98" height="168"
     xmlns="http://www.w3.org/2000/svg" version="1.1">
 <path d="  M 96,67  L 96,66  L 98,66  L 98,60  L 97,60  L 97,59  L 96,59  L 96,58  L 93,58  L 93,57  L 92,57  L 92,58  L 87,58  L 87,59  L 86,59  L 86,60  L 85,60  L 85,59  L 84,59  L 84,60  L 80,60  L 80,61  L 72,61  L 72,62  L 71,62  L 71,61  L 70,61  L 70,62  L 65,62  L 65,63  L 57,63  L 57,64  L 48,64  L 48,65  L 46,65  L 46,64  L 45,64  L 45,65  L 32,65  L 32,66  L 31,66  L 31,65  L 28,65  L 28,66  L 18,66  L 18,67  L 11,67  L 11,68  L 3,68  L 3,69  L 2,69  L 2,70  L 1,70  L 1,73  L 0,73  L 0,74  L 2,74  L 2,75  L 4,75  L 4,76  L 6,76  L 6,75  L 12,75  L 12,74  L 20,74  L 20,73  L 21,73  L 21,74  L 22,74  L 22,73  L 27,73  L 27,72  L 30,72  L 30,73  L 31,73  L 31,72  L 34,72  L 34,73  L 35,73  L 35,72  L 39,72  L 39,73  L 40,73  L 40,78  L 39,78  L 39,80  L 40,80  L 40,82  L 39,82  L 39,83  L 40,83  L 40,98  L 41,98  L 41,101  L 40,101  L 40,102  L 41,102  L 41,109  L 40,109  L 40,110  L 41,110  L 41,117  L 40,117  L 40,118  L 39,118  L 39,120  L 38,120  L 38,121  L 36,121  L 36,122  L 35,122  L 35,124  L 33,124  L 33,125  L 32,125  L 32,126  L 31,126  L 31,127  L 30,127  L 30,128  L 29,128  L 29,129  L 28,129  L 28,131  L 27,131  L 27,132  L 26,132  L 26,135  L 25,135  L 25,136  L 24,136  L 24,139  L 23,139  L 23,154  L 24,154  L 24,156  L 25,156  L 25,158  L 26,158  L 26,160  L 27,160  L 27,161  L 28,161  L 28,162  L 29,162  L 29,163  L 30,163  L 30,164  L 31,164  L 31,165  L 32,165  L 32,166  L 34,166  L 34,167  L 37,167  L 37,168  L 69,168  L 69,167  L 71,167  L 71,166  L 73,166  L 73,165  L 74,165  L 74,164  L 75,164  L 75,163  L 77,163  L 77,161  L 78,161  L 78,160  L 79,160  L 79,159  L 80,159  L 80,156  L 81,156  L 81,153  L 82,153  L 82,149  L 83,149  L 83,145  L 84,145  L 84,143  L 85,143  L 85,142  L 84,142  L 84,140  L 85,140  L 85,134  L 84,134  L 84,132  L 85,132  L 85,131  L 84,131  L 84,125  L 83,125  L 83,124  L 82,124  L 82,123  L 81,123  L 81,122  L 80,122  L 80,120  L 78,120  L 78,119  L 77,119  L 77,118  L 76,118  L 76,115  L 75,115  L 75,114  L 76,114  L 76,105  L 77,105  L 77,71  L 78,71  L 78,70  L 79,70  L 79,68  L 86,68  L 86,67  Z  M 71,112  L 71,113  L 73,113  L 73,115  L 65,115  L 65,116  L 63,116  L 63,115  L 47,115  L 47,110  L 48,110  L 48,108  L 49,108  L 49,103  L 48,103  L 48,91  L 47,91  L 47,89  L 48,89  L 48,88  L 47,88  L 47,86  L 48,86  L 48,85  L 47,85  L 47,75  L 48,75  L 48,74  L 47,74  L 47,73  L 48,73  L 48,72  L 50,72  L 50,71  L 64,71  L 64,70  L 68,70  L 68,72  L 69,72  L 69,111  L 70,111  L 70,112  Z  M 69,126  L 72,126  L 72,127  L 73,127  L 73,129  L 74,129  L 74,130  L 75,130  L 75,132  L 76,132  L 76,136  L 77,136  L 77,137  L 76,137  L 76,138  L 77,138  L 77,139  L 76,139  L 76,144  L 75,144  L 75,146  L 74,146  L 74,150  L 73,150  L 73,152  L 72,152  L 72,154  L 71,154  L 71,157  L 69,157  L 69,158  L 68,158  L 68,159  L 67,159  L 67,160  L 63,160  L 63,161  L 42,161  L 42,160  L 38,160  L 38,159  L 36,159  L 36,158  L 34,158  L 34,156  L 32,156  L 32,154  L 31,154  L 31,152  L 30,152  L 30,143  L 31,143  L 31,140  L 32,140  L 32,137  L 33,137  L 33,135  L 34,135  L 34,133  L 35,133  L 35,132  L 36,132  L 36,130  L 38,130  L 38,129  L 40,129  L 40,128  L 41,128  L 41,127  L 43,127  L 43,126  L 45,126  L 45,125  L 50,125  L 50,124  L 66,124  L 66,125  L 69,125  Z  " style="fill:rgb(0, 0, 0); fill-opacity:1.000; stroke:none;" />
 <path d="  M 80,43  L 81,43  L 81,39  L 80,39  L 80,38  L 76,38  L 76,39  L 72,39  L 72,40  L 69,40  L 69,41  L 66,41  L 66,42  L 60,42  L 60,43  L 45,43  L 45,44  L 34,44  L 34,43  L 31,43  L 31,42  L 30,42  L 30,23  L 31,23  L 31,14  L 32,14  L 32,13  L 36,13  L 36,12  L 44,12  L 44,11  L 58,11  L 58,10  L 78,10  L 78,9  L 79,9  L 79,8  L 80,8  L 80,3  L 79,3  L 79,2  L 77,2  L 77,1  L 70,1  L 70,2  L 57,2  L 57,3  L 56,3  L 56,2  L 54,2  L 54,3  L 41,3  L 41,4  L 35,4  L 35,5  L 29,5  L 29,6  L 27,6  L 27,7  L 26,7  L 26,8  L 24,8  L 24,9  L 23,9  L 23,8  L 18,8  L 18,9  L 16,9  L 16,10  L 14,10  L 14,11  L 11,11  L 11,13  L 10,13  L 10,16  L 11,16  L 11,17  L 12,17  L 12,18  L 18,18  L 18,17  L 19,17  L 19,16  L 21,16  L 21,15  L 23,15  L 23,26  L 22,26  L 22,27  L 23,27  L 23,30  L 22,30  L 22,32  L 23,32  L 23,42  L 24,42  L 24,44  L 25,44  L 25,46  L 26,46  L 26,47  L 27,47  L 27,48  L 29,48  L 29,49  L 31,49  L 31,50  L 34,50  L 34,51  L 48,51  L 48,50  L 59,50  L 59,49  L 66,49  L 66,48  L 73,48  L 73,47  L 77,47  L 77,46  L 78,46  L 78,45  L 79,45  L 79,44  L 80,44  Z  " style="fill:rgb(0, 0, 0); fill-opacity:1.000; stroke:none;" />
</svg>
