<?xml version="1.0" encoding="UTF-8" standalone="no"?>
<!DOCTYPE svg PUBLIC "-//W3C//DTD SVG 1.1//EN" 
  "http://www.w3.org/Graphics/SVG/1.1/DTD/svg11.dtd">
<svg width="103" height="101"
     xmlns="http://www.w3.org/2000/svg" version="1.1">
 <path d="  M 85,88  L 85,89  L 75,89  L 75,90  L 74,90  L 74,89  L 73,89  L 73,90  L 57,90  L 57,91  L 55,91  L 55,90  L 53,90  L 53,91  L 50,91  L 50,90  L 49,90  L 49,91  L 41,91  L 41,92  L 23,92  L 23,93  L 22,93  L 22,92  L 19,92  L 19,93  L 13,93  L 13,94  L 9,94  L 9,95  L 4,95  L 4,96  L 1,96  L 1,97  L 0,97  L 0,101  L 14,101  L 14,100  L 20,100  L 20,99  L 21,99  L 21,100  L 22,100  L 22,99  L 23,99  L 23,100  L 24,100  L 24,99  L 34,99  L 34,98  L 35,98  L 35,99  L 36,99  L 36,98  L 49,98  L 49,97  L 51,97  L 51,98  L 52,98  L 52,97  L 70,97  L 70,96  L 71,96  L 71,97  L 72,97  L 72,96  L 99,96  L 99,95  L 102,95  L 102,94  L 103,94  L 103,88  L 102,88  L 102,87  L 101,87  L 101,86  L 98,86  L 98,87  L 94,87  L 94,88  L 88,88  L 88,89  L 87,89  L 87,88  Z  " style="fill:rgb(0, 0, 0); fill-opacity:1.000; stroke:none;" />
 <path d="  M 80,2  L 80,1  L 71,1  L 71,2  L 64,2  L 64,3  L 62,3  L 62,2  L 61,2  L 61,3  L 55,3  L 55,4  L 43,4  L 43,5  L 33,5  L 33,6  L 27,6  L 27,7  L 24,7  L 24,8  L 22,8  L 22,9  L 20,9  L 20,10  L 18,10  L 18,11  L 17,11  L 17,12  L 15,12  L 15,13  L 16,13  L 16,14  L 13,14  L 13,15  L 11,15  L 11,18  L 13,18  L 13,19  L 14,19  L 14,20  L 15,20  L 15,22  L 16,22  L 16,34  L 15,34  L 15,35  L 16,35  L 16,47  L 17,47  L 17,55  L 18,55  L 18,59  L 19,59  L 19,61  L 21,61  L 21,62  L 23,62  L 23,63  L 43,63  L 43,62  L 44,62  L 44,63  L 45,63  L 45,62  L 54,62  L 54,61  L 55,61  L 55,62  L 56,62  L 56,61  L 64,61  L 64,60  L 65,60  L 65,61  L 66,61  L 66,60  L 74,60  L 74,59  L 75,59  L 75,60  L 76,60  L 76,59  L 86,59  L 86,58  L 88,58  L 88,50  L 86,50  L 86,49  L 85,49  L 85,50  L 84,50  L 84,51  L 83,51  L 83,50  L 82,50  L 82,51  L 79,51  L 79,52  L 74,52  L 74,53  L 65,53  L 65,54  L 52,54  L 52,55  L 50,55  L 50,54  L 49,54  L 49,55  L 42,55  L 42,56  L 27,56  L 27,55  L 25,55  L 25,51  L 24,51  L 24,44  L 23,44  L 23,43  L 24,43  L 24,42  L 23,42  L 23,31  L 22,31  L 22,29  L 23,29  L 23,27  L 22,27  L 22,22  L 23,22  L 23,18  L 24,18  L 24,16  L 25,16  L 25,15  L 29,15  L 29,14  L 32,14  L 32,13  L 40,13  L 40,12  L 50,12  L 50,11  L 51,11  L 51,12  L 52,12  L 52,11  L 61,11  L 61,10  L 68,10  L 68,9  L 77,9  L 77,8  L 82,8  L 82,6  L 83,6  L 83,3  L 82,3  L 82,2  Z  " style="fill:rgb(0, 0, 0); fill-opacity:1.000; stroke:none;" />
</svg>
