<?xml version="1.0" encoding="UTF-8" standalone="no"?>
<!DOCTYPE svg PUBLIC "-//W3C//DTD SVG 1.1//EN" 
  "http://www.w3.org/Graphics/SVG/1.1/DTD/svg11.dtd">
<svg width="104" height="157"
     xmlns="http://www.w3.org/2000/svg" version="1.1">
 <path d="  M 3,20  L 1,20  L 1,23  L 0,23  L 0,26  L 2,26  L 2,27  L 3,27  L 3,26  L 5,26  L 5,27  L 6,27  L 6,31  L 7,31  L 7,61  L 8,61  L 8,63  L 7,63  L 7,64  L 8,64  L 8,69  L 9,69  L 9,70  L 8,70  L 8,71  L 9,71  L 9,73  L 11,73  L 11,74  L 12,74  L 12,75  L 13,75  L 13,76  L 16,76  L 16,77  L 26,77  L 26,76  L 30,76  L 30,75  L 35,75  L 35,74  L 40,74  L 40,73  L 47,73  L 47,72  L 52,72  L 52,71  L 56,71  L 56,70  L 59,70  L 59,69  L 61,69  L 61,68  L 62,68  L 62,67  L 64,67  L 64,66  L 66,66  L 66,64  L 68,64  L 68,63  L 69,63  L 69,62  L 70,62  L 70,61  L 71,61  L 71,60  L 73,60  L 73,59  L 74,59  L 74,57  L 72,57  L 72,56  L 69,56  L 69,57  L 67,57  L 67,58  L 64,58  L 64,59  L 62,59  L 62,60  L 59,60  L 59,61  L 57,61  L 57,62  L 55,62  L 55,63  L 50,63  L 50,64  L 47,64  L 47,65  L 44,65  L 44,66  L 39,66  L 39,67  L 34,67  L 34,68  L 32,68  L 32,67  L 31,67  L 31,68  L 28,68  L 28,69  L 21,69  L 21,70  L 18,70  L 18,69  L 17,69  L 17,68  L 16,68  L 16,65  L 15,65  L 15,51  L 14,51  L 14,50  L 15,50  L 15,47  L 14,47  L 14,44  L 15,44  L 15,43  L 14,43  L 14,36  L 15,36  L 15,35  L 14,35  L 14,27  L 15,27  L 15,26  L 16,26  L 16,27  L 22,27  L 22,26  L 32,26  L 32,25  L 38,25  L 38,24  L 44,24  L 44,23  L 45,23  L 45,24  L 46,24  L 46,23  L 55,23  L 55,22  L 58,22  L 58,20  L 59,20  L 59,17  L 58,17  L 58,16  L 57,16  L 57,15  L 45,15  L 45,16  L 44,16  L 44,15  L 43,15  L 43,16  L 39,16  L 39,17  L 31,17  L 31,18  L 14,18  L 14,17  L 11,17  L 11,16  L 9,16  L 9,17  L 5,17  L 5,18  L 3,18  Z  " style="fill:rgb(0, 0, 0); fill-opacity:1.000; stroke:none;" />
 <path d="  M 70,147  L 63,147  L 63,148  L 59,148  L 59,149  L 53,149  L 53,150  L 46,150  L 46,151  L 45,151  L 45,150  L 44,150  L 44,151  L 37,151  L 37,150  L 35,150  L 35,149  L 34,149  L 34,148  L 33,148  L 33,144  L 32,144  L 32,137  L 31,137  L 31,136  L 32,136  L 32,135  L 31,135  L 31,123  L 30,123  L 30,122  L 31,122  L 31,121  L 30,121  L 30,120  L 31,120  L 31,119  L 30,119  L 30,101  L 25,101  L 25,102  L 24,102  L 24,107  L 23,107  L 23,108  L 24,108  L 24,110  L 23,110  L 23,112  L 24,112  L 24,113  L 23,113  L 23,134  L 24,134  L 24,135  L 23,135  L 23,136  L 24,136  L 24,145  L 25,145  L 25,150  L 26,150  L 26,152  L 27,152  L 27,154  L 28,154  L 28,155  L 29,155  L 29,156  L 31,156  L 31,157  L 54,157  L 54,156  L 63,156  L 63,155  L 70,155  L 70,154  L 75,154  L 75,153  L 80,153  L 80,152  L 87,152  L 87,151  L 95,151  L 95,150  L 102,150  L 102,149  L 104,149  L 104,142  L 95,142  L 95,143  L 90,143  L 90,144  L 88,144  L 88,143  L 87,143  L 87,144  L 83,144  L 83,145  L 74,145  L 74,146  L 70,146  Z  " style="fill:rgb(0, 0, 0); fill-opacity:1.000; stroke:none;" />
 <path d="  M 86,69  L 85,69  L 85,70  L 86,70  L 86,73  L 85,73  L 85,74  L 86,74  L 86,77  L 85,77  L 85,78  L 86,78  L 86,81  L 85,81  L 85,83  L 86,83  L 86,84  L 85,84  L 85,86  L 86,86  L 86,88  L 85,88  L 85,92  L 86,92  L 86,96  L 87,96  L 87,97  L 89,97  L 89,96  L 92,96  L 92,93  L 93,93  L 93,76  L 94,76  L 94,75  L 93,75  L 93,72  L 94,72  L 94,71  L 93,71  L 93,70  L 94,70  L 94,27  L 93,27  L 93,26  L 94,26  L 94,25  L 93,25  L 93,24  L 94,24  L 94,23  L 93,23  L 93,13  L 92,13  L 92,4  L 91,4  L 91,2  L 90,2  L 90,1  L 88,1  L 88,0  L 86,0  L 86,1  L 85,1  L 85,3  L 84,3  L 84,8  L 85,8  L 85,22  L 86,22  L 86,25  L 85,25  L 85,26  L 86,26  Z  " style="fill:rgb(0, 0, 0); fill-opacity:1.000; stroke:none;" />
</svg>
