<?xml version="1.0" encoding="UTF-8" standalone="no"?>
<!DOCTYPE svg PUBLIC "-//W3C//DTD SVG 1.1//EN" 
  "http://www.w3.org/Graphics/SVG/1.1/DTD/svg11.dtd">
<svg width="101" height="169"
     xmlns="http://www.w3.org/2000/svg" version="1.1">
 <path d="  M 39,82  L 39,81  L 46,81  L 46,80  L 52,80  L 52,79  L 58,79  L 58,78  L 60,78  L 60,77  L 61,77  L 61,73  L 62,73  L 62,72  L 63,72  L 63,71  L 64,71  L 64,68  L 61,68  L 61,69  L 57,69  L 57,70  L 54,70  L 54,71  L 51,71  L 51,72  L 48,72  L 48,73  L 42,73  L 42,74  L 36,74  L 36,75  L 30,75  L 30,76  L 27,76  L 27,77  L 20,77  L 20,76  L 17,76  L 17,75  L 16,75  L 16,72  L 15,72  L 15,67  L 14,67  L 14,66  L 15,66  L 15,65  L 14,65  L 14,49  L 13,49  L 13,48  L 14,48  L 14,45  L 13,45  L 13,44  L 14,44  L 14,41  L 13,41  L 13,34  L 14,34  L 14,33  L 13,33  L 13,27  L 14,27  L 14,26  L 31,26  L 31,25  L 41,25  L 41,24  L 50,24  L 50,23  L 55,23  L 55,22  L 58,22  L 58,21  L 59,21  L 59,18  L 58,18  L 58,17  L 57,17  L 57,16  L 47,16  L 47,17  L 38,17  L 38,18  L 35,18  L 35,17  L 34,17  L 34,18  L 27,18  L 27,19  L 14,19  L 14,18  L 6,18  L 6,19  L 4,19  L 4,20  L 3,20  L 3,21  L 2,21  L 2,22  L 0,22  L 0,26  L 3,26  L 3,27  L 4,27  L 4,28  L 5,28  L 5,32  L 6,32  L 6,64  L 7,64  L 7,65  L 6,65  L 6,66  L 7,66  L 7,73  L 8,73  L 8,77  L 9,77  L 9,78  L 10,78  L 10,79  L 11,79  L 11,80  L 12,80  L 12,81  L 13,81  L 13,82  L 15,82  L 15,83  L 16,83  L 16,84  L 30,84  L 30,83  L 33,83  L 33,82  Z  " style="fill:rgb(0, 0, 0); fill-opacity:1.000; stroke:none;" />
 <path d="  M 96,155  L 96,156  L 94,156  L 94,157  L 90,157  L 90,158  L 86,158  L 86,159  L 81,159  L 81,160  L 75,160  L 75,161  L 68,161  L 68,162  L 67,162  L 67,161  L 66,161  L 66,162  L 55,162  L 55,163  L 49,163  L 49,162  L 44,162  L 44,161  L 42,161  L 42,159  L 41,159  L 41,152  L 40,152  L 40,124  L 41,124  L 41,122  L 46,122  L 46,121  L 49,121  L 49,122  L 50,122  L 50,121  L 57,121  L 57,120  L 63,120  L 63,119  L 69,119  L 69,118  L 75,118  L 75,117  L 83,117  L 83,116  L 89,116  L 89,115  L 93,115  L 93,114  L 98,114  L 98,113  L 99,113  L 99,112  L 101,112  L 101,107  L 99,107  L 99,106  L 96,106  L 96,107  L 95,107  L 95,106  L 94,106  L 94,107  L 90,107  L 90,108  L 85,108  L 85,109  L 78,109  L 78,110  L 70,110  L 70,111  L 64,111  L 64,112  L 55,112  L 55,113  L 46,113  L 46,114  L 45,114  L 45,113  L 33,113  L 33,114  L 30,114  L 30,115  L 28,115  L 28,117  L 27,117  L 27,120  L 28,120  L 28,121  L 30,121  L 30,122  L 31,122  L 31,123  L 32,123  L 32,126  L 33,126  L 33,136  L 32,136  L 32,138  L 33,138  L 33,139  L 32,139  L 32,142  L 33,142  L 33,143  L 32,143  L 32,146  L 33,146  L 33,157  L 34,157  L 34,160  L 35,160  L 35,164  L 36,164  L 36,166  L 38,166  L 38,167  L 40,167  L 40,168  L 41,168  L 41,169  L 74,169  L 74,168  L 79,168  L 79,167  L 83,167  L 83,166  L 87,166  L 87,165  L 88,165  L 88,166  L 89,166  L 89,165  L 94,165  L 94,164  L 96,164  L 96,163  L 99,163  L 99,162  L 100,162  L 100,161  L 101,161  L 101,154  L 100,154  L 100,155  Z  " style="fill:rgb(0, 0, 0); fill-opacity:1.000; stroke:none;" />
 <path d="  M 92,95  L 93,95  L 93,96  L 97,96  L 97,95  L 98,95  L 98,94  L 99,94  L 99,93  L 98,93  L 98,92  L 99,92  L 99,78  L 100,78  L 100,77  L 99,77  L 99,76  L 100,76  L 100,75  L 99,75  L 99,74  L 100,74  L 100,73  L 99,73  L 99,72  L 100,72  L 100,71  L 99,71  L 99,70  L 100,70  L 100,69  L 99,69  L 99,68  L 100,68  L 100,67  L 99,67  L 99,66  L 100,66  L 100,65  L 99,65  L 99,64  L 100,64  L 100,63  L 99,63  L 99,62  L 100,62  L 100,61  L 99,61  L 99,60  L 100,60  L 100,59  L 99,59  L 99,58  L 100,58  L 100,57  L 99,57  L 99,56  L 100,56  L 100,55  L 99,55  L 99,54  L 100,54  L 100,53  L 99,53  L 99,52  L 100,52  L 100,51  L 99,51  L 99,50  L 100,50  L 100,49  L 99,49  L 99,48  L 100,48  L 100,47  L 99,47  L 99,46  L 100,46  L 100,45  L 99,45  L 99,44  L 100,44  L 100,43  L 99,43  L 99,28  L 98,28  L 98,19  L 97,19  L 97,11  L 96,11  L 96,10  L 97,10  L 97,9  L 96,9  L 96,4  L 95,4  L 95,3  L 94,3  L 94,2  L 93,2  L 93,1  L 91,1  L 91,0  L 89,0  L 89,1  L 88,1  L 88,3  L 87,3  L 87,4  L 88,4  L 88,10  L 89,10  L 89,11  L 88,11  L 88,12  L 89,12  L 89,18  L 90,18  L 90,26  L 91,26  L 91,36  L 92,36  Z  " style="fill:rgb(0, 0, 0); fill-opacity:1.000; stroke:none;" />
</svg>
