<?xml version="1.0" encoding="UTF-8" standalone="no"?>
<!DOCTYPE svg PUBLIC "-//W3C//DTD SVG 1.1//EN" 
  "http://www.w3.org/Graphics/SVG/1.1/DTD/svg11.dtd">
<svg width="104" height="184"
     xmlns="http://www.w3.org/2000/svg" version="1.1">
 <path d="  M 57,20  L 57,19  L 61,19  L 61,17  L 62,17  L 62,16  L 61,16  L 61,14  L 60,14  L 60,13  L 59,13  L 59,12  L 58,12  L 58,11  L 56,11  L 56,12  L 53,12  L 53,13  L 50,13  L 50,14  L 45,14  L 45,15  L 43,15  L 43,14  L 42,14  L 42,15  L 39,15  L 39,16  L 34,16  L 34,17  L 29,17  L 29,18  L 12,18  L 12,19  L 9,19  L 9,20  L 7,20  L 7,21  L 6,21  L 6,23  L 4,23  L 4,25  L 3,25  L 3,26  L 2,26  L 2,27  L 1,27  L 1,29  L 2,29  L 2,28  L 3,28  L 3,27  L 4,27  L 4,29  L 5,29  L 5,32  L 6,32  L 6,36  L 5,36  L 5,39  L 6,39  L 6,41  L 5,41  L 5,42  L 6,42  L 6,68  L 7,68  L 7,70  L 6,70  L 6,71  L 7,71  L 7,78  L 8,78  L 8,84  L 9,84  L 9,87  L 10,87  L 10,88  L 11,88  L 11,89  L 13,89  L 13,90  L 17,90  L 17,91  L 30,91  L 30,90  L 33,90  L 33,89  L 39,89  L 39,88  L 43,88  L 43,87  L 47,87  L 47,86  L 53,86  L 53,85  L 62,85  L 62,84  L 65,84  L 65,83  L 67,83  L 67,82  L 68,82  L 68,81  L 69,81  L 69,78  L 68,78  L 68,77  L 67,77  L 67,76  L 60,76  L 60,77  L 55,77  L 55,78  L 50,78  L 50,79  L 43,79  L 43,80  L 38,80  L 38,81  L 34,81  L 34,82  L 26,82  L 26,83  L 19,83  L 19,82  L 17,82  L 17,80  L 16,80  L 16,72  L 15,72  L 15,70  L 16,70  L 16,69  L 15,69  L 15,56  L 14,56  L 14,42  L 13,42  L 13,41  L 14,41  L 14,40  L 13,40  L 13,39  L 14,39  L 14,38  L 13,38  L 13,35  L 14,35  L 14,34  L 13,34  L 13,31  L 14,31  L 14,28  L 16,28  L 16,27  L 19,27  L 19,26  L 30,26  L 30,25  L 37,25  L 37,24  L 43,24  L 43,23  L 47,23  L 47,22  L 50,22  L 50,21  L 53,21  L 53,20  Z  " style="fill:rgb(0, 0, 0); fill-opacity:1.000; stroke:none;" />
 <path d="  M 35,120  L 36,120  L 36,123  L 39,123  L 39,124  L 40,124  L 40,123  L 44,123  L 44,122  L 46,122  L 46,121  L 55,121  L 55,120  L 56,120  L 56,121  L 59,121  L 59,120  L 60,120  L 60,121  L 68,121  L 68,122  L 72,122  L 72,123  L 77,123  L 77,124  L 80,124  L 80,125  L 81,125  L 81,126  L 82,126  L 82,127  L 84,127  L 84,129  L 85,129  L 85,130  L 84,130  L 84,132  L 83,132  L 83,133  L 82,133  L 82,134  L 80,134  L 80,135  L 78,135  L 78,136  L 77,136  L 77,137  L 75,137  L 75,138  L 74,138  L 74,139  L 71,139  L 71,140  L 68,140  L 68,141  L 65,141  L 65,142  L 61,142  L 61,143  L 58,143  L 58,144  L 53,144  L 53,145  L 49,145  L 49,146  L 46,146  L 46,147  L 44,147  L 44,149  L 42,149  L 42,150  L 41,150  L 41,151  L 40,151  L 40,152  L 38,152  L 38,154  L 37,154  L 37,155  L 36,155  L 36,159  L 35,159  L 35,161  L 34,161  L 34,169  L 35,169  L 35,172  L 36,172  L 36,174  L 37,174  L 37,177  L 39,177  L 39,178  L 40,178  L 40,179  L 42,179  L 42,180  L 44,180  L 44,181  L 45,181  L 45,182  L 46,182  L 46,181  L 48,181  L 48,182  L 49,182  L 49,183  L 54,183  L 54,184  L 75,184  L 75,183  L 76,183  L 76,184  L 77,184  L 77,183  L 83,183  L 83,182  L 87,182  L 87,181  L 91,181  L 91,180  L 93,180  L 93,179  L 94,179  L 94,178  L 95,178  L 95,177  L 96,177  L 96,176  L 97,176  L 97,175  L 98,175  L 98,174  L 99,174  L 99,172  L 100,172  L 100,169  L 95,169  L 95,170  L 93,170  L 93,171  L 91,171  L 91,172  L 89,172  L 89,173  L 85,173  L 85,174  L 80,174  L 80,175  L 79,175  L 79,174  L 78,174  L 78,175  L 75,175  L 75,176  L 69,176  L 69,177  L 59,177  L 59,176  L 53,176  L 53,175  L 48,175  L 48,174  L 46,174  L 46,172  L 45,172  L 45,170  L 44,170  L 44,165  L 43,165  L 43,160  L 44,160  L 44,157  L 45,157  L 45,156  L 47,156  L 47,155  L 48,155  L 48,154  L 50,154  L 50,153  L 53,153  L 53,152  L 57,152  L 57,151  L 62,151  L 62,150  L 66,150  L 66,149  L 71,149  L 71,148  L 75,148  L 75,147  L 77,147  L 77,146  L 78,146  L 78,145  L 79,145  L 79,144  L 81,144  L 81,143  L 82,143  L 82,142  L 83,142  L 83,141  L 85,141  L 85,140  L 87,140  L 87,138  L 89,138  L 89,137  L 90,137  L 90,136  L 91,136  L 91,135  L 93,135  L 93,134  L 92,134  L 92,132  L 93,132  L 93,126  L 92,126  L 92,125  L 91,125  L 91,123  L 90,123  L 90,122  L 89,122  L 89,121  L 88,121  L 88,120  L 86,120  L 86,119  L 85,119  L 85,118  L 83,118  L 83,117  L 81,117  L 81,116  L 76,116  L 76,115  L 75,115  L 75,114  L 74,114  L 74,115  L 73,115  L 73,114  L 62,114  L 62,113  L 61,113  L 61,114  L 60,114  L 60,113  L 49,113  L 49,114  L 48,114  L 48,113  L 47,113  L 47,114  L 46,114  L 46,113  L 45,113  L 45,114  L 38,114  L 38,115  L 37,115  L 37,116  L 36,116  L 36,118  L 35,118  Z  " style="fill:rgb(0, 0, 0); fill-opacity:1.000; stroke:none;" />
 <path d="  M 104,18  L 103,18  L 103,17  L 104,17  L 104,16  L 103,16  L 103,15  L 104,15  L 104,14  L 103,14  L 103,3  L 102,3  L 102,1  L 100,1  L 100,0  L 98,0  L 98,1  L 96,1  L 96,2  L 95,2  L 95,5  L 96,5  L 96,79  L 97,79  L 97,80  L 96,80  L 96,81  L 97,81  L 97,82  L 96,82  L 96,83  L 97,83  L 97,84  L 96,84  L 96,85  L 97,85  L 97,86  L 96,86  L 96,87  L 97,87  L 97,88  L 96,88  L 96,89  L 97,89  L 97,103  L 98,103  L 98,105  L 99,105  L 99,106  L 100,106  L 100,107  L 101,107  L 101,106  L 104,106  Z  " style="fill:rgb(0, 0, 0); fill-opacity:1.000; stroke:none;" />
</svg>
