<?xml version="1.0" encoding="UTF-8" standalone="no"?>
<!DOCTYPE svg PUBLIC "-//W3C//DTD SVG 1.1//EN" 
  "http://www.w3.org/Graphics/SVG/1.1/DTD/svg11.dtd">
<svg width="105" height="157"
     xmlns="http://www.w3.org/2000/svg" version="1.1">
 <path d="  M 1,26  L 1,27  L 3,27  L 3,26  Z  " style="fill:rgb(0, 0, 0); fill-opacity:1.000; stroke:none;" />
 <path d="  M 5,28  L 6,28  L 6,29  L 7,29  L 7,30  L 8,30  L 8,33  L 9,33  L 9,45  L 10,45  L 10,46  L 9,46  L 9,47  L 10,47  L 10,69  L 11,69  L 11,74  L 12,74  L 12,77  L 14,77  L 14,78  L 15,78  L 15,79  L 16,79  L 16,80  L 18,80  L 18,81  L 19,81  L 19,80  L 20,80  L 20,81  L 23,81  L 23,82  L 25,82  L 25,81  L 29,81  L 29,80  L 30,80  L 30,81  L 31,81  L 31,80  L 35,80  L 35,79  L 36,79  L 36,80  L 37,80  L 37,79  L 43,79  L 43,78  L 51,78  L 51,77  L 52,77  L 52,78  L 53,78  L 53,77  L 59,77  L 59,76  L 62,76  L 62,75  L 63,75  L 63,74  L 64,74  L 64,73  L 65,73  L 65,72  L 66,72  L 66,70  L 67,70  L 67,67  L 63,67  L 63,68  L 60,68  L 60,69  L 56,69  L 56,70  L 52,70  L 52,71  L 46,71  L 46,72  L 38,72  L 38,73  L 31,73  L 31,74  L 20,74  L 20,73  L 19,73  L 19,72  L 18,72  L 18,60  L 17,60  L 17,59  L 18,59  L 18,58  L 17,58  L 17,57  L 18,57  L 18,56  L 17,56  L 17,44  L 16,44  L 16,28  L 19,28  L 19,29  L 21,29  L 21,28  L 24,28  L 24,29  L 25,29  L 25,28  L 31,28  L 31,27  L 38,27  L 38,26  L 45,26  L 45,25  L 51,25  L 51,24  L 58,24  L 58,23  L 59,23  L 59,22  L 61,22  L 61,21  L 62,21  L 62,18  L 60,18  L 60,16  L 54,16  L 54,17  L 50,17  L 50,18  L 49,18  L 49,17  L 48,17  L 48,18  L 42,18  L 42,19  L 35,19  L 35,20  L 26,20  L 26,21  L 23,21  L 23,20  L 22,20  L 22,21  L 19,21  L 19,20  L 11,20  L 11,19  L 10,19  L 10,20  L 8,20  L 8,21  L 6,21  L 6,22  L 4,22  L 4,23  L 3,23  L 3,26  L 4,26  L 4,27  L 5,27  Z  " style="fill:rgb(0, 0, 0); fill-opacity:1.000; stroke:none;" />
 <path d="  M 95,148  L 95,147  L 94,147  L 94,146  L 92,146  L 92,145  L 91,145  L 91,144  L 88,144  L 88,143  L 87,143  L 87,142  L 86,142  L 86,141  L 84,141  L 84,140  L 82,140  L 82,139  L 81,139  L 81,138  L 80,138  L 80,137  L 79,137  L 79,136  L 78,136  L 78,135  L 77,135  L 77,134  L 75,134  L 75,133  L 73,133  L 73,132  L 71,132  L 71,131  L 69,131  L 69,130  L 68,130  L 68,129  L 67,129  L 67,128  L 65,128  L 65,127  L 64,127  L 64,126  L 63,126  L 63,125  L 61,125  L 61,124  L 60,124  L 60,123  L 59,123  L 59,122  L 58,122  L 58,121  L 57,121  L 57,120  L 56,120  L 56,118  L 57,118  L 57,116  L 58,116  L 58,115  L 59,115  L 59,114  L 60,114  L 60,113  L 62,113  L 62,111  L 63,111  L 63,110  L 64,110  L 64,109  L 66,109  L 66,108  L 67,108  L 67,107  L 68,107  L 68,105  L 69,105  L 69,99  L 65,99  L 65,100  L 63,100  L 63,101  L 62,101  L 62,102  L 61,102  L 61,103  L 60,103  L 60,104  L 58,104  L 58,105  L 57,105  L 57,106  L 56,106  L 56,107  L 55,107  L 55,108  L 54,108  L 54,109  L 53,109  L 53,111  L 52,111  L 52,112  L 50,112  L 50,113  L 49,113  L 49,114  L 48,114  L 48,116  L 46,116  L 46,118  L 45,118  L 45,119  L 44,119  L 44,121  L 43,121  L 43,122  L 42,122  L 42,123  L 41,123  L 41,124  L 40,124  L 40,126  L 39,126  L 39,127  L 38,127  L 38,128  L 37,128  L 37,130  L 36,130  L 36,132  L 35,132  L 35,133  L 34,133  L 34,134  L 33,134  L 33,136  L 32,136  L 32,137  L 31,137  L 31,138  L 30,138  L 30,140  L 29,140  L 29,141  L 28,141  L 28,142  L 27,142  L 27,144  L 25,144  L 25,145  L 24,145  L 24,146  L 23,146  L 23,148  L 22,148  L 22,149  L 21,149  L 21,152  L 20,152  L 20,153  L 21,153  L 21,156  L 22,156  L 22,157  L 26,157  L 26,156  L 27,156  L 27,155  L 28,155  L 28,153  L 29,153  L 29,152  L 30,152  L 30,151  L 31,151  L 31,150  L 32,150  L 32,149  L 33,149  L 33,148  L 34,148  L 34,146  L 35,146  L 35,145  L 36,145  L 36,144  L 37,144  L 37,143  L 38,143  L 38,141  L 39,141  L 39,140  L 40,140  L 40,138  L 41,138  L 41,136  L 42,136  L 42,135  L 43,135  L 43,134  L 44,134  L 44,133  L 45,133  L 45,131  L 46,131  L 46,130  L 47,130  L 47,128  L 48,128  L 48,126  L 52,126  L 52,127  L 53,127  L 53,128  L 54,128  L 54,129  L 55,129  L 55,130  L 56,130  L 56,131  L 58,131  L 58,132  L 60,132  L 60,133  L 62,133  L 62,134  L 63,134  L 63,135  L 64,135  L 64,136  L 66,136  L 66,137  L 67,137  L 67,138  L 69,138  L 69,139  L 70,139  L 70,140  L 72,140  L 72,141  L 73,141  L 73,142  L 74,142  L 74,143  L 76,143  L 76,144  L 77,144  L 77,145  L 79,145  L 79,146  L 80,146  L 80,147  L 81,147  L 81,148  L 82,148  L 82,149  L 84,149  L 84,150  L 85,150  L 85,151  L 88,151  L 88,152  L 90,152  L 90,153  L 91,153  L 91,154  L 93,154  L 93,155  L 95,155  L 95,156  L 97,156  L 97,157  L 105,157  L 105,152  L 104,152  L 104,151  L 102,151  L 102,150  L 100,150  L 100,149  L 97,149  L 97,148  Z  " style="fill:rgb(0, 0, 0); fill-opacity:1.000; stroke:none;" />
 <path d="  M 94,33  L 95,33  L 95,48  L 96,48  L 96,84  L 97,84  L 97,86  L 96,86  L 96,88  L 97,88  L 97,90  L 96,90  L 96,91  L 97,91  L 97,97  L 98,97  L 98,99  L 99,99  L 99,100  L 100,100  L 100,99  L 103,99  L 103,98  L 104,98  L 104,80  L 103,80  L 103,79  L 104,79  L 104,76  L 103,76  L 103,75  L 104,75  L 104,72  L 103,72  L 103,71  L 104,71  L 104,70  L 103,70  L 103,69  L 104,69  L 104,68  L 103,68  L 103,67  L 104,67  L 104,66  L 103,66  L 103,65  L 104,65  L 104,64  L 103,64  L 103,63  L 104,63  L 104,62  L 103,62  L 103,61  L 104,61  L 104,60  L 103,60  L 103,59  L 104,59  L 104,58  L 103,58  L 103,46  L 102,46  L 102,34  L 101,34  L 101,33  L 102,33  L 102,32  L 101,32  L 101,16  L 100,16  L 100,15  L 101,15  L 101,14  L 100,14  L 100,13  L 101,13  L 101,12  L 100,12  L 100,11  L 101,11  L 101,10  L 100,10  L 100,9  L 101,9  L 101,8  L 100,8  L 100,2  L 99,2  L 99,1  L 97,1  L 97,0  L 95,0  L 95,1  L 94,1  Z  " style="fill:rgb(0, 0, 0); fill-opacity:1.000; stroke:none;" />
</svg>
