<?xml version="1.0" encoding="UTF-8" standalone="no"?>
<!DOCTYPE svg PUBLIC "-//W3C//DTD SVG 1.1//EN" 
  "http://www.w3.org/Graphics/SVG/1.1/DTD/svg11.dtd">
<svg width="107" height="151"
     xmlns="http://www.w3.org/2000/svg" version="1.1">
 <path d="  M 39,71  L 39,70  L 45,70  L 45,69  L 51,69  L 51,68  L 55,68  L 55,67  L 58,67  L 58,66  L 60,66  L 60,65  L 62,65  L 62,64  L 63,64  L 63,62  L 64,62  L 64,59  L 58,59  L 58,60  L 56,60  L 56,61  L 52,61  L 52,62  L 48,62  L 48,63  L 44,63  L 44,64  L 38,64  L 38,65  L 32,65  L 32,66  L 20,66  L 20,65  L 18,65  L 18,61  L 17,61  L 17,44  L 16,44  L 16,41  L 17,41  L 17,40  L 16,40  L 16,22  L 27,22  L 27,21  L 28,21  L 28,22  L 31,22  L 31,21  L 39,21  L 39,20  L 40,20  L 40,21  L 41,21  L 41,20  L 49,20  L 49,19  L 54,19  L 54,18  L 57,18  L 57,17  L 58,17  L 58,14  L 57,14  L 57,12  L 48,12  L 48,13  L 47,13  L 47,12  L 46,12  L 46,13  L 39,13  L 39,14  L 29,14  L 29,15  L 17,15  L 17,14  L 13,14  L 13,13  L 8,13  L 8,14  L 4,14  L 4,15  L 3,15  L 3,17  L 2,17  L 2,18  L 0,18  L 0,19  L 1,19  L 1,21  L 0,21  L 0,22  L 1,22  L 1,23  L 2,23  L 2,22  L 5,22  L 5,23  L 6,23  L 6,22  L 8,22  L 8,25  L 9,25  L 9,27  L 8,27  L 8,29  L 9,29  L 9,41  L 10,41  L 10,42  L 9,42  L 9,43  L 10,43  L 10,62  L 11,62  L 11,68  L 12,68  L 12,69  L 13,69  L 13,70  L 14,70  L 14,71  L 15,71  L 15,72  L 17,72  L 17,73  L 29,73  L 29,72  L 34,72  L 34,71  Z  " style="fill:rgb(0, 0, 0); fill-opacity:1.000; stroke:none;" />
 <path d="  M 63,136  L 63,135  L 64,135  L 64,133  L 65,133  L 65,132  L 66,132  L 66,130  L 67,130  L 67,129  L 68,129  L 68,126  L 69,126  L 69,124  L 70,124  L 70,121  L 71,121  L 71,120  L 72,120  L 72,121  L 74,121  L 74,123  L 75,123  L 75,124  L 77,124  L 77,125  L 79,125  L 79,126  L 80,126  L 80,127  L 81,127  L 81,128  L 84,128  L 84,129  L 85,129  L 85,130  L 87,130  L 87,131  L 88,131  L 88,132  L 90,132  L 90,133  L 91,133  L 91,134  L 93,134  L 93,135  L 95,135  L 95,136  L 97,136  L 97,137  L 99,137  L 99,138  L 101,138  L 101,139  L 103,139  L 103,140  L 104,140  L 104,141  L 106,141  L 106,140  L 107,140  L 107,134  L 105,134  L 105,133  L 103,133  L 103,132  L 101,132  L 101,131  L 99,131  L 99,130  L 98,130  L 98,129  L 95,129  L 95,128  L 94,128  L 94,127  L 92,127  L 92,126  L 91,126  L 91,125  L 88,125  L 88,124  L 87,124  L 87,123  L 85,123  L 85,122  L 84,122  L 84,121  L 83,121  L 83,120  L 81,120  L 81,119  L 80,119  L 80,118  L 79,118  L 79,117  L 78,117  L 78,116  L 77,116  L 77,114  L 76,114  L 76,112  L 75,112  L 75,107  L 76,107  L 76,105  L 77,105  L 77,100  L 78,100  L 78,96  L 77,96  L 77,94  L 74,94  L 74,95  L 73,95  L 73,96  L 72,96  L 72,98  L 71,98  L 71,101  L 70,101  L 70,103  L 69,103  L 69,106  L 68,106  L 68,108  L 67,108  L 67,112  L 66,112  L 66,114  L 65,114  L 65,117  L 64,117  L 64,122  L 63,122  L 63,126  L 62,126  L 62,128  L 59,128  L 59,127  L 58,127  L 58,126  L 57,126  L 57,125  L 56,125  L 56,124  L 52,124  L 52,123  L 50,123  L 50,122  L 47,122  L 47,121  L 44,121  L 44,120  L 42,120  L 42,119  L 40,119  L 40,118  L 37,118  L 37,117  L 36,117  L 36,116  L 34,116  L 34,115  L 33,115  L 33,112  L 34,112  L 34,110  L 35,110  L 35,109  L 36,109  L 36,108  L 37,108  L 37,106  L 38,106  L 38,105  L 39,105  L 39,104  L 40,104  L 40,103  L 41,103  L 41,102  L 42,102  L 42,101  L 43,101  L 43,100  L 44,100  L 44,97  L 45,97  L 45,95  L 44,95  L 44,93  L 42,93  L 42,91  L 34,91  L 34,90  L 32,90  L 32,89  L 27,89  L 27,90  L 26,90  L 26,93  L 27,93  L 27,94  L 29,94  L 29,95  L 33,95  L 33,94  L 35,94  L 35,93  L 36,93  L 36,94  L 38,94  L 38,96  L 39,96  L 39,97  L 38,97  L 38,99  L 37,99  L 37,101  L 36,101  L 36,102  L 34,102  L 34,103  L 33,103  L 33,104  L 32,104  L 32,105  L 31,105  L 31,107  L 30,107  L 30,108  L 29,108  L 29,110  L 28,110  L 28,111  L 27,111  L 27,113  L 26,113  L 26,115  L 25,115  L 25,116  L 24,116  L 24,118  L 23,118  L 23,119  L 22,119  L 22,120  L 21,120  L 21,121  L 20,121  L 20,123  L 19,123  L 19,124  L 18,124  L 18,125  L 17,125  L 17,126  L 16,126  L 16,127  L 15,127  L 15,128  L 14,128  L 14,129  L 13,129  L 13,130  L 12,130  L 12,132  L 10,132  L 10,133  L 9,133  L 9,134  L 8,134  L 8,136  L 7,136  L 7,139  L 8,139  L 8,141  L 13,141  L 13,139  L 14,139  L 14,138  L 15,138  L 15,136  L 16,136  L 16,134  L 17,134  L 17,133  L 18,133  L 18,132  L 19,132  L 19,131  L 20,131  L 20,130  L 21,130  L 21,128  L 23,128  L 23,126  L 24,126  L 24,125  L 25,125  L 25,124  L 26,124  L 26,123  L 27,123  L 27,122  L 28,122  L 28,121  L 29,121  L 29,122  L 32,122  L 32,123  L 33,123  L 33,124  L 36,124  L 36,125  L 38,125  L 38,126  L 41,126  L 41,127  L 45,127  L 45,128  L 48,128  L 48,129  L 50,129  L 50,130  L 51,130  L 51,131  L 53,131  L 53,132  L 54,132  L 54,137  L 53,137  L 53,138  L 52,138  L 52,139  L 51,139  L 51,142  L 50,142  L 50,145  L 49,145  L 49,147  L 48,147  L 48,151  L 54,151  L 54,149  L 55,149  L 55,148  L 56,148  L 56,145  L 57,145  L 57,142  L 58,142  L 58,141  L 59,141  L 59,139  L 60,139  L 60,138  L 61,138  L 61,137  L 62,137  L 62,136  Z  " style="fill:rgb(0, 0, 0); fill-opacity:1.000; stroke:none;" />
 <path d="  M 76,89  L 77,89  L 77,91  L 81,91  L 81,90  L 82,90  L 82,85  L 83,85  L 83,39  L 82,39  L 82,38  L 83,38  L 83,36  L 82,36  L 82,18  L 81,18  L 81,17  L 82,17  L 82,16  L 81,16  L 81,15  L 82,15  L 82,14  L 81,14  L 81,2  L 80,2  L 80,1  L 79,1  L 79,0  L 75,0  L 75,4  L 74,4  L 74,11  L 75,11  L 75,33  L 76,33  Z  " style="fill:rgb(0, 0, 0); fill-opacity:1.000; stroke:none;" />
</svg>
