<?xml version="1.0" encoding="UTF-8" standalone="no"?>
<!DOCTYPE svg PUBLIC "-//W3C//DTD SVG 1.1//EN" 
  "http://www.w3.org/Graphics/SVG/1.1/DTD/svg11.dtd">
<svg width="110" height="123"
     xmlns="http://www.w3.org/2000/svg" version="1.1">
 <path d="  M 7,47  L 7,51  L 8,51  L 8,54  L 9,54  L 9,56  L 11,56  L 11,57  L 13,57  L 13,58  L 22,58  L 22,57  L 25,57  L 25,56  L 29,56  L 29,55  L 30,55  L 30,56  L 31,56  L 31,55  L 34,55  L 34,56  L 35,56  L 35,55  L 37,55  L 37,54  L 38,54  L 38,50  L 37,50  L 37,49  L 35,49  L 35,48  L 32,48  L 32,49  L 28,49  L 28,50  L 25,50  L 25,51  L 22,51  L 22,52  L 16,52  L 16,51  L 14,51  L 14,50  L 15,50  L 15,49  L 14,49  L 14,47  L 13,47  L 13,23  L 12,23  L 12,22  L 13,22  L 13,16  L 17,16  L 17,17  L 34,17  L 34,18  L 40,18  L 40,24  L 41,24  L 41,25  L 40,25  L 40,28  L 41,28  L 41,29  L 40,29  L 40,31  L 41,31  L 41,33  L 40,33  L 40,34  L 41,34  L 41,37  L 40,37  L 40,38  L 41,38  L 41,55  L 42,55  L 42,56  L 44,56  L 44,57  L 45,57  L 45,58  L 47,58  L 47,59  L 54,59  L 54,58  L 71,58  L 71,57  L 74,57  L 74,56  L 78,56  L 78,54  L 79,54  L 79,51  L 78,51  L 78,49  L 75,49  L 75,50  L 71,50  L 71,51  L 66,51  L 66,52  L 48,52  L 48,49  L 47,49  L 47,29  L 46,29  L 46,28  L 47,28  L 47,20  L 49,20  L 49,19  L 55,19  L 55,18  L 70,18  L 70,17  L 73,17  L 73,16  L 74,16  L 74,15  L 75,15  L 75,14  L 76,14  L 76,12  L 75,12  L 75,11  L 74,11  L 74,10  L 69,10  L 69,11  L 62,11  L 62,12  L 61,12  L 61,11  L 60,11  L 60,12  L 59,12  L 59,11  L 58,11  L 58,12  L 48,12  L 48,13  L 47,13  L 47,12  L 46,12  L 46,13  L 41,13  L 41,12  L 35,12  L 35,11  L 34,11  L 34,12  L 33,12  L 33,11  L 16,11  L 16,10  L 14,10  L 14,9  L 12,9  L 12,8  L 11,8  L 11,7  L 2,7  L 2,8  L 0,8  L 0,11  L 1,11  L 1,12  L 4,12  L 4,13  L 6,13  L 6,47  Z  " style="fill:rgb(0, 0, 0); fill-opacity:1.000; stroke:none;" />
 <path d="  M 35,116  L 36,116  L 36,114  L 37,114  L 37,112  L 38,112  L 38,110  L 39,110  L 39,108  L 40,108  L 40,106  L 41,106  L 41,105  L 42,105  L 42,103  L 43,103  L 43,102  L 44,102  L 44,101  L 45,101  L 45,99  L 46,99  L 46,98  L 47,98  L 47,97  L 48,97  L 48,96  L 49,96  L 49,95  L 50,95  L 50,94  L 53,94  L 53,95  L 55,95  L 55,97  L 58,97  L 58,98  L 60,98  L 60,99  L 62,99  L 62,100  L 63,100  L 63,102  L 65,102  L 65,103  L 67,103  L 67,104  L 70,104  L 70,105  L 71,105  L 71,106  L 72,106  L 72,107  L 74,107  L 74,108  L 75,108  L 75,109  L 77,109  L 77,110  L 79,110  L 79,111  L 82,111  L 82,112  L 83,112  L 83,113  L 84,113  L 84,114  L 86,114  L 86,115  L 87,115  L 87,116  L 91,116  L 91,117  L 92,117  L 92,116  L 95,116  L 95,112  L 94,112  L 94,111  L 93,111  L 93,110  L 91,110  L 91,109  L 90,109  L 90,108  L 88,108  L 88,107  L 87,107  L 87,106  L 85,106  L 85,105  L 83,105  L 83,104  L 82,104  L 82,103  L 81,103  L 81,102  L 79,102  L 79,101  L 78,101  L 78,100  L 75,100  L 75,99  L 73,99  L 73,98  L 71,98  L 71,96  L 70,96  L 70,95  L 69,95  L 69,94  L 68,94  L 68,93  L 67,93  L 67,92  L 62,92  L 62,91  L 61,91  L 61,90  L 60,90  L 60,89  L 59,89  L 59,88  L 57,88  L 57,86  L 58,86  L 58,85  L 59,85  L 59,84  L 60,84  L 60,83  L 61,83  L 61,82  L 62,82  L 62,81  L 63,81  L 63,79  L 64,79  L 64,76  L 65,76  L 65,74  L 64,74  L 64,71  L 60,71  L 60,72  L 59,72  L 59,73  L 58,73  L 58,74  L 57,74  L 57,75  L 56,75  L 56,78  L 55,78  L 55,79  L 54,79  L 54,80  L 53,80  L 53,82  L 51,82  L 51,83  L 49,83  L 49,85  L 48,85  L 48,87  L 46,87  L 46,88  L 45,88  L 45,90  L 44,90  L 44,91  L 43,91  L 43,92  L 42,92  L 42,93  L 41,93  L 41,95  L 40,95  L 40,97  L 39,97  L 39,98  L 38,98  L 38,100  L 37,100  L 37,101  L 36,101  L 36,103  L 35,103  L 35,104  L 34,104  L 34,105  L 33,105  L 33,108  L 32,108  L 32,109  L 31,109  L 31,111  L 30,111  L 30,112  L 29,112  L 29,114  L 28,114  L 28,116  L 27,116  L 27,117  L 26,117  L 26,122  L 27,122  L 27,123  L 32,123  L 32,121  L 33,121  L 33,120  L 34,120  L 34,119  L 35,119  Z  " style="fill:rgb(0, 0, 0); fill-opacity:1.000; stroke:none;" />
 <path d="  M 83,39  L 82,39  L 82,40  L 83,40  L 83,43  L 82,43  L 82,62  L 83,62  L 83,63  L 82,63  L 82,65  L 83,65  L 83,67  L 82,67  L 82,68  L 83,68  L 83,70  L 86,70  L 86,69  L 88,69  L 88,42  L 89,42  L 89,41  L 88,41  L 88,38  L 89,38  L 89,32  L 90,32  L 90,31  L 91,31  L 91,30  L 110,30  L 110,26  L 109,26  L 109,25  L 107,25  L 107,24  L 95,24  L 95,23  L 94,23  L 94,24  L 89,24  L 89,8  L 90,8  L 90,2  L 89,2  L 89,0  L 87,0  L 87,1  L 85,1  L 85,3  L 84,3  L 84,8  L 83,8  Z  " style="fill:rgb(0, 0, 0); fill-opacity:1.000; stroke:none;" />
</svg>
