<?xml version="1.0" encoding="UTF-8" standalone="no"?>
<!DOCTYPE svg PUBLIC "-//W3C//DTD SVG 1.1//EN" 
  "http://www.w3.org/Graphics/SVG/1.1/DTD/svg11.dtd">
<svg width="109" height="124"
     xmlns="http://www.w3.org/2000/svg" version="1.1">
 <path d="  M 60,51  L 60,52  L 59,52  L 59,51  L 58,51  L 58,52  L 51,52  L 51,53  L 50,53  L 50,52  L 49,52  L 49,53  L 48,53  L 48,52  L 47,52  L 47,35  L 46,35  L 46,34  L 47,34  L 47,31  L 46,31  L 46,23  L 47,23  L 47,22  L 46,22  L 46,21  L 47,21  L 47,18  L 49,18  L 49,17  L 57,17  L 57,16  L 58,16  L 58,17  L 59,17  L 59,16  L 72,16  L 72,15  L 74,15  L 74,14  L 76,14  L 76,12  L 77,12  L 77,10  L 76,10  L 76,9  L 74,9  L 74,8  L 70,8  L 70,9  L 66,9  L 66,10  L 65,10  L 65,9  L 64,9  L 64,10  L 63,10  L 63,9  L 62,9  L 62,10  L 61,10  L 61,9  L 60,9  L 60,10  L 59,10  L 59,9  L 58,9  L 58,10  L 52,10  L 52,11  L 51,11  L 51,10  L 50,10  L 50,11  L 47,11  L 47,10  L 46,10  L 46,11  L 41,11  L 41,10  L 35,10  L 35,9  L 34,9  L 34,10  L 33,10  L 33,9  L 24,9  L 24,10  L 23,10  L 23,9  L 22,9  L 22,10  L 21,10  L 21,9  L 20,9  L 20,10  L 19,10  L 19,9  L 18,9  L 18,10  L 17,10  L 17,9  L 14,9  L 14,8  L 13,8  L 13,7  L 10,7  L 10,6  L 8,6  L 8,5  L 6,5  L 6,6  L 5,6  L 5,5  L 2,5  L 2,6  L 0,6  L 0,10  L 1,10  L 1,11  L 5,11  L 5,12  L 6,12  L 6,46  L 7,46  L 7,51  L 8,51  L 8,54  L 9,54  L 9,56  L 12,56  L 12,57  L 19,57  L 19,56  L 22,56  L 22,55  L 35,55  L 35,54  L 37,54  L 37,53  L 38,53  L 38,50  L 36,50  L 36,49  L 35,49  L 35,48  L 26,48  L 26,49  L 22,49  L 22,50  L 19,50  L 19,51  L 14,51  L 14,50  L 13,50  L 13,48  L 14,48  L 14,47  L 13,47  L 13,42  L 14,42  L 14,41  L 13,41  L 13,22  L 14,22  L 14,21  L 13,21  L 13,15  L 14,15  L 14,14  L 16,14  L 16,15  L 30,15  L 30,16  L 40,16  L 40,38  L 41,38  L 41,39  L 40,39  L 40,42  L 41,42  L 41,43  L 40,43  L 40,44  L 41,44  L 41,48  L 40,48  L 40,51  L 41,51  L 41,54  L 42,54  L 42,56  L 43,56  L 43,57  L 45,57  L 45,58  L 47,58  L 47,59  L 51,59  L 51,58  L 58,58  L 58,57  L 63,57  L 63,56  L 71,56  L 71,55  L 73,55  L 73,53  L 74,53  L 74,52  L 75,52  L 75,51  L 76,51  L 76,50  L 78,50  L 78,48  L 77,48  L 77,47  L 76,47  L 76,48  L 72,48  L 72,49  L 68,49  L 68,50  L 64,50  L 64,51  Z  " style="fill:rgb(0, 0, 0); fill-opacity:1.000; stroke:none;" />
 <path d="  M 39,87  L 40,87  L 40,86  L 41,86  L 41,85  L 42,85  L 42,84  L 43,84  L 43,83  L 44,83  L 44,82  L 45,82  L 45,79  L 46,79  L 46,78  L 47,78  L 47,74  L 48,74  L 48,73  L 47,73  L 47,70  L 46,70  L 46,69  L 44,69  L 44,70  L 43,70  L 43,71  L 41,71  L 41,77  L 40,77  L 40,78  L 41,78  L 41,79  L 40,79  L 40,81  L 39,81  L 39,82  L 38,82  L 38,83  L 37,83  L 37,84  L 36,84  L 36,85  L 35,85  L 35,86  L 34,86  L 34,87  L 33,87  L 33,88  L 32,88  L 32,90  L 31,90  L 31,91  L 30,91  L 30,93  L 29,93  L 29,94  L 28,94  L 28,95  L 27,95  L 27,97  L 26,97  L 26,98  L 25,98  L 25,99  L 24,99  L 24,100  L 23,100  L 23,101  L 22,101  L 22,102  L 21,102  L 21,103  L 20,103  L 20,104  L 19,104  L 19,105  L 18,105  L 18,106  L 16,106  L 16,107  L 15,107  L 15,108  L 14,108  L 14,109  L 13,109  L 13,111  L 12,111  L 12,114  L 13,114  L 13,115  L 14,115  L 14,116  L 15,116  L 15,115  L 17,115  L 17,114  L 18,114  L 18,113  L 19,113  L 19,112  L 20,112  L 20,111  L 21,111  L 21,110  L 23,110  L 23,109  L 24,109  L 24,108  L 25,108  L 25,107  L 26,107  L 26,106  L 28,106  L 28,104  L 29,104  L 29,103  L 30,103  L 30,102  L 31,102  L 31,101  L 32,101  L 32,100  L 33,100  L 33,99  L 36,99  L 36,100  L 39,100  L 39,101  L 43,101  L 43,102  L 46,102  L 46,103  L 47,103  L 47,104  L 49,104  L 49,105  L 51,105  L 51,106  L 55,106  L 55,107  L 56,107  L 56,108  L 55,108  L 55,110  L 54,110  L 54,111  L 53,111  L 53,113  L 52,113  L 52,114  L 51,114  L 51,116  L 50,116  L 50,118  L 49,118  L 49,120  L 48,120  L 48,124  L 52,124  L 52,123  L 53,123  L 53,122  L 54,122  L 54,120  L 55,120  L 55,118  L 56,118  L 56,116  L 58,116  L 58,115  L 59,115  L 59,114  L 60,114  L 60,112  L 61,112  L 61,111  L 62,111  L 62,109  L 63,109  L 63,107  L 64,107  L 64,106  L 65,106  L 65,104  L 66,104  L 66,101  L 67,101  L 67,99  L 68,99  L 68,98  L 69,98  L 69,99  L 71,99  L 71,100  L 72,100  L 72,101  L 73,101  L 73,102  L 75,102  L 75,103  L 77,103  L 77,104  L 78,104  L 78,105  L 80,105  L 80,106  L 83,106  L 83,107  L 84,107  L 84,108  L 86,108  L 86,109  L 90,109  L 90,110  L 91,110  L 91,111  L 94,111  L 94,112  L 102,112  L 102,111  L 104,111  L 104,109  L 103,109  L 103,108  L 100,108  L 100,107  L 97,107  L 97,106  L 95,106  L 95,105  L 93,105  L 93,104  L 91,104  L 91,103  L 88,103  L 88,102  L 86,102  L 86,101  L 84,101  L 84,100  L 82,100  L 82,99  L 80,99  L 80,98  L 79,98  L 79,97  L 77,97  L 77,96  L 76,96  L 76,95  L 75,95  L 75,93  L 73,93  L 73,92  L 72,92  L 72,91  L 73,91  L 73,88  L 74,88  L 74,87  L 75,87  L 75,85  L 76,85  L 76,83  L 77,83  L 77,82  L 78,82  L 78,81  L 79,81  L 79,79  L 80,79  L 80,76  L 74,76  L 74,77  L 73,77  L 73,78  L 72,78  L 72,79  L 71,79  L 71,81  L 70,81  L 70,83  L 69,83  L 69,84  L 68,84  L 68,87  L 67,87  L 67,89  L 66,89  L 66,90  L 65,90  L 65,92  L 64,92  L 64,94  L 63,94  L 63,97  L 62,97  L 62,98  L 61,98  L 61,100  L 60,100  L 60,101  L 59,101  L 59,102  L 56,102  L 56,101  L 55,101  L 55,100  L 53,100  L 53,99  L 51,99  L 51,98  L 49,98  L 49,97  L 47,97  L 47,96  L 44,96  L 44,95  L 41,95  L 41,94  L 39,94  L 39,93  L 35,93  L 35,91  L 36,91  L 36,89  L 37,89  L 37,88  L 39,88  Z  " style="fill:rgb(0, 0, 0); fill-opacity:1.000; stroke:none;" />
 <path d="  M 26,69  L 26,71  L 25,71  L 25,72  L 26,72  L 26,74  L 28,74  L 28,75  L 34,75  L 34,69  Z  " style="fill:rgb(0, 0, 0); fill-opacity:1.000; stroke:none;" />
 <path d="  M 88,1  L 87,1  L 87,0  L 84,0  L 84,1  L 82,1  L 82,4  L 81,4  L 81,7  L 80,7  L 80,8  L 81,8  L 81,19  L 80,19  L 80,20  L 81,20  L 81,23  L 80,23  L 80,49  L 79,49  L 79,52  L 80,52  L 80,66  L 81,66  L 81,67  L 84,67  L 84,66  L 85,66  L 85,65  L 86,65  L 86,55  L 85,55  L 85,52  L 86,52  L 86,51  L 85,51  L 85,50  L 86,50  L 86,49  L 85,49  L 85,48  L 86,48  L 86,47  L 85,47  L 85,46  L 86,46  L 86,45  L 85,45  L 85,44  L 86,44  L 86,43  L 85,43  L 85,42  L 86,42  L 86,41  L 85,41  L 85,40  L 86,40  L 86,39  L 85,39  L 85,38  L 86,38  L 86,30  L 87,30  L 87,29  L 89,29  L 89,28  L 107,28  L 107,27  L 108,27  L 108,28  L 109,28  L 109,23  L 107,23  L 107,22  L 103,22  L 103,21  L 102,21  L 102,22  L 95,22  L 95,21  L 94,21  L 94,22  L 87,22  L 87,8  L 88,8  L 88,7  L 87,7  L 87,6  L 88,6  Z  " style="fill:rgb(0, 0, 0); fill-opacity:1.000; stroke:none;" />
</svg>
