<?xml version="1.0" encoding="UTF-8" standalone="no"?>
<!DOCTYPE svg PUBLIC "-//W3C//DTD SVG 1.1//EN" 
  "http://www.w3.org/Graphics/SVG/1.1/DTD/svg11.dtd">
<svg width="108" height="128"
     xmlns="http://www.w3.org/2000/svg" version="1.1">
 <path d="  M 34,15  L 34,14  L 37,14  L 37,13  L 39,13  L 39,14  L 41,14  L 41,21  L 42,21  L 42,22  L 41,22  L 41,25  L 42,25  L 42,26  L 41,26  L 41,29  L 42,29  L 42,30  L 41,30  L 41,33  L 42,33  L 42,34  L 41,34  L 41,37  L 42,37  L 42,38  L 41,38  L 41,39  L 42,39  L 42,57  L 43,57  L 43,58  L 42,58  L 42,60  L 43,60  L 43,61  L 44,61  L 44,62  L 46,62  L 46,63  L 47,63  L 47,62  L 49,62  L 49,63  L 55,63  L 55,62  L 62,62  L 62,61  L 67,61  L 67,60  L 68,60  L 68,61  L 69,61  L 69,60  L 72,60  L 72,59  L 77,59  L 77,58  L 78,58  L 78,57  L 77,57  L 77,54  L 76,54  L 76,52  L 68,52  L 68,53  L 65,53  L 65,54  L 61,54  L 61,55  L 60,55  L 60,54  L 59,54  L 59,55  L 56,55  L 56,56  L 50,56  L 50,52  L 49,52  L 49,17  L 50,17  L 50,16  L 52,16  L 52,15  L 67,15  L 67,14  L 68,14  L 68,13  L 69,13  L 69,10  L 68,10  L 68,8  L 67,8  L 67,7  L 63,7  L 63,8  L 57,8  L 57,9  L 56,9  L 56,8  L 55,8  L 55,9  L 54,9  L 54,8  L 53,8  L 53,9  L 52,9  L 52,8  L 51,8  L 51,9  L 50,9  L 50,8  L 49,8  L 49,9  L 48,9  L 48,8  L 25,8  L 25,9  L 24,9  L 24,8  L 23,8  L 23,9  L 20,9  L 20,8  L 19,8  L 19,9  L 16,9  L 16,8  L 13,8  L 13,7  L 12,7  L 12,6  L 10,6  L 10,5  L 7,5  L 7,6  L 6,6  L 6,5  L 5,5  L 5,6  L 1,6  L 1,11  L 2,11  L 2,12  L 3,12  L 3,11  L 6,11  L 6,12  L 8,12  L 8,13  L 9,13  L 9,14  L 10,14  L 10,15  L 9,15  L 9,18  L 10,18  L 10,19  L 9,19  L 9,21  L 10,21  L 10,22  L 9,22  L 9,25  L 10,25  L 10,26  L 9,26  L 9,27  L 10,27  L 10,28  L 9,28  L 9,29  L 10,29  L 10,52  L 11,52  L 11,55  L 12,55  L 12,58  L 14,58  L 14,60  L 15,60  L 15,59  L 16,59  L 16,60  L 17,60  L 17,61  L 20,61  L 20,60  L 28,60  L 28,59  L 33,59  L 33,58  L 34,58  L 34,59  L 35,59  L 35,58  L 38,58  L 38,55  L 37,55  L 37,54  L 36,54  L 36,52  L 30,52  L 30,53  L 19,53  L 19,52  L 18,52  L 18,50  L 17,50  L 17,16  L 18,16  L 18,15  Z  " style="fill:rgb(0, 0, 0); fill-opacity:1.000; stroke:none;" />
 <path d="  M 106,83  L 106,82  L 104,82  L 104,81  L 103,81  L 103,80  L 100,80  L 100,79  L 99,79  L 99,80  L 98,80  L 98,79  L 95,79  L 95,80  L 94,80  L 94,79  L 93,79  L 93,80  L 92,80  L 92,79  L 91,79  L 91,80  L 90,80  L 90,79  L 89,79  L 89,80  L 88,80  L 88,79  L 87,79  L 87,80  L 86,80  L 86,79  L 85,79  L 85,80  L 84,80  L 84,79  L 83,79  L 83,80  L 80,80  L 80,79  L 79,79  L 79,80  L 67,80  L 67,81  L 64,81  L 64,80  L 63,80  L 63,81  L 60,81  L 60,82  L 47,82  L 47,81  L 45,81  L 45,82  L 37,82  L 37,83  L 36,83  L 36,84  L 35,84  L 35,86  L 34,86  L 34,88  L 33,88  L 33,90  L 34,90  L 34,91  L 39,91  L 39,90  L 43,90  L 43,92  L 44,92  L 44,96  L 43,96  L 43,97  L 44,97  L 44,98  L 43,98  L 43,101  L 44,101  L 44,103  L 43,103  L 43,105  L 44,105  L 44,107  L 43,107  L 43,109  L 44,109  L 44,112  L 43,112  L 43,113  L 44,113  L 44,116  L 43,116  L 43,117  L 44,117  L 44,122  L 45,122  L 45,123  L 44,123  L 44,124  L 45,124  L 45,125  L 47,125  L 47,127  L 48,127  L 48,128  L 101,128  L 101,127  L 103,127  L 103,126  L 104,126  L 104,122  L 105,122  L 105,113  L 106,113  L 106,112  L 105,112  L 105,111  L 106,111  L 106,105  L 107,105  L 107,96  L 108,96  L 108,85  L 107,85  L 107,83  Z  M 99,119  L 98,119  L 98,121  L 92,121  L 92,122  L 91,122  L 91,121  L 90,121  L 90,122  L 53,122  L 53,121  L 52,121  L 52,122  L 51,122  L 51,121  L 50,121  L 50,89  L 53,89  L 53,88  L 60,88  L 60,87  L 61,87  L 61,88  L 62,88  L 62,87  L 68,87  L 68,86  L 69,86  L 69,87  L 70,87  L 70,86  L 101,86  L 101,89  L 102,89  L 102,90  L 101,90  L 101,92  L 102,92  L 102,94  L 101,94  L 101,103  L 100,103  L 100,112  L 99,112  Z  " style="fill:rgb(0, 0, 0); fill-opacity:1.000; stroke:none;" />
 <path d="  M 38,58  L 38,59  L 39,59  L 39,58  Z  " style="fill:rgb(0, 0, 0); fill-opacity:1.000; stroke:none;" />
 <path d="  M 78,58  L 78,59  L 79,59  L 79,58  Z  " style="fill:rgb(0, 0, 0); fill-opacity:1.000; stroke:none;" />
 <path d="  M 89,16  L 89,15  L 88,15  L 88,13  L 89,13  L 89,10  L 88,10  L 88,9  L 89,9  L 89,3  L 88,3  L 88,2  L 87,2  L 87,1  L 82,1  L 82,29  L 83,29  L 83,44  L 82,44  L 82,45  L 83,45  L 83,46  L 82,46  L 82,60  L 81,60  L 81,61  L 82,61  L 82,62  L 83,62  L 83,63  L 84,63  L 84,64  L 85,64  L 85,63  L 87,63  L 87,61  L 88,61  L 88,53  L 89,53  L 89,51  L 88,51  L 88,49  L 89,49  L 89,35  L 90,35  L 90,30  L 91,30  L 91,29  L 93,29  L 93,28  L 98,28  L 98,27  L 101,27  L 101,28  L 102,28  L 102,34  L 101,34  L 101,36  L 102,36  L 102,38  L 101,38  L 101,40  L 102,40  L 102,41  L 101,41  L 101,53  L 100,53  L 100,62  L 99,62  L 99,67  L 100,67  L 100,68  L 105,68  L 105,66  L 106,66  L 106,59  L 107,59  L 107,58  L 106,58  L 106,57  L 107,57  L 107,47  L 108,47  L 108,3  L 107,3  L 107,2  L 103,2  L 103,3  L 102,3  L 102,4  L 101,4  L 101,12  L 102,12  L 102,13  L 101,13  L 101,20  L 100,20  L 100,21  L 97,21  L 97,22  L 96,22  L 96,21  L 95,21  L 95,22  L 89,22  L 89,19  L 88,19  L 88,18  L 89,18  L 89,17  L 88,17  L 88,16  Z  " style="fill:rgb(0, 0, 0); fill-opacity:1.000; stroke:none;" />
</svg>
