<?xml version="1.0" encoding="UTF-8" standalone="no"?>
<!DOCTYPE svg PUBLIC "-//W3C//DTD SVG 1.1//EN" 
  "http://www.w3.org/Graphics/SVG/1.1/DTD/svg11.dtd">
<svg width="107" height="132"
     xmlns="http://www.w3.org/2000/svg" version="1.1">
 <path d="  M 61,8  L 61,9  L 55,9  L 55,10  L 54,10  L 54,9  L 53,9  L 53,10  L 52,10  L 52,9  L 51,9  L 51,10  L 50,10  L 50,9  L 49,9  L 49,10  L 48,10  L 48,9  L 47,9  L 47,10  L 46,10  L 46,9  L 45,9  L 45,10  L 43,10  L 43,9  L 39,9  L 39,10  L 38,10  L 38,9  L 33,9  L 33,10  L 31,10  L 31,9  L 29,9  L 29,10  L 28,10  L 28,9  L 24,9  L 24,10  L 22,10  L 22,9  L 21,9  L 21,10  L 18,10  L 18,9  L 17,9  L 17,10  L 15,10  L 15,9  L 13,9  L 13,8  L 12,8  L 12,7  L 11,7  L 11,6  L 2,6  L 2,7  L 0,7  L 0,11  L 4,11  L 4,12  L 5,12  L 5,11  L 7,11  L 7,12  L 8,12  L 8,24  L 9,24  L 9,25  L 8,25  L 8,26  L 9,26  L 9,27  L 8,27  L 8,28  L 9,28  L 9,29  L 8,29  L 8,30  L 9,30  L 9,31  L 8,31  L 8,32  L 9,32  L 9,33  L 8,33  L 8,34  L 9,34  L 9,35  L 8,35  L 8,36  L 9,36  L 9,37  L 8,37  L 8,38  L 9,38  L 9,39  L 8,39  L 8,40  L 9,40  L 9,41  L 8,41  L 8,50  L 9,50  L 9,52  L 8,52  L 8,53  L 9,53  L 9,55  L 10,55  L 10,57  L 11,57  L 11,58  L 12,58  L 12,59  L 15,59  L 15,60  L 18,60  L 18,59  L 19,59  L 19,60  L 20,60  L 20,59  L 27,59  L 27,58  L 31,58  L 31,57  L 36,57  L 36,53  L 35,53  L 35,52  L 33,52  L 33,51  L 27,51  L 27,52  L 20,52  L 20,53  L 19,53  L 19,52  L 17,52  L 17,51  L 16,51  L 16,49  L 15,49  L 15,46  L 16,46  L 16,45  L 15,45  L 15,43  L 16,43  L 16,17  L 17,17  L 17,16  L 35,16  L 35,15  L 40,15  L 40,16  L 41,16  L 41,51  L 42,51  L 42,56  L 43,56  L 43,58  L 44,58  L 44,60  L 47,60  L 47,61  L 49,61  L 49,62  L 54,62  L 54,61  L 55,61  L 55,62  L 56,62  L 56,61  L 60,61  L 60,60  L 71,60  L 71,59  L 74,59  L 74,58  L 75,58  L 75,57  L 74,57  L 74,56  L 75,56  L 75,55  L 74,55  L 74,53  L 71,53  L 71,52  L 65,52  L 65,53  L 56,53  L 56,54  L 53,54  L 53,53  L 51,53  L 51,54  L 50,54  L 50,52  L 49,52  L 49,46  L 48,46  L 48,18  L 49,18  L 49,17  L 51,17  L 51,16  L 65,16  L 65,15  L 66,15  L 66,14  L 67,14  L 67,11  L 66,11  L 66,9  L 65,9  L 65,8  Z  " style="fill:rgb(0, 0, 0); fill-opacity:1.000; stroke:none;" />
 <path d="  M 47,100  L 47,99  L 48,99  L 48,97  L 49,97  L 49,96  L 50,96  L 50,95  L 51,95  L 51,94  L 52,94  L 52,93  L 53,93  L 53,92  L 54,92  L 54,91  L 55,91  L 55,90  L 57,90  L 57,89  L 58,89  L 58,88  L 60,88  L 60,87  L 61,87  L 61,86  L 63,86  L 63,85  L 66,85  L 66,84  L 69,84  L 69,83  L 72,83  L 72,82  L 82,82  L 82,83  L 88,83  L 88,84  L 90,84  L 90,85  L 93,85  L 93,86  L 94,86  L 94,87  L 95,87  L 95,88  L 96,88  L 96,90  L 97,90  L 97,94  L 98,94  L 98,101  L 97,101  L 97,108  L 96,108  L 96,111  L 95,111  L 95,113  L 94,113  L 94,114  L 93,114  L 93,115  L 92,115  L 92,116  L 91,116  L 91,117  L 90,117  L 90,118  L 89,118  L 89,119  L 88,119  L 88,120  L 87,120  L 87,121  L 85,121  L 85,122  L 83,122  L 83,123  L 80,123  L 80,124  L 78,124  L 78,125  L 72,125  L 72,126  L 70,126  L 70,125  L 69,125  L 69,126  L 67,126  L 67,125  L 66,125  L 66,126  L 57,126  L 57,125  L 54,125  L 54,124  L 51,124  L 51,123  L 49,123  L 49,122  L 48,122  L 48,121  L 47,121  L 47,120  L 46,120  L 46,119  L 45,119  L 45,116  L 44,116  L 44,105  L 45,105  L 45,102  L 46,102  L 46,100  Z  M 40,100  L 39,100  L 39,102  L 38,102  L 38,107  L 37,107  L 37,108  L 36,108  L 36,110  L 37,110  L 37,111  L 36,111  L 36,114  L 37,114  L 37,117  L 38,117  L 38,119  L 39,119  L 39,123  L 40,123  L 40,125  L 42,125  L 42,127  L 43,127  L 43,128  L 46,128  L 46,129  L 47,129  L 47,130  L 50,130  L 50,131  L 52,131  L 52,132  L 79,132  L 79,131  L 83,131  L 83,130  L 86,130  L 86,129  L 87,129  L 87,128  L 89,128  L 89,127  L 90,127  L 90,126  L 92,126  L 92,125  L 93,125  L 93,124  L 94,124  L 94,123  L 95,123  L 95,122  L 97,122  L 97,121  L 98,121  L 98,120  L 99,120  L 99,119  L 100,119  L 100,117  L 101,117  L 101,116  L 102,116  L 102,114  L 103,114  L 103,110  L 104,110  L 104,105  L 105,105  L 105,91  L 104,91  L 104,88  L 103,88  L 103,86  L 102,86  L 102,85  L 101,85  L 101,84  L 100,84  L 100,82  L 99,82  L 99,81  L 98,81  L 98,80  L 97,80  L 97,79  L 96,79  L 96,78  L 93,78  L 93,77  L 91,77  L 91,75  L 90,75  L 90,76  L 89,76  L 89,75  L 88,75  L 88,76  L 87,76  L 87,75  L 86,75  L 86,76  L 85,76  L 85,75  L 78,75  L 78,74  L 75,74  L 75,75  L 73,75  L 73,74  L 71,74  L 71,75  L 64,75  L 64,76  L 62,76  L 62,77  L 59,77  L 59,78  L 57,78  L 57,79  L 55,79  L 55,80  L 54,80  L 54,81  L 53,81  L 53,82  L 52,82  L 52,83  L 51,83  L 51,85  L 49,85  L 49,86  L 48,86  L 48,88  L 47,88  L 47,89  L 45,89  L 45,91  L 44,91  L 44,92  L 43,92  L 43,94  L 42,94  L 42,95  L 41,95  L 41,97  L 40,97  Z  " style="fill:rgb(0, 0, 0); fill-opacity:1.000; stroke:none;" />
 <path d="  M 89,30  L 90,30  L 90,29  L 91,29  L 91,28  L 93,28  L 93,27  L 100,27  L 100,29  L 101,29  L 101,68  L 106,68  L 106,67  L 107,67  L 107,19  L 106,19  L 106,16  L 107,16  L 107,15  L 106,15  L 106,2  L 105,2  L 105,1  L 101,1  L 101,3  L 100,3  L 100,20  L 99,20  L 99,21  L 98,21  L 98,20  L 96,20  L 96,21  L 92,21  L 92,22  L 91,22  L 91,21  L 89,21  L 89,22  L 88,22  L 88,21  L 87,21  L 87,11  L 86,11  L 86,10  L 87,10  L 87,2  L 86,2  L 86,1  L 84,1  L 84,0  L 81,0  L 81,1  L 80,1  L 80,22  L 81,22  L 81,23  L 80,23  L 80,26  L 81,26  L 81,30  L 82,30  L 82,31  L 81,31  L 81,34  L 82,34  L 82,36  L 81,36  L 81,38  L 82,38  L 82,40  L 81,40  L 81,42  L 82,42  L 82,43  L 81,43  L 81,53  L 80,53  L 80,54  L 81,54  L 81,55  L 80,55  L 80,61  L 81,61  L 81,62  L 83,62  L 83,61  L 85,61  L 85,60  L 86,60  L 86,57  L 87,57  L 87,56  L 86,56  L 86,54  L 87,54  L 87,42  L 88,42  L 88,41  L 87,41  L 87,40  L 88,40  L 88,33  L 89,33  Z  " style="fill:rgb(0, 0, 0); fill-opacity:1.000; stroke:none;" />
</svg>
