<?xml version="1.0" encoding="UTF-8" standalone="no"?>
<!DOCTYPE svg PUBLIC "-//W3C//DTD SVG 1.1//EN" 
  "http://www.w3.org/Graphics/SVG/1.1/DTD/svg11.dtd">
<svg width="109" height="138"
     xmlns="http://www.w3.org/2000/svg" version="1.1">
 <path d="  M 76,17  L 76,16  L 78,16  L 78,15  L 79,15  L 79,14  L 80,14  L 80,13  L 81,13  L 81,10  L 79,10  L 79,9  L 78,9  L 78,10  L 77,10  L 77,9  L 74,9  L 74,10  L 67,10  L 67,11  L 55,11  L 55,12  L 54,12  L 54,11  L 53,11  L 53,12  L 52,12  L 52,11  L 51,11  L 51,12  L 48,12  L 48,11  L 47,11  L 47,12  L 44,12  L 44,11  L 36,11  L 36,10  L 34,10  L 34,11  L 32,11  L 32,10  L 30,10  L 30,11  L 19,11  L 19,10  L 17,10  L 17,9  L 15,9  L 15,8  L 13,8  L 13,7  L 4,7  L 4,8  L 3,8  L 3,9  L 1,9  L 1,14  L 9,14  L 9,16  L 10,16  L 10,18  L 9,18  L 9,20  L 10,20  L 10,22  L 9,22  L 9,24  L 10,24  L 10,27  L 9,27  L 9,28  L 10,28  L 10,31  L 9,31  L 9,32  L 10,32  L 10,56  L 11,56  L 11,58  L 10,58  L 10,59  L 11,59  L 11,64  L 12,64  L 12,65  L 13,65  L 13,66  L 14,66  L 14,67  L 17,67  L 17,68  L 26,68  L 26,67  L 30,67  L 30,66  L 39,66  L 39,65  L 41,65  L 41,64  L 42,64  L 42,63  L 43,63  L 43,62  L 44,62  L 44,61  L 45,61  L 45,62  L 46,62  L 46,63  L 47,63  L 47,64  L 52,64  L 52,65  L 55,65  L 55,64  L 57,64  L 57,65  L 58,65  L 58,64  L 61,64  L 61,65  L 62,65  L 62,64  L 68,64  L 68,63  L 73,63  L 73,62  L 76,62  L 76,61  L 78,61  L 78,60  L 79,60  L 79,59  L 80,59  L 80,58  L 82,58  L 82,57  L 83,57  L 83,56  L 84,56  L 84,52  L 78,52  L 78,53  L 76,53  L 76,54  L 75,54  L 75,55  L 73,55  L 73,56  L 70,56  L 70,57  L 66,57  L 66,58  L 56,58  L 56,59  L 55,59  L 55,58  L 54,58  L 54,59  L 51,59  L 51,58  L 50,58  L 50,55  L 49,55  L 49,49  L 48,49  L 48,33  L 47,33  L 47,32  L 48,32  L 48,31  L 47,31  L 47,23  L 48,23  L 48,21  L 47,21  L 47,20  L 48,20  L 48,19  L 54,19  L 54,18  L 72,18  L 72,17  Z  M 37,17  L 37,18  L 38,18  L 38,17  L 39,17  L 39,18  L 40,18  L 40,17  L 41,17  L 41,18  L 42,18  L 42,27  L 41,27  L 41,28  L 42,28  L 42,48  L 43,48  L 43,57  L 44,57  L 44,59  L 43,59  L 43,60  L 40,60  L 40,59  L 33,59  L 33,60  L 27,60  L 27,61  L 18,61  L 18,59  L 17,59  L 17,37  L 16,37  L 16,36  L 17,36  L 17,33  L 16,33  L 16,32  L 17,32  L 17,30  L 16,30  L 16,28  L 17,28  L 17,26  L 16,26  L 16,24  L 17,24  L 17,23  L 16,23  L 16,16  L 20,16  L 20,17  Z  " style="fill:rgb(0, 0, 0); fill-opacity:1.000; stroke:none;" />
 <path d="  M 35,124  L 36,124  L 36,127  L 35,127  L 35,128  L 36,128  L 36,132  L 37,132  L 37,134  L 38,134  L 38,136  L 40,136  L 40,137  L 41,137  L 41,138  L 60,138  L 60,137  L 61,137  L 61,138  L 62,138  L 62,137  L 72,137  L 72,136  L 73,136  L 73,137  L 74,137  L 74,136  L 75,136  L 75,137  L 76,137  L 76,136  L 84,136  L 84,135  L 85,135  L 85,136  L 88,136  L 88,135  L 104,135  L 104,134  L 105,134  L 105,135  L 106,135  L 106,134  L 108,134  L 108,133  L 109,133  L 109,127  L 108,127  L 108,126  L 107,126  L 107,127  L 99,127  L 99,128  L 96,128  L 96,127  L 95,127  L 95,128  L 88,128  L 88,129  L 86,129  L 86,128  L 85,128  L 85,129  L 73,129  L 73,130  L 64,130  L 64,131  L 43,131  L 43,130  L 42,130  L 42,121  L 41,121  L 41,120  L 42,120  L 42,119  L 41,119  L 41,109  L 40,109  L 40,87  L 38,87  L 38,86  L 36,86  L 36,87  L 34,87  L 34,108  L 35,108  Z  " style="fill:rgb(0, 0, 0); fill-opacity:1.000; stroke:none;" />
 <path d="  M 101,28  L 100,28  L 100,26  L 101,26  L 101,25  L 100,25  L 100,15  L 99,15  L 99,2  L 98,2  L 98,1  L 96,1  L 96,0  L 95,0  L 95,1  L 93,1  L 93,3  L 92,3  L 92,6  L 93,6  L 93,24  L 94,24  L 94,27  L 93,27  L 93,28  L 92,28  L 92,27  L 91,27  L 91,28  L 86,28  L 86,29  L 79,29  L 79,30  L 74,30  L 74,31  L 66,31  L 66,32  L 65,32  L 65,33  L 64,33  L 64,36  L 65,36  L 65,37  L 71,37  L 71,36  L 80,36  L 80,35  L 82,35  L 82,36  L 83,36  L 83,35  L 92,35  L 92,34  L 94,34  L 94,37  L 95,37  L 95,39  L 94,39  L 94,40  L 95,40  L 95,41  L 94,41  L 94,80  L 95,80  L 95,82  L 98,82  L 98,81  L 99,81  L 99,82  L 100,82  L 100,79  L 101,79  L 101,77  L 100,77  L 100,75  L 101,75  L 101,73  L 100,73  L 100,71  L 101,71  L 101,68  L 100,68  L 100,67  L 101,67  Z  " style="fill:rgb(0, 0, 0); fill-opacity:1.000; stroke:none;" />
</svg>
