<?xml version="1.0" encoding="UTF-8" standalone="no"?>
<!DOCTYPE svg PUBLIC "-//W3C//DTD SVG 1.1//EN" 
  "http://www.w3.org/Graphics/SVG/1.1/DTD/svg11.dtd">
<svg width="106" height="129"
     xmlns="http://www.w3.org/2000/svg" version="1.1">
 <path d="  M 62,51  L 59,51  L 59,52  L 57,52  L 57,53  L 51,53  L 51,54  L 50,54  L 50,53  L 48,53  L 48,44  L 47,44  L 47,42  L 48,42  L 48,41  L 47,41  L 47,35  L 46,35  L 46,21  L 45,21  L 45,18  L 46,18  L 46,14  L 58,14  L 58,13  L 63,13  L 63,12  L 64,12  L 64,11  L 66,11  L 66,9  L 67,9  L 67,8  L 66,8  L 66,7  L 65,7  L 65,6  L 64,6  L 64,7  L 60,7  L 60,8  L 59,8  L 59,7  L 58,7  L 58,8  L 39,8  L 39,7  L 15,7  L 15,6  L 13,6  L 13,5  L 11,5  L 11,4  L 10,4  L 10,3  L 7,3  L 7,4  L 5,4  L 5,5  L 2,5  L 2,7  L 0,7  L 0,8  L 1,8  L 1,10  L 7,10  L 7,11  L 8,11  L 8,48  L 9,48  L 9,49  L 8,49  L 8,50  L 9,50  L 9,53  L 10,53  L 10,56  L 11,56  L 11,58  L 15,58  L 15,59  L 21,59  L 21,58  L 27,58  L 27,57  L 34,57  L 34,56  L 35,56  L 35,57  L 37,57  L 37,56  L 38,56  L 38,55  L 37,55  L 37,53  L 38,53  L 38,52  L 37,52  L 37,51  L 35,51  L 35,50  L 27,50  L 27,51  L 16,51  L 16,48  L 15,48  L 15,47  L 16,47  L 16,46  L 15,46  L 15,15  L 16,15  L 16,14  L 18,14  L 18,13  L 25,13  L 25,14  L 26,14  L 26,13  L 27,13  L 27,14  L 30,14  L 30,13  L 31,13  L 31,14  L 32,14  L 32,13  L 35,13  L 35,12  L 38,12  L 38,14  L 39,14  L 39,16  L 38,16  L 38,18  L 39,18  L 39,19  L 38,19  L 38,22  L 39,22  L 39,24  L 38,24  L 38,26  L 39,26  L 39,29  L 38,29  L 38,30  L 39,30  L 39,37  L 40,37  L 40,42  L 41,42  L 41,43  L 40,43  L 40,44  L 41,44  L 41,53  L 42,53  L 42,56  L 43,56  L 43,58  L 45,58  L 45,60  L 48,60  L 48,61  L 50,61  L 50,62  L 51,62  L 51,61  L 54,61  L 54,60  L 57,60  L 57,59  L 60,59  L 60,58  L 62,58  L 62,57  L 64,57  L 64,56  L 66,56  L 66,55  L 68,55  L 68,53  L 69,53  L 69,52  L 68,52  L 68,50  L 67,50  L 67,49  L 63,49  L 63,50  L 62,50  Z  " style="fill:rgb(0, 0, 0); fill-opacity:1.000; stroke:none;" />
 <path d="  M 106,82  L 105,82  L 105,81  L 104,81  L 104,79  L 95,79  L 95,80  L 68,80  L 68,81  L 67,81  L 67,80  L 66,80  L 66,81  L 58,81  L 58,82  L 55,82  L 55,81  L 54,81  L 54,82  L 44,82  L 44,83  L 43,83  L 43,82  L 40,82  L 40,83  L 39,83  L 39,82  L 38,82  L 38,83  L 35,83  L 35,84  L 34,84  L 34,86  L 33,86  L 33,87  L 32,87  L 32,89  L 31,89  L 31,90  L 32,90  L 32,92  L 38,92  L 38,91  L 41,91  L 41,92  L 42,92  L 42,119  L 43,119  L 43,120  L 42,120  L 42,122  L 43,122  L 43,125  L 44,125  L 44,127  L 46,127  L 46,128  L 47,128  L 47,129  L 99,129  L 99,128  L 101,128  L 101,127  L 103,127  L 103,125  L 104,125  L 104,122  L 105,122  L 105,121  L 104,121  L 104,119  L 105,119  L 105,117  L 104,117  L 104,116  L 105,116  L 105,108  L 106,108  Z  M 101,95  L 100,95  L 100,104  L 99,104  L 99,113  L 98,113  L 98,120  L 97,120  L 97,122  L 93,122  L 93,123  L 50,123  L 50,122  L 49,122  L 49,120  L 48,120  L 48,90  L 49,90  L 49,89  L 51,89  L 51,88  L 57,88  L 57,87  L 58,87  L 58,88  L 59,88  L 59,87  L 73,87  L 73,86  L 97,86  L 97,85  L 98,85  L 98,86  L 99,86  L 99,85  L 100,85  L 100,86  L 101,86  L 101,91  L 100,91  L 100,93  L 101,93  Z  " style="fill:rgb(0, 0, 0); fill-opacity:1.000; stroke:none;" />
 <path d="  M 89,6  L 90,6  L 90,5  L 89,5  L 89,3  L 88,3  L 88,2  L 86,2  L 86,1  L 83,1  L 83,5  L 82,5  L 82,6  L 83,6  L 83,9  L 82,9  L 82,10  L 83,10  L 83,20  L 82,20  L 82,21  L 73,21  L 73,22  L 71,22  L 71,21  L 70,21  L 70,22  L 68,22  L 68,23  L 64,23  L 64,24  L 60,24  L 60,25  L 56,25  L 56,26  L 55,26  L 55,29  L 56,29  L 56,31  L 57,31  L 57,32  L 59,32  L 59,31  L 61,31  L 61,30  L 68,30  L 68,29  L 73,29  L 73,28  L 74,28  L 74,29  L 75,29  L 75,28  L 82,28  L 82,30  L 83,30  L 83,31  L 82,31  L 82,34  L 83,34  L 83,35  L 82,35  L 82,38  L 83,38  L 83,39  L 82,39  L 82,42  L 83,42  L 83,44  L 82,44  L 82,46  L 83,46  L 83,47  L 82,47  L 82,62  L 83,62  L 83,63  L 85,63  L 85,64  L 88,64  L 88,62  L 89,62  Z  " style="fill:rgb(0, 0, 0); fill-opacity:1.000; stroke:none;" />
 <path d="  M 106,1  L 105,1  L 105,0  L 101,0  L 101,1  L 99,1  L 99,2  L 100,2  L 100,68  L 101,68  L 101,69  L 102,69  L 102,70  L 103,70  L 103,69  L 104,69  L 104,68  L 105,68  L 105,67  L 106,67  Z  " style="fill:rgb(0, 0, 0); fill-opacity:1.000; stroke:none;" />
</svg>
