<?xml version="1.0" encoding="UTF-8" standalone="no"?>
<!DOCTYPE svg PUBLIC "-//W3C//DTD SVG 1.1//EN" 
  "http://www.w3.org/Graphics/SVG/1.1/DTD/svg11.dtd">
<svg width="111" height="136"
     xmlns="http://www.w3.org/2000/svg" version="1.1">
 <path d="  M 60,13  L 60,12  L 61,12  L 61,13  L 63,13  L 63,12  L 66,12  L 66,11  L 68,11  L 68,6  L 67,6  L 67,5  L 63,5  L 63,6  L 59,6  L 59,7  L 38,7  L 38,6  L 37,6  L 37,7  L 36,7  L 36,6  L 31,6  L 31,7  L 30,7  L 30,6  L 27,6  L 27,7  L 22,7  L 22,8  L 16,8  L 16,7  L 14,7  L 14,6  L 13,6  L 13,5  L 12,5  L 12,4  L 11,4  L 11,3  L 8,3  L 8,4  L 5,4  L 5,5  L 2,5  L 2,6  L 1,6  L 1,8  L 0,8  L 0,9  L 1,9  L 1,10  L 3,10  L 3,9  L 5,9  L 5,10  L 6,10  L 6,11  L 7,11  L 7,13  L 8,13  L 8,14  L 7,14  L 7,15  L 8,15  L 8,20  L 7,20  L 7,21  L 8,21  L 8,24  L 7,24  L 7,25  L 8,25  L 8,45  L 9,45  L 9,46  L 8,46  L 8,48  L 9,48  L 9,54  L 10,54  L 10,57  L 11,57  L 11,59  L 12,59  L 12,60  L 13,60  L 13,61  L 22,61  L 22,60  L 28,60  L 28,59  L 33,59  L 33,58  L 37,58  L 37,57  L 38,57  L 38,56  L 39,56  L 39,55  L 38,55  L 38,54  L 37,54  L 37,53  L 36,53  L 36,52  L 29,52  L 29,53  L 17,53  L 17,51  L 16,51  L 16,34  L 15,34  L 15,33  L 16,33  L 16,30  L 15,30  L 15,29  L 16,29  L 16,28  L 15,28  L 15,14  L 20,14  L 20,13  L 21,13  L 21,14  L 24,14  L 24,13  L 25,13  L 25,14  L 26,14  L 26,13  L 29,13  L 29,14  L 30,14  L 30,13  L 31,13  L 31,14  L 32,14  L 32,13  L 33,13  L 33,14  L 34,14  L 34,13  L 36,13  L 36,12  L 37,12  L 37,11  L 40,11  L 40,20  L 39,20  L 39,21  L 40,21  L 40,24  L 39,24  L 39,25  L 40,25  L 40,36  L 41,36  L 41,41  L 42,41  L 42,48  L 43,48  L 43,54  L 44,54  L 44,57  L 45,57  L 45,59  L 46,59  L 46,60  L 47,60  L 47,61  L 50,61  L 50,63  L 52,63  L 52,62  L 58,62  L 58,61  L 61,61  L 61,60  L 63,60  L 63,58  L 66,58  L 66,57  L 69,57  L 69,56  L 70,56  L 70,55  L 71,55  L 71,54  L 70,54  L 70,52  L 69,52  L 69,51  L 67,51  L 67,50  L 64,50  L 64,51  L 62,51  L 62,52  L 61,52  L 61,53  L 58,53  L 58,54  L 56,54  L 56,55  L 54,55  L 54,56  L 52,56  L 52,55  L 51,55  L 51,54  L 50,54  L 50,46  L 49,46  L 49,34  L 48,34  L 48,33  L 49,33  L 49,31  L 48,31  L 48,26  L 47,26  L 47,15  L 48,15  L 48,14  L 52,14  L 52,13  Z  " style="fill:rgb(0, 0, 0); fill-opacity:1.000; stroke:none;" />
 <path d="  M 105,119  L 106,119  L 106,117  L 107,117  L 107,114  L 108,114  L 108,111  L 109,111  L 109,109  L 110,109  L 110,108  L 109,108  L 109,107  L 110,107  L 110,104  L 111,104  L 111,90  L 110,90  L 110,89  L 109,89  L 109,88  L 108,88  L 108,87  L 106,87  L 106,86  L 105,86  L 105,85  L 104,85  L 104,84  L 103,84  L 103,83  L 101,83  L 101,81  L 97,81  L 97,80  L 96,80  L 96,81  L 95,81  L 95,80  L 92,80  L 92,79  L 91,79  L 91,80  L 90,80  L 90,79  L 85,79  L 85,78  L 84,78  L 84,79  L 81,79  L 81,78  L 80,78  L 80,79  L 79,79  L 79,78  L 76,78  L 76,79  L 75,79  L 75,78  L 74,78  L 74,79  L 73,79  L 73,78  L 72,78  L 72,79  L 67,79  L 67,80  L 62,80  L 62,81  L 60,81  L 60,82  L 58,82  L 58,83  L 56,83  L 56,85  L 55,85  L 55,86  L 53,86  L 53,87  L 52,87  L 52,88  L 51,88  L 51,89  L 50,89  L 50,91  L 49,91  L 49,92  L 48,92  L 48,93  L 47,93  L 47,94  L 46,94  L 46,96  L 45,96  L 45,99  L 44,99  L 44,100  L 43,100  L 43,102  L 42,102  L 42,104  L 41,104  L 41,109  L 40,109  L 40,113  L 39,113  L 39,119  L 40,119  L 40,123  L 41,123  L 41,127  L 42,127  L 42,129  L 43,129  L 43,131  L 44,131  L 44,132  L 46,132  L 46,133  L 48,133  L 48,134  L 49,134  L 49,135  L 53,135  L 53,136  L 80,136  L 80,135  L 81,135  L 81,136  L 82,136  L 82,135  L 85,135  L 85,134  L 88,134  L 88,133  L 91,133  L 91,132  L 93,132  L 93,131  L 94,131  L 94,130  L 96,130  L 96,129  L 98,129  L 98,128  L 99,128  L 99,127  L 100,127  L 100,126  L 101,126  L 101,125  L 102,125  L 102,124  L 103,124  L 103,123  L 104,123  L 104,121  L 106,121  L 106,120  L 105,120  Z  M 58,94  L 58,93  L 60,93  L 60,92  L 61,92  L 61,91  L 63,91  L 63,90  L 65,90  L 65,89  L 68,89  L 68,88  L 72,88  L 72,87  L 74,87  L 74,86  L 83,86  L 83,87  L 91,87  L 91,88  L 95,88  L 95,89  L 100,89  L 100,90  L 101,90  L 101,91  L 102,91  L 102,92  L 103,92  L 103,95  L 104,95  L 104,103  L 103,103  L 103,106  L 102,106  L 102,110  L 101,110  L 101,112  L 100,112  L 100,116  L 99,116  L 99,117  L 98,117  L 98,118  L 97,118  L 97,120  L 96,120  L 96,121  L 95,121  L 95,122  L 94,122  L 94,123  L 93,123  L 93,124  L 90,124  L 90,125  L 88,125  L 88,126  L 85,126  L 85,127  L 83,127  L 83,128  L 81,128  L 81,129  L 76,129  L 76,130  L 59,130  L 59,129  L 58,129  L 58,130  L 57,130  L 57,129  L 54,129  L 54,128  L 51,128  L 51,127  L 49,127  L 49,126  L 48,126  L 48,125  L 47,125  L 47,122  L 46,122  L 46,109  L 47,109  L 47,106  L 48,106  L 48,104  L 49,104  L 49,103  L 50,103  L 50,101  L 51,101  L 51,99  L 52,99  L 52,98  L 53,98  L 53,97  L 54,97  L 54,96  L 55,96  L 55,95  L 56,95  L 56,94  Z  " style="fill:rgb(0, 0, 0); fill-opacity:1.000; stroke:none;" />
 <path d="  M 91,10  L 92,10  L 92,9  L 91,9  L 91,6  L 92,6  L 92,5  L 91,5  L 91,3  L 88,3  L 88,2  L 87,2  L 87,3  L 86,3  L 86,4  L 85,4  L 85,20  L 83,20  L 83,21  L 78,21  L 78,22  L 69,22  L 69,23  L 68,23  L 68,22  L 67,22  L 67,23  L 62,23  L 62,24  L 58,24  L 58,25  L 57,25  L 57,29  L 58,29  L 58,31  L 64,31  L 64,30  L 70,30  L 70,29  L 77,29  L 77,28  L 80,28  L 80,29  L 81,29  L 81,28  L 85,28  L 85,33  L 86,33  L 86,34  L 85,34  L 85,36  L 86,36  L 86,38  L 85,38  L 85,41  L 86,41  L 86,42  L 85,42  L 85,63  L 86,63  L 86,65  L 87,65  L 87,66  L 91,66  L 91,65  L 92,65  L 92,64  L 93,64  L 93,63  L 92,63  L 92,62  L 93,62  L 93,54  L 92,54  L 92,53  L 93,53  L 93,34  L 92,34  L 92,33  L 93,33  L 93,30  L 92,30  L 92,29  L 93,29  L 93,27  L 92,27  L 92,25  L 93,25  L 93,24  L 92,24  L 92,16  L 91,16  Z  " style="fill:rgb(0, 0, 0); fill-opacity:1.000; stroke:none;" />
 <path d="  M 102,59  L 102,62  L 101,62  L 101,63  L 102,63  L 102,72  L 103,72  L 103,73  L 104,73  L 104,72  L 105,72  L 105,71  L 108,71  L 108,70  L 109,70  L 109,54  L 108,54  L 108,53  L 109,53  L 109,52  L 108,52  L 108,51  L 109,51  L 109,50  L 108,50  L 108,49  L 109,49  L 109,48  L 108,48  L 108,47  L 109,47  L 109,46  L 108,46  L 108,45  L 109,45  L 109,44  L 108,44  L 108,43  L 109,43  L 109,42  L 108,42  L 108,41  L 109,41  L 109,40  L 108,40  L 108,1  L 107,1  L 107,0  L 105,0  L 105,1  L 104,1  L 104,0  L 103,0  L 103,1  L 102,1  L 102,2  L 101,2  L 101,55  L 102,55  L 102,56  L 101,56  L 101,57  L 102,57  L 102,58  L 101,58  L 101,59  Z  " style="fill:rgb(0, 0, 0); fill-opacity:1.000; stroke:none;" />
</svg>
