<?xml version="1.0" encoding="UTF-8" standalone="no"?>
<!DOCTYPE svg PUBLIC "-//W3C//DTD SVG 1.1//EN" 
  "http://www.w3.org/Graphics/SVG/1.1/DTD/svg11.dtd">
<svg width="107" height="107"
     xmlns="http://www.w3.org/2000/svg" version="1.1">
 <path d="  M 87,46  L 87,47  L 67,47  L 67,48  L 66,48  L 66,47  L 62,47  L 62,48  L 58,48  L 58,47  L 59,47  L 59,46  L 58,46  L 58,37  L 59,37  L 59,36  L 58,36  L 58,33  L 59,33  L 59,32  L 58,32  L 58,29  L 59,29  L 59,28  L 58,28  L 58,25  L 59,25  L 59,24  L 58,24  L 58,21  L 59,21  L 59,19  L 58,19  L 58,17  L 59,17  L 59,16  L 58,16  L 58,15  L 59,15  L 59,14  L 58,14  L 58,13  L 59,13  L 59,10  L 62,10  L 62,9  L 79,9  L 79,8  L 80,8  L 80,9  L 85,9  L 85,8  L 86,8  L 86,7  L 88,7  L 88,5  L 89,5  L 89,3  L 88,3  L 88,2  L 87,2  L 87,1  L 86,1  L 86,0  L 84,0  L 84,1  L 83,1  L 83,0  L 81,0  L 81,1  L 73,1  L 73,2  L 55,2  L 55,3  L 54,3  L 54,4  L 50,4  L 50,3  L 49,3  L 49,2  L 21,2  L 21,3  L 16,3  L 16,4  L 14,4  L 14,5  L 13,5  L 13,7  L 12,7  L 12,8  L 9,8  L 9,9  L 10,9  L 10,10  L 9,10  L 9,13  L 10,13  L 10,15  L 9,15  L 9,42  L 10,42  L 10,43  L 9,43  L 9,45  L 10,45  L 10,52  L 11,52  L 11,54  L 12,54  L 12,56  L 13,56  L 13,57  L 14,57  L 14,58  L 15,58  L 15,59  L 16,59  L 16,60  L 19,60  L 19,61  L 30,61  L 30,60  L 32,60  L 32,61  L 33,61  L 33,60  L 38,60  L 38,59  L 42,59  L 42,58  L 51,58  L 51,57  L 53,57  L 53,58  L 54,58  L 54,59  L 53,59  L 53,64  L 52,64  L 52,70  L 51,70  L 51,71  L 52,71  L 52,74  L 51,74  L 51,77  L 52,77  L 52,78  L 51,78  L 51,90  L 50,90  L 50,92  L 51,92  L 51,97  L 50,97  L 50,99  L 38,99  L 38,100  L 37,100  L 37,99  L 36,99  L 36,100  L 35,100  L 35,99  L 34,99  L 34,100  L 17,100  L 17,101  L 16,101  L 16,100  L 15,100  L 15,101  L 14,101  L 14,100  L 13,100  L 13,101  L 10,101  L 10,100  L 9,100  L 9,101  L 6,101  L 6,100  L 5,100  L 5,101  L 3,101  L 3,102  L 1,102  L 1,103  L 0,103  L 0,105  L 2,105  L 2,106  L 3,106  L 3,107  L 30,107  L 30,106  L 31,106  L 31,107  L 32,107  L 32,106  L 46,106  L 46,105  L 47,105  L 47,106  L 48,106  L 48,105  L 49,105  L 49,106  L 50,106  L 50,105  L 86,105  L 86,104  L 88,104  L 88,105  L 89,105  L 89,104  L 100,104  L 100,103  L 105,103  L 105,102  L 106,102  L 106,101  L 107,101  L 107,96  L 106,96  L 106,95  L 99,95  L 99,96  L 93,96  L 93,97  L 85,97  L 85,98  L 84,98  L 84,97  L 83,97  L 83,98  L 67,98  L 67,99  L 66,99  L 66,98  L 65,98  L 65,99  L 64,99  L 64,98  L 63,98  L 63,99  L 62,99  L 62,98  L 58,98  L 58,91  L 57,91  L 57,90  L 58,90  L 58,87  L 57,87  L 57,86  L 58,86  L 58,65  L 59,65  L 59,60  L 58,60  L 58,58  L 57,58  L 57,56  L 58,56  L 58,55  L 60,55  L 60,54  L 68,54  L 68,53  L 70,53  L 70,54  L 72,54  L 72,53  L 73,53  L 73,54  L 78,54  L 78,53  L 79,53  L 79,54  L 82,54  L 82,53  L 83,53  L 83,54  L 84,54  L 84,53  L 88,53  L 88,54  L 89,54  L 89,53  L 94,53  L 94,52  L 95,52  L 95,51  L 96,51  L 96,50  L 97,50  L 97,47  L 96,47  L 96,45  L 91,45  L 91,46  Z  M 51,7  L 51,8  L 52,8  L 52,22  L 51,22  L 51,23  L 52,23  L 52,26  L 51,26  L 51,27  L 52,27  L 52,30  L 51,30  L 51,31  L 52,31  L 52,34  L 51,34  L 51,35  L 52,35  L 52,50  L 51,50  L 51,51  L 45,51  L 45,52  L 41,52  L 41,53  L 37,53  L 37,54  L 29,54  L 29,55  L 28,55  L 28,54  L 27,54  L 27,55  L 25,55  L 25,54  L 20,54  L 20,53  L 18,53  L 18,48  L 17,48  L 17,43  L 16,43  L 16,32  L 15,32  L 15,31  L 16,31  L 16,16  L 17,16  L 17,13  L 18,13  L 18,12  L 21,12  L 21,11  L 26,11  L 26,10  L 38,10  L 38,9  L 39,9  L 39,10  L 40,10  L 40,9  L 45,9  L 45,8  L 50,8  L 50,7  Z  " style="fill:rgb(0, 0, 0); fill-opacity:1.000; stroke:none;" />
 <path d="  M 5,9  L 6,9  L 6,8  L 5,8  Z  " style="fill:rgb(0, 0, 0); fill-opacity:1.000; stroke:none;" />
</svg>
