<?xml version="1.0" encoding="UTF-8" standalone="no"?>
<!DOCTYPE svg PUBLIC "-//W3C//DTD SVG 1.1//EN" 
  "http://www.w3.org/Graphics/SVG/1.1/DTD/svg11.dtd">
<svg width="105" height="163"
     xmlns="http://www.w3.org/2000/svg" version="1.1">
 <path d="  M 103,83  L 105,83  L 105,76  L 104,76  L 104,75  L 101,75  L 101,76  L 98,76  L 98,77  L 94,77  L 94,78  L 89,78  L 89,79  L 88,79  L 88,78  L 87,78  L 87,79  L 61,79  L 61,77  L 60,77  L 60,53  L 59,53  L 59,51  L 58,51  L 58,49  L 60,49  L 60,48  L 66,48  L 66,47  L 77,47  L 77,46  L 78,46  L 78,47  L 79,47  L 79,46  L 84,46  L 84,45  L 86,45  L 86,46  L 89,46  L 89,47  L 95,47  L 95,46  L 96,46  L 96,45  L 97,45  L 97,37  L 95,37  L 95,36  L 94,36  L 94,37  L 91,37  L 91,38  L 86,38  L 86,39  L 81,39  L 81,40  L 79,40  L 79,39  L 78,39  L 78,40  L 67,40  L 67,41  L 60,41  L 60,39  L 59,39  L 59,36  L 60,36  L 60,15  L 61,15  L 61,14  L 63,14  L 63,13  L 69,13  L 69,12  L 75,12  L 75,11  L 83,11  L 83,10  L 90,10  L 90,9  L 92,9  L 92,8  L 94,8  L 94,7  L 95,7  L 95,6  L 96,6  L 96,5  L 95,5  L 95,4  L 94,4  L 94,2  L 92,2  L 92,1  L 85,1  L 85,2  L 80,2  L 80,3  L 77,3  L 77,4  L 71,4  L 71,5  L 62,5  L 62,6  L 53,6  L 53,7  L 49,7  L 49,6  L 38,6  L 38,7  L 18,7  L 18,8  L 14,8  L 14,9  L 10,9  L 10,10  L 6,10  L 6,11  L 4,11  L 4,12  L 3,12  L 3,13  L 1,13  L 1,16  L 3,16  L 3,18  L 5,18  L 5,20  L 6,20  L 6,48  L 7,48  L 7,49  L 9,49  L 9,50  L 10,50  L 10,51  L 14,51  L 14,52  L 15,52  L 15,51  L 16,51  L 16,52  L 28,52  L 28,53  L 29,53  L 29,52  L 32,52  L 32,53  L 33,53  L 33,52  L 48,52  L 48,51  L 49,51  L 49,52  L 50,52  L 50,51  L 51,51  L 51,52  L 52,52  L 52,57  L 53,57  L 53,58  L 52,58  L 52,59  L 53,59  L 53,80  L 47,80  L 47,81  L 42,81  L 42,82  L 33,82  L 33,83  L 26,83  L 26,84  L 25,84  L 25,83  L 24,83  L 24,84  L 16,84  L 16,85  L 12,85  L 12,86  L 11,86  L 11,85  L 9,85  L 9,86  L 5,86  L 5,87  L 4,87  L 4,92  L 5,92  L 5,94  L 9,94  L 9,93  L 14,93  L 14,92  L 19,92  L 19,91  L 21,91  L 21,92  L 22,92  L 22,91  L 27,91  L 27,90  L 34,90  L 34,89  L 39,89  L 39,88  L 47,88  L 47,87  L 48,87  L 48,88  L 50,88  L 50,87  L 53,87  L 53,88  L 54,88  L 54,87  L 64,87  L 64,86  L 83,86  L 83,85  L 84,85  L 84,86  L 85,86  L 85,85  L 101,85  L 101,84  L 103,84  Z  M 35,15  L 35,14  L 36,14  L 36,15  L 37,15  L 37,14  L 40,14  L 40,15  L 41,15  L 41,14  L 46,14  L 46,13  L 48,13  L 48,12  L 51,12  L 51,10  L 52,10  L 52,11  L 53,11  L 53,14  L 54,14  L 54,15  L 53,15  L 53,49  L 52,49  L 52,46  L 50,46  L 50,45  L 41,45  L 41,46  L 26,46  L 26,45  L 24,45  L 24,46  L 22,46  L 22,45  L 14,45  L 14,44  L 13,44  L 13,35  L 12,35  L 12,34  L 13,34  L 13,26  L 14,26  L 14,18  L 16,18  L 16,17  L 18,17  L 18,16  L 23,16  L 23,15  L 24,15  L 24,16  L 25,16  L 25,15  Z  M 51,51  L 51,50  L 52,50  L 52,51  Z  " style="fill:rgb(0, 0, 0); fill-opacity:1.000; stroke:none;" />
 <path d="  M 86,135  L 86,132  L 87,132  L 87,127  L 88,127  L 88,124  L 89,124  L 89,123  L 88,123  L 88,122  L 89,122  L 89,116  L 88,116  L 88,114  L 87,114  L 87,113  L 86,113  L 86,112  L 85,112  L 85,111  L 84,111  L 84,110  L 82,110  L 82,109  L 79,109  L 79,108  L 76,108  L 76,107  L 58,107  L 58,108  L 50,108  L 50,109  L 49,109  L 49,108  L 48,108  L 48,109  L 40,109  L 40,110  L 27,110  L 27,111  L 26,111  L 26,110  L 25,110  L 25,111  L 22,111  L 22,112  L 21,112  L 21,113  L 20,113  L 20,118  L 31,118  L 31,117  L 32,117  L 32,118  L 36,118  L 36,117  L 43,117  L 43,116  L 44,116  L 44,117  L 46,117  L 46,116  L 55,116  L 55,115  L 56,115  L 56,116  L 58,116  L 58,115  L 73,115  L 73,116  L 77,116  L 77,117  L 79,117  L 79,118  L 80,118  L 80,119  L 81,119  L 81,124  L 80,124  L 80,127  L 79,127  L 79,128  L 78,128  L 78,131  L 77,131  L 77,135  L 76,135  L 76,138  L 75,138  L 75,143  L 74,143  L 74,152  L 73,152  L 73,157  L 72,157  L 72,162  L 73,162  L 73,163  L 79,163  L 79,162  L 80,162  L 80,160  L 81,160  L 81,159  L 80,159  L 80,158  L 81,158  L 81,154  L 82,154  L 82,152  L 81,152  L 81,151  L 82,151  L 82,144  L 83,144  L 83,141  L 84,141  L 84,138  L 85,138  L 85,135  Z  " style="fill:rgb(0, 0, 0); fill-opacity:1.000; stroke:none;" />
</svg>
