<?xml version="1.0" encoding="UTF-8" standalone="no"?>
<!DOCTYPE svg PUBLIC "-//W3C//DTD SVG 1.1//EN" 
  "http://www.w3.org/Graphics/SVG/1.1/DTD/svg11.dtd">
<svg width="106" height="157"
     xmlns="http://www.w3.org/2000/svg" version="1.1">
 <path d="  M 98,42  L 97,42  L 97,41  L 96,41  L 96,40  L 91,40  L 91,41  L 84,41  L 84,42  L 83,42  L 83,41  L 80,41  L 80,42  L 79,42  L 79,41  L 76,41  L 76,42  L 74,42  L 74,41  L 73,41  L 73,42  L 71,42  L 71,41  L 68,41  L 68,42  L 66,42  L 66,41  L 65,41  L 65,42  L 61,42  L 61,41  L 60,41  L 60,20  L 61,20  L 61,17  L 60,17  L 60,16  L 61,16  L 61,13  L 63,13  L 63,12  L 67,12  L 67,11  L 68,11  L 68,12  L 69,12  L 69,11  L 79,11  L 79,10  L 80,10  L 80,11  L 81,11  L 81,10  L 90,10  L 90,9  L 92,9  L 92,8  L 94,8  L 94,7  L 95,7  L 95,6  L 96,6  L 96,3  L 95,3  L 95,2  L 94,2  L 94,1  L 89,1  L 89,2  L 86,2  L 86,3  L 77,3  L 77,4  L 75,4  L 75,3  L 74,3  L 74,4  L 68,4  L 68,5  L 55,5  L 55,6  L 53,6  L 53,10  L 54,10  L 54,45  L 53,45  L 53,47  L 50,47  L 50,46  L 44,46  L 44,47  L 43,47  L 43,46  L 42,46  L 42,47  L 34,47  L 34,48  L 31,48  L 31,47  L 30,47  L 30,48  L 14,48  L 14,47  L 13,47  L 13,45  L 12,45  L 12,44  L 13,44  L 13,43  L 12,43  L 12,28  L 13,28  L 13,27  L 12,27  L 12,26  L 13,26  L 13,20  L 14,20  L 14,17  L 15,17  L 15,16  L 17,16  L 17,15  L 19,15  L 19,14  L 27,14  L 27,13  L 28,13  L 28,14  L 29,14  L 29,13  L 47,13  L 47,12  L 49,12  L 49,11  L 50,11  L 50,10  L 51,10  L 51,6  L 46,6  L 46,5  L 45,5  L 45,6  L 44,6  L 44,5  L 42,5  L 42,6  L 40,6  L 40,5  L 39,5  L 39,6  L 19,6  L 19,7  L 13,7  L 13,8  L 12,8  L 12,7  L 11,7  L 11,8  L 8,8  L 8,9  L 7,9  L 7,8  L 6,8  L 6,9  L 5,9  L 5,10  L 0,10  L 0,14  L 1,14  L 1,15  L 2,15  L 2,16  L 4,16  L 4,17  L 5,17  L 5,18  L 6,18  L 6,52  L 9,52  L 9,53  L 10,53  L 10,54  L 13,54  L 13,55  L 16,55  L 16,56  L 17,56  L 17,55  L 18,55  L 18,56  L 19,56  L 19,55  L 33,55  L 33,54  L 34,54  L 34,55  L 35,55  L 35,54  L 36,54  L 36,55  L 37,55  L 37,54  L 41,54  L 41,53  L 44,53  L 44,54  L 45,54  L 45,53  L 50,53  L 50,52  L 52,52  L 52,89  L 51,89  L 51,91  L 50,91  L 50,90  L 49,90  L 49,91  L 46,91  L 46,90  L 45,90  L 45,91  L 44,91  L 44,90  L 43,90  L 43,91  L 32,91  L 32,92  L 31,92  L 31,91  L 30,91  L 30,92  L 27,92  L 27,91  L 26,91  L 26,92  L 23,92  L 23,93  L 21,93  L 21,92  L 20,92  L 20,93  L 13,93  L 13,92  L 12,92  L 12,93  L 6,93  L 6,94  L 5,94  L 5,99  L 7,99  L 7,100  L 10,100  L 10,101  L 28,101  L 28,100  L 34,100  L 34,99  L 37,99  L 37,100  L 38,100  L 38,99  L 41,99  L 41,98  L 53,98  L 53,97  L 63,97  L 63,96  L 72,96  L 72,95  L 73,95  L 73,96  L 74,96  L 74,95  L 77,95  L 77,96  L 78,96  L 78,95  L 85,95  L 85,94  L 86,94  L 86,95  L 87,95  L 87,94  L 105,94  L 105,93  L 106,93  L 106,86  L 93,86  L 93,87  L 92,87  L 92,86  L 91,86  L 91,87  L 78,87  L 78,88  L 75,88  L 75,87  L 74,87  L 74,88  L 71,88  L 71,87  L 70,87  L 70,88  L 67,88  L 67,87  L 66,87  L 66,88  L 63,88  L 63,89  L 61,89  L 61,87  L 60,87  L 60,81  L 59,81  L 59,80  L 60,80  L 60,69  L 59,69  L 59,68  L 60,68  L 60,65  L 59,65  L 59,64  L 60,64  L 60,63  L 59,63  L 59,62  L 60,62  L 60,53  L 59,53  L 59,50  L 60,50  L 60,48  L 94,48  L 94,49  L 96,49  L 96,48  L 98,48  Z  " style="fill:rgb(0, 0, 0); fill-opacity:1.000; stroke:none;" />
 <path d="  M 33,108  L 32,108  L 32,107  L 29,107  L 29,108  L 26,108  L 26,110  L 25,110  L 25,142  L 24,142  L 24,143  L 25,143  L 25,146  L 24,146  L 24,147  L 25,147  L 25,150  L 24,150  L 24,151  L 25,151  L 25,154  L 26,154  L 26,156  L 27,156  L 27,157  L 43,157  L 43,156  L 44,156  L 44,157  L 46,157  L 46,156  L 54,156  L 54,155  L 62,155  L 62,154  L 66,154  L 66,153  L 73,153  L 73,152  L 83,152  L 83,151  L 90,151  L 90,150  L 93,150  L 93,149  L 95,149  L 95,148  L 97,148  L 97,147  L 99,147  L 99,144  L 95,144  L 95,143  L 86,143  L 86,144  L 83,144  L 83,143  L 82,143  L 82,144  L 78,144  L 78,145  L 69,145  L 69,146  L 63,146  L 63,147  L 57,147  L 57,148  L 55,148  L 55,147  L 54,147  L 54,148  L 50,148  L 50,149  L 40,149  L 40,150  L 39,150  L 39,149  L 36,149  L 36,150  L 32,150  L 32,148  L 31,148  L 31,146  L 32,146  L 32,125  L 31,125  L 31,124  L 32,124  L 32,112  L 33,112  Z  " style="fill:rgb(0, 0, 0); fill-opacity:1.000; stroke:none;" />
</svg>
