<?xml version="1.0" encoding="UTF-8" standalone="no"?>
<!DOCTYPE svg PUBLIC "-//W3C//DTD SVG 1.1//EN" 
  "http://www.w3.org/Graphics/SVG/1.1/DTD/svg11.dtd">
<svg width="112" height="94"
     xmlns="http://www.w3.org/2000/svg" version="1.1">
 <path d="  M 53,42  L 53,43  L 51,43  L 51,42  L 50,42  L 50,41  L 49,41  L 49,34  L 48,34  L 48,33  L 49,33  L 49,32  L 48,32  L 48,20  L 49,20  L 49,18  L 58,18  L 58,17  L 59,17  L 59,18  L 62,18  L 62,17  L 63,17  L 63,18  L 64,18  L 64,17  L 74,17  L 74,16  L 76,16  L 76,15  L 77,15  L 77,11  L 76,11  L 76,10  L 69,10  L 69,11  L 62,11  L 62,12  L 61,12  L 61,11  L 60,11  L 60,12  L 57,12  L 57,11  L 56,11  L 56,12  L 53,12  L 53,11  L 46,11  L 46,10  L 24,10  L 24,11  L 16,11  L 16,12  L 11,12  L 11,13  L 10,13  L 10,12  L 9,12  L 9,13  L 4,13  L 4,14  L 2,14  L 2,13  L 1,13  L 1,14  L 0,14  L 0,15  L 3,15  L 3,16  L 4,16  L 4,35  L 5,35  L 5,36  L 4,36  L 4,37  L 5,37  L 5,45  L 6,45  L 6,48  L 7,48  L 7,51  L 8,51  L 8,53  L 10,53  L 10,55  L 14,55  L 14,54  L 17,54  L 17,53  L 19,53  L 19,52  L 20,52  L 20,53  L 21,53  L 21,52  L 24,52  L 24,51  L 26,51  L 26,50  L 36,50  L 36,49  L 39,49  L 39,48  L 41,48  L 41,44  L 40,44  L 40,43  L 38,43  L 38,42  L 35,42  L 35,43  L 31,43  L 31,44  L 27,44  L 27,45  L 26,45  L 26,44  L 25,44  L 25,45  L 24,45  L 24,46  L 19,46  L 19,47  L 16,47  L 16,48  L 12,48  L 12,42  L 11,42  L 11,41  L 12,41  L 12,40  L 11,40  L 11,30  L 10,30  L 10,29  L 11,29  L 11,26  L 10,26  L 10,25  L 11,25  L 11,19  L 12,19  L 12,18  L 18,18  L 18,17  L 27,17  L 27,16  L 28,16  L 28,17  L 29,17  L 29,16  L 32,16  L 32,17  L 33,17  L 33,16  L 36,16  L 36,17  L 37,17  L 37,16  L 43,16  L 43,38  L 44,38  L 44,45  L 43,45  L 43,46  L 44,46  L 44,49  L 43,49  L 43,54  L 42,54  L 42,60  L 41,60  L 41,61  L 42,61  L 42,63  L 41,63  L 41,65  L 42,65  L 42,67  L 41,67  L 41,70  L 42,70  L 42,71  L 41,71  L 41,72  L 32,72  L 32,73  L 29,73  L 29,74  L 25,74  L 25,75  L 18,75  L 18,76  L 9,76  L 9,77  L 7,77  L 7,78  L 6,78  L 6,81  L 7,81  L 7,83  L 13,83  L 13,82  L 18,82  L 18,81  L 25,81  L 25,80  L 29,80  L 29,79  L 31,79  L 31,80  L 32,80  L 32,79  L 37,79  L 37,78  L 41,78  L 41,77  L 46,77  L 46,76  L 57,76  L 57,75  L 65,75  L 65,74  L 73,74  L 73,73  L 76,73  L 76,72  L 77,72  L 77,70  L 78,70  L 78,69  L 77,69  L 77,68  L 76,68  L 76,67  L 72,67  L 72,68  L 65,68  L 65,69  L 58,69  L 58,70  L 47,70  L 47,61  L 48,61  L 48,60  L 47,60  L 47,59  L 48,59  L 48,53  L 49,53  L 49,49  L 50,49  L 50,48  L 52,48  L 52,49  L 53,49  L 53,48  L 65,48  L 65,47  L 74,47  L 74,46  L 75,46  L 75,47  L 77,47  L 77,46  L 80,46  L 80,44  L 81,44  L 81,41  L 80,41  L 80,40  L 72,40  L 72,41  L 65,41  L 65,42  L 64,42  L 64,41  L 62,41  L 62,42  Z  " style="fill:rgb(0, 0, 0); fill-opacity:1.000; stroke:none;" />
 <path d="  M 82,94  L 87,94  L 87,93  L 88,93  L 88,75  L 89,75  L 89,59  L 90,59  L 90,53  L 91,53  L 91,52  L 90,52  L 90,49  L 91,49  L 91,48  L 90,48  L 90,46  L 91,46  L 91,45  L 93,45  L 93,44  L 96,44  L 96,45  L 97,45  L 97,44  L 104,44  L 104,45  L 105,45  L 105,44  L 112,44  L 112,39  L 102,39  L 102,38  L 101,38  L 101,39  L 98,39  L 98,38  L 97,38  L 97,39  L 93,39  L 93,40  L 91,40  L 91,39  L 90,39  L 90,35  L 91,35  L 91,34  L 90,34  L 90,33  L 91,33  L 91,32  L 90,32  L 90,31  L 91,31  L 91,22  L 90,22  L 90,21  L 91,21  L 91,20  L 90,20  L 90,19  L 91,19  L 91,18  L 90,18  L 90,17  L 91,17  L 91,16  L 90,16  L 90,1  L 88,1  L 88,0  L 87,0  L 87,1  L 85,1  L 85,2  L 84,2  L 84,13  L 85,13  L 85,15  L 84,15  L 84,17  L 85,17  L 85,20  L 84,20  L 84,21  L 85,21  L 85,24  L 84,24  L 84,25  L 85,25  L 85,46  L 84,46  L 84,64  L 83,64  L 83,65  L 84,65  L 84,66  L 83,66  L 83,86  L 82,86  Z  " style="fill:rgb(0, 0, 0); fill-opacity:1.000; stroke:none;" />
</svg>
