<?xml version="1.0" encoding="UTF-8" standalone="no"?>
<!DOCTYPE svg PUBLIC "-//W3C//DTD SVG 1.1//EN" 
  "http://www.w3.org/Graphics/SVG/1.1/DTD/svg11.dtd">
<svg width="109" height="99"
     xmlns="http://www.w3.org/2000/svg" version="1.1">
 <path d="  M 13,12  L 13,11  L 12,11  L 12,12  L 9,12  L 9,13  L 8,13  L 8,12  L 7,12  L 7,13  L 5,13  L 5,12  L 0,12  L 0,14  L 3,14  L 3,15  L 5,15  L 5,16  L 6,16  L 6,17  L 7,17  L 7,21  L 6,21  L 6,22  L 7,22  L 7,25  L 6,25  L 6,26  L 7,26  L 7,29  L 6,29  L 6,30  L 7,30  L 7,33  L 6,33  L 6,34  L 7,34  L 7,36  L 6,36  L 6,38  L 7,38  L 7,41  L 6,41  L 6,42  L 7,42  L 7,49  L 8,49  L 8,52  L 9,52  L 9,53  L 10,53  L 10,56  L 11,56  L 11,57  L 12,57  L 12,56  L 16,56  L 16,55  L 19,55  L 19,54  L 24,54  L 24,53  L 29,53  L 29,54  L 30,54  L 30,53  L 32,53  L 32,52  L 34,52  L 34,51  L 36,51  L 36,45  L 28,45  L 28,47  L 24,47  L 24,48  L 18,48  L 18,49  L 14,49  L 14,45  L 13,45  L 13,20  L 14,20  L 14,18  L 18,18  L 18,17  L 27,17  L 27,16  L 28,16  L 28,17  L 29,17  L 29,16  L 30,16  L 30,17  L 31,17  L 31,16  L 39,16  L 39,17  L 40,17  L 40,39  L 41,39  L 41,40  L 40,40  L 40,47  L 39,47  L 39,50  L 38,50  L 38,59  L 37,59  L 37,76  L 36,76  L 36,77  L 32,77  L 32,76  L 31,76  L 31,77  L 29,77  L 29,76  L 28,76  L 28,77  L 24,77  L 24,78  L 19,78  L 19,79  L 15,79  L 15,80  L 11,80  L 11,81  L 8,81  L 8,82  L 6,82  L 6,83  L 4,83  L 4,84  L 3,84  L 3,86  L 4,86  L 4,87  L 3,87  L 3,88  L 5,88  L 5,90  L 7,90  L 7,89  L 9,89  L 9,88  L 10,88  L 10,87  L 13,87  L 13,86  L 18,86  L 18,85  L 24,85  L 24,84  L 32,84  L 32,83  L 36,83  L 36,82  L 42,82  L 42,81  L 47,81  L 47,80  L 53,80  L 53,79  L 54,79  L 54,80  L 55,80  L 55,79  L 59,79  L 59,78  L 62,78  L 62,77  L 67,77  L 67,78  L 69,78  L 69,79  L 71,79  L 71,80  L 72,80  L 72,74  L 71,74  L 71,72  L 70,72  L 70,71  L 67,71  L 67,70  L 66,70  L 66,71  L 62,71  L 62,72  L 60,72  L 60,73  L 55,73  L 55,74  L 53,74  L 53,73  L 52,73  L 52,74  L 47,74  L 47,75  L 46,75  L 46,74  L 44,74  L 44,73  L 43,73  L 43,62  L 44,62  L 44,61  L 43,61  L 43,60  L 44,60  L 44,54  L 45,54  L 45,51  L 46,51  L 46,50  L 50,50  L 50,51  L 52,51  L 52,50  L 60,50  L 60,49  L 67,49  L 67,48  L 70,48  L 70,43  L 69,43  L 69,42  L 64,42  L 64,43  L 60,43  L 60,44  L 48,44  L 48,45  L 47,45  L 47,18  L 48,18  L 48,16  L 49,16  L 49,15  L 65,15  L 65,14  L 66,14  L 66,13  L 67,13  L 67,12  L 68,12  L 68,9  L 65,9  L 65,8  L 58,8  L 58,9  L 30,9  L 30,10  L 29,10  L 29,9  L 28,9  L 28,10  L 22,10  L 22,11  L 15,11  L 15,12  Z  " style="fill:rgb(0, 0, 0); fill-opacity:1.000; stroke:none;" />
 <path d="  M 103,16  L 103,36  L 104,36  L 104,37  L 103,37  L 103,38  L 104,38  L 104,43  L 87,43  L 87,39  L 86,39  L 86,38  L 87,38  L 87,37  L 86,37  L 86,19  L 85,19  L 85,18  L 86,18  L 86,17  L 85,17  L 85,14  L 86,14  L 86,13  L 85,13  L 85,10  L 86,10  L 86,7  L 85,7  L 85,6  L 83,6  L 83,5  L 80,5  L 80,6  L 79,6  L 79,7  L 78,7  L 78,21  L 79,21  L 79,23  L 78,23  L 78,24  L 79,24  L 79,34  L 80,34  L 80,36  L 79,36  L 79,38  L 80,38  L 80,65  L 79,65  L 79,66  L 80,66  L 80,67  L 79,67  L 79,86  L 80,86  L 80,88  L 81,88  L 81,89  L 82,89  L 82,88  L 85,88  L 85,84  L 86,84  L 86,83  L 85,83  L 85,82  L 86,82  L 86,79  L 85,79  L 85,78  L 86,78  L 86,75  L 85,75  L 85,74  L 86,74  L 86,71  L 85,71  L 85,70  L 86,70  L 86,51  L 87,51  L 87,50  L 88,50  L 88,49  L 103,49  L 103,51  L 104,51  L 104,57  L 103,57  L 103,58  L 104,58  L 104,65  L 103,65  L 103,66  L 104,66  L 104,99  L 109,99  L 109,16  L 108,16  L 108,2  L 107,2  L 107,0  L 104,0  L 104,1  L 102,1  L 102,16  Z  " style="fill:rgb(0, 0, 0); fill-opacity:1.000; stroke:none;" />
</svg>
