<?xml version="1.0" encoding="UTF-8" standalone="no"?>
<!DOCTYPE svg PUBLIC "-//W3C//DTD SVG 1.1//EN" 
  "http://www.w3.org/Graphics/SVG/1.1/DTD/svg11.dtd">
<svg width="107" height="123"
     xmlns="http://www.w3.org/2000/svg" version="1.1">
 <path d="  M 52,25  L 54,25  L 54,24  L 56,24  L 56,25  L 57,25  L 57,24  L 60,24  L 60,25  L 61,25  L 61,24  L 66,24  L 66,25  L 67,25  L 67,24  L 80,24  L 80,23  L 81,23  L 81,22  L 83,22  L 83,20  L 84,20  L 84,19  L 83,19  L 83,18  L 82,18  L 82,17  L 80,17  L 80,16  L 77,16  L 77,17  L 56,17  L 56,16  L 55,16  L 55,17  L 53,17  L 53,16  L 52,16  L 52,17  L 42,17  L 42,18  L 41,18  L 41,17  L 40,17  L 40,18  L 36,18  L 36,19  L 26,19  L 26,20  L 13,20  L 13,21  L 4,21  L 4,20  L 3,20  L 3,21  L 1,21  L 1,22  L 0,22  L 0,24  L 3,24  L 3,25  L 6,25  L 6,26  L 7,26  L 7,44  L 8,44  L 8,45  L 7,45  L 7,46  L 8,46  L 8,55  L 9,55  L 9,59  L 10,59  L 10,63  L 11,63  L 11,65  L 13,65  L 13,67  L 14,67  L 14,69  L 15,69  L 15,70  L 17,70  L 17,69  L 19,69  L 19,68  L 23,68  L 23,67  L 26,67  L 26,66  L 30,66  L 30,65  L 31,65  L 31,66  L 32,66  L 32,65  L 35,65  L 35,64  L 44,64  L 44,63  L 47,63  L 47,93  L 42,93  L 42,94  L 39,94  L 39,95  L 36,95  L 36,96  L 31,96  L 31,97  L 27,97  L 27,98  L 14,98  L 14,99  L 8,99  L 8,100  L 7,100  L 7,101  L 6,101  L 6,104  L 7,104  L 7,105  L 8,105  L 8,106  L 15,106  L 15,105  L 24,105  L 24,104  L 29,104  L 29,103  L 30,103  L 30,104  L 31,104  L 31,103  L 33,103  L 33,102  L 37,102  L 37,101  L 42,101  L 42,100  L 44,100  L 44,99  L 48,99  L 48,98  L 52,98  L 52,97  L 56,97  L 56,96  L 61,96  L 61,95  L 67,95  L 67,94  L 73,94  L 73,93  L 77,93  L 77,92  L 78,92  L 78,93  L 79,93  L 79,92  L 81,92  L 81,91  L 85,91  L 85,90  L 87,90  L 87,89  L 88,89  L 88,90  L 89,90  L 89,88  L 92,88  L 92,87  L 95,87  L 95,86  L 94,86  L 94,85  L 95,85  L 95,84  L 94,84  L 94,83  L 89,83  L 89,84  L 84,84  L 84,85  L 80,85  L 80,86  L 76,86  L 76,87  L 71,87  L 71,88  L 64,88  L 64,89  L 58,89  L 58,90  L 57,90  L 57,89  L 53,89  L 53,66  L 52,66  L 52,64  L 53,64  L 53,63  L 65,63  L 65,62  L 73,62  L 73,61  L 74,61  L 74,62  L 76,62  L 76,61  L 85,61  L 85,60  L 86,60  L 86,61  L 88,61  L 88,60  L 89,60  L 89,59  L 90,59  L 90,57  L 91,57  L 91,56  L 90,56  L 90,53  L 86,53  L 86,54  L 82,54  L 82,55  L 76,55  L 76,56  L 69,56  L 69,57  L 54,57  L 54,58  L 53,58  L 53,57  L 52,57  Z  M 38,57  L 38,58  L 37,58  L 37,57  L 36,57  L 36,58  L 34,58  L 34,59  L 30,59  L 30,60  L 29,60  L 29,59  L 28,59  L 28,60  L 25,60  L 25,61  L 24,61  L 24,60  L 23,60  L 23,61  L 22,61  L 22,62  L 17,62  L 17,61  L 16,61  L 16,59  L 15,59  L 15,55  L 14,55  L 14,54  L 15,54  L 15,53  L 14,53  L 14,29  L 15,29  L 15,28  L 19,28  L 19,27  L 25,27  L 25,26  L 26,26  L 26,27  L 29,27  L 29,26  L 44,26  L 44,25  L 45,25  L 45,26  L 46,26  L 46,45  L 45,45  L 45,46  L 46,46  L 46,53  L 45,53  L 45,56  L 40,56  L 40,57  Z  " style="fill:rgb(0, 0, 0); fill-opacity:1.000; stroke:none;" />
 <path d="  M 102,100  L 101,100  L 101,101  L 102,101  L 102,103  L 101,103  L 101,117  L 100,117  L 100,118  L 101,118  L 101,123  L 105,123  L 105,122  L 106,122  L 106,118  L 107,118  L 107,117  L 106,117  L 106,116  L 107,116  L 107,17  L 106,17  L 106,8  L 105,8  L 105,2  L 104,2  L 104,1  L 103,1  L 103,0  L 100,0  L 100,1  L 99,1  L 99,11  L 100,11  L 100,18  L 101,18  L 101,28  L 102,28  Z  " style="fill:rgb(0, 0, 0); fill-opacity:1.000; stroke:none;" />
</svg>
