<?xml version="1.0" encoding="UTF-8" standalone="no"?>
<!DOCTYPE svg PUBLIC "-//W3C//DTD SVG 1.1//EN" 
  "http://www.w3.org/Graphics/SVG/1.1/DTD/svg11.dtd">
<svg width="111" height="142"
     xmlns="http://www.w3.org/2000/svg" version="1.1">
 <path d="  M 80,43  L 88,43  L 88,44  L 90,44  L 90,43  L 91,43  L 91,36  L 85,36  L 85,37  L 81,37  L 81,38  L 75,38  L 75,39  L 58,39  L 58,40  L 57,40  L 57,39  L 56,39  L 56,40  L 54,40  L 54,41  L 51,41  L 51,33  L 50,33  L 50,30  L 51,30  L 51,29  L 50,29  L 50,28  L 51,28  L 51,27  L 50,27  L 50,26  L 51,26  L 51,25  L 50,25  L 50,24  L 51,24  L 51,13  L 52,13  L 52,12  L 53,12  L 53,11  L 68,11  L 68,10  L 69,10  L 69,11  L 70,11  L 70,10  L 71,10  L 71,11  L 72,11  L 72,10  L 80,10  L 80,9  L 82,9  L 82,8  L 83,8  L 83,5  L 82,5  L 82,4  L 81,4  L 81,3  L 80,3  L 80,2  L 77,2  L 77,3  L 70,3  L 70,4  L 68,4  L 68,3  L 67,3  L 67,4  L 59,4  L 59,5  L 43,5  L 43,6  L 28,6  L 28,7  L 16,7  L 16,8  L 15,8  L 15,9  L 13,9  L 13,10  L 12,10  L 12,9  L 11,9  L 11,8  L 9,8  L 9,9  L 8,9  L 8,8  L 5,8  L 5,9  L 2,9  L 2,10  L 1,10  L 1,11  L 0,11  L 0,13  L 1,13  L 1,14  L 3,14  L 3,15  L 7,15  L 7,14  L 11,14  L 11,15  L 12,15  L 12,19  L 11,19  L 11,20  L 12,20  L 12,21  L 11,21  L 11,45  L 12,45  L 12,49  L 13,49  L 13,50  L 14,50  L 14,52  L 16,52  L 16,53  L 17,53  L 17,54  L 18,54  L 18,55  L 27,55  L 27,54  L 30,54  L 30,53  L 36,53  L 36,52  L 37,52  L 37,53  L 38,53  L 38,52  L 43,52  L 43,51  L 44,51  L 44,52  L 46,52  L 46,56  L 47,56  L 47,60  L 48,60  L 48,61  L 47,61  L 47,64  L 48,64  L 48,66  L 47,66  L 47,68  L 48,68  L 48,73  L 47,73  L 47,74  L 41,74  L 41,75  L 40,75  L 40,74  L 39,74  L 39,75  L 30,75  L 30,76  L 28,76  L 28,75  L 27,75  L 27,76  L 21,76  L 21,77  L 12,77  L 12,78  L 10,78  L 10,80  L 9,80  L 9,82  L 10,82  L 10,83  L 12,83  L 12,84  L 18,84  L 18,83  L 20,83  L 20,84  L 21,84  L 21,83  L 32,83  L 32,82  L 33,82  L 33,83  L 34,83  L 34,82  L 48,82  L 48,81  L 56,81  L 56,80  L 66,80  L 66,79  L 67,79  L 67,80  L 68,80  L 68,79  L 74,79  L 74,78  L 77,78  L 77,77  L 81,77  L 81,76  L 83,76  L 83,75  L 87,75  L 87,74  L 89,74  L 89,73  L 94,73  L 94,72  L 96,72  L 96,70  L 95,70  L 95,68  L 94,68  L 94,67  L 93,67  L 93,66  L 92,66  L 92,65  L 90,65  L 90,64  L 89,64  L 89,65  L 88,65  L 88,66  L 86,66  L 86,67  L 85,67  L 85,68  L 83,68  L 83,69  L 80,69  L 80,70  L 78,70  L 78,71  L 74,71  L 74,72  L 70,72  L 70,73  L 69,73  L 69,72  L 68,72  L 68,73  L 58,73  L 58,74  L 57,74  L 57,73  L 55,73  L 55,72  L 54,72  L 54,70  L 55,70  L 55,69  L 54,69  L 54,60  L 53,60  L 53,52  L 52,52  L 52,48  L 53,48  L 53,47  L 57,47  L 57,46  L 62,46  L 62,45  L 63,45  L 63,46  L 64,46  L 64,45  L 74,45  L 74,44  L 80,44  Z  M 18,24  L 19,24  L 19,23  L 18,23  L 18,20  L 19,20  L 19,19  L 18,19  L 18,18  L 19,18  L 19,13  L 28,13  L 28,12  L 29,12  L 29,13  L 32,13  L 32,12  L 33,12  L 33,13  L 36,13  L 36,12  L 37,12  L 37,13  L 39,13  L 39,12  L 41,12  L 41,13  L 42,13  L 42,12  L 45,12  L 45,29  L 44,29  L 44,30  L 45,30  L 45,33  L 44,33  L 44,34  L 45,34  L 45,37  L 44,37  L 44,38  L 45,38  L 45,45  L 42,45  L 42,46  L 38,46  L 38,47  L 29,47  L 29,48  L 22,48  L 22,49  L 21,49  L 21,48  L 19,48  L 19,45  L 18,45  Z  " style="fill:rgb(0, 0, 0); fill-opacity:1.000; stroke:none;" />
 <path d="  M 92,132  L 92,133  L 82,133  L 82,134  L 80,134  L 80,133  L 79,133  L 79,134  L 70,134  L 70,135  L 59,135  L 59,136  L 56,136  L 56,135  L 55,135  L 55,136  L 49,136  L 49,134  L 48,134  L 48,112  L 49,112  L 49,102  L 48,102  L 48,101  L 47,101  L 47,100  L 43,100  L 43,101  L 42,101  L 42,105  L 41,105  L 41,107  L 42,107  L 42,109  L 41,109  L 41,118  L 40,118  L 40,119  L 41,119  L 41,122  L 40,122  L 40,124  L 41,124  L 41,126  L 40,126  L 40,128  L 41,128  L 41,129  L 40,129  L 40,131  L 41,131  L 41,136  L 42,136  L 42,139  L 43,139  L 43,140  L 44,140  L 44,141  L 45,141  L 45,142  L 70,142  L 70,141  L 71,141  L 71,142  L 72,142  L 72,141  L 73,141  L 73,142  L 74,142  L 74,141  L 84,141  L 84,140  L 92,140  L 92,139  L 93,139  L 93,140  L 95,140  L 95,139  L 104,139  L 104,138  L 105,138  L 105,139  L 107,139  L 107,138  L 108,138  L 108,137  L 110,137  L 110,136  L 111,136  L 111,130  L 109,130  L 109,131  L 108,131  L 108,130  L 107,130  L 107,131  L 99,131  L 99,132  Z  " style="fill:rgb(0, 0, 0); fill-opacity:1.000; stroke:none;" />
 <path d="  M 110,60  L 111,60  L 111,59  L 110,59  L 110,52  L 111,52  L 111,51  L 110,51  L 110,31  L 109,31  L 109,20  L 108,20  L 108,6  L 107,6  L 107,3  L 106,3  L 106,1  L 105,1  L 105,0  L 103,0  L 103,1  L 102,1  L 102,2  L 101,2  L 101,8  L 102,8  L 102,18  L 103,18  L 103,19  L 102,19  L 102,20  L 103,20  L 103,30  L 104,30  L 104,31  L 103,31  L 103,32  L 104,32  L 104,87  L 103,87  L 103,88  L 104,88  L 104,91  L 103,91  L 103,94  L 104,94  L 104,95  L 103,95  L 103,97  L 104,97  L 104,99  L 109,99  L 109,97  L 110,97  Z  " style="fill:rgb(0, 0, 0); fill-opacity:1.000; stroke:none;" />
</svg>
