<?xml version="1.0" encoding="UTF-8" standalone="no"?>
<!DOCTYPE svg PUBLIC "-//W3C//DTD SVG 1.1//EN" 
  "http://www.w3.org/Graphics/SVG/1.1/DTD/svg11.dtd">
<svg width="107" height="163"
     xmlns="http://www.w3.org/2000/svg" version="1.1">
 <path d="  M 61,25  L 62,25  L 62,24  L 61,24  L 61,23  L 62,23  L 62,14  L 63,14  L 63,13  L 64,13  L 64,12  L 69,12  L 69,11  L 78,11  L 78,10  L 90,10  L 90,9  L 92,9  L 92,8  L 93,8  L 93,7  L 94,7  L 94,5  L 95,5  L 95,4  L 94,4  L 94,3  L 93,3  L 93,2  L 92,2  L 92,1  L 84,1  L 84,2  L 77,2  L 77,3  L 71,3  L 71,4  L 62,4  L 62,5  L 52,5  L 52,6  L 48,6  L 48,5  L 47,5  L 47,6  L 46,6  L 46,5  L 45,5  L 45,6  L 40,6  L 40,7  L 34,7  L 34,6  L 33,6  L 33,7  L 19,7  L 19,8  L 13,8  L 13,9  L 9,9  L 9,10  L 5,10  L 5,11  L 4,11  L 4,12  L 3,12  L 3,13  L 0,13  L 0,17  L 2,17  L 2,18  L 3,18  L 3,19  L 4,19  L 4,18  L 7,18  L 7,19  L 9,19  L 9,28  L 8,28  L 8,29  L 9,29  L 9,30  L 8,30  L 8,31  L 9,31  L 9,34  L 8,34  L 8,35  L 9,35  L 9,36  L 8,36  L 8,37  L 9,37  L 9,38  L 8,38  L 8,39  L 9,39  L 9,48  L 10,48  L 10,49  L 11,49  L 11,50  L 12,50  L 12,51  L 14,51  L 14,52  L 15,52  L 15,53  L 22,53  L 22,54  L 42,54  L 42,53  L 43,53  L 43,54  L 44,54  L 44,53  L 51,53  L 51,52  L 55,52  L 55,51  L 61,51  L 61,50  L 64,50  L 64,51  L 65,51  L 65,50  L 78,50  L 78,49  L 79,49  L 79,50  L 93,50  L 93,51  L 96,51  L 96,52  L 97,52  L 97,51  L 98,51  L 98,50  L 97,50  L 97,49  L 95,49  L 95,47  L 96,47  L 96,45  L 95,45  L 95,42  L 94,42  L 94,41  L 91,41  L 91,42  L 81,42  L 81,43  L 78,43  L 78,42  L 77,42  L 77,43  L 65,43  L 65,44  L 61,44  Z  M 44,15  L 44,14  L 46,14  L 46,13  L 49,13  L 49,12  L 50,12  L 50,11  L 51,11  L 51,10  L 53,10  L 53,11  L 55,11  L 55,36  L 54,36  L 54,37  L 55,37  L 55,47  L 54,47  L 54,46  L 49,46  L 49,45  L 48,45  L 48,46  L 43,46  L 43,47  L 42,47  L 42,46  L 41,46  L 41,47  L 26,47  L 26,46  L 25,46  L 25,47  L 21,47  L 21,46  L 19,46  L 19,47  L 18,47  L 18,46  L 16,46  L 16,45  L 15,45  L 15,25  L 16,25  L 16,24  L 15,24  L 15,23  L 16,23  L 16,19  L 17,19  L 17,17  L 19,17  L 19,16  L 26,16  L 26,15  Z  " style="fill:rgb(0, 0, 0); fill-opacity:1.000; stroke:none;" />
 <path d="  M 10,75  L 10,74  L 13,74  L 13,73  L 15,73  L 15,74  L 16,74  L 16,73  L 24,73  L 24,72  L 25,72  L 25,73  L 26,73  L 26,72  L 39,72  L 39,71  L 47,71  L 47,70  L 50,70  L 50,71  L 51,71  L 51,70  L 58,70  L 58,73  L 57,73  L 57,94  L 56,94  L 56,95  L 57,95  L 57,106  L 55,106  L 55,107  L 41,107  L 41,108  L 35,108  L 35,109  L 28,109  L 28,110  L 27,110  L 27,109  L 26,109  L 26,110  L 22,110  L 22,111  L 20,111  L 20,112  L 19,112  L 19,117  L 20,117  L 20,118  L 24,118  L 24,117  L 28,117  L 28,116  L 32,116  L 32,115  L 41,115  L 41,114  L 54,114  L 54,113  L 66,113  L 66,112  L 67,112  L 67,113  L 68,113  L 68,112  L 73,112  L 73,113  L 76,113  L 76,114  L 77,114  L 77,115  L 78,115  L 78,117  L 77,117  L 77,121  L 76,121  L 76,122  L 75,122  L 75,124  L 74,124  L 74,125  L 73,125  L 73,128  L 72,128  L 72,132  L 71,132  L 71,137  L 70,137  L 70,140  L 69,140  L 69,146  L 68,146  L 68,152  L 67,152  L 67,156  L 66,156  L 66,159  L 67,159  L 67,160  L 66,160  L 66,162  L 67,162  L 67,163  L 72,163  L 72,162  L 73,162  L 73,161  L 74,161  L 74,156  L 75,156  L 75,151  L 76,151  L 76,147  L 77,147  L 77,140  L 78,140  L 78,136  L 79,136  L 79,135  L 80,135  L 80,134  L 79,134  L 79,133  L 80,133  L 80,131  L 81,131  L 81,128  L 82,128  L 82,127  L 83,127  L 83,125  L 84,125  L 84,123  L 85,123  L 85,119  L 86,119  L 86,117  L 85,117  L 85,116  L 86,116  L 86,114  L 85,114  L 85,110  L 84,110  L 84,108  L 83,108  L 83,107  L 81,107  L 81,106  L 79,106  L 79,105  L 64,105  L 64,104  L 63,104  L 63,88  L 64,88  L 64,86  L 63,86  L 63,85  L 64,85  L 64,71  L 65,71  L 65,70  L 66,70  L 66,69  L 82,69  L 82,68  L 93,68  L 93,67  L 95,67  L 95,68  L 96,68  L 96,67  L 100,67  L 100,66  L 101,66  L 101,67  L 102,67  L 102,66  L 105,66  L 105,65  L 107,65  L 107,58  L 106,58  L 106,57  L 104,57  L 104,56  L 102,56  L 102,58  L 100,58  L 100,59  L 99,59  L 99,60  L 96,60  L 96,61  L 93,61  L 93,62  L 92,62  L 92,61  L 90,61  L 90,62  L 76,62  L 76,63  L 75,63  L 75,62  L 74,62  L 74,63  L 57,63  L 57,64  L 50,64  L 50,63  L 49,63  L 49,64  L 40,64  L 40,65  L 35,65  L 35,66  L 24,66  L 24,67  L 15,67  L 15,68  L 4,68  L 4,69  L 1,69  L 1,70  L 0,70  L 0,74  L 1,74  L 1,75  Z  " style="fill:rgb(0, 0, 0); fill-opacity:1.000; stroke:none;" />
</svg>
