<?xml version="1.0" encoding="UTF-8" standalone="no"?>
<!DOCTYPE svg PUBLIC "-//W3C//DTD SVG 1.1//EN" 
  "http://www.w3.org/Graphics/SVG/1.1/DTD/svg11.dtd">
<svg width="107" height="130"
     xmlns="http://www.w3.org/2000/svg" version="1.1">
 <path d="  M 22,63  L 22,62  L 27,62  L 27,61  L 32,61  L 32,60  L 35,60  L 35,59  L 41,59  L 41,58  L 45,58  L 45,59  L 54,59  L 54,58  L 65,58  L 65,57  L 75,57  L 75,56  L 82,56  L 82,55  L 89,55  L 89,54  L 90,54  L 90,50  L 89,50  L 89,49  L 88,49  L 88,48  L 82,48  L 82,49  L 79,49  L 79,50  L 73,50  L 73,51  L 65,51  L 65,52  L 50,52  L 50,22  L 52,22  L 52,21  L 63,21  L 63,20  L 65,20  L 65,21  L 66,21  L 66,20  L 69,20  L 69,21  L 70,21  L 70,20  L 75,20  L 75,19  L 76,19  L 76,20  L 77,20  L 77,19  L 79,19  L 79,18  L 81,18  L 81,16  L 82,16  L 82,14  L 80,14  L 80,13  L 74,13  L 74,14  L 73,14  L 73,13  L 72,13  L 72,14  L 56,14  L 56,15  L 55,15  L 55,14  L 53,14  L 53,15  L 44,15  L 44,16  L 43,16  L 43,15  L 41,15  L 41,16  L 36,16  L 36,17  L 35,17  L 35,16  L 34,16  L 34,17  L 31,17  L 31,16  L 30,16  L 30,17  L 26,17  L 26,18  L 20,18  L 20,19  L 19,19  L 19,18  L 18,18  L 18,19  L 12,19  L 12,20  L 6,20  L 6,21  L 0,21  L 0,23  L 3,23  L 3,24  L 4,24  L 4,41  L 5,41  L 5,42  L 4,42  L 4,44  L 5,44  L 5,46  L 4,46  L 4,47  L 5,47  L 5,54  L 6,54  L 6,56  L 7,56  L 7,58  L 8,58  L 8,63  L 9,63  L 9,65  L 11,65  L 11,64  L 16,64  L 16,63  Z  M 27,25  L 27,24  L 29,24  L 29,25  L 30,25  L 30,24  L 42,24  L 42,23  L 44,23  L 44,52  L 37,52  L 37,53  L 36,53  L 36,54  L 30,54  L 30,55  L 25,55  L 25,56  L 22,56  L 22,57  L 16,57  L 16,58  L 13,58  L 13,56  L 12,56  L 12,53  L 13,53  L 13,52  L 12,52  L 12,49  L 11,49  L 11,47  L 12,47  L 12,46  L 11,46  L 11,40  L 10,40  L 10,28  L 11,28  L 11,27  L 13,27  L 13,26  L 19,26  L 19,25  Z  " style="fill:rgb(0, 0, 0); fill-opacity:1.000; stroke:none;" />
 <path d="  M 17,83  L 17,82  L 21,82  L 21,81  L 27,81  L 27,80  L 33,80  L 33,79  L 38,79  L 38,78  L 52,78  L 52,77  L 57,77  L 57,76  L 63,76  L 63,75  L 71,75  L 71,74  L 78,74  L 78,73  L 81,73  L 81,72  L 82,72  L 82,73  L 83,73  L 83,72  L 86,72  L 86,71  L 95,71  L 95,66  L 94,66  L 94,64  L 91,64  L 91,63  L 90,63  L 90,64  L 85,64  L 85,65  L 83,65  L 83,66  L 81,66  L 81,67  L 78,67  L 78,68  L 73,68  L 73,69  L 71,69  L 71,68  L 70,68  L 70,69  L 66,69  L 66,70  L 53,70  L 53,71  L 45,71  L 45,72  L 37,72  L 37,73  L 35,73  L 35,72  L 34,72  L 34,73  L 31,73  L 31,74  L 22,74  L 22,75  L 17,75  L 17,76  L 13,76  L 13,77  L 9,77  L 9,78  L 6,78  L 6,79  L 3,79  L 3,82  L 4,82  L 4,85  L 11,85  L 11,84  L 12,84  L 12,83  Z  " style="fill:rgb(0, 0, 0); fill-opacity:1.000; stroke:none;" />
 <path d="  M 50,110  L 49,110  L 49,113  L 48,113  L 48,115  L 47,115  L 47,118  L 46,118  L 46,121  L 45,121  L 45,123  L 44,123  L 44,127  L 45,127  L 45,128  L 46,128  L 46,129  L 50,129  L 50,128  L 51,128  L 51,126  L 52,126  L 52,122  L 53,122  L 53,119  L 54,119  L 54,117  L 55,117  L 55,116  L 54,116  L 54,115  L 55,115  L 55,111  L 56,111  L 56,102  L 57,102  L 57,96  L 56,96  L 56,86  L 55,86  L 55,84  L 54,84  L 54,82  L 53,82  L 53,80  L 49,80  L 49,91  L 50,91  Z  " style="fill:rgb(0, 0, 0); fill-opacity:1.000; stroke:none;" />
 <path d="  M 107,31  L 106,31  L 106,20  L 105,20  L 105,8  L 104,8  L 104,5  L 105,5  L 105,4  L 104,4  L 104,1  L 103,1  L 103,0  L 99,0  L 99,1  L 98,1  L 98,9  L 99,9  L 99,10  L 98,10  L 98,11  L 99,11  L 99,23  L 100,23  L 100,33  L 101,33  L 101,34  L 100,34  L 100,35  L 101,35  L 101,126  L 100,126  L 100,129  L 101,129  L 101,130  L 106,130  L 106,129  L 107,129  Z  " style="fill:rgb(0, 0, 0); fill-opacity:1.000; stroke:none;" />
</svg>
