<?xml version="1.0" encoding="UTF-8" standalone="no"?>
<!DOCTYPE svg PUBLIC "-//W3C//DTD SVG 1.1//EN" 
  "http://www.w3.org/Graphics/SVG/1.1/DTD/svg11.dtd">
<svg width="106" height="158"
     xmlns="http://www.w3.org/2000/svg" version="1.1">
 <path d="  M 61,43  L 61,22  L 62,22  L 62,14  L 63,14  L 63,13  L 64,13  L 64,12  L 65,12  L 65,11  L 73,11  L 73,10  L 74,10  L 74,11  L 75,11  L 75,10  L 87,10  L 87,9  L 89,9  L 89,10  L 90,10  L 90,9  L 93,9  L 93,7  L 94,7  L 94,3  L 93,3  L 93,2  L 92,2  L 92,1  L 87,1  L 87,2  L 82,2  L 82,3  L 70,3  L 70,4  L 62,4  L 62,5  L 50,5  L 50,4  L 48,4  L 48,5  L 42,5  L 42,6  L 39,6  L 39,7  L 36,7  L 36,6  L 35,6  L 35,7  L 17,7  L 17,8  L 9,8  L 9,9  L 4,9  L 4,10  L 1,10  L 1,11  L 0,11  L 0,15  L 1,15  L 1,16  L 3,16  L 3,17  L 10,17  L 10,35  L 9,35  L 9,36  L 10,36  L 10,37  L 9,37  L 9,38  L 10,38  L 10,41  L 9,41  L 9,42  L 10,42  L 10,50  L 11,50  L 11,52  L 12,52  L 12,54  L 13,54  L 13,55  L 14,55  L 14,56  L 15,56  L 15,57  L 17,57  L 17,58  L 22,58  L 22,59  L 25,59  L 25,58  L 31,58  L 31,57  L 35,57  L 35,56  L 41,56  L 41,55  L 46,55  L 46,54  L 52,54  L 52,53  L 56,53  L 56,52  L 60,52  L 60,51  L 65,51  L 65,50  L 83,50  L 83,49  L 84,49  L 84,50  L 85,50  L 85,49  L 86,49  L 86,50  L 90,50  L 90,51  L 91,51  L 91,50  L 92,50  L 92,51  L 93,51  L 93,52  L 95,52  L 95,49  L 94,49  L 94,47  L 93,47  L 93,44  L 92,44  L 92,43  L 91,43  L 91,42  L 92,42  L 92,41  L 89,41  L 89,42  L 88,42  L 88,41  L 87,41  L 87,42  L 84,42  L 84,43  L 72,43  L 72,44  L 71,44  L 71,43  L 69,43  L 69,44  L 63,44  L 63,45  L 62,45  L 62,43  Z  M 55,13  L 56,13  L 56,14  L 55,14  L 55,29  L 54,29  L 54,30  L 55,30  L 55,33  L 54,33  L 54,34  L 55,34  L 55,46  L 54,46  L 54,48  L 46,48  L 46,49  L 42,49  L 42,50  L 35,50  L 35,51  L 24,51  L 24,52  L 22,52  L 22,51  L 18,51  L 18,50  L 17,50  L 17,48  L 16,48  L 16,46  L 17,46  L 17,45  L 16,45  L 16,24  L 17,24  L 17,23  L 16,23  L 16,22  L 17,22  L 17,18  L 18,18  L 18,16  L 19,16  L 19,15  L 23,15  L 23,14  L 43,14  L 43,13  L 47,13  L 47,12  L 50,12  L 50,11  L 51,11  L 51,10  L 52,10  L 52,9  L 53,9  L 53,10  L 55,10  Z  " style="fill:rgb(0, 0, 0); fill-opacity:1.000; stroke:none;" />
 <path d="  M 61,68  L 61,69  L 46,69  L 46,70  L 43,70  L 43,69  L 42,69  L 42,70  L 38,70  L 38,71  L 27,71  L 27,72  L 21,72  L 21,73  L 15,73  L 15,74  L 8,74  L 8,75  L 5,75  L 5,76  L 4,76  L 4,80  L 5,80  L 5,81  L 12,81  L 12,80  L 18,80  L 18,79  L 25,79  L 25,78  L 33,78  L 33,77  L 42,77  L 42,76  L 53,76  L 53,75  L 67,75  L 67,74  L 78,74  L 78,73  L 99,73  L 99,72  L 103,72  L 103,71  L 104,71  L 104,70  L 105,70  L 105,69  L 106,69  L 106,64  L 105,64  L 105,63  L 103,63  L 103,64  L 101,64  L 101,65  L 97,65  L 97,66  L 90,66  L 90,67  L 76,67  L 76,68  Z  " style="fill:rgb(0, 0, 0); fill-opacity:1.000; stroke:none;" />
 <path d="  M 24,106  L 23,106  L 23,107  L 24,107  L 24,108  L 31,108  L 31,107  L 36,107  L 36,106  L 38,106  L 38,105  L 43,105  L 43,104  L 44,104  L 44,105  L 45,105  L 45,104  L 51,104  L 51,103  L 63,103  L 63,102  L 64,102  L 64,103  L 67,103  L 67,102  L 68,102  L 68,103  L 69,103  L 69,102  L 70,102  L 70,103  L 71,103  L 71,102  L 72,102  L 72,103  L 74,103  L 74,102  L 76,102  L 76,103  L 78,103  L 78,111  L 77,111  L 77,115  L 76,115  L 76,117  L 75,117  L 75,119  L 74,119  L 74,121  L 73,121  L 73,124  L 72,124  L 72,127  L 71,127  L 71,130  L 70,130  L 70,134  L 69,134  L 69,139  L 68,139  L 68,143  L 67,143  L 67,146  L 66,146  L 66,151  L 65,151  L 65,158  L 71,158  L 71,155  L 72,155  L 72,154  L 73,154  L 73,153  L 72,153  L 72,152  L 73,152  L 73,150  L 74,150  L 74,147  L 75,147  L 75,141  L 76,141  L 76,138  L 77,138  L 77,137  L 76,137  L 76,136  L 77,136  L 77,134  L 78,134  L 78,130  L 79,130  L 79,126  L 80,126  L 80,124  L 81,124  L 81,122  L 82,122  L 82,119  L 83,119  L 83,117  L 84,117  L 84,114  L 85,114  L 85,110  L 86,110  L 86,99  L 85,99  L 85,98  L 84,98  L 84,97  L 82,97  L 82,96  L 80,96  L 80,95  L 70,95  L 70,96  L 57,96  L 57,97  L 43,97  L 43,98  L 35,98  L 35,99  L 34,99  L 34,98  L 33,98  L 33,99  L 30,99  L 30,100  L 28,100  L 28,101  L 26,101  L 26,102  L 25,102  L 25,103  L 24,103  Z  " style="fill:rgb(0, 0, 0); fill-opacity:1.000; stroke:none;" />
</svg>
