<?xml version="1.0" encoding="UTF-8" standalone="no"?>
<!DOCTYPE svg PUBLIC "-//W3C//DTD SVG 1.1//EN" 
  "http://www.w3.org/Graphics/SVG/1.1/DTD/svg11.dtd">
<svg width="104" height="158"
     xmlns="http://www.w3.org/2000/svg" version="1.1">
 <path d="  M 54,25  L 55,25  L 55,26  L 54,26  L 54,29  L 55,29  L 55,30  L 54,30  L 54,45  L 52,45  L 52,46  L 49,46  L 49,45  L 42,45  L 42,46  L 36,46  L 36,47  L 35,47  L 35,46  L 34,46  L 34,47  L 33,47  L 33,46  L 32,46  L 32,47  L 31,47  L 31,46  L 30,46  L 30,47  L 27,47  L 27,46  L 26,46  L 26,47  L 24,47  L 24,46  L 21,46  L 21,45  L 20,45  L 20,43  L 19,43  L 19,40  L 18,40  L 18,38  L 19,38  L 19,36  L 18,36  L 18,34  L 19,34  L 19,25  L 20,25  L 20,24  L 19,24  L 19,21  L 20,21  L 20,18  L 21,18  L 21,17  L 23,17  L 23,16  L 37,16  L 37,15  L 38,15  L 38,16  L 39,16  L 39,15  L 40,15  L 40,16  L 41,16  L 41,15  L 42,15  L 42,16  L 43,16  L 43,15  L 44,15  L 44,14  L 47,14  L 47,13  L 49,13  L 49,11  L 50,11  L 50,9  L 52,9  L 52,10  L 54,10  L 54,12  L 55,12  L 55,24  L 54,24  Z  M 36,54  L 36,53  L 41,53  L 41,52  L 45,52  L 45,51  L 50,51  L 50,50  L 52,50  L 52,49  L 53,49  L 53,47  L 55,47  L 55,48  L 62,48  L 62,49  L 63,49  L 63,48  L 80,48  L 80,47  L 84,47  L 84,48  L 88,48  L 88,49  L 89,49  L 89,48  L 91,48  L 91,49  L 93,49  L 93,48  L 94,48  L 94,39  L 89,39  L 89,40  L 83,40  L 83,41  L 73,41  L 73,42  L 72,42  L 72,41  L 70,41  L 70,42  L 61,42  L 61,40  L 60,40  L 60,38  L 61,38  L 61,31  L 62,31  L 62,30  L 61,30  L 61,29  L 62,29  L 62,18  L 63,18  L 63,14  L 64,14  L 64,13  L 67,13  L 67,12  L 77,12  L 77,11  L 85,11  L 85,10  L 91,10  L 91,9  L 94,9  L 94,7  L 95,7  L 95,2  L 93,2  L 93,1  L 88,1  L 88,2  L 84,2  L 84,3  L 76,3  L 76,4  L 67,4  L 67,5  L 57,5  L 57,6  L 53,6  L 53,7  L 47,7  L 47,6  L 42,6  L 42,7  L 36,7  L 36,8  L 16,8  L 16,9  L 12,9  L 12,10  L 9,10  L 9,9  L 3,9  L 3,10  L 2,10  L 2,12  L 1,12  L 1,17  L 2,17  L 2,18  L 8,18  L 8,17  L 12,17  L 12,18  L 13,18  L 13,23  L 12,23  L 12,43  L 13,43  L 13,47  L 14,47  L 14,49  L 15,49  L 15,50  L 16,50  L 16,51  L 17,51  L 17,52  L 18,52  L 18,53  L 21,53  L 21,54  Z  " style="fill:rgb(0, 0, 0); fill-opacity:1.000; stroke:none;" />
 <path d="  M 2,75  L 3,75  L 3,76  L 4,76  L 4,77  L 10,77  L 10,76  L 13,76  L 13,75  L 16,75  L 16,74  L 23,74  L 23,73  L 29,73  L 29,72  L 41,72  L 41,71  L 42,71  L 42,72  L 43,72  L 43,71  L 65,71  L 65,70  L 70,70  L 70,71  L 71,71  L 71,70  L 102,70  L 102,69  L 103,69  L 103,68  L 104,68  L 104,62  L 103,62  L 103,61  L 102,61  L 102,62  L 101,62  L 101,61  L 100,61  L 100,62  L 97,62  L 97,63  L 79,63  L 79,64  L 77,64  L 77,63  L 75,63  L 75,64  L 73,64  L 73,63  L 72,63  L 72,64  L 69,64  L 69,63  L 68,63  L 68,64  L 65,64  L 65,63  L 64,63  L 64,64  L 61,64  L 61,63  L 60,63  L 60,64  L 44,64  L 44,65  L 41,65  L 41,64  L 40,64  L 40,65  L 28,65  L 28,66  L 20,66  L 20,67  L 15,67  L 15,68  L 10,68  L 10,69  L 7,69  L 7,70  L 4,70  L 4,71  L 3,71  L 3,72  L 2,72  Z  " style="fill:rgb(0, 0, 0); fill-opacity:1.000; stroke:none;" />
 <path d="  M 51,97  L 51,96  L 55,96  L 55,97  L 59,97  L 59,98  L 62,98  L 62,99  L 63,99  L 63,100  L 64,100  L 64,101  L 65,101  L 65,102  L 66,102  L 66,103  L 67,103  L 67,105  L 68,105  L 68,109  L 67,109  L 67,111  L 66,111  L 66,112  L 64,112  L 64,113  L 62,113  L 62,114  L 61,114  L 61,115  L 60,115  L 60,116  L 58,116  L 58,118  L 57,118  L 57,119  L 56,119  L 56,121  L 55,121  L 55,122  L 54,122  L 54,123  L 52,123  L 52,124  L 51,124  L 51,126  L 50,126  L 50,127  L 49,127  L 49,128  L 44,128  L 44,129  L 41,129  L 41,130  L 34,130  L 34,131  L 33,131  L 33,130  L 31,130  L 31,131  L 29,131  L 29,130  L 28,130  L 28,131  L 26,131  L 26,132  L 24,132  L 24,133  L 23,133  L 23,135  L 22,135  L 22,137  L 20,137  L 20,145  L 21,145  L 21,147  L 22,147  L 22,151  L 23,151  L 23,153  L 24,153  L 24,154  L 25,154  L 25,155  L 26,155  L 26,156  L 28,156  L 28,157  L 31,157  L 31,158  L 60,158  L 60,157  L 65,157  L 65,156  L 68,156  L 68,155  L 71,155  L 71,154  L 73,154  L 73,153  L 76,153  L 76,152  L 78,152  L 78,151  L 80,151  L 80,150  L 83,150  L 83,149  L 84,149  L 84,148  L 86,148  L 86,147  L 87,147  L 87,146  L 88,146  L 88,145  L 89,145  L 89,143  L 90,143  L 90,142  L 91,142  L 91,140  L 92,140  L 92,136  L 86,136  L 86,137  L 84,137  L 84,138  L 83,138  L 83,139  L 82,139  L 82,140  L 80,140  L 80,141  L 79,141  L 79,142  L 78,142  L 78,143  L 77,143  L 77,144  L 76,144  L 76,145  L 73,145  L 73,146  L 72,146  L 72,147  L 69,147  L 69,148  L 64,148  L 64,149  L 61,149  L 61,150  L 56,150  L 56,151  L 53,151  L 53,152  L 40,152  L 40,151  L 37,151  L 37,150  L 31,150  L 31,149  L 29,149  L 29,148  L 28,148  L 28,147  L 27,147  L 27,144  L 26,144  L 26,143  L 27,143  L 27,140  L 28,140  L 28,139  L 30,139  L 30,138  L 35,138  L 35,137  L 36,137  L 36,138  L 39,138  L 39,137  L 41,137  L 41,138  L 42,138  L 42,137  L 47,137  L 47,136  L 50,136  L 50,135  L 53,135  L 53,134  L 55,134  L 55,133  L 58,133  L 58,131  L 59,131  L 59,129  L 60,129  L 60,128  L 61,128  L 61,126  L 62,126  L 62,125  L 63,125  L 63,124  L 64,124  L 64,123  L 65,123  L 65,122  L 66,122  L 66,121  L 67,121  L 67,120  L 68,120  L 68,119  L 69,119  L 69,118  L 70,118  L 70,117  L 73,117  L 73,116  L 74,116  L 74,115  L 75,115  L 75,113  L 76,113  L 76,106  L 75,106  L 75,103  L 74,103  L 74,99  L 73,99  L 73,98  L 72,98  L 72,97  L 71,97  L 71,96  L 70,96  L 70,95  L 69,95  L 69,94  L 68,94  L 68,93  L 66,93  L 66,92  L 64,92  L 64,91  L 63,91  L 63,90  L 60,90  L 60,89  L 48,89  L 48,90  L 42,90  L 42,91  L 37,91  L 37,92  L 32,92  L 32,93  L 30,93  L 30,94  L 28,94  L 28,97  L 27,97  L 27,100  L 28,100  L 28,102  L 34,102  L 34,101  L 37,101  L 37,100  L 39,100  L 39,99  L 41,99  L 41,98  L 46,98  L 46,97  Z  " style="fill:rgb(0, 0, 0); fill-opacity:1.000; stroke:none;" />
</svg>
