<?xml version="1.0" encoding="UTF-8" standalone="no"?>
<!DOCTYPE svg PUBLIC "-//W3C//DTD SVG 1.1//EN" 
  "http://www.w3.org/Graphics/SVG/1.1/DTD/svg11.dtd">
<svg width="109" height="137"
     xmlns="http://www.w3.org/2000/svg" version="1.1">
 <path d="  M 73,48  L 73,47  L 79,47  L 79,46  L 86,46  L 86,45  L 88,45  L 88,44  L 89,44  L 89,43  L 90,43  L 90,40  L 89,40  L 89,39  L 88,39  L 88,38  L 87,38  L 87,39  L 83,39  L 83,40  L 77,40  L 77,41  L 67,41  L 67,42  L 55,42  L 55,43  L 54,43  L 54,44  L 52,44  L 52,43  L 51,43  L 51,29  L 50,29  L 50,19  L 51,19  L 51,13  L 53,13  L 53,12  L 67,12  L 67,11  L 68,11  L 68,12  L 69,12  L 69,11  L 79,11  L 79,9  L 80,9  L 80,6  L 79,6  L 79,5  L 78,5  L 78,4  L 77,4  L 77,3  L 76,3  L 76,4  L 75,4  L 75,3  L 74,3  L 74,4  L 68,4  L 68,5  L 54,5  L 54,6  L 42,6  L 42,7  L 30,7  L 30,8  L 29,8  L 29,7  L 28,7  L 28,8  L 14,8  L 14,9  L 13,9  L 13,10  L 12,10  L 12,9  L 3,9  L 3,10  L 1,10  L 1,11  L 0,11  L 0,15  L 4,15  L 4,16  L 6,16  L 6,15  L 10,15  L 10,16  L 11,16  L 11,22  L 10,22  L 10,23  L 11,23  L 11,26  L 10,26  L 10,28  L 11,28  L 11,30  L 10,30  L 10,36  L 11,36  L 11,38  L 10,38  L 10,39  L 11,39  L 11,46  L 12,46  L 12,48  L 13,48  L 13,50  L 14,50  L 14,51  L 15,51  L 15,52  L 16,52  L 16,55  L 17,55  L 17,56  L 18,56  L 18,57  L 19,57  L 19,56  L 29,56  L 29,55  L 32,55  L 32,54  L 34,54  L 34,53  L 35,53  L 35,54  L 36,54  L 36,53  L 38,53  L 38,52  L 41,52  L 41,51  L 47,51  L 47,50  L 49,50  L 49,51  L 51,51  L 51,50  L 58,50  L 58,49  L 62,49  L 62,48  L 71,48  L 71,47  L 72,47  L 72,48  Z  M 17,19  L 18,19  L 18,18  L 17,18  L 17,16  L 18,16  L 18,14  L 31,14  L 31,13  L 32,13  L 32,14  L 33,14  L 33,13  L 44,13  L 44,14  L 45,14  L 45,17  L 44,17  L 44,18  L 45,18  L 45,20  L 44,20  L 44,22  L 45,22  L 45,24  L 44,24  L 44,27  L 45,27  L 45,28  L 44,28  L 44,29  L 45,29  L 45,30  L 44,30  L 44,31  L 45,31  L 45,32  L 44,32  L 44,33  L 45,33  L 45,45  L 44,45  L 44,46  L 37,46  L 37,47  L 32,47  L 32,48  L 28,48  L 28,49  L 23,49  L 23,50  L 22,50  L 22,49  L 20,49  L 20,47  L 19,47  L 19,46  L 18,46  L 18,42  L 17,42  Z  " style="fill:rgb(0, 0, 0); fill-opacity:1.000; stroke:none;" />
 <path d="  M 50,66  L 50,67  L 43,67  L 43,68  L 30,68  L 30,69  L 22,69  L 22,70  L 13,70  L 13,71  L 11,71  L 11,72  L 9,72  L 9,74  L 8,74  L 8,75  L 9,75  L 9,77  L 15,77  L 15,76  L 28,76  L 28,75  L 37,75  L 37,74  L 46,74  L 46,73  L 55,73  L 55,72  L 61,72  L 61,71  L 65,71  L 65,70  L 66,70  L 66,71  L 67,71  L 67,70  L 71,70  L 71,69  L 75,69  L 75,68  L 80,68  L 80,67  L 83,67  L 83,66  L 86,66  L 86,65  L 90,65  L 90,64  L 92,64  L 92,62  L 91,62  L 91,59  L 90,59  L 90,58  L 87,58  L 87,59  L 84,59  L 84,60  L 81,60  L 81,61  L 78,61  L 78,62  L 73,62  L 73,63  L 67,63  L 67,64  L 62,64  L 62,65  L 58,65  L 58,66  Z  " style="fill:rgb(0, 0, 0); fill-opacity:1.000; stroke:none;" />
 <path d="  M 38,131  L 39,131  L 39,133  L 40,133  L 40,135  L 41,135  L 41,136  L 42,136  L 42,137  L 43,137  L 43,136  L 44,136  L 44,137  L 68,137  L 68,136  L 75,136  L 75,135  L 83,135  L 83,134  L 93,134  L 93,133  L 99,133  L 99,132  L 107,132  L 107,131  L 108,131  L 108,130  L 109,130  L 109,125  L 107,125  L 107,124  L 105,124  L 105,125  L 100,125  L 100,126  L 94,126  L 94,127  L 86,127  L 86,128  L 76,128  L 76,129  L 70,129  L 70,130  L 64,130  L 64,131  L 63,131  L 63,130  L 62,130  L 62,131  L 53,131  L 53,132  L 52,132  L 52,131  L 46,131  L 46,129  L 45,129  L 45,103  L 46,103  L 46,102  L 45,102  L 45,99  L 46,99  L 46,91  L 45,91  L 45,90  L 44,90  L 44,91  L 40,91  L 40,93  L 39,93  L 39,97  L 38,97  Z  " style="fill:rgb(0, 0, 0); fill-opacity:1.000; stroke:none;" />
 <path d="  M 105,87  L 105,40  L 104,40  L 104,32  L 103,32  L 103,27  L 102,27  L 102,20  L 101,20  L 101,13  L 100,13  L 100,5  L 99,5  L 99,2  L 98,2  L 98,0  L 96,0  L 96,1  L 95,1  L 95,2  L 94,2  L 94,13  L 95,13  L 95,17  L 96,17  L 96,18  L 95,18  L 95,19  L 96,19  L 96,25  L 97,25  L 97,31  L 98,31  L 98,32  L 97,32  L 97,34  L 98,34  L 98,42  L 99,42  L 99,85  L 100,85  L 100,87  Z  " style="fill:rgb(0, 0, 0); fill-opacity:1.000; stroke:none;" />
</svg>
