<?xml version="1.0" encoding="UTF-8" standalone="no"?>
<!DOCTYPE svg PUBLIC "-//W3C//DTD SVG 1.1//EN" 
  "http://www.w3.org/Graphics/SVG/1.1/DTD/svg11.dtd">
<svg width="110" height="166"
     xmlns="http://www.w3.org/2000/svg" version="1.1">
 <path d="  M 62,52  L 62,51  L 69,51  L 69,50  L 85,50  L 85,49  L 87,49  L 87,48  L 88,48  L 88,47  L 89,47  L 89,45  L 90,45  L 90,41  L 89,41  L 89,40  L 88,40  L 88,39  L 87,39  L 87,40  L 86,40  L 86,41  L 82,41  L 82,42  L 72,42  L 72,43  L 71,43  L 71,42  L 68,42  L 68,43  L 66,43  L 66,42  L 65,42  L 65,43  L 62,43  L 62,44  L 61,44  L 61,43  L 59,43  L 59,44  L 56,44  L 56,43  L 55,43  L 55,20  L 56,20  L 56,13  L 57,13  L 57,12  L 59,12  L 59,11  L 66,11  L 66,10  L 72,10  L 72,9  L 78,9  L 78,8  L 79,8  L 79,9  L 82,9  L 82,8  L 83,8  L 83,9  L 85,9  L 85,8  L 86,8  L 86,7  L 87,7  L 87,2  L 86,2  L 86,1  L 85,1  L 85,0  L 83,0  L 83,1  L 77,1  L 77,2  L 76,2  L 76,1  L 75,1  L 75,2  L 68,2  L 68,3  L 67,3  L 67,2  L 65,2  L 65,3  L 57,3  L 57,4  L 50,4  L 50,5  L 48,5  L 48,11  L 49,11  L 49,26  L 48,26  L 48,27  L 49,27  L 49,30  L 48,30  L 48,31  L 49,31  L 49,32  L 48,32  L 48,50  L 46,50  L 46,49  L 36,49  L 36,50  L 29,50  L 29,51  L 28,51  L 28,50  L 27,50  L 27,51  L 26,51  L 26,50  L 21,50  L 21,49  L 20,49  L 20,31  L 21,31  L 21,30  L 20,30  L 20,27  L 21,27  L 21,26  L 20,26  L 20,23  L 21,23  L 21,22  L 20,22  L 20,19  L 21,19  L 21,15  L 23,15  L 23,14  L 34,14  L 34,13  L 35,13  L 35,14  L 38,14  L 38,13  L 39,13  L 39,14  L 40,14  L 40,13  L 41,13  L 41,10  L 42,10  L 42,8  L 41,8  L 41,7  L 38,7  L 38,6  L 35,6  L 35,7  L 26,7  L 26,8  L 22,8  L 22,7  L 21,7  L 21,8  L 20,8  L 20,7  L 19,7  L 19,8  L 16,8  L 16,7  L 15,7  L 15,8  L 14,8  L 14,9  L 12,9  L 12,10  L 11,10  L 11,9  L 10,9  L 10,8  L 8,8  L 8,9  L 5,9  L 5,10  L 2,10  L 2,11  L 1,11  L 1,12  L 0,12  L 0,14  L 1,14  L 1,15  L 2,15  L 2,16  L 3,16  L 3,17  L 6,17  L 6,16  L 8,16  L 8,15  L 9,15  L 9,14  L 11,14  L 11,13  L 12,13  L 12,15  L 13,15  L 13,26  L 12,26  L 12,27  L 13,27  L 13,38  L 12,38  L 12,39  L 13,39  L 13,40  L 12,40  L 12,41  L 13,41  L 13,42  L 12,42  L 12,43  L 13,43  L 13,51  L 14,51  L 14,53  L 15,53  L 15,55  L 16,55  L 16,56  L 17,56  L 17,57  L 20,57  L 20,58  L 32,58  L 32,57  L 41,57  L 41,56  L 45,56  L 45,55  L 46,55  L 46,54  L 47,54  L 47,53  L 54,53  L 54,52  Z  " style="fill:rgb(0, 0, 0); fill-opacity:1.000; stroke:none;" />
 <path d="  M 37,72  L 37,73  L 29,73  L 29,74  L 23,74  L 23,75  L 19,75  L 19,76  L 17,76  L 17,77  L 12,77  L 12,78  L 11,78  L 11,77  L 10,77  L 10,78  L 6,78  L 6,80  L 7,80  L 7,83  L 6,83  L 6,84  L 7,84  L 7,85  L 10,85  L 10,84  L 11,84  L 11,85  L 13,85  L 13,84  L 16,84  L 16,83  L 20,83  L 20,82  L 26,82  L 26,81  L 30,81  L 30,80  L 36,80  L 36,79  L 38,79  L 38,80  L 40,80  L 40,79  L 46,79  L 46,78  L 57,78  L 57,77  L 70,77  L 70,76  L 71,76  L 71,77  L 74,77  L 74,76  L 75,76  L 75,77  L 78,77  L 78,76  L 79,76  L 79,77  L 82,77  L 82,76  L 83,76  L 83,77  L 90,77  L 90,76  L 93,76  L 93,75  L 95,75  L 95,74  L 97,74  L 97,73  L 98,73  L 98,69  L 97,69  L 97,68  L 94,68  L 94,69  L 90,69  L 90,70  L 61,70  L 61,71  L 60,71  L 60,70  L 59,70  L 59,71  L 58,71  L 58,70  L 57,70  L 57,71  L 47,71  L 47,72  Z  " style="fill:rgb(0, 0, 0); fill-opacity:1.000; stroke:none;" />
 <path d="  M 88,110  L 87,110  L 87,109  L 86,109  L 86,108  L 85,108  L 85,107  L 82,107  L 82,106  L 80,106  L 80,105  L 78,105  L 78,104  L 74,104  L 74,103  L 71,103  L 71,102  L 65,102  L 65,101  L 58,101  L 58,100  L 51,100  L 51,101  L 50,101  L 50,100  L 49,100  L 49,101  L 46,101  L 46,102  L 44,102  L 44,104  L 43,104  L 43,109  L 54,109  L 54,108  L 64,108  L 64,109  L 70,109  L 70,110  L 71,110  L 71,111  L 73,111  L 73,112  L 76,112  L 76,113  L 78,113  L 78,114  L 80,114  L 80,115  L 81,115  L 81,117  L 82,117  L 82,118  L 81,118  L 81,121  L 79,121  L 79,122  L 78,122  L 78,123  L 76,123  L 76,124  L 74,124  L 74,125  L 72,125  L 72,126  L 70,126  L 70,127  L 69,127  L 69,128  L 67,128  L 67,129  L 66,129  L 66,130  L 65,130  L 65,132  L 63,132  L 63,133  L 61,133  L 61,134  L 58,134  L 58,135  L 57,135  L 57,136  L 55,136  L 55,137  L 53,137  L 53,138  L 52,138  L 52,139  L 50,139  L 50,140  L 49,140  L 49,141  L 48,141  L 48,142  L 47,142  L 47,145  L 46,145  L 46,146  L 45,146  L 45,150  L 44,150  L 44,154  L 45,154  L 45,153  L 47,153  L 47,150  L 48,150  L 48,149  L 49,149  L 49,148  L 50,148  L 50,147  L 52,147  L 52,146  L 53,146  L 53,145  L 55,145  L 55,144  L 58,144  L 58,143  L 60,143  L 60,142  L 61,142  L 61,141  L 63,141  L 63,140  L 64,140  L 64,139  L 67,139  L 67,138  L 68,138  L 68,137  L 70,137  L 70,136  L 72,136  L 72,135  L 73,135  L 73,134  L 74,134  L 74,133  L 76,133  L 76,131  L 78,131  L 78,130  L 81,130  L 81,129  L 82,129  L 82,128  L 83,128  L 83,127  L 86,127  L 86,126  L 87,126  L 87,125  L 88,125  L 88,124  L 90,124  L 90,123  L 91,123  L 91,121  L 92,121  L 92,119  L 93,119  L 93,118  L 92,118  L 92,116  L 91,116  L 91,115  L 90,115  L 90,113  L 89,113  L 89,112  L 88,112  Z  " style="fill:rgb(0, 0, 0); fill-opacity:1.000; stroke:none;" />
 <path d="  M 76,166  L 76,165  L 78,165  L 78,164  L 81,164  L 81,163  L 83,163  L 83,162  L 85,162  L 85,161  L 87,161  L 87,160  L 89,160  L 89,159  L 92,159  L 92,158  L 93,158  L 93,157  L 95,157  L 95,156  L 96,156  L 96,155  L 98,155  L 98,154  L 101,154  L 101,153  L 102,153  L 102,152  L 104,152  L 104,151  L 105,151  L 105,150  L 106,150  L 106,149  L 107,149  L 107,148  L 108,148  L 108,144  L 107,144  L 107,143  L 103,143  L 103,144  L 101,144  L 101,145  L 99,145  L 99,146  L 97,146  L 97,147  L 95,147  L 95,148  L 93,148  L 93,149  L 92,149  L 92,150  L 89,150  L 89,152  L 87,152  L 87,153  L 85,153  L 85,154  L 84,154  L 84,155  L 82,155  L 82,156  L 79,156  L 79,157  L 76,157  L 76,158  L 73,158  L 73,159  L 63,159  L 63,160  L 62,160  L 62,159  L 61,159  L 61,160  L 60,160  L 60,159  L 55,159  L 55,158  L 51,158  L 51,157  L 50,157  L 50,156  L 48,156  L 48,155  L 47,155  L 47,154  L 46,154  L 46,155  L 45,155  L 45,157  L 44,157  L 44,159  L 45,159  L 45,161  L 46,161  L 46,162  L 47,162  L 47,163  L 48,163  L 48,164  L 51,164  L 51,165  L 55,165  L 55,166  Z  " style="fill:rgb(0, 0, 0); fill-opacity:1.000; stroke:none;" />
 <path d="  M 104,62  L 103,62  L 103,67  L 104,67  L 104,68  L 103,68  L 103,69  L 104,69  L 104,70  L 103,70  L 103,71  L 104,71  L 104,72  L 103,72  L 103,75  L 104,75  L 104,76  L 103,76  L 103,79  L 104,79  L 104,80  L 103,80  L 103,83  L 104,83  L 104,84  L 103,84  L 103,85  L 104,85  L 104,88  L 103,88  L 103,90  L 104,90  L 104,91  L 103,91  L 103,99  L 108,99  L 108,98  L 109,98  L 109,96  L 110,96  L 110,3  L 109,3  L 109,1  L 108,1  L 108,0  L 104,0  L 104,1  L 103,1  L 103,2  L 102,2  L 102,3  L 103,3  L 103,33  L 104,33  L 104,34  L 103,34  L 103,55  L 104,55  L 104,56  L 103,56  L 103,61  L 104,61  Z  " style="fill:rgb(0, 0, 0); fill-opacity:1.000; stroke:none;" />
</svg>
