<?xml version="1.0" encoding="UTF-8" standalone="no"?>
<!DOCTYPE svg PUBLIC "-//W3C//DTD SVG 1.1//EN" 
  "http://www.w3.org/Graphics/SVG/1.1/DTD/svg11.dtd">
<svg width="111" height="156"
     xmlns="http://www.w3.org/2000/svg" version="1.1">
 <path d="  M 47,42  L 48,42  L 48,44  L 47,44  L 47,46  L 44,46  L 44,45  L 43,45  L 43,46  L 38,46  L 38,47  L 28,47  L 28,48  L 27,48  L 27,47  L 26,47  L 26,48  L 20,48  L 20,47  L 19,47  L 19,45  L 18,45  L 18,42  L 19,42  L 19,41  L 18,41  L 18,25  L 19,25  L 19,18  L 20,18  L 20,15  L 21,15  L 21,14  L 28,14  L 28,13  L 29,13  L 29,14  L 30,14  L 30,13  L 33,13  L 33,14  L 34,14  L 34,13  L 37,13  L 37,14  L 38,14  L 38,13  L 47,13  Z  M 58,51  L 58,50  L 64,50  L 64,49  L 65,49  L 65,50  L 66,50  L 66,49  L 69,49  L 69,48  L 75,48  L 75,47  L 76,47  L 76,48  L 77,48  L 77,47  L 82,47  L 82,46  L 91,46  L 91,41  L 90,41  L 90,39  L 89,39  L 89,38  L 87,38  L 87,39  L 83,39  L 83,40  L 78,40  L 78,41  L 66,41  L 66,42  L 63,42  L 63,43  L 58,43  L 58,44  L 54,44  L 54,41  L 53,41  L 53,40  L 54,40  L 54,37  L 53,37  L 53,36  L 54,36  L 54,33  L 53,33  L 53,32  L 54,32  L 54,12  L 56,12  L 56,11  L 65,11  L 65,10  L 75,10  L 75,9  L 83,9  L 83,8  L 86,8  L 86,7  L 87,7  L 87,4  L 86,4  L 86,2  L 85,2  L 85,1  L 83,1  L 83,0  L 82,0  L 82,1  L 77,1  L 77,2  L 74,2  L 74,3  L 65,3  L 65,4  L 52,4  L 52,5  L 45,5  L 45,6  L 43,6  L 43,5  L 42,5  L 42,6  L 35,6  L 35,7  L 16,7  L 16,8  L 5,8  L 5,9  L 2,9  L 2,10  L 1,10  L 1,13  L 0,13  L 0,15  L 1,15  L 1,16  L 2,16  L 2,15  L 3,15  L 3,16  L 8,16  L 8,15  L 12,15  L 12,24  L 11,24  L 11,25  L 12,25  L 12,26  L 11,26  L 11,45  L 12,45  L 12,48  L 13,48  L 13,51  L 14,51  L 14,53  L 15,53  L 15,54  L 19,54  L 19,55  L 20,55  L 20,54  L 21,54  L 21,55  L 22,55  L 22,54  L 23,54  L 23,55  L 24,55  L 24,54  L 31,54  L 31,53  L 32,53  L 32,54  L 34,54  L 34,53  L 39,53  L 39,52  L 40,52  L 40,53  L 42,53  L 42,52  L 49,52  L 49,51  L 50,51  L 50,52  L 52,52  L 52,51  Z  " style="fill:rgb(0, 0, 0); fill-opacity:1.000; stroke:none;" />
 <path d="  M 33,77  L 33,76  L 41,76  L 41,75  L 47,75  L 47,74  L 48,74  L 48,75  L 49,75  L 49,74  L 54,74  L 54,73  L 61,73  L 61,72  L 71,72  L 71,71  L 81,71  L 81,70  L 88,70  L 88,69  L 90,69  L 90,68  L 91,68  L 91,67  L 94,67  L 94,66  L 96,66  L 96,63  L 95,63  L 95,62  L 94,62  L 94,61  L 89,61  L 89,62  L 84,62  L 84,63  L 79,63  L 79,64  L 75,64  L 75,65  L 69,65  L 69,66  L 67,66  L 67,65  L 66,65  L 66,66  L 59,66  L 59,67  L 50,67  L 50,68  L 44,68  L 44,69  L 30,69  L 30,70  L 23,70  L 23,71  L 18,71  L 18,72  L 13,72  L 13,73  L 8,73  L 8,78  L 9,78  L 9,79  L 12,79  L 12,80  L 14,80  L 14,79  L 17,79  L 17,78  L 21,78  L 21,77  Z  " style="fill:rgb(0, 0, 0); fill-opacity:1.000; stroke:none;" />
 <path d="  M 71,156  L 71,155  L 77,155  L 77,154  L 81,154  L 81,153  L 86,153  L 86,152  L 87,152  L 87,151  L 88,151  L 88,152  L 89,152  L 89,151  L 90,151  L 90,150  L 93,150  L 93,149  L 94,149  L 94,148  L 96,148  L 96,147  L 97,147  L 97,146  L 98,146  L 98,139  L 99,139  L 99,131  L 100,131  L 100,129  L 99,129  L 99,128  L 100,128  L 100,126  L 101,126  L 101,125  L 100,125  L 100,124  L 101,124  L 101,122  L 102,122  L 102,121  L 101,121  L 101,120  L 102,120  L 102,119  L 101,119  L 101,118  L 102,118  L 102,117  L 101,117  L 101,116  L 102,116  L 102,100  L 101,100  L 101,99  L 97,99  L 97,100  L 96,100  L 96,101  L 95,101  L 95,103  L 96,103  L 96,105  L 95,105  L 95,106  L 96,106  L 96,108  L 95,108  L 95,110  L 96,110  L 96,112  L 95,112  L 95,121  L 93,121  L 93,122  L 92,122  L 92,121  L 90,121  L 90,122  L 89,122  L 89,121  L 62,121  L 62,122  L 61,122  L 61,121  L 58,121  L 58,122  L 55,122  L 55,121  L 54,121  L 54,122  L 51,122  L 51,121  L 50,121  L 50,122  L 49,122  L 49,121  L 48,121  L 48,119  L 49,119  L 49,106  L 50,106  L 50,99  L 51,99  L 51,94  L 50,94  L 50,92  L 48,92  L 48,93  L 46,93  L 46,94  L 45,94  L 45,96  L 44,96  L 44,98  L 43,98  L 43,101  L 42,101  L 42,107  L 41,107  L 41,113  L 40,113  L 40,114  L 41,114  L 41,115  L 40,115  L 40,130  L 41,130  L 41,136  L 42,136  L 42,142  L 43,142  L 43,147  L 44,147  L 44,148  L 43,148  L 43,149  L 44,149  L 44,150  L 43,150  L 43,151  L 44,151  L 44,152  L 45,152  L 45,153  L 48,153  L 48,154  L 50,154  L 50,155  L 52,155  L 52,156  Z  M 83,146  L 83,147  L 78,147  L 78,148  L 73,148  L 73,149  L 72,149  L 72,148  L 71,148  L 71,149  L 62,149  L 62,150  L 59,150  L 59,149  L 58,149  L 58,150  L 56,150  L 56,149  L 52,149  L 52,147  L 51,147  L 51,146  L 50,146  L 50,143  L 49,143  L 49,137  L 48,137  L 48,134  L 47,134  L 47,131  L 48,131  L 48,130  L 51,130  L 51,129  L 57,129  L 57,130  L 58,130  L 58,129  L 91,129  L 91,130  L 92,130  L 92,139  L 91,139  L 91,143  L 90,143  L 90,144  L 89,144  L 89,145  L 87,145  L 87,146  Z  " style="fill:rgb(0, 0, 0); fill-opacity:1.000; stroke:none;" />
 <path d="  M 104,20  L 104,34  L 105,34  L 105,35  L 104,35  L 104,36  L 105,36  L 105,39  L 104,39  L 104,40  L 105,40  L 105,63  L 104,63  L 104,64  L 105,64  L 105,67  L 104,67  L 104,68  L 105,68  L 105,71  L 104,71  L 104,91  L 103,91  L 103,92  L 104,92  L 104,93  L 105,93  L 105,94  L 108,94  L 108,93  L 109,93  L 109,91  L 110,91  L 110,86  L 111,86  L 111,31  L 110,31  L 110,30  L 111,30  L 111,29  L 110,29  L 110,15  L 109,15  L 109,14  L 110,14  L 110,13  L 109,13  L 109,4  L 108,4  L 108,2  L 107,2  L 107,1  L 105,1  L 105,0  L 103,0  L 103,1  L 101,1  L 101,3  L 102,3  L 102,8  L 103,8  L 103,20  Z  " style="fill:rgb(0, 0, 0); fill-opacity:1.000; stroke:none;" />
</svg>
