<?xml version="1.0" encoding="UTF-8" standalone="no"?>
<!DOCTYPE svg PUBLIC "-//W3C//DTD SVG 1.1//EN" 
  "http://www.w3.org/Graphics/SVG/1.1/DTD/svg11.dtd">
<svg width="111" height="115"
     xmlns="http://www.w3.org/2000/svg" version="1.1">
 <path d="  M 53,59  L 52,59  L 52,72  L 53,72  L 53,73  L 54,73  L 54,74  L 55,74  L 55,73  L 56,73  L 56,74  L 57,74  L 57,73  L 58,73  L 58,74  L 69,74  L 69,73  L 86,73  L 86,72  L 95,72  L 95,73  L 97,73  L 97,72  L 98,72  L 98,68  L 97,68  L 97,67  L 96,67  L 96,66  L 94,66  L 94,65  L 85,65  L 85,66  L 79,66  L 79,67  L 67,67  L 67,68  L 66,68  L 66,67  L 63,67  L 63,68  L 60,68  L 60,66  L 59,66  L 59,56  L 60,56  L 60,42  L 61,42  L 61,41  L 60,41  L 60,39  L 61,39  L 61,36  L 62,36  L 62,33  L 63,33  L 63,32  L 66,32  L 66,31  L 67,31  L 67,30  L 71,30  L 71,29  L 74,29  L 74,28  L 77,28  L 77,27  L 81,27  L 81,26  L 83,26  L 83,25  L 85,25  L 85,24  L 86,24  L 86,23  L 87,23  L 87,22  L 88,22  L 88,21  L 87,21  L 87,19  L 84,19  L 84,20  L 83,20  L 83,19  L 82,19  L 82,20  L 79,20  L 79,21  L 73,21  L 73,22  L 67,22  L 67,23  L 66,23  L 66,22  L 64,22  L 64,23  L 38,23  L 38,22  L 37,22  L 37,23  L 34,23  L 34,22  L 33,22  L 33,23  L 32,23  L 32,22  L 31,22  L 31,23  L 30,23  L 30,22  L 29,22  L 29,23  L 28,23  L 28,22  L 27,22  L 27,23  L 26,23  L 26,22  L 25,22  L 25,23  L 22,23  L 22,22  L 21,22  L 21,23  L 13,23  L 13,24  L 1,24  L 1,25  L 0,25  L 0,27  L 2,27  L 2,28  L 4,28  L 4,29  L 7,29  L 7,30  L 12,30  L 12,75  L 13,75  L 13,79  L 14,79  L 14,81  L 15,81  L 15,82  L 17,82  L 17,83  L 18,83  L 18,82  L 19,82  L 19,83  L 28,83  L 28,82  L 33,82  L 33,81  L 35,81  L 35,80  L 36,80  L 36,79  L 44,79  L 44,78  L 48,78  L 48,77  L 50,77  L 50,76  L 51,76  L 51,75  L 52,75  L 52,74  L 51,74  L 51,73  L 50,73  L 50,72  L 42,72  L 42,71  L 41,71  L 41,72  L 37,72  L 37,73  L 34,73  L 34,74  L 31,74  L 31,75  L 23,75  L 23,76  L 20,76  L 20,74  L 19,74  L 19,63  L 18,63  L 18,62  L 19,62  L 19,59  L 18,59  L 18,46  L 19,46  L 19,44  L 18,44  L 18,43  L 19,43  L 19,34  L 20,34  L 20,33  L 19,33  L 19,32  L 20,32  L 20,31  L 21,31  L 21,30  L 51,30  L 51,31  L 53,31  Z  " style="fill:rgb(0, 0, 0); fill-opacity:1.000; stroke:none;" />
 <path d="  M 52,72  L 51,72  L 51,73  L 52,73  Z  " style="fill:rgb(0, 0, 0); fill-opacity:1.000; stroke:none;" />
 <path d="  M 104,24  L 105,24  L 105,27  L 104,27  L 104,28  L 105,28  L 105,71  L 104,71  L 104,72  L 105,72  L 105,75  L 104,75  L 104,76  L 105,76  L 105,79  L 104,79  L 104,80  L 105,80  L 105,83  L 104,83  L 104,84  L 105,84  L 105,87  L 104,87  L 104,88  L 105,88  L 105,91  L 104,91  L 104,92  L 105,92  L 105,95  L 104,95  L 104,110  L 103,110  L 103,115  L 108,115  L 108,114  L 109,114  L 109,112  L 110,112  L 110,102  L 111,102  L 111,19  L 110,19  L 110,11  L 109,11  L 109,1  L 107,1  L 107,0  L 104,0  L 104,1  L 103,1  L 103,12  L 104,12  Z  " style="fill:rgb(0, 0, 0); fill-opacity:1.000; stroke:none;" />
</svg>
