<?xml version="1.0" encoding="UTF-8" standalone="no"?>
<!DOCTYPE svg PUBLIC "-//W3C//DTD SVG 1.1//EN" 
  "http://www.w3.org/Graphics/SVG/1.1/DTD/svg11.dtd">
<svg width="110" height="167"
     xmlns="http://www.w3.org/2000/svg" version="1.1">
 <path d="  M 96,68  L 93,68  L 93,69  L 92,69  L 92,68  L 91,68  L 91,69  L 86,69  L 86,70  L 82,70  L 82,71  L 80,71  L 80,70  L 79,70  L 79,71  L 69,71  L 69,72  L 68,72  L 68,71  L 67,71  L 67,72  L 62,72  L 62,71  L 60,71  L 60,69  L 59,69  L 59,66  L 58,66  L 58,60  L 57,60  L 57,53  L 56,53  L 56,41  L 55,41  L 55,25  L 62,25  L 62,24  L 70,24  L 70,23  L 75,23  L 75,22  L 80,22  L 80,21  L 82,21  L 82,19  L 83,19  L 83,16  L 82,16  L 82,14  L 78,14  L 78,15  L 73,15  L 73,16  L 67,16  L 67,17  L 59,17  L 59,18  L 58,18  L 58,17  L 57,17  L 57,18  L 43,18  L 43,19  L 42,19  L 42,18  L 41,18  L 41,19  L 29,19  L 29,20  L 19,20  L 19,19  L 15,19  L 15,18  L 10,18  L 10,19  L 7,19  L 7,20  L 5,20  L 5,19  L 3,19  L 3,21  L 1,21  L 1,23  L 0,23  L 0,24  L 2,24  L 2,26  L 3,26  L 3,25  L 6,25  L 6,24  L 8,24  L 8,25  L 9,25  L 9,26  L 10,26  L 10,27  L 9,27  L 9,28  L 10,28  L 10,42  L 11,42  L 11,43  L 10,43  L 10,46  L 11,46  L 11,48  L 10,48  L 10,49  L 11,49  L 11,64  L 12,64  L 12,65  L 11,65  L 11,66  L 12,66  L 12,70  L 13,70  L 13,72  L 12,72  L 12,73  L 13,73  L 13,74  L 14,74  L 14,76  L 15,76  L 15,77  L 16,77  L 16,78  L 22,78  L 22,79  L 23,79  L 23,78  L 28,78  L 28,77  L 33,77  L 33,76  L 37,76  L 37,75  L 38,75  L 38,76  L 41,76  L 41,75  L 43,75  L 43,74  L 44,74  L 44,73  L 45,73  L 45,68  L 41,68  L 41,67  L 40,67  L 40,68  L 36,68  L 36,69  L 33,69  L 33,70  L 26,70  L 26,71  L 25,71  L 25,70  L 24,70  L 24,71  L 21,71  L 21,70  L 20,70  L 20,69  L 19,69  L 19,56  L 18,56  L 18,43  L 17,43  L 17,42  L 18,42  L 18,39  L 17,39  L 17,25  L 19,25  L 19,26  L 21,26  L 21,27  L 28,27  L 28,26  L 31,26  L 31,27  L 32,27  L 32,26  L 39,26  L 39,25  L 43,25  L 43,24  L 48,24  L 48,38  L 49,38  L 49,54  L 50,54  L 50,61  L 51,61  L 51,66  L 52,66  L 52,69  L 53,69  L 53,73  L 54,73  L 54,75  L 55,75  L 55,76  L 56,76  L 56,77  L 57,77  L 57,78  L 62,78  L 62,79  L 65,79  L 65,78  L 66,78  L 66,79  L 67,79  L 67,78  L 78,78  L 78,77  L 79,77  L 79,78  L 81,78  L 81,77  L 89,77  L 89,76  L 92,76  L 92,75  L 94,75  L 94,74  L 95,74  L 95,73  L 96,73  L 96,72  L 97,72  L 97,70  L 96,70  Z  " style="fill:rgb(0, 0, 0); fill-opacity:1.000; stroke:none;" />
 <path d="  M 53,166  L 53,167  L 70,167  L 70,166  L 74,166  L 74,165  L 78,165  L 78,164  L 81,164  L 81,163  L 83,163  L 83,162  L 86,162  L 86,161  L 88,161  L 88,160  L 90,160  L 90,159  L 92,159  L 92,158  L 94,158  L 94,157  L 97,157  L 97,156  L 99,156  L 99,155  L 102,155  L 102,154  L 103,154  L 103,153  L 105,153  L 105,152  L 106,152  L 106,151  L 107,151  L 107,149  L 108,149  L 108,148  L 107,148  L 107,147  L 106,147  L 106,146  L 101,146  L 101,147  L 99,147  L 99,148  L 96,148  L 96,149  L 93,149  L 93,150  L 92,150  L 92,151  L 90,151  L 90,152  L 88,152  L 88,153  L 85,153  L 85,154  L 84,154  L 84,155  L 82,155  L 82,156  L 80,156  L 80,157  L 77,157  L 77,158  L 74,158  L 74,159  L 69,159  L 69,160  L 62,160  L 62,161  L 61,161  L 61,160  L 54,160  L 54,159  L 49,159  L 49,158  L 47,158  L 47,156  L 48,156  L 48,155  L 47,155  L 47,154  L 48,154  L 48,146  L 49,146  L 49,144  L 52,144  L 52,143  L 53,143  L 53,142  L 56,142  L 56,141  L 57,141  L 57,140  L 60,140  L 60,139  L 62,139  L 62,138  L 65,138  L 65,137  L 66,137  L 66,136  L 68,136  L 68,135  L 70,135  L 70,134  L 72,134  L 72,133  L 75,133  L 75,132  L 78,132  L 78,131  L 81,131  L 81,130  L 82,130  L 82,129  L 85,129  L 85,128  L 88,128  L 88,127  L 90,127  L 90,125  L 92,125  L 92,124  L 93,124  L 93,123  L 94,123  L 94,121  L 95,121  L 95,116  L 94,116  L 94,115  L 93,115  L 93,114  L 92,114  L 92,111  L 91,111  L 91,110  L 90,110  L 90,109  L 89,109  L 89,108  L 88,108  L 88,107  L 89,107  L 89,106  L 88,106  L 88,105  L 87,105  L 87,104  L 86,104  L 86,103  L 84,103  L 84,102  L 82,102  L 82,101  L 79,101  L 79,100  L 77,100  L 77,99  L 74,99  L 74,98  L 67,98  L 67,97  L 65,97  L 65,98  L 64,98  L 64,97  L 48,97  L 48,98  L 47,98  L 47,99  L 45,99  L 45,103  L 44,103  L 44,106  L 45,106  L 45,107  L 48,107  L 48,106  L 54,106  L 54,105  L 61,105  L 61,104  L 62,104  L 62,105  L 73,105  L 73,106  L 76,106  L 76,107  L 77,107  L 77,108  L 79,108  L 79,109  L 80,109  L 80,110  L 81,110  L 81,111  L 82,111  L 82,112  L 83,112  L 83,113  L 84,113  L 84,116  L 85,116  L 85,119  L 84,119  L 84,120  L 82,120  L 82,121  L 81,121  L 81,122  L 79,122  L 79,123  L 77,123  L 77,124  L 75,124  L 75,125  L 73,125  L 73,126  L 70,126  L 70,127  L 67,127  L 67,128  L 65,128  L 65,129  L 63,129  L 63,130  L 62,130  L 62,131  L 59,131  L 59,132  L 58,132  L 58,133  L 56,133  L 56,134  L 54,134  L 54,135  L 52,135  L 52,136  L 49,136  L 49,137  L 48,137  L 48,138  L 47,138  L 47,139  L 45,139  L 45,140  L 44,140  L 44,141  L 43,141  L 43,143  L 41,143  L 41,144  L 40,144  L 40,149  L 39,149  L 39,156  L 40,156  L 40,157  L 41,157  L 41,158  L 39,158  L 39,161  L 40,161  L 40,164  L 44,164  L 44,165  L 48,165  L 48,166  Z  " style="fill:rgb(0, 0, 0); fill-opacity:1.000; stroke:none;" />
 <path d="  M 90,108  L 90,107  L 89,107  L 89,108  Z  " style="fill:rgb(0, 0, 0); fill-opacity:1.000; stroke:none;" />
 <path d="  M 103,16  L 103,18  L 102,18  L 102,20  L 103,20  L 103,68  L 104,68  L 104,69  L 103,69  L 103,70  L 104,70  L 104,71  L 103,71  L 103,74  L 104,74  L 104,75  L 103,75  L 103,78  L 104,78  L 104,79  L 103,79  L 103,80  L 104,80  L 104,83  L 103,83  L 103,84  L 104,84  L 104,86  L 103,86  L 103,88  L 104,88  L 104,91  L 103,91  L 103,95  L 104,95  L 104,96  L 109,96  L 109,95  L 110,95  L 110,13  L 109,13  L 109,11  L 110,11  L 110,10  L 109,10  L 109,4  L 108,4  L 108,2  L 107,2  L 107,1  L 101,1  L 101,6  L 102,6  L 102,13  L 103,13  L 103,14  L 102,14  L 102,16  Z  " style="fill:rgb(0, 0, 0); fill-opacity:1.000; stroke:none;" />
</svg>
