<?xml version="1.0" encoding="UTF-8" standalone="no"?>
<!DOCTYPE svg PUBLIC "-//W3C//DTD SVG 1.1//EN" 
  "http://www.w3.org/Graphics/SVG/1.1/DTD/svg11.dtd">
<svg width="109" height="146"
     xmlns="http://www.w3.org/2000/svg" version="1.1">
 <path d="  M 50,53  L 49,53  L 49,23  L 60,23  L 60,22  L 61,22  L 61,23  L 62,23  L 62,22  L 67,22  L 67,21  L 75,21  L 75,20  L 76,20  L 76,19  L 77,19  L 77,14  L 76,14  L 76,13  L 73,13  L 73,14  L 67,14  L 67,15  L 63,15  L 63,16  L 41,16  L 41,17  L 40,17  L 40,16  L 26,16  L 26,17  L 19,17  L 19,16  L 14,16  L 14,15  L 11,15  L 11,14  L 8,14  L 8,15  L 5,15  L 5,16  L 4,16  L 4,15  L 3,15  L 3,16  L 1,16  L 1,17  L 0,17  L 0,20  L 6,20  L 6,23  L 7,23  L 7,30  L 8,30  L 8,31  L 7,31  L 7,34  L 8,34  L 8,36  L 7,36  L 7,38  L 8,38  L 8,54  L 9,54  L 9,55  L 8,55  L 8,58  L 9,58  L 9,60  L 8,60  L 8,61  L 9,61  L 9,67  L 10,67  L 10,70  L 11,70  L 11,71  L 13,71  L 13,72  L 14,72  L 14,73  L 15,73  L 15,74  L 25,74  L 25,73  L 27,73  L 27,72  L 32,72  L 32,71  L 34,71  L 34,72  L 35,72  L 35,71  L 40,71  L 40,70  L 41,70  L 41,69  L 43,69  L 43,68  L 44,68  L 44,67  L 45,67  L 45,68  L 46,68  L 46,69  L 48,69  L 48,70  L 50,70  L 50,71  L 53,71  L 53,72  L 67,72  L 67,71  L 76,71  L 76,70  L 77,70  L 77,71  L 78,71  L 78,70  L 81,70  L 81,69  L 83,69  L 83,68  L 84,68  L 84,67  L 85,67  L 85,66  L 88,66  L 88,62  L 87,62  L 87,61  L 82,61  L 82,62  L 80,62  L 80,63  L 78,63  L 78,64  L 77,64  L 77,63  L 76,63  L 76,64  L 71,64  L 71,65  L 70,65  L 70,64  L 69,64  L 69,65  L 53,65  L 53,64  L 51,64  L 51,62  L 50,62  Z  M 24,23  L 24,22  L 25,22  L 25,23  L 26,23  L 26,22  L 27,22  L 27,23  L 28,23  L 28,22  L 29,22  L 29,23  L 37,23  L 37,24  L 38,24  L 38,23  L 40,23  L 40,22  L 41,22  L 41,23  L 42,23  L 42,24  L 43,24  L 43,27  L 42,27  L 42,30  L 43,30  L 43,31  L 42,31  L 42,32  L 43,32  L 43,55  L 44,55  L 44,56  L 43,56  L 43,58  L 44,58  L 44,65  L 41,65  L 41,64  L 35,64  L 35,65  L 31,65  L 31,66  L 27,66  L 27,67  L 17,67  L 17,66  L 16,66  L 16,60  L 15,60  L 15,37  L 14,37  L 14,36  L 15,36  L 15,33  L 14,33  L 14,32  L 15,32  L 15,31  L 14,31  L 14,30  L 15,30  L 15,29  L 14,29  L 14,22  L 17,22  L 17,23  Z  " style="fill:rgb(0, 0, 0); fill-opacity:1.000; stroke:none;" />
 <path d="  M 27,140  L 27,141  L 25,141  L 25,146  L 32,146  L 32,145  L 34,145  L 34,144  L 35,144  L 35,143  L 36,143  L 36,141  L 37,141  L 37,139  L 38,139  L 38,138  L 39,138  L 39,137  L 40,137  L 40,135  L 41,135  L 41,134  L 42,134  L 42,132  L 43,132  L 43,130  L 44,130  L 44,129  L 45,129  L 45,127  L 46,127  L 46,125  L 47,125  L 47,124  L 48,124  L 48,122  L 49,122  L 49,120  L 50,120  L 50,119  L 51,119  L 51,118  L 52,118  L 52,116  L 53,116  L 53,115  L 56,115  L 56,116  L 58,116  L 58,117  L 59,117  L 59,118  L 61,118  L 61,119  L 62,119  L 62,120  L 63,120  L 63,121  L 65,121  L 65,122  L 67,122  L 67,124  L 69,124  L 69,125  L 71,125  L 71,126  L 72,126  L 72,127  L 74,127  L 74,128  L 75,128  L 75,129  L 77,129  L 77,130  L 79,130  L 79,131  L 81,131  L 81,132  L 82,132  L 82,133  L 83,133  L 83,134  L 84,134  L 84,135  L 86,135  L 86,136  L 89,136  L 89,137  L 91,137  L 91,138  L 92,138  L 92,139  L 94,139  L 94,140  L 97,140  L 97,141  L 99,141  L 99,142  L 104,142  L 104,143  L 109,143  L 109,138  L 108,138  L 108,137  L 107,137  L 107,136  L 104,136  L 104,135  L 100,135  L 100,134  L 97,134  L 97,133  L 95,133  L 95,132  L 93,132  L 93,131  L 92,131  L 92,130  L 91,130  L 91,129  L 89,129  L 89,128  L 88,128  L 88,127  L 87,127  L 87,126  L 85,126  L 85,125  L 83,125  L 83,124  L 81,124  L 81,123  L 80,123  L 80,122  L 79,122  L 79,121  L 76,121  L 76,120  L 75,120  L 75,119  L 74,119  L 74,118  L 72,118  L 72,117  L 71,117  L 71,116  L 69,116  L 69,115  L 68,115  L 68,114  L 67,114  L 67,113  L 66,113  L 66,112  L 65,112  L 65,111  L 64,111  L 64,110  L 63,110  L 63,109  L 62,109  L 62,108  L 63,108  L 63,107  L 64,107  L 64,105  L 65,105  L 65,104  L 67,104  L 67,103  L 68,103  L 68,102  L 69,102  L 69,100  L 70,100  L 70,98  L 71,98  L 71,96  L 72,96  L 72,92  L 71,92  L 71,90  L 72,90  L 72,88  L 68,88  L 68,89  L 66,89  L 66,90  L 65,90  L 65,91  L 64,91  L 64,93  L 63,93  L 63,96  L 62,96  L 62,99  L 61,99  L 61,100  L 59,100  L 59,101  L 58,101  L 58,102  L 57,102  L 57,103  L 56,103  L 56,104  L 55,104  L 55,105  L 54,105  L 54,106  L 53,106  L 53,107  L 52,107  L 52,109  L 50,109  L 50,111  L 49,111  L 49,112  L 48,112  L 48,113  L 47,113  L 47,114  L 46,114  L 46,116  L 45,116  L 45,117  L 44,117  L 44,118  L 43,118  L 43,119  L 42,119  L 42,121  L 41,121  L 41,122  L 40,122  L 40,124  L 39,124  L 39,125  L 38,125  L 38,127  L 37,127  L 37,128  L 36,128  L 36,130  L 35,130  L 35,131  L 34,131  L 34,133  L 33,133  L 33,134  L 32,134  L 32,135  L 31,135  L 31,136  L 30,136  L 30,138  L 29,138  L 29,139  L 28,139  L 28,140  Z  " style="fill:rgb(0, 0, 0); fill-opacity:1.000; stroke:none;" />
 <path d="  M 100,38  L 101,38  L 101,39  L 100,39  L 100,42  L 101,42  L 101,88  L 102,88  L 102,89  L 103,89  L 103,90  L 104,90  L 104,89  L 106,89  L 106,88  L 107,88  L 107,87  L 108,87  L 108,85  L 109,85  L 109,56  L 108,56  L 108,55  L 109,55  L 109,52  L 108,52  L 108,50  L 109,50  L 109,48  L 108,48  L 108,45  L 109,45  L 109,44  L 108,44  L 108,31  L 107,31  L 107,5  L 106,5  L 106,1  L 102,1  L 102,0  L 101,0  L 101,1  L 100,1  Z  " style="fill:rgb(0, 0, 0); fill-opacity:1.000; stroke:none;" />
</svg>
