<?xml version="1.0" encoding="UTF-8" standalone="no"?>
<!DOCTYPE svg PUBLIC "-//W3C//DTD SVG 1.1//EN" 
  "http://www.w3.org/Graphics/SVG/1.1/DTD/svg11.dtd">
<svg width="103" height="135"
     xmlns="http://www.w3.org/2000/svg" version="1.1">
 <path d="  M 40,70  L 40,69  L 45,69  L 45,68  L 46,68  L 46,69  L 47,69  L 47,68  L 49,68  L 49,67  L 51,67  L 51,66  L 52,66  L 52,65  L 53,65  L 53,61  L 54,61  L 54,60  L 45,60  L 45,61  L 41,61  L 41,62  L 38,62  L 38,63  L 30,63  L 30,64  L 23,64  L 23,65  L 16,65  L 16,64  L 14,64  L 14,63  L 10,63  L 10,62  L 9,62  L 9,61  L 8,61  L 8,59  L 7,59  L 7,58  L 8,58  L 8,57  L 7,57  L 7,55  L 8,55  L 8,50  L 9,50  L 9,49  L 10,49  L 10,47  L 11,47  L 11,46  L 12,46  L 12,45  L 14,45  L 14,44  L 16,44  L 16,43  L 18,43  L 18,42  L 21,42  L 21,41  L 23,41  L 23,40  L 25,40  L 25,39  L 27,39  L 27,38  L 28,38  L 28,37  L 29,37  L 29,36  L 31,36  L 31,35  L 32,35  L 32,34  L 34,34  L 34,33  L 36,33  L 36,31  L 37,31  L 37,30  L 38,30  L 38,29  L 39,29  L 39,28  L 40,28  L 40,27  L 41,27  L 41,24  L 42,24  L 42,18  L 41,18  L 41,15  L 40,15  L 40,14  L 39,14  L 39,13  L 38,13  L 38,12  L 37,12  L 37,11  L 33,11  L 33,10  L 28,10  L 28,9  L 7,9  L 7,10  L 6,10  L 6,12  L 5,12  L 5,14  L 6,14  L 6,15  L 5,15  L 5,16  L 8,16  L 8,17  L 13,17  L 13,16  L 28,16  L 28,17  L 30,17  L 30,18  L 32,18  L 32,19  L 33,19  L 33,20  L 34,20  L 34,21  L 33,21  L 33,23  L 34,23  L 34,24  L 33,24  L 33,25  L 32,25  L 32,26  L 31,26  L 31,27  L 29,27  L 29,28  L 27,28  L 27,29  L 26,29  L 26,30  L 25,30  L 25,31  L 23,31  L 23,32  L 21,32  L 21,33  L 20,33  L 20,34  L 19,34  L 19,35  L 15,35  L 15,36  L 13,36  L 13,37  L 11,37  L 11,38  L 10,38  L 10,39  L 8,39  L 8,40  L 6,40  L 6,41  L 5,41  L 5,42  L 4,42  L 4,45  L 3,45  L 3,46  L 4,46  L 4,47  L 3,47  L 3,48  L 2,48  L 2,51  L 1,51  L 1,56  L 0,56  L 0,57  L 1,57  L 1,66  L 2,66  L 2,67  L 3,67  L 3,68  L 4,68  L 4,69  L 6,69  L 6,70  L 9,70  L 9,71  L 11,71  L 11,72  L 12,72  L 12,71  L 13,71  L 13,72  L 14,72  L 14,71  L 15,71  L 15,72  L 18,72  L 18,71  L 19,71  L 19,72  L 26,72  L 26,71  L 27,71  L 27,72  L 28,72  L 28,71  L 32,71  L 32,70  Z  " style="fill:rgb(0, 0, 0); fill-opacity:1.000; stroke:none;" />
 <path d="  M 44,129  L 37,129  L 37,128  L 34,128  L 34,127  L 33,127  L 33,123  L 32,123  L 32,118  L 31,118  L 31,107  L 30,107  L 30,106  L 31,106  L 31,105  L 30,105  L 30,95  L 29,95  L 29,89  L 27,89  L 27,88  L 25,88  L 25,89  L 24,89  L 24,91  L 23,91  L 23,104  L 24,104  L 24,105  L 23,105  L 23,106  L 24,106  L 24,107  L 23,107  L 23,108  L 24,108  L 24,120  L 25,120  L 25,122  L 24,122  L 24,123  L 25,123  L 25,125  L 26,125  L 26,128  L 27,128  L 27,130  L 28,130  L 28,133  L 29,133  L 29,134  L 33,134  L 33,135  L 54,135  L 54,134  L 60,134  L 60,133  L 61,133  L 61,134  L 62,134  L 62,133  L 67,133  L 67,132  L 72,132  L 72,131  L 73,131  L 73,132  L 74,132  L 74,131  L 83,131  L 83,130  L 86,130  L 86,129  L 88,129  L 88,126  L 89,126  L 89,123  L 88,123  L 88,122  L 85,122  L 85,123  L 79,123  L 79,124  L 72,124  L 72,125  L 66,125  L 66,126  L 59,126  L 59,127  L 55,127  L 55,128  L 54,128  L 54,127  L 51,127  L 51,128  L 44,128  Z  " style="fill:rgb(0, 0, 0); fill-opacity:1.000; stroke:none;" />
 <path d="  M 72,23  L 71,23  L 71,17  L 70,17  L 70,13  L 69,13  L 69,12  L 70,12  L 70,11  L 69,11  L 69,3  L 68,3  L 68,2  L 67,2  L 67,1  L 62,1  L 62,7  L 63,7  L 63,14  L 64,14  L 64,18  L 65,18  L 65,24  L 66,24  L 66,36  L 67,36  L 67,37  L 66,37  L 66,40  L 67,40  L 67,41  L 66,41  L 66,44  L 67,44  L 67,69  L 68,69  L 68,73  L 67,73  L 67,74  L 68,74  L 68,81  L 69,81  L 69,82  L 73,82  L 73,81  L 74,81  L 74,80  L 75,80  L 75,79  L 74,79  L 74,49  L 73,49  L 73,46  L 74,46  L 74,44  L 76,44  L 76,43  L 80,43  L 80,42  L 81,42  L 81,43  L 82,43  L 82,42  L 87,42  L 87,43  L 88,43  L 88,42  L 101,42  L 101,43  L 102,43  L 102,42  L 103,42  L 103,35  L 102,35  L 102,34  L 101,34  L 101,35  L 100,35  L 100,34  L 99,34  L 99,35  L 98,35  L 98,34  L 81,34  L 81,35  L 80,35  L 80,34  L 79,34  L 79,35  L 74,35  L 74,34  L 73,34  L 73,31  L 72,31  Z  " style="fill:rgb(0, 0, 0); fill-opacity:1.000; stroke:none;" />
</svg>
