<?xml version="1.0" encoding="UTF-8" standalone="no"?>
<!DOCTYPE svg PUBLIC "-//W3C//DTD SVG 1.1//EN" 
  "http://www.w3.org/Graphics/SVG/1.1/DTD/svg11.dtd">
<svg width="105" height="160"
     xmlns="http://www.w3.org/2000/svg" version="1.1">
 <path d="  M 48,67  L 48,68  L 42,68  L 42,69  L 38,69  L 38,70  L 29,70  L 29,71  L 28,71  L 28,70  L 27,70  L 27,71  L 12,71  L 12,70  L 9,70  L 9,68  L 8,68  L 8,64  L 7,64  L 7,61  L 8,61  L 8,60  L 7,60  L 7,59  L 8,59  L 8,58  L 7,58  L 7,57  L 8,57  L 8,54  L 9,54  L 9,52  L 10,52  L 10,51  L 11,51  L 11,50  L 12,50  L 12,49  L 13,49  L 13,48  L 14,48  L 14,47  L 18,47  L 18,46  L 22,46  L 22,45  L 26,45  L 26,44  L 28,44  L 28,43  L 30,43  L 30,42  L 33,42  L 33,41  L 36,41  L 36,40  L 39,40  L 39,39  L 41,39  L 41,38  L 42,38  L 42,37  L 44,37  L 44,36  L 45,36  L 45,35  L 48,35  L 48,33  L 49,33  L 49,32  L 50,32  L 50,31  L 51,31  L 51,30  L 52,30  L 52,28  L 53,28  L 53,23  L 54,23  L 54,21  L 53,21  L 53,20  L 54,20  L 54,19  L 53,19  L 53,17  L 52,17  L 52,16  L 51,16  L 51,15  L 50,15  L 50,14  L 48,14  L 48,13  L 46,13  L 46,12  L 43,12  L 43,11  L 13,11  L 13,12  L 8,12  L 8,13  L 7,13  L 7,14  L 6,14  L 6,15  L 5,15  L 5,18  L 4,18  L 4,20  L 5,20  L 5,21  L 7,21  L 7,20  L 9,20  L 9,21  L 10,21  L 10,20  L 12,20  L 12,19  L 17,19  L 17,18  L 42,18  L 42,19  L 46,19  L 46,28  L 45,28  L 45,29  L 44,29  L 44,30  L 42,30  L 42,31  L 39,31  L 39,32  L 36,32  L 36,33  L 33,33  L 33,34  L 31,34  L 31,35  L 29,35  L 29,36  L 27,36  L 27,37  L 24,37  L 24,38  L 19,38  L 19,39  L 17,39  L 17,40  L 13,40  L 13,41  L 11,41  L 11,42  L 9,42  L 9,43  L 8,43  L 8,44  L 6,44  L 6,45  L 5,45  L 5,46  L 4,46  L 4,48  L 3,48  L 3,51  L 2,51  L 2,54  L 1,54  L 1,67  L 2,67  L 2,68  L 1,68  L 1,69  L 2,69  L 2,73  L 3,73  L 3,74  L 4,74  L 4,76  L 6,76  L 6,78  L 7,78  L 7,77  L 8,77  L 8,79  L 10,79  L 10,78  L 11,78  L 11,79  L 14,79  L 14,78  L 15,78  L 15,79  L 22,79  L 22,78  L 29,78  L 29,77  L 34,77  L 34,76  L 41,76  L 41,75  L 49,75  L 49,74  L 52,74  L 52,73  L 53,73  L 53,71  L 54,71  L 54,70  L 55,70  L 55,68  L 54,68  L 54,67  Z  M 6,20  L 5,20  L 5,19  L 6,19  Z  " style="fill:rgb(0, 0, 0); fill-opacity:1.000; stroke:none;" />
 <path d="  M 44,124  L 41,124  L 41,126  L 40,126  L 40,127  L 38,127  L 38,128  L 35,128  L 35,129  L 33,129  L 33,130  L 31,130  L 31,131  L 30,131  L 30,130  L 29,130  L 29,131  L 25,131  L 25,132  L 24,132  L 24,133  L 23,133  L 23,134  L 22,134  L 22,135  L 21,135  L 21,136  L 20,136  L 20,140  L 19,140  L 19,143  L 20,143  L 20,148  L 21,148  L 21,149  L 22,149  L 22,150  L 21,150  L 21,151  L 22,151  L 22,152  L 23,152  L 23,155  L 24,155  L 24,156  L 25,156  L 25,157  L 26,157  L 26,158  L 27,158  L 27,159  L 31,159  L 31,160  L 57,160  L 57,159  L 61,159  L 61,158  L 64,158  L 64,157  L 67,157  L 67,156  L 69,156  L 69,155  L 71,155  L 71,154  L 73,154  L 73,153  L 76,153  L 76,152  L 78,152  L 78,151  L 80,151  L 80,150  L 83,150  L 83,149  L 85,149  L 85,148  L 86,148  L 86,147  L 88,147  L 88,146  L 89,146  L 89,144  L 90,144  L 90,142  L 91,142  L 91,140  L 90,140  L 90,139  L 88,139  L 88,138  L 87,138  L 87,139  L 85,139  L 85,140  L 82,140  L 82,141  L 81,141  L 81,142  L 79,142  L 79,143  L 78,143  L 78,144  L 76,144  L 76,145  L 74,145  L 74,146  L 72,146  L 72,147  L 70,147  L 70,148  L 68,148  L 68,149  L 65,149  L 65,150  L 61,150  L 61,151  L 58,151  L 58,152  L 53,152  L 53,153  L 49,153  L 49,154  L 48,154  L 48,153  L 45,153  L 45,154  L 38,154  L 38,153  L 34,153  L 34,152  L 32,152  L 32,151  L 30,151  L 30,150  L 29,150  L 29,149  L 28,149  L 28,143  L 27,143  L 27,142  L 28,142  L 28,140  L 29,140  L 29,139  L 30,139  L 30,138  L 33,138  L 33,137  L 37,137  L 37,136  L 38,136  L 38,135  L 39,135  L 39,136  L 40,136  L 40,135  L 42,135  L 42,134  L 44,134  L 44,133  L 46,133  L 46,132  L 47,132  L 47,131  L 49,131  L 49,130  L 50,130  L 50,129  L 53,129  L 53,128  L 55,128  L 55,127  L 58,127  L 58,126  L 60,126  L 60,125  L 62,125  L 62,124  L 63,124  L 63,123  L 66,123  L 66,122  L 67,122  L 67,121  L 68,121  L 68,120  L 70,120  L 70,119  L 72,119  L 72,118  L 73,118  L 73,117  L 74,117  L 74,115  L 75,115  L 75,113  L 76,113  L 76,111  L 75,111  L 75,110  L 74,110  L 74,109  L 73,109  L 73,107  L 72,107  L 72,104  L 71,104  L 71,103  L 70,103  L 70,102  L 69,102  L 69,100  L 68,100  L 68,99  L 67,99  L 67,98  L 66,98  L 66,97  L 65,97  L 65,96  L 64,96  L 64,95  L 63,95  L 63,94  L 61,94  L 61,93  L 59,93  L 59,92  L 57,92  L 57,91  L 44,91  L 44,92  L 37,92  L 37,93  L 34,93  L 34,94  L 32,94  L 32,95  L 30,95  L 30,96  L 29,96  L 29,97  L 28,97  L 28,98  L 27,98  L 27,99  L 28,99  L 28,100  L 27,100  L 27,101  L 28,101  L 28,102  L 35,102  L 35,101  L 40,101  L 40,100  L 45,100  L 45,99  L 56,99  L 56,100  L 58,100  L 58,101  L 59,101  L 59,102  L 60,102  L 60,103  L 62,103  L 62,104  L 63,104  L 63,107  L 64,107  L 64,108  L 65,108  L 65,109  L 66,109  L 66,114  L 64,114  L 64,115  L 62,115  L 62,116  L 61,116  L 61,117  L 59,117  L 59,118  L 56,118  L 56,120  L 53,120  L 53,121  L 50,121  L 50,122  L 47,122  L 47,123  L 44,123  Z  " style="fill:rgb(0, 0, 0); fill-opacity:1.000; stroke:none;" />
 <path d="  M 79,2  L 78,2  L 78,1  L 77,1  L 77,0  L 73,0  L 73,1  L 72,1  L 72,9  L 73,9  L 73,10  L 72,10  L 72,13  L 73,13  L 73,63  L 74,63  L 74,64  L 73,64  L 73,67  L 74,67  L 74,83  L 75,83  L 75,86  L 76,86  L 76,87  L 77,87  L 77,88  L 80,88  L 80,87  L 81,87  L 81,81  L 80,81  L 80,80  L 81,80  L 81,78  L 80,78  L 80,42  L 81,42  L 81,41  L 86,41  L 86,40  L 105,40  L 105,35  L 104,35  L 104,34  L 101,34  L 101,33  L 97,33  L 97,34  L 96,34  L 96,33  L 94,33  L 94,34  L 83,34  L 83,35  L 81,35  L 81,34  L 80,34  L 80,12  L 79,12  L 79,9  L 80,9  L 80,8  L 79,8  Z  " style="fill:rgb(0, 0, 0); fill-opacity:1.000; stroke:none;" />
</svg>
