<?xml version="1.0" encoding="UTF-8" standalone="no"?>
<!DOCTYPE svg PUBLIC "-//W3C//DTD SVG 1.1//EN" 
  "http://www.w3.org/Graphics/SVG/1.1/DTD/svg11.dtd">
<svg width="103" height="141"
     xmlns="http://www.w3.org/2000/svg" version="1.1">
 <path d="  M 44,12  L 44,10  L 42,10  L 42,9  L 41,9  L 41,8  L 40,8  L 40,7  L 37,7  L 37,6  L 32,6  L 32,5  L 23,5  L 23,4  L 8,4  L 8,5  L 7,5  L 7,7  L 6,7  L 6,9  L 7,9  L 7,10  L 6,10  L 6,11  L 8,11  L 8,12  L 12,12  L 12,11  L 25,11  L 25,12  L 34,12  L 34,13  L 37,13  L 37,14  L 39,14  L 39,16  L 40,16  L 40,18  L 41,18  L 41,20  L 40,20  L 40,22  L 39,22  L 39,23  L 38,23  L 38,24  L 36,24  L 36,25  L 34,25  L 34,26  L 32,26  L 32,27  L 31,27  L 31,28  L 29,28  L 29,29  L 28,29  L 28,30  L 27,30  L 27,31  L 24,31  L 24,32  L 21,32  L 21,33  L 20,33  L 20,34  L 16,34  L 16,35  L 14,35  L 14,36  L 12,36  L 12,37  L 11,37  L 11,38  L 9,38  L 9,39  L 7,39  L 7,40  L 6,40  L 6,41  L 5,41  L 5,42  L 4,42  L 4,43  L 3,43  L 3,44  L 2,44  L 2,45  L 3,45  L 3,46  L 2,46  L 2,50  L 1,50  L 1,63  L 2,63  L 2,69  L 3,69  L 3,71  L 5,71  L 5,72  L 6,72  L 6,73  L 7,73  L 7,74  L 8,74  L 8,75  L 9,75  L 9,76  L 11,76  L 11,77  L 12,77  L 12,76  L 14,76  L 14,77  L 17,77  L 17,78  L 26,78  L 26,77  L 31,77  L 31,76  L 35,76  L 35,75  L 40,75  L 40,74  L 44,74  L 44,73  L 49,73  L 49,72  L 51,72  L 51,70  L 52,70  L 52,66  L 44,66  L 44,67  L 41,67  L 41,68  L 36,68  L 36,69  L 31,69  L 31,70  L 14,70  L 14,69  L 11,69  L 11,67  L 10,67  L 10,66  L 9,66  L 9,63  L 8,63  L 8,53  L 7,53  L 7,52  L 8,52  L 8,49  L 9,49  L 9,47  L 11,47  L 11,45  L 13,45  L 13,44  L 15,44  L 15,43  L 17,43  L 17,41  L 21,41  L 21,40  L 25,40  L 25,39  L 27,39  L 27,38  L 29,38  L 29,37  L 33,37  L 33,36  L 34,36  L 34,35  L 35,35  L 35,34  L 37,34  L 37,32  L 38,32  L 38,31  L 40,31  L 40,30  L 41,30  L 41,29  L 43,29  L 43,27  L 44,27  L 44,26  L 46,26  L 46,25  L 47,25  L 47,22  L 48,22  L 48,20  L 49,20  L 49,19  L 48,19  L 48,15  L 47,15  L 47,14  L 46,14  L 46,12  Z  " style="fill:rgb(0, 0, 0); fill-opacity:1.000; stroke:none;" />
 <path d="  M 56,96  L 46,96  L 46,97  L 45,97  L 45,96  L 44,96  L 44,97  L 41,97  L 41,96  L 37,96  L 37,95  L 34,95  L 34,94  L 33,94  L 33,92  L 30,92  L 30,93  L 29,93  L 29,94  L 28,94  L 28,95  L 27,95  L 27,96  L 26,96  L 26,99  L 27,99  L 27,101  L 30,101  L 30,102  L 31,102  L 31,103  L 32,103  L 32,104  L 33,104  L 33,105  L 34,105  L 34,123  L 35,123  L 35,124  L 34,124  L 34,125  L 35,125  L 35,128  L 34,128  L 34,129  L 35,129  L 35,134  L 36,134  L 36,138  L 37,138  L 37,140  L 38,140  L 38,141  L 72,141  L 72,140  L 73,140  L 73,139  L 76,139  L 76,138  L 77,138  L 77,137  L 79,137  L 79,136  L 81,136  L 81,135  L 82,135  L 82,133  L 83,133  L 83,132  L 84,132  L 84,129  L 85,129  L 85,125  L 86,125  L 86,120  L 87,120  L 87,113  L 88,113  L 88,112  L 87,112  L 87,111  L 88,111  L 88,102  L 89,102  L 89,96  L 88,96  L 88,94  L 83,94  L 83,93  L 78,93  L 78,94  L 64,94  L 64,95  L 61,95  L 61,94  L 60,94  L 60,95  L 56,95  Z  M 46,104  L 46,103  L 48,103  L 48,104  L 49,104  L 49,103  L 57,103  L 57,102  L 58,102  L 58,103  L 60,103  L 60,102  L 65,102  L 65,101  L 66,101  L 66,102  L 67,102  L 67,101  L 81,101  L 81,103  L 82,103  L 82,104  L 81,104  L 81,113  L 80,113  L 80,122  L 79,122  L 79,127  L 78,127  L 78,130  L 77,130  L 77,131  L 76,131  L 76,132  L 75,132  L 75,133  L 73,133  L 73,134  L 64,134  L 64,135  L 61,135  L 61,134  L 60,134  L 60,135  L 57,135  L 57,134  L 56,134  L 56,135  L 49,135  L 49,134  L 48,134  L 48,135  L 42,135  L 42,116  L 41,116  L 41,115  L 42,115  L 42,112  L 41,112  L 41,105  L 43,105  L 43,104  Z  " style="fill:rgb(0, 0, 0); fill-opacity:1.000; stroke:none;" />
 <path d="  M 71,75  L 72,75  L 72,76  L 71,76  L 71,80  L 72,80  L 72,81  L 71,81  L 71,82  L 72,82  L 72,86  L 73,86  L 73,87  L 77,87  L 77,86  L 78,86  L 78,70  L 77,70  L 77,69  L 78,69  L 78,66  L 77,66  L 77,65  L 78,65  L 78,62  L 77,62  L 77,61  L 78,61  L 78,60  L 77,60  L 77,59  L 78,59  L 78,58  L 77,58  L 77,57  L 78,57  L 78,56  L 77,56  L 77,55  L 78,55  L 78,54  L 77,54  L 77,53  L 78,53  L 78,50  L 77,50  L 77,49  L 78,49  L 78,43  L 77,43  L 77,42  L 78,42  L 78,39  L 82,39  L 82,38  L 103,38  L 103,34  L 102,34  L 102,33  L 101,33  L 101,32  L 85,32  L 85,31  L 84,31  L 84,32  L 82,32  L 82,31  L 81,31  L 81,32  L 79,32  L 79,31  L 78,31  L 78,26  L 77,26  L 77,25  L 78,25  L 78,24  L 77,24  L 77,23  L 78,23  L 78,22  L 77,22  L 77,21  L 78,21  L 78,20  L 77,20  L 77,16  L 76,16  L 76,10  L 75,10  L 75,3  L 74,3  L 74,1  L 73,1  L 73,0  L 71,0  L 71,1  L 69,1  L 69,3  L 68,3  L 68,5  L 69,5  L 69,13  L 70,13  L 70,17  L 71,17  Z  " style="fill:rgb(0, 0, 0); fill-opacity:1.000; stroke:none;" />
</svg>
