<?xml version="1.0" encoding="UTF-8" standalone="no"?>
<!DOCTYPE svg PUBLIC "-//W3C//DTD SVG 1.1//EN" 
  "http://www.w3.org/Graphics/SVG/1.1/DTD/svg11.dtd">
<svg width="105" height="151"
     xmlns="http://www.w3.org/2000/svg" version="1.1">
 <path d="  M 18,15  L 18,14  L 23,14  L 23,15  L 33,15  L 33,16  L 38,16  L 38,17  L 40,17  L 40,18  L 42,18  L 42,21  L 43,21  L 43,24  L 42,24  L 42,26  L 41,26  L 41,27  L 40,27  L 40,28  L 39,28  L 39,29  L 37,29  L 37,30  L 36,30  L 36,31  L 34,31  L 34,32  L 32,32  L 32,33  L 30,33  L 30,34  L 29,34  L 29,35  L 27,35  L 27,36  L 23,36  L 23,37  L 20,37  L 20,38  L 19,38  L 19,37  L 18,37  L 18,38  L 17,38  L 17,39  L 13,39  L 13,40  L 11,40  L 11,41  L 9,41  L 9,42  L 8,42  L 8,43  L 6,43  L 6,44  L 5,44  L 5,45  L 4,45  L 4,47  L 3,47  L 3,49  L 2,49  L 2,53  L 1,53  L 1,58  L 0,58  L 0,59  L 1,59  L 1,62  L 0,62  L 0,63  L 1,63  L 1,66  L 0,66  L 0,67  L 1,67  L 1,72  L 2,72  L 2,73  L 1,73  L 1,74  L 2,74  L 2,75  L 3,75  L 3,76  L 4,76  L 4,77  L 7,77  L 7,78  L 8,78  L 8,79  L 9,79  L 9,80  L 13,80  L 13,81  L 16,81  L 16,82  L 22,82  L 22,81  L 23,81  L 23,82  L 25,82  L 25,81  L 34,81  L 34,80  L 35,80  L 35,81  L 36,81  L 36,80  L 41,80  L 41,79  L 46,79  L 46,78  L 50,78  L 50,77  L 53,77  L 53,71  L 52,71  L 52,70  L 46,70  L 46,71  L 43,71  L 43,72  L 39,72  L 39,73  L 33,73  L 33,74  L 16,74  L 16,73  L 15,73  L 15,74  L 14,74  L 14,73  L 11,73  L 11,72  L 10,72  L 10,71  L 9,71  L 9,70  L 8,70  L 8,63  L 7,63  L 7,56  L 8,56  L 8,55  L 7,55  L 7,54  L 8,54  L 8,52  L 9,52  L 9,51  L 10,51  L 10,50  L 11,50  L 11,49  L 13,49  L 13,48  L 15,48  L 15,47  L 17,47  L 17,46  L 18,46  L 18,45  L 23,45  L 23,44  L 26,44  L 26,43  L 29,43  L 29,42  L 33,42  L 33,41  L 34,41  L 34,40  L 36,40  L 36,39  L 37,39  L 37,38  L 38,38  L 38,37  L 39,37  L 39,36  L 40,36  L 40,35  L 41,35  L 41,34  L 43,34  L 43,33  L 44,33  L 44,31  L 46,31  L 46,30  L 47,30  L 47,28  L 48,28  L 48,26  L 49,26  L 49,23  L 50,23  L 50,20  L 49,20  L 49,17  L 48,17  L 48,16  L 47,16  L 47,15  L 45,15  L 45,14  L 44,14  L 44,12  L 43,12  L 43,11  L 42,11  L 42,10  L 40,10  L 40,9  L 37,9  L 37,8  L 31,8  L 31,7  L 29,7  L 29,8  L 27,8  L 27,7  L 25,7  L 25,8  L 23,8  L 23,7  L 21,7  L 21,8  L 19,8  L 19,7  L 17,7  L 17,8  L 16,8  L 16,7  L 13,7  L 13,8  L 11,8  L 11,7  L 10,7  L 10,8  L 7,8  L 7,9  L 6,9  L 6,11  L 5,11  L 5,13  L 4,13  L 4,15  L 5,15  L 5,16  L 6,16  L 6,17  L 7,17  L 7,16  L 11,16  L 11,15  Z  " style="fill:rgb(0, 0, 0); fill-opacity:1.000; stroke:none;" />
 <path d="  M 29,142  L 30,142  L 30,146  L 31,146  L 31,147  L 32,147  L 32,150  L 34,150  L 34,151  L 62,151  L 62,150  L 67,150  L 67,149  L 70,149  L 70,148  L 72,148  L 72,147  L 74,147  L 74,146  L 75,146  L 75,145  L 76,145  L 76,144  L 78,144  L 78,143  L 79,143  L 79,141  L 80,141  L 80,140  L 81,140  L 81,137  L 82,137  L 82,133  L 83,133  L 83,128  L 84,128  L 84,124  L 85,124  L 85,116  L 86,116  L 86,115  L 85,115  L 85,99  L 84,99  L 84,98  L 79,98  L 79,119  L 41,119  L 41,120  L 38,120  L 38,119  L 37,119  L 37,120  L 35,120  L 35,119  L 34,119  L 34,111  L 35,111  L 35,109  L 34,109  L 34,108  L 35,108  L 35,105  L 34,105  L 34,104  L 35,104  L 35,101  L 34,101  L 34,100  L 35,100  L 35,97  L 34,97  L 34,96  L 35,96  L 35,93  L 34,93  L 34,91  L 29,91  L 29,92  L 28,92  L 28,93  L 27,93  L 27,102  L 26,102  L 26,104  L 27,104  L 27,106  L 26,106  L 26,108  L 27,108  L 27,110  L 26,110  L 26,112  L 27,112  L 27,113  L 26,113  L 26,116  L 27,116  L 27,117  L 26,117  L 26,121  L 27,121  L 27,128  L 28,128  L 28,136  L 29,136  Z  M 75,126  L 75,127  L 77,127  L 77,133  L 76,133  L 76,136  L 75,136  L 75,138  L 74,138  L 74,140  L 73,140  L 73,141  L 71,141  L 71,142  L 68,142  L 68,143  L 61,143  L 61,144  L 58,144  L 58,145  L 51,145  L 51,146  L 50,146  L 50,145  L 49,145  L 49,146  L 46,146  L 46,145  L 45,145  L 45,146  L 42,146  L 42,145  L 38,145  L 38,144  L 37,144  L 37,142  L 36,142  L 36,128  L 37,128  L 37,127  L 39,127  L 39,126  Z  " style="fill:rgb(0, 0, 0); fill-opacity:1.000; stroke:none;" />
 <path d="  M 73,66  L 74,66  L 74,68  L 73,68  L 73,70  L 74,70  L 74,83  L 75,83  L 75,84  L 76,84  L 76,85  L 80,85  L 80,45  L 79,45  L 79,42  L 80,42  L 80,41  L 81,41  L 81,40  L 104,40  L 104,39  L 105,39  L 105,35  L 104,35  L 104,34  L 103,34  L 103,33  L 86,33  L 86,32  L 85,32  L 85,33  L 80,33  L 80,32  L 79,32  L 79,25  L 78,25  L 78,17  L 77,17  L 77,7  L 76,7  L 76,3  L 75,3  L 75,1  L 73,1  L 73,0  L 72,0  L 72,1  L 71,1  L 71,2  L 70,2  L 70,16  L 71,16  L 71,22  L 72,22  L 72,40  L 73,40  L 73,41  L 72,41  L 72,44  L 73,44  Z  " style="fill:rgb(0, 0, 0); fill-opacity:1.000; stroke:none;" />
</svg>
