<?xml version="1.0" encoding="UTF-8" standalone="no"?>
<!DOCTYPE svg PUBLIC "-//W3C//DTD SVG 1.1//EN" 
  "http://www.w3.org/Graphics/SVG/1.1/DTD/svg11.dtd">
<svg width="104" height="142"
     xmlns="http://www.w3.org/2000/svg" version="1.1">
 <path d="  M 36,15  L 36,16  L 37,16  L 37,17  L 38,17  L 38,20  L 37,20  L 37,21  L 38,21  L 38,22  L 37,22  L 37,23  L 36,23  L 36,24  L 34,24  L 34,25  L 33,25  L 33,26  L 32,26  L 32,27  L 30,27  L 30,28  L 29,28  L 29,29  L 27,29  L 27,30  L 25,30  L 25,31  L 24,31  L 24,32  L 21,32  L 21,33  L 19,33  L 19,34  L 17,34  L 17,35  L 16,35  L 16,36  L 13,36  L 13,37  L 11,37  L 11,38  L 9,38  L 9,39  L 8,39  L 8,40  L 6,40  L 6,42  L 4,42  L 4,46  L 3,46  L 3,50  L 2,50  L 2,54  L 1,54  L 1,55  L 2,55  L 2,56  L 1,56  L 1,65  L 2,65  L 2,66  L 1,66  L 1,67  L 2,67  L 2,70  L 3,70  L 3,71  L 4,71  L 4,72  L 6,72  L 6,73  L 8,73  L 8,75  L 12,75  L 12,76  L 21,76  L 21,75  L 22,75  L 22,76  L 23,76  L 23,75  L 28,75  L 28,74  L 32,74  L 32,73  L 37,73  L 37,72  L 41,72  L 41,71  L 45,71  L 45,70  L 50,70  L 50,69  L 51,69  L 51,68  L 52,68  L 52,67  L 53,67  L 53,65  L 52,65  L 52,64  L 51,64  L 51,63  L 48,63  L 48,64  L 41,64  L 41,65  L 38,65  L 38,66  L 34,66  L 34,67  L 30,67  L 30,68  L 25,68  L 25,69  L 11,69  L 11,68  L 9,68  L 9,66  L 8,66  L 8,64  L 7,64  L 7,63  L 8,63  L 8,62  L 7,62  L 7,61  L 8,61  L 8,60  L 7,60  L 7,58  L 8,58  L 8,51  L 9,51  L 9,49  L 10,49  L 10,47  L 11,47  L 11,46  L 12,46  L 12,45  L 14,45  L 14,44  L 15,44  L 15,43  L 17,43  L 17,42  L 19,42  L 19,41  L 22,41  L 22,40  L 24,40  L 24,39  L 26,39  L 26,38  L 30,38  L 30,37  L 32,37  L 32,36  L 34,36  L 34,35  L 35,35  L 35,33  L 38,33  L 38,31  L 39,31  L 39,30  L 40,30  L 40,29  L 41,29  L 41,28  L 42,28  L 42,27  L 43,27  L 43,26  L 44,26  L 44,25  L 45,25  L 45,24  L 46,24  L 46,23  L 47,23  L 47,21  L 48,21  L 48,17  L 46,17  L 46,15  L 45,15  L 45,14  L 44,14  L 44,12  L 43,12  L 43,11  L 42,11  L 42,10  L 39,10  L 39,9  L 37,9  L 37,8  L 32,8  L 32,7  L 28,7  L 28,6  L 22,6  L 22,5  L 14,5  L 14,4  L 11,4  L 11,5  L 10,5  L 10,6  L 9,6  L 9,9  L 10,9  L 10,10  L 11,10  L 11,11  L 12,11  L 12,12  L 23,12  L 23,13  L 30,13  L 30,14  L 32,14  L 32,15  Z  " style="fill:rgb(0, 0, 0); fill-opacity:1.000; stroke:none;" />
 <path d="  M 10,11  L 10,10  L 9,10  L 9,11  Z  " style="fill:rgb(0, 0, 0); fill-opacity:1.000; stroke:none;" />
 <path d="  M 46,99  L 46,100  L 45,100  L 45,102  L 44,102  L 44,103  L 43,103  L 43,105  L 42,105  L 42,106  L 41,106  L 41,108  L 40,108  L 40,109  L 39,109  L 39,110  L 38,110  L 38,112  L 37,112  L 37,113  L 36,113  L 36,115  L 35,115  L 35,117  L 34,117  L 34,118  L 33,118  L 33,120  L 32,120  L 32,121  L 31,121  L 31,122  L 30,122  L 30,125  L 29,125  L 29,126  L 28,126  L 28,127  L 27,127  L 27,129  L 26,129  L 26,130  L 24,130  L 24,131  L 23,131  L 23,133  L 22,133  L 22,134  L 20,134  L 20,136  L 19,136  L 19,139  L 18,139  L 18,141  L 19,141  L 19,142  L 24,142  L 24,141  L 25,141  L 25,140  L 26,140  L 26,138  L 28,138  L 28,136  L 30,136  L 30,134  L 31,134  L 31,133  L 32,133  L 32,132  L 33,132  L 33,131  L 34,131  L 34,129  L 35,129  L 35,128  L 36,128  L 36,127  L 37,127  L 37,125  L 38,125  L 38,123  L 39,123  L 39,122  L 40,122  L 40,121  L 41,121  L 41,120  L 42,120  L 42,118  L 43,118  L 43,117  L 44,117  L 44,115  L 45,115  L 45,114  L 46,114  L 46,113  L 47,113  L 47,112  L 49,112  L 49,113  L 50,113  L 50,114  L 52,114  L 52,115  L 53,115  L 53,116  L 55,116  L 55,117  L 56,117  L 56,118  L 57,118  L 57,119  L 59,119  L 59,120  L 61,120  L 61,121  L 62,121  L 62,122  L 64,122  L 64,123  L 66,123  L 66,124  L 68,124  L 68,125  L 69,125  L 69,126  L 71,126  L 71,127  L 72,127  L 72,128  L 74,128  L 74,129  L 76,129  L 76,130  L 78,130  L 78,131  L 79,131  L 79,132  L 81,132  L 81,133  L 84,133  L 84,134  L 87,134  L 87,135  L 90,135  L 90,134  L 92,134  L 92,133  L 93,133  L 93,131  L 94,131  L 94,129  L 93,129  L 93,128  L 90,128  L 90,127  L 88,127  L 88,126  L 85,126  L 85,125  L 82,125  L 82,124  L 79,124  L 79,123  L 78,123  L 78,122  L 76,122  L 76,121  L 74,121  L 74,120  L 72,120  L 72,119  L 71,119  L 71,118  L 69,118  L 69,117  L 67,117  L 67,116  L 65,116  L 65,115  L 64,115  L 64,114  L 62,114  L 62,113  L 60,113  L 60,112  L 59,112  L 59,111  L 58,111  L 58,110  L 56,110  L 56,109  L 54,109  L 54,108  L 53,108  L 53,107  L 52,107  L 52,103  L 53,103  L 53,102  L 54,102  L 54,101  L 55,101  L 55,99  L 56,99  L 56,98  L 57,98  L 57,97  L 58,97  L 58,96  L 60,96  L 60,94  L 61,94  L 61,90  L 59,90  L 59,89  L 55,89  L 55,90  L 54,90  L 54,91  L 53,91  L 53,92  L 52,92  L 52,93  L 51,93  L 51,94  L 50,94  L 50,95  L 49,95  L 49,96  L 48,96  L 48,98  L 47,98  L 47,99  Z  " style="fill:rgb(0, 0, 0); fill-opacity:1.000; stroke:none;" />
 <path d="  M 71,41  L 70,41  L 70,75  L 71,75  L 71,77  L 70,77  L 70,79  L 71,79  L 71,83  L 72,83  L 72,84  L 73,84  L 73,85  L 76,85  L 76,82  L 77,82  L 77,40  L 78,40  L 78,39  L 80,39  L 80,38  L 90,38  L 90,37  L 91,37  L 91,38  L 94,38  L 94,37  L 95,37  L 95,38  L 96,38  L 96,37  L 97,37  L 97,38  L 98,38  L 98,37  L 99,37  L 99,38  L 100,38  L 100,37  L 101,37  L 101,38  L 102,38  L 102,37  L 104,37  L 104,32  L 103,32  L 103,31  L 101,31  L 101,30  L 96,30  L 96,31  L 94,31  L 94,30  L 92,30  L 92,31  L 90,31  L 90,30  L 89,30  L 89,31  L 86,31  L 86,30  L 81,30  L 81,31  L 79,31  L 79,30  L 78,30  L 78,26  L 77,26  L 77,25  L 78,25  L 78,24  L 77,24  L 77,12  L 76,12  L 76,4  L 75,4  L 75,1  L 74,1  L 74,0  L 70,0  L 70,1  L 69,1  L 69,11  L 70,11  L 70,18  L 71,18  Z  " style="fill:rgb(0, 0, 0); fill-opacity:1.000; stroke:none;" />
</svg>
