<?xml version="1.0" encoding="UTF-8" standalone="no"?>
<!DOCTYPE svg PUBLIC "-//W3C//DTD SVG 1.1//EN" 
  "http://www.w3.org/Graphics/SVG/1.1/DTD/svg11.dtd">
<svg width="103" height="158"
     xmlns="http://www.w3.org/2000/svg" version="1.1">
 <path d="  M 9,64  L 8,64  L 8,53  L 9,53  L 9,51  L 10,51  L 10,50  L 11,50  L 11,49  L 12,49  L 12,48  L 13,48  L 13,47  L 15,47  L 15,46  L 17,46  L 17,45  L 21,45  L 21,44  L 25,44  L 25,43  L 30,43  L 30,42  L 32,42  L 32,41  L 33,41  L 33,40  L 36,40  L 36,39  L 37,39  L 37,38  L 38,38  L 38,37  L 39,37  L 39,36  L 40,36  L 40,35  L 41,35  L 41,34  L 42,34  L 42,33  L 43,33  L 43,32  L 44,32  L 44,31  L 45,31  L 45,30  L 46,30  L 46,29  L 47,29  L 47,28  L 46,28  L 46,27  L 47,27  L 47,26  L 48,26  L 48,24  L 49,24  L 49,21  L 48,21  L 48,18  L 47,18  L 47,17  L 45,17  L 45,16  L 44,16  L 44,15  L 43,15  L 43,14  L 42,14  L 42,13  L 41,13  L 41,12  L 38,12  L 38,11  L 31,11  L 31,10  L 16,10  L 16,9  L 14,9  L 14,10  L 12,10  L 12,9  L 10,9  L 10,10  L 7,10  L 7,12  L 6,12  L 6,15  L 7,15  L 7,16  L 6,16  L 6,17  L 9,17  L 9,18  L 10,18  L 10,17  L 17,17  L 17,16  L 20,16  L 20,17  L 21,17  L 21,16  L 22,16  L 22,17  L 33,17  L 33,18  L 37,18  L 37,19  L 39,19  L 39,20  L 41,20  L 41,26  L 40,26  L 40,28  L 38,28  L 38,29  L 37,29  L 37,30  L 36,30  L 36,31  L 35,31  L 35,32  L 33,32  L 33,33  L 30,33  L 30,34  L 29,34  L 29,35  L 28,35  L 28,36  L 24,36  L 24,37  L 20,37  L 20,38  L 15,38  L 15,39  L 13,39  L 13,40  L 10,40  L 10,41  L 9,41  L 9,42  L 7,42  L 7,43  L 6,43  L 6,44  L 5,44  L 5,46  L 3,46  L 3,49  L 2,49  L 2,54  L 1,54  L 1,66  L 2,66  L 2,71  L 3,71  L 3,73  L 4,73  L 4,75  L 5,75  L 5,76  L 6,76  L 6,77  L 8,77  L 8,78  L 10,78  L 10,79  L 13,79  L 13,78  L 14,78  L 14,79  L 22,79  L 22,80  L 23,80  L 23,79  L 28,79  L 28,78  L 31,78  L 31,77  L 37,77  L 37,76  L 38,76  L 38,77  L 39,77  L 39,76  L 44,76  L 44,75  L 46,75  L 46,74  L 47,74  L 47,68  L 40,68  L 40,69  L 36,69  L 36,70  L 30,70  L 30,71  L 27,71  L 27,72  L 13,72  L 13,71  L 12,71  L 12,70  L 11,70  L 11,69  L 10,69  L 10,68  L 9,68  Z  " style="fill:rgb(0, 0, 0); fill-opacity:1.000; stroke:none;" />
 <path d="  M 43,139  L 42,139  L 42,141  L 41,141  L 41,142  L 40,142  L 40,143  L 39,143  L 39,144  L 38,144  L 38,145  L 37,145  L 37,146  L 36,146  L 36,147  L 35,147  L 35,148  L 34,148  L 34,149  L 33,149  L 33,150  L 32,150  L 32,151  L 31,151  L 31,152  L 30,152  L 30,158  L 34,158  L 34,157  L 35,157  L 35,156  L 36,156  L 36,155  L 37,155  L 37,154  L 38,154  L 38,153  L 39,153  L 39,152  L 40,152  L 40,151  L 41,151  L 41,149  L 42,149  L 42,148  L 43,148  L 43,147  L 45,147  L 45,146  L 46,146  L 46,145  L 47,145  L 47,143  L 48,143  L 48,142  L 49,142  L 49,141  L 50,141  L 50,139  L 51,139  L 51,138  L 52,138  L 52,137  L 53,137  L 53,136  L 54,136  L 54,135  L 55,135  L 55,134  L 56,134  L 56,133  L 57,133  L 57,131  L 58,131  L 58,129  L 61,129  L 61,130  L 63,130  L 63,131  L 64,131  L 64,132  L 66,132  L 66,133  L 68,133  L 68,134  L 70,134  L 70,135  L 71,135  L 71,136  L 73,136  L 73,137  L 75,137  L 75,139  L 78,139  L 78,140  L 80,140  L 80,142  L 82,142  L 82,143  L 84,143  L 84,144  L 85,144  L 85,145  L 86,145  L 86,146  L 87,146  L 87,147  L 89,147  L 89,148  L 92,148  L 92,149  L 94,149  L 94,150  L 95,150  L 95,149  L 96,149  L 96,147  L 97,147  L 97,146  L 96,146  L 96,145  L 95,145  L 95,143  L 94,143  L 94,142  L 93,142  L 93,141  L 92,141  L 92,140  L 91,140  L 91,139  L 90,139  L 90,138  L 89,138  L 89,137  L 87,137  L 87,136  L 86,136  L 86,135  L 84,135  L 84,134  L 82,134  L 82,133  L 80,133  L 80,132  L 78,132  L 78,131  L 76,131  L 76,130  L 74,130  L 74,129  L 73,129  L 73,128  L 71,128  L 71,127  L 70,127  L 70,126  L 68,126  L 68,125  L 65,125  L 65,124  L 64,124  L 64,121  L 65,121  L 65,120  L 66,120  L 66,119  L 67,119  L 67,118  L 68,118  L 68,117  L 69,117  L 69,115  L 70,115  L 70,114  L 71,114  L 71,112  L 72,112  L 72,110  L 73,110  L 73,108  L 74,108  L 74,107  L 75,107  L 75,105  L 76,105  L 76,100  L 75,100  L 75,99  L 73,99  L 73,98  L 70,98  L 70,97  L 66,97  L 66,96  L 63,96  L 63,95  L 58,95  L 58,96  L 51,96  L 51,97  L 49,97  L 49,96  L 48,96  L 48,97  L 45,97  L 45,98  L 40,98  L 40,99  L 36,99  L 36,100  L 32,100  L 32,101  L 30,101  L 30,102  L 27,102  L 27,103  L 26,103  L 26,104  L 25,104  L 25,106  L 26,106  L 26,108  L 27,108  L 27,109  L 29,109  L 29,108  L 31,108  L 31,107  L 33,107  L 33,106  L 34,106  L 34,107  L 35,107  L 35,106  L 37,106  L 37,105  L 41,105  L 41,104  L 43,104  L 43,105  L 44,105  L 44,104  L 49,104  L 49,103  L 57,103  L 57,102  L 68,102  L 68,106  L 67,106  L 67,107  L 66,107  L 66,108  L 65,108  L 65,109  L 64,109  L 64,111  L 63,111  L 63,112  L 62,112  L 62,113  L 61,113  L 61,115  L 60,115  L 60,116  L 59,116  L 59,117  L 58,117  L 58,118  L 57,118  L 57,119  L 56,119  L 56,120  L 55,120  L 55,122  L 54,122  L 54,123  L 53,123  L 53,124  L 52,124  L 52,126  L 51,126  L 51,128  L 50,128  L 50,129  L 49,129  L 49,130  L 48,130  L 48,132  L 47,132  L 47,133  L 46,133  L 46,134  L 45,134  L 45,135  L 44,135  L 44,138  L 43,138  Z  " style="fill:rgb(0, 0, 0); fill-opacity:1.000; stroke:none;" />
 <path d="  M 76,14  L 75,14  L 75,3  L 74,3  L 74,1  L 73,1  L 73,0  L 70,0  L 70,2  L 69,2  L 69,18  L 70,18  L 70,27  L 71,27  L 71,84  L 72,84  L 72,86  L 75,86  L 75,85  L 76,85  L 76,83  L 77,83  L 77,75  L 78,75  L 78,74  L 77,74  L 77,73  L 78,73  L 78,72  L 77,72  L 77,71  L 78,71  L 78,70  L 77,70  L 77,69  L 78,69  L 78,68  L 77,68  L 77,67  L 78,67  L 78,64  L 77,64  L 77,63  L 78,63  L 78,60  L 77,60  L 77,59  L 78,59  L 78,42  L 79,42  L 79,41  L 82,41  L 82,40  L 102,40  L 102,39  L 103,39  L 103,35  L 102,35  L 102,34  L 100,34  L 100,33  L 81,33  L 81,34  L 79,34  L 79,33  L 78,33  L 78,32  L 77,32  L 77,23  L 76,23  Z  " style="fill:rgb(0, 0, 0); fill-opacity:1.000; stroke:none;" />
</svg>
