<?xml version="1.0" encoding="UTF-8" standalone="no"?>
<!DOCTYPE svg PUBLIC "-//W3C//DTD SVG 1.1//EN" 
  "http://www.w3.org/Graphics/SVG/1.1/DTD/svg11.dtd">
<svg width="104" height="150"
     xmlns="http://www.w3.org/2000/svg" version="1.1">
 <path d="  M 20,47  L 20,46  L 24,46  L 24,45  L 26,45  L 26,44  L 30,44  L 30,43  L 32,43  L 32,42  L 33,42  L 33,41  L 36,41  L 36,40  L 37,40  L 37,39  L 38,39  L 38,38  L 40,38  L 40,37  L 42,37  L 42,36  L 43,36  L 43,35  L 44,35  L 44,34  L 45,34  L 45,33  L 47,33  L 47,32  L 48,32  L 48,28  L 49,28  L 49,26  L 50,26  L 50,23  L 49,23  L 49,19  L 48,19  L 48,18  L 47,18  L 47,17  L 46,17  L 46,16  L 43,16  L 43,15  L 42,15  L 42,14  L 40,14  L 40,13  L 39,13  L 39,12  L 35,12  L 35,11  L 28,11  L 28,10  L 26,10  L 26,11  L 25,11  L 25,10  L 19,10  L 19,11  L 18,11  L 18,10  L 17,10  L 17,11  L 16,11  L 16,10  L 7,10  L 7,11  L 6,11  L 6,14  L 5,14  L 5,15  L 6,15  L 6,16  L 5,16  L 5,19  L 8,19  L 8,18  L 14,18  L 14,17  L 25,17  L 25,18  L 26,18  L 26,17  L 31,17  L 31,18  L 38,18  L 38,19  L 39,19  L 39,20  L 40,20  L 40,21  L 41,21  L 41,22  L 42,22  L 42,23  L 43,23  L 43,27  L 42,27  L 42,28  L 41,28  L 41,29  L 40,29  L 40,31  L 37,31  L 37,32  L 34,32  L 34,33  L 32,33  L 32,34  L 30,34  L 30,35  L 28,35  L 28,36  L 26,36  L 26,37  L 23,37  L 23,38  L 20,38  L 20,39  L 19,39  L 19,40  L 14,40  L 14,41  L 13,41  L 13,42  L 11,42  L 11,43  L 8,43  L 8,44  L 7,44  L 7,45  L 5,45  L 5,47  L 4,47  L 4,48  L 3,48  L 3,49  L 2,49  L 2,50  L 1,50  L 1,59  L 0,59  L 0,60  L 1,60  L 1,73  L 2,73  L 2,76  L 3,76  L 3,77  L 4,77  L 4,78  L 6,78  L 6,79  L 9,79  L 9,80  L 10,80  L 10,81  L 15,81  L 15,82  L 18,82  L 18,81  L 19,81  L 19,82  L 22,82  L 22,81  L 23,81  L 23,82  L 26,82  L 26,81  L 31,81  L 31,80  L 38,80  L 38,79  L 43,79  L 43,78  L 48,78  L 48,77  L 49,77  L 49,76  L 50,76  L 50,72  L 49,72  L 49,71  L 42,71  L 42,72  L 38,72  L 38,73  L 32,73  L 32,74  L 25,74  L 25,75  L 24,75  L 24,74  L 23,74  L 23,75  L 22,75  L 22,74  L 21,74  L 21,75  L 18,75  L 18,74  L 17,74  L 17,75  L 16,75  L 16,74  L 13,74  L 13,73  L 11,73  L 11,72  L 10,72  L 10,71  L 9,71  L 9,69  L 8,69  L 8,64  L 7,64  L 7,56  L 8,56  L 8,53  L 10,53  L 10,51  L 12,51  L 12,50  L 14,50  L 14,49  L 16,49  L 16,48  L 17,48  L 17,47  Z  " style="fill:rgb(0, 0, 0); fill-opacity:1.000; stroke:none;" />
 <path d="  M 38,142  L 37,142  L 37,143  L 32,143  L 32,142  L 31,142  L 31,143  L 25,143  L 25,144  L 22,144  L 22,145  L 20,145  L 20,146  L 18,146  L 18,147  L 17,147  L 17,149  L 18,149  L 18,150  L 36,150  L 36,149  L 85,149  L 85,148  L 88,148  L 88,147  L 90,147  L 90,146  L 91,146  L 91,142  L 90,142  L 90,141  L 85,141  L 85,142  L 74,142  L 74,116  L 73,116  L 73,115  L 74,115  L 74,114  L 73,114  L 73,113  L 74,113  L 74,112  L 73,112  L 73,111  L 74,111  L 74,107  L 73,107  L 73,104  L 76,104  L 76,103  L 84,103  L 84,102  L 91,102  L 91,101  L 93,101  L 93,100  L 94,100  L 94,99  L 95,99  L 95,98  L 96,98  L 96,97  L 97,97  L 97,95  L 96,95  L 96,94  L 90,94  L 90,95  L 83,95  L 83,96  L 77,96  L 77,97  L 70,97  L 70,98  L 65,98  L 65,99  L 59,99  L 59,100  L 41,100  L 41,99  L 34,99  L 34,100  L 33,100  L 33,99  L 32,99  L 32,100  L 27,100  L 27,101  L 23,101  L 23,102  L 21,102  L 21,103  L 19,103  L 19,105  L 20,105  L 20,106  L 22,106  L 22,107  L 25,107  L 25,108  L 26,108  L 26,107  L 27,107  L 27,108  L 28,108  L 28,109  L 33,109  L 33,108  L 36,108  L 36,107  L 37,107  L 37,110  L 38,110  L 38,111  L 37,111  L 37,113  L 38,113  Z  M 44,125  L 45,125  L 45,122  L 44,122  L 44,121  L 45,121  L 45,118  L 44,118  L 44,117  L 45,117  L 45,114  L 44,114  L 44,113  L 45,113  L 45,108  L 52,108  L 52,107  L 58,107  L 58,106  L 66,106  L 66,105  L 67,105  L 67,138  L 68,138  L 68,141  L 67,141  L 67,142  L 45,142  L 45,141  L 44,141  L 44,139  L 45,139  L 45,137  L 44,137  L 44,136  L 45,136  L 45,126  L 44,126  Z  " style="fill:rgb(0, 0, 0); fill-opacity:1.000; stroke:none;" />
 <path d="  M 79,44  L 80,44  L 80,42  L 84,42  L 84,41  L 104,41  L 104,35  L 100,35  L 100,34  L 99,34  L 99,35  L 92,35  L 92,34  L 91,34  L 91,35  L 82,35  L 82,36  L 80,36  L 80,34  L 79,34  L 79,30  L 80,30  L 80,29  L 79,29  L 79,14  L 78,14  L 78,6  L 77,6  L 77,5  L 78,5  L 78,4  L 77,4  L 77,1  L 76,1  L 76,0  L 72,0  L 72,2  L 71,2  L 71,9  L 72,9  L 72,20  L 73,20  L 73,87  L 74,87  L 74,90  L 79,90  L 79,88  L 80,88  L 80,83  L 79,83  L 79,82  L 80,82  L 80,79  L 79,79  Z  " style="fill:rgb(0, 0, 0); fill-opacity:1.000; stroke:none;" />
</svg>
