<?xml version="1.0" encoding="UTF-8" standalone="no"?>
<!DOCTYPE svg PUBLIC "-//W3C//DTD SVG 1.1//EN" 
  "http://www.w3.org/Graphics/SVG/1.1/DTD/svg11.dtd">
<svg width="104" height="168"
     xmlns="http://www.w3.org/2000/svg" version="1.1">
 <path d="  M 40,71  L 40,70  L 42,70  L 42,69  L 43,69  L 43,68  L 45,68  L 45,66  L 46,66  L 46,64  L 47,64  L 47,62  L 48,62  L 48,61  L 49,61  L 49,60  L 50,60  L 50,59  L 51,59  L 51,57  L 54,57  L 54,56  L 55,56  L 55,55  L 57,55  L 57,52  L 49,52  L 49,55  L 47,55  L 47,57  L 45,57  L 45,58  L 44,58  L 44,59  L 42,59  L 42,60  L 40,60  L 40,61  L 39,61  L 39,62  L 36,62  L 36,63  L 34,63  L 34,64  L 31,64  L 31,65  L 30,65  L 30,66  L 25,66  L 25,67  L 21,67  L 21,68  L 18,68  L 18,69  L 10,69  L 10,68  L 9,68  L 9,67  L 8,67  L 8,60  L 7,60  L 7,59  L 8,59  L 8,58  L 7,58  L 7,57  L 8,57  L 8,52  L 9,52  L 9,49  L 10,49  L 10,47  L 11,47  L 11,46  L 12,46  L 12,45  L 16,45  L 16,44  L 18,44  L 18,43  L 19,43  L 19,42  L 22,42  L 22,41  L 23,41  L 23,40  L 25,40  L 25,39  L 28,39  L 28,38  L 29,38  L 29,37  L 31,37  L 31,36  L 33,36  L 33,35  L 36,35  L 36,34  L 38,34  L 38,33  L 39,33  L 39,32  L 40,32  L 40,31  L 42,31  L 42,30  L 43,30  L 43,29  L 44,29  L 44,28  L 45,28  L 45,27  L 46,27  L 46,25  L 47,25  L 47,22  L 48,22  L 48,21  L 47,21  L 47,14  L 46,14  L 46,13  L 45,13  L 45,12  L 44,12  L 44,11  L 43,11  L 43,10  L 42,10  L 42,9  L 41,9  L 41,8  L 39,8  L 39,7  L 38,7  L 38,6  L 36,6  L 36,5  L 33,5  L 33,4  L 28,4  L 28,3  L 27,3  L 27,4  L 26,4  L 26,3  L 11,3  L 11,4  L 5,4  L 5,5  L 4,5  L 4,7  L 3,7  L 3,8  L 2,8  L 2,11  L 1,11  L 1,13  L 2,13  L 2,14  L 3,14  L 3,15  L 6,15  L 6,14  L 8,14  L 8,12  L 10,12  L 10,11  L 32,11  L 32,12  L 35,12  L 35,13  L 37,13  L 37,14  L 39,14  L 39,15  L 40,15  L 40,24  L 39,24  L 39,25  L 38,25  L 38,26  L 36,26  L 36,27  L 34,27  L 34,28  L 32,28  L 32,29  L 29,29  L 29,30  L 26,30  L 26,31  L 23,31  L 23,32  L 22,32  L 22,33  L 20,33  L 20,34  L 18,34  L 18,35  L 15,35  L 15,36  L 13,36  L 13,37  L 12,37  L 12,38  L 9,38  L 9,39  L 8,39  L 8,40  L 7,40  L 7,41  L 6,41  L 6,42  L 5,42  L 5,44  L 4,44  L 4,45  L 3,45  L 3,47  L 2,47  L 2,53  L 1,53  L 1,68  L 2,68  L 2,72  L 3,72  L 3,73  L 4,73  L 4,75  L 6,75  L 6,77  L 16,77  L 16,76  L 21,76  L 21,75  L 26,75  L 26,74  L 29,74  L 29,73  L 32,73  L 32,72  L 36,72  L 36,71  Z  " style="fill:rgb(0, 0, 0); fill-opacity:1.000; stroke:none;" />
 <path d="  M 68,104  L 68,105  L 62,105  L 62,106  L 54,106  L 54,102  L 53,102  L 53,99  L 52,99  L 52,97  L 51,97  L 51,93  L 50,93  L 50,90  L 49,90  L 49,88  L 48,88  L 48,86  L 47,86  L 47,84  L 46,84  L 46,82  L 45,82  L 45,81  L 41,81  L 41,82  L 40,82  L 40,84  L 39,84  L 39,86  L 40,86  L 40,88  L 41,88  L 41,91  L 42,91  L 42,94  L 43,94  L 43,96  L 44,96  L 44,98  L 45,98  L 45,101  L 46,101  L 46,103  L 47,103  L 47,105  L 48,105  L 48,106  L 47,106  L 47,108  L 39,108  L 39,109  L 34,109  L 34,110  L 29,110  L 29,111  L 28,111  L 28,110  L 27,110  L 27,111  L 25,111  L 25,112  L 23,112  L 23,113  L 22,113  L 22,114  L 23,114  L 23,116  L 36,116  L 36,115  L 43,115  L 43,114  L 54,114  L 54,113  L 64,113  L 64,112  L 65,112  L 65,113  L 66,113  L 66,112  L 70,112  L 70,111  L 79,111  L 79,110  L 82,110  L 82,109  L 84,109  L 84,108  L 85,108  L 85,107  L 86,107  L 86,106  L 85,106  L 85,104  L 84,104  L 84,103  L 80,103  L 80,102  L 79,102  L 79,103  L 73,103  L 73,104  Z  " style="fill:rgb(0, 0, 0); fill-opacity:1.000; stroke:none;" />
 <path d="  M 51,133  L 51,132  L 53,132  L 53,131  L 58,131  L 58,130  L 63,130  L 63,131  L 64,131  L 64,130  L 65,130  L 65,131  L 69,131  L 69,132  L 71,132  L 71,133  L 72,133  L 72,134  L 73,134  L 73,136  L 74,136  L 74,138  L 75,138  L 75,145  L 74,145  L 74,149  L 73,149  L 73,151  L 72,151  L 72,153  L 71,153  L 71,154  L 70,154  L 70,155  L 69,155  L 69,156  L 67,156  L 67,157  L 66,157  L 66,158  L 65,158  L 65,159  L 61,159  L 61,160  L 58,160  L 58,161  L 54,161  L 54,162  L 53,162  L 53,161  L 50,161  L 50,162  L 49,162  L 49,161  L 45,161  L 45,160  L 43,160  L 43,159  L 41,159  L 41,158  L 40,158  L 40,156  L 39,156  L 39,153  L 40,153  L 40,150  L 41,150  L 41,148  L 42,148  L 42,145  L 43,145  L 43,142  L 44,142  L 44,140  L 45,140  L 45,137  L 46,137  L 46,136  L 48,136  L 48,135  L 49,135  L 49,134  L 50,134  L 50,133  Z  M 63,166  L 64,166  L 64,165  L 67,165  L 67,164  L 68,164  L 68,163  L 70,163  L 70,162  L 71,162  L 71,161  L 72,161  L 72,160  L 73,160  L 73,159  L 74,159  L 74,158  L 75,158  L 75,157  L 76,157  L 76,156  L 77,156  L 77,155  L 78,155  L 78,154  L 79,154  L 79,151  L 80,151  L 80,148  L 81,148  L 81,134  L 80,134  L 80,133  L 79,133  L 79,131  L 78,131  L 78,130  L 77,130  L 77,129  L 76,129  L 76,128  L 74,128  L 74,127  L 73,127  L 73,126  L 72,126  L 72,125  L 69,125  L 69,124  L 66,124  L 66,123  L 62,123  L 62,122  L 55,122  L 55,123  L 51,123  L 51,124  L 49,124  L 49,125  L 48,125  L 48,126  L 47,126  L 47,128  L 45,128  L 45,130  L 44,130  L 44,131  L 43,131  L 43,132  L 42,132  L 42,134  L 41,134  L 41,136  L 40,136  L 40,138  L 39,138  L 39,140  L 38,140  L 38,141  L 37,141  L 37,144  L 36,144  L 36,146  L 35,146  L 35,148  L 34,148  L 34,154  L 33,154  L 33,161  L 34,161  L 34,163  L 36,163  L 36,164  L 37,164  L 37,165  L 38,165  L 38,166  L 41,166  L 41,167  L 42,167  L 42,168  L 60,168  L 60,167  L 63,167  Z  " style="fill:rgb(0, 0, 0); fill-opacity:1.000; stroke:none;" />
 <path d="  M 69,65  L 70,65  L 70,68  L 69,68  L 69,69  L 70,69  L 70,81  L 71,81  L 71,82  L 72,82  L 72,83  L 74,83  L 74,84  L 76,84  L 76,83  L 77,83  L 77,82  L 76,82  L 76,79  L 77,79  L 77,78  L 76,78  L 76,77  L 77,77  L 77,76  L 76,76  L 76,65  L 77,65  L 77,64  L 76,64  L 76,59  L 77,59  L 77,58  L 76,58  L 76,56  L 77,56  L 77,54  L 76,54  L 76,52  L 77,52  L 77,47  L 76,47  L 76,44  L 77,44  L 77,42  L 78,42  L 78,41  L 80,41  L 80,40  L 84,40  L 84,39  L 97,39  L 97,38  L 102,38  L 102,37  L 104,37  L 104,31  L 98,31  L 98,32  L 83,32  L 83,33  L 79,33  L 79,34  L 77,34  L 77,32  L 76,32  L 76,27  L 77,27  L 77,26  L 76,26  L 76,25  L 77,25  L 77,24  L 76,24  L 76,23  L 77,23  L 77,22  L 76,22  L 76,19  L 77,19  L 77,18  L 76,18  L 76,5  L 75,5  L 75,4  L 76,4  L 76,3  L 75,3  L 75,2  L 74,2  L 74,1  L 73,1  L 73,0  L 70,0  L 70,1  L 69,1  L 69,2  L 68,2  L 68,3  L 69,3  L 69,4  L 68,4  L 68,5  L 69,5  L 69,31  L 70,31  L 70,38  L 69,38  L 69,39  L 70,39  L 70,64  L 69,64  Z  " style="fill:rgb(0, 0, 0); fill-opacity:1.000; stroke:none;" />
</svg>
