<?xml version="1.0" encoding="UTF-8" standalone="no"?>
<!DOCTYPE svg PUBLIC "-//W3C//DTD SVG 1.1//EN" 
  "http://www.w3.org/Graphics/SVG/1.1/DTD/svg11.dtd">
<svg width="105" height="100"
     xmlns="http://www.w3.org/2000/svg" version="1.1">
 <path d="  M 3,69  L 4,69  L 4,73  L 5,73  L 5,74  L 4,74  L 4,75  L 5,75  L 5,76  L 6,76  L 6,78  L 7,78  L 7,79  L 8,79  L 8,80  L 23,80  L 23,79  L 26,79  L 26,78  L 28,78  L 28,77  L 31,77  L 31,76  L 34,76  L 34,75  L 37,75  L 37,74  L 38,74  L 38,73  L 42,73  L 42,72  L 43,72  L 43,71  L 45,71  L 45,70  L 47,70  L 47,69  L 48,69  L 48,67  L 49,67  L 49,68  L 50,68  L 50,67  L 59,67  L 59,68  L 60,68  L 60,67  L 61,67  L 61,68  L 64,68  L 64,67  L 65,67  L 65,65  L 64,65  L 64,63  L 62,63  L 62,61  L 60,61  L 60,60  L 58,60  L 58,59  L 51,59  L 51,60  L 48,60  L 48,61  L 46,61  L 46,62  L 45,62  L 45,63  L 43,63  L 43,64  L 41,64  L 41,65  L 40,65  L 40,66  L 38,66  L 38,67  L 36,67  L 36,68  L 34,68  L 34,69  L 32,69  L 32,70  L 29,70  L 29,71  L 27,71  L 27,72  L 22,72  L 22,73  L 13,73  L 13,72  L 11,72  L 11,70  L 10,70  L 10,50  L 11,50  L 11,48  L 12,48  L 12,47  L 13,47  L 13,46  L 15,46  L 15,45  L 21,45  L 21,44  L 26,44  L 26,43  L 29,43  L 29,42  L 31,42  L 31,41  L 34,41  L 34,40  L 36,40  L 36,39  L 40,39  L 40,38  L 41,38  L 41,37  L 42,37  L 42,36  L 44,36  L 44,35  L 45,35  L 45,33  L 46,33  L 46,32  L 47,32  L 47,31  L 48,31  L 48,24  L 49,24  L 49,13  L 48,13  L 48,12  L 45,12  L 45,11  L 43,11  L 43,10  L 41,10  L 41,9  L 37,9  L 37,8  L 25,8  L 25,7  L 23,7  L 23,8  L 22,8  L 22,7  L 19,7  L 19,8  L 18,8  L 18,7  L 16,7  L 16,8  L 9,8  L 9,7  L 8,7  L 8,8  L 6,8  L 6,9  L 4,9  L 4,11  L 3,11  L 3,12  L 4,12  L 4,14  L 6,14  L 6,15  L 14,15  L 14,14  L 20,14  L 20,13  L 21,13  L 21,14  L 22,14  L 22,13  L 25,13  L 25,14  L 37,14  L 37,15  L 38,15  L 38,14  L 40,14  L 40,15  L 42,15  L 42,23  L 41,23  L 41,24  L 42,24  L 42,26  L 41,26  L 41,28  L 40,28  L 40,30  L 39,30  L 39,31  L 37,31  L 37,32  L 35,32  L 35,33  L 33,33  L 33,34  L 32,34  L 32,35  L 29,35  L 29,36  L 27,36  L 27,37  L 24,37  L 24,38  L 20,38  L 20,39  L 16,39  L 16,40  L 14,40  L 14,39  L 13,39  L 13,40  L 10,40  L 10,41  L 7,41  L 7,42  L 6,42  L 6,43  L 4,43  L 4,44  L 1,44  L 1,45  L 0,45  L 0,47  L 3,47  L 3,49  L 4,49  L 4,51  L 3,51  L 3,53  L 4,53  L 4,54  L 3,54  Z  " style="fill:rgb(0, 0, 0); fill-opacity:1.000; stroke:none;" />
 <path d="  M 99,40  L 85,40  L 85,41  L 82,41  L 82,40  L 81,40  L 81,41  L 78,41  L 78,40  L 77,40  L 77,32  L 76,32  L 76,25  L 75,25  L 75,24  L 76,24  L 76,23  L 75,23  L 75,19  L 74,19  L 74,18  L 75,18  L 75,17  L 74,17  L 74,15  L 73,15  L 73,4  L 72,4  L 72,3  L 71,3  L 71,4  L 70,4  L 70,3  L 68,3  L 68,4  L 67,4  L 67,5  L 66,5  L 66,7  L 65,7  L 65,8  L 66,8  L 66,15  L 67,15  L 67,22  L 68,22  L 68,28  L 69,28  L 69,36  L 70,36  L 70,44  L 71,44  L 71,58  L 70,58  L 70,59  L 71,59  L 71,62  L 70,62  L 70,79  L 69,79  L 69,80  L 70,80  L 70,89  L 71,89  L 71,90  L 72,90  L 72,89  L 75,89  L 75,88  L 76,88  L 76,84  L 77,84  L 77,83  L 76,83  L 76,82  L 77,82  L 77,62  L 78,62  L 78,61  L 77,61  L 77,60  L 78,60  L 78,49  L 79,49  L 79,48  L 81,48  L 81,47  L 87,47  L 87,46  L 89,46  L 89,47  L 90,47  L 90,46  L 91,46  L 91,47  L 92,47  L 92,46  L 93,46  L 93,47  L 96,47  L 96,46  L 98,46  L 98,47  L 99,47  L 99,51  L 98,51  L 98,54  L 99,54  L 99,56  L 98,56  L 98,95  L 97,95  L 97,96  L 98,96  L 98,100  L 103,100  L 103,98  L 104,98  L 104,76  L 105,76  L 105,75  L 104,75  L 104,74  L 105,74  L 105,73  L 104,73  L 104,72  L 105,72  L 105,71  L 104,71  L 104,70  L 105,70  L 105,69  L 104,69  L 104,68  L 105,68  L 105,67  L 104,67  L 104,66  L 105,66  L 105,65  L 104,65  L 104,64  L 105,64  L 105,63  L 104,63  L 104,62  L 105,62  L 105,61  L 104,61  L 104,60  L 105,60  L 105,13  L 104,13  L 104,6  L 103,6  L 103,5  L 104,5  L 104,3  L 103,3  L 103,1  L 102,1  L 102,0  L 98,0  L 98,1  L 96,1  L 96,2  L 97,2  L 97,3  L 96,3  L 96,5  L 97,5  L 97,12  L 98,12  L 98,23  L 99,23  L 99,27  L 98,27  L 98,28  L 99,28  Z  " style="fill:rgb(0, 0, 0); fill-opacity:1.000; stroke:none;" />
</svg>
