<?xml version="1.0" encoding="UTF-8" standalone="no"?>
<!DOCTYPE svg PUBLIC "-//W3C//DTD SVG 1.1//EN" 
  "http://www.w3.org/Graphics/SVG/1.1/DTD/svg11.dtd">
<svg width="103" height="155"
     xmlns="http://www.w3.org/2000/svg" version="1.1">
 <path d="  M 37,71  L 41,71  L 41,70  L 43,70  L 43,69  L 47,69  L 47,68  L 49,68  L 49,67  L 50,67  L 50,66  L 51,66  L 51,65  L 53,65  L 53,64  L 55,64  L 55,63  L 56,63  L 56,60  L 55,60  L 55,58  L 54,58  L 54,57  L 49,57  L 49,58  L 48,58  L 48,59  L 47,59  L 47,60  L 45,60  L 45,61  L 43,61  L 43,62  L 42,62  L 42,63  L 39,63  L 39,64  L 36,64  L 36,65  L 30,65  L 30,66  L 27,66  L 27,67  L 13,67  L 13,66  L 11,66  L 11,65  L 10,65  L 10,64  L 9,64  L 9,63  L 8,63  L 8,52  L 9,52  L 9,48  L 10,48  L 10,47  L 11,47  L 11,46  L 12,46  L 12,45  L 13,45  L 13,44  L 15,44  L 15,43  L 16,43  L 16,42  L 18,42  L 18,41  L 20,41  L 20,40  L 23,40  L 23,39  L 26,39  L 26,38  L 29,38  L 29,37  L 32,37  L 32,36  L 36,36  L 36,35  L 38,35  L 38,34  L 39,34  L 39,33  L 41,33  L 41,32  L 42,32  L 42,31  L 44,31  L 44,30  L 45,30  L 45,29  L 46,29  L 46,27  L 47,27  L 47,23  L 48,23  L 48,21  L 49,21  L 49,16  L 50,16  L 50,11  L 49,11  L 49,9  L 48,9  L 48,8  L 47,8  L 47,7  L 44,7  L 44,6  L 42,6  L 42,5  L 37,5  L 37,4  L 28,4  L 28,3  L 9,3  L 9,4  L 8,4  L 8,8  L 10,8  L 10,9  L 9,9  L 9,10  L 11,10  L 11,9  L 12,9  L 12,10  L 15,10  L 15,9  L 16,9  L 16,10  L 27,10  L 27,11  L 29,11  L 29,10  L 32,10  L 32,11  L 34,11  L 34,12  L 36,12  L 36,11  L 38,11  L 38,12  L 42,12  L 42,19  L 41,19  L 41,23  L 40,23  L 40,25  L 39,25  L 39,26  L 37,26  L 37,27  L 34,27  L 34,28  L 30,28  L 30,29  L 27,29  L 27,30  L 26,30  L 26,31  L 22,31  L 22,32  L 20,32  L 20,33  L 17,33  L 17,34  L 15,34  L 15,35  L 12,35  L 12,36  L 11,36  L 11,37  L 9,37  L 9,38  L 8,38  L 8,39  L 7,39  L 7,40  L 5,40  L 5,42  L 4,42  L 4,44  L 3,44  L 3,45  L 2,45  L 2,46  L 3,46  L 3,48  L 2,48  L 2,50  L 1,50  L 1,64  L 2,64  L 2,66  L 3,66  L 3,69  L 4,69  L 4,70  L 5,70  L 5,71  L 6,71  L 6,72  L 10,72  L 10,73  L 13,73  L 13,74  L 16,74  L 16,75  L 25,75  L 25,74  L 30,74  L 30,73  L 34,73  L 34,72  L 37,72  Z  " style="fill:rgb(0, 0, 0); fill-opacity:1.000; stroke:none;" />
 <path d="  M 90,130  L 91,130  L 91,124  L 92,124  L 92,120  L 93,120  L 93,117  L 94,117  L 94,114  L 95,114  L 95,111  L 96,111  L 96,108  L 97,108  L 97,107  L 96,107  L 96,106  L 97,106  L 97,103  L 96,103  L 96,99  L 95,99  L 95,98  L 94,98  L 94,97  L 93,97  L 93,96  L 91,96  L 91,95  L 89,95  L 89,94  L 85,94  L 85,93  L 69,93  L 69,92  L 68,92  L 68,93  L 57,93  L 57,94  L 49,94  L 49,95  L 39,95  L 39,96  L 36,96  L 36,97  L 33,97  L 33,98  L 32,98  L 32,101  L 33,101  L 33,102  L 35,102  L 35,103  L 38,103  L 38,102  L 47,102  L 47,101  L 48,101  L 48,102  L 49,102  L 49,101  L 57,101  L 57,100  L 85,100  L 85,101  L 88,101  L 88,103  L 89,103  L 89,109  L 88,109  L 88,113  L 87,113  L 87,117  L 86,117  L 86,119  L 85,119  L 85,125  L 84,125  L 84,130  L 83,130  L 83,136  L 82,136  L 82,143  L 81,143  L 81,146  L 80,146  L 80,149  L 79,149  L 79,151  L 78,151  L 78,152  L 79,152  L 79,155  L 85,155  L 85,152  L 86,152  L 86,151  L 87,151  L 87,149  L 88,149  L 88,144  L 89,144  L 89,138  L 90,138  Z  " style="fill:rgb(0, 0, 0); fill-opacity:1.000; stroke:none;" />
 <path d="  M 101,5  L 102,5  L 102,3  L 101,3  L 101,2  L 99,2  L 99,1  L 95,1  L 95,2  L 94,2  L 94,4  L 93,4  L 93,5  L 94,5  L 94,12  L 95,12  L 95,27  L 93,27  L 93,28  L 90,28  L 90,29  L 80,29  L 80,30  L 78,30  L 78,29  L 77,29  L 77,27  L 76,27  L 76,24  L 77,24  L 77,23  L 76,23  L 76,2  L 75,2  L 75,1  L 73,1  L 73,0  L 69,0  L 69,2  L 68,2  L 68,24  L 69,24  L 69,25  L 68,25  L 68,26  L 69,26  L 69,29  L 68,29  L 68,30  L 69,30  L 69,40  L 70,40  L 70,51  L 69,51  L 69,52  L 70,52  L 70,53  L 69,53  L 69,65  L 68,65  L 68,68  L 69,68  L 69,69  L 68,69  L 68,70  L 69,70  L 69,72  L 70,72  L 70,73  L 72,73  L 72,72  L 73,72  L 73,71  L 74,71  L 74,69  L 75,69  L 75,68  L 76,68  L 76,60  L 77,60  L 77,59  L 76,59  L 76,58  L 77,58  L 77,52  L 78,52  L 78,51  L 77,51  L 77,48  L 78,48  L 78,40  L 79,40  L 79,37  L 81,37  L 81,36  L 88,36  L 88,35  L 89,35  L 89,36  L 90,36  L 90,35  L 94,35  L 94,34  L 95,34  L 95,36  L 96,36  L 96,41  L 95,41  L 95,42  L 96,42  L 96,43  L 95,43  L 95,59  L 94,59  L 94,70  L 93,70  L 93,73  L 94,73  L 94,77  L 96,77  L 96,76  L 101,76  L 101,64  L 102,64  L 102,63  L 101,63  L 101,62  L 102,62  L 102,50  L 103,50  L 103,23  L 102,23  L 102,9  L 101,9  Z  " style="fill:rgb(0, 0, 0); fill-opacity:1.000; stroke:none;" />
</svg>
