<?xml version="1.0" encoding="UTF-8" standalone="no"?>
<!DOCTYPE svg PUBLIC "-//W3C//DTD SVG 1.1//EN" 
  "http://www.w3.org/Graphics/SVG/1.1/DTD/svg11.dtd">
<svg width="104" height="143"
     xmlns="http://www.w3.org/2000/svg" version="1.1">
 <path d="  M 31,16  L 31,17  L 37,17  L 37,18  L 38,18  L 38,20  L 39,20  L 39,22  L 38,22  L 38,26  L 37,26  L 37,28  L 36,28  L 36,30  L 34,30  L 34,31  L 32,31  L 32,32  L 29,32  L 29,33  L 25,33  L 25,34  L 20,34  L 20,35  L 19,35  L 19,36  L 16,36  L 16,37  L 13,37  L 13,38  L 11,38  L 11,39  L 10,39  L 10,40  L 8,40  L 8,41  L 6,41  L 6,42  L 5,42  L 5,44  L 4,44  L 4,45  L 3,45  L 3,46  L 2,46  L 2,50  L 1,50  L 1,61  L 0,61  L 0,62  L 1,62  L 1,67  L 2,67  L 2,69  L 4,69  L 4,70  L 5,70  L 5,71  L 10,71  L 10,72  L 19,72  L 19,73  L 20,73  L 20,72  L 26,72  L 26,71  L 30,71  L 30,70  L 34,70  L 34,69  L 40,69  L 40,68  L 44,68  L 44,67  L 46,67  L 46,66  L 49,66  L 49,65  L 51,65  L 51,64  L 52,64  L 52,59  L 45,59  L 45,60  L 42,60  L 42,61  L 39,61  L 39,62  L 36,62  L 36,63  L 34,63  L 34,64  L 33,64  L 33,63  L 32,63  L 32,64  L 27,64  L 27,65  L 21,65  L 21,66  L 15,66  L 15,65  L 14,65  L 14,66  L 12,66  L 12,65  L 8,65  L 8,62  L 7,62  L 7,53  L 8,53  L 8,50  L 9,50  L 9,49  L 10,49  L 10,48  L 11,48  L 11,47  L 12,47  L 12,46  L 14,46  L 14,45  L 16,45  L 16,44  L 17,44  L 17,43  L 20,43  L 20,42  L 23,42  L 23,41  L 26,41  L 26,40  L 30,40  L 30,39  L 34,39  L 34,38  L 37,38  L 37,37  L 39,37  L 39,36  L 41,36  L 41,35  L 42,35  L 42,33  L 43,33  L 43,31  L 44,31  L 44,25  L 45,25  L 45,21  L 46,21  L 46,20  L 45,20  L 45,18  L 46,18  L 46,16  L 45,16  L 45,15  L 44,15  L 44,13  L 42,13  L 42,12  L 41,12  L 41,11  L 34,11  L 34,10  L 23,10  L 23,9  L 16,9  L 16,10  L 15,10  L 15,9  L 10,9  L 10,10  L 9,10  L 9,11  L 8,11  L 8,14  L 9,14  L 9,15  L 10,15  L 10,16  L 11,16  L 11,17  L 12,17  L 12,16  Z  " style="fill:rgb(0, 0, 0); fill-opacity:1.000; stroke:none;" />
 <path d="  M 7,15  L 8,15  L 8,14  L 7,14  Z  " style="fill:rgb(0, 0, 0); fill-opacity:1.000; stroke:none;" />
 <path d="  M 21,138  L 21,142  L 22,142  L 22,143  L 28,143  L 28,142  L 30,142  L 30,140  L 32,140  L 32,138  L 33,138  L 33,137  L 34,137  L 34,135  L 35,135  L 35,134  L 36,134  L 36,132  L 37,132  L 37,131  L 38,131  L 38,130  L 39,130  L 39,128  L 40,128  L 40,127  L 41,127  L 41,125  L 42,125  L 42,124  L 43,124  L 43,122  L 44,122  L 44,121  L 45,121  L 45,119  L 46,119  L 46,118  L 47,118  L 47,115  L 48,115  L 48,114  L 49,114  L 49,113  L 50,113  L 50,114  L 52,114  L 52,115  L 54,115  L 54,116  L 55,116  L 55,117  L 57,117  L 57,118  L 58,118  L 58,119  L 59,119  L 59,120  L 61,120  L 61,121  L 63,121  L 63,123  L 65,123  L 65,124  L 66,124  L 66,125  L 68,125  L 68,126  L 69,126  L 69,127  L 70,127  L 70,128  L 71,128  L 71,129  L 72,129  L 72,130  L 74,130  L 74,131  L 77,131  L 77,132  L 78,132  L 78,133  L 80,133  L 80,134  L 82,134  L 82,135  L 84,135  L 84,136  L 86,136  L 86,137  L 88,137  L 88,138  L 91,138  L 91,139  L 97,139  L 97,140  L 98,140  L 98,139  L 103,139  L 103,138  L 104,138  L 104,134  L 102,134  L 102,133  L 97,133  L 97,132  L 93,132  L 93,131  L 90,131  L 90,130  L 88,130  L 88,129  L 86,129  L 86,128  L 84,128  L 84,127  L 82,127  L 82,126  L 80,126  L 80,125  L 79,125  L 79,124  L 77,124  L 77,123  L 76,123  L 76,122  L 75,122  L 75,121  L 73,121  L 73,120  L 71,120  L 71,119  L 70,119  L 70,118  L 68,118  L 68,117  L 67,117  L 67,116  L 65,116  L 65,115  L 64,115  L 64,114  L 63,114  L 63,113  L 61,113  L 61,112  L 60,112  L 60,111  L 59,111  L 59,110  L 58,110  L 58,109  L 57,109  L 57,108  L 55,108  L 55,106  L 56,106  L 56,104  L 57,104  L 57,103  L 59,103  L 59,101  L 60,101  L 60,100  L 61,100  L 61,99  L 62,99  L 62,98  L 64,98  L 64,96  L 65,96  L 65,95  L 66,95  L 66,93  L 67,93  L 67,90  L 66,90  L 66,89  L 65,89  L 65,88  L 61,88  L 61,89  L 60,89  L 60,90  L 59,90  L 59,91  L 58,91  L 58,93  L 57,93  L 57,94  L 56,94  L 56,95  L 55,95  L 55,96  L 53,96  L 53,98  L 52,98  L 52,99  L 51,99  L 51,100  L 50,100  L 50,102  L 49,102  L 49,104  L 47,104  L 47,106  L 46,106  L 46,108  L 45,108  L 45,109  L 44,109  L 44,110  L 42,110  L 42,112  L 41,112  L 41,114  L 40,114  L 40,115  L 39,115  L 39,116  L 38,116  L 38,118  L 37,118  L 37,120  L 36,120  L 36,121  L 35,121  L 35,122  L 34,122  L 34,124  L 33,124  L 33,125  L 32,125  L 32,127  L 31,127  L 31,128  L 30,128  L 30,129  L 29,129  L 29,130  L 28,130  L 28,132  L 27,132  L 27,133  L 26,133  L 26,134  L 25,134  L 25,135  L 24,135  L 24,136  L 23,136  L 23,137  L 22,137  L 22,138  Z  " style="fill:rgb(0, 0, 0); fill-opacity:1.000; stroke:none;" />
 <path d="  M 94,85  L 95,85  L 95,86  L 97,86  L 97,85  L 99,85  L 99,84  L 100,84  L 100,83  L 101,83  L 101,72  L 100,72  L 100,71  L 101,71  L 101,68  L 100,68  L 100,67  L 101,67  L 101,66  L 100,66  L 100,65  L 101,65  L 101,64  L 100,64  L 100,63  L 101,63  L 101,62  L 100,62  L 100,61  L 101,61  L 101,60  L 100,60  L 100,59  L 101,59  L 101,58  L 100,58  L 100,55  L 101,55  L 101,54  L 100,54  L 100,43  L 99,43  L 99,37  L 100,37  L 100,26  L 99,26  L 99,8  L 98,8  L 98,6  L 97,6  L 97,5  L 94,5  L 94,7  L 93,7  L 93,30  L 92,30  L 92,31  L 86,31  L 86,32  L 76,32  L 76,33  L 72,33  L 72,32  L 71,32  L 71,31  L 72,31  L 72,30  L 71,30  L 71,14  L 70,14  L 70,13  L 71,13  L 71,12  L 70,12  L 70,6  L 71,6  L 71,3  L 70,3  L 70,2  L 69,2  L 69,1  L 66,1  L 66,0  L 65,0  L 65,2  L 64,2  L 64,4  L 63,4  L 63,9  L 64,9  L 64,12  L 63,12  L 63,13  L 64,13  L 64,37  L 65,37  L 65,38  L 64,38  L 64,40  L 65,40  L 65,51  L 64,51  L 64,52  L 65,52  L 65,54  L 64,54  L 64,64  L 63,64  L 63,73  L 64,73  L 64,74  L 65,74  L 65,73  L 69,73  L 69,71  L 70,71  L 70,63  L 71,63  L 71,52  L 72,52  L 72,49  L 73,49  L 73,48  L 72,48  L 72,45  L 73,45  L 73,40  L 76,40  L 76,39  L 83,39  L 83,38  L 91,38  L 91,39  L 92,39  L 92,43  L 93,43  L 93,53  L 94,53  L 94,54  L 93,54  L 93,55  L 94,55  L 94,58  L 93,58  L 93,59  L 94,59  Z  " style="fill:rgb(0, 0, 0); fill-opacity:1.000; stroke:none;" />
</svg>
