<?xml version="1.0" encoding="UTF-8" standalone="no"?>
<!DOCTYPE svg PUBLIC "-//W3C//DTD SVG 1.1//EN" 
  "http://www.w3.org/Graphics/SVG/1.1/DTD/svg11.dtd">
<svg width="105" height="142"
     xmlns="http://www.w3.org/2000/svg" version="1.1">
 <path d="  M 14,15  L 14,14  L 36,14  L 36,15  L 38,15  L 38,16  L 37,16  L 37,17  L 38,17  L 38,18  L 37,18  L 37,21  L 36,21  L 36,23  L 35,23  L 35,25  L 34,25  L 34,26  L 33,26  L 33,27  L 32,27  L 32,28  L 28,28  L 28,29  L 24,29  L 24,30  L 21,30  L 21,31  L 20,31  L 20,32  L 17,32  L 17,33  L 14,33  L 14,34  L 11,34  L 11,35  L 8,35  L 8,36  L 6,36  L 6,37  L 5,37  L 5,38  L 3,38  L 3,40  L 2,40  L 2,45  L 1,45  L 1,50  L 0,50  L 0,51  L 1,51  L 1,62  L 2,62  L 2,63  L 3,63  L 3,64  L 4,64  L 4,65  L 8,65  L 8,66  L 10,66  L 10,67  L 13,67  L 13,66  L 25,66  L 25,65  L 31,65  L 31,64  L 36,64  L 36,63  L 39,63  L 39,62  L 43,62  L 43,61  L 46,61  L 46,60  L 52,60  L 52,56  L 51,56  L 51,55  L 50,55  L 50,54  L 49,54  L 49,53  L 48,53  L 48,52  L 45,52  L 45,53  L 44,53  L 44,52  L 43,52  L 43,53  L 41,53  L 41,54  L 39,54  L 39,55  L 37,55  L 37,56  L 35,56  L 35,57  L 31,57  L 31,58  L 28,58  L 28,59  L 24,59  L 24,60  L 8,60  L 8,58  L 7,58  L 7,56  L 6,56  L 6,55  L 7,55  L 7,54  L 6,54  L 6,53  L 7,53  L 7,52  L 6,52  L 6,49  L 7,49  L 7,47  L 8,47  L 8,45  L 9,45  L 9,44  L 11,44  L 11,43  L 12,43  L 12,42  L 14,42  L 14,41  L 17,41  L 17,40  L 18,40  L 18,39  L 21,39  L 21,38  L 23,38  L 23,37  L 26,37  L 26,36  L 29,36  L 29,35  L 34,35  L 34,34  L 36,34  L 36,33  L 38,33  L 38,31  L 39,31  L 39,30  L 40,30  L 40,29  L 41,29  L 41,28  L 42,28  L 42,27  L 43,27  L 43,23  L 44,23  L 44,19  L 45,19  L 45,11  L 44,11  L 44,10  L 43,10  L 43,8  L 28,8  L 28,7  L 27,7  L 27,8  L 20,8  L 20,7  L 19,7  L 19,8  L 16,8  L 16,7  L 10,7  L 10,8  L 8,8  L 8,10  L 6,10  L 6,11  L 7,11  L 7,13  L 9,13  L 9,14  L 10,14  L 10,15  Z  " style="fill:rgb(0, 0, 0); fill-opacity:1.000; stroke:none;" />
 <path d="  M 13,122  L 13,123  L 12,123  L 12,124  L 11,124  L 11,126  L 10,126  L 10,127  L 9,127  L 9,129  L 8,129  L 8,130  L 7,130  L 7,132  L 8,132  L 8,133  L 9,133  L 9,134  L 13,134  L 13,133  L 14,133  L 14,130  L 15,130  L 15,129  L 16,129  L 16,128  L 17,128  L 17,126  L 18,126  L 18,125  L 19,125  L 19,124  L 20,124  L 20,123  L 21,123  L 21,121  L 23,121  L 23,120  L 24,120  L 24,119  L 25,119  L 25,118  L 26,118  L 26,117  L 27,117  L 27,115  L 28,115  L 28,113  L 30,113  L 30,112  L 34,112  L 34,113  L 37,113  L 37,114  L 39,114  L 39,115  L 42,115  L 42,116  L 45,116  L 45,117  L 48,117  L 48,118  L 50,118  L 50,119  L 51,119  L 51,120  L 52,120  L 52,121  L 53,121  L 53,124  L 54,124  L 54,128  L 53,128  L 53,130  L 52,130  L 52,131  L 51,131  L 51,133  L 50,133  L 50,135  L 49,135  L 49,141  L 50,141  L 50,142  L 54,142  L 54,141  L 55,141  L 55,140  L 56,140  L 56,136  L 57,136  L 57,134  L 58,134  L 58,133  L 59,133  L 59,131  L 60,131  L 60,130  L 62,130  L 62,129  L 63,129  L 63,128  L 64,128  L 64,127  L 65,127  L 65,125  L 66,125  L 66,123  L 67,123  L 67,121  L 68,121  L 68,119  L 69,119  L 69,117  L 70,117  L 70,113  L 71,113  L 71,112  L 72,112  L 72,111  L 73,111  L 73,112  L 74,112  L 74,113  L 75,113  L 75,114  L 76,114  L 76,115  L 77,115  L 77,116  L 78,116  L 78,117  L 80,117  L 80,118  L 82,118  L 82,119  L 83,119  L 83,120  L 85,120  L 85,121  L 88,121  L 88,122  L 89,122  L 89,123  L 91,123  L 91,124  L 93,124  L 93,125  L 95,125  L 95,126  L 97,126  L 97,127  L 98,127  L 98,128  L 105,128  L 105,124  L 104,124  L 104,123  L 102,123  L 102,122  L 101,122  L 101,121  L 98,121  L 98,120  L 96,120  L 96,119  L 95,119  L 95,118  L 93,118  L 93,117  L 90,117  L 90,116  L 89,116  L 89,115  L 88,115  L 88,114  L 86,114  L 86,113  L 85,113  L 85,112  L 82,112  L 82,111  L 81,111  L 81,110  L 80,110  L 80,109  L 79,109  L 79,108  L 78,108  L 78,106  L 77,106  L 77,102  L 78,102  L 78,101  L 79,101  L 79,97  L 80,97  L 80,93  L 81,93  L 81,90  L 82,90  L 82,86  L 79,86  L 79,85  L 74,85  L 74,91  L 73,91  L 73,92  L 72,92  L 72,93  L 73,93  L 73,94  L 72,94  L 72,97  L 71,97  L 71,100  L 70,100  L 70,103  L 69,103  L 69,105  L 68,105  L 68,106  L 67,106  L 67,109  L 66,109  L 66,111  L 65,111  L 65,114  L 64,114  L 64,116  L 63,116  L 63,119  L 62,119  L 62,121  L 61,121  L 61,122  L 60,122  L 60,123  L 59,123  L 59,127  L 58,127  L 58,126  L 57,126  L 57,123  L 58,123  L 58,122  L 59,122  L 59,121  L 58,121  L 58,117  L 57,117  L 57,116  L 56,116  L 56,115  L 54,115  L 54,114  L 52,114  L 52,113  L 50,113  L 50,112  L 49,112  L 49,111  L 47,111  L 47,110  L 45,110  L 45,109  L 42,109  L 42,108  L 39,108  L 39,107  L 38,107  L 38,106  L 36,106  L 36,105  L 35,105  L 35,104  L 34,104  L 34,103  L 35,103  L 35,102  L 36,102  L 36,101  L 37,101  L 37,100  L 38,100  L 38,98  L 39,98  L 39,97  L 40,97  L 40,96  L 41,96  L 41,95  L 42,95  L 42,93  L 43,93  L 43,90  L 44,90  L 44,88  L 45,88  L 45,85  L 44,85  L 44,81  L 43,81  L 43,80  L 40,80  L 40,81  L 39,81  L 39,82  L 38,82  L 38,92  L 37,92  L 37,94  L 36,94  L 36,95  L 35,95  L 35,96  L 34,96  L 34,97  L 33,97  L 33,98  L 32,98  L 32,99  L 31,99  L 31,100  L 30,100  L 30,102  L 29,102  L 29,103  L 28,103  L 28,104  L 27,104  L 27,106  L 26,106  L 26,108  L 25,108  L 25,109  L 24,109  L 24,110  L 23,110  L 23,112  L 22,112  L 22,113  L 21,113  L 21,114  L 20,114  L 20,115  L 19,115  L 19,116  L 18,116  L 18,118  L 17,118  L 17,119  L 15,119  L 15,121  L 14,121  L 14,122  Z  " style="fill:rgb(0, 0, 0); fill-opacity:1.000; stroke:none;" />
 <path d="  M 9,15  L 9,14  L 8,14  L 8,15  Z  " style="fill:rgb(0, 0, 0); fill-opacity:1.000; stroke:none;" />
 <path d="  M 26,84  L 27,84  L 27,85  L 28,85  L 28,86  L 31,86  L 31,85  L 32,85  L 32,83  L 31,83  L 31,82  L 28,82  L 28,83  L 26,83  Z  " style="fill:rgb(0, 0, 0); fill-opacity:1.000; stroke:none;" />
 <path d="  M 79,55  L 79,58  L 78,58  L 78,59  L 79,59  L 79,62  L 78,62  L 78,63  L 79,63  L 79,66  L 78,66  L 78,67  L 79,67  L 79,75  L 80,75  L 80,76  L 81,76  L 81,77  L 83,77  L 83,76  L 84,76  L 84,77  L 85,77  L 85,75  L 86,75  L 86,29  L 85,29  L 85,23  L 84,23  L 84,18  L 83,18  L 83,12  L 82,12  L 82,9  L 83,9  L 83,8  L 82,8  L 82,5  L 81,5  L 81,4  L 80,4  L 80,3  L 79,3  L 79,2  L 75,2  L 75,13  L 76,13  L 76,21  L 77,21  L 77,25  L 78,25  L 78,26  L 79,26  L 79,27  L 78,27  L 78,28  L 69,28  L 69,29  L 68,29  L 68,28  L 67,28  L 67,26  L 66,26  L 66,25  L 67,25  L 67,24  L 66,24  L 66,1  L 65,1  L 65,0  L 61,0  L 61,2  L 60,2  L 60,30  L 61,30  L 61,31  L 60,31  L 60,33  L 61,33  L 61,67  L 62,67  L 62,68  L 63,68  L 63,69  L 66,69  L 66,67  L 67,67  L 67,53  L 68,53  L 68,52  L 67,52  L 67,49  L 68,49  L 68,48  L 67,48  L 67,45  L 68,45  L 68,44  L 67,44  L 67,41  L 68,41  L 68,40  L 67,40  L 67,37  L 68,37  L 68,35  L 69,35  L 69,34  L 70,34  L 70,35  L 71,35  L 71,34  L 78,34  L 78,37  L 79,37  L 79,38  L 78,38  L 78,40  L 79,40  L 79,42  L 78,42  L 78,43  L 79,43  L 79,46  L 78,46  L 78,47  L 79,47  L 79,50  L 78,50  L 78,51  L 79,51  L 79,54  L 78,54  L 78,55  Z  " style="fill:rgb(0, 0, 0); fill-opacity:1.000; stroke:none;" />
</svg>
