<?xml version="1.0" encoding="UTF-8" standalone="no"?>
<!DOCTYPE svg PUBLIC "-//W3C//DTD SVG 1.1//EN" 
  "http://www.w3.org/Graphics/SVG/1.1/DTD/svg11.dtd">
<svg width="106" height="153"
     xmlns="http://www.w3.org/2000/svg" version="1.1">
 <path d="  M 9,80  L 9,79  L 10,79  L 10,80  L 11,80  L 11,81  L 27,81  L 27,80  L 33,80  L 33,79  L 38,79  L 38,78  L 44,78  L 44,77  L 45,77  L 45,76  L 48,76  L 48,75  L 49,75  L 49,74  L 50,74  L 50,72  L 49,72  L 49,70  L 44,70  L 44,71  L 39,71  L 39,72  L 33,72  L 33,73  L 28,73  L 28,74  L 13,74  L 13,73  L 10,73  L 10,71  L 9,71  L 9,70  L 8,70  L 8,65  L 7,65  L 7,62  L 8,62  L 8,61  L 7,61  L 7,57  L 8,57  L 8,53  L 9,53  L 9,52  L 10,52  L 10,51  L 11,51  L 11,50  L 13,50  L 13,49  L 14,49  L 14,48  L 16,48  L 16,47  L 19,47  L 19,46  L 22,46  L 22,45  L 25,45  L 25,44  L 29,44  L 29,43  L 34,43  L 34,42  L 36,42  L 36,41  L 37,41  L 37,40  L 38,40  L 38,38  L 40,38  L 40,37  L 41,37  L 41,36  L 42,36  L 42,35  L 43,35  L 43,34  L 44,34  L 44,33  L 45,33  L 45,31  L 46,31  L 46,30  L 47,30  L 47,28  L 48,28  L 48,24  L 49,24  L 49,22  L 48,22  L 48,20  L 47,20  L 47,18  L 46,18  L 46,16  L 44,16  L 44,15  L 43,15  L 43,14  L 42,14  L 42,13  L 40,13  L 40,12  L 37,12  L 37,11  L 32,11  L 32,10  L 26,10  L 26,9  L 9,9  L 9,11  L 8,11  L 8,12  L 7,12  L 7,14  L 8,14  L 8,16  L 9,16  L 9,15  L 10,15  L 10,16  L 29,16  L 29,17  L 34,17  L 34,18  L 38,18  L 38,19  L 39,19  L 39,20  L 40,20  L 40,22  L 41,22  L 41,25  L 40,25  L 40,28  L 39,28  L 39,30  L 38,30  L 38,31  L 37,31  L 37,32  L 34,32  L 34,33  L 33,33  L 33,34  L 31,34  L 31,35  L 29,35  L 29,36  L 28,36  L 28,37  L 24,37  L 24,38  L 21,38  L 21,39  L 17,39  L 17,40  L 15,40  L 15,41  L 12,41  L 12,42  L 10,42  L 10,43  L 8,43  L 8,44  L 7,44  L 7,45  L 5,45  L 5,46  L 3,46  L 3,47  L 2,47  L 2,48  L 3,48  L 3,49  L 2,49  L 2,54  L 1,54  L 1,63  L 0,63  L 0,64  L 1,64  L 1,65  L 0,65  L 0,66  L 1,66  L 1,73  L 2,73  L 2,75  L 3,75  L 3,77  L 5,77  L 5,79  L 6,79  L 6,78  L 7,78  L 7,80  Z  " style="fill:rgb(0, 0, 0); fill-opacity:1.000; stroke:none;" />
 <path d="  M 64,141  L 63,141  L 63,146  L 62,146  L 62,151  L 61,151  L 61,152  L 62,152  L 62,153  L 68,153  L 68,152  L 69,152  L 69,150  L 70,150  L 70,143  L 71,143  L 71,136  L 72,136  L 72,130  L 73,130  L 73,124  L 74,124  L 74,122  L 75,122  L 75,121  L 74,121  L 74,120  L 75,120  L 75,118  L 76,118  L 76,115  L 77,115  L 77,113  L 76,113  L 76,109  L 75,109  L 75,107  L 74,107  L 74,106  L 73,106  L 73,105  L 72,105  L 72,104  L 70,104  L 70,103  L 67,103  L 67,102  L 64,102  L 64,101  L 40,101  L 40,102  L 33,102  L 33,103  L 32,103  L 32,102  L 30,102  L 30,103  L 27,103  L 27,105  L 26,105  L 26,108  L 27,108  L 27,110  L 37,110  L 37,109  L 41,109  L 41,108  L 49,108  L 49,107  L 51,107  L 51,108  L 52,108  L 52,107  L 58,107  L 58,108  L 60,108  L 60,107  L 61,107  L 61,108  L 64,108  L 64,109  L 66,109  L 66,110  L 68,110  L 68,111  L 69,111  L 69,112  L 70,112  L 70,117  L 69,117  L 69,120  L 68,120  L 68,123  L 67,123  L 67,127  L 66,127  L 66,131  L 65,131  L 65,136  L 64,136  Z  " style="fill:rgb(0, 0, 0); fill-opacity:1.000; stroke:none;" />
 <path d="  M 85,46  L 85,45  L 84,45  L 84,46  L 79,46  L 79,45  L 78,45  L 78,40  L 79,40  L 79,39  L 78,39  L 78,38  L 79,38  L 79,37  L 81,37  L 81,36  L 93,36  L 93,35  L 94,35  L 94,36  L 95,36  L 95,35  L 96,35  L 96,36  L 97,36  L 97,35  L 98,35  L 98,36  L 99,36  L 99,35  L 101,35  L 101,33  L 102,33  L 102,32  L 101,32  L 101,30  L 99,30  L 99,29  L 96,29  L 96,30  L 93,30  L 93,29  L 92,29  L 92,30  L 89,30  L 89,29  L 88,29  L 88,30  L 85,30  L 85,29  L 84,29  L 84,30  L 81,30  L 81,31  L 79,31  L 79,30  L 78,30  L 78,25  L 77,25  L 77,24  L 78,24  L 78,23  L 77,23  L 77,15  L 76,15  L 76,7  L 75,7  L 75,2  L 74,2  L 74,1  L 69,1  L 69,12  L 70,12  L 70,17  L 71,17  L 71,26  L 72,26  L 72,27  L 71,27  L 71,30  L 72,30  L 72,45  L 71,45  L 71,46  L 72,46  L 72,49  L 71,49  L 71,50  L 72,50  L 72,53  L 71,53  L 71,54  L 72,54  L 72,88  L 73,88  L 73,89  L 74,89  L 74,90  L 75,90  L 75,89  L 78,89  L 78,56  L 79,56  L 79,54  L 81,54  L 81,53  L 103,53  L 103,52  L 106,52  L 106,48  L 105,48  L 105,47  L 104,47  L 104,46  Z  " style="fill:rgb(0, 0, 0); fill-opacity:1.000; stroke:none;" />
</svg>
