<?xml version="1.0" encoding="UTF-8" standalone="no"?>
<!DOCTYPE svg PUBLIC "-//W3C//DTD SVG 1.1//EN" 
  "http://www.w3.org/Graphics/SVG/1.1/DTD/svg11.dtd">
<svg width="104" height="152"
     xmlns="http://www.w3.org/2000/svg" version="1.1">
 <path d="  M 7,75  L 7,76  L 9,76  L 9,77  L 10,77  L 10,78  L 11,78  L 11,77  L 12,77  L 12,78  L 17,78  L 17,79  L 18,79  L 18,78  L 19,78  L 19,79  L 20,79  L 20,78  L 23,78  L 23,79  L 24,79  L 24,78  L 32,78  L 32,77  L 36,77  L 36,76  L 41,76  L 41,75  L 44,75  L 44,74  L 45,74  L 45,75  L 46,75  L 46,74  L 51,74  L 51,73  L 55,73  L 55,72  L 56,72  L 56,71  L 57,71  L 57,70  L 58,70  L 58,69  L 59,69  L 59,67  L 60,67  L 60,65  L 61,65  L 61,60  L 60,60  L 60,61  L 57,61  L 57,62  L 56,62  L 56,63  L 53,63  L 53,64  L 52,64  L 52,65  L 51,65  L 51,66  L 47,66  L 47,67  L 43,67  L 43,68  L 38,68  L 38,69  L 35,69  L 35,70  L 27,70  L 27,71  L 15,71  L 15,70  L 12,70  L 12,69  L 11,69  L 11,68  L 10,68  L 10,67  L 9,67  L 9,65  L 8,65  L 8,64  L 9,64  L 9,63  L 8,63  L 8,54  L 9,54  L 9,51  L 10,51  L 10,50  L 11,50  L 11,49  L 13,49  L 13,48  L 16,48  L 16,47  L 17,47  L 17,46  L 22,46  L 22,45  L 25,45  L 25,44  L 29,44  L 29,43  L 31,43  L 31,42  L 32,42  L 32,41  L 34,41  L 34,40  L 36,40  L 36,39  L 38,39  L 38,38  L 39,38  L 39,37  L 42,37  L 42,36  L 43,36  L 43,35  L 46,35  L 46,34  L 45,34  L 45,33  L 46,33  L 46,32  L 47,32  L 47,30  L 48,30  L 48,24  L 49,24  L 49,23  L 48,23  L 48,19  L 47,19  L 47,18  L 46,18  L 46,17  L 45,17  L 45,16  L 44,16  L 44,15  L 43,15  L 43,14  L 41,14  L 41,13  L 37,13  L 37,12  L 32,12  L 32,11  L 28,11  L 28,10  L 23,10  L 23,9  L 16,9  L 16,8  L 11,8  L 11,9  L 10,9  L 10,10  L 9,10  L 9,11  L 8,11  L 8,12  L 9,12  L 9,13  L 8,13  L 8,15  L 12,15  L 12,16  L 13,16  L 13,15  L 16,15  L 16,16  L 22,16  L 22,17  L 28,17  L 28,18  L 31,18  L 31,19  L 35,19  L 35,20  L 37,20  L 37,21  L 38,21  L 38,22  L 39,22  L 39,23  L 41,23  L 41,28  L 40,28  L 40,29  L 38,29  L 38,30  L 36,30  L 36,31  L 34,31  L 34,32  L 33,32  L 33,33  L 31,33  L 31,34  L 30,34  L 30,35  L 27,35  L 27,36  L 24,36  L 24,37  L 22,37  L 22,38  L 19,38  L 19,39  L 14,39  L 14,40  L 12,40  L 12,41  L 11,41  L 11,42  L 8,42  L 8,43  L 6,43  L 6,44  L 5,44  L 5,45  L 4,45  L 4,47  L 2,47  L 2,49  L 1,49  L 1,50  L 2,50  L 2,52  L 1,52  L 1,68  L 2,68  L 2,71  L 3,71  L 3,73  L 4,73  L 4,74  L 5,74  L 5,75  Z  " style="fill:rgb(0, 0, 0); fill-opacity:1.000; stroke:none;" />
 <path d="  M 3,74  L 3,73  L 2,73  L 2,74  Z  " style="fill:rgb(0, 0, 0); fill-opacity:1.000; stroke:none;" />
 <path d="  M 22,108  L 21,108  L 21,110  L 22,110  L 22,111  L 21,111  L 21,117  L 20,117  L 20,118  L 21,118  L 21,119  L 20,119  L 20,126  L 19,126  L 19,127  L 20,127  L 20,130  L 19,130  L 19,131  L 20,131  L 20,139  L 21,139  L 21,143  L 22,143  L 22,146  L 23,146  L 23,147  L 24,147  L 24,148  L 25,148  L 25,149  L 26,149  L 26,150  L 29,150  L 29,151  L 31,151  L 31,152  L 56,152  L 56,151  L 57,151  L 57,152  L 58,152  L 58,151  L 67,151  L 67,150  L 75,150  L 75,149  L 83,149  L 83,148  L 92,148  L 92,147  L 93,147  L 93,148  L 96,148  L 96,147  L 102,147  L 102,146  L 103,146  L 103,145  L 104,145  L 104,138  L 101,138  L 101,139  L 100,139  L 100,138  L 99,138  L 99,139  L 95,139  L 95,140  L 84,140  L 84,141  L 76,141  L 76,142  L 71,142  L 71,143  L 70,143  L 70,142  L 69,142  L 69,143  L 68,143  L 68,142  L 67,142  L 67,143  L 63,143  L 63,144  L 62,144  L 62,143  L 61,143  L 61,144  L 54,144  L 54,145  L 32,145  L 32,144  L 31,144  L 31,143  L 30,143  L 30,141  L 29,141  L 29,139  L 30,139  L 30,138  L 29,138  L 29,109  L 30,109  L 30,101  L 29,101  L 29,100  L 28,100  L 28,99  L 25,99  L 25,100  L 23,100  L 23,101  L 22,101  Z  " style="fill:rgb(0, 0, 0); fill-opacity:1.000; stroke:none;" />
 <path d="  M 89,3  L 88,3  L 88,1  L 86,1  L 86,0  L 83,0  L 83,1  L 81,1  L 81,2  L 80,2  L 80,3  L 81,3  L 81,8  L 82,8  L 82,12  L 83,12  L 83,20  L 84,20  L 84,29  L 85,29  L 85,33  L 84,33  L 84,34  L 81,34  L 81,35  L 80,35  L 80,34  L 79,34  L 79,35  L 75,35  L 75,36  L 69,36  L 69,37  L 59,37  L 59,36  L 54,36  L 54,37  L 53,37  L 53,39  L 54,39  L 54,40  L 53,40  L 53,43  L 55,43  L 55,44  L 56,44  L 56,45  L 60,45  L 60,44  L 67,44  L 67,43  L 75,43  L 75,42  L 78,42  L 78,43  L 79,43  L 79,42  L 84,42  L 84,54  L 83,54  L 83,55  L 84,55  L 84,89  L 85,89  L 85,90  L 88,90  L 88,91  L 90,91  L 90,88  L 91,88  L 91,45  L 92,45  L 92,29  L 91,29  L 91,18  L 90,18  L 90,10  L 89,10  Z  " style="fill:rgb(0, 0, 0); fill-opacity:1.000; stroke:none;" />
</svg>
