<?xml version="1.0" encoding="UTF-8" standalone="no"?>
<!DOCTYPE svg PUBLIC "-//W3C//DTD SVG 1.1//EN" 
  "http://www.w3.org/Graphics/SVG/1.1/DTD/svg11.dtd">
<svg width="104" height="176"
     xmlns="http://www.w3.org/2000/svg" version="1.1">
 <path d="  M 51,28  L 52,28  L 52,21  L 51,21  L 51,18  L 50,18  L 50,15  L 49,15  L 49,14  L 48,14  L 48,13  L 47,13  L 47,12  L 45,12  L 45,11  L 42,11  L 42,10  L 39,10  L 39,9  L 32,9  L 32,8  L 31,8  L 31,9  L 29,9  L 29,8  L 28,8  L 28,9  L 25,9  L 25,8  L 19,8  L 19,9  L 18,9  L 18,8  L 14,8  L 14,9  L 13,9  L 13,8  L 11,8  L 11,9  L 7,9  L 7,10  L 6,10  L 6,12  L 5,12  L 5,15  L 6,15  L 6,17  L 8,17  L 8,18  L 9,18  L 9,17  L 13,17  L 13,16  L 35,16  L 35,17  L 39,17  L 39,18  L 41,18  L 41,19  L 42,19  L 42,20  L 44,20  L 44,21  L 45,21  L 45,29  L 44,29  L 44,31  L 42,31  L 42,32  L 40,32  L 40,33  L 38,33  L 38,34  L 35,34  L 35,35  L 33,35  L 33,36  L 31,36  L 31,37  L 29,37  L 29,38  L 28,38  L 28,39  L 27,39  L 27,40  L 26,40  L 26,41  L 23,41  L 23,42  L 20,42  L 20,43  L 19,43  L 19,44  L 14,44  L 14,45  L 13,45  L 13,46  L 12,46  L 12,47  L 10,47  L 10,48  L 9,48  L 9,49  L 7,49  L 7,50  L 6,50  L 6,52  L 5,52  L 5,53  L 4,53  L 4,54  L 3,54  L 3,57  L 2,57  L 2,64  L 1,64  L 1,66  L 2,66  L 2,67  L 1,67  L 1,79  L 2,79  L 2,84  L 3,84  L 3,85  L 4,85  L 4,86  L 5,86  L 5,88  L 6,88  L 6,89  L 7,89  L 7,90  L 8,90  L 8,91  L 10,91  L 10,92  L 13,92  L 13,93  L 15,93  L 15,94  L 20,94  L 20,93  L 21,93  L 21,94  L 22,94  L 22,93  L 23,93  L 23,94  L 24,94  L 24,93  L 40,93  L 40,92  L 41,92  L 41,93  L 42,93  L 42,92  L 47,92  L 47,91  L 54,91  L 54,90  L 57,90  L 57,89  L 58,89  L 58,87  L 59,87  L 59,86  L 58,86  L 58,84  L 57,84  L 57,83  L 54,83  L 54,82  L 53,82  L 53,83  L 47,83  L 47,84  L 39,84  L 39,85  L 32,85  L 32,86  L 31,86  L 31,85  L 30,85  L 30,86  L 16,86  L 16,85  L 13,85  L 13,84  L 11,84  L 11,83  L 10,83  L 10,80  L 9,80  L 9,77  L 8,77  L 8,61  L 9,61  L 9,58  L 10,58  L 10,56  L 11,56  L 11,55  L 12,55  L 12,54  L 15,54  L 15,53  L 17,53  L 17,52  L 19,52  L 19,51  L 22,51  L 22,50  L 26,50  L 26,49  L 28,49  L 28,48  L 30,48  L 30,47  L 32,47  L 32,45  L 34,45  L 34,44  L 36,44  L 36,43  L 38,43  L 38,42  L 40,42  L 40,41  L 43,41  L 43,40  L 45,40  L 45,39  L 46,39  L 46,38  L 47,38  L 47,37  L 48,37  L 48,36  L 49,36  L 49,34  L 50,34  L 50,31  L 51,31  Z  " style="fill:rgb(0, 0, 0); fill-opacity:1.000; stroke:none;" />
 <path d="  M 87,172  L 87,171  L 88,171  L 88,170  L 89,170  L 89,169  L 91,169  L 91,168  L 92,168  L 92,167  L 93,167  L 93,166  L 94,166  L 94,165  L 95,165  L 95,161  L 96,161  L 96,155  L 97,155  L 97,147  L 98,147  L 98,140  L 99,140  L 99,132  L 98,132  L 98,131  L 99,131  L 99,130  L 98,130  L 98,129  L 99,129  L 99,128  L 98,128  L 98,127  L 99,127  L 99,126  L 98,126  L 98,112  L 96,112  L 96,111  L 91,111  L 91,112  L 90,112  L 90,114  L 91,114  L 91,136  L 61,136  L 61,137  L 60,137  L 60,136  L 59,136  L 59,137  L 58,137  L 58,136  L 57,136  L 57,137  L 56,137  L 56,136  L 55,136  L 55,137  L 54,137  L 54,136  L 53,136  L 53,137  L 52,137  L 52,136  L 51,136  L 51,137  L 48,137  L 48,136  L 44,136  L 44,106  L 43,106  L 43,105  L 40,105  L 40,106  L 39,106  L 39,108  L 38,108  L 38,110  L 37,110  L 37,136  L 38,136  L 38,145  L 39,145  L 39,153  L 40,153  L 40,156  L 39,156  L 39,157  L 40,157  L 40,164  L 41,164  L 41,168  L 42,168  L 42,170  L 43,170  L 43,171  L 44,171  L 44,172  L 45,172  L 45,173  L 47,173  L 47,174  L 49,174  L 49,175  L 53,175  L 53,176  L 75,176  L 75,175  L 80,175  L 80,174  L 83,174  L 83,173  L 85,173  L 85,172  Z  M 52,169  L 52,168  L 49,168  L 49,165  L 48,165  L 48,164  L 47,164  L 47,163  L 48,163  L 48,162  L 47,162  L 47,158  L 46,158  L 46,145  L 48,145  L 48,144  L 89,144  L 89,145  L 90,145  L 90,154  L 89,154  L 89,158  L 88,158  L 88,161  L 87,161  L 87,163  L 86,163  L 86,164  L 85,164  L 85,165  L 83,165  L 83,166  L 80,166  L 80,167  L 76,167  L 76,168  L 71,168  L 71,169  L 68,169  L 68,168  L 67,168  L 67,169  L 63,169  L 63,170  L 60,170  L 60,169  L 59,169  L 59,170  L 58,170  L 58,169  Z  " style="fill:rgb(0, 0, 0); fill-opacity:1.000; stroke:none;" />
 <path d="  M 96,0  L 95,0  L 95,1  L 94,1  L 94,4  L 93,4  L 93,5  L 94,5  L 94,9  L 95,9  L 95,15  L 96,15  L 96,33  L 95,33  L 95,34  L 94,34  L 94,35  L 91,35  L 91,36  L 87,36  L 87,37  L 85,37  L 85,38  L 81,38  L 81,39  L 80,39  L 80,38  L 79,38  L 79,39  L 73,39  L 73,40  L 72,40  L 72,39  L 71,39  L 71,40  L 64,40  L 64,39  L 57,39  L 57,40  L 56,40  L 56,41  L 55,41  L 55,45  L 56,45  L 56,47  L 58,47  L 58,48  L 68,48  L 68,47  L 75,47  L 75,46  L 80,46  L 80,45  L 85,45  L 85,44  L 88,44  L 88,43  L 91,43  L 91,42  L 96,42  L 96,43  L 97,43  L 97,44  L 96,44  L 96,47  L 97,47  L 97,49  L 96,49  L 96,102  L 97,102  L 97,103  L 99,103  L 99,104  L 103,104  L 103,103  L 104,103  L 104,102  L 103,102  L 103,69  L 104,69  L 104,68  L 103,68  L 103,67  L 104,67  L 104,18  L 103,18  L 103,4  L 102,4  L 102,3  L 100,3  L 100,2  L 99,2  L 99,1  L 96,1  Z  " style="fill:rgb(0, 0, 0); fill-opacity:1.000; stroke:none;" />
</svg>
