<?xml version="1.0" encoding="UTF-8" standalone="no"?>
<!DOCTYPE svg PUBLIC "-//W3C//DTD SVG 1.1//EN" 
  "http://www.w3.org/Graphics/SVG/1.1/DTD/svg11.dtd">
<svg width="98" height="190"
     xmlns="http://www.w3.org/2000/svg" version="1.1">
 <path d="  M 11,61  L 11,60  L 12,60  L 12,58  L 13,58  L 13,57  L 14,57  L 14,56  L 15,56  L 15,55  L 17,55  L 17,54  L 18,54  L 18,53  L 20,53  L 20,52  L 23,52  L 23,51  L 24,51  L 24,50  L 26,50  L 26,49  L 28,49  L 28,48  L 33,48  L 33,47  L 37,47  L 37,46  L 40,46  L 40,45  L 42,45  L 42,44  L 44,44  L 44,43  L 46,43  L 46,41  L 47,41  L 47,40  L 48,40  L 48,39  L 49,39  L 49,38  L 50,38  L 50,37  L 49,37  L 49,35  L 50,35  L 50,31  L 51,31  L 51,28  L 50,28  L 50,27  L 51,27  L 51,26  L 50,26  L 50,20  L 49,20  L 49,18  L 48,18  L 48,17  L 47,17  L 47,16  L 46,16  L 46,15  L 45,15  L 45,13  L 43,13  L 43,11  L 42,11  L 42,10  L 41,10  L 41,9  L 38,9  L 38,8  L 23,8  L 23,9  L 22,9  L 22,8  L 21,8  L 21,9  L 14,9  L 14,10  L 5,10  L 5,11  L 3,11  L 3,12  L 2,12  L 2,15  L 1,15  L 1,16  L 2,16  L 2,17  L 1,17  L 1,20  L 2,20  L 2,19  L 3,19  L 3,20  L 4,20  L 4,19  L 7,19  L 7,18  L 9,18  L 9,17  L 15,17  L 15,16  L 16,16  L 16,17  L 17,17  L 17,16  L 28,16  L 28,15  L 29,15  L 29,16  L 30,16  L 30,15  L 31,15  L 31,16  L 32,16  L 32,15  L 33,15  L 33,16  L 36,16  L 36,17  L 39,17  L 39,18  L 40,18  L 40,19  L 41,19  L 41,21  L 42,21  L 42,23  L 43,23  L 43,26  L 44,26  L 44,35  L 43,35  L 43,37  L 38,37  L 38,38  L 34,38  L 34,39  L 32,39  L 32,40  L 28,40  L 28,41  L 25,41  L 25,42  L 21,42  L 21,43  L 19,43  L 19,44  L 17,44  L 17,45  L 16,45  L 16,46  L 14,46  L 14,47  L 12,47  L 12,48  L 11,48  L 11,49  L 10,49  L 10,50  L 9,50  L 9,51  L 7,51  L 7,53  L 5,53  L 5,55  L 4,55  L 4,59  L 3,59  L 3,63  L 2,63  L 2,69  L 1,69  L 1,76  L 2,76  L 2,77  L 1,77  L 1,80  L 2,80  L 2,82  L 3,82  L 3,84  L 2,84  L 2,85  L 4,85  L 4,88  L 5,88  L 5,89  L 6,89  L 6,90  L 7,90  L 7,91  L 8,91  L 8,92  L 10,92  L 10,93  L 19,93  L 19,94  L 20,94  L 20,93  L 26,93  L 26,92  L 30,92  L 30,91  L 34,91  L 34,90  L 39,90  L 39,89  L 43,89  L 43,88  L 46,88  L 46,85  L 47,85  L 47,81  L 48,81  L 48,76  L 47,76  L 47,77  L 45,77  L 45,78  L 43,78  L 43,79  L 41,79  L 41,80  L 39,80  L 39,81  L 37,81  L 37,82  L 34,82  L 34,83  L 31,83  L 31,84  L 28,84  L 28,85  L 23,85  L 23,86  L 13,86  L 13,85  L 12,85  L 12,84  L 11,84  L 11,82  L 10,82  L 10,79  L 9,79  L 9,78  L 10,78  L 10,77  L 9,77  L 9,67  L 10,67  L 10,61  Z  " style="fill:rgb(0, 0, 0); fill-opacity:1.000; stroke:none;" />
 <path d="  M 63,116  L 63,114  L 62,114  L 62,112  L 61,112  L 61,110  L 60,110  L 60,108  L 59,108  L 59,105  L 58,105  L 58,104  L 56,104  L 56,103  L 55,103  L 55,101  L 54,101  L 54,100  L 53,100  L 53,99  L 52,99  L 52,98  L 51,98  L 51,97  L 49,97  L 49,96  L 47,96  L 47,97  L 45,97  L 45,101  L 46,101  L 46,102  L 47,102  L 47,103  L 48,103  L 48,104  L 49,104  L 49,107  L 50,107  L 50,110  L 51,110  L 51,112  L 52,112  L 52,114  L 53,114  L 53,116  L 54,116  L 54,118  L 55,118  L 55,120  L 56,120  L 56,121  L 57,121  L 57,123  L 59,123  L 59,124  L 60,124  L 60,125  L 57,125  L 57,126  L 54,126  L 54,127  L 51,127  L 51,128  L 45,128  L 45,129  L 39,129  L 39,130  L 36,130  L 36,131  L 34,131  L 34,132  L 33,132  L 33,134  L 34,134  L 34,135  L 39,135  L 39,136  L 41,136  L 41,135  L 46,135  L 46,134  L 48,134  L 48,135  L 50,135  L 50,134  L 57,134  L 57,133  L 58,133  L 58,134  L 59,134  L 59,133  L 63,133  L 63,132  L 68,132  L 68,131  L 69,131  L 69,132  L 70,132  L 70,131  L 74,131  L 74,130  L 96,130  L 96,129  L 97,129  L 97,128  L 98,128  L 98,127  L 97,127  L 97,126  L 98,126  L 98,125  L 97,125  L 97,124  L 96,124  L 96,123  L 95,123  L 95,122  L 88,122  L 88,121  L 87,121  L 87,122  L 75,122  L 75,123  L 73,123  L 73,124  L 68,124  L 68,125  L 67,125  L 67,124  L 66,124  L 66,123  L 65,123  L 65,120  L 64,120  L 64,116  Z  " style="fill:rgb(0, 0, 0); fill-opacity:1.000; stroke:none;" />
 <path d="  M 75,190  L 75,189  L 76,189  L 76,188  L 80,188  L 80,186  L 82,186  L 82,185  L 84,185  L 84,184  L 85,184  L 85,183  L 86,183  L 86,182  L 87,182  L 87,181  L 88,181  L 88,179  L 89,179  L 89,177  L 90,177  L 90,175  L 91,175  L 91,174  L 92,174  L 92,172  L 93,172  L 93,171  L 94,171  L 94,165  L 93,165  L 93,161  L 92,161  L 92,160  L 91,160  L 91,157  L 90,157  L 90,155  L 89,155  L 89,154  L 88,154  L 88,152  L 87,152  L 87,151  L 86,151  L 86,150  L 84,150  L 84,149  L 83,149  L 83,148  L 81,148  L 81,147  L 78,147  L 78,146  L 76,146  L 76,145  L 71,145  L 71,144  L 62,144  L 62,145  L 60,145  L 60,146  L 59,146  L 59,147  L 58,147  L 58,148  L 56,148  L 56,149  L 55,149  L 55,151  L 54,151  L 54,153  L 53,153  L 53,155  L 52,155  L 52,156  L 51,156  L 51,157  L 50,157  L 50,159  L 49,159  L 49,161  L 48,161  L 48,162  L 47,162  L 47,163  L 46,163  L 46,164  L 45,164  L 45,167  L 44,167  L 44,171  L 43,171  L 43,172  L 44,172  L 44,173  L 43,173  L 43,174  L 44,174  L 44,178  L 45,178  L 45,180  L 46,180  L 46,183  L 47,183  L 47,184  L 48,184  L 48,185  L 49,185  L 49,187  L 50,187  L 50,188  L 52,188  L 52,189  L 54,189  L 54,190  Z  M 53,180  L 53,179  L 52,179  L 52,176  L 51,176  L 51,168  L 52,168  L 52,166  L 53,166  L 53,165  L 54,165  L 54,163  L 55,163  L 55,162  L 56,162  L 56,161  L 57,161  L 57,159  L 58,159  L 58,158  L 60,158  L 60,157  L 61,157  L 61,156  L 62,156  L 62,155  L 64,155  L 64,154  L 69,154  L 69,153  L 70,153  L 70,154  L 71,154  L 71,153  L 72,153  L 72,154  L 77,154  L 77,155  L 79,155  L 79,156  L 81,156  L 81,157  L 82,157  L 82,158  L 83,158  L 83,160  L 84,160  L 84,161  L 85,161  L 85,162  L 86,162  L 86,170  L 85,170  L 85,173  L 84,173  L 84,175  L 83,175  L 83,176  L 82,176  L 82,177  L 81,177  L 81,178  L 80,178  L 80,179  L 78,179  L 78,180  L 77,180  L 77,181  L 75,181  L 75,182  L 73,182  L 73,183  L 67,183  L 67,184  L 64,184  L 64,183  L 63,183  L 63,184  L 61,184  L 61,183  L 57,183  L 57,182  L 55,182  L 55,181  L 54,181  L 54,180  Z  " style="fill:rgb(0, 0, 0); fill-opacity:1.000; stroke:none;" />
 <path d="  M 94,0  L 93,0  L 93,1  L 91,1  L 91,5  L 90,5  L 90,8  L 91,8  L 91,10  L 90,10  L 90,37  L 83,37  L 83,38  L 75,38  L 75,39  L 66,39  L 66,40  L 57,40  L 57,41  L 54,41  L 54,43  L 53,43  L 53,46  L 54,46  L 54,47  L 57,47  L 57,48  L 64,48  L 64,47  L 69,47  L 69,46  L 74,46  L 74,45  L 87,45  L 87,44  L 90,44  L 90,45  L 91,45  L 91,49  L 90,49  L 90,50  L 91,50  L 91,61  L 90,61  L 90,62  L 91,62  L 91,65  L 90,65  L 90,66  L 91,66  L 91,68  L 90,68  L 90,71  L 91,71  L 91,72  L 90,72  L 90,75  L 91,75  L 91,76  L 90,76  L 90,95  L 89,95  L 89,100  L 90,100  L 90,101  L 91,101  L 91,103  L 96,103  L 96,102  L 97,102  L 97,98  L 98,98  L 98,97  L 97,97  L 97,94  L 98,94  L 98,93  L 97,93  L 97,90  L 98,90  L 98,89  L 97,89  L 97,86  L 98,86  L 98,85  L 97,85  L 97,82  L 98,82  L 98,81  L 97,81  L 97,78  L 98,78  L 98,76  L 97,76  L 97,75  L 98,75  L 98,1  L 96,1  L 96,0  L 95,0  L 95,1  L 94,1  Z  " style="fill:rgb(0, 0, 0); fill-opacity:1.000; stroke:none;" />
 <path d="  M 62,109  L 61,109  L 61,110  L 62,110  Z  " style="fill:rgb(0, 0, 0); fill-opacity:1.000; stroke:none;" />
</svg>
