<?xml version="1.0" encoding="UTF-8" standalone="no"?>
<!DOCTYPE svg PUBLIC "-//W3C//DTD SVG 1.1//EN" 
  "http://www.w3.org/Graphics/SVG/1.1/DTD/svg11.dtd">
<svg width="104" height="154"
     xmlns="http://www.w3.org/2000/svg" version="1.1">
 <path d="  M 16,15  L 16,14  L 19,14  L 19,15  L 20,15  L 20,14  L 21,14  L 21,15  L 27,15  L 27,16  L 30,16  L 30,17  L 32,17  L 32,18  L 33,18  L 33,19  L 34,19  L 34,20  L 36,20  L 36,21  L 37,21  L 37,22  L 38,22  L 38,24  L 39,24  L 39,25  L 38,25  L 38,26  L 39,26  L 39,28  L 38,28  L 38,29  L 37,29  L 37,30  L 36,30  L 36,31  L 34,31  L 34,32  L 32,32  L 32,33  L 31,33  L 31,34  L 29,34  L 29,35  L 28,35  L 28,36  L 26,36  L 26,37  L 24,37  L 24,38  L 22,38  L 22,39  L 18,39  L 18,40  L 15,40  L 15,41  L 14,41  L 14,42  L 12,42  L 12,43  L 10,43  L 10,44  L 9,44  L 9,45  L 7,45  L 7,46  L 6,46  L 6,47  L 5,47  L 5,48  L 4,48  L 4,50  L 3,50  L 3,51  L 2,51  L 2,52  L 1,52  L 1,59  L 0,59  L 0,60  L 1,60  L 1,61  L 0,61  L 0,62  L 1,62  L 1,63  L 0,63  L 0,64  L 1,64  L 1,65  L 0,65  L 0,66  L 1,66  L 1,67  L 0,67  L 0,68  L 1,68  L 1,73  L 2,73  L 2,75  L 4,75  L 4,76  L 5,76  L 5,77  L 6,77  L 6,78  L 9,78  L 9,79  L 12,79  L 12,80  L 14,80  L 14,79  L 15,79  L 15,80  L 18,80  L 18,81  L 19,81  L 19,80  L 27,80  L 27,79  L 32,79  L 32,78  L 43,78  L 43,77  L 48,77  L 48,76  L 49,76  L 49,75  L 50,75  L 50,73  L 51,73  L 51,72  L 50,72  L 50,71  L 49,71  L 49,70  L 43,70  L 43,71  L 37,71  L 37,72  L 26,72  L 26,73  L 14,73  L 14,72  L 11,72  L 11,71  L 10,71  L 10,70  L 8,70  L 8,64  L 7,64  L 7,58  L 8,58  L 8,56  L 9,56  L 9,55  L 10,55  L 10,53  L 11,53  L 11,52  L 13,52  L 13,51  L 14,51  L 14,50  L 15,50  L 15,49  L 16,49  L 16,48  L 19,48  L 19,47  L 21,47  L 21,46  L 23,46  L 23,45  L 27,45  L 27,44  L 29,44  L 29,43  L 31,43  L 31,42  L 32,42  L 32,41  L 34,41  L 34,40  L 36,40  L 36,39  L 37,39  L 37,38  L 38,38  L 38,37  L 40,37  L 40,36  L 41,36  L 41,35  L 42,35  L 42,34  L 43,34  L 43,33  L 44,33  L 44,32  L 45,32  L 45,28  L 46,28  L 46,23  L 45,23  L 45,20  L 44,20  L 44,19  L 43,19  L 43,17  L 42,17  L 42,15  L 41,15  L 41,14  L 40,14  L 40,13  L 38,13  L 38,12  L 36,12  L 36,11  L 33,11  L 33,10  L 29,10  L 29,9  L 24,9  L 24,8  L 23,8  L 23,9  L 22,9  L 22,8  L 9,8  L 9,9  L 8,9  L 8,10  L 7,10  L 7,13  L 8,13  L 8,14  L 9,14  L 9,15  Z  " style="fill:rgb(0, 0, 0); fill-opacity:1.000; stroke:none;" />
 <path d="  M 103,151  L 104,151  L 104,146  L 103,146  L 103,145  L 101,145  L 101,144  L 100,144  L 100,143  L 97,143  L 97,142  L 94,142  L 94,141  L 92,141  L 92,140  L 90,140  L 90,139  L 89,139  L 89,138  L 87,138  L 87,137  L 86,137  L 86,136  L 84,136  L 84,135  L 82,135  L 82,134  L 80,134  L 80,133  L 79,133  L 79,132  L 78,132  L 78,131  L 77,131  L 77,130  L 75,130  L 75,129  L 74,129  L 74,128  L 72,128  L 72,127  L 70,127  L 70,126  L 68,126  L 68,125  L 67,125  L 67,124  L 65,124  L 65,123  L 64,123  L 64,122  L 62,122  L 62,121  L 61,121  L 61,120  L 60,120  L 60,119  L 58,119  L 58,118  L 57,118  L 57,115  L 58,115  L 58,113  L 59,113  L 59,112  L 60,112  L 60,111  L 62,111  L 62,110  L 61,110  L 61,109  L 63,109  L 63,108  L 64,108  L 64,107  L 66,107  L 66,104  L 67,104  L 67,102  L 66,102  L 66,101  L 65,101  L 65,100  L 57,100  L 57,102  L 56,102  L 56,104  L 55,104  L 55,106  L 54,106  L 54,107  L 53,107  L 53,108  L 52,108  L 52,109  L 51,109  L 51,110  L 50,110  L 50,111  L 49,111  L 49,113  L 48,113  L 48,114  L 47,114  L 47,115  L 46,115  L 46,117  L 45,117  L 45,118  L 44,118  L 44,119  L 43,119  L 43,120  L 42,120  L 42,122  L 41,122  L 41,123  L 40,123  L 40,125  L 39,125  L 39,126  L 38,126  L 38,127  L 37,127  L 37,128  L 36,128  L 36,129  L 35,129  L 35,130  L 34,130  L 34,131  L 33,131  L 33,132  L 32,132  L 32,134  L 31,134  L 31,135  L 30,135  L 30,136  L 29,136  L 29,138  L 27,138  L 27,139  L 26,139  L 26,140  L 25,140  L 25,141  L 24,141  L 24,142  L 23,142  L 23,143  L 21,143  L 21,144  L 20,144  L 20,145  L 19,145  L 19,146  L 18,146  L 18,148  L 17,148  L 17,152  L 18,152  L 18,153  L 19,153  L 19,154  L 23,154  L 23,153  L 24,153  L 24,152  L 25,152  L 25,150  L 26,150  L 26,149  L 27,149  L 27,148  L 29,148  L 29,147  L 30,147  L 30,146  L 31,146  L 31,145  L 32,145  L 32,144  L 33,144  L 33,143  L 34,143  L 34,142  L 35,142  L 35,141  L 36,141  L 36,140  L 37,140  L 37,139  L 38,139  L 38,138  L 39,138  L 39,137  L 40,137  L 40,135  L 42,135  L 42,133  L 43,133  L 43,132  L 44,132  L 44,130  L 45,130  L 45,129  L 46,129  L 46,128  L 47,128  L 47,127  L 48,127  L 48,125  L 49,125  L 49,124  L 51,124  L 51,123  L 53,123  L 53,124  L 54,124  L 54,125  L 55,125  L 55,126  L 57,126  L 57,127  L 58,127  L 58,128  L 60,128  L 60,129  L 61,129  L 61,130  L 63,130  L 63,131  L 64,131  L 64,132  L 66,132  L 66,133  L 68,133  L 68,134  L 69,134  L 69,135  L 71,135  L 71,136  L 72,136  L 72,137  L 73,137  L 73,138  L 75,138  L 75,139  L 76,139  L 76,140  L 78,140  L 78,141  L 79,141  L 79,142  L 81,142  L 81,143  L 83,143  L 83,144  L 85,144  L 85,145  L 86,145  L 86,146  L 87,146  L 87,147  L 88,147  L 88,148  L 89,148  L 89,147  L 90,147  L 90,148  L 92,148  L 92,149  L 94,149  L 94,150  L 95,150  L 95,151  L 96,151  L 96,152  L 103,152  Z  " style="fill:rgb(0, 0, 0); fill-opacity:1.000; stroke:none;" />
 <path d="  M 92,77  L 93,77  L 93,93  L 94,93  L 94,95  L 97,95  L 97,94  L 98,94  L 98,93  L 99,93  L 99,91  L 100,91  L 100,80  L 99,80  L 99,66  L 98,66  L 98,65  L 99,65  L 99,64  L 98,64  L 98,63  L 99,63  L 99,62  L 98,62  L 98,61  L 99,61  L 99,60  L 98,60  L 98,40  L 97,40  L 97,39  L 98,39  L 98,38  L 97,38  L 97,32  L 96,32  L 96,27  L 95,27  L 95,23  L 94,23  L 94,20  L 93,20  L 93,12  L 92,12  L 92,3  L 91,3  L 91,2  L 90,2  L 90,1  L 89,1  L 89,0  L 88,0  L 88,1  L 87,1  L 87,2  L 86,2  L 86,6  L 85,6  L 85,7  L 86,7  L 86,8  L 85,8  L 85,9  L 86,9  L 86,15  L 87,15  L 87,21  L 88,21  L 88,24  L 87,24  L 87,25  L 86,25  L 86,26  L 85,26  L 85,25  L 84,25  L 84,26  L 79,26  L 79,27  L 75,27  L 75,28  L 67,28  L 67,29  L 64,29  L 64,28  L 63,28  L 63,29  L 61,29  L 61,30  L 58,30  L 58,29  L 57,29  L 57,30  L 55,30  L 55,31  L 54,31  L 54,33  L 53,33  L 53,35  L 54,35  L 54,37  L 55,37  L 55,39  L 58,39  L 58,38  L 60,38  L 60,37  L 62,37  L 62,36  L 65,36  L 65,35  L 72,35  L 72,34  L 74,34  L 74,35  L 75,35  L 75,34  L 78,34  L 78,33  L 86,33  L 86,32  L 90,32  L 90,33  L 91,33  L 91,40  L 88,40  L 88,41  L 83,41  L 83,42  L 78,42  L 78,43  L 73,43  L 73,44  L 64,44  L 64,45  L 61,45  L 61,44  L 54,44  L 54,46  L 53,46  L 53,47  L 54,47  L 54,49  L 55,49  L 55,52  L 56,52  L 56,53  L 61,53  L 61,52  L 65,52  L 65,51  L 68,51  L 68,50  L 79,50  L 79,49  L 83,49  L 83,48  L 87,48  L 87,47  L 88,47  L 88,48  L 91,48  L 91,59  L 92,59  L 92,60  L 91,60  L 91,63  L 92,63  Z  " style="fill:rgb(0, 0, 0); fill-opacity:1.000; stroke:none;" />
</svg>
