<?xml version="1.0" encoding="UTF-8" standalone="no"?>
<!DOCTYPE svg PUBLIC "-//W3C//DTD SVG 1.1//EN" 
  "http://www.w3.org/Graphics/SVG/1.1/DTD/svg11.dtd">
<svg width="106" height="140"
     xmlns="http://www.w3.org/2000/svg" version="1.1">
 <path d="  M 43,68  L 44,68  L 44,69  L 45,69  L 45,68  L 46,68  L 46,69  L 47,69  L 47,68  L 52,68  L 52,67  L 53,67  L 53,66  L 54,66  L 54,65  L 55,65  L 55,62  L 54,62  L 54,61  L 53,61  L 53,60  L 47,60  L 47,59  L 46,59  L 46,60  L 43,60  L 43,61  L 40,61  L 40,62  L 38,62  L 38,63  L 36,63  L 36,64  L 31,64  L 31,65  L 27,65  L 27,66  L 14,66  L 14,65  L 11,65  L 11,64  L 10,64  L 10,65  L 9,65  L 9,64  L 8,64  L 8,63  L 9,63  L 9,62  L 8,62  L 8,54  L 7,54  L 7,53  L 8,53  L 8,48  L 9,48  L 9,45  L 10,45  L 10,43  L 11,43  L 11,42  L 13,42  L 13,41  L 16,41  L 16,40  L 18,40  L 18,39  L 22,39  L 22,38  L 26,38  L 26,37  L 31,37  L 31,36  L 32,36  L 32,37  L 37,37  L 37,36  L 39,36  L 39,32  L 38,32  L 38,31  L 43,31  L 43,30  L 44,30  L 44,29  L 45,29  L 45,28  L 46,28  L 46,25  L 47,25  L 47,15  L 48,15  L 48,12  L 49,12  L 49,7  L 48,7  L 48,6  L 47,6  L 47,5  L 44,5  L 44,4  L 41,4  L 41,3  L 31,3  L 31,2  L 22,2  L 22,1  L 13,1  L 13,2  L 12,2  L 12,1  L 10,1  L 10,2  L 8,2  L 8,3  L 7,3  L 7,6  L 6,6  L 6,7  L 7,7  L 7,8  L 6,8  L 6,9  L 9,9  L 9,10  L 11,10  L 11,9  L 17,9  L 17,8  L 24,8  L 24,9  L 34,9  L 34,10  L 40,10  L 40,11  L 41,11  L 41,13  L 42,13  L 42,15  L 41,15  L 41,19  L 40,19  L 40,24  L 39,24  L 39,26  L 38,26  L 38,28  L 32,28  L 32,29  L 27,29  L 27,30  L 22,30  L 22,31  L 20,31  L 20,32  L 15,32  L 15,33  L 11,33  L 11,34  L 7,34  L 7,35  L 5,35  L 5,36  L 4,36  L 4,37  L 3,37  L 3,39  L 2,39  L 2,46  L 1,46  L 1,68  L 2,68  L 2,69  L 5,69  L 5,70  L 6,70  L 6,72  L 8,72  L 8,73  L 27,73  L 27,72  L 28,72  L 28,73  L 29,73  L 29,72  L 33,72  L 33,71  L 37,71  L 37,70  L 40,70  L 40,69  L 43,69  Z  M 39,29  L 39,30  L 38,30  L 38,29  Z  " style="fill:rgb(0, 0, 0); fill-opacity:1.000; stroke:none;" />
 <path d="  M 35,111  L 34,111  L 34,110  L 35,110  L 35,108  L 34,108  L 34,107  L 35,107  L 35,100  L 34,100  L 34,99  L 35,99  L 35,92  L 33,92  L 33,91  L 30,91  L 30,92  L 27,92  L 27,121  L 28,121  L 28,123  L 27,123  L 27,124  L 28,124  L 28,128  L 29,128  L 29,132  L 30,132  L 30,133  L 29,133  L 29,134  L 30,134  L 30,135  L 31,135  L 31,137  L 33,137  L 33,138  L 35,138  L 35,139  L 37,139  L 37,140  L 61,140  L 61,139  L 62,139  L 62,140  L 63,140  L 63,139  L 64,139  L 64,140  L 65,140  L 65,139  L 73,139  L 73,138  L 74,138  L 74,139  L 75,139  L 75,138  L 85,138  L 85,137  L 86,137  L 86,138  L 87,138  L 87,137  L 101,137  L 101,136  L 103,136  L 103,137  L 104,137  L 104,136  L 105,136  L 105,135  L 106,135  L 106,129  L 105,129  L 105,128  L 102,128  L 102,129  L 98,129  L 98,130  L 87,130  L 87,131  L 84,131  L 84,130  L 83,130  L 83,131  L 67,131  L 67,132  L 48,132  L 48,133  L 45,133  L 45,132  L 42,132  L 42,133  L 38,133  L 38,132  L 37,132  L 37,130  L 36,130  L 36,124  L 35,124  Z  " style="fill:rgb(0, 0, 0); fill-opacity:1.000; stroke:none;" />
 <path d="  M 79,4  L 79,3  L 75,3  L 75,4  L 73,4  L 73,7  L 72,7  L 72,20  L 71,20  L 71,21  L 70,21  L 70,22  L 69,22  L 69,21  L 68,21  L 68,22  L 64,22  L 64,23  L 59,23  L 59,24  L 54,24  L 54,25  L 50,25  L 50,26  L 49,26  L 49,28  L 47,28  L 47,29  L 49,29  L 49,31  L 53,31  L 53,30  L 56,30  L 56,29  L 64,29  L 64,28  L 70,28  L 70,27  L 71,27  L 71,29  L 72,29  L 72,32  L 71,32  L 71,38  L 70,38  L 70,39  L 64,39  L 64,40  L 63,40  L 63,39  L 62,39  L 62,40  L 55,40  L 55,41  L 47,41  L 47,42  L 46,42  L 46,44  L 47,44  L 47,45  L 48,45  L 48,46  L 50,46  L 50,47  L 59,47  L 59,46  L 70,46  L 70,47  L 71,47  L 71,50  L 70,50  L 70,52  L 71,52  L 71,54  L 70,54  L 70,55  L 71,55  L 71,58  L 70,58  L 70,60  L 71,60  L 71,62  L 70,62  L 70,63  L 71,63  L 71,66  L 70,66  L 70,67  L 71,67  L 71,70  L 70,70  L 70,71  L 71,71  L 71,72  L 70,72  L 70,73  L 71,73  L 71,77  L 72,77  L 72,78  L 74,78  L 74,77  L 77,77  L 77,74  L 78,74  L 78,25  L 79,25  L 79,24  L 78,24  L 78,22  L 79,22  L 79,20  L 78,20  L 78,19  L 79,19  L 79,5  L 80,5  L 80,4  Z  " style="fill:rgb(0, 0, 0); fill-opacity:1.000; stroke:none;" />
 <path d="  M 87,7  L 88,7  L 88,10  L 87,10  L 87,12  L 88,12  L 88,79  L 89,79  L 89,80  L 90,80  L 90,81  L 91,81  L 91,80  L 94,80  L 94,79  L 95,79  L 95,24  L 94,24  L 94,23  L 95,23  L 95,20  L 94,20  L 94,19  L 95,19  L 95,18  L 94,18  L 94,17  L 95,17  L 95,16  L 94,16  L 94,10  L 93,10  L 93,8  L 92,8  L 92,6  L 91,6  L 91,5  L 90,5  L 90,4  L 89,4  L 89,5  L 88,5  L 88,6  L 87,6  Z  " style="fill:rgb(0, 0, 0); fill-opacity:1.000; stroke:none;" />
</svg>
