<?xml version="1.0" encoding="UTF-8" standalone="no"?>
<!DOCTYPE svg PUBLIC "-//W3C//DTD SVG 1.1//EN" 
  "http://www.w3.org/Graphics/SVG/1.1/DTD/svg11.dtd">
<svg width="104" height="139"
     xmlns="http://www.w3.org/2000/svg" version="1.1">
 <path d="  M 11,61  L 11,60  L 10,60  L 10,61  L 9,61  L 9,58  L 8,58  L 8,47  L 9,47  L 9,45  L 10,45  L 10,44  L 11,44  L 11,42  L 13,42  L 13,41  L 16,41  L 16,40  L 17,40  L 17,39  L 18,39  L 18,38  L 21,38  L 21,37  L 25,37  L 25,36  L 33,36  L 33,35  L 34,35  L 34,36  L 40,36  L 40,35  L 41,35  L 41,33  L 42,33  L 42,32  L 45,32  L 45,31  L 46,31  L 46,30  L 47,30  L 47,29  L 48,29  L 48,28  L 47,28  L 47,26  L 48,26  L 48,18  L 49,18  L 49,17  L 48,17  L 48,16  L 49,16  L 49,11  L 50,11  L 50,10  L 49,10  L 49,9  L 50,9  L 50,6  L 49,6  L 49,3  L 48,3  L 48,2  L 44,2  L 44,3  L 43,3  L 43,2  L 25,2  L 25,1  L 24,1  L 24,2  L 23,2  L 23,1  L 10,1  L 10,4  L 9,4  L 9,6  L 10,6  L 10,7  L 11,7  L 11,8  L 12,8  L 12,9  L 14,9  L 14,8  L 16,8  L 16,9  L 18,9  L 18,8  L 25,8  L 25,9  L 33,9  L 33,10  L 40,10  L 40,11  L 41,11  L 41,16  L 40,16  L 40,17  L 41,17  L 41,18  L 40,18  L 40,27  L 39,27  L 39,28  L 30,28  L 30,29  L 29,29  L 29,28  L 28,28  L 28,29  L 23,29  L 23,30  L 17,30  L 17,31  L 16,31  L 16,32  L 13,32  L 13,33  L 10,33  L 10,34  L 8,34  L 8,35  L 7,35  L 7,36  L 6,36  L 6,37  L 5,37  L 5,38  L 4,38  L 4,41  L 2,41  L 2,47  L 1,47  L 1,58  L 2,58  L 2,59  L 1,59  L 1,60  L 2,60  L 2,61  L 1,61  L 1,62  L 2,62  L 2,63  L 3,63  L 3,65  L 5,65  L 5,66  L 6,66  L 6,67  L 9,67  L 9,68  L 11,68  L 11,69  L 27,69  L 27,68  L 28,68  L 28,69  L 29,69  L 29,68  L 33,68  L 33,67  L 38,67  L 38,66  L 43,66  L 43,65  L 49,65  L 49,64  L 50,64  L 50,63  L 51,63  L 51,62  L 52,62  L 52,60  L 53,60  L 53,57  L 52,57  L 52,56  L 51,56  L 51,55  L 50,55  L 50,56  L 47,56  L 47,57  L 44,57  L 44,58  L 42,58  L 42,59  L 40,59  L 40,60  L 36,60  L 36,61  L 29,61  L 29,62  L 13,62  L 13,61  Z  " style="fill:rgb(0, 0, 0); fill-opacity:1.000; stroke:none;" />
 <path d="  M 21,139  L 27,139  L 27,138  L 28,138  L 28,137  L 29,137  L 29,136  L 30,136  L 30,135  L 32,135  L 32,133  L 33,133  L 33,132  L 34,132  L 34,130  L 35,130  L 35,129  L 36,129  L 36,128  L 37,128  L 37,127  L 38,127  L 38,125  L 39,125  L 39,124  L 40,124  L 40,122  L 41,122  L 41,121  L 42,121  L 42,119  L 43,119  L 43,118  L 44,118  L 44,116  L 45,116  L 45,115  L 46,115  L 46,114  L 47,114  L 47,113  L 48,113  L 48,111  L 49,111  L 49,110  L 50,110  L 50,109  L 51,109  L 51,108  L 53,108  L 53,109  L 54,109  L 54,110  L 55,110  L 55,111  L 57,111  L 57,112  L 58,112  L 58,113  L 60,113  L 60,114  L 61,114  L 61,115  L 62,115  L 62,116  L 63,116  L 63,117  L 65,117  L 65,119  L 66,119  L 66,120  L 68,120  L 68,121  L 69,121  L 69,122  L 71,122  L 71,123  L 72,123  L 72,124  L 73,124  L 73,125  L 75,125  L 75,126  L 76,126  L 76,127  L 78,127  L 78,128  L 79,128  L 79,129  L 81,129  L 81,130  L 82,130  L 82,131  L 83,131  L 83,132  L 85,132  L 85,133  L 87,133  L 87,134  L 88,134  L 88,135  L 90,135  L 90,136  L 93,136  L 93,137  L 96,137  L 96,138  L 103,138  L 103,137  L 104,137  L 104,133  L 103,133  L 103,132  L 100,132  L 100,131  L 97,131  L 97,130  L 95,130  L 95,129  L 93,129  L 93,128  L 90,128  L 90,127  L 89,127  L 89,126  L 88,126  L 88,125  L 86,125  L 86,124  L 84,124  L 84,123  L 83,123  L 83,122  L 81,122  L 81,120  L 79,120  L 79,119  L 78,119  L 78,118  L 77,118  L 77,117  L 75,117  L 75,116  L 73,116  L 73,114  L 72,114  L 72,113  L 70,113  L 70,112  L 69,112  L 69,111  L 68,111  L 68,110  L 66,110  L 66,109  L 65,109  L 65,108  L 63,108  L 63,107  L 62,107  L 62,106  L 61,106  L 61,105  L 60,105  L 60,104  L 59,104  L 59,103  L 58,103  L 58,102  L 59,102  L 59,100  L 60,100  L 60,99  L 62,99  L 62,98  L 63,98  L 63,97  L 65,97  L 65,96  L 67,96  L 67,95  L 69,95  L 69,94  L 70,94  L 70,92  L 69,92  L 69,90  L 68,90  L 68,89  L 67,89  L 67,87  L 66,87  L 66,86  L 63,86  L 63,85  L 61,85  L 61,86  L 60,86  L 60,87  L 59,87  L 59,88  L 60,88  L 60,91  L 59,91  L 59,92  L 58,92  L 58,93  L 56,93  L 56,94  L 55,94  L 55,95  L 54,95  L 54,96  L 52,96  L 52,97  L 50,97  L 50,98  L 49,98  L 49,100  L 47,100  L 47,102  L 46,102  L 46,103  L 45,103  L 45,104  L 44,104  L 44,106  L 43,106  L 43,107  L 42,107  L 42,108  L 41,108  L 41,109  L 40,109  L 40,110  L 39,110  L 39,112  L 38,112  L 38,113  L 37,113  L 37,115  L 36,115  L 36,116  L 35,116  L 35,118  L 34,118  L 34,120  L 33,120  L 33,121  L 32,121  L 32,122  L 31,122  L 31,124  L 30,124  L 30,125  L 29,125  L 29,126  L 28,126  L 28,127  L 27,127  L 27,128  L 26,128  L 26,129  L 25,129  L 25,131  L 24,131  L 24,132  L 22,132  L 22,133  L 21,133  L 21,135  L 20,135  L 20,137  L 21,137  Z  " style="fill:rgb(0, 0, 0); fill-opacity:1.000; stroke:none;" />
 <path d="  M 74,50  L 74,51  L 75,51  L 75,54  L 74,54  L 74,57  L 75,57  L 75,58  L 74,58  L 74,70  L 75,70  L 75,71  L 76,71  L 76,72  L 78,72  L 78,71  L 81,71  L 81,69  L 82,69  L 82,37  L 83,37  L 83,36  L 82,36  L 82,33  L 83,33  L 83,32  L 82,32  L 82,29  L 83,29  L 83,28  L 82,28  L 82,25  L 83,25  L 83,24  L 82,24  L 82,21  L 83,21  L 83,20  L 82,20  L 82,19  L 83,19  L 83,18  L 82,18  L 82,17  L 83,17  L 83,16  L 82,16  L 82,1  L 79,1  L 79,0  L 78,0  L 78,1  L 77,1  L 77,2  L 76,2  L 76,4  L 75,4  L 75,5  L 76,5  L 76,18  L 74,18  L 74,19  L 69,19  L 69,20  L 68,20  L 68,19  L 67,19  L 67,20  L 55,20  L 55,21  L 54,21  L 54,20  L 53,20  L 53,21  L 52,21  L 52,22  L 51,22  L 51,24  L 50,24  L 50,26  L 52,26  L 52,27  L 55,27  L 55,26  L 65,26  L 65,25  L 76,25  L 76,27  L 77,27  L 77,28  L 76,28  L 76,29  L 77,29  L 77,31  L 76,31  L 76,33  L 72,33  L 72,34  L 64,34  L 64,35  L 57,35  L 57,36  L 52,36  L 52,37  L 48,37  L 48,38  L 46,38  L 46,39  L 45,39  L 45,41  L 46,41  L 46,42  L 47,42  L 47,43  L 50,43  L 50,44  L 51,44  L 51,43  L 52,43  L 52,44  L 53,44  L 53,43  L 59,43  L 59,42  L 67,42  L 67,41  L 75,41  L 75,46  L 74,46  L 74,48  L 75,48  L 75,50  Z  " style="fill:rgb(0, 0, 0); fill-opacity:1.000; stroke:none;" />
 <path d="  M 103,57  L 103,56  L 102,56  L 102,20  L 101,20  L 101,19  L 102,19  L 102,16  L 101,16  L 101,15  L 102,15  L 102,14  L 101,14  L 101,3  L 99,3  L 99,2  L 97,2  L 97,3  L 96,3  L 96,4  L 95,4  L 95,5  L 94,5  L 94,13  L 95,13  L 95,14  L 94,14  L 94,15  L 95,15  L 95,16  L 94,16  L 94,17  L 95,17  L 95,18  L 94,18  L 94,19  L 95,19  L 95,53  L 96,53  L 96,56  L 95,56  L 95,57  L 96,57  L 96,81  L 97,81  L 97,82  L 101,82  L 101,81  L 103,81  L 103,72  L 102,72  L 102,71  L 103,71  L 103,68  L 102,68  L 102,67  L 103,67  L 103,64  L 102,64  L 102,62  L 103,62  L 103,60  L 102,60  L 102,57  Z  " style="fill:rgb(0, 0, 0); fill-opacity:1.000; stroke:none;" />
</svg>
