<?xml version="1.0" encoding="UTF-8" standalone="no"?>
<!DOCTYPE svg PUBLIC "-//W3C//DTD SVG 1.1//EN" 
  "http://www.w3.org/Graphics/SVG/1.1/DTD/svg11.dtd">
<svg width="94" height="179"
     xmlns="http://www.w3.org/2000/svg" version="1.1">
 <path d="  M 42,82  L 42,83  L 40,83  L 40,82  L 33,82  L 33,83  L 26,83  L 26,84  L 19,84  L 19,85  L 16,85  L 16,86  L 11,86  L 11,87  L 6,87  L 6,88  L 3,88  L 3,89  L 1,89  L 1,91  L 0,91  L 0,92  L 1,92  L 1,93  L 2,93  L 2,94  L 3,94  L 3,95  L 6,95  L 6,94  L 11,94  L 11,93  L 19,93  L 19,92  L 24,92  L 24,91  L 32,91  L 32,90  L 47,90  L 47,89  L 50,89  L 50,90  L 55,90  L 55,89  L 76,89  L 76,88  L 77,88  L 77,89  L 79,89  L 79,88  L 82,88  L 82,89  L 83,89  L 83,88  L 91,88  L 91,87  L 93,87  L 93,86  L 94,86  L 94,81  L 93,81  L 93,80  L 87,80  L 87,81  L 78,81  L 78,82  L 61,82  L 61,83  L 56,83  L 56,82  L 54,82  L 54,83  L 51,83  L 51,60  L 52,60  L 52,58  L 53,58  L 53,57  L 55,57  L 55,56  L 58,56  L 58,55  L 62,55  L 62,54  L 63,54  L 63,53  L 64,53  L 64,52  L 66,52  L 66,51  L 68,51  L 68,49  L 69,49  L 69,48  L 67,48  L 67,47  L 65,47  L 65,48  L 62,48  L 62,47  L 52,47  L 52,48  L 45,48  L 45,49  L 43,49  L 43,50  L 40,50  L 40,51  L 36,51  L 36,52  L 33,52  L 33,51  L 32,51  L 32,52  L 30,52  L 30,50  L 28,50  L 28,49  L 27,49  L 27,48  L 26,48  L 26,41  L 25,41  L 25,37  L 26,37  L 26,36  L 27,36  L 27,35  L 29,35  L 29,34  L 34,34  L 34,33  L 40,33  L 40,32  L 41,32  L 41,33  L 42,33  L 42,32  L 46,32  L 46,31  L 48,31  L 48,32  L 49,32  L 49,31  L 54,31  L 54,30  L 55,30  L 55,31  L 56,31  L 56,30  L 57,30  L 57,31  L 58,31  L 58,30  L 59,30  L 59,29  L 62,29  L 62,28  L 65,28  L 65,27  L 66,27  L 66,26  L 67,26  L 67,24  L 68,24  L 68,23  L 67,23  L 67,22  L 68,22  L 68,21  L 67,21  L 67,18  L 66,18  L 66,16  L 65,16  L 65,15  L 64,15  L 64,14  L 63,14  L 63,13  L 62,13  L 62,12  L 59,12  L 59,11  L 57,11  L 57,10  L 54,10  L 54,9  L 53,9  L 53,8  L 51,8  L 51,7  L 48,7  L 48,6  L 46,6  L 46,5  L 44,5  L 44,4  L 42,4  L 42,3  L 37,3  L 37,2  L 34,2  L 34,1  L 33,1  L 33,2  L 32,2  L 32,1  L 21,1  L 21,2  L 18,2  L 18,3  L 17,3  L 17,5  L 18,5  L 18,8  L 19,8  L 19,7  L 20,7  L 20,8  L 37,8  L 37,9  L 40,9  L 40,10  L 41,10  L 41,11  L 42,11  L 42,12  L 43,12  L 43,13  L 44,13  L 44,14  L 45,14  L 45,15  L 46,15  L 46,16  L 47,16  L 47,19  L 46,19  L 46,22  L 45,22  L 45,21  L 44,21  L 44,23  L 42,23  L 42,24  L 41,24  L 41,23  L 40,23  L 40,22  L 39,22  L 39,23  L 38,23  L 38,22  L 36,22  L 36,23  L 35,23  L 35,24  L 31,24  L 31,25  L 29,25  L 29,26  L 28,26  L 28,27  L 25,27  L 25,26  L 22,26  L 22,27  L 21,27  L 21,29  L 20,29  L 20,39  L 19,39  L 19,42  L 20,42  L 20,43  L 19,43  L 19,54  L 20,54  L 20,56  L 21,56  L 21,58  L 22,58  L 22,60  L 24,60  L 24,61  L 27,61  L 27,62  L 31,62  L 31,61  L 35,61  L 35,60  L 39,60  L 39,58  L 43,58  L 43,61  L 44,61  L 44,64  L 43,64  L 43,65  L 44,65  L 44,66  L 43,66  L 43,69  L 44,69  L 44,71  L 43,71  L 43,73  L 44,73  L 44,74  L 43,74  L 43,82  Z  " style="fill:rgb(0, 0, 0); fill-opacity:1.000; stroke:none;" />
 <path d="  M 57,172  L 57,173  L 32,173  L 32,172  L 28,172  L 28,171  L 27,171  L 27,170  L 25,170  L 25,169  L 24,169  L 24,168  L 23,168  L 23,166  L 22,166  L 22,152  L 23,152  L 23,151  L 25,151  L 25,150  L 27,150  L 27,151  L 34,151  L 34,152  L 35,152  L 35,151  L 36,151  L 36,152  L 37,152  L 37,151  L 42,151  L 42,152  L 43,152  L 43,151  L 44,151  L 44,152  L 45,152  L 45,151  L 58,151  L 58,150  L 59,150  L 59,151  L 61,151  L 61,150  L 63,150  L 63,149  L 65,149  L 65,147  L 66,147  L 66,144  L 65,144  L 65,140  L 64,140  L 64,139  L 62,139  L 62,138  L 57,138  L 57,139  L 54,139  L 54,140  L 50,140  L 50,141  L 47,141  L 47,142  L 42,142  L 42,143  L 38,143  L 38,144  L 37,144  L 37,143  L 36,143  L 36,144  L 31,144  L 31,143  L 30,143  L 30,144  L 29,144  L 29,143  L 19,143  L 19,144  L 17,144  L 17,145  L 16,145  L 16,146  L 15,146  L 15,155  L 16,155  L 16,156  L 15,156  L 15,157  L 16,157  L 16,163  L 17,163  L 17,169  L 18,169  L 18,172  L 19,172  L 19,173  L 20,173  L 20,174  L 21,174  L 21,175  L 22,175  L 22,176  L 23,176  L 23,177  L 25,177  L 25,178  L 27,178  L 27,179  L 28,179  L 28,178  L 29,178  L 29,179  L 63,179  L 63,178  L 66,178  L 66,177  L 69,177  L 69,176  L 72,176  L 72,175  L 75,175  L 75,174  L 77,174  L 77,173  L 80,173  L 80,172  L 83,172  L 83,171  L 85,171  L 85,170  L 87,170  L 87,169  L 89,169  L 89,168  L 90,168  L 90,167  L 92,167  L 92,165  L 93,165  L 93,164  L 94,164  L 94,162  L 89,162  L 89,163  L 88,163  L 88,162  L 87,162  L 87,163  L 86,163  L 86,164  L 82,164  L 82,165  L 79,165  L 79,166  L 78,166  L 78,165  L 77,165  L 77,166  L 76,166  L 76,167  L 74,167  L 74,168  L 71,168  L 71,169  L 69,169  L 69,170  L 67,170  L 67,171  L 62,171  L 62,172  Z  " style="fill:rgb(0, 0, 0); fill-opacity:1.000; stroke:none;" />
 <path d="  M 30,116  L 30,115  L 32,115  L 32,114  L 38,114  L 38,113  L 43,113  L 43,112  L 51,112  L 51,113  L 54,113  L 54,114  L 55,114  L 55,115  L 56,115  L 56,116  L 57,116  L 57,117  L 59,117  L 59,120  L 60,120  L 60,123  L 59,123  L 59,125  L 58,125  L 58,127  L 59,127  L 59,129  L 60,129  L 60,131  L 61,131  L 61,132  L 64,132  L 64,131  L 67,131  L 67,130  L 69,130  L 69,129  L 70,129  L 70,126  L 71,126  L 71,120  L 70,120  L 70,119  L 69,119  L 69,117  L 68,117  L 68,116  L 67,116  L 67,114  L 65,114  L 65,112  L 64,112  L 64,111  L 63,111  L 63,110  L 62,110  L 62,109  L 61,109  L 61,108  L 60,108  L 60,107  L 58,107  L 58,106  L 56,106  L 56,105  L 55,105  L 55,104  L 47,104  L 47,105  L 44,105  L 44,104  L 43,104  L 43,105  L 37,105  L 37,106  L 31,106  L 31,107  L 25,107  L 25,108  L 23,108  L 23,109  L 21,109  L 21,110  L 20,110  L 20,112  L 19,112  L 19,117  L 20,117  L 20,118  L 21,118  L 21,119  L 24,119  L 24,118  L 26,118  L 26,117  L 27,117  L 27,116  Z  " style="fill:rgb(0, 0, 0); fill-opacity:1.000; stroke:none;" />
 <path d="  M 59,31  L 60,31  L 60,30  L 59,30  Z  " style="fill:rgb(0, 0, 0); fill-opacity:1.000; stroke:none;" />
</svg>
