<?xml version="1.0" encoding="UTF-8" standalone="no"?>
<!DOCTYPE svg PUBLIC "-//W3C//DTD SVG 1.1//EN" 
  "http://www.w3.org/Graphics/SVG/1.1/DTD/svg11.dtd">
<svg width="100" height="191"
     xmlns="http://www.w3.org/2000/svg" version="1.1">
 <path d="  M 26,34  L 25,34  L 25,35  L 24,35  L 24,36  L 23,36  L 23,40  L 22,40  L 22,54  L 23,54  L 23,59  L 24,59  L 24,61  L 25,61  L 25,62  L 27,62  L 27,64  L 34,64  L 34,63  L 38,63  L 38,62  L 41,62  L 41,61  L 46,61  L 46,63  L 45,63  L 45,64  L 46,64  L 46,69  L 45,69  L 45,70  L 46,70  L 46,73  L 45,73  L 45,74  L 46,74  L 46,75  L 45,75  L 45,87  L 44,87  L 44,88  L 42,88  L 42,87  L 41,87  L 41,88  L 30,88  L 30,89  L 26,89  L 26,90  L 20,90  L 20,91  L 16,91  L 16,92  L 11,92  L 11,93  L 8,93  L 8,94  L 5,94  L 5,95  L 2,95  L 2,96  L 1,96  L 1,97  L 0,97  L 0,98  L 1,98  L 1,99  L 0,99  L 0,100  L 1,100  L 1,101  L 2,101  L 2,102  L 3,102  L 3,103  L 4,103  L 4,102  L 9,102  L 9,101  L 12,101  L 12,100  L 17,100  L 17,99  L 21,99  L 21,98  L 26,98  L 26,97  L 33,97  L 33,96  L 37,96  L 37,95  L 44,95  L 44,94  L 48,94  L 48,93  L 49,93  L 49,94  L 55,94  L 55,95  L 58,95  L 58,94  L 94,94  L 94,93  L 98,93  L 98,92  L 100,92  L 100,84  L 94,84  L 94,85  L 92,85  L 92,86  L 91,86  L 91,85  L 90,85  L 90,86  L 86,86  L 86,87  L 56,87  L 56,88  L 54,88  L 54,87  L 53,87  L 53,62  L 54,62  L 54,60  L 55,60  L 55,59  L 59,59  L 59,58  L 60,58  L 60,59  L 61,59  L 61,58  L 63,58  L 63,57  L 66,57  L 66,54  L 67,54  L 67,53  L 66,53  L 66,51  L 65,51  L 65,50  L 55,50  L 55,51  L 51,51  L 51,53  L 50,53  L 50,52  L 49,52  L 49,53  L 47,53  L 47,54  L 45,54  L 45,55  L 39,55  L 39,56  L 30,56  L 30,55  L 29,55  L 29,54  L 30,54  L 30,53  L 29,53  L 29,51  L 30,51  L 30,41  L 29,41  L 29,40  L 30,40  L 30,38  L 33,38  L 33,37  L 36,37  L 36,36  L 45,36  L 45,35  L 48,35  L 48,34  L 51,34  L 51,33  L 52,33  L 52,32  L 53,32  L 53,33  L 54,33  L 54,32  L 57,32  L 57,31  L 58,31  L 58,30  L 61,30  L 61,29  L 62,29  L 62,28  L 64,28  L 64,26  L 65,26  L 65,25  L 64,25  L 64,22  L 65,22  L 65,21  L 64,21  L 64,19  L 63,19  L 63,18  L 62,18  L 62,16  L 61,16  L 61,15  L 60,15  L 60,14  L 59,14  L 59,13  L 58,13  L 58,12  L 57,12  L 57,11  L 55,11  L 55,10  L 54,10  L 54,9  L 53,9  L 53,8  L 51,8  L 51,7  L 49,7  L 49,6  L 48,6  L 48,5  L 46,5  L 46,4  L 44,4  L 44,3  L 41,3  L 41,2  L 36,2  L 36,1  L 21,1  L 21,5  L 22,5  L 22,6  L 23,6  L 23,7  L 24,7  L 24,8  L 33,8  L 33,9  L 34,9  L 34,8  L 35,8  L 35,9  L 39,9  L 39,10  L 42,10  L 42,11  L 44,11  L 44,12  L 45,12  L 45,13  L 47,13  L 47,14  L 50,14  L 50,16  L 51,16  L 51,19  L 52,19  L 52,22  L 53,22  L 53,25  L 52,25  L 52,26  L 51,26  L 51,27  L 50,27  L 50,28  L 48,28  L 48,29  L 47,29  L 47,28  L 46,28  L 46,29  L 45,29  L 45,28  L 44,28  L 44,27  L 43,27  L 43,28  L 42,28  L 42,27  L 41,27  L 41,26  L 39,26  L 39,27  L 37,27  L 37,28  L 36,28  L 36,29  L 35,29  L 35,30  L 34,30  L 34,29  L 33,29  L 33,30  L 30,30  L 30,31  L 27,31  L 27,33  L 26,33  Z  " style="fill:rgb(0, 0, 0); fill-opacity:1.000; stroke:none;" />
 <path d="  M 88,133  L 88,130  L 89,130  L 89,129  L 88,129  L 88,127  L 89,127  L 89,125  L 88,125  L 88,123  L 89,123  L 89,121  L 88,121  L 88,118  L 89,118  L 89,117  L 88,117  L 88,114  L 86,114  L 86,113  L 85,113  L 85,112  L 65,112  L 65,113  L 54,113  L 54,114  L 53,114  L 53,113  L 52,113  L 52,114  L 51,114  L 51,113  L 50,113  L 50,114  L 46,114  L 46,115  L 40,115  L 40,116  L 35,116  L 35,117  L 32,117  L 32,116  L 31,116  L 31,117  L 28,117  L 28,116  L 27,116  L 27,117  L 23,117  L 23,118  L 22,118  L 22,119  L 21,119  L 21,120  L 20,120  L 20,121  L 19,121  L 19,122  L 18,122  L 18,124  L 17,124  L 17,141  L 18,141  L 18,142  L 17,142  L 17,145  L 18,145  L 18,169  L 17,169  L 17,170  L 18,170  L 18,171  L 17,171  L 17,174  L 18,174  L 18,175  L 17,175  L 17,178  L 18,178  L 18,179  L 17,179  L 17,180  L 18,180  L 18,181  L 19,181  L 19,182  L 20,182  L 20,183  L 21,183  L 21,185  L 22,185  L 22,186  L 25,186  L 25,187  L 26,187  L 26,188  L 27,188  L 27,189  L 28,189  L 28,188  L 29,188  L 29,189  L 30,189  L 30,190  L 33,190  L 33,191  L 35,191  L 35,190  L 36,190  L 36,191  L 43,191  L 43,190  L 48,190  L 48,189  L 49,189  L 49,188  L 53,188  L 53,187  L 54,187  L 54,188  L 55,188  L 55,187  L 56,187  L 56,186  L 59,186  L 59,185  L 63,185  L 63,184  L 67,184  L 67,183  L 69,183  L 69,182  L 72,182  L 72,181  L 75,181  L 75,180  L 77,180  L 77,179  L 78,179  L 78,180  L 79,180  L 79,179  L 81,179  L 81,178  L 84,178  L 84,177  L 86,177  L 86,176  L 88,176  L 88,174  L 89,174  L 89,163  L 88,163  L 88,162  L 89,162  L 89,161  L 88,161  L 88,149  L 87,149  L 87,148  L 88,148  L 88,134  L 89,134  L 89,133  Z  M 62,122  L 62,121  L 69,121  L 69,120  L 72,120  L 72,121  L 74,121  L 74,120  L 80,120  L 80,122  L 81,122  L 81,138  L 80,138  L 80,153  L 81,153  L 81,154  L 80,154  L 80,155  L 81,155  L 81,161  L 82,161  L 82,166  L 83,166  L 83,167  L 82,167  L 82,169  L 81,169  L 81,170  L 80,170  L 80,171  L 77,171  L 77,172  L 73,172  L 73,173  L 70,173  L 70,174  L 67,174  L 67,175  L 62,175  L 62,176  L 60,176  L 60,177  L 56,177  L 56,178  L 52,178  L 52,179  L 51,179  L 51,178  L 48,178  L 48,179  L 38,179  L 38,178  L 34,178  L 34,177  L 31,177  L 31,176  L 30,176  L 30,175  L 28,175  L 28,174  L 27,174  L 27,171  L 26,171  L 26,141  L 25,141  L 25,140  L 26,140  L 26,139  L 25,139  L 25,138  L 26,138  L 26,137  L 25,137  L 25,136  L 26,136  L 26,135  L 25,135  L 25,134  L 26,134  L 26,133  L 25,133  L 25,129  L 26,129  L 26,127  L 27,127  L 27,126  L 30,126  L 30,125  L 33,125  L 33,124  L 37,124  L 37,123  L 43,123  L 43,122  L 44,122  L 44,123  L 45,123  L 45,122  L 55,122  L 55,121  L 56,121  L 56,122  L 59,122  L 59,121  L 61,121  L 61,122  Z  " style="fill:rgb(0, 0, 0); fill-opacity:1.000; stroke:none;" />
</svg>
