<?xml version="1.0" encoding="UTF-8" standalone="no"?>
<!DOCTYPE svg PUBLIC "-//W3C//DTD SVG 1.1//EN" 
  "http://www.w3.org/Graphics/SVG/1.1/DTD/svg11.dtd">
<svg width="100" height="166"
     xmlns="http://www.w3.org/2000/svg" version="1.1">
 <path d="  M 62,95  L 62,94  L 75,94  L 75,93  L 78,93  L 78,94  L 79,94  L 79,93  L 88,93  L 88,92  L 89,92  L 89,93  L 90,93  L 90,92  L 91,92  L 91,93  L 92,93  L 92,92  L 93,92  L 93,93  L 94,93  L 94,92  L 98,92  L 98,91  L 100,91  L 100,83  L 97,83  L 97,84  L 94,84  L 94,85  L 89,85  L 89,86  L 88,86  L 88,85  L 87,85  L 87,86  L 80,86  L 80,87  L 79,87  L 79,86  L 78,86  L 78,87  L 58,87  L 58,88  L 56,88  L 56,89  L 55,89  L 55,88  L 54,88  L 54,74  L 55,74  L 55,73  L 54,73  L 54,72  L 55,72  L 55,71  L 54,71  L 54,70  L 55,70  L 55,69  L 54,69  L 54,68  L 55,68  L 55,67  L 54,67  L 54,66  L 55,66  L 55,65  L 54,65  L 54,64  L 55,64  L 55,60  L 56,60  L 56,59  L 57,59  L 57,58  L 58,58  L 58,59  L 60,59  L 60,58  L 67,58  L 67,57  L 69,57  L 69,56  L 71,56  L 71,55  L 72,55  L 72,54  L 73,54  L 73,52  L 74,52  L 74,48  L 73,48  L 73,47  L 72,47  L 72,48  L 71,48  L 71,47  L 68,47  L 68,48  L 66,48  L 66,47  L 65,47  L 65,49  L 64,49  L 64,50  L 62,50  L 62,51  L 60,51  L 60,52  L 56,52  L 56,53  L 52,53  L 52,54  L 49,54  L 49,55  L 44,55  L 44,56  L 40,56  L 40,57  L 34,57  L 34,58  L 29,58  L 29,56  L 28,56  L 28,55  L 29,55  L 29,54  L 28,54  L 28,49  L 29,49  L 29,40  L 30,40  L 30,39  L 32,39  L 32,38  L 35,38  L 35,37  L 41,37  L 41,36  L 46,36  L 46,35  L 52,35  L 52,34  L 58,34  L 58,33  L 62,33  L 62,32  L 64,32  L 64,31  L 65,31  L 65,30  L 66,30  L 66,29  L 67,29  L 67,28  L 69,28  L 69,27  L 70,27  L 70,24  L 71,24  L 71,17  L 70,17  L 70,16  L 69,16  L 69,14  L 68,14  L 68,13  L 67,13  L 67,12  L 65,12  L 65,11  L 64,11  L 64,10  L 63,10  L 63,9  L 62,9  L 62,8  L 59,8  L 59,7  L 57,7  L 57,6  L 55,6  L 55,5  L 51,5  L 51,4  L 48,4  L 48,3  L 46,3  L 46,2  L 42,2  L 42,1  L 21,1  L 21,0  L 18,0  L 18,7  L 17,7  L 17,8  L 18,8  L 18,9  L 21,9  L 21,8  L 22,8  L 22,9  L 23,9  L 23,8  L 24,8  L 24,9  L 25,9  L 25,8  L 28,8  L 28,7  L 29,7  L 29,8  L 30,8  L 30,7  L 31,7  L 31,8  L 34,8  L 34,7  L 35,7  L 35,8  L 36,8  L 36,7  L 37,7  L 37,8  L 38,8  L 38,7  L 39,7  L 39,8  L 42,8  L 42,9  L 43,9  L 43,8  L 44,8  L 44,9  L 47,9  L 47,10  L 49,10  L 49,11  L 52,11  L 52,12  L 54,12  L 54,13  L 57,13  L 57,14  L 59,14  L 59,15  L 60,15  L 60,16  L 61,16  L 61,17  L 62,17  L 62,18  L 63,18  L 63,21  L 64,21  L 64,23  L 63,23  L 63,24  L 62,24  L 62,23  L 61,23  L 61,25  L 58,25  L 58,26  L 54,26  L 54,27  L 52,27  L 52,28  L 47,28  L 47,29  L 40,29  L 40,30  L 39,30  L 39,29  L 38,29  L 38,30  L 35,30  L 35,31  L 32,31  L 32,32  L 29,32  L 29,34  L 27,34  L 27,35  L 26,35  L 26,36  L 24,36  L 24,37  L 23,37  L 23,38  L 22,38  L 22,41  L 21,41  L 21,48  L 22,48  L 22,49  L 21,49  L 21,50  L 22,50  L 22,53  L 21,53  L 21,54  L 22,54  L 22,58  L 23,58  L 23,60  L 24,60  L 24,61  L 25,61  L 25,63  L 26,63  L 26,64  L 28,64  L 28,65  L 34,65  L 34,64  L 39,64  L 39,63  L 40,63  L 40,64  L 42,64  L 42,63  L 43,63  L 43,62  L 44,62  L 44,61  L 45,61  L 45,60  L 47,60  L 47,76  L 46,76  L 46,78  L 47,78  L 47,81  L 46,81  L 46,82  L 47,82  L 47,83  L 46,83  L 46,88  L 26,88  L 26,89  L 15,89  L 15,90  L 5,90  L 5,91  L 3,91  L 3,90  L 1,90  L 1,92  L 0,92  L 0,95  L 1,95  L 1,96  L 2,96  L 2,97  L 3,97  L 3,98  L 8,98  L 8,97  L 14,97  L 14,96  L 22,96  L 22,95  L 36,95  L 36,94  L 37,94  L 37,95  L 38,95  L 38,94  L 41,94  L 41,95  L 42,95  L 42,94  L 48,94  L 48,95  L 60,95  L 60,94  L 61,94  L 61,95  Z  " style="fill:rgb(0, 0, 0); fill-opacity:1.000; stroke:none;" />
 <path d="  M 64,166  L 64,165  L 67,165  L 67,164  L 70,164  L 70,163  L 71,163  L 71,162  L 72,162  L 72,160  L 74,160  L 74,159  L 75,159  L 75,158  L 76,158  L 76,156  L 77,156  L 77,154  L 78,154  L 78,152  L 79,152  L 79,150  L 80,150  L 80,147  L 81,147  L 81,142  L 82,142  L 82,134  L 83,134  L 83,133  L 82,133  L 82,130  L 83,130  L 83,129  L 82,129  L 82,127  L 81,127  L 81,126  L 80,126  L 80,124  L 79,124  L 79,122  L 78,122  L 78,121  L 77,121  L 77,120  L 76,120  L 76,119  L 73,119  L 73,118  L 72,118  L 72,117  L 69,117  L 69,116  L 66,116  L 66,115  L 63,115  L 63,114  L 60,114  L 60,113  L 57,113  L 57,112  L 55,112  L 55,111  L 53,111  L 53,110  L 44,110  L 44,111  L 41,111  L 41,112  L 39,112  L 39,113  L 38,113  L 38,114  L 36,114  L 36,115  L 35,115  L 35,116  L 34,116  L 34,118  L 33,118  L 33,119  L 32,119  L 32,120  L 31,120  L 31,121  L 30,121  L 30,123  L 29,123  L 29,124  L 28,124  L 28,126  L 27,126  L 27,127  L 26,127  L 26,128  L 25,128  L 25,130  L 24,130  L 24,131  L 23,131  L 23,133  L 21,133  L 21,136  L 20,136  L 20,139  L 19,139  L 19,143  L 18,143  L 18,148  L 19,148  L 19,154  L 20,154  L 20,156  L 21,156  L 21,159  L 22,159  L 22,160  L 23,160  L 23,161  L 24,161  L 24,162  L 26,162  L 26,163  L 27,163  L 27,164  L 28,164  L 28,165  L 31,165  L 31,166  Z  M 74,145  L 73,145  L 73,148  L 72,148  L 72,150  L 71,150  L 71,151  L 70,151  L 70,153  L 69,153  L 69,154  L 68,154  L 68,155  L 67,155  L 67,156  L 66,156  L 66,157  L 62,157  L 62,158  L 60,158  L 60,159  L 54,159  L 54,160  L 40,160  L 40,159  L 34,159  L 34,158  L 32,158  L 32,157  L 30,157  L 30,156  L 29,156  L 29,155  L 28,155  L 28,154  L 27,154  L 27,152  L 26,152  L 26,142  L 27,142  L 27,140  L 28,140  L 28,138  L 29,138  L 29,136  L 30,136  L 30,133  L 31,133  L 31,132  L 32,132  L 32,131  L 33,131  L 33,130  L 34,130  L 34,128  L 35,128  L 35,127  L 36,127  L 36,126  L 37,126  L 37,125  L 38,125  L 38,124  L 39,124  L 39,123  L 41,123  L 41,122  L 43,122  L 43,121  L 46,121  L 46,120  L 55,120  L 55,121  L 58,121  L 58,122  L 62,122  L 62,123  L 65,123  L 65,124  L 67,124  L 67,125  L 70,125  L 70,126  L 71,126  L 71,128  L 73,128  L 73,129  L 74,129  L 74,134  L 75,134  L 75,141  L 74,141  Z  " style="fill:rgb(0, 0, 0); fill-opacity:1.000; stroke:none;" />
</svg>
