<?xml version="1.0" encoding="UTF-8" standalone="no"?>
<!DOCTYPE svg PUBLIC "-//W3C//DTD SVG 1.1//EN" 
  "http://www.w3.org/Graphics/SVG/1.1/DTD/svg11.dtd">
<svg width="104" height="104"
     xmlns="http://www.w3.org/2000/svg" version="1.1">
 <path d="  M 63,49  L 62,49  L 62,47  L 58,47  L 58,48  L 56,48  L 56,49  L 55,49  L 55,50  L 53,50  L 53,51  L 50,51  L 50,52  L 48,52  L 48,53  L 45,53  L 45,54  L 42,54  L 42,55  L 39,55  L 39,56  L 37,56  L 37,57  L 32,57  L 32,58  L 26,58  L 26,59  L 17,59  L 17,60  L 13,60  L 13,57  L 12,57  L 12,53  L 11,53  L 11,50  L 12,50  L 12,49  L 11,49  L 11,47  L 12,47  L 12,45  L 14,45  L 14,44  L 15,44  L 15,43  L 16,43  L 16,42  L 18,42  L 18,41  L 22,41  L 22,40  L 24,40  L 24,39  L 25,39  L 25,38  L 27,38  L 27,37  L 28,37  L 28,36  L 31,36  L 31,35  L 32,35  L 32,34  L 35,34  L 35,33  L 37,33  L 37,32  L 39,32  L 39,31  L 40,31  L 40,30  L 41,30  L 41,29  L 42,29  L 42,28  L 43,28  L 43,27  L 44,27  L 44,26  L 45,26  L 45,25  L 47,25  L 47,24  L 48,24  L 48,23  L 49,23  L 49,22  L 50,22  L 50,17  L 51,17  L 51,14  L 50,14  L 50,12  L 51,12  L 51,11  L 50,11  L 50,8  L 48,8  L 48,7  L 47,7  L 47,6  L 46,6  L 46,5  L 44,5  L 44,4  L 43,4  L 43,3  L 39,3  L 39,2  L 36,2  L 36,1  L 28,1  L 28,0  L 25,0  L 25,1  L 21,1  L 21,2  L 18,2  L 18,3  L 16,3  L 16,4  L 15,4  L 15,6  L 14,6  L 14,9  L 21,9  L 21,8  L 24,8  L 24,7  L 25,7  L 25,8  L 26,8  L 26,7  L 27,7  L 27,8  L 28,8  L 28,7  L 29,7  L 29,8  L 30,8  L 30,7  L 31,7  L 31,8  L 35,8  L 35,9  L 38,9  L 38,10  L 40,10  L 40,11  L 41,11  L 41,12  L 42,12  L 42,14  L 43,14  L 43,18  L 42,18  L 42,19  L 41,19  L 41,20  L 39,20  L 39,21  L 38,21  L 38,22  L 37,22  L 37,23  L 35,23  L 35,24  L 34,24  L 34,25  L 33,25  L 33,26  L 32,26  L 32,27  L 31,27  L 31,28  L 29,28  L 29,29  L 27,29  L 27,30  L 26,30  L 26,31  L 24,31  L 24,32  L 23,32  L 23,33  L 21,33  L 21,34  L 19,34  L 19,35  L 18,35  L 18,36  L 15,36  L 15,37  L 13,37  L 13,38  L 12,38  L 12,37  L 11,37  L 11,38  L 10,38  L 10,39  L 7,39  L 7,40  L 6,40  L 6,41  L 5,41  L 5,42  L 4,42  L 4,43  L 3,43  L 3,44  L 4,44  L 4,52  L 5,52  L 5,58  L 6,58  L 6,60  L 5,60  L 5,61  L 6,61  L 6,63  L 7,63  L 7,64  L 8,64  L 8,65  L 7,65  L 7,66  L 11,66  L 11,67  L 12,67  L 12,66  L 16,66  L 16,65  L 22,65  L 22,64  L 35,64  L 35,71  L 34,71  L 34,72  L 35,72  L 35,75  L 34,75  L 34,76  L 35,76  L 35,77  L 34,77  L 34,84  L 35,84  L 35,87  L 27,87  L 27,88  L 23,88  L 23,89  L 13,89  L 13,90  L 12,90  L 12,89  L 11,89  L 11,90  L 6,90  L 6,91  L 5,91  L 5,90  L 4,90  L 4,91  L 3,91  L 3,90  L 1,90  L 1,91  L 0,91  L 0,95  L 1,95  L 1,96  L 2,96  L 2,97  L 10,97  L 10,96  L 16,96  L 16,95  L 18,95  L 18,96  L 19,96  L 19,95  L 23,95  L 23,94  L 29,94  L 29,93  L 36,93  L 36,92  L 44,92  L 44,91  L 45,91  L 45,92  L 47,92  L 47,91  L 51,91  L 51,90  L 57,90  L 57,89  L 64,89  L 64,88  L 69,88  L 69,87  L 71,87  L 71,82  L 62,82  L 62,83  L 59,83  L 59,84  L 52,84  L 52,85  L 47,85  L 47,86  L 40,86  L 40,63  L 41,63  L 41,62  L 42,62  L 42,61  L 44,61  L 44,60  L 48,60  L 48,59  L 51,59  L 51,58  L 54,58  L 54,57  L 58,57  L 58,56  L 61,56  L 61,55  L 62,55  L 62,54  L 63,54  Z  " style="fill:rgb(0, 0, 0); fill-opacity:1.000; stroke:none;" />
 <path d="  M 78,69  L 77,69  L 77,70  L 78,70  L 78,73  L 77,73  L 77,74  L 78,74  L 78,77  L 77,77  L 77,78  L 78,78  L 78,104  L 84,104  L 84,102  L 85,102  L 85,101  L 84,101  L 84,98  L 85,98  L 85,97  L 84,97  L 84,96  L 85,96  L 85,93  L 84,93  L 84,90  L 85,90  L 85,89  L 84,89  L 84,57  L 83,57  L 83,55  L 84,55  L 84,53  L 85,53  L 85,52  L 92,52  L 92,51  L 93,51  L 93,52  L 95,52  L 95,51  L 104,51  L 104,45  L 97,45  L 97,46  L 96,46  L 96,45  L 94,45  L 94,46  L 92,46  L 92,45  L 87,45  L 87,46  L 85,46  L 85,47  L 84,47  L 84,46  L 82,46  L 82,23  L 81,23  L 81,22  L 82,22  L 82,19  L 81,19  L 81,16  L 82,16  L 82,15  L 81,15  L 81,10  L 80,10  L 80,4  L 79,4  L 79,2  L 78,2  L 78,1  L 75,1  L 75,0  L 74,0  L 74,1  L 73,1  L 73,2  L 72,2  L 72,4  L 71,4  L 71,6  L 72,6  L 72,9  L 73,9  L 73,12  L 74,12  L 74,14  L 75,14  L 75,26  L 76,26  L 76,48  L 77,48  L 77,66  L 78,66  Z  " style="fill:rgb(0, 0, 0); fill-opacity:1.000; stroke:none;" />
</svg>
