<?xml version="1.0" encoding="UTF-8" standalone="no"?>
<!DOCTYPE svg PUBLIC "-//W3C//DTD SVG 1.1//EN" 
  "http://www.w3.org/Graphics/SVG/1.1/DTD/svg11.dtd">
<svg width="109" height="141"
     xmlns="http://www.w3.org/2000/svg" version="1.1">
 <path d="  M 45,27  L 45,26  L 46,26  L 46,25  L 47,25  L 47,24  L 48,24  L 48,22  L 49,22  L 49,21  L 50,21  L 50,19  L 51,19  L 51,18  L 50,18  L 50,16  L 48,16  L 48,14  L 47,14  L 47,13  L 46,13  L 46,12  L 45,12  L 45,11  L 44,11  L 44,9  L 42,9  L 42,8  L 41,8  L 41,7  L 40,7  L 40,6  L 39,6  L 39,5  L 36,5  L 36,4  L 34,4  L 34,3  L 32,3  L 32,2  L 27,2  L 27,1  L 20,1  L 20,2  L 18,2  L 18,1  L 17,1  L 17,2  L 10,2  L 10,3  L 8,3  L 8,4  L 6,4  L 6,5  L 7,5  L 7,6  L 6,6  L 6,9  L 7,9  L 7,11  L 8,11  L 8,13  L 9,13  L 9,14  L 12,14  L 12,12  L 14,12  L 14,11  L 15,11  L 15,10  L 18,10  L 18,9  L 21,9  L 21,8  L 26,8  L 26,9  L 30,9  L 30,10  L 32,10  L 32,11  L 35,11  L 35,12  L 36,12  L 36,13  L 37,13  L 37,14  L 38,14  L 38,15  L 39,15  L 39,17  L 40,17  L 40,20  L 37,20  L 37,21  L 36,21  L 36,22  L 34,22  L 34,23  L 30,23  L 30,24  L 29,24  L 29,25  L 27,25  L 27,26  L 25,26  L 25,27  L 23,27  L 23,28  L 22,28  L 22,29  L 21,29  L 21,30  L 19,30  L 19,31  L 17,31  L 17,32  L 16,32  L 16,33  L 15,33  L 15,34  L 11,34  L 11,35  L 10,35  L 10,36  L 7,36  L 7,37  L 6,37  L 6,38  L 5,38  L 5,39  L 4,39  L 4,40  L 3,40  L 3,43  L 2,43  L 2,47  L 1,47  L 1,57  L 2,57  L 2,60  L 3,60  L 3,61  L 4,61  L 4,62  L 10,62  L 10,63  L 18,63  L 18,62  L 19,62  L 19,63  L 20,63  L 20,62  L 23,62  L 23,63  L 26,63  L 26,85  L 13,85  L 13,86  L 8,86  L 8,87  L 3,87  L 3,88  L 2,88  L 2,89  L 1,89  L 1,92  L 2,92  L 2,94  L 10,94  L 10,93  L 13,93  L 13,92  L 20,92  L 20,91  L 21,91  L 21,92  L 30,92  L 30,93  L 45,93  L 45,92  L 46,92  L 46,93  L 47,93  L 47,92  L 56,92  L 56,91  L 62,91  L 62,90  L 64,90  L 64,89  L 66,89  L 66,86  L 65,86  L 65,85  L 64,85  L 64,84  L 56,84  L 56,85  L 46,85  L 46,86  L 44,86  L 44,85  L 43,85  L 43,86  L 37,86  L 37,85  L 36,85  L 36,86  L 34,86  L 34,85  L 33,85  L 33,82  L 32,82  L 32,63  L 31,63  L 31,62  L 32,62  L 32,60  L 34,60  L 34,59  L 37,59  L 37,58  L 40,58  L 40,57  L 44,57  L 44,56  L 46,56  L 46,55  L 48,55  L 48,54  L 50,54  L 50,53  L 52,53  L 52,52  L 53,52  L 53,51  L 55,51  L 55,50  L 56,50  L 56,49  L 57,49  L 57,46  L 56,46  L 56,44  L 54,44  L 54,43  L 49,43  L 49,45  L 48,45  L 48,46  L 47,46  L 47,47  L 46,47  L 46,48  L 44,48  L 44,49  L 42,49  L 42,50  L 41,50  L 41,51  L 38,51  L 38,52  L 35,52  L 35,53  L 30,53  L 30,54  L 24,54  L 24,55  L 19,55  L 19,56  L 14,56  L 14,57  L 12,57  L 12,58  L 8,58  L 8,55  L 7,55  L 7,48  L 8,48  L 8,45  L 9,45  L 9,44  L 10,44  L 10,43  L 11,43  L 11,41  L 13,41  L 13,40  L 14,40  L 14,41  L 15,41  L 15,40  L 17,40  L 17,39  L 19,39  L 19,38  L 21,38  L 21,37  L 22,37  L 22,36  L 24,36  L 24,35  L 25,35  L 25,34  L 28,34  L 28,33  L 29,33  L 29,32  L 32,32  L 32,31  L 35,31  L 35,30  L 36,30  L 36,29  L 39,29  L 39,28  L 41,28  L 41,27  Z  " style="fill:rgb(0, 0, 0); fill-opacity:1.000; stroke:none;" />
 <path d="  M 39,109  L 40,109  L 40,105  L 39,105  L 39,104  L 38,104  L 38,103  L 33,103  L 33,105  L 32,105  L 32,108  L 31,108  L 31,111  L 32,111  L 32,131  L 33,131  L 33,134  L 34,134  L 34,137  L 35,137  L 35,139  L 36,139  L 36,140  L 38,140  L 38,141  L 60,141  L 60,140  L 67,140  L 67,139  L 73,139  L 73,138  L 74,138  L 74,139  L 75,139  L 75,138  L 84,138  L 84,137  L 89,137  L 89,136  L 90,136  L 90,135  L 92,135  L 92,133  L 93,133  L 93,130  L 91,130  L 91,129  L 88,129  L 88,130  L 84,130  L 84,131  L 81,131  L 81,130  L 80,130  L 80,131  L 76,131  L 76,132  L 70,132  L 70,133  L 64,133  L 64,134  L 52,134  L 52,135  L 49,135  L 49,134  L 48,134  L 48,135  L 43,135  L 43,134  L 41,134  L 41,132  L 40,132  L 40,127  L 39,127  Z  " style="fill:rgb(0, 0, 0); fill-opacity:1.000; stroke:none;" />
 <path d="  M 70,33  L 71,33  L 71,67  L 72,67  L 72,69  L 71,69  L 71,71  L 72,71  L 72,89  L 73,89  L 73,90  L 72,90  L 72,93  L 73,93  L 73,94  L 74,94  L 74,95  L 79,95  L 79,78  L 78,78  L 78,77  L 79,77  L 79,74  L 78,74  L 78,55  L 79,55  L 79,54  L 82,54  L 82,53  L 87,53  L 87,52  L 88,52  L 88,53  L 89,53  L 89,52  L 90,52  L 90,53  L 91,53  L 91,52  L 94,52  L 94,53  L 95,53  L 95,52  L 96,52  L 96,53  L 97,53  L 97,52  L 100,52  L 100,53  L 101,53  L 101,52  L 102,52  L 102,53  L 103,53  L 103,52  L 104,52  L 104,53  L 108,53  L 108,52  L 109,52  L 109,47  L 108,47  L 108,46  L 107,46  L 107,45  L 106,45  L 106,46  L 105,46  L 105,45  L 104,45  L 104,46  L 103,46  L 103,45  L 102,45  L 102,46  L 101,46  L 101,45  L 100,45  L 100,46  L 99,46  L 99,45  L 92,45  L 92,46  L 91,46  L 91,45  L 90,45  L 90,46  L 89,46  L 89,45  L 88,45  L 88,46  L 85,46  L 85,45  L 84,45  L 84,46  L 82,46  L 82,45  L 78,45  L 78,44  L 77,44  L 77,43  L 78,43  L 78,32  L 77,32  L 77,30  L 76,30  L 76,24  L 75,24  L 75,22  L 74,22  L 74,17  L 73,17  L 73,14  L 72,14  L 72,13  L 71,13  L 71,12  L 69,12  L 69,11  L 68,11  L 68,12  L 67,12  L 67,23  L 68,23  L 68,28  L 69,28  L 69,29  L 70,29  Z  " style="fill:rgb(0, 0, 0); fill-opacity:1.000; stroke:none;" />
</svg>
