<?xml version="1.0" encoding="UTF-8" standalone="no"?>
<!DOCTYPE svg PUBLIC "-//W3C//DTD SVG 1.1//EN" 
  "http://www.w3.org/Graphics/SVG/1.1/DTD/svg11.dtd">
<svg width="110" height="143"
     xmlns="http://www.w3.org/2000/svg" version="1.1">
 <path d="  M 38,22  L 38,23  L 36,23  L 36,24  L 32,24  L 32,25  L 29,25  L 29,26  L 24,26  L 24,27  L 18,27  L 18,28  L 15,28  L 15,29  L 12,29  L 12,30  L 10,30  L 10,31  L 9,31  L 9,35  L 8,35  L 8,47  L 9,47  L 9,51  L 10,51  L 10,52  L 12,52  L 12,53  L 14,53  L 14,54  L 23,54  L 23,53  L 26,53  L 26,52  L 27,52  L 27,53  L 28,53  L 28,61  L 27,61  L 27,62  L 28,62  L 28,64  L 27,64  L 27,66  L 28,66  L 28,67  L 27,67  L 27,72  L 15,72  L 15,73  L 10,73  L 10,74  L 8,74  L 8,75  L 3,75  L 3,76  L 1,76  L 1,82  L 5,82  L 5,81  L 7,81  L 7,80  L 10,80  L 10,79  L 12,79  L 12,78  L 13,78  L 13,79  L 14,79  L 14,78  L 19,78  L 19,77  L 36,77  L 36,76  L 44,76  L 44,75  L 52,75  L 52,74  L 57,74  L 57,73  L 60,73  L 60,72  L 61,72  L 61,68  L 60,68  L 60,67  L 58,67  L 58,66  L 57,66  L 57,67  L 55,67  L 55,68  L 51,68  L 51,69  L 46,69  L 46,70  L 44,70  L 44,69  L 43,69  L 43,70  L 38,70  L 38,71  L 35,71  L 35,70  L 34,70  L 34,62  L 35,62  L 35,61  L 34,61  L 34,58  L 35,58  L 35,51  L 36,51  L 36,50  L 40,50  L 40,49  L 41,49  L 41,50  L 42,50  L 42,49  L 48,49  L 48,48  L 55,48  L 55,47  L 56,47  L 56,46  L 57,46  L 57,42  L 56,42  L 56,41  L 54,41  L 54,40  L 52,40  L 52,41  L 50,41  L 50,42  L 43,42  L 43,43  L 35,43  L 35,44  L 31,44  L 31,45  L 26,45  L 26,46  L 21,46  L 21,47  L 15,47  L 15,39  L 16,39  L 16,36  L 17,36  L 17,35  L 18,35  L 18,34  L 21,34  L 21,33  L 26,33  L 26,32  L 31,32  L 31,31  L 35,31  L 35,30  L 40,30  L 40,29  L 43,29  L 43,28  L 45,28  L 45,27  L 46,27  L 46,26  L 48,26  L 48,25  L 49,25  L 49,24  L 50,24  L 50,23  L 51,23  L 51,21  L 52,21  L 52,19  L 53,19  L 53,17  L 54,17  L 54,9  L 53,9  L 53,7  L 52,7  L 52,5  L 51,5  L 51,4  L 50,4  L 50,3  L 48,3  L 48,1  L 40,1  L 40,2  L 31,2  L 31,3  L 30,3  L 30,2  L 28,2  L 28,3  L 26,3  L 26,2  L 25,2  L 25,3  L 13,3  L 13,4  L 12,4  L 12,7  L 13,7  L 13,11  L 14,11  L 14,12  L 16,12  L 16,11  L 19,11  L 19,10  L 22,10  L 22,9  L 23,9  L 23,10  L 24,10  L 24,9  L 41,9  L 41,8  L 43,8  L 43,7  L 45,7  L 45,8  L 46,8  L 46,9  L 47,9  L 47,10  L 48,10  L 48,15  L 47,15  L 47,19  L 46,19  L 46,20  L 44,20  L 44,21  L 43,21  L 43,22  Z  " style="fill:rgb(0, 0, 0); fill-opacity:1.000; stroke:none;" />
 <path d="  M 14,134  L 15,134  L 15,135  L 17,135  L 17,136  L 20,136  L 20,134  L 21,134  L 21,133  L 22,133  L 22,131  L 23,131  L 23,130  L 24,130  L 24,129  L 25,129  L 25,128  L 26,128  L 26,127  L 27,127  L 27,125  L 28,125  L 28,124  L 29,124  L 29,123  L 30,123  L 30,122  L 31,122  L 31,121  L 32,121  L 32,119  L 33,119  L 33,118  L 34,118  L 34,115  L 35,115  L 35,114  L 36,114  L 36,112  L 38,112  L 38,111  L 39,111  L 39,112  L 41,112  L 41,113  L 42,113  L 42,114  L 46,114  L 46,115  L 47,115  L 47,116  L 49,116  L 49,117  L 51,117  L 51,118  L 53,118  L 53,119  L 55,119  L 55,120  L 56,120  L 56,121  L 57,121  L 57,122  L 59,122  L 59,124  L 60,124  L 60,123  L 62,123  L 62,122  L 63,122  L 63,117  L 62,117  L 62,116  L 60,116  L 60,115  L 57,115  L 57,114  L 56,114  L 56,113  L 53,113  L 53,112  L 52,112  L 52,111  L 50,111  L 50,110  L 47,110  L 47,109  L 45,109  L 45,108  L 44,108  L 44,107  L 43,107  L 43,106  L 42,106  L 42,104  L 43,104  L 43,103  L 44,103  L 44,102  L 45,102  L 45,100  L 46,100  L 46,98  L 47,98  L 47,97  L 48,97  L 48,90  L 47,90  L 47,89  L 46,89  L 46,87  L 42,87  L 42,90  L 41,90  L 41,99  L 40,99  L 40,101  L 39,101  L 39,103  L 38,103  L 38,105  L 37,105  L 37,106  L 36,106  L 36,107  L 35,107  L 35,108  L 34,108  L 34,109  L 33,109  L 33,110  L 32,110  L 32,111  L 31,111  L 31,112  L 30,112  L 30,114  L 29,114  L 29,115  L 28,115  L 28,117  L 27,117  L 27,118  L 26,118  L 26,119  L 25,119  L 25,120  L 24,120  L 24,121  L 23,121  L 23,122  L 22,122  L 22,123  L 21,123  L 21,125  L 20,125  L 20,126  L 18,126  L 18,127  L 17,127  L 17,129  L 16,129  L 16,130  L 14,130  Z  " style="fill:rgb(0, 0, 0); fill-opacity:1.000; stroke:none;" />
 <path d="  M 32,93  L 34,93  L 34,92  L 35,92  L 35,91  L 34,91  L 34,90  L 32,90  Z  " style="fill:rgb(0, 0, 0); fill-opacity:1.000; stroke:none;" />
 <path d="  M 83,99  L 84,99  L 84,96  L 85,96  L 85,92  L 77,92  L 77,98  L 76,98  L 76,101  L 75,101  L 75,105  L 74,105  L 74,107  L 73,107  L 73,111  L 72,111  L 72,113  L 71,113  L 71,114  L 70,114  L 70,116  L 69,116  L 69,118  L 68,118  L 68,120  L 67,120  L 67,121  L 66,121  L 66,122  L 65,122  L 65,124  L 64,124  L 64,125  L 63,125  L 63,127  L 62,127  L 62,129  L 59,129  L 59,130  L 58,130  L 58,132  L 57,132  L 57,134  L 56,134  L 56,137  L 55,137  L 55,142  L 56,142  L 56,143  L 60,143  L 60,142  L 61,142  L 61,140  L 62,140  L 62,137  L 63,137  L 63,135  L 64,135  L 64,134  L 65,134  L 65,133  L 66,133  L 66,131  L 67,131  L 67,130  L 68,130  L 68,129  L 69,129  L 69,126  L 70,126  L 70,125  L 71,125  L 71,123  L 72,123  L 72,122  L 73,122  L 73,120  L 74,120  L 74,119  L 75,119  L 75,116  L 76,116  L 76,114  L 79,114  L 79,115  L 80,115  L 80,116  L 81,116  L 81,117  L 82,117  L 82,118  L 84,118  L 84,119  L 86,119  L 86,120  L 87,120  L 87,121  L 89,121  L 89,122  L 91,122  L 91,123  L 93,123  L 93,124  L 94,124  L 94,125  L 97,125  L 97,126  L 98,126  L 98,127  L 99,127  L 99,128  L 101,128  L 101,129  L 102,129  L 102,130  L 103,130  L 103,131  L 104,131  L 104,133  L 105,133  L 105,135  L 106,135  L 106,137  L 108,137  L 108,136  L 109,136  L 109,135  L 110,135  L 110,127  L 108,127  L 108,126  L 107,126  L 107,125  L 106,125  L 106,124  L 104,124  L 104,123  L 103,123  L 103,122  L 100,122  L 100,121  L 99,121  L 99,120  L 97,120  L 97,119  L 95,119  L 95,118  L 93,118  L 93,117  L 92,117  L 92,116  L 90,116  L 90,115  L 89,115  L 89,114  L 88,114  L 88,113  L 86,113  L 86,112  L 85,112  L 85,111  L 84,111  L 84,110  L 83,110  L 83,109  L 82,109  L 82,102  L 83,102  Z  " style="fill:rgb(0, 0, 0); fill-opacity:1.000; stroke:none;" />
 <path d="  M 86,58  L 87,58  L 87,59  L 86,59  L 86,82  L 88,82  L 88,83  L 92,83  L 92,81  L 93,81  L 93,79  L 92,79  L 92,78  L 93,78  L 93,75  L 92,75  L 92,73  L 93,73  L 93,71  L 92,71  L 92,69  L 93,69  L 93,67  L 92,67  L 92,65  L 93,65  L 93,42  L 92,42  L 92,40  L 93,40  L 93,39  L 92,39  L 92,35  L 91,35  L 91,32  L 90,32  L 90,29  L 89,29  L 89,28  L 88,28  L 88,23  L 87,23  L 87,19  L 86,19  L 86,15  L 85,15  L 85,14  L 86,14  L 86,13  L 84,13  L 84,12  L 83,12  L 83,10  L 82,10  L 82,11  L 81,11  L 81,10  L 79,10  L 79,11  L 80,11  L 80,12  L 79,12  L 79,18  L 80,18  L 80,22  L 81,22  L 81,26  L 82,26  L 82,30  L 83,30  L 83,32  L 84,32  L 84,33  L 83,33  L 83,35  L 76,35  L 76,34  L 74,34  L 74,27  L 73,27  L 73,26  L 74,26  L 74,25  L 73,25  L 73,21  L 72,21  L 72,14  L 71,14  L 71,9  L 70,9  L 70,8  L 69,8  L 69,7  L 68,7  L 68,8  L 67,8  L 67,9  L 66,9  L 66,12  L 65,12  L 65,14  L 66,14  L 66,19  L 67,19  L 67,27  L 68,27  L 68,34  L 69,34  L 69,35  L 68,35  L 68,36  L 69,36  L 69,44  L 70,44  L 70,51  L 69,51  L 69,52  L 70,52  L 70,55  L 69,55  L 69,56  L 70,56  L 70,59  L 69,59  L 69,60  L 70,60  L 70,61  L 69,61  L 69,62  L 70,62  L 70,63  L 69,63  L 69,64  L 70,64  L 70,65  L 69,65  L 69,71  L 70,71  L 70,72  L 69,72  L 69,73  L 70,73  L 70,78  L 71,78  L 71,79  L 74,79  L 74,78  L 75,78  L 75,76  L 76,76  L 76,54  L 77,54  L 77,53  L 76,53  L 76,50  L 77,50  L 77,49  L 76,49  L 76,48  L 77,48  L 77,42  L 81,42  L 81,41  L 85,41  L 85,42  L 86,42  Z  " style="fill:rgb(0, 0, 0); fill-opacity:1.000; stroke:none;" />
</svg>
