<?xml version="1.0" encoding="UTF-8" standalone="no"?>
<!DOCTYPE svg PUBLIC "-//W3C//DTD SVG 1.1//EN" 
  "http://www.w3.org/Graphics/SVG/1.1/DTD/svg11.dtd">
<svg width="103" height="130"
     xmlns="http://www.w3.org/2000/svg" version="1.1">
 <path d="  M 71,99  L 76,99  L 76,98  L 81,98  L 81,97  L 82,97  L 82,95  L 83,95  L 83,91  L 81,91  L 81,90  L 77,90  L 77,91  L 75,91  L 75,92  L 71,92  L 71,93  L 66,93  L 66,94  L 62,94  L 62,95  L 54,95  L 54,96  L 47,96  L 47,92  L 46,92  L 46,89  L 47,89  L 47,88  L 46,88  L 46,87  L 47,87  L 47,84  L 46,84  L 46,82  L 47,82  L 47,80  L 46,80  L 46,71  L 47,71  L 47,69  L 48,69  L 48,68  L 50,68  L 50,67  L 54,67  L 54,66  L 60,66  L 60,65  L 65,65  L 65,64  L 68,64  L 68,63  L 70,63  L 70,62  L 72,62  L 72,61  L 73,61  L 73,59  L 74,59  L 74,58  L 75,58  L 75,55  L 76,55  L 76,51  L 73,51  L 73,52  L 71,52  L 71,53  L 70,53  L 70,54  L 69,54  L 69,55  L 68,55  L 68,56  L 64,56  L 64,57  L 61,57  L 61,58  L 57,58  L 57,59  L 54,59  L 54,60  L 50,60  L 50,61  L 49,61  L 49,60  L 48,60  L 48,61  L 46,61  L 46,62  L 43,62  L 43,63  L 40,63  L 40,64  L 36,64  L 36,65  L 32,65  L 32,66  L 27,66  L 27,67  L 21,67  L 21,68  L 20,68  L 20,67  L 16,67  L 16,66  L 15,66  L 15,64  L 14,64  L 14,58  L 15,58  L 15,54  L 16,54  L 16,53  L 18,53  L 18,51  L 20,51  L 20,50  L 22,50  L 22,49  L 25,49  L 25,48  L 27,48  L 27,47  L 29,47  L 29,46  L 31,46  L 31,45  L 35,45  L 35,44  L 37,44  L 37,43  L 40,43  L 40,42  L 43,42  L 43,41  L 45,41  L 45,40  L 48,40  L 48,39  L 49,39  L 49,38  L 50,38  L 50,37  L 52,37  L 52,36  L 53,36  L 53,34  L 54,34  L 54,33  L 55,33  L 55,31  L 56,31  L 56,28  L 57,28  L 57,20  L 56,20  L 56,16  L 55,16  L 55,14  L 53,14  L 53,12  L 48,12  L 48,11  L 42,11  L 42,10  L 34,10  L 34,9  L 17,9  L 17,10  L 15,10  L 15,15  L 19,15  L 19,16  L 23,16  L 23,15  L 24,15  L 24,16  L 34,16  L 34,17  L 35,17  L 35,16  L 36,16  L 36,17  L 37,17  L 37,16  L 38,16  L 38,17  L 44,17  L 44,18  L 46,18  L 46,19  L 49,19  L 49,20  L 50,20  L 50,21  L 51,21  L 51,22  L 50,22  L 50,23  L 51,23  L 51,24  L 50,24  L 50,26  L 49,26  L 49,27  L 48,27  L 48,29  L 47,29  L 47,30  L 45,30  L 45,32  L 43,32  L 43,33  L 41,33  L 41,34  L 38,34  L 38,35  L 36,35  L 36,36  L 34,36  L 34,37  L 31,37  L 31,38  L 29,38  L 29,39  L 27,39  L 27,40  L 26,40  L 26,41  L 24,41  L 24,42  L 22,42  L 22,43  L 20,43  L 20,44  L 18,44  L 18,45  L 16,45  L 16,46  L 15,46  L 15,47  L 13,47  L 13,48  L 11,48  L 11,49  L 10,49  L 10,50  L 9,50  L 9,51  L 7,51  L 7,52  L 6,52  L 6,59  L 7,59  L 7,65  L 8,65  L 8,69  L 9,69  L 9,70  L 10,70  L 10,71  L 11,71  L 11,73  L 13,73  L 13,74  L 14,74  L 14,75  L 17,75  L 17,74  L 24,74  L 24,73  L 32,73  L 32,72  L 33,72  L 33,73  L 36,73  L 36,72  L 39,72  L 39,73  L 40,73  L 40,100  L 37,100  L 37,101  L 34,101  L 34,102  L 29,102  L 29,103  L 24,103  L 24,104  L 20,104  L 20,105  L 13,105  L 13,106  L 8,106  L 8,107  L 2,107  L 2,108  L 1,108  L 1,110  L 0,110  L 0,112  L 1,112  L 1,113  L 2,113  L 2,114  L 9,114  L 9,113  L 14,113  L 14,112  L 15,112  L 15,113  L 16,113  L 16,112  L 21,112  L 21,111  L 25,111  L 25,110  L 29,110  L 29,109  L 33,109  L 33,108  L 38,108  L 38,107  L 40,107  L 40,106  L 43,106  L 43,105  L 45,105  L 45,104  L 48,104  L 48,103  L 51,103  L 51,102  L 55,102  L 55,101  L 63,101  L 63,100  L 69,100  L 69,99  L 70,99  L 70,100  L 71,100  Z  " style="fill:rgb(0, 0, 0); fill-opacity:1.000; stroke:none;" />
 <path d="  M 98,119  L 97,119  L 97,120  L 98,120  L 98,126  L 97,126  L 97,129  L 98,129  L 98,130  L 103,130  L 103,32  L 102,32  L 102,26  L 101,26  L 101,22  L 100,22  L 100,17  L 99,17  L 99,12  L 98,12  L 98,6  L 97,6  L 97,3  L 96,3  L 96,1  L 93,1  L 93,0  L 92,0  L 92,1  L 90,1  L 90,9  L 91,9  L 91,14  L 92,14  L 92,15  L 91,15  L 91,16  L 92,16  L 92,19  L 93,19  L 93,22  L 94,22  L 94,27  L 95,27  L 95,30  L 96,30  L 96,39  L 97,39  L 97,62  L 98,62  L 98,63  L 97,63  L 97,64  L 98,64  L 98,65  L 97,65  L 97,66  L 98,66  L 98,67  L 97,67  L 97,68  L 98,68  L 98,71  L 97,71  L 97,72  L 98,72  Z  " style="fill:rgb(0, 0, 0); fill-opacity:1.000; stroke:none;" />
</svg>
