<?xml version="1.0" encoding="UTF-8" standalone="no"?>
<!DOCTYPE svg PUBLIC "-//W3C//DTD SVG 1.1//EN" 
  "http://www.w3.org/Graphics/SVG/1.1/DTD/svg11.dtd">
<svg width="103" height="177"
     xmlns="http://www.w3.org/2000/svg" version="1.1">
 <path d="  M 22,43  L 23,43  L 23,37  L 25,37  L 25,35  L 28,35  L 28,34  L 29,34  L 29,35  L 30,35  L 30,34  L 34,34  L 34,33  L 36,33  L 36,34  L 37,34  L 37,33  L 42,33  L 42,32  L 43,32  L 43,33  L 44,33  L 44,32  L 50,32  L 50,31  L 58,31  L 58,30  L 59,30  L 59,31  L 62,31  L 62,30  L 65,30  L 65,29  L 66,29  L 66,27  L 67,27  L 67,25  L 68,25  L 68,15  L 67,15  L 67,10  L 66,10  L 66,8  L 65,8  L 65,7  L 64,7  L 64,6  L 63,6  L 63,5  L 62,5  L 62,4  L 59,4  L 59,3  L 56,3  L 56,2  L 48,2  L 48,1  L 47,1  L 47,2  L 46,2  L 46,1  L 21,1  L 21,2  L 15,2  L 15,3  L 13,3  L 13,4  L 12,4  L 12,5  L 11,5  L 11,9  L 12,9  L 12,10  L 13,10  L 13,11  L 18,11  L 18,10  L 19,10  L 19,9  L 22,9  L 22,8  L 23,8  L 23,9  L 24,9  L 24,8  L 39,8  L 39,9  L 40,9  L 40,8  L 43,8  L 43,9  L 44,9  L 44,8  L 45,8  L 45,9  L 50,9  L 50,10  L 55,10  L 55,11  L 56,11  L 56,12  L 57,12  L 57,13  L 58,13  L 58,16  L 59,16  L 59,19  L 60,19  L 60,20  L 59,20  L 59,22  L 57,22  L 57,23  L 51,23  L 51,24  L 41,24  L 41,25  L 35,25  L 35,26  L 32,26  L 32,27  L 31,27  L 31,26  L 30,26  L 30,27  L 29,27  L 29,26  L 28,26  L 28,27  L 27,27  L 27,26  L 26,26  L 26,27  L 23,27  L 23,28  L 22,28  L 22,29  L 20,29  L 20,30  L 19,30  L 19,32  L 18,32  L 18,33  L 17,33  L 17,35  L 16,35  L 16,38  L 15,38  L 15,45  L 14,45  L 14,57  L 15,57  L 15,58  L 16,58  L 16,60  L 17,60  L 17,61  L 23,61  L 23,62  L 32,62  L 32,63  L 33,63  L 33,61  L 35,61  L 35,60  L 37,60  L 37,63  L 38,63  L 38,85  L 36,85  L 36,86  L 23,86  L 23,87  L 19,87  L 19,88  L 14,88  L 14,89  L 8,89  L 8,90  L 5,90  L 5,91  L 4,91  L 4,92  L 3,92  L 3,91  L 2,91  L 2,93  L 1,93  L 1,95  L 0,95  L 0,96  L 1,96  L 1,99  L 7,99  L 7,98  L 9,98  L 9,97  L 12,97  L 12,96  L 13,96  L 13,97  L 14,97  L 14,96  L 19,96  L 19,95  L 24,95  L 24,94  L 25,94  L 25,95  L 27,95  L 27,94  L 30,94  L 30,93  L 36,93  L 36,92  L 37,92  L 37,93  L 38,93  L 38,92  L 43,92  L 43,91  L 44,91  L 44,92  L 47,92  L 47,91  L 55,91  L 55,90  L 61,90  L 61,89  L 78,89  L 78,90  L 79,90  L 79,89  L 82,89  L 82,84  L 81,84  L 81,82  L 78,82  L 78,81  L 69,81  L 69,82  L 57,82  L 57,83  L 56,83  L 56,82  L 55,82  L 55,83  L 52,83  L 52,82  L 51,82  L 51,83  L 47,83  L 47,82  L 46,82  L 46,63  L 45,63  L 45,59  L 46,59  L 46,58  L 49,58  L 49,57  L 50,57  L 50,58  L 51,58  L 51,57  L 58,57  L 58,56  L 61,56  L 61,55  L 68,55  L 68,54  L 69,54  L 69,53  L 71,53  L 71,52  L 72,52  L 72,51  L 73,51  L 73,47  L 72,47  L 72,46  L 70,46  L 70,45  L 67,45  L 67,44  L 64,44  L 64,45  L 61,45  L 61,46  L 60,46  L 60,47  L 59,47  L 59,46  L 58,46  L 58,47  L 57,47  L 57,48  L 52,48  L 52,49  L 48,49  L 48,50  L 46,50  L 46,51  L 41,51  L 41,52  L 38,52  L 38,53  L 37,53  L 37,52  L 36,52  L 36,53  L 31,53  L 31,54  L 29,54  L 29,53  L 28,53  L 28,54  L 23,54  L 23,53  L 21,53  L 21,48  L 22,48  Z  " style="fill:rgb(0, 0, 0); fill-opacity:1.000; stroke:none;" />
 <path d="  M 67,148  L 67,147  L 69,147  L 69,146  L 72,146  L 72,145  L 73,145  L 73,144  L 75,144  L 75,143  L 77,143  L 77,142  L 76,142  L 76,141  L 77,141  L 77,137  L 78,137  L 78,135  L 79,135  L 79,134  L 80,134  L 80,133  L 82,133  L 82,132  L 83,132  L 83,131  L 84,131  L 84,130  L 85,130  L 85,129  L 87,129  L 87,128  L 88,128  L 88,120  L 87,120  L 87,119  L 86,119  L 86,118  L 83,118  L 83,117  L 82,117  L 82,116  L 80,116  L 80,115  L 78,115  L 78,114  L 75,114  L 75,113  L 72,113  L 72,112  L 66,112  L 66,111  L 60,111  L 60,110  L 53,110  L 53,111  L 52,111  L 52,110  L 51,110  L 51,111  L 48,111  L 48,112  L 43,112  L 43,113  L 37,113  L 37,114  L 31,114  L 31,116  L 30,116  L 30,121  L 31,121  L 31,123  L 35,123  L 35,124  L 36,124  L 36,123  L 39,123  L 39,122  L 40,122  L 40,123  L 41,123  L 41,122  L 46,122  L 46,121  L 52,121  L 52,120  L 53,120  L 53,121  L 54,121  L 54,120  L 55,120  L 55,121  L 56,121  L 56,120  L 57,120  L 57,121  L 60,121  L 60,120  L 61,120  L 61,121  L 68,121  L 68,122  L 70,122  L 70,123  L 72,123  L 72,124  L 74,124  L 74,125  L 76,125  L 76,127  L 75,127  L 75,129  L 74,129  L 74,131  L 73,131  L 73,135  L 72,135  L 72,136  L 71,136  L 71,137  L 70,137  L 70,138  L 67,138  L 67,139  L 66,139  L 66,140  L 63,140  L 63,141  L 62,141  L 62,142  L 55,142  L 55,143  L 49,143  L 49,144  L 46,144  L 46,145  L 43,145  L 43,146  L 41,146  L 41,147  L 39,147  L 39,148  L 37,148  L 37,149  L 35,149  L 35,150  L 33,150  L 33,151  L 32,151  L 32,153  L 31,153  L 31,154  L 30,154  L 30,163  L 31,163  L 31,166  L 32,166  L 32,168  L 33,168  L 33,169  L 34,169  L 34,170  L 37,170  L 37,171  L 36,171  L 36,172  L 37,172  L 37,173  L 38,173  L 38,174  L 39,174  L 39,173  L 40,173  L 40,174  L 41,174  L 41,175  L 42,175  L 42,176  L 45,176  L 45,177  L 72,177  L 72,176  L 75,176  L 75,175  L 79,175  L 79,174  L 82,174  L 82,173  L 83,173  L 83,172  L 86,172  L 86,171  L 88,171  L 88,170  L 90,170  L 90,169  L 92,169  L 92,168  L 93,168  L 93,167  L 95,167  L 95,166  L 97,166  L 97,165  L 99,165  L 99,164  L 100,164  L 100,163  L 101,163  L 101,158  L 100,158  L 100,157  L 97,157  L 97,158  L 94,158  L 94,159  L 93,159  L 93,160  L 91,160  L 91,161  L 89,161  L 89,162  L 87,162  L 87,163  L 84,163  L 84,164  L 82,164  L 82,165  L 80,165  L 80,166  L 77,166  L 77,167  L 76,167  L 76,166  L 75,166  L 75,168  L 70,168  L 70,169  L 66,169  L 66,170  L 52,170  L 52,169  L 48,169  L 48,168  L 42,168  L 42,167  L 41,167  L 41,166  L 40,166  L 40,165  L 38,165  L 38,163  L 37,163  L 37,162  L 38,162  L 38,161  L 37,161  L 37,160  L 38,160  L 38,158  L 39,158  L 39,157  L 40,157  L 40,156  L 41,156  L 41,155  L 42,155  L 42,154  L 44,154  L 44,153  L 48,153  L 48,152  L 51,152  L 51,153  L 52,153  L 52,152  L 54,152  L 54,151  L 59,151  L 59,150  L 60,150  L 60,149  L 64,149  L 64,148  Z  " style="fill:rgb(0, 0, 0); fill-opacity:1.000; stroke:none;" />
 <path d="  M 103,26  L 102,26  L 102,25  L 103,25  L 103,24  L 102,24  L 102,10  L 101,10  L 101,6  L 100,6  L 100,5  L 99,5  L 99,4  L 95,4  L 95,6  L 94,6  L 94,13  L 95,13  L 95,14  L 94,14  L 94,15  L 95,15  L 95,31  L 96,31  L 96,62  L 97,62  L 97,63  L 96,63  L 96,104  L 97,104  L 97,105  L 101,105  L 101,104  L 103,104  Z  " style="fill:rgb(0, 0, 0); fill-opacity:1.000; stroke:none;" />
</svg>
