<?xml version="1.0" encoding="UTF-8" standalone="no"?>
<!DOCTYPE svg PUBLIC "-//W3C//DTD SVG 1.1//EN" 
  "http://www.w3.org/Graphics/SVG/1.1/DTD/svg11.dtd">
<svg width="103" height="164"
     xmlns="http://www.w3.org/2000/svg" version="1.1">
 <path d="  M 1,99  L 1,98  L 0,98  L 0,99  Z  " style="fill:rgb(0, 0, 0); fill-opacity:1.000; stroke:none;" />
 <path d="  M 40,97  L 40,96  L 49,96  L 49,95  L 57,95  L 57,94  L 67,94  L 67,93  L 71,93  L 71,92  L 73,92  L 73,91  L 76,91  L 76,90  L 77,90  L 77,84  L 75,84  L 75,83  L 72,83  L 72,84  L 68,84  L 68,85  L 64,85  L 64,86  L 54,86  L 54,87  L 51,87  L 51,86  L 49,86  L 49,87  L 48,87  L 48,86  L 46,86  L 46,87  L 45,87  L 45,86  L 44,86  L 44,80  L 43,80  L 43,79  L 44,79  L 44,76  L 43,76  L 43,75  L 44,75  L 44,74  L 43,74  L 43,73  L 44,73  L 44,72  L 43,72  L 43,60  L 44,60  L 44,59  L 45,59  L 45,58  L 48,58  L 48,57  L 49,57  L 49,56  L 53,56  L 53,55  L 55,55  L 55,54  L 59,54  L 59,53  L 63,53  L 63,52  L 64,52  L 64,51  L 65,51  L 65,52  L 66,52  L 66,50  L 68,50  L 68,49  L 69,49  L 69,48  L 70,48  L 70,46  L 69,46  L 69,45  L 68,45  L 68,44  L 67,44  L 67,45  L 65,45  L 65,44  L 62,44  L 62,45  L 59,45  L 59,46  L 57,46  L 57,47  L 56,47  L 56,46  L 55,46  L 55,47  L 52,47  L 52,48  L 50,48  L 50,49  L 49,49  L 49,50  L 47,50  L 47,51  L 46,51  L 46,52  L 45,52  L 45,53  L 41,53  L 41,54  L 39,54  L 39,55  L 35,55  L 35,56  L 27,56  L 27,57  L 25,57  L 25,56  L 24,56  L 24,57  L 17,57  L 17,56  L 16,56  L 16,49  L 17,49  L 17,47  L 18,47  L 18,46  L 19,46  L 19,45  L 20,45  L 20,44  L 21,44  L 21,43  L 23,43  L 23,42  L 24,42  L 24,41  L 26,41  L 26,40  L 28,40  L 28,39  L 31,39  L 31,38  L 33,38  L 33,37  L 35,37  L 35,36  L 37,36  L 37,35  L 39,35  L 39,34  L 41,34  L 41,32  L 43,32  L 43,31  L 45,31  L 45,29  L 47,29  L 47,28  L 48,28  L 48,27  L 49,27  L 49,25  L 51,25  L 51,24  L 52,24  L 52,23  L 53,23  L 53,20  L 54,20  L 54,18  L 53,18  L 53,16  L 52,16  L 52,14  L 51,14  L 51,13  L 50,13  L 50,11  L 48,11  L 48,10  L 47,10  L 47,9  L 45,9  L 45,8  L 44,8  L 44,7  L 42,7  L 42,6  L 40,6  L 40,5  L 39,5  L 39,4  L 36,4  L 36,3  L 33,3  L 33,2  L 29,2  L 29,1  L 20,1  L 20,2  L 16,2  L 16,3  L 14,3  L 14,4  L 13,4  L 13,6  L 12,6  L 12,7  L 13,7  L 13,10  L 14,10  L 14,11  L 17,11  L 17,10  L 20,10  L 20,9  L 23,9  L 23,8  L 24,8  L 24,9  L 25,9  L 25,8  L 28,8  L 28,9  L 33,9  L 33,10  L 36,10  L 36,11  L 38,11  L 38,12  L 39,12  L 39,13  L 41,13  L 41,14  L 42,14  L 42,15  L 43,15  L 43,16  L 44,16  L 44,17  L 45,17  L 45,19  L 46,19  L 46,21  L 45,21  L 45,23  L 42,23  L 42,24  L 41,24  L 41,25  L 40,25  L 40,26  L 39,26  L 39,27  L 37,27  L 37,28  L 34,28  L 34,29  L 31,29  L 31,30  L 29,30  L 29,31  L 27,31  L 27,32  L 25,32  L 25,33  L 23,33  L 23,34  L 22,34  L 22,35  L 21,35  L 21,36  L 19,36  L 19,37  L 18,37  L 18,38  L 16,38  L 16,39  L 14,39  L 14,40  L 13,40  L 13,41  L 12,41  L 12,42  L 11,42  L 11,44  L 10,44  L 10,46  L 9,46  L 9,48  L 8,48  L 8,51  L 9,51  L 9,52  L 8,52  L 8,53  L 9,53  L 9,57  L 10,57  L 10,61  L 12,61  L 12,62  L 13,62  L 13,63  L 17,63  L 17,64  L 24,64  L 24,63  L 25,63  L 25,64  L 29,64  L 29,63  L 30,63  L 30,64  L 32,64  L 32,63  L 36,63  L 36,89  L 35,89  L 35,90  L 29,90  L 29,91  L 21,91  L 21,92  L 14,92  L 14,93  L 10,93  L 10,94  L 8,94  L 8,95  L 3,95  L 3,96  L 2,96  L 2,97  L 1,97  L 1,98  L 2,98  L 2,99  L 1,99  L 1,100  L 0,100  L 0,101  L 1,101  L 1,103  L 2,103  L 2,104  L 3,104  L 3,103  L 4,103  L 4,104  L 5,104  L 5,103  L 7,103  L 7,102  L 9,102  L 9,101  L 12,101  L 12,100  L 16,100  L 16,99  L 22,99  L 22,98  L 23,98  L 23,99  L 24,99  L 24,98  L 29,98  L 29,97  Z  " style="fill:rgb(0, 0, 0); fill-opacity:1.000; stroke:none;" />
 <path d="  M 43,158  L 43,157  L 41,157  L 41,153  L 40,153  L 40,146  L 39,146  L 39,145  L 40,145  L 40,142  L 39,142  L 39,141  L 40,141  L 40,140  L 41,140  L 41,139  L 43,139  L 43,138  L 44,138  L 44,139  L 45,139  L 45,138  L 53,138  L 53,137  L 54,137  L 54,138  L 57,138  L 57,137  L 58,137  L 58,138  L 61,138  L 61,137  L 63,137  L 63,138  L 65,138  L 65,137  L 67,137  L 67,138  L 69,138  L 69,137  L 71,137  L 71,138  L 73,138  L 73,137  L 75,137  L 75,138  L 77,138  L 77,137  L 79,137  L 79,138  L 80,138  L 80,137  L 88,137  L 88,138  L 91,138  L 91,139  L 92,139  L 92,146  L 91,146  L 91,150  L 90,150  L 90,152  L 89,152  L 89,153  L 87,153  L 87,154  L 84,154  L 84,155  L 79,155  L 79,156  L 72,156  L 72,157  L 65,157  L 65,158  Z  M 97,150  L 98,150  L 98,142  L 99,142  L 99,136  L 100,136  L 100,113  L 99,113  L 99,112  L 97,112  L 97,114  L 96,114  L 96,115  L 95,115  L 95,128  L 94,128  L 94,130  L 90,130  L 90,131  L 89,131  L 89,130  L 86,130  L 86,131  L 85,131  L 85,130  L 82,130  L 82,131  L 81,131  L 81,130  L 78,130  L 78,131  L 77,131  L 77,130  L 74,130  L 74,131  L 73,131  L 73,130  L 70,130  L 70,131  L 69,131  L 69,130  L 68,130  L 68,131  L 65,131  L 65,130  L 64,130  L 64,131  L 61,131  L 61,130  L 60,130  L 60,131  L 57,131  L 57,130  L 56,130  L 56,131  L 49,131  L 49,130  L 48,130  L 48,131  L 43,131  L 43,132  L 42,132  L 42,131  L 40,131  L 40,127  L 41,127  L 41,124  L 42,124  L 42,114  L 41,114  L 41,113  L 36,113  L 36,114  L 35,114  L 35,115  L 34,115  L 34,116  L 33,116  L 33,119  L 34,119  L 34,120  L 33,120  L 33,128  L 32,128  L 32,129  L 33,129  L 33,136  L 32,136  L 32,145  L 33,145  L 33,148  L 32,148  L 32,149  L 33,149  L 33,154  L 34,154  L 34,155  L 33,155  L 33,156  L 34,156  L 34,159  L 35,159  L 35,161  L 36,161  L 36,162  L 38,162  L 38,163  L 42,163  L 42,164  L 73,164  L 73,163  L 80,163  L 80,162  L 84,162  L 84,161  L 88,161  L 88,160  L 89,160  L 89,159  L 92,159  L 92,158  L 93,158  L 93,157  L 94,157  L 94,156  L 95,156  L 95,155  L 96,155  L 96,154  L 97,154  Z  " style="fill:rgb(0, 0, 0); fill-opacity:1.000; stroke:none;" />
 <path d="  M 103,44  L 102,44  L 102,34  L 101,34  L 101,28  L 100,28  L 100,22  L 99,22  L 99,18  L 98,18  L 98,17  L 99,17  L 99,16  L 98,16  L 98,13  L 97,13  L 97,10  L 96,10  L 96,8  L 94,8  L 94,7  L 92,7  L 92,8  L 90,8  L 90,10  L 89,10  L 89,13  L 90,13  L 90,21  L 91,21  L 91,24  L 92,24  L 92,27  L 93,27  L 93,31  L 94,31  L 94,36  L 95,36  L 95,42  L 96,42  L 96,59  L 97,59  L 97,102  L 98,102  L 98,103  L 101,103  L 101,104  L 103,104  Z  " style="fill:rgb(0, 0, 0); fill-opacity:1.000; stroke:none;" />
</svg>
