<?xml version="1.0" encoding="UTF-8" standalone="no"?>
<!DOCTYPE svg PUBLIC "-//W3C//DTD SVG 1.1//EN" 
  "http://www.w3.org/Graphics/SVG/1.1/DTD/svg11.dtd">
<svg width="107" height="118"
     xmlns="http://www.w3.org/2000/svg" version="1.1">
 <path d="  M 25,6  L 25,7  L 24,7  L 24,9  L 26,9  L 26,10  L 27,10  L 27,11  L 33,11  L 33,10  L 36,10  L 36,9  L 42,9  L 42,8  L 43,8  L 43,9  L 44,9  L 44,8  L 45,8  L 45,9  L 46,9  L 46,8  L 47,8  L 47,9  L 48,9  L 48,8  L 49,8  L 49,9  L 50,9  L 50,8  L 51,8  L 51,9  L 52,9  L 52,8  L 53,8  L 53,9  L 54,9  L 54,8  L 55,8  L 55,9  L 56,9  L 56,8  L 57,8  L 57,9  L 62,9  L 62,10  L 64,10  L 64,11  L 66,11  L 66,12  L 67,12  L 67,13  L 68,13  L 68,14  L 69,14  L 69,15  L 71,15  L 71,20  L 70,20  L 70,21  L 69,21  L 69,22  L 68,22  L 68,23  L 66,23  L 66,24  L 64,24  L 64,25  L 62,25  L 62,26  L 60,26  L 60,27  L 58,27  L 58,28  L 55,28  L 55,29  L 53,29  L 53,30  L 49,30  L 49,31  L 46,31  L 46,32  L 40,32  L 40,33  L 35,33  L 35,34  L 32,34  L 32,35  L 29,35  L 29,36  L 28,36  L 28,37  L 27,37  L 27,38  L 26,38  L 26,40  L 25,40  L 25,41  L 24,41  L 24,42  L 23,42  L 23,51  L 24,51  L 24,61  L 25,61  L 25,63  L 26,63  L 26,66  L 28,66  L 28,67  L 30,67  L 30,68  L 33,68  L 33,69  L 35,69  L 35,68  L 38,68  L 38,69  L 39,69  L 39,73  L 40,73  L 40,75  L 39,75  L 39,76  L 40,76  L 40,78  L 39,78  L 39,99  L 38,99  L 38,103  L 39,103  L 39,105  L 38,105  L 38,106  L 39,106  L 39,110  L 38,110  L 38,111  L 34,111  L 34,110  L 33,110  L 33,111  L 20,111  L 20,112  L 19,112  L 19,111  L 18,111  L 18,112  L 1,112  L 1,113  L 0,113  L 0,117  L 1,117  L 1,118  L 30,118  L 30,117  L 31,117  L 31,118  L 33,118  L 33,117  L 58,117  L 58,116  L 59,116  L 59,117  L 62,117  L 62,116  L 64,116  L 64,117  L 65,117  L 65,116  L 68,116  L 68,117  L 69,117  L 69,116  L 82,116  L 82,115  L 92,115  L 92,114  L 93,114  L 93,115  L 94,115  L 94,114  L 95,114  L 95,115  L 96,115  L 96,114  L 97,114  L 97,115  L 98,115  L 98,114  L 99,114  L 99,115  L 100,115  L 100,114  L 106,114  L 106,113  L 107,113  L 107,108  L 106,108  L 106,107  L 94,107  L 94,108  L 87,108  L 87,109  L 86,109  L 86,108  L 85,108  L 85,109  L 82,109  L 82,108  L 81,108  L 81,109  L 75,109  L 75,108  L 74,108  L 74,102  L 73,102  L 73,101  L 74,101  L 74,100  L 73,100  L 73,98  L 74,98  L 74,96  L 73,96  L 73,89  L 74,89  L 74,88  L 73,88  L 73,67  L 74,67  L 74,63  L 75,63  L 75,61  L 78,61  L 78,60  L 80,60  L 80,59  L 84,59  L 84,58  L 86,58  L 86,57  L 87,57  L 87,56  L 88,56  L 88,54  L 89,54  L 89,53  L 90,53  L 90,52  L 91,52  L 91,50  L 88,50  L 88,51  L 87,51  L 87,50  L 86,50  L 86,51  L 81,51  L 81,52  L 80,52  L 80,53  L 75,53  L 75,54  L 72,54  L 72,55  L 69,55  L 69,56  L 65,56  L 65,57  L 63,57  L 63,58  L 60,58  L 60,59  L 54,59  L 54,60  L 48,60  L 48,61  L 32,61  L 32,60  L 31,60  L 31,57  L 30,57  L 30,50  L 31,50  L 31,47  L 32,47  L 32,44  L 33,44  L 33,42  L 35,42  L 35,41  L 38,41  L 38,40  L 42,40  L 42,39  L 43,39  L 43,40  L 45,40  L 45,39  L 50,39  L 50,38  L 54,38  L 54,37  L 58,37  L 58,36  L 62,36  L 62,35  L 64,35  L 64,34  L 65,34  L 65,33  L 66,33  L 66,32  L 68,32  L 68,30  L 69,30  L 69,29  L 70,29  L 70,28  L 71,28  L 71,27  L 72,27  L 72,26  L 73,26  L 73,25  L 74,25  L 74,24  L 75,24  L 75,23  L 76,23  L 76,21  L 77,21  L 77,18  L 78,18  L 78,16  L 77,16  L 77,11  L 76,11  L 76,10  L 75,10  L 75,9  L 73,9  L 73,8  L 72,8  L 72,7  L 71,7  L 71,6  L 70,6  L 70,5  L 67,5  L 67,4  L 64,4  L 64,3  L 62,3  L 62,2  L 60,2  L 60,1  L 46,1  L 46,2  L 45,2  L 45,1  L 42,1  L 42,2  L 41,2  L 41,1  L 39,1  L 39,2  L 37,2  L 37,1  L 35,1  L 35,2  L 29,2  L 29,3  L 28,3  L 28,4  L 26,4  L 26,6  Z  M 66,64  L 66,88  L 67,88  L 67,91  L 66,91  L 66,92  L 67,92  L 67,107  L 68,107  L 68,108  L 67,108  L 67,109  L 61,109  L 61,110  L 45,110  L 45,91  L 46,91  L 46,90  L 45,90  L 45,89  L 46,89  L 46,81  L 47,81  L 47,80  L 46,80  L 46,77  L 47,77  L 47,76  L 46,76  L 46,68  L 47,68  L 47,67  L 49,67  L 49,66  L 60,66  L 60,65  L 62,65  L 62,64  Z  " style="fill:rgb(0, 0, 0); fill-opacity:1.000; stroke:none;" />
</svg>
