<?xml version="1.0" encoding="UTF-8" standalone="no"?>
<!DOCTYPE svg PUBLIC "-//W3C//DTD SVG 1.1//EN" 
  "http://www.w3.org/Graphics/SVG/1.1/DTD/svg11.dtd">
<svg width="108" height="166"
     xmlns="http://www.w3.org/2000/svg" version="1.1">
 <path d="  M 15,92  L 15,93  L 14,93  L 14,92  L 13,92  L 13,93  L 2,93  L 2,94  L 1,94  L 1,95  L 0,95  L 0,98  L 1,98  L 1,100  L 4,100  L 4,101  L 5,101  L 5,100  L 6,100  L 6,101  L 9,101  L 9,100  L 10,100  L 10,101  L 12,101  L 12,100  L 23,100  L 23,99  L 24,99  L 24,100  L 25,100  L 25,99  L 31,99  L 31,98  L 43,98  L 43,97  L 44,97  L 44,98  L 47,98  L 47,97  L 48,97  L 48,98  L 51,98  L 51,97  L 52,97  L 52,98  L 55,98  L 55,97  L 56,97  L 56,98  L 91,98  L 91,97  L 92,97  L 92,98  L 94,98  L 94,97  L 97,97  L 97,98  L 98,98  L 98,97  L 101,97  L 101,98  L 102,98  L 102,97  L 103,97  L 103,96  L 105,96  L 105,95  L 106,95  L 106,90  L 105,90  L 105,89  L 100,89  L 100,88  L 98,88  L 98,89  L 86,89  L 86,90  L 84,90  L 84,89  L 82,89  L 82,90  L 79,90  L 79,89  L 77,89  L 77,90  L 72,90  L 72,89  L 71,89  L 71,62  L 70,62  L 70,61  L 71,61  L 71,57  L 72,57  L 72,55  L 73,55  L 73,54  L 74,54  L 74,52  L 75,52  L 75,50  L 76,50  L 76,49  L 75,49  L 75,48  L 76,48  L 76,47  L 74,47  L 74,46  L 67,46  L 67,47  L 65,47  L 65,48  L 63,48  L 63,49  L 61,49  L 61,50  L 54,50  L 54,51  L 34,51  L 34,50  L 33,50  L 33,42  L 32,42  L 32,40  L 34,40  L 34,39  L 35,39  L 35,38  L 38,38  L 38,37  L 46,37  L 46,36  L 52,36  L 52,35  L 57,35  L 57,34  L 61,34  L 61,33  L 64,33  L 64,32  L 66,32  L 66,31  L 67,31  L 67,30  L 68,30  L 68,28  L 69,28  L 69,27  L 68,27  L 68,26  L 69,26  L 69,24  L 71,24  L 71,23  L 72,23  L 72,22  L 73,22  L 73,21  L 72,21  L 72,18  L 73,18  L 73,17  L 72,17  L 72,15  L 71,15  L 71,14  L 70,14  L 70,13  L 69,13  L 69,12  L 68,12  L 68,11  L 67,11  L 67,10  L 66,10  L 66,9  L 65,9  L 65,8  L 63,8  L 63,7  L 62,7  L 62,6  L 59,6  L 59,5  L 57,5  L 57,4  L 55,4  L 55,3  L 51,3  L 51,2  L 47,2  L 47,1  L 39,1  L 39,0  L 38,0  L 38,1  L 37,1  L 37,0  L 34,0  L 34,1  L 23,1  L 23,2  L 20,2  L 20,3  L 19,3  L 19,10  L 20,10  L 20,11  L 24,11  L 24,10  L 27,10  L 27,9  L 30,9  L 30,8  L 46,8  L 46,9  L 51,9  L 51,10  L 55,10  L 55,11  L 57,11  L 57,12  L 58,12  L 58,13  L 60,13  L 60,14  L 61,14  L 61,15  L 62,15  L 62,16  L 63,16  L 63,17  L 64,17  L 64,21  L 65,21  L 65,23  L 64,23  L 64,24  L 63,24  L 63,25  L 60,25  L 60,26  L 58,26  L 58,27  L 55,27  L 55,28  L 51,28  L 51,29  L 48,29  L 48,30  L 42,30  L 42,31  L 37,31  L 37,32  L 34,32  L 34,33  L 30,33  L 30,34  L 28,34  L 28,35  L 27,35  L 27,36  L 26,36  L 26,37  L 25,37  L 25,39  L 26,39  L 26,40  L 25,40  L 25,47  L 26,47  L 26,48  L 25,48  L 25,49  L 26,49  L 26,50  L 25,50  L 25,52  L 26,52  L 26,54  L 27,54  L 27,57  L 29,57  L 29,58  L 37,58  L 37,60  L 38,60  L 38,61  L 37,61  L 37,79  L 36,79  L 36,90  L 35,90  L 35,91  L 26,91  L 26,92  Z  M 45,58  L 47,58  L 47,57  L 56,57  L 56,56  L 62,56  L 62,66  L 63,66  L 63,69  L 62,69  L 62,70  L 63,70  L 63,89  L 62,89  L 62,90  L 59,90  L 59,89  L 58,89  L 58,90  L 55,90  L 55,89  L 54,89  L 54,90  L 51,90  L 51,89  L 50,89  L 50,90  L 48,90  L 48,89  L 47,89  L 47,90  L 45,90  L 45,89  L 44,89  L 44,68  L 45,68  Z  " style="fill:rgb(0, 0, 0); fill-opacity:1.000; stroke:none;" />
 <path d="  M 63,136  L 63,135  L 61,135  L 61,134  L 59,134  L 59,133  L 58,133  L 58,131  L 57,131  L 57,127  L 58,127  L 58,125  L 59,125  L 59,124  L 60,124  L 60,123  L 61,123  L 61,122  L 63,122  L 63,120  L 65,120  L 65,118  L 66,118  L 66,117  L 67,117  L 67,115  L 68,115  L 68,114  L 69,114  L 69,112  L 70,112  L 70,109  L 69,109  L 69,107  L 68,107  L 68,108  L 67,108  L 67,109  L 64,109  L 64,110  L 62,110  L 62,111  L 59,111  L 59,112  L 58,112  L 58,114  L 57,114  L 57,115  L 55,115  L 55,116  L 54,116  L 54,117  L 53,117  L 53,120  L 52,120  L 52,121  L 51,121  L 51,123  L 50,123  L 50,125  L 49,125  L 49,126  L 48,126  L 48,129  L 46,129  L 46,130  L 45,130  L 45,131  L 44,131  L 44,132  L 43,132  L 43,133  L 41,133  L 41,134  L 40,134  L 40,135  L 39,135  L 39,136  L 38,136  L 38,137  L 37,137  L 37,139  L 36,139  L 36,140  L 35,140  L 35,142  L 34,142  L 34,143  L 33,143  L 33,144  L 32,144  L 32,145  L 31,145  L 31,146  L 30,146  L 30,147  L 29,147  L 29,148  L 28,148  L 28,150  L 27,150  L 27,151  L 26,151  L 26,152  L 25,152  L 25,153  L 24,153  L 24,155  L 22,155  L 22,156  L 21,156  L 21,157  L 20,157  L 20,158  L 19,158  L 19,159  L 18,159  L 18,160  L 17,160  L 17,162  L 16,162  L 16,165  L 17,165  L 17,166  L 25,166  L 25,165  L 26,165  L 26,164  L 27,164  L 27,163  L 28,163  L 28,162  L 29,162  L 29,161  L 30,161  L 30,160  L 31,160  L 31,159  L 32,159  L 32,158  L 33,158  L 33,156  L 35,156  L 35,154  L 37,154  L 37,152  L 39,152  L 39,150  L 41,150  L 41,148  L 43,148  L 43,147  L 44,147  L 44,146  L 45,146  L 45,144  L 47,144  L 47,143  L 48,143  L 48,142  L 49,142  L 49,140  L 51,140  L 51,139  L 54,139  L 54,140  L 55,140  L 55,141  L 57,141  L 57,142  L 59,142  L 59,143  L 60,143  L 60,144  L 62,144  L 62,145  L 63,145  L 63,146  L 65,146  L 65,147  L 68,147  L 68,148  L 69,148  L 69,149  L 71,149  L 71,150  L 73,150  L 73,151  L 76,151  L 76,152  L 78,152  L 78,153  L 80,153  L 80,154  L 83,154  L 83,155  L 85,155  L 85,156  L 89,156  L 89,157  L 91,157  L 91,158  L 96,158  L 96,159  L 97,159  L 97,160  L 96,160  L 96,162  L 97,162  L 97,164  L 98,164  L 98,166  L 104,166  L 104,165  L 105,165  L 105,164  L 107,164  L 107,163  L 108,163  L 108,156  L 104,156  L 104,155  L 99,155  L 99,154  L 97,154  L 97,153  L 96,153  L 96,152  L 92,152  L 92,151  L 90,151  L 90,150  L 88,150  L 88,149  L 86,149  L 86,148  L 83,148  L 83,147  L 82,147  L 82,146  L 79,146  L 79,145  L 78,145  L 78,144  L 75,144  L 75,143  L 73,143  L 73,142  L 72,142  L 72,141  L 70,141  L 70,140  L 68,140  L 68,139  L 66,139  L 66,137  L 64,137  L 64,136  Z  " style="fill:rgb(0, 0, 0); fill-opacity:1.000; stroke:none;" />
</svg>
