<?xml version="1.0" encoding="UTF-8" standalone="no"?>
<!DOCTYPE svg PUBLIC "-//W3C//DTD SVG 1.1//EN" 
  "http://www.w3.org/Graphics/SVG/1.1/DTD/svg11.dtd">
<svg width="103" height="195"
     xmlns="http://www.w3.org/2000/svg" version="1.1">
 <path d="  M 62,94  L 63,94  L 63,93  L 62,93  L 62,90  L 63,90  L 63,89  L 62,89  L 62,86  L 63,86  L 63,85  L 62,85  L 62,81  L 63,81  L 63,80  L 80,80  L 80,79  L 81,79  L 81,80  L 82,80  L 82,79  L 83,79  L 83,80  L 84,80  L 84,79  L 95,79  L 95,78  L 96,78  L 96,79  L 98,79  L 98,78  L 101,78  L 101,77  L 103,77  L 103,73  L 101,73  L 101,72  L 100,72  L 100,71  L 98,71  L 98,70  L 96,70  L 96,71  L 86,71  L 86,72  L 78,72  L 78,73  L 58,73  L 58,74  L 57,74  L 57,73  L 54,73  L 54,74  L 53,74  L 53,73  L 52,73  L 52,74  L 49,74  L 49,73  L 48,73  L 48,74  L 47,74  L 47,73  L 46,73  L 46,74  L 45,74  L 45,73  L 44,73  L 44,74  L 30,74  L 30,75  L 22,75  L 22,76  L 10,76  L 10,75  L 3,75  L 3,76  L 2,76  L 2,77  L 1,77  L 1,82  L 2,82  L 2,83  L 14,83  L 14,82  L 16,82  L 16,83  L 17,83  L 17,82  L 32,82  L 32,81  L 48,81  L 48,80  L 53,80  L 53,81  L 54,81  L 54,90  L 55,90  L 55,111  L 56,111  L 56,114  L 57,114  L 57,119  L 58,119  L 58,120  L 61,120  L 61,118  L 62,118  L 62,98  L 63,98  L 63,97  L 62,97  Z  " style="fill:rgb(0, 0, 0); fill-opacity:1.000; stroke:none;" />
 <path d="  M 24,4  L 24,6  L 25,6  L 25,10  L 27,10  L 27,11  L 31,11  L 31,12  L 32,12  L 32,11  L 35,11  L 35,12  L 36,12  L 36,11  L 37,11  L 37,12  L 42,12  L 42,13  L 47,13  L 47,14  L 51,14  L 51,15  L 53,15  L 53,16  L 54,16  L 54,17  L 57,17  L 57,18  L 58,18  L 58,19  L 59,19  L 59,20  L 60,20  L 60,21  L 61,21  L 61,22  L 62,22  L 62,23  L 63,23  L 63,26  L 61,26  L 61,27  L 59,27  L 59,28  L 57,28  L 57,29  L 53,29  L 53,30  L 47,30  L 47,29  L 46,29  L 46,30  L 42,30  L 42,31  L 40,31  L 40,32  L 39,32  L 39,31  L 38,31  L 38,32  L 36,32  L 36,33  L 35,33  L 35,34  L 34,34  L 34,36  L 31,36  L 31,37  L 30,37  L 30,38  L 29,38  L 29,40  L 28,40  L 28,45  L 27,45  L 27,46  L 28,46  L 28,56  L 29,56  L 29,60  L 30,60  L 30,62  L 32,62  L 32,64  L 34,64  L 34,65  L 35,65  L 35,66  L 36,66  L 36,65  L 37,65  L 37,66  L 40,66  L 40,65  L 47,65  L 47,64  L 52,64  L 52,63  L 56,63  L 56,62  L 60,62  L 60,61  L 64,61  L 64,60  L 67,60  L 67,59  L 70,59  L 70,58  L 72,58  L 72,56  L 73,56  L 73,55  L 74,55  L 74,53  L 73,53  L 73,51  L 71,51  L 71,50  L 65,50  L 65,51  L 64,51  L 64,52  L 62,52  L 62,53  L 60,53  L 60,54  L 59,54  L 59,55  L 56,55  L 56,56  L 51,56  L 51,57  L 45,57  L 45,58  L 44,58  L 44,57  L 43,57  L 43,58  L 36,58  L 36,57  L 35,57  L 35,49  L 36,49  L 36,43  L 37,43  L 37,40  L 38,40  L 38,39  L 40,39  L 40,38  L 44,38  L 44,37  L 51,37  L 51,36  L 55,36  L 55,35  L 58,35  L 58,34  L 60,34  L 60,33  L 63,33  L 63,32  L 66,32  L 66,31  L 65,31  L 65,30  L 68,30  L 68,29  L 69,29  L 69,28  L 70,28  L 70,27  L 71,27  L 71,25  L 72,25  L 72,20  L 71,20  L 71,18  L 70,18  L 70,17  L 69,17  L 69,16  L 67,16  L 67,15  L 66,15  L 66,14  L 65,14  L 65,13  L 63,13  L 63,12  L 60,12  L 60,11  L 58,11  L 58,10  L 56,10  L 56,9  L 54,9  L 54,8  L 52,8  L 52,7  L 50,7  L 50,6  L 46,6  L 46,5  L 44,5  L 44,4  L 29,4  L 29,3  L 25,3  L 25,1  L 22,1  L 22,2  L 23,2  L 23,4  Z  " style="fill:rgb(0, 0, 0); fill-opacity:1.000; stroke:none;" />
 <path d="  M 40,195  L 40,193  L 41,193  L 41,191  L 42,191  L 42,190  L 44,190  L 44,189  L 45,189  L 45,188  L 46,188  L 46,187  L 48,187  L 48,188  L 52,188  L 52,189  L 53,189  L 53,188  L 60,188  L 60,187  L 62,187  L 62,186  L 67,186  L 67,185  L 69,185  L 69,184  L 72,184  L 72,183  L 74,183  L 74,182  L 77,182  L 77,181  L 79,181  L 79,180  L 81,180  L 81,179  L 84,179  L 84,178  L 86,178  L 86,177  L 88,177  L 88,176  L 90,176  L 90,175  L 91,175  L 91,174  L 92,174  L 92,172  L 93,172  L 93,171  L 92,171  L 92,167  L 90,167  L 90,166  L 91,166  L 91,158  L 90,158  L 90,148  L 91,148  L 91,147  L 90,147  L 90,146  L 91,146  L 91,140  L 92,140  L 92,135  L 93,135  L 93,127  L 92,127  L 92,121  L 91,121  L 91,113  L 90,113  L 90,109  L 89,109  L 89,103  L 88,103  L 88,101  L 87,101  L 87,99  L 86,99  L 86,97  L 83,97  L 83,100  L 82,100  L 82,104  L 83,104  L 83,105  L 82,105  L 82,106  L 83,106  L 83,118  L 84,118  L 84,128  L 85,128  L 85,132  L 84,132  L 84,133  L 83,133  L 83,134  L 80,134  L 80,135  L 75,135  L 75,136  L 72,136  L 72,137  L 61,137  L 61,138  L 56,138  L 56,139  L 54,139  L 54,138  L 53,138  L 53,139  L 45,139  L 45,138  L 39,138  L 39,137  L 36,137  L 36,136  L 34,136  L 34,135  L 32,135  L 32,134  L 30,134  L 30,133  L 29,133  L 29,128  L 30,128  L 30,126  L 31,126  L 31,122  L 32,122  L 32,118  L 33,118  L 33,112  L 34,112  L 34,105  L 31,105  L 31,106  L 30,106  L 30,108  L 28,108  L 28,110  L 27,110  L 27,113  L 26,113  L 26,116  L 25,116  L 25,122  L 24,122  L 24,128  L 23,128  L 23,138  L 24,138  L 24,139  L 23,139  L 23,142  L 24,142  L 24,144  L 23,144  L 23,146  L 24,146  L 24,149  L 23,149  L 23,150  L 24,150  L 24,152  L 23,152  L 23,154  L 24,154  L 24,157  L 23,157  L 23,158  L 24,158  L 24,173  L 25,173  L 25,180  L 26,180  L 26,183  L 27,183  L 27,184  L 28,184  L 28,186  L 29,186  L 29,187  L 30,187  L 30,188  L 31,188  L 31,190  L 33,190  L 33,191  L 34,191  L 34,192  L 35,192  L 35,193  L 36,193  L 36,194  L 37,194  L 37,195  Z  M 83,151  L 82,151  L 82,152  L 83,152  L 83,153  L 82,153  L 82,154  L 83,154  L 83,159  L 84,159  L 84,160  L 85,160  L 85,163  L 86,163  L 86,166  L 87,166  L 87,167  L 86,167  L 86,168  L 85,168  L 85,169  L 84,169  L 84,170  L 82,170  L 82,171  L 79,171  L 79,172  L 78,172  L 78,173  L 76,173  L 76,174  L 73,174  L 73,175  L 67,175  L 67,176  L 66,176  L 66,177  L 62,177  L 62,178  L 60,178  L 60,179  L 59,179  L 59,178  L 57,178  L 57,179  L 51,179  L 51,180  L 50,180  L 50,179  L 40,179  L 40,178  L 39,178  L 39,177  L 38,177  L 38,178  L 36,178  L 36,177  L 35,177  L 35,176  L 34,176  L 34,175  L 33,175  L 33,174  L 32,174  L 32,171  L 31,171  L 31,169  L 30,169  L 30,168  L 31,168  L 31,166  L 30,166  L 30,160  L 31,160  L 31,142  L 32,142  L 32,141  L 33,141  L 33,142  L 35,142  L 35,143  L 36,143  L 36,144  L 38,144  L 38,145  L 42,145  L 42,146  L 45,146  L 45,147  L 46,147  L 46,146  L 47,146  L 47,147  L 50,147  L 50,146  L 51,146  L 51,147  L 58,147  L 58,146  L 59,146  L 59,147  L 62,147  L 62,146  L 63,146  L 63,147  L 65,147  L 65,146  L 69,146  L 69,145  L 74,145  L 74,144  L 76,144  L 76,143  L 80,143  L 80,142  L 82,142  L 82,143  L 83,143  Z  " style="fill:rgb(0, 0, 0); fill-opacity:1.000; stroke:none;" />
</svg>
