<?xml version="1.0" encoding="UTF-8" standalone="no"?>
<!DOCTYPE svg PUBLIC "-//W3C//DTD SVG 1.1//EN" 
  "http://www.w3.org/Graphics/SVG/1.1/DTD/svg11.dtd">
<svg width="106" height="126"
     xmlns="http://www.w3.org/2000/svg" version="1.1">
 <path d="  M 14,83  L 20,83  L 20,82  L 26,82  L 26,81  L 37,81  L 37,80  L 38,80  L 38,81  L 43,81  L 43,80  L 45,80  L 45,79  L 52,79  L 52,78  L 56,78  L 56,77  L 62,77  L 62,76  L 66,76  L 66,75  L 70,75  L 70,74  L 74,74  L 74,73  L 76,73  L 76,72  L 80,72  L 80,71  L 83,71  L 83,70  L 86,70  L 86,69  L 87,69  L 87,68  L 89,68  L 89,69  L 91,69  L 91,67  L 90,67  L 90,66  L 89,66  L 89,65  L 87,65  L 87,64  L 86,64  L 86,63  L 85,63  L 85,62  L 82,62  L 82,63  L 80,63  L 80,65  L 79,65  L 79,66  L 77,66  L 77,67  L 75,67  L 75,68  L 69,68  L 69,69  L 65,69  L 65,70  L 61,70  L 61,71  L 53,71  L 53,72  L 47,72  L 47,73  L 38,73  L 38,74  L 30,74  L 30,75  L 23,75  L 23,76  L 18,76  L 18,77  L 11,77  L 11,78  L 10,78  L 10,77  L 9,77  L 9,78  L 4,78  L 4,79  L 2,79  L 2,81  L 0,81  L 0,83  L 1,83  L 1,84  L 2,84  L 2,85  L 3,85  L 3,86  L 6,86  L 6,85  L 11,85  L 11,84  L 14,84  Z  " style="fill:rgb(0, 0, 0); fill-opacity:1.000; stroke:none;" />
 <path d="  M 19,12  L 19,14  L 22,14  L 22,13  L 40,13  L 40,14  L 41,14  L 41,13  L 43,13  L 43,14  L 50,14  L 50,15  L 51,15  L 51,16  L 53,16  L 53,20  L 52,20  L 52,21  L 50,21  L 50,22  L 49,22  L 49,23  L 47,23  L 47,24  L 44,24  L 44,25  L 42,25  L 42,26  L 40,26  L 40,27  L 37,27  L 37,28  L 34,28  L 34,29  L 31,29  L 31,30  L 30,30  L 30,31  L 27,31  L 27,32  L 25,32  L 25,33  L 23,33  L 23,34  L 22,34  L 22,33  L 21,33  L 21,34  L 20,34  L 20,35  L 17,35  L 17,36  L 15,36  L 15,37  L 13,37  L 13,38  L 12,38  L 12,39  L 11,39  L 11,40  L 10,40  L 10,41  L 8,41  L 8,42  L 9,42  L 9,43  L 8,43  L 8,48  L 9,48  L 9,49  L 8,49  L 8,50  L 9,50  L 9,56  L 10,56  L 10,57  L 11,57  L 11,58  L 12,58  L 12,59  L 14,59  L 14,60  L 16,60  L 16,61  L 19,61  L 19,62  L 30,62  L 30,61  L 31,61  L 31,62  L 32,62  L 32,61  L 44,61  L 44,60  L 50,60  L 50,59  L 57,59  L 57,58  L 64,58  L 64,57  L 68,57  L 68,56  L 75,56  L 75,54  L 76,54  L 76,53  L 75,53  L 75,50  L 74,50  L 74,49  L 73,49  L 73,48  L 68,48  L 68,49  L 65,49  L 65,50  L 62,50  L 62,51  L 57,51  L 57,52  L 54,52  L 54,53  L 47,53  L 47,54  L 42,54  L 42,55  L 33,55  L 33,56  L 18,56  L 18,55  L 17,55  L 17,54  L 16,54  L 16,51  L 15,51  L 15,50  L 16,50  L 16,44  L 17,44  L 17,43  L 18,43  L 18,42  L 20,42  L 20,41  L 22,41  L 22,40  L 25,40  L 25,39  L 27,39  L 27,38  L 30,38  L 30,37  L 34,37  L 34,36  L 36,36  L 36,35  L 39,35  L 39,34  L 42,34  L 42,33  L 45,33  L 45,32  L 48,32  L 48,31  L 50,31  L 50,30  L 53,30  L 53,29  L 55,29  L 55,28  L 56,28  L 56,27  L 57,27  L 57,26  L 58,26  L 58,25  L 59,25  L 59,24  L 60,24  L 60,23  L 61,23  L 61,21  L 62,21  L 62,17  L 61,17  L 61,14  L 60,14  L 60,11  L 59,11  L 59,10  L 58,10  L 58,9  L 55,9  L 55,8  L 52,8  L 52,7  L 49,7  L 49,6  L 48,6  L 48,7  L 47,7  L 47,6  L 46,6  L 46,7  L 45,7  L 45,6  L 42,6  L 42,5  L 30,5  L 30,6  L 26,6  L 26,5  L 24,5  L 24,6  L 20,6  L 20,7  L 18,7  L 18,9  L 17,9  L 17,10  L 18,10  L 18,12  Z  " style="fill:rgb(0, 0, 0); fill-opacity:1.000; stroke:none;" />
 <path d="  M 40,85  L 39,85  L 39,105  L 38,105  L 38,111  L 37,111  L 37,112  L 38,112  L 38,113  L 37,113  L 37,119  L 36,119  L 36,120  L 37,120  L 37,124  L 38,124  L 38,125  L 39,125  L 39,126  L 40,126  L 40,125  L 42,125  L 42,124  L 44,124  L 44,123  L 43,123  L 43,121  L 44,121  L 44,111  L 45,111  L 45,100  L 46,100  L 46,90  L 45,90  L 45,87  L 46,87  L 46,86  L 45,86  L 45,84  L 44,84  L 44,82  L 41,82  L 41,83  L 40,83  Z  " style="fill:rgb(0, 0, 0); fill-opacity:1.000; stroke:none;" />
 <path d="  M 94,83  L 94,84  L 93,84  L 93,83  L 92,83  L 92,84  L 84,84  L 84,85  L 78,85  L 78,86  L 74,86  L 74,87  L 70,87  L 70,88  L 65,88  L 65,89  L 61,89  L 61,90  L 57,90  L 57,91  L 55,91  L 55,92  L 54,92  L 54,95  L 55,95  L 55,96  L 60,96  L 60,95  L 65,95  L 65,94  L 71,94  L 71,93  L 75,93  L 75,92  L 80,92  L 80,91  L 84,91  L 84,90  L 99,90  L 99,91  L 101,91  L 101,126  L 106,126  L 106,59  L 105,59  L 105,37  L 104,37  L 104,36  L 105,36  L 105,35  L 104,35  L 104,29  L 103,29  L 103,20  L 102,20  L 102,14  L 101,14  L 101,2  L 100,2  L 100,1  L 98,1  L 98,0  L 97,0  L 97,1  L 95,1  L 95,2  L 94,2  L 94,13  L 95,13  L 95,18  L 96,18  L 96,25  L 97,25  L 97,33  L 98,33  L 98,43  L 99,43  L 99,72  L 100,72  L 100,73  L 99,73  L 99,75  L 100,75  L 100,77  L 99,77  L 99,78  L 100,78  L 100,81  L 99,81  L 99,83  L 96,83  L 96,84  L 95,84  L 95,83  Z  " style="fill:rgb(0, 0, 0); fill-opacity:1.000; stroke:none;" />
</svg>
