<?xml version="1.0" encoding="UTF-8" standalone="no"?>
<!DOCTYPE svg PUBLIC "-//W3C//DTD SVG 1.1//EN" 
  "http://www.w3.org/Graphics/SVG/1.1/DTD/svg11.dtd">
<svg width="104" height="177"
     xmlns="http://www.w3.org/2000/svg" version="1.1">
 <path d="  M 47,82  L 48,82  L 48,81  L 47,81  L 47,79  L 48,79  L 48,77  L 49,77  L 49,76  L 61,76  L 61,75  L 70,75  L 70,74  L 75,74  L 75,73  L 78,73  L 78,72  L 79,72  L 79,73  L 80,73  L 80,72  L 82,72  L 82,71  L 86,71  L 86,70  L 87,70  L 87,66  L 86,66  L 86,65  L 85,65  L 85,64  L 82,64  L 82,63  L 78,63  L 78,64  L 75,64  L 75,65  L 73,65  L 73,66  L 70,66  L 70,67  L 67,67  L 67,68  L 62,68  L 62,69  L 55,69  L 55,70  L 48,70  L 48,71  L 41,71  L 41,72  L 36,72  L 36,73  L 30,73  L 30,74  L 24,74  L 24,75  L 19,75  L 19,76  L 16,76  L 16,77  L 12,77  L 12,78  L 8,78  L 8,79  L 4,79  L 4,80  L 3,80  L 3,81  L 2,81  L 2,80  L 1,80  L 1,81  L 0,81  L 0,85  L 3,85  L 3,87  L 4,87  L 4,86  L 5,86  L 5,87  L 7,87  L 7,86  L 9,86  L 9,85  L 12,85  L 12,84  L 14,84  L 14,83  L 18,83  L 18,82  L 22,82  L 22,81  L 24,81  L 24,80  L 30,80  L 30,79  L 35,79  L 35,78  L 40,78  L 40,79  L 41,79  L 41,80  L 40,80  L 40,87  L 41,87  L 41,88  L 40,88  L 40,89  L 41,89  L 41,90  L 40,90  L 40,91  L 41,91  L 41,92  L 40,92  L 40,93  L 41,93  L 41,94  L 40,94  L 40,95  L 41,95  L 41,96  L 40,96  L 40,99  L 41,99  L 41,100  L 40,100  L 40,113  L 42,113  L 42,115  L 46,115  L 46,114  L 47,114  L 47,111  L 48,111  L 48,110  L 47,110  Z  " style="fill:rgb(0, 0, 0); fill-opacity:1.000; stroke:none;" />
 <path d="  M 50,59  L 50,58  L 52,58  L 52,57  L 54,57  L 54,56  L 57,56  L 57,55  L 58,55  L 58,54  L 63,54  L 63,53  L 64,53  L 64,52  L 66,52  L 66,51  L 68,51  L 68,50  L 69,50  L 69,49  L 71,49  L 71,46  L 70,46  L 70,45  L 69,45  L 69,43  L 68,43  L 68,42  L 65,42  L 65,41  L 64,41  L 64,42  L 63,42  L 63,43  L 61,43  L 61,44  L 60,44  L 60,45  L 59,45  L 59,46  L 56,46  L 56,47  L 55,47  L 55,48  L 53,48  L 53,49  L 52,49  L 52,50  L 50,50  L 50,51  L 49,51  L 49,52  L 47,52  L 47,53  L 45,53  L 45,54  L 40,54  L 40,55  L 34,55  L 34,56  L 21,56  L 21,55  L 20,55  L 20,54  L 19,54  L 19,51  L 20,51  L 20,47  L 21,47  L 21,45  L 22,45  L 22,44  L 23,44  L 23,43  L 25,43  L 25,42  L 26,42  L 26,41  L 28,41  L 28,40  L 31,40  L 31,39  L 33,39  L 33,38  L 34,38  L 34,37  L 37,37  L 37,36  L 38,36  L 38,35  L 40,35  L 40,34  L 42,34  L 42,33  L 44,33  L 44,32  L 45,32  L 45,31  L 47,31  L 47,30  L 49,30  L 49,29  L 51,29  L 51,27  L 52,27  L 52,26  L 53,26  L 53,25  L 54,25  L 54,23  L 56,23  L 56,22  L 57,22  L 57,21  L 58,21  L 58,19  L 57,19  L 57,15  L 56,15  L 56,14  L 55,14  L 55,13  L 54,13  L 54,12  L 53,12  L 53,11  L 52,11  L 52,10  L 51,10  L 51,9  L 49,9  L 49,8  L 48,8  L 48,7  L 47,7  L 47,6  L 45,6  L 45,5  L 44,5  L 44,4  L 41,4  L 41,3  L 39,3  L 39,2  L 35,2  L 35,1  L 26,1  L 26,2  L 21,2  L 21,3  L 19,3  L 19,4  L 17,4  L 17,5  L 16,5  L 16,6  L 14,6  L 14,9  L 13,9  L 13,11  L 14,11  L 14,13  L 16,13  L 16,14  L 17,14  L 17,13  L 20,13  L 20,12  L 21,12  L 21,11  L 23,11  L 23,10  L 26,10  L 26,9  L 36,9  L 36,10  L 40,10  L 40,11  L 42,11  L 42,12  L 44,12  L 44,13  L 45,13  L 45,15  L 47,15  L 47,17  L 48,17  L 48,18  L 49,18  L 49,19  L 50,19  L 50,22  L 48,22  L 48,23  L 45,23  L 45,24  L 44,24  L 44,25  L 43,25  L 43,26  L 42,26  L 42,27  L 40,27  L 40,28  L 38,28  L 38,29  L 36,29  L 36,30  L 33,30  L 33,31  L 29,31  L 29,32  L 26,32  L 26,33  L 25,33  L 25,34  L 23,34  L 23,35  L 22,35  L 22,36  L 21,36  L 21,37  L 20,37  L 20,38  L 19,38  L 19,39  L 17,39  L 17,40  L 16,40  L 16,41  L 15,41  L 15,43  L 14,43  L 14,45  L 13,45  L 13,48  L 12,48  L 12,49  L 13,49  L 13,50  L 12,50  L 12,56  L 13,56  L 13,57  L 12,57  L 12,58  L 13,58  L 13,59  L 14,59  L 14,60  L 15,60  L 15,61  L 18,61  L 18,62  L 25,62  L 25,63  L 26,63  L 26,62  L 28,62  L 28,63  L 29,63  L 29,62  L 40,62  L 40,61  L 44,61  L 44,60  L 48,60  L 48,59  Z  " style="fill:rgb(0, 0, 0); fill-opacity:1.000; stroke:none;" />
 <path d="  M 90,131  L 90,132  L 93,132  L 93,133  L 95,133  L 95,134  L 97,134  L 97,137  L 98,137  L 98,140  L 97,140  L 97,150  L 96,150  L 96,156  L 95,156  L 95,164  L 94,164  L 94,170  L 93,170  L 93,177  L 99,177  L 99,175  L 100,175  L 100,173  L 101,173  L 101,168  L 102,168  L 102,163  L 103,163  L 103,162  L 102,162  L 102,161  L 103,161  L 103,155  L 104,155  L 104,154  L 103,154  L 103,152  L 104,152  L 104,133  L 103,133  L 103,131  L 102,131  L 102,129  L 101,129  L 101,128  L 100,128  L 100,127  L 98,127  L 98,126  L 96,126  L 96,125  L 92,125  L 92,124  L 88,124  L 88,123  L 82,123  L 82,122  L 81,122  L 81,123  L 78,123  L 78,122  L 77,122  L 77,123  L 69,123  L 69,124  L 68,124  L 68,123  L 67,123  L 67,124  L 59,124  L 59,125  L 52,125  L 52,126  L 47,126  L 47,127  L 43,127  L 43,128  L 40,128  L 40,129  L 36,129  L 36,130  L 33,130  L 33,132  L 32,132  L 32,133  L 33,133  L 33,134  L 34,134  L 34,135  L 35,135  L 35,136  L 40,136  L 40,135  L 45,135  L 45,134  L 50,134  L 50,133  L 56,133  L 56,132  L 66,132  L 66,131  L 67,131  L 67,132  L 68,132  L 68,131  L 78,131  L 78,130  L 79,130  L 79,131  L 82,131  L 82,130  L 83,130  L 83,131  Z  " style="fill:rgb(0, 0, 0); fill-opacity:1.000; stroke:none;" />
 <path d="  M 98,113  L 99,113  L 99,115  L 100,115  L 100,116  L 103,116  L 103,115  L 104,115  L 104,40  L 103,40  L 103,39  L 104,39  L 104,38  L 103,38  L 103,31  L 102,31  L 102,29  L 103,29  L 103,28  L 102,28  L 102,25  L 101,25  L 101,19  L 100,19  L 100,14  L 99,14  L 99,11  L 98,11  L 98,10  L 97,10  L 97,9  L 96,9  L 96,8  L 95,8  L 95,7  L 92,7  L 92,8  L 91,8  L 91,9  L 90,9  L 90,10  L 91,10  L 91,15  L 92,15  L 92,19  L 93,19  L 93,22  L 94,22  L 94,26  L 95,26  L 95,30  L 96,30  L 96,36  L 97,36  L 97,44  L 98,44  L 98,62  L 99,62  L 99,66  L 98,66  L 98,70  L 99,70  L 99,71  L 98,71  L 98,74  L 99,74  L 99,75  L 98,75  L 98,78  L 99,78  L 99,79  L 98,79  Z  " style="fill:rgb(0, 0, 0); fill-opacity:1.000; stroke:none;" />
</svg>
