<?xml version="1.0" encoding="UTF-8" standalone="no"?>
<!DOCTYPE svg PUBLIC "-//W3C//DTD SVG 1.1//EN" 
  "http://www.w3.org/Graphics/SVG/1.1/DTD/svg11.dtd">
<svg width="105" height="189"
     xmlns="http://www.w3.org/2000/svg" version="1.1">
 <path d="  M 37,97  L 38,97  L 38,98  L 37,98  L 37,99  L 38,99  L 38,110  L 39,110  L 39,116  L 40,116  L 40,117  L 42,117  L 42,118  L 44,118  L 44,117  L 47,117  L 47,116  L 48,116  L 48,117  L 51,117  L 51,118  L 52,118  L 52,117  L 53,117  L 53,118  L 61,118  L 61,119  L 67,119  L 67,120  L 69,120  L 69,121  L 71,121  L 71,122  L 72,122  L 72,123  L 74,123  L 74,124  L 75,124  L 75,126  L 76,126  L 76,129  L 75,129  L 75,132  L 74,132  L 74,134  L 73,134  L 73,135  L 74,135  L 74,137  L 73,137  L 73,139  L 72,139  L 72,142  L 71,142  L 71,143  L 70,143  L 70,144  L 68,144  L 68,145  L 67,145  L 67,146  L 65,146  L 65,147  L 63,147  L 63,148  L 60,148  L 60,149  L 58,149  L 58,150  L 56,150  L 56,151  L 54,151  L 54,152  L 52,152  L 52,153  L 51,153  L 51,154  L 50,154  L 50,155  L 48,155  L 48,156  L 46,156  L 46,158  L 45,158  L 45,159  L 47,159  L 47,160  L 48,160  L 48,161  L 50,161  L 50,162  L 48,162  L 48,164  L 49,164  L 49,165  L 48,165  L 48,169  L 50,169  L 50,166  L 51,166  L 51,165  L 50,165  L 50,163  L 51,163  L 51,161  L 52,161  L 52,160  L 54,160  L 54,159  L 56,159  L 56,158  L 58,158  L 58,159  L 59,159  L 59,158  L 61,158  L 61,157  L 64,157  L 64,156  L 66,156  L 66,155  L 69,155  L 69,154  L 72,154  L 72,153  L 73,153  L 73,152  L 74,152  L 74,151  L 76,151  L 76,150  L 77,150  L 77,148  L 78,148  L 78,144  L 79,144  L 79,141  L 80,141  L 80,140  L 79,140  L 79,139  L 81,139  L 81,137  L 82,137  L 82,135  L 83,135  L 83,134  L 84,134  L 84,133  L 85,133  L 85,128  L 84,128  L 84,124  L 83,124  L 83,123  L 82,123  L 82,120  L 81,120  L 81,118  L 79,118  L 79,117  L 78,117  L 78,115  L 77,115  L 77,114  L 75,114  L 75,113  L 72,113  L 72,112  L 68,112  L 68,111  L 65,111  L 65,110  L 62,110  L 62,109  L 49,109  L 49,110  L 47,110  L 47,108  L 46,108  L 46,107  L 45,107  L 45,100  L 44,100  L 44,84  L 45,84  L 45,83  L 44,83  L 44,81  L 53,81  L 53,80  L 54,80  L 54,81  L 59,81  L 59,80  L 60,80  L 60,81  L 61,81  L 61,80  L 62,80  L 62,81  L 63,81  L 63,80  L 74,80  L 74,79  L 79,79  L 79,78  L 84,78  L 84,77  L 85,77  L 85,75  L 86,75  L 86,70  L 85,70  L 85,69  L 80,69  L 80,70  L 77,70  L 77,71  L 74,71  L 74,72  L 68,72  L 68,73  L 67,73  L 67,72  L 66,72  L 66,73  L 30,73  L 30,74  L 29,74  L 29,73  L 28,73  L 28,74  L 27,74  L 27,73  L 26,73  L 26,74  L 20,74  L 20,75  L 14,75  L 14,76  L 9,76  L 9,77  L 7,77  L 7,78  L 5,78  L 5,79  L 3,79  L 3,80  L 1,80  L 1,82  L 0,82  L 0,83  L 1,83  L 1,84  L 0,84  L 0,85  L 3,85  L 3,86  L 4,86  L 4,85  L 9,85  L 9,84  L 10,84  L 10,83  L 15,83  L 15,82  L 21,82  L 21,81  L 32,81  L 32,80  L 33,80  L 33,81  L 38,81  L 38,90  L 37,90  L 37,93  L 38,93  L 38,94  L 37,94  L 37,95  L 38,95  L 38,96  L 37,96  Z  " style="fill:rgb(0, 0, 0); fill-opacity:1.000; stroke:none;" />
 <path d="  M 26,43  L 26,38  L 28,38  L 28,37  L 31,37  L 31,36  L 32,36  L 32,37  L 33,37  L 33,36  L 40,36  L 40,35  L 49,35  L 49,34  L 57,34  L 57,33  L 65,33  L 65,32  L 68,32  L 68,31  L 69,31  L 69,27  L 70,27  L 70,24  L 71,24  L 71,23  L 70,23  L 70,22  L 71,22  L 71,19  L 70,19  L 70,12  L 69,12  L 69,9  L 68,9  L 68,8  L 66,8  L 66,7  L 65,7  L 65,6  L 64,6  L 64,5  L 62,5  L 62,4  L 60,4  L 60,3  L 58,3  L 58,2  L 49,2  L 49,1  L 48,1  L 48,2  L 47,2  L 47,1  L 46,1  L 46,2  L 45,2  L 45,1  L 22,1  L 22,2  L 14,2  L 14,3  L 13,3  L 13,9  L 14,9  L 14,10  L 15,10  L 15,11  L 17,11  L 17,12  L 18,12  L 18,11  L 19,11  L 19,10  L 21,10  L 21,9  L 23,9  L 23,8  L 24,8  L 24,9  L 25,9  L 25,8  L 40,8  L 40,9  L 41,9  L 41,8  L 42,8  L 42,9  L 51,9  L 51,10  L 54,10  L 54,11  L 58,11  L 58,13  L 59,13  L 59,14  L 60,14  L 60,16  L 61,16  L 61,18  L 62,18  L 62,21  L 63,21  L 63,23  L 62,23  L 62,25  L 61,25  L 61,26  L 60,26  L 60,25  L 58,25  L 58,26  L 51,26  L 51,27  L 48,27  L 48,26  L 47,26  L 47,27  L 43,27  L 43,28  L 37,28  L 37,29  L 36,29  L 36,28  L 35,28  L 35,29  L 34,29  L 34,28  L 33,28  L 33,29  L 28,29  L 28,30  L 27,30  L 27,31  L 24,31  L 24,32  L 23,32  L 23,33  L 22,33  L 22,34  L 21,34  L 21,35  L 20,35  L 20,36  L 19,36  L 19,39  L 18,39  L 18,41  L 17,41  L 17,42  L 16,42  L 16,43  L 17,43  L 17,46  L 16,46  L 16,55  L 15,55  L 15,56  L 16,56  L 16,57  L 17,57  L 17,59  L 19,59  L 19,60  L 20,60  L 20,61  L 23,61  L 23,62  L 43,62  L 43,61  L 49,61  L 49,60  L 52,60  L 52,59  L 57,59  L 57,58  L 61,58  L 61,57  L 67,57  L 67,56  L 71,56  L 71,55  L 73,55  L 73,53  L 75,53  L 75,51  L 76,51  L 76,50  L 74,50  L 74,49  L 73,49  L 73,48  L 72,48  L 72,47  L 70,47  L 70,46  L 66,46  L 66,47  L 64,47  L 64,48  L 63,48  L 63,49  L 60,49  L 60,50  L 58,50  L 58,51  L 54,51  L 54,52  L 52,52  L 52,51  L 51,51  L 51,52  L 48,52  L 48,53  L 42,53  L 42,54  L 30,54  L 30,55  L 29,55  L 29,54  L 28,54  L 28,55  L 26,55  L 26,54  L 24,54  L 24,53  L 23,53  L 23,52  L 24,52  L 24,47  L 25,47  L 25,43  Z  " style="fill:rgb(0, 0, 0); fill-opacity:1.000; stroke:none;" />
 <path d="  M 72,180  L 72,181  L 68,181  L 68,182  L 58,182  L 58,181  L 54,181  L 54,180  L 51,180  L 51,179  L 48,179  L 48,185  L 49,185  L 49,187  L 51,187  L 51,188  L 53,188  L 53,189  L 71,189  L 71,188  L 74,188  L 74,187  L 79,187  L 79,186  L 81,186  L 81,185  L 84,185  L 84,184  L 86,184  L 86,183  L 88,183  L 88,182  L 89,182  L 89,181  L 91,181  L 91,180  L 92,180  L 92,179  L 95,179  L 95,177  L 96,177  L 96,176  L 98,176  L 98,175  L 99,175  L 99,173  L 101,173  L 101,172  L 102,172  L 102,171  L 104,171  L 104,169  L 105,169  L 105,166  L 103,166  L 103,165  L 102,165  L 102,166  L 98,166  L 98,167  L 96,167  L 96,168  L 93,168  L 93,169  L 92,169  L 92,171  L 89,171  L 89,172  L 87,172  L 87,174  L 85,174  L 85,176  L 81,176  L 81,177  L 79,177  L 79,178  L 77,178  L 77,179  L 75,179  L 75,180  Z  " style="fill:rgb(0, 0, 0); fill-opacity:1.000; stroke:none;" />
 <path d="  M 105,26  L 104,26  L 104,25  L 105,25  L 105,24  L 104,24  L 104,12  L 103,12  L 103,9  L 102,9  L 102,8  L 101,8  L 101,7  L 98,7  L 98,8  L 96,8  L 96,9  L 97,9  L 97,10  L 96,10  L 96,11  L 97,11  L 97,25  L 98,25  L 98,38  L 99,38  L 99,40  L 98,40  L 98,41  L 99,41  L 99,104  L 98,104  L 98,106  L 97,106  L 97,107  L 98,107  L 98,108  L 99,108  L 99,109  L 105,109  L 105,108  L 104,108  L 104,107  L 105,107  Z  " style="fill:rgb(0, 0, 0); fill-opacity:1.000; stroke:none;" />
</svg>
