<?xml version="1.0" encoding="UTF-8" standalone="no"?>
<!DOCTYPE svg PUBLIC "-//W3C//DTD SVG 1.1//EN" 
  "http://www.w3.org/Graphics/SVG/1.1/DTD/svg11.dtd">
<svg width="107" height="172"
     xmlns="http://www.w3.org/2000/svg" version="1.1">
 <path d="  M 31,84  L 31,83  L 34,83  L 34,82  L 35,82  L 35,83  L 36,83  L 36,85  L 37,85  L 37,87  L 36,87  L 36,90  L 37,90  L 37,91  L 36,91  L 36,106  L 37,106  L 37,107  L 36,107  L 36,109  L 37,109  L 37,112  L 38,112  L 38,113  L 39,113  L 39,114  L 42,114  L 42,113  L 43,113  L 43,111  L 44,111  L 44,110  L 43,110  L 43,109  L 44,109  L 44,108  L 43,108  L 43,107  L 44,107  L 44,102  L 45,102  L 45,100  L 44,100  L 44,99  L 45,99  L 45,89  L 44,89  L 44,88  L 45,88  L 45,87  L 46,87  L 46,86  L 45,86  L 45,84  L 46,84  L 46,81  L 66,81  L 66,84  L 65,84  L 65,87  L 66,87  L 66,93  L 67,93  L 67,94  L 66,94  L 66,95  L 67,95  L 67,102  L 68,102  L 68,106  L 69,106  L 69,109  L 70,109  L 70,113  L 71,113  L 71,117  L 72,117  L 72,119  L 73,119  L 73,121  L 75,121  L 75,122  L 77,122  L 77,121  L 79,121  L 79,114  L 78,114  L 78,113  L 79,113  L 79,112  L 78,112  L 78,109  L 77,109  L 77,104  L 76,104  L 76,100  L 75,100  L 75,90  L 74,90  L 74,81  L 75,81  L 75,80  L 76,80  L 76,81  L 85,81  L 85,80  L 86,80  L 86,81  L 88,81  L 88,80  L 91,80  L 91,79  L 95,79  L 95,78  L 97,78  L 97,77  L 98,77  L 98,75  L 99,75  L 99,74  L 100,74  L 100,72  L 99,72  L 99,71  L 96,71  L 96,70  L 95,70  L 95,71  L 94,71  L 94,72  L 93,72  L 93,73  L 90,73  L 90,74  L 87,74  L 87,75  L 85,75  L 85,74  L 69,74  L 69,73  L 66,73  L 66,74  L 65,74  L 65,73  L 58,73  L 58,74  L 57,74  L 57,73  L 54,73  L 54,74  L 53,74  L 53,73  L 51,73  L 51,74  L 49,74  L 49,73  L 47,73  L 47,74  L 41,74  L 41,75  L 40,75  L 40,74  L 39,74  L 39,75  L 33,75  L 33,76  L 26,76  L 26,77  L 21,77  L 21,78  L 18,78  L 18,79  L 11,79  L 11,80  L 7,80  L 7,81  L 2,81  L 2,83  L 0,83  L 0,87  L 2,87  L 2,88  L 7,88  L 7,87  L 12,87  L 12,86  L 18,86  L 18,85  L 23,85  L 23,84  L 24,84  L 24,85  L 26,85  L 26,84  L 28,84  L 28,83  L 29,83  L 29,84  Z  " style="fill:rgb(0, 0, 0); fill-opacity:1.000; stroke:none;" />
 <path d="  M 52,128  L 53,128  L 53,125  L 54,125  L 54,124  L 53,124  L 53,123  L 54,123  L 54,120  L 53,120  L 53,119  L 52,119  L 52,120  L 51,120  L 51,121  L 50,121  L 50,122  L 49,122  L 49,123  L 47,123  L 47,125  L 46,125  L 46,127  L 45,127  L 45,128  L 44,128  L 44,130  L 43,130  L 43,132  L 42,132  L 42,133  L 41,133  L 41,134  L 39,134  L 39,135  L 38,135  L 38,136  L 37,136  L 37,137  L 36,137  L 36,138  L 35,138  L 35,140  L 34,140  L 34,142  L 32,142  L 32,144  L 31,144  L 31,145  L 30,145  L 30,146  L 29,146  L 29,147  L 28,147  L 28,148  L 27,148  L 27,149  L 26,149  L 26,150  L 25,150  L 25,151  L 24,151  L 24,152  L 23,152  L 23,154  L 22,154  L 22,155  L 21,155  L 21,156  L 20,156  L 20,157  L 19,157  L 19,158  L 18,158  L 18,160  L 16,160  L 16,161  L 15,161  L 15,162  L 14,162  L 14,164  L 13,164  L 13,165  L 12,165  L 12,166  L 11,166  L 11,167  L 12,167  L 12,171  L 13,171  L 13,172  L 18,172  L 18,170  L 19,170  L 19,169  L 21,169  L 21,168  L 22,168  L 22,167  L 24,167  L 24,166  L 25,166  L 25,164  L 26,164  L 26,163  L 27,163  L 27,161  L 28,161  L 28,160  L 29,160  L 29,159  L 31,159  L 31,157  L 33,157  L 33,156  L 34,156  L 34,155  L 35,155  L 35,154  L 36,154  L 36,153  L 37,153  L 37,152  L 38,152  L 38,151  L 39,151  L 39,149  L 40,149  L 40,148  L 41,148  L 41,147  L 43,147  L 43,145  L 44,145  L 44,144  L 45,144  L 45,143  L 46,143  L 46,142  L 47,142  L 47,141  L 50,141  L 50,142  L 51,142  L 51,143  L 53,143  L 53,144  L 55,144  L 55,145  L 56,145  L 56,146  L 58,146  L 58,147  L 60,147  L 60,148  L 61,148  L 61,149  L 64,149  L 64,150  L 66,150  L 66,151  L 68,151  L 68,152  L 70,152  L 70,153  L 72,153  L 72,154  L 74,154  L 74,155  L 78,155  L 78,156  L 80,156  L 80,157  L 83,157  L 83,158  L 86,158  L 86,159  L 89,159  L 89,160  L 92,160  L 92,161  L 94,161  L 94,162  L 95,162  L 95,163  L 96,163  L 96,164  L 95,164  L 95,165  L 96,165  L 96,167  L 97,167  L 97,168  L 100,168  L 100,167  L 101,167  L 101,168  L 102,168  L 102,167  L 103,167  L 103,166  L 105,166  L 105,165  L 107,165  L 107,160  L 106,160  L 106,159  L 105,159  L 105,158  L 99,158  L 99,157  L 96,157  L 96,156  L 95,156  L 95,155  L 93,155  L 93,154  L 89,154  L 89,153  L 88,153  L 88,152  L 86,152  L 86,151  L 83,151  L 83,150  L 81,150  L 81,149  L 79,149  L 79,148  L 77,148  L 77,147  L 75,147  L 75,146  L 72,146  L 72,145  L 71,145  L 71,144  L 69,144  L 69,143  L 67,143  L 67,142  L 65,142  L 65,141  L 64,141  L 64,140  L 62,140  L 62,139  L 61,139  L 61,138  L 59,138  L 59,137  L 57,137  L 57,136  L 56,136  L 56,135  L 55,135  L 55,134  L 54,134  L 54,133  L 53,133  L 53,132  L 52,132  Z  " style="fill:rgb(0, 0, 0); fill-opacity:1.000; stroke:none;" />
 <path d="  M 64,59  L 66,59  L 66,58  L 68,58  L 68,57  L 69,57  L 69,55  L 70,55  L 70,52  L 69,52  L 69,51  L 68,51  L 68,50  L 67,50  L 67,49  L 66,49  L 66,50  L 64,50  L 64,49  L 63,49  L 63,50  L 61,50  L 61,52  L 60,52  L 60,53  L 58,53  L 58,54  L 57,54  L 57,55  L 53,55  L 53,56  L 50,56  L 50,57  L 49,57  L 49,56  L 48,56  L 48,57  L 45,57  L 45,58  L 34,58  L 34,59  L 33,59  L 33,58  L 30,58  L 30,57  L 29,57  L 29,54  L 30,54  L 30,53  L 29,53  L 29,52  L 30,52  L 30,48  L 31,48  L 31,47  L 32,47  L 32,45  L 33,45  L 33,43  L 34,43  L 34,42  L 36,42  L 36,41  L 38,41  L 38,40  L 39,40  L 39,41  L 40,41  L 40,40  L 41,40  L 41,39  L 43,39  L 43,38  L 46,38  L 46,37  L 49,37  L 49,36  L 52,36  L 52,35  L 54,35  L 54,34  L 57,34  L 57,33  L 59,33  L 59,31  L 61,31  L 61,30  L 62,30  L 62,29  L 63,29  L 63,28  L 65,28  L 65,27  L 66,27  L 66,25  L 67,25  L 67,18  L 66,18  L 66,17  L 67,17  L 67,16  L 66,16  L 66,15  L 64,15  L 64,14  L 63,14  L 63,13  L 61,13  L 61,12  L 60,12  L 60,11  L 57,11  L 57,10  L 56,10  L 56,9  L 54,9  L 54,8  L 52,8  L 52,7  L 50,7  L 50,6  L 48,6  L 48,5  L 46,5  L 46,4  L 43,4  L 43,3  L 40,3  L 40,2  L 33,2  L 33,1  L 30,1  L 30,2  L 29,2  L 29,1  L 27,1  L 27,2  L 23,2  L 23,1  L 18,1  L 18,2  L 17,2  L 17,3  L 16,3  L 16,9  L 17,9  L 17,10  L 18,10  L 18,11  L 19,11  L 19,12  L 20,12  L 20,11  L 21,11  L 21,10  L 23,10  L 23,9  L 27,9  L 27,8  L 28,8  L 28,9  L 29,9  L 29,8  L 36,8  L 36,9  L 40,9  L 40,10  L 42,10  L 42,11  L 45,11  L 45,12  L 48,12  L 48,13  L 49,13  L 49,14  L 51,14  L 51,15  L 52,15  L 52,16  L 54,16  L 54,17  L 55,17  L 55,18  L 56,18  L 56,19  L 57,19  L 57,20  L 58,20  L 58,23  L 59,23  L 59,24  L 58,24  L 58,25  L 57,25  L 57,26  L 56,26  L 56,27  L 54,27  L 54,28  L 50,28  L 50,29  L 46,29  L 46,30  L 41,30  L 41,31  L 40,31  L 40,30  L 39,30  L 39,31  L 38,31  L 38,32  L 35,32  L 35,33  L 34,33  L 34,34  L 33,34  L 33,35  L 32,35  L 32,36  L 31,36  L 31,37  L 30,37  L 30,38  L 29,38  L 29,37  L 26,37  L 26,38  L 25,38  L 25,39  L 24,39  L 24,40  L 23,40  L 23,41  L 24,41  L 24,42  L 23,42  L 23,52  L 22,52  L 22,57  L 23,57  L 23,60  L 24,60  L 24,61  L 25,61  L 25,63  L 26,63  L 26,64  L 28,64  L 28,65  L 30,65  L 30,66  L 33,66  L 33,65  L 44,65  L 44,64  L 50,64  L 50,63  L 55,63  L 55,62  L 59,62  L 59,61  L 63,61  L 63,60  L 64,60  Z  " style="fill:rgb(0, 0, 0); fill-opacity:1.000; stroke:none;" />
</svg>
