<?xml version="1.0" encoding="UTF-8" standalone="no"?>
<!DOCTYPE svg PUBLIC "-//W3C//DTD SVG 1.1//EN" 
  "http://www.w3.org/Graphics/SVG/1.1/DTD/svg11.dtd">
<svg width="101" height="172"
     xmlns="http://www.w3.org/2000/svg" version="1.1">
 <path d="  M 39,87  L 40,87  L 40,89  L 39,89  L 39,91  L 40,91  L 40,116  L 39,116  L 39,118  L 38,118  L 38,119  L 37,119  L 37,121  L 35,121  L 35,123  L 34,123  L 34,124  L 33,124  L 33,125  L 32,125  L 32,126  L 31,126  L 31,127  L 30,127  L 30,128  L 29,128  L 29,130  L 28,130  L 28,131  L 27,131  L 27,132  L 25,132  L 25,134  L 23,134  L 23,137  L 22,137  L 22,138  L 21,138  L 21,142  L 20,142  L 20,155  L 21,155  L 21,157  L 22,157  L 22,161  L 23,161  L 23,162  L 24,162  L 24,164  L 25,164  L 25,165  L 26,165  L 26,166  L 27,166  L 27,167  L 28,167  L 28,168  L 29,168  L 29,169  L 30,169  L 30,170  L 32,170  L 32,171  L 34,171  L 34,172  L 60,172  L 60,171  L 65,171  L 65,170  L 69,170  L 69,169  L 72,169  L 72,168  L 73,168  L 73,167  L 75,167  L 75,166  L 77,166  L 77,165  L 78,165  L 78,164  L 79,164  L 79,162  L 80,162  L 80,161  L 81,161  L 81,159  L 82,159  L 82,155  L 83,155  L 83,152  L 84,152  L 84,149  L 85,149  L 85,146  L 86,146  L 86,136  L 87,136  L 87,135  L 86,135  L 86,131  L 85,131  L 85,128  L 84,128  L 84,126  L 83,126  L 83,125  L 82,125  L 82,123  L 81,123  L 81,122  L 80,122  L 80,120  L 79,120  L 79,119  L 78,119  L 78,118  L 77,118  L 77,117  L 76,117  L 76,114  L 75,114  L 75,82  L 76,82  L 76,81  L 85,81  L 85,80  L 97,80  L 97,79  L 100,79  L 100,78  L 101,78  L 101,73  L 100,73  L 100,72  L 98,72  L 98,71  L 93,71  L 93,72  L 90,72  L 90,73  L 89,73  L 89,72  L 88,72  L 88,73  L 87,73  L 87,72  L 86,72  L 86,73  L 79,73  L 79,74  L 74,74  L 74,75  L 71,75  L 71,74  L 70,74  L 70,75  L 69,75  L 69,74  L 68,74  L 68,75  L 63,75  L 63,74  L 62,74  L 62,75  L 61,75  L 61,74  L 60,74  L 60,75  L 59,75  L 59,74  L 58,74  L 58,75  L 55,75  L 55,74  L 54,74  L 54,75  L 53,75  L 53,74  L 52,74  L 52,75  L 39,75  L 39,76  L 38,76  L 38,75  L 37,75  L 37,76  L 28,76  L 28,77  L 21,77  L 21,78  L 17,78  L 17,79  L 11,79  L 11,80  L 3,80  L 3,81  L 1,81  L 1,82  L 0,82  L 0,85  L 3,85  L 3,86  L 11,86  L 11,85  L 15,85  L 15,84  L 24,84  L 24,83  L 25,83  L 25,84  L 27,84  L 27,83  L 30,83  L 30,84  L 31,84  L 31,83  L 37,83  L 37,82  L 38,82  L 38,83  L 39,83  L 39,84  L 40,84  L 40,86  L 39,86  Z  M 50,123  L 50,122  L 64,122  L 64,123  L 69,123  L 69,124  L 70,124  L 70,125  L 72,125  L 72,126  L 73,126  L 73,127  L 75,127  L 75,129  L 76,129  L 76,131  L 77,131  L 77,134  L 78,134  L 78,137  L 79,137  L 79,138  L 78,138  L 78,139  L 79,139  L 79,140  L 78,140  L 78,141  L 79,141  L 79,143  L 78,143  L 78,145  L 77,145  L 77,149  L 76,149  L 76,151  L 75,151  L 75,155  L 74,155  L 74,157  L 73,157  L 73,158  L 72,158  L 72,160  L 70,160  L 70,161  L 69,161  L 69,162  L 68,162  L 68,163  L 65,163  L 65,164  L 61,164  L 61,165  L 58,165  L 58,164  L 57,164  L 57,165  L 54,165  L 54,166  L 53,166  L 53,165  L 52,165  L 52,166  L 45,166  L 45,165  L 44,165  L 44,166  L 42,166  L 42,165  L 38,165  L 38,164  L 35,164  L 35,163  L 33,163  L 33,162  L 32,162  L 32,161  L 31,161  L 31,160  L 30,160  L 30,159  L 29,159  L 29,157  L 28,157  L 28,154  L 27,154  L 27,151  L 28,151  L 28,150  L 27,150  L 27,145  L 28,145  L 28,142  L 29,142  L 29,139  L 30,139  L 30,138  L 31,138  L 31,136  L 32,136  L 32,134  L 33,134  L 33,133  L 34,133  L 34,132  L 35,132  L 35,131  L 37,131  L 37,130  L 38,130  L 38,129  L 39,129  L 39,128  L 40,128  L 40,127  L 41,127  L 41,126  L 42,126  L 42,125  L 43,125  L 43,124  L 45,124  L 45,123  Z  M 59,114  L 59,113  L 58,113  L 58,114  L 56,114  L 56,113  L 54,113  L 54,114  L 53,114  L 53,113  L 52,113  L 52,112  L 51,112  L 51,111  L 50,111  L 50,110  L 49,110  L 49,106  L 48,106  L 48,98  L 47,98  L 47,83  L 49,83  L 49,82  L 59,82  L 59,81  L 60,81  L 60,82  L 61,82  L 61,81  L 67,81  L 67,82  L 68,82  L 68,84  L 67,84  L 67,86  L 68,86  L 68,88  L 67,88  L 67,97  L 68,97  L 68,100  L 67,100  L 67,101  L 68,101  L 68,103  L 67,103  L 67,105  L 68,105  L 68,106  L 67,106  L 67,107  L 68,107  L 68,110  L 67,110  L 67,112  L 69,112  L 69,113  L 68,113  L 68,114  Z  " style="fill:rgb(0, 0, 0); fill-opacity:1.000; stroke:none;" />
 <path d="  M 61,51  L 61,52  L 60,52  L 60,53  L 58,53  L 58,54  L 57,54  L 57,55  L 53,55  L 53,56  L 50,56  L 50,57  L 46,57  L 46,58  L 39,58  L 39,59  L 34,59  L 34,58  L 33,58  L 33,57  L 32,57  L 32,52  L 33,52  L 33,50  L 32,50  L 32,49  L 33,49  L 33,45  L 34,45  L 34,42  L 35,42  L 35,41  L 36,41  L 36,40  L 37,40  L 37,39  L 40,39  L 40,38  L 46,38  L 46,37  L 49,37  L 49,36  L 52,36  L 52,35  L 53,35  L 53,34  L 55,34  L 55,33  L 56,33  L 56,32  L 58,32  L 58,31  L 60,31  L 60,30  L 61,30  L 61,29  L 62,29  L 62,30  L 63,30  L 63,29  L 64,29  L 64,28  L 65,28  L 65,27  L 66,27  L 66,26  L 67,26  L 67,25  L 68,25  L 68,23  L 69,23  L 69,18  L 68,18  L 68,17  L 67,17  L 67,15  L 66,15  L 66,14  L 65,14  L 65,13  L 64,13  L 64,12  L 62,12  L 62,11  L 61,11  L 61,10  L 60,10  L 60,9  L 59,9  L 59,8  L 57,8  L 57,7  L 55,7  L 55,6  L 53,6  L 53,5  L 51,5  L 51,4  L 49,4  L 49,3  L 46,3  L 46,2  L 42,2  L 42,1  L 41,1  L 41,2  L 40,2  L 40,1  L 33,1  L 33,2  L 32,2  L 32,1  L 31,1  L 31,2  L 24,2  L 24,1  L 22,1  L 22,0  L 21,0  L 21,1  L 20,1  L 20,7  L 19,7  L 19,9  L 20,9  L 20,10  L 21,10  L 21,11  L 22,11  L 22,10  L 27,10  L 27,9  L 30,9  L 30,8  L 43,8  L 43,9  L 46,9  L 46,10  L 49,10  L 49,11  L 50,11  L 50,12  L 52,12  L 52,13  L 54,13  L 54,14  L 55,14  L 55,15  L 56,15  L 56,16  L 57,16  L 57,17  L 58,17  L 58,18  L 59,18  L 59,20  L 60,20  L 60,22  L 59,22  L 59,23  L 58,23  L 58,24  L 54,24  L 54,26  L 53,26  L 53,27  L 51,27  L 51,28  L 48,28  L 48,29  L 42,29  L 42,30  L 40,30  L 40,31  L 39,31  L 39,32  L 38,32  L 38,33  L 34,33  L 34,34  L 33,34  L 33,35  L 32,35  L 32,36  L 31,36  L 31,37  L 28,37  L 28,38  L 27,38  L 27,39  L 26,39  L 26,41  L 25,41  L 25,56  L 26,56  L 26,60  L 27,60  L 27,62  L 28,62  L 28,63  L 29,63  L 29,64  L 30,64  L 30,65  L 32,65  L 32,66  L 41,66  L 41,65  L 43,65  L 43,66  L 44,66  L 44,65  L 49,65  L 49,64  L 53,64  L 53,63  L 57,63  L 57,62  L 58,62  L 58,61  L 62,61  L 62,60  L 65,60  L 65,59  L 66,59  L 66,58  L 68,58  L 68,57  L 70,57  L 70,55  L 71,55  L 71,52  L 70,52  L 70,51  L 68,51  L 68,50  L 63,50  L 63,51  Z  " style="fill:rgb(0, 0, 0); fill-opacity:1.000; stroke:none;" />
 <path d="  M 65,29  L 66,29  L 66,28  L 65,28  Z  " style="fill:rgb(0, 0, 0); fill-opacity:1.000; stroke:none;" />
</svg>
