<?xml version="1.0" encoding="UTF-8" standalone="no"?>
<!DOCTYPE svg PUBLIC "-//W3C//DTD SVG 1.1//EN" 
  "http://www.w3.org/Graphics/SVG/1.1/DTD/svg11.dtd">
<svg width="104" height="172"
     xmlns="http://www.w3.org/2000/svg" version="1.1">
 <path d="  M 3,108  L 15,108  L 15,107  L 27,107  L 27,106  L 36,106  L 36,105  L 53,105  L 53,104  L 55,104  L 55,105  L 56,105  L 56,104  L 65,104  L 65,103  L 73,103  L 73,102  L 74,102  L 74,103  L 75,103  L 75,102  L 85,102  L 85,101  L 96,101  L 96,100  L 99,100  L 99,99  L 100,99  L 100,98  L 101,98  L 101,93  L 100,93  L 100,92  L 97,92  L 97,91  L 96,91  L 96,92  L 92,92  L 92,93  L 86,93  L 86,94  L 76,94  L 76,95  L 55,95  L 55,96  L 54,96  L 54,95  L 53,95  L 53,96  L 28,96  L 28,97  L 25,97  L 25,98  L 20,98  L 20,99  L 17,99  L 17,100  L 10,100  L 10,101  L 9,101  L 9,100  L 8,100  L 8,101  L 5,101  L 5,100  L 4,100  L 4,101  L 2,101  L 2,102  L 0,102  L 0,105  L 1,105  L 1,106  L 2,106  L 2,107  L 3,107  Z  " style="fill:rgb(0, 0, 0); fill-opacity:1.000; stroke:none;" />
 <path d="  M 50,67  L 41,67  L 41,68  L 32,68  L 32,67  L 30,67  L 30,65  L 29,65  L 29,60  L 28,60  L 28,57  L 29,57  L 29,51  L 30,51  L 30,48  L 31,48  L 31,43  L 32,43  L 32,42  L 34,42  L 34,41  L 38,41  L 38,40  L 41,40  L 41,39  L 43,39  L 43,38  L 48,38  L 48,37  L 53,37  L 53,36  L 55,36  L 55,35  L 58,35  L 58,34  L 60,34  L 60,33  L 63,33  L 63,32  L 64,32  L 64,31  L 65,31  L 65,29  L 66,29  L 66,28  L 67,28  L 67,27  L 68,27  L 68,17  L 67,17  L 67,16  L 66,16  L 66,14  L 64,14  L 64,13  L 63,13  L 63,11  L 61,11  L 61,10  L 59,10  L 59,9  L 57,9  L 57,8  L 55,8  L 55,7  L 53,7  L 53,6  L 50,6  L 50,5  L 48,5  L 48,4  L 45,4  L 45,3  L 40,3  L 40,2  L 22,2  L 22,1  L 19,1  L 19,0  L 18,0  L 18,1  L 17,1  L 17,3  L 16,3  L 16,11  L 18,11  L 18,12  L 22,12  L 22,11  L 23,11  L 23,10  L 26,10  L 26,9  L 31,9  L 31,8  L 32,8  L 32,9  L 41,9  L 41,10  L 46,10  L 46,11  L 49,11  L 49,12  L 52,12  L 52,13  L 54,13  L 54,14  L 55,14  L 55,15  L 57,15  L 57,16  L 58,16  L 58,17  L 59,17  L 59,22  L 60,22  L 60,23  L 59,23  L 59,24  L 58,24  L 58,25  L 57,25  L 57,26  L 56,26  L 56,27  L 54,27  L 54,28  L 51,28  L 51,29  L 48,29  L 48,30  L 45,30  L 45,31  L 44,31  L 44,30  L 43,30  L 43,31  L 41,31  L 41,32  L 36,32  L 36,33  L 32,33  L 32,35  L 30,35  L 30,36  L 27,36  L 27,37  L 26,37  L 26,38  L 25,38  L 25,39  L 24,39  L 24,40  L 23,40  L 23,48  L 22,48  L 22,66  L 23,66  L 23,69  L 24,69  L 24,70  L 25,70  L 25,72  L 26,72  L 26,73  L 28,73  L 28,74  L 30,74  L 30,75  L 47,75  L 47,74  L 56,74  L 56,73  L 64,73  L 64,72  L 68,72  L 68,71  L 71,71  L 71,70  L 74,70  L 74,69  L 75,69  L 75,67  L 76,67  L 76,65  L 75,65  L 75,63  L 73,63  L 73,62  L 67,62  L 67,63  L 65,63  L 65,64  L 60,64  L 60,65  L 57,65  L 57,66  L 50,66  Z  " style="fill:rgb(0, 0, 0); fill-opacity:1.000; stroke:none;" />
 <path d="  M 21,139  L 20,139  L 20,141  L 21,141  L 21,143  L 20,143  L 20,145  L 21,145  L 21,146  L 20,146  L 20,154  L 21,154  L 21,155  L 20,155  L 20,167  L 21,167  L 21,171  L 23,171  L 23,172  L 39,172  L 39,171  L 45,171  L 45,170  L 56,170  L 56,169  L 66,169  L 66,168  L 67,168  L 67,169  L 69,169  L 69,168  L 71,168  L 71,169  L 72,169  L 72,168  L 75,168  L 75,169  L 76,169  L 76,168  L 81,168  L 81,167  L 87,167  L 87,166  L 92,166  L 92,165  L 97,165  L 97,164  L 102,164  L 102,163  L 104,163  L 104,157  L 101,157  L 101,156  L 99,156  L 99,157  L 98,157  L 98,156  L 97,156  L 97,157  L 94,157  L 94,158  L 90,158  L 90,159  L 85,159  L 85,160  L 78,160  L 78,161  L 77,161  L 77,160  L 76,160  L 76,161  L 73,161  L 73,160  L 72,160  L 72,161  L 57,161  L 57,162  L 56,162  L 56,161  L 55,161  L 55,162  L 42,162  L 42,163  L 41,163  L 41,162  L 39,162  L 39,163  L 37,163  L 37,162  L 35,162  L 35,164  L 34,164  L 34,163  L 33,163  L 33,164  L 28,164  L 28,160  L 27,160  L 27,159  L 28,159  L 28,143  L 29,143  L 29,142  L 28,142  L 28,139  L 29,139  L 29,138  L 28,138  L 28,137  L 29,137  L 29,125  L 30,125  L 30,122  L 31,122  L 31,118  L 32,118  L 32,115  L 31,115  L 31,114  L 29,114  L 29,115  L 28,115  L 28,116  L 25,116  L 25,117  L 24,117  L 24,119  L 23,119  L 23,120  L 22,120  L 22,125  L 21,125  L 21,136  L 20,136  L 20,137  L 21,137  Z  " style="fill:rgb(0, 0, 0); fill-opacity:1.000; stroke:none;" />
</svg>
