<?xml version="1.0" encoding="UTF-8" standalone="no"?>
<!DOCTYPE svg PUBLIC "-//W3C//DTD SVG 1.1//EN" 
  "http://www.w3.org/Graphics/SVG/1.1/DTD/svg11.dtd">
<svg width="102" height="178"
     xmlns="http://www.w3.org/2000/svg" version="1.1">
 <path d="  M 98,86  L 98,85  L 100,85  L 100,82  L 101,82  L 101,81  L 100,81  L 100,79  L 99,79  L 99,78  L 92,78  L 92,79  L 84,79  L 84,80  L 82,80  L 82,79  L 81,79  L 81,80  L 55,80  L 55,81  L 54,81  L 54,80  L 53,80  L 53,81  L 50,81  L 50,80  L 49,80  L 49,81  L 42,81  L 42,80  L 41,80  L 41,81  L 22,81  L 22,82  L 18,82  L 18,83  L 14,83  L 14,84  L 10,84  L 10,85  L 8,85  L 8,86  L 6,86  L 6,87  L 2,87  L 2,88  L 1,88  L 1,89  L 0,89  L 0,90  L 1,90  L 1,91  L 0,91  L 0,92  L 3,92  L 3,93  L 11,93  L 11,92  L 13,92  L 13,91  L 17,91  L 17,90  L 25,90  L 25,89  L 38,89  L 38,88  L 39,88  L 39,89  L 40,89  L 40,88  L 41,88  L 41,89  L 42,89  L 42,88  L 43,88  L 43,89  L 44,89  L 44,88  L 45,88  L 45,89  L 46,89  L 46,88  L 47,88  L 47,89  L 48,89  L 48,88  L 49,88  L 49,89  L 50,89  L 50,88  L 78,88  L 78,87  L 88,87  L 88,86  Z  " style="fill:rgb(0, 0, 0); fill-opacity:1.000; stroke:none;" />
 <path d="  M 14,11  L 15,11  L 15,12  L 16,12  L 16,13  L 17,13  L 17,12  L 20,12  L 20,11  L 23,11  L 23,10  L 26,10  L 26,9  L 27,9  L 27,10  L 28,10  L 28,9  L 43,9  L 43,10  L 46,10  L 46,11  L 49,11  L 49,12  L 51,12  L 51,13  L 54,13  L 54,14  L 56,14  L 56,15  L 57,15  L 57,16  L 58,16  L 58,17  L 57,17  L 57,18  L 58,18  L 58,19  L 59,19  L 59,20  L 60,20  L 60,23  L 61,23  L 61,24  L 60,24  L 60,25  L 51,25  L 51,26  L 50,26  L 50,25  L 49,25  L 49,26  L 47,26  L 47,27  L 38,27  L 38,28  L 35,28  L 35,29  L 33,29  L 33,30  L 31,30  L 31,31  L 30,31  L 30,32  L 29,32  L 29,31  L 28,31  L 28,32  L 26,32  L 26,33  L 25,33  L 25,35  L 24,35  L 24,37  L 23,37  L 23,38  L 22,38  L 22,40  L 21,40  L 21,50  L 20,50  L 20,51  L 21,51  L 21,58  L 22,58  L 22,61  L 23,61  L 23,63  L 24,63  L 24,66  L 26,66  L 26,67  L 27,67  L 27,68  L 29,68  L 29,69  L 36,69  L 36,68  L 39,68  L 39,69  L 40,69  L 40,68  L 46,68  L 46,67  L 49,67  L 49,66  L 54,66  L 54,64  L 58,64  L 58,63  L 61,63  L 61,62  L 63,62  L 63,61  L 66,61  L 66,60  L 68,60  L 68,59  L 69,59  L 69,58  L 70,58  L 70,56  L 72,56  L 72,55  L 73,55  L 73,53  L 74,53  L 74,52  L 73,52  L 73,51  L 70,51  L 70,50  L 65,50  L 65,51  L 62,51  L 62,52  L 60,52  L 60,53  L 58,53  L 58,54  L 56,54  L 56,55  L 54,55  L 54,56  L 49,56  L 49,57  L 45,57  L 45,58  L 41,58  L 41,59  L 34,59  L 34,60  L 31,60  L 31,59  L 29,59  L 29,58  L 28,58  L 28,50  L 29,50  L 29,49  L 28,49  L 28,42  L 29,42  L 29,40  L 32,40  L 32,39  L 33,39  L 33,38  L 36,38  L 36,37  L 39,37  L 39,36  L 42,36  L 42,37  L 43,37  L 43,36  L 48,36  L 48,35  L 54,35  L 54,34  L 61,34  L 61,33  L 63,33  L 63,32  L 64,32  L 64,31  L 65,31  L 65,30  L 68,30  L 68,28  L 69,28  L 69,27  L 70,27  L 70,18  L 69,18  L 69,15  L 68,15  L 68,12  L 67,12  L 67,11  L 66,11  L 66,10  L 65,10  L 65,9  L 64,9  L 64,8  L 61,8  L 61,7  L 58,7  L 58,6  L 55,6  L 55,5  L 51,5  L 51,4  L 47,4  L 47,3  L 42,3  L 42,2  L 37,2  L 37,1  L 33,1  L 33,2  L 25,2  L 25,3  L 20,3  L 20,2  L 19,2  L 19,1  L 17,1  L 17,0  L 14,0  Z  " style="fill:rgb(0, 0, 0); fill-opacity:1.000; stroke:none;" />
 <path d="  M 87,172  L 87,171  L 90,171  L 90,170  L 92,170  L 92,169  L 95,169  L 95,168  L 98,168  L 98,167  L 101,167  L 101,166  L 102,166  L 102,162  L 101,162  L 101,161  L 93,161  L 93,162  L 90,162  L 90,163  L 87,163  L 87,164  L 85,164  L 85,165  L 81,165  L 81,166  L 78,166  L 78,167  L 75,167  L 75,168  L 74,168  L 74,167  L 73,167  L 73,168  L 72,168  L 72,169  L 68,169  L 68,170  L 62,170  L 62,171  L 37,171  L 37,170  L 30,170  L 30,169  L 27,169  L 27,168  L 26,168  L 26,166  L 25,166  L 25,148  L 26,148  L 26,147  L 29,147  L 29,148  L 32,148  L 32,149  L 36,149  L 36,150  L 46,150  L 46,151  L 47,151  L 47,150  L 57,150  L 57,149  L 58,149  L 58,150  L 59,150  L 59,149  L 66,149  L 66,148  L 71,148  L 71,147  L 72,147  L 72,146  L 75,146  L 75,145  L 77,145  L 77,144  L 80,144  L 80,142  L 83,142  L 83,141  L 87,141  L 87,140  L 86,140  L 86,139  L 87,139  L 87,138  L 83,138  L 83,137  L 82,137  L 82,136  L 76,136  L 76,137  L 70,137  L 70,138  L 64,138  L 64,139  L 59,139  L 59,140  L 58,140  L 58,139  L 57,139  L 57,140  L 50,140  L 50,141  L 31,141  L 31,140  L 28,140  L 28,139  L 26,139  L 26,138  L 24,138  L 24,137  L 23,137  L 23,135  L 22,135  L 22,134  L 23,134  L 23,132  L 24,132  L 24,129  L 25,129  L 25,126  L 26,126  L 26,125  L 27,125  L 27,123  L 29,123  L 29,122  L 33,122  L 33,121  L 35,121  L 35,120  L 39,120  L 39,119  L 41,119  L 41,118  L 43,118  L 43,117  L 44,117  L 44,118  L 45,118  L 45,116  L 50,116  L 50,115  L 56,115  L 56,114  L 61,114  L 61,113  L 63,113  L 63,114  L 65,114  L 65,113  L 69,113  L 69,112  L 72,112  L 72,113  L 73,113  L 73,112  L 77,112  L 77,111  L 79,111  L 79,110  L 78,110  L 78,109  L 77,109  L 77,107  L 75,107  L 75,106  L 71,106  L 71,105  L 53,105  L 53,106  L 49,106  L 49,107  L 43,107  L 43,108  L 40,108  L 40,109  L 35,109  L 35,110  L 31,110  L 31,111  L 30,111  L 30,110  L 29,110  L 29,111  L 27,111  L 27,112  L 26,112  L 26,113  L 25,113  L 25,115  L 23,115  L 23,116  L 22,116  L 22,117  L 21,117  L 21,119  L 20,119  L 20,120  L 19,120  L 19,123  L 18,123  L 18,124  L 19,124  L 19,127  L 18,127  L 18,133  L 17,133  L 17,134  L 18,134  L 18,135  L 17,135  L 17,146  L 18,146  L 18,148  L 17,148  L 17,150  L 18,150  L 18,165  L 19,165  L 19,172  L 20,172  L 20,174  L 22,174  L 22,175  L 23,175  L 23,176  L 25,176  L 25,177  L 27,177  L 27,178  L 67,178  L 67,177  L 72,177  L 72,176  L 74,176  L 74,175  L 79,175  L 79,174  L 82,174  L 82,173  L 85,173  L 85,172  Z  " style="fill:rgb(0, 0, 0); fill-opacity:1.000; stroke:none;" />
 <path d="  M 60,24  L 60,23  L 59,23  L 59,24  Z  " style="fill:rgb(0, 0, 0); fill-opacity:1.000; stroke:none;" />
 <path d="  M 66,31  L 65,31  L 65,32  L 66,32  Z  " style="fill:rgb(0, 0, 0); fill-opacity:1.000; stroke:none;" />
</svg>
