<?xml version="1.0" encoding="UTF-8" standalone="no"?>
<!DOCTYPE svg PUBLIC "-//W3C//DTD SVG 1.1//EN" 
  "http://www.w3.org/Graphics/SVG/1.1/DTD/svg11.dtd">
<svg width="102" height="173"
     xmlns="http://www.w3.org/2000/svg" version="1.1">
 <path d="  M 89,70  L 89,71  L 85,71  L 85,72  L 79,72  L 79,73  L 58,73  L 58,74  L 57,74  L 57,73  L 54,73  L 54,74  L 52,74  L 52,73  L 50,73  L 50,74  L 48,74  L 48,73  L 47,73  L 47,74  L 33,74  L 33,75  L 26,75  L 26,76  L 25,76  L 25,75  L 24,75  L 24,76  L 17,76  L 17,77  L 14,77  L 14,78  L 4,78  L 4,79  L 1,79  L 1,82  L 0,82  L 0,85  L 1,85  L 1,86  L 2,86  L 2,87  L 4,87  L 4,86  L 7,86  L 7,85  L 13,85  L 13,84  L 18,84  L 18,83  L 29,83  L 29,82  L 35,82  L 35,81  L 37,81  L 37,82  L 38,82  L 38,81  L 47,81  L 47,80  L 76,80  L 76,79  L 86,79  L 86,78  L 92,78  L 92,77  L 95,77  L 95,75  L 96,75  L 96,72  L 95,72  L 95,70  L 94,70  L 94,69  L 92,69  L 92,70  Z  " style="fill:rgb(0, 0, 0); fill-opacity:1.000; stroke:none;" />
 <path d="  M 29,138  L 29,139  L 30,139  L 30,140  L 29,140  L 29,149  L 28,149  L 28,150  L 29,150  L 29,151  L 28,151  L 28,154  L 29,154  L 29,155  L 30,155  L 30,157  L 31,157  L 31,156  L 33,156  L 33,154  L 34,154  L 34,152  L 35,152  L 35,143  L 36,143  L 36,128  L 37,128  L 37,114  L 38,114  L 38,109  L 40,109  L 40,108  L 51,108  L 51,107  L 59,107  L 59,106  L 65,106  L 65,107  L 67,107  L 67,118  L 68,118  L 68,119  L 67,119  L 67,121  L 68,121  L 68,133  L 69,133  L 69,134  L 68,134  L 68,136  L 69,136  L 69,138  L 68,138  L 68,139  L 69,139  L 69,141  L 68,141  L 68,142  L 69,142  L 69,151  L 70,151  L 70,152  L 74,152  L 74,148  L 75,148  L 75,136  L 74,136  L 74,135  L 75,135  L 75,132  L 74,132  L 74,120  L 73,120  L 73,119  L 74,119  L 74,118  L 73,118  L 73,115  L 74,115  L 74,114  L 73,114  L 73,108  L 72,108  L 72,107  L 73,107  L 73,106  L 74,106  L 74,105  L 75,105  L 75,104  L 82,104  L 82,105  L 86,105  L 86,104  L 87,104  L 87,102  L 88,102  L 88,99  L 87,99  L 87,98  L 83,98  L 83,97  L 70,97  L 70,98  L 64,98  L 64,99  L 63,99  L 63,98  L 62,98  L 62,99  L 51,99  L 51,100  L 41,100  L 41,99  L 40,99  L 40,100  L 39,100  L 39,99  L 36,99  L 36,100  L 34,100  L 34,101  L 29,101  L 29,102  L 23,102  L 23,103  L 21,103  L 21,104  L 18,104  L 18,105  L 17,105  L 17,106  L 15,106  L 15,107  L 14,107  L 14,108  L 13,108  L 13,109  L 12,109  L 12,113  L 17,113  L 17,112  L 21,112  L 21,111  L 22,111  L 22,112  L 25,112  L 25,111  L 31,111  L 31,116  L 30,116  L 30,138  Z  " style="fill:rgb(0, 0, 0); fill-opacity:1.000; stroke:none;" />
 <path d="  M 52,34  L 52,33  L 57,33  L 57,32  L 60,32  L 60,31  L 63,31  L 63,30  L 64,30  L 64,29  L 65,29  L 65,27  L 66,27  L 66,26  L 67,26  L 67,25  L 68,25  L 68,23  L 69,23  L 69,22  L 68,22  L 68,17  L 67,17  L 67,15  L 66,15  L 66,14  L 65,14  L 65,13  L 62,13  L 62,12  L 61,12  L 61,11  L 58,11  L 58,10  L 57,10  L 57,9  L 54,9  L 54,8  L 51,8  L 51,7  L 50,7  L 50,6  L 46,6  L 46,5  L 44,5  L 44,4  L 41,4  L 41,3  L 32,3  L 32,2  L 26,2  L 26,3  L 24,3  L 24,2  L 21,2  L 21,1  L 18,1  L 18,0  L 16,0  L 16,1  L 15,1  L 15,6  L 16,6  L 16,13  L 18,13  L 18,12  L 21,12  L 21,11  L 24,11  L 24,10  L 40,10  L 40,11  L 44,11  L 44,12  L 47,12  L 47,13  L 48,13  L 48,14  L 50,14  L 50,15  L 53,15  L 53,16  L 55,16  L 55,17  L 56,17  L 56,18  L 57,18  L 57,19  L 59,19  L 59,22  L 60,22  L 60,23  L 59,23  L 59,25  L 56,25  L 56,26  L 53,26  L 53,27  L 47,27  L 47,28  L 43,28  L 43,29  L 39,29  L 39,30  L 36,30  L 36,31  L 32,31  L 32,32  L 31,32  L 31,33  L 29,33  L 29,34  L 28,34  L 28,35  L 26,35  L 26,36  L 25,36  L 25,37  L 24,37  L 24,38  L 23,38  L 23,42  L 22,42  L 22,43  L 23,43  L 23,44  L 22,44  L 22,52  L 21,52  L 21,54  L 22,54  L 22,57  L 21,57  L 21,58  L 22,58  L 22,59  L 23,59  L 23,60  L 24,60  L 24,62  L 25,62  L 25,63  L 27,63  L 27,64  L 30,64  L 30,65  L 35,65  L 35,64  L 42,64  L 42,63  L 47,63  L 47,62  L 51,62  L 51,61  L 55,61  L 55,60  L 59,60  L 59,59  L 62,59  L 62,58  L 66,58  L 66,57  L 69,57  L 69,56  L 70,56  L 70,55  L 71,55  L 71,54  L 72,54  L 72,50  L 71,50  L 71,49  L 70,49  L 70,48  L 63,48  L 63,49  L 62,49  L 62,50  L 61,50  L 61,51  L 60,51  L 60,52  L 59,52  L 59,51  L 58,51  L 58,52  L 57,52  L 57,53  L 55,53  L 55,54  L 52,54  L 52,55  L 47,55  L 47,56  L 42,56  L 42,57  L 39,57  L 39,58  L 36,58  L 36,59  L 31,59  L 31,58  L 30,58  L 30,57  L 29,57  L 29,56  L 28,56  L 28,51  L 29,51  L 29,46  L 30,46  L 30,44  L 31,44  L 31,41  L 32,41  L 32,39  L 35,39  L 35,38  L 37,38  L 37,37  L 40,37  L 40,36  L 44,36  L 44,35  L 47,35  L 47,34  Z  " style="fill:rgb(0, 0, 0); fill-opacity:1.000; stroke:none;" />
 <path d="  M 19,167  L 19,168  L 20,168  L 20,169  L 19,169  L 19,170  L 21,170  L 21,171  L 23,171  L 23,172  L 25,172  L 25,173  L 47,173  L 47,172  L 48,172  L 48,173  L 49,173  L 49,172  L 58,172  L 58,171  L 67,171  L 67,170  L 72,170  L 72,169  L 77,169  L 77,168  L 80,168  L 80,167  L 83,167  L 83,166  L 85,166  L 85,165  L 87,165  L 87,164  L 90,164  L 90,163  L 94,163  L 94,162  L 100,162  L 100,161  L 102,161  L 102,156  L 101,156  L 101,155  L 92,155  L 92,156  L 89,156  L 89,157  L 85,157  L 85,158  L 82,158  L 82,159  L 78,159  L 78,160  L 70,160  L 70,161  L 65,161  L 65,162  L 60,162  L 60,163  L 59,163  L 59,162  L 57,162  L 57,163  L 53,163  L 53,164  L 44,164  L 44,165  L 43,165  L 43,164  L 41,164  L 41,165  L 39,165  L 39,164  L 34,164  L 34,163  L 31,163  L 31,162  L 27,162  L 27,161  L 24,161  L 24,160  L 21,160  L 21,161  L 20,161  L 20,160  L 18,160  L 18,161  L 16,161  L 16,165  L 17,165  L 17,166  L 18,166  L 18,167  Z  " style="fill:rgb(0, 0, 0); fill-opacity:1.000; stroke:none;" />
</svg>
