<?xml version="1.0" encoding="UTF-8" standalone="no"?>
<!DOCTYPE svg PUBLIC "-//W3C//DTD SVG 1.1//EN" 
  "http://www.w3.org/Graphics/SVG/1.1/DTD/svg11.dtd">
<svg width="99" height="185"
     xmlns="http://www.w3.org/2000/svg" version="1.1">
 <path d="  M 3,64  L 4,64  L 4,78  L 5,78  L 5,81  L 6,81  L 6,83  L 7,83  L 7,85  L 8,85  L 8,86  L 9,86  L 9,87  L 11,87  L 11,88  L 14,88  L 14,89  L 16,89  L 16,90  L 18,90  L 18,91  L 27,91  L 27,90  L 33,90  L 33,89  L 39,89  L 39,88  L 44,88  L 44,87  L 48,87  L 48,86  L 52,86  L 52,85  L 53,85  L 53,84  L 54,84  L 54,83  L 55,83  L 55,81  L 56,81  L 56,78  L 48,78  L 48,79  L 44,79  L 44,80  L 40,80  L 40,81  L 35,81  L 35,82  L 30,82  L 30,83  L 24,83  L 24,84  L 23,84  L 23,83  L 22,83  L 22,84  L 21,84  L 21,83  L 18,83  L 18,82  L 16,82  L 16,81  L 14,81  L 14,80  L 13,80  L 13,79  L 12,79  L 12,77  L 11,77  L 11,73  L 10,73  L 10,57  L 11,57  L 11,55  L 13,55  L 13,54  L 16,54  L 16,53  L 19,53  L 19,52  L 22,52  L 22,51  L 25,51  L 25,50  L 28,50  L 28,49  L 29,49  L 29,48  L 32,48  L 32,47  L 34,47  L 34,46  L 36,46  L 36,45  L 38,45  L 38,44  L 41,44  L 41,43  L 42,43  L 42,42  L 45,42  L 45,41  L 46,41  L 46,40  L 49,40  L 49,39  L 50,39  L 50,38  L 52,38  L 52,36  L 53,36  L 53,34  L 54,34  L 54,32  L 55,32  L 55,25  L 54,25  L 54,24  L 53,24  L 53,22  L 52,22  L 52,20  L 51,20  L 51,19  L 49,19  L 49,18  L 48,18  L 48,17  L 46,17  L 46,16  L 43,16  L 43,15  L 40,15  L 40,14  L 37,14  L 37,13  L 28,13  L 28,12  L 21,12  L 21,11  L 17,11  L 17,10  L 7,10  L 7,11  L 6,11  L 6,14  L 5,14  L 5,15  L 6,15  L 6,16  L 7,16  L 7,18  L 21,18  L 21,19  L 23,19  L 23,18  L 24,18  L 24,19  L 31,19  L 31,20  L 32,20  L 32,19  L 34,19  L 34,20  L 37,20  L 37,21  L 39,21  L 39,22  L 41,22  L 41,23  L 43,23  L 43,24  L 44,24  L 44,25  L 46,25  L 46,26  L 47,26  L 47,32  L 45,32  L 45,33  L 44,33  L 44,34  L 41,34  L 41,35  L 39,35  L 39,36  L 36,36  L 36,37  L 33,37  L 33,38  L 31,38  L 31,39  L 29,39  L 29,40  L 28,40  L 28,41  L 27,41  L 27,42  L 24,42  L 24,43  L 22,43  L 22,44  L 21,44  L 21,45  L 18,45  L 18,46  L 14,46  L 14,47  L 10,47  L 10,48  L 8,48  L 8,49  L 6,49  L 6,51  L 4,51  L 4,52  L 3,52  L 3,53  L 2,53  L 2,55  L 0,55  L 0,56  L 2,56  L 2,57  L 3,57  Z  " style="fill:rgb(0, 0, 0); fill-opacity:1.000; stroke:none;" />
 <path d="  M 35,119  L 35,120  L 32,120  L 32,121  L 31,121  L 31,123  L 30,123  L 30,124  L 31,124  L 31,126  L 40,126  L 40,125  L 46,125  L 46,124  L 52,124  L 52,123  L 71,123  L 71,124  L 72,124  L 72,123  L 74,123  L 74,124  L 77,124  L 77,125  L 79,125  L 79,126  L 82,126  L 82,127  L 83,127  L 83,128  L 85,128  L 85,129  L 86,129  L 86,131  L 87,131  L 87,132  L 86,132  L 86,137  L 85,137  L 85,140  L 84,140  L 84,147  L 83,147  L 83,155  L 82,155  L 82,160  L 81,160  L 81,163  L 80,163  L 80,167  L 79,167  L 79,171  L 78,171  L 78,179  L 77,179  L 77,182  L 78,182  L 78,185  L 84,185  L 84,184  L 85,184  L 85,183  L 86,183  L 86,182  L 87,182  L 87,180  L 88,180  L 88,171  L 89,171  L 89,163  L 90,163  L 90,158  L 91,158  L 91,152  L 92,152  L 92,151  L 91,151  L 91,150  L 92,150  L 92,146  L 93,146  L 93,141  L 94,141  L 94,138  L 95,138  L 95,137  L 94,137  L 94,136  L 95,136  L 95,128  L 94,128  L 94,126  L 93,126  L 93,124  L 92,124  L 92,122  L 91,122  L 91,121  L 89,121  L 89,120  L 87,120  L 87,119  L 85,119  L 85,118  L 82,118  L 82,117  L 78,117  L 78,116  L 75,116  L 75,115  L 54,115  L 54,116  L 53,116  L 53,115  L 52,115  L 52,116  L 45,116  L 45,117  L 40,117  L 40,118  L 37,118  L 37,119  Z  " style="fill:rgb(0, 0, 0); fill-opacity:1.000; stroke:none;" />
 <path d="  M 87,7  L 88,7  L 88,10  L 89,10  L 89,15  L 90,15  L 90,22  L 91,22  L 91,23  L 90,23  L 90,24  L 91,24  L 91,34  L 92,34  L 92,37  L 91,37  L 91,38  L 92,38  L 92,41  L 91,41  L 91,42  L 92,42  L 92,45  L 91,45  L 91,46  L 92,46  L 92,49  L 91,49  L 91,50  L 92,50  L 92,53  L 91,53  L 91,54  L 92,54  L 92,57  L 91,57  L 91,58  L 92,58  L 92,61  L 91,61  L 91,62  L 92,62  L 92,65  L 91,65  L 91,66  L 92,66  L 92,69  L 91,69  L 91,71  L 92,71  L 92,73  L 91,73  L 91,102  L 92,102  L 92,104  L 93,104  L 93,105  L 97,105  L 97,104  L 98,104  L 98,102  L 99,102  L 99,101  L 98,101  L 98,98  L 99,98  L 99,97  L 98,97  L 98,94  L 99,94  L 99,93  L 98,93  L 98,91  L 99,91  L 99,89  L 98,89  L 98,87  L 99,87  L 99,21  L 98,21  L 98,13  L 97,13  L 97,9  L 96,9  L 96,5  L 95,5  L 95,2  L 94,2  L 94,1  L 92,1  L 92,0  L 89,0  L 89,1  L 87,1  Z  " style="fill:rgb(0, 0, 0); fill-opacity:1.000; stroke:none;" />
</svg>
