<?xml version="1.0" encoding="UTF-8" standalone="no"?>
<!DOCTYPE svg PUBLIC "-//W3C//DTD SVG 1.1//EN" 
  "http://www.w3.org/Graphics/SVG/1.1/DTD/svg11.dtd">
<svg width="101" height="155"
     xmlns="http://www.w3.org/2000/svg" version="1.1">
 <path d="  M 49,67  L 49,68  L 48,68  L 48,69  L 45,69  L 45,70  L 43,70  L 43,71  L 39,71  L 39,72  L 34,72  L 34,73  L 30,73  L 30,74  L 25,74  L 25,75  L 14,75  L 14,74  L 11,74  L 11,73  L 10,73  L 10,72  L 9,72  L 9,70  L 8,70  L 8,65  L 7,65  L 7,63  L 8,63  L 8,62  L 7,62  L 7,60  L 8,60  L 8,56  L 9,56  L 9,55  L 10,55  L 10,54  L 11,54  L 11,53  L 13,53  L 13,52  L 16,52  L 16,51  L 18,51  L 18,50  L 21,50  L 21,49  L 25,49  L 25,48  L 28,48  L 28,47  L 30,47  L 30,46  L 32,46  L 32,45  L 34,45  L 34,44  L 35,44  L 35,43  L 37,43  L 37,42  L 38,42  L 38,41  L 41,41  L 41,40  L 43,40  L 43,39  L 44,39  L 44,38  L 45,38  L 45,37  L 47,37  L 47,35  L 48,35  L 48,34  L 49,34  L 49,33  L 50,33  L 50,30  L 51,30  L 51,27  L 52,27  L 52,26  L 51,26  L 51,23  L 50,23  L 50,21  L 49,21  L 49,20  L 48,20  L 48,19  L 47,19  L 47,18  L 45,18  L 45,17  L 44,17  L 44,16  L 41,16  L 41,15  L 38,15  L 38,14  L 33,14  L 33,13  L 26,13  L 26,12  L 25,12  L 25,13  L 24,13  L 24,12  L 8,12  L 8,14  L 7,14  L 7,15  L 6,15  L 6,16  L 7,16  L 7,18  L 6,18  L 6,19  L 15,19  L 15,18  L 16,18  L 16,19  L 26,19  L 26,20  L 27,20  L 27,19  L 30,19  L 30,20  L 36,20  L 36,21  L 38,21  L 38,22  L 40,22  L 40,23  L 41,23  L 41,24  L 42,24  L 42,25  L 43,25  L 43,27  L 44,27  L 44,28  L 43,28  L 43,30  L 42,30  L 42,32  L 40,32  L 40,33  L 38,33  L 38,34  L 36,34  L 36,35  L 34,35  L 34,36  L 33,36  L 33,37  L 31,37  L 31,38  L 29,38  L 29,39  L 28,39  L 28,40  L 26,40  L 26,41  L 23,41  L 23,42  L 20,42  L 20,43  L 17,43  L 17,44  L 14,44  L 14,45  L 12,45  L 12,46  L 11,46  L 11,45  L 10,45  L 10,46  L 9,46  L 9,47  L 7,47  L 7,48  L 5,48  L 5,49  L 4,49  L 4,50  L 3,50  L 3,52  L 2,52  L 2,56  L 1,56  L 1,71  L 2,71  L 2,74  L 3,74  L 3,77  L 4,77  L 4,78  L 5,78  L 5,79  L 6,79  L 6,80  L 8,80  L 8,81  L 9,81  L 9,80  L 10,80  L 10,81  L 12,81  L 12,82  L 13,82  L 13,81  L 14,81  L 14,82  L 26,82  L 26,81  L 32,81  L 32,80  L 35,80  L 35,79  L 38,79  L 38,78  L 39,78  L 39,79  L 40,79  L 40,78  L 43,78  L 43,77  L 47,77  L 47,76  L 50,76  L 50,75  L 52,75  L 52,74  L 55,74  L 55,73  L 57,73  L 57,72  L 58,72  L 58,71  L 61,71  L 61,70  L 63,70  L 63,69  L 66,69  L 66,68  L 68,68  L 68,67  L 70,67  L 70,66  L 72,66  L 72,65  L 73,65  L 73,62  L 70,62  L 70,61  L 69,61  L 69,62  L 68,62  L 68,61  L 65,61  L 65,62  L 64,62  L 64,61  L 63,61  L 63,62  L 60,62  L 60,63  L 57,63  L 57,64  L 55,64  L 55,65  L 53,65  L 53,66  L 51,66  L 51,67  Z  " style="fill:rgb(0, 0, 0); fill-opacity:1.000; stroke:none;" />
 <path d="  M 22,135  L 23,135  L 23,141  L 24,141  L 24,146  L 25,146  L 25,149  L 26,149  L 26,150  L 27,150  L 27,153  L 30,153  L 30,154  L 33,154  L 33,155  L 34,155  L 34,154  L 35,154  L 35,155  L 53,155  L 53,154  L 55,154  L 55,155  L 56,155  L 56,154  L 61,154  L 61,153  L 68,153  L 68,152  L 74,152  L 74,151  L 82,151  L 82,150  L 83,150  L 83,151  L 84,151  L 84,150  L 93,150  L 93,149  L 95,149  L 95,150  L 96,150  L 96,149  L 99,149  L 99,148  L 100,148  L 100,147  L 101,147  L 101,141  L 93,141  L 93,142  L 85,142  L 85,143  L 82,143  L 82,142  L 81,142  L 81,143  L 77,143  L 77,144  L 76,144  L 76,143  L 75,143  L 75,144  L 64,144  L 64,145  L 59,145  L 59,146  L 53,146  L 53,147  L 50,147  L 50,146  L 49,146  L 49,147  L 45,147  L 45,148  L 43,148  L 43,147  L 42,147  L 42,148  L 35,148  L 35,147  L 34,147  L 34,146  L 33,146  L 33,144  L 32,144  L 32,138  L 31,138  L 31,127  L 30,127  L 30,102  L 29,102  L 29,101  L 27,101  L 27,102  L 23,102  L 23,105  L 22,105  L 22,107  L 23,107  L 23,109  L 22,109  Z  " style="fill:rgb(0, 0, 0); fill-opacity:1.000; stroke:none;" />
 <path d="  M 78,11  L 79,11  L 79,21  L 80,21  L 80,31  L 81,31  L 81,32  L 80,32  L 80,33  L 81,33  L 81,46  L 82,46  L 82,65  L 83,65  L 83,93  L 84,93  L 84,96  L 85,96  L 85,98  L 86,98  L 86,99  L 88,99  L 88,98  L 90,98  L 90,96  L 91,96  L 91,90  L 90,90  L 90,89  L 91,89  L 91,88  L 90,88  L 90,87  L 91,87  L 91,86  L 90,86  L 90,85  L 91,85  L 91,84  L 90,84  L 90,83  L 91,83  L 91,82  L 90,82  L 90,81  L 91,81  L 91,80  L 90,80  L 90,79  L 91,79  L 91,78  L 90,78  L 90,77  L 91,77  L 91,76  L 90,76  L 90,75  L 91,75  L 91,74  L 90,74  L 90,73  L 91,73  L 91,72  L 90,72  L 90,69  L 91,69  L 91,68  L 90,68  L 90,60  L 89,60  L 89,59  L 90,59  L 90,57  L 89,57  L 89,55  L 90,55  L 90,54  L 89,54  L 89,42  L 88,42  L 88,30  L 87,30  L 87,20  L 86,20  L 86,13  L 85,13  L 85,11  L 86,11  L 86,10  L 85,10  L 85,8  L 86,8  L 86,5  L 85,5  L 85,2  L 84,2  L 84,1  L 79,1  L 79,2  L 78,2  Z  " style="fill:rgb(0, 0, 0); fill-opacity:1.000; stroke:none;" />
</svg>
