<?xml version="1.0" encoding="UTF-8" standalone="no"?>
<!DOCTYPE svg PUBLIC "-//W3C//DTD SVG 1.1//EN" 
  "http://www.w3.org/Graphics/SVG/1.1/DTD/svg11.dtd">
<svg width="103" height="170"
     xmlns="http://www.w3.org/2000/svg" version="1.1">
 <path d="  M 42,87  L 42,86  L 47,86  L 47,85  L 52,85  L 52,84  L 53,84  L 53,83  L 55,83  L 55,82  L 56,82  L 56,78  L 57,78  L 57,77  L 56,77  L 56,76  L 52,76  L 52,77  L 50,77  L 50,78  L 46,78  L 46,79  L 41,79  L 41,80  L 39,80  L 39,79  L 38,79  L 38,80  L 31,80  L 31,81  L 13,81  L 13,80  L 11,80  L 11,79  L 10,79  L 10,77  L 9,77  L 9,71  L 8,71  L 8,68  L 9,68  L 9,67  L 8,67  L 8,66  L 9,66  L 9,63  L 10,63  L 10,62  L 11,62  L 11,61  L 12,61  L 12,60  L 14,60  L 14,58  L 16,58  L 16,57  L 18,57  L 18,56  L 21,56  L 21,55  L 25,55  L 25,54  L 27,54  L 27,53  L 29,53  L 29,52  L 31,52  L 31,51  L 34,51  L 34,50  L 35,50  L 35,49  L 38,49  L 38,48  L 41,48  L 41,47  L 43,47  L 43,46  L 44,46  L 44,45  L 46,45  L 46,44  L 47,44  L 47,43  L 49,43  L 49,42  L 51,42  L 51,41  L 52,41  L 52,40  L 54,40  L 54,39  L 55,39  L 55,38  L 56,38  L 56,37  L 57,37  L 57,34  L 58,34  L 58,33  L 57,33  L 57,30  L 56,30  L 56,28  L 55,28  L 55,27  L 54,27  L 54,26  L 53,26  L 53,23  L 52,23  L 52,21  L 50,21  L 50,20  L 49,20  L 49,19  L 46,19  L 46,18  L 45,18  L 45,17  L 42,17  L 42,16  L 40,16  L 40,15  L 34,15  L 34,14  L 33,14  L 33,15  L 32,15  L 32,14  L 27,14  L 27,13  L 26,13  L 26,14  L 25,14  L 25,13  L 19,13  L 19,12  L 10,12  L 10,13  L 8,13  L 8,14  L 9,14  L 9,15  L 8,15  L 8,18  L 9,18  L 9,20  L 11,20  L 11,21  L 12,21  L 12,20  L 22,20  L 22,21  L 25,21  L 25,22  L 26,22  L 26,21  L 28,21  L 28,22  L 35,22  L 35,23  L 38,23  L 38,24  L 41,24  L 41,26  L 43,26  L 43,27  L 44,27  L 44,28  L 45,28  L 45,29  L 46,29  L 46,30  L 47,30  L 47,31  L 48,31  L 48,34  L 47,34  L 47,35  L 46,35  L 46,36  L 44,36  L 44,37  L 43,37  L 43,38  L 39,38  L 39,39  L 36,39  L 36,40  L 34,40  L 34,41  L 32,41  L 32,42  L 31,42  L 31,43  L 29,43  L 29,44  L 28,44  L 28,45  L 26,45  L 26,46  L 25,46  L 25,47  L 22,47  L 22,48  L 19,48  L 19,49  L 16,49  L 16,50  L 13,50  L 13,51  L 11,51  L 11,52  L 9,52  L 9,53  L 8,53  L 8,54  L 6,54  L 6,55  L 5,55  L 5,57  L 4,57  L 4,60  L 2,60  L 2,64  L 1,64  L 1,75  L 2,75  L 2,80  L 3,80  L 3,82  L 4,82  L 4,84  L 7,84  L 7,85  L 8,85  L 8,86  L 9,86  L 9,87  L 13,87  L 13,88  L 18,88  L 18,89  L 21,89  L 21,88  L 23,88  L 23,89  L 25,89  L 25,88  L 35,88  L 35,87  Z  " style="fill:rgb(0, 0, 0); fill-opacity:1.000; stroke:none;" />
 <path d="  M 92,113  L 90,113  L 90,112  L 84,112  L 84,111  L 71,111  L 71,110  L 63,110  L 63,109  L 61,109  L 61,108  L 60,108  L 60,109  L 57,109  L 57,110  L 56,110  L 56,111  L 55,111  L 55,112  L 54,112  L 54,113  L 53,113  L 53,114  L 52,114  L 52,115  L 51,115  L 51,116  L 50,116  L 50,117  L 49,117  L 49,119  L 48,119  L 48,120  L 47,120  L 47,121  L 46,121  L 46,122  L 45,122  L 45,123  L 44,123  L 44,124  L 43,124  L 43,125  L 42,125  L 42,127  L 41,127  L 41,129  L 40,129  L 40,131  L 39,131  L 39,133  L 38,133  L 38,134  L 37,134  L 37,137  L 36,137  L 36,140  L 35,140  L 35,143  L 34,143  L 34,146  L 33,146  L 33,159  L 34,159  L 34,162  L 36,162  L 36,163  L 37,163  L 37,164  L 38,164  L 38,165  L 40,165  L 40,166  L 41,166  L 41,167  L 44,167  L 44,168  L 46,168  L 46,169  L 49,169  L 49,170  L 68,170  L 68,169  L 71,169  L 71,168  L 75,168  L 75,167  L 78,167  L 78,166  L 80,166  L 80,165  L 84,165  L 84,164  L 87,164  L 87,163  L 89,163  L 89,162  L 91,162  L 91,161  L 94,161  L 94,160  L 95,160  L 95,159  L 96,159  L 96,158  L 97,158  L 97,157  L 98,157  L 98,156  L 99,156  L 99,155  L 100,155  L 100,154  L 101,154  L 101,152  L 102,152  L 102,150  L 103,150  L 103,128  L 102,128  L 102,123  L 101,123  L 101,122  L 100,122  L 100,120  L 98,120  L 98,119  L 97,119  L 97,117  L 95,117  L 95,116  L 94,116  L 94,115  L 93,115  L 93,114  L 92,114  Z  M 74,119  L 83,119  L 83,120  L 87,120  L 87,121  L 89,121  L 89,122  L 91,122  L 91,123  L 92,123  L 92,124  L 93,124  L 93,125  L 94,125  L 94,126  L 95,126  L 95,128  L 96,128  L 96,146  L 95,146  L 95,148  L 94,148  L 94,151  L 93,151  L 93,152  L 92,152  L 92,153  L 91,153  L 91,154  L 90,154  L 90,155  L 88,155  L 88,156  L 86,156  L 86,157  L 83,157  L 83,158  L 82,158  L 82,159  L 80,159  L 80,160  L 76,160  L 76,161  L 72,161  L 72,162  L 69,162  L 69,163  L 50,163  L 50,162  L 47,162  L 47,161  L 46,161  L 46,160  L 43,160  L 43,159  L 42,159  L 42,158  L 41,158  L 41,143  L 42,143  L 42,140  L 43,140  L 43,138  L 44,138  L 44,135  L 45,135  L 45,134  L 46,134  L 46,132  L 47,132  L 47,130  L 49,130  L 49,128  L 50,128  L 50,126  L 51,126  L 51,125  L 52,125  L 52,124  L 54,124  L 54,123  L 55,123  L 55,122  L 56,122  L 56,121  L 57,121  L 57,120  L 58,120  L 58,119  L 62,119  L 62,118  L 74,118  Z  " style="fill:rgb(0, 0, 0); fill-opacity:1.000; stroke:none;" />
 <path d="  M 92,84  L 93,84  L 93,85  L 92,85  L 92,86  L 93,86  L 93,94  L 94,94  L 94,95  L 93,95  L 93,96  L 94,96  L 94,105  L 95,105  L 95,108  L 96,108  L 96,109  L 97,109  L 97,110  L 99,110  L 99,109  L 100,109  L 100,108  L 101,108  L 101,106  L 102,106  L 102,103  L 101,103  L 101,95  L 100,95  L 100,92  L 101,92  L 101,91  L 100,91  L 100,63  L 99,63  L 99,62  L 100,62  L 100,59  L 99,59  L 99,58  L 100,58  L 100,57  L 99,57  L 99,56  L 100,56  L 100,55  L 99,55  L 99,54  L 100,54  L 100,53  L 99,53  L 99,52  L 100,52  L 100,51  L 99,51  L 99,50  L 100,50  L 100,49  L 99,49  L 99,37  L 98,37  L 98,36  L 99,36  L 99,34  L 98,34  L 98,25  L 97,25  L 97,19  L 96,19  L 96,13  L 95,13  L 95,8  L 94,8  L 94,6  L 93,6  L 93,4  L 92,4  L 92,3  L 91,3  L 91,2  L 90,2  L 90,1  L 89,1  L 89,0  L 88,0  L 88,1  L 86,1  L 86,10  L 87,10  L 87,15  L 88,15  L 88,21  L 89,21  L 89,28  L 90,28  L 90,34  L 91,34  L 91,50  L 92,50  L 92,52  L 91,52  L 91,54  L 92,54  L 92,57  L 91,57  L 91,58  L 92,58  Z  " style="fill:rgb(0, 0, 0); fill-opacity:1.000; stroke:none;" />
</svg>
