<?xml version="1.0" encoding="UTF-8" standalone="no"?>
<!DOCTYPE svg PUBLIC "-//W3C//DTD SVG 1.1//EN" 
  "http://www.w3.org/Graphics/SVG/1.1/DTD/svg11.dtd">
<svg width="111" height="103"
     xmlns="http://www.w3.org/2000/svg" version="1.1">
 <path d="  M 56,27  L 55,27  L 55,26  L 54,26  L 54,25  L 30,25  L 30,26  L 29,26  L 29,25  L 26,25  L 26,26  L 24,26  L 24,25  L 23,25  L 23,26  L 21,26  L 21,25  L 18,25  L 18,26  L 17,26  L 17,25  L 14,25  L 14,26  L 13,26  L 13,25  L 11,25  L 11,26  L 2,26  L 2,27  L 1,27  L 1,26  L 0,26  L 0,28  L 1,28  L 1,29  L 5,29  L 5,30  L 6,30  L 6,31  L 8,31  L 8,32  L 9,32  L 9,37  L 8,37  L 8,38  L 9,38  L 9,39  L 8,39  L 8,42  L 9,42  L 9,43  L 8,43  L 8,65  L 7,65  L 7,66  L 8,66  L 8,76  L 9,76  L 9,79  L 10,79  L 10,82  L 11,82  L 11,85  L 12,85  L 12,84  L 14,84  L 14,85  L 24,85  L 24,84  L 29,84  L 29,83  L 33,83  L 33,82  L 36,82  L 36,81  L 39,81  L 39,80  L 40,80  L 40,79  L 42,79  L 42,78  L 44,78  L 44,77  L 46,77  L 46,76  L 47,76  L 47,75  L 48,75  L 48,74  L 50,74  L 50,73  L 51,73  L 51,72  L 52,72  L 52,71  L 54,71  L 54,70  L 55,70  L 55,66  L 56,66  L 56,65  L 55,65  L 55,62  L 56,62  Z  M 37,31  L 38,31  L 38,32  L 41,32  L 41,31  L 47,31  L 47,32  L 48,32  L 48,33  L 49,33  L 49,68  L 47,68  L 47,69  L 45,69  L 45,70  L 43,70  L 43,71  L 41,71  L 41,72  L 39,72  L 39,73  L 36,73  L 36,74  L 34,74  L 34,75  L 33,75  L 33,76  L 29,76  L 29,77  L 24,77  L 24,78  L 16,78  L 16,77  L 15,77  L 15,46  L 16,46  L 16,45  L 15,45  L 15,44  L 16,44  L 16,43  L 15,43  L 15,42  L 16,42  L 16,35  L 17,35  L 17,34  L 18,34  L 18,33  L 25,33  L 25,32  L 37,32  Z  " style="fill:rgb(0, 0, 0); fill-opacity:1.000; stroke:none;" />
 <path d="  M 74,52  L 75,52  L 75,55  L 74,55  L 74,56  L 75,56  L 75,59  L 74,59  L 74,60  L 75,60  L 75,63  L 74,63  L 74,64  L 75,64  L 75,67  L 74,67  L 74,68  L 75,68  L 75,71  L 74,71  L 74,72  L 75,72  L 75,75  L 74,75  L 74,76  L 75,76  L 75,79  L 74,79  L 74,80  L 75,80  L 75,83  L 74,83  L 74,84  L 75,84  L 75,102  L 76,102  L 76,103  L 82,103  L 82,102  L 83,102  L 83,101  L 82,101  L 82,100  L 83,100  L 83,99  L 82,99  L 82,98  L 83,98  L 83,97  L 82,97  L 82,53  L 83,53  L 83,52  L 88,52  L 88,53  L 89,53  L 89,52  L 92,52  L 92,53  L 93,53  L 93,52  L 96,52  L 96,53  L 97,53  L 97,52  L 100,52  L 100,53  L 101,53  L 101,52  L 104,52  L 104,53  L 105,53  L 105,52  L 111,52  L 111,50  L 110,50  L 110,49  L 109,49  L 109,48  L 108,48  L 108,45  L 104,45  L 104,44  L 103,44  L 103,45  L 101,45  L 101,44  L 100,44  L 100,45  L 96,45  L 96,44  L 95,44  L 95,45  L 93,45  L 93,44  L 92,44  L 92,45  L 82,45  L 82,44  L 81,44  L 81,36  L 82,36  L 82,35  L 81,35  L 81,32  L 82,32  L 82,31  L 81,31  L 81,28  L 82,28  L 82,27  L 81,27  L 81,12  L 80,12  L 80,10  L 81,10  L 81,8  L 80,8  L 80,7  L 81,7  L 81,4  L 80,4  L 80,1  L 79,1  L 79,0  L 76,0  L 76,1  L 74,1  L 74,3  L 73,3  L 73,16  L 74,16  L 74,17  L 73,17  L 73,18  L 74,18  Z  " style="fill:rgb(0, 0, 0); fill-opacity:1.000; stroke:none;" />
</svg>
