<?xml version="1.0" encoding="UTF-8" standalone="no"?>
<!DOCTYPE svg PUBLIC "-//W3C//DTD SVG 1.1//EN" 
  "http://www.w3.org/Graphics/SVG/1.1/DTD/svg11.dtd">
<svg width="105" height="148"
     xmlns="http://www.w3.org/2000/svg" version="1.1">
 <path d="  M 50,55  L 51,55  L 51,49  L 52,49  L 52,48  L 51,48  L 51,47  L 52,47  L 52,30  L 53,30  L 53,28  L 52,28  L 52,27  L 53,27  L 53,21  L 54,21  L 54,20  L 53,20  L 53,19  L 52,19  L 52,18  L 50,18  L 50,17  L 43,17  L 43,16  L 42,16  L 42,17  L 39,17  L 39,16  L 38,16  L 38,17  L 37,17  L 37,16  L 36,16  L 36,17  L 35,17  L 35,16  L 34,16  L 34,17  L 33,17  L 33,16  L 32,16  L 32,17  L 31,17  L 31,16  L 30,16  L 30,17  L 27,17  L 27,16  L 26,16  L 26,17  L 23,17  L 23,16  L 22,16  L 22,17  L 20,17  L 20,16  L 16,16  L 16,15  L 15,15  L 15,14  L 13,14  L 13,13  L 6,13  L 6,14  L 4,14  L 4,15  L 2,15  L 2,16  L 1,16  L 1,17  L 0,17  L 0,19  L 1,19  L 1,20  L 2,20  L 2,19  L 5,19  L 5,20  L 7,20  L 7,33  L 8,33  L 8,34  L 7,34  L 7,37  L 8,37  L 8,38  L 7,38  L 7,41  L 8,41  L 8,42  L 7,42  L 7,45  L 8,45  L 8,46  L 7,46  L 7,49  L 8,49  L 8,50  L 7,50  L 7,53  L 8,53  L 8,55  L 7,55  L 7,57  L 8,57  L 8,58  L 7,58  L 7,61  L 8,61  L 8,62  L 7,62  L 7,64  L 8,64  L 8,71  L 9,71  L 9,73  L 11,73  L 11,74  L 12,74  L 12,75  L 17,75  L 17,76  L 21,76  L 21,75  L 30,75  L 30,74  L 35,74  L 35,73  L 39,73  L 39,72  L 41,72  L 41,71  L 43,71  L 43,70  L 44,70  L 44,69  L 46,69  L 46,68  L 47,68  L 47,66  L 48,66  L 48,65  L 49,65  L 49,63  L 50,63  Z  M 44,23  L 44,24  L 45,24  L 45,25  L 46,25  L 46,26  L 45,26  L 45,27  L 46,27  L 46,28  L 45,28  L 45,46  L 44,46  L 44,47  L 45,47  L 45,48  L 44,48  L 44,54  L 43,54  L 43,60  L 42,60  L 42,63  L 41,63  L 41,64  L 40,64  L 40,65  L 38,65  L 38,66  L 35,66  L 35,67  L 33,67  L 33,68  L 32,68  L 32,67  L 31,67  L 31,68  L 22,68  L 22,69  L 17,69  L 17,68  L 16,68  L 16,66  L 15,66  L 15,21  L 18,21  L 18,22  L 19,22  L 19,23  Z  " style="fill:rgb(0, 0, 0); fill-opacity:1.000; stroke:none;" />
 <path d="  M 64,142  L 63,142  L 63,144  L 64,144  L 64,148  L 70,148  L 70,147  L 71,147  L 71,141  L 72,141  L 72,140  L 71,140  L 71,137  L 72,137  L 72,133  L 73,133  L 73,132  L 72,132  L 72,131  L 73,131  L 73,127  L 74,127  L 74,121  L 75,121  L 75,115  L 76,115  L 76,113  L 77,113  L 77,112  L 76,112  L 76,111  L 77,111  L 77,107  L 78,107  L 78,106  L 77,106  L 77,103  L 76,103  L 76,101  L 75,101  L 75,100  L 74,100  L 74,99  L 73,99  L 73,98  L 71,98  L 71,97  L 68,97  L 68,96  L 64,96  L 64,95  L 43,95  L 43,96  L 37,96  L 37,97  L 32,97  L 32,98  L 29,98  L 29,99  L 28,99  L 28,103  L 29,103  L 29,104  L 32,104  L 32,105  L 33,105  L 33,104  L 34,104  L 34,105  L 35,105  L 35,104  L 38,104  L 38,103  L 42,103  L 42,102  L 53,102  L 53,101  L 55,101  L 55,102  L 56,102  L 56,101  L 58,101  L 58,102  L 64,102  L 64,103  L 66,103  L 66,104  L 68,104  L 68,105  L 69,105  L 69,107  L 70,107  L 70,112  L 69,112  L 69,117  L 68,117  L 68,120  L 67,120  L 67,125  L 66,125  L 66,132  L 65,132  L 65,137  L 64,137  Z  " style="fill:rgb(0, 0, 0); fill-opacity:1.000; stroke:none;" />
 <path d="  M 74,74  L 75,74  L 75,76  L 74,76  L 74,78  L 75,78  L 75,80  L 74,80  L 74,83  L 75,83  L 75,86  L 76,86  L 76,87  L 79,87  L 79,86  L 80,86  L 80,85  L 81,85  L 81,49  L 80,49  L 80,48  L 81,48  L 81,46  L 80,46  L 80,45  L 81,45  L 81,43  L 86,43  L 86,42  L 103,42  L 103,41  L 105,41  L 105,37  L 104,37  L 104,36  L 102,36  L 102,35  L 96,35  L 96,36  L 95,36  L 95,35  L 92,35  L 92,36  L 91,36  L 91,35  L 90,35  L 90,36  L 88,36  L 88,35  L 85,35  L 85,36  L 81,36  L 81,34  L 80,34  L 80,22  L 79,22  L 79,12  L 78,12  L 78,2  L 77,2  L 77,0  L 74,0  L 74,1  L 72,1  L 72,4  L 71,4  L 71,5  L 72,5  L 72,15  L 73,15  L 73,33  L 74,33  L 74,34  L 73,34  L 73,37  L 74,37  L 74,38  L 73,38  L 73,41  L 74,41  L 74,42  L 73,42  L 73,45  L 74,45  L 74,46  L 73,46  L 73,47  L 74,47  Z  " style="fill:rgb(0, 0, 0); fill-opacity:1.000; stroke:none;" />
</svg>
