<?xml version="1.0" encoding="UTF-8" standalone="no"?>
<!DOCTYPE svg PUBLIC "-//W3C//DTD SVG 1.1//EN" 
  "http://www.w3.org/Graphics/SVG/1.1/DTD/svg11.dtd">
<svg width="109" height="154"
     xmlns="http://www.w3.org/2000/svg" version="1.1">
 <path d="  M 23,21  L 23,20  L 24,20  L 24,21  L 25,21  L 25,20  L 28,20  L 28,21  L 29,21  L 29,20  L 32,20  L 32,21  L 33,21  L 33,20  L 36,20  L 36,21  L 37,21  L 37,20  L 51,20  L 51,21  L 50,21  L 50,24  L 49,24  L 49,34  L 48,34  L 48,35  L 49,35  L 49,36  L 48,36  L 48,37  L 49,37  L 49,38  L 48,38  L 48,54  L 47,54  L 47,55  L 48,55  L 48,57  L 47,57  L 47,64  L 45,64  L 45,65  L 42,65  L 42,66  L 37,66  L 37,67  L 32,67  L 32,68  L 29,68  L 29,69  L 19,69  L 19,68  L 18,68  L 18,67  L 17,67  L 17,64  L 16,64  L 16,53  L 17,53  L 17,52  L 16,52  L 16,49  L 17,49  L 17,48  L 16,48  L 16,47  L 17,47  L 17,46  L 16,46  L 16,45  L 17,45  L 17,44  L 16,44  L 16,43  L 17,43  L 17,42  L 16,42  L 16,41  L 17,41  L 17,40  L 16,40  L 16,39  L 17,39  L 17,38  L 16,38  L 16,37  L 17,37  L 17,36  L 16,36  L 16,33  L 17,33  L 17,32  L 16,32  L 16,29  L 17,29  L 17,28  L 16,28  L 16,21  L 17,21  L 17,20  L 19,20  L 19,21  Z  M 56,36  L 55,36  L 55,35  L 56,35  L 56,25  L 57,25  L 57,16  L 56,16  L 56,15  L 54,15  L 54,14  L 48,14  L 48,13  L 46,13  L 46,14  L 14,14  L 14,13  L 7,13  L 7,14  L 4,14  L 4,15  L 3,15  L 3,16  L 1,16  L 1,18  L 0,18  L 0,20  L 1,20  L 1,21  L 5,21  L 5,20  L 8,20  L 8,22  L 9,22  L 9,65  L 10,65  L 10,70  L 11,70  L 11,72  L 12,72  L 12,73  L 13,73  L 13,74  L 14,74  L 14,75  L 15,75  L 15,76  L 26,76  L 26,75  L 32,75  L 32,74  L 37,74  L 37,73  L 41,73  L 41,72  L 44,72  L 44,71  L 47,71  L 47,70  L 49,70  L 49,69  L 51,69  L 51,68  L 52,68  L 52,67  L 53,67  L 53,66  L 54,66  L 54,62  L 55,62  L 55,41  L 56,41  L 56,40  L 55,40  L 55,38  L 56,38  Z  " style="fill:rgb(0, 0, 0); fill-opacity:1.000; stroke:none;" />
 <path d="  M 44,154  L 44,153  L 48,153  L 48,152  L 53,152  L 53,151  L 55,151  L 55,152  L 57,152  L 57,151  L 60,151  L 60,150  L 61,150  L 61,143  L 60,143  L 60,141  L 59,141  L 59,140  L 58,140  L 58,141  L 55,141  L 55,142  L 54,142  L 54,143  L 52,143  L 52,144  L 50,144  L 50,145  L 49,145  L 49,146  L 43,146  L 43,147  L 42,147  L 42,146  L 41,146  L 41,147  L 24,147  L 24,146  L 23,146  L 23,147  L 22,147  L 22,146  L 21,146  L 21,145  L 20,145  L 20,143  L 19,143  L 19,141  L 20,141  L 20,140  L 19,140  L 19,134  L 20,134  L 20,131  L 22,131  L 22,130  L 24,130  L 24,129  L 27,129  L 27,128  L 28,128  L 28,129  L 29,129  L 29,128  L 30,128  L 30,127  L 32,127  L 32,126  L 34,126  L 34,125  L 37,125  L 37,124  L 39,124  L 39,123  L 41,123  L 41,122  L 43,122  L 43,121  L 44,121  L 44,120  L 45,120  L 45,119  L 46,119  L 46,118  L 49,118  L 49,117  L 51,117  L 51,113  L 52,113  L 52,105  L 53,105  L 53,104  L 52,104  L 52,103  L 54,103  L 54,101  L 55,101  L 55,100  L 54,100  L 54,99  L 50,99  L 50,98  L 48,98  L 48,97  L 46,97  L 46,96  L 42,96  L 42,95  L 24,95  L 24,96  L 22,96  L 22,95  L 19,95  L 19,96  L 16,96  L 16,98  L 15,98  L 15,103  L 16,103  L 16,102  L 17,102  L 17,103  L 18,103  L 18,102  L 19,102  L 19,103  L 21,103  L 21,102  L 28,102  L 28,101  L 34,101  L 34,102  L 39,102  L 39,103  L 42,103  L 42,104  L 44,104  L 44,111  L 43,111  L 43,114  L 42,114  L 42,115  L 41,115  L 41,116  L 40,116  L 40,117  L 38,117  L 38,118  L 35,118  L 35,119  L 33,119  L 33,120  L 29,120  L 29,121  L 27,121  L 27,122  L 24,122  L 24,123  L 21,123  L 21,124  L 20,124  L 20,125  L 18,125  L 18,126  L 16,126  L 16,127  L 15,127  L 15,128  L 14,128  L 14,129  L 13,129  L 13,132  L 12,132  L 12,137  L 13,137  L 13,139  L 12,139  L 12,140  L 13,140  L 13,143  L 12,143  L 12,144  L 13,144  L 13,145  L 14,145  L 14,146  L 13,146  L 13,147  L 14,147  L 14,148  L 16,148  L 16,151  L 19,151  L 19,153  L 20,153  L 20,154  Z  " style="fill:rgb(0, 0, 0); fill-opacity:1.000; stroke:none;" />
 <path d="  M 56,101  L 55,101  L 55,102  L 56,102  Z  " style="fill:rgb(0, 0, 0); fill-opacity:1.000; stroke:none;" />
 <path d="  M 62,101  L 63,101  L 63,100  L 62,100  Z  " style="fill:rgb(0, 0, 0); fill-opacity:1.000; stroke:none;" />
 <path d="  M 72,116  L 71,116  L 71,107  L 72,107  L 72,106  L 85,106  L 85,107  L 86,107  L 86,106  L 93,106  L 93,107  L 94,107  L 94,106  L 95,106  L 95,107  L 98,107  L 98,109  L 100,109  L 100,117  L 99,117  L 99,119  L 98,119  L 98,123  L 97,123  L 97,126  L 96,126  L 96,129  L 95,129  L 95,131  L 94,131  L 94,134  L 93,134  L 93,136  L 92,136  L 92,138  L 91,138  L 91,140  L 90,140  L 90,142  L 88,142  L 88,143  L 87,143  L 87,144  L 85,144  L 85,145  L 79,145  L 79,146  L 75,146  L 75,130  L 74,130  L 74,129  L 75,129  L 75,128  L 74,128  L 74,124  L 73,124  L 73,120  L 72,120  Z  M 85,99  L 85,98  L 83,98  L 83,99  L 82,99  L 82,98  L 79,98  L 79,99  L 78,99  L 78,98  L 75,98  L 75,99  L 74,99  L 74,98  L 67,98  L 67,99  L 65,99  L 65,100  L 64,100  L 64,101  L 63,101  L 63,103  L 64,103  L 64,113  L 65,113  L 65,120  L 66,120  L 66,122  L 67,122  L 67,126  L 68,126  L 68,137  L 69,137  L 69,139  L 68,139  L 68,142  L 69,142  L 69,143  L 68,143  L 68,146  L 69,146  L 69,147  L 68,147  L 68,151  L 69,151  L 69,152  L 81,152  L 81,151  L 86,151  L 86,150  L 90,150  L 90,149  L 92,149  L 92,148  L 93,148  L 93,147  L 94,147  L 94,146  L 95,146  L 95,145  L 96,145  L 96,143  L 97,143  L 97,142  L 98,142  L 98,141  L 99,141  L 99,137  L 100,137  L 100,135  L 101,135  L 101,133  L 102,133  L 102,131  L 103,131  L 103,129  L 104,129  L 104,125  L 105,125  L 105,122  L 106,122  L 106,119  L 107,119  L 107,117  L 108,117  L 108,113  L 109,113  L 109,111  L 108,111  L 108,108  L 107,108  L 107,107  L 106,107  L 106,105  L 105,105  L 105,104  L 104,104  L 104,102  L 103,102  L 103,101  L 102,101  L 102,100  L 99,100  L 99,99  L 89,99  L 89,98  L 88,98  L 88,99  Z  " style="fill:rgb(0, 0, 0); fill-opacity:1.000; stroke:none;" />
 <path d="  M 78,6  L 78,9  L 79,9  L 79,15  L 78,15  L 78,16  L 79,16  L 79,19  L 78,19  L 78,20  L 79,20  L 79,22  L 78,22  L 78,24  L 79,24  L 79,30  L 78,30  L 78,33  L 79,33  L 79,34  L 78,34  L 78,67  L 79,67  L 79,75  L 80,75  L 80,79  L 81,79  L 81,83  L 82,83  L 82,85  L 83,85  L 83,86  L 85,86  L 85,87  L 86,87  L 86,86  L 87,86  L 87,85  L 88,85  L 88,82  L 87,82  L 87,81  L 88,81  L 88,80  L 87,80  L 87,74  L 86,74  L 86,67  L 85,67  L 85,66  L 86,66  L 86,65  L 85,65  L 85,42  L 86,42  L 86,39  L 90,39  L 90,38  L 96,38  L 96,37  L 99,37  L 99,38  L 100,38  L 100,37  L 101,37  L 101,38  L 102,38  L 102,37  L 109,37  L 109,32  L 108,32  L 108,31  L 90,31  L 90,32  L 88,32  L 88,33  L 86,33  L 86,32  L 85,32  L 85,4  L 84,4  L 84,1  L 82,1  L 82,0  L 81,0  L 81,1  L 79,1  L 79,4  L 78,4  L 78,5  L 79,5  L 79,6  Z  " style="fill:rgb(0, 0, 0); fill-opacity:1.000; stroke:none;" />
</svg>
