<?xml version="1.0" encoding="UTF-8" standalone="no"?>
<!DOCTYPE svg PUBLIC "-//W3C//DTD SVG 1.1//EN" 
  "http://www.w3.org/Graphics/SVG/1.1/DTD/svg11.dtd">
<svg width="107" height="148"
     xmlns="http://www.w3.org/2000/svg" version="1.1">
 <path d="  M 54,54  L 55,54  L 55,45  L 56,45  L 56,44  L 55,44  L 55,38  L 56,38  L 56,36  L 55,36  L 55,34  L 56,34  L 56,21  L 57,21  L 57,14  L 56,14  L 56,13  L 55,13  L 55,12  L 52,12  L 52,11  L 30,11  L 30,12  L 19,12  L 19,11  L 14,11  L 14,10  L 10,10  L 10,11  L 8,11  L 8,10  L 7,10  L 7,11  L 6,11  L 6,12  L 5,12  L 5,13  L 2,13  L 2,14  L 1,14  L 1,16  L 0,16  L 0,19  L 1,19  L 1,18  L 3,18  L 3,19  L 5,19  L 5,18  L 6,18  L 6,17  L 8,17  L 8,19  L 9,19  L 9,57  L 10,57  L 10,64  L 11,64  L 11,67  L 12,67  L 12,69  L 13,69  L 13,70  L 14,70  L 14,71  L 15,71  L 15,72  L 16,72  L 16,73  L 20,73  L 20,74  L 22,74  L 22,73  L 30,73  L 30,72  L 31,72  L 31,73  L 33,73  L 33,72  L 37,72  L 37,71  L 42,71  L 42,70  L 46,70  L 46,69  L 48,69  L 48,68  L 49,68  L 49,67  L 50,67  L 50,66  L 51,66  L 51,63  L 52,63  L 52,62  L 53,62  L 53,61  L 54,61  Z  M 17,63  L 18,63  L 18,62  L 17,62  L 17,52  L 16,52  L 16,51  L 17,51  L 17,48  L 16,48  L 16,47  L 17,47  L 17,44  L 16,44  L 16,43  L 17,43  L 17,42  L 16,42  L 16,41  L 17,41  L 17,40  L 16,40  L 16,37  L 17,37  L 17,36  L 16,36  L 16,33  L 17,33  L 17,32  L 16,32  L 16,29  L 17,29  L 17,28  L 16,28  L 16,25  L 17,25  L 17,24  L 16,24  L 16,18  L 17,18  L 17,17  L 18,17  L 18,18  L 34,18  L 34,17  L 35,17  L 35,18  L 36,18  L 36,17  L 39,17  L 39,18  L 40,18  L 40,17  L 43,17  L 43,18  L 44,18  L 44,17  L 47,17  L 47,18  L 49,18  L 49,19  L 50,19  L 50,23  L 49,23  L 49,40  L 48,40  L 48,41  L 49,41  L 49,44  L 48,44  L 48,45  L 49,45  L 49,46  L 48,46  L 48,54  L 47,54  L 47,58  L 46,58  L 46,61  L 44,61  L 44,62  L 43,62  L 43,63  L 40,63  L 40,64  L 37,64  L 37,65  L 31,65  L 31,66  L 19,66  L 19,65  L 18,65  L 18,64  L 17,64  Z  " style="fill:rgb(0, 0, 0); fill-opacity:1.000; stroke:none;" />
 <path d="  M 29,138  L 29,139  L 28,139  L 28,140  L 29,140  L 29,143  L 30,143  L 30,144  L 31,144  L 31,145  L 32,145  L 32,147  L 34,147  L 34,146  L 35,146  L 35,147  L 36,147  L 36,148  L 57,148  L 57,147  L 62,147  L 62,146  L 65,146  L 65,145  L 68,145  L 68,144  L 70,144  L 70,143  L 72,143  L 72,142  L 74,142  L 74,141  L 75,141  L 75,140  L 77,140  L 77,139  L 78,139  L 78,138  L 79,138  L 79,137  L 80,137  L 80,134  L 81,134  L 81,131  L 82,131  L 82,126  L 83,126  L 83,123  L 84,123  L 84,120  L 85,120  L 85,116  L 86,116  L 86,99  L 87,99  L 87,98  L 86,98  L 86,95  L 87,95  L 87,92  L 86,92  L 86,91  L 87,91  L 87,90  L 86,90  L 86,89  L 81,89  L 81,91  L 80,91  L 80,113  L 79,113  L 79,114  L 34,114  L 34,113  L 33,113  L 33,112  L 34,112  L 34,103  L 35,103  L 35,102  L 34,102  L 34,96  L 35,96  L 35,94  L 34,94  L 34,93  L 35,93  L 35,90  L 34,90  L 34,87  L 32,87  L 32,86  L 31,86  L 31,87  L 29,87  L 29,89  L 28,89  L 28,92  L 27,92  L 27,93  L 28,93  L 28,96  L 27,96  L 27,97  L 28,97  L 28,98  L 27,98  L 27,101  L 28,101  L 28,102  L 27,102  L 27,120  L 28,120  L 28,121  L 27,121  L 27,123  L 28,123  L 28,124  L 27,124  L 27,125  L 28,125  L 28,126  L 27,126  L 27,127  L 28,127  L 28,138  Z  M 53,141  L 49,141  L 49,142  L 47,142  L 47,141  L 46,141  L 46,142  L 40,142  L 40,141  L 36,141  L 36,140  L 35,140  L 35,134  L 34,134  L 34,128  L 33,128  L 33,127  L 34,127  L 34,126  L 33,126  L 33,123  L 34,123  L 34,122  L 35,122  L 35,121  L 75,121  L 75,122  L 77,122  L 77,128  L 76,128  L 76,131  L 75,131  L 75,132  L 74,132  L 74,134  L 73,134  L 73,135  L 72,135  L 72,136  L 71,136  L 71,137  L 69,137  L 69,138  L 66,138  L 66,139  L 62,139  L 62,140  L 57,140  L 57,141  L 54,141  L 54,140  L 53,140  Z  " style="fill:rgb(0, 0, 0); fill-opacity:1.000; stroke:none;" />
 <path d="  M 77,70  L 78,70  L 78,72  L 77,72  L 77,74  L 78,74  L 78,79  L 79,79  L 79,80  L 83,80  L 83,79  L 84,79  L 84,39  L 85,39  L 85,38  L 90,38  L 90,37  L 107,37  L 107,31  L 105,31  L 105,30  L 97,30  L 97,31  L 94,31  L 94,30  L 93,30  L 93,31  L 92,31  L 92,30  L 91,30  L 91,31  L 90,31  L 90,30  L 88,30  L 88,31  L 84,31  L 84,28  L 83,28  L 83,25  L 84,25  L 84,24  L 83,24  L 83,8  L 82,8  L 82,1  L 81,1  L 81,0  L 77,0  L 77,1  L 76,1  L 76,21  L 77,21  L 77,23  L 76,23  L 76,25  L 77,25  L 77,27  L 76,27  L 76,28  L 77,28  Z  " style="fill:rgb(0, 0, 0); fill-opacity:1.000; stroke:none;" />
</svg>
