<?xml version="1.0" encoding="UTF-8" standalone="no"?>
<!DOCTYPE svg PUBLIC "-//W3C//DTD SVG 1.1//EN" 
  "http://www.w3.org/Graphics/SVG/1.1/DTD/svg11.dtd">
<svg width="110" height="97"
     xmlns="http://www.w3.org/2000/svg" version="1.1">
 <path d="  M 53,51  L 52,51  L 52,52  L 53,52  L 53,57  L 52,57  L 52,59  L 51,59  L 51,60  L 48,60  L 48,61  L 45,61  L 45,62  L 41,62  L 41,63  L 37,63  L 37,64  L 34,64  L 34,65  L 29,65  L 29,66  L 25,66  L 25,67  L 18,67  L 18,66  L 17,66  L 17,59  L 16,59  L 16,56  L 17,56  L 17,55  L 16,55  L 16,40  L 17,40  L 17,39  L 16,39  L 16,37  L 17,37  L 17,28  L 18,28  L 18,26  L 19,26  L 19,25  L 21,25  L 21,24  L 28,24  L 28,23  L 29,23  L 29,24  L 30,24  L 30,23  L 33,23  L 33,24  L 34,24  L 34,23  L 43,23  L 43,22  L 44,22  L 44,23  L 46,23  L 46,22  L 48,22  L 48,23  L 51,23  L 51,25  L 52,25  L 52,36  L 53,36  Z  M 1,22  L 3,22  L 3,23  L 9,23  L 9,24  L 11,24  L 11,25  L 12,25  L 12,29  L 11,29  L 11,35  L 10,35  L 10,36  L 11,36  L 11,37  L 10,37  L 10,62  L 11,62  L 11,63  L 10,63  L 10,64  L 11,64  L 11,68  L 12,68  L 12,72  L 13,72  L 13,73  L 15,73  L 15,74  L 16,74  L 16,75  L 25,75  L 25,74  L 27,74  L 27,73  L 31,73  L 31,72  L 33,72  L 33,71  L 36,71  L 36,70  L 38,70  L 38,69  L 44,69  L 44,68  L 49,68  L 49,67  L 52,67  L 52,66  L 59,66  L 59,24  L 58,24  L 58,20  L 57,20  L 57,19  L 56,19  L 56,18  L 55,18  L 55,17  L 49,17  L 49,16  L 29,16  L 29,17  L 17,17  L 17,18  L 15,18  L 15,17  L 14,17  L 14,18  L 11,18  L 11,19  L 10,19  L 10,18  L 9,18  L 9,19  L 1,19  Z  " style="fill:rgb(0, 0, 0); fill-opacity:1.000; stroke:none;" />
 <path d="  M 110,19  L 109,19  L 109,18  L 110,18  L 110,17  L 109,17  L 109,10  L 108,10  L 108,3  L 107,3  L 107,1  L 102,1  L 102,3  L 101,3  L 101,9  L 102,9  L 102,18  L 103,18  L 103,30  L 104,30  L 104,31  L 103,31  L 103,34  L 104,34  L 104,38  L 103,38  L 103,39  L 102,39  L 102,38  L 101,38  L 101,39  L 83,39  L 83,29  L 82,29  L 82,28  L 83,28  L 83,27  L 82,27  L 82,21  L 81,21  L 81,11  L 80,11  L 80,8  L 81,8  L 81,7  L 80,7  L 80,3  L 79,3  L 79,2  L 76,2  L 76,3  L 74,3  L 74,6  L 73,6  L 73,12  L 74,12  L 74,24  L 75,24  L 75,31  L 76,31  L 76,33  L 75,33  L 75,34  L 76,34  L 76,76  L 77,76  L 77,77  L 76,77  L 76,78  L 77,78  L 77,79  L 76,79  L 76,80  L 77,80  L 77,88  L 78,88  L 78,90  L 79,90  L 79,89  L 80,89  L 80,88  L 83,88  L 83,85  L 84,85  L 84,77  L 83,77  L 83,76  L 84,76  L 84,73  L 83,73  L 83,72  L 84,72  L 84,69  L 83,69  L 83,68  L 84,68  L 84,67  L 83,67  L 83,66  L 84,66  L 84,65  L 83,65  L 83,64  L 84,64  L 84,63  L 83,63  L 83,62  L 84,62  L 84,61  L 83,61  L 83,60  L 84,60  L 84,59  L 83,59  L 83,58  L 84,58  L 84,57  L 83,57  L 83,56  L 84,56  L 84,55  L 83,55  L 83,54  L 84,54  L 84,53  L 83,53  L 83,52  L 84,52  L 84,51  L 83,51  L 83,49  L 84,49  L 84,46  L 88,46  L 88,45  L 104,45  L 104,93  L 103,93  L 103,94  L 104,94  L 104,97  L 109,97  L 109,94  L 110,94  Z  " style="fill:rgb(0, 0, 0); fill-opacity:1.000; stroke:none;" />
</svg>
