<?xml version="1.0" encoding="UTF-8" standalone="no"?>
<!DOCTYPE svg PUBLIC "-//W3C//DTD SVG 1.1//EN" 
  "http://www.w3.org/Graphics/SVG/1.1/DTD/svg11.dtd">
<svg width="107" height="138"
     xmlns="http://www.w3.org/2000/svg" version="1.1">
 <path d="  M 42,12  L 42,11  L 39,11  L 39,12  L 38,12  L 38,11  L 37,11  L 37,12  L 36,12  L 36,11  L 35,11  L 35,12  L 34,12  L 34,11  L 33,11  L 33,12  L 32,12  L 32,11  L 31,11  L 31,12  L 30,12  L 30,11  L 29,11  L 29,12  L 28,12  L 28,11  L 27,11  L 27,12  L 16,12  L 16,11  L 13,11  L 13,10  L 12,10  L 12,9  L 10,9  L 10,8  L 7,8  L 7,9  L 4,9  L 4,11  L 2,11  L 2,12  L 1,12  L 1,15  L 2,15  L 2,14  L 3,14  L 3,13  L 4,13  L 4,14  L 5,14  L 5,16  L 6,16  L 6,58  L 7,58  L 7,63  L 8,63  L 8,66  L 9,66  L 9,68  L 11,68  L 11,69  L 22,69  L 22,68  L 26,68  L 26,67  L 29,67  L 29,66  L 32,66  L 32,65  L 35,65  L 35,64  L 38,64  L 38,63  L 39,63  L 39,62  L 42,62  L 42,61  L 44,61  L 44,59  L 45,59  L 45,58  L 46,58  L 46,57  L 47,57  L 47,54  L 48,54  L 48,21  L 49,21  L 49,20  L 48,20  L 48,18  L 49,18  L 49,16  L 48,16  L 48,14  L 47,14  L 47,13  L 46,13  L 46,12  Z  M 41,37  L 42,37  L 42,38  L 41,38  L 41,41  L 42,41  L 42,42  L 41,42  L 41,52  L 40,52  L 40,55  L 39,55  L 39,56  L 37,56  L 37,57  L 34,57  L 34,58  L 31,58  L 31,59  L 30,59  L 30,60  L 26,60  L 26,61  L 23,61  L 23,62  L 20,62  L 20,63  L 15,63  L 15,62  L 14,62  L 14,61  L 13,61  L 13,18  L 14,18  L 14,17  L 16,17  L 16,18  L 41,18  Z  " style="fill:rgb(0, 0, 0); fill-opacity:1.000; stroke:none;" />
 <path d="  M 39,119  L 38,119  L 38,113  L 37,113  L 37,107  L 36,107  L 36,105  L 37,105  L 37,104  L 36,104  L 36,93  L 35,93  L 35,92  L 33,92  L 33,91  L 32,91  L 32,92  L 30,92  L 30,94  L 29,94  L 29,97  L 30,97  L 30,109  L 31,109  L 31,113  L 32,113  L 32,121  L 33,121  L 33,129  L 34,129  L 34,131  L 33,131  L 33,132  L 34,132  L 34,133  L 35,133  L 35,134  L 36,134  L 36,135  L 37,135  L 37,137  L 39,137  L 39,138  L 40,138  L 40,137  L 41,137  L 41,138  L 71,138  L 71,137  L 72,137  L 72,138  L 73,138  L 73,137  L 83,137  L 83,136  L 97,136  L 97,135  L 100,135  L 100,136  L 101,136  L 101,135  L 105,135  L 105,134  L 107,134  L 107,126  L 105,126  L 105,127  L 100,127  L 100,128  L 99,128  L 99,127  L 98,127  L 98,128  L 90,128  L 90,129  L 89,129  L 89,128  L 86,128  L 86,129  L 83,129  L 83,128  L 82,128  L 82,129  L 78,129  L 78,130  L 77,130  L 77,129  L 76,129  L 76,130  L 64,130  L 64,131  L 62,131  L 62,130  L 61,130  L 61,131  L 49,131  L 49,132  L 48,132  L 48,131  L 47,131  L 47,132  L 44,132  L 44,131  L 42,131  L 42,130  L 40,130  L 40,125  L 39,125  Z  " style="fill:rgb(0, 0, 0); fill-opacity:1.000; stroke:none;" />
 <path d="  M 96,62  L 95,62  L 95,61  L 96,61  L 96,58  L 95,58  L 95,57  L 96,57  L 96,54  L 95,54  L 95,53  L 96,53  L 96,34  L 95,34  L 95,27  L 94,27  L 94,18  L 93,18  L 93,12  L 92,12  L 92,9  L 93,9  L 93,8  L 92,8  L 92,5  L 90,5  L 90,4  L 86,4  L 86,5  L 85,5  L 85,12  L 86,12  L 86,19  L 87,19  L 87,21  L 88,21  L 88,25  L 89,25  L 89,29  L 90,29  L 90,36  L 89,36  L 89,37  L 88,37  L 88,38  L 87,38  L 87,37  L 83,37  L 83,38  L 81,38  L 81,37  L 79,37  L 79,38  L 76,38  L 76,37  L 75,37  L 75,38  L 72,38  L 72,37  L 71,37  L 71,28  L 70,28  L 70,20  L 69,20  L 69,12  L 68,12  L 68,9  L 69,9  L 69,8  L 68,8  L 68,1  L 66,1  L 66,0  L 65,0  L 65,1  L 62,1  L 62,2  L 61,2  L 61,4  L 60,4  L 60,5  L 61,5  L 61,13  L 62,13  L 62,19  L 63,19  L 63,27  L 64,27  L 64,65  L 65,65  L 65,66  L 64,66  L 64,67  L 65,67  L 65,70  L 64,70  L 64,71  L 65,71  L 65,82  L 66,82  L 66,85  L 69,85  L 69,84  L 71,84  L 71,83  L 72,83  L 72,46  L 73,46  L 73,45  L 87,45  L 87,46  L 88,46  L 88,47  L 89,47  L 89,66  L 88,66  L 88,67  L 89,67  L 89,70  L 88,70  L 88,71  L 89,71  L 89,74  L 88,74  L 88,75  L 89,75  L 89,88  L 90,88  L 90,89  L 93,89  L 93,88  L 94,88  L 94,87  L 95,87  L 95,85  L 96,85  L 96,84  L 95,84  L 95,83  L 96,83  Z  " style="fill:rgb(0, 0, 0); fill-opacity:1.000; stroke:none;" />
</svg>
