<?xml version="1.0" encoding="UTF-8" standalone="no"?>
<!DOCTYPE svg PUBLIC "-//W3C//DTD SVG 1.1//EN" 
  "http://www.w3.org/Graphics/SVG/1.1/DTD/svg11.dtd">
<svg width="103" height="165"
     xmlns="http://www.w3.org/2000/svg" version="1.1">
 <path d="  M 7,75  L 7,76  L 8,76  L 8,77  L 10,77  L 10,78  L 15,78  L 15,77  L 22,77  L 22,76  L 26,76  L 26,75  L 30,75  L 30,74  L 33,74  L 33,73  L 38,73  L 38,72  L 39,72  L 39,71  L 41,71  L 41,70  L 43,70  L 43,69  L 44,69  L 44,67  L 45,67  L 45,66  L 46,66  L 46,65  L 47,65  L 47,62  L 48,62  L 48,61  L 47,61  L 47,60  L 48,60  L 48,54  L 47,54  L 47,53  L 48,53  L 48,33  L 49,33  L 49,32  L 48,32  L 48,31  L 49,31  L 49,23  L 48,23  L 48,21  L 47,21  L 47,20  L 46,20  L 46,19  L 43,19  L 43,18  L 41,18  L 41,17  L 18,17  L 18,18  L 17,18  L 17,17  L 7,17  L 7,16  L 4,16  L 4,17  L 3,17  L 3,18  L 2,18  L 2,19  L 1,19  L 1,20  L 0,20  L 0,23  L 1,23  L 1,58  L 2,58  L 2,59  L 1,59  L 1,60  L 2,60  L 2,67  L 3,67  L 3,70  L 4,70  L 4,73  L 5,73  L 5,75  Z  M 40,25  L 40,26  L 41,26  L 41,30  L 40,30  L 40,35  L 39,35  L 39,63  L 38,63  L 38,64  L 36,64  L 36,65  L 32,65  L 32,66  L 29,66  L 29,67  L 26,67  L 26,68  L 22,68  L 22,69  L 17,69  L 17,70  L 12,70  L 12,69  L 11,69  L 11,68  L 10,68  L 10,60  L 9,60  L 9,57  L 10,57  L 10,56  L 9,56  L 9,53  L 10,53  L 10,52  L 9,52  L 9,41  L 10,41  L 10,40  L 9,40  L 9,33  L 10,33  L 10,32  L 9,32  L 9,25  L 10,25  L 10,24  L 12,24  L 12,25  Z  " style="fill:rgb(0, 0, 0); fill-opacity:1.000; stroke:none;" />
 <path d="  M 52,96  L 52,95  L 48,95  L 48,96  L 42,96  L 42,97  L 40,97  L 40,98  L 39,98  L 39,99  L 38,99  L 38,100  L 37,100  L 37,101  L 38,101  L 38,102  L 37,102  L 37,103  L 38,103  L 38,105  L 44,105  L 44,104  L 47,104  L 47,103  L 64,103  L 64,104  L 68,104  L 68,105  L 71,105  L 71,106  L 72,106  L 72,107  L 73,107  L 73,108  L 74,108  L 74,109  L 75,109  L 75,111  L 76,111  L 76,112  L 77,112  L 77,114  L 76,114  L 76,115  L 75,115  L 75,117  L 73,117  L 73,118  L 71,118  L 71,119  L 69,119  L 69,120  L 68,120  L 68,121  L 65,121  L 65,122  L 63,122  L 63,123  L 62,123  L 62,124  L 60,124  L 60,125  L 57,125  L 57,126  L 55,126  L 55,127  L 54,127  L 54,128  L 52,128  L 52,129  L 51,129  L 51,130  L 49,130  L 49,131  L 47,131  L 47,132  L 46,132  L 46,133  L 45,133  L 45,134  L 44,134  L 44,135  L 43,135  L 43,137  L 42,137  L 42,140  L 41,140  L 41,142  L 40,142  L 40,145  L 39,145  L 39,155  L 40,155  L 40,157  L 41,157  L 41,160  L 43,160  L 43,161  L 44,161  L 44,162  L 45,162  L 45,163  L 47,163  L 47,164  L 51,164  L 51,165  L 67,165  L 67,164  L 70,164  L 70,163  L 73,163  L 73,162  L 75,162  L 75,161  L 79,161  L 79,160  L 82,160  L 82,159  L 84,159  L 84,158  L 85,158  L 85,157  L 87,157  L 87,156  L 90,156  L 90,155  L 92,155  L 92,154  L 94,154  L 94,153  L 96,153  L 96,152  L 98,152  L 98,151  L 99,151  L 99,150  L 100,150  L 100,148  L 101,148  L 101,145  L 100,145  L 100,144  L 95,144  L 95,145  L 93,145  L 93,146  L 91,146  L 91,147  L 89,147  L 89,148  L 86,148  L 86,149  L 85,149  L 85,150  L 83,150  L 83,151  L 81,151  L 81,152  L 78,152  L 78,154  L 75,154  L 75,155  L 73,155  L 73,156  L 70,156  L 70,157  L 66,157  L 66,158  L 60,158  L 60,159  L 59,159  L 59,158  L 56,158  L 56,159  L 55,159  L 55,158  L 51,158  L 51,157  L 48,157  L 48,156  L 47,156  L 47,154  L 46,154  L 46,143  L 47,143  L 47,141  L 48,141  L 48,140  L 49,140  L 49,139  L 50,139  L 50,138  L 51,138  L 51,137  L 53,137  L 53,136  L 54,136  L 54,135  L 56,135  L 56,134  L 58,134  L 58,133  L 59,133  L 59,132  L 62,132  L 62,131  L 63,131  L 63,130  L 66,130  L 66,129  L 68,129  L 68,128  L 70,128  L 70,127  L 73,127  L 73,126  L 75,126  L 75,125  L 77,125  L 77,124  L 78,124  L 78,123  L 81,123  L 81,122  L 82,122  L 82,121  L 83,121  L 83,120  L 84,120  L 84,118  L 85,118  L 85,115  L 86,115  L 86,114  L 85,114  L 85,112  L 84,112  L 84,107  L 83,107  L 83,106  L 82,106  L 82,104  L 81,104  L 81,103  L 80,103  L 80,102  L 78,102  L 78,101  L 77,101  L 77,100  L 74,100  L 74,99  L 71,99  L 71,98  L 70,98  L 70,97  L 64,97  L 64,96  Z  " style="fill:rgb(0, 0, 0); fill-opacity:1.000; stroke:none;" />
 <path d="  M 78,39  L 80,39  L 80,38  L 84,38  L 84,37  L 92,37  L 92,36  L 93,36  L 93,37  L 95,37  L 95,38  L 96,38  L 96,41  L 95,41  L 95,43  L 96,43  L 96,46  L 95,46  L 95,47  L 96,47  L 96,48  L 95,48  L 95,50  L 96,50  L 96,55  L 95,55  L 95,56  L 96,56  L 96,57  L 95,57  L 95,58  L 96,58  L 96,59  L 95,59  L 95,60  L 96,60  L 96,61  L 95,61  L 95,62  L 96,62  L 96,63  L 95,63  L 95,76  L 94,76  L 94,77  L 95,77  L 95,80  L 94,80  L 94,83  L 95,83  L 95,84  L 94,84  L 94,90  L 95,90  L 95,91  L 99,91  L 99,90  L 101,90  L 101,87  L 102,87  L 102,86  L 101,86  L 101,84  L 102,84  L 102,69  L 103,69  L 103,68  L 102,68  L 102,67  L 103,67  L 103,7  L 102,7  L 102,4  L 101,4  L 101,3  L 100,3  L 100,2  L 98,2  L 98,1  L 97,1  L 97,2  L 96,2  L 96,4  L 95,4  L 95,10  L 96,10  L 96,28  L 94,28  L 94,29  L 86,29  L 86,30  L 77,30  L 77,4  L 76,4  L 76,2  L 75,2  L 75,1  L 73,1  L 73,0  L 70,0  L 70,4  L 69,4  L 69,5  L 70,5  L 70,16  L 69,16  L 69,17  L 70,17  L 70,18  L 69,18  L 69,19  L 70,19  L 70,20  L 69,20  L 69,21  L 70,21  L 70,22  L 69,22  L 69,62  L 68,62  L 68,63  L 69,63  L 69,66  L 68,66  L 68,77  L 69,77  L 69,79  L 73,79  L 73,78  L 74,78  L 74,77  L 75,77  L 75,74  L 76,74  L 76,65  L 77,65  L 77,64  L 76,64  L 76,63  L 77,63  L 77,57  L 78,57  L 78,56  L 77,56  L 77,53  L 78,53  L 78,52  L 77,52  L 77,51  L 78,51  Z  " style="fill:rgb(0, 0, 0); fill-opacity:1.000; stroke:none;" />
</svg>
