<?xml version="1.0" encoding="UTF-8" standalone="no"?>
<!DOCTYPE svg PUBLIC "-//W3C//DTD SVG 1.1//EN" 
  "http://www.w3.org/Graphics/SVG/1.1/DTD/svg11.dtd">
<svg width="106" height="148"
     xmlns="http://www.w3.org/2000/svg" version="1.1">
 <path d="  M 38,59  L 38,60  L 35,60  L 35,61  L 33,61  L 33,60  L 32,60  L 32,61  L 30,61  L 30,62  L 29,62  L 29,61  L 28,61  L 28,62  L 27,62  L 27,63  L 22,63  L 22,64  L 16,64  L 16,63  L 14,63  L 14,51  L 13,51  L 13,50  L 14,50  L 14,48  L 13,48  L 13,45  L 14,45  L 14,44  L 13,44  L 13,42  L 14,42  L 14,41  L 13,41  L 13,34  L 14,34  L 14,33  L 13,33  L 13,18  L 16,18  L 16,19  L 17,19  L 17,20  L 18,20  L 18,19  L 36,19  L 36,20  L 37,20  L 37,19  L 39,19  L 39,20  L 42,20  L 42,21  L 43,21  L 43,22  L 44,22  L 44,33  L 43,33  L 43,34  L 44,34  L 44,36  L 43,36  L 43,56  L 42,56  L 42,58  L 40,58  L 40,59  Z  M 45,64  L 45,63  L 46,63  L 46,62  L 50,62  L 50,60  L 51,60  L 51,30  L 52,30  L 52,29  L 51,29  L 51,26  L 52,26  L 52,18  L 51,18  L 51,17  L 50,17  L 50,16  L 48,16  L 48,15  L 45,15  L 45,14  L 42,14  L 42,13  L 28,13  L 28,12  L 27,12  L 27,13  L 26,13  L 26,12  L 25,12  L 25,13  L 18,13  L 18,12  L 14,12  L 14,11  L 11,11  L 11,10  L 6,10  L 6,11  L 4,11  L 4,12  L 3,12  L 3,13  L 1,13  L 1,14  L 0,14  L 0,15  L 2,15  L 2,16  L 3,16  L 3,17  L 5,17  L 5,38  L 6,38  L 6,39  L 5,39  L 5,42  L 6,42  L 6,44  L 5,44  L 5,45  L 6,45  L 6,48  L 5,48  L 5,49  L 6,49  L 6,63  L 7,63  L 7,66  L 8,66  L 8,68  L 9,68  L 9,69  L 10,69  L 10,70  L 12,70  L 12,71  L 14,71  L 14,72  L 20,72  L 20,71  L 25,71  L 25,70  L 28,70  L 28,69  L 31,69  L 31,68  L 34,68  L 34,67  L 39,67  L 39,66  L 42,66  L 42,65  L 44,65  L 44,64  Z  " style="fill:rgb(0, 0, 0); fill-opacity:1.000; stroke:none;" />
 <path d="  M 74,148  L 74,147  L 78,147  L 78,146  L 82,146  L 82,145  L 85,145  L 85,144  L 88,144  L 88,143  L 90,143  L 90,142  L 92,142  L 92,141  L 94,141  L 94,140  L 95,140  L 95,139  L 96,139  L 96,138  L 97,138  L 97,137  L 98,137  L 98,136  L 99,136  L 99,135  L 100,135  L 100,134  L 101,134  L 101,132  L 102,132  L 102,130  L 103,130  L 103,128  L 104,128  L 104,123  L 105,123  L 105,119  L 106,119  L 106,100  L 105,100  L 105,99  L 104,99  L 104,98  L 103,98  L 103,97  L 102,97  L 102,96  L 101,96  L 101,95  L 99,95  L 99,94  L 98,94  L 98,93  L 97,93  L 97,92  L 96,92  L 96,91  L 95,91  L 95,90  L 91,90  L 91,89  L 89,89  L 89,88  L 88,88  L 88,89  L 87,89  L 87,88  L 80,88  L 80,89  L 79,89  L 79,88  L 77,88  L 77,89  L 75,89  L 75,88  L 70,88  L 70,87  L 69,87  L 69,88  L 68,88  L 68,87  L 67,87  L 67,88  L 64,88  L 64,89  L 59,89  L 59,90  L 57,90  L 57,91  L 55,91  L 55,92  L 53,92  L 53,93  L 52,93  L 52,94  L 51,94  L 51,95  L 50,95  L 50,97  L 49,97  L 49,98  L 48,98  L 48,99  L 47,99  L 47,101  L 46,101  L 46,102  L 45,102  L 45,103  L 44,103  L 44,105  L 43,105  L 43,107  L 42,107  L 42,109  L 41,109  L 41,110  L 40,110  L 40,114  L 39,114  L 39,117  L 38,117  L 38,124  L 37,124  L 37,135  L 38,135  L 38,140  L 39,140  L 39,141  L 40,141  L 40,142  L 41,142  L 41,143  L 42,143  L 42,144  L 45,144  L 45,145  L 47,145  L 47,146  L 49,146  L 49,147  L 55,147  L 55,148  Z  M 52,105  L 53,105  L 53,104  L 55,104  L 55,103  L 56,103  L 56,102  L 57,102  L 57,101  L 59,101  L 59,100  L 61,100  L 61,99  L 62,99  L 62,98  L 65,98  L 65,97  L 68,97  L 68,96  L 82,96  L 82,97  L 88,97  L 88,98  L 93,98  L 93,99  L 95,99  L 95,100  L 97,100  L 97,103  L 98,103  L 98,105  L 99,105  L 99,112  L 98,112  L 98,119  L 97,119  L 97,124  L 96,124  L 96,127  L 95,127  L 95,128  L 94,128  L 94,130  L 93,130  L 93,132  L 92,132  L 92,133  L 91,133  L 91,134  L 89,134  L 89,135  L 87,135  L 87,136  L 86,136  L 86,137  L 83,137  L 83,138  L 80,138  L 80,139  L 79,139  L 79,140  L 78,140  L 78,139  L 77,139  L 77,140  L 76,140  L 76,141  L 67,141  L 67,142  L 66,142  L 66,141  L 53,141  L 53,140  L 49,140  L 49,139  L 48,139  L 48,138  L 46,138  L 46,137  L 45,137  L 45,135  L 44,135  L 44,122  L 45,122  L 45,116  L 46,116  L 46,115  L 47,115  L 47,112  L 48,112  L 48,111  L 49,111  L 49,109  L 50,109  L 50,108  L 51,108  L 51,107  L 52,107  Z  " style="fill:rgb(0, 0, 0); fill-opacity:1.000; stroke:none;" />
 <path d="  M 70,38  L 71,38  L 71,41  L 70,41  L 70,42  L 71,42  L 71,51  L 70,51  L 70,52  L 71,52  L 71,53  L 70,53  L 70,74  L 71,74  L 71,75  L 72,75  L 72,76  L 73,76  L 73,75  L 74,75  L 74,74  L 75,74  L 75,73  L 76,73  L 76,71  L 77,71  L 77,62  L 78,62  L 78,61  L 77,61  L 77,60  L 78,60  L 78,59  L 77,59  L 77,58  L 78,58  L 78,48  L 79,48  L 79,42  L 80,42  L 80,41  L 82,41  L 82,40  L 87,40  L 87,39  L 94,39  L 94,38  L 96,38  L 96,39  L 97,39  L 97,79  L 100,79  L 100,80  L 102,80  L 102,79  L 103,79  L 103,78  L 104,78  L 104,27  L 103,27  L 103,21  L 102,21  L 102,14  L 101,14  L 101,9  L 100,9  L 100,5  L 98,5  L 98,4  L 93,4  L 93,5  L 92,5  L 92,8  L 91,8  L 91,9  L 92,9  L 92,12  L 93,12  L 93,15  L 94,15  L 94,18  L 95,18  L 95,22  L 96,22  L 96,31  L 94,31  L 94,32  L 91,32  L 91,33  L 84,33  L 84,34  L 79,34  L 79,33  L 78,33  L 78,19  L 77,19  L 77,18  L 78,18  L 78,17  L 77,17  L 77,16  L 78,16  L 78,15  L 77,15  L 77,3  L 76,3  L 76,1  L 74,1  L 74,0  L 72,0  L 72,1  L 70,1  Z  " style="fill:rgb(0, 0, 0); fill-opacity:1.000; stroke:none;" />
</svg>
