<?xml version="1.0" encoding="UTF-8" standalone="no"?>
<!DOCTYPE svg PUBLIC "-//W3C//DTD SVG 1.1//EN" 
  "http://www.w3.org/Graphics/SVG/1.1/DTD/svg11.dtd">
<svg width="106" height="149"
     xmlns="http://www.w3.org/2000/svg" version="1.1">
 <path d="  M 45,64  L 45,63  L 46,63  L 46,62  L 47,62  L 47,61  L 48,61  L 48,60  L 49,60  L 49,58  L 50,58  L 50,57  L 49,57  L 49,56  L 50,56  L 50,53  L 49,53  L 49,52  L 50,52  L 50,49  L 49,49  L 49,48  L 50,48  L 50,45  L 49,45  L 49,44  L 50,44  L 50,41  L 49,41  L 49,40  L 50,40  L 50,37  L 49,37  L 49,36  L 50,36  L 50,33  L 49,33  L 49,32  L 50,32  L 50,29  L 49,29  L 49,28  L 50,28  L 50,19  L 49,19  L 49,17  L 48,17  L 48,16  L 47,16  L 47,15  L 46,15  L 46,14  L 43,14  L 43,13  L 42,13  L 42,14  L 41,14  L 41,13  L 12,13  L 12,12  L 10,12  L 10,11  L 8,11  L 8,12  L 6,12  L 6,13  L 5,13  L 5,14  L 4,14  L 4,16  L 3,16  L 3,15  L 1,15  L 1,18  L 4,18  L 4,19  L 5,19  L 5,21  L 4,21  L 4,22  L 5,22  L 5,29  L 4,29  L 4,30  L 5,30  L 5,55  L 6,55  L 6,56  L 5,56  L 5,58  L 6,58  L 6,63  L 7,63  L 7,67  L 8,67  L 8,68  L 9,68  L 9,70  L 10,70  L 10,71  L 12,71  L 12,72  L 13,72  L 13,73  L 20,73  L 20,72  L 23,72  L 23,71  L 25,71  L 25,70  L 28,70  L 28,69  L 30,69  L 30,68  L 33,68  L 33,67  L 35,67  L 35,66  L 38,66  L 38,65  L 42,65  L 42,64  Z  M 12,20  L 13,20  L 13,19  L 37,19  L 37,20  L 40,20  L 40,19  L 41,19  L 41,20  L 43,20  L 43,24  L 42,24  L 42,26  L 43,26  L 43,27  L 42,27  L 42,30  L 43,30  L 43,31  L 42,31  L 42,34  L 43,34  L 43,36  L 42,36  L 42,38  L 43,38  L 43,40  L 42,40  L 42,42  L 43,42  L 43,44  L 42,44  L 42,46  L 43,46  L 43,49  L 42,49  L 42,50  L 43,50  L 43,51  L 42,51  L 42,52  L 43,52  L 43,53  L 42,53  L 42,56  L 41,56  L 41,57  L 40,57  L 40,58  L 37,58  L 37,59  L 35,59  L 35,60  L 31,60  L 31,61  L 29,61  L 29,62  L 27,62  L 27,63  L 25,63  L 25,64  L 23,64  L 23,65  L 20,65  L 20,66  L 16,66  L 16,65  L 14,65  L 14,64  L 13,64  L 13,57  L 12,57  L 12,56  L 13,56  L 13,51  L 12,51  L 12,50  L 13,50  L 13,49  L 12,49  Z  " style="fill:rgb(0, 0, 0); fill-opacity:1.000; stroke:none;" />
 <path d="  M 55,97  L 55,96  L 56,96  L 56,97  L 57,97  L 57,96  L 58,96  L 58,97  L 59,97  L 59,96  L 65,96  L 65,95  L 73,95  L 73,96  L 74,96  L 74,98  L 73,98  L 73,100  L 72,100  L 72,101  L 71,101  L 71,102  L 70,102  L 70,103  L 69,103  L 69,104  L 68,104  L 68,105  L 67,105  L 67,106  L 65,106  L 65,107  L 64,107  L 64,109  L 63,109  L 63,110  L 62,110  L 62,111  L 61,111  L 61,112  L 60,112  L 60,114  L 59,114  L 59,116  L 58,116  L 58,117  L 57,117  L 57,119  L 56,119  L 56,121  L 55,121  L 55,122  L 54,122  L 54,124  L 53,124  L 53,127  L 52,127  L 52,129  L 51,129  L 51,130  L 50,130  L 50,132  L 49,132  L 49,133  L 48,133  L 48,135  L 47,135  L 47,137  L 46,137  L 46,139  L 45,139  L 45,140  L 44,140  L 44,141  L 43,141  L 43,143  L 42,143  L 42,144  L 41,144  L 41,145  L 40,145  L 40,148  L 41,148  L 41,149  L 47,149  L 47,148  L 48,148  L 48,147  L 49,147  L 49,145  L 50,145  L 50,144  L 51,144  L 51,142  L 52,142  L 52,140  L 53,140  L 53,138  L 54,138  L 54,137  L 55,137  L 55,135  L 56,135  L 56,133  L 57,133  L 57,132  L 58,132  L 58,130  L 59,130  L 59,128  L 60,128  L 60,126  L 61,126  L 61,125  L 62,125  L 62,124  L 63,124  L 63,122  L 64,122  L 64,120  L 66,120  L 66,119  L 69,119  L 69,120  L 71,120  L 71,121  L 73,121  L 73,122  L 75,122  L 75,123  L 77,123  L 77,124  L 79,124  L 79,125  L 81,125  L 81,126  L 83,126  L 83,127  L 85,127  L 85,128  L 87,128  L 87,130  L 90,130  L 90,131  L 91,131  L 91,132  L 92,132  L 92,133  L 94,133  L 94,134  L 97,134  L 97,135  L 104,135  L 104,134  L 106,134  L 106,131  L 105,131  L 105,130  L 103,130  L 103,129  L 100,129  L 100,128  L 97,128  L 97,127  L 96,127  L 96,126  L 95,126  L 95,125  L 93,125  L 93,124  L 91,124  L 91,123  L 90,123  L 90,122  L 87,122  L 87,121  L 85,121  L 85,120  L 83,120  L 83,119  L 81,119  L 81,118  L 79,118  L 79,117  L 77,117  L 77,116  L 76,116  L 76,115  L 73,115  L 73,114  L 71,114  L 71,115  L 69,115  L 69,112  L 70,112  L 70,111  L 71,111  L 71,110  L 72,110  L 72,109  L 73,109  L 73,108  L 74,108  L 74,107  L 76,107  L 76,105  L 77,105  L 77,104  L 78,104  L 78,103  L 79,103  L 79,101  L 80,101  L 80,100  L 81,100  L 81,99  L 82,99  L 82,94  L 81,94  L 81,93  L 80,93  L 80,92  L 79,92  L 79,91  L 78,91  L 78,90  L 76,90  L 76,89  L 74,89  L 74,88  L 65,88  L 65,89  L 58,89  L 58,90  L 55,90  L 55,89  L 54,89  L 54,90  L 49,90  L 49,91  L 43,91  L 43,92  L 39,92  L 39,93  L 36,93  L 36,95  L 35,95  L 35,99  L 36,99  L 36,100  L 39,100  L 39,99  L 41,99  L 41,98  L 46,98  L 46,97  Z  " style="fill:rgb(0, 0, 0); fill-opacity:1.000; stroke:none;" />
 <path d="  M 76,3  L 75,3  L 75,2  L 74,2  L 74,1  L 73,1  L 73,0  L 72,0  L 72,1  L 71,1  L 71,0  L 70,0  L 70,1  L 69,1  L 69,2  L 68,2  L 68,40  L 69,40  L 69,41  L 68,41  L 68,42  L 69,42  L 69,43  L 68,43  L 68,44  L 69,44  L 69,47  L 68,47  L 68,48  L 69,48  L 69,51  L 68,51  L 68,52  L 69,52  L 69,55  L 68,55  L 68,56  L 69,56  L 69,59  L 68,59  L 68,60  L 69,60  L 69,63  L 68,63  L 68,64  L 69,64  L 69,67  L 68,67  L 68,68  L 69,68  L 69,75  L 70,75  L 70,77  L 72,77  L 72,78  L 74,78  L 74,77  L 76,77  L 76,74  L 77,74  L 77,73  L 76,73  L 76,71  L 77,71  L 77,69  L 76,69  L 76,67  L 77,67  L 77,65  L 76,65  L 76,64  L 77,64  L 77,54  L 78,54  L 78,53  L 77,53  L 77,50  L 78,50  L 78,49  L 77,49  L 77,48  L 78,48  L 78,47  L 77,47  L 77,46  L 78,46  L 78,45  L 77,45  L 77,43  L 78,43  L 78,34  L 79,34  L 79,33  L 83,33  L 83,32  L 90,32  L 90,31  L 97,31  L 97,34  L 98,34  L 98,51  L 99,51  L 99,53  L 98,53  L 98,55  L 99,55  L 99,57  L 98,57  L 98,59  L 99,59  L 99,60  L 98,60  L 98,63  L 99,63  L 99,64  L 98,64  L 98,71  L 99,71  L 99,72  L 98,72  L 98,74  L 99,74  L 99,75  L 98,75  L 98,76  L 99,76  L 99,78  L 103,78  L 103,77  L 104,77  L 104,76  L 105,76  L 105,74  L 106,74  L 106,39  L 105,39  L 105,38  L 106,38  L 106,35  L 105,35  L 105,34  L 106,34  L 106,19  L 105,19  L 105,18  L 106,18  L 106,15  L 105,15  L 105,14  L 106,14  L 106,11  L 105,11  L 105,7  L 104,7  L 104,6  L 100,6  L 100,7  L 99,7  L 99,13  L 98,13  L 98,14  L 99,14  L 99,16  L 98,16  L 98,23  L 97,23  L 97,24  L 96,24  L 96,25  L 95,25  L 95,24  L 94,24  L 94,25  L 85,25  L 85,26  L 83,26  L 83,25  L 82,25  L 82,26  L 77,26  L 77,25  L 76,25  Z  " style="fill:rgb(0, 0, 0); fill-opacity:1.000; stroke:none;" />
</svg>
