<?xml version="1.0" encoding="UTF-8" standalone="no"?>
<!DOCTYPE svg PUBLIC "-//W3C//DTD SVG 1.1//EN" 
  "http://www.w3.org/Graphics/SVG/1.1/DTD/svg11.dtd">
<svg width="120" height="98"
     xmlns="http://www.w3.org/2000/svg" version="1.1">
 <path d="  M 52,28  L 52,61  L 51,61  L 51,66  L 50,66  L 50,68  L 49,68  L 49,69  L 47,69  L 47,70  L 45,70  L 45,71  L 43,71  L 43,72  L 41,72  L 41,73  L 37,73  L 37,74  L 34,74  L 34,75  L 30,75  L 30,76  L 25,76  L 25,77  L 18,77  L 18,76  L 17,76  L 17,75  L 16,75  L 16,59  L 17,59  L 17,58  L 16,58  L 16,55  L 17,55  L 17,54  L 16,54  L 16,51  L 17,51  L 17,50  L 16,50  L 16,49  L 17,49  L 17,36  L 18,36  L 18,31  L 19,31  L 19,29  L 20,29  L 20,28  L 22,28  L 22,29  L 26,29  L 26,28  L 46,28  L 46,27  L 47,27  L 47,28  Z  M 11,41  L 10,41  L 10,43  L 11,43  L 11,44  L 10,44  L 10,50  L 9,50  L 9,51  L 10,51  L 10,52  L 9,52  L 9,73  L 10,73  L 10,78  L 11,78  L 11,82  L 12,82  L 12,83  L 17,83  L 17,84  L 20,84  L 20,83  L 21,83  L 21,84  L 22,84  L 22,83  L 26,83  L 26,82  L 27,82  L 27,83  L 28,83  L 28,82  L 33,82  L 33,81  L 36,81  L 36,80  L 40,80  L 40,79  L 42,79  L 42,78  L 45,78  L 45,77  L 47,77  L 47,76  L 49,76  L 49,75  L 51,75  L 51,74  L 52,74  L 52,73  L 53,73  L 53,71  L 54,71  L 54,70  L 55,70  L 55,69  L 56,69  L 56,68  L 57,68  L 57,63  L 58,63  L 58,60  L 57,60  L 57,59  L 58,59  L 58,31  L 59,31  L 59,30  L 58,30  L 58,28  L 59,28  L 59,24  L 60,24  L 60,23  L 61,23  L 61,22  L 55,22  L 55,21  L 52,21  L 52,22  L 51,22  L 51,21  L 50,21  L 50,22  L 49,22  L 49,21  L 48,21  L 48,22  L 47,22  L 47,21  L 40,21  L 40,22  L 39,22  L 39,21  L 35,21  L 35,22  L 33,22  L 33,21  L 32,21  L 32,22  L 29,22  L 29,21  L 28,21  L 28,22  L 10,22  L 10,23  L 0,23  L 0,25  L 2,25  L 2,26  L 3,26  L 3,27  L 4,27  L 4,26  L 6,26  L 6,27  L 9,27  L 9,28  L 11,28  Z  " style="fill:rgb(0, 0, 0); fill-opacity:1.000; stroke:none;" />
 <path d="  M 85,55  L 85,56  L 84,56  L 84,54  L 83,54  L 83,37  L 84,37  L 84,33  L 88,33  L 88,34  L 92,34  L 92,35  L 93,35  L 93,34  L 96,34  L 96,35  L 97,35  L 97,34  L 100,34  L 100,35  L 101,35  L 101,34  L 104,34  L 104,35  L 105,35  L 105,34  L 118,34  L 118,33  L 119,33  L 119,34  L 120,34  L 120,29  L 119,29  L 119,28  L 116,28  L 116,27  L 115,27  L 115,28  L 102,28  L 102,27  L 101,27  L 101,28  L 100,28  L 100,27  L 99,27  L 99,28  L 98,28  L 98,27  L 90,27  L 90,26  L 89,26  L 89,27  L 84,27  L 84,26  L 83,26  L 83,25  L 82,25  L 82,19  L 81,19  L 81,15  L 82,15  L 82,2  L 81,2  L 81,0  L 77,0  L 77,1  L 76,1  L 76,3  L 75,3  L 75,6  L 74,6  L 74,13  L 75,13  L 75,22  L 76,22  L 76,35  L 77,35  L 77,36  L 76,36  L 76,39  L 77,39  L 77,41  L 76,41  L 76,43  L 77,43  L 77,44  L 76,44  L 76,47  L 77,47  L 77,49  L 76,49  L 76,51  L 77,51  L 77,52  L 76,52  L 76,80  L 75,80  L 75,81  L 76,81  L 76,84  L 75,84  L 75,85  L 76,85  L 76,88  L 75,88  L 75,89  L 76,89  L 76,94  L 75,94  L 75,95  L 76,95  L 76,98  L 82,98  L 82,97  L 83,97  L 83,65  L 84,65  L 84,63  L 85,63  L 85,62  L 105,62  L 105,61  L 106,61  L 106,60  L 107,60  L 107,59  L 108,59  L 108,56  L 107,56  L 107,55  L 106,55  L 106,54  L 101,54  L 101,55  L 98,55  L 98,54  L 97,54  L 97,55  L 94,55  L 94,54  L 93,54  L 93,55  L 90,55  L 90,54  L 89,54  L 89,55  Z  " style="fill:rgb(0, 0, 0); fill-opacity:1.000; stroke:none;" />
</svg>
