<?xml version="1.0" encoding="UTF-8" standalone="no"?>
<!DOCTYPE svg PUBLIC "-//W3C//DTD SVG 1.1//EN" 
  "http://www.w3.org/Graphics/SVG/1.1/DTD/svg11.dtd">
<svg width="102" height="164"
     xmlns="http://www.w3.org/2000/svg" version="1.1">
 <path d="  M 56,36  L 55,36  L 55,30  L 56,30  L 56,24  L 57,24  L 57,18  L 56,18  L 56,17  L 55,17  L 55,15  L 53,15  L 53,14  L 51,14  L 51,13  L 50,13  L 50,14  L 49,14  L 49,13  L 47,13  L 47,14  L 39,14  L 39,15  L 38,15  L 38,14  L 37,14  L 37,15  L 27,15  L 27,16  L 24,16  L 24,15  L 23,15  L 23,16  L 20,16  L 20,15  L 19,15  L 19,16  L 18,16  L 18,15  L 14,15  L 14,14  L 6,14  L 6,15  L 4,15  L 4,16  L 2,16  L 2,18  L 0,18  L 0,20  L 1,20  L 1,21  L 3,21  L 3,22  L 5,22  L 5,21  L 6,21  L 6,22  L 7,22  L 7,34  L 8,34  L 8,35  L 7,35  L 7,38  L 8,38  L 8,39  L 7,39  L 7,42  L 8,42  L 8,43  L 7,43  L 7,46  L 8,46  L 8,48  L 7,48  L 7,50  L 8,50  L 8,51  L 7,51  L 7,54  L 8,54  L 8,56  L 7,56  L 7,58  L 8,58  L 8,60  L 7,60  L 7,62  L 8,62  L 8,65  L 7,65  L 7,66  L 8,66  L 8,71  L 9,71  L 9,74  L 10,74  L 10,75  L 11,75  L 11,76  L 12,76  L 12,77  L 13,77  L 13,78  L 15,78  L 15,79  L 17,79  L 17,80  L 27,80  L 27,79  L 34,79  L 34,78  L 38,78  L 38,77  L 43,77  L 43,76  L 47,76  L 47,75  L 49,75  L 49,74  L 50,74  L 50,73  L 51,73  L 51,72  L 52,72  L 52,71  L 53,71  L 53,66  L 54,66  L 54,60  L 55,60  L 55,48  L 56,48  L 56,47  L 55,47  L 55,46  L 56,46  Z  M 16,63  L 15,63  L 15,62  L 16,62  L 16,61  L 15,61  L 15,60  L 16,60  L 16,59  L 15,59  L 15,56  L 16,56  L 16,55  L 15,55  L 15,52  L 16,52  L 16,51  L 15,51  L 15,22  L 35,22  L 35,21  L 47,21  L 47,20  L 48,20  L 48,21  L 49,21  L 49,26  L 48,26  L 48,57  L 47,57  L 47,58  L 48,58  L 48,59  L 47,59  L 47,63  L 46,63  L 46,66  L 45,66  L 45,67  L 43,67  L 43,68  L 40,68  L 40,69  L 38,69  L 38,70  L 35,70  L 35,71  L 29,71  L 29,72  L 19,72  L 19,71  L 17,71  L 17,69  L 16,69  Z  " style="fill:rgb(0, 0, 0); fill-opacity:1.000; stroke:none;" />
 <path d="  M 91,160  L 91,159  L 93,159  L 93,158  L 95,158  L 95,157  L 96,157  L 96,156  L 97,156  L 97,155  L 98,155  L 98,150  L 99,150  L 99,142  L 100,142  L 100,140  L 99,140  L 99,139  L 100,139  L 100,132  L 101,132  L 101,131  L 100,131  L 100,130  L 101,130  L 101,129  L 100,129  L 100,128  L 101,128  L 101,119  L 102,119  L 102,111  L 101,111  L 101,108  L 100,108  L 100,107  L 99,107  L 99,105  L 98,105  L 98,104  L 97,104  L 97,103  L 96,103  L 96,102  L 79,102  L 79,103  L 69,103  L 69,104  L 68,104  L 68,103  L 67,103  L 67,104  L 59,104  L 59,105  L 51,105  L 51,106  L 48,106  L 48,105  L 47,105  L 47,106  L 45,106  L 45,105  L 36,105  L 36,106  L 33,106  L 33,107  L 31,107  L 31,108  L 30,108  L 30,111  L 29,111  L 29,112  L 30,112  L 30,113  L 31,113  L 31,114  L 33,114  L 33,113  L 35,113  L 35,114  L 37,114  L 37,118  L 38,118  L 38,121  L 37,121  L 37,122  L 38,122  L 38,125  L 37,125  L 37,126  L 38,126  L 38,129  L 37,129  L 37,130  L 38,130  L 38,150  L 39,150  L 39,155  L 40,155  L 40,159  L 41,159  L 41,160  L 42,160  L 42,162  L 44,162  L 44,163  L 45,163  L 45,164  L 72,164  L 72,163  L 73,163  L 73,164  L 74,164  L 74,163  L 77,163  L 77,164  L 78,164  L 78,163  L 80,163  L 80,162  L 81,162  L 81,163  L 82,163  L 82,162  L 86,162  L 86,161  L 88,161  L 88,160  Z  M 79,156  L 66,156  L 66,157  L 65,157  L 65,156  L 64,156  L 64,157  L 49,157  L 49,156  L 47,156  L 47,155  L 46,155  L 46,153  L 45,153  L 45,139  L 44,139  L 44,137  L 45,137  L 45,135  L 44,135  L 44,126  L 45,126  L 45,125  L 44,125  L 44,122  L 45,122  L 45,121  L 44,121  L 44,115  L 45,115  L 45,114  L 46,114  L 46,113  L 47,113  L 47,114  L 51,114  L 51,113  L 54,113  L 54,114  L 55,114  L 55,113  L 60,113  L 60,112  L 66,112  L 66,111  L 74,111  L 74,110  L 84,110  L 84,109  L 86,109  L 86,110  L 92,110  L 92,111  L 93,111  L 93,112  L 94,112  L 94,113  L 95,113  L 95,119  L 94,119  L 94,127  L 93,127  L 93,137  L 92,137  L 92,143  L 91,143  L 91,151  L 90,151  L 90,153  L 89,153  L 89,154  L 84,154  L 84,155  L 79,155  Z  " style="fill:rgb(0, 0, 0); fill-opacity:1.000; stroke:none;" />
 <path d="  M 94,67  L 95,67  L 95,69  L 94,69  L 94,79  L 93,79  L 93,80  L 94,80  L 94,83  L 93,83  L 93,84  L 94,84  L 94,87  L 93,87  L 93,88  L 94,88  L 94,90  L 93,90  L 93,91  L 94,91  L 94,92  L 93,92  L 93,95  L 94,95  L 94,96  L 96,96  L 96,97  L 100,97  L 100,96  L 101,96  L 101,82  L 102,82  L 102,81  L 101,81  L 101,79  L 102,79  L 102,77  L 101,77  L 101,75  L 102,75  L 102,13  L 101,13  L 101,10  L 102,10  L 102,9  L 101,9  L 101,3  L 100,3  L 100,2  L 99,2  L 99,1  L 97,1  L 97,0  L 95,0  L 95,1  L 93,1  L 93,3  L 92,3  L 92,6  L 93,6  L 93,14  L 94,14  L 94,19  L 95,19  L 95,20  L 94,20  L 94,22  L 95,22  L 95,32  L 93,32  L 93,33  L 90,33  L 90,34  L 88,34  L 88,33  L 87,33  L 87,34  L 84,34  L 84,35  L 74,35  L 74,36  L 61,36  L 61,37  L 60,37  L 60,42  L 61,42  L 61,44  L 62,44  L 62,45  L 66,45  L 66,44  L 72,44  L 72,43  L 78,43  L 78,42  L 87,42  L 87,41  L 88,41  L 88,42  L 89,42  L 89,41  L 91,41  L 91,40  L 94,40  L 94,42  L 95,42  L 95,65  L 94,65  Z  " style="fill:rgb(0, 0, 0); fill-opacity:1.000; stroke:none;" />
</svg>
