<?xml version="1.0" encoding="UTF-8" standalone="no"?>
<!DOCTYPE svg PUBLIC "-//W3C//DTD SVG 1.1//EN" 
  "http://www.w3.org/Graphics/SVG/1.1/DTD/svg11.dtd">
<svg width="107" height="154"
     xmlns="http://www.w3.org/2000/svg" version="1.1">
 <path d="  M 56,35  L 57,35  L 57,34  L 56,34  L 56,23  L 57,23  L 57,22  L 56,22  L 56,21  L 57,21  L 57,18  L 56,18  L 56,16  L 54,16  L 54,15  L 53,15  L 53,14  L 52,14  L 52,13  L 50,13  L 50,12  L 32,12  L 32,13  L 31,13  L 31,12  L 30,12  L 30,13  L 19,13  L 19,12  L 14,12  L 14,11  L 8,11  L 8,12  L 6,12  L 6,13  L 4,13  L 4,14  L 2,14  L 2,15  L 1,15  L 1,16  L 0,16  L 0,17  L 4,17  L 4,18  L 6,18  L 6,19  L 7,19  L 7,47  L 8,47  L 8,48  L 7,48  L 7,51  L 8,51  L 8,53  L 7,53  L 7,55  L 8,55  L 8,57  L 7,57  L 7,58  L 8,58  L 8,68  L 9,68  L 9,71  L 11,71  L 11,72  L 12,72  L 12,73  L 13,73  L 13,74  L 16,74  L 16,75  L 19,75  L 19,76  L 22,76  L 22,75  L 23,75  L 23,76  L 25,76  L 25,75  L 31,75  L 31,74  L 37,74  L 37,73  L 42,73  L 42,72  L 46,72  L 46,71  L 48,71  L 48,70  L 50,70  L 50,69  L 51,69  L 51,68  L 52,68  L 52,67  L 53,67  L 53,65  L 54,65  L 54,64  L 55,64  L 55,60  L 56,60  Z  M 16,65  L 15,65  L 15,56  L 14,56  L 14,55  L 15,55  L 15,52  L 14,52  L 14,51  L 15,51  L 15,50  L 14,50  L 14,49  L 15,49  L 15,48  L 14,48  L 14,19  L 15,19  L 15,18  L 17,18  L 17,19  L 46,19  L 46,18  L 49,18  L 49,19  L 50,19  L 50,20  L 49,20  L 49,32  L 48,32  L 48,33  L 49,33  L 49,36  L 48,36  L 48,37  L 49,37  L 49,56  L 48,56  L 48,62  L 47,62  L 47,63  L 46,63  L 46,64  L 45,64  L 45,65  L 42,65  L 42,66  L 37,66  L 37,67  L 32,67  L 32,68  L 26,68  L 26,69  L 19,69  L 19,68  L 16,68  Z  " style="fill:rgb(0, 0, 0); fill-opacity:1.000; stroke:none;" />
 <path d="  M 51,119  L 51,120  L 53,120  L 53,122  L 54,122  L 54,123  L 56,123  L 56,124  L 57,124  L 57,125  L 60,125  L 60,126  L 62,126  L 62,127  L 63,127  L 63,128  L 65,128  L 65,130  L 67,130  L 67,131  L 69,131  L 69,132  L 71,132  L 71,133  L 72,133  L 72,134  L 73,134  L 73,135  L 75,135  L 75,136  L 76,136  L 76,137  L 77,137  L 77,138  L 78,138  L 78,139  L 81,139  L 81,141  L 84,141  L 84,142  L 86,142  L 86,143  L 87,143  L 87,144  L 89,144  L 89,145  L 92,145  L 92,146  L 94,146  L 94,147  L 98,147  L 98,148  L 103,148  L 103,147  L 105,147  L 105,145  L 106,145  L 106,144  L 105,144  L 105,143  L 104,143  L 104,142  L 100,142  L 100,141  L 99,141  L 99,140  L 96,140  L 96,139  L 94,139  L 94,138  L 92,138  L 92,137  L 90,137  L 90,136  L 89,136  L 89,135  L 87,135  L 87,134  L 84,134  L 84,133  L 83,133  L 83,132  L 82,132  L 82,131  L 80,131  L 80,130  L 79,130  L 79,129  L 78,129  L 78,128  L 76,128  L 76,127  L 75,127  L 75,126  L 73,126  L 73,125  L 71,125  L 71,124  L 70,124  L 70,123  L 68,123  L 68,122  L 66,122  L 66,120  L 65,120  L 65,119  L 63,119  L 63,118  L 61,118  L 61,117  L 60,117  L 60,116  L 59,116  L 59,115  L 58,115  L 58,114  L 57,114  L 57,113  L 56,113  L 56,111  L 57,111  L 57,110  L 56,110  L 56,109  L 57,109  L 57,108  L 58,108  L 58,107  L 59,107  L 59,106  L 60,106  L 60,104  L 62,104  L 62,103  L 63,103  L 63,101  L 64,101  L 64,100  L 65,100  L 65,95  L 63,95  L 63,94  L 60,94  L 60,93  L 57,93  L 57,94  L 56,94  L 56,98  L 55,98  L 55,100  L 53,100  L 53,102  L 52,102  L 52,103  L 51,103  L 51,104  L 49,104  L 49,106  L 48,106  L 48,107  L 47,107  L 47,108  L 46,108  L 46,109  L 45,109  L 45,111  L 44,111  L 44,112  L 43,112  L 43,114  L 42,114  L 42,116  L 41,116  L 41,118  L 40,118  L 40,119  L 39,119  L 39,122  L 38,122  L 38,124  L 37,124  L 37,126  L 36,126  L 36,129  L 35,129  L 35,130  L 34,130  L 34,132  L 33,132  L 33,135  L 32,135  L 32,136  L 31,136  L 31,138  L 30,138  L 30,140  L 29,140  L 29,141  L 28,141  L 28,143  L 27,143  L 27,145  L 25,145  L 25,146  L 24,146  L 24,148  L 23,148  L 23,151  L 24,151  L 24,152  L 25,152  L 25,153  L 26,153  L 26,154  L 29,154  L 29,153  L 30,153  L 30,152  L 31,152  L 31,151  L 32,151  L 32,148  L 33,148  L 33,147  L 34,147  L 34,146  L 35,146  L 35,144  L 36,144  L 36,142  L 37,142  L 37,140  L 38,140  L 38,138  L 39,138  L 39,137  L 40,137  L 40,135  L 41,135  L 41,133  L 42,133  L 42,130  L 43,130  L 43,129  L 44,129  L 44,127  L 45,127  L 45,125  L 46,125  L 46,123  L 47,123  L 47,121  L 48,121  L 48,119  Z  " style="fill:rgb(0, 0, 0); fill-opacity:1.000; stroke:none;" />
 <path d="  M 84,32  L 84,33  L 83,33  L 83,32  L 82,32  L 82,33  L 72,33  L 72,34  L 71,34  L 71,33  L 70,33  L 70,34  L 63,34  L 63,35  L 62,35  L 62,36  L 61,36  L 61,40  L 62,40  L 62,41  L 63,41  L 63,42  L 67,42  L 67,41  L 75,41  L 75,40  L 76,40  L 76,41  L 77,41  L 77,40  L 87,40  L 87,39  L 97,39  L 97,40  L 98,40  L 98,51  L 99,51  L 99,70  L 100,70  L 100,72  L 99,72  L 99,75  L 100,75  L 100,76  L 99,76  L 99,78  L 100,78  L 100,80  L 99,80  L 99,86  L 100,86  L 100,87  L 102,87  L 102,88  L 104,88  L 104,87  L 105,87  L 105,86  L 106,86  L 106,85  L 107,85  L 107,48  L 106,48  L 106,16  L 105,16  L 105,15  L 106,15  L 106,14  L 105,14  L 105,13  L 106,13  L 106,12  L 105,12  L 105,2  L 104,2  L 104,1  L 101,1  L 101,0  L 100,0  L 100,1  L 98,1  L 98,2  L 97,2  L 97,3  L 98,3  L 98,30  L 97,30  L 97,31  L 92,31  L 92,32  Z  " style="fill:rgb(0, 0, 0); fill-opacity:1.000; stroke:none;" />
</svg>
