<?xml version="1.0" encoding="UTF-8" standalone="no"?>
<!DOCTYPE svg PUBLIC "-//W3C//DTD SVG 1.1//EN" 
  "http://www.w3.org/Graphics/SVG/1.1/DTD/svg11.dtd">
<svg width="102" height="160"
     xmlns="http://www.w3.org/2000/svg" version="1.1">
 <path d="  M 7,47  L 7,49  L 6,49  L 6,51  L 7,51  L 7,53  L 6,53  L 6,55  L 7,55  L 7,57  L 6,57  L 6,64  L 7,64  L 7,65  L 6,65  L 6,67  L 7,67  L 7,73  L 8,73  L 8,75  L 9,75  L 9,76  L 10,76  L 10,77  L 11,77  L 11,78  L 12,78  L 12,79  L 13,79  L 13,81  L 15,81  L 15,80  L 16,80  L 16,81  L 19,81  L 19,82  L 20,82  L 20,81  L 30,81  L 30,80  L 35,80  L 35,79  L 36,79  L 36,80  L 37,80  L 37,79  L 39,79  L 39,78  L 40,78  L 40,79  L 42,79  L 42,78  L 46,78  L 46,77  L 47,77  L 47,76  L 49,76  L 49,75  L 50,75  L 50,74  L 51,74  L 51,73  L 52,73  L 52,72  L 53,72  L 53,70  L 54,70  L 54,68  L 55,68  L 55,64  L 56,64  L 56,59  L 57,59  L 57,58  L 56,58  L 56,56  L 57,56  L 57,51  L 58,51  L 58,50  L 57,50  L 57,49  L 58,49  L 58,48  L 57,48  L 57,47  L 58,47  L 58,46  L 57,46  L 57,45  L 58,45  L 58,44  L 57,44  L 57,29  L 58,29  L 58,28  L 57,28  L 57,27  L 58,27  L 58,23  L 59,23  L 59,20  L 57,20  L 57,18  L 55,18  L 55,17  L 33,17  L 33,18  L 32,18  L 32,17  L 31,17  L 31,18  L 16,18  L 16,17  L 15,17  L 15,16  L 12,16  L 12,15  L 6,15  L 6,16  L 4,16  L 4,17  L 3,17  L 3,18  L 2,18  L 2,19  L 0,19  L 0,22  L 1,22  L 1,23  L 4,23  L 4,22  L 6,22  L 6,24  L 7,24  L 7,30  L 6,30  L 6,31  L 7,31  L 7,33  L 6,33  L 6,35  L 7,35  L 7,37  L 6,37  L 6,39  L 7,39  L 7,41  L 6,41  L 6,43  L 7,43  L 7,45  L 6,45  L 6,47  Z  M 17,24  L 18,24  L 18,25  L 35,25  L 35,24  L 46,24  L 46,25  L 49,25  L 49,49  L 50,49  L 50,50  L 49,50  L 49,60  L 48,60  L 48,64  L 47,64  L 47,68  L 46,68  L 46,69  L 45,69  L 45,70  L 42,70  L 42,71  L 38,71  L 38,72  L 35,72  L 35,73  L 29,73  L 29,74  L 28,74  L 28,73  L 27,73  L 27,74  L 18,74  L 18,73  L 17,73  L 17,72  L 16,72  L 16,70  L 15,70  L 15,34  L 14,34  L 14,33  L 15,33  L 15,24  L 16,24  L 16,23  L 17,23  Z  " style="fill:rgb(0, 0, 0); fill-opacity:1.000; stroke:none;" />
 <path d="  M 71,160  L 71,159  L 74,159  L 74,158  L 78,158  L 78,157  L 82,157  L 82,156  L 84,156  L 84,155  L 86,155  L 86,154  L 88,154  L 88,153  L 90,153  L 90,152  L 92,152  L 92,151  L 94,151  L 94,150  L 95,150  L 95,149  L 96,149  L 96,148  L 97,148  L 97,147  L 98,147  L 98,145  L 99,145  L 99,144  L 100,144  L 100,143  L 101,143  L 101,142  L 100,142  L 100,141  L 101,141  L 101,137  L 102,137  L 102,116  L 101,116  L 101,114  L 100,114  L 100,112  L 99,112  L 99,110  L 98,110  L 98,109  L 97,109  L 97,108  L 96,108  L 96,107  L 95,107  L 95,106  L 94,106  L 94,105  L 93,105  L 93,104  L 91,104  L 91,103  L 86,103  L 86,102  L 67,102  L 67,101  L 58,101  L 58,102  L 56,102  L 56,103  L 54,103  L 54,104  L 53,104  L 53,105  L 51,105  L 51,106  L 50,106  L 50,107  L 49,107  L 49,108  L 48,108  L 48,109  L 47,109  L 47,110  L 46,110  L 46,111  L 45,111  L 45,112  L 43,112  L 43,114  L 42,114  L 42,115  L 41,115  L 41,116  L 40,116  L 40,117  L 39,117  L 39,118  L 38,118  L 38,120  L 37,120  L 37,122  L 36,122  L 36,124  L 35,124  L 35,127  L 34,127  L 34,129  L 33,129  L 33,132  L 32,132  L 32,137  L 31,137  L 31,144  L 32,144  L 32,145  L 31,145  L 31,146  L 32,146  L 32,147  L 31,147  L 31,148  L 32,148  L 32,150  L 33,150  L 33,151  L 34,151  L 34,152  L 33,152  L 33,153  L 36,153  L 36,154  L 37,154  L 37,155  L 39,155  L 39,156  L 41,156  L 41,157  L 44,157  L 44,158  L 48,158  L 48,159  L 51,159  L 51,160  Z  M 94,139  L 93,139  L 93,140  L 92,140  L 92,142  L 91,142  L 91,143  L 90,143  L 90,144  L 89,144  L 89,145  L 88,145  L 88,146  L 86,146  L 86,147  L 84,147  L 84,148  L 81,148  L 81,149  L 80,149  L 80,150  L 77,150  L 77,151  L 74,151  L 74,152  L 69,152  L 69,153  L 67,153  L 67,154  L 66,154  L 66,153  L 65,153  L 65,154  L 56,154  L 56,153  L 53,153  L 53,152  L 50,152  L 50,151  L 46,151  L 46,150  L 43,150  L 43,149  L 42,149  L 42,148  L 41,148  L 41,147  L 39,147  L 39,140  L 38,140  L 38,139  L 39,139  L 39,134  L 40,134  L 40,132  L 41,132  L 41,129  L 42,129  L 42,126  L 43,126  L 43,124  L 44,124  L 44,122  L 45,122  L 45,121  L 46,121  L 46,120  L 47,120  L 47,119  L 49,119  L 49,118  L 50,118  L 50,117  L 51,117  L 51,116  L 52,116  L 52,115  L 53,115  L 53,114  L 55,114  L 55,113  L 58,113  L 58,112  L 60,112  L 60,111  L 63,111  L 63,110  L 82,110  L 82,111  L 83,111  L 83,110  L 84,110  L 84,111  L 87,111  L 87,112  L 89,112  L 89,113  L 91,113  L 91,114  L 92,114  L 92,115  L 93,115  L 93,117  L 94,117  L 94,119  L 95,119  L 95,134  L 94,134  Z  " style="fill:rgb(0, 0, 0); fill-opacity:1.000; stroke:none;" />
 <path d="  M 92,72  L 92,73  L 93,73  L 93,76  L 92,76  L 92,77  L 93,77  L 93,80  L 92,80  L 92,81  L 93,81  L 93,91  L 94,91  L 94,93  L 99,93  L 99,94  L 100,94  L 100,93  L 101,93  L 101,88  L 100,88  L 100,87  L 101,87  L 101,86  L 100,86  L 100,83  L 101,83  L 101,82  L 100,82  L 100,79  L 101,79  L 101,78  L 100,78  L 100,75  L 101,75  L 101,74  L 100,74  L 100,71  L 101,71  L 101,70  L 100,70  L 100,68  L 101,68  L 101,66  L 100,66  L 100,65  L 101,65  L 101,62  L 100,62  L 100,61  L 101,61  L 101,34  L 100,34  L 100,33  L 101,33  L 101,32  L 100,32  L 100,31  L 101,31  L 101,30  L 100,30  L 100,18  L 99,18  L 99,17  L 100,17  L 100,16  L 99,16  L 99,13  L 98,13  L 98,5  L 97,5  L 97,2  L 96,2  L 96,1  L 95,1  L 95,0  L 91,0  L 91,1  L 90,1  L 90,13  L 91,13  L 91,17  L 92,17  L 92,26  L 93,26  L 93,28  L 92,28  L 92,29  L 93,29  L 93,36  L 92,36  L 92,37  L 89,37  L 89,38  L 86,38  L 86,39  L 82,39  L 82,40  L 78,40  L 78,41  L 64,41  L 64,42  L 63,42  L 63,43  L 62,43  L 62,44  L 63,44  L 63,47  L 64,47  L 64,48  L 65,48  L 65,50  L 71,50  L 71,49  L 75,49  L 75,48  L 76,48  L 76,49  L 77,49  L 77,48  L 83,48  L 83,47  L 90,47  L 90,46  L 91,46  L 91,45  L 92,45  L 92,46  L 93,46  L 93,68  L 92,68  L 92,69  L 93,69  L 93,72  Z  " style="fill:rgb(0, 0, 0); fill-opacity:1.000; stroke:none;" />
</svg>
