<?xml version="1.0" encoding="UTF-8" standalone="no"?>
<!DOCTYPE svg PUBLIC "-//W3C//DTD SVG 1.1//EN" 
  "http://www.w3.org/Graphics/SVG/1.1/DTD/svg11.dtd">
<svg width="104" height="163"
     xmlns="http://www.w3.org/2000/svg" version="1.1">
 <path d="  M 16,35  L 15,35  L 15,34  L 16,34  L 16,24  L 17,24  L 17,23  L 19,23  L 19,24  L 35,24  L 35,23  L 36,23  L 36,24  L 37,24  L 37,23  L 49,23  L 49,24  L 50,24  L 50,60  L 49,60  L 49,64  L 48,64  L 48,67  L 47,67  L 47,68  L 45,68  L 45,69  L 42,69  L 42,70  L 40,70  L 40,71  L 36,71  L 36,72  L 31,72  L 31,73  L 22,73  L 22,74  L 21,74  L 21,73  L 18,73  L 18,72  L 17,72  L 17,71  L 16,71  Z  M 58,33  L 57,33  L 57,32  L 58,32  L 58,31  L 57,31  L 57,30  L 58,30  L 58,22  L 57,22  L 57,21  L 56,21  L 56,19  L 54,19  L 54,18  L 53,18  L 53,17  L 51,17  L 51,16  L 40,16  L 40,17  L 18,17  L 18,16  L 15,16  L 15,15  L 7,15  L 7,16  L 5,16  L 5,17  L 4,17  L 4,18  L 2,18  L 2,19  L 1,19  L 1,24  L 2,24  L 2,22  L 3,22  L 3,23  L 7,23  L 7,26  L 8,26  L 8,68  L 9,68  L 9,73  L 10,73  L 10,76  L 11,76  L 11,78  L 13,78  L 13,79  L 16,79  L 16,80  L 18,80  L 18,81  L 22,81  L 22,80  L 23,80  L 23,81  L 24,81  L 24,80  L 31,80  L 31,79  L 37,79  L 37,78  L 42,78  L 42,77  L 46,77  L 46,76  L 49,76  L 49,75  L 50,75  L 50,74  L 51,74  L 51,73  L 52,73  L 52,72  L 53,72  L 53,70  L 55,70  L 55,68  L 56,68  L 56,66  L 57,66  L 57,58  L 58,58  Z  " style="fill:rgb(0, 0, 0); fill-opacity:1.000; stroke:none;" />
 <path d="  M 103,151  L 104,151  L 104,145  L 103,145  L 103,144  L 100,144  L 100,143  L 98,143  L 98,142  L 96,142  L 96,141  L 95,141  L 95,140  L 93,140  L 93,139  L 92,139  L 92,138  L 90,138  L 90,137  L 87,137  L 87,136  L 85,136  L 85,135  L 83,135  L 83,134  L 81,134  L 81,133  L 79,133  L 79,132  L 78,132  L 78,131  L 77,131  L 77,130  L 74,130  L 74,129  L 72,129  L 72,128  L 69,128  L 69,124  L 70,124  L 70,123  L 71,123  L 71,122  L 73,122  L 73,120  L 74,120  L 74,119  L 75,119  L 75,118  L 76,118  L 76,116  L 77,116  L 77,115  L 78,115  L 78,113  L 79,113  L 79,111  L 80,111  L 80,110  L 81,110  L 81,108  L 80,108  L 80,105  L 79,105  L 79,104  L 77,104  L 77,103  L 75,103  L 75,102  L 73,102  L 73,101  L 62,101  L 62,102  L 59,102  L 59,101  L 58,101  L 58,102  L 55,102  L 55,101  L 54,101  L 54,102  L 51,102  L 51,103  L 42,103  L 42,104  L 41,104  L 41,103  L 40,103  L 40,104  L 35,104  L 35,105  L 34,105  L 34,106  L 33,106  L 33,107  L 32,107  L 32,110  L 33,110  L 33,111  L 34,111  L 34,112  L 35,112  L 35,111  L 36,111  L 36,112  L 37,112  L 37,111  L 39,111  L 39,110  L 43,110  L 43,109  L 44,109  L 44,110  L 46,110  L 46,109  L 49,109  L 49,110  L 50,110  L 50,109  L 55,109  L 55,108  L 66,108  L 66,107  L 67,107  L 67,108  L 68,108  L 68,107  L 71,107  L 71,108  L 72,108  L 72,111  L 71,111  L 71,112  L 70,112  L 70,113  L 69,113  L 69,114  L 68,114  L 68,115  L 67,115  L 67,116  L 66,116  L 66,118  L 65,118  L 65,119  L 64,119  L 64,120  L 63,120  L 63,121  L 62,121  L 62,123  L 61,123  L 61,124  L 60,124  L 60,126  L 59,126  L 59,128  L 58,128  L 58,129  L 57,129  L 57,131  L 56,131  L 56,132  L 55,132  L 55,134  L 54,134  L 54,135  L 53,135  L 53,137  L 52,137  L 52,139  L 51,139  L 51,141  L 50,141  L 50,142  L 49,142  L 49,144  L 48,144  L 48,146  L 47,146  L 47,147  L 46,147  L 46,149  L 45,149  L 45,151  L 44,151  L 44,152  L 43,152  L 43,153  L 42,153  L 42,154  L 41,154  L 41,155  L 40,155  L 40,157  L 39,157  L 39,158  L 38,158  L 38,159  L 37,159  L 37,163  L 45,163  L 45,161  L 46,161  L 46,160  L 47,160  L 47,159  L 48,159  L 48,158  L 49,158  L 49,157  L 50,157  L 50,156  L 51,156  L 51,154  L 52,154  L 52,152  L 53,152  L 53,151  L 54,151  L 54,149  L 55,149  L 55,148  L 56,148  L 56,146  L 57,146  L 57,144  L 58,144  L 58,143  L 59,143  L 59,140  L 60,140  L 60,138  L 61,138  L 61,137  L 62,137  L 62,135  L 63,135  L 63,134  L 65,134  L 65,133  L 66,133  L 66,134  L 69,134  L 69,135  L 71,135  L 71,136  L 72,136  L 72,137  L 74,137  L 74,138  L 75,138  L 75,139  L 77,139  L 77,140  L 79,140  L 79,141  L 81,141  L 81,142  L 83,142  L 83,143  L 84,143  L 84,144  L 86,144  L 86,145  L 88,145  L 88,146  L 89,146  L 89,147  L 91,147  L 91,148  L 92,148  L 92,149  L 94,149  L 94,150  L 96,150  L 96,151  L 97,151  L 97,152  L 103,152  Z  " style="fill:rgb(0, 0, 0); fill-opacity:1.000; stroke:none;" />
 <path d="  M 85,34  L 85,35  L 76,35  L 76,36  L 75,36  L 75,35  L 73,35  L 73,36  L 71,36  L 71,35  L 70,35  L 70,36  L 64,36  L 64,37  L 63,37  L 63,40  L 64,40  L 64,43  L 65,43  L 65,44  L 68,44  L 68,43  L 79,43  L 79,42  L 90,42  L 90,41  L 91,41  L 91,42  L 92,42  L 92,41  L 96,41  L 96,42  L 97,42  L 97,43  L 96,43  L 96,45  L 97,45  L 97,47  L 96,47  L 96,48  L 97,48  L 97,83  L 96,83  L 96,84  L 97,84  L 97,86  L 96,86  L 96,90  L 95,90  L 95,92  L 97,92  L 97,93  L 100,93  L 100,92  L 102,92  L 102,91  L 103,91  L 103,90  L 104,90  L 104,2  L 103,2  L 103,1  L 102,1  L 102,0  L 98,0  L 98,1  L 97,1  L 97,11  L 96,11  L 96,12  L 97,12  L 97,15  L 96,15  L 96,16  L 97,16  L 97,19  L 96,19  L 96,20  L 97,20  L 97,23  L 96,23  L 96,24  L 97,24  L 97,31  L 96,31  L 96,33  L 91,33  L 91,34  Z  " style="fill:rgb(0, 0, 0); fill-opacity:1.000; stroke:none;" />
</svg>
