<?xml version="1.0" encoding="UTF-8" standalone="no"?>
<!DOCTYPE svg PUBLIC "-//W3C//DTD SVG 1.1//EN" 
  "http://www.w3.org/Graphics/SVG/1.1/DTD/svg11.dtd">
<svg width="102" height="144"
     xmlns="http://www.w3.org/2000/svg" version="1.1">
 <path d="  M 74,51  L 73,51  L 73,53  L 74,53  L 74,55  L 73,55  L 73,57  L 74,57  L 74,78  L 75,78  L 75,79  L 80,79  L 80,78  L 81,78  L 81,11  L 82,11  L 82,3  L 81,3  L 81,2  L 79,2  L 79,1  L 76,1  L 76,2  L 75,2  L 75,21  L 74,21  L 74,26  L 73,26  L 73,27  L 70,27  L 70,28  L 69,28  L 69,27  L 68,27  L 68,28  L 60,28  L 60,29  L 58,29  L 58,28  L 57,28  L 57,29  L 50,29  L 50,30  L 49,30  L 49,26  L 48,26  L 48,21  L 49,21  L 49,20  L 48,20  L 48,19  L 49,19  L 49,12  L 50,12  L 50,10  L 49,10  L 49,8  L 48,8  L 48,7  L 46,7  L 46,6  L 23,6  L 23,7  L 22,7  L 22,6  L 19,6  L 19,7  L 18,7  L 18,6  L 17,6  L 17,7  L 14,7  L 14,6  L 13,6  L 13,7  L 12,7  L 12,6  L 8,6  L 8,5  L 5,5  L 5,6  L 2,6  L 2,7  L 1,7  L 1,9  L 0,9  L 0,12  L 1,12  L 1,46  L 2,46  L 2,59  L 3,59  L 3,63  L 4,63  L 4,65  L 6,65  L 6,66  L 7,66  L 7,67  L 11,67  L 11,68  L 23,68  L 23,67  L 29,67  L 29,66  L 34,66  L 34,65  L 37,65  L 37,64  L 38,64  L 38,63  L 40,63  L 40,61  L 41,61  L 41,60  L 42,60  L 42,59  L 44,59  L 44,58  L 45,58  L 45,57  L 46,57  L 46,54  L 47,54  L 47,47  L 48,47  L 48,46  L 47,46  L 47,45  L 48,45  L 48,44  L 47,44  L 47,43  L 48,43  L 48,37  L 49,37  L 49,33  L 50,33  L 50,35  L 51,35  L 51,36  L 52,36  L 52,37  L 54,37  L 54,36  L 66,36  L 66,35  L 67,35  L 67,36  L 68,36  L 68,35  L 70,35  L 70,36  L 72,36  L 72,37  L 73,37  L 73,45  L 74,45  L 74,46  L 73,46  L 73,49  L 74,49  Z  M 28,58  L 28,59  L 24,59  L 24,60  L 19,60  L 19,61  L 18,61  L 18,60  L 17,60  L 17,61  L 12,61  L 12,60  L 11,60  L 11,59  L 10,59  L 10,56  L 9,56  L 9,55  L 10,55  L 10,54  L 9,54  L 9,53  L 10,53  L 10,52  L 9,52  L 9,36  L 8,36  L 8,35  L 9,35  L 9,34  L 8,34  L 8,33  L 9,33  L 9,32  L 8,32  L 8,29  L 9,29  L 9,28  L 8,28  L 8,25  L 9,25  L 9,24  L 8,24  L 8,21  L 9,21  L 9,20  L 8,20  L 8,14  L 9,14  L 9,12  L 11,12  L 11,13  L 13,13  L 13,14  L 16,14  L 16,13  L 39,13  L 39,14  L 40,14  L 40,26  L 39,26  L 39,29  L 40,29  L 40,30  L 39,30  L 39,33  L 40,33  L 40,34  L 39,34  L 39,35  L 40,35  L 40,36  L 39,36  L 39,37  L 40,37  L 40,42  L 39,42  L 39,43  L 40,43  L 40,44  L 39,44  L 39,45  L 40,45  L 40,46  L 39,46  L 39,53  L 38,53  L 38,55  L 37,55  L 37,56  L 32,56  L 32,57  L 31,57  L 31,58  Z  " style="fill:rgb(0, 0, 0); fill-opacity:1.000; stroke:none;" />
 <path d="  M 62,122  L 62,121  L 63,121  L 63,122  L 66,122  L 66,121  L 67,121  L 67,122  L 70,122  L 70,121  L 71,121  L 71,122  L 74,122  L 74,121  L 75,121  L 75,122  L 78,122  L 78,121  L 79,121  L 79,122  L 82,122  L 82,121  L 83,121  L 83,122  L 86,122  L 86,126  L 85,126  L 85,132  L 84,132  L 84,134  L 83,134  L 83,135  L 82,135  L 82,136  L 80,136  L 80,137  L 78,137  L 78,136  L 77,136  L 77,137  L 70,137  L 70,138  L 56,138  L 56,139  L 43,139  L 43,138  L 42,138  L 42,137  L 41,137  L 41,136  L 40,136  L 40,125  L 39,125  L 39,123  L 40,123  L 40,122  L 46,122  L 46,121  L 47,121  L 47,122  L 50,122  L 50,121  L 51,121  L 51,122  L 54,122  L 54,121  L 55,121  L 55,122  L 58,122  L 58,121  L 59,121  L 59,122  Z  M 74,115  L 74,114  L 73,114  L 73,115  L 70,115  L 70,114  L 69,114  L 69,115  L 66,115  L 66,114  L 65,114  L 65,115  L 62,115  L 62,114  L 61,114  L 61,115  L 58,115  L 58,114  L 57,114  L 57,115  L 54,115  L 54,114  L 53,114  L 53,115  L 50,115  L 50,114  L 49,114  L 49,115  L 46,115  L 46,114  L 45,114  L 45,115  L 39,115  L 39,88  L 38,88  L 38,87  L 33,87  L 33,88  L 31,88  L 31,89  L 30,89  L 30,94  L 31,94  L 31,95  L 30,95  L 30,98  L 31,98  L 31,99  L 30,99  L 30,102  L 31,102  L 31,103  L 30,103  L 30,105  L 31,105  L 31,106  L 30,106  L 30,109  L 31,109  L 31,110  L 30,110  L 30,113  L 31,113  L 31,116  L 30,116  L 30,117  L 31,117  L 31,118  L 32,118  L 32,125  L 33,125  L 33,130  L 34,130  L 34,136  L 35,136  L 35,139  L 36,139  L 36,142  L 37,142  L 37,143  L 38,143  L 38,144  L 66,144  L 66,143  L 76,143  L 76,142  L 82,142  L 82,141  L 85,141  L 85,140  L 86,140  L 86,139  L 88,139  L 88,138  L 89,138  L 89,137  L 91,137  L 91,133  L 92,133  L 92,132  L 91,132  L 91,129  L 92,129  L 92,128  L 91,128  L 91,127  L 92,127  L 92,123  L 93,123  L 93,119  L 94,119  L 94,112  L 93,112  L 93,111  L 94,111  L 94,109  L 93,109  L 93,95  L 92,95  L 92,94  L 93,94  L 93,92  L 90,92  L 90,91  L 89,91  L 89,92  L 87,92  L 87,104  L 86,104  L 86,105  L 87,105  L 87,115  Z  " style="fill:rgb(0, 0, 0); fill-opacity:1.000; stroke:none;" />
 <path d="  M 102,1  L 101,1  L 101,0  L 99,0  L 99,1  L 98,1  L 98,0  L 96,0  L 96,2  L 95,2  L 95,25  L 96,25  L 96,26  L 95,26  L 95,27  L 96,27  L 96,28  L 95,28  L 95,29  L 96,29  L 96,30  L 95,30  L 95,31  L 96,31  L 96,34  L 95,34  L 95,35  L 96,35  L 96,38  L 95,38  L 95,39  L 96,39  L 96,42  L 95,42  L 95,43  L 96,43  L 96,46  L 95,46  L 95,47  L 96,47  L 96,50  L 95,50  L 95,51  L 96,51  L 96,54  L 95,54  L 95,55  L 96,55  L 96,58  L 95,58  L 95,59  L 96,59  L 96,62  L 95,62  L 95,63  L 96,63  L 96,66  L 95,66  L 95,67  L 96,67  L 96,83  L 102,83  Z  " style="fill:rgb(0, 0, 0); fill-opacity:1.000; stroke:none;" />
</svg>
