<?xml version="1.0" encoding="UTF-8" standalone="no"?>
<!DOCTYPE svg PUBLIC "-//W3C//DTD SVG 1.1//EN" 
  "http://www.w3.org/Graphics/SVG/1.1/DTD/svg11.dtd">
<svg width="105" height="143"
     xmlns="http://www.w3.org/2000/svg" version="1.1">
 <path d="  M 39,60  L 39,59  L 46,59  L 46,55  L 47,55  L 47,41  L 48,41  L 48,40  L 47,40  L 47,33  L 54,33  L 54,32  L 55,32  L 55,33  L 56,33  L 56,32  L 57,32  L 57,33  L 58,33  L 58,32  L 61,32  L 61,33  L 62,33  L 62,32  L 65,32  L 65,33  L 66,33  L 66,32  L 71,32  L 71,33  L 72,33  L 72,50  L 71,50  L 71,51  L 72,51  L 72,58  L 71,58  L 71,59  L 72,59  L 72,66  L 71,66  L 71,67  L 72,67  L 72,70  L 71,70  L 71,71  L 72,71  L 72,73  L 74,73  L 74,74  L 77,74  L 77,73  L 78,73  L 78,72  L 80,72  L 80,59  L 81,59  L 81,58  L 80,58  L 80,55  L 81,55  L 81,54  L 80,54  L 80,51  L 81,51  L 81,50  L 80,50  L 80,47  L 81,47  L 81,46  L 80,46  L 80,45  L 81,45  L 81,44  L 80,44  L 80,43  L 81,43  L 81,42  L 80,42  L 80,41  L 81,41  L 81,40  L 80,40  L 80,35  L 81,35  L 81,34  L 80,34  L 80,31  L 81,31  L 81,30  L 80,30  L 80,7  L 81,7  L 81,6  L 80,6  L 80,1  L 79,1  L 79,0  L 75,0  L 75,1  L 74,1  L 74,2  L 73,2  L 73,13  L 72,13  L 72,14  L 73,14  L 73,16  L 72,16  L 72,18  L 73,18  L 73,19  L 72,19  L 72,24  L 70,24  L 70,25  L 48,25  L 48,24  L 47,24  L 47,16  L 48,16  L 48,11  L 47,11  L 47,10  L 46,10  L 46,9  L 40,9  L 40,10  L 38,10  L 38,9  L 36,9  L 36,10  L 35,10  L 35,9  L 32,9  L 32,10  L 9,10  L 9,9  L 3,9  L 3,10  L 1,10  L 1,12  L 0,12  L 0,15  L 1,15  L 1,39  L 2,39  L 2,40  L 1,40  L 1,43  L 2,43  L 2,56  L 3,56  L 3,57  L 2,57  L 2,58  L 3,58  L 3,60  L 4,60  L 4,62  L 5,62  L 5,63  L 6,63  L 6,65  L 9,65  L 9,66  L 18,66  L 18,65  L 22,65  L 22,64  L 26,64  L 26,63  L 29,63  L 29,62  L 32,62  L 32,61  L 36,61  L 36,60  Z  M 37,17  L 37,16  L 38,16  L 38,17  L 39,17  L 39,39  L 40,39  L 40,40  L 39,40  L 39,43  L 40,43  L 40,44  L 39,44  L 39,53  L 38,53  L 38,54  L 30,54  L 30,55  L 27,55  L 27,56  L 21,56  L 21,57  L 18,57  L 18,58  L 11,58  L 11,57  L 10,57  L 10,45  L 9,45  L 9,43  L 10,43  L 10,42  L 9,42  L 9,17  L 24,17  L 24,16  L 25,16  L 25,17  Z  " style="fill:rgb(0, 0, 0); fill-opacity:1.000; stroke:none;" />
 <path d="  M 46,100  L 45,100  L 45,101  L 44,101  L 44,102  L 43,102  L 43,104  L 42,104  L 42,105  L 41,105  L 41,106  L 40,106  L 40,108  L 39,108  L 39,109  L 38,109  L 38,111  L 37,111  L 37,112  L 36,112  L 36,114  L 35,114  L 35,115  L 34,115  L 34,117  L 33,117  L 33,119  L 32,119  L 32,121  L 31,121  L 31,122  L 30,122  L 30,124  L 29,124  L 29,126  L 28,126  L 28,128  L 27,128  L 27,129  L 26,129  L 26,130  L 25,130  L 25,132  L 24,132  L 24,133  L 23,133  L 23,134  L 22,134  L 22,135  L 21,135  L 21,136  L 20,136  L 20,138  L 19,138  L 19,140  L 18,140  L 18,143  L 25,143  L 25,141  L 26,141  L 26,140  L 27,140  L 27,139  L 28,139  L 28,138  L 29,138  L 29,136  L 30,136  L 30,135  L 31,135  L 31,134  L 32,134  L 32,132  L 33,132  L 33,131  L 34,131  L 34,129  L 35,129  L 35,128  L 36,128  L 36,126  L 37,126  L 37,124  L 38,124  L 38,123  L 39,123  L 39,121  L 40,121  L 40,120  L 41,120  L 41,118  L 42,118  L 42,117  L 43,117  L 43,116  L 44,116  L 44,113  L 45,113  L 45,112  L 46,112  L 46,111  L 47,111  L 47,109  L 49,109  L 49,110  L 50,110  L 50,111  L 51,111  L 51,112  L 52,112  L 52,113  L 53,113  L 53,114  L 55,114  L 55,115  L 56,115  L 56,116  L 58,116  L 58,117  L 60,117  L 60,118  L 61,118  L 61,119  L 62,119  L 62,120  L 63,120  L 63,121  L 65,121  L 65,122  L 66,122  L 66,123  L 68,123  L 68,124  L 69,124  L 69,125  L 70,125  L 70,126  L 71,126  L 71,127  L 72,127  L 72,128  L 74,128  L 74,129  L 77,129  L 77,130  L 78,130  L 78,131  L 80,131  L 80,132  L 82,132  L 82,133  L 84,133  L 84,134  L 87,134  L 87,135  L 88,135  L 88,136  L 93,136  L 93,137  L 97,137  L 97,138  L 98,138  L 98,137  L 101,137  L 101,138  L 102,138  L 102,137  L 104,137  L 104,136  L 105,136  L 105,133  L 103,133  L 103,132  L 102,132  L 102,131  L 97,131  L 97,130  L 93,130  L 93,129  L 91,129  L 91,128  L 88,128  L 88,127  L 86,127  L 86,126  L 84,126  L 84,125  L 82,125  L 82,124  L 80,124  L 80,123  L 79,123  L 79,122  L 77,122  L 77,121  L 76,121  L 76,120  L 75,120  L 75,119  L 73,119  L 73,118  L 71,118  L 71,117  L 70,117  L 70,116  L 68,116  L 68,115  L 67,115  L 67,114  L 65,114  L 65,113  L 64,113  L 64,112  L 63,112  L 63,111  L 62,111  L 62,110  L 60,110  L 60,109  L 59,109  L 59,108  L 57,108  L 57,107  L 56,107  L 56,106  L 55,106  L 55,105  L 54,105  L 54,102  L 53,102  L 53,101  L 54,101  L 54,100  L 55,100  L 55,99  L 56,99  L 56,98  L 57,98  L 57,97  L 58,97  L 58,96  L 59,96  L 59,95  L 62,95  L 62,93  L 63,93  L 63,90  L 64,90  L 64,89  L 63,89  L 63,88  L 61,88  L 61,87  L 56,87  L 56,86  L 51,86  L 51,87  L 52,87  L 52,89  L 53,89  L 53,91  L 52,91  L 52,92  L 51,92  L 51,93  L 50,93  L 50,95  L 49,95  L 49,96  L 48,96  L 48,97  L 47,97  L 47,98  L 46,98  Z  " style="fill:rgb(0, 0, 0); fill-opacity:1.000; stroke:none;" />
 <path d="  M 102,2  L 100,2  L 100,1  L 97,1  L 97,2  L 96,2  L 96,39  L 97,39  L 97,40  L 96,40  L 96,43  L 97,43  L 97,44  L 96,44  L 96,46  L 97,46  L 97,69  L 98,69  L 98,72  L 97,72  L 97,73  L 98,73  L 98,76  L 97,76  L 97,77  L 98,77  L 98,78  L 97,78  L 97,79  L 98,79  L 98,80  L 97,80  L 97,81  L 98,81  L 98,83  L 99,83  L 99,84  L 101,84  L 101,83  L 103,83  L 103,82  L 105,82  L 105,48  L 104,48  L 104,47  L 105,47  L 105,44  L 104,44  L 104,43  L 105,43  L 105,42  L 104,42  L 104,41  L 105,41  L 105,40  L 104,40  L 104,32  L 103,32  L 103,31  L 104,31  L 104,30  L 103,30  L 103,12  L 102,12  L 102,11  L 103,11  L 103,10  L 102,10  Z  " style="fill:rgb(0, 0, 0); fill-opacity:1.000; stroke:none;" />
</svg>
