<?xml version="1.0" encoding="UTF-8" standalone="no"?>
<!DOCTYPE svg PUBLIC "-//W3C//DTD SVG 1.1//EN" 
  "http://www.w3.org/Graphics/SVG/1.1/DTD/svg11.dtd">
<svg width="105" height="136"
     xmlns="http://www.w3.org/2000/svg" version="1.1">
 <path d="  M 36,51  L 35,51  L 35,52  L 34,52  L 34,53  L 30,53  L 30,54  L 24,54  L 24,55  L 21,55  L 21,56  L 15,56  L 15,57  L 14,57  L 14,56  L 10,56  L 10,53  L 9,53  L 9,41  L 8,41  L 8,40  L 9,40  L 9,39  L 8,39  L 8,22  L 9,22  L 9,21  L 8,21  L 8,19  L 9,19  L 9,15  L 33,15  L 33,14  L 34,14  L 34,15  L 36,15  L 36,36  L 37,36  L 37,37  L 36,37  L 36,40  L 37,40  L 37,42  L 36,42  Z  M 1,44  L 2,44  L 2,53  L 3,53  L 3,56  L 4,56  L 4,58  L 5,58  L 5,61  L 6,61  L 6,62  L 8,62  L 8,63  L 10,63  L 10,64  L 13,64  L 13,63  L 17,63  L 17,62  L 21,62  L 21,61  L 25,61  L 25,60  L 29,60  L 29,59  L 33,59  L 33,58  L 36,58  L 36,57  L 38,57  L 38,56  L 40,56  L 40,55  L 41,55  L 41,56  L 42,56  L 42,54  L 43,54  L 43,48  L 44,48  L 44,47  L 43,47  L 43,46  L 44,46  L 44,38  L 45,38  L 45,37  L 44,37  L 44,35  L 45,35  L 45,33  L 44,33  L 44,32  L 47,32  L 47,35  L 53,35  L 53,34  L 54,34  L 54,35  L 55,35  L 55,34  L 60,34  L 60,35  L 61,35  L 61,38  L 62,38  L 62,39  L 61,39  L 61,40  L 62,40  L 62,65  L 61,65  L 61,66  L 62,66  L 62,70  L 63,70  L 63,71  L 66,71  L 66,70  L 67,70  L 67,69  L 68,69  L 68,26  L 69,26  L 69,16  L 70,16  L 70,2  L 69,2  L 69,1  L 68,1  L 68,0  L 67,0  L 67,1  L 66,1  L 66,2  L 65,2  L 65,3  L 64,3  L 64,11  L 63,11  L 63,12  L 64,12  L 64,13  L 63,13  L 63,25  L 62,25  L 62,27  L 60,27  L 60,28  L 49,28  L 49,29  L 47,29  L 47,31  L 45,31  L 45,30  L 44,30  L 44,28  L 45,28  L 45,27  L 44,27  L 44,16  L 45,16  L 45,13  L 44,13  L 44,11  L 43,11  L 43,10  L 41,10  L 41,9  L 10,9  L 10,8  L 7,8  L 7,7  L 5,7  L 5,8  L 2,8  L 2,10  L 1,10  L 1,11  L 0,11  L 0,12  L 1,12  L 1,13  L 2,13  L 2,17  L 1,17  Z  " style="fill:rgb(0, 0, 0); fill-opacity:1.000; stroke:none;" />
 <path d="  M 23,105  L 22,105  L 22,106  L 21,106  L 21,107  L 20,107  L 20,109  L 19,109  L 19,110  L 18,110  L 18,112  L 17,112  L 17,113  L 16,113  L 16,114  L 15,114  L 15,115  L 14,115  L 14,117  L 13,117  L 13,118  L 12,118  L 12,119  L 11,119  L 11,120  L 10,120  L 10,122  L 9,122  L 9,128  L 12,128  L 12,127  L 13,127  L 13,126  L 14,126  L 14,125  L 15,125  L 15,123  L 16,123  L 16,122  L 17,122  L 17,120  L 19,120  L 19,118  L 20,118  L 20,117  L 21,117  L 21,115  L 22,115  L 22,114  L 23,114  L 23,113  L 24,113  L 24,111  L 25,111  L 25,110  L 26,110  L 26,109  L 27,109  L 27,110  L 29,110  L 29,111  L 30,111  L 30,112  L 33,112  L 33,113  L 36,113  L 36,114  L 38,114  L 38,115  L 43,115  L 43,116  L 45,116  L 45,117  L 49,117  L 49,118  L 50,118  L 50,119  L 51,119  L 51,120  L 52,120  L 52,122  L 51,122  L 51,123  L 52,123  L 52,124  L 51,124  L 51,126  L 50,126  L 50,128  L 49,128  L 49,133  L 48,133  L 48,136  L 52,136  L 52,135  L 53,135  L 53,133  L 54,133  L 54,132  L 55,132  L 55,130  L 56,130  L 56,129  L 57,129  L 57,127  L 58,127  L 58,125  L 59,125  L 59,124  L 60,124  L 60,123  L 61,123  L 61,122  L 62,122  L 62,121  L 63,121  L 63,120  L 64,120  L 64,118  L 65,118  L 65,116  L 66,116  L 66,115  L 67,115  L 67,111  L 68,111  L 68,110  L 71,110  L 71,111  L 73,111  L 73,112  L 74,112  L 74,113  L 75,113  L 75,114  L 77,114  L 77,115  L 78,115  L 78,116  L 81,116  L 81,117  L 83,117  L 83,118  L 86,118  L 86,119  L 88,119  L 88,120  L 92,120  L 92,121  L 95,121  L 95,122  L 99,122  L 99,123  L 100,123  L 100,122  L 101,122  L 101,123  L 104,123  L 104,122  L 105,122  L 105,118  L 103,118  L 103,117  L 98,117  L 98,116  L 94,116  L 94,115  L 92,115  L 92,114  L 90,114  L 90,113  L 87,113  L 87,112  L 85,112  L 85,111  L 82,111  L 82,110  L 81,110  L 81,109  L 80,109  L 80,108  L 78,108  L 78,107  L 77,107  L 77,106  L 76,106  L 76,105  L 75,105  L 75,103  L 74,103  L 74,102  L 73,102  L 73,100  L 74,100  L 74,97  L 75,97  L 75,94  L 76,94  L 76,91  L 77,91  L 77,85  L 74,85  L 74,84  L 73,84  L 73,85  L 72,85  L 72,86  L 71,86  L 71,88  L 70,88  L 70,90  L 69,90  L 69,92  L 68,92  L 68,95  L 67,95  L 67,97  L 66,97  L 66,99  L 65,99  L 65,102  L 64,102  L 64,103  L 63,103  L 63,106  L 62,106  L 62,109  L 61,109  L 61,111  L 60,111  L 60,115  L 59,115  L 59,117  L 57,117  L 57,115  L 56,115  L 56,114  L 54,114  L 54,113  L 51,113  L 51,112  L 49,112  L 49,111  L 46,111  L 46,110  L 44,110  L 44,109  L 41,109  L 41,108  L 38,108  L 38,107  L 36,107  L 36,106  L 34,106  L 34,105  L 33,105  L 33,104  L 32,104  L 32,103  L 31,103  L 31,102  L 30,102  L 30,100  L 31,100  L 31,97  L 32,97  L 32,96  L 33,96  L 33,94  L 34,94  L 34,93  L 35,93  L 35,92  L 36,92  L 36,89  L 37,89  L 37,86  L 38,86  L 38,85  L 37,85  L 37,84  L 36,84  L 36,82  L 33,82  L 33,81  L 29,81  L 29,80  L 24,80  L 24,84  L 26,84  L 26,85  L 27,85  L 27,86  L 29,86  L 29,87  L 30,87  L 30,90  L 29,90  L 29,92  L 28,92  L 28,94  L 27,94  L 27,96  L 26,96  L 26,98  L 25,98  L 25,99  L 24,99  L 24,101  L 23,101  Z  " style="fill:rgb(0, 0, 0); fill-opacity:1.000; stroke:none;" />
 <path d="  M 79,4  L 79,3  L 77,3  L 77,8  L 76,8  L 76,10  L 77,10  L 77,65  L 78,65  L 78,66  L 77,66  L 77,72  L 78,72  L 78,76  L 79,76  L 79,78  L 82,78  L 82,77  L 83,77  L 83,76  L 84,76  L 84,49  L 83,49  L 83,48  L 84,48  L 84,47  L 83,47  L 83,46  L 84,46  L 84,33  L 83,33  L 83,32  L 84,32  L 84,31  L 83,31  L 83,30  L 84,30  L 84,29  L 83,29  L 83,28  L 84,28  L 84,27  L 83,27  L 83,26  L 84,26  L 84,25  L 83,25  L 83,22  L 84,22  L 84,21  L 83,21  L 83,18  L 84,18  L 84,17  L 83,17  L 83,6  L 82,6  L 82,4  Z  " style="fill:rgb(0, 0, 0); fill-opacity:1.000; stroke:none;" />
</svg>
