<?xml version="1.0" encoding="UTF-8" standalone="no"?>
<!DOCTYPE svg PUBLIC "-//W3C//DTD SVG 1.1//EN" 
  "http://www.w3.org/Graphics/SVG/1.1/DTD/svg11.dtd">
<svg width="102" height="179"
     xmlns="http://www.w3.org/2000/svg" version="1.1">
 <path d="  M 11,60  L 12,60  L 12,59  L 11,59  L 11,56  L 12,56  L 12,55  L 11,55  L 11,32  L 12,32  L 12,31  L 14,31  L 14,32  L 20,32  L 20,31  L 30,31  L 30,30  L 37,30  L 37,31  L 40,31  L 40,32  L 43,32  L 43,34  L 44,34  L 44,36  L 43,36  L 43,56  L 42,56  L 42,57  L 43,57  L 43,58  L 42,58  L 42,79  L 41,79  L 41,80  L 36,80  L 36,81  L 35,81  L 35,80  L 34,80  L 34,81  L 30,81  L 30,82  L 20,82  L 20,83  L 19,83  L 19,82  L 18,82  L 18,83  L 17,83  L 17,82  L 13,82  L 13,81  L 12,81  L 12,66  L 11,66  L 11,65  L 12,65  L 12,62  L 11,62  Z  M 39,87  L 42,87  L 42,86  L 44,86  L 44,85  L 45,85  L 45,84  L 46,84  L 46,83  L 47,83  L 47,82  L 48,82  L 48,81  L 49,81  L 49,78  L 50,78  L 50,69  L 51,69  L 51,68  L 50,68  L 50,65  L 51,65  L 51,38  L 52,38  L 52,37  L 53,37  L 53,36  L 54,36  L 54,35  L 55,35  L 55,37  L 56,37  L 56,38  L 57,38  L 57,40  L 58,40  L 58,41  L 63,41  L 63,40  L 69,40  L 69,39  L 70,39  L 70,40  L 71,40  L 71,39  L 72,39  L 72,40  L 73,40  L 73,39  L 79,39  L 79,38  L 80,38  L 80,39  L 81,39  L 81,38  L 91,38  L 91,37  L 93,37  L 93,38  L 94,38  L 94,44  L 93,44  L 93,45  L 94,45  L 94,48  L 93,48  L 93,49  L 94,49  L 94,52  L 93,52  L 93,55  L 88,55  L 88,56  L 84,56  L 84,57  L 83,57  L 83,56  L 82,56  L 82,57  L 78,57  L 78,58  L 68,58  L 68,59  L 67,59  L 67,58  L 66,58  L 66,59  L 61,59  L 61,60  L 60,60  L 60,66  L 61,66  L 61,68  L 71,68  L 71,67  L 79,67  L 79,66  L 80,66  L 80,67  L 81,67  L 81,66  L 90,66  L 90,65  L 93,65  L 93,78  L 94,78  L 94,79  L 93,79  L 93,81  L 94,81  L 94,84  L 93,84  L 93,85  L 94,85  L 94,88  L 93,88  L 93,89  L 94,89  L 94,101  L 95,101  L 95,104  L 96,104  L 96,105  L 97,105  L 97,104  L 99,104  L 99,103  L 101,103  L 101,102  L 102,102  L 102,98  L 101,98  L 101,95  L 102,95  L 102,94  L 101,94  L 101,93  L 102,93  L 102,92  L 101,92  L 101,91  L 102,91  L 102,90  L 101,90  L 101,87  L 102,87  L 102,86  L 101,86  L 101,85  L 102,85  L 102,84  L 101,84  L 101,83  L 102,83  L 102,82  L 101,82  L 101,81  L 102,81  L 102,3  L 101,3  L 101,2  L 100,2  L 100,1  L 97,1  L 97,0  L 96,0  L 96,1  L 95,1  L 95,2  L 94,2  L 94,27  L 93,27  L 93,28  L 88,28  L 88,29  L 87,29  L 87,28  L 86,28  L 86,29  L 83,29  L 83,28  L 82,28  L 82,29  L 80,29  L 80,30  L 68,30  L 68,31  L 67,31  L 67,30  L 66,30  L 66,31  L 60,31  L 60,32  L 57,32  L 57,33  L 55,33  L 55,34  L 54,34  L 54,33  L 51,33  L 51,32  L 50,32  L 50,30  L 49,30  L 49,28  L 48,28  L 48,27  L 47,27  L 47,26  L 46,26  L 46,25  L 44,25  L 44,24  L 41,24  L 41,23  L 23,23  L 23,24  L 13,24  L 13,23  L 8,23  L 8,24  L 6,24  L 6,25  L 4,25  L 4,26  L 2,26  L 2,27  L 1,27  L 1,29  L 0,29  L 0,31  L 1,31  L 1,32  L 3,32  L 3,53  L 4,53  L 4,54  L 3,54  L 3,57  L 4,57  L 4,59  L 3,59  L 3,60  L 4,60  L 4,78  L 5,78  L 5,84  L 6,84  L 6,85  L 7,85  L 7,86  L 8,86  L 8,88  L 10,88  L 10,89  L 13,89  L 13,90  L 27,90  L 27,89  L 34,89  L 34,88  L 36,88  L 36,89  L 37,89  L 37,88  L 39,88  Z  " style="fill:rgb(0, 0, 0); fill-opacity:1.000; stroke:none;" />
 <path d="  M 51,119  L 51,118  L 52,118  L 52,119  L 60,119  L 60,120  L 61,120  L 61,119  L 62,119  L 62,120  L 65,120  L 65,121  L 71,121  L 71,122  L 74,122  L 74,123  L 75,123  L 75,122  L 76,122  L 76,123  L 78,123  L 78,124  L 79,124  L 79,125  L 81,125  L 81,126  L 82,126  L 82,127  L 83,127  L 83,130  L 82,130  L 82,131  L 81,131  L 81,133  L 80,133  L 80,134  L 77,134  L 77,135  L 76,135  L 76,136  L 74,136  L 74,137  L 71,137  L 71,138  L 68,138  L 68,139  L 65,139  L 65,140  L 60,140  L 60,141  L 59,141  L 59,140  L 58,140  L 58,141  L 55,141  L 55,142  L 49,142  L 49,143  L 45,143  L 45,144  L 42,144  L 42,145  L 40,145  L 40,146  L 38,146  L 38,147  L 37,147  L 37,148  L 36,148  L 36,149  L 35,149  L 35,150  L 34,150  L 34,151  L 33,151  L 33,153  L 32,153  L 32,157  L 31,157  L 31,162  L 32,162  L 32,163  L 31,163  L 31,164  L 32,164  L 32,167  L 33,167  L 33,170  L 32,170  L 32,171  L 33,171  L 33,172  L 34,172  L 34,173  L 35,173  L 35,174  L 36,174  L 36,175  L 37,175  L 37,176  L 41,176  L 41,177  L 44,177  L 44,178  L 48,178  L 48,179  L 75,179  L 75,178  L 79,178  L 79,177  L 82,177  L 82,176  L 85,176  L 85,175  L 87,175  L 87,174  L 90,174  L 90,173  L 91,173  L 91,172  L 94,172  L 94,171  L 96,171  L 96,170  L 97,170  L 97,169  L 99,169  L 99,167  L 100,167  L 100,166  L 101,166  L 101,165  L 102,165  L 102,160  L 98,160  L 98,161  L 96,161  L 96,162  L 95,162  L 95,163  L 94,163  L 94,164  L 92,164  L 92,165  L 90,165  L 90,166  L 87,166  L 87,167  L 85,167  L 85,168  L 82,168  L 82,169  L 79,169  L 79,170  L 76,170  L 76,171  L 71,171  L 71,172  L 70,172  L 70,171  L 69,171  L 69,172  L 50,172  L 50,171  L 45,171  L 45,170  L 42,170  L 42,167  L 41,167  L 41,154  L 42,154  L 42,153  L 44,153  L 44,152  L 45,152  L 45,151  L 47,151  L 47,150  L 51,150  L 51,149  L 58,149  L 58,148  L 62,148  L 62,147  L 69,147  L 69,146  L 73,146  L 73,145  L 75,145  L 75,144  L 78,144  L 78,143  L 79,143  L 79,142  L 80,142  L 80,141  L 82,141  L 82,140  L 83,140  L 83,139  L 85,139  L 85,138  L 86,138  L 86,137  L 87,137  L 87,136  L 88,136  L 88,135  L 89,135  L 89,133  L 90,133  L 90,128  L 91,128  L 91,125  L 90,125  L 90,123  L 89,123  L 89,120  L 87,120  L 87,118  L 86,118  L 86,119  L 85,119  L 85,118  L 83,118  L 83,117  L 81,117  L 81,116  L 78,116  L 78,115  L 75,115  L 75,114  L 70,114  L 70,113  L 64,113  L 64,112  L 54,112  L 54,111  L 41,111  L 41,112  L 38,112  L 38,113  L 36,113  L 36,114  L 35,114  L 35,115  L 34,115  L 34,119  L 36,119  L 36,120  L 37,120  L 37,121  L 40,121  L 40,120  L 41,120  L 41,121  L 42,121  L 42,120  L 44,120  L 44,119  Z  " style="fill:rgb(0, 0, 0); fill-opacity:1.000; stroke:none;" />
</svg>
