<?xml version="1.0" encoding="UTF-8" standalone="no"?>
<!DOCTYPE svg PUBLIC "-//W3C//DTD SVG 1.1//EN" 
  "http://www.w3.org/Graphics/SVG/1.1/DTD/svg11.dtd">
<svg width="107" height="176"
     xmlns="http://www.w3.org/2000/svg" version="1.1">
 <path d="  M 75,24  L 75,25  L 68,25  L 68,26  L 62,26  L 62,27  L 60,27  L 60,26  L 58,26  L 58,24  L 57,24  L 57,22  L 56,22  L 56,21  L 55,21  L 55,20  L 54,20  L 54,19  L 53,19  L 53,18  L 51,18  L 51,17  L 32,17  L 32,18  L 14,18  L 14,17  L 13,17  L 13,18  L 12,18  L 12,17  L 9,17  L 9,18  L 7,18  L 7,19  L 5,19  L 5,20  L 3,20  L 3,21  L 2,21  L 2,22  L 1,22  L 1,24  L 0,24  L 0,26  L 1,26  L 1,27  L 3,27  L 3,26  L 4,26  L 4,25  L 6,25  L 6,26  L 7,26  L 7,27  L 8,27  L 8,36  L 7,36  L 7,37  L 8,37  L 8,49  L 9,49  L 9,50  L 8,50  L 8,53  L 9,53  L 9,65  L 10,65  L 10,66  L 9,66  L 9,67  L 10,67  L 10,68  L 9,68  L 9,69  L 10,69  L 10,76  L 11,76  L 11,77  L 12,77  L 12,78  L 11,78  L 11,79  L 12,79  L 12,81  L 14,81  L 14,82  L 17,82  L 17,83  L 18,83  L 18,84  L 28,84  L 28,83  L 31,83  L 31,82  L 35,82  L 35,81  L 39,81  L 39,80  L 43,80  L 43,79  L 46,79  L 46,78  L 47,78  L 47,77  L 49,77  L 49,76  L 50,76  L 50,75  L 52,75  L 52,74  L 57,74  L 57,71  L 58,71  L 58,70  L 57,70  L 57,69  L 58,69  L 58,64  L 57,64  L 57,63  L 58,63  L 58,60  L 57,60  L 57,58  L 58,58  L 58,56  L 57,56  L 57,46  L 56,46  L 56,45  L 57,45  L 57,40  L 56,40  L 56,39  L 57,39  L 57,34  L 58,34  L 58,32  L 59,32  L 59,31  L 60,31  L 60,33  L 62,33  L 62,34  L 66,34  L 66,33  L 70,33  L 70,32  L 76,32  L 76,31  L 86,31  L 86,30  L 87,30  L 87,31  L 88,31  L 88,30  L 98,30  L 98,46  L 96,46  L 96,47  L 87,47  L 87,48  L 86,48  L 86,47  L 85,47  L 85,48  L 79,48  L 79,49  L 71,49  L 71,50  L 65,50  L 65,51  L 64,51  L 64,53  L 63,53  L 63,55  L 64,55  L 64,57  L 66,57  L 66,58  L 68,58  L 68,57  L 72,57  L 72,56  L 77,56  L 77,55  L 82,55  L 82,54  L 83,54  L 83,55  L 84,55  L 84,54  L 96,54  L 96,55  L 98,55  L 98,66  L 97,66  L 97,67  L 98,67  L 98,86  L 97,86  L 97,87  L 98,87  L 98,90  L 97,90  L 97,92  L 98,92  L 98,94  L 101,94  L 101,93  L 103,93  L 103,92  L 104,92  L 104,91  L 105,91  L 105,89  L 106,89  L 106,88  L 105,88  L 105,85  L 106,85  L 106,84  L 105,84  L 105,82  L 106,82  L 106,80  L 105,80  L 105,79  L 106,79  L 106,22  L 107,22  L 107,1  L 105,1  L 105,0  L 104,0  L 104,1  L 102,1  L 102,2  L 101,2  L 101,3  L 100,3  L 100,16  L 99,16  L 99,17  L 100,17  L 100,18  L 99,18  L 99,22  L 98,22  L 98,23  L 91,23  L 91,24  L 90,24  L 90,23  L 87,23  L 87,24  L 86,24  L 86,23  L 85,23  L 85,24  Z  M 45,25  L 49,25  L 49,32  L 48,32  L 48,41  L 49,41  L 49,42  L 48,42  L 48,44  L 49,44  L 49,67  L 48,67  L 48,69  L 47,69  L 47,70  L 45,70  L 45,71  L 42,71  L 42,72  L 37,72  L 37,73  L 34,73  L 34,74  L 30,74  L 30,75  L 26,75  L 26,76  L 25,76  L 25,75  L 24,75  L 24,76  L 21,76  L 21,75  L 19,75  L 19,73  L 18,73  L 18,72  L 17,72  L 17,71  L 18,71  L 18,70  L 17,70  L 17,69  L 18,69  L 18,68  L 17,68  L 17,50  L 16,50  L 16,49  L 17,49  L 17,46  L 16,46  L 16,45  L 17,45  L 17,44  L 16,44  L 16,25  L 19,25  L 19,24  L 20,24  L 20,25  L 21,25  L 21,24  L 26,24  L 26,25  L 27,25  L 27,24  L 45,24  Z  " style="fill:rgb(0, 0, 0); fill-opacity:1.000; stroke:none;" />
 <path d="  M 99,155  L 96,155  L 96,154  L 93,154  L 93,153  L 89,153  L 89,152  L 85,152  L 85,151  L 83,151  L 83,150  L 80,150  L 80,149  L 78,149  L 78,148  L 76,148  L 76,147  L 74,147  L 74,146  L 73,146  L 73,144  L 72,144  L 72,143  L 73,143  L 73,141  L 74,141  L 74,140  L 75,140  L 75,139  L 76,139  L 76,138  L 77,138  L 77,137  L 78,137  L 78,135  L 79,135  L 79,133  L 80,133  L 80,131  L 81,131  L 81,129  L 82,129  L 82,126  L 83,126  L 83,122  L 82,122  L 82,120  L 81,120  L 81,119  L 79,119  L 79,118  L 77,118  L 77,117  L 73,117  L 73,116  L 72,116  L 72,117  L 71,117  L 71,116  L 70,116  L 70,117  L 69,117  L 69,116  L 68,116  L 68,117  L 64,117  L 64,118  L 61,118  L 61,119  L 59,119  L 59,120  L 55,120  L 55,121  L 51,121  L 51,122  L 47,122  L 47,123  L 43,123  L 43,124  L 41,124  L 41,125  L 39,125  L 39,126  L 38,126  L 38,127  L 37,127  L 37,132  L 41,132  L 41,131  L 43,131  L 43,130  L 46,130  L 46,129  L 51,129  L 51,128  L 56,128  L 56,127  L 60,127  L 60,126  L 65,126  L 65,125  L 69,125  L 69,124  L 75,124  L 75,125  L 76,125  L 76,126  L 75,126  L 75,129  L 74,129  L 74,131  L 73,131  L 73,132  L 72,132  L 72,134  L 71,134  L 71,135  L 70,135  L 70,136  L 69,136  L 69,137  L 68,137  L 68,139  L 67,139  L 67,141  L 66,141  L 66,143  L 65,143  L 65,145  L 64,145  L 64,146  L 63,146  L 63,147  L 62,147  L 62,148  L 60,148  L 60,151  L 59,151  L 59,152  L 58,152  L 58,153  L 57,153  L 57,154  L 56,154  L 56,155  L 55,155  L 55,156  L 54,156  L 54,157  L 55,157  L 55,158  L 54,158  L 54,159  L 53,159  L 53,161  L 51,161  L 51,162  L 50,162  L 50,163  L 49,163  L 49,165  L 47,165  L 47,166  L 46,166  L 46,168  L 44,168  L 44,169  L 43,169  L 43,170  L 42,170  L 42,172  L 41,172  L 41,173  L 42,173  L 42,176  L 47,176  L 47,175  L 49,175  L 49,174  L 50,174  L 50,173  L 51,173  L 51,172  L 52,172  L 52,170  L 53,170  L 53,169  L 54,169  L 54,168  L 55,168  L 55,167  L 56,167  L 56,166  L 57,166  L 57,165  L 58,165  L 58,163  L 59,163  L 59,162  L 60,162  L 60,161  L 61,161  L 61,160  L 62,160  L 62,159  L 63,159  L 63,157  L 64,157  L 64,156  L 65,156  L 65,154  L 66,154  L 66,153  L 67,153  L 67,152  L 68,152  L 68,151  L 70,151  L 70,152  L 72,152  L 72,153  L 74,153  L 74,154  L 75,154  L 75,155  L 77,155  L 77,156  L 79,156  L 79,157  L 82,157  L 82,158  L 85,158  L 85,159  L 88,159  L 88,160  L 90,160  L 90,161  L 91,161  L 91,162  L 94,162  L 94,163  L 97,163  L 97,164  L 99,164  L 99,165  L 103,165  L 103,164  L 104,164  L 104,163  L 105,163  L 105,159  L 104,159  L 104,157  L 103,157  L 103,156  L 99,156  Z  " style="fill:rgb(0, 0, 0); fill-opacity:1.000; stroke:none;" />
 <path d="  M 58,98  L 57,98  L 57,96  L 55,96  L 55,95  L 52,95  L 52,96  L 51,96  L 51,100  L 50,100  L 50,101  L 52,101  L 52,104  L 53,104  L 53,107  L 54,107  L 54,108  L 55,108  L 55,109  L 56,109  L 56,111  L 57,111  L 57,112  L 58,112  L 58,113  L 60,113  L 60,115  L 61,115  L 61,114  L 62,114  L 62,115  L 63,115  L 63,114  L 64,114  L 64,115  L 65,115  L 65,113  L 66,113  L 66,112  L 65,112  L 65,111  L 64,111  L 64,109  L 65,109  L 65,108  L 64,108  L 64,107  L 63,107  L 63,103  L 62,103  L 62,102  L 61,102  L 61,101  L 60,101  L 60,100  L 59,100  L 59,99  L 58,99  Z  " style="fill:rgb(0, 0, 0); fill-opacity:1.000; stroke:none;" />
</svg>
