<?xml version="1.0" encoding="UTF-8" standalone="no"?>
<!DOCTYPE svg PUBLIC "-//W3C//DTD SVG 1.1//EN" 
  "http://www.w3.org/Graphics/SVG/1.1/DTD/svg11.dtd">
<svg width="98" height="179"
     xmlns="http://www.w3.org/2000/svg" version="1.1">
 <path d="  M 70,35  L 69,35  L 69,37  L 68,37  L 68,39  L 67,39  L 67,40  L 64,40  L 64,41  L 61,41  L 61,42  L 59,42  L 59,43  L 57,43  L 57,44  L 55,44  L 55,45  L 53,45  L 53,46  L 51,46  L 51,47  L 49,47  L 49,48  L 45,48  L 45,49  L 36,49  L 36,50  L 35,50  L 35,49  L 29,49  L 29,47  L 28,47  L 28,26  L 29,26  L 29,25  L 28,25  L 28,23  L 29,23  L 29,21  L 28,21  L 28,17  L 29,17  L 29,16  L 31,16  L 31,15  L 33,15  L 33,14  L 37,14  L 37,13  L 41,13  L 41,12  L 45,12  L 45,11  L 46,11  L 46,12  L 47,12  L 47,11  L 50,11  L 50,10  L 56,10  L 56,9  L 61,9  L 61,8  L 62,8  L 62,9  L 65,9  L 65,8  L 66,8  L 66,9  L 69,9  L 69,10  L 70,10  L 70,12  L 71,12  L 71,19  L 70,19  Z  M 39,97  L 39,96  L 47,96  L 47,95  L 48,95  L 48,96  L 50,96  L 50,95  L 57,95  L 57,94  L 58,94  L 58,95  L 59,95  L 59,94  L 63,94  L 63,93  L 64,93  L 64,94  L 65,94  L 65,93  L 75,93  L 75,92  L 76,92  L 76,93  L 77,93  L 77,92  L 90,92  L 90,91  L 95,91  L 95,90  L 97,90  L 97,89  L 98,89  L 98,83  L 97,83  L 97,82  L 91,82  L 91,83  L 86,83  L 86,84  L 80,84  L 80,85  L 68,85  L 68,86  L 67,86  L 67,85  L 66,85  L 66,86  L 59,86  L 59,87  L 57,87  L 57,86  L 56,86  L 56,56  L 55,56  L 55,55  L 56,55  L 56,53  L 57,53  L 57,52  L 59,52  L 59,51  L 62,51  L 62,50  L 63,50  L 63,49  L 64,49  L 64,50  L 65,50  L 65,49  L 66,49  L 66,48  L 67,48  L 67,47  L 69,47  L 69,46  L 70,46  L 70,44  L 72,44  L 72,43  L 73,43  L 73,42  L 75,42  L 75,41  L 76,41  L 76,40  L 77,40  L 77,36  L 78,36  L 78,33  L 77,33  L 77,32  L 78,32  L 78,29  L 77,29  L 77,28  L 78,28  L 78,14  L 79,14  L 79,9  L 78,9  L 78,7  L 77,7  L 77,5  L 76,5  L 76,4  L 74,4  L 74,3  L 73,3  L 73,2  L 68,2  L 68,1  L 50,1  L 50,2  L 46,2  L 46,3  L 41,3  L 41,4  L 35,4  L 35,5  L 31,5  L 31,6  L 28,6  L 28,7  L 25,7  L 25,8  L 24,8  L 24,9  L 23,9  L 23,10  L 20,10  L 20,9  L 17,9  L 17,10  L 16,10  L 16,11  L 15,11  L 15,13  L 14,13  L 14,14  L 13,14  L 13,15  L 11,15  L 11,16  L 10,16  L 10,17  L 9,17  L 9,19  L 10,19  L 10,20  L 11,20  L 11,21  L 13,21  L 13,22  L 14,22  L 14,20  L 16,20  L 16,19  L 17,19  L 17,18  L 18,18  L 18,16  L 20,16  L 20,18  L 21,18  L 21,44  L 22,44  L 22,49  L 23,49  L 23,51  L 24,51  L 24,52  L 25,52  L 25,53  L 26,53  L 26,54  L 27,54  L 27,55  L 28,55  L 28,56  L 31,56  L 31,57  L 39,57  L 39,56  L 40,56  L 40,57  L 41,57  L 41,56  L 46,56  L 46,57  L 47,57  L 47,62  L 48,62  L 48,63  L 47,63  L 47,65  L 48,65  L 48,70  L 47,70  L 47,71  L 48,71  L 48,74  L 47,74  L 47,75  L 48,75  L 48,78  L 47,78  L 47,79  L 48,79  L 48,88  L 40,88  L 40,89  L 34,89  L 34,90  L 29,90  L 29,91  L 28,91  L 28,90  L 27,90  L 27,91  L 22,91  L 22,92  L 18,92  L 18,93  L 14,93  L 14,94  L 7,94  L 7,95  L 6,95  L 6,94  L 5,94  L 5,95  L 2,95  L 2,96  L 3,96  L 3,97  L 2,97  L 2,98  L 1,98  L 1,99  L 0,99  L 0,100  L 1,100  L 1,101  L 0,101  L 0,102  L 1,102  L 1,103  L 2,103  L 2,104  L 5,104  L 5,105  L 8,105  L 8,104  L 10,104  L 10,103  L 11,103  L 11,102  L 13,102  L 13,101  L 18,101  L 18,100  L 24,100  L 24,99  L 25,99  L 25,100  L 26,100  L 26,99  L 28,99  L 28,98  L 31,98  L 31,97  L 32,97  L 32,98  L 33,98  L 33,97  Z  " style="fill:rgb(0, 0, 0); fill-opacity:1.000; stroke:none;" />
 <path d="  M 70,147  L 69,147  L 69,148  L 70,148  L 70,149  L 69,149  L 69,157  L 68,157  L 68,162  L 67,162  L 67,165  L 66,165  L 66,178  L 67,178  L 67,179  L 71,179  L 71,178  L 72,178  L 72,177  L 73,177  L 73,175  L 74,175  L 74,172  L 75,172  L 75,165  L 76,165  L 76,164  L 77,164  L 77,163  L 76,163  L 76,161  L 77,161  L 77,155  L 78,155  L 78,149  L 79,149  L 79,143  L 80,143  L 80,140  L 81,140  L 81,138  L 82,138  L 82,137  L 81,137  L 81,136  L 82,136  L 82,132  L 83,132  L 83,124  L 82,124  L 82,121  L 81,121  L 81,120  L 80,120  L 80,119  L 78,119  L 78,118  L 76,118  L 76,117  L 74,117  L 74,116  L 62,116  L 62,117  L 61,117  L 61,116  L 60,116  L 60,117  L 49,117  L 49,118  L 37,118  L 37,119  L 30,119  L 30,120  L 27,120  L 27,119  L 26,119  L 26,120  L 20,120  L 20,121  L 16,121  L 16,122  L 15,122  L 15,123  L 14,123  L 14,126  L 16,126  L 16,127  L 17,127  L 17,128  L 26,128  L 26,127  L 39,127  L 39,126  L 40,126  L 40,127  L 41,127  L 41,126  L 51,126  L 51,125  L 63,125  L 63,124  L 64,124  L 64,125  L 70,125  L 70,126  L 72,126  L 72,127  L 74,127  L 74,128  L 75,128  L 75,129  L 74,129  L 74,130  L 73,130  L 73,132  L 72,132  L 72,135  L 71,135  L 71,141  L 70,141  Z  " style="fill:rgb(0, 0, 0); fill-opacity:1.000; stroke:none;" />
</svg>
