<?xml version="1.0" encoding="UTF-8" standalone="no"?>
<!DOCTYPE svg PUBLIC "-//W3C//DTD SVG 1.1//EN" 
  "http://www.w3.org/Graphics/SVG/1.1/DTD/svg11.dtd">
<svg width="104" height="167"
     xmlns="http://www.w3.org/2000/svg" version="1.1">
 <path d="  M 104,99  L 104,92  L 103,92  L 103,91  L 94,91  L 94,92  L 93,92  L 93,91  L 92,91  L 92,92  L 71,92  L 71,93  L 68,93  L 68,92  L 67,92  L 67,93  L 65,93  L 65,92  L 63,92  L 63,93  L 58,93  L 58,83  L 57,83  L 57,82  L 58,82  L 58,57  L 59,57  L 59,55  L 60,55  L 60,54  L 63,54  L 63,53  L 65,53  L 65,52  L 68,52  L 68,51  L 69,51  L 69,50  L 71,50  L 71,49  L 72,49  L 72,48  L 73,48  L 73,47  L 74,47  L 74,46  L 75,46  L 75,44  L 77,44  L 77,43  L 78,43  L 78,42  L 79,42  L 79,39  L 80,39  L 80,32  L 81,32  L 81,25  L 82,25  L 82,9  L 81,9  L 81,8  L 82,8  L 82,7  L 81,7  L 81,6  L 80,6  L 80,4  L 79,4  L 79,3  L 77,3  L 77,2  L 73,2  L 73,1  L 68,1  L 68,2  L 52,2  L 52,3  L 51,3  L 51,2  L 49,2  L 49,3  L 37,3  L 37,4  L 32,4  L 32,5  L 28,5  L 28,6  L 26,6  L 26,7  L 25,7  L 25,8  L 22,8  L 22,7  L 18,7  L 18,8  L 17,8  L 17,9  L 15,9  L 15,10  L 14,10  L 14,11  L 13,11  L 13,10  L 12,10  L 12,15  L 13,15  L 13,16  L 15,16  L 15,17  L 16,17  L 16,16  L 17,16  L 17,15  L 19,15  L 19,14  L 20,14  L 20,13  L 21,13  L 21,12  L 23,12  L 23,15  L 24,15  L 24,19  L 23,19  L 23,20  L 24,20  L 24,21  L 23,21  L 23,42  L 24,42  L 24,43  L 23,43  L 23,44  L 24,44  L 24,45  L 23,45  L 23,46  L 24,46  L 24,53  L 25,53  L 25,55  L 26,55  L 26,56  L 27,56  L 27,57  L 28,57  L 28,58  L 31,58  L 31,59  L 37,59  L 37,58  L 46,58  L 46,57  L 47,57  L 47,58  L 48,58  L 48,57  L 49,57  L 49,58  L 50,58  L 50,92  L 51,92  L 51,93  L 50,93  L 50,95  L 46,95  L 46,96  L 45,96  L 45,95  L 44,95  L 44,96  L 39,96  L 39,97  L 32,97  L 32,98  L 29,98  L 29,97  L 28,97  L 28,98  L 24,98  L 24,99  L 3,99  L 3,100  L 1,100  L 1,102  L 0,102  L 0,106  L 2,106  L 2,107  L 26,107  L 26,106  L 32,106  L 32,105  L 37,105  L 37,104  L 43,104  L 43,103  L 52,103  L 52,102  L 58,102  L 58,101  L 59,101  L 59,102  L 60,102  L 60,101  L 71,101  L 71,100  L 72,100  L 72,101  L 73,101  L 73,100  L 89,100  L 89,99  L 90,99  L 90,100  L 91,100  L 91,99  L 92,99  L 92,100  L 93,100  L 93,99  Z  M 75,23  L 74,23  L 74,25  L 75,25  L 75,26  L 74,26  L 74,29  L 73,29  L 73,30  L 74,30  L 74,31  L 73,31  L 73,36  L 72,36  L 72,38  L 71,38  L 71,40  L 70,40  L 70,42  L 69,42  L 69,43  L 67,43  L 67,44  L 66,44  L 66,45  L 64,45  L 64,46  L 63,46  L 63,47  L 61,47  L 61,48  L 59,48  L 59,49  L 55,49  L 55,50  L 49,50  L 49,51  L 31,51  L 31,49  L 30,49  L 30,24  L 31,24  L 31,23  L 30,23  L 30,21  L 31,21  L 31,14  L 32,14  L 32,13  L 33,13  L 33,12  L 37,12  L 37,11  L 38,11  L 38,12  L 39,12  L 39,11  L 43,11  L 43,10  L 55,10  L 55,9  L 56,9  L 56,10  L 57,10  L 57,9  L 68,9  L 68,8  L 71,8  L 71,9  L 73,9  L 73,10  L 74,10  L 74,11  L 75,11  Z  " style="fill:rgb(0, 0, 0); fill-opacity:1.000; stroke:none;" />
 <path d="  M 61,156  L 61,155  L 60,155  L 60,156  L 55,156  L 55,157  L 50,157  L 50,158  L 49,158  L 49,157  L 47,157  L 47,158  L 45,158  L 45,157  L 44,157  L 44,158  L 34,158  L 34,159  L 30,159  L 30,158  L 29,158  L 29,145  L 30,145  L 30,139  L 29,139  L 29,138  L 30,138  L 30,135  L 29,135  L 29,134  L 30,134  L 30,133  L 29,133  L 29,132  L 30,132  L 30,131  L 29,131  L 29,128  L 30,128  L 30,127  L 29,127  L 29,126  L 30,126  L 30,114  L 26,114  L 26,115  L 24,115  L 24,117  L 23,117  L 23,148  L 22,148  L 22,149  L 23,149  L 23,152  L 22,152  L 22,153  L 23,153  L 23,155  L 22,155  L 22,157  L 23,157  L 23,164  L 24,164  L 24,165  L 25,165  L 25,166  L 26,166  L 26,167  L 41,167  L 41,166  L 49,166  L 49,165  L 51,165  L 51,166  L 52,166  L 52,165  L 57,165  L 57,164  L 64,164  L 64,163  L 69,163  L 69,162  L 70,162  L 70,163  L 71,163  L 71,162  L 77,162  L 77,161  L 84,161  L 84,160  L 88,160  L 88,159  L 91,159  L 91,158  L 97,158  L 97,157  L 101,157  L 101,156  L 102,156  L 102,154  L 101,154  L 101,153  L 100,153  L 100,152  L 97,152  L 97,151  L 91,151  L 91,152  L 90,152  L 90,151  L 87,151  L 87,152  L 83,152  L 83,153  L 80,153  L 80,152  L 79,152  L 79,153  L 75,153  L 75,154  L 73,154  L 73,153  L 72,153  L 72,154  L 69,154  L 69,155  L 62,155  L 62,156  Z  " style="fill:rgb(0, 0, 0); fill-opacity:1.000; stroke:none;" />
</svg>
