<?xml version="1.0" encoding="UTF-8" standalone="no"?>
<!DOCTYPE svg PUBLIC "-//W3C//DTD SVG 1.1//EN" 
  "http://www.w3.org/Graphics/SVG/1.1/DTD/svg11.dtd">
<svg width="102" height="159"
     xmlns="http://www.w3.org/2000/svg" version="1.1">
 <path d="  M 44,111  L 43,111  L 43,109  L 42,109  L 42,108  L 41,108  L 41,107  L 40,107  L 40,106  L 39,106  L 39,105  L 38,105  L 38,104  L 37,104  L 37,103  L 35,103  L 35,102  L 32,102  L 32,101  L 29,101  L 29,100  L 26,100  L 26,99  L 25,99  L 25,100  L 24,100  L 24,99  L 21,99  L 21,100  L 18,100  L 18,101  L 15,101  L 15,102  L 14,102  L 14,101  L 13,101  L 13,102  L 7,102  L 7,103  L 6,103  L 6,105  L 5,105  L 5,107  L 6,107  L 6,110  L 7,110  L 7,111  L 9,111  L 9,112  L 10,112  L 10,113  L 11,113  L 11,112  L 14,112  L 14,111  L 15,111  L 15,110  L 16,110  L 16,109  L 17,109  L 17,108  L 21,108  L 21,107  L 29,107  L 29,108  L 31,108  L 31,109  L 32,109  L 32,110  L 34,110  L 34,111  L 35,111  L 35,112  L 36,112  L 36,115  L 35,115  L 35,117  L 34,117  L 34,118  L 33,118  L 33,120  L 32,120  L 32,121  L 31,121  L 31,122  L 29,122  L 29,123  L 25,123  L 25,124  L 22,124  L 22,125  L 20,125  L 20,126  L 18,126  L 18,127  L 12,127  L 12,128  L 3,128  L 3,130  L 2,130  L 2,132  L 1,132  L 1,135  L 0,135  L 0,138  L 1,138  L 1,139  L 0,139  L 0,140  L 1,140  L 1,146  L 2,146  L 2,149  L 3,149  L 3,151  L 4,151  L 4,153  L 5,153  L 5,154  L 6,154  L 6,155  L 7,155  L 7,156  L 8,156  L 8,158  L 10,158  L 10,159  L 40,159  L 40,158  L 43,158  L 43,157  L 48,157  L 48,156  L 54,156  L 54,155  L 55,155  L 55,154  L 57,154  L 57,149  L 56,149  L 56,146  L 54,146  L 54,145  L 52,145  L 52,146  L 51,146  L 51,147  L 50,147  L 50,148  L 49,148  L 49,149  L 45,149  L 45,150  L 44,150  L 44,151  L 37,151  L 37,152  L 29,152  L 29,153  L 13,153  L 13,152  L 11,152  L 11,151  L 9,151  L 9,147  L 8,147  L 8,138  L 9,138  L 9,136  L 12,136  L 12,135  L 14,135  L 14,134  L 18,134  L 18,133  L 20,133  L 20,132  L 23,132  L 23,131  L 26,131  L 26,130  L 29,130  L 29,129  L 31,129  L 31,128  L 34,128  L 34,127  L 37,127  L 37,126  L 38,126  L 38,123  L 39,123  L 39,122  L 40,122  L 40,121  L 41,121  L 41,120  L 42,120  L 42,119  L 43,119  L 43,117  L 44,117  Z  " style="fill:rgb(0, 0, 0); fill-opacity:1.000; stroke:none;" />
 <path d="  M 67,30  L 66,30  L 66,32  L 65,32  L 65,33  L 64,33  L 64,34  L 63,34  L 63,35  L 61,35  L 61,36  L 60,36  L 60,37  L 59,37  L 59,38  L 58,38  L 58,39  L 56,39  L 56,40  L 54,40  L 54,41  L 50,41  L 50,42  L 47,42  L 47,43  L 40,43  L 40,44  L 39,44  L 39,43  L 37,43  L 37,44  L 34,44  L 34,43  L 32,43  L 32,42  L 31,42  L 31,40  L 30,40  L 30,39  L 31,39  L 31,38  L 30,38  L 30,24  L 31,24  L 31,19  L 32,19  L 32,13  L 33,13  L 33,12  L 35,12  L 35,11  L 42,11  L 42,10  L 47,10  L 47,9  L 57,9  L 57,8  L 58,8  L 58,9  L 60,9  L 60,8  L 62,8  L 62,9  L 66,9  L 66,10  L 67,10  L 67,11  L 68,11  L 68,16  L 69,16  L 69,22  L 68,22  L 68,23  L 69,23  L 69,24  L 68,24  L 68,28  L 67,28  Z  M 25,6  L 25,7  L 24,7  L 24,6  L 23,6  L 23,5  L 20,5  L 20,6  L 19,6  L 19,7  L 16,7  L 16,8  L 13,8  L 13,9  L 12,9  L 12,13  L 13,13  L 13,14  L 14,14  L 14,16  L 17,16  L 17,15  L 19,15  L 19,14  L 20,14  L 20,13  L 21,13  L 21,12  L 24,12  L 24,44  L 25,44  L 25,46  L 26,46  L 26,48  L 28,48  L 28,49  L 29,49  L 29,50  L 34,50  L 34,51  L 36,51  L 36,50  L 37,50  L 37,51  L 38,51  L 38,50  L 47,50  L 47,51  L 48,51  L 48,54  L 47,54  L 47,55  L 48,55  L 48,61  L 47,61  L 47,62  L 48,62  L 48,65  L 47,65  L 47,66  L 48,66  L 48,75  L 47,75  L 47,76  L 40,76  L 40,77  L 33,77  L 33,78  L 28,78  L 28,79  L 21,79  L 21,80  L 18,80  L 18,81  L 13,81  L 13,82  L 10,82  L 10,81  L 9,81  L 9,82  L 4,82  L 4,83  L 3,83  L 3,86  L 4,86  L 4,87  L 3,87  L 3,88  L 4,88  L 4,89  L 5,89  L 5,90  L 6,90  L 6,89  L 7,89  L 7,90  L 10,90  L 10,89  L 15,89  L 15,88  L 19,88  L 19,87  L 20,87  L 20,88  L 21,88  L 21,87  L 26,87  L 26,86  L 30,86  L 30,85  L 37,85  L 37,84  L 45,84  L 45,83  L 48,83  L 48,84  L 49,84  L 49,83  L 52,83  L 52,82  L 53,82  L 53,83  L 54,83  L 54,82  L 62,82  L 62,81  L 70,81  L 70,80  L 71,80  L 71,81  L 73,81  L 73,80  L 89,80  L 89,81  L 90,81  L 90,80  L 91,80  L 91,81  L 92,81  L 92,80  L 93,80  L 93,79  L 94,79  L 94,78  L 95,78  L 95,76  L 96,76  L 96,75  L 95,75  L 95,74  L 94,74  L 94,73  L 92,73  L 92,72  L 91,72  L 91,73  L 71,73  L 71,74  L 70,74  L 70,73  L 69,73  L 69,74  L 66,74  L 66,73  L 65,73  L 65,74  L 55,74  L 55,47  L 57,47  L 57,46  L 60,46  L 60,45  L 61,45  L 61,44  L 62,44  L 62,43  L 64,43  L 64,42  L 65,42  L 65,41  L 66,41  L 66,39  L 68,39  L 68,38  L 69,38  L 69,37  L 70,37  L 70,35  L 71,35  L 71,34  L 72,34  L 72,32  L 73,32  L 73,31  L 74,31  L 74,28  L 75,28  L 75,8  L 74,8  L 74,6  L 73,6  L 73,5  L 72,5  L 72,4  L 69,4  L 69,3  L 67,3  L 67,2  L 62,2  L 62,1  L 48,1  L 48,2  L 47,2  L 47,1  L 46,1  L 46,2  L 37,2  L 37,3  L 31,3  L 31,4  L 27,4  L 27,5  L 26,5  L 26,6  Z  " style="fill:rgb(0, 0, 0); fill-opacity:1.000; stroke:none;" />
 <path d="  M 95,148  L 95,145  L 96,145  L 96,140  L 97,140  L 97,134  L 98,134  L 98,132  L 99,132  L 99,126  L 100,126  L 100,124  L 101,124  L 101,122  L 102,122  L 102,114  L 101,114  L 101,111  L 100,111  L 100,109  L 99,109  L 99,108  L 98,108  L 98,107  L 97,107  L 97,106  L 96,106  L 96,105  L 94,105  L 94,104  L 90,104  L 90,103  L 89,103  L 89,104  L 86,104  L 86,103  L 85,103  L 85,104  L 82,104  L 82,103  L 81,103  L 81,104  L 80,104  L 80,103  L 79,103  L 79,104  L 78,104  L 78,103  L 75,103  L 75,104  L 74,104  L 74,103  L 71,103  L 71,104  L 70,104  L 70,103  L 67,103  L 67,104  L 66,104  L 66,103  L 65,103  L 65,104  L 61,104  L 61,105  L 59,105  L 59,106  L 58,106  L 58,107  L 57,107  L 57,108  L 58,108  L 58,126  L 59,126  L 59,132  L 60,132  L 60,134  L 61,134  L 61,140  L 62,140  L 62,143  L 61,143  L 61,144  L 62,144  L 62,155  L 63,155  L 63,156  L 64,156  L 64,157  L 65,157  L 65,156  L 70,156  L 70,155  L 71,155  L 71,156  L 75,156  L 75,155  L 76,155  L 76,156  L 78,156  L 78,155  L 86,155  L 86,154  L 87,154  L 87,155  L 88,155  L 88,154  L 90,154  L 90,153  L 92,153  L 92,152  L 93,152  L 93,151  L 94,151  L 94,148  Z  M 90,138  L 89,138  L 89,142  L 88,142  L 88,146  L 87,146  L 87,148  L 85,148  L 85,149  L 73,149  L 73,150  L 68,150  L 68,137  L 67,137  L 67,136  L 68,136  L 68,135  L 67,135  L 67,129  L 66,129  L 66,123  L 65,123  L 65,114  L 66,114  L 66,113  L 67,113  L 67,112  L 92,112  L 92,113  L 94,113  L 94,118  L 93,118  L 93,125  L 92,125  L 92,129  L 91,129  L 91,133  L 90,133  Z  " style="fill:rgb(0, 0, 0); fill-opacity:1.000; stroke:none;" />
</svg>
