<?xml version="1.0" encoding="UTF-8" standalone="no"?>
<!DOCTYPE svg PUBLIC "-//W3C//DTD SVG 1.1//EN" 
  "http://www.w3.org/Graphics/SVG/1.1/DTD/svg11.dtd">
<svg width="97" height="186"
     xmlns="http://www.w3.org/2000/svg" version="1.1">
 <path d="  M 46,97  L 46,96  L 47,96  L 47,97  L 48,97  L 48,96  L 58,96  L 58,95  L 59,95  L 59,96  L 62,96  L 62,95  L 74,95  L 74,94  L 75,94  L 75,95  L 77,95  L 77,94  L 80,94  L 80,95  L 81,95  L 81,94  L 86,94  L 86,93  L 87,93  L 87,94  L 88,94  L 88,93  L 96,93  L 96,92  L 97,92  L 97,86  L 96,86  L 96,85  L 89,85  L 89,86  L 85,86  L 85,87  L 84,87  L 84,86  L 81,86  L 81,87  L 78,87  L 78,86  L 77,86  L 77,87  L 74,87  L 74,88  L 59,88  L 59,89  L 55,89  L 55,88  L 54,88  L 54,79  L 55,79  L 55,78  L 54,78  L 54,77  L 55,77  L 55,76  L 54,76  L 54,75  L 55,75  L 55,74  L 54,74  L 54,73  L 55,73  L 55,72  L 54,72  L 54,71  L 55,71  L 55,70  L 54,70  L 54,69  L 55,69  L 55,68  L 54,68  L 54,67  L 55,67  L 55,66  L 54,66  L 54,65  L 55,65  L 55,64  L 54,64  L 54,58  L 56,58  L 56,57  L 57,57  L 57,56  L 61,56  L 61,55  L 62,55  L 62,54  L 65,54  L 65,53  L 67,53  L 67,51  L 69,51  L 69,49  L 70,49  L 70,48  L 71,48  L 71,47  L 72,47  L 72,46  L 74,46  L 74,45  L 75,45  L 75,43  L 76,43  L 76,39  L 77,39  L 77,28  L 78,28  L 78,17  L 79,17  L 79,11  L 80,11  L 80,10  L 79,10  L 79,8  L 78,8  L 78,7  L 77,7  L 77,5  L 75,5  L 75,4  L 74,4  L 74,3  L 72,3  L 72,2  L 70,2  L 70,1  L 50,1  L 50,2  L 46,2  L 46,3  L 43,3  L 43,4  L 40,4  L 40,5  L 37,5  L 37,6  L 33,6  L 33,7  L 30,7  L 30,8  L 26,8  L 26,9  L 25,9  L 25,10  L 20,10  L 20,9  L 19,9  L 19,8  L 18,8  L 18,9  L 17,9  L 17,11  L 18,11  L 18,12  L 20,12  L 20,15  L 21,15  L 21,49  L 22,49  L 22,52  L 23,52  L 23,54  L 24,54  L 24,55  L 25,55  L 25,56  L 26,56  L 26,57  L 27,57  L 27,58  L 28,58  L 28,59  L 30,59  L 30,60  L 33,60  L 33,61  L 34,61  L 34,60  L 35,60  L 35,61  L 36,61  L 36,60  L 38,60  L 38,61  L 41,61  L 41,60  L 45,60  L 45,61  L 46,61  L 46,75  L 47,75  L 47,77  L 46,77  L 46,79  L 47,79  L 47,80  L 46,80  L 46,83  L 47,83  L 47,84  L 46,84  L 46,85  L 47,85  L 47,90  L 31,90  L 31,91  L 30,91  L 30,90  L 29,90  L 29,91  L 22,91  L 22,92  L 15,92  L 15,93  L 14,93  L 14,92  L 13,92  L 13,93  L 4,93  L 4,94  L 3,94  L 3,93  L 2,93  L 2,94  L 1,94  L 1,95  L 0,95  L 0,99  L 2,99  L 2,100  L 4,100  L 4,101  L 7,101  L 7,100  L 19,100  L 19,99  L 26,99  L 26,98  L 28,98  L 28,99  L 29,99  L 29,98  L 34,98  L 34,97  Z  M 28,31  L 29,31  L 29,30  L 28,30  L 28,27  L 29,27  L 29,26  L 28,26  L 28,19  L 29,19  L 29,18  L 31,18  L 31,17  L 34,17  L 34,16  L 36,16  L 36,15  L 38,15  L 38,14  L 39,14  L 39,15  L 40,15  L 40,14  L 41,14  L 41,13  L 46,13  L 46,12  L 48,12  L 48,11  L 50,11  L 50,10  L 51,10  L 51,11  L 52,11  L 52,10  L 55,10  L 55,9  L 56,9  L 56,10  L 57,10  L 57,9  L 68,9  L 68,10  L 70,10  L 70,12  L 71,12  L 71,20  L 70,20  L 70,30  L 69,30  L 69,31  L 70,31  L 70,33  L 69,33  L 69,40  L 68,40  L 68,43  L 67,43  L 67,44  L 66,44  L 66,45  L 64,45  L 64,46  L 62,46  L 62,47  L 59,47  L 59,48  L 58,48  L 58,49  L 56,49  L 56,50  L 53,50  L 53,51  L 51,51  L 51,52  L 47,52  L 47,53  L 38,53  L 38,54  L 35,54  L 35,53  L 30,53  L 30,52  L 29,52  L 29,51  L 28,51  Z  " style="fill:rgb(0, 0, 0); fill-opacity:1.000; stroke:none;" />
 <path d="  M 27,135  L 27,133  L 26,133  L 26,129  L 27,129  L 27,128  L 28,128  L 28,117  L 29,117  L 29,113  L 30,113  L 30,107  L 29,107  L 29,106  L 25,106  L 25,107  L 23,107  L 23,109  L 22,109  L 22,112  L 21,112  L 21,122  L 20,122  L 20,171  L 21,171  L 21,172  L 20,172  L 20,173  L 21,173  L 21,177  L 22,177  L 22,179  L 23,179  L 23,180  L 24,180  L 24,181  L 25,181  L 25,182  L 26,182  L 26,183  L 27,183  L 27,184  L 28,184  L 28,185  L 30,185  L 30,186  L 40,186  L 40,185  L 44,185  L 44,184  L 45,184  L 45,185  L 46,185  L 46,184  L 50,184  L 50,183  L 55,183  L 55,182  L 62,182  L 62,181  L 66,181  L 66,180  L 67,180  L 67,181  L 68,181  L 68,180  L 70,180  L 70,179  L 72,179  L 72,178  L 74,178  L 74,177  L 76,177  L 76,175  L 77,175  L 77,174  L 78,174  L 78,167  L 79,167  L 79,161  L 78,161  L 78,160  L 79,160  L 79,152  L 80,152  L 80,149  L 81,149  L 81,144  L 82,144  L 82,140  L 83,140  L 83,135  L 84,135  L 84,134  L 83,134  L 83,120  L 82,120  L 82,113  L 81,113  L 81,112  L 82,112  L 82,110  L 81,110  L 81,109  L 80,109  L 80,108  L 76,108  L 76,110  L 75,110  L 75,111  L 76,111  L 76,127  L 75,127  L 75,128  L 76,128  L 76,130  L 77,130  L 77,134  L 76,134  L 76,135  L 71,135  L 71,136  L 63,136  L 63,137  L 62,137  L 62,136  L 61,136  L 61,137  L 50,137  L 50,138  L 49,138  L 49,137  L 48,137  L 48,138  L 47,138  L 47,137  L 42,137  L 42,138  L 41,138  L 41,137  L 38,137  L 38,136  L 37,136  L 37,137  L 34,137  L 34,136  L 30,136  L 30,135  Z  M 60,174  L 60,175  L 54,175  L 54,176  L 49,176  L 49,177  L 47,177  L 47,178  L 45,178  L 45,177  L 44,177  L 44,178  L 39,178  L 39,179  L 38,179  L 38,178  L 34,178  L 34,177  L 32,177  L 32,176  L 30,176  L 30,175  L 29,175  L 29,174  L 28,174  L 28,173  L 27,173  L 27,170  L 26,170  L 26,166  L 27,166  L 27,143  L 30,143  L 30,145  L 31,145  L 31,144  L 32,144  L 32,143  L 33,143  L 33,144  L 36,144  L 36,145  L 38,145  L 38,144  L 39,144  L 39,145  L 50,145  L 50,144  L 51,144  L 51,145  L 52,145  L 52,144  L 53,144  L 53,145  L 54,145  L 54,144  L 55,144  L 55,145  L 56,145  L 56,144  L 60,144  L 60,143  L 73,143  L 73,150  L 72,150  L 72,151  L 73,151  L 73,152  L 72,152  L 72,157  L 71,157  L 71,163  L 72,163  L 72,165  L 73,165  L 73,166  L 72,166  L 72,167  L 73,167  L 73,168  L 72,168  L 72,170  L 70,170  L 70,171  L 69,171  L 69,172  L 67,172  L 67,173  L 66,173  L 66,172  L 65,172  L 65,173  L 64,173  L 64,174  Z  " style="fill:rgb(0, 0, 0); fill-opacity:1.000; stroke:none;" />
</svg>
