<?xml version="1.0" encoding="UTF-8" standalone="no"?>
<!DOCTYPE svg PUBLIC "-//W3C//DTD SVG 1.1//EN" 
  "http://www.w3.org/Graphics/SVG/1.1/DTD/svg11.dtd">
<svg width="109" height="166"
     xmlns="http://www.w3.org/2000/svg" version="1.1">
 <path d="  M 82,95  L 82,94  L 83,94  L 83,95  L 86,95  L 86,94  L 87,94  L 87,95  L 89,95  L 89,94  L 90,94  L 90,95  L 94,95  L 94,94  L 95,94  L 95,95  L 97,95  L 97,94  L 98,94  L 98,88  L 97,88  L 97,87  L 96,87  L 96,86  L 81,86  L 81,87  L 80,87  L 80,86  L 77,86  L 77,87  L 76,87  L 76,86  L 60,86  L 60,87  L 57,87  L 57,86  L 56,86  L 56,85  L 57,85  L 57,83  L 56,83  L 56,75  L 57,75  L 57,74  L 56,74  L 56,71  L 57,71  L 57,70  L 56,70  L 56,69  L 57,69  L 57,68  L 56,68  L 56,67  L 57,67  L 57,66  L 56,66  L 56,65  L 57,65  L 57,64  L 56,64  L 56,63  L 57,63  L 57,62  L 56,62  L 56,59  L 57,59  L 57,58  L 56,58  L 56,55  L 57,55  L 57,52  L 58,52  L 58,51  L 66,51  L 66,50  L 70,50  L 70,49  L 71,49  L 71,47  L 72,47  L 72,46  L 73,46  L 73,44  L 74,44  L 74,43  L 76,43  L 76,41  L 77,41  L 77,39  L 78,39  L 78,38  L 77,38  L 77,36  L 78,36  L 78,29  L 79,29  L 79,19  L 80,19  L 80,18  L 79,18  L 79,15  L 80,15  L 80,14  L 79,14  L 79,13  L 80,13  L 80,6  L 79,6  L 79,4  L 78,4  L 78,3  L 77,3  L 77,2  L 75,2  L 75,1  L 69,1  L 69,2  L 56,2  L 56,3  L 45,3  L 45,4  L 37,4  L 37,5  L 32,5  L 32,6  L 31,6  L 31,7  L 29,7  L 29,8  L 27,8  L 27,9  L 26,9  L 26,10  L 25,10  L 25,44  L 26,44  L 26,47  L 27,47  L 27,49  L 28,49  L 28,51  L 30,51  L 30,52  L 31,52  L 31,53  L 34,53  L 34,54  L 45,54  L 45,53  L 46,53  L 46,54  L 48,54  L 48,71  L 49,71  L 49,72  L 48,72  L 48,83  L 49,83  L 49,84  L 48,84  L 48,88  L 44,88  L 44,89  L 34,89  L 34,90  L 29,90  L 29,91  L 26,91  L 26,90  L 25,90  L 25,91  L 22,91  L 22,92  L 15,92  L 15,93  L 14,93  L 14,92  L 11,92  L 11,93  L 10,93  L 10,92  L 3,92  L 3,93  L 1,93  L 1,96  L 0,96  L 0,97  L 1,97  L 1,99  L 6,99  L 6,100  L 11,100  L 11,99  L 23,99  L 23,98  L 24,98  L 24,99  L 25,99  L 25,98  L 28,98  L 28,97  L 29,97  L 29,98  L 30,98  L 30,97  L 34,97  L 34,96  L 42,96  L 42,95  L 54,95  L 54,94  L 55,94  L 55,95  L 58,95  L 58,94  L 59,94  L 59,95  L 61,95  L 61,94  L 63,94  L 63,95  L 65,95  L 65,94  L 68,94  L 68,95  L 69,95  L 69,94  L 71,94  L 71,95  L 73,95  L 73,94  L 75,94  L 75,95  L 78,95  L 78,94  L 79,94  L 79,95  Z  M 34,46  L 33,46  L 33,45  L 32,45  L 32,27  L 33,27  L 33,26  L 32,26  L 32,23  L 33,23  L 33,14  L 35,14  L 35,13  L 40,13  L 40,12  L 44,12  L 44,11  L 56,11  L 56,10  L 57,10  L 57,11  L 58,11  L 58,10  L 72,10  L 72,24  L 71,24  L 71,25  L 72,25  L 72,28  L 71,28  L 71,37  L 70,37  L 70,39  L 69,39  L 69,40  L 68,40  L 68,41  L 67,41  L 67,42  L 65,42  L 65,43  L 63,43  L 63,44  L 61,44  L 61,45  L 57,45  L 57,46  L 52,46  L 52,47  L 51,47  L 51,46  L 49,46  L 49,47  L 34,47  Z  " style="fill:rgb(0, 0, 0); fill-opacity:1.000; stroke:none;" />
 <path d="  M 72,142  L 70,142  L 70,141  L 69,141  L 69,140  L 67,140  L 67,139  L 66,139  L 66,138  L 65,138  L 65,137  L 62,137  L 62,136  L 61,136  L 61,135  L 60,135  L 60,134  L 58,134  L 58,133  L 56,133  L 56,132  L 55,132  L 55,131  L 54,131  L 54,130  L 53,130  L 53,128  L 52,128  L 52,127  L 53,127  L 53,124  L 54,124  L 54,123  L 56,123  L 56,121  L 57,121  L 57,119  L 58,119  L 58,117  L 59,117  L 59,116  L 62,116  L 62,115  L 63,115  L 63,114  L 64,114  L 64,113  L 65,113  L 65,112  L 66,112  L 66,110  L 67,110  L 67,106  L 65,106  L 65,105  L 63,105  L 63,104  L 62,104  L 62,105  L 61,105  L 61,106  L 60,106  L 60,107  L 58,107  L 58,108  L 57,108  L 57,110  L 56,110  L 56,111  L 55,111  L 55,112  L 54,112  L 54,113  L 52,113  L 52,114  L 50,114  L 50,116  L 49,116  L 49,118  L 48,118  L 48,120  L 47,120  L 47,121  L 46,121  L 46,122  L 45,122  L 45,124  L 44,124  L 44,125  L 43,125  L 43,126  L 42,126  L 42,128  L 41,128  L 41,129  L 40,129  L 40,130  L 39,130  L 39,131  L 38,131  L 38,132  L 37,132  L 37,133  L 36,133  L 36,134  L 35,134  L 35,135  L 34,135  L 34,136  L 33,136  L 33,138  L 32,138  L 32,139  L 31,139  L 31,140  L 30,140  L 30,142  L 29,142  L 29,143  L 28,143  L 28,144  L 27,144  L 27,145  L 26,145  L 26,147  L 25,147  L 25,148  L 24,148  L 24,149  L 23,149  L 23,150  L 22,150  L 22,151  L 21,151  L 21,152  L 20,152  L 20,154  L 19,154  L 19,155  L 18,155  L 18,156  L 16,156  L 16,158  L 15,158  L 15,159  L 14,159  L 14,160  L 13,160  L 13,162  L 12,162  L 12,166  L 19,166  L 19,165  L 20,165  L 20,164  L 22,164  L 22,163  L 23,163  L 23,162  L 24,162  L 24,161  L 25,161  L 25,160  L 26,160  L 26,159  L 27,159  L 27,158  L 28,158  L 28,157  L 29,157  L 29,156  L 30,156  L 30,154  L 32,154  L 32,153  L 33,153  L 33,151  L 34,151  L 34,150  L 35,150  L 35,149  L 36,149  L 36,147  L 37,147  L 37,146  L 38,146  L 38,145  L 39,145  L 39,144  L 40,144  L 40,142  L 41,142  L 41,141  L 42,141  L 42,140  L 43,140  L 43,139  L 44,139  L 44,137  L 46,137  L 46,136  L 47,136  L 47,137  L 49,137  L 49,138  L 51,138  L 51,139  L 52,139  L 52,140  L 55,140  L 55,141  L 56,141  L 56,142  L 58,142  L 58,143  L 59,143  L 59,144  L 60,144  L 60,145  L 62,145  L 62,146  L 63,146  L 63,147  L 65,147  L 65,148  L 67,148  L 67,149  L 69,149  L 69,150  L 71,150  L 71,151  L 73,151  L 73,152  L 76,152  L 76,153  L 79,153  L 79,154  L 82,154  L 82,155  L 85,155  L 85,156  L 89,156  L 89,157  L 90,157  L 90,158  L 92,158  L 92,159  L 94,159  L 94,162  L 93,162  L 93,163  L 92,163  L 92,165  L 93,165  L 93,166  L 101,166  L 101,165  L 104,165  L 104,164  L 106,164  L 106,163  L 107,163  L 107,162  L 108,162  L 108,161  L 109,161  L 109,157  L 107,157  L 107,156  L 100,156  L 100,155  L 97,155  L 97,154  L 96,154  L 96,153  L 94,153  L 94,152  L 91,152  L 91,151  L 89,151  L 89,150  L 87,150  L 87,149  L 84,149  L 84,148  L 82,148  L 82,147  L 81,147  L 81,146  L 78,146  L 78,145  L 76,145  L 76,144  L 73,144  L 73,143  L 72,143  Z  " style="fill:rgb(0, 0, 0); fill-opacity:1.000; stroke:none;" />
 <path d="  M 19,13  L 20,13  L 20,12  L 21,12  L 21,11  L 22,11  L 22,10  L 20,10  L 20,11  L 19,11  Z  " style="fill:rgb(0, 0, 0); fill-opacity:1.000; stroke:none;" />
</svg>
