<?xml version="1.0" encoding="UTF-8" standalone="no"?>
<!DOCTYPE svg PUBLIC "-//W3C//DTD SVG 1.1//EN" 
  "http://www.w3.org/Graphics/SVG/1.1/DTD/svg11.dtd">
<svg width="105" height="137"
     xmlns="http://www.w3.org/2000/svg" version="1.1">
 <path d="  M 14,3  L 14,4  L 12,4  L 12,5  L 8,5  L 8,6  L 7,6  L 7,5  L 5,5  L 5,6  L 4,6  L 4,7  L 2,7  L 2,8  L 0,8  L 0,12  L 2,12  L 2,13  L 4,13  L 4,12  L 7,12  L 7,13  L 9,13  L 9,26  L 8,26  L 8,43  L 9,43  L 9,46  L 10,46  L 10,47  L 12,47  L 12,48  L 21,48  L 21,49  L 22,49  L 22,48  L 30,48  L 30,47  L 31,47  L 31,48  L 32,48  L 32,50  L 31,50  L 31,51  L 32,51  L 32,69  L 33,69  L 33,70  L 32,70  L 32,71  L 27,71  L 27,70  L 26,70  L 26,71  L 19,71  L 19,72  L 9,72  L 9,73  L 7,73  L 7,72  L 6,72  L 6,73  L 4,73  L 4,72  L 3,72  L 3,73  L 1,73  L 1,74  L 0,74  L 0,75  L 1,75  L 1,79  L 9,79  L 9,78  L 15,78  L 15,77  L 23,77  L 23,76  L 24,76  L 24,77  L 26,77  L 26,76  L 29,76  L 29,77  L 30,77  L 30,76  L 37,76  L 37,77  L 38,77  L 38,76  L 53,76  L 53,75  L 54,75  L 54,76  L 55,76  L 55,75  L 69,75  L 69,74  L 70,74  L 70,69  L 67,69  L 67,68  L 54,68  L 54,69  L 51,69  L 51,68  L 50,68  L 50,69  L 48,69  L 48,68  L 45,68  L 45,69  L 44,69  L 44,68  L 43,68  L 43,69  L 40,69  L 40,68  L 39,68  L 39,62  L 38,62  L 38,46  L 39,46  L 39,45  L 42,45  L 42,44  L 44,44  L 44,43  L 46,43  L 46,42  L 47,42  L 47,41  L 48,41  L 48,40  L 49,40  L 49,39  L 51,39  L 51,38  L 52,38  L 52,37  L 53,37  L 53,31  L 54,31  L 54,26  L 55,26  L 55,21  L 56,21  L 56,14  L 57,14  L 57,8  L 56,8  L 56,5  L 55,5  L 55,4  L 54,4  L 54,3  L 53,3  L 53,1  L 52,1  L 52,2  L 51,2  L 51,1  L 42,1  L 42,2  L 41,2  L 41,1  L 39,1  L 39,2  L 16,2  L 16,3  Z  M 22,41  L 22,42  L 20,42  L 20,41  L 19,41  L 19,42  L 17,42  L 17,41  L 16,41  L 16,40  L 15,40  L 15,18  L 16,18  L 16,15  L 17,15  L 17,11  L 18,11  L 18,10  L 21,10  L 21,9  L 27,9  L 27,8  L 28,8  L 28,9  L 30,9  L 30,8  L 32,8  L 32,9  L 34,9  L 34,8  L 36,8  L 36,9  L 38,9  L 38,8  L 42,8  L 42,9  L 43,9  L 43,8  L 49,8  L 49,9  L 50,9  L 50,20  L 49,20  L 49,25  L 48,25  L 48,28  L 47,28  L 47,31  L 46,31  L 46,32  L 45,32  L 45,35  L 44,35  L 44,36  L 43,36  L 43,37  L 40,37  L 40,38  L 37,38  L 37,39  L 34,39  L 34,40  L 29,40  L 29,41  Z  " style="fill:rgb(0, 0, 0); fill-opacity:1.000; stroke:none;" />
 <path d="  M 86,99  L 85,99  L 85,98  L 84,98  L 84,97  L 83,97  L 83,96  L 80,96  L 80,95  L 67,95  L 67,94  L 62,94  L 62,93  L 55,93  L 55,92  L 53,92  L 53,93  L 50,93  L 50,94  L 48,94  L 48,95  L 47,95  L 47,97  L 46,97  L 46,98  L 45,98  L 45,99  L 44,99  L 44,100  L 43,100  L 43,101  L 42,101  L 42,103  L 41,103  L 41,105  L 40,105  L 40,107  L 39,107  L 39,109  L 38,109  L 38,110  L 37,110  L 37,112  L 36,112  L 36,115  L 35,115  L 35,116  L 34,116  L 34,119  L 33,119  L 33,120  L 32,120  L 32,126  L 33,126  L 33,129  L 34,129  L 34,131  L 35,131  L 35,132  L 37,132  L 37,133  L 38,133  L 38,134  L 40,134  L 40,135  L 44,135  L 44,136  L 50,136  L 50,137  L 63,137  L 63,136  L 67,136  L 67,135  L 71,135  L 71,134  L 73,134  L 73,133  L 75,133  L 75,132  L 76,132  L 76,133  L 77,133  L 77,132  L 78,132  L 78,131  L 80,131  L 80,130  L 82,130  L 82,129  L 83,129  L 83,128  L 84,128  L 84,127  L 85,127  L 85,126  L 86,126  L 86,125  L 87,125  L 87,124  L 88,124  L 88,122  L 89,122  L 89,121  L 90,121  L 90,106  L 89,106  L 89,104  L 88,104  L 88,101  L 87,101  L 87,100  L 86,100  Z  M 84,110  L 83,110  L 83,113  L 84,113  L 84,114  L 83,114  L 83,118  L 82,118  L 82,120  L 81,120  L 81,121  L 80,121  L 80,124  L 79,124  L 79,125  L 76,125  L 76,126  L 75,126  L 75,127  L 72,127  L 72,128  L 68,128  L 68,129  L 63,129  L 63,130  L 62,130  L 62,129  L 61,129  L 61,130  L 47,130  L 47,129  L 44,129  L 44,128  L 42,128  L 42,127  L 41,127  L 41,126  L 40,126  L 40,125  L 39,125  L 39,121  L 40,121  L 40,119  L 41,119  L 41,116  L 42,116  L 42,114  L 43,114  L 43,112  L 44,112  L 44,111  L 45,111  L 45,109  L 46,109  L 46,107  L 47,107  L 47,106  L 48,106  L 48,105  L 50,105  L 50,104  L 51,104  L 51,103  L 52,103  L 52,102  L 54,102  L 54,101  L 66,101  L 66,102  L 77,102  L 77,103  L 79,103  L 79,104  L 80,104  L 80,105  L 81,105  L 81,106  L 82,106  L 82,107  L 83,107  L 83,109  L 84,109  Z  " style="fill:rgb(0, 0, 0); fill-opacity:1.000; stroke:none;" />
 <path d="  M 81,24  L 80,24  L 80,19  L 79,19  L 79,17  L 78,17  L 78,12  L 77,12  L 77,11  L 78,11  L 78,10  L 77,10  L 77,7  L 76,7  L 76,5  L 77,5  L 77,4  L 76,4  L 76,2  L 75,2  L 75,1  L 73,1  L 73,0  L 71,0  L 71,2  L 70,2  L 70,11  L 71,11  L 71,12  L 70,12  L 70,13  L 71,13  L 71,16  L 72,16  L 72,19  L 73,19  L 73,22  L 74,22  L 74,31  L 75,31  L 75,57  L 76,57  L 76,75  L 77,75  L 77,84  L 78,84  L 78,85  L 79,85  L 79,86  L 84,86  L 84,78  L 83,78  L 83,68  L 82,68  L 82,45  L 83,45  L 83,44  L 87,44  L 87,43  L 89,43  L 89,42  L 90,42  L 90,43  L 93,43  L 93,42  L 105,42  L 105,37  L 103,37  L 103,36  L 90,36  L 90,37  L 86,37  L 86,38  L 84,38  L 84,37  L 83,37  L 83,38  L 82,38  L 82,37  L 81,37  Z  " style="fill:rgb(0, 0, 0); fill-opacity:1.000; stroke:none;" />
</svg>
