<?xml version="1.0" encoding="UTF-8" standalone="no"?>
<!DOCTYPE svg PUBLIC "-//W3C//DTD SVG 1.1//EN" 
  "http://www.w3.org/Graphics/SVG/1.1/DTD/svg11.dtd">
<svg width="103" height="131"
     xmlns="http://www.w3.org/2000/svg" version="1.1">
 <path d="  M 86,86  L 85,86  L 85,85  L 84,85  L 84,84  L 81,84  L 81,85  L 80,85  L 80,86  L 78,86  L 78,87  L 77,87  L 77,88  L 75,88  L 75,89  L 71,89  L 71,90  L 68,90  L 68,91  L 65,91  L 65,92  L 64,92  L 64,91  L 63,91  L 63,92  L 59,92  L 59,93  L 54,93  L 54,94  L 46,94  L 46,93  L 45,93  L 45,69  L 46,69  L 46,68  L 48,68  L 48,67  L 49,67  L 49,68  L 50,68  L 50,67  L 51,67  L 51,66  L 59,66  L 59,65  L 61,65  L 61,64  L 63,64  L 63,63  L 65,63  L 65,62  L 66,62  L 66,58  L 67,58  L 67,57  L 66,57  L 66,51  L 65,51  L 65,50  L 66,50  L 66,49  L 65,49  L 65,46  L 66,46  L 66,45  L 65,45  L 65,42  L 66,42  L 66,41  L 65,41  L 65,40  L 66,40  L 66,26  L 67,26  L 67,25  L 66,25  L 66,21  L 64,21  L 64,20  L 62,20  L 62,19  L 53,19  L 53,20  L 52,20  L 52,19  L 50,19  L 50,20  L 42,20  L 42,21  L 34,21  L 34,22  L 32,22  L 32,21  L 31,21  L 31,22  L 22,22  L 22,23  L 11,23  L 11,24  L 8,24  L 8,25  L 7,25  L 7,24  L 6,24  L 6,25  L 3,25  L 3,26  L 2,26  L 2,27  L 3,27  L 3,28  L 4,28  L 4,27  L 5,27  L 5,28  L 6,28  L 6,30  L 7,30  L 7,58  L 8,58  L 8,64  L 9,64  L 9,70  L 10,70  L 10,73  L 11,73  L 11,74  L 13,74  L 13,73  L 18,73  L 18,72  L 23,72  L 23,71  L 32,71  L 32,70  L 39,70  L 39,97  L 38,97  L 38,98  L 34,98  L 34,99  L 31,99  L 31,100  L 26,100  L 26,101  L 19,101  L 19,102  L 13,102  L 13,103  L 5,103  L 5,104  L 2,104  L 2,105  L 1,105  L 1,110  L 4,110  L 4,111  L 5,111  L 5,110  L 11,110  L 11,109  L 17,109  L 17,108  L 23,108  L 23,107  L 27,107  L 27,106  L 31,106  L 31,105  L 36,105  L 36,104  L 39,104  L 39,103  L 42,103  L 42,102  L 45,102  L 45,101  L 51,101  L 51,100  L 56,100  L 56,99  L 61,99  L 61,98  L 65,98  L 65,97  L 70,97  L 70,96  L 72,96  L 72,95  L 74,95  L 74,94  L 76,94  L 76,93  L 79,93  L 79,92  L 81,92  L 81,91  L 82,91  L 82,90  L 85,90  L 85,89  L 86,89  Z  M 16,66  L 16,62  L 15,62  L 15,56  L 14,56  L 14,45  L 13,45  L 13,44  L 14,44  L 14,41  L 13,41  L 13,40  L 14,40  L 14,34  L 15,34  L 15,32  L 16,32  L 16,31  L 17,31  L 17,30  L 23,30  L 23,29  L 31,29  L 31,28  L 38,28  L 38,27  L 44,27  L 44,26  L 45,26  L 45,27  L 46,27  L 46,26  L 59,26  L 59,52  L 58,52  L 58,58  L 57,58  L 57,59  L 56,59  L 56,60  L 52,60  L 52,61  L 49,61  L 49,62  L 48,62  L 48,61  L 47,61  L 47,62  L 44,62  L 44,63  L 39,63  L 39,64  L 33,64  L 33,65  L 27,65  L 27,66  L 24,66  L 24,65  L 23,65  L 23,66  L 20,66  L 20,67  L 17,67  L 17,66  Z  " style="fill:rgb(0, 0, 0); fill-opacity:1.000; stroke:none;" />
 <path d="  M 94,19  L 94,23  L 95,23  L 95,29  L 96,29  L 96,39  L 97,39  L 97,112  L 96,112  L 96,113  L 97,113  L 97,116  L 96,116  L 96,117  L 97,117  L 97,119  L 96,119  L 96,131  L 102,131  L 102,124  L 103,124  L 103,33  L 102,33  L 102,32  L 103,32  L 103,31  L 102,31  L 102,25  L 101,25  L 101,19  L 100,19  L 100,16  L 99,16  L 99,12  L 98,12  L 98,7  L 97,7  L 97,4  L 96,4  L 96,1  L 94,1  L 94,0  L 91,0  L 91,1  L 89,1  L 89,5  L 90,5  L 90,9  L 91,9  L 91,13  L 92,13  L 92,15  L 93,15  L 93,19  Z  " style="fill:rgb(0, 0, 0); fill-opacity:1.000; stroke:none;" />
</svg>
