<?xml version="1.0" encoding="UTF-8" standalone="no"?>
<!DOCTYPE svg PUBLIC "-//W3C//DTD SVG 1.1//EN" 
  "http://www.w3.org/Graphics/SVG/1.1/DTD/svg11.dtd">
<svg width="104" height="151"
     xmlns="http://www.w3.org/2000/svg" version="1.1">
 <path d="  M 61,43  L 61,42  L 59,42  L 59,41  L 58,41  L 58,32  L 59,32  L 59,26  L 60,26  L 60,22  L 61,22  L 61,14  L 60,14  L 60,11  L 59,11  L 59,10  L 58,10  L 58,9  L 57,9  L 57,8  L 56,8  L 56,7  L 55,7  L 55,6  L 49,6  L 49,5  L 48,5  L 48,6  L 41,6  L 41,5  L 40,5  L 40,6  L 20,6  L 20,5  L 19,5  L 19,6  L 15,6  L 15,7  L 12,7  L 12,8  L 10,8  L 10,9  L 7,9  L 7,10  L 6,10  L 6,12  L 4,12  L 4,11  L 3,11  L 3,12  L 2,12  L 2,13  L 1,13  L 1,14  L 0,14  L 0,17  L 3,17  L 3,16  L 4,16  L 4,17  L 5,17  L 5,16  L 9,16  L 9,17  L 10,17  L 10,18  L 9,18  L 9,27  L 8,27  L 8,28  L 9,28  L 9,30  L 8,30  L 8,44  L 9,44  L 9,47  L 10,47  L 10,48  L 11,48  L 11,49  L 12,49  L 12,50  L 13,50  L 13,49  L 15,49  L 15,50  L 16,50  L 16,51  L 17,51  L 17,50  L 20,50  L 20,51  L 36,51  L 36,62  L 37,62  L 37,63  L 36,63  L 36,64  L 37,64  L 37,75  L 38,75  L 38,82  L 36,82  L 36,83  L 18,83  L 18,84  L 9,84  L 9,85  L 6,85  L 6,86  L 4,86  L 4,87  L 2,87  L 2,89  L 1,89  L 1,91  L 2,91  L 2,92  L 3,92  L 3,93  L 8,93  L 8,92  L 12,92  L 12,91  L 13,91  L 13,92  L 14,92  L 14,91  L 20,91  L 20,90  L 21,90  L 21,91  L 22,91  L 22,90  L 31,90  L 31,89  L 39,89  L 39,88  L 42,88  L 42,89  L 43,89  L 43,88  L 51,88  L 51,87  L 53,87  L 53,88  L 54,88  L 54,87  L 60,87  L 60,86  L 61,86  L 61,87  L 62,87  L 62,86  L 67,86  L 67,85  L 72,85  L 72,84  L 75,84  L 75,83  L 76,83  L 76,82  L 77,82  L 77,81  L 79,81  L 79,80  L 80,80  L 80,79  L 81,79  L 81,78  L 82,78  L 82,77  L 83,77  L 83,74  L 82,74  L 82,73  L 78,73  L 78,74  L 77,74  L 77,75  L 75,75  L 75,76  L 73,76  L 73,77  L 71,77  L 71,78  L 67,78  L 67,79  L 63,79  L 63,80  L 54,80  L 54,81  L 53,81  L 53,80  L 51,80  L 51,81  L 46,81  L 46,80  L 45,80  L 45,74  L 44,74  L 44,73  L 45,73  L 45,72  L 44,72  L 44,69  L 45,69  L 45,68  L 44,68  L 44,65  L 45,65  L 45,64  L 44,64  L 44,52  L 45,52  L 45,51  L 46,51  L 46,50  L 48,50  L 48,49  L 51,49  L 51,48  L 53,48  L 53,47  L 54,47  L 54,46  L 55,46  L 55,47  L 56,47  L 56,46  L 62,46  L 62,45  L 63,45  L 63,44  L 62,44  L 62,43  Z  M 22,44  L 22,43  L 17,43  L 17,42  L 16,42  L 16,36  L 15,36  L 15,28  L 16,28  L 16,25  L 17,25  L 17,24  L 16,24  L 16,23  L 17,23  L 17,20  L 18,20  L 18,15  L 19,15  L 19,14  L 22,14  L 22,13  L 52,13  L 52,14  L 53,14  L 53,15  L 54,15  L 54,19  L 53,19  L 53,20  L 54,20  L 54,21  L 53,21  L 53,25  L 52,25  L 52,31  L 51,31  L 51,37  L 50,37  L 50,39  L 49,39  L 49,41  L 48,41  L 48,42  L 47,42  L 47,43  L 42,43  L 42,44  Z  " style="fill:rgb(0, 0, 0); fill-opacity:1.000; stroke:none;" />
 <path d="  M 59,151  L 59,150  L 66,150  L 66,149  L 76,149  L 76,148  L 83,148  L 83,147  L 84,147  L 84,148  L 85,148  L 85,147  L 92,147  L 92,146  L 99,146  L 99,145  L 103,145  L 103,144  L 104,144  L 104,137  L 101,137  L 101,138  L 97,138  L 97,139  L 92,139  L 92,140  L 85,140  L 85,141  L 84,141  L 84,140  L 83,140  L 83,141  L 76,141  L 76,142  L 67,142  L 67,143  L 62,143  L 62,144  L 61,144  L 61,143  L 60,143  L 60,144  L 55,144  L 55,145  L 52,145  L 52,144  L 51,144  L 51,145  L 42,145  L 42,144  L 41,144  L 41,141  L 40,141  L 40,128  L 41,128  L 41,126  L 40,126  L 40,125  L 41,125  L 41,112  L 42,112  L 42,108  L 40,108  L 40,107  L 36,107  L 36,108  L 35,108  L 35,109  L 34,109  L 34,116  L 33,116  L 33,123  L 32,123  L 32,124  L 33,124  L 33,127  L 32,127  L 32,130  L 33,130  L 33,131  L 32,131  L 32,133  L 33,133  L 33,135  L 32,135  L 32,137  L 33,137  L 33,139  L 32,139  L 32,140  L 33,140  L 33,143  L 34,143  L 34,148  L 35,148  L 35,149  L 36,149  L 36,150  L 37,150  L 37,151  Z  " style="fill:rgb(0, 0, 0); fill-opacity:1.000; stroke:none;" />
 <path d="  M 95,17  L 95,12  L 94,12  L 94,4  L 93,4  L 93,1  L 92,1  L 92,0  L 88,0  L 88,2  L 87,2  L 87,13  L 88,13  L 88,16  L 89,16  L 89,21  L 90,21  L 90,25  L 91,25  L 91,32  L 92,32  L 92,39  L 93,39  L 93,48  L 94,48  L 94,50  L 93,50  L 93,51  L 94,51  L 94,66  L 95,66  L 95,68  L 94,68  L 94,69  L 95,69  L 95,72  L 94,72  L 94,73  L 95,73  L 95,76  L 94,76  L 94,77  L 95,77  L 95,80  L 94,80  L 94,81  L 95,81  L 95,84  L 94,84  L 94,85  L 95,85  L 95,88  L 94,88  L 94,89  L 95,89  L 95,92  L 94,92  L 94,93  L 95,93  L 95,95  L 94,95  L 94,97  L 95,97  L 95,103  L 96,103  L 96,104  L 97,104  L 97,103  L 100,103  L 100,102  L 101,102  L 101,52  L 100,52  L 100,51  L 101,51  L 101,50  L 100,50  L 100,40  L 99,40  L 99,34  L 98,34  L 98,28  L 97,28  L 97,27  L 98,27  L 98,26  L 97,26  L 97,22  L 96,22  L 96,17  Z  " style="fill:rgb(0, 0, 0); fill-opacity:1.000; stroke:none;" />
</svg>
