<?xml version="1.0" encoding="UTF-8" standalone="no"?>
<!DOCTYPE svg PUBLIC "-//W3C//DTD SVG 1.1//EN" 
  "http://www.w3.org/Graphics/SVG/1.1/DTD/svg11.dtd">
<svg width="112" height="151"
     xmlns="http://www.w3.org/2000/svg" version="1.1">
 <path d="  M 11,37  L 10,37  L 10,38  L 11,38  L 11,41  L 10,41  L 10,42  L 11,42  L 11,47  L 12,47  L 12,48  L 13,48  L 13,49  L 15,49  L 15,50  L 18,50  L 18,51  L 31,51  L 31,50  L 32,50  L 32,51  L 33,51  L 33,50  L 34,50  L 34,51  L 36,51  L 36,76  L 35,76  L 35,77  L 26,77  L 26,78  L 23,78  L 23,77  L 22,77  L 22,78  L 16,78  L 16,79  L 9,79  L 9,80  L 2,80  L 2,81  L 1,81  L 1,82  L 0,82  L 0,86  L 1,86  L 1,87  L 5,87  L 5,86  L 10,86  L 10,85  L 16,85  L 16,84  L 23,84  L 23,83  L 31,83  L 31,82  L 32,82  L 32,83  L 33,83  L 33,82  L 40,82  L 40,81  L 41,81  L 41,82  L 42,82  L 42,81  L 45,81  L 45,82  L 46,82  L 46,81  L 49,81  L 49,82  L 50,82  L 50,81  L 53,81  L 53,82  L 54,82  L 54,81  L 67,81  L 67,80  L 68,80  L 68,81  L 69,81  L 69,80  L 76,80  L 76,81  L 77,81  L 77,80  L 81,80  L 81,79  L 82,79  L 82,74  L 81,74  L 81,73  L 79,73  L 79,72  L 78,72  L 78,73  L 70,73  L 70,74  L 63,74  L 63,75  L 46,75  L 46,76  L 45,76  L 45,75  L 43,75  L 43,51  L 44,51  L 44,50  L 46,50  L 46,49  L 50,49  L 50,48  L 52,48  L 52,49  L 53,49  L 53,48  L 57,48  L 57,47  L 59,47  L 59,46  L 60,46  L 60,44  L 61,44  L 61,43  L 62,43  L 62,35  L 63,35  L 63,28  L 64,28  L 64,22  L 65,22  L 65,21  L 64,21  L 64,19  L 65,19  L 65,12  L 66,12  L 66,9  L 65,9  L 65,8  L 66,8  L 66,7  L 65,7  L 65,4  L 64,4  L 64,3  L 63,3  L 63,2  L 62,2  L 62,1  L 59,1  L 59,0  L 58,0  L 58,1  L 57,1  L 57,0  L 56,0  L 56,1  L 38,1  L 38,2  L 35,2  L 35,1  L 34,1  L 34,2  L 31,2  L 31,1  L 30,1  L 30,2  L 16,2  L 16,3  L 15,3  L 15,4  L 14,4  L 14,5  L 10,5  L 10,6  L 5,6  L 5,7  L 4,7  L 4,8  L 3,8  L 3,9  L 2,9  L 2,10  L 1,10  L 1,12  L 3,12  L 3,13  L 6,13  L 6,12  L 10,12  L 10,11  L 13,11  L 13,17  L 12,17  L 12,18  L 13,18  L 13,19  L 12,19  L 12,28  L 11,28  Z  M 18,30  L 19,30  L 19,29  L 18,29  L 18,28  L 19,28  L 19,22  L 20,22  L 20,17  L 21,17  L 21,11  L 22,11  L 22,10  L 23,10  L 23,9  L 27,9  L 27,8  L 47,8  L 47,7  L 48,7  L 48,8  L 49,8  L 49,7  L 55,7  L 55,8  L 56,8  L 56,7  L 57,7  L 57,8  L 58,8  L 58,9  L 59,9  L 59,11  L 58,11  L 58,23  L 57,23  L 57,24  L 58,24  L 58,25  L 57,25  L 57,31  L 56,31  L 56,38  L 55,38  L 55,40  L 54,40  L 54,41  L 53,41  L 53,42  L 49,42  L 49,43  L 44,43  L 44,44  L 43,44  L 43,43  L 41,43  L 41,44  L 21,44  L 21,43  L 19,43  L 19,42  L 18,42  Z  " style="fill:rgb(0, 0, 0); fill-opacity:1.000; stroke:none;" />
 <path d="  M 71,99  L 72,99  L 72,98  L 73,98  L 73,97  L 72,97  L 72,96  L 71,96  L 71,95  L 70,95  L 70,94  L 67,94  L 67,96  L 64,96  L 64,97  L 63,97  L 63,98  L 62,98  L 62,99  L 61,99  L 61,100  L 60,100  L 60,102  L 59,102  L 59,104  L 58,104  L 58,105  L 57,105  L 57,106  L 56,106  L 56,108  L 55,108  L 55,110  L 54,110  L 54,111  L 53,111  L 53,113  L 52,113  L 52,115  L 51,115  L 51,117  L 50,117  L 50,118  L 49,118  L 49,119  L 48,119  L 48,121  L 47,121  L 47,122  L 46,122  L 46,123  L 45,123  L 45,125  L 44,125  L 44,126  L 43,126  L 43,128  L 42,128  L 42,129  L 41,129  L 41,130  L 40,130  L 40,131  L 39,131  L 39,134  L 38,134  L 38,135  L 37,135  L 37,136  L 36,136  L 36,138  L 34,138  L 34,139  L 33,139  L 33,140  L 32,140  L 32,142  L 31,142  L 31,143  L 30,143  L 30,145  L 29,145  L 29,146  L 28,146  L 28,150  L 29,150  L 29,151  L 36,151  L 36,149  L 37,149  L 37,148  L 38,148  L 38,147  L 39,147  L 39,145  L 40,145  L 40,144  L 41,144  L 41,142  L 42,142  L 42,141  L 43,141  L 43,139  L 44,139  L 44,138  L 45,138  L 45,136  L 46,136  L 46,135  L 47,135  L 47,134  L 48,134  L 48,133  L 49,133  L 49,131  L 50,131  L 50,130  L 51,130  L 51,128  L 52,128  L 52,127  L 53,127  L 53,125  L 54,125  L 54,124  L 55,124  L 55,123  L 56,123  L 56,121  L 57,121  L 57,119  L 58,119  L 58,118  L 60,118  L 60,119  L 61,119  L 61,121  L 62,121  L 62,122  L 63,122  L 63,123  L 65,123  L 65,124  L 68,124  L 68,125  L 69,125  L 69,126  L 71,126  L 71,127  L 72,127  L 72,128  L 74,128  L 74,129  L 75,129  L 75,130  L 77,130  L 77,131  L 79,131  L 79,132  L 80,132  L 80,133  L 82,133  L 82,134  L 85,134  L 85,135  L 87,135  L 87,136  L 89,136  L 89,137  L 92,137  L 92,138  L 94,138  L 94,139  L 95,139  L 95,140  L 97,140  L 97,141  L 99,141  L 99,143  L 101,143  L 101,144  L 102,144  L 102,145  L 104,145  L 104,146  L 107,146  L 107,147  L 108,147  L 108,148  L 111,148  L 111,147  L 112,147  L 112,143  L 111,143  L 111,142  L 110,142  L 110,141  L 109,141  L 109,140  L 108,140  L 108,139  L 106,139  L 106,138  L 105,138  L 105,137  L 104,137  L 104,136  L 103,136  L 103,135  L 101,135  L 101,134  L 99,134  L 99,133  L 97,133  L 97,132  L 95,132  L 95,131  L 93,131  L 93,130  L 91,130  L 91,129  L 88,129  L 88,128  L 87,128  L 87,127  L 85,127  L 85,126  L 83,126  L 83,125  L 81,125  L 81,124  L 79,124  L 79,123  L 78,123  L 78,122  L 75,122  L 75,121  L 74,121  L 74,120  L 73,120  L 73,119  L 71,119  L 71,118  L 69,118  L 69,117  L 68,117  L 68,116  L 67,116  L 67,115  L 66,115  L 66,114  L 65,114  L 65,113  L 64,113  L 64,111  L 63,111  L 63,109  L 64,109  L 64,108  L 65,108  L 65,106  L 66,106  L 66,105  L 67,105  L 67,104  L 68,104  L 68,103  L 69,103  L 69,102  L 70,102  L 70,101  L 71,101  Z  " style="fill:rgb(0, 0, 0); fill-opacity:1.000; stroke:none;" />
 <path d="  M 102,86  L 103,86  L 103,85  L 102,85  L 102,83  L 103,83  L 103,64  L 104,64  L 104,63  L 103,63  L 103,62  L 104,62  L 104,61  L 103,61  L 103,60  L 104,60  L 104,43  L 103,43  L 103,42  L 104,42  L 104,39  L 103,39  L 103,27  L 102,27  L 102,1  L 101,1  L 101,0  L 98,0  L 98,1  L 96,1  L 96,30  L 97,30  L 97,31  L 96,31  L 96,32  L 97,32  L 97,71  L 96,71  L 96,87  L 95,87  L 95,93  L 96,93  L 96,94  L 100,94  L 100,92  L 101,92  L 101,90  L 102,90  Z  " style="fill:rgb(0, 0, 0); fill-opacity:1.000; stroke:none;" />
</svg>
