<?xml version="1.0" encoding="UTF-8" standalone="no"?>
<!DOCTYPE svg PUBLIC "-//W3C//DTD SVG 1.1//EN" 
  "http://www.w3.org/Graphics/SVG/1.1/DTD/svg11.dtd">
<svg width="111" height="163"
     xmlns="http://www.w3.org/2000/svg" version="1.1">
 <path d="  M 43,68  L 44,68  L 44,65  L 43,65  L 43,64  L 44,64  L 44,49  L 57,49  L 57,48  L 62,48  L 62,47  L 64,47  L 64,49  L 63,49  L 63,50  L 62,50  L 62,53  L 63,53  L 63,54  L 62,54  L 62,82  L 61,82  L 61,83  L 44,83  L 44,80  L 43,80  L 43,72  L 44,72  L 44,71  L 43,71  Z  M 34,91  L 37,91  L 37,92  L 38,92  L 38,91  L 44,91  L 44,90  L 45,90  L 45,91  L 47,91  L 47,90  L 50,90  L 50,91  L 51,91  L 51,90  L 54,90  L 54,91  L 55,91  L 55,90  L 79,90  L 79,89  L 80,89  L 80,90  L 81,90  L 81,89  L 90,89  L 90,88  L 92,88  L 92,89  L 94,89  L 94,88  L 96,88  L 96,89  L 98,89  L 98,88  L 101,88  L 101,87  L 102,87  L 102,86  L 103,86  L 103,85  L 104,85  L 104,83  L 103,83  L 103,81  L 102,81  L 102,80  L 94,80  L 94,81  L 85,81  L 85,82  L 83,82  L 83,81  L 82,81  L 82,82  L 70,82  L 70,80  L 69,80  L 69,78  L 70,78  L 70,59  L 71,59  L 71,50  L 72,50  L 72,46  L 73,46  L 73,44  L 72,44  L 72,42  L 73,42  L 73,41  L 74,41  L 74,39  L 75,39  L 75,38  L 76,38  L 76,37  L 77,37  L 77,34  L 78,34  L 78,33  L 79,33  L 79,29  L 80,29  L 80,24  L 81,24  L 81,23  L 80,23  L 80,20  L 81,20  L 81,19  L 80,19  L 80,16  L 81,16  L 81,15  L 80,15  L 80,14  L 81,14  L 81,6  L 80,6  L 80,4  L 79,4  L 79,2  L 77,2  L 77,1  L 69,1  L 69,2  L 68,2  L 68,1  L 62,1  L 62,2  L 61,2  L 61,1  L 58,1  L 58,2  L 56,2  L 56,1  L 55,1  L 55,2  L 40,2  L 40,3  L 32,3  L 32,4  L 28,4  L 28,5  L 27,5  L 27,6  L 26,6  L 26,7  L 25,7  L 25,6  L 23,6  L 23,5  L 20,5  L 20,7  L 19,7  L 19,8  L 17,8  L 17,9  L 14,9  L 14,13  L 15,13  L 15,14  L 19,14  L 19,13  L 21,13  L 21,12  L 22,12  L 22,11  L 23,11  L 23,10  L 24,10  L 24,14  L 25,14  L 25,22  L 24,22  L 24,23  L 25,23  L 25,25  L 24,25  L 24,26  L 25,26  L 25,27  L 24,27  L 24,28  L 25,28  L 25,29  L 24,29  L 24,30  L 25,30  L 25,40  L 26,40  L 26,43  L 27,43  L 27,44  L 28,44  L 28,45  L 29,45  L 29,47  L 31,47  L 31,48  L 35,48  L 35,49  L 37,49  L 37,58  L 36,58  L 36,60  L 37,60  L 37,61  L 36,61  L 36,77  L 35,77  L 35,78  L 36,78  L 36,80  L 35,80  L 35,81  L 36,81  L 36,84  L 32,84  L 32,85  L 26,85  L 26,86  L 17,86  L 17,87  L 10,87  L 10,88  L 7,88  L 7,87  L 6,87  L 6,88  L 2,88  L 2,89  L 1,89  L 1,91  L 0,91  L 0,94  L 2,94  L 2,95  L 4,95  L 4,96  L 6,96  L 6,95  L 7,95  L 7,96  L 8,96  L 8,95  L 9,95  L 9,94  L 10,94  L 10,95  L 11,95  L 11,94  L 17,94  L 17,93  L 23,93  L 23,92  L 24,92  L 24,93  L 26,93  L 26,92  L 34,92  Z  M 32,41  L 32,36  L 31,36  L 31,35  L 32,35  L 32,34  L 31,34  L 31,31  L 32,31  L 32,19  L 33,19  L 33,12  L 34,12  L 34,11  L 39,11  L 39,10  L 47,10  L 47,9  L 64,9  L 64,8  L 72,8  L 72,9  L 73,9  L 73,11  L 74,11  L 74,15  L 73,15  L 73,25  L 72,25  L 72,26  L 73,26  L 73,29  L 72,29  L 72,33  L 71,33  L 71,34  L 70,34  L 70,35  L 69,35  L 69,36  L 68,36  L 68,37  L 67,37  L 67,38  L 65,38  L 65,39  L 62,39  L 62,40  L 60,40  L 60,41  L 54,41  L 54,42  L 34,42  L 34,41  Z  " style="fill:rgb(0, 0, 0); fill-opacity:1.000; stroke:none;" />
 <path d="  M 94,147  L 92,147  L 92,146  L 89,146  L 89,145  L 87,145  L 87,144  L 84,144  L 84,143  L 82,143  L 82,142  L 79,142  L 79,141  L 77,141  L 77,140  L 75,140  L 75,139  L 73,139  L 73,138  L 71,138  L 71,137  L 69,137  L 69,136  L 67,136  L 67,135  L 66,135  L 66,134  L 64,134  L 64,133  L 63,133  L 63,132  L 62,132  L 62,131  L 60,131  L 60,130  L 58,130  L 58,129  L 57,129  L 57,128  L 56,128  L 56,127  L 55,127  L 55,124  L 56,124  L 56,122  L 57,122  L 57,121  L 58,121  L 58,120  L 59,120  L 59,118  L 60,118  L 60,117  L 61,117  L 61,116  L 63,116  L 63,114  L 65,114  L 65,113  L 67,113  L 67,112  L 69,112  L 69,110  L 70,110  L 70,109  L 71,109  L 71,107  L 73,107  L 73,102  L 72,102  L 72,101  L 71,101  L 71,100  L 66,100  L 66,101  L 65,101  L 65,102  L 64,102  L 64,105  L 62,105  L 62,106  L 61,106  L 61,107  L 59,107  L 59,109  L 58,109  L 58,110  L 56,110  L 56,111  L 54,111  L 54,112  L 53,112  L 53,113  L 52,113  L 52,114  L 51,114  L 51,115  L 50,115  L 50,117  L 49,117  L 49,118  L 48,118  L 48,119  L 47,119  L 47,121  L 46,121  L 46,122  L 45,122  L 45,123  L 44,123  L 44,124  L 43,124  L 43,126  L 41,126  L 41,127  L 40,127  L 40,128  L 39,128  L 39,129  L 38,129  L 38,130  L 37,130  L 37,132  L 36,132  L 36,133  L 35,133  L 35,134  L 34,134  L 34,135  L 33,135  L 33,136  L 32,136  L 32,137  L 31,137  L 31,138  L 30,138  L 30,140  L 29,140  L 29,141  L 28,141  L 28,142  L 27,142  L 27,143  L 26,143  L 26,145  L 25,145  L 25,146  L 24,146  L 24,147  L 23,147  L 23,148  L 22,148  L 22,149  L 21,149  L 21,150  L 20,150  L 20,152  L 19,152  L 19,153  L 18,153  L 18,154  L 17,154  L 17,155  L 16,155  L 16,157  L 15,157  L 15,161  L 14,161  L 14,162  L 16,162  L 16,163  L 21,163  L 21,162  L 22,162  L 22,161  L 23,161  L 23,160  L 24,160  L 24,159  L 25,159  L 25,158  L 26,158  L 26,157  L 27,157  L 27,156  L 28,156  L 28,155  L 29,155  L 29,153  L 31,153  L 31,151  L 32,151  L 32,150  L 33,150  L 33,149  L 34,149  L 34,148  L 35,148  L 35,147  L 36,147  L 36,146  L 37,146  L 37,144  L 39,144  L 39,142  L 41,142  L 41,140  L 42,140  L 42,139  L 43,139  L 43,138  L 44,138  L 44,137  L 45,137  L 45,135  L 46,135  L 46,134  L 47,134  L 47,133  L 48,133  L 48,134  L 51,134  L 51,135  L 52,135  L 52,136  L 54,136  L 54,137  L 56,137  L 56,138  L 57,138  L 57,139  L 59,139  L 59,140  L 60,140  L 60,141  L 61,141  L 61,142  L 64,142  L 64,143  L 65,143  L 65,144  L 67,144  L 67,145  L 69,145  L 69,146  L 72,146  L 72,147  L 75,147  L 75,148  L 78,148  L 78,149  L 81,149  L 81,150  L 84,150  L 84,151  L 89,151  L 89,152  L 92,152  L 92,153  L 94,153  L 94,154  L 95,154  L 95,155  L 97,155  L 97,156  L 98,156  L 98,158  L 99,158  L 99,161  L 104,161  L 104,160  L 105,160  L 105,159  L 108,159  L 108,158  L 109,158  L 109,157  L 111,157  L 111,153  L 110,153  L 110,152  L 109,152  L 109,151  L 102,151  L 102,150  L 99,150  L 99,149  L 97,149  L 97,148  L 94,148  Z  " style="fill:rgb(0, 0, 0); fill-opacity:1.000; stroke:none;" />
 <path d="  M 98,161  L 98,162  L 99,162  L 99,161  Z  " style="fill:rgb(0, 0, 0); fill-opacity:1.000; stroke:none;" />
</svg>
