<?xml version="1.0" encoding="UTF-8" standalone="no"?>
<!DOCTYPE svg PUBLIC "-//W3C//DTD SVG 1.1//EN" 
  "http://www.w3.org/Graphics/SVG/1.1/DTD/svg11.dtd">
<svg width="105" height="149"
     xmlns="http://www.w3.org/2000/svg" version="1.1">
 <path d="  M 90,66  L 90,67  L 87,67  L 87,68  L 79,68  L 79,69  L 49,69  L 49,70  L 47,70  L 47,69  L 46,69  L 46,70  L 36,70  L 36,71  L 30,71  L 30,72  L 22,72  L 22,73  L 14,73  L 14,74  L 11,74  L 11,75  L 10,75  L 10,74  L 9,74  L 9,75  L 5,75  L 5,76  L 3,76  L 3,77  L 2,77  L 2,78  L 1,78  L 1,79  L 0,79  L 0,82  L 1,82  L 1,84  L 2,84  L 2,83  L 7,83  L 7,82  L 9,82  L 9,81  L 10,81  L 10,82  L 11,82  L 11,81  L 15,81  L 15,80  L 16,80  L 16,81  L 17,81  L 17,80  L 22,80  L 22,79  L 29,79  L 29,78  L 30,78  L 30,79  L 31,79  L 31,78  L 35,78  L 35,77  L 39,77  L 39,76  L 51,76  L 51,87  L 52,87  L 52,94  L 53,94  L 53,95  L 52,95  L 52,96  L 53,96  L 53,107  L 52,107  L 52,114  L 51,114  L 51,120  L 50,120  L 50,129  L 49,129  L 49,130  L 50,130  L 50,131  L 49,131  L 49,140  L 50,140  L 50,141  L 49,141  L 49,143  L 50,143  L 50,147  L 49,147  L 49,148  L 51,148  L 51,149  L 57,149  L 57,134  L 58,134  L 58,133  L 57,133  L 57,130  L 58,130  L 58,123  L 59,123  L 59,118  L 60,118  L 60,111  L 61,111  L 61,95  L 60,95  L 60,87  L 59,87  L 59,82  L 58,82  L 58,81  L 59,81  L 59,79  L 58,79  L 58,77  L 59,77  L 59,76  L 60,76  L 60,75  L 83,75  L 83,74  L 87,74  L 87,73  L 88,73  L 88,74  L 89,74  L 89,73  L 94,73  L 94,72  L 98,72  L 98,71  L 101,71  L 101,70  L 104,70  L 104,69  L 105,69  L 105,63  L 101,63  L 101,62  L 100,62  L 100,63  L 99,63  L 99,64  L 96,64  L 96,65  L 94,65  L 94,66  Z  " style="fill:rgb(0, 0, 0); fill-opacity:1.000; stroke:none;" />
 <path d="  M 78,47  L 78,42  L 77,42  L 77,32  L 78,32  L 78,31  L 77,31  L 77,30  L 78,30  L 78,16  L 79,16  L 79,15  L 78,15  L 78,12  L 79,12  L 79,10  L 78,10  L 78,6  L 77,6  L 77,5  L 76,5  L 76,4  L 75,4  L 75,3  L 74,3  L 74,2  L 71,2  L 71,1  L 58,1  L 58,2  L 56,2  L 56,1  L 54,1  L 54,2  L 50,2  L 50,3  L 49,3  L 49,2  L 47,2  L 47,3  L 30,3  L 30,2  L 28,2  L 28,3  L 25,3  L 25,4  L 22,4  L 22,5  L 15,5  L 15,6  L 13,6  L 13,7  L 12,7  L 12,10  L 13,10  L 13,11  L 15,11  L 15,12  L 19,12  L 19,11  L 20,11  L 20,12  L 22,12  L 22,14  L 23,14  L 23,15  L 22,15  L 22,18  L 23,18  L 23,19  L 22,19  L 22,31  L 23,31  L 23,33  L 22,33  L 22,34  L 23,34  L 23,45  L 24,45  L 24,48  L 25,48  L 25,50  L 26,50  L 26,52  L 27,52  L 27,53  L 28,53  L 28,54  L 31,54  L 31,55  L 32,55  L 32,54  L 46,54  L 46,53  L 61,53  L 61,52  L 71,52  L 71,51  L 78,51  L 78,50  L 79,50  L 79,47  Z  M 70,45  L 68,45  L 68,46  L 67,46  L 67,45  L 66,45  L 66,46  L 61,46  L 61,47  L 60,47  L 60,46  L 59,46  L 59,47  L 41,47  L 41,48  L 34,48  L 34,47  L 32,47  L 32,46  L 31,46  L 31,43  L 30,43  L 30,33  L 29,33  L 29,32  L 30,32  L 30,31  L 29,31  L 29,30  L 30,30  L 30,29  L 29,29  L 29,18  L 30,18  L 30,17  L 29,17  L 29,13  L 30,13  L 30,10  L 34,10  L 34,9  L 53,9  L 53,8  L 54,8  L 54,9  L 55,9  L 55,8  L 56,8  L 56,9  L 57,9  L 57,8  L 60,8  L 60,9  L 61,9  L 61,8  L 64,8  L 64,9  L 72,9  L 72,19  L 71,19  L 71,35  L 70,35  L 70,36  L 71,36  L 71,37  L 70,37  Z  " style="fill:rgb(0, 0, 0); fill-opacity:1.000; stroke:none;" />
</svg>
