<?xml version="1.0" encoding="UTF-8" standalone="no"?>
<!DOCTYPE svg PUBLIC "-//W3C//DTD SVG 1.1//EN" 
  "http://www.w3.org/Graphics/SVG/1.1/DTD/svg11.dtd">
<svg width="103" height="160"
     xmlns="http://www.w3.org/2000/svg" version="1.1">
 <path d="  M 99,53  L 99,52  L 98,52  L 98,53  L 95,53  L 95,54  L 94,54  L 94,55  L 93,55  L 93,56  L 90,56  L 90,57  L 89,57  L 89,58  L 82,58  L 82,59  L 75,59  L 75,60  L 74,60  L 74,59  L 73,59  L 73,60  L 64,60  L 64,61  L 62,61  L 62,60  L 61,60  L 61,61  L 50,61  L 50,62  L 40,62  L 40,63  L 34,63  L 34,64  L 33,64  L 33,63  L 32,63  L 32,64  L 25,64  L 25,65  L 16,65  L 16,66  L 3,66  L 3,67  L 2,67  L 2,68  L 1,68  L 1,69  L 0,69  L 0,70  L 1,70  L 1,71  L 0,71  L 0,72  L 1,72  L 1,73  L 3,73  L 3,74  L 6,74  L 6,73  L 9,73  L 9,72  L 19,72  L 19,71  L 27,71  L 27,70  L 28,70  L 28,71  L 29,71  L 29,70  L 36,70  L 36,69  L 41,69  L 41,68  L 47,68  L 47,67  L 52,67  L 52,68  L 53,68  L 53,71  L 52,71  L 52,82  L 53,82  L 53,84  L 52,84  L 52,86  L 53,86  L 53,89  L 52,89  L 52,90  L 53,90  L 53,98  L 54,98  L 54,106  L 53,106  L 53,107  L 49,107  L 49,108  L 45,108  L 45,109  L 44,109  L 44,110  L 40,110  L 40,111  L 36,111  L 36,112  L 29,112  L 29,113  L 23,113  L 23,114  L 14,114  L 14,113  L 13,113  L 13,114  L 12,114  L 12,115  L 11,115  L 11,120  L 13,120  L 13,121  L 15,121  L 15,122  L 17,122  L 17,121  L 21,121  L 21,120  L 29,120  L 29,119  L 36,119  L 36,118  L 38,118  L 38,119  L 39,119  L 39,118  L 45,118  L 45,117  L 46,117  L 46,116  L 50,116  L 50,118  L 49,118  L 49,122  L 48,122  L 48,127  L 47,127  L 47,131  L 46,131  L 46,135  L 45,135  L 45,137  L 44,137  L 44,138  L 45,138  L 45,139  L 44,139  L 44,143  L 45,143  L 45,144  L 44,144  L 44,146  L 45,146  L 45,149  L 44,149  L 44,150  L 45,150  L 45,157  L 46,157  L 46,158  L 47,158  L 47,159  L 51,159  L 51,157  L 52,157  L 52,153  L 51,153  L 51,148  L 52,148  L 52,147  L 51,147  L 51,144  L 52,144  L 52,143  L 51,143  L 51,140  L 52,140  L 52,139  L 51,139  L 51,138  L 52,138  L 52,135  L 53,135  L 53,133  L 54,133  L 54,132  L 53,132  L 53,131  L 54,131  L 54,126  L 55,126  L 55,123  L 56,123  L 56,121  L 57,121  L 57,118  L 58,118  L 58,116  L 59,116  L 59,114  L 61,114  L 61,113  L 66,113  L 66,112  L 73,112  L 73,111  L 84,111  L 84,110  L 87,110  L 87,112  L 88,112  L 88,114  L 89,114  L 89,118  L 90,118  L 90,135  L 89,135  L 89,136  L 90,136  L 90,138  L 89,138  L 89,141  L 90,141  L 90,143  L 89,143  L 89,144  L 90,144  L 90,156  L 91,156  L 91,159  L 92,159  L 92,160  L 97,160  L 97,159  L 98,159  L 98,151  L 97,151  L 97,140  L 96,140  L 96,139  L 97,139  L 97,126  L 98,126  L 98,125  L 97,125  L 97,123  L 98,123  L 98,122  L 97,122  L 97,114  L 96,114  L 96,111  L 95,111  L 95,109  L 94,109  L 94,107  L 93,107  L 93,106  L 92,106  L 92,105  L 91,105  L 91,104  L 88,104  L 88,103  L 83,103  L 83,102  L 82,102  L 82,103  L 81,103  L 81,102  L 78,102  L 78,103  L 77,103  L 77,102  L 76,102  L 76,103  L 72,103  L 72,104  L 71,104  L 71,103  L 70,103  L 70,104  L 69,104  L 69,103  L 68,103  L 68,104  L 67,104  L 67,103  L 64,103  L 64,104  L 62,104  L 62,102  L 61,102  L 61,96  L 60,96  L 60,67  L 61,67  L 61,66  L 73,66  L 73,65  L 74,65  L 74,66  L 77,66  L 77,65  L 86,65  L 86,64  L 93,64  L 93,63  L 97,63  L 97,62  L 101,62  L 101,61  L 103,61  L 103,54  L 102,54  L 102,53  Z  " style="fill:rgb(0, 0, 0); fill-opacity:1.000; stroke:none;" />
 <path d="  M 14,15  L 14,16  L 16,16  L 16,15  L 20,15  L 20,14  L 21,14  L 21,15  L 22,15  L 22,18  L 23,18  L 23,19  L 22,19  L 22,24  L 23,24  L 23,25  L 22,25  L 22,26  L 23,26  L 23,42  L 24,42  L 24,43  L 25,43  L 25,45  L 26,45  L 26,46  L 28,46  L 28,47  L 30,47  L 30,48  L 33,48  L 33,49  L 51,49  L 51,48  L 61,48  L 61,47  L 62,47  L 62,48  L 63,48  L 63,47  L 68,47  L 68,46  L 70,46  L 70,45  L 71,45  L 71,44  L 72,44  L 72,43  L 73,43  L 73,42  L 75,42  L 75,41  L 76,41  L 76,40  L 78,40  L 78,39  L 79,39  L 79,38  L 80,38  L 80,30  L 81,30  L 81,24  L 82,24  L 82,6  L 81,6  L 81,5  L 80,5  L 80,3  L 79,3  L 79,2  L 77,2  L 77,1  L 69,1  L 69,2  L 58,2  L 58,3  L 44,3  L 44,4  L 30,4  L 30,5  L 29,5  L 29,4  L 28,4  L 28,5  L 24,5  L 24,6  L 20,6  L 20,7  L 16,7  L 16,8  L 14,8  L 14,9  L 12,9  L 12,10  L 11,10  L 11,11  L 10,11  L 10,14  L 11,14  L 11,15  Z  M 75,23  L 74,23  L 74,32  L 73,32  L 73,36  L 72,36  L 72,37  L 71,37  L 71,38  L 69,38  L 69,39  L 67,39  L 67,40  L 61,40  L 61,41  L 55,41  L 55,42  L 54,42  L 54,41  L 52,41  L 52,42  L 49,42  L 49,41  L 48,41  L 48,42  L 31,42  L 31,41  L 30,41  L 30,36  L 29,36  L 29,22  L 30,22  L 30,14  L 31,14  L 31,13  L 32,13  L 32,12  L 36,12  L 36,11  L 45,11  L 45,10  L 46,10  L 46,11  L 47,11  L 47,10  L 57,10  L 57,9  L 58,9  L 58,10  L 59,10  L 59,9  L 60,9  L 60,10  L 61,10  L 61,9  L 73,9  L 73,8  L 74,8  L 74,9  L 75,9  L 75,13  L 76,13  L 76,14  L 75,14  Z  " style="fill:rgb(0, 0, 0); fill-opacity:1.000; stroke:none;" />
</svg>
