<?xml version="1.0" encoding="UTF-8" standalone="no"?>
<!DOCTYPE svg PUBLIC "-//W3C//DTD SVG 1.1//EN" 
  "http://www.w3.org/Graphics/SVG/1.1/DTD/svg11.dtd">
<svg width="101" height="162"
     xmlns="http://www.w3.org/2000/svg" version="1.1">
 <path d="  M 37,71  L 40,71  L 40,72  L 41,72  L 41,71  L 43,71  L 43,72  L 45,72  L 45,71  L 48,71  L 48,72  L 49,72  L 49,76  L 48,76  L 48,98  L 47,98  L 47,99  L 48,99  L 48,100  L 47,100  L 47,101  L 48,101  L 48,103  L 49,103  L 49,104  L 53,104  L 53,103  L 54,103  L 54,101  L 55,101  L 55,97  L 56,97  L 56,77  L 57,77  L 57,76  L 56,76  L 56,74  L 57,74  L 57,72  L 56,72  L 56,71  L 57,71  L 57,69  L 58,69  L 58,68  L 63,68  L 63,67  L 65,67  L 65,68  L 66,68  L 66,67  L 71,67  L 71,66  L 75,66  L 75,65  L 83,65  L 83,64  L 90,64  L 90,63  L 91,63  L 91,64  L 93,64  L 93,63  L 97,63  L 97,62  L 98,62  L 98,61  L 100,61  L 100,54  L 99,54  L 99,53  L 96,53  L 96,54  L 93,54  L 93,55  L 92,55  L 92,56  L 89,56  L 89,57  L 88,57  L 88,56  L 87,56  L 87,57  L 82,57  L 82,58  L 81,58  L 81,57  L 80,57  L 80,58  L 77,58  L 77,59  L 70,59  L 70,60  L 67,60  L 67,59  L 66,59  L 66,60  L 65,60  L 65,61  L 64,61  L 64,60  L 63,60  L 63,61  L 58,61  L 58,62  L 53,62  L 53,63  L 42,63  L 42,64  L 41,64  L 41,63  L 40,63  L 40,64  L 17,64  L 17,65  L 10,65  L 10,66  L 3,66  L 3,67  L 1,67  L 1,68  L 0,68  L 0,71  L 1,71  L 1,72  L 0,72  L 0,73  L 1,73  L 1,74  L 10,74  L 10,73  L 18,73  L 18,72  L 37,72  Z  " style="fill:rgb(0, 0, 0); fill-opacity:1.000; stroke:none;" />
 <path d="  M 23,107  L 23,106  L 22,106  L 22,107  L 19,107  L 19,106  L 17,106  L 17,107  L 15,107  L 15,106  L 13,106  L 13,107  L 12,107  L 12,106  L 10,106  L 10,107  L 8,107  L 8,108  L 7,108  L 7,112  L 8,112  L 8,115  L 9,115  L 9,116  L 10,116  L 10,117  L 11,117  L 11,116  L 13,116  L 13,115  L 16,115  L 16,114  L 20,114  L 20,113  L 31,113  L 31,114  L 37,114  L 37,115  L 38,115  L 38,116  L 39,116  L 39,125  L 38,125  L 38,126  L 35,126  L 35,127  L 34,127  L 34,128  L 32,128  L 32,129  L 27,129  L 27,130  L 16,130  L 16,131  L 15,131  L 15,130  L 14,130  L 14,131  L 9,131  L 9,132  L 7,132  L 7,133  L 4,133  L 4,134  L 2,134  L 2,135  L 1,135  L 1,149  L 2,149  L 2,153  L 3,153  L 3,156  L 4,156  L 4,157  L 5,157  L 5,159  L 7,159  L 7,160  L 8,160  L 8,161  L 11,161  L 11,162  L 46,162  L 46,161  L 55,161  L 55,160  L 58,160  L 58,159  L 60,159  L 60,158  L 62,158  L 62,157  L 63,157  L 63,155  L 64,155  L 64,154  L 65,154  L 65,153  L 63,153  L 63,152  L 54,152  L 54,153  L 49,153  L 49,154  L 46,154  L 46,153  L 45,153  L 45,154  L 33,154  L 33,155  L 31,155  L 31,154  L 30,154  L 30,155  L 27,155  L 27,154  L 26,154  L 26,155  L 15,155  L 15,154  L 10,154  L 10,153  L 9,153  L 9,150  L 8,150  L 8,141  L 9,141  L 9,139  L 10,139  L 10,138  L 17,138  L 17,137  L 23,137  L 23,136  L 29,136  L 29,135  L 35,135  L 35,134  L 38,134  L 38,133  L 39,133  L 39,132  L 40,132  L 40,131  L 42,131  L 42,129  L 43,129  L 43,126  L 44,126  L 44,125  L 45,125  L 45,123  L 46,123  L 46,119  L 47,119  L 47,115  L 46,115  L 46,113  L 45,113  L 45,112  L 44,112  L 44,111  L 43,111  L 43,110  L 42,110  L 42,109  L 41,109  L 41,108  L 38,108  L 38,107  Z  " style="fill:rgb(0, 0, 0); fill-opacity:1.000; stroke:none;" />
 <path d="  M 21,44  L 22,44  L 22,45  L 23,45  L 23,47  L 25,47  L 25,48  L 26,48  L 26,49  L 28,49  L 28,50  L 30,50  L 30,51  L 31,51  L 31,50  L 33,50  L 33,51  L 35,51  L 35,50  L 36,50  L 36,51  L 39,51  L 39,50  L 41,50  L 41,51  L 42,51  L 42,50  L 53,50  L 53,49  L 58,49  L 58,48  L 62,48  L 62,47  L 65,47  L 65,46  L 67,46  L 67,45  L 69,45  L 69,44  L 72,44  L 72,43  L 75,43  L 75,42  L 76,42  L 76,41  L 78,41  L 78,40  L 79,40  L 79,39  L 81,39  L 81,37  L 82,37  L 82,32  L 83,32  L 83,16  L 84,16  L 84,7  L 85,7  L 85,6  L 84,6  L 84,4  L 83,4  L 83,3  L 82,3  L 82,2  L 80,2  L 80,1  L 68,1  L 68,0  L 67,0  L 67,1  L 46,1  L 46,2  L 34,2  L 34,3  L 28,3  L 28,4  L 25,4  L 25,5  L 23,5  L 23,6  L 22,6  L 22,7  L 16,7  L 16,8  L 13,8  L 13,9  L 10,9  L 10,10  L 8,10  L 8,11  L 6,11  L 6,12  L 5,12  L 5,13  L 6,13  L 6,15  L 7,15  L 7,16  L 8,16  L 8,17  L 14,17  L 14,16  L 17,16  L 17,17  L 18,17  L 18,39  L 19,39  L 19,42  L 20,42  L 20,43  L 21,43  Z  M 31,43  L 31,42  L 28,42  L 28,41  L 27,41  L 27,40  L 26,40  L 26,37  L 25,37  L 25,23  L 26,23  L 26,14  L 27,14  L 27,13  L 28,13  L 28,12  L 30,12  L 30,11  L 37,11  L 37,10  L 47,10  L 47,9  L 57,9  L 57,8  L 58,8  L 58,9  L 59,9  L 59,8  L 70,8  L 70,9  L 75,9  L 75,10  L 76,10  L 76,14  L 77,14  L 77,15  L 76,15  L 76,18  L 77,18  L 77,20  L 76,20  L 76,22  L 77,22  L 77,24  L 76,24  L 76,32  L 75,32  L 75,33  L 74,33  L 74,34  L 72,34  L 72,35  L 70,35  L 70,36  L 68,36  L 68,37  L 66,37  L 66,38  L 64,38  L 64,39  L 61,39  L 61,40  L 58,40  L 58,41  L 54,41  L 54,42  L 50,42  L 50,43  L 47,43  L 47,42  L 46,42  L 46,43  Z  " style="fill:rgb(0, 0, 0); fill-opacity:1.000; stroke:none;" />
 <path d="  M 85,117  L 86,117  L 86,118  L 89,118  L 89,119  L 91,119  L 91,121  L 92,121  L 92,122  L 91,122  L 91,133  L 90,133  L 90,142  L 89,142  L 89,143  L 90,143  L 90,144  L 89,144  L 89,149  L 90,149  L 90,150  L 89,150  L 89,151  L 90,151  L 90,152  L 89,152  L 89,153  L 90,153  L 90,154  L 89,154  L 89,156  L 90,156  L 90,161  L 91,161  L 91,162  L 96,162  L 96,161  L 97,161  L 97,160  L 96,160  L 96,159  L 97,159  L 97,158  L 96,158  L 96,143  L 97,143  L 97,138  L 98,138  L 98,135  L 99,135  L 99,131  L 100,131  L 100,127  L 101,127  L 101,118  L 100,118  L 100,116  L 99,116  L 99,115  L 98,115  L 98,114  L 97,114  L 97,113  L 96,113  L 96,112  L 95,112  L 95,111  L 93,111  L 93,110  L 91,110  L 91,109  L 86,109  L 86,108  L 85,108  L 85,109  L 83,109  L 83,108  L 80,108  L 80,109  L 79,109  L 79,108  L 76,108  L 76,109  L 75,109  L 75,108  L 72,108  L 72,109  L 71,109  L 71,108  L 68,108  L 68,109  L 67,109  L 67,108  L 64,108  L 64,109  L 63,109  L 63,108  L 60,108  L 60,109  L 59,109  L 59,108  L 54,108  L 54,109  L 53,109  L 53,110  L 52,110  L 52,115  L 53,115  L 53,117  L 54,117  L 54,118  L 60,118  L 60,117  L 61,117  L 61,118  L 63,118  L 63,117  L 66,117  L 66,118  L 67,118  L 67,117  L 70,117  L 70,118  L 71,118  L 71,117  L 74,117  L 74,118  L 75,118  L 75,117  L 76,117  L 76,118  L 77,118  L 77,117  L 78,117  L 78,118  L 79,118  L 79,117  L 80,117  L 80,118  L 81,118  L 81,117  L 82,117  L 82,118  L 83,118  L 83,117  L 84,117  L 84,118  L 85,118  Z  " style="fill:rgb(0, 0, 0); fill-opacity:1.000; stroke:none;" />
</svg>
