<?xml version="1.0" encoding="UTF-8" standalone="no"?>
<!DOCTYPE svg PUBLIC "-//W3C//DTD SVG 1.1//EN" 
  "http://www.w3.org/Graphics/SVG/1.1/DTD/svg11.dtd">
<svg width="107" height="191"
     xmlns="http://www.w3.org/2000/svg" version="1.1">
 <path d="  M 48,67  L 48,68  L 45,68  L 45,69  L 44,69  L 44,68  L 39,68  L 39,69  L 36,69  L 36,68  L 35,68  L 35,69  L 20,69  L 20,68  L 19,68  L 19,69  L 15,69  L 15,68  L 14,68  L 14,69  L 12,69  L 12,68  L 9,68  L 9,69  L 7,69  L 7,68  L 5,68  L 5,69  L 2,69  L 2,70  L 1,70  L 1,73  L 0,73  L 0,74  L 2,74  L 2,76  L 3,76  L 3,77  L 12,77  L 12,76  L 14,76  L 14,77  L 15,77  L 15,76  L 31,76  L 31,75  L 34,75  L 34,76  L 35,76  L 35,75  L 55,75  L 55,78  L 56,78  L 56,91  L 55,91  L 55,92  L 56,92  L 56,95  L 55,95  L 55,96  L 56,96  L 56,99  L 55,99  L 55,100  L 56,100  L 56,103  L 55,103  L 55,106  L 56,106  L 56,107  L 55,107  L 55,127  L 53,127  L 53,128  L 42,128  L 42,129  L 34,129  L 34,130  L 31,130  L 31,131  L 30,131  L 30,132  L 29,132  L 29,134  L 28,134  L 28,135  L 30,135  L 30,136  L 31,136  L 31,137  L 32,137  L 32,136  L 33,136  L 33,137  L 40,137  L 40,136  L 42,136  L 42,137  L 44,137  L 44,136  L 50,136  L 50,135  L 53,135  L 53,136  L 67,136  L 67,134  L 73,134  L 73,133  L 77,133  L 77,132  L 79,132  L 79,134  L 80,134  L 80,133  L 82,133  L 82,130  L 79,130  L 79,129  L 77,129  L 77,128  L 68,128  L 68,127  L 65,127  L 65,126  L 64,126  L 64,123  L 63,123  L 63,122  L 64,122  L 64,121  L 63,121  L 63,118  L 64,118  L 64,117  L 63,117  L 63,114  L 64,114  L 64,113  L 63,113  L 63,106  L 64,106  L 64,105  L 63,105  L 63,102  L 64,102  L 64,101  L 63,101  L 63,99  L 64,99  L 64,90  L 65,90  L 65,89  L 64,89  L 64,86  L 65,86  L 65,85  L 64,85  L 64,82  L 65,82  L 65,81  L 64,81  L 64,76  L 66,76  L 66,75  L 77,75  L 77,74  L 86,74  L 86,73  L 88,73  L 88,74  L 89,74  L 89,73  L 93,73  L 93,72  L 94,72  L 94,73  L 95,73  L 95,72  L 98,72  L 98,73  L 99,73  L 99,72  L 103,72  L 103,71  L 105,71  L 105,72  L 106,72  L 106,70  L 107,70  L 107,63  L 99,63  L 99,64  L 95,64  L 95,65  L 79,65  L 79,66  L 78,66  L 78,65  L 76,65  L 76,66  L 67,66  L 67,67  L 66,67  L 66,66  L 63,66  L 63,67  L 62,67  L 62,66  L 57,66  L 57,67  Z  " style="fill:rgb(0, 0, 0); fill-opacity:1.000; stroke:none;" />
 <path d="  M 36,52  L 36,53  L 60,53  L 60,52  L 64,52  L 64,51  L 65,51  L 65,52  L 66,52  L 66,51  L 70,51  L 70,50  L 76,50  L 76,49  L 77,49  L 77,48  L 78,48  L 78,49  L 79,49  L 79,48  L 80,48  L 80,47  L 81,47  L 81,48  L 82,48  L 82,47  L 84,47  L 84,44  L 86,44  L 86,35  L 87,35  L 87,26  L 88,26  L 88,25  L 87,25  L 87,22  L 88,22  L 88,21  L 87,21  L 87,20  L 88,20  L 88,14  L 89,14  L 89,9  L 88,9  L 88,6  L 87,6  L 87,5  L 86,5  L 86,4  L 85,4  L 85,3  L 84,3  L 84,2  L 82,2  L 82,1  L 76,1  L 76,0  L 74,0  L 74,1  L 72,1  L 72,0  L 70,0  L 70,1  L 68,1  L 68,0  L 67,0  L 67,1  L 52,1  L 52,2  L 48,2  L 48,3  L 46,3  L 46,4  L 43,4  L 43,5  L 41,5  L 41,6  L 39,6  L 39,7  L 38,7  L 38,8  L 36,8  L 36,9  L 34,9  L 34,10  L 31,10  L 31,11  L 30,11  L 30,10  L 28,10  L 28,9  L 25,9  L 25,11  L 26,11  L 26,12  L 25,12  L 25,14  L 26,14  L 26,15  L 27,15  L 27,18  L 28,18  L 28,24  L 29,24  L 29,25  L 28,25  L 28,28  L 29,28  L 29,29  L 28,29  L 28,30  L 29,30  L 29,31  L 28,31  L 28,32  L 29,32  L 29,33  L 28,33  L 28,34  L 29,34  L 29,47  L 30,47  L 30,49  L 31,49  L 31,51  L 33,51  L 33,52  Z  M 80,20  L 79,20  L 79,25  L 78,25  L 78,33  L 77,33  L 77,34  L 78,34  L 78,35  L 77,35  L 77,40  L 76,40  L 76,42  L 73,42  L 73,43  L 66,43  L 66,44  L 62,44  L 62,45  L 57,45  L 57,46  L 55,46  L 55,45  L 54,45  L 54,46  L 42,46  L 42,45  L 37,45  L 37,41  L 36,41  L 36,39  L 37,39  L 37,36  L 36,36  L 36,34  L 37,34  L 37,33  L 36,33  L 36,30  L 37,30  L 37,29  L 36,29  L 36,19  L 37,19  L 37,18  L 38,18  L 38,17  L 39,17  L 39,16  L 42,16  L 42,15  L 44,15  L 44,14  L 46,14  L 46,13  L 49,13  L 49,12  L 54,12  L 54,11  L 60,11  L 60,10  L 66,10  L 66,9  L 67,9  L 67,10  L 68,10  L 68,9  L 73,9  L 73,10  L 77,10  L 77,11  L 78,11  L 78,12  L 79,12  L 79,14  L 80,14  Z  " style="fill:rgb(0, 0, 0); fill-opacity:1.000; stroke:none;" />
 <path d="  M 56,147  L 56,148  L 55,148  L 55,147  L 53,147  L 53,148  L 51,148  L 51,149  L 49,149  L 49,150  L 47,150  L 47,151  L 46,151  L 46,152  L 45,152  L 45,153  L 43,153  L 43,154  L 42,154  L 42,155  L 41,155  L 41,156  L 40,156  L 40,157  L 39,157  L 39,159  L 38,159  L 38,160  L 37,160  L 37,162  L 36,162  L 36,164  L 35,164  L 35,169  L 34,169  L 34,179  L 35,179  L 35,182  L 36,182  L 36,184  L 37,184  L 37,186  L 39,186  L 39,187  L 40,187  L 40,188  L 41,188  L 41,189  L 43,189  L 43,190  L 45,190  L 45,191  L 75,191  L 75,190  L 78,190  L 78,189  L 80,189  L 80,188  L 82,188  L 82,187  L 83,187  L 83,186  L 84,186  L 84,185  L 86,185  L 86,184  L 87,184  L 87,182  L 88,182  L 88,180  L 89,180  L 89,179  L 88,179  L 88,178  L 89,178  L 89,164  L 88,164  L 88,159  L 87,159  L 87,158  L 88,158  L 88,157  L 86,157  L 86,156  L 85,156  L 85,155  L 83,155  L 83,154  L 81,154  L 81,153  L 80,153  L 80,152  L 78,152  L 78,151  L 77,151  L 77,150  L 75,150  L 75,149  L 70,149  L 70,148  L 66,148  L 66,147  Z  M 42,166  L 44,166  L 44,164  L 45,164  L 45,163  L 46,163  L 46,162  L 47,162  L 47,161  L 48,161  L 48,160  L 50,160  L 50,159  L 69,159  L 69,160  L 74,160  L 74,161  L 77,161  L 77,162  L 78,162  L 78,163  L 80,163  L 80,166  L 81,166  L 81,169  L 82,169  L 82,170  L 81,170  L 81,171  L 82,171  L 82,176  L 81,176  L 81,178  L 80,178  L 80,179  L 79,179  L 79,180  L 78,180  L 78,181  L 76,181  L 76,182  L 73,182  L 73,183  L 68,183  L 68,184  L 66,184  L 66,183  L 65,183  L 65,184  L 62,184  L 62,183  L 61,183  L 61,184  L 58,184  L 58,183  L 57,183  L 57,184  L 55,184  L 55,183  L 49,183  L 49,182  L 45,182  L 45,181  L 44,181  L 44,180  L 43,180  L 43,179  L 42,179  L 42,177  L 41,177  L 41,171  L 42,171  L 42,170  L 41,170  L 41,169  L 42,169  Z  " style="fill:rgb(0, 0, 0); fill-opacity:1.000; stroke:none;" />
 <path d="  M 83,134  L 84,134  L 84,131  L 83,131  Z  " style="fill:rgb(0, 0, 0); fill-opacity:1.000; stroke:none;" />
 <path d="  M 86,133  L 86,134  L 89,134  L 89,133  Z  " style="fill:rgb(0, 0, 0); fill-opacity:1.000; stroke:none;" />
</svg>
