<?xml version="1.0" encoding="UTF-8" standalone="no"?>
<!DOCTYPE svg PUBLIC "-//W3C//DTD SVG 1.1//EN" 
  "http://www.w3.org/Graphics/SVG/1.1/DTD/svg11.dtd">
<svg width="106" height="132"
     xmlns="http://www.w3.org/2000/svg" version="1.1">
 <path d="  M 35,100  L 34,100  L 34,106  L 33,106  L 33,110  L 32,110  L 32,116  L 31,116  L 31,119  L 30,119  L 30,122  L 29,122  L 29,123  L 30,123  L 30,126  L 31,126  L 31,127  L 32,127  L 32,126  L 34,126  L 34,125  L 35,125  L 35,123  L 36,123  L 36,120  L 37,120  L 37,118  L 38,118  L 38,114  L 39,114  L 39,108  L 40,108  L 40,103  L 41,103  L 41,95  L 42,95  L 42,85  L 43,85  L 43,84  L 42,84  L 42,81  L 41,81  L 41,80  L 40,80  L 40,79  L 41,79  L 41,78  L 46,78  L 46,77  L 54,77  L 54,76  L 62,76  L 62,75  L 70,75  L 70,74  L 77,74  L 77,73  L 86,73  L 86,72  L 88,72  L 88,67  L 86,67  L 86,66  L 80,66  L 80,67  L 76,67  L 76,68  L 69,68  L 69,69  L 63,69  L 63,70  L 53,70  L 53,71  L 50,71  L 50,70  L 49,70  L 49,71  L 44,71  L 44,72  L 37,72  L 37,73  L 36,73  L 36,72  L 35,72  L 35,73  L 28,73  L 28,74  L 18,74  L 18,75  L 14,75  L 14,76  L 9,76  L 9,77  L 4,77  L 4,78  L 2,78  L 2,80  L 0,80  L 0,82  L 1,82  L 1,83  L 2,83  L 2,84  L 3,84  L 3,85  L 5,85  L 5,83  L 6,83  L 6,84  L 7,84  L 7,83  L 10,83  L 10,82  L 16,82  L 16,81  L 22,81  L 22,80  L 32,80  L 32,79  L 36,79  L 36,89  L 35,89  Z  " style="fill:rgb(0, 0, 0); fill-opacity:1.000; stroke:none;" />
 <path d="  M 63,51  L 64,51  L 64,50  L 63,50  L 63,49  L 64,49  L 64,43  L 65,43  L 65,42  L 64,42  L 64,41  L 65,41  L 65,40  L 64,40  L 64,39  L 65,39  L 65,28  L 66,28  L 66,24  L 67,24  L 67,18  L 66,18  L 66,17  L 65,17  L 65,16  L 60,16  L 60,15  L 59,15  L 59,16  L 58,16  L 58,15  L 53,15  L 53,16  L 47,16  L 47,17  L 46,17  L 46,16  L 44,16  L 44,17  L 38,17  L 38,18  L 31,18  L 31,19  L 30,19  L 30,18  L 29,18  L 29,19  L 23,19  L 23,20  L 22,20  L 22,19  L 21,19  L 21,20  L 15,20  L 15,21  L 11,21  L 11,22  L 9,22  L 9,23  L 8,23  L 8,47  L 9,47  L 9,48  L 8,48  L 8,49  L 9,49  L 9,50  L 8,50  L 8,51  L 9,51  L 9,59  L 10,59  L 10,63  L 12,63  L 12,64  L 13,64  L 13,65  L 14,65  L 14,64  L 17,64  L 17,65  L 18,65  L 18,64  L 25,64  L 25,65  L 26,65  L 26,64  L 27,64  L 27,65  L 28,65  L 28,64  L 36,64  L 36,63  L 43,63  L 43,62  L 44,62  L 44,63  L 45,63  L 45,62  L 49,62  L 49,61  L 52,61  L 52,60  L 54,60  L 54,59  L 58,59  L 58,58  L 61,58  L 61,57  L 62,57  L 62,56  L 63,56  L 63,55  L 64,55  L 64,54  L 63,54  Z  M 58,38  L 57,38  L 57,46  L 56,46  L 56,51  L 55,51  L 55,53  L 54,53  L 54,54  L 52,54  L 52,55  L 49,55  L 49,56  L 43,56  L 43,57  L 42,57  L 42,56  L 41,56  L 41,57  L 38,57  L 38,58  L 31,58  L 31,59  L 30,59  L 30,58  L 29,58  L 29,59  L 26,59  L 26,58  L 25,58  L 25,59  L 23,59  L 23,60  L 19,60  L 19,59  L 18,59  L 18,58  L 17,58  L 17,56  L 16,56  L 16,52  L 15,52  L 15,51  L 16,51  L 16,50  L 15,50  L 15,29  L 16,29  L 16,28  L 17,28  L 17,27  L 23,27  L 23,26  L 24,26  L 24,27  L 25,27  L 25,26  L 34,26  L 34,25  L 39,25  L 39,24  L 45,24  L 45,23  L 49,23  L 49,22  L 54,22  L 54,23  L 55,23  L 55,22  L 59,22  L 59,28  L 58,28  L 58,29  L 59,29  L 59,30  L 58,30  Z  " style="fill:rgb(0, 0, 0); fill-opacity:1.000; stroke:none;" />
 <path d="  M 57,91  L 57,92  L 55,92  L 55,97  L 60,97  L 60,96  L 64,96  L 64,95  L 68,95  L 68,94  L 71,94  L 71,93  L 78,93  L 78,92  L 84,92  L 84,91  L 86,91  L 86,92  L 87,92  L 87,91  L 90,91  L 90,92  L 92,92  L 92,91  L 94,91  L 94,92  L 99,92  L 99,93  L 100,93  L 100,104  L 99,104  L 99,105  L 100,105  L 100,108  L 101,108  L 101,110  L 100,110  L 100,111  L 101,111  L 101,114  L 100,114  L 100,115  L 101,115  L 101,118  L 100,118  L 100,119  L 101,119  L 101,122  L 100,122  L 100,123  L 101,123  L 101,126  L 100,126  L 100,127  L 101,127  L 101,132  L 106,132  L 106,91  L 105,91  L 105,66  L 104,66  L 104,65  L 105,65  L 105,64  L 104,64  L 104,63  L 105,63  L 105,62  L 104,62  L 104,61  L 105,61  L 105,60  L 104,60  L 104,59  L 105,59  L 105,58  L 104,58  L 104,55  L 105,55  L 105,54  L 104,54  L 104,38  L 103,38  L 103,27  L 102,27  L 102,25  L 103,25  L 103,24  L 102,24  L 102,21  L 101,21  L 101,12  L 100,12  L 100,11  L 101,11  L 101,9  L 100,9  L 100,4  L 99,4  L 99,2  L 98,2  L 98,0  L 95,0  L 95,1  L 94,1  L 94,2  L 93,2  L 93,3  L 92,3  L 92,7  L 93,7  L 93,12  L 94,12  L 94,17  L 95,17  L 95,26  L 96,26  L 96,32  L 97,32  L 97,33  L 96,33  L 96,35  L 97,35  L 97,46  L 98,46  L 98,81  L 99,81  L 99,82  L 98,82  L 98,84  L 96,84  L 96,85  L 95,85  L 95,84  L 85,84  L 85,85  L 81,85  L 81,86  L 80,86  L 80,87  L 72,87  L 72,88  L 70,88  L 70,87  L 69,87  L 69,88  L 68,88  L 68,89  L 67,89  L 67,88  L 65,88  L 65,89  L 62,89  L 62,90  L 60,90  L 60,91  Z  " style="fill:rgb(0, 0, 0); fill-opacity:1.000; stroke:none;" />
</svg>
