<?xml version="1.0" encoding="UTF-8" standalone="no"?>
<!DOCTYPE svg PUBLIC "-//W3C//DTD SVG 1.1//EN" 
  "http://www.w3.org/Graphics/SVG/1.1/DTD/svg11.dtd">
<svg width="105" height="106"
     xmlns="http://www.w3.org/2000/svg" version="1.1">
 <path d="  M 23,63  L 23,62  L 27,62  L 27,64  L 26,64  L 26,84  L 25,84  L 25,89  L 24,89  L 24,93  L 23,93  L 23,97  L 22,97  L 22,98  L 23,98  L 23,99  L 22,99  L 22,100  L 23,100  L 23,101  L 24,101  L 24,102  L 27,102  L 27,101  L 30,101  L 30,102  L 31,102  L 31,87  L 32,87  L 32,61  L 34,61  L 34,60  L 44,60  L 44,59  L 52,59  L 52,58  L 57,58  L 57,57  L 58,57  L 58,58  L 59,58  L 59,57  L 62,57  L 62,56  L 70,56  L 70,55  L 71,55  L 71,52  L 70,52  L 70,51  L 69,51  L 69,50  L 68,50  L 68,49  L 65,49  L 65,50  L 61,50  L 61,51  L 57,51  L 57,52  L 51,52  L 51,53  L 44,53  L 44,54  L 36,54  L 36,55  L 35,55  L 35,54  L 33,54  L 33,55  L 26,55  L 26,56  L 21,56  L 21,57  L 16,57  L 16,58  L 13,58  L 13,59  L 10,59  L 10,60  L 7,60  L 7,61  L 4,61  L 4,62  L 2,62  L 2,63  L 1,63  L 1,64  L 0,64  L 0,66  L 1,66  L 1,68  L 2,68  L 2,69  L 4,69  L 4,68  L 6,68  L 6,67  L 8,67  L 8,66  L 11,66  L 11,65  L 13,65  L 13,64  L 16,64  L 16,63  Z  " style="fill:rgb(0, 0, 0); fill-opacity:1.000; stroke:none;" />
 <path d="  M 13,12  L 13,11  L 14,11  L 14,12  L 15,12  L 15,11  L 17,11  L 17,10  L 18,10  L 18,11  L 20,11  L 20,10  L 25,10  L 25,9  L 27,9  L 27,10  L 28,10  L 28,9  L 35,9  L 35,8  L 36,8  L 36,9  L 39,9  L 39,8  L 42,8  L 42,9  L 44,9  L 44,8  L 46,8  L 46,9  L 47,9  L 47,17  L 46,17  L 46,18  L 47,18  L 47,20  L 46,20  L 46,28  L 45,28  L 45,32  L 44,32  L 44,33  L 43,33  L 43,34  L 40,34  L 40,35  L 36,35  L 36,36  L 33,36  L 33,37  L 28,37  L 28,38  L 22,38  L 22,39  L 18,39  L 18,40  L 15,40  L 15,41  L 13,41  L 13,42  L 12,42  L 12,41  L 11,41  L 11,37  L 10,37  L 10,25  L 9,25  L 9,24  L 10,24  L 10,23  L 9,23  L 9,22  L 10,22  L 10,21  L 9,21  L 9,20  L 10,20  L 10,19  L 9,19  L 9,18  L 10,18  L 10,13  L 11,13  L 11,12  Z  M 25,44  L 25,43  L 31,43  L 31,42  L 36,42  L 36,41  L 40,41  L 40,40  L 44,40  L 44,39  L 48,39  L 48,38  L 49,38  L 49,37  L 51,37  L 51,36  L 52,36  L 52,22  L 53,22  L 53,19  L 52,19  L 52,18  L 53,18  L 53,8  L 54,8  L 54,4  L 53,4  L 53,2  L 52,2  L 52,1  L 44,1  L 44,2  L 43,2  L 43,1  L 42,1  L 42,2  L 41,2  L 41,1  L 40,1  L 40,2  L 37,2  L 37,1  L 36,1  L 36,2  L 32,2  L 32,3  L 22,3  L 22,4  L 17,4  L 17,5  L 11,5  L 11,6  L 8,6  L 8,7  L 5,7  L 5,8  L 4,8  L 4,9  L 3,9  L 3,15  L 2,15  L 2,17  L 3,17  L 3,19  L 2,19  L 2,20  L 3,20  L 3,38  L 4,38  L 4,43  L 5,43  L 5,45  L 6,45  L 6,47  L 12,47  L 12,46  L 16,46  L 16,45  L 20,45  L 20,44  Z  " style="fill:rgb(0, 0, 0); fill-opacity:1.000; stroke:none;" />
 <path d="  M 83,25  L 82,25  L 82,6  L 81,6  L 81,5  L 79,5  L 79,4  L 78,4  L 78,5  L 76,5  L 76,6  L 75,6  L 75,8  L 74,8  L 74,14  L 75,14  L 75,15  L 74,15  L 74,16  L 75,16  L 75,31  L 76,31  L 76,33  L 75,33  L 75,34  L 76,34  L 76,50  L 77,50  L 77,53  L 76,53  L 76,54  L 77,54  L 77,66  L 76,66  L 76,67  L 65,67  L 65,68  L 62,68  L 62,69  L 59,69  L 59,70  L 58,70  L 58,69  L 56,69  L 56,70  L 52,70  L 52,71  L 48,71  L 48,72  L 45,72  L 45,73  L 43,73  L 43,74  L 40,74  L 40,75  L 39,75  L 39,80  L 41,80  L 41,81  L 42,81  L 42,80  L 45,80  L 45,79  L 46,79  L 46,78  L 49,78  L 49,77  L 53,77  L 53,76  L 57,76  L 57,75  L 62,75  L 62,74  L 77,74  L 77,81  L 78,81  L 78,82  L 77,82  L 77,83  L 78,83  L 78,95  L 77,95  L 77,98  L 78,98  L 78,99  L 79,99  L 79,100  L 80,100  L 80,101  L 81,101  L 81,100  L 83,100  L 83,96  L 84,96  L 84,55  L 83,55  L 83,54  L 84,54  L 84,53  L 83,53  L 83,29  L 82,29  L 82,27  L 83,27  Z  " style="fill:rgb(0, 0, 0); fill-opacity:1.000; stroke:none;" />
 <path d="  M 105,13  L 104,13  L 104,5  L 103,5  L 103,4  L 98,4  L 98,22  L 99,22  L 99,23  L 98,23  L 98,24  L 99,24  L 99,27  L 98,27  L 98,28  L 99,28  L 99,72  L 100,72  L 100,73  L 99,73  L 99,75  L 100,75  L 100,77  L 99,77  L 99,78  L 100,78  L 100,81  L 99,81  L 99,82  L 100,82  L 100,85  L 99,85  L 99,86  L 100,86  L 100,89  L 99,89  L 99,90  L 100,90  L 100,93  L 99,93  L 99,94  L 100,94  L 100,97  L 99,97  L 99,98  L 100,98  L 100,101  L 99,101  L 99,102  L 100,102  L 100,104  L 101,104  L 101,106  L 104,106  L 104,105  L 105,105  Z  " style="fill:rgb(0, 0, 0); fill-opacity:1.000; stroke:none;" />
</svg>
