<?xml version="1.0" encoding="UTF-8" standalone="no"?>
<!DOCTYPE svg PUBLIC "-//W3C//DTD SVG 1.1//EN" 
  "http://www.w3.org/Graphics/SVG/1.1/DTD/svg11.dtd">
<svg width="102" height="147"
     xmlns="http://www.w3.org/2000/svg" version="1.1">
 <path d="  M 11,42  L 12,42  L 12,45  L 13,45  L 13,47  L 14,47  L 14,48  L 16,48  L 16,49  L 18,49  L 18,50  L 21,50  L 21,51  L 28,51  L 28,50  L 29,50  L 29,51  L 30,51  L 30,50  L 33,50  L 33,51  L 34,51  L 34,50  L 37,50  L 37,51  L 38,51  L 38,50  L 48,50  L 48,49  L 54,49  L 54,48  L 56,48  L 56,47  L 59,47  L 59,46  L 60,46  L 60,45  L 61,45  L 61,43  L 62,43  L 62,41  L 61,41  L 61,30  L 62,30  L 62,21  L 63,21  L 63,9  L 62,9  L 62,8  L 61,8  L 61,6  L 60,6  L 60,5  L 59,5  L 59,4  L 57,4  L 57,3  L 54,3  L 54,2  L 53,2  L 53,3  L 52,3  L 52,2  L 51,2  L 51,3  L 50,3  L 50,2  L 47,2  L 47,3  L 46,3  L 46,2  L 44,2  L 44,3  L 19,3  L 19,4  L 15,4  L 15,5  L 13,5  L 13,6  L 7,6  L 7,7  L 6,7  L 6,8  L 3,8  L 3,9  L 2,9  L 2,10  L 1,10  L 1,12  L 4,12  L 4,13  L 13,13  L 13,16  L 12,16  L 12,21  L 11,21  L 11,22  L 12,22  L 12,24  L 11,24  Z  M 54,10  L 54,11  L 56,11  L 56,19  L 55,19  L 55,31  L 54,31  L 54,36  L 53,36  L 53,41  L 52,41  L 52,42  L 50,42  L 50,43  L 42,43  L 42,44  L 22,44  L 22,43  L 19,43  L 19,40  L 18,40  L 18,26  L 19,26  L 19,25  L 18,25  L 18,22  L 19,22  L 19,16  L 20,16  L 20,13  L 21,13  L 21,11  L 24,11  L 24,10  Z  " style="fill:rgb(0, 0, 0); fill-opacity:1.000; stroke:none;" />
 <path d="  M 26,71  L 26,70  L 34,70  L 34,69  L 40,69  L 40,82  L 41,82  L 41,83  L 40,83  L 40,85  L 41,85  L 41,88  L 42,88  L 42,94  L 44,94  L 44,96  L 45,96  L 45,97  L 47,97  L 47,98  L 50,98  L 50,93  L 49,93  L 49,90  L 48,90  L 48,85  L 47,85  L 47,76  L 46,76  L 46,68  L 47,68  L 47,67  L 51,67  L 51,66  L 56,66  L 56,65  L 60,65  L 60,64  L 65,64  L 65,63  L 68,63  L 68,62  L 72,62  L 72,61  L 73,61  L 73,62  L 74,62  L 74,61  L 77,61  L 77,60  L 84,60  L 84,59  L 87,59  L 87,55  L 86,55  L 86,54  L 83,54  L 83,53  L 76,53  L 76,54  L 73,54  L 73,55  L 70,55  L 70,56  L 67,56  L 67,57  L 63,57  L 63,58  L 58,58  L 58,59  L 54,59  L 54,60  L 53,60  L 53,59  L 52,59  L 52,60  L 48,60  L 48,61  L 42,61  L 42,62  L 38,62  L 38,63  L 32,63  L 32,64  L 24,64  L 24,65  L 18,65  L 18,66  L 14,66  L 14,67  L 3,67  L 3,68  L 2,68  L 2,69  L 1,69  L 1,74  L 9,74  L 9,73  L 14,73  L 14,72  L 18,72  L 18,71  Z  " style="fill:rgb(0, 0, 0); fill-opacity:1.000; stroke:none;" />
 <path d="  M 35,117  L 35,116  L 34,116  L 34,114  L 33,114  L 33,113  L 32,113  L 32,116  L 33,116  L 33,118  L 34,118  L 34,120  L 33,120  L 33,127  L 32,127  L 32,133  L 31,133  L 31,134  L 32,134  L 32,140  L 33,140  L 33,144  L 34,144  L 34,145  L 35,145  L 35,146  L 36,146  L 36,147  L 58,147  L 58,146  L 59,146  L 59,147  L 60,147  L 60,146  L 66,146  L 66,145  L 67,145  L 67,146  L 68,146  L 68,145  L 69,145  L 69,146  L 70,146  L 70,145  L 78,145  L 78,144  L 83,144  L 83,143  L 92,143  L 92,142  L 98,142  L 98,141  L 100,141  L 100,140  L 101,140  L 101,138  L 102,138  L 102,137  L 101,137  L 101,136  L 100,136  L 100,135  L 95,135  L 95,136  L 87,136  L 87,137  L 79,137  L 79,138  L 76,138  L 76,137  L 75,137  L 75,138  L 71,138  L 71,139  L 70,139  L 70,138  L 69,138  L 69,139  L 63,139  L 63,140  L 56,140  L 56,141  L 41,141  L 41,140  L 40,140  L 40,139  L 39,139  L 39,124  L 40,124  L 40,119  L 39,119  L 39,118  L 37,118  L 37,117  Z  " style="fill:rgb(0, 0, 0); fill-opacity:1.000; stroke:none;" />
 <path d="  M 101,43  L 100,43  L 100,42  L 101,42  L 101,41  L 100,41  L 100,40  L 101,40  L 101,39  L 100,39  L 100,35  L 99,35  L 99,29  L 98,29  L 98,21  L 97,21  L 97,15  L 96,15  L 96,11  L 95,11  L 95,5  L 94,5  L 94,2  L 93,2  L 93,1  L 88,1  L 88,10  L 89,10  L 89,16  L 90,16  L 90,22  L 91,22  L 91,26  L 92,26  L 92,31  L 93,31  L 93,38  L 94,38  L 94,39  L 93,39  L 93,40  L 94,40  L 94,47  L 95,47  L 95,48  L 94,48  L 94,50  L 95,50  L 95,53  L 94,53  L 94,54  L 95,54  L 95,83  L 96,83  L 96,85  L 95,85  L 95,86  L 96,86  L 96,89  L 95,89  L 95,90  L 96,90  L 96,107  L 98,107  L 98,108  L 101,108  L 101,107  L 102,107  L 102,73  L 101,73  L 101,72  L 102,72  L 102,69  L 101,69  L 101,66  L 102,66  L 102,65  L 101,65  L 101,62  L 102,62  L 102,61  L 101,61  Z  " style="fill:rgb(0, 0, 0); fill-opacity:1.000; stroke:none;" />
 <path d="  M 89,57  L 88,57  L 88,58  L 89,58  Z  " style="fill:rgb(0, 0, 0); fill-opacity:1.000; stroke:none;" />
</svg>
