<?xml version="1.0" encoding="UTF-8" standalone="no"?>
<!DOCTYPE svg PUBLIC "-//W3C//DTD SVG 1.1//EN" 
  "http://www.w3.org/Graphics/SVG/1.1/DTD/svg11.dtd">
<svg width="105" height="174"
     xmlns="http://www.w3.org/2000/svg" version="1.1">
 <path d="  M 44,91  L 45,91  L 45,96  L 46,96  L 46,99  L 47,99  L 47,103  L 48,103  L 48,104  L 49,104  L 49,105  L 52,105  L 52,104  L 53,104  L 53,99  L 54,99  L 54,98  L 53,98  L 53,95  L 52,95  L 52,91  L 51,91  L 51,84  L 50,84  L 50,79  L 51,79  L 51,78  L 50,78  L 50,68  L 51,68  L 51,67  L 54,67  L 54,66  L 60,66  L 60,65  L 66,65  L 66,64  L 71,64  L 71,63  L 76,63  L 76,62  L 77,62  L 77,63  L 78,63  L 78,62  L 81,62  L 81,61  L 83,61  L 83,60  L 84,60  L 84,59  L 85,59  L 85,54  L 84,54  L 84,53  L 83,53  L 83,52  L 80,52  L 80,53  L 76,53  L 76,54  L 75,54  L 75,55  L 71,55  L 71,56  L 68,56  L 68,57  L 65,57  L 65,58  L 57,58  L 57,59  L 47,59  L 47,60  L 27,60  L 27,61  L 26,61  L 26,60  L 25,60  L 25,61  L 22,61  L 22,60  L 21,60  L 21,61  L 14,61  L 14,62  L 8,62  L 8,63  L 3,63  L 3,64  L 2,64  L 2,65  L 1,65  L 1,66  L 0,66  L 0,69  L 2,69  L 2,70  L 5,70  L 5,71  L 6,71  L 6,70  L 9,70  L 9,69  L 16,69  L 16,68  L 17,68  L 17,69  L 18,69  L 18,68  L 39,68  L 39,67  L 43,67  L 43,87  L 44,87  Z  " style="fill:rgb(0, 0, 0); fill-opacity:1.000; stroke:none;" />
 <path d="  M 67,22  L 66,22  L 66,29  L 65,29  L 65,32  L 64,32  L 64,33  L 63,33  L 63,34  L 59,34  L 59,35  L 56,35  L 56,36  L 51,36  L 51,37  L 48,37  L 48,38  L 40,38  L 40,39  L 39,39  L 39,38  L 31,38  L 31,39  L 30,39  L 30,38  L 25,38  L 25,37  L 24,37  L 24,31  L 25,31  L 25,30  L 24,30  L 24,27  L 25,27  L 25,26  L 24,26  L 24,24  L 25,24  L 25,17  L 26,17  L 26,16  L 25,16  L 25,11  L 28,11  L 28,10  L 35,10  L 35,9  L 59,9  L 59,10  L 65,10  L 65,11  L 66,11  L 66,14  L 67,14  Z  M 18,12  L 18,13  L 17,13  L 17,15  L 18,15  L 18,17  L 17,17  L 17,34  L 16,34  L 16,35  L 17,35  L 17,39  L 18,39  L 18,40  L 19,40  L 19,41  L 20,41  L 20,42  L 21,42  L 21,43  L 22,43  L 22,44  L 25,44  L 25,45  L 27,45  L 27,46  L 48,46  L 48,45  L 54,45  L 54,44  L 60,44  L 60,43  L 63,43  L 63,42  L 65,42  L 65,41  L 68,41  L 68,40  L 69,40  L 69,39  L 70,39  L 70,38  L 71,38  L 71,37  L 72,37  L 72,33  L 73,33  L 73,30  L 74,30  L 74,21  L 75,21  L 75,11  L 74,11  L 74,8  L 73,8  L 73,6  L 71,6  L 71,5  L 69,5  L 69,4  L 68,4  L 68,3  L 67,3  L 67,2  L 63,2  L 63,1  L 61,1  L 61,2  L 60,2  L 60,1  L 33,1  L 33,2  L 32,2  L 32,1  L 31,1  L 31,2  L 24,2  L 24,3  L 20,3  L 20,4  L 19,4  L 19,5  L 17,5  L 17,6  L 16,6  L 16,7  L 12,7  L 12,8  L 10,8  L 10,9  L 9,9  L 9,8  L 8,8  L 8,10  L 7,10  L 7,11  L 6,11  L 6,12  L 7,12  L 7,13  L 8,13  L 8,14  L 12,14  L 12,13  L 14,13  L 14,12  Z  " style="fill:rgb(0, 0, 0); fill-opacity:1.000; stroke:none;" />
 <path d="  M 74,119  L 77,119  L 77,120  L 79,120  L 79,121  L 80,121  L 80,123  L 79,123  L 79,124  L 78,124  L 78,126  L 77,126  L 77,127  L 76,127  L 76,128  L 75,128  L 75,131  L 74,131  L 74,132  L 72,132  L 72,133  L 71,133  L 71,134  L 68,134  L 68,135  L 66,135  L 66,136  L 65,136  L 65,137  L 64,137  L 64,138  L 57,138  L 57,139  L 54,139  L 54,140  L 51,140  L 51,141  L 48,141  L 48,142  L 45,142  L 45,143  L 44,143  L 44,144  L 43,144  L 43,145  L 42,145  L 42,146  L 41,146  L 41,147  L 40,147  L 40,149  L 39,149  L 39,158  L 40,158  L 40,162  L 41,162  L 41,163  L 42,163  L 42,164  L 43,164  L 43,165  L 44,165  L 44,166  L 47,166  L 47,168  L 48,168  L 48,170  L 51,170  L 51,172  L 52,172  L 52,173  L 58,173  L 58,174  L 73,174  L 73,173  L 78,173  L 78,172  L 81,172  L 81,171  L 85,171  L 85,170  L 86,170  L 86,169  L 88,169  L 88,168  L 90,168  L 90,167  L 91,167  L 91,166  L 94,166  L 94,165  L 96,165  L 96,164  L 97,164  L 97,163  L 98,163  L 98,162  L 99,162  L 99,161  L 101,161  L 101,160  L 102,160  L 102,153  L 99,153  L 99,154  L 97,154  L 97,155  L 96,155  L 96,156  L 95,156  L 95,157  L 93,157  L 93,158  L 91,158  L 91,159  L 90,159  L 90,160  L 88,160  L 88,161  L 86,161  L 86,162  L 84,162  L 84,163  L 82,163  L 82,164  L 77,164  L 77,165  L 76,165  L 76,166  L 71,166  L 71,167  L 70,167  L 70,166  L 69,166  L 69,167  L 55,167  L 55,166  L 53,166  L 53,164  L 51,164  L 51,162  L 50,162  L 50,160  L 49,160  L 49,158  L 48,158  L 48,157  L 47,157  L 47,151  L 48,151  L 48,150  L 49,150  L 49,149  L 51,149  L 51,148  L 54,148  L 54,147  L 59,147  L 59,146  L 62,146  L 62,145  L 66,145  L 66,144  L 68,144  L 68,143  L 71,143  L 71,142  L 72,142  L 72,141  L 74,141  L 74,140  L 75,140  L 75,139  L 77,139  L 77,138  L 78,138  L 78,137  L 79,137  L 79,134  L 80,134  L 80,133  L 81,133  L 81,132  L 82,132  L 82,130  L 85,130  L 85,129  L 86,129  L 86,128  L 87,128  L 87,127  L 89,127  L 89,126  L 90,126  L 90,125  L 91,125  L 91,123  L 92,123  L 92,121  L 91,121  L 91,120  L 92,120  L 92,118  L 91,118  L 91,116  L 90,116  L 90,115  L 89,115  L 89,114  L 87,114  L 87,113  L 86,113  L 86,112  L 85,112  L 85,113  L 84,113  L 84,112  L 82,112  L 82,111  L 79,111  L 79,110  L 75,110  L 75,109  L 70,109  L 70,108  L 69,108  L 69,109  L 68,109  L 68,108  L 54,108  L 54,107  L 53,107  L 53,108  L 50,108  L 50,109  L 46,109  L 46,110  L 41,110  L 41,111  L 40,111  L 40,112  L 39,112  L 39,115  L 40,115  L 40,116  L 45,116  L 45,117  L 46,117  L 46,116  L 47,116  L 47,117  L 71,117  L 71,118  L 74,118  Z  " style="fill:rgb(0, 0, 0); fill-opacity:1.000; stroke:none;" />
 <path d="  M 101,0  L 100,0  L 100,1  L 98,1  L 98,2  L 97,2  L 97,15  L 98,15  L 98,50  L 99,50  L 99,51  L 98,51  L 98,99  L 99,99  L 99,101  L 103,101  L 103,100  L 105,100  L 105,10  L 104,10  L 104,7  L 105,7  L 105,6  L 104,6  L 104,3  L 103,3  L 103,2  L 102,2  L 102,1  L 101,1  Z  " style="fill:rgb(0, 0, 0); fill-opacity:1.000; stroke:none;" />
</svg>
