<?xml version="1.0" encoding="UTF-8" standalone="no"?>
<!DOCTYPE svg PUBLIC "-//W3C//DTD SVG 1.1//EN" 
  "http://www.w3.org/Graphics/SVG/1.1/DTD/svg11.dtd">
<svg width="110" height="181"
     xmlns="http://www.w3.org/2000/svg" version="1.1">
 <path d="  M 42,86  L 41,86  L 41,105  L 40,105  L 40,106  L 41,106  L 41,109  L 40,109  L 40,110  L 41,110  L 41,120  L 42,120  L 42,121  L 41,121  L 41,122  L 39,122  L 39,123  L 35,123  L 35,124  L 34,124  L 34,125  L 33,125  L 33,126  L 32,126  L 32,127  L 31,127  L 31,128  L 32,128  L 32,129  L 54,129  L 54,128  L 63,128  L 63,127  L 77,127  L 77,128  L 80,128  L 80,129  L 81,129  L 81,130  L 82,130  L 82,131  L 81,131  L 81,133  L 80,133  L 80,134  L 79,134  L 79,135  L 78,135  L 78,137  L 77,137  L 77,139  L 76,139  L 76,140  L 74,140  L 74,141  L 72,141  L 72,143  L 71,143  L 71,144  L 69,144  L 69,145  L 67,145  L 67,146  L 64,146  L 64,147  L 59,147  L 59,148  L 55,148  L 55,149  L 54,149  L 54,148  L 53,148  L 53,149  L 52,149  L 52,148  L 51,148  L 51,149  L 36,149  L 36,148  L 35,148  L 35,149  L 33,149  L 33,148  L 27,148  L 27,149  L 26,149  L 26,150  L 25,150  L 25,151  L 24,151  L 24,153  L 23,153  L 23,155  L 22,155  L 22,168  L 23,168  L 23,169  L 24,169  L 24,172  L 26,172  L 26,174  L 27,174  L 27,177  L 29,177  L 29,178  L 30,178  L 30,180  L 33,180  L 33,181  L 75,181  L 75,180  L 80,180  L 80,179  L 85,179  L 85,178  L 90,178  L 90,177  L 93,177  L 93,176  L 95,176  L 95,175  L 97,175  L 97,174  L 100,174  L 100,173  L 102,173  L 102,172  L 105,172  L 105,171  L 107,171  L 107,170  L 108,170  L 108,167  L 106,167  L 106,166  L 105,166  L 105,165  L 103,165  L 103,166  L 101,166  L 101,167  L 96,167  L 96,168  L 92,168  L 92,169  L 88,169  L 88,170  L 86,170  L 86,171  L 83,171  L 83,172  L 81,172  L 81,171  L 80,171  L 80,172  L 78,172  L 78,173  L 72,173  L 72,174  L 64,174  L 64,175  L 62,175  L 62,174  L 61,174  L 61,175  L 46,175  L 46,174  L 37,174  L 37,173  L 34,173  L 34,172  L 33,172  L 33,171  L 31,171  L 31,170  L 30,170  L 30,169  L 29,169  L 29,159  L 30,159  L 30,157  L 31,157  L 31,156  L 39,156  L 39,157  L 45,157  L 45,158  L 48,158  L 48,157  L 49,157  L 49,158  L 50,158  L 50,157  L 53,157  L 53,158  L 55,158  L 55,157  L 59,157  L 59,156  L 65,156  L 65,155  L 66,155  L 66,154  L 70,154  L 70,152  L 73,152  L 73,150  L 75,150  L 75,149  L 76,149  L 76,148  L 78,148  L 78,147  L 79,147  L 79,146  L 80,146  L 80,145  L 81,145  L 81,143  L 82,143  L 82,142  L 83,142  L 83,141  L 84,141  L 84,140  L 85,140  L 85,139  L 87,139  L 87,137  L 88,137  L 88,135  L 89,135  L 89,129  L 88,129  L 88,126  L 87,126  L 87,124  L 86,124  L 86,123  L 84,123  L 84,121  L 82,121  L 82,120  L 81,120  L 81,119  L 80,119  L 80,115  L 79,115  L 79,82  L 80,82  L 80,79  L 81,79  L 81,78  L 83,78  L 83,77  L 90,77  L 90,76  L 97,76  L 97,75  L 103,75  L 103,74  L 108,74  L 108,73  L 110,73  L 110,65  L 109,65  L 109,64  L 104,64  L 104,65  L 102,65  L 102,66  L 97,66  L 97,67  L 93,67  L 93,68  L 92,68  L 92,67  L 91,67  L 91,68  L 90,68  L 90,67  L 89,67  L 89,68  L 85,68  L 85,69  L 77,69  L 77,70  L 76,70  L 76,69  L 75,69  L 75,70  L 72,70  L 72,69  L 71,69  L 71,70  L 66,70  L 66,71  L 65,71  L 65,70  L 63,70  L 63,71  L 53,71  L 53,72  L 52,72  L 52,71  L 51,71  L 51,72  L 50,72  L 50,71  L 49,71  L 49,72  L 48,72  L 48,71  L 45,71  L 45,72  L 44,72  L 44,71  L 43,71  L 43,72  L 30,72  L 30,71  L 29,71  L 29,72  L 28,72  L 28,71  L 27,71  L 27,72  L 26,72  L 26,71  L 25,71  L 25,72  L 14,72  L 14,71  L 13,71  L 13,72  L 12,72  L 12,73  L 10,73  L 10,72  L 9,72  L 9,73  L 5,73  L 5,74  L 2,74  L 2,75  L 1,75  L 1,78  L 0,78  L 0,79  L 1,79  L 1,80  L 5,80  L 5,81  L 11,81  L 11,80  L 12,80  L 12,81  L 13,81  L 13,80  L 19,80  L 19,79  L 20,79  L 20,80  L 21,80  L 21,79  L 27,79  L 27,78  L 29,78  L 29,79  L 30,79  L 30,78  L 32,78  L 32,79  L 35,79  L 35,78  L 37,78  L 37,79  L 38,79  L 38,78  L 41,78  L 41,79  L 42,79  Z  M 71,103  L 72,103  L 72,105  L 71,105  L 71,106  L 72,106  L 72,117  L 71,117  L 71,118  L 72,118  L 72,119  L 70,119  L 70,120  L 60,120  L 60,121  L 48,121  L 48,102  L 49,102  L 49,94  L 50,94  L 50,93  L 49,93  L 49,90  L 50,90  L 50,88  L 49,88  L 49,82  L 50,82  L 50,79  L 54,79  L 54,78  L 55,78  L 55,79  L 56,79  L 56,78  L 57,78  L 57,79  L 58,79  L 58,78  L 69,78  L 69,77  L 70,77  L 70,78  L 71,78  Z  " style="fill:rgb(0, 0, 0); fill-opacity:1.000; stroke:none;" />
 <path d="  M 83,39  L 82,39  L 82,40  L 83,40  L 83,41  L 82,41  L 82,43  L 81,43  L 81,44  L 77,44  L 77,45  L 75,45  L 75,44  L 73,44  L 73,45  L 71,45  L 71,46  L 64,46  L 64,47  L 59,47  L 59,48  L 53,48  L 53,49  L 40,49  L 40,48  L 37,48  L 37,49  L 36,49  L 36,48  L 35,48  L 35,47  L 34,47  L 34,38  L 35,38  L 35,37  L 34,37  L 34,18  L 36,18  L 36,17  L 38,17  L 38,16  L 41,16  L 41,15  L 43,15  L 43,14  L 47,14  L 47,13  L 50,13  L 50,12  L 51,12  L 51,13  L 52,13  L 52,12  L 55,12  L 55,11  L 56,11  L 56,12  L 57,12  L 57,11  L 63,11  L 63,10  L 77,10  L 77,11  L 80,11  L 80,12  L 83,12  L 83,13  L 84,13  L 84,15  L 85,15  L 85,24  L 84,24  L 84,35  L 83,35  Z  M 91,32  L 92,32  L 92,31  L 91,31  L 91,30  L 92,30  L 92,25  L 93,25  L 93,22  L 94,22  L 94,18  L 95,18  L 95,17  L 94,17  L 94,15  L 93,15  L 93,13  L 92,13  L 92,10  L 91,10  L 91,8  L 90,8  L 90,7  L 88,7  L 88,6  L 87,6  L 87,5  L 86,5  L 86,4  L 83,4  L 83,3  L 81,3  L 81,2  L 79,2  L 79,1  L 78,1  L 78,2  L 77,2  L 77,1  L 65,1  L 65,2  L 64,2  L 64,1  L 62,1  L 62,2  L 60,2  L 60,1  L 58,1  L 58,2  L 51,2  L 51,3  L 45,3  L 45,4  L 43,4  L 43,5  L 41,5  L 41,6  L 38,6  L 38,7  L 37,7  L 37,8  L 34,8  L 34,9  L 33,9  L 33,10  L 31,10  L 31,11  L 26,11  L 26,10  L 24,10  L 24,11  L 21,11  L 21,13  L 20,13  L 20,14  L 21,14  L 21,16  L 22,16  L 22,18  L 23,18  L 23,19  L 24,19  L 24,20  L 25,20  L 25,23  L 26,23  L 26,38  L 27,38  L 27,49  L 28,49  L 28,51  L 29,51  L 29,53  L 30,53  L 30,54  L 31,54  L 31,55  L 32,55  L 32,56  L 33,56  L 33,57  L 36,57  L 36,58  L 41,58  L 41,57  L 42,57  L 42,58  L 45,58  L 45,57  L 46,57  L 46,58  L 49,58  L 49,57  L 50,57  L 50,58  L 52,58  L 52,57  L 58,57  L 58,56  L 59,56  L 59,57  L 60,57  L 60,56  L 63,56  L 63,55  L 67,55  L 67,54  L 73,54  L 73,53  L 75,53  L 75,52  L 79,52  L 79,51  L 80,51  L 80,52  L 81,52  L 81,51  L 84,51  L 84,50  L 87,50  L 87,49  L 88,49  L 88,48  L 89,48  L 89,47  L 90,47  L 90,42  L 91,42  Z  " style="fill:rgb(0, 0, 0); fill-opacity:1.000; stroke:none;" />
</svg>
