<?xml version="1.0" encoding="UTF-8" standalone="no"?>
<!DOCTYPE svg PUBLIC "-//W3C//DTD SVG 1.1//EN" 
  "http://www.w3.org/Graphics/SVG/1.1/DTD/svg11.dtd">
<svg width="109" height="165"
     xmlns="http://www.w3.org/2000/svg" version="1.1">
 <path d="  M 8,75  L 8,74  L 14,74  L 14,73  L 16,73  L 16,74  L 17,74  L 17,73  L 23,73  L 23,72  L 25,72  L 25,73  L 26,73  L 26,72  L 28,72  L 28,71  L 29,71  L 29,72  L 30,72  L 30,71  L 34,71  L 34,70  L 35,70  L 35,72  L 36,72  L 36,99  L 37,99  L 37,102  L 39,102  L 39,103  L 40,103  L 40,104  L 42,104  L 42,103  L 43,103  L 43,101  L 44,101  L 44,100  L 43,100  L 43,99  L 44,99  L 44,98  L 43,98  L 43,93  L 44,93  L 44,92  L 43,92  L 43,87  L 44,87  L 44,84  L 43,84  L 43,83  L 44,83  L 44,80  L 43,80  L 43,77  L 44,77  L 44,76  L 43,76  L 43,70  L 45,70  L 45,69  L 61,69  L 61,68  L 62,68  L 62,69  L 63,69  L 63,68  L 66,68  L 66,69  L 67,69  L 67,78  L 66,78  L 66,79  L 67,79  L 67,82  L 66,82  L 66,83  L 67,83  L 67,97  L 68,97  L 68,103  L 69,103  L 69,104  L 68,104  L 68,105  L 69,105  L 69,107  L 70,107  L 70,110  L 71,110  L 71,113  L 72,113  L 72,115  L 73,115  L 73,114  L 76,114  L 76,113  L 77,113  L 77,111  L 78,111  L 78,109  L 77,109  L 77,104  L 76,104  L 76,100  L 75,100  L 75,73  L 76,73  L 76,72  L 75,72  L 75,68  L 77,68  L 77,67  L 93,67  L 93,66  L 97,66  L 97,65  L 101,65  L 101,64  L 103,64  L 103,63  L 105,63  L 105,60  L 106,60  L 106,58  L 105,58  L 105,57  L 104,57  L 104,56  L 101,56  L 101,55  L 100,55  L 100,56  L 95,56  L 95,57  L 94,57  L 94,58  L 92,58  L 92,59  L 88,59  L 88,60  L 81,60  L 81,61  L 80,61  L 80,60  L 79,60  L 79,61  L 66,61  L 66,62  L 65,62  L 65,61  L 64,61  L 64,62  L 61,62  L 61,61  L 60,61  L 60,62  L 55,62  L 55,63  L 54,63  L 54,62  L 52,62  L 52,63  L 50,63  L 50,62  L 49,62  L 49,63  L 40,63  L 40,64  L 39,64  L 39,63  L 36,63  L 36,64  L 27,64  L 27,65  L 20,65  L 20,66  L 15,66  L 15,67  L 2,67  L 2,68  L 1,68  L 1,69  L 0,69  L 0,73  L 1,73  L 1,74  L 2,74  L 2,75  Z  " style="fill:rgb(0, 0, 0); fill-opacity:1.000; stroke:none;" />
 <path d="  M 12,15  L 15,15  L 15,16  L 16,16  L 16,15  L 19,15  L 19,14  L 20,14  L 20,13  L 21,13  L 21,12  L 23,12  L 23,13  L 24,13  L 24,42  L 25,42  L 25,44  L 26,44  L 26,46  L 27,46  L 27,48  L 28,48  L 28,49  L 29,49  L 29,50  L 32,50  L 32,51  L 45,51  L 45,50  L 46,50  L 46,51  L 47,51  L 47,50  L 48,50  L 48,51  L 49,51  L 49,50  L 50,50  L 50,51  L 51,51  L 51,50  L 60,50  L 60,49  L 68,49  L 68,48  L 71,48  L 71,47  L 72,47  L 72,46  L 74,46  L 74,45  L 76,45  L 76,44  L 78,44  L 78,43  L 80,43  L 80,41  L 81,41  L 81,36  L 82,36  L 82,35  L 81,35  L 81,33  L 82,33  L 82,25  L 83,25  L 83,24  L 82,24  L 82,23  L 83,23  L 83,20  L 82,20  L 82,19  L 83,19  L 83,5  L 82,5  L 82,3  L 81,3  L 81,2  L 80,2  L 80,1  L 52,1  L 52,2  L 51,2  L 51,1  L 49,1  L 49,2  L 36,2  L 36,3  L 30,3  L 30,4  L 27,4  L 27,5  L 25,5  L 25,6  L 18,6  L 18,7  L 16,7  L 16,8  L 14,8  L 14,9  L 11,9  L 11,10  L 10,10  L 10,12  L 11,12  L 11,14  L 12,14  Z  M 75,34  L 74,34  L 74,39  L 73,39  L 73,40  L 71,40  L 71,41  L 67,41  L 67,42  L 62,42  L 62,43  L 51,43  L 51,44  L 49,44  L 49,43  L 48,43  L 48,44  L 33,44  L 33,43  L 32,43  L 32,42  L 31,42  L 31,17  L 32,17  L 32,16  L 31,16  L 31,13  L 32,13  L 32,11  L 37,11  L 37,10  L 43,10  L 43,9  L 59,9  L 59,8  L 75,8  L 75,9  L 76,9  L 76,26  L 75,26  Z  " style="fill:rgb(0, 0, 0); fill-opacity:1.000; stroke:none;" />
 <path d="  M 41,128  L 40,128  L 40,129  L 38,129  L 38,130  L 37,130  L 37,132  L 36,132  L 36,134  L 34,134  L 34,136  L 33,136  L 33,137  L 32,137  L 32,138  L 31,138  L 31,139  L 30,139  L 30,141  L 29,141  L 29,142  L 28,142  L 28,143  L 27,143  L 27,144  L 26,144  L 26,146  L 25,146  L 25,147  L 24,147  L 24,148  L 23,148  L 23,150  L 21,150  L 21,151  L 20,151  L 20,152  L 19,152  L 19,154  L 18,154  L 18,156  L 16,156  L 16,157  L 15,157  L 15,158  L 14,158  L 14,164  L 15,164  L 15,165  L 19,165  L 19,164  L 20,164  L 20,163  L 22,163  L 22,162  L 23,162  L 23,161  L 24,161  L 24,160  L 25,160  L 25,159  L 26,159  L 26,158  L 27,158  L 27,156  L 28,156  L 28,155  L 30,155  L 30,154  L 31,154  L 31,152  L 32,152  L 32,151  L 33,151  L 33,150  L 34,150  L 34,149  L 35,149  L 35,148  L 36,148  L 36,147  L 37,147  L 37,146  L 38,146  L 38,145  L 39,145  L 39,143  L 41,143  L 41,141  L 42,141  L 42,140  L 43,140  L 43,139  L 44,139  L 44,137  L 45,137  L 45,136  L 46,136  L 46,135  L 47,135  L 47,134  L 50,134  L 50,135  L 52,135  L 52,136  L 53,136  L 53,137  L 55,137  L 55,138  L 56,138  L 56,139  L 58,139  L 58,140  L 59,140  L 59,141  L 61,141  L 61,142  L 62,142  L 62,143  L 64,143  L 64,144  L 66,144  L 66,145  L 68,145  L 68,146  L 70,146  L 70,147  L 72,147  L 72,148  L 75,148  L 75,149  L 78,149  L 78,150  L 80,150  L 80,151  L 84,151  L 84,152  L 90,152  L 90,153  L 92,153  L 92,154  L 94,154  L 94,155  L 96,155  L 96,156  L 97,156  L 97,157  L 98,157  L 98,159  L 99,159  L 99,162  L 102,162  L 102,161  L 104,161  L 104,160  L 106,160  L 106,159  L 107,159  L 107,158  L 108,158  L 108,157  L 109,157  L 109,153  L 108,153  L 108,152  L 106,152  L 106,151  L 99,151  L 99,150  L 97,150  L 97,149  L 94,149  L 94,148  L 92,148  L 92,147  L 89,147  L 89,146  L 85,146  L 85,145  L 84,145  L 84,144  L 81,144  L 81,143  L 79,143  L 79,142  L 76,142  L 76,141  L 74,141  L 74,140  L 73,140  L 73,139  L 71,139  L 71,138  L 69,138  L 69,137  L 67,137  L 67,136  L 65,136  L 65,135  L 64,135  L 64,134  L 63,134  L 63,133  L 62,133  L 62,132  L 61,132  L 61,131  L 59,131  L 59,130  L 58,130  L 58,129  L 56,129  L 56,128  L 55,128  L 55,127  L 54,127  L 54,123  L 55,123  L 55,121  L 56,121  L 56,119  L 57,119  L 57,118  L 58,118  L 58,117  L 57,117  L 57,116  L 56,116  L 56,115  L 52,115  L 52,116  L 50,116  L 50,117  L 49,117  L 49,119  L 47,119  L 47,120  L 46,120  L 46,122  L 45,122  L 45,123  L 44,123  L 44,124  L 43,124  L 43,125  L 42,125  L 42,126  L 41,126  Z  " style="fill:rgb(0, 0, 0); fill-opacity:1.000; stroke:none;" />
</svg>
