<?xml version="1.0" encoding="UTF-8" standalone="no"?>
<!DOCTYPE svg PUBLIC "-//W3C//DTD SVG 1.1//EN" 
  "http://www.w3.org/Graphics/SVG/1.1/DTD/svg11.dtd">
<svg width="104" height="101"
     xmlns="http://www.w3.org/2000/svg" version="1.1">
 <path d="  M 62,99  L 76,99  L 76,98  L 91,98  L 91,97  L 93,97  L 93,98  L 94,98  L 94,97  L 97,97  L 97,98  L 99,98  L 99,97  L 103,97  L 103,96  L 104,96  L 104,90  L 102,90  L 102,89  L 95,89  L 95,90  L 90,90  L 90,91  L 89,91  L 89,90  L 87,90  L 87,91  L 77,91  L 77,92  L 65,92  L 65,93  L 64,93  L 64,92  L 61,92  L 61,93  L 34,93  L 34,94  L 33,94  L 33,93  L 27,93  L 27,94  L 24,94  L 24,93  L 23,93  L 23,94  L 14,94  L 14,95  L 4,95  L 4,96  L 2,96  L 2,98  L 1,98  L 1,99  L 0,99  L 0,100  L 1,100  L 1,101  L 27,101  L 27,100  L 30,100  L 30,101  L 31,101  L 31,100  L 62,100  Z  " style="fill:rgb(0, 0, 0); fill-opacity:1.000; stroke:none;" />
 <path d="  M 13,9  L 14,9  L 14,8  L 13,8  Z  " style="fill:rgb(0, 0, 0); fill-opacity:1.000; stroke:none;" />
 <path d="  M 17,11  L 17,10  L 16,10  L 16,11  Z  " style="fill:rgb(0, 0, 0); fill-opacity:1.000; stroke:none;" />
 <path d="  M 19,12  L 19,13  L 20,13  L 20,15  L 21,15  L 21,52  L 22,52  L 22,57  L 24,57  L 24,60  L 25,60  L 25,59  L 26,59  L 26,60  L 27,60  L 27,61  L 52,61  L 52,60  L 53,60  L 53,61  L 56,61  L 56,60  L 57,60  L 57,61  L 58,61  L 58,60  L 66,60  L 66,59  L 73,59  L 73,58  L 77,58  L 77,57  L 80,57  L 80,56  L 81,56  L 81,55  L 82,55  L 82,52  L 81,52  L 81,28  L 82,28  L 82,17  L 83,17  L 83,16  L 82,16  L 82,15  L 83,15  L 83,8  L 82,8  L 82,5  L 81,5  L 81,4  L 80,4  L 80,3  L 78,3  L 78,2  L 76,2  L 76,1  L 61,1  L 61,2  L 47,2  L 47,3  L 46,3  L 46,2  L 43,2  L 43,3  L 40,3  L 40,2  L 39,2  L 39,3  L 25,3  L 25,4  L 23,4  L 23,5  L 21,5  L 21,6  L 19,6  L 19,7  L 18,7  L 18,8  L 17,8  L 17,10  L 18,10  L 18,11  L 17,11  L 17,12  Z  M 73,52  L 70,52  L 70,53  L 62,53  L 62,54  L 29,54  L 29,53  L 28,53  L 28,48  L 27,48  L 27,47  L 28,47  L 28,46  L 27,46  L 27,13  L 28,13  L 28,12  L 29,12  L 29,11  L 31,11  L 31,10  L 38,10  L 38,9  L 52,9  L 52,8  L 53,8  L 53,9  L 54,9  L 54,8  L 55,8  L 55,9  L 56,9  L 56,8  L 72,8  L 72,9  L 76,9  L 76,16  L 75,16  L 75,26  L 74,26  L 74,36  L 73,36  L 73,37  L 74,37  L 74,40  L 73,40  L 73,41  L 74,41  L 74,44  L 73,44  Z  " style="fill:rgb(0, 0, 0); fill-opacity:1.000; stroke:none;" />
</svg>
