<?xml version="1.0" encoding="UTF-8" standalone="no"?>
<!DOCTYPE svg PUBLIC "-//W3C//DTD SVG 1.1//EN" 
  "http://www.w3.org/Graphics/SVG/1.1/DTD/svg11.dtd">
<svg width="105" height="181"
     xmlns="http://www.w3.org/2000/svg" version="1.1">
 <path d="  M 51,54  L 50,54  L 50,55  L 51,55  L 51,57  L 50,57  L 50,70  L 49,70  L 49,73  L 48,73  L 48,74  L 44,74  L 44,75  L 41,75  L 41,76  L 34,76  L 34,77  L 23,77  L 23,78  L 22,78  L 22,77  L 21,77  L 21,78  L 20,78  L 20,77  L 18,77  L 18,76  L 17,76  L 17,74  L 16,74  L 16,40  L 15,40  L 15,39  L 16,39  L 16,36  L 15,36  L 15,31  L 16,31  L 16,30  L 15,30  L 15,29  L 16,29  L 16,28  L 15,28  L 15,24  L 16,24  L 16,23  L 34,23  L 34,22  L 53,22  L 53,29  L 52,29  L 52,37  L 51,37  Z  M 48,15  L 48,14  L 46,14  L 46,15  L 38,15  L 38,16  L 37,16  L 37,15  L 36,15  L 36,16  L 9,16  L 9,17  L 7,17  L 7,18  L 5,18  L 5,19  L 4,19  L 4,20  L 3,20  L 3,19  L 2,19  L 2,20  L 1,20  L 1,23  L 0,23  L 0,25  L 7,25  L 7,28  L 8,28  L 8,33  L 7,33  L 7,35  L 8,35  L 8,47  L 9,47  L 9,50  L 8,50  L 8,51  L 9,51  L 9,68  L 8,68  L 8,69  L 9,69  L 9,78  L 10,78  L 10,81  L 11,81  L 11,83  L 13,83  L 13,84  L 16,84  L 16,85  L 19,85  L 19,86  L 20,86  L 20,85  L 31,85  L 31,84  L 37,84  L 37,83  L 43,83  L 43,82  L 44,82  L 44,83  L 45,83  L 45,82  L 49,82  L 49,81  L 51,81  L 51,80  L 52,80  L 52,79  L 54,79  L 54,78  L 55,78  L 55,76  L 56,76  L 56,75  L 57,75  L 57,73  L 58,73  L 58,63  L 59,63  L 59,47  L 60,47  L 60,32  L 61,32  L 61,27  L 62,27  L 62,22  L 61,22  L 61,20  L 60,20  L 60,18  L 59,18  L 59,17  L 58,17  L 58,16  L 56,16  L 56,15  L 55,15  L 55,14  L 50,14  L 50,15  Z  " style="fill:rgb(0, 0, 0); fill-opacity:1.000; stroke:none;" />
 <path d="  M 55,181  L 55,180  L 56,180  L 56,181  L 74,181  L 74,180  L 77,180  L 77,179  L 82,179  L 82,178  L 85,178  L 85,177  L 88,177  L 88,176  L 91,176  L 91,175  L 94,175  L 94,174  L 95,174  L 95,173  L 97,173  L 97,172  L 99,172  L 99,171  L 101,171  L 101,170  L 102,170  L 102,169  L 103,169  L 103,168  L 104,168  L 104,167  L 105,167  L 105,159  L 104,159  L 104,160  L 102,160  L 102,161  L 100,161  L 100,162  L 98,162  L 98,163  L 96,163  L 96,164  L 95,164  L 95,165  L 93,165  L 93,166  L 91,166  L 91,167  L 90,167  L 90,168  L 87,168  L 87,169  L 85,169  L 85,170  L 80,170  L 80,171  L 79,171  L 79,170  L 78,170  L 78,172  L 74,172  L 74,173  L 69,173  L 69,174  L 58,174  L 58,173  L 51,173  L 51,172  L 47,172  L 47,171  L 45,171  L 45,170  L 44,170  L 44,167  L 43,167  L 43,166  L 42,166  L 42,165  L 43,165  L 43,164  L 42,164  L 42,153  L 43,153  L 43,152  L 45,152  L 45,151  L 47,151  L 47,150  L 49,150  L 49,149  L 51,149  L 51,148  L 55,148  L 55,147  L 58,147  L 58,146  L 63,146  L 63,145  L 67,145  L 67,144  L 71,144  L 71,143  L 73,143  L 73,142  L 74,142  L 74,141  L 76,141  L 76,140  L 78,140  L 78,139  L 79,139  L 79,138  L 80,138  L 80,137  L 82,137  L 82,136  L 83,136  L 83,134  L 86,134  L 86,133  L 87,133  L 87,132  L 88,132  L 88,131  L 90,131  L 90,130  L 91,130  L 91,129  L 92,129  L 92,128  L 93,128  L 93,126  L 94,126  L 94,120  L 93,120  L 93,118  L 92,118  L 92,116  L 90,116  L 90,114  L 88,114  L 88,113  L 87,113  L 87,112  L 85,112  L 85,111  L 84,111  L 84,110  L 79,110  L 79,109  L 75,109  L 75,108  L 70,108  L 70,107  L 67,107  L 67,106  L 66,106  L 66,107  L 65,107  L 65,106  L 60,106  L 60,105  L 48,105  L 48,106  L 42,106  L 42,107  L 39,107  L 39,108  L 38,108  L 38,109  L 37,109  L 37,113  L 38,113  L 38,114  L 41,114  L 41,115  L 43,115  L 43,114  L 48,114  L 48,113  L 63,113  L 63,114  L 68,114  L 68,115  L 73,115  L 73,116  L 76,116  L 76,117  L 79,117  L 79,118  L 78,118  L 78,119  L 81,119  L 81,120  L 82,120  L 82,121  L 83,121  L 83,122  L 84,122  L 84,124  L 83,124  L 83,126  L 82,126  L 82,127  L 81,127  L 81,128  L 79,128  L 79,129  L 78,129  L 78,130  L 77,130  L 77,131  L 74,131  L 74,132  L 73,132  L 73,133  L 71,133  L 71,134  L 69,134  L 69,135  L 67,135  L 67,136  L 64,136  L 64,137  L 63,137  L 63,138  L 60,138  L 60,139  L 59,139  L 59,138  L 58,138  L 58,140  L 52,140  L 52,141  L 49,141  L 49,142  L 46,142  L 46,143  L 44,143  L 44,144  L 42,144  L 42,145  L 41,145  L 41,146  L 39,146  L 39,147  L 38,147  L 38,148  L 37,148  L 37,149  L 36,149  L 36,151  L 35,151  L 35,152  L 34,152  L 34,156  L 33,156  L 33,159  L 34,159  L 34,160  L 33,160  L 33,162  L 34,162  L 34,167  L 35,167  L 35,170  L 36,170  L 36,171  L 35,171  L 35,172  L 36,172  L 36,173  L 37,173  L 37,174  L 39,174  L 39,176  L 41,176  L 41,177  L 44,177  L 44,178  L 45,178  L 45,179  L 47,179  L 47,178  L 48,178  L 48,179  L 49,179  L 49,180  L 52,180  L 52,181  Z  " style="fill:rgb(0, 0, 0); fill-opacity:1.000; stroke:none;" />
 <path d="  M 105,50  L 104,50  L 104,49  L 105,49  L 105,46  L 104,46  L 104,45  L 105,45  L 105,42  L 104,42  L 104,39  L 105,39  L 105,38  L 104,38  L 104,26  L 103,26  L 103,25  L 104,25  L 104,24  L 103,24  L 103,14  L 102,14  L 102,5  L 101,5  L 101,3  L 100,3  L 100,2  L 99,2  L 99,1  L 94,1  L 94,3  L 93,3  L 93,5  L 94,5  L 94,15  L 95,15  L 95,28  L 96,28  L 96,59  L 97,59  L 97,60  L 96,60  L 96,63  L 97,63  L 97,64  L 96,64  L 96,65  L 97,65  L 97,66  L 96,66  L 96,67  L 97,67  L 97,89  L 98,89  L 98,90  L 97,90  L 97,93  L 98,93  L 98,94  L 97,94  L 97,97  L 98,97  L 98,98  L 97,98  L 97,99  L 98,99  L 98,101  L 99,101  L 99,102  L 103,102  L 103,101  L 104,101  L 104,100  L 105,100  Z  " style="fill:rgb(0, 0, 0); fill-opacity:1.000; stroke:none;" />
</svg>
