<?xml version="1.0" encoding="UTF-8" standalone="no"?>
<!DOCTYPE svg PUBLIC "-//W3C//DTD SVG 1.1//EN" 
  "http://www.w3.org/Graphics/SVG/1.1/DTD/svg11.dtd">
<svg width="103" height="170"
     xmlns="http://www.w3.org/2000/svg" version="1.1">
 <path d="  M 51,58  L 50,58  L 50,59  L 51,59  L 51,61  L 50,61  L 50,69  L 49,69  L 49,71  L 48,71  L 48,73  L 47,73  L 47,74  L 43,74  L 43,75  L 41,75  L 41,76  L 36,76  L 36,77  L 33,77  L 33,78  L 27,78  L 27,79  L 21,79  L 21,78  L 19,78  L 19,77  L 18,77  L 18,74  L 17,74  L 17,68  L 18,68  L 18,66  L 17,66  L 17,65  L 18,65  L 18,62  L 17,62  L 17,61  L 18,61  L 18,59  L 17,59  L 17,57  L 18,57  L 18,54  L 17,54  L 17,28  L 18,28  L 18,27  L 19,27  L 19,28  L 21,28  L 21,29  L 37,29  L 37,28  L 38,28  L 38,29  L 40,29  L 40,28  L 42,28  L 42,29  L 43,29  L 43,28  L 48,28  L 48,29  L 51,29  L 51,32  L 52,32  L 52,34  L 51,34  L 51,37  L 52,37  L 52,38  L 51,38  Z  M 63,33  L 63,32  L 62,32  L 62,30  L 63,30  L 63,28  L 61,28  L 61,26  L 60,26  L 60,25  L 59,25  L 59,24  L 58,24  L 58,23  L 57,23  L 57,22  L 55,22  L 55,21  L 53,21  L 53,20  L 48,20  L 48,21  L 45,21  L 45,20  L 44,20  L 44,21  L 41,21  L 41,20  L 40,20  L 40,21  L 32,21  L 32,22  L 31,22  L 31,21  L 30,21  L 30,22  L 21,22  L 21,21  L 15,21  L 15,20  L 8,20  L 8,21  L 4,21  L 4,22  L 3,22  L 3,23  L 2,23  L 2,24  L 1,24  L 1,25  L 0,25  L 0,26  L 1,26  L 1,27  L 2,27  L 2,28  L 4,28  L 4,27  L 8,27  L 8,29  L 9,29  L 9,30  L 8,30  L 8,33  L 9,33  L 9,34  L 8,34  L 8,37  L 9,37  L 9,38  L 8,38  L 8,41  L 9,41  L 9,42  L 8,42  L 8,45  L 9,45  L 9,46  L 8,46  L 8,49  L 9,49  L 9,50  L 8,50  L 8,53  L 9,53  L 9,55  L 8,55  L 8,57  L 9,57  L 9,59  L 8,59  L 8,61  L 9,61  L 9,63  L 8,63  L 8,70  L 9,70  L 9,71  L 8,71  L 8,74  L 9,74  L 9,80  L 10,80  L 10,81  L 11,81  L 11,82  L 12,82  L 12,83  L 13,83  L 13,84  L 15,84  L 15,85  L 17,85  L 17,86  L 29,86  L 29,85  L 33,85  L 33,84  L 34,84  L 34,85  L 35,85  L 35,84  L 40,84  L 40,83  L 44,83  L 44,82  L 49,82  L 49,81  L 51,81  L 51,80  L 52,80  L 52,79  L 53,79  L 53,78  L 54,78  L 54,77  L 55,77  L 55,76  L 56,76  L 56,75  L 57,75  L 57,73  L 58,73  L 58,69  L 59,69  L 59,68  L 58,68  L 58,66  L 59,66  L 59,55  L 60,55  L 60,54  L 59,54  L 59,53  L 60,53  L 60,52  L 59,52  L 59,51  L 60,51  L 60,38  L 61,38  L 61,33  Z  " style="fill:rgb(0, 0, 0); fill-opacity:1.000; stroke:none;" />
 <path d="  M 43,152  L 42,152  L 42,149  L 43,149  L 43,141  L 44,141  L 44,137  L 45,137  L 45,135  L 46,135  L 46,133  L 47,133  L 47,131  L 48,131  L 48,129  L 49,129  L 49,127  L 51,127  L 51,126  L 52,126  L 52,125  L 53,125  L 53,123  L 55,123  L 55,121  L 56,121  L 56,120  L 57,120  L 57,119  L 59,119  L 59,118  L 61,118  L 61,117  L 64,117  L 64,116  L 82,116  L 82,117  L 87,117  L 87,118  L 88,118  L 88,119  L 90,119  L 90,120  L 91,120  L 91,121  L 93,121  L 93,123  L 94,123  L 94,124  L 95,124  L 95,126  L 96,126  L 96,129  L 97,129  L 97,131  L 96,131  L 96,133  L 97,133  L 97,138  L 96,138  L 96,145  L 95,145  L 95,147  L 94,147  L 94,150  L 93,150  L 93,151  L 92,151  L 92,152  L 91,152  L 91,153  L 89,153  L 89,154  L 87,154  L 87,155  L 86,155  L 86,156  L 84,156  L 84,157  L 82,157  L 82,158  L 81,158  L 81,159  L 79,159  L 79,160  L 75,160  L 75,161  L 71,161  L 71,162  L 67,162  L 67,163  L 59,163  L 59,162  L 58,162  L 58,163  L 57,163  L 57,162  L 53,162  L 53,161  L 50,161  L 50,160  L 47,160  L 47,159  L 45,159  L 45,158  L 44,158  L 44,157  L 43,157  Z  M 41,128  L 40,128  L 40,130  L 39,130  L 39,132  L 38,132  L 38,133  L 39,133  L 39,134  L 38,134  L 38,135  L 37,135  L 37,138  L 36,138  L 36,140  L 35,140  L 35,147  L 34,147  L 34,159  L 35,159  L 35,161  L 36,161  L 36,163  L 38,163  L 38,164  L 40,164  L 40,165  L 43,165  L 43,166  L 45,166  L 45,167  L 47,167  L 47,168  L 50,168  L 50,169  L 53,169  L 53,170  L 68,170  L 68,169  L 72,169  L 72,168  L 75,168  L 75,167  L 78,167  L 78,166  L 81,166  L 81,165  L 84,165  L 84,164  L 86,164  L 86,163  L 88,163  L 88,162  L 90,162  L 90,161  L 91,161  L 91,160  L 93,160  L 93,159  L 94,159  L 94,158  L 96,158  L 96,157  L 97,157  L 97,156  L 98,156  L 98,155  L 99,155  L 99,154  L 100,154  L 100,152  L 101,152  L 101,150  L 102,150  L 102,149  L 103,149  L 103,124  L 102,124  L 102,121  L 101,121  L 101,119  L 100,119  L 100,117  L 99,117  L 99,115  L 98,115  L 98,114  L 97,114  L 97,113  L 95,113  L 95,112  L 94,112  L 94,111  L 92,111  L 92,110  L 90,110  L 90,109  L 87,109  L 87,108  L 70,108  L 70,107  L 65,107  L 65,106  L 60,106  L 60,107  L 58,107  L 58,108  L 57,108  L 57,109  L 56,109  L 56,110  L 55,110  L 55,111  L 53,111  L 53,113  L 52,113  L 52,114  L 51,114  L 51,115  L 50,115  L 50,116  L 49,116  L 49,117  L 48,117  L 48,118  L 47,118  L 47,119  L 46,119  L 46,121  L 45,121  L 45,122  L 44,122  L 44,123  L 43,123  L 43,124  L 42,124  L 42,126  L 41,126  Z  " style="fill:rgb(0, 0, 0); fill-opacity:1.000; stroke:none;" />
 <path d="  M 94,91  L 95,91  L 95,97  L 96,97  L 96,99  L 98,99  L 98,98  L 99,98  L 99,99  L 101,99  L 101,98  L 102,98  L 102,97  L 103,97  L 103,94  L 102,94  L 102,93  L 103,93  L 103,92  L 102,92  L 102,44  L 101,44  L 101,43  L 102,43  L 102,42  L 101,42  L 101,41  L 102,41  L 102,40  L 101,40  L 101,39  L 102,39  L 102,38  L 101,38  L 101,37  L 102,37  L 102,36  L 101,36  L 101,28  L 100,28  L 100,20  L 99,20  L 99,14  L 98,14  L 98,13  L 99,13  L 99,12  L 98,12  L 98,9  L 99,9  L 99,8  L 98,8  L 98,4  L 97,4  L 97,3  L 96,3  L 96,1  L 95,1  L 95,0  L 92,0  L 92,1  L 91,1  L 91,2  L 90,2  L 90,13  L 91,13  L 91,14  L 90,14  L 90,15  L 91,15  L 91,21  L 92,21  L 92,23  L 91,23  L 91,24  L 92,24  L 92,30  L 93,30  L 93,39  L 94,39  L 94,41  L 93,41  L 93,43  L 94,43  L 94,45  L 93,45  L 93,46  L 94,46  Z  " style="fill:rgb(0, 0, 0); fill-opacity:1.000; stroke:none;" />
</svg>
