<?xml version="1.0" encoding="UTF-8" standalone="no"?>
<!DOCTYPE svg PUBLIC "-//W3C//DTD SVG 1.1//EN" 
  "http://www.w3.org/Graphics/SVG/1.1/DTD/svg11.dtd">
<svg width="101" height="151"
     xmlns="http://www.w3.org/2000/svg" version="1.1">
 <path d="  M 1,39  L 0,39  L 0,40  L 1,40  L 1,41  L 0,41  L 0,42  L 1,42  L 1,65  L 2,65  L 2,70  L 3,70  L 3,73  L 4,73  L 4,74  L 5,74  L 5,75  L 6,75  L 6,76  L 9,76  L 9,77  L 22,77  L 22,76  L 30,76  L 30,75  L 32,75  L 32,74  L 35,74  L 35,73  L 38,73  L 38,72  L 39,72  L 39,71  L 40,71  L 40,70  L 42,70  L 42,69  L 43,69  L 43,68  L 45,68  L 45,66  L 46,66  L 46,65  L 47,65  L 47,62  L 48,62  L 48,54  L 49,54  L 49,34  L 50,34  L 50,33  L 49,33  L 49,32  L 50,32  L 50,24  L 51,24  L 51,21  L 52,21  L 52,20  L 51,20  L 51,19  L 52,19  L 52,10  L 53,10  L 53,8  L 52,8  L 52,7  L 53,7  L 53,6  L 52,6  L 52,5  L 51,5  L 51,4  L 47,4  L 47,5  L 46,5  L 46,6  L 47,6  L 47,9  L 46,9  L 46,17  L 45,17  L 45,23  L 44,23  L 44,31  L 43,31  L 43,39  L 42,39  L 42,40  L 41,40  L 41,41  L 38,41  L 38,40  L 37,40  L 37,41  L 34,41  L 34,40  L 33,40  L 33,41  L 22,41  L 22,42  L 21,42  L 21,41  L 20,41  L 20,42  L 19,42  L 19,41  L 18,41  L 18,42  L 15,42  L 15,41  L 14,41  L 14,42  L 9,42  L 9,41  L 8,41  L 8,38  L 9,38  L 9,37  L 8,37  L 8,34  L 9,34  L 9,33  L 8,33  L 8,31  L 9,31  L 9,14  L 10,14  L 10,13  L 9,13  L 9,12  L 10,12  L 10,6  L 9,6  L 9,5  L 8,5  L 8,4  L 6,4  L 6,3  L 5,3  L 5,4  L 2,4  L 2,5  L 1,5  L 1,6  L 2,6  L 2,7  L 1,7  L 1,35  L 0,35  L 0,37  L 1,37  Z  M 42,51  L 41,51  L 41,59  L 40,59  L 40,63  L 39,63  L 39,64  L 38,64  L 38,65  L 36,65  L 36,66  L 33,66  L 33,67  L 30,67  L 30,68  L 27,68  L 27,69  L 22,69  L 22,70  L 21,70  L 21,69  L 18,69  L 18,70  L 11,70  L 11,69  L 10,69  L 10,68  L 9,68  L 9,65  L 8,65  L 8,49  L 9,49  L 9,48  L 19,48  L 19,47  L 20,47  L 20,48  L 21,48  L 21,47  L 39,47  L 39,46  L 40,46  L 40,47  L 41,47  L 41,48  L 42,48  L 42,49  L 41,49  L 41,50  L 42,50  Z  " style="fill:rgb(0, 0, 0); fill-opacity:1.000; stroke:none;" />
 <path d="  M 61,130  L 61,135  L 60,135  L 60,140  L 59,140  L 59,143  L 58,143  L 58,151  L 64,151  L 64,150  L 65,150  L 65,148  L 66,148  L 66,146  L 67,146  L 67,138  L 68,138  L 68,134  L 69,134  L 69,133  L 68,133  L 68,132  L 69,132  L 69,126  L 70,126  L 70,125  L 69,125  L 69,124  L 70,124  L 70,119  L 71,119  L 71,113  L 72,113  L 72,110  L 73,110  L 73,109  L 72,109  L 72,106  L 71,106  L 71,104  L 70,104  L 70,102  L 69,102  L 69,101  L 67,101  L 67,100  L 65,100  L 65,99  L 61,99  L 61,98  L 44,98  L 44,99  L 43,99  L 43,98  L 42,98  L 42,99  L 36,99  L 36,100  L 29,100  L 29,101  L 25,101  L 25,103  L 24,103  L 24,104  L 25,104  L 25,106  L 26,106  L 26,107  L 28,107  L 28,108  L 33,108  L 33,107  L 37,107  L 37,106  L 43,106  L 43,105  L 44,105  L 44,106  L 45,106  L 45,105  L 48,105  L 48,106  L 49,106  L 49,105  L 58,105  L 58,106  L 62,106  L 62,107  L 63,107  L 63,108  L 64,108  L 64,109  L 65,109  L 65,115  L 64,115  L 64,119  L 63,119  L 63,124  L 62,124  L 62,130  Z  " style="fill:rgb(0, 0, 0); fill-opacity:1.000; stroke:none;" />
 <path d="  M 70,89  L 75,89  L 75,88  L 76,88  L 76,86  L 77,86  L 77,85  L 76,85  L 76,83  L 77,83  L 77,46  L 78,46  L 78,45  L 81,45  L 81,46  L 82,46  L 82,45  L 89,45  L 89,46  L 90,46  L 90,45  L 99,45  L 99,44  L 100,44  L 100,43  L 101,43  L 101,39  L 100,39  L 100,38  L 95,38  L 95,37  L 94,37  L 94,38  L 91,38  L 91,37  L 90,37  L 90,38  L 87,38  L 87,37  L 86,37  L 86,38  L 84,38  L 84,37  L 82,37  L 82,38  L 77,38  L 77,21  L 76,21  L 76,11  L 75,11  L 75,4  L 74,4  L 74,1  L 69,1  L 69,3  L 68,3  L 68,6  L 69,6  L 69,17  L 70,17  Z  " style="fill:rgb(0, 0, 0); fill-opacity:1.000; stroke:none;" />
</svg>
