<?xml version="1.0" encoding="UTF-8" standalone="no"?>
<!DOCTYPE svg PUBLIC "-//W3C//DTD SVG 1.1//EN" 
  "http://www.w3.org/Graphics/SVG/1.1/DTD/svg11.dtd">
<svg width="103" height="133"
     xmlns="http://www.w3.org/2000/svg" version="1.1">
 <path d="  M 1,39  L 2,39  L 2,51  L 3,51  L 3,59  L 4,59  L 4,60  L 5,60  L 5,62  L 6,62  L 6,63  L 7,63  L 7,64  L 8,64  L 8,65  L 10,65  L 10,66  L 19,66  L 19,65  L 28,65  L 28,64  L 33,64  L 33,63  L 37,63  L 37,62  L 41,62  L 41,61  L 44,61  L 44,60  L 46,60  L 46,59  L 47,59  L 47,58  L 48,58  L 48,55  L 49,55  L 49,46  L 50,46  L 50,27  L 51,27  L 51,26  L 50,26  L 50,25  L 51,25  L 51,15  L 52,15  L 52,10  L 53,10  L 53,2  L 51,2  L 51,1  L 50,1  L 50,2  L 48,2  L 48,4  L 47,4  L 47,5  L 48,5  L 48,6  L 47,6  L 47,12  L 46,12  L 46,19  L 45,19  L 45,26  L 44,26  L 44,27  L 45,27  L 45,28  L 44,28  L 44,32  L 43,32  L 43,33  L 41,33  L 41,34  L 40,34  L 40,33  L 37,33  L 37,34  L 26,34  L 26,35  L 25,35  L 25,34  L 24,34  L 24,35  L 21,35  L 21,34  L 20,34  L 20,35  L 17,35  L 17,34  L 16,34  L 16,35  L 14,35  L 14,34  L 13,34  L 13,35  L 11,35  L 11,36  L 10,36  L 10,34  L 9,34  L 9,25  L 10,25  L 10,24  L 9,24  L 9,23  L 10,23  L 10,11  L 11,11  L 11,3  L 10,3  L 10,2  L 7,2  L 7,1  L 4,1  L 4,2  L 3,2  L 3,3  L 2,3  L 2,17  L 1,17  L 1,20  L 2,20  L 2,21  L 1,21  L 1,35  L 2,35  L 2,36  L 1,36  Z  M 9,41  L 10,41  L 10,39  L 11,39  L 11,40  L 13,40  L 13,41  L 17,41  L 17,40  L 18,40  L 18,41  L 19,41  L 19,40  L 33,40  L 33,39  L 34,39  L 34,40  L 35,40  L 35,39  L 36,39  L 36,40  L 37,40  L 37,39  L 38,39  L 38,40  L 39,40  L 39,39  L 43,39  L 43,53  L 42,53  L 42,54  L 39,54  L 39,55  L 36,55  L 36,56  L 32,56  L 32,57  L 28,57  L 28,58  L 23,58  L 23,59  L 22,59  L 22,58  L 20,58  L 20,59  L 11,59  L 11,58  L 10,58  L 10,55  L 9,55  Z  " style="fill:rgb(0, 0, 0); fill-opacity:1.000; stroke:none;" />
 <path d="  M 51,133  L 51,132  L 57,132  L 57,131  L 58,131  L 58,132  L 59,132  L 59,131  L 63,131  L 63,130  L 72,130  L 72,129  L 85,129  L 85,128  L 88,128  L 88,126  L 89,126  L 89,124  L 90,124  L 90,123  L 89,123  L 89,121  L 84,121  L 84,122  L 72,122  L 72,123  L 69,123  L 69,122  L 68,122  L 68,123  L 64,123  L 64,124  L 57,124  L 57,125  L 52,125  L 52,126  L 44,126  L 44,127  L 37,127  L 37,126  L 36,126  L 36,127  L 35,127  L 35,126  L 34,126  L 34,123  L 33,123  L 33,118  L 32,118  L 32,110  L 31,110  L 31,109  L 32,109  L 32,108  L 31,108  L 31,107  L 32,107  L 32,106  L 31,106  L 31,97  L 30,97  L 30,95  L 31,95  L 31,94  L 30,94  L 30,85  L 29,85  L 29,84  L 25,84  L 25,86  L 24,86  L 24,103  L 25,103  L 25,119  L 26,119  L 26,121  L 25,121  L 25,122  L 26,122  L 26,125  L 27,125  L 27,130  L 28,130  L 28,131  L 29,131  L 29,132  L 30,132  L 30,133  Z  " style="fill:rgb(0, 0, 0); fill-opacity:1.000; stroke:none;" />
 <path d="  M 68,17  L 69,17  L 69,84  L 70,84  L 70,85  L 75,85  L 75,84  L 76,84  L 76,83  L 77,83  L 77,80  L 76,80  L 76,79  L 77,79  L 77,78  L 76,78  L 76,75  L 77,75  L 77,74  L 76,74  L 76,45  L 79,45  L 79,44  L 93,44  L 93,43  L 94,43  L 94,44  L 97,44  L 97,43  L 98,43  L 98,44  L 100,44  L 100,43  L 101,43  L 101,42  L 103,42  L 103,38  L 102,38  L 102,37  L 100,37  L 100,36  L 94,36  L 94,37  L 93,37  L 93,36  L 90,36  L 90,37  L 89,37  L 89,36  L 87,36  L 87,37  L 86,37  L 86,36  L 76,36  L 76,26  L 75,26  L 75,25  L 76,25  L 76,24  L 75,24  L 75,14  L 74,14  L 74,8  L 73,8  L 73,4  L 74,4  L 74,3  L 73,3  L 73,1  L 72,1  L 72,0  L 68,0  L 68,1  L 67,1  L 67,10  L 68,10  Z  " style="fill:rgb(0, 0, 0); fill-opacity:1.000; stroke:none;" />
</svg>
