<?xml version="1.0" encoding="UTF-8" standalone="no"?>
<!DOCTYPE svg PUBLIC "-//W3C//DTD SVG 1.1//EN" 
  "http://www.w3.org/Graphics/SVG/1.1/DTD/svg11.dtd">
<svg width="105" height="145"
     xmlns="http://www.w3.org/2000/svg" version="1.1">
 <path d="  M 1,49  L 2,49  L 2,52  L 1,52  L 1,53  L 2,53  L 2,64  L 3,64  L 3,69  L 4,69  L 4,72  L 5,72  L 5,73  L 6,73  L 6,74  L 7,74  L 7,75  L 9,75  L 9,76  L 15,76  L 15,77  L 16,77  L 16,76  L 25,76  L 25,75  L 30,75  L 30,74  L 34,74  L 34,73  L 36,73  L 36,72  L 39,72  L 39,71  L 40,71  L 40,70  L 42,70  L 42,69  L 43,69  L 43,68  L 44,68  L 44,67  L 45,67  L 45,66  L 46,66  L 46,65  L 47,65  L 47,64  L 48,64  L 48,62  L 49,62  L 49,57  L 50,57  L 50,41  L 51,41  L 51,40  L 50,40  L 50,37  L 51,37  L 51,29  L 52,29  L 52,25  L 53,25  L 53,15  L 54,15  L 54,9  L 55,9  L 55,8  L 54,8  L 54,7  L 55,7  L 55,3  L 54,3  L 54,2  L 53,2  L 53,1  L 50,1  L 50,2  L 49,2  L 49,4  L 48,4  L 48,16  L 47,16  L 47,22  L 46,22  L 46,30  L 45,30  L 45,36  L 44,36  L 44,38  L 33,38  L 33,39  L 32,39  L 32,38  L 30,38  L 30,39  L 22,39  L 22,40  L 21,40  L 21,39  L 20,39  L 20,40  L 19,40  L 19,39  L 18,39  L 18,40  L 9,40  L 9,21  L 10,21  L 10,3  L 9,3  L 9,2  L 7,2  L 7,1  L 4,1  L 4,2  L 3,2  L 3,3  L 2,3  L 2,4  L 1,4  L 1,5  L 2,5  L 2,22  L 1,22  Z  M 36,45  L 37,45  L 37,44  L 38,44  L 38,45  L 39,45  L 39,44  L 42,44  L 42,45  L 43,45  L 43,55  L 42,55  L 42,58  L 41,58  L 41,62  L 40,62  L 40,63  L 39,63  L 39,64  L 36,64  L 36,65  L 34,65  L 34,66  L 31,66  L 31,67  L 28,67  L 28,68  L 23,68  L 23,69  L 22,69  L 22,68  L 21,68  L 21,69  L 12,69  L 12,68  L 11,68  L 11,67  L 10,67  L 10,66  L 9,66  L 9,65  L 10,65  L 10,64  L 9,64  L 9,49  L 8,49  L 8,48  L 9,48  L 9,47  L 10,47  L 10,46  L 20,46  L 20,45  L 21,45  L 21,46  L 24,46  L 24,45  L 35,45  L 35,44  L 36,44  Z  " style="fill:rgb(0, 0, 0); fill-opacity:1.000; stroke:none;" />
 <path d="  M 42,139  L 42,140  L 41,140  L 41,139  L 39,139  L 39,138  L 38,138  L 38,134  L 37,134  L 37,122  L 36,122  L 36,121  L 37,121  L 37,119  L 36,119  L 36,117  L 37,117  L 37,116  L 36,116  L 36,107  L 38,107  L 38,106  L 44,106  L 44,105  L 48,105  L 48,104  L 49,104  L 49,105  L 51,105  L 51,104  L 53,104  L 53,105  L 54,105  L 54,104  L 58,104  L 58,103  L 59,103  L 59,104  L 60,104  L 60,103  L 78,103  L 78,116  L 77,116  L 77,117  L 78,117  L 78,118  L 77,118  L 77,123  L 76,123  L 76,128  L 75,128  L 75,132  L 74,132  L 74,134  L 73,134  L 73,136  L 72,136  L 72,137  L 67,137  L 67,138  L 66,138  L 66,137  L 65,137  L 65,138  L 61,138  L 61,139  L 60,139  L 60,138  L 59,138  L 59,139  Z  M 55,96  L 55,97  L 52,97  L 52,96  L 51,96  L 51,97  L 47,97  L 47,98  L 46,98  L 46,97  L 45,97  L 45,98  L 33,98  L 33,97  L 29,97  L 29,98  L 27,98  L 27,99  L 26,99  L 26,100  L 24,100  L 24,102  L 25,102  L 25,104  L 26,104  L 26,105  L 27,105  L 27,106  L 28,106  L 28,107  L 29,107  L 29,118  L 30,118  L 30,119  L 29,119  L 29,121  L 30,121  L 30,137  L 31,137  L 31,138  L 30,138  L 30,140  L 31,140  L 31,143  L 32,143  L 32,144  L 33,144  L 33,145  L 67,145  L 67,144  L 71,144  L 71,143  L 72,143  L 72,142  L 75,142  L 75,141  L 76,141  L 76,140  L 77,140  L 77,139  L 78,139  L 78,138  L 79,138  L 79,137  L 80,137  L 80,134  L 81,134  L 81,130  L 82,130  L 82,125  L 83,125  L 83,121  L 84,121  L 84,112  L 85,112  L 85,105  L 86,105  L 86,98  L 85,98  L 85,96  L 83,96  L 83,95  L 66,95  L 66,96  Z  " style="fill:rgb(0, 0, 0); fill-opacity:1.000; stroke:none;" />
 <path d="  M 72,72  L 73,72  L 73,86  L 74,86  L 74,88  L 75,88  L 75,89  L 79,89  L 79,88  L 80,88  L 80,87  L 81,87  L 81,86  L 80,86  L 80,79  L 79,79  L 79,78  L 80,78  L 80,77  L 79,77  L 79,44  L 85,44  L 85,43  L 87,43  L 87,44  L 88,44  L 88,43  L 89,43  L 89,44  L 90,44  L 90,43  L 104,43  L 104,42  L 105,42  L 105,39  L 104,39  L 104,37  L 103,37  L 103,36  L 85,36  L 85,35  L 84,35  L 84,36  L 82,36  L 82,37  L 79,37  L 79,18  L 78,18  L 78,12  L 77,12  L 77,3  L 76,3  L 76,1  L 74,1  L 74,0  L 72,0  L 72,1  L 71,1  L 71,3  L 70,3  L 70,6  L 71,6  L 71,16  L 72,16  Z  " style="fill:rgb(0, 0, 0); fill-opacity:1.000; stroke:none;" />
</svg>
