<?xml version="1.0" encoding="UTF-8" standalone="no"?>
<!DOCTYPE svg PUBLIC "-//W3C//DTD SVG 1.1//EN" 
  "http://www.w3.org/Graphics/SVG/1.1/DTD/svg11.dtd">
<svg width="102" height="147"
     xmlns="http://www.w3.org/2000/svg" version="1.1">
 <path d="  M 17,41  L 17,40  L 16,40  L 16,41  L 11,41  L 11,42  L 10,42  L 10,41  L 9,41  L 9,23  L 10,23  L 10,4  L 9,4  L 9,2  L 7,2  L 7,1  L 4,1  L 4,2  L 2,2  L 2,9  L 1,9  L 1,11  L 2,11  L 2,12  L 1,12  L 1,30  L 0,30  L 0,31  L 1,31  L 1,38  L 0,38  L 0,39  L 1,39  L 1,42  L 0,42  L 0,43  L 1,43  L 1,60  L 2,60  L 2,61  L 1,61  L 1,62  L 2,62  L 2,65  L 1,65  L 1,66  L 2,66  L 2,69  L 3,69  L 3,74  L 4,74  L 4,76  L 5,76  L 5,77  L 6,77  L 6,78  L 7,78  L 7,79  L 9,79  L 9,80  L 21,80  L 21,79  L 22,79  L 22,80  L 24,80  L 24,79  L 33,79  L 33,78  L 39,78  L 39,77  L 41,77  L 41,76  L 42,76  L 42,75  L 44,75  L 44,74  L 45,74  L 45,72  L 46,72  L 46,71  L 47,71  L 47,70  L 46,70  L 46,68  L 47,68  L 47,61  L 48,61  L 48,52  L 49,52  L 49,40  L 50,40  L 50,27  L 51,27  L 51,26  L 50,26  L 50,25  L 51,25  L 51,19  L 52,19  L 52,18  L 51,18  L 51,17  L 52,17  L 52,11  L 53,11  L 53,10  L 52,10  L 52,9  L 53,9  L 53,5  L 52,5  L 52,3  L 51,3  L 51,2  L 48,2  L 48,3  L 47,3  L 47,12  L 46,12  L 46,19  L 45,19  L 45,24  L 44,24  L 44,30  L 43,30  L 43,39  L 42,39  L 42,40  L 30,40  L 30,41  L 29,41  L 29,40  L 26,40  L 26,41  L 25,41  L 25,40  L 24,40  L 24,41  Z  M 42,47  L 42,50  L 41,50  L 41,58  L 40,58  L 40,59  L 41,59  L 41,61  L 40,61  L 40,69  L 39,69  L 39,70  L 34,70  L 34,71  L 29,71  L 29,72  L 20,72  L 20,73  L 13,73  L 13,72  L 10,72  L 10,69  L 9,69  L 9,68  L 10,68  L 10,67  L 9,67  L 9,58  L 8,58  L 8,53  L 9,53  L 9,52  L 8,52  L 8,49  L 9,49  L 9,48  L 13,48  L 13,47  L 15,47  L 15,48  L 17,48  L 17,47  Z  " style="fill:rgb(0, 0, 0); fill-opacity:1.000; stroke:none;" />
 <path d="  M 26,130  L 26,135  L 27,135  L 27,142  L 28,142  L 28,145  L 29,145  L 29,146  L 31,146  L 31,147  L 56,147  L 56,146  L 60,146  L 60,145  L 63,145  L 63,144  L 65,144  L 65,143  L 66,143  L 66,142  L 68,142  L 68,141  L 70,141  L 70,140  L 72,140  L 72,139  L 73,139  L 73,138  L 74,138  L 74,136  L 75,136  L 75,134  L 76,134  L 76,130  L 77,130  L 77,124  L 78,124  L 78,121  L 79,121  L 79,117  L 80,117  L 80,94  L 79,94  L 79,93  L 78,93  L 78,94  L 74,94  L 74,114  L 73,114  L 73,115  L 66,115  L 66,116  L 65,116  L 65,114  L 64,114  L 64,115  L 62,115  L 62,116  L 61,116  L 61,114  L 60,114  L 60,115  L 58,115  L 58,116  L 57,116  L 57,115  L 55,115  L 55,116  L 53,116  L 53,115  L 51,115  L 51,116  L 49,116  L 49,115  L 47,115  L 47,116  L 32,116  L 32,115  L 31,115  L 31,92  L 30,92  L 30,91  L 28,91  L 28,90  L 27,90  L 27,91  L 25,91  L 25,92  L 24,92  L 24,112  L 25,112  L 25,113  L 24,113  L 24,120  L 25,120  L 25,127  L 26,127  L 26,129  L 25,129  L 25,130  Z  M 69,122  L 69,123  L 71,123  L 71,129  L 70,129  L 70,132  L 69,132  L 69,134  L 68,134  L 68,135  L 67,135  L 67,136  L 65,136  L 65,137  L 63,137  L 63,138  L 60,138  L 60,139  L 57,139  L 57,140  L 53,140  L 53,141  L 47,141  L 47,142  L 36,142  L 36,141  L 35,141  L 35,140  L 34,140  L 34,138  L 33,138  L 33,137  L 34,137  L 34,134  L 33,134  L 33,133  L 34,133  L 34,132  L 33,132  L 33,127  L 32,127  L 32,125  L 33,125  L 33,124  L 34,124  L 34,123  L 38,123  L 38,122  L 39,122  L 39,123  L 40,123  L 40,122  L 43,122  L 43,123  L 44,123  L 44,122  L 47,122  L 47,123  L 48,123  L 48,122  L 51,122  L 51,123  L 52,123  L 52,122  L 59,122  L 59,123  L 60,123  L 60,122  Z  " style="fill:rgb(0, 0, 0); fill-opacity:1.000; stroke:none;" />
 <path d="  M 70,33  L 71,33  L 71,34  L 70,34  L 70,45  L 71,45  L 71,46  L 70,46  L 70,47  L 71,47  L 71,48  L 70,48  L 70,49  L 71,49  L 71,50  L 70,50  L 70,51  L 71,51  L 71,52  L 70,52  L 70,53  L 71,53  L 71,54  L 70,54  L 70,55  L 71,55  L 71,56  L 70,56  L 70,57  L 71,57  L 71,58  L 70,58  L 70,59  L 71,59  L 71,60  L 70,60  L 70,61  L 71,61  L 71,62  L 70,62  L 70,63  L 71,63  L 71,64  L 70,64  L 70,67  L 71,67  L 71,68  L 70,68  L 70,71  L 71,71  L 71,72  L 70,72  L 70,73  L 71,73  L 71,76  L 70,76  L 70,77  L 71,77  L 71,79  L 70,79  L 70,83  L 71,83  L 71,84  L 77,84  L 77,77  L 78,77  L 78,76  L 77,76  L 77,73  L 78,73  L 78,72  L 77,72  L 77,69  L 78,69  L 78,68  L 77,68  L 77,67  L 78,67  L 78,66  L 77,66  L 77,65  L 78,65  L 78,64  L 77,64  L 77,63  L 78,63  L 78,62  L 77,62  L 77,61  L 78,61  L 78,60  L 77,60  L 77,59  L 78,59  L 78,58  L 77,58  L 77,57  L 78,57  L 78,54  L 77,54  L 77,53  L 78,53  L 78,50  L 77,50  L 77,49  L 78,49  L 78,47  L 77,47  L 77,46  L 78,46  L 78,45  L 79,45  L 79,44  L 82,44  L 82,43  L 83,43  L 83,44  L 84,44  L 84,43  L 99,43  L 99,42  L 101,42  L 101,41  L 102,41  L 102,37  L 101,37  L 101,36  L 99,36  L 99,35  L 94,35  L 94,36  L 91,36  L 91,35  L 84,35  L 84,36  L 82,36  L 82,35  L 80,35  L 80,36  L 79,36  L 79,35  L 78,35  L 78,34  L 77,34  L 77,21  L 76,21  L 76,12  L 75,12  L 75,11  L 76,11  L 76,10  L 75,10  L 75,2  L 74,2  L 74,1  L 73,1  L 73,0  L 72,0  L 72,1  L 70,1  L 70,2  L 69,2  L 69,16  L 70,16  Z  " style="fill:rgb(0, 0, 0); fill-opacity:1.000; stroke:none;" />
</svg>
