<?xml version="1.0" encoding="UTF-8" standalone="no"?>
<!DOCTYPE svg PUBLIC "-//W3C//DTD SVG 1.1//EN" 
  "http://www.w3.org/Graphics/SVG/1.1/DTD/svg11.dtd">
<svg width="102" height="92"
     xmlns="http://www.w3.org/2000/svg" version="1.1">
 <path d="  M 1,64  L 2,64  L 2,70  L 3,70  L 3,73  L 4,73  L 4,76  L 5,76  L 5,77  L 6,77  L 6,78  L 8,78  L 8,79  L 9,79  L 9,78  L 17,78  L 17,77  L 19,77  L 19,76  L 21,76  L 21,75  L 24,75  L 24,74  L 26,74  L 26,73  L 28,73  L 28,72  L 31,72  L 31,71  L 33,71  L 33,70  L 34,70  L 34,69  L 38,69  L 38,68  L 41,68  L 41,67  L 42,67  L 42,66  L 46,66  L 46,65  L 48,65  L 48,66  L 49,66  L 49,65  L 50,65  L 50,62  L 51,62  L 51,61  L 50,61  L 50,60  L 51,60  L 51,57  L 50,57  L 50,56  L 51,56  L 51,53  L 50,53  L 50,52  L 51,52  L 51,41  L 50,41  L 50,40  L 51,40  L 51,37  L 50,37  L 50,18  L 51,18  L 51,17  L 50,17  L 50,16  L 49,16  L 49,14  L 45,14  L 45,15  L 43,15  L 43,17  L 42,17  L 42,20  L 43,20  L 43,32  L 44,32  L 44,34  L 43,34  L 43,35  L 37,35  L 37,36  L 35,36  L 35,35  L 34,35  L 34,36  L 24,36  L 24,37  L 23,37  L 23,36  L 22,36  L 22,37  L 8,37  L 8,36  L 9,36  L 9,35  L 8,35  L 8,28  L 9,28  L 9,11  L 3,11  L 3,12  L 2,12  L 2,13  L 1,13  L 1,17  L 0,17  L 0,19  L 1,19  L 1,24  L 0,24  L 0,26  L 1,26  L 1,28  L 0,28  L 0,30  L 1,30  L 1,33  L 0,33  L 0,34  L 1,34  Z  M 39,42  L 39,41  L 40,41  L 40,42  L 41,42  L 41,41  L 42,41  L 42,42  L 43,42  L 43,43  L 44,43  L 44,57  L 43,57  L 43,59  L 42,59  L 42,60  L 41,60  L 41,61  L 38,61  L 38,62  L 35,62  L 35,63  L 33,63  L 33,64  L 31,64  L 31,65  L 29,65  L 29,66  L 26,66  L 26,67  L 24,67  L 24,68  L 22,68  L 22,69  L 19,69  L 19,70  L 16,70  L 16,71  L 15,71  L 15,70  L 14,70  L 14,71  L 11,71  L 11,70  L 10,70  L 10,69  L 9,69  L 9,66  L 8,66  L 8,44  L 9,44  L 9,43  L 16,43  L 16,42  Z  " style="fill:rgb(0, 0, 0); fill-opacity:1.000; stroke:none;" />
 <path d="  M 65,22  L 66,22  L 66,23  L 65,23  L 65,24  L 66,24  L 66,50  L 67,50  L 67,51  L 66,51  L 66,54  L 67,54  L 67,55  L 66,55  L 66,58  L 67,58  L 67,59  L 66,59  L 66,66  L 67,66  L 67,67  L 66,67  L 66,82  L 67,82  L 67,83  L 66,83  L 66,86  L 67,86  L 67,88  L 70,88  L 70,87  L 72,87  L 72,86  L 73,86  L 73,82  L 74,82  L 74,81  L 73,81  L 73,78  L 74,78  L 74,77  L 73,77  L 73,74  L 74,74  L 74,73  L 73,73  L 73,70  L 74,70  L 74,69  L 73,69  L 73,66  L 74,66  L 74,65  L 73,65  L 73,62  L 74,62  L 74,61  L 73,61  L 73,60  L 74,60  L 74,59  L 73,59  L 73,58  L 74,58  L 74,57  L 73,57  L 73,56  L 74,56  L 74,55  L 73,55  L 73,54  L 74,54  L 74,53  L 73,53  L 73,52  L 74,52  L 74,46  L 75,46  L 75,45  L 77,45  L 77,44  L 84,44  L 84,43  L 85,43  L 85,44  L 86,44  L 86,43  L 87,43  L 87,44  L 88,44  L 88,43  L 89,43  L 89,44  L 90,44  L 90,43  L 91,43  L 91,44  L 92,44  L 92,43  L 95,43  L 95,44  L 96,44  L 96,92  L 101,92  L 101,91  L 102,91  L 102,13  L 101,13  L 101,7  L 100,7  L 100,2  L 99,2  L 99,1  L 94,1  L 94,3  L 93,3  L 93,8  L 94,8  L 94,12  L 95,12  L 95,13  L 94,13  L 94,14  L 95,14  L 95,22  L 96,22  L 96,37  L 95,37  L 95,36  L 94,36  L 94,37  L 78,37  L 78,38  L 74,38  L 74,31  L 73,31  L 73,30  L 74,30  L 74,29  L 73,29  L 73,17  L 72,17  L 72,16  L 73,16  L 73,15  L 72,15  L 72,14  L 73,14  L 73,13  L 72,13  L 72,12  L 73,12  L 73,11  L 72,11  L 72,6  L 71,6  L 71,5  L 67,5  L 67,6  L 66,6  L 66,7  L 65,7  Z  " style="fill:rgb(0, 0, 0); fill-opacity:1.000; stroke:none;" />
</svg>
