<?xml version="1.0" encoding="UTF-8" standalone="no"?>
<!DOCTYPE svg PUBLIC "-//W3C//DTD SVG 1.1//EN" 
  "http://www.w3.org/Graphics/SVG/1.1/DTD/svg11.dtd">
<svg width="106" height="169"
     xmlns="http://www.w3.org/2000/svg" version="1.1">
 <path d="  M 6,75  L 7,75  L 7,77  L 9,77  L 9,78  L 10,78  L 10,79  L 13,79  L 13,78  L 14,78  L 14,79  L 20,79  L 20,78  L 23,78  L 23,77  L 24,77  L 24,78  L 25,78  L 25,77  L 28,77  L 28,76  L 31,76  L 31,75  L 33,75  L 33,74  L 38,74  L 38,73  L 42,73  L 42,72  L 44,72  L 44,71  L 45,71  L 45,70  L 48,70  L 48,69  L 49,69  L 49,70  L 50,70  L 50,69  L 51,69  L 51,47  L 52,47  L 52,44  L 51,44  L 51,43  L 52,43  L 52,25  L 53,25  L 53,22  L 52,22  L 52,21  L 53,21  L 53,18  L 52,18  L 52,17  L 53,17  L 53,16  L 52,16  L 52,4  L 51,4  L 51,2  L 48,2  L 48,3  L 46,3  L 46,15  L 45,15  L 45,16  L 46,16  L 46,17  L 45,17  L 45,18  L 46,18  L 46,21  L 45,21  L 45,36  L 44,36  L 44,38  L 42,38  L 42,39  L 34,39  L 34,40  L 31,40  L 31,41  L 28,41  L 28,42  L 23,42  L 23,43  L 17,43  L 17,42  L 16,42  L 16,43  L 11,43  L 11,42  L 10,42  L 10,39  L 9,39  L 9,33  L 10,33  L 10,30  L 9,30  L 9,29  L 10,29  L 10,26  L 9,26  L 9,25  L 10,25  L 10,6  L 9,6  L 9,3  L 4,3  L 4,4  L 1,4  L 1,6  L 2,6  L 2,7  L 1,7  L 1,32  L 0,32  L 0,33  L 1,33  L 1,36  L 0,36  L 0,37  L 1,37  L 1,40  L 0,40  L 0,41  L 1,41  L 1,44  L 0,44  L 0,45  L 1,45  L 1,61  L 2,61  L 2,69  L 3,69  L 3,72  L 4,72  L 4,73  L 5,73  L 5,74  L 6,74  Z  M 21,70  L 20,70  L 20,69  L 19,69  L 19,70  L 12,70  L 12,69  L 10,69  L 10,67  L 9,67  L 9,50  L 10,50  L 10,49  L 12,49  L 12,50  L 14,50  L 14,49  L 16,49  L 16,50  L 17,50  L 17,49  L 25,49  L 25,48  L 27,48  L 27,49  L 28,49  L 28,48  L 31,48  L 31,47  L 40,47  L 40,46  L 43,46  L 43,50  L 44,50  L 44,51  L 43,51  L 43,62  L 42,62  L 42,64  L 40,64  L 40,65  L 36,65  L 36,66  L 31,66  L 31,67  L 28,67  L 28,68  L 24,68  L 24,69  L 21,69  Z  " style="fill:rgb(0, 0, 0); fill-opacity:1.000; stroke:none;" />
 <path d="  M 91,160  L 91,159  L 92,159  L 92,158  L 94,158  L 94,157  L 96,157  L 96,156  L 97,156  L 97,155  L 98,155  L 98,154  L 100,154  L 100,153  L 101,153  L 101,151  L 102,151  L 102,147  L 101,147  L 101,146  L 98,146  L 98,147  L 96,147  L 96,148  L 94,148  L 94,149  L 92,149  L 92,150  L 90,150  L 90,151  L 89,151  L 89,152  L 87,152  L 87,153  L 86,153  L 86,154  L 85,154  L 85,155  L 84,155  L 84,156  L 82,156  L 82,157  L 80,157  L 80,158  L 77,158  L 77,159  L 75,159  L 75,160  L 72,160  L 72,161  L 69,161  L 69,162  L 55,162  L 55,161  L 53,161  L 53,160  L 50,160  L 50,159  L 49,159  L 49,158  L 48,158  L 48,157  L 47,157  L 47,149  L 48,149  L 48,147  L 49,147  L 49,146  L 51,146  L 51,145  L 52,145  L 52,144  L 53,144  L 53,143  L 55,143  L 55,142  L 57,142  L 57,141  L 60,141  L 60,140  L 61,140  L 61,139  L 62,139  L 62,138  L 65,138  L 65,137  L 66,137  L 66,136  L 68,136  L 68,135  L 69,135  L 69,134  L 70,134  L 70,133  L 72,133  L 72,132  L 73,132  L 73,131  L 75,131  L 75,130  L 77,130  L 77,129  L 79,129  L 79,128  L 81,128  L 81,127  L 83,127  L 83,126  L 84,126  L 84,125  L 85,125  L 85,124  L 86,124  L 86,123  L 87,123  L 87,122  L 88,122  L 88,121  L 89,121  L 89,119  L 90,119  L 90,116  L 89,116  L 89,114  L 88,114  L 88,112  L 87,112  L 87,110  L 86,110  L 86,108  L 85,108  L 85,107  L 83,107  L 83,105  L 82,105  L 82,104  L 80,104  L 80,103  L 77,103  L 77,102  L 75,102  L 75,101  L 73,101  L 73,100  L 64,100  L 64,99  L 53,99  L 53,98  L 52,98  L 52,99  L 51,99  L 51,98  L 50,98  L 50,99  L 45,99  L 45,100  L 42,100  L 42,101  L 40,101  L 40,102  L 38,102  L 38,105  L 37,105  L 37,106  L 38,106  L 38,109  L 43,109  L 43,108  L 46,108  L 46,107  L 48,107  L 48,106  L 63,106  L 63,107  L 69,107  L 69,108  L 72,108  L 72,109  L 75,109  L 75,111  L 77,111  L 77,112  L 78,112  L 78,113  L 79,113  L 79,115  L 80,115  L 80,116  L 81,116  L 81,119  L 79,119  L 79,120  L 78,120  L 78,121  L 77,121  L 77,122  L 75,122  L 75,123  L 72,123  L 72,124  L 71,124  L 71,125  L 68,125  L 68,126  L 66,126  L 66,127  L 65,127  L 65,128  L 63,128  L 63,129  L 61,129  L 61,130  L 60,130  L 60,131  L 59,131  L 59,132  L 58,132  L 58,133  L 57,133  L 57,134  L 54,134  L 54,135  L 52,135  L 52,136  L 48,136  L 48,138  L 47,138  L 47,139  L 45,139  L 45,140  L 43,140  L 43,142  L 42,142  L 42,144  L 41,144  L 41,148  L 40,148  L 40,155  L 39,155  L 39,156  L 40,156  L 40,157  L 41,157  L 41,160  L 42,160  L 42,161  L 41,161  L 41,162  L 42,162  L 42,163  L 43,163  L 43,164  L 45,164  L 45,165  L 47,165  L 47,166  L 48,166  L 48,167  L 49,167  L 49,166  L 50,166  L 50,167  L 51,167  L 51,168  L 55,168  L 55,169  L 70,169  L 70,168  L 71,168  L 71,169  L 72,169  L 72,168  L 73,168  L 73,167  L 74,167  L 74,168  L 75,168  L 75,167  L 77,167  L 77,166  L 79,166  L 79,165  L 81,165  L 81,164  L 84,164  L 84,163  L 85,163  L 85,162  L 87,162  L 87,161  L 89,161  L 89,160  Z  " style="fill:rgb(0, 0, 0); fill-opacity:1.000; stroke:none;" />
 <path d="  M 79,64  L 78,64  L 78,63  L 79,63  L 79,57  L 80,57  L 80,56  L 79,56  L 79,53  L 80,53  L 80,52  L 79,52  L 79,51  L 80,51  L 80,39  L 83,39  L 83,38  L 90,38  L 90,37  L 97,37  L 97,38  L 98,38  L 98,40  L 99,40  L 99,42  L 98,42  L 98,49  L 99,49  L 99,50  L 98,50  L 98,75  L 97,75  L 97,76  L 98,76  L 98,77  L 97,77  L 97,80  L 98,80  L 98,81  L 97,81  L 97,95  L 102,95  L 102,94  L 103,94  L 103,92  L 104,92  L 104,85  L 105,85  L 105,83  L 104,83  L 104,82  L 105,82  L 105,75  L 106,75  L 106,74  L 105,74  L 105,73  L 106,73  L 106,6  L 105,6  L 105,5  L 104,5  L 104,4  L 99,4  L 99,8  L 98,8  L 98,9  L 99,9  L 99,10  L 98,10  L 98,11  L 99,11  L 99,14  L 98,14  L 98,15  L 99,15  L 99,28  L 98,28  L 98,29  L 92,29  L 92,30  L 79,30  L 79,28  L 78,28  L 78,25  L 79,25  L 79,24  L 78,24  L 78,23  L 79,23  L 79,22  L 78,22  L 78,21  L 79,21  L 79,20  L 78,20  L 78,19  L 79,19  L 79,16  L 78,16  L 78,15  L 79,15  L 79,14  L 78,14  L 78,13  L 79,13  L 79,12  L 78,12  L 78,10  L 79,10  L 79,8  L 78,8  L 78,4  L 77,4  L 77,2  L 76,2  L 76,1  L 74,1  L 74,0  L 72,0  L 72,2  L 71,2  L 71,34  L 70,34  L 70,35  L 71,35  L 71,62  L 70,62  L 70,63  L 71,63  L 71,66  L 70,66  L 70,79  L 71,79  L 71,80  L 70,80  L 70,81  L 71,81  L 71,82  L 72,82  L 72,85  L 73,85  L 73,86  L 75,86  L 75,85  L 76,85  L 76,84  L 77,84  L 77,82  L 78,82  L 78,66  L 79,66  Z  " style="fill:rgb(0, 0, 0); fill-opacity:1.000; stroke:none;" />
</svg>
