<?xml version="1.0" encoding="UTF-8" standalone="no"?>
<!DOCTYPE svg PUBLIC "-//W3C//DTD SVG 1.1//EN" 
  "http://www.w3.org/Graphics/SVG/1.1/DTD/svg11.dtd">
<svg width="103" height="140"
     xmlns="http://www.w3.org/2000/svg" version="1.1">
 <path d="  M 17,63  L 23,63  L 23,62  L 28,62  L 28,61  L 33,61  L 33,60  L 38,60  L 38,59  L 43,59  L 43,58  L 45,58  L 45,57  L 46,57  L 46,56  L 47,56  L 47,38  L 48,38  L 48,37  L 47,37  L 47,34  L 48,34  L 48,33  L 47,33  L 47,31  L 48,31  L 48,29  L 47,29  L 47,27  L 48,27  L 48,7  L 47,7  L 47,6  L 45,6  L 45,5  L 44,5  L 44,6  L 43,6  L 43,7  L 42,7  L 42,9  L 41,9  L 41,10  L 42,10  L 42,11  L 41,11  L 41,34  L 40,34  L 40,35  L 30,35  L 30,36  L 29,36  L 29,35  L 26,35  L 26,36  L 25,36  L 25,35  L 22,35  L 22,36  L 21,36  L 21,35  L 20,35  L 20,36  L 17,36  L 17,35  L 16,35  L 16,36  L 11,36  L 11,37  L 10,37  L 10,36  L 9,36  L 9,29  L 8,29  L 8,28  L 9,28  L 9,18  L 10,18  L 10,15  L 9,15  L 9,14  L 10,14  L 10,5  L 9,5  L 9,4  L 3,4  L 3,5  L 1,5  L 1,38  L 2,38  L 2,39  L 1,39  L 1,40  L 2,40  L 2,41  L 1,41  L 1,42  L 2,42  L 2,54  L 3,54  L 3,58  L 4,58  L 4,60  L 5,60  L 5,61  L 6,61  L 6,62  L 7,62  L 7,63  L 9,63  L 9,64  L 17,64  Z  M 35,41  L 35,40  L 36,40  L 36,41  L 37,41  L 37,40  L 39,40  L 39,41  L 41,41  L 41,43  L 40,43  L 40,52  L 38,52  L 38,53  L 32,53  L 32,54  L 29,54  L 29,55  L 26,55  L 26,56  L 25,56  L 25,55  L 24,55  L 24,56  L 19,56  L 19,57  L 10,57  L 10,54  L 9,54  L 9,50  L 10,50  L 10,47  L 9,47  L 9,44  L 10,44  L 10,42  L 16,42  L 16,41  L 19,41  L 19,42  L 20,42  L 20,41  Z  " style="fill:rgb(0, 0, 0); fill-opacity:1.000; stroke:none;" />
 <path d="  M 15,131  L 16,131  L 16,130  L 17,130  L 17,128  L 18,128  L 18,126  L 19,126  L 19,124  L 20,124  L 20,123  L 21,123  L 21,122  L 22,122  L 22,121  L 23,121  L 23,120  L 24,120  L 24,118  L 25,118  L 25,117  L 26,117  L 26,116  L 27,116  L 27,114  L 28,114  L 28,113  L 31,113  L 31,114  L 33,114  L 33,115  L 36,115  L 36,116  L 39,116  L 39,117  L 44,117  L 44,118  L 48,118  L 48,119  L 49,119  L 49,120  L 51,120  L 51,121  L 52,121  L 52,122  L 53,122  L 53,124  L 52,124  L 52,128  L 51,128  L 51,130  L 50,130  L 50,132  L 49,132  L 49,135  L 48,135  L 48,137  L 47,137  L 47,138  L 48,138  L 48,140  L 53,140  L 53,138  L 54,138  L 54,136  L 55,136  L 55,134  L 56,134  L 56,132  L 57,132  L 57,130  L 58,130  L 58,128  L 59,128  L 59,127  L 60,127  L 60,126  L 61,126  L 61,124  L 62,124  L 62,123  L 63,123  L 63,121  L 64,121  L 64,120  L 65,120  L 65,118  L 66,118  L 66,116  L 67,116  L 67,112  L 69,112  L 69,111  L 70,111  L 70,112  L 71,112  L 71,113  L 72,113  L 72,114  L 73,114  L 73,116  L 75,116  L 75,117  L 77,117  L 77,118  L 79,118  L 79,119  L 80,119  L 80,120  L 82,120  L 82,121  L 84,121  L 84,122  L 85,122  L 85,123  L 86,123  L 86,122  L 87,122  L 87,123  L 88,123  L 88,124  L 90,124  L 90,125  L 93,125  L 93,126  L 95,126  L 95,128  L 98,128  L 98,129  L 100,129  L 100,130  L 102,130  L 102,129  L 103,129  L 103,124  L 101,124  L 101,123  L 100,123  L 100,122  L 98,122  L 98,121  L 96,121  L 96,120  L 94,120  L 94,119  L 92,119  L 92,118  L 90,118  L 90,117  L 88,117  L 88,116  L 87,116  L 87,115  L 85,115  L 85,114  L 82,114  L 82,113  L 81,113  L 81,112  L 80,112  L 80,111  L 78,111  L 78,110  L 77,110  L 77,109  L 76,109  L 76,108  L 75,108  L 75,106  L 74,106  L 74,104  L 73,104  L 73,102  L 74,102  L 74,99  L 75,99  L 75,97  L 76,97  L 76,94  L 77,94  L 77,92  L 78,92  L 78,90  L 79,90  L 79,87  L 80,87  L 80,86  L 79,86  L 79,85  L 78,85  L 78,84  L 76,84  L 76,85  L 74,85  L 74,86  L 73,86  L 73,88  L 72,88  L 72,89  L 71,89  L 71,91  L 70,91  L 70,93  L 69,93  L 69,95  L 68,95  L 68,97  L 67,97  L 67,99  L 66,99  L 66,101  L 65,101  L 65,104  L 64,104  L 64,105  L 63,105  L 63,108  L 62,108  L 62,112  L 61,112  L 61,114  L 60,114  L 60,117  L 59,117  L 59,119  L 57,119  L 57,117  L 56,117  L 56,116  L 55,116  L 55,115  L 52,115  L 52,114  L 50,114  L 50,113  L 47,113  L 47,112  L 45,112  L 45,111  L 41,111  L 41,110  L 39,110  L 39,109  L 36,109  L 36,108  L 34,108  L 34,106  L 33,106  L 33,105  L 32,105  L 32,104  L 33,104  L 33,102  L 34,102  L 34,101  L 35,101  L 35,99  L 36,99  L 36,98  L 37,98  L 37,96  L 38,96  L 38,95  L 39,95  L 39,94  L 41,94  L 41,92  L 42,92  L 42,86  L 41,86  L 41,84  L 40,84  L 40,82  L 38,82  L 38,84  L 37,84  L 37,91  L 36,91  L 36,93  L 35,93  L 35,94  L 34,94  L 34,95  L 32,95  L 32,96  L 31,96  L 31,97  L 30,97  L 30,99  L 29,99  L 29,101  L 28,101  L 28,103  L 27,103  L 27,105  L 26,105  L 26,107  L 25,107  L 25,109  L 24,109  L 24,110  L 23,110  L 23,112  L 22,112  L 22,113  L 21,113  L 21,114  L 20,114  L 20,115  L 19,115  L 19,117  L 18,117  L 18,118  L 17,118  L 17,120  L 15,120  L 15,122  L 14,122  L 14,123  L 13,123  L 13,125  L 12,125  L 12,126  L 11,126  L 11,128  L 10,128  L 10,129  L 9,129  L 9,134  L 10,134  L 10,135  L 14,135  L 14,134  L 15,134  Z  " style="fill:rgb(0, 0, 0); fill-opacity:1.000; stroke:none;" />
 <path d="  M 29,83  L 29,82  L 28,82  L 28,83  L 27,83  L 27,84  L 26,84  L 26,85  L 27,85  L 27,86  L 29,86  L 29,87  L 31,87  L 31,86  L 32,86  L 32,83  Z  " style="fill:rgb(0, 0, 0); fill-opacity:1.000; stroke:none;" />
 <path d="  M 80,2  L 80,1  L 75,1  L 75,18  L 76,18  L 76,24  L 77,24  L 77,28  L 78,28  L 78,29  L 77,29  L 77,30  L 75,30  L 75,31  L 73,31  L 73,30  L 72,30  L 72,31  L 66,31  L 66,29  L 65,29  L 65,16  L 64,16  L 64,5  L 63,5  L 63,3  L 64,3  L 64,2  L 63,2  L 63,1  L 60,1  L 60,2  L 59,2  L 59,4  L 58,4  L 58,14  L 59,14  L 59,15  L 58,15  L 58,16  L 59,16  L 59,17  L 58,17  L 58,18  L 59,18  L 59,49  L 58,49  L 58,50  L 59,50  L 59,51  L 58,51  L 58,52  L 59,52  L 59,53  L 58,53  L 58,54  L 59,54  L 59,55  L 58,55  L 58,68  L 59,68  L 59,70  L 63,70  L 63,68  L 64,68  L 64,66  L 65,66  L 65,58  L 66,58  L 66,57  L 65,57  L 65,56  L 66,56  L 66,55  L 65,55  L 65,54  L 66,54  L 66,40  L 67,40  L 67,38  L 72,38  L 72,37  L 73,37  L 73,38  L 77,38  L 77,40  L 78,40  L 78,41  L 77,41  L 77,44  L 78,44  L 78,45  L 77,45  L 77,46  L 78,46  L 78,47  L 77,47  L 77,67  L 78,67  L 78,73  L 77,73  L 77,74  L 78,74  L 78,76  L 79,76  L 79,78  L 83,78  L 83,77  L 84,77  L 84,74  L 85,74  L 85,72  L 84,72  L 84,71  L 85,71  L 85,69  L 84,69  L 84,66  L 85,66  L 85,64  L 84,64  L 84,63  L 85,63  L 85,61  L 84,61  L 84,58  L 85,58  L 85,57  L 84,57  L 84,54  L 85,54  L 85,52  L 84,52  L 84,50  L 85,50  L 85,29  L 84,29  L 84,23  L 83,23  L 83,17  L 82,17  L 82,14  L 83,14  L 83,13  L 82,13  L 82,8  L 81,8  L 81,2  Z  " style="fill:rgb(0, 0, 0); fill-opacity:1.000; stroke:none;" />
</svg>
