<?xml version="1.0" encoding="UTF-8" standalone="no"?>
<!DOCTYPE svg PUBLIC "-//W3C//DTD SVG 1.1//EN" 
  "http://www.w3.org/Graphics/SVG/1.1/DTD/svg11.dtd">
<svg width="104" height="144"
     xmlns="http://www.w3.org/2000/svg" version="1.1">
 <path d="  M 1,39  L 2,39  L 2,40  L 1,40  L 1,42  L 2,42  L 2,43  L 1,43  L 1,44  L 2,44  L 2,55  L 3,55  L 3,59  L 4,59  L 4,60  L 5,60  L 5,61  L 6,61  L 6,62  L 7,62  L 7,63  L 8,63  L 8,64  L 9,64  L 9,65  L 10,65  L 10,64  L 11,64  L 11,65  L 18,65  L 18,64  L 19,64  L 19,65  L 20,65  L 20,64  L 23,64  L 23,63  L 29,63  L 29,62  L 31,62  L 31,63  L 32,63  L 32,62  L 34,62  L 34,63  L 36,63  L 36,62  L 44,62  L 44,61  L 48,61  L 48,60  L 51,60  L 51,49  L 52,49  L 52,48  L 51,48  L 51,46  L 52,46  L 52,10  L 51,10  L 51,9  L 50,9  L 50,7  L 48,7  L 48,6  L 47,6  L 47,7  L 46,7  L 46,9  L 45,9  L 45,10  L 46,10  L 46,13  L 45,13  L 45,14  L 46,14  L 46,21  L 45,21  L 45,22  L 46,22  L 46,27  L 45,27  L 45,31  L 44,31  L 44,32  L 40,32  L 40,33  L 34,33  L 34,34  L 31,34  L 31,33  L 30,33  L 30,34  L 28,34  L 28,35  L 20,35  L 20,36  L 19,36  L 19,35  L 17,35  L 17,36  L 16,36  L 16,35  L 12,35  L 12,36  L 11,36  L 11,35  L 10,35  L 10,36  L 9,36  L 9,23  L 10,23  L 10,21  L 9,21  L 9,20  L 10,20  L 10,17  L 9,17  L 9,16  L 10,16  L 10,5  L 11,5  L 11,3  L 10,3  L 10,1  L 8,1  L 8,0  L 4,0  L 4,1  L 2,1  L 2,4  L 1,4  Z  M 31,41  L 31,40  L 32,40  L 32,41  L 33,41  L 33,40  L 34,40  L 34,41  L 35,41  L 35,40  L 36,40  L 36,41  L 37,41  L 37,40  L 44,40  L 44,41  L 45,41  L 45,43  L 44,43  L 44,48  L 43,48  L 43,50  L 44,50  L 44,51  L 43,51  L 43,52  L 41,52  L 41,53  L 38,53  L 38,54  L 29,54  L 29,55  L 21,55  L 21,56  L 15,56  L 15,57  L 12,57  L 12,55  L 10,55  L 10,42  L 11,42  L 11,41  L 12,41  L 12,42  L 19,42  L 19,41  L 21,41  L 21,42  L 22,42  L 22,41  Z  " style="fill:rgb(0, 0, 0); fill-opacity:1.000; stroke:none;" />
 <path d="  M 97,111  L 96,111  L 96,114  L 95,114  L 95,118  L 94,118  L 94,121  L 93,121  L 93,123  L 92,123  L 92,125  L 91,125  L 91,127  L 90,127  L 90,128  L 89,128  L 89,129  L 88,129  L 88,130  L 87,130  L 87,131  L 85,131  L 85,132  L 84,132  L 84,133  L 81,133  L 81,134  L 79,134  L 79,135  L 77,135  L 77,136  L 76,136  L 76,135  L 75,135  L 75,136  L 74,136  L 74,137  L 66,137  L 66,138  L 64,138  L 64,137  L 62,137  L 62,138  L 60,138  L 60,137  L 58,137  L 58,138  L 56,138  L 56,137  L 47,137  L 47,136  L 44,136  L 44,135  L 42,135  L 42,134  L 41,134  L 41,129  L 40,129  L 40,122  L 41,122  L 41,121  L 40,121  L 40,120  L 41,120  L 41,117  L 42,117  L 42,114  L 43,114  L 43,111  L 44,111  L 44,110  L 45,110  L 45,109  L 46,109  L 46,108  L 47,108  L 47,107  L 48,107  L 48,106  L 49,106  L 49,105  L 50,105  L 50,104  L 51,104  L 51,103  L 52,103  L 52,102  L 53,102  L 53,101  L 55,101  L 55,100  L 56,100  L 56,99  L 58,99  L 58,98  L 59,98  L 59,97  L 63,97  L 63,96  L 67,96  L 67,95  L 74,95  L 74,94  L 80,94  L 80,95  L 81,95  L 81,94  L 83,94  L 83,95  L 87,95  L 87,96  L 89,96  L 89,97  L 93,97  L 93,98  L 94,98  L 94,99  L 95,99  L 95,101  L 96,101  L 96,104  L 97,104  L 97,107  L 96,107  L 96,108  L 97,108  Z  M 51,93  L 50,93  L 50,94  L 49,94  L 49,95  L 48,95  L 48,97  L 47,97  L 47,98  L 46,98  L 46,99  L 45,99  L 45,100  L 44,100  L 44,101  L 43,101  L 43,102  L 42,102  L 42,103  L 41,103  L 41,105  L 40,105  L 40,106  L 39,106  L 39,107  L 38,107  L 38,109  L 37,109  L 37,111  L 36,111  L 36,114  L 35,114  L 35,117  L 34,117  L 34,119  L 33,119  L 33,124  L 32,124  L 32,127  L 33,127  L 33,128  L 32,128  L 32,130  L 33,130  L 33,137  L 35,137  L 35,139  L 36,139  L 36,140  L 39,140  L 39,141  L 42,141  L 42,142  L 43,142  L 43,143  L 44,143  L 44,142  L 46,142  L 46,143  L 51,143  L 51,144  L 71,144  L 71,143  L 75,143  L 75,142  L 81,142  L 81,141  L 83,141  L 83,140  L 85,140  L 85,139  L 87,139  L 87,138  L 89,138  L 89,137  L 91,137  L 91,136  L 92,136  L 92,135  L 94,135  L 94,133  L 95,133  L 95,132  L 96,132  L 96,130  L 97,130  L 97,129  L 98,129  L 98,127  L 99,127  L 99,126  L 100,126  L 100,124  L 101,124  L 101,121  L 102,121  L 102,117  L 103,117  L 103,112  L 104,112  L 104,99  L 103,99  L 103,97  L 102,97  L 102,96  L 101,96  L 101,95  L 100,95  L 100,94  L 99,94  L 99,92  L 97,92  L 97,91  L 96,91  L 96,90  L 94,90  L 94,89  L 89,89  L 89,88  L 85,88  L 85,87  L 79,87  L 79,88  L 78,88  L 78,87  L 77,87  L 77,88  L 76,88  L 76,87  L 75,87  L 75,88  L 72,88  L 72,87  L 71,87  L 71,88  L 70,88  L 70,87  L 69,87  L 69,88  L 68,88  L 68,87  L 67,87  L 67,88  L 66,88  L 66,87  L 65,87  L 65,88  L 64,88  L 64,87  L 63,87  L 63,88  L 58,88  L 58,89  L 55,89  L 55,90  L 53,90  L 53,91  L 52,91  L 52,92  L 51,92  Z  " style="fill:rgb(0, 0, 0); fill-opacity:1.000; stroke:none;" />
 <path d="  M 65,26  L 66,26  L 66,27  L 65,27  L 65,28  L 66,28  L 66,29  L 65,29  L 65,30  L 66,30  L 66,57  L 65,57  L 65,58  L 66,58  L 66,61  L 65,61  L 65,63  L 66,63  L 66,65  L 65,65  L 65,71  L 66,71  L 66,74  L 68,74  L 68,73  L 70,73  L 70,72  L 71,72  L 71,71  L 72,71  L 72,62  L 73,62  L 73,61  L 72,61  L 72,60  L 73,60  L 73,46  L 74,46  L 74,45  L 73,45  L 73,42  L 74,42  L 74,35  L 76,35  L 76,34  L 79,34  L 79,33  L 81,33  L 81,34  L 82,34  L 82,33  L 86,33  L 86,32  L 89,32  L 89,33  L 90,33  L 90,69  L 89,69  L 89,70  L 90,70  L 90,72  L 89,72  L 89,74  L 90,74  L 90,76  L 91,76  L 91,77  L 92,77  L 92,76  L 95,76  L 95,75  L 97,75  L 97,73  L 98,73  L 98,71  L 97,71  L 97,68  L 98,68  L 98,67  L 97,67  L 97,65  L 98,65  L 98,63  L 97,63  L 97,61  L 98,61  L 98,24  L 97,24  L 97,23  L 96,23  L 96,21  L 95,21  L 95,17  L 94,17  L 94,13  L 93,13  L 93,8  L 92,8  L 92,6  L 91,6  L 91,5  L 90,5  L 90,3  L 87,3  L 87,4  L 86,4  L 86,5  L 83,5  L 83,6  L 82,6  L 82,7  L 83,7  L 83,9  L 84,9  L 84,11  L 85,11  L 85,13  L 86,13  L 86,15  L 87,15  L 87,17  L 88,17  L 88,20  L 89,20  L 89,22  L 90,22  L 90,25  L 86,25  L 86,26  L 82,26  L 82,27  L 75,27  L 75,28  L 74,28  L 74,27  L 73,27  L 73,25  L 72,25  L 72,13  L 71,13  L 71,2  L 70,2  L 70,1  L 69,1  L 69,0  L 68,0  L 68,1  L 65,1  L 65,3  L 64,3  L 64,10  L 65,10  L 65,11  L 64,11  L 64,12  L 65,12  Z  " style="fill:rgb(0, 0, 0); fill-opacity:1.000; stroke:none;" />
</svg>
