<?xml version="1.0" encoding="UTF-8" standalone="no"?>
<!DOCTYPE svg PUBLIC "-//W3C//DTD SVG 1.1//EN" 
  "http://www.w3.org/Graphics/SVG/1.1/DTD/svg11.dtd">
<svg width="104" height="131"
     xmlns="http://www.w3.org/2000/svg" version="1.1">
 <path d="  M 1,54  L 2,54  L 2,61  L 3,61  L 3,64  L 4,64  L 4,65  L 5,65  L 5,66  L 6,66  L 6,67  L 8,67  L 8,68  L 10,68  L 10,69  L 17,69  L 17,68  L 19,68  L 19,69  L 20,69  L 20,68  L 28,68  L 28,67  L 33,67  L 33,66  L 37,66  L 37,65  L 40,65  L 40,64  L 41,64  L 41,63  L 43,63  L 43,60  L 44,60  L 44,55  L 45,55  L 45,49  L 46,49  L 46,48  L 45,48  L 45,47  L 46,47  L 46,39  L 47,39  L 47,27  L 48,27  L 48,17  L 49,17  L 49,11  L 50,11  L 50,3  L 46,3  L 46,4  L 45,4  L 45,6  L 44,6  L 44,10  L 43,10  L 43,16  L 42,16  L 42,25  L 41,25  L 41,26  L 42,26  L 42,28  L 41,28  L 41,35  L 40,35  L 40,36  L 30,36  L 30,37  L 29,37  L 29,36  L 26,36  L 26,37  L 25,37  L 25,36  L 24,36  L 24,37  L 17,37  L 17,36  L 16,36  L 16,37  L 11,37  L 11,38  L 10,38  L 10,37  L 9,37  L 9,25  L 10,25  L 10,24  L 9,24  L 9,23  L 10,23  L 10,11  L 11,11  L 11,4  L 10,4  L 10,3  L 7,3  L 7,2  L 6,2  L 6,3  L 3,3  L 3,6  L 2,6  L 2,15  L 1,15  L 1,16  L 2,16  L 2,17  L 1,17  Z  M 39,51  L 38,51  L 38,56  L 37,56  L 37,58  L 35,58  L 35,59  L 32,59  L 32,60  L 27,60  L 27,61  L 19,61  L 19,62  L 12,62  L 12,61  L 10,61  L 10,60  L 9,60  L 9,57  L 8,57  L 8,45  L 9,45  L 9,44  L 10,44  L 10,43  L 24,43  L 24,42  L 27,42  L 27,43  L 28,43  L 28,42  L 37,42  L 37,41  L 38,41  L 38,42  L 39,42  Z  " style="fill:rgb(0, 0, 0); fill-opacity:1.000; stroke:none;" />
 <path d="  M 35,116  L 34,116  L 34,115  L 35,115  L 35,114  L 34,114  L 34,104  L 33,104  L 33,87  L 32,87  L 32,86  L 31,86  L 31,85  L 30,85  L 30,86  L 27,86  L 27,87  L 26,87  L 26,107  L 27,107  L 27,108  L 26,108  L 26,109  L 27,109  L 27,115  L 28,115  L 28,117  L 27,117  L 27,118  L 28,118  L 28,123  L 29,123  L 29,126  L 30,126  L 30,128  L 31,128  L 31,130  L 33,130  L 33,131  L 61,131  L 61,130  L 62,130  L 62,131  L 63,131  L 63,130  L 73,130  L 73,129  L 74,129  L 74,130  L 75,130  L 75,129  L 88,129  L 88,128  L 89,128  L 89,127  L 90,127  L 90,125  L 91,125  L 91,122  L 90,122  L 90,121  L 84,121  L 84,122  L 83,122  L 83,121  L 82,121  L 82,122  L 81,122  L 81,121  L 80,121  L 80,122  L 68,122  L 68,123  L 65,123  L 65,122  L 64,122  L 64,123  L 57,123  L 57,124  L 47,124  L 47,125  L 38,125  L 38,124  L 36,124  L 36,123  L 35,123  Z  " style="fill:rgb(0, 0, 0); fill-opacity:1.000; stroke:none;" />
 <path d="  M 88,46  L 87,46  L 87,45  L 86,45  L 86,46  L 77,46  L 77,47  L 74,47  L 74,48  L 73,48  L 73,45  L 72,45  L 72,37  L 79,37  L 79,36  L 84,36  L 84,37  L 85,37  L 85,36  L 101,36  L 101,34  L 100,34  L 100,29  L 89,29  L 89,28  L 88,28  L 88,29  L 85,29  L 85,28  L 83,28  L 83,29  L 81,29  L 81,28  L 80,28  L 80,29  L 77,29  L 77,28  L 76,28  L 76,29  L 73,29  L 73,28  L 72,28  L 72,22  L 71,22  L 71,21  L 72,21  L 72,20  L 71,20  L 71,12  L 70,12  L 70,11  L 71,11  L 71,10  L 70,10  L 70,2  L 69,2  L 69,1  L 68,1  L 68,0  L 65,0  L 65,1  L 64,1  L 64,13  L 65,13  L 65,20  L 66,20  L 66,22  L 65,22  L 65,23  L 66,23  L 66,34  L 65,34  L 65,35  L 66,35  L 66,38  L 65,38  L 65,39  L 66,39  L 66,41  L 65,41  L 65,44  L 66,44  L 66,45  L 65,45  L 65,60  L 66,60  L 66,61  L 65,61  L 65,64  L 66,64  L 66,65  L 65,65  L 65,66  L 66,66  L 66,67  L 65,67  L 65,68  L 66,68  L 66,69  L 65,69  L 65,70  L 66,70  L 66,85  L 67,85  L 67,86  L 68,86  L 68,85  L 69,85  L 69,86  L 70,86  L 70,85  L 72,85  L 72,83  L 73,83  L 73,68  L 72,68  L 72,66  L 73,66  L 73,65  L 72,65  L 72,61  L 73,61  L 73,60  L 72,60  L 72,58  L 73,58  L 73,56  L 77,56  L 77,55  L 79,55  L 79,54  L 87,54  L 87,53  L 91,53  L 91,52  L 92,52  L 92,53  L 93,53  L 93,52  L 102,52  L 102,51  L 104,51  L 104,44  L 103,44  L 103,45  L 88,45  Z  " style="fill:rgb(0, 0, 0); fill-opacity:1.000; stroke:none;" />
</svg>
