<?xml version="1.0" encoding="UTF-8" standalone="no"?>
<!DOCTYPE svg PUBLIC "-//W3C//DTD SVG 1.1//EN" 
  "http://www.w3.org/Graphics/SVG/1.1/DTD/svg11.dtd">
<svg width="101" height="124"
     xmlns="http://www.w3.org/2000/svg" version="1.1">
 <path d="  M 4,88  L 5,88  L 5,91  L 6,91  L 6,93  L 7,93  L 7,94  L 9,94  L 9,95  L 14,95  L 14,96  L 17,96  L 17,95  L 25,95  L 25,94  L 30,94  L 30,93  L 32,93  L 32,92  L 35,92  L 35,91  L 38,91  L 38,90  L 41,90  L 41,89  L 42,89  L 42,88  L 44,88  L 44,87  L 46,87  L 46,86  L 48,86  L 48,85  L 51,85  L 51,84  L 52,84  L 52,83  L 54,83  L 54,82  L 56,82  L 56,81  L 57,81  L 57,80  L 58,80  L 58,76  L 59,76  L 59,67  L 60,67  L 60,66  L 59,66  L 59,63  L 60,63  L 60,62  L 59,62  L 59,60  L 60,60  L 60,59  L 65,59  L 65,60  L 67,60  L 67,59  L 71,59  L 71,58  L 81,58  L 81,57  L 91,57  L 91,56  L 93,56  L 93,59  L 94,59  L 94,66  L 93,66  L 93,67  L 94,67  L 94,70  L 93,70  L 93,71  L 94,71  L 94,74  L 93,74  L 93,75  L 94,75  L 94,78  L 93,78  L 93,79  L 94,79  L 94,82  L 93,82  L 93,84  L 94,84  L 94,85  L 93,85  L 93,108  L 92,108  L 92,109  L 93,109  L 93,112  L 92,112  L 92,113  L 93,113  L 93,116  L 92,116  L 92,123  L 93,123  L 93,124  L 99,124  L 99,123  L 100,123  L 100,115  L 101,115  L 101,114  L 100,114  L 100,111  L 101,111  L 101,110  L 100,110  L 100,108  L 101,108  L 101,106  L 100,106  L 100,104  L 101,104  L 101,101  L 100,101  L 100,100  L 101,100  L 101,17  L 100,17  L 100,16  L 101,16  L 101,14  L 100,14  L 100,11  L 101,11  L 101,10  L 100,10  L 100,2  L 99,2  L 99,1  L 98,1  L 98,0  L 94,0  L 94,1  L 92,1  L 92,2  L 91,2  L 91,3  L 92,3  L 92,13  L 93,13  L 93,21  L 94,21  L 94,22  L 93,22  L 93,23  L 94,23  L 94,48  L 88,48  L 88,49  L 81,49  L 81,50  L 74,50  L 74,51  L 71,51  L 71,50  L 70,50  L 70,51  L 68,51  L 68,52  L 65,52  L 65,54  L 64,54  L 64,56  L 61,56  L 61,55  L 60,55  L 60,54  L 59,54  L 59,48  L 58,48  L 58,36  L 57,36  L 57,35  L 58,35  L 58,34  L 57,34  L 57,26  L 56,26  L 56,15  L 55,15  L 55,14  L 54,14  L 54,13  L 52,13  L 52,12  L 50,12  L 50,13  L 49,13  L 49,14  L 48,14  L 48,27  L 49,27  L 49,28  L 48,28  L 48,29  L 49,29  L 49,32  L 48,32  L 48,33  L 49,33  L 49,43  L 50,43  L 50,49  L 49,49  L 49,51  L 40,51  L 40,52  L 39,52  L 39,51  L 38,51  L 38,52  L 28,52  L 28,53  L 27,53  L 27,52  L 25,52  L 25,53  L 19,53  L 19,54  L 18,54  L 18,53  L 17,53  L 17,54  L 14,54  L 14,53  L 13,53  L 13,54  L 12,54  L 12,53  L 11,53  L 11,54  L 10,54  L 10,52  L 9,52  L 9,23  L 8,23  L 8,22  L 5,22  L 5,23  L 3,23  L 3,24  L 2,24  L 2,26  L 1,26  L 1,36  L 2,36  L 2,40  L 1,40  L 1,47  L 2,47  L 2,49  L 1,49  L 1,50  L 2,50  L 2,57  L 3,57  L 3,76  L 4,76  L 4,77  L 3,77  L 3,79  L 4,79  Z  M 20,88  L 20,89  L 19,89  L 19,88  L 18,88  L 18,89  L 14,89  L 14,88  L 12,88  L 12,87  L 11,87  L 11,81  L 10,81  L 10,61  L 11,61  L 11,60  L 19,60  L 19,59  L 20,59  L 20,60  L 23,60  L 23,59  L 34,59  L 34,58  L 37,58  L 37,59  L 38,59  L 38,58  L 41,58  L 41,59  L 42,59  L 42,58  L 43,58  L 43,59  L 44,59  L 44,58  L 45,58  L 45,59  L 46,59  L 46,58  L 47,58  L 47,57  L 49,57  L 49,58  L 50,58  L 50,77  L 49,77  L 49,79  L 46,79  L 46,80  L 44,80  L 44,81  L 42,81  L 42,82  L 38,82  L 38,83  L 37,83  L 37,84  L 35,84  L 35,85  L 33,85  L 33,86  L 32,86  L 32,85  L 31,85  L 31,86  L 29,86  L 29,87  L 25,87  L 25,88  Z  " style="fill:rgb(0, 0, 0); fill-opacity:1.000; stroke:none;" />
</svg>
