<?xml version="1.0" encoding="UTF-8" standalone="no"?>
<!DOCTYPE svg PUBLIC "-//W3C//DTD SVG 1.1//EN" 
  "http://www.w3.org/Graphics/SVG/1.1/DTD/svg11.dtd">
<svg width="102" height="149"
     xmlns="http://www.w3.org/2000/svg" version="1.1">
 <path d="  M 3,60  L 3,63  L 4,63  L 4,64  L 3,64  L 3,65  L 4,65  L 4,68  L 5,68  L 5,69  L 6,69  L 6,70  L 7,70  L 7,71  L 8,71  L 8,72  L 12,72  L 12,73  L 17,73  L 17,72  L 25,72  L 25,71  L 29,71  L 29,70  L 33,70  L 33,69  L 36,69  L 36,68  L 42,68  L 42,67  L 46,67  L 46,66  L 50,66  L 50,65  L 51,65  L 51,64  L 52,64  L 52,47  L 53,47  L 53,42  L 54,42  L 54,41  L 55,41  L 55,42  L 56,42  L 56,43  L 57,43  L 57,44  L 59,44  L 59,43  L 63,43  L 63,42  L 74,42  L 74,41  L 83,41  L 83,43  L 84,43  L 84,47  L 83,47  L 83,48  L 84,48  L 84,49  L 83,49  L 83,51  L 84,51  L 84,54  L 83,54  L 83,55  L 84,55  L 84,62  L 83,62  L 83,65  L 84,65  L 84,66  L 83,66  L 83,87  L 82,87  L 82,88  L 83,88  L 83,91  L 84,91  L 84,90  L 89,90  L 89,87  L 90,87  L 90,57  L 91,57  L 91,56  L 90,56  L 90,53  L 91,53  L 91,51  L 90,51  L 90,49  L 91,49  L 91,47  L 90,47  L 90,46  L 91,46  L 91,36  L 90,36  L 90,29  L 89,29  L 89,20  L 88,20  L 88,19  L 89,19  L 89,17  L 88,17  L 88,11  L 87,11  L 87,4  L 86,4  L 86,2  L 83,2  L 83,1  L 82,1  L 82,2  L 81,2  L 81,3  L 80,3  L 80,10  L 81,10  L 81,18  L 82,18  L 82,28  L 83,28  L 83,30  L 82,30  L 82,31  L 83,31  L 83,32  L 82,32  L 82,33  L 80,33  L 80,34  L 75,34  L 75,35  L 60,35  L 60,36  L 54,36  L 54,34  L 53,34  L 53,12  L 54,12  L 54,11  L 53,11  L 53,8  L 54,8  L 54,5  L 53,5  L 53,4  L 52,4  L 52,5  L 48,5  L 48,7  L 47,7  L 47,25  L 46,25  L 46,26  L 47,26  L 47,32  L 46,32  L 46,33  L 45,33  L 45,34  L 39,34  L 39,35  L 34,35  L 34,36  L 27,36  L 27,37  L 17,37  L 17,38  L 15,38  L 15,37  L 14,37  L 14,38  L 13,38  L 13,37  L 10,37  L 10,36  L 9,36  L 9,22  L 10,22  L 10,21  L 9,21  L 9,20  L 10,20  L 10,17  L 9,17  L 9,16  L 10,16  L 10,7  L 11,7  L 11,4  L 10,4  L 10,2  L 9,2  L 9,1  L 7,1  L 7,0  L 4,0  L 4,1  L 3,1  L 3,3  L 2,3  L 2,17  L 1,17  L 1,18  L 2,18  L 2,21  L 1,21  L 1,22  L 2,22  L 2,23  L 1,23  L 1,38  L 2,38  L 2,39  L 1,39  L 1,42  L 2,42  L 2,44  L 1,44  L 1,45  L 2,45  L 2,58  L 3,58  L 3,59  L 2,59  L 2,60  Z  M 34,42  L 34,41  L 37,41  L 37,42  L 38,42  L 38,41  L 42,41  L 42,40  L 45,40  L 45,56  L 44,56  L 44,59  L 42,59  L 42,60  L 38,60  L 38,61  L 33,61  L 33,62  L 30,62  L 30,63  L 25,63  L 25,64  L 21,64  L 21,65  L 12,65  L 12,64  L 11,64  L 11,63  L 10,63  L 10,60  L 9,60  L 9,45  L 10,45  L 10,44  L 13,44  L 13,43  L 14,43  L 14,44  L 15,44  L 15,43  L 16,43  L 16,44  L 17,44  L 17,43  L 23,43  L 23,42  L 24,42  L 24,43  L 25,43  L 25,42  Z  " style="fill:rgb(0, 0, 0); fill-opacity:1.000; stroke:none;" />
 <path d="  M 24,136  L 25,136  L 25,137  L 24,137  L 24,138  L 25,138  L 25,141  L 26,141  L 26,144  L 27,144  L 27,145  L 28,145  L 28,146  L 29,146  L 29,148  L 33,148  L 33,149  L 59,149  L 59,148  L 67,148  L 67,147  L 74,147  L 74,146  L 82,146  L 82,145  L 91,145  L 91,144  L 98,144  L 98,143  L 101,143  L 101,142  L 102,142  L 102,135  L 98,135  L 98,136  L 93,136  L 93,137  L 86,137  L 86,138  L 83,138  L 83,137  L 82,137  L 82,138  L 78,138  L 78,139  L 77,139  L 77,138  L 76,138  L 76,139  L 65,139  L 65,140  L 59,140  L 59,141  L 52,141  L 52,142  L 51,142  L 51,141  L 50,141  L 50,142  L 47,142  L 47,141  L 46,141  L 46,142  L 35,142  L 35,141  L 34,141  L 34,139  L 33,139  L 33,136  L 32,136  L 32,125  L 31,125  L 31,104  L 32,104  L 32,103  L 31,103  L 31,102  L 32,102  L 32,96  L 31,96  L 31,95  L 30,95  L 30,94  L 28,94  L 28,95  L 26,95  L 26,97  L 25,97  L 25,99  L 24,99  L 24,108  L 23,108  L 23,130  L 24,130  Z  " style="fill:rgb(0, 0, 0); fill-opacity:1.000; stroke:none;" />
</svg>
