<?xml version="1.0" encoding="UTF-8" standalone="no"?>
<!DOCTYPE svg PUBLIC "-//W3C//DTD SVG 1.1//EN" 
  "http://www.w3.org/Graphics/SVG/1.1/DTD/svg11.dtd">
<svg width="99" height="165"
     xmlns="http://www.w3.org/2000/svg" version="1.1">
 <path d="  M 1,50  L 2,50  L 2,59  L 3,59  L 3,66  L 4,66  L 4,70  L 5,70  L 5,71  L 6,71  L 6,72  L 7,72  L 7,73  L 8,73  L 8,74  L 12,74  L 12,75  L 25,75  L 25,74  L 29,74  L 29,73  L 32,73  L 32,72  L 36,72  L 36,71  L 38,71  L 38,70  L 41,70  L 41,69  L 47,69  L 47,68  L 49,68  L 49,67  L 51,67  L 51,66  L 52,66  L 52,64  L 53,64  L 53,61  L 54,61  L 54,54  L 55,54  L 55,53  L 54,53  L 54,51  L 55,51  L 55,49  L 54,49  L 54,48  L 55,48  L 55,43  L 56,43  L 56,35  L 55,35  L 55,3  L 54,3  L 54,2  L 52,2  L 52,1  L 50,1  L 50,2  L 49,2  L 49,4  L 48,4  L 48,29  L 47,29  L 47,30  L 48,30  L 48,31  L 47,31  L 47,34  L 46,34  L 46,35  L 45,35  L 45,34  L 44,34  L 44,35  L 40,35  L 40,36  L 36,36  L 36,37  L 30,37  L 30,38  L 29,38  L 29,37  L 28,37  L 28,38  L 24,38  L 24,39  L 23,39  L 23,38  L 22,38  L 22,39  L 10,39  L 10,37  L 9,37  L 9,29  L 10,29  L 10,27  L 9,27  L 9,26  L 10,26  L 10,23  L 9,23  L 9,22  L 10,22  L 10,19  L 9,19  L 9,18  L 10,18  L 10,6  L 11,6  L 11,5  L 10,5  L 10,2  L 9,2  L 9,1  L 5,1  L 5,0  L 4,0  L 4,1  L 3,1  L 3,2  L 2,2  L 2,4  L 1,4  L 1,8  L 2,8  L 2,9  L 1,9  Z  M 41,43  L 41,42  L 45,42  L 45,41  L 47,41  L 47,48  L 46,48  L 46,49  L 47,49  L 47,51  L 46,51  L 46,59  L 45,59  L 45,61  L 43,61  L 43,62  L 39,62  L 39,63  L 36,63  L 36,64  L 32,64  L 32,65  L 28,65  L 28,66  L 24,66  L 24,67  L 12,67  L 12,66  L 11,66  L 11,65  L 10,65  L 10,58  L 9,58  L 9,57  L 10,57  L 10,56  L 9,56  L 9,47  L 10,47  L 10,46  L 17,46  L 17,45  L 19,45  L 19,46  L 20,46  L 20,45  L 26,45  L 26,44  L 33,44  L 33,43  L 34,43  L 34,44  L 35,44  L 35,43  Z  " style="fill:rgb(0, 0, 0); fill-opacity:1.000; stroke:none;" />
 <path d="  M 40,107  L 40,106  L 34,106  L 34,107  L 30,107  L 30,108  L 28,108  L 28,109  L 26,109  L 26,110  L 25,110  L 25,111  L 24,111  L 24,114  L 25,114  L 25,115  L 26,115  L 26,116  L 27,116  L 27,117  L 28,117  L 28,116  L 29,116  L 29,117  L 30,117  L 30,118  L 31,118  L 31,146  L 32,146  L 32,147  L 31,147  L 31,149  L 32,149  L 32,154  L 33,154  L 33,159  L 34,159  L 34,161  L 35,161  L 35,162  L 36,162  L 36,163  L 38,163  L 38,164  L 39,164  L 39,165  L 41,165  L 41,164  L 42,164  L 42,165  L 71,165  L 71,164  L 75,164  L 75,163  L 81,163  L 81,162  L 85,162  L 85,161  L 86,161  L 86,162  L 87,162  L 87,161  L 92,161  L 92,160  L 95,160  L 95,159  L 96,159  L 96,158  L 97,158  L 97,157  L 98,157  L 98,154  L 99,154  L 99,153  L 98,153  L 98,151  L 94,151  L 94,152  L 92,152  L 92,153  L 88,153  L 88,154  L 84,154  L 84,155  L 79,155  L 79,156  L 71,156  L 71,157  L 64,157  L 64,158  L 61,158  L 61,157  L 60,157  L 60,158  L 56,158  L 56,159  L 54,159  L 54,158  L 53,158  L 53,159  L 50,159  L 50,158  L 49,158  L 49,159  L 47,159  L 47,158  L 42,158  L 42,156  L 41,156  L 41,154  L 40,154  L 40,149  L 39,149  L 39,116  L 41,116  L 41,115  L 42,115  L 42,116  L 43,116  L 43,115  L 52,115  L 52,114  L 61,114  L 61,113  L 63,113  L 63,114  L 64,114  L 64,113  L 69,113  L 69,112  L 75,112  L 75,111  L 76,111  L 76,112  L 77,112  L 77,111  L 85,111  L 85,110  L 86,110  L 86,111  L 87,111  L 87,110  L 97,110  L 97,109  L 99,109  L 99,102  L 98,102  L 98,101  L 95,101  L 95,102  L 90,102  L 90,103  L 82,103  L 82,104  L 68,104  L 68,105  L 58,105  L 58,106  L 57,106  L 57,105  L 56,105  L 56,106  L 48,106  L 48,107  Z  " style="fill:rgb(0, 0, 0); fill-opacity:1.000; stroke:none;" />
 <path d="  M 90,71  L 89,71  L 89,72  L 90,72  L 90,74  L 89,74  L 89,89  L 90,89  L 90,90  L 93,90  L 93,89  L 94,89  L 94,88  L 95,88  L 95,87  L 96,87  L 96,83  L 97,83  L 97,70  L 98,70  L 98,69  L 97,69  L 97,68  L 98,68  L 98,67  L 97,67  L 97,66  L 98,66  L 98,65  L 97,65  L 97,64  L 98,64  L 98,29  L 97,29  L 97,28  L 98,28  L 98,27  L 97,27  L 97,15  L 96,15  L 96,3  L 95,3  L 95,1  L 93,1  L 93,0  L 89,0  L 89,1  L 88,1  L 88,2  L 87,2  L 87,8  L 88,8  L 88,17  L 89,17  L 89,26  L 90,26  L 90,27  L 89,27  L 89,28  L 90,28  L 90,29  L 89,29  L 89,30  L 88,30  L 88,31  L 86,31  L 86,32  L 80,32  L 80,33  L 75,33  L 75,34  L 74,34  L 74,33  L 72,33  L 72,34  L 63,34  L 63,35  L 62,35  L 62,34  L 61,34  L 61,35  L 59,35  L 59,36  L 57,36  L 57,38  L 59,38  L 59,40  L 60,40  L 60,41  L 62,41  L 62,42  L 69,42  L 69,41  L 77,41  L 77,40  L 84,40  L 84,39  L 88,39  L 88,38  L 89,38  L 89,39  L 90,39  L 90,41  L 91,41  L 91,43  L 90,43  L 90,44  L 91,44  L 91,47  L 90,47  L 90,48  L 91,48  L 91,51  L 90,51  Z  " style="fill:rgb(0, 0, 0); fill-opacity:1.000; stroke:none;" />
</svg>
