<?xml version="1.0" encoding="UTF-8" standalone="no"?>
<!DOCTYPE svg PUBLIC "-//W3C//DTD SVG 1.1//EN" 
  "http://www.w3.org/Graphics/SVG/1.1/DTD/svg11.dtd">
<svg width="104" height="169"
     xmlns="http://www.w3.org/2000/svg" version="1.1">
 <path d="  M 1,44  L 2,44  L 2,47  L 1,47  L 1,48  L 2,48  L 2,56  L 3,56  L 3,57  L 2,57  L 2,60  L 3,60  L 3,61  L 2,61  L 2,64  L 3,64  L 3,76  L 4,76  L 4,79  L 5,79  L 5,82  L 6,82  L 6,83  L 7,83  L 7,84  L 8,84  L 8,85  L 9,85  L 9,86  L 13,86  L 13,87  L 27,87  L 27,86  L 35,86  L 35,85  L 37,85  L 37,86  L 38,86  L 38,85  L 42,85  L 42,84  L 44,84  L 44,83  L 47,83  L 47,82  L 48,82  L 48,81  L 49,81  L 49,80  L 48,80  L 48,79  L 49,79  L 49,78  L 51,78  L 51,77  L 53,77  L 53,74  L 54,74  L 54,71  L 55,71  L 55,65  L 56,65  L 56,61  L 57,61  L 57,56  L 58,56  L 58,55  L 57,55  L 57,54  L 58,54  L 58,48  L 59,48  L 59,44  L 60,44  L 60,40  L 61,40  L 61,38  L 60,38  L 60,36  L 61,36  L 61,21  L 62,21  L 62,15  L 61,15  L 61,14  L 62,14  L 62,8  L 63,8  L 63,7  L 62,7  L 62,5  L 61,5  L 61,4  L 60,4  L 60,3  L 56,3  L 56,4  L 55,4  L 55,7  L 54,7  L 54,8  L 55,8  L 55,9  L 54,9  L 54,10  L 55,10  L 55,11  L 54,11  L 54,25  L 53,25  L 53,36  L 52,36  L 52,39  L 51,39  L 51,40  L 50,40  L 50,41  L 45,41  L 45,42  L 38,42  L 38,43  L 29,43  L 29,44  L 28,44  L 28,43  L 27,43  L 27,44  L 24,44  L 24,43  L 23,43  L 23,44  L 19,44  L 19,45  L 18,45  L 18,44  L 17,44  L 17,45  L 10,45  L 10,43  L 9,43  L 9,40  L 10,40  L 10,39  L 9,39  L 9,32  L 10,32  L 10,31  L 9,31  L 9,30  L 10,30  L 10,27  L 9,27  L 9,26  L 10,26  L 10,16  L 11,16  L 11,15  L 10,15  L 10,14  L 11,14  L 11,13  L 10,13  L 10,12  L 11,12  L 11,11  L 10,11  L 10,10  L 11,10  L 11,6  L 10,6  L 10,4  L 9,4  L 9,3  L 6,3  L 6,2  L 5,2  L 5,3  L 3,3  L 3,6  L 2,6  L 2,8  L 3,8  L 3,10  L 2,10  L 2,12  L 3,12  L 3,13  L 2,13  L 2,16  L 3,16  L 3,17  L 2,17  L 2,31  L 1,31  L 1,32  L 2,32  L 2,33  L 1,33  Z  M 50,53  L 49,53  L 49,54  L 50,54  L 50,57  L 49,57  L 49,62  L 48,62  L 48,66  L 47,66  L 47,68  L 46,68  L 46,71  L 45,71  L 45,73  L 44,73  L 44,74  L 42,74  L 42,75  L 41,75  L 41,76  L 39,76  L 39,77  L 36,77  L 36,78  L 32,78  L 32,79  L 23,79  L 23,80  L 14,80  L 14,79  L 12,79  L 12,77  L 11,77  L 11,75  L 10,75  L 10,59  L 9,59  L 9,58  L 10,58  L 10,56  L 9,56  L 9,54  L 10,54  L 10,52  L 11,52  L 11,51  L 20,51  L 20,50  L 26,50  L 26,49  L 27,49  L 27,50  L 28,50  L 28,49  L 36,49  L 36,48  L 37,48  L 37,49  L 38,49  L 38,48  L 47,48  L 47,47  L 50,47  Z  " style="fill:rgb(0, 0, 0); fill-opacity:1.000; stroke:none;" />
 <path d="  M 90,160  L 91,160  L 91,157  L 92,157  L 92,150  L 93,150  L 93,140  L 94,140  L 94,139  L 93,139  L 93,138  L 94,138  L 94,134  L 95,134  L 95,107  L 94,107  L 94,106  L 92,106  L 92,105  L 90,105  L 90,106  L 88,106  L 88,130  L 86,130  L 86,131  L 84,131  L 84,130  L 65,130  L 65,131  L 64,131  L 64,130  L 61,130  L 61,131  L 60,131  L 60,130  L 58,130  L 58,131  L 56,131  L 56,130  L 54,130  L 54,131  L 52,131  L 52,130  L 51,130  L 51,131  L 48,131  L 48,130  L 47,130  L 47,131  L 41,131  L 41,102  L 40,102  L 40,101  L 38,101  L 38,102  L 36,102  L 36,103  L 35,103  L 35,104  L 34,104  L 34,105  L 33,105  L 33,106  L 32,106  L 32,120  L 33,120  L 33,121  L 32,121  L 32,124  L 33,124  L 33,125  L 32,125  L 32,128  L 33,128  L 33,135  L 34,135  L 34,140  L 35,140  L 35,146  L 36,146  L 36,147  L 35,147  L 35,148  L 36,148  L 36,155  L 37,155  L 37,161  L 38,161  L 38,164  L 39,164  L 39,166  L 40,166  L 40,167  L 42,167  L 42,168  L 44,168  L 44,169  L 75,169  L 75,168  L 79,168  L 79,167  L 80,167  L 80,166  L 83,166  L 83,165  L 85,165  L 85,164  L 86,164  L 86,163  L 87,163  L 87,162  L 88,162  L 88,161  L 90,161  Z  M 85,138  L 85,139  L 86,139  L 86,149  L 85,149  L 85,155  L 84,155  L 84,157  L 83,157  L 83,158  L 82,158  L 82,159  L 79,159  L 79,160  L 75,160  L 75,161  L 71,161  L 71,162  L 66,162  L 66,163  L 65,163  L 65,162  L 64,162  L 64,163  L 49,163  L 49,162  L 46,162  L 46,161  L 45,161  L 45,160  L 44,160  L 44,155  L 43,155  L 43,151  L 42,151  L 42,140  L 43,140  L 43,139  L 46,139  L 46,138  L 47,138  L 47,139  L 49,139  L 49,138  L 51,138  L 51,139  L 52,139  L 52,138  L 55,138  L 55,139  L 56,139  L 56,138  Z  " style="fill:rgb(0, 0, 0); fill-opacity:1.000; stroke:none;" />
 <path d="  M 104,17  L 103,17  L 103,3  L 102,3  L 102,2  L 101,2  L 101,1  L 99,1  L 99,0  L 95,0  L 95,2  L 94,2  L 94,5  L 95,5  L 95,17  L 96,17  L 96,32  L 95,32  L 95,33  L 92,33  L 92,34  L 87,34  L 87,35  L 83,35  L 83,36  L 79,36  L 79,37  L 73,37  L 73,38  L 72,38  L 72,37  L 69,37  L 69,38  L 66,38  L 66,39  L 65,39  L 65,44  L 66,44  L 66,46  L 72,46  L 72,45  L 75,45  L 75,44  L 83,44  L 83,43  L 88,43  L 88,42  L 91,42  L 91,41  L 93,41  L 93,40  L 95,40  L 95,41  L 96,41  L 96,84  L 95,84  L 95,85  L 96,85  L 96,87  L 95,87  L 95,89  L 96,89  L 96,91  L 95,91  L 95,94  L 96,94  L 96,95  L 97,95  L 97,96  L 99,96  L 99,97  L 102,97  L 102,95  L 103,95  L 103,72  L 104,72  L 104,71  L 103,71  L 103,70  L 104,70  L 104,69  L 103,69  L 103,68  L 104,68  L 104,67  L 103,67  L 103,66  L 104,66  Z  " style="fill:rgb(0, 0, 0); fill-opacity:1.000; stroke:none;" />
</svg>
