<?xml version="1.0" encoding="UTF-8" standalone="no"?>
<!DOCTYPE svg PUBLIC "-//W3C//DTD SVG 1.1//EN" 
  "http://www.w3.org/Graphics/SVG/1.1/DTD/svg11.dtd">
<svg width="102" height="155"
     xmlns="http://www.w3.org/2000/svg" version="1.1">
 <path d="  M 1,38  L 1,45  L 0,45  L 0,46  L 1,46  L 1,51  L 2,51  L 2,63  L 3,63  L 3,66  L 4,66  L 4,68  L 5,68  L 5,70  L 6,70  L 6,71  L 8,71  L 8,72  L 10,72  L 10,73  L 12,73  L 12,72  L 13,72  L 13,73  L 20,73  L 20,72  L 28,72  L 28,71  L 32,71  L 32,70  L 36,70  L 36,69  L 39,69  L 39,68  L 43,68  L 43,67  L 45,67  L 45,66  L 47,66  L 47,65  L 50,65  L 50,64  L 51,64  L 51,63  L 53,63  L 53,60  L 54,60  L 54,58  L 53,58  L 53,57  L 54,57  L 54,47  L 55,47  L 55,41  L 56,41  L 56,39  L 57,39  L 57,36  L 56,36  L 56,35  L 57,35  L 57,34  L 56,34  L 56,32  L 55,32  L 55,31  L 56,31  L 56,29  L 55,29  L 55,27  L 56,27  L 56,26  L 55,26  L 55,19  L 56,19  L 56,9  L 57,9  L 57,7  L 56,7  L 56,6  L 55,6  L 55,5  L 51,5  L 51,6  L 50,6  L 50,8  L 49,8  L 49,21  L 48,21  L 48,23  L 49,23  L 49,24  L 48,24  L 48,38  L 47,38  L 47,39  L 44,39  L 44,38  L 43,38  L 43,39  L 37,39  L 37,40  L 25,40  L 25,41  L 24,41  L 24,40  L 23,40  L 23,41  L 9,41  L 9,20  L 10,20  L 10,8  L 11,8  L 11,6  L 10,6  L 10,5  L 9,5  L 9,4  L 7,4  L 7,3  L 6,3  L 6,4  L 3,4  L 3,5  L 2,5  L 2,6  L 1,6  L 1,7  L 2,7  L 2,8  L 1,8  L 1,9  L 2,9  L 2,10  L 1,10  L 1,11  L 2,11  L 2,16  L 1,16  L 1,25  L 0,25  L 0,26  L 1,26  L 1,29  L 0,29  L 0,30  L 1,30  L 1,33  L 0,33  L 0,34  L 1,34  L 1,37  L 0,37  L 0,38  Z  M 18,47  L 19,47  L 19,48  L 20,48  L 20,47  L 31,47  L 31,46  L 43,46  L 43,45  L 46,45  L 46,47  L 47,47  L 47,52  L 46,52  L 46,59  L 45,59  L 45,60  L 43,60  L 43,61  L 39,61  L 39,62  L 35,62  L 35,63  L 31,63  L 31,64  L 26,64  L 26,65  L 19,65  L 19,66  L 13,66  L 13,65  L 11,65  L 11,64  L 10,64  L 10,58  L 9,58  L 9,50  L 10,50  L 10,49  L 11,49  L 11,48  L 18,48  Z  " style="fill:rgb(0, 0, 0); fill-opacity:1.000; stroke:none;" />
 <path d="  M 40,122  L 39,122  L 39,123  L 38,123  L 38,125  L 37,125  L 37,127  L 36,127  L 36,128  L 35,128  L 35,129  L 34,129  L 34,131  L 33,131  L 33,132  L 32,132  L 32,135  L 31,135  L 31,136  L 30,136  L 30,138  L 29,138  L 29,139  L 28,139  L 28,140  L 27,140  L 27,142  L 26,142  L 26,143  L 25,143  L 25,145  L 24,145  L 24,146  L 23,146  L 23,147  L 22,147  L 22,148  L 21,148  L 21,149  L 20,149  L 20,155  L 26,155  L 26,154  L 27,154  L 27,153  L 28,153  L 28,152  L 29,152  L 29,151  L 30,151  L 30,150  L 31,150  L 31,148  L 32,148  L 32,147  L 33,147  L 33,146  L 34,146  L 34,144  L 35,144  L 35,143  L 36,143  L 36,141  L 37,141  L 37,139  L 38,139  L 38,138  L 39,138  L 39,136  L 40,136  L 40,134  L 41,134  L 41,133  L 42,133  L 42,132  L 43,132  L 43,130  L 44,130  L 44,128  L 45,128  L 45,127  L 46,127  L 46,124  L 50,124  L 50,126  L 51,126  L 51,127  L 52,127  L 52,128  L 54,128  L 54,129  L 56,129  L 56,130  L 58,130  L 58,131  L 60,131  L 60,132  L 61,132  L 61,133  L 62,133  L 62,134  L 63,134  L 63,135  L 64,135  L 64,136  L 65,136  L 65,137  L 67,137  L 67,138  L 68,138  L 68,139  L 70,139  L 70,140  L 71,140  L 71,141  L 73,141  L 73,142  L 74,142  L 74,143  L 75,143  L 75,144  L 77,144  L 77,145  L 79,145  L 79,146  L 80,146  L 80,147  L 82,147  L 82,148  L 83,148  L 83,149  L 86,149  L 86,150  L 88,150  L 88,151  L 90,151  L 90,152  L 93,152  L 93,153  L 96,153  L 96,154  L 100,154  L 100,153  L 102,153  L 102,148  L 101,148  L 101,147  L 100,147  L 100,146  L 97,146  L 97,145  L 96,145  L 96,144  L 93,144  L 93,143  L 90,143  L 90,142  L 88,142  L 88,141  L 86,141  L 86,140  L 84,140  L 84,138  L 81,138  L 81,137  L 80,137  L 80,136  L 77,136  L 77,135  L 76,135  L 76,134  L 74,134  L 74,133  L 73,133  L 73,132  L 72,132  L 72,131  L 70,131  L 70,130  L 69,130  L 69,129  L 68,129  L 68,128  L 66,128  L 66,127  L 64,127  L 64,126  L 63,126  L 63,125  L 62,125  L 62,124  L 61,124  L 61,123  L 60,123  L 60,122  L 58,122  L 58,121  L 57,121  L 57,120  L 55,120  L 55,118  L 54,118  L 54,117  L 53,117  L 53,115  L 54,115  L 54,113  L 55,113  L 55,111  L 56,111  L 56,109  L 57,109  L 57,108  L 58,108  L 58,107  L 59,107  L 59,105  L 60,105  L 60,104  L 61,104  L 61,103  L 62,103  L 62,98  L 60,98  L 60,97  L 57,97  L 57,96  L 53,96  L 53,98  L 52,98  L 52,103  L 51,103  L 51,104  L 50,104  L 50,106  L 49,106  L 49,108  L 48,108  L 48,110  L 46,110  L 46,112  L 45,112  L 45,114  L 44,114  L 44,116  L 43,116  L 43,118  L 42,118  L 42,119  L 41,119  L 41,120  L 40,120  Z  " style="fill:rgb(0, 0, 0); fill-opacity:1.000; stroke:none;" />
 <path d="  M 95,47  L 95,49  L 94,49  L 94,51  L 95,51  L 95,92  L 97,92  L 97,93  L 98,93  L 98,92  L 101,92  L 101,91  L 102,91  L 102,26  L 101,26  L 101,14  L 100,14  L 100,13  L 101,13  L 101,12  L 100,12  L 100,2  L 99,2  L 99,1  L 98,1  L 98,0  L 95,0  L 95,1  L 93,1  L 93,2  L 92,2  L 92,5  L 93,5  L 93,21  L 94,21  L 94,23  L 93,23  L 93,24  L 94,24  L 94,26  L 93,26  L 93,29  L 91,29  L 91,30  L 86,30  L 86,31  L 84,31  L 84,30  L 83,30  L 83,31  L 80,31  L 80,32  L 69,32  L 69,33  L 68,33  L 68,32  L 67,32  L 67,33  L 62,33  L 62,34  L 60,34  L 60,36  L 59,36  L 59,39  L 60,39  L 60,40  L 62,40  L 62,41  L 66,41  L 66,40  L 67,40  L 67,41  L 68,41  L 68,40  L 76,40  L 76,39  L 87,39  L 87,38  L 88,38  L 88,39  L 89,39  L 89,38  L 94,38  L 94,47  Z  " style="fill:rgb(0, 0, 0); fill-opacity:1.000; stroke:none;" />
</svg>
