<?xml version="1.0" encoding="UTF-8" standalone="no"?>
<!DOCTYPE svg PUBLIC "-//W3C//DTD SVG 1.1//EN" 
  "http://www.w3.org/Graphics/SVG/1.1/DTD/svg11.dtd">
<svg width="100" height="160"
     xmlns="http://www.w3.org/2000/svg" version="1.1">
 <path d="  M 6,75  L 7,75  L 7,76  L 8,76  L 8,77  L 9,77  L 9,78  L 10,78  L 10,77  L 11,77  L 11,78  L 26,78  L 26,77  L 30,77  L 30,76  L 33,76  L 33,75  L 35,75  L 35,74  L 38,74  L 38,73  L 41,73  L 41,72  L 44,72  L 44,71  L 45,71  L 45,70  L 46,70  L 46,69  L 48,69  L 48,68  L 49,68  L 49,67  L 52,67  L 52,65  L 53,65  L 53,64  L 54,64  L 54,59  L 55,59  L 55,55  L 56,55  L 56,54  L 55,54  L 55,52  L 56,52  L 56,46  L 57,46  L 57,40  L 58,40  L 58,39  L 59,39  L 59,40  L 62,40  L 62,41  L 69,41  L 69,40  L 77,40  L 77,39  L 78,39  L 78,40  L 79,40  L 79,39  L 84,39  L 84,38  L 90,38  L 90,39  L 91,39  L 91,66  L 90,66  L 90,67  L 91,67  L 91,69  L 90,69  L 90,86  L 89,86  L 89,91  L 90,91  L 90,92  L 92,92  L 92,91  L 94,91  L 94,90  L 95,90  L 95,89  L 96,89  L 96,87  L 97,87  L 97,73  L 98,73  L 98,72  L 97,72  L 97,71  L 98,71  L 98,59  L 99,59  L 99,39  L 98,39  L 98,38  L 99,38  L 99,26  L 98,26  L 98,2  L 97,2  L 97,1  L 95,1  L 95,0  L 92,0  L 92,2  L 91,2  L 91,29  L 90,29  L 90,30  L 88,30  L 88,31  L 82,31  L 82,32  L 74,32  L 74,33  L 66,33  L 66,34  L 61,34  L 61,35  L 59,35  L 59,36  L 58,36  L 58,34  L 57,34  L 57,15  L 58,15  L 58,14  L 57,14  L 57,13  L 58,13  L 58,12  L 57,12  L 57,11  L 58,11  L 58,2  L 57,2  L 57,1  L 56,1  L 56,0  L 55,0  L 55,1  L 53,1  L 53,2  L 51,2  L 51,10  L 50,10  L 50,22  L 49,22  L 49,34  L 48,34  L 48,37  L 46,37  L 46,38  L 44,38  L 44,37  L 41,37  L 41,38  L 36,38  L 36,39  L 35,39  L 35,38  L 34,38  L 34,39  L 31,39  L 31,38  L 30,38  L 30,39  L 26,39  L 26,40  L 25,40  L 25,39  L 24,39  L 24,40  L 10,40  L 10,39  L 9,39  L 9,19  L 10,19  L 10,18  L 9,18  L 9,17  L 10,17  L 10,2  L 9,2  L 9,1  L 8,1  L 8,0  L 4,0  L 4,1  L 2,1  L 2,2  L 1,2  L 1,51  L 2,51  L 2,64  L 3,64  L 3,70  L 4,70  L 4,72  L 5,72  L 5,74  L 6,74  Z  M 19,47  L 19,46  L 27,46  L 27,45  L 35,45  L 35,44  L 36,44  L 36,45  L 37,45  L 37,44  L 40,44  L 40,45  L 41,45  L 41,44  L 46,44  L 46,43  L 47,43  L 47,54  L 46,54  L 46,55  L 47,55  L 47,57  L 46,57  L 46,61  L 45,61  L 45,63  L 41,63  L 41,64  L 39,64  L 39,65  L 38,65  L 38,66  L 35,66  L 35,67  L 31,67  L 31,68  L 28,68  L 28,69  L 27,69  L 27,70  L 22,70  L 22,71  L 12,71  L 12,69  L 11,69  L 11,67  L 10,67  L 10,61  L 9,61  L 9,59  L 10,59  L 10,58  L 9,58  L 9,48  L 10,48  L 10,47  Z  " style="fill:rgb(0, 0, 0); fill-opacity:1.000; stroke:none;" />
 <path d="  M 72,117  L 72,115  L 73,115  L 73,113  L 74,113  L 74,112  L 75,112  L 75,109  L 76,109  L 76,108  L 77,108  L 77,105  L 76,105  L 76,102  L 74,102  L 74,101  L 73,101  L 73,100  L 71,100  L 71,99  L 60,99  L 60,100  L 52,100  L 52,101  L 46,101  L 46,102  L 41,102  L 41,103  L 38,103  L 38,104  L 36,104  L 36,105  L 35,105  L 35,106  L 34,106  L 34,107  L 33,107  L 33,110  L 34,110  L 34,111  L 35,111  L 35,110  L 40,110  L 40,109  L 42,109  L 42,108  L 47,108  L 47,107  L 55,107  L 55,106  L 64,106  L 64,105  L 67,105  L 67,106  L 69,106  L 69,108  L 68,108  L 68,110  L 67,110  L 67,111  L 66,111  L 66,112  L 65,112  L 65,113  L 64,113  L 64,115  L 63,115  L 63,117  L 62,117  L 62,118  L 61,118  L 61,121  L 60,121  L 60,122  L 59,122  L 59,124  L 58,124  L 58,125  L 57,125  L 57,127  L 56,127  L 56,129  L 55,129  L 55,130  L 54,130  L 54,132  L 53,132  L 53,134  L 52,134  L 52,136  L 51,136  L 51,139  L 50,139  L 50,140  L 49,140  L 49,142  L 48,142  L 48,143  L 49,143  L 49,144  L 48,144  L 48,145  L 47,145  L 47,147  L 46,147  L 46,149  L 45,149  L 45,150  L 44,150  L 44,152  L 43,152  L 43,154  L 42,154  L 42,155  L 41,155  L 41,156  L 40,156  L 40,157  L 41,157  L 41,158  L 40,158  L 40,159  L 41,159  L 41,160  L 47,160  L 47,159  L 48,159  L 48,157  L 49,157  L 49,156  L 50,156  L 50,155  L 51,155  L 51,153  L 52,153  L 52,151  L 53,151  L 53,149  L 54,149  L 54,146  L 55,146  L 55,145  L 56,145  L 56,143  L 57,143  L 57,141  L 58,141  L 58,140  L 59,140  L 59,137  L 60,137  L 60,135  L 61,135  L 61,134  L 64,134  L 64,135  L 66,135  L 66,136  L 67,136  L 67,137  L 69,137  L 69,138  L 72,138  L 72,139  L 73,139  L 73,140  L 75,140  L 75,141  L 76,141  L 76,142  L 78,142  L 78,143  L 79,143  L 79,144  L 81,144  L 81,145  L 83,145  L 83,146  L 85,146  L 85,147  L 86,147  L 86,148  L 87,148  L 87,149  L 89,149  L 89,150  L 91,150  L 91,152  L 93,152  L 93,153  L 96,153  L 96,154  L 98,154  L 98,153  L 99,153  L 99,152  L 100,152  L 100,146  L 99,146  L 99,145  L 97,145  L 97,144  L 95,144  L 95,143  L 94,143  L 94,142  L 92,142  L 92,141  L 90,141  L 90,140  L 88,140  L 88,139  L 87,139  L 87,138  L 85,138  L 85,137  L 84,137  L 84,136  L 82,136  L 82,135  L 80,135  L 80,134  L 77,134  L 77,133  L 76,133  L 76,132  L 74,132  L 74,131  L 72,131  L 72,130  L 70,130  L 70,128  L 69,128  L 69,127  L 65,127  L 65,125  L 66,125  L 66,124  L 67,124  L 67,122  L 68,122  L 68,121  L 69,121  L 69,120  L 70,120  L 70,119  L 71,119  L 71,117  Z  " style="fill:rgb(0, 0, 0); fill-opacity:1.000; stroke:none;" />
</svg>
