<?xml version="1.0" encoding="UTF-8" standalone="no"?>
<!DOCTYPE svg PUBLIC "-//W3C//DTD SVG 1.1//EN" 
  "http://www.w3.org/Graphics/SVG/1.1/DTD/svg11.dtd">
<svg width="102" height="103"
     xmlns="http://www.w3.org/2000/svg" version="1.1">
 <path d="  M 70,33  L 71,33  L 71,34  L 70,34  L 70,36  L 71,36  L 71,39  L 70,39  L 70,40  L 71,40  L 71,43  L 70,43  L 70,45  L 68,45  L 68,44  L 65,44  L 65,45  L 52,45  L 52,44  L 51,44  L 51,42  L 52,42  L 52,36  L 51,36  L 51,35  L 52,35  L 52,33  L 51,33  L 51,32  L 52,32  L 52,29  L 51,29  L 51,28  L 52,28  L 52,26  L 51,26  L 51,15  L 50,15  L 50,13  L 46,13  L 46,14  L 45,14  L 45,15  L 44,15  L 44,19  L 43,19  L 43,20  L 44,20  L 44,21  L 43,21  L 43,24  L 44,24  L 44,25  L 43,25  L 43,28  L 44,28  L 44,30  L 43,30  L 43,32  L 44,32  L 44,34  L 43,34  L 43,36  L 44,36  L 44,37  L 43,37  L 43,42  L 42,42  L 42,44  L 41,44  L 41,43  L 31,43  L 31,44  L 30,44  L 30,43  L 29,43  L 29,44  L 28,44  L 28,43  L 27,43  L 27,44  L 24,44  L 24,43  L 23,43  L 23,44  L 14,44  L 14,45  L 10,45  L 10,44  L 9,44  L 9,43  L 8,43  L 8,42  L 9,42  L 9,39  L 8,39  L 8,36  L 9,36  L 9,17  L 8,17  L 8,16  L 5,16  L 5,17  L 3,17  L 3,18  L 2,18  L 2,19  L 1,19  L 1,23  L 0,23  L 0,25  L 1,25  L 1,26  L 0,26  L 0,27  L 1,27  L 1,28  L 0,28  L 0,29  L 1,29  L 1,30  L 0,30  L 0,32  L 1,32  L 1,34  L 0,34  L 0,36  L 1,36  L 1,37  L 0,37  L 0,40  L 1,40  L 1,42  L 0,42  L 0,44  L 1,44  L 1,53  L 2,53  L 2,71  L 3,71  L 3,76  L 4,76  L 4,78  L 5,78  L 5,80  L 7,80  L 7,81  L 8,81  L 8,82  L 9,82  L 9,83  L 10,83  L 10,82  L 12,82  L 12,83  L 14,83  L 14,82  L 18,82  L 18,81  L 24,81  L 24,80  L 28,80  L 28,79  L 30,79  L 30,78  L 33,78  L 33,77  L 34,77  L 34,76  L 38,76  L 38,75  L 42,75  L 42,74  L 44,74  L 44,73  L 45,73  L 45,72  L 47,72  L 47,71  L 49,71  L 49,70  L 50,70  L 50,60  L 51,60  L 51,59  L 50,59  L 50,56  L 51,56  L 51,53  L 52,53  L 52,52  L 68,52  L 68,51  L 70,51  L 70,52  L 71,52  L 71,90  L 72,90  L 72,91  L 73,91  L 73,90  L 77,90  L 77,89  L 78,89  L 78,88  L 79,88  L 79,76  L 80,76  L 80,75  L 79,75  L 79,74  L 80,74  L 80,41  L 79,41  L 79,27  L 78,27  L 78,26  L 79,26  L 79,25  L 78,25  L 78,11  L 77,11  L 77,10  L 76,10  L 76,9  L 72,9  L 72,10  L 70,10  L 70,13  L 69,13  L 69,18  L 70,18  Z  M 31,70  L 31,71  L 27,71  L 27,72  L 25,72  L 25,73  L 21,73  L 21,74  L 18,74  L 18,75  L 11,75  L 11,74  L 10,74  L 10,69  L 9,69  L 9,68  L 10,68  L 10,67  L 9,67  L 9,64  L 10,64  L 10,63  L 9,63  L 9,53  L 10,53  L 10,52  L 11,52  L 11,51  L 13,51  L 13,52  L 14,52  L 14,51  L 36,51  L 36,50  L 37,50  L 37,51  L 40,51  L 40,50  L 42,50  L 42,51  L 43,51  L 43,66  L 41,66  L 41,67  L 40,67  L 40,68  L 38,68  L 38,69  L 34,69  L 34,70  Z  " style="fill:rgb(0, 0, 0); fill-opacity:1.000; stroke:none;" />
 <path d="  M 102,15  L 101,15  L 101,5  L 100,5  L 100,2  L 99,2  L 99,1  L 97,1  L 97,0  L 94,0  L 94,1  L 93,1  L 93,4  L 94,4  L 94,12  L 95,12  L 95,22  L 96,22  L 96,102  L 97,102  L 97,103  L 102,103  Z  " style="fill:rgb(0, 0, 0); fill-opacity:1.000; stroke:none;" />
</svg>
