<?xml version="1.0" encoding="UTF-8" standalone="no"?>
<!DOCTYPE svg PUBLIC "-//W3C//DTD SVG 1.1//EN" 
  "http://www.w3.org/Graphics/SVG/1.1/DTD/svg11.dtd">
<svg width="104" height="159"
     xmlns="http://www.w3.org/2000/svg" version="1.1">
 <path d="  M 11,54  L 10,54  L 10,51  L 11,51  L 11,50  L 10,50  L 10,47  L 11,47  L 11,46  L 12,46  L 12,45  L 13,45  L 13,46  L 14,46  L 14,47  L 17,47  L 17,46  L 27,46  L 27,45  L 38,45  L 38,44  L 40,44  L 40,43  L 41,43  L 41,44  L 42,44  L 42,45  L 43,45  L 43,56  L 42,56  L 42,57  L 43,57  L 43,58  L 42,58  L 42,62  L 41,62  L 41,63  L 40,63  L 40,64  L 39,64  L 39,63  L 37,63  L 37,64  L 35,64  L 35,63  L 34,63  L 34,64  L 30,64  L 30,65  L 26,65  L 26,66  L 23,66  L 23,67  L 13,67  L 13,66  L 12,66  L 12,63  L 11,63  Z  M 74,69  L 75,69  L 75,72  L 74,72  L 74,73  L 75,73  L 75,78  L 77,78  L 77,81  L 78,81  L 78,80  L 79,80  L 79,81  L 80,81  L 80,79  L 82,79  L 82,78  L 83,78  L 83,74  L 82,74  L 82,73  L 83,73  L 83,66  L 82,66  L 82,65  L 83,65  L 83,62  L 82,62  L 82,61  L 83,61  L 83,58  L 82,58  L 82,57  L 83,57  L 83,56  L 82,56  L 82,55  L 83,55  L 83,50  L 82,50  L 82,49  L 83,49  L 83,48  L 82,48  L 82,47  L 83,47  L 83,46  L 82,46  L 82,45  L 83,45  L 83,42  L 82,42  L 82,39  L 83,39  L 83,38  L 82,38  L 82,35  L 83,35  L 83,34  L 82,34  L 82,12  L 83,12  L 83,10  L 82,10  L 82,8  L 83,8  L 83,6  L 82,6  L 82,4  L 81,4  L 81,3  L 75,3  L 75,31  L 74,31  L 74,32  L 70,32  L 70,33  L 51,33  L 51,28  L 52,28  L 52,27  L 51,27  L 51,26  L 52,26  L 52,4  L 51,4  L 51,2  L 47,2  L 47,3  L 46,3  L 46,4  L 45,4  L 45,26  L 44,26  L 44,34  L 43,34  L 43,35  L 40,35  L 40,36  L 36,36  L 36,37  L 35,37  L 35,36  L 34,36  L 34,37  L 32,37  L 32,38  L 29,38  L 29,39  L 25,39  L 25,40  L 14,40  L 14,41  L 10,41  L 10,2  L 9,2  L 9,1  L 7,1  L 7,0  L 4,0  L 4,1  L 2,1  L 2,3  L 1,3  L 1,21  L 2,21  L 2,23  L 1,23  L 1,25  L 2,25  L 2,32  L 1,32  L 1,33  L 2,33  L 2,53  L 3,53  L 3,64  L 4,64  L 4,69  L 5,69  L 5,72  L 6,72  L 6,73  L 7,73  L 7,74  L 8,74  L 8,75  L 12,75  L 12,76  L 14,76  L 14,77  L 15,77  L 15,76  L 22,76  L 22,75  L 27,75  L 27,74  L 30,74  L 30,73  L 33,73  L 33,72  L 37,72  L 37,71  L 41,71  L 41,70  L 44,70  L 44,69  L 48,69  L 48,68  L 49,68  L 49,67  L 50,67  L 50,62  L 51,62  L 51,53  L 52,53  L 52,43  L 53,43  L 53,42  L 56,42  L 56,41  L 68,41  L 68,40  L 69,40  L 69,41  L 70,41  L 70,40  L 71,40  L 71,41  L 72,41  L 72,40  L 73,40  L 73,41  L 74,41  Z  " style="fill:rgb(0, 0, 0); fill-opacity:1.000; stroke:none;" />
 <path d="  M 54,96  L 54,95  L 42,95  L 42,96  L 40,96  L 40,97  L 39,97  L 39,98  L 38,98  L 38,99  L 37,99  L 37,103  L 41,103  L 41,104  L 44,104  L 44,103  L 47,103  L 47,102  L 53,102  L 53,103  L 61,103  L 61,104  L 64,104  L 64,105  L 70,105  L 70,106  L 72,106  L 72,107  L 74,107  L 74,109  L 75,109  L 75,110  L 76,110  L 76,111  L 77,111  L 77,112  L 78,112  L 78,114  L 77,114  L 77,115  L 76,115  L 76,116  L 75,116  L 75,117  L 72,117  L 72,118  L 70,118  L 70,119  L 68,119  L 68,120  L 66,120  L 66,121  L 63,121  L 63,122  L 60,122  L 60,123  L 57,123  L 57,124  L 55,124  L 55,125  L 54,125  L 54,126  L 52,126  L 52,127  L 49,127  L 49,128  L 48,128  L 48,129  L 47,129  L 47,130  L 45,130  L 45,131  L 43,131  L 43,132  L 42,132  L 42,134  L 41,134  L 41,136  L 40,136  L 40,140  L 39,140  L 39,149  L 40,149  L 40,155  L 41,155  L 41,157  L 43,157  L 43,158  L 45,158  L 45,159  L 65,159  L 65,158  L 69,158  L 69,157  L 73,157  L 73,156  L 75,156  L 75,155  L 78,155  L 78,154  L 81,154  L 81,153  L 83,153  L 83,152  L 86,152  L 86,151  L 89,151  L 89,150  L 92,150  L 92,149  L 95,149  L 95,148  L 98,148  L 98,147  L 99,147  L 99,146  L 100,146  L 100,145  L 101,145  L 101,143  L 102,143  L 102,141  L 101,141  L 101,140  L 97,140  L 97,141  L 93,141  L 93,142  L 90,142  L 90,143  L 87,143  L 87,144  L 85,144  L 85,145  L 82,145  L 82,146  L 80,146  L 80,147  L 77,147  L 77,148  L 74,148  L 74,149  L 72,149  L 72,150  L 70,150  L 70,151  L 67,151  L 67,152  L 62,152  L 62,153  L 49,153  L 49,152  L 48,152  L 48,151  L 47,151  L 47,150  L 46,150  L 46,148  L 45,148  L 45,145  L 46,145  L 46,144  L 45,144  L 45,140  L 46,140  L 46,139  L 47,139  L 47,138  L 48,138  L 48,137  L 49,137  L 49,136  L 50,136  L 50,135  L 52,135  L 52,134  L 54,134  L 54,133  L 56,133  L 56,132  L 58,132  L 58,131  L 60,131  L 60,130  L 61,130  L 61,129  L 62,129  L 62,130  L 63,130  L 63,129  L 65,129  L 65,128  L 68,128  L 68,127  L 71,127  L 71,126  L 73,126  L 73,125  L 75,125  L 75,124  L 78,124  L 78,123  L 79,123  L 79,122  L 80,122  L 80,121  L 83,121  L 83,120  L 84,120  L 84,119  L 85,119  L 85,118  L 86,118  L 86,117  L 87,117  L 87,116  L 88,116  L 88,111  L 87,111  L 87,110  L 86,110  L 86,108  L 85,108  L 85,107  L 84,107  L 84,106  L 83,106  L 83,104  L 82,104  L 82,103  L 80,103  L 80,102  L 78,102  L 78,101  L 77,101  L 77,100  L 73,100  L 73,99  L 69,99  L 69,98  L 66,98  L 66,97  L 61,97  L 61,96  Z  " style="fill:rgb(0, 0, 0); fill-opacity:1.000; stroke:none;" />
 <path d="  M 103,87  L 104,87  L 104,22  L 103,22  L 103,21  L 104,21  L 104,20  L 103,20  L 103,19  L 104,19  L 104,18  L 103,18  L 103,7  L 102,7  L 102,5  L 99,5  L 99,4  L 97,4  L 97,5  L 96,5  L 96,8  L 95,8  L 95,12  L 96,12  L 96,92  L 97,92  L 97,93  L 101,93  L 101,92  L 103,92  L 103,89  L 104,89  L 104,88  L 103,88  Z  " style="fill:rgb(0, 0, 0); fill-opacity:1.000; stroke:none;" />
</svg>
