<?xml version="1.0" encoding="UTF-8" standalone="no"?>
<!DOCTYPE svg PUBLIC "-//W3C//DTD SVG 1.1//EN" 
  "http://www.w3.org/Graphics/SVG/1.1/DTD/svg11.dtd">
<svg width="102" height="143"
     xmlns="http://www.w3.org/2000/svg" version="1.1">
 <path d="  M 1,47  L 2,47  L 2,49  L 1,49  L 1,50  L 2,50  L 2,55  L 3,55  L 3,60  L 4,60  L 4,61  L 3,61  L 3,62  L 4,62  L 4,63  L 5,63  L 5,64  L 6,64  L 6,65  L 7,65  L 7,66  L 10,66  L 10,67  L 13,67  L 13,68  L 19,68  L 19,67  L 26,67  L 26,66  L 35,66  L 35,65  L 37,65  L 37,66  L 39,66  L 39,65  L 43,65  L 43,64  L 44,64  L 44,63  L 51,63  L 51,62  L 50,62  L 50,61  L 51,61  L 51,51  L 52,51  L 52,50  L 51,50  L 51,47  L 52,47  L 52,46  L 51,46  L 51,44  L 52,44  L 52,41  L 55,41  L 55,40  L 61,40  L 61,39  L 62,39  L 62,40  L 63,40  L 63,39  L 75,39  L 75,71  L 76,71  L 76,72  L 77,72  L 77,73  L 79,73  L 79,72  L 81,72  L 81,70  L 82,70  L 82,69  L 81,69  L 81,68  L 82,68  L 82,60  L 81,60  L 81,59  L 82,59  L 82,56  L 81,56  L 81,55  L 82,55  L 82,45  L 81,45  L 81,43  L 82,43  L 82,41  L 81,41  L 81,39  L 82,39  L 82,37  L 81,37  L 81,35  L 82,35  L 82,33  L 81,33  L 81,31  L 82,31  L 82,30  L 81,30  L 81,23  L 82,23  L 82,22  L 81,22  L 81,19  L 82,19  L 82,18  L 81,18  L 81,15  L 82,15  L 82,13  L 81,13  L 81,11  L 82,11  L 82,10  L 81,10  L 81,8  L 79,8  L 79,7  L 76,7  L 76,8  L 75,8  L 75,30  L 74,30  L 74,32  L 66,32  L 66,33  L 65,33  L 65,32  L 63,32  L 63,33  L 61,33  L 61,32  L 60,32  L 60,33  L 52,33  L 52,31  L 51,31  L 51,15  L 52,15  L 52,14  L 51,14  L 51,11  L 52,11  L 52,10  L 51,10  L 51,7  L 50,7  L 50,6  L 45,6  L 45,13  L 44,13  L 44,15  L 45,15  L 45,17  L 44,17  L 44,19  L 45,19  L 45,21  L 44,21  L 44,23  L 45,23  L 45,25  L 44,25  L 44,27  L 45,27  L 45,29  L 44,29  L 44,31  L 45,31  L 45,34  L 44,34  L 44,36  L 36,36  L 36,37  L 27,37  L 27,38  L 24,38  L 24,37  L 23,37  L 23,38  L 16,38  L 16,39  L 15,39  L 15,38  L 12,38  L 12,39  L 9,39  L 9,36  L 8,36  L 8,23  L 9,23  L 9,22  L 8,22  L 8,21  L 9,21  L 9,7  L 10,7  L 10,2  L 9,2  L 9,1  L 7,1  L 7,0  L 6,0  L 6,1  L 5,1  L 5,0  L 4,0  L 4,1  L 3,1  L 3,2  L 1,2  L 1,18  L 0,18  L 0,19  L 1,19  L 1,21  L 0,21  L 0,23  L 1,23  L 1,25  L 0,25  L 0,27  L 1,27  L 1,28  L 0,28  L 0,31  L 1,31  L 1,33  L 0,33  L 0,35  L 1,35  Z  M 25,44  L 25,43  L 26,43  L 26,44  L 27,44  L 27,43  L 41,43  L 41,41  L 44,41  L 44,54  L 43,54  L 43,57  L 35,57  L 35,58  L 34,58  L 34,57  L 32,57  L 32,58  L 24,58  L 24,59  L 19,59  L 19,60  L 11,60  L 11,59  L 10,59  L 10,52  L 9,52  L 9,51  L 10,51  L 10,49  L 9,49  L 9,44  L 10,44  L 10,43  L 11,43  L 11,44  L 13,44  L 13,45  L 14,45  L 14,44  L 16,44  L 16,45  L 17,45  L 17,44  Z  " style="fill:rgb(0, 0, 0); fill-opacity:1.000; stroke:none;" />
 <path d="  M 41,142  L 44,142  L 44,143  L 77,143  L 77,142  L 80,142  L 80,141  L 82,141  L 82,140  L 85,140  L 85,139  L 87,139  L 87,138  L 89,138  L 89,137  L 90,137  L 90,136  L 91,136  L 91,135  L 92,135  L 92,134  L 93,134  L 93,133  L 94,133  L 94,132  L 95,132  L 95,130  L 96,130  L 96,128  L 97,128  L 97,126  L 98,126  L 98,123  L 99,123  L 99,121  L 100,121  L 100,116  L 101,116  L 101,112  L 102,112  L 102,98  L 101,98  L 101,97  L 100,97  L 100,96  L 99,96  L 99,95  L 98,95  L 98,94  L 97,94  L 97,92  L 96,92  L 96,91  L 94,91  L 94,90  L 93,90  L 93,89  L 91,89  L 91,88  L 87,88  L 87,87  L 86,87  L 86,86  L 83,86  L 83,87  L 82,87  L 82,86  L 81,86  L 81,87  L 80,87  L 80,86  L 79,86  L 79,87  L 78,87  L 78,86  L 75,86  L 75,87  L 74,87  L 74,86  L 60,86  L 60,87  L 56,87  L 56,88  L 53,88  L 53,89  L 51,89  L 51,90  L 50,90  L 50,91  L 49,91  L 49,92  L 48,92  L 48,94  L 46,94  L 46,96  L 45,96  L 45,97  L 44,97  L 44,98  L 43,98  L 43,99  L 42,99  L 42,100  L 41,100  L 41,101  L 40,101  L 40,102  L 39,102  L 39,104  L 38,104  L 38,106  L 37,106  L 37,107  L 36,107  L 36,110  L 35,110  L 35,112  L 34,112  L 34,115  L 33,115  L 33,118  L 32,118  L 32,120  L 31,120  L 31,127  L 32,127  L 32,133  L 33,133  L 33,136  L 34,136  L 34,138  L 35,138  L 35,139  L 37,139  L 37,140  L 38,140  L 38,141  L 41,141  Z  M 67,94  L 67,93  L 75,93  L 75,94  L 82,94  L 82,95  L 83,95  L 83,94  L 84,94  L 84,95  L 86,95  L 86,96  L 89,96  L 89,97  L 91,97  L 91,98  L 92,98  L 92,99  L 93,99  L 93,101  L 94,101  L 94,105  L 95,105  L 95,108  L 94,108  L 94,109  L 95,109  L 95,110  L 94,110  L 94,113  L 93,113  L 93,118  L 92,118  L 92,122  L 91,122  L 91,124  L 90,124  L 90,126  L 89,126  L 89,127  L 88,127  L 88,129  L 87,129  L 87,130  L 86,130  L 86,131  L 85,131  L 85,132  L 83,132  L 83,133  L 81,133  L 81,134  L 78,134  L 78,135  L 75,135  L 75,136  L 72,136  L 72,137  L 49,137  L 49,136  L 44,136  L 44,135  L 42,135  L 42,134  L 41,134  L 41,133  L 40,133  L 40,131  L 39,131  L 39,126  L 38,126  L 38,123  L 39,123  L 39,122  L 38,122  L 38,120  L 39,120  L 39,116  L 40,116  L 40,113  L 41,113  L 41,111  L 42,111  L 42,110  L 43,110  L 43,108  L 44,108  L 44,107  L 45,107  L 45,106  L 46,106  L 46,105  L 47,105  L 47,103  L 48,103  L 48,102  L 49,102  L 49,101  L 51,101  L 51,100  L 52,100  L 52,99  L 53,99  L 53,98  L 56,98  L 56,96  L 59,96  L 59,95  L 61,95  L 61,94  Z  " style="fill:rgb(0, 0, 0); fill-opacity:1.000; stroke:none;" />
 <path d="  M 93,53  L 94,53  L 94,75  L 95,75  L 95,78  L 96,78  L 96,79  L 99,79  L 99,78  L 100,78  L 100,77  L 101,77  L 101,66  L 100,66  L 100,46  L 99,46  L 99,45  L 100,45  L 100,44  L 99,44  L 99,14  L 98,14  L 98,7  L 96,7  L 96,6  L 93,6  L 93,8  L 92,8  L 92,13  L 93,13  Z  " style="fill:rgb(0, 0, 0); fill-opacity:1.000; stroke:none;" />
</svg>
