<?xml version="1.0" encoding="UTF-8" standalone="no"?>
<!DOCTYPE svg PUBLIC "-//W3C//DTD SVG 1.1//EN" 
  "http://www.w3.org/Graphics/SVG/1.1/DTD/svg11.dtd">
<svg width="100" height="174"
     xmlns="http://www.w3.org/2000/svg" version="1.1">
 <path d="  M 56,10  L 56,9  L 53,9  L 53,8  L 52,8  L 52,9  L 51,9  L 51,10  L 50,10  L 50,11  L 49,11  L 49,12  L 50,12  L 50,13  L 49,13  L 49,39  L 48,39  L 48,41  L 46,41  L 46,42  L 28,42  L 28,43  L 25,43  L 25,42  L 24,42  L 24,43  L 12,43  L 12,44  L 11,44  L 11,43  L 10,43  L 10,40  L 9,40  L 9,38  L 10,38  L 10,37  L 9,37  L 9,11  L 10,11  L 10,8  L 9,8  L 9,6  L 8,6  L 8,5  L 7,5  L 7,4  L 6,4  L 6,3  L 3,3  L 3,4  L 2,4  L 2,5  L 1,5  L 1,32  L 2,32  L 2,34  L 1,34  L 1,36  L 2,36  L 2,44  L 3,44  L 3,45  L 2,45  L 2,46  L 3,46  L 3,52  L 4,52  L 4,60  L 5,60  L 5,68  L 6,68  L 6,73  L 7,73  L 7,74  L 8,74  L 8,75  L 9,75  L 9,76  L 10,76  L 10,77  L 11,77  L 11,78  L 14,78  L 14,79  L 25,79  L 25,78  L 31,78  L 31,77  L 36,77  L 36,76  L 38,76  L 38,75  L 41,75  L 41,74  L 44,74  L 44,73  L 46,73  L 46,72  L 48,72  L 48,71  L 50,71  L 50,70  L 52,70  L 52,69  L 54,69  L 54,68  L 56,68  L 56,67  L 55,67  L 55,64  L 56,64  L 56,44  L 57,44  L 57,43  L 56,43  L 56,42  L 57,42  L 57,39  L 56,39  L 56,38  L 57,38  L 57,10  Z  M 28,69  L 28,70  L 24,70  L 24,71  L 15,71  L 15,70  L 13,70  L 13,68  L 12,68  L 12,59  L 11,59  L 11,50  L 13,50  L 13,49  L 14,49  L 14,50  L 16,50  L 16,49  L 30,49  L 30,48  L 31,48  L 31,49  L 33,49  L 33,48  L 35,48  L 35,49  L 36,49  L 36,48  L 48,48  L 48,53  L 47,53  L 47,54  L 48,54  L 48,57  L 47,57  L 47,64  L 46,64  L 46,65  L 45,65  L 45,66  L 43,66  L 43,67  L 40,67  L 40,68  L 34,68  L 34,69  Z  " style="fill:rgb(0, 0, 0); fill-opacity:1.000; stroke:none;" />
 <path d="  M 44,111  L 44,110  L 53,110  L 53,109  L 68,109  L 68,108  L 69,108  L 69,109  L 72,109  L 72,108  L 73,108  L 73,109  L 78,109  L 78,110  L 79,110  L 79,111  L 81,111  L 81,112  L 82,112  L 82,113  L 83,113  L 83,114  L 84,114  L 84,116  L 85,116  L 85,117  L 84,117  L 84,122  L 83,122  L 83,125  L 82,125  L 82,130  L 81,130  L 81,143  L 80,143  L 80,152  L 79,152  L 79,157  L 78,157  L 78,159  L 77,159  L 77,162  L 76,162  L 76,165  L 75,165  L 75,172  L 76,172  L 76,173  L 77,173  L 77,174  L 81,174  L 81,173  L 82,173  L 82,172  L 83,172  L 83,169  L 84,169  L 84,166  L 85,166  L 85,161  L 86,161  L 86,157  L 87,157  L 87,152  L 88,152  L 88,151  L 87,151  L 87,149  L 88,149  L 88,147  L 87,147  L 87,146  L 88,146  L 88,140  L 89,140  L 89,139  L 88,139  L 88,138  L 89,138  L 89,137  L 88,137  L 88,136  L 89,136  L 89,128  L 90,128  L 90,124  L 91,124  L 91,121  L 92,121  L 92,110  L 91,110  L 91,108  L 90,108  L 90,107  L 89,107  L 89,106  L 88,106  L 88,105  L 86,105  L 86,104  L 84,104  L 84,103  L 81,103  L 81,102  L 76,102  L 76,101  L 53,101  L 53,102  L 45,102  L 45,103  L 39,103  L 39,104  L 35,104  L 35,105  L 31,105  L 31,106  L 30,106  L 30,107  L 29,107  L 29,108  L 28,108  L 28,110  L 29,110  L 29,111  L 31,111  L 31,112  L 33,112  L 33,113  L 34,113  L 34,112  L 36,112  L 36,111  L 37,111  L 37,112  L 38,112  L 38,111  Z  " style="fill:rgb(0, 0, 0); fill-opacity:1.000; stroke:none;" />
 <path d="  M 100,3  L 99,3  L 99,2  L 98,2  L 98,1  L 97,1  L 97,0  L 95,0  L 95,1  L 94,1  L 94,2  L 93,2  L 93,3  L 92,3  L 92,6  L 93,6  L 93,7  L 92,7  L 92,8  L 93,8  L 93,24  L 94,24  L 94,27  L 93,27  L 93,31  L 87,31  L 87,32  L 86,32  L 86,31  L 85,31  L 85,32  L 81,32  L 81,33  L 80,33  L 80,32  L 79,32  L 79,33  L 71,33  L 71,34  L 70,34  L 70,33  L 69,33  L 69,34  L 63,34  L 63,40  L 64,40  L 64,41  L 66,41  L 66,40  L 67,40  L 67,41  L 68,41  L 68,40  L 78,40  L 78,39  L 79,39  L 79,40  L 81,40  L 81,39  L 89,39  L 89,38  L 92,38  L 92,39  L 93,39  L 93,47  L 92,47  L 92,48  L 91,48  L 91,49  L 85,49  L 85,50  L 80,50  L 80,51  L 79,51  L 79,50  L 78,50  L 78,51  L 67,51  L 67,52  L 64,52  L 64,58  L 66,58  L 66,60  L 70,60  L 70,59  L 78,59  L 78,58  L 83,58  L 83,57  L 89,57  L 89,56  L 92,56  L 92,57  L 93,57  L 93,90  L 94,90  L 94,91  L 95,91  L 95,92  L 98,92  L 98,90  L 99,90  L 99,88  L 100,88  Z  " style="fill:rgb(0, 0, 0); fill-opacity:1.000; stroke:none;" />
 <path d="  M 94,93  L 95,93  L 95,92  L 94,92  Z  " style="fill:rgb(0, 0, 0); fill-opacity:1.000; stroke:none;" />
</svg>
