<?xml version="1.0" encoding="UTF-8" standalone="no"?>
<!DOCTYPE svg PUBLIC "-//W3C//DTD SVG 1.1//EN" 
  "http://www.w3.org/Graphics/SVG/1.1/DTD/svg11.dtd">
<svg width="103" height="146"
     xmlns="http://www.w3.org/2000/svg" version="1.1">
 <path d="  M 1,38  L 1,40  L 0,40  L 0,41  L 1,41  L 1,50  L 2,50  L 2,53  L 1,53  L 1,54  L 2,54  L 2,62  L 3,62  L 3,65  L 4,65  L 4,67  L 5,67  L 5,68  L 6,68  L 6,69  L 7,69  L 7,70  L 10,70  L 10,71  L 18,71  L 18,70  L 24,70  L 24,69  L 25,69  L 25,70  L 27,70  L 27,69  L 32,69  L 32,68  L 36,68  L 36,67  L 41,67  L 41,66  L 43,66  L 43,65  L 44,65  L 44,63  L 45,63  L 45,62  L 46,62  L 46,61  L 47,61  L 47,59  L 48,59  L 48,58  L 49,58  L 49,56  L 48,56  L 48,55  L 49,55  L 49,36  L 50,36  L 50,14  L 51,14  L 51,6  L 50,6  L 50,5  L 48,5  L 48,6  L 46,6  L 46,8  L 45,8  L 45,15  L 44,15  L 44,21  L 43,21  L 43,22  L 44,22  L 44,24  L 43,24  L 43,29  L 44,29  L 44,30  L 43,30  L 43,35  L 40,35  L 40,36  L 22,36  L 22,37  L 19,37  L 19,36  L 18,36  L 18,37  L 9,37  L 9,36  L 8,36  L 8,28  L 9,28  L 9,27  L 8,27  L 8,26  L 9,26  L 9,14  L 10,14  L 10,13  L 9,13  L 9,11  L 10,11  L 10,6  L 11,6  L 11,5  L 10,5  L 10,3  L 9,3  L 9,2  L 8,2  L 8,1  L 3,1  L 3,3  L 2,3  L 2,5  L 1,5  L 1,24  L 0,24  L 0,25  L 1,25  L 1,28  L 0,28  L 0,30  L 1,30  L 1,31  L 0,31  L 0,34  L 1,34  L 1,35  L 0,35  L 0,38  Z  M 34,41  L 34,42  L 35,42  L 35,41  L 41,41  L 41,42  L 42,42  L 42,53  L 41,53  L 41,54  L 42,54  L 42,55  L 41,55  L 41,59  L 40,59  L 40,61  L 37,61  L 37,62  L 33,62  L 33,63  L 27,63  L 27,64  L 20,64  L 20,65  L 11,65  L 11,64  L 10,64  L 10,63  L 9,63  L 9,60  L 8,60  L 8,59  L 9,59  L 9,58  L 8,58  L 8,53  L 9,53  L 9,51  L 8,51  L 8,44  L 9,44  L 9,43  L 12,43  L 12,42  L 15,42  L 15,43  L 16,43  L 16,42  L 17,42  L 17,43  L 18,43  L 18,42  L 31,42  L 31,41  Z  " style="fill:rgb(0, 0, 0); fill-opacity:1.000; stroke:none;" />
 <path d="  M 54,143  L 54,140  L 55,140  L 55,139  L 56,139  L 56,137  L 57,137  L 57,135  L 58,135  L 58,134  L 59,134  L 59,133  L 61,133  L 61,131  L 62,131  L 62,130  L 63,130  L 63,129  L 64,129  L 64,127  L 65,127  L 65,125  L 66,125  L 66,123  L 67,123  L 67,121  L 68,121  L 68,118  L 69,118  L 69,117  L 70,117  L 70,118  L 71,118  L 71,119  L 72,119  L 72,120  L 73,120  L 73,121  L 74,121  L 74,122  L 76,122  L 76,123  L 77,123  L 77,124  L 78,124  L 78,125  L 81,125  L 81,126  L 83,126  L 83,127  L 84,127  L 84,128  L 85,128  L 85,129  L 88,129  L 88,130  L 91,130  L 91,131  L 93,131  L 93,132  L 94,132  L 94,133  L 97,133  L 97,134  L 102,134  L 102,133  L 103,133  L 103,129  L 101,129  L 101,128  L 98,128  L 98,127  L 96,127  L 96,126  L 93,126  L 93,125  L 92,125  L 92,124  L 90,124  L 90,123  L 88,123  L 88,122  L 86,122  L 86,121  L 84,121  L 84,120  L 83,120  L 83,119  L 81,119  L 81,118  L 80,118  L 80,117  L 79,117  L 79,116  L 78,116  L 78,115  L 77,115  L 77,114  L 76,114  L 76,113  L 74,113  L 74,106  L 75,106  L 75,103  L 76,103  L 76,100  L 77,100  L 77,92  L 72,92  L 72,93  L 71,93  L 71,97  L 70,97  L 70,99  L 69,99  L 69,103  L 68,103  L 68,105  L 67,105  L 67,106  L 66,106  L 66,108  L 65,108  L 65,111  L 64,111  L 64,113  L 63,113  L 63,116  L 62,116  L 62,119  L 61,119  L 61,123  L 60,123  L 60,125  L 59,125  L 59,126  L 57,126  L 57,125  L 56,125  L 56,123  L 55,123  L 55,122  L 54,122  L 54,121  L 51,121  L 51,120  L 49,120  L 49,119  L 48,119  L 48,118  L 45,118  L 45,117  L 43,117  L 43,116  L 41,116  L 41,115  L 39,115  L 39,114  L 36,114  L 36,113  L 34,113  L 34,112  L 33,112  L 33,111  L 32,111  L 32,110  L 31,110  L 31,107  L 32,107  L 32,106  L 33,106  L 33,104  L 34,104  L 34,103  L 35,103  L 35,102  L 36,102  L 36,101  L 37,101  L 37,100  L 38,100  L 38,99  L 40,99  L 40,98  L 41,98  L 41,95  L 42,95  L 42,91  L 41,91  L 41,90  L 40,90  L 40,89  L 39,89  L 39,87  L 34,87  L 34,86  L 33,86  L 33,87  L 31,87  L 31,86  L 23,86  L 23,87  L 22,87  L 22,90  L 23,90  L 23,91  L 25,91  L 25,92  L 28,92  L 28,93  L 31,93  L 31,92  L 32,92  L 32,91  L 33,91  L 33,92  L 34,92  L 34,91  L 35,91  L 35,92  L 36,92  L 36,95  L 35,95  L 35,98  L 34,98  L 34,99  L 33,99  L 33,100  L 30,100  L 30,102  L 29,102  L 29,103  L 28,103  L 28,105  L 27,105  L 27,106  L 26,106  L 26,108  L 25,108  L 25,109  L 24,109  L 24,111  L 23,111  L 23,112  L 22,112  L 22,114  L 21,114  L 21,115  L 20,115  L 20,116  L 19,116  L 19,117  L 18,117  L 18,119  L 17,119  L 17,121  L 16,121  L 16,122  L 14,122  L 14,124  L 13,124  L 13,125  L 12,125  L 12,126  L 11,126  L 11,127  L 10,127  L 10,128  L 9,128  L 9,129  L 8,129  L 8,130  L 7,130  L 7,131  L 6,131  L 6,132  L 5,132  L 5,136  L 6,136  L 6,137  L 8,137  L 8,138  L 9,138  L 9,137  L 10,137  L 10,136  L 11,136  L 11,135  L 12,135  L 12,134  L 13,134  L 13,132  L 14,132  L 14,131  L 15,131  L 15,130  L 16,130  L 16,128  L 17,128  L 17,127  L 18,127  L 18,126  L 19,126  L 19,125  L 20,125  L 20,124  L 21,124  L 21,123  L 22,123  L 22,122  L 23,122  L 23,120  L 24,120  L 24,119  L 25,119  L 25,118  L 26,118  L 26,117  L 29,117  L 29,118  L 31,118  L 31,119  L 34,119  L 34,120  L 36,120  L 36,121  L 39,121  L 39,122  L 43,122  L 43,123  L 45,123  L 45,124  L 46,124  L 46,125  L 48,125  L 48,126  L 49,126  L 49,127  L 50,127  L 50,129  L 51,129  L 51,134  L 50,134  L 50,135  L 49,135  L 49,137  L 48,137  L 48,140  L 47,140  L 47,146  L 53,146  L 53,143  Z  " style="fill:rgb(0, 0, 0); fill-opacity:1.000; stroke:none;" />
 <path d="  M 81,30  L 80,30  L 80,20  L 79,20  L 79,11  L 78,11  L 78,3  L 77,3  L 77,2  L 78,2  L 78,1  L 76,1  L 76,0  L 73,0  L 73,1  L 72,1  L 72,3  L 71,3  L 71,7  L 72,7  L 72,14  L 73,14  L 73,21  L 74,21  L 74,24  L 73,24  L 73,25  L 65,25  L 65,26  L 64,26  L 64,25  L 63,25  L 63,26  L 60,26  L 60,25  L 59,25  L 59,26  L 55,26  L 55,27  L 53,27  L 53,29  L 52,29  L 52,32  L 53,32  L 53,33  L 60,33  L 60,32  L 67,32  L 67,31  L 74,31  L 74,45  L 73,45  L 73,46  L 69,46  L 69,47  L 61,47  L 61,48  L 56,48  L 56,53  L 57,53  L 57,54  L 59,54  L 59,55  L 60,55  L 60,54  L 63,54  L 63,53  L 72,53  L 72,52  L 74,52  L 74,85  L 75,85  L 75,86  L 80,86  L 80,85  L 81,85  Z  " style="fill:rgb(0, 0, 0); fill-opacity:1.000; stroke:none;" />
</svg>
