<?xml version="1.0" encoding="UTF-8" standalone="no"?>
<!DOCTYPE svg PUBLIC "-//W3C//DTD SVG 1.1//EN" 
  "http://www.w3.org/Graphics/SVG/1.1/DTD/svg11.dtd">
<svg width="102" height="110"
     xmlns="http://www.w3.org/2000/svg" version="1.1">
 <path d="  M 3,104  L 3,105  L 1,105  L 1,106  L 0,106  L 0,109  L 1,109  L 1,110  L 23,110  L 23,109  L 24,109  L 24,110  L 26,110  L 26,109  L 79,109  L 79,108  L 90,108  L 90,107  L 91,107  L 91,108  L 93,108  L 93,107  L 101,107  L 101,106  L 102,106  L 102,101  L 101,101  L 101,100  L 99,100  L 99,99  L 98,99  L 98,100  L 90,100  L 90,101  L 84,101  L 84,102  L 66,102  L 66,103  L 65,103  L 65,102  L 64,102  L 64,103  L 63,103  L 63,102  L 62,102  L 62,103  L 61,103  L 61,102  L 56,102  L 56,100  L 55,100  L 55,77  L 56,77  L 56,76  L 55,76  L 55,69  L 54,69  L 54,68  L 55,68  L 55,63  L 56,63  L 56,62  L 59,62  L 59,61  L 63,61  L 63,60  L 66,60  L 66,59  L 67,59  L 67,58  L 68,58  L 68,57  L 71,57  L 71,56  L 72,56  L 72,55  L 75,55  L 75,54  L 76,54  L 76,53  L 77,53  L 77,52  L 76,52  L 76,50  L 77,50  L 77,45  L 78,45  L 78,39  L 79,39  L 79,27  L 80,27  L 80,26  L 79,26  L 79,24  L 80,24  L 80,22  L 79,22  L 79,20  L 80,20  L 80,1  L 78,1  L 78,0  L 76,0  L 76,1  L 75,1  L 75,2  L 74,2  L 74,20  L 73,20  L 73,21  L 74,21  L 74,25  L 73,25  L 73,26  L 66,26  L 66,27  L 65,27  L 65,26  L 64,26  L 64,27  L 29,27  L 29,26  L 28,26  L 28,25  L 27,25  L 27,24  L 28,24  L 28,23  L 27,23  L 27,20  L 28,20  L 28,18  L 27,18  L 27,16  L 28,16  L 28,14  L 27,14  L 27,4  L 26,4  L 26,3  L 25,3  L 25,2  L 22,2  L 22,3  L 20,3  L 20,4  L 19,4  L 19,10  L 20,10  L 20,11  L 21,11  L 21,12  L 20,12  L 20,13  L 21,13  L 21,53  L 22,53  L 22,56  L 21,56  L 21,57  L 22,57  L 22,61  L 23,61  L 23,62  L 24,62  L 24,63  L 27,63  L 27,64  L 42,64  L 42,63  L 46,63  L 46,64  L 47,64  L 47,81  L 48,81  L 48,82  L 47,82  L 47,85  L 48,85  L 48,86  L 47,86  L 47,89  L 48,89  L 48,90  L 47,90  L 47,97  L 48,97  L 48,101  L 47,101  L 47,103  L 19,103  L 19,104  L 18,104  L 18,103  L 17,103  L 17,104  Z  M 45,57  L 45,58  L 30,58  L 30,57  L 29,57  L 29,56  L 28,56  L 28,46  L 27,46  L 27,34  L 28,34  L 28,33  L 62,33  L 62,32  L 65,32  L 65,33  L 66,33  L 66,32  L 67,32  L 67,33  L 68,33  L 68,32  L 69,32  L 69,33  L 72,33  L 72,37  L 71,37  L 71,42  L 70,42  L 70,47  L 69,47  L 69,50  L 68,50  L 68,52  L 66,52  L 66,53  L 64,53  L 64,54  L 62,54  L 62,55  L 59,55  L 59,56  L 53,56  L 53,57  Z  " style="fill:rgb(0, 0, 0); fill-opacity:1.000; stroke:none;" />
</svg>
