<?xml version="1.0" encoding="UTF-8" standalone="no"?>
<!DOCTYPE svg PUBLIC "-//W3C//DTD SVG 1.1//EN" 
  "http://www.w3.org/Graphics/SVG/1.1/DTD/svg11.dtd">
<svg width="99" height="187"
     xmlns="http://www.w3.org/2000/svg" version="1.1">
 <path d="  M 24,6  L 23,6  L 23,7  L 24,7  L 24,10  L 23,10  L 23,11  L 24,11  L 24,13  L 23,13  L 23,15  L 24,15  L 24,18  L 23,18  L 23,19  L 24,19  L 24,21  L 23,21  L 23,23  L 24,23  L 24,25  L 23,25  L 23,27  L 24,27  L 24,28  L 23,28  L 23,31  L 24,31  L 24,33  L 23,33  L 23,38  L 22,38  L 22,39  L 23,39  L 23,53  L 24,53  L 24,57  L 25,57  L 25,60  L 26,60  L 26,61  L 28,61  L 28,62  L 29,62  L 29,63  L 32,63  L 32,64  L 35,64  L 35,63  L 42,63  L 42,62  L 44,62  L 44,61  L 48,61  L 48,62  L 49,62  L 49,64  L 48,64  L 48,65  L 49,65  L 49,66  L 48,66  L 48,98  L 45,98  L 45,99  L 40,99  L 40,100  L 35,100  L 35,101  L 30,101  L 30,102  L 23,102  L 23,103  L 20,103  L 20,104  L 17,104  L 17,105  L 16,105  L 16,104  L 15,104  L 15,105  L 10,105  L 10,106  L 2,106  L 2,107  L 1,107  L 1,109  L 0,109  L 0,110  L 1,110  L 1,113  L 2,113  L 2,115  L 3,115  L 3,116  L 6,116  L 6,117  L 13,117  L 13,116  L 14,116  L 14,115  L 17,115  L 17,114  L 18,114  L 18,113  L 20,113  L 20,112  L 23,112  L 23,111  L 27,111  L 27,110  L 30,110  L 30,109  L 34,109  L 34,108  L 37,108  L 37,107  L 43,107  L 43,106  L 48,106  L 48,105  L 58,105  L 58,104  L 59,104  L 59,105  L 60,105  L 60,104  L 61,104  L 61,105  L 62,105  L 62,104  L 76,104  L 76,103  L 77,103  L 77,104  L 80,104  L 80,103  L 95,103  L 95,102  L 97,102  L 97,101  L 98,101  L 98,100  L 99,100  L 99,93  L 94,93  L 94,94  L 91,94  L 91,95  L 88,95  L 88,94  L 87,94  L 87,95  L 84,95  L 84,96  L 73,96  L 73,97  L 72,97  L 72,96  L 69,96  L 69,97  L 68,97  L 68,96  L 65,96  L 65,97  L 64,97  L 64,96  L 61,96  L 61,97  L 60,97  L 60,96  L 59,96  L 59,97  L 56,97  L 56,96  L 55,96  L 55,79  L 56,79  L 56,78  L 55,78  L 55,77  L 56,77  L 56,64  L 57,64  L 57,61  L 58,61  L 58,60  L 60,60  L 60,59  L 63,59  L 63,57  L 66,57  L 66,56  L 67,56  L 67,55  L 70,55  L 70,54  L 71,54  L 71,53  L 74,53  L 74,52  L 75,52  L 75,51  L 78,51  L 78,49  L 80,49  L 80,47  L 81,47  L 81,44  L 82,44  L 82,39  L 83,39  L 83,22  L 82,22  L 82,19  L 83,19  L 83,18  L 82,18  L 82,17  L 83,17  L 83,7  L 84,7  L 84,3  L 83,3  L 83,2  L 82,2  L 82,1  L 81,1  L 81,0  L 77,0  L 77,2  L 76,2  L 76,25  L 67,25  L 67,26  L 66,26  L 66,25  L 63,25  L 63,26  L 62,26  L 62,25  L 59,25  L 59,26  L 58,26  L 58,25  L 55,25  L 55,26  L 54,26  L 54,25  L 52,25  L 52,26  L 41,26  L 41,27  L 31,27  L 31,2  L 30,2  L 30,1  L 29,1  L 29,0  L 25,0  L 25,1  L 24,1  L 24,2  L 23,2  L 23,3  L 24,3  Z  M 74,33  L 74,34  L 76,34  L 76,37  L 75,37  L 75,39  L 74,39  L 74,40  L 73,40  L 73,42  L 72,42  L 72,44  L 71,44  L 71,45  L 70,45  L 70,46  L 69,46  L 69,47  L 67,47  L 67,48  L 64,48  L 64,49  L 60,49  L 60,50  L 58,50  L 58,51  L 57,51  L 57,52  L 54,52  L 54,53  L 51,53  L 51,54  L 46,54  L 46,55  L 39,55  L 39,56  L 34,56  L 34,55  L 32,55  L 32,53  L 31,53  L 31,44  L 30,44  L 30,37  L 31,37  L 31,36  L 33,36  L 33,35  L 36,35  L 36,34  L 37,34  L 37,35  L 38,35  L 38,34  L 53,34  L 53,33  Z  " style="fill:rgb(0, 0, 0); fill-opacity:1.000; stroke:none;" />
 <path d="  M 77,175  L 78,175  L 78,174  L 77,174  L 77,173  L 78,173  L 78,167  L 79,167  L 79,166  L 78,166  L 78,165  L 79,165  L 79,156  L 80,156  L 80,150  L 81,150  L 81,147  L 82,147  L 82,145  L 83,145  L 83,144  L 82,144  L 82,142  L 83,142  L 83,139  L 84,139  L 84,133  L 83,133  L 83,130  L 81,130  L 81,129  L 80,129  L 80,128  L 79,128  L 79,127  L 78,127  L 78,126  L 77,126  L 77,127  L 76,127  L 76,126  L 61,126  L 61,127  L 60,127  L 60,126  L 59,126  L 59,127  L 58,127  L 58,126  L 57,126  L 57,127  L 56,127  L 56,126  L 55,126  L 55,127  L 54,127  L 54,126  L 53,126  L 53,127  L 52,127  L 52,126  L 51,126  L 51,127  L 48,127  L 48,128  L 41,128  L 41,129  L 40,129  L 40,128  L 39,128  L 39,129  L 32,129  L 32,130  L 31,130  L 31,129  L 30,129  L 30,130  L 23,130  L 23,129  L 22,129  L 22,130  L 19,130  L 19,129  L 18,129  L 18,130  L 16,130  L 16,132  L 15,132  L 15,133  L 16,133  L 16,134  L 17,134  L 17,136  L 18,136  L 18,137  L 19,137  L 19,138  L 30,138  L 30,137  L 36,137  L 36,136  L 37,136  L 37,137  L 38,137  L 38,136  L 48,136  L 48,135  L 57,135  L 57,134  L 58,134  L 58,135  L 59,135  L 59,134  L 70,134  L 70,135  L 72,135  L 72,137  L 74,137  L 74,142  L 73,142  L 73,146  L 72,146  L 72,151  L 71,151  L 71,162  L 70,162  L 70,168  L 69,168  L 69,180  L 68,180  L 68,183  L 69,183  L 69,186  L 70,186  L 70,187  L 75,187  L 75,186  L 76,186  L 76,184  L 77,184  Z  " style="fill:rgb(0, 0, 0); fill-opacity:1.000; stroke:none;" />
</svg>
