<?xml version="1.0" encoding="UTF-8" standalone="no"?>
<!DOCTYPE svg PUBLIC "-//W3C//DTD SVG 1.1//EN" 
  "http://www.w3.org/Graphics/SVG/1.1/DTD/svg11.dtd">
<svg width="98" height="173"
     xmlns="http://www.w3.org/2000/svg" version="1.1">
 <path d="  M 24,5  L 23,5  L 23,6  L 24,6  L 24,9  L 23,9  L 23,10  L 24,10  L 24,13  L 23,13  L 23,14  L 24,14  L 24,16  L 23,16  L 23,19  L 24,19  L 24,20  L 23,20  L 23,22  L 24,22  L 24,24  L 23,24  L 23,27  L 24,27  L 24,29  L 23,29  L 23,38  L 22,38  L 22,40  L 23,40  L 23,41  L 22,41  L 22,48  L 23,48  L 23,50  L 22,50  L 22,51  L 23,51  L 23,54  L 24,54  L 24,58  L 25,58  L 25,59  L 26,59  L 26,60  L 27,60  L 27,61  L 28,61  L 28,62  L 29,62  L 29,63  L 30,63  L 30,64  L 40,64  L 40,65  L 42,65  L 42,64  L 43,64  L 43,63  L 46,63  L 46,65  L 47,65  L 47,94  L 44,94  L 44,95  L 43,95  L 43,94  L 42,94  L 42,95  L 35,95  L 35,96  L 28,96  L 28,97  L 27,97  L 27,96  L 26,96  L 26,97  L 19,97  L 19,98  L 6,98  L 6,99  L 1,99  L 1,102  L 0,102  L 0,105  L 1,105  L 1,107  L 3,107  L 3,109  L 4,109  L 4,110  L 3,110  L 3,111  L 9,111  L 9,107  L 12,107  L 12,106  L 15,106  L 15,105  L 19,105  L 19,104  L 26,104  L 26,103  L 34,103  L 34,102  L 39,102  L 39,101  L 45,101  L 45,100  L 55,100  L 55,99  L 63,99  L 63,98  L 64,98  L 64,99  L 66,99  L 66,98  L 69,98  L 69,97  L 79,97  L 79,96  L 95,96  L 95,95  L 97,95  L 97,94  L 98,94  L 98,89  L 97,89  L 97,88  L 96,88  L 96,87  L 91,87  L 91,88  L 86,88  L 86,89  L 78,89  L 78,90  L 68,90  L 68,91  L 67,91  L 67,90  L 66,90  L 66,91  L 63,91  L 63,90  L 62,90  L 62,91  L 60,91  L 60,90  L 58,90  L 58,91  L 57,91  L 57,92  L 56,92  L 56,91  L 55,91  L 55,92  L 54,92  L 54,65  L 55,65  L 55,63  L 56,63  L 56,61  L 57,61  L 57,60  L 58,60  L 58,59  L 59,59  L 59,58  L 62,58  L 62,57  L 64,57  L 64,56  L 65,56  L 65,55  L 67,55  L 67,54  L 68,54  L 68,53  L 69,53  L 69,52  L 70,52  L 70,51  L 71,51  L 71,50  L 72,50  L 72,49  L 73,49  L 73,48  L 74,48  L 74,47  L 75,47  L 75,46  L 76,46  L 76,45  L 77,45  L 77,43  L 78,43  L 78,31  L 77,31  L 77,26  L 76,26  L 76,4  L 75,4  L 75,3  L 73,3  L 73,2  L 71,2  L 71,3  L 70,3  L 70,5  L 69,5  L 69,19  L 70,19  L 70,28  L 68,28  L 68,29  L 58,29  L 58,30  L 45,30  L 45,31  L 44,31  L 44,30  L 42,30  L 42,31  L 35,31  L 35,30  L 34,30  L 34,31  L 33,31  L 33,30  L 32,30  L 32,29  L 31,29  L 31,20  L 30,20  L 30,19  L 31,19  L 31,1  L 30,1  L 30,0  L 26,0  L 26,1  L 24,1  L 24,2  L 23,2  L 23,3  L 24,3  Z  M 37,57  L 37,58  L 36,58  L 36,57  L 33,57  L 33,56  L 31,56  L 31,55  L 30,55  L 30,52  L 29,52  L 29,51  L 30,51  L 30,50  L 29,50  L 29,48  L 30,48  L 30,42  L 29,42  L 29,41  L 30,41  L 30,39  L 34,39  L 34,38  L 45,38  L 45,37  L 46,37  L 46,38  L 47,38  L 47,37  L 48,37  L 48,38  L 49,38  L 49,37  L 59,37  L 59,36  L 70,36  L 70,37  L 71,37  L 71,40  L 70,40  L 70,42  L 69,42  L 69,44  L 68,44  L 68,45  L 67,45  L 67,46  L 66,46  L 66,47  L 65,47  L 65,48  L 63,48  L 63,49  L 62,49  L 62,50  L 61,50  L 61,51  L 60,51  L 60,52  L 59,52  L 59,53  L 57,53  L 57,54  L 55,54  L 55,55  L 52,55  L 52,56  L 46,56  L 46,57  L 44,57  L 44,56  L 43,56  L 43,57  Z  " style="fill:rgb(0, 0, 0); fill-opacity:1.000; stroke:none;" />
 <path d="  M 94,126  L 93,126  L 93,125  L 91,125  L 91,124  L 90,124  L 90,123  L 87,123  L 87,122  L 68,122  L 68,123  L 67,123  L 67,122  L 66,122  L 66,123  L 59,123  L 59,124  L 54,124  L 54,125  L 53,125  L 53,126  L 50,126  L 50,125  L 49,125  L 49,126  L 48,126  L 48,125  L 41,125  L 41,124  L 40,124  L 40,125  L 34,125  L 34,124  L 33,124  L 33,125  L 25,125  L 25,126  L 14,126  L 14,125  L 11,125  L 11,124  L 10,124  L 10,126  L 9,126  L 9,127  L 8,127  L 8,131  L 9,131  L 9,132  L 8,132  L 8,133  L 10,133  L 10,134  L 17,134  L 17,133  L 23,133  L 23,132  L 40,132  L 40,133  L 41,133  L 41,144  L 40,144  L 40,164  L 39,164  L 39,165  L 40,165  L 40,171  L 41,171  L 41,172  L 45,172  L 45,171  L 46,171  L 46,168  L 47,168  L 47,154  L 48,154  L 48,153  L 47,153  L 47,147  L 48,147  L 48,139  L 49,139  L 49,135  L 50,135  L 50,133  L 52,133  L 52,132  L 55,132  L 55,133  L 56,133  L 56,132  L 59,132  L 59,131  L 68,131  L 68,130  L 69,130  L 69,131  L 70,131  L 70,130  L 73,130  L 73,131  L 74,131  L 74,130  L 77,130  L 77,131  L 78,131  L 78,130  L 81,130  L 81,131  L 82,131  L 82,130  L 85,130  L 85,131  L 86,131  L 86,139  L 87,139  L 87,140  L 86,140  L 86,149  L 87,149  L 87,150  L 86,150  L 86,153  L 87,153  L 87,166  L 88,166  L 88,168  L 87,168  L 87,171  L 88,171  L 88,172  L 87,172  L 87,173  L 94,173  L 94,171  L 95,171  L 95,169  L 94,169  L 94,167  L 95,167  L 95,166  L 94,166  L 94,163  L 95,163  L 95,162  L 94,162  Z  " style="fill:rgb(0, 0, 0); fill-opacity:1.000; stroke:none;" />
</svg>
