<?xml version="1.0" encoding="UTF-8" standalone="no"?>
<!DOCTYPE svg PUBLIC "-//W3C//DTD SVG 1.1//EN" 
  "http://www.w3.org/Graphics/SVG/1.1/DTD/svg11.dtd">
<svg width="107" height="104"
     xmlns="http://www.w3.org/2000/svg" version="1.1">
 <path d="  M 54,56  L 54,48  L 55,48  L 55,42  L 56,42  L 56,36  L 57,36  L 57,3  L 52,3  L 52,5  L 51,5  L 51,28  L 50,28  L 50,29  L 37,29  L 37,30  L 36,30  L 36,29  L 34,29  L 34,30  L 22,30  L 22,31  L 19,31  L 19,30  L 18,30  L 18,31  L 15,31  L 15,30  L 14,30  L 14,31  L 13,31  L 13,30  L 12,30  L 12,25  L 13,25  L 13,15  L 12,15  L 12,14  L 13,14  L 13,13  L 12,13  L 12,12  L 13,12  L 13,11  L 12,11  L 12,10  L 13,10  L 13,9  L 12,9  L 12,6  L 6,6  L 6,7  L 4,7  L 4,8  L 5,8  L 5,11  L 6,11  L 6,53  L 7,53  L 7,54  L 6,54  L 6,55  L 7,55  L 7,59  L 8,59  L 8,61  L 7,61  L 7,62  L 8,62  L 8,65  L 9,65  L 9,66  L 12,66  L 12,65  L 13,65  L 13,66  L 14,66  L 14,65  L 16,65  L 16,64  L 17,64  L 17,65  L 18,65  L 18,64  L 31,64  L 31,63  L 34,63  L 34,65  L 35,65  L 35,67  L 34,67  L 34,74  L 35,74  L 35,75  L 34,75  L 34,76  L 35,76  L 35,79  L 34,79  L 34,81  L 35,81  L 35,83  L 34,83  L 34,84  L 35,84  L 35,88  L 34,88  L 34,89  L 31,89  L 31,90  L 25,90  L 25,91  L 17,91  L 17,92  L 16,92  L 16,91  L 15,91  L 15,92  L 12,92  L 12,91  L 11,91  L 11,92  L 9,92  L 9,93  L 1,93  L 1,96  L 0,96  L 0,97  L 1,97  L 1,99  L 3,99  L 3,100  L 5,100  L 5,99  L 6,99  L 6,100  L 7,100  L 7,99  L 12,99  L 12,98  L 20,98  L 20,97  L 21,97  L 21,98  L 22,98  L 22,97  L 28,97  L 28,96  L 35,96  L 35,95  L 43,95  L 43,94  L 52,94  L 52,93  L 58,93  L 58,92  L 64,92  L 64,91  L 69,91  L 69,92  L 71,92  L 71,91  L 73,91  L 73,90  L 74,90  L 74,88  L 75,88  L 75,85  L 74,85  L 74,84  L 73,84  L 73,83  L 67,83  L 67,84  L 64,84  L 64,85  L 61,85  L 61,86  L 54,86  L 54,87  L 47,87  L 47,88  L 41,88  L 41,87  L 40,87  L 40,86  L 41,86  L 41,77  L 40,77  L 40,76  L 41,76  L 41,73  L 40,73  L 40,72  L 41,72  L 41,69  L 40,69  L 40,68  L 41,68  L 41,67  L 40,67  L 40,64  L 41,64  L 41,62  L 44,62  L 44,61  L 47,61  L 47,60  L 49,60  L 49,59  L 51,59  L 51,58  L 52,58  L 52,57  L 53,57  L 53,56  Z  M 47,53  L 46,53  L 46,54  L 45,54  L 45,55  L 41,55  L 41,56  L 37,56  L 37,57  L 29,57  L 29,58  L 18,58  L 18,59  L 15,59  L 15,58  L 14,58  L 14,55  L 13,55  L 13,45  L 12,45  L 12,44  L 13,44  L 13,41  L 12,41  L 12,40  L 13,40  L 13,37  L 24,37  L 24,36  L 41,36  L 41,35  L 42,35  L 42,36  L 43,36  L 43,35  L 44,35  L 44,36  L 47,36  L 47,35  L 49,35  L 49,36  L 50,36  L 50,41  L 49,41  L 49,47  L 48,47  L 48,50  L 47,50  Z  " style="fill:rgb(0, 0, 0); fill-opacity:1.000; stroke:none;" />
 <path d="  M 78,68  L 79,68  L 79,71  L 78,71  L 78,72  L 79,72  L 79,75  L 78,75  L 78,76  L 79,76  L 79,104  L 85,104  L 85,102  L 86,102  L 86,101  L 85,101  L 85,56  L 86,56  L 86,54  L 88,54  L 88,55  L 104,55  L 104,54  L 105,54  L 105,55  L 106,55  L 106,54  L 107,54  L 107,48  L 100,48  L 100,47  L 99,47  L 99,48  L 96,48  L 96,47  L 95,47  L 95,48  L 92,48  L 92,47  L 91,47  L 91,48  L 87,48  L 87,49  L 86,49  L 86,50  L 85,50  L 85,49  L 84,49  L 84,48  L 83,48  L 83,27  L 82,27  L 82,5  L 81,5  L 81,2  L 80,2  L 80,1  L 79,1  L 79,0  L 75,0  L 75,1  L 74,1  L 74,7  L 75,7  L 75,10  L 76,10  L 76,34  L 77,34  L 77,50  L 78,50  L 78,53  L 77,53  L 77,54  L 78,54  Z  " style="fill:rgb(0, 0, 0); fill-opacity:1.000; stroke:none;" />
</svg>
