<?xml version="1.0" encoding="UTF-8" standalone="no"?>
<!DOCTYPE svg PUBLIC "-//W3C//DTD SVG 1.1//EN" 
  "http://www.w3.org/Graphics/SVG/1.1/DTD/svg11.dtd">
<svg width="107" height="96"
     xmlns="http://www.w3.org/2000/svg" version="1.1">
 <path d="  M 13,1  L 8,1  L 8,2  L 7,2  L 7,3  L 6,3  L 6,8  L 7,8  L 7,9  L 6,9  L 6,41  L 7,41  L 7,43  L 6,43  L 6,44  L 7,44  L 7,47  L 6,47  L 6,48  L 7,48  L 7,50  L 8,50  L 8,58  L 10,58  L 10,59  L 11,59  L 11,58  L 15,58  L 15,57  L 16,57  L 16,58  L 17,58  L 17,57  L 23,57  L 23,56  L 24,56  L 24,57  L 26,57  L 26,56  L 30,56  L 30,55  L 32,55  L 32,79  L 31,79  L 31,80  L 30,80  L 30,81  L 24,81  L 24,82  L 20,82  L 20,83  L 16,83  L 16,84  L 15,84  L 15,83  L 14,83  L 14,84  L 12,84  L 12,85  L 9,85  L 9,86  L 5,86  L 5,87  L 3,87  L 3,88  L 2,88  L 2,89  L 1,89  L 1,91  L 0,91  L 0,94  L 1,94  L 1,95  L 2,95  L 2,94  L 6,94  L 6,93  L 8,93  L 8,92  L 10,92  L 10,91  L 12,91  L 12,90  L 17,90  L 17,89  L 21,89  L 21,88  L 25,88  L 25,87  L 30,87  L 30,86  L 33,86  L 33,85  L 39,85  L 39,84  L 46,84  L 46,83  L 55,83  L 55,82  L 57,82  L 57,81  L 60,81  L 60,80  L 64,80  L 64,81  L 66,81  L 66,80  L 67,80  L 67,77  L 66,77  L 66,75  L 65,75  L 65,74  L 58,74  L 58,75  L 57,75  L 57,76  L 54,76  L 54,77  L 45,77  L 45,78  L 42,78  L 42,79  L 39,79  L 39,76  L 38,76  L 38,59  L 39,59  L 39,55  L 40,55  L 40,54  L 41,54  L 41,53  L 46,53  L 46,52  L 50,52  L 50,51  L 51,51  L 51,50  L 52,50  L 52,48  L 53,48  L 53,44  L 54,44  L 54,36  L 55,36  L 55,24  L 56,24  L 56,23  L 55,23  L 55,12  L 56,12  L 56,11  L 55,11  L 55,8  L 56,8  L 56,2  L 55,2  L 55,1  L 54,1  L 54,0  L 53,0  L 53,1  L 51,1  L 51,2  L 50,2  L 50,3  L 49,3  L 49,4  L 50,4  L 50,5  L 49,5  L 49,6  L 50,6  L 50,7  L 49,7  L 49,21  L 48,21  L 48,22  L 43,22  L 43,23  L 28,23  L 28,24  L 27,24  L 27,23  L 26,23  L 26,24  L 20,24  L 20,25  L 19,25  L 19,24  L 16,24  L 16,25  L 14,25  L 14,24  L 13,24  Z  M 18,31  L 25,31  L 25,30  L 26,30  L 26,31  L 27,31  L 27,30  L 37,30  L 37,29  L 38,29  L 38,30  L 39,30  L 39,29  L 48,29  L 48,30  L 49,30  L 49,33  L 48,33  L 48,42  L 47,42  L 47,45  L 46,45  L 46,47  L 43,47  L 43,48  L 38,48  L 38,49  L 36,49  L 36,50  L 28,50  L 28,51  L 22,51  L 22,52  L 19,52  L 19,51  L 18,51  L 18,52  L 14,52  L 14,50  L 13,50  L 13,33  L 14,33  L 14,32  L 18,32  Z  " style="fill:rgb(0, 0, 0); fill-opacity:1.000; stroke:none;" />
 <path d="  M 74,50  L 74,51  L 73,51  L 73,52  L 74,52  L 74,91  L 75,91  L 75,92  L 77,92  L 77,91  L 80,91  L 80,90  L 81,90  L 81,67  L 80,67  L 80,66  L 81,66  L 81,63  L 80,63  L 80,62  L 81,62  L 81,61  L 80,61  L 80,60  L 81,60  L 81,59  L 80,59  L 80,50  L 81,50  L 81,49  L 82,49  L 82,48  L 100,48  L 100,49  L 101,49  L 101,86  L 102,86  L 102,87  L 101,87  L 101,89  L 102,89  L 102,91  L 101,91  L 101,92  L 102,92  L 102,96  L 105,96  L 105,95  L 106,95  L 106,94  L 107,94  L 107,29  L 106,29  L 106,21  L 105,21  L 105,20  L 106,20  L 106,19  L 105,19  L 105,11  L 104,11  L 104,8  L 103,8  L 103,5  L 102,5  L 102,4  L 97,4  L 97,9  L 98,9  L 98,17  L 99,17  L 99,25  L 100,25  L 100,34  L 101,34  L 101,37  L 100,37  L 100,38  L 101,38  L 101,40  L 100,40  L 100,42  L 89,42  L 89,43  L 87,43  L 87,42  L 86,42  L 86,43  L 85,43  L 85,42  L 84,42  L 84,43  L 80,43  L 80,40  L 79,40  L 79,26  L 78,26  L 78,17  L 77,17  L 77,16  L 78,16  L 78,15  L 77,15  L 77,14  L 78,14  L 78,13  L 77,13  L 77,2  L 76,2  L 76,1  L 74,1  L 74,0  L 73,0  L 73,1  L 71,1  L 71,2  L 70,2  L 70,6  L 71,6  L 71,23  L 72,23  L 72,36  L 73,36  L 73,48  L 74,48  L 74,49  L 73,49  L 73,50  Z  " style="fill:rgb(0, 0, 0); fill-opacity:1.000; stroke:none;" />
</svg>
