<?xml version="1.0" encoding="UTF-8" standalone="no"?>
<!DOCTYPE svg PUBLIC "-//W3C//DTD SVG 1.1//EN" 
  "http://www.w3.org/Graphics/SVG/1.1/DTD/svg11.dtd">
<svg width="101" height="180"
     xmlns="http://www.w3.org/2000/svg" version="1.1">
 <path d="  M 45,62  L 46,62  L 46,59  L 47,59  L 47,58  L 48,58  L 48,57  L 49,57  L 49,56  L 52,56  L 52,55  L 54,55  L 54,54  L 55,54  L 55,53  L 56,53  L 56,54  L 57,54  L 57,53  L 58,53  L 58,52  L 61,52  L 61,50  L 62,50  L 62,48  L 63,48  L 63,46  L 65,46  L 65,45  L 64,45  L 64,43  L 65,43  L 65,38  L 66,38  L 66,33  L 67,33  L 67,4  L 65,4  L 65,3  L 63,3  L 63,4  L 62,4  L 62,5  L 60,5  L 60,7  L 59,7  L 59,24  L 58,24  L 58,25  L 56,25  L 56,26  L 55,26  L 55,25  L 54,25  L 54,26  L 52,26  L 52,27  L 32,27  L 32,28  L 31,28  L 31,27  L 23,27  L 23,26  L 21,26  L 21,25  L 20,25  L 20,24  L 21,24  L 21,20  L 22,20  L 22,19  L 21,19  L 21,18  L 22,18  L 22,3  L 21,3  L 21,1  L 16,1  L 16,2  L 15,2  L 15,4  L 14,4  L 14,5  L 13,5  L 13,7  L 14,7  L 14,17  L 13,17  L 13,18  L 14,18  L 14,19  L 13,19  L 13,26  L 12,26  L 12,32  L 11,32  L 11,54  L 12,54  L 12,56  L 13,56  L 13,58  L 15,58  L 15,59  L 18,59  L 18,60  L 23,60  L 23,61  L 35,61  L 35,60  L 37,60  L 37,61  L 38,61  L 38,75  L 37,75  L 37,76  L 38,76  L 38,89  L 37,89  L 37,91  L 35,91  L 35,92  L 28,92  L 28,93  L 22,93  L 22,94  L 16,94  L 16,95  L 13,95  L 13,96  L 6,96  L 6,97  L 2,97  L 2,98  L 1,98  L 1,101  L 0,101  L 0,104  L 1,104  L 1,105  L 2,105  L 2,106  L 4,106  L 4,105  L 8,105  L 8,104  L 11,104  L 11,103  L 15,103  L 15,102  L 19,102  L 19,101  L 23,101  L 23,100  L 27,100  L 27,99  L 28,99  L 28,100  L 29,100  L 29,99  L 35,99  L 35,98  L 43,98  L 43,97  L 44,97  L 44,98  L 46,98  L 46,97  L 49,97  L 49,98  L 50,98  L 50,97  L 52,97  L 52,96  L 61,96  L 61,95  L 69,95  L 69,94  L 74,94  L 74,93  L 76,93  L 76,92  L 77,92  L 77,91  L 78,91  L 78,88  L 77,88  L 77,87  L 76,87  L 76,86  L 75,86  L 75,85  L 74,85  L 74,86  L 69,86  L 69,87  L 62,87  L 62,88  L 56,88  L 56,89  L 46,89  L 46,88  L 45,88  L 45,74  L 46,74  L 46,73  L 45,73  L 45,66  L 46,66  L 46,65  L 45,65  Z  M 52,34  L 52,33  L 53,33  L 53,34  L 54,34  L 54,33  L 55,33  L 55,32  L 57,32  L 57,33  L 58,33  L 58,34  L 59,34  L 59,35  L 58,35  L 58,39  L 57,39  L 57,42  L 56,42  L 56,43  L 55,43  L 55,45  L 54,45  L 54,46  L 53,46  L 53,47  L 52,47  L 52,48  L 51,48  L 51,49  L 49,49  L 49,50  L 47,50  L 47,51  L 45,51  L 45,52  L 42,52  L 42,53  L 34,53  L 34,54  L 21,54  L 21,53  L 20,53  L 20,52  L 19,52  L 19,49  L 18,49  L 18,42  L 19,42  L 19,41  L 18,41  L 18,40  L 19,40  L 19,36  L 20,36  L 20,35  L 22,35  L 22,34  L 23,34  L 23,35  L 24,35  L 24,34  L 36,34  L 36,35  L 37,35  L 37,34  L 40,34  L 40,35  L 41,35  L 41,34  Z  " style="fill:rgb(0, 0, 0); fill-opacity:1.000; stroke:none;" />
 <path d="  M 39,133  L 39,132  L 46,132  L 46,131  L 55,131  L 55,130  L 66,130  L 66,129  L 69,129  L 69,130  L 70,130  L 70,129  L 81,129  L 81,130  L 85,130  L 85,131  L 86,131  L 86,132  L 88,132  L 88,133  L 89,133  L 89,137  L 90,137  L 90,138  L 89,138  L 89,146  L 88,146  L 88,153  L 87,153  L 87,154  L 88,154  L 88,155  L 87,155  L 87,161  L 86,161  L 86,169  L 85,169  L 85,172  L 84,172  L 84,177  L 83,177  L 83,180  L 90,180  L 90,179  L 91,179  L 91,178  L 92,178  L 92,177  L 91,177  L 91,176  L 92,176  L 92,171  L 93,171  L 93,168  L 94,168  L 94,162  L 95,162  L 95,154  L 96,154  L 96,150  L 97,150  L 97,149  L 96,149  L 96,147  L 97,147  L 97,140  L 98,140  L 98,139  L 97,139  L 97,137  L 98,137  L 98,132  L 97,132  L 97,130  L 95,130  L 95,129  L 94,129  L 94,128  L 93,128  L 93,126  L 92,126  L 92,125  L 90,125  L 90,124  L 89,124  L 89,123  L 86,123  L 86,122  L 83,122  L 83,121  L 82,121  L 82,122  L 81,122  L 81,121  L 62,121  L 62,122  L 59,122  L 59,121  L 58,121  L 58,122  L 55,122  L 55,123  L 48,123  L 48,124  L 47,124  L 47,123  L 46,123  L 46,124  L 41,124  L 41,125  L 34,125  L 34,126  L 33,126  L 33,125  L 30,125  L 30,126  L 29,126  L 29,127  L 28,127  L 28,132  L 29,132  L 29,133  L 30,133  L 30,134  L 36,134  L 36,133  Z  " style="fill:rgb(0, 0, 0); fill-opacity:1.000; stroke:none;" />
 <path d="  M 96,109  L 101,109  L 101,41  L 100,41  L 100,29  L 99,29  L 99,28  L 100,28  L 100,27  L 99,27  L 99,20  L 98,20  L 98,13  L 97,13  L 97,10  L 95,10  L 95,9  L 93,9  L 93,8  L 92,8  L 92,9  L 91,9  L 91,10  L 90,10  L 90,18  L 91,18  L 91,24  L 92,24  L 92,32  L 93,32  L 93,42  L 94,42  L 94,59  L 95,59  L 95,106  L 96,106  Z  " style="fill:rgb(0, 0, 0); fill-opacity:1.000; stroke:none;" />
</svg>
