<?xml version="1.0" encoding="UTF-8" standalone="no"?>
<!DOCTYPE svg PUBLIC "-//W3C//DTD SVG 1.1//EN" 
  "http://www.w3.org/Graphics/SVG/1.1/DTD/svg11.dtd">
<svg width="106" height="170"
     xmlns="http://www.w3.org/2000/svg" version="1.1">
 <path d="  M 41,91  L 40,91  L 40,92  L 33,92  L 33,93  L 20,93  L 20,94  L 13,94  L 13,95  L 12,95  L 12,94  L 11,94  L 11,95  L 10,95  L 10,94  L 9,94  L 9,95  L 4,95  L 4,96  L 3,96  L 3,95  L 2,95  L 2,96  L 1,96  L 1,97  L 0,97  L 0,98  L 1,98  L 1,101  L 2,101  L 2,102  L 1,102  L 1,103  L 6,103  L 6,102  L 11,102  L 11,101  L 18,101  L 18,100  L 19,100  L 19,101  L 20,101  L 20,100  L 30,100  L 30,99  L 42,99  L 42,98  L 43,98  L 43,99  L 45,99  L 45,98  L 48,98  L 48,99  L 49,99  L 49,98  L 57,98  L 57,97  L 66,97  L 66,96  L 74,96  L 74,95  L 82,95  L 82,94  L 85,94  L 85,93  L 86,93  L 86,90  L 85,90  L 85,88  L 84,88  L 84,87  L 83,87  L 83,86  L 80,86  L 80,87  L 74,87  L 74,88  L 69,88  L 69,89  L 64,89  L 64,90  L 63,90  L 63,89  L 62,89  L 62,90  L 48,90  L 48,64  L 49,64  L 49,63  L 50,63  L 50,62  L 57,62  L 57,61  L 61,61  L 61,60  L 63,60  L 63,59  L 64,59  L 64,58  L 65,58  L 65,57  L 66,57  L 66,56  L 67,56  L 67,55  L 69,55  L 69,48  L 70,48  L 70,44  L 71,44  L 71,35  L 72,35  L 72,34  L 71,34  L 71,33  L 72,33  L 72,9  L 73,9  L 73,8  L 72,8  L 72,7  L 73,7  L 73,2  L 72,2  L 72,1  L 70,1  L 70,0  L 66,0  L 66,1  L 65,1  L 65,18  L 64,18  L 64,19  L 65,19  L 65,22  L 64,22  L 64,23  L 65,23  L 65,24  L 64,24  L 64,26  L 63,26  L 63,27  L 58,27  L 58,28  L 51,28  L 51,29  L 50,29  L 50,28  L 47,28  L 47,29  L 46,29  L 46,28  L 43,28  L 43,29  L 42,29  L 42,28  L 39,28  L 39,29  L 38,29  L 38,28  L 37,28  L 37,29  L 36,29  L 36,28  L 35,28  L 35,29  L 34,29  L 34,28  L 31,28  L 31,29  L 30,29  L 30,28  L 26,28  L 26,27  L 24,27  L 24,25  L 25,25  L 25,21  L 26,21  L 26,7  L 27,7  L 27,6  L 26,6  L 26,4  L 25,4  L 25,3  L 20,3  L 20,4  L 19,4  L 19,5  L 18,5  L 18,6  L 17,6  L 17,7  L 18,7  L 18,10  L 17,10  L 17,11  L 18,11  L 18,13  L 17,13  L 17,15  L 18,15  L 18,16  L 17,16  L 17,26  L 16,26  L 16,32  L 15,32  L 15,41  L 14,41  L 14,42  L 15,42  L 15,44  L 14,44  L 14,55  L 15,55  L 15,59  L 16,59  L 16,60  L 17,60  L 17,61  L 18,61  L 18,62  L 19,62  L 19,63  L 22,63  L 22,64  L 27,64  L 27,65  L 28,65  L 28,64  L 29,64  L 29,65  L 30,65  L 30,64  L 34,64  L 34,65  L 39,65  L 39,64  L 40,64  L 40,65  L 41,65  Z  M 35,57  L 35,58  L 26,58  L 26,57  L 24,57  L 24,56  L 23,56  L 23,53  L 22,53  L 22,52  L 23,52  L 23,50  L 22,50  L 22,47  L 23,47  L 23,37  L 24,37  L 24,36  L 25,36  L 25,35  L 26,35  L 26,36  L 27,36  L 27,35  L 39,35  L 39,36  L 40,36  L 40,35  L 41,35  L 41,36  L 42,36  L 42,35  L 43,35  L 43,36  L 44,36  L 44,35  L 61,35  L 61,34  L 64,34  L 64,40  L 63,40  L 63,46  L 62,46  L 62,48  L 61,48  L 61,50  L 60,50  L 60,52  L 59,52  L 59,53  L 58,53  L 58,54  L 56,54  L 56,55  L 53,55  L 53,56  L 48,56  L 48,57  Z  " style="fill:rgb(0, 0, 0); fill-opacity:1.000; stroke:none;" />
 <path d="  M 43,152  L 42,152  L 42,151  L 43,151  L 43,148  L 42,148  L 42,144  L 43,144  L 43,143  L 47,143  L 47,142  L 48,142  L 48,143  L 49,143  L 49,142  L 52,142  L 52,143  L 53,143  L 53,142  L 56,142  L 56,143  L 57,143  L 57,142  L 60,142  L 60,143  L 61,143  L 61,142  L 64,142  L 64,143  L 65,143  L 65,142  L 68,142  L 68,143  L 69,143  L 69,142  L 72,142  L 72,143  L 73,143  L 73,142  L 76,142  L 76,143  L 77,143  L 77,142  L 80,142  L 80,143  L 81,143  L 81,142  L 84,142  L 84,143  L 85,143  L 85,142  L 86,142  L 86,143  L 90,143  L 90,144  L 91,144  L 91,146  L 90,146  L 90,150  L 89,150  L 89,154  L 88,154  L 88,156  L 87,156  L 87,157  L 86,157  L 86,158  L 84,158  L 84,159  L 81,159  L 81,160  L 79,160  L 79,161  L 76,161  L 76,162  L 69,162  L 69,163  L 66,163  L 66,162  L 65,162  L 65,163  L 61,163  L 61,164  L 59,164  L 59,163  L 58,163  L 58,164  L 47,164  L 47,163  L 45,163  L 45,162  L 44,162  L 44,160  L 43,160  Z  M 57,135  L 57,136  L 54,136  L 54,135  L 53,135  L 53,136  L 51,136  L 51,135  L 49,135  L 49,136  L 42,136  L 42,135  L 41,135  L 41,130  L 42,130  L 42,125  L 43,125  L 43,124  L 42,124  L 42,122  L 43,122  L 43,115  L 37,115  L 37,116  L 35,116  L 35,118  L 34,118  L 34,126  L 33,126  L 33,127  L 34,127  L 34,130  L 33,130  L 33,131  L 34,131  L 34,134  L 33,134  L 33,135  L 34,135  L 34,138  L 33,138  L 33,139  L 34,139  L 34,142  L 33,142  L 33,143  L 34,143  L 34,151  L 35,151  L 35,157  L 36,157  L 36,162  L 37,162  L 37,163  L 38,163  L 38,166  L 39,166  L 39,167  L 40,167  L 40,169  L 44,169  L 44,170  L 74,170  L 74,169  L 75,169  L 75,170  L 76,170  L 76,169  L 78,169  L 78,168  L 80,168  L 80,167  L 84,167  L 84,166  L 86,166  L 86,165  L 88,165  L 88,164  L 89,164  L 89,163  L 90,163  L 90,162  L 92,162  L 92,161  L 93,161  L 93,160  L 94,160  L 94,158  L 95,158  L 95,155  L 96,155  L 96,151  L 97,151  L 97,147  L 98,147  L 98,141  L 99,141  L 99,139  L 100,139  L 100,114  L 94,114  L 94,130  L 93,130  L 93,135  L 87,135  L 87,136  L 86,136  L 86,135  L 82,135  L 82,134  L 81,134  L 81,135  L 79,135  L 79,136  L 78,136  L 78,135  L 75,135  L 75,136  L 74,136  L 74,135  L 71,135  L 71,136  L 70,136  L 70,135  L 67,135  L 67,136  L 66,136  L 66,135  L 65,135  L 65,136  L 62,136  L 62,135  L 61,135  L 61,136  L 58,136  L 58,135  Z  " style="fill:rgb(0, 0, 0); fill-opacity:1.000; stroke:none;" />
 <path d="  M 99,94  L 100,94  L 100,95  L 99,95  L 99,98  L 100,98  L 100,99  L 99,99  L 99,100  L 100,100  L 100,101  L 99,101  L 99,104  L 100,104  L 100,105  L 101,105  L 101,106  L 103,106  L 103,107  L 104,107  L 104,106  L 106,106  L 106,52  L 105,52  L 105,38  L 104,38  L 104,37  L 105,37  L 105,36  L 104,36  L 104,26  L 103,26  L 103,19  L 102,19  L 102,10  L 101,10  L 101,7  L 100,7  L 100,6  L 95,6  L 95,17  L 96,17  L 96,24  L 97,24  L 97,32  L 98,32  L 98,45  L 99,45  Z  " style="fill:rgb(0, 0, 0); fill-opacity:1.000; stroke:none;" />
</svg>
