<?xml version="1.0" encoding="UTF-8" standalone="no"?>
<!DOCTYPE svg PUBLIC "-//W3C//DTD SVG 1.1//EN" 
  "http://www.w3.org/Graphics/SVG/1.1/DTD/svg11.dtd">
<svg width="106" height="181"
     xmlns="http://www.w3.org/2000/svg" version="1.1">
 <path d="  M 62,82  L 63,82  L 63,81  L 65,81  L 65,80  L 66,80  L 66,81  L 78,81  L 78,80  L 90,80  L 90,79  L 92,79  L 92,80  L 93,80  L 93,79  L 99,79  L 99,78  L 100,78  L 100,79  L 101,79  L 101,78  L 104,78  L 104,77  L 105,77  L 105,76  L 106,76  L 106,71  L 105,71  L 105,70  L 101,70  L 101,69  L 100,69  L 100,70  L 97,70  L 97,71  L 91,71  L 91,72  L 81,72  L 81,73  L 74,73  L 74,74  L 73,74  L 73,73  L 72,73  L 72,74  L 53,74  L 53,75  L 52,75  L 52,74  L 51,74  L 51,75  L 44,75  L 44,76  L 43,76  L 43,75  L 42,75  L 42,76  L 37,76  L 37,77  L 33,77  L 33,78  L 29,78  L 29,79  L 24,79  L 24,80  L 20,80  L 20,81  L 9,81  L 9,82  L 8,82  L 8,81  L 4,81  L 4,82  L 2,82  L 2,83  L 1,83  L 1,84  L 0,84  L 0,85  L 1,85  L 1,87  L 2,87  L 2,88  L 4,88  L 4,89  L 13,89  L 13,88  L 21,88  L 21,87  L 25,87  L 25,86  L 26,86  L 26,85  L 31,85  L 31,84  L 36,84  L 36,83  L 41,83  L 41,82  L 46,82  L 46,81  L 54,81  L 54,83  L 55,83  L 55,86  L 54,86  L 54,87  L 55,87  L 55,89  L 54,89  L 54,91  L 55,91  L 55,94  L 54,94  L 54,95  L 55,95  L 55,98  L 54,98  L 54,99  L 55,99  L 55,106  L 54,106  L 54,107  L 55,107  L 55,126  L 54,126  L 54,125  L 53,125  L 53,126  L 52,126  L 52,125  L 49,125  L 49,126  L 34,126  L 34,127  L 27,127  L 27,128  L 19,128  L 19,129  L 18,129  L 18,131  L 17,131  L 17,133  L 18,133  L 18,134  L 19,134  L 19,135  L 20,135  L 20,136  L 24,136  L 24,135  L 28,135  L 28,134  L 29,134  L 29,135  L 30,135  L 30,134  L 39,134  L 39,133  L 59,133  L 59,132  L 60,132  L 60,133  L 61,133  L 61,132  L 62,132  L 62,133  L 63,133  L 63,132  L 64,132  L 64,133  L 65,133  L 65,132  L 66,132  L 66,133  L 67,133  L 67,132  L 70,132  L 70,133  L 71,133  L 71,132  L 72,132  L 72,133  L 76,133  L 76,134  L 77,134  L 77,135  L 78,135  L 78,138  L 77,138  L 77,144  L 76,144  L 76,148  L 75,148  L 75,154  L 74,154  L 74,163  L 73,163  L 73,168  L 72,168  L 72,175  L 71,175  L 71,181  L 76,181  L 76,180  L 77,180  L 77,179  L 78,179  L 78,177  L 79,177  L 79,175  L 80,175  L 80,171  L 81,171  L 81,167  L 82,167  L 82,160  L 83,160  L 83,157  L 84,157  L 84,152  L 85,152  L 85,149  L 86,149  L 86,148  L 85,148  L 85,147  L 86,147  L 86,143  L 87,143  L 87,137  L 88,137  L 88,131  L 87,131  L 87,129  L 86,129  L 86,128  L 85,128  L 85,127  L 84,127  L 84,126  L 82,126  L 82,125  L 80,125  L 80,124  L 62,124  Z  " style="fill:rgb(0, 0, 0); fill-opacity:1.000; stroke:none;" />
 <path d="  M 45,64  L 45,63  L 52,63  L 52,62  L 59,62  L 59,61  L 62,61  L 62,60  L 66,60  L 66,59  L 71,59  L 71,58  L 73,58  L 73,57  L 77,57  L 77,56  L 80,56  L 80,55  L 82,55  L 82,54  L 84,54  L 84,53  L 85,53  L 85,52  L 86,52  L 86,51  L 87,51  L 87,50  L 88,50  L 88,47  L 89,47  L 89,46  L 88,46  L 88,44  L 89,44  L 89,15  L 90,15  L 90,14  L 89,14  L 89,13  L 90,13  L 90,12  L 89,12  L 89,9  L 90,9  L 90,8  L 89,8  L 89,7  L 90,7  L 90,4  L 89,4  L 89,2  L 88,2  L 88,1  L 87,1  L 87,0  L 84,0  L 84,1  L 83,1  L 83,2  L 82,2  L 82,11  L 83,11  L 83,14  L 82,14  L 82,15  L 83,15  L 83,26  L 82,26  L 82,27  L 81,27  L 81,28  L 79,28  L 79,27  L 65,27  L 65,26  L 53,26  L 53,27  L 52,27  L 52,26  L 51,26  L 51,27  L 33,27  L 33,3  L 32,3  L 32,2  L 29,2  L 29,1  L 28,1  L 28,2  L 26,2  L 26,28  L 25,28  L 25,41  L 24,41  L 24,42  L 25,42  L 25,44  L 24,44  L 24,45  L 25,45  L 25,51  L 26,51  L 26,55  L 27,55  L 27,58  L 28,58  L 28,60  L 29,60  L 29,62  L 31,62  L 31,63  L 34,63  L 34,64  L 40,64  L 40,63  L 43,63  L 43,64  Z  M 83,37  L 83,41  L 82,41  L 82,45  L 81,45  L 81,48  L 79,48  L 79,49  L 75,49  L 75,50  L 71,50  L 71,51  L 70,51  L 70,50  L 69,50  L 69,51  L 68,51  L 68,52  L 67,52  L 67,51  L 66,51  L 66,52  L 64,52  L 64,53  L 59,53  L 59,54  L 56,54  L 56,55  L 49,55  L 49,56  L 40,56  L 40,57  L 35,57  L 35,56  L 34,56  L 34,54  L 33,54  L 33,47  L 32,47  L 32,43  L 31,43  L 31,41  L 32,41  L 32,37  L 33,37  L 33,36  L 36,36  L 36,35  L 51,35  L 51,34  L 52,34  L 52,35  L 53,35  L 53,34  L 74,34  L 74,35  L 82,35  L 82,37  Z  " style="fill:rgb(0, 0, 0); fill-opacity:1.000; stroke:none;" />
</svg>
