<?xml version="1.0" encoding="UTF-8" standalone="no"?>
<!DOCTYPE svg PUBLIC "-//W3C//DTD SVG 1.1//EN" 
  "http://www.w3.org/Graphics/SVG/1.1/DTD/svg11.dtd">
<svg width="104" height="175"
     xmlns="http://www.w3.org/2000/svg" version="1.1">
 <path d="  M 90,96  L 93,96  L 93,97  L 94,97  L 94,96  L 95,96  L 95,95  L 98,95  L 98,94  L 100,94  L 100,92  L 101,92  L 101,89  L 102,89  L 102,88  L 101,88  L 101,85  L 98,85  L 98,86  L 94,86  L 94,87  L 88,87  L 88,88  L 82,88  L 82,89  L 79,89  L 79,88  L 78,88  L 78,89  L 59,89  L 59,88  L 58,88  L 58,89  L 56,89  L 56,88  L 54,88  L 54,89  L 53,89  L 53,88  L 50,88  L 50,89  L 42,89  L 42,90  L 31,90  L 31,91  L 22,91  L 22,92  L 14,92  L 14,93  L 8,93  L 8,94  L 2,94  L 2,95  L 1,95  L 1,97  L 0,97  L 0,99  L 1,99  L 1,101  L 3,101  L 3,102  L 4,102  L 4,101  L 6,101  L 6,102  L 7,102  L 7,101  L 11,101  L 11,100  L 12,100  L 12,101  L 13,101  L 13,100  L 28,100  L 28,99  L 31,99  L 31,100  L 33,100  L 33,99  L 35,99  L 35,100  L 36,100  L 36,99  L 51,99  L 51,98  L 53,98  L 53,107  L 54,107  L 54,130  L 55,130  L 55,133  L 56,133  L 56,135  L 59,135  L 59,134  L 60,134  L 60,133  L 61,133  L 61,121  L 62,121  L 62,120  L 61,120  L 61,119  L 62,119  L 62,118  L 61,118  L 61,117  L 62,117  L 62,116  L 61,116  L 61,115  L 62,115  L 62,114  L 61,114  L 61,113  L 62,113  L 62,112  L 61,112  L 61,109  L 62,109  L 62,108  L 61,108  L 61,100  L 62,100  L 62,99  L 67,99  L 67,98  L 68,98  L 68,99  L 69,99  L 69,98  L 78,98  L 78,97  L 80,97  L 80,98  L 81,98  L 81,97  L 90,97  Z  " style="fill:rgb(0, 0, 0); fill-opacity:1.000; stroke:none;" />
 <path d="  M 29,165  L 29,166  L 24,166  L 24,164  L 23,164  L 23,163  L 24,163  L 24,130  L 23,130  L 23,128  L 21,128  L 21,127  L 18,127  L 18,128  L 15,128  L 15,138  L 16,138  L 16,139  L 15,139  L 15,140  L 16,140  L 16,160  L 17,160  L 17,161  L 16,161  L 16,164  L 17,164  L 17,165  L 16,165  L 16,171  L 17,171  L 17,172  L 18,172  L 18,173  L 19,173  L 19,174  L 22,174  L 22,175  L 33,175  L 33,174  L 43,174  L 43,173  L 44,173  L 44,174  L 45,174  L 45,173  L 56,173  L 56,172  L 57,172  L 57,173  L 59,173  L 59,172  L 61,172  L 61,173  L 62,173  L 62,172  L 71,172  L 71,171  L 72,171  L 72,172  L 73,172  L 73,171  L 79,171  L 79,170  L 85,170  L 85,169  L 91,169  L 91,168  L 95,168  L 95,167  L 96,167  L 96,168  L 97,168  L 97,167  L 102,167  L 102,166  L 103,166  L 103,165  L 104,165  L 104,159  L 103,159  L 103,158  L 100,158  L 100,159  L 99,159  L 99,158  L 98,158  L 98,159  L 95,159  L 95,160  L 90,160  L 90,161  L 87,161  L 87,162  L 80,162  L 80,163  L 79,163  L 79,162  L 78,162  L 78,163  L 73,163  L 73,164  L 72,164  L 72,163  L 71,163  L 71,164  L 70,164  L 70,163  L 69,163  L 69,164  L 57,164  L 57,165  L 55,165  L 55,164  L 54,164  L 54,165  L 51,165  L 51,164  L 50,164  L 50,165  L 37,165  L 37,166  L 36,166  L 36,165  L 33,165  L 33,166  L 32,166  L 32,165  Z  " style="fill:rgb(0, 0, 0); fill-opacity:1.000; stroke:none;" />
 <path d="  M 50,62  L 43,62  L 43,63  L 31,63  L 31,62  L 30,62  L 30,61  L 29,61  L 29,49  L 28,49  L 28,48  L 29,48  L 29,46  L 28,46  L 28,43  L 29,43  L 29,42  L 30,42  L 30,41  L 31,41  L 31,42  L 32,42  L 32,41  L 51,41  L 51,40  L 63,40  L 63,39  L 64,39  L 64,40  L 67,40  L 67,39  L 69,39  L 69,40  L 71,40  L 71,47  L 70,47  L 70,50  L 69,50  L 69,52  L 68,52  L 68,53  L 67,53  L 67,54  L 66,54  L 66,55  L 64,55  L 64,56  L 62,56  L 62,57  L 60,57  L 60,58  L 58,58  L 58,59  L 57,59  L 57,60  L 53,60  L 53,61  L 50,61  Z  M 43,33  L 43,34  L 35,34  L 35,33  L 34,33  L 34,34  L 33,34  L 33,33  L 29,33  L 29,13  L 30,13  L 30,12  L 29,12  L 29,9  L 30,9  L 30,8  L 29,8  L 29,5  L 30,5  L 30,4  L 29,4  L 29,1  L 27,1  L 27,0  L 24,0  L 24,1  L 23,1  L 23,3  L 22,3  L 22,9  L 23,9  L 23,10  L 22,10  L 22,32  L 21,32  L 21,33  L 22,33  L 22,34  L 21,34  L 21,49  L 22,49  L 22,57  L 23,57  L 23,62  L 24,62  L 24,63  L 23,63  L 23,64  L 24,64  L 24,66  L 25,66  L 25,68  L 26,68  L 26,69  L 27,69  L 27,70  L 28,70  L 28,69  L 29,69  L 29,70  L 32,70  L 32,71  L 37,71  L 37,70  L 38,70  L 38,71  L 39,71  L 39,70  L 47,70  L 47,69  L 48,69  L 48,70  L 49,70  L 49,69  L 53,69  L 53,68  L 57,68  L 57,67  L 59,67  L 59,66  L 62,66  L 62,65  L 64,65  L 64,64  L 66,64  L 66,63  L 67,63  L 67,62  L 68,62  L 68,60  L 69,60  L 69,59  L 70,59  L 70,58  L 71,58  L 71,57  L 72,57  L 72,56  L 73,56  L 73,55  L 75,55  L 75,54  L 76,54  L 76,53  L 77,53  L 77,51  L 78,51  L 78,47  L 79,47  L 79,40  L 80,40  L 80,25  L 79,25  L 79,24  L 80,24  L 80,23  L 79,23  L 79,15  L 78,15  L 78,14  L 79,14  L 79,12  L 78,12  L 78,10  L 79,10  L 79,5  L 78,5  L 78,4  L 77,4  L 77,3  L 74,3  L 74,4  L 72,4  L 72,5  L 71,5  L 71,15  L 72,15  L 72,27  L 73,27  L 73,32  L 69,32  L 69,33  L 64,33  L 64,32  L 58,32  L 58,33  Z  " style="fill:rgb(0, 0, 0); fill-opacity:1.000; stroke:none;" />
</svg>
