<?xml version="1.0" encoding="UTF-8" standalone="no"?>
<!DOCTYPE svg PUBLIC "-//W3C//DTD SVG 1.1//EN" 
  "http://www.w3.org/Graphics/SVG/1.1/DTD/svg11.dtd">
<svg width="106" height="185"
     xmlns="http://www.w3.org/2000/svg" version="1.1">
 <path d="  M 53,96  L 52,96  L 52,97  L 53,97  L 53,98  L 52,98  L 52,109  L 53,109  L 53,110  L 52,110  L 52,111  L 53,111  L 53,116  L 52,116  L 52,117  L 53,117  L 53,122  L 52,122  L 52,123  L 53,123  L 53,125  L 54,125  L 54,127  L 53,127  L 53,128  L 46,128  L 46,129  L 42,129  L 42,130  L 35,130  L 35,131  L 34,131  L 34,130  L 31,130  L 31,131  L 30,131  L 30,130  L 29,130  L 29,131  L 24,131  L 24,132  L 22,132  L 22,134  L 21,134  L 21,137  L 22,137  L 22,178  L 23,178  L 23,182  L 24,182  L 24,183  L 26,183  L 26,185  L 48,185  L 48,184  L 49,184  L 49,185  L 50,185  L 50,184  L 54,184  L 54,183  L 55,183  L 55,184  L 56,184  L 56,183  L 62,183  L 62,182  L 66,182  L 66,181  L 70,181  L 70,180  L 74,180  L 74,179  L 77,179  L 77,178  L 80,178  L 80,177  L 82,177  L 82,176  L 84,176  L 84,175  L 87,175  L 87,174  L 89,174  L 89,173  L 92,173  L 92,172  L 94,172  L 94,171  L 96,171  L 96,170  L 98,170  L 98,169  L 101,169  L 101,168  L 104,168  L 104,167  L 106,167  L 106,163  L 105,163  L 105,162  L 101,162  L 101,161  L 100,161  L 100,162  L 96,162  L 96,163  L 95,163  L 95,164  L 92,164  L 92,165  L 90,165  L 90,166  L 88,166  L 88,167  L 85,167  L 85,168  L 81,168  L 81,169  L 80,169  L 80,170  L 77,170  L 77,171  L 74,171  L 74,172  L 72,172  L 72,173  L 70,173  L 70,172  L 69,172  L 69,173  L 68,173  L 68,174  L 63,174  L 63,175  L 56,175  L 56,176  L 51,176  L 51,177  L 50,177  L 50,176  L 49,176  L 49,177  L 48,177  L 48,178  L 46,178  L 46,177  L 44,177  L 44,178  L 34,178  L 34,177  L 32,177  L 32,176  L 30,176  L 30,175  L 29,175  L 29,141  L 30,141  L 30,139  L 32,139  L 32,138  L 36,138  L 36,137  L 37,137  L 37,138  L 38,138  L 38,137  L 44,137  L 44,136  L 49,136  L 49,135  L 55,135  L 55,134  L 56,134  L 56,135  L 57,135  L 57,134  L 58,134  L 58,133  L 64,133  L 64,132  L 69,132  L 69,131  L 75,131  L 75,130  L 76,130  L 76,131  L 77,131  L 77,130  L 81,130  L 81,129  L 89,129  L 89,128  L 91,128  L 91,127  L 92,127  L 92,123  L 91,123  L 91,122  L 90,122  L 90,121  L 88,121  L 88,122  L 83,122  L 83,123  L 82,123  L 82,122  L 81,122  L 81,123  L 78,123  L 78,124  L 71,124  L 71,125  L 70,125  L 70,124  L 69,124  L 69,125  L 66,125  L 66,124  L 65,124  L 65,125  L 62,125  L 62,126  L 59,126  L 59,125  L 60,125  L 60,121  L 59,121  L 59,119  L 60,119  L 60,118  L 59,118  L 59,115  L 60,115  L 60,114  L 59,114  L 59,111  L 60,111  L 60,110  L 59,110  L 59,107  L 60,107  L 60,106  L 59,106  L 59,103  L 60,103  L 60,102  L 59,102  L 59,100  L 60,100  L 60,98  L 59,98  L 59,97  L 60,97  L 60,96  L 59,96  L 59,93  L 60,93  L 60,86  L 61,86  L 61,85  L 62,85  L 62,86  L 69,86  L 69,85  L 76,85  L 76,84  L 81,84  L 81,83  L 86,83  L 86,82  L 95,82  L 95,81  L 99,81  L 99,80  L 100,80  L 100,79  L 102,79  L 102,78  L 103,78  L 103,77  L 104,77  L 104,76  L 105,76  L 105,74  L 104,74  L 104,72  L 102,72  L 102,71  L 101,71  L 101,72  L 100,72  L 100,71  L 97,71  L 97,72  L 95,72  L 95,73  L 93,73  L 93,74  L 86,74  L 86,75  L 85,75  L 85,74  L 84,74  L 84,75  L 80,75  L 80,76  L 74,76  L 74,77  L 68,77  L 68,78  L 63,78  L 63,79  L 62,79  L 62,78  L 59,78  L 59,79  L 58,79  L 58,78  L 57,78  L 57,79  L 50,79  L 50,80  L 42,80  L 42,81  L 36,81  L 36,82  L 28,82  L 28,83  L 20,83  L 20,84  L 9,84  L 9,85  L 6,85  L 6,84  L 5,84  L 5,85  L 1,85  L 1,86  L 0,86  L 0,89  L 1,89  L 1,90  L 2,90  L 2,91  L 4,91  L 4,92  L 12,92  L 12,91  L 22,91  L 22,90  L 32,90  L 32,89  L 38,89  L 38,88  L 46,88  L 46,87  L 50,87  L 50,86  L 51,86  L 51,87  L 52,87  L 52,89  L 53,89  Z  " style="fill:rgb(0, 0, 0); fill-opacity:1.000; stroke:none;" />
 <path d="  M 46,29  L 46,30  L 34,30  L 34,29  L 33,29  L 33,6  L 34,6  L 34,4  L 33,4  L 33,3  L 32,3  L 32,2  L 27,2  L 27,3  L 26,3  L 26,29  L 25,29  L 25,31  L 26,31  L 26,33  L 25,33  L 25,47  L 26,47  L 26,55  L 27,55  L 27,56  L 26,56  L 26,58  L 27,58  L 27,60  L 28,60  L 28,62  L 30,62  L 30,64  L 32,64  L 32,65  L 35,65  L 35,66  L 37,66  L 37,65  L 38,65  L 38,66  L 42,66  L 42,65  L 43,65  L 43,66  L 45,66  L 45,65  L 52,65  L 52,64  L 57,64  L 57,63  L 61,63  L 61,62  L 62,62  L 62,61  L 65,61  L 65,60  L 67,60  L 67,59  L 70,59  L 70,58  L 71,58  L 71,57  L 74,57  L 74,56  L 75,56  L 75,55  L 78,55  L 78,54  L 79,54  L 79,53  L 80,53  L 80,52  L 82,52  L 82,51  L 84,51  L 84,47  L 85,47  L 85,39  L 86,39  L 86,35  L 85,35  L 85,34  L 86,34  L 86,33  L 85,33  L 85,7  L 86,7  L 86,6  L 85,6  L 85,5  L 86,5  L 86,3  L 85,3  L 85,1  L 83,1  L 83,0  L 81,0  L 81,1  L 80,1  L 80,2  L 79,2  L 79,4  L 78,4  L 78,11  L 79,11  L 79,12  L 78,12  L 78,15  L 79,15  L 79,16  L 78,16  L 78,17  L 79,17  L 79,28  L 77,28  L 77,29  L 73,29  L 73,28  L 72,28  L 72,29  L 58,29  L 58,28  L 57,28  L 57,29  Z  M 33,40  L 35,40  L 35,39  L 37,39  L 37,38  L 48,38  L 48,37  L 55,37  L 55,36  L 64,36  L 64,35  L 65,35  L 65,36  L 75,36  L 75,37  L 76,37  L 76,36  L 77,36  L 77,37  L 79,37  L 79,42  L 78,42  L 78,45  L 77,45  L 77,48  L 75,48  L 75,49  L 74,49  L 74,50  L 71,50  L 71,51  L 69,51  L 69,52  L 66,52  L 66,53  L 63,53  L 63,54  L 61,54  L 61,55  L 58,55  L 58,56  L 56,56  L 56,57  L 52,57  L 52,58  L 47,58  L 47,59  L 35,59  L 35,57  L 34,57  L 34,56  L 33,56  Z  " style="fill:rgb(0, 0, 0); fill-opacity:1.000; stroke:none;" />
</svg>
