<?xml version="1.0" encoding="UTF-8" standalone="no"?>
<!DOCTYPE svg PUBLIC "-//W3C//DTD SVG 1.1//EN" 
  "http://www.w3.org/Graphics/SVG/1.1/DTD/svg11.dtd">
<svg width="105" height="187"
     xmlns="http://www.w3.org/2000/svg" version="1.1">
 <path d="  M 91,76  L 91,77  L 92,77  L 92,76  L 97,76  L 97,75  L 98,75  L 98,76  L 100,76  L 100,75  L 103,75  L 103,74  L 104,74  L 104,73  L 105,73  L 105,68  L 104,68  L 104,67  L 95,67  L 95,68  L 92,68  L 92,69  L 84,69  L 84,70  L 76,70  L 76,71  L 75,71  L 75,70  L 74,70  L 74,71  L 69,71  L 69,72  L 67,72  L 67,71  L 65,71  L 65,72  L 48,72  L 48,73  L 33,73  L 33,74  L 30,74  L 30,73  L 29,73  L 29,74  L 28,74  L 28,75  L 22,75  L 22,76  L 15,76  L 15,77  L 14,77  L 14,76  L 6,76  L 6,75  L 5,75  L 5,74  L 2,74  L 2,76  L 1,76  L 1,78  L 0,78  L 0,81  L 1,81  L 1,83  L 3,83  L 3,84  L 10,84  L 10,83  L 20,83  L 20,82  L 27,82  L 27,81  L 33,81  L 33,80  L 41,80  L 41,79  L 47,79  L 47,78  L 48,78  L 48,79  L 51,79  L 51,78  L 53,78  L 53,79  L 54,79  L 54,92  L 53,92  L 53,93  L 54,93  L 54,96  L 53,96  L 53,97  L 54,97  L 54,100  L 53,100  L 53,102  L 54,102  L 54,103  L 53,103  L 53,114  L 54,114  L 54,115  L 53,115  L 53,116  L 54,116  L 54,117  L 53,117  L 53,120  L 47,120  L 47,121  L 46,121  L 46,120  L 45,120  L 45,121  L 44,121  L 44,120  L 43,120  L 43,121  L 42,121  L 42,120  L 41,120  L 41,121  L 37,121  L 37,122  L 36,122  L 36,121  L 35,121  L 35,122  L 25,122  L 25,123  L 20,123  L 20,124  L 18,124  L 18,125  L 19,125  L 19,127  L 21,127  L 21,128  L 22,128  L 22,129  L 23,129  L 23,147  L 22,147  L 22,148  L 23,148  L 23,151  L 22,151  L 22,179  L 23,179  L 23,182  L 24,182  L 24,185  L 25,185  L 25,186  L 26,186  L 26,187  L 46,187  L 46,186  L 50,186  L 50,185  L 51,185  L 51,186  L 52,186  L 52,185  L 57,185  L 57,184  L 59,184  L 59,183  L 63,183  L 63,182  L 69,182  L 69,181  L 74,181  L 74,180  L 77,180  L 77,179  L 81,179  L 81,178  L 83,178  L 83,177  L 86,177  L 86,176  L 88,176  L 88,175  L 89,175  L 89,174  L 90,174  L 90,172  L 91,172  L 91,171  L 92,171  L 92,168  L 93,168  L 93,166  L 92,166  L 92,162  L 91,162  L 91,161  L 92,161  L 92,160  L 91,160  L 91,149  L 92,149  L 92,148  L 91,148  L 91,146  L 92,146  L 92,137  L 93,137  L 93,122  L 92,122  L 92,119  L 91,119  L 91,118  L 90,118  L 90,116  L 80,116  L 80,117  L 78,117  L 78,116  L 77,116  L 77,117  L 74,117  L 74,118  L 63,118  L 63,119  L 62,119  L 62,118  L 61,118  L 61,113  L 60,113  L 60,110  L 61,110  L 61,108  L 60,108  L 60,107  L 61,107  L 61,104  L 60,104  L 60,103  L 61,103  L 61,80  L 62,80  L 62,79  L 63,79  L 63,78  L 77,78  L 77,77  L 79,77  L 79,78  L 80,78  L 80,77  L 86,77  L 86,76  L 87,76  L 87,77  L 90,77  L 90,76  Z  M 70,126  L 70,125  L 82,125  L 82,124  L 84,124  L 84,125  L 85,125  L 85,138  L 84,138  L 84,146  L 83,146  L 83,147  L 84,147  L 84,149  L 83,149  L 83,160  L 84,160  L 84,162  L 85,162  L 85,164  L 86,164  L 86,166  L 85,166  L 85,168  L 83,168  L 83,169  L 82,169  L 82,170  L 80,170  L 80,171  L 77,171  L 77,172  L 73,172  L 73,173  L 70,173  L 70,174  L 65,174  L 65,175  L 62,175  L 62,174  L 61,174  L 61,175  L 60,175  L 60,176  L 56,176  L 56,177  L 51,177  L 51,178  L 44,178  L 44,179  L 42,179  L 42,178  L 41,178  L 41,179  L 40,179  L 40,178  L 34,178  L 34,177  L 32,177  L 32,176  L 31,176  L 31,175  L 30,175  L 30,174  L 29,174  L 29,168  L 28,168  L 28,166  L 29,166  L 29,155  L 30,155  L 30,154  L 29,154  L 29,151  L 30,151  L 30,150  L 29,150  L 29,149  L 30,149  L 30,131  L 31,131  L 31,130  L 32,130  L 32,129  L 37,129  L 37,128  L 44,128  L 44,127  L 52,127  L 52,126  L 57,126  L 57,127  L 58,127  L 58,126  Z  " style="fill:rgb(0, 0, 0); fill-opacity:1.000; stroke:none;" />
 <path d="  M 33,15  L 34,15  L 34,14  L 33,14  L 33,13  L 34,13  L 34,2  L 32,2  L 32,1  L 28,1  L 28,2  L 27,2  L 27,3  L 26,3  L 26,28  L 25,28  L 25,29  L 26,29  L 26,32  L 25,32  L 25,33  L 26,33  L 26,36  L 25,36  L 25,37  L 26,37  L 26,40  L 25,40  L 25,41  L 26,41  L 26,44  L 25,44  L 25,45  L 26,45  L 26,50  L 27,50  L 27,53  L 28,53  L 28,55  L 29,55  L 29,56  L 30,56  L 30,58  L 32,58  L 32,59  L 34,59  L 34,60  L 35,60  L 35,61  L 36,61  L 36,60  L 37,60  L 37,61  L 50,61  L 50,60  L 55,60  L 55,59  L 58,59  L 58,58  L 62,58  L 62,57  L 65,57  L 65,56  L 67,56  L 67,55  L 72,55  L 72,54  L 74,54  L 74,53  L 78,53  L 78,52  L 79,52  L 79,51  L 81,51  L 81,50  L 83,50  L 83,49  L 84,49  L 84,47  L 85,47  L 85,45  L 86,45  L 86,39  L 87,39  L 87,34  L 86,34  L 86,33  L 87,33  L 87,32  L 86,32  L 86,31  L 87,31  L 87,30  L 86,30  L 86,16  L 85,16  L 85,13  L 86,13  L 86,12  L 85,12  L 85,6  L 86,6  L 86,5  L 85,5  L 85,2  L 84,2  L 84,1  L 83,1  L 83,0  L 79,0  L 79,1  L 78,1  L 78,4  L 77,4  L 77,5  L 78,5  L 78,13  L 79,13  L 79,14  L 78,14  L 78,15  L 79,15  L 79,25  L 77,25  L 77,26  L 74,26  L 74,25  L 73,25  L 73,26  L 66,26  L 66,25  L 65,25  L 65,26  L 62,26  L 62,25  L 61,25  L 61,26  L 58,26  L 58,25  L 57,25  L 57,26  L 34,26  L 34,24  L 33,24  L 33,22  L 34,22  L 34,19  L 33,19  Z  M 74,33  L 74,34  L 80,34  L 80,41  L 79,41  L 79,44  L 78,44  L 78,45  L 77,45  L 77,46  L 74,46  L 74,47  L 70,47  L 70,48  L 67,48  L 67,49  L 63,49  L 63,50  L 60,50  L 60,51  L 54,51  L 54,52  L 51,52  L 51,53  L 50,53  L 50,52  L 49,52  L 49,53  L 35,53  L 35,52  L 34,52  L 34,49  L 33,49  L 33,44  L 32,44  L 32,43  L 33,43  L 33,41  L 32,41  L 32,38  L 33,38  L 33,36  L 35,36  L 35,35  L 40,35  L 40,34  L 41,34  L 41,35  L 44,35  L 44,34  L 45,34  L 45,35  L 46,35  L 46,34  L 47,34  L 47,35  L 48,35  L 48,34  L 49,34  L 49,35  L 50,35  L 50,34  L 55,34  L 55,33  Z  " style="fill:rgb(0, 0, 0); fill-opacity:1.000; stroke:none;" />
</svg>
