<?xml version="1.0" encoding="UTF-8" standalone="no"?>
<!DOCTYPE svg PUBLIC "-//W3C//DTD SVG 1.1//EN" 
  "http://www.w3.org/Graphics/SVG/1.1/DTD/svg11.dtd">
<svg width="105" height="201"
     xmlns="http://www.w3.org/2000/svg" version="1.1">
 <path d="  M 92,72  L 92,73  L 89,73  L 89,72  L 88,72  L 88,73  L 85,73  L 85,72  L 84,72  L 84,73  L 80,73  L 80,74  L 74,74  L 74,75  L 73,75  L 73,74  L 72,74  L 72,75  L 71,75  L 71,74  L 70,74  L 70,75  L 67,75  L 67,74  L 66,74  L 66,75  L 61,75  L 61,76  L 60,76  L 60,75  L 57,75  L 57,76  L 55,76  L 55,75  L 54,75  L 54,76  L 47,76  L 47,77  L 41,77  L 41,78  L 39,78  L 39,77  L 37,77  L 37,78  L 32,78  L 32,79  L 31,79  L 31,78  L 28,78  L 28,79  L 20,79  L 20,80  L 19,80  L 19,79  L 18,79  L 18,80  L 2,80  L 2,81  L 1,81  L 1,82  L 0,82  L 0,83  L 1,83  L 1,85  L 2,85  L 2,86  L 3,86  L 3,87  L 7,87  L 7,88  L 9,88  L 9,87  L 20,87  L 20,86  L 28,86  L 28,85  L 29,85  L 29,86  L 30,86  L 30,85  L 38,85  L 38,84  L 45,84  L 45,83  L 51,83  L 51,82  L 52,82  L 52,83  L 53,83  L 53,85  L 54,85  L 54,87  L 53,87  L 53,89  L 54,89  L 54,91  L 53,91  L 53,93  L 54,93  L 54,96  L 53,96  L 53,97  L 54,97  L 54,112  L 55,112  L 55,113  L 54,113  L 54,114  L 55,114  L 55,115  L 54,115  L 54,116  L 55,116  L 55,124  L 56,124  L 56,126  L 57,126  L 57,127  L 59,127  L 59,124  L 60,124  L 60,123  L 59,123  L 59,122  L 60,122  L 60,119  L 61,119  L 61,113  L 62,113  L 62,110  L 61,110  L 61,109  L 62,109  L 62,92  L 61,92  L 61,91  L 62,91  L 62,90  L 61,90  L 61,84  L 62,84  L 62,82  L 63,82  L 63,81  L 82,81  L 82,80  L 83,80  L 83,81  L 84,81  L 84,80  L 100,80  L 100,79  L 104,79  L 104,78  L 105,78  L 105,71  L 103,71  L 103,70  L 102,70  L 102,71  L 95,71  L 95,72  Z  " style="fill:rgb(0, 0, 0); fill-opacity:1.000; stroke:none;" />
 <path d="  M 21,175  L 22,175  L 22,176  L 21,176  L 21,177  L 22,177  L 22,184  L 23,184  L 23,187  L 24,187  L 24,191  L 25,191  L 25,192  L 26,192  L 26,193  L 27,193  L 27,194  L 28,194  L 28,195  L 29,195  L 29,196  L 30,196  L 30,197  L 32,197  L 32,199  L 34,199  L 34,201  L 43,201  L 43,200  L 45,200  L 45,199  L 46,199  L 46,198  L 47,198  L 47,199  L 48,199  L 48,198  L 54,198  L 54,197  L 57,197  L 57,196  L 60,196  L 60,195  L 63,195  L 63,194  L 66,194  L 66,193  L 69,193  L 69,192  L 72,192  L 72,191  L 74,191  L 74,190  L 77,190  L 77,189  L 79,189  L 79,188  L 81,188  L 81,187  L 83,187  L 83,186  L 84,186  L 84,185  L 88,185  L 88,184  L 89,184  L 89,183  L 91,183  L 91,181  L 92,181  L 92,180  L 93,180  L 93,179  L 94,179  L 94,177  L 93,177  L 93,168  L 92,168  L 92,153  L 93,153  L 93,152  L 92,152  L 92,151  L 93,151  L 93,145  L 94,145  L 94,140  L 95,140  L 95,136  L 94,136  L 94,130  L 93,130  L 93,122  L 92,122  L 92,121  L 93,121  L 93,120  L 92,120  L 92,112  L 91,112  L 91,110  L 90,110  L 90,109  L 89,109  L 89,107  L 87,107  L 87,106  L 86,106  L 86,105  L 85,105  L 85,107  L 84,107  L 84,115  L 85,115  L 85,128  L 86,128  L 86,134  L 87,134  L 87,135  L 88,135  L 88,137  L 89,137  L 89,140  L 88,140  L 88,142  L 81,142  L 81,143  L 78,143  L 78,144  L 73,144  L 73,145  L 70,145  L 70,146  L 55,146  L 55,147  L 54,147  L 54,146  L 53,146  L 53,147  L 52,147  L 52,146  L 51,146  L 51,147  L 50,147  L 50,146  L 39,146  L 39,145  L 36,145  L 36,144  L 32,144  L 32,143  L 31,143  L 31,142  L 30,142  L 30,141  L 27,141  L 27,138  L 26,138  L 26,136  L 27,136  L 27,134  L 28,134  L 28,130  L 29,130  L 29,127  L 30,127  L 30,126  L 29,126  L 29,125  L 30,125  L 30,121  L 31,121  L 31,117  L 32,117  L 32,116  L 31,116  L 31,115  L 28,115  L 28,116  L 26,116  L 26,118  L 25,118  L 25,120  L 24,120  L 24,123  L 23,123  L 23,130  L 22,130  L 22,136  L 21,136  Z  M 73,152  L 77,152  L 77,151  L 79,151  L 79,150  L 83,150  L 83,151  L 84,151  L 84,161  L 85,161  L 85,164  L 84,164  L 84,165  L 85,165  L 85,168  L 86,168  L 86,171  L 87,171  L 87,176  L 86,176  L 86,177  L 85,177  L 85,178  L 81,178  L 81,179  L 80,179  L 80,180  L 78,180  L 78,181  L 75,181  L 75,182  L 72,182  L 72,183  L 68,183  L 68,184  L 67,184  L 67,185  L 63,185  L 63,186  L 53,186  L 53,187  L 52,187  L 52,188  L 51,188  L 51,187  L 49,187  L 49,188  L 47,188  L 47,187  L 46,187  L 46,186  L 45,186  L 45,187  L 42,187  L 42,186  L 38,186  L 38,185  L 34,185  L 34,184  L 33,184  L 33,183  L 32,183  L 32,182  L 31,182  L 31,181  L 30,181  L 30,178  L 29,178  L 29,176  L 28,176  L 28,175  L 29,175  L 29,174  L 28,174  L 28,149  L 29,149  L 29,147  L 30,147  L 30,148  L 31,148  L 31,149  L 33,149  L 33,150  L 34,150  L 34,151  L 36,151  L 36,152  L 39,152  L 39,153  L 42,153  L 42,154  L 49,154  L 49,155  L 50,155  L 50,154  L 52,154  L 52,155  L 54,155  L 54,154  L 55,154  L 55,155  L 56,155  L 56,154  L 57,154  L 57,155  L 58,155  L 58,154  L 61,154  L 61,155  L 62,155  L 62,154  L 65,154  L 65,155  L 66,155  L 66,154  L 70,154  L 70,153  L 73,153  Z  " style="fill:rgb(0, 0, 0); fill-opacity:1.000; stroke:none;" />
 <path d="  M 66,30  L 66,29  L 65,29  L 65,30  L 63,30  L 63,29  L 61,29  L 61,30  L 60,30  L 60,29  L 57,29  L 57,30  L 39,30  L 39,31  L 36,31  L 36,30  L 35,30  L 35,29  L 34,29  L 34,28  L 35,28  L 35,27  L 34,27  L 34,3  L 33,3  L 33,2  L 32,2  L 32,1  L 31,1  L 31,0  L 29,0  L 29,1  L 27,1  L 27,4  L 26,4  L 26,10  L 27,10  L 27,11  L 26,11  L 26,12  L 27,12  L 27,15  L 26,15  L 26,16  L 27,16  L 27,23  L 26,23  L 26,24  L 27,24  L 27,27  L 26,27  L 26,28  L 27,28  L 27,49  L 28,49  L 28,57  L 29,57  L 29,59  L 30,59  L 30,61  L 31,61  L 31,62  L 32,62  L 32,64  L 33,64  L 33,65  L 34,65  L 34,66  L 37,66  L 37,65  L 38,65  L 38,66  L 44,66  L 44,65  L 50,65  L 50,64  L 51,64  L 51,65  L 52,65  L 52,64  L 54,64  L 54,63  L 55,63  L 55,64  L 56,64  L 56,63  L 59,63  L 59,62  L 62,62  L 62,61  L 66,61  L 66,60  L 70,60  L 70,59  L 73,59  L 73,58  L 77,58  L 77,57  L 80,57  L 80,56  L 81,56  L 81,55  L 84,55  L 84,54  L 85,54  L 85,53  L 86,53  L 86,52  L 87,52  L 87,50  L 88,50  L 88,44  L 89,44  L 89,32  L 90,32  L 90,11  L 91,11  L 91,10  L 90,10  L 90,7  L 91,7  L 91,6  L 90,6  L 90,4  L 89,4  L 89,2  L 88,2  L 88,0  L 84,0  L 84,1  L 83,1  L 83,12  L 84,12  L 84,29  L 83,29  L 83,30  L 74,30  L 74,29  L 73,29  L 73,30  Z  M 40,58  L 40,57  L 39,57  L 39,58  L 38,58  L 38,57  L 36,57  L 36,56  L 35,56  L 35,49  L 36,49  L 36,45  L 35,45  L 35,43  L 36,43  L 36,42  L 37,42  L 37,40  L 38,40  L 38,39  L 43,39  L 43,38  L 52,38  L 52,37  L 62,37  L 62,36  L 71,36  L 71,37  L 78,37  L 78,38  L 82,38  L 82,39  L 83,39  L 83,42  L 82,42  L 82,47  L 81,47  L 81,48  L 80,48  L 80,49  L 78,49  L 78,50  L 76,50  L 76,51  L 73,51  L 73,52  L 72,52  L 72,51  L 70,51  L 70,52  L 68,52  L 68,53  L 64,53  L 64,54  L 62,54  L 62,55  L 57,55  L 57,56  L 52,56  L 52,57  L 48,57  L 48,58  Z  " style="fill:rgb(0, 0, 0); fill-opacity:1.000; stroke:none;" />
</svg>
