<?xml version="1.0" encoding="UTF-8" standalone="no"?>
<!DOCTYPE svg PUBLIC "-//W3C//DTD SVG 1.1//EN" 
  "http://www.w3.org/Graphics/SVG/1.1/DTD/svg11.dtd">
<svg width="107" height="183"
     xmlns="http://www.w3.org/2000/svg" version="1.1">
 <path d="  M 33,122  L 33,123  L 32,123  L 32,122  L 26,122  L 26,123  L 17,123  L 17,124  L 16,124  L 16,125  L 15,125  L 15,129  L 16,129  L 16,130  L 21,130  L 21,129  L 22,129  L 22,130  L 23,130  L 23,129  L 24,129  L 24,130  L 25,130  L 25,129  L 26,129  L 26,130  L 33,130  L 33,131  L 34,131  L 34,140  L 33,140  L 33,155  L 32,155  L 32,162  L 31,162  L 31,164  L 32,164  L 32,165  L 33,165  L 33,166  L 34,166  L 34,165  L 36,165  L 36,164  L 37,164  L 37,163  L 38,163  L 38,159  L 39,159  L 39,150  L 40,150  L 40,134  L 41,134  L 41,132  L 42,132  L 42,131  L 44,131  L 44,130  L 49,130  L 49,129  L 50,129  L 50,130  L 51,130  L 51,129  L 52,129  L 52,130  L 53,130  L 53,129  L 56,129  L 56,130  L 57,130  L 57,129  L 60,129  L 60,130  L 61,130  L 61,129  L 64,129  L 64,130  L 65,130  L 65,129  L 66,129  L 66,130  L 67,130  L 67,129  L 68,129  L 68,130  L 69,130  L 69,129  L 72,129  L 72,140  L 73,140  L 73,141  L 72,141  L 72,142  L 73,142  L 73,145  L 72,145  L 72,146  L 73,146  L 73,149  L 72,149  L 72,150  L 73,150  L 73,151  L 72,151  L 72,152  L 73,152  L 73,155  L 72,155  L 72,156  L 73,156  L 73,157  L 72,157  L 72,158  L 73,158  L 73,159  L 74,159  L 74,161  L 75,161  L 75,162  L 78,162  L 78,160  L 79,160  L 79,146  L 80,146  L 80,145  L 79,145  L 79,127  L 80,127  L 80,126  L 85,126  L 85,125  L 88,125  L 88,126  L 89,126  L 89,125  L 90,125  L 90,124  L 92,124  L 92,123  L 93,123  L 93,119  L 92,119  L 92,117  L 90,117  L 90,116  L 88,116  L 88,117  L 77,117  L 77,118  L 72,118  L 72,119  L 68,119  L 68,120  L 66,120  L 66,119  L 65,119  L 65,120  L 60,120  L 60,116  L 59,116  L 59,81  L 60,81  L 60,80  L 74,80  L 74,79  L 75,79  L 75,80  L 76,80  L 76,79  L 81,79  L 81,78  L 82,78  L 82,79  L 84,79  L 84,78  L 87,78  L 87,79  L 88,79  L 88,78  L 94,78  L 94,77  L 95,77  L 95,78  L 96,78  L 96,77  L 97,77  L 97,78  L 98,78  L 98,77  L 101,77  L 101,76  L 103,76  L 103,75  L 104,75  L 104,74  L 105,74  L 105,71  L 104,71  L 104,69  L 103,69  L 103,68  L 97,68  L 97,69  L 94,69  L 94,70  L 88,70  L 88,71  L 78,71  L 78,72  L 73,72  L 73,73  L 65,73  L 65,74  L 49,74  L 49,75  L 46,75  L 46,74  L 45,74  L 45,75  L 41,75  L 41,76  L 39,76  L 39,75  L 38,75  L 38,76  L 34,76  L 34,77  L 25,77  L 25,78  L 22,78  L 22,79  L 18,79  L 18,80  L 2,80  L 2,82  L 1,82  L 1,83  L 0,83  L 0,86  L 2,86  L 2,87  L 3,87  L 3,88  L 13,88  L 13,87  L 20,87  L 20,86  L 24,86  L 24,85  L 25,85  L 25,86  L 26,86  L 26,85  L 28,85  L 28,84  L 34,84  L 34,83  L 39,83  L 39,82  L 45,82  L 45,81  L 51,81  L 51,84  L 52,84  L 52,88  L 51,88  L 51,89  L 52,89  L 52,95  L 51,95  L 51,96  L 52,96  L 52,99  L 51,99  L 51,100  L 52,100  L 52,103  L 51,103  L 51,104  L 52,104  L 52,107  L 51,107  L 51,108  L 52,108  L 52,121  L 47,121  L 47,122  L 46,122  L 46,121  L 45,121  L 45,122  L 42,122  L 42,121  L 41,121  L 41,122  Z  " style="fill:rgb(0, 0, 0); fill-opacity:1.000; stroke:none;" />
 <path d="  M 70,181  L 70,180  L 74,180  L 74,179  L 80,179  L 80,178  L 84,178  L 84,177  L 86,177  L 86,176  L 90,176  L 90,175  L 91,175  L 91,174  L 93,174  L 93,173  L 95,173  L 95,172  L 97,172  L 97,171  L 99,171  L 99,170  L 105,170  L 105,169  L 107,169  L 107,163  L 104,163  L 104,162  L 103,162  L 103,163  L 97,163  L 97,164  L 94,164  L 94,165  L 92,165  L 92,166  L 90,166  L 90,167  L 87,167  L 87,168  L 86,168  L 86,167  L 85,167  L 85,168  L 84,168  L 84,169  L 80,169  L 80,170  L 77,170  L 77,171  L 73,171  L 73,172  L 70,172  L 70,173  L 63,173  L 63,174  L 62,174  L 62,173  L 61,173  L 61,174  L 54,174  L 54,175  L 37,175  L 37,174  L 33,174  L 33,173  L 30,173  L 30,171  L 29,171  L 29,172  L 27,172  L 27,173  L 25,173  L 25,174  L 24,174  L 24,176  L 23,176  L 23,178  L 24,178  L 24,182  L 26,182  L 26,183  L 52,183  L 52,182  L 62,182  L 62,181  L 64,181  L 64,182  L 65,182  L 65,181  Z  " style="fill:rgb(0, 0, 0); fill-opacity:1.000; stroke:none;" />
 <path d="  M 25,29  L 24,29  L 24,30  L 25,30  L 25,31  L 24,31  L 24,46  L 25,46  L 25,54  L 26,54  L 26,57  L 27,57  L 27,59  L 28,59  L 28,60  L 30,60  L 30,61  L 31,61  L 31,62  L 33,62  L 33,63  L 48,63  L 48,62  L 52,62  L 52,61  L 57,61  L 57,60  L 60,60  L 60,59  L 63,59  L 63,58  L 66,58  L 66,57  L 70,57  L 70,56  L 72,56  L 72,55  L 75,55  L 75,54  L 78,54  L 78,53  L 79,53  L 79,52  L 81,52  L 81,51  L 83,51  L 83,50  L 84,50  L 84,47  L 85,47  L 85,43  L 86,43  L 86,5  L 85,5  L 85,4  L 84,4  L 84,3  L 80,3  L 80,4  L 79,4  L 79,10  L 80,10  L 80,25  L 79,25  L 79,27  L 78,27  L 78,28  L 75,28  L 75,27  L 74,27  L 74,28  L 73,28  L 73,27  L 72,27  L 72,28  L 71,28  L 71,27  L 70,27  L 70,28  L 67,28  L 67,27  L 65,27  L 65,28  L 63,28  L 63,27  L 61,27  L 61,28  L 59,28  L 59,27  L 57,27  L 57,28  L 55,28  L 55,27  L 54,27  L 54,28  L 33,28  L 33,25  L 32,25  L 32,24  L 33,24  L 33,21  L 32,21  L 32,20  L 33,20  L 33,17  L 32,17  L 32,16  L 33,16  L 33,13  L 32,13  L 32,12  L 33,12  L 33,9  L 32,9  L 32,8  L 33,8  L 33,2  L 32,2  L 32,1  L 30,1  L 30,0  L 27,0  L 27,1  L 25,1  Z  M 69,35  L 75,35  L 75,36  L 76,36  L 76,35  L 77,35  L 77,36  L 79,36  L 79,37  L 80,37  L 80,42  L 79,42  L 79,45  L 78,45  L 78,46  L 77,46  L 77,47  L 74,47  L 74,48  L 70,48  L 70,49  L 68,49  L 68,50  L 65,50  L 65,51  L 62,51  L 62,52  L 58,52  L 58,53  L 55,53  L 55,54  L 49,54  L 49,55  L 39,55  L 39,56  L 38,56  L 38,55  L 37,55  L 37,56  L 36,56  L 36,55  L 33,55  L 33,46  L 32,46  L 32,41  L 31,41  L 31,40  L 32,40  L 32,39  L 33,39  L 33,38  L 34,38  L 34,37  L 38,37  L 38,36  L 55,36  L 55,35  L 63,35  L 63,34  L 66,34  L 66,35  L 67,35  L 67,34  L 69,34  Z  " style="fill:rgb(0, 0, 0); fill-opacity:1.000; stroke:none;" />
</svg>
