<?xml version="1.0" encoding="UTF-8" standalone="no"?>
<!DOCTYPE svg PUBLIC "-//W3C//DTD SVG 1.1//EN" 
  "http://www.w3.org/Graphics/SVG/1.1/DTD/svg11.dtd">
<svg width="104" height="177"
     xmlns="http://www.w3.org/2000/svg" version="1.1">
 <path d="  M 50,67  L 49,67  L 49,66  L 46,66  L 46,67  L 28,67  L 28,68  L 27,68  L 27,67  L 24,67  L 24,68  L 14,68  L 14,69  L 9,69  L 9,70  L 7,70  L 7,71  L 4,71  L 4,72  L 2,72  L 2,73  L 1,73  L 1,74  L 0,74  L 0,78  L 1,78  L 1,80  L 3,80  L 3,79  L 6,79  L 6,78  L 8,78  L 8,77  L 13,77  L 13,76  L 17,76  L 17,75  L 28,75  L 28,76  L 29,76  L 29,75  L 34,75  L 34,76  L 35,76  L 35,80  L 34,80  L 34,102  L 35,102  L 35,109  L 36,109  L 36,113  L 37,113  L 37,114  L 36,114  L 36,115  L 37,115  L 37,116  L 38,116  L 38,117  L 41,117  L 41,120  L 40,120  L 40,121  L 39,121  L 39,123  L 38,123  L 38,124  L 37,124  L 37,125  L 41,125  L 41,126  L 47,126  L 47,127  L 48,127  L 48,126  L 54,126  L 54,125  L 57,125  L 57,124  L 67,124  L 67,123  L 68,123  L 68,124  L 76,124  L 76,125  L 77,125  L 77,126  L 79,126  L 79,127  L 80,127  L 80,128  L 82,128  L 82,129  L 83,129  L 83,131  L 82,131  L 82,132  L 81,132  L 81,133  L 79,133  L 79,134  L 77,134  L 77,135  L 76,135  L 76,136  L 75,136  L 75,137  L 74,137  L 74,138  L 71,138  L 71,139  L 70,139  L 70,140  L 67,140  L 67,141  L 64,141  L 64,142  L 62,142  L 62,143  L 58,143  L 58,144  L 55,144  L 55,145  L 52,145  L 52,146  L 51,146  L 51,145  L 50,145  L 50,146  L 46,146  L 46,147  L 44,147  L 44,148  L 41,148  L 41,149  L 40,149  L 40,150  L 39,150  L 39,151  L 38,151  L 38,152  L 36,152  L 36,153  L 34,153  L 34,154  L 33,154  L 33,156  L 32,156  L 32,157  L 31,157  L 31,159  L 32,159  L 32,161  L 31,161  L 31,163  L 32,163  L 32,165  L 33,165  L 33,166  L 34,166  L 34,169  L 35,169  L 35,171  L 36,171  L 36,172  L 37,172  L 37,173  L 40,173  L 40,174  L 41,174  L 41,175  L 44,175  L 44,176  L 49,176  L 49,177  L 50,177  L 50,176  L 51,176  L 51,177  L 66,177  L 66,176  L 71,176  L 71,175  L 74,175  L 74,174  L 79,174  L 79,173  L 82,173  L 82,172  L 84,172  L 84,171  L 86,171  L 86,170  L 90,170  L 90,169  L 93,169  L 93,168  L 95,168  L 95,167  L 97,167  L 97,166  L 100,166  L 100,165  L 102,165  L 102,164  L 103,164  L 103,163  L 104,163  L 104,157  L 100,157  L 100,158  L 98,158  L 98,159  L 96,159  L 96,160  L 94,160  L 94,161  L 92,161  L 92,162  L 90,162  L 90,163  L 88,163  L 88,164  L 85,164  L 85,165  L 81,165  L 81,166  L 78,166  L 78,167  L 73,167  L 73,168  L 71,168  L 71,169  L 70,169  L 70,168  L 69,168  L 69,169  L 65,169  L 65,170  L 63,170  L 63,169  L 62,169  L 62,170  L 59,170  L 59,169  L 58,169  L 58,170  L 55,170  L 55,169  L 46,169  L 46,168  L 43,168  L 43,167  L 41,167  L 41,166  L 40,166  L 40,165  L 39,165  L 39,164  L 40,164  L 40,162  L 39,162  L 39,159  L 40,159  L 40,157  L 41,157  L 41,155  L 44,155  L 44,154  L 48,154  L 48,153  L 51,153  L 51,152  L 55,152  L 55,151  L 61,151  L 61,150  L 64,150  L 64,149  L 67,149  L 67,148  L 70,148  L 70,147  L 73,147  L 73,146  L 75,146  L 75,145  L 77,145  L 77,144  L 78,144  L 78,143  L 80,143  L 80,142  L 81,142  L 81,141  L 82,141  L 82,140  L 83,140  L 83,139  L 85,139  L 85,138  L 87,138  L 87,137  L 88,137  L 88,136  L 90,136  L 90,135  L 91,135  L 91,133  L 92,133  L 92,132  L 93,132  L 93,128  L 92,128  L 92,127  L 91,127  L 91,125  L 90,125  L 90,123  L 89,123  L 89,121  L 88,121  L 88,120  L 87,120  L 87,119  L 85,119  L 85,118  L 83,118  L 83,117  L 79,117  L 79,116  L 75,116  L 75,115  L 73,115  L 73,116  L 72,116  L 72,115  L 69,115  L 69,116  L 59,116  L 59,117  L 58,117  L 58,116  L 57,116  L 57,117  L 49,117  L 49,118  L 48,118  L 48,117  L 42,117  L 42,116  L 44,116  L 44,114  L 45,114  L 45,111  L 44,111  L 44,108  L 43,108  L 43,103  L 42,103  L 42,75  L 44,75  L 44,74  L 45,74  L 45,75  L 53,75  L 53,74  L 64,74  L 64,73  L 69,73  L 69,72  L 71,72  L 71,71  L 75,71  L 75,70  L 79,70  L 79,69  L 81,69  L 81,68  L 82,68  L 82,67  L 84,67  L 84,66  L 85,66  L 85,64  L 84,64  L 84,63  L 83,63  L 83,62  L 82,62  L 82,61  L 77,61  L 77,62  L 74,62  L 74,63  L 73,63  L 73,64  L 70,64  L 70,65  L 62,65  L 62,66  L 50,66  Z  " style="fill:rgb(0, 0, 0); fill-opacity:1.000; stroke:none;" />
 <path d="  M 14,3  L 14,4  L 12,4  L 12,5  L 11,5  L 11,7  L 12,7  L 12,26  L 11,26  L 11,45  L 12,45  L 12,48  L 13,48  L 13,50  L 14,50  L 14,52  L 15,52  L 15,53  L 17,53  L 17,54  L 19,54  L 19,55  L 22,55  L 22,56  L 26,56  L 26,57  L 29,57  L 29,56  L 30,56  L 30,57  L 37,57  L 37,56  L 47,56  L 47,55  L 48,55  L 48,56  L 49,56  L 49,55  L 55,55  L 55,54  L 56,54  L 56,55  L 58,55  L 58,54  L 60,54  L 60,53  L 63,53  L 63,52  L 65,52  L 65,51  L 66,51  L 66,50  L 67,50  L 67,49  L 68,49  L 68,48  L 69,48  L 69,46  L 70,46  L 70,41  L 71,41  L 71,32  L 72,32  L 72,23  L 73,23  L 73,5  L 72,5  L 72,1  L 71,1  L 71,0  L 68,0  L 68,1  L 66,1  L 66,13  L 65,13  L 65,14  L 66,14  L 66,17  L 65,17  L 65,19  L 64,19  L 64,20  L 65,20  L 65,22  L 64,22  L 64,23  L 52,23  L 52,24  L 37,24  L 37,23  L 36,23  L 36,24  L 35,24  L 35,23  L 34,23  L 34,24  L 33,24  L 33,23  L 27,23  L 27,22  L 21,22  L 21,17  L 20,17  L 20,14  L 21,14  L 21,13  L 20,13  L 20,10  L 21,10  L 21,9  L 20,9  L 20,4  L 18,4  L 18,3  Z  M 63,38  L 64,38  L 64,39  L 63,39  L 63,41  L 62,41  L 62,44  L 61,44  L 61,45  L 60,45  L 60,46  L 56,46  L 56,47  L 51,47  L 51,48  L 46,48  L 46,49  L 38,49  L 38,50  L 35,50  L 35,49  L 34,49  L 34,50  L 23,50  L 23,49  L 20,49  L 20,47  L 19,47  L 19,35  L 20,35  L 20,32  L 21,32  L 21,31  L 23,31  L 23,32  L 25,32  L 25,31  L 28,31  L 28,32  L 29,32  L 29,31  L 32,31  L 32,32  L 33,32  L 33,31  L 34,31  L 34,32  L 45,32  L 45,31  L 46,31  L 46,32  L 49,32  L 49,31  L 50,31  L 50,32  L 52,32  L 52,31  L 54,31  L 54,32  L 57,32  L 57,31  L 63,31  L 63,32  L 64,32  L 64,37  L 63,37  Z  " style="fill:rgb(0, 0, 0); fill-opacity:1.000; stroke:none;" />
 <path d="  M 68,83  L 68,82  L 64,82  L 64,83  L 58,83  L 58,84  L 55,84  L 55,85  L 54,85  L 54,88  L 55,88  L 55,89  L 58,89  L 58,90  L 63,90  L 63,91  L 69,91  L 69,92  L 71,92  L 71,93  L 74,93  L 74,94  L 79,94  L 79,93  L 80,93  L 80,92  L 82,92  L 82,91  L 81,91  L 81,87  L 80,87  L 80,82  L 78,82  L 78,81  L 77,81  L 77,82  L 71,82  L 71,83  Z  " style="fill:rgb(0, 0, 0); fill-opacity:1.000; stroke:none;" />
 <path d="  M 81,82  L 81,81  L 80,81  L 80,82  Z  " style="fill:rgb(0, 0, 0); fill-opacity:1.000; stroke:none;" />
 <path d="  M 94,23  L 95,23  L 95,25  L 94,25  L 94,26  L 95,26  L 95,81  L 94,81  L 94,82  L 95,82  L 95,84  L 94,84  L 94,105  L 93,105  L 93,108  L 94,108  L 94,109  L 93,109  L 93,110  L 94,110  L 94,111  L 99,111  L 99,110  L 101,110  L 101,109  L 102,109  L 102,52  L 103,52  L 103,51  L 102,51  L 102,48  L 103,48  L 103,47  L 102,47  L 102,44  L 103,44  L 103,43  L 102,43  L 102,19  L 101,19  L 101,18  L 102,18  L 102,17  L 101,17  L 101,14  L 102,14  L 102,13  L 101,13  L 101,12  L 100,12  L 100,10  L 98,10  L 98,9  L 95,9  L 95,13  L 94,13  Z  " style="fill:rgb(0, 0, 0); fill-opacity:1.000; stroke:none;" />
</svg>
