<?xml version="1.0" encoding="UTF-8" standalone="no"?>
<!DOCTYPE svg PUBLIC "-//W3C//DTD SVG 1.1//EN" 
  "http://www.w3.org/Graphics/SVG/1.1/DTD/svg11.dtd">
<svg width="103" height="128"
     xmlns="http://www.w3.org/2000/svg" version="1.1">
 <path d="  M 31,81  L 31,80  L 40,80  L 40,79  L 47,79  L 47,78  L 52,78  L 52,77  L 60,77  L 60,76  L 61,76  L 61,77  L 62,77  L 62,76  L 68,76  L 68,75  L 75,75  L 75,74  L 78,74  L 78,73  L 81,73  L 81,72  L 86,72  L 86,71  L 90,71  L 90,67  L 89,67  L 89,66  L 88,66  L 88,65  L 81,65  L 81,66  L 79,66  L 79,67  L 77,67  L 77,68  L 76,68  L 76,67  L 75,67  L 75,68  L 72,68  L 72,69  L 69,69  L 69,70  L 63,70  L 63,71  L 51,71  L 51,72  L 41,72  L 41,73  L 34,73  L 34,74  L 26,74  L 26,75  L 20,75  L 20,76  L 14,76  L 14,77  L 11,77  L 11,78  L 7,78  L 7,79  L 3,79  L 3,80  L 1,80  L 1,83  L 0,83  L 0,85  L 1,85  L 1,86  L 2,86  L 2,87  L 3,87  L 3,86  L 8,86  L 8,85  L 12,85  L 12,84  L 16,84  L 16,83  L 22,83  L 22,82  L 27,82  L 27,81  Z  " style="fill:rgb(0, 0, 0); fill-opacity:1.000; stroke:none;" />
 <path d="  M 39,60  L 39,59  L 44,59  L 44,58  L 48,58  L 48,57  L 53,57  L 53,56  L 59,56  L 59,55  L 62,55  L 62,54  L 63,54  L 63,48  L 64,48  L 64,47  L 63,47  L 63,45  L 64,45  L 64,36  L 65,36  L 65,20  L 66,20  L 66,19  L 65,19  L 65,17  L 66,17  L 66,9  L 67,9  L 67,6  L 66,6  L 66,5  L 65,5  L 65,4  L 62,4  L 62,5  L 60,5  L 60,7  L 59,7  L 59,21  L 58,21  L 58,22  L 59,22  L 59,23  L 58,23  L 58,24  L 59,24  L 59,25  L 58,25  L 58,26  L 56,26  L 56,27  L 55,27  L 55,26  L 54,26  L 54,27  L 43,27  L 43,28  L 42,28  L 42,27  L 41,27  L 41,28  L 40,28  L 40,27  L 39,27  L 39,28  L 35,28  L 35,29  L 25,29  L 25,30  L 24,30  L 24,29  L 22,29  L 22,30  L 13,30  L 13,29  L 14,29  L 14,27  L 13,27  L 13,26  L 14,26  L 14,14  L 15,14  L 15,13  L 14,13  L 14,12  L 15,12  L 15,8  L 16,8  L 16,5  L 13,5  L 13,4  L 12,4  L 12,5  L 10,5  L 10,6  L 8,6  L 8,7  L 7,7  L 7,21  L 6,21  L 6,24  L 7,24  L 7,25  L 6,25  L 6,28  L 7,28  L 7,29  L 6,29  L 6,32  L 7,32  L 7,33  L 6,33  L 6,34  L 7,34  L 7,35  L 6,35  L 6,36  L 7,36  L 7,37  L 6,37  L 6,38  L 7,38  L 7,39  L 6,39  L 6,40  L 7,40  L 7,41  L 6,41  L 6,42  L 7,42  L 7,43  L 6,43  L 6,44  L 7,44  L 7,45  L 6,45  L 6,46  L 7,46  L 7,52  L 8,52  L 8,56  L 9,56  L 9,58  L 10,58  L 10,59  L 11,59  L 11,60  L 14,60  L 14,61  L 17,61  L 17,62  L 20,62  L 20,61  L 30,61  L 30,60  Z  M 47,51  L 47,52  L 42,52  L 42,53  L 35,53  L 35,54  L 30,54  L 30,55  L 16,55  L 16,54  L 15,54  L 15,53  L 14,53  L 14,49  L 13,49  L 13,48  L 14,48  L 14,47  L 13,47  L 13,39  L 14,39  L 14,38  L 15,38  L 15,37  L 20,37  L 20,36  L 29,36  L 29,35  L 30,35  L 30,36  L 31,36  L 31,35  L 38,35  L 38,34  L 46,34  L 46,33  L 55,33  L 55,32  L 57,32  L 57,33  L 58,33  L 58,39  L 57,39  L 57,40  L 58,40  L 58,41  L 57,41  L 57,47  L 56,47  L 56,50  L 52,50  L 52,51  Z  " style="fill:rgb(0, 0, 0); fill-opacity:1.000; stroke:none;" />
 <path d="  M 38,125  L 37,125  L 37,126  L 38,126  L 38,127  L 39,127  L 39,128  L 43,128  L 43,127  L 44,127  L 44,126  L 45,126  L 45,124  L 46,124  L 46,120  L 47,120  L 47,116  L 48,116  L 48,112  L 49,112  L 49,108  L 50,108  L 50,104  L 51,104  L 51,101  L 52,101  L 52,92  L 51,92  L 51,91  L 50,91  L 50,90  L 49,90  L 49,89  L 48,89  L 48,87  L 46,87  L 46,86  L 45,86  L 45,87  L 43,87  L 43,92  L 44,92  L 44,97  L 45,97  L 45,98  L 44,98  L 44,102  L 43,102  L 43,106  L 42,106  L 42,109  L 41,109  L 41,113  L 40,113  L 40,117  L 39,117  L 39,119  L 38,119  Z  " style="fill:rgb(0, 0, 0); fill-opacity:1.000; stroke:none;" />
 <path d="  M 94,21  L 95,21  L 95,22  L 94,22  L 94,24  L 95,24  L 95,31  L 96,31  L 96,61  L 97,61  L 97,126  L 98,126  L 98,127  L 100,127  L 100,128  L 101,128  L 101,127  L 102,127  L 102,126  L 103,126  L 103,33  L 102,33  L 102,23  L 101,23  L 101,17  L 100,17  L 100,12  L 99,12  L 99,4  L 98,4  L 98,1  L 97,1  L 97,0  L 93,0  L 93,1  L 92,1  L 92,2  L 91,2  L 91,4  L 92,4  L 92,10  L 93,10  L 93,16  L 94,16  Z  " style="fill:rgb(0, 0, 0); fill-opacity:1.000; stroke:none;" />
</svg>
