<?xml version="1.0" encoding="UTF-8" standalone="no"?>
<!DOCTYPE svg PUBLIC "-//W3C//DTD SVG 1.1//EN" 
  "http://www.w3.org/Graphics/SVG/1.1/DTD/svg11.dtd">
<svg width="103" height="170"
     xmlns="http://www.w3.org/2000/svg" version="1.1">
 <path d="  M 72,58  L 69,58  L 69,59  L 66,59  L 66,60  L 61,60  L 61,61  L 56,61  L 56,62  L 51,62  L 51,63  L 45,63  L 45,64  L 39,64  L 39,65  L 34,65  L 34,66  L 30,66  L 30,67  L 25,67  L 25,68  L 24,68  L 24,67  L 23,67  L 23,68  L 20,68  L 20,69  L 15,69  L 15,70  L 9,70  L 9,71  L 3,71  L 3,72  L 1,72  L 1,74  L 0,74  L 0,77  L 1,77  L 1,78  L 2,78  L 2,79  L 3,79  L 3,78  L 9,78  L 9,77  L 13,77  L 13,76  L 18,76  L 18,75  L 22,75  L 22,74  L 26,74  L 26,73  L 32,73  L 32,72  L 36,72  L 36,71  L 38,71  L 38,72  L 39,72  L 39,73  L 38,73  L 38,89  L 37,89  L 37,90  L 38,90  L 38,93  L 37,93  L 37,101  L 36,101  L 36,102  L 37,102  L 37,103  L 36,103  L 36,104  L 37,104  L 37,105  L 36,105  L 36,106  L 38,106  L 38,108  L 39,108  L 39,107  L 43,107  L 43,104  L 44,104  L 44,88  L 45,88  L 45,85  L 44,85  L 44,84  L 45,84  L 45,81  L 44,81  L 44,80  L 45,80  L 45,70  L 47,70  L 47,69  L 54,69  L 54,68  L 60,68  L 60,67  L 65,67  L 65,66  L 70,66  L 70,65  L 71,65  L 71,66  L 72,66  L 72,65  L 75,65  L 75,64  L 82,64  L 82,63  L 84,63  L 84,62  L 85,62  L 85,59  L 84,59  L 84,58  L 83,58  L 83,57  L 82,57  L 82,56  L 80,56  L 80,55  L 77,55  L 77,56  L 74,56  L 74,57  L 72,57  Z  " style="fill:rgb(0, 0, 0); fill-opacity:1.000; stroke:none;" />
 <path d="  M 14,3  L 14,4  L 15,4  L 15,5  L 14,5  L 14,6  L 15,6  L 15,7  L 14,7  L 14,13  L 13,13  L 13,18  L 12,18  L 12,27  L 11,27  L 11,28  L 12,28  L 12,29  L 11,29  L 11,42  L 12,42  L 12,46  L 13,46  L 13,47  L 14,47  L 14,48  L 15,48  L 15,49  L 17,49  L 17,50  L 18,50  L 18,51  L 21,51  L 21,52  L 24,52  L 24,53  L 44,53  L 44,52  L 45,52  L 45,53  L 46,53  L 46,52  L 51,52  L 51,51  L 52,51  L 52,50  L 54,50  L 54,49  L 55,49  L 55,48  L 57,48  L 57,47  L 59,47  L 59,46  L 60,46  L 60,45  L 61,45  L 61,44  L 62,44  L 62,41  L 63,41  L 63,35  L 64,35  L 64,18  L 63,18  L 63,9  L 62,9  L 62,6  L 63,6  L 63,5  L 62,5  L 62,2  L 61,2  L 61,1  L 56,1  L 56,2  L 55,2  L 55,16  L 56,16  L 56,19  L 55,19  L 55,20  L 32,20  L 32,19  L 31,19  L 31,20  L 22,20  L 22,19  L 21,19  L 21,13  L 22,13  L 22,6  L 23,6  L 23,2  L 22,2  L 22,1  L 20,1  L 20,0  L 17,0  L 17,1  L 16,1  L 16,2  L 15,2  L 15,3  Z  M 53,43  L 51,43  L 51,44  L 49,44  L 49,45  L 42,45  L 42,46  L 22,46  L 22,45  L 20,45  L 20,43  L 19,43  L 19,30  L 20,30  L 20,29  L 22,29  L 22,28  L 53,28  L 53,27  L 56,27  L 56,28  L 57,28  L 57,31  L 56,31  L 56,34  L 55,34  L 55,39  L 54,39  L 54,41  L 53,41  Z  " style="fill:rgb(0, 0, 0); fill-opacity:1.000; stroke:none;" />
 <path d="  M 93,165  L 92,165  L 92,168  L 93,168  L 93,170  L 98,170  L 98,169  L 99,169  L 99,168  L 100,168  L 100,160  L 101,160  L 101,156  L 102,156  L 102,155  L 101,155  L 101,153  L 102,153  L 102,142  L 103,142  L 103,141  L 102,141  L 102,140  L 103,140  L 103,127  L 102,127  L 102,124  L 101,124  L 101,122  L 100,122  L 100,121  L 99,121  L 99,120  L 97,120  L 97,119  L 95,119  L 95,118  L 90,118  L 90,117  L 82,117  L 82,116  L 79,116  L 79,117  L 78,117  L 78,116  L 76,116  L 76,117  L 74,117  L 74,116  L 73,116  L 73,117  L 63,117  L 63,118  L 54,118  L 54,119  L 53,119  L 53,118  L 52,118  L 52,119  L 45,119  L 45,120  L 44,120  L 44,119  L 43,119  L 43,120  L 39,120  L 39,121  L 33,121  L 33,122  L 32,122  L 32,121  L 31,121  L 31,122  L 30,122  L 30,123  L 29,123  L 29,126  L 30,126  L 30,128  L 34,128  L 34,129  L 36,129  L 36,128  L 43,128  L 43,127  L 48,127  L 48,126  L 60,126  L 60,125  L 68,125  L 68,124  L 69,124  L 69,125  L 70,125  L 70,124  L 71,124  L 71,125  L 72,125  L 72,124  L 88,124  L 88,125  L 91,125  L 91,126  L 94,126  L 94,127  L 96,127  L 96,130  L 97,130  L 97,131  L 96,131  L 96,143  L 95,143  L 95,151  L 94,151  L 94,160  L 93,160  Z  " style="fill:rgb(0, 0, 0); fill-opacity:1.000; stroke:none;" />
 <path d="  M 94,24  L 95,24  L 95,33  L 96,33  L 96,44  L 97,44  L 97,109  L 98,109  L 98,110  L 102,110  L 102,109  L 103,109  L 103,39  L 102,39  L 102,38  L 103,38  L 103,37  L 102,37  L 102,27  L 101,27  L 101,19  L 100,19  L 100,18  L 101,18  L 101,17  L 100,17  L 100,12  L 99,12  L 99,6  L 98,6  L 98,3  L 95,3  L 95,2  L 93,2  L 93,3  L 92,3  L 92,12  L 93,12  L 93,18  L 94,18  Z  " style="fill:rgb(0, 0, 0); fill-opacity:1.000; stroke:none;" />
</svg>
