<?xml version="1.0" encoding="UTF-8" standalone="no"?>
<!DOCTYPE svg PUBLIC "-//W3C//DTD SVG 1.1//EN" 
  "http://www.w3.org/Graphics/SVG/1.1/DTD/svg11.dtd">
<svg width="104" height="178"
     xmlns="http://www.w3.org/2000/svg" version="1.1">
 <path d="  M 38,72  L 28,72  L 28,73  L 21,73  L 21,74  L 17,74  L 17,75  L 12,75  L 12,76  L 8,76  L 8,77  L 5,77  L 5,78  L 4,78  L 4,79  L 2,79  L 2,81  L 0,81  L 0,83  L 1,83  L 1,84  L 2,84  L 2,85  L 3,85  L 3,86  L 5,86  L 5,85  L 8,85  L 8,84  L 10,84  L 10,83  L 13,83  L 13,82  L 17,82  L 17,81  L 21,81  L 21,80  L 31,80  L 31,79  L 32,79  L 32,80  L 33,80  L 33,79  L 34,79  L 34,80  L 35,80  L 35,79  L 36,79  L 36,80  L 37,80  L 37,79  L 41,79  L 41,80  L 42,80  L 42,81  L 41,81  L 41,100  L 42,100  L 42,106  L 43,106  L 43,107  L 42,107  L 42,108  L 43,108  L 43,110  L 49,110  L 49,101  L 48,101  L 48,93  L 47,93  L 47,80  L 48,80  L 48,79  L 50,79  L 50,78  L 54,78  L 54,77  L 64,77  L 64,76  L 70,76  L 70,75  L 74,75  L 74,74  L 75,74  L 75,75  L 76,75  L 76,74  L 79,74  L 79,73  L 80,73  L 80,74  L 81,74  L 81,73  L 83,73  L 83,72  L 84,72  L 84,71  L 85,71  L 85,67  L 84,67  L 84,66  L 77,66  L 77,67  L 73,67  L 73,68  L 67,68  L 67,69  L 59,69  L 59,70  L 52,70  L 52,71  L 38,71  Z  " style="fill:rgb(0, 0, 0); fill-opacity:1.000; stroke:none;" />
 <path d="  M 68,53  L 68,52  L 69,52  L 69,51  L 70,51  L 70,49  L 71,49  L 71,48  L 72,48  L 72,44  L 73,44  L 73,37  L 74,37  L 74,28  L 75,28  L 75,27  L 74,27  L 74,26  L 75,26  L 75,16  L 76,16  L 76,15  L 75,15  L 75,12  L 76,12  L 76,11  L 75,11  L 75,3  L 74,3  L 74,1  L 69,1  L 69,3  L 68,3  L 68,17  L 67,17  L 67,18  L 68,18  L 68,19  L 67,19  L 67,23  L 60,23  L 60,24  L 54,24  L 54,25  L 28,25  L 28,24  L 25,24  L 25,3  L 24,3  L 24,2  L 20,2  L 20,3  L 18,3  L 18,5  L 17,5  L 17,23  L 16,23  L 16,24  L 17,24  L 17,25  L 16,25  L 16,51  L 17,51  L 17,53  L 18,53  L 18,54  L 19,54  L 19,55  L 20,55  L 20,56  L 22,56  L 22,57  L 23,57  L 23,58  L 25,58  L 25,59  L 28,59  L 28,60  L 29,60  L 29,59  L 32,59  L 32,60  L 33,60  L 33,59  L 36,59  L 36,60  L 37,60  L 37,59  L 45,59  L 45,58  L 52,58  L 52,57  L 56,57  L 56,56  L 59,56  L 59,55  L 63,55  L 63,54  L 66,54  L 66,53  Z  M 65,33  L 65,42  L 64,42  L 64,45  L 62,45  L 62,46  L 60,46  L 60,47  L 57,47  L 57,48  L 52,48  L 52,49  L 46,49  L 46,50  L 40,50  L 40,51  L 25,51  L 25,50  L 24,50  L 24,36  L 25,36  L 25,34  L 26,34  L 26,35  L 28,35  L 28,34  L 46,34  L 46,33  L 47,33  L 47,34  L 48,34  L 48,33  L 58,33  L 58,32  L 60,32  L 60,33  L 61,33  L 61,32  L 63,32  L 63,31  L 65,31  L 65,32  L 66,32  L 66,33  Z  " style="fill:rgb(0, 0, 0); fill-opacity:1.000; stroke:none;" />
 <path d="  M 70,178  L 70,177  L 74,177  L 74,176  L 75,176  L 75,177  L 76,177  L 76,176  L 81,176  L 81,175  L 84,175  L 84,174  L 86,174  L 86,173  L 89,173  L 89,172  L 91,172  L 91,171  L 93,171  L 93,170  L 96,170  L 96,169  L 97,169  L 97,168  L 99,168  L 99,167  L 101,167  L 101,166  L 102,166  L 102,164  L 103,164  L 103,163  L 102,163  L 102,161  L 101,161  L 101,160  L 97,160  L 97,161  L 95,161  L 95,162  L 93,162  L 93,163  L 89,163  L 89,165  L 86,165  L 86,166  L 84,166  L 84,167  L 80,167  L 80,168  L 78,168  L 78,169  L 73,169  L 73,170  L 70,170  L 70,171  L 69,171  L 69,170  L 68,170  L 68,171  L 53,171  L 53,170  L 50,170  L 50,169  L 44,169  L 44,168  L 43,168  L 43,167  L 41,167  L 41,166  L 40,166  L 40,165  L 39,165  L 39,163  L 38,163  L 38,162  L 39,162  L 39,161  L 38,161  L 38,155  L 39,155  L 39,153  L 40,153  L 40,152  L 41,152  L 41,151  L 44,151  L 44,150  L 52,150  L 52,149  L 60,149  L 60,148  L 65,148  L 65,147  L 66,147  L 66,146  L 67,146  L 67,147  L 68,147  L 68,146  L 71,146  L 71,145  L 74,145  L 74,144  L 77,144  L 77,143  L 79,143  L 79,142  L 80,142  L 80,141  L 81,141  L 81,140  L 82,140  L 82,138  L 84,138  L 84,137  L 85,137  L 85,136  L 86,136  L 86,135  L 87,135  L 87,134  L 88,134  L 88,133  L 89,133  L 89,131  L 90,131  L 90,130  L 91,130  L 91,126  L 90,126  L 90,122  L 89,122  L 89,120  L 88,120  L 88,119  L 85,119  L 85,118  L 83,118  L 83,117  L 81,117  L 81,116  L 78,116  L 78,115  L 45,115  L 45,116  L 37,116  L 37,117  L 33,117  L 33,119  L 32,119  L 32,121  L 33,121  L 33,122  L 34,122  L 34,123  L 37,123  L 37,124  L 40,124  L 40,123  L 48,123  L 48,122  L 49,122  L 49,123  L 60,123  L 60,122  L 61,122  L 61,123  L 73,123  L 73,124  L 78,124  L 78,125  L 80,125  L 80,126  L 82,126  L 82,129  L 81,129  L 81,131  L 80,131  L 80,132  L 79,132  L 79,133  L 78,133  L 78,135  L 77,135  L 77,136  L 75,136  L 75,137  L 72,137  L 72,138  L 70,138  L 70,139  L 65,139  L 65,140  L 62,140  L 62,141  L 56,141  L 56,142  L 52,142  L 52,143  L 47,143  L 47,144  L 36,144  L 36,145  L 35,145  L 35,146  L 32,146  L 32,148  L 31,148  L 31,151  L 30,151  L 30,152  L 31,152  L 31,163  L 32,163  L 32,165  L 33,165  L 33,166  L 32,166  L 32,167  L 33,167  L 33,168  L 34,168  L 34,169  L 35,169  L 35,171  L 36,171  L 36,172  L 38,172  L 38,173  L 39,173  L 39,174  L 40,174  L 40,175  L 44,175  L 44,176  L 46,176  L 46,177  L 48,177  L 48,178  L 50,178  L 50,177  L 51,177  L 51,178  Z  " style="fill:rgb(0, 0, 0); fill-opacity:1.000; stroke:none;" />
 <path d="  M 98,106  L 98,107  L 99,107  L 99,108  L 100,108  L 100,107  L 103,107  L 103,106  L 104,106  L 104,23  L 103,23  L 103,22  L 104,22  L 104,19  L 103,19  L 103,16  L 104,16  L 104,15  L 103,15  L 103,7  L 102,7  L 102,6  L 103,6  L 103,5  L 102,5  L 102,4  L 101,4  L 101,3  L 100,3  L 100,2  L 99,2  L 99,3  L 96,3  L 96,5  L 95,5  L 95,6  L 96,6  L 96,13  L 95,13  L 95,14  L 96,14  L 96,24  L 97,24  L 97,27  L 96,27  L 96,28  L 97,28  L 97,49  L 98,49  L 98,51  L 97,51  L 97,53  L 98,53  L 98,55  L 97,55  L 97,56  L 98,56  L 98,59  L 97,59  L 97,60  L 98,60  L 98,105  L 97,105  L 97,106  Z  " style="fill:rgb(0, 0, 0); fill-opacity:1.000; stroke:none;" />
</svg>
