<?xml version="1.0" encoding="UTF-8" standalone="no"?>
<!DOCTYPE svg PUBLIC "-//W3C//DTD SVG 1.1//EN" 
  "http://www.w3.org/Graphics/SVG/1.1/DTD/svg11.dtd">
<svg width="104" height="189"
     xmlns="http://www.w3.org/2000/svg" version="1.1">
 <path d="  M 99,76  L 100,76  L 100,75  L 103,75  L 103,74  L 104,74  L 104,68  L 103,68  L 103,67  L 98,67  L 98,66  L 97,66  L 97,67  L 95,67  L 95,68  L 90,68  L 90,69  L 81,69  L 81,70  L 71,70  L 71,71  L 70,71  L 70,70  L 69,70  L 69,71  L 68,71  L 68,70  L 67,70  L 67,71  L 58,71  L 58,72  L 41,72  L 41,73  L 40,73  L 40,72  L 39,72  L 39,73  L 38,73  L 38,72  L 37,72  L 37,73  L 29,73  L 29,74  L 25,74  L 25,75  L 24,75  L 24,74  L 23,74  L 23,75  L 22,75  L 22,76  L 16,76  L 16,77  L 5,77  L 5,76  L 4,76  L 4,77  L 2,77  L 2,78  L 1,78  L 1,81  L 0,81  L 0,83  L 1,83  L 1,84  L 2,84  L 2,85  L 9,85  L 9,84  L 10,84  L 10,85  L 11,85  L 11,84  L 13,84  L 13,83  L 20,83  L 20,82  L 25,82  L 25,81  L 26,81  L 26,82  L 28,82  L 28,81  L 32,81  L 32,80  L 36,80  L 36,79  L 37,79  L 37,80  L 40,80  L 40,101  L 41,101  L 41,102  L 40,102  L 40,114  L 39,114  L 39,118  L 38,118  L 38,121  L 39,121  L 39,122  L 41,122  L 41,121  L 44,121  L 44,119  L 45,119  L 45,118  L 46,118  L 46,114  L 47,114  L 47,108  L 48,108  L 48,106  L 47,106  L 47,105  L 48,105  L 48,102  L 47,102  L 47,101  L 48,101  L 48,98  L 47,98  L 47,97  L 48,97  L 48,90  L 47,90  L 47,89  L 48,89  L 48,86  L 47,86  L 47,85  L 48,85  L 48,79  L 55,79  L 55,78  L 56,78  L 56,79  L 59,79  L 59,78  L 67,78  L 67,79  L 68,79  L 68,80  L 69,80  L 69,83  L 68,83  L 68,85  L 69,85  L 69,86  L 68,86  L 68,88  L 69,88  L 69,90  L 68,90  L 68,92  L 69,92  L 69,94  L 68,94  L 68,95  L 69,95  L 69,98  L 68,98  L 68,99  L 69,99  L 69,111  L 70,111  L 70,118  L 71,118  L 71,121  L 72,121  L 72,123  L 48,123  L 48,124  L 38,124  L 38,125  L 37,125  L 37,124  L 36,124  L 36,125  L 35,125  L 35,124  L 33,124  L 33,125  L 29,125  L 29,126  L 27,126  L 27,125  L 26,125  L 26,126  L 25,126  L 25,125  L 24,125  L 24,126  L 23,126  L 23,125  L 22,125  L 22,126  L 20,126  L 20,128  L 21,128  L 21,129  L 23,129  L 23,130  L 24,130  L 24,131  L 25,131  L 25,151  L 24,151  L 24,152  L 25,152  L 25,153  L 24,153  L 24,154  L 25,154  L 25,155  L 24,155  L 24,157  L 25,157  L 25,159  L 24,159  L 24,183  L 25,183  L 25,186  L 26,186  L 26,187  L 27,187  L 27,188  L 29,188  L 29,189  L 48,189  L 48,188  L 53,188  L 53,187  L 55,187  L 55,186  L 59,186  L 59,185  L 64,185  L 64,184  L 68,184  L 68,183  L 71,183  L 71,182  L 75,182  L 75,181  L 80,181  L 80,180  L 82,180  L 82,179  L 85,179  L 85,178  L 87,178  L 87,177  L 89,177  L 89,176  L 90,176  L 90,175  L 91,175  L 91,172  L 92,172  L 92,163  L 91,163  L 91,147  L 92,147  L 92,137  L 93,137  L 93,136  L 92,136  L 92,133  L 93,133  L 93,132  L 92,132  L 92,127  L 91,127  L 91,124  L 90,124  L 90,122  L 89,122  L 89,121  L 83,121  L 83,122  L 80,122  L 80,119  L 79,119  L 79,118  L 78,118  L 78,114  L 77,114  L 77,108  L 76,108  L 76,92  L 75,92  L 75,91  L 76,91  L 76,90  L 75,90  L 75,89  L 76,89  L 76,88  L 75,88  L 75,87  L 76,87  L 76,82  L 75,82  L 75,80  L 76,80  L 76,78  L 83,78  L 83,77  L 90,77  L 90,76  L 97,76  L 97,75  L 99,75  Z  M 83,147  L 83,159  L 84,159  L 84,162  L 85,162  L 85,164  L 86,164  L 86,168  L 85,168  L 85,170  L 84,170  L 84,171  L 82,171  L 82,172  L 80,172  L 80,173  L 77,173  L 77,174  L 73,174  L 73,175  L 71,175  L 71,174  L 70,174  L 70,175  L 69,175  L 69,176  L 65,176  L 65,177  L 60,177  L 60,178  L 56,178  L 56,179  L 55,179  L 55,178  L 54,178  L 54,179  L 53,179  L 53,180  L 52,180  L 52,179  L 51,179  L 51,180  L 44,180  L 44,181  L 42,181  L 42,180  L 39,180  L 39,179  L 36,179  L 36,178  L 34,178  L 34,177  L 33,177  L 33,176  L 32,176  L 32,174  L 31,174  L 31,163  L 32,163  L 32,162  L 31,162  L 31,160  L 32,160  L 32,158  L 31,158  L 31,157  L 32,157  L 32,154  L 31,154  L 31,153  L 32,153  L 32,134  L 33,134  L 33,133  L 39,133  L 39,132  L 42,132  L 42,131  L 51,131  L 51,130  L 52,130  L 52,131  L 53,131  L 53,130  L 67,130  L 67,129  L 68,129  L 68,130  L 71,130  L 71,129  L 73,129  L 73,130  L 74,130  L 74,129  L 77,129  L 77,130  L 78,130  L 78,129  L 84,129  L 84,130  L 85,130  L 85,138  L 84,138  L 84,139  L 85,139  L 85,140  L 84,140  L 84,147  Z  " style="fill:rgb(0, 0, 0); fill-opacity:1.000; stroke:none;" />
 <path d="  M 62,33  L 63,33  L 63,32  L 68,32  L 68,33  L 75,33  L 75,34  L 78,34  L 78,36  L 77,36  L 77,41  L 76,41  L 76,44  L 75,44  L 75,47  L 71,47  L 71,48  L 69,48  L 69,49  L 68,49  L 68,50  L 67,50  L 67,49  L 66,49  L 66,50  L 65,50  L 65,51  L 63,51  L 63,52  L 59,52  L 59,53  L 55,53  L 55,54  L 52,54  L 52,55  L 46,55  L 46,56  L 36,56  L 36,53  L 35,53  L 35,44  L 34,44  L 34,37  L 35,37  L 35,36  L 36,36  L 36,35  L 38,35  L 38,34  L 52,34  L 52,33  L 61,33  L 61,32  L 62,32  Z  M 77,22  L 78,22  L 78,24  L 77,24  L 77,25  L 70,25  L 70,26  L 68,26  L 68,25  L 54,25  L 54,26  L 53,26  L 53,25  L 50,25  L 50,26  L 36,26  L 36,25  L 35,25  L 35,2  L 33,2  L 33,1  L 31,1  L 31,0  L 29,0  L 29,1  L 28,1  L 28,3  L 27,3  L 27,8  L 28,8  L 28,9  L 27,9  L 27,36  L 26,36  L 26,37  L 27,37  L 27,40  L 26,40  L 26,41  L 27,41  L 27,44  L 26,44  L 26,45  L 27,45  L 27,51  L 28,51  L 28,55  L 29,55  L 29,57  L 30,57  L 30,59  L 31,59  L 31,60  L 32,60  L 32,61  L 34,61  L 34,62  L 35,62  L 35,63  L 47,63  L 47,62  L 53,62  L 53,61  L 56,61  L 56,60  L 62,60  L 62,59  L 64,59  L 64,58  L 66,58  L 66,57  L 69,57  L 69,56  L 71,56  L 71,55  L 73,55  L 73,54  L 75,54  L 75,53  L 76,53  L 76,52  L 77,52  L 77,51  L 79,51  L 79,50  L 80,50  L 80,49  L 81,49  L 81,48  L 82,48  L 82,46  L 83,46  L 83,42  L 84,42  L 84,25  L 83,25  L 83,24  L 84,24  L 84,22  L 83,22  L 83,9  L 84,9  L 84,8  L 83,8  L 83,7  L 84,7  L 84,6  L 83,6  L 83,4  L 82,4  L 82,3  L 81,3  L 81,2  L 78,2  L 78,4  L 77,4  Z  " style="fill:rgb(0, 0, 0); fill-opacity:1.000; stroke:none;" />
</svg>
