<?xml version="1.0" encoding="UTF-8" standalone="no"?>
<!DOCTYPE svg PUBLIC "-//W3C//DTD SVG 1.1//EN" 
  "http://www.w3.org/Graphics/SVG/1.1/DTD/svg11.dtd">
<svg width="107" height="174"
     xmlns="http://www.w3.org/2000/svg" version="1.1">
 <path d="  M 35,113  L 36,113  L 36,114  L 41,114  L 41,113  L 42,113  L 42,108  L 43,108  L 43,98  L 42,98  L 42,97  L 43,97  L 43,96  L 42,96  L 42,95  L 43,95  L 43,94  L 42,94  L 42,91  L 43,91  L 43,90  L 42,90  L 42,82  L 45,82  L 45,81  L 48,81  L 48,82  L 49,82  L 49,81  L 56,81  L 56,80  L 64,80  L 64,79  L 65,79  L 65,80  L 66,80  L 66,82  L 67,82  L 67,83  L 66,83  L 66,99  L 67,99  L 67,100  L 66,100  L 66,103  L 67,103  L 67,109  L 68,109  L 68,110  L 67,110  L 67,111  L 68,111  L 68,114  L 69,114  L 69,117  L 70,117  L 70,120  L 71,120  L 71,121  L 72,121  L 72,122  L 75,122  L 75,121  L 76,121  L 76,119  L 77,119  L 77,118  L 76,118  L 76,112  L 75,112  L 75,108  L 74,108  L 74,98  L 73,98  L 73,96  L 74,96  L 74,94  L 73,94  L 73,93  L 74,93  L 74,90  L 73,90  L 73,89  L 74,89  L 74,80  L 75,80  L 75,79  L 79,79  L 79,80  L 80,80  L 80,79  L 88,79  L 88,78  L 94,78  L 94,77  L 95,77  L 95,76  L 96,76  L 96,75  L 97,75  L 97,74  L 98,74  L 98,72  L 99,72  L 99,70  L 98,70  L 98,69  L 97,69  L 97,68  L 94,68  L 94,69  L 92,69  L 92,70  L 88,70  L 88,71  L 78,71  L 78,72  L 76,72  L 76,71  L 75,71  L 75,72  L 67,72  L 67,73  L 65,73  L 65,72  L 64,72  L 64,73  L 61,73  L 61,72  L 60,72  L 60,73  L 58,73  L 58,74  L 57,74  L 57,73  L 56,73  L 56,74  L 53,74  L 53,73  L 52,73  L 52,74  L 45,74  L 45,75  L 44,75  L 44,74  L 43,74  L 43,75  L 32,75  L 32,76  L 25,76  L 25,77  L 19,77  L 19,78  L 15,78  L 15,79  L 12,79  L 12,80  L 6,80  L 6,81  L 1,81  L 1,82  L 0,82  L 0,84  L 1,84  L 1,87  L 9,87  L 9,86  L 14,86  L 14,85  L 19,85  L 19,84  L 26,84  L 26,83  L 28,83  L 28,84  L 29,84  L 29,83  L 34,83  L 34,84  L 35,84  Z  " style="fill:rgb(0, 0, 0); fill-opacity:1.000; stroke:none;" />
 <path d="  M 38,138  L 37,138  L 37,139  L 36,139  L 36,140  L 35,140  L 35,142  L 34,142  L 34,143  L 33,143  L 33,145  L 32,145  L 32,146  L 31,146  L 31,148  L 30,148  L 30,149  L 29,149  L 29,150  L 28,150  L 28,151  L 27,151  L 27,152  L 26,152  L 26,153  L 25,153  L 25,156  L 23,156  L 23,157  L 22,157  L 22,158  L 21,158  L 21,160  L 20,160  L 20,161  L 19,161  L 19,162  L 18,162  L 18,163  L 17,163  L 17,165  L 16,165  L 16,166  L 15,166  L 15,167  L 14,167  L 14,174  L 19,174  L 19,173  L 21,173  L 21,172  L 22,172  L 22,170  L 24,170  L 24,169  L 25,169  L 25,167  L 26,167  L 26,166  L 27,166  L 27,165  L 28,165  L 28,164  L 29,164  L 29,163  L 30,163  L 30,161  L 32,161  L 32,159  L 34,159  L 34,157  L 35,157  L 35,156  L 36,156  L 36,155  L 37,155  L 37,154  L 38,154  L 38,153  L 39,153  L 39,152  L 40,152  L 40,150  L 41,150  L 41,149  L 43,149  L 43,148  L 44,148  L 44,146  L 45,146  L 45,145  L 46,145  L 46,143  L 47,143  L 47,142  L 48,142  L 48,141  L 51,141  L 51,143  L 53,143  L 53,144  L 54,144  L 54,145  L 55,145  L 55,146  L 57,146  L 57,147  L 59,147  L 59,148  L 61,148  L 61,149  L 63,149  L 63,150  L 65,150  L 65,151  L 67,151  L 67,152  L 69,152  L 69,153  L 70,153  L 70,154  L 72,154  L 72,155  L 75,155  L 75,156  L 78,156  L 78,157  L 80,157  L 80,158  L 83,158  L 83,159  L 87,159  L 87,160  L 90,160  L 90,161  L 92,161  L 92,162  L 94,162  L 94,163  L 95,163  L 95,165  L 96,165  L 96,168  L 101,168  L 101,167  L 102,167  L 102,166  L 104,166  L 104,165  L 106,165  L 106,164  L 107,164  L 107,159  L 106,159  L 106,158  L 105,158  L 105,159  L 104,159  L 104,158  L 101,158  L 101,159  L 100,159  L 100,158  L 96,158  L 96,157  L 94,157  L 94,156  L 92,156  L 92,155  L 91,155  L 91,154  L 88,154  L 88,153  L 86,153  L 86,152  L 83,152  L 83,151  L 80,151  L 80,150  L 79,150  L 79,149  L 76,149  L 76,148  L 75,148  L 75,147  L 73,147  L 73,146  L 71,146  L 71,145  L 70,145  L 70,144  L 67,144  L 67,143  L 66,143  L 66,142  L 65,142  L 65,141  L 63,141  L 63,140  L 62,140  L 62,139  L 61,139  L 61,138  L 59,138  L 59,137  L 58,137  L 58,136  L 56,136  L 56,135  L 55,135  L 55,134  L 53,134  L 53,132  L 52,132  L 52,131  L 53,131  L 53,129  L 54,129  L 54,127  L 55,127  L 55,124  L 54,124  L 54,123  L 53,123  L 53,122  L 51,122  L 51,124  L 49,124  L 49,125  L 48,125  L 48,126  L 47,126  L 47,127  L 46,127  L 46,128  L 45,128  L 45,130  L 43,130  L 43,133  L 42,133  L 42,134  L 41,134  L 41,135  L 40,135  L 40,136  L 39,136  L 39,137  L 38,137  Z  " style="fill:rgb(0, 0, 0); fill-opacity:1.000; stroke:none;" />
 <path d="  M 78,35  L 78,36  L 79,36  L 79,37  L 78,37  L 78,44  L 77,44  L 77,45  L 76,45  L 76,46  L 74,46  L 74,47  L 73,47  L 73,48  L 72,48  L 72,49  L 69,49  L 69,50  L 67,50  L 67,51  L 65,51  L 65,52  L 63,52  L 63,53  L 60,53  L 60,54  L 57,54  L 57,55  L 56,55  L 56,54  L 55,54  L 55,55  L 51,55  L 51,56  L 39,56  L 39,57  L 37,57  L 37,56  L 30,56  L 30,55  L 29,55  L 29,53  L 28,53  L 28,42  L 27,42  L 27,41  L 28,41  L 28,40  L 27,40  L 27,39  L 28,39  L 28,38  L 29,38  L 29,37  L 46,37  L 46,36  L 47,36  L 47,37  L 48,37  L 48,36  L 49,36  L 49,37  L 50,37  L 50,36  L 54,36  L 54,35  L 57,35  L 57,36  L 58,36  L 58,35  Z  M 64,59  L 66,59  L 66,58  L 67,58  L 67,57  L 69,57  L 69,56  L 71,56  L 71,55  L 73,55  L 73,54  L 75,54  L 75,53  L 77,53  L 77,52  L 78,52  L 78,51  L 80,51  L 80,50  L 81,50  L 81,49  L 82,49  L 82,48  L 83,48  L 83,44  L 84,44  L 84,43  L 85,43  L 85,36  L 86,36  L 86,25  L 87,25  L 87,24  L 86,24  L 86,23  L 87,23  L 87,22  L 86,22  L 86,21  L 87,21  L 87,18  L 86,18  L 86,17  L 87,17  L 87,16  L 86,16  L 86,15  L 87,15  L 87,14  L 86,14  L 86,13  L 87,13  L 87,12  L 86,12  L 86,11  L 87,11  L 87,2  L 86,2  L 86,1  L 84,1  L 84,0  L 81,0  L 81,1  L 80,1  L 80,2  L 79,2  L 79,5  L 80,5  L 80,13  L 81,13  L 81,24  L 80,24  L 80,26  L 79,26  L 79,27  L 75,27  L 75,28  L 73,28  L 73,27  L 71,27  L 71,28  L 70,28  L 70,27  L 67,27  L 67,28  L 66,28  L 66,27  L 63,27  L 63,28  L 50,28  L 50,29  L 30,29  L 30,27  L 29,27  L 29,23  L 30,23  L 30,3  L 29,3  L 29,2  L 26,2  L 26,1  L 25,1  L 25,2  L 23,2  L 23,25  L 22,25  L 22,27  L 23,27  L 23,28  L 22,28  L 22,34  L 21,34  L 21,49  L 22,49  L 22,56  L 23,56  L 23,57  L 24,57  L 24,60  L 26,60  L 26,61  L 28,61  L 28,62  L 30,62  L 30,63  L 33,63  L 33,64  L 38,64  L 38,63  L 48,63  L 48,62  L 56,62  L 56,61  L 61,61  L 61,60  L 64,60  Z  " style="fill:rgb(0, 0, 0); fill-opacity:1.000; stroke:none;" />
</svg>
