<?xml version="1.0" encoding="UTF-8" standalone="no"?>
<!DOCTYPE svg PUBLIC "-//W3C//DTD SVG 1.1//EN" 
  "http://www.w3.org/Graphics/SVG/1.1/DTD/svg11.dtd">
<svg width="103" height="105"
     xmlns="http://www.w3.org/2000/svg" version="1.1">
 <path d="  M 67,102  L 67,101  L 68,101  L 68,102  L 69,102  L 69,101  L 72,101  L 72,102  L 73,102  L 73,101  L 99,101  L 99,100  L 100,100  L 100,101  L 101,101  L 101,100  L 102,100  L 102,99  L 103,99  L 103,93  L 102,93  L 102,92  L 94,92  L 94,93  L 86,93  L 86,94  L 83,94  L 83,93  L 82,93  L 82,94  L 66,94  L 66,95  L 65,95  L 65,94  L 64,94  L 64,95  L 46,95  L 46,96  L 35,96  L 35,97  L 22,97  L 22,98  L 11,98  L 11,99  L 10,99  L 10,98  L 8,98  L 8,99  L 4,99  L 4,100  L 3,100  L 3,103  L 1,103  L 1,105  L 2,105  L 2,104  L 5,104  L 5,105  L 30,105  L 30,104  L 43,104  L 43,103  L 44,103  L 44,104  L 45,104  L 45,103  L 55,103  L 55,102  Z  " style="fill:rgb(0, 0, 0); fill-opacity:1.000; stroke:none;" />
 <path d="  M 78,43  L 79,43  L 79,35  L 80,35  L 80,30  L 79,30  L 79,28  L 80,28  L 80,27  L 79,27  L 79,25  L 80,25  L 80,24  L 79,24  L 79,21  L 80,21  L 80,18  L 79,18  L 79,17  L 80,17  L 80,0  L 76,0  L 76,1  L 75,1  L 75,4  L 74,4  L 74,25  L 73,25  L 73,26  L 68,26  L 68,27  L 56,27  L 56,28  L 55,28  L 55,27  L 52,27  L 52,28  L 51,28  L 51,27  L 50,27  L 50,28  L 47,28  L 47,27  L 46,27  L 46,28  L 43,28  L 43,27  L 42,27  L 42,28  L 39,28  L 39,27  L 38,27  L 38,28  L 35,28  L 35,27  L 34,27  L 34,28  L 31,28  L 31,27  L 30,27  L 30,28  L 29,28  L 29,27  L 28,27  L 28,28  L 27,28  L 27,27  L 25,27  L 25,26  L 24,26  L 24,24  L 23,24  L 23,23  L 24,23  L 24,22  L 23,22  L 23,9  L 24,9  L 24,7  L 23,7  L 23,3  L 21,3  L 21,2  L 20,2  L 20,3  L 18,3  L 18,4  L 16,4  L 16,22  L 17,22  L 17,24  L 16,24  L 16,26  L 17,26  L 17,54  L 18,54  L 18,60  L 19,60  L 19,63  L 20,63  L 20,64  L 21,64  L 21,66  L 23,66  L 23,67  L 25,67  L 25,68  L 27,68  L 27,67  L 28,67  L 28,68  L 41,68  L 41,67  L 49,67  L 49,66  L 58,66  L 58,65  L 63,65  L 63,64  L 67,64  L 67,63  L 72,63  L 72,62  L 74,62  L 74,61  L 75,61  L 75,60  L 76,60  L 76,59  L 77,59  L 77,57  L 78,57  L 78,56  L 77,56  L 77,53  L 78,53  L 78,52  L 77,52  L 77,50  L 78,50  Z  M 43,60  L 43,61  L 42,61  L 42,60  L 40,60  L 40,61  L 27,61  L 27,60  L 26,60  L 26,59  L 25,59  L 25,56  L 24,56  L 24,50  L 23,50  L 23,49  L 24,49  L 24,48  L 23,48  L 23,35  L 24,35  L 24,34  L 31,34  L 31,33  L 32,33  L 32,34  L 35,34  L 35,33  L 37,33  L 37,34  L 38,34  L 38,33  L 41,33  L 41,34  L 42,34  L 42,33  L 45,33  L 45,34  L 46,34  L 46,33  L 61,33  L 61,32  L 73,32  L 73,39  L 72,39  L 72,45  L 71,45  L 71,51  L 70,51  L 70,55  L 69,55  L 69,56  L 67,56  L 67,57  L 62,57  L 62,58  L 58,58  L 58,59  L 51,59  L 51,60  Z  " style="fill:rgb(0, 0, 0); fill-opacity:1.000; stroke:none;" />
</svg>
