<?xml version="1.0" encoding="UTF-8" standalone="no"?>
<!DOCTYPE svg PUBLIC "-//W3C//DTD SVG 1.1//EN" 
  "http://www.w3.org/Graphics/SVG/1.1/DTD/svg11.dtd">
<svg width="110" height="175"
     xmlns="http://www.w3.org/2000/svg" version="1.1">
 <path d="  M 17,89  L 17,90  L 16,90  L 16,89  L 15,89  L 15,90  L 7,90  L 7,91  L 2,91  L 2,93  L 0,93  L 0,95  L 1,95  L 1,96  L 2,96  L 2,97  L 3,97  L 3,98  L 11,98  L 11,97  L 17,97  L 17,96  L 24,96  L 24,95  L 33,95  L 33,94  L 34,94  L 34,95  L 36,95  L 36,94  L 39,94  L 39,95  L 40,95  L 40,94  L 43,94  L 43,95  L 44,95  L 44,94  L 47,94  L 47,95  L 48,95  L 48,94  L 51,94  L 51,95  L 52,95  L 52,94  L 55,94  L 55,95  L 56,95  L 56,94  L 79,94  L 79,95  L 80,95  L 80,94  L 87,94  L 87,95  L 88,95  L 88,94  L 91,94  L 91,95  L 92,95  L 92,94  L 95,94  L 95,92  L 96,92  L 96,90  L 97,90  L 97,86  L 96,86  L 96,85  L 83,85  L 83,86  L 82,86  L 82,85  L 76,85  L 76,86  L 73,86  L 73,85  L 66,85  L 66,86  L 65,86  L 65,85  L 63,85  L 63,86  L 61,86  L 61,85  L 60,85  L 60,86  L 42,86  L 42,87  L 41,87  L 41,86  L 40,86  L 40,87  L 37,87  L 37,86  L 36,86  L 36,87  L 33,87  L 33,88  L 24,88  L 24,89  Z  " style="fill:rgb(0, 0, 0); fill-opacity:1.000; stroke:none;" />
 <path d="  M 46,143  L 46,142  L 48,142  L 48,141  L 49,141  L 49,142  L 51,142  L 51,143  L 53,143  L 53,144  L 55,144  L 55,145  L 57,145  L 57,146  L 59,146  L 59,147  L 60,147  L 60,148  L 62,148  L 62,149  L 64,149  L 64,150  L 65,150  L 65,151  L 67,151  L 67,152  L 70,152  L 70,153  L 72,153  L 72,154  L 75,154  L 75,155  L 77,155  L 77,156  L 79,156  L 79,157  L 82,157  L 82,158  L 86,158  L 86,159  L 89,159  L 89,160  L 92,160  L 92,162  L 94,162  L 94,163  L 95,163  L 95,166  L 94,166  L 94,168  L 92,168  L 92,169  L 93,169  L 93,170  L 94,170  L 94,169  L 96,169  L 96,170  L 98,170  L 98,169  L 100,169  L 100,168  L 102,168  L 102,167  L 103,167  L 103,166  L 106,166  L 106,165  L 107,165  L 107,164  L 109,164  L 109,163  L 110,163  L 110,160  L 109,160  L 109,159  L 99,159  L 99,158  L 97,158  L 97,157  L 95,157  L 95,156  L 93,156  L 93,155  L 92,155  L 92,154  L 89,154  L 89,153  L 87,153  L 87,152  L 84,152  L 84,151  L 82,151  L 82,150  L 80,150  L 80,149  L 78,149  L 78,148  L 76,148  L 76,147  L 74,147  L 74,146  L 72,146  L 72,145  L 71,145  L 71,144  L 68,144  L 68,143  L 67,143  L 67,142  L 65,142  L 65,141  L 63,141  L 63,140  L 62,140  L 62,139  L 61,139  L 61,138  L 60,138  L 60,137  L 57,137  L 57,136  L 56,136  L 56,135  L 55,135  L 55,134  L 54,134  L 54,131  L 55,131  L 55,130  L 56,130  L 56,129  L 58,129  L 58,128  L 59,128  L 59,126  L 60,126  L 60,125  L 61,125  L 61,124  L 62,124  L 62,123  L 63,123  L 63,122  L 65,122  L 65,120  L 66,120  L 66,119  L 67,119  L 67,118  L 68,118  L 68,117  L 69,117  L 69,115  L 71,115  L 71,111  L 72,111  L 72,110  L 71,110  L 71,108  L 70,108  L 70,107  L 68,107  L 68,106  L 67,106  L 67,105  L 66,105  L 66,106  L 65,106  L 65,107  L 64,107  L 64,108  L 63,108  L 63,112  L 61,112  L 61,113  L 60,113  L 60,114  L 59,114  L 59,115  L 58,115  L 58,116  L 57,116  L 57,117  L 56,117  L 56,118  L 55,118  L 55,119  L 53,119  L 53,120  L 51,120  L 51,122  L 50,122  L 50,124  L 49,124  L 49,126  L 48,126  L 48,127  L 47,127  L 47,128  L 46,128  L 46,130  L 44,130  L 44,132  L 42,132  L 42,134  L 41,134  L 41,135  L 39,135  L 39,136  L 38,136  L 38,138  L 37,138  L 37,139  L 36,139  L 36,140  L 35,140  L 35,141  L 34,141  L 34,144  L 32,144  L 32,146  L 31,146  L 31,148  L 29,148  L 29,150  L 28,150  L 28,151  L 27,151  L 27,152  L 26,152  L 26,154  L 25,154  L 25,156  L 24,156  L 24,157  L 23,157  L 23,158  L 22,158  L 22,160  L 21,160  L 21,161  L 20,161  L 20,162  L 19,162  L 19,163  L 18,163  L 18,165  L 16,165  L 16,166  L 15,166  L 15,168  L 14,168  L 14,173  L 15,173  L 15,175  L 19,175  L 19,174  L 20,174  L 20,173  L 21,173  L 21,172  L 22,172  L 22,171  L 23,171  L 23,170  L 24,170  L 24,169  L 25,169  L 25,167  L 27,167  L 27,165  L 28,165  L 28,164  L 29,164  L 29,163  L 30,163  L 30,162  L 31,162  L 31,161  L 32,161  L 32,159  L 33,159  L 33,158  L 34,158  L 34,157  L 35,157  L 35,155  L 36,155  L 36,154  L 37,154  L 37,153  L 38,153  L 38,152  L 39,152  L 39,150  L 40,150  L 40,149  L 41,149  L 41,148  L 43,148  L 43,146  L 44,146  L 44,144  L 45,144  L 45,143  Z  " style="fill:rgb(0, 0, 0); fill-opacity:1.000; stroke:none;" />
 <path d="  M 24,29  L 23,29  L 23,31  L 24,31  L 24,32  L 23,32  L 23,47  L 24,47  L 24,55  L 25,55  L 25,58  L 26,58  L 26,59  L 25,59  L 25,60  L 26,60  L 26,62  L 27,62  L 27,63  L 29,63  L 29,64  L 30,64  L 30,65  L 32,65  L 32,66  L 52,66  L 52,65  L 59,65  L 59,64  L 62,64  L 62,63  L 65,63  L 65,62  L 66,62  L 66,61  L 67,61  L 67,60  L 68,60  L 68,59  L 69,59  L 69,58  L 70,58  L 70,57  L 71,57  L 71,56  L 72,56  L 72,55  L 73,55  L 73,54  L 74,54  L 74,53  L 75,53  L 75,52  L 76,52  L 76,51  L 77,51  L 77,50  L 78,50  L 78,49  L 79,49  L 79,47  L 80,47  L 80,39  L 81,39  L 81,18  L 80,18  L 80,16  L 81,16  L 81,14  L 80,14  L 80,12  L 81,12  L 81,10  L 80,10  L 80,8  L 81,8  L 81,4  L 80,4  L 80,3  L 79,3  L 79,2  L 76,2  L 76,3  L 74,3  L 74,4  L 73,4  L 73,9  L 74,9  L 74,12  L 73,12  L 73,13  L 74,13  L 74,28  L 75,28  L 75,29  L 74,29  L 74,30  L 71,30  L 71,31  L 70,31  L 70,30  L 67,30  L 67,31  L 66,31  L 66,30  L 60,30  L 60,31  L 49,31  L 49,32  L 31,32  L 31,2  L 30,2  L 30,1  L 29,1  L 29,0  L 26,0  L 26,1  L 24,1  Z  M 40,40  L 40,39  L 53,39  L 53,38  L 54,38  L 54,39  L 55,39  L 55,38  L 72,38  L 72,39  L 73,39  L 73,44  L 72,44  L 72,48  L 71,48  L 71,49  L 70,49  L 70,50  L 69,50  L 69,51  L 68,51  L 68,52  L 67,52  L 67,53  L 66,53  L 66,54  L 64,54  L 64,55  L 61,55  L 61,56  L 59,56  L 59,57  L 56,57  L 56,58  L 52,58  L 52,59  L 42,59  L 42,60  L 37,60  L 37,59  L 33,59  L 33,58  L 32,58  L 32,56  L 31,56  L 31,41  L 32,41  L 32,40  Z  " style="fill:rgb(0, 0, 0); fill-opacity:1.000; stroke:none;" />
</svg>
