<?xml version="1.0" encoding="UTF-8" standalone="no"?>
<!DOCTYPE svg PUBLIC "-//W3C//DTD SVG 1.1//EN" 
  "http://www.w3.org/Graphics/SVG/1.1/DTD/svg11.dtd">
<svg width="103" height="127"
     xmlns="http://www.w3.org/2000/svg" version="1.1">
 <path d="  M 4,80  L 4,88  L 5,88  L 5,91  L 6,91  L 6,94  L 7,94  L 7,96  L 9,96  L 9,97  L 10,97  L 10,98  L 11,98  L 11,99  L 19,99  L 19,98  L 21,98  L 21,99  L 23,99  L 23,98  L 27,98  L 27,97  L 32,97  L 32,96  L 36,96  L 36,95  L 40,95  L 40,94  L 43,94  L 43,93  L 46,93  L 46,92  L 50,92  L 50,91  L 53,91  L 53,90  L 55,90  L 55,89  L 56,89  L 56,88  L 58,88  L 58,87  L 60,87  L 60,86  L 61,86  L 61,85  L 62,85  L 62,84  L 63,84  L 63,81  L 64,81  L 64,72  L 65,72  L 65,42  L 64,42  L 64,23  L 65,23  L 65,19  L 64,19  L 64,18  L 57,18  L 57,19  L 56,19  L 56,49  L 55,49  L 55,50  L 53,50  L 53,49  L 50,49  L 50,50  L 45,50  L 45,51  L 38,51  L 38,52  L 37,52  L 37,51  L 36,51  L 36,52  L 33,52  L 33,51  L 32,51  L 32,52  L 30,52  L 30,53  L 29,53  L 29,52  L 28,52  L 28,53  L 18,53  L 18,54  L 17,54  L 17,53  L 15,53  L 15,54  L 10,54  L 10,52  L 9,52  L 9,49  L 10,49  L 10,36  L 11,36  L 11,35  L 10,35  L 10,34  L 11,34  L 11,22  L 9,22  L 9,21  L 8,21  L 8,22  L 7,22  L 7,23  L 5,23  L 5,24  L 4,24  L 4,25  L 3,25  L 3,31  L 2,31  L 2,46  L 1,46  L 1,48  L 2,48  L 2,49  L 1,49  L 1,56  L 2,56  L 2,65  L 3,65  L 3,67  L 2,67  L 2,68  L 3,68  L 3,80  Z  M 13,61  L 13,60  L 20,60  L 20,59  L 29,59  L 29,58  L 37,58  L 37,57  L 45,57  L 45,56  L 53,56  L 53,55  L 55,55  L 55,56  L 56,56  L 56,64  L 57,64  L 57,65  L 56,65  L 56,68  L 57,68  L 57,70  L 56,70  L 56,81  L 55,81  L 55,82  L 54,82  L 54,83  L 53,83  L 53,84  L 51,84  L 51,85  L 47,85  L 47,86  L 45,86  L 45,87  L 42,87  L 42,88  L 41,88  L 41,87  L 40,87  L 40,88  L 37,88  L 37,89  L 34,89  L 34,90  L 29,90  L 29,91  L 20,91  L 20,92  L 15,92  L 15,91  L 13,91  L 13,90  L 12,90  L 12,88  L 11,88  L 11,81  L 10,81  L 10,80  L 11,80  L 11,79  L 10,79  L 10,61  Z  " style="fill:rgb(0, 0, 0); fill-opacity:1.000; stroke:none;" />
 <path d="  M 94,22  L 95,22  L 95,32  L 96,32  L 96,35  L 95,35  L 95,36  L 96,36  L 96,79  L 95,79  L 95,80  L 96,80  L 96,83  L 95,83  L 95,84  L 96,84  L 96,87  L 95,87  L 95,89  L 96,89  L 96,91  L 95,91  L 95,105  L 94,105  L 94,106  L 95,106  L 95,109  L 94,109  L 94,127  L 100,127  L 100,126  L 101,126  L 101,125  L 102,125  L 102,112  L 103,112  L 103,111  L 102,111  L 102,108  L 103,108  L 103,107  L 102,107  L 102,105  L 103,105  L 103,27  L 102,27  L 102,17  L 101,17  L 101,8  L 100,8  L 100,2  L 99,2  L 99,1  L 98,1  L 98,0  L 95,0  L 95,1  L 94,1  L 94,2  L 93,2  L 93,3  L 92,3  L 92,6  L 93,6  L 93,14  L 94,14  Z  " style="fill:rgb(0, 0, 0); fill-opacity:1.000; stroke:none;" />
</svg>
