<?xml version="1.0" encoding="UTF-8" standalone="no"?>
<!DOCTYPE svg PUBLIC "-//W3C//DTD SVG 1.1//EN" 
  "http://www.w3.org/Graphics/SVG/1.1/DTD/svg11.dtd">
<svg width="98" height="177"
     xmlns="http://www.w3.org/2000/svg" version="1.1">
 <path d="  M 1,43  L 2,43  L 2,44  L 1,44  L 1,45  L 2,45  L 2,46  L 1,46  L 1,47  L 2,47  L 2,55  L 3,55  L 3,71  L 4,71  L 4,76  L 5,76  L 5,77  L 6,77  L 6,78  L 7,78  L 7,79  L 8,79  L 8,80  L 10,80  L 10,81  L 11,81  L 11,80  L 13,80  L 13,81  L 16,81  L 16,82  L 22,82  L 22,81  L 32,81  L 32,80  L 36,80  L 36,79  L 37,79  L 37,80  L 38,80  L 38,79  L 40,79  L 40,78  L 43,78  L 43,77  L 47,77  L 47,76  L 49,76  L 49,75  L 51,75  L 51,73  L 52,73  L 52,72  L 54,72  L 54,70  L 55,70  L 55,68  L 56,68  L 56,65  L 57,65  L 57,63  L 58,63  L 58,62  L 57,62  L 57,60  L 58,60  L 58,58  L 57,58  L 57,57  L 58,57  L 58,43  L 59,43  L 59,17  L 60,17  L 60,13  L 59,13  L 59,11  L 58,11  L 58,10  L 57,10  L 57,9  L 51,9  L 51,10  L 50,10  L 50,11  L 51,11  L 51,14  L 50,14  L 50,15  L 51,15  L 51,20  L 50,20  L 50,21  L 51,21  L 51,22  L 50,22  L 50,23  L 51,23  L 51,24  L 50,24  L 50,27  L 51,27  L 51,28  L 50,28  L 50,38  L 45,38  L 45,39  L 44,39  L 44,38  L 43,38  L 43,39  L 42,39  L 42,40  L 37,40  L 37,41  L 30,41  L 30,42  L 21,42  L 21,43  L 20,43  L 20,42  L 19,42  L 19,43  L 16,43  L 16,42  L 15,42  L 15,43  L 9,43  L 9,15  L 10,15  L 10,6  L 8,6  L 8,5  L 6,5  L 6,4  L 5,4  L 5,5  L 4,5  L 4,4  L 3,4  L 3,5  L 2,5  L 2,6  L 1,6  Z  M 20,49  L 20,48  L 21,48  L 21,49  L 22,49  L 22,48  L 32,48  L 32,47  L 43,47  L 43,46  L 44,46  L 44,47  L 45,47  L 45,46  L 49,46  L 49,52  L 48,52  L 48,53  L 49,53  L 49,54  L 48,54  L 48,55  L 49,55  L 49,56  L 48,56  L 48,62  L 47,62  L 47,63  L 48,63  L 48,64  L 47,64  L 47,67  L 46,67  L 46,68  L 45,68  L 45,69  L 44,69  L 44,70  L 41,70  L 41,71  L 36,71  L 36,72  L 32,72  L 32,73  L 28,73  L 28,74  L 18,74  L 18,75  L 17,75  L 17,74  L 13,74  L 13,73  L 12,73  L 12,72  L 11,72  L 11,68  L 10,68  L 10,54  L 9,54  L 9,53  L 10,53  L 10,49  L 11,49  L 11,50  L 12,50  L 12,49  Z  " style="fill:rgb(0, 0, 0); fill-opacity:1.000; stroke:none;" />
 <path d="  M 87,131  L 88,131  L 88,126  L 89,126  L 89,123  L 90,123  L 90,122  L 89,122  L 89,117  L 88,117  L 88,113  L 87,113  L 87,111  L 86,111  L 86,110  L 83,110  L 83,109  L 82,109  L 82,108  L 79,108  L 79,107  L 74,107  L 74,106  L 47,106  L 47,107  L 41,107  L 41,108  L 37,108  L 37,109  L 34,109  L 34,110  L 32,110  L 32,111  L 30,111  L 30,115  L 31,115  L 31,116  L 33,116  L 33,117  L 35,117  L 35,116  L 38,116  L 38,115  L 44,115  L 44,114  L 59,114  L 59,113  L 61,113  L 61,114  L 63,114  L 63,113  L 65,113  L 65,114  L 66,114  L 66,113  L 69,113  L 69,114  L 75,114  L 75,115  L 77,115  L 77,116  L 78,116  L 78,117  L 80,117  L 80,118  L 81,118  L 81,122  L 82,122  L 82,123  L 81,123  L 81,126  L 80,126  L 80,130  L 79,130  L 79,138  L 78,138  L 78,139  L 79,139  L 79,140  L 78,140  L 78,152  L 77,152  L 77,157  L 76,157  L 76,161  L 75,161  L 75,164  L 74,164  L 74,168  L 73,168  L 73,175  L 74,175  L 74,176  L 75,176  L 75,177  L 79,177  L 79,176  L 81,176  L 81,173  L 82,173  L 82,169  L 83,169  L 83,164  L 84,164  L 84,160  L 85,160  L 85,155  L 86,155  L 86,154  L 85,154  L 85,152  L 86,152  L 86,150  L 85,150  L 85,149  L 86,149  L 86,145  L 87,145  L 87,144  L 86,144  L 86,141  L 87,141  L 87,140  L 86,140  L 86,139  L 87,139  Z  " style="fill:rgb(0, 0, 0); fill-opacity:1.000; stroke:none;" />
 <path d="  M 91,82  L 90,82  L 90,83  L 91,83  L 91,86  L 90,86  L 90,87  L 91,87  L 91,90  L 90,90  L 90,95  L 91,95  L 91,97  L 97,97  L 97,95  L 98,95  L 98,14  L 97,14  L 97,6  L 96,6  L 96,4  L 95,4  L 95,2  L 93,2  L 93,1  L 92,1  L 92,0  L 91,0  L 91,1  L 89,1  L 89,2  L 88,2  L 88,8  L 89,8  L 89,15  L 90,15  L 90,16  L 89,16  L 89,17  L 90,17  L 90,23  L 91,23  Z  " style="fill:rgb(0, 0, 0); fill-opacity:1.000; stroke:none;" />
</svg>
