<?xml version="1.0" encoding="UTF-8" standalone="no"?>
<!DOCTYPE svg PUBLIC "-//W3C//DTD SVG 1.1//EN" 
  "http://www.w3.org/Graphics/SVG/1.1/DTD/svg11.dtd">
<svg width="100" height="178"
     xmlns="http://www.w3.org/2000/svg" version="1.1">
 <path d="  M 4,83  L 5,83  L 5,84  L 6,84  L 6,85  L 7,85  L 7,86  L 8,86  L 8,87  L 10,87  L 10,88  L 12,88  L 12,89  L 14,89  L 14,88  L 15,88  L 15,89  L 18,89  L 18,88  L 19,88  L 19,89  L 21,89  L 21,88  L 28,88  L 28,87  L 29,87  L 29,88  L 30,88  L 30,87  L 34,87  L 34,86  L 35,86  L 35,87  L 36,87  L 36,86  L 38,86  L 38,85  L 42,85  L 42,84  L 45,84  L 45,83  L 48,83  L 48,82  L 49,82  L 49,81  L 50,81  L 50,80  L 51,80  L 51,79  L 52,79  L 52,78  L 53,78  L 53,75  L 54,75  L 54,71  L 55,71  L 55,63  L 56,63  L 56,62  L 55,62  L 55,60  L 56,60  L 56,58  L 55,58  L 55,57  L 56,57  L 56,51  L 57,51  L 57,50  L 56,50  L 56,49  L 57,49  L 57,48  L 56,48  L 56,47  L 57,47  L 57,39  L 58,39  L 58,33  L 59,33  L 59,27  L 60,27  L 60,26  L 59,26  L 59,24  L 60,24  L 60,22  L 59,22  L 59,21  L 60,21  L 60,20  L 59,20  L 59,19  L 60,19  L 60,18  L 59,18  L 59,16  L 60,16  L 60,14  L 59,14  L 59,12  L 60,12  L 60,10  L 59,10  L 59,7  L 60,7  L 60,6  L 59,6  L 59,4  L 58,4  L 58,3  L 57,3  L 57,2  L 54,2  L 54,3  L 53,3  L 53,4  L 52,4  L 52,12  L 51,12  L 51,13  L 52,13  L 52,16  L 51,16  L 51,17  L 52,17  L 52,18  L 51,18  L 51,19  L 52,19  L 52,20  L 51,20  L 51,31  L 50,31  L 50,37  L 49,37  L 49,38  L 48,38  L 48,39  L 47,39  L 47,40  L 44,40  L 44,41  L 41,41  L 41,42  L 37,42  L 37,43  L 34,43  L 34,44  L 29,44  L 29,45  L 21,45  L 21,46  L 15,46  L 15,45  L 14,45  L 14,46  L 11,46  L 11,45  L 10,45  L 10,11  L 11,11  L 11,8  L 10,8  L 10,7  L 9,7  L 9,6  L 7,6  L 7,5  L 5,5  L 5,6  L 3,6  L 3,7  L 2,7  L 2,9  L 1,9  L 1,47  L 2,47  L 2,49  L 1,49  L 1,50  L 2,50  L 2,51  L 1,51  L 1,52  L 2,52  L 2,63  L 3,63  L 3,65  L 2,65  L 2,67  L 3,67  L 3,77  L 4,77  Z  M 47,68  L 46,68  L 46,71  L 45,71  L 45,74  L 44,74  L 44,76  L 41,76  L 41,77  L 38,77  L 38,78  L 34,78  L 34,79  L 30,79  L 30,80  L 23,80  L 23,81  L 14,81  L 14,80  L 13,80  L 13,79  L 11,79  L 11,73  L 10,73  L 10,71  L 11,71  L 11,68  L 10,68  L 10,53  L 18,53  L 18,52  L 19,52  L 19,53  L 20,53  L 20,52  L 23,52  L 23,53  L 24,53  L 24,52  L 28,52  L 28,51  L 34,51  L 34,50  L 36,50  L 36,51  L 37,51  L 37,50  L 42,50  L 42,49  L 46,49  L 46,48  L 47,48  L 47,49  L 48,49  L 48,52  L 47,52  Z  " style="fill:rgb(0, 0, 0); fill-opacity:1.000; stroke:none;" />
 <path d="  M 31,169  L 32,169  L 32,171  L 33,171  L 33,172  L 35,172  L 35,173  L 36,173  L 36,174  L 37,174  L 37,175  L 41,175  L 41,176  L 44,176  L 44,177  L 46,177  L 46,176  L 47,176  L 47,177  L 51,177  L 51,178  L 70,178  L 70,177  L 71,177  L 71,178  L 72,178  L 72,177  L 76,177  L 76,176  L 78,176  L 78,175  L 82,175  L 82,174  L 85,174  L 85,173  L 87,173  L 87,172  L 89,172  L 89,171  L 90,171  L 90,170  L 93,170  L 93,169  L 95,169  L 95,168  L 96,168  L 96,167  L 97,167  L 97,166  L 98,166  L 98,165  L 99,165  L 99,163  L 100,163  L 100,158  L 96,158  L 96,159  L 95,159  L 95,160  L 93,160  L 93,161  L 92,161  L 92,162  L 89,162  L 89,163  L 87,163  L 87,164  L 86,164  L 86,165  L 84,165  L 84,166  L 81,166  L 81,167  L 78,167  L 78,168  L 76,168  L 76,169  L 72,169  L 72,170  L 65,170  L 65,171  L 62,171  L 62,170  L 61,170  L 61,171  L 58,171  L 58,170  L 57,170  L 57,171  L 55,171  L 55,170  L 45,170  L 45,169  L 42,169  L 42,168  L 40,168  L 40,166  L 39,166  L 39,163  L 38,163  L 38,157  L 39,157  L 39,153  L 40,153  L 40,152  L 42,152  L 42,151  L 45,151  L 45,149  L 47,149  L 47,148  L 50,148  L 50,147  L 53,147  L 53,146  L 56,146  L 56,145  L 58,145  L 58,144  L 60,144  L 60,143  L 62,143  L 62,142  L 65,142  L 65,141  L 66,141  L 66,140  L 67,140  L 67,139  L 69,139  L 69,138  L 70,138  L 70,137  L 71,137  L 71,136  L 73,136  L 73,135  L 74,135  L 74,134  L 76,134  L 76,133  L 78,133  L 78,132  L 79,132  L 79,131  L 81,131  L 81,130  L 82,130  L 82,129  L 83,129  L 83,128  L 84,128  L 84,127  L 85,127  L 85,126  L 86,126  L 86,125  L 87,125  L 87,123  L 86,123  L 86,120  L 85,120  L 85,118  L 84,118  L 84,117  L 83,117  L 83,116  L 82,116  L 82,115  L 81,115  L 81,114  L 79,114  L 79,113  L 78,113  L 78,112  L 75,112  L 75,111  L 72,111  L 72,110  L 69,110  L 69,109  L 66,109  L 66,108  L 61,108  L 61,107  L 58,107  L 58,106  L 57,106  L 57,107  L 56,107  L 56,106  L 46,106  L 46,107  L 43,107  L 43,108  L 40,108  L 40,109  L 37,109  L 37,110  L 35,110  L 35,111  L 34,111  L 34,112  L 33,112  L 33,113  L 32,113  L 32,114  L 33,114  L 33,116  L 35,116  L 35,117  L 38,117  L 38,116  L 41,116  L 41,115  L 44,115  L 44,114  L 46,114  L 46,113  L 47,113  L 47,114  L 48,114  L 48,113  L 55,113  L 55,114  L 56,114  L 56,113  L 58,113  L 58,114  L 61,114  L 61,115  L 62,115  L 62,114  L 63,114  L 63,115  L 66,115  L 66,116  L 68,116  L 68,117  L 71,117  L 71,118  L 72,118  L 72,119  L 73,119  L 73,120  L 75,120  L 75,121  L 76,121  L 76,122  L 77,122  L 77,124  L 76,124  L 76,125  L 75,125  L 75,126  L 74,126  L 74,127  L 72,127  L 72,128  L 70,128  L 70,129  L 68,129  L 68,130  L 66,130  L 66,131  L 64,131  L 64,132  L 63,132  L 63,133  L 61,133  L 61,134  L 60,134  L 60,135  L 58,135  L 58,136  L 56,136  L 56,138  L 53,138  L 53,139  L 50,139  L 50,140  L 49,140  L 49,141  L 46,141  L 46,142  L 44,142  L 44,143  L 42,143  L 42,144  L 40,144  L 40,146  L 37,146  L 37,147  L 36,147  L 36,148  L 35,148  L 35,149  L 33,149  L 33,150  L 32,150  L 32,151  L 31,151  L 31,154  L 30,154  L 30,157  L 29,157  L 29,161  L 30,161  L 30,166  L 31,166  Z  " style="fill:rgb(0, 0, 0); fill-opacity:1.000; stroke:none;" />
 <path d="  M 92,88  L 93,88  L 93,90  L 92,90  L 92,92  L 93,92  L 93,100  L 92,100  L 92,103  L 93,103  L 93,104  L 94,104  L 94,105  L 95,105  L 95,104  L 98,104  L 98,103  L 100,103  L 100,42  L 99,42  L 99,41  L 100,41  L 100,40  L 99,40  L 99,39  L 100,39  L 100,38  L 99,38  L 99,35  L 100,35  L 100,34  L 99,34  L 99,22  L 98,22  L 98,21  L 99,21  L 99,20  L 98,20  L 98,19  L 99,19  L 99,18  L 98,18  L 98,17  L 99,17  L 99,16  L 98,16  L 98,5  L 97,5  L 97,4  L 98,4  L 98,3  L 97,3  L 97,2  L 96,2  L 96,1  L 95,1  L 95,0  L 92,0  L 92,1  L 91,1  L 91,2  L 90,2  L 90,8  L 91,8  L 91,15  L 90,15  L 90,16  L 91,16  L 91,35  L 92,35  L 92,38  L 91,38  L 91,39  L 92,39  Z  " style="fill:rgb(0, 0, 0); fill-opacity:1.000; stroke:none;" />
</svg>
