<?xml version="1.0" encoding="UTF-8" standalone="no"?>
<!DOCTYPE svg PUBLIC "-//W3C//DTD SVG 1.1//EN" 
  "http://www.w3.org/Graphics/SVG/1.1/DTD/svg11.dtd">
<svg width="103" height="178"
     xmlns="http://www.w3.org/2000/svg" version="1.1">
 <path d="  M 43,87  L 43,86  L 47,86  L 47,85  L 50,85  L 50,83  L 52,83  L 52,82  L 53,82  L 53,81  L 54,81  L 54,80  L 55,80  L 55,79  L 56,79  L 56,78  L 57,78  L 57,75  L 58,75  L 58,71  L 59,71  L 59,70  L 58,70  L 58,69  L 59,69  L 59,63  L 60,63  L 60,62  L 59,62  L 59,61  L 60,61  L 60,53  L 61,53  L 61,47  L 62,47  L 62,46  L 61,46  L 61,44  L 62,44  L 62,42  L 61,42  L 61,41  L 62,41  L 62,31  L 63,31  L 63,30  L 62,30  L 62,29  L 63,29  L 63,28  L 62,28  L 62,27  L 63,27  L 63,5  L 62,5  L 62,4  L 61,4  L 61,3  L 56,3  L 56,6  L 55,6  L 55,18  L 54,18  L 54,19  L 55,19  L 55,20  L 54,20  L 54,23  L 55,23  L 55,24  L 54,24  L 54,34  L 53,34  L 53,36  L 52,36  L 52,37  L 49,37  L 49,38  L 46,38  L 46,39  L 43,39  L 43,40  L 39,40  L 39,41  L 34,41  L 34,42  L 30,42  L 30,43  L 28,43  L 28,42  L 27,42  L 27,43  L 23,43  L 23,44  L 11,44  L 11,43  L 10,43  L 10,40  L 9,40  L 9,39  L 10,39  L 10,23  L 11,23  L 11,22  L 10,22  L 10,21  L 11,21  L 11,5  L 10,5  L 10,4  L 9,4  L 9,3  L 5,3  L 5,4  L 4,4  L 4,5  L 3,5  L 3,6  L 2,6  L 2,11  L 3,11  L 3,12  L 2,12  L 2,28  L 1,28  L 1,29  L 2,29  L 2,30  L 1,30  L 1,47  L 2,47  L 2,50  L 1,50  L 1,51  L 2,51  L 2,67  L 3,67  L 3,68  L 2,68  L 2,71  L 3,71  L 3,77  L 4,77  L 4,80  L 5,80  L 5,82  L 6,82  L 6,83  L 7,83  L 7,85  L 9,85  L 9,86  L 10,86  L 10,87  L 12,87  L 12,88  L 17,88  L 17,89  L 19,89  L 19,88  L 21,88  L 21,89  L 22,89  L 22,88  L 32,88  L 32,87  L 33,87  L 33,88  L 34,88  L 34,87  Z  M 48,75  L 48,76  L 47,76  L 47,77  L 44,77  L 44,78  L 39,78  L 39,79  L 36,79  L 36,80  L 29,80  L 29,81  L 14,81  L 14,80  L 13,80  L 13,79  L 12,79  L 12,78  L 11,78  L 11,75  L 10,75  L 10,63  L 9,63  L 9,52  L 10,52  L 10,51  L 12,51  L 12,50  L 13,50  L 13,51  L 15,51  L 15,50  L 24,50  L 24,49  L 30,49  L 30,48  L 35,48  L 35,47  L 41,47  L 41,46  L 42,46  L 42,47  L 43,47  L 43,46  L 47,46  L 47,45  L 49,45  L 49,44  L 50,44  L 50,45  L 51,45  L 51,68  L 50,68  L 50,72  L 49,72  L 49,75  Z  " style="fill:rgb(0, 0, 0); fill-opacity:1.000; stroke:none;" />
 <path d="  M 43,152  L 42,152  L 42,151  L 43,151  L 43,150  L 42,150  L 42,146  L 43,146  L 43,145  L 48,145  L 48,144  L 59,144  L 59,145  L 60,145  L 60,144  L 61,144  L 61,145  L 62,145  L 62,144  L 65,144  L 65,145  L 66,145  L 66,144  L 67,144  L 67,145  L 68,145  L 68,144  L 69,144  L 69,145  L 70,145  L 70,144  L 71,144  L 71,145  L 72,145  L 72,144  L 73,144  L 73,145  L 74,145  L 74,144  L 75,144  L 75,145  L 76,145  L 76,144  L 77,144  L 77,145  L 78,145  L 78,144  L 79,144  L 79,145  L 80,145  L 80,144  L 81,144  L 81,145  L 82,145  L 82,144  L 83,144  L 83,145  L 84,145  L 84,144  L 85,144  L 85,145  L 87,145  L 87,146  L 86,146  L 86,147  L 87,147  L 87,150  L 86,150  L 86,156  L 85,156  L 85,157  L 86,157  L 86,159  L 85,159  L 85,162  L 84,162  L 84,165  L 83,165  L 83,166  L 82,166  L 82,167  L 81,167  L 81,168  L 77,168  L 77,169  L 70,169  L 70,170  L 51,170  L 51,169  L 46,169  L 46,168  L 45,168  L 45,167  L 44,167  L 44,162  L 43,162  L 43,161  L 44,161  L 44,160  L 43,160  Z  M 71,178  L 71,177  L 73,177  L 73,178  L 74,178  L 74,177  L 76,177  L 76,176  L 77,176  L 77,177  L 78,177  L 78,176  L 80,176  L 80,175  L 82,175  L 82,174  L 84,174  L 84,173  L 86,173  L 86,171  L 87,171  L 87,170  L 89,170  L 89,169  L 90,169  L 90,168  L 91,168  L 91,167  L 92,167  L 92,166  L 91,166  L 91,165  L 92,165  L 92,161  L 93,161  L 93,152  L 94,152  L 94,150  L 93,150  L 93,149  L 94,149  L 94,142  L 95,142  L 95,139  L 96,139  L 96,110  L 95,110  L 95,109  L 90,109  L 90,110  L 88,110  L 88,112  L 89,112  L 89,125  L 88,125  L 88,127  L 89,127  L 89,131  L 88,131  L 88,133  L 89,133  L 89,134  L 88,134  L 88,136  L 41,136  L 41,111  L 42,111  L 42,110  L 41,110  L 41,109  L 40,109  L 40,108  L 38,108  L 38,107  L 37,107  L 37,108  L 35,108  L 35,109  L 34,109  L 34,110  L 33,110  L 33,111  L 32,111  L 32,141  L 33,141  L 33,144  L 34,144  L 34,151  L 35,151  L 35,159  L 36,159  L 36,161  L 35,161  L 35,163  L 36,163  L 36,168  L 37,168  L 37,170  L 38,170  L 38,172  L 39,172  L 39,173  L 40,173  L 40,174  L 42,174  L 42,175  L 46,175  L 46,177  L 48,177  L 48,176  L 49,176  L 49,177  L 51,177  L 51,178  L 52,178  L 52,177  L 53,177  L 53,178  Z  " style="fill:rgb(0, 0, 0); fill-opacity:1.000; stroke:none;" />
 <path d="  M 94,19  L 94,20  L 93,20  L 93,21  L 94,21  L 94,27  L 95,27  L 95,73  L 96,73  L 96,74  L 95,74  L 95,76  L 96,76  L 96,91  L 95,91  L 95,92  L 96,92  L 96,94  L 95,94  L 95,96  L 96,96  L 96,99  L 95,99  L 95,101  L 98,101  L 98,102  L 103,102  L 103,28  L 102,28  L 102,27  L 103,27  L 103,26  L 102,26  L 102,18  L 101,18  L 101,15  L 102,15  L 102,14  L 101,14  L 101,10  L 100,10  L 100,5  L 99,5  L 99,4  L 98,4  L 98,2  L 97,2  L 97,1  L 95,1  L 95,0  L 93,0  L 93,1  L 92,1  L 92,2  L 91,2  L 91,6  L 92,6  L 92,12  L 93,12  L 93,19  Z  " style="fill:rgb(0, 0, 0); fill-opacity:1.000; stroke:none;" />
</svg>
