<?xml version="1.0" encoding="UTF-8" standalone="no"?>
<!DOCTYPE svg PUBLIC "-//W3C//DTD SVG 1.1//EN" 
  "http://www.w3.org/Graphics/SVG/1.1/DTD/svg11.dtd">
<svg width="105" height="118"
     xmlns="http://www.w3.org/2000/svg" version="1.1">
 <path d="  M 1,47  L 2,47  L 2,49  L 1,49  L 1,50  L 2,50  L 2,53  L 3,53  L 3,57  L 4,57  L 4,58  L 5,58  L 5,59  L 10,59  L 10,58  L 13,58  L 13,57  L 15,57  L 15,56  L 21,56  L 21,55  L 29,55  L 29,56  L 32,56  L 32,55  L 33,55  L 33,53  L 32,53  L 32,10  L 33,10  L 33,9  L 32,9  L 32,8  L 31,8  L 31,7  L 26,7  L 26,10  L 25,10  L 25,12  L 26,12  L 26,14  L 25,14  L 25,15  L 26,15  L 26,17  L 25,17  L 25,19  L 26,19  L 26,20  L 25,20  L 25,24  L 26,24  L 26,26  L 25,26  L 25,27  L 26,27  L 26,28  L 25,28  L 25,29  L 11,29  L 11,30  L 9,30  L 9,29  L 7,29  L 7,19  L 8,19  L 8,18  L 7,18  L 7,15  L 8,15  L 8,14  L 7,14  L 7,11  L 8,11  L 8,10  L 7,10  L 7,7  L 8,7  L 8,6  L 7,6  L 7,4  L 8,4  L 8,2  L 7,2  L 7,1  L 6,1  L 6,0  L 2,0  L 2,1  L 1,1  Z  M 7,50  L 7,36  L 8,36  L 8,35  L 25,35  L 25,48  L 24,48  L 24,49  L 20,49  L 20,50  Z  " style="fill:rgb(0, 0, 0); fill-opacity:1.000; stroke:none;" />
 <path d="  M 63,112  L 63,113  L 40,113  L 40,112  L 39,112  L 39,102  L 38,102  L 38,86  L 41,86  L 41,85  L 56,85  L 56,84  L 75,84  L 75,88  L 74,88  L 74,94  L 73,94  L 73,101  L 72,101  L 72,107  L 71,107  L 71,110  L 70,110  L 70,111  L 68,111  L 68,112  Z  M 28,86  L 28,85  L 29,85  L 29,86  L 30,86  L 30,87  L 31,87  L 31,90  L 32,90  L 32,104  L 33,104  L 33,106  L 32,106  L 32,107  L 33,107  L 33,111  L 34,111  L 34,115  L 35,115  L 35,117  L 36,117  L 36,118  L 67,118  L 67,117  L 70,117  L 70,116  L 74,116  L 74,115  L 76,115  L 76,114  L 77,114  L 77,108  L 78,108  L 78,103  L 79,103  L 79,102  L 78,102  L 78,101  L 79,101  L 79,95  L 80,95  L 80,92  L 81,92  L 81,88  L 82,88  L 82,84  L 83,84  L 83,79  L 82,79  L 82,78  L 79,78  L 79,77  L 78,77  L 78,78  L 77,78  L 77,77  L 74,77  L 74,78  L 73,78  L 73,77  L 72,77  L 72,78  L 60,78  L 60,79  L 57,79  L 57,78  L 56,78  L 56,79  L 49,79  L 49,80  L 40,80  L 40,79  L 37,79  L 37,78  L 33,78  L 33,77  L 31,77  L 31,76  L 28,76  L 28,77  L 26,77  L 26,78  L 24,78  L 24,79  L 22,79  L 22,81  L 21,81  L 21,84  L 22,84  L 22,85  L 23,85  L 23,86  L 24,86  L 24,85  L 27,85  L 27,86  Z  " style="fill:rgb(0, 0, 0); fill-opacity:1.000; stroke:none;" />
 <path d="  M 45,19  L 46,19  L 46,18  L 45,18  L 45,15  L 46,15  L 46,14  L 45,14  L 45,7  L 44,7  L 44,6  L 43,6  L 43,5  L 39,5  L 39,6  L 38,6  L 38,10  L 39,10  L 39,12  L 38,12  L 38,14  L 39,14  L 39,16  L 38,16  L 38,17  L 39,17  L 39,30  L 38,30  L 38,31  L 39,31  L 39,32  L 38,32  L 38,55  L 39,55  L 39,56  L 40,56  L 40,57  L 41,57  L 41,58  L 42,58  L 42,59  L 44,59  L 44,60  L 52,60  L 52,59  L 56,59  L 56,57  L 61,57  L 61,56  L 62,56  L 62,55  L 63,55  L 63,54  L 62,54  L 62,53  L 63,53  L 63,52  L 62,52  L 62,51  L 63,51  L 63,50  L 62,50  L 62,43  L 63,43  L 63,42  L 62,42  L 62,39  L 63,39  L 63,9  L 62,9  L 62,8  L 61,8  L 61,7  L 56,7  L 56,20  L 57,20  L 57,21  L 56,21  L 56,22  L 57,22  L 57,23  L 56,23  L 56,24  L 57,24  L 57,28  L 56,28  L 56,29  L 53,29  L 53,28  L 48,28  L 48,29  L 45,29  Z  M 45,54  L 45,53  L 44,53  L 44,42  L 45,42  L 45,40  L 44,40  L 44,37  L 45,37  L 45,36  L 46,36  L 46,35  L 55,35  L 55,36  L 56,36  L 56,38  L 55,38  L 55,39  L 56,39  L 56,53  L 55,53  L 55,54  Z  " style="fill:rgb(0, 0, 0); fill-opacity:1.000; stroke:none;" />
 <path d="  M 82,9  L 83,9  L 83,4  L 82,4  L 82,3  L 80,3  L 80,2  L 77,2  L 77,3  L 76,3  L 76,8  L 75,8  L 75,11  L 76,11  L 76,12  L 75,12  L 75,14  L 76,14  L 76,16  L 75,16  L 75,19  L 76,19  L 76,20  L 75,20  L 75,23  L 76,23  L 76,24  L 75,24  L 75,47  L 76,47  L 76,48  L 75,48  L 75,50  L 76,50  L 76,53  L 75,53  L 75,55  L 76,55  L 76,56  L 75,56  L 75,59  L 76,59  L 76,62  L 75,62  L 75,63  L 76,63  L 76,68  L 80,68  L 80,67  L 81,67  L 81,62  L 82,62  L 82,59  L 81,59  L 81,58  L 82,58  L 82,38  L 83,38  L 83,37  L 86,37  L 86,36  L 103,36  L 103,35  L 104,35  L 104,34  L 105,34  L 105,29  L 103,29  L 103,28  L 102,28  L 102,29  L 84,29  L 84,30  L 83,30  L 83,29  L 82,29  L 82,25  L 83,25  L 83,20  L 82,20  L 82,19  L 83,19  L 83,18  L 82,18  L 82,17  L 83,17  L 83,16  L 82,16  L 82,15  L 83,15  L 83,14  L 82,14  L 82,13  L 83,13  L 83,12  L 82,12  L 82,11  L 83,11  L 83,10  L 82,10  Z  " style="fill:rgb(0, 0, 0); fill-opacity:1.000; stroke:none;" />
</svg>
