<?xml version="1.0" encoding="UTF-8" standalone="no"?>
<!DOCTYPE svg PUBLIC "-//W3C//DTD SVG 1.1//EN" 
  "http://www.w3.org/Graphics/SVG/1.1/DTD/svg11.dtd">
<svg width="105" height="124"
     xmlns="http://www.w3.org/2000/svg" version="1.1">
 <path d="  M 1,40  L 0,40  L 0,41  L 1,41  L 1,44  L 0,44  L 0,45  L 1,45  L 1,48  L 0,48  L 0,49  L 1,49  L 1,52  L 0,52  L 0,53  L 1,53  L 1,57  L 2,57  L 2,61  L 3,61  L 3,62  L 5,62  L 5,63  L 8,63  L 8,64  L 9,64  L 9,63  L 11,63  L 11,62  L 15,62  L 15,61  L 21,61  L 21,60  L 22,60  L 22,61  L 23,61  L 23,60  L 24,60  L 24,59  L 25,59  L 25,60  L 27,60  L 27,61  L 31,61  L 31,59  L 32,59  L 32,58  L 31,58  L 31,57  L 32,57  L 32,55  L 31,55  L 31,51  L 32,51  L 32,50  L 31,50  L 31,49  L 32,49  L 32,48  L 31,48  L 31,45  L 32,45  L 32,10  L 31,10  L 31,9  L 30,9  L 30,8  L 26,8  L 26,10  L 25,10  L 25,30  L 23,30  L 23,31  L 22,31  L 22,30  L 18,30  L 18,31  L 17,31  L 17,30  L 14,30  L 14,31  L 13,31  L 13,30  L 12,30  L 12,31  L 11,31  L 11,30  L 10,30  L 10,31  L 9,31  L 9,30  L 7,30  L 7,2  L 6,2  L 6,1  L 1,1  L 1,4  L 0,4  L 0,5  L 1,5  L 1,6  L 0,6  L 0,7  L 1,7  L 1,8  L 0,8  L 0,9  L 1,9  L 1,10  L 0,10  L 0,13  L 1,13  L 1,14  L 0,14  L 0,17  L 1,17  L 1,19  L 0,19  L 0,21  L 1,21  L 1,23  L 0,23  L 0,25  L 1,25  L 1,27  L 0,27  L 0,29  L 1,29  L 1,32  L 0,32  L 0,33  L 1,33  L 1,36  L 0,36  L 0,37  L 1,37  Z  M 25,52  L 24,52  L 24,53  L 23,53  L 23,54  L 16,54  L 16,55  L 7,55  L 7,37  L 9,37  L 9,36  L 11,36  L 11,37  L 12,37  L 12,36  L 15,36  L 15,37  L 16,37  L 16,36  L 18,36  L 18,37  L 20,37  L 20,36  L 21,36  L 21,37  L 25,37  L 25,43  L 24,43  L 24,44  L 25,44  Z  " style="fill:rgb(0, 0, 0); fill-opacity:1.000; stroke:none;" />
 <path d="  M 30,91  L 29,91  L 29,93  L 30,93  L 30,94  L 29,94  L 29,97  L 30,97  L 30,98  L 29,98  L 29,101  L 30,101  L 30,106  L 31,106  L 31,111  L 32,111  L 32,117  L 33,117  L 33,122  L 34,122  L 34,123  L 35,123  L 35,124  L 57,124  L 57,123  L 58,123  L 58,124  L 59,124  L 59,123  L 62,123  L 62,122  L 66,122  L 66,121  L 69,121  L 69,120  L 71,120  L 71,119  L 73,119  L 73,118  L 74,118  L 74,117  L 76,117  L 76,115  L 77,115  L 77,111  L 78,111  L 78,108  L 79,108  L 79,105  L 80,105  L 80,102  L 81,102  L 81,98  L 82,98  L 82,80  L 79,80  L 79,81  L 78,81  L 78,82  L 77,82  L 77,96  L 75,96  L 75,97  L 73,97  L 73,96  L 72,96  L 72,97  L 69,97  L 69,96  L 68,96  L 68,97  L 65,97  L 65,96  L 64,96  L 64,97  L 61,97  L 61,96  L 60,96  L 60,97  L 57,97  L 57,96  L 56,96  L 56,97  L 37,97  L 37,96  L 36,96  L 36,95  L 37,95  L 37,94  L 36,94  L 36,90  L 37,90  L 37,81  L 38,81  L 38,78  L 39,78  L 39,75  L 40,75  L 40,72  L 39,72  L 39,71  L 36,71  L 36,72  L 35,72  L 35,71  L 34,71  L 34,72  L 33,72  L 33,73  L 32,73  L 32,75  L 31,75  L 31,79  L 30,79  Z  M 73,103  L 73,106  L 72,106  L 72,110  L 71,110  L 71,112  L 70,112  L 70,113  L 69,113  L 69,114  L 68,114  L 68,115  L 65,115  L 65,116  L 63,116  L 63,117  L 61,117  L 61,116  L 60,116  L 60,117  L 56,117  L 56,118  L 52,118  L 52,119  L 41,119  L 41,118  L 39,118  L 39,116  L 38,116  L 38,108  L 37,108  L 37,104  L 40,104  L 40,103  Z  " style="fill:rgb(0, 0, 0); fill-opacity:1.000; stroke:none;" />
 <path d="  M 45,26  L 46,26  L 46,7  L 45,7  L 45,6  L 40,6  L 40,7  L 39,7  L 39,34  L 38,34  L 38,59  L 39,59  L 39,62  L 40,62  L 40,63  L 41,63  L 41,64  L 42,64  L 42,65  L 49,65  L 49,64  L 55,64  L 55,63  L 56,63  L 56,62  L 60,62  L 60,61  L 62,61  L 62,60  L 63,60  L 63,59  L 64,59  L 64,32  L 65,32  L 65,14  L 66,14  L 66,12  L 65,12  L 65,11  L 66,11  L 66,10  L 65,10  L 65,9  L 60,9  L 60,10  L 59,10  L 59,29  L 58,29  L 58,30  L 46,30  L 46,29  L 45,29  Z  M 56,37  L 56,36  L 57,36  L 57,37  L 58,37  L 58,41  L 57,41  L 57,57  L 54,57  L 54,58  L 45,58  L 45,57  L 44,57  L 44,53  L 45,53  L 45,51  L 44,51  L 44,48  L 45,48  L 45,45  L 44,45  L 44,44  L 45,44  L 45,37  L 49,37  L 49,36  L 51,36  L 51,37  L 52,37  L 52,36  L 53,36  L 53,37  Z  " style="fill:rgb(0, 0, 0); fill-opacity:1.000; stroke:none;" />
 <path d="  M 83,27  L 83,23  L 84,23  L 84,10  L 85,10  L 85,5  L 83,5  L 83,4  L 81,4  L 81,5  L 80,5  L 80,6  L 79,6  L 79,7  L 78,7  L 78,12  L 77,12  L 77,13  L 78,13  L 78,14  L 77,14  L 77,17  L 78,17  L 78,18  L 77,18  L 77,51  L 78,51  L 78,52  L 77,52  L 77,53  L 78,53  L 78,56  L 77,56  L 77,57  L 78,57  L 78,66  L 79,66  L 79,67  L 83,67  L 83,43  L 84,43  L 84,42  L 83,42  L 83,37  L 84,37  L 84,35  L 85,35  L 85,34  L 89,34  L 89,33  L 96,33  L 96,34  L 97,34  L 97,33  L 98,33  L 98,34  L 99,34  L 99,33  L 104,33  L 104,32  L 105,32  L 105,27  L 104,27  L 104,26  L 98,26  L 98,27  L 97,27  L 97,26  L 96,26  L 96,27  L 93,27  L 93,26  L 91,26  L 91,27  Z  " style="fill:rgb(0, 0, 0); fill-opacity:1.000; stroke:none;" />
</svg>
