<?xml version="1.0" encoding="UTF-8" standalone="no"?>
<!DOCTYPE svg PUBLIC "-//W3C//DTD SVG 1.1//EN" 
  "http://www.w3.org/Graphics/SVG/1.1/DTD/svg11.dtd">
<svg width="105" height="125"
     xmlns="http://www.w3.org/2000/svg" version="1.1">
 <path d="  M 1,39  L 0,39  L 0,40  L 1,40  L 1,52  L 2,52  L 2,54  L 3,54  L 3,56  L 4,56  L 4,57  L 5,57  L 5,58  L 9,58  L 9,57  L 13,57  L 13,56  L 19,56  L 19,55  L 24,55  L 24,54  L 25,54  L 25,55  L 26,55  L 26,54  L 27,54  L 27,55  L 30,55  L 30,56  L 32,56  L 32,55  L 33,55  L 33,54  L 32,54  L 32,47  L 31,47  L 31,36  L 32,36  L 32,35  L 31,35  L 31,25  L 32,25  L 32,11  L 31,11  L 31,10  L 32,10  L 32,9  L 31,9  L 31,8  L 30,8  L 30,7  L 26,7  L 26,8  L 25,8  L 25,29  L 10,29  L 10,30  L 9,30  L 9,29  L 7,29  L 7,2  L 6,2  L 6,1  L 5,1  L 5,0  L 3,0  L 3,1  L 1,1  L 1,3  L 0,3  L 0,4  L 1,4  L 1,5  L 0,5  L 0,6  L 1,6  L 1,7  L 0,7  L 0,8  L 1,8  L 1,9  L 0,9  L 0,12  L 1,12  L 1,13  L 0,13  L 0,16  L 1,16  L 1,18  L 0,18  L 0,20  L 1,20  L 1,22  L 0,22  L 0,24  L 1,24  L 1,26  L 0,26  L 0,28  L 1,28  L 1,31  L 0,31  L 0,32  L 1,32  Z  M 24,48  L 23,48  L 23,49  L 21,49  L 21,50  L 7,50  L 7,40  L 8,40  L 8,39  L 7,39  L 7,36  L 8,36  L 8,35  L 15,35  L 15,36  L 16,36  L 16,35  L 23,35  L 23,36  L 24,36  Z  " style="fill:rgb(0, 0, 0); fill-opacity:1.000; stroke:none;" />
 <path d="  M 70,104  L 70,103  L 69,103  L 69,102  L 68,102  L 68,101  L 65,101  L 65,100  L 63,100  L 63,99  L 61,99  L 61,98  L 59,98  L 59,97  L 58,97  L 58,96  L 56,96  L 56,95  L 55,95  L 55,94  L 54,94  L 54,92  L 53,92  L 53,90  L 54,90  L 54,89  L 55,89  L 55,87  L 56,87  L 56,86  L 57,86  L 57,84  L 59,84  L 59,81  L 60,81  L 60,79  L 61,79  L 61,77  L 60,77  L 60,76  L 59,76  L 59,75  L 58,75  L 58,74  L 53,74  L 53,75  L 51,75  L 51,77  L 52,77  L 52,81  L 51,81  L 51,83  L 50,83  L 50,84  L 49,84  L 49,85  L 47,85  L 47,87  L 46,87  L 46,89  L 45,89  L 45,90  L 44,90  L 44,91  L 43,91  L 43,92  L 42,92  L 42,93  L 41,93  L 41,95  L 40,95  L 40,96  L 39,96  L 39,98  L 38,98  L 38,99  L 37,99  L 37,100  L 36,100  L 36,101  L 35,101  L 35,103  L 34,103  L 34,104  L 33,104  L 33,106  L 32,106  L 32,107  L 31,107  L 31,108  L 30,108  L 30,109  L 29,109  L 29,111  L 27,111  L 27,113  L 26,113  L 26,114  L 25,114  L 25,115  L 24,115  L 24,116  L 23,116  L 23,117  L 22,117  L 22,118  L 21,118  L 21,119  L 20,119  L 20,120  L 19,120  L 19,121  L 18,121  L 18,124  L 19,124  L 19,125  L 24,125  L 24,124  L 25,124  L 25,123  L 26,123  L 26,122  L 27,122  L 27,121  L 28,121  L 28,120  L 29,120  L 29,119  L 30,119  L 30,118  L 31,118  L 31,117  L 32,117  L 32,116  L 33,116  L 33,114  L 34,114  L 34,113  L 35,113  L 35,111  L 36,111  L 36,110  L 37,110  L 37,108  L 38,108  L 38,107  L 39,107  L 39,106  L 40,106  L 40,105  L 41,105  L 41,104  L 42,104  L 42,102  L 43,102  L 43,101  L 44,101  L 44,100  L 45,100  L 45,99  L 46,99  L 46,98  L 48,98  L 48,97  L 49,97  L 49,98  L 50,98  L 50,99  L 51,99  L 51,100  L 52,100  L 52,101  L 53,101  L 53,102  L 54,102  L 54,103  L 56,103  L 56,104  L 57,104  L 57,105  L 59,105  L 59,106  L 62,106  L 62,107  L 64,107  L 64,108  L 65,108  L 65,109  L 67,109  L 67,110  L 69,110  L 69,111  L 72,111  L 72,112  L 73,112  L 73,113  L 75,113  L 75,114  L 77,114  L 77,115  L 79,115  L 79,116  L 81,116  L 81,117  L 82,117  L 82,118  L 89,118  L 89,117  L 90,117  L 90,116  L 91,116  L 91,115  L 90,115  L 90,114  L 89,114  L 89,113  L 88,113  L 88,112  L 86,112  L 86,111  L 84,111  L 84,110  L 82,110  L 82,109  L 80,109  L 80,108  L 78,108  L 78,107  L 76,107  L 76,106  L 74,106  L 74,105  L 72,105  L 72,104  Z  " style="fill:rgb(0, 0, 0); fill-opacity:1.000; stroke:none;" />
 <path d="  M 45,20  L 46,20  L 46,19  L 45,19  L 45,18  L 46,18  L 46,17  L 45,17  L 45,16  L 46,16  L 46,14  L 45,14  L 45,12  L 46,12  L 46,10  L 45,10  L 45,8  L 46,8  L 46,7  L 45,7  L 45,5  L 39,5  L 39,7  L 38,7  L 38,8  L 39,8  L 39,33  L 38,33  L 38,55  L 39,55  L 39,56  L 40,56  L 40,58  L 42,58  L 42,59  L 55,59  L 55,58  L 61,58  L 61,57  L 64,57  L 64,56  L 65,56  L 65,53  L 64,53  L 64,52  L 65,52  L 65,51  L 64,51  L 64,30  L 65,30  L 65,29  L 64,29  L 64,28  L 65,28  L 65,27  L 64,27  L 64,26  L 65,26  L 65,25  L 64,25  L 64,24  L 65,24  L 65,23  L 64,23  L 64,22  L 65,22  L 65,20  L 64,20  L 64,7  L 59,7  L 59,8  L 58,8  L 58,12  L 59,12  L 59,14  L 58,14  L 58,15  L 59,15  L 59,17  L 58,17  L 58,18  L 59,18  L 59,28  L 58,28  L 58,29  L 49,29  L 49,28  L 48,28  L 48,29  L 46,29  L 46,28  L 45,28  Z  M 58,52  L 55,52  L 55,53  L 44,53  L 44,43  L 45,43  L 45,35  L 46,35  L 46,34  L 58,34  Z  " style="fill:rgb(0, 0, 0); fill-opacity:1.000; stroke:none;" />
 <path d="  M 50,74  L 48,74  L 48,73  L 47,73  L 47,74  L 45,74  L 45,77  L 46,77  L 46,78  L 47,78  L 47,77  L 50,77  Z  " style="fill:rgb(0, 0, 0); fill-opacity:1.000; stroke:none;" />
 <path d="  M 78,23  L 77,23  L 77,24  L 78,24  L 78,27  L 77,27  L 77,73  L 78,73  L 78,74  L 79,74  L 79,73  L 81,73  L 81,71  L 82,71  L 82,68  L 83,68  L 83,67  L 82,67  L 82,66  L 83,66  L 83,65  L 82,65  L 82,64  L 83,64  L 83,35  L 84,35  L 84,34  L 85,34  L 85,33  L 89,33  L 89,32  L 104,32  L 104,31  L 105,31  L 105,26  L 94,26  L 94,27  L 93,27  L 93,26  L 90,26  L 90,27  L 89,27  L 89,26  L 88,26  L 88,27  L 83,27  L 83,16  L 84,16  L 84,13  L 83,13  L 83,12  L 84,12  L 84,10  L 83,10  L 83,5  L 82,5  L 82,4  L 80,4  L 80,3  L 79,3  L 79,4  L 78,4  Z  " style="fill:rgb(0, 0, 0); fill-opacity:1.000; stroke:none;" />
</svg>
