<?xml version="1.0" encoding="UTF-8" standalone="no"?>
<!DOCTYPE svg PUBLIC "-//W3C//DTD SVG 1.1//EN" 
  "http://www.w3.org/Graphics/SVG/1.1/DTD/svg11.dtd">
<svg width="106" height="126"
     xmlns="http://www.w3.org/2000/svg" version="1.1">
 <path d="  M 1,40  L 2,40  L 2,42  L 1,42  L 1,44  L 2,44  L 2,47  L 1,47  L 1,48  L 2,48  L 2,54  L 3,54  L 3,56  L 4,56  L 4,58  L 6,58  L 6,59  L 12,59  L 12,58  L 16,58  L 16,57  L 20,57  L 20,56  L 23,56  L 23,55  L 26,55  L 26,56  L 27,56  L 27,55  L 29,55  L 29,56  L 30,56  L 30,55  L 32,55  L 32,54  L 31,54  L 31,39  L 32,39  L 32,38  L 31,38  L 31,36  L 32,36  L 32,33  L 31,33  L 31,32  L 32,32  L 32,30  L 31,30  L 31,28  L 32,28  L 32,25  L 31,25  L 31,24  L 32,24  L 32,9  L 31,9  L 31,8  L 30,8  L 30,7  L 26,7  L 26,8  L 25,8  L 25,29  L 24,29  L 24,30  L 22,30  L 22,29  L 15,29  L 15,30  L 14,30  L 14,29  L 13,29  L 13,30  L 8,30  L 8,29  L 7,29  L 7,28  L 8,28  L 8,27  L 7,27  L 7,24  L 8,24  L 8,23  L 7,23  L 7,17  L 8,17  L 8,15  L 7,15  L 7,14  L 8,14  L 8,11  L 7,11  L 7,2  L 6,2  L 6,1  L 3,1  L 3,2  L 2,2  L 2,3  L 1,3  L 1,20  L 2,20  L 2,21  L 1,21  L 1,32  L 2,32  L 2,33  L 1,33  L 1,36  L 2,36  L 2,37  L 1,37  Z  M 24,35  L 24,36  L 25,36  L 25,46  L 24,46  L 24,47  L 25,47  L 25,48  L 24,48  L 24,50  L 22,50  L 22,51  L 13,51  L 13,52  L 8,52  L 8,36  L 9,36  L 9,35  Z  " style="fill:rgb(0, 0, 0); fill-opacity:1.000; stroke:none;" />
 <path d="  M 35,92  L 35,93  L 34,93  L 34,94  L 33,94  L 33,97  L 32,97  L 32,98  L 31,98  L 31,101  L 30,101  L 30,103  L 29,103  L 29,106  L 28,106  L 28,111  L 27,111  L 27,113  L 28,113  L 28,118  L 29,118  L 29,119  L 30,119  L 30,121  L 31,121  L 31,122  L 32,122  L 32,123  L 35,123  L 35,124  L 38,124  L 38,125  L 43,125  L 43,126  L 58,126  L 58,125  L 62,125  L 62,124  L 66,124  L 66,123  L 69,123  L 69,122  L 71,122  L 71,121  L 74,121  L 74,120  L 76,120  L 76,119  L 78,119  L 78,118  L 79,118  L 79,117  L 80,117  L 80,116  L 81,116  L 81,115  L 82,115  L 82,114  L 83,114  L 83,112  L 84,112  L 84,111  L 85,111  L 85,109  L 86,109  L 86,108  L 87,108  L 87,105  L 88,105  L 88,102  L 89,102  L 89,92  L 88,92  L 88,90  L 89,90  L 89,87  L 88,87  L 88,86  L 87,86  L 87,84  L 85,84  L 85,83  L 84,83  L 84,82  L 83,82  L 83,81  L 79,81  L 79,80  L 74,80  L 74,79  L 61,79  L 61,78  L 54,78  L 54,77  L 52,77  L 52,78  L 49,78  L 49,79  L 48,79  L 48,80  L 47,80  L 47,81  L 46,81  L 46,82  L 45,82  L 45,83  L 44,83  L 44,84  L 43,84  L 43,85  L 42,85  L 42,86  L 41,86  L 41,87  L 40,87  L 40,88  L 39,88  L 39,89  L 37,89  L 37,90  L 36,90  L 36,92  Z  M 41,119  L 41,118  L 38,118  L 38,117  L 37,117  L 37,116  L 35,116  L 35,115  L 34,115  L 34,106  L 35,106  L 35,104  L 36,104  L 36,100  L 37,100  L 37,98  L 38,98  L 38,97  L 39,97  L 39,96  L 40,96  L 40,95  L 41,95  L 41,94  L 42,94  L 42,93  L 43,93  L 43,92  L 44,92  L 44,91  L 45,91  L 45,90  L 46,90  L 46,89  L 48,89  L 48,88  L 50,88  L 50,87  L 53,87  L 53,86  L 58,86  L 58,85  L 59,85  L 59,86  L 61,86  L 61,85  L 64,85  L 64,86  L 71,86  L 71,87  L 77,87  L 77,88  L 79,88  L 79,89  L 80,89  L 80,91  L 81,91  L 81,92  L 82,92  L 82,102  L 81,102  L 81,103  L 80,103  L 80,106  L 79,106  L 79,108  L 78,108  L 78,110  L 77,110  L 77,111  L 76,111  L 76,112  L 75,112  L 75,113  L 74,113  L 74,114  L 72,114  L 72,115  L 70,115  L 70,116  L 67,116  L 67,117  L 64,117  L 64,118  L 61,118  L 61,119  Z  " style="fill:rgb(0, 0, 0); fill-opacity:1.000; stroke:none;" />
 <path d="  M 59,52  L 60,52  L 60,54  L 59,54  L 59,55  L 52,55  L 52,56  L 47,56  L 47,55  L 45,55  L 45,53  L 46,53  L 46,51  L 45,51  L 45,47  L 46,47  L 46,45  L 45,45  L 45,43  L 46,43  L 46,36  L 50,36  L 50,35  L 52,35  L 52,36  L 53,36  L 53,35  L 55,35  L 55,36  L 57,36  L 57,35  L 59,35  L 59,36  L 60,36  L 60,39  L 59,39  L 59,44  L 60,44  L 60,45  L 59,45  Z  M 40,22  L 39,22  L 39,23  L 40,23  L 40,26  L 39,26  L 39,27  L 40,27  L 40,29  L 39,29  L 39,30  L 40,30  L 40,31  L 39,31  L 39,42  L 38,42  L 38,43  L 39,43  L 39,56  L 40,56  L 40,57  L 41,57  L 41,58  L 42,58  L 42,59  L 43,59  L 43,60  L 44,60  L 44,61  L 45,61  L 45,62  L 46,62  L 46,61  L 47,61  L 47,62  L 50,62  L 50,61  L 54,61  L 54,60  L 61,60  L 61,59  L 63,59  L 63,58  L 65,58  L 65,56  L 66,56  L 66,46  L 65,46  L 65,40  L 66,40  L 66,37  L 65,37  L 65,34  L 66,34  L 66,26  L 67,26  L 67,25  L 66,25  L 66,24  L 67,24  L 67,7  L 66,7  L 66,6  L 61,6  L 61,28  L 60,28  L 60,29  L 48,29  L 48,30  L 47,30  L 47,29  L 46,29  L 46,20  L 47,20  L 47,19  L 46,19  L 46,16  L 47,16  L 47,14  L 46,14  L 46,12  L 47,12  L 47,7  L 46,7  L 46,5  L 40,5  Z  " style="fill:rgb(0, 0, 0); fill-opacity:1.000; stroke:none;" />
 <path d="  M 78,17  L 77,17  L 77,18  L 78,18  L 78,20  L 77,20  L 77,21  L 78,21  L 78,24  L 77,24  L 77,26  L 78,26  L 78,28  L 77,28  L 77,30  L 78,30  L 78,31  L 77,31  L 77,38  L 78,38  L 78,41  L 77,41  L 77,42  L 78,42  L 78,48  L 79,48  L 79,54  L 80,54  L 80,56  L 79,56  L 79,58  L 80,58  L 80,67  L 81,67  L 81,69  L 83,69  L 83,68  L 85,68  L 85,56  L 84,56  L 84,55  L 85,55  L 85,54  L 84,54  L 84,36  L 85,36  L 85,35  L 90,35  L 90,34  L 105,34  L 105,33  L 106,33  L 106,27  L 104,27  L 104,26  L 103,26  L 103,27  L 88,27  L 88,28  L 84,28  L 84,27  L 83,27  L 83,22  L 84,22  L 84,2  L 83,2  L 83,0  L 80,0  L 80,1  L 79,1  L 79,5  L 78,5  Z  " style="fill:rgb(0, 0, 0); fill-opacity:1.000; stroke:none;" />
</svg>
