<?xml version="1.0" encoding="UTF-8" standalone="no"?>
<!DOCTYPE svg PUBLIC "-//W3C//DTD SVG 1.1//EN" 
  "http://www.w3.org/Graphics/SVG/1.1/DTD/svg11.dtd">
<svg width="104" height="136"
     xmlns="http://www.w3.org/2000/svg" version="1.1">
 <path d="  M 13,61  L 13,60  L 18,60  L 18,59  L 22,59  L 22,58  L 24,58  L 24,59  L 26,59  L 26,58  L 28,58  L 28,59  L 33,59  L 33,60  L 34,60  L 34,59  L 37,59  L 37,55  L 36,55  L 36,54  L 35,54  L 35,53  L 34,53  L 34,52  L 32,52  L 32,51  L 31,51  L 31,50  L 32,50  L 32,49  L 31,49  L 31,7  L 30,7  L 30,6  L 26,6  L 26,7  L 25,7  L 25,9  L 24,9  L 24,11  L 25,11  L 25,13  L 24,13  L 24,14  L 25,14  L 25,17  L 24,17  L 24,23  L 25,23  L 25,24  L 24,24  L 24,30  L 25,30  L 25,32  L 24,32  L 24,33  L 9,33  L 9,32  L 8,32  L 8,1  L 5,1  L 5,0  L 4,0  L 4,1  L 2,1  L 2,4  L 1,4  L 1,11  L 2,11  L 2,12  L 1,12  L 1,14  L 2,14  L 2,15  L 1,15  L 1,18  L 2,18  L 2,21  L 1,21  L 1,22  L 2,22  L 2,23  L 1,23  L 1,24  L 2,24  L 2,25  L 1,25  L 1,26  L 2,26  L 2,27  L 1,27  L 1,28  L 2,28  L 2,38  L 3,38  L 3,39  L 2,39  L 2,40  L 3,40  L 3,41  L 2,41  L 2,42  L 3,42  L 3,43  L 2,43  L 2,46  L 3,46  L 3,49  L 2,49  L 2,50  L 3,50  L 3,53  L 4,53  L 4,55  L 5,55  L 5,58  L 6,58  L 6,59  L 7,59  L 7,60  L 8,60  L 8,61  Z  M 9,40  L 10,40  L 10,39  L 23,39  L 23,40  L 24,40  L 24,42  L 23,42  L 23,43  L 24,43  L 24,45  L 23,45  L 23,47  L 24,47  L 24,52  L 22,52  L 22,53  L 20,53  L 20,52  L 19,52  L 19,53  L 9,53  Z  " style="fill:rgb(0, 0, 0); fill-opacity:1.000; stroke:none;" />
 <path d="  M 88,118  L 89,118  L 89,111  L 90,111  L 90,108  L 91,108  L 91,106  L 92,106  L 92,103  L 93,103  L 93,102  L 94,102  L 94,101  L 93,101  L 93,100  L 94,100  L 94,98  L 95,98  L 95,95  L 96,95  L 96,91  L 97,91  L 97,90  L 96,90  L 96,89  L 95,89  L 95,87  L 94,87  L 94,85  L 93,85  L 93,84  L 92,84  L 92,83  L 89,83  L 89,82  L 87,82  L 87,81  L 81,81  L 81,80  L 77,80  L 77,79  L 76,79  L 76,80  L 67,80  L 67,81  L 66,81  L 66,80  L 63,80  L 63,81  L 51,81  L 51,82  L 43,82  L 43,83  L 39,83  L 39,84  L 37,84  L 37,85  L 35,85  L 35,86  L 34,86  L 34,90  L 35,90  L 35,91  L 38,91  L 38,90  L 41,90  L 41,89  L 47,89  L 47,88  L 52,88  L 52,87  L 66,87  L 66,86  L 67,86  L 67,87  L 70,87  L 70,86  L 71,86  L 71,87  L 72,87  L 72,86  L 73,86  L 73,87  L 74,87  L 74,86  L 75,86  L 75,87  L 78,87  L 78,86  L 79,86  L 79,87  L 86,87  L 86,88  L 87,88  L 87,89  L 88,89  L 88,98  L 87,98  L 87,101  L 86,101  L 86,103  L 85,103  L 85,105  L 84,105  L 84,109  L 83,109  L 83,113  L 82,113  L 82,119  L 81,119  L 81,120  L 82,120  L 82,122  L 81,122  L 81,131  L 80,131  L 80,133  L 81,133  L 81,136  L 87,136  L 87,134  L 88,134  Z  " style="fill:rgb(0, 0, 0); fill-opacity:1.000; stroke:none;" />
 <path d="  M 46,10  L 47,10  L 47,9  L 46,9  L 46,7  L 47,7  L 47,5  L 45,5  L 45,4  L 39,4  L 39,42  L 40,42  L 40,43  L 39,43  L 39,46  L 40,46  L 40,47  L 39,47  L 39,56  L 40,56  L 40,57  L 41,57  L 41,58  L 47,58  L 47,59  L 53,59  L 53,58  L 63,58  L 63,57  L 66,57  L 66,56  L 67,56  L 67,53  L 68,53  L 68,51  L 67,51  L 67,50  L 68,50  L 68,47  L 67,47  L 67,27  L 66,27  L 66,26  L 67,26  L 67,24  L 66,24  L 66,18  L 67,18  L 67,17  L 66,17  L 66,7  L 65,7  L 65,5  L 62,5  L 62,6  L 61,6  L 61,7  L 60,7  L 60,31  L 57,31  L 57,32  L 52,32  L 52,31  L 51,31  L 51,32  L 46,32  Z  M 60,49  L 59,49  L 59,50  L 58,50  L 58,51  L 56,51  L 56,50  L 55,50  L 55,51  L 51,51  L 51,52  L 50,52  L 50,51  L 47,51  L 47,38  L 49,38  L 49,37  L 54,37  L 54,38  L 55,38  L 55,37  L 58,37  L 58,38  L 59,38  L 59,39  L 60,39  Z  " style="fill:rgb(0, 0, 0); fill-opacity:1.000; stroke:none;" />
 <path d="  M 102,1  L 101,1  L 101,0  L 97,0  L 97,1  L 96,1  L 96,2  L 95,2  L 95,10  L 96,10  L 96,17  L 94,17  L 94,18  L 92,18  L 92,17  L 91,17  L 91,18  L 87,18  L 87,19  L 85,19  L 85,20  L 83,20  L 83,19  L 82,19  L 82,18  L 83,18  L 83,2  L 82,2  L 82,1  L 78,1  L 78,2  L 77,2  L 77,3  L 76,3  L 76,24  L 77,24  L 77,27  L 76,27  L 76,28  L 77,28  L 77,56  L 78,56  L 78,57  L 77,57  L 77,58  L 78,58  L 78,60  L 79,60  L 79,62  L 82,62  L 82,61  L 83,61  L 83,59  L 84,59  L 84,31  L 83,31  L 83,27  L 85,27  L 85,26  L 87,26  L 87,25  L 91,25  L 91,24  L 97,24  L 97,23  L 98,23  L 98,39  L 97,39  L 97,40  L 98,40  L 98,43  L 97,43  L 97,44  L 98,44  L 98,47  L 97,47  L 97,56  L 96,56  L 96,63  L 97,63  L 97,64  L 98,64  L 98,65  L 99,65  L 99,64  L 101,64  L 101,63  L 102,63  L 102,61  L 103,61  L 103,52  L 104,52  L 104,18  L 103,18  L 103,11  L 102,11  L 102,10  L 103,10  L 103,9  L 102,9  Z  " style="fill:rgb(0, 0, 0); fill-opacity:1.000; stroke:none;" />
</svg>
