<?xml version="1.0" encoding="UTF-8" standalone="no"?>
<!DOCTYPE svg PUBLIC "-//W3C//DTD SVG 1.1//EN" 
  "http://www.w3.org/Graphics/SVG/1.1/DTD/svg11.dtd">
<svg width="102" height="135"
     xmlns="http://www.w3.org/2000/svg" version="1.1">
 <path d="  M 36,54  L 35,54  L 35,55  L 34,55  L 34,56  L 33,56  L 33,54  L 31,54  L 31,53  L 30,53  L 30,52  L 31,52  L 31,51  L 32,51  L 32,48  L 31,48  L 31,44  L 32,44  L 32,40  L 31,40  L 31,36  L 32,36  L 32,30  L 31,30  L 31,29  L 32,29  L 32,26  L 31,26  L 31,25  L 32,25  L 32,22  L 31,22  L 31,21  L 32,21  L 32,18  L 31,18  L 31,17  L 32,17  L 32,16  L 31,16  L 31,11  L 32,11  L 32,8  L 31,8  L 31,7  L 30,7  L 30,6  L 25,6  L 25,7  L 24,7  L 24,32  L 23,32  L 23,34  L 20,34  L 20,33  L 19,33  L 19,34  L 16,34  L 16,33  L 14,33  L 14,34  L 13,34  L 13,33  L 12,33  L 12,34  L 9,34  L 9,33  L 8,33  L 8,32  L 7,32  L 7,31  L 8,31  L 8,29  L 7,29  L 7,28  L 8,28  L 8,25  L 7,25  L 7,24  L 8,24  L 8,22  L 7,22  L 7,20  L 8,20  L 8,18  L 7,18  L 7,16  L 8,16  L 8,14  L 7,14  L 7,11  L 8,11  L 8,10  L 7,10  L 7,8  L 8,8  L 8,2  L 7,2  L 7,0  L 3,0  L 3,1  L 2,1  L 2,2  L 1,2  L 1,3  L 2,3  L 2,6  L 1,6  L 1,47  L 2,47  L 2,52  L 3,52  L 3,55  L 4,55  L 4,57  L 5,57  L 5,58  L 6,58  L 6,59  L 9,59  L 9,60  L 10,60  L 10,59  L 11,59  L 11,60  L 14,60  L 14,59  L 17,59  L 17,60  L 18,60  L 18,59  L 29,59  L 29,60  L 30,60  L 30,59  L 35,59  L 35,58  L 36,58  L 36,59  L 39,59  L 39,58  L 41,58  L 41,59  L 52,59  L 52,58  L 56,58  L 56,59  L 57,59  L 57,58  L 59,58  L 59,57  L 60,57  L 60,43  L 61,43  L 61,33  L 62,33  L 62,32  L 61,32  L 61,26  L 60,26  L 60,24  L 61,24  L 61,23  L 60,23  L 60,9  L 58,9  L 58,8  L 54,8  L 54,15  L 55,15  L 55,16  L 54,16  L 54,18  L 55,18  L 55,29  L 56,29  L 56,32  L 43,32  L 43,6  L 38,6  L 38,7  L 37,7  L 37,11  L 36,11  L 36,13  L 37,13  L 37,14  L 36,14  L 36,31  L 37,31  L 37,32  L 36,32  Z  M 8,52  L 8,50  L 7,50  L 7,47  L 8,47  L 8,40  L 23,40  L 23,43  L 24,43  L 24,45  L 23,45  L 23,47  L 24,47  L 24,49  L 23,49  L 23,51  L 20,51  L 20,52  Z  M 43,40  L 44,40  L 44,39  L 55,39  L 55,42  L 54,42  L 54,43  L 55,43  L 55,44  L 54,44  L 54,50  L 53,50  L 53,51  L 52,51  L 52,52  L 43,52  Z  " style="fill:rgb(0, 0, 0); fill-opacity:1.000; stroke:none;" />
 <path d="  M 37,91  L 38,91  L 38,90  L 37,90  L 37,87  L 38,87  L 38,82  L 35,82  L 35,81  L 34,81  L 34,82  L 31,82  L 31,85  L 30,85  L 30,109  L 29,109  L 29,110  L 30,110  L 30,128  L 31,128  L 31,130  L 32,130  L 32,131  L 33,131  L 33,133  L 34,133  L 34,134  L 36,134  L 36,135  L 57,135  L 57,134  L 58,134  L 58,135  L 60,135  L 60,134  L 67,134  L 67,133  L 75,133  L 75,132  L 81,132  L 81,131  L 82,131  L 82,132  L 83,132  L 83,131  L 89,131  L 89,130  L 90,130  L 90,131  L 92,131  L 92,130  L 95,130  L 95,131  L 96,131  L 96,130  L 100,130  L 100,129  L 101,129  L 101,128  L 102,128  L 102,123  L 101,123  L 101,122  L 96,122  L 96,123  L 93,123  L 93,124  L 85,124  L 85,125  L 84,125  L 84,124  L 83,124  L 83,125  L 76,125  L 76,126  L 68,126  L 68,127  L 65,127  L 65,126  L 64,126  L 64,127  L 60,127  L 60,128  L 50,128  L 50,129  L 49,129  L 49,128  L 48,128  L 48,129  L 45,129  L 45,128  L 44,128  L 44,129  L 43,129  L 43,128  L 42,128  L 42,129  L 41,129  L 41,128  L 38,128  L 38,125  L 37,125  L 37,124  L 38,124  L 38,123  L 37,123  Z  " style="fill:rgb(0, 0, 0); fill-opacity:1.000; stroke:none;" />
 <path d="  M 90,2  L 89,2  L 89,3  L 88,3  L 88,4  L 89,4  L 89,5  L 88,5  L 88,6  L 89,6  L 89,16  L 90,16  L 90,21  L 91,21  L 91,29  L 90,29  L 90,30  L 84,30  L 84,31  L 79,31  L 79,32  L 78,32  L 78,31  L 76,31  L 76,25  L 77,25  L 77,22  L 76,22  L 76,20  L 77,20  L 77,6  L 75,6  L 75,5  L 73,5  L 73,6  L 71,6  L 71,7  L 70,7  L 70,8  L 69,8  L 69,28  L 68,28  L 68,29  L 69,29  L 69,45  L 70,45  L 70,61  L 71,61  L 71,68  L 72,68  L 72,69  L 75,69  L 75,68  L 77,68  L 77,67  L 78,67  L 78,62  L 77,62  L 77,61  L 78,61  L 78,58  L 77,58  L 77,57  L 78,57  L 78,56  L 77,56  L 77,55  L 78,55  L 78,54  L 77,54  L 77,53  L 78,53  L 78,52  L 77,52  L 77,51  L 78,51  L 78,50  L 77,50  L 77,47  L 78,47  L 78,46  L 77,46  L 77,43  L 76,43  L 76,40  L 77,40  L 77,39  L 78,39  L 78,38  L 77,38  L 77,37  L 79,37  L 79,36  L 90,36  L 90,37  L 91,37  L 91,43  L 92,43  L 92,44  L 91,44  L 91,73  L 94,73  L 94,72  L 95,72  L 95,70  L 96,70  L 96,69  L 97,69  L 97,22  L 96,22  L 96,12  L 95,12  L 95,8  L 94,8  L 94,7  L 93,7  L 93,5  L 92,5  L 92,4  L 90,4  Z  " style="fill:rgb(0, 0, 0); fill-opacity:1.000; stroke:none;" />
</svg>
