<?xml version="1.0" encoding="UTF-8" standalone="no"?>
<!DOCTYPE svg PUBLIC "-//W3C//DTD SVG 1.1//EN" 
  "http://www.w3.org/Graphics/SVG/1.1/DTD/svg11.dtd">
<svg width="105" height="128"
     xmlns="http://www.w3.org/2000/svg" version="1.1">
 <path d="  M 1,40  L 2,40  L 2,46  L 3,46  L 3,48  L 4,48  L 4,50  L 5,50  L 5,52  L 7,52  L 7,53  L 8,53  L 8,54  L 13,54  L 13,53  L 19,53  L 19,52  L 25,52  L 25,53  L 27,53  L 27,52  L 29,52  L 29,53  L 30,53  L 30,51  L 32,51  L 32,52  L 33,52  L 33,53  L 34,53  L 34,52  L 37,52  L 37,53  L 41,53  L 41,54  L 43,54  L 43,53  L 44,53  L 44,54  L 52,54  L 52,53  L 56,53  L 56,52  L 57,52  L 57,53  L 58,53  L 58,52  L 62,52  L 62,48  L 63,48  L 63,47  L 62,47  L 62,40  L 63,40  L 63,39  L 62,39  L 62,32  L 63,32  L 63,6  L 62,6  L 62,5  L 61,5  L 61,4  L 59,4  L 59,5  L 57,5  L 57,27  L 54,27  L 54,28  L 53,28  L 53,27  L 52,27  L 52,28  L 49,28  L 49,27  L 46,27  L 46,28  L 43,28  L 43,27  L 42,27  L 42,20  L 43,20  L 43,19  L 42,19  L 42,17  L 43,17  L 43,13  L 42,13  L 42,12  L 43,12  L 43,11  L 42,11  L 42,10  L 43,10  L 43,9  L 42,9  L 42,3  L 37,3  L 37,4  L 36,4  L 36,5  L 35,5  L 35,14  L 36,14  L 36,15  L 35,15  L 35,18  L 36,18  L 36,19  L 35,19  L 35,33  L 34,33  L 34,35  L 35,35  L 35,37  L 34,37  L 34,40  L 35,40  L 35,41  L 34,41  L 34,45  L 32,45  L 32,43  L 31,43  L 31,41  L 32,41  L 32,40  L 33,40  L 33,38  L 32,38  L 32,36  L 31,36  L 31,33  L 32,33  L 32,32  L 33,32  L 33,30  L 32,30  L 32,28  L 31,28  L 31,25  L 32,25  L 32,22  L 31,22  L 31,15  L 32,15  L 32,14  L 31,14  L 31,12  L 30,12  L 30,11  L 31,11  L 31,8  L 32,8  L 32,6  L 31,6  L 31,5  L 30,5  L 30,4  L 25,4  L 25,5  L 24,5  L 24,6  L 23,6  L 23,16  L 24,16  L 24,19  L 23,19  L 23,20  L 24,20  L 24,21  L 23,21  L 23,24  L 24,24  L 24,27  L 23,27  L 23,29  L 8,29  L 8,28  L 7,28  L 7,12  L 8,12  L 8,11  L 7,11  L 7,4  L 8,4  L 8,3  L 7,3  L 7,0  L 3,0  L 3,1  L 2,1  L 2,7  L 1,7  L 1,8  L 2,8  L 2,11  L 1,11  L 1,12  L 2,12  L 2,14  L 1,14  L 1,16  L 2,16  L 2,18  L 1,18  L 1,20  L 2,20  L 2,21  L 1,21  L 1,24  L 2,24  L 2,26  L 1,26  Z  M 16,46  L 16,47  L 15,47  L 15,46  L 7,46  L 7,37  L 8,37  L 8,36  L 10,36  L 10,35  L 11,35  L 11,36  L 12,36  L 12,35  L 13,35  L 13,36  L 14,36  L 14,35  L 15,35  L 15,36  L 16,36  L 16,35  L 17,35  L 17,36  L 23,36  L 23,37  L 24,37  L 24,38  L 23,38  L 23,46  L 22,46  L 22,47  L 21,47  L 21,46  L 19,46  L 19,47  L 18,47  L 18,46  Z  M 56,34  L 56,35  L 55,35  L 55,36  L 56,36  L 56,43  L 55,43  L 55,46  L 54,46  L 54,47  L 53,47  L 53,46  L 51,46  L 51,47  L 44,47  L 44,46  L 43,46  L 43,33  L 55,33  L 55,34  Z  M 33,46  L 33,47  L 32,47  L 32,46  Z  " style="fill:rgb(0, 0, 0); fill-opacity:1.000; stroke:none;" />
 <path d="  M 66,75  L 66,74  L 61,74  L 61,75  L 58,75  L 58,76  L 57,76  L 57,79  L 56,79  L 56,80  L 55,80  L 55,82  L 54,82  L 54,83  L 53,83  L 53,85  L 52,85  L 52,86  L 51,86  L 51,88  L 50,88  L 50,89  L 49,89  L 49,91  L 48,91  L 48,92  L 47,92  L 47,94  L 46,94  L 46,95  L 45,95  L 45,97  L 43,97  L 43,99  L 42,99  L 42,101  L 41,101  L 41,102  L 40,102  L 40,103  L 39,103  L 39,104  L 38,104  L 38,106  L 37,106  L 37,107  L 36,107  L 36,108  L 35,108  L 35,110  L 34,110  L 34,111  L 33,111  L 33,112  L 32,112  L 32,113  L 31,113  L 31,115  L 30,115  L 30,116  L 29,116  L 29,117  L 28,117  L 28,118  L 27,118  L 27,119  L 26,119  L 26,120  L 25,120  L 25,121  L 24,121  L 24,122  L 23,122  L 23,123  L 22,123  L 22,124  L 21,124  L 21,125  L 22,125  L 22,128  L 27,128  L 27,127  L 28,127  L 28,126  L 29,126  L 29,125  L 31,125  L 31,124  L 32,124  L 32,123  L 33,123  L 33,121  L 34,121  L 34,120  L 35,120  L 35,119  L 36,119  L 36,118  L 37,118  L 37,117  L 38,117  L 38,116  L 39,116  L 39,114  L 40,114  L 40,113  L 41,113  L 41,111  L 42,111  L 42,110  L 43,110  L 43,109  L 44,109  L 44,107  L 45,107  L 45,106  L 46,106  L 46,104  L 47,104  L 47,103  L 48,103  L 48,102  L 49,102  L 49,100  L 50,100  L 50,99  L 52,99  L 52,98  L 53,98  L 53,99  L 54,99  L 54,100  L 56,100  L 56,101  L 58,101  L 58,102  L 59,102  L 59,103  L 60,103  L 60,104  L 61,104  L 61,105  L 63,105  L 63,106  L 64,106  L 64,107  L 65,107  L 65,108  L 67,108  L 67,109  L 68,109  L 68,110  L 70,110  L 70,111  L 71,111  L 71,112  L 73,112  L 73,113  L 75,113  L 75,114  L 76,114  L 76,115  L 78,115  L 78,116  L 80,116  L 80,117  L 82,117  L 82,118  L 83,118  L 83,119  L 85,119  L 85,120  L 88,120  L 88,121  L 89,121  L 89,122  L 94,122  L 94,123  L 96,123  L 96,124  L 97,124  L 97,123  L 98,123  L 98,124  L 99,124  L 99,123  L 100,123  L 100,124  L 103,124  L 103,123  L 105,123  L 105,119  L 104,119  L 104,118  L 102,118  L 102,117  L 96,117  L 96,116  L 92,116  L 92,115  L 90,115  L 90,114  L 88,114  L 88,113  L 87,113  L 87,112  L 85,112  L 85,111  L 83,111  L 83,110  L 82,110  L 82,109  L 80,109  L 80,108  L 77,108  L 77,107  L 76,107  L 76,106  L 75,106  L 75,105  L 73,105  L 73,104  L 71,104  L 71,103  L 70,103  L 70,102  L 69,102  L 69,101  L 68,101  L 68,100  L 66,100  L 66,99  L 64,99  L 64,97  L 62,97  L 62,96  L 61,96  L 61,95  L 59,95  L 59,94  L 58,94  L 58,91  L 57,91  L 57,90  L 58,90  L 58,89  L 59,89  L 59,88  L 60,88  L 60,87  L 61,87  L 61,86  L 62,86  L 62,85  L 63,85  L 63,84  L 64,84  L 64,83  L 65,83  L 65,81  L 66,81  L 66,78  L 67,78  L 67,77  L 66,77  L 66,76  L 67,76  L 67,75  Z  " style="fill:rgb(0, 0, 0); fill-opacity:1.000; stroke:none;" />
 <path d="  M 56,75  L 56,76  L 57,76  L 57,75  Z  " style="fill:rgb(0, 0, 0); fill-opacity:1.000; stroke:none;" />
 <path d="  M 78,44  L 79,44  L 79,43  L 78,43  L 78,42  L 79,42  L 79,32  L 80,32  L 80,30  L 79,30  L 79,29  L 80,29  L 80,28  L 81,28  L 81,27  L 85,27  L 85,26  L 91,26  L 91,25  L 95,25  L 95,26  L 96,26  L 96,41  L 97,41  L 97,42  L 96,42  L 96,46  L 97,46  L 97,47  L 96,47  L 96,49  L 97,49  L 97,51  L 96,51  L 96,53  L 97,53  L 97,55  L 96,55  L 96,57  L 97,57  L 97,59  L 96,59  L 96,61  L 97,61  L 97,63  L 96,63  L 96,64  L 97,64  L 97,68  L 101,68  L 101,67  L 102,67  L 102,64  L 103,64  L 103,38  L 104,38  L 104,37  L 103,37  L 103,34  L 104,34  L 104,33  L 103,33  L 103,32  L 104,32  L 104,31  L 103,31  L 103,30  L 104,30  L 104,29  L 103,29  L 103,28  L 104,28  L 104,21  L 103,21  L 103,11  L 102,11  L 102,10  L 101,10  L 101,9  L 98,9  L 98,11  L 97,11  L 97,16  L 96,16  L 96,17  L 95,17  L 95,18  L 90,18  L 90,19  L 89,19  L 89,18  L 88,18  L 88,19  L 84,19  L 84,20  L 80,20  L 80,11  L 81,11  L 81,2  L 80,2  L 80,1  L 76,1  L 76,2  L 75,2  L 75,3  L 74,3  L 74,9  L 73,9  L 73,19  L 72,19  L 72,31  L 71,31  L 71,32  L 72,32  L 72,35  L 71,35  L 71,36  L 72,36  L 72,39  L 71,39  L 71,59  L 70,59  L 70,61  L 71,61  L 71,63  L 70,63  L 70,64  L 71,64  L 71,65  L 74,65  L 74,64  L 75,64  L 75,63  L 76,63  L 76,61  L 77,61  L 77,56  L 78,56  Z  " style="fill:rgb(0, 0, 0); fill-opacity:1.000; stroke:none;" />
</svg>
