<?xml version="1.0" encoding="UTF-8" standalone="no"?>
<!DOCTYPE svg PUBLIC "-//W3C//DTD SVG 1.1//EN" 
  "http://www.w3.org/Graphics/SVG/1.1/DTD/svg11.dtd">
<svg width="105" height="134"
     xmlns="http://www.w3.org/2000/svg" version="1.1">
 <path d="  M 25,6  L 25,7  L 24,7  L 24,26  L 25,26  L 25,29  L 24,29  L 24,30  L 23,30  L 23,31  L 18,31  L 18,30  L 16,30  L 16,31  L 13,31  L 13,30  L 12,30  L 12,31  L 9,31  L 9,30  L 8,30  L 8,12  L 7,12  L 7,10  L 8,10  L 8,8  L 7,8  L 7,6  L 8,6  L 8,4  L 7,4  L 7,1  L 5,1  L 5,0  L 3,0  L 3,1  L 2,1  L 2,3  L 1,3  L 1,6  L 2,6  L 2,7  L 1,7  L 1,25  L 2,25  L 2,26  L 1,26  L 1,29  L 2,29  L 2,30  L 1,30  L 1,33  L 2,33  L 2,34  L 1,34  L 1,37  L 2,37  L 2,49  L 3,49  L 3,52  L 4,52  L 4,53  L 5,53  L 5,55  L 6,55  L 6,56  L 7,56  L 7,57  L 9,57  L 9,58  L 10,58  L 10,57  L 19,57  L 19,56  L 32,56  L 32,57  L 33,57  L 33,56  L 38,56  L 38,55  L 41,55  L 41,56  L 43,56  L 43,57  L 46,57  L 46,56  L 47,56  L 47,57  L 48,57  L 48,56  L 56,56  L 56,55  L 60,55  L 60,54  L 62,54  L 62,50  L 63,50  L 63,37  L 64,37  L 64,8  L 63,8  L 63,7  L 60,7  L 60,8  L 58,8  L 58,13  L 59,13  L 59,14  L 58,14  L 58,16  L 59,16  L 59,30  L 44,30  L 44,10  L 45,10  L 45,7  L 44,7  L 44,6  L 43,6  L 43,5  L 42,5  L 42,4  L 39,4  L 39,5  L 38,5  L 38,23  L 37,23  L 37,25  L 38,25  L 38,26  L 37,26  L 37,28  L 38,28  L 38,38  L 37,38  L 37,42  L 38,42  L 38,43  L 37,43  L 37,52  L 34,52  L 34,51  L 33,51  L 33,50  L 32,50  L 32,7  L 31,7  L 31,6  L 30,6  L 30,5  L 28,5  L 28,6  Z  M 24,47  L 23,47  L 23,49  L 19,49  L 19,50  L 18,50  L 18,49  L 16,49  L 16,50  L 10,50  L 10,49  L 8,49  L 8,46  L 7,46  L 7,45  L 8,45  L 8,42  L 7,42  L 7,41  L 8,41  L 8,37  L 23,37  L 23,38  L 24,38  Z  M 48,37  L 48,36  L 51,36  L 51,37  L 52,37  L 52,36  L 53,36  L 53,37  L 57,37  L 57,40  L 56,40  L 56,42  L 57,42  L 57,43  L 56,43  L 56,45  L 57,45  L 57,47  L 56,47  L 56,49  L 52,49  L 52,50  L 47,50  L 47,49  L 46,49  L 46,48  L 45,48  L 45,46  L 46,46  L 46,43  L 45,43  L 45,38  L 46,38  L 46,37  Z  " style="fill:rgb(0, 0, 0); fill-opacity:1.000; stroke:none;" />
 <path d="  M 51,92  L 53,92  L 53,91  L 54,91  L 54,90  L 56,90  L 56,89  L 57,89  L 57,88  L 59,88  L 59,87  L 60,87  L 60,86  L 63,86  L 63,85  L 65,85  L 65,84  L 68,84  L 68,83  L 70,83  L 70,82  L 73,82  L 73,83  L 75,83  L 75,82  L 76,82  L 76,83  L 80,83  L 80,84  L 81,84  L 81,83  L 82,83  L 82,84  L 86,84  L 86,85  L 87,85  L 87,84  L 88,84  L 88,85  L 90,85  L 90,86  L 93,86  L 93,87  L 94,87  L 94,88  L 95,88  L 95,89  L 96,89  L 96,91  L 97,91  L 97,92  L 96,92  L 96,93  L 97,93  L 97,102  L 96,102  L 96,107  L 95,107  L 95,110  L 94,110  L 94,112  L 93,112  L 93,114  L 92,114  L 92,115  L 91,115  L 91,117  L 90,117  L 90,118  L 89,118  L 89,119  L 88,119  L 88,120  L 87,120  L 87,121  L 86,121  L 86,122  L 85,122  L 85,123  L 82,123  L 82,124  L 80,124  L 80,125  L 78,125  L 78,126  L 75,126  L 75,127  L 72,127  L 72,128  L 49,128  L 49,127  L 45,127  L 45,126  L 41,126  L 41,125  L 39,125  L 39,124  L 38,124  L 38,123  L 37,123  L 37,122  L 36,122  L 36,118  L 35,118  L 35,117  L 36,117  L 36,112  L 37,112  L 37,108  L 38,108  L 38,107  L 39,107  L 39,104  L 40,104  L 40,103  L 41,103  L 41,101  L 42,101  L 42,100  L 43,100  L 43,99  L 44,99  L 44,98  L 45,98  L 45,97  L 46,97  L 46,96  L 47,96  L 47,95  L 48,95  L 48,94  L 50,94  L 50,93  L 51,93  Z  M 45,133  L 45,134  L 47,134  L 47,133  L 48,133  L 48,134  L 73,134  L 73,133  L 80,133  L 80,132  L 81,132  L 81,131  L 84,131  L 84,130  L 86,130  L 86,129  L 88,129  L 88,128  L 90,128  L 90,127  L 91,127  L 91,126  L 93,126  L 93,124  L 94,124  L 94,123  L 95,123  L 95,122  L 96,122  L 96,121  L 97,121  L 97,119  L 98,119  L 98,117  L 99,117  L 99,116  L 100,116  L 100,115  L 101,115  L 101,112  L 102,112  L 102,110  L 103,110  L 103,105  L 104,105  L 104,100  L 105,100  L 105,87  L 104,87  L 104,86  L 103,86  L 103,85  L 102,85  L 102,84  L 101,84  L 101,83  L 100,83  L 100,81  L 98,81  L 98,80  L 95,80  L 95,79  L 94,79  L 94,78  L 89,78  L 89,77  L 82,77  L 82,76  L 78,76  L 78,75  L 74,75  L 74,74  L 73,74  L 73,75  L 70,75  L 70,74  L 69,74  L 69,75  L 65,75  L 65,76  L 62,76  L 62,77  L 58,77  L 58,78  L 57,78  L 57,79  L 55,79  L 55,80  L 53,80  L 53,81  L 52,81  L 52,82  L 51,82  L 51,83  L 50,83  L 50,85  L 48,85  L 48,86  L 47,86  L 47,87  L 45,87  L 45,88  L 44,88  L 44,89  L 43,89  L 43,90  L 42,90  L 42,92  L 41,92  L 41,93  L 40,93  L 40,95  L 39,95  L 39,96  L 38,96  L 38,97  L 37,97  L 37,98  L 36,98  L 36,100  L 35,100  L 35,101  L 34,101  L 34,102  L 33,102  L 33,104  L 32,104  L 32,106  L 31,106  L 31,108  L 30,108  L 30,109  L 31,109  L 31,110  L 30,110  L 30,113  L 29,113  L 29,116  L 28,116  L 28,123  L 29,123  L 29,126  L 30,126  L 30,127  L 31,127  L 31,129  L 33,129  L 33,130  L 34,130  L 34,131  L 37,131  L 37,132  L 40,132  L 40,133  Z  " style="fill:rgb(0, 0, 0); fill-opacity:1.000; stroke:none;" />
 <path d="  M 91,30  L 91,29  L 95,29  L 95,33  L 96,33  L 96,35  L 95,35  L 95,37  L 96,37  L 96,39  L 95,39  L 95,41  L 96,41  L 96,42  L 95,42  L 95,50  L 94,50  L 94,51  L 95,51  L 95,54  L 94,54  L 94,55  L 95,55  L 95,56  L 94,56  L 94,57  L 95,57  L 95,58  L 94,58  L 94,59  L 95,59  L 95,60  L 94,60  L 94,63  L 95,63  L 95,66  L 96,66  L 96,67  L 97,67  L 97,68  L 100,68  L 100,67  L 101,67  L 101,66  L 102,66  L 102,41  L 103,41  L 103,40  L 102,40  L 102,37  L 103,37  L 103,36  L 102,36  L 102,34  L 103,34  L 103,32  L 102,32  L 102,31  L 103,31  L 103,28  L 102,28  L 102,21  L 101,21  L 101,16  L 100,16  L 100,10  L 99,10  L 99,4  L 98,4  L 98,1  L 92,1  L 92,6  L 91,6  L 91,7  L 92,7  L 92,11  L 93,11  L 93,14  L 94,14  L 94,16  L 95,16  L 95,21  L 94,21  L 94,22  L 93,22  L 93,21  L 92,21  L 92,22  L 87,22  L 87,23  L 85,23  L 85,24  L 82,24  L 82,25  L 81,25  L 81,24  L 80,24  L 80,18  L 81,18  L 81,15  L 80,15  L 80,14  L 81,14  L 81,1  L 77,1  L 77,2  L 76,2  L 76,3  L 75,3  L 75,5  L 74,5  L 74,7  L 73,7  L 73,18  L 72,18  L 72,19  L 73,19  L 73,20  L 72,20  L 72,31  L 71,31  L 71,32  L 72,32  L 72,55  L 73,55  L 73,56  L 72,56  L 72,59  L 73,59  L 73,62  L 74,62  L 74,63  L 75,63  L 75,65  L 77,65  L 77,64  L 79,64  L 79,63  L 80,63  L 80,34  L 79,34  L 79,33  L 80,33  L 80,32  L 81,32  L 81,31  L 85,31  L 85,30  Z  " style="fill:rgb(0, 0, 0); fill-opacity:1.000; stroke:none;" />
</svg>
