<?xml version="1.0" encoding="UTF-8" standalone="no"?>
<!DOCTYPE svg PUBLIC "-//W3C//DTD SVG 1.1//EN" 
  "http://www.w3.org/Graphics/SVG/1.1/DTD/svg11.dtd">
<svg width="104" height="107"
     xmlns="http://www.w3.org/2000/svg" version="1.1">
 <path d="  M 1,46  L 2,46  L 2,49  L 1,49  L 1,50  L 2,50  L 2,52  L 1,52  L 1,54  L 2,54  L 2,61  L 1,61  L 1,62  L 2,62  L 2,72  L 1,72  L 1,73  L 2,73  L 2,80  L 3,80  L 3,82  L 4,82  L 4,83  L 5,83  L 5,84  L 11,84  L 11,83  L 13,83  L 13,82  L 16,82  L 16,81  L 20,81  L 20,80  L 21,80  L 21,79  L 25,79  L 25,78  L 28,78  L 28,77  L 35,77  L 35,76  L 38,76  L 38,58  L 39,58  L 39,56  L 38,56  L 38,53  L 39,53  L 39,52  L 38,52  L 38,51  L 39,51  L 39,48  L 38,48  L 38,46  L 39,46  L 39,42  L 38,42  L 38,41  L 39,41  L 39,36  L 38,36  L 38,34  L 39,34  L 39,32  L 38,32  L 38,30  L 39,30  L 39,16  L 38,16  L 38,15  L 39,15  L 39,12  L 38,12  L 38,11  L 35,11  L 35,10  L 34,10  L 34,11  L 32,11  L 32,12  L 31,12  L 31,13  L 30,13  L 30,15  L 31,15  L 31,16  L 30,16  L 30,23  L 31,23  L 31,24  L 30,24  L 30,39  L 27,39  L 27,40  L 25,40  L 25,39  L 22,39  L 22,40  L 17,40  L 17,39  L 16,39  L 16,40  L 11,40  L 11,41  L 8,41  L 8,40  L 9,40  L 9,39  L 8,39  L 8,24  L 9,24  L 9,23  L 8,23  L 8,20  L 9,20  L 9,19  L 8,19  L 8,18  L 9,18  L 9,12  L 8,12  L 8,11  L 4,11  L 4,12  L 3,12  L 3,13  L 2,13  L 2,17  L 1,17  L 1,19  L 2,19  L 2,20  L 1,20  Z  M 29,70  L 29,71  L 26,71  L 26,72  L 23,72  L 23,73  L 18,73  L 18,74  L 17,74  L 17,73  L 16,73  L 16,74  L 12,74  L 12,75  L 9,75  L 9,74  L 8,74  L 8,56  L 9,56  L 9,55  L 8,55  L 8,53  L 9,53  L 9,51  L 8,51  L 8,50  L 9,50  L 9,49  L 8,49  L 8,48  L 9,48  L 9,45  L 12,45  L 12,46  L 30,46  L 30,70  Z  " style="fill:rgb(0, 0, 0); fill-opacity:1.000; stroke:none;" />
 <path d="  M 88,46  L 82,46  L 82,47  L 78,47  L 78,48  L 74,48  L 74,47  L 73,47  L 73,48  L 70,48  L 70,47  L 69,47  L 69,48  L 68,48  L 68,49  L 67,49  L 67,51  L 66,51  L 66,60  L 67,60  L 67,67  L 62,67  L 62,68  L 54,68  L 54,67  L 53,67  L 53,66  L 52,66  L 52,47  L 54,47  L 54,46  L 69,46  L 69,45  L 70,45  L 70,43  L 72,43  L 72,42  L 73,42  L 73,40  L 74,40  L 74,38  L 75,38  L 75,37  L 74,37  L 74,36  L 76,36  L 76,35  L 79,35  L 79,34  L 84,34  L 84,33  L 87,33  L 87,32  L 96,32  L 96,34  L 97,34  L 97,42  L 96,42  L 96,44  L 94,44  L 94,45  L 93,45  L 93,44  L 92,44  L 92,45  L 88,45  Z  M 65,32  L 66,32  L 66,33  L 67,33  L 67,34  L 68,34  L 68,35  L 67,35  L 67,37  L 66,37  L 66,38  L 59,38  L 59,39  L 57,39  L 57,38  L 56,38  L 56,39  L 51,39  L 51,13  L 50,13  L 50,12  L 48,12  L 48,11  L 46,11  L 46,13  L 45,13  L 45,15  L 44,15  L 44,16  L 45,16  L 45,17  L 44,17  L 44,20  L 45,20  L 45,21  L 44,21  L 44,22  L 45,22  L 45,23  L 44,23  L 44,24  L 45,24  L 45,25  L 44,25  L 44,26  L 45,26  L 45,28  L 44,28  L 44,30  L 45,30  L 45,33  L 44,33  L 44,34  L 45,34  L 45,58  L 46,58  L 46,70  L 47,70  L 47,74  L 48,74  L 48,75  L 49,75  L 49,76  L 51,76  L 51,77  L 52,77  L 52,76  L 53,76  L 53,77  L 54,77  L 54,76  L 57,76  L 57,75  L 60,75  L 60,74  L 63,74  L 63,73  L 65,73  L 65,72  L 67,72  L 67,73  L 68,73  L 68,72  L 69,72  L 69,71  L 70,71  L 70,70  L 71,70  L 71,69  L 72,69  L 72,68  L 73,68  L 73,67  L 74,67  L 74,66  L 73,66  L 73,65  L 72,65  L 72,62  L 71,62  L 71,61  L 72,61  L 72,58  L 73,58  L 73,56  L 74,56  L 74,54  L 77,54  L 77,55  L 80,55  L 80,54  L 81,54  L 81,55  L 84,55  L 84,54  L 86,54  L 86,53  L 87,53  L 87,54  L 88,54  L 88,53  L 92,53  L 92,52  L 93,52  L 93,51  L 96,51  L 96,52  L 95,52  L 95,53  L 96,53  L 96,58  L 97,58  L 97,105  L 96,105  L 96,107  L 102,107  L 102,106  L 103,106  L 103,98  L 104,98  L 104,97  L 103,97  L 103,96  L 104,96  L 104,10  L 103,10  L 103,1  L 102,1  L 102,0  L 98,0  L 98,1  L 97,1  L 97,2  L 96,2  L 96,24  L 91,24  L 91,25  L 86,25  L 86,26  L 85,26  L 85,25  L 84,25  L 84,26  L 82,26  L 82,27  L 81,27  L 81,26  L 80,26  L 80,27  L 77,27  L 77,28  L 76,28  L 76,29  L 72,29  L 72,28  L 73,28  L 73,27  L 72,27  L 72,21  L 71,21  L 71,13  L 70,13  L 70,12  L 69,12  L 69,11  L 65,11  Z  " style="fill:rgb(0, 0, 0); fill-opacity:1.000; stroke:none;" />
</svg>
