<?xml version="1.0" encoding="UTF-8" standalone="no"?>
<!DOCTYPE svg PUBLIC "-//W3C//DTD SVG 1.1//EN" 
  "http://www.w3.org/Graphics/SVG/1.1/DTD/svg11.dtd">
<svg width="98" height="178"
     xmlns="http://www.w3.org/2000/svg" version="1.1">
 <path d="  M 22,92  L 22,93  L 18,93  L 18,94  L 13,94  L 13,95  L 12,95  L 12,94  L 11,94  L 11,95  L 2,95  L 2,97  L 0,97  L 0,100  L 1,100  L 1,101  L 2,101  L 2,102  L 4,102  L 4,103  L 7,103  L 7,102  L 8,102  L 8,103  L 10,103  L 10,102  L 13,102  L 13,101  L 14,101  L 14,102  L 15,102  L 15,101  L 22,101  L 22,100  L 28,100  L 28,99  L 32,99  L 32,98  L 37,98  L 37,97  L 44,97  L 44,96  L 69,96  L 69,95  L 70,95  L 70,96  L 73,96  L 73,95  L 74,95  L 74,96  L 76,96  L 76,95  L 79,95  L 79,96  L 80,96  L 80,95  L 93,95  L 93,94  L 94,94  L 94,95  L 96,95  L 96,94  L 97,94  L 97,93  L 98,93  L 98,86  L 91,86  L 91,87  L 90,87  L 90,86  L 89,86  L 89,87  L 84,87  L 84,88  L 81,88  L 81,87  L 80,87  L 80,88  L 73,88  L 73,89  L 54,89  L 54,74  L 55,74  L 55,68  L 56,68  L 56,65  L 58,65  L 58,64  L 59,64  L 59,63  L 60,63  L 60,64  L 62,64  L 62,63  L 68,63  L 68,62  L 71,62  L 71,61  L 73,61  L 73,60  L 75,60  L 75,59  L 76,59  L 76,58  L 79,58  L 79,57  L 82,57  L 82,56  L 84,56  L 84,51  L 85,51  L 85,39  L 86,39  L 86,32  L 87,32  L 87,31  L 86,31  L 86,24  L 87,24  L 87,18  L 88,18  L 88,14  L 89,14  L 89,11  L 90,11  L 90,7  L 89,7  L 89,6  L 88,6  L 88,5  L 87,5  L 87,4  L 84,4  L 84,5  L 83,5  L 83,14  L 82,14  L 82,19  L 81,19  L 81,27  L 80,27  L 80,29  L 75,29  L 75,30  L 65,30  L 65,31  L 60,31  L 60,32  L 59,32  L 59,31  L 58,31  L 58,30  L 57,30  L 57,28  L 58,28  L 58,26  L 59,26  L 59,14  L 60,14  L 60,8  L 58,8  L 58,7  L 57,7  L 57,8  L 56,8  L 56,9  L 55,9  L 55,11  L 54,11  L 54,23  L 53,23  L 53,31  L 52,31  L 52,32  L 53,32  L 53,34  L 52,34  L 52,37  L 51,37  L 51,41  L 49,41  L 49,40  L 48,40  L 48,33  L 47,33  L 47,32  L 46,32  L 46,23  L 45,23  L 45,19  L 44,19  L 44,3  L 41,3  L 41,9  L 40,9  L 40,12  L 41,12  L 41,32  L 40,32  L 40,33  L 37,33  L 37,34  L 24,34  L 24,35  L 18,35  L 18,34  L 17,34  L 17,31  L 18,31  L 18,30  L 17,30  L 17,29  L 18,29  L 18,3  L 17,3  L 17,1  L 12,1  L 12,3  L 11,3  L 11,18  L 12,18  L 12,19  L 11,19  L 11,20  L 12,20  L 12,21  L 11,21  L 11,22  L 12,22  L 12,23  L 11,23  L 11,33  L 10,33  L 10,40  L 9,40  L 9,43  L 10,43  L 10,44  L 9,44  L 9,47  L 10,47  L 10,58  L 11,58  L 11,63  L 12,63  L 12,65  L 13,65  L 13,67  L 14,67  L 14,68  L 17,68  L 17,69  L 24,69  L 24,68  L 31,68  L 31,67  L 40,67  L 40,66  L 45,66  L 45,68  L 47,68  L 47,70  L 48,70  L 48,77  L 47,77  L 47,78  L 48,78  L 48,79  L 47,79  L 47,90  L 38,90  L 38,91  L 30,91  L 30,92  L 29,92  L 29,91  L 28,91  L 28,92  Z  M 26,43  L 26,42  L 30,42  L 30,43  L 31,43  L 31,42  L 41,42  L 41,43  L 42,43  L 42,55  L 41,55  L 41,56  L 42,56  L 42,57  L 40,57  L 40,58  L 30,58  L 30,59  L 26,59  L 26,60  L 25,60  L 25,59  L 24,59  L 24,60  L 19,60  L 19,59  L 18,59  L 18,58  L 17,58  L 17,55  L 16,55  L 16,47  L 17,47  L 17,44  L 19,44  L 19,43  Z  M 65,38  L 65,37  L 74,37  L 74,36  L 80,36  L 80,39  L 79,39  L 79,45  L 78,45  L 78,49  L 77,49  L 77,50  L 75,50  L 75,51  L 74,51  L 74,52  L 71,52  L 71,53  L 67,53  L 67,54  L 65,54  L 65,55  L 62,55  L 62,56  L 61,56  L 61,57  L 58,57  L 58,56  L 57,56  L 57,55  L 56,55  L 56,47  L 57,47  L 57,45  L 56,45  L 56,44  L 57,44  L 57,41  L 58,41  L 58,39  L 60,39  L 60,38  Z  " style="fill:rgb(0, 0, 0); fill-opacity:1.000; stroke:none;" />
 <path d="  M 55,114  L 55,115  L 44,115  L 44,116  L 41,116  L 41,115  L 40,115  L 40,116  L 36,116  L 36,117  L 35,117  L 35,116  L 33,116  L 33,117  L 31,117  L 31,116  L 26,116  L 26,115  L 22,115  L 22,116  L 20,116  L 20,117  L 18,117  L 18,118  L 17,118  L 17,119  L 16,119  L 16,120  L 15,120  L 15,123  L 17,123  L 17,124  L 19,124  L 19,126  L 20,126  L 20,159  L 19,159  L 19,160  L 20,160  L 20,161  L 19,161  L 19,170  L 20,170  L 20,174  L 21,174  L 21,175  L 22,175  L 22,176  L 23,176  L 23,177  L 26,177  L 26,178  L 37,178  L 37,177  L 38,177  L 38,178  L 39,178  L 39,177  L 41,177  L 41,176  L 42,176  L 42,177  L 43,177  L 43,176  L 48,176  L 48,175  L 53,175  L 53,174  L 59,174  L 59,173  L 63,173  L 63,172  L 68,172  L 68,171  L 72,171  L 72,170  L 75,170  L 75,169  L 76,169  L 76,168  L 81,168  L 81,167  L 84,167  L 84,149  L 85,149  L 85,145  L 86,145  L 86,140  L 87,140  L 87,139  L 86,139  L 86,137  L 87,137  L 87,128  L 88,128  L 88,117  L 87,117  L 87,115  L 86,115  L 86,114  L 84,114  L 84,113  L 68,113  L 68,114  Z  M 59,166  L 59,167  L 55,167  L 55,168  L 49,168  L 49,169  L 43,169  L 43,170  L 41,170  L 41,169  L 40,169  L 40,170  L 39,170  L 39,171  L 36,171  L 36,170  L 35,170  L 35,171  L 32,171  L 32,170  L 29,170  L 29,169  L 27,169  L 27,168  L 26,168  L 26,167  L 25,167  L 25,165  L 26,165  L 26,152  L 27,152  L 27,151  L 26,151  L 26,126  L 27,126  L 27,125  L 31,125  L 31,124  L 37,124  L 37,123  L 39,123  L 39,124  L 40,124  L 40,123  L 44,123  L 44,122  L 53,122  L 53,121  L 54,121  L 54,122  L 55,122  L 55,121  L 56,121  L 56,122  L 57,122  L 57,121  L 58,121  L 58,122  L 59,122  L 59,121  L 69,121  L 69,120  L 70,120  L 70,121  L 71,121  L 71,120  L 80,120  L 80,123  L 81,123  L 81,126  L 80,126  L 80,137  L 79,137  L 79,145  L 78,145  L 78,149  L 77,149  L 77,162  L 76,162  L 76,163  L 72,163  L 72,164  L 69,164  L 69,165  L 63,165  L 63,166  Z  " style="fill:rgb(0, 0, 0); fill-opacity:1.000; stroke:none;" />
</svg>
