<?xml version="1.0" encoding="UTF-8" standalone="no"?>
<!DOCTYPE svg PUBLIC "-//W3C//DTD SVG 1.1//EN" 
  "http://www.w3.org/Graphics/SVG/1.1/DTD/svg11.dtd">
<svg width="101" height="149"
     xmlns="http://www.w3.org/2000/svg" version="1.1">
 <path d="  M 62,94  L 61,94  L 61,93  L 62,93  L 62,92  L 63,92  L 63,91  L 69,91  L 69,90  L 70,90  L 70,91  L 72,91  L 72,90  L 78,90  L 78,89  L 83,89  L 83,88  L 87,88  L 87,87  L 92,87  L 92,86  L 96,86  L 96,85  L 99,85  L 99,84  L 101,84  L 101,76  L 97,76  L 97,77  L 96,77  L 96,78  L 92,78  L 92,79  L 88,79  L 88,80  L 84,80  L 84,81  L 80,81  L 80,82  L 76,82  L 76,83  L 68,83  L 68,84  L 67,84  L 67,83  L 66,83  L 66,84  L 58,84  L 58,85  L 57,85  L 57,84  L 56,84  L 56,85  L 36,85  L 36,86  L 28,86  L 28,87  L 18,87  L 18,88  L 6,88  L 6,89  L 5,89  L 5,88  L 4,88  L 4,89  L 2,89  L 2,90  L 1,90  L 1,92  L 0,92  L 0,93  L 1,93  L 1,94  L 2,94  L 2,95  L 16,95  L 16,94  L 27,94  L 27,93  L 34,93  L 34,92  L 51,92  L 51,93  L 53,93  L 53,97  L 54,97  L 54,105  L 53,105  L 53,114  L 52,114  L 52,124  L 51,124  L 51,132  L 50,132  L 50,149  L 56,149  L 56,147  L 57,147  L 57,134  L 58,134  L 58,127  L 59,127  L 59,126  L 58,126  L 58,125  L 59,125  L 59,119  L 60,119  L 60,113  L 61,113  L 61,106  L 62,106  L 62,104  L 61,104  L 61,103  L 62,103  Z  " style="fill:rgb(0, 0, 0); fill-opacity:1.000; stroke:none;" />
 <path d="  M 73,24  L 73,25  L 67,25  L 67,26  L 60,26  L 60,27  L 59,27  L 59,20  L 58,20  L 58,19  L 59,19  L 59,18  L 58,18  L 58,15  L 59,15  L 59,14  L 58,14  L 58,11  L 59,11  L 59,10  L 58,10  L 58,7  L 59,7  L 59,6  L 58,6  L 58,2  L 55,2  L 55,3  L 54,3  L 54,8  L 53,8  L 53,14  L 52,14  L 52,15  L 53,15  L 53,18  L 52,18  L 52,19  L 53,19  L 53,22  L 52,22  L 52,23  L 53,23  L 53,26  L 52,26  L 52,27  L 53,27  L 53,28  L 52,28  L 52,32  L 49,32  L 49,23  L 48,23  L 48,22  L 49,22  L 49,19  L 48,19  L 48,18  L 49,18  L 49,9  L 48,9  L 48,5  L 47,5  L 47,1  L 46,1  L 46,0  L 42,0  L 42,32  L 39,32  L 39,33  L 19,33  L 19,34  L 12,34  L 12,32  L 11,32  L 11,30  L 12,30  L 12,24  L 13,24  L 13,21  L 14,21  L 14,17  L 15,17  L 15,14  L 16,14  L 16,11  L 17,11  L 17,3  L 16,3  L 16,2  L 11,2  L 11,5  L 10,5  L 10,9  L 9,9  L 9,10  L 8,10  L 8,12  L 7,12  L 7,15  L 6,15  L 6,20  L 5,20  L 5,26  L 4,26  L 4,27  L 5,27  L 5,29  L 4,29  L 4,39  L 5,39  L 5,41  L 4,41  L 4,55  L 5,55  L 5,57  L 6,57  L 6,58  L 7,58  L 7,60  L 8,60  L 8,61  L 9,61  L 9,63  L 10,63  L 10,65  L 11,65  L 11,66  L 12,66  L 12,67  L 13,67  L 13,68  L 18,68  L 18,67  L 23,67  L 23,66  L 24,66  L 24,65  L 27,65  L 27,64  L 31,64  L 31,63  L 35,63  L 35,62  L 38,62  L 38,61  L 40,61  L 40,60  L 42,60  L 42,58  L 44,58  L 44,59  L 45,59  L 45,60  L 46,60  L 46,59  L 48,59  L 48,50  L 49,50  L 49,43  L 51,43  L 51,44  L 50,44  L 50,45  L 51,45  L 51,49  L 52,49  L 52,50  L 51,50  L 51,51  L 52,51  L 52,58  L 51,58  L 51,59  L 52,59  L 52,63  L 55,63  L 55,64  L 58,64  L 58,65  L 61,65  L 61,64  L 62,64  L 62,65  L 63,65  L 63,64  L 68,64  L 68,63  L 75,63  L 75,62  L 77,62  L 77,61  L 81,61  L 81,60  L 82,60  L 82,59  L 83,59  L 83,58  L 84,58  L 84,54  L 85,54  L 85,53  L 84,53  L 84,52  L 85,52  L 85,38  L 86,38  L 86,26  L 85,26  L 85,25  L 86,25  L 86,24  L 85,24  L 85,21  L 86,21  L 86,11  L 87,11  L 87,9  L 88,9  L 88,7  L 89,7  L 89,4  L 88,4  L 88,3  L 84,3  L 84,4  L 83,4  L 83,5  L 82,5  L 82,7  L 81,7  L 81,10  L 80,10  L 80,22  L 79,22  L 79,24  Z  M 64,35  L 64,34  L 66,34  L 66,35  L 67,35  L 67,34  L 73,34  L 73,33  L 74,33  L 74,34  L 75,34  L 75,33  L 79,33  L 79,35  L 80,35  L 80,37  L 79,37  L 79,48  L 78,48  L 78,53  L 77,53  L 77,55  L 71,55  L 71,56  L 66,56  L 66,57  L 61,57  L 61,58  L 60,58  L 60,57  L 58,57  L 58,55  L 59,55  L 59,54  L 58,54  L 58,37  L 59,37  L 59,35  Z  M 12,53  L 11,53  L 11,43  L 12,43  L 12,42  L 13,42  L 13,41  L 15,41  L 15,40  L 25,40  L 25,39  L 26,39  L 26,40  L 27,40  L 27,39  L 42,39  L 42,40  L 43,40  L 43,48  L 42,48  L 42,52  L 41,52  L 41,54  L 35,54  L 35,55  L 30,55  L 30,56  L 29,56  L 29,57  L 26,57  L 26,58  L 23,58  L 23,59  L 18,59  L 18,60  L 14,60  L 14,58  L 13,58  L 13,57  L 12,57  Z  " style="fill:rgb(0, 0, 0); fill-opacity:1.000; stroke:none;" />
</svg>
