<?xml version="1.0" encoding="UTF-8" standalone="no"?>
<!DOCTYPE svg PUBLIC "-//W3C//DTD SVG 1.1//EN" 
  "http://www.w3.org/Graphics/SVG/1.1/DTD/svg11.dtd">
<svg width="103" height="172"
     xmlns="http://www.w3.org/2000/svg" version="1.1">
 <path d="  M 53,93  L 53,94  L 54,94  L 54,95  L 53,95  L 53,106  L 52,106  L 52,107  L 51,107  L 51,108  L 50,108  L 50,107  L 43,107  L 43,108  L 39,108  L 39,109  L 31,109  L 31,108  L 26,108  L 26,109  L 24,109  L 24,110  L 22,110  L 22,111  L 21,111  L 21,112  L 19,112  L 19,113  L 16,113  L 16,114  L 17,114  L 17,116  L 20,116  L 20,117  L 22,117  L 22,119  L 23,119  L 23,123  L 22,123  L 22,124  L 23,124  L 23,125  L 22,125  L 22,126  L 23,126  L 23,127  L 22,127  L 22,128  L 23,128  L 23,129  L 22,129  L 22,156  L 21,156  L 21,157  L 22,157  L 22,159  L 21,159  L 21,165  L 22,165  L 22,169  L 23,169  L 23,170  L 24,170  L 24,171  L 26,171  L 26,172  L 40,172  L 40,171  L 41,171  L 41,172  L 42,172  L 42,171  L 46,171  L 46,170  L 51,170  L 51,169  L 55,169  L 55,168  L 58,168  L 58,167  L 63,167  L 63,166  L 67,166  L 67,165  L 70,165  L 70,164  L 72,164  L 72,163  L 75,163  L 75,162  L 77,162  L 77,161  L 79,161  L 79,160  L 80,160  L 80,158  L 81,158  L 81,157  L 83,157  L 83,153  L 84,153  L 84,148  L 85,148  L 85,143  L 86,143  L 86,141  L 87,141  L 87,136  L 88,136  L 88,133  L 89,133  L 89,126  L 90,126  L 90,125  L 89,125  L 89,124  L 90,124  L 90,105  L 89,105  L 89,104  L 88,104  L 88,103  L 78,103  L 78,104  L 69,104  L 69,105  L 60,105  L 60,90  L 61,90  L 61,89  L 60,89  L 60,88  L 61,88  L 61,76  L 64,76  L 64,75  L 65,75  L 65,76  L 67,76  L 67,75  L 76,75  L 76,74  L 80,74  L 80,73  L 89,73  L 89,72  L 97,72  L 97,71  L 100,71  L 100,70  L 102,70  L 102,69  L 103,69  L 103,62  L 99,62  L 99,63  L 97,63  L 97,64  L 95,64  L 95,65  L 93,65  L 93,66  L 85,66  L 85,67  L 84,67  L 84,66  L 83,66  L 83,67  L 78,67  L 78,68  L 77,68  L 77,67  L 76,67  L 76,68  L 72,68  L 72,69  L 56,69  L 56,70  L 53,70  L 53,69  L 52,69  L 52,70  L 40,70  L 40,71  L 32,71  L 32,72  L 26,72  L 26,73  L 19,73  L 19,74  L 16,74  L 16,75  L 6,75  L 6,76  L 5,76  L 5,75  L 4,75  L 4,76  L 2,76  L 2,77  L 0,77  L 0,79  L 1,79  L 1,82  L 8,82  L 8,81  L 15,81  L 15,80  L 23,80  L 23,79  L 30,79  L 30,78  L 36,78  L 36,77  L 37,77  L 37,78  L 38,78  L 38,77  L 55,77  L 55,83  L 54,83  L 54,91  L 53,91  L 53,92  L 54,92  L 54,93  Z  M 29,118  L 31,118  L 31,117  L 36,117  L 36,116  L 38,116  L 38,115  L 44,115  L 44,114  L 52,114  L 52,113  L 54,113  L 54,114  L 55,114  L 55,113  L 58,113  L 58,114  L 59,114  L 59,113  L 64,113  L 64,112  L 70,112  L 70,111  L 76,111  L 76,110  L 77,110  L 77,111  L 78,111  L 78,110  L 80,110  L 80,109  L 82,109  L 82,110  L 83,110  L 83,125  L 82,125  L 82,126  L 83,126  L 83,127  L 82,127  L 82,133  L 81,133  L 81,137  L 80,137  L 80,141  L 79,141  L 79,145  L 78,145  L 78,149  L 77,149  L 77,151  L 76,151  L 76,153  L 75,153  L 75,154  L 74,154  L 74,155  L 72,155  L 72,156  L 70,156  L 70,157  L 67,157  L 67,158  L 64,158  L 64,159  L 59,159  L 59,160  L 58,160  L 58,161  L 57,161  L 57,160  L 56,160  L 56,161  L 53,161  L 53,162  L 52,162  L 52,161  L 51,161  L 51,162  L 48,162  L 48,163  L 42,163  L 42,164  L 40,164  L 40,163  L 39,163  L 39,164  L 38,164  L 38,165  L 36,165  L 36,163  L 33,163  L 33,164  L 32,164  L 32,163  L 29,163  L 29,161  L 28,161  L 28,154  L 29,154  Z  " style="fill:rgb(0, 0, 0); fill-opacity:1.000; stroke:none;" />
 <path d="  M 13,1  L 13,2  L 12,2  L 12,13  L 11,13  L 11,14  L 12,14  L 12,17  L 11,17  L 11,18  L 12,18  L 12,20  L 11,20  L 11,27  L 10,27  L 10,44  L 11,44  L 11,45  L 10,45  L 10,46  L 11,46  L 11,51  L 12,51  L 12,55  L 13,55  L 13,56  L 14,56  L 14,58  L 16,58  L 16,59  L 17,59  L 17,60  L 25,60  L 25,61  L 26,61  L 26,60  L 31,60  L 31,59  L 36,59  L 36,58  L 37,58  L 37,59  L 38,59  L 38,58  L 43,58  L 43,57  L 45,57  L 45,56  L 50,56  L 50,54  L 51,54  L 51,51  L 50,51  L 50,46  L 51,46  L 51,44  L 50,44  L 50,31  L 49,31  L 49,28  L 48,28  L 48,24  L 47,24  L 47,12  L 46,12  L 46,11  L 47,11  L 47,10  L 46,10  L 46,1  L 45,1  L 45,0  L 44,0  L 44,1  L 42,1  L 42,19  L 43,19  L 43,20  L 42,20  L 42,22  L 43,22  L 43,28  L 42,28  L 42,29  L 40,29  L 40,28  L 39,28  L 39,29  L 29,29  L 29,30  L 28,30  L 28,29  L 27,29  L 27,30  L 24,30  L 24,29  L 23,29  L 23,30  L 19,30  L 19,29  L 18,29  L 18,18  L 19,18  L 19,17  L 18,17  L 18,16  L 19,16  L 19,15  L 18,15  L 18,14  L 19,14  L 19,13  L 18,13  L 18,12  L 19,12  L 19,11  L 18,11  L 18,10  L 19,10  L 19,9  L 18,9  L 18,8  L 19,8  L 19,3  L 18,3  L 18,1  Z  M 35,38  L 35,37  L 42,37  L 42,38  L 43,38  L 43,39  L 44,39  L 44,41  L 43,41  L 43,42  L 44,42  L 44,49  L 43,49  L 43,50  L 39,50  L 39,51  L 32,51  L 32,52  L 25,52  L 25,53  L 21,53  L 21,52  L 19,52  L 19,51  L 18,51  L 18,50  L 17,50  L 17,40  L 18,40  L 18,39  L 19,39  L 19,38  L 24,38  L 24,37  L 26,37  L 26,38  L 27,38  L 27,37  L 30,37  L 30,38  L 31,38  L 31,37  L 34,37  L 34,38  Z  " style="fill:rgb(0, 0, 0); fill-opacity:1.000; stroke:none;" />
 <path d="  M 61,51  L 61,49  L 60,49  L 60,40  L 61,40  L 61,36  L 62,36  L 62,34  L 65,34  L 65,33  L 74,33  L 74,32  L 82,32  L 82,39  L 81,39  L 81,42  L 80,42  L 80,44  L 79,44  L 79,45  L 78,45  L 78,46  L 77,46  L 77,47  L 76,47  L 76,48  L 74,48  L 74,49  L 70,49  L 70,50  L 65,50  L 65,51  Z  M 61,19  L 62,19  L 62,5  L 58,5  L 58,6  L 57,6  L 57,11  L 56,11  L 56,25  L 55,25  L 55,26  L 56,26  L 56,29  L 55,29  L 55,41  L 54,41  L 54,47  L 55,47  L 55,54  L 56,54  L 56,55  L 57,55  L 57,56  L 60,56  L 60,57  L 70,57  L 70,56  L 75,56  L 75,55  L 78,55  L 78,54  L 80,54  L 80,52  L 84,52  L 84,51  L 85,51  L 85,50  L 86,50  L 86,45  L 87,45  L 87,33  L 88,33  L 88,27  L 87,27  L 87,18  L 88,18  L 88,10  L 89,10  L 89,7  L 88,7  L 88,6  L 87,6  L 87,7  L 85,7  L 85,9  L 84,9  L 84,11  L 83,11  L 83,16  L 82,16  L 82,22  L 83,22  L 83,24  L 78,24  L 78,25  L 71,25  L 71,26  L 68,26  L 68,25  L 67,25  L 67,26  L 64,26  L 64,27  L 62,27  L 62,25  L 61,25  Z  " style="fill:rgb(0, 0, 0); fill-opacity:1.000; stroke:none;" />
</svg>
