<?xml version="1.0" encoding="UTF-8" standalone="no"?>
<!DOCTYPE svg PUBLIC "-//W3C//DTD SVG 1.1//EN" 
  "http://www.w3.org/Graphics/SVG/1.1/DTD/svg11.dtd">
<svg width="105" height="166"
     xmlns="http://www.w3.org/2000/svg" version="1.1">
 <path d="  M 37,97  L 38,97  L 38,100  L 37,100  L 37,101  L 38,101  L 38,104  L 37,104  L 37,105  L 39,105  L 39,116  L 38,116  L 38,118  L 37,118  L 37,119  L 35,119  L 35,121  L 34,121  L 34,122  L 33,122  L 33,123  L 32,123  L 32,124  L 31,124  L 31,125  L 30,125  L 30,126  L 28,126  L 28,127  L 27,127  L 27,129  L 25,129  L 25,130  L 24,130  L 24,132  L 23,132  L 23,134  L 22,134  L 22,136  L 21,136  L 21,140  L 20,140  L 20,151  L 21,151  L 21,153  L 22,153  L 22,155  L 23,155  L 23,157  L 24,157  L 24,159  L 25,159  L 25,160  L 26,160  L 26,161  L 28,161  L 28,162  L 29,162  L 29,163  L 30,163  L 30,164  L 33,164  L 33,165  L 35,165  L 35,166  L 62,166  L 62,165  L 63,165  L 63,166  L 64,166  L 64,165  L 68,165  L 68,164  L 70,164  L 70,163  L 72,163  L 72,162  L 73,162  L 73,160  L 74,160  L 74,159  L 75,159  L 75,158  L 76,158  L 76,157  L 77,157  L 77,156  L 78,156  L 78,153  L 80,153  L 80,151  L 81,151  L 81,148  L 82,148  L 82,146  L 83,146  L 83,142  L 84,142  L 84,138  L 85,138  L 85,128  L 84,128  L 84,125  L 83,125  L 83,123  L 82,123  L 82,121  L 81,121  L 81,120  L 80,120  L 80,119  L 79,119  L 79,118  L 78,118  L 78,117  L 77,117  L 77,116  L 76,116  L 76,114  L 75,114  L 75,113  L 76,113  L 76,108  L 75,108  L 75,107  L 76,107  L 76,89  L 77,89  L 77,88  L 76,88  L 76,87  L 77,87  L 77,86  L 76,86  L 76,85  L 77,85  L 77,79  L 76,79  L 76,77  L 77,77  L 77,76  L 83,76  L 83,75  L 85,75  L 85,76  L 86,76  L 86,75  L 98,75  L 98,74  L 99,74  L 99,75  L 101,75  L 101,74  L 102,74  L 102,73  L 104,73  L 104,72  L 105,72  L 105,65  L 103,65  L 103,64  L 102,64  L 102,65  L 100,65  L 100,66  L 98,66  L 98,67  L 95,67  L 95,68  L 88,68  L 88,69  L 77,69  L 77,70  L 74,70  L 74,69  L 73,69  L 73,70  L 68,70  L 68,71  L 67,71  L 67,70  L 60,70  L 60,71  L 59,71  L 59,70  L 56,70  L 56,71  L 55,71  L 55,70  L 53,70  L 53,71  L 47,71  L 47,70  L 46,70  L 46,71  L 32,71  L 32,72  L 31,72  L 31,71  L 30,71  L 30,72  L 23,72  L 23,73  L 22,73  L 22,72  L 21,72  L 21,73  L 18,73  L 18,74  L 16,74  L 16,73  L 15,73  L 15,74  L 11,74  L 11,75  L 4,75  L 4,76  L 2,76  L 2,77  L 0,77  L 0,81  L 2,81  L 2,82  L 9,82  L 9,81  L 14,81  L 14,80  L 18,80  L 18,79  L 19,79  L 19,80  L 20,80  L 20,79  L 24,79  L 24,78  L 35,78  L 35,77  L 37,77  L 37,78  L 39,78  L 39,81  L 38,81  L 38,84  L 37,84  L 37,85  L 38,85  L 38,88  L 37,88  L 37,89  L 38,89  L 38,90  L 37,90  L 37,93  L 38,93  L 38,94  L 37,94  Z  M 47,99  L 46,99  L 46,97  L 47,97  L 47,96  L 46,96  L 46,93  L 47,93  L 47,91  L 46,91  L 46,89  L 47,89  L 47,86  L 46,86  L 46,85  L 47,85  L 47,82  L 46,82  L 46,80  L 47,80  L 47,78  L 62,78  L 62,77  L 68,77  L 68,78  L 69,78  L 69,108  L 68,108  L 68,109  L 69,109  L 69,111  L 70,111  L 70,112  L 69,112  L 69,114  L 48,114  L 48,113  L 47,113  L 47,112  L 46,112  L 46,111  L 47,111  L 47,102  L 46,102  L 46,101  L 47,101  Z  M 38,127  L 38,126  L 40,126  L 40,125  L 42,125  L 42,124  L 44,124  L 44,123  L 50,123  L 50,122  L 51,122  L 51,123  L 52,123  L 52,122  L 53,122  L 53,123  L 54,123  L 54,122  L 57,122  L 57,123  L 58,123  L 58,122  L 68,122  L 68,123  L 71,123  L 71,124  L 73,124  L 73,125  L 75,125  L 75,126  L 76,126  L 76,127  L 77,127  L 77,132  L 78,132  L 78,138  L 77,138  L 77,142  L 76,142  L 76,145  L 75,145  L 75,147  L 74,147  L 74,149  L 73,149  L 73,150  L 72,150  L 72,151  L 71,151  L 71,153  L 70,153  L 70,154  L 69,154  L 69,155  L 68,155  L 68,156  L 66,156  L 66,157  L 64,157  L 64,158  L 60,158  L 60,159  L 56,159  L 56,160  L 45,160  L 45,159  L 38,159  L 38,158  L 35,158  L 35,157  L 33,157  L 33,156  L 31,156  L 31,155  L 30,155  L 30,153  L 29,153  L 29,152  L 28,152  L 28,140  L 29,140  L 29,137  L 30,137  L 30,135  L 31,135  L 31,133  L 32,133  L 32,131  L 33,131  L 33,130  L 34,130  L 34,129  L 35,129  L 35,128  L 37,128  L 37,127  Z  " style="fill:rgb(0, 0, 0); fill-opacity:1.000; stroke:none;" />
 <path d="  M 14,16  L 13,16  L 13,17  L 14,17  L 14,19  L 13,19  L 13,28  L 12,28  L 12,29  L 13,29  L 13,30  L 12,30  L 12,47  L 13,47  L 13,48  L 12,48  L 12,49  L 13,49  L 13,53  L 14,53  L 14,55  L 15,55  L 15,57  L 17,57  L 17,58  L 18,58  L 18,59  L 42,59  L 42,58  L 47,58  L 47,59  L 49,59  L 49,58  L 51,58  L 51,49  L 52,49  L 52,46  L 51,46  L 51,32  L 50,32  L 50,29  L 49,29  L 49,16  L 48,16  L 48,7  L 47,7  L 47,2  L 44,2  L 44,21  L 45,21  L 45,27  L 44,27  L 44,28  L 36,28  L 36,29  L 35,29  L 35,28  L 33,28  L 33,29  L 30,29  L 30,28  L 29,28  L 29,29  L 20,29  L 20,28  L 19,28  L 19,26  L 20,26  L 20,5  L 21,5  L 21,2  L 20,2  L 20,0  L 16,0  L 16,1  L 15,1  L 15,2  L 14,2  Z  M 44,37  L 44,38  L 45,38  L 45,43  L 44,43  L 44,49  L 43,49  L 43,50  L 40,50  L 40,51  L 39,51  L 39,50  L 38,50  L 38,51  L 29,51  L 29,52  L 19,52  L 19,41  L 20,41  L 20,38  L 21,38  L 21,37  L 22,37  L 22,38  L 23,38  L 23,37  Z  " style="fill:rgb(0, 0, 0); fill-opacity:1.000; stroke:none;" />
 <path d="  M 61,43  L 61,40  L 62,40  L 62,38  L 63,38  L 63,36  L 64,36  L 64,35  L 68,35  L 68,34  L 78,34  L 78,33  L 82,33  L 82,34  L 83,34  L 83,38  L 82,38  L 82,43  L 81,43  L 81,47  L 80,47  L 80,48  L 79,48  L 79,49  L 76,49  L 76,50  L 72,50  L 72,51  L 68,51  L 68,52  L 65,52  L 65,53  L 64,53  L 64,52  L 61,52  L 61,44  L 62,44  L 62,43  Z  M 90,2  L 89,2  L 89,1  L 88,1  L 88,0  L 85,0  L 85,1  L 84,1  L 84,11  L 83,11  L 83,23  L 84,23  L 84,24  L 83,24  L 83,26  L 78,26  L 78,27  L 68,27  L 68,28  L 65,28  L 65,29  L 64,29  L 64,28  L 63,28  L 63,27  L 62,27  L 62,24  L 63,24  L 63,13  L 64,13  L 64,12  L 63,12  L 63,10  L 64,10  L 64,6  L 63,6  L 63,4  L 60,4  L 60,5  L 59,5  L 59,6  L 58,6  L 58,24  L 57,24  L 57,25  L 58,25  L 58,26  L 57,26  L 57,32  L 56,32  L 56,57  L 57,57  L 57,58  L 58,58  L 58,59  L 62,59  L 62,60  L 63,60  L 63,59  L 68,59  L 68,58  L 76,58  L 76,57  L 79,57  L 79,56  L 80,56  L 80,55  L 81,55  L 81,54  L 83,54  L 83,53  L 85,53  L 85,52  L 86,52  L 86,47  L 87,47  L 87,45  L 88,45  L 88,44  L 87,44  L 87,42  L 88,42  L 88,40  L 87,40  L 87,39  L 88,39  L 88,34  L 89,34  L 89,26  L 88,26  L 88,24  L 89,24  L 89,22  L 88,22  L 88,18  L 89,18  L 89,14  L 90,14  Z  " style="fill:rgb(0, 0, 0); fill-opacity:1.000; stroke:none;" />
</svg>
