<?xml version="1.0" encoding="UTF-8" standalone="no"?>
<!DOCTYPE svg PUBLIC "-//W3C//DTD SVG 1.1//EN" 
  "http://www.w3.org/Graphics/SVG/1.1/DTD/svg11.dtd">
<svg width="104" height="112"
     xmlns="http://www.w3.org/2000/svg" version="1.1">
 <path d="  M 80,100  L 80,101  L 79,101  L 79,100  L 76,100  L 76,101  L 65,101  L 65,102  L 54,102  L 54,103  L 51,103  L 51,102  L 50,102  L 50,103  L 43,103  L 43,104  L 32,104  L 32,105  L 31,105  L 31,104  L 30,104  L 30,105  L 29,105  L 29,104  L 28,104  L 28,105  L 17,105  L 17,106  L 16,106  L 16,105  L 15,105  L 15,106  L 14,106  L 14,105  L 13,105  L 13,106  L 3,106  L 3,107  L 2,107  L 2,108  L 0,108  L 0,109  L 1,109  L 1,112  L 29,112  L 29,111  L 30,111  L 30,112  L 31,112  L 31,111  L 43,111  L 43,110  L 44,110  L 44,111  L 47,111  L 47,110  L 58,110  L 58,109  L 59,109  L 59,110  L 61,110  L 61,109  L 74,109  L 74,108  L 85,108  L 85,107  L 96,107  L 96,108  L 97,108  L 97,107  L 103,107  L 103,106  L 104,106  L 104,101  L 103,101  L 103,100  L 101,100  L 101,99  L 100,99  L 100,100  Z  " style="fill:rgb(0, 0, 0); fill-opacity:1.000; stroke:none;" />
 <path d="  M 49,47  L 50,47  L 50,46  L 49,46  L 49,43  L 50,43  L 50,42  L 49,42  L 49,39  L 50,39  L 50,38  L 49,38  L 49,20  L 48,20  L 48,19  L 49,19  L 49,16  L 48,16  L 48,12  L 47,12  L 47,11  L 46,11  L 46,10  L 44,10  L 44,9  L 42,9  L 42,12  L 41,12  L 41,16  L 42,16  L 42,32  L 43,32  L 43,33  L 42,33  L 42,34  L 43,34  L 43,36  L 42,36  L 42,37  L 41,37  L 41,38  L 38,38  L 38,37  L 37,37  L 37,38  L 34,38  L 34,37  L 33,37  L 33,38  L 30,38  L 30,37  L 29,37  L 29,38  L 26,38  L 26,37  L 25,37  L 25,38  L 19,38  L 19,36  L 18,36  L 18,34  L 19,34  L 19,33  L 18,33  L 18,10  L 19,10  L 19,6  L 18,6  L 18,3  L 17,3  L 17,1  L 16,1  L 16,0  L 15,0  L 15,1  L 14,1  L 14,2  L 13,2  L 13,3  L 12,3  L 12,5  L 11,5  L 11,63  L 12,63  L 12,64  L 11,64  L 11,65  L 12,65  L 12,68  L 13,68  L 13,72  L 14,72  L 14,75  L 15,75  L 15,76  L 16,76  L 16,77  L 23,77  L 23,76  L 29,76  L 29,75  L 31,75  L 31,74  L 32,74  L 32,75  L 33,75  L 33,74  L 35,74  L 35,73  L 38,73  L 38,72  L 41,72  L 41,71  L 42,71  L 42,70  L 44,70  L 44,69  L 47,69  L 47,68  L 48,68  L 48,66  L 49,66  Z  M 17,56  L 17,55  L 18,55  L 18,52  L 17,52  L 17,51  L 18,51  L 18,44  L 20,44  L 20,43  L 42,43  L 42,45  L 43,45  L 43,46  L 42,46  L 42,55  L 43,55  L 43,56  L 42,56  L 42,64  L 41,64  L 41,65  L 37,65  L 37,66  L 33,66  L 33,67  L 30,67  L 30,68  L 28,68  L 28,69  L 23,69  L 23,70  L 22,70  L 22,69  L 20,69  L 20,68  L 19,68  L 19,66  L 18,66  L 18,56  Z  " style="fill:rgb(0, 0, 0); fill-opacity:1.000; stroke:none;" />
 <path d="  M 70,31  L 70,32  L 69,32  L 69,31  L 63,31  L 63,15  L 62,15  L 62,12  L 60,12  L 60,11  L 58,11  L 58,12  L 57,12  L 57,13  L 56,13  L 56,40  L 55,40  L 55,41  L 56,41  L 56,44  L 55,44  L 55,45  L 56,45  L 56,48  L 55,48  L 55,50  L 56,50  L 56,51  L 55,51  L 55,54  L 56,54  L 56,55  L 55,55  L 55,63  L 56,63  L 56,67  L 57,67  L 57,69  L 58,69  L 58,70  L 60,70  L 60,71  L 61,71  L 61,73  L 62,73  L 62,74  L 73,74  L 73,73  L 79,73  L 79,72  L 82,72  L 82,71  L 83,71  L 83,72  L 84,72  L 84,71  L 86,71  L 86,70  L 87,70  L 87,68  L 88,68  L 88,55  L 89,55  L 89,54  L 88,54  L 88,52  L 89,52  L 89,37  L 90,37  L 90,36  L 89,36  L 89,35  L 90,35  L 90,8  L 91,8  L 91,5  L 90,5  L 90,4  L 87,4  L 87,5  L 86,5  L 86,6  L 85,6  L 85,8  L 84,8  L 84,29  L 83,29  L 83,30  L 81,30  L 81,31  L 80,31  L 80,30  L 78,30  L 78,31  L 75,31  L 75,30  L 74,30  L 74,31  Z  M 73,38  L 73,37  L 74,37  L 74,38  L 75,38  L 75,37  L 82,37  L 82,38  L 83,38  L 83,50  L 82,50  L 82,62  L 81,62  L 81,64  L 80,64  L 80,66  L 70,66  L 70,67  L 63,67  L 63,66  L 62,66  L 62,63  L 61,63  L 61,55  L 62,55  L 62,54  L 61,54  L 61,53  L 62,53  L 62,52  L 61,52  L 61,51  L 62,51  L 62,50  L 61,50  L 61,49  L 62,49  L 62,48  L 61,48  L 61,47  L 62,47  L 62,41  L 63,41  L 63,39  L 64,39  L 64,38  Z  " style="fill:rgb(0, 0, 0); fill-opacity:1.000; stroke:none;" />
</svg>
