<?xml version="1.0" encoding="UTF-8" standalone="no"?>
<!DOCTYPE svg PUBLIC "-//W3C//DTD SVG 1.1//EN" 
  "http://www.w3.org/Graphics/SVG/1.1/DTD/svg11.dtd">
<svg width="101" height="172"
     xmlns="http://www.w3.org/2000/svg" version="1.1">
 <path d="  M 7,92  L 7,91  L 9,91  L 9,90  L 13,90  L 13,89  L 21,89  L 21,88  L 27,88  L 27,87  L 28,87  L 28,88  L 29,88  L 29,87  L 41,87  L 41,86  L 48,86  L 48,87  L 49,87  L 49,86  L 67,86  L 67,85  L 69,85  L 69,86  L 70,86  L 70,85  L 79,85  L 79,84  L 80,84  L 80,85  L 82,85  L 82,84  L 100,84  L 100,83  L 101,83  L 101,75  L 95,75  L 95,76  L 90,76  L 90,77  L 82,77  L 82,78  L 79,78  L 79,77  L 78,77  L 78,78  L 71,78  L 71,79  L 70,79  L 70,78  L 69,78  L 69,79  L 40,79  L 40,80  L 37,80  L 37,79  L 36,79  L 36,80  L 33,80  L 33,79  L 32,79  L 32,80  L 25,80  L 25,81  L 18,81  L 18,82  L 15,82  L 15,83  L 12,83  L 12,84  L 11,84  L 11,83  L 10,83  L 10,84  L 3,84  L 3,85  L 1,85  L 1,87  L 0,87  L 0,88  L 1,88  L 1,91  L 2,91  L 2,92  L 3,92  L 3,91  L 4,91  L 4,92  Z  " style="fill:rgb(0, 0, 0); fill-opacity:1.000; stroke:none;" />
 <path d="  M 70,62  L 70,61  L 74,61  L 74,60  L 78,60  L 78,59  L 82,59  L 82,58  L 84,58  L 84,57  L 85,57  L 85,55  L 86,55  L 86,51  L 85,51  L 85,49  L 86,49  L 86,48  L 85,48  L 85,45  L 86,45  L 86,19  L 85,19  L 85,17  L 86,17  L 86,12  L 87,12  L 87,4  L 86,4  L 86,3  L 83,3  L 83,4  L 82,4  L 82,6  L 81,6  L 81,8  L 80,8  L 80,23  L 81,23  L 81,24  L 80,24  L 80,25  L 77,25  L 77,26  L 66,26  L 66,27  L 65,27  L 65,26  L 64,26  L 64,27  L 60,27  L 60,26  L 59,26  L 59,25  L 58,25  L 58,20  L 59,20  L 59,7  L 57,7  L 57,6  L 56,6  L 56,5  L 55,5  L 55,11  L 54,11  L 54,12  L 55,12  L 55,13  L 54,13  L 54,14  L 55,14  L 55,15  L 54,15  L 54,16  L 55,16  L 55,17  L 54,17  L 54,26  L 53,26  L 53,33  L 52,33  L 52,34  L 53,34  L 53,35  L 52,35  L 52,36  L 51,36  L 51,37  L 50,37  L 50,34  L 49,34  L 49,27  L 48,27  L 48,20  L 47,20  L 47,13  L 46,13  L 46,1  L 44,1  L 44,0  L 43,0  L 43,1  L 42,1  L 42,5  L 41,5  L 41,6  L 42,6  L 42,26  L 43,26  L 43,27  L 42,27  L 42,28  L 41,28  L 41,29  L 40,29  L 40,28  L 37,28  L 37,29  L 24,29  L 24,30  L 23,30  L 23,29  L 22,29  L 22,30  L 19,30  L 19,29  L 17,29  L 17,22  L 18,22  L 18,4  L 17,4  L 17,2  L 13,2  L 13,3  L 12,3  L 12,5  L 11,5  L 11,24  L 10,24  L 10,29  L 9,29  L 9,53  L 10,53  L 10,57  L 11,57  L 11,59  L 12,59  L 12,60  L 13,60  L 13,63  L 14,63  L 14,64  L 16,64  L 16,65  L 29,65  L 29,64  L 35,64  L 35,63  L 39,63  L 39,62  L 41,62  L 41,61  L 42,61  L 42,60  L 46,60  L 46,59  L 48,59  L 48,56  L 49,56  L 49,55  L 50,55  L 50,47  L 51,47  L 51,50  L 52,50  L 52,51  L 51,51  L 51,52  L 52,52  L 52,54  L 53,54  L 53,56  L 54,56  L 54,59  L 55,59  L 55,60  L 56,60  L 56,61  L 58,61  L 58,62  L 59,62  L 59,63  L 65,63  L 65,62  Z  M 17,55  L 16,55  L 16,52  L 15,52  L 15,51  L 16,51  L 16,50  L 15,50  L 15,49  L 16,49  L 16,40  L 17,40  L 17,39  L 18,39  L 18,38  L 30,38  L 30,37  L 31,37  L 31,38  L 34,38  L 34,37  L 35,37  L 35,38  L 36,38  L 36,37  L 37,37  L 37,38  L 38,38  L 38,37  L 39,37  L 39,38  L 40,38  L 40,37  L 41,37  L 41,38  L 42,38  L 42,39  L 43,39  L 43,41  L 42,41  L 42,42  L 43,42  L 43,49  L 42,49  L 42,50  L 43,50  L 43,51  L 42,51  L 42,55  L 39,55  L 39,56  L 33,56  L 33,57  L 28,57  L 28,58  L 27,58  L 27,57  L 26,57  L 26,58  L 18,58  L 18,57  L 17,57  Z  M 74,33  L 80,33  L 80,42  L 79,42  L 79,51  L 78,51  L 78,52  L 77,52  L 77,53  L 73,53  L 73,54  L 67,54  L 67,55  L 66,55  L 66,54  L 65,54  L 65,55  L 59,55  L 59,52  L 58,52  L 58,36  L 59,36  L 59,35  L 60,35  L 60,34  L 70,34  L 70,33  L 73,33  L 73,34  L 74,34  Z  M 50,40  L 50,39  L 51,39  L 51,40  Z  " style="fill:rgb(0, 0, 0); fill-opacity:1.000; stroke:none;" />
 <path d="  M 22,107  L 22,109  L 21,109  L 21,110  L 19,110  L 19,111  L 18,111  L 18,112  L 17,112  L 17,116  L 19,116  L 19,117  L 21,117  L 21,118  L 22,118  L 22,153  L 21,153  L 21,154  L 22,154  L 22,156  L 21,156  L 21,165  L 22,165  L 22,168  L 23,168  L 23,170  L 25,170  L 25,171  L 28,171  L 28,172  L 41,172  L 41,171  L 45,171  L 45,170  L 50,170  L 50,169  L 55,169  L 55,168  L 59,168  L 59,167  L 64,167  L 64,166  L 68,166  L 68,165  L 70,165  L 70,164  L 74,164  L 74,163  L 75,163  L 75,162  L 78,162  L 78,161  L 79,161  L 79,160  L 81,160  L 81,159  L 82,159  L 82,157  L 83,157  L 83,154  L 84,154  L 84,153  L 83,153  L 83,151  L 84,151  L 84,146  L 85,146  L 85,145  L 84,145  L 84,144  L 85,144  L 85,142  L 86,142  L 86,139  L 87,139  L 87,135  L 88,135  L 88,130  L 89,130  L 89,124  L 90,124  L 90,108  L 89,108  L 89,107  L 88,107  L 88,106  L 87,106  L 87,105  L 86,105  L 86,104  L 84,104  L 84,103  L 71,103  L 71,104  L 62,104  L 62,105  L 54,105  L 54,106  L 47,106  L 47,107  L 40,107  L 40,108  L 33,108  L 33,107  L 29,107  L 29,106  L 24,106  L 24,107  Z  M 28,150  L 29,150  L 29,149  L 28,149  L 28,146  L 29,146  L 29,145  L 28,145  L 28,144  L 29,144  L 29,143  L 28,143  L 28,142  L 29,142  L 29,141  L 28,141  L 28,140  L 29,140  L 29,126  L 28,126  L 28,124  L 29,124  L 29,122  L 28,122  L 28,120  L 29,120  L 29,117  L 35,117  L 35,116  L 37,116  L 37,115  L 43,115  L 43,114  L 51,114  L 51,113  L 52,113  L 52,114  L 53,114  L 53,113  L 61,113  L 61,112  L 68,112  L 68,111  L 75,111  L 75,110  L 76,110  L 76,111  L 77,111  L 77,110  L 81,110  L 81,111  L 82,111  L 82,113  L 83,113  L 83,116  L 82,116  L 82,118  L 83,118  L 83,119  L 82,119  L 82,127  L 81,127  L 81,134  L 80,134  L 80,138  L 79,138  L 79,141  L 78,141  L 78,147  L 77,147  L 77,150  L 76,150  L 76,154  L 75,154  L 75,155  L 74,155  L 74,156  L 73,156  L 73,157  L 69,157  L 69,158  L 67,158  L 67,159  L 62,159  L 62,160  L 61,160  L 61,161  L 60,161  L 60,160  L 59,160  L 59,161  L 56,161  L 56,162  L 55,162  L 55,161  L 54,161  L 54,162  L 50,162  L 50,163  L 45,163  L 45,164  L 41,164  L 41,165  L 34,165  L 34,164  L 31,164  L 31,163  L 29,163  L 29,162  L 28,162  Z  " style="fill:rgb(0, 0, 0); fill-opacity:1.000; stroke:none;" />
</svg>
