<?xml version="1.0" encoding="UTF-8" standalone="no"?>
<!DOCTYPE svg PUBLIC "-//W3C//DTD SVG 1.1//EN" 
  "http://www.w3.org/Graphics/SVG/1.1/DTD/svg11.dtd">
<svg width="104" height="115"
     xmlns="http://www.w3.org/2000/svg" version="1.1">
 <path d="  M 39,29  L 40,29  L 40,28  L 39,28  L 39,15  L 38,15  L 38,14  L 33,14  L 33,16  L 32,16  L 32,18  L 31,18  L 31,42  L 30,42  L 30,44  L 21,44  L 21,45  L 19,45  L 19,44  L 18,44  L 18,45  L 16,45  L 16,44  L 12,44  L 12,45  L 10,45  L 10,46  L 9,46  L 9,42  L 8,42  L 8,41  L 9,41  L 9,13  L 8,13  L 8,11  L 6,11  L 6,12  L 4,12  L 4,13  L 3,13  L 3,15  L 2,15  L 2,22  L 1,22  L 1,23  L 2,23  L 2,25  L 1,25  L 1,59  L 2,59  L 2,60  L 1,60  L 1,63  L 2,63  L 2,64  L 1,64  L 1,88  L 2,88  L 2,89  L 1,89  L 1,91  L 2,91  L 2,93  L 3,93  L 3,94  L 6,94  L 6,93  L 10,93  L 10,92  L 12,92  L 12,91  L 18,91  L 18,90  L 20,90  L 20,89  L 22,89  L 22,88  L 26,88  L 26,87  L 27,87  L 27,86  L 28,86  L 28,87  L 30,87  L 30,86  L 38,86  L 38,85  L 39,85  L 39,81  L 38,81  L 38,71  L 39,71  L 39,70  L 38,70  L 38,68  L 39,68  Z  M 30,75  L 31,75  L 31,76  L 30,76  L 30,79  L 29,79  L 29,80  L 27,80  L 27,81  L 25,81  L 25,82  L 21,82  L 21,83  L 16,83  L 16,84  L 13,84  L 13,85  L 12,85  L 12,86  L 11,86  L 11,85  L 9,85  L 9,84  L 8,84  L 8,71  L 9,71  L 9,68  L 8,68  L 8,67  L 9,67  L 9,60  L 8,60  L 8,59  L 9,59  L 9,56  L 8,56  L 8,55  L 9,55  L 9,50  L 13,50  L 13,51  L 16,51  L 16,50  L 17,50  L 17,51  L 19,51  L 19,50  L 20,50  L 20,51  L 31,51  L 31,70  L 30,70  L 30,71  L 31,71  L 31,74  L 30,74  Z  " style="fill:rgb(0, 0, 0); fill-opacity:1.000; stroke:none;" />
 <path d="  M 53,74  L 53,71  L 52,71  L 52,61  L 51,61  L 51,57  L 52,57  L 52,56  L 51,56  L 51,53  L 52,53  L 52,52  L 51,52  L 51,51  L 52,51  L 52,50  L 53,50  L 53,49  L 65,49  L 65,50  L 67,50  L 67,49  L 69,49  L 69,50  L 70,50  L 70,66  L 69,66  L 69,67  L 70,67  L 70,69  L 69,69  L 69,70  L 68,70  L 68,71  L 67,71  L 67,72  L 64,72  L 64,73  L 61,73  L 61,74  Z  M 76,68  L 77,68  L 77,65  L 76,65  L 76,64  L 77,64  L 77,56  L 76,56  L 76,55  L 77,55  L 77,51  L 76,51  L 76,42  L 75,42  L 75,18  L 74,18  L 74,15  L 72,15  L 72,14  L 70,14  L 70,15  L 69,15  L 69,16  L 68,16  L 68,21  L 69,21  L 69,34  L 68,34  L 68,36  L 69,36  L 69,42  L 68,42  L 68,43  L 64,43  L 64,42  L 63,42  L 63,43  L 62,43  L 62,42  L 61,42  L 61,43  L 60,43  L 60,42  L 59,42  L 59,43  L 56,43  L 56,42  L 55,42  L 55,43  L 51,43  L 51,42  L 50,42  L 50,41  L 51,41  L 51,32  L 50,32  L 50,18  L 49,18  L 49,16  L 47,16  L 47,15  L 46,15  L 46,16  L 44,16  L 44,18  L 43,18  L 43,21  L 44,21  L 44,26  L 43,26  L 43,27  L 44,27  L 44,35  L 45,35  L 45,63  L 46,63  L 46,64  L 45,64  L 45,65  L 46,65  L 46,79  L 47,79  L 47,81  L 48,81  L 48,83  L 50,83  L 50,84  L 53,84  L 53,83  L 56,83  L 56,82  L 58,82  L 58,81  L 60,81  L 60,80  L 64,80  L 64,79  L 68,79  L 68,78  L 70,78  L 70,77  L 71,77  L 71,75  L 73,75  L 73,74  L 74,74  L 74,73  L 75,73  L 75,72  L 76,72  Z  " style="fill:rgb(0, 0, 0); fill-opacity:1.000; stroke:none;" />
 <path d="  M 97,115  L 102,115  L 102,113  L 103,113  L 103,105  L 104,105  L 104,104  L 103,104  L 103,103  L 104,103  L 104,26  L 103,26  L 103,16  L 102,16  L 102,8  L 101,8  L 101,7  L 102,7  L 102,6  L 101,6  L 101,2  L 100,2  L 100,1  L 99,1  L 99,0  L 97,0  L 97,1  L 96,1  L 96,2  L 95,2  L 95,10  L 96,10  L 96,21  L 97,21  L 97,63  L 98,63  L 98,64  L 97,64  L 97,65  L 98,65  L 98,66  L 97,66  L 97,67  L 98,67  L 98,68  L 97,68  L 97,69  L 98,69  L 98,72  L 97,72  L 97,73  L 98,73  L 98,74  L 97,74  L 97,75  L 98,75  L 98,76  L 97,76  L 97,77  L 98,77  L 98,80  L 97,80  L 97,81  L 98,81  L 98,82  L 97,82  L 97,83  L 98,83  L 98,84  L 97,84  L 97,85  L 98,85  L 98,88  L 97,88  L 97,89  L 98,89  L 98,90  L 97,90  L 97,91  L 98,91  L 98,92  L 97,92  Z  " style="fill:rgb(0, 0, 0); fill-opacity:1.000; stroke:none;" />
</svg>
