<?xml version="1.0" encoding="UTF-8" standalone="no"?>
<!DOCTYPE svg PUBLIC "-//W3C//DTD SVG 1.1//EN" 
  "http://www.w3.org/Graphics/SVG/1.1/DTD/svg11.dtd">
<svg width="103" height="138"
     xmlns="http://www.w3.org/2000/svg" version="1.1">
 <path d="  M 1,38  L 1,39  L 2,39  L 2,41  L 1,41  L 1,43  L 2,43  L 2,46  L 1,46  L 1,47  L 2,47  L 2,50  L 1,50  L 1,51  L 2,51  L 2,59  L 3,59  L 3,61  L 4,61  L 4,64  L 7,64  L 7,65  L 8,65  L 8,66  L 9,66  L 9,65  L 22,65  L 22,64  L 23,64  L 23,65  L 24,65  L 24,64  L 33,64  L 33,65  L 36,65  L 36,64  L 37,64  L 37,62  L 36,62  L 36,59  L 35,59  L 35,55  L 36,55  L 36,47  L 37,47  L 37,46  L 36,46  L 36,43  L 37,43  L 37,42  L 36,42  L 36,41  L 37,41  L 37,9  L 36,9  L 36,8  L 31,8  L 31,9  L 29,9  L 29,23  L 30,23  L 30,25  L 29,25  L 29,27  L 30,27  L 30,29  L 29,29  L 29,34  L 28,34  L 28,35  L 12,35  L 12,36  L 10,36  L 10,35  L 9,35  L 9,12  L 8,12  L 8,11  L 9,11  L 9,4  L 8,4  L 8,3  L 4,3  L 4,2  L 3,2  L 3,3  L 2,3  L 2,4  L 1,4  L 1,31  L 2,31  L 2,32  L 1,32  L 1,36  L 2,36  L 2,38  Z  M 29,41  L 29,44  L 30,44  L 30,45  L 29,45  L 29,56  L 25,56  L 25,57  L 17,57  L 17,58  L 16,58  L 16,57  L 15,57  L 15,58  L 14,58  L 14,57  L 12,57  L 12,58  L 9,58  L 9,48  L 8,48  L 8,47  L 9,47  L 9,41  L 10,41  L 10,40  L 13,40  L 13,41  L 14,41  L 14,40  L 17,40  L 17,41  L 18,41  L 18,40  L 19,40  L 19,41  L 20,41  L 20,40  L 23,40  L 23,41  L 24,41  L 24,40  L 25,40  L 25,41  Z  " style="fill:rgb(0, 0, 0); fill-opacity:1.000; stroke:none;" />
 <path d="  M 26,131  L 27,131  L 27,133  L 28,133  L 28,134  L 29,134  L 29,136  L 30,136  L 30,137  L 32,137  L 32,138  L 62,138  L 62,137  L 70,137  L 70,136  L 71,136  L 71,137  L 72,137  L 72,136  L 84,136  L 84,135  L 85,135  L 85,136  L 86,136  L 86,135  L 87,135  L 87,136  L 88,136  L 88,135  L 100,135  L 100,134  L 102,134  L 102,133  L 103,133  L 103,127  L 96,127  L 96,128  L 81,128  L 81,129  L 80,129  L 80,128  L 79,128  L 79,129  L 68,129  L 68,130  L 59,130  L 59,131  L 56,131  L 56,130  L 55,130  L 55,131  L 48,131  L 48,132  L 37,132  L 37,131  L 36,131  L 36,132  L 35,132  L 35,131  L 34,131  L 34,130  L 33,130  L 33,120  L 32,120  L 32,119  L 33,119  L 33,117  L 32,117  L 32,112  L 33,112  L 33,103  L 34,103  L 34,102  L 33,102  L 33,100  L 34,100  L 34,91  L 35,91  L 35,87  L 34,87  L 34,86  L 30,86  L 30,87  L 29,87  L 29,88  L 28,88  L 28,89  L 27,89  L 27,99  L 26,99  L 26,108  L 25,108  L 25,124  L 26,124  Z  " style="fill:rgb(0, 0, 0); fill-opacity:1.000; stroke:none;" />
 <path d="  M 45,64  L 45,63  L 48,63  L 48,64  L 54,64  L 54,63  L 62,63  L 62,62  L 65,62  L 65,61  L 66,61  L 66,62  L 67,62  L 67,61  L 70,61  L 70,59  L 71,59  L 71,54  L 70,54  L 70,53  L 71,53  L 71,52  L 70,52  L 70,37  L 71,37  L 71,36  L 70,36  L 70,35  L 71,35  L 71,34  L 70,34  L 70,33  L 71,33  L 71,32  L 70,32  L 70,31  L 71,31  L 71,30  L 70,30  L 70,29  L 71,29  L 71,28  L 70,28  L 70,25  L 71,25  L 71,24  L 70,24  L 70,10  L 68,10  L 68,9  L 65,9  L 65,10  L 64,10  L 64,31  L 63,31  L 63,32  L 60,32  L 60,33  L 56,33  L 56,32  L 55,32  L 55,33  L 52,33  L 52,34  L 51,34  L 51,33  L 50,33  L 50,15  L 51,15  L 51,14  L 50,14  L 50,10  L 49,10  L 49,8  L 46,8  L 46,9  L 44,9  L 44,34  L 43,34  L 43,35  L 44,35  L 44,38  L 43,38  L 43,39  L 44,39  L 44,40  L 43,40  L 43,43  L 44,43  L 44,44  L 43,44  L 43,47  L 44,47  L 44,48  L 43,48  L 43,63  L 44,63  L 44,64  Z  M 62,38  L 62,39  L 63,39  L 63,55  L 62,55  L 62,56  L 58,56  L 58,57  L 52,57  L 52,58  L 51,58  L 51,57  L 50,57  L 50,40  L 51,40  L 51,39  L 55,39  L 55,38  L 57,38  L 57,39  L 59,39  L 59,38  Z  " style="fill:rgb(0, 0, 0); fill-opacity:1.000; stroke:none;" />
 <path d="  M 89,3  L 88,3  L 88,2  L 87,2  L 87,0  L 84,0  L 84,1  L 83,1  L 83,2  L 82,2  L 82,15  L 83,15  L 83,16  L 82,16  L 82,18  L 83,18  L 83,29  L 84,29  L 84,30  L 83,30  L 83,33  L 84,33  L 84,35  L 83,35  L 83,37  L 84,37  L 84,39  L 83,39  L 83,41  L 84,41  L 84,55  L 85,55  L 85,65  L 86,65  L 86,68  L 85,68  L 85,69  L 86,69  L 86,80  L 87,80  L 87,81  L 86,81  L 86,82  L 87,82  L 87,85  L 88,85  L 88,86  L 91,86  L 91,85  L 92,85  L 92,84  L 93,84  L 93,83  L 94,83  L 94,82  L 93,82  L 93,79  L 94,79  L 94,78  L 93,78  L 93,62  L 92,62  L 92,61  L 93,61  L 93,60  L 92,60  L 92,53  L 91,53  L 91,52  L 92,52  L 92,49  L 91,49  L 91,28  L 90,28  L 90,25  L 91,25  L 91,24  L 90,24  L 90,14  L 89,14  Z  " style="fill:rgb(0, 0, 0); fill-opacity:1.000; stroke:none;" />
</svg>
