<?xml version="1.0" encoding="UTF-8" standalone="no"?>
<!DOCTYPE svg PUBLIC "-//W3C//DTD SVG 1.1//EN" 
  "http://www.w3.org/Graphics/SVG/1.1/DTD/svg11.dtd">
<svg width="107" height="104"
     xmlns="http://www.w3.org/2000/svg" version="1.1">
 <path d="  M 45,27  L 45,26  L 46,26  L 46,24  L 47,24  L 47,23  L 48,23  L 48,20  L 50,20  L 50,18  L 51,18  L 51,14  L 52,14  L 52,13  L 51,13  L 51,11  L 47,11  L 47,13  L 46,13  L 46,14  L 45,14  L 45,16  L 44,16  L 44,17  L 43,17  L 43,20  L 42,20  L 42,21  L 41,21  L 41,22  L 40,22  L 40,24  L 39,24  L 39,26  L 38,26  L 38,27  L 37,27  L 37,28  L 36,28  L 36,30  L 35,30  L 35,32  L 34,32  L 34,34  L 33,34  L 33,35  L 32,35  L 32,37  L 31,37  L 31,39  L 30,39  L 30,40  L 29,40  L 29,41  L 28,41  L 28,43  L 27,43  L 27,44  L 26,44  L 26,46  L 25,46  L 25,48  L 24,48  L 24,50  L 23,50  L 23,51  L 22,51  L 22,53  L 21,53  L 21,54  L 20,54  L 20,56  L 19,56  L 19,57  L 18,57  L 18,58  L 17,58  L 17,59  L 16,59  L 16,61  L 15,61  L 15,62  L 14,62  L 14,63  L 13,63  L 13,64  L 12,64  L 12,65  L 11,65  L 11,67  L 10,67  L 10,68  L 8,68  L 8,70  L 7,70  L 7,71  L 6,71  L 6,72  L 4,72  L 4,73  L 3,73  L 3,74  L 2,74  L 2,75  L 1,75  L 1,76  L 0,76  L 0,80  L 1,80  L 1,81  L 6,81  L 6,80  L 7,80  L 7,79  L 8,79  L 8,78  L 9,78  L 9,77  L 10,77  L 10,76  L 11,76  L 11,75  L 12,75  L 12,74  L 13,74  L 13,72  L 14,72  L 14,71  L 16,71  L 16,69  L 17,69  L 17,68  L 18,68  L 18,67  L 20,67  L 20,65  L 21,65  L 21,64  L 22,64  L 22,63  L 23,63  L 23,61  L 24,61  L 24,60  L 25,60  L 25,59  L 26,59  L 26,58  L 27,58  L 27,57  L 28,57  L 28,56  L 29,56  L 29,54  L 30,54  L 30,52  L 31,52  L 31,50  L 32,50  L 32,49  L 34,49  L 34,50  L 35,50  L 35,51  L 36,51  L 36,52  L 38,52  L 38,53  L 39,53  L 39,54  L 40,54  L 40,55  L 41,55  L 41,56  L 42,56  L 42,57  L 43,57  L 43,58  L 45,58  L 45,59  L 46,59  L 46,60  L 47,60  L 47,62  L 49,62  L 49,63  L 51,63  L 51,64  L 52,64  L 52,65  L 54,65  L 54,66  L 55,66  L 55,67  L 56,67  L 56,68  L 57,68  L 57,69  L 58,69  L 58,70  L 60,70  L 60,71  L 62,71  L 62,72  L 63,72  L 63,73  L 64,73  L 64,72  L 65,72  L 65,71  L 66,71  L 66,69  L 65,69  L 65,67  L 64,67  L 64,66  L 63,66  L 63,65  L 62,65  L 62,64  L 61,64  L 61,62  L 59,62  L 59,61  L 58,61  L 58,60  L 56,60  L 56,59  L 55,59  L 55,58  L 54,58  L 54,57  L 52,57  L 52,56  L 51,56  L 51,55  L 50,55  L 50,54  L 49,54  L 49,53  L 47,53  L 47,52  L 46,52  L 46,51  L 45,51  L 45,50  L 44,50  L 44,49  L 42,49  L 42,48  L 41,48  L 41,47  L 39,47  L 39,46  L 38,46  L 38,45  L 36,45  L 36,43  L 37,43  L 37,40  L 38,40  L 38,39  L 39,39  L 39,36  L 40,36  L 40,33  L 41,33  L 41,32  L 42,32  L 42,30  L 43,30  L 43,28  L 44,28  L 44,27  Z  " style="fill:rgb(0, 0, 0); fill-opacity:1.000; stroke:none;" />
 <path d="  M 78,7  L 79,7  L 79,8  L 78,8  L 78,31  L 79,31  L 79,32  L 78,32  L 78,39  L 79,39  L 79,40  L 78,40  L 78,43  L 79,43  L 79,103  L 80,103  L 80,104  L 85,104  L 85,98  L 86,98  L 86,97  L 85,97  L 85,96  L 86,96  L 86,73  L 87,73  L 87,72  L 86,72  L 86,65  L 87,65  L 87,64  L 86,64  L 86,49  L 87,49  L 87,48  L 91,48  L 91,47  L 92,47  L 92,48  L 94,48  L 94,47  L 105,47  L 105,46  L 107,46  L 107,41  L 89,41  L 89,42  L 86,42  L 86,41  L 85,41  L 85,1  L 80,1  L 80,2  L 79,2  L 79,4  L 78,4  Z  " style="fill:rgb(0, 0, 0); fill-opacity:1.000; stroke:none;" />
</svg>
