<?xml version="1.0" encoding="UTF-8" standalone="no"?>
<!DOCTYPE svg PUBLIC "-//W3C//DTD SVG 1.1//EN" 
  "http://www.w3.org/Graphics/SVG/1.1/DTD/svg11.dtd">
<svg width="105" height="140"
     xmlns="http://www.w3.org/2000/svg" version="1.1">
 <path d="  M 51,54  L 49,54  L 49,53  L 48,53  L 48,52  L 47,52  L 47,51  L 45,51  L 45,49  L 42,49  L 42,48  L 41,48  L 41,47  L 40,47  L 40,46  L 39,46  L 39,45  L 37,45  L 37,44  L 36,44  L 36,43  L 35,43  L 35,42  L 33,42  L 33,40  L 32,40  L 32,39  L 31,39  L 31,38  L 30,38  L 30,37  L 29,37  L 29,36  L 28,36  L 28,34  L 27,34  L 27,32  L 28,32  L 28,31  L 29,31  L 29,30  L 31,30  L 31,29  L 30,29  L 30,28  L 31,28  L 31,26  L 32,26  L 32,25  L 33,25  L 33,23  L 34,23  L 34,22  L 35,22  L 35,20  L 36,20  L 36,18  L 37,18  L 37,17  L 38,17  L 38,15  L 39,15  L 39,14  L 41,14  L 41,12  L 42,12  L 42,10  L 43,10  L 43,6  L 42,6  L 42,5  L 40,5  L 40,6  L 38,6  L 38,7  L 37,7  L 37,9  L 36,9  L 36,10  L 35,10  L 35,12  L 34,12  L 34,13  L 33,13  L 33,14  L 32,14  L 32,15  L 31,15  L 31,16  L 30,16  L 30,18  L 29,18  L 29,19  L 28,19  L 28,20  L 27,20  L 27,22  L 26,22  L 26,24  L 25,24  L 25,25  L 24,25  L 24,26  L 23,26  L 23,28  L 22,28  L 22,30  L 21,30  L 21,32  L 20,32  L 20,33  L 19,33  L 19,35  L 18,35  L 18,37  L 17,37  L 17,38  L 16,38  L 16,39  L 15,39  L 15,41  L 14,41  L 14,42  L 13,42  L 13,43  L 12,43  L 12,45  L 11,45  L 11,46  L 10,46  L 10,47  L 9,47  L 9,48  L 8,48  L 8,49  L 7,49  L 7,50  L 6,50  L 6,52  L 5,52  L 5,53  L 4,53  L 4,54  L 3,54  L 3,55  L 2,55  L 2,57  L 1,57  L 1,59  L 0,59  L 0,60  L 1,60  L 1,63  L 2,63  L 2,64  L 3,64  L 3,63  L 6,63  L 6,62  L 7,62  L 7,60  L 8,60  L 8,59  L 9,59  L 9,58  L 10,58  L 10,56  L 11,56  L 11,55  L 12,55  L 12,54  L 13,54  L 13,53  L 14,53  L 14,51  L 15,51  L 15,50  L 16,50  L 16,49  L 17,49  L 17,48  L 18,48  L 18,47  L 19,47  L 19,45  L 20,45  L 20,44  L 21,44  L 21,43  L 22,43  L 22,42  L 23,42  L 23,41  L 26,41  L 26,42  L 27,42  L 27,44  L 28,44  L 28,45  L 29,45  L 29,46  L 30,46  L 30,47  L 31,47  L 31,48  L 32,48  L 32,49  L 34,49  L 34,50  L 35,50  L 35,52  L 37,52  L 37,53  L 38,53  L 38,54  L 40,54  L 40,55  L 41,55  L 41,56  L 42,56  L 42,57  L 43,57  L 43,58  L 45,58  L 45,60  L 46,60  L 46,61  L 48,61  L 48,62  L 54,62  L 54,57  L 53,57  L 53,55  L 51,55  Z  " style="fill:rgb(0, 0, 0); fill-opacity:1.000; stroke:none;" />
 <path d="  M 71,99  L 72,99  L 72,96  L 73,96  L 73,94  L 74,94  L 74,92  L 75,92  L 75,90  L 76,90  L 76,88  L 75,88  L 75,87  L 70,87  L 70,88  L 68,88  L 68,89  L 67,89  L 67,92  L 66,92  L 66,95  L 65,95  L 65,98  L 64,98  L 64,100  L 63,100  L 63,102  L 62,102  L 62,105  L 61,105  L 61,108  L 60,108  L 60,111  L 59,111  L 59,114  L 58,114  L 58,116  L 56,116  L 56,115  L 55,115  L 55,114  L 54,114  L 54,113  L 52,113  L 52,112  L 50,112  L 50,111  L 48,111  L 48,110  L 46,110  L 46,109  L 44,109  L 44,108  L 41,108  L 41,107  L 39,107  L 39,106  L 37,106  L 37,105  L 35,105  L 35,104  L 33,104  L 33,102  L 34,102  L 34,100  L 35,100  L 35,99  L 36,99  L 36,97  L 37,97  L 37,95  L 38,95  L 38,94  L 39,94  L 39,93  L 40,93  L 40,91  L 41,91  L 41,83  L 40,83  L 40,80  L 39,80  L 39,79  L 38,79  L 38,80  L 36,80  L 36,81  L 26,81  L 26,84  L 27,84  L 27,85  L 28,85  L 28,86  L 33,86  L 33,85  L 34,85  L 34,86  L 35,86  L 35,87  L 36,87  L 36,88  L 35,88  L 35,89  L 36,89  L 36,90  L 35,90  L 35,92  L 34,92  L 34,93  L 33,93  L 33,94  L 32,94  L 32,95  L 31,95  L 31,96  L 30,96  L 30,98  L 29,98  L 29,100  L 28,100  L 28,101  L 27,101  L 27,103  L 26,103  L 26,105  L 25,105  L 25,107  L 24,107  L 24,108  L 23,108  L 23,110  L 22,110  L 22,111  L 21,111  L 21,113  L 20,113  L 20,114  L 19,114  L 19,116  L 18,116  L 18,117  L 17,117  L 17,118  L 16,118  L 16,119  L 15,119  L 15,120  L 14,120  L 14,121  L 13,121  L 13,122  L 12,122  L 12,123  L 11,123  L 11,125  L 10,125  L 10,130  L 11,130  L 11,131  L 14,131  L 14,130  L 15,130  L 15,129  L 16,129  L 16,127  L 17,127  L 17,126  L 18,126  L 18,124  L 20,124  L 20,122  L 21,122  L 21,121  L 22,121  L 22,119  L 24,119  L 24,117  L 25,117  L 25,116  L 26,116  L 26,115  L 27,115  L 27,113  L 28,113  L 28,111  L 29,111  L 29,110  L 30,110  L 30,109  L 31,109  L 31,110  L 33,110  L 33,111  L 34,111  L 34,112  L 37,112  L 37,113  L 40,113  L 40,114  L 43,114  L 43,115  L 45,115  L 45,116  L 47,116  L 47,117  L 49,117  L 49,118  L 50,118  L 50,119  L 52,119  L 52,120  L 53,120  L 53,123  L 52,123  L 52,126  L 51,126  L 51,128  L 50,128  L 50,130  L 49,130  L 49,132  L 48,132  L 48,135  L 47,135  L 47,140  L 52,140  L 52,138  L 53,138  L 53,136  L 54,136  L 54,134  L 55,134  L 55,131  L 56,131  L 56,129  L 57,129  L 57,127  L 58,127  L 58,126  L 59,126  L 59,124  L 60,124  L 60,123  L 61,123  L 61,121  L 62,121  L 62,119  L 63,119  L 63,118  L 64,118  L 64,116  L 65,116  L 65,113  L 66,113  L 66,112  L 68,112  L 68,113  L 69,113  L 69,115  L 70,115  L 70,116  L 71,116  L 71,117  L 74,117  L 74,118  L 76,118  L 76,119  L 78,119  L 78,120  L 79,120  L 79,121  L 82,121  L 82,122  L 85,122  L 85,123  L 87,123  L 87,124  L 89,124  L 89,125  L 91,125  L 91,126  L 93,126  L 93,127  L 94,127  L 94,128  L 95,128  L 95,129  L 96,129  L 96,128  L 100,128  L 100,127  L 102,127  L 102,125  L 101,125  L 101,124  L 100,124  L 100,123  L 97,123  L 97,122  L 96,122  L 96,121  L 94,121  L 94,120  L 93,120  L 93,119  L 90,119  L 90,118  L 87,118  L 87,117  L 85,117  L 85,116  L 83,116  L 83,115  L 81,115  L 81,114  L 79,114  L 79,113  L 78,113  L 78,112  L 76,112  L 76,111  L 74,111  L 74,110  L 73,110  L 73,109  L 72,109  L 72,107  L 71,107  L 71,105  L 70,105  L 70,102  L 71,102  Z  " style="fill:rgb(0, 0, 0); fill-opacity:1.000; stroke:none;" />
 <path d="  M 71,50  L 72,50  L 72,51  L 71,51  L 71,76  L 72,76  L 72,77  L 76,77  L 76,76  L 77,76  L 77,66  L 78,66  L 78,65  L 77,65  L 77,64  L 78,64  L 78,63  L 77,63  L 77,62  L 78,62  L 78,61  L 77,61  L 77,60  L 78,60  L 78,59  L 77,59  L 77,58  L 78,58  L 78,57  L 77,57  L 77,56  L 78,56  L 78,55  L 77,55  L 77,54  L 78,54  L 78,53  L 77,53  L 77,52  L 78,52  L 78,43  L 77,43  L 77,40  L 79,40  L 79,39  L 80,39  L 80,38  L 85,38  L 85,37  L 93,37  L 93,36  L 94,36  L 94,37  L 95,37  L 95,36  L 96,36  L 96,37  L 97,37  L 97,36  L 102,36  L 102,37  L 103,37  L 103,36  L 105,36  L 105,32  L 104,32  L 104,31  L 80,31  L 80,32  L 77,32  L 77,20  L 76,20  L 76,9  L 75,9  L 75,3  L 74,3  L 74,1  L 73,1  L 73,0  L 70,0  L 70,1  L 69,1  L 69,2  L 70,2  L 70,12  L 71,12  Z  " style="fill:rgb(0, 0, 0); fill-opacity:1.000; stroke:none;" />
</svg>
