<?xml version="1.0" encoding="UTF-8" standalone="no"?>
<!DOCTYPE svg PUBLIC "-//W3C//DTD SVG 1.1//EN" 
  "http://www.w3.org/Graphics/SVG/1.1/DTD/svg11.dtd">
<svg width="104" height="139"
     xmlns="http://www.w3.org/2000/svg" version="1.1">
 <path d="  M 39,19  L 40,19  L 40,18  L 41,18  L 41,17  L 42,17  L 42,15  L 43,15  L 43,14  L 44,14  L 44,13  L 45,13  L 45,11  L 46,11  L 46,9  L 45,9  L 45,7  L 42,7  L 42,8  L 40,8  L 40,9  L 39,9  L 39,10  L 38,10  L 38,12  L 37,12  L 37,13  L 36,13  L 36,14  L 34,14  L 34,16  L 33,16  L 33,18  L 32,18  L 32,19  L 31,19  L 31,20  L 30,20  L 30,21  L 29,21  L 29,22  L 28,22  L 28,23  L 27,23  L 27,25  L 26,25  L 26,26  L 25,26  L 25,27  L 24,27  L 24,28  L 23,28  L 23,31  L 22,31  L 22,32  L 21,32  L 21,34  L 20,34  L 20,35  L 19,35  L 19,36  L 18,36  L 18,37  L 17,37  L 17,38  L 16,38  L 16,40  L 15,40  L 15,42  L 14,42  L 14,43  L 13,43  L 13,44  L 12,44  L 12,46  L 11,46  L 11,47  L 10,47  L 10,48  L 9,48  L 9,50  L 7,50  L 7,52  L 6,52  L 6,53  L 5,53  L 5,54  L 4,54  L 4,55  L 3,55  L 3,56  L 2,56  L 2,58  L 1,58  L 1,60  L 0,60  L 0,61  L 1,61  L 1,62  L 2,62  L 2,64  L 6,64  L 6,63  L 7,63  L 7,62  L 8,62  L 8,60  L 10,60  L 10,58  L 11,58  L 11,57  L 12,57  L 12,56  L 13,56  L 13,54  L 14,54  L 14,53  L 15,53  L 15,52  L 16,52  L 16,51  L 17,51  L 17,50  L 18,50  L 18,49  L 19,49  L 19,48  L 20,48  L 20,46  L 22,46  L 22,44  L 23,44  L 23,43  L 24,43  L 24,40  L 25,40  L 25,39  L 29,39  L 29,41  L 31,41  L 31,42  L 32,42  L 32,43  L 33,43  L 33,44  L 34,44  L 34,45  L 36,45  L 36,46  L 37,46  L 37,48  L 39,48  L 39,50  L 41,50  L 41,52  L 42,52  L 42,53  L 43,53  L 43,54  L 45,54  L 45,56  L 47,56  L 47,57  L 49,57  L 49,60  L 50,60  L 50,59  L 51,59  L 51,60  L 52,60  L 52,59  L 53,59  L 53,60  L 55,60  L 55,61  L 56,61  L 56,60  L 58,60  L 58,58  L 57,58  L 57,57  L 56,57  L 56,56  L 55,56  L 55,54  L 54,54  L 54,52  L 53,52  L 53,51  L 52,51  L 52,50  L 51,50  L 51,49  L 50,49  L 50,48  L 49,48  L 49,47  L 48,47  L 48,45  L 46,45  L 46,44  L 45,44  L 45,43  L 44,43  L 44,42  L 43,42  L 43,41  L 42,41  L 42,40  L 41,40  L 41,39  L 39,39  L 39,38  L 38,38  L 38,37  L 37,37  L 37,36  L 36,36  L 36,35  L 35,35  L 35,34  L 34,34  L 34,32  L 33,32  L 33,31  L 32,31  L 32,29  L 33,29  L 33,28  L 34,28  L 34,27  L 35,27  L 35,25  L 36,25  L 36,24  L 37,24  L 37,22  L 38,22  L 38,21  L 39,21  Z  " style="fill:rgb(0, 0, 0); fill-opacity:1.000; stroke:none;" />
 <path d="  M 35,90  L 34,90  L 34,83  L 32,83  L 32,82  L 31,82  L 31,83  L 28,83  L 28,86  L 27,86  L 27,89  L 28,89  L 28,92  L 27,92  L 27,93  L 28,93  L 28,98  L 27,98  L 27,99  L 28,99  L 28,102  L 27,102  L 27,103  L 28,103  L 28,106  L 27,106  L 27,107  L 28,107  L 28,123  L 29,123  L 29,130  L 30,130  L 30,133  L 31,133  L 31,134  L 32,134  L 32,137  L 33,137  L 33,138  L 35,138  L 35,139  L 56,139  L 56,138  L 59,138  L 59,139  L 60,139  L 60,138  L 63,138  L 63,137  L 68,137  L 68,136  L 75,136  L 75,135  L 81,135  L 81,134  L 82,134  L 82,135  L 84,135  L 84,134  L 92,134  L 92,133  L 100,133  L 100,132  L 102,132  L 102,131  L 103,131  L 103,130  L 104,130  L 104,125  L 97,125  L 97,126  L 92,126  L 92,127  L 85,127  L 85,128  L 78,128  L 78,129  L 71,129  L 71,130  L 64,130  L 64,131  L 61,131  L 61,130  L 60,130  L 60,131  L 56,131  L 56,132  L 47,132  L 47,133  L 45,133  L 45,132  L 44,132  L 44,133  L 40,133  L 40,132  L 38,132  L 38,130  L 37,130  L 37,126  L 36,126  L 36,120  L 35,120  L 35,119  L 36,119  L 36,118  L 35,118  Z  " style="fill:rgb(0, 0, 0); fill-opacity:1.000; stroke:none;" />
 <path d="  M 96,56  L 97,56  L 97,36  L 96,36  L 96,31  L 95,31  L 95,22  L 94,22  L 94,19  L 95,19  L 95,18  L 94,18  L 94,12  L 93,12  L 93,3  L 92,3  L 92,2  L 91,2  L 91,1  L 88,1  L 88,2  L 86,2  L 86,7  L 87,7  L 87,8  L 86,8  L 86,9  L 87,9  L 87,15  L 88,15  L 88,27  L 89,27  L 89,33  L 88,33  L 88,34  L 85,34  L 85,33  L 76,33  L 76,34  L 73,34  L 73,1  L 68,1  L 68,2  L 67,2  L 67,8  L 66,8  L 66,9  L 67,9  L 67,12  L 66,12  L 66,13  L 67,13  L 67,16  L 66,16  L 66,17  L 67,17  L 67,20  L 66,20  L 66,21  L 67,21  L 67,22  L 66,22  L 66,23  L 67,23  L 67,24  L 66,24  L 66,25  L 67,25  L 67,26  L 66,26  L 66,27  L 67,27  L 67,28  L 66,28  L 66,29  L 67,29  L 67,72  L 68,72  L 68,74  L 70,74  L 70,73  L 72,73  L 72,72  L 74,72  L 74,41  L 75,41  L 75,40  L 90,40  L 90,61  L 89,61  L 89,62  L 90,62  L 90,65  L 89,65  L 89,66  L 90,66  L 90,67  L 89,67  L 89,76  L 90,76  L 90,77  L 91,77  L 91,76  L 92,76  L 92,77  L 93,77  L 93,76  L 95,76  L 95,75  L 96,75  Z  " style="fill:rgb(0, 0, 0); fill-opacity:1.000; stroke:none;" />
</svg>
