<?xml version="1.0" encoding="UTF-8" standalone="no"?>
<!DOCTYPE svg PUBLIC "-//W3C//DTD SVG 1.1//EN" 
  "http://www.w3.org/Graphics/SVG/1.1/DTD/svg11.dtd">
<svg width="105" height="165"
     xmlns="http://www.w3.org/2000/svg" version="1.1">
 <path d="  M 43,32  L 43,29  L 44,29  L 44,28  L 45,28  L 45,27  L 46,27  L 46,24  L 47,24  L 47,22  L 48,22  L 48,18  L 49,18  L 49,13  L 47,13  L 47,12  L 46,12  L 46,13  L 43,13  L 43,14  L 42,14  L 42,15  L 41,15  L 41,19  L 40,19  L 40,23  L 39,23  L 39,25  L 38,25  L 38,27  L 37,27  L 37,28  L 36,28  L 36,29  L 35,29  L 35,30  L 34,30  L 34,32  L 33,32  L 33,33  L 32,33  L 32,34  L 31,34  L 31,35  L 30,35  L 30,36  L 29,36  L 29,38  L 27,38  L 27,39  L 26,39  L 26,40  L 25,40  L 25,43  L 24,43  L 24,44  L 23,44  L 23,46  L 22,46  L 22,48  L 21,48  L 21,49  L 20,49  L 20,50  L 19,50  L 19,51  L 18,51  L 18,52  L 17,52  L 17,53  L 16,53  L 16,54  L 15,54  L 15,55  L 14,55  L 14,56  L 13,56  L 13,57  L 11,57  L 11,58  L 10,58  L 10,60  L 7,60  L 7,61  L 6,61  L 6,62  L 5,62  L 5,63  L 3,63  L 3,64  L 2,64  L 2,65  L 1,65  L 1,66  L 0,66  L 0,68  L 1,68  L 1,72  L 2,72  L 2,74  L 6,74  L 6,72  L 7,72  L 7,71  L 8,71  L 8,70  L 9,70  L 9,69  L 10,69  L 10,68  L 11,68  L 11,67  L 12,67  L 12,66  L 13,66  L 13,65  L 14,65  L 14,64  L 16,64  L 16,63  L 17,63  L 17,62  L 18,62  L 18,61  L 19,61  L 19,60  L 21,60  L 21,58  L 22,58  L 22,57  L 24,57  L 24,56  L 25,56  L 25,55  L 26,55  L 26,54  L 27,54  L 27,53  L 28,53  L 28,52  L 29,52  L 29,53  L 31,53  L 31,54  L 33,54  L 33,55  L 34,55  L 34,56  L 35,56  L 35,57  L 36,57  L 36,58  L 37,58  L 37,59  L 39,59  L 39,60  L 40,60  L 40,61  L 41,61  L 41,62  L 42,62  L 42,63  L 43,63  L 43,64  L 44,64  L 44,66  L 45,66  L 45,67  L 46,67  L 46,68  L 47,68  L 47,69  L 48,69  L 48,70  L 49,70  L 49,71  L 50,71  L 50,72  L 51,72  L 51,73  L 52,73  L 52,74  L 57,74  L 57,73  L 58,73  L 58,72  L 59,72  L 59,68  L 58,68  L 58,66  L 56,66  L 56,65  L 55,65  L 55,64  L 54,64  L 54,63  L 53,63  L 53,62  L 52,62  L 52,61  L 51,61  L 51,60  L 50,60  L 50,59  L 49,59  L 49,58  L 48,58  L 48,57  L 47,57  L 47,56  L 45,56  L 45,55  L 44,55  L 44,54  L 43,54  L 43,53  L 41,53  L 41,51  L 39,51  L 39,50  L 38,50  L 38,49  L 37,49  L 37,48  L 35,48  L 35,47  L 33,47  L 33,46  L 32,46  L 32,45  L 33,45  L 33,42  L 35,42  L 35,40  L 36,40  L 36,38  L 37,38  L 37,37  L 38,37  L 38,36  L 39,36  L 39,35  L 40,35  L 40,34  L 41,34  L 41,32  Z  " style="fill:rgb(0, 0, 0); fill-opacity:1.000; stroke:none;" />
 <path d="  M 52,132  L 50,132  L 50,133  L 47,133  L 47,134  L 45,134  L 45,135  L 44,135  L 44,136  L 43,136  L 43,137  L 42,137  L 42,138  L 41,138  L 41,140  L 40,140  L 40,141  L 39,141  L 39,152  L 40,152  L 40,154  L 39,154  L 39,155  L 40,155  L 40,158  L 41,158  L 41,159  L 42,159  L 42,161  L 43,161  L 43,162  L 45,162  L 45,163  L 47,163  L 47,164  L 48,164  L 48,165  L 65,165  L 65,164  L 72,164  L 72,163  L 75,163  L 75,162  L 77,162  L 77,161  L 80,161  L 80,160  L 82,160  L 82,159  L 85,159  L 85,158  L 86,158  L 86,157  L 88,157  L 88,156  L 90,156  L 90,155  L 92,155  L 92,154  L 93,154  L 93,153  L 96,153  L 96,152  L 97,152  L 97,151  L 99,151  L 99,150  L 100,150  L 100,149  L 101,149  L 101,148  L 102,148  L 102,143  L 97,143  L 97,144  L 95,144  L 95,145  L 93,145  L 93,146  L 91,146  L 91,147  L 90,147  L 90,148  L 88,148  L 88,149  L 87,149  L 87,150  L 85,150  L 85,151  L 83,151  L 83,152  L 81,152  L 81,153  L 79,153  L 79,154  L 76,154  L 76,155  L 72,155  L 72,156  L 68,156  L 68,157  L 64,157  L 64,158  L 58,158  L 58,159  L 56,159  L 56,158  L 51,158  L 51,157  L 49,157  L 49,156  L 48,156  L 48,155  L 47,155  L 47,153  L 46,153  L 46,152  L 47,152  L 47,151  L 46,151  L 46,148  L 47,148  L 47,147  L 46,147  L 46,144  L 47,144  L 47,142  L 48,142  L 48,141  L 51,141  L 51,140  L 53,140  L 53,139  L 55,139  L 55,138  L 57,138  L 57,137  L 59,137  L 59,136  L 61,136  L 61,135  L 62,135  L 62,134  L 64,134  L 64,133  L 65,133  L 65,132  L 68,132  L 68,131  L 70,131  L 70,130  L 72,130  L 72,129  L 74,129  L 74,128  L 76,128  L 76,127  L 77,127  L 77,126  L 79,126  L 79,125  L 80,125  L 80,124  L 81,124  L 81,123  L 83,123  L 83,122  L 85,122  L 85,121  L 87,121  L 87,120  L 88,120  L 88,117  L 89,117  L 89,116  L 88,116  L 88,115  L 89,115  L 89,114  L 88,114  L 88,111  L 87,111  L 87,107  L 86,107  L 86,106  L 85,106  L 85,105  L 84,105  L 84,104  L 83,104  L 83,103  L 82,103  L 82,102  L 81,102  L 81,101  L 79,101  L 79,100  L 77,100  L 77,99  L 74,99  L 74,98  L 71,98  L 71,97  L 46,97  L 46,98  L 44,98  L 44,99  L 43,99  L 43,100  L 42,100  L 42,102  L 41,102  L 41,103  L 42,103  L 42,104  L 43,104  L 43,105  L 48,105  L 48,104  L 70,104  L 70,105  L 73,105  L 73,106  L 75,106  L 75,107  L 76,107  L 76,108  L 77,108  L 77,109  L 78,109  L 78,110  L 79,110  L 79,113  L 80,113  L 80,114  L 79,114  L 79,117  L 77,117  L 77,118  L 76,118  L 76,119  L 75,119  L 75,120  L 73,120  L 73,121  L 71,121  L 71,122  L 70,122  L 70,123  L 68,123  L 68,124  L 65,124  L 65,125  L 64,125  L 64,126  L 61,126  L 61,127  L 59,127  L 59,128  L 57,128  L 57,129  L 56,129  L 56,130  L 55,130  L 55,131  L 52,131  Z  " style="fill:rgb(0, 0, 0); fill-opacity:1.000; stroke:none;" />
 <path d="  M 74,61  L 73,61  L 73,70  L 72,70  L 72,79  L 71,79  L 71,80  L 72,80  L 72,84  L 73,84  L 73,85  L 76,85  L 76,84  L 77,84  L 77,81  L 78,81  L 78,80  L 79,80  L 79,79  L 78,79  L 78,78  L 79,78  L 79,70  L 80,70  L 80,63  L 81,63  L 81,60  L 82,60  L 82,59  L 81,59  L 81,56  L 82,56  L 82,53  L 81,53  L 81,52  L 82,52  L 82,42  L 83,42  L 83,41  L 84,41  L 84,40  L 85,40  L 85,41  L 86,41  L 86,40  L 98,40  L 98,86  L 97,86  L 97,87  L 98,87  L 98,90  L 97,90  L 97,91  L 98,91  L 98,95  L 102,95  L 102,94  L 103,94  L 103,93  L 104,93  L 104,89  L 105,89  L 105,25  L 104,25  L 104,3  L 103,3  L 103,2  L 98,2  L 98,3  L 97,3  L 97,15  L 98,15  L 98,16  L 97,16  L 97,18  L 98,18  L 98,31  L 97,31  L 97,32  L 91,32  L 91,33  L 80,33  L 80,3  L 79,3  L 79,2  L 78,2  L 78,1  L 77,1  L 77,0  L 73,0  L 73,3  L 72,3  L 72,4  L 73,4  L 73,27  L 72,27  L 72,28  L 73,28  L 73,31  L 72,31  L 72,32  L 73,32  L 73,34  L 72,34  L 72,36  L 73,36  L 73,38  L 72,38  L 72,40  L 73,40  L 73,49  L 74,49  Z  " style="fill:rgb(0, 0, 0); fill-opacity:1.000; stroke:none;" />
</svg>
