<?xml version="1.0" encoding="UTF-8" standalone="no"?>
<!DOCTYPE svg PUBLIC "-//W3C//DTD SVG 1.1//EN" 
  "http://www.w3.org/Graphics/SVG/1.1/DTD/svg11.dtd">
<svg width="104" height="147"
     xmlns="http://www.w3.org/2000/svg" version="1.1">
 <path d="  M 3,60  L 3,61  L 2,61  L 2,62  L 1,62  L 1,64  L 0,64  L 0,67  L 1,67  L 1,71  L 2,71  L 2,70  L 4,70  L 4,69  L 5,69  L 5,68  L 7,68  L 7,66  L 9,66  L 9,64  L 10,64  L 10,63  L 11,63  L 11,62  L 12,62  L 12,60  L 13,60  L 13,59  L 14,59  L 14,58  L 16,58  L 16,57  L 17,57  L 17,56  L 18,56  L 18,55  L 19,55  L 19,54  L 20,54  L 20,53  L 21,53  L 21,52  L 22,52  L 22,51  L 23,51  L 23,48  L 24,48  L 24,46  L 27,46  L 27,47  L 28,47  L 28,48  L 29,48  L 29,49  L 30,49  L 30,50  L 32,50  L 32,52  L 34,52  L 34,53  L 36,53  L 36,54  L 37,54  L 37,55  L 39,55  L 39,57  L 40,57  L 40,58  L 41,58  L 41,59  L 42,59  L 42,60  L 43,60  L 43,61  L 45,61  L 45,62  L 46,62  L 46,63  L 48,63  L 48,64  L 49,64  L 49,65  L 50,65  L 50,66  L 52,66  L 52,67  L 53,67  L 53,66  L 57,66  L 57,62  L 56,62  L 56,61  L 55,61  L 55,60  L 54,60  L 54,59  L 53,59  L 53,58  L 52,58  L 52,57  L 51,57  L 51,56  L 50,56  L 50,55  L 49,55  L 49,54  L 48,54  L 48,53  L 47,53  L 47,52  L 45,52  L 45,51  L 44,51  L 44,50  L 43,50  L 43,49  L 41,49  L 41,48  L 40,48  L 40,47  L 39,47  L 39,46  L 37,46  L 37,45  L 36,45  L 36,44  L 35,44  L 35,42  L 33,42  L 33,40  L 32,40  L 32,39  L 31,39  L 31,36  L 32,36  L 32,35  L 34,35  L 34,33  L 35,33  L 35,32  L 36,32  L 36,30  L 37,30  L 37,28  L 38,28  L 38,27  L 39,27  L 39,25  L 40,25  L 40,23  L 41,23  L 41,22  L 42,22  L 42,20  L 43,20  L 43,18  L 44,18  L 44,15  L 45,15  L 45,9  L 41,9  L 41,10  L 40,10  L 40,11  L 39,11  L 39,13  L 38,13  L 38,16  L 37,16  L 37,17  L 36,17  L 36,19  L 35,19  L 35,20  L 34,20  L 34,21  L 33,21  L 33,23  L 32,23  L 32,25  L 31,25  L 31,26  L 30,26  L 30,28  L 29,28  L 29,29  L 28,29  L 28,30  L 27,30  L 27,31  L 26,31  L 26,32  L 25,32  L 25,34  L 24,34  L 24,35  L 23,35  L 23,36  L 22,36  L 22,38  L 21,38  L 21,40  L 20,40  L 20,42  L 19,42  L 19,43  L 18,43  L 18,44  L 17,44  L 17,45  L 16,45  L 16,46  L 15,46  L 15,48  L 14,48  L 14,49  L 13,49  L 13,51  L 11,51  L 11,52  L 10,52  L 10,54  L 9,54  L 9,55  L 8,55  L 8,56  L 6,56  L 6,58  L 5,58  L 5,59  L 4,59  L 4,60  Z  " style="fill:rgb(0, 0, 0); fill-opacity:1.000; stroke:none;" />
 <path d="  M 58,116  L 59,116  L 59,117  L 60,117  L 60,119  L 62,119  L 62,120  L 63,120  L 63,121  L 64,121  L 64,122  L 66,122  L 66,123  L 68,123  L 68,124  L 69,124  L 69,125  L 70,125  L 70,126  L 72,126  L 72,127  L 74,127  L 74,128  L 76,128  L 76,129  L 77,129  L 77,130  L 79,130  L 79,131  L 80,131  L 80,132  L 82,132  L 82,133  L 85,133  L 85,134  L 87,134  L 87,135  L 88,135  L 88,136  L 92,136  L 92,137  L 94,137  L 94,138  L 97,138  L 97,139  L 104,139  L 104,134  L 103,134  L 103,133  L 102,133  L 102,132  L 97,132  L 97,131  L 93,131  L 93,130  L 91,130  L 91,129  L 89,129  L 89,128  L 88,128  L 88,127  L 86,127  L 86,126  L 84,126  L 84,125  L 82,125  L 82,124  L 81,124  L 81,123  L 78,123  L 78,122  L 77,122  L 77,121  L 76,121  L 76,120  L 74,120  L 74,119  L 72,119  L 72,118  L 71,118  L 71,117  L 70,117  L 70,116  L 68,116  L 68,115  L 66,115  L 66,114  L 65,114  L 65,113  L 64,113  L 64,112  L 63,112  L 63,111  L 62,111  L 62,110  L 61,110  L 61,108  L 60,108  L 60,105  L 61,105  L 61,103  L 62,103  L 62,101  L 63,101  L 63,100  L 65,100  L 65,99  L 66,99  L 66,96  L 67,96  L 67,95  L 68,95  L 68,93  L 69,93  L 69,91  L 70,91  L 70,90  L 69,90  L 69,89  L 67,89  L 67,88  L 64,88  L 64,89  L 61,89  L 61,90  L 60,90  L 60,93  L 59,93  L 59,94  L 58,94  L 58,96  L 57,96  L 57,97  L 56,97  L 56,98  L 55,98  L 55,99  L 54,99  L 54,102  L 53,102  L 53,103  L 52,103  L 52,105  L 51,105  L 51,106  L 50,106  L 50,107  L 49,107  L 49,108  L 48,108  L 48,110  L 47,110  L 47,111  L 46,111  L 46,113  L 45,113  L 45,115  L 44,115  L 44,116  L 43,116  L 43,117  L 42,117  L 42,119  L 41,119  L 41,121  L 40,121  L 40,123  L 39,123  L 39,124  L 38,124  L 38,126  L 37,126  L 37,127  L 36,127  L 36,129  L 35,129  L 35,131  L 34,131  L 34,133  L 33,133  L 33,135  L 32,135  L 32,136  L 31,136  L 31,138  L 30,138  L 30,139  L 29,139  L 29,140  L 28,140  L 28,146  L 29,146  L 29,147  L 33,147  L 33,145  L 34,145  L 34,144  L 35,144  L 35,143  L 36,143  L 36,141  L 37,141  L 37,140  L 38,140  L 38,138  L 39,138  L 39,137  L 40,137  L 40,135  L 41,135  L 41,134  L 42,134  L 42,131  L 43,131  L 43,129  L 44,129  L 44,128  L 45,128  L 45,126  L 46,126  L 46,124  L 47,124  L 47,122  L 48,122  L 48,121  L 49,121  L 49,119  L 50,119  L 50,117  L 51,117  L 51,116  L 52,116  L 52,114  L 53,114  L 53,113  L 54,113  L 54,114  L 55,114  L 55,113  L 56,113  L 56,114  L 57,114  L 57,115  L 58,115  Z  " style="fill:rgb(0, 0, 0); fill-opacity:1.000; stroke:none;" />
 <path d="  M 78,43  L 79,43  L 79,42  L 78,42  L 78,39  L 77,39  L 77,37  L 78,37  L 78,36  L 81,36  L 81,35  L 86,35  L 86,34  L 94,34  L 94,35  L 95,35  L 95,52  L 96,52  L 96,53  L 95,53  L 95,56  L 96,56  L 96,79  L 97,79  L 97,80  L 96,80  L 96,82  L 97,82  L 97,87  L 99,87  L 99,88  L 100,88  L 100,87  L 101,87  L 101,85  L 102,85  L 102,84  L 103,84  L 103,54  L 102,54  L 102,53  L 103,53  L 103,52  L 102,52  L 102,51  L 103,51  L 103,50  L 102,50  L 102,49  L 103,49  L 103,48  L 102,48  L 102,47  L 103,47  L 103,46  L 102,46  L 102,24  L 101,24  L 101,23  L 102,23  L 102,22  L 101,22  L 101,5  L 100,5  L 100,3  L 95,3  L 95,26  L 94,26  L 94,27  L 93,27  L 93,28  L 83,28  L 83,29  L 76,29  L 76,28  L 75,28  L 75,23  L 76,23  L 76,21  L 75,21  L 75,14  L 76,14  L 76,12  L 75,12  L 75,5  L 76,5  L 76,3  L 75,3  L 75,2  L 74,2  L 74,1  L 73,1  L 73,0  L 70,0  L 70,2  L 69,2  L 69,35  L 70,35  L 70,36  L 69,36  L 69,37  L 70,37  L 70,56  L 69,56  L 69,57  L 70,57  L 70,60  L 69,60  L 69,71  L 68,71  L 68,74  L 67,74  L 67,75  L 68,75  L 68,77  L 69,77  L 69,78  L 70,78  L 70,79  L 71,79  L 71,78  L 73,78  L 73,77  L 74,77  L 74,75  L 75,75  L 75,74  L 74,74  L 74,72  L 75,72  L 75,67  L 76,67  L 76,63  L 77,63  L 77,53  L 78,53  Z  " style="fill:rgb(0, 0, 0); fill-opacity:1.000; stroke:none;" />
</svg>
