<?xml version="1.0" encoding="UTF-8" standalone="no"?>
<!DOCTYPE svg PUBLIC "-//W3C//DTD SVG 1.1//EN" 
  "http://www.w3.org/Graphics/SVG/1.1/DTD/svg11.dtd">
<svg width="105" height="136"
     xmlns="http://www.w3.org/2000/svg" version="1.1">
 <path d="  M 15,41  L 14,41  L 14,42  L 13,42  L 13,43  L 12,43  L 12,44  L 11,44  L 11,45  L 10,45  L 10,47  L 9,47  L 9,48  L 8,48  L 8,49  L 7,49  L 7,50  L 6,50  L 6,52  L 5,52  L 5,53  L 4,53  L 4,54  L 3,54  L 3,55  L 2,55  L 2,58  L 1,58  L 1,63  L 2,63  L 2,64  L 4,64  L 4,63  L 6,63  L 6,62  L 7,62  L 7,61  L 8,61  L 8,59  L 9,59  L 9,58  L 10,58  L 10,56  L 11,56  L 11,55  L 12,55  L 12,53  L 13,53  L 13,52  L 14,52  L 14,51  L 15,51  L 15,50  L 16,50  L 16,49  L 17,49  L 17,48  L 18,48  L 18,47  L 20,47  L 20,45  L 21,45  L 21,43  L 22,43  L 22,42  L 23,42  L 23,41  L 24,41  L 24,42  L 25,42  L 25,43  L 27,43  L 27,44  L 29,44  L 29,46  L 31,46  L 31,47  L 32,47  L 32,48  L 33,48  L 33,49  L 35,49  L 35,50  L 36,50  L 36,51  L 37,51  L 37,52  L 38,52  L 38,53  L 39,53  L 39,54  L 40,54  L 40,55  L 41,55  L 41,56  L 42,56  L 42,57  L 43,57  L 43,58  L 45,58  L 45,59  L 47,59  L 47,60  L 49,60  L 49,59  L 51,59  L 51,57  L 50,57  L 50,54  L 49,54  L 49,53  L 48,53  L 48,52  L 47,52  L 47,51  L 46,51  L 46,50  L 45,50  L 45,49  L 44,49  L 44,48  L 43,48  L 43,47  L 42,47  L 42,46  L 41,46  L 41,45  L 39,45  L 39,43  L 37,43  L 37,42  L 36,42  L 36,41  L 35,41  L 35,40  L 34,40  L 34,39  L 32,39  L 32,38  L 31,38  L 31,37  L 30,37  L 30,35  L 29,35  L 29,34  L 28,34  L 28,33  L 27,33  L 27,32  L 28,32  L 28,31  L 30,31  L 30,30  L 31,30  L 31,27  L 32,27  L 32,26  L 33,26  L 33,25  L 34,25  L 34,23  L 35,23  L 35,22  L 36,22  L 36,20  L 37,20  L 37,19  L 38,19  L 38,18  L 39,18  L 39,16  L 40,16  L 40,14  L 41,14  L 41,11  L 42,11  L 42,9  L 41,9  L 41,7  L 38,7  L 38,8  L 37,8  L 37,9  L 36,9  L 36,10  L 35,10  L 35,12  L 34,12  L 34,14  L 33,14  L 33,15  L 32,15  L 32,16  L 31,16  L 31,17  L 30,17  L 30,19  L 29,19  L 29,21  L 28,21  L 28,22  L 27,22  L 27,23  L 26,23  L 26,24  L 25,24  L 25,26  L 24,26  L 24,28  L 23,28  L 23,29  L 22,29  L 22,31  L 21,31  L 21,33  L 20,33  L 20,34  L 19,34  L 19,36  L 18,36  L 18,37  L 17,37  L 17,38  L 16,38  L 16,39  L 15,39  Z  " style="fill:rgb(0, 0, 0); fill-opacity:1.000; stroke:none;" />
 <path d="  M 22,108  L 21,108  L 21,110  L 20,110  L 20,111  L 19,111  L 19,113  L 18,113  L 18,114  L 17,114  L 17,115  L 16,115  L 16,116  L 15,116  L 15,117  L 14,117  L 14,119  L 13,119  L 13,120  L 12,120  L 12,121  L 11,121  L 11,123  L 10,123  L 10,128  L 12,128  L 12,129  L 13,129  L 13,128  L 15,128  L 15,127  L 16,127  L 16,126  L 17,126  L 17,125  L 18,125  L 18,123  L 19,123  L 19,121  L 20,121  L 20,120  L 21,120  L 21,118  L 22,118  L 22,117  L 23,117  L 23,116  L 24,116  L 24,115  L 25,115  L 25,113  L 26,113  L 26,110  L 27,110  L 27,109  L 28,109  L 28,107  L 31,107  L 31,108  L 32,108  L 32,109  L 34,109  L 34,110  L 35,110  L 35,111  L 36,111  L 36,112  L 38,112  L 38,113  L 40,113  L 40,114  L 43,114  L 43,115  L 47,115  L 47,116  L 49,116  L 49,117  L 51,117  L 51,118  L 53,118  L 53,119  L 54,119  L 54,120  L 55,120  L 55,121  L 56,121  L 56,122  L 55,122  L 55,123  L 54,123  L 54,127  L 53,127  L 53,131  L 52,131  L 52,133  L 51,133  L 51,136  L 56,136  L 56,135  L 57,135  L 57,134  L 58,134  L 58,131  L 59,131  L 59,129  L 60,129  L 60,127  L 61,127  L 61,126  L 62,126  L 62,125  L 63,125  L 63,124  L 64,124  L 64,121  L 65,121  L 65,119  L 66,119  L 66,114  L 67,114  L 67,113  L 68,113  L 68,112  L 69,112  L 69,111  L 70,111  L 70,110  L 73,110  L 73,111  L 74,111  L 74,112  L 75,112  L 75,113  L 76,113  L 76,114  L 77,114  L 77,115  L 79,115  L 79,116  L 80,116  L 80,117  L 83,117  L 83,118  L 85,118  L 85,119  L 86,119  L 86,120  L 88,120  L 88,121  L 91,121  L 91,122  L 93,122  L 93,123  L 95,123  L 95,124  L 97,124  L 97,125  L 99,125  L 99,126  L 101,126  L 101,127  L 102,127  L 102,128  L 104,128  L 104,127  L 105,127  L 105,123  L 104,123  L 104,122  L 103,122  L 103,121  L 102,121  L 102,120  L 101,120  L 101,119  L 97,119  L 97,118  L 95,118  L 95,117  L 93,117  L 93,116  L 91,116  L 91,115  L 89,115  L 89,114  L 87,114  L 87,113  L 86,113  L 86,112  L 84,112  L 84,111  L 82,111  L 82,110  L 81,110  L 81,109  L 80,109  L 80,108  L 79,108  L 79,107  L 78,107  L 78,106  L 77,106  L 77,105  L 76,105  L 76,98  L 77,98  L 77,95  L 78,95  L 78,92  L 79,92  L 79,87  L 78,87  L 78,86  L 77,86  L 77,85  L 76,85  L 76,86  L 75,86  L 75,87  L 74,87  L 74,88  L 73,88  L 73,90  L 72,90  L 72,92  L 71,92  L 71,93  L 70,93  L 70,97  L 69,97  L 69,98  L 68,98  L 68,100  L 67,100  L 67,102  L 66,102  L 66,103  L 65,103  L 65,107  L 64,107  L 64,108  L 63,108  L 63,111  L 62,111  L 62,115  L 61,115  L 61,116  L 58,116  L 58,115  L 57,115  L 57,114  L 56,114  L 56,113  L 55,113  L 55,112  L 53,112  L 53,111  L 49,111  L 49,110  L 46,110  L 46,109  L 45,109  L 45,108  L 42,108  L 42,107  L 41,107  L 41,106  L 40,106  L 40,105  L 38,105  L 38,104  L 36,104  L 36,103  L 35,103  L 35,101  L 34,101  L 34,96  L 35,96  L 35,94  L 36,94  L 36,91  L 37,91  L 37,88  L 38,88  L 38,86  L 36,86  L 36,85  L 35,85  L 35,87  L 33,87  L 33,88  L 31,88  L 31,90  L 30,90  L 30,91  L 29,91  L 29,93  L 28,93  L 28,95  L 27,95  L 27,98  L 26,98  L 26,101  L 25,101  L 25,102  L 24,102  L 24,104  L 23,104  L 23,106  L 22,106  Z  " style="fill:rgb(0, 0, 0); fill-opacity:1.000; stroke:none;" />
 <path d="  M 68,31  L 68,32  L 66,32  L 66,30  L 65,30  L 65,12  L 64,12  L 64,3  L 63,3  L 63,2  L 59,2  L 59,4  L 58,4  L 58,10  L 59,10  L 59,11  L 58,11  L 58,12  L 59,12  L 59,15  L 58,15  L 58,16  L 59,16  L 59,34  L 60,34  L 60,46  L 61,46  L 61,49  L 60,49  L 60,50  L 61,50  L 61,57  L 60,57  L 60,58  L 61,58  L 61,65  L 60,65  L 60,66  L 61,66  L 61,71  L 62,71  L 62,72  L 66,72  L 66,70  L 67,70  L 67,69  L 66,69  L 66,67  L 67,67  L 67,38  L 69,38  L 69,37  L 79,37  L 79,38  L 80,38  L 80,77  L 82,77  L 82,78  L 83,78  L 83,77  L 84,77  L 84,78  L 85,78  L 85,77  L 86,77  L 86,74  L 87,74  L 87,33  L 86,33  L 86,28  L 85,28  L 85,21  L 84,21  L 84,13  L 83,13  L 83,12  L 84,12  L 84,11  L 83,11  L 83,5  L 82,5  L 82,2  L 81,2  L 81,1  L 78,1  L 78,0  L 77,0  L 77,1  L 76,1  L 76,12  L 77,12  L 77,14  L 76,14  L 76,15  L 77,15  L 77,21  L 78,21  L 78,26  L 79,26  L 79,30  L 75,30  L 75,31  Z  " style="fill:rgb(0, 0, 0); fill-opacity:1.000; stroke:none;" />
</svg>
