<?xml version="1.0" encoding="UTF-8" standalone="no"?>
<!DOCTYPE svg PUBLIC "-//W3C//DTD SVG 1.1//EN" 
  "http://www.w3.org/Graphics/SVG/1.1/DTD/svg11.dtd">
<svg width="110" height="100"
     xmlns="http://www.w3.org/2000/svg" version="1.1">
 <path d="  M 20,64  L 20,62  L 21,62  L 21,61  L 22,61  L 22,60  L 23,60  L 23,59  L 24,59  L 24,57  L 25,57  L 25,56  L 26,56  L 26,54  L 27,54  L 27,52  L 28,52  L 28,51  L 30,51  L 30,52  L 32,52  L 32,54  L 33,54  L 33,55  L 35,55  L 35,56  L 36,56  L 36,57  L 37,57  L 37,58  L 38,58  L 38,59  L 40,59  L 40,61  L 41,61  L 41,62  L 42,62  L 42,63  L 44,63  L 44,64  L 45,64  L 45,65  L 47,65  L 47,66  L 49,66  L 49,68  L 51,68  L 51,69  L 52,69  L 52,70  L 53,70  L 53,71  L 54,71  L 54,72  L 56,72  L 56,73  L 57,73  L 57,74  L 59,74  L 59,75  L 60,75  L 60,74  L 64,74  L 64,73  L 63,73  L 63,71  L 62,71  L 62,69  L 61,69  L 61,68  L 60,68  L 60,67  L 59,67  L 59,66  L 58,66  L 58,65  L 56,65  L 56,64  L 55,64  L 55,63  L 54,63  L 54,62  L 52,62  L 52,61  L 51,61  L 51,60  L 49,60  L 49,59  L 48,59  L 48,58  L 47,58  L 47,57  L 46,57  L 46,56  L 45,56  L 45,55  L 43,55  L 43,54  L 42,54  L 42,53  L 41,53  L 41,52  L 40,52  L 40,51  L 39,51  L 39,50  L 38,50  L 38,49  L 37,49  L 37,48  L 36,48  L 36,47  L 34,47  L 34,45  L 33,45  L 33,44  L 32,44  L 32,43  L 33,43  L 33,42  L 34,42  L 34,41  L 35,41  L 35,40  L 36,40  L 36,39  L 37,39  L 37,37  L 38,37  L 38,35  L 39,35  L 39,33  L 40,33  L 40,31  L 41,31  L 41,30  L 42,30  L 42,29  L 43,29  L 43,28  L 44,28  L 44,26  L 45,26  L 45,24  L 46,24  L 46,23  L 47,23  L 47,22  L 48,22  L 48,19  L 49,19  L 49,16  L 50,16  L 50,14  L 49,14  L 49,13  L 45,13  L 45,14  L 44,14  L 44,15  L 43,15  L 43,16  L 42,16  L 42,19  L 41,19  L 41,20  L 40,20  L 40,22  L 39,22  L 39,24  L 38,24  L 38,25  L 37,25  L 37,27  L 36,27  L 36,28  L 35,28  L 35,30  L 34,30  L 34,31  L 33,31  L 33,33  L 32,33  L 32,35  L 31,35  L 31,37  L 30,37  L 30,38  L 29,38  L 29,39  L 28,39  L 28,41  L 26,41  L 26,43  L 25,43  L 25,44  L 24,44  L 24,46  L 23,46  L 23,47  L 22,47  L 22,48  L 21,48  L 21,50  L 20,50  L 20,51  L 19,51  L 19,53  L 18,53  L 18,54  L 17,54  L 17,56  L 16,56  L 16,58  L 15,58  L 15,59  L 13,59  L 13,61  L 12,61  L 12,62  L 11,62  L 11,63  L 10,63  L 10,64  L 9,64  L 9,66  L 8,66  L 8,67  L 7,67  L 7,68  L 6,68  L 6,69  L 5,69  L 5,70  L 4,70  L 4,72  L 3,72  L 3,73  L 2,73  L 2,74  L 1,74  L 1,75  L 0,75  L 0,78  L 1,78  L 1,80  L 3,80  L 3,82  L 4,82  L 4,81  L 5,81  L 5,80  L 6,80  L 6,79  L 7,79  L 7,78  L 8,78  L 8,76  L 9,76  L 9,75  L 10,75  L 10,74  L 11,74  L 11,73  L 12,73  L 12,71  L 13,71  L 13,70  L 14,70  L 14,69  L 15,69  L 15,68  L 16,68  L 16,67  L 17,67  L 17,66  L 18,66  L 18,65  L 19,65  L 19,64  Z  " style="fill:rgb(0, 0, 0); fill-opacity:1.000; stroke:none;" />
 <path d="  M 74,54  L 75,54  L 75,55  L 74,55  L 74,56  L 75,56  L 75,100  L 81,100  L 81,65  L 82,65  L 82,64  L 86,64  L 86,63  L 102,63  L 102,61  L 103,61  L 103,57  L 102,57  L 102,56  L 100,56  L 100,57  L 98,57  L 98,56  L 97,56  L 97,57  L 87,57  L 87,56  L 86,56  L 86,57  L 81,57  L 81,55  L 80,55  L 80,37  L 81,37  L 81,36  L 108,36  L 108,35  L 110,35  L 110,32  L 107,32  L 107,31  L 106,31  L 106,30  L 103,30  L 103,29  L 102,29  L 102,30  L 99,30  L 99,29  L 98,29  L 98,30  L 97,30  L 97,29  L 96,29  L 96,30  L 95,30  L 95,29  L 94,29  L 94,30  L 93,30  L 93,29  L 92,29  L 92,30  L 91,30  L 91,29  L 90,29  L 90,30  L 87,30  L 87,29  L 84,29  L 84,30  L 81,30  L 81,29  L 80,29  L 80,24  L 81,24  L 81,23  L 80,23  L 80,22  L 81,22  L 81,9  L 82,9  L 82,0  L 78,0  L 78,1  L 76,1  L 76,3  L 75,3  L 75,9  L 74,9  Z  " style="fill:rgb(0, 0, 0); fill-opacity:1.000; stroke:none;" />
</svg>
