<?xml version="1.0" encoding="UTF-8" standalone="no"?>
<!DOCTYPE svg PUBLIC "-//W3C//DTD SVG 1.1//EN" 
  "http://www.w3.org/Graphics/SVG/1.1/DTD/svg11.dtd">
<svg width="108" height="136"
     xmlns="http://www.w3.org/2000/svg" version="1.1">
 <path d="  M 40,21  L 40,19  L 41,19  L 41,18  L 42,18  L 42,17  L 43,17  L 43,15  L 44,15  L 44,14  L 45,14  L 45,13  L 46,13  L 46,12  L 47,12  L 47,9  L 48,9  L 48,6  L 46,6  L 46,5  L 45,5  L 45,6  L 43,6  L 43,7  L 41,7  L 41,8  L 40,8  L 40,10  L 39,10  L 39,11  L 38,11  L 38,12  L 37,12  L 37,14  L 36,14  L 36,15  L 35,15  L 35,17  L 34,17  L 34,18  L 33,18  L 33,20  L 32,20  L 32,21  L 31,21  L 31,23  L 30,23  L 30,24  L 29,24  L 29,25  L 28,25  L 28,27  L 27,27  L 27,29  L 26,29  L 26,31  L 25,31  L 25,32  L 24,32  L 24,34  L 23,34  L 23,36  L 22,36  L 22,37  L 21,37  L 21,38  L 20,38  L 20,39  L 19,39  L 19,41  L 18,41  L 18,42  L 17,42  L 17,43  L 16,43  L 16,45  L 15,45  L 15,46  L 14,46  L 14,47  L 13,47  L 13,48  L 12,48  L 12,49  L 11,49  L 11,50  L 10,50  L 10,51  L 8,51  L 8,52  L 7,52  L 7,53  L 6,53  L 6,54  L 5,54  L 5,55  L 4,55  L 4,56  L 3,56  L 3,57  L 2,57  L 2,58  L 1,58  L 1,59  L 0,59  L 0,60  L 1,60  L 1,63  L 2,63  L 2,64  L 3,64  L 3,65  L 4,65  L 4,64  L 5,64  L 5,63  L 7,63  L 7,62  L 8,62  L 8,61  L 9,61  L 9,60  L 10,60  L 10,59  L 11,59  L 11,58  L 12,58  L 12,57  L 13,57  L 13,56  L 14,56  L 14,55  L 15,55  L 15,54  L 16,54  L 16,52  L 18,52  L 18,51  L 19,51  L 19,50  L 20,50  L 20,49  L 21,49  L 21,48  L 22,48  L 22,46  L 23,46  L 23,45  L 24,45  L 24,44  L 25,44  L 25,42  L 27,42  L 27,43  L 28,43  L 28,44  L 29,44  L 29,45  L 30,45  L 30,46  L 32,46  L 32,48  L 35,48  L 35,49  L 36,49  L 36,51  L 38,51  L 38,52  L 39,52  L 39,53  L 41,53  L 41,54  L 43,54  L 43,56  L 45,56  L 45,57  L 48,57  L 48,58  L 49,58  L 49,59  L 52,59  L 52,60  L 54,60  L 54,61  L 56,61  L 56,60  L 57,60  L 57,61  L 59,61  L 59,59  L 58,59  L 58,57  L 57,57  L 57,55  L 56,55  L 56,54  L 54,54  L 54,53  L 52,53  L 52,52  L 50,52  L 50,51  L 49,51  L 49,50  L 47,50  L 47,49  L 45,49  L 45,48  L 43,48  L 43,47  L 42,47  L 42,46  L 41,46  L 41,45  L 39,45  L 39,44  L 38,44  L 38,43  L 37,43  L 37,42  L 35,42  L 35,41  L 34,41  L 34,40  L 33,40  L 33,38  L 32,38  L 32,36  L 31,36  L 31,33  L 32,33  L 32,32  L 33,32  L 33,30  L 34,30  L 34,29  L 35,29  L 35,27  L 36,27  L 36,25  L 37,25  L 37,24  L 38,24  L 38,22  L 39,22  L 39,21  Z  " style="fill:rgb(0, 0, 0); fill-opacity:1.000; stroke:none;" />
 <path d="  M 94,127  L 94,126  L 92,126  L 92,125  L 90,125  L 90,124  L 87,124  L 87,123  L 85,123  L 85,122  L 83,122  L 83,121  L 81,121  L 81,120  L 79,120  L 79,119  L 78,119  L 78,118  L 77,118  L 77,117  L 75,117  L 75,116  L 73,116  L 73,115  L 72,115  L 72,114  L 70,114  L 70,113  L 69,113  L 69,112  L 67,112  L 67,111  L 66,111  L 66,110  L 64,110  L 64,109  L 62,109  L 62,108  L 61,108  L 61,107  L 60,107  L 60,106  L 58,106  L 58,105  L 57,105  L 57,104  L 56,104  L 56,103  L 55,103  L 55,102  L 54,102  L 54,101  L 53,101  L 53,100  L 52,100  L 52,98  L 53,98  L 53,96  L 52,96  L 52,95  L 53,95  L 53,94  L 54,94  L 54,92  L 55,92  L 55,89  L 56,89  L 56,88  L 55,88  L 55,85  L 52,85  L 52,84  L 49,84  L 49,87  L 48,87  L 48,90  L 47,90  L 47,92  L 46,92  L 46,94  L 45,94  L 45,96  L 44,96  L 44,98  L 43,98  L 43,100  L 42,100  L 42,101  L 41,101  L 41,104  L 40,104  L 40,105  L 39,105  L 39,106  L 38,106  L 38,109  L 37,109  L 37,110  L 36,110  L 36,112  L 35,112  L 35,113  L 34,113  L 34,115  L 33,115  L 33,117  L 32,117  L 32,118  L 31,118  L 31,120  L 30,120  L 30,121  L 29,121  L 29,122  L 28,122  L 28,124  L 27,124  L 27,125  L 26,125  L 26,126  L 25,126  L 25,127  L 23,127  L 23,129  L 21,129  L 21,130  L 20,130  L 20,131  L 19,131  L 19,135  L 20,135  L 20,136  L 25,136  L 25,135  L 26,135  L 26,134  L 27,134  L 27,133  L 28,133  L 28,132  L 30,132  L 30,130  L 32,130  L 32,129  L 33,129  L 33,128  L 34,128  L 34,126  L 35,126  L 35,125  L 36,125  L 36,123  L 37,123  L 37,121  L 38,121  L 38,119  L 39,119  L 39,118  L 40,118  L 40,116  L 41,116  L 41,114  L 42,114  L 42,113  L 43,113  L 43,111  L 44,111  L 44,110  L 45,110  L 45,108  L 46,108  L 46,107  L 47,107  L 47,106  L 50,106  L 50,107  L 51,107  L 51,108  L 52,108  L 52,110  L 53,110  L 53,111  L 55,111  L 55,112  L 56,112  L 56,113  L 57,113  L 57,114  L 59,114  L 59,115  L 61,115  L 61,116  L 63,116  L 63,117  L 65,117  L 65,119  L 67,119  L 67,120  L 68,120  L 68,121  L 70,121  L 70,122  L 71,122  L 71,123  L 73,123  L 73,124  L 75,124  L 75,125  L 76,125  L 76,126  L 78,126  L 78,127  L 79,127  L 79,128  L 81,128  L 81,129  L 82,129  L 82,130  L 83,130  L 83,129  L 84,129  L 84,130  L 86,130  L 86,131  L 88,131  L 88,132  L 96,132  L 96,131  L 98,131  L 98,130  L 99,130  L 99,129  L 98,129  L 98,128  L 96,128  L 96,127  Z  " style="fill:rgb(0, 0, 0); fill-opacity:1.000; stroke:none;" />
 <path d="  M 79,63  L 80,63  L 80,62  L 79,62  L 79,55  L 80,55  L 80,53  L 81,53  L 81,52  L 86,52  L 86,51  L 92,51  L 92,50  L 106,50  L 106,49  L 107,49  L 107,48  L 108,48  L 108,43  L 97,43  L 97,44  L 96,44  L 96,43  L 95,43  L 95,44  L 83,44  L 83,45  L 80,45  L 80,30  L 81,30  L 81,28  L 88,28  L 88,27  L 97,27  L 97,26  L 102,26  L 102,25  L 103,25  L 103,22  L 102,22  L 102,21  L 101,21  L 101,20  L 93,20  L 93,21  L 90,21  L 90,20  L 89,20  L 89,21  L 85,21  L 85,22  L 82,22  L 82,23  L 80,23  L 80,20  L 79,20  L 79,8  L 78,8  L 78,1  L 77,1  L 77,0  L 73,0  L 73,21  L 74,21  L 74,40  L 73,40  L 73,41  L 74,41  L 74,43  L 73,43  L 73,82  L 74,82  L 74,83  L 79,83  L 79,81  L 80,81  L 80,76  L 79,76  L 79,75  L 80,75  L 80,74  L 79,74  L 79,73  L 80,73  L 80,72  L 79,72  L 79,71  L 80,71  L 80,70  L 79,70  L 79,69  L 80,69  L 80,68  L 79,68  L 79,67  L 80,67  L 80,66  L 79,66  Z  " style="fill:rgb(0, 0, 0); fill-opacity:1.000; stroke:none;" />
</svg>
