<?xml version="1.0" encoding="UTF-8" standalone="no"?>
<!DOCTYPE svg PUBLIC "-//W3C//DTD SVG 1.1//EN" 
  "http://www.w3.org/Graphics/SVG/1.1/DTD/svg11.dtd">
<svg width="106" height="140"
     xmlns="http://www.w3.org/2000/svg" version="1.1">
 <path d="  M 60,64  L 59,64  L 59,63  L 58,63  L 58,62  L 57,62  L 57,61  L 56,61  L 56,59  L 54,59  L 54,58  L 53,58  L 53,57  L 52,57  L 52,56  L 51,56  L 51,55  L 50,55  L 50,54  L 49,54  L 49,53  L 48,53  L 48,52  L 47,52  L 47,51  L 45,51  L 45,49  L 44,49  L 44,48  L 42,48  L 42,47  L 41,47  L 41,46  L 40,46  L 40,44  L 38,44  L 38,43  L 37,43  L 37,42  L 36,42  L 36,40  L 35,40  L 35,39  L 34,39  L 34,37  L 33,37  L 33,32  L 34,32  L 34,31  L 35,31  L 35,30  L 36,30  L 36,29  L 37,29  L 37,28  L 38,28  L 38,27  L 39,27  L 39,25  L 41,25  L 41,23  L 42,23  L 42,22  L 43,22  L 43,21  L 44,21  L 44,19  L 45,19  L 45,18  L 46,18  L 46,17  L 47,17  L 47,16  L 48,16  L 48,15  L 47,15  L 47,14  L 48,14  L 48,13  L 49,13  L 49,9  L 47,9  L 47,8  L 46,8  L 46,9  L 44,9  L 44,10  L 43,10  L 43,12  L 42,12  L 42,13  L 41,13  L 41,15  L 40,15  L 40,16  L 39,16  L 39,17  L 38,17  L 38,18  L 37,18  L 37,19  L 36,19  L 36,21  L 34,21  L 34,22  L 33,22  L 33,23  L 32,23  L 32,24  L 31,24  L 31,25  L 30,25  L 30,26  L 29,26  L 29,27  L 28,27  L 28,28  L 27,28  L 27,29  L 26,29  L 26,31  L 25,31  L 25,33  L 24,33  L 24,34  L 23,34  L 23,36  L 22,36  L 22,38  L 21,38  L 21,39  L 20,39  L 20,41  L 18,41  L 18,43  L 17,43  L 17,44  L 16,44  L 16,45  L 15,45  L 15,46  L 14,46  L 14,48  L 13,48  L 13,49  L 12,49  L 12,50  L 11,50  L 11,51  L 10,51  L 10,52  L 9,52  L 9,54  L 8,54  L 8,56  L 7,56  L 7,57  L 6,57  L 6,58  L 5,58  L 5,59  L 4,59  L 4,61  L 2,61  L 2,62  L 1,62  L 1,68  L 2,68  L 2,69  L 4,69  L 4,71  L 5,71  L 5,70  L 7,70  L 7,69  L 8,69  L 8,67  L 9,67  L 9,66  L 10,66  L 10,65  L 11,65  L 11,64  L 12,64  L 12,62  L 13,62  L 13,61  L 14,61  L 14,60  L 15,60  L 15,58  L 16,58  L 16,57  L 17,57  L 17,55  L 19,55  L 19,53  L 21,53  L 21,52  L 22,52  L 22,51  L 23,51  L 23,49  L 24,49  L 24,47  L 26,47  L 26,46  L 25,46  L 25,45  L 27,45  L 27,44  L 28,44  L 28,45  L 29,45  L 29,46  L 30,46  L 30,47  L 31,47  L 31,48  L 32,48  L 32,49  L 33,49  L 33,50  L 34,50  L 34,51  L 35,51  L 35,52  L 36,52  L 36,53  L 38,53  L 38,55  L 39,55  L 39,56  L 41,56  L 41,57  L 42,57  L 42,59  L 44,59  L 44,60  L 45,60  L 45,61  L 46,61  L 46,62  L 47,62  L 47,63  L 48,63  L 48,65  L 50,65  L 50,66  L 51,66  L 51,67  L 52,67  L 52,68  L 55,68  L 55,69  L 58,69  L 58,68  L 59,68  L 59,67  L 60,67  Z  " style="fill:rgb(0, 0, 0); fill-opacity:1.000; stroke:none;" />
 <path d="  M 29,123  L 30,123  L 30,124  L 29,124  L 29,125  L 30,125  L 30,131  L 31,131  L 31,134  L 32,134  L 32,136  L 33,136  L 33,137  L 34,137  L 34,138  L 36,138  L 36,139  L 37,139  L 37,140  L 38,140  L 38,139  L 39,139  L 39,140  L 71,140  L 71,139  L 79,139  L 79,138  L 91,138  L 91,137  L 92,137  L 92,138  L 93,138  L 93,137  L 103,137  L 103,136  L 105,136  L 105,135  L 106,135  L 106,131  L 105,131  L 105,130  L 96,130  L 96,131  L 84,131  L 84,132  L 77,132  L 77,133  L 75,133  L 75,132  L 74,132  L 74,133  L 71,133  L 71,132  L 70,132  L 70,133  L 66,133  L 66,134  L 65,134  L 65,133  L 64,133  L 64,134  L 40,134  L 40,133  L 39,133  L 39,132  L 38,132  L 38,130  L 37,130  L 37,124  L 36,124  L 36,91  L 35,91  L 35,90  L 34,90  L 34,89  L 30,89  L 30,90  L 29,90  Z  " style="fill:rgb(0, 0, 0); fill-opacity:1.000; stroke:none;" />
 <path d="  M 60,69  L 60,68  L 59,68  L 59,69  Z  " style="fill:rgb(0, 0, 0); fill-opacity:1.000; stroke:none;" />
 <path d="  M 100,37  L 99,37  L 99,35  L 100,35  L 100,34  L 99,34  L 99,28  L 98,28  L 98,22  L 97,22  L 97,4  L 94,4  L 94,3  L 92,3  L 92,4  L 91,4  L 91,6  L 90,6  L 90,7  L 91,7  L 91,9  L 90,9  L 90,11  L 91,11  L 91,12  L 90,12  L 90,15  L 91,15  L 91,20  L 92,20  L 92,22  L 93,22  L 93,23  L 92,23  L 92,24  L 90,24  L 90,25  L 84,25  L 84,26  L 79,26  L 79,27  L 77,27  L 77,28  L 76,28  L 76,26  L 75,26  L 75,19  L 76,19  L 76,1  L 73,1  L 73,0  L 72,0  L 72,1  L 70,1  L 70,10  L 69,10  L 69,11  L 70,11  L 70,12  L 69,12  L 69,82  L 70,82  L 70,83  L 71,83  L 71,82  L 73,82  L 73,81  L 75,81  L 75,77  L 76,77  L 76,59  L 77,59  L 77,58  L 79,58  L 79,57  L 83,57  L 83,56  L 90,56  L 90,55  L 93,55  L 93,57  L 94,57  L 94,58  L 93,58  L 93,59  L 94,59  L 94,60  L 93,60  L 93,61  L 94,61  L 94,64  L 93,64  L 93,65  L 94,65  L 94,68  L 93,68  L 93,69  L 94,69  L 94,83  L 95,83  L 95,84  L 96,84  L 96,83  L 100,83  L 100,81  L 101,81  L 101,71  L 100,71  L 100,70  L 101,70  L 101,68  L 100,68  L 100,66  L 101,66  L 101,64  L 100,64  L 100,62  L 101,62  L 101,59  L 100,59  L 100,58  L 101,58  L 101,56  L 100,56  L 100,53  L 101,53  L 101,52  L 100,52  Z  M 93,41  L 93,42  L 92,42  L 92,43  L 93,43  L 93,44  L 92,44  L 92,48  L 91,48  L 91,49  L 85,49  L 85,50  L 84,50  L 84,49  L 83,49  L 83,50  L 79,50  L 79,51  L 76,51  L 76,50  L 75,50  L 75,43  L 76,43  L 76,42  L 75,42  L 75,41  L 76,41  L 76,40  L 75,40  L 75,39  L 76,39  L 76,38  L 75,38  L 75,37  L 76,37  L 76,33  L 82,33  L 82,32  L 92,32  L 92,33  L 93,33  L 93,38  L 92,38  L 92,39  L 93,39  L 93,40  L 92,40  L 92,41  Z  " style="fill:rgb(0, 0, 0); fill-opacity:1.000; stroke:none;" />
</svg>
