<?xml version="1.0" encoding="UTF-8" standalone="no"?>
<!DOCTYPE svg PUBLIC "-//W3C//DTD SVG 1.1//EN" 
  "http://www.w3.org/Graphics/SVG/1.1/DTD/svg11.dtd">
<svg width="103" height="169"
     xmlns="http://www.w3.org/2000/svg" version="1.1">
 <path d="  M 17,63  L 18,63  L 18,62  L 19,62  L 19,61  L 20,61  L 20,60  L 21,60  L 21,59  L 23,59  L 23,58  L 24,58  L 24,57  L 25,57  L 25,55  L 26,55  L 26,54  L 27,54  L 27,53  L 28,53  L 28,51  L 29,51  L 29,50  L 30,50  L 30,51  L 32,51  L 32,52  L 33,52  L 33,53  L 34,53  L 34,54  L 36,54  L 36,55  L 37,55  L 37,56  L 39,56  L 39,57  L 40,57  L 40,59  L 41,59  L 41,60  L 43,60  L 43,61  L 44,61  L 44,63  L 45,63  L 45,64  L 47,64  L 47,65  L 48,65  L 48,66  L 49,66  L 49,67  L 50,67  L 50,68  L 52,68  L 52,70  L 54,70  L 54,71  L 56,71  L 56,72  L 57,72  L 57,73  L 60,73  L 60,70  L 61,70  L 61,69  L 60,69  L 60,67  L 59,67  L 59,66  L 58,66  L 58,64  L 56,64  L 56,63  L 55,63  L 55,62  L 54,62  L 54,61  L 53,61  L 53,60  L 52,60  L 52,59  L 51,59  L 51,58  L 50,58  L 50,57  L 48,57  L 48,56  L 47,56  L 47,54  L 46,54  L 46,53  L 45,53  L 45,52  L 44,52  L 44,51  L 43,51  L 43,50  L 42,50  L 42,49  L 41,49  L 41,48  L 40,48  L 40,47  L 39,47  L 39,46  L 38,46  L 38,45  L 37,45  L 37,44  L 35,44  L 35,42  L 34,42  L 34,38  L 35,38  L 35,36  L 36,36  L 36,34  L 37,34  L 37,33  L 38,33  L 38,31  L 39,31  L 39,29  L 40,29  L 40,27  L 41,27  L 41,25  L 42,25  L 42,24  L 43,24  L 43,23  L 44,23  L 44,21  L 45,21  L 45,19  L 46,19  L 46,18  L 48,18  L 48,16  L 49,16  L 49,15  L 50,15  L 50,13  L 51,13  L 51,12  L 50,12  L 50,11  L 51,11  L 51,10  L 50,10  L 50,9  L 49,9  L 49,8  L 45,8  L 45,9  L 43,9  L 43,10  L 42,10  L 42,11  L 41,11  L 41,14  L 40,14  L 40,15  L 39,15  L 39,17  L 38,17  L 38,18  L 37,18  L 37,20  L 36,20  L 36,22  L 35,22  L 35,23  L 34,23  L 34,25  L 33,25  L 33,27  L 32,27  L 32,30  L 31,30  L 31,32  L 30,32  L 30,34  L 29,34  L 29,36  L 27,36  L 27,38  L 26,38  L 26,40  L 25,40  L 25,42  L 24,42  L 24,44  L 23,44  L 23,46  L 22,46  L 22,48  L 21,48  L 21,49  L 20,49  L 20,51  L 19,51  L 19,52  L 18,52  L 18,53  L 17,53  L 17,54  L 16,54  L 16,55  L 14,55  L 14,56  L 13,56  L 13,57  L 12,57  L 12,58  L 10,58  L 10,60  L 9,60  L 9,61  L 7,61  L 7,62  L 6,62  L 6,63  L 5,63  L 5,64  L 4,64  L 4,65  L 3,65  L 3,66  L 2,66  L 2,67  L 1,67  L 1,69  L 0,69  L 0,70  L 1,70  L 1,73  L 4,73  L 4,74  L 5,74  L 5,73  L 8,73  L 8,72  L 9,72  L 9,71  L 10,71  L 10,70  L 11,70  L 11,69  L 12,69  L 12,68  L 13,68  L 13,67  L 14,67  L 14,66  L 15,66  L 15,65  L 16,65  L 16,64  L 17,64  Z  " style="fill:rgb(0, 0, 0); fill-opacity:1.000; stroke:none;" />
 <path d="  M 59,108  L 59,109  L 56,109  L 56,108  L 55,108  L 55,109  L 49,109  L 49,110  L 42,110  L 42,111  L 38,111  L 38,112  L 37,112  L 37,115  L 38,115  L 38,116  L 41,116  L 41,117  L 42,117  L 42,116  L 50,116  L 50,115  L 58,115  L 58,114  L 77,114  L 77,115  L 80,115  L 80,116  L 82,116  L 82,117  L 83,117  L 83,125  L 82,125  L 82,130  L 81,130  L 81,143  L 80,143  L 80,153  L 79,153  L 79,157  L 78,157  L 78,161  L 77,161  L 77,166  L 76,166  L 76,167  L 77,167  L 77,168  L 78,168  L 78,169  L 83,169  L 83,168  L 84,168  L 84,167  L 85,167  L 85,165  L 86,165  L 86,161  L 87,161  L 87,157  L 88,157  L 88,132  L 89,132  L 89,127  L 90,127  L 90,123  L 91,123  L 91,115  L 90,115  L 90,113  L 89,113  L 89,112  L 88,112  L 88,111  L 86,111  L 86,110  L 83,110  L 83,109  L 76,109  L 76,108  L 61,108  L 61,109  L 60,109  L 60,108  Z  " style="fill:rgb(0, 0, 0); fill-opacity:1.000; stroke:none;" />
 <path d="  M 82,36  L 82,37  L 79,37  L 79,38  L 74,38  L 74,39  L 66,39  L 66,40  L 58,40  L 58,41  L 57,41  L 57,42  L 56,42  L 56,45  L 57,45  L 57,47  L 59,47  L 59,48  L 61,48  L 61,47  L 66,47  L 66,46  L 70,46  L 70,45  L 71,45  L 71,46  L 72,46  L 72,45  L 73,45  L 73,46  L 74,46  L 74,45  L 79,45  L 79,44  L 83,44  L 83,43  L 86,43  L 86,42  L 88,42  L 88,41  L 91,41  L 91,40  L 93,40  L 93,39  L 96,39  L 96,42  L 97,42  L 97,45  L 96,45  L 96,47  L 97,47  L 97,54  L 96,54  L 96,80  L 95,80  L 95,98  L 96,98  L 96,99  L 100,99  L 100,98  L 101,98  L 101,97  L 102,97  L 102,83  L 103,83  L 103,82  L 102,82  L 102,81  L 103,81  L 103,80  L 102,80  L 102,79  L 103,79  L 103,78  L 102,78  L 102,77  L 103,77  L 103,76  L 102,76  L 102,75  L 103,75  L 103,2  L 102,2  L 102,1  L 100,1  L 100,0  L 98,0  L 98,1  L 96,1  L 96,33  L 93,33  L 93,34  L 90,34  L 90,35  L 86,35  L 86,36  Z  " style="fill:rgb(0, 0, 0); fill-opacity:1.000; stroke:none;" />
</svg>
