<?xml version="1.0" encoding="UTF-8" standalone="no"?>
<!DOCTYPE svg PUBLIC "-//W3C//DTD SVG 1.1//EN" 
  "http://www.w3.org/Graphics/SVG/1.1/DTD/svg11.dtd">
<svg width="107" height="149"
     xmlns="http://www.w3.org/2000/svg" version="1.1">
 <path d="  M 30,22  L 30,23  L 29,23  L 29,24  L 28,24  L 28,26  L 27,26  L 27,27  L 26,27  L 26,29  L 25,29  L 25,30  L 24,30  L 24,32  L 23,32  L 23,33  L 22,33  L 22,34  L 21,34  L 21,35  L 20,35  L 20,37  L 19,37  L 19,39  L 18,39  L 18,40  L 17,40  L 17,42  L 16,42  L 16,43  L 15,43  L 15,46  L 14,46  L 14,47  L 13,47  L 13,48  L 12,48  L 12,49  L 11,49  L 11,51  L 10,51  L 10,53  L 9,53  L 9,54  L 8,54  L 8,55  L 7,55  L 7,57  L 6,57  L 6,58  L 5,58  L 5,59  L 4,59  L 4,60  L 3,60  L 3,61  L 2,61  L 2,63  L 1,63  L 1,64  L 0,64  L 0,66  L 1,66  L 1,67  L 2,67  L 2,68  L 3,68  L 3,69  L 6,69  L 6,68  L 8,68  L 8,67  L 9,67  L 9,65  L 10,65  L 10,64  L 11,64  L 11,63  L 12,63  L 12,61  L 13,61  L 13,60  L 14,60  L 14,59  L 15,59  L 15,57  L 16,57  L 16,56  L 17,56  L 17,54  L 18,54  L 18,53  L 19,53  L 19,51  L 20,51  L 20,50  L 21,50  L 21,49  L 22,49  L 22,48  L 23,48  L 23,46  L 24,46  L 24,47  L 25,47  L 25,48  L 27,48  L 27,49  L 28,49  L 28,50  L 29,50  L 29,51  L 30,51  L 30,52  L 31,52  L 31,54  L 32,54  L 32,55  L 33,55  L 33,56  L 34,56  L 34,57  L 35,57  L 35,58  L 36,58  L 36,59  L 37,59  L 37,60  L 39,60  L 39,61  L 40,61  L 40,62  L 41,62  L 41,63  L 42,63  L 42,64  L 43,64  L 43,65  L 45,65  L 45,66  L 47,66  L 47,67  L 51,67  L 51,66  L 53,66  L 53,63  L 52,63  L 52,62  L 51,62  L 51,61  L 50,61  L 50,60  L 48,60  L 48,59  L 47,59  L 47,58  L 45,58  L 45,57  L 43,57  L 43,56  L 42,56  L 42,55  L 41,55  L 41,53  L 39,53  L 39,52  L 38,52  L 38,50  L 37,50  L 37,49  L 35,49  L 35,47  L 34,47  L 34,46  L 33,46  L 33,45  L 32,45  L 32,44  L 31,44  L 31,43  L 30,43  L 30,41  L 29,41  L 29,36  L 30,36  L 30,35  L 31,35  L 31,32  L 32,32  L 32,30  L 33,30  L 33,28  L 34,28  L 34,27  L 35,27  L 35,25  L 36,25  L 36,24  L 37,24  L 37,22  L 38,22  L 38,21  L 39,21  L 39,19  L 40,19  L 40,17  L 41,17  L 41,14  L 42,14  L 42,10  L 41,10  L 41,9  L 38,9  L 38,10  L 37,10  L 37,11  L 36,11  L 36,13  L 35,13  L 35,15  L 34,15  L 34,17  L 33,17  L 33,19  L 32,19  L 32,20  L 31,20  L 31,22  Z  " style="fill:rgb(0, 0, 0); fill-opacity:1.000; stroke:none;" />
 <path d="  M 46,103  L 46,102  L 45,102  L 45,101  L 43,101  L 43,100  L 42,100  L 42,99  L 39,99  L 39,98  L 35,98  L 35,97  L 34,97  L 34,98  L 31,98  L 31,97  L 29,97  L 29,98  L 23,98  L 23,99  L 21,99  L 21,101  L 20,101  L 20,102  L 21,102  L 21,104  L 22,104  L 22,105  L 23,105  L 23,106  L 24,106  L 24,107  L 25,107  L 25,106  L 28,106  L 28,105  L 33,105  L 33,104  L 36,104  L 36,105  L 40,105  L 40,106  L 43,106  L 43,111  L 44,111  L 44,113  L 43,113  L 43,119  L 42,119  L 42,129  L 41,129  L 41,130  L 42,130  L 42,131  L 41,131  L 41,137  L 40,137  L 40,145  L 39,145  L 39,148  L 40,148  L 40,149  L 44,149  L 44,148  L 46,148  L 46,145  L 47,145  L 47,130  L 48,130  L 48,121  L 49,121  L 49,114  L 50,114  L 50,113  L 49,113  L 49,110  L 50,110  L 50,109  L 49,109  L 49,106  L 48,106  L 48,104  L 47,104  L 47,103  Z  " style="fill:rgb(0, 0, 0); fill-opacity:1.000; stroke:none;" />
 <path d="  M 87,42  L 86,42  L 86,40  L 87,40  L 87,38  L 86,38  L 86,32  L 85,32  L 85,25  L 84,25  L 84,24  L 85,24  L 85,23  L 84,23  L 84,13  L 83,13  L 83,1  L 78,1  L 78,2  L 77,2  L 77,3  L 76,3  L 76,12  L 77,12  L 77,13  L 76,13  L 76,14  L 77,14  L 77,28  L 78,28  L 78,34  L 79,34  L 79,35  L 73,35  L 73,36  L 71,36  L 71,35  L 70,35  L 70,36  L 69,36  L 69,37  L 64,37  L 64,38  L 53,38  L 53,39  L 50,39  L 50,40  L 49,40  L 49,41  L 48,41  L 48,46  L 50,46  L 50,47  L 53,47  L 53,46  L 57,46  L 57,45  L 60,45  L 60,44  L 65,44  L 65,43  L 71,43  L 71,42  L 72,42  L 72,43  L 73,43  L 73,42  L 78,42  L 78,43  L 79,43  L 79,46  L 80,46  L 80,48  L 79,48  L 79,49  L 80,49  L 80,90  L 81,90  L 81,91  L 86,91  L 86,90  L 87,90  Z  " style="fill:rgb(0, 0, 0); fill-opacity:1.000; stroke:none;" />
 <path d="  M 73,118  L 75,118  L 75,117  L 77,117  L 77,120  L 78,120  L 78,122  L 79,122  L 79,124  L 81,124  L 81,125  L 82,125  L 82,126  L 83,126  L 83,127  L 84,127  L 84,128  L 85,128  L 85,129  L 86,129  L 86,130  L 88,130  L 88,131  L 90,131  L 90,132  L 91,132  L 91,133  L 93,133  L 93,134  L 95,134  L 95,135  L 97,135  L 97,136  L 98,136  L 98,137  L 100,137  L 100,138  L 101,138  L 101,139  L 102,139  L 102,140  L 103,140  L 103,141  L 104,141  L 104,142  L 105,142  L 105,143  L 106,143  L 106,142  L 107,142  L 107,136  L 106,136  L 106,135  L 105,135  L 105,134  L 104,134  L 104,133  L 103,133  L 103,132  L 101,132  L 101,131  L 100,131  L 100,130  L 98,130  L 98,129  L 96,129  L 96,128  L 94,128  L 94,127  L 93,127  L 93,126  L 92,126  L 92,125  L 90,125  L 90,124  L 89,124  L 89,123  L 88,123  L 88,122  L 87,122  L 87,121  L 86,121  L 86,120  L 85,120  L 85,119  L 84,119  L 84,118  L 83,118  L 83,117  L 82,117  L 82,115  L 81,115  L 81,114  L 80,114  L 80,113  L 78,113  L 78,112  L 79,112  L 79,108  L 80,108  L 80,104  L 81,104  L 81,102  L 82,102  L 82,99  L 79,99  L 79,98  L 78,98  L 78,99  L 76,99  L 76,100  L 75,100  L 75,101  L 73,101  L 73,102  L 72,102  L 72,105  L 71,105  L 71,107  L 70,107  L 70,110  L 69,110  L 69,113  L 68,113  L 68,115  L 67,115  L 67,120  L 66,120  L 66,123  L 65,123  L 65,127  L 64,127  L 64,131  L 63,131  L 63,134  L 62,134  L 62,137  L 61,137  L 61,138  L 60,138  L 60,140  L 59,140  L 59,143  L 60,143  L 60,144  L 61,144  L 61,145  L 62,145  L 62,144  L 63,144  L 63,145  L 64,145  L 64,144  L 66,144  L 66,143  L 67,143  L 67,140  L 68,140  L 68,136  L 69,136  L 69,134  L 70,134  L 70,131  L 71,131  L 71,128  L 72,128  L 72,120  L 73,120  Z  " style="fill:rgb(0, 0, 0); fill-opacity:1.000; stroke:none;" />
</svg>
