<?xml version="1.0" encoding="UTF-8" standalone="no"?>
<!DOCTYPE svg PUBLIC "-//W3C//DTD SVG 1.1//EN" 
  "http://www.w3.org/Graphics/SVG/1.1/DTD/svg11.dtd">
<svg width="102" height="149"
     xmlns="http://www.w3.org/2000/svg" version="1.1">
 <path d="  M 60,60  L 60,59  L 59,59  L 59,58  L 58,58  L 58,57  L 57,57  L 57,56  L 55,56  L 55,55  L 54,55  L 54,54  L 51,54  L 51,53  L 50,53  L 50,52  L 48,52  L 48,51  L 47,51  L 47,50  L 45,50  L 45,49  L 44,49  L 44,48  L 42,48  L 42,46  L 41,46  L 41,45  L 40,45  L 40,44  L 38,44  L 38,43  L 37,43  L 37,42  L 36,42  L 36,41  L 35,41  L 35,40  L 34,40  L 34,38  L 33,38  L 33,37  L 32,37  L 32,36  L 31,36  L 31,33  L 32,33  L 32,30  L 33,30  L 33,28  L 34,28  L 34,26  L 35,26  L 35,24  L 36,24  L 36,23  L 37,23  L 37,21  L 39,21  L 39,20  L 38,20  L 38,19  L 39,19  L 39,18  L 40,18  L 40,16  L 41,16  L 41,15  L 42,15  L 42,13  L 43,13  L 43,8  L 42,8  L 42,7  L 40,7  L 40,6  L 39,6  L 39,7  L 38,7  L 38,8  L 37,8  L 37,9  L 36,9  L 36,10  L 35,10  L 35,12  L 34,12  L 34,14  L 33,14  L 33,16  L 32,16  L 32,18  L 31,18  L 31,20  L 30,20  L 30,23  L 29,23  L 29,24  L 28,24  L 28,25  L 27,25  L 27,27  L 26,27  L 26,29  L 25,29  L 25,31  L 24,31  L 24,32  L 23,32  L 23,34  L 22,34  L 22,36  L 21,36  L 21,37  L 20,37  L 20,39  L 19,39  L 19,41  L 18,41  L 18,42  L 17,42  L 17,44  L 16,44  L 16,45  L 15,45  L 15,46  L 14,46  L 14,48  L 13,48  L 13,50  L 12,50  L 12,51  L 11,51  L 11,53  L 10,53  L 10,54  L 9,54  L 9,56  L 8,56  L 8,57  L 7,57  L 7,59  L 6,59  L 6,60  L 5,60  L 5,62  L 3,62  L 3,64  L 2,64  L 2,65  L 1,65  L 1,66  L 0,66  L 0,68  L 1,68  L 1,70  L 2,70  L 2,72  L 5,72  L 5,71  L 7,71  L 7,70  L 8,70  L 8,69  L 9,69  L 9,68  L 10,68  L 10,66  L 11,66  L 11,64  L 12,64  L 12,63  L 13,63  L 13,61  L 14,61  L 14,59  L 15,59  L 15,58  L 16,58  L 16,57  L 17,57  L 17,56  L 18,56  L 18,54  L 19,54  L 19,52  L 20,52  L 20,50  L 21,50  L 21,49  L 22,49  L 22,47  L 23,47  L 23,45  L 24,45  L 24,43  L 25,43  L 25,42  L 27,42  L 27,43  L 29,43  L 29,45  L 30,45  L 30,46  L 32,46  L 32,47  L 33,47  L 33,48  L 34,48  L 34,49  L 35,49  L 35,50  L 36,50  L 36,51  L 37,51  L 37,52  L 39,52  L 39,53  L 40,53  L 40,54  L 41,54  L 41,55  L 42,55  L 42,56  L 44,56  L 44,57  L 45,57  L 45,58  L 46,58  L 46,59  L 47,59  L 47,60  L 50,60  L 50,61  L 53,61  L 53,62  L 54,62  L 54,63  L 55,63  L 55,64  L 56,64  L 56,63  L 57,63  L 57,64  L 60,64  L 60,63  L 62,63  L 62,60  Z  " style="fill:rgb(0, 0, 0); fill-opacity:1.000; stroke:none;" />
 <path d="  M 34,109  L 35,109  L 35,108  L 34,108  L 34,105  L 35,105  L 35,104  L 34,104  L 34,103  L 35,103  L 35,100  L 34,100  L 34,92  L 29,92  L 29,95  L 28,95  L 28,108  L 27,108  L 27,109  L 28,109  L 28,112  L 27,112  L 27,113  L 28,113  L 28,114  L 27,114  L 27,137  L 28,137  L 28,142  L 29,142  L 29,144  L 30,144  L 30,146  L 31,146  L 31,148  L 32,148  L 32,147  L 33,147  L 33,148  L 34,148  L 34,149  L 61,149  L 61,148  L 62,148  L 62,149  L 63,149  L 63,148  L 73,148  L 73,147  L 81,147  L 81,146  L 89,146  L 89,145  L 97,145  L 97,144  L 98,144  L 98,145  L 99,145  L 99,144  L 101,144  L 101,143  L 102,143  L 102,137  L 100,137  L 100,138  L 99,138  L 99,137  L 98,137  L 98,138  L 93,138  L 93,139  L 83,139  L 83,140  L 74,140  L 74,141  L 73,141  L 73,140  L 72,140  L 72,141  L 65,141  L 65,142  L 55,142  L 55,143  L 37,143  L 37,142  L 36,142  L 36,141  L 35,141  L 35,136  L 34,136  Z  " style="fill:rgb(0, 0, 0); fill-opacity:1.000; stroke:none;" />
 <path d="  M 88,75  L 89,75  L 89,76  L 88,76  L 88,78  L 89,78  L 89,82  L 88,82  L 88,83  L 89,83  L 89,84  L 88,84  L 88,87  L 89,87  L 89,91  L 94,91  L 94,90  L 95,90  L 95,47  L 96,47  L 96,46  L 95,46  L 95,43  L 96,43  L 96,42  L 95,42  L 95,39  L 96,39  L 96,38  L 95,38  L 95,37  L 96,37  L 96,36  L 95,36  L 95,35  L 96,35  L 96,34  L 95,34  L 95,19  L 94,19  L 94,17  L 95,17  L 95,16  L 94,16  L 94,4  L 93,4  L 93,1  L 92,1  L 92,0  L 88,0  L 88,2  L 87,2  L 87,14  L 88,14  L 88,15  L 87,15  L 87,17  L 88,17  L 88,30  L 89,30  L 89,31  L 88,31  L 88,33  L 87,33  L 87,34  L 82,34  L 82,35  L 75,35  L 75,36  L 68,36  L 68,37  L 58,37  L 58,38  L 57,38  L 57,37  L 55,37  L 55,38  L 54,38  L 54,39  L 53,39  L 53,40  L 52,40  L 52,43  L 53,43  L 53,44  L 52,44  L 52,45  L 54,45  L 54,46  L 55,46  L 55,45  L 59,45  L 59,44  L 63,44  L 63,43  L 69,43  L 69,42  L 77,42  L 77,41  L 78,41  L 78,42  L 79,42  L 79,41  L 84,41  L 84,40  L 85,40  L 85,41  L 88,41  Z  " style="fill:rgb(0, 0, 0); fill-opacity:1.000; stroke:none;" />
</svg>
