<?xml version="1.0" encoding="UTF-8" standalone="no"?>
<!DOCTYPE svg PUBLIC "-//W3C//DTD SVG 1.1//EN" 
  "http://www.w3.org/Graphics/SVG/1.1/DTD/svg11.dtd">
<svg width="109" height="174"
     xmlns="http://www.w3.org/2000/svg" version="1.1">
 <path d="  M 3,60  L 3,62  L 2,62  L 2,63  L 1,63  L 1,69  L 2,69  L 2,70  L 3,70  L 3,71  L 4,71  L 4,69  L 5,69  L 5,70  L 6,70  L 6,69  L 8,69  L 8,68  L 10,68  L 10,66  L 11,66  L 11,65  L 12,65  L 12,63  L 13,63  L 13,61  L 14,61  L 14,60  L 15,60  L 15,58  L 16,58  L 16,57  L 17,57  L 17,56  L 18,56  L 18,55  L 19,55  L 19,53  L 20,53  L 20,52  L 21,52  L 21,51  L 23,51  L 23,50  L 24,50  L 24,49  L 25,49  L 25,48  L 26,48  L 26,47  L 27,47  L 27,46  L 28,46  L 28,45  L 29,45  L 29,46  L 30,46  L 30,47  L 31,47  L 31,48  L 32,48  L 32,49  L 33,49  L 33,51  L 34,51  L 34,52  L 35,52  L 35,54  L 36,54  L 36,55  L 37,55  L 37,56  L 38,56  L 38,57  L 39,57  L 39,58  L 40,58  L 40,59  L 41,59  L 41,60  L 42,60  L 42,61  L 43,61  L 43,62  L 45,62  L 45,64  L 46,64  L 46,66  L 48,66  L 48,67  L 49,67  L 49,68  L 50,68  L 50,70  L 52,70  L 52,71  L 53,71  L 53,73  L 54,73  L 54,74  L 57,74  L 57,75  L 58,75  L 58,74  L 59,74  L 59,73  L 60,73  L 60,72  L 59,72  L 59,68  L 58,68  L 58,67  L 57,67  L 57,66  L 56,66  L 56,64  L 55,64  L 55,63  L 54,63  L 54,62  L 52,62  L 52,60  L 51,60  L 51,59  L 49,59  L 49,57  L 48,57  L 48,56  L 47,56  L 47,55  L 46,55  L 46,53  L 45,53  L 45,52  L 44,52  L 44,51  L 43,51  L 43,50  L 42,50  L 42,49  L 41,49  L 41,48  L 40,48  L 40,47  L 39,47  L 39,45  L 38,45  L 38,44  L 37,44  L 37,43  L 36,43  L 36,40  L 35,40  L 35,35  L 36,35  L 36,33  L 37,33  L 37,32  L 38,32  L 38,31  L 39,31  L 39,29  L 40,29  L 40,28  L 41,28  L 41,26  L 42,26  L 42,25  L 43,25  L 43,24  L 44,24  L 44,22  L 45,22  L 45,21  L 46,21  L 46,19  L 47,19  L 47,17  L 48,17  L 48,12  L 47,12  L 47,11  L 46,11  L 46,10  L 44,10  L 44,9  L 41,9  L 41,13  L 40,13  L 40,16  L 39,16  L 39,19  L 38,19  L 38,21  L 37,21  L 37,22  L 36,22  L 36,23  L 35,23  L 35,24  L 34,24  L 34,26  L 32,26  L 32,27  L 31,27  L 31,29  L 30,29  L 30,30  L 29,30  L 29,31  L 28,31  L 28,32  L 27,32  L 27,33  L 26,33  L 26,34  L 25,34  L 25,35  L 24,35  L 24,36  L 23,36  L 23,38  L 22,38  L 22,39  L 21,39  L 21,40  L 19,40  L 19,41  L 18,41  L 18,42  L 17,42  L 17,44  L 16,44  L 16,45  L 15,45  L 15,46  L 13,46  L 13,49  L 12,49  L 12,50  L 11,50  L 11,51  L 10,51  L 10,52  L 9,52  L 9,54  L 8,54  L 8,55  L 7,55  L 7,56  L 6,56  L 6,58  L 5,58  L 5,59  L 4,59  L 4,60  Z  " style="fill:rgb(0, 0, 0); fill-opacity:1.000; stroke:none;" />
 <path d="  M 86,163  L 84,163  L 84,164  L 80,164  L 80,165  L 78,165  L 78,166  L 72,166  L 72,167  L 69,167  L 69,166  L 68,166  L 68,167  L 64,167  L 64,168  L 62,168  L 62,167  L 61,167  L 61,168  L 51,168  L 51,167  L 48,167  L 48,166  L 46,166  L 46,165  L 45,165  L 45,164  L 44,164  L 44,150  L 45,150  L 45,149  L 47,149  L 47,148  L 50,148  L 50,147  L 54,147  L 54,146  L 55,146  L 55,147  L 56,147  L 56,146  L 57,146  L 57,145  L 62,145  L 62,144  L 65,144  L 65,143  L 68,143  L 68,142  L 70,142  L 70,141  L 73,141  L 73,140  L 75,140  L 75,139  L 77,139  L 77,138  L 80,138  L 80,137  L 81,137  L 81,136  L 84,136  L 84,135  L 85,135  L 85,134  L 87,134  L 87,133  L 89,133  L 89,132  L 90,132  L 90,131  L 91,131  L 91,129  L 92,129  L 92,120  L 91,120  L 91,118  L 90,118  L 90,117  L 89,117  L 89,114  L 88,114  L 88,113  L 87,113  L 87,112  L 85,112  L 85,111  L 83,111  L 83,110  L 80,110  L 80,109  L 78,109  L 78,108  L 76,108  L 76,107  L 70,107  L 70,106  L 60,106  L 60,105  L 59,105  L 59,106  L 58,106  L 58,105  L 57,105  L 57,106  L 47,106  L 47,107  L 43,107  L 43,108  L 42,108  L 42,110  L 41,110  L 41,112  L 42,112  L 42,113  L 43,113  L 43,114  L 49,114  L 49,113  L 53,113  L 53,112  L 54,112  L 54,113  L 56,113  L 56,112  L 67,112  L 67,113  L 72,113  L 72,114  L 75,114  L 75,115  L 78,115  L 78,116  L 79,116  L 79,117  L 81,117  L 81,119  L 82,119  L 82,120  L 83,120  L 83,121  L 84,121  L 84,125  L 83,125  L 83,127  L 82,127  L 82,128  L 81,128  L 81,129  L 80,129  L 80,130  L 78,130  L 78,131  L 76,131  L 76,132  L 73,132  L 73,133  L 71,133  L 71,134  L 68,134  L 68,135  L 65,135  L 65,136  L 62,136  L 62,137  L 59,137  L 59,138  L 55,138  L 55,139  L 53,139  L 53,140  L 50,140  L 50,141  L 49,141  L 49,140  L 48,140  L 48,141  L 45,141  L 45,142  L 43,142  L 43,143  L 42,143  L 42,144  L 39,144  L 39,145  L 38,145  L 38,146  L 37,146  L 37,147  L 36,147  L 36,148  L 35,148  L 35,154  L 36,154  L 36,161  L 37,161  L 37,163  L 36,163  L 36,165  L 37,165  L 37,168  L 38,168  L 38,170  L 39,170  L 39,171  L 41,171  L 41,172  L 42,172  L 42,173  L 46,173  L 46,174  L 75,174  L 75,173  L 79,173  L 79,172  L 81,172  L 81,171  L 85,171  L 85,170  L 88,170  L 88,169  L 90,169  L 90,168  L 92,168  L 92,167  L 93,167  L 93,166  L 96,166  L 96,165  L 97,165  L 97,164  L 101,164  L 101,162  L 102,162  L 102,161  L 103,161  L 103,159  L 104,159  L 104,158  L 103,158  L 103,157  L 102,157  L 102,156  L 98,156  L 98,157  L 95,157  L 95,158  L 93,158  L 93,159  L 92,159  L 92,160  L 90,160  L 90,161  L 88,161  L 88,162  L 86,162  Z  " style="fill:rgb(0, 0, 0); fill-opacity:1.000; stroke:none;" />
 <path d="  M 100,41  L 100,47  L 101,47  L 101,48  L 100,48  L 100,51  L 101,51  L 101,52  L 100,52  L 100,55  L 101,55  L 101,58  L 100,58  L 100,60  L 101,60  L 101,62  L 100,62  L 100,64  L 101,64  L 101,65  L 100,65  L 100,99  L 101,99  L 101,101  L 106,101  L 106,100  L 107,100  L 107,97  L 108,97  L 108,96  L 107,96  L 107,93  L 108,93  L 108,92  L 107,92  L 107,89  L 108,89  L 108,88  L 107,88  L 107,85  L 108,85  L 108,84  L 107,84  L 107,83  L 108,83  L 108,82  L 107,82  L 107,81  L 108,81  L 108,80  L 107,80  L 107,79  L 108,79  L 108,78  L 107,78  L 107,77  L 108,77  L 108,76  L 107,76  L 107,75  L 108,75  L 108,74  L 107,74  L 107,73  L 108,73  L 108,51  L 109,51  L 109,50  L 108,50  L 108,48  L 109,48  L 109,1  L 107,1  L 107,0  L 104,0  L 104,1  L 102,1  L 102,2  L 101,2  L 101,3  L 102,3  L 102,17  L 101,17  L 101,18  L 102,18  L 102,19  L 101,19  L 101,22  L 102,22  L 102,23  L 101,23  L 101,26  L 102,26  L 102,27  L 101,27  L 101,31  L 100,31  L 100,32  L 98,32  L 98,33  L 88,33  L 88,34  L 87,34  L 87,33  L 86,33  L 86,34  L 76,34  L 76,35  L 72,35  L 72,36  L 66,36  L 66,37  L 65,37  L 65,38  L 63,38  L 63,39  L 62,39  L 62,40  L 61,40  L 61,41  L 60,41  L 60,42  L 59,42  L 59,43  L 58,43  L 58,46  L 66,46  L 66,45  L 69,45  L 69,44  L 74,44  L 74,43  L 81,43  L 81,42  L 87,42  L 87,41  Z  " style="fill:rgb(0, 0, 0); fill-opacity:1.000; stroke:none;" />
</svg>
