<?xml version="1.0" encoding="UTF-8" standalone="no"?>
<!DOCTYPE svg PUBLIC "-//W3C//DTD SVG 1.1//EN" 
  "http://www.w3.org/Graphics/SVG/1.1/DTD/svg11.dtd">
<svg width="105" height="170"
     xmlns="http://www.w3.org/2000/svg" version="1.1">
 <path d="  M 54,78  L 54,79  L 55,79  L 55,80  L 56,80  L 56,81  L 57,81  L 57,80  L 58,80  L 58,81  L 60,81  L 60,80  L 61,80  L 61,76  L 60,76  L 60,74  L 59,74  L 59,73  L 58,73  L 58,72  L 57,72  L 57,71  L 56,71  L 56,69  L 55,69  L 55,68  L 53,68  L 53,66  L 52,66  L 52,65  L 51,65  L 51,64  L 50,64  L 50,63  L 49,63  L 49,62  L 48,62  L 48,61  L 47,61  L 47,59  L 45,59  L 45,58  L 44,58  L 44,56  L 43,56  L 43,55  L 42,55  L 42,54  L 41,54  L 41,53  L 40,53  L 40,52  L 39,52  L 39,51  L 38,51  L 38,49  L 37,49  L 37,47  L 36,47  L 36,45  L 35,45  L 35,44  L 34,44  L 34,42  L 33,42  L 33,39  L 34,39  L 34,37  L 35,37  L 35,34  L 36,34  L 36,33  L 37,33  L 37,31  L 38,31  L 38,29  L 39,29  L 39,27  L 40,27  L 40,26  L 41,26  L 41,24  L 42,24  L 42,23  L 43,23  L 43,22  L 44,22  L 44,19  L 45,19  L 45,18  L 46,18  L 46,16  L 47,16  L 47,15  L 48,15  L 48,13  L 47,13  L 47,11  L 44,11  L 44,10  L 43,10  L 43,11  L 42,11  L 42,12  L 41,12  L 41,13  L 40,13  L 40,15  L 39,15  L 39,17  L 38,17  L 38,19  L 36,19  L 36,22  L 35,22  L 35,23  L 34,23  L 34,25  L 33,25  L 33,26  L 32,26  L 32,27  L 31,27  L 31,30  L 30,30  L 30,31  L 29,31  L 29,32  L 28,32  L 28,34  L 27,34  L 27,35  L 26,35  L 26,37  L 25,37  L 25,38  L 24,38  L 24,40  L 23,40  L 23,41  L 22,41  L 22,42  L 20,42  L 20,44  L 19,44  L 19,45  L 18,45  L 18,46  L 17,46  L 17,47  L 16,47  L 16,49  L 15,49  L 15,50  L 14,50  L 14,52  L 13,52  L 13,53  L 12,53  L 12,54  L 11,54  L 11,55  L 10,55  L 10,57  L 9,57  L 9,58  L 8,58  L 8,59  L 7,59  L 7,61  L 6,61  L 6,62  L 5,62  L 5,63  L 4,63  L 4,64  L 3,64  L 3,65  L 2,65  L 2,66  L 1,66  L 1,67  L 0,67  L 0,68  L 2,68  L 2,70  L 3,70  L 3,71  L 4,71  L 4,72  L 6,72  L 6,71  L 8,71  L 8,70  L 9,70  L 9,69  L 10,69  L 10,68  L 11,68  L 11,67  L 12,67  L 12,66  L 13,66  L 13,65  L 14,65  L 14,64  L 15,64  L 15,62  L 16,62  L 16,61  L 17,61  L 17,60  L 18,60  L 18,59  L 19,59  L 19,57  L 20,57  L 20,56  L 21,56  L 21,54  L 22,54  L 22,53  L 23,53  L 23,52  L 24,52  L 24,51  L 25,51  L 25,50  L 29,50  L 29,52  L 30,52  L 30,53  L 31,53  L 31,54  L 32,54  L 32,55  L 33,55  L 33,56  L 34,56  L 34,57  L 35,57  L 35,58  L 36,58  L 36,59  L 37,59  L 37,60  L 38,60  L 38,61  L 39,61  L 39,62  L 40,62  L 40,63  L 41,63  L 41,64  L 42,64  L 42,65  L 43,65  L 43,66  L 44,66  L 44,67  L 45,67  L 45,68  L 46,68  L 46,69  L 47,69  L 47,70  L 48,70  L 48,71  L 49,71  L 49,73  L 50,73  L 50,75  L 51,75  L 51,76  L 52,76  L 52,77  L 53,77  L 53,78  Z  " style="fill:rgb(0, 0, 0); fill-opacity:1.000; stroke:none;" />
 <path d="  M 33,111  L 33,110  L 27,110  L 27,111  L 23,111  L 23,112  L 22,112  L 22,111  L 21,111  L 21,112  L 20,112  L 20,113  L 17,113  L 17,114  L 16,114  L 16,115  L 15,115  L 15,124  L 18,124  L 18,125  L 19,125  L 19,123  L 20,123  L 20,122  L 21,122  L 21,120  L 22,120  L 22,119  L 25,119  L 25,118  L 31,118  L 31,117  L 32,117  L 32,118  L 34,118  L 34,119  L 38,119  L 38,120  L 40,120  L 40,121  L 42,121  L 42,122  L 43,122  L 43,125  L 44,125  L 44,126  L 43,126  L 43,128  L 42,128  L 42,130  L 41,130  L 41,131  L 39,131  L 39,132  L 38,132  L 38,133  L 35,133  L 35,134  L 34,134  L 34,135  L 31,135  L 31,136  L 29,136  L 29,137  L 27,137  L 27,138  L 26,138  L 26,137  L 25,137  L 25,138  L 23,138  L 23,139  L 21,139  L 21,140  L 20,140  L 20,141  L 19,141  L 19,140  L 18,140  L 18,141  L 16,141  L 16,142  L 15,142  L 15,143  L 13,143  L 13,144  L 11,144  L 11,147  L 12,147  L 12,151  L 11,151  L 11,152  L 12,152  L 12,155  L 11,155  L 11,156  L 12,156  L 12,159  L 11,159  L 11,160  L 12,160  L 12,162  L 13,162  L 13,164  L 14,164  L 14,166  L 15,166  L 15,167  L 16,167  L 16,168  L 18,168  L 18,169  L 20,169  L 20,170  L 34,170  L 34,169  L 37,169  L 37,168  L 40,168  L 40,167  L 42,167  L 42,166  L 45,166  L 45,165  L 47,165  L 47,164  L 50,164  L 50,163  L 52,163  L 52,162  L 54,162  L 54,161  L 57,161  L 57,159  L 59,159  L 59,157  L 58,157  L 58,154  L 53,154  L 53,155  L 50,155  L 50,156  L 48,156  L 48,157  L 46,157  L 46,158  L 43,158  L 43,159  L 41,159  L 41,160  L 40,160  L 40,161  L 37,161  L 37,162  L 34,162  L 34,163  L 29,163  L 29,164  L 26,164  L 26,163  L 25,163  L 25,164  L 24,164  L 24,163  L 21,163  L 21,162  L 20,162  L 20,161  L 19,161  L 19,157  L 18,157  L 18,154  L 19,154  L 19,150  L 20,150  L 20,148  L 22,148  L 22,147  L 23,147  L 23,146  L 25,146  L 25,145  L 26,145  L 26,144  L 28,144  L 28,143  L 31,143  L 31,142  L 34,142  L 34,141  L 36,141  L 36,140  L 38,140  L 38,139  L 40,139  L 40,138  L 42,138  L 42,137  L 44,137  L 44,136  L 45,136  L 45,135  L 46,135  L 46,134  L 47,134  L 47,133  L 48,133  L 48,132  L 49,132  L 49,130  L 50,130  L 50,123  L 51,123  L 51,122  L 50,122  L 50,120  L 49,120  L 49,119  L 48,119  L 48,118  L 47,118  L 47,117  L 46,117  L 46,116  L 45,116  L 45,115  L 44,115  L 44,114  L 42,114  L 42,113  L 41,113  L 41,112  L 38,112  L 38,111  Z  " style="fill:rgb(0, 0, 0); fill-opacity:1.000; stroke:none;" />
 <path d="  M 92,72  L 92,75  L 91,75  L 91,76  L 92,76  L 92,79  L 91,79  L 91,80  L 92,80  L 92,83  L 91,83  L 91,84  L 92,84  L 92,87  L 91,87  L 91,88  L 92,88  L 92,91  L 91,91  L 91,92  L 92,92  L 92,95  L 91,95  L 91,100  L 93,100  L 93,101  L 96,101  L 96,100  L 97,100  L 97,99  L 98,99  L 98,98  L 99,98  L 99,93  L 98,93  L 98,92  L 99,92  L 99,91  L 98,91  L 98,88  L 99,88  L 99,87  L 98,87  L 98,86  L 99,86  L 99,85  L 98,85  L 98,84  L 99,84  L 99,83  L 98,83  L 98,80  L 99,80  L 99,79  L 98,79  L 98,78  L 99,78  L 99,77  L 98,77  L 98,76  L 99,76  L 99,75  L 98,75  L 98,74  L 99,74  L 99,73  L 98,73  L 98,72  L 99,72  L 99,71  L 98,71  L 98,70  L 99,70  L 99,69  L 98,69  L 98,68  L 99,68  L 99,67  L 98,67  L 98,66  L 99,66  L 99,49  L 98,49  L 98,48  L 99,48  L 99,45  L 98,45  L 98,44  L 99,44  L 99,43  L 98,43  L 98,42  L 99,42  L 99,41  L 98,41  L 98,24  L 97,24  L 97,15  L 96,15  L 96,14  L 97,14  L 97,13  L 96,13  L 96,12  L 97,12  L 97,11  L 96,11  L 96,10  L 97,10  L 97,9  L 96,9  L 96,8  L 97,8  L 97,5  L 96,5  L 96,3  L 97,3  L 97,2  L 96,2  L 96,1  L 94,1  L 94,0  L 90,0  L 90,1  L 89,1  L 89,22  L 90,22  L 90,28  L 91,28  L 91,29  L 90,29  L 90,30  L 91,30  L 91,39  L 84,39  L 84,40  L 77,40  L 77,41  L 69,41  L 69,42  L 68,42  L 68,41  L 65,41  L 65,42  L 64,42  L 64,41  L 63,41  L 63,42  L 62,42  L 62,41  L 61,41  L 61,42  L 60,42  L 60,43  L 59,43  L 59,45  L 58,45  L 58,47  L 59,47  L 59,49  L 63,49  L 63,50  L 65,50  L 65,49  L 68,49  L 68,48  L 69,48  L 69,49  L 70,49  L 70,48  L 75,48  L 75,47  L 82,47  L 82,46  L 83,46  L 83,47  L 84,47  L 84,46  L 91,46  L 91,49  L 92,49  L 92,51  L 91,51  L 91,53  L 92,53  L 92,55  L 91,55  L 91,56  L 92,56  L 92,59  L 91,59  L 91,60  L 92,60  L 92,63  L 91,63  L 91,64  L 92,64  L 92,67  L 91,67  L 91,68  L 92,68  L 92,71  L 91,71  L 91,72  Z  " style="fill:rgb(0, 0, 0); fill-opacity:1.000; stroke:none;" />
 <path d="  M 61,155  L 59,155  L 59,156  L 60,156  L 60,158  L 61,158  L 61,159  L 62,159  L 62,160  L 63,160  L 63,161  L 66,161  L 66,162  L 67,162  L 67,163  L 68,163  L 68,164  L 69,164  L 69,165  L 71,165  L 71,166  L 73,166  L 73,165  L 89,165  L 89,164  L 94,164  L 94,163  L 99,163  L 99,162  L 100,162  L 100,161  L 101,161  L 101,158  L 102,158  L 102,154  L 103,154  L 103,146  L 104,146  L 104,140  L 105,140  L 105,115  L 104,115  L 104,113  L 103,113  L 103,111  L 102,111  L 102,110  L 101,110  L 101,109  L 98,109  L 98,111  L 97,111  L 97,112  L 98,112  L 98,113  L 97,113  L 97,114  L 98,114  L 98,119  L 99,119  L 99,128  L 100,128  L 100,130  L 101,130  L 101,131  L 100,131  L 100,132  L 90,132  L 90,131  L 89,131  L 89,132  L 88,132  L 88,131  L 87,131  L 87,132  L 86,132  L 86,131  L 85,131  L 85,132  L 78,132  L 78,131  L 77,131  L 77,132  L 74,132  L 74,131  L 73,131  L 73,132  L 70,132  L 70,131  L 68,131  L 68,130  L 67,130  L 67,128  L 66,128  L 66,125  L 64,125  L 64,126  L 63,126  L 63,125  L 62,125  L 62,136  L 61,136  L 61,153  L 60,153  L 60,154  L 61,154  Z  M 68,157  L 67,157  L 67,154  L 68,154  L 68,153  L 67,153  L 67,152  L 68,152  L 68,151  L 67,151  L 67,150  L 68,150  L 68,149  L 67,149  L 67,148  L 68,148  L 68,140  L 69,140  L 69,139  L 72,139  L 72,138  L 73,138  L 73,139  L 99,139  L 99,143  L 98,143  L 98,146  L 97,146  L 97,151  L 96,151  L 96,152  L 97,152  L 97,153  L 96,153  L 96,155  L 95,155  L 95,157  L 91,157  L 91,158  L 86,158  L 86,159  L 79,159  L 79,160  L 78,160  L 78,159  L 75,159  L 75,160  L 74,160  L 74,159  L 73,159  L 73,160  L 71,160  L 71,161  L 70,161  L 70,160  L 67,160  L 67,159  L 68,159  Z  " style="fill:rgb(0, 0, 0); fill-opacity:1.000; stroke:none;" />
 <path d="  M 62,123  L 62,124  L 63,124  L 63,123  Z  " style="fill:rgb(0, 0, 0); fill-opacity:1.000; stroke:none;" />
</svg>
