<?xml version="1.0" encoding="UTF-8" standalone="no"?>
<!DOCTYPE svg PUBLIC "-//W3C//DTD SVG 1.1//EN" 
  "http://www.w3.org/Graphics/SVG/1.1/DTD/svg11.dtd">
<svg width="103" height="165"
     xmlns="http://www.w3.org/2000/svg" version="1.1">
 <path d="  M 43,68  L 45,68  L 45,70  L 46,70  L 46,71  L 47,71  L 47,72  L 48,72  L 48,73  L 49,73  L 49,74  L 50,74  L 50,75  L 51,75  L 51,76  L 53,76  L 53,77  L 55,77  L 55,76  L 56,76  L 56,72  L 55,72  L 55,69  L 54,69  L 54,68  L 53,68  L 53,67  L 52,67  L 52,66  L 50,66  L 50,65  L 49,65  L 49,64  L 48,64  L 48,63  L 47,63  L 47,62  L 46,62  L 46,61  L 45,61  L 45,60  L 44,60  L 44,59  L 43,59  L 43,57  L 42,57  L 42,56  L 41,56  L 41,55  L 40,55  L 40,53  L 39,53  L 39,52  L 38,52  L 38,51  L 37,51  L 37,50  L 36,50  L 36,49  L 35,49  L 35,48  L 34,48  L 34,46  L 33,46  L 33,44  L 34,44  L 34,40  L 35,40  L 35,38  L 36,38  L 36,37  L 37,37  L 37,35  L 38,35  L 38,33  L 39,33  L 39,31  L 40,31  L 40,29  L 41,29  L 41,28  L 42,28  L 42,26  L 43,26  L 43,24  L 44,24  L 44,22  L 45,22  L 45,21  L 46,21  L 46,20  L 47,20  L 47,18  L 48,18  L 48,17  L 49,17  L 49,14  L 50,14  L 50,11  L 48,11  L 48,10  L 46,10  L 46,11  L 43,11  L 43,12  L 41,12  L 41,16  L 40,16  L 40,17  L 39,17  L 39,19  L 38,19  L 38,21  L 37,21  L 37,23  L 36,23  L 36,24  L 35,24  L 35,25  L 34,25  L 34,28  L 33,28  L 33,29  L 32,29  L 32,32  L 31,32  L 31,34  L 30,34  L 30,36  L 29,36  L 29,38  L 28,38  L 28,39  L 27,39  L 27,41  L 26,41  L 26,43  L 25,43  L 25,44  L 24,44  L 24,45  L 23,45  L 23,48  L 22,48  L 22,49  L 21,49  L 21,51  L 20,51  L 20,52  L 19,52  L 19,54  L 18,54  L 18,55  L 17,55  L 17,56  L 16,56  L 16,57  L 15,57  L 15,58  L 14,58  L 14,60  L 13,60  L 13,61  L 11,61  L 11,63  L 10,63  L 10,64  L 9,64  L 9,65  L 7,65  L 7,66  L 6,66  L 6,68  L 5,68  L 5,69  L 3,69  L 3,70  L 2,70  L 2,71  L 1,71  L 1,72  L 0,72  L 0,74  L 1,74  L 1,76  L 2,76  L 2,78  L 8,78  L 8,77  L 9,77  L 9,76  L 10,76  L 10,74  L 11,74  L 11,73  L 12,73  L 12,72  L 13,72  L 13,71  L 14,71  L 14,69  L 15,69  L 15,68  L 16,68  L 16,67  L 17,67  L 17,66  L 18,66  L 18,65  L 19,65  L 19,63  L 20,63  L 20,62  L 21,62  L 21,61  L 22,61  L 22,60  L 23,60  L 23,59  L 24,59  L 24,58  L 25,58  L 25,57  L 26,57  L 26,55  L 27,55  L 27,53  L 29,53  L 29,54  L 30,54  L 30,55  L 31,55  L 31,56  L 33,56  L 33,58  L 34,58  L 34,59  L 35,59  L 35,60  L 37,60  L 37,62  L 38,62  L 38,63  L 39,63  L 39,64  L 40,64  L 40,65  L 41,65  L 41,66  L 42,66  L 42,67  L 43,67  Z  " style="fill:rgb(0, 0, 0); fill-opacity:1.000; stroke:none;" />
 <path d="  M 81,110  L 81,109  L 80,109  L 80,110  L 79,110  L 79,109  L 68,109  L 68,108  L 65,108  L 65,107  L 61,107  L 61,106  L 60,106  L 60,107  L 57,107  L 57,108  L 56,108  L 56,109  L 55,109  L 55,110  L 54,110  L 54,111  L 53,111  L 53,112  L 52,112  L 52,113  L 51,113  L 51,114  L 50,114  L 50,115  L 49,115  L 49,116  L 47,116  L 47,118  L 46,118  L 46,119  L 45,119  L 45,120  L 43,120  L 43,122  L 42,122  L 42,123  L 41,123  L 41,125  L 40,125  L 40,126  L 39,126  L 39,130  L 38,130  L 38,134  L 37,134  L 37,136  L 36,136  L 36,139  L 35,139  L 35,140  L 36,140  L 36,141  L 35,141  L 35,148  L 36,148  L 36,150  L 35,150  L 35,151  L 36,151  L 36,155  L 37,155  L 37,158  L 38,158  L 38,159  L 39,159  L 39,160  L 40,160  L 40,161  L 42,161  L 42,162  L 46,162  L 46,163  L 50,163  L 50,164  L 53,164  L 53,165  L 69,165  L 69,164  L 73,164  L 73,163  L 76,163  L 76,162  L 79,162  L 79,161  L 81,161  L 81,160  L 84,160  L 84,159  L 86,159  L 86,158  L 88,158  L 88,157  L 90,157  L 90,156  L 91,156  L 91,155  L 92,155  L 92,154  L 93,154  L 93,153  L 95,153  L 95,152  L 96,152  L 96,150  L 97,150  L 97,149  L 98,149  L 98,148  L 99,148  L 99,146  L 100,146  L 100,144  L 101,144  L 101,140  L 102,140  L 102,125  L 101,125  L 101,122  L 100,122  L 100,120  L 99,120  L 99,117  L 98,117  L 98,116  L 97,116  L 97,115  L 96,115  L 96,114  L 95,114  L 95,113  L 93,113  L 93,112  L 91,112  L 91,111  L 86,111  L 86,110  Z  M 43,136  L 44,136  L 44,133  L 45,133  L 45,131  L 46,131  L 46,129  L 47,129  L 47,126  L 48,126  L 48,125  L 49,125  L 49,124  L 51,124  L 51,123  L 52,123  L 52,122  L 53,122  L 53,120  L 54,120  L 54,119  L 56,119  L 56,118  L 59,118  L 59,117  L 62,117  L 62,116  L 79,116  L 79,117  L 83,117  L 83,118  L 87,118  L 87,119  L 88,119  L 88,120  L 90,120  L 90,121  L 91,121  L 91,122  L 92,122  L 92,123  L 94,123  L 94,125  L 95,125  L 95,138  L 94,138  L 94,142  L 93,142  L 93,144  L 92,144  L 92,145  L 91,145  L 91,146  L 90,146  L 90,148  L 88,148  L 88,149  L 87,149  L 87,150  L 86,150  L 86,151  L 85,151  L 85,152  L 82,152  L 82,153  L 81,153  L 81,154  L 79,154  L 79,155  L 78,155  L 78,156  L 74,156  L 74,157  L 70,157  L 70,158  L 65,158  L 65,159  L 58,159  L 58,158  L 51,158  L 51,157  L 48,157  L 48,156  L 46,156  L 46,155  L 44,155  L 44,153  L 43,153  Z  " style="fill:rgb(0, 0, 0); fill-opacity:1.000; stroke:none;" />
 <path d="  M 94,19  L 94,28  L 95,28  L 95,34  L 94,34  L 94,35  L 91,35  L 91,36  L 87,36  L 87,37  L 83,37  L 83,38  L 79,38  L 79,39  L 72,39  L 72,40  L 68,40  L 68,41  L 62,41  L 62,42  L 61,42  L 61,41  L 60,41  L 60,42  L 58,42  L 58,43  L 55,43  L 55,45  L 54,45  L 54,47  L 53,47  L 53,49  L 54,49  L 54,51  L 58,51  L 58,50  L 61,50  L 61,49  L 62,49  L 62,48  L 65,48  L 65,47  L 73,47  L 73,46  L 74,46  L 74,47  L 75,47  L 75,46  L 77,46  L 77,45  L 83,45  L 83,44  L 87,44  L 87,43  L 90,43  L 90,42  L 92,42  L 92,41  L 93,41  L 93,42  L 94,42  L 94,41  L 95,41  L 95,44  L 96,44  L 96,47  L 95,47  L 95,48  L 96,48  L 96,67  L 95,67  L 95,68  L 96,68  L 96,71  L 95,71  L 95,73  L 96,73  L 96,74  L 95,74  L 95,85  L 96,85  L 96,87  L 95,87  L 95,88  L 96,88  L 96,97  L 97,97  L 97,101  L 99,101  L 99,102  L 100,102  L 100,103  L 101,103  L 101,102  L 103,102  L 103,89  L 102,89  L 102,88  L 103,88  L 103,87  L 102,87  L 102,84  L 103,84  L 103,83  L 102,83  L 102,80  L 103,80  L 103,79  L 102,79  L 102,77  L 103,77  L 103,75  L 102,75  L 102,73  L 103,73  L 103,33  L 102,33  L 102,32  L 103,32  L 103,31  L 102,31  L 102,21  L 101,21  L 101,14  L 100,14  L 100,3  L 99,3  L 99,2  L 98,2  L 98,1  L 96,1  L 96,0  L 95,0  L 95,1  L 93,1  L 93,3  L 92,3  L 92,8  L 93,8  L 93,9  L 92,9  L 92,10  L 93,10  L 93,19  Z  " style="fill:rgb(0, 0, 0); fill-opacity:1.000; stroke:none;" />
</svg>
