<?xml version="1.0" encoding="UTF-8" standalone="no"?>
<!DOCTYPE svg PUBLIC "-//W3C//DTD SVG 1.1//EN" 
  "http://www.w3.org/Graphics/SVG/1.1/DTD/svg11.dtd">
<svg width="149" height="151"
     xmlns="http://www.w3.org/2000/svg" version="1.1">
 <path d="  M 38,59  L 38,60  L 40,60  L 40,61  L 41,61  L 41,62  L 42,62  L 42,63  L 43,63  L 43,64  L 45,64  L 45,66  L 46,66  L 46,67  L 50,67  L 50,68  L 52,68  L 52,67  L 53,67  L 53,66  L 55,66  L 55,67  L 56,67  L 56,65  L 55,65  L 55,64  L 54,64  L 54,63  L 53,63  L 53,62  L 52,62  L 52,60  L 51,60  L 51,59  L 50,59  L 50,58  L 48,58  L 48,57  L 47,57  L 47,56  L 46,56  L 46,55  L 44,55  L 44,53  L 43,53  L 43,52  L 42,52  L 42,50  L 40,50  L 40,49  L 38,49  L 38,48  L 36,48  L 36,47  L 35,47  L 35,46  L 33,46  L 33,44  L 32,44  L 32,43  L 31,43  L 31,42  L 30,42  L 30,41  L 29,41  L 29,40  L 28,40  L 28,39  L 29,39  L 29,37  L 30,37  L 30,34  L 31,34  L 31,33  L 32,33  L 32,32  L 33,32  L 33,31  L 34,31  L 34,30  L 35,30  L 35,29  L 36,29  L 36,28  L 37,28  L 37,27  L 38,27  L 38,26  L 39,26  L 39,25  L 41,25  L 41,24  L 42,24  L 42,23  L 43,23  L 43,21  L 44,21  L 44,20  L 45,20  L 45,18  L 46,18  L 46,17  L 47,17  L 47,13  L 48,13  L 48,6  L 47,6  L 47,5  L 46,5  L 46,4  L 45,4  L 45,5  L 43,5  L 43,4  L 41,4  L 41,6  L 40,6  L 40,8  L 39,8  L 39,12  L 38,12  L 38,17  L 37,17  L 37,18  L 35,18  L 35,21  L 34,21  L 34,23  L 33,23  L 33,24  L 31,24  L 31,25  L 29,25  L 29,27  L 27,27  L 27,28  L 26,28  L 26,29  L 25,29  L 25,30  L 24,30  L 24,31  L 23,31  L 23,32  L 22,32  L 22,35  L 21,35  L 21,36  L 20,36  L 20,38  L 19,38  L 19,40  L 18,40  L 18,41  L 17,41  L 17,43  L 16,43  L 16,44  L 15,44  L 15,45  L 14,45  L 14,46  L 13,46  L 13,48  L 12,48  L 12,49  L 11,49  L 11,51  L 10,51  L 10,52  L 9,52  L 9,53  L 8,53  L 8,54  L 7,54  L 7,55  L 6,55  L 6,57  L 5,57  L 5,58  L 4,58  L 4,60  L 3,60  L 3,61  L 2,61  L 2,62  L 1,62  L 1,65  L 0,65  L 0,67  L 1,67  L 1,69  L 2,69  L 2,71  L 3,71  L 3,70  L 6,70  L 6,69  L 7,69  L 7,68  L 8,68  L 8,66  L 9,66  L 9,65  L 10,65  L 10,62  L 12,62  L 12,60  L 13,60  L 13,59  L 14,59  L 14,58  L 15,58  L 15,57  L 16,57  L 16,56  L 17,56  L 17,55  L 18,55  L 18,53  L 19,53  L 19,52  L 20,52  L 20,49  L 21,49  L 21,48  L 22,48  L 22,47  L 23,47  L 23,48  L 25,48  L 25,49  L 27,49  L 27,50  L 28,50  L 28,51  L 29,51  L 29,52  L 30,52  L 30,53  L 31,53  L 31,54  L 32,54  L 32,55  L 33,55  L 33,56  L 35,56  L 35,58  L 36,58  L 36,59  Z  " style="fill:rgb(0, 0, 0); fill-opacity:1.000; stroke:none;" />
 <path d="  M 44,104  L 43,104  L 43,101  L 44,101  L 44,100  L 43,100  L 43,93  L 42,93  L 42,92  L 38,92  L 38,93  L 37,93  L 37,94  L 36,94  L 36,105  L 37,105  L 37,107  L 36,107  L 36,109  L 37,109  L 37,112  L 36,112  L 36,113  L 37,113  L 37,123  L 38,123  L 38,130  L 39,130  L 39,140  L 40,140  L 40,145  L 41,145  L 41,147  L 42,147  L 42,148  L 43,148  L 43,149  L 45,149  L 45,150  L 46,150  L 46,151  L 62,151  L 62,150  L 69,150  L 69,149  L 73,149  L 73,148  L 74,148  L 74,149  L 75,149  L 75,148  L 80,148  L 80,147  L 83,147  L 83,146  L 85,146  L 85,145  L 86,145  L 86,144  L 88,144  L 88,142  L 89,142  L 89,138  L 90,138  L 90,137  L 89,137  L 89,136  L 90,136  L 90,129  L 91,129  L 91,128  L 90,128  L 90,127  L 91,127  L 91,125  L 92,125  L 92,117  L 93,117  L 93,116  L 92,116  L 92,113  L 93,113  L 93,111  L 92,111  L 92,110  L 93,110  L 93,107  L 92,107  L 92,104  L 93,104  L 93,103  L 92,103  L 92,97  L 91,97  L 91,96  L 85,96  L 85,97  L 86,97  L 86,115  L 87,115  L 87,118  L 86,118  L 86,119  L 85,119  L 85,120  L 84,120  L 84,119  L 83,119  L 83,120  L 45,120  L 45,119  L 44,119  Z  M 84,137  L 83,137  L 83,140  L 82,140  L 82,141  L 80,141  L 80,142  L 76,142  L 76,143  L 72,143  L 72,144  L 64,144  L 64,145  L 55,145  L 55,146  L 54,146  L 54,145  L 53,145  L 53,146  L 51,146  L 51,145  L 48,145  L 48,144  L 47,144  L 47,142  L 46,142  L 46,137  L 45,137  L 45,127  L 49,127  L 49,126  L 69,126  L 69,125  L 70,125  L 70,126  L 73,126  L 73,125  L 74,125  L 74,126  L 75,126  L 75,125  L 82,125  L 82,126  L 84,126  Z  " style="fill:rgb(0, 0, 0); fill-opacity:1.000; stroke:none;" />
 <path d="  M 46,38  L 46,42  L 47,42  L 47,43  L 49,43  L 49,44  L 51,44  L 51,43  L 53,43  L 53,42  L 56,42  L 56,41  L 61,41  L 61,40  L 65,40  L 65,39  L 68,39  L 68,38  L 77,38  L 77,39  L 78,39  L 78,41  L 77,41  L 77,42  L 78,42  L 78,44  L 77,44  L 77,50  L 78,50  L 78,51  L 77,51  L 77,80  L 78,80  L 78,81  L 79,81  L 79,82  L 80,82  L 80,81  L 82,81  L 82,79  L 83,79  L 83,77  L 84,77  L 84,67  L 85,67  L 85,66  L 84,66  L 84,65  L 85,65  L 85,62  L 84,62  L 84,61  L 85,61  L 85,58  L 84,58  L 84,57  L 85,57  L 85,54  L 84,54  L 84,53  L 85,53  L 85,21  L 86,21  L 86,20  L 85,20  L 85,17  L 86,17  L 86,16  L 85,16  L 85,13  L 86,13  L 86,12  L 85,12  L 85,9  L 86,9  L 86,8  L 85,8  L 85,5  L 86,5  L 86,4  L 85,4  L 85,2  L 84,2  L 84,1  L 83,1  L 83,0  L 80,0  L 80,1  L 79,1  L 79,10  L 78,10  L 78,11  L 79,11  L 79,12  L 78,12  L 78,13  L 79,13  L 79,14  L 78,14  L 78,15  L 79,15  L 79,16  L 78,16  L 78,17  L 79,17  L 79,18  L 78,18  L 78,19  L 79,19  L 79,20  L 78,20  L 78,21  L 79,21  L 79,22  L 78,22  L 78,23  L 79,23  L 79,24  L 78,24  L 78,30  L 74,30  L 74,31  L 70,31  L 70,32  L 69,32  L 69,31  L 68,31  L 68,32  L 64,32  L 64,33  L 60,33  L 60,34  L 55,34  L 55,35  L 50,35  L 50,36  L 49,36  L 49,37  L 47,37  L 47,38  Z  " style="fill:rgb(0, 0, 0); fill-opacity:1.000; stroke:none;" />
 <path d="  M 99,89  L 100,89  L 100,90  L 101,90  L 101,89  L 103,89  L 103,88  L 104,88  L 104,86  L 105,86  L 105,85  L 106,85  L 106,5  L 105,5  L 105,4  L 103,4  L 103,3  L 102,3  L 102,4  L 100,4  L 100,5  L 99,5  L 99,8  L 98,8  L 98,9  L 99,9  L 99,10  L 98,10  L 98,11  L 99,11  L 99,14  L 98,14  L 98,15  L 99,15  L 99,18  L 98,18  L 98,19  L 99,19  L 99,22  L 98,22  L 98,23  L 99,23  Z  " style="fill:rgb(0, 0, 0); fill-opacity:1.000; stroke:none;" />
 <path d="  M 149,119  L 149,118  L 148,118  L 148,119  Z  " style="fill:rgb(0, 0, 0); fill-opacity:1.000; stroke:none;" />
</svg>
