<?xml version="1.0" encoding="UTF-8" standalone="no"?>
<!DOCTYPE svg PUBLIC "-//W3C//DTD SVG 1.1//EN" 
  "http://www.w3.org/Graphics/SVG/1.1/DTD/svg11.dtd">
<svg width="102" height="144"
     xmlns="http://www.w3.org/2000/svg" version="1.1">
 <path d="  M 28,33  L 28,32  L 29,32  L 29,31  L 30,31  L 30,28  L 31,28  L 31,27  L 32,27  L 32,26  L 33,26  L 33,25  L 34,25  L 34,24  L 36,24  L 36,22  L 38,22  L 38,21  L 39,21  L 39,20  L 40,20  L 40,19  L 42,19  L 42,17  L 43,17  L 43,16  L 44,16  L 44,14  L 46,14  L 46,10  L 47,10  L 47,7  L 45,7  L 45,6  L 43,6  L 43,7  L 41,7  L 41,8  L 40,8  L 40,9  L 39,9  L 39,10  L 38,10  L 38,12  L 37,12  L 37,13  L 36,13  L 36,14  L 35,14  L 35,15  L 34,15  L 34,16  L 33,16  L 33,18  L 32,18  L 32,19  L 30,19  L 30,20  L 29,20  L 29,21  L 28,21  L 28,22  L 27,22  L 27,23  L 26,23  L 26,24  L 25,24  L 25,25  L 24,25  L 24,26  L 23,26  L 23,27  L 22,27  L 22,29  L 21,29  L 21,31  L 20,31  L 20,33  L 19,33  L 19,35  L 18,35  L 18,38  L 17,38  L 17,40  L 16,40  L 16,41  L 15,41  L 15,42  L 14,42  L 14,44  L 13,44  L 13,45  L 12,45  L 12,47  L 11,47  L 11,48  L 10,48  L 10,50  L 9,50  L 9,51  L 8,51  L 8,52  L 6,52  L 6,54  L 5,54  L 5,55  L 4,55  L 4,56  L 3,56  L 3,57  L 2,57  L 2,58  L 1,58  L 1,59  L 0,59  L 0,62  L 1,62  L 1,65  L 2,65  L 2,66  L 4,66  L 4,67  L 5,67  L 5,66  L 7,66  L 7,64  L 8,64  L 8,63  L 9,63  L 9,61  L 10,61  L 10,59  L 11,59  L 11,58  L 12,58  L 12,57  L 13,57  L 13,55  L 14,55  L 14,54  L 15,54  L 15,53  L 16,53  L 16,52  L 17,52  L 17,51  L 18,51  L 18,50  L 19,50  L 19,49  L 20,49  L 20,47  L 21,47  L 21,45  L 25,45  L 25,46  L 26,46  L 26,47  L 27,47  L 27,48  L 28,48  L 28,49  L 29,49  L 29,50  L 30,50  L 30,51  L 31,51  L 31,52  L 32,52  L 32,53  L 33,53  L 33,54  L 35,54  L 35,55  L 36,55  L 36,56  L 37,56  L 37,58  L 39,58  L 39,59  L 40,59  L 40,60  L 41,60  L 41,61  L 42,61  L 42,62  L 44,62  L 44,64  L 46,64  L 46,65  L 48,65  L 48,66  L 51,66  L 51,65  L 52,65  L 52,64  L 54,64  L 54,65  L 55,65  L 55,62  L 54,62  L 54,61  L 53,61  L 53,60  L 52,60  L 52,59  L 51,59  L 51,58  L 50,58  L 50,57  L 48,57  L 48,56  L 47,56  L 47,55  L 46,55  L 46,54  L 44,54  L 44,53  L 43,53  L 43,52  L 42,52  L 42,51  L 41,51  L 41,50  L 40,50  L 40,49  L 39,49  L 39,48  L 37,48  L 37,46  L 36,46  L 36,45  L 34,45  L 34,44  L 33,44  L 33,43  L 32,43  L 32,42  L 31,42  L 31,40  L 30,40  L 30,39  L 29,39  L 29,38  L 27,38  L 27,36  L 26,36  L 26,34  L 27,34  L 27,33  Z  " style="fill:rgb(0, 0, 0); fill-opacity:1.000; stroke:none;" />
 <path d="  M 46,99  L 46,100  L 45,100  L 45,101  L 44,101  L 44,102  L 43,102  L 43,103  L 42,103  L 42,104  L 41,104  L 41,106  L 40,106  L 40,107  L 39,107  L 39,109  L 38,109  L 38,112  L 37,112  L 37,113  L 36,113  L 36,116  L 35,116  L 35,118  L 34,118  L 34,119  L 35,119  L 35,120  L 34,120  L 34,126  L 33,126  L 33,128  L 34,128  L 34,134  L 35,134  L 35,137  L 36,137  L 36,140  L 38,140  L 38,141  L 40,141  L 40,142  L 43,142  L 43,143  L 44,143  L 44,144  L 72,144  L 72,143  L 77,143  L 77,142  L 78,142  L 78,143  L 79,143  L 79,142  L 80,142  L 80,141  L 83,141  L 83,140  L 85,140  L 85,139  L 88,139  L 88,138  L 90,138  L 90,137  L 91,137  L 91,136  L 92,136  L 92,135  L 94,135  L 94,134  L 95,134  L 95,133  L 96,133  L 96,131  L 97,131  L 97,130  L 98,130  L 98,129  L 99,129  L 99,127  L 100,127  L 100,125  L 101,125  L 101,123  L 102,123  L 102,101  L 101,101  L 101,99  L 100,99  L 100,97  L 99,97  L 99,96  L 98,96  L 98,94  L 96,94  L 96,93  L 95,93  L 95,92  L 93,92  L 93,91  L 92,91  L 92,90  L 90,90  L 90,89  L 83,89  L 83,88  L 82,88  L 82,89  L 81,89  L 81,88  L 68,88  L 68,89  L 63,89  L 63,90  L 60,90  L 60,91  L 58,91  L 58,92  L 56,92  L 56,93  L 55,93  L 55,94  L 53,94  L 53,95  L 52,95  L 52,96  L 50,96  L 50,97  L 49,97  L 49,99  Z  M 93,124  L 92,124  L 92,126  L 91,126  L 91,127  L 90,127  L 90,129  L 89,129  L 89,130  L 87,130  L 87,131  L 86,131  L 86,132  L 84,132  L 84,133  L 83,133  L 83,134  L 81,134  L 81,135  L 77,135  L 77,136  L 74,136  L 74,137  L 71,137  L 71,138  L 51,138  L 51,137  L 47,137  L 47,136  L 44,136  L 44,135  L 42,135  L 42,130  L 41,130  L 41,127  L 42,127  L 42,126  L 41,126  L 41,125  L 42,125  L 42,119  L 43,119  L 43,116  L 44,116  L 44,113  L 45,113  L 45,112  L 46,112  L 46,110  L 47,110  L 47,109  L 48,109  L 48,108  L 49,108  L 49,107  L 50,107  L 50,106  L 51,106  L 51,105  L 52,105  L 52,104  L 53,104  L 53,103  L 55,103  L 55,102  L 57,102  L 57,101  L 59,101  L 59,100  L 60,100  L 60,99  L 63,99  L 63,98  L 64,98  L 64,97  L 67,97  L 67,96  L 74,96  L 74,95  L 76,95  L 76,96  L 77,96  L 77,95  L 79,95  L 79,96  L 85,96  L 85,97  L 88,97  L 88,98  L 89,98  L 89,99  L 90,99  L 90,100  L 92,100  L 92,101  L 93,101  L 93,102  L 94,102  L 94,105  L 95,105  L 95,107  L 96,107  L 96,117  L 95,117  L 95,120  L 94,120  L 94,122  L 93,122  Z  " style="fill:rgb(0, 0, 0); fill-opacity:1.000; stroke:none;" />
 <path d="  M 46,35  L 46,40  L 47,40  L 47,39  L 48,39  L 48,41  L 52,41  L 52,40  L 54,40  L 54,39  L 59,39  L 59,38  L 62,38  L 62,37  L 66,37  L 66,36  L 77,36  L 77,73  L 78,73  L 78,75  L 81,75  L 81,74  L 82,74  L 82,72  L 83,72  L 83,71  L 84,71  L 84,68  L 83,68  L 83,67  L 84,67  L 84,64  L 83,64  L 83,63  L 84,63  L 84,40  L 83,40  L 83,39  L 84,39  L 84,36  L 83,36  L 83,33  L 84,33  L 84,32  L 83,32  L 83,29  L 84,29  L 84,28  L 83,28  L 83,2  L 82,2  L 82,1  L 81,1  L 81,0  L 79,0  L 79,1  L 78,1  L 78,2  L 77,2  L 77,28  L 73,28  L 73,29  L 65,29  L 65,30  L 62,30  L 62,31  L 59,31  L 59,32  L 57,32  L 57,33  L 54,33  L 54,34  L 50,34  L 50,35  Z  " style="fill:rgb(0, 0, 0); fill-opacity:1.000; stroke:none;" />
 <path d="  M 102,18  L 101,18  L 101,6  L 100,6  L 100,2  L 98,2  L 98,1  L 95,1  L 95,2  L 94,2  L 94,15  L 95,15  L 95,29  L 96,29  L 96,66  L 97,66  L 97,80  L 98,80  L 98,81  L 100,81  L 100,82  L 101,82  L 101,81  L 102,81  Z  " style="fill:rgb(0, 0, 0); fill-opacity:1.000; stroke:none;" />
</svg>
