<?xml version="1.0" encoding="UTF-8" standalone="no"?>
<!DOCTYPE svg PUBLIC "-//W3C//DTD SVG 1.1//EN" 
  "http://www.w3.org/Graphics/SVG/1.1/DTD/svg11.dtd">
<svg width="106" height="112"
     xmlns="http://www.w3.org/2000/svg" version="1.1">
 <path d="  M 1,86  L 3,86  L 3,87  L 5,87  L 5,86  L 6,86  L 6,85  L 7,85  L 7,83  L 8,83  L 8,82  L 9,82  L 9,81  L 10,81  L 10,79  L 11,79  L 11,77  L 12,77  L 12,76  L 13,76  L 13,74  L 14,74  L 14,73  L 15,73  L 15,72  L 16,72  L 16,71  L 17,71  L 17,69  L 18,69  L 18,67  L 19,67  L 19,65  L 20,65  L 20,62  L 21,62  L 21,60  L 22,60  L 22,58  L 23,58  L 23,57  L 24,57  L 24,55  L 25,55  L 25,54  L 26,54  L 26,52  L 27,52  L 27,51  L 28,51  L 28,50  L 31,50  L 31,51  L 32,51  L 32,52  L 33,52  L 33,53  L 34,53  L 34,54  L 35,54  L 35,55  L 36,55  L 36,57  L 37,57  L 37,58  L 39,58  L 39,60  L 40,60  L 40,61  L 41,61  L 41,62  L 43,62  L 43,63  L 44,63  L 44,65  L 45,65  L 45,66  L 46,66  L 46,67  L 47,67  L 47,68  L 48,68  L 48,69  L 49,69  L 49,70  L 50,70  L 50,71  L 51,71  L 51,72  L 52,72  L 52,73  L 54,73  L 54,74  L 55,74  L 55,75  L 56,75  L 56,76  L 57,76  L 57,77  L 58,77  L 58,78  L 59,78  L 59,79  L 60,79  L 60,80  L 62,80  L 62,81  L 64,81  L 64,82  L 67,82  L 67,81  L 68,81  L 68,77  L 67,77  L 67,76  L 66,76  L 66,75  L 65,75  L 65,74  L 64,74  L 64,73  L 63,73  L 63,72  L 62,72  L 62,71  L 60,71  L 60,70  L 59,70  L 59,69  L 57,69  L 57,68  L 56,68  L 56,67  L 55,67  L 55,66  L 54,66  L 54,65  L 53,65  L 53,64  L 52,64  L 52,63  L 51,63  L 51,62  L 50,62  L 50,61  L 49,61  L 49,60  L 48,60  L 48,59  L 47,59  L 47,58  L 46,58  L 46,57  L 45,57  L 45,56  L 44,56  L 44,54  L 43,54  L 43,53  L 42,53  L 42,52  L 41,52  L 41,51  L 40,51  L 40,49  L 39,49  L 39,48  L 38,48  L 38,47  L 37,47  L 37,45  L 36,45  L 36,44  L 34,44  L 34,38  L 35,38  L 35,34  L 36,34  L 36,32  L 37,32  L 37,30  L 38,30  L 38,29  L 39,29  L 39,27  L 40,27  L 40,26  L 41,26  L 41,25  L 40,25  L 40,24  L 41,24  L 41,23  L 42,23  L 42,21  L 43,21  L 43,19  L 44,19  L 44,16  L 45,16  L 45,13  L 46,13  L 46,7  L 45,7  L 45,5  L 41,5  L 41,6  L 40,6  L 40,8  L 39,8  L 39,12  L 38,12  L 38,15  L 37,15  L 37,17  L 36,17  L 36,20  L 35,20  L 35,22  L 34,22  L 34,23  L 33,23  L 33,26  L 32,26  L 32,28  L 31,28  L 31,29  L 30,29  L 30,31  L 29,31  L 29,34  L 28,34  L 28,35  L 27,35  L 27,37  L 26,37  L 26,38  L 25,38  L 25,40  L 24,40  L 24,42  L 23,42  L 23,43  L 22,43  L 22,44  L 21,44  L 21,46  L 20,46  L 20,47  L 19,47  L 19,49  L 17,49  L 17,51  L 16,51  L 16,54  L 15,54  L 15,57  L 14,57  L 14,59  L 13,59  L 13,61  L 12,61  L 12,63  L 11,63  L 11,66  L 9,66  L 9,68  L 8,68  L 8,70  L 7,70  L 7,71  L 6,71  L 6,73  L 5,73  L 5,74  L 4,74  L 4,76  L 3,76  L 3,78  L 2,78  L 2,79  L 1,79  Z  " style="fill:rgb(0, 0, 0); fill-opacity:1.000; stroke:none;" />
 <path d="  M 66,58  L 66,59  L 65,59  L 65,60  L 64,60  L 64,63  L 65,63  L 65,64  L 66,64  L 66,65  L 68,65  L 68,66  L 70,66  L 70,65  L 73,65  L 73,64  L 85,64  L 85,63  L 97,63  L 97,62  L 98,62  L 98,63  L 99,63  L 99,68  L 100,68  L 100,76  L 99,76  L 99,77  L 100,77  L 100,80  L 99,80  L 99,81  L 100,81  L 100,82  L 99,82  L 99,85  L 100,85  L 100,90  L 99,90  L 99,93  L 100,93  L 100,96  L 99,96  L 99,97  L 100,97  L 100,98  L 99,98  L 99,111  L 100,111  L 100,112  L 104,112  L 104,111  L 105,111  L 105,110  L 106,110  L 106,23  L 105,23  L 105,13  L 104,13  L 104,7  L 103,7  L 103,4  L 102,4  L 102,2  L 101,2  L 101,1  L 95,1  L 95,2  L 96,2  L 96,3  L 95,3  L 95,4  L 96,4  L 96,8  L 97,8  L 97,11  L 98,11  L 98,23  L 99,23  L 99,27  L 98,27  L 98,28  L 91,28  L 91,29  L 80,29  L 80,30  L 79,30  L 79,29  L 78,29  L 78,30  L 75,30  L 75,29  L 74,29  L 74,30  L 67,30  L 67,29  L 66,29  L 66,30  L 63,30  L 63,29  L 61,29  L 61,30  L 55,30  L 55,35  L 56,35  L 56,36  L 58,36  L 58,37  L 60,37  L 60,38  L 61,38  L 61,37  L 62,37  L 62,38  L 67,38  L 67,37  L 71,37  L 71,36  L 75,36  L 75,35  L 76,35  L 76,36  L 77,36  L 77,35  L 87,35  L 87,34  L 88,34  L 88,35  L 91,35  L 91,34  L 92,34  L 92,35  L 94,35  L 94,34  L 99,34  L 99,36  L 100,36  L 100,49  L 99,49  L 99,55  L 98,55  L 98,56  L 91,56  L 91,57  L 84,57  L 84,58  L 83,58  L 83,57  L 82,57  L 82,58  L 79,58  L 79,57  L 78,57  L 78,58  Z  " style="fill:rgb(0, 0, 0); fill-opacity:1.000; stroke:none;" />
</svg>
