<?xml version="1.0" encoding="UTF-8" standalone="no"?>
<!DOCTYPE svg PUBLIC "-//W3C//DTD SVG 1.1//EN" 
  "http://www.w3.org/Graphics/SVG/1.1/DTD/svg11.dtd">
<svg width="105" height="154"
     xmlns="http://www.w3.org/2000/svg" version="1.1">
 <path d="  M 38,59  L 38,60  L 39,60  L 39,61  L 40,61  L 40,62  L 41,62  L 41,63  L 43,63  L 43,64  L 44,64  L 44,65  L 45,65  L 45,67  L 47,67  L 47,68  L 48,68  L 48,69  L 49,69  L 49,70  L 50,70  L 50,71  L 53,71  L 53,72  L 55,72  L 55,73  L 57,73  L 57,74  L 58,74  L 58,68  L 57,68  L 57,67  L 56,67  L 56,66  L 55,66  L 55,65  L 53,65  L 53,64  L 52,64  L 52,63  L 51,63  L 51,62  L 50,62  L 50,61  L 49,61  L 49,60  L 48,60  L 48,59  L 46,59  L 46,58  L 45,58  L 45,57  L 44,57  L 44,56  L 43,56  L 43,55  L 42,55  L 42,53  L 41,53  L 41,52  L 40,52  L 40,51  L 39,51  L 39,50  L 38,50  L 38,49  L 37,49  L 37,48  L 36,48  L 36,47  L 35,47  L 35,45  L 34,45  L 34,43  L 33,43  L 33,41  L 32,41  L 32,40  L 31,40  L 31,39  L 32,39  L 32,37  L 33,37  L 33,36  L 34,36  L 34,35  L 33,35  L 33,34  L 34,34  L 34,33  L 35,33  L 35,31  L 36,31  L 36,29  L 37,29  L 37,28  L 38,28  L 38,26  L 39,26  L 39,24  L 40,24  L 40,23  L 41,23  L 41,21  L 42,21  L 42,18  L 43,18  L 43,16  L 44,16  L 44,10  L 43,10  L 43,9  L 39,9  L 39,11  L 38,11  L 38,13  L 37,13  L 37,15  L 36,15  L 36,17  L 35,17  L 35,19  L 34,19  L 34,22  L 33,22  L 33,24  L 32,24  L 32,26  L 31,26  L 31,27  L 30,27  L 30,29  L 29,29  L 29,30  L 28,30  L 28,31  L 27,31  L 27,32  L 26,32  L 26,34  L 25,34  L 25,35  L 24,35  L 24,37  L 22,37  L 22,39  L 21,39  L 21,40  L 20,40  L 20,42  L 19,42  L 19,43  L 18,43  L 18,44  L 17,44  L 17,45  L 16,45  L 16,47  L 15,47  L 15,48  L 14,48  L 14,50  L 13,50  L 13,51  L 12,51  L 12,53  L 11,53  L 11,55  L 10,55  L 10,56  L 9,56  L 9,57  L 8,57  L 8,59  L 7,59  L 7,61  L 6,61  L 6,62  L 5,62  L 5,64  L 4,64  L 4,65  L 3,65  L 3,67  L 2,67  L 2,68  L 1,68  L 1,69  L 0,69  L 0,71  L 1,71  L 1,73  L 3,73  L 3,74  L 8,74  L 8,73  L 9,73  L 9,71  L 10,71  L 10,70  L 11,70  L 11,69  L 12,69  L 12,67  L 13,67  L 13,65  L 14,65  L 14,64  L 15,64  L 15,62  L 16,62  L 16,60  L 17,60  L 17,58  L 18,58  L 18,57  L 19,57  L 19,55  L 20,55  L 20,54  L 21,54  L 21,52  L 22,52  L 22,50  L 24,50  L 24,48  L 28,48  L 28,49  L 29,49  L 29,50  L 30,50  L 30,51  L 31,51  L 31,52  L 32,52  L 32,53  L 33,53  L 33,54  L 34,54  L 34,55  L 35,55  L 35,56  L 36,56  L 36,57  L 37,57  L 37,59  Z  " style="fill:rgb(0, 0, 0); fill-opacity:1.000; stroke:none;" />
 <path d="  M 103,147  L 104,147  L 104,146  L 105,146  L 105,141  L 99,141  L 99,142  L 92,142  L 92,143  L 83,143  L 83,144  L 80,144  L 80,143  L 79,143  L 79,144  L 75,144  L 75,145  L 66,145  L 66,146  L 60,146  L 60,147  L 51,147  L 51,148  L 48,148  L 48,147  L 47,147  L 47,148  L 46,148  L 46,147  L 45,147  L 45,148  L 41,148  L 41,147  L 40,147  L 40,145  L 39,145  L 39,141  L 38,141  L 38,127  L 37,127  L 37,125  L 38,125  L 38,99  L 37,99  L 37,98  L 36,98  L 36,97  L 34,97  L 34,96  L 33,96  L 33,97  L 32,97  L 32,98  L 31,98  L 31,99  L 30,99  L 30,101  L 31,101  L 31,104  L 30,104  L 30,106  L 31,106  L 31,107  L 30,107  L 30,108  L 31,108  L 31,111  L 30,111  L 30,112  L 31,112  L 31,113  L 30,113  L 30,136  L 31,136  L 31,145  L 32,145  L 32,147  L 33,147  L 33,150  L 34,150  L 34,152  L 36,152  L 36,153  L 37,153  L 37,154  L 58,154  L 58,153  L 64,153  L 64,152  L 72,152  L 72,151  L 73,151  L 73,152  L 75,152  L 75,151  L 83,151  L 83,150  L 91,150  L 91,149  L 96,149  L 96,148  L 97,148  L 97,149  L 99,149  L 99,148  L 103,148  Z  " style="fill:rgb(0, 0, 0); fill-opacity:1.000; stroke:none;" />
 <path d="  M 63,30  L 63,29  L 57,29  L 57,30  L 56,30  L 56,31  L 55,31  L 55,33  L 54,33  L 54,34  L 53,34  L 53,35  L 54,35  L 54,39  L 55,39  L 55,40  L 56,40  L 56,39  L 59,39  L 59,38  L 62,38  L 62,37  L 68,37  L 68,36  L 69,36  L 69,37  L 70,37  L 70,36  L 79,36  L 79,35  L 82,35  L 82,36  L 83,36  L 83,35  L 92,35  L 92,36  L 93,36  L 93,40  L 92,40  L 92,48  L 91,48  L 91,49  L 90,49  L 90,48  L 89,48  L 89,49  L 82,49  L 82,50  L 73,50  L 73,51  L 72,51  L 72,50  L 71,50  L 71,51  L 66,51  L 66,52  L 64,52  L 64,53  L 63,53  L 63,54  L 62,54  L 62,56  L 61,56  L 61,58  L 68,58  L 68,57  L 78,57  L 78,56  L 79,56  L 79,57  L 80,57  L 80,56  L 83,56  L 83,57  L 84,57  L 84,56  L 89,56  L 89,55  L 90,55  L 90,56  L 92,56  L 92,59  L 91,59  L 91,60  L 92,60  L 92,65  L 91,65  L 91,66  L 92,66  L 92,69  L 91,69  L 91,70  L 92,70  L 92,90  L 94,90  L 94,91  L 98,91  L 98,90  L 99,90  L 99,45  L 100,45  L 100,29  L 99,29  L 99,13  L 98,13  L 98,3  L 97,3  L 97,2  L 96,2  L 96,0  L 94,0  L 94,1  L 92,1  L 92,3  L 91,3  L 91,14  L 92,14  L 92,27  L 91,27  L 91,28  L 86,28  L 86,29  L 78,29  L 78,30  Z  " style="fill:rgb(0, 0, 0); fill-opacity:1.000; stroke:none;" />
</svg>
