<?xml version="1.0" encoding="UTF-8" standalone="no"?>
<!DOCTYPE svg PUBLIC "-//W3C//DTD SVG 1.1//EN" 
  "http://www.w3.org/Graphics/SVG/1.1/DTD/svg11.dtd">
<svg width="109" height="176"
     xmlns="http://www.w3.org/2000/svg" version="1.1">
 <path d="  M 48,75  L 48,76  L 49,76  L 49,77  L 51,77  L 51,78  L 52,78  L 52,80  L 53,80  L 53,81  L 55,81  L 55,82  L 57,82  L 57,83  L 59,83  L 59,84  L 61,84  L 61,83  L 62,83  L 62,79  L 61,79  L 61,77  L 60,77  L 60,76  L 59,76  L 59,75  L 57,75  L 57,73  L 55,73  L 55,72  L 54,72  L 54,71  L 52,71  L 52,70  L 51,70  L 51,69  L 50,69  L 50,68  L 48,68  L 48,67  L 47,67  L 47,66  L 46,66  L 46,64  L 44,64  L 44,62  L 43,62  L 43,61  L 42,61  L 42,60  L 41,60  L 41,59  L 40,59  L 40,58  L 39,58  L 39,57  L 38,57  L 38,56  L 37,56  L 37,55  L 36,55  L 36,53  L 35,53  L 35,52  L 34,52  L 34,51  L 33,51  L 33,49  L 32,49  L 32,45  L 33,45  L 33,43  L 34,43  L 34,42  L 35,42  L 35,41  L 34,41  L 34,40  L 35,40  L 35,39  L 36,39  L 36,37  L 37,37  L 37,35  L 38,35  L 38,34  L 39,34  L 39,32  L 40,32  L 40,30  L 41,30  L 41,29  L 42,29  L 42,27  L 43,27  L 43,25  L 44,25  L 44,23  L 45,23  L 45,21  L 46,21  L 46,19  L 47,19  L 47,15  L 46,15  L 46,14  L 42,14  L 42,15  L 41,15  L 41,17  L 40,17  L 40,18  L 39,18  L 39,21  L 38,21  L 38,23  L 37,23  L 37,25  L 36,25  L 36,26  L 35,26  L 35,27  L 34,27  L 34,30  L 33,30  L 33,31  L 32,31  L 32,33  L 31,33  L 31,34  L 30,34  L 30,36  L 29,36  L 29,38  L 28,38  L 28,39  L 27,39  L 27,41  L 26,41  L 26,42  L 25,42  L 25,44  L 24,44  L 24,45  L 23,45  L 23,46  L 22,46  L 22,47  L 21,47  L 21,48  L 20,48  L 20,49  L 19,49  L 19,51  L 18,51  L 18,52  L 17,52  L 17,53  L 16,53  L 16,54  L 15,54  L 15,56  L 14,56  L 14,57  L 13,57  L 13,59  L 11,59  L 11,61  L 10,61  L 10,62  L 9,62  L 9,64  L 8,64  L 8,65  L 7,65  L 7,66  L 6,66  L 6,68  L 5,68  L 5,70  L 3,70  L 3,71  L 2,71  L 2,72  L 1,72  L 1,77  L 2,77  L 2,78  L 3,78  L 3,79  L 4,79  L 4,80  L 5,80  L 5,79  L 6,79  L 6,80  L 7,80  L 7,79  L 8,79  L 8,78  L 9,78  L 9,77  L 10,77  L 10,75  L 11,75  L 11,73  L 12,73  L 12,72  L 13,72  L 13,70  L 14,70  L 14,69  L 15,69  L 15,68  L 16,68  L 16,66  L 17,66  L 17,65  L 18,65  L 18,64  L 19,64  L 19,63  L 20,63  L 20,61  L 21,61  L 21,60  L 22,60  L 22,58  L 23,58  L 23,57  L 24,57  L 24,56  L 25,56  L 25,55  L 28,55  L 28,56  L 29,56  L 29,58  L 30,58  L 30,59  L 32,59  L 32,61  L 33,61  L 33,62  L 34,62  L 34,63  L 35,63  L 35,64  L 37,64  L 37,65  L 38,65  L 38,66  L 39,66  L 39,67  L 40,67  L 40,68  L 41,68  L 41,69  L 42,69  L 42,70  L 43,70  L 43,72  L 45,72  L 45,73  L 46,73  L 46,74  L 47,74  L 47,75  Z  " style="fill:rgb(0, 0, 0); fill-opacity:1.000; stroke:none;" />
 <path d="  M 69,116  L 69,117  L 74,117  L 74,118  L 77,118  L 77,119  L 80,119  L 80,120  L 82,120  L 82,121  L 83,121  L 83,122  L 85,122  L 85,123  L 86,123  L 86,124  L 87,124  L 87,127  L 86,127  L 86,128  L 85,128  L 85,129  L 84,129  L 84,130  L 82,130  L 82,131  L 80,131  L 80,132  L 78,132  L 78,133  L 76,133  L 76,134  L 73,134  L 73,135  L 71,135  L 71,136  L 68,136  L 68,137  L 65,137  L 65,138  L 64,138  L 64,139  L 61,139  L 61,140  L 59,140  L 59,141  L 56,141  L 56,142  L 55,142  L 55,143  L 54,143  L 54,144  L 53,144  L 53,143  L 52,143  L 52,144  L 51,144  L 51,145  L 48,145  L 48,146  L 47,146  L 47,147  L 46,147  L 46,148  L 44,148  L 44,149  L 43,149  L 43,151  L 42,151  L 42,153  L 41,153  L 41,154  L 40,154  L 40,157  L 39,157  L 39,162  L 40,162  L 40,164  L 39,164  L 39,165  L 40,165  L 40,168  L 42,168  L 42,172  L 43,172  L 43,173  L 44,173  L 44,174  L 47,174  L 47,176  L 48,176  L 48,175  L 50,175  L 50,176  L 69,176  L 69,175  L 73,175  L 73,174  L 77,174  L 77,173  L 81,173  L 81,172  L 83,172  L 83,171  L 86,171  L 86,170  L 89,170  L 89,169  L 90,169  L 90,168  L 93,168  L 93,167  L 95,167  L 95,166  L 96,166  L 96,165  L 99,165  L 99,164  L 100,164  L 100,163  L 102,163  L 102,162  L 104,162  L 104,161  L 105,161  L 105,160  L 107,160  L 107,159  L 109,159  L 109,152  L 104,152  L 104,153  L 102,153  L 102,154  L 101,154  L 101,155  L 99,155  L 99,156  L 98,156  L 98,157  L 96,157  L 96,158  L 94,158  L 94,159  L 92,159  L 92,160  L 91,160  L 91,161  L 88,161  L 88,162  L 87,162  L 87,163  L 85,163  L 85,164  L 83,164  L 83,165  L 80,165  L 80,166  L 76,166  L 76,167  L 72,167  L 72,168  L 69,168  L 69,169  L 52,169  L 52,168  L 49,168  L 49,167  L 48,167  L 48,166  L 47,166  L 47,158  L 48,158  L 48,155  L 49,155  L 49,154  L 50,154  L 50,153  L 51,153  L 51,152  L 53,152  L 53,151  L 55,151  L 55,150  L 57,150  L 57,149  L 59,149  L 59,148  L 62,148  L 62,147  L 65,147  L 65,146  L 68,146  L 68,145  L 69,145  L 69,144  L 71,144  L 71,143  L 73,143  L 73,142  L 76,142  L 76,141  L 77,141  L 77,140  L 80,140  L 80,139  L 82,139  L 82,138  L 84,138  L 84,137  L 87,137  L 87,136  L 88,136  L 88,135  L 90,135  L 90,134  L 91,134  L 91,133  L 92,133  L 92,132  L 93,132  L 93,131  L 94,131  L 94,130  L 95,130  L 95,128  L 96,128  L 96,124  L 95,124  L 95,121  L 94,121  L 94,120  L 93,120  L 93,119  L 92,119  L 92,117  L 90,117  L 90,116  L 89,116  L 89,115  L 86,115  L 86,114  L 83,114  L 83,113  L 80,113  L 80,112  L 77,112  L 77,111  L 71,111  L 71,110  L 65,110  L 65,109  L 64,109  L 64,110  L 62,110  L 62,109  L 60,109  L 60,110  L 57,110  L 57,109  L 56,109  L 56,110  L 53,110  L 53,109  L 52,109  L 52,110  L 48,110  L 48,111  L 46,111  L 46,112  L 45,112  L 45,113  L 44,113  L 44,115  L 43,115  L 43,117  L 44,117  L 44,118  L 51,118  L 51,117  L 55,117  L 55,116  Z  " style="fill:rgb(0, 0, 0); fill-opacity:1.000; stroke:none;" />
 <path d="  M 57,41  L 58,41  L 58,40  L 57,40  Z  " style="fill:rgb(0, 0, 0); fill-opacity:1.000; stroke:none;" />
 <path d="  M 65,30  L 65,31  L 62,31  L 62,32  L 61,32  L 61,34  L 60,34  L 60,35  L 59,35  L 59,38  L 58,38  L 58,40  L 63,40  L 63,39  L 66,39  L 66,38  L 72,38  L 72,37  L 78,37  L 78,36  L 85,36  L 85,35  L 86,35  L 86,36  L 87,36  L 87,35  L 95,35  L 95,34  L 97,34  L 97,35  L 98,35  L 98,34  L 101,34  L 101,49  L 100,49  L 100,50  L 94,50  L 94,51  L 93,51  L 93,50  L 91,50  L 91,51  L 87,51  L 87,52  L 81,52  L 81,53  L 77,53  L 77,54  L 73,54  L 73,55  L 71,55  L 71,56  L 68,56  L 68,57  L 67,57  L 67,59  L 66,59  L 66,61  L 67,61  L 67,62  L 68,62  L 68,63  L 69,63  L 69,62  L 73,62  L 73,61  L 76,61  L 76,60  L 80,60  L 80,59  L 84,59  L 84,58  L 89,58  L 89,57  L 90,57  L 90,58  L 91,58  L 91,57  L 99,57  L 99,58  L 100,58  L 100,108  L 101,108  L 101,109  L 105,109  L 105,108  L 106,108  L 106,107  L 107,107  L 107,82  L 108,82  L 108,81  L 107,81  L 107,80  L 108,80  L 108,79  L 107,79  L 107,78  L 108,78  L 108,77  L 107,77  L 107,76  L 108,76  L 108,52  L 109,52  L 109,51  L 108,51  L 108,50  L 109,50  L 109,49  L 108,49  L 108,48  L 109,48  L 109,34  L 108,34  L 108,32  L 109,32  L 109,31  L 108,31  L 108,28  L 109,28  L 109,27  L 108,27  L 108,26  L 109,26  L 109,25  L 108,25  L 108,24  L 109,24  L 109,2  L 108,2  L 108,1  L 103,1  L 103,2  L 102,2  L 102,3  L 101,3  L 101,6  L 102,6  L 102,20  L 101,20  L 101,26  L 100,26  L 100,27  L 95,27  L 95,28  L 84,28  L 84,29  L 83,29  L 83,28  L 82,28  L 82,29  L 81,29  L 81,28  L 80,28  L 80,29  L 79,29  L 79,28  L 78,28  L 78,29  L 71,29  L 71,30  Z  " style="fill:rgb(0, 0, 0); fill-opacity:1.000; stroke:none;" />
</svg>
