<?xml version="1.0" encoding="UTF-8" standalone="no"?>
<!DOCTYPE svg PUBLIC "-//W3C//DTD SVG 1.1//EN" 
  "http://www.w3.org/Graphics/SVG/1.1/DTD/svg11.dtd">
<svg width="108" height="172"
     xmlns="http://www.w3.org/2000/svg" version="1.1">
 <path d="  M 43,68  L 44,68  L 44,69  L 46,69  L 46,71  L 48,71  L 48,72  L 50,72  L 50,74  L 52,74  L 52,75  L 54,75  L 54,76  L 56,76  L 56,78  L 58,78  L 58,79  L 60,79  L 60,80  L 63,80  L 63,81  L 64,81  L 64,80  L 65,80  L 65,78  L 64,78  L 64,77  L 63,77  L 63,75  L 62,75  L 62,74  L 61,74  L 61,73  L 60,73  L 60,72  L 59,72  L 59,71  L 58,71  L 58,70  L 57,70  L 57,69  L 55,69  L 55,68  L 53,68  L 53,67  L 52,67  L 52,66  L 51,66  L 51,65  L 49,65  L 49,64  L 48,64  L 48,63  L 47,63  L 47,62  L 46,62  L 46,61  L 45,61  L 45,60  L 44,60  L 44,59  L 43,59  L 43,57  L 41,57  L 41,56  L 40,56  L 40,55  L 39,55  L 39,54  L 38,54  L 38,53  L 37,53  L 37,52  L 36,52  L 36,51  L 35,51  L 35,49  L 34,49  L 34,48  L 33,48  L 33,46  L 32,46  L 32,44  L 33,44  L 33,41  L 34,41  L 34,39  L 35,39  L 35,37  L 36,37  L 36,35  L 37,35  L 37,33  L 38,33  L 38,32  L 39,32  L 39,30  L 40,30  L 40,29  L 41,29  L 41,28  L 42,28  L 42,25  L 43,25  L 43,24  L 44,24  L 44,22  L 45,22  L 45,21  L 46,21  L 46,15  L 45,15  L 45,14  L 41,14  L 41,15  L 40,15  L 40,16  L 39,16  L 39,19  L 38,19  L 38,21  L 37,21  L 37,23  L 36,23  L 36,24  L 35,24  L 35,25  L 34,25  L 34,28  L 33,28  L 33,29  L 32,29  L 32,31  L 31,31  L 31,32  L 30,32  L 30,34  L 29,34  L 29,36  L 28,36  L 28,38  L 27,38  L 27,39  L 26,39  L 26,40  L 25,40  L 25,42  L 24,42  L 24,43  L 23,43  L 23,44  L 22,44  L 22,45  L 21,45  L 21,47  L 20,47  L 20,48  L 19,48  L 19,49  L 18,49  L 18,51  L 17,51  L 17,52  L 16,52  L 16,54  L 15,54  L 15,55  L 14,55  L 14,57  L 13,57  L 13,59  L 12,59  L 12,60  L 11,60  L 11,61  L 10,61  L 10,62  L 9,62  L 9,63  L 8,63  L 8,65  L 7,65  L 7,66  L 6,66  L 6,68  L 5,68  L 5,69  L 4,69  L 4,70  L 3,70  L 3,71  L 2,71  L 2,72  L 1,72  L 1,73  L 0,73  L 0,75  L 1,75  L 1,76  L 2,76  L 2,77  L 3,77  L 3,78  L 8,78  L 8,77  L 9,77  L 9,76  L 10,76  L 10,75  L 11,75  L 11,73  L 12,73  L 12,72  L 13,72  L 13,70  L 14,70  L 14,69  L 15,69  L 15,68  L 16,68  L 16,67  L 17,67  L 17,64  L 18,64  L 18,63  L 19,63  L 19,62  L 20,62  L 20,61  L 21,61  L 21,60  L 22,60  L 22,57  L 23,57  L 23,56  L 24,56  L 24,54  L 25,54  L 25,53  L 29,53  L 29,54  L 30,54  L 30,56  L 32,56  L 32,58  L 33,58  L 33,59  L 34,59  L 34,60  L 36,60  L 36,61  L 37,61  L 37,62  L 38,62  L 38,63  L 39,63  L 39,64  L 40,64  L 40,65  L 41,65  L 41,66  L 42,66  L 42,67  L 43,67  Z  " style="fill:rgb(0, 0, 0); fill-opacity:1.000; stroke:none;" />
 <path d="  M 68,136  L 68,135  L 67,135  L 67,136  L 66,136  L 66,135  L 65,135  L 65,136  L 64,136  L 64,135  L 63,135  L 63,136  L 60,136  L 60,135  L 59,135  L 59,136  L 56,136  L 56,135  L 55,135  L 55,136  L 52,136  L 52,135  L 51,135  L 51,136  L 48,136  L 48,135  L 47,135  L 47,136  L 41,136  L 41,122  L 42,122  L 42,119  L 41,119  L 41,118  L 42,118  L 42,108  L 43,108  L 43,107  L 42,107  L 42,104  L 37,104  L 37,106  L 36,106  L 36,107  L 35,107  L 35,111  L 34,111  L 34,112  L 35,112  L 35,117  L 34,117  L 34,118  L 35,118  L 35,119  L 34,119  L 34,144  L 35,144  L 35,153  L 36,153  L 36,155  L 35,155  L 35,156  L 36,156  L 36,163  L 37,163  L 37,166  L 38,166  L 38,168  L 39,168  L 39,169  L 41,169  L 41,170  L 42,170  L 42,171  L 45,171  L 45,172  L 68,172  L 68,171  L 69,171  L 69,172  L 70,172  L 70,171  L 75,171  L 75,170  L 80,170  L 80,169  L 83,169  L 83,168  L 84,168  L 84,167  L 88,167  L 88,166  L 90,166  L 90,165  L 93,165  L 93,164  L 94,164  L 94,163  L 95,163  L 95,160  L 96,160  L 96,154  L 97,154  L 97,145  L 98,145  L 98,140  L 99,140  L 99,136  L 100,136  L 100,135  L 99,135  L 99,110  L 96,110  L 96,109  L 95,109  L 95,110  L 93,110  L 93,111  L 92,111  L 92,130  L 93,130  L 93,131  L 92,131  L 92,133  L 93,133  L 93,134  L 92,134  L 92,136  L 84,136  L 84,135  L 83,135  L 83,136  L 80,136  L 80,135  L 79,135  L 79,136  L 76,136  L 76,135  L 75,135  L 75,136  L 72,136  L 72,135  L 71,135  L 71,136  L 70,136  L 70,135  L 69,135  L 69,136  Z  M 71,142  L 71,143  L 72,143  L 72,142  L 73,142  L 73,143  L 76,143  L 76,142  L 77,142  L 77,143  L 80,143  L 80,142  L 81,142  L 81,143  L 84,143  L 84,142  L 85,142  L 85,143  L 90,143  L 90,153  L 89,153  L 89,154  L 90,154  L 90,155  L 89,155  L 89,159  L 88,159  L 88,160  L 87,160  L 87,161  L 85,161  L 85,162  L 80,162  L 80,163  L 75,163  L 75,164  L 72,164  L 72,165  L 66,165  L 66,166  L 47,166  L 47,165  L 45,165  L 45,163  L 44,163  L 44,160  L 43,160  L 43,157  L 42,157  L 42,156  L 43,156  L 43,155  L 42,155  L 42,148  L 41,148  L 41,146  L 42,146  L 42,144  L 45,144  L 45,143  L 46,143  L 46,144  L 47,144  L 47,143  L 60,143  L 60,142  L 61,142  L 61,143  L 64,143  L 64,142  L 65,142  L 65,143  L 68,143  L 68,142  L 69,142  L 69,143  L 70,143  L 70,142  Z  " style="fill:rgb(0, 0, 0); fill-opacity:1.000; stroke:none;" />
 <path d="  M 99,34  L 99,33  L 101,33  L 101,34  L 102,34  L 102,41  L 101,41  L 101,42  L 102,42  L 102,45  L 101,45  L 101,47  L 96,47  L 96,48  L 91,48  L 91,49  L 86,49  L 86,50  L 83,50  L 83,51  L 80,51  L 80,52  L 79,52  L 79,53  L 75,53  L 75,54  L 72,54  L 72,55  L 69,55  L 69,56  L 68,56  L 68,57  L 67,57  L 67,59  L 66,59  L 66,60  L 65,60  L 65,64  L 66,64  L 66,63  L 70,63  L 70,62  L 72,62  L 72,61  L 74,61  L 74,60  L 76,60  L 76,59  L 80,59  L 80,58  L 83,58  L 83,57  L 86,57  L 86,56  L 90,56  L 90,55  L 98,55  L 98,54  L 101,54  L 101,59  L 102,59  L 102,60  L 101,60  L 101,102  L 107,102  L 107,101  L 108,101  L 108,2  L 107,2  L 107,1  L 103,1  L 103,0  L 101,0  L 101,1  L 100,1  L 100,5  L 101,5  L 101,22  L 102,22  L 102,25  L 101,25  L 101,26  L 99,26  L 99,27  L 94,27  L 94,28  L 88,28  L 88,29  L 82,29  L 82,30  L 75,30  L 75,31  L 62,31  L 62,32  L 61,32  L 61,33  L 60,33  L 60,34  L 58,34  L 58,36  L 57,36  L 57,37  L 56,37  L 56,39  L 57,39  L 57,41  L 58,41  L 58,40  L 64,40  L 64,39  L 72,39  L 72,38  L 76,38  L 76,37  L 84,37  L 84,36  L 89,36  L 89,35  L 94,35  L 94,34  Z  " style="fill:rgb(0, 0, 0); fill-opacity:1.000; stroke:none;" />
</svg>
