<?xml version="1.0" encoding="UTF-8" standalone="no"?>
<!DOCTYPE svg PUBLIC "-//W3C//DTD SVG 1.1//EN" 
  "http://www.w3.org/Graphics/SVG/1.1/DTD/svg11.dtd">
<svg width="107" height="155"
     xmlns="http://www.w3.org/2000/svg" version="1.1">
 <path d="  M 19,41  L 19,43  L 18,43  L 18,45  L 17,45  L 17,46  L 16,46  L 16,48  L 15,48  L 15,49  L 14,49  L 14,51  L 13,51  L 13,52  L 12,52  L 12,54  L 11,54  L 11,55  L 10,55  L 10,57  L 9,57  L 9,58  L 7,58  L 7,60  L 6,60  L 6,61  L 5,61  L 5,62  L 4,62  L 4,64  L 3,64  L 3,65  L 2,65  L 2,66  L 1,66  L 1,68  L 0,68  L 0,72  L 1,72  L 1,73  L 2,73  L 2,75  L 3,75  L 3,74  L 6,74  L 6,73  L 7,73  L 7,72  L 8,72  L 8,71  L 9,71  L 9,69  L 10,69  L 10,68  L 11,68  L 11,66  L 12,66  L 12,65  L 13,65  L 13,64  L 14,64  L 14,61  L 15,61  L 15,60  L 16,60  L 16,59  L 17,59  L 17,58  L 18,58  L 18,56  L 19,56  L 19,55  L 20,55  L 20,54  L 21,54  L 21,52  L 22,52  L 22,50  L 23,50  L 23,48  L 24,48  L 24,47  L 27,47  L 27,48  L 28,48  L 28,49  L 29,49  L 29,50  L 30,50  L 30,51  L 31,51  L 31,52  L 32,52  L 32,53  L 33,53  L 33,54  L 34,54  L 34,55  L 35,55  L 35,56  L 36,56  L 36,57  L 37,57  L 37,58  L 39,58  L 39,59  L 41,59  L 41,60  L 43,60  L 43,61  L 45,61  L 45,62  L 46,62  L 46,63  L 49,63  L 49,65  L 53,65  L 53,66  L 54,66  L 54,67  L 60,67  L 60,65  L 59,65  L 59,64  L 58,64  L 58,62  L 57,62  L 57,60  L 56,60  L 56,58  L 55,58  L 55,57  L 53,57  L 53,56  L 51,56  L 51,57  L 50,57  L 50,56  L 48,56  L 48,55  L 46,55  L 46,54  L 44,54  L 44,53  L 43,53  L 43,52  L 42,52  L 42,51  L 41,51  L 41,50  L 40,50  L 40,49  L 38,49  L 38,48  L 37,48  L 37,47  L 36,47  L 36,45  L 34,45  L 34,43  L 33,43  L 33,42  L 32,42  L 32,41  L 31,41  L 31,40  L 30,40  L 30,38  L 31,38  L 31,33  L 32,33  L 32,32  L 33,32  L 33,30  L 34,30  L 34,29  L 35,29  L 35,27  L 36,27  L 36,25  L 37,25  L 37,24  L 38,24  L 38,22  L 39,22  L 39,20  L 40,20  L 40,19  L 41,19  L 41,16  L 42,16  L 42,11  L 41,11  L 41,10  L 39,10  L 39,9  L 38,9  L 38,10  L 36,10  L 36,13  L 35,13  L 35,16  L 34,16  L 34,18  L 33,18  L 33,20  L 32,20  L 32,21  L 31,21  L 31,23  L 30,23  L 30,25  L 29,25  L 29,27  L 28,27  L 28,28  L 27,28  L 27,29  L 26,29  L 26,31  L 25,31  L 25,32  L 24,32  L 24,33  L 23,33  L 23,36  L 22,36  L 22,38  L 21,38  L 21,40  L 20,40  L 20,41  Z  " style="fill:rgb(0, 0, 0); fill-opacity:1.000; stroke:none;" />
 <path d="  M 41,142  L 42,142  L 42,141  L 43,141  L 43,139  L 44,139  L 44,138  L 45,138  L 45,136  L 46,136  L 46,134  L 47,134  L 47,133  L 48,133  L 48,132  L 49,132  L 49,130  L 50,130  L 50,128  L 51,128  L 51,127  L 52,127  L 52,125  L 53,125  L 53,123  L 54,123  L 54,122  L 57,122  L 57,123  L 58,123  L 58,124  L 59,124  L 59,125  L 61,125  L 61,126  L 62,126  L 62,128  L 64,128  L 64,129  L 65,129  L 65,130  L 67,130  L 67,131  L 68,131  L 68,132  L 70,132  L 70,133  L 72,133  L 72,134  L 73,134  L 73,135  L 74,135  L 74,136  L 77,136  L 77,138  L 78,138  L 78,137  L 79,137  L 79,139  L 82,139  L 82,140  L 84,140  L 84,141  L 85,141  L 85,142  L 87,142  L 87,143  L 89,143  L 89,144  L 92,144  L 92,145  L 93,145  L 93,146  L 95,146  L 95,147  L 97,147  L 97,148  L 99,148  L 99,149  L 101,149  L 101,150  L 106,150  L 106,149  L 107,149  L 107,145  L 106,145  L 106,144  L 105,144  L 105,143  L 103,143  L 103,142  L 101,142  L 101,141  L 100,141  L 100,140  L 97,140  L 97,139  L 95,139  L 95,138  L 93,138  L 93,137  L 90,137  L 90,136  L 88,136  L 88,135  L 87,135  L 87,134  L 85,134  L 85,133  L 83,133  L 83,132  L 82,132  L 82,131  L 80,131  L 80,130  L 78,130  L 78,129  L 77,129  L 77,128  L 74,128  L 74,127  L 73,127  L 73,126  L 72,126  L 72,125  L 70,125  L 70,124  L 68,124  L 68,123  L 67,123  L 67,122  L 66,122  L 66,121  L 64,121  L 64,120  L 63,120  L 63,119  L 62,119  L 62,118  L 61,118  L 61,116  L 60,116  L 60,114  L 62,114  L 62,113  L 63,113  L 63,111  L 64,111  L 64,110  L 65,110  L 65,108  L 66,108  L 66,107  L 67,107  L 67,105  L 68,105  L 68,103  L 69,103  L 69,101  L 70,101  L 70,98  L 68,98  L 68,97  L 67,97  L 67,96  L 64,96  L 64,97  L 62,97  L 62,100  L 61,100  L 61,102  L 60,102  L 60,103  L 59,103  L 59,105  L 58,105  L 58,107  L 57,107  L 57,108  L 56,108  L 56,110  L 55,110  L 55,111  L 54,111  L 54,113  L 53,113  L 53,114  L 51,114  L 51,116  L 50,116  L 50,118  L 49,118  L 49,119  L 48,119  L 48,120  L 47,120  L 47,122  L 46,122  L 46,123  L 45,123  L 45,124  L 44,124  L 44,126  L 43,126  L 43,128  L 42,128  L 42,129  L 41,129  L 41,131  L 40,131  L 40,132  L 39,132  L 39,133  L 38,133  L 38,135  L 37,135  L 37,137  L 36,137  L 36,138  L 35,138  L 35,140  L 34,140  L 34,141  L 33,141  L 33,142  L 32,142  L 32,143  L 31,143  L 31,144  L 30,144  L 30,145  L 29,145  L 29,146  L 28,146  L 28,147  L 27,147  L 27,149  L 26,149  L 26,150  L 25,150  L 25,154  L 26,154  L 26,155  L 30,155  L 30,154  L 32,154  L 32,153  L 33,153  L 33,151  L 34,151  L 34,150  L 35,150  L 35,149  L 36,149  L 36,148  L 37,148  L 37,146  L 39,146  L 39,144  L 40,144  L 40,143  L 41,143  Z  " style="fill:rgb(0, 0, 0); fill-opacity:1.000; stroke:none;" />
 <path d="  M 92,72  L 92,73  L 93,73  L 93,83  L 94,83  L 94,94  L 95,94  L 95,96  L 98,96  L 98,95  L 99,95  L 99,94  L 100,94  L 100,93  L 101,93  L 101,83  L 100,83  L 100,70  L 99,70  L 99,69  L 100,69  L 100,68  L 99,68  L 99,67  L 100,67  L 100,66  L 99,66  L 99,65  L 100,65  L 100,64  L 99,64  L 99,63  L 100,63  L 100,62  L 99,62  L 99,40  L 98,40  L 98,38  L 99,38  L 99,36  L 98,36  L 98,33  L 99,33  L 99,32  L 98,32  L 98,29  L 99,29  L 99,28  L 98,28  L 98,17  L 97,17  L 97,15  L 98,15  L 98,14  L 97,14  L 97,11  L 98,11  L 98,10  L 97,10  L 97,9  L 98,9  L 98,4  L 97,4  L 97,1  L 95,1  L 95,0  L 93,0  L 93,1  L 92,1  L 92,3  L 91,3  L 91,19  L 90,19  L 90,20  L 86,20  L 86,21  L 81,21  L 81,22  L 74,22  L 74,23  L 73,23  L 73,22  L 72,22  L 72,23  L 66,23  L 66,24  L 59,24  L 59,25  L 56,25  L 56,26  L 54,26  L 54,27  L 53,27  L 53,29  L 52,29  L 52,31  L 51,31  L 51,35  L 54,35  L 54,34  L 56,34  L 56,33  L 57,33  L 57,32  L 61,32  L 61,31  L 65,31  L 65,30  L 66,30  L 66,31  L 67,31  L 67,30  L 71,30  L 71,29  L 72,29  L 72,30  L 73,30  L 73,29  L 79,29  L 79,28  L 87,28  L 87,27  L 91,27  L 91,29  L 92,29  L 92,41  L 91,41  L 91,42  L 84,42  L 84,43  L 80,43  L 80,44  L 79,44  L 79,43  L 77,43  L 77,44  L 75,44  L 75,45  L 69,45  L 69,46  L 65,46  L 65,47  L 61,47  L 61,48  L 59,48  L 59,49  L 58,49  L 58,51  L 57,51  L 57,53  L 58,53  L 58,54  L 62,54  L 62,53  L 66,53  L 66,52  L 72,52  L 72,51  L 79,51  L 79,50  L 87,50  L 87,49  L 91,49  L 91,50  L 92,50  L 92,67  L 93,67  L 93,68  L 92,68  L 92,69  L 93,69  L 93,72  Z  " style="fill:rgb(0, 0, 0); fill-opacity:1.000; stroke:none;" />
</svg>
