<?xml version="1.0" encoding="UTF-8" standalone="no"?>
<!DOCTYPE svg PUBLIC "-//W3C//DTD SVG 1.1//EN" 
  "http://www.w3.org/Graphics/SVG/1.1/DTD/svg11.dtd">
<svg width="106" height="103"
     xmlns="http://www.w3.org/2000/svg" version="1.1">
 <path d="  M 49,63  L 49,62  L 47,62  L 47,61  L 45,61  L 45,60  L 44,60  L 44,59  L 43,59  L 43,58  L 42,58  L 42,57  L 41,57  L 41,56  L 40,56  L 40,55  L 39,55  L 39,53  L 38,53  L 38,52  L 37,52  L 37,51  L 36,51  L 36,50  L 35,50  L 35,48  L 33,48  L 33,46  L 32,46  L 32,44  L 31,44  L 31,42  L 30,42  L 30,39  L 31,39  L 31,38  L 32,38  L 32,36  L 33,36  L 33,34  L 34,34  L 34,33  L 35,33  L 35,31  L 36,31  L 36,29  L 37,29  L 37,27  L 38,27  L 38,25  L 39,25  L 39,22  L 40,22  L 40,19  L 41,19  L 41,15  L 39,15  L 39,16  L 37,16  L 37,17  L 36,17  L 36,18  L 35,18  L 35,21  L 34,21  L 34,22  L 33,22  L 33,24  L 32,24  L 32,25  L 31,25  L 31,26  L 30,26  L 30,28  L 29,28  L 29,29  L 28,29  L 28,30  L 27,30  L 27,32  L 26,32  L 26,34  L 25,34  L 25,35  L 24,35  L 24,36  L 23,36  L 23,38  L 22,38  L 22,40  L 21,40  L 21,42  L 20,42  L 20,45  L 19,45  L 19,47  L 18,47  L 18,48  L 17,48  L 17,51  L 16,51  L 16,53  L 15,53  L 15,54  L 14,54  L 14,56  L 13,56  L 13,58  L 12,58  L 12,60  L 11,60  L 11,62  L 10,62  L 10,63  L 9,63  L 9,64  L 8,64  L 8,66  L 7,66  L 7,68  L 6,68  L 6,69  L 5,69  L 5,70  L 4,70  L 4,72  L 3,72  L 3,73  L 2,73  L 2,74  L 1,74  L 1,75  L 0,75  L 0,76  L 1,76  L 1,77  L 0,77  L 0,81  L 2,81  L 2,82  L 3,82  L 3,83  L 5,83  L 5,82  L 6,82  L 6,81  L 7,81  L 7,78  L 8,78  L 8,77  L 9,77  L 9,76  L 10,76  L 10,74  L 11,74  L 11,73  L 12,73  L 12,71  L 13,71  L 13,69  L 14,69  L 14,68  L 15,68  L 15,66  L 16,66  L 16,65  L 17,65  L 17,63  L 18,63  L 18,62  L 19,62  L 19,60  L 20,60  L 20,59  L 21,59  L 21,57  L 22,57  L 22,54  L 23,54  L 23,50  L 24,50  L 24,49  L 27,49  L 27,50  L 28,50  L 28,52  L 29,52  L 29,53  L 30,53  L 30,54  L 31,54  L 31,55  L 32,55  L 32,56  L 33,56  L 33,57  L 34,57  L 34,58  L 35,58  L 35,59  L 36,59  L 36,60  L 37,60  L 37,61  L 38,61  L 38,62  L 39,62  L 39,63  L 40,63  L 40,64  L 42,64  L 42,66  L 44,66  L 44,68  L 46,68  L 46,70  L 48,70  L 48,71  L 50,71  L 50,73  L 52,73  L 52,74  L 54,74  L 54,75  L 60,75  L 60,74  L 61,74  L 61,72  L 60,72  L 60,71  L 59,71  L 59,70  L 58,70  L 58,69  L 57,69  L 57,68  L 55,68  L 55,67  L 54,67  L 54,66  L 52,66  L 52,65  L 51,65  L 51,64  L 50,64  L 50,63  Z  " style="fill:rgb(0, 0, 0); fill-opacity:1.000; stroke:none;" />
 <path d="  M 63,30  L 63,31  L 62,31  L 62,30  L 61,30  L 61,31  L 58,31  L 58,30  L 57,30  L 57,31  L 56,31  L 56,32  L 55,32  L 55,35  L 56,35  L 56,37  L 58,37  L 58,36  L 72,36  L 72,35  L 75,35  L 75,36  L 79,36  L 79,48  L 77,48  L 77,49  L 74,49  L 74,48  L 73,48  L 73,49  L 66,49  L 66,50  L 60,50  L 60,51  L 55,51  L 55,53  L 54,53  L 54,56  L 55,56  L 55,57  L 57,57  L 57,56  L 61,56  L 61,55  L 66,55  L 66,54  L 67,54  L 67,55  L 68,55  L 68,54  L 76,54  L 76,55  L 79,55  L 79,73  L 78,73  L 78,88  L 77,88  L 77,89  L 78,89  L 78,90  L 77,90  L 77,91  L 78,91  L 78,93  L 83,93  L 83,92  L 84,92  L 84,89  L 85,89  L 85,75  L 86,75  L 86,74  L 85,74  L 85,73  L 86,73  L 86,70  L 85,70  L 85,69  L 86,69  L 86,28  L 85,28  L 85,27  L 86,27  L 86,26  L 85,26  L 85,8  L 84,8  L 84,7  L 79,7  L 79,8  L 78,8  L 78,9  L 79,9  L 79,11  L 78,11  L 78,12  L 79,12  L 79,14  L 78,14  L 78,29  L 75,29  L 75,30  Z  " style="fill:rgb(0, 0, 0); fill-opacity:1.000; stroke:none;" />
 <path d="  M 101,28  L 100,28  L 100,29  L 101,29  L 101,32  L 100,32  L 100,33  L 101,33  L 101,35  L 100,35  L 100,37  L 101,37  L 101,39  L 100,39  L 100,41  L 101,41  L 101,43  L 100,43  L 100,46  L 101,46  L 101,47  L 100,47  L 100,102  L 101,102  L 101,103  L 106,103  L 106,2  L 105,2  L 105,1  L 104,1  L 104,0  L 103,0  L 103,1  L 102,1  L 102,0  L 101,0  L 101,1  L 100,1  L 100,3  L 99,3  L 99,5  L 100,5  L 100,6  L 99,6  L 99,7  L 100,7  L 100,18  L 101,18  L 101,19  L 100,19  L 100,22  L 101,22  L 101,24  L 100,24  L 100,25  L 101,25  Z  " style="fill:rgb(0, 0, 0); fill-opacity:1.000; stroke:none;" />
</svg>
