<?xml version="1.0" encoding="UTF-8" standalone="no"?>
<!DOCTYPE svg PUBLIC "-//W3C//DTD SVG 1.1//EN" 
  "http://www.w3.org/Graphics/SVG/1.1/DTD/svg11.dtd">
<svg width="105" height="143"
     xmlns="http://www.w3.org/2000/svg" version="1.1">
 <path d="  M 11,60  L 12,60  L 12,59  L 13,59  L 13,57  L 14,57  L 14,56  L 15,56  L 15,55  L 16,55  L 16,53  L 17,53  L 17,52  L 18,52  L 18,51  L 19,51  L 19,49  L 20,49  L 20,47  L 21,47  L 21,46  L 22,46  L 22,47  L 24,47  L 24,48  L 25,48  L 25,49  L 26,49  L 26,51  L 28,51  L 28,52  L 29,52  L 29,53  L 30,53  L 30,55  L 32,55  L 32,56  L 33,56  L 33,57  L 34,57  L 34,60  L 37,60  L 37,61  L 38,61  L 38,62  L 39,62  L 39,63  L 41,63  L 41,64  L 43,64  L 43,65  L 44,65  L 44,66  L 45,66  L 45,67  L 46,67  L 46,68  L 50,68  L 50,67  L 51,67  L 51,66  L 53,66  L 53,65  L 54,65  L 54,63  L 52,63  L 52,61  L 51,61  L 51,60  L 50,60  L 50,59  L 49,59  L 49,58  L 48,58  L 48,57  L 46,57  L 46,58  L 45,58  L 45,57  L 43,57  L 43,56  L 42,56  L 42,55  L 41,55  L 41,54  L 40,54  L 40,53  L 39,53  L 39,52  L 38,52  L 38,51  L 37,51  L 37,50  L 36,50  L 36,49  L 34,49  L 34,48  L 33,48  L 33,47  L 32,47  L 32,46  L 31,46  L 31,44  L 30,44  L 30,42  L 29,42  L 29,40  L 27,40  L 27,39  L 26,39  L 26,35  L 27,35  L 27,34  L 29,34  L 29,31  L 30,31  L 30,30  L 33,30  L 33,29  L 34,29  L 34,26  L 36,26  L 36,24  L 37,24  L 37,22  L 38,22  L 38,21  L 39,21  L 39,19  L 40,19  L 40,18  L 41,18  L 41,17  L 42,17  L 42,15  L 43,15  L 43,14  L 44,14  L 44,13  L 45,13  L 45,11  L 46,11  L 46,9  L 47,9  L 47,6  L 44,6  L 44,7  L 41,7  L 41,8  L 39,8  L 39,9  L 38,9  L 38,10  L 37,10  L 37,12  L 35,12  L 35,14  L 34,14  L 34,16  L 33,16  L 33,18  L 32,18  L 32,20  L 31,20  L 31,21  L 30,21  L 30,22  L 29,22  L 29,23  L 28,23  L 28,24  L 27,24  L 27,25  L 26,25  L 26,26  L 25,26  L 25,27  L 24,27  L 24,28  L 22,28  L 22,30  L 21,30  L 21,32  L 20,32  L 20,34  L 19,34  L 19,35  L 18,35  L 18,37  L 17,37  L 17,40  L 16,40  L 16,41  L 15,41  L 15,42  L 14,42  L 14,44  L 13,44  L 13,46  L 12,46  L 12,48  L 11,48  L 11,49  L 10,49  L 10,51  L 9,51  L 9,53  L 8,53  L 8,54  L 6,54  L 6,56  L 5,56  L 5,57  L 4,57  L 4,59  L 3,59  L 3,60  L 2,60  L 2,61  L 1,61  L 1,67  L 2,67  L 2,68  L 4,68  L 4,69  L 6,69  L 6,68  L 7,68  L 7,67  L 8,67  L 8,66  L 9,66  L 9,65  L 10,65  L 10,62  L 11,62  Z  " style="fill:rgb(0, 0, 0); fill-opacity:1.000; stroke:none;" />
 <path d="  M 97,110  L 97,115  L 96,115  L 96,119  L 95,119  L 95,120  L 94,120  L 94,123  L 93,123  L 93,124  L 92,124  L 92,126  L 91,126  L 91,127  L 90,127  L 90,128  L 89,128  L 89,129  L 88,129  L 88,130  L 87,130  L 87,131  L 85,131  L 85,132  L 84,132  L 84,133  L 81,133  L 81,134  L 78,134  L 78,135  L 77,135  L 77,136  L 74,136  L 74,137  L 72,137  L 72,136  L 71,136  L 71,137  L 52,137  L 52,136  L 47,136  L 47,135  L 45,135  L 45,134  L 44,134  L 44,133  L 42,133  L 42,132  L 41,132  L 41,131  L 40,131  L 40,129  L 39,129  L 39,119  L 40,119  L 40,116  L 41,116  L 41,114  L 42,114  L 42,112  L 43,112  L 43,110  L 44,110  L 44,109  L 45,109  L 45,108  L 46,108  L 46,106  L 48,106  L 48,105  L 49,105  L 49,104  L 50,104  L 50,103  L 51,103  L 51,102  L 53,102  L 53,101  L 54,101  L 54,100  L 56,100  L 56,99  L 59,99  L 59,98  L 62,98  L 62,97  L 65,97  L 65,96  L 71,96  L 71,95  L 72,95  L 72,96  L 74,96  L 74,95  L 78,95  L 78,96  L 85,96  L 85,97  L 86,97  L 86,96  L 87,96  L 87,97  L 91,97  L 91,98  L 93,98  L 93,99  L 94,99  L 94,100  L 95,100  L 95,101  L 96,101  L 96,103  L 97,103  L 97,105  L 98,105  L 98,106  L 97,106  L 97,107  L 98,107  L 98,110  Z  M 49,93  L 49,94  L 48,94  L 48,96  L 45,96  L 45,97  L 44,97  L 44,98  L 42,98  L 42,100  L 41,100  L 41,101  L 40,101  L 40,102  L 39,102  L 39,104  L 38,104  L 38,106  L 37,106  L 37,109  L 36,109  L 36,111  L 35,111  L 35,113  L 34,113  L 34,116  L 33,116  L 33,118  L 32,118  L 32,129  L 33,129  L 33,133  L 34,133  L 34,135  L 36,135  L 36,138  L 38,138  L 38,139  L 40,139  L 40,140  L 41,140  L 41,141  L 44,141  L 44,142  L 46,142  L 46,143  L 78,143  L 78,142  L 80,142  L 80,141  L 83,141  L 83,140  L 85,140  L 85,139  L 87,139  L 87,138  L 89,138  L 89,137  L 90,137  L 90,136  L 92,136  L 92,135  L 93,135  L 93,134  L 94,134  L 94,133  L 95,133  L 95,132  L 96,132  L 96,131  L 97,131  L 97,129  L 98,129  L 98,128  L 99,128  L 99,127  L 100,127  L 100,125  L 101,125  L 101,123  L 102,123  L 102,121  L 103,121  L 103,116  L 104,116  L 104,112  L 105,112  L 105,98  L 104,98  L 104,97  L 103,97  L 103,96  L 102,96  L 102,95  L 101,95  L 101,94  L 100,94  L 100,93  L 98,93  L 98,92  L 97,92  L 97,91  L 95,91  L 95,90  L 90,90  L 90,89  L 85,89  L 85,88  L 84,88  L 84,89  L 81,89  L 81,88  L 71,88  L 71,89  L 70,89  L 70,88  L 67,88  L 67,89  L 63,89  L 63,90  L 57,90  L 57,91  L 55,91  L 55,92  L 52,92  L 52,93  Z  " style="fill:rgb(0, 0, 0); fill-opacity:1.000; stroke:none;" />
 <path d="  M 84,75  L 84,57  L 85,57  L 85,56  L 84,56  L 84,46  L 83,46  L 83,45  L 84,45  L 84,9  L 85,9  L 85,8  L 84,8  L 84,5  L 85,5  L 85,4  L 84,4  L 84,1  L 83,1  L 83,0  L 80,0  L 80,1  L 79,1  L 79,2  L 78,2  L 78,18  L 77,18  L 77,20  L 76,20  L 76,21  L 70,21  L 70,22  L 62,22  L 62,23  L 55,23  L 55,24  L 53,24  L 53,25  L 51,25  L 51,24  L 50,24  L 50,25  L 48,25  L 48,27  L 47,27  L 47,30  L 48,30  L 48,32  L 53,32  L 53,31  L 56,31  L 56,30  L 59,30  L 59,29  L 65,29  L 65,28  L 66,28  L 66,29  L 67,29  L 67,28  L 78,28  L 78,34  L 77,34  L 77,38  L 72,38  L 72,39  L 65,39  L 65,40  L 59,40  L 59,41  L 57,41  L 57,42  L 54,42  L 54,43  L 51,43  L 51,44  L 50,44  L 50,46  L 49,46  L 49,47  L 48,47  L 48,49  L 49,49  L 49,50  L 52,50  L 52,49  L 55,49  L 55,48  L 59,48  L 59,47  L 62,47  L 62,46  L 67,46  L 67,45  L 76,45  L 76,46  L 77,46  L 77,73  L 78,73  L 78,75  L 79,75  L 79,76  L 81,76  L 81,75  Z  " style="fill:rgb(0, 0, 0); fill-opacity:1.000; stroke:none;" />
 <path d="  M 94,21  L 95,21  L 95,22  L 94,22  L 94,25  L 95,25  L 95,27  L 94,27  L 94,29  L 95,29  L 95,57  L 96,57  L 96,79  L 97,79  L 97,80  L 98,80  L 98,81  L 102,81  L 102,79  L 103,79  L 103,60  L 102,60  L 102,59  L 103,59  L 103,58  L 102,58  L 102,57  L 103,57  L 103,56  L 102,56  L 102,49  L 103,49  L 103,48  L 102,48  L 102,24  L 101,24  L 101,21  L 102,21  L 102,20  L 101,20  L 101,17  L 102,17  L 102,16  L 101,16  L 101,7  L 100,7  L 100,6  L 99,6  L 99,5  L 94,5  Z  " style="fill:rgb(0, 0, 0); fill-opacity:1.000; stroke:none;" />
</svg>
