<?xml version="1.0" encoding="UTF-8" standalone="no"?>
<!DOCTYPE svg PUBLIC "-//W3C//DTD SVG 1.1//EN" 
  "http://www.w3.org/Graphics/SVG/1.1/DTD/svg11.dtd">
<svg width="101" height="157"
     xmlns="http://www.w3.org/2000/svg" version="1.1">
 <path d="  M 54,54  L 55,54  L 55,48  L 54,48  L 54,47  L 52,47  L 52,48  L 50,48  L 50,49  L 49,49  L 49,51  L 48,51  L 48,80  L 47,80  L 47,81  L 41,81  L 41,82  L 38,82  L 38,81  L 37,81  L 37,82  L 33,82  L 33,83  L 23,83  L 23,84  L 22,84  L 22,83  L 19,83  L 19,84  L 18,84  L 18,83  L 17,83  L 17,84  L 4,84  L 4,85  L 1,85  L 1,87  L 0,87  L 0,89  L 1,89  L 1,90  L 2,90  L 2,91  L 4,91  L 4,92  L 8,92  L 8,91  L 15,91  L 15,90  L 29,90  L 29,89  L 30,89  L 30,90  L 31,90  L 31,89  L 38,89  L 38,88  L 45,88  L 45,87  L 54,87  L 54,86  L 66,86  L 66,85  L 68,85  L 68,86  L 69,86  L 69,85  L 72,85  L 72,86  L 73,86  L 73,85  L 79,85  L 79,84  L 80,84  L 80,85  L 82,85  L 82,84  L 84,84  L 84,86  L 85,86  L 85,85  L 86,85  L 86,84  L 89,84  L 89,85  L 90,85  L 90,84  L 92,84  L 92,85  L 94,85  L 94,84  L 98,84  L 98,83  L 100,83  L 100,81  L 101,81  L 101,78  L 100,78  L 100,77  L 87,77  L 87,78  L 86,78  L 86,77  L 85,77  L 85,78  L 82,78  L 82,77  L 81,77  L 81,78  L 71,78  L 71,79  L 55,79  L 55,77  L 54,77  L 54,72  L 55,72  L 55,71  L 54,71  Z  " style="fill:rgb(0, 0, 0); fill-opacity:1.000; stroke:none;" />
 <path d="  M 12,129  L 12,130  L 3,130  L 3,132  L 2,132  L 2,133  L 1,133  L 1,137  L 0,137  L 0,140  L 1,140  L 1,141  L 0,141  L 0,142  L 1,142  L 1,148  L 2,148  L 2,151  L 3,151  L 3,153  L 4,153  L 4,154  L 5,154  L 5,155  L 6,155  L 6,156  L 8,156  L 8,157  L 41,157  L 41,156  L 46,156  L 46,155  L 52,155  L 52,154  L 55,154  L 55,153  L 57,153  L 57,152  L 58,152  L 58,149  L 57,149  L 57,148  L 56,148  L 56,145  L 52,145  L 52,146  L 51,146  L 51,147  L 49,147  L 49,148  L 46,148  L 46,149  L 41,149  L 41,150  L 29,150  L 29,151  L 28,151  L 28,150  L 26,150  L 26,151  L 12,151  L 12,150  L 9,150  L 9,149  L 8,149  L 8,147  L 7,147  L 7,140  L 8,140  L 8,137  L 10,137  L 10,136  L 12,136  L 12,135  L 13,135  L 13,136  L 14,136  L 14,135  L 17,135  L 17,134  L 21,134  L 21,133  L 23,133  L 23,132  L 27,132  L 27,131  L 30,131  L 30,130  L 33,130  L 33,129  L 37,129  L 37,128  L 38,128  L 38,127  L 39,127  L 39,126  L 40,126  L 40,124  L 41,124  L 41,123  L 43,123  L 43,122  L 44,122  L 44,119  L 45,119  L 45,112  L 44,112  L 44,111  L 43,111  L 43,110  L 42,110  L 42,109  L 41,109  L 41,108  L 40,108  L 40,107  L 38,107  L 38,106  L 36,106  L 36,105  L 35,105  L 35,104  L 32,104  L 32,103  L 27,103  L 27,102  L 23,102  L 23,103  L 16,103  L 16,104  L 14,104  L 14,103  L 13,103  L 13,104  L 6,104  L 6,105  L 4,105  L 4,106  L 3,106  L 3,110  L 4,110  L 4,111  L 3,111  L 3,112  L 4,112  L 4,116  L 6,116  L 6,117  L 7,117  L 7,115  L 8,115  L 8,113  L 10,113  L 10,112  L 12,112  L 12,111  L 14,111  L 14,110  L 18,110  L 18,109  L 22,109  L 22,108  L 23,108  L 23,109  L 24,109  L 24,108  L 26,108  L 26,109  L 30,109  L 30,110  L 32,110  L 32,111  L 34,111  L 34,112  L 36,112  L 36,113  L 37,113  L 37,115  L 38,115  L 38,116  L 37,116  L 37,119  L 36,119  L 36,120  L 35,120  L 35,122  L 34,122  L 34,123  L 32,123  L 32,124  L 29,124  L 29,125  L 25,125  L 25,126  L 22,126  L 22,127  L 20,127  L 20,128  L 16,128  L 16,129  Z  " style="fill:rgb(0, 0, 0); fill-opacity:1.000; stroke:none;" />
 <path d="  M 82,26  L 78,26  L 78,25  L 75,25  L 75,24  L 72,24  L 72,23  L 68,23  L 68,22  L 67,22  L 67,21  L 64,21  L 64,20  L 61,20  L 61,19  L 59,19  L 59,18  L 58,18  L 58,17  L 57,17  L 57,16  L 56,16  L 56,15  L 55,15  L 55,14  L 53,14  L 53,12  L 52,12  L 52,10  L 51,10  L 51,7  L 50,7  L 50,4  L 49,4  L 49,2  L 48,2  L 48,1  L 47,1  L 47,0  L 46,0  L 46,1  L 45,1  L 45,2  L 44,2  L 44,3  L 43,3  L 43,5  L 42,5  L 42,7  L 41,7  L 41,9  L 40,9  L 40,10  L 39,10  L 39,11  L 38,11  L 38,13  L 37,13  L 37,14  L 36,14  L 36,15  L 35,15  L 35,17  L 34,17  L 34,18  L 33,18  L 33,19  L 32,19  L 32,21  L 31,21  L 31,22  L 30,22  L 30,25  L 29,25  L 29,26  L 28,26  L 28,27  L 27,27  L 27,29  L 26,29  L 26,31  L 25,31  L 25,32  L 24,32  L 24,33  L 23,33  L 23,35  L 22,35  L 22,36  L 21,36  L 21,37  L 20,37  L 20,38  L 19,38  L 19,39  L 18,39  L 18,40  L 16,40  L 16,41  L 14,41  L 14,43  L 13,43  L 13,44  L 12,44  L 12,45  L 11,45  L 11,46  L 10,46  L 10,47  L 9,47  L 9,48  L 8,48  L 8,49  L 7,49  L 7,51  L 6,51  L 6,55  L 7,55  L 7,56  L 10,56  L 10,57  L 12,57  L 12,56  L 13,56  L 13,55  L 14,55  L 14,54  L 15,54  L 15,52  L 16,52  L 16,51  L 17,51  L 17,49  L 18,49  L 18,48  L 19,48  L 19,47  L 20,47  L 20,45  L 22,45  L 22,44  L 24,44  L 24,43  L 25,43  L 25,41  L 27,41  L 27,40  L 28,40  L 28,39  L 29,39  L 29,38  L 30,38  L 30,36  L 31,36  L 31,34  L 32,34  L 32,33  L 33,33  L 33,31  L 34,31  L 34,30  L 35,30  L 35,28  L 36,28  L 36,27  L 38,27  L 38,25  L 39,25  L 39,24  L 40,24  L 40,21  L 41,21  L 41,20  L 42,20  L 42,19  L 43,19  L 43,18  L 46,18  L 46,19  L 45,19  L 45,20  L 47,20  L 47,21  L 50,21  L 50,22  L 51,22  L 51,23  L 53,23  L 53,24  L 55,24  L 55,25  L 57,25  L 57,26  L 59,26  L 59,27  L 60,27  L 60,26  L 61,26  L 61,27  L 63,27  L 63,28  L 66,28  L 66,29  L 71,29  L 71,30  L 74,30  L 74,31  L 77,31  L 77,32  L 79,32  L 79,33  L 81,33  L 81,34  L 82,34  L 82,35  L 83,35  L 83,36  L 85,36  L 85,38  L 86,38  L 86,39  L 91,39  L 91,38  L 92,38  L 92,37  L 93,37  L 93,34  L 92,34  L 92,33  L 91,33  L 91,32  L 89,32  L 89,31  L 88,31  L 88,30  L 87,30  L 87,29  L 86,29  L 86,28  L 84,28  L 84,27  L 82,27  Z  " style="fill:rgb(0, 0, 0); fill-opacity:1.000; stroke:none;" />
 <path d="  M 95,148  L 95,146  L 96,146  L 96,145  L 95,145  L 95,143  L 96,143  L 96,140  L 97,140  L 97,135  L 98,135  L 98,132  L 99,132  L 99,127  L 100,127  L 100,124  L 101,124  L 101,111  L 100,111  L 100,109  L 99,109  L 99,107  L 98,107  L 98,106  L 97,106  L 97,105  L 82,105  L 82,104  L 80,104  L 80,105  L 77,105  L 77,104  L 76,104  L 76,105  L 74,105  L 74,104  L 72,104  L 72,105  L 69,105  L 69,104  L 68,104  L 68,105  L 59,105  L 59,106  L 57,106  L 57,107  L 56,107  L 56,109  L 55,109  L 55,110  L 56,110  L 56,111  L 57,111  L 57,130  L 58,130  L 58,135  L 59,135  L 59,139  L 60,139  L 60,143  L 61,143  L 61,144  L 60,144  L 60,147  L 61,147  L 61,148  L 60,148  L 60,149  L 61,149  L 61,150  L 60,150  L 60,153  L 61,153  L 61,154  L 62,154  L 62,155  L 63,155  L 63,156  L 65,156  L 65,157  L 66,157  L 66,156  L 67,156  L 67,157  L 69,157  L 69,156  L 70,156  L 70,157  L 73,157  L 73,156  L 75,156  L 75,157  L 76,157  L 76,156  L 86,156  L 86,155  L 89,155  L 89,154  L 90,154  L 90,153  L 92,153  L 92,151  L 93,151  L 93,150  L 94,150  L 94,148  Z  M 65,131  L 64,131  L 64,121  L 63,121  L 63,120  L 64,120  L 64,114  L 65,114  L 65,113  L 67,113  L 67,112  L 78,112  L 78,111  L 79,111  L 79,112  L 93,112  L 93,113  L 94,113  L 94,118  L 93,118  L 93,129  L 92,129  L 92,134  L 91,134  L 91,136  L 90,136  L 90,140  L 89,140  L 89,143  L 88,143  L 88,147  L 87,147  L 87,148  L 86,148  L 86,149  L 84,149  L 84,150  L 82,150  L 82,149  L 81,149  L 81,150  L 71,150  L 71,151  L 70,151  L 70,150  L 69,150  L 69,151  L 68,151  L 68,150  L 67,150  L 67,149  L 66,149  L 66,139  L 65,139  Z  " style="fill:rgb(0, 0, 0); fill-opacity:1.000; stroke:none;" />
</svg>
