<?xml version="1.0" encoding="UTF-8" standalone="no"?>
<!DOCTYPE svg PUBLIC "-//W3C//DTD SVG 1.1//EN" 
  "http://www.w3.org/Graphics/SVG/1.1/DTD/svg11.dtd">
<svg width="104" height="168"
     xmlns="http://www.w3.org/2000/svg" version="1.1">
 <path d="  M 55,52  L 49,52  L 49,53  L 48,53  L 48,85  L 47,85  L 47,86  L 37,86  L 37,87  L 36,87  L 36,86  L 35,86  L 35,87  L 30,87  L 30,88  L 29,88  L 29,87  L 28,87  L 28,88  L 23,88  L 23,89  L 13,89  L 13,90  L 3,90  L 3,91  L 2,91  L 2,92  L 1,92  L 1,93  L 0,93  L 0,94  L 1,94  L 1,96  L 2,96  L 2,97  L 3,97  L 3,98  L 5,98  L 5,97  L 8,97  L 8,98  L 9,98  L 9,97  L 19,97  L 19,96  L 25,96  L 25,95  L 32,95  L 32,94  L 33,94  L 33,95  L 34,95  L 34,94  L 38,94  L 38,93  L 52,93  L 52,92  L 53,92  L 53,93  L 55,93  L 55,92  L 57,92  L 57,93  L 59,93  L 59,92  L 62,92  L 62,93  L 63,93  L 63,92  L 66,92  L 66,93  L 67,93  L 67,92  L 78,92  L 78,91  L 79,91  L 79,92  L 80,92  L 80,91  L 83,91  L 83,92  L 84,92  L 84,91  L 94,91  L 94,90  L 102,90  L 102,88  L 103,88  L 103,87  L 104,87  L 104,82  L 103,82  L 103,81  L 101,81  L 101,82  L 97,82  L 97,83  L 92,83  L 92,84  L 83,84  L 83,85  L 80,85  L 80,84  L 79,84  L 79,85  L 76,85  L 76,84  L 75,84  L 75,85  L 72,85  L 72,84  L 71,84  L 71,85  L 68,85  L 68,84  L 67,84  L 67,85  L 64,85  L 64,84  L 63,84  L 63,85  L 56,85  L 56,84  L 55,84  Z  " style="fill:rgb(0, 0, 0); fill-opacity:1.000; stroke:none;" />
 <path d="  M 51,8  L 50,8  L 50,7  L 49,7  L 49,5  L 48,5  L 48,4  L 47,4  L 47,1  L 46,1  L 46,0  L 43,0  L 43,1  L 42,1  L 42,2  L 41,2  L 41,3  L 40,3  L 40,4  L 39,4  L 39,6  L 38,6  L 38,7  L 37,7  L 37,8  L 36,8  L 36,10  L 35,10  L 35,11  L 33,11  L 33,13  L 32,13  L 32,15  L 31,15  L 31,16  L 30,16  L 30,17  L 29,17  L 29,20  L 28,20  L 28,21  L 27,21  L 27,23  L 26,23  L 26,25  L 25,25  L 25,26  L 24,26  L 24,28  L 23,28  L 23,30  L 22,30  L 22,31  L 21,31  L 21,32  L 20,32  L 20,34  L 19,34  L 19,35  L 18,35  L 18,37  L 17,37  L 17,38  L 16,38  L 16,39  L 15,39  L 15,40  L 14,40  L 14,41  L 13,41  L 13,42  L 12,42  L 12,43  L 11,43  L 11,44  L 10,44  L 10,45  L 9,45  L 9,46  L 8,46  L 8,47  L 7,47  L 7,48  L 6,48  L 6,49  L 5,49  L 5,55  L 6,55  L 6,57  L 8,57  L 8,58  L 10,58  L 10,57  L 12,57  L 12,56  L 13,56  L 13,54  L 14,54  L 14,52  L 15,52  L 15,51  L 16,51  L 16,49  L 17,49  L 17,48  L 18,48  L 18,47  L 19,47  L 19,46  L 20,46  L 20,45  L 21,45  L 21,43  L 22,43  L 22,42  L 24,42  L 24,40  L 25,40  L 25,39  L 26,39  L 26,38  L 27,38  L 27,37  L 28,37  L 28,35  L 29,35  L 29,33  L 30,33  L 30,32  L 31,32  L 31,31  L 32,31  L 32,29  L 33,29  L 33,27  L 34,27  L 34,26  L 35,26  L 35,24  L 36,24  L 36,22  L 37,22  L 37,20  L 38,20  L 38,19  L 39,19  L 39,18  L 40,18  L 40,16  L 41,16  L 41,15  L 45,15  L 45,17  L 47,17  L 47,18  L 49,18  L 49,19  L 52,19  L 52,20  L 53,20  L 53,21  L 55,21  L 55,22  L 56,22  L 56,23  L 58,23  L 58,24  L 60,24  L 60,25  L 61,25  L 61,26  L 63,26  L 63,27  L 64,27  L 64,28  L 67,28  L 67,29  L 69,29  L 69,30  L 71,30  L 71,31  L 73,31  L 73,32  L 75,32  L 75,33  L 79,33  L 79,35  L 82,35  L 82,36  L 84,36  L 84,37  L 85,37  L 85,38  L 87,38  L 87,39  L 90,39  L 90,40  L 91,40  L 91,39  L 94,39  L 94,38  L 95,38  L 95,34  L 94,34  L 94,33  L 93,33  L 93,32  L 92,32  L 92,31  L 91,31  L 91,30  L 89,30  L 89,29  L 86,29  L 86,28  L 84,28  L 84,27  L 81,27  L 81,26  L 78,26  L 78,25  L 75,25  L 75,24  L 73,24  L 73,23  L 71,23  L 71,22  L 70,22  L 70,21  L 67,21  L 67,20  L 66,20  L 66,19  L 64,19  L 64,18  L 62,18  L 62,17  L 61,17  L 61,16  L 59,16  L 59,15  L 58,15  L 58,14  L 57,14  L 57,13  L 55,13  L 55,12  L 54,12  L 54,11  L 53,11  L 53,10  L 52,10  L 52,9  L 51,9  Z  " style="fill:rgb(0, 0, 0); fill-opacity:1.000; stroke:none;" />
 <path d="  M 33,111  L 33,110  L 31,110  L 31,109  L 25,109  L 25,110  L 23,110  L 23,112  L 22,112  L 22,113  L 20,113  L 20,114  L 19,114  L 19,117  L 20,117  L 20,118  L 22,118  L 22,119  L 24,119  L 24,120  L 25,120  L 25,127  L 24,127  L 24,128  L 25,128  L 25,131  L 24,131  L 24,133  L 25,133  L 25,135  L 24,135  L 24,136  L 25,136  L 25,139  L 24,139  L 24,141  L 25,141  L 25,143  L 24,143  L 24,145  L 25,145  L 25,147  L 24,147  L 24,148  L 25,148  L 25,159  L 26,159  L 26,161  L 27,161  L 27,163  L 28,163  L 28,164  L 29,164  L 29,166  L 30,166  L 30,167  L 31,167  L 31,168  L 50,168  L 50,167  L 55,167  L 55,166  L 59,166  L 59,165  L 64,165  L 64,164  L 70,164  L 70,163  L 72,163  L 72,162  L 74,162  L 74,161  L 75,161  L 75,160  L 76,160  L 76,159  L 77,159  L 77,158  L 78,158  L 78,157  L 79,157  L 79,155  L 80,155  L 80,153  L 81,153  L 81,146  L 82,146  L 82,144  L 83,144  L 83,141  L 84,141  L 84,138  L 85,138  L 85,134  L 86,134  L 86,131  L 87,131  L 87,130  L 86,130  L 86,129  L 87,129  L 87,125  L 88,125  L 88,119  L 89,119  L 89,110  L 88,110  L 88,109  L 87,109  L 87,108  L 86,108  L 86,107  L 85,107  L 85,106  L 83,106  L 83,105  L 81,105  L 81,106  L 80,106  L 80,105  L 79,105  L 79,106  L 78,106  L 78,105  L 77,105  L 77,106  L 71,106  L 71,107  L 70,107  L 70,106  L 69,106  L 69,107  L 63,107  L 63,108  L 55,108  L 55,109  L 47,109  L 47,110  L 41,110  L 41,111  L 36,111  L 36,112  L 35,112  L 35,111  Z  M 62,116  L 62,115  L 67,115  L 67,114  L 75,114  L 75,113  L 79,113  L 79,112  L 81,112  L 81,113  L 82,113  L 82,115  L 81,115  L 81,121  L 80,121  L 80,127  L 79,127  L 79,133  L 78,133  L 78,137  L 77,137  L 77,140  L 76,140  L 76,143  L 75,143  L 75,146  L 74,146  L 74,149  L 73,149  L 73,152  L 72,152  L 72,154  L 71,154  L 71,155  L 69,155  L 69,156  L 66,156  L 66,157  L 63,157  L 63,158  L 58,158  L 58,159  L 54,159  L 54,160  L 49,160  L 49,161  L 48,161  L 48,160  L 47,160  L 47,161  L 34,161  L 34,160  L 33,160  L 33,158  L 32,158  L 32,147  L 33,147  L 33,146  L 32,146  L 32,144  L 33,144  L 33,142  L 32,142  L 32,140  L 33,140  L 33,138  L 32,138  L 32,136  L 33,136  L 33,134  L 32,134  L 32,131  L 33,131  L 33,130  L 32,130  L 32,122  L 33,122  L 33,120  L 36,120  L 36,119  L 38,119  L 38,118  L 44,118  L 44,117  L 52,117  L 52,116  L 53,116  L 53,117  L 55,117  L 55,116  Z  " style="fill:rgb(0, 0, 0); fill-opacity:1.000; stroke:none;" />
</svg>
