<?xml version="1.0" encoding="UTF-8" standalone="no"?>
<!DOCTYPE svg PUBLIC "-//W3C//DTD SVG 1.1//EN" 
  "http://www.w3.org/Graphics/SVG/1.1/DTD/svg11.dtd">
<svg width="107" height="171"
     xmlns="http://www.w3.org/2000/svg" version="1.1">
 <path d="  M 8,89  L 8,90  L 7,90  L 7,89  L 5,89  L 5,90  L 3,90  L 3,89  L 1,89  L 1,94  L 3,94  L 3,95  L 25,95  L 25,94  L 26,94  L 26,95  L 27,95  L 27,94  L 35,94  L 35,93  L 41,93  L 41,92  L 54,92  L 54,91  L 56,91  L 56,92  L 58,92  L 58,91  L 61,91  L 61,92  L 62,92  L 62,91  L 71,91  L 71,90  L 85,90  L 85,89  L 95,89  L 95,88  L 96,88  L 96,89  L 99,89  L 99,88  L 105,88  L 105,87  L 106,87  L 106,86  L 107,86  L 107,81  L 100,81  L 100,82  L 90,82  L 90,83  L 78,83  L 78,84  L 75,84  L 75,83  L 74,83  L 74,84  L 71,84  L 71,83  L 70,83  L 70,84  L 67,84  L 67,83  L 66,83  L 66,84  L 60,84  L 60,83  L 59,83  L 59,75  L 58,75  L 58,74  L 59,74  L 59,73  L 58,73  L 58,51  L 55,51  L 55,50  L 52,50  L 52,53  L 51,53  L 51,55  L 52,55  L 52,56  L 51,56  L 51,57  L 52,57  L 52,58  L 51,58  L 51,59  L 52,59  L 52,70  L 51,70  L 51,71  L 52,71  L 52,73  L 51,73  L 51,76  L 52,76  L 52,77  L 51,77  L 51,81  L 52,81  L 52,85  L 46,85  L 46,86  L 35,86  L 35,87  L 30,87  L 30,88  L 27,88  L 27,87  L 26,87  L 26,88  L 22,88  L 22,89  Z  " style="fill:rgb(0, 0, 0); fill-opacity:1.000; stroke:none;" />
 <path d="  M 76,24  L 74,24  L 74,23  L 73,23  L 73,22  L 71,22  L 71,21  L 69,21  L 69,20  L 68,20  L 68,19  L 66,19  L 66,18  L 65,18  L 65,17  L 64,17  L 64,16  L 62,16  L 62,14  L 61,14  L 61,13  L 60,13  L 60,12  L 58,12  L 58,10  L 57,10  L 57,9  L 56,9  L 56,8  L 55,8  L 55,6  L 54,6  L 54,5  L 53,5  L 53,3  L 52,3  L 52,1  L 51,1  L 51,0  L 47,0  L 47,1  L 46,1  L 46,3  L 45,3  L 45,4  L 44,4  L 44,7  L 43,7  L 43,8  L 42,8  L 42,10  L 41,10  L 41,12  L 40,12  L 40,13  L 39,13  L 39,14  L 38,14  L 38,16  L 37,16  L 37,17  L 36,17  L 36,18  L 35,18  L 35,19  L 34,19  L 34,21  L 33,21  L 33,22  L 32,22  L 32,24  L 31,24  L 31,26  L 30,26  L 30,28  L 29,28  L 29,29  L 28,29  L 28,31  L 27,31  L 27,33  L 26,33  L 26,35  L 25,35  L 25,36  L 24,36  L 24,37  L 23,37  L 23,38  L 22,38  L 22,39  L 21,39  L 21,40  L 20,40  L 20,41  L 19,41  L 19,42  L 18,42  L 18,43  L 16,43  L 16,44  L 15,44  L 15,46  L 14,46  L 14,47  L 13,47  L 13,48  L 12,48  L 12,53  L 11,53  L 11,54  L 12,54  L 12,56  L 13,56  L 13,57  L 14,57  L 14,56  L 15,56  L 15,57  L 16,57  L 16,56  L 17,56  L 17,54  L 18,54  L 18,53  L 19,53  L 19,52  L 20,52  L 20,51  L 21,51  L 21,50  L 22,50  L 22,49  L 23,49  L 23,48  L 24,48  L 24,47  L 25,47  L 25,46  L 26,46  L 26,45  L 27,45  L 27,44  L 28,44  L 28,42  L 29,42  L 29,41  L 31,41  L 31,39  L 32,39  L 32,37  L 33,37  L 33,35  L 34,35  L 34,34  L 35,34  L 35,32  L 36,32  L 36,30  L 37,30  L 37,29  L 39,29  L 39,27  L 40,27  L 40,26  L 41,26  L 41,25  L 40,25  L 40,24  L 41,24  L 41,23  L 42,23  L 42,22  L 43,22  L 43,20  L 44,20  L 44,19  L 45,19  L 45,17  L 47,17  L 47,16  L 48,16  L 48,17  L 49,17  L 49,18  L 53,18  L 53,19  L 55,19  L 55,20  L 56,20  L 56,21  L 58,21  L 58,22  L 59,22  L 59,23  L 60,23  L 60,24  L 63,24  L 63,25  L 64,25  L 64,26  L 65,26  L 65,27  L 67,27  L 67,28  L 68,28  L 68,29  L 69,29  L 69,28  L 70,28  L 70,29  L 72,29  L 72,30  L 73,30  L 73,31  L 75,31  L 75,32  L 78,32  L 78,33  L 80,33  L 80,34  L 82,34  L 82,35  L 83,35  L 83,36  L 86,36  L 86,37  L 87,37  L 87,38  L 88,38  L 88,39  L 90,39  L 90,40  L 93,40  L 93,39  L 94,39  L 94,38  L 96,38  L 96,35  L 94,35  L 94,34  L 93,34  L 93,33  L 91,33  L 91,32  L 90,32  L 90,31  L 89,31  L 89,30  L 87,30  L 87,29  L 85,29  L 85,28  L 82,28  L 82,27  L 80,27  L 80,26  L 78,26  L 78,25  L 76,25  Z  " style="fill:rgb(0, 0, 0); fill-opacity:1.000; stroke:none;" />
 <path d="  M 27,140  L 27,156  L 28,156  L 28,160  L 29,160  L 29,162  L 30,162  L 30,164  L 31,164  L 31,165  L 32,165  L 32,166  L 33,166  L 33,167  L 34,167  L 34,168  L 35,168  L 35,169  L 36,169  L 36,170  L 37,170  L 37,171  L 50,171  L 50,170  L 55,170  L 55,169  L 56,169  L 56,170  L 57,170  L 57,169  L 61,169  L 61,168  L 66,168  L 66,167  L 70,167  L 70,166  L 73,166  L 73,165  L 74,165  L 74,164  L 75,164  L 75,163  L 76,163  L 76,162  L 77,162  L 77,161  L 78,161  L 78,159  L 79,159  L 79,157  L 80,157  L 80,153  L 81,153  L 81,152  L 82,152  L 82,147  L 83,147  L 83,142  L 84,142  L 84,138  L 85,138  L 85,133  L 86,133  L 86,129  L 87,129  L 87,117  L 86,117  L 86,104  L 85,104  L 85,102  L 83,102  L 83,101  L 81,101  L 81,102  L 80,102  L 80,124  L 81,124  L 81,128  L 80,128  L 80,129  L 79,129  L 79,130  L 77,130  L 77,129  L 76,129  L 76,130  L 71,130  L 71,131  L 60,131  L 60,132  L 59,132  L 59,131  L 58,131  L 58,132  L 57,132  L 57,131  L 56,131  L 56,132  L 55,132  L 55,131  L 54,131  L 54,132  L 53,132  L 53,131  L 52,131  L 52,132  L 51,132  L 51,131  L 50,131  L 50,132  L 49,132  L 49,131  L 48,131  L 48,132  L 47,132  L 47,131  L 46,131  L 46,132  L 45,132  L 45,131  L 44,131  L 44,132  L 43,132  L 43,131  L 37,131  L 37,130  L 36,130  L 36,129  L 34,129  L 34,118  L 35,118  L 35,112  L 36,112  L 36,104  L 37,104  L 37,100  L 35,100  L 35,99  L 31,99  L 31,100  L 30,100  L 30,101  L 29,101  L 29,106  L 28,106  L 28,110  L 27,110  L 27,126  L 26,126  L 26,128  L 27,128  L 27,131  L 26,131  L 26,132  L 27,132  L 27,135  L 26,135  L 26,136  L 27,136  L 27,139  L 26,139  L 26,140  Z  M 69,138  L 69,137  L 77,137  L 77,141  L 76,141  L 76,147  L 75,147  L 75,151  L 74,151  L 74,153  L 73,153  L 73,156  L 72,156  L 72,158  L 70,158  L 70,159  L 69,159  L 69,160  L 67,160  L 67,161  L 62,161  L 62,162  L 59,162  L 59,163  L 53,163  L 53,164  L 42,164  L 42,163  L 38,163  L 38,161  L 36,161  L 36,159  L 35,159  L 35,155  L 34,155  L 34,136  L 38,136  L 38,137  L 41,137  L 41,138  L 47,138  L 47,139  L 49,139  L 49,138  L 50,138  L 50,139  L 53,139  L 53,138  L 54,138  L 54,139  L 56,139  L 56,138  Z  " style="fill:rgb(0, 0, 0); fill-opacity:1.000; stroke:none;" />
</svg>
