<?xml version="1.0" encoding="UTF-8" standalone="no"?>
<!DOCTYPE svg PUBLIC "-//W3C//DTD SVG 1.1//EN" 
  "http://www.w3.org/Graphics/SVG/1.1/DTD/svg11.dtd">
<svg width="109" height="170"
     xmlns="http://www.w3.org/2000/svg" version="1.1">
 <path d="  M 35,95  L 35,94  L 36,94  L 36,95  L 38,95  L 38,94  L 40,94  L 40,95  L 42,95  L 42,94  L 44,94  L 44,95  L 46,95  L 46,94  L 53,94  L 53,93  L 54,93  L 54,94  L 55,94  L 55,93  L 67,93  L 67,92  L 68,92  L 68,93  L 69,93  L 69,92  L 83,92  L 83,91  L 84,91  L 84,92  L 85,92  L 85,91  L 106,91  L 106,90  L 107,90  L 107,89  L 108,89  L 108,88  L 109,88  L 109,84  L 108,84  L 108,83  L 107,83  L 107,82  L 101,82  L 101,83  L 99,83  L 99,82  L 98,82  L 98,83  L 96,83  L 96,84  L 85,84  L 85,85  L 83,85  L 83,84  L 82,84  L 82,85  L 63,85  L 63,86  L 60,86  L 60,85  L 59,85  L 59,84  L 58,84  L 58,74  L 57,74  L 57,73  L 58,73  L 58,70  L 57,70  L 57,69  L 58,69  L 58,66  L 57,66  L 57,65  L 58,65  L 58,64  L 57,64  L 57,61  L 58,61  L 58,60  L 57,60  L 57,59  L 58,59  L 58,58  L 57,58  L 57,54  L 55,54  L 55,53  L 52,53  L 52,54  L 51,54  L 51,57  L 50,57  L 50,86  L 49,86  L 49,87  L 47,87  L 47,86  L 34,86  L 34,87  L 31,87  L 31,86  L 30,86  L 30,87  L 27,87  L 27,86  L 26,86  L 26,87  L 12,87  L 12,88  L 1,88  L 1,90  L 0,90  L 0,93  L 1,93  L 1,94  L 3,94  L 3,95  L 7,95  L 7,96  L 8,96  L 8,95  L 9,95  L 9,96  L 12,96  L 12,95  L 13,95  L 13,96  L 15,96  L 15,95  Z  " style="fill:rgb(0, 0, 0); fill-opacity:1.000; stroke:none;" />
 <path d="  M 76,24  L 73,24  L 73,23  L 71,23  L 71,22  L 69,22  L 69,21  L 66,21  L 66,20  L 65,20  L 65,19  L 63,19  L 63,18  L 61,18  L 61,17  L 60,17  L 60,16  L 59,16  L 59,15  L 58,15  L 58,14  L 55,14  L 55,13  L 54,13  L 54,12  L 52,12  L 52,11  L 51,11  L 51,9  L 50,9  L 50,8  L 49,8  L 49,2  L 48,2  L 48,0  L 44,0  L 44,1  L 43,1  L 43,2  L 41,2  L 41,4  L 40,4  L 40,7  L 39,7  L 39,9  L 38,9  L 38,10  L 37,10  L 37,11  L 36,11  L 36,12  L 35,12  L 35,14  L 34,14  L 34,16  L 33,16  L 33,17  L 32,17  L 32,18  L 31,18  L 31,21  L 30,21  L 30,23  L 29,23  L 29,25  L 28,25  L 28,28  L 27,28  L 27,29  L 26,29  L 26,30  L 25,30  L 25,32  L 24,32  L 24,34  L 23,34  L 23,35  L 22,35  L 22,37  L 21,37  L 21,38  L 20,38  L 20,40  L 19,40  L 19,41  L 18,41  L 18,42  L 17,42  L 17,43  L 16,43  L 16,44  L 15,44  L 15,45  L 14,45  L 14,46  L 13,46  L 13,47  L 12,47  L 12,48  L 11,48  L 11,50  L 10,50  L 10,51  L 9,51  L 9,52  L 8,52  L 8,54  L 7,54  L 7,55  L 8,55  L 8,58  L 9,58  L 9,59  L 11,59  L 11,60  L 14,60  L 14,59  L 15,59  L 15,57  L 16,57  L 16,55  L 17,55  L 17,53  L 18,53  L 18,52  L 19,52  L 19,51  L 20,51  L 20,50  L 21,50  L 21,49  L 22,49  L 22,48  L 23,48  L 23,47  L 24,47  L 24,45  L 25,45  L 25,44  L 26,44  L 26,43  L 27,43  L 27,41  L 28,41  L 28,40  L 29,40  L 29,39  L 30,39  L 30,37  L 31,37  L 31,36  L 32,36  L 32,34  L 33,34  L 33,32  L 34,32  L 34,30  L 35,30  L 35,29  L 36,29  L 36,27  L 37,27  L 37,25  L 38,25  L 38,24  L 39,24  L 39,22  L 40,22  L 40,21  L 41,21  L 41,19  L 42,19  L 42,17  L 44,17  L 44,16  L 45,16  L 45,15  L 46,15  L 46,14  L 47,14  L 47,16  L 46,16  L 46,17  L 47,17  L 47,20  L 48,20  L 48,21  L 51,21  L 51,22  L 52,22  L 52,23  L 53,23  L 53,22  L 54,22  L 54,23  L 55,23  L 55,24  L 58,24  L 58,25  L 60,25  L 60,26  L 62,26  L 62,27  L 63,27  L 63,28  L 66,28  L 66,29  L 69,29  L 69,30  L 72,30  L 72,31  L 74,31  L 74,32  L 75,32  L 75,33  L 77,33  L 77,34  L 79,34  L 79,35  L 82,35  L 82,37  L 84,37  L 84,38  L 86,38  L 86,39  L 87,39  L 87,40  L 88,40  L 88,41  L 91,41  L 91,42  L 92,42  L 92,41  L 93,41  L 93,40  L 94,40  L 94,36  L 93,36  L 93,35  L 92,35  L 92,34  L 91,34  L 91,33  L 90,33  L 90,32  L 88,32  L 88,31  L 86,31  L 86,30  L 85,30  L 85,29  L 84,29  L 84,28  L 81,28  L 81,27  L 80,27  L 80,26  L 77,26  L 77,25  L 76,25  Z  M 47,13  L 48,13  L 48,14  L 47,14  Z  " style="fill:rgb(0, 0, 0); fill-opacity:1.000; stroke:none;" />
 <path d="  M 68,128  L 70,128  L 70,129  L 72,129  L 72,130  L 73,130  L 73,131  L 74,131  L 74,134  L 75,134  L 75,137  L 76,137  L 76,144  L 75,144  L 75,146  L 74,146  L 74,150  L 73,150  L 73,152  L 72,152  L 72,155  L 71,155  L 71,157  L 70,157  L 70,158  L 69,158  L 69,160  L 67,160  L 67,161  L 65,161  L 65,162  L 62,162  L 62,163  L 57,163  L 57,164  L 46,164  L 46,163  L 39,163  L 39,162  L 38,162  L 38,161  L 35,161  L 35,159  L 34,159  L 34,158  L 33,158  L 33,157  L 32,157  L 32,155  L 31,155  L 31,147  L 32,147  L 32,144  L 33,144  L 33,142  L 34,142  L 34,139  L 35,139  L 35,138  L 36,138  L 36,136  L 37,136  L 37,134  L 38,134  L 38,133  L 39,133  L 39,132  L 40,132  L 40,131  L 41,131  L 41,130  L 42,130  L 42,129  L 43,129  L 43,128  L 44,128  L 44,127  L 46,127  L 46,126  L 47,126  L 47,125  L 50,125  L 50,124  L 58,124  L 58,125  L 62,125  L 62,126  L 65,126  L 65,127  L 68,127  Z  M 50,112  L 48,112  L 48,113  L 47,113  L 47,114  L 44,114  L 44,116  L 42,116  L 42,117  L 41,117  L 41,119  L 39,119  L 39,121  L 38,121  L 38,122  L 37,122  L 37,124  L 35,124  L 35,126  L 34,126  L 34,127  L 33,127  L 33,128  L 32,128  L 32,129  L 31,129  L 31,131  L 30,131  L 30,132  L 29,132  L 29,134  L 28,134  L 28,135  L 27,135  L 27,138  L 26,138  L 26,139  L 25,139  L 25,142  L 24,142  L 24,148  L 23,148  L 23,151  L 24,151  L 24,157  L 25,157  L 25,160  L 26,160  L 26,161  L 27,161  L 27,163  L 28,163  L 28,164  L 29,164  L 29,165  L 30,165  L 30,166  L 31,166  L 31,167  L 33,167  L 33,168  L 34,168  L 34,169  L 37,169  L 37,170  L 66,170  L 66,169  L 69,169  L 69,168  L 71,168  L 71,167  L 73,167  L 73,166  L 74,166  L 74,165  L 75,165  L 75,163  L 76,163  L 76,162  L 77,162  L 77,161  L 78,161  L 78,159  L 79,159  L 79,156  L 80,156  L 80,155  L 81,155  L 81,151  L 82,151  L 82,149  L 83,149  L 83,146  L 84,146  L 84,135  L 83,135  L 83,134  L 84,134  L 84,133  L 83,133  L 83,131  L 82,131  L 82,129  L 81,129  L 81,128  L 80,128  L 80,127  L 79,127  L 79,126  L 78,126  L 78,125  L 77,125  L 77,124  L 75,124  L 75,123  L 74,123  L 74,122  L 73,122  L 73,121  L 71,121  L 71,120  L 69,120  L 69,119  L 66,119  L 66,118  L 62,118  L 62,117  L 60,117  L 60,116  L 59,116  L 59,115  L 57,115  L 57,114  L 55,114  L 55,113  L 54,113  L 54,112  L 53,112  L 53,111  L 50,111  Z  " style="fill:rgb(0, 0, 0); fill-opacity:1.000; stroke:none;" />
</svg>
