<?xml version="1.0" encoding="UTF-8" standalone="no"?>
<!DOCTYPE svg PUBLIC "-//W3C//DTD SVG 1.1//EN" 
  "http://www.w3.org/Graphics/SVG/1.1/DTD/svg11.dtd">
<svg width="107" height="152"
     xmlns="http://www.w3.org/2000/svg" version="1.1">
 <path d="  M 36,75  L 36,74  L 35,74  L 35,52  L 36,52  L 36,50  L 37,50  L 37,45  L 36,45  L 36,44  L 33,44  L 33,45  L 30,45  L 30,47  L 29,47  L 29,51  L 28,51  L 28,55  L 29,55  L 29,56  L 28,56  L 28,58  L 29,58  L 29,60  L 28,60  L 28,61  L 29,61  L 29,63  L 28,63  L 28,65  L 29,65  L 29,67  L 28,67  L 28,68  L 29,68  L 29,76  L 26,76  L 26,77  L 23,77  L 23,76  L 22,76  L 22,77  L 15,77  L 15,78  L 9,78  L 9,79  L 3,79  L 3,80  L 1,80  L 1,81  L 0,81  L 0,83  L 1,83  L 1,85  L 2,85  L 2,86  L 8,86  L 8,85  L 13,85  L 13,84  L 18,84  L 18,83  L 24,83  L 24,82  L 25,82  L 25,83  L 26,83  L 26,82  L 36,82  L 36,81  L 37,81  L 37,82  L 40,82  L 40,81  L 41,81  L 41,82  L 44,82  L 44,81  L 45,81  L 45,82  L 47,82  L 47,81  L 49,81  L 49,82  L 51,82  L 51,81  L 65,81  L 65,82  L 67,82  L 67,81  L 70,81  L 70,79  L 71,79  L 71,75  L 70,75  L 70,74  L 59,74  L 59,75  L 58,75  L 58,74  L 55,74  L 55,75  L 54,75  L 54,74  L 51,74  L 51,75  L 50,75  L 50,74  L 49,74  L 49,75  Z  " style="fill:rgb(0, 0, 0); fill-opacity:1.000; stroke:none;" />
 <path d="  M 16,29  L 15,29  L 15,30  L 14,30  L 14,31  L 13,31  L 13,34  L 12,34  L 12,35  L 11,35  L 11,36  L 10,36  L 10,38  L 9,38  L 9,39  L 8,39  L 8,40  L 7,40  L 7,41  L 6,41  L 6,42  L 4,42  L 4,44  L 3,44  L 3,45  L 2,45  L 2,47  L 3,47  L 3,48  L 4,48  L 4,49  L 5,49  L 5,50  L 7,50  L 7,49  L 8,49  L 8,48  L 9,48  L 9,47  L 10,47  L 10,46  L 11,46  L 11,45  L 12,45  L 12,44  L 13,44  L 13,42  L 14,42  L 14,41  L 15,41  L 15,40  L 16,40  L 16,38  L 18,38  L 18,36  L 19,36  L 19,35  L 20,35  L 20,34  L 21,34  L 21,33  L 22,33  L 22,32  L 23,32  L 23,31  L 22,31  L 22,30  L 23,30  L 23,29  L 24,29  L 24,27  L 25,27  L 25,26  L 27,26  L 27,27  L 28,27  L 28,28  L 30,28  L 30,29  L 33,29  L 33,30  L 34,30  L 34,31  L 36,31  L 36,32  L 38,32  L 38,33  L 41,33  L 41,34  L 43,34  L 43,35  L 44,35  L 44,36  L 46,36  L 46,37  L 47,37  L 47,38  L 48,38  L 48,39  L 49,39  L 49,40  L 51,40  L 51,41  L 52,41  L 52,43  L 54,43  L 54,44  L 55,44  L 55,45  L 56,45  L 56,46  L 57,46  L 57,47  L 59,47  L 59,48  L 63,48  L 63,47  L 64,47  L 64,44  L 63,44  L 63,43  L 62,43  L 62,42  L 61,42  L 61,40  L 60,40  L 60,39  L 59,39  L 59,38  L 58,38  L 58,37  L 57,37  L 57,36  L 56,36  L 56,35  L 54,35  L 54,34  L 53,34  L 53,33  L 51,33  L 51,32  L 50,32  L 50,31  L 48,31  L 48,30  L 47,30  L 47,29  L 45,29  L 45,28  L 44,28  L 44,27  L 41,27  L 41,26  L 40,26  L 40,25  L 38,25  L 38,24  L 36,24  L 36,23  L 35,23  L 35,22  L 34,22  L 34,21  L 32,21  L 32,20  L 31,20  L 31,17  L 32,17  L 32,16  L 33,16  L 33,14  L 34,14  L 34,13  L 35,13  L 35,11  L 36,11  L 36,8  L 37,8  L 37,7  L 38,7  L 38,6  L 39,6  L 39,2  L 38,2  L 38,1  L 37,1  L 37,0  L 33,0  L 33,1  L 31,1  L 31,3  L 30,3  L 30,4  L 31,4  L 31,5  L 30,5  L 30,6  L 29,6  L 29,7  L 28,7  L 28,9  L 27,9  L 27,11  L 26,11  L 26,12  L 25,12  L 25,14  L 24,14  L 24,15  L 23,15  L 23,17  L 22,17  L 22,18  L 21,18  L 21,21  L 20,21  L 20,22  L 19,22  L 19,24  L 18,24  L 18,25  L 17,25  L 17,27  L 16,27  Z  " style="fill:rgb(0, 0, 0); fill-opacity:1.000; stroke:none;" />
 <path d="  M 64,140  L 64,145  L 63,145  L 63,147  L 62,147  L 62,151  L 63,151  L 63,152  L 67,152  L 67,151  L 68,151  L 68,150  L 69,150  L 69,148  L 70,148  L 70,146  L 71,146  L 71,142  L 72,142  L 72,136  L 73,136  L 73,134  L 74,134  L 74,133  L 73,133  L 73,132  L 74,132  L 74,128  L 75,128  L 75,127  L 74,127  L 74,126  L 75,126  L 75,122  L 76,122  L 76,119  L 77,119  L 77,115  L 78,115  L 78,112  L 77,112  L 77,110  L 76,110  L 76,107  L 75,107  L 75,105  L 73,105  L 73,104  L 71,104  L 71,103  L 67,103  L 67,102  L 61,102  L 61,101  L 51,101  L 51,102  L 41,102  L 41,103  L 37,103  L 37,104  L 32,104  L 32,103  L 30,103  L 30,104  L 29,104  L 29,110  L 30,110  L 30,111  L 33,111  L 33,112  L 34,112  L 34,111  L 38,111  L 38,110  L 42,110  L 42,109  L 47,109  L 47,108  L 62,108  L 62,109  L 66,109  L 66,110  L 68,110  L 68,111  L 69,111  L 69,112  L 70,112  L 70,114  L 71,114  L 71,117  L 70,117  L 70,119  L 69,119  L 69,123  L 68,123  L 68,128  L 67,128  L 67,133  L 66,133  L 66,135  L 65,135  L 65,140  Z  " style="fill:rgb(0, 0, 0); fill-opacity:1.000; stroke:none;" />
 <path d="  M 76,81  L 77,81  L 77,82  L 76,82  L 76,84  L 77,84  L 77,85  L 76,85  L 76,88  L 77,88  L 77,89  L 78,89  L 78,90  L 81,90  L 81,89  L 82,89  L 82,88  L 83,88  L 83,83  L 82,83  L 82,80  L 83,80  L 83,79  L 82,79  L 82,51  L 81,51  L 81,50  L 82,50  L 82,49  L 83,49  L 83,48  L 84,48  L 84,47  L 89,47  L 89,46  L 93,46  L 93,47  L 94,47  L 94,46  L 95,46  L 95,47  L 96,47  L 96,46  L 97,46  L 97,47  L 98,47  L 98,46  L 105,46  L 105,47  L 106,47  L 106,46  L 107,46  L 107,40  L 83,40  L 83,38  L 82,38  L 82,36  L 83,36  L 83,34  L 82,34  L 82,33  L 83,33  L 83,31  L 82,31  L 82,28  L 83,28  L 83,27  L 82,27  L 82,24  L 83,24  L 83,23  L 82,23  L 82,7  L 81,7  L 81,5  L 80,5  L 80,4  L 76,4  L 76,32  L 77,32  L 77,34  L 76,34  L 76,36  L 77,36  L 77,37  L 76,37  L 76,38  L 77,38  L 77,42  L 76,42  Z  " style="fill:rgb(0, 0, 0); fill-opacity:1.000; stroke:none;" />
</svg>
