<?xml version="1.0" encoding="UTF-8" standalone="no"?>
<!DOCTYPE svg PUBLIC "-//W3C//DTD SVG 1.1//EN" 
  "http://www.w3.org/Graphics/SVG/1.1/DTD/svg11.dtd">
<svg width="108" height="134"
     xmlns="http://www.w3.org/2000/svg" version="1.1">
 <path d="  M 69,83  L 69,82  L 72,82  L 72,77  L 71,77  L 71,75  L 66,75  L 66,76  L 65,76  L 65,75  L 64,75  L 64,76  L 60,76  L 60,77  L 46,77  L 46,78  L 45,78  L 45,77  L 42,77  L 42,78  L 40,78  L 40,77  L 38,77  L 38,48  L 36,48  L 36,47  L 34,47  L 34,48  L 33,48  L 33,49  L 32,49  L 32,57  L 31,57  L 31,58  L 32,58  L 32,65  L 31,65  L 31,66  L 32,66  L 32,67  L 31,67  L 31,68  L 32,68  L 32,74  L 31,74  L 31,78  L 10,78  L 10,79  L 3,79  L 3,80  L 1,80  L 1,81  L 0,81  L 0,83  L 1,83  L 1,84  L 3,84  L 3,85  L 20,85  L 20,84  L 57,84  L 57,83  L 58,83  L 58,84  L 60,84  L 60,83  L 63,83  L 63,84  L 64,84  L 64,83  L 67,83  L 67,84  L 68,84  L 68,83  Z  " style="fill:rgb(0, 0, 0); fill-opacity:1.000; stroke:none;" />
 <path d="  M 57,39  L 57,38  L 56,38  L 56,37  L 55,37  L 55,36  L 54,36  L 54,35  L 52,35  L 52,34  L 51,34  L 51,33  L 49,33  L 49,32  L 48,32  L 48,31  L 46,31  L 46,30  L 44,30  L 44,29  L 41,29  L 41,28  L 40,28  L 40,27  L 38,27  L 38,26  L 37,26  L 37,25  L 35,25  L 35,24  L 34,24  L 34,21  L 33,21  L 33,20  L 34,20  L 34,18  L 35,18  L 35,16  L 36,16  L 36,15  L 37,15  L 37,14  L 38,14  L 38,12  L 39,12  L 39,10  L 40,10  L 40,9  L 41,9  L 41,6  L 42,6  L 42,4  L 43,4  L 43,3  L 42,3  L 42,2  L 41,2  L 41,1  L 39,1  L 39,0  L 37,0  L 37,1  L 36,1  L 36,3  L 35,3  L 35,4  L 34,4  L 34,5  L 33,5  L 33,8  L 32,8  L 32,9  L 31,9  L 31,11  L 30,11  L 30,12  L 29,12  L 29,14  L 28,14  L 28,15  L 27,15  L 27,16  L 26,16  L 26,18  L 25,18  L 25,19  L 24,19  L 24,20  L 23,20  L 23,22  L 22,22  L 22,23  L 21,23  L 21,25  L 20,25  L 20,26  L 19,26  L 19,28  L 18,28  L 18,29  L 17,29  L 17,31  L 16,31  L 16,32  L 15,32  L 15,34  L 14,34  L 14,36  L 13,36  L 13,37  L 12,37  L 12,39  L 11,39  L 11,40  L 10,40  L 10,41  L 9,41  L 9,43  L 8,43  L 8,44  L 7,44  L 7,45  L 6,45  L 6,46  L 5,46  L 5,49  L 4,49  L 4,50  L 5,50  L 5,53  L 6,53  L 6,54  L 8,54  L 8,53  L 10,53  L 10,52  L 11,52  L 11,51  L 12,51  L 12,50  L 13,50  L 13,48  L 14,48  L 14,47  L 15,47  L 15,46  L 16,46  L 16,44  L 17,44  L 17,42  L 18,42  L 18,40  L 19,40  L 19,39  L 20,39  L 20,37  L 21,37  L 21,36  L 22,36  L 22,35  L 23,35  L 23,34  L 24,34  L 24,32  L 25,32  L 25,30  L 26,30  L 26,29  L 27,29  L 27,28  L 29,28  L 29,29  L 31,29  L 31,31  L 33,31  L 33,32  L 35,32  L 35,33  L 36,33  L 36,34  L 38,34  L 38,35  L 42,35  L 42,36  L 45,36  L 45,37  L 46,37  L 46,38  L 47,38  L 47,39  L 49,39  L 49,40  L 50,40  L 50,41  L 51,41  L 51,42  L 53,42  L 53,44  L 55,44  L 55,46  L 56,46  L 56,47  L 57,47  L 57,48  L 58,48  L 58,49  L 60,49  L 60,50  L 62,50  L 62,51  L 64,51  L 64,50  L 65,50  L 65,46  L 64,46  L 64,45  L 63,45  L 63,44  L 62,44  L 62,42  L 61,42  L 61,41  L 60,41  L 60,40  L 59,40  L 59,39  Z  " style="fill:rgb(0, 0, 0); fill-opacity:1.000; stroke:none;" />
 <path d="  M 37,133  L 38,133  L 38,134  L 59,134  L 59,133  L 73,133  L 73,132  L 88,132  L 88,131  L 89,131  L 89,130  L 90,130  L 90,129  L 91,129  L 91,125  L 82,125  L 82,126  L 81,126  L 81,125  L 80,125  L 80,126  L 69,126  L 69,127  L 55,127  L 55,128  L 53,128  L 53,127  L 52,127  L 52,128  L 49,128  L 49,127  L 48,127  L 48,128  L 42,128  L 42,127  L 41,127  L 41,125  L 40,125  L 40,119  L 39,119  L 39,96  L 36,96  L 36,95  L 32,95  L 32,97  L 31,97  L 31,100  L 32,100  L 32,101  L 31,101  L 31,102  L 32,102  L 32,121  L 33,121  L 33,127  L 34,127  L 34,129  L 35,129  L 35,132  L 37,132  Z  " style="fill:rgb(0, 0, 0); fill-opacity:1.000; stroke:none;" />
 <path d="  M 78,88  L 79,88  L 79,89  L 80,89  L 80,90  L 83,90  L 83,89  L 84,89  L 84,72  L 83,72  L 83,62  L 84,62  L 84,60  L 83,60  L 83,59  L 84,59  L 84,58  L 83,58  L 83,57  L 84,57  L 84,55  L 86,55  L 86,54  L 88,54  L 88,53  L 107,53  L 107,52  L 108,52  L 108,47  L 107,47  L 107,46  L 104,46  L 104,47  L 103,47  L 103,46  L 102,46  L 102,47  L 101,47  L 101,46  L 100,46  L 100,47  L 99,47  L 99,46  L 98,46  L 98,47  L 93,47  L 93,46  L 92,46  L 92,47  L 85,47  L 85,48  L 84,48  L 84,47  L 83,47  L 83,31  L 82,31  L 82,30  L 83,30  L 83,29  L 82,29  L 82,28  L 83,28  L 83,27  L 82,27  L 82,13  L 81,13  L 81,5  L 80,5  L 80,4  L 79,4  L 79,3  L 76,3  L 76,4  L 75,4  L 75,20  L 76,20  L 76,36  L 77,36  L 77,58  L 78,58  Z  " style="fill:rgb(0, 0, 0); fill-opacity:1.000; stroke:none;" />
</svg>
