<?xml version="1.0" encoding="UTF-8" standalone="no"?>
<!DOCTYPE svg PUBLIC "-//W3C//DTD SVG 1.1//EN" 
  "http://www.w3.org/Graphics/SVG/1.1/DTD/svg11.dtd">
<svg width="109" height="143"
     xmlns="http://www.w3.org/2000/svg" version="1.1">
 <path d="  M 35,62  L 34,62  L 34,63  L 35,63  L 35,64  L 34,64  L 34,65  L 35,65  L 35,66  L 34,66  L 34,71  L 35,71  L 35,76  L 33,76  L 33,77  L 26,77  L 26,78  L 18,78  L 18,79  L 16,79  L 16,78  L 15,78  L 15,79  L 8,79  L 8,80  L 6,80  L 6,79  L 1,79  L 1,85  L 4,85  L 4,86  L 6,86  L 6,87  L 7,87  L 7,86  L 11,86  L 11,85  L 16,85  L 16,84  L 17,84  L 17,85  L 18,85  L 18,84  L 24,84  L 24,83  L 32,83  L 32,82  L 33,82  L 33,83  L 35,83  L 35,82  L 38,82  L 38,83  L 39,83  L 39,82  L 54,82  L 54,81  L 55,81  L 55,82  L 58,82  L 58,81  L 59,81  L 59,82  L 60,82  L 60,81  L 61,81  L 61,82  L 64,82  L 64,81  L 69,81  L 69,82  L 73,82  L 73,81  L 74,81  L 74,80  L 75,80  L 75,79  L 76,79  L 76,78  L 75,78  L 75,76  L 74,76  L 74,75  L 48,75  L 48,74  L 47,74  L 47,75  L 42,75  L 42,74  L 41,74  L 41,49  L 42,49  L 42,45  L 41,45  L 41,44  L 39,44  L 39,43  L 38,43  L 38,44  L 36,44  L 36,45  L 35,45  L 35,48  L 34,48  L 34,49  L 35,49  L 35,50  L 34,50  L 34,51  L 35,51  L 35,52  L 34,52  L 34,53  L 35,53  L 35,56  L 34,56  L 34,57  L 35,57  L 35,58  L 34,58  L 34,59  L 35,59  L 35,60  L 34,60  L 34,61  L 35,61  Z  " style="fill:rgb(0, 0, 0); fill-opacity:1.000; stroke:none;" />
 <path d="  M 50,31  L 50,30  L 48,30  L 48,29  L 45,29  L 45,28  L 43,28  L 43,27  L 41,27  L 41,26  L 39,26  L 39,25  L 38,25  L 38,24  L 37,24  L 37,23  L 36,23  L 36,22  L 35,22  L 35,19  L 36,19  L 36,18  L 37,18  L 37,16  L 38,16  L 38,14  L 39,14  L 39,12  L 40,12  L 40,10  L 41,10  L 41,8  L 42,8  L 42,7  L 43,7  L 43,2  L 42,2  L 42,1  L 41,1  L 41,0  L 37,0  L 37,2  L 36,2  L 36,5  L 35,5  L 35,6  L 34,6  L 34,8  L 33,8  L 33,11  L 32,11  L 32,13  L 31,13  L 31,14  L 30,14  L 30,16  L 29,16  L 29,18  L 28,18  L 28,20  L 27,20  L 27,22  L 26,22  L 26,23  L 25,23  L 25,25  L 24,25  L 24,27  L 23,27  L 23,28  L 22,28  L 22,30  L 21,30  L 21,31  L 20,31  L 20,33  L 19,33  L 19,35  L 18,35  L 18,37  L 17,37  L 17,38  L 16,38  L 16,39  L 15,39  L 15,40  L 14,40  L 14,41  L 13,41  L 13,43  L 11,43  L 11,44  L 10,44  L 10,45  L 9,45  L 9,46  L 8,46  L 8,47  L 7,47  L 7,48  L 6,48  L 6,50  L 7,50  L 7,51  L 8,51  L 8,52  L 9,52  L 9,53  L 10,53  L 10,52  L 13,52  L 13,51  L 14,51  L 14,50  L 15,50  L 15,48  L 16,48  L 16,47  L 17,47  L 17,45  L 19,45  L 19,43  L 20,43  L 20,41  L 21,41  L 21,40  L 22,40  L 22,39  L 23,39  L 23,38  L 24,38  L 24,36  L 25,36  L 25,35  L 26,35  L 26,34  L 27,34  L 27,32  L 28,32  L 28,31  L 29,31  L 29,30  L 30,30  L 30,29  L 33,29  L 33,30  L 35,30  L 35,31  L 36,31  L 36,32  L 38,32  L 38,33  L 41,33  L 41,34  L 43,34  L 43,35  L 44,35  L 44,36  L 46,36  L 46,37  L 49,37  L 49,38  L 51,38  L 51,39  L 53,39  L 53,40  L 55,40  L 55,41  L 56,41  L 56,42  L 57,42  L 57,43  L 59,43  L 59,44  L 60,44  L 60,45  L 61,45  L 61,46  L 63,46  L 63,47  L 64,47  L 64,48  L 69,48  L 69,45  L 68,45  L 68,43  L 67,43  L 67,42  L 66,42  L 66,41  L 65,41  L 65,40  L 64,40  L 64,39  L 63,39  L 63,38  L 62,38  L 62,37  L 61,37  L 61,36  L 59,36  L 59,35  L 57,35  L 57,34  L 56,34  L 56,33  L 53,33  L 53,32  L 52,32  L 52,31  Z  " style="fill:rgb(0, 0, 0); fill-opacity:1.000; stroke:none;" />
 <path d="  M 35,119  L 35,120  L 34,120  L 34,122  L 33,122  L 33,124  L 32,124  L 32,134  L 33,134  L 33,136  L 34,136  L 34,138  L 35,138  L 35,139  L 36,139  L 36,140  L 38,140  L 38,141  L 41,141  L 41,142  L 46,142  L 46,143  L 67,143  L 67,142  L 69,142  L 69,141  L 72,141  L 72,140  L 75,140  L 75,139  L 76,139  L 76,138  L 77,138  L 77,139  L 78,139  L 78,138  L 79,138  L 79,137  L 81,137  L 81,136  L 83,136  L 83,135  L 84,135  L 84,134  L 85,134  L 85,133  L 87,133  L 87,132  L 88,132  L 88,131  L 89,131  L 89,129  L 90,129  L 90,127  L 91,127  L 91,119  L 92,119  L 92,117  L 91,117  L 91,116  L 92,116  L 92,114  L 91,114  L 91,108  L 90,108  L 90,106  L 89,106  L 89,104  L 88,104  L 88,103  L 86,103  L 86,102  L 85,102  L 85,101  L 82,101  L 82,100  L 78,100  L 78,99  L 68,99  L 68,98  L 67,98  L 67,99  L 66,99  L 66,98  L 52,98  L 52,99  L 50,99  L 50,100  L 49,100  L 49,101  L 48,101  L 48,102  L 47,102  L 47,103  L 46,103  L 46,104  L 45,104  L 45,105  L 44,105  L 44,106  L 42,106  L 42,108  L 41,108  L 41,111  L 40,111  L 40,112  L 39,112  L 39,114  L 38,114  L 38,116  L 37,116  L 37,117  L 36,117  L 36,119  Z  M 83,111  L 84,111  L 84,112  L 85,112  L 85,121  L 84,121  L 84,125  L 83,125  L 83,127  L 82,127  L 82,128  L 81,128  L 81,130  L 80,130  L 80,131  L 77,131  L 77,132  L 76,132  L 76,133  L 73,133  L 73,134  L 70,134  L 70,135  L 64,135  L 64,136  L 61,136  L 61,137  L 60,137  L 60,136  L 59,136  L 59,137  L 50,137  L 50,136  L 45,136  L 45,135  L 42,135  L 42,134  L 41,134  L 41,133  L 40,133  L 40,132  L 39,132  L 39,126  L 40,126  L 40,122  L 41,122  L 41,121  L 42,121  L 42,119  L 43,119  L 43,117  L 44,117  L 44,115  L 45,115  L 45,114  L 46,114  L 46,113  L 47,113  L 47,111  L 49,111  L 49,110  L 50,110  L 50,109  L 51,109  L 51,108  L 52,108  L 52,107  L 54,107  L 54,106  L 56,106  L 56,105  L 61,105  L 61,106  L 62,106  L 62,105  L 64,105  L 64,106  L 77,106  L 77,107  L 80,107  L 80,108  L 82,108  L 82,109  L 83,109  Z  " style="fill:rgb(0, 0, 0); fill-opacity:1.000; stroke:none;" />
 <path d="  M 82,90  L 82,91  L 84,91  L 84,90  L 86,90  L 86,84  L 85,84  L 85,52  L 84,52  L 84,49  L 85,49  L 85,47  L 88,47  L 88,46  L 90,46  L 90,45  L 91,45  L 91,46  L 92,46  L 92,45  L 109,45  L 109,40  L 108,40  L 108,39  L 101,39  L 101,38  L 99,38  L 99,39  L 96,39  L 96,38  L 95,38  L 95,39  L 92,39  L 92,38  L 91,38  L 91,39  L 86,39  L 86,38  L 85,38  L 85,22  L 84,22  L 84,16  L 83,16  L 83,10  L 82,10  L 82,6  L 80,6  L 80,5  L 79,5  L 79,6  L 77,6  L 77,16  L 78,16  L 78,26  L 79,26  L 79,44  L 78,44  L 78,59  L 79,59  L 79,60  L 78,60  L 78,63  L 79,63  L 79,64  L 78,64  L 78,65  L 79,65  L 79,66  L 78,66  L 78,67  L 79,67  L 79,68  L 78,68  L 78,69  L 79,69  L 79,74  L 78,74  L 78,75  L 79,75  L 79,77  L 78,77  L 78,79  L 79,79  L 79,84  L 80,84  L 80,89  L 81,89  L 81,90  Z  " style="fill:rgb(0, 0, 0); fill-opacity:1.000; stroke:none;" />
</svg>
