<?xml version="1.0" encoding="UTF-8" standalone="no"?>
<!DOCTYPE svg PUBLIC "-//W3C//DTD SVG 1.1//EN" 
  "http://www.w3.org/Graphics/SVG/1.1/DTD/svg11.dtd">
<svg width="104" height="138"
     xmlns="http://www.w3.org/2000/svg" version="1.1">
 <path d="  M 2,74  L 2,75  L 1,75  L 1,77  L 0,77  L 0,80  L 1,80  L 1,81  L 2,81  L 2,80  L 3,80  L 3,81  L 5,81  L 5,80  L 11,80  L 11,79  L 18,79  L 18,78  L 29,78  L 29,77  L 31,77  L 31,78  L 32,78  L 32,77  L 53,77  L 53,76  L 56,76  L 56,75  L 65,75  L 65,74  L 64,74  L 64,70  L 63,70  L 63,68  L 62,68  L 62,67  L 57,67  L 57,68  L 56,68  L 56,69  L 53,69  L 53,70  L 36,70  L 36,50  L 37,50  L 37,48  L 36,48  L 36,46  L 35,46  L 35,45  L 34,45  L 34,44  L 29,44  L 29,43  L 28,43  L 28,44  L 27,44  L 27,46  L 28,46  L 28,47  L 29,47  L 29,70  L 28,70  L 28,71  L 16,71  L 16,72  L 9,72  L 9,73  L 6,73  L 6,74  Z  " style="fill:rgb(0, 0, 0); fill-opacity:1.000; stroke:none;" />
 <path d="  M 18,26  L 18,28  L 17,28  L 17,30  L 16,30  L 16,31  L 15,31  L 15,33  L 14,33  L 14,34  L 13,34  L 13,35  L 12,35  L 12,36  L 11,36  L 11,38  L 10,38  L 10,39  L 8,39  L 8,40  L 7,40  L 7,41  L 6,41  L 6,42  L 4,42  L 4,46  L 3,46  L 3,47  L 4,47  L 4,48  L 3,48  L 3,49  L 4,49  L 4,51  L 5,51  L 5,53  L 7,53  L 7,52  L 8,52  L 8,51  L 9,51  L 9,49  L 10,49  L 10,47  L 11,47  L 11,46  L 12,46  L 12,45  L 13,45  L 13,44  L 14,44  L 14,43  L 15,43  L 15,42  L 16,42  L 16,41  L 17,41  L 17,40  L 18,40  L 18,39  L 19,39  L 19,38  L 20,38  L 20,37  L 21,37  L 21,36  L 22,36  L 22,34  L 23,34  L 23,33  L 24,33  L 24,32  L 25,32  L 25,29  L 26,29  L 26,27  L 27,27  L 27,26  L 30,26  L 30,27  L 32,27  L 32,28  L 34,28  L 34,29  L 36,29  L 36,30  L 37,30  L 37,31  L 39,31  L 39,32  L 41,32  L 41,33  L 42,33  L 42,34  L 43,34  L 43,36  L 45,36  L 45,37  L 46,37  L 46,38  L 47,38  L 47,39  L 48,39  L 48,40  L 49,40  L 49,41  L 50,41  L 50,42  L 52,42  L 52,44  L 54,44  L 54,45  L 56,45  L 56,46  L 57,46  L 57,45  L 58,45  L 58,46  L 61,46  L 61,45  L 63,45  L 63,44  L 62,44  L 62,41  L 61,41  L 61,40  L 60,40  L 60,39  L 59,39  L 59,38  L 57,38  L 57,37  L 56,37  L 56,36  L 55,36  L 55,35  L 54,35  L 54,34  L 52,34  L 52,33  L 51,33  L 51,32  L 50,32  L 50,31  L 49,31  L 49,30  L 47,30  L 47,29  L 46,29  L 46,28  L 44,28  L 44,27  L 42,27  L 42,26  L 41,26  L 41,25  L 39,25  L 39,24  L 38,24  L 38,23  L 36,23  L 36,22  L 35,22  L 35,21  L 34,21  L 34,19  L 35,19  L 35,17  L 36,17  L 36,15  L 37,15  L 37,14  L 39,14  L 39,13  L 40,13  L 40,11  L 41,11  L 41,10  L 42,10  L 42,8  L 43,8  L 43,5  L 44,5  L 44,4  L 43,4  L 43,2  L 42,2  L 42,1  L 41,1  L 41,0  L 40,0  L 40,1  L 38,1  L 38,2  L 37,2  L 37,3  L 36,3  L 36,4  L 35,4  L 35,7  L 34,7  L 34,8  L 33,8  L 33,10  L 31,10  L 31,11  L 30,11  L 30,12  L 28,12  L 28,14  L 27,14  L 27,15  L 26,15  L 26,16  L 25,16  L 25,18  L 24,18  L 24,20  L 23,20  L 23,21  L 22,21  L 22,22  L 21,22  L 21,24  L 20,24  L 20,25  L 19,25  L 19,26  Z  " style="fill:rgb(0, 0, 0); fill-opacity:1.000; stroke:none;" />
 <path d="  M 39,94  L 37,94  L 37,93  L 34,93  L 34,94  L 33,94  L 33,95  L 32,95  L 32,113  L 33,113  L 33,114  L 32,114  L 32,117  L 33,117  L 33,118  L 32,118  L 32,119  L 33,119  L 33,120  L 32,120  L 32,121  L 33,121  L 33,130  L 34,130  L 34,134  L 35,134  L 35,135  L 36,135  L 36,136  L 37,136  L 37,137  L 38,137  L 38,138  L 66,138  L 66,137  L 78,137  L 78,136  L 80,136  L 80,137  L 81,137  L 81,136  L 94,136  L 94,135  L 95,135  L 95,136  L 98,136  L 98,135  L 99,135  L 99,136  L 100,136  L 100,135  L 102,135  L 102,134  L 103,134  L 103,133  L 104,133  L 104,128  L 102,128  L 102,127  L 101,127  L 101,128  L 93,128  L 93,129  L 90,129  L 90,128  L 89,128  L 89,129  L 85,129  L 85,130  L 84,130  L 84,129  L 83,129  L 83,130  L 71,130  L 71,131  L 60,131  L 60,132  L 59,132  L 59,131  L 58,131  L 58,132  L 42,132  L 42,131  L 41,131  L 41,130  L 40,130  L 40,123  L 39,123  Z  " style="fill:rgb(0, 0, 0); fill-opacity:1.000; stroke:none;" />
 <path d="  M 79,52  L 80,52  L 80,47  L 81,47  L 81,46  L 89,46  L 89,45  L 90,45  L 90,46  L 91,46  L 91,47  L 92,47  L 92,86  L 93,86  L 93,87  L 98,87  L 98,86  L 99,86  L 99,85  L 100,85  L 100,84  L 99,84  L 99,81  L 100,81  L 100,80  L 99,80  L 99,77  L 100,77  L 100,76  L 99,76  L 99,73  L 100,73  L 100,72  L 99,72  L 99,49  L 98,49  L 98,48  L 99,48  L 99,46  L 98,46  L 98,39  L 97,39  L 97,34  L 96,34  L 96,26  L 95,26  L 95,25  L 96,25  L 96,24  L 95,24  L 95,19  L 94,19  L 94,12  L 93,12  L 93,9  L 92,9  L 92,8  L 89,8  L 89,9  L 88,9  L 88,12  L 87,12  L 87,13  L 88,13  L 88,16  L 87,16  L 87,19  L 88,19  L 88,25  L 89,25  L 89,35  L 90,35  L 90,39  L 78,39  L 78,26  L 77,26  L 77,25  L 78,25  L 78,24  L 77,24  L 77,13  L 78,13  L 78,5  L 77,5  L 77,4  L 74,4  L 74,3  L 73,3  L 73,4  L 72,4  L 72,6  L 71,6  L 71,27  L 72,27  L 72,28  L 71,28  L 71,31  L 72,31  L 72,32  L 71,32  L 71,35  L 72,35  L 72,36  L 71,36  L 71,37  L 72,37  L 72,57  L 73,57  L 73,58  L 72,58  L 72,81  L 73,81  L 73,83  L 75,83  L 75,82  L 78,82  L 78,80  L 79,80  Z  " style="fill:rgb(0, 0, 0); fill-opacity:1.000; stroke:none;" />
</svg>
