<?xml version="1.0" encoding="UTF-8" standalone="no"?>
<!DOCTYPE svg PUBLIC "-//W3C//DTD SVG 1.1//EN" 
  "http://www.w3.org/Graphics/SVG/1.1/DTD/svg11.dtd">
<svg width="102" height="163"
     xmlns="http://www.w3.org/2000/svg" version="1.1">
 <path d="  M 38,77  L 37,77  L 37,85  L 36,85  L 36,86  L 31,86  L 31,85  L 30,85  L 30,86  L 21,86  L 21,87  L 20,87  L 20,86  L 19,86  L 19,87  L 16,87  L 16,88  L 11,88  L 11,89  L 7,89  L 7,90  L 4,90  L 4,91  L 1,91  L 1,93  L 0,93  L 0,96  L 1,96  L 1,98  L 6,98  L 6,97  L 8,97  L 8,96  L 10,96  L 10,95  L 15,95  L 15,94  L 26,94  L 26,93  L 27,93  L 27,94  L 28,94  L 28,93  L 47,93  L 47,94  L 64,94  L 64,93  L 65,93  L 65,94  L 67,94  L 67,93  L 78,93  L 78,94  L 79,94  L 79,93  L 83,93  L 83,90  L 82,90  L 82,88  L 81,88  L 81,87  L 80,87  L 80,86  L 67,86  L 67,87  L 64,87  L 64,86  L 63,86  L 63,87  L 56,87  L 56,86  L 55,86  L 55,87  L 52,87  L 52,86  L 45,86  L 45,59  L 46,59  L 46,55  L 47,55  L 47,54  L 42,54  L 42,53  L 41,53  L 41,54  L 39,54  L 39,56  L 38,56  Z  " style="fill:rgb(0, 0, 0); fill-opacity:1.000; stroke:none;" />
 <path d="  M 78,46  L 77,46  L 77,44  L 76,44  L 76,43  L 75,43  L 75,42  L 74,42  L 74,41  L 73,41  L 73,40  L 72,40  L 72,39  L 70,39  L 70,38  L 69,38  L 69,37  L 68,37  L 68,36  L 67,36  L 67,35  L 66,35  L 66,34  L 64,34  L 64,33  L 62,33  L 62,32  L 59,32  L 59,31  L 58,31  L 58,30  L 56,30  L 56,29  L 52,29  L 52,28  L 49,28  L 49,27  L 47,27  L 47,26  L 44,26  L 44,25  L 43,25  L 43,24  L 39,24  L 39,23  L 38,23  L 38,21  L 39,21  L 39,20  L 40,20  L 40,18  L 41,18  L 41,17  L 42,17  L 42,15  L 43,15  L 43,14  L 44,14  L 44,12  L 45,12  L 45,11  L 46,11  L 46,10  L 45,10  L 45,8  L 46,8  L 46,5  L 45,5  L 45,2  L 44,2  L 44,1  L 43,1  L 43,0  L 39,0  L 39,1  L 37,1  L 37,2  L 36,2  L 36,3  L 37,3  L 37,8  L 36,8  L 36,10  L 35,10  L 35,12  L 34,12  L 34,13  L 33,13  L 33,15  L 32,15  L 32,17  L 31,17  L 31,18  L 30,18  L 30,19  L 29,19  L 29,20  L 28,20  L 28,21  L 27,21  L 27,22  L 26,22  L 26,24  L 25,24  L 25,26  L 24,26  L 24,27  L 23,27  L 23,28  L 22,28  L 22,29  L 21,29  L 21,31  L 20,31  L 20,33  L 19,33  L 19,34  L 18,34  L 18,35  L 17,35  L 17,37  L 16,37  L 16,39  L 15,39  L 15,40  L 14,40  L 14,41  L 13,41  L 13,42  L 12,42  L 12,44  L 11,44  L 11,45  L 10,45  L 10,46  L 9,46  L 9,47  L 8,47  L 8,48  L 7,48  L 7,50  L 6,50  L 6,51  L 5,51  L 5,52  L 4,52  L 4,56  L 5,56  L 5,57  L 6,57  L 6,59  L 8,59  L 8,58  L 10,58  L 10,57  L 11,57  L 11,56  L 12,56  L 12,54  L 13,54  L 13,53  L 14,53  L 14,52  L 15,52  L 15,50  L 16,50  L 16,49  L 17,49  L 17,47  L 18,47  L 18,46  L 19,46  L 19,45  L 20,45  L 20,44  L 21,44  L 21,42  L 22,42  L 22,41  L 23,41  L 23,40  L 24,40  L 24,39  L 25,39  L 25,37  L 26,37  L 26,36  L 28,36  L 28,34  L 29,34  L 29,33  L 30,33  L 30,32  L 31,32  L 31,29  L 33,29  L 33,28  L 34,28  L 34,26  L 35,26  L 35,29  L 38,29  L 38,30  L 39,30  L 39,31  L 41,31  L 41,32  L 44,32  L 44,33  L 46,33  L 46,34  L 47,34  L 47,33  L 48,33  L 48,34  L 51,34  L 51,35  L 52,35  L 52,36  L 55,36  L 55,37  L 57,37  L 57,38  L 59,38  L 59,39  L 60,39  L 60,40  L 62,40  L 62,41  L 63,41  L 63,42  L 64,42  L 64,44  L 66,44  L 66,45  L 67,45  L 67,46  L 68,46  L 68,48  L 71,48  L 71,49  L 73,49  L 73,50  L 78,50  Z  " style="fill:rgb(0, 0, 0); fill-opacity:1.000; stroke:none;" />
 <path d="  M 39,147  L 40,147  L 40,149  L 39,149  L 39,151  L 40,151  L 40,154  L 41,154  L 41,157  L 42,157  L 42,159  L 43,159  L 43,161  L 44,161  L 44,162  L 46,162  L 46,163  L 72,163  L 72,162  L 74,162  L 74,163  L 75,163  L 75,162  L 79,162  L 79,161  L 83,161  L 83,160  L 87,160  L 87,159  L 90,159  L 90,158  L 92,158  L 92,157  L 94,157  L 94,156  L 95,156  L 95,155  L 96,155  L 96,154  L 97,154  L 97,151  L 98,151  L 98,150  L 97,150  L 97,149  L 98,149  L 98,145  L 99,145  L 99,136  L 100,136  L 100,129  L 101,129  L 101,122  L 100,122  L 100,119  L 99,119  L 99,117  L 98,117  L 98,116  L 96,116  L 96,115  L 94,115  L 94,114  L 91,114  L 91,113  L 85,113  L 85,112  L 73,112  L 73,113  L 63,113  L 63,114  L 55,114  L 55,115  L 48,115  L 48,114  L 45,114  L 45,113  L 44,113  L 44,112  L 40,112  L 40,113  L 38,113  L 38,114  L 35,114  L 35,115  L 32,115  L 32,116  L 29,116  L 29,117  L 28,117  L 28,123  L 31,123  L 31,124  L 34,124  L 34,123  L 39,123  Z  M 46,122  L 47,122  L 47,121  L 49,121  L 49,122  L 51,122  L 51,121  L 56,121  L 56,120  L 57,120  L 57,121  L 58,121  L 58,120  L 68,120  L 68,119  L 69,119  L 69,120  L 72,120  L 72,119  L 73,119  L 73,120  L 74,120  L 74,119  L 81,119  L 81,120  L 82,120  L 82,119  L 85,119  L 85,120  L 90,120  L 90,121  L 92,121  L 92,122  L 93,122  L 93,123  L 94,123  L 94,136  L 93,136  L 93,142  L 92,142  L 92,146  L 91,146  L 91,151  L 90,151  L 90,153  L 86,153  L 86,154  L 81,154  L 81,155  L 80,155  L 80,154  L 79,154  L 79,155  L 77,155  L 77,156  L 70,156  L 70,157  L 50,157  L 50,156  L 49,156  L 49,155  L 48,155  L 48,154  L 47,154  L 47,153  L 48,153  L 48,152  L 47,152  L 47,148  L 46,148  Z  " style="fill:rgb(0, 0, 0); fill-opacity:1.000; stroke:none;" />
 <path d="  M 102,30  L 101,30  L 101,23  L 100,23  L 100,19  L 99,19  L 99,18  L 100,18  L 100,17  L 99,17  L 99,11  L 98,11  L 98,9  L 97,9  L 97,8  L 95,8  L 95,7  L 94,7  L 94,8  L 93,8  L 93,10  L 92,10  L 92,13  L 93,13  L 93,21  L 94,21  L 94,27  L 95,27  L 95,35  L 96,35  L 96,105  L 97,105  L 97,108  L 98,108  L 98,109  L 102,109  Z  " style="fill:rgb(0, 0, 0); fill-opacity:1.000; stroke:none;" />
</svg>
