<?xml version="1.0" encoding="UTF-8" standalone="no"?>
<!DOCTYPE svg PUBLIC "-//W3C//DTD SVG 1.1//EN" 
  "http://www.w3.org/Graphics/SVG/1.1/DTD/svg11.dtd">
<svg width="112" height="117"
     xmlns="http://www.w3.org/2000/svg" version="1.1">
 <path d="  M 35,108  L 36,108  L 36,110  L 28,110  L 28,111  L 12,111  L 12,112  L 1,112  L 1,113  L 0,113  L 0,116  L 1,116  L 1,117  L 91,117  L 91,116  L 101,116  L 101,115  L 109,115  L 109,114  L 111,114  L 111,113  L 112,113  L 112,109  L 111,109  L 111,108  L 105,108  L 105,109  L 97,109  L 97,110  L 95,110  L 95,109  L 94,109  L 94,110  L 88,110  L 88,111  L 76,111  L 76,110  L 74,110  L 74,73  L 75,73  L 75,66  L 76,66  L 76,63  L 75,63  L 75,62  L 72,62  L 72,61  L 69,61  L 69,62  L 68,62  L 68,68  L 67,68  L 67,104  L 68,104  L 68,108  L 69,108  L 69,110  L 66,110  L 66,111  L 44,111  L 44,110  L 43,110  L 43,111  L 42,111  L 42,110  L 41,110  L 41,108  L 42,108  L 42,105  L 41,105  L 41,104  L 42,104  L 42,101  L 41,101  L 41,100  L 42,100  L 42,97  L 41,97  L 41,94  L 42,94  L 42,93  L 41,93  L 41,92  L 42,92  L 42,91  L 41,91  L 41,90  L 42,90  L 42,89  L 41,89  L 41,88  L 42,88  L 42,65  L 37,65  L 37,66  L 36,66  L 36,73  L 35,73  L 35,75  L 36,75  L 36,76  L 35,76  Z  " style="fill:rgb(0, 0, 0); fill-opacity:1.000; stroke:none;" />
 <path d="  M 45,27  L 45,26  L 47,26  L 47,27  L 49,27  L 49,28  L 51,28  L 51,29  L 54,29  L 54,30  L 55,30  L 55,31  L 56,31  L 56,32  L 59,32  L 59,33  L 62,33  L 62,34  L 63,34  L 63,35  L 65,35  L 65,36  L 68,36  L 68,37  L 70,37  L 70,38  L 73,38  L 73,39  L 75,39  L 75,40  L 77,40  L 77,41  L 79,41  L 79,42  L 83,42  L 83,43  L 86,43  L 86,44  L 89,44  L 89,45  L 91,45  L 91,46  L 94,46  L 94,47  L 96,47  L 96,48  L 102,48  L 102,46  L 103,46  L 103,45  L 102,45  L 102,44  L 101,44  L 101,43  L 100,43  L 100,42  L 98,42  L 98,41  L 97,41  L 97,40  L 94,40  L 94,39  L 91,39  L 91,38  L 89,38  L 89,37  L 86,37  L 86,36  L 84,36  L 84,35  L 81,35  L 81,34  L 79,34  L 79,33  L 77,33  L 77,32  L 74,32  L 74,31  L 71,31  L 71,30  L 69,30  L 69,29  L 67,29  L 67,28  L 64,28  L 64,27  L 62,27  L 62,26  L 60,26  L 60,25  L 58,25  L 58,24  L 56,24  L 56,23  L 55,23  L 55,22  L 54,22  L 54,21  L 53,21  L 53,18  L 54,18  L 54,15  L 55,15  L 55,14  L 57,14  L 57,12  L 58,12  L 58,11  L 59,11  L 59,9  L 60,9  L 60,7  L 61,7  L 61,6  L 62,6  L 62,5  L 61,5  L 61,4  L 62,4  L 62,3  L 61,3  L 61,1  L 60,1  L 60,0  L 56,0  L 56,1  L 54,1  L 54,3  L 53,3  L 53,5  L 52,5  L 52,7  L 51,7  L 51,8  L 50,8  L 50,9  L 49,9  L 49,11  L 48,11  L 48,12  L 47,12  L 47,13  L 46,13  L 46,15  L 45,15  L 45,16  L 44,16  L 44,17  L 43,17  L 43,18  L 42,18  L 42,19  L 41,19  L 41,20  L 40,20  L 40,21  L 39,21  L 39,23  L 38,23  L 38,25  L 37,25  L 37,26  L 36,26  L 36,28  L 35,28  L 35,29  L 34,29  L 34,30  L 33,30  L 33,32  L 32,32  L 32,33  L 31,33  L 31,35  L 30,35  L 30,37  L 29,37  L 29,38  L 28,38  L 28,39  L 27,39  L 27,41  L 26,41  L 26,42  L 25,42  L 25,43  L 24,43  L 24,45  L 23,45  L 23,46  L 21,46  L 21,47  L 20,47  L 20,48  L 19,48  L 19,49  L 18,49  L 18,50  L 17,50  L 17,51  L 16,51  L 16,52  L 15,52  L 15,53  L 14,53  L 14,54  L 13,54  L 13,56  L 12,56  L 12,59  L 13,59  L 13,61  L 15,61  L 15,62  L 17,62  L 17,61  L 18,61  L 18,60  L 19,60  L 19,59  L 20,59  L 20,58  L 21,58  L 21,57  L 23,57  L 23,56  L 24,56  L 24,54  L 25,54  L 25,53  L 27,53  L 27,52  L 28,52  L 28,51  L 29,51  L 29,49  L 30,49  L 30,48  L 31,48  L 31,47  L 32,47  L 32,45  L 33,45  L 33,44  L 34,44  L 34,43  L 35,43  L 35,42  L 36,42  L 36,40  L 37,40  L 37,39  L 38,39  L 38,38  L 39,38  L 39,37  L 40,37  L 40,36  L 41,36  L 41,34  L 42,34  L 42,32  L 43,32  L 43,29  L 44,29  L 44,27  Z  " style="fill:rgb(0, 0, 0); fill-opacity:1.000; stroke:none;" />
</svg>
