<?xml version="1.0" encoding="UTF-8" standalone="no"?>
<!DOCTYPE svg PUBLIC "-//W3C//DTD SVG 1.1//EN" 
  "http://www.w3.org/Graphics/SVG/1.1/DTD/svg11.dtd">
<svg width="105" height="175"
     xmlns="http://www.w3.org/2000/svg" version="1.1">
 <path d="  M 38,59  L 38,62  L 37,62  L 37,65  L 38,65  L 38,92  L 37,92  L 37,93  L 36,93  L 36,94  L 34,94  L 34,93  L 33,93  L 33,94  L 24,94  L 24,95  L 23,95  L 23,94  L 22,94  L 22,95  L 18,95  L 18,96  L 9,96  L 9,97  L 1,97  L 1,99  L 0,99  L 0,101  L 1,101  L 1,103  L 2,103  L 2,104  L 4,104  L 4,105  L 7,105  L 7,104  L 10,104  L 10,103  L 18,103  L 18,102  L 21,102  L 21,103  L 22,103  L 22,102  L 24,102  L 24,101  L 31,101  L 31,100  L 32,100  L 32,101  L 33,101  L 33,100  L 47,100  L 47,99  L 48,99  L 48,100  L 51,100  L 51,99  L 53,99  L 53,100  L 55,100  L 55,99  L 75,99  L 75,98  L 76,98  L 76,99  L 78,99  L 78,98  L 81,98  L 81,99  L 82,99  L 82,98  L 89,98  L 89,97  L 90,97  L 90,98  L 91,98  L 91,97  L 99,97  L 99,96  L 102,96  L 102,95  L 103,95  L 103,94  L 105,94  L 105,88  L 104,88  L 104,87  L 102,87  L 102,88  L 96,88  L 96,89  L 90,89  L 90,90  L 76,90  L 76,91  L 74,91  L 74,90  L 73,90  L 73,88  L 74,88  L 74,87  L 73,87  L 73,67  L 74,67  L 74,66  L 73,66  L 73,63  L 74,63  L 74,62  L 73,62  L 73,57  L 72,57  L 72,56  L 68,56  L 68,57  L 67,57  L 67,58  L 66,58  L 66,91  L 64,91  L 64,92  L 51,92  L 51,91  L 50,91  L 50,92  L 48,92  L 48,91  L 47,91  L 47,92  L 46,92  L 46,91  L 45,91  L 45,63  L 46,63  L 46,62  L 45,62  L 45,59  L 44,59  L 44,58  L 43,58  L 43,57  L 42,57  L 42,58  L 41,58  L 41,57  L 40,57  L 40,58  L 39,58  L 39,59  Z  " style="fill:rgb(0, 0, 0); fill-opacity:1.000; stroke:none;" />
 <path d="  M 46,2  L 44,2  L 44,4  L 43,4  L 43,7  L 42,7  L 42,9  L 41,9  L 41,11  L 40,11  L 40,12  L 39,12  L 39,14  L 38,14  L 38,15  L 37,15  L 37,16  L 36,16  L 36,18  L 35,18  L 35,19  L 34,19  L 34,20  L 33,20  L 33,21  L 32,21  L 32,23  L 31,23  L 31,25  L 30,25  L 30,27  L 29,27  L 29,28  L 28,28  L 28,30  L 27,30  L 27,32  L 25,32  L 25,34  L 24,34  L 24,35  L 23,35  L 23,36  L 22,36  L 22,38  L 21,38  L 21,39  L 20,39  L 20,40  L 19,40  L 19,41  L 18,41  L 18,42  L 16,42  L 16,43  L 15,43  L 15,45  L 14,45  L 14,46  L 12,46  L 12,47  L 11,47  L 11,48  L 10,48  L 10,50  L 11,50  L 11,52  L 12,52  L 12,53  L 13,53  L 13,54  L 16,54  L 16,53  L 18,53  L 18,51  L 19,51  L 19,50  L 21,50  L 21,49  L 22,49  L 22,48  L 23,48  L 23,47  L 24,47  L 24,46  L 25,46  L 25,44  L 27,44  L 27,43  L 28,43  L 28,41  L 29,41  L 29,40  L 31,40  L 31,39  L 32,39  L 32,37  L 33,37  L 33,35  L 34,35  L 34,33  L 36,33  L 36,31  L 37,31  L 37,28  L 39,28  L 39,26  L 40,26  L 40,23  L 41,23  L 41,22  L 42,22  L 42,21  L 43,21  L 43,19  L 44,19  L 44,17  L 47,17  L 47,16  L 48,16  L 48,17  L 49,17  L 49,18  L 48,18  L 48,19  L 49,19  L 49,20  L 50,20  L 50,21  L 53,21  L 53,22  L 55,22  L 55,23  L 56,23  L 56,24  L 59,24  L 59,25  L 60,25  L 60,26  L 62,26  L 62,27  L 63,27  L 63,28  L 66,28  L 66,29  L 68,29  L 68,30  L 71,30  L 71,31  L 72,31  L 72,32  L 74,32  L 74,33  L 77,33  L 77,34  L 78,34  L 78,33  L 79,33  L 79,34  L 80,34  L 80,35  L 83,35  L 83,36  L 86,36  L 86,37  L 87,37  L 87,38  L 88,38  L 88,39  L 91,39  L 91,40  L 92,40  L 92,41  L 94,41  L 94,40  L 97,40  L 97,39  L 98,39  L 98,37  L 97,37  L 97,35  L 96,35  L 96,34  L 95,34  L 95,33  L 94,33  L 94,32  L 92,32  L 92,31  L 90,31  L 90,30  L 88,30  L 88,29  L 86,29  L 86,28  L 83,28  L 83,27  L 80,27  L 80,26  L 77,26  L 77,25  L 75,25  L 75,24  L 73,24  L 73,23  L 71,23  L 71,22  L 69,22  L 69,21  L 67,21  L 67,20  L 65,20  L 65,19  L 64,19  L 64,18  L 62,18  L 62,17  L 60,17  L 60,16  L 59,16  L 59,15  L 58,15  L 58,14  L 57,14  L 57,13  L 55,13  L 55,12  L 54,12  L 54,11  L 53,11  L 53,9  L 52,9  L 52,8  L 51,8  L 51,3  L 50,3  L 50,1  L 48,1  L 48,0  L 47,0  L 47,1  L 46,1  Z  " style="fill:rgb(0, 0, 0); fill-opacity:1.000; stroke:none;" />
 <path d="  M 70,162  L 69,162  L 69,168  L 68,168  L 68,173  L 69,173  L 69,175  L 74,175  L 74,174  L 75,174  L 75,172  L 76,172  L 76,167  L 77,167  L 77,164  L 78,164  L 78,159  L 79,159  L 79,153  L 80,153  L 80,148  L 81,148  L 81,141  L 82,141  L 82,136  L 83,136  L 83,133  L 84,133  L 84,129  L 85,129  L 85,123  L 84,123  L 84,121  L 83,121  L 83,120  L 82,120  L 82,119  L 81,119  L 81,118  L 80,118  L 80,117  L 78,117  L 78,116  L 64,116  L 64,117  L 63,117  L 63,116  L 62,116  L 62,117  L 45,117  L 45,118  L 36,118  L 36,119  L 35,119  L 35,118  L 34,118  L 34,119  L 27,119  L 27,120  L 22,120  L 22,121  L 21,121  L 21,126  L 22,126  L 22,127  L 26,127  L 26,128  L 29,128  L 29,127  L 34,127  L 34,126  L 37,126  L 37,127  L 38,127  L 38,126  L 43,126  L 43,125  L 44,125  L 44,126  L 45,126  L 45,125  L 46,125  L 46,126  L 47,126  L 47,125  L 59,125  L 59,124  L 60,124  L 60,125  L 61,125  L 61,124  L 72,124  L 72,125  L 75,125  L 75,127  L 76,127  L 76,128  L 75,128  L 75,129  L 76,129  L 76,130  L 75,130  L 75,132  L 74,132  L 74,136  L 73,136  L 73,144  L 72,144  L 72,150  L 71,150  L 71,156  L 70,156  Z  " style="fill:rgb(0, 0, 0); fill-opacity:1.000; stroke:none;" />
</svg>
