<?xml version="1.0" encoding="UTF-8" standalone="no"?>
<!DOCTYPE svg PUBLIC "-//W3C//DTD SVG 1.1//EN" 
  "http://www.w3.org/Graphics/SVG/1.1/DTD/svg11.dtd">
<svg width="110" height="163"
     xmlns="http://www.w3.org/2000/svg" version="1.1">
 <path d="  M 45,61  L 46,61  L 46,59  L 45,59  L 45,55  L 44,55  L 44,54  L 41,54  L 41,55  L 39,55  L 39,56  L 38,56  L 38,58  L 39,58  L 39,59  L 38,59  L 38,68  L 39,68  L 39,69  L 38,69  L 38,70  L 39,70  L 39,71  L 38,71  L 38,89  L 39,89  L 39,91  L 38,91  L 38,92  L 34,92  L 34,93  L 25,93  L 25,94  L 16,94  L 16,95  L 15,95  L 15,94  L 14,94  L 14,95  L 3,95  L 3,96  L 1,96  L 1,99  L 0,99  L 0,101  L 1,101  L 1,102  L 5,102  L 5,103  L 6,103  L 6,102  L 16,102  L 16,101  L 17,101  L 17,102  L 18,102  L 18,101  L 24,101  L 24,100  L 31,100  L 31,99  L 38,99  L 38,98  L 39,98  L 39,99  L 40,99  L 40,98  L 43,98  L 43,99  L 44,99  L 44,98  L 51,98  L 51,99  L 52,99  L 52,98  L 66,98  L 66,97  L 84,97  L 84,96  L 85,96  L 85,97  L 86,97  L 86,96  L 87,96  L 87,97  L 88,97  L 88,96  L 100,96  L 100,95  L 102,95  L 102,96  L 103,96  L 103,95  L 104,95  L 104,94  L 106,94  L 106,93  L 108,93  L 108,90  L 109,90  L 109,88  L 108,88  L 108,87  L 107,87  L 107,86  L 103,86  L 103,87  L 99,87  L 99,88  L 96,88  L 96,87  L 95,87  L 95,88  L 93,88  L 93,89  L 82,89  L 82,90  L 80,90  L 80,89  L 78,89  L 78,90  L 74,90  L 74,89  L 73,89  L 73,64  L 74,64  L 74,63  L 73,63  L 73,62  L 74,62  L 74,53  L 73,53  L 73,52  L 69,52  L 69,53  L 68,53  L 68,54  L 67,54  L 67,60  L 66,60  L 66,62  L 67,62  L 67,67  L 66,67  L 66,85  L 65,85  L 65,87  L 66,87  L 66,90  L 64,90  L 64,91  L 46,91  L 46,89  L 45,89  L 45,88  L 46,88  L 46,87  L 45,87  Z  " style="fill:rgb(0, 0, 0); fill-opacity:1.000; stroke:none;" />
 <path d="  M 82,25  L 82,24  L 78,24  L 78,23  L 76,23  L 76,22  L 74,22  L 74,21  L 72,21  L 72,20  L 69,20  L 69,19  L 68,19  L 68,18  L 67,18  L 67,17  L 65,17  L 65,16  L 63,16  L 63,15  L 62,15  L 62,14  L 61,14  L 61,13  L 60,13  L 60,12  L 59,12  L 59,11  L 58,11  L 58,10  L 57,10  L 57,9  L 56,9  L 56,8  L 55,8  L 55,6  L 54,6  L 54,4  L 53,4  L 53,2  L 52,2  L 52,1  L 51,1  L 51,0  L 48,0  L 48,2  L 47,2  L 47,3  L 46,3  L 46,5  L 45,5  L 45,7  L 44,7  L 44,9  L 43,9  L 43,11  L 42,11  L 42,12  L 41,12  L 41,13  L 40,13  L 40,15  L 39,15  L 39,16  L 38,16  L 38,17  L 37,17  L 37,19  L 36,19  L 36,20  L 35,20  L 35,21  L 34,21  L 34,23  L 33,23  L 33,25  L 32,25  L 32,27  L 31,27  L 31,29  L 30,29  L 30,31  L 29,31  L 29,33  L 28,33  L 28,35  L 27,35  L 27,36  L 26,36  L 26,37  L 25,37  L 25,39  L 23,39  L 23,40  L 22,40  L 22,41  L 21,41  L 21,42  L 20,42  L 20,43  L 19,43  L 19,44  L 18,44  L 18,45  L 16,45  L 16,46  L 15,46  L 15,47  L 14,47  L 14,48  L 13,48  L 13,49  L 14,49  L 14,53  L 15,53  L 15,54  L 18,54  L 18,53  L 19,53  L 19,52  L 20,52  L 20,51  L 22,51  L 22,50  L 23,50  L 23,49  L 25,49  L 25,47  L 26,47  L 26,46  L 27,46  L 27,45  L 29,45  L 29,44  L 30,44  L 30,43  L 31,43  L 31,42  L 32,42  L 32,40  L 33,40  L 33,38  L 34,38  L 34,37  L 35,37  L 35,35  L 36,35  L 36,34  L 37,34  L 37,32  L 38,32  L 38,30  L 39,30  L 39,29  L 40,29  L 40,27  L 41,27  L 41,26  L 42,26  L 42,24  L 43,24  L 43,22  L 44,22  L 44,21  L 45,21  L 45,20  L 46,20  L 46,18  L 48,18  L 48,17  L 49,17  L 49,18  L 52,18  L 52,19  L 56,19  L 56,21  L 59,21  L 59,22  L 61,22  L 61,23  L 63,23  L 63,24  L 64,24  L 64,25  L 65,25  L 65,26  L 68,26  L 68,27  L 69,27  L 69,28  L 72,28  L 72,29  L 73,29  L 73,30  L 74,30  L 74,29  L 75,29  L 75,30  L 77,30  L 77,31  L 79,31  L 79,32  L 83,32  L 83,33  L 85,33  L 85,34  L 88,34  L 88,35  L 89,35  L 89,36  L 92,36  L 92,37  L 93,37  L 93,38  L 98,38  L 98,37  L 99,37  L 99,36  L 100,36  L 100,34  L 99,34  L 99,33  L 98,33  L 98,31  L 97,31  L 97,30  L 95,30  L 95,29  L 93,29  L 93,28  L 90,28  L 90,27  L 88,27  L 88,26  L 85,26  L 85,25  Z  " style="fill:rgb(0, 0, 0); fill-opacity:1.000; stroke:none;" />
 <path d="  M 63,142  L 63,143  L 65,143  L 65,144  L 66,144  L 66,145  L 67,145  L 67,146  L 70,146  L 70,147  L 71,147  L 71,148  L 73,148  L 73,149  L 75,149  L 75,150  L 76,150  L 76,149  L 77,149  L 77,150  L 79,150  L 79,151  L 81,151  L 81,152  L 83,152  L 83,153  L 85,153  L 85,154  L 90,154  L 90,155  L 93,155  L 93,156  L 95,156  L 95,157  L 96,157  L 96,158  L 97,158  L 97,159  L 99,159  L 99,160  L 100,160  L 100,161  L 103,161  L 103,160  L 106,160  L 106,159  L 108,159  L 108,158  L 110,158  L 110,154  L 108,154  L 108,153  L 102,153  L 102,152  L 99,152  L 99,151  L 97,151  L 97,150  L 96,150  L 96,149  L 92,149  L 92,148  L 91,148  L 91,147  L 89,147  L 89,146  L 86,146  L 86,145  L 84,145  L 84,144  L 81,144  L 81,143  L 79,143  L 79,142  L 77,142  L 77,141  L 75,141  L 75,140  L 73,140  L 73,139  L 71,139  L 71,138  L 70,138  L 70,137  L 68,137  L 68,135  L 66,135  L 66,134  L 64,134  L 64,133  L 62,133  L 62,132  L 61,132  L 61,131  L 59,131  L 59,130  L 58,130  L 58,126  L 59,126  L 59,125  L 60,125  L 60,123  L 61,123  L 61,122  L 62,122  L 62,120  L 64,120  L 64,118  L 65,118  L 65,117  L 66,117  L 66,116  L 67,116  L 67,115  L 69,115  L 69,114  L 71,114  L 71,112  L 72,112  L 72,111  L 73,111  L 73,107  L 72,107  L 72,106  L 70,106  L 70,105  L 68,105  L 68,106  L 65,106  L 65,107  L 64,107  L 64,108  L 63,108  L 63,109  L 62,109  L 62,110  L 61,110  L 61,111  L 60,111  L 60,112  L 59,112  L 59,114  L 58,114  L 58,115  L 55,115  L 55,116  L 54,116  L 54,118  L 53,118  L 53,120  L 52,120  L 52,122  L 51,122  L 51,123  L 50,123  L 50,124  L 49,124  L 49,126  L 48,126  L 48,127  L 47,127  L 47,128  L 46,128  L 46,129  L 45,129  L 45,131  L 44,131  L 44,133  L 42,133  L 42,134  L 41,134  L 41,135  L 40,135  L 40,137  L 39,137  L 39,138  L 38,138  L 38,140  L 37,140  L 37,141  L 36,141  L 36,142  L 35,142  L 35,143  L 34,143  L 34,144  L 33,144  L 33,145  L 32,145  L 32,147  L 30,147  L 30,149  L 29,149  L 29,150  L 27,150  L 27,151  L 26,151  L 26,153  L 25,153  L 25,154  L 23,154  L 23,155  L 22,155  L 22,156  L 21,156  L 21,158  L 20,158  L 20,160  L 19,160  L 19,162  L 20,162  L 20,163  L 26,163  L 26,162  L 28,162  L 28,161  L 29,161  L 29,160  L 30,160  L 30,159  L 31,159  L 31,158  L 32,158  L 32,157  L 34,157  L 34,155  L 36,155  L 36,154  L 37,154  L 37,153  L 38,153  L 38,151  L 40,151  L 40,149  L 41,149  L 41,148  L 42,148  L 42,147  L 43,147  L 43,146  L 44,146  L 44,145  L 45,145  L 45,144  L 46,144  L 46,143  L 47,143  L 47,142  L 48,142  L 48,140  L 49,140  L 49,138  L 50,138  L 50,137  L 53,137  L 53,136  L 54,136  L 54,137  L 55,137  L 55,138  L 57,138  L 57,139  L 58,139  L 58,140  L 59,140  L 59,141  L 61,141  L 61,142  Z  " style="fill:rgb(0, 0, 0); fill-opacity:1.000; stroke:none;" />
</svg>
