<?xml version="1.0" encoding="UTF-8" standalone="no"?>
<!DOCTYPE svg PUBLIC "-//W3C//DTD SVG 1.1//EN" 
  "http://www.w3.org/Graphics/SVG/1.1/DTD/svg11.dtd">
<svg width="110" height="154"
     xmlns="http://www.w3.org/2000/svg" version="1.1">
 <path d="  M 62,94  L 61,94  L 61,87  L 60,87  L 60,85  L 61,85  L 61,84  L 65,84  L 65,85  L 66,85  L 66,84  L 68,84  L 68,85  L 69,85  L 69,84  L 70,84  L 70,85  L 73,85  L 73,84  L 74,84  L 74,85  L 77,85  L 77,84  L 78,84  L 78,85  L 81,85  L 81,84  L 92,84  L 92,83  L 97,83  L 97,82  L 101,82  L 101,81  L 105,81  L 105,80  L 106,80  L 106,79  L 108,79  L 108,78  L 109,78  L 109,77  L 110,77  L 110,71  L 106,71  L 106,72  L 104,72  L 104,73  L 102,73  L 102,74  L 101,74  L 101,75  L 99,75  L 99,76  L 92,76  L 92,77  L 88,77  L 88,78  L 38,78  L 38,79  L 37,79  L 37,78  L 36,78  L 36,79  L 27,79  L 27,80  L 19,80  L 19,81  L 18,81  L 18,80  L 16,80  L 16,81  L 11,81  L 11,82  L 6,82  L 6,83  L 1,83  L 1,86  L 0,86  L 0,89  L 10,89  L 10,88  L 15,88  L 15,87  L 21,87  L 21,86  L 33,86  L 33,85  L 44,85  L 44,84  L 54,84  L 54,85  L 55,85  L 55,87  L 54,87  L 54,89  L 55,89  L 55,90  L 54,90  L 54,92  L 55,92  L 55,101  L 56,101  L 56,102  L 55,102  L 55,103  L 56,103  L 56,104  L 55,104  L 55,105  L 56,105  L 56,114  L 55,114  L 55,122  L 54,122  L 54,127  L 53,127  L 53,132  L 52,132  L 52,133  L 53,133  L 53,135  L 52,135  L 52,147  L 53,147  L 53,148  L 52,148  L 52,149  L 53,149  L 53,153  L 54,153  L 54,154  L 59,154  L 59,137  L 60,137  L 60,136  L 59,136  L 59,135  L 60,135  L 60,130  L 61,130  L 61,122  L 62,122  L 62,109  L 63,109  L 63,108  L 62,108  L 62,105  L 63,105  L 63,104  L 62,104  Z  " style="fill:rgb(0, 0, 0); fill-opacity:1.000; stroke:none;" />
 <path d="  M 17,46  L 15,46  L 15,48  L 14,48  L 14,49  L 13,49  L 13,50  L 11,50  L 11,56  L 12,56  L 12,57  L 13,57  L 13,58  L 14,58  L 14,57  L 17,57  L 17,55  L 18,55  L 18,54  L 19,54  L 19,53  L 20,53  L 20,52  L 21,52  L 21,51  L 22,51  L 22,50  L 24,50  L 24,48  L 25,48  L 25,47  L 26,47  L 26,46  L 27,46  L 27,45  L 28,45  L 28,44  L 29,44  L 29,43  L 30,43  L 30,41  L 31,41  L 31,40  L 32,40  L 32,38  L 33,38  L 33,37  L 34,37  L 34,35  L 35,35  L 35,33  L 36,33  L 36,32  L 37,32  L 37,30  L 38,30  L 38,29  L 39,29  L 39,27  L 40,27  L 40,25  L 41,25  L 41,23  L 42,23  L 42,22  L 43,22  L 43,21  L 45,21  L 45,19  L 47,19  L 47,20  L 48,20  L 48,21  L 50,21  L 50,22  L 52,22  L 52,23  L 53,23  L 53,24  L 56,24  L 56,25  L 57,25  L 57,26  L 60,26  L 60,27  L 62,27  L 62,28  L 64,28  L 64,29  L 65,29  L 65,30  L 67,30  L 67,31  L 69,31  L 69,32  L 72,32  L 72,33  L 73,33  L 73,34  L 74,34  L 74,35  L 76,35  L 76,36  L 77,36  L 77,37  L 78,37  L 78,38  L 80,38  L 80,39  L 82,39  L 82,40  L 84,40  L 84,41  L 85,41  L 85,42  L 88,42  L 88,43  L 89,43  L 89,44  L 90,44  L 90,45  L 93,45  L 93,46  L 94,46  L 94,45  L 95,45  L 95,44  L 96,44  L 96,43  L 95,43  L 95,40  L 94,40  L 94,39  L 92,39  L 92,38  L 91,38  L 91,37  L 89,37  L 89,36  L 88,36  L 88,35  L 86,35  L 86,34  L 85,34  L 85,33  L 84,33  L 84,32  L 82,32  L 82,31  L 81,31  L 81,30  L 78,30  L 78,29  L 76,29  L 76,28  L 75,28  L 75,27  L 72,27  L 72,26  L 70,26  L 70,25  L 68,25  L 68,24  L 66,24  L 66,23  L 65,23  L 65,22  L 63,22  L 63,21  L 61,21  L 61,20  L 60,20  L 60,19  L 58,19  L 58,18  L 57,18  L 57,17  L 55,17  L 55,16  L 54,16  L 54,15  L 53,15  L 53,9  L 54,9  L 54,6  L 53,6  L 53,4  L 52,4  L 52,2  L 51,2  L 51,0  L 48,0  L 48,1  L 47,1  L 47,2  L 46,2  L 46,4  L 45,4  L 45,6  L 44,6  L 44,8  L 43,8  L 43,9  L 42,9  L 42,10  L 41,10  L 41,11  L 40,11  L 40,12  L 39,12  L 39,14  L 38,14  L 38,16  L 37,16  L 37,17  L 36,17  L 36,18  L 35,18  L 35,20  L 34,20  L 34,22  L 33,22  L 33,24  L 32,24  L 32,25  L 31,25  L 31,27  L 30,27  L 30,30  L 29,30  L 29,32  L 28,32  L 28,33  L 27,33  L 27,35  L 26,35  L 26,36  L 25,36  L 25,38  L 24,38  L 24,39  L 23,39  L 23,40  L 22,40  L 22,41  L 21,41  L 21,43  L 19,43  L 19,44  L 18,44  L 18,45  L 17,45  Z  " style="fill:rgb(0, 0, 0); fill-opacity:1.000; stroke:none;" />
</svg>
