<?xml version="1.0" encoding="UTF-8" standalone="no"?>
<!DOCTYPE svg PUBLIC "-//W3C//DTD SVG 1.1//EN" 
  "http://www.w3.org/Graphics/SVG/1.1/DTD/svg11.dtd">
<svg width="103" height="166"
     xmlns="http://www.w3.org/2000/svg" version="1.1">
 <path d="  M 58,119  L 58,118  L 62,118  L 62,117  L 63,117  L 63,118  L 64,118  L 64,117  L 67,117  L 67,116  L 73,116  L 73,115  L 77,115  L 77,114  L 78,114  L 78,115  L 79,115  L 79,114  L 86,114  L 86,113  L 87,113  L 87,110  L 88,110  L 88,109  L 87,109  L 87,107  L 86,107  L 86,106  L 79,106  L 79,107  L 73,107  L 73,108  L 69,108  L 69,109  L 63,109  L 63,110  L 59,110  L 59,96  L 60,96  L 60,95  L 59,95  L 59,92  L 60,92  L 60,91  L 59,91  L 59,90  L 60,90  L 60,78  L 61,78  L 61,77  L 63,77  L 63,76  L 82,76  L 82,75  L 84,75  L 84,76  L 85,76  L 85,75  L 94,75  L 94,74  L 98,74  L 98,72  L 100,72  L 100,71  L 101,71  L 101,70  L 103,70  L 103,64  L 101,64  L 101,63  L 100,63  L 100,64  L 96,64  L 96,65  L 93,65  L 93,66  L 90,66  L 90,67  L 82,67  L 82,68  L 75,68  L 75,69  L 68,69  L 68,70  L 67,70  L 67,69  L 66,69  L 66,70  L 33,70  L 33,71  L 32,71  L 32,70  L 31,70  L 31,71  L 19,71  L 19,72  L 13,72  L 13,73  L 8,73  L 8,74  L 4,74  L 4,75  L 2,75  L 2,77  L 0,77  L 0,78  L 3,78  L 3,79  L 13,79  L 13,78  L 26,78  L 26,77  L 27,77  L 27,78  L 28,78  L 28,77  L 49,77  L 49,76  L 53,76  L 53,98  L 52,98  L 52,101  L 53,101  L 53,102  L 52,102  L 52,112  L 51,112  L 51,113  L 49,113  L 49,112  L 48,112  L 48,113  L 40,113  L 40,114  L 36,114  L 36,115  L 29,115  L 29,116  L 26,116  L 26,117  L 25,117  L 25,118  L 23,118  L 23,119  L 20,119  L 20,120  L 19,120  L 19,121  L 20,121  L 20,122  L 21,122  L 21,124  L 22,124  L 22,135  L 21,135  L 21,136  L 22,136  L 22,139  L 21,139  L 21,140  L 22,140  L 22,158  L 23,158  L 23,160  L 24,160  L 24,162  L 25,162  L 25,164  L 26,164  L 26,165  L 27,165  L 27,166  L 48,166  L 48,165  L 52,165  L 52,164  L 57,164  L 57,163  L 61,163  L 61,162  L 64,162  L 64,161  L 69,161  L 69,160  L 74,160  L 74,159  L 77,159  L 77,158  L 82,158  L 82,157  L 85,157  L 85,156  L 88,156  L 88,155  L 90,155  L 90,154  L 92,154  L 92,153  L 93,153  L 93,149  L 91,149  L 91,148  L 89,148  L 89,149  L 88,149  L 88,148  L 87,148  L 87,149  L 85,149  L 85,150  L 82,150  L 82,151  L 77,151  L 77,152  L 73,152  L 73,153  L 67,153  L 67,154  L 64,154  L 64,155  L 57,155  L 57,156  L 54,156  L 54,157  L 49,157  L 49,158  L 46,158  L 46,159  L 30,159  L 30,156  L 29,156  L 29,145  L 28,145  L 28,144  L 29,144  L 29,126  L 30,126  L 30,124  L 31,124  L 31,123  L 33,123  L 33,122  L 36,122  L 36,121  L 40,121  L 40,120  L 47,120  L 47,119  L 48,119  L 48,120  L 49,120  L 49,119  Z  " style="fill:rgb(0, 0, 0); fill-opacity:1.000; stroke:none;" />
 <path d="  M 31,16  L 31,17  L 30,17  L 30,19  L 29,19  L 29,20  L 28,20  L 28,22  L 27,22  L 27,23  L 26,23  L 26,26  L 25,26  L 25,28  L 24,28  L 24,29  L 23,29  L 23,31  L 22,31  L 22,33  L 21,33  L 21,34  L 20,34  L 20,35  L 19,35  L 19,37  L 18,37  L 18,38  L 17,38  L 17,39  L 16,39  L 16,40  L 15,40  L 15,42  L 14,42  L 14,43  L 13,43  L 13,44  L 12,44  L 12,45  L 11,45  L 11,46  L 10,46  L 10,47  L 9,47  L 9,48  L 8,48  L 8,54  L 9,54  L 9,55  L 10,55  L 10,57  L 11,57  L 11,56  L 12,56  L 12,55  L 13,55  L 13,54  L 14,54  L 14,53  L 15,53  L 15,52  L 16,52  L 16,51  L 18,51  L 18,50  L 19,50  L 19,48  L 20,48  L 20,46  L 21,46  L 21,45  L 22,45  L 22,44  L 23,44  L 23,42  L 24,42  L 24,41  L 26,41  L 26,39  L 27,39  L 27,37  L 28,37  L 28,35  L 29,35  L 29,34  L 30,34  L 30,32  L 31,32  L 31,30  L 32,30  L 32,29  L 33,29  L 33,28  L 34,28  L 34,26  L 35,26  L 35,24  L 36,24  L 36,22  L 37,22  L 37,21  L 38,21  L 38,19  L 39,19  L 39,18  L 40,18  L 40,16  L 41,16  L 41,15  L 43,15  L 43,16  L 44,16  L 44,15  L 45,15  L 45,17  L 46,17  L 46,18  L 47,18  L 47,17  L 48,17  L 48,18  L 50,18  L 50,19  L 51,19  L 51,20  L 53,20  L 53,21  L 54,21  L 54,22  L 55,22  L 55,23  L 57,23  L 57,24  L 58,24  L 58,25  L 59,25  L 59,26  L 60,26  L 60,27  L 62,27  L 62,28  L 63,28  L 63,29  L 64,29  L 64,28  L 65,28  L 65,30  L 67,30  L 67,31  L 69,31  L 69,32  L 71,32  L 71,33  L 73,33  L 73,34  L 75,34  L 75,35  L 77,35  L 77,36  L 78,36  L 78,37  L 79,37  L 79,38  L 80,38  L 80,39  L 82,39  L 82,40  L 83,40  L 83,41  L 85,41  L 85,42  L 86,42  L 86,43  L 89,43  L 89,42  L 90,42  L 90,43  L 91,43  L 91,41  L 92,41  L 92,39  L 91,39  L 91,37  L 90,37  L 90,36  L 88,36  L 88,35  L 87,35  L 87,34  L 85,34  L 85,33  L 84,33  L 84,32  L 82,32  L 82,31  L 81,31  L 81,30  L 79,30  L 79,29  L 78,29  L 78,28  L 75,28  L 75,27  L 74,27  L 74,26  L 71,26  L 71,25  L 70,25  L 70,24  L 69,24  L 69,23  L 67,23  L 67,21  L 64,21  L 64,20  L 63,20  L 63,19  L 62,19  L 62,18  L 61,18  L 61,17  L 60,17  L 60,16  L 59,16  L 59,15  L 57,15  L 57,14  L 56,14  L 56,13  L 55,13  L 55,12  L 54,12  L 54,11  L 53,11  L 53,10  L 52,10  L 52,9  L 51,9  L 51,7  L 50,7  L 50,6  L 49,6  L 49,5  L 48,5  L 48,4  L 47,4  L 47,2  L 45,2  L 45,1  L 44,1  L 44,0  L 43,0  L 43,1  L 41,1  L 41,3  L 39,3  L 39,6  L 38,6  L 38,7  L 37,7  L 37,9  L 36,9  L 36,10  L 35,10  L 35,12  L 34,12  L 34,13  L 33,13  L 33,15  L 32,15  L 32,16  Z  " style="fill:rgb(0, 0, 0); fill-opacity:1.000; stroke:none;" />
</svg>
