<?xml version="1.0" encoding="UTF-8" standalone="no"?>
<!DOCTYPE svg PUBLIC "-//W3C//DTD SVG 1.1//EN" 
  "http://www.w3.org/Graphics/SVG/1.1/DTD/svg11.dtd">
<svg width="105" height="158"
     xmlns="http://www.w3.org/2000/svg" version="1.1">
 <path d="  M 62,95  L 62,92  L 61,92  L 61,91  L 62,91  L 62,88  L 61,88  L 61,87  L 62,87  L 62,84  L 61,84  L 61,83  L 62,83  L 62,80  L 61,80  L 61,79  L 62,79  L 62,76  L 61,76  L 61,75  L 62,75  L 62,72  L 64,72  L 64,71  L 65,71  L 65,72  L 66,72  L 66,71  L 77,71  L 77,70  L 84,70  L 84,69  L 91,69  L 91,68  L 97,68  L 97,67  L 101,67  L 101,66  L 102,66  L 102,65  L 103,65  L 103,64  L 104,64  L 104,63  L 105,63  L 105,59  L 104,59  L 104,58  L 102,58  L 102,57  L 100,57  L 100,58  L 98,58  L 98,57  L 97,57  L 97,58  L 95,58  L 95,59  L 94,59  L 94,58  L 93,58  L 93,59  L 92,59  L 92,60  L 87,60  L 87,61  L 86,61  L 86,60  L 84,60  L 84,61  L 80,61  L 80,62  L 79,62  L 79,61  L 77,61  L 77,62  L 73,62  L 73,63  L 70,63  L 70,64  L 69,64  L 69,63  L 68,63  L 68,64  L 63,64  L 63,65  L 62,65  L 62,64  L 61,64  L 61,65  L 45,65  L 45,66  L 35,66  L 35,67  L 33,67  L 33,66  L 32,66  L 32,67  L 22,67  L 22,68  L 18,68  L 18,69  L 15,69  L 15,70  L 9,70  L 9,71  L 5,71  L 5,72  L 2,72  L 2,73  L 1,73  L 1,74  L 0,74  L 0,77  L 11,77  L 11,76  L 21,76  L 21,75  L 27,75  L 27,74  L 37,74  L 37,73  L 43,73  L 43,72  L 46,72  L 46,73  L 47,73  L 47,72  L 49,72  L 49,73  L 50,73  L 50,72  L 51,72  L 51,71  L 53,71  L 53,72  L 54,72  L 54,75  L 55,75  L 55,77  L 54,77  L 54,78  L 55,78  L 55,84  L 54,84  L 54,85  L 55,85  L 55,88  L 54,88  L 54,89  L 55,89  L 55,92  L 54,92  L 54,93  L 55,93  L 55,94  L 54,94  L 54,95  L 55,95  L 55,105  L 54,105  L 54,107  L 49,107  L 49,106  L 43,106  L 43,107  L 42,107  L 42,106  L 40,106  L 40,107  L 36,107  L 36,108  L 32,108  L 32,109  L 27,109  L 27,110  L 26,110  L 26,109  L 25,109  L 25,110  L 23,110  L 23,111  L 20,111  L 20,112  L 18,112  L 18,113  L 17,113  L 17,116  L 18,116  L 18,117  L 19,117  L 19,116  L 20,116  L 20,117  L 22,117  L 22,116  L 29,116  L 29,117  L 37,117  L 37,119  L 38,119  L 38,126  L 37,126  L 37,127  L 38,127  L 38,128  L 37,128  L 37,131  L 38,131  L 38,132  L 37,132  L 37,142  L 36,142  L 36,148  L 37,148  L 37,150  L 28,150  L 28,151  L 25,151  L 25,152  L 22,152  L 22,153  L 21,153  L 21,155  L 22,155  L 22,157  L 24,157  L 24,158  L 55,158  L 55,157  L 65,157  L 65,156  L 77,156  L 77,155  L 78,155  L 78,156  L 79,156  L 79,155  L 86,155  L 86,154  L 88,154  L 88,153  L 90,153  L 90,151  L 91,151  L 91,150  L 90,150  L 90,149  L 88,149  L 88,148  L 86,148  L 86,149  L 85,149  L 85,148  L 82,148  L 82,149  L 81,149  L 81,148  L 80,148  L 80,149  L 77,149  L 77,148  L 76,148  L 76,138  L 75,138  L 75,137  L 76,137  L 76,111  L 75,111  L 75,110  L 76,110  L 76,109  L 84,109  L 84,108  L 87,108  L 87,109  L 88,109  L 88,108  L 92,108  L 92,107  L 93,107  L 93,106  L 94,106  L 94,102  L 93,102  L 93,100  L 84,100  L 84,101  L 79,101  L 79,102  L 71,102  L 71,103  L 69,103  L 69,102  L 68,102  L 68,103  L 65,103  L 65,104  L 64,104  L 64,103  L 62,103  L 62,102  L 61,102  L 61,95  Z  M 43,139  L 44,139  L 44,123  L 45,123  L 45,119  L 44,119  L 44,116  L 45,116  L 45,115  L 47,115  L 47,114  L 49,114  L 49,113  L 50,113  L 50,114  L 53,114  L 53,113  L 57,113  L 57,112  L 58,112  L 58,113  L 59,113  L 59,112  L 65,112  L 65,111  L 69,111  L 69,113  L 70,113  L 70,133  L 69,133  L 69,134  L 70,134  L 70,136  L 69,136  L 69,148  L 70,148  L 70,149  L 69,149  L 69,150  L 51,150  L 51,151  L 43,151  Z  " style="fill:rgb(0, 0, 0); fill-opacity:1.000; stroke:none;" />
 <path d="  M 40,21  L 40,20  L 41,20  L 41,18  L 42,18  L 42,17  L 43,17  L 43,16  L 44,16  L 44,15  L 45,15  L 45,16  L 46,16  L 46,17  L 49,17  L 49,18  L 52,18  L 52,19  L 53,19  L 53,20  L 55,20  L 55,21  L 57,21  L 57,22  L 58,22  L 58,23  L 61,23  L 61,24  L 62,24  L 62,25  L 63,25  L 63,26  L 65,26  L 65,27  L 68,27  L 68,28  L 70,28  L 70,29  L 71,29  L 71,30  L 74,30  L 74,31  L 77,31  L 77,32  L 79,32  L 79,33  L 81,33  L 81,34  L 82,34  L 82,35  L 83,35  L 83,34  L 84,34  L 84,35  L 85,35  L 85,36  L 86,36  L 86,37  L 87,37  L 87,38  L 89,38  L 89,39  L 95,39  L 95,38  L 96,38  L 96,35  L 95,35  L 95,34  L 94,34  L 94,33  L 92,33  L 92,32  L 90,32  L 90,31  L 88,31  L 88,30  L 87,30  L 87,29  L 86,29  L 86,28  L 83,28  L 83,27  L 82,27  L 82,26  L 79,26  L 79,25  L 77,25  L 77,24  L 74,24  L 74,23  L 72,23  L 72,22  L 71,22  L 71,21  L 70,21  L 70,20  L 67,20  L 67,19  L 65,19  L 65,18  L 64,18  L 64,17  L 62,17  L 62,16  L 61,16  L 61,15  L 60,15  L 60,14  L 59,14  L 59,13  L 58,13  L 58,12  L 56,12  L 56,11  L 55,11  L 55,9  L 54,9  L 54,8  L 53,8  L 53,7  L 52,7  L 52,5  L 51,5  L 51,4  L 50,4  L 50,3  L 49,3  L 49,2  L 48,2  L 48,1  L 46,1  L 46,0  L 45,0  L 45,1  L 44,1  L 44,2  L 43,2  L 43,3  L 42,3  L 42,5  L 41,5  L 41,6  L 40,6  L 40,8  L 39,8  L 39,9  L 38,9  L 38,10  L 37,10  L 37,12  L 36,12  L 36,13  L 35,13  L 35,15  L 34,15  L 34,16  L 33,16  L 33,17  L 32,17  L 32,18  L 31,18  L 31,20  L 30,20  L 30,22  L 29,22  L 29,24  L 28,24  L 28,25  L 27,25  L 27,27  L 26,27  L 26,28  L 25,28  L 25,30  L 24,30  L 24,32  L 23,32  L 23,33  L 22,33  L 22,34  L 21,34  L 21,35  L 20,35  L 20,36  L 19,36  L 19,37  L 18,37  L 18,38  L 17,38  L 17,39  L 16,39  L 16,40  L 15,40  L 15,41  L 14,41  L 14,42  L 13,42  L 13,43  L 12,43  L 12,44  L 11,44  L 11,45  L 10,45  L 10,46  L 9,46  L 9,52  L 10,52  L 10,54  L 13,54  L 13,53  L 14,53  L 14,52  L 15,52  L 15,51  L 16,51  L 16,50  L 17,50  L 17,49  L 18,49  L 18,48  L 19,48  L 19,47  L 20,47  L 20,46  L 21,46  L 21,45  L 22,45  L 22,44  L 23,44  L 23,42  L 25,42  L 25,41  L 26,41  L 26,40  L 27,40  L 27,38  L 28,38  L 28,37  L 29,37  L 29,36  L 30,36  L 30,35  L 31,35  L 31,33  L 32,33  L 32,32  L 33,32  L 33,31  L 34,31  L 34,29  L 35,29  L 35,28  L 36,28  L 36,25  L 37,25  L 37,24  L 38,24  L 38,22  L 39,22  L 39,21  Z  " style="fill:rgb(0, 0, 0); fill-opacity:1.000; stroke:none;" />
</svg>
