<?xml version="1.0" encoding="UTF-8" standalone="no"?>
<!DOCTYPE svg PUBLIC "-//W3C//DTD SVG 1.1//EN" 
  "http://www.w3.org/Graphics/SVG/1.1/DTD/svg11.dtd">
<svg width="106" height="134"
     xmlns="http://www.w3.org/2000/svg" version="1.1">
 <path d="  M 40,99  L 40,102  L 39,102  L 39,110  L 38,110  L 38,115  L 37,115  L 37,120  L 36,120  L 36,127  L 37,127  L 37,129  L 40,129  L 40,128  L 41,128  L 41,127  L 42,127  L 42,126  L 43,126  L 43,125  L 44,125  L 44,117  L 45,117  L 45,109  L 46,109  L 46,85  L 45,85  L 45,78  L 46,78  L 46,77  L 58,77  L 58,76  L 59,76  L 59,77  L 60,77  L 60,76  L 70,76  L 70,75  L 71,75  L 71,76  L 72,76  L 72,75  L 78,75  L 78,74  L 89,74  L 89,73  L 90,73  L 90,74  L 91,74  L 91,73  L 92,73  L 92,69  L 91,69  L 91,68  L 90,68  L 90,67  L 82,67  L 82,68  L 79,68  L 79,69  L 74,69  L 74,70  L 59,70  L 59,71  L 58,71  L 58,70  L 56,70  L 56,71  L 54,71  L 54,70  L 53,70  L 53,71  L 39,71  L 39,72  L 38,72  L 38,71  L 36,71  L 36,72  L 29,72  L 29,73  L 22,73  L 22,74  L 15,74  L 15,75  L 10,75  L 10,76  L 7,76  L 7,77  L 3,77  L 3,78  L 1,78  L 1,79  L 0,79  L 0,83  L 3,83  L 3,84  L 6,84  L 6,83  L 7,83  L 7,82  L 12,82  L 12,81  L 16,81  L 16,80  L 22,80  L 22,79  L 23,79  L 23,80  L 24,80  L 24,79  L 31,79  L 31,78  L 40,78  L 40,81  L 39,81  L 39,88  L 40,88  L 40,90  L 39,90  L 39,91  L 40,91  L 40,94  L 39,94  L 39,95  L 40,95  L 40,98  L 39,98  L 39,99  Z  " style="fill:rgb(0, 0, 0); fill-opacity:1.000; stroke:none;" />
 <path d="  M 40,21  L 40,17  L 41,17  L 41,16  L 42,16  L 42,14  L 43,14  L 43,13  L 44,13  L 44,11  L 45,11  L 45,10  L 46,10  L 46,8  L 47,8  L 47,7  L 48,7  L 48,5  L 49,5  L 49,2  L 48,2  L 48,1  L 47,1  L 47,0  L 44,0  L 44,1  L 43,1  L 43,2  L 42,2  L 42,3  L 41,3  L 41,4  L 40,4  L 40,6  L 39,6  L 39,8  L 37,8  L 37,9  L 36,9  L 36,11  L 35,11  L 35,13  L 34,13  L 34,15  L 33,15  L 33,16  L 32,16  L 32,18  L 31,18  L 31,21  L 30,21  L 30,22  L 29,22  L 29,23  L 28,23  L 28,25  L 27,25  L 27,26  L 26,26  L 26,28  L 24,28  L 24,30  L 23,30  L 23,31  L 22,31  L 22,33  L 21,33  L 21,34  L 20,34  L 20,35  L 19,35  L 19,37  L 18,37  L 18,39  L 17,39  L 17,40  L 16,40  L 16,42  L 15,42  L 15,43  L 14,43  L 14,44  L 13,44  L 13,45  L 12,45  L 12,47  L 11,47  L 11,48  L 10,48  L 10,49  L 9,49  L 9,50  L 8,50  L 8,51  L 7,51  L 7,53  L 6,53  L 6,58  L 7,58  L 7,59  L 11,59  L 11,58  L 12,58  L 12,57  L 13,57  L 13,56  L 14,56  L 14,54  L 15,54  L 15,53  L 16,53  L 16,52  L 17,52  L 17,50  L 18,50  L 18,49  L 19,49  L 19,48  L 20,48  L 20,47  L 21,47  L 21,45  L 22,45  L 22,44  L 23,44  L 23,42  L 24,42  L 24,40  L 25,40  L 25,39  L 26,39  L 26,38  L 27,38  L 27,37  L 28,37  L 28,35  L 29,35  L 29,34  L 30,34  L 30,33  L 32,33  L 32,31  L 33,31  L 33,30  L 36,30  L 36,31  L 37,31  L 37,32  L 39,32  L 39,33  L 41,33  L 41,34  L 43,34  L 43,35  L 44,35  L 44,36  L 46,36  L 46,37  L 48,37  L 48,38  L 49,38  L 49,39  L 51,39  L 51,40  L 52,40  L 52,41  L 54,41  L 54,42  L 55,42  L 55,43  L 56,43  L 56,44  L 58,44  L 58,45  L 59,45  L 59,46  L 60,46  L 60,47  L 62,47  L 62,48  L 63,48  L 63,49  L 64,49  L 64,50  L 65,50  L 65,51  L 67,51  L 67,52  L 69,52  L 69,53  L 70,53  L 70,54  L 71,54  L 71,55  L 73,55  L 73,57  L 81,57  L 81,55  L 80,55  L 80,54  L 79,54  L 79,53  L 78,53  L 78,52  L 77,52  L 77,51  L 76,51  L 76,50  L 75,50  L 75,49  L 74,49  L 74,48  L 73,48  L 73,47  L 72,47  L 72,46  L 70,46  L 70,45  L 69,45  L 69,44  L 67,44  L 67,43  L 66,43  L 66,42  L 65,42  L 65,41  L 63,41  L 63,40  L 62,40  L 62,39  L 61,39  L 61,38  L 59,38  L 59,37  L 57,37  L 57,36  L 56,36  L 56,35  L 55,35  L 55,34  L 53,34  L 53,33  L 51,33  L 51,32  L 50,32  L 50,31  L 49,31  L 49,30  L 47,30  L 47,29  L 45,29  L 45,28  L 43,28  L 43,27  L 42,27  L 42,26  L 40,26  L 40,24  L 39,24  L 39,21  Z  " style="fill:rgb(0, 0, 0); fill-opacity:1.000; stroke:none;" />
 <path d="  M 102,6  L 101,6  L 101,5  L 97,5  L 97,6  L 96,6  L 96,17  L 97,17  L 97,24  L 98,24  L 98,34  L 99,34  L 99,60  L 100,60  L 100,62  L 99,62  L 99,67  L 100,67  L 100,68  L 99,68  L 99,71  L 100,71  L 100,74  L 99,74  L 99,75  L 100,75  L 100,78  L 99,78  L 99,79  L 100,79  L 100,86  L 99,86  L 99,87  L 100,87  L 100,88  L 99,88  L 99,89  L 84,89  L 84,90  L 77,90  L 77,91  L 73,91  L 73,92  L 67,92  L 67,93  L 59,93  L 59,94  L 56,94  L 56,95  L 55,95  L 55,100  L 62,100  L 62,99  L 67,99  L 67,98  L 72,98  L 72,97  L 73,97  L 73,98  L 74,98  L 74,97  L 78,97  L 78,96  L 84,96  L 84,95  L 95,95  L 95,96  L 100,96  L 100,98  L 101,98  L 101,116  L 100,116  L 100,117  L 101,117  L 101,120  L 100,120  L 100,121  L 101,121  L 101,124  L 100,124  L 100,125  L 101,125  L 101,128  L 100,128  L 100,130  L 101,130  L 101,131  L 100,131  L 100,133  L 101,133  L 101,134  L 106,134  L 106,47  L 105,47  L 105,45  L 106,45  L 106,44  L 105,44  L 105,30  L 104,30  L 104,22  L 103,22  L 103,12  L 102,12  L 102,11  L 103,11  L 103,9  L 102,9  Z  " style="fill:rgb(0, 0, 0); fill-opacity:1.000; stroke:none;" />
</svg>
