<?xml version="1.0" encoding="UTF-8" standalone="no"?>
<!DOCTYPE svg PUBLIC "-//W3C//DTD SVG 1.1//EN" 
  "http://www.w3.org/Graphics/SVG/1.1/DTD/svg11.dtd">
<svg width="105" height="151"
     xmlns="http://www.w3.org/2000/svg" version="1.1">
 <path d="  M 31,67  L 31,69  L 30,69  L 30,81  L 29,81  L 29,82  L 30,82  L 30,84  L 29,84  L 29,94  L 30,94  L 30,95  L 32,95  L 32,94  L 33,94  L 33,92  L 34,92  L 34,90  L 35,90  L 35,82  L 36,82  L 36,66  L 37,66  L 37,65  L 48,65  L 48,64  L 58,64  L 58,63  L 65,63  L 65,62  L 71,62  L 71,61  L 74,61  L 74,60  L 76,60  L 76,58  L 75,58  L 75,57  L 76,57  L 76,56  L 77,56  L 77,55  L 76,55  L 76,54  L 73,54  L 73,53  L 68,53  L 68,54  L 66,54  L 66,55  L 65,55  L 65,56  L 61,56  L 61,57  L 57,57  L 57,58  L 52,58  L 52,59  L 39,59  L 39,60  L 38,60  L 38,59  L 37,59  L 37,60  L 31,60  L 31,61  L 23,61  L 23,62  L 22,62  L 22,61  L 21,61  L 21,62  L 17,62  L 17,63  L 13,63  L 13,64  L 8,64  L 8,65  L 4,65  L 4,66  L 2,66  L 2,67  L 0,67  L 0,70  L 1,70  L 1,71  L 0,71  L 0,72  L 5,72  L 5,71  L 7,71  L 7,70  L 9,70  L 9,69  L 16,69  L 16,68  L 21,68  L 21,67  Z  " style="fill:rgb(0, 0, 0); fill-opacity:1.000; stroke:none;" />
 <path d="  M 46,38  L 46,39  L 48,39  L 48,40  L 50,40  L 50,41  L 51,41  L 51,42  L 53,42  L 53,43  L 55,43  L 55,44  L 56,44  L 56,45  L 57,45  L 57,46  L 59,46  L 59,47  L 60,47  L 60,48  L 65,48  L 65,47  L 66,47  L 66,44  L 65,44  L 65,43  L 64,43  L 64,41  L 63,41  L 63,40  L 61,40  L 61,39  L 59,39  L 59,38  L 57,38  L 57,37  L 55,37  L 55,36  L 54,36  L 54,35  L 52,35  L 52,34  L 51,34  L 51,33  L 48,33  L 48,32  L 47,32  L 47,31  L 45,31  L 45,30  L 43,30  L 43,29  L 40,29  L 40,28  L 39,28  L 39,27  L 37,27  L 37,26  L 36,26  L 36,25  L 35,25  L 35,24  L 34,24  L 34,23  L 33,23  L 33,22  L 32,22  L 32,18  L 33,18  L 33,15  L 34,15  L 34,13  L 35,13  L 35,11  L 36,11  L 36,10  L 37,10  L 37,7  L 38,7  L 38,4  L 37,4  L 37,1  L 36,1  L 36,0  L 34,0  L 34,1  L 32,1  L 32,3  L 31,3  L 31,5  L 30,5  L 30,8  L 29,8  L 29,9  L 28,9  L 28,11  L 27,11  L 27,13  L 26,13  L 26,16  L 25,16  L 25,17  L 24,17  L 24,19  L 23,19  L 23,21  L 22,21  L 22,22  L 21,22  L 21,24  L 20,24  L 20,26  L 19,26  L 19,27  L 18,27  L 18,29  L 17,29  L 17,30  L 16,30  L 16,32  L 15,32  L 15,33  L 14,33  L 14,35  L 13,35  L 13,36  L 12,36  L 12,37  L 11,37  L 11,39  L 10,39  L 10,40  L 9,40  L 9,41  L 8,41  L 8,42  L 7,42  L 7,43  L 6,43  L 6,44  L 5,44  L 5,46  L 4,46  L 4,47  L 3,47  L 3,48  L 4,48  L 4,49  L 5,49  L 5,50  L 6,50  L 6,51  L 7,51  L 7,50  L 9,50  L 9,49  L 10,49  L 10,48  L 11,48  L 11,47  L 12,47  L 12,46  L 14,46  L 14,44  L 15,44  L 15,43  L 16,43  L 16,42  L 17,42  L 17,41  L 18,41  L 18,39  L 19,39  L 19,38  L 20,38  L 20,36  L 21,36  L 21,35  L 22,35  L 22,33  L 23,33  L 23,32  L 24,32  L 24,31  L 25,31  L 25,30  L 26,30  L 26,28  L 30,28  L 30,29  L 31,29  L 31,30  L 32,30  L 32,31  L 33,31  L 33,32  L 35,32  L 35,33  L 36,33  L 36,34  L 38,34  L 38,35  L 40,35  L 40,36  L 43,36  L 43,37  L 45,37  L 45,38  Z  " style="fill:rgb(0, 0, 0); fill-opacity:1.000; stroke:none;" />
 <path d="  M 37,115  L 37,113  L 36,113  L 36,112  L 37,112  L 37,111  L 39,111  L 39,110  L 40,110  L 40,109  L 39,109  L 39,105  L 37,105  L 37,104  L 35,104  L 35,103  L 32,103  L 32,102  L 28,102  L 28,103  L 27,103  L 27,104  L 26,104  L 26,107  L 27,107  L 27,108  L 28,108  L 28,110  L 30,110  L 30,112  L 31,112  L 31,116  L 30,116  L 30,117  L 29,117  L 29,118  L 28,118  L 28,119  L 27,119  L 27,121  L 25,121  L 25,122  L 24,122  L 24,123  L 23,123  L 23,124  L 22,124  L 22,126  L 21,126  L 21,127  L 20,127  L 20,129  L 19,129  L 19,130  L 18,130  L 18,131  L 16,131  L 16,133  L 15,133  L 15,134  L 14,134  L 14,135  L 13,135  L 13,137  L 12,137  L 12,138  L 11,138  L 11,139  L 10,139  L 10,142  L 11,142  L 11,144  L 12,144  L 12,145  L 13,145  L 13,146  L 16,146  L 16,145  L 17,145  L 17,144  L 18,144  L 18,142  L 19,142  L 19,138  L 20,138  L 20,137  L 21,137  L 21,136  L 22,136  L 22,134  L 23,134  L 23,133  L 24,133  L 24,132  L 25,132  L 25,131  L 26,131  L 26,129  L 27,129  L 27,127  L 28,127  L 28,124  L 29,124  L 29,123  L 31,123  L 31,122  L 32,122  L 32,123  L 35,123  L 35,124  L 36,124  L 36,125  L 37,125  L 37,126  L 39,126  L 39,127  L 41,127  L 41,128  L 43,128  L 43,129  L 45,129  L 45,130  L 48,130  L 48,131  L 49,131  L 49,132  L 51,132  L 51,133  L 53,133  L 53,134  L 54,134  L 54,135  L 55,135  L 55,136  L 58,136  L 58,130  L 57,130  L 57,129  L 55,129  L 55,128  L 54,128  L 54,127  L 51,127  L 51,126  L 49,126  L 49,125  L 48,125  L 48,124  L 46,124  L 46,123  L 44,123  L 44,122  L 42,122  L 42,121  L 41,121  L 41,120  L 40,120  L 40,119  L 39,119  L 39,117  L 38,117  L 38,115  Z  " style="fill:rgb(0, 0, 0); fill-opacity:1.000; stroke:none;" />
 <path d="  M 71,113  L 70,113  L 70,115  L 69,115  L 69,117  L 68,117  L 68,120  L 67,120  L 67,123  L 66,123  L 66,125  L 65,125  L 65,129  L 64,129  L 64,130  L 63,130  L 63,133  L 62,133  L 62,134  L 61,134  L 61,136  L 60,136  L 60,138  L 58,138  L 58,137  L 57,137  L 57,139  L 56,139  L 56,140  L 55,140  L 55,142  L 54,142  L 54,143  L 53,143  L 53,146  L 52,146  L 52,149  L 51,149  L 51,151  L 58,151  L 58,150  L 59,150  L 59,149  L 60,149  L 60,148  L 61,148  L 61,145  L 62,145  L 62,143  L 63,143  L 63,142  L 64,142  L 64,140  L 65,140  L 65,139  L 66,139  L 66,137  L 67,137  L 67,134  L 68,134  L 68,132  L 69,132  L 69,131  L 70,131  L 70,129  L 71,129  L 71,127  L 73,127  L 73,126  L 74,126  L 74,127  L 76,127  L 76,129  L 78,129  L 78,130  L 80,130  L 80,131  L 81,131  L 81,132  L 83,132  L 83,133  L 85,133  L 85,134  L 86,134  L 86,135  L 88,135  L 88,136  L 91,136  L 91,137  L 92,137  L 92,138  L 94,138  L 94,139  L 95,139  L 95,140  L 96,140  L 96,141  L 97,141  L 97,142  L 98,142  L 98,143  L 100,143  L 100,145  L 101,145  L 101,146  L 102,146  L 102,147  L 103,147  L 103,148  L 105,148  L 105,139  L 104,139  L 104,138  L 103,138  L 103,137  L 102,137  L 102,136  L 100,136  L 100,135  L 98,135  L 98,134  L 97,134  L 97,133  L 95,133  L 95,132  L 93,132  L 93,131  L 91,131  L 91,130  L 90,130  L 90,129  L 89,129  L 89,128  L 87,128  L 87,127  L 86,127  L 86,126  L 84,126  L 84,125  L 82,125  L 82,124  L 81,124  L 81,122  L 79,122  L 79,120  L 78,120  L 78,119  L 77,119  L 77,111  L 78,111  L 78,109  L 79,109  L 79,106  L 80,106  L 80,102  L 81,102  L 81,101  L 82,101  L 82,99  L 83,99  L 83,98  L 85,98  L 85,95  L 86,95  L 86,91  L 87,91  L 87,74  L 88,74  L 88,73  L 87,73  L 87,53  L 86,53  L 86,52  L 87,52  L 87,51  L 86,51  L 86,45  L 85,45  L 85,38  L 84,38  L 84,32  L 83,32  L 83,30  L 84,30  L 84,29  L 83,29  L 83,23  L 82,23  L 82,12  L 80,12  L 80,11  L 76,11  L 76,12  L 75,12  L 75,16  L 76,16  L 76,26  L 77,26  L 77,36  L 78,36  L 78,44  L 79,44  L 79,53  L 80,53  L 80,54  L 79,54  L 79,55  L 78,55  L 78,56  L 79,56  L 79,65  L 78,65  L 78,66  L 79,66  L 79,67  L 76,67  L 76,68  L 73,68  L 73,69  L 70,69  L 70,70  L 69,70  L 69,69  L 68,69  L 68,70  L 64,70  L 64,71  L 60,71  L 60,72  L 58,72  L 58,73  L 52,73  L 52,74  L 48,74  L 48,76  L 46,76  L 46,80  L 48,80  L 48,81  L 49,81  L 49,80  L 51,80  L 51,79  L 54,79  L 54,78  L 58,78  L 58,77  L 65,77  L 65,76  L 72,76  L 72,75  L 79,75  L 79,76  L 80,76  L 80,91  L 79,91  L 79,95  L 78,95  L 78,97  L 77,97  L 77,99  L 76,99  L 76,100  L 75,100  L 75,102  L 74,102  L 74,104  L 73,104  L 73,105  L 72,105  L 72,108  L 71,108  Z  " style="fill:rgb(0, 0, 0); fill-opacity:1.000; stroke:none;" />
</svg>
