<?xml version="1.0" encoding="UTF-8" standalone="no"?>
<!DOCTYPE svg PUBLIC "-//W3C//DTD SVG 1.1//EN" 
  "http://www.w3.org/Graphics/SVG/1.1/DTD/svg11.dtd">
<svg width="108" height="118"
     xmlns="http://www.w3.org/2000/svg" version="1.1">
 <path d="  M 35,62  L 35,63  L 26,63  L 26,64  L 21,64  L 21,65  L 20,65  L 20,64  L 18,64  L 18,65  L 15,65  L 15,66  L 10,66  L 10,67  L 5,67  L 5,68  L 1,68  L 1,70  L 0,70  L 0,71  L 1,71  L 1,72  L 0,72  L 0,73  L 1,73  L 1,75  L 2,75  L 2,74  L 6,74  L 6,73  L 10,73  L 10,72  L 14,72  L 14,71  L 21,71  L 21,70  L 30,70  L 30,77  L 31,77  L 31,80  L 30,80  L 30,81  L 31,81  L 31,87  L 32,87  L 32,96  L 33,96  L 33,116  L 34,116  L 34,117  L 35,117  L 35,118  L 38,118  L 38,116  L 39,116  L 39,96  L 38,96  L 38,91  L 37,91  L 37,84  L 36,84  L 36,72  L 37,72  L 37,69  L 38,69  L 38,68  L 41,68  L 41,67  L 47,67  L 47,66  L 55,66  L 55,65  L 59,65  L 59,64  L 60,64  L 60,65  L 61,65  L 61,64  L 66,64  L 66,63  L 71,63  L 71,62  L 72,62  L 72,60  L 71,60  L 71,58  L 69,58  L 69,57  L 67,57  L 67,56  L 64,56  L 64,57  L 60,57  L 60,58  L 57,58  L 57,59  L 54,59  L 54,60  L 49,60  L 49,61  L 43,61  L 43,62  Z  " style="fill:rgb(0, 0, 0); fill-opacity:1.000; stroke:none;" />
 <path d="  M 57,39  L 57,38  L 55,38  L 55,37  L 53,37  L 53,36  L 51,36  L 51,35  L 50,35  L 50,34  L 48,34  L 48,33  L 46,33  L 46,32  L 45,32  L 45,31  L 44,31  L 44,30  L 42,30  L 42,29  L 40,29  L 40,28  L 38,28  L 38,27  L 37,27  L 37,26  L 35,26  L 35,25  L 33,25  L 33,24  L 32,24  L 32,21  L 33,21  L 33,20  L 34,20  L 34,18  L 35,18  L 35,17  L 36,17  L 36,15  L 37,15  L 37,13  L 38,13  L 38,12  L 39,12  L 39,11  L 40,11  L 40,10  L 41,10  L 41,9  L 43,9  L 43,8  L 45,8  L 45,6  L 46,6  L 46,4  L 47,4  L 47,0  L 44,0  L 44,1  L 42,1  L 42,2  L 41,2  L 41,3  L 40,3  L 40,4  L 39,4  L 39,5  L 38,5  L 38,6  L 37,6  L 37,7  L 36,7  L 36,8  L 34,8  L 34,9  L 33,9  L 33,11  L 32,11  L 32,12  L 31,12  L 31,13  L 30,13  L 30,14  L 29,14  L 29,16  L 28,16  L 28,17  L 27,17  L 27,19  L 26,19  L 26,20  L 25,20  L 25,22  L 24,22  L 24,25  L 23,25  L 23,26  L 21,26  L 21,28  L 20,28  L 20,29  L 19,29  L 19,31  L 18,31  L 18,32  L 17,32  L 17,34  L 16,34  L 16,35  L 15,35  L 15,36  L 14,36  L 14,37  L 13,37  L 13,39  L 12,39  L 12,40  L 10,40  L 10,41  L 9,41  L 9,42  L 8,42  L 8,43  L 7,43  L 7,46  L 6,46  L 6,49  L 7,49  L 7,50  L 8,50  L 8,51  L 10,51  L 10,50  L 12,50  L 12,49  L 13,49  L 13,47  L 14,47  L 14,46  L 15,46  L 15,45  L 16,45  L 16,44  L 17,44  L 17,43  L 18,43  L 18,41  L 19,41  L 19,40  L 20,40  L 20,38  L 21,38  L 21,37  L 22,37  L 22,36  L 23,36  L 23,34  L 24,34  L 24,33  L 25,33  L 25,30  L 26,30  L 26,29  L 29,29  L 29,30  L 32,30  L 32,31  L 33,31  L 33,32  L 36,32  L 36,33  L 38,33  L 38,34  L 39,34  L 39,35  L 40,35  L 40,36  L 42,36  L 42,37  L 43,37  L 43,38  L 45,38  L 45,40  L 47,40  L 47,41  L 49,41  L 49,42  L 50,42  L 50,43  L 53,43  L 53,44  L 55,44  L 55,45  L 57,45  L 57,46  L 58,46  L 58,47  L 65,47  L 65,46  L 66,46  L 66,45  L 65,45  L 65,44  L 64,44  L 64,43  L 63,43  L 63,42  L 62,42  L 62,41  L 60,41  L 60,40  L 59,40  L 59,39  Z  " style="fill:rgb(0, 0, 0); fill-opacity:1.000; stroke:none;" />
 <path d="  M 81,101  L 82,101  L 82,102  L 81,102  L 81,105  L 82,105  L 82,106  L 81,106  L 81,109  L 82,109  L 82,111  L 83,111  L 83,112  L 87,112  L 87,110  L 88,110  L 88,109  L 87,109  L 87,108  L 88,108  L 88,107  L 87,107  L 87,105  L 88,105  L 88,104  L 87,104  L 87,103  L 88,103  L 88,94  L 87,94  L 87,93  L 88,93  L 88,92  L 87,92  L 87,91  L 88,91  L 88,90  L 87,90  L 87,89  L 88,89  L 88,88  L 87,88  L 87,58  L 86,58  L 86,57  L 87,57  L 87,54  L 86,54  L 86,40  L 85,40  L 85,11  L 84,11  L 84,10  L 82,10  L 82,9  L 81,9  L 81,10  L 79,10  L 79,33  L 80,33  L 80,46  L 81,46  L 81,48  L 80,48  L 80,49  L 81,49  L 81,79  L 70,79  L 70,80  L 69,80  L 69,79  L 67,79  L 67,80  L 65,80  L 65,81  L 58,81  L 58,82  L 54,82  L 54,83  L 50,83  L 50,84  L 48,84  L 48,85  L 44,85  L 44,86  L 43,86  L 43,87  L 44,87  L 44,90  L 45,90  L 45,91  L 48,91  L 48,90  L 51,90  L 51,89  L 55,89  L 55,88  L 59,88  L 59,87  L 63,87  L 63,86  L 69,86  L 69,85  L 71,85  L 71,86  L 72,86  L 72,85  L 79,85  L 79,86  L 81,86  Z  " style="fill:rgb(0, 0, 0); fill-opacity:1.000; stroke:none;" />
 <path d="  M 101,30  L 102,30  L 102,32  L 101,32  L 101,33  L 102,33  L 102,55  L 103,55  L 103,56  L 102,56  L 102,57  L 103,57  L 103,60  L 102,60  L 102,61  L 103,61  L 103,92  L 104,92  L 104,93  L 103,93  L 103,95  L 104,95  L 104,97  L 103,97  L 103,98  L 104,98  L 104,113  L 103,113  L 103,114  L 104,114  L 104,115  L 105,115  L 105,117  L 108,117  L 108,32  L 107,32  L 107,31  L 108,31  L 108,30  L 107,30  L 107,23  L 106,23  L 106,14  L 105,14  L 105,7  L 104,7  L 104,6  L 103,6  L 103,5  L 102,5  L 102,6  L 100,6  L 100,8  L 99,8  L 99,13  L 100,13  L 100,23  L 101,23  Z  " style="fill:rgb(0, 0, 0); fill-opacity:1.000; stroke:none;" />
</svg>
