<?xml version="1.0" encoding="UTF-8" standalone="no"?>
<!DOCTYPE svg PUBLIC "-//W3C//DTD SVG 1.1//EN" 
  "http://www.w3.org/Graphics/SVG/1.1/DTD/svg11.dtd">
<svg width="107" height="166"
     xmlns="http://www.w3.org/2000/svg" version="1.1">
 <path d="  M 60,65  L 60,64  L 65,64  L 65,63  L 67,63  L 67,62  L 69,62  L 69,61  L 70,61  L 70,60  L 71,60  L 71,58  L 70,58  L 70,57  L 69,57  L 69,56  L 67,56  L 67,57  L 66,57  L 66,56  L 63,56  L 63,57  L 61,57  L 61,58  L 56,58  L 56,59  L 50,59  L 50,60  L 11,60  L 11,61  L 4,61  L 4,62  L 2,62  L 2,63  L 1,63  L 1,64  L 0,64  L 0,66  L 1,66  L 1,67  L 2,67  L 2,68  L 9,68  L 9,67  L 17,67  L 17,66  L 18,66  L 18,67  L 19,67  L 19,66  L 22,66  L 22,67  L 23,67  L 23,66  L 26,66  L 26,67  L 32,67  L 32,69  L 31,69  L 31,79  L 32,79  L 32,80  L 31,80  L 31,81  L 32,81  L 32,87  L 33,87  L 33,88  L 32,88  L 32,89  L 33,89  L 33,95  L 34,95  L 34,99  L 35,99  L 35,103  L 36,103  L 36,106  L 37,106  L 37,107  L 38,107  L 38,108  L 39,108  L 39,109  L 40,109  L 40,110  L 41,110  L 41,109  L 45,109  L 45,106  L 44,106  L 44,102  L 43,102  L 43,100  L 42,100  L 42,98  L 41,98  L 41,96  L 40,96  L 40,92  L 39,92  L 39,86  L 38,86  L 38,79  L 37,79  L 37,69  L 36,69  L 36,68  L 37,68  L 37,67  L 38,67  L 38,66  L 52,66  L 52,65  Z  " style="fill:rgb(0, 0, 0); fill-opacity:1.000; stroke:none;" />
 <path d="  M 40,19  L 40,17  L 41,17  L 41,15  L 43,15  L 43,13  L 44,13  L 44,11  L 45,11  L 45,8  L 46,8  L 46,7  L 45,7  L 45,3  L 44,3  L 44,2  L 43,2  L 43,1  L 41,1  L 41,0  L 40,0  L 40,1  L 37,1  L 37,8  L 36,8  L 36,11  L 35,11  L 35,13  L 34,13  L 34,15  L 33,15  L 33,16  L 32,16  L 32,18  L 31,18  L 31,20  L 30,20  L 30,21  L 29,21  L 29,22  L 28,22  L 28,23  L 27,23  L 27,24  L 26,24  L 26,26  L 25,26  L 25,28  L 24,28  L 24,30  L 23,30  L 23,31  L 22,31  L 22,33  L 21,33  L 21,34  L 20,34  L 20,36  L 19,36  L 19,37  L 18,37  L 18,38  L 17,38  L 17,39  L 16,39  L 16,40  L 15,40  L 15,41  L 14,41  L 14,42  L 13,42  L 13,43  L 11,43  L 11,44  L 10,44  L 10,45  L 8,45  L 8,46  L 7,46  L 7,47  L 6,47  L 6,48  L 7,48  L 7,49  L 8,49  L 8,50  L 9,50  L 9,49  L 14,49  L 14,48  L 15,48  L 15,47  L 18,47  L 18,45  L 19,45  L 19,44  L 21,44  L 21,43  L 22,43  L 22,42  L 23,42  L 23,41  L 25,41  L 25,40  L 26,40  L 26,39  L 27,39  L 27,38  L 28,38  L 28,36  L 29,36  L 29,34  L 30,34  L 30,33  L 32,33  L 32,34  L 36,34  L 36,35  L 38,35  L 38,36  L 39,36  L 39,37  L 42,37  L 42,38  L 43,38  L 43,39  L 44,39  L 44,40  L 45,40  L 45,41  L 47,41  L 47,42  L 49,42  L 49,43  L 50,43  L 50,44  L 52,44  L 52,45  L 53,45  L 53,46  L 54,46  L 54,47  L 56,47  L 56,48  L 57,48  L 57,49  L 62,49  L 62,48  L 64,48  L 64,47  L 65,47  L 65,46  L 66,46  L 66,45  L 65,45  L 65,44  L 64,44  L 64,43  L 63,43  L 63,42  L 62,42  L 62,41  L 61,41  L 61,40  L 60,40  L 60,39  L 59,39  L 59,38  L 58,38  L 58,37  L 55,37  L 55,36  L 52,36  L 52,35  L 50,35  L 50,34  L 49,34  L 49,33  L 47,33  L 47,32  L 45,32  L 45,31  L 44,31  L 44,30  L 42,30  L 42,29  L 41,29  L 41,28  L 39,28  L 39,27  L 38,27  L 38,26  L 36,26  L 36,23  L 37,23  L 37,21  L 38,21  L 38,19  Z  " style="fill:rgb(0, 0, 0); fill-opacity:1.000; stroke:none;" />
 <path d="  M 55,110  L 55,111  L 54,111  L 54,110  L 53,110  L 53,111  L 50,111  L 50,110  L 49,110  L 49,111  L 45,111  L 45,112  L 44,112  L 44,118  L 48,118  L 48,119  L 49,119  L 49,118  L 53,118  L 53,117  L 62,117  L 62,116  L 63,116  L 63,117  L 70,117  L 70,116  L 71,116  L 71,117  L 76,117  L 76,118  L 79,118  L 79,119  L 82,119  L 82,120  L 83,120  L 83,121  L 84,121  L 84,123  L 85,123  L 85,124  L 84,124  L 84,125  L 81,125  L 81,126  L 77,126  L 77,127  L 73,127  L 73,128  L 70,128  L 70,129  L 68,129  L 68,130  L 65,130  L 65,131  L 62,131  L 62,132  L 60,132  L 60,133  L 59,133  L 59,134  L 57,134  L 57,136  L 55,136  L 55,137  L 54,137  L 54,136  L 53,136  L 53,137  L 52,137  L 52,138  L 49,138  L 49,139  L 47,139  L 47,141  L 45,141  L 45,142  L 44,142  L 44,158  L 45,158  L 45,161  L 46,161  L 46,162  L 47,162  L 47,163  L 48,163  L 48,164  L 49,164  L 49,165  L 52,165  L 52,166  L 72,166  L 72,165  L 74,165  L 74,164  L 78,164  L 78,163  L 81,163  L 81,162  L 82,162  L 82,161  L 86,161  L 86,160  L 88,160  L 88,159  L 90,159  L 90,158  L 92,158  L 92,157  L 94,157  L 94,156  L 97,156  L 97,155  L 100,155  L 100,154  L 102,154  L 102,153  L 104,153  L 104,152  L 106,152  L 106,149  L 107,149  L 107,147  L 106,147  L 106,146  L 100,146  L 100,147  L 98,147  L 98,148  L 95,148  L 95,149  L 93,149  L 93,150  L 91,150  L 91,151  L 89,151  L 89,152  L 86,152  L 86,153  L 84,153  L 84,154  L 81,154  L 81,155  L 78,155  L 78,156  L 76,156  L 76,157  L 72,157  L 72,158  L 69,158  L 69,159  L 65,159  L 65,160  L 57,160  L 57,159  L 54,159  L 54,158  L 51,158  L 51,156  L 50,156  L 50,154  L 49,154  L 49,153  L 50,153  L 50,149  L 51,149  L 51,147  L 52,147  L 52,146  L 53,146  L 53,145  L 54,145  L 54,144  L 56,144  L 56,143  L 58,143  L 58,142  L 60,142  L 60,141  L 61,141  L 61,140  L 64,140  L 64,139  L 66,139  L 66,138  L 68,138  L 68,137  L 70,137  L 70,136  L 72,136  L 72,135  L 74,135  L 74,134  L 75,134  L 75,135  L 76,135  L 76,134  L 78,134  L 78,133  L 82,133  L 82,132  L 86,132  L 86,131  L 88,131  L 88,130  L 89,130  L 89,129  L 91,129  L 91,127  L 92,127  L 92,124  L 94,124  L 94,123  L 93,123  L 93,121  L 92,121  L 92,118  L 91,118  L 91,117  L 90,117  L 90,116  L 89,116  L 89,114  L 86,114  L 86,113  L 84,113  L 84,112  L 83,112  L 83,111  L 80,111  L 80,110  Z  " style="fill:rgb(0, 0, 0); fill-opacity:1.000; stroke:none;" />
 <path d="  M 60,84  L 60,86  L 61,86  L 61,85  L 62,85  L 62,84  L 63,84  L 63,83  L 64,83  L 64,82  L 65,82  L 65,80  L 66,80  L 66,79  L 69,79  L 69,78  L 73,78  L 73,77  L 75,77  L 75,78  L 76,78  L 76,77  L 77,77  L 77,76  L 76,76  L 76,75  L 75,75  L 75,76  L 74,76  L 74,74  L 72,74  L 72,75  L 71,75  L 71,74  L 64,74  L 64,75  L 58,75  L 58,76  L 56,76  L 56,77  L 53,77  L 53,78  L 50,78  L 50,79  L 47,79  L 47,85  L 48,85  L 48,86  L 52,86  L 52,85  L 53,85  L 53,84  L 57,84  L 57,83  L 58,83  L 58,84  Z  " style="fill:rgb(0, 0, 0); fill-opacity:1.000; stroke:none;" />
 <path d="  M 87,105  L 87,103  L 88,103  L 88,101  L 87,101  L 87,100  L 88,100  L 88,17  L 87,17  L 87,15  L 86,15  L 86,14  L 82,14  L 82,18  L 81,18  L 81,19  L 82,19  L 82,58  L 81,58  L 81,59  L 82,59  L 82,62  L 81,62  L 81,63  L 82,63  L 82,66  L 81,66  L 81,67  L 82,67  L 82,70  L 81,70  L 81,71  L 82,71  L 82,73  L 81,73  L 81,101  L 80,101  L 80,104  L 81,104  L 81,106  L 82,106  L 82,107  L 85,107  L 85,106  L 86,106  L 86,105  Z  " style="fill:rgb(0, 0, 0); fill-opacity:1.000; stroke:none;" />
 <path d="  M 102,107  L 103,107  L 103,106  L 105,106  L 105,105  L 106,105  L 106,103  L 107,103  L 107,19  L 106,19  L 106,18  L 104,18  L 104,17  L 103,17  L 103,18  L 101,18  L 101,20  L 100,20  L 100,39  L 101,39  L 101,42  L 100,42  L 100,43  L 101,43  L 101,66  L 100,66  L 100,67  L 101,67  L 101,70  L 100,70  L 100,71  L 101,71  L 101,74  L 100,74  L 100,75  L 101,75  L 101,78  L 100,78  L 100,80  L 101,80  L 101,81  L 100,81  L 100,84  L 101,84  L 101,86  L 100,86  L 100,89  L 101,89  L 101,90  L 100,90  L 100,91  L 101,91  L 101,94  L 100,94  L 100,96  L 101,96  L 101,99  L 100,99  L 100,105  L 101,105  L 101,106  L 102,106  Z  " style="fill:rgb(0, 0, 0); fill-opacity:1.000; stroke:none;" />
</svg>
