<?xml version="1.0" encoding="UTF-8" standalone="no"?>
<!DOCTYPE svg PUBLIC "-//W3C//DTD SVG 1.1//EN" 
  "http://www.w3.org/Graphics/SVG/1.1/DTD/svg11.dtd">
<svg width="104" height="152"
     xmlns="http://www.w3.org/2000/svg" version="1.1">
 <path d="  M 24,67  L 24,66  L 25,66  L 25,67  L 27,67  L 27,70  L 26,70  L 26,73  L 27,73  L 27,76  L 26,76  L 26,77  L 27,77  L 27,80  L 26,80  L 26,81  L 27,81  L 27,88  L 28,88  L 28,91  L 29,91  L 29,93  L 30,93  L 30,94  L 31,94  L 31,95  L 33,95  L 33,96  L 34,96  L 34,95  L 35,95  L 35,92  L 34,92  L 34,88  L 33,88  L 33,72  L 32,72  L 32,68  L 33,68  L 33,66  L 47,66  L 47,65  L 48,65  L 48,66  L 49,66  L 49,65  L 57,65  L 57,64  L 62,64  L 62,63  L 65,63  L 65,62  L 68,62  L 68,60  L 69,60  L 69,59  L 68,59  L 68,57  L 66,57  L 66,56  L 64,56  L 64,55  L 62,55  L 62,56  L 59,56  L 59,57  L 56,57  L 56,58  L 51,58  L 51,59  L 46,59  L 46,60  L 45,60  L 45,59  L 34,59  L 34,60  L 33,60  L 33,59  L 32,59  L 32,60  L 31,60  L 31,59  L 29,59  L 29,60  L 18,60  L 18,61  L 12,61  L 12,62  L 7,62  L 7,63  L 4,63  L 4,64  L 2,64  L 2,65  L 1,65  L 1,66  L 0,66  L 0,67  L 1,67  L 1,69  L 3,69  L 3,70  L 4,70  L 4,69  L 8,69  L 8,68  L 14,68  L 14,67  Z  " style="fill:rgb(0, 0, 0); fill-opacity:1.000; stroke:none;" />
 <path d="  M 51,44  L 51,45  L 53,45  L 53,46  L 55,46  L 55,47  L 57,47  L 57,48  L 59,48  L 59,49  L 62,49  L 62,48  L 63,48  L 63,47  L 64,47  L 64,45  L 63,45  L 63,43  L 62,43  L 62,42  L 61,42  L 61,41  L 60,41  L 60,40  L 58,40  L 58,39  L 56,39  L 56,38  L 55,38  L 55,37  L 53,37  L 53,36  L 51,36  L 51,35  L 49,35  L 49,34  L 47,34  L 47,33  L 46,33  L 46,32  L 43,32  L 43,31  L 41,31  L 41,30  L 39,30  L 39,29  L 38,29  L 38,28  L 36,28  L 36,26  L 34,26  L 34,25  L 33,25  L 33,22  L 34,22  L 34,21  L 35,21  L 35,19  L 36,19  L 36,18  L 37,18  L 37,17  L 38,17  L 38,15  L 39,15  L 39,13  L 41,13  L 41,11  L 42,11  L 42,9  L 43,9  L 43,7  L 44,7  L 44,6  L 43,6  L 43,5  L 44,5  L 44,4  L 43,4  L 43,2  L 42,2  L 42,1  L 41,1  L 41,0  L 39,0  L 39,1  L 38,1  L 38,2  L 37,2  L 37,3  L 36,3  L 36,4  L 35,4  L 35,7  L 34,7  L 34,10  L 33,10  L 33,12  L 32,12  L 32,13  L 31,13  L 31,14  L 30,14  L 30,15  L 29,15  L 29,16  L 28,16  L 28,17  L 27,17  L 27,19  L 26,19  L 26,20  L 25,20  L 25,22  L 24,22  L 24,24  L 22,24  L 22,26  L 21,26  L 21,29  L 20,29  L 20,30  L 19,30  L 19,31  L 18,31  L 18,32  L 17,32  L 17,34  L 16,34  L 16,35  L 15,35  L 15,36  L 14,36  L 14,38  L 13,38  L 13,39  L 12,39  L 12,41  L 11,41  L 11,42  L 10,42  L 10,43  L 9,43  L 9,44  L 8,44  L 8,45  L 7,45  L 7,46  L 6,46  L 6,47  L 5,47  L 5,48  L 4,48  L 4,49  L 5,49  L 5,50  L 4,50  L 4,51  L 5,51  L 5,53  L 7,53  L 7,51  L 11,51  L 11,50  L 12,50  L 12,49  L 13,49  L 13,48  L 14,48  L 14,47  L 15,47  L 15,46  L 16,46  L 16,45  L 17,45  L 17,43  L 18,43  L 18,42  L 19,42  L 19,41  L 20,41  L 20,39  L 22,39  L 22,38  L 23,38  L 23,36  L 24,36  L 24,35  L 25,35  L 25,33  L 26,33  L 26,31  L 28,31  L 28,32  L 30,32  L 30,33  L 31,33  L 31,34  L 32,34  L 32,33  L 33,33  L 33,34  L 34,34  L 34,35  L 37,35  L 37,36  L 39,36  L 39,37  L 41,37  L 41,38  L 42,38  L 42,39  L 44,39  L 44,40  L 46,40  L 46,41  L 47,41  L 47,42  L 48,42  L 48,43  L 50,43  L 50,44  Z  " style="fill:rgb(0, 0, 0); fill-opacity:1.000; stroke:none;" />
 <path d="  M 62,147  L 59,147  L 59,146  L 58,146  L 58,147  L 56,147  L 56,146  L 53,146  L 53,145  L 52,145  L 52,141  L 51,141  L 51,138  L 50,138  L 50,126  L 49,126  L 49,125  L 50,125  L 50,124  L 49,124  L 49,118  L 50,118  L 50,117  L 66,117  L 66,116  L 85,116  L 85,117  L 88,117  L 88,118  L 91,118  L 91,119  L 93,119  L 93,120  L 94,120  L 94,121  L 95,121  L 95,131  L 94,131  L 94,136  L 93,136  L 93,138  L 92,138  L 92,140  L 91,140  L 91,141  L 90,141  L 90,142  L 89,142  L 89,143  L 86,143  L 86,144  L 80,144  L 80,145  L 79,145  L 79,144  L 78,144  L 78,145  L 74,145  L 74,146  L 73,146  L 73,145  L 72,145  L 72,146  L 62,146  Z  M 75,152  L 75,151  L 81,151  L 81,150  L 87,150  L 87,149  L 89,149  L 89,148  L 91,148  L 91,147  L 93,147  L 93,146  L 95,146  L 95,145  L 96,145  L 96,143  L 97,143  L 97,142  L 98,142  L 98,140  L 99,140  L 99,136  L 100,136  L 100,133  L 101,133  L 101,132  L 100,132  L 100,131  L 101,131  L 101,125  L 102,125  L 102,118  L 101,118  L 101,116  L 100,116  L 100,115  L 98,115  L 98,114  L 96,114  L 96,113  L 93,113  L 93,112  L 90,112  L 90,111  L 88,111  L 88,110  L 85,110  L 85,109  L 83,109  L 83,108  L 82,108  L 82,109  L 79,109  L 79,108  L 78,108  L 78,109  L 75,109  L 75,110  L 66,110  L 66,111  L 65,111  L 65,110  L 64,110  L 64,111  L 49,111  L 49,110  L 48,110  L 48,109  L 47,109  L 47,108  L 43,108  L 43,107  L 42,107  L 42,108  L 41,108  L 41,109  L 40,109  L 40,110  L 39,110  L 39,109  L 38,109  L 38,110  L 37,110  L 37,111  L 36,111  L 36,112  L 35,112  L 35,113  L 34,113  L 34,115  L 36,115  L 36,116  L 38,116  L 38,115  L 40,115  L 40,114  L 41,114  L 41,116  L 42,116  L 42,118  L 43,118  L 43,129  L 44,129  L 44,131  L 43,131  L 43,132  L 44,132  L 44,139  L 45,139  L 45,144  L 46,144  L 46,147  L 47,147  L 47,149  L 48,149  L 48,151  L 49,151  L 49,152  Z  " style="fill:rgb(0, 0, 0); fill-opacity:1.000; stroke:none;" />
 <path d="  M 84,77  L 85,77  L 85,76  L 84,76  L 84,73  L 85,73  L 85,72  L 84,72  L 84,70  L 85,70  L 85,68  L 84,68  L 84,66  L 85,66  L 85,64  L 84,64  L 84,63  L 85,63  L 85,60  L 84,60  L 84,59  L 85,59  L 85,56  L 84,56  L 84,55  L 85,55  L 85,52  L 84,52  L 84,51  L 85,51  L 85,21  L 86,21  L 86,20  L 85,20  L 85,19  L 84,19  L 84,17  L 83,17  L 83,16  L 81,16  L 81,17  L 80,17  L 80,16  L 79,16  L 79,36  L 78,36  L 78,37  L 79,37  L 79,39  L 78,39  L 78,41  L 79,41  L 79,43  L 78,43  L 78,72  L 77,72  L 77,73  L 74,73  L 74,72  L 73,72  L 73,73  L 72,73  L 72,72  L 71,72  L 71,73  L 70,73  L 70,72  L 69,72  L 69,73  L 62,73  L 62,74  L 59,74  L 59,75  L 56,75  L 56,76  L 53,76  L 53,77  L 50,77  L 50,76  L 49,76  L 49,77  L 46,77  L 46,78  L 45,78  L 45,79  L 42,79  L 42,81  L 41,81  L 41,85  L 42,85  L 42,86  L 44,86  L 44,85  L 47,85  L 47,84  L 51,84  L 51,83  L 56,83  L 56,82  L 59,82  L 59,81  L 63,81  L 63,80  L 70,80  L 70,79  L 72,79  L 72,80  L 74,80  L 74,79  L 76,79  L 76,80  L 77,80  L 77,81  L 78,81  L 78,97  L 79,97  L 79,102  L 80,102  L 80,103  L 81,103  L 81,104  L 82,104  L 82,103  L 83,103  L 83,102  L 84,102  L 84,97  L 85,97  L 85,96  L 84,96  L 84,93  L 85,93  L 85,91  L 84,91  L 84,90  L 85,90  L 85,83  L 84,83  L 84,82  L 85,82  L 85,80  L 84,80  Z  " style="fill:rgb(0, 0, 0); fill-opacity:1.000; stroke:none;" />
 <path d="  M 99,56  L 98,56  L 98,57  L 99,57  L 99,60  L 98,60  L 98,61  L 99,61  L 99,64  L 98,64  L 98,65  L 99,65  L 99,68  L 98,68  L 98,69  L 99,69  L 99,72  L 98,72  L 98,73  L 99,73  L 99,106  L 100,106  L 100,108  L 104,108  L 104,17  L 103,17  L 103,16  L 99,16  L 99,17  L 98,17  L 98,39  L 99,39  L 99,40  L 98,40  L 98,41  L 99,41  L 99,44  L 98,44  L 98,45  L 99,45  L 99,52  L 98,52  L 98,53  L 99,53  Z  " style="fill:rgb(0, 0, 0); fill-opacity:1.000; stroke:none;" />
</svg>
