<?xml version="1.0" encoding="UTF-8" standalone="no"?>
<!DOCTYPE svg PUBLIC "-//W3C//DTD SVG 1.1//EN" 
  "http://www.w3.org/Graphics/SVG/1.1/DTD/svg11.dtd">
<svg width="104" height="152"
     xmlns="http://www.w3.org/2000/svg" version="1.1">
 <path d="  M 0,77  L 1,77  L 1,78  L 2,78  L 2,80  L 5,80  L 5,79  L 8,79  L 8,78  L 11,78  L 11,77  L 17,77  L 17,76  L 18,76  L 18,77  L 19,77  L 19,76  L 29,76  L 29,75  L 30,75  L 30,76  L 32,76  L 32,75  L 40,75  L 40,85  L 41,85  L 41,87  L 40,87  L 40,89  L 41,89  L 41,94  L 42,94  L 42,95  L 43,95  L 43,100  L 44,100  L 44,101  L 45,101  L 45,102  L 46,102  L 46,103  L 48,103  L 48,104  L 49,104  L 49,105  L 51,105  L 51,100  L 50,100  L 50,97  L 49,97  L 49,94  L 48,94  L 48,90  L 47,90  L 47,89  L 48,89  L 48,88  L 47,88  L 47,82  L 46,82  L 46,77  L 45,77  L 45,76  L 46,76  L 46,75  L 47,75  L 47,74  L 56,74  L 56,73  L 63,73  L 63,72  L 64,72  L 64,73  L 65,73  L 65,72  L 69,72  L 69,71  L 74,71  L 74,70  L 77,70  L 77,69  L 79,69  L 79,68  L 80,68  L 80,69  L 83,69  L 83,68  L 86,68  L 86,67  L 88,67  L 88,65  L 87,65  L 87,63  L 86,63  L 86,62  L 85,62  L 85,61  L 78,61  L 78,62  L 75,62  L 75,63  L 74,63  L 74,62  L 73,62  L 73,63  L 72,63  L 72,64  L 71,64  L 71,63  L 69,63  L 69,64  L 67,64  L 67,65  L 62,65  L 62,66  L 56,66  L 56,67  L 45,67  L 45,68  L 34,68  L 34,69  L 33,69  L 33,68  L 32,68  L 32,69  L 25,69  L 25,70  L 17,70  L 17,71  L 11,71  L 11,72  L 7,72  L 7,73  L 4,73  L 4,74  L 2,74  L 2,75  L 0,75  Z  " style="fill:rgb(0, 0, 0); fill-opacity:1.000; stroke:none;" />
 <path d="  M 42,22  L 40,22  L 40,21  L 39,21  L 39,20  L 38,20  L 38,17  L 39,17  L 39,15  L 40,15  L 40,13  L 41,13  L 41,11  L 42,11  L 42,10  L 43,10  L 43,7  L 44,7  L 44,3  L 43,3  L 43,2  L 42,2  L 42,1  L 41,1  L 41,0  L 37,0  L 37,3  L 36,3  L 36,4  L 35,4  L 35,9  L 34,9  L 34,11  L 33,11  L 33,12  L 32,12  L 32,14  L 31,14  L 31,15  L 30,15  L 30,16  L 29,16  L 29,19  L 28,19  L 28,20  L 27,20  L 27,22  L 26,22  L 26,24  L 25,24  L 25,25  L 24,25  L 24,26  L 23,26  L 23,28  L 22,28  L 22,30  L 21,30  L 21,32  L 20,32  L 20,33  L 19,33  L 19,34  L 18,34  L 18,36  L 17,36  L 17,37  L 16,37  L 16,38  L 15,38  L 15,40  L 14,40  L 14,41  L 13,41  L 13,42  L 12,42  L 12,44  L 11,44  L 11,45  L 9,45  L 9,47  L 8,47  L 8,48  L 6,48  L 6,49  L 5,49  L 5,50  L 4,50  L 4,54  L 6,54  L 6,55  L 11,55  L 11,54  L 12,54  L 12,53  L 13,53  L 13,52  L 14,52  L 14,50  L 16,50  L 16,48  L 17,48  L 17,47  L 18,47  L 18,46  L 19,46  L 19,44  L 20,44  L 20,43  L 21,43  L 21,42  L 22,42  L 22,40  L 23,40  L 23,39  L 24,39  L 24,38  L 25,38  L 25,36  L 26,36  L 26,35  L 27,35  L 27,34  L 28,34  L 28,33  L 29,33  L 29,30  L 30,30  L 30,28  L 31,28  L 31,27  L 33,27  L 33,26  L 34,26  L 34,27  L 35,27  L 35,28  L 36,28  L 36,29  L 41,29  L 41,30  L 44,30  L 44,31  L 46,31  L 46,32  L 51,32  L 51,33  L 53,33  L 53,34  L 55,34  L 55,35  L 57,35  L 57,36  L 58,36  L 58,37  L 60,37  L 60,39  L 62,39  L 62,40  L 64,40  L 64,41  L 65,41  L 65,42  L 66,42  L 66,43  L 67,43  L 67,44  L 70,44  L 70,45  L 72,45  L 72,46  L 73,46  L 73,47  L 75,47  L 75,48  L 77,48  L 77,47  L 80,47  L 80,46  L 79,46  L 79,43  L 78,43  L 78,42  L 77,42  L 77,41  L 76,41  L 76,40  L 75,40  L 75,39  L 73,39  L 73,38  L 71,38  L 71,37  L 70,37  L 70,36  L 68,36  L 68,35  L 67,35  L 67,34  L 65,34  L 65,33  L 63,33  L 63,32  L 61,32  L 61,31  L 60,31  L 60,30  L 57,30  L 57,29  L 56,29  L 56,28  L 53,28  L 53,27  L 50,27  L 50,26  L 48,26  L 48,25  L 46,25  L 46,24  L 44,24  L 44,23  L 42,23  Z  " style="fill:rgb(0, 0, 0); fill-opacity:1.000; stroke:none;" />
 <path d="  M 32,121  L 33,121  L 33,122  L 34,122  L 34,123  L 35,123  L 35,121  L 34,121  L 34,119  L 33,119  L 33,118  L 32,118  Z  " style="fill:rgb(0, 0, 0); fill-opacity:1.000; stroke:none;" />
 <path d="  M 93,149  L 93,148  L 95,148  L 95,149  L 96,149  L 96,148  L 101,148  L 101,147  L 103,147  L 103,146  L 104,146  L 104,140  L 96,140  L 96,141  L 92,141  L 92,142  L 82,142  L 82,143  L 81,143  L 81,142  L 78,142  L 78,143  L 71,143  L 71,144  L 70,144  L 70,143  L 69,143  L 69,144  L 64,144  L 64,145  L 61,145  L 61,144  L 60,144  L 60,145  L 56,145  L 56,146  L 44,146  L 44,145  L 42,145  L 42,141  L 41,141  L 41,136  L 42,136  L 42,126  L 41,126  L 41,124  L 40,124  L 40,123  L 36,123  L 36,130  L 35,130  L 35,136  L 34,136  L 34,143  L 35,143  L 35,149  L 36,149  L 36,151  L 37,151  L 37,150  L 38,150  L 38,151  L 39,151  L 39,152  L 63,152  L 63,151  L 69,151  L 69,150  L 79,150  L 79,149  L 80,149  L 80,150  L 81,150  L 81,149  Z  " style="fill:rgb(0, 0, 0); fill-opacity:1.000; stroke:none;" />
 <path d="  M 94,20  L 95,20  L 95,30  L 96,30  L 96,32  L 95,32  L 95,33  L 96,33  L 96,58  L 97,58  L 97,60  L 96,60  L 96,67  L 97,67  L 97,68  L 96,68  L 96,71  L 97,71  L 97,72  L 96,72  L 96,103  L 97,103  L 97,104  L 96,104  L 96,106  L 97,106  L 97,114  L 100,114  L 100,115  L 101,115  L 101,114  L 103,114  L 103,44  L 102,44  L 102,43  L 103,43  L 103,42  L 102,42  L 102,41  L 103,41  L 103,40  L 102,40  L 102,28  L 101,28  L 101,27  L 102,27  L 102,26  L 101,26  L 101,18  L 100,18  L 100,10  L 99,10  L 99,8  L 94,8  Z  " style="fill:rgb(0, 0, 0); fill-opacity:1.000; stroke:none;" />
</svg>
