<?xml version="1.0" encoding="UTF-8" standalone="no"?>
<!DOCTYPE svg PUBLIC "-//W3C//DTD SVG 1.1//EN" 
  "http://www.w3.org/Graphics/SVG/1.1/DTD/svg11.dtd">
<svg width="105" height="162"
     xmlns="http://www.w3.org/2000/svg" version="1.1">
 <path d="  M 0,76  L 0,77  L 1,77  L 1,78  L 3,78  L 3,79  L 6,79  L 6,78  L 8,78  L 8,77  L 10,77  L 10,76  L 13,76  L 13,75  L 18,75  L 18,74  L 19,74  L 19,75  L 20,75  L 20,74  L 34,74  L 34,73  L 35,73  L 35,74  L 39,74  L 39,75  L 38,75  L 38,77  L 37,77  L 37,83  L 38,83  L 38,84  L 37,84  L 37,99  L 38,99  L 38,101  L 39,101  L 39,102  L 38,102  L 38,103  L 43,103  L 43,102  L 44,102  L 44,101  L 45,101  L 45,94  L 44,94  L 44,83  L 45,83  L 45,82  L 44,82  L 44,80  L 45,80  L 45,74  L 46,74  L 46,73  L 50,73  L 50,72  L 53,72  L 53,73  L 54,73  L 54,72  L 66,72  L 66,71  L 71,71  L 71,70  L 75,70  L 75,69  L 78,69  L 78,68  L 82,68  L 82,67  L 84,67  L 84,66  L 89,66  L 89,65  L 91,65  L 91,64  L 89,64  L 89,63  L 88,63  L 88,62  L 87,62  L 87,61  L 85,61  L 85,60  L 84,60  L 84,59  L 80,59  L 80,60  L 78,60  L 78,61  L 77,61  L 77,62  L 74,62  L 74,63  L 69,63  L 69,64  L 64,64  L 64,65  L 63,65  L 63,64  L 62,64  L 62,65  L 57,65  L 57,66  L 56,66  L 56,65  L 54,65  L 54,66  L 44,66  L 44,67  L 42,67  L 42,66  L 41,66  L 41,67  L 32,67  L 32,68  L 31,68  L 31,67  L 30,67  L 30,68  L 19,68  L 19,69  L 12,69  L 12,70  L 9,70  L 9,71  L 5,71  L 5,72  L 3,72  L 3,73  L 1,73  L 1,76  Z  " style="fill:rgb(0, 0, 0); fill-opacity:1.000; stroke:none;" />
 <path d="  M 42,22  L 41,22  L 41,19  L 42,19  L 42,18  L 43,18  L 43,16  L 44,16  L 44,15  L 45,15  L 45,13  L 46,13  L 46,11  L 47,11  L 47,7  L 48,7  L 48,6  L 47,6  L 47,4  L 46,4  L 46,2  L 45,2  L 45,1  L 44,1  L 44,0  L 42,0  L 42,1  L 39,1  L 39,7  L 38,7  L 38,9  L 37,9  L 37,11  L 36,11  L 36,12  L 35,12  L 35,15  L 34,15  L 34,16  L 33,16  L 33,17  L 32,17  L 32,19  L 31,19  L 31,20  L 30,20  L 30,21  L 29,21  L 29,22  L 28,22  L 28,24  L 27,24  L 27,26  L 26,26  L 26,28  L 24,28  L 24,30  L 23,30  L 23,32  L 22,32  L 22,34  L 21,34  L 21,35  L 20,35  L 20,36  L 19,36  L 19,38  L 18,38  L 18,39  L 17,39  L 17,40  L 16,40  L 16,42  L 14,42  L 14,44  L 13,44  L 13,45  L 12,45  L 12,46  L 11,46  L 11,47  L 10,47  L 10,48  L 9,48  L 9,49  L 8,49  L 8,50  L 7,50  L 7,51  L 6,51  L 6,53  L 7,53  L 7,54  L 8,54  L 8,55  L 10,55  L 10,56  L 11,56  L 11,55  L 13,55  L 13,54  L 15,54  L 15,53  L 16,53  L 16,52  L 17,52  L 17,51  L 18,51  L 18,49  L 19,49  L 19,48  L 20,48  L 20,47  L 21,47  L 21,46  L 22,46  L 22,45  L 23,45  L 23,43  L 24,43  L 24,42  L 25,42  L 25,40  L 26,40  L 26,39  L 27,39  L 27,38  L 28,38  L 28,37  L 29,37  L 29,36  L 30,36  L 30,34  L 32,34  L 32,33  L 33,33  L 33,32  L 34,32  L 34,29  L 35,29  L 35,27  L 36,27  L 36,26  L 37,26  L 37,27  L 38,27  L 38,28  L 39,28  L 39,29  L 40,29  L 40,30  L 42,30  L 42,31  L 44,31  L 44,32  L 46,32  L 46,33  L 47,33  L 47,34  L 51,34  L 51,35  L 54,35  L 54,36  L 55,36  L 55,37  L 57,37  L 57,38  L 59,38  L 59,39  L 60,39  L 60,40  L 61,40  L 61,41  L 63,41  L 63,42  L 65,42  L 65,44  L 66,44  L 66,45  L 67,45  L 67,46  L 68,46  L 68,47  L 69,47  L 69,48  L 70,48  L 70,49  L 71,49  L 71,50  L 73,50  L 73,51  L 74,51  L 74,52  L 77,52  L 77,53  L 83,53  L 83,50  L 82,50  L 82,48  L 81,48  L 81,47  L 80,47  L 80,46  L 79,46  L 79,45  L 78,45  L 78,44  L 76,44  L 76,43  L 75,43  L 75,42  L 74,42  L 74,41  L 72,41  L 72,40  L 70,40  L 70,39  L 69,39  L 69,38  L 68,38  L 68,37  L 67,37  L 67,36  L 65,36  L 65,35  L 64,35  L 64,34  L 63,34  L 63,33  L 61,33  L 61,32  L 59,32  L 59,31  L 57,31  L 57,30  L 54,30  L 54,29  L 52,29  L 52,28  L 50,28  L 50,27  L 48,27  L 48,26  L 47,26  L 47,25  L 45,25  L 45,24  L 44,24  L 44,23  L 42,23  Z  " style="fill:rgb(0, 0, 0); fill-opacity:1.000; stroke:none;" />
 <path d="  M 74,155  L 74,154  L 73,154  L 73,155  L 70,155  L 70,154  L 69,154  L 69,155  L 65,155  L 65,156  L 64,156  L 64,155  L 63,155  L 63,156  L 55,156  L 55,155  L 52,155  L 52,153  L 51,153  L 51,143  L 50,143  L 50,141  L 51,141  L 51,140  L 50,140  L 50,126  L 51,126  L 51,125  L 60,125  L 60,124  L 63,124  L 63,125  L 64,125  L 64,124  L 93,124  L 93,125  L 96,125  L 96,126  L 97,126  L 97,127  L 98,127  L 98,134  L 97,134  L 97,142  L 96,142  L 96,147  L 95,147  L 95,151  L 94,151  L 94,153  L 88,153  L 88,154  L 79,154  L 79,155  L 78,155  L 78,154  L 77,154  L 77,155  Z  M 92,160  L 92,159  L 93,159  L 93,158  L 96,158  L 96,157  L 97,157  L 97,156  L 98,156  L 98,155  L 100,155  L 100,152  L 101,152  L 101,148  L 102,148  L 102,143  L 103,143  L 103,139  L 104,139  L 104,138  L 103,138  L 103,136  L 104,136  L 104,129  L 105,129  L 105,128  L 104,128  L 104,124  L 103,124  L 103,122  L 102,122  L 102,121  L 101,121  L 101,120  L 100,120  L 100,119  L 98,119  L 98,118  L 96,118  L 96,117  L 65,117  L 65,118  L 64,118  L 64,117  L 63,117  L 63,118  L 62,118  L 62,117  L 61,117  L 61,118  L 51,118  L 51,117  L 39,117  L 39,118  L 36,118  L 36,119  L 33,119  L 33,120  L 32,120  L 32,121  L 31,121  L 31,122  L 30,122  L 30,123  L 31,123  L 31,125  L 33,125  L 33,126  L 37,126  L 37,127  L 42,127  L 42,126  L 43,126  L 43,136  L 44,136  L 44,137  L 43,137  L 43,139  L 44,139  L 44,140  L 43,140  L 43,141  L 44,141  L 44,142  L 43,142  L 43,143  L 44,143  L 44,150  L 45,150  L 45,154  L 46,154  L 46,156  L 47,156  L 47,159  L 48,159  L 48,160  L 49,160  L 49,162  L 76,162  L 76,161  L 77,161  L 77,162  L 78,162  L 78,161  L 81,161  L 81,162  L 82,162  L 82,161  L 89,161  L 89,160  Z  " style="fill:rgb(0, 0, 0); fill-opacity:1.000; stroke:none;" />
 <path d="  M 90,66  L 90,67  L 91,67  L 91,66  Z  " style="fill:rgb(0, 0, 0); fill-opacity:1.000; stroke:none;" />
 <path d="  M 92,65  L 91,65  L 91,66  L 92,66  Z  " style="fill:rgb(0, 0, 0); fill-opacity:1.000; stroke:none;" />
 <path d="  M 105,32  L 104,32  L 104,22  L 103,22  L 103,14  L 102,14  L 102,11  L 100,11  L 100,10  L 97,10  L 97,13  L 96,13  L 96,16  L 97,16  L 97,28  L 98,28  L 98,40  L 99,40  L 99,77  L 98,77  L 98,90  L 99,90  L 99,93  L 98,93  L 98,94  L 99,94  L 99,108  L 98,108  L 98,109  L 99,109  L 99,112  L 101,112  L 101,113  L 104,113  L 104,112  L 105,112  Z  " style="fill:rgb(0, 0, 0); fill-opacity:1.000; stroke:none;" />
</svg>
