<?xml version="1.0" encoding="UTF-8" standalone="no"?>
<!DOCTYPE svg PUBLIC "-//W3C//DTD SVG 1.1//EN" 
  "http://www.w3.org/Graphics/SVG/1.1/DTD/svg11.dtd">
<svg width="106" height="165"
     xmlns="http://www.w3.org/2000/svg" version="1.1">
 <path d="  M 0,76  L 0,77  L 1,77  L 1,79  L 2,79  L 2,80  L 7,80  L 7,79  L 10,79  L 10,78  L 13,78  L 13,77  L 20,77  L 20,76  L 39,76  L 39,77  L 40,77  L 40,80  L 39,80  L 39,97  L 40,97  L 40,98  L 39,98  L 39,99  L 40,99  L 40,104  L 42,104  L 42,105  L 45,105  L 45,104  L 47,104  L 47,102  L 46,102  L 46,93  L 45,93  L 45,92  L 46,92  L 46,90  L 45,90  L 45,88  L 46,88  L 46,87  L 45,87  L 45,85  L 46,85  L 46,77  L 47,77  L 47,76  L 48,76  L 48,75  L 66,75  L 66,74  L 72,74  L 72,73  L 75,73  L 75,72  L 77,72  L 77,71  L 78,71  L 78,72  L 79,72  L 79,71  L 82,71  L 82,70  L 85,70  L 85,69  L 88,69  L 88,66  L 87,66  L 87,65  L 86,65  L 86,63  L 85,63  L 85,62  L 82,62  L 82,63  L 81,63  L 81,62  L 80,62  L 80,63  L 78,63  L 78,64  L 77,64  L 77,65  L 74,65  L 74,66  L 69,66  L 69,67  L 66,67  L 66,68  L 59,68  L 59,69  L 37,69  L 37,70  L 36,70  L 36,69  L 35,69  L 35,70  L 34,70  L 34,69  L 33,69  L 33,70  L 17,70  L 17,71  L 11,71  L 11,72  L 8,72  L 8,73  L 4,73  L 4,74  L 2,74  L 2,76  Z  " style="fill:rgb(0, 0, 0); fill-opacity:1.000; stroke:none;" />
 <path d="  M 22,47  L 22,45  L 23,45  L 23,43  L 24,43  L 24,42  L 25,42  L 25,41  L 26,41  L 26,40  L 27,40  L 27,39  L 28,39  L 28,38  L 29,38  L 29,36  L 30,36  L 30,34  L 32,34  L 32,33  L 33,33  L 33,32  L 34,32  L 34,29  L 35,29  L 35,28  L 36,28  L 36,27  L 38,27  L 38,28  L 39,28  L 39,29  L 40,29  L 40,30  L 41,30  L 41,31  L 42,31  L 42,32  L 45,32  L 45,33  L 47,33  L 47,34  L 51,34  L 51,35  L 54,35  L 54,36  L 55,36  L 55,37  L 57,37  L 57,38  L 59,38  L 59,39  L 60,39  L 60,40  L 61,40  L 61,41  L 63,41  L 63,42  L 65,42  L 65,44  L 66,44  L 66,45  L 67,45  L 67,46  L 68,46  L 68,48  L 69,48  L 69,49  L 71,49  L 71,50  L 72,50  L 72,51  L 74,51  L 74,52  L 75,52  L 75,53  L 76,53  L 76,54  L 78,54  L 78,55  L 82,55  L 82,54  L 83,54  L 83,51  L 82,51  L 82,49  L 81,49  L 81,48  L 80,48  L 80,47  L 79,47  L 79,46  L 78,46  L 78,45  L 77,45  L 77,44  L 75,44  L 75,43  L 74,43  L 74,42  L 73,42  L 73,41  L 72,41  L 72,40  L 71,40  L 71,39  L 70,39  L 70,38  L 68,38  L 68,37  L 67,37  L 67,36  L 65,36  L 65,35  L 64,35  L 64,34  L 63,34  L 63,33  L 61,33  L 61,32  L 59,32  L 59,31  L 58,31  L 58,30  L 54,30  L 54,29  L 52,29  L 52,28  L 50,28  L 50,27  L 48,27  L 48,26  L 47,26  L 47,25  L 45,25  L 45,24  L 44,24  L 44,23  L 42,23  L 42,20  L 43,20  L 43,19  L 44,19  L 44,17  L 45,17  L 45,15  L 46,15  L 46,14  L 47,14  L 47,13  L 48,13  L 48,12  L 49,12  L 49,10  L 50,10  L 50,7  L 49,7  L 49,5  L 48,5  L 48,3  L 47,3  L 47,2  L 46,2  L 46,1  L 45,1  L 45,0  L 42,0  L 42,1  L 39,1  L 39,2  L 38,2  L 38,3  L 39,3  L 39,4  L 40,4  L 40,8  L 39,8  L 39,11  L 38,11  L 38,12  L 37,12  L 37,14  L 36,14  L 36,15  L 35,15  L 35,17  L 34,17  L 34,18  L 33,18  L 33,19  L 32,19  L 32,20  L 31,20  L 31,22  L 30,22  L 30,23  L 29,23  L 29,24  L 28,24  L 28,26  L 27,26  L 27,28  L 26,28  L 26,30  L 24,30  L 24,32  L 23,32  L 23,34  L 21,34  L 21,36  L 20,36  L 20,37  L 19,37  L 19,38  L 18,38  L 18,40  L 17,40  L 17,41  L 16,41  L 16,42  L 15,42  L 15,43  L 14,43  L 14,45  L 13,45  L 13,46  L 12,46  L 12,47  L 11,47  L 11,48  L 10,48  L 10,49  L 9,49  L 9,50  L 8,50  L 8,51  L 7,51  L 7,52  L 6,52  L 6,54  L 7,54  L 7,57  L 8,57  L 8,56  L 13,56  L 13,55  L 14,55  L 14,54  L 16,54  L 16,52  L 17,52  L 17,51  L 18,51  L 18,50  L 19,50  L 19,49  L 20,49  L 20,48  L 21,48  L 21,47  Z  " style="fill:rgb(0, 0, 0); fill-opacity:1.000; stroke:none;" />
 <path d="  M 51,158  L 49,158  L 49,157  L 48,157  L 48,156  L 47,156  L 47,153  L 46,153  L 46,150  L 45,150  L 45,144  L 44,144  L 44,140  L 45,140  L 45,139  L 47,139  L 47,138  L 48,138  L 48,139  L 49,139  L 49,138  L 52,138  L 52,139  L 53,139  L 53,138  L 84,138  L 84,137  L 85,137  L 85,138  L 89,138  L 89,147  L 88,147  L 88,149  L 87,149  L 87,152  L 86,152  L 86,153  L 83,153  L 83,154  L 81,154  L 81,155  L 77,155  L 77,156  L 73,156  L 73,157  L 68,157  L 68,158  L 67,158  L 67,157  L 66,157  L 66,158  L 61,158  L 61,159  L 58,159  L 58,158  L 57,158  L 57,159  L 54,159  L 54,158  L 53,158  L 53,159  L 51,159  Z  M 95,143  L 96,143  L 96,138  L 97,138  L 97,133  L 98,133  L 98,130  L 99,130  L 99,127  L 98,127  L 98,126  L 99,126  L 99,110  L 95,110  L 95,111  L 94,111  L 94,114  L 93,114  L 93,130  L 91,130  L 91,131  L 90,131  L 90,130  L 89,130  L 89,131  L 86,131  L 86,130  L 85,130  L 85,131  L 82,131  L 82,130  L 81,130  L 81,131  L 78,131  L 78,130  L 77,130  L 77,131  L 74,131  L 74,130  L 73,130  L 73,131  L 70,131  L 70,130  L 69,130  L 69,131  L 66,131  L 66,130  L 65,130  L 65,131  L 62,131  L 62,130  L 61,130  L 61,131  L 58,131  L 58,130  L 57,130  L 57,131  L 49,131  L 49,132  L 47,132  L 47,131  L 44,131  L 44,130  L 43,130  L 43,128  L 44,128  L 44,122  L 45,122  L 45,120  L 44,120  L 44,119  L 45,119  L 45,114  L 44,114  L 44,113  L 41,113  L 41,114  L 38,114  L 38,115  L 36,115  L 36,117  L 35,117  L 35,120  L 36,120  L 36,121  L 35,121  L 35,122  L 36,122  L 36,138  L 37,138  L 37,140  L 38,140  L 38,144  L 39,144  L 39,145  L 38,145  L 38,146  L 39,146  L 39,152  L 40,152  L 40,158  L 41,158  L 41,161  L 42,161  L 42,162  L 43,162  L 43,163  L 45,163  L 45,164  L 47,164  L 47,165  L 66,165  L 66,164  L 70,164  L 70,163  L 71,163  L 71,164  L 72,164  L 72,163  L 74,163  L 74,162  L 75,162  L 75,163  L 76,163  L 76,162  L 81,162  L 81,161  L 82,161  L 82,160  L 83,160  L 83,161  L 84,161  L 84,160  L 86,160  L 86,159  L 88,159  L 88,158  L 89,158  L 89,157  L 91,157  L 91,156  L 92,156  L 92,155  L 93,155  L 93,153  L 94,153  L 94,151  L 95,151  Z  " style="fill:rgb(0, 0, 0); fill-opacity:1.000; stroke:none;" />
 <path d="  M 99,30  L 100,30  L 100,32  L 99,32  L 99,33  L 100,33  L 100,76  L 99,76  L 99,77  L 100,77  L 100,80  L 99,80  L 99,81  L 100,81  L 100,84  L 99,84  L 99,85  L 100,85  L 100,88  L 99,88  L 99,89  L 100,89  L 100,92  L 99,92  L 99,93  L 100,93  L 100,101  L 99,101  L 99,105  L 100,105  L 100,106  L 103,106  L 103,105  L 105,105  L 105,104  L 106,104  L 106,25  L 105,25  L 105,12  L 104,12  L 104,6  L 103,6  L 103,5  L 102,5  L 102,4  L 99,4  L 99,5  L 98,5  L 98,17  L 99,17  Z  " style="fill:rgb(0, 0, 0); fill-opacity:1.000; stroke:none;" />
</svg>
