<?xml version="1.0" encoding="UTF-8" standalone="no"?>
<!DOCTYPE svg PUBLIC "-//W3C//DTD SVG 1.1//EN" 
  "http://www.w3.org/Graphics/SVG/1.1/DTD/svg11.dtd">
<svg width="104" height="169"
     xmlns="http://www.w3.org/2000/svg" version="1.1">
 <path d="  M 35,95  L 34,95  L 34,96  L 35,96  L 35,99  L 34,99  L 34,100  L 35,100  L 35,110  L 36,110  L 36,113  L 34,113  L 34,114  L 30,114  L 30,115  L 28,115  L 28,116  L 27,116  L 27,117  L 25,117  L 25,118  L 26,118  L 26,119  L 27,119  L 27,120  L 35,120  L 35,121  L 36,121  L 36,120  L 39,120  L 39,121  L 40,121  L 40,120  L 54,120  L 54,119  L 55,119  L 55,120  L 56,120  L 56,119  L 57,119  L 57,120  L 58,120  L 58,119  L 69,119  L 69,120  L 71,120  L 71,123  L 70,123  L 70,124  L 69,124  L 69,126  L 68,126  L 68,128  L 67,128  L 67,129  L 66,129  L 66,130  L 64,130  L 64,131  L 62,131  L 62,133  L 61,133  L 61,134  L 59,134  L 59,135  L 56,135  L 56,136  L 53,136  L 53,137  L 52,137  L 52,136  L 51,136  L 51,137  L 45,137  L 45,138  L 43,138  L 43,137  L 42,137  L 42,138  L 24,138  L 24,139  L 22,139  L 22,140  L 21,140  L 21,141  L 20,141  L 20,145  L 19,145  L 19,149  L 18,149  L 18,150  L 19,150  L 19,151  L 18,151  L 18,152  L 19,152  L 19,153  L 18,153  L 18,154  L 19,154  L 19,157  L 20,157  L 20,159  L 21,159  L 21,162  L 22,162  L 22,163  L 23,163  L 23,165  L 24,165  L 24,166  L 27,166  L 27,167  L 30,167  L 30,168  L 32,168  L 32,169  L 61,169  L 61,168  L 67,168  L 67,167  L 70,167  L 70,166  L 73,166  L 73,165  L 75,165  L 75,164  L 78,164  L 78,163  L 80,163  L 80,162  L 83,162  L 83,161  L 85,161  L 85,160  L 86,160  L 86,159  L 87,159  L 87,157  L 88,157  L 88,156  L 87,156  L 87,155  L 86,155  L 86,154  L 82,154  L 82,155  L 78,155  L 78,156  L 75,156  L 75,157  L 73,157  L 73,158  L 69,158  L 69,159  L 66,159  L 66,160  L 62,160  L 62,161  L 57,161  L 57,162  L 49,162  L 49,163  L 46,163  L 46,162  L 38,162  L 38,161  L 33,161  L 33,160  L 31,160  L 31,159  L 29,159  L 29,158  L 27,158  L 27,157  L 26,157  L 26,153  L 25,153  L 25,151  L 26,151  L 26,147  L 28,147  L 28,146  L 55,146  L 55,145  L 57,145  L 57,144  L 58,144  L 58,145  L 59,145  L 59,144  L 61,144  L 61,143  L 62,143  L 62,142  L 64,142  L 64,141  L 65,141  L 65,140  L 66,140  L 66,139  L 67,139  L 67,138  L 68,138  L 68,137  L 69,137  L 69,136  L 70,136  L 70,135  L 71,135  L 71,133  L 72,133  L 72,132  L 73,132  L 73,131  L 74,131  L 74,130  L 75,130  L 75,129  L 76,129  L 76,128  L 78,128  L 78,125  L 79,125  L 79,120  L 78,120  L 78,118  L 77,118  L 77,116  L 76,116  L 76,115  L 75,115  L 75,113  L 74,113  L 74,100  L 75,100  L 75,99  L 74,99  L 74,96  L 75,96  L 75,93  L 74,93  L 74,92  L 75,92  L 75,88  L 74,88  L 74,87  L 75,87  L 75,78  L 89,78  L 89,77  L 100,77  L 100,76  L 102,76  L 102,75  L 103,75  L 103,74  L 104,74  L 104,68  L 102,68  L 102,67  L 101,67  L 101,68  L 92,68  L 92,69  L 91,69  L 91,68  L 90,68  L 90,69  L 79,69  L 79,70  L 78,70  L 78,69  L 76,69  L 76,70  L 70,70  L 70,71  L 57,71  L 57,72  L 55,72  L 55,71  L 54,71  L 54,72  L 43,72  L 43,71  L 39,71  L 39,70  L 38,70  L 38,71  L 22,71  L 22,72  L 18,72  L 18,73  L 17,73  L 17,72  L 16,72  L 16,73  L 14,73  L 14,74  L 11,74  L 11,75  L 7,75  L 7,76  L 3,76  L 3,77  L 1,77  L 1,83  L 2,83  L 2,82  L 3,82  L 3,83  L 10,83  L 10,82  L 15,82  L 15,81  L 16,81  L 16,82  L 17,82  L 17,81  L 31,81  L 31,80  L 35,80  Z  M 55,112  L 55,111  L 54,111  L 54,112  L 50,112  L 50,113  L 49,113  L 49,112  L 47,112  L 47,113  L 45,113  L 45,112  L 41,112  L 41,108  L 42,108  L 42,90  L 43,90  L 43,80  L 44,80  L 44,79  L 46,79  L 46,80  L 48,80  L 48,79  L 49,79  L 49,80  L 50,80  L 50,79  L 53,79  L 53,80  L 54,80  L 54,79  L 57,79  L 57,80  L 58,80  L 58,79  L 64,79  L 64,78  L 66,78  L 66,79  L 67,79  L 67,82  L 66,82  L 66,83  L 67,83  L 67,111  L 64,111  L 64,112  L 63,112  L 63,111  L 62,111  L 62,112  L 59,112  L 59,111  L 58,111  L 58,112  Z  " style="fill:rgb(0, 0, 0); fill-opacity:1.000; stroke:none;" />
 <path d="  M 40,20  L 41,20  L 41,19  L 42,19  L 42,18  L 43,18  L 43,16  L 45,16  L 45,17  L 46,17  L 46,18  L 47,18  L 47,19  L 50,19  L 50,20  L 51,20  L 51,21  L 52,21  L 52,22  L 53,22  L 53,23  L 55,23  L 55,24  L 56,24  L 56,25  L 58,25  L 58,26  L 60,26  L 60,27  L 62,27  L 62,28  L 63,28  L 63,29  L 64,29  L 64,30  L 67,30  L 67,31  L 68,31  L 68,32  L 70,32  L 70,33  L 71,33  L 71,34  L 72,34  L 72,35  L 74,35  L 74,36  L 78,36  L 78,37  L 79,37  L 79,38  L 81,38  L 81,39  L 82,39  L 82,40  L 83,40  L 83,41  L 85,41  L 85,42  L 86,42  L 86,43  L 87,43  L 87,45  L 93,45  L 93,44  L 94,44  L 94,43  L 95,43  L 95,42  L 96,42  L 96,41  L 95,41  L 95,40  L 94,40  L 94,39  L 93,39  L 93,38  L 92,38  L 92,37  L 90,37  L 90,36  L 88,36  L 88,35  L 86,35  L 86,34  L 85,34  L 85,33  L 83,33  L 83,32  L 81,32  L 81,31  L 79,31  L 79,30  L 78,30  L 78,29  L 77,29  L 77,28  L 74,28  L 74,27  L 73,27  L 73,26  L 72,26  L 72,25  L 71,25  L 71,24  L 69,24  L 69,23  L 67,23  L 67,22  L 66,22  L 66,21  L 64,21  L 64,20  L 63,20  L 63,19  L 62,19  L 62,18  L 61,18  L 61,17  L 59,17  L 59,16  L 57,16  L 57,15  L 56,15  L 56,14  L 54,14  L 54,13  L 53,13  L 53,12  L 52,12  L 52,11  L 51,11  L 51,9  L 50,9  L 50,7  L 49,7  L 49,3  L 48,3  L 48,2  L 47,2  L 47,1  L 45,1  L 45,0  L 44,0  L 44,1  L 43,1  L 43,2  L 42,2  L 42,3  L 41,3  L 41,5  L 40,5  L 40,7  L 39,7  L 39,10  L 38,10  L 38,12  L 37,12  L 37,13  L 36,13  L 36,15  L 35,15  L 35,16  L 34,16  L 34,17  L 33,17  L 33,18  L 32,18  L 32,19  L 31,19  L 31,20  L 30,20  L 30,21  L 29,21  L 29,22  L 28,22  L 28,24  L 27,24  L 27,26  L 26,26  L 26,28  L 25,28  L 25,30  L 24,30  L 24,31  L 23,31  L 23,33  L 22,33  L 22,34  L 21,34  L 21,35  L 20,35  L 20,36  L 19,36  L 19,38  L 18,38  L 18,39  L 17,39  L 17,40  L 16,40  L 16,41  L 15,41  L 15,42  L 14,42  L 14,43  L 13,43  L 13,44  L 12,44  L 12,45  L 11,45  L 11,47  L 10,47  L 10,49  L 9,49  L 9,54  L 10,54  L 10,55  L 11,55  L 11,57  L 12,57  L 12,56  L 15,56  L 15,54  L 16,54  L 16,53  L 17,53  L 17,52  L 18,52  L 18,51  L 19,51  L 19,50  L 20,50  L 20,48  L 21,48  L 21,47  L 22,47  L 22,46  L 23,46  L 23,45  L 24,45  L 24,44  L 25,44  L 25,42  L 27,42  L 27,40  L 28,40  L 28,38  L 29,38  L 29,37  L 30,37  L 30,35  L 31,35  L 31,34  L 32,34  L 32,32  L 33,32  L 33,30  L 34,30  L 34,29  L 35,29  L 35,27  L 36,27  L 36,26  L 37,26  L 37,24  L 38,24  L 38,23  L 39,23  L 39,22  L 40,22  Z  " style="fill:rgb(0, 0, 0); fill-opacity:1.000; stroke:none;" />
</svg>
