<?xml version="1.0" encoding="UTF-8" standalone="no"?>
<!DOCTYPE svg PUBLIC "-//W3C//DTD SVG 1.1//EN" 
  "http://www.w3.org/Graphics/SVG/1.1/DTD/svg11.dtd">
<svg width="101" height="168"
     xmlns="http://www.w3.org/2000/svg" version="1.1">
 <path d="  M 26,155  L 27,155  L 27,159  L 28,159  L 28,161  L 29,161  L 29,162  L 30,162  L 30,163  L 31,163  L 31,164  L 32,164  L 32,166  L 34,166  L 34,167  L 35,167  L 35,168  L 44,168  L 44,167  L 48,167  L 48,166  L 52,166  L 52,165  L 55,165  L 55,164  L 57,164  L 57,163  L 61,163  L 61,162  L 63,162  L 63,161  L 65,161  L 65,160  L 66,160  L 66,159  L 69,159  L 69,158  L 70,158  L 70,157  L 71,157  L 71,155  L 73,155  L 73,154  L 75,154  L 75,153  L 76,153  L 76,152  L 77,152  L 77,151  L 78,151  L 78,148  L 79,148  L 79,146  L 80,146  L 80,143  L 81,143  L 81,140  L 82,140  L 82,138  L 83,138  L 83,135  L 84,135  L 84,132  L 85,132  L 85,128  L 86,128  L 86,122  L 87,122  L 87,113  L 86,113  L 86,110  L 85,110  L 85,109  L 78,109  L 78,108  L 77,108  L 77,107  L 76,107  L 76,102  L 75,102  L 75,74  L 76,74  L 76,71  L 79,71  L 79,70  L 81,70  L 81,71  L 82,71  L 82,70  L 94,70  L 94,69  L 98,69  L 98,68  L 100,68  L 100,67  L 101,67  L 101,61  L 98,61  L 98,60  L 91,60  L 91,61  L 84,61  L 84,62  L 74,62  L 74,63  L 70,63  L 70,64  L 68,64  L 68,65  L 63,65  L 63,66  L 55,66  L 55,67  L 54,67  L 54,66  L 53,66  L 53,67  L 46,67  L 46,66  L 45,66  L 45,67  L 44,67  L 44,66  L 22,66  L 22,67  L 19,67  L 19,68  L 18,68  L 18,69  L 15,69  L 15,70  L 9,70  L 9,71  L 5,71  L 5,72  L 2,72  L 2,73  L 1,73  L 1,75  L 0,75  L 0,76  L 1,76  L 1,77  L 11,77  L 11,76  L 18,76  L 18,75  L 25,75  L 25,74  L 35,74  L 35,73  L 37,73  L 37,74  L 38,74  L 38,75  L 39,75  L 39,106  L 38,106  L 38,112  L 36,112  L 36,113  L 33,113  L 33,112  L 31,112  L 31,111  L 27,111  L 27,112  L 26,112  L 26,111  L 25,111  L 25,112  L 24,112  L 24,111  L 23,111  L 23,112  L 22,112  L 22,111  L 21,111  L 21,112  L 19,112  L 19,113  L 18,113  L 18,115  L 19,115  L 19,116  L 20,116  L 20,117  L 22,117  L 22,118  L 24,118  L 24,119  L 25,119  L 25,120  L 27,120  L 27,128  L 26,128  Z  M 79,130  L 78,130  L 78,133  L 77,133  L 77,136  L 76,136  L 76,139  L 75,139  L 75,141  L 74,141  L 74,143  L 73,143  L 73,144  L 72,144  L 72,147  L 71,147  L 71,149  L 69,149  L 69,151  L 67,151  L 67,152  L 66,152  L 66,153  L 65,153  L 65,154  L 62,154  L 62,155  L 61,155  L 61,156  L 58,156  L 58,157  L 56,157  L 56,158  L 55,158  L 55,157  L 54,157  L 54,158  L 51,158  L 51,159  L 48,159  L 48,160  L 45,160  L 45,161  L 44,161  L 44,162  L 39,162  L 39,161  L 38,161  L 38,162  L 37,162  L 37,161  L 36,161  L 36,160  L 35,160  L 35,159  L 34,159  L 34,157  L 33,157  L 33,133  L 34,133  L 34,124  L 35,124  L 35,121  L 36,121  L 36,120  L 38,120  L 38,119  L 52,119  L 52,118  L 54,118  L 54,119  L 55,119  L 55,118  L 58,118  L 58,119  L 59,119  L 59,118  L 64,118  L 64,117  L 76,117  L 76,116  L 77,116  L 77,117  L 79,117  L 79,119  L 80,119  L 80,124  L 79,124  Z  M 45,112  L 45,108  L 46,108  L 46,106  L 45,106  L 45,105  L 46,105  L 46,104  L 45,104  L 45,103  L 46,103  L 46,74  L 48,74  L 48,73  L 65,73  L 65,72  L 66,72  L 66,73  L 67,73  L 67,96  L 68,96  L 68,98  L 67,98  L 67,99  L 68,99  L 68,108  L 69,108  L 69,110  L 68,110  L 68,111  L 61,111  L 61,112  Z  " style="fill:rgb(0, 0, 0); fill-opacity:1.000; stroke:none;" />
 <path d="  M 40,21  L 40,19  L 41,19  L 41,18  L 42,18  L 42,17  L 46,17  L 46,18  L 47,18  L 47,19  L 51,19  L 51,20  L 52,20  L 52,21  L 54,21  L 54,22  L 56,22  L 56,24  L 58,24  L 58,25  L 60,25  L 60,26  L 61,26  L 61,27  L 64,27  L 64,28  L 65,28  L 65,29  L 68,29  L 68,30  L 69,30  L 69,31  L 70,31  L 70,30  L 71,30  L 71,31  L 72,31  L 72,32  L 75,32  L 75,33  L 76,33  L 76,34  L 77,34  L 77,35  L 79,35  L 79,36  L 80,36  L 80,37  L 82,37  L 82,38  L 83,38  L 83,39  L 84,39  L 84,40  L 87,40  L 87,41  L 90,41  L 90,40  L 91,40  L 91,39  L 92,39  L 92,36  L 91,36  L 91,35  L 90,35  L 90,34  L 89,34  L 89,33  L 87,33  L 87,32  L 86,32  L 86,31  L 84,31  L 84,30  L 83,30  L 83,29  L 81,29  L 81,28  L 79,28  L 79,27  L 76,27  L 76,26  L 74,26  L 74,25  L 72,25  L 72,24  L 70,24  L 70,23  L 69,23  L 69,22  L 67,22  L 67,21  L 65,21  L 65,20  L 63,20  L 63,19  L 62,19  L 62,18  L 61,18  L 61,17  L 59,17  L 59,16  L 58,16  L 58,15  L 57,15  L 57,14  L 56,14  L 56,13  L 55,13  L 55,12  L 54,12  L 54,11  L 53,11  L 53,9  L 52,9  L 52,8  L 51,8  L 51,6  L 50,6  L 50,5  L 49,5  L 49,3  L 48,3  L 48,2  L 47,2  L 47,1  L 46,1  L 46,0  L 44,0  L 44,1  L 43,1  L 43,2  L 42,2  L 42,3  L 41,3  L 41,6  L 40,6  L 40,7  L 39,7  L 39,8  L 38,8  L 38,10  L 37,10  L 37,11  L 36,11  L 36,13  L 35,13  L 35,14  L 34,14  L 34,16  L 33,16  L 33,17  L 32,17  L 32,18  L 31,18  L 31,20  L 30,20  L 30,21  L 29,21  L 29,22  L 28,22  L 28,25  L 27,25  L 27,27  L 26,27  L 26,28  L 25,28  L 25,30  L 24,30  L 24,33  L 23,33  L 23,34  L 22,34  L 22,35  L 21,35  L 21,36  L 20,36  L 20,38  L 19,38  L 19,39  L 18,39  L 18,40  L 17,40  L 17,42  L 16,42  L 16,43  L 15,43  L 15,44  L 14,44  L 14,46  L 13,46  L 13,47  L 12,47  L 12,48  L 11,48  L 11,49  L 10,49  L 10,52  L 9,52  L 9,55  L 10,55  L 10,56  L 11,56  L 11,57  L 14,57  L 14,55  L 15,55  L 15,54  L 16,54  L 16,53  L 17,53  L 17,52  L 18,52  L 18,51  L 20,51  L 20,50  L 21,50  L 21,48  L 22,48  L 22,47  L 23,47  L 23,45  L 24,45  L 24,44  L 25,44  L 25,43  L 26,43  L 26,41  L 27,41  L 27,40  L 28,40  L 28,38  L 29,38  L 29,36  L 30,36  L 30,35  L 31,35  L 31,33  L 32,33  L 32,31  L 33,31  L 33,30  L 34,30  L 34,28  L 36,28  L 36,26  L 37,26  L 37,25  L 38,25  L 38,24  L 37,24  L 37,23  L 38,23  L 38,22  L 39,22  L 39,21  Z  " style="fill:rgb(0, 0, 0); fill-opacity:1.000; stroke:none;" />
</svg>
