<?xml version="1.0" encoding="UTF-8" standalone="no"?>
<!DOCTYPE svg PUBLIC "-//W3C//DTD SVG 1.1//EN" 
  "http://www.w3.org/Graphics/SVG/1.1/DTD/svg11.dtd">
<svg width="103" height="170"
     xmlns="http://www.w3.org/2000/svg" version="1.1">
 <path d="  M 41,110  L 42,110  L 42,115  L 43,115  L 43,116  L 44,116  L 44,115  L 46,115  L 46,113  L 47,113  L 47,112  L 48,112  L 48,110  L 49,110  L 49,107  L 48,107  L 48,106  L 49,106  L 49,105  L 48,105  L 48,96  L 47,96  L 47,81  L 56,81  L 56,80  L 57,80  L 57,81  L 58,81  L 58,80  L 67,80  L 67,79  L 68,79  L 68,80  L 69,80  L 69,107  L 70,107  L 70,108  L 69,108  L 69,114  L 70,114  L 70,115  L 71,115  L 71,116  L 75,116  L 75,114  L 76,114  L 76,106  L 77,106  L 77,105  L 76,105  L 76,104  L 77,104  L 77,80  L 78,80  L 78,78  L 79,78  L 79,77  L 90,77  L 90,76  L 92,76  L 92,77  L 93,77  L 93,76  L 95,76  L 95,77  L 96,77  L 96,76  L 98,76  L 98,75  L 100,75  L 100,73  L 101,73  L 101,72  L 102,72  L 102,70  L 103,70  L 103,66  L 101,66  L 101,65  L 96,65  L 96,66  L 95,66  L 95,65  L 94,65  L 94,66  L 93,66  L 93,65  L 92,65  L 92,66  L 89,66  L 89,67  L 86,67  L 86,68  L 81,68  L 81,69  L 80,69  L 80,68  L 78,68  L 78,69  L 76,69  L 76,70  L 73,70  L 73,71  L 68,71  L 68,72  L 51,72  L 51,73  L 50,73  L 50,72  L 47,72  L 47,73  L 46,73  L 46,72  L 43,72  L 43,73  L 42,73  L 42,72  L 20,72  L 20,73  L 15,73  L 15,74  L 14,74  L 14,73  L 13,73  L 13,74  L 7,74  L 7,75  L 2,75  L 2,76  L 1,76  L 1,77  L 0,77  L 0,80  L 3,80  L 3,81  L 16,81  L 16,80  L 35,80  L 35,79  L 37,79  L 37,80  L 39,80  L 39,82  L 40,82  L 40,84  L 39,84  L 39,85  L 40,85  L 40,96  L 41,96  L 41,107  L 42,107  L 42,108  L 41,108  Z  " style="fill:rgb(0, 0, 0); fill-opacity:1.000; stroke:none;" />
 <path d="  M 95,39  L 94,39  L 94,38  L 93,38  L 93,37  L 92,37  L 92,36  L 90,36  L 90,35  L 89,35  L 89,34  L 88,34  L 88,33  L 86,33  L 86,32  L 84,32  L 84,31  L 82,31  L 82,30  L 81,30  L 81,29  L 79,29  L 79,28  L 77,28  L 77,27  L 75,27  L 75,26  L 73,26  L 73,25  L 72,25  L 72,24  L 71,24  L 71,23  L 69,23  L 69,22  L 67,22  L 67,21  L 66,21  L 66,20  L 65,20  L 65,19  L 63,19  L 63,18  L 62,18  L 62,17  L 60,17  L 60,16  L 59,16  L 59,15  L 58,15  L 58,14  L 57,14  L 57,13  L 56,13  L 56,12  L 55,12  L 55,11  L 54,11  L 54,10  L 53,10  L 53,9  L 52,9  L 52,7  L 51,7  L 51,3  L 50,3  L 50,2  L 49,2  L 49,0  L 45,0  L 45,1  L 44,1  L 44,2  L 43,2  L 43,5  L 42,5  L 42,8  L 41,8  L 41,9  L 40,9  L 40,11  L 39,11  L 39,13  L 38,13  L 38,15  L 37,15  L 37,16  L 36,16  L 36,17  L 35,17  L 35,18  L 34,18  L 34,20  L 33,20  L 33,21  L 32,21  L 32,22  L 31,22  L 31,24  L 30,24  L 30,26  L 29,26  L 29,27  L 28,27  L 28,29  L 27,29  L 27,31  L 26,31  L 26,33  L 25,33  L 25,34  L 24,34  L 24,36  L 23,36  L 23,37  L 22,37  L 22,38  L 21,38  L 21,39  L 20,39  L 20,40  L 19,40  L 19,41  L 18,41  L 18,42  L 17,42  L 17,43  L 16,43  L 16,44  L 15,44  L 15,45  L 14,45  L 14,46  L 13,46  L 13,48  L 12,48  L 12,49  L 11,49  L 11,51  L 10,51  L 10,57  L 11,57  L 11,58  L 15,58  L 15,56  L 16,56  L 16,55  L 17,55  L 17,54  L 18,54  L 18,53  L 20,53  L 20,51  L 21,51  L 21,50  L 22,50  L 22,49  L 23,49  L 23,47  L 24,47  L 24,46  L 25,46  L 25,45  L 26,45  L 26,44  L 27,44  L 27,43  L 28,43  L 28,42  L 29,42  L 29,41  L 30,41  L 30,40  L 31,40  L 31,38  L 32,38  L 32,36  L 33,36  L 33,35  L 34,35  L 34,33  L 35,33  L 35,32  L 36,32  L 36,31  L 37,31  L 37,28  L 38,28  L 38,27  L 39,27  L 39,25  L 40,25  L 40,23  L 41,23  L 41,22  L 42,22  L 42,20  L 43,20  L 43,19  L 44,19  L 44,17  L 45,17  L 45,16  L 47,16  L 47,19  L 48,19  L 48,20  L 52,20  L 52,21  L 54,21  L 54,22  L 55,22  L 55,23  L 57,23  L 57,24  L 58,24  L 58,25  L 59,25  L 59,26  L 60,26  L 60,25  L 61,25  L 61,26  L 62,26  L 62,27  L 63,27  L 63,28  L 65,28  L 65,29  L 67,29  L 67,30  L 69,30  L 69,31  L 71,31  L 71,32  L 72,32  L 72,33  L 74,33  L 74,34  L 77,34  L 77,35  L 79,35  L 79,36  L 80,36  L 80,37  L 81,37  L 81,38  L 82,38  L 82,39  L 83,39  L 83,40  L 86,40  L 86,41  L 87,41  L 87,42  L 89,42  L 89,43  L 91,43  L 91,44  L 92,44  L 92,43  L 93,43  L 93,42  L 94,42  L 94,41  L 95,41  Z  " style="fill:rgb(0, 0, 0); fill-opacity:1.000; stroke:none;" />
 <path d="  M 27,162  L 28,162  L 28,164  L 30,164  L 30,165  L 31,165  L 31,166  L 32,166  L 32,167  L 33,167  L 33,168  L 35,168  L 35,169  L 38,169  L 38,170  L 66,170  L 66,169  L 69,169  L 69,168  L 71,168  L 71,167  L 73,167  L 73,166  L 74,166  L 74,165  L 75,165  L 75,163  L 76,163  L 76,162  L 77,162  L 77,161  L 78,161  L 78,159  L 79,159  L 79,155  L 80,155  L 80,153  L 81,153  L 81,150  L 82,150  L 82,145  L 83,145  L 83,142  L 82,142  L 82,136  L 81,136  L 81,132  L 80,132  L 80,131  L 79,131  L 79,129  L 78,129  L 78,127  L 77,127  L 77,126  L 75,126  L 75,125  L 74,125  L 74,124  L 73,124  L 73,123  L 72,123  L 72,122  L 70,122  L 70,121  L 50,121  L 50,120  L 47,120  L 47,121  L 43,121  L 43,122  L 42,122  L 42,123  L 41,123  L 41,124  L 40,124  L 40,125  L 39,125  L 39,126  L 38,126  L 38,127  L 36,127  L 36,128  L 35,128  L 35,129  L 34,129  L 34,130  L 33,130  L 33,131  L 32,131  L 32,132  L 30,132  L 30,133  L 29,133  L 29,134  L 28,134  L 28,136  L 27,136  L 27,137  L 26,137  L 26,139  L 25,139  L 25,143  L 24,143  L 24,151  L 23,151  L 23,152  L 24,152  L 24,158  L 25,158  L 25,160  L 26,160  L 26,161  L 27,161  Z  M 31,155  L 31,146  L 32,146  L 32,144  L 33,144  L 33,141  L 34,141  L 34,140  L 35,140  L 35,139  L 36,139  L 36,137  L 37,137  L 37,136  L 39,136  L 39,134  L 40,134  L 40,133  L 41,133  L 41,132  L 44,132  L 44,131  L 46,131  L 46,130  L 50,130  L 50,129  L 52,129  L 52,130  L 53,130  L 53,129  L 56,129  L 56,130  L 57,130  L 57,129  L 63,129  L 63,130  L 67,130  L 67,131  L 69,131  L 69,133  L 70,133  L 70,134  L 72,134  L 72,136  L 73,136  L 73,140  L 74,140  L 74,147  L 73,147  L 73,151  L 72,151  L 72,154  L 71,154  L 71,157  L 70,157  L 70,159  L 68,159  L 68,161  L 66,161  L 66,162  L 62,162  L 62,163  L 42,163  L 42,162  L 38,162  L 38,161  L 37,161  L 37,160  L 35,160  L 35,159  L 34,159  L 34,158  L 33,158  L 33,156  L 32,156  L 32,155  Z  " style="fill:rgb(0, 0, 0); fill-opacity:1.000; stroke:none;" />
</svg>
