<?xml version="1.0" encoding="UTF-8" standalone="no"?>
<!DOCTYPE svg PUBLIC "-//W3C//DTD SVG 1.1//EN" 
  "http://www.w3.org/Graphics/SVG/1.1/DTD/svg11.dtd">
<svg width="109" height="117"
     xmlns="http://www.w3.org/2000/svg" version="1.1">
 <path d="  M 35,107  L 34,107  L 34,108  L 24,108  L 24,109  L 22,109  L 22,108  L 21,108  L 21,109  L 10,109  L 10,110  L 9,110  L 9,109  L 8,109  L 8,110  L 5,110  L 5,111  L 3,111  L 3,112  L 1,112  L 1,113  L 0,113  L 0,114  L 1,114  L 1,116  L 3,116  L 3,117  L 8,117  L 8,116  L 9,116  L 9,117  L 10,117  L 10,116  L 11,116  L 11,117  L 12,117  L 12,116  L 15,116  L 15,117  L 16,117  L 16,116  L 27,116  L 27,115  L 28,115  L 28,116  L 30,116  L 30,115  L 42,115  L 42,114  L 54,114  L 54,113  L 67,113  L 67,112  L 106,112  L 106,111  L 108,111  L 108,110  L 109,110  L 109,106  L 108,106  L 108,105  L 61,105  L 61,106  L 48,106  L 48,107  L 38,107  L 38,108  L 35,108  Z  " style="fill:rgb(0, 0, 0); fill-opacity:1.000; stroke:none;" />
 <path d="  M 56,10  L 56,8  L 57,8  L 57,7  L 56,7  L 56,5  L 55,5  L 55,4  L 54,4  L 54,2  L 53,2  L 53,1  L 52,1  L 52,0  L 49,0  L 49,2  L 48,2  L 48,7  L 47,7  L 47,9  L 46,9  L 46,11  L 45,11  L 45,13  L 44,13  L 44,15  L 43,15  L 43,17  L 42,17  L 42,19  L 41,19  L 41,20  L 40,20  L 40,21  L 39,21  L 39,23  L 37,23  L 37,25  L 36,25  L 36,27  L 35,27  L 35,29  L 34,29  L 34,30  L 33,30  L 33,32  L 32,32  L 32,34  L 31,34  L 31,36  L 30,36  L 30,37  L 29,37  L 29,39  L 28,39  L 28,41  L 27,41  L 27,43  L 26,43  L 26,45  L 25,45  L 25,46  L 24,46  L 24,48  L 23,48  L 23,49  L 22,49  L 22,50  L 21,50  L 21,51  L 20,51  L 20,52  L 19,52  L 19,54  L 17,54  L 17,55  L 16,55  L 16,56  L 15,56  L 15,58  L 13,58  L 13,60  L 11,60  L 11,62  L 9,62  L 9,63  L 8,63  L 8,64  L 7,64  L 7,65  L 6,65  L 6,69  L 8,69  L 8,70  L 9,70  L 9,71  L 11,71  L 11,70  L 13,70  L 13,69  L 14,69  L 14,68  L 15,68  L 15,67  L 16,67  L 16,66  L 17,66  L 17,65  L 18,65  L 18,64  L 19,64  L 19,63  L 20,63  L 20,62  L 22,62  L 22,60  L 23,60  L 23,59  L 24,59  L 24,58  L 25,58  L 25,57  L 26,57  L 26,56  L 27,56  L 27,55  L 28,55  L 28,52  L 29,52  L 29,51  L 30,51  L 30,50  L 31,50  L 31,48  L 32,48  L 32,47  L 33,47  L 33,46  L 34,46  L 34,45  L 35,45  L 35,43  L 36,43  L 36,41  L 37,41  L 37,39  L 38,39  L 38,38  L 39,38  L 39,36  L 40,36  L 40,34  L 41,34  L 41,31  L 42,31  L 42,29  L 43,29  L 43,28  L 46,28  L 46,29  L 47,29  L 47,30  L 49,30  L 49,31  L 51,31  L 51,33  L 53,33  L 53,34  L 55,34  L 55,35  L 56,35  L 56,36  L 59,36  L 59,38  L 61,38  L 61,39  L 63,39  L 63,40  L 64,40  L 64,41  L 67,41  L 67,42  L 68,42  L 68,43  L 70,43  L 70,44  L 71,44  L 71,45  L 74,45  L 74,46  L 76,46  L 76,47  L 78,47  L 78,48  L 79,48  L 79,49  L 82,49  L 82,50  L 83,50  L 83,51  L 84,51  L 84,52  L 87,52  L 87,54  L 89,54  L 89,55  L 90,55  L 90,54  L 91,54  L 91,56  L 94,56  L 94,57  L 95,57  L 95,58  L 96,58  L 96,59  L 97,59  L 97,60  L 99,60  L 99,59  L 98,59  L 98,58  L 99,58  L 99,57  L 98,57  L 98,54  L 97,54  L 97,52  L 96,52  L 96,51  L 95,51  L 95,50  L 94,50  L 94,49  L 93,49  L 93,48  L 91,48  L 91,47  L 90,47  L 90,46  L 88,46  L 88,45  L 87,45  L 87,44  L 85,44  L 85,43  L 84,43  L 84,42  L 82,42  L 82,41  L 81,41  L 81,40  L 78,40  L 78,39  L 77,39  L 77,38  L 75,38  L 75,37  L 73,37  L 73,36  L 70,36  L 70,35  L 68,35  L 68,34  L 66,34  L 66,33  L 65,33  L 65,32  L 64,32  L 64,31  L 62,31  L 62,30  L 61,30  L 61,29  L 59,29  L 59,28  L 58,28  L 58,27  L 56,27  L 56,26  L 55,26  L 55,25  L 53,25  L 53,23  L 51,23  L 51,22  L 50,22  L 50,17  L 51,17  L 51,16  L 53,16  L 53,15  L 52,15  L 52,14  L 53,14  L 53,13  L 54,13  L 54,11  L 55,11  L 55,10  Z  " style="fill:rgb(0, 0, 0); fill-opacity:1.000; stroke:none;" />
</svg>
