<?xml version="1.0" encoding="UTF-8" standalone="no"?>
<!DOCTYPE svg PUBLIC "-//W3C//DTD SVG 1.1//EN" 
  "http://www.w3.org/Graphics/SVG/1.1/DTD/svg11.dtd">
<svg width="96" height="155"
     xmlns="http://www.w3.org/2000/svg" version="1.1">
 <path d="  M 17,83  L 17,82  L 25,82  L 25,81  L 32,81  L 32,80  L 33,80  L 33,81  L 34,81  L 34,80  L 40,80  L 40,79  L 42,79  L 42,80  L 43,80  L 43,79  L 59,79  L 59,78  L 60,78  L 60,79  L 61,79  L 61,78  L 62,78  L 62,79  L 63,79  L 63,78  L 64,78  L 64,79  L 65,79  L 65,78  L 95,78  L 95,76  L 96,76  L 96,71  L 93,71  L 93,70  L 92,70  L 92,71  L 45,71  L 45,72  L 44,72  L 44,71  L 43,71  L 43,72  L 36,72  L 36,73  L 35,73  L 35,72  L 34,72  L 34,73  L 30,73  L 30,74  L 24,74  L 24,75  L 23,75  L 23,74  L 22,74  L 22,75  L 13,75  L 13,76  L 6,76  L 6,77  L 1,77  L 1,80  L 0,80  L 0,81  L 1,81  L 1,83  L 4,83  L 4,84  L 6,84  L 6,85  L 8,85  L 8,84  L 9,84  L 9,85  L 10,85  L 10,84  L 11,84  L 11,83  L 12,83  L 12,84  L 13,84  L 13,83  Z  " style="fill:rgb(0, 0, 0); fill-opacity:1.000; stroke:none;" />
 <path d="  M 38,127  L 38,126  L 40,126  L 40,125  L 41,125  L 41,124  L 42,124  L 42,123  L 43,123  L 43,122  L 44,122  L 44,120  L 45,120  L 45,119  L 46,119  L 46,117  L 47,117  L 47,114  L 46,114  L 46,111  L 45,111  L 45,109  L 43,109  L 43,108  L 42,108  L 42,107  L 41,107  L 41,106  L 40,106  L 40,105  L 39,105  L 39,104  L 36,104  L 36,103  L 33,103  L 33,102  L 24,102  L 24,101  L 15,101  L 15,102  L 12,102  L 12,103  L 11,103  L 11,104  L 10,104  L 10,106  L 9,106  L 9,107  L 10,107  L 10,111  L 11,111  L 11,113  L 12,113  L 12,112  L 14,112  L 14,111  L 17,111  L 17,110  L 18,110  L 18,109  L 22,109  L 22,108  L 27,108  L 27,109  L 32,109  L 32,110  L 35,110  L 35,111  L 38,111  L 38,112  L 39,112  L 39,113  L 40,113  L 40,118  L 39,118  L 39,119  L 37,119  L 37,120  L 36,120  L 36,121  L 34,121  L 34,122  L 32,122  L 32,123  L 31,123  L 31,124  L 28,124  L 28,125  L 26,125  L 26,126  L 24,126  L 24,127  L 23,127  L 23,126  L 22,126  L 22,127  L 19,127  L 19,128  L 16,128  L 16,129  L 12,129  L 12,130  L 10,130  L 10,131  L 9,131  L 9,133  L 8,133  L 8,135  L 7,135  L 7,146  L 8,146  L 8,147  L 9,147  L 9,151  L 11,151  L 11,152  L 12,152  L 12,153  L 13,153  L 13,154  L 16,154  L 16,155  L 19,155  L 19,154  L 20,154  L 20,155  L 22,155  L 22,154  L 35,154  L 35,153  L 41,153  L 41,152  L 45,152  L 45,151  L 47,151  L 47,150  L 50,150  L 50,149  L 53,149  L 53,148  L 54,148  L 54,147  L 55,147  L 55,146  L 57,146  L 57,144  L 58,144  L 58,141  L 56,141  L 56,140  L 54,140  L 54,141  L 53,141  L 53,140  L 52,140  L 52,141  L 50,141  L 50,142  L 48,142  L 48,143  L 45,143  L 45,144  L 43,144  L 43,145  L 40,145  L 40,146  L 34,146  L 34,147  L 29,147  L 29,148  L 28,148  L 28,147  L 27,147  L 27,148  L 26,148  L 26,147  L 25,147  L 25,148  L 18,148  L 18,147  L 16,147  L 16,146  L 15,146  L 15,145  L 14,145  L 14,142  L 13,142  L 13,141  L 14,141  L 14,137  L 16,137  L 16,136  L 17,136  L 17,135  L 19,135  L 19,134  L 22,134  L 22,133  L 26,133  L 26,132  L 27,132  L 27,131  L 28,131  L 28,132  L 29,132  L 29,131  L 31,131  L 31,130  L 33,130  L 33,129  L 35,129  L 35,128  L 37,128  L 37,127  Z  " style="fill:rgb(0, 0, 0); fill-opacity:1.000; stroke:none;" />
 <path d="  M 31,16  L 31,19  L 30,19  L 30,21  L 29,21  L 29,23  L 28,23  L 28,24  L 27,24  L 27,26  L 26,26  L 26,28  L 25,28  L 25,29  L 24,29  L 24,31  L 23,31  L 23,32  L 22,32  L 22,33  L 21,33  L 21,35  L 20,35  L 20,36  L 19,36  L 19,37  L 18,37  L 18,38  L 17,38  L 17,39  L 16,39  L 16,40  L 15,40  L 15,41  L 14,41  L 14,42  L 13,42  L 13,43  L 12,43  L 12,45  L 11,45  L 11,46  L 9,46  L 9,48  L 8,48  L 8,51  L 9,51  L 9,55  L 10,55  L 10,56  L 11,56  L 11,57  L 12,57  L 12,55  L 13,55  L 13,54  L 15,54  L 15,53  L 16,53  L 16,52  L 17,52  L 17,50  L 18,50  L 18,49  L 19,49  L 19,48  L 20,48  L 20,47  L 21,47  L 21,45  L 22,45  L 22,44  L 23,44  L 23,43  L 24,43  L 24,42  L 25,42  L 25,41  L 26,41  L 26,40  L 27,40  L 27,38  L 28,38  L 28,36  L 29,36  L 29,34  L 30,34  L 30,33  L 31,33  L 31,32  L 32,32  L 32,30  L 33,30  L 33,28  L 34,28  L 34,27  L 35,27  L 35,26  L 36,26  L 36,24  L 37,24  L 37,22  L 38,22  L 38,20  L 39,20  L 39,19  L 40,19  L 40,17  L 42,17  L 42,15  L 43,15  L 43,16  L 44,16  L 44,17  L 45,17  L 45,16  L 46,16  L 46,17  L 47,17  L 47,18  L 50,18  L 50,19  L 51,19  L 51,20  L 52,20  L 52,21  L 55,21  L 55,22  L 56,22  L 56,23  L 57,23  L 57,24  L 59,24  L 59,25  L 62,25  L 62,26  L 63,26  L 63,27  L 65,27  L 65,28  L 68,28  L 68,29  L 70,29  L 70,30  L 72,30  L 72,31  L 74,31  L 74,32  L 75,32  L 75,34  L 77,34  L 77,35  L 78,35  L 78,36  L 79,36  L 79,38  L 80,38  L 80,40  L 81,40  L 81,41  L 83,41  L 83,42  L 85,42  L 85,43  L 86,43  L 86,42  L 87,42  L 87,40  L 88,40  L 88,39  L 89,39  L 89,35  L 88,35  L 88,33  L 87,33  L 87,32  L 85,32  L 85,31  L 84,31  L 84,30  L 83,30  L 83,29  L 82,29  L 82,28  L 80,28  L 80,27  L 79,27  L 79,26  L 77,26  L 77,25  L 75,25  L 75,24  L 73,24  L 73,23  L 71,23  L 71,22  L 69,22  L 69,21  L 68,21  L 68,20  L 66,20  L 66,19  L 64,19  L 64,18  L 63,18  L 63,17  L 61,17  L 61,16  L 59,16  L 59,15  L 58,15  L 58,14  L 57,14  L 57,13  L 56,13  L 56,12  L 55,12  L 55,11  L 54,11  L 54,10  L 53,10  L 53,9  L 51,9  L 51,8  L 50,8  L 50,6  L 49,6  L 49,4  L 48,4  L 48,2  L 46,2  L 46,1  L 45,1  L 45,0  L 44,0  L 44,1  L 42,1  L 42,2  L 40,2  L 40,4  L 39,4  L 39,6  L 38,6  L 38,8  L 37,8  L 37,9  L 36,9  L 36,10  L 35,10  L 35,12  L 34,12  L 34,14  L 33,14  L 33,15  L 32,15  L 32,16  Z  " style="fill:rgb(0, 0, 0); fill-opacity:1.000; stroke:none;" />
 <path d="  M 89,133  L 90,133  L 90,126  L 91,126  L 91,121  L 92,121  L 92,114  L 93,114  L 93,108  L 92,108  L 92,106  L 91,106  L 91,105  L 89,105  L 89,104  L 86,104  L 86,103  L 83,103  L 83,104  L 81,104  L 81,103  L 63,103  L 63,104  L 62,104  L 62,103  L 61,103  L 61,104  L 57,104  L 57,105  L 55,105  L 55,106  L 54,106  L 54,107  L 53,107  L 53,108  L 52,108  L 52,110  L 53,110  L 53,112  L 54,112  L 54,113  L 59,113  L 59,112  L 61,112  L 61,113  L 62,113  L 62,112  L 71,112  L 71,111  L 74,111  L 74,112  L 75,112  L 75,111  L 83,111  L 83,112  L 85,112  L 85,122  L 84,122  L 84,130  L 83,130  L 83,135  L 82,135  L 82,140  L 81,140  L 81,146  L 80,146  L 80,147  L 81,147  L 81,148  L 80,148  L 80,155  L 85,155  L 85,153  L 86,153  L 86,149  L 87,149  L 87,142  L 88,142  L 88,137  L 89,137  Z  " style="fill:rgb(0, 0, 0); fill-opacity:1.000; stroke:none;" />
</svg>
