<?xml version="1.0" encoding="UTF-8" standalone="no"?>
<!DOCTYPE svg PUBLIC "-//W3C//DTD SVG 1.1//EN" 
  "http://www.w3.org/Graphics/SVG/1.1/DTD/svg11.dtd">
<svg width="103" height="159"
     xmlns="http://www.w3.org/2000/svg" version="1.1">
 <path d="  M 4,80  L 4,81  L 0,81  L 0,84  L 1,84  L 1,86  L 11,86  L 11,85  L 12,85  L 12,86  L 13,86  L 13,85  L 16,85  L 16,86  L 17,86  L 17,85  L 30,85  L 30,84  L 47,84  L 47,83  L 48,83  L 48,84  L 49,84  L 49,83  L 50,83  L 50,84  L 51,84  L 51,83  L 52,83  L 52,84  L 53,84  L 53,83  L 71,83  L 71,82  L 72,82  L 72,83  L 73,83  L 73,82  L 90,82  L 90,81  L 93,81  L 93,82  L 94,82  L 94,81  L 101,81  L 101,80  L 102,80  L 102,79  L 103,79  L 103,73  L 97,73  L 97,74  L 92,74  L 92,75  L 82,75  L 82,76  L 48,76  L 48,77  L 47,77  L 47,76  L 46,76  L 46,77  L 43,77  L 43,76  L 42,76  L 42,77  L 26,77  L 26,78  L 18,78  L 18,79  L 17,79  L 17,78  L 16,78  L 16,79  L 10,79  L 10,80  Z  " style="fill:rgb(0, 0, 0); fill-opacity:1.000; stroke:none;" />
 <path d="  M 70,30  L 70,31  L 72,31  L 72,32  L 74,32  L 74,33  L 75,33  L 75,34  L 77,34  L 77,35  L 78,35  L 78,36  L 79,36  L 79,37  L 82,37  L 82,38  L 83,38  L 83,39  L 85,39  L 85,40  L 86,40  L 86,39  L 89,39  L 89,38  L 90,38  L 90,37  L 91,37  L 91,35  L 90,35  L 90,34  L 89,34  L 89,33  L 87,33  L 87,32  L 85,32  L 85,31  L 83,31  L 83,30  L 82,30  L 82,29  L 80,29  L 80,28  L 78,28  L 78,27  L 76,27  L 76,26  L 74,26  L 74,25  L 71,25  L 71,24  L 70,24  L 70,23  L 68,23  L 68,22  L 66,22  L 66,21  L 65,21  L 65,20  L 62,20  L 62,19  L 61,19  L 61,18  L 60,18  L 60,17  L 58,17  L 58,16  L 57,16  L 57,15  L 56,15  L 56,14  L 54,14  L 54,13  L 53,13  L 53,11  L 52,11  L 52,10  L 51,10  L 51,9  L 50,9  L 50,7  L 49,7  L 49,5  L 48,5  L 48,3  L 47,3  L 47,2  L 46,2  L 46,1  L 45,1  L 45,0  L 42,0  L 42,1  L 41,1  L 41,2  L 40,2  L 40,4  L 39,4  L 39,6  L 38,6  L 38,7  L 37,7  L 37,8  L 36,8  L 36,11  L 35,11  L 35,12  L 34,12  L 34,14  L 33,14  L 33,15  L 32,15  L 32,17  L 31,17  L 31,18  L 30,18  L 30,19  L 29,19  L 29,21  L 28,21  L 28,23  L 27,23  L 27,26  L 26,26  L 26,28  L 25,28  L 25,30  L 24,30  L 24,31  L 23,31  L 23,34  L 22,34  L 22,35  L 21,35  L 21,36  L 20,36  L 20,37  L 19,37  L 19,38  L 18,38  L 18,39  L 17,39  L 17,40  L 16,40  L 16,42  L 15,42  L 15,43  L 14,43  L 14,44  L 13,44  L 13,45  L 12,45  L 12,46  L 11,46  L 11,47  L 10,47  L 10,48  L 9,48  L 9,49  L 8,49  L 8,50  L 7,50  L 7,55  L 8,55  L 8,56  L 9,56  L 9,57  L 13,57  L 13,55  L 14,55  L 14,54  L 15,54  L 15,53  L 16,53  L 16,52  L 17,52  L 17,51  L 18,51  L 18,50  L 19,50  L 19,49  L 20,49  L 20,48  L 21,48  L 21,47  L 22,47  L 22,45  L 23,45  L 23,44  L 24,44  L 24,43  L 25,43  L 25,41  L 27,41  L 27,39  L 28,39  L 28,36  L 29,36  L 29,35  L 31,35  L 31,34  L 32,34  L 32,30  L 33,30  L 33,28  L 34,28  L 34,27  L 35,27  L 35,26  L 36,26  L 36,24  L 37,24  L 37,21  L 38,21  L 38,20  L 39,20  L 39,19  L 40,19  L 40,18  L 41,18  L 41,16  L 43,16  L 43,17  L 44,17  L 44,18  L 45,18  L 45,17  L 46,17  L 46,18  L 47,18  L 47,19  L 49,19  L 49,20  L 51,20  L 51,21  L 52,21  L 52,22  L 54,22  L 54,23  L 55,23  L 55,24  L 57,24  L 57,25  L 59,25  L 59,26  L 62,26  L 62,27  L 63,27  L 63,28  L 65,28  L 65,29  L 68,29  L 68,30  Z  " style="fill:rgb(0, 0, 0); fill-opacity:1.000; stroke:none;" />
 <path d="  M 72,142  L 71,142  L 71,143  L 70,143  L 70,144  L 68,144  L 68,145  L 64,145  L 64,146  L 62,146  L 62,147  L 60,147  L 60,148  L 56,148  L 56,149  L 52,149  L 52,150  L 50,150  L 50,151  L 45,151  L 45,152  L 44,152  L 44,153  L 38,153  L 38,152  L 35,152  L 35,151  L 34,151  L 34,148  L 33,148  L 33,113  L 35,113  L 35,112  L 42,112  L 42,111  L 55,111  L 55,110  L 62,110  L 62,109  L 70,109  L 70,108  L 72,108  L 72,109  L 74,109  L 74,108  L 79,108  L 79,109  L 80,109  L 80,110  L 79,110  L 79,113  L 78,113  L 78,121  L 77,121  L 77,127  L 76,127  L 76,131  L 75,131  L 75,134  L 74,134  L 74,138  L 73,138  L 73,140  L 72,140  Z  M 86,114  L 86,107  L 85,107  L 85,105  L 84,105  L 84,104  L 83,104  L 83,103  L 82,103  L 82,102  L 80,102  L 80,101  L 70,101  L 70,102  L 62,102  L 62,103  L 54,103  L 54,104  L 44,104  L 44,105  L 34,105  L 34,104  L 33,104  L 33,103  L 32,103  L 32,102  L 30,102  L 30,101  L 26,101  L 26,103  L 24,103  L 24,104  L 20,104  L 20,105  L 19,105  L 19,106  L 18,106  L 18,107  L 17,107  L 17,109  L 18,109  L 18,112  L 21,112  L 21,113  L 22,113  L 22,112  L 24,112  L 24,113  L 25,113  L 25,134  L 26,134  L 26,135  L 25,135  L 25,142  L 26,142  L 26,143  L 25,143  L 25,146  L 26,146  L 26,148  L 25,148  L 25,149  L 26,149  L 26,150  L 27,150  L 27,152  L 28,152  L 28,153  L 29,153  L 29,154  L 30,154  L 30,156  L 31,156  L 31,157  L 33,157  L 33,158  L 34,158  L 34,159  L 46,159  L 46,158  L 50,158  L 50,157  L 53,157  L 53,156  L 55,156  L 55,155  L 57,155  L 57,154  L 61,154  L 61,153  L 64,153  L 64,152  L 67,152  L 67,151  L 70,151  L 70,150  L 72,150  L 72,149  L 74,149  L 74,148  L 75,148  L 75,147  L 77,147  L 77,146  L 78,146  L 78,143  L 79,143  L 79,141  L 80,141  L 80,138  L 81,138  L 81,134  L 82,134  L 82,130  L 83,130  L 83,125  L 84,125  L 84,119  L 85,119  L 85,114  Z  " style="fill:rgb(0, 0, 0); fill-opacity:1.000; stroke:none;" />
</svg>
