<?xml version="1.0" encoding="UTF-8" standalone="no"?>
<!DOCTYPE svg PUBLIC "-//W3C//DTD SVG 1.1//EN" 
  "http://www.w3.org/Graphics/SVG/1.1/DTD/svg11.dtd">
<svg width="104" height="163"
     xmlns="http://www.w3.org/2000/svg" version="1.1">
 <path d="  M 93,74  L 93,75  L 81,75  L 81,76  L 68,76  L 68,77  L 67,77  L 67,76  L 66,76  L 66,77  L 63,77  L 63,76  L 62,76  L 62,77  L 47,77  L 47,78  L 44,78  L 44,77  L 43,77  L 43,78  L 26,78  L 26,79  L 17,79  L 17,80  L 9,80  L 9,81  L 4,81  L 4,82  L 1,82  L 1,83  L 0,83  L 0,87  L 1,87  L 1,88  L 9,88  L 9,87  L 19,87  L 19,86  L 20,86  L 20,87  L 21,87  L 21,86  L 34,86  L 34,85  L 43,85  L 43,84  L 44,84  L 44,85  L 46,85  L 46,84  L 48,84  L 48,85  L 50,85  L 50,84  L 53,84  L 53,85  L 54,85  L 54,84  L 61,84  L 61,83  L 62,83  L 62,84  L 63,84  L 63,83  L 71,83  L 71,82  L 72,82  L 72,83  L 73,83  L 73,82  L 91,82  L 91,81  L 92,81  L 92,82  L 95,82  L 95,81  L 96,81  L 96,82  L 99,82  L 99,81  L 100,81  L 100,82  L 101,82  L 101,81  L 103,81  L 103,80  L 104,80  L 104,75  L 103,75  L 103,74  Z  " style="fill:rgb(0, 0, 0); fill-opacity:1.000; stroke:none;" />
 <path d="  M 40,20  L 41,20  L 41,18  L 42,18  L 42,17  L 43,17  L 43,16  L 44,16  L 44,17  L 45,17  L 45,18  L 46,18  L 46,19  L 51,19  L 51,20  L 52,20  L 52,21  L 54,21  L 54,22  L 55,22  L 55,23  L 57,23  L 57,24  L 59,24  L 59,25  L 60,25  L 60,26  L 61,26  L 61,27  L 63,27  L 63,28  L 66,28  L 66,29  L 67,29  L 67,30  L 68,30  L 68,31  L 71,31  L 71,32  L 72,32  L 72,33  L 73,33  L 73,32  L 74,32  L 74,33  L 75,33  L 75,34  L 78,34  L 78,35  L 80,35  L 80,36  L 82,36  L 82,37  L 83,37  L 83,38  L 84,38  L 84,39  L 87,39  L 87,40  L 88,40  L 88,41  L 89,41  L 89,40  L 90,40  L 90,41  L 91,41  L 91,40  L 92,40  L 92,41  L 93,41  L 93,40  L 94,40  L 94,39  L 95,39  L 95,37  L 94,37  L 94,36  L 93,36  L 93,35  L 92,35  L 92,34  L 90,34  L 90,33  L 88,33  L 88,32  L 86,32  L 86,31  L 85,31  L 85,30  L 83,30  L 83,29  L 80,29  L 80,28  L 79,28  L 79,27  L 76,27  L 76,26  L 73,26  L 73,25  L 72,25  L 72,24  L 71,24  L 71,23  L 70,23  L 70,22  L 68,22  L 68,21  L 66,21  L 66,20  L 64,20  L 64,19  L 63,19  L 63,18  L 61,18  L 61,17  L 60,17  L 60,16  L 59,16  L 59,15  L 58,15  L 58,14  L 56,14  L 56,13  L 55,13  L 55,12  L 54,12  L 54,11  L 53,11  L 53,10  L 52,10  L 52,9  L 51,9  L 51,7  L 50,7  L 50,6  L 49,6  L 49,5  L 48,5  L 48,2  L 47,2  L 47,1  L 46,1  L 46,0  L 43,0  L 43,1  L 42,1  L 42,2  L 41,2  L 41,3  L 40,3  L 40,6  L 39,6  L 39,8  L 38,8  L 38,10  L 37,10  L 37,13  L 36,13  L 36,14  L 35,14  L 35,15  L 34,15  L 34,17  L 33,17  L 33,18  L 32,18  L 32,20  L 31,20  L 31,21  L 30,21  L 30,22  L 29,22  L 29,24  L 28,24  L 28,26  L 27,26  L 27,28  L 26,28  L 26,30  L 25,30  L 25,32  L 24,32  L 24,34  L 23,34  L 23,36  L 22,36  L 22,37  L 21,37  L 21,38  L 20,38  L 20,40  L 19,40  L 19,41  L 18,41  L 18,42  L 16,42  L 16,44  L 15,44  L 15,45  L 14,45  L 14,46  L 13,46  L 13,47  L 12,47  L 12,48  L 11,48  L 11,49  L 10,49  L 10,50  L 9,50  L 9,55  L 10,55  L 10,57  L 11,57  L 11,58  L 12,58  L 12,57  L 13,57  L 13,56  L 15,56  L 15,55  L 16,55  L 16,54  L 17,54  L 17,53  L 19,53  L 19,52  L 20,52  L 20,50  L 21,50  L 21,49  L 22,49  L 22,48  L 23,48  L 23,47  L 24,47  L 24,45  L 25,45  L 25,44  L 26,44  L 26,43  L 27,43  L 27,41  L 28,41  L 28,39  L 29,39  L 29,38  L 30,38  L 30,37  L 31,37  L 31,35  L 32,35  L 32,33  L 33,33  L 33,31  L 34,31  L 34,30  L 35,30  L 35,29  L 36,29  L 36,27  L 37,27  L 37,24  L 38,24  L 38,23  L 39,23  L 39,22  L 40,22  Z  " style="fill:rgb(0, 0, 0); fill-opacity:1.000; stroke:none;" />
 <path d="  M 72,142  L 71,142  L 71,145  L 70,145  L 70,147  L 69,147  L 69,149  L 68,149  L 68,150  L 67,150  L 67,151  L 65,151  L 65,152  L 60,152  L 60,153  L 58,153  L 58,154  L 55,154  L 55,155  L 53,155  L 53,156  L 49,156  L 49,157  L 47,157  L 47,156  L 46,156  L 46,157  L 40,157  L 40,156  L 37,156  L 37,155  L 35,155  L 35,154  L 34,154  L 34,153  L 33,153  L 33,148  L 32,148  L 32,135  L 33,135  L 33,134  L 36,134  L 36,133  L 63,133  L 63,132  L 65,132  L 65,133  L 66,133  L 66,132  L 67,132  L 67,133  L 70,133  L 70,132  L 71,132  L 71,133  L 74,133  L 74,138  L 73,138  L 73,140  L 72,140  Z  M 51,163  L 51,162  L 55,162  L 55,161  L 57,161  L 57,160  L 61,160  L 61,159  L 63,159  L 63,158  L 65,158  L 65,157  L 68,157  L 68,156  L 70,156  L 70,154  L 71,154  L 71,153  L 73,153  L 73,152  L 75,152  L 75,150  L 76,150  L 76,149  L 77,149  L 77,147  L 78,147  L 78,144  L 79,144  L 79,140  L 80,140  L 80,137  L 81,137  L 81,134  L 82,134  L 82,130  L 83,130  L 83,127  L 84,127  L 84,125  L 83,125  L 83,111  L 82,111  L 82,100  L 81,100  L 81,99  L 77,99  L 77,100  L 76,100  L 76,116  L 77,116  L 77,117  L 76,117  L 76,123  L 77,123  L 77,126  L 74,126  L 74,127  L 73,127  L 73,126  L 68,126  L 68,127  L 67,127  L 67,126  L 66,126  L 66,127  L 65,127  L 65,126  L 64,126  L 64,127  L 63,127  L 63,126  L 62,126  L 62,127  L 39,127  L 39,126  L 38,126  L 38,127  L 33,127  L 33,126  L 32,126  L 32,122  L 33,122  L 33,113  L 34,113  L 34,107  L 35,107  L 35,101  L 36,101  L 36,96  L 35,96  L 35,94  L 34,94  L 34,93  L 31,93  L 31,94  L 30,94  L 30,96  L 29,96  L 29,98  L 28,98  L 28,100  L 27,100  L 27,107  L 26,107  L 26,113  L 25,113  L 25,122  L 24,122  L 24,139  L 25,139  L 25,152  L 26,152  L 26,154  L 27,154  L 27,156  L 28,156  L 28,158  L 29,158  L 29,160  L 31,160  L 31,161  L 32,161  L 32,163  Z  " style="fill:rgb(0, 0, 0); fill-opacity:1.000; stroke:none;" />
</svg>
