<?xml version="1.0" encoding="UTF-8" standalone="no"?>
<!DOCTYPE svg PUBLIC "-//W3C//DTD SVG 1.1//EN" 
  "http://www.w3.org/Graphics/SVG/1.1/DTD/svg11.dtd">
<svg width="105" height="153"
     xmlns="http://www.w3.org/2000/svg" version="1.1">
 <path d="  M 23,37  L 23,39  L 22,39  L 22,40  L 21,40  L 21,42  L 20,42  L 20,43  L 19,43  L 19,44  L 18,44  L 18,46  L 16,46  L 16,48  L 15,48  L 15,50  L 14,50  L 14,51  L 13,51  L 13,52  L 12,52  L 12,54  L 11,54  L 11,55  L 10,55  L 10,56  L 9,56  L 9,57  L 8,57  L 8,59  L 7,59  L 7,60  L 6,60  L 6,61  L 5,61  L 5,62  L 4,62  L 4,63  L 3,63  L 3,65  L 2,65  L 2,67  L 1,67  L 1,68  L 0,68  L 0,70  L 1,70  L 1,71  L 2,71  L 2,73  L 3,73  L 3,75  L 5,75  L 5,74  L 6,74  L 6,73  L 7,73  L 7,72  L 8,72  L 8,71  L 9,71  L 9,70  L 10,70  L 10,69  L 11,69  L 11,67  L 12,67  L 12,65  L 13,65  L 13,64  L 14,64  L 14,63  L 15,63  L 15,61  L 16,61  L 16,60  L 17,60  L 17,59  L 18,59  L 18,58  L 19,58  L 19,56  L 20,56  L 20,55  L 21,55  L 21,53  L 22,53  L 22,52  L 23,52  L 23,51  L 24,51  L 24,50  L 25,50  L 25,48  L 26,48  L 26,46  L 27,46  L 27,44  L 29,44  L 29,45  L 31,45  L 31,46  L 32,46  L 32,47  L 33,47  L 33,48  L 34,48  L 34,49  L 35,49  L 35,50  L 37,50  L 37,51  L 38,51  L 38,52  L 39,52  L 39,53  L 40,53  L 40,54  L 42,54  L 42,56  L 43,56  L 43,57  L 44,57  L 44,58  L 46,58  L 46,59  L 49,59  L 49,60  L 51,60  L 51,61  L 54,61  L 54,63  L 58,63  L 58,64  L 59,64  L 59,65  L 63,65  L 63,66  L 65,66  L 65,65  L 66,65  L 66,64  L 67,64  L 67,62  L 66,62  L 66,61  L 65,61  L 65,60  L 64,60  L 64,59  L 63,59  L 63,58  L 61,58  L 61,57  L 60,57  L 60,56  L 58,56  L 58,55  L 55,55  L 55,54  L 53,54  L 53,53  L 51,53  L 51,52  L 49,52  L 49,51  L 48,51  L 48,50  L 46,50  L 46,48  L 44,48  L 44,47  L 43,47  L 43,46  L 42,46  L 42,45  L 41,45  L 41,44  L 40,44  L 40,43  L 38,43  L 38,42  L 37,42  L 37,40  L 36,40  L 36,39  L 35,39  L 35,35  L 36,35  L 36,31  L 37,31  L 37,30  L 38,30  L 38,28  L 39,28  L 39,27  L 40,27  L 40,25  L 41,25  L 41,23  L 42,23  L 42,22  L 43,22  L 43,20  L 44,20  L 44,19  L 45,19  L 45,16  L 46,16  L 46,13  L 47,13  L 47,11  L 48,11  L 48,8  L 46,8  L 46,7  L 44,7  L 44,6  L 42,6  L 42,7  L 41,7  L 41,8  L 40,8  L 40,10  L 39,10  L 39,14  L 38,14  L 38,16  L 37,16  L 37,17  L 36,17  L 36,19  L 35,19  L 35,21  L 34,21  L 34,23  L 33,23  L 33,25  L 32,25  L 32,27  L 31,27  L 31,29  L 30,29  L 30,30  L 29,30  L 29,31  L 28,31  L 28,32  L 27,32  L 27,34  L 26,34  L 26,35  L 25,35  L 25,36  L 24,36  L 24,37  Z  " style="fill:rgb(0, 0, 0); fill-opacity:1.000; stroke:none;" />
 <path d="  M 86,149  L 86,148  L 92,148  L 92,147  L 98,147  L 98,146  L 102,146  L 102,145  L 104,145  L 104,144  L 105,144  L 105,138  L 101,138  L 101,139  L 98,139  L 98,140  L 94,140  L 94,141  L 86,141  L 86,142  L 80,142  L 80,143  L 78,143  L 78,142  L 77,142  L 77,143  L 73,143  L 73,144  L 65,144  L 65,145  L 60,145  L 60,146  L 53,146  L 53,147  L 39,147  L 39,146  L 38,146  L 38,142  L 37,142  L 37,138  L 36,138  L 36,137  L 37,137  L 37,136  L 36,136  L 36,111  L 37,111  L 37,110  L 36,110  L 36,107  L 37,107  L 37,106  L 36,106  L 36,98  L 35,98  L 35,95  L 33,95  L 33,94  L 30,94  L 30,95  L 29,95  L 29,122  L 28,122  L 28,123  L 29,123  L 29,124  L 28,124  L 28,125  L 29,125  L 29,126  L 28,126  L 28,127  L 29,127  L 29,143  L 30,143  L 30,145  L 31,145  L 31,148  L 32,148  L 32,151  L 33,151  L 33,152  L 35,152  L 35,153  L 58,153  L 58,152  L 59,152  L 59,153  L 60,153  L 60,152  L 66,152  L 66,151  L 72,151  L 72,150  L 80,150  L 80,149  Z  " style="fill:rgb(0, 0, 0); fill-opacity:1.000; stroke:none;" />
 <path d="  M 99,28  L 98,28  L 98,25  L 99,25  L 99,24  L 98,24  L 98,18  L 97,18  L 97,3  L 96,3  L 96,2  L 95,2  L 95,1  L 94,1  L 94,0  L 91,0  L 91,1  L 90,1  L 90,17  L 91,17  L 91,27  L 92,27  L 92,28  L 91,28  L 91,29  L 92,29  L 92,43  L 93,43  L 93,44  L 92,44  L 92,47  L 93,47  L 93,48  L 92,48  L 92,51  L 93,51  L 93,52  L 92,52  L 92,55  L 93,55  L 93,56  L 92,56  L 92,57  L 93,57  L 93,58  L 92,58  L 92,59  L 93,59  L 93,78  L 92,78  L 92,79  L 93,79  L 93,86  L 92,86  L 92,87  L 93,87  L 93,90  L 92,90  L 92,91  L 93,91  L 93,93  L 94,93  L 94,95  L 97,95  L 97,94  L 99,94  L 99,91  L 100,91  L 100,82  L 99,82  L 99,79  L 100,79  L 100,78  L 99,78  L 99,75  L 100,75  L 100,74  L 99,74  L 99,72  L 100,72  L 100,70  L 99,70  L 99,67  L 100,67  L 100,66  L 99,66  L 99,63  L 100,63  L 100,62  L 99,62  L 99,59  L 100,59  L 100,58  L 99,58  Z  " style="fill:rgb(0, 0, 0); fill-opacity:1.000; stroke:none;" />
</svg>
