<?xml version="1.0" encoding="UTF-8" standalone="no"?>
<!DOCTYPE svg PUBLIC "-//W3C//DTD SVG 1.1//EN" 
  "http://www.w3.org/Graphics/SVG/1.1/DTD/svg11.dtd">
<svg width="104" height="170"
     xmlns="http://www.w3.org/2000/svg" version="1.1">
 <path d="  M 50,59  L 50,58  L 49,58  L 49,56  L 47,56  L 47,55  L 46,55  L 46,53  L 44,53  L 44,52  L 43,52  L 43,51  L 42,51  L 42,49  L 41,49  L 41,48  L 39,48  L 39,47  L 38,47  L 38,46  L 37,46  L 37,45  L 36,45  L 36,43  L 35,43  L 35,41  L 36,41  L 36,38  L 37,38  L 37,36  L 38,36  L 38,35  L 39,35  L 39,33  L 40,33  L 40,31  L 41,31  L 41,29  L 42,29  L 42,28  L 43,28  L 43,25  L 44,25  L 44,24  L 45,24  L 45,22  L 46,22  L 46,20  L 47,20  L 47,18  L 48,18  L 48,16  L 49,16  L 49,14  L 50,14  L 50,9  L 49,9  L 49,8  L 48,8  L 48,7  L 44,7  L 44,8  L 43,8  L 43,10  L 42,10  L 42,13  L 41,13  L 41,16  L 40,16  L 40,17  L 39,17  L 39,20  L 38,20  L 38,22  L 37,22  L 37,24  L 36,24  L 36,25  L 35,25  L 35,27  L 34,27  L 34,29  L 33,29  L 33,31  L 32,31  L 32,33  L 31,33  L 31,35  L 29,35  L 29,37  L 28,37  L 28,39  L 27,39  L 27,40  L 26,40  L 26,41  L 25,41  L 25,43  L 24,43  L 24,44  L 23,44  L 23,45  L 22,45  L 22,47  L 21,47  L 21,48  L 20,48  L 20,50  L 19,50  L 19,51  L 18,51  L 18,52  L 17,52  L 17,53  L 16,53  L 16,55  L 15,55  L 15,56  L 14,56  L 14,57  L 13,57  L 13,58  L 12,58  L 12,59  L 11,59  L 11,60  L 10,60  L 10,61  L 8,61  L 8,62  L 7,62  L 7,63  L 6,63  L 6,64  L 5,64  L 5,65  L 4,65  L 4,66  L 3,66  L 3,67  L 2,67  L 2,68  L 1,68  L 1,69  L 0,69  L 0,70  L 1,70  L 1,72  L 2,72  L 2,73  L 3,73  L 3,74  L 4,74  L 4,75  L 5,75  L 5,74  L 7,74  L 7,73  L 9,73  L 9,72  L 10,72  L 10,71  L 11,71  L 11,70  L 13,70  L 13,68  L 14,68  L 14,67  L 15,67  L 15,66  L 16,66  L 16,65  L 17,65  L 17,64  L 18,64  L 18,63  L 19,63  L 19,62  L 20,62  L 20,61  L 21,61  L 21,60  L 22,60  L 22,58  L 23,58  L 23,57  L 25,57  L 25,56  L 26,56  L 26,54  L 27,54  L 27,52  L 28,52  L 28,50  L 32,50  L 32,51  L 33,51  L 33,52  L 34,52  L 34,53  L 35,53  L 35,54  L 36,54  L 36,55  L 38,55  L 38,57  L 40,57  L 40,59  L 42,59  L 42,60  L 43,60  L 43,61  L 44,61  L 44,63  L 46,63  L 46,64  L 47,64  L 47,65  L 48,65  L 48,67  L 50,67  L 50,69  L 51,69  L 51,70  L 52,70  L 52,71  L 53,71  L 53,72  L 54,72  L 54,73  L 55,73  L 55,74  L 56,74  L 56,75  L 58,75  L 58,77  L 60,77  L 60,78  L 61,78  L 61,77  L 63,77  L 63,76  L 64,76  L 64,75  L 63,75  L 63,74  L 64,74  L 64,73  L 63,73  L 63,72  L 62,72  L 62,70  L 61,70  L 61,68  L 60,68  L 60,67  L 59,67  L 59,66  L 58,66  L 58,65  L 57,65  L 57,64  L 55,64  L 55,63  L 54,63  L 54,62  L 53,62  L 53,61  L 52,61  L 52,60  L 51,60  L 51,59  Z  " style="fill:rgb(0, 0, 0); fill-opacity:1.000; stroke:none;" />
 <path d="  M 41,139  L 41,140  L 40,140  L 40,141  L 37,141  L 37,142  L 36,142  L 36,143  L 35,143  L 35,144  L 34,144  L 34,145  L 33,145  L 33,147  L 32,147  L 32,150  L 33,150  L 33,154  L 34,154  L 34,155  L 33,155  L 33,156  L 34,156  L 34,162  L 35,162  L 35,163  L 36,163  L 36,167  L 39,167  L 39,168  L 40,168  L 40,170  L 42,170  L 42,169  L 43,169  L 43,170  L 65,170  L 65,169  L 69,169  L 69,168  L 73,168  L 73,167  L 77,167  L 77,166  L 79,166  L 79,165  L 82,165  L 82,164  L 84,164  L 84,163  L 86,163  L 86,162  L 88,162  L 88,161  L 91,161  L 91,160  L 93,160  L 93,159  L 95,159  L 95,158  L 97,158  L 97,157  L 99,157  L 99,156  L 100,156  L 100,155  L 101,155  L 101,153  L 102,153  L 102,152  L 101,152  L 101,151  L 100,151  L 100,150  L 97,150  L 97,151  L 93,151  L 93,152  L 91,152  L 91,153  L 88,153  L 88,154  L 85,154  L 85,155  L 84,155  L 84,156  L 82,156  L 82,157  L 79,157  L 79,158  L 78,158  L 78,159  L 75,159  L 75,160  L 74,160  L 74,159  L 73,159  L 73,161  L 72,161  L 72,160  L 71,160  L 71,161  L 68,161  L 68,162  L 64,162  L 64,163  L 57,163  L 57,164  L 55,164  L 55,163  L 52,163  L 52,164  L 51,164  L 51,163  L 48,163  L 48,164  L 47,164  L 47,163  L 43,163  L 43,161  L 42,161  L 42,160  L 41,160  L 41,150  L 42,150  L 42,149  L 41,149  L 41,148  L 42,148  L 42,147  L 43,147  L 43,146  L 46,146  L 46,145  L 48,145  L 48,144  L 51,144  L 51,143  L 53,143  L 53,142  L 56,142  L 56,141  L 60,141  L 60,140  L 62,140  L 62,139  L 63,139  L 63,138  L 65,138  L 65,137  L 68,137  L 68,136  L 70,136  L 70,135  L 73,135  L 73,134  L 74,134  L 74,133  L 77,133  L 77,132  L 79,132  L 79,131  L 81,131  L 81,130  L 83,130  L 83,129  L 85,129  L 85,128  L 86,128  L 86,126  L 87,126  L 87,124  L 88,124  L 88,118  L 87,118  L 87,116  L 86,116  L 86,114  L 85,114  L 85,111  L 83,111  L 83,110  L 82,110  L 82,109  L 81,109  L 81,110  L 80,110  L 80,109  L 78,109  L 78,108  L 76,108  L 76,107  L 73,107  L 73,106  L 68,106  L 68,105  L 62,105  L 62,104  L 54,104  L 54,103  L 53,103  L 53,104  L 50,104  L 50,103  L 49,103  L 49,104  L 45,104  L 45,105  L 38,105  L 38,106  L 37,106  L 37,109  L 36,109  L 36,111  L 38,111  L 38,112  L 45,112  L 45,111  L 51,111  L 51,110  L 58,110  L 58,111  L 65,111  L 65,112  L 70,112  L 70,113  L 73,113  L 73,114  L 75,114  L 75,115  L 76,115  L 76,116  L 77,116  L 77,117  L 78,117  L 78,119  L 79,119  L 79,121  L 78,121  L 78,124  L 76,124  L 76,125  L 74,125  L 74,126  L 73,126  L 73,127  L 72,127  L 72,128  L 69,128  L 69,129  L 67,129  L 67,130  L 64,130  L 64,131  L 61,131  L 61,132  L 59,132  L 59,133  L 57,133  L 57,134  L 56,134  L 56,135  L 55,135  L 55,134  L 54,134  L 54,135  L 51,135  L 51,136  L 50,136  L 50,137  L 48,137  L 48,138  L 45,138  L 45,139  Z  " style="fill:rgb(0, 0, 0); fill-opacity:1.000; stroke:none;" />
 <path d="  M 97,37  L 98,37  L 98,38  L 97,38  L 97,45  L 98,45  L 98,46  L 97,46  L 97,86  L 98,86  L 98,87  L 97,87  L 97,89  L 98,89  L 98,90  L 97,90  L 97,93  L 98,93  L 98,98  L 103,98  L 103,97  L 104,97  L 104,2  L 103,2  L 103,1  L 101,1  L 101,0  L 99,0  L 99,1  L 98,1  L 98,2  L 97,2  Z  " style="fill:rgb(0, 0, 0); fill-opacity:1.000; stroke:none;" />
</svg>
