<?xml version="1.0" encoding="UTF-8" standalone="no"?>
<!DOCTYPE svg PUBLIC "-//W3C//DTD SVG 1.1//EN" 
  "http://www.w3.org/Graphics/SVG/1.1/DTD/svg11.dtd">
<svg width="104" height="166"
     xmlns="http://www.w3.org/2000/svg" version="1.1">
 <path d="  M 9,64  L 8,64  L 8,65  L 7,65  L 7,66  L 6,66  L 6,67  L 5,67  L 5,68  L 3,68  L 3,69  L 2,69  L 2,71  L 1,71  L 1,72  L 0,72  L 0,73  L 1,73  L 1,75  L 2,75  L 2,77  L 5,77  L 5,78  L 7,78  L 7,77  L 8,77  L 8,76  L 9,76  L 9,75  L 10,75  L 10,74  L 11,74  L 11,73  L 12,73  L 12,72  L 13,72  L 13,71  L 14,71  L 14,70  L 15,70  L 15,69  L 16,69  L 16,68  L 17,68  L 17,67  L 18,67  L 18,65  L 19,65  L 19,64  L 20,64  L 20,63  L 21,63  L 21,62  L 22,62  L 22,61  L 23,61  L 23,59  L 24,59  L 24,58  L 25,58  L 25,57  L 26,57  L 26,55  L 27,55  L 27,53  L 28,53  L 28,51  L 29,51  L 29,49  L 33,49  L 33,50  L 34,50  L 34,51  L 35,51  L 35,52  L 37,52  L 37,53  L 38,53  L 38,54  L 39,54  L 39,55  L 41,55  L 41,56  L 42,56  L 42,58  L 44,58  L 44,59  L 45,59  L 45,60  L 46,60  L 46,61  L 47,61  L 47,62  L 48,62  L 48,63  L 49,63  L 49,64  L 50,64  L 50,65  L 51,65  L 51,66  L 53,66  L 53,67  L 55,67  L 55,68  L 56,68  L 56,69  L 57,69  L 57,71  L 59,71  L 59,73  L 63,73  L 63,72  L 62,72  L 62,71  L 63,71  L 63,69  L 64,69  L 64,66  L 63,66  L 63,64  L 62,64  L 62,63  L 61,63  L 61,62  L 60,62  L 60,61  L 59,61  L 59,60  L 57,60  L 57,59  L 56,59  L 56,58  L 54,58  L 54,57  L 53,57  L 53,56  L 52,56  L 52,55  L 51,55  L 51,54  L 49,54  L 49,53  L 48,53  L 48,52  L 47,52  L 47,51  L 46,51  L 46,50  L 44,50  L 44,49  L 43,49  L 43,48  L 42,48  L 42,47  L 41,47  L 41,46  L 40,46  L 40,45  L 39,45  L 39,44  L 37,44  L 37,42  L 35,42  L 35,39  L 36,39  L 36,36  L 37,36  L 37,35  L 38,35  L 38,32  L 39,32  L 39,31  L 40,31  L 40,28  L 41,28  L 41,27  L 42,27  L 42,25  L 43,25  L 43,23  L 44,23  L 44,21  L 45,21  L 45,20  L 46,20  L 46,19  L 47,19  L 47,17  L 48,17  L 48,16  L 49,16  L 49,13  L 50,13  L 50,10  L 49,10  L 49,9  L 48,9  L 48,8  L 44,8  L 44,9  L 42,9  L 42,10  L 41,10  L 41,12  L 40,12  L 40,15  L 39,15  L 39,16  L 38,16  L 38,18  L 37,18  L 37,20  L 36,20  L 36,22  L 35,22  L 35,24  L 34,24  L 34,26  L 33,26  L 33,28  L 32,28  L 32,30  L 31,30  L 31,33  L 30,33  L 30,35  L 29,35  L 29,37  L 28,37  L 28,38  L 27,38  L 27,39  L 26,39  L 26,40  L 25,40  L 25,42  L 24,42  L 24,44  L 23,44  L 23,45  L 22,45  L 22,47  L 21,47  L 21,49  L 20,49  L 20,50  L 19,50  L 19,52  L 18,52  L 18,55  L 16,55  L 16,57  L 15,57  L 15,58  L 14,58  L 14,59  L 13,59  L 13,61  L 12,61  L 12,62  L 11,62  L 11,63  L 9,63  Z  " style="fill:rgb(0, 0, 0); fill-opacity:1.000; stroke:none;" />
 <path d="  M 50,158  L 50,157  L 48,157  L 48,156  L 45,156  L 45,155  L 43,155  L 43,154  L 42,154  L 42,147  L 43,147  L 43,146  L 42,146  L 42,145  L 43,145  L 43,139  L 44,139  L 44,135  L 45,135  L 45,133  L 46,133  L 46,131  L 47,131  L 47,129  L 48,129  L 48,127  L 49,127  L 49,126  L 50,126  L 50,125  L 51,125  L 51,124  L 52,124  L 52,123  L 53,123  L 53,121  L 55,121  L 55,120  L 56,120  L 56,119  L 57,119  L 57,118  L 60,118  L 60,117  L 63,117  L 63,116  L 81,116  L 81,117  L 85,117  L 85,118  L 88,118  L 88,119  L 90,119  L 90,120  L 91,120  L 91,121  L 92,121  L 92,122  L 94,122  L 94,125  L 95,125  L 95,131  L 96,131  L 96,134  L 95,134  L 95,140  L 94,140  L 94,142  L 93,142  L 93,145  L 92,145  L 92,146  L 91,146  L 91,147  L 90,147  L 90,148  L 89,148  L 89,149  L 88,149  L 88,150  L 87,150  L 87,151  L 85,151  L 85,152  L 83,152  L 83,153  L 82,153  L 82,154  L 80,154  L 80,155  L 78,155  L 78,156  L 76,156  L 76,157  L 73,157  L 73,158  L 70,158  L 70,159  L 69,159  L 69,158  L 68,158  L 68,159  L 57,159  L 57,158  L 56,158  L 56,159  L 55,159  L 55,158  Z  M 97,150  L 98,150  L 98,148  L 99,148  L 99,146  L 100,146  L 100,144  L 101,144  L 101,139  L 102,139  L 102,135  L 103,135  L 103,134  L 102,134  L 102,131  L 103,131  L 103,130  L 102,130  L 102,125  L 101,125  L 101,121  L 100,121  L 100,118  L 99,118  L 99,116  L 98,116  L 98,115  L 97,115  L 97,114  L 96,114  L 96,113  L 95,113  L 95,112  L 93,112  L 93,111  L 90,111  L 90,110  L 84,110  L 84,109  L 71,109  L 71,108  L 70,108  L 70,109  L 69,109  L 69,108  L 64,108  L 64,107  L 61,107  L 61,106  L 59,106  L 59,107  L 57,107  L 57,108  L 56,108  L 56,109  L 55,109  L 55,110  L 54,110  L 54,111  L 53,111  L 53,112  L 52,112  L 52,113  L 51,113  L 51,114  L 50,114  L 50,115  L 49,115  L 49,116  L 48,116  L 48,117  L 47,117  L 47,118  L 46,118  L 46,119  L 45,119  L 45,120  L 44,120  L 44,121  L 43,121  L 43,122  L 42,122  L 42,124  L 41,124  L 41,126  L 40,126  L 40,128  L 39,128  L 39,129  L 38,129  L 38,133  L 37,133  L 37,135  L 36,135  L 36,137  L 35,137  L 35,142  L 34,142  L 34,155  L 35,155  L 35,158  L 36,158  L 36,159  L 37,159  L 37,160  L 38,160  L 38,161  L 40,161  L 40,162  L 46,162  L 46,163  L 48,163  L 48,164  L 51,164  L 51,165  L 56,165  L 56,166  L 70,166  L 70,165  L 74,165  L 74,164  L 76,164  L 76,163  L 79,163  L 79,162  L 80,162  L 80,161  L 83,161  L 83,160  L 86,160  L 86,159  L 87,159  L 87,158  L 88,158  L 88,157  L 90,157  L 90,156  L 91,156  L 91,155  L 92,155  L 92,154  L 94,154  L 94,153  L 95,153  L 95,152  L 96,152  L 96,151  L 97,151  Z  " style="fill:rgb(0, 0, 0); fill-opacity:1.000; stroke:none;" />
 <path d="  M 103,51  L 104,51  L 104,50  L 103,50  L 103,47  L 104,47  L 104,46  L 103,46  L 103,43  L 104,43  L 104,42  L 103,42  L 103,26  L 102,26  L 102,24  L 103,24  L 103,22  L 102,22  L 102,14  L 101,14  L 101,13  L 102,13  L 102,12  L 101,12  L 101,3  L 100,3  L 100,1  L 99,1  L 99,0  L 95,0  L 95,1  L 93,1  L 93,5  L 94,5  L 94,18  L 95,18  L 95,27  L 96,27  L 96,80  L 97,80  L 97,97  L 98,97  L 98,102  L 99,102  L 99,104  L 100,104  L 100,105  L 102,105  L 102,106  L 103,106  L 103,105  L 104,105  L 104,90  L 103,90  Z  " style="fill:rgb(0, 0, 0); fill-opacity:1.000; stroke:none;" />
</svg>
