<?xml version="1.0" encoding="UTF-8" standalone="no"?>
<!DOCTYPE svg PUBLIC "-//W3C//DTD SVG 1.1//EN" 
  "http://www.w3.org/Graphics/SVG/1.1/DTD/svg11.dtd">
<svg width="108" height="143"
     xmlns="http://www.w3.org/2000/svg" version="1.1">
 <path d="  M 38,59  L 38,61  L 37,61  L 37,62  L 36,62  L 36,65  L 35,65  L 35,71  L 36,71  L 36,72  L 37,72  L 37,73  L 40,73  L 40,71  L 41,71  L 41,68  L 42,68  L 42,67  L 43,67  L 43,63  L 44,63  L 44,62  L 45,62  L 45,60  L 46,60  L 46,58  L 47,58  L 47,56  L 48,56  L 48,54  L 49,54  L 49,53  L 52,53  L 52,55  L 54,55  L 54,56  L 55,56  L 55,57  L 56,57  L 56,58  L 57,58  L 57,59  L 59,59  L 59,61  L 60,61  L 60,62  L 61,62  L 61,63  L 62,63  L 62,64  L 63,64  L 63,66  L 64,66  L 64,67  L 65,67  L 65,69  L 66,69  L 66,71  L 67,71  L 67,73  L 70,73  L 70,72  L 71,72  L 71,70  L 72,70  L 72,63  L 71,63  L 71,61  L 69,61  L 69,60  L 67,60  L 67,59  L 66,59  L 66,58  L 65,58  L 65,57  L 64,57  L 64,56  L 62,56  L 62,55  L 61,55  L 61,54  L 60,54  L 60,53  L 59,53  L 59,52  L 58,52  L 58,51  L 57,51  L 57,50  L 55,50  L 55,49  L 54,49  L 54,48  L 53,48  L 53,47  L 52,47  L 52,45  L 51,45  L 51,44  L 52,44  L 52,41  L 53,41  L 53,38  L 54,38  L 54,34  L 55,34  L 55,30  L 56,30  L 56,27  L 57,27  L 57,24  L 58,24  L 58,22  L 59,22  L 59,20  L 60,20  L 60,18  L 61,18  L 61,14  L 62,14  L 62,8  L 63,8  L 63,7  L 62,7  L 62,4  L 58,4  L 58,6  L 57,6  L 57,11  L 56,11  L 56,13  L 55,13  L 55,17  L 54,17  L 54,19  L 53,19  L 53,21  L 52,21  L 52,23  L 51,23  L 51,27  L 50,27  L 50,29  L 49,29  L 49,34  L 48,34  L 48,38  L 47,38  L 47,42  L 46,42  L 46,45  L 45,45  L 45,47  L 44,47  L 44,49  L 40,49  L 40,48  L 38,48  L 38,47  L 36,47  L 36,46  L 32,46  L 32,44  L 31,44  L 31,43  L 29,43  L 29,42  L 27,42  L 27,41  L 25,41  L 25,40  L 24,40  L 24,39  L 22,39  L 22,38  L 20,38  L 20,37  L 19,37  L 19,36  L 18,36  L 18,34  L 19,34  L 19,32  L 20,32  L 20,30  L 21,30  L 21,28  L 22,28  L 22,26  L 23,26  L 23,24  L 24,24  L 24,23  L 25,23  L 25,22  L 26,22  L 26,20  L 27,20  L 27,19  L 28,19  L 28,17  L 29,17  L 29,15  L 30,15  L 30,13  L 31,13  L 31,12  L 32,12  L 32,10  L 33,10  L 33,7  L 32,7  L 32,6  L 29,6  L 29,7  L 27,7  L 27,8  L 26,8  L 26,9  L 25,9  L 25,11  L 24,11  L 24,12  L 23,12  L 23,15  L 22,15  L 22,16  L 21,16  L 21,18  L 20,18  L 20,19  L 19,19  L 19,21  L 18,21  L 18,23  L 17,23  L 17,24  L 16,24  L 16,26  L 15,26  L 15,29  L 14,29  L 14,31  L 13,31  L 13,33  L 12,33  L 12,35  L 11,35  L 11,38  L 10,38  L 10,40  L 9,40  L 9,41  L 8,41  L 8,43  L 7,43  L 7,45  L 6,45  L 6,46  L 5,46  L 5,47  L 4,47  L 4,49  L 3,49  L 3,50  L 2,50  L 2,51  L 1,51  L 1,53  L 0,53  L 0,57  L 1,57  L 1,58  L 4,58  L 4,57  L 5,57  L 5,56  L 6,56  L 6,55  L 7,55  L 7,53  L 8,53  L 8,51  L 9,51  L 9,50  L 10,50  L 10,48  L 11,48  L 11,47  L 12,47  L 12,46  L 13,46  L 13,44  L 14,44  L 14,43  L 15,43  L 15,42  L 17,42  L 17,43  L 19,43  L 19,45  L 22,45  L 22,46  L 24,46  L 24,47  L 25,47  L 25,48  L 27,48  L 27,49  L 28,49  L 28,50  L 29,50  L 29,51  L 31,51  L 31,52  L 34,52  L 34,53  L 37,53  L 37,52  L 39,52  L 39,54  L 40,54  L 40,55  L 39,55  L 39,59  Z  " style="fill:rgb(0, 0, 0); fill-opacity:1.000; stroke:none;" />
 <path d="  M 70,100  L 71,100  L 71,105  L 69,105  L 69,106  L 67,106  L 67,107  L 65,107  L 65,108  L 63,108  L 63,109  L 60,109  L 60,110  L 58,110  L 58,111  L 56,111  L 56,112  L 54,112  L 54,113  L 51,113  L 51,114  L 50,114  L 50,113  L 49,113  L 49,114  L 47,114  L 47,115  L 44,115  L 44,116  L 41,116  L 41,117  L 39,117  L 39,118  L 37,118  L 37,119  L 36,119  L 36,120  L 34,120  L 34,121  L 32,121  L 32,124  L 31,124  L 31,127  L 30,127  L 30,135  L 31,135  L 31,139  L 32,139  L 32,141  L 34,141  L 34,142  L 37,142  L 37,143  L 58,143  L 58,142  L 62,142  L 62,141  L 66,141  L 66,140  L 70,140  L 70,139  L 73,139  L 73,138  L 76,138  L 76,137  L 79,137  L 79,136  L 84,136  L 84,135  L 87,135  L 87,134  L 88,134  L 88,133  L 89,133  L 89,131  L 90,131  L 90,128  L 83,128  L 83,129  L 80,129  L 80,130  L 77,130  L 77,131  L 73,131  L 73,132  L 70,132  L 70,133  L 65,133  L 65,134  L 61,134  L 61,135  L 58,135  L 58,136  L 54,136  L 54,137  L 53,137  L 53,136  L 52,136  L 52,137  L 41,137  L 41,136  L 40,136  L 40,135  L 39,135  L 39,134  L 38,134  L 38,127  L 39,127  L 39,125  L 40,125  L 40,123  L 44,123  L 44,122  L 45,122  L 45,121  L 49,121  L 49,120  L 54,120  L 54,119  L 57,119  L 57,118  L 59,118  L 59,117  L 61,117  L 61,116  L 63,116  L 63,115  L 65,115  L 65,114  L 68,114  L 68,113  L 70,113  L 70,112  L 73,112  L 73,111  L 75,111  L 75,110  L 76,110  L 76,109  L 77,109  L 77,108  L 78,108  L 78,107  L 79,107  L 79,100  L 78,100  L 78,99  L 77,99  L 77,97  L 76,97  L 76,96  L 75,96  L 75,95  L 74,95  L 74,93  L 72,93  L 72,92  L 70,92  L 70,91  L 68,91  L 68,90  L 67,90  L 67,89  L 65,89  L 65,88  L 64,88  L 64,87  L 61,87  L 61,86  L 56,86  L 56,85  L 39,85  L 39,86  L 37,86  L 37,87  L 36,87  L 36,88  L 35,88  L 35,92  L 36,92  L 36,94  L 38,94  L 38,93  L 40,93  L 40,92  L 46,92  L 46,91  L 47,91  L 47,92  L 48,92  L 48,91  L 56,91  L 56,92  L 59,92  L 59,93  L 61,93  L 61,94  L 64,94  L 64,95  L 65,95  L 65,96  L 67,96  L 67,97  L 68,97  L 68,98  L 69,98  L 69,99  L 70,99  Z  " style="fill:rgb(0, 0, 0); fill-opacity:1.000; stroke:none;" />
 <path d="  M 87,40  L 88,40  L 88,39  L 89,39  L 89,38  L 93,38  L 93,37  L 108,37  L 108,32  L 87,32  L 87,30  L 86,30  L 86,28  L 87,28  L 87,2  L 86,2  L 86,1  L 81,1  L 81,39  L 82,39  L 82,65  L 83,65  L 83,77  L 84,77  L 84,80  L 85,80  L 85,81  L 88,81  L 88,80  L 89,80  L 89,71  L 88,71  L 88,70  L 89,70  L 89,69  L 88,69  L 88,54  L 87,54  Z  " style="fill:rgb(0, 0, 0); fill-opacity:1.000; stroke:none;" />
</svg>
