<?xml version="1.0" encoding="UTF-8" standalone="no"?>
<!DOCTYPE svg PUBLIC "-//W3C//DTD SVG 1.1//EN" 
  "http://www.w3.org/Graphics/SVG/1.1/DTD/svg11.dtd">
<svg width="110" height="142"
     xmlns="http://www.w3.org/2000/svg" version="1.1">
 <path d="  M 25,7  L 24,7  L 24,9  L 23,9  L 23,10  L 22,10  L 22,11  L 21,11  L 21,12  L 20,12  L 20,14  L 19,14  L 19,16  L 18,16  L 18,18  L 17,18  L 17,20  L 16,20  L 16,22  L 15,22  L 15,24  L 14,24  L 14,27  L 13,27  L 13,29  L 12,29  L 12,31  L 11,31  L 11,33  L 10,33  L 10,35  L 9,35  L 9,37  L 8,37  L 8,38  L 7,38  L 7,39  L 6,39  L 6,41  L 5,41  L 5,42  L 4,42  L 4,43  L 3,43  L 3,45  L 1,45  L 1,47  L 0,47  L 0,49  L 1,49  L 1,51  L 2,51  L 2,52  L 5,52  L 5,51  L 6,51  L 6,49  L 7,49  L 7,48  L 8,48  L 8,46  L 9,46  L 9,44  L 10,44  L 10,43  L 11,43  L 11,42  L 12,42  L 12,40  L 13,40  L 13,39  L 14,39  L 14,37  L 15,37  L 15,36  L 17,36  L 17,37  L 19,37  L 19,38  L 21,38  L 21,39  L 22,39  L 22,40  L 24,40  L 24,41  L 26,41  L 26,42  L 27,42  L 27,43  L 29,43  L 29,44  L 31,44  L 31,45  L 34,45  L 34,46  L 37,46  L 37,47  L 38,47  L 38,50  L 37,50  L 37,52  L 36,52  L 36,55  L 35,55  L 35,57  L 34,57  L 34,60  L 33,60  L 33,64  L 34,64  L 34,65  L 35,65  L 35,67  L 38,67  L 38,64  L 39,64  L 39,63  L 40,63  L 40,59  L 41,59  L 41,57  L 42,57  L 42,55  L 43,55  L 43,53  L 44,53  L 44,51  L 45,51  L 45,49  L 46,49  L 46,47  L 47,47  L 47,46  L 48,46  L 48,45  L 49,45  L 49,46  L 50,46  L 50,47  L 51,47  L 51,48  L 52,48  L 52,49  L 53,49  L 53,50  L 55,50  L 55,51  L 56,51  L 56,53  L 57,53  L 57,54  L 59,54  L 59,55  L 60,55  L 60,56  L 61,56  L 61,57  L 63,57  L 63,59  L 64,59  L 64,60  L 65,60  L 65,61  L 66,61  L 66,62  L 67,62  L 67,63  L 68,63  L 68,64  L 69,64  L 69,65  L 73,65  L 73,64  L 74,64  L 74,63  L 75,63  L 75,62  L 76,62  L 76,60  L 77,60  L 77,57  L 76,57  L 76,58  L 74,58  L 74,57  L 72,57  L 72,56  L 71,56  L 71,55  L 68,55  L 68,54  L 67,54  L 67,53  L 66,53  L 66,52  L 64,52  L 64,51  L 63,51  L 63,50  L 62,50  L 62,49  L 61,49  L 61,48  L 59,48  L 59,47  L 58,47  L 58,45  L 56,45  L 56,44  L 55,44  L 55,43  L 54,43  L 54,42  L 53,42  L 53,41  L 52,41  L 52,40  L 51,40  L 51,38  L 52,38  L 52,35  L 53,35  L 53,32  L 54,32  L 54,30  L 55,30  L 55,26  L 56,26  L 56,24  L 57,24  L 57,22  L 58,22  L 58,20  L 59,20  L 59,18  L 60,18  L 60,15  L 61,15  L 61,13  L 62,13  L 62,9  L 63,9  L 63,4  L 62,4  L 62,3  L 60,3  L 60,4  L 59,4  L 59,5  L 58,5  L 58,7  L 57,7  L 57,9  L 56,9  L 56,13  L 55,13  L 55,16  L 54,16  L 54,17  L 53,17  L 53,19  L 52,19  L 52,21  L 51,21  L 51,24  L 50,24  L 50,27  L 49,27  L 49,30  L 48,30  L 48,32  L 47,32  L 47,35  L 46,35  L 46,37  L 45,37  L 45,38  L 44,38  L 44,40  L 43,40  L 43,41  L 41,41  L 41,42  L 40,42  L 40,41  L 38,41  L 38,40  L 36,40  L 36,39  L 34,39  L 34,38  L 31,38  L 31,37  L 29,37  L 29,36  L 27,36  L 27,35  L 26,35  L 26,34  L 24,34  L 24,33  L 22,33  L 22,32  L 20,32  L 20,31  L 19,31  L 19,28  L 20,28  L 20,26  L 21,26  L 21,23  L 22,23  L 22,21  L 23,21  L 23,19  L 24,19  L 24,18  L 25,18  L 25,16  L 26,16  L 26,15  L 27,15  L 27,13  L 28,13  L 28,12  L 29,12  L 29,10  L 30,10  L 30,7  L 31,7  L 31,5  L 30,5  L 30,4  L 27,4  L 27,5  L 25,5  Z  " style="fill:rgb(0, 0, 0); fill-opacity:1.000; stroke:none;" />
 <path d="  M 54,91  L 55,91  L 55,92  L 56,92  L 56,93  L 53,93  L 53,94  L 48,94  L 48,95  L 40,95  L 40,96  L 39,96  L 39,95  L 38,95  L 38,96  L 33,96  L 33,97  L 30,97  L 30,98  L 29,98  L 29,101  L 31,101  L 31,102  L 32,102  L 32,101  L 33,101  L 33,102  L 36,102  L 36,101  L 37,101  L 37,102  L 38,102  L 38,101  L 41,101  L 41,102  L 42,102  L 42,101  L 49,101  L 49,100  L 55,100  L 55,99  L 58,99  L 58,98  L 59,98  L 59,99  L 60,99  L 60,98  L 61,98  L 61,99  L 62,99  L 62,98  L 63,98  L 63,99  L 64,99  L 64,98  L 74,98  L 74,97  L 77,97  L 77,96  L 83,96  L 83,95  L 84,95  L 84,96  L 85,96  L 85,95  L 91,95  L 91,92  L 92,92  L 92,90  L 91,90  L 91,89  L 81,89  L 81,90  L 75,90  L 75,91  L 68,91  L 68,92  L 62,92  L 62,91  L 61,91  L 61,89  L 60,89  L 60,87  L 59,87  L 59,81  L 58,81  L 58,76  L 57,76  L 57,75  L 56,75  L 56,74  L 54,74  L 54,73  L 53,73  L 53,74  L 51,74  L 51,75  L 50,75  L 50,79  L 51,79  L 51,83  L 52,83  L 52,88  L 53,88  L 53,90  L 54,90  Z  " style="fill:rgb(0, 0, 0); fill-opacity:1.000; stroke:none;" />
 <path d="  M 60,104  L 60,105  L 57,105  L 57,106  L 55,106  L 55,107  L 54,107  L 54,108  L 53,108  L 53,109  L 52,109  L 52,110  L 51,110  L 51,112  L 50,112  L 50,113  L 49,113  L 49,114  L 48,114  L 48,116  L 47,116  L 47,117  L 46,117  L 46,119  L 45,119  L 45,121  L 44,121  L 44,124  L 43,124  L 43,125  L 42,125  L 42,132  L 41,132  L 41,133  L 42,133  L 42,134  L 43,134  L 43,135  L 44,135  L 44,136  L 45,136  L 45,137  L 46,137  L 46,138  L 47,138  L 47,139  L 48,139  L 48,140  L 50,140  L 50,141  L 52,141  L 52,142  L 64,142  L 64,141  L 66,141  L 66,140  L 68,140  L 68,139  L 70,139  L 70,138  L 71,138  L 71,137  L 73,137  L 73,136  L 75,136  L 75,135  L 76,135  L 76,134  L 77,134  L 77,133  L 78,133  L 78,132  L 79,132  L 79,131  L 80,131  L 80,130  L 81,130  L 81,129  L 82,129  L 82,126  L 83,126  L 83,123  L 84,123  L 84,117  L 83,117  L 83,116  L 82,116  L 82,113  L 81,113  L 81,112  L 80,112  L 80,111  L 79,111  L 79,110  L 78,110  L 78,109  L 76,109  L 76,108  L 74,108  L 74,107  L 72,107  L 72,106  L 69,106  L 69,105  L 67,105  L 67,104  Z  M 53,115  L 54,115  L 54,114  L 56,114  L 56,113  L 58,113  L 58,112  L 59,112  L 59,111  L 66,111  L 66,112  L 69,112  L 69,113  L 72,113  L 72,114  L 73,114  L 73,115  L 74,115  L 74,116  L 76,116  L 76,117  L 77,117  L 77,118  L 78,118  L 78,121  L 77,121  L 77,124  L 76,124  L 76,127  L 75,127  L 75,128  L 74,128  L 74,129  L 73,129  L 73,130  L 72,130  L 72,131  L 70,131  L 70,132  L 69,132  L 69,133  L 66,133  L 66,134  L 63,134  L 63,135  L 52,135  L 52,134  L 51,134  L 51,133  L 50,133  L 50,132  L 49,132  L 49,131  L 48,131  L 48,124  L 49,124  L 49,122  L 50,122  L 50,120  L 51,120  L 51,118  L 52,118  L 52,117  L 53,117  Z  " style="fill:rgb(0, 0, 0); fill-opacity:1.000; stroke:none;" />
 <path d="  M 88,46  L 87,46  L 87,44  L 88,44  L 88,43  L 87,43  L 87,41  L 86,41  L 86,40  L 85,40  L 85,38  L 87,38  L 87,35  L 88,35  L 88,34  L 90,34  L 90,33  L 95,33  L 95,32  L 96,32  L 96,33  L 97,33  L 97,32  L 98,32  L 98,33  L 99,33  L 99,32  L 106,32  L 106,33  L 107,33  L 107,32  L 108,32  L 108,33  L 109,33  L 109,32  L 110,32  L 110,28  L 109,28  L 109,27  L 106,27  L 106,26  L 104,26  L 104,27  L 103,27  L 103,26  L 98,26  L 98,27  L 97,27  L 97,26  L 94,26  L 94,27  L 91,27  L 91,26  L 90,26  L 90,27  L 89,27  L 89,26  L 88,26  L 88,25  L 87,25  L 87,23  L 88,23  L 88,1  L 86,1  L 86,0  L 83,0  L 83,2  L 82,2  L 82,34  L 83,34  L 83,36  L 82,36  L 82,38  L 83,38  L 83,45  L 82,45  L 82,46  L 83,46  L 83,47  L 82,47  L 82,56  L 81,56  L 81,58  L 82,58  L 82,68  L 83,68  L 83,69  L 82,69  L 82,70  L 83,70  L 83,73  L 84,73  L 84,75  L 88,75  L 88,58  L 87,58  L 87,56  L 88,56  L 88,55  L 87,55  L 87,47  L 88,47  Z  " style="fill:rgb(0, 0, 0); fill-opacity:1.000; stroke:none;" />
</svg>
