<?xml version="1.0" encoding="UTF-8" standalone="no"?>
<!DOCTYPE svg PUBLIC "-//W3C//DTD SVG 1.1//EN" 
  "http://www.w3.org/Graphics/SVG/1.1/DTD/svg11.dtd">
<svg width="106" height="138"
     xmlns="http://www.w3.org/2000/svg" version="1.1">
 <path d="  M 29,10  L 29,11  L 25,11  L 25,13  L 24,13  L 24,14  L 23,14  L 23,16  L 22,16  L 22,18  L 21,18  L 21,19  L 20,19  L 20,21  L 19,21  L 19,23  L 18,23  L 18,24  L 17,24  L 17,26  L 16,26  L 16,27  L 15,27  L 15,29  L 14,29  L 14,31  L 13,31  L 13,32  L 12,32  L 12,34  L 11,34  L 11,35  L 10,35  L 10,36  L 9,36  L 9,37  L 8,37  L 8,39  L 7,39  L 7,40  L 6,40  L 6,43  L 5,43  L 5,44  L 4,44  L 4,45  L 3,45  L 3,46  L 2,46  L 2,48  L 1,48  L 1,50  L 0,50  L 0,51  L 1,51  L 1,52  L 2,52  L 2,53  L 4,53  L 4,52  L 6,52  L 6,51  L 7,51  L 7,50  L 8,50  L 8,49  L 9,49  L 9,47  L 10,47  L 10,46  L 11,46  L 11,45  L 12,45  L 12,44  L 13,44  L 13,43  L 14,43  L 14,39  L 15,39  L 15,38  L 19,38  L 19,39  L 20,39  L 20,40  L 21,40  L 21,41  L 22,41  L 22,42  L 24,42  L 24,43  L 25,43  L 25,44  L 27,44  L 27,45  L 29,45  L 29,46  L 30,46  L 30,47  L 32,47  L 32,48  L 37,48  L 37,46  L 38,46  L 38,45  L 39,45  L 39,44  L 38,44  L 38,43  L 37,43  L 37,42  L 34,42  L 34,41  L 33,41  L 33,40  L 31,40  L 31,39  L 30,39  L 30,38  L 28,38  L 28,37  L 26,37  L 26,36  L 25,36  L 25,35  L 23,35  L 23,34  L 21,34  L 21,31  L 22,31  L 22,29  L 23,29  L 23,27  L 24,27  L 24,25  L 25,25  L 25,24  L 26,24  L 26,23  L 27,23  L 27,22  L 28,22  L 28,20  L 29,20  L 29,19  L 30,19  L 30,18  L 31,18  L 31,17  L 32,17  L 32,16  L 33,16  L 33,14  L 34,14  L 34,10  Z  " style="fill:rgb(0, 0, 0); fill-opacity:1.000; stroke:none;" />
 <path d="  M 46,38  L 46,40  L 45,40  L 45,41  L 44,41  L 44,42  L 43,42  L 43,43  L 42,43  L 42,46  L 40,46  L 40,47  L 41,47  L 41,48  L 40,48  L 40,49  L 39,49  L 39,52  L 38,52  L 38,54  L 37,54  L 37,56  L 36,56  L 36,58  L 35,58  L 35,59  L 34,59  L 34,62  L 33,62  L 33,67  L 34,67  L 34,68  L 35,68  L 35,69  L 37,69  L 37,68  L 38,68  L 38,67  L 39,67  L 39,64  L 40,64  L 40,62  L 41,62  L 41,61  L 42,61  L 42,59  L 43,59  L 43,58  L 44,58  L 44,57  L 45,57  L 45,55  L 46,55  L 46,53  L 47,53  L 47,51  L 48,51  L 48,49  L 50,49  L 50,50  L 51,50  L 51,51  L 53,51  L 53,52  L 54,52  L 54,54  L 56,54  L 56,55  L 57,55  L 57,57  L 58,57  L 58,59  L 59,59  L 59,61  L 60,61  L 60,62  L 61,62  L 61,63  L 62,63  L 62,65  L 63,65  L 63,66  L 64,66  L 64,67  L 65,67  L 65,68  L 68,68  L 68,67  L 69,67  L 69,65  L 70,65  L 70,60  L 69,60  L 69,59  L 68,59  L 68,58  L 67,58  L 67,57  L 66,57  L 66,56  L 65,56  L 65,55  L 64,55  L 64,54  L 63,54  L 63,53  L 62,53  L 62,52  L 61,52  L 61,51  L 60,51  L 60,50  L 59,50  L 59,49  L 58,49  L 58,48  L 57,48  L 57,47  L 56,47  L 56,45  L 55,45  L 55,44  L 54,44  L 54,43  L 53,43  L 53,42  L 52,42  L 52,37  L 54,37  L 54,35  L 55,35  L 55,34  L 54,34  L 54,33  L 55,33  L 55,31  L 56,31  L 56,28  L 57,28  L 57,24  L 58,24  L 58,23  L 59,23  L 59,19  L 60,19  L 60,17  L 61,17  L 61,14  L 62,14  L 62,9  L 61,9  L 61,8  L 59,8  L 59,7  L 57,7  L 57,8  L 56,8  L 56,9  L 55,9  L 55,10  L 54,10  L 54,11  L 55,11  L 55,13  L 54,13  L 54,17  L 53,17  L 53,20  L 52,20  L 52,23  L 51,23  L 51,24  L 50,24  L 50,28  L 49,28  L 49,32  L 48,32  L 48,35  L 47,35  L 47,38  Z  " style="fill:rgb(0, 0, 0); fill-opacity:1.000; stroke:none;" />
 <path d="  M 51,97  L 51,96  L 59,96  L 59,95  L 82,95  L 82,96  L 86,96  L 86,97  L 87,97  L 87,98  L 88,98  L 88,104  L 87,104  L 87,106  L 86,106  L 86,109  L 85,109  L 85,111  L 84,111  L 84,116  L 83,116  L 83,120  L 82,120  L 82,125  L 81,125  L 81,134  L 82,134  L 82,137  L 83,137  L 83,138  L 87,138  L 87,137  L 88,137  L 88,127  L 89,127  L 89,117  L 90,117  L 90,115  L 91,115  L 91,114  L 90,114  L 90,113  L 91,113  L 91,110  L 92,110  L 92,108  L 93,108  L 93,105  L 94,105  L 94,100  L 95,100  L 95,98  L 94,98  L 94,96  L 95,96  L 95,94  L 94,94  L 94,93  L 93,93  L 93,92  L 92,92  L 92,91  L 89,91  L 89,90  L 87,90  L 87,89  L 81,89  L 81,88  L 66,88  L 66,89  L 65,89  L 65,88  L 63,88  L 63,89  L 54,89  L 54,90  L 53,90  L 53,89  L 51,89  L 51,90  L 46,90  L 46,91  L 42,91  L 42,92  L 40,92  L 40,93  L 39,93  L 39,97  L 40,97  L 40,98  L 47,98  L 47,97  Z  " style="fill:rgb(0, 0, 0); fill-opacity:1.000; stroke:none;" />
 <path d="  M 88,46  L 87,46  L 87,43  L 88,43  L 88,42  L 87,42  L 87,40  L 88,40  L 88,35  L 90,35  L 90,34  L 91,34  L 91,33  L 95,33  L 95,32  L 100,32  L 100,35  L 101,35  L 101,38  L 100,38  L 100,39  L 101,39  L 101,40  L 100,40  L 100,62  L 99,62  L 99,63  L 100,63  L 100,66  L 99,66  L 99,81  L 100,81  L 100,83  L 103,83  L 103,82  L 104,82  L 104,81  L 105,81  L 105,77  L 106,77  L 106,76  L 105,76  L 105,75  L 106,75  L 106,74  L 105,74  L 105,73  L 106,73  L 106,72  L 105,72  L 105,71  L 106,71  L 106,70  L 105,70  L 105,69  L 106,69  L 106,0  L 102,0  L 102,1  L 101,1  L 101,25  L 100,25  L 100,26  L 95,26  L 95,27  L 93,27  L 93,26  L 92,26  L 92,27  L 87,27  L 87,26  L 86,26  L 86,1  L 85,1  L 85,0  L 82,0  L 82,1  L 80,1  L 80,35  L 81,35  L 81,36  L 80,36  L 80,39  L 81,39  L 81,42  L 80,42  L 80,43  L 81,43  L 81,45  L 80,45  L 80,47  L 81,47  L 81,48  L 80,48  L 80,60  L 79,60  L 79,63  L 80,63  L 80,64  L 79,64  L 79,67  L 80,67  L 80,68  L 79,68  L 79,71  L 80,71  L 80,76  L 84,76  L 84,75  L 85,75  L 85,72  L 86,72  L 86,52  L 87,52  L 87,50  L 86,50  L 86,49  L 87,49  L 87,47  L 88,47  Z  " style="fill:rgb(0, 0, 0); fill-opacity:1.000; stroke:none;" />
</svg>
