<?xml version="1.0" encoding="UTF-8" standalone="no"?>
<!DOCTYPE svg PUBLIC "-//W3C//DTD SVG 1.1//EN" 
  "http://www.w3.org/Graphics/SVG/1.1/DTD/svg11.dtd">
<svg width="106" height="160"
     xmlns="http://www.w3.org/2000/svg" version="1.1">
 <path d="  M 26,32  L 26,31  L 27,31  L 27,29  L 28,29  L 28,27  L 29,27  L 29,26  L 30,26  L 30,25  L 31,25  L 31,24  L 32,24  L 32,23  L 33,23  L 33,21  L 34,21  L 34,20  L 35,20  L 35,19  L 36,19  L 36,17  L 37,17  L 37,15  L 38,15  L 38,13  L 37,13  L 37,12  L 36,12  L 36,11  L 35,11  L 35,12  L 31,12  L 31,13  L 30,13  L 30,14  L 29,14  L 29,15  L 28,15  L 28,17  L 27,17  L 27,18  L 26,18  L 26,20  L 25,20  L 25,23  L 24,23  L 24,24  L 23,24  L 23,25  L 22,25  L 22,27  L 21,27  L 21,29  L 20,29  L 20,30  L 19,30  L 19,32  L 18,32  L 18,33  L 17,33  L 17,35  L 16,35  L 16,37  L 15,37  L 15,38  L 14,38  L 14,40  L 13,40  L 13,42  L 12,42  L 12,44  L 11,44  L 11,46  L 10,46  L 10,48  L 9,48  L 9,50  L 8,50  L 8,52  L 7,52  L 7,53  L 6,53  L 6,55  L 5,55  L 5,57  L 4,57  L 4,58  L 3,58  L 3,59  L 2,59  L 2,60  L 1,60  L 1,61  L 0,61  L 0,65  L 1,65  L 1,67  L 4,67  L 4,66  L 5,66  L 5,64  L 7,64  L 7,62  L 8,62  L 8,61  L 9,61  L 9,60  L 10,60  L 10,58  L 12,58  L 12,56  L 13,56  L 13,54  L 14,54  L 14,53  L 15,53  L 15,51  L 16,51  L 16,49  L 17,49  L 17,47  L 21,47  L 21,48  L 23,48  L 23,49  L 24,49  L 24,50  L 25,50  L 25,51  L 27,51  L 27,52  L 28,52  L 28,53  L 29,53  L 29,54  L 30,54  L 30,55  L 31,55  L 31,56  L 32,56  L 32,57  L 33,57  L 33,58  L 34,58  L 34,59  L 37,59  L 37,60  L 40,60  L 40,61  L 41,61  L 41,65  L 40,65  L 40,66  L 39,66  L 39,68  L 37,68  L 37,70  L 36,70  L 36,72  L 35,72  L 35,76  L 36,76  L 36,77  L 37,77  L 37,78  L 39,78  L 39,77  L 41,77  L 41,74  L 42,74  L 42,72  L 43,72  L 43,71  L 44,71  L 44,70  L 45,70  L 45,68  L 46,68  L 46,67  L 47,67  L 47,66  L 48,66  L 48,65  L 49,65  L 49,63  L 50,63  L 50,62  L 51,62  L 51,61  L 52,61  L 52,58  L 53,58  L 53,57  L 57,57  L 57,58  L 58,58  L 58,59  L 59,59  L 59,60  L 60,60  L 60,61  L 61,61  L 61,62  L 62,62  L 62,63  L 63,63  L 63,64  L 65,64  L 65,65  L 66,65  L 66,66  L 67,66  L 67,67  L 68,67  L 68,68  L 69,68  L 69,69  L 70,69  L 70,71  L 71,71  L 71,72  L 72,72  L 72,73  L 73,73  L 73,75  L 74,75  L 74,76  L 75,76  L 75,77  L 77,77  L 77,78  L 80,78  L 80,77  L 81,77  L 81,74  L 80,74  L 80,71  L 79,71  L 79,70  L 78,70  L 78,68  L 77,68  L 77,67  L 76,67  L 76,66  L 75,66  L 75,65  L 73,65  L 73,64  L 72,64  L 72,63  L 71,63  L 71,62  L 70,62  L 70,61  L 69,61  L 69,60  L 67,60  L 67,59  L 66,59  L 66,58  L 65,58  L 65,57  L 64,57  L 64,56  L 63,56  L 63,55  L 62,55  L 62,53  L 61,53  L 61,52  L 60,52  L 60,51  L 59,51  L 59,50  L 58,50  L 58,48  L 57,48  L 57,45  L 56,45  L 56,44  L 57,44  L 57,41  L 56,41  L 56,40  L 57,40  L 57,38  L 58,38  L 58,36  L 59,36  L 59,33  L 60,33  L 60,31  L 61,31  L 61,28  L 62,28  L 62,24  L 63,24  L 63,21  L 64,21  L 64,18  L 65,18  L 65,13  L 64,13  L 64,11  L 60,11  L 60,13  L 59,13  L 59,16  L 58,16  L 58,19  L 57,19  L 57,23  L 56,23  L 56,26  L 55,26  L 55,28  L 54,28  L 54,31  L 53,31  L 53,33  L 52,33  L 52,37  L 51,37  L 51,40  L 50,40  L 50,51  L 49,51  L 49,52  L 50,52  L 50,53  L 49,53  L 49,54  L 48,54  L 48,55  L 44,55  L 44,54  L 41,54  L 41,53  L 38,53  L 38,52  L 37,52  L 37,51  L 36,51  L 36,50  L 34,50  L 34,49  L 33,49  L 33,48  L 32,48  L 32,46  L 31,46  L 31,45  L 28,45  L 28,44  L 27,44  L 27,43  L 25,43  L 25,42  L 24,42  L 24,41  L 22,41  L 22,37  L 23,37  L 23,36  L 24,36  L 24,34  L 25,34  L 25,32  Z  " style="fill:rgb(0, 0, 0); fill-opacity:1.000; stroke:none;" />
 <path d="  M 89,135  L 89,133  L 90,133  L 90,127  L 91,127  L 91,124  L 92,124  L 92,121  L 93,121  L 93,120  L 94,120  L 94,116  L 95,116  L 95,113  L 96,113  L 96,112  L 95,112  L 95,107  L 94,107  L 94,106  L 93,106  L 93,105  L 92,105  L 92,104  L 91,104  L 91,103  L 89,103  L 89,102  L 87,102  L 87,101  L 81,101  L 81,100  L 68,100  L 68,101  L 67,101  L 67,100  L 64,100  L 64,101  L 63,101  L 63,100  L 62,100  L 62,101  L 61,101  L 61,100  L 60,100  L 60,101  L 55,101  L 55,100  L 54,100  L 54,101  L 37,101  L 37,102  L 35,102  L 35,103  L 34,103  L 34,104  L 35,104  L 35,105  L 34,105  L 34,106  L 37,106  L 37,107  L 39,107  L 39,108  L 40,108  L 40,107  L 52,107  L 52,106  L 53,106  L 53,107  L 56,107  L 56,106  L 57,106  L 57,107  L 60,107  L 60,106  L 61,106  L 61,107  L 62,107  L 62,106  L 63,106  L 63,107  L 64,107  L 64,106  L 77,106  L 77,107  L 78,107  L 78,106  L 80,106  L 80,107  L 85,107  L 85,108  L 86,108  L 86,109  L 87,109  L 87,111  L 88,111  L 88,114  L 87,114  L 87,119  L 86,119  L 86,121  L 85,121  L 85,123  L 84,123  L 84,127  L 83,127  L 83,143  L 82,143  L 82,150  L 81,150  L 81,156  L 80,156  L 80,160  L 86,160  L 86,159  L 88,159  L 88,156  L 89,156  L 89,148  L 90,148  L 90,147  L 89,147  L 89,144  L 90,144  L 90,143  L 89,143  L 89,140  L 90,140  L 90,139  L 89,139  L 89,136  L 90,136  L 90,135  Z  " style="fill:rgb(0, 0, 0); fill-opacity:1.000; stroke:none;" />
 <path d="  M 83,36  L 83,37  L 81,37  L 81,38  L 74,38  L 74,39  L 72,39  L 72,38  L 70,38  L 70,39  L 69,39  L 69,41  L 68,41  L 68,44  L 69,44  L 69,45  L 71,45  L 71,46  L 73,46  L 73,45  L 76,45  L 76,44  L 80,44  L 80,43  L 88,43  L 88,42  L 91,42  L 91,41  L 95,41  L 95,40  L 97,40  L 97,39  L 99,39  L 99,41  L 100,41  L 100,63  L 99,63  L 99,64  L 100,64  L 100,67  L 99,67  L 99,68  L 100,68  L 100,69  L 99,69  L 99,92  L 101,92  L 101,91  L 103,91  L 103,90  L 105,90  L 105,88  L 106,88  L 106,85  L 105,85  L 105,84  L 106,84  L 106,83  L 105,83  L 105,80  L 106,80  L 106,79  L 105,79  L 105,77  L 106,77  L 106,75  L 105,75  L 105,74  L 106,74  L 106,19  L 105,19  L 105,16  L 106,16  L 106,15  L 105,15  L 105,2  L 103,2  L 103,0  L 101,0  L 101,1  L 99,1  L 99,3  L 98,3  L 98,5  L 99,5  L 99,7  L 98,7  L 98,9  L 99,9  L 99,30  L 98,30  L 98,31  L 97,31  L 97,32  L 95,32  L 95,33  L 92,33  L 92,34  L 89,34  L 89,35  L 86,35  L 86,36  Z  " style="fill:rgb(0, 0, 0); fill-opacity:1.000; stroke:none;" />
</svg>
