<?xml version="1.0" encoding="UTF-8" standalone="no"?>
<!DOCTYPE svg PUBLIC "-//W3C//DTD SVG 1.1//EN" 
  "http://www.w3.org/Graphics/SVG/1.1/DTD/svg11.dtd">
<svg width="109" height="97"
     xmlns="http://www.w3.org/2000/svg" version="1.1">
 <path d="  M 0,63  L 0,67  L 2,67  L 2,68  L 3,68  L 3,67  L 4,67  L 4,68  L 5,68  L 5,67  L 6,67  L 6,65  L 7,65  L 7,63  L 8,63  L 8,61  L 9,61  L 9,59  L 10,59  L 10,58  L 11,58  L 11,56  L 12,56  L 12,55  L 13,55  L 13,53  L 14,53  L 14,51  L 15,51  L 15,50  L 16,50  L 16,47  L 17,47  L 17,45  L 21,45  L 21,46  L 23,46  L 23,47  L 24,47  L 24,48  L 25,48  L 25,49  L 26,49  L 26,50  L 27,50  L 27,51  L 29,51  L 29,52  L 33,52  L 33,53  L 36,53  L 36,51  L 37,51  L 37,49  L 36,49  L 36,48  L 34,48  L 34,46  L 31,46  L 31,45  L 30,45  L 30,44  L 28,44  L 28,43  L 27,43  L 27,42  L 26,42  L 26,41  L 24,41  L 24,40  L 23,40  L 23,39  L 22,39  L 22,31  L 23,31  L 23,28  L 24,28  L 24,25  L 25,25  L 25,23  L 26,23  L 26,19  L 27,19  L 27,16  L 28,16  L 28,13  L 29,13  L 29,12  L 28,12  L 28,11  L 23,11  L 23,12  L 22,12  L 22,14  L 21,14  L 21,16  L 20,16  L 20,20  L 19,20  L 19,22  L 18,22  L 18,26  L 17,26  L 17,29  L 16,29  L 16,34  L 15,34  L 15,36  L 14,36  L 14,39  L 13,39  L 13,42  L 12,42  L 12,44  L 11,44  L 11,45  L 10,45  L 10,47  L 9,47  L 9,49  L 8,49  L 8,50  L 7,50  L 7,53  L 6,53  L 6,55  L 5,55  L 5,57  L 4,57  L 4,58  L 3,58  L 3,60  L 2,60  L 2,62  L 1,62  L 1,63  Z  " style="fill:rgb(0, 0, 0); fill-opacity:1.000; stroke:none;" />
 <path d="  M 33,76  L 34,76  L 34,77  L 37,77  L 37,76  L 38,76  L 38,74  L 39,74  L 39,70  L 40,70  L 40,68  L 41,68  L 41,65  L 42,65  L 42,63  L 43,63  L 43,61  L 44,61  L 44,60  L 45,60  L 45,58  L 46,58  L 46,53  L 47,53  L 47,51  L 50,51  L 50,53  L 51,53  L 51,54  L 52,54  L 52,55  L 53,55  L 53,57  L 54,57  L 54,58  L 55,58  L 55,59  L 56,59  L 56,60  L 57,60  L 57,61  L 58,61  L 58,62  L 59,62  L 59,63  L 60,63  L 60,65  L 61,65  L 61,66  L 62,66  L 62,67  L 63,67  L 63,68  L 64,68  L 64,70  L 65,70  L 65,71  L 69,71  L 69,70  L 70,70  L 70,66  L 69,66  L 69,65  L 68,65  L 68,64  L 67,64  L 67,63  L 66,63  L 66,62  L 65,62  L 65,61  L 64,61  L 64,60  L 63,60  L 63,59  L 62,59  L 62,58  L 61,58  L 61,56  L 60,56  L 60,55  L 59,55  L 59,53  L 58,53  L 58,52  L 57,52  L 57,50  L 56,50  L 56,49  L 55,49  L 55,48  L 54,48  L 54,46  L 53,46  L 53,39  L 54,39  L 54,38  L 55,38  L 55,36  L 56,36  L 56,31  L 57,31  L 57,20  L 58,20  L 58,15  L 59,15  L 59,14  L 58,14  L 58,12  L 54,12  L 54,13  L 53,13  L 53,14  L 52,14  L 52,18  L 51,18  L 51,24  L 50,24  L 50,32  L 49,32  L 49,38  L 48,38  L 48,42  L 47,42  L 47,43  L 48,43  L 48,45  L 47,45  L 47,46  L 45,46  L 45,48  L 44,48  L 44,49  L 43,49  L 43,50  L 42,50  L 42,51  L 41,51  L 41,52  L 40,52  L 40,53  L 41,53  L 41,54  L 40,54  L 40,56  L 39,56  L 39,57  L 38,57  L 38,59  L 37,59  L 37,62  L 36,62  L 36,64  L 35,64  L 35,66  L 34,66  L 34,69  L 33,69  Z  " style="fill:rgb(0, 0, 0); fill-opacity:1.000; stroke:none;" />
 <path d="  M 89,6  L 88,6  L 88,5  L 84,5  L 84,6  L 83,6  L 83,7  L 82,7  L 82,19  L 83,19  L 83,20  L 82,20  L 82,21  L 83,21  L 83,22  L 82,22  L 82,29  L 83,29  L 83,30  L 82,30  L 82,36  L 81,36  L 81,37  L 78,37  L 78,36  L 77,36  L 77,37  L 76,37  L 76,36  L 75,36  L 75,37  L 72,37  L 72,36  L 71,36  L 71,37  L 66,37  L 66,38  L 64,38  L 64,39  L 63,39  L 63,40  L 62,40  L 62,42  L 63,42  L 63,43  L 65,43  L 65,44  L 66,44  L 66,43  L 72,43  L 72,42  L 74,42  L 74,43  L 75,43  L 75,42  L 76,42  L 76,43  L 80,43  L 80,42  L 82,42  L 82,70  L 81,70  L 81,71  L 82,71  L 82,73  L 81,73  L 81,87  L 82,87  L 82,89  L 86,89  L 86,87  L 88,87  L 88,86  L 87,86  L 87,83  L 88,83  L 88,82  L 87,82  L 87,81  L 88,81  L 88,80  L 87,80  L 87,79  L 88,79  L 88,67  L 89,67  L 89,66  L 88,66  L 88,65  L 89,65  L 89,64  L 88,64  L 88,63  L 89,63  L 89,60  L 88,60  L 88,59  L 89,59  L 89,56  L 88,56  L 88,55  L 89,55  Z  " style="fill:rgb(0, 0, 0); fill-opacity:1.000; stroke:none;" />
 <path d="  M 104,58  L 103,58  L 103,59  L 104,59  L 104,60  L 103,60  L 103,90  L 102,90  L 102,91  L 103,91  L 103,94  L 102,94  L 102,95  L 103,95  L 103,97  L 109,97  L 109,1  L 108,1  L 108,0  L 104,0  L 104,1  L 103,1  L 103,11  L 104,11  Z  " style="fill:rgb(0, 0, 0); fill-opacity:1.000; stroke:none;" />
</svg>
