<?xml version="1.0" encoding="UTF-8" standalone="no"?>
<!DOCTYPE svg PUBLIC "-//W3C//DTD SVG 1.1//EN" 
  "http://www.w3.org/Graphics/SVG/1.1/DTD/svg11.dtd">
<svg width="101" height="166"
     xmlns="http://www.w3.org/2000/svg" version="1.1">
 <path d="  M 55,74  L 54,74  L 54,65  L 53,65  L 53,61  L 52,61  L 52,56  L 51,56  L 51,49  L 52,49  L 52,47  L 53,47  L 53,46  L 54,46  L 54,44  L 55,44  L 55,42  L 56,42  L 56,41  L 57,41  L 57,40  L 58,40  L 58,39  L 59,39  L 59,37  L 60,37  L 60,36  L 61,36  L 61,33  L 62,33  L 62,31  L 63,31  L 63,30  L 67,30  L 67,29  L 70,29  L 70,30  L 73,30  L 73,31  L 75,31  L 75,32  L 79,32  L 79,33  L 81,33  L 81,34  L 83,34  L 83,35  L 85,35  L 85,36  L 86,36  L 86,37  L 89,37  L 89,38  L 90,38  L 90,39  L 91,39  L 91,40  L 93,40  L 93,41  L 94,41  L 94,42  L 99,42  L 99,40  L 100,40  L 100,37  L 99,37  L 99,36  L 98,36  L 98,35  L 96,35  L 96,34  L 95,34  L 95,33  L 93,33  L 93,32  L 92,32  L 92,31  L 90,31  L 90,30  L 88,30  L 88,29  L 86,29  L 86,28  L 83,28  L 83,27  L 81,27  L 81,26  L 78,26  L 78,25  L 76,25  L 76,24  L 72,24  L 72,23  L 71,23  L 71,20  L 72,20  L 72,18  L 73,18  L 73,17  L 74,17  L 74,15  L 75,15  L 75,13  L 76,13  L 76,12  L 75,12  L 75,11  L 76,11  L 76,7  L 77,7  L 77,4  L 76,4  L 76,3  L 75,3  L 75,1  L 73,1  L 73,0  L 70,0  L 70,2  L 69,2  L 69,8  L 68,8  L 68,13  L 67,13  L 67,15  L 66,15  L 66,18  L 65,18  L 65,19  L 64,19  L 64,20  L 63,20  L 63,22  L 62,22  L 62,23  L 60,23  L 60,25  L 59,25  L 59,26  L 58,26  L 58,27  L 57,27  L 57,28  L 56,28  L 56,29  L 55,29  L 55,30  L 54,30  L 54,31  L 53,31  L 53,34  L 52,34  L 52,36  L 51,36  L 51,38  L 50,38  L 50,40  L 49,40  L 49,41  L 48,41  L 48,42  L 45,42  L 45,41  L 43,41  L 43,40  L 42,40  L 42,39  L 39,39  L 39,38  L 37,38  L 37,37  L 33,37  L 33,36  L 32,36  L 32,35  L 30,35  L 30,34  L 29,34  L 29,33  L 27,33  L 27,32  L 26,32  L 26,31  L 25,31  L 25,30  L 24,30  L 24,29  L 23,29  L 23,28  L 22,28  L 22,27  L 23,27  L 23,25  L 24,25  L 24,22  L 25,22  L 25,21  L 26,21  L 26,19  L 27,19  L 27,17  L 29,17  L 29,16  L 30,16  L 30,15  L 31,15  L 31,14  L 32,14  L 32,13  L 33,13  L 33,12  L 34,12  L 34,11  L 35,11  L 35,9  L 36,9  L 36,7  L 37,7  L 37,6  L 38,6  L 38,3  L 37,3  L 37,2  L 36,2  L 36,1  L 33,1  L 33,2  L 31,2  L 31,3  L 30,3  L 30,6  L 29,6  L 29,8  L 28,8  L 28,9  L 27,9  L 27,10  L 26,10  L 26,12  L 25,12  L 25,13  L 24,13  L 24,14  L 23,14  L 23,15  L 22,15  L 22,16  L 21,16  L 21,17  L 20,17  L 20,19  L 19,19  L 19,20  L 18,20  L 18,21  L 17,21  L 17,23  L 16,23  L 16,24  L 15,24  L 15,25  L 14,25  L 14,27  L 13,27  L 13,28  L 12,28  L 12,30  L 11,30  L 11,32  L 10,32  L 10,33  L 9,33  L 9,35  L 8,35  L 8,37  L 7,37  L 7,38  L 6,38  L 6,40  L 5,40  L 5,42  L 4,42  L 4,44  L 3,44  L 3,45  L 2,45  L 2,47  L 1,47  L 1,49  L 2,49  L 2,50  L 3,50  L 3,51  L 4,51  L 4,52  L 7,52  L 7,51  L 8,51  L 8,50  L 9,50  L 9,48  L 10,48  L 10,45  L 11,45  L 11,43  L 12,43  L 12,42  L 13,42  L 13,41  L 14,41  L 14,40  L 15,40  L 15,38  L 17,38  L 17,37  L 18,37  L 18,35  L 20,35  L 20,36  L 21,36  L 21,37  L 22,37  L 22,38  L 23,38  L 23,39  L 25,39  L 25,40  L 26,40  L 26,41  L 28,41  L 28,42  L 30,42  L 30,43  L 33,43  L 33,44  L 36,44  L 36,45  L 38,45  L 38,46  L 40,46  L 40,47  L 42,47  L 42,48  L 43,48  L 43,54  L 44,54  L 44,57  L 45,57  L 45,65  L 46,65  L 46,75  L 47,75  L 47,79  L 44,79  L 44,80  L 41,80  L 41,79  L 40,79  L 40,80  L 35,80  L 35,81  L 34,81  L 34,80  L 33,80  L 33,81  L 27,81  L 27,82  L 23,82  L 23,83  L 16,83  L 16,84  L 13,84  L 13,85  L 7,85  L 7,86  L 3,86  L 3,87  L 2,87  L 2,86  L 1,86  L 1,87  L 0,87  L 0,90  L 1,90  L 1,91  L 3,91  L 3,92  L 5,92  L 5,93  L 11,93  L 11,92  L 12,92  L 12,91  L 16,91  L 16,90  L 25,90  L 25,89  L 31,89  L 31,88  L 32,88  L 32,89  L 33,89  L 33,88  L 36,88  L 36,89  L 37,89  L 37,88  L 40,88  L 40,87  L 41,87  L 41,88  L 42,88  L 42,87  L 53,87  L 53,88  L 60,88  L 60,89  L 61,89  L 61,88  L 64,88  L 64,89  L 65,89  L 65,88  L 68,88  L 68,89  L 69,89  L 69,88  L 72,88  L 72,89  L 73,89  L 73,88  L 76,88  L 76,89  L 77,89  L 77,88  L 79,88  L 79,89  L 82,89  L 82,88  L 83,88  L 83,89  L 85,89  L 85,88  L 87,88  L 87,89  L 89,89  L 89,88  L 91,88  L 91,89  L 93,89  L 93,88  L 97,88  L 97,87  L 98,87  L 98,86  L 99,86  L 99,85  L 100,85  L 100,84  L 101,84  L 101,79  L 92,79  L 92,80  L 61,80  L 61,79  L 60,79  L 60,80  L 59,80  L 59,79  L 58,79  L 58,80  L 57,80  L 57,79  L 55,79  Z  " style="fill:rgb(0, 0, 0); fill-opacity:1.000; stroke:none;" />
 <path d="  M 68,166  L 68,165  L 73,165  L 73,164  L 77,164  L 77,163  L 80,163  L 80,162  L 84,162  L 84,161  L 85,161  L 85,160  L 88,160  L 88,159  L 90,159  L 90,158  L 92,158  L 92,157  L 94,157  L 94,156  L 95,156  L 95,155  L 96,155  L 96,154  L 97,154  L 97,153  L 98,153  L 98,150  L 96,150  L 96,149  L 93,149  L 93,150  L 92,150  L 92,151  L 90,151  L 90,152  L 87,152  L 87,153  L 84,153  L 84,154  L 80,154  L 80,155  L 76,155  L 76,156  L 73,156  L 73,157  L 69,157  L 69,158  L 64,158  L 64,159  L 58,159  L 58,160  L 57,160  L 57,159  L 56,159  L 56,160  L 41,160  L 41,159  L 40,159  L 40,160  L 38,160  L 38,159  L 35,159  L 35,158  L 31,158  L 31,157  L 30,157  L 30,156  L 27,156  L 27,155  L 26,155  L 26,153  L 25,153  L 25,150  L 24,150  L 24,148  L 25,148  L 25,147  L 24,147  L 24,146  L 25,146  L 25,144  L 27,144  L 27,143  L 50,143  L 50,142  L 52,142  L 52,141  L 56,141  L 56,140  L 58,140  L 58,139  L 60,139  L 60,137  L 61,137  L 61,136  L 62,136  L 62,134  L 63,134  L 63,131  L 64,131  L 64,128  L 65,128  L 65,127  L 66,127  L 66,126  L 67,126  L 67,125  L 69,125  L 69,124  L 70,124  L 70,123  L 72,123  L 72,122  L 75,122  L 75,121  L 78,121  L 78,120  L 79,120  L 79,116  L 78,116  L 78,115  L 77,115  L 77,112  L 76,112  L 76,111  L 75,111  L 75,110  L 74,110  L 74,108  L 73,108  L 73,107  L 71,107  L 71,106  L 69,106  L 69,105  L 68,105  L 68,104  L 65,104  L 65,103  L 63,103  L 63,102  L 60,102  L 60,101  L 58,101  L 58,100  L 45,100  L 45,101  L 38,101  L 38,102  L 33,102  L 33,103  L 31,103  L 31,102  L 28,102  L 28,103  L 26,103  L 26,104  L 25,104  L 25,105  L 24,105  L 24,107  L 23,107  L 23,109  L 24,109  L 24,111  L 25,111  L 25,113  L 29,113  L 29,112  L 31,112  L 31,111  L 34,111  L 34,110  L 38,110  L 38,109  L 42,109  L 42,108  L 43,108  L 43,109  L 44,109  L 44,108  L 57,108  L 57,109  L 60,109  L 60,110  L 62,110  L 62,111  L 63,111  L 63,112  L 65,112  L 65,113  L 66,113  L 66,115  L 68,115  L 68,118  L 65,118  L 65,119  L 63,119  L 63,120  L 61,120  L 61,121  L 59,121  L 59,122  L 58,122  L 58,123  L 57,123  L 57,125  L 56,125  L 56,126  L 55,126  L 55,127  L 54,127  L 54,128  L 53,128  L 53,130  L 52,130  L 52,132  L 49,132  L 49,133  L 46,133  L 46,134  L 41,134  L 41,135  L 36,135  L 36,136  L 33,136  L 33,135  L 32,135  L 32,136  L 29,136  L 29,135  L 24,135  L 24,136  L 22,136  L 22,137  L 21,137  L 21,138  L 20,138  L 20,139  L 19,139  L 19,142  L 18,142  L 18,148  L 17,148  L 17,149  L 18,149  L 18,150  L 17,150  L 17,151  L 18,151  L 18,154  L 19,154  L 19,156  L 20,156  L 20,158  L 21,158  L 21,159  L 22,159  L 22,160  L 23,160  L 23,163  L 26,163  L 26,164  L 28,164  L 28,165  L 31,165  L 31,166  Z  " style="fill:rgb(0, 0, 0); fill-opacity:1.000; stroke:none;" />
</svg>
