<?xml version="1.0" encoding="UTF-8" standalone="no"?>
<!DOCTYPE svg PUBLIC "-//W3C//DTD SVG 1.1//EN" 
  "http://www.w3.org/Graphics/SVG/1.1/DTD/svg11.dtd">
<svg width="100" height="154"
     xmlns="http://www.w3.org/2000/svg" version="1.1">
 <path d="  M 6,104  L 5,104  L 5,108  L 4,108  L 4,111  L 5,111  L 5,115  L 7,115  L 7,113  L 9,113  L 9,112  L 10,112  L 10,111  L 11,111  L 11,110  L 12,110  L 12,109  L 13,109  L 13,108  L 15,108  L 15,107  L 16,107  L 16,106  L 18,106  L 18,105  L 21,105  L 21,104  L 22,104  L 22,105  L 29,105  L 29,106  L 31,106  L 31,107  L 33,107  L 33,108  L 34,108  L 34,109  L 36,109  L 36,110  L 37,110  L 37,111  L 38,111  L 38,116  L 37,116  L 37,117  L 35,117  L 35,118  L 34,118  L 34,119  L 33,119  L 33,120  L 31,120  L 31,121  L 28,121  L 28,122  L 24,122  L 24,123  L 21,123  L 21,124  L 19,124  L 19,125  L 17,125  L 17,126  L 14,126  L 14,127  L 9,127  L 9,128  L 4,128  L 4,129  L 3,129  L 3,130  L 2,130  L 2,133  L 1,133  L 1,141  L 2,141  L 2,146  L 3,146  L 3,147  L 4,147  L 4,149  L 5,149  L 5,151  L 6,151  L 6,152  L 7,152  L 7,153  L 10,153  L 10,154  L 40,154  L 40,153  L 45,153  L 45,152  L 54,152  L 54,151  L 56,151  L 56,150  L 57,150  L 57,148  L 58,148  L 58,147  L 57,147  L 57,145  L 56,145  L 56,143  L 55,143  L 55,142  L 53,142  L 53,143  L 50,143  L 50,144  L 48,144  L 48,145  L 47,145  L 47,146  L 43,146  L 43,147  L 36,147  L 36,148  L 35,148  L 35,147  L 34,147  L 34,148  L 33,148  L 33,147  L 32,147  L 32,148  L 19,148  L 19,149  L 17,149  L 17,148  L 13,148  L 13,147  L 11,147  L 11,146  L 10,146  L 10,144  L 9,144  L 9,136  L 10,136  L 10,135  L 11,135  L 11,134  L 13,134  L 13,133  L 15,133  L 15,132  L 16,132  L 16,133  L 17,133  L 17,132  L 19,132  L 19,131  L 21,131  L 21,130  L 24,130  L 24,129  L 27,129  L 27,128  L 29,128  L 29,127  L 33,127  L 33,126  L 36,126  L 36,125  L 37,125  L 37,124  L 38,124  L 38,123  L 39,123  L 39,122  L 40,122  L 40,121  L 41,121  L 41,120  L 42,120  L 42,119  L 44,119  L 44,117  L 45,117  L 45,116  L 46,116  L 46,110  L 45,110  L 45,109  L 44,109  L 44,108  L 43,108  L 43,107  L 42,107  L 42,105  L 40,105  L 40,104  L 39,104  L 39,103  L 37,103  L 37,102  L 36,102  L 36,101  L 33,101  L 33,100  L 30,100  L 30,99  L 25,99  L 25,98  L 24,98  L 24,99  L 23,99  L 23,98  L 20,98  L 20,99  L 17,99  L 17,100  L 16,100  L 16,99  L 15,99  L 15,100  L 8,100  L 8,101  L 7,101  L 7,102  L 6,102  Z  " style="fill:rgb(0, 0, 0); fill-opacity:1.000; stroke:none;" />
 <path d="  M 55,76  L 55,66  L 54,66  L 54,65  L 55,65  L 55,62  L 54,62  L 54,56  L 53,56  L 53,44  L 54,44  L 54,42  L 55,42  L 55,41  L 56,41  L 56,40  L 57,40  L 57,38  L 58,38  L 58,37  L 59,37  L 59,35  L 60,35  L 60,34  L 62,34  L 62,33  L 63,33  L 63,31  L 64,31  L 64,29  L 65,29  L 65,28  L 66,28  L 66,27  L 67,27  L 67,28  L 69,28  L 69,29  L 71,29  L 71,30  L 72,30  L 72,29  L 73,29  L 73,30  L 78,30  L 78,31  L 81,31  L 81,32  L 83,32  L 83,33  L 85,33  L 85,34  L 88,34  L 88,35  L 89,35  L 89,36  L 90,36  L 90,37  L 92,37  L 92,38  L 93,38  L 93,39  L 98,39  L 98,38  L 99,38  L 99,35  L 98,35  L 98,34  L 97,34  L 97,33  L 96,33  L 96,32  L 94,32  L 94,31  L 92,31  L 92,30  L 91,30  L 91,29  L 88,29  L 88,28  L 86,28  L 86,27  L 84,27  L 84,26  L 81,26  L 81,25  L 79,25  L 79,24  L 77,24  L 77,23  L 74,23  L 74,22  L 72,22  L 72,21  L 71,21  L 71,17  L 72,17  L 72,15  L 73,15  L 73,14  L 74,14  L 74,12  L 75,12  L 75,9  L 76,9  L 76,4  L 75,4  L 75,2  L 74,2  L 74,1  L 71,1  L 71,2  L 70,2  L 70,8  L 69,8  L 69,10  L 68,10  L 68,12  L 67,12  L 67,13  L 66,13  L 66,16  L 65,16  L 65,17  L 64,17  L 64,18  L 63,18  L 63,20  L 62,20  L 62,22  L 61,22  L 61,23  L 60,23  L 60,25  L 59,25  L 59,27  L 58,27  L 58,28  L 57,28  L 57,30  L 56,30  L 56,31  L 55,31  L 55,33  L 54,33  L 54,35  L 53,35  L 53,37  L 52,37  L 52,38  L 51,38  L 51,39  L 50,39  L 50,40  L 49,40  L 49,41  L 46,41  L 46,40  L 44,40  L 44,39  L 42,39  L 42,38  L 40,38  L 40,37  L 38,37  L 38,36  L 36,36  L 36,35  L 35,35  L 35,34  L 33,34  L 33,33  L 31,33  L 31,32  L 30,32  L 30,31  L 28,31  L 28,30  L 26,30  L 26,28  L 27,28  L 27,26  L 26,26  L 26,25  L 27,25  L 27,23  L 28,23  L 28,20  L 29,20  L 29,19  L 30,19  L 30,17  L 31,17  L 31,16  L 32,16  L 32,15  L 33,15  L 33,13  L 34,13  L 34,12  L 35,12  L 35,11  L 36,11  L 36,10  L 37,10  L 37,9  L 38,9  L 38,7  L 39,7  L 39,1  L 34,1  L 34,4  L 33,4  L 33,6  L 32,6  L 32,8  L 31,8  L 31,9  L 30,9  L 30,10  L 29,10  L 29,11  L 28,11  L 28,12  L 27,12  L 27,13  L 26,13  L 26,15  L 25,15  L 25,16  L 24,16  L 24,18  L 23,18  L 23,19  L 22,19  L 22,21  L 21,21  L 21,23  L 20,23  L 20,25  L 19,25  L 19,27  L 18,27  L 18,29  L 17,29  L 17,31  L 16,31  L 16,32  L 15,32  L 15,34  L 14,34  L 14,36  L 13,36  L 13,38  L 12,38  L 12,39  L 11,39  L 11,40  L 10,40  L 10,42  L 9,42  L 9,43  L 8,43  L 8,44  L 7,44  L 7,45  L 6,45  L 6,47  L 5,47  L 5,52  L 6,52  L 6,53  L 7,53  L 7,54  L 8,54  L 8,53  L 10,53  L 10,51  L 11,51  L 11,49  L 12,49  L 12,48  L 13,48  L 13,47  L 14,47  L 14,45  L 15,45  L 15,43  L 16,43  L 16,42  L 17,42  L 17,40  L 18,40  L 18,39  L 19,39  L 19,37  L 20,37  L 20,36  L 21,36  L 21,35  L 22,35  L 22,34  L 25,34  L 25,35  L 26,35  L 26,36  L 27,36  L 27,37  L 28,37  L 28,38  L 30,38  L 30,39  L 32,39  L 32,40  L 33,40  L 33,41  L 34,41  L 34,42  L 36,42  L 36,43  L 38,43  L 38,44  L 39,44  L 39,45  L 43,45  L 43,46  L 44,46  L 44,47  L 45,47  L 45,50  L 46,50  L 46,57  L 47,57  L 47,69  L 48,69  L 48,77  L 47,77  L 47,78  L 38,78  L 38,79  L 37,79  L 37,78  L 36,78  L 36,79  L 33,79  L 33,78  L 32,78  L 32,79  L 30,79  L 30,80  L 26,80  L 26,81  L 25,81  L 25,80  L 22,80  L 22,81  L 15,81  L 15,82  L 3,82  L 3,83  L 2,83  L 2,85  L 3,85  L 3,86  L 4,86  L 4,87  L 5,87  L 5,88  L 8,88  L 8,89  L 9,89  L 9,88  L 19,88  L 19,87  L 28,87  L 28,86  L 33,86  L 33,85  L 39,85  L 39,84  L 41,84  L 41,85  L 42,85  L 42,84  L 61,84  L 61,83  L 63,83  L 63,84  L 64,84  L 64,83  L 67,83  L 67,84  L 68,84  L 68,83  L 71,83  L 71,84  L 72,84  L 72,83  L 100,83  L 100,76  L 86,76  L 86,77  L 85,77  L 85,76  L 82,76  L 82,77  L 81,77  L 81,76  L 78,76  L 78,77  L 77,77  L 77,76  L 76,76  L 76,77  L 73,77  L 73,76  L 71,76  L 71,77  L 69,77  L 69,76  L 68,76  L 68,77  L 65,77  L 65,76  L 64,76  L 64,77  L 61,77  L 61,76  L 60,76  L 60,77  L 56,77  L 56,76  Z  " style="fill:rgb(0, 0, 0); fill-opacity:1.000; stroke:none;" />
 <path d="  M 91,129  L 90,129  L 90,133  L 89,133  L 89,137  L 88,137  L 88,138  L 87,138  L 87,141  L 86,141  L 86,144  L 85,144  L 85,145  L 84,145  L 84,146  L 80,146  L 80,147  L 70,147  L 70,148  L 68,148  L 68,147  L 67,147  L 67,133  L 66,133  L 66,124  L 65,124  L 65,123  L 66,123  L 66,122  L 65,122  L 65,121  L 66,121  L 66,120  L 65,120  L 65,119  L 66,119  L 66,118  L 65,118  L 65,115  L 66,115  L 66,110  L 70,110  L 70,109  L 72,109  L 72,110  L 73,110  L 73,109  L 80,109  L 80,110  L 81,110  L 81,109  L 82,109  L 82,110  L 83,110  L 83,109  L 84,109  L 84,110  L 85,110  L 85,109  L 86,109  L 86,110  L 87,110  L 87,109  L 88,109  L 88,110  L 89,110  L 89,109  L 90,109  L 90,110  L 91,110  L 91,111  L 93,111  L 93,117  L 92,117  L 92,126  L 91,126  Z  M 62,153  L 85,153  L 85,152  L 88,152  L 88,151  L 89,151  L 89,150  L 91,150  L 91,147  L 92,147  L 92,146  L 93,146  L 93,144  L 94,144  L 94,140  L 95,140  L 95,137  L 96,137  L 96,133  L 97,133  L 97,130  L 98,130  L 98,125  L 99,125  L 99,121  L 100,121  L 100,107  L 99,107  L 99,106  L 98,106  L 98,105  L 97,105  L 97,104  L 95,104  L 95,103  L 89,103  L 89,102  L 88,102  L 88,103  L 86,103  L 86,102  L 84,102  L 84,103  L 81,103  L 81,102  L 80,102  L 80,103  L 79,103  L 79,102  L 66,102  L 66,103  L 65,103  L 65,102  L 64,102  L 64,103  L 62,103  L 62,104  L 61,104  L 61,105  L 60,105  L 60,106  L 59,106  L 59,109  L 58,109  L 58,125  L 59,125  L 59,131  L 60,131  L 60,135  L 61,135  L 61,138  L 60,138  L 60,139  L 61,139  L 61,151  L 62,151  Z  " style="fill:rgb(0, 0, 0); fill-opacity:1.000; stroke:none;" />
</svg>
