<?xml version="1.0" encoding="UTF-8" standalone="no"?>
<!DOCTYPE svg PUBLIC "-//W3C//DTD SVG 1.1//EN" 
  "http://www.w3.org/Graphics/SVG/1.1/DTD/svg11.dtd">
<svg width="100" height="155"
     xmlns="http://www.w3.org/2000/svg" version="1.1">
 <path d="  M 24,5  L 23,5  L 23,6  L 22,6  L 22,7  L 21,7  L 21,9  L 20,9  L 20,11  L 19,11  L 19,12  L 18,12  L 18,14  L 17,14  L 17,16  L 16,16  L 16,17  L 15,17  L 15,19  L 14,19  L 14,21  L 13,21  L 13,23  L 12,23  L 12,25  L 11,25  L 11,27  L 10,27  L 10,29  L 9,29  L 9,32  L 8,32  L 8,34  L 7,34  L 7,36  L 6,36  L 6,38  L 5,38  L 5,40  L 4,40  L 4,42  L 3,42  L 3,43  L 2,43  L 2,45  L 1,45  L 1,47  L 0,47  L 0,51  L 1,51  L 1,53  L 2,53  L 2,54  L 4,54  L 4,53  L 5,53  L 5,52  L 6,52  L 6,48  L 7,48  L 7,47  L 8,47  L 8,45  L 9,45  L 9,43  L 10,43  L 10,41  L 11,41  L 11,39  L 12,39  L 12,38  L 13,38  L 13,36  L 14,36  L 14,35  L 15,35  L 15,33  L 17,33  L 17,32  L 19,32  L 19,34  L 20,34  L 20,35  L 22,35  L 22,36  L 23,36  L 23,37  L 24,37  L 24,38  L 26,38  L 26,39  L 28,39  L 28,40  L 30,40  L 30,41  L 31,41  L 31,42  L 33,42  L 33,43  L 35,43  L 35,44  L 37,44  L 37,45  L 38,45  L 38,46  L 39,46  L 39,49  L 40,49  L 40,52  L 41,52  L 41,53  L 40,53  L 40,56  L 41,56  L 41,58  L 42,58  L 42,62  L 43,62  L 43,65  L 44,65  L 44,66  L 43,66  L 43,68  L 44,68  L 44,74  L 45,74  L 45,79  L 36,79  L 36,80  L 30,80  L 30,81  L 24,81  L 24,82  L 19,82  L 19,83  L 12,83  L 12,84  L 6,84  L 6,85  L 3,85  L 3,86  L 2,86  L 2,88  L 1,88  L 1,89  L 2,89  L 2,91  L 3,91  L 3,92  L 6,92  L 6,91  L 12,91  L 12,90  L 19,90  L 19,89  L 24,89  L 24,88  L 29,88  L 29,87  L 30,87  L 30,88  L 32,88  L 32,87  L 41,87  L 41,86  L 53,86  L 53,85  L 54,85  L 54,86  L 55,86  L 55,85  L 77,85  L 77,84  L 78,84  L 78,85  L 79,85  L 79,84  L 96,84  L 96,83  L 97,83  L 97,82  L 99,82  L 99,81  L 100,81  L 100,75  L 96,75  L 96,76  L 92,76  L 92,77  L 86,77  L 86,78  L 53,78  L 53,77  L 52,77  L 52,71  L 51,71  L 51,66  L 50,66  L 50,65  L 51,65  L 51,64  L 50,64  L 50,61  L 49,61  L 49,57  L 48,57  L 48,44  L 49,44  L 49,42  L 50,42  L 50,41  L 51,41  L 51,40  L 52,40  L 52,38  L 53,38  L 53,36  L 54,36  L 54,34  L 55,34  L 55,33  L 56,33  L 56,32  L 57,32  L 57,28  L 58,28  L 58,27  L 59,27  L 59,26  L 61,26  L 61,25  L 63,25  L 63,26  L 65,26  L 65,28  L 69,28  L 69,29  L 72,29  L 72,30  L 74,30  L 74,31  L 77,31  L 77,32  L 78,32  L 78,33  L 81,33  L 81,34  L 83,34  L 83,35  L 85,35  L 85,36  L 86,36  L 86,37  L 90,37  L 90,38  L 95,38  L 95,37  L 96,37  L 96,36  L 97,36  L 97,34  L 96,34  L 96,33  L 95,33  L 95,32  L 92,32  L 92,31  L 89,31  L 89,30  L 87,30  L 87,29  L 84,29  L 84,28  L 82,28  L 82,27  L 80,27  L 80,26  L 78,26  L 78,25  L 76,25  L 76,24  L 74,24  L 74,23  L 71,23  L 71,22  L 69,22  L 69,21  L 68,21  L 68,20  L 67,20  L 67,19  L 66,19  L 66,16  L 67,16  L 67,14  L 68,14  L 68,12  L 69,12  L 69,10  L 70,10  L 70,3  L 69,3  L 69,2  L 68,2  L 68,0  L 65,0  L 65,1  L 64,1  L 64,7  L 63,7  L 63,9  L 62,9  L 62,11  L 61,11  L 61,13  L 60,13  L 60,15  L 59,15  L 59,16  L 58,16  L 58,17  L 57,17  L 57,19  L 56,19  L 56,20  L 55,20  L 55,22  L 54,22  L 54,23  L 53,23  L 53,25  L 52,25  L 52,26  L 51,26  L 51,28  L 50,28  L 50,29  L 49,29  L 49,31  L 48,31  L 48,33  L 47,33  L 47,36  L 46,36  L 46,38  L 45,38  L 45,39  L 42,39  L 42,38  L 37,38  L 37,37  L 35,37  L 35,36  L 34,36  L 34,35  L 32,35  L 32,34  L 30,34  L 30,33  L 28,33  L 28,32  L 27,32  L 27,31  L 26,31  L 26,30  L 25,30  L 25,29  L 24,29  L 24,28  L 23,28  L 23,27  L 22,27  L 22,26  L 21,26  L 21,25  L 20,25  L 20,24  L 21,24  L 21,20  L 22,20  L 22,18  L 23,18  L 23,16  L 24,16  L 24,14  L 25,14  L 25,12  L 26,12  L 26,10  L 27,10  L 27,9  L 28,9  L 28,8  L 29,8  L 29,6  L 30,6  L 30,4  L 31,4  L 31,2  L 30,2  L 30,1  L 29,1  L 29,0  L 26,0  L 26,1  L 25,1  L 25,3  L 24,3  Z  " style="fill:rgb(0, 0, 0); fill-opacity:1.000; stroke:none;" />
 <path d="  M 83,101  L 83,100  L 81,100  L 81,99  L 79,99  L 79,98  L 68,98  L 68,99  L 60,99  L 60,100  L 53,100  L 53,101  L 48,101  L 48,102  L 41,102  L 41,103  L 34,103  L 34,104  L 32,104  L 32,103  L 30,103  L 30,102  L 29,102  L 29,101  L 27,101  L 27,100  L 26,100  L 26,101  L 24,101  L 24,102  L 22,102  L 22,103  L 19,103  L 19,104  L 17,104  L 17,105  L 16,105  L 16,107  L 15,107  L 15,110  L 17,110  L 17,111  L 22,111  L 22,130  L 21,130  L 21,131  L 22,131  L 22,134  L 21,134  L 21,135  L 22,135  L 22,149  L 23,149  L 23,151  L 24,151  L 24,152  L 25,152  L 25,153  L 27,153  L 27,154  L 29,154  L 29,155  L 43,155  L 43,154  L 46,154  L 46,153  L 49,153  L 49,152  L 52,152  L 52,151  L 55,151  L 55,150  L 58,150  L 58,149  L 61,149  L 61,148  L 65,148  L 65,147  L 68,147  L 68,146  L 71,146  L 71,145  L 73,145  L 73,144  L 74,144  L 74,143  L 75,143  L 75,141  L 76,141  L 76,140  L 77,140  L 77,137  L 78,137  L 78,134  L 79,134  L 79,132  L 80,132  L 80,129  L 81,129  L 81,126  L 82,126  L 82,121  L 83,121  L 83,118  L 84,118  L 84,117  L 83,117  L 83,116  L 84,116  L 84,111  L 85,111  L 85,106  L 86,106  L 86,104  L 85,104  L 85,102  L 84,102  L 84,101  Z  M 37,149  L 37,150  L 30,150  L 30,147  L 29,147  L 29,114  L 30,114  L 30,111  L 36,111  L 36,110  L 40,110  L 40,109  L 48,109  L 48,108  L 56,108  L 56,107  L 61,107  L 61,106  L 62,106  L 62,107  L 63,107  L 63,106  L 68,106  L 68,105  L 75,105  L 75,104  L 77,104  L 77,105  L 78,105  L 78,108  L 79,108  L 79,109  L 78,109  L 78,113  L 77,113  L 77,119  L 76,119  L 76,124  L 75,124  L 75,128  L 74,128  L 74,130  L 73,130  L 73,133  L 72,133  L 72,135  L 71,135  L 71,137  L 70,137  L 70,139  L 69,139  L 69,140  L 67,140  L 67,141  L 65,141  L 65,142  L 61,142  L 61,143  L 58,143  L 58,144  L 54,144  L 54,145  L 52,145  L 52,146  L 48,146  L 48,147  L 44,147  L 44,148  L 40,148  L 40,149  Z  " style="fill:rgb(0, 0, 0); fill-opacity:1.000; stroke:none;" />
</svg>
