<?xml version="1.0" encoding="UTF-8" standalone="no"?>
<!DOCTYPE svg PUBLIC "-//W3C//DTD SVG 1.1//EN" 
  "http://www.w3.org/Graphics/SVG/1.1/DTD/svg11.dtd">
<svg width="104" height="174"
     xmlns="http://www.w3.org/2000/svg" version="1.1">
 <path d="  M 16,93  L 16,92  L 24,92  L 24,91  L 27,91  L 27,90  L 31,90  L 31,89  L 33,89  L 33,88  L 36,88  L 36,89  L 37,89  L 37,88  L 43,88  L 43,87  L 44,87  L 44,88  L 46,88  L 46,87  L 59,87  L 59,86  L 60,86  L 60,87  L 62,87  L 62,86  L 65,86  L 65,87  L 66,87  L 66,86  L 73,86  L 73,85  L 74,85  L 74,86  L 75,86  L 75,85  L 87,85  L 87,84  L 88,84  L 88,85  L 89,85  L 89,84  L 90,84  L 90,85  L 91,85  L 91,84  L 92,84  L 92,85  L 93,85  L 93,84  L 94,84  L 94,85  L 95,85  L 95,84  L 98,84  L 98,85  L 99,85  L 99,84  L 102,84  L 102,83  L 103,83  L 103,82  L 104,82  L 104,77  L 90,77  L 90,78  L 78,78  L 78,79  L 75,79  L 75,78  L 74,78  L 74,79  L 62,79  L 62,80  L 61,80  L 61,79  L 58,79  L 58,80  L 56,80  L 56,79  L 55,79  L 55,76  L 54,76  L 54,75  L 55,75  L 55,74  L 54,74  L 54,64  L 53,64  L 53,58  L 52,58  L 52,47  L 53,47  L 53,45  L 54,45  L 54,44  L 55,44  L 55,42  L 56,42  L 56,41  L 57,41  L 57,39  L 58,39  L 58,38  L 59,38  L 59,36  L 60,36  L 60,35  L 61,35  L 61,32  L 62,32  L 62,31  L 61,31  L 61,30  L 62,30  L 62,29  L 64,29  L 64,28  L 66,28  L 66,29  L 67,29  L 67,30  L 68,30  L 68,31  L 69,31  L 69,30  L 71,30  L 71,31  L 74,31  L 74,32  L 75,32  L 75,33  L 77,33  L 77,34  L 80,34  L 80,35  L 83,35  L 83,36  L 84,36  L 84,37  L 86,37  L 86,38  L 88,38  L 88,39  L 90,39  L 90,40  L 91,40  L 91,41  L 93,41  L 93,42  L 94,42  L 94,43  L 97,43  L 97,42  L 98,42  L 98,40  L 99,40  L 99,38  L 98,38  L 98,37  L 97,37  L 97,36  L 96,36  L 96,35  L 94,35  L 94,34  L 92,34  L 92,33  L 90,33  L 90,32  L 88,32  L 88,31  L 86,31  L 86,30  L 85,30  L 85,29  L 82,29  L 82,28  L 80,28  L 80,27  L 78,27  L 78,26  L 75,26  L 75,25  L 72,25  L 72,24  L 71,24  L 71,23  L 70,23  L 70,19  L 71,19  L 71,17  L 72,17  L 72,15  L 73,15  L 73,14  L 74,14  L 74,12  L 75,12  L 75,9  L 76,9  L 76,8  L 75,8  L 75,3  L 74,3  L 74,2  L 73,2  L 73,1  L 70,1  L 70,2  L 69,2  L 69,4  L 68,4  L 68,11  L 67,11  L 67,13  L 66,13  L 66,15  L 65,15  L 65,17  L 64,17  L 64,19  L 63,19  L 63,21  L 62,21  L 62,22  L 61,22  L 61,23  L 60,23  L 60,24  L 59,24  L 59,26  L 58,26  L 58,27  L 57,27  L 57,28  L 56,28  L 56,30  L 55,30  L 55,32  L 54,32  L 54,34  L 53,34  L 53,35  L 52,35  L 52,36  L 51,36  L 51,38  L 50,38  L 50,40  L 49,40  L 49,41  L 48,41  L 48,42  L 45,42  L 45,41  L 44,41  L 44,40  L 41,40  L 41,39  L 39,39  L 39,38  L 36,38  L 36,37  L 33,37  L 33,36  L 31,36  L 31,35  L 30,35  L 30,34  L 29,34  L 29,33  L 28,33  L 28,32  L 27,32  L 27,31  L 25,31  L 25,29  L 24,29  L 24,28  L 23,28  L 23,27  L 24,27  L 24,24  L 25,24  L 25,22  L 26,22  L 26,21  L 27,21  L 27,19  L 28,19  L 28,17  L 30,17  L 30,16  L 31,16  L 31,14  L 32,14  L 32,13  L 33,13  L 33,12  L 34,12  L 34,11  L 35,11  L 35,9  L 36,9  L 36,7  L 37,7  L 37,4  L 38,4  L 38,2  L 37,2  L 37,1  L 35,1  L 35,0  L 34,0  L 34,1  L 31,1  L 31,3  L 30,3  L 30,6  L 29,6  L 29,8  L 28,8  L 28,10  L 27,10  L 27,11  L 26,11  L 26,12  L 25,12  L 25,14  L 24,14  L 24,15  L 23,15  L 23,17  L 22,17  L 22,18  L 21,18  L 21,19  L 20,19  L 20,21  L 19,21  L 19,22  L 18,22  L 18,23  L 17,23  L 17,25  L 16,25  L 16,26  L 15,26  L 15,29  L 14,29  L 14,30  L 13,30  L 13,32  L 12,32  L 12,34  L 11,34  L 11,36  L 10,36  L 10,38  L 9,38  L 9,40  L 8,40  L 8,41  L 7,41  L 7,43  L 6,43  L 6,44  L 5,44  L 5,46  L 4,46  L 4,47  L 3,47  L 3,52  L 4,52  L 4,54  L 5,54  L 5,55  L 8,55  L 8,51  L 9,51  L 9,50  L 10,50  L 10,48  L 11,48  L 11,47  L 12,47  L 12,45  L 13,45  L 13,43  L 14,43  L 14,42  L 15,42  L 15,40  L 16,40  L 16,39  L 17,39  L 17,37  L 19,37  L 19,35  L 21,35  L 21,36  L 22,36  L 22,37  L 23,37  L 23,38  L 24,38  L 24,39  L 26,39  L 26,40  L 27,40  L 27,41  L 29,41  L 29,42  L 32,42  L 32,43  L 33,43  L 33,44  L 35,44  L 35,45  L 37,45  L 37,46  L 38,46  L 38,45  L 39,45  L 39,46  L 41,46  L 41,47  L 43,47  L 43,51  L 44,51  L 44,54  L 45,54  L 45,60  L 46,60  L 46,71  L 47,71  L 47,77  L 48,77  L 48,81  L 45,81  L 45,82  L 32,82  L 32,83  L 31,83  L 31,82  L 30,82  L 30,83  L 27,83  L 27,84  L 22,84  L 22,85  L 15,85  L 15,86  L 10,86  L 10,87  L 4,87  L 4,88  L 1,88  L 1,90  L 0,90  L 0,93  L 3,93  L 3,94  L 4,94  L 4,93  Z  " style="fill:rgb(0, 0, 0); fill-opacity:1.000; stroke:none;" />
 <path d="  M 83,100  L 82,100  L 82,99  L 81,99  L 81,98  L 77,98  L 77,122  L 78,122  L 78,126  L 77,126  L 77,128  L 76,128  L 76,129  L 71,129  L 71,130  L 68,130  L 68,131  L 66,131  L 66,132  L 65,132  L 65,131  L 64,131  L 64,132  L 63,132  L 63,131  L 62,131  L 62,132  L 57,132  L 57,133  L 49,133  L 49,134  L 47,134  L 47,133  L 45,133  L 45,134  L 44,134  L 44,133  L 38,133  L 38,134  L 37,134  L 37,133  L 36,133  L 36,132  L 35,132  L 35,131  L 34,131  L 34,132  L 33,132  L 33,131  L 30,131  L 30,129  L 29,129  L 29,128  L 28,128  L 28,125  L 29,125  L 29,119  L 30,119  L 30,113  L 31,113  L 31,107  L 32,107  L 32,101  L 33,101  L 33,99  L 34,99  L 34,98  L 33,98  L 33,96  L 32,96  L 32,95  L 28,95  L 28,96  L 26,96  L 26,98  L 25,98  L 25,101  L 24,101  L 24,107  L 23,107  L 23,110  L 22,110  L 22,111  L 23,111  L 23,114  L 22,114  L 22,115  L 23,115  L 23,117  L 22,117  L 22,155  L 23,155  L 23,158  L 22,158  L 22,159  L 23,159  L 23,164  L 24,164  L 24,167  L 25,167  L 25,169  L 26,169  L 26,171  L 27,171  L 27,172  L 28,172  L 28,173  L 29,173  L 29,174  L 46,174  L 46,173  L 51,173  L 51,172  L 54,172  L 54,171  L 61,171  L 61,170  L 65,170  L 65,169  L 67,169  L 67,168  L 69,168  L 69,167  L 71,167  L 71,166  L 72,166  L 72,165  L 74,165  L 74,164  L 75,164  L 75,162  L 77,162  L 77,159  L 78,159  L 78,152  L 79,152  L 79,147  L 80,147  L 80,143  L 81,143  L 81,142  L 80,142  L 80,141  L 81,141  L 81,139  L 82,139  L 82,138  L 81,138  L 81,137  L 82,137  L 82,134  L 83,134  L 83,131  L 84,131  L 84,127  L 85,127  L 85,126  L 84,126  L 84,111  L 83,111  Z  M 29,137  L 30,137  L 30,136  L 29,136  L 29,135  L 30,135  L 30,134  L 31,134  L 31,137  L 32,137  L 32,138  L 36,138  L 36,139  L 38,139  L 38,140  L 39,140  L 39,141  L 46,141  L 46,142  L 47,142  L 47,141  L 48,141  L 48,142  L 53,142  L 53,141  L 60,141  L 60,140  L 62,140  L 62,141  L 63,141  L 63,140  L 64,140  L 64,139  L 66,139  L 66,138  L 70,138  L 70,137  L 71,137  L 71,136  L 72,136  L 72,137  L 73,137  L 73,146  L 72,146  L 72,150  L 71,150  L 71,159  L 70,159  L 70,160  L 69,160  L 69,161  L 68,161  L 68,162  L 65,162  L 65,163  L 63,163  L 63,164  L 58,164  L 58,165  L 53,165  L 53,166  L 49,166  L 49,167  L 43,167  L 43,168  L 35,168  L 35,167  L 32,167  L 32,166  L 31,166  L 31,164  L 30,164  L 30,162  L 29,162  Z  " style="fill:rgb(0, 0, 0); fill-opacity:1.000; stroke:none;" />
</svg>
