<?xml version="1.0" encoding="UTF-8" standalone="no"?>
<!DOCTYPE svg PUBLIC "-//W3C//DTD SVG 1.1//EN" 
  "http://www.w3.org/Graphics/SVG/1.1/DTD/svg11.dtd">
<svg width="106" height="159"
     xmlns="http://www.w3.org/2000/svg" version="1.1">
 <path d="  M 56,37  L 56,33  L 57,33  L 57,31  L 58,31  L 58,32  L 59,32  L 59,33  L 60,33  L 60,35  L 61,35  L 61,36  L 62,36  L 62,37  L 63,37  L 63,38  L 65,38  L 65,40  L 67,40  L 67,41  L 68,41  L 68,42  L 69,42  L 69,43  L 71,43  L 71,44  L 72,44  L 72,46  L 74,46  L 74,47  L 75,47  L 75,48  L 77,48  L 77,50  L 78,50  L 78,51  L 79,51  L 79,52  L 80,52  L 80,54  L 82,54  L 82,55  L 85,55  L 85,54  L 86,54  L 86,53  L 88,53  L 88,51  L 89,51  L 89,50  L 87,50  L 87,49  L 86,49  L 86,48  L 85,48  L 85,47  L 84,47  L 84,45  L 83,45  L 83,44  L 82,44  L 82,43  L 80,43  L 80,42  L 79,42  L 79,41  L 77,41  L 77,40  L 76,40  L 76,39  L 75,39  L 75,38  L 73,38  L 73,37  L 72,37  L 72,36  L 71,36  L 71,35  L 70,35  L 70,34  L 69,34  L 69,33  L 68,33  L 68,32  L 67,32  L 67,31  L 66,31  L 66,29  L 65,29  L 65,28  L 64,28  L 64,25  L 63,25  L 63,23  L 62,23  L 62,20  L 63,20  L 63,17  L 64,17  L 64,14  L 65,14  L 65,12  L 66,12  L 66,10  L 67,10  L 67,3  L 66,3  L 66,2  L 62,2  L 62,3  L 61,3  L 61,6  L 60,6  L 60,9  L 59,9  L 59,11  L 58,11  L 58,14  L 57,14  L 57,17  L 56,17  L 56,19  L 55,19  L 55,21  L 54,21  L 54,23  L 53,23  L 53,26  L 52,26  L 52,29  L 51,29  L 51,31  L 50,31  L 50,33  L 49,33  L 49,35  L 48,35  L 48,37  L 47,37  L 47,40  L 46,40  L 46,41  L 43,41  L 43,40  L 39,40  L 39,39  L 38,39  L 38,38  L 35,38  L 35,37  L 33,37  L 33,36  L 32,36  L 32,35  L 29,35  L 29,34  L 27,34  L 27,33  L 26,33  L 26,32  L 24,32  L 24,31  L 23,31  L 23,25  L 24,25  L 24,23  L 25,23  L 25,21  L 26,21  L 26,20  L 27,20  L 27,19  L 28,19  L 28,17  L 29,17  L 29,16  L 30,16  L 30,14  L 31,14  L 31,13  L 32,13  L 32,11  L 33,11  L 33,10  L 34,10  L 34,8  L 35,8  L 35,6  L 36,6  L 36,5  L 37,5  L 37,1  L 36,1  L 36,0  L 34,0  L 34,1  L 33,1  L 33,2  L 32,2  L 32,3  L 30,3  L 30,5  L 29,5  L 29,7  L 28,7  L 28,8  L 27,8  L 27,10  L 26,10  L 26,12  L 25,12  L 25,13  L 24,13  L 24,14  L 23,14  L 23,16  L 22,16  L 22,18  L 21,18  L 21,19  L 20,19  L 20,20  L 19,20  L 19,22  L 18,22  L 18,25  L 17,25  L 17,27  L 16,27  L 16,29  L 15,29  L 15,30  L 14,30  L 14,32  L 13,32  L 13,34  L 12,34  L 12,35  L 11,35  L 11,37  L 10,37  L 10,39  L 9,39  L 9,40  L 8,40  L 8,41  L 7,41  L 7,43  L 6,43  L 6,45  L 5,45  L 5,46  L 4,46  L 4,48  L 3,48  L 3,50  L 2,50  L 2,51  L 1,51  L 1,58  L 2,58  L 2,60  L 5,60  L 5,58  L 6,58  L 6,56  L 7,56  L 7,54  L 8,54  L 8,51  L 9,51  L 9,49  L 10,49  L 10,48  L 11,48  L 11,46  L 12,46  L 12,44  L 13,44  L 13,43  L 14,43  L 14,41  L 15,41  L 15,40  L 16,40  L 16,38  L 17,38  L 17,37  L 18,37  L 18,36  L 21,36  L 21,38  L 23,38  L 23,39  L 25,39  L 25,40  L 27,40  L 27,41  L 28,41  L 28,42  L 30,42  L 30,43  L 32,43  L 32,44  L 35,44  L 35,45  L 37,45  L 37,46  L 41,46  L 41,47  L 42,47  L 42,51  L 41,51  L 41,53  L 40,53  L 40,56  L 41,56  L 41,59  L 40,59  L 40,60  L 41,60  L 41,65  L 42,65  L 42,71  L 43,71  L 43,80  L 44,80  L 44,83  L 32,83  L 32,84  L 29,84  L 29,83  L 28,83  L 28,84  L 20,84  L 20,85  L 19,85  L 19,84  L 18,84  L 18,85  L 12,85  L 12,86  L 3,86  L 3,87  L 1,87  L 1,89  L 2,89  L 2,92  L 3,92  L 3,93  L 4,93  L 4,94  L 5,94  L 5,93  L 9,93  L 9,92  L 13,92  L 13,91  L 20,91  L 20,90  L 29,90  L 29,89  L 30,89  L 30,90  L 31,90  L 31,89  L 34,89  L 34,90  L 35,90  L 35,89  L 38,89  L 38,90  L 39,90  L 39,89  L 44,89  L 44,90  L 45,90  L 45,89  L 46,89  L 46,90  L 49,90  L 49,89  L 50,89  L 50,90  L 57,90  L 57,89  L 69,89  L 69,88  L 77,88  L 77,87  L 78,87  L 78,88  L 81,88  L 81,87  L 82,87  L 82,88  L 85,88  L 85,87  L 88,87  L 88,86  L 89,86  L 89,87  L 90,87  L 90,86  L 91,86  L 91,82  L 90,82  L 90,81  L 89,81  L 89,80  L 81,80  L 81,81  L 72,81  L 72,82  L 63,82  L 63,83  L 52,83  L 52,82  L 51,82  L 51,77  L 50,77  L 50,69  L 49,69  L 49,64  L 48,64  L 48,54  L 49,54  L 49,50  L 50,50  L 50,48  L 51,48  L 51,44  L 52,44  L 52,43  L 53,43  L 53,41  L 54,41  L 54,39  L 55,39  L 55,37  Z  " style="fill:rgb(0, 0, 0); fill-opacity:1.000; stroke:none;" />
 <path d="  M 44,107  L 45,107  L 45,101  L 44,101  L 44,100  L 39,100  L 39,101  L 38,101  L 38,103  L 37,103  L 37,109  L 36,109  L 36,121  L 35,121  L 35,138  L 36,138  L 36,139  L 35,139  L 35,140  L 36,140  L 36,144  L 37,144  L 37,146  L 36,146  L 36,147  L 37,147  L 37,153  L 38,153  L 38,155  L 39,155  L 39,156  L 40,156  L 40,157  L 41,157  L 41,158  L 42,158  L 42,159  L 67,159  L 67,158  L 72,158  L 72,157  L 75,157  L 75,156  L 79,156  L 79,155  L 81,155  L 81,154  L 84,154  L 84,153  L 86,153  L 86,152  L 89,152  L 89,151  L 90,151  L 90,150  L 91,150  L 91,149  L 92,149  L 92,145  L 93,145  L 93,137  L 94,137  L 94,132  L 95,132  L 95,131  L 94,131  L 94,129  L 95,129  L 95,124  L 96,124  L 96,106  L 95,106  L 95,105  L 94,105  L 94,104  L 92,104  L 92,105  L 91,105  L 91,107  L 90,107  L 90,124  L 89,124  L 89,125  L 78,125  L 78,126  L 77,126  L 77,125  L 74,125  L 74,126  L 73,126  L 73,125  L 70,125  L 70,126  L 69,126  L 69,125  L 66,125  L 66,126  L 65,126  L 65,125  L 62,125  L 62,126  L 61,126  L 61,125  L 60,125  L 60,126  L 59,126  L 59,125  L 58,125  L 58,126  L 57,126  L 57,125  L 56,125  L 56,126  L 53,126  L 53,125  L 52,125  L 52,126  L 49,126  L 49,125  L 48,125  L 48,126  L 43,126  L 43,116  L 44,116  Z  M 85,132  L 85,133  L 86,133  L 86,143  L 85,143  L 85,146  L 84,146  L 84,147  L 82,147  L 82,148  L 80,148  L 80,149  L 77,149  L 77,150  L 72,150  L 72,151  L 68,151  L 68,152  L 64,152  L 64,153  L 46,153  L 46,152  L 45,152  L 45,151  L 44,151  L 44,148  L 43,148  L 43,136  L 42,136  L 42,134  L 43,134  L 43,133  L 49,133  L 49,132  L 51,132  L 51,133  L 52,133  L 52,132  Z  " style="fill:rgb(0, 0, 0); fill-opacity:1.000; stroke:none;" />
 <path d="  M 106,19  L 105,19  L 105,18  L 106,18  L 106,17  L 105,17  L 105,10  L 104,10  L 104,3  L 103,3  L 103,1  L 102,1  L 102,0  L 98,0  L 98,2  L 97,2  L 97,3  L 98,3  L 98,14  L 99,14  L 99,24  L 100,24  L 100,42  L 101,42  L 101,43  L 100,43  L 100,44  L 101,44  L 101,47  L 100,47  L 100,49  L 101,49  L 101,51  L 100,51  L 100,79  L 99,79  L 99,80  L 100,80  L 100,83  L 99,83  L 99,85  L 100,85  L 100,87  L 99,87  L 99,95  L 100,95  L 100,97  L 105,97  L 105,96  L 106,96  Z  " style="fill:rgb(0, 0, 0); fill-opacity:1.000; stroke:none;" />
</svg>
