<?xml version="1.0" encoding="UTF-8" standalone="no"?>
<!DOCTYPE svg PUBLIC "-//W3C//DTD SVG 1.1//EN" 
  "http://www.w3.org/Graphics/SVG/1.1/DTD/svg11.dtd">
<svg width="109" height="112"
     xmlns="http://www.w3.org/2000/svg" version="1.1">
 <path d="  M 99,111  L 99,110  L 100,110  L 100,111  L 101,111  L 101,110  L 107,110  L 107,109  L 108,109  L 108,108  L 109,108  L 109,105  L 108,105  L 108,104  L 105,104  L 105,103  L 100,103  L 100,104  L 99,104  L 99,103  L 98,103  L 98,104  L 85,104  L 85,105  L 84,105  L 84,104  L 79,104  L 79,105  L 77,105  L 77,104  L 76,104  L 76,78  L 77,78  L 77,77  L 76,77  L 76,74  L 77,74  L 77,73  L 76,73  L 76,72  L 77,72  L 77,63  L 76,63  L 76,62  L 75,62  L 75,61  L 72,61  L 72,62  L 70,62  L 70,63  L 69,63  L 69,75  L 70,75  L 70,77  L 69,77  L 69,78  L 70,78  L 70,81  L 69,81  L 69,83  L 70,83  L 70,85  L 69,85  L 69,87  L 70,87  L 70,89  L 69,89  L 69,105  L 42,105  L 42,104  L 41,104  L 41,105  L 40,105  L 40,104  L 39,104  L 39,101  L 40,101  L 40,70  L 39,70  L 39,68  L 38,68  L 38,66  L 34,66  L 34,101  L 33,101  L 33,102  L 34,102  L 34,105  L 22,105  L 22,106  L 21,106  L 21,105  L 20,105  L 20,106  L 19,106  L 19,105  L 18,105  L 18,106  L 15,106  L 15,105  L 14,105  L 14,106  L 8,106  L 8,107  L 1,107  L 1,109  L 0,109  L 0,112  L 67,112  L 67,111  L 68,111  L 68,112  L 69,112  L 69,111  L 70,111  L 70,112  L 71,112  L 71,111  L 72,111  L 72,112  L 73,112  L 73,111  L 74,111  L 74,112  L 75,112  L 75,111  L 76,111  L 76,112  L 77,112  L 77,111  L 91,111  L 91,110  L 92,110  L 92,111  L 95,111  L 95,110  L 96,110  L 96,111  Z  " style="fill:rgb(0, 0, 0); fill-opacity:1.000; stroke:none;" />
 <path d="  M 31,16  L 31,17  L 30,17  L 30,18  L 29,18  L 29,20  L 28,20  L 28,22  L 27,22  L 27,24  L 26,24  L 26,26  L 25,26  L 25,29  L 24,29  L 24,31  L 23,31  L 23,33  L 22,33  L 22,35  L 21,35  L 21,36  L 20,36  L 20,38  L 19,38  L 19,40  L 18,40  L 18,41  L 17,41  L 17,42  L 16,42  L 16,43  L 15,43  L 15,44  L 14,44  L 14,45  L 13,45  L 13,47  L 12,47  L 12,48  L 11,48  L 11,49  L 9,49  L 9,51  L 8,51  L 8,52  L 7,52  L 7,53  L 6,53  L 6,54  L 5,54  L 5,58  L 6,58  L 6,59  L 10,59  L 10,58  L 11,58  L 11,56  L 12,56  L 12,55  L 13,55  L 13,53  L 15,53  L 15,51  L 16,51  L 16,50  L 17,50  L 17,49  L 18,49  L 18,48  L 19,48  L 19,46  L 21,46  L 21,44  L 22,44  L 22,43  L 23,43  L 23,41  L 24,41  L 24,40  L 25,40  L 25,39  L 26,39  L 26,38  L 27,38  L 27,37  L 28,37  L 28,36  L 29,36  L 29,37  L 31,37  L 31,38  L 33,38  L 33,39  L 34,39  L 34,40  L 35,40  L 35,41  L 37,41  L 37,42  L 38,42  L 38,43  L 40,43  L 40,44  L 41,44  L 41,45  L 44,45  L 44,46  L 51,46  L 51,51  L 49,51  L 49,53  L 47,53  L 47,56  L 46,56  L 46,58  L 47,58  L 47,59  L 48,59  L 48,60  L 49,60  L 49,59  L 52,59  L 52,58  L 53,58  L 53,56  L 54,56  L 54,55  L 55,55  L 55,54  L 56,54  L 56,53  L 57,53  L 57,52  L 58,52  L 58,51  L 59,51  L 59,50  L 60,50  L 60,48  L 61,48  L 61,47  L 62,47  L 62,46  L 63,46  L 63,45  L 64,45  L 64,43  L 65,43  L 65,41  L 66,41  L 66,40  L 67,40  L 67,38  L 68,38  L 68,35  L 69,35  L 69,34  L 71,34  L 71,33  L 74,33  L 74,34  L 77,34  L 77,35  L 79,35  L 79,36  L 81,36  L 81,37  L 82,37  L 82,36  L 83,36  L 83,37  L 86,37  L 86,38  L 87,38  L 87,39  L 91,39  L 91,40  L 92,40  L 92,41  L 94,41  L 94,42  L 95,42  L 95,43  L 99,43  L 99,44  L 101,44  L 101,45  L 104,45  L 104,46  L 107,46  L 107,45  L 109,45  L 109,39  L 106,39  L 106,38  L 104,38  L 104,37  L 102,37  L 102,36  L 98,36  L 98,35  L 95,35  L 95,34  L 94,34  L 94,33  L 91,33  L 91,32  L 88,32  L 88,31  L 85,31  L 85,30  L 83,30  L 83,29  L 81,29  L 81,28  L 79,28  L 79,27  L 77,27  L 77,26  L 76,26  L 76,25  L 75,25  L 75,22  L 76,22  L 76,18  L 77,18  L 77,15  L 78,15  L 78,12  L 79,12  L 79,9  L 80,9  L 80,7  L 81,7  L 81,4  L 80,4  L 80,2  L 79,2  L 79,1  L 76,1  L 76,2  L 75,2  L 75,4  L 74,4  L 74,7  L 73,7  L 73,10  L 72,10  L 72,14  L 71,14  L 71,16  L 70,16  L 70,18  L 69,18  L 69,21  L 68,21  L 68,24  L 67,24  L 67,26  L 66,26  L 66,27  L 65,27  L 65,29  L 64,29  L 64,31  L 63,31  L 63,33  L 62,33  L 62,35  L 61,35  L 61,37  L 60,37  L 60,40  L 59,40  L 59,41  L 58,41  L 58,42  L 56,42  L 56,43  L 54,43  L 54,42  L 53,42  L 53,41  L 52,41  L 52,40  L 49,40  L 49,39  L 47,39  L 47,38  L 44,38  L 44,37  L 41,37  L 41,36  L 40,36  L 40,35  L 38,35  L 38,34  L 36,34  L 36,33  L 35,33  L 35,32  L 34,32  L 34,31  L 33,31  L 33,29  L 32,29  L 32,26  L 33,26  L 33,23  L 34,23  L 34,21  L 35,21  L 35,20  L 36,20  L 36,18  L 37,18  L 37,17  L 38,17  L 38,16  L 39,16  L 39,15  L 40,15  L 40,14  L 41,14  L 41,12  L 42,12  L 42,11  L 43,11  L 43,10  L 44,10  L 44,7  L 45,7  L 45,1  L 44,1  L 44,0  L 41,0  L 41,1  L 40,1  L 40,4  L 39,4  L 39,5  L 38,5  L 38,7  L 37,7  L 37,9  L 36,9  L 36,11  L 35,11  L 35,12  L 34,12  L 34,13  L 33,13  L 33,15  L 32,15  L 32,16  Z  " style="fill:rgb(0, 0, 0); fill-opacity:1.000; stroke:none;" />
</svg>
