<?xml version="1.0" encoding="UTF-8" standalone="no"?>
<!DOCTYPE svg PUBLIC "-//W3C//DTD SVG 1.1//EN" 
  "http://www.w3.org/Graphics/SVG/1.1/DTD/svg11.dtd">
<svg width="103" height="163"
     xmlns="http://www.w3.org/2000/svg" version="1.1">
 <path d="  M 60,65  L 60,64  L 58,64  L 58,65  L 55,65  L 55,64  L 54,64  L 54,65  L 51,65  L 51,64  L 49,64  L 49,65  L 45,65  L 45,66  L 44,66  L 44,65  L 43,65  L 43,66  L 42,66  L 42,65  L 41,65  L 41,66  L 34,66  L 34,67  L 24,67  L 24,68  L 23,68  L 23,67  L 22,67  L 22,68  L 16,68  L 16,69  L 7,69  L 7,70  L 4,70  L 4,71  L 1,71  L 1,72  L 0,72  L 0,74  L 1,74  L 1,76  L 3,76  L 3,77  L 18,77  L 18,76  L 26,76  L 26,75  L 29,75  L 29,76  L 30,76  L 30,75  L 35,75  L 35,74  L 41,74  L 41,73  L 44,73  L 44,74  L 45,74  L 45,73  L 51,73  L 51,91  L 50,91  L 50,92  L 51,92  L 51,103  L 46,103  L 46,102  L 45,102  L 45,103  L 41,103  L 41,104  L 38,104  L 38,105  L 33,105  L 33,106  L 27,106  L 27,107  L 25,107  L 25,109  L 24,109  L 24,111  L 25,111  L 25,113  L 26,113  L 26,114  L 27,114  L 27,115  L 30,115  L 30,114  L 33,114  L 33,113  L 35,113  L 35,112  L 38,112  L 38,111  L 42,111  L 42,110  L 47,110  L 47,109  L 50,109  L 50,108  L 55,108  L 55,107  L 56,107  L 56,108  L 59,108  L 59,109  L 62,109  L 62,110  L 64,110  L 64,111  L 66,111  L 66,112  L 67,112  L 67,113  L 69,113  L 69,114  L 70,114  L 70,116  L 72,116  L 72,117  L 71,117  L 71,118  L 69,118  L 69,119  L 68,119  L 68,120  L 66,120  L 66,121  L 64,121  L 64,122  L 62,122  L 62,124  L 59,124  L 59,125  L 57,125  L 57,126  L 55,126  L 55,127  L 52,127  L 52,128  L 51,128  L 51,129  L 50,129  L 50,130  L 48,130  L 48,131  L 42,131  L 42,132  L 39,132  L 39,133  L 36,133  L 36,134  L 35,134  L 35,133  L 32,133  L 32,134  L 31,134  L 31,133  L 29,133  L 29,134  L 27,134  L 27,133  L 25,133  L 25,134  L 21,134  L 21,136  L 20,136  L 20,137  L 19,137  L 19,139  L 18,139  L 18,142  L 19,142  L 19,143  L 18,143  L 18,144  L 19,144  L 19,145  L 18,145  L 18,150  L 19,150  L 19,153  L 20,153  L 20,155  L 21,155  L 21,158  L 23,158  L 23,159  L 24,159  L 24,160  L 26,160  L 26,161  L 28,161  L 28,162  L 32,162  L 32,163  L 61,163  L 61,162  L 65,162  L 65,161  L 69,161  L 69,160  L 74,160  L 74,159  L 78,159  L 78,158  L 82,158  L 82,157  L 85,157  L 85,156  L 87,156  L 87,155  L 90,155  L 90,154  L 93,154  L 93,153  L 94,153  L 94,152  L 95,152  L 95,150  L 94,150  L 94,149  L 92,149  L 92,148  L 88,148  L 88,149  L 83,149  L 83,150  L 80,150  L 80,151  L 75,151  L 75,152  L 74,152  L 74,153  L 73,153  L 73,152  L 71,152  L 71,153  L 66,153  L 66,154  L 63,154  L 63,155  L 57,155  L 57,156  L 56,156  L 56,155  L 54,155  L 54,156  L 36,156  L 36,155  L 30,155  L 30,154  L 29,154  L 29,153  L 27,153  L 27,152  L 26,152  L 26,150  L 25,150  L 25,143  L 26,143  L 26,142  L 28,142  L 28,141  L 37,141  L 37,140  L 44,140  L 44,139  L 49,139  L 49,138  L 53,138  L 53,137  L 55,137  L 55,136  L 58,136  L 58,135  L 59,135  L 59,134  L 61,134  L 61,133  L 62,133  L 62,132  L 64,132  L 64,131  L 66,131  L 66,130  L 67,130  L 67,129  L 68,129  L 68,128  L 70,128  L 70,127  L 71,127  L 71,126  L 73,126  L 73,125  L 76,125  L 76,124  L 78,124  L 78,122  L 79,122  L 79,119  L 80,119  L 80,117  L 79,117  L 79,115  L 78,115  L 78,113  L 77,113  L 77,111  L 76,111  L 76,110  L 75,110  L 75,109  L 74,109  L 74,108  L 73,108  L 73,107  L 72,107  L 72,106  L 71,106  L 71,105  L 70,105  L 70,104  L 69,104  L 69,103  L 66,103  L 66,102  L 64,102  L 64,101  L 60,101  L 60,100  L 59,100  L 59,97  L 58,97  L 58,96  L 59,96  L 59,94  L 58,94  L 58,90  L 59,90  L 59,84  L 58,84  L 58,83  L 59,83  L 59,73  L 60,73  L 60,72  L 65,72  L 65,71  L 66,71  L 66,72  L 67,72  L 67,71  L 84,71  L 84,70  L 98,70  L 98,69  L 100,69  L 100,68  L 102,68  L 102,67  L 103,67  L 103,62  L 102,62  L 102,61  L 93,61  L 93,62  L 92,62  L 92,61  L 89,61  L 89,62  L 88,62  L 88,61  L 87,61  L 87,62  L 84,62  L 84,61  L 83,61  L 83,62  L 78,62  L 78,63  L 73,63  L 73,64  L 62,64  L 62,65  Z  " style="fill:rgb(0, 0, 0); fill-opacity:1.000; stroke:none;" />
 <path d="  M 14,31  L 13,31  L 13,33  L 12,33  L 12,35  L 11,35  L 11,37  L 10,37  L 10,39  L 9,39  L 9,41  L 8,41  L 8,42  L 7,42  L 7,44  L 6,44  L 6,45  L 5,45  L 5,46  L 4,46  L 4,48  L 3,48  L 3,50  L 4,50  L 4,52  L 7,52  L 7,53  L 8,53  L 8,52  L 9,52  L 9,51  L 10,51  L 10,49  L 11,49  L 11,48  L 12,48  L 12,45  L 13,45  L 13,43  L 14,43  L 14,42  L 15,42  L 15,40  L 16,40  L 16,39  L 17,39  L 17,38  L 18,38  L 18,37  L 19,37  L 19,35  L 22,35  L 22,36  L 23,36  L 23,37  L 24,37  L 24,38  L 25,38  L 25,39  L 26,39  L 26,40  L 28,40  L 28,41  L 30,41  L 30,42  L 32,42  L 32,43  L 34,43  L 34,44  L 36,44  L 36,45  L 37,45  L 37,46  L 39,46  L 39,47  L 40,47  L 40,48  L 42,48  L 42,49  L 43,49  L 43,50  L 44,50  L 44,52  L 46,52  L 46,51  L 48,51  L 48,49  L 49,49  L 49,48  L 50,48  L 50,47  L 51,47  L 51,46  L 52,46  L 52,45  L 53,45  L 53,44  L 54,44  L 54,43  L 55,43  L 55,42  L 56,42  L 56,40  L 57,40  L 57,39  L 59,39  L 59,38  L 60,38  L 60,37  L 61,37  L 61,35  L 62,35  L 62,34  L 63,34  L 63,31  L 64,31  L 64,30  L 65,30  L 65,29  L 66,29  L 66,30  L 71,30  L 71,31  L 72,31  L 72,32  L 73,32  L 73,31  L 74,31  L 74,32  L 75,32  L 75,33  L 78,33  L 78,34  L 80,34  L 80,35  L 83,35  L 83,36  L 84,36  L 84,37  L 86,37  L 86,38  L 88,38  L 88,39  L 90,39  L 90,40  L 91,40  L 91,41  L 94,41  L 94,42  L 95,42  L 95,44  L 99,44  L 99,45  L 101,45  L 101,43  L 102,43  L 102,41  L 101,41  L 101,38  L 100,38  L 100,37  L 98,37  L 98,36  L 97,36  L 97,35  L 96,35  L 96,34  L 93,34  L 93,33  L 91,33  L 91,32  L 89,32  L 89,31  L 87,31  L 87,30  L 86,30  L 86,29  L 83,29  L 83,28  L 81,28  L 81,27  L 78,27  L 78,26  L 75,26  L 75,25  L 73,25  L 73,24  L 72,24  L 72,23  L 71,23  L 71,21  L 72,21  L 72,20  L 73,20  L 73,18  L 74,18  L 74,16  L 75,16  L 75,14  L 76,14  L 76,12  L 77,12  L 77,10  L 78,10  L 78,7  L 79,7  L 79,6  L 78,6  L 78,2  L 76,2  L 76,1  L 72,1  L 72,2  L 71,2  L 71,6  L 70,6  L 70,11  L 69,11  L 69,13  L 68,13  L 68,15  L 67,15  L 67,18  L 66,18  L 66,19  L 65,19  L 65,20  L 64,20  L 64,22  L 63,22  L 63,23  L 61,23  L 61,25  L 60,25  L 60,26  L 59,26  L 59,27  L 58,27  L 58,28  L 57,28  L 57,29  L 56,29  L 56,31  L 55,31  L 55,32  L 54,32  L 54,33  L 53,33  L 53,36  L 52,36  L 52,37  L 51,37  L 51,39  L 50,39  L 50,41  L 48,41  L 48,42  L 46,42  L 46,41  L 43,41  L 43,40  L 41,40  L 41,39  L 40,39  L 40,38  L 38,38  L 38,37  L 35,37  L 35,36  L 34,36  L 34,35  L 32,35  L 32,34  L 30,34  L 30,33  L 29,33  L 29,32  L 28,32  L 28,31  L 26,31  L 26,30  L 25,30  L 25,28  L 24,28  L 24,27  L 23,27  L 23,26  L 24,26  L 24,24  L 25,24  L 25,22  L 26,22  L 26,20  L 27,20  L 27,18  L 28,18  L 28,16  L 30,16  L 30,15  L 31,15  L 31,14  L 32,14  L 32,12  L 33,12  L 33,11  L 34,11  L 34,10  L 35,10  L 35,9  L 36,9  L 36,8  L 37,8  L 37,5  L 38,5  L 38,1  L 36,1  L 36,0  L 34,0  L 34,1  L 33,1  L 33,0  L 32,0  L 32,1  L 31,1  L 31,3  L 30,3  L 30,6  L 29,6  L 29,7  L 28,7  L 28,8  L 27,8  L 27,11  L 25,11  L 25,13  L 24,13  L 24,14  L 23,14  L 23,15  L 22,15  L 22,17  L 21,17  L 21,18  L 20,18  L 20,20  L 19,20  L 19,22  L 18,22  L 18,23  L 17,23  L 17,25  L 16,25  L 16,27  L 15,27  L 15,29  L 14,29  Z  " style="fill:rgb(0, 0, 0); fill-opacity:1.000; stroke:none;" />
</svg>
