<?xml version="1.0" encoding="UTF-8" standalone="no"?>
<!DOCTYPE svg PUBLIC "-//W3C//DTD SVG 1.1//EN" 
  "http://www.w3.org/Graphics/SVG/1.1/DTD/svg11.dtd">
<svg width="105" height="160"
     xmlns="http://www.w3.org/2000/svg" version="1.1">
 <path d="  M 69,122  L 69,123  L 70,123  L 70,124  L 71,124  L 71,125  L 72,125  L 72,128  L 73,128  L 73,137  L 72,137  L 72,138  L 71,138  L 71,141  L 70,141  L 70,143  L 69,143  L 69,144  L 68,144  L 68,145  L 67,145  L 67,146  L 66,146  L 66,147  L 64,147  L 64,148  L 63,148  L 63,149  L 62,149  L 62,150  L 60,150  L 60,151  L 59,151  L 59,152  L 55,152  L 55,153  L 41,153  L 41,152  L 34,152  L 34,151  L 32,151  L 32,150  L 31,150  L 31,149  L 30,149  L 30,146  L 29,146  L 29,142  L 30,142  L 30,138  L 31,138  L 31,135  L 32,135  L 32,132  L 33,132  L 33,130  L 34,130  L 34,129  L 35,129  L 35,127  L 36,127  L 36,126  L 37,126  L 37,125  L 39,125  L 39,123  L 40,123  L 40,122  L 41,122  L 41,121  L 43,121  L 43,120  L 44,120  L 44,119  L 46,119  L 46,118  L 49,118  L 49,117  L 50,117  L 50,118  L 52,118  L 52,117  L 54,117  L 54,118  L 60,118  L 60,119  L 64,119  L 64,120  L 66,120  L 66,121  L 67,121  L 67,122  Z  M 72,117  L 72,116  L 71,116  L 71,115  L 69,115  L 69,114  L 67,114  L 67,113  L 65,113  L 65,112  L 62,112  L 62,111  L 61,111  L 61,106  L 60,106  L 60,77  L 61,77  L 61,76  L 69,76  L 69,75  L 70,75  L 70,76  L 71,76  L 71,75  L 72,75  L 72,76  L 73,76  L 73,75  L 76,75  L 76,76  L 77,76  L 77,75  L 91,75  L 91,74  L 92,74  L 92,75  L 93,75  L 93,74  L 94,74  L 94,75  L 95,75  L 95,74  L 103,74  L 103,73  L 104,73  L 104,72  L 105,72  L 105,67  L 104,67  L 104,66  L 99,66  L 99,67  L 94,67  L 94,68  L 87,68  L 87,69  L 86,69  L 86,68  L 84,68  L 84,69  L 49,69  L 49,70  L 47,70  L 47,69  L 46,69  L 46,70  L 45,70  L 45,69  L 44,69  L 44,70  L 43,70  L 43,69  L 42,69  L 42,70  L 30,70  L 30,71  L 29,71  L 29,70  L 26,70  L 26,71  L 25,71  L 25,70  L 23,70  L 23,71  L 7,71  L 7,72  L 1,72  L 1,74  L 0,74  L 0,75  L 1,75  L 1,76  L 2,76  L 2,77  L 5,77  L 5,78  L 15,78  L 15,77  L 16,77  L 16,78  L 17,78  L 17,77  L 46,77  L 46,76  L 47,76  L 47,77  L 48,77  L 48,76  L 49,76  L 49,77  L 50,77  L 50,76  L 51,76  L 51,77  L 53,77  L 53,79  L 52,79  L 52,82  L 53,82  L 53,83  L 52,83  L 52,85  L 53,85  L 53,87  L 52,87  L 52,89  L 53,89  L 53,91  L 52,91  L 52,93  L 53,93  L 53,95  L 52,95  L 52,97  L 53,97  L 53,100  L 52,100  L 52,101  L 53,101  L 53,109  L 52,109  L 52,110  L 43,110  L 43,111  L 41,111  L 41,112  L 40,112  L 40,113  L 39,113  L 39,114  L 38,114  L 38,115  L 37,115  L 37,116  L 36,116  L 36,118  L 34,118  L 34,120  L 33,120  L 33,121  L 32,121  L 32,122  L 31,122  L 31,123  L 30,123  L 30,124  L 29,124  L 29,125  L 28,125  L 28,126  L 27,126  L 27,128  L 26,128  L 26,130  L 25,130  L 25,132  L 24,132  L 24,134  L 23,134  L 23,139  L 22,139  L 22,144  L 23,144  L 23,145  L 22,145  L 22,146  L 23,146  L 23,150  L 24,150  L 24,153  L 25,153  L 25,154  L 26,154  L 26,155  L 27,155  L 27,156  L 28,156  L 28,157  L 29,157  L 29,158  L 32,158  L 32,159  L 36,159  L 36,160  L 59,160  L 59,159  L 61,159  L 61,158  L 64,158  L 64,157  L 65,157  L 65,156  L 66,156  L 66,155  L 68,155  L 68,154  L 69,154  L 69,153  L 70,153  L 70,152  L 71,152  L 71,151  L 72,151  L 72,150  L 73,150  L 73,149  L 74,149  L 74,148  L 75,148  L 75,146  L 76,146  L 76,144  L 77,144  L 77,143  L 78,143  L 78,141  L 79,141  L 79,137  L 80,137  L 80,132  L 81,132  L 81,131  L 80,131  L 80,124  L 79,124  L 79,122  L 78,122  L 78,121  L 76,121  L 76,120  L 75,120  L 75,119  L 74,119  L 74,118  L 73,118  L 73,117  Z  " style="fill:rgb(0, 0, 0); fill-opacity:1.000; stroke:none;" />
 <path d="  M 28,33  L 28,32  L 27,32  L 27,31  L 26,31  L 26,30  L 25,30  L 25,28  L 24,28  L 24,25  L 25,25  L 25,23  L 26,23  L 26,21  L 27,21  L 27,19  L 28,19  L 28,18  L 29,18  L 29,16  L 30,16  L 30,14  L 32,14  L 32,12  L 33,12  L 33,11  L 34,11  L 34,9  L 35,9  L 35,7  L 36,7  L 36,6  L 37,6  L 37,3  L 35,3  L 35,2  L 34,2  L 34,3  L 32,3  L 32,4  L 31,4  L 31,5  L 30,5  L 30,7  L 29,7  L 29,9  L 28,9  L 28,10  L 27,10  L 27,11  L 26,11  L 26,12  L 25,12  L 25,13  L 24,13  L 24,15  L 23,15  L 23,16  L 22,16  L 22,18  L 21,18  L 21,20  L 20,20  L 20,22  L 19,22  L 19,23  L 18,23  L 18,26  L 17,26  L 17,29  L 16,29  L 16,31  L 15,31  L 15,33  L 14,33  L 14,35  L 13,35  L 13,38  L 12,38  L 12,39  L 11,39  L 11,41  L 10,41  L 10,43  L 9,43  L 9,44  L 8,44  L 8,45  L 7,45  L 7,47  L 6,47  L 6,48  L 5,48  L 5,50  L 4,50  L 4,53  L 5,53  L 5,55  L 6,55  L 6,56  L 8,56  L 8,55  L 9,55  L 9,54  L 10,54  L 10,53  L 11,53  L 11,50  L 12,50  L 12,48  L 13,48  L 13,46  L 14,46  L 14,45  L 15,45  L 15,43  L 16,43  L 16,41  L 17,41  L 17,40  L 18,40  L 18,39  L 19,39  L 19,38  L 20,38  L 20,37  L 21,37  L 21,35  L 22,35  L 22,36  L 24,36  L 24,37  L 25,37  L 25,39  L 27,39  L 27,40  L 29,40  L 29,41  L 31,41  L 31,42  L 32,42  L 32,43  L 34,43  L 34,44  L 36,44  L 36,45  L 37,45  L 37,46  L 39,46  L 39,47  L 41,47  L 41,48  L 43,48  L 43,49  L 44,49  L 44,50  L 45,50  L 45,52  L 46,52  L 46,54  L 48,54  L 48,55  L 49,55  L 49,53  L 50,53  L 50,51  L 51,51  L 51,50  L 52,50  L 52,48  L 53,48  L 53,47  L 54,47  L 54,46  L 55,46  L 55,44  L 56,44  L 56,43  L 57,43  L 57,42  L 58,42  L 58,41  L 59,41  L 59,39  L 60,39  L 60,38  L 61,38  L 61,36  L 62,36  L 62,35  L 63,35  L 63,34  L 64,34  L 64,31  L 65,31  L 65,30  L 68,30  L 68,31  L 69,31  L 69,32  L 70,32  L 70,33  L 72,33  L 72,34  L 73,34  L 73,35  L 74,35  L 74,36  L 76,36  L 76,37  L 77,37  L 77,38  L 79,38  L 79,39  L 81,39  L 81,40  L 83,40  L 83,41  L 84,41  L 84,42  L 85,42  L 85,43  L 87,43  L 87,44  L 90,44  L 90,45  L 91,45  L 91,46  L 93,46  L 93,47  L 99,47  L 99,46  L 98,46  L 98,45  L 99,45  L 99,44  L 98,44  L 98,43  L 97,43  L 97,42  L 95,42  L 95,41  L 94,41  L 94,40  L 93,40  L 93,39  L 91,39  L 91,38  L 89,38  L 89,37  L 88,37  L 88,36  L 87,36  L 87,35  L 85,35  L 85,34  L 84,34  L 84,33  L 82,33  L 82,32  L 81,32  L 81,31  L 80,31  L 80,30  L 79,30  L 79,29  L 78,29  L 78,28  L 76,28  L 76,27  L 74,27  L 74,26  L 73,26  L 73,25  L 72,25  L 72,24  L 71,24  L 71,23  L 70,23  L 70,19  L 71,19  L 71,17  L 72,17  L 72,15  L 73,15  L 73,12  L 74,12  L 74,9  L 75,9  L 75,4  L 74,4  L 74,2  L 73,2  L 73,1  L 71,1  L 71,0  L 69,0  L 69,9  L 68,9  L 68,12  L 67,12  L 67,14  L 66,14  L 66,16  L 65,16  L 65,18  L 64,18  L 64,20  L 63,20  L 63,22  L 62,22  L 62,23  L 61,23  L 61,25  L 60,25  L 60,27  L 59,27  L 59,29  L 58,29  L 58,30  L 57,30  L 57,32  L 56,32  L 56,34  L 55,34  L 55,36  L 54,36  L 54,38  L 53,38  L 53,41  L 52,41  L 52,42  L 51,42  L 51,43  L 45,43  L 45,42  L 43,42  L 43,41  L 41,41  L 41,40  L 39,40  L 39,39  L 38,39  L 38,38  L 36,38  L 36,37  L 35,37  L 35,36  L 33,36  L 33,35  L 31,35  L 31,34  L 30,34  L 30,33  Z  " style="fill:rgb(0, 0, 0); fill-opacity:1.000; stroke:none;" />
</svg>
