<?xml version="1.0" encoding="UTF-8" standalone="no"?>
<!DOCTYPE svg PUBLIC "-//W3C//DTD SVG 1.1//EN" 
  "http://www.w3.org/Graphics/SVG/1.1/DTD/svg11.dtd">
<svg width="108" height="122"
     xmlns="http://www.w3.org/2000/svg" version="1.1">
 <path d="  M 21,21  L 22,21  L 22,19  L 23,19  L 23,16  L 24,16  L 24,14  L 25,14  L 25,12  L 26,12  L 26,11  L 27,11  L 27,9  L 28,9  L 28,8  L 29,8  L 29,6  L 30,6  L 30,5  L 31,5  L 31,4  L 32,4  L 32,3  L 33,3  L 33,1  L 32,1  L 32,0  L 29,0  L 29,1  L 27,1  L 27,2  L 25,2  L 25,3  L 24,3  L 24,4  L 23,4  L 23,6  L 22,6  L 22,7  L 21,7  L 21,9  L 20,9  L 20,11  L 19,11  L 19,12  L 18,12  L 18,14  L 17,14  L 17,16  L 16,16  L 16,19  L 15,19  L 15,20  L 14,20  L 14,22  L 13,22  L 13,23  L 12,23  L 12,25  L 11,25  L 11,27  L 10,27  L 10,29  L 9,29  L 9,31  L 8,31  L 8,32  L 7,32  L 7,34  L 6,34  L 6,36  L 5,36  L 5,37  L 4,37  L 4,40  L 3,40  L 3,43  L 2,43  L 2,45  L 1,45  L 1,47  L 0,47  L 0,48  L 1,48  L 1,49  L 0,49  L 0,50  L 1,50  L 1,53  L 2,53  L 2,54  L 6,54  L 6,53  L 7,53  L 7,52  L 8,52  L 8,48  L 9,48  L 9,46  L 8,46  L 8,45  L 9,45  L 9,42  L 10,42  L 10,39  L 11,39  L 11,37  L 12,37  L 12,35  L 13,35  L 13,34  L 14,34  L 14,32  L 15,32  L 15,29  L 16,29  L 16,28  L 17,28  L 17,27  L 18,27  L 18,26  L 19,26  L 19,27  L 20,27  L 20,28  L 21,28  L 21,29  L 22,29  L 22,30  L 23,30  L 23,31  L 26,31  L 26,32  L 28,32  L 28,33  L 29,33  L 29,34  L 31,34  L 31,35  L 34,35  L 34,36  L 36,36  L 36,37  L 39,37  L 39,38  L 42,38  L 42,37  L 43,37  L 43,36  L 44,36  L 44,35  L 45,35  L 45,33  L 43,33  L 43,32  L 41,32  L 41,31  L 38,31  L 38,30  L 35,30  L 35,29  L 33,29  L 33,28  L 30,28  L 30,27  L 28,27  L 28,26  L 26,26  L 26,25  L 24,25  L 24,24  L 23,24  L 23,23  L 21,23  Z  " style="fill:rgb(0, 0, 0); fill-opacity:1.000; stroke:none;" />
 <path d="  M 41,74  L 40,74  L 40,83  L 39,83  L 39,84  L 40,84  L 40,85  L 39,85  L 39,91  L 38,91  L 38,92  L 39,92  L 39,94  L 38,94  L 38,101  L 37,101  L 37,107  L 36,107  L 36,114  L 37,114  L 37,115  L 38,115  L 38,116  L 41,116  L 41,113  L 42,113  L 42,112  L 43,112  L 43,105  L 44,105  L 44,96  L 45,96  L 45,95  L 44,95  L 44,94  L 45,94  L 45,84  L 46,84  L 46,83  L 45,83  L 45,80  L 46,80  L 46,72  L 47,72  L 47,71  L 51,71  L 51,70  L 61,70  L 61,69  L 73,69  L 73,68  L 79,68  L 79,67  L 86,67  L 86,66  L 88,66  L 88,65  L 90,65  L 90,66  L 91,66  L 91,65  L 93,65  L 93,66  L 94,66  L 94,65  L 96,65  L 96,62  L 95,62  L 95,60  L 94,60  L 94,59  L 93,59  L 93,58  L 90,58  L 90,59  L 86,59  L 86,60  L 84,60  L 84,61  L 80,61  L 80,62  L 74,62  L 74,63  L 65,63  L 65,64  L 63,64  L 63,63  L 62,63  L 62,64  L 56,64  L 56,65  L 41,65  L 41,66  L 39,66  L 39,65  L 38,65  L 38,66  L 34,66  L 34,67  L 26,67  L 26,68  L 20,68  L 20,69  L 14,69  L 14,70  L 5,70  L 5,71  L 3,71  L 3,72  L 1,72  L 1,75  L 2,75  L 2,76  L 3,76  L 3,77  L 8,77  L 8,76  L 11,76  L 11,75  L 17,75  L 17,74  L 22,74  L 22,73  L 29,73  L 29,72  L 41,72  Z  " style="fill:rgb(0, 0, 0); fill-opacity:1.000; stroke:none;" />
 <path d="  M 46,38  L 46,39  L 45,39  L 45,41  L 44,41  L 44,42  L 43,42  L 43,43  L 42,43  L 42,44  L 41,44  L 41,45  L 40,45  L 40,47  L 39,47  L 39,48  L 38,48  L 38,49  L 37,49  L 37,50  L 36,50  L 36,53  L 35,53  L 35,54  L 36,54  L 36,57  L 38,57  L 38,56  L 40,56  L 40,54  L 41,54  L 41,53  L 43,53  L 43,52  L 44,52  L 44,50  L 45,50  L 45,48  L 46,48  L 46,47  L 47,47  L 47,46  L 48,46  L 48,45  L 49,45  L 49,43  L 51,43  L 51,41  L 52,41  L 52,40  L 53,40  L 53,38  L 54,38  L 54,36  L 55,36  L 55,34  L 57,34  L 57,33  L 59,33  L 59,34  L 60,34  L 60,35  L 61,35  L 61,37  L 64,37  L 64,38  L 65,38  L 65,39  L 68,39  L 68,40  L 69,40  L 69,41  L 70,41  L 70,42  L 72,42  L 72,43  L 73,43  L 73,44  L 75,44  L 75,45  L 76,45  L 76,46  L 77,46  L 77,47  L 79,47  L 79,48  L 80,48  L 80,49  L 81,49  L 81,50  L 83,50  L 83,51  L 89,51  L 89,49  L 90,49  L 90,48  L 92,48  L 92,47  L 93,47  L 93,44  L 90,44  L 90,45  L 86,45  L 86,44  L 83,44  L 83,43  L 82,43  L 82,42  L 80,42  L 80,41  L 79,41  L 79,40  L 77,40  L 77,39  L 76,39  L 76,38  L 74,38  L 74,37  L 72,37  L 72,36  L 71,36  L 71,35  L 69,35  L 69,34  L 67,34  L 67,33  L 65,33  L 65,32  L 63,32  L 63,31  L 61,31  L 61,29  L 60,29  L 60,26  L 61,26  L 61,24  L 62,24  L 62,21  L 63,21  L 63,18  L 64,18  L 64,16  L 65,16  L 65,13  L 66,13  L 66,11  L 67,11  L 67,10  L 68,10  L 68,8  L 69,8  L 69,5  L 68,5  L 68,4  L 66,4  L 66,5  L 63,5  L 63,7  L 62,7  L 62,8  L 61,8  L 61,10  L 60,10  L 60,12  L 59,12  L 59,14  L 58,14  L 58,17  L 57,17  L 57,19  L 56,19  L 56,23  L 55,23  L 55,25  L 54,25  L 54,27  L 53,27  L 53,28  L 52,28  L 52,31  L 50,31  L 50,32  L 49,32  L 49,33  L 48,33  L 48,36  L 47,36  L 47,38  Z  " style="fill:rgb(0, 0, 0); fill-opacity:1.000; stroke:none;" />
 <path d="  M 101,29  L 102,29  L 102,31  L 101,31  L 101,32  L 102,32  L 102,63  L 101,63  L 101,64  L 102,64  L 102,67  L 101,67  L 101,68  L 102,68  L 102,71  L 101,71  L 101,72  L 102,72  L 102,75  L 101,75  L 101,77  L 97,77  L 97,78  L 96,78  L 96,77  L 95,77  L 95,78  L 90,78  L 90,79  L 89,79  L 89,78  L 86,78  L 86,79  L 85,79  L 85,78  L 84,78  L 84,79  L 83,79  L 83,80  L 82,80  L 82,79  L 81,79  L 81,80  L 73,80  L 73,81  L 69,81  L 69,82  L 68,82  L 68,81  L 66,81  L 66,82  L 62,82  L 62,83  L 61,83  L 61,84  L 56,84  L 56,85  L 55,85  L 55,89  L 56,89  L 56,90  L 57,90  L 57,89  L 64,89  L 64,88  L 68,88  L 68,87  L 72,87  L 72,86  L 73,86  L 73,87  L 74,87  L 74,86  L 80,86  L 80,85  L 89,85  L 89,84  L 91,84  L 91,85  L 93,85  L 93,84  L 95,84  L 95,85  L 97,85  L 97,84  L 99,84  L 99,85  L 101,85  L 101,86  L 102,86  L 102,119  L 101,119  L 101,120  L 102,120  L 102,122  L 106,122  L 106,121  L 107,121  L 107,120  L 108,120  L 108,33  L 107,33  L 107,30  L 108,30  L 108,29  L 107,29  L 107,23  L 106,23  L 106,17  L 105,17  L 105,10  L 104,10  L 104,8  L 105,8  L 105,7  L 104,7  L 104,4  L 103,4  L 103,3  L 99,3  L 99,5  L 98,5  L 98,8  L 99,8  L 99,14  L 100,14  L 100,22  L 101,22  Z  " style="fill:rgb(0, 0, 0); fill-opacity:1.000; stroke:none;" />
</svg>
