<?xml version="1.0" encoding="UTF-8" standalone="no"?>
<!DOCTYPE svg PUBLIC "-//W3C//DTD SVG 1.1//EN" 
  "http://www.w3.org/Graphics/SVG/1.1/DTD/svg11.dtd">
<svg width="107" height="121"
     xmlns="http://www.w3.org/2000/svg" version="1.1">
 <path d="  M 24,4  L 24,5  L 23,5  L 23,6  L 22,6  L 22,8  L 21,8  L 21,10  L 20,10  L 20,12  L 19,12  L 19,13  L 18,13  L 18,16  L 17,16  L 17,18  L 16,18  L 16,20  L 15,20  L 15,22  L 14,22  L 14,24  L 13,24  L 13,26  L 12,26  L 12,28  L 11,28  L 11,30  L 10,30  L 10,32  L 9,32  L 9,33  L 8,33  L 8,35  L 7,35  L 7,36  L 6,36  L 6,38  L 5,38  L 5,40  L 4,40  L 4,42  L 3,42  L 3,44  L 2,44  L 2,46  L 1,46  L 1,48  L 0,48  L 0,51  L 1,51  L 1,52  L 2,52  L 2,53  L 3,53  L 3,54  L 6,54  L 6,53  L 7,53  L 7,52  L 8,52  L 8,47  L 9,47  L 9,42  L 10,42  L 10,41  L 11,41  L 11,39  L 12,39  L 12,37  L 13,37  L 13,35  L 14,35  L 14,34  L 15,34  L 15,33  L 16,33  L 16,30  L 17,30  L 17,29  L 20,29  L 20,30  L 21,30  L 21,31  L 22,31  L 22,32  L 23,32  L 23,33  L 26,33  L 26,34  L 27,34  L 27,35  L 29,35  L 29,36  L 31,36  L 31,37  L 34,37  L 34,38  L 35,38  L 35,39  L 40,39  L 40,40  L 43,40  L 43,39  L 45,39  L 45,43  L 44,43  L 44,44  L 43,44  L 43,45  L 42,45  L 42,46  L 41,46  L 41,48  L 40,48  L 40,49  L 39,49  L 39,50  L 38,50  L 38,51  L 37,51  L 37,53  L 36,53  L 36,59  L 39,59  L 39,58  L 40,58  L 40,57  L 41,57  L 41,55  L 42,55  L 42,54  L 43,54  L 43,53  L 44,53  L 44,52  L 45,52  L 45,50  L 46,50  L 46,49  L 47,49  L 47,48  L 48,48  L 48,46  L 49,46  L 49,45  L 50,45  L 50,43  L 51,43  L 51,42  L 52,42  L 52,39  L 53,39  L 53,38  L 54,38  L 54,36  L 58,36  L 58,37  L 59,37  L 59,38  L 60,38  L 60,39  L 61,39  L 61,40  L 63,40  L 63,41  L 65,41  L 65,42  L 66,42  L 66,43  L 68,43  L 68,44  L 69,44  L 69,45  L 71,45  L 71,46  L 72,46  L 72,47  L 73,47  L 73,48  L 75,48  L 75,49  L 76,49  L 76,50  L 77,50  L 77,51  L 79,51  L 79,52  L 80,52  L 80,53  L 82,53  L 82,54  L 83,54  L 83,55  L 87,55  L 87,54  L 88,54  L 88,53  L 89,53  L 89,52  L 90,52  L 90,50  L 89,50  L 89,49  L 87,49  L 87,48  L 85,48  L 85,47  L 84,47  L 84,46  L 82,46  L 82,45  L 80,45  L 80,44  L 79,44  L 79,43  L 76,43  L 76,42  L 75,42  L 75,41  L 73,41  L 73,40  L 72,40  L 72,39  L 70,39  L 70,38  L 68,38  L 68,37  L 66,37  L 66,36  L 65,36  L 65,35  L 63,35  L 63,34  L 61,34  L 61,33  L 59,33  L 59,32  L 58,32  L 58,27  L 59,27  L 59,25  L 60,25  L 60,22  L 61,22  L 61,18  L 62,18  L 62,16  L 63,16  L 63,14  L 64,14  L 64,12  L 65,12  L 65,10  L 66,10  L 66,5  L 64,5  L 64,4  L 63,4  L 63,5  L 61,5  L 61,7  L 60,7  L 60,8  L 59,8  L 59,11  L 58,11  L 58,13  L 57,13  L 57,16  L 56,16  L 56,19  L 55,19  L 55,20  L 54,20  L 54,23  L 53,23  L 53,26  L 52,26  L 52,28  L 51,28  L 51,30  L 50,30  L 50,32  L 48,32  L 48,33  L 45,33  L 45,34  L 42,34  L 42,33  L 36,33  L 36,32  L 35,32  L 35,31  L 32,31  L 32,30  L 30,30  L 30,29  L 28,29  L 28,28  L 26,28  L 26,27  L 25,27  L 25,26  L 23,26  L 23,25  L 22,25  L 22,24  L 21,24  L 21,22  L 22,22  L 22,20  L 23,20  L 23,17  L 24,17  L 24,15  L 25,15  L 25,13  L 26,13  L 26,11  L 27,11  L 27,10  L 28,10  L 28,8  L 29,8  L 29,7  L 30,7  L 30,6  L 31,6  L 31,5  L 32,5  L 32,3  L 33,3  L 33,1  L 32,1  L 32,0  L 30,0  L 30,1  L 28,1  L 28,2  L 26,2  L 26,3  L 25,3  L 25,4  Z  " style="fill:rgb(0, 0, 0); fill-opacity:1.000; stroke:none;" />
 <path d="  M 2,74  L 2,77  L 3,77  L 3,79  L 5,79  L 5,80  L 10,80  L 10,79  L 12,79  L 12,78  L 18,78  L 18,77  L 24,77  L 24,76  L 34,76  L 34,75  L 49,75  L 49,74  L 54,74  L 54,73  L 68,73  L 68,72  L 69,72  L 69,73  L 72,73  L 72,72  L 80,72  L 80,71  L 81,71  L 81,72  L 82,72  L 82,71  L 90,71  L 90,70  L 93,70  L 93,69  L 95,69  L 95,65  L 94,65  L 94,64  L 93,64  L 93,63  L 89,63  L 89,64  L 83,64  L 83,65  L 79,65  L 79,66  L 70,66  L 70,67  L 68,67  L 68,66  L 66,66  L 66,67  L 45,67  L 45,68  L 44,68  L 44,67  L 43,67  L 43,68  L 39,68  L 39,69  L 36,69  L 36,68  L 35,68  L 35,69  L 34,69  L 34,70  L 27,70  L 27,71  L 18,71  L 18,72  L 11,72  L 11,73  L 4,73  L 4,74  Z  " style="fill:rgb(0, 0, 0); fill-opacity:1.000; stroke:none;" />
 <path d="  M 45,95  L 44,95  L 44,96  L 45,96  L 45,97  L 44,97  L 44,100  L 43,100  L 43,101  L 44,101  L 44,102  L 43,102  L 43,106  L 42,106  L 42,110  L 41,110  L 41,114  L 40,114  L 40,118  L 41,118  L 41,119  L 42,119  L 42,120  L 44,120  L 44,119  L 46,119  L 46,118  L 47,118  L 47,113  L 48,113  L 48,108  L 49,108  L 49,103  L 50,103  L 50,100  L 51,100  L 51,95  L 52,95  L 52,87  L 51,87  L 51,80  L 50,80  L 50,79  L 49,79  L 49,77  L 48,77  L 48,78  L 45,78  Z  " style="fill:rgb(0, 0, 0); fill-opacity:1.000; stroke:none;" />
 <path d="  M 46,77  L 47,77  L 47,76  L 46,76  Z  " style="fill:rgb(0, 0, 0); fill-opacity:1.000; stroke:none;" />
 <path d="  M 102,78  L 101,78  L 101,79  L 102,79  L 102,121  L 107,121  L 107,20  L 106,20  L 106,10  L 105,10  L 105,9  L 106,9  L 106,8  L 104,8  L 104,7  L 103,7  L 103,6  L 101,6  L 101,7  L 100,7  L 100,19  L 101,19  L 101,33  L 102,33  L 102,34  L 101,34  L 101,35  L 102,35  Z  " style="fill:rgb(0, 0, 0); fill-opacity:1.000; stroke:none;" />
</svg>
