<?xml version="1.0" encoding="UTF-8" standalone="no"?>
<!DOCTYPE svg PUBLIC "-//W3C//DTD SVG 1.1//EN" 
  "http://www.w3.org/Graphics/SVG/1.1/DTD/svg11.dtd">
<svg width="100" height="165"
     xmlns="http://www.w3.org/2000/svg" version="1.1">
 <path d="  M 34,37  L 32,37  L 32,36  L 30,36  L 30,35  L 28,35  L 28,34  L 26,34  L 26,33  L 25,33  L 25,32  L 24,32  L 24,31  L 23,31  L 23,29  L 22,29  L 22,28  L 21,28  L 21,26  L 22,26  L 22,23  L 23,23  L 23,22  L 24,22  L 24,20  L 25,20  L 25,19  L 26,19  L 26,17  L 27,17  L 27,16  L 28,16  L 28,15  L 29,15  L 29,14  L 30,14  L 30,13  L 31,13  L 31,12  L 32,12  L 32,11  L 33,11  L 33,9  L 34,9  L 34,8  L 35,8  L 35,7  L 36,7  L 36,2  L 35,2  L 35,1  L 30,1  L 30,4  L 29,4  L 29,6  L 28,6  L 28,7  L 27,7  L 27,9  L 26,9  L 26,10  L 25,10  L 25,11  L 24,11  L 24,12  L 23,12  L 23,14  L 22,14  L 22,15  L 21,15  L 21,16  L 20,16  L 20,17  L 19,17  L 19,19  L 18,19  L 18,20  L 17,20  L 17,22  L 16,22  L 16,23  L 15,23  L 15,25  L 14,25  L 14,28  L 13,28  L 13,30  L 12,30  L 12,32  L 11,32  L 11,34  L 10,34  L 10,36  L 9,36  L 9,38  L 8,38  L 8,40  L 7,40  L 7,42  L 6,42  L 6,44  L 5,44  L 5,46  L 4,46  L 4,47  L 3,47  L 3,48  L 2,48  L 2,50  L 1,50  L 1,51  L 0,51  L 0,53  L 1,53  L 1,55  L 2,55  L 2,56  L 6,56  L 6,55  L 7,55  L 7,53  L 8,53  L 8,51  L 9,51  L 9,49  L 10,49  L 10,46  L 11,46  L 11,44  L 12,44  L 12,43  L 13,43  L 13,41  L 15,41  L 15,39  L 16,39  L 16,38  L 17,38  L 17,36  L 19,36  L 19,37  L 20,37  L 20,38  L 21,38  L 21,39  L 23,39  L 23,40  L 25,40  L 25,41  L 27,41  L 27,42  L 29,42  L 29,43  L 30,43  L 30,44  L 33,44  L 33,45  L 35,45  L 35,46  L 37,46  L 37,47  L 38,47  L 38,48  L 39,48  L 39,49  L 41,49  L 41,51  L 42,51  L 42,53  L 43,53  L 43,55  L 44,55  L 44,56  L 46,56  L 46,54  L 47,54  L 47,53  L 48,53  L 48,52  L 50,52  L 50,50  L 51,50  L 51,48  L 52,48  L 52,47  L 53,47  L 53,45  L 54,45  L 54,44  L 55,44  L 55,43  L 56,43  L 56,42  L 57,42  L 57,39  L 58,39  L 58,38  L 59,38  L 59,37  L 60,37  L 60,34  L 61,34  L 61,29  L 62,29  L 62,28  L 65,28  L 65,29  L 66,29  L 66,30  L 67,30  L 67,29  L 68,29  L 68,30  L 69,30  L 69,31  L 72,31  L 72,32  L 74,32  L 74,33  L 77,33  L 77,34  L 80,34  L 80,35  L 81,35  L 81,36  L 83,36  L 83,37  L 85,37  L 85,38  L 86,38  L 86,39  L 88,39  L 88,40  L 91,40  L 91,41  L 93,41  L 93,42  L 99,42  L 99,38  L 98,38  L 98,37  L 97,37  L 97,36  L 96,36  L 96,35  L 94,35  L 94,34  L 92,34  L 92,33  L 90,33  L 90,32  L 88,32  L 88,31  L 86,31  L 86,30  L 84,30  L 84,29  L 81,29  L 81,28  L 80,28  L 80,27  L 77,27  L 77,26  L 75,26  L 75,25  L 72,25  L 72,24  L 70,24  L 70,23  L 69,23  L 69,22  L 68,22  L 68,20  L 69,20  L 69,18  L 70,18  L 70,16  L 71,16  L 71,14  L 72,14  L 72,13  L 73,13  L 73,10  L 74,10  L 74,3  L 73,3  L 73,2  L 72,2  L 72,1  L 71,1  L 71,0  L 68,0  L 68,2  L 67,2  L 67,8  L 66,8  L 66,11  L 65,11  L 65,14  L 64,14  L 64,15  L 63,15  L 63,17  L 62,17  L 62,19  L 61,19  L 61,21  L 60,21  L 60,22  L 59,22  L 59,24  L 58,24  L 58,25  L 57,25  L 57,27  L 56,27  L 56,28  L 55,28  L 55,30  L 54,30  L 54,31  L 53,31  L 53,33  L 52,33  L 52,35  L 51,35  L 51,37  L 50,37  L 50,39  L 49,39  L 49,41  L 48,41  L 48,42  L 46,42  L 46,43  L 45,43  L 45,42  L 42,42  L 42,41  L 39,41  L 39,40  L 38,40  L 38,39  L 36,39  L 36,38  L 34,38  Z  " style="fill:rgb(0, 0, 0); fill-opacity:1.000; stroke:none;" />
 <path d="  M 3,84  L 3,85  L 2,85  L 2,86  L 1,86  L 1,88  L 0,88  L 0,90  L 1,90  L 1,91  L 3,91  L 3,92  L 4,92  L 4,91  L 6,91  L 6,90  L 11,90  L 11,89  L 17,89  L 17,88  L 21,88  L 21,87  L 25,87  L 25,86  L 32,86  L 32,85  L 40,85  L 40,84  L 61,84  L 61,83  L 62,83  L 62,84  L 63,84  L 63,83  L 64,83  L 64,84  L 65,84  L 65,83  L 85,83  L 85,82  L 86,82  L 86,83  L 87,83  L 87,82  L 98,82  L 98,81  L 99,81  L 99,80  L 100,80  L 100,74  L 99,74  L 99,73  L 95,73  L 95,74  L 92,74  L 92,75  L 86,75  L 86,76  L 54,76  L 54,77  L 53,77  L 53,76  L 51,76  L 51,77  L 49,77  L 49,76  L 48,76  L 48,77  L 38,77  L 38,78  L 37,78  L 37,77  L 36,77  L 36,78  L 30,78  L 30,79  L 26,79  L 26,80  L 21,80  L 21,81  L 16,81  L 16,82  L 13,82  L 13,83  L 8,83  L 8,84  Z  " style="fill:rgb(0, 0, 0); fill-opacity:1.000; stroke:none;" />
 <path d="  M 75,122  L 76,122  L 76,119  L 77,119  L 77,116  L 78,116  L 78,113  L 77,113  L 77,112  L 76,112  L 76,111  L 75,111  L 75,109  L 73,109  L 73,108  L 72,108  L 72,107  L 69,107  L 69,106  L 64,106  L 64,105  L 55,105  L 55,106  L 54,106  L 54,105  L 52,105  L 52,106  L 42,106  L 42,107  L 36,107  L 36,108  L 21,108  L 21,109  L 19,109  L 19,110  L 18,110  L 18,113  L 17,113  L 17,115  L 18,115  L 18,117  L 23,117  L 23,116  L 29,116  L 29,115  L 35,115  L 35,114  L 41,114  L 41,113  L 42,113  L 42,114  L 44,114  L 44,113  L 66,113  L 66,114  L 67,114  L 67,115  L 68,115  L 68,121  L 67,121  L 67,125  L 66,125  L 66,127  L 65,127  L 65,131  L 64,131  L 64,135  L 63,135  L 63,136  L 64,136  L 64,137  L 63,137  L 63,143  L 62,143  L 62,148  L 61,148  L 61,151  L 60,151  L 60,157  L 59,157  L 59,165  L 65,165  L 65,164  L 66,164  L 66,162  L 67,162  L 67,161  L 66,161  L 66,160  L 67,160  L 67,156  L 68,156  L 68,151  L 69,151  L 69,147  L 70,147  L 70,142  L 71,142  L 71,141  L 70,141  L 70,140  L 71,140  L 71,138  L 72,138  L 72,137  L 71,137  L 71,136  L 72,136  L 72,131  L 73,131  L 73,127  L 74,127  L 74,126  L 75,126  Z  " style="fill:rgb(0, 0, 0); fill-opacity:1.000; stroke:none;" />
</svg>
