<?xml version="1.0" encoding="UTF-8" standalone="no"?>
<!DOCTYPE svg PUBLIC "-//W3C//DTD SVG 1.1//EN" 
  "http://www.w3.org/Graphics/SVG/1.1/DTD/svg11.dtd">
<svg width="104" height="159"
     xmlns="http://www.w3.org/2000/svg" version="1.1">
 <path d="  M 19,97  L 19,98  L 14,98  L 14,99  L 10,99  L 10,100  L 7,100  L 7,101  L 6,101  L 6,105  L 5,105  L 5,106  L 6,106  L 6,110  L 9,110  L 9,109  L 10,109  L 10,108  L 11,108  L 11,107  L 12,107  L 12,106  L 13,106  L 13,105  L 15,105  L 15,104  L 19,104  L 19,103  L 24,103  L 24,102  L 30,102  L 30,103  L 31,103  L 31,102  L 32,102  L 32,103  L 35,103  L 35,104  L 37,104  L 37,105  L 38,105  L 38,106  L 39,106  L 39,108  L 40,108  L 40,109  L 39,109  L 39,112  L 38,112  L 38,114  L 37,114  L 37,115  L 33,115  L 33,116  L 28,116  L 28,117  L 25,117  L 25,118  L 22,118  L 22,119  L 19,119  L 19,120  L 15,120  L 15,121  L 14,121  L 14,120  L 13,120  L 13,121  L 10,121  L 10,122  L 7,122  L 7,124  L 5,124  L 5,125  L 3,125  L 3,127  L 2,127  L 2,133  L 1,133  L 1,139  L 2,139  L 2,141  L 1,141  L 1,142  L 2,142  L 2,143  L 3,143  L 3,146  L 4,146  L 4,147  L 5,147  L 5,149  L 6,149  L 6,150  L 9,150  L 9,151  L 11,151  L 11,152  L 12,152  L 12,151  L 22,151  L 22,150  L 24,150  L 24,151  L 25,151  L 25,150  L 31,150  L 31,149  L 36,149  L 36,148  L 42,148  L 42,147  L 45,147  L 45,146  L 46,146  L 46,147  L 47,147  L 47,146  L 54,146  L 54,147  L 58,147  L 58,145  L 59,145  L 59,139  L 58,139  L 58,136  L 57,136  L 57,135  L 56,135  L 56,136  L 54,136  L 54,137  L 53,137  L 53,138  L 52,138  L 52,139  L 51,139  L 51,140  L 40,140  L 40,141  L 34,141  L 34,142  L 32,142  L 32,143  L 31,143  L 31,142  L 30,142  L 30,143  L 23,143  L 23,144  L 20,144  L 20,143  L 19,143  L 19,144  L 11,144  L 11,143  L 9,143  L 9,140  L 8,140  L 8,134  L 9,134  L 9,132  L 10,132  L 10,130  L 11,130  L 11,129  L 13,129  L 13,128  L 16,128  L 16,127  L 17,127  L 17,126  L 20,126  L 20,125  L 23,125  L 23,124  L 27,124  L 27,123  L 29,123  L 29,122  L 32,122  L 32,121  L 34,121  L 34,120  L 38,120  L 38,119  L 40,119  L 40,118  L 42,118  L 42,116  L 43,116  L 43,115  L 44,115  L 44,114  L 45,114  L 45,113  L 46,113  L 46,106  L 45,106  L 45,103  L 44,103  L 44,102  L 43,102  L 43,101  L 42,101  L 42,99  L 40,99  L 40,98  L 39,98  L 39,97  L 37,97  L 37,96  L 27,96  L 27,97  L 26,97  L 26,96  L 25,96  L 25,97  Z  " style="fill:rgb(0, 0, 0); fill-opacity:1.000; stroke:none;" />
 <path d="  M 84,78  L 84,77  L 92,77  L 92,76  L 96,76  L 96,75  L 98,75  L 98,74  L 99,74  L 99,73  L 100,73  L 100,72  L 99,72  L 99,70  L 98,70  L 98,69  L 93,69  L 93,70  L 92,70  L 92,69  L 91,69  L 91,70  L 86,70  L 86,71  L 77,71  L 77,72  L 76,72  L 76,71  L 75,71  L 75,72  L 72,72  L 72,71  L 71,71  L 71,72  L 59,72  L 59,73  L 58,73  L 58,72  L 57,72  L 57,73  L 45,73  L 45,74  L 44,74  L 44,73  L 42,73  L 42,74  L 40,74  L 40,73  L 39,73  L 39,74  L 34,74  L 34,75  L 27,75  L 27,76  L 24,76  L 24,75  L 23,75  L 23,76  L 20,76  L 20,77  L 13,77  L 13,78  L 6,78  L 6,79  L 4,79  L 4,80  L 5,80  L 5,82  L 6,82  L 6,84  L 8,84  L 8,85  L 13,85  L 13,84  L 15,84  L 15,83  L 21,83  L 21,82  L 28,82  L 28,81  L 35,81  L 35,80  L 52,80  L 52,79  L 54,79  L 54,80  L 55,80  L 55,79  L 58,79  L 58,80  L 59,80  L 59,79  L 62,79  L 62,80  L 63,80  L 63,79  L 72,79  L 72,78  L 82,78  L 82,77  L 83,77  L 83,78  Z  " style="fill:rgb(0, 0, 0); fill-opacity:1.000; stroke:none;" />
 <path d="  M 72,10  L 71,10  L 71,11  L 70,11  L 70,13  L 69,13  L 69,16  L 68,16  L 68,18  L 67,18  L 67,19  L 66,19  L 66,21  L 65,21  L 65,22  L 64,22  L 64,24  L 63,24  L 63,26  L 62,26  L 62,27  L 61,27  L 61,29  L 60,29  L 60,31  L 59,31  L 59,32  L 58,32  L 58,34  L 57,34  L 57,36  L 56,36  L 56,38  L 55,38  L 55,39  L 54,39  L 54,40  L 53,40  L 53,41  L 45,41  L 45,40  L 44,40  L 44,39  L 42,39  L 42,38  L 40,38  L 40,37  L 38,37  L 38,36  L 37,36  L 37,35  L 35,35  L 35,34  L 34,34  L 34,33  L 32,33  L 32,32  L 30,32  L 30,31  L 29,31  L 29,30  L 28,30  L 28,24  L 29,24  L 29,21  L 30,21  L 30,20  L 31,20  L 31,17  L 32,17  L 32,15  L 33,15  L 33,14  L 34,14  L 34,13  L 35,13  L 35,12  L 36,12  L 36,10  L 37,10  L 37,9  L 38,9  L 38,6  L 39,6  L 39,3  L 38,3  L 38,2  L 35,2  L 35,3  L 34,3  L 34,5  L 33,5  L 33,7  L 32,7  L 32,8  L 31,8  L 31,9  L 30,9  L 30,11  L 29,11  L 29,12  L 28,12  L 28,13  L 27,13  L 27,14  L 26,14  L 26,16  L 25,16  L 25,19  L 24,19  L 24,20  L 23,20  L 23,22  L 22,22  L 22,24  L 21,24  L 21,27  L 20,27  L 20,29  L 19,29  L 19,30  L 18,30  L 18,32  L 17,32  L 17,34  L 16,34  L 16,36  L 15,36  L 15,37  L 14,37  L 14,39  L 13,39  L 13,41  L 12,41  L 12,42  L 11,42  L 11,43  L 10,43  L 10,45  L 9,45  L 9,48  L 8,48  L 8,52  L 7,52  L 7,54  L 8,54  L 8,56  L 9,56  L 9,57  L 10,57  L 10,56  L 11,56  L 11,55  L 12,55  L 12,54  L 13,54  L 13,52  L 14,52  L 14,49  L 15,49  L 15,47  L 16,47  L 16,45  L 17,45  L 17,42  L 18,42  L 18,41  L 19,41  L 19,40  L 20,40  L 20,38  L 21,38  L 21,37  L 22,37  L 22,35  L 23,35  L 23,34  L 26,34  L 26,35  L 27,35  L 27,36  L 28,36  L 28,37  L 29,37  L 29,38  L 30,38  L 30,39  L 33,39  L 33,40  L 34,40  L 34,41  L 36,41  L 36,42  L 37,42  L 37,43  L 39,43  L 39,44  L 41,44  L 41,45  L 43,45  L 43,46  L 46,46  L 46,51  L 45,51  L 45,57  L 44,57  L 44,59  L 45,59  L 45,61  L 44,61  L 44,62  L 45,62  L 45,65  L 46,65  L 46,68  L 47,68  L 47,69  L 50,69  L 50,67  L 51,67  L 51,54  L 52,54  L 52,50  L 53,50  L 53,48  L 54,48  L 54,46  L 55,46  L 55,45  L 56,45  L 56,43  L 57,43  L 57,42  L 58,42  L 58,41  L 60,41  L 60,39  L 61,39  L 61,37  L 62,37  L 62,36  L 63,36  L 63,35  L 65,35  L 65,34  L 66,34  L 66,33  L 67,33  L 67,32  L 68,32  L 68,31  L 69,31  L 69,32  L 70,32  L 70,33  L 71,33  L 71,35  L 72,35  L 72,36  L 76,36  L 76,37  L 78,37  L 78,38  L 80,38  L 80,39  L 81,39  L 81,40  L 83,40  L 83,42  L 85,42  L 85,43  L 86,43  L 86,44  L 88,44  L 88,45  L 89,45  L 89,46  L 90,46  L 90,47  L 91,47  L 91,46  L 92,46  L 92,47  L 93,47  L 93,46  L 95,46  L 95,45  L 96,45  L 96,42  L 95,42  L 95,41  L 94,41  L 94,40  L 91,40  L 91,39  L 90,39  L 90,38  L 89,38  L 89,37  L 88,37  L 88,36  L 87,36  L 87,35  L 85,35  L 85,33  L 83,33  L 83,32  L 81,32  L 81,31  L 80,31  L 80,30  L 79,30  L 79,29  L 77,29  L 77,28  L 76,28  L 76,27  L 75,27  L 75,26  L 74,26  L 74,25  L 73,25  L 73,23  L 72,23  L 72,22  L 73,22  L 73,20  L 74,20  L 74,17  L 75,17  L 75,15  L 76,15  L 76,13  L 77,13  L 77,10  L 78,10  L 78,8  L 79,8  L 79,7  L 78,7  L 78,6  L 79,6  L 79,5  L 78,5  L 78,2  L 77,2  L 77,1  L 76,1  L 76,0  L 73,0  L 73,1  L 72,1  Z  " style="fill:rgb(0, 0, 0); fill-opacity:1.000; stroke:none;" />
 <path d="  M 61,116  L 61,115  L 62,115  L 62,116  L 63,116  L 63,115  L 70,115  L 70,116  L 72,116  L 72,117  L 71,117  L 71,118  L 70,118  L 70,121  L 69,121  L 69,124  L 68,124  L 68,127  L 67,127  L 67,132  L 66,132  L 66,138  L 65,138  L 65,142  L 66,142  L 66,144  L 65,144  L 65,145  L 66,145  L 66,156  L 68,156  L 68,158  L 69,158  L 69,159  L 82,159  L 82,158  L 84,158  L 84,157  L 87,157  L 87,156  L 88,156  L 88,155  L 91,155  L 91,154  L 92,154  L 92,153  L 94,153  L 94,152  L 95,152  L 95,151  L 96,151  L 96,149  L 97,149  L 97,148  L 98,148  L 98,147  L 99,147  L 99,145  L 100,145  L 100,142  L 101,142  L 101,140  L 102,140  L 102,139  L 101,139  L 101,138  L 102,138  L 102,136  L 103,136  L 103,129  L 102,129  L 102,128  L 101,128  L 101,126  L 100,126  L 100,125  L 99,125  L 99,124  L 98,124  L 98,123  L 97,123  L 97,121  L 96,121  L 96,120  L 94,120  L 94,119  L 92,119  L 92,118  L 91,118  L 91,117  L 88,117  L 88,116  L 84,116  L 84,115  L 80,115  L 80,113  L 81,113  L 81,112  L 83,112  L 83,111  L 89,111  L 89,112  L 95,112  L 95,113  L 97,113  L 97,114  L 99,114  L 99,115  L 101,115  L 101,116  L 104,116  L 104,109  L 103,109  L 103,107  L 101,107  L 101,106  L 98,106  L 98,105  L 92,105  L 92,104  L 91,104  L 91,105  L 87,105  L 87,106  L 86,106  L 86,105  L 85,105  L 85,101  L 86,101  L 86,99  L 85,99  L 85,96  L 86,96  L 86,88  L 87,88  L 87,87  L 86,87  L 86,84  L 80,84  L 80,85  L 79,85  L 79,86  L 78,86  L 78,87  L 77,87  L 77,89  L 78,89  L 78,90  L 77,90  L 77,92  L 78,92  L 78,93  L 77,93  L 77,94  L 78,94  L 78,95  L 77,95  L 77,105  L 78,105  L 78,106  L 77,106  L 77,107  L 71,107  L 71,108  L 68,108  L 68,107  L 67,107  L 67,108  L 60,108  L 60,109  L 54,109  L 54,110  L 53,110  L 53,111  L 52,111  L 52,116  L 55,116  L 55,117  L 56,117  L 56,116  Z  M 72,150  L 72,148  L 71,148  L 71,137  L 72,137  L 72,132  L 73,132  L 73,129  L 74,129  L 74,127  L 75,127  L 75,125  L 76,125  L 76,121  L 77,121  L 77,120  L 83,120  L 83,121  L 86,121  L 86,122  L 87,122  L 87,123  L 89,123  L 89,124  L 90,124  L 90,125  L 91,125  L 91,126  L 93,126  L 93,127  L 95,127  L 95,128  L 96,128  L 96,137  L 95,137  L 95,139  L 94,139  L 94,142  L 93,142  L 93,144  L 92,144  L 92,146  L 91,146  L 91,147  L 90,147  L 90,148  L 89,148  L 89,149  L 87,149  L 87,150  L 86,150  L 86,151  L 85,151  L 85,152  L 82,152  L 82,153  L 80,153  L 80,152  L 78,152  L 78,153  L 76,153  L 76,152  L 73,152  L 73,150  Z  " style="fill:rgb(0, 0, 0); fill-opacity:1.000; stroke:none;" />
</svg>
