<?xml version="1.0" encoding="UTF-8" standalone="no"?>
<!DOCTYPE svg PUBLIC "-//W3C//DTD SVG 1.1//EN" 
  "http://www.w3.org/Graphics/SVG/1.1/DTD/svg11.dtd">
<svg width="105" height="162"
     xmlns="http://www.w3.org/2000/svg" version="1.1">
 <path d="  M 23,42  L 23,40  L 22,40  L 22,39  L 23,39  L 23,38  L 24,38  L 24,37  L 25,37  L 25,36  L 26,36  L 26,35  L 27,35  L 27,34  L 28,34  L 28,32  L 29,32  L 29,31  L 30,31  L 30,29  L 31,29  L 31,28  L 32,28  L 32,27  L 34,27  L 34,25  L 35,25  L 35,24  L 36,24  L 36,22  L 37,22  L 37,21  L 38,21  L 38,19  L 39,19  L 39,17  L 40,17  L 40,15  L 41,15  L 41,13  L 40,13  L 40,12  L 39,12  L 39,11  L 36,11  L 36,12  L 34,12  L 34,13  L 33,13  L 33,14  L 32,14  L 32,15  L 31,15  L 31,17  L 30,17  L 30,18  L 29,18  L 29,20  L 28,20  L 28,22  L 27,22  L 27,23  L 26,23  L 26,25  L 25,25  L 25,27  L 24,27  L 24,28  L 23,28  L 23,29  L 22,29  L 22,30  L 21,30  L 21,31  L 20,31  L 20,33  L 19,33  L 19,34  L 18,34  L 18,35  L 17,35  L 17,37  L 16,37  L 16,38  L 15,38  L 15,40  L 14,40  L 14,42  L 13,42  L 13,43  L 12,43  L 12,45  L 11,45  L 11,47  L 10,47  L 10,49  L 9,49  L 9,51  L 8,51  L 8,52  L 7,52  L 7,53  L 6,53  L 6,54  L 5,54  L 5,56  L 4,56  L 4,57  L 3,57  L 3,58  L 2,58  L 2,59  L 1,59  L 1,65  L 2,65  L 2,66  L 5,66  L 5,65  L 6,65  L 6,64  L 7,64  L 7,63  L 8,63  L 8,61  L 9,61  L 9,60  L 10,60  L 10,59  L 11,59  L 11,58  L 12,58  L 12,56  L 13,56  L 13,55  L 14,55  L 14,53  L 16,53  L 16,50  L 17,50  L 17,48  L 18,48  L 18,47  L 22,47  L 22,48  L 23,48  L 23,49  L 24,49  L 24,50  L 25,50  L 25,51  L 27,51  L 27,52  L 28,52  L 28,53  L 29,53  L 29,54  L 30,54  L 30,55  L 31,55  L 31,56  L 32,56  L 32,57  L 33,57  L 33,58  L 35,58  L 35,59  L 37,59  L 37,60  L 38,60  L 38,61  L 40,61  L 40,62  L 43,62  L 43,61  L 45,61  L 45,60  L 46,60  L 46,59  L 45,59  L 45,58  L 46,58  L 46,56  L 45,56  L 45,55  L 44,55  L 44,54  L 42,54  L 42,53  L 39,53  L 39,52  L 37,52  L 37,51  L 36,51  L 36,50  L 35,50  L 35,49  L 34,49  L 34,48  L 33,48  L 33,47  L 32,47  L 32,46  L 31,46  L 31,45  L 29,45  L 29,44  L 28,44  L 28,43  L 26,43  L 26,42  Z  " style="fill:rgb(0, 0, 0); fill-opacity:1.000; stroke:none;" />
 <path d="  M 69,65  L 70,65  L 70,66  L 71,66  L 71,67  L 72,67  L 72,68  L 73,68  L 73,69  L 74,69  L 74,70  L 75,70  L 75,71  L 76,71  L 76,73  L 77,73  L 77,75  L 78,75  L 78,77  L 80,77  L 80,78  L 83,78  L 83,77  L 84,77  L 84,76  L 85,76  L 85,74  L 84,74  L 84,72  L 83,72  L 83,70  L 82,70  L 82,69  L 81,69  L 81,67  L 80,67  L 80,66  L 79,66  L 79,65  L 78,65  L 78,64  L 77,64  L 77,63  L 76,63  L 76,62  L 74,62  L 74,61  L 73,61  L 73,60  L 72,60  L 72,59  L 70,59  L 70,58  L 69,58  L 69,57  L 68,57  L 68,56  L 67,56  L 67,55  L 65,55  L 65,54  L 64,54  L 64,52  L 63,52  L 63,51  L 62,51  L 62,49  L 61,49  L 61,48  L 62,48  L 62,45  L 63,45  L 63,42  L 64,42  L 64,39  L 65,39  L 65,36  L 66,36  L 66,33  L 67,33  L 67,30  L 68,30  L 68,28  L 69,28  L 69,25  L 70,25  L 70,23  L 71,23  L 71,21  L 72,21  L 72,19  L 73,19  L 73,15  L 68,15  L 68,16  L 67,16  L 67,17  L 66,17  L 66,19  L 65,19  L 65,22  L 64,22  L 64,24  L 63,24  L 63,26  L 62,26  L 62,28  L 61,28  L 61,31  L 60,31  L 60,34  L 59,34  L 59,37  L 58,37  L 58,39  L 57,39  L 57,42  L 56,42  L 56,46  L 55,46  L 55,49  L 54,49  L 54,52  L 53,52  L 53,54  L 52,54  L 52,56  L 51,56  L 51,57  L 50,57  L 50,58  L 49,58  L 49,60  L 48,60  L 48,61  L 45,61  L 45,63  L 44,63  L 44,64  L 43,64  L 43,65  L 42,65  L 42,66  L 41,66  L 41,67  L 40,67  L 40,68  L 39,68  L 39,70  L 38,70  L 38,71  L 37,71  L 37,73  L 38,73  L 38,75  L 39,75  L 39,76  L 41,76  L 41,77  L 42,77  L 42,78  L 43,78  L 43,77  L 44,77  L 44,76  L 45,76  L 45,75  L 46,75  L 46,73  L 47,73  L 47,72  L 48,72  L 48,71  L 49,71  L 49,69  L 50,69  L 50,68  L 51,68  L 51,67  L 52,67  L 52,66  L 53,66  L 53,65  L 54,65  L 54,64  L 55,64  L 55,62  L 56,62  L 56,61  L 57,61  L 57,60  L 58,60  L 58,59  L 59,59  L 59,58  L 60,58  L 60,59  L 62,59  L 62,60  L 63,60  L 63,61  L 65,61  L 65,62  L 66,62  L 66,63  L 68,63  L 68,64  L 69,64  Z  " style="fill:rgb(0, 0, 0); fill-opacity:1.000; stroke:none;" />
 <path d="  M 88,130  L 89,130  L 89,124  L 90,124  L 90,121  L 91,121  L 91,118  L 92,118  L 92,109  L 91,109  L 91,106  L 90,106  L 90,104  L 88,104  L 88,103  L 87,103  L 87,102  L 84,102  L 84,101  L 80,101  L 80,100  L 49,100  L 49,101  L 44,101  L 44,102  L 42,102  L 42,103  L 40,103  L 40,104  L 39,104  L 39,105  L 38,105  L 38,109  L 39,109  L 39,108  L 41,108  L 41,109  L 44,109  L 44,108  L 50,108  L 50,107  L 56,107  L 56,106  L 57,106  L 57,107  L 58,107  L 58,106  L 77,106  L 77,107  L 81,107  L 81,108  L 82,108  L 82,109  L 84,109  L 84,110  L 85,110  L 85,116  L 84,116  L 84,117  L 85,117  L 85,118  L 84,118  L 84,120  L 83,120  L 83,124  L 82,124  L 82,132  L 81,132  L 81,141  L 80,141  L 80,142  L 81,142  L 81,143  L 80,143  L 80,149  L 79,149  L 79,151  L 78,151  L 78,155  L 77,155  L 77,161  L 78,161  L 78,162  L 84,162  L 84,161  L 85,161  L 85,159  L 86,159  L 86,158  L 85,158  L 85,157  L 86,157  L 86,155  L 87,155  L 87,151  L 88,151  Z  " style="fill:rgb(0, 0, 0); fill-opacity:1.000; stroke:none;" />
 <path d="  M 105,16  L 104,16  L 104,13  L 105,13  L 105,12  L 104,12  L 104,3  L 103,3  L 103,2  L 102,2  L 102,1  L 101,1  L 101,0  L 99,0  L 99,1  L 98,1  L 98,2  L 97,2  L 97,9  L 98,9  L 98,23  L 99,23  L 99,26  L 98,26  L 98,27  L 99,27  L 99,78  L 98,78  L 98,79  L 99,79  L 99,86  L 98,86  L 98,90  L 99,90  L 99,92  L 101,92  L 101,91  L 103,91  L 103,90  L 105,90  Z  " style="fill:rgb(0, 0, 0); fill-opacity:1.000; stroke:none;" />
</svg>
