<?xml version="1.0" encoding="UTF-8" standalone="no"?>
<!DOCTYPE svg PUBLIC "-//W3C//DTD SVG 1.1//EN" 
  "http://www.w3.org/Graphics/SVG/1.1/DTD/svg11.dtd">
<svg width="102" height="145"
     xmlns="http://www.w3.org/2000/svg" version="1.1">
 <path d="  M 62,51  L 61,51  L 61,49  L 59,49  L 59,43  L 60,43  L 60,41  L 61,41  L 61,38  L 62,38  L 62,35  L 63,35  L 63,32  L 64,32  L 64,30  L 65,30  L 65,26  L 66,26  L 66,24  L 67,24  L 67,21  L 68,21  L 68,17  L 69,17  L 69,16  L 68,16  L 68,14  L 66,14  L 66,13  L 65,13  L 65,14  L 64,14  L 64,15  L 63,15  L 63,17  L 62,17  L 62,19  L 61,19  L 61,23  L 60,23  L 60,25  L 59,25  L 59,27  L 58,27  L 58,30  L 57,30  L 57,33  L 56,33  L 56,37  L 55,37  L 55,40  L 54,40  L 54,44  L 53,44  L 53,49  L 52,49  L 52,51  L 51,51  L 51,52  L 50,52  L 50,54  L 49,54  L 49,55  L 48,55  L 48,56  L 46,56  L 46,55  L 45,55  L 45,54  L 44,54  L 44,53  L 41,53  L 41,52  L 38,52  L 38,51  L 36,51  L 36,50  L 34,50  L 34,49  L 33,49  L 33,48  L 32,48  L 32,47  L 31,47  L 31,46  L 29,46  L 29,45  L 27,45  L 27,44  L 25,44  L 25,43  L 24,43  L 24,42  L 22,42  L 22,41  L 21,41  L 21,38  L 22,38  L 22,36  L 23,36  L 23,34  L 24,34  L 24,32  L 25,32  L 25,30  L 26,30  L 26,29  L 27,29  L 27,27  L 28,27  L 28,26  L 29,26  L 29,24  L 30,24  L 30,23  L 32,23  L 32,21  L 34,21  L 34,19  L 35,19  L 35,18  L 36,18  L 36,16  L 37,16  L 37,12  L 35,12  L 35,11  L 34,11  L 34,12  L 31,12  L 31,13  L 29,13  L 29,14  L 28,14  L 28,15  L 27,15  L 27,16  L 26,16  L 26,18  L 25,18  L 25,20  L 24,20  L 24,22  L 23,22  L 23,23  L 22,23  L 22,25  L 21,25  L 21,27  L 20,27  L 20,28  L 19,28  L 19,30  L 18,30  L 18,32  L 17,32  L 17,34  L 16,34  L 16,36  L 15,36  L 15,37  L 14,37  L 14,40  L 13,40  L 13,42  L 12,42  L 12,44  L 11,44  L 11,46  L 10,46  L 10,48  L 9,48  L 9,50  L 8,50  L 8,52  L 7,52  L 7,53  L 6,53  L 6,55  L 5,55  L 5,57  L 4,57  L 4,58  L 3,58  L 3,59  L 2,59  L 2,61  L 1,61  L 1,62  L 0,62  L 0,66  L 1,66  L 1,68  L 4,68  L 4,67  L 5,67  L 5,66  L 6,66  L 6,65  L 7,65  L 7,63  L 8,63  L 8,61  L 9,61  L 9,60  L 10,60  L 10,59  L 11,59  L 11,57  L 12,57  L 12,56  L 13,56  L 13,54  L 14,54  L 14,52  L 15,52  L 15,51  L 16,51  L 16,49  L 17,49  L 17,47  L 20,47  L 20,48  L 21,48  L 21,49  L 22,49  L 22,50  L 24,50  L 24,51  L 26,51  L 26,53  L 28,53  L 28,55  L 30,55  L 30,56  L 32,56  L 32,57  L 33,57  L 33,58  L 36,58  L 36,59  L 37,59  L 37,60  L 40,60  L 40,61  L 42,61  L 42,63  L 41,63  L 41,65  L 39,65  L 39,66  L 38,66  L 38,67  L 37,67  L 37,69  L 36,69  L 36,70  L 35,70  L 35,74  L 36,74  L 36,76  L 37,76  L 37,77  L 40,77  L 40,76  L 41,76  L 41,74  L 42,74  L 42,72  L 43,72  L 43,70  L 44,70  L 44,69  L 46,69  L 46,68  L 47,68  L 47,67  L 48,67  L 48,66  L 49,66  L 49,65  L 50,65  L 50,64  L 51,64  L 51,63  L 52,63  L 52,61  L 53,61  L 53,60  L 54,60  L 54,59  L 55,59  L 55,57  L 56,57  L 56,56  L 58,56  L 58,57  L 59,57  L 59,58  L 61,58  L 61,59  L 62,59  L 62,60  L 63,60  L 63,61  L 65,61  L 65,62  L 66,62  L 66,63  L 67,63  L 67,64  L 68,64  L 68,65  L 69,65  L 69,66  L 71,66  L 71,68  L 72,68  L 72,69  L 73,69  L 73,70  L 74,70  L 74,72  L 75,72  L 75,73  L 76,73  L 76,75  L 77,75  L 77,76  L 78,76  L 78,77  L 82,77  L 82,76  L 83,76  L 83,75  L 84,75  L 84,73  L 83,73  L 83,71  L 82,71  L 82,69  L 81,69  L 81,68  L 80,68  L 80,66  L 79,66  L 79,65  L 78,65  L 78,64  L 77,64  L 77,63  L 75,63  L 75,62  L 74,62  L 74,61  L 73,61  L 73,60  L 72,60  L 72,59  L 70,59  L 70,58  L 69,58  L 69,57  L 68,57  L 68,56  L 66,56  L 66,55  L 65,55  L 65,54  L 64,54  L 64,53  L 63,53  L 63,52  L 62,52  Z  " style="fill:rgb(0, 0, 0); fill-opacity:1.000; stroke:none;" />
 <path d="  M 65,104  L 66,104  L 66,103  L 94,103  L 94,104  L 95,104  L 95,107  L 94,107  L 94,115  L 93,115  L 93,121  L 92,121  L 92,125  L 91,125  L 91,133  L 90,133  L 90,137  L 89,137  L 89,138  L 84,138  L 84,139  L 69,139  L 69,140  L 68,140  L 68,139  L 67,139  L 67,140  L 49,140  L 49,139  L 47,139  L 47,137  L 46,137  L 46,105  L 48,105  L 48,104  L 64,104  L 64,103  L 65,103  Z  M 96,133  L 97,133  L 97,126  L 98,126  L 98,121  L 99,121  L 99,116  L 100,116  L 100,112  L 101,112  L 101,106  L 102,106  L 102,105  L 101,105  L 101,101  L 100,101  L 100,100  L 99,100  L 99,98  L 98,98  L 98,97  L 96,97  L 96,96  L 93,96  L 93,97  L 92,97  L 92,96  L 91,96  L 91,97  L 88,97  L 88,96  L 87,96  L 87,97  L 84,97  L 84,96  L 83,96  L 83,97  L 80,97  L 80,96  L 79,96  L 79,97  L 63,97  L 63,98  L 60,98  L 60,97  L 59,97  L 59,98  L 44,98  L 44,97  L 32,97  L 32,98  L 31,98  L 31,99  L 29,99  L 29,100  L 28,100  L 28,101  L 27,101  L 27,102  L 28,102  L 28,103  L 29,103  L 29,105  L 32,105  L 32,106  L 33,106  L 33,105  L 36,105  L 36,106  L 37,106  L 37,105  L 40,105  L 40,121  L 39,121  L 39,122  L 40,122  L 40,137  L 41,137  L 41,140  L 42,140  L 42,142  L 43,142  L 43,143  L 44,143  L 44,144  L 45,144  L 45,145  L 90,145  L 90,144  L 92,144  L 92,143  L 94,143  L 94,142  L 95,142  L 95,140  L 96,140  Z  " style="fill:rgb(0, 0, 0); fill-opacity:1.000; stroke:none;" />
 <path d="  M 102,25  L 101,25  L 101,13  L 100,13  L 100,12  L 101,12  L 101,11  L 100,11  L 100,8  L 99,8  L 99,7  L 100,7  L 100,4  L 99,4  L 99,2  L 98,2  L 98,1  L 97,1  L 97,0  L 94,0  L 94,1  L 93,1  L 93,9  L 94,9  L 94,18  L 95,18  L 95,26  L 96,26  L 96,88  L 97,88  L 97,89  L 98,89  L 98,90  L 99,90  L 99,89  L 101,89  L 101,87  L 102,87  Z  " style="fill:rgb(0, 0, 0); fill-opacity:1.000; stroke:none;" />
</svg>
