<?xml version="1.0" encoding="UTF-8" standalone="no"?>
<!DOCTYPE svg PUBLIC "-//W3C//DTD SVG 1.1//EN" 
  "http://www.w3.org/Graphics/SVG/1.1/DTD/svg11.dtd">
<svg width="103" height="160"
     xmlns="http://www.w3.org/2000/svg" version="1.1">
 <path d="  M 61,40  L 62,40  L 62,38  L 63,38  L 63,36  L 64,36  L 64,34  L 65,34  L 65,31  L 66,31  L 66,28  L 67,28  L 67,26  L 68,26  L 68,24  L 69,24  L 69,20  L 70,20  L 70,18  L 69,18  L 69,17  L 67,17  L 67,16  L 66,16  L 66,17  L 64,17  L 64,18  L 63,18  L 63,22  L 62,22  L 62,24  L 61,24  L 61,28  L 60,28  L 60,30  L 59,30  L 59,32  L 58,32  L 58,34  L 57,34  L 57,36  L 56,36  L 56,38  L 55,38  L 55,42  L 54,42  L 54,45  L 53,45  L 53,51  L 52,51  L 52,53  L 51,53  L 51,54  L 50,54  L 50,57  L 49,57  L 49,58  L 46,58  L 46,57  L 45,57  L 45,56  L 39,56  L 39,55  L 37,55  L 37,54  L 35,54  L 35,53  L 34,53  L 34,52  L 33,52  L 33,51  L 32,51  L 32,50  L 30,50  L 30,49  L 29,49  L 29,48  L 27,48  L 27,47  L 25,47  L 25,46  L 23,46  L 23,45  L 22,45  L 22,44  L 20,44  L 20,43  L 19,43  L 19,40  L 20,40  L 20,38  L 21,38  L 21,35  L 22,35  L 22,33  L 23,33  L 23,32  L 24,32  L 24,30  L 25,30  L 25,28  L 26,28  L 26,27  L 28,27  L 28,26  L 29,26  L 29,25  L 30,25  L 30,24  L 32,24  L 32,23  L 34,23  L 34,21  L 36,21  L 36,20  L 37,20  L 37,18  L 38,18  L 38,16  L 39,16  L 39,15  L 38,15  L 38,14  L 34,14  L 34,15  L 31,15  L 31,16  L 29,16  L 29,17  L 28,17  L 28,18  L 27,18  L 27,19  L 26,19  L 26,20  L 25,20  L 25,21  L 24,21  L 24,22  L 23,22  L 23,23  L 22,23  L 22,24  L 21,24  L 21,25  L 20,25  L 20,26  L 19,26  L 19,28  L 18,28  L 18,30  L 17,30  L 17,32  L 16,32  L 16,34  L 15,34  L 15,36  L 14,36  L 14,38  L 13,38  L 13,40  L 12,40  L 12,43  L 11,43  L 11,45  L 10,45  L 10,47  L 9,47  L 9,50  L 8,50  L 8,51  L 7,51  L 7,52  L 6,52  L 6,54  L 5,54  L 5,56  L 4,56  L 4,57  L 3,57  L 3,58  L 2,58  L 2,60  L 1,60  L 1,62  L 0,62  L 0,65  L 1,65  L 1,67  L 2,67  L 2,68  L 3,68  L 3,67  L 5,67  L 5,65  L 6,65  L 6,63  L 7,63  L 7,62  L 8,62  L 8,61  L 9,61  L 9,59  L 10,59  L 10,57  L 12,57  L 12,55  L 13,55  L 13,53  L 14,53  L 14,50  L 15,50  L 15,49  L 16,49  L 16,48  L 17,48  L 17,49  L 18,49  L 18,50  L 20,50  L 20,51  L 22,51  L 22,52  L 24,52  L 24,53  L 25,53  L 25,54  L 26,54  L 26,55  L 28,55  L 28,56  L 29,56  L 29,57  L 30,57  L 30,58  L 32,58  L 32,59  L 33,59  L 33,60  L 34,60  L 34,61  L 37,61  L 37,62  L 39,62  L 39,63  L 41,63  L 41,67  L 39,67  L 39,68  L 38,68  L 38,70  L 37,70  L 37,72  L 36,72  L 36,73  L 35,73  L 35,74  L 34,74  L 34,79  L 35,79  L 35,80  L 36,80  L 36,81  L 39,81  L 39,79  L 40,79  L 40,78  L 41,78  L 41,75  L 42,75  L 42,74  L 43,74  L 43,73  L 44,73  L 44,72  L 45,72  L 45,71  L 46,71  L 46,70  L 47,70  L 47,69  L 49,69  L 49,67  L 50,67  L 50,66  L 52,66  L 52,64  L 54,64  L 54,62  L 55,62  L 55,60  L 58,60  L 58,61  L 59,61  L 59,62  L 60,62  L 60,63  L 63,63  L 63,64  L 64,64  L 64,65  L 66,65  L 66,66  L 68,66  L 68,67  L 69,67  L 69,68  L 70,68  L 70,69  L 72,69  L 72,70  L 73,70  L 73,71  L 74,71  L 74,72  L 75,72  L 75,73  L 76,73  L 76,74  L 77,74  L 77,76  L 78,76  L 78,78  L 79,78  L 79,80  L 80,80  L 80,81  L 83,81  L 83,72  L 82,72  L 82,70  L 81,70  L 81,69  L 80,69  L 80,68  L 79,68  L 79,67  L 78,67  L 78,66  L 76,66  L 76,65  L 75,65  L 75,64  L 73,64  L 73,63  L 72,63  L 72,62  L 70,62  L 70,61  L 69,61  L 69,60  L 68,60  L 68,59  L 66,59  L 66,58  L 65,58  L 65,57  L 64,57  L 64,56  L 63,56  L 63,55  L 61,55  L 61,54  L 60,54  L 60,53  L 59,53  L 59,51  L 58,51  L 58,49  L 59,49  L 59,46  L 60,46  L 60,45  L 61,45  Z  " style="fill:rgb(0, 0, 0); fill-opacity:1.000; stroke:none;" />
 <path d="  M 56,124  L 55,124  L 55,125  L 41,125  L 41,99  L 40,99  L 40,98  L 36,98  L 36,99  L 35,99  L 35,100  L 34,100  L 34,101  L 33,101  L 33,110  L 32,110  L 32,111  L 33,111  L 33,113  L 32,113  L 32,119  L 33,119  L 33,120  L 32,120  L 32,123  L 33,123  L 33,126  L 32,126  L 32,128  L 33,128  L 33,134  L 34,134  L 34,141  L 35,141  L 35,147  L 36,147  L 36,152  L 37,152  L 37,156  L 38,156  L 38,158  L 40,158  L 40,159  L 45,159  L 45,160  L 54,160  L 54,159  L 60,159  L 60,158  L 63,158  L 63,157  L 66,157  L 66,156  L 69,156  L 69,155  L 71,155  L 71,154  L 75,154  L 75,153  L 78,153  L 78,152  L 81,152  L 81,151  L 83,151  L 83,150  L 85,150  L 85,149  L 86,149  L 86,148  L 87,148  L 87,146  L 88,146  L 88,136  L 89,136  L 89,128  L 90,128  L 90,104  L 91,104  L 91,102  L 90,102  L 90,101  L 89,101  L 89,100  L 87,100  L 87,99  L 86,99  L 86,100  L 84,100  L 84,101  L 83,101  L 83,107  L 84,107  L 84,108  L 83,108  L 83,109  L 84,109  L 84,123  L 83,123  L 83,124  L 69,124  L 69,125  L 68,125  L 68,124  L 65,124  L 65,125  L 64,125  L 64,124  L 61,124  L 61,125  L 60,125  L 60,124  L 59,124  L 59,125  L 56,125  Z  M 69,149  L 67,149  L 67,150  L 63,150  L 63,151  L 60,151  L 60,152  L 55,152  L 55,153  L 52,153  L 52,154  L 51,154  L 51,153  L 45,153  L 45,152  L 44,152  L 44,151  L 43,151  L 43,148  L 42,148  L 42,139  L 41,139  L 41,136  L 42,136  L 42,133  L 43,133  L 43,132  L 50,132  L 50,131  L 51,131  L 51,132  L 52,132  L 52,131  L 82,131  L 82,139  L 81,139  L 81,143  L 80,143  L 80,145  L 79,145  L 79,146  L 75,146  L 75,147  L 72,147  L 72,148  L 69,148  Z  " style="fill:rgb(0, 0, 0); fill-opacity:1.000; stroke:none;" />
 <path d="  M 103,16  L 102,16  L 102,15  L 103,15  L 103,14  L 102,14  L 102,4  L 101,4  L 101,2  L 100,2  L 100,1  L 97,1  L 97,0  L 96,0  L 96,2  L 95,2  L 95,7  L 96,7  L 96,8  L 95,8  L 95,9  L 96,9  L 96,21  L 97,21  L 97,90  L 98,90  L 98,91  L 99,91  L 99,92  L 102,92  L 102,90  L 103,90  Z  " style="fill:rgb(0, 0, 0); fill-opacity:1.000; stroke:none;" />
</svg>
