<?xml version="1.0" encoding="UTF-8" standalone="no"?>
<!DOCTYPE svg PUBLIC "-//W3C//DTD SVG 1.1//EN" 
  "http://www.w3.org/Graphics/SVG/1.1/DTD/svg11.dtd">
<svg width="98" height="108"
     xmlns="http://www.w3.org/2000/svg" version="1.1">
 <path d="  M 3,63  L 2,63  L 2,69  L 1,69  L 1,80  L 2,80  L 2,82  L 3,82  L 3,83  L 4,83  L 4,85  L 6,85  L 6,86  L 8,86  L 8,87  L 10,87  L 10,88  L 14,88  L 14,89  L 25,89  L 25,88  L 29,88  L 29,87  L 31,87  L 31,86  L 34,86  L 34,85  L 37,85  L 37,84  L 38,84  L 38,83  L 39,83  L 39,82  L 41,82  L 41,81  L 42,81  L 42,80  L 43,80  L 43,79  L 44,79  L 44,78  L 45,78  L 45,77  L 46,77  L 46,75  L 47,75  L 47,74  L 48,74  L 48,72  L 49,72  L 49,71  L 50,71  L 50,70  L 51,70  L 51,66  L 52,66  L 52,58  L 53,58  L 53,37  L 52,37  L 52,36  L 51,36  L 51,35  L 49,35  L 49,34  L 48,34  L 48,33  L 46,33  L 46,32  L 44,32  L 44,31  L 40,31  L 40,30  L 35,30  L 35,29  L 32,29  L 32,28  L 31,28  L 31,29  L 30,29  L 30,28  L 18,28  L 18,29  L 16,29  L 16,30  L 15,30  L 15,32  L 14,32  L 14,33  L 12,33  L 12,37  L 11,37  L 11,39  L 10,39  L 10,40  L 9,40  L 9,43  L 8,43  L 8,47  L 7,47  L 7,51  L 6,51  L 6,53  L 5,53  L 5,55  L 4,55  L 4,57  L 3,57  Z  M 9,80  L 9,79  L 8,79  L 8,78  L 7,78  L 7,77  L 6,77  L 6,74  L 7,74  L 7,70  L 8,70  L 8,69  L 7,69  L 7,66  L 8,66  L 8,63  L 9,63  L 9,59  L 10,59  L 10,57  L 11,57  L 11,56  L 10,56  L 10,55  L 11,55  L 11,54  L 12,54  L 12,51  L 13,51  L 13,50  L 14,50  L 14,47  L 15,47  L 15,45  L 16,45  L 16,43  L 17,43  L 17,42  L 18,42  L 18,40  L 19,40  L 19,39  L 20,39  L 20,38  L 21,38  L 21,36  L 22,36  L 22,34  L 32,34  L 32,35  L 35,35  L 35,36  L 39,36  L 39,37  L 42,37  L 42,38  L 46,38  L 46,39  L 47,39  L 47,57  L 46,57  L 46,64  L 45,64  L 45,67  L 44,67  L 44,69  L 43,69  L 43,71  L 42,71  L 42,73  L 40,73  L 40,75  L 39,75  L 39,76  L 38,76  L 38,77  L 36,77  L 36,78  L 35,78  L 35,79  L 33,79  L 33,80  L 31,80  L 31,81  L 28,81  L 28,82  L 22,82  L 22,83  L 19,83  L 19,82  L 14,82  L 14,81  L 10,81  L 10,80  Z  " style="fill:rgb(0, 0, 0); fill-opacity:1.000; stroke:none;" />
 <path d="  M 68,43  L 67,43  L 67,44  L 68,44  L 68,47  L 67,47  L 67,48  L 68,48  L 68,51  L 67,51  L 67,52  L 68,52  L 68,53  L 67,53  L 67,54  L 68,54  L 68,55  L 67,55  L 67,56  L 68,56  L 68,59  L 67,59  L 67,60  L 68,60  L 68,63  L 67,63  L 67,64  L 68,64  L 68,67  L 67,67  L 67,68  L 68,68  L 68,71  L 67,71  L 67,72  L 68,72  L 68,75  L 67,75  L 67,76  L 68,76  L 68,79  L 67,79  L 67,80  L 68,80  L 68,83  L 67,83  L 67,84  L 68,84  L 68,87  L 67,87  L 67,88  L 68,88  L 68,91  L 67,91  L 67,92  L 68,92  L 68,107  L 69,107  L 69,108  L 75,108  L 75,106  L 76,106  L 76,105  L 75,105  L 75,104  L 76,104  L 76,103  L 75,103  L 75,102  L 76,102  L 76,101  L 75,101  L 75,98  L 76,98  L 76,97  L 75,97  L 75,94  L 76,94  L 76,93  L 75,93  L 75,90  L 76,90  L 76,89  L 75,89  L 75,56  L 76,56  L 76,55  L 82,55  L 82,54  L 85,54  L 85,55  L 86,55  L 86,54  L 87,54  L 87,55  L 88,55  L 88,54  L 89,54  L 89,55  L 90,55  L 90,54  L 97,54  L 97,53  L 98,53  L 98,48  L 97,48  L 97,47  L 84,47  L 84,48  L 82,48  L 82,47  L 81,47  L 81,48  L 75,48  L 75,43  L 74,43  L 74,42  L 75,42  L 75,18  L 76,18  L 76,17  L 75,17  L 75,14  L 76,14  L 76,13  L 75,13  L 75,11  L 76,11  L 76,9  L 75,9  L 75,8  L 76,8  L 76,5  L 75,5  L 75,3  L 76,3  L 76,2  L 75,2  L 75,1  L 74,1  L 74,0  L 73,0  L 73,1  L 72,1  L 72,0  L 71,0  L 71,1  L 70,1  L 70,2  L 69,2  L 69,13  L 68,13  L 68,14  L 69,14  L 69,15  L 68,15  Z  " style="fill:rgb(0, 0, 0); fill-opacity:1.000; stroke:none;" />
</svg>
