<?xml version="1.0" encoding="UTF-8" standalone="no"?>
<!DOCTYPE svg PUBLIC "-//W3C//DTD SVG 1.1//EN" 
  "http://www.w3.org/Graphics/SVG/1.1/DTD/svg11.dtd">
<svg width="111" height="132"
     xmlns="http://www.w3.org/2000/svg" version="1.1">
 <path d="  M 45,64  L 45,63  L 46,63  L 46,62  L 47,62  L 47,61  L 48,61  L 48,59  L 49,59  L 49,58  L 50,58  L 50,56  L 51,56  L 51,54  L 52,54  L 52,50  L 53,50  L 53,41  L 54,41  L 54,40  L 53,40  L 53,39  L 54,39  L 54,38  L 53,38  L 53,37  L 54,37  L 54,36  L 53,36  L 53,28  L 52,28  L 52,26  L 51,26  L 51,25  L 50,25  L 50,24  L 49,24  L 49,23  L 48,23  L 48,22  L 47,22  L 47,21  L 46,21  L 46,20  L 45,20  L 45,19  L 44,19  L 44,18  L 43,18  L 43,17  L 39,17  L 39,16  L 36,16  L 36,15  L 33,15  L 33,14  L 30,14  L 30,13  L 27,13  L 27,12  L 24,12  L 24,11  L 23,11  L 23,10  L 21,10  L 21,11  L 20,11  L 20,12  L 19,12  L 19,14  L 17,14  L 17,15  L 16,15  L 16,16  L 14,16  L 14,18  L 13,18  L 13,19  L 12,19  L 12,21  L 11,21  L 11,22  L 10,22  L 10,23  L 9,23  L 9,25  L 8,25  L 8,27  L 7,27  L 7,29  L 6,29  L 6,31  L 5,31  L 5,34  L 4,34  L 4,37  L 3,37  L 3,40  L 2,40  L 2,46  L 1,46  L 1,54  L 2,54  L 2,55  L 1,55  L 1,56  L 2,56  L 2,59  L 3,59  L 3,63  L 4,63  L 4,64  L 5,64  L 5,65  L 6,65  L 6,66  L 8,66  L 8,68  L 10,68  L 10,69  L 14,69  L 14,70  L 19,70  L 19,71  L 30,71  L 30,70  L 36,70  L 36,69  L 39,69  L 39,68  L 41,68  L 41,67  L 42,67  L 42,66  L 43,66  L 43,65  L 44,65  L 44,64  Z  M 47,48  L 46,48  L 46,51  L 45,51  L 45,53  L 44,53  L 44,55  L 43,55  L 43,57  L 42,57  L 42,58  L 41,58  L 41,59  L 40,59  L 40,61  L 38,61  L 38,62  L 37,62  L 37,63  L 33,63  L 33,64  L 29,64  L 29,65  L 22,65  L 22,64  L 21,64  L 21,65  L 20,65  L 20,64  L 16,64  L 16,63  L 15,63  L 15,62  L 12,62  L 12,61  L 10,61  L 10,60  L 9,60  L 9,58  L 8,58  L 8,56  L 7,56  L 7,44  L 8,44  L 8,41  L 9,41  L 9,37  L 10,37  L 10,35  L 11,35  L 11,33  L 12,33  L 12,30  L 13,30  L 13,29  L 14,29  L 14,27  L 15,27  L 15,26  L 16,26  L 16,24  L 17,24  L 17,23  L 18,23  L 18,22  L 19,22  L 19,21  L 20,21  L 20,19  L 23,19  L 23,18  L 24,18  L 24,19  L 27,19  L 27,20  L 30,20  L 30,21  L 31,21  L 31,20  L 32,20  L 32,21  L 35,21  L 35,22  L 37,22  L 37,23  L 40,23  L 40,24  L 42,24  L 42,25  L 43,25  L 43,26  L 44,26  L 44,27  L 45,27  L 45,28  L 46,28  L 46,29  L 47,29  Z  " style="fill:rgb(0, 0, 0); fill-opacity:1.000; stroke:none;" />
 <path d="  M 55,124  L 54,124  L 54,125  L 47,125  L 47,126  L 40,126  L 40,125  L 37,125  L 37,122  L 36,122  L 36,115  L 35,115  L 35,108  L 34,108  L 34,102  L 33,102  L 33,89  L 32,89  L 32,88  L 29,88  L 29,89  L 28,89  L 28,90  L 27,90  L 27,106  L 28,106  L 28,113  L 29,113  L 29,120  L 30,120  L 30,125  L 31,125  L 31,127  L 32,127  L 32,130  L 33,130  L 33,131  L 36,131  L 36,132  L 53,132  L 53,131  L 62,131  L 62,130  L 67,130  L 67,129  L 75,129  L 75,128  L 87,128  L 87,127  L 88,127  L 88,128  L 90,128  L 90,127  L 91,127  L 91,126  L 92,126  L 92,125  L 93,125  L 93,122  L 92,122  L 92,121  L 91,121  L 91,120  L 89,120  L 89,121  L 88,121  L 88,120  L 86,120  L 86,121  L 82,121  L 82,122  L 71,122  L 71,123  L 63,123  L 63,124  L 56,124  L 56,125  L 55,125  Z  " style="fill:rgb(0, 0, 0); fill-opacity:1.000; stroke:none;" />
 <path d="  M 78,68  L 77,68  L 77,67  L 78,67  L 78,66  L 77,66  L 77,65  L 78,65  L 78,64  L 77,64  L 77,46  L 78,46  L 78,45  L 80,45  L 80,44  L 84,44  L 84,43  L 108,43  L 108,44  L 109,44  L 109,43  L 111,43  L 111,40  L 110,40  L 110,38  L 108,38  L 108,37  L 107,37  L 107,36  L 95,36  L 95,35  L 94,35  L 94,36  L 91,36  L 91,35  L 90,35  L 90,36  L 87,36  L 87,35  L 86,35  L 86,36  L 79,36  L 79,35  L 78,35  L 78,34  L 77,34  L 77,28  L 76,28  L 76,21  L 75,21  L 75,11  L 74,11  L 74,4  L 73,4  L 73,2  L 72,2  L 72,1  L 71,1  L 71,0  L 70,0  L 70,1  L 68,1  L 68,2  L 67,2  L 67,5  L 68,5  L 68,6  L 67,6  L 67,7  L 68,7  L 68,11  L 69,11  L 69,17  L 70,17  L 70,27  L 71,27  L 71,37  L 70,37  L 70,40  L 71,40  L 71,42  L 70,42  L 70,43  L 71,43  L 71,83  L 72,83  L 72,85  L 71,85  L 71,86  L 72,86  L 72,87  L 77,87  L 77,86  L 78,86  L 78,85  L 79,85  L 79,84  L 78,84  Z  " style="fill:rgb(0, 0, 0); fill-opacity:1.000; stroke:none;" />
</svg>
