<?xml version="1.0" encoding="UTF-8" standalone="no"?>
<!DOCTYPE svg PUBLIC "-//W3C//DTD SVG 1.1//EN" 
  "http://www.w3.org/Graphics/SVG/1.1/DTD/svg11.dtd">
<svg width="106" height="128"
     xmlns="http://www.w3.org/2000/svg" version="1.1">
 <path d="  M 3,61  L 5,61  L 5,62  L 6,62  L 6,63  L 7,63  L 7,64  L 9,64  L 9,65  L 12,65  L 12,66  L 15,66  L 15,67  L 20,67  L 20,68  L 23,68  L 23,67  L 24,67  L 24,68  L 26,68  L 26,67  L 29,67  L 29,66  L 33,66  L 33,65  L 35,65  L 35,64  L 38,64  L 38,63  L 40,63  L 40,62  L 42,62  L 42,61  L 43,61  L 43,60  L 44,60  L 44,59  L 45,59  L 45,58  L 46,58  L 46,57  L 47,57  L 47,56  L 48,56  L 48,54  L 49,54  L 49,53  L 50,53  L 50,51  L 51,51  L 51,49  L 52,49  L 52,26  L 50,26  L 50,24  L 49,24  L 49,22  L 48,22  L 48,21  L 47,21  L 47,20  L 46,20  L 46,19  L 45,19  L 45,18  L 43,18  L 43,17  L 42,17  L 42,16  L 38,16  L 38,15  L 34,15  L 34,14  L 31,14  L 31,13  L 26,13  L 26,12  L 24,12  L 24,11  L 20,11  L 20,12  L 19,12  L 19,13  L 18,13  L 18,14  L 17,14  L 17,15  L 16,15  L 16,16  L 14,16  L 14,17  L 13,17  L 13,18  L 12,18  L 12,19  L 11,19  L 11,20  L 10,20  L 10,21  L 9,21  L 9,23  L 8,23  L 8,25  L 7,25  L 7,26  L 6,26  L 6,29  L 5,29  L 5,33  L 4,33  L 4,36  L 3,36  L 3,40  L 2,40  L 2,45  L 1,45  L 1,57  L 2,57  L 2,58  L 3,58  Z  M 39,57  L 37,57  L 37,58  L 35,58  L 35,59  L 31,59  L 31,60  L 28,60  L 28,61  L 18,61  L 18,60  L 14,60  L 14,59  L 12,59  L 12,58  L 10,58  L 10,57  L 9,57  L 9,56  L 8,56  L 8,55  L 7,55  L 7,43  L 8,43  L 8,38  L 9,38  L 9,36  L 10,36  L 10,33  L 11,33  L 11,30  L 12,30  L 12,28  L 13,28  L 13,27  L 14,27  L 14,25  L 15,25  L 15,24  L 16,24  L 16,23  L 17,23  L 17,21  L 18,21  L 18,20  L 19,20  L 19,19  L 20,19  L 20,18  L 28,18  L 28,19  L 33,19  L 33,20  L 35,20  L 35,21  L 39,21  L 39,22  L 41,22  L 41,23  L 43,23  L 43,24  L 44,24  L 44,26  L 45,26  L 45,29  L 46,29  L 46,45  L 45,45  L 45,48  L 44,48  L 44,51  L 43,51  L 43,52  L 42,52  L 42,53  L 41,53  L 41,55  L 40,55  L 40,56  L 39,56  Z  " style="fill:rgb(0, 0, 0); fill-opacity:1.000; stroke:none;" />
 <path d="  M 17,93  L 16,93  L 16,89  L 11,89  L 11,93  L 10,93  L 10,94  L 11,94  L 11,95  L 10,95  L 10,98  L 11,98  L 11,105  L 12,105  L 12,114  L 13,114  L 13,118  L 14,118  L 14,120  L 15,120  L 15,121  L 16,121  L 16,123  L 17,123  L 17,125  L 19,125  L 19,126  L 23,126  L 23,127  L 25,127  L 25,128  L 43,128  L 43,127  L 50,127  L 50,126  L 53,126  L 53,125  L 54,125  L 54,126  L 55,126  L 55,125  L 58,125  L 58,124  L 61,124  L 61,125  L 64,125  L 64,126  L 65,126  L 65,127  L 66,127  L 66,126  L 67,126  L 67,127  L 68,127  L 68,126  L 69,126  L 69,125  L 70,125  L 70,124  L 71,124  L 71,120  L 72,120  L 72,118  L 73,118  L 73,112  L 74,112  L 74,111  L 75,111  L 75,110  L 76,110  L 76,109  L 77,109  L 77,111  L 78,111  L 78,112  L 79,112  L 79,113  L 80,113  L 80,114  L 83,114  L 83,115  L 84,115  L 84,116  L 85,116  L 85,117  L 86,117  L 86,118  L 87,118  L 87,119  L 89,119  L 89,120  L 91,120  L 91,121  L 92,121  L 92,122  L 94,122  L 94,123  L 96,123  L 96,124  L 97,124  L 97,125  L 99,125  L 99,126  L 103,126  L 103,127  L 106,127  L 106,122  L 105,122  L 105,121  L 104,121  L 104,120  L 102,120  L 102,119  L 100,119  L 100,118  L 98,118  L 98,117  L 97,117  L 97,116  L 95,116  L 95,115  L 94,115  L 94,114  L 93,114  L 93,113  L 91,113  L 91,112  L 90,112  L 90,111  L 89,111  L 89,110  L 88,110  L 88,109  L 86,109  L 86,108  L 85,108  L 85,107  L 84,107  L 84,106  L 83,106  L 83,102  L 84,102  L 84,101  L 85,101  L 85,100  L 86,100  L 86,99  L 88,99  L 88,98  L 90,98  L 90,97  L 91,97  L 91,96  L 92,96  L 92,95  L 93,95  L 93,94  L 94,94  L 94,91  L 95,91  L 95,84  L 94,84  L 94,83  L 92,83  L 92,82  L 85,82  L 85,83  L 79,83  L 79,82  L 78,82  L 78,83  L 75,83  L 75,82  L 74,82  L 74,83  L 69,83  L 69,84  L 67,84  L 67,83  L 66,83  L 66,84  L 52,84  L 52,85  L 51,85  L 51,84  L 48,84  L 48,86  L 47,86  L 47,89  L 48,89  L 48,91  L 49,91  L 49,92  L 51,92  L 51,91  L 59,91  L 59,90  L 60,90  L 60,91  L 61,91  L 61,90  L 76,90  L 76,89  L 77,89  L 77,90  L 78,90  L 78,89  L 86,89  L 86,90  L 87,90  L 87,89  L 88,89  L 88,90  L 89,90  L 89,92  L 88,92  L 88,93  L 87,93  L 87,94  L 83,94  L 83,95  L 81,95  L 81,96  L 80,96  L 80,97  L 79,97  L 79,98  L 77,98  L 77,99  L 75,99  L 75,100  L 74,100  L 74,101  L 73,101  L 73,103  L 72,103  L 72,105  L 71,105  L 71,108  L 70,108  L 70,109  L 69,109  L 69,112  L 68,112  L 68,113  L 67,113  L 67,115  L 66,115  L 66,116  L 65,116  L 65,117  L 64,117  L 64,118  L 63,118  L 63,119  L 51,119  L 51,120  L 46,120  L 46,121  L 41,121  L 41,122  L 28,122  L 28,121  L 25,121  L 25,120  L 24,120  L 24,119  L 23,119  L 23,118  L 21,118  L 21,117  L 20,117  L 20,114  L 19,114  L 19,109  L 18,109  L 18,104  L 17,104  Z  " style="fill:rgb(0, 0, 0); fill-opacity:1.000; stroke:none;" />
 <path d="  M 74,19  L 73,19  L 73,18  L 74,18  L 74,17  L 73,17  L 73,9  L 72,9  L 72,2  L 71,2  L 71,1  L 70,1  L 70,0  L 67,0  L 67,3  L 66,3  L 66,8  L 67,8  L 67,18  L 68,18  L 68,26  L 69,26  L 69,77  L 70,77  L 70,79  L 73,79  L 73,80  L 75,80  L 75,79  L 76,79  L 76,41  L 77,41  L 77,40  L 78,40  L 78,39  L 80,39  L 80,38  L 90,38  L 90,37  L 97,37  L 97,36  L 98,36  L 98,37  L 99,37  L 99,36  L 100,36  L 100,37  L 101,37  L 101,36  L 106,36  L 106,33  L 105,33  L 105,31  L 103,31  L 103,30  L 96,30  L 96,31  L 81,31  L 81,32  L 80,32  L 80,31  L 78,31  L 78,32  L 75,32  L 75,30  L 74,30  Z  " style="fill:rgb(0, 0, 0); fill-opacity:1.000; stroke:none;" />
</svg>
