<?xml version="1.0" encoding="UTF-8" standalone="no"?>
<!DOCTYPE svg PUBLIC "-//W3C//DTD SVG 1.1//EN" 
  "http://www.w3.org/Graphics/SVG/1.1/DTD/svg11.dtd">
<svg width="103" height="148"
     xmlns="http://www.w3.org/2000/svg" version="1.1">
 <path d="  M 45,64  L 45,62  L 46,62  L 46,61  L 47,61  L 47,60  L 48,60  L 48,59  L 49,59  L 49,57  L 50,57  L 50,55  L 51,55  L 51,51  L 52,51  L 52,50  L 51,50  L 51,47  L 52,47  L 52,46  L 51,46  L 51,45  L 52,45  L 52,31  L 51,31  L 51,29  L 50,29  L 50,28  L 49,28  L 49,26  L 48,26  L 48,25  L 47,25  L 47,24  L 46,24  L 46,22  L 44,22  L 44,21  L 42,21  L 42,20  L 38,20  L 38,19  L 34,19  L 34,18  L 30,18  L 30,17  L 28,17  L 28,16  L 24,16  L 24,15  L 22,15  L 22,14  L 20,14  L 20,15  L 19,15  L 19,17  L 18,17  L 18,18  L 17,18  L 17,19  L 16,19  L 16,20  L 15,20  L 15,21  L 14,21  L 14,22  L 13,22  L 13,23  L 12,23  L 12,24  L 11,24  L 11,26  L 10,26  L 10,27  L 9,27  L 9,28  L 8,28  L 8,30  L 7,30  L 7,32  L 6,32  L 6,35  L 5,35  L 5,38  L 4,38  L 4,39  L 5,39  L 5,40  L 4,40  L 4,42  L 3,42  L 3,47  L 2,47  L 2,50  L 1,50  L 1,51  L 2,51  L 2,52  L 1,52  L 1,63  L 2,63  L 2,65  L 3,65  L 3,66  L 4,66  L 4,67  L 5,67  L 5,68  L 6,68  L 6,69  L 8,69  L 8,70  L 10,70  L 10,71  L 13,71  L 13,72  L 15,72  L 15,73  L 28,73  L 28,72  L 30,72  L 30,71  L 34,71  L 34,70  L 36,70  L 36,69  L 38,69  L 38,68  L 40,68  L 40,67  L 41,67  L 41,66  L 42,66  L 42,65  L 43,65  L 43,64  Z  M 20,23  L 22,23  L 22,22  L 27,22  L 27,23  L 31,23  L 31,24  L 35,24  L 35,25  L 38,25  L 38,26  L 41,26  L 41,27  L 43,27  L 43,29  L 44,29  L 44,30  L 45,30  L 45,32  L 46,32  L 46,42  L 45,42  L 45,43  L 46,43  L 46,46  L 45,46  L 45,47  L 46,47  L 46,49  L 45,49  L 45,52  L 44,52  L 44,55  L 43,55  L 43,57  L 42,57  L 42,58  L 41,58  L 41,59  L 40,59  L 40,60  L 39,60  L 39,61  L 38,61  L 38,62  L 37,62  L 37,63  L 35,63  L 35,64  L 32,64  L 32,65  L 29,65  L 29,66  L 15,66  L 15,65  L 12,65  L 12,64  L 11,64  L 11,63  L 9,63  L 9,62  L 8,62  L 8,60  L 7,60  L 7,51  L 8,51  L 8,50  L 7,50  L 7,49  L 8,49  L 8,47  L 9,47  L 9,43  L 10,43  L 10,40  L 11,40  L 11,37  L 12,37  L 12,34  L 13,34  L 13,32  L 14,32  L 14,30  L 15,30  L 15,29  L 16,29  L 16,27  L 17,27  L 17,26  L 18,26  L 18,25  L 19,25  L 19,24  L 20,24  Z  " style="fill:rgb(0, 0, 0); fill-opacity:1.000; stroke:none;" />
 <path d="  M 38,133  L 38,132  L 41,132  L 41,131  L 50,131  L 50,132  L 51,132  L 51,131  L 53,131  L 53,129  L 54,129  L 54,127  L 53,127  L 53,125  L 51,125  L 51,124  L 45,124  L 45,125  L 41,125  L 41,126  L 36,126  L 36,127  L 27,127  L 27,126  L 23,126  L 23,125  L 21,125  L 21,124  L 18,124  L 18,123  L 17,123  L 17,121  L 16,121  L 16,117  L 15,117  L 15,116  L 16,116  L 16,114  L 15,114  L 15,103  L 14,103  L 14,102  L 15,102  L 15,98  L 14,98  L 14,97  L 15,97  L 15,96  L 14,96  L 14,95  L 13,95  L 13,94  L 11,94  L 11,95  L 10,95  L 10,96  L 9,96  L 9,98  L 8,98  L 8,99  L 9,99  L 9,100  L 8,100  L 8,101  L 9,101  L 9,119  L 10,119  L 10,124  L 11,124  L 11,125  L 12,125  L 12,128  L 13,128  L 13,129  L 14,129  L 14,130  L 15,130  L 15,131  L 18,131  L 18,132  L 20,132  L 20,133  L 21,133  L 21,132  L 23,132  L 23,133  L 31,133  L 31,134  L 33,134  L 33,133  Z  " style="fill:rgb(0, 0, 0); fill-opacity:1.000; stroke:none;" />
 <path d="  M 91,95  L 91,96  L 90,96  L 90,95  L 89,95  L 89,96  L 88,96  L 88,95  L 87,95  L 87,96  L 78,96  L 78,97  L 74,97  L 74,98  L 68,98  L 68,99  L 63,99  L 63,100  L 57,100  L 57,101  L 54,101  L 54,100  L 53,100  L 53,101  L 48,101  L 48,102  L 44,102  L 44,107  L 47,107  L 47,108  L 50,108  L 50,107  L 54,107  L 54,106  L 55,106  L 55,107  L 57,107  L 57,106  L 62,106  L 62,105  L 68,105  L 68,104  L 69,104  L 69,105  L 70,105  L 70,104  L 77,104  L 77,103  L 78,103  L 78,104  L 79,104  L 79,103  L 99,103  L 99,102  L 100,102  L 100,101  L 101,101  L 101,100  L 102,100  L 102,97  L 101,97  L 101,95  Z  " style="fill:rgb(0, 0, 0); fill-opacity:1.000; stroke:none;" />
 <path d="  M 64,140  L 64,142  L 66,142  L 66,143  L 67,143  L 67,145  L 68,145  L 68,146  L 72,146  L 72,145  L 73,145  L 73,147  L 74,147  L 74,148  L 82,148  L 82,147  L 84,147  L 84,146  L 87,146  L 87,145  L 88,145  L 88,144  L 90,144  L 90,143  L 91,143  L 91,142  L 92,142  L 92,140  L 93,140  L 93,139  L 94,139  L 94,136  L 95,136  L 95,133  L 96,133  L 96,131  L 97,131  L 97,129  L 96,129  L 96,128  L 97,128  L 97,121  L 96,121  L 96,119  L 95,119  L 95,118  L 94,118  L 94,117  L 93,117  L 93,116  L 92,116  L 92,114  L 90,114  L 90,113  L 87,113  L 87,112  L 85,112  L 85,111  L 82,111  L 82,110  L 78,110  L 78,109  L 74,109  L 74,110  L 70,110  L 70,111  L 66,111  L 66,112  L 65,112  L 65,113  L 64,113  L 64,115  L 63,115  L 63,118  L 62,118  L 62,119  L 61,119  L 61,122  L 60,122  L 60,125  L 59,125  L 59,129  L 60,129  L 60,131  L 59,131  L 59,132  L 60,132  L 60,135  L 61,135  L 61,136  L 62,136  L 62,138  L 63,138  L 63,140  Z  M 74,115  L 74,114  L 75,114  L 75,115  L 80,115  L 80,116  L 83,116  L 83,117  L 84,117  L 84,118  L 87,118  L 87,119  L 88,119  L 88,120  L 89,120  L 89,121  L 90,121  L 90,123  L 91,123  L 91,128  L 90,128  L 90,133  L 89,133  L 89,134  L 88,134  L 88,136  L 87,136  L 87,138  L 86,138  L 86,139  L 85,139  L 85,140  L 83,140  L 83,142  L 80,142  L 80,143  L 76,143  L 76,144  L 74,144  L 74,143  L 73,143  L 73,142  L 72,142  L 72,141  L 71,141  L 71,140  L 70,140  L 70,138  L 69,138  L 69,136  L 68,136  L 68,133  L 67,133  L 67,129  L 66,129  L 66,127  L 67,127  L 67,123  L 68,123  L 68,121  L 69,121  L 69,119  L 70,119  L 70,117  L 71,117  L 71,116  L 72,116  L 72,115  Z  " style="fill:rgb(0, 0, 0); fill-opacity:1.000; stroke:none;" />
 <path d="  M 68,23  L 69,23  L 69,39  L 70,39  L 70,64  L 71,64  L 71,67  L 70,67  L 70,68  L 71,68  L 71,84  L 70,84  L 70,85  L 71,85  L 71,87  L 72,87  L 72,89  L 73,89  L 73,92  L 74,92  L 74,94  L 78,94  L 78,93  L 79,93  L 79,86  L 78,86  L 78,84  L 77,84  L 77,82  L 76,82  L 76,80  L 77,80  L 77,78  L 76,78  L 76,77  L 77,77  L 77,58  L 76,58  L 76,57  L 77,57  L 77,56  L 76,56  L 76,55  L 77,55  L 77,54  L 76,54  L 76,44  L 75,44  L 75,43  L 76,43  L 76,40  L 78,40  L 78,39  L 81,39  L 81,38  L 88,38  L 88,37  L 94,37  L 94,36  L 102,36  L 102,35  L 103,35  L 103,30  L 92,30  L 92,31  L 91,31  L 91,30  L 89,30  L 89,31  L 85,31  L 85,32  L 82,32  L 82,31  L 81,31  L 81,32  L 76,32  L 76,31  L 75,31  L 75,26  L 74,26  L 74,25  L 75,25  L 75,24  L 74,24  L 74,6  L 73,6  L 73,1  L 72,1  L 72,0  L 69,0  L 69,1  L 68,1  L 68,2  L 67,2  L 67,3  L 68,3  L 68,8  L 67,8  L 67,9  L 68,9  Z  " style="fill:rgb(0, 0, 0); fill-opacity:1.000; stroke:none;" />
</svg>
