<?xml version="1.0" encoding="UTF-8" standalone="no"?>
<!DOCTYPE svg PUBLIC "-//W3C//DTD SVG 1.1//EN" 
  "http://www.w3.org/Graphics/SVG/1.1/DTD/svg11.dtd">
<svg width="104" height="150"
     xmlns="http://www.w3.org/2000/svg" version="1.1">
 <path d="  M 45,64  L 45,63  L 46,63  L 46,62  L 47,62  L 47,61  L 48,61  L 48,60  L 49,60  L 49,58  L 50,58  L 50,56  L 51,56  L 51,51  L 52,51  L 52,50  L 51,50  L 51,49  L 52,49  L 52,31  L 51,31  L 51,27  L 50,27  L 50,25  L 49,25  L 49,24  L 48,24  L 48,22  L 47,22  L 47,21  L 45,21  L 45,20  L 44,20  L 44,19  L 42,19  L 42,18  L 40,18  L 40,17  L 37,17  L 37,16  L 30,16  L 30,15  L 27,15  L 27,14  L 23,14  L 23,13  L 21,13  L 21,12  L 20,12  L 20,13  L 19,13  L 19,12  L 18,12  L 18,14  L 17,14  L 17,15  L 16,15  L 16,16  L 15,16  L 15,17  L 14,17  L 14,18  L 13,18  L 13,19  L 12,19  L 12,20  L 11,20  L 11,21  L 10,21  L 10,23  L 9,23  L 9,24  L 8,24  L 8,25  L 7,25  L 7,27  L 6,27  L 6,29  L 5,29  L 5,32  L 4,32  L 4,35  L 3,35  L 3,39  L 2,39  L 2,46  L 1,46  L 1,61  L 2,61  L 2,63  L 3,63  L 3,65  L 4,65  L 4,66  L 5,66  L 5,67  L 6,67  L 6,68  L 8,68  L 8,69  L 10,69  L 10,70  L 13,70  L 13,71  L 16,71  L 16,72  L 19,72  L 19,73  L 22,73  L 22,74  L 24,74  L 24,73  L 30,73  L 30,72  L 32,72  L 32,71  L 34,71  L 34,70  L 37,70  L 37,69  L 39,69  L 39,68  L 41,68  L 41,67  L 42,67  L 42,66  L 43,66  L 43,65  L 44,65  L 44,64  Z  M 41,25  L 42,25  L 42,26  L 43,26  L 43,27  L 44,27  L 44,28  L 45,28  L 45,30  L 46,30  L 46,45  L 45,45  L 45,52  L 44,52  L 44,54  L 43,54  L 43,56  L 42,56  L 42,58  L 41,58  L 41,60  L 39,60  L 39,61  L 38,61  L 38,62  L 37,62  L 37,63  L 35,63  L 35,64  L 33,64  L 33,65  L 28,65  L 28,66  L 21,66  L 21,65  L 20,65  L 20,66  L 19,66  L 19,65  L 16,65  L 16,64  L 14,64  L 14,63  L 12,63  L 12,62  L 10,62  L 10,61  L 8,61  L 8,58  L 7,58  L 7,55  L 6,55  L 6,52  L 7,52  L 7,51  L 6,51  L 6,48  L 7,48  L 7,47  L 6,47  L 6,46  L 7,46  L 7,43  L 8,43  L 8,40  L 9,40  L 9,36  L 10,36  L 10,33  L 11,33  L 11,31  L 12,31  L 12,29  L 13,29  L 13,27  L 14,27  L 14,26  L 15,26  L 15,25  L 16,25  L 16,23  L 17,23  L 17,22  L 19,22  L 19,21  L 20,21  L 20,20  L 25,20  L 25,21  L 31,21  L 31,22  L 36,22  L 36,23  L 39,23  L 39,24  L 41,24  Z  " style="fill:rgb(0, 0, 0); fill-opacity:1.000; stroke:none;" />
 <path d="  M 22,123  L 23,123  L 23,124  L 24,124  L 24,123  L 29,123  L 29,122  L 31,122  L 31,121  L 35,121  L 35,120  L 38,120  L 38,119  L 40,119  L 40,118  L 41,118  L 41,117  L 42,117  L 42,116  L 44,116  L 44,115  L 46,115  L 46,108  L 47,108  L 47,107  L 46,107  L 46,104  L 47,104  L 47,103  L 46,103  L 46,102  L 47,102  L 47,100  L 48,100  L 48,99  L 47,99  L 47,98  L 46,98  L 46,97  L 45,97  L 45,96  L 44,96  L 44,95  L 42,95  L 42,94  L 39,94  L 39,93  L 37,93  L 37,92  L 33,92  L 33,91  L 32,91  L 32,92  L 31,92  L 31,91  L 22,91  L 22,92  L 21,92  L 21,91  L 20,91  L 20,92  L 17,92  L 17,91  L 16,91  L 16,92  L 12,92  L 12,93  L 10,93  L 10,98  L 12,98  L 12,99  L 14,99  L 14,98  L 19,98  L 19,97  L 31,97  L 31,98  L 35,98  L 35,99  L 37,99  L 37,100  L 38,100  L 38,110  L 37,110  L 37,112  L 36,112  L 36,113  L 35,113  L 35,115  L 32,115  L 32,116  L 28,116  L 28,117  L 27,117  L 27,116  L 26,116  L 26,117  L 22,117  L 22,118  L 21,118  L 21,117  L 20,117  L 20,118  L 15,118  L 15,119  L 10,119  L 10,120  L 9,120  L 9,122  L 8,122  L 8,123  L 7,123  L 7,124  L 6,124  L 6,127  L 5,127  L 5,136  L 6,136  L 6,142  L 7,142  L 7,144  L 9,144  L 9,145  L 10,145  L 10,147  L 11,147  L 11,148  L 13,148  L 13,149  L 14,149  L 14,150  L 40,150  L 40,149  L 43,149  L 43,148  L 54,148  L 54,147  L 55,147  L 55,146  L 56,146  L 56,145  L 57,145  L 57,142  L 56,142  L 56,139  L 55,139  L 55,138  L 51,138  L 51,139  L 49,139  L 49,140  L 47,140  L 47,141  L 44,141  L 44,142  L 39,142  L 39,143  L 28,143  L 28,144  L 26,144  L 26,143  L 16,143  L 16,142  L 14,142  L 14,141  L 13,141  L 13,139  L 12,139  L 12,127  L 13,127  L 13,126  L 15,126  L 15,125  L 17,125  L 17,124  L 22,124  Z  " style="fill:rgb(0, 0, 0); fill-opacity:1.000; stroke:none;" />
 <path d="  M 84,95  L 84,96  L 81,96  L 81,95  L 80,95  L 80,96  L 77,96  L 77,95  L 76,95  L 76,96  L 73,96  L 73,95  L 72,95  L 72,96  L 69,96  L 69,95  L 68,95  L 68,96  L 65,96  L 65,95  L 64,95  L 64,96  L 60,96  L 60,97  L 59,97  L 59,98  L 57,98  L 57,102  L 58,102  L 58,103  L 57,103  L 57,104  L 58,104  L 58,105  L 57,105  L 57,108  L 58,108  L 58,118  L 59,118  L 59,124  L 60,124  L 60,130  L 61,130  L 61,136  L 62,136  L 62,144  L 61,144  L 61,145  L 62,145  L 62,148  L 63,148  L 63,150  L 69,150  L 69,149  L 70,149  L 70,150  L 72,150  L 72,149  L 79,149  L 79,148  L 81,148  L 81,147  L 84,147  L 84,146  L 85,146  L 85,145  L 86,145  L 86,143  L 87,143  L 87,142  L 88,142  L 88,141  L 89,141  L 89,139  L 90,139  L 90,137  L 91,137  L 91,135  L 92,135  L 92,134  L 93,134  L 93,132  L 94,132  L 94,129  L 95,129  L 95,127  L 96,127  L 96,125  L 97,125  L 97,124  L 98,124  L 98,121  L 99,121  L 99,118  L 100,118  L 100,116  L 101,116  L 101,113  L 102,113  L 102,109  L 103,109  L 103,107  L 102,107  L 102,105  L 101,105  L 101,103  L 100,103  L 100,101  L 99,101  L 99,99  L 97,99  L 97,98  L 95,98  L 95,97  L 89,97  L 89,96  L 85,96  L 85,95  Z  M 65,104  L 66,104  L 66,103  L 67,103  L 67,104  L 68,104  L 68,103  L 71,103  L 71,104  L 72,104  L 72,103  L 75,103  L 75,104  L 76,104  L 76,103  L 79,103  L 79,104  L 80,104  L 80,103  L 83,103  L 83,104  L 84,104  L 84,103  L 87,103  L 87,104  L 88,104  L 88,103  L 89,103  L 89,104  L 92,104  L 92,105  L 93,105  L 93,114  L 92,114  L 92,117  L 91,117  L 91,120  L 90,120  L 90,123  L 89,123  L 89,126  L 88,126  L 88,128  L 87,128  L 87,130  L 86,130  L 86,132  L 85,132  L 85,134  L 84,134  L 84,135  L 83,135  L 83,137  L 82,137  L 82,139  L 81,139  L 81,141  L 80,141  L 80,142  L 79,142  L 79,143  L 74,143  L 74,144  L 68,144  L 68,136  L 67,136  L 67,132  L 68,132  L 68,131  L 67,131  L 67,125  L 66,125  L 66,117  L 65,117  L 65,116  L 66,116  L 66,115  L 65,115  L 65,112  L 66,112  L 66,111  L 65,111  Z  " style="fill:rgb(0, 0, 0); fill-opacity:1.000; stroke:none;" />
 <path d="  M 79,68  L 79,67  L 78,67  L 78,38  L 79,38  L 79,37  L 82,37  L 82,36  L 96,36  L 96,35  L 99,35  L 99,36  L 103,36  L 103,35  L 104,35  L 104,30  L 102,30  L 102,29  L 90,29  L 90,30  L 89,30  L 89,29  L 86,29  L 86,30  L 85,30  L 85,29  L 84,29  L 84,30  L 77,30  L 77,27  L 76,27  L 76,26  L 77,26  L 77,25  L 76,25  L 76,24  L 77,24  L 77,23  L 76,23  L 76,9  L 75,9  L 75,3  L 74,3  L 74,1  L 72,1  L 72,0  L 71,0  L 71,2  L 70,2  L 70,3  L 69,3  L 69,4  L 70,4  L 70,5  L 69,5  L 69,6  L 70,6  L 70,7  L 69,7  L 69,8  L 70,8  L 70,26  L 71,26  L 71,64  L 72,64  L 72,77  L 73,77  L 73,82  L 74,82  L 74,83  L 75,83  L 75,84  L 77,84  L 77,85  L 79,85  L 79,84  L 80,84  L 80,83  L 81,83  L 81,81  L 80,81  L 80,77  L 79,77  L 79,70  L 78,70  L 78,68  Z  " style="fill:rgb(0, 0, 0); fill-opacity:1.000; stroke:none;" />
</svg>
