<?xml version="1.0" encoding="UTF-8" standalone="no"?>
<!DOCTYPE svg PUBLIC "-//W3C//DTD SVG 1.1//EN" 
  "http://www.w3.org/Graphics/SVG/1.1/DTD/svg11.dtd">
<svg width="104" height="156"
     xmlns="http://www.w3.org/2000/svg" version="1.1">
 <path d="  M 29,75  L 29,74  L 32,74  L 32,73  L 33,73  L 33,72  L 35,72  L 35,71  L 37,71  L 37,70  L 39,70  L 39,69  L 40,69  L 40,68  L 42,68  L 42,67  L 43,67  L 43,66  L 44,66  L 44,64  L 45,64  L 45,63  L 46,63  L 46,62  L 47,62  L 47,61  L 48,61  L 48,59  L 49,59  L 49,57  L 50,57  L 50,53  L 51,53  L 51,52  L 50,52  L 50,50  L 51,50  L 51,41  L 52,41  L 52,40  L 51,40  L 51,39  L 52,39  L 52,38  L 51,38  L 51,37  L 52,37  L 52,35  L 51,35  L 51,28  L 50,28  L 50,26  L 49,26  L 49,25  L 48,25  L 48,23  L 47,23  L 47,22  L 45,22  L 45,21  L 44,21  L 44,20  L 43,20  L 43,19  L 41,19  L 41,18  L 37,18  L 37,17  L 33,17  L 33,16  L 28,16  L 28,15  L 25,15  L 25,14  L 22,14  L 22,13  L 20,13  L 20,14  L 18,14  L 18,15  L 17,15  L 17,16  L 16,16  L 16,17  L 15,17  L 15,18  L 14,18  L 14,19  L 13,19  L 13,20  L 12,20  L 12,21  L 11,21  L 11,22  L 10,22  L 10,24  L 9,24  L 9,25  L 8,25  L 8,26  L 7,26  L 7,28  L 6,28  L 6,31  L 5,31  L 5,33  L 4,33  L 4,38  L 3,38  L 3,42  L 2,42  L 2,47  L 1,47  L 1,52  L 0,52  L 0,53  L 1,53  L 1,55  L 0,55  L 0,57  L 1,57  L 1,58  L 0,58  L 0,59  L 1,59  L 1,63  L 2,63  L 2,65  L 3,65  L 3,67  L 4,67  L 4,68  L 6,68  L 6,69  L 7,69  L 7,70  L 8,70  L 8,71  L 10,71  L 10,72  L 14,72  L 14,73  L 16,73  L 16,74  L 18,74  L 18,75  L 23,75  L 23,76  L 26,76  L 26,75  Z  M 29,21  L 29,22  L 34,22  L 34,23  L 37,23  L 37,24  L 40,24  L 40,25  L 41,25  L 41,26  L 42,26  L 42,27  L 43,27  L 43,28  L 44,28  L 44,29  L 45,29  L 45,31  L 46,31  L 46,41  L 45,41  L 45,48  L 44,48  L 44,49  L 45,49  L 45,50  L 44,50  L 44,54  L 43,54  L 43,56  L 42,56  L 42,58  L 41,58  L 41,60  L 40,60  L 40,61  L 39,61  L 39,62  L 38,62  L 38,63  L 37,63  L 37,64  L 35,64  L 35,65  L 34,65  L 34,66  L 30,66  L 30,67  L 27,67  L 27,68  L 22,68  L 22,67  L 21,67  L 21,68  L 20,68  L 20,67  L 17,67  L 17,66  L 13,66  L 13,65  L 12,65  L 12,64  L 9,64  L 9,63  L 8,63  L 8,61  L 7,61  L 7,58  L 6,58  L 6,57  L 7,57  L 7,56  L 6,56  L 6,49  L 7,49  L 7,45  L 8,45  L 8,42  L 9,42  L 9,38  L 10,38  L 10,34  L 11,34  L 11,32  L 12,32  L 12,30  L 13,30  L 13,28  L 14,28  L 14,26  L 16,26  L 16,24  L 17,24  L 17,23  L 18,23  L 18,22  L 20,22  L 20,21  Z  " style="fill:rgb(0, 0, 0); fill-opacity:1.000; stroke:none;" />
 <path d="  M 13,98  L 14,98  L 14,99  L 15,99  L 15,98  L 19,98  L 19,97  L 28,97  L 28,96  L 29,96  L 29,97  L 37,97  L 37,98  L 38,98  L 38,109  L 37,109  L 37,111  L 36,111  L 36,112  L 35,112  L 35,113  L 33,113  L 33,114  L 29,114  L 29,115  L 25,115  L 25,116  L 23,116  L 23,117  L 17,117  L 17,118  L 14,118  L 14,119  L 11,119  L 11,120  L 10,120  L 10,121  L 9,121  L 9,123  L 8,123  L 8,128  L 7,128  L 7,129  L 8,129  L 8,139  L 9,139  L 9,142  L 10,142  L 10,146  L 11,146  L 11,147  L 12,147  L 12,148  L 14,148  L 14,149  L 16,149  L 16,150  L 33,150  L 33,149  L 40,149  L 40,148  L 44,148  L 44,147  L 45,147  L 45,146  L 46,146  L 46,147  L 47,147  L 47,146  L 50,146  L 50,147  L 52,147  L 52,146  L 54,146  L 54,145  L 55,145  L 55,141  L 56,141  L 56,140  L 55,140  L 55,137  L 54,137  L 54,136  L 53,136  L 53,135  L 52,135  L 52,136  L 50,136  L 50,138  L 48,138  L 48,139  L 47,139  L 47,140  L 45,140  L 45,141  L 41,141  L 41,142  L 35,142  L 35,143  L 27,143  L 27,144  L 20,144  L 20,143  L 17,143  L 17,142  L 15,142  L 15,140  L 14,140  L 14,127  L 15,127  L 15,125  L 16,125  L 16,124  L 18,124  L 18,123  L 21,123  L 21,122  L 25,122  L 25,121  L 29,121  L 29,120  L 31,120  L 31,119  L 35,119  L 35,118  L 36,118  L 36,117  L 39,117  L 39,116  L 40,116  L 40,115  L 42,115  L 42,114  L 43,114  L 43,112  L 44,112  L 44,110  L 45,110  L 45,97  L 44,97  L 44,94  L 43,94  L 43,92  L 40,92  L 40,91  L 29,91  L 29,90  L 28,90  L 28,91  L 19,91  L 19,92  L 18,92  L 18,91  L 17,91  L 17,92  L 16,92  L 16,91  L 15,91  L 15,92  L 14,92  L 14,91  L 13,91  L 13,92  L 11,92  L 11,94  L 10,94  L 10,95  L 11,95  L 11,96  L 10,96  L 10,97  L 11,97  L 11,99  L 13,99  Z  " style="fill:rgb(0, 0, 0); fill-opacity:1.000; stroke:none;" />
 <path d="  M 99,35  L 99,34  L 100,34  L 100,35  L 103,35  L 103,34  L 104,34  L 104,30  L 103,30  L 103,28  L 91,28  L 91,29  L 90,29  L 90,28  L 88,28  L 88,29  L 85,29  L 85,30  L 78,30  L 78,31  L 75,31  L 75,28  L 74,28  L 74,27  L 75,27  L 75,26  L 74,26  L 74,10  L 73,10  L 73,9  L 74,9  L 74,8  L 73,8  L 73,6  L 74,6  L 74,5  L 73,5  L 73,2  L 72,2  L 72,1  L 70,1  L 70,0  L 69,0  L 69,1  L 68,1  L 68,26  L 69,26  L 69,43  L 70,43  L 70,44  L 69,44  L 69,50  L 70,50  L 70,53  L 69,53  L 69,54  L 70,54  L 70,57  L 69,57  L 69,58  L 70,58  L 70,69  L 71,69  L 71,70  L 70,70  L 70,71  L 71,71  L 71,82  L 72,82  L 72,84  L 71,84  L 71,88  L 72,88  L 72,94  L 73,94  L 73,97  L 74,97  L 74,98  L 75,98  L 75,99  L 74,99  L 74,100  L 72,100  L 72,101  L 70,101  L 70,102  L 64,102  L 64,103  L 55,103  L 55,104  L 53,104  L 53,105  L 51,105  L 51,110  L 52,110  L 52,111  L 55,111  L 55,110  L 60,110  L 60,109  L 68,109  L 68,108  L 72,108  L 72,107  L 75,107  L 75,106  L 80,106  L 80,105  L 81,105  L 81,106  L 83,106  L 83,105  L 94,105  L 94,106  L 95,106  L 95,105  L 97,105  L 97,106  L 98,106  L 98,105  L 102,105  L 102,104  L 103,104  L 103,103  L 104,103  L 104,101  L 103,101  L 103,99  L 102,99  L 102,97  L 96,97  L 96,98  L 95,98  L 95,97  L 93,97  L 93,98  L 83,98  L 83,97  L 82,97  L 82,96  L 81,96  L 81,94  L 82,94  L 82,89  L 81,89  L 81,88  L 80,88  L 80,87  L 79,87  L 79,86  L 78,86  L 78,81  L 77,81  L 77,66  L 76,66  L 76,65  L 77,65  L 77,63  L 76,63  L 76,46  L 75,46  L 75,45  L 76,45  L 76,44  L 75,44  L 75,40  L 76,40  L 76,38  L 77,38  L 77,37  L 81,37  L 81,36  L 89,36  L 89,35  L 90,35  L 90,36  L 91,36  L 91,35  Z  " style="fill:rgb(0, 0, 0); fill-opacity:1.000; stroke:none;" />
 <path d="  M 95,145  L 95,143  L 96,143  L 96,142  L 97,142  L 97,140  L 98,140  L 98,138  L 99,138  L 99,136  L 100,136  L 100,134  L 101,134  L 101,132  L 102,132  L 102,129  L 103,129  L 103,123  L 102,123  L 102,122  L 100,122  L 100,121  L 96,121  L 96,118  L 95,118  L 95,117  L 93,117  L 93,116  L 91,116  L 91,115  L 87,115  L 87,114  L 84,114  L 84,113  L 79,113  L 79,112  L 72,112  L 72,113  L 69,113  L 69,114  L 68,114  L 68,118  L 67,118  L 67,120  L 66,120  L 66,121  L 65,121  L 65,123  L 64,123  L 64,127  L 63,127  L 63,135  L 62,135  L 62,142  L 63,142  L 63,147  L 64,147  L 64,148  L 63,148  L 63,149  L 64,149  L 64,153  L 65,153  L 65,154  L 66,154  L 66,155  L 67,155  L 67,156  L 77,156  L 77,155  L 80,155  L 80,154  L 83,154  L 83,153  L 85,153  L 85,152  L 87,152  L 87,151  L 88,151  L 88,150  L 90,150  L 90,149  L 91,149  L 91,148  L 92,148  L 92,147  L 93,147  L 93,145  Z  M 92,136  L 91,136  L 91,138  L 90,138  L 90,141  L 89,141  L 89,142  L 88,142  L 88,143  L 87,143  L 87,144  L 86,144  L 86,145  L 85,145  L 85,146  L 83,146  L 83,147  L 82,147  L 82,148  L 80,148  L 80,149  L 70,149  L 70,147  L 69,147  L 69,145  L 68,145  L 68,139  L 67,139  L 67,137  L 68,137  L 68,132  L 69,132  L 69,126  L 70,126  L 70,123  L 71,123  L 71,119  L 72,119  L 72,118  L 74,118  L 74,117  L 77,117  L 77,118  L 80,118  L 80,119  L 82,119  L 82,120  L 86,120  L 86,121  L 89,121  L 89,122  L 91,122  L 91,123  L 93,123  L 93,124  L 94,124  L 94,132  L 93,132  L 93,134  L 92,134  Z  " style="fill:rgb(0, 0, 0); fill-opacity:1.000; stroke:none;" />
</svg>
