<?xml version="1.0" encoding="UTF-8" standalone="no"?>
<!DOCTYPE svg PUBLIC "-//W3C//DTD SVG 1.1//EN" 
  "http://www.w3.org/Graphics/SVG/1.1/DTD/svg11.dtd">
<svg width="103" height="140"
     xmlns="http://www.w3.org/2000/svg" version="1.1">
 <path d="  M 24,21  L 24,22  L 27,22  L 27,23  L 31,23  L 31,24  L 34,24  L 34,25  L 37,25  L 37,26  L 39,26  L 39,27  L 40,27  L 40,28  L 41,28  L 41,29  L 42,29  L 42,31  L 43,31  L 43,33  L 44,33  L 44,39  L 43,39  L 43,40  L 44,40  L 44,43  L 43,43  L 43,49  L 42,49  L 42,51  L 41,51  L 41,54  L 40,54  L 40,55  L 39,55  L 39,56  L 38,56  L 38,57  L 37,57  L 37,58  L 36,58  L 36,59  L 35,59  L 35,60  L 34,60  L 34,61  L 33,61  L 33,62  L 30,62  L 30,63  L 22,63  L 22,64  L 21,64  L 21,63  L 19,63  L 19,64  L 18,64  L 18,63  L 13,63  L 13,62  L 11,62  L 11,61  L 9,61  L 9,60  L 8,60  L 8,55  L 7,55  L 7,48  L 8,48  L 8,44  L 9,44  L 9,40  L 10,40  L 10,37  L 11,37  L 11,35  L 12,35  L 12,33  L 13,33  L 13,30  L 14,30  L 14,28  L 15,28  L 15,26  L 16,26  L 16,25  L 17,25  L 17,24  L 18,24  L 18,22  L 20,22  L 20,21  Z  M 12,68  L 12,69  L 14,69  L 14,70  L 21,70  L 21,69  L 22,69  L 22,70  L 24,70  L 24,69  L 32,69  L 32,68  L 34,68  L 34,67  L 36,67  L 36,66  L 37,66  L 37,65  L 39,65  L 39,64  L 40,64  L 40,63  L 41,63  L 41,62  L 42,62  L 42,61  L 43,61  L 43,59  L 45,59  L 45,57  L 46,57  L 46,56  L 47,56  L 47,54  L 48,54  L 48,53  L 49,53  L 49,45  L 50,45  L 50,30  L 49,30  L 49,29  L 48,29  L 48,28  L 47,28  L 47,27  L 46,27  L 46,25  L 45,25  L 45,24  L 44,24  L 44,23  L 43,23  L 43,22  L 42,22  L 42,21  L 41,21  L 41,20  L 38,20  L 38,19  L 36,19  L 36,18  L 32,18  L 32,17  L 28,17  L 28,16  L 25,16  L 25,15  L 22,15  L 22,14  L 21,14  L 21,13  L 20,13  L 20,14  L 19,14  L 19,15  L 18,15  L 18,16  L 17,16  L 17,17  L 16,17  L 16,18  L 15,18  L 15,19  L 13,19  L 13,20  L 12,20  L 12,21  L 11,21  L 11,23  L 10,23  L 10,24  L 9,24  L 9,26  L 8,26  L 8,28  L 7,28  L 7,30  L 6,30  L 6,33  L 5,33  L 5,35  L 4,35  L 4,39  L 3,39  L 3,42  L 2,42  L 2,50  L 1,50  L 1,61  L 2,61  L 2,63  L 3,63  L 3,65  L 4,65  L 4,66  L 5,66  L 5,67  L 7,67  L 7,68  Z  " style="fill:rgb(0, 0, 0); fill-opacity:1.000; stroke:none;" />
 <path d="  M 65,138  L 65,137  L 66,137  L 66,136  L 69,136  L 69,135  L 72,135  L 72,134  L 74,134  L 74,133  L 76,133  L 76,132  L 77,132  L 77,131  L 78,131  L 78,128  L 79,128  L 79,126  L 80,126  L 80,122  L 81,122  L 81,118  L 82,118  L 82,113  L 83,113  L 83,108  L 84,108  L 84,102  L 85,102  L 85,98  L 86,98  L 86,93  L 85,93  L 85,92  L 84,92  L 84,91  L 81,91  L 81,90  L 67,90  L 67,91  L 59,91  L 59,92  L 57,92  L 57,91  L 56,91  L 56,92  L 52,92  L 52,93  L 37,93  L 37,92  L 30,92  L 30,93  L 29,93  L 29,94  L 28,94  L 28,95  L 27,95  L 27,96  L 26,96  L 26,97  L 25,97  L 25,98  L 26,98  L 26,100  L 28,100  L 28,101  L 31,101  L 31,102  L 32,102  L 32,106  L 33,106  L 33,107  L 32,107  L 32,108  L 33,108  L 33,111  L 32,111  L 32,112  L 33,112  L 33,115  L 32,115  L 32,116  L 33,116  L 33,128  L 34,128  L 34,134  L 35,134  L 35,139  L 38,139  L 38,140  L 56,140  L 56,139  L 61,139  L 61,138  Z  M 45,134  L 45,135  L 44,135  L 44,134  L 42,134  L 42,132  L 41,132  L 41,127  L 40,127  L 40,101  L 42,101  L 42,100  L 48,100  L 48,99  L 50,99  L 50,100  L 52,100  L 52,99  L 59,99  L 59,98  L 65,98  L 65,97  L 66,97  L 66,98  L 67,98  L 67,97  L 76,97  L 76,98  L 78,98  L 78,103  L 77,103  L 77,110  L 76,110  L 76,115  L 75,115  L 75,121  L 74,121  L 74,124  L 73,124  L 73,126  L 72,126  L 72,127  L 71,127  L 71,128  L 70,128  L 70,129  L 67,129  L 67,130  L 64,130  L 64,131  L 60,131  L 60,132  L 57,132  L 57,133  L 54,133  L 54,134  Z  " style="fill:rgb(0, 0, 0); fill-opacity:1.000; stroke:none;" />
 <path d="  M 65,16  L 66,16  L 66,24  L 67,24  L 67,61  L 66,61  L 66,62  L 67,62  L 67,65  L 66,65  L 66,66  L 67,66  L 67,69  L 66,69  L 66,70  L 67,70  L 67,84  L 68,84  L 68,85  L 73,85  L 73,84  L 74,84  L 74,43  L 75,43  L 75,42  L 77,42  L 77,41  L 81,41  L 81,40  L 92,40  L 92,39  L 103,39  L 103,34  L 102,34  L 102,33  L 81,33  L 81,32  L 80,32  L 80,33  L 76,33  L 76,34  L 74,34  L 74,33  L 73,33  L 73,23  L 72,23  L 72,13  L 71,13  L 71,5  L 70,5  L 70,4  L 71,4  L 71,3  L 70,3  L 70,1  L 68,1  L 68,0  L 65,0  L 65,3  L 64,3  L 64,4  L 65,4  L 65,5  L 64,5  L 64,6  L 65,6  Z  " style="fill:rgb(0, 0, 0); fill-opacity:1.000; stroke:none;" />
</svg>
