<?xml version="1.0" encoding="UTF-8" standalone="no"?>
<!DOCTYPE svg PUBLIC "-//W3C//DTD SVG 1.1//EN" 
  "http://www.w3.org/Graphics/SVG/1.1/DTD/svg11.dtd">
<svg width="106" height="137"
     xmlns="http://www.w3.org/2000/svg" version="1.1">
 <path d="  M 25,21  L 25,22  L 29,22  L 29,23  L 35,23  L 35,24  L 37,24  L 37,25  L 39,25  L 39,26  L 40,26  L 40,27  L 42,27  L 42,28  L 43,28  L 43,29  L 44,29  L 44,31  L 45,31  L 45,33  L 46,33  L 46,49  L 45,49  L 45,51  L 44,51  L 44,53  L 43,53  L 43,55  L 42,55  L 42,56  L 41,56  L 41,57  L 40,57  L 40,58  L 39,58  L 39,59  L 38,59  L 38,60  L 36,60  L 36,61  L 32,61  L 32,62  L 26,62  L 26,63  L 15,63  L 15,62  L 11,62  L 11,61  L 9,61  L 9,59  L 8,59  L 8,58  L 7,58  L 7,54  L 6,54  L 6,51  L 7,51  L 7,46  L 8,46  L 8,43  L 9,43  L 9,41  L 10,41  L 10,38  L 11,38  L 11,35  L 12,35  L 12,34  L 13,34  L 13,32  L 14,32  L 14,29  L 15,29  L 15,28  L 16,28  L 16,26  L 17,26  L 17,25  L 18,25  L 18,23  L 19,23  L 19,22  L 20,22  L 20,21  Z  M 52,37  L 51,37  L 51,34  L 52,34  L 52,33  L 51,33  L 51,30  L 50,30  L 50,28  L 49,28  L 49,27  L 48,27  L 48,26  L 47,26  L 47,25  L 46,25  L 46,24  L 45,24  L 45,23  L 44,23  L 44,22  L 43,22  L 43,21  L 41,21  L 41,20  L 38,20  L 38,19  L 34,19  L 34,18  L 30,18  L 30,17  L 26,17  L 26,16  L 22,16  L 22,15  L 21,15  L 21,16  L 19,16  L 19,17  L 18,17  L 18,18  L 17,18  L 17,19  L 15,19  L 15,20  L 14,20  L 14,21  L 12,21  L 12,23  L 11,23  L 11,25  L 10,25  L 10,26  L 9,26  L 9,28  L 8,28  L 8,31  L 7,31  L 7,34  L 6,34  L 6,35  L 5,35  L 5,37  L 4,37  L 4,40  L 3,40  L 3,44  L 2,44  L 2,48  L 1,48  L 1,60  L 2,60  L 2,62  L 3,62  L 3,64  L 4,64  L 4,65  L 5,65  L 5,66  L 6,66  L 6,67  L 7,67  L 7,68  L 10,68  L 10,69  L 15,69  L 15,70  L 22,70  L 22,69  L 23,69  L 23,70  L 24,70  L 24,69  L 30,69  L 30,68  L 34,68  L 34,67  L 37,67  L 37,66  L 39,66  L 39,65  L 41,65  L 41,64  L 42,64  L 42,63  L 44,63  L 44,62  L 45,62  L 45,61  L 46,61  L 46,60  L 47,60  L 47,59  L 48,59  L 48,58  L 49,58  L 49,57  L 50,57  L 50,54  L 51,54  L 51,51  L 52,51  Z  " style="fill:rgb(0, 0, 0); fill-opacity:1.000; stroke:none;" />
 <path d="  M 79,128  L 79,129  L 80,129  L 80,130  L 82,130  L 82,131  L 84,131  L 84,132  L 86,132  L 86,133  L 89,133  L 89,134  L 90,134  L 90,133  L 93,133  L 93,132  L 94,132  L 94,131  L 95,131  L 95,129  L 94,129  L 94,128  L 92,128  L 92,127  L 90,127  L 90,126  L 87,126  L 87,125  L 85,125  L 85,124  L 84,124  L 84,123  L 82,123  L 82,122  L 80,122  L 80,121  L 79,121  L 79,120  L 78,120  L 78,119  L 77,119  L 77,118  L 75,118  L 75,117  L 73,117  L 73,116  L 72,116  L 72,115  L 70,115  L 70,114  L 69,114  L 69,113  L 67,113  L 67,112  L 66,112  L 66,111  L 65,111  L 65,110  L 63,110  L 63,109  L 61,109  L 61,108  L 60,108  L 60,107  L 59,107  L 59,106  L 58,106  L 58,105  L 57,105  L 57,104  L 56,104  L 56,103  L 55,103  L 55,102  L 54,102  L 54,101  L 52,101  L 52,96  L 53,96  L 53,95  L 54,95  L 54,94  L 55,94  L 55,91  L 56,91  L 56,89  L 57,89  L 57,84  L 56,84  L 56,83  L 51,83  L 51,85  L 50,85  L 50,88  L 49,88  L 49,89  L 48,89  L 48,91  L 47,91  L 47,93  L 46,93  L 46,94  L 45,94  L 45,95  L 44,95  L 44,97  L 43,97  L 43,98  L 42,98  L 42,100  L 41,100  L 41,101  L 40,101  L 40,103  L 39,103  L 39,105  L 38,105  L 38,106  L 37,106  L 37,107  L 36,107  L 36,110  L 35,110  L 35,111  L 34,111  L 34,113  L 33,113  L 33,114  L 32,114  L 32,116  L 31,116  L 31,118  L 30,118  L 30,119  L 29,119  L 29,121  L 28,121  L 28,122  L 27,122  L 27,123  L 26,123  L 26,125  L 25,125  L 25,126  L 24,126  L 24,127  L 23,127  L 23,128  L 22,128  L 22,130  L 21,130  L 21,131  L 20,131  L 20,136  L 21,136  L 21,137  L 26,137  L 26,135  L 27,135  L 27,134  L 28,134  L 28,133  L 29,133  L 29,131  L 30,131  L 30,130  L 31,130  L 31,129  L 32,129  L 32,128  L 33,128  L 33,126  L 34,126  L 34,124  L 35,124  L 35,122  L 36,122  L 36,121  L 37,121  L 37,119  L 38,119  L 38,117  L 39,117  L 39,116  L 40,116  L 40,114  L 41,114  L 41,113  L 42,113  L 42,111  L 43,111  L 43,110  L 44,110  L 44,108  L 45,108  L 45,107  L 46,107  L 46,106  L 49,106  L 49,107  L 50,107  L 50,108  L 51,108  L 51,109  L 52,109  L 52,110  L 53,110  L 53,112  L 55,112  L 55,113  L 56,113  L 56,114  L 57,114  L 57,115  L 59,115  L 59,116  L 60,116  L 60,117  L 62,117  L 62,118  L 64,118  L 64,119  L 65,119  L 65,120  L 67,120  L 67,121  L 68,121  L 68,122  L 70,122  L 70,123  L 71,123  L 71,124  L 72,124  L 72,125  L 73,125  L 73,126  L 74,126  L 74,127  L 76,127  L 76,128  Z  " style="fill:rgb(0, 0, 0); fill-opacity:1.000; stroke:none;" />
 <path d="  M 71,26  L 72,26  L 72,39  L 71,39  L 71,58  L 70,58  L 70,59  L 71,59  L 71,60  L 70,60  L 70,80  L 71,80  L 71,81  L 70,81  L 70,83  L 71,83  L 71,84  L 75,84  L 75,83  L 76,83  L 76,82  L 77,82  L 77,81  L 76,81  L 76,80  L 77,80  L 77,77  L 76,77  L 76,75  L 77,75  L 77,74  L 76,74  L 76,68  L 77,68  L 77,67  L 76,67  L 76,66  L 77,66  L 77,65  L 76,65  L 76,64  L 77,64  L 77,61  L 76,61  L 76,60  L 77,60  L 77,43  L 78,43  L 78,42  L 79,42  L 79,41  L 84,41  L 84,40  L 85,40  L 85,41  L 86,41  L 86,40  L 105,40  L 105,39  L 106,39  L 106,36  L 105,36  L 105,35  L 104,35  L 104,34  L 99,34  L 99,33  L 96,33  L 96,34  L 95,34  L 95,33  L 93,33  L 93,34  L 92,34  L 92,33  L 89,33  L 89,34  L 87,34  L 87,33  L 85,33  L 85,34  L 84,34  L 84,33  L 81,33  L 81,34  L 79,34  L 79,33  L 78,33  L 78,31  L 77,31  L 77,19  L 76,19  L 76,13  L 75,13  L 75,3  L 74,3  L 74,1  L 69,1  L 69,10  L 70,10  L 70,16  L 71,16  Z  " style="fill:rgb(0, 0, 0); fill-opacity:1.000; stroke:none;" />
</svg>
