<?xml version="1.0" encoding="UTF-8" standalone="no"?>
<!DOCTYPE svg PUBLIC "-//W3C//DTD SVG 1.1//EN" 
  "http://www.w3.org/Graphics/SVG/1.1/DTD/svg11.dtd">
<svg width="105" height="146"
     xmlns="http://www.w3.org/2000/svg" version="1.1">
 <path d="  M 49,63  L 49,61  L 50,61  L 50,60  L 51,60  L 51,59  L 52,59  L 52,57  L 53,57  L 53,53  L 54,53  L 54,49  L 55,49  L 55,47  L 54,47  L 54,46  L 55,46  L 55,45  L 54,45  L 54,44  L 55,44  L 55,43  L 54,43  L 54,40  L 55,40  L 55,39  L 54,39  L 54,31  L 53,31  L 53,29  L 52,29  L 52,27  L 51,27  L 51,25  L 50,25  L 50,23  L 49,23  L 49,22  L 48,22  L 48,21  L 47,21  L 47,19  L 45,19  L 45,18  L 44,18  L 44,17  L 41,17  L 41,16  L 37,16  L 37,15  L 33,15  L 33,14  L 29,14  L 29,13  L 23,13  L 23,12  L 17,12  L 17,13  L 16,13  L 16,14  L 15,14  L 15,15  L 14,15  L 14,16  L 13,16  L 13,17  L 12,17  L 12,18  L 11,18  L 11,19  L 10,19  L 10,20  L 9,20  L 9,22  L 8,22  L 8,24  L 7,24  L 7,26  L 6,26  L 6,29  L 5,29  L 5,32  L 4,32  L 4,37  L 3,37  L 3,42  L 2,42  L 2,49  L 1,49  L 1,60  L 2,60  L 2,66  L 3,66  L 3,67  L 4,67  L 4,69  L 5,69  L 5,70  L 6,70  L 6,71  L 8,71  L 8,72  L 11,72  L 11,73  L 14,73  L 14,74  L 25,74  L 25,73  L 31,73  L 31,72  L 33,72  L 33,71  L 37,71  L 37,70  L 39,70  L 39,69  L 40,69  L 40,68  L 42,68  L 42,67  L 44,67  L 44,66  L 45,66  L 45,65  L 47,65  L 47,64  L 48,64  L 48,63  Z  M 47,40  L 48,40  L 48,41  L 47,41  L 47,50  L 46,50  L 46,54  L 45,54  L 45,57  L 44,57  L 44,58  L 43,58  L 43,59  L 42,59  L 42,60  L 41,60  L 41,61  L 40,61  L 40,62  L 39,62  L 39,63  L 38,63  L 38,64  L 35,64  L 35,65  L 33,65  L 33,66  L 31,66  L 31,67  L 26,67  L 26,68  L 15,68  L 15,67  L 12,67  L 12,66  L 11,66  L 11,65  L 10,65  L 10,64  L 9,64  L 9,61  L 8,61  L 8,56  L 7,56  L 7,50  L 8,50  L 8,42  L 9,42  L 9,39  L 10,39  L 10,36  L 11,36  L 11,31  L 12,31  L 12,27  L 13,27  L 13,25  L 14,25  L 14,24  L 15,24  L 15,22  L 17,22  L 17,21  L 18,21  L 18,20  L 19,20  L 19,19  L 20,19  L 20,18  L 22,18  L 22,19  L 26,19  L 26,20  L 28,20  L 28,19  L 30,19  L 30,20  L 34,20  L 34,21  L 39,21  L 39,22  L 42,22  L 42,23  L 43,23  L 43,24  L 44,24  L 44,25  L 45,25  L 45,26  L 46,26  L 46,28  L 47,28  Z  " style="fill:rgb(0, 0, 0); fill-opacity:1.000; stroke:none;" />
 <path d="  M 72,99  L 72,98  L 74,98  L 74,99  L 76,99  L 76,98  L 78,98  L 78,99  L 84,99  L 84,100  L 87,100  L 87,101  L 88,101  L 88,102  L 89,102  L 89,103  L 88,103  L 88,104  L 89,104  L 89,109  L 88,109  L 88,112  L 87,112  L 87,114  L 86,114  L 86,117  L 85,117  L 85,120  L 84,120  L 84,124  L 83,124  L 83,129  L 82,129  L 82,130  L 83,130  L 83,131  L 82,131  L 82,144  L 83,144  L 83,146  L 88,146  L 88,145  L 89,145  L 89,127  L 90,127  L 90,121  L 91,121  L 91,118  L 92,118  L 92,116  L 93,116  L 93,114  L 94,114  L 94,112  L 95,112  L 95,111  L 94,111  L 94,110  L 95,110  L 95,108  L 96,108  L 96,99  L 95,99  L 95,98  L 94,98  L 94,97  L 93,97  L 93,96  L 92,96  L 92,95  L 90,95  L 90,94  L 87,94  L 87,93  L 82,93  L 82,92  L 67,92  L 67,93  L 55,93  L 55,94  L 46,94  L 46,95  L 45,95  L 45,94  L 44,94  L 44,95  L 40,95  L 40,96  L 37,96  L 37,97  L 35,97  L 35,102  L 44,102  L 44,101  L 51,101  L 51,100  L 60,100  L 60,99  Z  " style="fill:rgb(0, 0, 0); fill-opacity:1.000; stroke:none;" />
 <path d="  M 74,53  L 73,53  L 73,63  L 72,63  L 72,64  L 73,64  L 73,66  L 72,66  L 72,74  L 73,74  L 73,75  L 75,75  L 75,76  L 76,76  L 76,75  L 78,75  L 78,74  L 79,74  L 79,68  L 80,68  L 80,56  L 81,56  L 81,52  L 82,52  L 82,51  L 81,51  L 81,48  L 82,48  L 82,38  L 85,38  L 85,37  L 93,37  L 93,36  L 98,36  L 98,43  L 99,43  L 99,44  L 98,44  L 98,54  L 97,54  L 97,65  L 96,65  L 96,74  L 95,74  L 95,77  L 96,77  L 96,79  L 98,79  L 98,80  L 99,80  L 99,79  L 102,79  L 102,77  L 103,77  L 103,68  L 104,68  L 104,67  L 103,67  L 103,66  L 104,66  L 104,57  L 105,57  L 105,15  L 104,15  L 104,5  L 103,5  L 103,4  L 99,4  L 99,5  L 98,5  L 98,6  L 97,6  L 97,14  L 98,14  L 98,29  L 97,29  L 97,30  L 92,30  L 92,31  L 83,31  L 83,32  L 82,32  L 82,31  L 80,31  L 80,30  L 79,30  L 79,8  L 80,8  L 80,6  L 79,6  L 79,3  L 78,3  L 78,2  L 77,2  L 77,1  L 76,1  L 76,0  L 74,0  L 74,1  L 73,1  L 73,2  L 72,2  L 72,36  L 73,36  L 73,38  L 72,38  L 72,40  L 73,40  L 73,45  L 74,45  Z  " style="fill:rgb(0, 0, 0); fill-opacity:1.000; stroke:none;" />
 <path d="  M 72,75  L 72,76  L 73,76  L 73,75  Z  " style="fill:rgb(0, 0, 0); fill-opacity:1.000; stroke:none;" />
</svg>
