<?xml version="1.0" encoding="UTF-8" standalone="no"?>
<!DOCTYPE svg PUBLIC "-//W3C//DTD SVG 1.1//EN" 
  "http://www.w3.org/Graphics/SVG/1.1/DTD/svg11.dtd">
<svg width="105" height="162"
     xmlns="http://www.w3.org/2000/svg" version="1.1">
 <path d="  M 49,61  L 50,61  L 50,52  L 51,52  L 51,51  L 50,51  L 50,48  L 51,48  L 51,47  L 50,47  L 50,45  L 51,45  L 51,39  L 50,39  L 50,34  L 49,34  L 49,33  L 48,33  L 48,31  L 47,31  L 47,30  L 46,30  L 46,29  L 44,29  L 44,28  L 43,28  L 43,27  L 42,27  L 42,26  L 40,26  L 40,25  L 38,25  L 38,24  L 37,24  L 37,23  L 34,23  L 34,22  L 32,22  L 32,21  L 29,21  L 29,20  L 25,20  L 25,19  L 19,19  L 19,18  L 16,18  L 16,19  L 15,19  L 15,20  L 14,20  L 14,21  L 13,21  L 13,22  L 12,22  L 12,23  L 11,23  L 11,24  L 10,24  L 10,26  L 9,26  L 9,28  L 8,28  L 8,29  L 7,29  L 7,31  L 6,31  L 6,33  L 5,33  L 5,36  L 4,36  L 4,39  L 3,39  L 3,45  L 2,45  L 2,53  L 1,53  L 1,68  L 2,68  L 2,70  L 3,70  L 3,73  L 4,73  L 4,74  L 5,74  L 5,76  L 7,76  L 7,77  L 10,77  L 10,78  L 14,78  L 14,79  L 19,79  L 19,78  L 24,78  L 24,77  L 28,77  L 28,76  L 32,76  L 32,75  L 36,75  L 36,74  L 38,74  L 38,73  L 40,73  L 40,72  L 42,72  L 42,70  L 44,70  L 44,69  L 46,69  L 46,67  L 47,67  L 47,66  L 48,66  L 48,64  L 49,64  Z  M 29,69  L 29,70  L 26,70  L 26,71  L 20,71  L 20,72  L 16,72  L 16,71  L 12,71  L 12,70  L 10,70  L 10,69  L 9,69  L 9,68  L 8,68  L 8,63  L 7,63  L 7,50  L 8,50  L 8,46  L 9,46  L 9,41  L 10,41  L 10,40  L 11,40  L 11,39  L 10,39  L 10,38  L 11,38  L 11,35  L 12,35  L 12,33  L 13,33  L 13,31  L 14,31  L 14,30  L 15,30  L 15,29  L 16,29  L 16,28  L 17,28  L 17,26  L 19,26  L 19,25  L 22,25  L 22,26  L 25,26  L 25,27  L 31,27  L 31,28  L 34,28  L 34,29  L 36,29  L 36,30  L 38,30  L 38,31  L 40,31  L 40,32  L 41,32  L 41,33  L 42,33  L 42,34  L 43,34  L 43,37  L 44,37  L 44,53  L 43,53  L 43,59  L 42,59  L 42,62  L 41,62  L 41,64  L 40,64  L 40,65  L 38,65  L 38,66  L 37,66  L 37,67  L 35,67  L 35,68  L 33,68  L 33,69  Z  " style="fill:rgb(0, 0, 0); fill-opacity:1.000; stroke:none;" />
 <path d="  M 38,138  L 36,138  L 36,139  L 35,139  L 35,143  L 34,143  L 34,146  L 33,146  L 33,152  L 34,152  L 34,154  L 35,154  L 35,159  L 36,159  L 36,158  L 37,158  L 37,159  L 38,159  L 38,160  L 40,160  L 40,161  L 42,161  L 42,162  L 66,162  L 66,161  L 71,161  L 71,160  L 73,160  L 73,159  L 77,159  L 77,158  L 79,158  L 79,157  L 82,157  L 82,156  L 84,156  L 84,155  L 87,155  L 87,154  L 90,154  L 90,153  L 93,153  L 93,152  L 96,152  L 96,151  L 98,151  L 98,150  L 99,150  L 99,149  L 101,149  L 101,148  L 102,148  L 102,143  L 96,143  L 96,144  L 94,144  L 94,145  L 92,145  L 92,146  L 89,146  L 89,147  L 86,147  L 86,148  L 84,148  L 84,149  L 80,149  L 80,150  L 77,150  L 77,151  L 75,151  L 75,152  L 73,152  L 73,153  L 69,153  L 69,154  L 67,154  L 67,155  L 66,155  L 66,154  L 65,154  L 65,155  L 60,155  L 60,156  L 57,156  L 57,155  L 56,155  L 56,156  L 49,156  L 49,155  L 48,155  L 48,156  L 47,156  L 47,155  L 44,155  L 44,154  L 42,154  L 42,152  L 41,152  L 41,144  L 42,144  L 42,142  L 43,142  L 43,141  L 44,141  L 44,140  L 46,140  L 46,139  L 47,139  L 47,138  L 49,138  L 49,137  L 52,137  L 52,136  L 54,136  L 54,135  L 55,135  L 55,136  L 56,136  L 56,134  L 59,134  L 59,133  L 61,133  L 61,132  L 65,132  L 65,131  L 69,131  L 69,130  L 72,130  L 72,129  L 75,129  L 75,128  L 77,128  L 77,127  L 81,127  L 81,126  L 83,126  L 83,125  L 85,125  L 85,124  L 86,124  L 86,123  L 88,123  L 88,122  L 89,122  L 89,120  L 90,120  L 90,118  L 91,118  L 91,112  L 90,112  L 90,110  L 89,110  L 89,108  L 88,108  L 88,107  L 87,107  L 87,106  L 86,106  L 86,105  L 84,105  L 84,104  L 83,104  L 83,103  L 81,103  L 81,102  L 78,102  L 78,101  L 75,101  L 75,100  L 70,100  L 70,99  L 62,99  L 62,98  L 43,98  L 43,99  L 39,99  L 39,100  L 38,100  L 38,106  L 41,106  L 41,107  L 42,107  L 42,106  L 45,106  L 45,105  L 46,105  L 46,106  L 47,106  L 47,105  L 64,105  L 64,106  L 65,106  L 65,105  L 66,105  L 66,106  L 72,106  L 72,107  L 74,107  L 74,108  L 77,108  L 77,109  L 79,109  L 79,110  L 80,110  L 80,111  L 81,111  L 81,112  L 83,112  L 83,118  L 81,118  L 81,119  L 79,119  L 79,120  L 76,120  L 76,121  L 74,121  L 74,122  L 71,122  L 71,123  L 68,123  L 68,124  L 64,124  L 64,125  L 60,125  L 60,126  L 57,126  L 57,127  L 55,127  L 55,128  L 53,128  L 53,129  L 50,129  L 50,130  L 48,130  L 48,131  L 46,131  L 46,132  L 45,132  L 45,133  L 43,133  L 43,134  L 41,134  L 41,135  L 40,135  L 40,136  L 39,136  L 39,137  L 38,137  Z  " style="fill:rgb(0, 0, 0); fill-opacity:1.000; stroke:none;" />
 <path d="  M 76,2  L 75,2  L 75,1  L 74,1  L 74,0  L 71,0  L 71,1  L 70,1  L 70,3  L 69,3  L 69,4  L 70,4  L 70,10  L 69,10  L 69,11  L 70,11  L 70,13  L 69,13  L 69,43  L 70,43  L 70,48  L 71,48  L 71,49  L 70,49  L 70,50  L 71,50  L 71,53  L 70,53  L 70,54  L 71,54  L 71,57  L 70,57  L 70,58  L 71,58  L 71,61  L 70,61  L 70,62  L 71,62  L 71,65  L 70,65  L 70,66  L 71,66  L 71,67  L 70,67  L 70,68  L 71,68  L 71,69  L 70,69  L 70,84  L 71,84  L 71,86  L 73,86  L 73,87  L 74,87  L 74,86  L 77,86  L 77,84  L 78,84  L 78,57  L 79,57  L 79,55  L 78,55  L 78,54  L 79,54  L 79,42  L 81,42  L 81,41  L 82,41  L 82,42  L 83,42  L 83,41  L 89,41  L 89,40  L 95,40  L 95,39  L 96,39  L 96,40  L 98,40  L 98,72  L 97,72  L 97,73  L 98,73  L 98,74  L 97,74  L 97,75  L 98,75  L 98,76  L 97,76  L 97,79  L 98,79  L 98,80  L 97,80  L 97,92  L 98,92  L 98,93  L 99,93  L 99,94  L 102,94  L 102,93  L 104,93  L 104,91  L 105,91  L 105,90  L 104,90  L 104,88  L 105,88  L 105,86  L 104,86  L 104,84  L 105,84  L 105,83  L 104,83  L 104,80  L 105,80  L 105,21  L 104,21  L 104,7  L 103,7  L 103,5  L 102,5  L 102,4  L 101,4  L 101,3  L 97,3  L 97,5  L 96,5  L 96,8  L 97,8  L 97,18  L 98,18  L 98,31  L 97,31  L 97,32  L 95,32  L 95,33  L 90,33  L 90,34  L 89,34  L 89,33  L 86,33  L 86,34  L 85,34  L 85,33  L 84,33  L 84,34  L 79,34  L 79,35  L 78,35  L 78,34  L 76,34  Z  " style="fill:rgb(0, 0, 0); fill-opacity:1.000; stroke:none;" />
</svg>
