<?xml version="1.0" encoding="UTF-8" standalone="no"?>
<!DOCTYPE svg PUBLIC "-//W3C//DTD SVG 1.1//EN" 
  "http://www.w3.org/Graphics/SVG/1.1/DTD/svg11.dtd">
<svg width="104" height="138"
     xmlns="http://www.w3.org/2000/svg" version="1.1">
 <path d="  M 3,61  L 4,61  L 4,62  L 5,62  L 5,65  L 7,65  L 7,66  L 9,66  L 9,67  L 11,67  L 11,68  L 14,68  L 14,69  L 25,69  L 25,68  L 30,68  L 30,67  L 34,67  L 34,66  L 37,66  L 37,65  L 38,65  L 38,64  L 40,64  L 40,63  L 41,63  L 41,62  L 42,62  L 42,61  L 43,61  L 43,60  L 45,60  L 45,59  L 46,59  L 46,58  L 47,58  L 47,56  L 48,56  L 48,55  L 49,55  L 49,53  L 50,53  L 50,50  L 51,50  L 51,49  L 50,49  L 50,48  L 51,48  L 51,25  L 50,25  L 50,22  L 49,22  L 49,21  L 48,21  L 48,20  L 47,20  L 47,19  L 46,19  L 46,18  L 45,18  L 45,17  L 44,17  L 44,16  L 42,16  L 42,15  L 39,15  L 39,14  L 37,14  L 37,13  L 32,13  L 32,12  L 28,12  L 28,11  L 22,11  L 22,10  L 17,10  L 17,11  L 15,11  L 15,12  L 14,12  L 14,13  L 13,13  L 13,14  L 12,14  L 12,15  L 11,15  L 11,16  L 10,16  L 10,18  L 9,18  L 9,19  L 8,19  L 8,20  L 7,20  L 7,22  L 6,22  L 6,24  L 5,24  L 5,27  L 4,27  L 4,29  L 3,29  L 3,33  L 2,33  L 2,40  L 1,40  L 1,55  L 2,55  L 2,59  L 3,59  Z  M 39,57  L 37,57  L 37,58  L 35,58  L 35,59  L 33,59  L 33,60  L 31,60  L 31,61  L 27,61  L 27,62  L 23,62  L 23,63  L 17,63  L 17,62  L 14,62  L 14,61  L 12,61  L 12,60  L 10,60  L 10,58  L 8,58  L 8,54  L 7,54  L 7,39  L 8,39  L 8,34  L 9,34  L 9,30  L 10,30  L 10,27  L 11,27  L 11,25  L 12,25  L 12,23  L 13,23  L 13,22  L 14,22  L 14,21  L 15,21  L 15,20  L 16,20  L 16,19  L 17,19  L 17,18  L 18,18  L 18,17  L 20,17  L 20,16  L 22,16  L 22,17  L 26,17  L 26,18  L 33,18  L 33,19  L 36,19  L 36,20  L 39,20  L 39,21  L 41,21  L 41,22  L 43,22  L 43,23  L 44,23  L 44,25  L 45,25  L 45,33  L 44,33  L 44,34  L 45,34  L 45,36  L 44,36  L 44,38  L 45,38  L 45,40  L 44,40  L 44,48  L 43,48  L 43,51  L 42,51  L 42,53  L 41,53  L 41,55  L 39,55  Z  " style="fill:rgb(0, 0, 0); fill-opacity:1.000; stroke:none;" />
 <path d="  M 97,112  L 96,112  L 96,117  L 95,117  L 95,123  L 94,123  L 94,127  L 93,127  L 93,131  L 79,131  L 79,132  L 78,132  L 78,131  L 70,131  L 70,132  L 69,132  L 69,131  L 66,131  L 66,132  L 65,132  L 65,131  L 62,131  L 62,132  L 61,132  L 61,131  L 58,131  L 58,132  L 57,132  L 57,131  L 50,131  L 50,130  L 49,130  L 49,98  L 50,98  L 50,96  L 52,96  L 52,95  L 59,95  L 59,94  L 71,94  L 71,93  L 97,93  L 97,94  L 98,94  L 98,103  L 97,103  L 97,104  L 98,104  L 98,105  L 97,105  Z  M 96,138  L 96,137  L 98,137  L 98,136  L 99,136  L 99,135  L 100,135  L 100,134  L 101,134  L 101,131  L 100,131  L 100,127  L 101,127  L 101,120  L 102,120  L 102,114  L 103,114  L 103,108  L 104,108  L 104,89  L 103,89  L 103,86  L 98,86  L 98,87  L 97,87  L 97,86  L 96,86  L 96,87  L 95,87  L 95,86  L 94,86  L 94,87  L 65,87  L 65,88  L 56,88  L 56,89  L 40,89  L 40,90  L 36,90  L 36,91  L 35,91  L 35,92  L 33,92  L 33,93  L 32,93  L 32,95  L 33,95  L 33,98  L 34,98  L 34,97  L 35,97  L 35,98  L 37,98  L 37,99  L 38,99  L 38,98  L 41,98  L 41,99  L 42,99  L 42,126  L 43,126  L 43,127  L 42,127  L 42,128  L 43,128  L 43,133  L 44,133  L 44,134  L 45,134  L 45,135  L 46,135  L 46,136  L 47,136  L 47,137  L 48,137  L 48,138  Z  " style="fill:rgb(0, 0, 0); fill-opacity:1.000; stroke:none;" />
 <path d="  M 91,77  L 94,77  L 94,76  L 97,76  L 97,75  L 98,75  L 98,74  L 99,74  L 99,73  L 98,73  L 98,70  L 99,70  L 99,69  L 98,69  L 98,68  L 99,68  L 99,60  L 100,60  L 100,51  L 101,51  L 101,44  L 102,44  L 102,43  L 101,43  L 101,42  L 102,42  L 102,26  L 101,26  L 101,23  L 100,23  L 100,19  L 99,19  L 99,17  L 98,17  L 98,14  L 97,14  L 97,9  L 96,9  L 96,7  L 95,7  L 95,5  L 89,5  L 89,11  L 90,11  L 90,14  L 91,14  L 91,21  L 92,21  L 92,22  L 93,22  L 93,24  L 94,24  L 94,27  L 92,27  L 92,28  L 88,28  L 88,29  L 83,29  L 83,30  L 82,30  L 82,29  L 80,29  L 80,30  L 76,30  L 76,31  L 73,31  L 73,29  L 72,29  L 72,27  L 73,27  L 73,24  L 72,24  L 72,22  L 73,22  L 73,20  L 72,20  L 72,18  L 73,18  L 73,16  L 72,16  L 72,1  L 71,1  L 71,0  L 70,0  L 70,1  L 67,1  L 67,3  L 66,3  L 66,22  L 67,22  L 67,23  L 66,23  L 66,24  L 67,24  L 67,25  L 66,25  L 66,26  L 67,26  L 67,27  L 66,27  L 66,28  L 67,28  L 67,29  L 66,29  L 66,30  L 67,30  L 67,33  L 66,33  L 66,34  L 67,34  L 67,35  L 66,35  L 66,36  L 67,36  L 67,37  L 66,37  L 66,38  L 67,38  L 67,41  L 66,41  L 66,42  L 67,42  L 67,45  L 66,45  L 66,46  L 67,46  L 67,47  L 66,47  L 66,48  L 67,48  L 67,51  L 66,51  L 66,67  L 65,67  L 65,69  L 66,69  L 66,70  L 65,70  L 65,73  L 70,73  L 70,71  L 71,71  L 71,70  L 72,70  L 72,60  L 73,60  L 73,54  L 74,54  L 74,53  L 73,53  L 73,52  L 74,52  L 74,51  L 73,51  L 73,50  L 74,50  L 74,43  L 73,43  L 73,42  L 74,42  L 74,40  L 73,40  L 73,39  L 74,39  L 74,37  L 75,37  L 75,38  L 76,38  L 76,37  L 78,37  L 78,36  L 83,36  L 83,35  L 89,35  L 89,34  L 94,34  L 94,37  L 95,37  L 95,39  L 94,39  L 94,46  L 93,46  L 93,47  L 94,47  L 94,49  L 93,49  L 93,56  L 92,56  L 92,64  L 91,64  Z  " style="fill:rgb(0, 0, 0); fill-opacity:1.000; stroke:none;" />
</svg>
