<?xml version="1.0" encoding="UTF-8" standalone="no"?>
<!DOCTYPE svg PUBLIC "-//W3C//DTD SVG 1.1//EN" 
  "http://www.w3.org/Graphics/SVG/1.1/DTD/svg11.dtd">
<svg width="106" height="145"
     xmlns="http://www.w3.org/2000/svg" version="1.1">
 <path d="  M 23,21  L 23,20  L 28,20  L 28,21  L 32,21  L 32,22  L 36,22  L 36,23  L 39,23  L 39,24  L 41,24  L 41,25  L 43,25  L 43,26  L 44,26  L 44,28  L 45,28  L 45,29  L 46,29  L 46,35  L 47,35  L 47,37  L 46,37  L 46,49  L 45,49  L 45,52  L 44,52  L 44,53  L 43,53  L 43,54  L 42,54  L 42,56  L 41,56  L 41,57  L 40,57  L 40,58  L 39,58  L 39,59  L 38,59  L 38,60  L 37,60  L 37,61  L 35,61  L 35,62  L 31,62  L 31,63  L 25,63  L 25,64  L 24,64  L 24,63  L 23,63  L 23,64  L 18,64  L 18,63  L 12,63  L 12,62  L 10,62  L 10,61  L 9,61  L 9,60  L 8,60  L 8,59  L 7,59  L 7,52  L 8,52  L 8,47  L 9,47  L 9,44  L 10,44  L 10,41  L 11,41  L 11,38  L 12,38  L 12,35  L 13,35  L 13,33  L 14,33  L 14,31  L 15,31  L 15,29  L 16,29  L 16,27  L 17,27  L 17,25  L 18,25  L 18,24  L 19,24  L 19,23  L 20,23  L 20,21  Z  M 52,35  L 53,35  L 53,34  L 52,34  L 52,28  L 51,28  L 51,27  L 50,27  L 50,25  L 49,25  L 49,24  L 48,24  L 48,23  L 47,23  L 47,22  L 46,22  L 46,21  L 45,21  L 45,20  L 43,20  L 43,19  L 42,19  L 42,18  L 38,18  L 38,17  L 35,17  L 35,16  L 31,16  L 31,15  L 27,15  L 27,14  L 20,14  L 20,16  L 19,16  L 19,17  L 18,17  L 18,18  L 16,18  L 16,19  L 15,19  L 15,20  L 14,20  L 14,21  L 13,21  L 13,22  L 12,22  L 12,24  L 11,24  L 11,25  L 10,25  L 10,28  L 9,28  L 9,29  L 8,29  L 8,32  L 7,32  L 7,34  L 6,34  L 6,37  L 5,37  L 5,40  L 4,40  L 4,44  L 3,44  L 3,49  L 2,49  L 2,53  L 1,53  L 1,56  L 2,56  L 2,57  L 1,57  L 1,62  L 2,62  L 2,63  L 3,63  L 3,65  L 4,65  L 4,66  L 5,66  L 5,67  L 7,67  L 7,68  L 8,68  L 8,69  L 12,69  L 12,70  L 26,70  L 26,69  L 34,69  L 34,68  L 36,68  L 36,67  L 38,67  L 38,66  L 39,66  L 39,65  L 41,65  L 41,64  L 43,64  L 43,63  L 44,63  L 44,61  L 45,61  L 45,60  L 46,60  L 46,59  L 47,59  L 47,58  L 48,58  L 48,56  L 49,56  L 49,55  L 50,55  L 50,54  L 51,54  L 51,51  L 52,51  Z  " style="fill:rgb(0, 0, 0); fill-opacity:1.000; stroke:none;" />
 <path d="  M 73,115  L 74,115  L 74,114  L 73,114  L 73,113  L 74,113  L 74,110  L 75,110  L 75,105  L 76,105  L 76,100  L 77,100  L 77,98  L 76,98  L 76,95  L 75,95  L 75,94  L 74,94  L 74,93  L 73,93  L 73,92  L 67,92  L 67,91  L 62,91  L 62,92  L 61,92  L 61,91  L 60,91  L 60,92  L 52,92  L 52,93  L 51,93  L 51,92  L 50,92  L 50,93  L 42,93  L 42,94  L 34,94  L 34,95  L 32,95  L 32,96  L 31,96  L 31,98  L 30,98  L 30,99  L 31,99  L 31,100  L 33,100  L 33,101  L 35,101  L 35,100  L 36,100  L 36,101  L 37,101  L 37,100  L 39,100  L 39,99  L 43,99  L 43,98  L 44,98  L 44,99  L 46,99  L 46,98  L 49,98  L 49,99  L 50,99  L 50,98  L 55,98  L 55,97  L 56,97  L 56,98  L 57,98  L 57,97  L 67,97  L 67,98  L 69,98  L 69,105  L 68,105  L 68,110  L 67,110  L 67,114  L 66,114  L 66,120  L 65,120  L 65,127  L 64,127  L 64,131  L 63,131  L 63,134  L 62,134  L 62,138  L 61,138  L 61,144  L 62,144  L 62,145  L 67,145  L 67,144  L 68,144  L 68,143  L 69,143  L 69,139  L 70,139  L 70,135  L 71,135  L 71,134  L 70,134  L 70,132  L 71,132  L 71,128  L 72,128  L 72,123  L 73,123  L 73,122  L 72,122  L 72,120  L 73,120  Z  " style="fill:rgb(0, 0, 0); fill-opacity:1.000; stroke:none;" />
 <path d="  M 90,51  L 90,50  L 92,50  L 92,51  L 94,51  L 94,50  L 95,50  L 95,51  L 96,51  L 96,50  L 97,50  L 97,51  L 98,51  L 98,50  L 99,50  L 99,51  L 100,51  L 100,50  L 105,50  L 105,49  L 106,49  L 106,45  L 105,45  L 105,44  L 92,44  L 92,45  L 91,45  L 91,44  L 90,44  L 90,45  L 87,45  L 87,44  L 86,44  L 86,45  L 85,45  L 85,44  L 84,44  L 84,45  L 80,45  L 80,44  L 78,44  L 78,45  L 77,45  L 77,44  L 75,44  L 75,42  L 74,42  L 74,35  L 75,35  L 75,36  L 76,36  L 76,35  L 80,35  L 80,34  L 81,34  L 81,35  L 82,35  L 82,34  L 84,34  L 84,35  L 86,35  L 86,34  L 87,34  L 87,35  L 88,35  L 88,34  L 89,34  L 89,35  L 90,35  L 90,34  L 98,34  L 98,33  L 99,33  L 99,29  L 98,29  L 98,28  L 82,28  L 82,29  L 79,29  L 79,28  L 78,28  L 78,29  L 75,29  L 75,27  L 74,27  L 74,14  L 73,14  L 73,13  L 74,13  L 74,12  L 73,12  L 73,2  L 72,2  L 72,1  L 71,1  L 71,0  L 68,0  L 68,1  L 67,1  L 67,9  L 68,9  L 68,10  L 67,10  L 67,11  L 68,11  L 68,12  L 67,12  L 67,13  L 68,13  L 68,25  L 69,25  L 69,84  L 70,84  L 70,85  L 74,85  L 74,84  L 75,84  L 75,83  L 76,83  L 76,53  L 77,53  L 77,52  L 79,52  L 79,51  L 86,51  L 86,50  L 87,50  L 87,51  Z  " style="fill:rgb(0, 0, 0); fill-opacity:1.000; stroke:none;" />
</svg>
