<?xml version="1.0" encoding="UTF-8" standalone="no"?>
<!DOCTYPE svg PUBLIC "-//W3C//DTD SVG 1.1//EN" 
  "http://www.w3.org/Graphics/SVG/1.1/DTD/svg11.dtd">
<svg width="106" height="148"
     xmlns="http://www.w3.org/2000/svg" version="1.1">
 <path d="  M 45,64  L 45,63  L 46,63  L 46,62  L 47,62  L 47,61  L 48,61  L 48,59  L 49,59  L 49,58  L 50,58  L 50,56  L 51,56  L 51,54  L 52,54  L 52,53  L 51,53  L 51,52  L 52,52  L 52,29  L 51,29  L 51,27  L 50,27  L 50,25  L 49,25  L 49,24  L 48,24  L 48,23  L 47,23  L 47,22  L 46,22  L 46,21  L 45,21  L 45,20  L 44,20  L 44,19  L 41,19  L 41,18  L 38,18  L 38,17  L 35,17  L 35,16  L 31,16  L 31,15  L 28,15  L 28,14  L 24,14  L 24,13  L 22,13  L 22,12  L 20,12  L 20,13  L 19,13  L 19,14  L 18,14  L 18,16  L 16,16  L 16,17  L 15,17  L 15,18  L 14,18  L 14,20  L 12,20  L 12,21  L 11,21  L 11,23  L 10,23  L 10,24  L 9,24  L 9,25  L 8,25  L 8,27  L 7,27  L 7,30  L 6,30  L 6,32  L 5,32  L 5,35  L 4,35  L 4,40  L 3,40  L 3,45  L 2,45  L 2,52  L 1,52  L 1,58  L 2,58  L 2,62  L 3,62  L 3,63  L 4,63  L 4,65  L 5,65  L 5,66  L 6,66  L 6,67  L 7,67  L 7,68  L 9,68  L 9,69  L 12,69  L 12,70  L 14,70  L 14,71  L 16,71  L 16,72  L 18,72  L 18,73  L 19,73  L 19,72  L 20,72  L 20,73  L 27,73  L 27,72  L 30,72  L 30,71  L 33,71  L 33,70  L 36,70  L 36,69  L 37,69  L 37,68  L 39,68  L 39,67  L 41,67  L 41,66  L 43,66  L 43,65  L 44,65  L 44,64  Z  M 47,42  L 46,42  L 46,51  L 45,51  L 45,53  L 44,53  L 44,55  L 43,55  L 43,58  L 41,58  L 41,59  L 40,59  L 40,60  L 39,60  L 39,61  L 38,61  L 38,62  L 35,62  L 35,63  L 34,63  L 34,64  L 32,64  L 32,65  L 25,65  L 25,66  L 24,66  L 24,65  L 17,65  L 17,64  L 14,64  L 14,63  L 12,63  L 12,62  L 11,62  L 11,61  L 9,61  L 9,60  L 8,60  L 8,57  L 7,57  L 7,46  L 8,46  L 8,42  L 9,42  L 9,39  L 10,39  L 10,37  L 11,37  L 11,34  L 12,34  L 12,31  L 13,31  L 13,29  L 14,29  L 14,28  L 15,28  L 15,26  L 16,26  L 16,24  L 18,24  L 18,22  L 19,22  L 19,21  L 21,21  L 21,20  L 28,20  L 28,21  L 31,21  L 31,22  L 34,22  L 34,23  L 39,23  L 39,24  L 40,24  L 40,25  L 43,25  L 43,26  L 44,26  L 44,27  L 45,27  L 45,28  L 46,28  L 46,30  L 47,30  Z  " style="fill:rgb(0, 0, 0); fill-opacity:1.000; stroke:none;" />
 <path d="  M 72,142  L 67,142  L 67,128  L 66,128  L 66,122  L 65,122  L 65,120  L 66,120  L 66,118  L 90,118  L 90,119  L 89,119  L 89,121  L 88,121  L 88,122  L 89,122  L 89,123  L 88,123  L 88,126  L 87,126  L 87,128  L 86,128  L 86,130  L 85,130  L 85,131  L 84,131  L 84,133  L 83,133  L 83,135  L 82,135  L 82,137  L 81,137  L 81,138  L 80,138  L 80,139  L 79,139  L 79,140  L 76,140  L 76,141  L 72,141  Z  M 57,112  L 58,112  L 58,113  L 57,113  L 57,114  L 58,114  L 58,121  L 59,121  L 59,126  L 60,126  L 60,134  L 61,134  L 61,141  L 60,141  L 60,142  L 59,142  L 59,141  L 58,141  L 58,140  L 57,140  L 57,139  L 56,139  L 56,138  L 55,138  L 55,137  L 51,137  L 51,138  L 49,138  L 49,139  L 45,139  L 45,140  L 42,140  L 42,141  L 33,141  L 33,142  L 30,142  L 30,141  L 29,141  L 29,142  L 26,142  L 26,141  L 25,141  L 25,142  L 22,142  L 22,141  L 17,141  L 17,140  L 16,140  L 16,139  L 15,139  L 15,137  L 14,137  L 14,127  L 15,127  L 15,125  L 16,125  L 16,124  L 18,124  L 18,123  L 21,123  L 21,122  L 25,122  L 25,121  L 30,121  L 30,120  L 34,120  L 34,119  L 38,119  L 38,118  L 41,118  L 41,117  L 43,117  L 43,116  L 44,116  L 44,115  L 45,115  L 45,114  L 46,114  L 46,96  L 45,96  L 45,94  L 44,94  L 44,93  L 42,93  L 42,92  L 36,92  L 36,91  L 19,91  L 19,92  L 18,92  L 18,91  L 17,91  L 17,92  L 10,92  L 10,93  L 8,93  L 8,94  L 7,94  L 7,96  L 8,96  L 8,99  L 9,99  L 9,100  L 10,100  L 10,99  L 11,99  L 11,100  L 12,100  L 12,99  L 14,99  L 14,98  L 18,98  L 18,97  L 24,97  L 24,96  L 26,96  L 26,97  L 36,97  L 36,98  L 37,98  L 37,100  L 38,100  L 38,103  L 39,103  L 39,104  L 38,104  L 38,110  L 37,110  L 37,113  L 36,113  L 36,114  L 33,114  L 33,115  L 32,115  L 32,114  L 31,114  L 31,115  L 27,115  L 27,116  L 26,116  L 26,115  L 25,115  L 25,116  L 21,116  L 21,117  L 16,117  L 16,118  L 12,118  L 12,119  L 10,119  L 10,121  L 9,121  L 9,122  L 8,122  L 8,124  L 7,124  L 7,137  L 8,137  L 8,138  L 7,138  L 7,139  L 8,139  L 8,141  L 9,141  L 9,142  L 10,142  L 10,143  L 11,143  L 11,145  L 12,145  L 12,146  L 14,146  L 14,147  L 15,147  L 15,148  L 38,148  L 38,147  L 39,147  L 39,148  L 40,148  L 40,147  L 44,147  L 44,146  L 54,146  L 54,145  L 57,145  L 57,144  L 60,144  L 60,145  L 61,145  L 61,146  L 63,146  L 63,147  L 64,147  L 64,148  L 65,148  L 65,147  L 68,147  L 68,148  L 69,148  L 69,147  L 78,147  L 78,146  L 81,146  L 81,145  L 82,145  L 82,144  L 84,144  L 84,143  L 85,143  L 85,142  L 86,142  L 86,141  L 87,141  L 87,139  L 88,139  L 88,138  L 89,138  L 89,137  L 90,137  L 90,135  L 91,135  L 91,132  L 92,132  L 92,130  L 93,130  L 93,129  L 94,129  L 94,127  L 95,127  L 95,124  L 96,124  L 96,122  L 97,122  L 97,119  L 98,119  L 98,117  L 99,117  L 99,115  L 100,115  L 100,112  L 101,112  L 101,107  L 100,107  L 100,103  L 99,103  L 99,101  L 98,101  L 98,98  L 97,98  L 97,97  L 95,97  L 95,95  L 93,95  L 93,94  L 92,94  L 92,93  L 88,93  L 88,98  L 89,98  L 89,108  L 90,108  L 90,109  L 91,109  L 91,110  L 90,110  L 90,111  L 64,111  L 64,108  L 65,108  L 65,101  L 64,101  L 64,98  L 65,98  L 65,97  L 64,97  L 64,92  L 62,92  L 62,91  L 58,91  L 58,92  L 57,92  L 57,93  L 56,93  L 56,100  L 57,100  Z  " style="fill:rgb(0, 0, 0); fill-opacity:1.000; stroke:none;" />
 <path d="  M 70,40  L 69,40  L 69,41  L 70,41  L 70,68  L 71,68  L 71,78  L 72,78  L 72,80  L 74,80  L 74,81  L 75,81  L 75,80  L 78,80  L 78,77  L 77,77  L 77,67  L 76,67  L 76,51  L 77,51  L 77,50  L 78,50  L 78,49  L 81,49  L 81,48  L 84,48  L 84,47  L 104,47  L 104,46  L 105,46  L 105,47  L 106,47  L 106,42  L 105,42  L 105,41  L 103,41  L 103,40  L 89,40  L 89,41  L 88,41  L 88,40  L 85,40  L 85,41  L 76,41  L 76,38  L 75,38  L 75,32  L 76,32  L 76,31  L 78,31  L 78,30  L 81,30  L 81,29  L 82,29  L 82,30  L 84,30  L 84,29  L 88,29  L 88,28  L 93,28  L 93,27  L 98,27  L 98,26  L 100,26  L 100,25  L 101,25  L 101,21  L 93,21  L 93,22  L 89,22  L 89,23  L 84,23  L 84,24  L 82,24  L 82,25  L 80,25  L 80,26  L 78,26  L 78,27  L 77,27  L 77,28  L 75,28  L 75,27  L 76,27  L 76,26  L 75,26  L 75,25  L 74,25  L 74,21  L 73,21  L 73,11  L 72,11  L 72,10  L 73,10  L 73,9  L 72,9  L 72,3  L 71,3  L 71,1  L 66,1  L 66,12  L 67,12  L 67,20  L 68,20  L 68,29  L 69,29  L 69,38  L 70,38  Z  " style="fill:rgb(0, 0, 0); fill-opacity:1.000; stroke:none;" />
</svg>
