<?xml version="1.0" encoding="UTF-8" standalone="no"?>
<!DOCTYPE svg PUBLIC "-//W3C//DTD SVG 1.1//EN" 
  "http://www.w3.org/Graphics/SVG/1.1/DTD/svg11.dtd">
<svg width="107" height="158"
     xmlns="http://www.w3.org/2000/svg" version="1.1">
 <path d="  M 25,21  L 25,22  L 30,22  L 30,23  L 32,23  L 32,24  L 33,24  L 33,23  L 34,23  L 34,24  L 36,24  L 36,25  L 38,25  L 38,26  L 40,26  L 40,27  L 41,27  L 41,28  L 43,28  L 43,30  L 44,30  L 44,33  L 45,33  L 45,40  L 44,40  L 44,45  L 43,45  L 43,48  L 42,48  L 42,51  L 41,51  L 41,53  L 40,53  L 40,54  L 39,54  L 39,55  L 38,55  L 38,57  L 36,57  L 36,58  L 35,58  L 35,59  L 34,59  L 34,60  L 31,60  L 31,61  L 26,61  L 26,62  L 14,62  L 14,61  L 11,61  L 11,60  L 10,60  L 10,59  L 9,59  L 9,57  L 8,57  L 8,56  L 7,56  L 7,54  L 8,54  L 8,53  L 7,53  L 7,46  L 8,46  L 8,45  L 7,45  L 7,44  L 8,44  L 8,41  L 9,41  L 9,38  L 10,38  L 10,34  L 11,34  L 11,31  L 12,31  L 12,29  L 13,29  L 13,27  L 14,27  L 14,26  L 15,26  L 15,25  L 16,25  L 16,24  L 17,24  L 17,23  L 18,23  L 18,22  L 19,22  L 19,21  Z  M 11,68  L 14,68  L 14,69  L 17,69  L 17,70  L 18,70  L 18,69  L 19,69  L 19,70  L 22,70  L 22,69  L 23,69  L 23,70  L 26,70  L 26,69  L 30,69  L 30,68  L 33,68  L 33,67  L 35,67  L 35,66  L 36,66  L 36,65  L 37,65  L 37,64  L 38,64  L 38,63  L 39,63  L 39,62  L 41,62  L 41,61  L 42,61  L 42,60  L 43,60  L 43,59  L 44,59  L 44,57  L 45,57  L 45,56  L 46,56  L 46,55  L 47,55  L 47,54  L 48,54  L 48,51  L 49,51  L 49,49  L 50,49  L 50,41  L 51,41  L 51,31  L 50,31  L 50,29  L 49,29  L 49,27  L 48,27  L 48,25  L 47,25  L 47,24  L 46,24  L 46,23  L 45,23  L 45,22  L 44,22  L 44,21  L 42,21  L 42,20  L 40,20  L 40,19  L 38,19  L 38,18  L 35,18  L 35,17  L 32,17  L 32,16  L 29,16  L 29,15  L 26,15  L 26,14  L 23,14  L 23,13  L 21,13  L 21,12  L 20,12  L 20,13  L 18,13  L 18,14  L 17,14  L 17,15  L 16,15  L 16,16  L 15,16  L 15,17  L 13,17  L 13,19  L 11,19  L 11,21  L 10,21  L 10,22  L 9,22  L 9,23  L 8,23  L 8,25  L 7,25  L 7,27  L 6,27  L 6,29  L 5,29  L 5,31  L 4,31  L 4,37  L 3,37  L 3,41  L 2,41  L 2,49  L 1,49  L 1,55  L 2,55  L 2,62  L 3,62  L 3,63  L 4,63  L 4,65  L 6,65  L 6,66  L 8,66  L 8,67  L 11,67  Z  " style="fill:rgb(0, 0, 0); fill-opacity:1.000; stroke:none;" />
 <path d="  M 56,96  L 55,96  L 55,91  L 54,91  L 54,89  L 53,89  L 53,86  L 52,86  L 52,84  L 51,84  L 51,81  L 50,81  L 50,80  L 49,80  L 49,79  L 44,79  L 44,85  L 45,85  L 45,87  L 46,87  L 46,90  L 47,90  L 47,94  L 48,94  L 48,97  L 49,97  L 49,99  L 50,99  L 50,102  L 49,102  L 49,103  L 35,103  L 35,104  L 34,104  L 34,103  L 33,103  L 33,104  L 24,104  L 24,105  L 23,105  L 23,109  L 25,109  L 25,110  L 39,110  L 39,109  L 40,109  L 40,110  L 43,110  L 43,109  L 44,109  L 44,110  L 53,110  L 53,109  L 56,109  L 56,110  L 57,110  L 57,109  L 64,109  L 64,108  L 68,108  L 68,107  L 71,107  L 71,106  L 77,106  L 77,105  L 84,105  L 84,104  L 87,104  L 87,103  L 90,103  L 90,97  L 84,97  L 84,98  L 82,98  L 82,97  L 81,97  L 81,98  L 75,98  L 75,99  L 67,99  L 67,100  L 64,100  L 64,101  L 62,101  L 62,102  L 58,102  L 58,101  L 57,101  L 57,99  L 56,99  Z  " style="fill:rgb(0, 0, 0); fill-opacity:1.000; stroke:none;" />
 <path d="  M 69,147  L 69,148  L 67,148  L 67,149  L 65,149  L 65,150  L 62,150  L 62,151  L 53,151  L 53,150  L 50,150  L 50,149  L 49,149  L 49,148  L 46,148  L 46,147  L 44,147  L 44,146  L 43,146  L 43,145  L 42,145  L 42,144  L 43,144  L 43,143  L 42,143  L 42,141  L 43,141  L 43,138  L 44,138  L 44,135  L 45,135  L 45,133  L 46,133  L 46,131  L 47,131  L 47,129  L 48,129  L 48,128  L 49,128  L 49,126  L 50,126  L 50,125  L 51,125  L 51,124  L 52,124  L 52,123  L 53,123  L 53,122  L 55,122  L 55,121  L 59,121  L 59,122  L 62,122  L 62,123  L 65,123  L 65,124  L 67,124  L 67,125  L 69,125  L 69,126  L 72,126  L 72,127  L 73,127  L 73,128  L 74,128  L 74,130  L 75,130  L 75,132  L 76,132  L 76,141  L 75,141  L 75,143  L 74,143  L 74,144  L 73,144  L 73,145  L 72,145  L 72,146  L 71,146  L 71,147  Z  M 38,135  L 38,137  L 37,137  L 37,140  L 36,140  L 36,147  L 37,147  L 37,149  L 38,149  L 38,151  L 39,151  L 39,152  L 40,152  L 40,153  L 42,153  L 42,154  L 44,154  L 44,155  L 47,155  L 47,156  L 51,156  L 51,157  L 53,157  L 53,158  L 64,158  L 64,157  L 65,157  L 65,156  L 67,156  L 67,155  L 69,155  L 69,154  L 70,154  L 70,153  L 72,153  L 72,152  L 73,152  L 73,151  L 75,151  L 75,150  L 76,150  L 76,149  L 77,149  L 77,148  L 78,148  L 78,147  L 79,147  L 79,146  L 80,146  L 80,144  L 81,144  L 81,141  L 82,141  L 82,138  L 83,138  L 83,132  L 82,132  L 82,129  L 81,129  L 81,126  L 80,126  L 80,125  L 79,125  L 79,123  L 78,123  L 78,122  L 77,122  L 77,121  L 76,121  L 76,120  L 74,120  L 74,119  L 73,119  L 73,118  L 70,118  L 70,117  L 68,117  L 68,116  L 65,116  L 65,115  L 62,115  L 62,114  L 52,114  L 52,115  L 50,115  L 50,117  L 49,117  L 49,118  L 48,118  L 48,119  L 47,119  L 47,120  L 46,120  L 46,122  L 45,122  L 45,123  L 44,123  L 44,125  L 43,125  L 43,128  L 42,128  L 42,130  L 41,130  L 41,131  L 40,131  L 40,133  L 39,133  L 39,135  Z  " style="fill:rgb(0, 0, 0); fill-opacity:1.000; stroke:none;" />
 <path d="  M 98,42  L 97,42  L 97,41  L 96,41  L 96,42  L 87,42  L 87,43  L 82,43  L 82,44  L 75,44  L 75,43  L 74,43  L 74,39  L 73,39  L 73,38  L 74,38  L 74,36  L 73,36  L 73,32  L 74,32  L 74,31  L 75,31  L 75,30  L 77,30  L 77,29  L 84,29  L 84,28  L 87,28  L 87,27  L 98,27  L 98,26  L 103,26  L 103,25  L 104,25  L 104,22  L 105,22  L 105,21  L 104,21  L 104,20  L 88,20  L 88,21  L 86,21  L 86,20  L 85,20  L 85,21  L 82,21  L 82,22  L 80,22  L 80,23  L 79,23  L 79,24  L 77,24  L 77,25  L 74,25  L 74,24  L 73,24  L 73,2  L 72,2  L 72,1  L 71,1  L 71,0  L 69,0  L 69,1  L 66,1  L 66,2  L 67,2  L 67,3  L 66,3  L 66,6  L 67,6  L 67,37  L 68,37  L 68,39  L 67,39  L 67,78  L 68,78  L 68,79  L 67,79  L 67,80  L 68,80  L 68,82  L 69,82  L 69,83  L 71,83  L 71,82  L 72,82  L 72,81  L 73,81  L 73,79  L 74,79  L 74,58  L 75,58  L 75,57  L 74,57  L 74,54  L 75,54  L 75,52  L 76,52  L 76,51  L 78,51  L 78,50  L 86,50  L 86,49  L 94,49  L 94,48  L 95,48  L 95,49  L 96,49  L 96,48  L 101,48  L 101,47  L 106,47  L 106,46  L 107,46  L 107,41  L 106,41  L 106,40  L 105,40  L 105,39  L 104,39  L 104,40  L 101,40  L 101,41  L 98,41  Z  " style="fill:rgb(0, 0, 0); fill-opacity:1.000; stroke:none;" />
</svg>
