<?xml version="1.0" encoding="UTF-8" standalone="no"?>
<!DOCTYPE svg PUBLIC "-//W3C//DTD SVG 1.1//EN" 
  "http://www.w3.org/Graphics/SVG/1.1/DTD/svg11.dtd">
<svg width="106" height="165"
     xmlns="http://www.w3.org/2000/svg" version="1.1">
 <path d="  M 49,41  L 48,41  L 48,37  L 47,37  L 47,35  L 46,35  L 46,34  L 45,34  L 45,32  L 43,32  L 43,31  L 42,31  L 42,30  L 41,30  L 41,29  L 39,29  L 39,28  L 37,28  L 37,27  L 35,27  L 35,26  L 32,26  L 32,25  L 29,25  L 29,24  L 23,24  L 23,23  L 18,23  L 18,22  L 16,22  L 16,23  L 14,23  L 14,24  L 13,24  L 13,25  L 12,25  L 12,26  L 11,26  L 11,28  L 10,28  L 10,30  L 9,30  L 9,31  L 8,31  L 8,32  L 7,32  L 7,34  L 6,34  L 6,37  L 5,37  L 5,40  L 4,40  L 4,42  L 3,42  L 3,43  L 4,43  L 4,44  L 3,44  L 3,48  L 2,48  L 2,55  L 1,55  L 1,62  L 0,62  L 0,63  L 1,63  L 1,66  L 0,66  L 0,67  L 1,67  L 1,75  L 2,75  L 2,78  L 3,78  L 3,79  L 4,79  L 4,80  L 5,80  L 5,81  L 6,81  L 6,82  L 8,82  L 8,83  L 12,83  L 12,84  L 15,84  L 15,85  L 16,85  L 16,84  L 23,84  L 23,83  L 25,83  L 25,82  L 26,82  L 26,83  L 27,83  L 27,82  L 29,82  L 29,81  L 32,81  L 32,80  L 34,80  L 34,79  L 35,79  L 35,80  L 36,80  L 36,79  L 38,79  L 38,78  L 40,78  L 40,77  L 41,77  L 41,76  L 42,76  L 42,75  L 43,75  L 43,74  L 44,74  L 44,73  L 45,73  L 45,72  L 46,72  L 46,70  L 47,70  L 47,68  L 48,68  L 48,66  L 49,66  Z  M 12,37  L 13,37  L 13,35  L 14,35  L 14,34  L 15,34  L 15,33  L 16,33  L 16,32  L 17,32  L 17,31  L 18,31  L 18,30  L 19,30  L 19,29  L 22,29  L 22,30  L 26,30  L 26,31  L 32,31  L 32,32  L 35,32  L 35,33  L 37,33  L 37,34  L 39,34  L 39,35  L 40,35  L 40,37  L 41,37  L 41,39  L 42,39  L 42,60  L 41,60  L 41,62  L 42,62  L 42,63  L 41,63  L 41,66  L 40,66  L 40,68  L 39,68  L 39,70  L 38,70  L 38,71  L 37,71  L 37,72  L 36,72  L 36,73  L 35,73  L 35,74  L 33,74  L 33,75  L 27,75  L 27,76  L 23,76  L 23,77  L 19,77  L 19,78  L 18,78  L 18,77  L 17,77  L 17,78  L 16,78  L 16,77  L 13,77  L 13,76  L 10,76  L 10,75  L 9,75  L 9,74  L 8,74  L 8,71  L 7,71  L 7,66  L 6,66  L 6,63  L 7,63  L 7,62  L 6,62  L 6,61  L 7,61  L 7,53  L 8,53  L 8,49  L 9,49  L 9,45  L 10,45  L 10,43  L 11,43  L 11,39  L 12,39  Z  " style="fill:rgb(0, 0, 0); fill-opacity:1.000; stroke:none;" />
 <path d="  M 46,158  L 46,157  L 44,157  L 44,156  L 43,156  L 43,152  L 42,152  L 42,147  L 43,147  L 43,146  L 42,146  L 42,145  L 43,145  L 43,144  L 44,144  L 44,143  L 45,143  L 45,142  L 46,142  L 46,141  L 48,141  L 48,140  L 52,140  L 52,139  L 54,139  L 54,138  L 56,138  L 56,137  L 59,137  L 59,136  L 62,136  L 62,135  L 65,135  L 65,134  L 69,134  L 69,133  L 71,133  L 71,132  L 74,132  L 74,131  L 76,131  L 76,130  L 77,130  L 77,129  L 80,129  L 80,128  L 82,128  L 82,127  L 83,127  L 83,126  L 85,126  L 85,125  L 87,125  L 87,124  L 88,124  L 88,122  L 89,122  L 89,121  L 90,121  L 90,120  L 91,120  L 91,114  L 90,114  L 90,113  L 89,113  L 89,112  L 88,112  L 88,110  L 86,110  L 86,109  L 85,109  L 85,108  L 83,108  L 83,107  L 81,107  L 81,106  L 77,106  L 77,105  L 73,105  L 73,104  L 68,104  L 68,103  L 57,103  L 57,102  L 56,102  L 56,103  L 53,103  L 53,102  L 52,102  L 52,103  L 44,103  L 44,104  L 39,104  L 39,105  L 38,105  L 38,111  L 39,111  L 39,112  L 44,112  L 44,111  L 48,111  L 48,110  L 67,110  L 67,111  L 73,111  L 73,112  L 75,112  L 75,113  L 78,113  L 78,115  L 80,115  L 80,116  L 81,116  L 81,117  L 82,117  L 82,119  L 81,119  L 81,120  L 80,120  L 80,121  L 77,121  L 77,122  L 76,122  L 76,123  L 73,123  L 73,124  L 71,124  L 71,125  L 69,125  L 69,126  L 66,126  L 66,127  L 65,127  L 65,126  L 64,126  L 64,127  L 62,127  L 62,128  L 60,128  L 60,129  L 57,129  L 57,130  L 53,130  L 53,131  L 52,131  L 52,132  L 50,132  L 50,133  L 49,133  L 49,132  L 48,132  L 48,133  L 45,133  L 45,134  L 44,134  L 44,135  L 43,135  L 43,136  L 42,136  L 42,137  L 40,137  L 40,138  L 39,138  L 39,139  L 38,139  L 38,140  L 37,140  L 37,141  L 36,141  L 36,142  L 35,142  L 35,146  L 34,146  L 34,152  L 35,152  L 35,154  L 36,154  L 36,157  L 37,157  L 37,160  L 38,160  L 38,163  L 40,163  L 40,164  L 42,164  L 42,165  L 61,165  L 61,164  L 67,164  L 67,163  L 68,163  L 68,164  L 69,164  L 69,163  L 73,163  L 73,162  L 76,162  L 76,161  L 79,161  L 79,160  L 81,160  L 81,159  L 84,159  L 84,158  L 87,158  L 87,157  L 89,157  L 89,156  L 92,156  L 92,155  L 96,155  L 96,154  L 97,154  L 97,153  L 100,153  L 100,152  L 102,152  L 102,150  L 103,150  L 103,148  L 104,148  L 104,145  L 103,145  L 103,144  L 99,144  L 99,145  L 96,145  L 96,146  L 92,146  L 92,147  L 91,147  L 91,148  L 88,148  L 88,149  L 87,149  L 87,150  L 84,150  L 84,151  L 81,151  L 81,152  L 78,152  L 78,153  L 75,153  L 75,154  L 72,154  L 72,155  L 70,155  L 70,156  L 66,156  L 66,157  L 61,157  L 61,158  L 60,158  L 60,157  L 59,157  L 59,158  Z  " style="fill:rgb(0, 0, 0); fill-opacity:1.000; stroke:none;" />
 <path d="  M 106,12  L 105,12  L 105,2  L 104,2  L 104,1  L 103,1  L 103,0  L 100,0  L 100,1  L 99,1  L 99,2  L 98,2  L 98,3  L 99,3  L 99,4  L 98,4  L 98,5  L 99,5  L 99,6  L 98,6  L 98,7  L 99,7  L 99,8  L 98,8  L 98,9  L 99,9  L 99,26  L 98,26  L 98,27  L 93,27  L 93,28  L 77,28  L 77,29  L 73,29  L 73,28  L 72,28  L 72,12  L 71,12  L 71,11  L 72,11  L 72,10  L 71,10  L 71,7  L 72,7  L 72,6  L 71,6  L 71,3  L 70,3  L 70,2  L 69,2  L 69,3  L 67,3  L 67,4  L 66,4  L 66,20  L 65,20  L 65,21  L 66,21  L 66,24  L 65,24  L 65,25  L 66,25  L 66,35  L 67,35  L 67,51  L 68,51  L 68,52  L 67,52  L 67,55  L 68,55  L 68,56  L 67,56  L 67,57  L 68,57  L 68,67  L 69,67  L 69,68  L 68,68  L 68,71  L 69,71  L 69,73  L 68,73  L 68,75  L 69,75  L 69,77  L 68,77  L 68,84  L 69,84  L 69,89  L 70,89  L 70,90  L 69,90  L 69,91  L 70,91  L 70,92  L 72,92  L 72,91  L 75,91  L 75,88  L 76,88  L 76,69  L 77,69  L 77,68  L 76,68  L 76,66  L 77,66  L 77,61  L 78,61  L 78,60  L 85,60  L 85,59  L 92,59  L 92,58  L 93,58  L 93,59  L 94,59  L 94,58  L 98,58  L 98,73  L 99,73  L 99,76  L 98,76  L 98,77  L 99,77  L 99,80  L 98,80  L 98,81  L 99,81  L 99,96  L 100,96  L 100,98  L 103,98  L 103,97  L 105,97  L 105,96  L 106,96  Z  M 96,34  L 97,34  L 97,35  L 99,35  L 99,48  L 98,48  L 98,49  L 97,49  L 97,50  L 93,50  L 93,51  L 88,51  L 88,52  L 81,52  L 81,53  L 80,53  L 80,52  L 79,52  L 79,53  L 75,53  L 75,50  L 74,50  L 74,47  L 75,47  L 75,46  L 74,46  L 74,45  L 75,45  L 75,43  L 74,43  L 74,41  L 75,41  L 75,40  L 74,40  L 74,39  L 75,39  L 75,37  L 77,37  L 77,36  L 81,36  L 81,35  L 82,35  L 82,36  L 83,36  L 83,35  L 96,35  Z  " style="fill:rgb(0, 0, 0); fill-opacity:1.000; stroke:none;" />
</svg>
