<?xml version="1.0" encoding="UTF-8" standalone="no"?>
<!DOCTYPE svg PUBLIC "-//W3C//DTD SVG 1.1//EN" 
  "http://www.w3.org/Graphics/SVG/1.1/DTD/svg11.dtd">
<svg width="103" height="146"
     xmlns="http://www.w3.org/2000/svg" version="1.1">
 <path d="  M 92,94  L 92,93  L 93,93  L 93,55  L 94,55  L 94,54  L 93,54  L 93,53  L 94,53  L 94,52  L 93,52  L 93,51  L 94,51  L 94,50  L 93,50  L 93,49  L 94,49  L 94,35  L 93,35  L 93,26  L 92,26  L 92,20  L 91,20  L 91,17  L 90,17  L 90,12  L 89,12  L 89,5  L 88,5  L 88,4  L 89,4  L 89,3  L 88,3  L 88,2  L 87,2  L 87,1  L 85,1  L 85,0  L 84,0  L 84,1  L 82,1  L 82,2  L 81,2  L 81,3  L 82,3  L 82,9  L 83,9  L 83,14  L 84,14  L 84,20  L 85,20  L 85,25  L 86,25  L 86,32  L 87,32  L 87,36  L 82,36  L 82,37  L 71,37  L 71,38  L 69,38  L 69,37  L 68,37  L 68,38  L 64,38  L 64,39  L 62,39  L 62,41  L 61,41  L 61,42  L 59,42  L 59,41  L 58,41  L 58,39  L 57,39  L 57,36  L 56,36  L 56,32  L 55,32  L 55,30  L 54,30  L 54,27  L 53,27  L 53,26  L 52,26  L 52,24  L 51,24  L 51,23  L 50,23  L 50,22  L 48,22  L 48,21  L 47,21  L 47,20  L 44,20  L 44,19  L 42,19  L 42,18  L 40,18  L 40,17  L 37,17  L 37,16  L 33,16  L 33,15  L 30,15  L 30,14  L 28,14  L 28,13  L 23,13  L 23,14  L 22,14  L 22,15  L 21,15  L 21,16  L 20,16  L 20,17  L 19,17  L 19,18  L 18,18  L 18,19  L 17,19  L 17,21  L 15,21  L 15,22  L 14,22  L 14,23  L 12,23  L 12,24  L 11,24  L 11,25  L 10,25  L 10,27  L 9,27  L 9,28  L 8,28  L 8,30  L 7,30  L 7,32  L 6,32  L 6,35  L 5,35  L 5,37  L 4,37  L 4,40  L 3,40  L 3,42  L 2,42  L 2,48  L 1,48  L 1,54  L 0,54  L 0,55  L 1,55  L 1,56  L 0,56  L 0,59  L 1,59  L 1,62  L 0,62  L 0,63  L 1,63  L 1,68  L 2,68  L 2,70  L 3,70  L 3,71  L 4,71  L 4,72  L 5,72  L 5,73  L 6,73  L 6,74  L 8,74  L 8,75  L 11,75  L 11,76  L 15,76  L 15,77  L 18,77  L 18,78  L 19,78  L 19,77  L 20,77  L 20,78  L 24,78  L 24,79  L 25,79  L 25,78  L 33,78  L 33,77  L 34,77  L 34,78  L 35,78  L 35,77  L 39,77  L 39,76  L 42,76  L 42,75  L 45,75  L 45,74  L 46,74  L 46,73  L 47,73  L 47,72  L 48,72  L 48,71  L 49,71  L 49,70  L 50,70  L 50,69  L 51,69  L 51,68  L 52,68  L 52,67  L 53,67  L 53,65  L 54,65  L 54,64  L 55,64  L 55,61  L 56,61  L 56,59  L 57,59  L 57,56  L 58,56  L 58,53  L 59,53  L 59,47  L 60,47  L 60,46  L 61,46  L 61,45  L 69,45  L 69,44  L 77,44  L 77,43  L 78,43  L 78,44  L 79,44  L 79,43  L 82,43  L 82,44  L 83,44  L 83,43  L 86,43  L 86,44  L 87,44  L 87,52  L 86,52  L 86,54  L 87,54  L 87,56  L 86,56  L 86,57  L 87,57  L 87,60  L 86,60  L 86,92  L 87,92  L 87,93  L 88,93  L 88,94  Z  M 7,58  L 6,58  L 6,55  L 7,55  L 7,54  L 6,54  L 6,53  L 7,53  L 7,48  L 8,48  L 8,44  L 9,44  L 9,40  L 10,40  L 10,39  L 11,39  L 11,36  L 12,36  L 12,34  L 13,34  L 13,32  L 14,32  L 14,30  L 15,30  L 15,29  L 16,29  L 16,28  L 17,28  L 17,27  L 18,27  L 18,26  L 19,26  L 19,25  L 20,25  L 20,24  L 21,24  L 21,23  L 22,23  L 22,22  L 23,22  L 23,21  L 25,21  L 25,20  L 31,20  L 31,21  L 34,21  L 34,22  L 37,22  L 37,23  L 40,23  L 40,24  L 42,24  L 42,25  L 43,25  L 43,26  L 45,26  L 45,27  L 46,27  L 46,28  L 47,28  L 47,29  L 48,29  L 48,30  L 49,30  L 49,31  L 50,31  L 50,36  L 51,36  L 51,41  L 52,41  L 52,54  L 51,54  L 51,56  L 50,56  L 50,59  L 49,59  L 49,60  L 48,60  L 48,62  L 47,62  L 47,63  L 46,63  L 46,64  L 45,64  L 45,66  L 44,66  L 44,67  L 43,67  L 43,68  L 41,68  L 41,69  L 40,69  L 40,70  L 38,70  L 38,71  L 29,71  L 29,72  L 24,72  L 24,71  L 18,71  L 18,70  L 12,70  L 12,69  L 11,69  L 11,68  L 9,68  L 9,67  L 8,67  L 8,65  L 7,65  L 7,62  L 6,62  L 6,59  L 7,59  Z  " style="fill:rgb(0, 0, 0); fill-opacity:1.000; stroke:none;" />
 <path d="  M 28,136  L 28,137  L 27,137  L 27,138  L 28,138  L 28,140  L 29,140  L 29,142  L 30,142  L 30,143  L 31,143  L 31,145  L 33,145  L 33,146  L 63,146  L 63,145  L 68,145  L 68,144  L 77,144  L 77,143  L 85,143  L 85,142  L 86,142  L 86,143  L 87,143  L 87,142  L 96,142  L 96,141  L 101,141  L 101,140  L 103,140  L 103,133  L 99,133  L 99,134  L 92,134  L 92,135  L 85,135  L 85,136  L 77,136  L 77,137  L 69,137  L 69,138  L 62,138  L 62,139  L 61,139  L 61,138  L 60,138  L 60,139  L 54,139  L 54,140  L 36,140  L 36,139  L 35,139  L 35,136  L 34,136  L 34,128  L 33,128  L 33,120  L 32,120  L 32,119  L 33,119  L 33,116  L 32,116  L 32,115  L 33,115  L 33,112  L 32,112  L 32,111  L 33,111  L 33,97  L 32,97  L 32,96  L 31,96  L 31,95  L 29,95  L 29,96  L 28,96  L 28,97  L 26,97  L 26,101  L 25,101  L 25,103  L 26,103  L 26,109  L 25,109  L 25,111  L 26,111  L 26,112  L 25,112  L 25,115  L 26,115  L 26,116  L 25,116  L 25,119  L 26,119  L 26,121  L 25,121  L 25,122  L 26,122  L 26,129  L 27,129  L 27,136  Z  " style="fill:rgb(0, 0, 0); fill-opacity:1.000; stroke:none;" />
</svg>
