<?xml version="1.0" encoding="UTF-8" standalone="no"?>
<!DOCTYPE svg PUBLIC "-//W3C//DTD SVG 1.1//EN" 
  "http://www.w3.org/Graphics/SVG/1.1/DTD/svg11.dtd">
<svg width="105" height="149"
     xmlns="http://www.w3.org/2000/svg" version="1.1">
 <path d="  M 6,75  L 8,75  L 8,76  L 11,76  L 11,77  L 15,77  L 15,78  L 26,78  L 26,77  L 32,77  L 32,76  L 35,76  L 35,75  L 38,75  L 38,74  L 41,74  L 41,73  L 42,73  L 42,72  L 43,72  L 43,71  L 45,71  L 45,70  L 46,70  L 46,69  L 47,69  L 47,67  L 49,67  L 49,65  L 50,65  L 50,64  L 51,64  L 51,62  L 52,62  L 52,60  L 53,60  L 53,58  L 54,58  L 54,55  L 55,55  L 55,50  L 56,50  L 56,49  L 55,49  L 55,48  L 56,48  L 56,38  L 57,38  L 57,35  L 56,35  L 56,33  L 55,33  L 55,31  L 54,31  L 54,28  L 53,28  L 53,27  L 52,27  L 52,25  L 51,25  L 51,24  L 49,24  L 49,23  L 48,23  L 48,22  L 47,22  L 47,21  L 45,21  L 45,20  L 43,20  L 43,19  L 41,19  L 41,18  L 38,18  L 38,17  L 33,17  L 33,16  L 29,16  L 29,15  L 27,15  L 27,14  L 21,14  L 21,15  L 20,15  L 20,16  L 19,16  L 19,17  L 18,17  L 18,18  L 17,18  L 17,19  L 16,19  L 16,20  L 15,20  L 15,21  L 14,21  L 14,22  L 13,22  L 13,23  L 12,23  L 12,24  L 11,24  L 11,26  L 10,26  L 10,27  L 9,27  L 9,28  L 8,28  L 8,30  L 7,30  L 7,33  L 6,33  L 6,35  L 5,35  L 5,39  L 4,39  L 4,43  L 3,43  L 3,47  L 2,47  L 2,51  L 1,51  L 1,60  L 0,60  L 0,62  L 1,62  L 1,64  L 0,64  L 0,65  L 1,65  L 1,68  L 2,68  L 2,72  L 3,72  L 3,73  L 4,73  L 4,74  L 6,74  Z  M 20,23  L 21,23  L 21,22  L 23,22  L 23,21  L 29,21  L 29,22  L 34,22  L 34,23  L 37,23  L 37,24  L 40,24  L 40,25  L 43,25  L 43,26  L 44,26  L 44,27  L 45,27  L 45,28  L 46,28  L 46,29  L 47,29  L 47,30  L 48,30  L 48,39  L 49,39  L 49,51  L 48,51  L 48,55  L 47,55  L 47,58  L 46,58  L 46,60  L 45,60  L 45,61  L 44,61  L 44,63  L 43,63  L 43,64  L 42,64  L 42,65  L 40,65  L 40,66  L 39,66  L 39,67  L 38,67  L 38,68  L 36,68  L 36,69  L 34,69  L 34,70  L 28,70  L 28,71  L 15,71  L 15,70  L 11,70  L 11,69  L 9,69  L 9,67  L 8,67  L 8,65  L 7,65  L 7,52  L 8,52  L 8,48  L 9,48  L 9,44  L 10,44  L 10,41  L 11,41  L 11,38  L 12,38  L 12,36  L 13,36  L 13,33  L 14,33  L 14,30  L 15,30  L 15,29  L 16,29  L 16,27  L 17,27  L 17,26  L 18,26  L 18,24  L 20,24  Z  " style="fill:rgb(0, 0, 0); fill-opacity:1.000; stroke:none;" />
 <path d="  M 25,149  L 25,147  L 26,147  L 26,146  L 27,146  L 27,145  L 28,145  L 28,144  L 29,144  L 29,143  L 30,143  L 30,142  L 32,142  L 32,140  L 33,140  L 33,139  L 34,139  L 34,138  L 35,138  L 35,137  L 36,137  L 36,136  L 37,136  L 37,135  L 38,135  L 38,133  L 39,133  L 39,132  L 40,132  L 40,130  L 41,130  L 41,129  L 42,129  L 42,128  L 43,128  L 43,127  L 44,127  L 44,125  L 45,125  L 45,124  L 46,124  L 46,122  L 47,122  L 47,121  L 48,121  L 48,119  L 50,119  L 50,118  L 51,118  L 51,117  L 53,117  L 53,118  L 54,118  L 54,119  L 55,119  L 55,120  L 56,120  L 56,121  L 59,121  L 59,122  L 60,122  L 60,123  L 61,123  L 61,124  L 63,124  L 63,125  L 64,125  L 64,126  L 65,126  L 65,127  L 66,127  L 66,128  L 67,128  L 67,129  L 69,129  L 69,130  L 70,130  L 70,131  L 71,131  L 71,132  L 73,132  L 73,133  L 74,133  L 74,134  L 75,134  L 75,135  L 76,135  L 76,136  L 78,136  L 78,137  L 80,137  L 80,138  L 81,138  L 81,139  L 82,139  L 82,140  L 84,140  L 84,141  L 86,141  L 86,142  L 88,142  L 88,144  L 91,144  L 91,145  L 93,145  L 93,146  L 94,146  L 94,147  L 96,147  L 96,148  L 98,148  L 98,149  L 101,149  L 101,148  L 105,148  L 105,143  L 104,143  L 104,142  L 102,142  L 102,141  L 99,141  L 99,140  L 98,140  L 98,139  L 95,139  L 95,138  L 94,138  L 94,137  L 92,137  L 92,136  L 90,136  L 90,135  L 89,135  L 89,134  L 87,134  L 87,133  L 85,133  L 85,132  L 84,132  L 84,131  L 82,131  L 82,129  L 80,129  L 80,128  L 79,128  L 79,127  L 77,127  L 77,126  L 75,126  L 75,125  L 74,125  L 74,124  L 73,124  L 73,123  L 71,123  L 71,122  L 70,122  L 70,121  L 68,121  L 68,120  L 67,120  L 67,119  L 66,119  L 66,118  L 64,118  L 64,117  L 63,117  L 63,116  L 62,116  L 62,115  L 60,115  L 60,114  L 59,114  L 59,113  L 57,113  L 57,108  L 58,108  L 58,107  L 59,107  L 59,106  L 60,106  L 60,104  L 61,104  L 61,102  L 62,102  L 62,100  L 63,100  L 63,99  L 64,99  L 64,98  L 65,98  L 65,93  L 64,93  L 64,92  L 61,92  L 61,91  L 59,91  L 59,92  L 57,92  L 57,94  L 56,94  L 56,97  L 55,97  L 55,99  L 54,99  L 54,100  L 53,100  L 53,102  L 52,102  L 52,103  L 51,103  L 51,105  L 50,105  L 50,107  L 49,107  L 49,108  L 48,108  L 48,109  L 47,109  L 47,111  L 46,111  L 46,112  L 45,112  L 45,113  L 44,113  L 44,115  L 43,115  L 43,117  L 42,117  L 42,118  L 41,118  L 41,119  L 40,119  L 40,120  L 39,120  L 39,121  L 38,121  L 38,123  L 36,123  L 36,125  L 35,125  L 35,127  L 34,127  L 34,128  L 33,128  L 33,129  L 32,129  L 32,130  L 31,130  L 31,131  L 30,131  L 30,133  L 29,133  L 29,134  L 28,134  L 28,135  L 27,135  L 27,136  L 26,136  L 26,137  L 24,137  L 24,138  L 23,138  L 23,139  L 22,139  L 22,140  L 20,140  L 20,141  L 19,141  L 19,143  L 18,143  L 18,146  L 19,146  L 19,148  L 20,148  L 20,149  Z  " style="fill:rgb(0, 0, 0); fill-opacity:1.000; stroke:none;" />
 <path d="  M 65,33  L 65,34  L 61,34  L 61,35  L 60,35  L 60,36  L 59,36  L 59,38  L 60,38  L 60,39  L 61,39  L 61,40  L 65,40  L 65,41  L 66,41  L 66,40  L 78,40  L 78,39  L 79,39  L 79,40  L 80,40  L 80,39  L 95,39  L 95,53  L 96,53  L 96,55  L 95,55  L 95,56  L 96,56  L 96,90  L 97,90  L 97,93  L 103,93  L 103,90  L 104,90  L 104,89  L 103,89  L 103,88  L 104,88  L 104,85  L 103,85  L 103,84  L 104,84  L 104,83  L 103,83  L 103,82  L 104,82  L 104,81  L 103,81  L 103,78  L 104,78  L 104,77  L 103,77  L 103,51  L 102,51  L 102,50  L 103,50  L 103,49  L 102,49  L 102,48  L 103,48  L 103,47  L 102,47  L 102,40  L 101,40  L 101,30  L 100,30  L 100,21  L 99,21  L 99,5  L 98,5  L 98,4  L 99,4  L 99,2  L 98,2  L 98,1  L 97,1  L 97,0  L 93,0  L 93,1  L 92,1  L 92,12  L 93,12  L 93,13  L 92,13  L 92,14  L 93,14  L 93,27  L 94,27  L 94,28  L 93,28  L 93,31  L 89,31  L 89,32  L 79,32  L 79,33  L 78,33  L 78,32  L 77,32  L 77,33  L 69,33  L 69,34  L 66,34  L 66,33  Z  " style="fill:rgb(0, 0, 0); fill-opacity:1.000; stroke:none;" />
</svg>
