<?xml version="1.0" encoding="UTF-8" standalone="no"?>
<!DOCTYPE svg PUBLIC "-//W3C//DTD SVG 1.1//EN" 
  "http://www.w3.org/Graphics/SVG/1.1/DTD/svg11.dtd">
<svg width="105" height="147"
     xmlns="http://www.w3.org/2000/svg" version="1.1">
 <path d="  M 9,64  L 8,64  L 8,62  L 7,62  L 7,48  L 8,48  L 8,44  L 9,44  L 9,41  L 10,41  L 10,39  L 11,39  L 11,35  L 12,35  L 12,32  L 13,32  L 13,31  L 14,31  L 14,29  L 15,29  L 15,27  L 16,27  L 16,26  L 17,26  L 17,25  L 18,25  L 18,22  L 22,22  L 22,21  L 23,21  L 23,22  L 27,22  L 27,23  L 30,23  L 30,24  L 33,24  L 33,25  L 35,25  L 35,26  L 37,26  L 37,27  L 39,27  L 39,28  L 41,28  L 41,29  L 42,29  L 42,30  L 43,30  L 43,32  L 44,32  L 44,36  L 45,36  L 45,40  L 46,40  L 46,42  L 45,42  L 45,44  L 46,44  L 46,47  L 45,47  L 45,48  L 46,48  L 46,49  L 45,49  L 45,54  L 44,54  L 44,57  L 43,57  L 43,59  L 42,59  L 42,60  L 41,60  L 41,61  L 40,61  L 40,63  L 39,63  L 39,64  L 37,64  L 37,65  L 36,65  L 36,66  L 34,66  L 34,67  L 31,67  L 31,68  L 16,68  L 16,67  L 13,67  L 13,66  L 11,66  L 11,65  L 9,65  Z  M 42,22  L 40,22  L 40,21  L 37,21  L 37,20  L 35,20  L 35,19  L 32,19  L 32,18  L 29,18  L 29,17  L 26,17  L 26,16  L 23,16  L 23,15  L 22,15  L 22,14  L 20,14  L 20,15  L 19,15  L 19,16  L 18,16  L 18,18  L 17,18  L 17,19  L 15,19  L 15,20  L 14,20  L 14,21  L 13,21  L 13,22  L 12,22  L 12,23  L 11,23  L 11,24  L 10,24  L 10,25  L 9,25  L 9,27  L 8,27  L 8,28  L 7,28  L 7,31  L 6,31  L 6,33  L 5,33  L 5,36  L 4,36  L 4,39  L 3,39  L 3,40  L 4,40  L 4,41  L 3,41  L 3,45  L 2,45  L 2,49  L 1,49  L 1,58  L 0,58  L 0,59  L 1,59  L 1,64  L 2,64  L 2,67  L 3,67  L 3,68  L 4,68  L 4,70  L 6,70  L 6,71  L 8,71  L 8,72  L 10,72  L 10,73  L 14,73  L 14,74  L 19,74  L 19,75  L 26,75  L 26,74  L 33,74  L 33,73  L 35,73  L 35,72  L 38,72  L 38,71  L 39,71  L 39,70  L 40,70  L 40,69  L 43,69  L 43,67  L 44,67  L 44,66  L 45,66  L 45,65  L 46,65  L 46,64  L 47,64  L 47,62  L 48,62  L 48,60  L 49,60  L 49,58  L 50,58  L 50,56  L 51,56  L 51,48  L 52,48  L 52,35  L 51,35  L 51,33  L 50,33  L 50,32  L 49,32  L 49,30  L 48,30  L 48,28  L 47,28  L 47,27  L 46,27  L 46,26  L 45,26  L 45,24  L 44,24  L 44,23  L 42,23  Z  " style="fill:rgb(0, 0, 0); fill-opacity:1.000; stroke:none;" />
 <path d="  M 13,122  L 13,123  L 12,123  L 12,125  L 11,125  L 11,126  L 10,126  L 10,127  L 9,127  L 9,128  L 8,128  L 8,130  L 7,130  L 7,132  L 6,132  L 6,137  L 7,137  L 7,138  L 10,138  L 10,137  L 11,137  L 11,136  L 12,136  L 12,134  L 13,134  L 13,133  L 14,133  L 14,131  L 15,131  L 15,129  L 16,129  L 16,127  L 17,127  L 17,126  L 18,126  L 18,125  L 19,125  L 19,123  L 20,123  L 20,122  L 21,122  L 21,121  L 22,121  L 22,120  L 24,120  L 24,118  L 25,118  L 25,117  L 26,117  L 26,116  L 28,116  L 28,117  L 30,117  L 30,118  L 31,118  L 31,119  L 32,119  L 32,120  L 34,120  L 34,121  L 36,121  L 36,122  L 37,122  L 37,123  L 40,123  L 40,124  L 42,124  L 42,125  L 44,125  L 44,126  L 48,126  L 48,127  L 50,127  L 50,128  L 51,128  L 51,130  L 52,130  L 52,133  L 51,133  L 51,136  L 50,136  L 50,138  L 49,138  L 49,141  L 48,141  L 48,147  L 53,147  L 53,146  L 54,146  L 54,144  L 55,144  L 55,141  L 56,141  L 56,140  L 57,140  L 57,138  L 58,138  L 58,135  L 59,135  L 59,134  L 60,134  L 60,132  L 61,132  L 61,131  L 63,131  L 63,129  L 64,129  L 64,127  L 65,127  L 65,125  L 66,125  L 66,124  L 67,124  L 67,120  L 68,120  L 68,118  L 70,118  L 70,116  L 72,116  L 72,117  L 73,117  L 73,119  L 74,119  L 74,120  L 76,120  L 76,122  L 78,122  L 78,123  L 79,123  L 79,124  L 81,124  L 81,125  L 84,125  L 84,126  L 85,126  L 85,127  L 87,127  L 87,128  L 90,128  L 90,129  L 92,129  L 92,130  L 94,130  L 94,131  L 96,131  L 96,132  L 98,132  L 98,133  L 99,133  L 99,134  L 105,134  L 105,129  L 104,129  L 104,128  L 102,128  L 102,127  L 100,127  L 100,126  L 98,126  L 98,125  L 95,125  L 95,124  L 93,124  L 93,123  L 91,123  L 91,122  L 89,122  L 89,121  L 87,121  L 87,120  L 86,120  L 86,119  L 83,119  L 83,118  L 82,118  L 82,117  L 81,117  L 81,116  L 80,116  L 80,115  L 79,115  L 79,114  L 78,114  L 78,113  L 77,113  L 77,111  L 75,111  L 75,109  L 74,109  L 74,108  L 75,108  L 75,105  L 76,105  L 76,102  L 77,102  L 77,99  L 78,99  L 78,96  L 79,96  L 79,94  L 78,94  L 78,92  L 73,92  L 73,93  L 72,93  L 72,94  L 71,94  L 71,97  L 70,97  L 70,100  L 69,100  L 69,102  L 68,102  L 68,105  L 67,105  L 67,107  L 66,107  L 66,109  L 65,109  L 65,110  L 64,110  L 64,113  L 63,113  L 63,115  L 62,115  L 62,118  L 61,118  L 61,121  L 60,121  L 60,125  L 59,125  L 59,126  L 58,126  L 58,125  L 57,125  L 57,124  L 56,124  L 56,123  L 53,123  L 53,122  L 50,122  L 50,121  L 48,121  L 48,120  L 46,120  L 46,119  L 43,119  L 43,118  L 42,118  L 42,117  L 40,117  L 40,116  L 38,116  L 38,115  L 36,115  L 36,114  L 35,114  L 35,113  L 34,113  L 34,112  L 33,112  L 33,111  L 32,111  L 32,110  L 31,110  L 31,106  L 32,106  L 32,104  L 33,104  L 33,102  L 34,102  L 34,101  L 35,101  L 35,100  L 36,100  L 36,97  L 37,97  L 37,96  L 38,96  L 38,94  L 39,94  L 39,92  L 37,92  L 37,91  L 36,91  L 36,90  L 28,90  L 28,91  L 27,91  L 27,92  L 28,92  L 28,95  L 29,95  L 29,97  L 28,97  L 28,99  L 27,99  L 27,101  L 26,101  L 26,103  L 25,103  L 25,105  L 24,105  L 24,107  L 23,107  L 23,109  L 22,109  L 22,112  L 21,112  L 21,113  L 20,113  L 20,115  L 19,115  L 19,116  L 18,116  L 18,117  L 17,117  L 17,118  L 16,118  L 16,119  L 15,119  L 15,120  L 14,120  L 14,122  Z  " style="fill:rgb(0, 0, 0); fill-opacity:1.000; stroke:none;" />
 <path d="  M 79,4  L 79,3  L 78,3  L 78,1  L 77,1  L 77,0  L 73,0  L 73,1  L 72,1  L 72,12  L 73,12  L 73,24  L 74,24  L 74,28  L 75,28  L 75,30  L 76,30  L 76,33  L 75,33  L 75,34  L 61,34  L 61,35  L 56,35  L 56,36  L 55,36  L 55,41  L 56,41  L 56,42  L 60,42  L 60,41  L 68,41  L 68,40  L 76,40  L 76,42  L 77,42  L 77,47  L 76,47  L 76,48  L 77,48  L 77,49  L 76,49  L 76,65  L 75,65  L 75,66  L 76,66  L 76,73  L 75,73  L 75,74  L 76,74  L 76,86  L 78,86  L 78,87  L 79,87  L 79,86  L 81,86  L 81,85  L 82,85  L 82,74  L 83,74  L 83,73  L 82,73  L 82,72  L 83,72  L 83,40  L 84,40  L 84,39  L 83,39  L 83,33  L 82,33  L 82,31  L 81,31  L 81,25  L 80,25  L 80,17  L 79,17  L 79,16  L 80,16  L 80,15  L 79,15  L 79,5  L 78,5  L 78,4  Z  " style="fill:rgb(0, 0, 0); fill-opacity:1.000; stroke:none;" />
</svg>
