<?xml version="1.0" encoding="UTF-8" standalone="no"?>
<!DOCTYPE svg PUBLIC "-//W3C//DTD SVG 1.1//EN" 
  "http://www.w3.org/Graphics/SVG/1.1/DTD/svg11.dtd">
<svg width="103" height="164"
     xmlns="http://www.w3.org/2000/svg" version="1.1">
 <path d="  M 45,27  L 45,26  L 44,26  L 44,25  L 41,25  L 41,24  L 38,24  L 38,23  L 33,23  L 33,22  L 29,22  L 29,21  L 25,21  L 25,20  L 20,20  L 20,21  L 19,21  L 19,23  L 18,23  L 18,24  L 17,24  L 17,25  L 16,25  L 16,27  L 15,27  L 15,28  L 14,28  L 14,29  L 13,29  L 13,30  L 12,30  L 12,31  L 11,31  L 11,32  L 10,32  L 10,34  L 9,34  L 9,35  L 8,35  L 8,37  L 7,37  L 7,39  L 6,39  L 6,43  L 5,43  L 5,46  L 4,46  L 4,49  L 3,49  L 3,50  L 4,50  L 4,51  L 3,51  L 3,53  L 2,53  L 2,54  L 3,54  L 3,55  L 2,55  L 2,61  L 1,61  L 1,62  L 2,62  L 2,64  L 1,64  L 1,75  L 2,75  L 2,78  L 3,78  L 3,80  L 5,80  L 5,81  L 6,81  L 6,82  L 9,82  L 9,83  L 11,83  L 11,84  L 14,84  L 14,85  L 19,85  L 19,86  L 31,86  L 31,85  L 34,85  L 34,84  L 37,84  L 37,83  L 40,83  L 40,82  L 42,82  L 42,81  L 43,81  L 43,80  L 45,80  L 45,79  L 46,79  L 46,78  L 47,78  L 47,77  L 48,77  L 48,75  L 49,75  L 49,74  L 50,74  L 50,73  L 51,73  L 51,72  L 52,72  L 52,71  L 53,71  L 53,69  L 54,69  L 54,67  L 55,67  L 55,65  L 56,65  L 56,60  L 57,60  L 57,47  L 56,47  L 56,39  L 55,39  L 55,36  L 54,36  L 54,33  L 53,33  L 53,32  L 52,32  L 52,31  L 51,31  L 51,30  L 50,30  L 50,29  L 48,29  L 48,28  L 47,28  L 47,27  Z  M 49,61  L 48,61  L 48,65  L 47,65  L 47,67  L 46,67  L 46,69  L 45,69  L 45,70  L 44,70  L 44,71  L 43,71  L 43,73  L 42,73  L 42,74  L 40,74  L 40,75  L 39,75  L 39,76  L 38,76  L 38,77  L 35,77  L 35,78  L 29,78  L 29,79  L 24,79  L 24,78  L 23,78  L 23,79  L 21,79  L 21,78  L 17,78  L 17,77  L 12,77  L 12,76  L 11,76  L 11,75  L 10,75  L 10,74  L 9,74  L 9,73  L 8,73  L 8,60  L 9,60  L 9,55  L 10,55  L 10,51  L 11,51  L 11,48  L 12,48  L 12,44  L 13,44  L 13,40  L 14,40  L 14,38  L 15,38  L 15,36  L 16,36  L 16,35  L 17,35  L 17,33  L 18,33  L 18,32  L 19,32  L 19,30  L 20,30  L 20,29  L 21,29  L 21,28  L 23,28  L 23,27  L 28,27  L 28,28  L 29,28  L 29,27  L 30,27  L 30,28  L 32,28  L 32,29  L 36,29  L 36,30  L 40,30  L 40,31  L 42,31  L 42,32  L 43,32  L 43,33  L 45,33  L 45,34  L 46,34  L 46,35  L 47,35  L 47,37  L 48,37  L 48,42  L 49,42  L 49,45  L 48,45  L 48,46  L 49,46  Z  " style="fill:rgb(0, 0, 0); fill-opacity:1.000; stroke:none;" />
 <path d="  M 71,112  L 71,114  L 70,114  L 70,115  L 69,115  L 69,116  L 67,116  L 67,117  L 65,117  L 65,118  L 64,118  L 64,119  L 63,119  L 63,120  L 62,120  L 62,121  L 61,121  L 61,123  L 60,123  L 60,124  L 59,124  L 59,125  L 58,125  L 58,127  L 57,127  L 57,129  L 56,129  L 56,131  L 55,131  L 55,133  L 54,133  L 54,134  L 53,134  L 53,135  L 52,135  L 52,137  L 51,137  L 51,139  L 50,139  L 50,141  L 49,141  L 49,142  L 48,142  L 48,144  L 47,144  L 47,145  L 46,145  L 46,147  L 45,147  L 45,148  L 44,148  L 44,150  L 43,150  L 43,151  L 42,151  L 42,154  L 41,154  L 41,155  L 40,155  L 40,156  L 39,156  L 39,157  L 38,157  L 38,159  L 37,159  L 37,164  L 43,164  L 43,162  L 44,162  L 44,161  L 45,161  L 45,160  L 46,160  L 46,158  L 47,158  L 47,157  L 48,157  L 48,156  L 49,156  L 49,154  L 50,154  L 50,152  L 51,152  L 51,150  L 52,150  L 52,149  L 53,149  L 53,148  L 54,148  L 54,146  L 55,146  L 55,144  L 56,144  L 56,143  L 57,143  L 57,141  L 58,141  L 58,140  L 59,140  L 59,139  L 60,139  L 60,137  L 61,137  L 61,135  L 62,135  L 62,134  L 63,134  L 63,133  L 64,133  L 64,132  L 66,132  L 66,131  L 67,131  L 67,133  L 69,133  L 69,134  L 72,134  L 72,135  L 74,135  L 74,136  L 75,136  L 75,137  L 76,137  L 76,138  L 77,138  L 77,139  L 79,139  L 79,140  L 80,140  L 80,141  L 81,141  L 81,142  L 83,142  L 83,143  L 84,143  L 84,144  L 86,144  L 86,145  L 87,145  L 87,146  L 88,146  L 88,147  L 89,147  L 89,148  L 91,148  L 91,149  L 92,149  L 92,150  L 93,150  L 93,151  L 95,151  L 95,152  L 98,152  L 98,153  L 99,153  L 99,152  L 101,152  L 101,151  L 102,151  L 102,150  L 103,150  L 103,149  L 102,149  L 102,147  L 101,147  L 101,146  L 100,146  L 100,145  L 98,145  L 98,144  L 97,144  L 97,143  L 96,143  L 96,142  L 94,142  L 94,141  L 92,141  L 92,140  L 90,140  L 90,139  L 88,139  L 88,138  L 87,138  L 87,137  L 86,137  L 86,136  L 85,136  L 85,135  L 84,135  L 84,134  L 82,134  L 82,133  L 80,133  L 80,132  L 78,132  L 78,131  L 77,131  L 77,130  L 75,130  L 75,129  L 74,129  L 74,128  L 73,128  L 73,127  L 71,127  L 71,126  L 69,126  L 69,125  L 68,125  L 68,124  L 69,124  L 69,123  L 70,123  L 70,122  L 71,122  L 71,121  L 72,121  L 72,120  L 73,120  L 73,119  L 74,119  L 74,118  L 75,118  L 75,117  L 76,117  L 76,116  L 77,116  L 77,115  L 78,115  L 78,114  L 79,114  L 79,112  L 80,112  L 80,111  L 79,111  L 79,109  L 78,109  L 78,108  L 77,108  L 77,107  L 76,107  L 76,106  L 74,106  L 74,105  L 71,105  L 71,104  L 70,104  L 70,105  L 69,105  L 69,104  L 68,104  L 68,105  L 62,105  L 62,106  L 61,106  L 61,105  L 60,105  L 60,106  L 57,106  L 57,107  L 51,107  L 51,108  L 45,108  L 45,109  L 39,109  L 39,110  L 36,110  L 36,111  L 34,111  L 34,112  L 32,112  L 32,115  L 33,115  L 33,116  L 34,116  L 34,117  L 37,117  L 37,116  L 40,116  L 40,115  L 42,115  L 42,116  L 43,116  L 43,115  L 45,115  L 45,114  L 46,114  L 46,115  L 49,115  L 49,114  L 56,114  L 56,113  L 62,113  L 62,112  L 66,112  L 66,111  L 70,111  L 70,112  Z  " style="fill:rgb(0, 0, 0); fill-opacity:1.000; stroke:none;" />
 <path d="  M 95,77  L 95,78  L 96,78  L 96,79  L 95,79  L 95,93  L 94,93  L 94,96  L 96,96  L 96,97  L 98,97  L 98,96  L 100,96  L 100,95  L 101,95  L 101,94  L 102,94  L 102,86  L 103,86  L 103,85  L 102,85  L 102,83  L 103,83  L 103,81  L 102,81  L 102,80  L 103,80  L 103,29  L 102,29  L 102,27  L 103,27  L 103,25  L 102,25  L 102,23  L 103,23  L 103,21  L 102,21  L 102,19  L 103,19  L 103,17  L 102,17  L 102,16  L 103,16  L 103,13  L 102,13  L 102,12  L 103,12  L 103,2  L 102,2  L 102,1  L 97,1  L 97,5  L 96,5  L 96,17  L 95,17  L 95,18  L 96,18  L 96,19  L 95,19  L 95,22  L 96,22  L 96,24  L 95,24  L 95,26  L 96,26  L 96,28  L 95,28  L 95,30  L 96,30  L 96,32  L 95,32  L 95,34  L 96,34  L 96,35  L 95,35  L 95,37  L 91,37  L 91,38  L 87,38  L 87,39  L 76,39  L 76,40  L 68,40  L 68,41  L 65,41  L 65,42  L 64,42  L 64,43  L 63,43  L 63,44  L 64,44  L 64,45  L 65,45  L 65,47  L 66,47  L 66,48  L 71,48  L 71,47  L 81,47  L 81,46  L 88,46  L 88,45  L 89,45  L 89,46  L 90,46  L 90,45  L 93,45  L 93,44  L 94,44  L 94,45  L 95,45  L 95,48  L 96,48  L 96,77  Z  " style="fill:rgb(0, 0, 0); fill-opacity:1.000; stroke:none;" />
</svg>
