<?xml version="1.0" encoding="UTF-8" standalone="no"?>
<!DOCTYPE svg PUBLIC "-//W3C//DTD SVG 1.1//EN" 
  "http://www.w3.org/Graphics/SVG/1.1/DTD/svg11.dtd">
<svg width="102" height="160"
     xmlns="http://www.w3.org/2000/svg" version="1.1">
 <path d="  M 47,55  L 46,55  L 46,59  L 45,59  L 45,61  L 44,61  L 44,64  L 43,64  L 43,65  L 42,65  L 42,66  L 41,66  L 41,67  L 40,67  L 40,68  L 39,68  L 39,69  L 37,69  L 37,70  L 35,70  L 35,71  L 33,71  L 33,72  L 31,72  L 31,73  L 27,73  L 27,74  L 24,74  L 24,73  L 23,73  L 23,74  L 20,74  L 20,73  L 19,73  L 19,74  L 17,74  L 17,73  L 12,73  L 12,72  L 10,72  L 10,71  L 9,71  L 9,70  L 8,70  L 8,55  L 9,55  L 9,50  L 10,50  L 10,46  L 11,46  L 11,43  L 12,43  L 12,40  L 13,40  L 13,37  L 14,37  L 14,35  L 15,35  L 15,32  L 16,32  L 16,31  L 17,31  L 17,30  L 18,30  L 18,28  L 19,28  L 19,27  L 20,27  L 20,26  L 21,26  L 21,25  L 22,25  L 22,24  L 27,24  L 27,25  L 32,25  L 32,26  L 36,26  L 36,27  L 38,27  L 38,28  L 41,28  L 41,29  L 42,29  L 42,30  L 43,30  L 43,31  L 44,31  L 44,32  L 45,32  L 45,33  L 46,33  L 46,36  L 47,36  Z  M 45,71  L 46,71  L 46,70  L 47,70  L 47,69  L 48,69  L 48,68  L 49,68  L 49,66  L 50,66  L 50,64  L 51,64  L 51,63  L 52,63  L 52,60  L 53,60  L 53,55  L 54,55  L 54,37  L 53,37  L 53,34  L 52,34  L 52,32  L 51,32  L 51,30  L 50,30  L 50,29  L 49,29  L 49,28  L 48,28  L 48,27  L 47,27  L 47,26  L 46,26  L 46,25  L 45,25  L 45,24  L 43,24  L 43,23  L 41,23  L 41,22  L 39,22  L 39,21  L 35,21  L 35,20  L 31,20  L 31,19  L 28,19  L 28,18  L 21,18  L 21,19  L 20,19  L 20,20  L 19,20  L 19,21  L 18,21  L 18,22  L 17,22  L 17,23  L 16,23  L 16,24  L 15,24  L 15,25  L 13,25  L 13,26  L 12,26  L 12,27  L 11,27  L 11,29  L 10,29  L 10,30  L 9,30  L 9,32  L 8,32  L 8,34  L 7,34  L 7,36  L 6,36  L 6,40  L 5,40  L 5,43  L 4,43  L 4,47  L 3,47  L 3,51  L 2,51  L 2,57  L 1,57  L 1,64  L 0,64  L 0,66  L 1,66  L 1,74  L 2,74  L 2,76  L 4,76  L 4,77  L 5,77  L 5,78  L 8,78  L 8,79  L 13,79  L 13,80  L 18,80  L 18,81  L 24,81  L 24,80  L 31,80  L 31,79  L 33,79  L 33,78  L 36,78  L 36,77  L 37,77  L 37,76  L 40,76  L 40,75  L 42,75  L 42,74  L 43,74  L 43,73  L 44,73  L 44,72  L 45,72  Z  " style="fill:rgb(0, 0, 0); fill-opacity:1.000; stroke:none;" />
 <path d="  M 33,107  L 33,108  L 32,108  L 32,107  L 31,107  L 31,108  L 28,108  L 28,109  L 27,109  L 27,110  L 26,110  L 26,112  L 27,112  L 27,113  L 28,113  L 28,114  L 30,114  L 30,113  L 31,113  L 31,114  L 36,114  L 36,115  L 39,115  L 39,114  L 44,114  L 44,115  L 45,115  L 45,153  L 44,153  L 44,154  L 39,154  L 39,153  L 37,153  L 37,154  L 33,154  L 33,155  L 30,155  L 30,156  L 29,156  L 29,157  L 28,157  L 28,158  L 27,158  L 27,160  L 64,160  L 64,159  L 65,159  L 65,160  L 66,160  L 66,159  L 72,159  L 72,158  L 73,158  L 73,159  L 74,159  L 74,158  L 80,158  L 80,157  L 81,157  L 81,158  L 84,158  L 84,157  L 85,157  L 85,158  L 87,158  L 87,157  L 89,157  L 89,158  L 91,158  L 91,157  L 94,157  L 94,158  L 95,158  L 95,157  L 97,157  L 97,156  L 98,156  L 98,155  L 99,155  L 99,153  L 100,153  L 100,152  L 99,152  L 99,149  L 98,149  L 98,150  L 97,150  L 97,149  L 95,149  L 95,150  L 92,150  L 92,149  L 91,149  L 91,150  L 80,150  L 80,113  L 81,113  L 81,111  L 88,111  L 88,110  L 89,110  L 89,111  L 90,111  L 90,110  L 97,110  L 97,111  L 99,111  L 99,110  L 101,110  L 101,109  L 102,109  L 102,103  L 85,103  L 85,104  L 84,104  L 84,103  L 83,103  L 83,104  L 75,104  L 75,105  L 67,105  L 67,106  L 64,106  L 64,105  L 63,105  L 63,106  L 59,106  L 59,107  L 58,107  L 58,106  L 56,106  L 56,107  L 54,107  L 54,106  L 52,106  L 52,107  L 49,107  L 49,106  L 48,106  L 48,107  L 47,107  L 47,106  L 39,106  L 39,107  L 38,107  L 38,106  L 37,106  L 37,107  Z  M 52,126  L 53,126  L 53,125  L 52,125  L 52,122  L 53,122  L 53,121  L 52,121  L 52,116  L 53,116  L 53,114  L 56,114  L 56,113  L 57,113  L 57,114  L 59,114  L 59,113  L 61,113  L 61,114  L 63,114  L 63,113  L 66,113  L 66,114  L 67,114  L 67,113  L 72,113  L 72,114  L 73,114  L 73,148  L 74,148  L 74,150  L 73,150  L 73,151  L 69,151  L 69,152  L 53,152  L 53,151  L 52,151  Z  " style="fill:rgb(0, 0, 0); fill-opacity:1.000; stroke:none;" />
 <path d="  M 87,44  L 87,43  L 88,43  L 88,44  L 89,44  L 89,46  L 90,46  L 90,47  L 89,47  L 89,60  L 88,60  L 88,72  L 87,72  L 87,96  L 88,96  L 88,97  L 92,97  L 92,96  L 93,96  L 93,94  L 94,94  L 94,93  L 93,93  L 93,92  L 94,92  L 94,76  L 95,76  L 95,75  L 94,75  L 94,73  L 95,73  L 95,62  L 96,62  L 96,48  L 97,48  L 97,47  L 96,47  L 96,34  L 95,34  L 95,27  L 94,27  L 94,23  L 93,23  L 93,19  L 92,19  L 92,2  L 91,2  L 91,1  L 89,1  L 89,0  L 87,0  L 87,1  L 84,1  L 84,2  L 85,2  L 85,5  L 84,5  L 84,8  L 85,8  L 85,16  L 86,16  L 86,22  L 87,22  L 87,31  L 88,31  L 88,34  L 89,34  L 89,35  L 88,35  L 88,36  L 85,36  L 85,37  L 79,37  L 79,38  L 76,38  L 76,37  L 75,37  L 75,38  L 72,38  L 72,39  L 65,39  L 65,40  L 62,40  L 62,42  L 61,42  L 61,45  L 62,45  L 62,46  L 63,46  L 63,47  L 64,47  L 64,46  L 68,46  L 68,45  L 69,45  L 69,46  L 70,46  L 70,45  L 76,45  L 76,44  L 77,44  L 77,45  L 78,45  L 78,44  Z  " style="fill:rgb(0, 0, 0); fill-opacity:1.000; stroke:none;" />
</svg>
