<?xml version="1.0" encoding="UTF-8" standalone="no"?>
<!DOCTYPE svg PUBLIC "-//W3C//DTD SVG 1.1//EN" 
  "http://www.w3.org/Graphics/SVG/1.1/DTD/svg11.dtd">
<svg width="109" height="139"
     xmlns="http://www.w3.org/2000/svg" version="1.1">
 <path d="  M 3,60  L 3,62  L 4,62  L 4,63  L 5,63  L 5,65  L 6,65  L 6,66  L 7,66  L 7,67  L 9,67  L 9,68  L 12,68  L 12,69  L 13,69  L 13,70  L 15,70  L 15,71  L 21,71  L 21,70  L 27,70  L 27,69  L 31,69  L 31,68  L 35,68  L 35,67  L 38,67  L 38,66  L 40,66  L 40,65  L 41,65  L 41,64  L 43,64  L 43,63  L 44,63  L 44,62  L 45,62  L 45,61  L 46,61  L 46,60  L 47,60  L 47,58  L 48,58  L 48,55  L 49,55  L 49,51  L 50,51  L 50,46  L 51,46  L 51,41  L 52,41  L 52,38  L 54,38  L 54,37  L 56,37  L 56,36  L 69,36  L 69,35  L 75,35  L 75,36  L 76,36  L 76,37  L 77,37  L 77,40  L 76,40  L 76,41  L 77,41  L 77,51  L 76,51  L 76,52  L 77,52  L 77,55  L 76,55  L 76,56  L 77,56  L 77,75  L 82,75  L 82,74  L 83,74  L 83,73  L 84,73  L 84,35  L 83,35  L 83,34  L 84,34  L 84,33  L 83,33  L 83,32  L 84,32  L 84,31  L 83,31  L 83,6  L 84,6  L 84,5  L 83,5  L 83,2  L 82,2  L 82,1  L 79,1  L 79,0  L 78,0  L 78,1  L 77,1  L 77,3  L 76,3  L 76,6  L 77,6  L 77,7  L 76,7  L 76,8  L 77,8  L 77,11  L 76,11  L 76,14  L 77,14  L 77,15  L 76,15  L 76,27  L 75,27  L 75,28  L 68,28  L 68,29  L 67,29  L 67,28  L 64,28  L 64,29  L 63,29  L 63,28  L 62,28  L 62,29  L 50,29  L 50,28  L 49,28  L 49,27  L 48,27  L 48,26  L 47,26  L 47,24  L 46,24  L 46,23  L 45,23  L 45,22  L 44,22  L 44,21  L 43,21  L 43,20  L 41,20  L 41,19  L 39,19  L 39,18  L 37,18  L 37,17  L 34,17  L 34,16  L 32,16  L 32,15  L 30,15  L 30,14  L 27,14  L 27,13  L 23,13  L 23,12  L 19,12  L 19,11  L 18,11  L 18,12  L 16,12  L 16,13  L 14,13  L 14,15  L 13,15  L 13,16  L 12,16  L 12,17  L 11,17  L 11,18  L 10,18  L 10,19  L 9,19  L 9,21  L 8,21  L 8,22  L 7,22  L 7,24  L 6,24  L 6,26  L 5,26  L 5,28  L 4,28  L 4,33  L 3,33  L 3,37  L 2,37  L 2,41  L 1,41  L 1,49  L 0,49  L 0,50  L 1,50  L 1,58  L 2,58  L 2,60  Z  M 30,21  L 30,22  L 33,22  L 33,23  L 36,23  L 36,24  L 37,24  L 37,25  L 39,25  L 39,26  L 41,26  L 41,27  L 42,27  L 42,28  L 43,28  L 43,30  L 44,30  L 44,47  L 43,47  L 43,48  L 44,48  L 44,50  L 43,50  L 43,53  L 42,53  L 42,56  L 41,56  L 41,57  L 40,57  L 40,58  L 39,58  L 39,59  L 37,59  L 37,60  L 36,60  L 36,61  L 34,61  L 34,62  L 31,62  L 31,63  L 27,63  L 27,64  L 22,64  L 22,65  L 17,65  L 17,64  L 14,64  L 14,63  L 12,63  L 12,62  L 11,62  L 11,61  L 10,61  L 10,59  L 8,59  L 8,57  L 7,57  L 7,51  L 6,51  L 6,50  L 7,50  L 7,49  L 6,49  L 6,48  L 7,48  L 7,41  L 8,41  L 8,35  L 9,35  L 9,32  L 10,32  L 10,30  L 11,30  L 11,27  L 12,27  L 12,25  L 13,25  L 13,24  L 14,24  L 14,23  L 15,23  L 15,22  L 16,22  L 16,21  L 17,21  L 17,20  L 26,20  L 26,21  Z  " style="fill:rgb(0, 0, 0); fill-opacity:1.000; stroke:none;" />
 <path d="  M 58,116  L 60,116  L 60,117  L 62,117  L 62,118  L 63,118  L 63,119  L 65,119  L 65,120  L 66,120  L 66,121  L 68,121  L 68,122  L 69,122  L 69,123  L 70,123  L 70,124  L 72,124  L 72,125  L 74,125  L 74,126  L 75,126  L 75,127  L 77,127  L 77,128  L 79,128  L 79,129  L 80,129  L 80,130  L 82,130  L 82,131  L 84,131  L 84,132  L 85,132  L 85,133  L 88,133  L 88,134  L 90,134  L 90,135  L 93,135  L 93,136  L 96,136  L 96,137  L 100,137  L 100,138  L 105,138  L 105,139  L 107,139  L 107,138  L 109,138  L 109,134  L 108,134  L 108,133  L 106,133  L 106,132  L 103,132  L 103,131  L 98,131  L 98,130  L 95,130  L 95,129  L 92,129  L 92,128  L 91,128  L 91,127  L 89,127  L 89,126  L 87,126  L 87,125  L 85,125  L 85,124  L 84,124  L 84,123  L 82,123  L 82,122  L 80,122  L 80,121  L 78,121  L 78,120  L 77,120  L 77,119  L 75,119  L 75,118  L 73,118  L 73,117  L 72,117  L 72,116  L 71,116  L 71,115  L 69,115  L 69,114  L 67,114  L 67,113  L 65,113  L 65,112  L 64,112  L 64,111  L 62,111  L 62,110  L 61,110  L 61,109  L 60,109  L 60,108  L 59,108  L 59,107  L 58,107  L 58,106  L 57,106  L 57,103  L 58,103  L 58,102  L 59,102  L 59,100  L 60,100  L 60,98  L 61,98  L 61,97  L 62,97  L 62,95  L 63,95  L 63,94  L 65,94  L 65,93  L 64,93  L 64,90  L 63,90  L 63,89  L 56,89  L 56,90  L 55,90  L 55,93  L 54,93  L 54,95  L 53,95  L 53,96  L 52,96  L 52,98  L 51,98  L 51,100  L 50,100  L 50,101  L 49,101  L 49,102  L 48,102  L 48,104  L 47,104  L 47,106  L 46,106  L 46,107  L 45,107  L 45,108  L 44,108  L 44,109  L 43,109  L 43,111  L 42,111  L 42,112  L 41,112  L 41,114  L 40,114  L 40,115  L 39,115  L 39,117  L 37,117  L 37,119  L 36,119  L 36,120  L 35,120  L 35,121  L 34,121  L 34,122  L 33,122  L 33,123  L 32,123  L 32,124  L 31,124  L 31,125  L 30,125  L 30,126  L 29,126  L 29,127  L 28,127  L 28,128  L 27,128  L 27,129  L 26,129  L 26,130  L 25,130  L 25,131  L 23,131  L 23,133  L 21,133  L 21,134  L 20,134  L 20,136  L 19,136  L 19,139  L 26,139  L 26,138  L 28,138  L 28,137  L 29,137  L 29,136  L 30,136  L 30,135  L 31,135  L 31,134  L 32,134  L 32,133  L 33,133  L 33,132  L 34,132  L 34,131  L 35,131  L 35,130  L 37,130  L 37,128  L 38,128  L 38,127  L 39,127  L 39,125  L 40,125  L 40,124  L 42,124  L 42,122  L 43,122  L 43,121  L 44,121  L 44,120  L 45,120  L 45,119  L 46,119  L 46,117  L 47,117  L 47,116  L 48,116  L 48,114  L 49,114  L 49,112  L 50,112  L 50,111  L 53,111  L 53,112  L 54,112  L 54,113  L 55,113  L 55,114  L 57,114  L 57,115  L 58,115  Z  " style="fill:rgb(0, 0, 0); fill-opacity:1.000; stroke:none;" />
 <path d="  M 104,87  L 104,86  L 105,86  L 105,85  L 108,85  L 108,82  L 109,82  L 109,81  L 108,81  L 108,80  L 109,80  L 109,61  L 108,61  L 108,47  L 107,47  L 107,46  L 108,46  L 108,45  L 107,45  L 107,44  L 108,44  L 108,43  L 107,43  L 107,37  L 106,37  L 106,27  L 105,27  L 105,17  L 104,17  L 104,14  L 105,14  L 105,13  L 104,13  L 104,6  L 103,6  L 103,5  L 102,5  L 102,4  L 101,4  L 101,3  L 100,3  L 100,4  L 98,4  L 98,18  L 99,18  L 99,33  L 100,33  L 100,52  L 101,52  L 101,55  L 100,55  L 100,56  L 101,56  L 101,59  L 100,59  L 100,60  L 101,60  L 101,86  L 102,86  L 102,87  Z  " style="fill:rgb(0, 0, 0); fill-opacity:1.000; stroke:none;" />
</svg>
