<?xml version="1.0" encoding="UTF-8" standalone="no"?>
<!DOCTYPE svg PUBLIC "-//W3C//DTD SVG 1.1//EN" 
  "http://www.w3.org/Graphics/SVG/1.1/DTD/svg11.dtd">
<svg width="105" height="142"
     xmlns="http://www.w3.org/2000/svg" version="1.1">
 <path d="  M 35,17  L 38,17  L 38,18  L 40,18  L 40,19  L 42,19  L 42,20  L 43,20  L 43,21  L 44,21  L 44,22  L 45,22  L 45,25  L 46,25  L 46,36  L 47,36  L 47,37  L 46,37  L 46,47  L 45,47  L 45,50  L 44,50  L 44,52  L 43,52  L 43,54  L 42,54  L 42,55  L 41,55  L 41,56  L 38,56  L 38,57  L 37,57  L 37,58  L 35,58  L 35,59  L 32,59  L 32,60  L 27,60  L 27,61  L 17,61  L 17,60  L 16,60  L 16,61  L 15,61  L 15,60  L 13,60  L 13,59  L 11,59  L 11,58  L 10,58  L 10,57  L 9,57  L 9,53  L 8,53  L 8,51  L 7,51  L 7,40  L 8,40  L 8,34  L 9,34  L 9,29  L 10,29  L 10,27  L 11,27  L 11,24  L 12,24  L 12,22  L 13,22  L 13,20  L 14,20  L 14,19  L 15,19  L 15,18  L 16,18  L 16,17  L 17,17  L 17,16  L 18,16  L 18,14  L 20,14  L 20,13  L 24,13  L 24,14  L 27,14  L 27,15  L 32,15  L 32,16  L 35,16  Z  M 69,35  L 70,35  L 70,36  L 71,36  L 71,35  L 76,35  L 76,36  L 77,36  L 77,64  L 78,64  L 78,65  L 79,65  L 79,66  L 83,66  L 83,64  L 84,64  L 84,47  L 83,47  L 83,46  L 84,46  L 84,39  L 83,39  L 83,37  L 84,37  L 84,35  L 83,35  L 83,34  L 84,34  L 84,33  L 83,33  L 83,32  L 84,32  L 84,31  L 83,31  L 83,30  L 84,30  L 84,29  L 83,29  L 83,28  L 84,28  L 84,27  L 83,27  L 83,2  L 82,2  L 82,1  L 78,1  L 78,2  L 77,2  L 77,27  L 75,27  L 75,28  L 74,28  L 74,27  L 73,27  L 73,28  L 68,28  L 68,29  L 63,29  L 63,30  L 62,30  L 62,29  L 61,29  L 61,30  L 54,30  L 54,32  L 53,32  L 53,29  L 52,29  L 52,26  L 51,26  L 51,22  L 50,22  L 50,20  L 49,20  L 49,18  L 48,18  L 48,17  L 46,17  L 46,16  L 45,16  L 45,15  L 44,15  L 44,14  L 42,14  L 42,13  L 40,13  L 40,12  L 38,12  L 38,11  L 36,11  L 36,10  L 33,10  L 33,9  L 28,9  L 28,8  L 24,8  L 24,7  L 21,7  L 21,6  L 19,6  L 19,7  L 17,7  L 17,8  L 16,8  L 16,9  L 15,9  L 15,10  L 14,10  L 14,11  L 13,11  L 13,12  L 12,12  L 12,13  L 11,13  L 11,15  L 10,15  L 10,16  L 9,16  L 9,17  L 8,17  L 8,18  L 7,18  L 7,20  L 6,20  L 6,22  L 5,22  L 5,25  L 4,25  L 4,27  L 3,27  L 3,28  L 4,28  L 4,29  L 3,29  L 3,34  L 2,34  L 2,42  L 1,42  L 1,49  L 2,49  L 2,56  L 3,56  L 3,58  L 4,58  L 4,60  L 5,60  L 5,62  L 6,62  L 6,63  L 7,63  L 7,64  L 9,64  L 9,65  L 11,65  L 11,66  L 12,66  L 12,67  L 21,67  L 21,68  L 22,68  L 22,67  L 29,67  L 29,66  L 33,66  L 33,65  L 35,65  L 35,64  L 39,64  L 39,63  L 41,63  L 41,62  L 43,62  L 43,61  L 44,61  L 44,60  L 45,60  L 45,59  L 46,59  L 46,58  L 47,58  L 47,57  L 48,57  L 48,56  L 49,56  L 49,55  L 50,55  L 50,53  L 51,53  L 51,52  L 52,52  L 52,51  L 51,51  L 51,50  L 52,50  L 52,48  L 53,48  L 53,37  L 58,37  L 58,36  L 65,36  L 65,35  L 66,35  L 66,36  L 67,36  L 67,35  L 68,35  L 68,36  L 69,36  Z  " style="fill:rgb(0, 0, 0); fill-opacity:1.000; stroke:none;" />
 <path d="  M 86,88  L 86,87  L 89,87  L 89,88  L 90,88  L 90,89  L 92,89  L 92,90  L 96,90  L 96,91  L 97,91  L 97,94  L 98,94  L 98,101  L 99,101  L 99,104  L 98,104  L 98,115  L 97,115  L 97,119  L 96,119  L 96,121  L 95,121  L 95,123  L 94,123  L 94,124  L 93,124  L 93,125  L 92,125  L 92,126  L 91,126  L 91,127  L 90,127  L 90,128  L 88,128  L 88,129  L 86,129  L 86,130  L 85,130  L 85,131  L 83,131  L 83,132  L 80,132  L 80,133  L 78,133  L 78,134  L 76,134  L 76,135  L 71,135  L 71,136  L 70,136  L 70,135  L 69,135  L 69,136  L 50,136  L 50,135  L 46,135  L 46,134  L 45,134  L 45,133  L 44,133  L 44,132  L 42,132  L 42,131  L 41,131  L 41,130  L 42,130  L 42,129  L 41,129  L 41,116  L 42,116  L 42,113  L 43,113  L 43,110  L 44,110  L 44,109  L 45,109  L 45,107  L 46,107  L 46,105  L 47,105  L 47,104  L 48,104  L 48,103  L 49,103  L 49,102  L 50,102  L 50,101  L 51,101  L 51,100  L 52,100  L 52,99  L 53,99  L 53,98  L 54,98  L 54,97  L 55,97  L 55,96  L 57,96  L 57,95  L 58,95  L 58,94  L 59,94  L 59,93  L 60,93  L 60,92  L 62,92  L 62,91  L 63,91  L 63,90  L 65,90  L 65,89  L 67,89  L 67,88  L 68,88  L 68,87  L 73,87  L 73,86  L 83,86  L 83,87  L 85,87  L 85,88  Z  M 74,142  L 74,141  L 77,141  L 77,140  L 81,140  L 81,139  L 83,139  L 83,138  L 86,138  L 86,137  L 89,137  L 89,136  L 90,136  L 90,135  L 92,135  L 92,134  L 94,134  L 94,133  L 95,133  L 95,132  L 97,132  L 97,131  L 98,131  L 98,130  L 99,130  L 99,128  L 100,128  L 100,127  L 101,127  L 101,126  L 102,126  L 102,124  L 103,124  L 103,121  L 104,121  L 104,117  L 105,117  L 105,91  L 104,91  L 104,90  L 103,90  L 103,88  L 102,88  L 102,87  L 100,87  L 100,85  L 99,85  L 99,84  L 97,84  L 97,83  L 96,83  L 96,81  L 95,81  L 95,80  L 92,80  L 92,79  L 87,79  L 87,78  L 85,78  L 85,79  L 67,79  L 67,80  L 62,80  L 62,81  L 59,81  L 59,82  L 58,82  L 58,83  L 57,83  L 57,84  L 55,84  L 55,85  L 54,85  L 54,86  L 53,86  L 53,88  L 52,88  L 52,89  L 51,89  L 51,90  L 50,90  L 50,92  L 49,92  L 49,93  L 48,93  L 48,94  L 47,94  L 47,95  L 46,95  L 46,96  L 45,96  L 45,97  L 44,97  L 44,98  L 43,98  L 43,100  L 42,100  L 42,101  L 41,101  L 41,102  L 40,102  L 40,104  L 39,104  L 39,105  L 38,105  L 38,107  L 37,107  L 37,110  L 36,110  L 36,113  L 35,113  L 35,115  L 34,115  L 34,121  L 33,121  L 33,128  L 34,128  L 34,131  L 35,131  L 35,134  L 36,134  L 36,136  L 37,136  L 37,137  L 38,137  L 38,138  L 39,138  L 39,139  L 41,139  L 41,140  L 42,140  L 42,141  L 46,141  L 46,142  Z  " style="fill:rgb(0, 0, 0); fill-opacity:1.000; stroke:none;" />
 <path d="  M 102,6  L 101,6  L 101,3  L 100,3  L 100,1  L 99,1  L 99,0  L 98,0  L 98,1  L 96,1  L 96,2  L 94,2  L 94,8  L 95,8  L 95,14  L 96,14  L 96,24  L 97,24  L 97,26  L 96,26  L 96,28  L 97,28  L 97,31  L 96,31  L 96,32  L 97,32  L 97,35  L 96,35  L 96,36  L 97,36  L 97,60  L 98,60  L 98,75  L 99,75  L 99,76  L 102,76  L 102,77  L 103,77  L 103,76  L 104,76  L 104,72  L 105,72  L 105,71  L 104,71  L 104,70  L 105,70  L 105,67  L 104,67  L 104,43  L 103,43  L 103,41  L 104,41  L 104,39  L 103,39  L 103,37  L 104,37  L 104,35  L 103,35  L 103,32  L 104,32  L 104,31  L 103,31  L 103,28  L 104,28  L 104,27  L 103,27  L 103,15  L 102,15  L 102,14  L 103,14  L 103,13  L 102,13  Z  " style="fill:rgb(0, 0, 0); fill-opacity:1.000; stroke:none;" />
</svg>
