<?xml version="1.0" encoding="UTF-8" standalone="no"?>
<!DOCTYPE svg PUBLIC "-//W3C//DTD SVG 1.1//EN" 
  "http://www.w3.org/Graphics/SVG/1.1/DTD/svg11.dtd">
<svg width="103" height="153"
     xmlns="http://www.w3.org/2000/svg" version="1.1">
 <path d="  M 92,91  L 91,91  L 91,95  L 92,95  L 92,96  L 93,96  L 93,97  L 98,97  L 98,95  L 99,95  L 99,94  L 98,94  L 98,93  L 99,93  L 99,92  L 98,92  L 98,89  L 99,89  L 99,88  L 98,88  L 98,87  L 99,87  L 99,86  L 98,86  L 98,85  L 99,85  L 99,84  L 98,84  L 98,83  L 99,83  L 99,71  L 100,71  L 100,70  L 99,70  L 99,67  L 100,67  L 100,66  L 99,66  L 99,65  L 100,65  L 100,57  L 101,57  L 101,43  L 102,43  L 102,42  L 101,42  L 101,41  L 102,41  L 102,40  L 101,40  L 101,39  L 102,39  L 102,33  L 101,33  L 101,31  L 102,31  L 102,30  L 101,30  L 101,22  L 100,22  L 100,14  L 99,14  L 99,10  L 98,10  L 98,9  L 99,9  L 99,8  L 98,8  L 98,2  L 97,2  L 97,1  L 95,1  L 95,0  L 93,0  L 93,1  L 92,1  L 92,3  L 91,3  L 91,10  L 92,10  L 92,17  L 93,17  L 93,22  L 94,22  L 94,30  L 86,30  L 86,31  L 85,31  L 85,30  L 84,30  L 84,31  L 77,31  L 77,32  L 76,32  L 76,31  L 75,31  L 75,32  L 66,32  L 66,33  L 65,33  L 65,32  L 64,32  L 64,33  L 63,33  L 63,34  L 62,34  L 62,35  L 61,35  L 61,37  L 62,37  L 62,38  L 61,38  L 61,39  L 63,39  L 63,40  L 66,40  L 66,39  L 69,39  L 69,38  L 77,38  L 77,37  L 78,37  L 78,38  L 79,38  L 79,37  L 80,37  L 80,38  L 81,38  L 81,37  L 94,37  L 94,51  L 92,51  L 92,52  L 84,52  L 84,53  L 81,53  L 81,52  L 80,52  L 80,53  L 66,53  L 66,54  L 62,54  L 62,55  L 61,55  L 61,56  L 59,56  L 59,57  L 58,57  L 58,56  L 57,56  L 57,55  L 56,55  L 56,54  L 57,54  L 57,51  L 56,51  L 56,34  L 55,34  L 55,32  L 54,32  L 54,31  L 53,31  L 53,29  L 52,29  L 52,28  L 51,28  L 51,27  L 50,27  L 50,26  L 49,26  L 49,25  L 48,25  L 48,24  L 47,24  L 47,23  L 45,23  L 45,22  L 41,22  L 41,21  L 37,21  L 37,20  L 34,20  L 34,19  L 29,19  L 29,18  L 27,18  L 27,17  L 26,17  L 26,18  L 24,18  L 24,19  L 22,19  L 22,20  L 21,20  L 21,21  L 19,21  L 19,22  L 18,22  L 18,23  L 17,23  L 17,24  L 15,24  L 15,26  L 13,26  L 13,27  L 12,27  L 12,28  L 11,28  L 11,30  L 10,30  L 10,32  L 9,32  L 9,34  L 8,34  L 8,36  L 7,36  L 7,40  L 6,40  L 6,42  L 5,42  L 5,46  L 4,46  L 4,48  L 3,48  L 3,52  L 2,52  L 2,53  L 3,53  L 3,54  L 2,54  L 2,60  L 1,60  L 1,69  L 2,69  L 2,73  L 3,73  L 3,75  L 5,75  L 5,76  L 6,76  L 6,77  L 8,77  L 8,78  L 11,78  L 11,79  L 15,79  L 15,80  L 22,80  L 22,81  L 23,81  L 23,80  L 32,80  L 32,79  L 34,79  L 34,78  L 37,78  L 37,77  L 41,77  L 41,76  L 42,76  L 42,75  L 44,75  L 44,74  L 46,74  L 46,73  L 47,73  L 47,72  L 48,72  L 48,71  L 49,71  L 49,70  L 50,70  L 50,69  L 51,69  L 51,67  L 52,67  L 52,66  L 53,66  L 53,65  L 54,65  L 54,64  L 55,64  L 55,62  L 56,62  L 56,61  L 57,61  L 57,59  L 58,59  L 58,61  L 64,61  L 64,62  L 65,62  L 65,61  L 73,61  L 73,60  L 74,60  L 74,61  L 76,61  L 76,60  L 79,60  L 79,61  L 80,61  L 80,60  L 88,60  L 88,59  L 89,59  L 89,60  L 92,60  Z  M 50,57  L 49,57  L 49,60  L 48,60  L 48,62  L 47,62  L 47,63  L 46,63  L 46,65  L 45,65  L 45,66  L 44,66  L 44,67  L 43,67  L 43,68  L 42,68  L 42,69  L 40,69  L 40,70  L 38,70  L 38,71  L 36,71  L 36,72  L 33,72  L 33,73  L 17,73  L 17,72  L 16,72  L 16,73  L 15,73  L 15,72  L 12,72  L 12,71  L 10,71  L 10,70  L 9,70  L 9,68  L 8,68  L 8,55  L 9,55  L 9,50  L 10,50  L 10,46  L 11,46  L 11,44  L 12,44  L 12,41  L 13,41  L 13,39  L 14,39  L 14,36  L 15,36  L 15,35  L 16,35  L 16,32  L 17,32  L 17,31  L 18,31  L 18,30  L 19,30  L 19,29  L 20,29  L 20,27  L 21,27  L 21,26  L 22,26  L 22,25  L 24,25  L 24,24  L 27,24  L 27,25  L 34,25  L 34,26  L 38,26  L 38,27  L 42,27  L 42,28  L 44,28  L 44,29  L 46,29  L 46,30  L 47,30  L 47,32  L 48,32  L 48,34  L 49,34  L 49,41  L 50,41  Z  " style="fill:rgb(0, 0, 0); fill-opacity:1.000; stroke:none;" />
 <path d="  M 97,114  L 96,114  L 96,132  L 95,132  L 95,142  L 94,142  L 94,143  L 95,143  L 95,145  L 94,145  L 94,153  L 99,153  L 99,152  L 100,152  L 100,150  L 101,150  L 101,145  L 102,145  L 102,133  L 103,133  L 103,132  L 102,132  L 102,129  L 103,129  L 103,128  L 102,128  L 102,126  L 103,126  L 103,106  L 102,106  L 102,105  L 101,105  L 101,104  L 100,104  L 100,103  L 99,103  L 99,102  L 97,102  L 97,101  L 94,101  L 94,102  L 84,102  L 84,103  L 67,103  L 67,104  L 65,104  L 65,105  L 64,105  L 64,106  L 62,106  L 62,105  L 56,105  L 56,104  L 50,104  L 50,103  L 39,103  L 39,102  L 38,102  L 38,103  L 34,103  L 34,104  L 31,104  L 31,105  L 29,105  L 29,106  L 26,106  L 26,107  L 23,107  L 23,110  L 22,110  L 22,111  L 23,111  L 23,112  L 30,112  L 30,111  L 32,111  L 32,110  L 35,110  L 35,109  L 49,109  L 49,110  L 53,110  L 53,111  L 57,111  L 57,112  L 58,112  L 58,122  L 57,122  L 57,127  L 56,127  L 56,134  L 55,134  L 55,138  L 54,138  L 54,141  L 53,141  L 53,144  L 52,144  L 52,147  L 51,147  L 51,150  L 52,150  L 52,151  L 53,151  L 53,152  L 57,152  L 57,153  L 58,153  L 58,151  L 59,151  L 59,148  L 60,148  L 60,144  L 61,144  L 61,136  L 62,136  L 62,130  L 63,130  L 63,125  L 64,125  L 64,124  L 63,124  L 63,123  L 64,123  L 64,120  L 65,120  L 65,111  L 64,111  L 64,109  L 63,109  L 63,107  L 64,107  L 64,108  L 66,108  L 66,109  L 68,109  L 68,110  L 69,110  L 69,111  L 70,111  L 70,110  L 76,110  L 76,109  L 78,109  L 78,110  L 79,110  L 79,109  L 93,109  L 93,108  L 96,108  L 96,109  L 97,109  Z  " style="fill:rgb(0, 0, 0); fill-opacity:1.000; stroke:none;" />
</svg>
