<?xml version="1.0" encoding="UTF-8" standalone="no"?>
<!DOCTYPE svg PUBLIC "-//W3C//DTD SVG 1.1//EN" 
  "http://www.w3.org/Graphics/SVG/1.1/DTD/svg11.dtd">
<svg width="101" height="170"
     xmlns="http://www.w3.org/2000/svg" version="1.1">
 <path d="  M 71,65  L 71,64  L 74,64  L 74,65  L 75,65  L 75,64  L 76,64  L 76,63  L 77,63  L 77,64  L 78,64  L 78,63  L 83,63  L 83,65  L 84,65  L 84,66  L 83,66  L 83,84  L 84,84  L 84,85  L 83,85  L 83,86  L 84,86  L 84,93  L 85,93  L 85,96  L 86,96  L 86,97  L 90,97  L 90,95  L 91,95  L 91,76  L 90,76  L 90,75  L 91,75  L 91,74  L 90,74  L 90,73  L 91,73  L 91,72  L 90,72  L 90,71  L 91,71  L 91,70  L 90,70  L 90,69  L 91,69  L 91,57  L 92,57  L 92,56  L 91,56  L 91,53  L 92,53  L 92,51  L 91,51  L 91,41  L 92,41  L 92,37  L 91,37  L 91,24  L 90,24  L 90,16  L 89,16  L 89,10  L 88,10  L 88,3  L 87,3  L 87,1  L 86,1  L 86,0  L 82,0  L 82,1  L 81,1  L 81,2  L 80,2  L 80,6  L 81,6  L 81,10  L 82,10  L 82,14  L 83,14  L 83,23  L 84,23  L 84,27  L 85,27  L 85,30  L 84,30  L 84,31  L 78,31  L 78,32  L 71,32  L 71,33  L 70,33  L 70,32  L 69,32  L 69,33  L 68,33  L 68,32  L 67,32  L 67,33  L 65,33  L 65,34  L 64,34  L 64,33  L 63,33  L 63,34  L 62,34  L 62,36  L 61,36  L 61,38  L 60,38  L 60,39  L 61,39  L 61,40  L 62,40  L 62,41  L 63,41  L 63,42  L 64,42  L 64,41  L 68,41  L 68,40  L 71,40  L 71,39  L 83,39  L 83,40  L 84,40  L 84,53  L 83,53  L 83,54  L 75,54  L 75,55  L 70,55  L 70,56  L 65,56  L 65,57  L 63,57  L 63,58  L 61,58  L 61,59  L 60,59  L 60,60  L 56,60  L 56,61  L 54,61  L 54,60  L 53,60  L 53,36  L 52,36  L 52,33  L 51,33  L 51,31  L 50,31  L 50,30  L 49,30  L 49,29  L 48,29  L 48,28  L 47,28  L 47,26  L 45,26  L 45,25  L 44,25  L 44,24  L 43,24  L 43,23  L 40,23  L 40,22  L 38,22  L 38,21  L 36,21  L 36,20  L 33,20  L 33,19  L 30,19  L 30,18  L 28,18  L 28,17  L 27,17  L 27,16  L 25,16  L 25,17  L 23,17  L 23,18  L 22,18  L 22,19  L 21,19  L 21,20  L 19,20  L 19,21  L 18,21  L 18,22  L 17,22  L 17,24  L 15,24  L 15,25  L 14,25  L 14,26  L 13,26  L 13,27  L 12,27  L 12,28  L 11,28  L 11,29  L 10,29  L 10,30  L 9,30  L 9,33  L 8,33  L 8,34  L 7,34  L 7,36  L 6,36  L 6,40  L 5,40  L 5,43  L 4,43  L 4,49  L 3,49  L 3,55  L 2,55  L 2,64  L 1,64  L 1,70  L 2,70  L 2,73  L 3,73  L 3,75  L 4,75  L 4,76  L 5,76  L 5,77  L 6,77  L 6,78  L 7,78  L 7,79  L 10,79  L 10,80  L 16,80  L 16,81  L 20,81  L 20,82  L 29,82  L 29,81  L 31,81  L 31,80  L 33,80  L 33,79  L 36,79  L 36,78  L 37,78  L 37,77  L 40,77  L 40,76  L 41,76  L 41,75  L 43,75  L 43,74  L 45,74  L 45,73  L 46,73  L 46,71  L 48,71  L 48,70  L 49,70  L 49,69  L 50,69  L 50,67  L 51,67  L 51,66  L 54,66  L 54,65  L 58,65  L 58,66  L 64,66  L 64,65  Z  M 19,28  L 20,28  L 20,27  L 21,27  L 21,26  L 23,26  L 23,25  L 25,25  L 25,24  L 27,24  L 27,25  L 30,25  L 30,26  L 34,26  L 34,27  L 37,27  L 37,28  L 39,28  L 39,29  L 41,29  L 41,30  L 43,30  L 43,31  L 44,31  L 44,32  L 45,32  L 45,34  L 46,34  L 46,41  L 47,41  L 47,42  L 46,42  L 46,43  L 47,43  L 47,44  L 46,44  L 46,45  L 47,45  L 47,46  L 46,46  L 46,47  L 47,47  L 47,48  L 46,48  L 46,49  L 47,49  L 47,50  L 46,50  L 46,51  L 47,51  L 47,52  L 46,52  L 46,60  L 45,60  L 45,63  L 44,63  L 44,65  L 43,65  L 43,66  L 42,66  L 42,67  L 41,67  L 41,69  L 39,69  L 39,70  L 37,70  L 37,71  L 36,71  L 36,72  L 33,72  L 33,73  L 29,73  L 29,74  L 16,74  L 16,73  L 13,73  L 13,72  L 11,72  L 11,71  L 10,71  L 10,70  L 9,70  L 9,69  L 8,69  L 8,68  L 9,68  L 9,65  L 10,65  L 10,64  L 9,64  L 9,61  L 10,61  L 10,60  L 9,60  L 9,58  L 10,58  L 10,49  L 11,49  L 11,44  L 12,44  L 12,41  L 13,41  L 13,38  L 14,38  L 14,35  L 15,35  L 15,34  L 16,34  L 16,32  L 17,32  L 17,31  L 18,31  L 18,30  L 19,30  Z  " style="fill:rgb(0, 0, 0); fill-opacity:1.000; stroke:none;" />
 <path d="  M 76,134  L 77,134  L 77,135  L 80,135  L 80,134  L 81,134  L 81,135  L 84,135  L 84,134  L 85,134  L 85,135  L 86,135  L 86,134  L 87,134  L 87,135  L 88,135  L 88,134  L 91,134  L 91,135  L 92,135  L 92,134  L 93,134  L 93,135  L 95,135  L 95,136  L 94,136  L 94,137  L 95,137  L 95,138  L 94,138  L 94,142  L 93,142  L 93,143  L 94,143  L 94,145  L 93,145  L 93,151  L 92,151  L 92,154  L 91,154  L 91,156  L 90,156  L 90,157  L 85,157  L 85,158  L 79,158  L 79,159  L 74,159  L 74,158  L 73,158  L 73,159  L 72,159  L 72,158  L 71,158  L 71,159  L 66,159  L 66,157  L 64,157  L 64,139  L 65,139  L 65,137  L 64,137  L 64,136  L 65,136  L 65,135  L 66,135  L 66,134  L 68,134  L 68,135  L 76,135  Z  M 43,113  L 42,113  L 42,112  L 40,112  L 40,111  L 38,111  L 38,110  L 36,110  L 36,109  L 34,109  L 34,108  L 15,108  L 15,109  L 14,109  L 14,110  L 11,110  L 11,111  L 10,111  L 10,114  L 9,114  L 9,121  L 10,121  L 10,120  L 13,120  L 13,119  L 14,119  L 14,118  L 15,118  L 15,117  L 17,117  L 17,116  L 18,116  L 18,115  L 21,115  L 21,114  L 31,114  L 31,115  L 33,115  L 33,116  L 35,116  L 35,117  L 37,117  L 37,118  L 38,118  L 38,119  L 40,119  L 40,121  L 41,121  L 41,123  L 40,123  L 40,127  L 39,127  L 39,129  L 38,129  L 38,130  L 37,130  L 37,131  L 36,131  L 36,132  L 31,132  L 31,133  L 28,133  L 28,134  L 25,134  L 25,135  L 24,135  L 24,134  L 23,134  L 23,135  L 21,135  L 21,136  L 18,136  L 18,137  L 16,137  L 16,138  L 13,138  L 13,139  L 11,139  L 11,140  L 9,140  L 9,141  L 8,141  L 8,142  L 7,142  L 7,144  L 6,144  L 6,145  L 5,145  L 5,155  L 4,155  L 4,156  L 5,156  L 5,159  L 6,159  L 6,161  L 7,161  L 7,163  L 8,163  L 8,164  L 10,164  L 10,166  L 11,166  L 11,167  L 12,167  L 12,166  L 13,166  L 13,167  L 14,167  L 14,169  L 20,169  L 20,170  L 36,170  L 36,169  L 39,169  L 39,168  L 43,168  L 43,167  L 44,167  L 44,166  L 45,166  L 45,167  L 46,167  L 46,166  L 48,166  L 48,165  L 50,165  L 50,164  L 52,164  L 52,163  L 56,163  L 56,162  L 57,162  L 57,163  L 62,163  L 62,164  L 63,164  L 63,165  L 67,165  L 67,166  L 68,166  L 68,165  L 69,165  L 69,166  L 71,166  L 71,165  L 80,165  L 80,164  L 81,164  L 81,165  L 83,165  L 83,164  L 88,164  L 88,163  L 92,163  L 92,162  L 93,162  L 93,163  L 94,163  L 94,162  L 95,162  L 95,161  L 97,161  L 97,159  L 98,159  L 98,158  L 99,158  L 99,154  L 100,154  L 100,147  L 101,147  L 101,146  L 100,146  L 100,144  L 101,144  L 101,109  L 100,109  L 100,107  L 99,107  L 99,106  L 98,106  L 98,105  L 97,105  L 97,104  L 96,104  L 96,103  L 95,103  L 95,102  L 92,102  L 92,103  L 91,103  L 91,107  L 92,107  L 92,110  L 93,110  L 93,113  L 94,113  L 94,124  L 95,124  L 95,127  L 66,127  L 66,128  L 65,128  L 65,127  L 64,127  L 64,124  L 65,124  L 65,121  L 66,121  L 66,117  L 67,117  L 67,116  L 66,116  L 66,113  L 67,113  L 67,112  L 66,112  L 66,111  L 64,111  L 64,112  L 62,112  L 62,113  L 61,113  L 61,115  L 60,115  L 60,117  L 59,117  L 59,122  L 58,122  L 58,125  L 59,125  L 59,126  L 58,126  L 58,137  L 57,137  L 57,152  L 56,152  L 56,154  L 54,154  L 54,155  L 51,155  L 51,156  L 48,156  L 48,157  L 47,157  L 47,158  L 43,158  L 43,159  L 42,159  L 42,160  L 37,160  L 37,161  L 36,161  L 36,162  L 29,162  L 29,163  L 24,163  L 24,162  L 23,162  L 23,163  L 20,163  L 20,162  L 16,162  L 16,161  L 14,161  L 14,160  L 13,160  L 13,157  L 12,157  L 12,152  L 13,152  L 13,149  L 14,149  L 14,147  L 15,147  L 15,146  L 16,146  L 16,145  L 17,145  L 17,144  L 18,144  L 18,143  L 20,143  L 20,142  L 24,142  L 24,141  L 27,141  L 27,140  L 31,140  L 31,139  L 35,139  L 35,138  L 38,138  L 38,137  L 40,137  L 40,135  L 43,135  L 43,134  L 45,134  L 45,133  L 46,133  L 46,131  L 47,131  L 47,117  L 46,117  L 46,116  L 45,116  L 45,115  L 44,115  L 44,114  L 43,114  Z  " style="fill:rgb(0, 0, 0); fill-opacity:1.000; stroke:none;" />
</svg>
