<?xml version="1.0" encoding="UTF-8" standalone="no"?>
<!DOCTYPE svg PUBLIC "-//W3C//DTD SVG 1.1//EN" 
  "http://www.w3.org/Graphics/SVG/1.1/DTD/svg11.dtd">
<svg width="104" height="171"
     xmlns="http://www.w3.org/2000/svg" version="1.1">
 <path d="  M 4,80  L 4,81  L 5,81  L 5,82  L 7,82  L 7,83  L 11,83  L 11,84  L 13,84  L 13,85  L 14,85  L 14,84  L 15,84  L 15,85  L 19,85  L 19,86  L 33,86  L 33,85  L 36,85  L 36,84  L 41,84  L 41,83  L 44,83  L 44,82  L 45,82  L 45,81  L 47,81  L 47,80  L 48,80  L 48,79  L 49,79  L 49,78  L 50,78  L 50,77  L 51,77  L 51,75  L 52,75  L 52,74  L 53,74  L 53,73  L 54,73  L 54,72  L 55,72  L 55,69  L 56,69  L 56,64  L 57,64  L 57,63  L 56,63  L 56,60  L 57,60  L 57,58  L 56,58  L 56,56  L 57,56  L 57,54  L 56,54  L 56,53  L 57,53  L 57,50  L 56,50  L 56,37  L 55,37  L 55,35  L 54,35  L 54,33  L 53,33  L 53,31  L 52,31  L 52,30  L 51,30  L 51,29  L 50,29  L 50,28  L 49,28  L 49,27  L 48,27  L 48,26  L 46,26  L 46,25  L 41,25  L 41,24  L 38,24  L 38,23  L 35,23  L 35,22  L 30,22  L 30,21  L 27,21  L 27,20  L 25,20  L 25,21  L 23,21  L 23,22  L 21,22  L 21,23  L 20,23  L 20,24  L 19,24  L 19,25  L 18,25  L 18,26  L 17,26  L 17,27  L 16,27  L 16,28  L 15,28  L 15,29  L 14,29  L 14,30  L 13,30  L 13,31  L 12,31  L 12,32  L 11,32  L 11,33  L 10,33  L 10,35  L 9,35  L 9,37  L 8,37  L 8,38  L 7,38  L 7,40  L 6,40  L 6,44  L 5,44  L 5,47  L 4,47  L 4,53  L 3,53  L 3,58  L 2,58  L 2,67  L 1,67  L 1,75  L 2,75  L 2,78  L 3,78  L 3,80  Z  M 50,59  L 49,59  L 49,66  L 48,66  L 48,68  L 47,68  L 47,71  L 46,71  L 46,73  L 45,73  L 45,74  L 44,74  L 44,75  L 42,75  L 42,76  L 40,76  L 40,77  L 37,77  L 37,78  L 33,78  L 33,79  L 20,79  L 20,78  L 19,78  L 19,79  L 18,79  L 18,78  L 15,78  L 15,77  L 14,77  L 14,78  L 13,78  L 13,77  L 10,77  L 10,76  L 9,76  L 9,75  L 8,75  L 8,59  L 9,59  L 9,53  L 10,53  L 10,52  L 11,52  L 11,51  L 10,51  L 10,50  L 11,50  L 11,47  L 12,47  L 12,43  L 13,43  L 13,40  L 14,40  L 14,38  L 15,38  L 15,37  L 16,37  L 16,36  L 17,36  L 17,34  L 18,34  L 18,33  L 19,33  L 19,32  L 20,32  L 20,31  L 21,31  L 21,29  L 24,29  L 24,28  L 30,28  L 30,29  L 39,29  L 39,30  L 42,30  L 42,31  L 45,31  L 45,32  L 46,32  L 46,33  L 47,33  L 47,34  L 48,34  L 48,35  L 49,35  L 49,46  L 50,46  Z  " style="fill:rgb(0, 0, 0); fill-opacity:1.000; stroke:none;" />
 <path d="  M 35,121  L 34,121  L 34,122  L 35,122  L 35,123  L 34,123  L 34,124  L 35,124  L 35,125  L 34,125  L 34,128  L 35,128  L 35,129  L 34,129  L 34,131  L 35,131  L 35,132  L 34,132  L 34,134  L 35,134  L 35,137  L 34,137  L 34,138  L 35,138  L 35,144  L 36,144  L 36,148  L 37,148  L 37,157  L 38,157  L 38,158  L 37,158  L 37,159  L 38,159  L 38,162  L 39,162  L 39,164  L 40,164  L 40,166  L 41,166  L 41,167  L 42,167  L 42,168  L 43,168  L 43,169  L 46,169  L 46,170  L 50,170  L 50,171  L 71,171  L 71,170  L 76,170  L 76,169  L 77,169  L 77,168  L 79,168  L 79,167  L 81,167  L 81,165  L 82,165  L 82,166  L 83,166  L 83,165  L 84,165  L 84,164  L 85,164  L 85,165  L 86,165  L 86,164  L 87,164  L 87,163  L 89,163  L 89,162  L 90,162  L 90,161  L 91,161  L 91,159  L 92,159  L 92,153  L 93,153  L 93,145  L 94,145  L 94,140  L 95,140  L 95,139  L 94,139  L 94,138  L 95,138  L 95,132  L 96,132  L 96,127  L 95,127  L 95,126  L 96,126  L 96,105  L 93,105  L 93,104  L 90,104  L 90,105  L 89,105  L 89,111  L 88,111  L 88,112  L 89,112  L 89,113  L 88,113  L 88,114  L 89,114  L 89,117  L 88,117  L 88,118  L 89,118  L 89,119  L 88,119  L 88,120  L 89,120  L 89,125  L 88,125  L 88,126  L 89,126  L 89,128  L 88,128  L 88,129  L 89,129  L 89,131  L 88,131  L 88,132  L 87,132  L 87,133  L 43,133  L 43,104  L 42,104  L 42,103  L 38,103  L 38,104  L 37,104  L 37,105  L 36,105  L 36,106  L 35,106  Z  M 86,140  L 86,153  L 85,153  L 85,155  L 84,155  L 84,157  L 83,157  L 83,158  L 82,158  L 82,159  L 80,159  L 80,160  L 78,160  L 78,161  L 74,161  L 74,162  L 71,162  L 71,163  L 64,163  L 64,164  L 50,164  L 50,163  L 46,163  L 46,160  L 45,160  L 45,157  L 44,157  L 44,153  L 43,153  L 43,141  L 47,141  L 47,140  Z  " style="fill:rgb(0, 0, 0); fill-opacity:1.000; stroke:none;" />
 <path d="  M 68,60  L 68,61  L 63,61  L 63,62  L 62,62  L 62,63  L 61,63  L 61,65  L 60,65  L 60,66  L 59,66  L 59,67  L 60,67  L 60,68  L 61,68  L 61,69  L 71,69  L 71,68  L 80,68  L 80,67  L 81,67  L 81,68  L 82,68  L 82,67  L 83,67  L 83,68  L 84,68  L 84,67  L 85,67  L 85,68  L 86,68  L 86,67  L 87,67  L 87,68  L 88,68  L 88,67  L 89,67  L 89,68  L 90,68  L 90,67  L 92,67  L 92,66  L 95,66  L 95,67  L 96,67  L 96,78  L 97,78  L 97,96  L 98,96  L 98,97  L 99,97  L 99,98  L 101,98  L 101,97  L 103,97  L 103,95  L 104,95  L 104,23  L 103,23  L 103,22  L 104,22  L 104,21  L 103,21  L 103,11  L 102,11  L 102,8  L 103,8  L 103,7  L 102,7  L 102,3  L 101,3  L 101,1  L 99,1  L 99,0  L 96,0  L 96,1  L 95,1  L 95,2  L 94,2  L 94,10  L 95,10  L 95,16  L 96,16  L 96,33  L 90,33  L 90,34  L 83,34  L 83,35  L 76,35  L 76,36  L 73,36  L 73,35  L 72,35  L 72,36  L 66,36  L 66,37  L 64,37  L 64,36  L 63,36  L 63,38  L 62,38  L 62,42  L 63,42  L 63,44  L 65,44  L 65,43  L 67,43  L 67,44  L 68,44  L 68,43  L 71,43  L 71,42  L 81,42  L 81,41  L 89,41  L 89,40  L 90,40  L 90,41  L 91,41  L 91,40  L 96,40  L 96,42  L 97,42  L 97,45  L 96,45  L 96,47  L 97,47  L 97,53  L 96,53  L 96,57  L 95,57  L 95,58  L 90,58  L 90,59  L 89,59  L 89,58  L 88,58  L 88,59  L 83,59  L 83,60  L 81,60  L 81,59  L 80,59  L 80,60  Z  " style="fill:rgb(0, 0, 0); fill-opacity:1.000; stroke:none;" />
</svg>
