<?xml version="1.0" encoding="UTF-8" standalone="no"?>
<!DOCTYPE svg PUBLIC "-//W3C//DTD SVG 1.1//EN" 
  "http://www.w3.org/Graphics/SVG/1.1/DTD/svg11.dtd">
<svg width="103" height="137"
     xmlns="http://www.w3.org/2000/svg" version="1.1">
 <path d="  M 35,70  L 35,69  L 37,69  L 37,68  L 39,68  L 39,67  L 41,67  L 41,66  L 42,66  L 42,65  L 43,65  L 43,64  L 44,64  L 44,63  L 45,63  L 45,62  L 47,62  L 47,60  L 48,60  L 48,59  L 49,59  L 49,58  L 51,58  L 51,57  L 52,57  L 52,58  L 58,58  L 58,57  L 62,57  L 62,56  L 69,56  L 69,55  L 71,55  L 71,56  L 72,56  L 72,55  L 75,55  L 75,56  L 76,56  L 76,76  L 75,76  L 75,77  L 76,77  L 76,81  L 77,81  L 77,82  L 81,82  L 81,81  L 82,81  L 82,51  L 83,51  L 83,50  L 82,50  L 82,48  L 83,48  L 83,46  L 82,46  L 82,44  L 83,44  L 83,28  L 82,28  L 82,22  L 81,22  L 81,17  L 80,17  L 80,15  L 79,15  L 79,9  L 78,9  L 78,4  L 77,4  L 77,2  L 76,2  L 76,1  L 75,1  L 75,0  L 73,0  L 73,1  L 71,1  L 71,9  L 72,9  L 72,14  L 73,14  L 73,16  L 74,16  L 74,18  L 75,18  L 75,22  L 60,22  L 60,23  L 59,23  L 59,22  L 58,22  L 58,23  L 52,23  L 52,24  L 50,24  L 50,23  L 46,23  L 46,22  L 45,22  L 45,21  L 44,21  L 44,20  L 42,20  L 42,19  L 40,19  L 40,18  L 38,18  L 38,17  L 35,17  L 35,16  L 31,16  L 31,15  L 27,15  L 27,14  L 25,14  L 25,13  L 24,13  L 24,12  L 21,12  L 21,13  L 20,13  L 20,14  L 19,14  L 19,15  L 18,15  L 18,16  L 17,16  L 17,17  L 16,17  L 16,18  L 14,18  L 14,19  L 13,19  L 13,20  L 12,20  L 12,22  L 11,22  L 11,23  L 10,23  L 10,24  L 9,24  L 9,26  L 8,26  L 8,28  L 7,28  L 7,31  L 6,31  L 6,34  L 5,34  L 5,38  L 4,38  L 4,43  L 3,43  L 3,47  L 2,47  L 2,53  L 1,53  L 1,62  L 2,62  L 2,63  L 3,63  L 3,66  L 5,66  L 5,67  L 6,67  L 6,68  L 7,68  L 7,69  L 9,69  L 9,70  L 11,70  L 11,71  L 13,71  L 13,72  L 16,72  L 16,73  L 27,73  L 27,72  L 30,72  L 30,71  L 33,71  L 33,70  Z  M 65,29  L 65,28  L 66,28  L 66,29  L 67,29  L 67,28  L 75,28  L 75,29  L 76,29  L 76,31  L 77,31  L 77,32  L 76,32  L 76,48  L 69,48  L 69,49  L 62,49  L 62,50  L 55,50  L 55,51  L 53,51  L 53,52  L 51,52  L 51,41  L 52,41  L 52,31  L 53,31  L 53,30  L 56,30  L 56,29  L 63,29  L 63,28  L 64,28  L 64,29  Z  M 39,23  L 39,24  L 40,24  L 40,25  L 41,25  L 41,26  L 43,26  L 43,27  L 44,27  L 44,29  L 45,29  L 45,51  L 44,51  L 44,55  L 43,55  L 43,57  L 42,57  L 42,58  L 41,58  L 41,60  L 40,60  L 40,61  L 39,61  L 39,62  L 37,62  L 37,63  L 35,63  L 35,64  L 31,64  L 31,65  L 29,65  L 29,66  L 18,66  L 18,65  L 13,65  L 13,64  L 11,64  L 11,63  L 9,63  L 9,61  L 8,61  L 8,59  L 7,59  L 7,51  L 8,51  L 8,47  L 9,47  L 9,46  L 8,46  L 8,45  L 9,45  L 9,41  L 10,41  L 10,38  L 11,38  L 11,35  L 12,35  L 12,32  L 13,32  L 13,29  L 14,29  L 14,27  L 15,27  L 15,25  L 16,25  L 16,24  L 17,24  L 17,23  L 18,23  L 18,22  L 19,22  L 19,20  L 22,20  L 22,19  L 25,19  L 25,20  L 29,20  L 29,21  L 32,21  L 32,22  L 36,22  L 36,23  Z  " style="fill:rgb(0, 0, 0); fill-opacity:1.000; stroke:none;" />
 <path d="  M 46,112  L 36,112  L 36,113  L 35,113  L 35,112  L 32,112  L 32,113  L 31,113  L 31,112  L 30,112  L 30,113  L 29,113  L 29,112  L 28,112  L 28,113  L 27,113  L 27,112  L 26,112  L 26,113  L 20,113  L 20,112  L 19,112  L 19,94  L 18,94  L 18,93  L 17,93  L 17,92  L 14,92  L 14,93  L 13,93  L 13,94  L 12,94  L 12,103  L 13,103  L 13,104  L 12,104  L 12,106  L 13,106  L 13,108  L 12,108  L 12,109  L 13,109  L 13,116  L 12,116  L 12,123  L 13,123  L 13,124  L 12,124  L 12,125  L 13,125  L 13,130  L 14,130  L 14,132  L 15,132  L 15,134  L 16,134  L 16,135  L 17,135  L 17,137  L 34,137  L 34,136  L 40,136  L 40,135  L 44,135  L 44,134  L 49,134  L 49,133  L 51,133  L 51,132  L 52,132  L 52,131  L 53,131  L 53,130  L 52,130  L 52,126  L 51,126  L 51,125  L 52,125  L 52,98  L 51,98  L 51,97  L 52,97  L 52,96  L 51,96  L 51,93  L 50,93  L 50,92  L 48,92  L 48,91  L 47,91  L 47,92  L 45,92  L 45,93  L 46,93  Z  M 45,128  L 44,128  L 44,129  L 38,129  L 38,130  L 33,130  L 33,131  L 31,131  L 31,130  L 30,130  L 30,131  L 21,131  L 21,130  L 20,130  L 20,128  L 19,128  L 19,120  L 20,120  L 20,119  L 23,119  L 23,118  L 33,118  L 33,117  L 46,117  L 46,124  L 45,124  Z  " style="fill:rgb(0, 0, 0); fill-opacity:1.000; stroke:none;" />
 <path d="  M 65,131  L 65,130  L 66,130  L 66,129  L 67,129  L 67,126  L 68,126  L 68,123  L 69,123  L 69,119  L 70,119  L 70,117  L 71,117  L 71,116  L 72,116  L 72,115  L 73,115  L 73,113  L 76,113  L 76,115  L 77,115  L 77,116  L 78,116  L 78,117  L 79,117  L 79,119  L 81,119  L 81,120  L 82,120  L 82,121  L 83,121  L 83,122  L 84,122  L 84,123  L 85,123  L 85,124  L 86,124  L 86,125  L 87,125  L 87,126  L 88,126  L 88,127  L 90,127  L 90,128  L 91,128  L 91,129  L 92,129  L 92,130  L 94,130  L 94,131  L 95,131  L 95,132  L 96,132  L 96,133  L 97,133  L 97,134  L 98,134  L 98,135  L 101,135  L 101,134  L 103,134  L 103,128  L 102,128  L 102,127  L 100,127  L 100,126  L 98,126  L 98,125  L 96,125  L 96,124  L 95,124  L 95,123  L 93,123  L 93,122  L 92,122  L 92,121  L 91,121  L 91,120  L 90,120  L 90,119  L 89,119  L 89,118  L 88,118  L 88,117  L 87,117  L 87,116  L 86,116  L 86,115  L 85,115  L 85,114  L 84,114  L 84,113  L 83,113  L 83,112  L 82,112  L 82,111  L 81,111  L 81,109  L 80,109  L 80,108  L 77,108  L 77,105  L 78,105  L 78,100  L 79,100  L 79,96  L 80,96  L 80,92  L 81,92  L 81,91  L 80,91  L 80,89  L 78,89  L 78,88  L 77,88  L 77,89  L 75,89  L 75,91  L 74,91  L 74,94  L 73,94  L 73,96  L 72,96  L 72,98  L 71,98  L 71,101  L 70,101  L 70,103  L 69,103  L 69,106  L 68,106  L 68,108  L 67,108  L 67,110  L 66,110  L 66,113  L 65,113  L 65,116  L 64,116  L 64,118  L 63,118  L 63,120  L 62,120  L 62,124  L 61,124  L 61,131  Z  " style="fill:rgb(0, 0, 0); fill-opacity:1.000; stroke:none;" />
 <path d="  M 100,136  L 100,137  L 101,137  L 101,136  Z  " style="fill:rgb(0, 0, 0); fill-opacity:1.000; stroke:none;" />
</svg>
