<?xml version="1.0" encoding="UTF-8" standalone="no"?>
<!DOCTYPE svg PUBLIC "-//W3C//DTD SVG 1.1//EN" 
  "http://www.w3.org/Graphics/SVG/1.1/DTD/svg11.dtd">
<svg width="108" height="147"
     xmlns="http://www.w3.org/2000/svg" version="1.1">
 <path d="  M 9,64  L 8,64  L 8,63  L 7,63  L 7,61  L 6,61  L 6,56  L 7,56  L 7,49  L 8,49  L 8,45  L 9,45  L 9,42  L 10,42  L 10,40  L 11,40  L 11,36  L 12,36  L 12,34  L 13,34  L 13,32  L 14,32  L 14,30  L 15,30  L 15,28  L 16,28  L 16,27  L 17,27  L 17,26  L 18,26  L 18,24  L 19,24  L 19,22  L 26,22  L 26,23  L 29,23  L 29,24  L 32,24  L 32,25  L 34,25  L 34,26  L 36,26  L 36,27  L 39,27  L 39,28  L 40,28  L 40,29  L 41,29  L 41,30  L 43,30  L 43,32  L 44,32  L 44,34  L 45,34  L 45,52  L 44,52  L 44,57  L 43,57  L 43,58  L 42,58  L 42,59  L 41,59  L 41,61  L 40,61  L 40,62  L 39,62  L 39,63  L 38,63  L 38,64  L 36,64  L 36,65  L 35,65  L 35,66  L 32,66  L 32,67  L 28,67  L 28,68  L 15,68  L 15,67  L 12,67  L 12,66  L 11,66  L 11,65  L 9,65  Z  M 52,46  L 52,34  L 55,34  L 55,35  L 60,35  L 60,34  L 67,34  L 67,33  L 68,33  L 68,34  L 69,34  L 69,33  L 76,33  L 76,34  L 77,34  L 77,37  L 78,37  L 78,47  L 77,47  L 77,48  L 72,48  L 72,49  L 60,49  L 60,50  L 58,50  L 58,49  L 57,49  L 57,50  L 55,50  L 55,51  L 54,51  L 54,52  L 53,52  L 53,53  L 51,53  L 51,46  Z  M 84,76  L 85,76  L 85,75  L 84,75  L 84,72  L 85,72  L 85,71  L 84,71  L 84,68  L 85,68  L 85,67  L 84,67  L 84,64  L 85,64  L 85,63  L 84,63  L 84,60  L 85,60  L 85,59  L 84,59  L 84,56  L 85,56  L 85,55  L 84,55  L 84,54  L 85,54  L 85,51  L 84,51  L 84,49  L 85,49  L 85,47  L 84,47  L 84,44  L 85,44  L 85,43  L 84,43  L 84,40  L 85,40  L 85,39  L 84,39  L 84,36  L 85,36  L 85,35  L 84,35  L 84,29  L 83,29  L 83,26  L 82,26  L 82,23  L 81,23  L 81,18  L 80,18  L 80,14  L 79,14  L 79,6  L 78,6  L 78,3  L 77,3  L 77,1  L 76,1  L 76,0  L 73,0  L 73,1  L 72,1  L 72,2  L 71,2  L 71,8  L 72,8  L 72,14  L 73,14  L 73,18  L 74,18  L 74,22  L 75,22  L 75,23  L 76,23  L 76,26  L 73,26  L 73,27  L 72,27  L 72,26  L 71,26  L 71,27  L 53,27  L 53,28  L 48,28  L 48,27  L 46,27  L 46,26  L 45,26  L 45,25  L 43,25  L 43,24  L 42,24  L 42,23  L 41,23  L 41,22  L 39,22  L 39,21  L 36,21  L 36,20  L 34,20  L 34,19  L 31,19  L 31,18  L 29,18  L 29,17  L 26,17  L 26,16  L 24,16  L 24,15  L 23,15  L 23,14  L 21,14  L 21,15  L 20,15  L 20,16  L 19,16  L 19,18  L 17,18  L 17,19  L 16,19  L 16,20  L 15,20  L 15,21  L 14,21  L 14,22  L 13,22  L 13,23  L 12,23  L 12,24  L 11,24  L 11,25  L 10,25  L 10,26  L 9,26  L 9,27  L 8,27  L 8,29  L 7,29  L 7,32  L 6,32  L 6,35  L 5,35  L 5,38  L 4,38  L 4,42  L 3,42  L 3,45  L 2,45  L 2,50  L 1,50  L 1,59  L 0,59  L 0,61  L 1,61  L 1,65  L 2,65  L 2,67  L 3,67  L 3,69  L 4,69  L 4,70  L 5,70  L 5,71  L 8,71  L 8,72  L 10,72  L 10,73  L 13,73  L 13,74  L 28,74  L 28,73  L 33,73  L 33,72  L 35,72  L 35,71  L 37,71  L 37,70  L 39,70  L 39,69  L 40,69  L 40,68  L 41,68  L 41,67  L 43,67  L 43,66  L 44,66  L 44,65  L 45,65  L 45,64  L 46,64  L 46,63  L 47,63  L 47,62  L 48,62  L 48,60  L 49,60  L 49,58  L 50,58  L 50,57  L 51,57  L 51,56  L 52,56  L 52,57  L 53,57  L 53,58  L 59,58  L 59,57  L 65,57  L 65,56  L 74,56  L 74,55  L 77,55  L 77,57  L 78,57  L 78,59  L 77,59  L 77,60  L 78,60  L 78,62  L 77,62  L 77,65  L 78,65  L 78,66  L 77,66  L 77,68  L 78,68  L 78,69  L 77,69  L 77,73  L 78,73  L 78,74  L 77,74  L 77,84  L 78,84  L 78,87  L 83,87  L 83,86  L 84,86  L 84,80  L 85,80  L 85,79  L 84,79  Z  " style="fill:rgb(0, 0, 0); fill-opacity:1.000; stroke:none;" />
 <path d="  M 15,132  L 15,130  L 16,130  L 16,128  L 17,128  L 17,127  L 18,127  L 18,125  L 19,125  L 19,124  L 20,124  L 20,123  L 21,123  L 21,122  L 22,122  L 22,120  L 24,120  L 24,118  L 25,118  L 25,117  L 26,117  L 26,116  L 28,116  L 28,115  L 29,115  L 29,116  L 30,116  L 30,117  L 31,117  L 31,118  L 32,118  L 32,119  L 33,119  L 33,120  L 35,120  L 35,121  L 37,121  L 37,122  L 38,122  L 38,123  L 40,123  L 40,124  L 43,124  L 43,125  L 44,125  L 44,126  L 47,126  L 47,127  L 50,127  L 50,128  L 51,128  L 51,129  L 52,129  L 52,130  L 53,130  L 53,136  L 52,136  L 52,139  L 51,139  L 51,143  L 50,143  L 50,144  L 51,144  L 51,147  L 56,147  L 56,144  L 57,144  L 57,143  L 58,143  L 58,141  L 59,141  L 59,138  L 60,138  L 60,136  L 61,136  L 61,134  L 62,134  L 62,133  L 64,133  L 64,132  L 65,132  L 65,130  L 66,130  L 66,129  L 67,129  L 67,126  L 68,126  L 68,124  L 69,124  L 69,122  L 70,122  L 70,120  L 71,120  L 71,118  L 72,118  L 72,117  L 75,117  L 75,118  L 76,118  L 76,119  L 77,119  L 77,120  L 79,120  L 79,121  L 80,121  L 80,122  L 81,122  L 81,123  L 84,123  L 84,124  L 85,124  L 85,125  L 86,125  L 86,126  L 88,126  L 88,127  L 90,127  L 90,128  L 92,128  L 92,129  L 93,129  L 93,130  L 96,130  L 96,131  L 98,131  L 98,132  L 99,132  L 99,133  L 101,133  L 101,134  L 103,134  L 103,135  L 106,135  L 106,134  L 108,134  L 108,130  L 107,130  L 107,129  L 105,129  L 105,128  L 103,128  L 103,127  L 101,127  L 101,126  L 99,126  L 99,125  L 97,125  L 97,124  L 95,124  L 95,123  L 93,123  L 93,122  L 92,122  L 92,121  L 90,121  L 90,120  L 88,120  L 88,119  L 87,119  L 87,118  L 85,118  L 85,117  L 83,117  L 83,116  L 82,116  L 82,115  L 81,115  L 81,113  L 79,113  L 79,111  L 78,111  L 78,110  L 77,110  L 77,108  L 78,108  L 78,104  L 79,104  L 79,101  L 80,101  L 80,98  L 81,98  L 81,96  L 82,96  L 82,92  L 80,92  L 80,91  L 76,91  L 76,92  L 75,92  L 75,94  L 74,94  L 74,97  L 73,97  L 73,101  L 72,101  L 72,104  L 71,104  L 71,106  L 70,106  L 70,108  L 69,108  L 69,109  L 68,109  L 68,111  L 67,111  L 67,114  L 66,114  L 66,115  L 65,115  L 65,118  L 64,118  L 64,121  L 63,121  L 63,125  L 62,125  L 62,127  L 61,127  L 61,129  L 60,129  L 60,128  L 59,128  L 59,127  L 58,127  L 58,125  L 57,125  L 57,124  L 54,124  L 54,123  L 52,123  L 52,122  L 50,122  L 50,121  L 48,121  L 48,120  L 46,120  L 46,119  L 44,119  L 44,118  L 42,118  L 42,117  L 40,117  L 40,116  L 39,116  L 39,115  L 38,115  L 38,114  L 36,114  L 36,113  L 35,113  L 35,112  L 34,112  L 34,111  L 33,111  L 33,107  L 32,107  L 32,106  L 33,106  L 33,104  L 34,104  L 34,102  L 35,102  L 35,100  L 36,100  L 36,99  L 37,99  L 37,96  L 38,96  L 38,92  L 37,92  L 37,91  L 36,91  L 36,90  L 29,90  L 29,92  L 30,92  L 30,97  L 29,97  L 29,98  L 28,98  L 28,101  L 27,101  L 27,103  L 26,103  L 26,105  L 25,105  L 25,107  L 24,107  L 24,109  L 23,109  L 23,111  L 22,111  L 22,112  L 21,112  L 21,114  L 20,114  L 20,115  L 19,115  L 19,116  L 18,116  L 18,117  L 17,117  L 17,119  L 16,119  L 16,120  L 15,120  L 15,121  L 14,121  L 14,122  L 13,122  L 13,124  L 12,124  L 12,125  L 11,125  L 11,127  L 9,127  L 9,129  L 8,129  L 8,130  L 7,130  L 7,135  L 8,135  L 8,137  L 9,137  L 9,138  L 10,138  L 10,137  L 12,137  L 12,135  L 13,135  L 13,133  L 14,133  L 14,132  Z  " style="fill:rgb(0, 0, 0); fill-opacity:1.000; stroke:none;" />
</svg>
