<?xml version="1.0" encoding="UTF-8" standalone="no"?>
<!DOCTYPE svg PUBLIC "-//W3C//DTD SVG 1.1//EN" 
  "http://www.w3.org/Graphics/SVG/1.1/DTD/svg11.dtd">
<svg width="106" height="159"
     xmlns="http://www.w3.org/2000/svg" version="1.1">
 <path d="  M 29,75  L 29,74  L 32,74  L 32,73  L 37,73  L 37,72  L 40,72  L 40,71  L 41,71  L 41,70  L 42,70  L 42,69  L 44,69  L 44,68  L 45,68  L 45,66  L 46,66  L 46,65  L 47,65  L 47,64  L 48,64  L 48,62  L 49,62  L 49,61  L 50,61  L 50,59  L 51,59  L 51,58  L 52,58  L 52,57  L 56,57  L 56,56  L 61,56  L 61,55  L 67,55  L 67,54  L 75,54  L 75,55  L 76,55  L 76,61  L 77,61  L 77,63  L 76,63  L 76,65  L 77,65  L 77,79  L 78,79  L 78,82  L 79,82  L 79,85  L 81,85  L 81,86  L 82,86  L 82,83  L 83,83  L 83,82  L 84,82  L 84,80  L 85,80  L 85,5  L 86,5  L 86,4  L 85,4  L 85,2  L 84,2  L 84,1  L 83,1  L 83,0  L 80,0  L 80,2  L 79,2  L 79,3  L 78,3  L 78,20  L 77,20  L 77,21  L 76,21  L 76,22  L 73,22  L 73,23  L 66,23  L 66,24  L 65,24  L 65,23  L 64,23  L 64,24  L 59,24  L 59,25  L 54,25  L 54,26  L 46,26  L 46,25  L 44,25  L 44,24  L 41,24  L 41,23  L 39,23  L 39,22  L 37,22  L 37,21  L 35,21  L 35,20  L 32,20  L 32,19  L 29,19  L 29,18  L 25,18  L 25,17  L 22,17  L 22,16  L 20,16  L 20,15  L 18,15  L 18,14  L 15,14  L 15,15  L 14,15  L 14,16  L 13,16  L 13,17  L 12,17  L 12,18  L 11,18  L 11,20  L 10,20  L 10,21  L 9,21  L 9,23  L 8,23  L 8,25  L 7,25  L 7,27  L 6,27  L 6,30  L 5,30  L 5,32  L 4,32  L 4,36  L 3,36  L 3,42  L 2,42  L 2,51  L 1,51  L 1,58  L 2,58  L 2,67  L 3,67  L 3,69  L 4,69  L 4,71  L 5,71  L 5,72  L 6,72  L 6,73  L 7,73  L 7,74  L 9,74  L 9,75  L 11,75  L 11,76  L 14,76  L 14,77  L 21,77  L 21,76  L 24,76  L 24,75  Z  M 11,36  L 10,36  L 10,35  L 11,35  L 11,32  L 12,32  L 12,30  L 13,30  L 13,28  L 14,28  L 14,27  L 15,27  L 15,25  L 16,25  L 16,24  L 17,24  L 17,23  L 18,23  L 18,22  L 21,22  L 21,23  L 23,23  L 23,24  L 26,24  L 26,25  L 33,25  L 33,26  L 35,26  L 35,27  L 38,27  L 38,28  L 40,28  L 40,29  L 42,29  L 42,30  L 43,30  L 43,32  L 44,32  L 44,54  L 43,54  L 43,60  L 42,60  L 42,62  L 41,62  L 41,63  L 40,63  L 40,64  L 38,64  L 38,65  L 37,65  L 37,66  L 34,66  L 34,67  L 32,67  L 32,68  L 28,68  L 28,69  L 25,69  L 25,70  L 16,70  L 16,69  L 13,69  L 13,68  L 12,68  L 12,67  L 11,67  L 11,66  L 10,66  L 10,65  L 9,65  L 9,61  L 8,61  L 8,60  L 9,60  L 9,58  L 8,58  L 8,45  L 9,45  L 9,40  L 10,40  L 10,37  L 11,37  Z  M 77,46  L 74,46  L 74,47  L 66,47  L 66,48  L 65,48  L 65,47  L 64,47  L 64,48  L 63,48  L 63,47  L 62,47  L 62,48  L 54,48  L 54,49  L 52,49  L 52,48  L 51,48  L 51,41  L 52,41  L 52,40  L 51,40  L 51,37  L 52,37  L 52,33  L 53,33  L 53,32  L 58,32  L 58,31  L 64,31  L 64,30  L 69,30  L 69,29  L 70,29  L 70,30  L 71,30  L 71,29  L 77,29  Z  " style="fill:rgb(0, 0, 0); fill-opacity:1.000; stroke:none;" />
 <path d="  M 41,142  L 42,142  L 42,139  L 43,139  L 43,137  L 44,137  L 44,135  L 45,135  L 45,134  L 47,134  L 47,133  L 48,133  L 48,132  L 50,132  L 50,131  L 53,131  L 53,130  L 54,130  L 54,129  L 56,129  L 56,128  L 60,128  L 60,127  L 62,127  L 62,126  L 66,126  L 66,125  L 69,125  L 69,124  L 72,124  L 72,123  L 74,123  L 74,122  L 77,122  L 77,121  L 79,121  L 79,120  L 81,120  L 81,119  L 83,119  L 83,118  L 85,118  L 85,117  L 86,117  L 86,116  L 88,116  L 88,115  L 90,115  L 90,114  L 91,114  L 91,108  L 90,108  L 90,106  L 89,106  L 89,105  L 88,105  L 88,104  L 87,104  L 87,102  L 85,102  L 85,101  L 84,101  L 84,100  L 82,100  L 82,99  L 81,99  L 81,98  L 77,98  L 77,97  L 75,97  L 75,96  L 72,96  L 72,95  L 55,95  L 55,94  L 50,94  L 50,95  L 49,95  L 49,94  L 46,94  L 46,95  L 41,95  L 41,96  L 39,96  L 39,97  L 38,97  L 38,102  L 39,102  L 39,103  L 43,103  L 43,102  L 51,102  L 51,101  L 69,101  L 69,102  L 72,102  L 72,103  L 74,103  L 74,104  L 76,104  L 76,105  L 78,105  L 78,107  L 80,107  L 80,109  L 81,109  L 81,112  L 79,112  L 79,113  L 77,113  L 77,114  L 74,114  L 74,115  L 72,115  L 72,116  L 70,116  L 70,117  L 66,117  L 66,118  L 64,118  L 64,119  L 61,119  L 61,120  L 58,120  L 58,121  L 56,121  L 56,122  L 54,122  L 54,123  L 51,123  L 51,124  L 48,124  L 48,125  L 46,125  L 46,126  L 44,126  L 44,127  L 43,127  L 43,128  L 42,128  L 42,129  L 41,129  L 41,130  L 40,130  L 40,132  L 39,132  L 39,133  L 38,133  L 38,134  L 37,134  L 37,136  L 36,136  L 36,138  L 35,138  L 35,141  L 34,141  L 34,148  L 35,148  L 35,152  L 36,152  L 36,155  L 38,155  L 38,156  L 39,156  L 39,157  L 42,157  L 42,158  L 46,158  L 46,159  L 69,159  L 69,158  L 75,158  L 75,157  L 77,157  L 77,156  L 80,156  L 80,155  L 81,155  L 81,154  L 84,154  L 84,153  L 87,153  L 87,152  L 88,152  L 88,151  L 91,151  L 91,150  L 93,150  L 93,149  L 96,149  L 96,148  L 97,148  L 97,147  L 100,147  L 100,146  L 102,146  L 102,145  L 103,145  L 103,143  L 104,143  L 104,138  L 103,138  L 103,137  L 100,137  L 100,138  L 99,138  L 99,139  L 96,139  L 96,140  L 93,140  L 93,141  L 92,141  L 92,142  L 90,142  L 90,143  L 88,143  L 88,144  L 87,144  L 87,145  L 85,145  L 85,146  L 83,146  L 83,147  L 80,147  L 80,148  L 77,148  L 77,149  L 76,149  L 76,150  L 72,150  L 72,151  L 69,151  L 69,152  L 68,152  L 68,151  L 67,151  L 67,152  L 64,152  L 64,153  L 61,153  L 61,152  L 60,152  L 60,153  L 57,153  L 57,152  L 56,152  L 56,153  L 53,153  L 53,152  L 52,152  L 52,153  L 51,153  L 51,152  L 46,152  L 46,151  L 44,151  L 44,150  L 42,150  L 42,148  L 41,148  L 41,146  L 42,146  L 42,145  L 41,145  Z  " style="fill:rgb(0, 0, 0); fill-opacity:1.000; stroke:none;" />
 <path d="  M 99,31  L 99,34  L 98,34  L 98,35  L 99,35  L 99,38  L 98,38  L 98,39  L 99,39  L 99,83  L 100,83  L 100,84  L 99,84  L 99,91  L 100,91  L 100,92  L 102,92  L 102,93  L 103,93  L 103,92  L 105,92  L 105,91  L 106,91  L 106,16  L 105,16  L 105,15  L 106,15  L 106,14  L 105,14  L 105,13  L 106,13  L 106,12  L 105,12  L 105,11  L 106,11  L 106,8  L 105,8  L 105,4  L 104,4  L 104,3  L 103,3  L 103,2  L 100,2  L 100,3  L 98,3  L 98,29  L 99,29  L 99,30  L 98,30  L 98,31  Z  " style="fill:rgb(0, 0, 0); fill-opacity:1.000; stroke:none;" />
</svg>
