<?xml version="1.0" encoding="UTF-8" standalone="no"?>
<!DOCTYPE svg PUBLIC "-//W3C//DTD SVG 1.1//EN" 
  "http://www.w3.org/Graphics/SVG/1.1/DTD/svg11.dtd">
<svg width="107" height="139"
     xmlns="http://www.w3.org/2000/svg" version="1.1">
 <path d="  M 15,65  L 15,66  L 25,66  L 25,65  L 31,65  L 31,64  L 34,64  L 34,63  L 36,63  L 36,64  L 37,64  L 37,63  L 39,63  L 39,62  L 41,62  L 41,61  L 42,61  L 42,60  L 43,60  L 43,59  L 44,59  L 44,58  L 46,58  L 46,56  L 47,56  L 47,55  L 48,55  L 48,53  L 49,53  L 49,50  L 50,50  L 50,49  L 51,49  L 51,48  L 52,48  L 52,47  L 57,47  L 57,46  L 58,46  L 58,47  L 59,47  L 59,46  L 76,46  L 76,47  L 77,47  L 77,58  L 76,58  L 76,59  L 77,59  L 77,62  L 76,62  L 76,63  L 77,63  L 77,66  L 76,66  L 76,67  L 77,67  L 77,71  L 78,71  L 78,73  L 82,73  L 82,72  L 84,72  L 84,14  L 85,14  L 85,12  L 84,12  L 84,10  L 85,10  L 85,2  L 84,2  L 84,1  L 83,1  L 83,0  L 79,0  L 79,3  L 78,3  L 78,13  L 77,13  L 77,14  L 76,14  L 76,15  L 61,15  L 61,16  L 56,16  L 56,17  L 46,17  L 46,16  L 43,16  L 43,15  L 41,15  L 41,14  L 39,14  L 39,13  L 37,13  L 37,12  L 35,12  L 35,11  L 32,11  L 32,10  L 29,10  L 29,9  L 25,9  L 25,8  L 23,8  L 23,7  L 17,7  L 17,8  L 16,8  L 16,9  L 14,9  L 14,10  L 13,10  L 13,11  L 12,11  L 12,13  L 11,13  L 11,14  L 10,14  L 10,15  L 9,15  L 9,16  L 8,16  L 8,18  L 7,18  L 7,20  L 6,20  L 6,22  L 5,22  L 5,24  L 4,24  L 4,30  L 3,30  L 3,34  L 2,34  L 2,40  L 1,40  L 1,46  L 2,46  L 2,47  L 1,47  L 1,49  L 2,49  L 2,53  L 3,53  L 3,56  L 4,56  L 4,58  L 5,58  L 5,60  L 6,60  L 6,61  L 7,61  L 7,62  L 9,62  L 9,63  L 12,63  L 12,64  L 13,64  L 13,65  Z  M 69,22  L 69,21  L 70,21  L 70,22  L 71,22  L 71,21  L 72,21  L 72,22  L 73,22  L 73,21  L 76,21  L 76,22  L 77,22  L 77,38  L 71,38  L 71,39  L 70,39  L 70,38  L 69,38  L 69,39  L 53,39  L 53,40  L 52,40  L 52,37  L 51,37  L 51,36  L 52,36  L 52,35  L 51,35  L 51,33  L 52,33  L 52,31  L 51,31  L 51,29  L 52,29  L 52,25  L 53,25  L 53,24  L 55,24  L 55,23  L 59,23  L 59,22  L 60,22  L 60,23  L 61,23  L 61,22  Z  M 27,15  L 27,16  L 30,16  L 30,17  L 34,17  L 34,18  L 37,18  L 37,19  L 40,19  L 40,20  L 41,20  L 41,21  L 43,21  L 43,23  L 44,23  L 44,37  L 45,37  L 45,38  L 44,38  L 44,49  L 43,49  L 43,52  L 42,52  L 42,53  L 41,53  L 41,54  L 40,54  L 40,55  L 39,55  L 39,56  L 37,56  L 37,57  L 35,57  L 35,58  L 33,58  L 33,59  L 29,59  L 29,60  L 18,60  L 18,59  L 14,59  L 14,58  L 13,58  L 13,57  L 12,57  L 12,56  L 11,56  L 11,55  L 10,55  L 10,54  L 9,54  L 9,52  L 8,52  L 8,48  L 7,48  L 7,47  L 8,47  L 8,46  L 7,46  L 7,42  L 8,42  L 8,37  L 9,37  L 9,36  L 8,36  L 8,34  L 9,34  L 9,31  L 10,31  L 10,26  L 11,26  L 11,24  L 12,24  L 12,22  L 13,22  L 13,20  L 14,20  L 14,19  L 15,19  L 15,17  L 17,17  L 17,16  L 18,16  L 18,15  L 20,15  L 20,14  L 21,14  L 21,15  L 22,15  L 22,14  L 23,14  L 23,15  Z  " style="fill:rgb(0, 0, 0); fill-opacity:1.000; stroke:none;" />
 <path d="  M 62,95  L 62,94  L 64,94  L 64,93  L 65,93  L 65,91  L 66,91  L 66,90  L 67,90  L 67,86  L 66,86  L 66,85  L 65,85  L 65,84  L 58,84  L 58,85  L 59,85  L 59,87  L 58,87  L 58,88  L 57,88  L 57,90  L 56,90  L 56,91  L 55,91  L 55,92  L 54,92  L 54,94  L 53,94  L 53,95  L 52,95  L 52,97  L 51,97  L 51,99  L 50,99  L 50,100  L 49,100  L 49,101  L 48,101  L 48,103  L 47,103  L 47,104  L 46,104  L 46,106  L 45,106  L 45,107  L 44,107  L 44,109  L 43,109  L 43,110  L 42,110  L 42,111  L 41,111  L 41,112  L 40,112  L 40,114  L 39,114  L 39,116  L 38,116  L 38,117  L 37,117  L 37,118  L 36,118  L 36,120  L 35,120  L 35,121  L 34,121  L 34,122  L 33,122  L 33,124  L 32,124  L 32,125  L 31,125  L 31,126  L 30,126  L 30,127  L 29,127  L 29,128  L 28,128  L 28,130  L 27,130  L 27,131  L 25,131  L 25,132  L 24,132  L 24,133  L 23,133  L 23,138  L 24,138  L 24,139  L 28,139  L 28,138  L 29,138  L 29,137  L 30,137  L 30,136  L 31,136  L 31,135  L 32,135  L 32,134  L 33,134  L 33,133  L 34,133  L 34,132  L 35,132  L 35,131  L 36,131  L 36,129  L 37,129  L 37,128  L 38,128  L 38,127  L 39,127  L 39,126  L 40,126  L 40,125  L 41,125  L 41,123  L 42,123  L 42,121  L 43,121  L 43,120  L 44,120  L 44,119  L 45,119  L 45,117  L 46,117  L 46,115  L 47,115  L 47,114  L 48,114  L 48,113  L 49,113  L 49,110  L 51,110  L 51,109  L 52,109  L 52,107  L 53,107  L 53,106  L 54,106  L 54,105  L 55,105  L 55,106  L 56,106  L 56,107  L 57,107  L 57,108  L 58,108  L 58,109  L 60,109  L 60,110  L 61,110  L 61,111  L 62,111  L 62,112  L 64,112  L 64,113  L 65,113  L 65,114  L 66,114  L 66,115  L 67,115  L 67,116  L 69,116  L 69,117  L 71,117  L 71,119  L 72,119  L 72,120  L 74,120  L 74,121  L 75,121  L 75,122  L 77,122  L 77,123  L 80,123  L 80,124  L 82,124  L 82,125  L 83,125  L 83,126  L 85,126  L 85,127  L 87,127  L 87,128  L 90,128  L 90,129  L 91,129  L 91,130  L 96,130  L 96,131  L 106,131  L 106,130  L 107,130  L 107,126  L 105,126  L 105,125  L 97,125  L 97,124  L 94,124  L 94,123  L 92,123  L 92,122  L 90,122  L 90,121  L 89,121  L 89,120  L 87,120  L 87,119  L 86,119  L 86,118  L 84,118  L 84,117  L 81,117  L 81,116  L 80,116  L 80,115  L 79,115  L 79,114  L 77,114  L 77,113  L 75,113  L 75,112  L 74,112  L 74,111  L 73,111  L 73,110  L 71,110  L 71,109  L 70,109  L 70,108  L 68,108  L 68,107  L 67,107  L 67,106  L 66,106  L 66,105  L 65,105  L 65,104  L 64,104  L 64,103  L 63,103  L 63,102  L 62,102  L 62,101  L 61,101  L 61,95  Z  " style="fill:rgb(0, 0, 0); fill-opacity:1.000; stroke:none;" />
 <path d="  M 99,37  L 100,37  L 100,38  L 99,38  L 99,40  L 100,40  L 100,82  L 101,82  L 101,83  L 103,83  L 103,84  L 104,84  L 104,83  L 105,83  L 105,82  L 107,82  L 107,42  L 106,42  L 106,41  L 107,41  L 107,40  L 106,40  L 106,22  L 105,22  L 105,21  L 106,21  L 106,20  L 105,20  L 105,19  L 106,19  L 106,18  L 105,18  L 105,17  L 106,17  L 106,16  L 105,16  L 105,9  L 106,9  L 106,8  L 105,8  L 105,4  L 104,4  L 104,3  L 100,3  L 100,4  L 99,4  Z  " style="fill:rgb(0, 0, 0); fill-opacity:1.000; stroke:none;" />
</svg>
