<?xml version="1.0" encoding="UTF-8" standalone="no"?>
<!DOCTYPE svg PUBLIC "-//W3C//DTD SVG 1.1//EN" 
  "http://www.w3.org/Graphics/SVG/1.1/DTD/svg11.dtd">
<svg width="106" height="108"
     xmlns="http://www.w3.org/2000/svg" version="1.1">
 <path d="  M 31,16  L 31,17  L 29,17  L 29,18  L 28,18  L 28,20  L 27,20  L 27,21  L 26,21  L 26,22  L 25,22  L 25,23  L 24,23  L 24,25  L 23,25  L 23,26  L 22,26  L 22,29  L 21,29  L 21,31  L 20,31  L 20,33  L 19,33  L 19,35  L 18,35  L 18,38  L 17,38  L 17,47  L 18,47  L 18,50  L 19,50  L 19,51  L 20,51  L 20,52  L 21,52  L 21,53  L 22,53  L 22,54  L 23,54  L 23,55  L 24,55  L 24,56  L 26,56  L 26,58  L 28,58  L 28,59  L 32,59  L 32,60  L 35,60  L 35,61  L 36,61  L 36,60  L 38,60  L 38,61  L 44,61  L 44,62  L 49,62  L 49,64  L 50,64  L 50,65  L 49,65  L 49,80  L 50,80  L 50,81  L 49,81  L 49,84  L 50,84  L 50,85  L 49,85  L 49,88  L 50,88  L 50,90  L 49,90  L 49,99  L 41,99  L 41,100  L 34,100  L 34,101  L 18,101  L 18,102  L 17,102  L 17,101  L 16,101  L 16,102  L 2,102  L 2,103  L 1,103  L 1,105  L 0,105  L 0,106  L 1,106  L 1,107  L 2,107  L 2,108  L 27,108  L 27,107  L 28,107  L 28,108  L 30,108  L 30,107  L 42,107  L 42,106  L 79,106  L 79,105  L 87,105  L 87,104  L 88,104  L 88,105  L 89,105  L 89,104  L 99,104  L 99,103  L 101,103  L 101,104  L 102,104  L 102,103  L 105,103  L 105,102  L 106,102  L 106,96  L 104,96  L 104,95  L 102,95  L 102,96  L 97,96  L 97,97  L 90,97  L 90,98  L 81,98  L 81,99  L 57,99  L 57,91  L 56,91  L 56,90  L 57,90  L 57,87  L 56,87  L 56,86  L 57,86  L 57,79  L 56,79  L 56,77  L 57,77  L 57,75  L 56,75  L 56,73  L 57,73  L 57,72  L 56,72  L 56,63  L 57,63  L 57,61  L 58,61  L 58,60  L 65,60  L 65,59  L 67,59  L 67,58  L 70,58  L 70,57  L 72,57  L 72,56  L 74,56  L 74,55  L 76,55  L 76,54  L 77,54  L 77,53  L 78,53  L 78,52  L 79,52  L 79,51  L 80,51  L 80,49  L 82,49  L 82,48  L 83,48  L 83,46  L 84,46  L 84,44  L 85,44  L 85,42  L 86,42  L 86,37  L 87,37  L 87,33  L 88,33  L 88,23  L 87,23  L 87,21  L 86,21  L 86,19  L 85,19  L 85,17  L 84,17  L 84,16  L 83,16  L 83,15  L 82,15  L 82,14  L 81,14  L 81,13  L 80,13  L 80,12  L 79,12  L 79,11  L 78,11  L 78,10  L 76,10  L 76,9  L 74,9  L 74,8  L 70,8  L 70,7  L 66,7  L 66,6  L 63,6  L 63,5  L 60,5  L 60,4  L 59,4  L 59,3  L 54,3  L 54,2  L 51,2  L 51,1  L 45,1  L 45,2  L 44,2  L 44,3  L 43,3  L 43,5  L 42,5  L 42,6  L 41,6  L 41,7  L 40,7  L 40,8  L 39,8  L 39,9  L 38,9  L 38,10  L 37,10  L 37,11  L 36,11  L 36,12  L 35,12  L 35,13  L 34,13  L 34,14  L 33,14  L 33,15  L 32,15  L 32,16  Z  M 73,46  L 73,47  L 72,47  L 72,48  L 70,48  L 70,49  L 69,49  L 69,50  L 67,50  L 67,51  L 65,51  L 65,52  L 62,52  L 62,53  L 61,53  L 61,54  L 58,54  L 58,55  L 53,55  L 53,56  L 52,56  L 52,55  L 50,55  L 50,56  L 49,56  L 49,55  L 43,55  L 43,54  L 38,54  L 38,53  L 34,53  L 34,52  L 33,52  L 33,53  L 32,53  L 32,52  L 30,52  L 30,51  L 28,51  L 28,50  L 27,50  L 27,49  L 26,49  L 26,48  L 25,48  L 25,47  L 24,47  L 24,46  L 25,46  L 25,45  L 24,45  L 24,40  L 25,40  L 25,39  L 24,39  L 24,38  L 25,38  L 25,35  L 26,35  L 26,33  L 27,33  L 27,31  L 28,31  L 28,29  L 29,29  L 29,28  L 30,28  L 30,26  L 31,26  L 31,25  L 32,25  L 32,24  L 33,24  L 33,22  L 34,22  L 34,21  L 35,21  L 35,20  L 36,20  L 36,19  L 37,19  L 37,18  L 39,18  L 39,16  L 40,16  L 40,15  L 41,15  L 41,14  L 42,14  L 42,13  L 43,13  L 43,12  L 45,12  L 45,11  L 46,11  L 46,10  L 49,10  L 49,9  L 52,9  L 52,10  L 56,10  L 56,11  L 60,11  L 60,12  L 63,12  L 63,13  L 65,13  L 65,14  L 66,14  L 66,13  L 67,13  L 67,14  L 69,14  L 69,15  L 72,15  L 72,16  L 74,16  L 74,17  L 75,17  L 75,18  L 77,18  L 77,20  L 79,20  L 79,22  L 80,22  L 80,35  L 79,35  L 79,39  L 78,39  L 78,40  L 77,40  L 77,42  L 76,42  L 76,44  L 75,44  L 75,45  L 74,45  L 74,46  Z  " style="fill:rgb(0, 0, 0); fill-opacity:1.000; stroke:none;" />
</svg>
