<?xml version="1.0" encoding="UTF-8" standalone="no"?>
<!DOCTYPE svg PUBLIC "-//W3C//DTD SVG 1.1//EN" 
  "http://www.w3.org/Graphics/SVG/1.1/DTD/svg11.dtd">
<svg width="107" height="165"
     xmlns="http://www.w3.org/2000/svg" version="1.1">
 <path d="  M 88,132  L 87,132  L 87,131  L 86,131  L 86,130  L 85,130  L 85,129  L 84,129  L 84,128  L 83,128  L 83,126  L 82,126  L 82,125  L 81,125  L 81,123  L 80,123  L 80,119  L 79,119  L 79,118  L 80,118  L 80,112  L 81,112  L 81,109  L 82,109  L 82,106  L 83,106  L 83,102  L 84,102  L 84,99  L 83,99  L 83,98  L 79,98  L 79,99  L 78,99  L 78,100  L 77,100  L 77,102  L 76,102  L 76,105  L 75,105  L 75,107  L 74,107  L 74,109  L 73,109  L 73,112  L 72,112  L 72,115  L 71,115  L 71,117  L 70,117  L 70,120  L 69,120  L 69,122  L 68,122  L 68,124  L 67,124  L 67,127  L 66,127  L 66,129  L 65,129  L 65,132  L 64,132  L 64,135  L 63,135  L 63,137  L 62,137  L 62,142  L 61,142  L 61,144  L 60,144  L 60,146  L 59,146  L 59,147  L 58,147  L 58,149  L 56,149  L 56,150  L 51,150  L 51,151  L 49,151  L 49,152  L 47,152  L 47,153  L 45,153  L 45,154  L 42,154  L 42,155  L 39,155  L 39,156  L 37,156  L 37,157  L 35,157  L 35,158  L 29,158  L 29,159  L 16,159  L 16,158  L 13,158  L 13,157  L 11,157  L 11,156  L 10,156  L 10,153  L 9,153  L 9,148  L 10,148  L 10,146  L 11,146  L 11,144  L 14,144  L 14,143  L 18,143  L 18,142  L 21,142  L 21,141  L 23,141  L 23,140  L 27,140  L 27,139  L 29,139  L 29,138  L 30,138  L 30,139  L 31,139  L 31,138  L 33,138  L 33,137  L 36,137  L 36,136  L 37,136  L 37,135  L 38,135  L 38,134  L 40,134  L 40,133  L 41,133  L 41,131  L 42,131  L 42,130  L 43,130  L 43,128  L 44,128  L 44,126  L 45,126  L 45,118  L 44,118  L 44,116  L 42,116  L 42,114  L 40,114  L 40,113  L 39,113  L 39,112  L 38,112  L 38,111  L 35,111  L 35,110  L 31,110  L 31,109  L 15,109  L 15,110  L 13,110  L 13,109  L 12,109  L 12,110  L 10,110  L 10,109  L 9,109  L 9,110  L 7,110  L 7,112  L 6,112  L 6,114  L 7,114  L 7,117  L 8,117  L 8,118  L 9,118  L 9,119  L 11,119  L 11,120  L 13,120  L 13,119  L 15,119  L 15,118  L 16,118  L 16,117  L 18,117  L 18,116  L 21,116  L 21,115  L 29,115  L 29,116  L 32,116  L 32,117  L 34,117  L 34,118  L 36,118  L 36,119  L 37,119  L 37,120  L 38,120  L 38,126  L 37,126  L 37,128  L 35,128  L 35,129  L 34,129  L 34,130  L 33,130  L 33,131  L 31,131  L 31,132  L 28,132  L 28,133  L 25,133  L 25,134  L 21,134  L 21,135  L 18,135  L 18,136  L 15,136  L 15,137  L 14,137  L 14,136  L 13,136  L 13,137  L 9,137  L 9,138  L 4,138  L 4,140  L 2,140  L 2,144  L 1,144  L 1,150  L 2,150  L 2,156  L 3,156  L 3,157  L 4,157  L 4,158  L 5,158  L 5,159  L 6,159  L 6,161  L 7,161  L 7,162  L 8,162  L 8,163  L 10,163  L 10,164  L 12,164  L 12,165  L 36,165  L 36,164  L 39,164  L 39,163  L 41,163  L 41,162  L 43,162  L 43,161  L 45,161  L 45,160  L 49,160  L 49,159  L 53,159  L 53,158  L 55,158  L 55,157  L 60,157  L 60,156  L 61,156  L 61,155  L 63,155  L 63,153  L 64,153  L 64,151  L 65,151  L 65,148  L 66,148  L 66,146  L 67,146  L 67,145  L 66,145  L 66,144  L 67,144  L 67,142  L 68,142  L 68,139  L 69,139  L 69,137  L 70,137  L 70,134  L 71,134  L 71,132  L 72,132  L 72,130  L 73,130  L 73,129  L 76,129  L 76,130  L 77,130  L 77,131  L 78,131  L 78,133  L 79,133  L 79,134  L 81,134  L 81,135  L 82,135  L 82,137  L 84,137  L 84,138  L 85,138  L 85,139  L 86,139  L 86,141  L 87,141  L 87,142  L 88,142  L 88,144  L 89,144  L 89,145  L 90,145  L 90,147  L 91,147  L 91,148  L 92,148  L 92,149  L 93,149  L 93,150  L 94,150  L 94,151  L 95,151  L 95,152  L 96,152  L 96,153  L 97,153  L 97,155  L 98,155  L 98,158  L 99,158  L 99,160  L 100,160  L 100,162  L 101,162  L 101,164  L 103,164  L 103,165  L 107,165  L 107,154  L 106,154  L 106,153  L 105,153  L 105,152  L 104,152  L 104,150  L 103,150  L 103,149  L 102,149  L 102,148  L 101,148  L 101,147  L 100,147  L 100,146  L 99,146  L 99,145  L 98,145  L 98,144  L 97,144  L 97,143  L 96,143  L 96,142  L 95,142  L 95,140  L 94,140  L 94,139  L 93,139  L 93,137  L 92,137  L 92,136  L 90,136  L 90,135  L 89,135  L 89,134  L 88,134  Z  " style="fill:rgb(0, 0, 0); fill-opacity:1.000; stroke:none;" />
 <path d="  M 80,43  L 81,43  L 81,41  L 82,41  L 82,40  L 83,40  L 83,39  L 84,39  L 84,37  L 85,37  L 85,36  L 86,36  L 86,34  L 87,34  L 87,32  L 88,32  L 88,29  L 89,29  L 89,26  L 90,26  L 90,22  L 91,22  L 91,20  L 90,20  L 90,17  L 89,17  L 89,14  L 88,14  L 88,13  L 87,13  L 87,11  L 86,11  L 86,10  L 84,10  L 84,8  L 82,8  L 82,7  L 80,7  L 80,6  L 78,6  L 78,5  L 75,5  L 75,4  L 70,4  L 70,3  L 67,3  L 67,2  L 62,2  L 62,1  L 51,1  L 51,2  L 46,2  L 46,3  L 45,3  L 45,4  L 43,4  L 43,5  L 42,5  L 42,6  L 40,6  L 40,8  L 38,8  L 38,9  L 37,9  L 37,10  L 36,10  L 36,11  L 35,11  L 35,12  L 34,12  L 34,13  L 33,13  L 33,14  L 32,14  L 32,15  L 31,15  L 31,16  L 30,16  L 30,17  L 29,17  L 29,18  L 28,18  L 28,19  L 27,19  L 27,21  L 26,21  L 26,22  L 25,22  L 25,23  L 24,23  L 24,24  L 23,24  L 23,25  L 22,25  L 22,26  L 21,26  L 21,27  L 20,27  L 20,28  L 19,28  L 19,29  L 18,29  L 18,30  L 17,30  L 17,33  L 16,33  L 16,34  L 15,34  L 15,35  L 14,35  L 14,36  L 15,36  L 15,39  L 14,39  L 14,40  L 15,40  L 15,42  L 16,42  L 16,44  L 17,44  L 17,46  L 18,46  L 18,47  L 19,47  L 19,49  L 21,49  L 21,50  L 22,50  L 22,51  L 23,51  L 23,52  L 24,52  L 24,53  L 25,53  L 25,54  L 27,54  L 27,55  L 28,55  L 28,56  L 30,56  L 30,57  L 32,57  L 32,58  L 36,58  L 36,59  L 42,59  L 42,60  L 43,60  L 43,59  L 48,59  L 48,66  L 49,66  L 49,68  L 48,68  L 48,71  L 49,71  L 49,72  L 48,72  L 48,75  L 49,75  L 49,76  L 48,76  L 48,83  L 47,83  L 47,84  L 35,84  L 35,85  L 28,85  L 28,86  L 25,86  L 25,87  L 18,87  L 18,88  L 17,88  L 17,87  L 16,87  L 16,88  L 5,88  L 5,89  L 3,89  L 3,95  L 4,95  L 4,96  L 7,96  L 7,97  L 10,97  L 10,96  L 15,96  L 15,95  L 19,95  L 19,94  L 21,94  L 21,95  L 22,95  L 22,94  L 28,94  L 28,93  L 29,93  L 29,94  L 30,94  L 30,93  L 31,93  L 31,92  L 32,92  L 32,93  L 33,93  L 33,92  L 35,92  L 35,91  L 51,91  L 51,90  L 52,90  L 52,91  L 53,91  L 53,90  L 65,90  L 65,89  L 67,89  L 67,90  L 68,90  L 68,89  L 77,89  L 77,88  L 85,88  L 85,87  L 86,87  L 86,88  L 87,88  L 87,87  L 91,87  L 91,86  L 95,86  L 95,85  L 96,85  L 96,84  L 97,84  L 97,83  L 98,83  L 98,80  L 97,80  L 97,79  L 96,79  L 96,78  L 94,78  L 94,79  L 90,79  L 90,80  L 83,80  L 83,81  L 71,81  L 71,82  L 69,82  L 69,81  L 68,81  L 68,82  L 60,82  L 60,83  L 59,83  L 59,84  L 57,84  L 57,83  L 56,83  L 56,58  L 57,58  L 57,56  L 59,56  L 59,55  L 60,55  L 60,54  L 61,54  L 61,53  L 63,53  L 63,52  L 65,52  L 65,51  L 66,51  L 66,50  L 67,50  L 67,49  L 70,49  L 70,48  L 74,48  L 74,47  L 76,47  L 76,46  L 77,46  L 77,45  L 79,45  L 79,44  L 80,44  Z  M 80,18  L 81,18  L 81,21  L 82,21  L 82,25  L 81,25  L 81,28  L 80,28  L 80,30  L 79,30  L 79,32  L 78,32  L 78,33  L 77,33  L 77,35  L 76,35  L 76,36  L 75,36  L 75,37  L 74,37  L 74,38  L 73,38  L 73,39  L 71,39  L 71,40  L 69,40  L 69,41  L 67,41  L 67,42  L 66,42  L 66,43  L 63,43  L 63,44  L 62,44  L 62,45  L 61,45  L 61,46  L 59,46  L 59,47  L 57,47  L 57,49  L 55,49  L 55,50  L 53,50  L 53,51  L 51,51  L 51,52  L 50,52  L 50,51  L 33,51  L 33,50  L 31,50  L 31,49  L 30,49  L 30,48  L 29,48  L 29,47  L 28,47  L 28,46  L 27,46  L 27,45  L 26,45  L 26,44  L 24,44  L 24,43  L 23,43  L 23,39  L 22,39  L 22,38  L 23,38  L 23,34  L 24,34  L 24,33  L 25,33  L 25,32  L 26,32  L 26,31  L 27,31  L 27,30  L 28,30  L 28,29  L 29,29  L 29,27  L 30,27  L 30,26  L 31,26  L 31,25  L 32,25  L 32,24  L 33,24  L 33,23  L 34,23  L 34,22  L 35,22  L 35,21  L 36,21  L 36,20  L 37,20  L 37,19  L 38,19  L 38,18  L 40,18  L 40,17  L 41,17  L 41,16  L 42,16  L 42,15  L 43,15  L 43,14  L 44,14  L 44,13  L 46,13  L 46,12  L 49,12  L 49,11  L 52,11  L 52,10  L 55,10  L 55,9  L 60,9  L 60,10  L 61,10  L 61,9  L 62,9  L 62,10  L 63,10  L 63,9  L 64,9  L 64,10  L 68,10  L 68,11  L 72,11  L 72,12  L 74,12  L 74,13  L 76,13  L 76,14  L 78,14  L 78,15  L 79,15  L 79,16  L 80,16  Z  " style="fill:rgb(0, 0, 0); fill-opacity:1.000; stroke:none;" />
</svg>
