<?xml version="1.0" encoding="UTF-8" standalone="no"?>
<!DOCTYPE svg PUBLIC "-//W3C//DTD SVG 1.1//EN" 
  "http://www.w3.org/Graphics/SVG/1.1/DTD/svg11.dtd">
<svg width="102" height="173"
     xmlns="http://www.w3.org/2000/svg" version="1.1">
 <path d="  M 31,16  L 31,17  L 30,17  L 30,19  L 29,19  L 29,20  L 28,20  L 28,21  L 27,21  L 27,22  L 26,22  L 26,24  L 25,24  L 25,25  L 24,25  L 24,26  L 23,26  L 23,27  L 22,27  L 22,28  L 21,28  L 21,30  L 20,30  L 20,31  L 19,31  L 19,32  L 18,32  L 18,33  L 17,33  L 17,34  L 16,34  L 16,37  L 15,37  L 15,43  L 16,43  L 16,46  L 17,46  L 17,48  L 18,48  L 18,49  L 19,49  L 19,51  L 20,51  L 20,52  L 21,52  L 21,53  L 22,53  L 22,54  L 24,54  L 24,55  L 26,55  L 26,56  L 28,56  L 28,57  L 31,57  L 31,58  L 33,58  L 33,59  L 34,59  L 34,58  L 35,58  L 35,59  L 38,59  L 38,58  L 39,58  L 39,59  L 49,59  L 49,81  L 50,81  L 50,83  L 49,83  L 49,86  L 50,86  L 50,87  L 49,87  L 49,88  L 44,88  L 44,89  L 43,89  L 43,88  L 42,88  L 42,89  L 34,89  L 34,90  L 29,90  L 29,91  L 21,91  L 21,92  L 12,92  L 12,93  L 11,93  L 11,92  L 10,92  L 10,93  L 7,93  L 7,92  L 6,92  L 6,93  L 5,93  L 5,92  L 4,92  L 4,93  L 3,93  L 3,92  L 2,92  L 2,93  L 0,93  L 0,95  L 1,95  L 1,96  L 0,96  L 0,97  L 1,97  L 1,98  L 2,98  L 2,99  L 6,99  L 6,100  L 8,100  L 8,99  L 16,99  L 16,98  L 17,98  L 17,99  L 18,99  L 18,98  L 25,98  L 25,97  L 26,97  L 26,98  L 27,98  L 27,97  L 32,97  L 32,96  L 40,96  L 40,95  L 41,95  L 41,96  L 42,96  L 42,95  L 51,95  L 51,94  L 59,94  L 59,93  L 66,93  L 66,92  L 67,92  L 67,93  L 68,93  L 68,92  L 80,92  L 80,91  L 81,91  L 81,92  L 82,92  L 82,91  L 92,91  L 92,90  L 93,90  L 93,91  L 95,91  L 95,90  L 99,90  L 99,89  L 100,89  L 100,88  L 101,88  L 101,87  L 102,87  L 102,82  L 100,82  L 100,81  L 99,81  L 99,82  L 96,82  L 96,83  L 92,83  L 92,84  L 85,84  L 85,85  L 66,85  L 66,86  L 65,86  L 65,85  L 63,85  L 63,86  L 60,86  L 60,87  L 59,87  L 59,86  L 58,86  L 58,84  L 57,84  L 57,82  L 58,82  L 58,81  L 57,81  L 57,78  L 58,78  L 58,77  L 57,77  L 57,74  L 58,74  L 58,73  L 57,73  L 57,71  L 58,71  L 58,69  L 57,69  L 57,68  L 58,68  L 58,67  L 57,67  L 57,59  L 58,59  L 58,57  L 59,57  L 59,56  L 60,56  L 60,55  L 63,55  L 63,54  L 66,54  L 66,53  L 68,53  L 68,52  L 69,52  L 69,51  L 72,51  L 72,50  L 74,50  L 74,49  L 76,49  L 76,48  L 78,48  L 78,47  L 80,47  L 80,45  L 81,45  L 81,44  L 82,44  L 82,42  L 83,42  L 83,41  L 84,41  L 84,39  L 85,39  L 85,38  L 86,38  L 86,35  L 87,35  L 87,32  L 88,32  L 88,31  L 89,31  L 89,22  L 90,22  L 90,19  L 89,19  L 89,17  L 88,17  L 88,14  L 87,14  L 87,12  L 86,12  L 86,11  L 85,11  L 85,10  L 84,10  L 84,8  L 82,8  L 82,7  L 80,7  L 80,6  L 78,6  L 78,5  L 75,5  L 75,4  L 72,4  L 72,3  L 68,3  L 68,2  L 62,2  L 62,1  L 47,1  L 47,2  L 45,2  L 45,3  L 44,3  L 44,4  L 43,4  L 43,5  L 41,5  L 41,6  L 40,6  L 40,8  L 39,8  L 39,9  L 37,9  L 37,10  L 36,10  L 36,12  L 34,12  L 34,13  L 33,13  L 33,15  L 32,15  L 32,16  Z  M 28,33  L 28,31  L 29,31  L 29,30  L 30,30  L 30,28  L 31,28  L 31,27  L 32,27  L 32,26  L 33,26  L 33,25  L 34,25  L 34,24  L 35,24  L 35,23  L 36,23  L 36,22  L 37,22  L 37,20  L 38,20  L 38,19  L 39,19  L 39,18  L 40,18  L 40,17  L 41,17  L 41,16  L 42,16  L 42,15  L 43,15  L 43,14  L 44,14  L 44,13  L 45,13  L 45,12  L 48,12  L 48,11  L 53,11  L 53,10  L 54,10  L 54,9  L 55,9  L 55,10  L 56,10  L 56,9  L 59,9  L 59,10  L 60,10  L 60,9  L 63,9  L 63,10  L 68,10  L 68,11  L 72,11  L 72,12  L 74,12  L 74,13  L 76,13  L 76,14  L 79,14  L 79,16  L 80,16  L 80,18  L 81,18  L 81,20  L 82,20  L 82,27  L 81,27  L 81,29  L 80,29  L 80,31  L 79,31  L 79,33  L 78,33  L 78,35  L 77,35  L 77,37  L 76,37  L 76,39  L 74,39  L 74,40  L 72,40  L 72,41  L 70,41  L 70,42  L 69,42  L 69,43  L 68,43  L 68,44  L 65,44  L 65,45  L 63,45  L 63,46  L 61,46  L 61,47  L 60,47  L 60,48  L 59,48  L 59,49  L 56,49  L 56,50  L 53,50  L 53,51  L 35,51  L 35,50  L 31,50  L 31,49  L 28,49  L 28,48  L 27,48  L 27,47  L 26,47  L 26,46  L 25,46  L 25,45  L 24,45  L 24,43  L 23,43  L 23,39  L 24,39  L 24,36  L 25,36  L 25,35  L 26,35  L 26,33  Z  " style="fill:rgb(0, 0, 0); fill-opacity:1.000; stroke:none;" />
 <path d="  M 69,128  L 69,129  L 70,129  L 70,130  L 71,130  L 71,132  L 72,132  L 72,133  L 73,133  L 73,136  L 74,136  L 74,143  L 73,143  L 73,145  L 72,145  L 72,148  L 71,148  L 71,151  L 70,151  L 70,152  L 69,152  L 69,156  L 68,156  L 68,158  L 67,158  L 67,159  L 66,159  L 66,161  L 65,161  L 65,162  L 63,162  L 63,163  L 62,163  L 62,164  L 58,164  L 58,165  L 42,165  L 42,166  L 40,166  L 40,165  L 34,165  L 34,164  L 32,164  L 32,163  L 31,163  L 31,162  L 30,162  L 30,160  L 29,160  L 29,158  L 28,158  L 28,148  L 29,148  L 29,146  L 30,146  L 30,145  L 29,145  L 29,144  L 30,144  L 30,142  L 31,142  L 31,140  L 32,140  L 32,138  L 33,138  L 33,137  L 34,137  L 34,134  L 35,134  L 35,133  L 36,133  L 36,131  L 37,131  L 37,130  L 38,130  L 38,129  L 39,129  L 39,128  L 40,128  L 40,127  L 43,127  L 43,126  L 44,126  L 44,125  L 45,125  L 45,124  L 46,124  L 46,125  L 47,125  L 47,124  L 56,124  L 56,125  L 61,125  L 61,126  L 65,126  L 65,127  L 67,127  L 67,128  Z  M 79,129  L 78,129  L 78,127  L 77,127  L 77,126  L 76,126  L 76,125  L 75,125  L 75,124  L 73,124  L 73,123  L 72,123  L 72,122  L 71,122  L 71,121  L 69,121  L 69,120  L 67,120  L 67,119  L 64,119  L 64,118  L 60,118  L 60,117  L 57,117  L 57,116  L 54,116  L 54,115  L 50,115  L 50,114  L 48,114  L 48,113  L 47,113  L 47,114  L 43,114  L 43,115  L 41,115  L 41,116  L 39,116  L 39,117  L 38,117  L 38,119  L 37,119  L 37,120  L 36,120  L 36,122  L 35,122  L 35,123  L 34,123  L 34,124  L 33,124  L 33,126  L 32,126  L 32,127  L 30,127  L 30,129  L 29,129  L 29,131  L 27,131  L 27,133  L 26,133  L 26,135  L 25,135  L 25,137  L 24,137  L 24,139  L 23,139  L 23,141  L 22,141  L 22,148  L 21,148  L 21,159  L 22,159  L 22,162  L 23,162  L 23,164  L 24,164  L 24,167  L 25,167  L 25,168  L 26,168  L 26,169  L 27,169  L 27,170  L 28,170  L 28,171  L 30,171  L 30,172  L 32,172  L 32,173  L 52,173  L 52,172  L 53,172  L 53,173  L 54,173  L 54,172  L 59,172  L 59,171  L 63,171  L 63,170  L 66,170  L 66,169  L 67,169  L 67,168  L 69,168  L 69,167  L 70,167  L 70,166  L 71,166  L 71,165  L 72,165  L 72,164  L 73,164  L 73,163  L 74,163  L 74,161  L 75,161  L 75,159  L 76,159  L 76,157  L 77,157  L 77,155  L 78,155  L 78,153  L 79,153  L 79,150  L 80,150  L 80,147  L 81,147  L 81,142  L 82,142  L 82,141  L 81,141  L 81,138  L 82,138  L 82,137  L 81,137  L 81,132  L 80,132  L 80,131  L 79,131  Z  " style="fill:rgb(0, 0, 0); fill-opacity:1.000; stroke:none;" />
</svg>
