<?xml version="1.0" encoding="UTF-8" standalone="no"?>
<!DOCTYPE svg PUBLIC "-//W3C//DTD SVG 1.1//EN" 
  "http://www.w3.org/Graphics/SVG/1.1/DTD/svg11.dtd">
<svg width="111" height="171"
     xmlns="http://www.w3.org/2000/svg" version="1.1">
 <path d="  M 99,72  L 99,73  L 94,73  L 94,74  L 88,74  L 88,75  L 61,75  L 61,76  L 59,76  L 59,75  L 58,75  L 58,73  L 57,73  L 57,70  L 58,70  L 58,68  L 57,68  L 57,67  L 58,67  L 58,66  L 57,66  L 57,65  L 58,65  L 58,64  L 57,64  L 57,61  L 58,61  L 58,58  L 59,58  L 59,57  L 60,57  L 60,56  L 62,56  L 62,55  L 64,55  L 64,54  L 67,54  L 67,53  L 69,53  L 69,52  L 72,52  L 72,51  L 75,51  L 75,50  L 77,50  L 77,49  L 79,49  L 79,48  L 81,48  L 81,47  L 82,47  L 82,46  L 83,46  L 83,45  L 84,45  L 84,44  L 85,44  L 85,42  L 86,42  L 86,41  L 87,41  L 87,39  L 88,39  L 88,37  L 89,37  L 89,35  L 90,35  L 90,34  L 91,34  L 91,32  L 92,32  L 92,29  L 93,29  L 93,27  L 94,27  L 94,20  L 93,20  L 93,18  L 92,18  L 92,16  L 91,16  L 91,14  L 90,14  L 90,13  L 89,13  L 89,12  L 87,12  L 87,10  L 85,10  L 85,9  L 84,9  L 84,8  L 82,8  L 82,7  L 80,7  L 80,6  L 78,6  L 78,5  L 75,5  L 75,4  L 73,4  L 73,3  L 68,3  L 68,2  L 60,2  L 60,1  L 53,1  L 53,2  L 50,2  L 50,3  L 47,3  L 47,4  L 45,4  L 45,5  L 42,5  L 42,6  L 41,6  L 41,7  L 38,7  L 38,8  L 37,8  L 37,9  L 36,9  L 36,10  L 34,10  L 34,11  L 33,11  L 33,13  L 32,13  L 32,14  L 31,14  L 31,16  L 30,16  L 30,18  L 28,18  L 28,20  L 27,20  L 27,21  L 26,21  L 26,22  L 25,22  L 25,23  L 24,23  L 24,24  L 23,24  L 23,25  L 22,25  L 22,26  L 21,26  L 21,27  L 20,27  L 20,28  L 19,28  L 19,29  L 18,29  L 18,31  L 17,31  L 17,32  L 16,32  L 16,34  L 15,34  L 15,35  L 14,35  L 14,42  L 15,42  L 15,44  L 16,44  L 16,45  L 17,45  L 17,47  L 18,47  L 18,48  L 19,48  L 19,49  L 21,49  L 21,50  L 22,50  L 22,51  L 24,51  L 24,52  L 25,52  L 25,53  L 26,53  L 26,54  L 27,54  L 27,55  L 29,55  L 29,56  L 31,56  L 31,57  L 34,57  L 34,58  L 40,58  L 40,59  L 49,59  L 49,60  L 50,60  L 50,63  L 49,63  L 49,71  L 50,71  L 50,72  L 49,72  L 49,78  L 40,78  L 40,79  L 37,79  L 37,78  L 36,78  L 36,79  L 34,79  L 34,80  L 27,80  L 27,81  L 21,81  L 21,82  L 16,82  L 16,83  L 10,83  L 10,84  L 3,84  L 3,85  L 0,85  L 0,87  L 1,87  L 1,89  L 2,89  L 2,91  L 5,91  L 5,92  L 9,92  L 9,91  L 13,91  L 13,90  L 15,90  L 15,91  L 16,91  L 16,90  L 18,90  L 18,89  L 21,89  L 21,88  L 22,88  L 22,89  L 23,89  L 23,88  L 27,88  L 27,87  L 36,87  L 36,86  L 39,86  L 39,87  L 40,87  L 40,86  L 43,86  L 43,85  L 44,85  L 44,86  L 45,86  L 45,85  L 51,85  L 51,84  L 52,84  L 52,85  L 53,85  L 53,84  L 59,84  L 59,83  L 66,83  L 66,82  L 67,82  L 67,83  L 68,83  L 68,82  L 81,82  L 81,81  L 82,81  L 82,82  L 83,82  L 83,81  L 97,81  L 97,80  L 101,80  L 101,79  L 102,79  L 102,78  L 103,78  L 103,77  L 104,77  L 104,73  L 103,73  L 103,72  Z  M 56,10  L 56,9  L 57,9  L 57,10  L 58,10  L 58,9  L 59,9  L 59,10  L 60,10  L 60,9  L 61,9  L 61,10  L 66,10  L 66,11  L 67,11  L 67,10  L 68,10  L 68,11  L 72,11  L 72,12  L 75,12  L 75,13  L 77,13  L 77,14  L 80,14  L 80,15  L 81,15  L 81,16  L 82,16  L 82,17  L 83,17  L 83,18  L 84,18  L 84,21  L 85,21  L 85,29  L 84,29  L 84,32  L 83,32  L 83,33  L 82,33  L 82,34  L 81,34  L 81,36  L 80,36  L 80,37  L 79,37  L 79,39  L 77,39  L 77,40  L 75,40  L 75,41  L 74,41  L 74,42  L 72,42  L 72,43  L 70,43  L 70,44  L 69,44  L 69,45  L 66,45  L 66,46  L 63,46  L 63,47  L 62,47  L 62,48  L 61,48  L 61,49  L 59,49  L 59,50  L 57,50  L 57,51  L 54,51  L 54,52  L 40,52  L 40,51  L 37,51  L 37,50  L 33,50  L 33,49  L 32,49  L 32,48  L 30,48  L 30,47  L 29,47  L 29,46  L 27,46  L 27,45  L 26,45  L 26,44  L 25,44  L 25,43  L 24,43  L 24,42  L 23,42  L 23,40  L 22,40  L 22,39  L 23,39  L 23,35  L 24,35  L 24,34  L 25,34  L 25,32  L 27,32  L 27,31  L 28,31  L 28,30  L 29,30  L 29,28  L 31,28  L 31,27  L 32,27  L 32,25  L 33,25  L 33,24  L 34,24  L 34,23  L 35,23  L 35,22  L 36,22  L 36,21  L 37,21  L 37,19  L 39,19  L 39,18  L 40,18  L 40,17  L 41,17  L 41,16  L 42,16  L 42,15  L 44,15  L 44,14  L 46,14  L 46,13  L 49,13  L 49,12  L 51,12  L 51,11  L 53,11  L 53,10  L 54,10  L 54,11  L 55,11  L 55,10  Z  " style="fill:rgb(0, 0, 0); fill-opacity:1.000; stroke:none;" />
 <path d="  M 90,160  L 92,160  L 92,161  L 95,161  L 95,162  L 98,162  L 98,163  L 109,163  L 109,162  L 110,162  L 110,161  L 111,161  L 111,160  L 110,160  L 110,159  L 109,159  L 109,158  L 105,158  L 105,157  L 101,157  L 101,156  L 97,156  L 97,155  L 95,155  L 95,154  L 93,154  L 93,153  L 91,153  L 91,152  L 89,152  L 89,151  L 87,151  L 87,150  L 85,150  L 85,149  L 83,149  L 83,148  L 80,148  L 80,147  L 79,147  L 79,146  L 77,146  L 77,145  L 75,145  L 75,144  L 73,144  L 73,143  L 71,143  L 71,142  L 69,142  L 69,141  L 67,141  L 67,137  L 68,137  L 68,136  L 70,136  L 70,135  L 71,135  L 71,133  L 72,133  L 72,131  L 73,131  L 73,129  L 74,129  L 74,128  L 75,128  L 75,126  L 76,126  L 76,121  L 75,121  L 75,120  L 74,120  L 74,118  L 72,118  L 72,117  L 69,117  L 69,116  L 66,116  L 66,115  L 64,115  L 64,114  L 63,114  L 63,113  L 62,113  L 62,112  L 61,112  L 61,109  L 60,109  L 60,106  L 59,106  L 59,105  L 58,105  L 58,102  L 57,102  L 57,100  L 56,100  L 56,98  L 51,98  L 51,99  L 48,99  L 48,101  L 49,101  L 49,103  L 50,103  L 50,107  L 51,107  L 51,110  L 53,110  L 53,112  L 54,112  L 54,113  L 55,113  L 55,114  L 56,114  L 56,118  L 52,118  L 52,119  L 48,119  L 48,120  L 42,120  L 42,121  L 41,121  L 41,120  L 40,120  L 40,121  L 35,121  L 35,122  L 28,122  L 28,123  L 25,123  L 25,124  L 24,124  L 24,125  L 23,125  L 23,126  L 24,126  L 24,128  L 25,128  L 25,129  L 26,129  L 26,130  L 27,130  L 27,129  L 28,129  L 28,130  L 29,130  L 29,129  L 31,129  L 31,128  L 37,128  L 37,127  L 45,127  L 45,126  L 50,126  L 50,125  L 59,125  L 59,124  L 60,124  L 60,123  L 61,123  L 61,122  L 66,122  L 66,123  L 67,123  L 67,126  L 66,126  L 66,128  L 65,128  L 65,129  L 64,129  L 64,130  L 63,130  L 63,132  L 62,132  L 62,134  L 61,134  L 61,135  L 60,135  L 60,136  L 59,136  L 59,137  L 58,137  L 58,138  L 57,138  L 57,140  L 55,140  L 55,141  L 54,141  L 54,142  L 53,142  L 53,143  L 52,143  L 52,144  L 51,144  L 51,146  L 50,146  L 50,147  L 49,147  L 49,148  L 47,148  L 47,150  L 46,150  L 46,151  L 45,151  L 45,152  L 44,152  L 44,154  L 43,154  L 43,155  L 42,155  L 42,156  L 41,156  L 41,157  L 39,157  L 39,158  L 38,158  L 38,159  L 36,159  L 36,160  L 35,160  L 35,161  L 34,161  L 34,162  L 33,162  L 33,163  L 31,163  L 31,164  L 30,164  L 30,166  L 29,166  L 29,168  L 28,168  L 28,169  L 29,169  L 29,171  L 34,171  L 34,170  L 35,170  L 35,169  L 36,169  L 36,168  L 37,168  L 37,167  L 38,167  L 38,166  L 39,166  L 39,165  L 41,165  L 41,164  L 42,164  L 42,163  L 43,163  L 43,162  L 45,162  L 45,161  L 47,161  L 47,160  L 48,160  L 48,158  L 49,158  L 49,157  L 51,157  L 51,156  L 52,156  L 52,155  L 53,155  L 53,154  L 54,154  L 54,153  L 55,153  L 55,152  L 56,152  L 56,151  L 57,151  L 57,150  L 58,150  L 58,148  L 59,148  L 59,147  L 61,147  L 61,146  L 62,146  L 62,147  L 65,147  L 65,148  L 66,148  L 66,149  L 68,149  L 68,150  L 70,150  L 70,151  L 71,151  L 71,152  L 74,152  L 74,153  L 76,153  L 76,154  L 78,154  L 78,155  L 80,155  L 80,156  L 83,156  L 83,157  L 85,157  L 85,158  L 88,158  L 88,159  L 90,159  Z  " style="fill:rgb(0, 0, 0); fill-opacity:1.000; stroke:none;" />
</svg>
