<?xml version="1.0" encoding="UTF-8" standalone="no"?>
<!DOCTYPE svg PUBLIC "-//W3C//DTD SVG 1.1//EN" 
  "http://www.w3.org/Graphics/SVG/1.1/DTD/svg11.dtd">
<svg width="110" height="127"
     xmlns="http://www.w3.org/2000/svg" version="1.1">
 <path d="  M 56,37  L 56,33  L 57,33  L 57,25  L 58,25  L 58,24  L 57,24  L 57,20  L 56,20  L 56,18  L 55,18  L 55,15  L 54,15  L 54,14  L 53,14  L 53,13  L 52,13  L 52,12  L 51,12  L 51,11  L 49,11  L 49,10  L 48,10  L 48,9  L 45,9  L 45,8  L 43,8  L 43,7  L 41,7  L 41,6  L 39,6  L 39,5  L 35,5  L 35,4  L 31,4  L 31,3  L 28,3  L 28,2  L 25,2  L 25,3  L 23,3  L 23,4  L 22,4  L 22,6  L 20,6  L 20,7  L 19,7  L 19,8  L 18,8  L 18,10  L 17,10  L 17,11  L 16,11  L 16,12  L 15,12  L 15,14  L 14,14  L 14,15  L 13,15  L 13,16  L 12,16  L 12,18  L 11,18  L 11,19  L 10,19  L 10,22  L 9,22  L 9,25  L 8,25  L 8,28  L 7,28  L 7,32  L 6,32  L 6,40  L 7,40  L 7,42  L 8,42  L 8,44  L 9,44  L 9,45  L 11,45  L 11,46  L 12,46  L 12,47  L 14,47  L 14,48  L 16,48  L 16,49  L 20,49  L 20,50  L 24,50  L 24,51  L 29,51  L 29,70  L 18,70  L 18,71  L 9,71  L 9,72  L 2,72  L 2,73  L 0,73  L 0,76  L 1,76  L 1,77  L 4,77  L 4,78  L 10,78  L 10,77  L 66,77  L 66,76  L 67,76  L 67,72  L 66,72  L 66,70  L 55,70  L 55,71  L 39,71  L 39,70  L 36,70  L 36,69  L 35,69  L 35,50  L 36,50  L 36,49  L 38,49  L 38,48  L 40,48  L 40,47  L 43,47  L 43,46  L 44,46  L 44,45  L 48,45  L 48,44  L 50,44  L 50,43  L 51,43  L 51,42  L 52,42  L 52,41  L 53,41  L 53,40  L 54,40  L 54,39  L 55,39  L 55,37  Z  M 12,38  L 12,30  L 13,30  L 13,27  L 14,27  L 14,25  L 15,25  L 15,23  L 16,23  L 16,21  L 17,21  L 17,20  L 18,20  L 18,18  L 19,18  L 19,16  L 20,16  L 20,15  L 22,15  L 22,14  L 23,14  L 23,13  L 24,13  L 24,12  L 25,12  L 25,11  L 27,11  L 27,10  L 33,10  L 33,11  L 35,11  L 35,12  L 37,12  L 37,13  L 40,13  L 40,14  L 42,14  L 42,15  L 45,15  L 45,16  L 47,16  L 47,17  L 48,17  L 48,18  L 49,18  L 49,19  L 50,19  L 50,21  L 51,21  L 51,28  L 50,28  L 50,33  L 49,33  L 49,35  L 48,35  L 48,36  L 47,36  L 47,37  L 46,37  L 46,38  L 45,38  L 45,39  L 44,39  L 44,40  L 42,40  L 42,41  L 38,41  L 38,42  L 37,42  L 37,43  L 35,43  L 35,44  L 30,44  L 30,45  L 29,45  L 29,44  L 23,44  L 23,43  L 20,43  L 20,42  L 16,42  L 16,41  L 15,41  L 15,40  L 13,40  L 13,38  Z  " style="fill:rgb(0, 0, 0); fill-opacity:1.000; stroke:none;" />
 <path d="  M 35,93  L 36,93  L 36,96  L 35,96  L 35,97  L 36,97  L 36,100  L 35,100  L 35,101  L 36,101  L 36,104  L 35,104  L 35,105  L 36,105  L 36,113  L 37,113  L 37,118  L 38,118  L 38,123  L 39,123  L 39,125  L 40,125  L 40,126  L 41,126  L 41,127  L 62,127  L 62,126  L 72,126  L 72,125  L 84,125  L 84,124  L 85,124  L 85,125  L 87,125  L 87,124  L 90,124  L 90,123  L 91,123  L 91,122  L 93,122  L 93,118  L 92,118  L 92,117  L 86,117  L 86,118  L 77,118  L 77,119  L 67,119  L 67,120  L 57,120  L 57,121  L 56,121  L 56,120  L 55,120  L 55,121  L 45,121  L 45,120  L 44,120  L 44,118  L 43,118  L 43,106  L 42,106  L 42,105  L 43,105  L 43,104  L 42,104  L 42,103  L 43,103  L 43,102  L 42,102  L 42,101  L 43,101  L 43,100  L 42,100  L 42,97  L 43,97  L 43,96  L 42,96  L 42,89  L 39,89  L 39,88  L 38,88  L 38,89  L 36,89  L 36,90  L 35,90  Z  " style="fill:rgb(0, 0, 0); fill-opacity:1.000; stroke:none;" />
 <path d="  M 71,63  L 72,63  L 72,66  L 71,66  L 71,67  L 72,67  L 72,69  L 71,69  L 71,71  L 72,71  L 72,72  L 71,72  L 71,73  L 72,73  L 72,84  L 73,84  L 73,85  L 75,85  L 75,86  L 77,86  L 77,85  L 78,85  L 78,81  L 79,81  L 79,80  L 78,80  L 78,61  L 79,61  L 79,60  L 78,60  L 78,57  L 79,57  L 79,56  L 78,56  L 78,47  L 79,47  L 79,46  L 81,46  L 81,45  L 103,45  L 103,44  L 104,44  L 104,45  L 105,45  L 105,44  L 108,44  L 108,43  L 109,43  L 109,42  L 110,42  L 110,38  L 78,38  L 78,37  L 77,37  L 77,32  L 78,32  L 78,26  L 77,26  L 77,25  L 78,25  L 78,24  L 77,24  L 77,19  L 76,19  L 76,13  L 75,13  L 75,4  L 74,4  L 74,2  L 73,2  L 73,1  L 72,1  L 72,0  L 68,0  L 68,5  L 69,5  L 69,11  L 70,11  L 70,21  L 71,21  Z  " style="fill:rgb(0, 0, 0); fill-opacity:1.000; stroke:none;" />
</svg>
