<?xml version="1.0" encoding="UTF-8" standalone="no"?>
<!DOCTYPE svg PUBLIC "-//W3C//DTD SVG 1.1//EN" 
  "http://www.w3.org/Graphics/SVG/1.1/DTD/svg11.dtd">
<svg width="109" height="149"
     xmlns="http://www.w3.org/2000/svg" version="1.1">
 <path d="  M 29,75  L 29,74  L 35,74  L 35,73  L 39,73  L 39,74  L 67,74  L 67,73  L 69,73  L 69,72  L 70,72  L 70,69  L 68,69  L 68,68  L 65,68  L 65,67  L 58,67  L 58,68  L 56,68  L 56,67  L 54,67  L 54,68  L 53,68  L 53,67  L 41,67  L 41,63  L 40,63  L 40,54  L 41,54  L 41,52  L 43,52  L 43,51  L 45,51  L 45,50  L 47,50  L 47,49  L 48,49  L 48,48  L 51,48  L 51,47  L 52,47  L 52,46  L 53,46  L 53,45  L 54,45  L 54,44  L 56,44  L 56,42  L 57,42  L 57,41  L 58,41  L 58,40  L 59,40  L 59,38  L 60,38  L 60,36  L 61,36  L 61,35  L 60,35  L 60,34  L 61,34  L 61,32  L 62,32  L 62,19  L 61,19  L 61,17  L 60,17  L 60,14  L 59,14  L 59,13  L 58,13  L 58,11  L 57,11  L 57,9  L 56,9  L 56,8  L 55,8  L 55,7  L 53,7  L 53,6  L 52,6  L 52,5  L 51,5  L 51,4  L 44,4  L 44,3  L 42,3  L 42,4  L 40,4  L 40,3  L 28,3  L 28,4  L 27,4  L 27,5  L 26,5  L 26,6  L 25,6  L 25,8  L 24,8  L 24,9  L 23,9  L 23,10  L 22,10  L 22,12  L 21,12  L 21,13  L 20,13  L 20,15  L 19,15  L 19,16  L 18,16  L 18,17  L 17,17  L 17,19  L 16,19  L 16,20  L 15,20  L 15,23  L 14,23  L 14,24  L 13,24  L 13,26  L 12,26  L 12,29  L 11,29  L 11,35  L 12,35  L 12,38  L 13,38  L 13,40  L 14,40  L 14,42  L 15,42  L 15,43  L 16,43  L 16,44  L 17,44  L 17,45  L 18,45  L 18,46  L 19,46  L 19,47  L 20,47  L 20,48  L 22,48  L 22,49  L 24,49  L 24,50  L 26,50  L 26,51  L 27,51  L 27,52  L 32,52  L 32,53  L 33,53  L 33,54  L 34,54  L 34,59  L 33,59  L 33,60  L 34,60  L 34,66  L 33,66  L 33,68  L 24,68  L 24,69  L 20,69  L 20,70  L 14,70  L 14,71  L 10,71  L 10,72  L 4,72  L 4,73  L 1,73  L 1,78  L 4,78  L 4,79  L 7,79  L 7,78  L 9,78  L 9,77  L 13,77  L 13,76  L 18,76  L 18,75  L 26,75  L 26,74  L 28,74  L 28,75  Z  M 54,20  L 55,20  L 55,22  L 56,22  L 56,26  L 55,26  L 55,31  L 54,31  L 54,35  L 53,35  L 53,36  L 52,36  L 52,37  L 51,37  L 51,39  L 50,39  L 50,40  L 49,40  L 49,41  L 47,41  L 47,42  L 46,42  L 46,43  L 43,43  L 43,44  L 40,44  L 40,45  L 39,45  L 39,46  L 36,46  L 36,45  L 29,45  L 29,44  L 27,44  L 27,43  L 25,43  L 25,42  L 24,42  L 24,41  L 23,41  L 23,40  L 22,40  L 22,39  L 21,39  L 21,38  L 20,38  L 20,36  L 19,36  L 19,35  L 18,35  L 18,30  L 19,30  L 19,27  L 20,27  L 20,25  L 21,25  L 21,24  L 22,24  L 22,22  L 23,22  L 23,21  L 24,21  L 24,20  L 25,20  L 25,18  L 26,18  L 26,17  L 27,17  L 27,16  L 28,16  L 28,15  L 29,15  L 29,14  L 30,14  L 30,13  L 34,13  L 34,12  L 47,12  L 47,13  L 49,13  L 49,14  L 50,14  L 50,15  L 51,15  L 51,16  L 53,16  L 53,18  L 54,18  Z  " style="fill:rgb(0, 0, 0); fill-opacity:1.000; stroke:none;" />
 <path d="  M 29,139  L 30,139  L 30,142  L 31,142  L 31,143  L 32,143  L 32,146  L 33,146  L 33,147  L 35,147  L 35,148  L 39,148  L 39,149  L 57,149  L 57,148  L 63,148  L 63,147  L 66,147  L 66,146  L 69,146  L 69,145  L 71,145  L 71,144  L 74,144  L 74,143  L 76,143  L 76,142  L 79,142  L 79,141  L 81,141  L 81,140  L 85,140  L 85,139  L 87,139  L 87,138  L 90,138  L 90,137  L 92,137  L 92,135  L 93,135  L 93,134  L 94,134  L 94,130  L 93,130  L 93,129  L 92,129  L 92,130  L 88,130  L 88,131  L 85,131  L 85,132  L 82,132  L 82,133  L 79,133  L 79,134  L 77,134  L 77,135  L 75,135  L 75,136  L 73,136  L 73,137  L 71,137  L 71,138  L 69,138  L 69,139  L 66,139  L 66,140  L 62,140  L 62,141  L 57,141  L 57,142  L 49,142  L 49,143  L 48,143  L 48,142  L 47,142  L 47,143  L 46,143  L 46,142  L 41,142  L 41,141  L 37,141  L 37,140  L 36,140  L 36,139  L 35,139  L 35,138  L 36,138  L 36,132  L 37,132  L 37,130  L 39,130  L 39,129  L 41,129  L 41,128  L 43,128  L 43,127  L 45,127  L 45,126  L 47,126  L 47,125  L 49,125  L 49,124  L 52,124  L 52,123  L 55,123  L 55,122  L 57,122  L 57,121  L 61,121  L 61,120  L 62,120  L 62,119  L 64,119  L 64,118  L 66,118  L 66,117  L 68,117  L 68,116  L 69,116  L 69,115  L 71,115  L 71,114  L 74,114  L 74,113  L 76,113  L 76,112  L 78,112  L 78,110  L 80,110  L 80,105  L 79,105  L 79,104  L 78,104  L 78,102  L 77,102  L 77,99  L 76,99  L 76,98  L 75,98  L 75,97  L 74,97  L 74,95  L 73,95  L 73,94  L 71,94  L 71,93  L 70,93  L 70,92  L 67,92  L 67,91  L 66,91  L 66,90  L 65,90  L 65,89  L 62,89  L 62,88  L 59,88  L 59,87  L 46,87  L 46,88  L 41,88  L 41,89  L 36,89  L 36,90  L 34,90  L 34,91  L 33,91  L 33,93  L 32,93  L 32,94  L 33,94  L 33,95  L 32,95  L 32,96  L 33,96  L 33,98  L 39,98  L 39,97  L 42,97  L 42,96  L 43,96  L 43,97  L 44,97  L 44,96  L 47,96  L 47,95  L 59,95  L 59,96  L 61,96  L 61,97  L 63,97  L 63,98  L 65,98  L 65,99  L 66,99  L 66,100  L 67,100  L 67,101  L 68,101  L 68,102  L 69,102  L 69,103  L 70,103  L 70,104  L 71,104  L 71,105  L 70,105  L 70,106  L 71,106  L 71,107  L 70,107  L 70,108  L 71,108  L 71,109  L 67,109  L 67,110  L 64,110  L 64,111  L 61,111  L 61,112  L 59,112  L 59,113  L 57,113  L 57,114  L 55,114  L 55,115  L 52,115  L 52,116  L 50,116  L 50,117  L 48,117  L 48,118  L 47,118  L 47,117  L 46,117  L 46,118  L 45,118  L 45,119  L 42,119  L 42,120  L 41,120  L 41,121  L 38,121  L 38,122  L 37,122  L 37,123  L 35,123  L 35,124  L 33,124  L 33,126  L 32,126  L 32,128  L 31,128  L 31,130  L 30,130  L 30,132  L 29,132  Z  " style="fill:rgb(0, 0, 0); fill-opacity:1.000; stroke:none;" />
 <path d="  M 76,76  L 77,76  L 77,80  L 78,80  L 78,81  L 79,81  L 79,82  L 82,82  L 82,81  L 83,81  L 83,71  L 82,71  L 82,54  L 83,54  L 83,53  L 82,53  L 82,50  L 83,50  L 83,49  L 82,49  L 82,48  L 83,48  L 83,45  L 82,45  L 82,44  L 83,44  L 83,43  L 82,43  L 82,40  L 83,40  L 83,39  L 84,39  L 84,38  L 87,38  L 87,37  L 109,37  L 109,31  L 108,31  L 108,30  L 86,30  L 86,31  L 83,31  L 83,23  L 82,23  L 82,20  L 83,20  L 83,19  L 82,19  L 82,5  L 81,5  L 81,2  L 80,2  L 80,1  L 79,1  L 79,0  L 77,0  L 77,1  L 76,1  L 76,3  L 75,3  L 75,12  L 76,12  L 76,13  L 75,13  L 75,14  L 76,14  L 76,35  L 77,35  L 77,36  L 76,36  Z  " style="fill:rgb(0, 0, 0); fill-opacity:1.000; stroke:none;" />
</svg>
