<?xml version="1.0" encoding="UTF-8" standalone="no"?>
<!DOCTYPE svg PUBLIC "-//W3C//DTD SVG 1.1//EN" 
  "http://www.w3.org/Graphics/SVG/1.1/DTD/svg11.dtd">
<svg width="111" height="133"
     xmlns="http://www.w3.org/2000/svg" version="1.1">
 <path d="  M 24,4  L 24,5  L 23,5  L 23,6  L 21,6  L 21,7  L 20,7  L 20,9  L 19,9  L 19,10  L 18,10  L 18,11  L 17,11  L 17,12  L 16,12  L 16,13  L 15,13  L 15,14  L 14,14  L 14,16  L 13,16  L 13,17  L 12,17  L 12,19  L 11,19  L 11,21  L 10,21  L 10,26  L 9,26  L 9,29  L 8,29  L 8,30  L 9,30  L 9,31  L 8,31  L 8,34  L 9,34  L 9,38  L 10,38  L 10,41  L 12,41  L 12,42  L 13,42  L 13,43  L 14,43  L 14,44  L 15,44  L 15,45  L 17,45  L 17,46  L 18,46  L 18,47  L 23,47  L 23,48  L 26,48  L 26,50  L 27,50  L 27,49  L 29,49  L 29,50  L 32,50  L 32,66  L 31,66  L 31,67  L 19,67  L 19,68  L 18,68  L 18,67  L 17,67  L 17,68  L 8,68  L 8,69  L 0,69  L 0,72  L 1,72  L 1,73  L 2,73  L 2,74  L 4,74  L 4,75  L 5,75  L 5,74  L 13,74  L 13,73  L 16,73  L 16,74  L 17,74  L 17,73  L 30,73  L 30,72  L 38,72  L 38,73  L 44,73  L 44,74  L 45,74  L 45,73  L 48,73  L 48,74  L 49,74  L 49,73  L 52,73  L 52,74  L 53,74  L 53,73  L 67,73  L 67,74  L 69,74  L 69,73  L 70,73  L 70,72  L 71,72  L 71,71  L 72,71  L 72,69  L 71,69  L 71,68  L 70,68  L 70,66  L 65,66  L 65,67  L 64,67  L 64,66  L 62,66  L 62,67  L 59,67  L 59,66  L 58,66  L 58,67  L 55,67  L 55,66  L 54,66  L 54,67  L 51,67  L 51,66  L 50,66  L 50,67  L 47,67  L 47,66  L 40,66  L 40,65  L 39,65  L 39,49  L 40,49  L 40,48  L 43,48  L 43,47  L 45,47  L 45,46  L 49,46  L 49,45  L 50,45  L 50,44  L 51,44  L 51,43  L 53,43  L 53,42  L 54,42  L 54,41  L 55,41  L 55,40  L 56,40  L 56,39  L 57,39  L 57,38  L 58,38  L 58,36  L 59,36  L 59,34  L 60,34  L 60,31  L 61,31  L 61,26  L 62,26  L 62,20  L 61,20  L 61,16  L 60,16  L 60,13  L 59,13  L 59,12  L 58,12  L 58,11  L 57,11  L 57,10  L 56,10  L 56,9  L 55,9  L 55,8  L 54,8  L 54,7  L 53,7  L 53,6  L 52,6  L 52,5  L 51,5  L 51,4  L 48,4  L 48,3  L 46,3  L 46,2  L 42,2  L 42,1  L 41,1  L 41,2  L 40,2  L 40,1  L 32,1  L 32,0  L 28,0  L 28,1  L 27,1  L 27,2  L 26,2  L 26,3  L 25,3  L 25,4  Z  M 22,41  L 22,40  L 20,40  L 20,39  L 18,39  L 18,37  L 16,37  L 16,35  L 15,35  L 15,26  L 16,26  L 16,25  L 15,25  L 15,23  L 16,23  L 16,22  L 17,22  L 17,20  L 18,20  L 18,19  L 19,19  L 19,17  L 20,17  L 20,16  L 21,16  L 21,15  L 22,15  L 22,14  L 23,14  L 23,13  L 24,13  L 24,12  L 26,12  L 26,11  L 27,11  L 27,10  L 28,10  L 28,9  L 30,9  L 30,8  L 39,8  L 39,9  L 44,9  L 44,10  L 47,10  L 47,11  L 48,11  L 48,12  L 50,12  L 50,13  L 51,13  L 51,14  L 52,14  L 52,15  L 53,15  L 53,16  L 54,16  L 54,18  L 55,18  L 55,21  L 56,21  L 56,22  L 55,22  L 55,29  L 54,29  L 54,31  L 53,31  L 53,33  L 52,33  L 52,34  L 51,34  L 51,35  L 50,35  L 50,36  L 49,36  L 49,37  L 48,37  L 48,38  L 47,38  L 47,39  L 46,39  L 46,40  L 43,40  L 43,41  L 42,41  L 42,42  L 41,42  L 41,41  L 40,41  L 40,42  L 36,42  L 36,43  L 34,43  L 34,42  L 26,42  L 26,41  Z  " style="fill:rgb(0, 0, 0); fill-opacity:1.000; stroke:none;" />
 <path d="  M 81,95  L 83,95  L 83,106  L 82,106  L 82,111  L 81,111  L 81,118  L 80,118  L 80,121  L 79,121  L 79,124  L 75,124  L 75,125  L 72,125  L 72,126  L 66,126  L 66,127  L 56,127  L 56,128  L 54,128  L 54,127  L 53,127  L 53,128  L 50,128  L 50,127  L 47,127  L 47,124  L 46,124  L 46,123  L 47,123  L 47,122  L 46,122  L 46,121  L 47,121  L 47,119  L 46,119  L 46,117  L 47,117  L 47,115  L 46,115  L 46,114  L 47,114  L 47,111  L 46,111  L 46,110  L 47,110  L 47,107  L 46,107  L 46,106  L 47,106  L 47,105  L 46,105  L 46,102  L 47,102  L 47,101  L 46,101  L 46,99  L 47,99  L 47,98  L 48,98  L 48,97  L 49,97  L 49,98  L 54,98  L 54,97  L 56,97  L 56,98  L 57,98  L 57,97  L 68,97  L 68,96  L 81,96  Z  M 58,91  L 48,91  L 48,90  L 46,90  L 46,89  L 44,89  L 44,88  L 43,88  L 43,87  L 41,87  L 41,88  L 38,88  L 38,89  L 35,89  L 35,88  L 31,88  L 31,89  L 30,89  L 30,94  L 32,94  L 32,95  L 34,95  L 34,94  L 35,94  L 35,95  L 36,95  L 36,94  L 38,94  L 38,95  L 39,95  L 39,96  L 40,96  L 40,126  L 41,126  L 41,129  L 42,129  L 42,132  L 43,132  L 43,133  L 69,133  L 69,132  L 74,132  L 74,131  L 77,131  L 77,130  L 78,130  L 78,129  L 81,129  L 81,128  L 82,128  L 82,127  L 83,127  L 83,126  L 85,126  L 85,123  L 86,123  L 86,119  L 87,119  L 87,115  L 88,115  L 88,108  L 89,108  L 89,101  L 90,101  L 90,93  L 89,93  L 89,91  L 88,91  L 88,90  L 86,90  L 86,89  L 69,89  L 69,90  L 66,90  L 66,89  L 65,89  L 65,90  L 58,90  Z  " style="fill:rgb(0, 0, 0); fill-opacity:1.000; stroke:none;" />
 <path d="  M 76,56  L 76,79  L 77,79  L 77,81  L 78,81  L 78,82  L 82,82  L 82,81  L 83,81  L 83,73  L 82,73  L 82,72  L 83,72  L 83,70  L 82,70  L 82,68  L 83,68  L 83,67  L 82,67  L 82,64  L 83,64  L 83,63  L 82,63  L 82,60  L 83,60  L 83,59  L 82,59  L 82,58  L 83,58  L 83,57  L 82,57  L 82,56  L 83,56  L 83,55  L 82,55  L 82,54  L 83,54  L 83,53  L 82,53  L 82,52  L 83,52  L 83,51  L 82,51  L 82,50  L 83,50  L 83,49  L 82,49  L 82,48  L 83,48  L 83,47  L 82,47  L 82,46  L 83,46  L 83,45  L 82,45  L 82,41  L 83,41  L 83,40  L 84,40  L 84,39  L 87,39  L 87,38  L 111,38  L 111,32  L 109,32  L 109,31  L 107,31  L 107,32  L 87,32  L 87,31  L 85,31  L 85,32  L 83,32  L 83,31  L 82,31  L 82,23  L 81,23  L 81,12  L 80,12  L 80,5  L 79,5  L 79,2  L 78,2  L 78,1  L 74,1  L 74,14  L 75,14  L 75,22  L 76,22  L 76,47  L 75,47  L 75,48  L 76,48  L 76,51  L 75,51  L 75,52  L 76,52  L 76,55  L 75,55  L 75,56  Z  " style="fill:rgb(0, 0, 0); fill-opacity:1.000; stroke:none;" />
</svg>
