<?xml version="1.0" encoding="UTF-8" standalone="no"?>
<!DOCTYPE svg PUBLIC "-//W3C//DTD SVG 1.1//EN" 
  "http://www.w3.org/Graphics/SVG/1.1/DTD/svg11.dtd">
<svg width="112" height="137"
     xmlns="http://www.w3.org/2000/svg" version="1.1">
 <path d="  M 29,75  L 29,74  L 30,74  L 30,75  L 31,75  L 31,74  L 38,74  L 38,73  L 39,73  L 39,74  L 40,74  L 40,73  L 43,73  L 43,74  L 44,74  L 44,73  L 47,73  L 47,74  L 48,74  L 48,73  L 51,73  L 51,74  L 52,74  L 52,73  L 55,73  L 55,74  L 56,74  L 56,73  L 58,73  L 58,74  L 60,74  L 60,73  L 61,73  L 61,74  L 68,74  L 68,73  L 69,73  L 69,71  L 70,71  L 70,69  L 69,69  L 69,68  L 68,68  L 68,67  L 40,67  L 40,50  L 41,50  L 41,49  L 44,49  L 44,48  L 47,48  L 47,47  L 49,47  L 49,46  L 53,46  L 53,45  L 54,45  L 54,44  L 55,44  L 55,43  L 56,43  L 56,42  L 57,42  L 57,41  L 58,41  L 58,40  L 59,40  L 59,39  L 60,39  L 60,37  L 61,37  L 61,34  L 62,34  L 62,30  L 63,30  L 63,29  L 62,29  L 62,26  L 63,26  L 63,25  L 62,25  L 62,23  L 63,23  L 63,21  L 62,21  L 62,18  L 61,18  L 61,16  L 60,16  L 60,15  L 59,15  L 59,13  L 58,13  L 58,12  L 56,12  L 56,11  L 55,11  L 55,10  L 53,10  L 53,9  L 51,9  L 51,8  L 49,8  L 49,7  L 45,7  L 45,6  L 41,6  L 41,5  L 38,5  L 38,4  L 33,4  L 33,3  L 31,3  L 31,4  L 29,4  L 29,5  L 28,5  L 28,7  L 27,7  L 27,8  L 26,8  L 26,9  L 25,9  L 25,10  L 24,10  L 24,11  L 23,11  L 23,12  L 22,12  L 22,13  L 21,13  L 21,14  L 20,14  L 20,15  L 19,15  L 19,17  L 18,17  L 18,18  L 17,18  L 17,19  L 16,19  L 16,21  L 15,21  L 15,24  L 14,24  L 14,28  L 13,28  L 13,30  L 12,30  L 12,36  L 11,36  L 11,41  L 12,41  L 12,44  L 13,44  L 13,45  L 14,45  L 14,46  L 15,46  L 15,47  L 16,47  L 16,48  L 19,48  L 19,49  L 22,49  L 22,50  L 27,50  L 27,51  L 33,51  L 33,52  L 34,52  L 34,69  L 30,69  L 30,70  L 29,70  L 29,69  L 28,69  L 28,70  L 25,70  L 25,69  L 24,69  L 24,70  L 21,70  L 21,71  L 10,71  L 10,72  L 9,72  L 9,71  L 8,71  L 8,72  L 3,72  L 3,73  L 1,73  L 1,74  L 0,74  L 0,77  L 10,77  L 10,76  L 19,76  L 19,75  L 22,75  L 22,76  L 23,76  L 23,75  Z  M 22,42  L 19,42  L 19,41  L 18,41  L 18,39  L 17,39  L 17,32  L 18,32  L 18,30  L 19,30  L 19,26  L 20,26  L 20,24  L 21,24  L 21,23  L 22,23  L 22,21  L 23,21  L 23,20  L 24,20  L 24,19  L 25,19  L 25,17  L 26,17  L 26,16  L 27,16  L 27,15  L 28,15  L 28,14  L 29,14  L 29,13  L 30,13  L 30,12  L 32,12  L 32,11  L 39,11  L 39,12  L 40,12  L 40,11  L 41,11  L 41,12  L 43,12  L 43,13  L 46,13  L 46,14  L 49,14  L 49,15  L 51,15  L 51,16  L 53,16  L 53,17  L 54,17  L 54,18  L 55,18  L 55,19  L 56,19  L 56,21  L 57,21  L 57,25  L 56,25  L 56,26  L 57,26  L 57,27  L 56,27  L 56,31  L 55,31  L 55,33  L 54,33  L 54,35  L 53,35  L 53,36  L 52,36  L 52,37  L 51,37  L 51,39  L 50,39  L 50,40  L 48,40  L 48,41  L 47,41  L 47,42  L 43,42  L 43,43  L 39,43  L 39,44  L 38,44  L 38,43  L 37,43  L 37,44  L 29,44  L 29,43  L 22,43  Z  " style="fill:rgb(0, 0, 0); fill-opacity:1.000; stroke:none;" />
 <path d="  M 53,93  L 53,95  L 52,95  L 52,97  L 51,97  L 51,98  L 50,98  L 50,100  L 49,100  L 49,101  L 48,101  L 48,102  L 47,102  L 47,104  L 46,104  L 46,106  L 45,106  L 45,107  L 43,107  L 43,109  L 42,109  L 42,110  L 41,110  L 41,112  L 40,112  L 40,114  L 39,114  L 39,116  L 38,116  L 38,118  L 37,118  L 37,120  L 36,120  L 36,121  L 35,121  L 35,123  L 34,123  L 34,124  L 33,124  L 33,126  L 32,126  L 32,127  L 30,127  L 30,129  L 29,129  L 29,130  L 28,130  L 28,131  L 27,131  L 27,132  L 26,132  L 26,136  L 27,136  L 27,137  L 31,137  L 31,136  L 33,136  L 33,135  L 34,135  L 34,134  L 35,134  L 35,133  L 36,133  L 36,131  L 37,131  L 37,130  L 38,130  L 38,129  L 39,129  L 39,128  L 40,128  L 40,126  L 41,126  L 41,125  L 42,125  L 42,123  L 43,123  L 43,122  L 44,122  L 44,120  L 45,120  L 45,118  L 46,118  L 46,116  L 47,116  L 47,114  L 48,114  L 48,113  L 49,113  L 49,111  L 50,111  L 50,110  L 51,110  L 51,108  L 52,108  L 52,107  L 53,107  L 53,105  L 55,105  L 55,104  L 57,104  L 57,105  L 58,105  L 58,106  L 59,106  L 59,107  L 60,107  L 60,108  L 62,108  L 62,109  L 63,109  L 63,110  L 65,110  L 65,111  L 66,111  L 66,112  L 67,112  L 67,113  L 69,113  L 69,114  L 71,114  L 71,115  L 72,115  L 72,116  L 74,116  L 74,117  L 75,117  L 75,118  L 77,118  L 77,119  L 78,119  L 78,120  L 80,120  L 80,121  L 83,121  L 83,122  L 84,122  L 84,123  L 86,123  L 86,124  L 87,124  L 87,125  L 89,125  L 89,126  L 91,126  L 91,127  L 92,127  L 92,128  L 98,128  L 98,127  L 100,127  L 100,124  L 99,124  L 99,123  L 97,123  L 97,122  L 96,122  L 96,121  L 94,121  L 94,120  L 93,120  L 93,119  L 91,119  L 91,118  L 89,118  L 89,117  L 87,117  L 87,116  L 86,116  L 86,115  L 84,115  L 84,114  L 82,114  L 82,113  L 80,113  L 80,112  L 79,112  L 79,111  L 78,111  L 78,110  L 76,110  L 76,109  L 74,109  L 74,108  L 73,108  L 73,107  L 72,107  L 72,106  L 70,106  L 70,105  L 68,105  L 68,104  L 66,104  L 66,103  L 65,103  L 65,102  L 63,102  L 63,101  L 61,101  L 61,99  L 60,99  L 60,98  L 59,98  L 59,96  L 60,96  L 60,93  L 61,93  L 61,92  L 62,92  L 62,90  L 63,90  L 63,89  L 62,89  L 62,85  L 59,85  L 59,86  L 57,86  L 57,88  L 56,88  L 56,90  L 55,90  L 55,92  L 54,92  L 54,93  Z  " style="fill:rgb(0, 0, 0); fill-opacity:1.000; stroke:none;" />
 <path d="  M 111,33  L 111,32  L 87,32  L 87,33  L 83,33  L 83,32  L 82,32  L 82,19  L 81,19  L 81,13  L 80,13  L 80,3  L 79,3  L 79,1  L 73,1  L 73,2  L 74,2  L 74,9  L 75,9  L 75,22  L 76,22  L 76,36  L 75,36  L 75,37  L 76,37  L 76,40  L 75,40  L 75,41  L 76,41  L 76,44  L 75,44  L 75,46  L 76,46  L 76,47  L 75,47  L 75,50  L 76,50  L 76,51  L 75,51  L 75,54  L 76,54  L 76,56  L 75,56  L 75,58  L 76,58  L 76,61  L 75,61  L 75,63  L 76,63  L 76,64  L 75,64  L 75,66  L 76,66  L 76,68  L 75,68  L 75,78  L 76,78  L 76,80  L 81,80  L 81,79  L 82,79  L 82,42  L 83,42  L 83,40  L 87,40  L 87,39  L 112,39  L 112,33  Z  " style="fill:rgb(0, 0, 0); fill-opacity:1.000; stroke:none;" />
</svg>
