<?xml version="1.0" encoding="UTF-8" standalone="no"?>
<!DOCTYPE svg PUBLIC "-//W3C//DTD SVG 1.1//EN" 
  "http://www.w3.org/Graphics/SVG/1.1/DTD/svg11.dtd">
<svg width="106" height="149"
     xmlns="http://www.w3.org/2000/svg" version="1.1">
 <path d="  M 56,37  L 56,33  L 57,33  L 57,28  L 58,28  L 58,15  L 57,15  L 57,13  L 56,13  L 56,10  L 55,10  L 55,8  L 54,8  L 54,7  L 53,7  L 53,6  L 52,6  L 52,5  L 51,5  L 51,4  L 49,4  L 49,3  L 46,3  L 46,2  L 42,2  L 42,1  L 26,1  L 26,2  L 24,2  L 24,3  L 23,3  L 23,4  L 22,4  L 22,5  L 21,5  L 21,6  L 20,6  L 20,8  L 19,8  L 19,10  L 18,10  L 18,11  L 17,11  L 17,13  L 16,13  L 16,15  L 15,15  L 15,16  L 14,16  L 14,18  L 13,18  L 13,20  L 12,20  L 12,22  L 11,22  L 11,26  L 10,26  L 10,29  L 9,29  L 9,39  L 10,39  L 10,42  L 11,42  L 11,45  L 12,45  L 12,47  L 13,47  L 13,48  L 14,48  L 14,49  L 15,49  L 15,50  L 17,50  L 17,51  L 19,51  L 19,52  L 21,52  L 21,53  L 23,53  L 23,54  L 31,54  L 31,60  L 30,60  L 30,61  L 31,61  L 31,63  L 30,63  L 30,64  L 31,64  L 31,65  L 30,65  L 30,68  L 31,68  L 31,69  L 30,69  L 30,72  L 31,72  L 31,73  L 30,73  L 30,74  L 31,74  L 31,75  L 30,75  L 30,76  L 26,76  L 26,75  L 23,75  L 23,76  L 17,76  L 17,77  L 11,77  L 11,78  L 7,78  L 7,79  L 2,79  L 2,80  L 0,80  L 0,84  L 3,84  L 3,85  L 9,85  L 9,84  L 11,84  L 11,83  L 14,83  L 14,82  L 21,82  L 21,81  L 28,81  L 28,80  L 56,80  L 56,79  L 58,79  L 58,80  L 60,80  L 60,79  L 68,79  L 68,78  L 69,78  L 69,76  L 68,76  L 68,75  L 67,75  L 67,74  L 66,74  L 66,73  L 64,73  L 64,72  L 59,72  L 59,73  L 54,73  L 54,74  L 52,74  L 52,73  L 51,73  L 51,74  L 38,74  L 38,73  L 37,73  L 37,56  L 38,56  L 38,53  L 39,53  L 39,52  L 41,52  L 41,51  L 42,51  L 42,50  L 45,50  L 45,49  L 46,49  L 46,48  L 47,48  L 47,47  L 49,47  L 49,45  L 51,45  L 51,43  L 52,43  L 52,42  L 53,42  L 53,41  L 54,41  L 54,39  L 55,39  L 55,37  Z  M 25,13  L 25,12  L 26,12  L 26,11  L 27,11  L 27,10  L 29,10  L 29,9  L 31,9  L 31,8  L 37,8  L 37,9  L 42,9  L 42,10  L 46,10  L 46,11  L 48,11  L 48,12  L 49,12  L 49,13  L 50,13  L 50,15  L 51,15  L 51,27  L 50,27  L 50,32  L 49,32  L 49,34  L 48,34  L 48,36  L 47,36  L 47,39  L 46,39  L 46,41  L 45,41  L 45,42  L 44,42  L 44,43  L 43,43  L 43,44  L 42,44  L 42,45  L 39,45  L 39,46  L 37,46  L 37,47  L 36,47  L 36,48  L 29,48  L 29,47  L 25,47  L 25,46  L 21,46  L 21,45  L 20,45  L 20,44  L 18,44  L 18,42  L 17,42  L 17,41  L 16,41  L 16,39  L 15,39  L 15,29  L 16,29  L 16,25  L 17,25  L 17,23  L 18,23  L 18,21  L 19,21  L 19,19  L 20,19  L 20,18  L 21,18  L 21,16  L 22,16  L 22,15  L 23,15  L 23,14  L 24,14  L 24,13  Z  " style="fill:rgb(0, 0, 0); fill-opacity:1.000; stroke:none;" />
 <path d="  M 89,149  L 89,147  L 90,147  L 90,141  L 91,141  L 91,129  L 92,129  L 92,128  L 91,128  L 91,126  L 92,126  L 92,124  L 91,124  L 91,123  L 92,123  L 92,119  L 93,119  L 93,116  L 94,116  L 94,114  L 95,114  L 95,105  L 96,105  L 96,104  L 95,104  L 95,102  L 94,102  L 94,101  L 93,101  L 93,100  L 92,100  L 92,99  L 90,99  L 90,98  L 86,98  L 86,97  L 83,97  L 83,96  L 65,96  L 65,97  L 60,97  L 60,98  L 53,98  L 53,99  L 48,99  L 48,100  L 42,100  L 42,101  L 40,101  L 40,102  L 39,102  L 39,107  L 46,107  L 46,106  L 52,106  L 52,105  L 56,105  L 56,104  L 62,104  L 62,103  L 70,103  L 70,102  L 81,102  L 81,103  L 84,103  L 84,104  L 86,104  L 86,105  L 87,105  L 87,106  L 88,106  L 88,114  L 87,114  L 87,118  L 86,118  L 86,122  L 85,122  L 85,132  L 84,132  L 84,141  L 83,141  L 83,149  Z  " style="fill:rgb(0, 0, 0); fill-opacity:1.000; stroke:none;" />
 <path d="  M 106,83  L 106,7  L 105,7  L 105,5  L 101,5  L 101,6  L 100,6  L 100,7  L 99,7  L 99,13  L 100,13  L 100,14  L 99,14  L 99,15  L 100,15  L 100,18  L 99,18  L 99,19  L 100,19  L 100,29  L 97,29  L 97,30  L 84,30  L 84,4  L 83,4  L 83,3  L 80,3  L 80,2  L 79,2  L 79,3  L 78,3  L 78,4  L 77,4  L 77,5  L 78,5  L 78,8  L 77,8  L 77,9  L 78,9  L 78,10  L 77,10  L 77,13  L 78,13  L 78,15  L 77,15  L 77,17  L 78,17  L 78,20  L 77,20  L 77,21  L 78,21  L 78,23  L 77,23  L 77,25  L 78,25  L 78,27  L 77,27  L 77,29  L 78,29  L 78,30  L 77,30  L 77,34  L 78,34  L 78,35  L 77,35  L 77,37  L 78,37  L 78,44  L 79,44  L 79,51  L 78,51  L 78,52  L 79,52  L 79,53  L 78,53  L 78,60  L 77,60  L 77,68  L 76,68  L 76,69  L 77,69  L 77,70  L 76,70  L 76,77  L 77,77  L 77,79  L 80,79  L 80,78  L 82,78  L 82,75  L 83,75  L 83,69  L 84,69  L 84,68  L 83,68  L 83,66  L 84,66  L 84,57  L 85,57  L 85,48  L 86,48  L 86,38  L 87,38  L 87,37  L 91,37  L 91,36  L 97,36  L 97,35  L 100,35  L 100,38  L 101,38  L 101,40  L 100,40  L 100,46  L 101,46  L 101,47  L 100,47  L 100,70  L 99,70  L 99,71  L 100,71  L 100,74  L 99,74  L 99,75  L 100,75  L 100,78  L 99,78  L 99,79  L 100,79  L 100,84  L 101,84  L 101,85  L 104,85  L 104,84  L 105,84  L 105,83  Z  " style="fill:rgb(0, 0, 0); fill-opacity:1.000; stroke:none;" />
</svg>
