<?xml version="1.0" encoding="UTF-8" standalone="no"?>
<!DOCTYPE svg PUBLIC "-//W3C//DTD SVG 1.1//EN" 
  "http://www.w3.org/Graphics/SVG/1.1/DTD/svg11.dtd">
<svg width="113" height="151"
     xmlns="http://www.w3.org/2000/svg" version="1.1">
 <path d="  M 44,15  L 44,16  L 46,16  L 46,17  L 47,17  L 47,18  L 49,18  L 49,19  L 50,19  L 50,20  L 51,20  L 51,22  L 52,22  L 52,34  L 51,34  L 51,39  L 50,39  L 50,43  L 49,43  L 49,45  L 48,45  L 48,47  L 47,47  L 47,48  L 46,48  L 46,49  L 45,49  L 45,50  L 43,50  L 43,51  L 41,51  L 41,52  L 39,52  L 39,53  L 37,53  L 37,54  L 31,54  L 31,53  L 25,53  L 25,52  L 20,52  L 20,51  L 18,51  L 18,50  L 17,50  L 17,49  L 16,49  L 16,47  L 15,47  L 15,42  L 14,42  L 14,39  L 15,39  L 15,38  L 14,38  L 14,37  L 15,37  L 15,34  L 16,34  L 16,32  L 17,32  L 17,28  L 18,28  L 18,26  L 19,26  L 19,25  L 20,25  L 20,23  L 21,23  L 21,22  L 22,22  L 22,21  L 23,21  L 23,20  L 24,20  L 24,19  L 25,19  L 25,18  L 26,18  L 26,17  L 28,17  L 28,16  L 30,16  L 30,15  Z  M 9,46  L 10,46  L 10,50  L 11,50  L 11,52  L 12,52  L 12,53  L 13,53  L 13,54  L 14,54  L 14,55  L 15,55  L 15,56  L 16,56  L 16,57  L 18,57  L 18,58  L 20,58  L 20,59  L 24,59  L 24,60  L 33,60  L 33,62  L 32,62  L 32,77  L 31,77  L 31,78  L 20,78  L 20,79  L 14,79  L 14,80  L 10,80  L 10,81  L 9,81  L 9,80  L 8,80  L 8,81  L 3,81  L 3,82  L 1,82  L 1,84  L 0,84  L 0,85  L 1,85  L 1,86  L 2,86  L 2,87  L 5,87  L 5,86  L 10,86  L 10,85  L 15,85  L 15,84  L 24,84  L 24,83  L 32,83  L 32,82  L 49,82  L 49,81  L 50,81  L 50,82  L 51,82  L 51,81  L 62,81  L 62,82  L 63,82  L 63,81  L 66,81  L 66,80  L 67,80  L 67,76  L 66,76  L 66,75  L 64,75  L 64,74  L 60,74  L 60,75  L 53,75  L 53,76  L 41,76  L 41,77  L 39,77  L 39,76  L 38,76  L 38,65  L 39,65  L 39,61  L 40,61  L 40,59  L 41,59  L 41,58  L 42,58  L 42,57  L 45,57  L 45,56  L 46,56  L 46,55  L 48,55  L 48,54  L 49,54  L 49,53  L 51,53  L 51,52  L 52,52  L 52,51  L 53,51  L 53,50  L 54,50  L 54,49  L 55,49  L 55,48  L 56,48  L 56,46  L 57,46  L 57,42  L 58,42  L 58,39  L 59,39  L 59,25  L 58,25  L 58,22  L 57,22  L 57,19  L 56,19  L 56,16  L 55,16  L 55,14  L 53,14  L 53,13  L 52,13  L 52,12  L 51,12  L 51,10  L 49,10  L 49,9  L 46,9  L 46,8  L 43,8  L 43,7  L 42,7  L 42,8  L 41,8  L 41,7  L 38,7  L 38,8  L 35,8  L 35,7  L 34,7  L 34,8  L 25,8  L 25,9  L 24,9  L 24,10  L 23,10  L 23,11  L 22,11  L 22,12  L 21,12  L 21,13  L 20,13  L 20,14  L 19,14  L 19,15  L 18,15  L 18,16  L 17,16  L 17,18  L 16,18  L 16,19  L 15,19  L 15,20  L 14,20  L 14,23  L 13,23  L 13,26  L 12,26  L 12,28  L 11,28  L 11,30  L 10,30  L 10,34  L 9,34  Z  " style="fill:rgb(0, 0, 0); fill-opacity:1.000; stroke:none;" />
 <path d="  M 52,128  L 53,128  L 53,127  L 54,127  L 54,126  L 55,126  L 55,124  L 56,124  L 56,122  L 57,122  L 57,120  L 58,120  L 58,119  L 59,119  L 59,118  L 60,118  L 60,117  L 62,117  L 62,118  L 63,118  L 63,119  L 64,119  L 64,120  L 65,120  L 65,121  L 66,121  L 66,122  L 67,122  L 67,123  L 68,123  L 68,124  L 70,124  L 70,125  L 71,125  L 71,126  L 73,126  L 73,128  L 75,128  L 75,129  L 77,129  L 77,130  L 79,130  L 79,131  L 81,131  L 81,132  L 83,132  L 83,133  L 85,133  L 85,134  L 88,134  L 88,135  L 89,135  L 89,136  L 91,136  L 91,137  L 94,137  L 94,138  L 98,138  L 98,139  L 100,139  L 100,140  L 102,140  L 102,141  L 104,141  L 104,142  L 106,142  L 106,143  L 109,143  L 109,142  L 112,142  L 112,141  L 113,141  L 113,139  L 112,139  L 112,138  L 111,138  L 111,137  L 110,137  L 110,136  L 109,136  L 109,135  L 106,135  L 106,134  L 104,134  L 104,133  L 102,133  L 102,132  L 98,132  L 98,131  L 94,131  L 94,130  L 92,130  L 92,129  L 91,129  L 91,128  L 89,128  L 89,127  L 86,127  L 86,126  L 85,126  L 85,125  L 83,125  L 83,124  L 81,124  L 81,123  L 79,123  L 79,122  L 77,122  L 77,120  L 75,120  L 75,119  L 73,119  L 73,118  L 72,118  L 72,117  L 71,117  L 71,116  L 70,116  L 70,115  L 69,115  L 69,114  L 68,114  L 68,113  L 67,113  L 67,112  L 66,112  L 66,110  L 65,110  L 65,109  L 66,109  L 66,107  L 68,107  L 68,106  L 69,106  L 69,105  L 70,105  L 70,104  L 71,104  L 71,103  L 72,103  L 72,102  L 73,102  L 73,101  L 74,101  L 74,100  L 75,100  L 75,98  L 70,98  L 70,99  L 67,99  L 67,100  L 66,100  L 66,101  L 64,101  L 64,102  L 62,102  L 62,103  L 61,103  L 61,105  L 59,105  L 59,106  L 58,106  L 58,108  L 57,108  L 57,110  L 56,110  L 56,111  L 55,111  L 55,113  L 54,113  L 54,115  L 53,115  L 53,116  L 52,116  L 52,117  L 51,117  L 51,119  L 50,119  L 50,120  L 49,120  L 49,122  L 48,122  L 48,123  L 47,123  L 47,124  L 46,124  L 46,126  L 45,126  L 45,128  L 44,128  L 44,129  L 43,129  L 43,130  L 42,130  L 42,132  L 41,132  L 41,133  L 40,133  L 40,135  L 39,135  L 39,136  L 38,136  L 38,138  L 37,138  L 37,139  L 36,139  L 36,140  L 35,140  L 35,141  L 34,141  L 34,142  L 33,142  L 33,144  L 32,144  L 32,145  L 31,145  L 31,148  L 30,148  L 30,149  L 31,149  L 31,150  L 32,150  L 32,151  L 37,151  L 37,150  L 38,150  L 38,148  L 39,148  L 39,146  L 41,146  L 41,144  L 42,144  L 42,143  L 43,143  L 43,141  L 44,141  L 44,140  L 45,140  L 45,138  L 46,138  L 46,137  L 47,137  L 47,135  L 48,135  L 48,134  L 49,134  L 49,133  L 50,133  L 50,132  L 51,132  L 51,130  L 52,130  Z  " style="fill:rgb(0, 0, 0); fill-opacity:1.000; stroke:none;" />
 <path d="  M 77,22  L 76,22  L 76,23  L 77,23  L 77,26  L 76,26  L 76,27  L 77,27  L 77,29  L 76,29  L 76,31  L 77,31  L 77,33  L 76,33  L 76,35  L 77,35  L 77,37  L 76,37  L 76,39  L 77,39  L 77,52  L 78,52  L 78,61  L 77,61  L 77,62  L 78,62  L 78,63  L 77,63  L 77,74  L 76,74  L 76,92  L 79,92  L 79,91  L 80,91  L 80,90  L 82,90  L 82,88  L 83,88  L 83,72  L 84,72  L 84,65  L 85,65  L 85,63  L 86,63  L 86,62  L 85,62  L 85,59  L 86,59  L 86,58  L 85,58  L 85,57  L 86,57  L 86,56  L 85,56  L 85,55  L 86,55  L 86,46  L 87,46  L 87,45  L 97,45  L 97,44  L 98,44  L 98,45  L 99,45  L 99,44  L 102,44  L 102,45  L 103,45  L 103,49  L 104,49  L 104,60  L 105,60  L 105,62  L 104,62  L 104,63  L 105,63  L 105,74  L 106,74  L 106,91  L 107,91  L 107,95  L 110,95  L 110,93  L 112,93  L 112,92  L 113,92  L 113,68  L 112,68  L 112,67  L 113,67  L 113,66  L 112,66  L 112,48  L 111,48  L 111,47  L 112,47  L 112,46  L 111,46  L 111,38  L 110,38  L 110,28  L 109,28  L 109,18  L 108,18  L 108,7  L 107,7  L 107,6  L 102,6  L 102,17  L 103,17  L 103,20  L 102,20  L 102,21  L 103,21  L 103,36  L 102,36  L 102,37  L 87,37  L 87,38  L 86,38  L 86,37  L 85,37  L 85,36  L 84,36  L 84,30  L 83,30  L 83,27  L 84,27  L 84,26  L 83,26  L 83,23  L 84,23  L 84,22  L 83,22  L 83,2  L 81,2  L 81,0  L 78,0  L 78,1  L 77,1  L 77,2  L 76,2  L 76,3  L 77,3  L 77,4  L 76,4  L 76,5  L 77,5  L 77,6  L 76,6  L 76,7  L 77,7  L 77,8  L 76,8  L 76,9  L 77,9  L 77,10  L 76,10  L 76,11  L 77,11  L 77,14  L 76,14  L 76,15  L 77,15  L 77,18  L 76,18  L 76,19  L 77,19  Z  " style="fill:rgb(0, 0, 0); fill-opacity:1.000; stroke:none;" />
</svg>
