<?xml version="1.0" encoding="UTF-8" standalone="no"?>
<!DOCTYPE svg PUBLIC "-//W3C//DTD SVG 1.1//EN" 
  "http://www.w3.org/Graphics/SVG/1.1/DTD/svg11.dtd">
<svg width="104" height="158"
     xmlns="http://www.w3.org/2000/svg" version="1.1">
 <path d="  M 52,87  L 52,88  L 53,88  L 53,87  L 56,87  L 56,88  L 57,88  L 57,87  L 60,87  L 60,88  L 61,88  L 61,87  L 64,87  L 64,88  L 65,88  L 65,87  L 84,87  L 84,86  L 85,86  L 85,81  L 84,81  L 84,80  L 83,80  L 83,79  L 77,79  L 77,80  L 74,80  L 74,79  L 73,79  L 73,80  L 65,80  L 65,81  L 63,81  L 63,80  L 62,80  L 62,81  L 60,81  L 60,80  L 49,80  L 49,79  L 48,79  L 48,60  L 49,60  L 49,59  L 52,59  L 52,58  L 55,58  L 55,57  L 58,57  L 58,56  L 61,56  L 61,55  L 62,55  L 62,54  L 65,54  L 65,53  L 66,53  L 66,52  L 67,52  L 67,50  L 69,50  L 69,48  L 70,48  L 70,46  L 71,46  L 71,44  L 72,44  L 72,42  L 73,42  L 73,36  L 74,36  L 74,24  L 73,24  L 73,21  L 72,21  L 72,19  L 71,19  L 71,18  L 70,18  L 70,17  L 69,17  L 69,16  L 68,16  L 68,15  L 67,15  L 67,14  L 66,14  L 66,13  L 64,13  L 64,12  L 63,12  L 63,11  L 61,11  L 61,10  L 58,10  L 58,9  L 57,9  L 57,8  L 51,8  L 51,7  L 47,7  L 47,6  L 42,6  L 42,5  L 36,5  L 36,6  L 35,6  L 35,7  L 34,7  L 34,8  L 33,8  L 33,9  L 32,9  L 32,10  L 31,10  L 31,11  L 29,11  L 29,13  L 28,13  L 28,14  L 27,14  L 27,16  L 25,16  L 25,17  L 24,17  L 24,18  L 23,18  L 23,19  L 22,19  L 22,20  L 21,20  L 21,21  L 20,21  L 20,23  L 19,23  L 19,24  L 18,24  L 18,26  L 17,26  L 17,27  L 16,27  L 16,29  L 15,29  L 15,32  L 14,32  L 14,35  L 13,35  L 13,46  L 14,46  L 14,49  L 15,49  L 15,50  L 16,50  L 16,52  L 18,52  L 18,53  L 19,53  L 19,54  L 20,54  L 20,55  L 22,55  L 22,57  L 23,57  L 23,56  L 24,56  L 24,57  L 26,57  L 26,58  L 27,58  L 27,59  L 28,59  L 28,58  L 29,58  L 29,59  L 30,59  L 30,60  L 35,60  L 35,61  L 38,61  L 38,60  L 40,60  L 40,61  L 41,61  L 41,77  L 40,77  L 40,80  L 37,80  L 37,79  L 32,79  L 32,80  L 23,80  L 23,81  L 11,81  L 11,82  L 3,82  L 3,83  L 1,83  L 1,84  L 0,84  L 0,87  L 1,87  L 1,89  L 3,89  L 3,90  L 4,90  L 4,89  L 7,89  L 7,88  L 14,88  L 14,87  L 15,87  L 15,88  L 17,88  L 17,87  L 20,87  L 20,88  L 21,88  L 21,87  Z  M 22,47  L 22,46  L 21,46  L 21,43  L 20,43  L 20,39  L 21,39  L 21,34  L 22,34  L 22,32  L 23,32  L 23,30  L 24,30  L 24,29  L 25,29  L 25,28  L 26,28  L 26,26  L 27,26  L 27,25  L 28,25  L 28,23  L 29,23  L 29,22  L 30,22  L 30,21  L 31,21  L 31,20  L 32,20  L 32,19  L 33,19  L 33,18  L 34,18  L 34,17  L 35,17  L 35,16  L 36,16  L 36,15  L 37,15  L 37,14  L 45,14  L 45,15  L 51,15  L 51,16  L 54,16  L 54,17  L 57,17  L 57,18  L 60,18  L 60,19  L 62,19  L 62,20  L 64,20  L 64,22  L 65,22  L 65,24  L 66,24  L 66,26  L 67,26  L 67,27  L 66,27  L 66,28  L 67,28  L 67,29  L 66,29  L 66,32  L 67,32  L 67,33  L 66,33  L 66,35  L 65,35  L 65,36  L 66,36  L 66,39  L 65,39  L 65,41  L 64,41  L 64,43  L 63,43  L 63,45  L 62,45  L 62,46  L 61,46  L 61,47  L 60,47  L 60,48  L 58,48  L 58,49  L 56,49  L 56,50  L 54,50  L 54,51  L 51,51  L 51,52  L 48,52  L 48,53  L 46,53  L 46,54  L 43,54  L 43,53  L 42,53  L 42,54  L 41,54  L 41,53  L 33,53  L 33,52  L 30,52  L 30,51  L 28,51  L 28,50  L 26,50  L 26,49  L 25,49  L 25,48  L 24,48  L 24,47  Z  " style="fill:rgb(0, 0, 0); fill-opacity:1.000; stroke:none;" />
 <path d="  M 93,124  L 92,124  L 92,133  L 91,133  L 91,134  L 92,134  L 92,137  L 91,137  L 91,143  L 90,143  L 90,147  L 88,147  L 88,148  L 85,148  L 85,149  L 83,149  L 83,150  L 78,150  L 78,151  L 71,151  L 71,152  L 70,152  L 70,151  L 69,151  L 69,152  L 66,152  L 66,151  L 65,151  L 65,152  L 57,152  L 57,153  L 55,153  L 55,152  L 54,152  L 54,153  L 53,153  L 53,152  L 51,152  L 51,151  L 49,151  L 49,149  L 48,149  L 48,145  L 47,145  L 47,144  L 48,144  L 48,143  L 47,143  L 47,115  L 48,115  L 48,114  L 56,114  L 56,113  L 66,113  L 66,112  L 67,112  L 67,113  L 68,113  L 68,112  L 78,112  L 78,111  L 79,111  L 79,112  L 81,112  L 81,111  L 83,111  L 83,112  L 88,112  L 88,113  L 90,113  L 90,114  L 92,114  L 92,115  L 93,115  Z  M 59,107  L 48,107  L 48,106  L 46,106  L 46,105  L 44,105  L 44,104  L 41,104  L 41,105  L 37,105  L 37,106  L 33,106  L 33,107  L 30,107  L 30,109  L 29,109  L 29,113  L 30,113  L 30,114  L 31,114  L 31,115  L 37,115  L 37,114  L 39,114  L 39,115  L 40,115  L 40,117  L 41,117  L 41,118  L 40,118  L 40,119  L 41,119  L 41,120  L 40,120  L 40,122  L 41,122  L 41,123  L 40,123  L 40,132  L 41,132  L 41,133  L 40,133  L 40,136  L 41,136  L 41,137  L 40,137  L 40,138  L 41,138  L 41,139  L 40,139  L 40,140  L 41,140  L 41,150  L 42,150  L 42,153  L 43,153  L 43,155  L 44,155  L 44,156  L 45,156  L 45,157  L 47,157  L 47,158  L 73,158  L 73,157  L 78,157  L 78,156  L 84,156  L 84,155  L 86,155  L 86,154  L 89,154  L 89,153  L 91,153  L 91,152  L 93,152  L 93,151  L 94,151  L 94,150  L 95,150  L 95,149  L 96,149  L 96,146  L 97,146  L 97,137  L 98,137  L 98,127  L 99,127  L 99,120  L 100,120  L 100,119  L 99,119  L 99,117  L 100,117  L 100,115  L 99,115  L 99,111  L 98,111  L 98,109  L 97,109  L 97,108  L 96,108  L 96,107  L 93,107  L 93,106  L 90,106  L 90,105  L 80,105  L 80,104  L 79,104  L 79,105  L 67,105  L 67,106  L 59,106  Z  " style="fill:rgb(0, 0, 0); fill-opacity:1.000; stroke:none;" />
 <path d="  M 104,15  L 103,15  L 103,7  L 102,7  L 102,5  L 103,5  L 103,4  L 102,4  L 102,3  L 101,3  L 101,2  L 100,2  L 100,0  L 97,0  L 97,1  L 96,1  L 96,2  L 95,2  L 95,7  L 96,7  L 96,16  L 97,16  L 97,24  L 98,24  L 98,97  L 99,97  L 99,99  L 100,99  L 100,100  L 103,100  L 103,99  L 104,99  Z  " style="fill:rgb(0, 0, 0); fill-opacity:1.000; stroke:none;" />
</svg>
