<?xml version="1.0" encoding="UTF-8" standalone="no"?>
<!DOCTYPE svg PUBLIC "-//W3C//DTD SVG 1.1//EN" 
  "http://www.w3.org/Graphics/SVG/1.1/DTD/svg11.dtd">
<svg width="102" height="181"
     xmlns="http://www.w3.org/2000/svg" version="1.1">
 <path d="  M 28,33  L 28,32  L 29,32  L 29,30  L 30,30  L 30,29  L 31,29  L 31,27  L 32,27  L 32,26  L 33,26  L 33,24  L 34,24  L 34,23  L 35,23  L 35,22  L 36,22  L 36,20  L 37,20  L 37,19  L 38,19  L 38,17  L 39,17  L 39,16  L 41,16  L 41,15  L 42,15  L 42,13  L 45,13  L 45,12  L 46,12  L 46,11  L 48,11  L 48,10  L 50,10  L 50,9  L 53,9  L 53,8  L 54,8  L 54,9  L 55,9  L 55,8  L 64,8  L 64,9  L 68,9  L 68,10  L 71,10  L 71,11  L 74,11  L 74,12  L 76,12  L 76,13  L 77,13  L 77,14  L 79,14  L 79,15  L 81,15  L 81,18  L 83,18  L 83,21  L 84,21  L 84,30  L 82,30  L 82,32  L 81,32  L 81,34  L 80,34  L 80,36  L 79,36  L 79,38  L 78,38  L 78,39  L 77,39  L 77,40  L 76,40  L 76,42  L 75,42  L 75,43  L 73,43  L 73,44  L 71,44  L 71,45  L 70,45  L 70,46  L 67,46  L 67,47  L 65,47  L 65,48  L 62,48  L 62,49  L 58,49  L 58,50  L 53,50  L 53,51  L 37,51  L 37,50  L 35,50  L 35,49  L 32,49  L 32,48  L 31,48  L 31,47  L 29,47  L 29,46  L 27,46  L 27,45  L 25,45  L 25,43  L 24,43  L 24,41  L 23,41  L 23,39  L 24,39  L 24,36  L 25,36  L 25,35  L 26,35  L 26,34  L 27,34  L 27,33  Z  M 35,96  L 36,96  L 36,98  L 30,98  L 30,99  L 29,99  L 29,98  L 28,98  L 28,99  L 19,99  L 19,100  L 14,100  L 14,101  L 13,101  L 13,100  L 12,100  L 12,101  L 9,101  L 9,102  L 2,102  L 2,103  L 0,103  L 0,107  L 1,107  L 1,108  L 2,108  L 2,109  L 5,109  L 5,110  L 7,110  L 7,111  L 9,111  L 9,110  L 10,110  L 10,109  L 13,109  L 13,108  L 15,108  L 15,109  L 16,109  L 16,108  L 21,108  L 21,107  L 27,107  L 27,106  L 37,106  L 37,105  L 39,105  L 39,106  L 40,106  L 40,105  L 64,105  L 64,104  L 67,104  L 67,105  L 68,105  L 68,104  L 73,104  L 73,103  L 83,103  L 83,102  L 97,102  L 97,101  L 99,101  L 99,100  L 100,100  L 100,99  L 101,99  L 101,98  L 102,98  L 102,93  L 101,93  L 101,92  L 96,92  L 96,93  L 92,93  L 92,94  L 83,94  L 83,95  L 81,95  L 81,94  L 78,94  L 78,95  L 77,95  L 77,96  L 76,96  L 76,95  L 75,95  L 75,94  L 74,94  L 74,86  L 73,86  L 73,85  L 74,85  L 74,84  L 73,84  L 73,83  L 74,83  L 74,82  L 73,82  L 73,72  L 72,72  L 72,62  L 71,62  L 71,59  L 72,59  L 72,55  L 74,55  L 74,54  L 75,54  L 75,53  L 76,53  L 76,52  L 78,52  L 78,51  L 80,51  L 80,50  L 81,50  L 81,49  L 82,49  L 82,48  L 83,48  L 83,46  L 84,46  L 84,44  L 85,44  L 85,43  L 86,43  L 86,41  L 87,41  L 87,39  L 88,39  L 88,37  L 89,37  L 89,35  L 90,35  L 90,33  L 91,33  L 91,30  L 92,30  L 92,22  L 93,22  L 93,21  L 92,21  L 92,18  L 91,18  L 91,15  L 90,15  L 90,14  L 88,14  L 88,12  L 87,12  L 87,11  L 86,11  L 86,10  L 85,10  L 85,9  L 84,9  L 84,8  L 82,8  L 82,7  L 80,7  L 80,6  L 78,6  L 78,5  L 76,5  L 76,4  L 74,4  L 74,3  L 70,3  L 70,2  L 67,2  L 67,1  L 56,1  L 56,0  L 55,0  L 55,1  L 47,1  L 47,2  L 44,2  L 44,3  L 42,3  L 42,4  L 41,4  L 41,5  L 40,5  L 40,6  L 39,6  L 39,7  L 37,7  L 37,8  L 36,8  L 36,9  L 35,9  L 35,10  L 34,10  L 34,11  L 33,11  L 33,12  L 32,12  L 32,14  L 31,14  L 31,16  L 30,16  L 30,17  L 29,17  L 29,19  L 28,19  L 28,21  L 27,21  L 27,22  L 26,22  L 26,24  L 25,24  L 25,25  L 24,25  L 24,26  L 23,26  L 23,28  L 22,28  L 22,29  L 21,29  L 21,30  L 20,30  L 20,32  L 19,32  L 19,33  L 18,33  L 18,34  L 17,34  L 17,36  L 16,36  L 16,38  L 15,38  L 15,41  L 16,41  L 16,43  L 17,43  L 17,45  L 18,45  L 18,46  L 19,46  L 19,48  L 21,48  L 21,49  L 22,49  L 22,50  L 23,50  L 23,51  L 25,51  L 25,52  L 26,52  L 26,53  L 28,53  L 28,55  L 30,55  L 30,56  L 32,56  L 32,57  L 33,57  L 33,58  L 35,58  L 35,59  L 36,59  L 36,61  L 37,61  L 37,67  L 36,67  L 36,69  L 37,69  L 37,70  L 36,70  L 36,90  L 35,90  Z  M 61,97  L 61,96  L 60,96  L 60,97  L 57,97  L 57,96  L 56,96  L 56,97  L 53,97  L 53,96  L 52,96  L 52,97  L 49,97  L 49,96  L 48,96  L 48,97  L 42,97  L 42,94  L 43,94  L 43,77  L 44,77  L 44,76  L 43,76  L 43,74  L 44,74  L 44,72  L 43,72  L 43,70  L 44,70  L 44,67  L 43,67  L 43,66  L 44,66  L 44,61  L 45,61  L 45,60  L 47,60  L 47,59  L 48,59  L 48,60  L 49,60  L 49,59  L 57,59  L 57,58  L 64,58  L 64,57  L 65,57  L 65,59  L 66,59  L 66,62  L 65,62  L 65,67  L 66,67  L 66,68  L 65,68  L 65,70  L 66,70  L 66,94  L 67,94  L 67,95  L 66,95  L 66,96  L 64,96  L 64,97  Z  " style="fill:rgb(0, 0, 0); fill-opacity:1.000; stroke:none;" />
 <path d="  M 24,135  L 24,136  L 27,136  L 27,135  L 33,135  L 33,134  L 44,134  L 44,133  L 57,133  L 57,132  L 59,132  L 59,133  L 60,133  L 60,132  L 71,132  L 71,133  L 73,133  L 73,134  L 74,134  L 74,135  L 75,135  L 75,142  L 74,142  L 74,148  L 73,148  L 73,157  L 72,157  L 72,166  L 71,166  L 71,167  L 72,167  L 72,169  L 71,169  L 71,179  L 72,179  L 72,181  L 79,181  L 79,179  L 80,179  L 80,173  L 79,173  L 79,171  L 80,171  L 80,161  L 81,161  L 81,155  L 82,155  L 82,154  L 81,154  L 81,153  L 82,153  L 82,149  L 83,149  L 83,143  L 84,143  L 84,137  L 85,137  L 85,136  L 84,136  L 84,134  L 85,134  L 85,133  L 84,133  L 84,131  L 83,131  L 83,130  L 82,130  L 82,129  L 81,129  L 81,127  L 79,127  L 79,126  L 77,126  L 77,124  L 74,124  L 74,123  L 59,123  L 59,124  L 58,124  L 58,123  L 57,123  L 57,124  L 56,124  L 56,123  L 55,123  L 55,124  L 44,124  L 44,125  L 41,125  L 41,124  L 40,124  L 40,125  L 37,125  L 37,126  L 31,126  L 31,127  L 20,127  L 20,128  L 19,128  L 19,129  L 18,129  L 18,131  L 19,131  L 19,133  L 21,133  L 21,134  L 22,134  L 22,135  Z  " style="fill:rgb(0, 0, 0); fill-opacity:1.000; stroke:none;" />
</svg>
