<?xml version="1.0" encoding="UTF-8" standalone="no"?>
<!DOCTYPE svg PUBLIC "-//W3C//DTD SVG 1.1//EN" 
  "http://www.w3.org/Graphics/SVG/1.1/DTD/svg11.dtd">
<svg width="108" height="169"
     xmlns="http://www.w3.org/2000/svg" version="1.1">
 <path d="  M 71,112  L 71,113  L 70,113  L 70,112  L 68,112  L 68,113  L 66,113  L 66,112  L 65,112  L 65,113  L 61,113  L 61,114  L 57,114  L 57,115  L 56,115  L 56,114  L 55,114  L 55,115  L 54,115  L 54,114  L 52,114  L 52,115  L 51,115  L 51,116  L 48,116  L 48,117  L 42,117  L 42,116  L 41,116  L 41,115  L 37,115  L 37,114  L 34,114  L 34,113  L 30,113  L 30,112  L 13,112  L 13,113  L 10,113  L 10,112  L 9,112  L 9,113  L 7,113  L 7,119  L 8,119  L 8,123  L 9,123  L 9,124  L 13,124  L 13,123  L 15,123  L 15,121  L 18,121  L 18,120  L 20,120  L 20,119  L 30,119  L 30,120  L 33,120  L 33,121  L 35,121  L 35,122  L 36,122  L 36,125  L 35,125  L 35,129  L 34,129  L 34,130  L 33,130  L 33,132  L 31,132  L 31,133  L 29,133  L 29,134  L 26,134  L 26,135  L 22,135  L 22,136  L 20,136  L 20,137  L 16,137  L 16,138  L 12,138  L 12,139  L 10,139  L 10,140  L 5,140  L 5,141  L 4,141  L 4,142  L 3,142  L 3,143  L 2,143  L 2,144  L 1,144  L 1,150  L 0,150  L 0,151  L 1,151  L 1,155  L 2,155  L 2,159  L 3,159  L 3,161  L 4,161  L 4,163  L 6,163  L 6,164  L 5,164  L 5,165  L 7,165  L 7,166  L 8,166  L 8,167  L 9,167  L 9,168  L 11,168  L 11,169  L 40,169  L 40,168  L 44,168  L 44,167  L 47,167  L 47,166  L 49,166  L 49,165  L 54,165  L 54,164  L 55,164  L 55,163  L 56,163  L 56,161  L 57,161  L 57,159  L 56,159  L 56,154  L 53,154  L 53,155  L 51,155  L 51,156  L 49,156  L 49,157  L 48,157  L 48,158  L 46,158  L 46,159  L 45,159  L 45,160  L 41,160  L 41,161  L 39,161  L 39,162  L 33,162  L 33,163  L 15,163  L 15,162  L 13,162  L 13,161  L 11,161  L 11,160  L 10,160  L 10,159  L 9,159  L 9,156  L 8,156  L 8,150  L 9,150  L 9,147  L 12,147  L 12,145  L 16,145  L 16,144  L 17,144  L 17,145  L 18,145  L 18,144  L 20,144  L 20,143  L 24,143  L 24,142  L 29,142  L 29,141  L 34,141  L 34,140  L 36,140  L 36,139  L 38,139  L 38,137  L 39,137  L 39,135  L 40,135  L 40,133  L 41,133  L 41,130  L 42,130  L 42,128  L 43,128  L 43,127  L 44,127  L 44,124  L 45,124  L 45,121  L 46,121  L 46,120  L 52,120  L 52,121  L 53,121  L 53,120  L 55,120  L 55,121  L 56,121  L 56,120  L 57,120  L 57,121  L 59,121  L 59,127  L 60,127  L 60,137  L 61,137  L 61,143  L 62,143  L 62,145  L 61,145  L 61,147  L 62,147  L 62,163  L 63,163  L 63,165  L 68,165  L 68,164  L 86,164  L 86,163  L 90,163  L 90,162  L 93,162  L 93,161  L 97,161  L 97,160  L 98,160  L 98,159  L 100,159  L 100,158  L 101,158  L 101,157  L 102,157  L 102,155  L 103,155  L 103,152  L 104,152  L 104,148  L 105,148  L 105,145  L 106,145  L 106,143  L 107,143  L 107,139  L 108,139  L 108,138  L 107,138  L 107,137  L 108,137  L 108,120  L 107,120  L 107,119  L 106,119  L 106,117  L 105,117  L 105,116  L 104,116  L 104,115  L 103,115  L 103,114  L 101,114  L 101,113  L 90,113  L 90,112  L 89,112  L 89,113  L 85,113  L 85,112  L 83,112  L 83,113  L 82,113  L 82,112  L 79,112  L 79,113  L 78,113  L 78,112  L 75,112  L 75,113  L 74,113  L 74,112  Z  M 68,134  L 67,134  L 67,122  L 68,122  L 68,121  L 98,121  L 98,122  L 99,122  L 99,123  L 100,123  L 100,132  L 99,132  L 99,133  L 100,133  L 100,134  L 99,134  L 99,138  L 98,138  L 98,144  L 97,144  L 97,146  L 96,146  L 96,148  L 95,148  L 95,151  L 94,151  L 94,153  L 93,153  L 93,155  L 91,155  L 91,156  L 88,156  L 88,157  L 84,157  L 84,158  L 72,158  L 72,159  L 70,159  L 70,158  L 69,158  L 69,157  L 68,157  L 68,149  L 69,149  L 69,148  L 68,148  L 68,143  L 69,143  L 69,142  L 68,142  Z  " style="fill:rgb(0, 0, 0); fill-opacity:1.000; stroke:none;" />
 <path d="  M 4,81  L 7,81  L 7,82  L 10,82  L 10,81  L 18,81  L 18,80  L 28,80  L 28,79  L 34,79  L 34,78  L 35,78  L 35,79  L 37,79  L 37,78  L 45,78  L 45,77  L 49,77  L 49,76  L 51,76  L 51,93  L 50,93  L 50,94  L 51,94  L 51,101  L 52,101  L 52,105  L 53,105  L 53,106  L 54,106  L 54,107  L 59,107  L 59,106  L 60,106  L 60,104  L 59,104  L 59,98  L 58,98  L 58,97  L 59,97  L 59,96  L 58,96  L 58,91  L 59,91  L 59,90  L 58,90  L 58,89  L 59,89  L 59,88  L 58,88  L 58,87  L 59,87  L 59,86  L 58,86  L 58,83  L 59,83  L 59,82  L 58,82  L 58,79  L 59,79  L 59,78  L 58,78  L 58,76  L 59,76  L 59,74  L 60,74  L 60,73  L 63,73  L 63,74  L 64,74  L 64,73  L 66,73  L 66,74  L 67,74  L 67,73  L 76,73  L 76,72  L 102,72  L 102,71  L 104,71  L 104,69  L 105,69  L 105,63  L 104,63  L 104,62  L 101,62  L 101,63  L 97,63  L 97,64  L 93,64  L 93,65  L 91,65  L 91,64  L 90,64  L 90,65  L 87,65  L 87,64  L 86,64  L 86,65  L 81,65  L 81,66  L 80,66  L 80,65  L 78,65  L 78,66  L 66,66  L 66,67  L 59,67  L 59,68  L 58,68  L 58,67  L 57,67  L 57,68  L 53,68  L 53,69  L 49,69  L 49,70  L 42,70  L 42,71  L 35,71  L 35,72  L 26,72  L 26,73  L 16,73  L 16,74  L 9,74  L 9,75  L 5,75  L 5,76  L 4,76  Z  " style="fill:rgb(0, 0, 0); fill-opacity:1.000; stroke:none;" />
 <path d="  M 28,33  L 28,32  L 29,32  L 29,30  L 30,30  L 30,29  L 31,29  L 31,28  L 32,28  L 32,27  L 33,27  L 33,26  L 34,26  L 34,25  L 36,25  L 36,24  L 37,24  L 37,22  L 38,22  L 38,21  L 39,21  L 39,20  L 41,20  L 41,18  L 42,18  L 42,17  L 44,17  L 44,16  L 45,16  L 45,15  L 46,15  L 46,14  L 49,14  L 49,13  L 52,13  L 52,12  L 55,12  L 55,11  L 60,11  L 60,10  L 61,10  L 61,11  L 64,11  L 64,10  L 65,10  L 65,11  L 71,11  L 71,12  L 72,12  L 72,11  L 73,11  L 73,12  L 75,12  L 75,13  L 78,13  L 78,14  L 81,14  L 81,15  L 82,15  L 82,16  L 83,16  L 83,17  L 84,17  L 84,19  L 85,19  L 85,28  L 84,28  L 84,30  L 83,30  L 83,31  L 82,31  L 82,33  L 81,33  L 81,34  L 80,34  L 80,36  L 79,36  L 79,37  L 78,37  L 78,38  L 77,38  L 77,39  L 76,39  L 76,40  L 74,40  L 74,41  L 73,41  L 73,42  L 71,42  L 71,43  L 70,43  L 70,44  L 68,44  L 68,45  L 66,45  L 66,46  L 65,46  L 65,47  L 63,47  L 63,48  L 62,48  L 62,49  L 60,49  L 60,50  L 57,50  L 57,51  L 55,51  L 55,52  L 50,52  L 50,53  L 49,53  L 49,52  L 48,52  L 48,53  L 47,53  L 47,52  L 46,52  L 46,53  L 39,53  L 39,52  L 34,52  L 34,51  L 32,51  L 32,50  L 30,50  L 30,48  L 29,48  L 29,47  L 27,47  L 27,46  L 26,46  L 26,45  L 25,45  L 25,44  L 24,44  L 24,37  L 25,37  L 25,35  L 26,35  L 26,34  L 27,34  L 27,33  Z  M 83,7  L 81,7  L 81,6  L 78,6  L 78,5  L 76,5  L 76,4  L 72,4  L 72,3  L 64,3  L 64,2  L 55,2  L 55,1  L 50,1  L 50,2  L 47,2  L 47,3  L 46,3  L 46,4  L 45,4  L 45,5  L 44,5  L 44,6  L 43,6  L 43,7  L 42,7  L 42,8  L 41,8  L 41,9  L 40,9  L 40,10  L 39,10  L 39,11  L 38,11  L 38,12  L 36,12  L 36,13  L 35,13  L 35,15  L 34,15  L 34,16  L 33,16  L 33,17  L 32,17  L 32,18  L 31,18  L 31,19  L 30,19  L 30,20  L 29,20  L 29,21  L 28,21  L 28,22  L 27,22  L 27,23  L 26,23  L 26,24  L 25,24  L 25,25  L 24,25  L 24,26  L 23,26  L 23,27  L 22,27  L 22,28  L 21,28  L 21,29  L 20,29  L 20,30  L 19,30  L 19,31  L 18,31  L 18,33  L 17,33  L 17,34  L 16,34  L 16,36  L 15,36  L 15,41  L 16,41  L 16,44  L 17,44  L 17,47  L 18,47  L 18,48  L 19,48  L 19,49  L 20,49  L 20,50  L 21,50  L 21,51  L 22,51  L 22,52  L 24,52  L 24,53  L 25,53  L 25,54  L 26,54  L 26,55  L 28,55  L 28,57  L 31,57  L 31,58  L 33,58  L 33,59  L 35,59  L 35,60  L 50,60  L 50,59  L 51,59  L 51,60  L 52,60  L 52,59  L 57,59  L 57,58  L 60,58  L 60,57  L 62,57  L 62,56  L 65,56  L 65,55  L 66,55  L 66,54  L 68,54  L 68,52  L 70,52  L 70,51  L 73,51  L 73,50  L 75,50  L 75,49  L 77,49  L 77,48  L 78,48  L 78,47  L 80,47  L 80,46  L 81,46  L 81,45  L 82,45  L 82,43  L 83,43  L 83,42  L 84,42  L 84,41  L 85,41  L 85,40  L 86,40  L 86,38  L 87,38  L 87,37  L 88,37  L 88,36  L 89,36  L 89,33  L 90,33  L 90,32  L 91,32  L 91,28  L 92,28  L 92,24  L 93,24  L 93,18  L 92,18  L 92,16  L 91,16  L 91,14  L 90,14  L 90,13  L 89,13  L 89,12  L 88,12  L 88,11  L 87,11  L 87,10  L 86,10  L 86,9  L 85,9  L 85,8  L 83,8  Z  " style="fill:rgb(0, 0, 0); fill-opacity:1.000; stroke:none;" />
</svg>
