<?xml version="1.0" encoding="UTF-8" standalone="no"?>
<!DOCTYPE svg PUBLIC "-//W3C//DTD SVG 1.1//EN" 
  "http://www.w3.org/Graphics/SVG/1.1/DTD/svg11.dtd">
<svg width="105" height="171"
     xmlns="http://www.w3.org/2000/svg" version="1.1">
 <path d="  M 33,111  L 33,110  L 34,110  L 34,108  L 35,108  L 35,107  L 36,107  L 36,106  L 37,106  L 37,103  L 38,103  L 38,102  L 39,102  L 39,101  L 40,101  L 40,100  L 41,100  L 41,95  L 42,95  L 42,89  L 43,89  L 43,88  L 42,88  L 42,87  L 43,87  L 43,81  L 44,81  L 44,80  L 43,80  L 43,77  L 44,77  L 44,76  L 43,76  L 43,73  L 44,73  L 44,69  L 45,69  L 45,68  L 46,68  L 46,67  L 48,67  L 48,68  L 53,68  L 53,67  L 63,67  L 63,66  L 68,66  L 68,65  L 73,65  L 73,64  L 76,64  L 76,63  L 78,63  L 78,62  L 82,62  L 82,61  L 85,61  L 85,60  L 88,60  L 88,61  L 89,61  L 89,62  L 90,62  L 90,60  L 91,60  L 91,57  L 90,57  L 90,56  L 89,56  L 89,55  L 88,55  L 88,54  L 85,54  L 85,53  L 82,53  L 82,54  L 81,54  L 81,55  L 80,55  L 80,56  L 76,56  L 76,57  L 72,57  L 72,58  L 69,58  L 69,59  L 67,59  L 67,60  L 63,60  L 63,61  L 61,61  L 61,60  L 60,60  L 60,61  L 40,61  L 40,62  L 35,62  L 35,63  L 24,63  L 24,64  L 21,64  L 21,63  L 20,63  L 20,64  L 15,64  L 15,65  L 13,65  L 13,64  L 12,64  L 12,65  L 10,65  L 10,66  L 5,66  L 5,67  L 1,67  L 1,68  L 0,68  L 0,71  L 1,71  L 1,72  L 2,72  L 2,73  L 5,73  L 5,72  L 10,72  L 10,71  L 16,71  L 16,70  L 27,70  L 27,69  L 28,69  L 28,70  L 29,70  L 29,69  L 30,69  L 30,70  L 31,70  L 31,69  L 36,69  L 36,70  L 37,70  L 37,75  L 36,75  L 36,87  L 35,87  L 35,94  L 34,94  L 34,98  L 33,98  L 33,100  L 32,100  L 32,101  L 33,101  L 33,102  L 32,102  L 32,104  L 31,104  L 31,109  L 30,109  L 30,110  L 29,110  L 29,111  Z  " style="fill:rgb(0, 0, 0); fill-opacity:1.000; stroke:none;" />
 <path d="  M 51,44  L 51,45  L 48,45  L 48,46  L 43,46  L 43,47  L 42,47  L 42,46  L 41,46  L 41,47  L 38,47  L 38,46  L 37,46  L 37,47  L 34,47  L 34,46  L 30,46  L 30,45  L 28,45  L 28,44  L 25,44  L 25,42  L 24,42  L 24,41  L 22,41  L 22,40  L 21,40  L 21,38  L 20,38  L 20,35  L 19,35  L 19,33  L 20,33  L 20,28  L 21,28  L 21,26  L 22,26  L 22,24  L 23,24  L 23,22  L 24,22  L 24,20  L 25,20  L 25,19  L 26,19  L 26,18  L 27,18  L 27,17  L 28,17  L 28,16  L 29,16  L 29,15  L 30,15  L 30,14  L 32,14  L 32,13  L 33,13  L 33,12  L 34,12  L 34,11  L 36,11  L 36,10  L 40,10  L 40,9  L 45,9  L 45,10  L 47,10  L 47,9  L 48,9  L 48,10  L 54,10  L 54,11  L 56,11  L 56,12  L 58,12  L 58,13  L 61,13  L 61,14  L 62,14  L 62,15  L 63,15  L 63,16  L 64,16  L 64,17  L 65,17  L 65,18  L 66,18  L 66,26  L 65,26  L 65,32  L 64,32  L 64,34  L 63,34  L 63,36  L 62,36  L 62,39  L 61,39  L 61,40  L 60,40  L 60,41  L 58,41  L 58,42  L 57,42  L 57,43  L 55,43  L 55,44  Z  M 55,51  L 55,50  L 58,50  L 58,49  L 60,49  L 60,48  L 61,48  L 61,47  L 64,47  L 64,45  L 66,45  L 66,44  L 67,44  L 67,43  L 68,43  L 68,42  L 69,42  L 69,40  L 70,40  L 70,38  L 71,38  L 71,35  L 72,35  L 72,34  L 71,34  L 71,33  L 72,33  L 72,29  L 73,29  L 73,22  L 74,22  L 74,20  L 73,20  L 73,19  L 74,19  L 74,18  L 73,18  L 73,15  L 72,15  L 72,13  L 71,13  L 71,11  L 69,11  L 69,10  L 68,10  L 68,9  L 66,9  L 66,8  L 65,8  L 65,7  L 63,7  L 63,6  L 61,6  L 61,5  L 58,5  L 58,4  L 56,4  L 56,3  L 53,3  L 53,2  L 45,2  L 45,1  L 36,1  L 36,0  L 35,0  L 35,1  L 33,1  L 33,3  L 31,3  L 31,4  L 30,4  L 30,5  L 29,5  L 29,6  L 28,6  L 28,7  L 27,7  L 27,8  L 26,8  L 26,9  L 25,9  L 25,10  L 24,10  L 24,11  L 23,11  L 23,12  L 22,12  L 22,13  L 21,13  L 21,15  L 20,15  L 20,16  L 19,16  L 19,18  L 18,18  L 18,19  L 17,19  L 17,21  L 16,21  L 16,22  L 15,22  L 15,23  L 14,23  L 14,26  L 13,26  L 13,30  L 12,30  L 12,35  L 13,35  L 13,36  L 12,36  L 12,37  L 13,37  L 13,42  L 14,42  L 14,43  L 15,43  L 15,45  L 17,45  L 17,46  L 18,46  L 18,47  L 19,47  L 19,48  L 21,48  L 21,49  L 23,49  L 23,50  L 24,50  L 24,51  L 26,51  L 26,52  L 30,52  L 30,53  L 34,53  L 34,54  L 44,54  L 44,53  L 49,53  L 49,52  L 52,52  L 52,51  Z  " style="fill:rgb(0, 0, 0); fill-opacity:1.000; stroke:none;" />
 <path d="  M 48,120  L 48,121  L 43,121  L 43,122  L 40,122  L 40,123  L 35,123  L 35,124  L 33,124  L 33,126  L 34,126  L 34,128  L 36,128  L 36,129  L 45,129  L 45,128  L 50,128  L 50,127  L 56,127  L 56,126  L 63,126  L 63,125  L 69,125  L 69,124  L 76,124  L 76,123  L 90,123  L 90,124  L 94,124  L 94,125  L 96,125  L 96,127  L 98,127  L 98,134  L 97,134  L 97,144  L 96,144  L 96,150  L 95,150  L 95,151  L 96,151  L 96,152  L 95,152  L 95,158  L 94,158  L 94,166  L 93,166  L 93,171  L 98,171  L 98,170  L 99,170  L 99,169  L 100,169  L 100,165  L 101,165  L 101,163  L 100,163  L 100,162  L 101,162  L 101,157  L 102,157  L 102,150  L 103,150  L 103,141  L 104,141  L 104,140  L 103,140  L 103,139  L 104,139  L 104,126  L 103,126  L 103,123  L 102,123  L 102,122  L 101,122  L 101,121  L 100,121  L 100,119  L 99,119  L 99,118  L 97,118  L 97,117  L 93,117  L 93,116  L 90,116  L 90,115  L 89,115  L 89,116  L 88,116  L 88,115  L 80,115  L 80,116  L 72,116  L 72,117  L 68,117  L 68,118  L 64,118  L 64,119  L 57,119  L 57,120  Z  " style="fill:rgb(0, 0, 0); fill-opacity:1.000; stroke:none;" />
 <path d="  M 99,31  L 99,46  L 100,46  L 100,48  L 99,48  L 99,49  L 100,49  L 100,52  L 99,52  L 99,54  L 100,54  L 100,56  L 99,56  L 99,58  L 100,58  L 100,60  L 99,60  L 99,62  L 100,62  L 100,63  L 99,63  L 99,66  L 100,66  L 100,67  L 99,67  L 99,70  L 100,70  L 100,71  L 99,71  L 99,76  L 97,76  L 97,75  L 96,75  L 96,74  L 93,74  L 93,73  L 90,73  L 90,74  L 89,74  L 89,73  L 83,73  L 83,74  L 81,74  L 81,75  L 77,75  L 77,76  L 73,76  L 73,77  L 72,77  L 72,76  L 71,76  L 71,77  L 68,77  L 68,78  L 67,78  L 67,79  L 64,79  L 64,80  L 61,80  L 61,81  L 59,81  L 59,83  L 58,83  L 58,85  L 59,85  L 59,86  L 61,86  L 61,85  L 65,85  L 65,84  L 70,84  L 70,83  L 75,83  L 75,82  L 78,82  L 78,81  L 83,81  L 83,80  L 84,80  L 84,81  L 85,81  L 85,80  L 92,80  L 92,81  L 98,81  L 98,83  L 99,83  L 99,84  L 98,84  L 98,85  L 99,85  L 99,86  L 98,86  L 98,87  L 99,87  L 99,90  L 98,90  L 98,91  L 99,91  L 99,92  L 98,92  L 98,93  L 99,93  L 99,94  L 98,94  L 98,95  L 99,95  L 99,96  L 98,96  L 98,97  L 99,97  L 99,98  L 98,98  L 98,109  L 99,109  L 99,111  L 102,111  L 102,110  L 104,110  L 104,106  L 105,106  L 105,22  L 104,22  L 104,12  L 103,12  L 103,6  L 101,6  L 101,5  L 98,5  L 98,6  L 97,6  L 97,15  L 98,15  L 98,27  L 99,27  L 99,30  L 98,30  L 98,31  Z  " style="fill:rgb(0, 0, 0); fill-opacity:1.000; stroke:none;" />
</svg>
