<?xml version="1.0" encoding="UTF-8" standalone="no"?>
<!DOCTYPE svg PUBLIC "-//W3C//DTD SVG 1.1//EN" 
  "http://www.w3.org/Graphics/SVG/1.1/DTD/svg11.dtd">
<svg width="107" height="144"
     xmlns="http://www.w3.org/2000/svg" version="1.1">
 <path d="  M 58,64  L 64,64  L 64,63  L 69,63  L 69,62  L 75,62  L 75,61  L 80,61  L 80,60  L 83,60  L 83,61  L 84,61  L 84,60  L 87,60  L 87,61  L 88,61  L 88,60  L 90,60  L 90,57  L 89,57  L 89,56  L 88,56  L 88,55  L 87,55  L 87,54  L 86,54  L 86,53  L 83,53  L 83,54  L 76,54  L 76,55  L 73,55  L 73,56  L 72,56  L 72,55  L 71,55  L 71,56  L 67,56  L 67,57  L 62,57  L 62,58  L 56,58  L 56,59  L 50,59  L 50,60  L 38,60  L 38,61  L 33,61  L 33,62  L 27,62  L 27,63  L 19,63  L 19,64  L 12,64  L 12,65  L 6,65  L 6,66  L 2,66  L 2,67  L 1,67  L 1,68  L 0,68  L 0,69  L 1,69  L 1,70  L 2,70  L 2,71  L 3,71  L 3,72  L 5,72  L 5,71  L 10,71  L 10,70  L 18,70  L 18,69  L 19,69  L 19,70  L 20,70  L 20,69  L 31,69  L 31,68  L 35,68  L 35,78  L 34,78  L 34,79  L 35,79  L 35,80  L 34,80  L 34,84  L 33,84  L 33,85  L 34,85  L 34,88  L 33,88  L 33,89  L 34,89  L 34,92  L 33,92  L 33,94  L 34,94  L 34,95  L 37,95  L 37,94  L 39,94  L 39,93  L 40,93  L 40,92  L 39,92  L 39,91  L 40,91  L 40,83  L 41,83  L 41,76  L 42,76  L 42,68  L 43,68  L 43,66  L 51,66  L 51,65  L 58,65  Z  " style="fill:rgb(0, 0, 0); fill-opacity:1.000; stroke:none;" />
 <path d="  M 62,44  L 63,44  L 63,43  L 65,43  L 65,41  L 67,41  L 67,39  L 68,39  L 68,37  L 69,37  L 69,35  L 70,35  L 70,28  L 71,28  L 71,27  L 70,27  L 70,20  L 69,20  L 69,19  L 68,19  L 68,16  L 67,16  L 67,14  L 66,14  L 66,13  L 65,13  L 65,12  L 64,12  L 64,11  L 63,11  L 63,10  L 62,10  L 62,9  L 60,9  L 60,8  L 58,8  L 58,7  L 56,7  L 56,6  L 54,6  L 54,5  L 51,5  L 51,4  L 49,4  L 49,3  L 46,3  L 46,2  L 44,2  L 44,1  L 39,1  L 39,0  L 35,0  L 35,1  L 34,1  L 34,2  L 33,2  L 33,3  L 32,3  L 32,4  L 31,4  L 31,5  L 30,5  L 30,6  L 28,6  L 28,8  L 27,8  L 27,10  L 26,10  L 26,11  L 25,11  L 25,12  L 24,12  L 24,14  L 23,14  L 23,15  L 22,15  L 22,17  L 20,17  L 20,19  L 19,19  L 19,21  L 18,21  L 18,22  L 17,22  L 17,24  L 16,24  L 16,27  L 15,27  L 15,31  L 14,31  L 14,42  L 15,42  L 15,43  L 16,43  L 16,45  L 18,45  L 18,46  L 19,46  L 19,48  L 21,48  L 21,49  L 22,49  L 22,50  L 24,50  L 24,51  L 25,51  L 25,52  L 27,52  L 27,53  L 30,53  L 30,54  L 34,54  L 34,55  L 40,55  L 40,54  L 44,54  L 44,53  L 49,53  L 49,52  L 50,52  L 50,51  L 53,51  L 53,50  L 54,50  L 54,49  L 56,49  L 56,48  L 58,48  L 58,47  L 59,47  L 59,46  L 61,46  L 61,45  L 62,45  Z  M 62,19  L 62,21  L 63,21  L 63,26  L 64,26  L 64,27  L 63,27  L 63,32  L 62,32  L 62,34  L 61,34  L 61,36  L 60,36  L 60,37  L 59,37  L 59,38  L 58,38  L 58,39  L 57,39  L 57,40  L 56,40  L 56,41  L 54,41  L 54,42  L 52,42  L 52,43  L 51,43  L 51,44  L 49,44  L 49,45  L 47,45  L 47,46  L 46,46  L 46,47  L 42,47  L 42,48  L 33,48  L 33,47  L 30,47  L 30,46  L 29,46  L 29,45  L 27,45  L 27,44  L 25,44  L 25,43  L 24,43  L 24,42  L 23,42  L 23,41  L 22,41  L 22,40  L 21,40  L 21,37  L 20,37  L 20,35  L 21,35  L 21,31  L 22,31  L 22,28  L 23,28  L 23,26  L 24,26  L 24,24  L 25,24  L 25,23  L 26,23  L 26,21  L 27,21  L 27,20  L 28,20  L 28,19  L 29,19  L 29,17  L 30,17  L 30,15  L 31,15  L 31,14  L 33,14  L 33,12  L 34,12  L 34,11  L 36,11  L 36,10  L 37,10  L 37,9  L 38,9  L 38,10  L 44,10  L 44,11  L 47,11  L 47,12  L 49,12  L 49,13  L 52,13  L 52,14  L 55,14  L 55,15  L 56,15  L 56,16  L 58,16  L 58,17  L 60,17  L 60,19  Z  " style="fill:rgb(0, 0, 0); fill-opacity:1.000; stroke:none;" />
 <path d="  M 67,136  L 67,137  L 66,137  L 66,136  L 65,136  L 65,137  L 59,137  L 59,138  L 53,138  L 53,139  L 52,139  L 52,138  L 51,138  L 51,139  L 50,139  L 50,138  L 47,138  L 47,137  L 45,137  L 45,135  L 46,135  L 46,122  L 43,122  L 43,123  L 42,123  L 42,125  L 41,125  L 41,128  L 40,128  L 40,132  L 39,132  L 39,139  L 40,139  L 40,143  L 42,143  L 42,144  L 68,144  L 68,143  L 76,143  L 76,142  L 88,142  L 88,141  L 89,141  L 89,142  L 90,142  L 90,141  L 98,141  L 98,140  L 100,140  L 100,141  L 101,141  L 101,140  L 105,140  L 105,139  L 106,139  L 106,138  L 107,138  L 107,133  L 106,133  L 106,132  L 101,132  L 101,133  L 95,133  L 95,134  L 87,134  L 87,135  L 76,135  L 76,136  Z  " style="fill:rgb(0, 0, 0); fill-opacity:1.000; stroke:none;" />
 <path d="  M 56,85  L 62,85  L 62,84  L 65,84  L 65,83  L 71,83  L 71,82  L 76,82  L 76,81  L 81,81  L 81,80  L 90,80  L 90,81  L 95,81  L 95,82  L 96,82  L 96,83  L 97,83  L 97,100  L 96,100  L 96,101  L 97,101  L 97,107  L 102,107  L 102,105  L 103,105  L 103,101  L 104,101  L 104,100  L 103,100  L 103,97  L 104,97  L 104,96  L 103,96  L 103,93  L 104,93  L 104,92  L 103,92  L 103,89  L 104,89  L 104,88  L 103,88  L 103,85  L 104,85  L 104,84  L 103,84  L 103,48  L 102,48  L 102,47  L 103,47  L 103,46  L 102,46  L 102,45  L 103,45  L 103,44  L 102,44  L 102,43  L 103,43  L 103,42  L 102,42  L 102,34  L 101,34  L 101,26  L 100,26  L 100,18  L 99,18  L 99,17  L 100,17  L 100,16  L 99,16  L 99,6  L 98,6  L 98,5  L 96,5  L 96,4  L 94,4  L 94,5  L 93,5  L 93,6  L 92,6  L 92,13  L 93,13  L 93,20  L 94,20  L 94,26  L 95,26  L 95,35  L 96,35  L 96,54  L 97,54  L 97,56  L 96,56  L 96,57  L 97,57  L 97,60  L 96,60  L 96,61  L 97,61  L 97,64  L 96,64  L 96,65  L 97,65  L 97,68  L 96,68  L 96,70  L 97,70  L 97,72  L 96,72  L 96,74  L 90,74  L 90,73  L 89,73  L 89,72  L 88,72  L 88,73  L 81,73  L 81,74  L 76,74  L 76,75  L 73,75  L 73,76  L 72,76  L 72,75  L 71,75  L 71,76  L 67,76  L 67,77  L 64,77  L 64,78  L 62,78  L 62,79  L 59,79  L 59,81  L 57,81  L 57,82  L 56,82  Z  " style="fill:rgb(0, 0, 0); fill-opacity:1.000; stroke:none;" />
</svg>
