<?xml version="1.0" encoding="UTF-8" standalone="no"?>
<!DOCTYPE svg PUBLIC "-//W3C//DTD SVG 1.1//EN" 
  "http://www.w3.org/Graphics/SVG/1.1/DTD/svg11.dtd">
<svg width="104" height="164"
     xmlns="http://www.w3.org/2000/svg" version="1.1">
 <path d="  M 41,88  L 42,88  L 42,91  L 41,91  L 41,92  L 42,92  L 42,96  L 43,96  L 43,97  L 42,97  L 42,98  L 43,98  L 43,104  L 45,104  L 45,105  L 46,105  L 46,106  L 45,106  L 45,107  L 43,107  L 43,108  L 38,108  L 38,109  L 35,109  L 35,110  L 34,110  L 34,111  L 33,111  L 33,112  L 34,112  L 34,113  L 35,113  L 35,114  L 42,114  L 42,113  L 53,113  L 53,112  L 62,112  L 62,111  L 63,111  L 63,112  L 66,112  L 66,111  L 67,111  L 67,112  L 69,112  L 69,111  L 71,111  L 71,112  L 72,112  L 72,111  L 75,111  L 75,112  L 81,112  L 81,113  L 82,113  L 82,114  L 84,114  L 84,116  L 86,116  L 86,117  L 85,117  L 85,119  L 84,119  L 84,120  L 82,120  L 82,121  L 79,121  L 79,122  L 76,122  L 76,123  L 73,123  L 73,124  L 70,124  L 70,125  L 67,125  L 67,126  L 66,126  L 66,127  L 64,127  L 64,128  L 61,128  L 61,129  L 59,129  L 59,130  L 56,130  L 56,131  L 53,131  L 53,132  L 51,132  L 51,133  L 49,133  L 49,134  L 46,134  L 46,135  L 45,135  L 45,136  L 43,136  L 43,137  L 41,137  L 41,138  L 40,138  L 40,139  L 39,139  L 39,141  L 38,141  L 38,142  L 37,142  L 37,143  L 35,143  L 35,145  L 33,145  L 33,146  L 32,146  L 32,151  L 33,151  L 33,155  L 34,155  L 34,157  L 35,157  L 35,158  L 36,158  L 36,160  L 38,160  L 38,161  L 39,161  L 39,162  L 43,162  L 43,163  L 48,163  L 48,164  L 73,164  L 73,163  L 77,163  L 77,162  L 79,162  L 79,161  L 81,161  L 81,160  L 85,160  L 85,159  L 87,159  L 87,158  L 89,158  L 89,157  L 92,157  L 92,156  L 94,156  L 94,155  L 96,155  L 96,154  L 98,154  L 98,153  L 101,153  L 101,151  L 102,151  L 102,150  L 104,150  L 104,143  L 101,143  L 101,144  L 99,144  L 99,145  L 98,145  L 98,146  L 96,146  L 96,147  L 93,147  L 93,149  L 91,149  L 91,150  L 89,150  L 89,151  L 87,151  L 87,152  L 85,152  L 85,153  L 81,153  L 81,154  L 78,154  L 78,155  L 73,155  L 73,156  L 70,156  L 70,157  L 64,157  L 64,158  L 63,158  L 63,157  L 60,157  L 60,158  L 58,158  L 58,157  L 56,157  L 56,158  L 55,158  L 55,157  L 48,157  L 48,156  L 43,156  L 43,155  L 39,155  L 39,153  L 38,153  L 38,152  L 39,152  L 39,148  L 40,148  L 40,146  L 42,146  L 42,145  L 43,145  L 43,144  L 44,144  L 44,143  L 45,143  L 45,142  L 48,142  L 48,141  L 52,141  L 52,140  L 54,140  L 54,139  L 57,139  L 57,138  L 59,138  L 59,137  L 61,137  L 61,136  L 63,136  L 63,135  L 66,135  L 66,134  L 68,134  L 68,133  L 70,133  L 70,132  L 72,132  L 72,131  L 73,131  L 73,130  L 76,130  L 76,129  L 78,129  L 78,128  L 80,128  L 80,127  L 82,127  L 82,126  L 86,126  L 86,125  L 89,125  L 89,124  L 90,124  L 90,123  L 91,123  L 91,122  L 92,122  L 92,121  L 93,121  L 93,120  L 92,120  L 92,114  L 91,114  L 91,111  L 90,111  L 90,108  L 89,108  L 89,107  L 88,107  L 88,106  L 86,106  L 86,105  L 83,105  L 83,104  L 74,104  L 74,103  L 73,103  L 73,104  L 61,104  L 61,105  L 55,105  L 55,106  L 54,106  L 54,105  L 51,105  L 51,104  L 50,104  L 50,103  L 51,103  L 51,100  L 50,100  L 50,98  L 49,98  L 49,92  L 48,92  L 48,83  L 47,83  L 47,68  L 48,68  L 48,67  L 52,67  L 52,68  L 54,68  L 54,67  L 62,67  L 62,66  L 68,66  L 68,65  L 73,65  L 73,64  L 78,64  L 78,63  L 81,63  L 81,62  L 82,62  L 82,61  L 84,61  L 84,60  L 87,60  L 87,59  L 89,59  L 89,58  L 91,58  L 91,59  L 92,59  L 92,58  L 93,58  L 93,57  L 92,57  L 92,56  L 91,56  L 91,54  L 90,54  L 90,53  L 83,53  L 83,54  L 81,54  L 81,55  L 79,55  L 79,56  L 76,56  L 76,57  L 71,57  L 71,58  L 68,58  L 68,59  L 64,59  L 64,60  L 62,60  L 62,59  L 61,59  L 61,60  L 57,60  L 57,61  L 56,61  L 56,60  L 55,60  L 55,61  L 54,61  L 54,60  L 53,60  L 53,61  L 46,61  L 46,60  L 43,60  L 43,61  L 40,61  L 40,62  L 32,62  L 32,63  L 21,63  L 21,64  L 18,64  L 18,65  L 13,65  L 13,66  L 8,66  L 8,67  L 2,67  L 2,68  L 0,68  L 0,72  L 1,72  L 1,73  L 3,73  L 3,74  L 5,74  L 5,73  L 7,73  L 7,72  L 10,72  L 10,71  L 11,71  L 11,72  L 13,72  L 13,71  L 20,71  L 20,70  L 21,70  L 21,71  L 22,71  L 22,70  L 29,70  L 29,69  L 34,69  L 34,70  L 37,70  L 37,69  L 39,69  L 39,68  L 40,68  L 40,69  L 41,69  Z  " style="fill:rgb(0, 0, 0); fill-opacity:1.000; stroke:none;" />
 <path d="  M 51,44  L 51,45  L 48,45  L 48,46  L 44,46  L 44,47  L 37,47  L 37,46  L 36,46  L 36,47  L 35,47  L 35,46  L 33,46  L 33,45  L 30,45  L 30,44  L 28,44  L 28,43  L 26,43  L 26,41  L 25,41  L 25,40  L 24,40  L 24,39  L 23,39  L 23,38  L 22,38  L 22,37  L 21,37  L 21,29  L 22,29  L 22,26  L 23,26  L 23,25  L 24,25  L 24,23  L 25,23  L 25,21  L 26,21  L 26,20  L 27,20  L 27,19  L 28,19  L 28,17  L 29,17  L 29,16  L 30,16  L 30,15  L 31,15  L 31,14  L 33,14  L 33,13  L 34,13  L 34,12  L 35,12  L 35,11  L 38,11  L 38,10  L 47,10  L 47,9  L 48,9  L 48,10  L 55,10  L 55,11  L 57,11  L 57,12  L 60,12  L 60,13  L 62,13  L 62,14  L 63,14  L 63,15  L 64,15  L 64,16  L 65,16  L 65,17  L 66,17  L 66,20  L 67,20  L 67,27  L 66,27  L 66,28  L 67,28  L 67,29  L 66,29  L 66,34  L 65,34  L 65,35  L 64,35  L 64,38  L 63,38  L 63,39  L 62,39  L 62,40  L 60,40  L 60,41  L 59,41  L 59,42  L 57,42  L 57,43  L 55,43  L 55,44  Z  M 53,51  L 54,51  L 54,50  L 57,50  L 57,49  L 59,49  L 59,48  L 62,48  L 62,47  L 63,47  L 63,46  L 64,46  L 64,45  L 66,45  L 66,44  L 67,44  L 67,43  L 68,43  L 68,42  L 69,42  L 69,41  L 70,41  L 70,40  L 72,40  L 72,37  L 73,37  L 73,31  L 74,31  L 74,24  L 75,24  L 75,23  L 74,23  L 74,17  L 73,17  L 73,15  L 72,15  L 72,13  L 71,13  L 71,11  L 69,11  L 69,10  L 68,10  L 68,8  L 67,8  L 67,7  L 65,7  L 65,6  L 63,6  L 63,5  L 61,5  L 61,4  L 59,4  L 59,3  L 56,3  L 56,2  L 51,2  L 51,1  L 45,1  L 45,2  L 39,2  L 39,1  L 36,1  L 36,2  L 34,2  L 34,3  L 33,3  L 33,4  L 31,4  L 31,5  L 30,5  L 30,6  L 29,6  L 29,7  L 28,7  L 28,8  L 27,8  L 27,9  L 26,9  L 26,10  L 25,10  L 25,12  L 24,12  L 24,13  L 23,13  L 23,14  L 22,14  L 22,15  L 21,15  L 21,17  L 20,17  L 20,18  L 19,18  L 19,19  L 18,19  L 18,21  L 17,21  L 17,22  L 16,22  L 16,24  L 15,24  L 15,28  L 14,28  L 14,38  L 15,38  L 15,41  L 16,41  L 16,43  L 17,43  L 17,44  L 18,44  L 18,45  L 19,45  L 19,46  L 20,46  L 20,47  L 22,47  L 22,48  L 24,48  L 24,49  L 25,49  L 25,50  L 27,50  L 27,51  L 29,51  L 29,52  L 31,52  L 31,53  L 35,53  L 35,54  L 45,54  L 45,53  L 49,53  L 49,52  L 53,52  Z  " style="fill:rgb(0, 0, 0); fill-opacity:1.000; stroke:none;" />
 <path d="  M 60,75  L 60,76  L 59,76  L 59,78  L 58,78  L 58,79  L 59,79  L 59,80  L 60,80  L 60,81  L 65,81  L 65,82  L 72,82  L 72,83  L 73,83  L 73,82  L 74,82  L 74,83  L 81,83  L 81,82  L 83,82  L 83,81  L 84,81  L 84,78  L 85,78  L 85,76  L 86,76  L 86,73  L 87,73  L 87,72  L 85,72  L 85,71  L 82,71  L 82,72  L 77,72  L 77,73  L 76,73  L 76,74  L 73,74  L 73,75  Z  " style="fill:rgb(0, 0, 0); fill-opacity:1.000; stroke:none;" />
 <path d="  M 104,19  L 103,19  L 103,7  L 102,7  L 102,5  L 103,5  L 103,4  L 102,4  L 102,2  L 101,2  L 101,1  L 100,1  L 100,0  L 97,0  L 97,1  L 96,1  L 96,3  L 95,3  L 95,4  L 96,4  L 96,13  L 97,13  L 97,15  L 96,15  L 96,16  L 97,16  L 97,29  L 98,29  L 98,31  L 97,31  L 97,32  L 98,32  L 98,67  L 97,67  L 97,68  L 98,68  L 98,71  L 97,71  L 97,72  L 98,72  L 98,73  L 97,73  L 97,93  L 96,93  L 96,97  L 97,97  L 97,98  L 99,98  L 99,99  L 102,99  L 102,98  L 104,98  Z  " style="fill:rgb(0, 0, 0); fill-opacity:1.000; stroke:none;" />
</svg>
