<?xml version="1.0" encoding="UTF-8" standalone="no"?>
<!DOCTYPE svg PUBLIC "-//W3C//DTD SVG 1.1//EN" 
  "http://www.w3.org/Graphics/SVG/1.1/DTD/svg11.dtd">
<svg width="111" height="115"
     xmlns="http://www.w3.org/2000/svg" version="1.1">
 <path d="  M 39,57  L 38,57  L 38,56  L 37,56  L 37,57  L 29,57  L 29,58  L 24,58  L 24,59  L 19,59  L 19,60  L 18,60  L 18,59  L 17,59  L 17,60  L 13,60  L 13,61  L 7,61  L 7,62  L 3,62  L 3,63  L 1,63  L 1,64  L 0,64  L 0,65  L 1,65  L 1,68  L 3,68  L 3,69  L 5,69  L 5,68  L 7,68  L 7,67  L 9,67  L 9,66  L 14,66  L 14,65  L 21,65  L 21,64  L 29,64  L 29,63  L 32,63  L 32,64  L 33,64  L 33,79  L 34,79  L 34,100  L 33,100  L 33,110  L 34,110  L 34,111  L 35,111  L 35,112  L 37,112  L 37,111  L 39,111  L 39,110  L 40,110  L 40,109  L 39,109  L 39,106  L 40,106  L 40,105  L 39,105  L 39,102  L 40,102  L 40,77  L 39,77  L 39,76  L 40,76  L 40,75  L 39,75  L 39,74  L 40,74  L 40,73  L 39,73  L 39,72  L 40,72  L 40,71  L 39,71  L 39,68  L 40,68  L 40,67  L 39,67  L 39,65  L 40,65  L 40,63  L 41,63  L 41,62  L 42,62  L 42,61  L 52,61  L 52,60  L 58,60  L 58,59  L 64,59  L 64,58  L 68,58  L 68,57  L 74,57  L 74,56  L 75,56  L 75,57  L 76,57  L 76,53  L 75,53  L 75,52  L 74,52  L 74,51  L 72,51  L 72,50  L 71,50  L 71,51  L 67,51  L 67,52  L 65,52  L 65,53  L 60,53  L 60,54  L 56,54  L 56,55  L 49,55  L 49,56  L 48,56  L 48,55  L 47,55  L 47,56  L 39,56  Z  " style="fill:rgb(0, 0, 0); fill-opacity:1.000; stroke:none;" />
 <path d="  M 19,12  L 19,14  L 18,14  L 18,15  L 17,15  L 17,17  L 16,17  L 16,20  L 15,20  L 15,22  L 14,22  L 14,24  L 13,24  L 13,26  L 12,26  L 12,29  L 11,29  L 11,32  L 10,32  L 10,39  L 11,39  L 11,40  L 12,40  L 12,42  L 13,42  L 13,43  L 14,43  L 14,44  L 16,44  L 16,45  L 19,45  L 19,46  L 21,46  L 21,47  L 24,47  L 24,48  L 28,48  L 28,49  L 37,49  L 37,48  L 41,48  L 41,47  L 44,47  L 44,46  L 48,46  L 48,45  L 49,45  L 49,44  L 51,44  L 51,43  L 53,43  L 53,42  L 54,42  L 54,41  L 55,41  L 55,40  L 57,40  L 57,38  L 59,38  L 59,34  L 60,34  L 60,30  L 61,30  L 61,28  L 60,28  L 60,26  L 61,26  L 61,25  L 60,25  L 60,16  L 59,16  L 59,12  L 58,12  L 58,11  L 57,11  L 57,9  L 56,9  L 56,8  L 55,8  L 55,7  L 54,7  L 54,5  L 53,5  L 53,4  L 51,4  L 51,3  L 49,3  L 49,2  L 44,2  L 44,1  L 34,1  L 34,0  L 31,0  L 31,1  L 30,1  L 30,2  L 29,2  L 29,3  L 27,3  L 27,4  L 25,4  L 25,5  L 24,5  L 24,7  L 23,7  L 23,8  L 22,8  L 22,10  L 21,10  L 21,11  L 20,11  L 20,12  Z  M 21,41  L 21,40  L 18,40  L 18,39  L 17,39  L 17,38  L 16,38  L 16,31  L 17,31  L 17,27  L 18,27  L 18,26  L 19,26  L 19,23  L 20,23  L 20,21  L 21,21  L 21,20  L 22,20  L 22,18  L 23,18  L 23,17  L 24,17  L 24,16  L 25,16  L 25,15  L 26,15  L 26,13  L 27,13  L 27,12  L 28,12  L 28,11  L 30,11  L 30,10  L 31,10  L 31,9  L 32,9  L 32,8  L 34,8  L 34,7  L 46,7  L 46,8  L 47,8  L 47,9  L 49,9  L 49,10  L 51,10  L 51,12  L 52,12  L 52,13  L 53,13  L 53,14  L 54,14  L 54,32  L 53,32  L 53,34  L 52,34  L 52,36  L 51,36  L 51,38  L 49,38  L 49,39  L 47,39  L 47,40  L 45,40  L 45,41  L 41,41  L 41,42  L 35,42  L 35,43  L 29,43  L 29,42  L 26,42  L 26,41  Z  " style="fill:rgb(0, 0, 0); fill-opacity:1.000; stroke:none;" />
 <path d="  M 48,75  L 48,76  L 47,76  L 47,81  L 48,81  L 48,82  L 51,82  L 51,81  L 56,81  L 56,80  L 60,80  L 60,79  L 72,79  L 72,78  L 75,78  L 75,79  L 76,79  L 76,78  L 82,78  L 82,80  L 83,80  L 83,81  L 82,81  L 82,82  L 83,82  L 83,106  L 84,106  L 84,107  L 85,107  L 85,108  L 86,108  L 86,109  L 87,109  L 87,108  L 88,108  L 88,106  L 89,106  L 89,74  L 88,74  L 88,72  L 89,72  L 89,65  L 88,65  L 88,64  L 89,64  L 89,61  L 88,61  L 88,60  L 89,60  L 89,59  L 88,59  L 88,58  L 89,58  L 89,57  L 88,57  L 88,29  L 87,29  L 87,28  L 88,28  L 88,25  L 87,25  L 87,6  L 88,6  L 88,5  L 87,5  L 87,3  L 86,3  L 86,1  L 85,1  L 85,2  L 84,2  L 84,1  L 83,1  L 83,3  L 82,3  L 82,5  L 81,5  L 81,9  L 80,9  L 80,12  L 81,12  L 81,13  L 80,13  L 80,22  L 81,22  L 81,38  L 82,38  L 82,41  L 81,41  L 81,42  L 82,42  L 82,45  L 81,45  L 81,46  L 82,46  L 82,71  L 80,71  L 80,72  L 73,72  L 73,73  L 72,73  L 72,72  L 70,72  L 70,73  L 64,73  L 64,74  L 56,74  L 56,75  Z  " style="fill:rgb(0, 0, 0); fill-opacity:1.000; stroke:none;" />
 <path d="  M 104,35  L 105,35  L 105,37  L 104,37  L 104,39  L 105,39  L 105,41  L 104,41  L 104,42  L 105,42  L 105,45  L 104,45  L 104,46  L 105,46  L 105,91  L 106,91  L 106,93  L 105,93  L 105,94  L 106,94  L 106,97  L 105,97  L 105,98  L 106,98  L 106,101  L 105,101  L 105,102  L 106,102  L 106,105  L 105,105  L 105,106  L 106,106  L 106,109  L 105,109  L 105,110  L 106,110  L 106,115  L 111,115  L 111,45  L 110,45  L 110,44  L 111,44  L 111,43  L 110,43  L 110,42  L 111,42  L 111,41  L 110,41  L 110,40  L 111,40  L 111,39  L 110,39  L 110,38  L 111,38  L 111,37  L 110,37  L 110,36  L 111,36  L 111,35  L 110,35  L 110,34  L 111,34  L 111,33  L 110,33  L 110,32  L 111,32  L 111,31  L 110,31  L 110,28  L 111,28  L 111,27  L 110,27  L 110,24  L 111,24  L 111,23  L 110,23  L 110,13  L 109,13  L 109,5  L 108,5  L 108,1  L 107,1  L 107,0  L 103,0  L 103,14  L 104,14  L 104,15  L 103,15  L 103,16  L 104,16  Z  " style="fill:rgb(0, 0, 0); fill-opacity:1.000; stroke:none;" />
</svg>
