<?xml version="1.0" encoding="UTF-8" standalone="no"?>
<!DOCTYPE svg PUBLIC "-//W3C//DTD SVG 1.1//EN" 
  "http://www.w3.org/Graphics/SVG/1.1/DTD/svg11.dtd">
<svg width="108" height="158"
     xmlns="http://www.w3.org/2000/svg" version="1.1">
 <path d="  M 51,54  L 43,54  L 43,55  L 41,55  L 41,54  L 33,54  L 33,55  L 26,55  L 26,56  L 25,56  L 25,55  L 24,55  L 24,56  L 21,56  L 21,57  L 15,57  L 15,58  L 12,58  L 12,59  L 8,59  L 8,60  L 4,60  L 4,61  L 3,61  L 3,62  L 2,62  L 2,63  L 1,63  L 1,68  L 4,68  L 4,67  L 6,67  L 6,66  L 8,66  L 8,65  L 14,65  L 14,64  L 20,64  L 20,63  L 21,63  L 21,64  L 22,64  L 22,63  L 29,63  L 29,62  L 30,62  L 30,63  L 31,63  L 31,66  L 32,66  L 32,68  L 31,68  L 31,70  L 32,70  L 32,73  L 31,73  L 31,74  L 32,74  L 32,77  L 31,77  L 31,78  L 32,78  L 32,81  L 33,81  L 33,84  L 34,84  L 34,87  L 35,87  L 35,90  L 36,90  L 36,91  L 37,91  L 37,92  L 38,92  L 38,94  L 40,94  L 40,95  L 41,95  L 41,93  L 43,93  L 43,89  L 42,89  L 42,87  L 41,87  L 41,84  L 40,84  L 40,82  L 39,82  L 39,77  L 38,77  L 38,62  L 39,62  L 39,61  L 48,61  L 48,60  L 49,60  L 49,61  L 50,61  L 50,60  L 54,60  L 54,59  L 59,59  L 59,58  L 60,58  L 60,59  L 61,59  L 61,58  L 66,58  L 66,57  L 70,57  L 70,56  L 71,56  L 71,55  L 72,55  L 72,52  L 71,52  L 71,51  L 68,51  L 68,50  L 65,50  L 65,51  L 61,51  L 61,52  L 58,52  L 58,53  L 53,53  L 53,54  L 52,54  L 52,53  L 51,53  Z  " style="fill:rgb(0, 0, 0); fill-opacity:1.000; stroke:none;" />
 <path d="  M 19,13  L 18,13  L 18,15  L 17,15  L 17,17  L 16,17  L 16,19  L 15,19  L 15,21  L 14,21  L 14,25  L 13,25  L 13,32  L 14,32  L 14,37  L 16,37  L 16,39  L 17,39  L 17,41  L 18,41  L 18,42  L 20,42  L 20,43  L 21,43  L 21,45  L 23,45  L 23,46  L 25,46  L 25,47  L 27,47  L 27,48  L 29,48  L 29,49  L 30,49  L 30,50  L 31,50  L 31,49  L 33,49  L 33,48  L 39,48  L 39,47  L 42,47  L 42,46  L 44,46  L 44,45  L 47,45  L 47,44  L 50,44  L 50,43  L 51,43  L 51,42  L 52,42  L 52,41  L 54,41  L 54,40  L 56,40  L 56,39  L 57,39  L 57,38  L 58,38  L 58,37  L 59,37  L 59,35  L 60,35  L 60,29  L 61,29  L 61,27  L 62,27  L 62,18  L 61,18  L 61,16  L 60,16  L 60,13  L 59,13  L 59,11  L 58,11  L 58,9  L 57,9  L 57,7  L 56,7  L 56,6  L 55,6  L 55,4  L 54,4  L 54,3  L 52,3  L 52,2  L 50,2  L 50,1  L 45,1  L 45,0  L 43,0  L 43,1  L 42,1  L 42,0  L 39,0  L 39,1  L 36,1  L 36,0  L 35,0  L 35,1  L 27,1  L 27,2  L 26,2  L 26,3  L 24,3  L 24,4  L 23,4  L 23,5  L 22,5  L 22,7  L 21,7  L 21,9  L 20,9  L 20,11  L 19,11  Z  M 20,23  L 21,23  L 21,22  L 22,22  L 22,20  L 23,20  L 23,18  L 24,18  L 24,16  L 25,16  L 25,15  L 26,15  L 26,14  L 27,14  L 27,12  L 28,12  L 28,11  L 29,11  L 29,10  L 32,10  L 32,9  L 35,9  L 35,8  L 44,8  L 44,9  L 49,9  L 49,10  L 50,10  L 50,11  L 51,11  L 51,12  L 52,12  L 52,14  L 53,14  L 53,16  L 54,16  L 54,21  L 55,21  L 55,26  L 54,26  L 54,30  L 53,30  L 53,33  L 52,33  L 52,35  L 51,35  L 51,36  L 50,36  L 50,37  L 49,37  L 49,38  L 46,38  L 46,39  L 44,39  L 44,40  L 42,40  L 42,41  L 38,41  L 38,42  L 30,42  L 30,41  L 28,41  L 28,40  L 27,40  L 27,39  L 25,39  L 25,38  L 24,38  L 24,37  L 23,37  L 23,36  L 22,36  L 22,35  L 21,35  L 21,33  L 20,33  Z  " style="fill:rgb(0, 0, 0); fill-opacity:1.000; stroke:none;" />
 <path d="  M 81,95  L 82,95  L 82,96  L 83,96  L 83,97  L 84,97  L 84,96  L 86,96  L 86,95  L 87,95  L 87,89  L 88,89  L 88,82  L 89,82  L 89,80  L 88,80  L 88,78  L 89,78  L 89,76  L 88,76  L 88,51  L 87,51  L 87,50  L 88,50  L 88,47  L 87,47  L 87,46  L 88,46  L 88,43  L 87,43  L 87,42  L 88,42  L 88,41  L 87,41  L 87,40  L 88,40  L 88,39  L 87,39  L 87,10  L 86,10  L 86,9  L 81,9  L 81,65  L 80,65  L 80,68  L 77,68  L 77,67  L 76,67  L 76,65  L 72,65  L 72,66  L 64,66  L 64,67  L 63,67  L 63,66  L 62,66  L 62,68  L 61,68  L 61,67  L 60,67  L 60,68  L 59,68  L 59,69  L 54,69  L 54,70  L 51,70  L 51,71  L 48,71  L 48,72  L 47,72  L 47,73  L 46,73  L 46,78  L 50,78  L 50,77  L 63,77  L 63,76  L 65,76  L 65,75  L 67,75  L 67,74  L 69,74  L 69,73  L 72,73  L 72,72  L 76,72  L 76,70  L 77,70  L 77,69  L 79,69  L 79,70  L 80,70  L 80,79  L 81,79  L 81,80  L 80,80  L 80,81  L 81,81  L 81,83  L 80,83  L 80,84  L 81,84  Z  " style="fill:rgb(0, 0, 0); fill-opacity:1.000; stroke:none;" />
 <path d="  M 80,124  L 80,123  L 83,123  L 83,122  L 85,122  L 85,121  L 87,121  L 87,120  L 88,120  L 88,119  L 89,119  L 89,118  L 91,118  L 91,117  L 92,117  L 92,110  L 91,110  L 91,108  L 90,108  L 90,105  L 89,105  L 89,104  L 88,104  L 88,103  L 86,103  L 86,101  L 85,101  L 85,100  L 84,100  L 84,99  L 83,99  L 83,100  L 82,100  L 82,99  L 81,99  L 81,100  L 80,100  L 80,99  L 57,99  L 57,100  L 49,100  L 49,101  L 46,101  L 46,102  L 47,102  L 47,103  L 46,103  L 46,106  L 47,106  L 47,107  L 49,107  L 49,108  L 56,108  L 56,107  L 62,107  L 62,106  L 76,106  L 76,107  L 78,107  L 78,108  L 81,108  L 81,109  L 83,109  L 83,110  L 84,110  L 84,115  L 82,115  L 82,116  L 80,116  L 80,117  L 78,117  L 78,118  L 73,118  L 73,119  L 71,119  L 71,120  L 68,120  L 68,121  L 65,121  L 65,122  L 63,122  L 63,123  L 61,123  L 61,124  L 60,124  L 60,125  L 59,125  L 59,126  L 56,126  L 56,127  L 54,127  L 54,128  L 52,128  L 52,129  L 51,129  L 51,131  L 50,131  L 50,132  L 49,132  L 49,135  L 48,135  L 48,142  L 49,142  L 49,147  L 50,147  L 50,150  L 51,150  L 51,152  L 52,152  L 52,154  L 53,154  L 53,155  L 54,155  L 54,156  L 57,156  L 57,157  L 58,157  L 58,158  L 73,158  L 73,157  L 74,157  L 74,158  L 75,158  L 75,157  L 79,157  L 79,156  L 82,156  L 82,155  L 85,155  L 85,154  L 88,154  L 88,153  L 89,153  L 89,152  L 91,152  L 91,151  L 93,151  L 93,150  L 95,150  L 95,149  L 97,149  L 97,148  L 99,148  L 99,147  L 101,147  L 101,146  L 103,146  L 103,145  L 104,145  L 104,144  L 106,144  L 106,143  L 107,143  L 107,142  L 108,142  L 108,138  L 107,138  L 107,137  L 102,137  L 102,138  L 99,138  L 99,139  L 97,139  L 97,140  L 96,140  L 96,141  L 94,141  L 94,142  L 93,142  L 93,143  L 91,143  L 91,144  L 89,144  L 89,145  L 87,145  L 87,146  L 85,146  L 85,147  L 83,147  L 83,148  L 82,148  L 82,149  L 81,149  L 81,148  L 80,148  L 80,149  L 77,149  L 77,150  L 76,150  L 76,149  L 75,149  L 75,151  L 60,151  L 60,150  L 57,150  L 57,149  L 56,149  L 56,147  L 55,147  L 55,138  L 56,138  L 56,136  L 57,136  L 57,135  L 58,135  L 58,134  L 59,134  L 59,133  L 60,133  L 60,132  L 62,132  L 62,131  L 64,131  L 64,130  L 66,130  L 66,129  L 67,129  L 67,128  L 69,128  L 69,127  L 72,127  L 72,126  L 74,126  L 74,125  L 77,125  L 77,124  Z  " style="fill:rgb(0, 0, 0); fill-opacity:1.000; stroke:none;" />
 <path d="  M 101,26  L 101,82  L 102,82  L 102,83  L 101,83  L 101,84  L 102,84  L 102,85  L 101,85  L 101,86  L 102,86  L 102,87  L 101,87  L 101,88  L 102,88  L 102,91  L 101,91  L 101,96  L 102,96  L 102,97  L 103,97  L 103,98  L 106,98  L 106,96  L 107,96  L 107,95  L 108,95  L 108,39  L 107,39  L 107,23  L 106,23  L 106,14  L 104,14  L 104,13  L 102,13  L 102,14  L 101,14  L 101,15  L 100,15  L 100,26  Z  " style="fill:rgb(0, 0, 0); fill-opacity:1.000; stroke:none;" />
</svg>
