<?xml version="1.0" encoding="UTF-8" standalone="no"?>
<!DOCTYPE svg PUBLIC "-//W3C//DTD SVG 1.1//EN" 
  "http://www.w3.org/Graphics/SVG/1.1/DTD/svg11.dtd">
<svg width="110" height="146"
     xmlns="http://www.w3.org/2000/svg" version="1.1">
 <path d="  M 30,64  L 30,63  L 32,63  L 32,64  L 33,64  L 33,65  L 34,65  L 34,91  L 35,91  L 35,92  L 36,92  L 36,93  L 40,93  L 40,89  L 41,89  L 41,88  L 40,88  L 40,85  L 41,85  L 41,84  L 40,84  L 40,63  L 42,63  L 42,62  L 43,62  L 43,63  L 44,63  L 44,62  L 54,62  L 54,61  L 60,61  L 60,60  L 62,60  L 62,59  L 67,59  L 67,58  L 74,58  L 74,57  L 75,57  L 75,55  L 74,55  L 74,53  L 72,53  L 72,52  L 71,52  L 71,53  L 70,53  L 70,52  L 65,52  L 65,53  L 63,53  L 63,54  L 60,54  L 60,55  L 56,55  L 56,56  L 55,56  L 55,55  L 54,55  L 54,56  L 49,56  L 49,57  L 47,57  L 47,56  L 46,56  L 46,57  L 43,57  L 43,56  L 42,56  L 42,57  L 40,57  L 40,56  L 31,56  L 31,57  L 28,57  L 28,58  L 20,58  L 20,59  L 13,59  L 13,60  L 8,60  L 8,61  L 4,61  L 4,62  L 1,62  L 1,67  L 6,67  L 6,66  L 9,66  L 9,65  L 10,65  L 10,66  L 11,66  L 11,65  L 16,65  L 16,64  Z  " style="fill:rgb(0, 0, 0); fill-opacity:1.000; stroke:none;" />
 <path d="  M 24,4  L 24,5  L 23,5  L 23,7  L 22,7  L 22,8  L 21,8  L 21,10  L 20,10  L 20,11  L 19,11  L 19,13  L 18,13  L 18,15  L 17,15  L 17,16  L 16,16  L 16,20  L 15,20  L 15,22  L 14,22  L 14,26  L 13,26  L 13,33  L 14,33  L 14,35  L 15,35  L 15,40  L 16,40  L 16,41  L 17,41  L 17,43  L 19,43  L 19,44  L 20,44  L 20,45  L 21,45  L 21,47  L 24,47  L 24,48  L 25,48  L 25,49  L 27,49  L 27,50  L 30,50  L 30,51  L 33,51  L 33,50  L 38,50  L 38,49  L 43,49  L 43,48  L 46,48  L 46,47  L 48,47  L 48,46  L 50,46  L 50,45  L 52,45  L 52,44  L 53,44  L 53,43  L 55,43  L 55,42  L 57,42  L 57,41  L 58,41  L 58,40  L 59,40  L 59,38  L 60,38  L 60,37  L 61,37  L 61,35  L 62,35  L 62,32  L 63,32  L 63,20  L 62,20  L 62,15  L 61,15  L 61,12  L 60,12  L 60,11  L 59,11  L 59,10  L 58,10  L 58,9  L 57,9  L 57,8  L 56,8  L 56,7  L 55,7  L 55,6  L 53,6  L 53,5  L 52,5  L 52,4  L 49,4  L 49,3  L 45,3  L 45,2  L 37,2  L 37,1  L 28,1  L 28,2  L 27,2  L 27,3  L 26,3  L 26,4  Z  M 21,21  L 22,21  L 22,19  L 23,19  L 23,16  L 24,16  L 24,15  L 25,15  L 25,14  L 26,14  L 26,13  L 27,13  L 27,12  L 28,12  L 28,11  L 29,11  L 29,10  L 30,10  L 30,9  L 43,9  L 43,10  L 48,10  L 48,11  L 50,11  L 50,12  L 51,12  L 51,13  L 53,13  L 53,14  L 54,14  L 54,15  L 55,15  L 55,17  L 56,17  L 56,26  L 55,26  L 55,31  L 54,31  L 54,34  L 53,34  L 53,36  L 52,36  L 52,37  L 51,37  L 51,39  L 50,39  L 50,40  L 48,40  L 48,41  L 44,41  L 44,42  L 41,42  L 41,43  L 37,43  L 37,44  L 30,44  L 30,43  L 28,43  L 28,42  L 26,42  L 26,41  L 24,41  L 24,40  L 23,40  L 23,38  L 22,38  L 22,37  L 21,37  L 21,34  L 20,34  L 20,29  L 19,29  L 19,28  L 20,28  L 20,24  L 21,24  Z  " style="fill:rgb(0, 0, 0); fill-opacity:1.000; stroke:none;" />
 <path d="  M 93,100  L 93,99  L 91,99  L 91,98  L 89,98  L 89,97  L 87,97  L 87,96  L 85,96  L 85,95  L 80,95  L 80,96  L 73,96  L 73,97  L 70,97  L 70,98  L 67,98  L 67,99  L 66,99  L 66,100  L 64,100  L 64,101  L 63,101  L 63,102  L 61,102  L 61,103  L 59,103  L 59,104  L 58,104  L 58,105  L 57,105  L 57,106  L 56,106  L 56,107  L 55,107  L 55,108  L 54,108  L 54,109  L 53,109  L 53,110  L 52,110  L 52,112  L 51,112  L 51,113  L 50,113  L 50,115  L 49,115  L 49,117  L 48,117  L 48,119  L 47,119  L 47,121  L 46,121  L 46,123  L 45,123  L 45,129  L 44,129  L 44,131  L 45,131  L 45,132  L 44,132  L 44,134  L 45,134  L 45,136  L 46,136  L 46,137  L 47,137  L 47,139  L 48,139  L 48,140  L 49,140  L 49,141  L 51,141  L 51,142  L 53,142  L 53,143  L 55,143  L 55,144  L 58,144  L 58,145  L 63,145  L 63,146  L 75,146  L 75,145  L 79,145  L 79,144  L 83,144  L 83,143  L 87,143  L 87,142  L 90,142  L 90,141  L 93,141  L 93,140  L 95,140  L 95,139  L 96,139  L 96,138  L 99,138  L 99,137  L 101,137  L 101,135  L 102,135  L 102,134  L 103,134  L 103,132  L 104,132  L 104,129  L 105,129  L 105,125  L 106,125  L 106,112  L 105,112  L 105,108  L 104,108  L 104,107  L 103,107  L 103,105  L 101,105  L 101,104  L 100,104  L 100,103  L 98,103  L 98,102  L 97,102  L 97,101  L 96,101  L 96,100  Z  M 52,127  L 53,127  L 53,121  L 54,121  L 54,119  L 55,119  L 55,118  L 56,118  L 56,116  L 57,116  L 57,115  L 58,115  L 58,113  L 59,113  L 59,112  L 60,112  L 60,111  L 61,111  L 61,110  L 63,110  L 63,109  L 64,109  L 64,108  L 66,108  L 66,107  L 69,107  L 69,106  L 70,106  L 70,105  L 74,105  L 74,104  L 78,104  L 78,103  L 85,103  L 85,104  L 87,104  L 87,105  L 90,105  L 90,106  L 91,106  L 91,107  L 93,107  L 93,108  L 94,108  L 94,109  L 96,109  L 96,110  L 97,110  L 97,112  L 98,112  L 98,113  L 99,113  L 99,117  L 100,117  L 100,119  L 99,119  L 99,121  L 100,121  L 100,122  L 99,122  L 99,125  L 98,125  L 98,128  L 97,128  L 97,129  L 96,129  L 96,130  L 95,130  L 95,132  L 94,132  L 94,133  L 92,133  L 92,134  L 91,134  L 91,135  L 90,135  L 90,134  L 89,134  L 89,135  L 88,135  L 88,136  L 84,136  L 84,137  L 80,137  L 80,138  L 77,138  L 77,139  L 71,139  L 71,140  L 70,140  L 70,139  L 69,139  L 69,140  L 68,140  L 68,139  L 67,139  L 67,140  L 66,140  L 66,139  L 61,139  L 61,138  L 58,138  L 58,137  L 56,137  L 56,136  L 54,136  L 54,135  L 53,135  L 53,133  L 52,133  Z  " style="fill:rgb(0, 0, 0); fill-opacity:1.000; stroke:none;" />
 <path d="  M 86,87  L 87,87  L 87,85  L 88,85  L 88,61  L 89,61  L 89,60  L 88,60  L 88,57  L 89,57  L 89,56  L 88,56  L 88,7  L 87,7  L 87,5  L 84,5  L 84,4  L 83,4  L 83,5  L 82,5  L 82,64  L 81,64  L 81,67  L 80,67  L 80,66  L 74,66  L 74,67  L 67,67  L 67,68  L 63,68  L 63,69  L 62,69  L 62,68  L 61,68  L 61,69  L 53,69  L 53,70  L 51,70  L 51,71  L 48,71  L 48,75  L 49,75  L 49,76  L 62,76  L 62,75  L 68,75  L 68,74  L 70,74  L 70,73  L 71,73  L 71,74  L 72,74  L 72,73  L 76,73  L 76,72  L 77,72  L 77,73  L 78,73  L 78,72  L 81,72  L 81,77  L 82,77  L 82,78  L 81,78  L 81,81  L 82,81  L 82,82  L 81,82  L 81,85  L 82,85  L 82,86  L 81,86  L 81,89  L 82,89  L 82,90  L 83,90  L 83,91  L 84,91  L 84,90  L 85,90  L 85,89  L 86,89  Z  " style="fill:rgb(0, 0, 0); fill-opacity:1.000; stroke:none;" />
 <path d="  M 110,78  L 109,78  L 109,77  L 110,77  L 110,76  L 109,76  L 109,48  L 108,48  L 108,45  L 109,45  L 109,44  L 108,44  L 108,26  L 107,26  L 107,11  L 106,11  L 106,8  L 105,8  L 105,7  L 104,7  L 104,8  L 102,8  L 102,9  L 101,9  L 101,12  L 100,12  L 100,13  L 101,13  L 101,14  L 100,14  L 100,15  L 101,15  L 101,25  L 102,25  L 102,41  L 103,41  L 103,64  L 104,64  L 104,65  L 103,65  L 103,67  L 104,67  L 104,69  L 103,69  L 103,70  L 104,70  L 104,91  L 105,91  L 105,92  L 104,92  L 104,93  L 105,93  L 105,101  L 110,101  Z  " style="fill:rgb(0, 0, 0); fill-opacity:1.000; stroke:none;" />
</svg>
