<?xml version="1.0" encoding="UTF-8" standalone="no"?>
<!DOCTYPE svg PUBLIC "-//W3C//DTD SVG 1.1//EN" 
  "http://www.w3.org/Graphics/SVG/1.1/DTD/svg11.dtd">
<svg width="106" height="135"
     xmlns="http://www.w3.org/2000/svg" version="1.1">
 <path d="  M 41,75  L 41,76  L 39,76  L 39,75  L 38,75  L 38,76  L 30,76  L 30,77  L 22,77  L 22,78  L 16,78  L 16,79  L 10,79  L 10,80  L 7,80  L 7,81  L 1,81  L 1,86  L 3,86  L 3,87  L 4,87  L 4,88  L 5,88  L 5,87  L 6,87  L 6,88  L 7,88  L 7,87  L 9,87  L 9,86  L 12,86  L 12,85  L 17,85  L 17,84  L 26,84  L 26,83  L 34,83  L 34,82  L 40,82  L 40,83  L 45,83  L 45,82  L 47,82  L 47,81  L 54,81  L 54,80  L 63,80  L 63,79  L 71,79  L 71,78  L 77,78  L 77,77  L 81,77  L 81,76  L 84,76  L 84,75  L 94,75  L 94,74  L 95,74  L 95,70  L 94,70  L 94,69  L 93,69  L 93,68  L 87,68  L 87,69  L 84,69  L 84,70  L 82,70  L 82,71  L 78,71  L 78,72  L 72,72  L 72,73  L 68,73  L 68,74  L 67,74  L 67,73  L 66,73  L 66,74  L 53,74  L 53,75  L 51,75  L 51,74  L 50,74  L 50,75  Z  " style="fill:rgb(0, 0, 0); fill-opacity:1.000; stroke:none;" />
 <path d="  M 65,36  L 66,36  L 66,37  L 65,37  L 65,42  L 64,42  L 64,45  L 63,45  L 63,47  L 62,47  L 62,48  L 61,48  L 61,49  L 60,49  L 60,52  L 58,52  L 58,53  L 56,53  L 56,54  L 54,54  L 54,55  L 52,55  L 52,56  L 48,56  L 48,57  L 44,57  L 44,58  L 41,58  L 41,59  L 34,59  L 34,58  L 33,58  L 33,59  L 30,59  L 30,58  L 27,58  L 27,57  L 22,57  L 22,56  L 19,56  L 19,55  L 18,55  L 18,54  L 17,54  L 17,49  L 16,49  L 16,48  L 17,48  L 17,44  L 18,44  L 18,41  L 19,41  L 19,39  L 20,39  L 20,37  L 21,37  L 21,35  L 22,35  L 22,33  L 23,33  L 23,32  L 24,32  L 24,30  L 25,30  L 25,29  L 26,29  L 26,27  L 28,27  L 28,26  L 29,26  L 29,25  L 30,25  L 30,24  L 31,24  L 31,22  L 32,22  L 32,21  L 33,21  L 33,20  L 35,20  L 35,19  L 36,19  L 36,18  L 39,18  L 39,17  L 45,17  L 45,18  L 46,18  L 46,17  L 48,17  L 48,18  L 51,18  L 51,19  L 56,19  L 56,20  L 58,20  L 58,21  L 60,21  L 60,22  L 61,22  L 61,23  L 62,23  L 62,24  L 63,24  L 63,25  L 64,25  L 64,28  L 65,28  Z  M 68,49  L 69,49  L 69,48  L 70,48  L 70,46  L 71,46  L 71,43  L 72,43  L 72,29  L 71,29  L 71,27  L 70,27  L 70,25  L 69,25  L 69,23  L 68,23  L 68,21  L 67,21  L 67,20  L 66,20  L 66,19  L 65,19  L 65,18  L 64,18  L 64,17  L 63,17  L 63,16  L 62,16  L 62,15  L 60,15  L 60,14  L 57,14  L 57,13  L 53,13  L 53,12  L 48,12  L 48,11  L 42,11  L 42,10  L 40,10  L 40,9  L 35,9  L 35,10  L 34,10  L 34,11  L 33,11  L 33,12  L 32,12  L 32,13  L 31,13  L 31,14  L 30,14  L 30,15  L 29,15  L 29,16  L 28,16  L 28,17  L 26,17  L 26,18  L 25,18  L 25,19  L 24,19  L 24,20  L 23,20  L 23,21  L 22,21  L 22,23  L 21,23  L 21,25  L 20,25  L 20,26  L 19,26  L 19,28  L 18,28  L 18,29  L 17,29  L 17,31  L 16,31  L 16,34  L 15,34  L 15,35  L 14,35  L 14,38  L 13,38  L 13,41  L 12,41  L 12,43  L 11,43  L 11,47  L 10,47  L 10,52  L 11,52  L 11,57  L 12,57  L 12,59  L 14,59  L 14,60  L 15,60  L 15,61  L 17,61  L 17,62  L 18,62  L 18,63  L 22,63  L 22,64  L 26,64  L 26,65  L 33,65  L 33,66  L 39,66  L 39,65  L 43,65  L 43,64  L 46,64  L 46,63  L 48,63  L 48,62  L 51,62  L 51,61  L 54,61  L 54,60  L 57,60  L 57,59  L 59,59  L 59,58  L 60,58  L 60,57  L 62,57  L 62,56  L 63,56  L 63,55  L 64,55  L 64,54  L 65,54  L 65,53  L 66,53  L 66,52  L 67,52  L 67,51  L 68,51  Z  " style="fill:rgb(0, 0, 0); fill-opacity:1.000; stroke:none;" />
 <path d="  M 41,86  L 41,87  L 40,87  L 40,89  L 39,89  L 39,99  L 38,99  L 38,107  L 37,107  L 37,108  L 38,108  L 38,109  L 37,109  L 37,117  L 36,117  L 36,130  L 37,130  L 37,132  L 41,132  L 41,129  L 42,129  L 42,127  L 43,127  L 43,117  L 44,117  L 44,108  L 45,108  L 45,100  L 46,100  L 46,89  L 45,89  L 45,87  L 44,87  L 44,86  Z  " style="fill:rgb(0, 0, 0); fill-opacity:1.000; stroke:none;" />
 <path d="  M 100,134  L 101,134  L 101,135  L 105,135  L 105,134  L 106,134  L 106,41  L 105,41  L 105,40  L 106,40  L 106,39  L 105,39  L 105,38  L 106,38  L 106,37  L 105,37  L 105,27  L 104,27  L 104,21  L 103,21  L 103,14  L 102,14  L 102,9  L 101,9  L 101,3  L 100,3  L 100,1  L 98,1  L 98,0  L 96,0  L 96,1  L 95,1  L 95,2  L 94,2  L 94,8  L 95,8  L 95,13  L 96,13  L 96,18  L 97,18  L 97,24  L 98,24  L 98,30  L 99,30  L 99,43  L 100,43  L 100,44  L 99,44  L 99,46  L 100,46  Z  " style="fill:rgb(0, 0, 0); fill-opacity:1.000; stroke:none;" />
</svg>
