<?xml version="1.0" encoding="UTF-8" standalone="no"?>
<!DOCTYPE svg PUBLIC "-//W3C//DTD SVG 1.1//EN" 
  "http://www.w3.org/Graphics/SVG/1.1/DTD/svg11.dtd">
<svg width="104" height="171"
     xmlns="http://www.w3.org/2000/svg" version="1.1">
 <path d="  M 75,60  L 75,61  L 67,61  L 67,62  L 44,62  L 44,61  L 42,61  L 42,62  L 41,62  L 41,61  L 23,61  L 23,62  L 22,62  L 22,61  L 21,61  L 21,62  L 20,62  L 20,61  L 19,61  L 19,62  L 17,62  L 17,63  L 10,63  L 10,64  L 7,64  L 7,65  L 4,65  L 4,66  L 1,66  L 1,68  L 0,68  L 0,71  L 1,71  L 1,72  L 2,72  L 2,73  L 5,73  L 5,72  L 7,72  L 7,71  L 11,71  L 11,70  L 17,70  L 17,69  L 18,69  L 18,70  L 19,70  L 19,69  L 30,69  L 30,68  L 31,68  L 31,69  L 32,69  L 32,70  L 33,70  L 33,69  L 37,69  L 37,68  L 39,68  L 39,69  L 40,69  L 40,72  L 39,72  L 39,74  L 40,74  L 40,75  L 39,75  L 39,78  L 40,78  L 40,79  L 39,79  L 39,82  L 40,82  L 40,85  L 39,85  L 39,86  L 40,86  L 40,92  L 41,92  L 41,95  L 42,95  L 42,98  L 43,98  L 43,99  L 44,99  L 44,102  L 45,102  L 45,104  L 44,104  L 44,105  L 42,105  L 42,109  L 61,109  L 61,110  L 67,110  L 67,111  L 70,111  L 70,112  L 73,112  L 73,113  L 75,113  L 75,114  L 77,114  L 77,115  L 78,115  L 78,116  L 79,116  L 79,118  L 80,118  L 80,119  L 79,119  L 79,120  L 78,120  L 78,121  L 75,121  L 75,122  L 72,122  L 72,123  L 69,123  L 69,124  L 68,124  L 68,125  L 66,125  L 66,126  L 64,126  L 64,127  L 63,127  L 63,131  L 61,131  L 61,133  L 59,133  L 59,134  L 57,134  L 57,135  L 55,135  L 55,136  L 54,136  L 54,137  L 52,137  L 52,138  L 49,138  L 49,139  L 48,139  L 48,140  L 46,140  L 46,141  L 45,141  L 45,143  L 44,143  L 44,145  L 42,145  L 42,146  L 41,146  L 41,148  L 40,148  L 40,149  L 38,149  L 38,154  L 39,154  L 39,155  L 38,155  L 38,158  L 39,158  L 39,160  L 40,160  L 40,161  L 41,161  L 41,163  L 42,163  L 42,165  L 43,165  L 43,164  L 44,164  L 44,165  L 45,165  L 45,166  L 46,166  L 46,168  L 48,168  L 48,169  L 49,169  L 49,170  L 52,170  L 52,171  L 70,171  L 70,170  L 73,170  L 73,169  L 76,169  L 76,168  L 78,168  L 78,167  L 79,167  L 79,166  L 80,166  L 80,165  L 82,165  L 82,164  L 83,164  L 83,163  L 84,163  L 84,162  L 85,162  L 85,161  L 87,161  L 87,160  L 88,160  L 88,159  L 89,159  L 89,158  L 90,158  L 90,157  L 92,157  L 92,156  L 94,156  L 94,155  L 95,155  L 95,154  L 97,154  L 97,153  L 98,153  L 98,152  L 99,152  L 99,151  L 101,151  L 101,150  L 102,150  L 102,148  L 103,148  L 103,145  L 102,145  L 102,144  L 96,144  L 96,145  L 95,145  L 95,146  L 93,146  L 93,147  L 91,147  L 91,148  L 90,148  L 90,149  L 89,149  L 89,150  L 87,150  L 87,151  L 86,151  L 86,153  L 84,153  L 84,154  L 83,154  L 83,155  L 82,155  L 82,156  L 81,156  L 81,157  L 79,157  L 79,158  L 77,158  L 77,159  L 76,159  L 76,160  L 74,160  L 74,161  L 72,161  L 72,162  L 71,162  L 71,163  L 67,163  L 67,164  L 65,164  L 65,165  L 63,165  L 63,164  L 62,164  L 62,165  L 55,165  L 55,164  L 52,164  L 52,163  L 50,163  L 50,162  L 49,162  L 49,161  L 48,161  L 48,159  L 47,159  L 47,158  L 46,158  L 46,157  L 45,157  L 45,156  L 44,156  L 44,149  L 45,149  L 45,147  L 46,147  L 46,146  L 50,146  L 50,145  L 52,145  L 52,144  L 54,144  L 54,143  L 55,143  L 55,144  L 56,144  L 56,143  L 58,143  L 58,142  L 61,142  L 61,141  L 62,141  L 62,140  L 64,140  L 64,139  L 65,139  L 65,138  L 66,138  L 66,136  L 67,136  L 67,134  L 68,134  L 68,132  L 69,132  L 69,131  L 70,131  L 70,130  L 72,130  L 72,129  L 75,129  L 75,128  L 79,128  L 79,127  L 83,127  L 83,126  L 84,126  L 84,125  L 86,125  L 86,124  L 87,124  L 87,123  L 88,123  L 88,117  L 87,117  L 87,113  L 86,113  L 86,111  L 84,111  L 84,110  L 83,110  L 83,109  L 82,109  L 82,108  L 81,108  L 81,107  L 79,107  L 79,106  L 76,106  L 76,105  L 72,105  L 72,104  L 68,104  L 68,103  L 64,103  L 64,102  L 60,102  L 60,101  L 52,101  L 52,100  L 51,100  L 51,98  L 50,98  L 50,96  L 49,96  L 49,92  L 48,92  L 48,90  L 47,90  L 47,85  L 46,85  L 46,78  L 47,78  L 47,77  L 46,77  L 46,70  L 47,70  L 47,69  L 50,69  L 50,70  L 53,70  L 53,69  L 54,69  L 54,70  L 55,70  L 55,69  L 68,69  L 68,68  L 69,68  L 69,69  L 70,69  L 70,68  L 71,68  L 71,69  L 72,69  L 72,68  L 80,68  L 80,67  L 83,67  L 83,66  L 84,66  L 84,65  L 85,65  L 85,64  L 86,64  L 86,63  L 85,63  L 85,61  L 84,61  L 84,60  L 83,60  L 83,59  L 80,59  L 80,60  Z  " style="fill:rgb(0, 0, 0); fill-opacity:1.000; stroke:none;" />
 <path d="  M 38,2  L 38,1  L 33,1  L 33,2  L 32,2  L 32,3  L 31,3  L 31,4  L 30,4  L 30,5  L 29,5  L 29,6  L 27,6  L 27,7  L 26,7  L 26,8  L 25,8  L 25,10  L 24,10  L 24,11  L 23,11  L 23,12  L 22,12  L 22,13  L 21,13  L 21,14  L 20,14  L 20,16  L 19,16  L 19,17  L 18,17  L 18,19  L 17,19  L 17,21  L 16,21  L 16,23  L 15,23  L 15,24  L 14,24  L 14,26  L 13,26  L 13,31  L 12,31  L 12,37  L 13,37  L 13,41  L 14,41  L 14,43  L 15,43  L 15,44  L 16,44  L 16,45  L 17,45  L 17,46  L 18,46  L 18,47  L 19,47  L 19,48  L 21,48  L 21,49  L 23,49  L 23,50  L 24,50  L 24,51  L 26,51  L 26,52  L 27,52  L 27,53  L 28,53  L 28,52  L 29,52  L 29,53  L 31,53  L 31,54  L 33,54  L 33,55  L 43,55  L 43,54  L 48,54  L 48,53  L 51,53  L 51,52  L 54,52  L 54,51  L 57,51  L 57,50  L 59,50  L 59,49  L 60,49  L 60,48  L 62,48  L 62,47  L 63,47  L 63,46  L 64,46  L 64,45  L 65,45  L 65,44  L 66,44  L 66,43  L 67,43  L 67,42  L 68,42  L 68,41  L 69,41  L 69,39  L 70,39  L 70,37  L 71,37  L 71,31  L 72,31  L 72,27  L 73,27  L 73,20  L 72,20  L 72,16  L 71,16  L 71,13  L 70,13  L 70,12  L 69,12  L 69,11  L 68,11  L 68,10  L 67,10  L 67,9  L 66,9  L 66,8  L 65,8  L 65,7  L 63,7  L 63,6  L 62,6  L 62,5  L 59,5  L 59,4  L 56,4  L 56,3  L 50,3  L 50,2  Z  M 23,41  L 21,41  L 21,39  L 20,39  L 20,37  L 19,37  L 19,30  L 20,30  L 20,28  L 21,28  L 21,27  L 22,27  L 22,24  L 23,24  L 23,23  L 24,23  L 24,21  L 25,21  L 25,20  L 26,20  L 26,19  L 27,19  L 27,17  L 28,17  L 28,16  L 30,16  L 30,15  L 31,15  L 31,14  L 32,14  L 32,13  L 33,13  L 33,12  L 35,12  L 35,11  L 43,11  L 43,10  L 44,10  L 44,11  L 45,11  L 45,10  L 47,10  L 47,11  L 54,11  L 54,12  L 57,12  L 57,13  L 59,13  L 59,14  L 61,14  L 61,15  L 62,15  L 62,16  L 63,16  L 63,17  L 64,17  L 64,19  L 65,19  L 65,22  L 66,22  L 66,23  L 65,23  L 65,28  L 64,28  L 64,33  L 63,33  L 63,35  L 62,35  L 62,38  L 61,38  L 61,39  L 60,39  L 60,41  L 59,41  L 59,42  L 57,42  L 57,43  L 56,43  L 56,44  L 54,44  L 54,45  L 50,45  L 50,46  L 46,46  L 46,47  L 32,47  L 32,46  L 29,46  L 29,45  L 27,45  L 27,44  L 26,44  L 26,43  L 24,43  L 24,42  L 23,42  Z  " style="fill:rgb(0, 0, 0); fill-opacity:1.000; stroke:none;" />
 <path d="  M 104,23  L 103,23  L 103,5  L 102,5  L 102,1  L 100,1  L 100,0  L 96,0  L 96,21  L 97,21  L 97,22  L 96,22  L 96,24  L 97,24  L 97,100  L 99,100  L 99,101  L 100,101  L 100,100  L 103,100  L 103,97  L 104,97  L 104,96  L 103,96  L 103,94  L 104,94  L 104,92  L 103,92  L 103,91  L 104,91  Z  " style="fill:rgb(0, 0, 0); fill-opacity:1.000; stroke:none;" />
</svg>
