<?xml version="1.0" encoding="UTF-8" standalone="no"?>
<!DOCTYPE svg PUBLIC "-//W3C//DTD SVG 1.1//EN" 
  "http://www.w3.org/Graphics/SVG/1.1/DTD/svg11.dtd">
<svg width="109" height="151"
     xmlns="http://www.w3.org/2000/svg" version="1.1">
 <path d="  M 37,99  L 38,99  L 38,95  L 39,95  L 39,88  L 40,88  L 40,83  L 41,83  L 41,77  L 42,77  L 42,67  L 43,67  L 43,66  L 46,66  L 46,65  L 47,65  L 47,66  L 48,66  L 48,65  L 54,65  L 54,64  L 64,64  L 64,63  L 68,63  L 68,62  L 69,62  L 69,63  L 70,63  L 70,62  L 74,62  L 74,61  L 75,61  L 75,60  L 79,60  L 79,59  L 81,59  L 81,60  L 84,60  L 84,61  L 89,61  L 89,60  L 88,60  L 88,57  L 87,57  L 87,56  L 86,56  L 86,55  L 85,55  L 85,54  L 82,54  L 82,53  L 75,53  L 75,54  L 72,54  L 72,55  L 70,55  L 70,56  L 68,56  L 68,57  L 65,57  L 65,58  L 60,58  L 60,59  L 58,59  L 58,58  L 57,58  L 57,59  L 49,59  L 49,60  L 47,60  L 47,59  L 46,59  L 46,60  L 44,60  L 44,59  L 43,59  L 43,60  L 39,60  L 39,61  L 36,61  L 36,62  L 29,62  L 29,63  L 26,63  L 26,64  L 20,64  L 20,65  L 14,65  L 14,66  L 8,66  L 8,67  L 2,67  L 2,68  L 0,68  L 0,73  L 1,73  L 1,72  L 3,72  L 3,73  L 6,73  L 6,72  L 9,72  L 9,71  L 16,71  L 16,70  L 22,70  L 22,69  L 33,69  L 33,68  L 36,68  L 36,80  L 35,80  L 35,85  L 34,85  L 34,90  L 33,90  L 33,94  L 32,94  L 32,98  L 31,98  L 31,103  L 35,103  L 35,102  L 36,102  L 36,101  L 37,101  Z  " style="fill:rgb(0, 0, 0); fill-opacity:1.000; stroke:none;" />
 <path d="  M 25,6  L 25,8  L 24,8  L 24,9  L 23,9  L 23,11  L 22,11  L 22,12  L 20,12  L 20,14  L 19,14  L 19,15  L 18,15  L 18,17  L 17,17  L 17,18  L 16,18  L 16,20  L 15,20  L 15,23  L 14,23  L 14,25  L 13,25  L 13,28  L 12,28  L 12,35  L 13,35  L 13,37  L 14,37  L 14,40  L 15,40  L 15,42  L 16,42  L 16,43  L 17,43  L 17,44  L 18,44  L 18,45  L 19,45  L 19,46  L 21,46  L 21,47  L 22,47  L 22,48  L 24,48  L 24,49  L 25,49  L 25,50  L 27,50  L 27,51  L 30,51  L 30,52  L 41,52  L 41,51  L 46,51  L 46,50  L 49,50  L 49,49  L 53,49  L 53,48  L 56,48  L 56,47  L 58,47  L 58,46  L 59,46  L 59,45  L 60,45  L 60,44  L 62,44  L 62,43  L 63,43  L 63,42  L 64,42  L 64,41  L 65,41  L 65,40  L 66,40  L 66,38  L 67,38  L 67,35  L 68,35  L 68,34  L 67,34  L 67,32  L 68,32  L 68,28  L 69,28  L 69,24  L 70,24  L 70,16  L 69,16  L 69,13  L 68,13  L 68,10  L 67,10  L 67,9  L 65,9  L 65,8  L 64,8  L 64,7  L 63,7  L 63,6  L 61,6  L 61,5  L 60,5  L 60,4  L 58,4  L 58,3  L 55,3  L 55,2  L 50,2  L 50,1  L 49,1  L 49,2  L 48,2  L 48,1  L 30,1  L 30,2  L 28,2  L 28,3  L 27,3  L 27,5  L 26,5  L 26,6  Z  M 26,43  L 26,42  L 25,42  L 25,41  L 23,41  L 23,40  L 22,40  L 22,39  L 21,39  L 21,38  L 20,38  L 20,32  L 19,32  L 19,31  L 20,31  L 20,26  L 21,26  L 21,24  L 22,24  L 22,22  L 23,22  L 23,21  L 24,21  L 24,19  L 25,19  L 25,18  L 26,18  L 26,16  L 28,16  L 28,14  L 29,14  L 29,13  L 30,13  L 30,12  L 31,12  L 31,11  L 33,11  L 33,10  L 34,10  L 34,9  L 47,9  L 47,10  L 52,10  L 52,11  L 54,11  L 54,12  L 55,12  L 55,11  L 56,11  L 56,12  L 57,12  L 57,13  L 59,13  L 59,14  L 61,14  L 61,15  L 62,15  L 62,17  L 63,17  L 63,22  L 64,22  L 64,23  L 63,23  L 63,26  L 62,26  L 62,30  L 61,30  L 61,34  L 60,34  L 60,36  L 59,36  L 59,37  L 58,37  L 58,38  L 57,38  L 57,39  L 56,39  L 56,40  L 55,40  L 55,41  L 54,41  L 54,42  L 52,42  L 52,43  L 48,43  L 48,44  L 44,44  L 44,45  L 43,45  L 43,44  L 41,44  L 41,45  L 34,45  L 34,44  L 30,44  L 30,43  Z  " style="fill:rgb(0, 0, 0); fill-opacity:1.000; stroke:none;" />
 <path d="  M 30,142  L 29,142  L 29,143  L 28,143  L 28,144  L 27,144  L 27,145  L 26,145  L 26,147  L 25,147  L 25,150  L 26,150  L 26,151  L 31,151  L 31,150  L 32,150  L 32,149  L 33,149  L 33,148  L 34,148  L 34,147  L 35,147  L 35,146  L 36,146  L 36,145  L 37,145  L 37,144  L 38,144  L 38,143  L 39,143  L 39,142  L 40,142  L 40,141  L 41,141  L 41,140  L 42,140  L 42,138  L 44,138  L 44,136  L 45,136  L 45,135  L 46,135  L 46,134  L 47,134  L 47,132  L 48,132  L 48,131  L 49,131  L 49,130  L 50,130  L 50,128  L 51,128  L 51,127  L 52,127  L 52,125  L 53,125  L 53,124  L 54,124  L 54,122  L 55,122  L 55,120  L 56,120  L 56,118  L 57,118  L 57,117  L 60,117  L 60,118  L 61,118  L 61,119  L 62,119  L 62,120  L 63,120  L 63,121  L 64,121  L 64,122  L 65,122  L 65,123  L 67,123  L 67,124  L 68,124  L 68,125  L 70,125  L 70,126  L 71,126  L 71,127  L 73,127  L 73,128  L 74,128  L 74,129  L 75,129  L 75,130  L 77,130  L 77,131  L 78,131  L 78,132  L 80,132  L 80,133  L 83,133  L 83,134  L 84,134  L 84,135  L 86,135  L 86,136  L 88,136  L 88,137  L 91,137  L 91,138  L 94,138  L 94,139  L 96,139  L 96,140  L 98,140  L 98,141  L 99,141  L 99,142  L 101,142  L 101,143  L 102,143  L 102,144  L 103,144  L 103,145  L 105,145  L 105,146  L 109,146  L 109,140  L 108,140  L 108,139  L 107,139  L 107,138  L 106,138  L 106,137  L 104,137  L 104,136  L 103,136  L 103,135  L 102,135  L 102,134  L 99,134  L 99,133  L 97,133  L 97,132  L 94,132  L 94,131  L 91,131  L 91,130  L 89,130  L 89,129  L 88,129  L 88,128  L 86,128  L 86,127  L 84,127  L 84,126  L 82,126  L 82,125  L 81,125  L 81,124  L 79,124  L 79,123  L 78,123  L 78,122  L 76,122  L 76,121  L 75,121  L 75,120  L 73,120  L 73,119  L 71,119  L 71,118  L 70,118  L 70,117  L 69,117  L 69,116  L 68,116  L 68,115  L 67,115  L 67,114  L 65,114  L 65,112  L 64,112  L 64,111  L 63,111  L 63,110  L 62,110  L 62,107  L 64,107  L 64,105  L 65,105  L 65,104  L 67,104  L 67,103  L 69,103  L 69,101  L 70,101  L 70,99  L 71,99  L 71,94  L 70,94  L 70,92  L 69,92  L 69,93  L 66,93  L 66,94  L 65,94  L 65,96  L 64,96  L 64,97  L 63,97  L 63,99  L 62,99  L 62,100  L 60,100  L 60,102  L 58,102  L 58,104  L 57,104  L 57,105  L 56,105  L 56,106  L 55,106  L 55,108  L 54,108  L 54,110  L 53,110  L 53,112  L 52,112  L 52,114  L 51,114  L 51,116  L 50,116  L 50,118  L 49,118  L 49,119  L 48,119  L 48,120  L 47,120  L 47,122  L 46,122  L 46,124  L 45,124  L 45,125  L 44,125  L 44,126  L 43,126  L 43,128  L 42,128  L 42,129  L 41,129  L 41,130  L 40,130  L 40,132  L 39,132  L 39,133  L 38,133  L 38,134  L 37,134  L 37,136  L 35,136  L 35,138  L 33,138  L 33,139  L 32,139  L 32,140  L 31,140  L 31,141  L 30,141  Z  " style="fill:rgb(0, 0, 0); fill-opacity:1.000; stroke:none;" />
 <path d="  M 101,51  L 101,50  L 100,50  L 100,49  L 101,49  L 101,48  L 100,48  L 100,47  L 101,47  L 101,46  L 100,46  L 100,45  L 101,45  L 101,44  L 100,44  L 100,43  L 101,43  L 101,42  L 100,42  L 100,41  L 101,41  L 101,40  L 100,40  L 100,39  L 101,39  L 101,38  L 100,38  L 100,6  L 99,6  L 99,5  L 98,5  L 98,4  L 97,4  L 97,3  L 96,3  L 96,4  L 95,4  L 95,9  L 94,9  L 94,11  L 95,11  L 95,12  L 94,12  L 94,30  L 95,30  L 95,32  L 94,32  L 94,33  L 95,33  L 95,59  L 94,59  L 94,60  L 95,60  L 95,61  L 94,61  L 94,74  L 93,74  L 93,99  L 94,99  L 94,100  L 98,100  L 98,99  L 99,99  L 99,95  L 100,95  L 100,55  L 101,55  L 101,54  L 100,54  L 100,51  Z  " style="fill:rgb(0, 0, 0); fill-opacity:1.000; stroke:none;" />
</svg>
