<?xml version="1.0" encoding="UTF-8" standalone="no"?>
<!DOCTYPE svg PUBLIC "-//W3C//DTD SVG 1.1//EN" 
  "http://www.w3.org/Graphics/SVG/1.1/DTD/svg11.dtd">
<svg width="108" height="158"
     xmlns="http://www.w3.org/2000/svg" version="1.1">
 <path d="  M 70,65  L 70,64  L 74,64  L 74,63  L 76,63  L 76,62  L 81,62  L 81,61  L 84,61  L 84,60  L 86,60  L 86,58  L 87,58  L 87,56  L 86,56  L 86,54  L 85,54  L 85,53  L 79,53  L 79,54  L 78,54  L 78,55  L 75,55  L 75,56  L 72,56  L 72,57  L 71,57  L 71,58  L 69,58  L 69,59  L 68,59  L 68,58  L 67,58  L 67,59  L 64,59  L 64,60  L 57,60  L 57,61  L 56,61  L 56,60  L 55,60  L 55,61  L 52,61  L 52,60  L 51,60  L 51,61  L 48,61  L 48,60  L 47,60  L 47,61  L 45,61  L 45,60  L 43,60  L 43,61  L 37,61  L 37,62  L 27,62  L 27,63  L 21,63  L 21,64  L 15,64  L 15,65  L 9,65  L 9,66  L 6,66  L 6,67  L 1,67  L 1,68  L 0,68  L 0,71  L 1,71  L 1,73  L 6,73  L 6,72  L 8,72  L 8,71  L 12,71  L 12,70  L 13,70  L 13,71  L 15,71  L 15,70  L 22,70  L 22,69  L 35,69  L 35,68  L 38,68  L 38,87  L 39,87  L 39,89  L 38,89  L 38,90  L 39,90  L 39,95  L 40,95  L 40,98  L 41,98  L 41,99  L 42,99  L 42,100  L 46,100  L 46,101  L 48,101  L 48,100  L 49,100  L 49,99  L 48,99  L 48,96  L 47,96  L 47,93  L 46,93  L 46,88  L 45,88  L 45,87  L 46,87  L 46,86  L 45,86  L 45,68  L 46,68  L 46,67  L 59,67  L 59,66  L 64,66  L 64,65  L 65,65  L 65,66  L 66,66  L 66,65  Z  " style="fill:rgb(0, 0, 0); fill-opacity:1.000; stroke:none;" />
 <path d="  M 31,46  L 31,45  L 28,45  L 28,44  L 25,44  L 25,43  L 23,43  L 23,41  L 22,41  L 22,40  L 21,40  L 21,38  L 20,38  L 20,32  L 21,32  L 21,31  L 20,31  L 20,30  L 21,30  L 21,28  L 22,28  L 22,27  L 23,27  L 23,25  L 24,25  L 24,23  L 25,23  L 25,22  L 26,22  L 26,21  L 27,21  L 27,18  L 28,18  L 28,17  L 29,17  L 29,16  L 30,16  L 30,15  L 31,15  L 31,14  L 32,14  L 32,13  L 33,13  L 33,12  L 35,12  L 35,11  L 36,11  L 36,10  L 40,10  L 40,9  L 41,9  L 41,10  L 42,10  L 42,9  L 44,9  L 44,10  L 50,10  L 50,11  L 54,11  L 54,12  L 56,12  L 56,13  L 58,13  L 58,14  L 59,14  L 59,15  L 62,15  L 62,17  L 63,17  L 63,18  L 64,18  L 64,19  L 65,19  L 65,26  L 64,26  L 64,27  L 65,27  L 65,29  L 64,29  L 64,33  L 63,33  L 63,35  L 62,35  L 62,38  L 61,38  L 61,39  L 60,39  L 60,40  L 58,40  L 58,41  L 57,41  L 57,42  L 56,42  L 56,43  L 52,43  L 52,44  L 49,44  L 49,45  L 47,45  L 47,46  Z  M 44,2  L 44,1  L 37,1  L 37,0  L 36,0  L 36,1  L 33,1  L 33,3  L 32,3  L 32,4  L 31,4  L 31,5  L 30,5  L 30,6  L 29,6  L 29,7  L 27,7  L 27,8  L 26,8  L 26,10  L 25,10  L 25,11  L 24,11  L 24,13  L 23,13  L 23,14  L 22,14  L 22,15  L 21,15  L 21,17  L 20,17  L 20,18  L 19,18  L 19,19  L 18,19  L 18,21  L 17,21  L 17,23  L 16,23  L 16,24  L 15,24  L 15,26  L 14,26  L 14,30  L 13,30  L 13,40  L 14,40  L 14,44  L 15,44  L 15,45  L 16,45  L 16,46  L 17,46  L 17,47  L 19,47  L 19,48  L 21,48  L 21,49  L 22,49  L 22,50  L 23,50  L 23,51  L 27,51  L 27,52  L 29,52  L 29,53  L 38,53  L 38,54  L 39,54  L 39,53  L 44,53  L 44,52  L 48,52  L 48,51  L 52,51  L 52,50  L 55,50  L 55,49  L 57,49  L 57,48  L 59,48  L 59,47  L 62,47  L 62,46  L 63,46  L 63,45  L 64,45  L 64,44  L 65,44  L 65,43  L 66,43  L 66,42  L 68,42  L 68,40  L 69,40  L 69,39  L 70,39  L 70,36  L 71,36  L 71,30  L 72,30  L 72,24  L 73,24  L 73,22  L 72,22  L 72,19  L 71,19  L 71,15  L 70,15  L 70,13  L 69,13  L 69,11  L 67,11  L 67,10  L 66,10  L 66,9  L 65,9  L 65,8  L 63,8  L 63,7  L 62,7  L 62,6  L 59,6  L 59,5  L 56,5  L 56,4  L 55,4  L 55,3  L 51,3  L 51,2  Z  " style="fill:rgb(0, 0, 0); fill-opacity:1.000; stroke:none;" />
 <path d="  M 58,116  L 60,116  L 60,115  L 62,115  L 62,114  L 66,114  L 66,113  L 82,113  L 82,114  L 87,114  L 87,115  L 89,115  L 89,116  L 92,116  L 92,117  L 93,117  L 93,118  L 94,118  L 94,119  L 96,119  L 96,121  L 97,121  L 97,128  L 98,128  L 98,129  L 97,129  L 97,130  L 98,130  L 98,131  L 97,131  L 97,136  L 96,136  L 96,138  L 95,138  L 95,140  L 94,140  L 94,141  L 93,141  L 93,143  L 91,143  L 91,144  L 89,144  L 89,145  L 87,145  L 87,146  L 85,146  L 85,147  L 81,147  L 81,148  L 80,148  L 80,149  L 76,149  L 76,150  L 73,150  L 73,151  L 72,151  L 72,150  L 71,150  L 71,151  L 64,151  L 64,152  L 63,152  L 63,151  L 56,151  L 56,150  L 51,150  L 51,149  L 48,149  L 48,148  L 45,148  L 45,147  L 44,147  L 44,146  L 43,146  L 43,138  L 44,138  L 44,134  L 45,134  L 45,132  L 46,132  L 46,130  L 47,130  L 47,128  L 48,128  L 48,126  L 49,126  L 49,125  L 50,125  L 50,124  L 51,124  L 51,123  L 52,123  L 52,121  L 54,121  L 54,120  L 55,120  L 55,118  L 57,118  L 57,117  L 58,117  Z  M 41,128  L 39,128  L 39,131  L 38,131  L 38,133  L 37,133  L 37,135  L 36,135  L 36,138  L 35,138  L 35,143  L 36,143  L 36,148  L 37,148  L 37,150  L 38,150  L 38,152  L 39,152  L 39,153  L 42,153  L 42,154  L 45,154  L 45,155  L 48,155  L 48,156  L 53,156  L 53,157  L 55,157  L 55,158  L 73,158  L 73,157  L 76,157  L 76,156  L 80,156  L 80,155  L 82,155  L 82,154  L 84,154  L 84,153  L 87,153  L 87,152  L 89,152  L 89,151  L 90,151  L 90,150  L 93,150  L 93,149  L 95,149  L 95,148  L 96,148  L 96,147  L 97,147  L 97,146  L 99,146  L 99,145  L 100,145  L 100,143  L 101,143  L 101,142  L 102,142  L 102,140  L 103,140  L 103,137  L 104,137  L 104,124  L 103,124  L 103,120  L 102,120  L 102,116  L 101,116  L 101,114  L 100,114  L 100,113  L 98,113  L 98,111  L 97,111  L 97,110  L 94,110  L 94,109  L 92,109  L 92,108  L 90,108  L 90,107  L 85,107  L 85,106  L 79,106  L 79,105  L 61,105  L 61,106  L 58,106  L 58,107  L 57,107  L 57,108  L 56,108  L 56,109  L 55,109  L 55,110  L 53,110  L 53,111  L 52,111  L 52,112  L 51,112  L 51,113  L 50,113  L 50,114  L 49,114  L 49,115  L 48,115  L 48,116  L 47,116  L 47,117  L 46,117  L 46,120  L 45,120  L 45,121  L 44,121  L 44,123  L 43,123  L 43,124  L 42,124  L 42,126  L 41,126  Z  " style="fill:rgb(0, 0, 0); fill-opacity:1.000; stroke:none;" />
 <path d="  M 102,107  L 103,107  L 103,108  L 105,108  L 105,109  L 108,109  L 108,104  L 107,104  L 107,98  L 106,98  L 106,97  L 107,97  L 107,96  L 106,96  L 106,82  L 105,82  L 105,48  L 104,48  L 104,45  L 105,45  L 105,44  L 104,44  L 104,32  L 103,32  L 103,22  L 102,22  L 102,16  L 101,16  L 101,15  L 102,15  L 102,14  L 101,14  L 101,7  L 100,7  L 100,3  L 99,3  L 99,2  L 98,2  L 98,1  L 96,1  L 96,2  L 94,2  L 94,10  L 95,10  L 95,15  L 96,15  L 96,21  L 97,21  L 97,31  L 98,31  L 98,32  L 97,32  L 97,33  L 98,33  L 98,44  L 99,44  L 99,46  L 98,46  L 98,47  L 99,47  L 99,50  L 98,50  L 98,51  L 99,51  L 99,84  L 100,84  L 100,86  L 99,86  L 99,87  L 100,87  L 100,100  L 101,100  L 101,106  L 102,106  Z  " style="fill:rgb(0, 0, 0); fill-opacity:1.000; stroke:none;" />
</svg>
