<?xml version="1.0" encoding="UTF-8" standalone="no"?>
<!DOCTYPE svg PUBLIC "-//W3C//DTD SVG 1.1//EN" 
  "http://www.w3.org/Graphics/SVG/1.1/DTD/svg11.dtd">
<svg width="108" height="173"
     xmlns="http://www.w3.org/2000/svg" version="1.1">
 <path d="  M 42,107  L 41,107  L 41,115  L 42,115  L 42,116  L 43,116  L 43,114  L 46,114  L 46,113  L 47,113  L 47,110  L 48,110  L 48,109  L 49,109  L 49,104  L 48,104  L 48,97  L 47,97  L 47,85  L 46,85  L 46,77  L 45,77  L 45,76  L 46,76  L 46,74  L 48,74  L 48,73  L 49,73  L 49,74  L 50,74  L 50,73  L 57,73  L 57,72  L 58,72  L 58,73  L 59,73  L 59,72  L 69,72  L 69,75  L 68,75  L 68,77  L 69,77  L 69,115  L 70,115  L 70,116  L 71,116  L 71,117  L 72,117  L 72,119  L 74,119  L 74,117  L 75,117  L 75,116  L 76,116  L 76,105  L 77,105  L 77,104  L 76,104  L 76,98  L 77,98  L 77,89  L 78,89  L 78,88  L 77,88  L 77,85  L 78,85  L 78,84  L 77,84  L 77,83  L 78,83  L 78,82  L 77,82  L 77,81  L 78,81  L 78,80  L 77,80  L 77,77  L 78,77  L 78,72  L 82,72  L 82,71  L 87,71  L 87,70  L 88,70  L 88,71  L 89,71  L 89,70  L 96,70  L 96,69  L 98,69  L 98,70  L 99,70  L 99,69  L 101,69  L 101,68  L 102,68  L 102,69  L 103,69  L 103,68  L 106,68  L 106,67  L 107,67  L 107,66  L 108,66  L 108,59  L 105,59  L 105,60  L 102,60  L 102,61  L 98,61  L 98,62  L 92,62  L 92,63  L 88,63  L 88,64  L 87,64  L 87,63  L 86,63  L 86,64  L 82,64  L 82,65  L 80,65  L 80,64  L 79,64  L 79,65  L 76,65  L 76,64  L 75,64  L 75,65  L 62,65  L 62,66  L 61,66  L 61,65  L 58,65  L 58,66  L 57,66  L 57,65  L 55,65  L 55,66  L 49,66  L 49,67  L 46,67  L 46,66  L 45,66  L 45,67  L 36,67  L 36,68  L 34,68  L 34,67  L 33,67  L 33,68  L 28,68  L 28,69  L 24,69  L 24,70  L 18,70  L 18,71  L 14,71  L 14,72  L 13,72  L 13,71  L 12,71  L 12,72  L 7,72  L 7,73  L 2,73  L 2,74  L 1,74  L 1,76  L 0,76  L 0,77  L 1,77  L 1,78  L 2,78  L 2,79  L 13,79  L 13,78  L 14,78  L 14,79  L 15,79  L 15,78  L 22,78  L 22,77  L 30,77  L 30,76  L 33,76  L 33,77  L 34,77  L 34,76  L 38,76  L 38,77  L 39,77  L 39,86  L 40,86  L 40,97  L 41,97  L 41,104  L 40,104  L 40,105  L 42,105  Z  " style="fill:rgb(0, 0, 0); fill-opacity:1.000; stroke:none;" />
 <path d="  M 28,33  L 28,32  L 29,32  L 29,31  L 30,31  L 30,30  L 31,30  L 31,28  L 32,28  L 32,27  L 33,27  L 33,26  L 35,26  L 35,25  L 36,25  L 36,24  L 37,24  L 37,22  L 38,22  L 38,21  L 39,21  L 39,20  L 40,20  L 40,19  L 41,19  L 41,18  L 42,18  L 42,17  L 43,17  L 43,16  L 44,16  L 44,15  L 45,15  L 45,14  L 46,14  L 46,13  L 48,13  L 48,12  L 53,12  L 53,11  L 58,11  L 58,10  L 63,10  L 63,11  L 67,11  L 67,12  L 72,12  L 72,13  L 74,13  L 74,14  L 77,14  L 77,15  L 79,15  L 79,16  L 80,16  L 80,18  L 81,18  L 81,20  L 82,20  L 82,24  L 83,24  L 83,26  L 82,26  L 82,28  L 81,28  L 81,31  L 80,31  L 80,34  L 79,34  L 79,37  L 78,37  L 78,40  L 77,40  L 77,41  L 76,41  L 76,42  L 75,42  L 75,43  L 74,43  L 74,44  L 73,44  L 73,45  L 71,45  L 71,46  L 69,46  L 69,47  L 66,47  L 66,48  L 63,48  L 63,49  L 62,49  L 62,50  L 60,50  L 60,51  L 57,51  L 57,52  L 52,52  L 52,53  L 46,53  L 46,52  L 44,52  L 44,53  L 38,53  L 38,52  L 32,52  L 32,51  L 30,51  L 30,50  L 29,50  L 29,49  L 28,49  L 28,48  L 27,48  L 27,47  L 26,47  L 26,46  L 25,46  L 25,45  L 24,45  L 24,42  L 23,42  L 23,41  L 24,41  L 24,39  L 25,39  L 25,36  L 27,36  L 27,33  Z  M 25,25  L 25,26  L 24,26  L 24,27  L 23,27  L 23,28  L 22,28  L 22,29  L 21,29  L 21,31  L 20,31  L 20,32  L 19,32  L 19,33  L 18,33  L 18,34  L 17,34  L 17,38  L 16,38  L 16,43  L 17,43  L 17,44  L 16,44  L 16,45  L 17,45  L 17,47  L 18,47  L 18,49  L 19,49  L 19,50  L 20,50  L 20,51  L 21,51  L 21,53  L 23,53  L 23,54  L 24,54  L 24,55  L 25,55  L 25,56  L 27,56  L 27,57  L 28,57  L 28,58  L 30,58  L 30,59  L 33,59  L 33,60  L 43,60  L 43,61  L 44,61  L 44,60  L 53,60  L 53,59  L 57,59  L 57,58  L 60,58  L 60,57  L 65,57  L 65,56  L 68,56  L 68,55  L 69,55  L 69,54  L 72,54  L 72,53  L 75,53  L 75,52  L 77,52  L 77,51  L 78,51  L 78,50  L 80,50  L 80,49  L 81,49  L 81,47  L 82,47  L 82,45  L 83,45  L 83,44  L 84,44  L 84,42  L 85,42  L 85,40  L 86,40  L 86,37  L 87,37  L 87,35  L 88,35  L 88,32  L 89,32  L 89,31  L 90,31  L 90,22  L 91,22  L 91,19  L 90,19  L 90,17  L 89,17  L 89,16  L 88,16  L 88,14  L 87,14  L 87,13  L 86,13  L 86,12  L 85,12  L 85,11  L 83,11  L 83,9  L 81,9  L 81,8  L 80,8  L 80,7  L 77,7  L 77,6  L 74,6  L 74,5  L 70,5  L 70,4  L 67,4  L 67,3  L 62,3  L 62,2  L 59,2  L 59,1  L 58,1  L 58,2  L 57,2  L 57,1  L 50,1  L 50,2  L 47,2  L 47,3  L 45,3  L 45,4  L 44,4  L 44,5  L 43,5  L 43,6  L 42,6  L 42,7  L 41,7  L 41,8  L 40,8  L 40,10  L 39,10  L 39,11  L 38,11  L 38,12  L 37,12  L 37,13  L 36,13  L 36,14  L 35,14  L 35,15  L 34,15  L 34,16  L 33,16  L 33,17  L 32,17  L 32,18  L 31,18  L 31,20  L 29,20  L 29,21  L 28,21  L 28,22  L 27,22  L 27,24  L 26,24  L 26,25  Z  " style="fill:rgb(0, 0, 0); fill-opacity:1.000; stroke:none;" />
 <path d="  M 67,128  L 67,129  L 68,129  L 68,130  L 70,130  L 70,131  L 71,131  L 71,132  L 72,132  L 72,134  L 73,134  L 73,135  L 74,135  L 74,137  L 75,137  L 75,146  L 74,146  L 74,149  L 73,149  L 73,154  L 72,154  L 72,158  L 71,158  L 71,159  L 70,159  L 70,161  L 69,161  L 69,162  L 68,162  L 68,163  L 67,163  L 67,164  L 64,164  L 64,165  L 61,165  L 61,166  L 40,166  L 40,165  L 37,165  L 37,164  L 36,164  L 36,163  L 35,163  L 35,162  L 34,162  L 34,160  L 33,160  L 33,157  L 32,157  L 32,152  L 31,152  L 31,151  L 32,151  L 32,144  L 33,144  L 33,143  L 34,143  L 34,141  L 35,141  L 35,139  L 36,139  L 36,138  L 37,138  L 37,137  L 38,137  L 38,136  L 39,136  L 39,134  L 40,134  L 40,133  L 41,133  L 41,132  L 43,132  L 43,131  L 45,131  L 45,130  L 48,130  L 48,129  L 53,129  L 53,128  L 55,128  L 55,129  L 56,129  L 56,128  Z  M 29,165  L 29,167  L 30,167  L 30,168  L 31,168  L 31,169  L 32,169  L 32,170  L 33,170  L 33,171  L 35,171  L 35,172  L 38,172  L 38,173  L 64,173  L 64,172  L 69,172  L 69,171  L 71,171  L 71,170  L 72,170  L 72,169  L 73,169  L 73,168  L 74,168  L 74,167  L 75,167  L 75,166  L 76,166  L 76,165  L 77,165  L 77,163  L 78,163  L 78,162  L 79,162  L 79,159  L 80,159  L 80,156  L 81,156  L 81,153  L 82,153  L 82,149  L 83,149  L 83,148  L 82,148  L 82,146  L 83,146  L 83,134  L 82,134  L 82,131  L 81,131  L 81,130  L 80,130  L 80,128  L 79,128  L 79,126  L 77,126  L 77,125  L 76,125  L 76,124  L 74,124  L 74,123  L 73,123  L 73,122  L 72,122  L 72,121  L 71,121  L 71,120  L 67,120  L 67,119  L 62,119  L 62,120  L 48,120  L 48,119  L 47,119  L 47,120  L 43,120  L 43,121  L 42,121  L 42,122  L 41,122  L 41,123  L 40,123  L 40,124  L 39,124  L 39,126  L 38,126  L 38,127  L 37,127  L 37,128  L 36,128  L 36,129  L 35,129  L 35,130  L 34,130  L 34,131  L 32,131  L 32,132  L 31,132  L 31,133  L 30,133  L 30,134  L 29,134  L 29,135  L 28,135  L 28,137  L 27,137  L 27,139  L 26,139  L 26,141  L 25,141  L 25,146  L 24,146  L 24,154  L 25,154  L 25,160  L 26,160  L 26,162  L 27,162  L 27,164  L 28,164  L 28,165  Z  " style="fill:rgb(0, 0, 0); fill-opacity:1.000; stroke:none;" />
</svg>
