<?xml version="1.0" encoding="UTF-8" standalone="no"?>
<!DOCTYPE svg PUBLIC "-//W3C//DTD SVG 1.1//EN" 
  "http://www.w3.org/Graphics/SVG/1.1/DTD/svg11.dtd">
<svg width="103" height="104"
     xmlns="http://www.w3.org/2000/svg" version="1.1">
 <path d="  M 31,103  L 31,102  L 32,102  L 32,103  L 34,103  L 34,102  L 50,102  L 50,101  L 67,101  L 67,100  L 77,100  L 77,99  L 90,99  L 90,98  L 100,98  L 100,97  L 102,97  L 102,96  L 103,96  L 103,90  L 97,90  L 97,91  L 92,91  L 92,92  L 84,92  L 84,93  L 74,93  L 74,94  L 71,94  L 71,93  L 70,93  L 70,94  L 61,94  L 61,95  L 60,95  L 60,94  L 58,94  L 58,95  L 55,95  L 55,94  L 54,94  L 54,95  L 43,95  L 43,96  L 28,96  L 28,97  L 15,97  L 15,98  L 14,98  L 14,97  L 13,97  L 13,98  L 3,98  L 3,99  L 0,99  L 0,101  L 1,101  L 1,103  L 3,103  L 3,104  L 17,104  L 17,103  L 18,103  L 18,104  L 19,104  L 19,103  Z  " style="fill:rgb(0, 0, 0); fill-opacity:1.000; stroke:none;" />
 <path d="  M 31,16  L 31,17  L 30,17  L 30,18  L 29,18  L 29,19  L 28,19  L 28,20  L 27,20  L 27,21  L 26,21  L 26,22  L 25,22  L 25,24  L 24,24  L 24,27  L 23,27  L 23,28  L 22,28  L 22,30  L 21,30  L 21,32  L 20,32  L 20,35  L 19,35  L 19,38  L 18,38  L 18,41  L 17,41  L 17,46  L 18,46  L 18,49  L 19,49  L 19,52  L 20,52  L 20,54  L 21,54  L 21,55  L 22,55  L 22,56  L 23,56  L 23,57  L 24,57  L 24,58  L 25,58  L 25,59  L 27,59  L 27,60  L 28,60  L 28,61  L 29,61  L 29,62  L 31,62  L 31,64  L 32,64  L 32,63  L 33,63  L 33,64  L 36,64  L 36,65  L 39,65  L 39,66  L 42,66  L 42,67  L 51,67  L 51,66  L 52,66  L 52,67  L 53,67  L 53,66  L 58,66  L 58,65  L 63,65  L 63,64  L 66,64  L 66,63  L 68,63  L 68,62  L 70,62  L 70,61  L 71,61  L 71,60  L 72,60  L 72,59  L 74,59  L 74,58  L 75,58  L 75,57  L 76,57  L 76,56  L 77,56  L 77,55  L 78,55  L 78,54  L 79,54  L 79,53  L 80,53  L 80,51  L 81,51  L 81,50  L 82,50  L 82,48  L 83,48  L 83,47  L 84,47  L 84,44  L 85,44  L 85,42  L 86,42  L 86,37  L 87,37  L 87,32  L 88,32  L 88,23  L 87,23  L 87,20  L 86,20  L 86,18  L 85,18  L 85,17  L 84,17  L 84,16  L 83,16  L 83,15  L 82,15  L 82,14  L 81,14  L 81,13  L 80,13  L 80,12  L 79,12  L 79,11  L 77,11  L 77,10  L 75,10  L 75,9  L 73,9  L 73,8  L 70,8  L 70,7  L 66,7  L 66,6  L 62,6  L 62,5  L 60,5  L 60,4  L 58,4  L 58,3  L 55,3  L 55,2  L 52,2  L 52,1  L 49,1  L 49,0  L 47,0  L 47,1  L 46,1  L 46,2  L 44,2  L 44,4  L 43,4  L 43,5  L 42,5  L 42,7  L 41,7  L 41,8  L 40,8  L 40,9  L 39,9  L 39,10  L 38,10  L 38,11  L 36,11  L 36,12  L 35,12  L 35,13  L 34,13  L 34,14  L 33,14  L 33,15  L 32,15  L 32,16  Z  M 41,60  L 41,59  L 37,59  L 37,58  L 35,58  L 35,57  L 33,57  L 33,56  L 31,56  L 31,54  L 29,54  L 29,52  L 27,52  L 27,51  L 26,51  L 26,49  L 25,49  L 25,45  L 24,45  L 24,43  L 25,43  L 25,42  L 24,42  L 24,40  L 25,40  L 25,36  L 26,36  L 26,34  L 27,34  L 27,31  L 28,31  L 28,29  L 29,29  L 29,27  L 30,27  L 30,26  L 31,26  L 31,25  L 32,25  L 32,24  L 33,24  L 33,22  L 34,22  L 34,21  L 35,21  L 35,20  L 36,20  L 36,19  L 37,19  L 37,18  L 39,18  L 39,16  L 40,16  L 40,15  L 41,15  L 41,14  L 42,14  L 42,13  L 43,13  L 43,12  L 44,12  L 44,11  L 46,11  L 46,10  L 47,10  L 47,9  L 55,9  L 55,10  L 58,10  L 58,11  L 61,11  L 61,12  L 65,12  L 65,13  L 68,13  L 68,14  L 70,14  L 70,15  L 72,15  L 72,16  L 74,16  L 74,17  L 76,17  L 76,18  L 77,18  L 77,19  L 78,19  L 78,20  L 79,20  L 79,21  L 80,21  L 80,23  L 81,23  L 81,32  L 80,32  L 80,38  L 79,38  L 79,41  L 78,41  L 78,43  L 77,43  L 77,44  L 76,44  L 76,47  L 75,47  L 75,48  L 74,48  L 74,49  L 73,49  L 73,50  L 72,50  L 72,51  L 71,51  L 71,52  L 69,52  L 69,53  L 68,53  L 68,54  L 67,54  L 67,55  L 66,55  L 66,56  L 65,56  L 65,57  L 62,57  L 62,58  L 59,58  L 59,59  L 54,59  L 54,60  Z  " style="fill:rgb(0, 0, 0); fill-opacity:1.000; stroke:none;" />
</svg>
