<?xml version="1.0" encoding="UTF-8" standalone="no"?>
<!DOCTYPE svg PUBLIC "-//W3C//DTD SVG 1.1//EN" 
  "http://www.w3.org/Graphics/SVG/1.1/DTD/svg11.dtd">
<svg width="107" height="178"
     xmlns="http://www.w3.org/2000/svg" version="1.1">
 <path d="  M 50,83  L 50,82  L 64,82  L 64,81  L 79,81  L 79,80  L 88,80  L 88,79  L 98,79  L 98,78  L 104,78  L 104,77  L 106,77  L 106,76  L 107,76  L 107,70  L 101,70  L 101,71  L 97,71  L 97,72  L 90,72  L 90,73  L 85,73  L 85,74  L 73,74  L 73,75  L 72,75  L 72,74  L 70,74  L 70,75  L 68,75  L 68,74  L 67,74  L 67,75  L 49,75  L 49,76  L 48,76  L 48,75  L 47,75  L 47,76  L 38,76  L 38,77  L 36,77  L 36,76  L 35,76  L 35,77  L 31,77  L 31,78  L 23,78  L 23,79  L 14,79  L 14,80  L 7,80  L 7,81  L 1,81  L 1,87  L 5,87  L 5,88  L 9,88  L 9,87  L 12,87  L 12,86  L 13,86  L 13,87  L 14,87  L 14,86  L 20,86  L 20,85  L 28,85  L 28,84  L 30,84  L 30,85  L 31,85  L 31,84  L 38,84  L 38,83  L 39,83  L 39,84  L 40,84  L 40,83  L 48,83  L 48,82  L 49,82  L 49,83  Z  " style="fill:rgb(0, 0, 0); fill-opacity:1.000; stroke:none;" />
 <path d="  M 16,40  L 15,40  L 15,41  L 16,41  L 16,45  L 17,45  L 17,46  L 18,46  L 18,48  L 19,48  L 19,49  L 20,49  L 20,50  L 21,50  L 21,52  L 22,52  L 22,53  L 23,53  L 23,54  L 24,54  L 24,55  L 25,55  L 25,56  L 26,56  L 26,57  L 27,57  L 27,58  L 29,58  L 29,59  L 30,59  L 30,60  L 31,60  L 31,61  L 32,61  L 32,62  L 38,62  L 38,63  L 44,63  L 44,64  L 51,64  L 51,63  L 56,63  L 56,62  L 57,62  L 57,63  L 58,63  L 58,62  L 60,62  L 60,61  L 63,61  L 63,60  L 66,60  L 66,59  L 68,59  L 68,58  L 69,58  L 69,57  L 72,57  L 72,55  L 74,55  L 74,54  L 75,54  L 75,53  L 77,53  L 77,52  L 78,52  L 78,51  L 79,51  L 79,50  L 80,50  L 80,48  L 81,48  L 81,47  L 82,47  L 82,45  L 83,45  L 83,43  L 84,43  L 84,41  L 85,41  L 85,39  L 86,39  L 86,35  L 87,35  L 87,34  L 88,34  L 88,32  L 89,32  L 89,29  L 90,29  L 90,22  L 91,22  L 91,18  L 90,18  L 90,15  L 89,15  L 89,13  L 88,13  L 88,12  L 87,12  L 87,10  L 86,10  L 86,9  L 85,9  L 85,8  L 83,8  L 83,7  L 82,7  L 82,6  L 79,6  L 79,5  L 76,5  L 76,4  L 74,4  L 74,3  L 69,3  L 69,2  L 64,2  L 64,1  L 56,1  L 56,0  L 53,0  L 53,1  L 49,1  L 49,2  L 46,2  L 46,3  L 44,3  L 44,4  L 41,4  L 41,5  L 40,5  L 40,6  L 39,6  L 39,7  L 37,7  L 37,8  L 36,8  L 36,9  L 35,9  L 35,10  L 34,10  L 34,11  L 33,11  L 33,13  L 32,13  L 32,14  L 31,14  L 31,16  L 30,16  L 30,17  L 29,17  L 29,18  L 28,18  L 28,20  L 27,20  L 27,21  L 26,21  L 26,22  L 25,22  L 25,23  L 24,23  L 24,24  L 23,24  L 23,25  L 22,25  L 22,27  L 21,27  L 21,29  L 20,29  L 20,30  L 19,30  L 19,31  L 18,31  L 18,32  L 17,32  L 17,33  L 16,33  Z  M 81,17  L 82,17  L 82,20  L 83,20  L 83,22  L 82,22  L 82,28  L 81,28  L 81,30  L 80,30  L 80,32  L 79,32  L 79,36  L 78,36  L 78,38  L 77,38  L 77,40  L 76,40  L 76,43  L 75,43  L 75,44  L 74,44  L 74,45  L 73,45  L 73,46  L 72,46  L 72,47  L 71,47  L 71,48  L 69,48  L 69,49  L 67,49  L 67,50  L 66,50  L 66,51  L 64,51  L 64,52  L 62,52  L 62,53  L 61,53  L 61,54  L 58,54  L 58,55  L 54,55  L 54,56  L 39,56  L 39,55  L 37,55  L 37,54  L 35,54  L 35,53  L 32,53  L 32,52  L 31,52  L 31,51  L 30,51  L 30,50  L 28,50  L 28,48  L 27,48  L 27,46  L 26,46  L 26,45  L 25,45  L 25,44  L 24,44  L 24,43  L 23,43  L 23,36  L 24,36  L 24,34  L 25,34  L 25,33  L 26,33  L 26,32  L 27,32  L 27,30  L 28,30  L 28,29  L 29,29  L 29,28  L 30,28  L 30,27  L 31,27  L 31,26  L 32,26  L 32,24  L 34,24  L 34,22  L 35,22  L 35,21  L 36,21  L 36,20  L 37,20  L 37,19  L 38,19  L 38,18  L 39,18  L 39,17  L 40,17  L 40,15  L 42,15  L 42,14  L 43,14  L 43,13  L 44,13  L 44,12  L 48,12  L 48,11  L 51,11  L 51,10  L 54,10  L 54,9  L 64,9  L 64,10  L 66,10  L 66,9  L 67,9  L 67,10  L 71,10  L 71,11  L 74,11  L 74,12  L 76,12  L 76,13  L 79,13  L 79,14  L 80,14  L 80,15  L 81,15  Z  " style="fill:rgb(0, 0, 0); fill-opacity:1.000; stroke:none;" />
 <path d="  M 33,107  L 34,107  L 34,103  L 35,103  L 35,98  L 34,98  L 34,97  L 33,97  L 33,96  L 31,96  L 31,97  L 30,97  L 30,98  L 29,98  L 29,99  L 28,99  L 28,100  L 27,100  L 27,104  L 26,104  L 26,108  L 25,108  L 25,111  L 24,111  L 24,120  L 23,120  L 23,121  L 24,121  L 24,123  L 23,123  L 23,167  L 24,167  L 24,172  L 25,172  L 25,174  L 26,174  L 26,176  L 27,176  L 27,177  L 28,177  L 28,178  L 42,178  L 42,177  L 48,177  L 48,176  L 51,176  L 51,175  L 55,175  L 55,174  L 57,174  L 57,173  L 62,173  L 62,172  L 66,172  L 66,171  L 68,171  L 68,170  L 70,170  L 70,169  L 72,169  L 72,168  L 73,168  L 73,167  L 74,167  L 74,166  L 75,166  L 75,164  L 76,164  L 76,163  L 77,163  L 77,157  L 78,157  L 78,156  L 77,156  L 77,154  L 78,154  L 78,153  L 79,153  L 79,147  L 80,147  L 80,143  L 81,143  L 81,141  L 82,141  L 82,138  L 83,138  L 83,136  L 84,136  L 84,133  L 86,133  L 86,132  L 85,132  L 85,131  L 86,131  L 86,128  L 85,128  L 85,127  L 86,127  L 86,126  L 85,126  L 85,125  L 86,125  L 86,124  L 85,124  L 85,114  L 84,114  L 84,107  L 83,107  L 83,100  L 82,100  L 82,98  L 81,98  L 81,97  L 80,97  L 80,94  L 78,94  L 78,96  L 77,96  L 77,99  L 76,99  L 76,103  L 77,103  L 77,104  L 76,104  L 76,105  L 77,105  L 77,112  L 78,112  L 78,125  L 79,125  L 79,127  L 80,127  L 80,130  L 79,130  L 79,131  L 78,131  L 78,132  L 71,132  L 71,133  L 68,133  L 68,134  L 61,134  L 61,135  L 60,135  L 60,134  L 59,134  L 59,135  L 54,135  L 54,136  L 47,136  L 47,135  L 46,135  L 46,136  L 44,136  L 44,135  L 37,135  L 37,134  L 34,134  L 34,133  L 32,133  L 32,132  L 30,132  L 30,125  L 31,125  L 31,119  L 32,119  L 32,115  L 33,115  L 33,114  L 32,114  L 32,113  L 33,113  Z  M 70,162  L 69,162  L 69,163  L 67,163  L 67,164  L 65,164  L 65,165  L 64,165  L 64,166  L 59,166  L 59,167  L 54,167  L 54,168  L 50,168  L 50,169  L 48,169  L 48,170  L 42,170  L 42,171  L 40,171  L 40,170  L 39,170  L 39,171  L 36,171  L 36,170  L 33,170  L 33,169  L 31,169  L 31,168  L 30,168  L 30,165  L 29,165  L 29,161  L 30,161  L 30,160  L 29,160  L 29,157  L 30,157  L 30,156  L 29,156  L 29,153  L 30,153  L 30,152  L 29,152  L 29,151  L 30,151  L 30,150  L 29,150  L 29,142  L 30,142  L 30,139  L 31,139  L 31,138  L 32,138  L 32,140  L 33,140  L 33,141  L 36,141  L 36,142  L 39,142  L 39,143  L 43,143  L 43,144  L 61,144  L 61,143  L 65,143  L 65,142  L 66,142  L 66,141  L 67,141  L 67,142  L 68,142  L 68,141  L 73,141  L 73,146  L 72,146  L 72,148  L 71,148  L 71,154  L 70,154  Z  " style="fill:rgb(0, 0, 0); fill-opacity:1.000; stroke:none;" />
</svg>
