<?xml version="1.0" encoding="UTF-8" standalone="no"?>
<!DOCTYPE svg PUBLIC "-//W3C//DTD SVG 1.1//EN" 
  "http://www.w3.org/Graphics/SVG/1.1/DTD/svg11.dtd">
<svg width="114" height="173"
     xmlns="http://www.w3.org/2000/svg" version="1.1">
 <path d="  M 39,83  L 43,83  L 43,82  L 44,82  L 44,83  L 45,83  L 45,82  L 46,82  L 46,83  L 47,83  L 47,82  L 55,82  L 55,81  L 64,81  L 64,80  L 65,80  L 65,81  L 66,81  L 66,80  L 68,80  L 68,79  L 93,79  L 93,78  L 94,78  L 94,79  L 95,79  L 95,78  L 107,78  L 107,76  L 108,76  L 108,75  L 109,75  L 109,74  L 108,74  L 108,73  L 109,73  L 109,71  L 108,71  L 108,70  L 107,70  L 107,69  L 104,69  L 104,70  L 100,70  L 100,71  L 74,71  L 74,72  L 73,72  L 73,71  L 70,71  L 70,72  L 69,72  L 69,71  L 68,71  L 68,72  L 52,72  L 52,73  L 46,73  L 46,74  L 45,74  L 45,73  L 44,73  L 44,74  L 38,74  L 38,75  L 29,75  L 29,76  L 27,76  L 27,75  L 26,75  L 26,76  L 20,76  L 20,77  L 19,77  L 19,76  L 18,76  L 18,77  L 16,77  L 16,78  L 11,78  L 11,79  L 7,79  L 7,80  L 2,80  L 2,81  L 1,81  L 1,82  L 0,82  L 0,83  L 1,83  L 1,86  L 4,86  L 4,87  L 10,87  L 10,86  L 15,86  L 15,85  L 23,85  L 23,84  L 25,84  L 25,85  L 26,85  L 26,84  L 29,84  L 29,85  L 30,85  L 30,84  L 37,84  L 37,83  L 38,83  L 38,84  L 39,84  Z  " style="fill:rgb(0, 0, 0); fill-opacity:1.000; stroke:none;" />
 <path d="  M 40,21  L 40,20  L 41,20  L 41,19  L 42,19  L 42,18  L 43,18  L 43,17  L 45,17  L 45,16  L 47,16  L 47,15  L 50,15  L 50,14  L 51,14  L 51,13  L 53,13  L 53,12  L 54,12  L 54,11  L 55,11  L 55,10  L 61,10  L 61,9  L 63,9  L 63,10  L 65,10  L 65,9  L 66,9  L 66,10  L 70,10  L 70,11  L 75,11  L 75,12  L 76,12  L 76,13  L 77,13  L 77,12  L 78,12  L 78,13  L 80,13  L 80,14  L 82,14  L 82,15  L 83,15  L 83,16  L 86,16  L 86,18  L 87,18  L 87,22  L 88,22  L 88,24  L 89,24  L 89,26  L 88,26  L 88,28  L 89,28  L 89,29  L 88,29  L 88,31  L 87,31  L 87,34  L 86,34  L 86,35  L 85,35  L 85,37  L 84,37  L 84,38  L 83,38  L 83,39  L 82,39  L 82,41  L 81,41  L 81,43  L 80,43  L 80,44  L 79,44  L 79,45  L 78,45  L 78,46  L 77,46  L 77,47  L 75,47  L 75,48  L 72,48  L 72,49  L 70,49  L 70,50  L 67,50  L 67,51  L 66,51  L 66,52  L 64,52  L 64,53  L 61,53  L 61,54  L 59,54  L 59,55  L 54,55  L 54,56  L 53,56  L 53,55  L 52,55  L 52,56  L 51,56  L 51,55  L 50,55  L 50,56  L 49,56  L 49,55  L 40,55  L 40,54  L 37,54  L 37,53  L 35,53  L 35,52  L 33,52  L 33,51  L 32,51  L 32,50  L 31,50  L 31,49  L 30,49  L 30,48  L 29,48  L 29,46  L 28,46  L 28,45  L 27,45  L 27,41  L 26,41  L 26,40  L 27,40  L 27,38  L 28,38  L 28,37  L 29,37  L 29,35  L 30,35  L 30,33  L 31,33  L 31,32  L 32,32  L 32,31  L 33,31  L 33,29  L 34,29  L 34,28  L 35,28  L 35,27  L 36,27  L 36,25  L 37,25  L 37,24  L 38,24  L 38,22  L 39,22  L 39,21  Z  M 92,12  L 90,12  L 90,11  L 89,11  L 89,10  L 88,10  L 88,9  L 86,9  L 86,8  L 85,8  L 85,7  L 83,7  L 83,6  L 81,6  L 81,5  L 78,5  L 78,4  L 76,4  L 76,3  L 74,3  L 74,2  L 71,2  L 71,1  L 66,1  L 66,0  L 65,0  L 65,1  L 63,1  L 63,0  L 61,0  L 61,1  L 58,1  L 58,0  L 57,0  L 57,1  L 54,1  L 54,2  L 51,2  L 51,3  L 50,3  L 50,4  L 48,4  L 48,5  L 47,5  L 47,6  L 45,6  L 45,7  L 43,7  L 43,8  L 41,8  L 41,9  L 39,9  L 39,10  L 37,10  L 37,11  L 36,11  L 36,12  L 35,12  L 35,14  L 34,14  L 34,15  L 33,15  L 33,17  L 32,17  L 32,18  L 31,18  L 31,20  L 30,20  L 30,22  L 29,22  L 29,23  L 28,23  L 28,25  L 27,25  L 27,26  L 26,26  L 26,27  L 25,27  L 25,28  L 24,28  L 24,29  L 23,29  L 23,31  L 22,31  L 22,32  L 21,32  L 21,33  L 20,33  L 20,34  L 19,34  L 19,38  L 18,38  L 18,43  L 19,43  L 19,44  L 18,44  L 18,45  L 19,45  L 19,48  L 20,48  L 20,49  L 21,49  L 21,50  L 22,50  L 22,51  L 23,51  L 23,52  L 24,52  L 24,53  L 25,53  L 25,54  L 26,54  L 26,55  L 27,55  L 27,56  L 28,56  L 28,57  L 29,57  L 29,58  L 30,58  L 30,59  L 32,59  L 32,60  L 34,60  L 34,61  L 35,61  L 35,62  L 40,62  L 40,63  L 44,63  L 44,64  L 57,64  L 57,63  L 61,63  L 61,62  L 65,62  L 65,61  L 67,61  L 67,60  L 69,60  L 69,59  L 71,59  L 71,58  L 73,58  L 73,57  L 75,57  L 75,56  L 77,56  L 77,55  L 80,55  L 80,54  L 82,54  L 82,53  L 83,53  L 83,51  L 84,51  L 84,50  L 85,50  L 85,49  L 86,49  L 86,48  L 87,48  L 87,47  L 88,47  L 88,46  L 89,46  L 89,44  L 90,44  L 90,42  L 91,42  L 91,40  L 92,40  L 92,37  L 94,37  L 94,34  L 95,34  L 95,33  L 96,33  L 96,31  L 97,31  L 97,29  L 98,29  L 98,28  L 97,28  L 97,27  L 98,27  L 98,24  L 97,24  L 97,23  L 98,23  L 98,22  L 97,22  L 97,18  L 96,18  L 96,16  L 95,16  L 95,15  L 94,15  L 94,14  L 93,14  L 93,13  L 92,13  Z  " style="fill:rgb(0, 0, 0); fill-opacity:1.000; stroke:none;" />
 <path d="  M 70,155  L 70,156  L 72,156  L 72,157  L 73,157  L 73,158  L 76,158  L 76,159  L 78,159  L 78,160  L 80,160  L 80,161  L 82,161  L 82,162  L 84,162  L 84,163  L 87,163  L 87,164  L 90,164  L 90,165  L 92,165  L 92,166  L 94,166  L 94,167  L 98,167  L 98,168  L 100,168  L 100,169  L 104,169  L 104,170  L 105,170  L 105,169  L 106,169  L 106,170  L 107,170  L 107,169  L 108,169  L 108,170  L 112,170  L 112,169  L 114,169  L 114,166  L 111,166  L 111,165  L 110,165  L 110,164  L 107,164  L 107,163  L 104,163  L 104,162  L 99,162  L 99,161  L 97,161  L 97,160  L 94,160  L 94,159  L 92,159  L 92,158  L 90,158  L 90,157  L 88,157  L 88,156  L 86,156  L 86,155  L 84,155  L 84,154  L 82,154  L 82,153  L 80,153  L 80,152  L 78,152  L 78,151  L 77,151  L 77,150  L 76,150  L 76,149  L 75,149  L 75,148  L 73,148  L 73,147  L 72,147  L 72,146  L 70,146  L 70,145  L 69,145  L 69,141  L 70,141  L 70,140  L 71,140  L 71,139  L 72,139  L 72,138  L 73,138  L 73,136  L 74,136  L 74,135  L 75,135  L 75,133  L 76,133  L 76,131  L 77,131  L 77,129  L 78,129  L 78,126  L 79,126  L 79,123  L 80,123  L 80,122  L 79,122  L 79,120  L 78,120  L 78,119  L 77,119  L 77,118  L 75,118  L 75,117  L 73,117  L 73,116  L 68,116  L 68,115  L 67,115  L 67,114  L 66,114  L 66,112  L 65,112  L 65,108  L 64,108  L 64,105  L 63,105  L 63,100  L 62,100  L 62,99  L 60,99  L 60,98  L 51,98  L 51,99  L 50,99  L 50,100  L 49,100  L 49,101  L 51,101  L 51,102  L 52,102  L 52,105  L 53,105  L 53,106  L 54,106  L 54,107  L 55,107  L 55,109  L 56,109  L 56,111  L 57,111  L 57,113  L 59,113  L 59,115  L 60,115  L 60,118  L 58,118  L 58,120  L 57,120  L 57,119  L 56,119  L 56,120  L 48,120  L 48,121  L 42,121  L 42,122  L 41,122  L 41,121  L 40,121  L 40,122  L 36,122  L 36,123  L 35,123  L 35,122  L 34,122  L 34,123  L 31,123  L 31,124  L 28,124  L 28,125  L 27,125  L 27,127  L 26,127  L 26,128  L 27,128  L 27,130  L 28,130  L 28,131  L 31,131  L 31,130  L 35,130  L 35,129  L 40,129  L 40,128  L 41,128  L 41,129  L 42,129  L 42,128  L 47,128  L 47,127  L 54,127  L 54,126  L 57,126  L 57,125  L 60,125  L 60,123  L 63,123  L 63,122  L 66,122  L 66,123  L 67,123  L 67,122  L 68,122  L 68,123  L 69,123  L 69,124  L 70,124  L 70,127  L 69,127  L 69,128  L 68,128  L 68,130  L 67,130  L 67,131  L 66,131  L 66,132  L 65,132  L 65,134  L 64,134  L 64,136  L 63,136  L 63,137  L 62,137  L 62,139  L 61,139  L 61,140  L 60,140  L 60,142  L 59,142  L 59,143  L 58,143  L 58,144  L 57,144  L 57,145  L 56,145  L 56,146  L 55,146  L 55,147  L 54,147  L 54,148  L 53,148  L 53,150  L 52,150  L 52,151  L 51,151  L 51,152  L 50,152  L 50,154  L 49,154  L 49,155  L 48,155  L 48,157  L 47,157  L 47,158  L 46,158  L 46,159  L 45,159  L 45,160  L 43,160  L 43,161  L 42,161  L 42,162  L 40,162  L 40,163  L 39,163  L 39,164  L 37,164  L 37,165  L 36,165  L 36,167  L 34,167  L 34,168  L 33,168  L 33,169  L 32,169  L 32,173  L 39,173  L 39,172  L 40,172  L 40,171  L 42,171  L 42,170  L 43,170  L 43,169  L 44,169  L 44,168  L 45,168  L 45,167  L 47,167  L 47,166  L 48,166  L 48,165  L 50,165  L 50,164  L 51,164  L 51,163  L 53,163  L 53,162  L 54,162  L 54,160  L 55,160  L 55,159  L 57,159  L 57,158  L 58,158  L 58,156  L 59,156  L 59,155  L 61,155  L 61,154  L 62,154  L 62,152  L 64,152  L 64,153  L 65,153  L 65,154  L 68,154  L 68,155  Z  " style="fill:rgb(0, 0, 0); fill-opacity:1.000; stroke:none;" />
</svg>
