<?xml version="1.0" encoding="UTF-8" standalone="no"?>
<!DOCTYPE svg PUBLIC "-//W3C//DTD SVG 1.1//EN" 
  "http://www.w3.org/Graphics/SVG/1.1/DTD/svg11.dtd">
<svg width="102" height="177"
     xmlns="http://www.w3.org/2000/svg" version="1.1">
 <path d="  M 19,86  L 19,87  L 14,87  L 14,88  L 9,88  L 9,89  L 3,89  L 3,90  L 0,90  L 0,92  L 1,92  L 1,94  L 2,94  L 2,95  L 4,95  L 4,96  L 10,96  L 10,95  L 13,95  L 13,94  L 19,94  L 19,93  L 20,93  L 20,94  L 21,94  L 21,93  L 28,93  L 28,92  L 37,92  L 37,91  L 43,91  L 43,90  L 44,90  L 44,91  L 45,91  L 45,90  L 59,90  L 59,89  L 61,89  L 61,90  L 62,90  L 62,89  L 65,89  L 65,90  L 66,90  L 66,89  L 77,89  L 77,88  L 80,88  L 80,89  L 81,89  L 81,88  L 99,88  L 99,87  L 101,87  L 101,86  L 102,86  L 102,79  L 97,79  L 97,80  L 90,80  L 90,81  L 82,81  L 82,82  L 79,82  L 79,81  L 78,81  L 78,82  L 50,82  L 50,83  L 42,83  L 42,84  L 41,84  L 41,83  L 40,83  L 40,84  L 34,84  L 34,85  L 26,85  L 26,86  Z  " style="fill:rgb(0, 0, 0); fill-opacity:1.000; stroke:none;" />
 <path d="  M 51,70  L 51,69  L 55,69  L 55,68  L 56,68  L 56,69  L 57,69  L 57,68  L 59,68  L 59,67  L 62,67  L 62,66  L 63,66  L 63,65  L 65,65  L 65,64  L 67,64  L 67,63  L 68,63  L 68,62  L 71,62  L 71,60  L 73,60  L 73,59  L 75,59  L 75,58  L 77,58  L 77,57  L 78,57  L 78,56  L 79,56  L 79,54  L 81,54  L 81,52  L 82,52  L 82,51  L 83,51  L 83,49  L 84,49  L 84,48  L 85,48  L 85,45  L 86,45  L 86,44  L 87,44  L 87,42  L 88,42  L 88,40  L 89,40  L 89,39  L 90,39  L 90,37  L 91,37  L 91,36  L 92,36  L 92,34  L 93,34  L 93,33  L 92,33  L 92,31  L 93,31  L 93,21  L 91,21  L 91,19  L 90,19  L 90,18  L 89,18  L 89,16  L 87,16  L 87,15  L 86,15  L 86,13  L 85,13  L 85,12  L 84,12  L 84,11  L 82,11  L 82,10  L 81,10  L 81,9  L 79,9  L 79,8  L 78,8  L 78,7  L 77,7  L 77,6  L 76,6  L 76,5  L 74,5  L 74,4  L 71,4  L 71,3  L 68,3  L 68,2  L 65,2  L 65,1  L 59,1  L 59,2  L 58,2  L 58,1  L 54,1  L 54,2  L 50,2  L 50,3  L 45,3  L 45,4  L 43,4  L 43,5  L 41,5  L 41,6  L 40,6  L 40,7  L 39,7  L 39,8  L 38,8  L 38,9  L 37,9  L 37,10  L 36,10  L 36,11  L 35,11  L 35,12  L 34,12  L 34,13  L 32,13  L 32,15  L 31,15  L 31,16  L 30,16  L 30,17  L 29,17  L 29,20  L 28,20  L 28,22  L 27,22  L 27,24  L 26,24  L 26,25  L 25,25  L 25,27  L 24,27  L 24,28  L 23,28  L 23,29  L 22,29  L 22,30  L 21,30  L 21,32  L 20,32  L 20,33  L 19,33  L 19,34  L 18,34  L 18,35  L 17,35  L 17,37  L 16,37  L 16,38  L 15,38  L 15,39  L 14,39  L 14,41  L 13,41  L 13,43  L 12,43  L 12,44  L 13,44  L 13,50  L 14,50  L 14,52  L 15,52  L 15,54  L 16,54  L 16,56  L 17,56  L 17,57  L 18,57  L 18,58  L 19,58  L 19,59  L 20,59  L 20,60  L 21,60  L 21,62  L 23,62  L 23,63  L 24,63  L 24,64  L 25,64  L 25,65  L 26,65  L 26,66  L 27,66  L 27,67  L 29,67  L 29,68  L 31,68  L 31,69  L 36,69  L 36,70  Z  M 36,62  L 36,61  L 32,61  L 32,60  L 31,60  L 31,59  L 29,59  L 29,58  L 28,58  L 28,57  L 27,57  L 27,56  L 26,56  L 26,55  L 25,55  L 25,53  L 23,53  L 23,51  L 22,51  L 22,50  L 21,50  L 21,42  L 22,42  L 22,41  L 23,41  L 23,39  L 25,39  L 25,38  L 26,38  L 26,37  L 27,37  L 27,35  L 28,35  L 28,33  L 29,33  L 29,31  L 30,31  L 30,30  L 31,30  L 31,29  L 32,29  L 32,27  L 33,27  L 33,26  L 34,26  L 34,25  L 35,25  L 35,23  L 36,23  L 36,22  L 37,22  L 37,21  L 38,21  L 38,20  L 40,20  L 40,18  L 43,18  L 43,17  L 44,17  L 44,16  L 45,16  L 45,15  L 46,15  L 46,14  L 47,14  L 47,13  L 48,13  L 48,12  L 51,12  L 51,11  L 55,11  L 55,10  L 66,10  L 66,11  L 68,11  L 68,12  L 71,12  L 71,14  L 74,14  L 74,15  L 76,15  L 76,16  L 77,16  L 77,17  L 78,17  L 78,18  L 79,18  L 79,20  L 81,20  L 81,21  L 82,21  L 82,26  L 83,26  L 83,27  L 84,27  L 84,28  L 83,28  L 83,29  L 84,29  L 84,32  L 83,32  L 83,35  L 82,35  L 82,37  L 81,37  L 81,39  L 80,39  L 80,40  L 79,40  L 79,42  L 78,42  L 78,43  L 77,43  L 77,45  L 76,45  L 76,46  L 75,46  L 75,47  L 74,47  L 74,48  L 73,48  L 73,49  L 71,49  L 71,51  L 69,51  L 69,52  L 68,52  L 68,53  L 67,53  L 67,54  L 64,54  L 64,55  L 63,55  L 63,56  L 62,56  L 62,57  L 60,57  L 60,58  L 58,58  L 58,59  L 57,59  L 57,60  L 55,60  L 55,61  L 53,61  L 53,62  Z  " style="fill:rgb(0, 0, 0); fill-opacity:1.000; stroke:none;" />
 <path d="  M 59,116  L 59,115  L 61,115  L 61,116  L 62,116  L 62,115  L 64,115  L 64,116  L 66,116  L 66,115  L 80,115  L 80,112  L 81,112  L 81,107  L 70,107  L 70,108  L 69,108  L 69,107  L 67,107  L 67,108  L 61,108  L 61,107  L 60,107  L 60,108  L 49,108  L 49,109  L 41,109  L 41,110  L 37,110  L 37,111  L 28,111  L 28,112  L 27,112  L 27,113  L 26,113  L 26,114  L 25,114  L 25,115  L 24,115  L 24,118  L 23,118  L 23,121  L 22,121  L 22,123  L 21,123  L 21,128  L 20,128  L 20,141  L 19,141  L 19,154  L 20,154  L 20,155  L 19,155  L 19,157  L 20,157  L 20,159  L 19,159  L 19,160  L 20,160  L 20,167  L 21,167  L 21,170  L 22,170  L 22,172  L 23,172  L 23,173  L 25,173  L 25,174  L 26,174  L 26,175  L 28,175  L 28,176  L 29,176  L 29,177  L 54,177  L 54,176  L 62,176  L 62,175  L 69,175  L 69,174  L 74,174  L 74,173  L 77,173  L 77,172  L 81,172  L 81,171  L 85,171  L 85,170  L 88,170  L 88,169  L 91,169  L 91,168  L 94,168  L 94,167  L 96,167  L 96,166  L 97,166  L 97,163  L 85,163  L 85,164  L 81,164  L 81,165  L 75,165  L 75,166  L 71,166  L 71,167  L 65,167  L 65,168  L 60,168  L 60,169  L 50,169  L 50,170  L 35,170  L 35,169  L 30,169  L 30,168  L 29,168  L 29,167  L 28,167  L 28,166  L 27,166  L 27,163  L 26,163  L 26,153  L 27,153  L 27,152  L 35,152  L 35,153  L 36,153  L 36,152  L 37,152  L 37,153  L 52,153  L 52,152  L 59,152  L 59,151  L 61,151  L 61,150  L 64,150  L 64,148  L 67,148  L 67,146  L 68,146  L 68,145  L 69,145  L 69,144  L 70,144  L 70,143  L 72,143  L 72,141  L 73,141  L 73,140  L 74,140  L 74,139  L 75,139  L 75,135  L 74,135  L 74,134  L 72,134  L 72,135  L 69,135  L 69,136  L 67,136  L 67,137  L 65,137  L 65,139  L 62,139  L 62,140  L 61,140  L 61,141  L 57,141  L 57,142  L 53,142  L 53,143  L 49,143  L 49,144  L 45,144  L 45,145  L 30,145  L 30,144  L 28,144  L 28,143  L 27,143  L 27,142  L 25,142  L 25,141  L 24,141  L 24,139  L 25,139  L 25,135  L 26,135  L 26,133  L 27,133  L 27,129  L 28,129  L 28,127  L 29,127  L 29,123  L 32,123  L 32,122  L 34,122  L 34,121  L 35,121  L 35,120  L 37,120  L 37,119  L 39,119  L 39,118  L 43,118  L 43,117  L 47,117  L 47,116  L 48,116  L 48,117  L 49,117  L 49,116  Z  " style="fill:rgb(0, 0, 0); fill-opacity:1.000; stroke:none;" />
 <path d="  M 77,131  L 76,131  L 76,133  L 75,133  L 75,134  L 76,134  L 76,135  L 77,135  Z  " style="fill:rgb(0, 0, 0); fill-opacity:1.000; stroke:none;" />
 <path d="  M 76,136  L 76,137  L 77,137  L 77,136  Z  " style="fill:rgb(0, 0, 0); fill-opacity:1.000; stroke:none;" />
</svg>
