<?xml version="1.0" encoding="UTF-8" standalone="no"?>
<!DOCTYPE svg PUBLIC "-//W3C//DTD SVG 1.1//EN" 
  "http://www.w3.org/Graphics/SVG/1.1/DTD/svg11.dtd">
<svg width="103" height="157"
     xmlns="http://www.w3.org/2000/svg" version="1.1">
 <path d="  M 15,83  L 15,82  L 24,82  L 24,81  L 32,81  L 32,80  L 40,80  L 40,79  L 51,79  L 51,78  L 52,78  L 52,79  L 53,79  L 53,78  L 54,78  L 54,79  L 55,79  L 55,78  L 71,78  L 71,77  L 81,77  L 81,76  L 82,76  L 82,74  L 83,74  L 83,71  L 84,71  L 84,70  L 83,70  L 83,69  L 80,69  L 80,70  L 76,70  L 76,71  L 69,71  L 69,72  L 52,72  L 52,73  L 49,73  L 49,72  L 48,72  L 48,73  L 45,73  L 45,72  L 44,72  L 44,73  L 36,73  L 36,74  L 28,74  L 28,75  L 23,75  L 23,76  L 14,76  L 14,77  L 9,77  L 9,78  L 6,78  L 6,79  L 1,79  L 1,80  L 0,80  L 0,83  L 2,83  L 2,84  L 4,84  L 4,85  L 5,85  L 5,84  L 11,84  L 11,83  Z  " style="fill:rgb(0, 0, 0); fill-opacity:1.000; stroke:none;" />
 <path d="  M 65,36  L 64,36  L 64,37  L 65,37  L 65,39  L 64,39  L 64,42  L 63,42  L 63,45  L 62,45  L 62,47  L 61,47  L 61,49  L 60,49  L 60,50  L 58,50  L 58,51  L 57,51  L 57,52  L 56,52  L 56,53  L 53,53  L 53,54  L 51,54  L 51,55  L 49,55  L 49,56  L 46,56  L 46,57  L 45,57  L 45,56  L 44,56  L 44,57  L 38,57  L 38,56  L 32,56  L 32,55  L 29,55  L 29,54  L 28,54  L 28,53  L 26,53  L 26,52  L 25,52  L 25,51  L 24,51  L 24,50  L 23,50  L 23,49  L 22,49  L 22,48  L 21,48  L 21,47  L 20,47  L 20,38  L 21,38  L 21,36  L 22,36  L 22,34  L 23,34  L 23,32  L 24,32  L 24,31  L 25,31  L 25,30  L 26,30  L 26,29  L 27,29  L 27,27  L 28,27  L 28,26  L 29,26  L 29,24  L 30,24  L 30,23  L 31,23  L 31,22  L 33,22  L 33,20  L 34,20  L 34,19  L 36,19  L 36,18  L 37,18  L 37,17  L 50,17  L 50,18  L 55,18  L 55,19  L 58,19  L 58,20  L 60,20  L 60,21  L 62,21  L 62,22  L 63,22  L 63,23  L 64,23  L 64,25  L 65,25  Z  M 15,34  L 14,34  L 14,38  L 13,38  L 13,48  L 14,48  L 14,51  L 15,51  L 15,52  L 16,52  L 16,53  L 17,53  L 17,54  L 18,54  L 18,56  L 20,56  L 20,57  L 21,57  L 21,58  L 23,58  L 23,59  L 25,59  L 25,60  L 27,60  L 27,61  L 29,61  L 29,62  L 31,62  L 31,63  L 34,63  L 34,64  L 44,64  L 44,63  L 47,63  L 47,62  L 51,62  L 51,61  L 53,61  L 53,60  L 56,60  L 56,59  L 58,59  L 58,58  L 60,58  L 60,57  L 62,57  L 62,56  L 63,56  L 63,55  L 64,55  L 64,54  L 65,54  L 65,53  L 66,53  L 66,52  L 67,52  L 67,51  L 68,51  L 68,49  L 69,49  L 69,48  L 70,48  L 70,45  L 71,45  L 71,43  L 72,43  L 72,42  L 71,42  L 71,41  L 72,41  L 72,34  L 73,34  L 73,26  L 72,26  L 72,24  L 71,24  L 71,20  L 69,20  L 69,18  L 68,18  L 68,17  L 67,17  L 67,16  L 65,16  L 65,15  L 64,15  L 64,14  L 62,14  L 62,13  L 61,13  L 61,12  L 58,12  L 58,11  L 55,11  L 55,10  L 52,10  L 52,9  L 45,9  L 45,8  L 40,8  L 40,7  L 38,7  L 38,8  L 35,8  L 35,9  L 34,9  L 34,10  L 33,10  L 33,11  L 32,11  L 32,12  L 31,12  L 31,14  L 29,14  L 29,16  L 28,16  L 28,17  L 27,17  L 27,18  L 26,18  L 26,19  L 25,19  L 25,20  L 24,20  L 24,21  L 23,21  L 23,22  L 22,22  L 22,24  L 21,24  L 21,25  L 20,25  L 20,26  L 19,26  L 19,27  L 18,27  L 18,29  L 17,29  L 17,30  L 16,30  L 16,31  L 15,31  Z  " style="fill:rgb(0, 0, 0); fill-opacity:1.000; stroke:none;" />
 <path d="  M 65,111  L 65,110  L 73,110  L 73,109  L 74,109  L 74,110  L 75,110  L 75,109  L 76,109  L 76,110  L 77,110  L 77,109  L 78,109  L 78,110  L 79,110  L 79,109  L 80,109  L 80,110  L 81,110  L 81,109  L 82,109  L 82,110  L 83,110  L 83,109  L 86,109  L 86,110  L 90,110  L 90,111  L 92,111  L 92,112  L 94,112  L 94,116  L 95,116  L 95,118  L 94,118  L 94,126  L 93,126  L 93,131  L 92,131  L 92,141  L 91,141  L 91,145  L 90,145  L 90,146  L 89,146  L 89,147  L 85,147  L 85,148  L 80,148  L 80,149  L 74,149  L 74,150  L 67,150  L 67,151  L 65,151  L 65,150  L 64,150  L 64,151  L 51,151  L 51,150  L 50,150  L 50,149  L 48,149  L 48,146  L 47,146  L 47,136  L 46,136  L 46,135  L 47,135  L 47,132  L 46,132  L 46,116  L 47,116  L 47,113  L 48,113  L 48,112  L 57,112  L 57,111  L 58,111  L 58,112  L 59,112  L 59,111  Z  M 49,105  L 49,104  L 46,104  L 46,102  L 45,102  L 45,101  L 42,101  L 42,102  L 39,102  L 39,103  L 37,103  L 37,104  L 32,104  L 32,105  L 30,105  L 30,106  L 28,106  L 28,111  L 29,111  L 29,113  L 31,113  L 31,114  L 34,114  L 34,113  L 39,113  L 39,114  L 40,114  L 40,145  L 41,145  L 41,149  L 42,149  L 42,152  L 43,152  L 43,154  L 44,154  L 44,155  L 45,155  L 45,156  L 46,156  L 46,157  L 65,157  L 65,156  L 67,156  L 67,157  L 68,157  L 68,156  L 77,156  L 77,155  L 81,155  L 81,154  L 82,154  L 82,155  L 83,155  L 83,154  L 85,154  L 85,153  L 89,153  L 89,152  L 92,152  L 92,151  L 95,151  L 95,149  L 97,149  L 97,146  L 98,146  L 98,137  L 99,137  L 99,129  L 100,129  L 100,121  L 101,121  L 101,111  L 100,111  L 100,108  L 99,108  L 99,106  L 97,106  L 97,105  L 93,105  L 93,104  L 89,104  L 89,103  L 82,103  L 82,102  L 69,102  L 69,103  L 63,103  L 63,104  L 62,104  L 62,103  L 61,103  L 61,104  L 56,104  L 56,105  Z  " style="fill:rgb(0, 0, 0); fill-opacity:1.000; stroke:none;" />
 <path d="  M 103,19  L 102,19  L 102,18  L 103,18  L 103,16  L 102,16  L 102,8  L 101,8  L 101,2  L 100,2  L 100,1  L 99,1  L 99,0  L 96,0  L 96,1  L 95,1  L 95,4  L 94,4  L 94,5  L 95,5  L 95,17  L 96,17  L 96,27  L 97,27  L 97,78  L 96,78  L 96,79  L 97,79  L 97,82  L 96,82  L 96,83  L 97,83  L 97,85  L 96,85  L 96,87  L 97,87  L 97,88  L 96,88  L 96,91  L 97,91  L 97,92  L 96,92  L 96,98  L 97,98  L 97,101  L 98,101  L 98,102  L 101,102  L 101,101  L 102,101  L 102,99  L 103,99  Z  " style="fill:rgb(0, 0, 0); fill-opacity:1.000; stroke:none;" />
</svg>
