<?xml version="1.0" encoding="UTF-8" standalone="no"?>
<!DOCTYPE svg PUBLIC "-//W3C//DTD SVG 1.1//EN" 
  "http://www.w3.org/Graphics/SVG/1.1/DTD/svg11.dtd">
<svg width="101" height="120"
     xmlns="http://www.w3.org/2000/svg" version="1.1">
 <path d="  M 11,36  L 10,36  L 10,38  L 9,38  L 9,39  L 8,39  L 8,41  L 7,41  L 7,44  L 6,44  L 6,47  L 5,47  L 5,50  L 4,50  L 4,53  L 3,53  L 3,56  L 2,56  L 2,60  L 1,60  L 1,67  L 0,67  L 0,69  L 1,69  L 1,72  L 0,72  L 0,73  L 1,73  L 1,82  L 2,82  L 2,86  L 3,86  L 3,87  L 4,87  L 4,89  L 6,89  L 6,91  L 9,91  L 9,92  L 12,92  L 12,93  L 16,93  L 16,94  L 18,94  L 18,95  L 20,95  L 20,94  L 21,94  L 21,95  L 26,95  L 26,94  L 29,94  L 29,93  L 33,93  L 33,92  L 36,92  L 36,91  L 38,91  L 38,90  L 40,90  L 40,89  L 43,89  L 43,88  L 44,88  L 44,87  L 47,87  L 47,86  L 49,86  L 49,85  L 52,85  L 52,84  L 53,84  L 53,83  L 54,83  L 54,82  L 55,82  L 55,81  L 56,81  L 56,79  L 57,79  L 57,78  L 58,78  L 58,76  L 59,76  L 59,75  L 60,75  L 60,73  L 61,73  L 61,71  L 62,71  L 62,69  L 63,69  L 63,66  L 64,66  L 64,61  L 65,61  L 65,57  L 66,57  L 66,56  L 65,56  L 65,55  L 66,55  L 66,40  L 65,40  L 65,39  L 64,39  L 64,38  L 63,38  L 63,37  L 62,37  L 62,36  L 61,36  L 61,35  L 59,35  L 59,34  L 57,34  L 57,33  L 56,33  L 56,32  L 54,32  L 54,31  L 53,31  L 53,30  L 50,30  L 50,29  L 48,29  L 48,28  L 47,28  L 47,27  L 44,27  L 44,26  L 38,26  L 38,25  L 32,25  L 32,26  L 19,26  L 19,27  L 17,27  L 17,28  L 16,28  L 16,29  L 14,29  L 14,30  L 13,30  L 13,33  L 12,33  L 12,34  L 11,34  Z  M 7,61  L 8,61  L 8,58  L 9,58  L 9,54  L 10,54  L 10,52  L 11,52  L 11,50  L 12,50  L 12,48  L 13,48  L 13,44  L 14,44  L 14,43  L 15,43  L 15,41  L 16,41  L 16,40  L 17,40  L 17,39  L 18,39  L 18,38  L 19,38  L 19,37  L 20,37  L 20,36  L 23,36  L 23,35  L 47,35  L 47,36  L 50,36  L 50,37  L 53,37  L 53,38  L 54,38  L 54,39  L 57,39  L 57,40  L 58,40  L 58,41  L 59,41  L 59,42  L 58,42  L 58,43  L 59,43  L 59,46  L 58,46  L 58,47  L 59,47  L 59,48  L 58,48  L 58,49  L 59,49  L 59,50  L 58,50  L 58,58  L 57,58  L 57,62  L 56,62  L 56,66  L 55,66  L 55,69  L 54,69  L 54,71  L 53,71  L 53,73  L 52,73  L 52,75  L 50,75  L 50,77  L 48,77  L 48,78  L 46,78  L 46,79  L 45,79  L 45,80  L 44,80  L 44,81  L 41,81  L 41,82  L 40,82  L 40,83  L 38,83  L 38,84  L 37,84  L 37,85  L 34,85  L 34,86  L 30,86  L 30,87  L 27,87  L 27,88  L 24,88  L 24,87  L 18,87  L 18,86  L 15,86  L 15,85  L 12,85  L 12,84  L 10,84  L 10,83  L 9,83  L 9,82  L 8,82  L 8,76  L 7,76  Z  " style="fill:rgb(0, 0, 0); fill-opacity:1.000; stroke:none;" />
 <path d="  M 94,86  L 93,86  L 93,87  L 94,87  L 94,90  L 93,90  L 93,91  L 94,91  L 94,94  L 93,94  L 93,119  L 94,119  L 94,120  L 99,120  L 99,119  L 101,119  L 101,20  L 100,20  L 100,19  L 101,19  L 101,18  L 100,18  L 100,13  L 99,13  L 99,2  L 98,2  L 98,1  L 96,1  L 96,0  L 93,0  L 93,1  L 92,1  L 92,2  L 91,2  L 91,4  L 90,4  L 90,5  L 91,5  L 91,10  L 92,10  L 92,18  L 93,18  L 93,27  L 94,27  L 94,50  L 95,50  L 95,51  L 94,51  L 94,54  L 95,54  L 95,55  L 94,55  L 94,58  L 95,58  L 95,59  L 94,59  Z  " style="fill:rgb(0, 0, 0); fill-opacity:1.000; stroke:none;" />
</svg>
