<?xml version="1.0" encoding="UTF-8" standalone="no"?>
<!DOCTYPE svg PUBLIC "-//W3C//DTD SVG 1.1//EN" 
  "http://www.w3.org/Graphics/SVG/1.1/DTD/svg11.dtd">
<svg width="102" height="167"
     xmlns="http://www.w3.org/2000/svg" version="1.1">
 <path d="  M 61,40  L 60,40  L 60,36  L 59,36  L 59,33  L 58,33  L 58,32  L 57,32  L 57,30  L 56,30  L 56,28  L 55,28  L 55,26  L 54,26  L 54,25  L 53,25  L 53,24  L 52,24  L 52,23  L 51,23  L 51,22  L 49,22  L 49,21  L 48,21  L 48,20  L 45,20  L 45,19  L 42,19  L 42,18  L 37,18  L 37,17  L 31,17  L 31,16  L 28,16  L 28,15  L 25,15  L 25,14  L 24,14  L 24,15  L 22,15  L 22,16  L 21,16  L 21,17  L 20,17  L 20,18  L 19,18  L 19,19  L 18,19  L 18,21  L 17,21  L 17,22  L 16,22  L 16,23  L 15,23  L 15,24  L 14,24  L 14,25  L 13,25  L 13,26  L 12,26  L 12,27  L 11,27  L 11,28  L 10,28  L 10,30  L 9,30  L 9,31  L 8,31  L 8,33  L 7,33  L 7,35  L 6,35  L 6,37  L 5,37  L 5,39  L 4,39  L 4,45  L 3,45  L 3,53  L 2,53  L 2,59  L 1,59  L 1,71  L 2,71  L 2,74  L 3,74  L 3,76  L 4,76  L 4,77  L 5,77  L 5,79  L 7,79  L 7,80  L 10,80  L 10,81  L 14,81  L 14,82  L 16,82  L 16,83  L 19,83  L 19,84  L 24,84  L 24,85  L 30,85  L 30,84  L 33,84  L 33,83  L 36,83  L 36,82  L 39,82  L 39,81  L 40,81  L 40,80  L 44,80  L 44,79  L 46,79  L 46,78  L 48,78  L 48,77  L 49,77  L 49,76  L 50,76  L 50,75  L 52,75  L 52,74  L 53,74  L 53,73  L 54,73  L 54,71  L 55,71  L 55,70  L 56,70  L 56,69  L 57,69  L 57,67  L 58,67  L 58,64  L 59,64  L 59,62  L 60,62  L 60,60  L 61,60  L 61,53  L 62,53  L 62,46  L 61,46  Z  M 50,67  L 49,67  L 49,68  L 48,68  L 48,69  L 47,69  L 47,70  L 46,70  L 46,71  L 45,71  L 45,72  L 43,72  L 43,73  L 41,73  L 41,74  L 38,74  L 38,75  L 34,75  L 34,76  L 31,76  L 31,77  L 30,77  L 30,76  L 29,76  L 29,77  L 28,77  L 28,76  L 27,76  L 27,77  L 26,77  L 26,76  L 25,76  L 25,77  L 24,77  L 24,76  L 23,76  L 23,77  L 22,77  L 22,76  L 17,76  L 17,75  L 14,75  L 14,74  L 13,74  L 13,73  L 10,73  L 10,72  L 9,72  L 9,71  L 8,71  L 8,68  L 9,68  L 9,67  L 8,67  L 8,56  L 9,56  L 9,50  L 10,50  L 10,46  L 11,46  L 11,42  L 12,42  L 12,39  L 13,39  L 13,36  L 14,36  L 14,34  L 15,34  L 15,32  L 16,32  L 16,31  L 17,31  L 17,30  L 18,30  L 18,29  L 19,29  L 19,28  L 20,28  L 20,27  L 21,27  L 21,26  L 22,26  L 22,25  L 23,25  L 23,24  L 25,24  L 25,23  L 26,23  L 26,24  L 27,24  L 27,23  L 28,23  L 28,24  L 29,24  L 29,23  L 30,23  L 30,24  L 36,24  L 36,25  L 42,25  L 42,26  L 43,26  L 43,27  L 46,27  L 46,28  L 47,28  L 47,29  L 49,29  L 49,30  L 50,30  L 50,32  L 51,32  L 51,34  L 52,34  L 52,37  L 53,37  L 53,40  L 54,40  L 54,56  L 53,56  L 53,60  L 52,60  L 52,63  L 51,63  L 51,65  L 50,65  Z  " style="fill:rgb(0, 0, 0); fill-opacity:1.000; stroke:none;" />
 <path d="  M 10,164  L 11,164  L 11,165  L 12,165  L 12,164  L 13,164  L 13,165  L 14,165  L 14,166  L 16,166  L 16,167  L 31,167  L 31,166  L 35,166  L 35,165  L 40,165  L 40,164  L 41,164  L 41,163  L 42,163  L 42,164  L 43,164  L 43,163  L 44,163  L 44,162  L 47,162  L 47,161  L 49,161  L 49,160  L 52,160  L 52,159  L 54,159  L 54,158  L 56,158  L 56,157  L 57,157  L 57,156  L 58,156  L 58,157  L 63,157  L 63,158  L 64,158  L 64,159  L 65,159  L 65,160  L 67,160  L 67,161  L 73,161  L 73,160  L 74,160  L 74,161  L 76,161  L 76,160  L 84,160  L 84,159  L 87,159  L 87,158  L 89,158  L 89,159  L 90,159  L 90,161  L 91,161  L 91,162  L 95,162  L 95,161  L 96,161  L 96,160  L 97,160  L 97,159  L 98,159  L 98,154  L 99,154  L 99,152  L 100,152  L 100,129  L 101,129  L 101,128  L 100,128  L 100,127  L 101,127  L 101,120  L 102,120  L 102,109  L 101,109  L 101,108  L 97,108  L 97,107  L 96,107  L 96,108  L 95,108  L 95,107  L 94,107  L 94,108  L 93,108  L 93,107  L 90,107  L 90,108  L 89,108  L 89,107  L 86,107  L 86,108  L 85,108  L 85,107  L 82,107  L 82,108  L 81,108  L 81,107  L 80,107  L 80,108  L 70,108  L 70,109  L 69,109  L 69,108  L 68,108  L 68,109  L 62,109  L 62,110  L 61,110  L 61,109  L 60,109  L 60,110  L 58,110  L 58,111  L 57,111  L 57,113  L 56,113  L 56,114  L 55,114  L 55,117  L 57,117  L 57,118  L 58,118  L 58,121  L 59,121  L 59,133  L 58,133  L 58,135  L 59,135  L 59,136  L 58,136  L 58,137  L 59,137  L 59,138  L 58,138  L 58,150  L 57,150  L 57,152  L 54,152  L 54,151  L 50,151  L 50,152  L 48,152  L 48,153  L 45,153  L 45,154  L 43,154  L 43,155  L 40,155  L 40,156  L 39,156  L 39,157  L 35,157  L 35,158  L 30,158  L 30,159  L 24,159  L 24,160  L 23,160  L 23,159  L 16,159  L 16,158  L 13,158  L 13,155  L 12,155  L 12,154  L 13,154  L 13,150  L 15,150  L 15,147  L 16,147  L 16,146  L 17,146  L 17,144  L 19,144  L 19,143  L 21,143  L 21,142  L 23,142  L 23,141  L 24,141  L 24,140  L 27,140  L 27,139  L 29,139  L 29,138  L 31,138  L 31,137  L 32,137  L 32,136  L 34,136  L 34,135  L 36,135  L 36,134  L 37,134  L 37,133  L 39,133  L 39,132  L 40,132  L 40,131  L 42,131  L 42,130  L 45,130  L 45,129  L 47,129  L 47,127  L 48,127  L 48,123  L 49,123  L 49,118  L 48,118  L 48,117  L 47,117  L 47,116  L 46,116  L 46,115  L 45,115  L 45,113  L 44,113  L 44,112  L 43,112  L 43,111  L 42,111  L 42,109  L 40,109  L 40,108  L 39,108  L 39,107  L 37,107  L 37,106  L 36,106  L 36,105  L 33,105  L 33,104  L 29,104  L 29,103  L 28,103  L 28,104  L 25,104  L 25,103  L 24,103  L 24,104  L 16,104  L 16,105  L 14,105  L 14,108  L 13,108  L 13,111  L 14,111  L 14,112  L 13,112  L 13,113  L 12,113  L 12,114  L 13,114  L 13,115  L 14,115  L 14,114  L 15,114  L 15,113  L 16,113  L 16,114  L 17,114  L 17,111  L 18,111  L 18,112  L 19,112  L 19,111  L 22,111  L 22,110  L 28,110  L 28,111  L 31,111  L 31,112  L 33,112  L 33,113  L 34,113  L 34,114  L 36,114  L 36,116  L 38,116  L 38,117  L 39,117  L 39,118  L 41,118  L 41,124  L 38,124  L 38,125  L 36,125  L 36,126  L 35,126  L 35,127  L 33,127  L 33,128  L 31,128  L 31,129  L 29,129  L 29,130  L 28,130  L 28,131  L 26,131  L 26,132  L 25,132  L 25,133  L 23,133  L 23,134  L 21,134  L 21,135  L 19,135  L 19,136  L 16,136  L 16,137  L 15,137  L 15,138  L 14,138  L 14,139  L 12,139  L 12,141  L 11,141  L 11,142  L 10,142  L 10,144  L 9,144  L 9,145  L 7,145  L 7,147  L 6,147  L 6,149  L 5,149  L 5,151  L 4,151  L 4,152  L 5,152  L 5,153  L 4,153  L 4,154  L 5,154  L 5,155  L 4,155  L 4,156  L 5,156  L 5,159  L 6,159  L 6,160  L 7,160  L 7,161  L 8,161  L 8,162  L 9,162  L 9,163  L 10,163  Z  M 80,152  L 80,153  L 74,153  L 74,154  L 72,154  L 72,155  L 69,155  L 69,154  L 67,154  L 67,153  L 65,153  L 65,140  L 66,140  L 66,139  L 65,139  L 65,136  L 66,136  L 66,135  L 65,135  L 65,133  L 66,133  L 66,131  L 65,131  L 65,130  L 66,130  L 66,120  L 67,120  L 67,119  L 68,119  L 68,118  L 81,118  L 81,117  L 83,117  L 83,118  L 84,118  L 84,117  L 87,117  L 87,118  L 88,118  L 88,117  L 91,117  L 91,118  L 92,118  L 92,117  L 93,117  L 93,118  L 94,118  L 94,129  L 93,129  L 93,145  L 92,145  L 92,150  L 91,150  L 91,151  L 90,151  L 90,152  Z  " style="fill:rgb(0, 0, 0); fill-opacity:1.000; stroke:none;" />
 <path d="  M 12,111  L 12,112  L 13,112  L 13,111  Z  " style="fill:rgb(0, 0, 0); fill-opacity:1.000; stroke:none;" />
 <path d="  M 12,115  L 12,116  L 13,116  L 13,115  Z  " style="fill:rgb(0, 0, 0); fill-opacity:1.000; stroke:none;" />
 <path d="  M 92,85  L 91,85  L 91,84  L 92,84  L 92,83  L 91,83  L 91,68  L 90,68  L 90,67  L 91,67  L 91,64  L 90,64  L 90,63  L 91,63  L 91,61  L 90,61  L 90,58  L 91,58  L 91,57  L 90,57  L 90,54  L 91,54  L 91,53  L 90,53  L 90,50  L 91,50  L 91,49  L 90,49  L 90,39  L 89,39  L 89,25  L 88,25  L 88,13  L 87,13  L 87,12  L 88,12  L 88,11  L 87,11  L 87,1  L 85,1  L 85,0  L 81,0  L 81,1  L 80,1  L 80,2  L 79,2  L 79,8  L 80,8  L 80,17  L 81,17  L 81,26  L 82,26  L 82,38  L 83,38  L 83,39  L 82,39  L 82,40  L 83,40  L 83,41  L 82,41  L 82,42  L 83,42  L 83,43  L 82,43  L 82,44  L 83,44  L 83,67  L 84,67  L 84,68  L 83,68  L 83,70  L 84,70  L 84,88  L 85,88  L 85,96  L 86,96  L 86,97  L 87,97  L 87,99  L 88,99  L 88,100  L 89,100  L 89,99  L 92,99  Z  " style="fill:rgb(0, 0, 0); fill-opacity:1.000; stroke:none;" />
</svg>
