<?xml version="1.0" encoding="UTF-8" standalone="no"?>
<!DOCTYPE svg PUBLIC "-//W3C//DTD SVG 1.1//EN" 
  "http://www.w3.org/Graphics/SVG/1.1/DTD/svg11.dtd">
<svg width="100" height="175"
     xmlns="http://www.w3.org/2000/svg" version="1.1">
 <path d="  M 56,36  L 55,36  L 55,35  L 54,35  L 54,33  L 53,33  L 53,32  L 52,32  L 52,31  L 51,31  L 51,30  L 50,30  L 50,28  L 48,28  L 48,27  L 47,27  L 47,26  L 44,26  L 44,25  L 38,25  L 38,24  L 33,24  L 33,23  L 28,23  L 28,22  L 26,22  L 26,21  L 25,21  L 25,22  L 23,22  L 23,23  L 22,23  L 22,24  L 20,24  L 20,25  L 19,25  L 19,26  L 18,26  L 18,27  L 17,27  L 17,28  L 16,28  L 16,29  L 15,29  L 15,30  L 14,30  L 14,31  L 13,31  L 13,32  L 12,32  L 12,34  L 11,34  L 11,35  L 10,35  L 10,36  L 9,36  L 9,38  L 8,38  L 8,39  L 7,39  L 7,41  L 6,41  L 6,44  L 5,44  L 5,48  L 4,48  L 4,52  L 3,52  L 3,57  L 2,57  L 2,62  L 1,62  L 1,70  L 0,70  L 0,73  L 1,73  L 1,79  L 2,79  L 2,82  L 4,82  L 4,83  L 7,83  L 7,84  L 12,84  L 12,85  L 17,85  L 17,86  L 20,86  L 20,87  L 22,87  L 22,86  L 24,86  L 24,87  L 26,87  L 26,86  L 32,86  L 32,85  L 37,85  L 37,84  L 41,84  L 41,83  L 42,83  L 42,82  L 45,82  L 45,81  L 46,81  L 46,80  L 47,80  L 47,79  L 49,79  L 49,78  L 50,78  L 50,77  L 51,77  L 51,75  L 53,75  L 53,74  L 54,74  L 54,72  L 55,72  L 55,70  L 56,70  L 56,69  L 57,69  L 57,67  L 58,67  L 58,64  L 59,64  L 59,61  L 60,61  L 60,60  L 59,60  L 59,57  L 60,57  L 60,56  L 59,56  L 59,53  L 60,53  L 60,52  L 59,52  L 59,46  L 58,46  L 58,41  L 57,41  L 57,39  L 56,39  Z  M 51,45  L 52,45  L 52,59  L 51,59  L 51,65  L 50,65  L 50,67  L 49,67  L 49,68  L 48,68  L 48,70  L 47,70  L 47,72  L 46,72  L 46,73  L 44,73  L 44,74  L 42,74  L 42,75  L 41,75  L 41,76  L 39,76  L 39,77  L 35,77  L 35,78  L 32,78  L 32,79  L 28,79  L 28,80  L 27,80  L 27,79  L 26,79  L 26,80  L 25,80  L 25,79  L 24,79  L 24,80  L 23,80  L 23,79  L 16,79  L 16,78  L 13,78  L 13,77  L 10,77  L 10,76  L 8,76  L 8,74  L 7,74  L 7,73  L 8,73  L 8,72  L 7,72  L 7,69  L 8,69  L 8,68  L 7,68  L 7,67  L 8,67  L 8,61  L 9,61  L 9,55  L 10,55  L 10,52  L 11,52  L 11,49  L 12,49  L 12,47  L 13,47  L 13,44  L 14,44  L 14,42  L 15,42  L 15,40  L 16,40  L 16,39  L 17,39  L 17,37  L 18,37  L 18,36  L 19,36  L 19,35  L 20,35  L 20,33  L 21,33  L 21,32  L 22,32  L 22,31  L 24,31  L 24,30  L 36,30  L 36,31  L 39,31  L 39,32  L 44,32  L 44,33  L 46,33  L 46,34  L 47,34  L 47,35  L 48,35  L 48,36  L 49,36  L 49,37  L 50,37  L 50,39  L 51,39  Z  " style="fill:rgb(0, 0, 0); fill-opacity:1.000; stroke:none;" />
 <path d="  M 83,166  L 83,165  L 85,165  L 85,163  L 86,163  L 86,161  L 87,161  L 87,157  L 88,157  L 88,156  L 87,156  L 87,153  L 88,153  L 88,151  L 87,151  L 87,150  L 88,150  L 88,148  L 87,148  L 87,147  L 88,147  L 88,142  L 89,142  L 89,139  L 90,139  L 90,133  L 91,133  L 91,129  L 90,129  L 90,128  L 91,128  L 91,108  L 90,108  L 90,107  L 86,107  L 86,106  L 85,106  L 85,107  L 84,107  L 84,134  L 83,134  L 83,135  L 80,135  L 80,134  L 79,134  L 79,135  L 78,135  L 78,134  L 75,134  L 75,135  L 74,135  L 74,134  L 71,134  L 71,135  L 70,135  L 70,134  L 67,134  L 67,135  L 66,135  L 66,134  L 63,134  L 63,135  L 62,135  L 62,134  L 59,134  L 59,135  L 58,135  L 58,134  L 55,134  L 55,135  L 54,135  L 54,134  L 51,134  L 51,135  L 50,135  L 50,134  L 47,134  L 47,135  L 46,135  L 46,134  L 43,134  L 43,135  L 42,135  L 42,134  L 41,134  L 41,135  L 38,135  L 38,129  L 39,129  L 39,105  L 37,105  L 37,104  L 35,104  L 35,105  L 33,105  L 33,106  L 31,106  L 31,107  L 30,107  L 30,124  L 29,124  L 29,125  L 30,125  L 30,128  L 29,128  L 29,129  L 30,129  L 30,132  L 29,132  L 29,133  L 30,133  L 30,136  L 29,136  L 29,137  L 30,137  L 30,140  L 29,140  L 29,141  L 30,141  L 30,145  L 31,145  L 31,147  L 30,147  L 30,148  L 31,148  L 31,153  L 32,153  L 32,160  L 33,160  L 33,166  L 34,166  L 34,170  L 35,170  L 35,171  L 36,171  L 36,173  L 38,173  L 38,174  L 40,174  L 40,175  L 42,175  L 42,174  L 43,174  L 43,175  L 65,175  L 65,174  L 69,174  L 69,173  L 70,173  L 70,172  L 73,172  L 73,171  L 74,171  L 74,170  L 75,170  L 75,169  L 76,169  L 76,168  L 78,168  L 78,167  L 80,167  L 80,166  Z  M 43,168  L 43,167  L 42,167  L 42,166  L 41,166  L 41,163  L 40,163  L 40,156  L 39,156  L 39,146  L 38,146  L 38,144  L 39,144  L 39,143  L 42,143  L 42,142  L 73,142  L 73,143  L 74,143  L 74,142  L 79,142  L 79,143  L 80,143  L 80,145  L 81,145  L 81,154  L 80,154  L 80,158  L 79,158  L 79,160  L 78,160  L 78,161  L 77,161  L 77,162  L 74,162  L 74,163  L 72,163  L 72,164  L 69,164  L 69,165  L 66,165  L 66,166  L 65,166  L 65,167  L 60,167  L 60,168  Z  " style="fill:rgb(0, 0, 0); fill-opacity:1.000; stroke:none;" />
 <path d="  M 93,87  L 94,87  L 94,88  L 93,88  L 93,90  L 94,90  L 94,92  L 93,92  L 93,96  L 94,96  L 94,98  L 96,98  L 96,99  L 98,99  L 98,98  L 100,98  L 100,32  L 99,32  L 99,22  L 98,22  L 98,17  L 97,17  L 97,10  L 96,10  L 96,4  L 95,4  L 95,3  L 94,3  L 94,2  L 93,2  L 93,1  L 92,1  L 92,0  L 90,0  L 90,1  L 89,1  L 89,2  L 88,2  L 88,3  L 89,3  L 89,4  L 88,4  L 88,5  L 89,5  L 89,15  L 90,15  L 90,20  L 91,20  L 91,27  L 92,27  L 92,37  L 93,37  L 93,40  L 92,40  L 92,41  L 93,41  L 93,44  L 92,44  L 92,45  L 93,45  Z  " style="fill:rgb(0, 0, 0); fill-opacity:1.000; stroke:none;" />
</svg>
