<?xml version="1.0" encoding="UTF-8" standalone="no"?>
<!DOCTYPE svg PUBLIC "-//W3C//DTD SVG 1.1//EN" 
  "http://www.w3.org/Graphics/SVG/1.1/DTD/svg11.dtd">
<svg width="105" height="151"
     xmlns="http://www.w3.org/2000/svg" version="1.1">
 <path d="  M 60,61  L 59,61  L 59,60  L 57,60  L 57,59  L 56,59  L 56,58  L 54,58  L 54,57  L 53,57  L 53,56  L 52,56  L 52,55  L 50,55  L 50,54  L 49,54  L 49,53  L 48,53  L 48,52  L 47,52  L 47,51  L 46,51  L 46,50  L 45,50  L 45,49  L 43,49  L 43,48  L 42,48  L 42,47  L 41,47  L 41,45  L 39,45  L 39,43  L 37,43  L 37,41  L 36,41  L 36,40  L 35,40  L 35,39  L 33,39  L 33,38  L 32,38  L 32,34  L 33,34  L 33,33  L 34,33  L 34,31  L 35,31  L 35,30  L 36,30  L 36,29  L 37,29  L 37,28  L 38,28  L 38,27  L 39,27  L 39,26  L 40,26  L 40,25  L 41,25  L 41,24  L 42,24  L 42,22  L 44,22  L 44,21  L 45,21  L 45,20  L 46,20  L 46,17  L 47,17  L 47,15  L 46,15  L 46,12  L 45,12  L 45,11  L 44,11  L 44,9  L 43,9  L 43,8  L 42,8  L 42,6  L 41,6  L 41,5  L 35,5  L 35,6  L 29,6  L 29,7  L 23,7  L 23,8  L 19,8  L 19,9  L 10,9  L 10,10  L 6,10  L 6,11  L 3,11  L 3,12  L 1,12  L 1,18  L 2,18  L 2,19  L 3,19  L 3,20  L 4,20  L 4,19  L 6,19  L 6,18  L 8,18  L 8,17  L 10,17  L 10,16  L 15,16  L 15,15  L 24,15  L 24,14  L 29,14  L 29,13  L 35,13  L 35,12  L 36,12  L 36,13  L 37,13  L 37,12  L 38,12  L 38,13  L 39,13  L 39,17  L 38,17  L 38,18  L 37,18  L 37,20  L 36,20  L 36,21  L 34,21  L 34,22  L 33,22  L 33,23  L 32,23  L 32,24  L 31,24  L 31,25  L 30,25  L 30,26  L 29,26  L 29,27  L 27,27  L 27,29  L 26,29  L 26,31  L 25,31  L 25,33  L 24,33  L 24,35  L 22,35  L 22,37  L 21,37  L 21,39  L 20,39  L 20,41  L 19,41  L 19,42  L 18,42  L 18,44  L 17,44  L 17,45  L 16,45  L 16,46  L 15,46  L 15,48  L 14,48  L 14,49  L 13,49  L 13,50  L 12,50  L 12,51  L 11,51  L 11,52  L 10,52  L 10,54  L 9,54  L 9,55  L 7,55  L 7,56  L 5,56  L 5,57  L 4,57  L 4,58  L 2,58  L 2,62  L 3,62  L 3,63  L 4,63  L 4,64  L 9,64  L 9,63  L 10,63  L 10,62  L 12,62  L 12,61  L 13,61  L 13,60  L 14,60  L 14,59  L 15,59  L 15,58  L 16,58  L 16,56  L 17,56  L 17,55  L 18,55  L 18,54  L 19,54  L 19,53  L 20,53  L 20,52  L 21,52  L 21,50  L 22,50  L 22,49  L 23,49  L 23,48  L 24,48  L 24,46  L 25,46  L 25,44  L 27,44  L 27,42  L 29,42  L 29,44  L 30,44  L 30,45  L 31,45  L 31,46  L 32,46  L 32,47  L 33,47  L 33,48  L 34,48  L 34,49  L 35,49  L 35,50  L 36,50  L 36,51  L 37,51  L 37,52  L 38,52  L 38,53  L 39,53  L 39,54  L 40,54  L 40,55  L 42,55  L 42,56  L 43,56  L 43,57  L 44,57  L 44,58  L 45,58  L 45,59  L 47,59  L 47,60  L 48,60  L 48,61  L 49,61  L 49,62  L 50,62  L 50,63  L 51,63  L 51,64  L 52,64  L 52,65  L 54,65  L 54,66  L 55,66  L 55,67  L 57,67  L 57,68  L 58,68  L 58,67  L 59,67  L 59,68  L 60,68  Z  " style="fill:rgb(0, 0, 0); fill-opacity:1.000; stroke:none;" />
 <path d="  M 40,91  L 40,90  L 41,90  L 41,91  L 42,91  L 42,90  L 55,90  L 55,91  L 59,91  L 59,92  L 62,92  L 62,93  L 64,93  L 64,94  L 65,94  L 65,95  L 66,95  L 66,98  L 68,98  L 68,100  L 69,100  L 69,105  L 68,105  L 68,106  L 67,106  L 67,107  L 63,107  L 63,108  L 60,108  L 60,109  L 58,109  L 58,110  L 56,110  L 56,111  L 53,111  L 53,112  L 51,112  L 51,113  L 48,113  L 48,114  L 46,114  L 46,115  L 43,115  L 43,116  L 41,116  L 41,117  L 39,117  L 39,118  L 36,118  L 36,119  L 34,119  L 34,120  L 32,120  L 32,121  L 30,121  L 30,122  L 28,122  L 28,123  L 26,123  L 26,124  L 25,124  L 25,125  L 24,125  L 24,126  L 23,126  L 23,127  L 22,127  L 22,129  L 21,129  L 21,131  L 22,131  L 22,132  L 21,132  L 21,134  L 22,134  L 22,140  L 23,140  L 23,142  L 22,142  L 22,143  L 23,143  L 23,144  L 24,144  L 24,145  L 25,145  L 25,147  L 26,147  L 26,148  L 28,148  L 28,149  L 29,149  L 29,150  L 33,150  L 33,151  L 62,151  L 62,150  L 66,150  L 66,149  L 70,149  L 70,148  L 72,148  L 72,147  L 75,147  L 75,146  L 77,146  L 77,145  L 80,145  L 80,144  L 82,144  L 82,143  L 84,143  L 84,142  L 85,142  L 85,141  L 87,141  L 87,139  L 88,139  L 88,134  L 83,134  L 83,135  L 81,135  L 81,136  L 80,136  L 80,137  L 77,137  L 77,138  L 76,138  L 76,139  L 73,139  L 73,140  L 71,140  L 71,141  L 68,141  L 68,142  L 64,142  L 64,143  L 59,143  L 59,144  L 56,144  L 56,143  L 55,143  L 55,144  L 51,144  L 51,145  L 46,145  L 46,144  L 45,144  L 45,145  L 42,145  L 42,144  L 36,144  L 36,143  L 32,143  L 32,142  L 31,142  L 31,141  L 30,141  L 30,139  L 29,139  L 29,130  L 30,130  L 30,129  L 31,129  L 31,128  L 33,128  L 33,127  L 35,127  L 35,126  L 36,126  L 36,125  L 40,125  L 40,124  L 43,124  L 43,123  L 45,123  L 45,122  L 48,122  L 48,121  L 51,121  L 51,120  L 54,120  L 54,119  L 56,119  L 56,118  L 58,118  L 58,117  L 60,117  L 60,116  L 62,116  L 62,115  L 64,115  L 64,114  L 67,114  L 67,113  L 69,113  L 69,112  L 71,112  L 71,111  L 72,111  L 72,110  L 76,110  L 76,109  L 77,109  L 77,104  L 78,104  L 78,103  L 77,103  L 77,99  L 76,99  L 76,98  L 75,98  L 75,95  L 74,95  L 74,93  L 73,93  L 73,92  L 72,92  L 72,90  L 70,90  L 70,89  L 69,89  L 69,88  L 68,88  L 68,87  L 65,87  L 65,86  L 63,86  L 63,85  L 59,85  L 59,84  L 54,84  L 54,83  L 47,83  L 47,84  L 46,84  L 46,83  L 45,83  L 45,84  L 44,84  L 44,83  L 43,83  L 43,84  L 29,84  L 29,86  L 28,86  L 28,87  L 27,87  L 27,90  L 28,90  L 28,91  L 30,91  L 30,92  L 32,92  L 32,91  Z  " style="fill:rgb(0, 0, 0); fill-opacity:1.000; stroke:none;" />
 <path d="  M 74,50  L 74,53  L 73,53  L 73,54  L 74,54  L 74,57  L 73,57  L 73,58  L 74,58  L 74,72  L 75,72  L 75,76  L 76,76  L 76,77  L 77,77  L 77,78  L 82,78  L 82,73  L 81,73  L 81,65  L 80,65  L 80,62  L 81,62  L 81,61  L 80,61  L 80,58  L 81,58  L 81,57  L 80,57  L 80,49  L 79,49  L 79,48  L 80,48  L 80,47  L 79,47  L 79,42  L 78,42  L 78,39  L 79,39  L 79,38  L 80,38  L 80,37  L 82,37  L 82,36  L 88,36  L 88,35  L 92,35  L 92,36  L 93,36  L 93,35  L 104,35  L 104,34  L 105,34  L 105,29  L 103,29  L 103,28  L 101,28  L 101,29  L 100,29  L 100,28  L 99,28  L 99,29  L 82,29  L 82,30  L 78,30  L 78,25  L 77,25  L 77,24  L 78,24  L 78,23  L 77,23  L 77,17  L 76,17  L 76,16  L 77,16  L 77,15  L 76,15  L 76,3  L 75,3  L 75,1  L 72,1  L 72,0  L 70,0  L 70,1  L 69,1  L 69,14  L 70,14  L 70,21  L 71,21  L 71,22  L 70,22  L 70,24  L 71,24  L 71,34  L 72,34  L 72,40  L 73,40  L 73,41  L 72,41  L 72,42  L 73,42  L 73,50  Z  " style="fill:rgb(0, 0, 0); fill-opacity:1.000; stroke:none;" />
</svg>
