<?xml version="1.0" encoding="UTF-8" standalone="no"?>
<!DOCTYPE svg PUBLIC "-//W3C//DTD SVG 1.1//EN" 
  "http://www.w3.org/Graphics/SVG/1.1/DTD/svg11.dtd">
<svg width="106" height="150"
     xmlns="http://www.w3.org/2000/svg" version="1.1">
 <path d="  M 38,59  L 38,60  L 39,60  L 39,61  L 40,61  L 40,62  L 41,62  L 41,63  L 42,63  L 42,64  L 43,64  L 43,66  L 44,66  L 44,67  L 45,67  L 45,68  L 46,68  L 46,69  L 47,69  L 47,70  L 48,70  L 48,71  L 51,71  L 51,70  L 52,70  L 52,68  L 53,68  L 53,67  L 52,67  L 52,64  L 51,64  L 51,62  L 49,62  L 49,61  L 48,61  L 48,60  L 47,60  L 47,59  L 46,59  L 46,57  L 44,57  L 44,55  L 43,55  L 43,54  L 42,54  L 42,53  L 41,53  L 41,52  L 40,52  L 40,50  L 39,50  L 39,48  L 38,48  L 38,47  L 37,47  L 37,45  L 36,45  L 36,44  L 35,44  L 35,43  L 34,43  L 34,42  L 33,42  L 33,41  L 32,41  L 32,40  L 31,40  L 31,36  L 32,36  L 32,34  L 33,34  L 33,33  L 34,33  L 34,31  L 35,31  L 35,30  L 36,30  L 36,29  L 37,29  L 37,28  L 38,28  L 38,27  L 39,27  L 39,26  L 40,26  L 40,25  L 41,25  L 41,23  L 42,23  L 42,22  L 43,22  L 43,20  L 44,20  L 44,18  L 45,18  L 45,13  L 44,13  L 44,12  L 43,12  L 43,10  L 42,10  L 42,9  L 41,9  L 41,7  L 40,7  L 40,6  L 35,6  L 35,7  L 31,7  L 31,8  L 27,8  L 27,9  L 21,9  L 21,10  L 13,10  L 13,11  L 9,11  L 9,12  L 8,12  L 8,11  L 7,11  L 7,12  L 6,12  L 6,13  L 4,13  L 4,14  L 2,14  L 2,15  L 1,15  L 1,20  L 3,20  L 3,21  L 4,21  L 4,20  L 7,20  L 7,19  L 9,19  L 9,18  L 12,18  L 12,17  L 19,17  L 19,16  L 26,16  L 26,15  L 27,15  L 27,16  L 28,16  L 28,15  L 31,15  L 31,14  L 37,14  L 37,15  L 38,15  L 38,17  L 37,17  L 37,19  L 36,19  L 36,21  L 34,21  L 34,23  L 33,23  L 33,24  L 32,24  L 32,25  L 31,25  L 31,26  L 29,26  L 29,27  L 28,27  L 28,30  L 27,30  L 27,32  L 26,32  L 26,33  L 25,33  L 25,35  L 24,35  L 24,36  L 23,36  L 23,37  L 22,37  L 22,39  L 21,39  L 21,41  L 20,41  L 20,42  L 19,42  L 19,43  L 18,43  L 18,45  L 17,45  L 17,46  L 16,46  L 16,48  L 15,48  L 15,49  L 14,49  L 14,51  L 13,51  L 13,52  L 12,52  L 12,54  L 10,54  L 10,56  L 9,56  L 9,57  L 8,57  L 8,58  L 7,58  L 7,59  L 6,59  L 6,60  L 4,60  L 4,61  L 3,61  L 3,62  L 1,62  L 1,64  L 0,64  L 0,67  L 1,67  L 1,70  L 6,70  L 6,69  L 7,69  L 7,68  L 8,68  L 8,67  L 9,67  L 9,66  L 10,66  L 10,65  L 11,65  L 11,64  L 12,64  L 12,63  L 13,63  L 13,61  L 14,61  L 14,60  L 15,60  L 15,59  L 16,59  L 16,58  L 17,58  L 17,57  L 18,57  L 18,56  L 19,56  L 19,55  L 20,55  L 20,54  L 21,54  L 21,52  L 22,52  L 22,50  L 23,50  L 23,49  L 24,49  L 24,47  L 25,47  L 25,46  L 28,46  L 28,48  L 29,48  L 29,49  L 30,49  L 30,50  L 31,50  L 31,52  L 32,52  L 32,53  L 33,53  L 33,54  L 34,54  L 34,55  L 35,55  L 35,56  L 36,56  L 36,58  L 37,58  L 37,59  Z  " style="fill:rgb(0, 0, 0); fill-opacity:1.000; stroke:none;" />
 <path d="  M 51,133  L 51,131  L 52,131  L 52,130  L 53,130  L 53,129  L 54,129  L 54,128  L 55,128  L 55,127  L 56,127  L 56,125  L 57,125  L 57,123  L 59,123  L 59,122  L 61,122  L 61,124  L 62,124  L 62,125  L 63,125  L 63,126  L 65,126  L 65,127  L 66,127  L 66,128  L 68,128  L 68,129  L 70,129  L 70,130  L 72,130  L 72,131  L 73,131  L 73,132  L 76,132  L 76,133  L 77,133  L 77,134  L 79,134  L 79,135  L 81,135  L 81,136  L 82,136  L 82,137  L 84,137  L 84,138  L 85,138  L 85,139  L 87,139  L 87,140  L 88,140  L 88,141  L 89,141  L 89,142  L 93,142  L 93,141  L 94,141  L 94,140  L 95,140  L 95,136  L 94,136  L 94,135  L 93,135  L 93,134  L 92,134  L 92,133  L 89,133  L 89,132  L 88,132  L 88,131  L 86,131  L 86,130  L 84,130  L 84,129  L 82,129  L 82,128  L 80,128  L 80,127  L 79,127  L 79,126  L 77,126  L 77,125  L 75,125  L 75,124  L 73,124  L 73,123  L 71,123  L 71,122  L 69,122  L 69,121  L 68,121  L 68,120  L 65,120  L 65,119  L 62,119  L 62,118  L 63,118  L 63,117  L 64,117  L 64,116  L 65,116  L 65,115  L 66,115  L 66,114  L 67,114  L 67,113  L 68,113  L 68,111  L 69,111  L 69,109  L 70,109  L 70,108  L 71,108  L 71,107  L 72,107  L 72,106  L 73,106  L 73,104  L 74,104  L 74,102  L 75,102  L 75,99  L 74,99  L 74,97  L 73,97  L 73,96  L 71,96  L 71,95  L 70,95  L 70,94  L 68,94  L 68,93  L 65,93  L 65,92  L 64,92  L 64,91  L 60,91  L 60,90  L 59,90  L 59,91  L 49,91  L 49,92  L 48,92  L 48,91  L 47,91  L 47,92  L 42,92  L 42,93  L 35,93  L 35,94  L 31,94  L 31,95  L 30,95  L 30,97  L 29,97  L 29,100  L 30,100  L 30,102  L 32,102  L 32,101  L 35,101  L 35,100  L 39,100  L 39,99  L 46,99  L 46,98  L 47,98  L 47,99  L 48,99  L 48,98  L 66,98  L 66,99  L 67,99  L 67,101  L 66,101  L 66,103  L 65,103  L 65,105  L 64,105  L 64,106  L 63,106  L 63,107  L 62,107  L 62,108  L 61,108  L 61,109  L 60,109  L 60,110  L 59,110  L 59,111  L 58,111  L 58,112  L 57,112  L 57,113  L 56,113  L 56,114  L 55,114  L 55,115  L 54,115  L 54,116  L 53,116  L 53,117  L 52,117  L 52,118  L 51,118  L 51,119  L 50,119  L 50,121  L 49,121  L 49,124  L 48,124  L 48,125  L 47,125  L 47,127  L 46,127  L 46,128  L 45,128  L 45,129  L 44,129  L 44,132  L 43,132  L 43,133  L 42,133  L 42,135  L 41,135  L 41,137  L 40,137  L 40,138  L 39,138  L 39,139  L 38,139  L 38,141  L 37,141  L 37,142  L 36,142  L 36,143  L 35,143  L 35,144  L 34,144  L 34,145  L 33,145  L 33,147  L 32,147  L 32,149  L 33,149  L 33,150  L 38,150  L 38,149  L 39,149  L 39,148  L 40,148  L 40,146  L 41,146  L 41,145  L 42,145  L 42,144  L 43,144  L 43,143  L 44,143  L 44,141  L 45,141  L 45,140  L 46,140  L 46,138  L 47,138  L 47,137  L 48,137  L 48,136  L 49,136  L 49,135  L 50,135  L 50,133  Z  " style="fill:rgb(0, 0, 0); fill-opacity:1.000; stroke:none;" />
 <path d="  M 68,17  L 69,17  L 69,25  L 70,25  L 70,35  L 71,35  L 71,46  L 72,46  L 72,59  L 73,59  L 73,67  L 72,67  L 72,68  L 73,68  L 73,77  L 74,77  L 74,81  L 75,81  L 75,82  L 78,82  L 78,81  L 79,81  L 79,80  L 80,80  L 80,79  L 79,79  L 79,78  L 80,78  L 80,77  L 79,77  L 79,59  L 78,59  L 78,56  L 79,56  L 79,55  L 78,55  L 78,52  L 79,52  L 79,51  L 78,51  L 78,46  L 77,46  L 77,42  L 78,42  L 78,41  L 79,41  L 79,40  L 84,40  L 84,39  L 92,39  L 92,38  L 93,38  L 93,39  L 94,39  L 94,38  L 95,38  L 95,39  L 96,39  L 96,38  L 99,38  L 99,39  L 100,39  L 100,38  L 106,38  L 106,33  L 104,33  L 104,32  L 101,32  L 101,31  L 100,31  L 100,32  L 87,32  L 87,33  L 86,33  L 86,32  L 83,32  L 83,33  L 78,33  L 78,32  L 77,32  L 77,31  L 76,31  L 76,25  L 75,25  L 75,24  L 76,24  L 76,23  L 75,23  L 75,17  L 74,17  L 74,11  L 73,11  L 73,8  L 74,8  L 74,7  L 73,7  L 73,3  L 72,3  L 72,1  L 70,1  L 70,0  L 68,0  L 68,1  L 67,1  L 67,10  L 68,10  Z  " style="fill:rgb(0, 0, 0); fill-opacity:1.000; stroke:none;" />
</svg>
