<?xml version="1.0" encoding="UTF-8" standalone="no"?>
<!DOCTYPE svg PUBLIC "-//W3C//DTD SVG 1.1//EN" 
  "http://www.w3.org/Graphics/SVG/1.1/DTD/svg11.dtd">
<svg width="103" height="159"
     xmlns="http://www.w3.org/2000/svg" version="1.1">
 <path d="  M 45,27  L 45,25  L 46,25  L 46,22  L 47,22  L 47,12  L 46,12  L 46,11  L 45,11  L 45,10  L 43,10  L 43,9  L 39,9  L 39,10  L 37,10  L 37,11  L 31,11  L 31,12  L 24,12  L 24,13  L 23,13  L 23,12  L 22,12  L 22,13  L 12,13  L 12,14  L 6,14  L 6,15  L 4,15  L 4,16  L 3,16  L 3,17  L 2,17  L 2,18  L 1,18  L 1,21  L 2,21  L 2,23  L 8,23  L 8,22  L 9,22  L 9,21  L 13,21  L 13,20  L 25,20  L 25,19  L 32,19  L 32,18  L 36,18  L 36,17  L 39,17  L 39,18  L 41,18  L 41,19  L 40,19  L 40,21  L 39,21  L 39,23  L 38,23  L 38,25  L 37,25  L 37,26  L 36,26  L 36,28  L 35,28  L 35,29  L 34,29  L 34,30  L 33,30  L 33,31  L 32,31  L 32,32  L 31,32  L 31,34  L 30,34  L 30,35  L 29,35  L 29,36  L 28,36  L 28,38  L 27,38  L 27,40  L 26,40  L 26,41  L 25,41  L 25,42  L 24,42  L 24,43  L 22,43  L 22,44  L 21,44  L 21,47  L 20,47  L 20,49  L 19,49  L 19,50  L 17,50  L 17,52  L 16,52  L 16,54  L 15,54  L 15,55  L 14,55  L 14,56  L 13,56  L 13,58  L 12,58  L 12,59  L 11,59  L 11,60  L 10,60  L 10,62  L 9,62  L 9,63  L 7,63  L 7,64  L 5,64  L 5,65  L 4,65  L 4,66  L 3,66  L 3,67  L 2,67  L 2,68  L 1,68  L 1,71  L 0,71  L 0,73  L 1,73  L 1,74  L 2,74  L 2,75  L 3,75  L 3,76  L 4,76  L 4,77  L 6,77  L 6,76  L 8,76  L 8,75  L 9,75  L 9,73  L 10,73  L 10,72  L 11,72  L 11,70  L 12,70  L 12,69  L 13,69  L 13,68  L 14,68  L 14,66  L 15,66  L 15,65  L 16,65  L 16,64  L 17,64  L 17,63  L 18,63  L 18,62  L 19,62  L 19,60  L 21,60  L 21,58  L 22,58  L 22,56  L 23,56  L 23,53  L 24,53  L 24,52  L 25,52  L 25,53  L 26,53  L 26,54  L 27,54  L 27,55  L 29,55  L 29,56  L 30,56  L 30,57  L 32,57  L 32,58  L 33,58  L 33,59  L 35,59  L 35,60  L 36,60  L 36,61  L 37,61  L 37,62  L 38,62  L 38,63  L 39,63  L 39,64  L 40,64  L 40,65  L 41,65  L 41,66  L 42,66  L 42,67  L 43,67  L 43,68  L 44,68  L 44,70  L 46,70  L 46,73  L 47,73  L 47,74  L 48,74  L 48,75  L 52,75  L 52,74  L 53,74  L 53,73  L 54,73  L 54,71  L 55,71  L 55,69  L 54,69  L 54,68  L 53,68  L 53,67  L 52,67  L 52,65  L 51,65  L 51,64  L 50,64  L 50,63  L 49,63  L 49,62  L 48,62  L 48,61  L 47,61  L 47,60  L 46,60  L 46,59  L 45,59  L 45,58  L 44,58  L 44,57  L 42,57  L 42,56  L 41,56  L 41,55  L 39,55  L 39,54  L 38,54  L 38,52  L 36,52  L 36,51  L 34,51  L 34,49  L 33,49  L 33,46  L 32,46  L 32,44  L 33,44  L 33,43  L 34,43  L 34,40  L 35,40  L 35,38  L 36,38  L 36,37  L 37,37  L 37,35  L 38,35  L 38,34  L 39,34  L 39,33  L 40,33  L 40,32  L 41,32  L 41,31  L 42,31  L 42,29  L 43,29  L 43,28  L 44,28  L 44,27  Z  " style="fill:rgb(0, 0, 0); fill-opacity:1.000; stroke:none;" />
 <path d="  M 91,148  L 96,148  L 96,147  L 97,147  L 97,146  L 98,146  L 98,145  L 99,145  L 99,144  L 100,144  L 100,140  L 98,140  L 98,139  L 94,139  L 94,140  L 90,140  L 90,141  L 87,141  L 87,142  L 85,142  L 85,143  L 83,143  L 83,144  L 81,144  L 81,145  L 78,145  L 78,146  L 76,146  L 76,147  L 75,147  L 75,146  L 74,146  L 74,148  L 70,148  L 70,149  L 67,149  L 67,150  L 64,150  L 64,151  L 60,151  L 60,152  L 56,152  L 56,153  L 55,153  L 55,152  L 54,152  L 54,153  L 53,153  L 53,152  L 52,152  L 52,153  L 49,153  L 49,152  L 45,152  L 45,151  L 44,151  L 44,150  L 43,150  L 43,148  L 42,148  L 42,144  L 41,144  L 41,143  L 42,143  L 42,141  L 43,141  L 43,139  L 44,139  L 44,137  L 45,137  L 45,136  L 47,136  L 47,135  L 50,135  L 50,133  L 53,133  L 53,132  L 55,132  L 55,131  L 57,131  L 57,130  L 60,130  L 60,129  L 63,129  L 63,128  L 67,128  L 67,127  L 70,127  L 70,126  L 74,126  L 74,125  L 75,125  L 75,124  L 79,124  L 79,123  L 81,123  L 81,122  L 83,122  L 83,121  L 85,121  L 85,120  L 86,120  L 86,118  L 87,118  L 87,113  L 88,113  L 88,111  L 87,111  L 87,110  L 86,110  L 86,105  L 85,105  L 85,103  L 84,103  L 84,102  L 83,102  L 83,101  L 82,101  L 82,100  L 81,100  L 81,99  L 79,99  L 79,98  L 77,98  L 77,97  L 75,97  L 75,96  L 71,96  L 71,95  L 68,95  L 68,94  L 66,94  L 66,95  L 65,95  L 65,94  L 55,94  L 55,93  L 54,93  L 54,94  L 52,94  L 52,93  L 48,93  L 48,94  L 42,94  L 42,95  L 41,95  L 41,96  L 39,96  L 39,97  L 38,97  L 38,98  L 37,98  L 37,102  L 38,102  L 38,103  L 39,103  L 39,102  L 42,102  L 42,103  L 43,103  L 43,102  L 46,102  L 46,101  L 64,101  L 64,102  L 65,102  L 65,101  L 66,101  L 66,102  L 72,102  L 72,103  L 74,103  L 74,104  L 76,104  L 76,105  L 77,105  L 77,107  L 78,107  L 78,109  L 79,109  L 79,110  L 80,110  L 80,114  L 79,114  L 79,115  L 78,115  L 78,116  L 76,116  L 76,117  L 74,117  L 74,118  L 71,118  L 71,119  L 68,119  L 68,120  L 66,120  L 66,121  L 63,121  L 63,122  L 58,122  L 58,123  L 56,123  L 56,124  L 54,124  L 54,125  L 51,125  L 51,126  L 47,126  L 47,128  L 44,128  L 44,129  L 43,129  L 43,130  L 42,130  L 42,131  L 41,131  L 41,132  L 40,132  L 40,133  L 39,133  L 39,136  L 38,136  L 38,137  L 37,137  L 37,138  L 36,138  L 36,141  L 35,141  L 35,142  L 34,142  L 34,145  L 33,145  L 33,146  L 34,146  L 34,149  L 35,149  L 35,150  L 36,150  L 36,153  L 37,153  L 37,155  L 38,155  L 38,156  L 39,156  L 39,157  L 40,157  L 40,158  L 44,158  L 44,159  L 62,159  L 62,158  L 66,158  L 66,157  L 70,157  L 70,156  L 73,156  L 73,155  L 75,155  L 75,154  L 78,154  L 78,153  L 80,153  L 80,152  L 83,152  L 83,151  L 86,151  L 86,150  L 89,150  L 89,149  L 91,149  Z  " style="fill:rgb(0, 0, 0); fill-opacity:1.000; stroke:none;" />
 <path d="  M 102,6  L 101,6  L 101,5  L 100,5  L 100,4  L 97,4  L 97,5  L 96,5  L 96,6  L 95,6  L 95,18  L 96,18  L 96,19  L 95,19  L 95,21  L 96,21  L 96,28  L 95,28  L 95,29  L 94,29  L 94,30  L 89,30  L 89,31  L 88,31  L 88,30  L 86,30  L 86,31  L 84,31  L 84,30  L 82,30  L 82,31  L 77,31  L 77,30  L 76,30  L 76,27  L 77,27  L 77,26  L 76,26  L 76,25  L 77,25  L 77,9  L 76,9  L 76,8  L 77,8  L 77,6  L 76,6  L 76,2  L 75,2  L 75,1  L 73,1  L 73,0  L 72,0  L 72,1  L 70,1  L 70,22  L 69,22  L 69,23  L 70,23  L 70,24  L 69,24  L 69,27  L 70,27  L 70,28  L 69,28  L 69,39  L 70,39  L 70,40  L 69,40  L 69,41  L 70,41  L 70,47  L 71,47  L 71,50  L 70,50  L 70,51  L 71,51  L 71,58  L 70,58  L 70,59  L 71,59  L 71,60  L 70,60  L 70,70  L 69,70  L 69,79  L 70,79  L 70,81  L 71,81  L 71,80  L 73,80  L 73,79  L 74,79  L 74,78  L 75,78  L 75,76  L 76,76  L 76,72  L 77,72  L 77,63  L 78,63  L 78,55  L 79,55  L 79,47  L 80,47  L 80,46  L 79,46  L 79,44  L 78,44  L 78,39  L 81,39  L 81,38  L 89,38  L 89,37  L 91,37  L 91,38  L 93,38  L 93,37  L 95,37  L 95,38  L 96,38  L 96,40  L 95,40  L 95,87  L 94,87  L 94,89  L 95,89  L 95,91  L 97,91  L 97,92  L 99,92  L 99,91  L 101,91  L 101,85  L 102,85  L 102,84  L 101,84  L 101,81  L 102,81  L 102,65  L 103,65  L 103,28  L 102,28  Z  " style="fill:rgb(0, 0, 0); fill-opacity:1.000; stroke:none;" />
</svg>
