<?xml version="1.0" encoding="UTF-8" standalone="no"?>
<!DOCTYPE svg PUBLIC "-//W3C//DTD SVG 1.1//EN" 
  "http://www.w3.org/Graphics/SVG/1.1/DTD/svg11.dtd">
<svg width="99" height="139"
     xmlns="http://www.w3.org/2000/svg" version="1.1">
 <path d="  M 22,47  L 22,46  L 23,46  L 23,47  L 25,47  L 25,48  L 28,48  L 28,49  L 30,49  L 30,50  L 31,50  L 31,51  L 33,51  L 33,52  L 34,52  L 34,53  L 37,53  L 37,54  L 38,54  L 38,55  L 40,55  L 40,56  L 41,56  L 41,57  L 43,57  L 43,58  L 44,58  L 44,59  L 45,59  L 45,60  L 48,60  L 48,62  L 50,62  L 50,63  L 52,63  L 52,64  L 53,64  L 53,65  L 56,65  L 56,59  L 55,59  L 55,58  L 54,58  L 54,57  L 52,57  L 52,55  L 51,55  L 51,54  L 49,54  L 49,53  L 48,53  L 48,52  L 47,52  L 47,51  L 46,51  L 46,50  L 44,50  L 44,49  L 43,49  L 43,48  L 40,48  L 40,47  L 39,47  L 39,46  L 37,46  L 37,45  L 35,45  L 35,44  L 33,44  L 33,43  L 32,43  L 32,41  L 31,41  L 31,37  L 32,37  L 32,36  L 33,36  L 33,33  L 34,33  L 34,32  L 35,32  L 35,30  L 36,30  L 36,29  L 37,29  L 37,27  L 38,27  L 38,26  L 39,26  L 39,24  L 40,24  L 40,23  L 41,23  L 41,22  L 42,22  L 42,20  L 43,20  L 43,18  L 44,18  L 44,16  L 45,16  L 45,11  L 44,11  L 44,9  L 43,9  L 43,7  L 42,7  L 42,6  L 41,6  L 41,5  L 40,5  L 40,4  L 39,4  L 39,3  L 37,3  L 37,4  L 34,4  L 34,5  L 28,5  L 28,6  L 22,6  L 22,7  L 21,7  L 21,6  L 20,6  L 20,7  L 16,7  L 16,8  L 13,8  L 13,7  L 12,7  L 12,8  L 9,8  L 9,9  L 5,9  L 5,10  L 3,10  L 3,11  L 2,11  L 2,18  L 5,18  L 5,17  L 7,17  L 7,16  L 9,16  L 9,15  L 15,15  L 15,14  L 25,14  L 25,13  L 31,13  L 31,12  L 34,12  L 34,11  L 36,11  L 36,12  L 37,12  L 37,13  L 38,13  L 38,16  L 37,16  L 37,17  L 36,17  L 36,19  L 35,19  L 35,21  L 34,21  L 34,23  L 32,23  L 32,24  L 31,24  L 31,26  L 30,26  L 30,27  L 29,27  L 29,29  L 28,29  L 28,30  L 27,30  L 27,32  L 26,32  L 26,33  L 25,33  L 25,35  L 23,35  L 23,36  L 22,36  L 22,37  L 21,37  L 21,39  L 19,39  L 19,41  L 18,41  L 18,43  L 16,43  L 16,44  L 15,44  L 15,45  L 14,45  L 14,47  L 13,47  L 13,48  L 12,48  L 12,49  L 11,49  L 11,50  L 10,50  L 10,52  L 9,52  L 9,53  L 8,53  L 8,54  L 7,54  L 7,56  L 5,56  L 5,57  L 3,57  L 3,58  L 2,58  L 2,59  L 1,59  L 1,60  L 0,60  L 0,63  L 1,63  L 1,65  L 2,65  L 2,66  L 3,66  L 3,67  L 7,67  L 7,66  L 8,66  L 8,65  L 9,65  L 9,63  L 10,63  L 10,62  L 11,62  L 11,61  L 12,61  L 12,60  L 13,60  L 13,58  L 14,58  L 14,57  L 15,57  L 15,56  L 16,56  L 16,55  L 17,55  L 17,54  L 18,54  L 18,52  L 19,52  L 19,50  L 20,50  L 20,48  L 21,48  L 21,47  Z  " style="fill:rgb(0, 0, 0); fill-opacity:1.000; stroke:none;" />
 <path d="  M 55,97  L 55,96  L 56,96  L 56,97  L 57,97  L 57,96  L 79,96  L 79,95  L 80,95  L 80,96  L 81,96  L 81,95  L 82,95  L 82,96  L 83,96  L 83,95  L 84,95  L 84,96  L 87,96  L 87,95  L 88,95  L 88,96  L 89,96  L 89,95  L 92,95  L 92,96  L 93,96  L 93,111  L 92,111  L 92,119  L 91,119  L 91,125  L 90,125  L 90,129  L 89,129  L 89,133  L 87,133  L 87,134  L 85,134  L 85,133  L 82,133  L 82,134  L 81,134  L 81,133  L 78,133  L 78,134  L 77,134  L 77,133  L 74,133  L 74,134  L 73,134  L 73,133  L 44,133  L 44,99  L 45,99  L 45,98  L 47,98  L 47,97  Z  M 93,139  L 93,138  L 94,138  L 94,137  L 95,137  L 95,131  L 96,131  L 96,130  L 95,130  L 95,129  L 96,129  L 96,123  L 97,123  L 97,119  L 98,119  L 98,113  L 99,113  L 99,92  L 98,92  L 98,91  L 97,91  L 97,90  L 96,90  L 96,89  L 87,89  L 87,90  L 86,90  L 86,89  L 85,89  L 85,90  L 84,90  L 84,89  L 83,89  L 83,90  L 82,90  L 82,89  L 79,89  L 79,90  L 76,90  L 76,89  L 75,89  L 75,90  L 74,90  L 74,89  L 73,89  L 73,90  L 70,90  L 70,89  L 69,89  L 69,90  L 68,90  L 68,89  L 67,89  L 67,90  L 52,90  L 52,91  L 51,91  L 51,90  L 50,90  L 50,91  L 49,91  L 49,90  L 48,90  L 48,91  L 40,91  L 40,92  L 37,92  L 37,93  L 35,93  L 35,94  L 31,94  L 31,95  L 30,95  L 30,96  L 29,96  L 29,97  L 30,97  L 30,98  L 31,98  L 31,99  L 33,99  L 33,100  L 34,100  L 34,99  L 36,99  L 36,100  L 37,100  L 37,102  L 38,102  L 38,103  L 37,103  L 37,116  L 38,116  L 38,117  L 37,117  L 37,120  L 38,120  L 38,122  L 37,122  L 37,124  L 38,124  L 38,126  L 37,126  L 37,127  L 38,127  L 38,133  L 39,133  L 39,136  L 41,136  L 41,138  L 42,138  L 42,139  Z  " style="fill:rgb(0, 0, 0); fill-opacity:1.000; stroke:none;" />
 <path d="  M 95,15  L 94,15  L 94,12  L 95,12  L 95,11  L 94,11  L 94,7  L 93,7  L 93,4  L 92,4  L 92,3  L 87,3  L 87,4  L 86,4  L 86,6  L 85,6  L 85,8  L 86,8  L 86,16  L 87,16  L 87,24  L 89,24  L 89,26  L 90,26  L 90,28  L 88,28  L 88,29  L 84,29  L 84,30  L 73,30  L 73,31  L 71,31  L 71,30  L 70,30  L 70,29  L 71,29  L 71,25  L 70,25  L 70,24  L 71,24  L 71,23  L 70,23  L 70,1  L 69,1  L 69,0  L 65,0  L 65,1  L 64,1  L 64,2  L 63,2  L 63,20  L 64,20  L 64,36  L 65,36  L 65,42  L 66,42  L 66,46  L 67,46  L 67,49  L 66,49  L 66,50  L 67,50  L 67,53  L 66,53  L 66,54  L 67,54  L 67,57  L 66,57  L 66,73  L 67,73  L 67,74  L 70,74  L 70,73  L 71,73  L 71,72  L 72,72  L 72,68  L 73,68  L 73,60  L 74,60  L 74,50  L 75,50  L 75,49  L 74,49  L 74,47  L 75,47  L 75,46  L 74,46  L 74,43  L 72,43  L 72,39  L 73,39  L 73,38  L 75,38  L 75,37  L 79,37  L 79,36  L 87,36  L 87,35  L 91,35  L 91,36  L 92,36  L 92,37  L 91,37  L 91,45  L 90,45  L 90,46  L 91,46  L 91,49  L 90,49  L 90,50  L 91,50  L 91,53  L 90,53  L 90,56  L 91,56  L 91,57  L 90,57  L 90,66  L 89,66  L 89,73  L 88,73  L 88,78  L 89,78  L 89,79  L 90,79  L 90,78  L 95,78  L 95,75  L 96,75  L 96,65  L 97,65  L 97,60  L 98,60  L 98,59  L 97,59  L 97,58  L 98,58  L 98,57  L 97,57  L 97,56  L 98,56  L 98,41  L 99,41  L 99,40  L 98,40  L 98,36  L 99,36  L 99,31  L 98,31  L 98,28  L 97,28  L 97,27  L 96,27  L 96,21  L 95,21  Z  " style="fill:rgb(0, 0, 0); fill-opacity:1.000; stroke:none;" />
</svg>
