<?xml version="1.0" encoding="UTF-8" standalone="no"?>
<!DOCTYPE svg PUBLIC "-//W3C//DTD SVG 1.1//EN" 
  "http://www.w3.org/Graphics/SVG/1.1/DTD/svg11.dtd">
<svg width="104" height="146"
     xmlns="http://www.w3.org/2000/svg" version="1.1">
 <path d="  M 11,68  L 12,68  L 12,67  L 13,67  L 13,66  L 14,66  L 14,65  L 15,65  L 15,64  L 16,64  L 16,63  L 17,63  L 17,62  L 18,62  L 18,61  L 19,61  L 19,59  L 20,59  L 20,58  L 21,58  L 21,57  L 22,57  L 22,56  L 23,56  L 23,54  L 24,54  L 24,52  L 25,52  L 25,51  L 28,51  L 28,52  L 29,52  L 29,53  L 31,53  L 31,54  L 33,54  L 33,55  L 34,55  L 34,56  L 35,56  L 35,57  L 36,57  L 36,58  L 38,58  L 38,59  L 40,59  L 40,61  L 41,61  L 41,62  L 42,62  L 42,63  L 44,63  L 44,64  L 45,64  L 45,65  L 47,65  L 47,66  L 48,66  L 48,67  L 49,67  L 49,68  L 50,68  L 50,69  L 52,69  L 52,70  L 55,70  L 55,69  L 57,69  L 57,65  L 56,65  L 56,64  L 55,64  L 55,63  L 54,63  L 54,62  L 53,62  L 53,61  L 52,61  L 52,60  L 51,60  L 51,59  L 49,59  L 49,58  L 48,58  L 48,57  L 47,57  L 47,56  L 45,56  L 45,55  L 44,55  L 44,54  L 43,54  L 43,53  L 42,53  L 42,52  L 40,52  L 40,51  L 39,51  L 39,50  L 38,50  L 38,49  L 37,49  L 37,48  L 35,48  L 35,47  L 34,47  L 34,45  L 33,45  L 33,44  L 32,44  L 32,42  L 33,42  L 33,41  L 34,41  L 34,39  L 35,39  L 35,38  L 36,38  L 36,36  L 37,36  L 37,34  L 38,34  L 38,32  L 39,32  L 39,31  L 40,31  L 40,30  L 41,30  L 41,28  L 42,28  L 42,27  L 43,27  L 43,26  L 44,26  L 44,24  L 45,24  L 45,23  L 46,23  L 46,21  L 47,21  L 47,19  L 48,19  L 48,13  L 47,13  L 47,12  L 46,12  L 46,11  L 45,11  L 45,10  L 44,10  L 44,9  L 43,9  L 43,8  L 38,8  L 38,9  L 35,9  L 35,10  L 30,10  L 30,11  L 22,11  L 22,12  L 14,12  L 14,13  L 7,13  L 7,14  L 4,14  L 4,16  L 3,16  L 3,18  L 2,18  L 2,20  L 5,20  L 5,21  L 8,21  L 8,20  L 10,20  L 10,19  L 15,19  L 15,18  L 22,18  L 22,17  L 23,17  L 23,18  L 24,18  L 24,17  L 25,17  L 25,18  L 26,18  L 26,17  L 33,17  L 33,16  L 35,16  L 35,15  L 41,15  L 41,20  L 40,20  L 40,21  L 39,21  L 39,22  L 38,22  L 38,23  L 37,23  L 37,24  L 36,24  L 36,25  L 35,25  L 35,26  L 34,26  L 34,27  L 33,27  L 33,29  L 32,29  L 32,31  L 31,31  L 31,32  L 30,32  L 30,34  L 29,34  L 29,36  L 28,36  L 28,37  L 27,37  L 27,38  L 26,38  L 26,40  L 25,40  L 25,41  L 24,41  L 24,42  L 23,42  L 23,44  L 22,44  L 22,45  L 21,45  L 21,47  L 20,47  L 20,48  L 19,48  L 19,50  L 18,50  L 18,51  L 17,51  L 17,53  L 16,53  L 16,54  L 15,54  L 15,55  L 14,55  L 14,56  L 13,56  L 13,57  L 12,57  L 12,59  L 11,59  L 11,60  L 10,60  L 10,61  L 9,61  L 9,62  L 8,62  L 8,63  L 7,63  L 7,64  L 5,64  L 5,65  L 4,65  L 4,66  L 3,66  L 3,67  L 2,67  L 2,68  L 1,68  L 1,75  L 3,75  L 3,76  L 5,76  L 5,75  L 6,75  L 6,74  L 7,74  L 7,73  L 8,73  L 8,72  L 9,72  L 9,70  L 10,70  L 10,69  L 11,69  Z  " style="fill:rgb(0, 0, 0); fill-opacity:1.000; stroke:none;" />
 <path d="  M 27,141  L 26,141  L 26,142  L 25,142  L 25,146  L 31,146  L 31,145  L 32,145  L 32,144  L 33,144  L 33,142  L 34,142  L 34,141  L 35,141  L 35,140  L 36,140  L 36,138  L 37,138  L 37,137  L 38,137  L 38,136  L 39,136  L 39,135  L 40,135  L 40,133  L 41,133  L 41,131  L 42,131  L 42,130  L 43,130  L 43,128  L 44,128  L 44,127  L 45,127  L 45,125  L 46,125  L 46,123  L 47,123  L 47,122  L 48,122  L 48,120  L 49,120  L 49,119  L 50,119  L 50,118  L 51,118  L 51,115  L 52,115  L 52,114  L 54,114  L 54,115  L 56,115  L 56,116  L 57,116  L 57,117  L 58,117  L 58,118  L 59,118  L 59,119  L 60,119  L 60,120  L 61,120  L 61,121  L 63,121  L 63,123  L 65,123  L 65,124  L 66,124  L 66,125  L 68,125  L 68,126  L 69,126  L 69,127  L 70,127  L 70,128  L 72,128  L 72,130  L 74,130  L 74,131  L 77,131  L 77,132  L 78,132  L 78,133  L 80,133  L 80,134  L 82,134  L 82,135  L 83,135  L 83,136  L 85,136  L 85,137  L 88,137  L 88,138  L 90,138  L 90,139  L 93,139  L 93,140  L 98,140  L 98,141  L 100,141  L 100,140  L 102,140  L 102,139  L 104,139  L 104,135  L 102,135  L 102,134  L 97,134  L 97,133  L 92,133  L 92,132  L 90,132  L 90,131  L 88,131  L 88,130  L 87,130  L 87,129  L 85,129  L 85,128  L 83,128  L 83,127  L 82,127  L 82,126  L 80,126  L 80,125  L 77,125  L 77,124  L 76,124  L 76,123  L 75,123  L 75,122  L 74,122  L 74,121  L 72,121  L 72,120  L 71,120  L 71,119  L 70,119  L 70,118  L 68,118  L 68,117  L 67,117  L 67,116  L 65,116  L 65,114  L 63,114  L 63,112  L 61,112  L 61,110  L 60,110  L 60,109  L 59,109  L 59,106  L 60,106  L 60,104  L 61,104  L 61,103  L 62,103  L 62,102  L 63,102  L 63,101  L 64,101  L 64,100  L 65,100  L 65,98  L 66,98  L 66,97  L 67,97  L 67,92  L 66,92  L 66,91  L 60,91  L 60,92  L 59,92  L 59,94  L 58,94  L 58,96  L 57,96  L 57,98  L 56,98  L 56,99  L 55,99  L 55,100  L 54,100  L 54,101  L 53,101  L 53,104  L 52,104  L 52,105  L 51,105  L 51,106  L 50,106  L 50,108  L 49,108  L 49,110  L 48,110  L 48,111  L 47,111  L 47,112  L 46,112  L 46,114  L 45,114  L 45,115  L 44,115  L 44,117  L 43,117  L 43,118  L 42,118  L 42,120  L 41,120  L 41,121  L 40,121  L 40,123  L 39,123  L 39,124  L 38,124  L 38,126  L 37,126  L 37,128  L 36,128  L 36,129  L 35,129  L 35,130  L 34,130  L 34,132  L 33,132  L 33,134  L 32,134  L 32,135  L 30,135  L 30,136  L 29,136  L 29,138  L 28,138  L 28,139  L 27,139  Z  " style="fill:rgb(0, 0, 0); fill-opacity:1.000; stroke:none;" />
 <path d="  M 70,41  L 71,41  L 71,56  L 70,56  L 70,57  L 71,57  L 71,58  L 70,58  L 70,68  L 69,68  L 69,69  L 70,69  L 70,70  L 69,70  L 69,76  L 68,76  L 68,82  L 69,82  L 69,83  L 70,83  L 70,82  L 71,82  L 71,83  L 72,83  L 72,82  L 73,82  L 73,81  L 74,81  L 74,79  L 75,79  L 75,73  L 76,73  L 76,69  L 77,69  L 77,67  L 76,67  L 76,65  L 77,65  L 77,57  L 78,57  L 78,56  L 77,56  L 77,55  L 78,55  L 78,53  L 79,53  L 79,52  L 78,52  L 78,49  L 79,49  L 79,48  L 78,48  L 78,45  L 79,45  L 79,43  L 78,43  L 78,38  L 80,38  L 80,37  L 86,37  L 86,36  L 95,36  L 95,37  L 96,37  L 96,51  L 97,51  L 97,63  L 98,63  L 98,64  L 97,64  L 97,65  L 98,65  L 98,66  L 97,66  L 97,67  L 98,67  L 98,70  L 97,70  L 97,71  L 98,71  L 98,94  L 101,94  L 101,93  L 102,93  L 102,92  L 103,92  L 103,91  L 104,91  L 104,51  L 103,51  L 103,50  L 104,50  L 104,48  L 103,48  L 103,22  L 102,22  L 102,4  L 101,4  L 101,3  L 96,3  L 96,28  L 95,28  L 95,29  L 94,29  L 94,30  L 81,30  L 81,31  L 80,31  L 80,30  L 79,30  L 79,31  L 77,31  L 77,30  L 76,30  L 76,9  L 77,9  L 77,8  L 76,8  L 76,2  L 75,2  L 75,1  L 74,1  L 74,0  L 71,0  L 71,1  L 70,1  L 70,2  L 69,2  L 69,5  L 70,5  L 70,6  L 69,6  L 69,7  L 70,7  Z  " style="fill:rgb(0, 0, 0); fill-opacity:1.000; stroke:none;" />
</svg>
