<?xml version="1.0" encoding="UTF-8" standalone="no"?>
<!DOCTYPE svg PUBLIC "-//W3C//DTD SVG 1.1//EN" 
  "http://www.w3.org/Graphics/SVG/1.1/DTD/svg11.dtd">
<svg width="102" height="136"
     xmlns="http://www.w3.org/2000/svg" version="1.1">
 <path d="  M 11,61  L 11,60  L 12,60  L 12,59  L 13,59  L 13,58  L 14,58  L 14,57  L 15,57  L 15,56  L 16,56  L 16,55  L 17,55  L 17,54  L 18,54  L 18,53  L 19,53  L 19,52  L 20,52  L 20,49  L 21,49  L 21,46  L 23,46  L 23,45  L 24,45  L 24,46  L 26,46  L 26,47  L 27,47  L 27,48  L 28,48  L 28,49  L 29,49  L 29,50  L 30,50  L 30,51  L 32,51  L 32,52  L 33,52  L 33,53  L 34,53  L 34,54  L 35,54  L 35,55  L 36,55  L 36,56  L 37,56  L 37,57  L 39,57  L 39,58  L 40,58  L 40,59  L 41,59  L 41,60  L 43,60  L 43,61  L 44,61  L 44,63  L 46,63  L 46,64  L 47,64  L 47,63  L 50,63  L 50,57  L 49,57  L 49,56  L 48,56  L 48,54  L 46,54  L 46,53  L 45,53  L 45,52  L 42,52  L 42,51  L 41,51  L 41,50  L 40,50  L 40,49  L 39,49  L 39,48  L 37,48  L 37,47  L 36,47  L 36,46  L 35,46  L 35,45  L 34,45  L 34,44  L 33,44  L 33,43  L 32,43  L 32,42  L 31,42  L 31,40  L 30,40  L 30,35  L 31,35  L 31,34  L 33,34  L 33,33  L 34,33  L 34,31  L 35,31  L 35,29  L 36,29  L 36,28  L 37,28  L 37,26  L 38,26  L 38,24  L 39,24  L 39,22  L 40,22  L 40,21  L 41,21  L 41,20  L 42,20  L 42,18  L 43,18  L 43,16  L 44,16  L 44,13  L 45,13  L 45,12  L 44,12  L 44,10  L 43,10  L 43,9  L 42,9  L 42,8  L 41,8  L 41,7  L 39,7  L 39,6  L 31,6  L 31,7  L 13,7  L 13,8  L 12,8  L 12,7  L 10,7  L 10,8  L 6,8  L 6,9  L 3,9  L 3,10  L 1,10  L 1,12  L 0,12  L 0,14  L 1,14  L 1,15  L 4,15  L 4,16  L 6,16  L 6,15  L 8,15  L 8,14  L 16,14  L 16,13  L 17,13  L 17,14  L 18,14  L 18,13  L 21,13  L 21,14  L 22,14  L 22,13  L 33,13  L 33,12  L 38,12  L 38,14  L 37,14  L 37,16  L 36,16  L 36,17  L 35,17  L 35,18  L 34,18  L 34,19  L 33,19  L 33,21  L 32,21  L 32,23  L 31,23  L 31,25  L 30,25  L 30,26  L 29,26  L 29,28  L 28,28  L 28,30  L 27,30  L 27,31  L 26,31  L 26,32  L 25,32  L 25,33  L 24,33  L 24,35  L 23,35  L 23,36  L 22,36  L 22,37  L 21,37  L 21,38  L 20,38  L 20,40  L 19,40  L 19,42  L 18,42  L 18,44  L 17,44  L 17,45  L 16,45  L 16,46  L 15,46  L 15,47  L 14,47  L 14,48  L 13,48  L 13,49  L 12,49  L 12,50  L 11,50  L 11,52  L 10,52  L 10,53  L 9,53  L 9,54  L 7,54  L 7,55  L 5,55  L 5,56  L 2,56  L 2,57  L 1,57  L 1,63  L 2,63  L 2,65  L 4,65  L 4,66  L 5,66  L 5,65  L 7,65  L 7,63  L 9,63  L 9,62  L 10,62  L 10,61  Z  " style="fill:rgb(0, 0, 0); fill-opacity:1.000; stroke:none;" />
 <path d="  M 22,108  L 21,108  L 21,109  L 20,109  L 20,111  L 19,111  L 19,112  L 18,112  L 18,114  L 17,114  L 17,116  L 16,116  L 16,117  L 15,117  L 15,118  L 14,118  L 14,119  L 13,119  L 13,120  L 12,120  L 12,122  L 11,122  L 11,124  L 10,124  L 10,127  L 11,127  L 11,128  L 12,128  L 12,129  L 15,129  L 15,128  L 16,128  L 16,127  L 17,127  L 17,125  L 18,125  L 18,123  L 19,123  L 19,122  L 20,122  L 20,119  L 21,119  L 21,118  L 22,118  L 22,117  L 23,117  L 23,115  L 24,115  L 24,114  L 25,114  L 25,113  L 26,113  L 26,111  L 27,111  L 27,109  L 28,109  L 28,107  L 29,107  L 29,106  L 31,106  L 31,107  L 33,107  L 33,108  L 34,108  L 34,109  L 35,109  L 35,110  L 36,110  L 36,111  L 37,111  L 37,112  L 40,112  L 40,113  L 43,113  L 43,114  L 46,114  L 46,115  L 49,115  L 49,116  L 50,116  L 50,117  L 52,117  L 52,118  L 53,118  L 53,119  L 54,119  L 54,120  L 55,120  L 55,122  L 54,122  L 54,124  L 53,124  L 53,128  L 52,128  L 52,130  L 51,130  L 51,133  L 50,133  L 50,136  L 56,136  L 56,134  L 57,134  L 57,131  L 58,131  L 58,128  L 59,128  L 59,127  L 60,127  L 60,126  L 61,126  L 61,125  L 62,125  L 62,123  L 63,123  L 63,121  L 64,121  L 64,119  L 65,119  L 65,117  L 66,117  L 66,113  L 67,113  L 67,112  L 68,112  L 68,110  L 69,110  L 69,109  L 70,109  L 70,110  L 72,110  L 72,111  L 73,111  L 73,112  L 74,112  L 74,113  L 76,113  L 76,115  L 78,115  L 78,116  L 79,116  L 79,117  L 82,117  L 82,118  L 83,118  L 83,119  L 85,119  L 85,120  L 87,120  L 87,121  L 90,121  L 90,122  L 92,122  L 92,123  L 93,123  L 93,124  L 95,124  L 95,125  L 96,125  L 96,126  L 98,126  L 98,127  L 102,127  L 102,122  L 101,122  L 101,121  L 100,121  L 100,120  L 99,120  L 99,119  L 97,119  L 97,118  L 95,118  L 95,117  L 92,117  L 92,116  L 90,116  L 90,115  L 88,115  L 88,114  L 86,114  L 86,113  L 85,113  L 85,112  L 83,112  L 83,111  L 81,111  L 81,110  L 79,110  L 79,109  L 78,109  L 78,107  L 77,107  L 77,106  L 76,106  L 76,104  L 75,104  L 75,103  L 74,103  L 74,100  L 75,100  L 75,97  L 76,97  L 76,94  L 77,94  L 77,93  L 78,93  L 78,89  L 79,89  L 79,88  L 78,88  L 78,86  L 77,86  L 77,85  L 76,85  L 76,84  L 75,84  L 75,85  L 73,85  L 73,87  L 72,87  L 72,89  L 71,89  L 71,91  L 70,91  L 70,92  L 69,92  L 69,96  L 68,96  L 68,98  L 67,98  L 67,99  L 66,99  L 66,101  L 65,101  L 65,103  L 64,103  L 64,106  L 63,106  L 63,108  L 62,108  L 62,111  L 61,111  L 61,114  L 60,114  L 60,115  L 58,115  L 58,114  L 56,114  L 56,113  L 55,113  L 55,112  L 54,112  L 54,111  L 52,111  L 52,110  L 49,110  L 49,109  L 47,109  L 47,108  L 44,108  L 44,107  L 42,107  L 42,106  L 40,106  L 40,105  L 39,105  L 39,104  L 38,104  L 38,103  L 37,103  L 37,102  L 36,102  L 36,101  L 34,101  L 34,94  L 35,94  L 35,93  L 37,93  L 37,91  L 38,91  L 38,89  L 39,89  L 39,88  L 40,88  L 40,86  L 39,86  L 39,81  L 37,81  L 37,83  L 36,83  L 36,86  L 35,86  L 35,89  L 34,89  L 34,90  L 31,90  L 31,91  L 30,91  L 30,92  L 29,92  L 29,95  L 28,95  L 28,96  L 27,96  L 27,98  L 26,98  L 26,100  L 25,100  L 25,102  L 24,102  L 24,104  L 23,104  L 23,106  L 22,106  Z  " style="fill:rgb(0, 0, 0); fill-opacity:1.000; stroke:none;" />
 <path d="  M 75,21  L 76,21  L 76,23  L 77,23  L 77,26  L 74,26  L 74,27  L 72,27  L 72,26  L 71,26  L 71,27  L 66,27  L 66,26  L 65,26  L 65,25  L 64,25  L 64,24  L 65,24  L 65,20  L 64,20  L 64,19  L 65,19  L 65,18  L 64,18  L 64,13  L 63,13  L 63,8  L 62,8  L 62,4  L 61,4  L 61,2  L 60,2  L 60,1  L 59,1  L 59,0  L 57,0  L 57,1  L 56,1  L 56,8  L 57,8  L 57,13  L 58,13  L 58,21  L 59,21  L 59,33  L 60,33  L 60,40  L 61,40  L 61,41  L 60,41  L 60,42  L 61,42  L 61,53  L 60,53  L 60,54  L 61,54  L 61,55  L 60,55  L 60,56  L 61,56  L 61,57  L 60,57  L 60,70  L 62,70  L 62,71  L 64,71  L 64,70  L 65,70  L 65,69  L 66,69  L 66,59  L 67,59  L 67,58  L 66,58  L 66,57  L 67,57  L 67,56  L 66,56  L 66,55  L 67,55  L 67,39  L 66,39  L 66,34  L 69,34  L 69,33  L 77,33  L 77,34  L 78,34  L 78,45  L 79,45  L 79,46  L 78,46  L 78,49  L 79,49  L 79,51  L 78,51  L 78,54  L 79,54  L 79,55  L 78,55  L 78,61  L 79,61  L 79,63  L 78,63  L 78,65  L 79,65  L 79,66  L 78,66  L 78,70  L 79,70  L 79,71  L 78,71  L 78,75  L 79,75  L 79,76  L 80,76  L 80,77  L 82,77  L 82,76  L 83,76  L 83,77  L 84,77  L 84,76  L 85,76  L 85,73  L 86,73  L 86,72  L 85,72  L 85,69  L 86,69  L 86,68  L 85,68  L 85,65  L 86,65  L 86,64  L 85,64  L 85,62  L 86,62  L 86,60  L 85,60  L 85,58  L 86,58  L 86,56  L 85,56  L 85,54  L 86,54  L 86,52  L 85,52  L 85,49  L 86,49  L 86,48  L 85,48  L 85,46  L 86,46  L 86,44  L 85,44  L 85,43  L 86,43  L 86,42  L 85,42  L 85,41  L 86,41  L 86,40  L 85,40  L 85,37  L 86,37  L 86,36  L 85,36  L 85,33  L 86,33  L 86,32  L 85,32  L 85,27  L 84,27  L 84,24  L 83,24  L 83,18  L 82,18  L 82,12  L 81,12  L 81,5  L 80,5  L 80,2  L 79,2  L 79,1  L 78,1  L 78,0  L 75,0  L 75,2  L 74,2  L 74,9  L 75,9  L 75,10  L 74,10  L 74,12  L 75,12  Z  " style="fill:rgb(0, 0, 0); fill-opacity:1.000; stroke:none;" />
</svg>
