<?xml version="1.0" encoding="UTF-8" standalone="no"?>
<!DOCTYPE svg PUBLIC "-//W3C//DTD SVG 1.1//EN" 
  "http://www.w3.org/Graphics/SVG/1.1/DTD/svg11.dtd">
<svg width="102" height="143"
     xmlns="http://www.w3.org/2000/svg" version="1.1">
 <path d="  M 2,64  L 0,64  L 0,67  L 1,67  L 1,71  L 6,71  L 6,70  L 7,70  L 7,69  L 8,69  L 8,68  L 9,68  L 9,67  L 10,67  L 10,66  L 11,66  L 11,65  L 12,65  L 12,64  L 13,64  L 13,63  L 14,63  L 14,62  L 15,62  L 15,60  L 16,60  L 16,59  L 18,59  L 18,57  L 19,57  L 19,56  L 20,56  L 20,55  L 22,55  L 22,53  L 23,53  L 23,50  L 24,50  L 24,49  L 25,49  L 25,48  L 28,48  L 28,49  L 29,49  L 29,50  L 31,50  L 31,51  L 32,51  L 32,52  L 33,52  L 33,53  L 35,53  L 35,54  L 36,54  L 36,55  L 37,55  L 37,56  L 38,56  L 38,57  L 39,57  L 39,58  L 40,58  L 40,59  L 41,59  L 41,60  L 43,60  L 43,61  L 44,61  L 44,62  L 45,62  L 45,63  L 46,63  L 46,65  L 47,65  L 47,66  L 48,66  L 48,67  L 49,67  L 49,68  L 50,68  L 50,69  L 51,69  L 51,70  L 52,70  L 52,71  L 58,71  L 58,68  L 59,68  L 59,67  L 58,67  L 58,64  L 57,64  L 57,63  L 56,63  L 56,62  L 55,62  L 55,61  L 54,61  L 54,60  L 53,60  L 53,59  L 51,59  L 51,58  L 50,58  L 50,57  L 49,57  L 49,56  L 48,56  L 48,55  L 46,55  L 46,53  L 44,53  L 44,52  L 43,52  L 43,51  L 42,51  L 42,50  L 40,50  L 40,49  L 39,49  L 39,48  L 38,48  L 38,47  L 36,47  L 36,46  L 35,46  L 35,45  L 34,45  L 34,44  L 33,44  L 33,43  L 32,43  L 32,42  L 33,42  L 33,39  L 34,39  L 34,38  L 35,38  L 35,37  L 36,37  L 36,35  L 37,35  L 37,33  L 38,33  L 38,31  L 39,31  L 39,29  L 40,29  L 40,27  L 41,27  L 41,26  L 42,26  L 42,24  L 43,24  L 43,23  L 44,23  L 44,22  L 45,22  L 45,20  L 46,20  L 46,18  L 47,18  L 47,16  L 48,16  L 48,14  L 49,14  L 49,12  L 50,12  L 50,10  L 49,10  L 49,8  L 47,8  L 47,7  L 44,7  L 44,6  L 43,6  L 43,5  L 38,5  L 38,6  L 34,6  L 34,7  L 29,7  L 29,8  L 22,8  L 22,9  L 16,9  L 16,10  L 12,10  L 12,11  L 11,11  L 11,10  L 10,10  L 10,11  L 5,11  L 5,12  L 4,12  L 4,13  L 3,13  L 3,15  L 1,15  L 1,16  L 2,16  L 2,17  L 3,17  L 3,18  L 4,18  L 4,19  L 5,19  L 5,18  L 8,18  L 8,17  L 10,17  L 10,16  L 17,16  L 17,15  L 18,15  L 18,16  L 19,16  L 19,15  L 21,15  L 21,14  L 29,14  L 29,13  L 34,13  L 34,12  L 38,12  L 38,11  L 40,11  L 40,12  L 41,12  L 41,15  L 40,15  L 40,17  L 39,17  L 39,18  L 38,18  L 38,20  L 37,20  L 37,21  L 36,21  L 36,23  L 35,23  L 35,24  L 34,24  L 34,26  L 33,26  L 33,28  L 32,28  L 32,30  L 31,30  L 31,32  L 30,32  L 30,33  L 29,33  L 29,35  L 28,35  L 28,37  L 27,37  L 27,38  L 26,38  L 26,39  L 25,39  L 25,41  L 24,41  L 24,42  L 23,42  L 23,43  L 22,43  L 22,45  L 21,45  L 21,46  L 19,46  L 19,48  L 17,48  L 17,50  L 15,50  L 15,52  L 14,52  L 14,53  L 13,53  L 13,54  L 12,54  L 12,56  L 10,56  L 10,57  L 9,57  L 9,58  L 8,58  L 8,60  L 5,60  L 5,61  L 4,61  L 4,62  L 3,62  L 3,63  L 2,63  Z  " style="fill:rgb(0, 0, 0); fill-opacity:1.000; stroke:none;" />
 <path d="  M 95,104  L 96,104  L 96,114  L 95,114  L 95,119  L 94,119  L 94,121  L 93,121  L 93,123  L 92,123  L 92,125  L 91,125  L 91,127  L 90,127  L 90,128  L 89,128  L 89,129  L 88,129  L 88,130  L 87,130  L 87,131  L 85,131  L 85,132  L 84,132  L 84,133  L 80,133  L 80,134  L 79,134  L 79,135  L 78,135  L 78,134  L 77,134  L 77,135  L 75,135  L 75,136  L 72,136  L 72,137  L 71,137  L 71,136  L 70,136  L 70,137  L 55,137  L 55,136  L 51,136  L 51,135  L 49,135  L 49,134  L 48,134  L 48,133  L 46,133  L 46,131  L 45,131  L 45,126  L 44,126  L 44,125  L 45,125  L 45,124  L 44,124  L 44,123  L 45,123  L 45,117  L 46,117  L 46,114  L 47,114  L 47,111  L 48,111  L 48,110  L 49,110  L 49,109  L 50,109  L 50,108  L 51,108  L 51,107  L 52,107  L 52,106  L 53,106  L 53,105  L 54,105  L 54,104  L 56,104  L 56,103  L 57,103  L 57,102  L 59,102  L 59,101  L 62,101  L 62,100  L 64,100  L 64,99  L 66,99  L 66,98  L 70,98  L 70,97  L 75,97  L 75,96  L 85,96  L 85,97  L 87,97  L 87,98  L 89,98  L 89,99  L 92,99  L 92,100  L 93,100  L 93,101  L 94,101  L 94,102  L 95,102  Z  M 51,142  L 51,143  L 74,143  L 74,142  L 77,142  L 77,141  L 80,141  L 80,140  L 83,140  L 83,139  L 86,139  L 86,138  L 88,138  L 88,137  L 90,137  L 90,136  L 91,136  L 91,135  L 93,135  L 93,134  L 94,134  L 94,133  L 95,133  L 95,132  L 96,132  L 96,131  L 97,131  L 97,130  L 98,130  L 98,128  L 99,128  L 99,125  L 101,125  L 101,124  L 100,124  L 100,123  L 101,123  L 101,121  L 102,121  L 102,98  L 101,98  L 101,97  L 100,97  L 100,96  L 99,96  L 99,94  L 97,94  L 97,93  L 95,93  L 95,92  L 93,92  L 93,91  L 92,91  L 92,90  L 89,90  L 89,89  L 68,89  L 68,90  L 63,90  L 63,91  L 62,91  L 62,92  L 60,92  L 60,93  L 58,93  L 58,94  L 56,94  L 56,95  L 55,95  L 55,96  L 54,96  L 54,97  L 52,97  L 52,98  L 51,98  L 51,99  L 49,99  L 49,100  L 48,100  L 48,101  L 47,101  L 47,102  L 46,102  L 46,103  L 45,103  L 45,104  L 44,104  L 44,105  L 43,105  L 43,107  L 42,107  L 42,108  L 41,108  L 41,111  L 40,111  L 40,114  L 39,114  L 39,116  L 38,116  L 38,127  L 37,127  L 37,129  L 38,129  L 38,131  L 37,131  L 37,132  L 38,132  L 38,133  L 39,133  L 39,135  L 40,135  L 40,136  L 41,136  L 41,137  L 42,137  L 42,139  L 44,139  L 44,140  L 46,140  L 46,141  L 47,141  L 47,142  Z  " style="fill:rgb(0, 0, 0); fill-opacity:1.000; stroke:none;" />
 <path d="  M 102,72  L 101,72  L 101,71  L 102,71  L 102,33  L 101,33  L 101,24  L 100,24  L 100,19  L 99,19  L 99,15  L 98,15  L 98,10  L 97,10  L 97,6  L 96,6  L 96,4  L 91,4  L 91,6  L 90,6  L 90,11  L 91,11  L 91,15  L 92,15  L 92,18  L 93,18  L 93,21  L 94,21  L 94,27  L 93,27  L 93,28  L 92,28  L 92,29  L 90,29  L 90,30  L 85,30  L 85,31  L 74,31  L 74,20  L 73,20  L 73,8  L 72,8  L 72,5  L 73,5  L 73,4  L 72,4  L 72,2  L 71,2  L 71,1  L 69,1  L 69,0  L 67,0  L 67,1  L 66,1  L 66,7  L 67,7  L 67,8  L 66,8  L 66,9  L 67,9  L 67,21  L 68,21  L 68,22  L 67,22  L 67,23  L 68,23  L 68,30  L 69,30  L 69,37  L 70,37  L 70,41  L 71,41  L 71,51  L 70,51  L 70,62  L 69,62  L 69,77  L 70,77  L 70,78  L 72,78  L 72,77  L 73,77  L 73,76  L 74,76  L 74,74  L 75,74  L 75,69  L 76,69  L 76,58  L 77,58  L 77,56  L 76,56  L 76,55  L 77,55  L 77,49  L 78,49  L 78,48  L 77,48  L 77,47  L 78,47  L 78,39  L 79,39  L 79,38  L 81,38  L 81,37  L 86,37  L 86,36  L 90,36  L 90,35  L 91,35  L 91,34  L 93,34  L 93,35  L 94,35  L 94,36  L 95,36  L 95,50  L 96,50  L 96,51  L 95,51  L 95,53  L 96,53  L 96,55  L 95,55  L 95,56  L 96,56  L 96,59  L 95,59  L 95,75  L 96,75  L 96,79  L 97,79  L 97,82  L 101,82  L 101,79  L 102,79  Z  " style="fill:rgb(0, 0, 0); fill-opacity:1.000; stroke:none;" />
</svg>
