<?xml version="1.0" encoding="UTF-8" standalone="no"?>
<!DOCTYPE svg PUBLIC "-//W3C//DTD SVG 1.1//EN" 
  "http://www.w3.org/Graphics/SVG/1.1/DTD/svg11.dtd">
<svg width="113" height="106"
     xmlns="http://www.w3.org/2000/svg" version="1.1">
 <path d="  M 42,68  L 43,68  L 43,69  L 44,69  L 44,70  L 45,70  L 45,71  L 46,71  L 46,72  L 47,72  L 47,73  L 48,73  L 48,74  L 49,74  L 49,75  L 50,75  L 50,76  L 51,76  L 51,77  L 52,77  L 52,78  L 53,78  L 53,79  L 54,79  L 54,80  L 55,80  L 55,81  L 56,81  L 56,82  L 57,82  L 57,83  L 59,83  L 59,84  L 64,84  L 64,83  L 65,83  L 65,81  L 64,81  L 64,79  L 63,79  L 63,78  L 62,78  L 62,77  L 61,77  L 61,76  L 60,76  L 60,75  L 59,75  L 59,74  L 58,74  L 58,73  L 57,73  L 57,72  L 55,72  L 55,71  L 54,71  L 54,70  L 53,70  L 53,69  L 52,69  L 52,68  L 51,68  L 51,67  L 50,67  L 50,66  L 49,66  L 49,65  L 48,65  L 48,64  L 47,64  L 47,63  L 46,63  L 46,62  L 45,62  L 45,61  L 44,61  L 44,60  L 43,60  L 43,59  L 42,59  L 42,57  L 41,57  L 41,56  L 40,56  L 40,55  L 39,55  L 39,53  L 38,53  L 38,50  L 40,50  L 40,49  L 41,49  L 41,48  L 42,48  L 42,47  L 43,47  L 43,46  L 44,46  L 44,44  L 45,44  L 45,43  L 46,43  L 46,41  L 47,41  L 47,40  L 49,40  L 49,38  L 50,38  L 50,36  L 51,36  L 51,34  L 52,34  L 52,31  L 53,31  L 53,30  L 52,30  L 52,29  L 53,29  L 53,27  L 52,27  L 52,25  L 50,25  L 50,24  L 49,24  L 49,23  L 21,23  L 21,24  L 19,24  L 19,23  L 18,23  L 18,24  L 15,24  L 15,25  L 12,25  L 12,26  L 11,26  L 11,25  L 10,25  L 10,26  L 8,26  L 8,27  L 4,27  L 4,28  L 2,28  L 2,29  L 0,29  L 0,30  L 1,30  L 1,32  L 15,32  L 15,31  L 34,31  L 34,30  L 36,30  L 36,29  L 44,29  L 44,33  L 43,33  L 43,35  L 42,35  L 42,36  L 41,36  L 41,38  L 40,38  L 40,40  L 39,40  L 39,41  L 38,41  L 38,42  L 37,42  L 37,43  L 36,43  L 36,44  L 35,44  L 35,46  L 34,46  L 34,47  L 33,47  L 33,48  L 32,48  L 32,50  L 31,50  L 31,51  L 30,51  L 30,52  L 29,52  L 29,53  L 28,53  L 28,55  L 27,55  L 27,56  L 26,56  L 26,57  L 25,57  L 25,59  L 24,59  L 24,60  L 23,60  L 23,61  L 22,61  L 22,62  L 21,62  L 21,64  L 20,64  L 20,65  L 19,65  L 19,67  L 18,67  L 18,68  L 17,68  L 17,69  L 16,69  L 16,71  L 15,71  L 15,72  L 14,72  L 14,73  L 13,73  L 13,74  L 12,74  L 12,76  L 11,76  L 11,77  L 9,77  L 9,78  L 8,78  L 8,80  L 7,80  L 7,81  L 6,81  L 6,82  L 5,82  L 5,83  L 4,83  L 4,85  L 3,85  L 3,88  L 4,88  L 4,89  L 5,89  L 5,91  L 7,91  L 7,90  L 9,90  L 9,89  L 10,89  L 10,88  L 11,88  L 11,86  L 12,86  L 12,85  L 13,85  L 13,84  L 14,84  L 14,83  L 15,83  L 15,82  L 16,82  L 16,80  L 17,80  L 17,79  L 18,79  L 18,78  L 19,78  L 19,76  L 21,76  L 21,74  L 22,74  L 22,73  L 23,73  L 23,71  L 24,71  L 24,69  L 25,69  L 25,68  L 26,68  L 26,67  L 27,67  L 27,66  L 28,66  L 28,64  L 29,64  L 29,63  L 30,63  L 30,62  L 31,62  L 31,60  L 32,60  L 32,58  L 35,58  L 35,59  L 36,59  L 36,60  L 37,60  L 37,62  L 38,62  L 38,64  L 39,64  L 39,65  L 40,65  L 40,66  L 41,66  L 41,67  L 42,67  Z  " style="fill:rgb(0, 0, 0); fill-opacity:1.000; stroke:none;" />
 <path d="  M 80,43  L 81,43  L 81,42  L 86,42  L 86,43  L 88,43  L 88,42  L 90,42  L 90,43  L 91,43  L 91,42  L 92,42  L 92,43  L 93,43  L 93,42  L 94,42  L 94,43  L 95,43  L 95,42  L 96,42  L 96,43  L 99,43  L 99,42  L 100,42  L 100,43  L 111,43  L 111,42  L 113,42  L 113,39  L 112,39  L 112,38  L 110,38  L 110,37  L 107,37  L 107,36  L 103,36  L 103,35  L 102,35  L 102,36  L 99,36  L 99,35  L 98,35  L 98,36  L 97,36  L 97,35  L 80,35  L 80,34  L 79,34  L 79,24  L 80,24  L 80,23  L 79,23  L 79,22  L 80,22  L 80,21  L 79,21  L 79,18  L 80,18  L 80,17  L 79,17  L 79,16  L 80,16  L 80,3  L 79,3  L 79,1  L 78,1  L 78,0  L 75,0  L 75,1  L 74,1  L 74,2  L 73,2  L 73,36  L 74,36  L 74,37  L 73,37  L 73,56  L 74,56  L 74,106  L 80,106  L 80,104  L 81,104  L 81,103  L 80,103  L 80,74  L 81,74  L 81,73  L 82,73  L 82,72  L 86,72  L 86,73  L 87,73  L 87,72  L 102,72  L 102,71  L 103,71  L 103,68  L 104,68  L 104,66  L 103,66  L 103,65  L 96,65  L 96,66  L 95,66  L 95,65  L 80,65  L 80,64  L 79,64  L 79,58  L 80,58  L 80,57  L 79,57  L 79,56  L 80,56  L 80,55  L 79,55  L 79,54  L 80,54  L 80,53  L 79,53  L 79,52  L 80,52  Z  " style="fill:rgb(0, 0, 0); fill-opacity:1.000; stroke:none;" />
</svg>
