<?xml version="1.0" encoding="UTF-8" standalone="no"?>
<!DOCTYPE svg PUBLIC "-//W3C//DTD SVG 1.1//EN" 
  "http://www.w3.org/Graphics/SVG/1.1/DTD/svg11.dtd">
<svg width="106" height="130"
     xmlns="http://www.w3.org/2000/svg" version="1.1">
 <path d="  M 26,34  L 25,34  L 25,35  L 24,35  L 24,38  L 23,38  L 23,39  L 22,39  L 22,40  L 21,40  L 21,41  L 20,41  L 20,43  L 19,43  L 19,44  L 18,44  L 18,45  L 17,45  L 17,47  L 16,47  L 16,48  L 14,48  L 14,50  L 13,50  L 13,51  L 12,51  L 12,52  L 11,52  L 11,53  L 10,53  L 10,54  L 9,54  L 9,55  L 8,55  L 8,56  L 7,56  L 7,57  L 5,57  L 5,58  L 4,58  L 4,60  L 2,60  L 2,61  L 1,61  L 1,62  L 0,62  L 0,65  L 1,65  L 1,66  L 2,66  L 2,67  L 6,67  L 6,66  L 8,66  L 8,65  L 9,65  L 9,64  L 10,64  L 10,63  L 11,63  L 11,62  L 12,62  L 12,61  L 13,61  L 13,60  L 14,60  L 14,59  L 15,59  L 15,58  L 16,58  L 16,57  L 17,57  L 17,56  L 18,56  L 18,55  L 19,55  L 19,54  L 20,54  L 20,53  L 21,53  L 21,52  L 22,52  L 22,50  L 23,50  L 23,49  L 24,49  L 24,47  L 27,47  L 27,48  L 29,48  L 29,49  L 30,49  L 30,50  L 31,50  L 31,52  L 32,52  L 32,53  L 33,53  L 33,54  L 34,54  L 34,55  L 35,55  L 35,56  L 36,56  L 36,57  L 37,57  L 37,58  L 38,58  L 38,59  L 39,59  L 39,60  L 40,60  L 40,61  L 42,61  L 42,63  L 44,63  L 44,64  L 45,64  L 45,65  L 46,65  L 46,66  L 48,66  L 48,67  L 49,67  L 49,68  L 52,68  L 52,69  L 57,69  L 57,68  L 58,68  L 58,65  L 57,65  L 57,64  L 56,64  L 56,63  L 54,63  L 54,62  L 53,62  L 53,61  L 51,61  L 51,60  L 50,60  L 50,59  L 48,59  L 48,58  L 47,58  L 47,57  L 45,57  L 45,56  L 44,56  L 44,55  L 43,55  L 43,54  L 42,54  L 42,53  L 41,53  L 41,52  L 40,52  L 40,51  L 39,51  L 39,50  L 38,50  L 38,48  L 37,48  L 37,47  L 36,47  L 36,46  L 35,46  L 35,44  L 34,44  L 34,42  L 33,42  L 33,41  L 32,41  L 32,37  L 33,37  L 33,35  L 34,35  L 34,34  L 35,34  L 35,33  L 36,33  L 36,32  L 37,32  L 37,31  L 38,31  L 38,30  L 39,30  L 39,29  L 40,29  L 40,28  L 41,28  L 41,27  L 42,27  L 42,26  L 43,26  L 43,24  L 44,24  L 44,22  L 45,22  L 45,20  L 46,20  L 46,18  L 45,18  L 45,16  L 44,16  L 44,14  L 43,14  L 43,12  L 42,12  L 42,11  L 41,11  L 41,10  L 30,10  L 30,11  L 23,11  L 23,12  L 20,12  L 20,11  L 19,11  L 19,12  L 16,12  L 16,13  L 10,13  L 10,14  L 5,14  L 5,15  L 4,15  L 4,16  L 3,16  L 3,17  L 2,17  L 2,20  L 4,20  L 4,21  L 5,21  L 5,22  L 6,22  L 6,21  L 7,21  L 7,20  L 11,20  L 11,19  L 16,19  L 16,18  L 17,18  L 17,19  L 18,19  L 18,18  L 22,18  L 22,17  L 23,17  L 23,18  L 24,18  L 24,17  L 33,17  L 33,16  L 37,16  L 37,17  L 39,17  L 39,20  L 38,20  L 38,22  L 37,22  L 37,23  L 36,23  L 36,24  L 35,24  L 35,25  L 34,25  L 34,26  L 33,26  L 33,27  L 32,27  L 32,28  L 31,28  L 31,29  L 30,29  L 30,30  L 29,30  L 29,31  L 28,31  L 28,32  L 27,32  L 27,33  L 26,33  Z  " style="fill:rgb(0, 0, 0); fill-opacity:1.000; stroke:none;" />
 <path d="  M 33,108  L 32,108  L 32,97  L 31,97  L 31,96  L 32,96  L 32,87  L 31,87  L 31,86  L 29,86  L 29,87  L 27,87  L 27,88  L 26,88  L 26,90  L 25,90  L 25,100  L 26,100  L 26,110  L 27,110  L 27,111  L 26,111  L 26,112  L 27,112  L 27,116  L 28,116  L 28,121  L 29,121  L 29,125  L 30,125  L 30,128  L 32,128  L 32,129  L 33,129  L 33,130  L 56,130  L 56,129  L 64,129  L 64,128  L 65,128  L 65,129  L 66,129  L 66,128  L 72,128  L 72,127  L 73,127  L 73,128  L 76,128  L 76,127  L 78,127  L 78,128  L 79,128  L 79,127  L 86,127  L 86,128  L 87,128  L 87,127  L 88,127  L 88,126  L 89,126  L 89,125  L 90,125  L 90,124  L 91,124  L 91,121  L 90,121  L 90,120  L 82,120  L 82,121  L 69,121  L 69,122  L 60,122  L 60,123  L 51,123  L 51,124  L 50,124  L 50,123  L 49,123  L 49,124  L 48,124  L 48,123  L 47,123  L 47,124  L 37,124  L 37,123  L 36,123  L 36,122  L 35,122  L 35,120  L 34,120  L 34,117  L 33,117  L 33,116  L 34,116  L 34,115  L 33,115  Z  " style="fill:rgb(0, 0, 0); fill-opacity:1.000; stroke:none;" />
 <path d="  M 99,54  L 99,53  L 105,53  L 105,52  L 106,52  L 106,47  L 105,47  L 105,46  L 100,46  L 100,47  L 90,47  L 90,48  L 88,48  L 88,47  L 87,47  L 87,48  L 84,48  L 84,49  L 78,49  L 78,50  L 77,50  L 77,49  L 76,49  L 76,46  L 75,46  L 75,40  L 74,40  L 74,38  L 75,38  L 75,36  L 79,36  L 79,35  L 84,35  L 84,34  L 94,34  L 94,33  L 100,33  L 100,32  L 101,32  L 101,29  L 100,29  L 100,28  L 99,28  L 99,27  L 87,27  L 87,28  L 84,28  L 84,27  L 83,27  L 83,28  L 77,28  L 77,29  L 74,29  L 74,28  L 73,28  L 73,23  L 72,23  L 72,22  L 73,22  L 73,21  L 72,21  L 72,15  L 71,15  L 71,9  L 70,9  L 70,3  L 69,3  L 69,2  L 68,2  L 68,1  L 67,1  L 67,0  L 66,0  L 66,1  L 64,1  L 64,8  L 65,8  L 65,12  L 66,12  L 66,13  L 65,13  L 65,14  L 66,14  L 66,19  L 67,19  L 67,28  L 68,28  L 68,38  L 69,38  L 69,46  L 70,46  L 70,56  L 71,56  L 71,57  L 70,57  L 70,59  L 71,59  L 71,78  L 72,78  L 72,82  L 74,82  L 74,83  L 77,83  L 77,82  L 78,82  L 78,71  L 77,71  L 77,70  L 78,70  L 78,68  L 77,68  L 77,66  L 78,66  L 78,65  L 77,65  L 77,58  L 78,58  L 78,57  L 79,57  L 79,56  L 84,56  L 84,55  L 92,55  L 92,54  Z  " style="fill:rgb(0, 0, 0); fill-opacity:1.000; stroke:none;" />
</svg>
