<?xml version="1.0" encoding="UTF-8" standalone="no"?>
<!DOCTYPE svg PUBLIC "-//W3C//DTD SVG 1.1//EN" 
  "http://www.w3.org/Graphics/SVG/1.1/DTD/svg11.dtd">
<svg width="109" height="151"
     xmlns="http://www.w3.org/2000/svg" version="1.1">
 <path d="  M 3,60  L 3,61  L 1,61  L 1,67  L 9,67  L 9,66  L 10,66  L 10,65  L 11,65  L 11,64  L 12,64  L 12,63  L 13,63  L 13,62  L 14,62  L 14,61  L 15,61  L 15,60  L 16,60  L 16,59  L 17,59  L 17,58  L 18,58  L 18,57  L 19,57  L 19,56  L 20,56  L 20,55  L 21,55  L 21,53  L 22,53  L 22,51  L 23,51  L 23,50  L 24,50  L 24,48  L 25,48  L 25,47  L 26,47  L 26,46  L 27,46  L 27,44  L 28,44  L 28,43  L 29,43  L 29,44  L 30,44  L 30,46  L 31,46  L 31,47  L 32,47  L 32,48  L 33,48  L 33,49  L 35,49  L 35,51  L 36,51  L 36,52  L 37,52  L 37,53  L 38,53  L 38,54  L 39,54  L 39,55  L 41,55  L 41,56  L 42,56  L 42,57  L 44,57  L 44,59  L 45,59  L 45,60  L 47,60  L 47,61  L 48,61  L 48,62  L 49,62  L 49,64  L 51,64  L 51,65  L 52,65  L 52,66  L 53,66  L 53,67  L 54,67  L 54,68  L 55,68  L 55,69  L 59,69  L 59,68  L 60,68  L 60,64  L 59,64  L 59,62  L 58,62  L 58,61  L 57,61  L 57,60  L 55,60  L 55,59  L 54,59  L 54,58  L 53,58  L 53,57  L 52,57  L 52,56  L 50,56  L 50,55  L 49,55  L 49,54  L 48,54  L 48,53  L 47,53  L 47,52  L 46,52  L 46,51  L 45,51  L 45,50  L 44,50  L 44,49  L 43,49  L 43,48  L 42,48  L 42,47  L 41,47  L 41,46  L 40,46  L 40,45  L 39,45  L 39,43  L 38,43  L 38,42  L 37,42  L 37,41  L 36,41  L 36,40  L 34,40  L 34,39  L 33,39  L 33,38  L 32,38  L 32,37  L 33,37  L 33,34  L 34,34  L 34,33  L 35,33  L 35,32  L 36,32  L 36,30  L 37,30  L 37,29  L 39,29  L 39,28  L 40,28  L 40,26  L 41,26  L 41,25  L 42,25  L 42,24  L 43,24  L 43,23  L 44,23  L 44,22  L 45,22  L 45,21  L 46,21  L 46,18  L 47,18  L 47,16  L 46,16  L 46,14  L 45,14  L 45,12  L 44,12  L 44,11  L 43,11  L 43,10  L 42,10  L 42,8  L 40,8  L 40,7  L 37,7  L 37,8  L 35,8  L 35,9  L 31,9  L 31,10  L 30,10  L 30,9  L 29,9  L 29,10  L 22,10  L 22,11  L 13,11  L 13,12  L 12,12  L 12,11  L 11,11  L 11,12  L 7,12  L 7,13  L 4,13  L 4,14  L 3,14  L 3,15  L 2,15  L 2,16  L 1,16  L 1,19  L 2,19  L 2,20  L 3,20  L 3,21  L 8,21  L 8,20  L 9,20  L 9,19  L 12,19  L 12,18  L 20,18  L 20,17  L 30,17  L 30,16  L 35,16  L 35,15  L 37,15  L 37,16  L 39,16  L 39,18  L 38,18  L 38,19  L 37,19  L 37,21  L 36,21  L 36,22  L 35,22  L 35,23  L 34,23  L 34,24  L 33,24  L 33,25  L 32,25  L 32,26  L 31,26  L 31,27  L 29,27  L 29,28  L 28,28  L 28,30  L 27,30  L 27,32  L 26,32  L 26,34  L 25,34  L 25,35  L 24,35  L 24,36  L 23,36  L 23,38  L 22,38  L 22,40  L 21,40  L 21,42  L 20,42  L 20,44  L 19,44  L 19,45  L 18,45  L 18,46  L 17,46  L 17,48  L 16,48  L 16,49  L 15,49  L 15,50  L 14,50  L 14,52  L 13,52  L 13,53  L 12,53  L 12,54  L 11,54  L 11,55  L 10,55  L 10,56  L 9,56  L 9,57  L 7,57  L 7,58  L 5,58  L 5,59  L 4,59  L 4,60  Z  " style="fill:rgb(0, 0, 0); fill-opacity:1.000; stroke:none;" />
 <path d="  M 88,131  L 84,131  L 84,132  L 81,132  L 81,133  L 79,133  L 79,134  L 76,134  L 76,135  L 74,135  L 74,136  L 71,136  L 71,137  L 70,137  L 70,138  L 68,138  L 68,139  L 66,139  L 66,140  L 62,140  L 62,141  L 60,141  L 60,142  L 55,142  L 55,143  L 52,143  L 52,144  L 51,144  L 51,143  L 50,143  L 50,144  L 35,144  L 35,143  L 34,143  L 34,142  L 33,142  L 33,140  L 32,140  L 32,139  L 33,139  L 33,137  L 32,137  L 32,134  L 33,134  L 33,131  L 34,131  L 34,130  L 35,130  L 35,129  L 37,129  L 37,128  L 39,128  L 39,127  L 40,127  L 40,126  L 43,126  L 43,125  L 44,125  L 44,124  L 46,124  L 46,123  L 48,123  L 48,122  L 51,122  L 51,121  L 53,121  L 53,120  L 55,120  L 55,119  L 56,119  L 56,118  L 58,118  L 58,117  L 60,117  L 60,116  L 62,116  L 62,115  L 64,115  L 64,114  L 65,114  L 65,113  L 68,113  L 68,111  L 70,111  L 70,110  L 71,110  L 71,109  L 72,109  L 72,108  L 73,108  L 73,107  L 74,107  L 74,105  L 75,105  L 75,101  L 74,101  L 74,100  L 73,100  L 73,98  L 72,98  L 72,95  L 71,95  L 71,92  L 70,92  L 70,91  L 69,91  L 69,90  L 68,90  L 68,89  L 66,89  L 66,88  L 65,88  L 65,87  L 63,87  L 63,86  L 61,86  L 61,85  L 58,85  L 58,84  L 56,84  L 56,83  L 38,83  L 38,84  L 32,84  L 32,85  L 31,85  L 31,86  L 30,86  L 30,91  L 35,91  L 35,92  L 36,92  L 36,91  L 44,91  L 44,90  L 45,90  L 45,91  L 48,91  L 48,90  L 51,90  L 51,91  L 56,91  L 56,92  L 59,92  L 59,93  L 62,93  L 62,95  L 63,95  L 63,96  L 64,96  L 64,98  L 65,98  L 65,100  L 66,100  L 66,104  L 65,104  L 65,106  L 63,106  L 63,107  L 61,107  L 61,108  L 59,108  L 59,109  L 57,109  L 57,110  L 55,110  L 55,111  L 54,111  L 54,112  L 51,112  L 51,113  L 49,113  L 49,114  L 47,114  L 47,115  L 46,115  L 46,116  L 45,116  L 45,117  L 43,117  L 43,118  L 41,118  L 41,119  L 39,119  L 39,120  L 37,120  L 37,121  L 36,121  L 36,122  L 34,122  L 34,123  L 31,123  L 31,124  L 30,124  L 30,125  L 29,125  L 29,126  L 27,126  L 27,127  L 26,127  L 26,129  L 25,129  L 25,133  L 24,133  L 24,136  L 25,136  L 25,143  L 26,143  L 26,145  L 27,145  L 27,147  L 28,147  L 28,148  L 29,148  L 29,149  L 30,149  L 30,150  L 33,150  L 33,151  L 52,151  L 52,150  L 56,150  L 56,149  L 60,149  L 60,148  L 62,148  L 62,147  L 65,147  L 65,146  L 68,146  L 68,145  L 71,145  L 71,144  L 74,144  L 74,143  L 76,143  L 76,142  L 79,142  L 79,141  L 82,141  L 82,140  L 83,140  L 83,139  L 85,139  L 85,138  L 86,138  L 86,137  L 87,137  L 87,135  L 88,135  Z  " style="fill:rgb(0, 0, 0); fill-opacity:1.000; stroke:none;" />
 <path d="  M 70,36  L 71,36  L 71,49  L 72,49  L 72,62  L 73,62  L 73,64  L 72,64  L 72,65  L 73,65  L 73,72  L 74,72  L 74,75  L 75,75  L 75,77  L 76,77  L 76,78  L 79,78  L 79,67  L 78,67  L 78,61  L 79,61  L 79,60  L 78,60  L 78,52  L 79,52  L 79,50  L 81,50  L 81,49  L 86,49  L 86,48  L 99,48  L 99,47  L 103,47  L 103,46  L 107,46  L 107,45  L 108,45  L 108,44  L 109,44  L 109,40  L 107,40  L 107,39  L 102,39  L 102,40  L 98,40  L 98,41  L 91,41  L 91,42  L 84,42  L 84,43  L 78,43  L 78,41  L 77,41  L 77,35  L 76,35  L 76,30  L 77,30  L 77,29  L 79,29  L 79,28  L 84,28  L 84,27  L 94,27  L 94,26  L 104,26  L 104,25  L 105,25  L 105,21  L 104,21  L 104,20  L 94,20  L 94,21  L 93,21  L 93,20  L 91,20  L 91,21  L 88,21  L 88,20  L 87,20  L 87,21  L 80,21  L 80,22  L 79,22  L 79,23  L 77,23  L 77,24  L 76,24  L 76,23  L 75,23  L 75,18  L 74,18  L 74,12  L 73,12  L 73,9  L 74,9  L 74,8  L 73,8  L 73,3  L 72,3  L 72,1  L 70,1  L 70,0  L 68,0  L 68,1  L 67,1  L 67,11  L 68,11  L 68,12  L 67,12  L 67,13  L 68,13  L 68,20  L 69,20  L 69,28  L 70,28  Z  " style="fill:rgb(0, 0, 0); fill-opacity:1.000; stroke:none;" />
</svg>
