<?xml version="1.0" encoding="UTF-8" standalone="no"?>
<!DOCTYPE svg PUBLIC "-//W3C//DTD SVG 1.1//EN" 
  "http://www.w3.org/Graphics/SVG/1.1/DTD/svg11.dtd">
<svg width="102" height="140"
     xmlns="http://www.w3.org/2000/svg" version="1.1">
 <path d="  M 3,60  L 3,61  L 2,61  L 2,62  L 1,62  L 1,66  L 2,66  L 2,67  L 4,67  L 4,68  L 6,68  L 6,67  L 7,67  L 7,66  L 9,66  L 9,64  L 10,64  L 10,63  L 11,63  L 11,62  L 12,62  L 12,61  L 13,61  L 13,59  L 14,59  L 14,58  L 15,58  L 15,57  L 16,57  L 16,56  L 17,56  L 17,54  L 18,54  L 18,53  L 19,53  L 19,52  L 20,52  L 20,50  L 21,50  L 21,49  L 22,49  L 22,47  L 23,47  L 23,44  L 27,44  L 27,45  L 28,45  L 28,46  L 30,46  L 30,47  L 31,47  L 31,48  L 32,48  L 32,49  L 33,49  L 33,50  L 34,50  L 34,51  L 35,51  L 35,52  L 36,52  L 36,53  L 38,53  L 38,55  L 39,55  L 39,56  L 41,56  L 41,57  L 42,57  L 42,58  L 43,58  L 43,59  L 44,59  L 44,60  L 45,60  L 45,61  L 47,61  L 47,63  L 48,63  L 48,64  L 51,64  L 51,65  L 56,65  L 56,63  L 57,63  L 57,61  L 56,61  L 56,60  L 55,60  L 55,59  L 54,59  L 54,58  L 53,58  L 53,57  L 52,57  L 52,56  L 51,56  L 51,55  L 49,55  L 49,54  L 48,54  L 48,53  L 47,53  L 47,52  L 46,52  L 46,51  L 45,51  L 45,50  L 44,50  L 44,49  L 43,49  L 43,48  L 42,48  L 42,47  L 41,47  L 41,46  L 40,46  L 40,45  L 38,45  L 38,44  L 37,44  L 37,43  L 36,43  L 36,42  L 35,42  L 35,41  L 34,41  L 34,40  L 33,40  L 33,39  L 32,39  L 32,37  L 33,37  L 33,36  L 32,36  L 32,35  L 33,35  L 33,33  L 35,33  L 35,31  L 36,31  L 36,29  L 37,29  L 37,27  L 38,27  L 38,25  L 39,25  L 39,23  L 40,23  L 40,21  L 41,21  L 41,19  L 42,19  L 42,18  L 43,18  L 43,16  L 44,16  L 44,14  L 45,14  L 45,13  L 46,13  L 46,8  L 44,8  L 44,7  L 43,7  L 43,6  L 42,6  L 42,5  L 41,5  L 41,4  L 39,4  L 39,3  L 37,3  L 37,4  L 33,4  L 33,5  L 31,5  L 31,4  L 30,4  L 30,5  L 26,5  L 26,6  L 16,6  L 16,7  L 9,7  L 9,8  L 5,8  L 5,9  L 3,9  L 3,10  L 2,10  L 2,11  L 1,11  L 1,14  L 0,14  L 0,15  L 3,15  L 3,16  L 5,16  L 5,15  L 7,15  L 7,14  L 9,14  L 9,13  L 14,13  L 14,12  L 27,12  L 27,11  L 28,11  L 28,12  L 29,12  L 29,11  L 33,11  L 33,10  L 36,10  L 36,11  L 38,11  L 38,14  L 37,14  L 37,15  L 36,15  L 36,17  L 35,17  L 35,18  L 34,18  L 34,20  L 33,20  L 33,21  L 32,21  L 32,23  L 31,23  L 31,26  L 30,26  L 30,27  L 29,27  L 29,28  L 28,28  L 28,31  L 27,31  L 27,32  L 25,32  L 25,34  L 24,34  L 24,35  L 23,35  L 23,36  L 21,36  L 21,39  L 20,39  L 20,40  L 19,40  L 19,41  L 18,41  L 18,42  L 17,42  L 17,43  L 16,43  L 16,45  L 15,45  L 15,46  L 14,46  L 14,47  L 13,47  L 13,48  L 12,48  L 12,50  L 11,50  L 11,52  L 10,52  L 10,53  L 9,53  L 9,55  L 8,55  L 8,56  L 7,56  L 7,57  L 6,57  L 6,58  L 5,58  L 5,59  L 4,59  L 4,60  Z  " style="fill:rgb(0, 0, 0); fill-opacity:1.000; stroke:none;" />
 <path d="  M 101,133  L 102,133  L 102,128  L 94,128  L 94,129  L 90,129  L 90,130  L 81,130  L 81,131  L 71,131  L 71,132  L 64,132  L 64,133  L 63,133  L 63,132  L 62,132  L 62,133  L 56,133  L 56,134  L 44,134  L 44,135  L 43,135  L 43,134  L 37,134  L 37,133  L 36,133  L 36,129  L 35,129  L 35,123  L 34,123  L 34,121  L 35,121  L 35,120  L 34,120  L 34,88  L 33,88  L 33,87  L 29,87  L 29,88  L 27,88  L 27,128  L 28,128  L 28,133  L 29,133  L 29,136  L 30,136  L 30,137  L 31,137  L 31,138  L 32,138  L 32,139  L 33,139  L 33,140  L 64,140  L 64,139  L 70,139  L 70,138  L 77,138  L 77,137  L 87,137  L 87,136  L 88,136  L 88,137  L 90,137  L 90,136  L 98,136  L 98,135  L 100,135  L 100,134  L 101,134  Z  " style="fill:rgb(0, 0, 0); fill-opacity:1.000; stroke:none;" />
 <path d="  M 90,2  L 88,2  L 88,1  L 84,1  L 84,2  L 83,2  L 83,4  L 84,4  L 84,10  L 85,10  L 85,14  L 86,14  L 86,17  L 87,17  L 87,21  L 86,21  L 86,22  L 80,22  L 80,23  L 73,23  L 73,24  L 70,24  L 70,22  L 69,22  L 69,12  L 68,12  L 68,9  L 69,9  L 69,8  L 68,8  L 68,4  L 67,4  L 67,1  L 65,1  L 65,0  L 62,0  L 62,12  L 63,12  L 63,25  L 64,25  L 64,26  L 63,26  L 63,27  L 64,27  L 64,43  L 65,43  L 65,44  L 64,44  L 64,45  L 65,45  L 65,48  L 64,48  L 64,49  L 65,49  L 65,66  L 66,66  L 66,68  L 65,68  L 65,69  L 66,69  L 66,72  L 65,72  L 65,74  L 66,74  L 66,75  L 65,75  L 65,78  L 66,78  L 66,79  L 67,79  L 67,80  L 68,80  L 68,79  L 72,79  L 72,73  L 73,73  L 73,72  L 72,72  L 72,67  L 73,67  L 73,66  L 72,66  L 72,63  L 73,63  L 73,59  L 72,59  L 72,54  L 74,54  L 74,53  L 77,53  L 77,52  L 78,52  L 78,53  L 79,53  L 79,52  L 84,52  L 84,51  L 87,51  L 87,50  L 89,50  L 89,57  L 90,57  L 90,58  L 89,58  L 89,59  L 90,59  L 90,60  L 89,60  L 89,61  L 90,61  L 90,64  L 89,64  L 89,65  L 90,65  L 90,68  L 89,68  L 89,69  L 90,69  L 90,72  L 89,72  L 89,73  L 90,73  L 90,82  L 93,82  L 93,81  L 97,81  L 97,67  L 96,67  L 96,65  L 97,65  L 97,64  L 96,64  L 96,61  L 97,61  L 97,60  L 96,60  L 96,46  L 95,46  L 95,30  L 94,30  L 94,21  L 93,21  L 93,18  L 92,18  L 92,12  L 91,12  L 91,4  L 90,4  Z  M 88,44  L 84,44  L 84,45  L 78,45  L 78,46  L 71,46  L 71,44  L 70,44  L 70,43  L 71,43  L 71,39  L 70,39  L 70,38  L 71,38  L 71,37  L 70,37  L 70,36  L 71,36  L 71,35  L 70,35  L 70,29  L 83,29  L 83,28  L 86,28  L 86,29  L 87,29  L 87,31  L 88,31  L 88,33  L 87,33  L 87,34  L 88,34  Z  " style="fill:rgb(0, 0, 0); fill-opacity:1.000; stroke:none;" />
</svg>
