<?xml version="1.0" encoding="UTF-8" standalone="no"?>
<!DOCTYPE svg PUBLIC "-//W3C//DTD SVG 1.1//EN" 
  "http://www.w3.org/Graphics/SVG/1.1/DTD/svg11.dtd">
<svg width="109" height="129"
     xmlns="http://www.w3.org/2000/svg" version="1.1">
 <path d="  M 50,59  L 50,58  L 49,58  L 49,57  L 48,57  L 48,50  L 49,50  L 49,48  L 50,48  L 50,46  L 51,46  L 51,45  L 52,45  L 52,43  L 53,43  L 53,42  L 54,42  L 54,40  L 55,40  L 55,39  L 56,39  L 56,38  L 57,38  L 57,36  L 58,36  L 58,35  L 59,35  L 59,34  L 61,34  L 61,32  L 62,32  L 62,31  L 63,31  L 63,30  L 62,30  L 62,28  L 60,28  L 60,27  L 58,27  L 58,26  L 54,26  L 54,25  L 46,25  L 46,24  L 45,24  L 45,25  L 29,25  L 29,26  L 27,26  L 27,25  L 26,25  L 26,26  L 23,26  L 23,27  L 21,27  L 21,28  L 19,28  L 19,27  L 18,27  L 18,28  L 17,28  L 17,29  L 13,29  L 13,30  L 10,30  L 10,31  L 8,31  L 8,32  L 5,32  L 5,33  L 4,33  L 4,34  L 2,34  L 2,35  L 0,35  L 0,36  L 1,36  L 1,37  L 0,37  L 0,38  L 3,38  L 3,37  L 4,37  L 4,38  L 6,38  L 6,37  L 10,37  L 10,36  L 15,36  L 15,35  L 19,35  L 19,34  L 24,34  L 24,33  L 25,33  L 25,34  L 26,34  L 26,33  L 31,33  L 31,32  L 43,32  L 43,33  L 46,33  L 46,32  L 48,32  L 48,33  L 49,33  L 49,36  L 48,36  L 48,37  L 47,37  L 47,38  L 46,38  L 46,39  L 45,39  L 45,41  L 44,41  L 44,42  L 43,42  L 43,44  L 42,44  L 42,45  L 41,45  L 41,47  L 40,47  L 40,49  L 39,49  L 39,51  L 38,51  L 38,52  L 37,52  L 37,54  L 36,54  L 36,55  L 35,55  L 35,57  L 34,57  L 34,59  L 33,59  L 33,61  L 32,61  L 32,63  L 31,63  L 31,65  L 30,65  L 30,67  L 29,67  L 29,68  L 28,68  L 28,70  L 27,70  L 27,71  L 26,71  L 26,72  L 25,72  L 25,73  L 24,73  L 24,75  L 23,75  L 23,76  L 22,76  L 22,77  L 21,77  L 21,78  L 20,78  L 20,79  L 19,79  L 19,80  L 18,80  L 18,81  L 17,81  L 17,82  L 16,82  L 16,83  L 15,83  L 15,85  L 13,85  L 13,86  L 12,86  L 12,87  L 11,87  L 11,88  L 10,88  L 10,89  L 9,89  L 9,90  L 8,90  L 8,96  L 9,96  L 9,98  L 11,98  L 11,99  L 12,99  L 12,98  L 14,98  L 14,96  L 15,96  L 15,95  L 16,95  L 16,94  L 17,94  L 17,92  L 18,92  L 18,91  L 19,91  L 19,90  L 20,90  L 20,89  L 21,89  L 21,88  L 22,88  L 22,87  L 23,87  L 23,85  L 25,85  L 25,84  L 26,84  L 26,82  L 27,82  L 27,81  L 28,81  L 28,79  L 29,79  L 29,78  L 30,78  L 30,76  L 31,76  L 31,75  L 32,75  L 32,74  L 33,74  L 33,72  L 34,72  L 34,71  L 35,71  L 35,69  L 36,69  L 36,68  L 37,68  L 37,67  L 38,67  L 38,65  L 39,65  L 39,63  L 40,63  L 40,62  L 43,62  L 43,63  L 44,63  L 44,64  L 45,64  L 45,65  L 46,65  L 46,66  L 47,66  L 47,67  L 48,67  L 48,68  L 49,68  L 49,69  L 50,69  L 50,70  L 51,70  L 51,71  L 52,71  L 52,73  L 53,73  L 53,74  L 54,74  L 54,75  L 55,75  L 55,76  L 56,76  L 56,77  L 58,77  L 58,78  L 59,78  L 59,79  L 60,79  L 60,80  L 61,80  L 61,81  L 63,81  L 63,82  L 64,82  L 64,83  L 65,83  L 65,85  L 67,85  L 67,86  L 68,86  L 68,87  L 69,87  L 69,89  L 71,89  L 71,90  L 72,90  L 72,91  L 76,91  L 76,90  L 77,90  L 77,87  L 76,87  L 76,85  L 75,85  L 75,84  L 74,84  L 74,83  L 73,83  L 73,82  L 72,82  L 72,81  L 71,81  L 71,80  L 70,80  L 70,79  L 69,79  L 69,78  L 68,78  L 68,77  L 67,77  L 67,76  L 65,76  L 65,75  L 64,75  L 64,74  L 63,74  L 63,73  L 62,73  L 62,72  L 61,72  L 61,71  L 60,71  L 60,70  L 59,70  L 59,69  L 58,69  L 58,68  L 57,68  L 57,67  L 56,67  L 56,66  L 55,66  L 55,65  L 54,65  L 54,62  L 53,62  L 53,61  L 52,61  L 52,60  L 51,60  L 51,59  Z  " style="fill:rgb(0, 0, 0); fill-opacity:1.000; stroke:none;" />
 <path d="  M 99,54  L 99,53  L 102,53  L 102,54  L 103,54  L 103,129  L 108,129  L 108,128  L 109,128  L 109,19  L 108,19  L 108,18  L 109,18  L 109,17  L 108,17  L 108,9  L 107,9  L 107,4  L 106,4  L 106,1  L 101,1  L 101,2  L 100,2  L 100,10  L 101,10  L 101,11  L 100,11  L 100,12  L 101,12  L 101,18  L 102,18  L 102,29  L 103,29  L 103,42  L 102,42  L 102,45  L 96,45  L 96,46  L 94,46  L 94,47  L 92,47  L 92,48  L 89,48  L 89,49  L 85,49  L 85,50  L 82,50  L 82,51  L 81,51  L 81,50  L 80,50  L 80,51  L 79,51  L 79,50  L 78,50  L 78,51  L 73,51  L 73,50  L 72,50  L 72,51  L 71,51  L 71,50  L 67,50  L 67,49  L 64,49  L 64,50  L 62,50  L 62,52  L 61,52  L 61,54  L 63,54  L 63,55  L 64,55  L 64,56  L 66,56  L 66,57  L 83,57  L 83,56  L 87,56  L 87,55  L 88,55  L 88,56  L 89,56  L 89,55  L 95,55  L 95,54  Z  " style="fill:rgb(0, 0, 0); fill-opacity:1.000; stroke:none;" />
</svg>
