<?xml version="1.0" encoding="UTF-8" standalone="no"?>
<!DOCTYPE svg PUBLIC "-//W3C//DTD SVG 1.1//EN" 
  "http://www.w3.org/Graphics/SVG/1.1/DTD/svg11.dtd">
<svg width="100" height="160"
     xmlns="http://www.w3.org/2000/svg" version="1.1">
 <path d="  M 23,21  L 23,20  L 28,20  L 28,19  L 33,19  L 33,18  L 36,18  L 36,17  L 43,17  L 43,18  L 44,18  L 44,21  L 43,21  L 43,22  L 42,22  L 42,23  L 41,23  L 41,24  L 40,24  L 40,25  L 39,25  L 39,26  L 38,26  L 38,27  L 37,27  L 37,28  L 36,28  L 36,29  L 35,29  L 35,31  L 34,31  L 34,32  L 33,32  L 33,33  L 32,33  L 32,34  L 31,34  L 31,35  L 30,35  L 30,36  L 29,36  L 29,38  L 28,38  L 28,39  L 27,39  L 27,41  L 26,41  L 26,43  L 25,43  L 25,44  L 24,44  L 24,46  L 23,46  L 23,48  L 22,48  L 22,49  L 21,49  L 21,51  L 20,51  L 20,52  L 19,52  L 19,54  L 18,54  L 18,55  L 17,55  L 17,57  L 16,57  L 16,58  L 15,58  L 15,59  L 14,59  L 14,60  L 13,60  L 13,61  L 12,61  L 12,63  L 10,63  L 10,64  L 9,64  L 9,65  L 8,65  L 8,66  L 7,66  L 7,67  L 6,67  L 6,68  L 4,68  L 4,69  L 3,69  L 3,70  L 2,70  L 2,71  L 1,71  L 1,72  L 0,72  L 0,76  L 1,76  L 1,77  L 2,77  L 2,78  L 3,78  L 3,77  L 4,77  L 4,78  L 5,78  L 5,77  L 6,77  L 6,76  L 8,76  L 8,75  L 9,75  L 9,74  L 11,74  L 11,73  L 12,73  L 12,72  L 13,72  L 13,71  L 14,71  L 14,70  L 15,70  L 15,69  L 16,69  L 16,68  L 17,68  L 17,67  L 18,67  L 18,66  L 19,66  L 19,65  L 20,65  L 20,63  L 21,63  L 21,62  L 22,62  L 22,61  L 23,61  L 23,60  L 24,60  L 24,59  L 25,59  L 25,57  L 26,57  L 26,55  L 27,55  L 27,54  L 29,54  L 29,53  L 31,53  L 31,54  L 33,54  L 33,55  L 34,55  L 34,56  L 35,56  L 35,57  L 36,57  L 36,58  L 37,58  L 37,59  L 39,59  L 39,60  L 40,60  L 40,61  L 41,61  L 41,62  L 42,62  L 42,63  L 44,63  L 44,64  L 46,64  L 46,66  L 48,66  L 48,67  L 49,67  L 49,68  L 50,68  L 50,69  L 51,69  L 51,70  L 52,70  L 52,71  L 54,71  L 54,72  L 55,72  L 55,74  L 56,74  L 56,75  L 58,75  L 58,74  L 60,74  L 60,68  L 58,68  L 58,67  L 57,67  L 57,66  L 56,66  L 56,65  L 55,65  L 55,64  L 54,64  L 54,63  L 53,63  L 53,61  L 51,61  L 51,60  L 50,60  L 50,59  L 49,59  L 49,58  L 48,58  L 48,57  L 47,57  L 47,56  L 45,56  L 45,55  L 44,55  L 44,54  L 43,54  L 43,53  L 42,53  L 42,52  L 40,52  L 40,50  L 39,50  L 39,49  L 38,49  L 38,47  L 36,47  L 36,46  L 33,46  L 33,44  L 34,44  L 34,41  L 35,41  L 35,40  L 36,40  L 36,38  L 37,38  L 37,37  L 39,37  L 39,35  L 40,35  L 40,34  L 41,34  L 41,33  L 42,33  L 42,31  L 43,31  L 43,30  L 44,30  L 44,29  L 45,29  L 45,27  L 46,27  L 46,26  L 47,26  L 47,25  L 48,25  L 48,24  L 49,24  L 49,23  L 50,23  L 50,21  L 51,21  L 51,15  L 50,15  L 50,13  L 49,13  L 49,12  L 48,12  L 48,11  L 47,11  L 47,10  L 38,10  L 38,11  L 33,11  L 33,12  L 28,12  L 28,13  L 24,13  L 24,14  L 17,14  L 17,15  L 13,15  L 13,16  L 10,16  L 10,17  L 6,17  L 6,18  L 5,18  L 5,19  L 4,19  L 4,24  L 5,24  L 5,25  L 4,25  L 4,26  L 6,26  L 6,25  L 8,25  L 8,24  L 9,24  L 9,23  L 13,23  L 13,22  L 17,22  L 17,21  Z  " style="fill:rgb(0, 0, 0); fill-opacity:1.000; stroke:none;" />
 <path d="  M 31,107  L 31,108  L 30,108  L 30,109  L 29,109  L 29,110  L 28,110  L 28,113  L 29,113  L 29,114  L 36,114  L 36,115  L 37,115  L 37,118  L 38,118  L 38,123  L 37,123  L 37,124  L 38,124  L 38,152  L 39,152  L 39,155  L 40,155  L 40,156  L 41,156  L 41,159  L 44,159  L 44,160  L 62,160  L 62,159  L 64,159  L 64,160  L 66,160  L 66,159  L 73,159  L 73,158  L 79,158  L 79,157  L 80,157  L 80,158  L 81,158  L 81,157  L 86,157  L 86,156  L 88,156  L 88,155  L 90,155  L 90,154  L 92,154  L 92,153  L 93,153  L 93,152  L 94,152  L 94,141  L 95,141  L 95,130  L 96,130  L 96,124  L 97,124  L 97,123  L 96,123  L 96,122  L 97,122  L 97,118  L 98,118  L 98,109  L 97,109  L 97,107  L 96,107  L 96,106  L 93,106  L 93,105  L 86,105  L 86,106  L 85,106  L 85,105  L 84,105  L 84,106  L 83,106  L 83,105  L 82,105  L 82,106  L 69,106  L 69,107  L 60,107  L 60,108  L 59,108  L 59,107  L 58,107  L 58,108  L 51,108  L 51,109  L 46,109  L 46,108  L 43,108  L 43,107  Z  M 69,153  L 69,154  L 67,154  L 67,153  L 66,153  L 66,154  L 59,154  L 59,155  L 58,155  L 58,154  L 57,154  L 57,155  L 50,155  L 50,154  L 49,154  L 49,155  L 48,155  L 48,154  L 47,154  L 47,153  L 46,153  L 46,152  L 45,152  L 45,146  L 44,146  L 44,129  L 43,129  L 43,128  L 44,128  L 44,125  L 43,125  L 43,124  L 44,124  L 44,121  L 43,121  L 43,120  L 44,120  L 44,119  L 43,119  L 43,117  L 44,117  L 44,115  L 45,115  L 45,114  L 46,114  L 46,115  L 49,115  L 49,114  L 58,114  L 58,113  L 67,113  L 67,112  L 68,112  L 68,113  L 69,113  L 69,112  L 82,112  L 82,111  L 85,111  L 85,112  L 87,112  L 87,111  L 88,111  L 88,112  L 91,112  L 91,114  L 92,114  L 92,115  L 91,115  L 91,121  L 90,121  L 90,131  L 89,131  L 89,144  L 88,144  L 88,150  L 86,150  L 86,151  L 81,151  L 81,152  L 75,152  L 75,153  Z  " style="fill:rgb(0, 0, 0); fill-opacity:1.000; stroke:none;" />
 <path d="  M 100,31  L 99,31  L 99,30  L 100,30  L 100,29  L 99,29  L 99,26  L 98,26  L 98,22  L 97,22  L 97,18  L 96,18  L 96,13  L 95,13  L 95,7  L 94,7  L 94,3  L 93,3  L 93,2  L 92,2  L 92,1  L 90,1  L 90,0  L 89,0  L 89,1  L 87,1  L 87,3  L 86,3  L 86,4  L 87,4  L 87,10  L 88,10  L 88,18  L 89,18  L 89,23  L 90,23  L 90,26  L 91,26  L 91,28  L 92,28  L 92,30  L 91,30  L 91,31  L 89,31  L 89,32  L 82,32  L 82,33  L 77,33  L 77,34  L 71,34  L 71,35  L 67,35  L 67,36  L 65,36  L 65,37  L 62,37  L 62,38  L 60,38  L 60,39  L 59,39  L 59,40  L 58,40  L 58,41  L 57,41  L 57,42  L 56,42  L 56,43  L 54,43  L 54,47  L 59,47  L 59,46  L 61,46  L 61,45  L 64,45  L 64,44  L 67,44  L 67,43  L 71,43  L 71,42  L 76,42  L 76,41  L 80,41  L 80,40  L 85,40  L 85,39  L 95,39  L 95,41  L 94,41  L 94,59  L 93,59  L 93,60  L 94,60  L 94,63  L 93,63  L 93,64  L 94,64  L 94,67  L 93,67  L 93,69  L 94,69  L 94,70  L 93,70  L 93,81  L 92,81  L 92,82  L 93,82  L 93,85  L 92,85  L 92,86  L 93,86  L 93,89  L 92,89  L 92,90  L 93,90  L 93,96  L 92,96  L 92,97  L 93,97  L 93,98  L 95,98  L 95,99  L 96,99  L 96,98  L 99,98  L 99,97  L 100,97  L 100,91  L 99,91  L 99,90  L 100,90  Z  " style="fill:rgb(0, 0, 0); fill-opacity:1.000; stroke:none;" />
</svg>
