<?xml version="1.0" encoding="UTF-8" standalone="no"?>
<!DOCTYPE svg PUBLIC "-//W3C//DTD SVG 1.1//EN" 
  "http://www.w3.org/Graphics/SVG/1.1/DTD/svg11.dtd">
<svg width="103" height="163"
     xmlns="http://www.w3.org/2000/svg" version="1.1">
 <path d="  M 50,59  L 50,58  L 49,58  L 49,57  L 48,57  L 48,56  L 46,56  L 46,55  L 45,55  L 45,54  L 44,54  L 44,53  L 43,53  L 43,52  L 42,52  L 42,51  L 41,51  L 41,49  L 40,49  L 40,48  L 39,48  L 39,47  L 38,47  L 38,46  L 36,46  L 36,45  L 34,45  L 34,42  L 35,42  L 35,41  L 36,41  L 36,39  L 37,39  L 37,38  L 38,38  L 38,37  L 39,37  L 39,35  L 40,35  L 40,34  L 41,34  L 41,33  L 42,33  L 42,32  L 43,32  L 43,31  L 44,31  L 44,30  L 45,30  L 45,28  L 46,28  L 46,27  L 47,27  L 47,26  L 48,26  L 48,25  L 49,25  L 49,23  L 50,23  L 50,20  L 51,20  L 51,16  L 50,16  L 50,15  L 49,15  L 49,14  L 48,14  L 48,13  L 47,13  L 47,12  L 42,12  L 42,13  L 34,13  L 34,14  L 29,14  L 29,15  L 22,15  L 22,16  L 16,16  L 16,17  L 15,17  L 15,16  L 14,16  L 14,17  L 10,17  L 10,18  L 4,18  L 4,21  L 3,21  L 3,22  L 4,22  L 4,24  L 5,24  L 5,25  L 7,25  L 7,24  L 10,24  L 10,23  L 17,23  L 17,22  L 25,22  L 25,21  L 32,21  L 32,20  L 37,20  L 37,19  L 43,19  L 43,20  L 44,20  L 44,22  L 43,22  L 43,23  L 42,23  L 42,24  L 41,24  L 41,25  L 39,25  L 39,26  L 38,26  L 38,27  L 37,27  L 37,28  L 36,28  L 36,29  L 35,29  L 35,30  L 34,30  L 34,32  L 33,32  L 33,33  L 32,33  L 32,34  L 31,34  L 31,36  L 30,36  L 30,37  L 29,37  L 29,39  L 28,39  L 28,40  L 27,40  L 27,42  L 26,42  L 26,44  L 25,44  L 25,46  L 24,46  L 24,48  L 23,48  L 23,50  L 22,50  L 22,51  L 21,51  L 21,53  L 20,53  L 20,54  L 19,54  L 19,56  L 18,56  L 18,57  L 17,57  L 17,59  L 16,59  L 16,60  L 15,60  L 15,61  L 14,61  L 14,62  L 13,62  L 13,63  L 12,63  L 12,64  L 11,64  L 11,65  L 10,65  L 10,66  L 9,66  L 9,67  L 8,67  L 8,68  L 7,68  L 7,69  L 5,69  L 5,70  L 3,70  L 3,72  L 1,72  L 1,73  L 0,73  L 0,75  L 1,75  L 1,76  L 2,76  L 2,77  L 3,77  L 3,78  L 4,78  L 4,79  L 5,79  L 5,78  L 7,78  L 7,77  L 9,77  L 9,76  L 10,76  L 10,75  L 11,75  L 11,74  L 12,74  L 12,73  L 14,73  L 14,72  L 15,72  L 15,71  L 16,71  L 16,70  L 17,70  L 17,69  L 18,69  L 18,68  L 19,68  L 19,67  L 20,67  L 20,65  L 21,65  L 21,64  L 22,64  L 22,63  L 23,63  L 23,62  L 24,62  L 24,61  L 25,61  L 25,60  L 26,60  L 26,57  L 27,57  L 27,56  L 28,56  L 28,55  L 29,55  L 29,53  L 30,53  L 30,52  L 31,52  L 31,53  L 32,53  L 32,54  L 34,54  L 34,56  L 35,56  L 35,57  L 37,57  L 37,58  L 38,58  L 38,59  L 40,59  L 40,60  L 41,60  L 41,61  L 43,61  L 43,62  L 44,62  L 44,63  L 45,63  L 45,64  L 47,64  L 47,65  L 48,65  L 48,66  L 50,66  L 50,67  L 51,67  L 51,68  L 52,68  L 52,69  L 54,69  L 54,70  L 55,70  L 55,71  L 56,71  L 56,72  L 58,72  L 58,73  L 59,73  L 59,74  L 60,74  L 60,73  L 62,73  L 62,72  L 63,72  L 63,69  L 62,69  L 62,68  L 61,68  L 61,67  L 60,67  L 60,66  L 59,66  L 59,65  L 58,65  L 58,64  L 56,64  L 56,63  L 55,63  L 55,62  L 54,62  L 54,61  L 53,61  L 53,60  L 52,60  L 52,59  Z  " style="fill:rgb(0, 0, 0); fill-opacity:1.000; stroke:none;" />
 <path d="  M 44,113  L 44,112  L 43,112  L 43,111  L 44,111  L 44,110  L 43,110  L 43,101  L 42,101  L 42,99  L 41,99  L 41,98  L 39,98  L 39,99  L 37,99  L 37,100  L 36,100  L 36,109  L 37,109  L 37,110  L 36,110  L 36,111  L 37,111  L 37,112  L 36,112  L 36,113  L 37,113  L 37,114  L 36,114  L 36,115  L 37,115  L 37,116  L 36,116  L 36,117  L 37,117  L 37,127  L 38,127  L 38,137  L 39,137  L 39,149  L 40,149  L 40,154  L 41,154  L 41,157  L 42,157  L 42,159  L 43,159  L 43,160  L 44,160  L 44,161  L 45,161  L 45,162  L 48,162  L 48,163  L 66,163  L 66,162  L 71,162  L 71,161  L 75,161  L 75,160  L 79,160  L 79,159  L 82,159  L 82,158  L 84,158  L 84,157  L 87,157  L 87,156  L 88,156  L 88,155  L 90,155  L 90,154  L 91,154  L 91,149  L 92,149  L 92,141  L 93,141  L 93,140  L 92,140  L 92,139  L 93,139  L 93,132  L 94,132  L 94,129  L 95,129  L 95,128  L 94,128  L 94,127  L 95,127  L 95,126  L 94,126  L 94,108  L 93,108  L 93,106  L 92,106  L 92,105  L 89,105  L 89,106  L 88,106  L 88,107  L 87,107  L 87,110  L 88,110  L 88,111  L 87,111  L 87,113  L 88,113  L 88,116  L 87,116  L 87,117  L 88,117  L 88,124  L 87,124  L 87,125  L 79,125  L 79,124  L 78,124  L 78,125  L 75,125  L 75,124  L 74,124  L 74,125  L 71,125  L 71,124  L 70,124  L 70,125  L 67,125  L 67,124  L 66,124  L 66,125  L 63,125  L 63,124  L 62,124  L 62,125  L 59,125  L 59,124  L 58,124  L 58,125  L 55,125  L 55,124  L 54,124  L 54,125  L 51,125  L 51,124  L 50,124  L 50,125  L 45,125  L 45,124  L 44,124  L 44,118  L 43,118  L 43,116  L 44,116  L 44,114  L 43,114  L 43,113  Z  M 71,132  L 71,131  L 72,131  L 72,132  L 75,132  L 75,131  L 76,131  L 76,132  L 77,132  L 77,131  L 78,131  L 78,132  L 79,132  L 79,131  L 82,131  L 82,132  L 83,132  L 83,131  L 86,131  L 86,132  L 87,132  L 87,134  L 86,134  L 86,145  L 85,145  L 85,150  L 84,150  L 84,152  L 83,152  L 83,153  L 78,153  L 78,154  L 74,154  L 74,155  L 69,155  L 69,156  L 62,156  L 62,157  L 51,157  L 51,156  L 50,156  L 50,157  L 49,157  L 49,156  L 48,156  L 48,153  L 47,153  L 47,150  L 46,150  L 46,144  L 45,144  L 45,136  L 44,136  L 44,135  L 45,135  L 45,133  L 46,133  L 46,132  Z  " style="fill:rgb(0, 0, 0); fill-opacity:1.000; stroke:none;" />
 <path d="  M 95,0  L 95,1  L 94,1  L 94,2  L 93,2  L 93,6  L 94,6  L 94,17  L 95,17  L 95,30  L 93,30  L 93,31  L 83,31  L 83,32  L 78,32  L 78,33  L 74,33  L 74,34  L 67,34  L 67,35  L 64,35  L 64,36  L 61,36  L 61,37  L 60,37  L 60,38  L 59,38  L 59,39  L 58,39  L 58,40  L 57,40  L 57,46  L 59,46  L 59,45  L 60,45  L 60,44  L 62,44  L 62,43  L 64,43  L 64,42  L 68,42  L 68,41  L 75,41  L 75,40  L 80,40  L 80,39  L 87,39  L 87,38  L 88,38  L 88,39  L 89,39  L 89,38  L 95,38  L 95,39  L 96,39  L 96,40  L 97,40  L 97,41  L 96,41  L 96,48  L 97,48  L 97,50  L 96,50  L 96,75  L 95,75  L 95,76  L 96,76  L 96,79  L 95,79  L 95,80  L 96,80  L 96,81  L 95,81  L 95,91  L 96,91  L 96,93  L 97,93  L 97,94  L 102,94  L 102,77  L 103,77  L 103,76  L 102,76  L 102,75  L 103,75  L 103,26  L 102,26  L 102,12  L 101,12  L 101,4  L 100,4  L 100,2  L 99,2  L 99,1  L 97,1  L 97,0  Z  " style="fill:rgb(0, 0, 0); fill-opacity:1.000; stroke:none;" />
</svg>
