<?xml version="1.0" encoding="UTF-8" standalone="no"?>
<!DOCTYPE svg PUBLIC "-//W3C//DTD SVG 1.1//EN" 
  "http://www.w3.org/Graphics/SVG/1.1/DTD/svg11.dtd">
<svg width="102" height="147"
     xmlns="http://www.w3.org/2000/svg" version="1.1">
 <path d="  M 24,4  L 24,5  L 17,5  L 17,6  L 15,6  L 15,5  L 14,5  L 14,6  L 9,6  L 9,7  L 4,7  L 4,8  L 3,8  L 3,9  L 2,9  L 2,10  L 1,10  L 1,14  L 2,14  L 2,15  L 7,15  L 7,14  L 9,14  L 9,13  L 15,13  L 15,12  L 25,12  L 25,11  L 33,11  L 33,10  L 34,10  L 34,11  L 35,11  L 35,10  L 38,10  L 38,9  L 41,9  L 41,10  L 42,10  L 42,12  L 41,12  L 41,13  L 40,13  L 40,15  L 39,15  L 39,16  L 38,16  L 38,17  L 37,17  L 37,18  L 36,18  L 36,19  L 34,19  L 34,20  L 33,20  L 33,21  L 32,21  L 32,22  L 30,22  L 30,24  L 29,24  L 29,25  L 28,25  L 28,26  L 27,26  L 27,29  L 26,29  L 26,30  L 25,30  L 25,32  L 24,32  L 24,33  L 23,33  L 23,35  L 22,35  L 22,36  L 21,36  L 21,38  L 20,38  L 20,39  L 19,39  L 19,41  L 18,41  L 18,42  L 17,42  L 17,43  L 16,43  L 16,44  L 15,44  L 15,46  L 13,46  L 13,48  L 12,48  L 12,50  L 11,50  L 11,51  L 10,51  L 10,52  L 9,52  L 9,54  L 8,54  L 8,55  L 7,55  L 7,57  L 6,57  L 6,58  L 5,58  L 5,59  L 4,59  L 4,60  L 3,60  L 3,62  L 2,62  L 2,63  L 1,63  L 1,64  L 0,64  L 0,65  L 1,65  L 1,66  L 0,66  L 0,67  L 1,67  L 1,69  L 3,69  L 3,70  L 4,70  L 4,69  L 6,69  L 6,68  L 7,68  L 7,67  L 8,67  L 8,66  L 9,66  L 9,65  L 10,65  L 10,64  L 11,64  L 11,62  L 12,62  L 12,61  L 13,61  L 13,60  L 14,60  L 14,59  L 15,59  L 15,57  L 16,57  L 16,56  L 17,56  L 17,55  L 18,55  L 18,54  L 19,54  L 19,52  L 20,52  L 20,51  L 21,51  L 21,49  L 23,49  L 23,48  L 25,48  L 25,49  L 27,49  L 27,50  L 28,50  L 28,51  L 30,51  L 30,52  L 31,52  L 31,53  L 32,53  L 32,54  L 34,54  L 34,55  L 35,55  L 35,56  L 36,56  L 36,57  L 37,57  L 37,58  L 39,58  L 39,59  L 40,59  L 40,60  L 41,60  L 41,61  L 43,61  L 43,62  L 44,62  L 44,63  L 46,63  L 46,65  L 48,65  L 48,66  L 51,66  L 51,67  L 52,67  L 52,66  L 53,66  L 53,65  L 55,65  L 55,63  L 54,63  L 54,62  L 53,62  L 53,61  L 52,61  L 52,60  L 51,60  L 51,59  L 50,59  L 50,58  L 48,58  L 48,57  L 47,57  L 47,56  L 46,56  L 46,55  L 45,55  L 45,54  L 44,54  L 44,53  L 42,53  L 42,52  L 41,52  L 41,51  L 40,51  L 40,50  L 39,50  L 39,49  L 38,49  L 38,48  L 37,48  L 37,47  L 36,47  L 36,46  L 34,46  L 34,44  L 32,44  L 32,43  L 31,43  L 31,42  L 30,42  L 30,40  L 29,40  L 29,37  L 30,37  L 30,35  L 31,35  L 31,33  L 32,33  L 32,32  L 33,32  L 33,30  L 34,30  L 34,29  L 35,29  L 35,27  L 37,27  L 37,25  L 38,25  L 38,24  L 39,24  L 39,23  L 40,23  L 40,22  L 41,22  L 41,21  L 43,21  L 43,19  L 45,19  L 45,18  L 46,18  L 46,17  L 47,17  L 47,15  L 48,15  L 48,13  L 49,13  L 49,10  L 48,10  L 48,8  L 47,8  L 47,6  L 46,6  L 46,5  L 44,5  L 44,4  L 43,4  L 43,3  L 42,3  L 42,2  L 37,2  L 37,3  L 32,3  L 32,4  Z  " style="fill:rgb(0, 0, 0); fill-opacity:1.000; stroke:none;" />
 <path d="  M 37,111  L 38,111  L 38,112  L 37,112  L 37,115  L 38,115  L 38,116  L 37,116  L 37,119  L 38,119  L 38,120  L 37,120  L 37,123  L 38,123  L 38,129  L 39,129  L 39,130  L 38,130  L 38,131  L 39,131  L 39,139  L 40,139  L 40,141  L 41,141  L 41,144  L 42,144  L 42,145  L 43,145  L 43,146  L 44,146  L 44,147  L 55,147  L 55,146  L 62,146  L 62,145  L 67,145  L 67,144  L 73,144  L 73,143  L 76,143  L 76,142  L 79,142  L 79,141  L 83,141  L 83,140  L 86,140  L 86,139  L 87,139  L 87,138  L 88,138  L 88,137  L 89,137  L 89,136  L 90,136  L 90,127  L 91,127  L 91,121  L 92,121  L 92,119  L 93,119  L 93,118  L 92,118  L 92,115  L 93,115  L 93,114  L 92,114  L 92,113  L 93,113  L 93,112  L 92,112  L 92,111  L 93,111  L 93,110  L 92,110  L 92,107  L 93,107  L 93,106  L 92,106  L 92,103  L 93,103  L 93,102  L 92,102  L 92,95  L 91,95  L 91,94  L 90,94  L 90,93  L 86,93  L 86,112  L 87,112  L 87,114  L 86,114  L 86,115  L 56,115  L 56,116  L 45,116  L 45,115  L 44,115  L 44,100  L 43,100  L 43,99  L 44,99  L 44,92  L 43,92  L 43,89  L 42,89  L 42,88  L 41,88  L 41,87  L 40,87  L 40,86  L 39,86  L 39,88  L 38,88  L 38,89  L 37,89  Z  M 48,141  L 48,140  L 47,140  L 47,139  L 46,139  L 46,136  L 45,136  L 45,130  L 44,130  L 44,124  L 45,124  L 45,123  L 46,123  L 46,122  L 55,122  L 55,121  L 58,121  L 58,122  L 59,122  L 59,121  L 75,121  L 75,120  L 76,120  L 76,121  L 85,121  L 85,125  L 84,125  L 84,132  L 83,132  L 83,134  L 82,134  L 82,135  L 81,135  L 81,136  L 76,136  L 76,137  L 72,137  L 72,138  L 68,138  L 68,139  L 67,139  L 67,138  L 66,138  L 66,139  L 62,139  L 62,140  L 57,140  L 57,141  Z  " style="fill:rgb(0, 0, 0); fill-opacity:1.000; stroke:none;" />
 <path d="  M 51,31  L 49,31  L 49,32  L 46,32  L 46,33  L 44,33  L 44,34  L 42,34  L 42,35  L 41,35  L 41,41  L 42,41  L 42,42  L 43,42  L 43,41  L 45,41  L 45,40  L 47,40  L 47,39  L 49,39  L 49,38  L 52,38  L 52,37  L 56,37  L 56,36  L 60,36  L 60,35  L 75,35  L 75,45  L 76,45  L 76,47  L 75,47  L 75,55  L 76,55  L 76,56  L 75,56  L 75,58  L 76,58  L 76,60  L 75,60  L 75,62  L 76,62  L 76,63  L 75,63  L 75,74  L 74,74  L 74,75  L 75,75  L 75,76  L 76,76  L 76,77  L 77,77  L 77,78  L 79,78  L 79,77  L 80,77  L 80,75  L 81,75  L 81,73  L 82,73  L 82,63  L 83,63  L 83,62  L 82,62  L 82,61  L 83,61  L 83,60  L 82,60  L 82,59  L 83,59  L 83,58  L 82,58  L 82,57  L 83,57  L 83,56  L 82,56  L 82,55  L 83,55  L 83,54  L 82,54  L 82,53  L 83,53  L 83,52  L 82,52  L 82,51  L 83,51  L 83,50  L 82,50  L 82,47  L 83,47  L 83,46  L 82,46  L 82,45  L 83,45  L 83,44  L 82,44  L 82,41  L 83,41  L 83,40  L 82,40  L 82,39  L 83,39  L 83,36  L 82,36  L 82,35  L 83,35  L 83,32  L 82,32  L 82,31  L 83,31  L 83,1  L 81,1  L 81,0  L 78,0  L 78,1  L 76,1  L 76,26  L 75,26  L 75,27  L 74,27  L 74,28  L 62,28  L 62,29  L 54,29  L 54,30  L 51,30  Z  " style="fill:rgb(0, 0, 0); fill-opacity:1.000; stroke:none;" />
 <path d="  M 102,3  L 99,3  L 99,2  L 97,2  L 97,3  L 96,3  L 96,4  L 95,4  L 95,27  L 96,27  L 96,28  L 95,28  L 95,31  L 96,31  L 96,33  L 95,33  L 95,34  L 96,34  L 96,37  L 95,37  L 95,38  L 96,38  L 96,41  L 95,41  L 95,42  L 96,42  L 96,49  L 95,49  L 95,50  L 96,50  L 96,53  L 95,53  L 95,54  L 96,54  L 96,56  L 95,56  L 95,58  L 96,58  L 96,59  L 95,59  L 95,80  L 94,80  L 94,81  L 95,81  L 95,84  L 97,84  L 97,85  L 98,85  L 98,84  L 99,84  L 99,85  L 100,85  L 100,84  L 101,84  L 101,81  L 102,81  Z  " style="fill:rgb(0, 0, 0); fill-opacity:1.000; stroke:none;" />
</svg>
