<?xml version="1.0" encoding="UTF-8" standalone="no"?>
<!DOCTYPE svg PUBLIC "-//W3C//DTD SVG 1.1//EN" 
  "http://www.w3.org/Graphics/SVG/1.1/DTD/svg11.dtd">
<svg width="104" height="139"
     xmlns="http://www.w3.org/2000/svg" version="1.1">
 <path d="  M 28,33  L 28,31  L 29,31  L 29,30  L 30,30  L 30,29  L 31,29  L 31,26  L 32,26  L 32,24  L 33,24  L 33,23  L 34,23  L 34,22  L 35,22  L 35,21  L 36,21  L 36,20  L 37,20  L 37,19  L 38,19  L 38,18  L 39,18  L 39,17  L 40,17  L 40,16  L 41,16  L 41,15  L 42,15  L 42,14  L 43,14  L 43,13  L 44,13  L 44,12  L 46,12  L 46,9  L 47,9  L 47,6  L 46,6  L 46,4  L 45,4  L 45,3  L 43,3  L 43,2  L 42,2  L 42,1  L 41,1  L 41,2  L 38,2  L 38,3  L 33,3  L 33,4  L 25,4  L 25,5  L 18,5  L 18,6  L 15,6  L 15,5  L 14,5  L 14,6  L 11,6  L 11,7  L 5,7  L 5,8  L 3,8  L 3,10  L 2,10  L 2,11  L 1,11  L 1,13  L 2,13  L 2,14  L 8,14  L 8,13  L 11,13  L 11,12  L 17,12  L 17,11  L 29,11  L 29,10  L 35,10  L 35,9  L 38,9  L 38,10  L 39,10  L 39,11  L 38,11  L 38,12  L 37,12  L 37,13  L 36,13  L 36,14  L 34,14  L 34,15  L 32,15  L 32,16  L 30,16  L 30,17  L 29,17  L 29,18  L 28,18  L 28,19  L 27,19  L 27,21  L 26,21  L 26,22  L 25,22  L 25,23  L 24,23  L 24,25  L 23,25  L 23,27  L 22,27  L 22,29  L 21,29  L 21,31  L 20,31  L 20,33  L 19,33  L 19,35  L 18,35  L 18,36  L 17,36  L 17,37  L 16,37  L 16,38  L 15,38  L 15,41  L 14,41  L 14,42  L 13,42  L 13,44  L 12,44  L 12,46  L 11,46  L 11,48  L 10,48  L 10,50  L 9,50  L 9,52  L 8,52  L 8,53  L 7,53  L 7,54  L 5,54  L 5,56  L 3,56  L 3,57  L 2,57  L 2,58  L 1,58  L 1,61  L 0,61  L 0,62  L 1,62  L 1,63  L 0,63  L 0,64  L 1,64  L 1,65  L 2,65  L 2,66  L 3,66  L 3,67  L 4,67  L 4,66  L 5,66  L 5,65  L 6,65  L 6,64  L 7,64  L 7,63  L 8,63  L 8,62  L 9,62  L 9,61  L 10,61  L 10,60  L 11,60  L 11,59  L 12,59  L 12,58  L 13,58  L 13,56  L 14,56  L 14,55  L 15,55  L 15,54  L 16,54  L 16,53  L 17,53  L 17,52  L 18,52  L 18,50  L 19,50  L 19,48  L 20,48  L 20,46  L 21,46  L 21,44  L 20,44  L 20,42  L 21,42  L 21,41  L 22,41  L 22,40  L 24,40  L 24,42  L 25,42  L 25,43  L 26,43  L 26,44  L 27,44  L 27,45  L 28,45  L 28,46  L 29,46  L 29,47  L 30,47  L 30,48  L 31,48  L 31,49  L 33,49  L 33,50  L 35,50  L 35,51  L 36,51  L 36,52  L 37,52  L 37,53  L 39,53  L 39,55  L 42,55  L 42,56  L 44,56  L 44,57  L 46,57  L 46,58  L 52,58  L 52,57  L 53,57  L 53,56  L 52,56  L 52,55  L 51,55  L 51,53  L 50,53  L 50,52  L 48,52  L 48,51  L 46,51  L 46,50  L 44,50  L 44,49  L 43,49  L 43,48  L 42,48  L 42,47  L 41,47  L 41,46  L 39,46  L 39,45  L 37,45  L 37,44  L 36,44  L 36,43  L 35,43  L 35,40  L 34,40  L 34,39  L 33,39  L 33,38  L 32,38  L 32,37  L 29,37  L 29,36  L 28,36  L 28,34  L 29,34  L 29,33  Z  " style="fill:rgb(0, 0, 0); fill-opacity:1.000; stroke:none;" />
 <path d="  M 94,127  L 94,126  L 91,126  L 91,125  L 88,125  L 88,124  L 87,124  L 87,123  L 86,123  L 86,122  L 84,122  L 84,121  L 82,121  L 82,120  L 81,120  L 81,119  L 79,119  L 79,118  L 77,118  L 77,117  L 75,117  L 75,116  L 74,116  L 74,115  L 73,115  L 73,114  L 71,114  L 71,113  L 69,113  L 69,112  L 68,112  L 68,111  L 67,111  L 67,110  L 65,110  L 65,109  L 64,109  L 64,108  L 63,108  L 63,107  L 62,107  L 62,106  L 61,106  L 61,105  L 60,105  L 60,103  L 59,103  L 59,100  L 60,100  L 60,99  L 61,99  L 61,97  L 63,97  L 63,96  L 64,96  L 64,95  L 65,95  L 65,94  L 66,94  L 66,93  L 67,93  L 67,91  L 68,91  L 68,90  L 69,90  L 69,87  L 67,87  L 67,86  L 65,86  L 65,85  L 63,85  L 63,86  L 61,86  L 61,87  L 60,87  L 60,88  L 59,88  L 59,89  L 58,89  L 58,90  L 57,90  L 57,91  L 56,91  L 56,93  L 54,93  L 54,95  L 53,95  L 53,97  L 52,97  L 52,98  L 51,98  L 51,100  L 50,100  L 50,101  L 49,101  L 49,102  L 48,102  L 48,103  L 47,103  L 47,105  L 46,105  L 46,107  L 45,107  L 45,108  L 44,108  L 44,110  L 43,110  L 43,111  L 42,111  L 42,112  L 41,112  L 41,114  L 40,114  L 40,116  L 39,116  L 39,117  L 38,117  L 38,119  L 37,119  L 37,120  L 36,120  L 36,122  L 35,122  L 35,123  L 34,123  L 34,124  L 33,124  L 33,126  L 32,126  L 32,127  L 31,127  L 31,128  L 30,128  L 30,129  L 29,129  L 29,130  L 28,130  L 28,132  L 27,132  L 27,133  L 26,133  L 26,134  L 25,134  L 25,135  L 24,135  L 24,137  L 23,137  L 23,138  L 24,138  L 24,139  L 30,139  L 30,138  L 31,138  L 31,137  L 32,137  L 32,136  L 33,136  L 33,135  L 34,135  L 34,134  L 35,134  L 35,133  L 36,133  L 36,131  L 37,131  L 37,130  L 38,130  L 38,129  L 39,129  L 39,128  L 40,128  L 40,126  L 41,126  L 41,125  L 42,125  L 42,123  L 43,123  L 43,121  L 44,121  L 44,120  L 45,120  L 45,119  L 46,119  L 46,117  L 47,117  L 47,115  L 48,115  L 48,114  L 49,114  L 49,112  L 50,112  L 50,110  L 51,110  L 51,109  L 52,109  L 52,108  L 53,108  L 53,109  L 55,109  L 55,110  L 56,110  L 56,111  L 57,111  L 57,112  L 58,112  L 58,113  L 59,113  L 59,114  L 61,114  L 61,115  L 62,115  L 62,116  L 63,116  L 63,117  L 65,117  L 65,118  L 67,118  L 67,119  L 68,119  L 68,120  L 69,120  L 69,121  L 71,121  L 71,122  L 73,122  L 73,124  L 76,124  L 76,125  L 77,125  L 77,126  L 79,126  L 79,127  L 81,127  L 81,128  L 82,128  L 82,129  L 84,129  L 84,130  L 87,130  L 87,131  L 89,131  L 89,132  L 92,132  L 92,133  L 94,133  L 94,134  L 96,134  L 96,135  L 98,135  L 98,136  L 99,136  L 99,135  L 100,135  L 100,136  L 102,136  L 102,135  L 103,135  L 103,134  L 104,134  L 104,131  L 103,131  L 103,130  L 102,130  L 102,129  L 101,129  L 101,128  L 99,128  L 99,127  Z  " style="fill:rgb(0, 0, 0); fill-opacity:1.000; stroke:none;" />
 <path d="  M 74,69  L 73,69  L 73,70  L 74,70  L 74,73  L 73,73  L 73,74  L 74,74  L 74,76  L 75,76  L 75,77  L 76,77  L 76,76  L 79,76  L 79,75  L 80,75  L 80,70  L 81,70  L 81,69  L 80,69  L 80,66  L 81,66  L 81,64  L 80,64  L 80,63  L 81,63  L 81,29  L 80,29  L 80,22  L 79,22  L 79,21  L 80,21  L 80,20  L 79,20  L 79,19  L 80,19  L 80,16  L 79,16  L 79,14  L 80,14  L 80,12  L 79,12  L 79,10  L 80,10  L 80,8  L 79,8  L 79,6  L 80,6  L 80,4  L 79,4  L 79,1  L 77,1  L 77,0  L 74,0  L 74,1  L 73,1  L 73,23  L 72,23  L 72,24  L 54,24  L 54,25  L 53,25  L 53,24  L 52,24  L 52,25  L 46,25  L 46,26  L 43,26  L 43,27  L 41,27  L 41,28  L 39,28  L 39,29  L 38,29  L 38,30  L 37,30  L 37,33  L 38,33  L 38,35  L 39,35  L 39,34  L 42,34  L 42,33  L 43,33  L 43,34  L 44,34  L 44,33  L 47,33  L 47,32  L 53,32  L 53,31  L 61,31  L 61,30  L 62,30  L 62,31  L 64,31  L 64,30  L 67,30  L 67,31  L 68,31  L 68,30  L 71,30  L 71,31  L 74,31  L 74,35  L 73,35  L 73,39  L 74,39  Z  " style="fill:rgb(0, 0, 0); fill-opacity:1.000; stroke:none;" />
 <path d="  M 104,85  L 104,55  L 103,55  L 103,54  L 104,54  L 104,53  L 103,53  L 103,52  L 104,52  L 104,51  L 103,51  L 103,45  L 102,45  L 102,37  L 101,37  L 101,29  L 100,29  L 100,23  L 99,23  L 99,15  L 98,15  L 98,7  L 97,7  L 97,6  L 96,6  L 96,5  L 93,5  L 93,6  L 92,6  L 92,7  L 91,7  L 91,8  L 92,8  L 92,16  L 93,16  L 93,23  L 94,23  L 94,32  L 95,32  L 95,33  L 94,33  L 94,34  L 95,34  L 95,42  L 96,42  L 96,56  L 97,56  L 97,59  L 96,59  L 96,60  L 97,60  L 97,82  L 98,82  L 98,84  L 97,84  L 97,86  L 98,86  L 98,87  L 101,87  L 101,86  L 102,86  L 102,85  Z  " style="fill:rgb(0, 0, 0); fill-opacity:1.000; stroke:none;" />
</svg>
