<?xml version="1.0" encoding="UTF-8" standalone="no"?>
<!DOCTYPE svg PUBLIC "-//W3C//DTD SVG 1.1//EN" 
  "http://www.w3.org/Graphics/SVG/1.1/DTD/svg11.dtd">
<svg width="110" height="116"
     xmlns="http://www.w3.org/2000/svg" version="1.1">
 <path d="  M 65,30  L 65,29  L 64,29  L 64,28  L 62,28  L 62,27  L 61,27  L 61,23  L 60,23  L 60,20  L 59,20  L 59,19  L 58,19  L 58,18  L 57,18  L 57,17  L 56,17  L 56,16  L 48,16  L 48,15  L 47,15  L 47,16  L 46,16  L 46,15  L 45,15  L 45,16  L 44,16  L 44,15  L 43,15  L 43,16  L 40,16  L 40,15  L 39,15  L 39,16  L 36,16  L 36,17  L 31,17  L 31,18  L 28,18  L 28,19  L 25,19  L 25,20  L 24,20  L 24,19  L 23,19  L 23,20  L 22,20  L 22,21  L 19,21  L 19,22  L 17,22  L 17,23  L 14,23  L 14,24  L 12,24  L 12,25  L 9,25  L 9,26  L 8,26  L 8,25  L 7,25  L 7,26  L 6,26  L 6,27  L 4,27  L 4,28  L 2,28  L 2,29  L 1,29  L 1,32  L 0,32  L 0,33  L 1,33  L 1,34  L 2,34  L 2,33  L 4,33  L 4,32  L 8,32  L 8,31  L 12,31  L 12,30  L 16,30  L 16,29  L 18,29  L 18,28  L 23,28  L 23,27  L 26,27  L 26,26  L 27,26  L 27,25  L 30,25  L 30,24  L 35,24  L 35,23  L 43,23  L 43,22  L 44,22  L 44,23  L 50,23  L 50,24  L 52,24  L 52,27  L 51,27  L 51,28  L 50,28  L 50,30  L 49,30  L 49,31  L 48,31  L 48,32  L 47,32  L 47,33  L 46,33  L 46,34  L 45,34  L 45,36  L 44,36  L 44,37  L 43,37  L 43,38  L 42,38  L 42,39  L 41,39  L 41,40  L 40,40  L 40,42  L 39,42  L 39,43  L 38,43  L 38,44  L 37,44  L 37,46  L 36,46  L 36,48  L 35,48  L 35,49  L 34,49  L 34,51  L 33,51  L 33,52  L 32,52  L 32,54  L 31,54  L 31,55  L 30,55  L 30,57  L 29,57  L 29,59  L 28,59  L 28,61  L 27,61  L 27,62  L 26,62  L 26,64  L 25,64  L 25,66  L 24,66  L 24,67  L 23,67  L 23,68  L 22,68  L 22,70  L 21,70  L 21,71  L 20,71  L 20,73  L 19,73  L 19,74  L 18,74  L 18,76  L 17,76  L 17,77  L 16,77  L 16,79  L 15,79  L 15,80  L 14,80  L 14,82  L 13,82  L 13,83  L 12,83  L 12,84  L 11,84  L 11,85  L 10,85  L 10,87  L 9,87  L 9,88  L 8,88  L 8,90  L 7,90  L 7,92  L 6,92  L 6,93  L 7,93  L 7,96  L 8,96  L 8,97  L 9,97  L 9,98  L 11,98  L 11,97  L 13,97  L 13,94  L 14,94  L 14,93  L 15,93  L 15,91  L 16,91  L 16,89  L 17,89  L 17,88  L 18,88  L 18,86  L 19,86  L 19,85  L 20,85  L 20,83  L 21,83  L 21,82  L 22,82  L 22,81  L 23,81  L 23,79  L 24,79  L 24,78  L 25,78  L 25,77  L 26,77  L 26,75  L 27,75  L 27,73  L 28,73  L 28,72  L 29,72  L 29,70  L 30,70  L 30,68  L 31,68  L 31,67  L 32,67  L 32,66  L 33,66  L 33,64  L 34,64  L 34,62  L 35,62  L 35,61  L 36,61  L 36,59  L 37,59  L 37,58  L 38,58  L 38,55  L 39,55  L 39,54  L 40,54  L 40,53  L 42,53  L 42,54  L 43,54  L 43,56  L 44,56  L 44,57  L 45,57  L 45,58  L 46,58  L 46,59  L 47,59  L 47,60  L 48,60  L 48,61  L 49,61  L 49,63  L 50,63  L 50,64  L 52,64  L 52,66  L 53,66  L 53,67  L 54,67  L 54,70  L 56,70  L 56,71  L 57,71  L 57,72  L 58,72  L 58,73  L 59,73  L 59,74  L 60,74  L 60,75  L 61,75  L 61,76  L 62,76  L 62,78  L 64,78  L 64,79  L 65,79  L 65,80  L 66,80  L 66,83  L 68,83  L 68,85  L 69,85  L 69,87  L 71,87  L 71,88  L 74,88  L 74,86  L 75,86  L 75,82  L 74,82  L 74,79  L 72,79  L 72,77  L 70,77  L 70,75  L 69,75  L 69,74  L 68,74  L 68,73  L 67,73  L 67,72  L 66,72  L 66,71  L 65,71  L 65,70  L 63,70  L 63,68  L 62,68  L 62,67  L 61,67  L 61,66  L 60,66  L 60,65  L 59,65  L 59,64  L 58,64  L 58,63  L 57,63  L 57,61  L 56,61  L 56,60  L 55,60  L 55,58  L 54,58  L 54,57  L 53,57  L 53,55  L 51,55  L 51,53  L 50,53  L 50,52  L 49,52  L 49,50  L 48,50  L 48,48  L 47,48  L 47,47  L 46,47  L 46,46  L 47,46  L 47,44  L 48,44  L 48,43  L 49,43  L 49,41  L 50,41  L 50,40  L 51,40  L 51,39  L 52,39  L 52,38  L 53,38  L 53,36  L 54,36  L 54,35  L 55,35  L 55,34  L 56,34  L 56,33  L 58,33  L 58,31  L 60,31  L 60,30  L 61,30  L 61,32  L 62,32  L 62,33  L 63,33  L 63,37  L 64,37  L 64,38  L 65,38  L 65,39  L 67,39  L 67,38  L 76,38  L 76,37  L 88,37  L 88,36  L 95,36  L 95,35  L 101,35  L 101,34  L 104,34  L 104,57  L 103,57  L 103,59  L 95,59  L 95,60  L 91,60  L 91,61  L 90,61  L 90,60  L 89,60  L 89,61  L 77,61  L 77,62  L 76,62  L 76,61  L 75,61  L 75,62  L 73,62  L 73,67  L 74,67  L 74,68  L 79,68  L 79,67  L 82,67  L 82,68  L 83,68  L 83,67  L 92,67  L 92,66  L 102,66  L 102,65  L 103,65  L 103,69  L 104,69  L 104,116  L 110,116  L 110,11  L 109,11  L 109,8  L 110,8  L 110,7  L 109,7  L 109,2  L 108,2  L 108,1  L 107,1  L 107,0  L 104,0  L 104,1  L 103,1  L 103,3  L 102,3  L 102,8  L 103,8  L 103,14  L 104,14  L 104,28  L 103,28  L 103,29  L 102,29  L 102,28  L 101,28  L 101,29  L 97,29  L 97,30  L 96,30  L 96,29  L 95,29  L 95,30  L 90,30  L 90,31  L 85,31  L 85,32  L 84,32  L 84,31  L 83,31  L 83,32  L 80,32  L 80,31  L 79,31  L 79,32  L 76,32  L 76,31  L 75,31  L 75,32  L 74,32  L 74,31  L 71,31  L 71,30  Z  " style="fill:rgb(0, 0, 0); fill-opacity:1.000; stroke:none;" />
</svg>
