<?xml version="1.0" encoding="UTF-8" standalone="no"?>
<!DOCTYPE svg PUBLIC "-//W3C//DTD SVG 1.1//EN" 
  "http://www.w3.org/Graphics/SVG/1.1/DTD/svg11.dtd">
<svg width="103" height="150"
     xmlns="http://www.w3.org/2000/svg" version="1.1">
 <path d="  M 50,59  L 50,57  L 49,57  L 49,56  L 48,56  L 48,54  L 47,54  L 47,53  L 46,53  L 46,52  L 45,52  L 45,51  L 44,51  L 44,50  L 43,50  L 43,49  L 42,49  L 42,48  L 41,48  L 41,47  L 40,47  L 40,46  L 39,46  L 39,44  L 37,44  L 37,42  L 34,42  L 34,37  L 35,37  L 35,35  L 36,35  L 36,33  L 37,33  L 37,32  L 38,32  L 38,29  L 39,29  L 39,27  L 40,27  L 40,26  L 41,26  L 41,25  L 42,25  L 42,23  L 43,23  L 43,21  L 44,21  L 44,18  L 45,18  L 45,16  L 44,16  L 44,14  L 43,14  L 43,12  L 42,12  L 42,11  L 41,11  L 41,9  L 40,9  L 40,8  L 39,8  L 39,7  L 36,7  L 36,6  L 35,6  L 35,7  L 31,7  L 31,8  L 27,8  L 27,9  L 17,9  L 17,10  L 10,10  L 10,11  L 6,11  L 6,12  L 2,12  L 2,15  L 1,15  L 1,19  L 3,19  L 3,20  L 5,20  L 5,19  L 7,19  L 7,18  L 9,18  L 9,17  L 11,17  L 11,16  L 24,16  L 24,15  L 25,15  L 25,16  L 27,16  L 27,15  L 37,15  L 37,21  L 36,21  L 36,22  L 35,22  L 35,23  L 34,23  L 34,25  L 32,25  L 32,27  L 31,27  L 31,29  L 30,29  L 30,30  L 29,30  L 29,33  L 28,33  L 28,35  L 27,35  L 27,37  L 26,37  L 26,38  L 25,38  L 25,40  L 24,40  L 24,42  L 23,42  L 23,43  L 22,43  L 22,45  L 21,45  L 21,47  L 20,47  L 20,48  L 19,48  L 19,49  L 18,49  L 18,50  L 17,50  L 17,52  L 16,52  L 16,53  L 15,53  L 15,54  L 14,54  L 14,55  L 13,55  L 13,57  L 12,57  L 12,58  L 11,58  L 11,59  L 10,59  L 10,60  L 9,60  L 9,61  L 8,61  L 8,62  L 7,62  L 7,63  L 6,63  L 6,64  L 5,64  L 5,65  L 4,65  L 4,66  L 3,66  L 3,67  L 2,67  L 2,68  L 1,68  L 1,69  L 0,69  L 0,73  L 1,73  L 1,74  L 6,74  L 6,73  L 8,73  L 8,72  L 9,72  L 9,71  L 10,71  L 10,70  L 11,70  L 11,69  L 12,69  L 12,68  L 13,68  L 13,67  L 14,67  L 14,66  L 15,66  L 15,65  L 16,65  L 16,64  L 17,64  L 17,63  L 18,63  L 18,62  L 19,62  L 19,61  L 20,61  L 20,60  L 21,60  L 21,58  L 22,58  L 22,57  L 23,57  L 23,56  L 24,56  L 24,54  L 25,54  L 25,52  L 27,52  L 27,51  L 28,51  L 28,50  L 30,50  L 30,51  L 31,51  L 31,50  L 32,50  L 32,51  L 33,51  L 33,52  L 34,52  L 34,53  L 35,53  L 35,54  L 36,54  L 36,55  L 37,55  L 37,56  L 39,56  L 39,57  L 40,57  L 40,58  L 41,58  L 41,59  L 42,59  L 42,60  L 43,60  L 43,62  L 45,62  L 45,63  L 46,63  L 46,64  L 47,64  L 47,66  L 48,66  L 48,67  L 49,67  L 49,68  L 50,68  L 50,69  L 51,69  L 51,70  L 52,70  L 52,71  L 54,71  L 54,72  L 55,72  L 55,73  L 56,73  L 56,74  L 57,74  L 57,75  L 61,75  L 61,74  L 63,74  L 63,71  L 62,71  L 62,69  L 61,69  L 61,68  L 59,68  L 59,67  L 58,67  L 58,66  L 57,66  L 57,65  L 56,65  L 56,64  L 55,64  L 55,63  L 54,63  L 54,62  L 53,62  L 53,61  L 52,61  L 52,60  L 51,60  L 51,59  Z  " style="fill:rgb(0, 0, 0); fill-opacity:1.000; stroke:none;" />
 <path d="  M 26,132  L 27,132  L 27,144  L 28,144  L 28,146  L 29,146  L 29,148  L 30,148  L 30,149  L 33,149  L 33,150  L 59,150  L 59,149  L 61,149  L 61,150  L 62,150  L 62,149  L 68,149  L 68,148  L 76,148  L 76,147  L 77,147  L 77,148  L 78,148  L 78,147  L 86,147  L 86,146  L 95,146  L 95,145  L 100,145  L 100,144  L 102,144  L 102,143  L 103,143  L 103,138  L 102,138  L 102,137  L 99,137  L 99,138  L 95,138  L 95,139  L 89,139  L 89,140  L 88,140  L 88,139  L 87,139  L 87,140  L 80,140  L 80,141  L 73,141  L 73,142  L 72,142  L 72,141  L 71,141  L 71,142  L 64,142  L 64,143  L 55,143  L 55,144  L 52,144  L 52,143  L 51,143  L 51,144  L 38,144  L 38,145  L 37,145  L 37,144  L 36,144  L 36,143  L 35,143  L 35,142  L 36,142  L 36,141  L 35,141  L 35,139  L 34,139  L 34,96  L 33,96  L 33,95  L 32,95  L 32,96  L 28,96  L 28,98  L 27,98  L 27,111  L 26,111  L 26,112  L 27,112  L 27,113  L 26,113  Z  " style="fill:rgb(0, 0, 0); fill-opacity:1.000; stroke:none;" />
 <path d="  M 87,89  L 88,89  L 88,91  L 91,91  L 91,90  L 92,90  L 92,91  L 93,91  L 93,89  L 94,89  L 94,51  L 93,51  L 93,50  L 94,50  L 94,47  L 93,47  L 93,45  L 94,45  L 94,43  L 93,43  L 93,42  L 94,42  L 94,41  L 93,41  L 93,40  L 94,40  L 94,39  L 93,39  L 93,36  L 94,36  L 94,35  L 93,35  L 93,32  L 94,32  L 94,31  L 93,31  L 93,28  L 94,28  L 94,27  L 93,27  L 93,24  L 92,24  L 92,18  L 91,18  L 91,13  L 90,13  L 90,7  L 89,7  L 89,2  L 88,2  L 88,1  L 87,1  L 87,0  L 84,0  L 84,1  L 83,1  L 83,3  L 82,3  L 82,8  L 83,8  L 83,14  L 84,14  L 84,18  L 85,18  L 85,22  L 79,22  L 79,23  L 74,23  L 74,24  L 72,24  L 72,23  L 71,23  L 71,24  L 65,24  L 65,25  L 64,25  L 64,24  L 63,24  L 63,25  L 62,25  L 62,26  L 60,26  L 60,27  L 58,27  L 58,30  L 57,30  L 57,31  L 58,31  L 58,33  L 62,33  L 62,32  L 65,32  L 65,31  L 68,31  L 68,30  L 69,30  L 69,31  L 70,31  L 70,30  L 78,30  L 78,29  L 84,29  L 84,28  L 86,28  L 86,32  L 87,32  L 87,34  L 86,34  L 86,41  L 87,41  L 87,42  L 86,42  L 86,46  L 85,46  L 85,47  L 81,47  L 81,48  L 77,48  L 77,49  L 72,49  L 72,50  L 65,50  L 65,51  L 62,51  L 62,52  L 60,52  L 60,54  L 59,54  L 59,56  L 60,56  L 60,57  L 64,57  L 64,56  L 72,56  L 72,55  L 80,55  L 80,54  L 83,54  L 83,53  L 84,53  L 84,54  L 85,54  L 85,53  L 86,53  L 86,55  L 87,55  Z  " style="fill:rgb(0, 0, 0); fill-opacity:1.000; stroke:none;" />
</svg>
