<?xml version="1.0" encoding="UTF-8" standalone="no"?>
<!DOCTYPE svg PUBLIC "-//W3C//DTD SVG 1.1//EN" 
  "http://www.w3.org/Graphics/SVG/1.1/DTD/svg11.dtd">
<svg width="104" height="174"
     xmlns="http://www.w3.org/2000/svg" version="1.1">
 <path d="  M 42,68  L 43,68  L 43,69  L 45,69  L 45,70  L 46,70  L 46,71  L 47,71  L 47,72  L 48,72  L 48,73  L 50,73  L 50,74  L 51,74  L 51,75  L 52,75  L 52,76  L 53,76  L 53,77  L 54,77  L 54,78  L 55,78  L 55,79  L 56,79  L 56,81  L 58,81  L 58,82  L 59,82  L 59,84  L 60,84  L 60,85  L 61,85  L 61,86  L 62,86  L 62,85  L 63,85  L 63,84  L 64,84  L 64,83  L 65,83  L 65,82  L 64,82  L 64,77  L 63,77  L 63,75  L 62,75  L 62,73  L 60,73  L 60,72  L 59,72  L 59,71  L 58,71  L 58,70  L 57,70  L 57,69  L 55,69  L 55,68  L 54,68  L 54,67  L 52,67  L 52,66  L 51,66  L 51,65  L 50,65  L 50,64  L 49,64  L 49,63  L 47,63  L 47,62  L 46,62  L 46,61  L 45,61  L 45,60  L 44,60  L 44,59  L 43,59  L 43,58  L 42,58  L 42,57  L 41,57  L 41,56  L 40,56  L 40,55  L 39,55  L 39,53  L 38,53  L 38,52  L 37,52  L 37,51  L 31,51  L 31,49  L 32,49  L 32,46  L 33,46  L 33,44  L 34,44  L 34,43  L 35,43  L 35,41  L 36,41  L 36,40  L 37,40  L 37,39  L 38,39  L 38,38  L 39,38  L 39,36  L 40,36  L 40,35  L 41,35  L 41,34  L 42,34  L 42,31  L 43,31  L 43,29  L 44,29  L 44,28  L 45,28  L 45,27  L 46,27  L 46,24  L 47,24  L 47,17  L 46,17  L 46,13  L 45,13  L 45,10  L 44,10  L 44,8  L 42,8  L 42,7  L 40,7  L 40,8  L 39,8  L 39,7  L 38,7  L 38,8  L 27,8  L 27,9  L 26,9  L 26,8  L 25,8  L 25,9  L 22,9  L 22,8  L 21,8  L 21,9  L 15,9  L 15,10  L 11,10  L 11,11  L 8,11  L 8,12  L 5,12  L 5,13  L 3,13  L 3,14  L 2,14  L 2,15  L 1,15  L 1,16  L 2,16  L 2,17  L 1,17  L 1,20  L 2,20  L 2,22  L 6,22  L 6,21  L 7,21  L 7,20  L 8,20  L 8,19  L 10,19  L 10,18  L 12,18  L 12,17  L 13,17  L 13,18  L 14,18  L 14,17  L 23,17  L 23,16  L 40,16  L 40,20  L 39,20  L 39,22  L 38,22  L 38,24  L 37,24  L 37,26  L 36,26  L 36,27  L 35,27  L 35,29  L 34,29  L 34,31  L 33,31  L 33,32  L 32,32  L 32,33  L 31,33  L 31,35  L 30,35  L 30,37  L 29,37  L 29,38  L 28,38  L 28,40  L 27,40  L 27,41  L 26,41  L 26,43  L 24,43  L 24,46  L 23,46  L 23,47  L 22,47  L 22,50  L 21,50  L 21,51  L 20,51  L 20,53  L 19,53  L 19,54  L 18,54  L 18,56  L 17,56  L 17,57  L 16,57  L 16,59  L 15,59  L 15,60  L 14,60  L 14,61  L 13,61  L 13,63  L 12,63  L 12,65  L 11,65  L 11,66  L 10,66  L 10,67  L 9,67  L 9,68  L 8,68  L 8,69  L 7,69  L 7,70  L 6,70  L 6,71  L 5,71  L 5,72  L 4,72  L 4,73  L 2,73  L 2,74  L 1,74  L 1,75  L 0,75  L 0,79  L 1,79  L 1,81  L 3,81  L 3,82  L 6,82  L 6,81  L 7,81  L 7,80  L 8,80  L 8,79  L 10,79  L 10,77  L 12,77  L 12,75  L 13,75  L 13,74  L 14,74  L 14,73  L 15,73  L 15,72  L 16,72  L 16,71  L 17,71  L 17,70  L 18,70  L 18,69  L 19,69  L 19,68  L 20,68  L 20,66  L 21,66  L 21,65  L 22,65  L 22,63  L 23,63  L 23,61  L 24,61  L 24,60  L 25,60  L 25,58  L 30,58  L 30,59  L 31,59  L 31,60  L 33,60  L 33,61  L 34,61  L 34,62  L 36,62  L 36,64  L 37,64  L 37,65  L 39,65  L 39,66  L 40,66  L 40,67  L 42,67  Z  " style="fill:rgb(0, 0, 0); fill-opacity:1.000; stroke:none;" />
 <path d="  M 48,168  L 48,167  L 44,167  L 44,166  L 42,166  L 42,165  L 40,165  L 40,163  L 39,163  L 39,153  L 40,153  L 40,151  L 42,151  L 42,150  L 44,150  L 44,149  L 46,149  L 46,148  L 48,148  L 48,147  L 53,147  L 53,146  L 56,146  L 56,145  L 59,145  L 59,144  L 62,144  L 62,143  L 67,143  L 67,142  L 69,142  L 69,141  L 71,141  L 71,140  L 73,140  L 73,139  L 75,139  L 75,138  L 76,138  L 76,137  L 79,137  L 79,136  L 80,136  L 80,135  L 82,135  L 82,134  L 84,134  L 84,132  L 86,132  L 86,131  L 87,131  L 87,129  L 88,129  L 88,128  L 89,128  L 89,126  L 90,126  L 90,121  L 89,121  L 89,120  L 87,120  L 87,117  L 86,117  L 86,116  L 85,116  L 85,115  L 84,115  L 84,113  L 83,113  L 83,112  L 81,112  L 81,111  L 79,111  L 79,110  L 77,110  L 77,109  L 73,109  L 73,108  L 72,108  L 72,107  L 68,107  L 68,106  L 64,106  L 64,105  L 63,105  L 63,106  L 62,106  L 62,105  L 46,105  L 46,106  L 44,106  L 44,105  L 43,105  L 43,106  L 40,106  L 40,107  L 37,107  L 37,109  L 36,109  L 36,111  L 37,111  L 37,112  L 38,112  L 38,114  L 39,114  L 39,113  L 41,113  L 41,114  L 42,114  L 42,113  L 46,113  L 46,112  L 65,112  L 65,113  L 69,113  L 69,114  L 72,114  L 72,115  L 73,115  L 73,116  L 75,116  L 75,118  L 77,118  L 77,119  L 78,119  L 78,120  L 79,120  L 79,121  L 80,121  L 80,122  L 81,122  L 81,123  L 80,123  L 80,127  L 79,127  L 79,128  L 78,128  L 78,129  L 77,129  L 77,130  L 75,130  L 75,131  L 73,131  L 73,132  L 71,132  L 71,133  L 67,133  L 67,134  L 65,134  L 65,135  L 62,135  L 62,136  L 60,136  L 60,137  L 55,137  L 55,139  L 50,139  L 50,140  L 47,140  L 47,141  L 43,141  L 43,142  L 42,142  L 42,143  L 39,143  L 39,144  L 38,144  L 38,145  L 37,145  L 37,146  L 35,146  L 35,147  L 34,147  L 34,148  L 33,148  L 33,150  L 32,150  L 32,151  L 31,151  L 31,160  L 32,160  L 32,167  L 33,167  L 33,168  L 34,168  L 34,170  L 35,170  L 35,171  L 37,171  L 37,172  L 38,172  L 38,173  L 42,173  L 42,174  L 73,174  L 73,173  L 76,173  L 76,172  L 79,172  L 79,171  L 83,171  L 83,170  L 87,170  L 87,169  L 88,169  L 88,168  L 91,168  L 91,167  L 94,167  L 94,166  L 95,166  L 95,165  L 96,165  L 96,164  L 97,164  L 97,163  L 98,163  L 98,162  L 99,162  L 99,157  L 96,157  L 96,158  L 95,158  L 95,159  L 93,159  L 93,160  L 90,160  L 90,161  L 87,161  L 87,162  L 84,162  L 84,163  L 82,163  L 82,164  L 79,164  L 79,165  L 75,165  L 75,166  L 74,166  L 74,165  L 73,165  L 73,166  L 72,166  L 72,165  L 71,165  L 71,166  L 67,166  L 67,167  L 58,167  L 58,168  L 56,168  L 56,167  L 54,167  L 54,168  L 52,168  L 52,167  L 50,167  L 50,168  Z  " style="fill:rgb(0, 0, 0); fill-opacity:1.000; stroke:none;" />
 <path d="  M 67,24  L 67,25  L 66,25  L 66,26  L 63,26  L 63,27  L 62,27  L 62,30  L 61,30  L 61,31  L 60,31  L 60,34  L 65,34  L 65,33  L 69,33  L 69,32  L 86,32  L 86,31  L 87,31  L 87,32  L 88,32  L 88,31  L 89,31  L 89,32  L 92,32  L 92,31  L 95,31  L 95,32  L 97,32  L 97,44  L 96,44  L 96,47  L 95,47  L 95,48  L 92,48  L 92,47  L 91,47  L 91,48  L 87,48  L 87,49  L 86,49  L 86,48  L 85,48  L 85,49  L 81,49  L 81,50  L 79,50  L 79,49  L 78,49  L 78,50  L 75,50  L 75,51  L 70,51  L 70,52  L 69,52  L 69,51  L 68,51  L 68,52  L 63,52  L 63,53  L 61,53  L 61,54  L 59,54  L 59,58  L 63,58  L 63,57  L 76,57  L 76,56  L 84,56  L 84,55  L 94,55  L 94,54  L 95,54  L 95,56  L 96,56  L 96,100  L 97,100  L 97,102  L 98,102  L 98,103  L 100,103  L 100,102  L 102,102  L 102,101  L 103,101  L 103,99  L 104,99  L 104,2  L 103,2  L 103,1  L 100,1  L 100,0  L 99,0  L 99,1  L 97,1  L 97,3  L 96,3  L 96,7  L 97,7  L 97,23  L 93,23  L 93,24  Z  " style="fill:rgb(0, 0, 0); fill-opacity:1.000; stroke:none;" />
</svg>
