<?xml version="1.0" encoding="UTF-8" standalone="no"?>
<!DOCTYPE svg PUBLIC "-//W3C//DTD SVG 1.1//EN" 
  "http://www.w3.org/Graphics/SVG/1.1/DTD/svg11.dtd">
<svg width="106" height="112"
     xmlns="http://www.w3.org/2000/svg" version="1.1">
 <path d="  M 67,110  L 67,111  L 68,111  L 68,110  L 71,110  L 71,111  L 72,111  L 72,110  L 84,110  L 84,109  L 94,109  L 94,108  L 103,108  L 103,107  L 104,107  L 104,106  L 106,106  L 106,101  L 104,101  L 104,100  L 101,100  L 101,101  L 95,101  L 95,102  L 88,102  L 88,103  L 79,103  L 79,104  L 58,104  L 58,103  L 57,103  L 57,100  L 56,100  L 56,94  L 57,94  L 57,93  L 56,93  L 56,92  L 57,92  L 57,91  L 56,91  L 56,90  L 57,90  L 57,89  L 56,89  L 56,88  L 57,88  L 57,87  L 56,87  L 56,86  L 57,86  L 57,57  L 50,57  L 50,58  L 49,58  L 49,60  L 50,60  L 50,61  L 49,61  L 49,62  L 50,62  L 50,63  L 49,63  L 49,65  L 50,65  L 50,67  L 49,67  L 49,68  L 50,68  L 50,71  L 49,71  L 49,73  L 50,73  L 50,75  L 49,75  L 49,103  L 48,103  L 48,104  L 36,104  L 36,105  L 35,105  L 35,104  L 34,104  L 34,105  L 33,105  L 33,104  L 32,104  L 32,105  L 15,105  L 15,106  L 12,106  L 12,105  L 11,105  L 11,106  L 8,106  L 8,105  L 7,105  L 7,106  L 2,106  L 2,107  L 1,107  L 1,109  L 0,109  L 0,111  L 1,111  L 1,112  L 22,112  L 22,111  L 36,111  L 36,110  L 39,110  L 39,111  L 40,111  L 40,110  Z  " style="fill:rgb(0, 0, 0); fill-opacity:1.000; stroke:none;" />
 <path d="  M 15,68  L 15,67  L 17,67  L 17,66  L 19,66  L 19,65  L 20,65  L 20,64  L 21,64  L 21,63  L 22,63  L 22,62  L 23,62  L 23,60  L 24,60  L 24,59  L 25,59  L 25,58  L 26,58  L 26,57  L 27,57  L 27,56  L 28,56  L 28,54  L 30,54  L 30,52  L 32,52  L 32,50  L 34,50  L 34,48  L 35,48  L 35,47  L 36,47  L 36,46  L 37,46  L 37,45  L 38,45  L 38,43  L 40,43  L 40,41  L 41,41  L 41,40  L 42,40  L 42,39  L 44,39  L 44,37  L 45,37  L 45,36  L 46,36  L 46,35  L 47,35  L 47,34  L 48,34  L 48,33  L 49,33  L 49,32  L 50,32  L 50,31  L 51,31  L 51,32  L 54,32  L 54,33  L 55,33  L 55,34  L 57,34  L 57,35  L 59,35  L 59,36  L 64,36  L 64,37  L 68,37  L 68,38  L 69,38  L 69,39  L 73,39  L 73,40  L 76,40  L 76,41  L 79,41  L 79,42  L 81,42  L 81,43  L 83,43  L 83,44  L 85,44  L 85,45  L 87,45  L 87,46  L 88,46  L 88,47  L 91,47  L 91,48  L 94,48  L 94,49  L 95,49  L 95,48  L 96,48  L 96,49  L 98,49  L 98,48  L 99,48  L 99,44  L 98,44  L 98,43  L 97,43  L 97,42  L 94,42  L 94,41  L 92,41  L 92,40  L 91,40  L 91,39  L 88,39  L 88,38  L 86,38  L 86,37  L 84,37  L 84,36  L 83,36  L 83,35  L 80,35  L 80,34  L 77,34  L 77,33  L 72,33  L 72,32  L 69,32  L 69,31  L 66,31  L 66,30  L 64,30  L 64,29  L 62,29  L 62,28  L 60,28  L 60,27  L 58,27  L 58,24  L 59,24  L 59,23  L 60,23  L 60,22  L 61,22  L 61,21  L 62,21  L 62,20  L 63,20  L 63,19  L 65,19  L 65,18  L 66,18  L 66,16  L 67,16  L 67,13  L 68,13  L 68,12  L 69,12  L 69,11  L 68,11  L 68,7  L 67,7  L 67,5  L 66,5  L 66,4  L 65,4  L 65,3  L 64,3  L 64,2  L 63,2  L 63,1  L 55,1  L 55,2  L 52,2  L 52,1  L 51,1  L 51,2  L 48,2  L 48,1  L 47,1  L 47,2  L 41,2  L 41,3  L 29,3  L 29,4  L 23,4  L 23,5  L 21,5  L 21,6  L 20,6  L 20,7  L 19,7  L 19,8  L 18,8  L 18,10  L 17,10  L 17,12  L 18,12  L 18,13  L 19,13  L 19,14  L 20,14  L 20,13  L 24,13  L 24,12  L 25,12  L 25,11  L 28,11  L 28,10  L 35,10  L 35,9  L 52,9  L 52,8  L 53,8  L 53,9  L 54,9  L 54,8  L 61,8  L 61,9  L 62,9  L 62,11  L 61,11  L 61,13  L 60,13  L 60,14  L 59,14  L 59,15  L 58,15  L 58,16  L 56,16  L 56,17  L 54,17  L 54,19  L 52,19  L 52,20  L 51,20  L 51,21  L 50,21  L 50,22  L 49,22  L 49,23  L 48,23  L 48,24  L 46,24  L 46,25  L 45,25  L 45,27  L 44,27  L 44,28  L 43,28  L 43,29  L 42,29  L 42,30  L 41,30  L 41,31  L 40,31  L 40,33  L 38,33  L 38,35  L 37,35  L 37,37  L 35,37  L 35,39  L 34,39  L 34,40  L 33,40  L 33,41  L 32,41  L 32,42  L 31,42  L 31,43  L 30,43  L 30,44  L 29,44  L 29,46  L 27,46  L 27,47  L 26,47  L 26,48  L 25,48  L 25,50  L 24,50  L 24,51  L 22,51  L 22,53  L 21,53  L 21,54  L 20,54  L 20,55  L 19,55  L 19,56  L 18,56  L 18,57  L 17,57  L 17,59  L 15,59  L 15,60  L 14,60  L 14,61  L 13,61  L 13,62  L 10,62  L 10,63  L 9,63  L 9,64  L 8,64  L 8,65  L 7,65  L 7,66  L 8,66  L 8,67  L 9,67  L 9,68  Z  " style="fill:rgb(0, 0, 0); fill-opacity:1.000; stroke:none;" />
 <path d="  M 50,33  L 51,33  L 51,32  L 50,32  Z  " style="fill:rgb(0, 0, 0); fill-opacity:1.000; stroke:none;" />
</svg>
