<?xml version="1.0" encoding="UTF-8" standalone="no"?>
<!DOCTYPE svg PUBLIC "-//W3C//DTD SVG 1.1//EN" 
  "http://www.w3.org/Graphics/SVG/1.1/DTD/svg11.dtd">
<svg width="105" height="162"
     xmlns="http://www.w3.org/2000/svg" version="1.1">
 <path d="  M 48,79  L 36,79  L 36,80  L 35,80  L 35,79  L 34,79  L 34,80  L 28,80  L 28,81  L 22,81  L 22,82  L 15,82  L 15,83  L 14,83  L 14,82  L 13,82  L 13,83  L 7,83  L 7,84  L 4,84  L 4,85  L 1,85  L 1,86  L 0,86  L 0,90  L 1,90  L 1,91  L 5,91  L 5,90  L 9,90  L 9,89  L 10,89  L 10,90  L 11,90  L 11,89  L 21,89  L 21,88  L 27,88  L 27,87  L 32,87  L 32,86  L 37,86  L 37,85  L 47,85  L 47,84  L 48,84  L 48,85  L 49,85  L 49,84  L 82,84  L 82,83  L 85,83  L 85,84  L 86,84  L 86,83  L 89,83  L 89,84  L 90,84  L 90,83  L 93,83  L 93,84  L 94,84  L 94,83  L 102,83  L 102,82  L 104,82  L 104,81  L 105,81  L 105,75  L 98,75  L 98,76  L 92,76  L 92,77  L 82,77  L 82,78  L 67,78  L 67,77  L 66,77  L 66,78  L 63,78  L 63,77  L 62,77  L 62,78  L 57,78  L 57,77  L 56,77  L 56,69  L 55,69  L 55,68  L 56,68  L 56,67  L 55,67  L 55,66  L 56,66  L 56,65  L 55,65  L 55,64  L 56,64  L 56,61  L 55,61  L 55,60  L 56,60  L 56,52  L 57,52  L 57,51  L 55,51  L 55,50  L 52,50  L 52,51  L 49,51  L 49,52  L 48,52  Z  " style="fill:rgb(0, 0, 0); fill-opacity:1.000; stroke:none;" />
 <path d="  M 24,4  L 24,5  L 20,5  L 20,6  L 17,6  L 17,7  L 14,7  L 14,8  L 12,8  L 12,9  L 11,9  L 11,14  L 12,14  L 12,15  L 13,15  L 13,16  L 16,16  L 16,15  L 18,15  L 18,14  L 19,14  L 19,13  L 21,13  L 21,12  L 23,12  L 23,11  L 27,11  L 27,10  L 32,10  L 32,9  L 37,9  L 37,8  L 45,8  L 45,7  L 50,7  L 50,8  L 51,8  L 51,7  L 53,7  L 53,8  L 54,8  L 54,12  L 53,12  L 53,14  L 52,14  L 52,15  L 51,15  L 51,16  L 50,16  L 50,18  L 49,18  L 49,20  L 48,20  L 48,21  L 47,21  L 47,23  L 46,23  L 46,24  L 45,24  L 45,25  L 44,25  L 44,27  L 42,27  L 42,29  L 41,29  L 41,30  L 40,30  L 40,31  L 39,31  L 39,33  L 38,33  L 38,34  L 37,34  L 37,36  L 36,36  L 36,37  L 35,37  L 35,38  L 34,38  L 34,39  L 33,39  L 33,40  L 32,40  L 32,41  L 31,41  L 31,42  L 30,42  L 30,43  L 29,43  L 29,44  L 28,44  L 28,45  L 27,45  L 27,46  L 26,46  L 26,47  L 25,47  L 25,49  L 24,49  L 24,50  L 23,50  L 23,51  L 22,51  L 22,52  L 20,52  L 20,53  L 19,53  L 19,54  L 17,54  L 17,55  L 16,55  L 16,56  L 15,56  L 15,57  L 14,57  L 14,56  L 13,56  L 13,57  L 11,57  L 11,59  L 12,59  L 12,60  L 14,60  L 14,62  L 15,62  L 15,61  L 17,61  L 17,62  L 19,62  L 19,61  L 21,61  L 21,60  L 23,60  L 23,59  L 24,59  L 24,58  L 25,58  L 25,57  L 26,57  L 26,56  L 28,56  L 28,55  L 29,55  L 29,54  L 30,54  L 30,53  L 31,53  L 31,51  L 33,51  L 33,50  L 34,50  L 34,49  L 35,49  L 35,47  L 36,47  L 36,46  L 37,46  L 37,45  L 38,45  L 38,44  L 39,44  L 39,43  L 40,43  L 40,42  L 41,42  L 41,41  L 42,41  L 42,40  L 43,40  L 43,38  L 44,38  L 44,36  L 45,36  L 45,35  L 46,35  L 46,34  L 47,34  L 47,32  L 49,32  L 49,31  L 50,31  L 50,30  L 55,30  L 55,31  L 57,31  L 57,32  L 59,32  L 59,33  L 60,33  L 60,34  L 63,34  L 63,35  L 64,35  L 64,36  L 67,36  L 67,37  L 68,37  L 68,38  L 71,38  L 71,39  L 74,39  L 74,40  L 75,40  L 75,41  L 77,41  L 77,42  L 78,42  L 78,43  L 79,43  L 79,45  L 80,45  L 80,46  L 82,46  L 82,47  L 83,47  L 83,49  L 85,49  L 85,48  L 87,48  L 87,46  L 88,46  L 88,45  L 87,45  L 87,41  L 86,41  L 86,40  L 85,40  L 85,38  L 84,38  L 84,37  L 82,37  L 82,36  L 81,36  L 81,34  L 78,34  L 78,33  L 75,33  L 75,32  L 74,32  L 74,31  L 73,31  L 73,32  L 72,32  L 72,31  L 71,31  L 71,30  L 70,30  L 70,29  L 68,29  L 68,28  L 66,28  L 66,27  L 65,27  L 65,26  L 63,26  L 63,25  L 61,25  L 61,23  L 58,23  L 58,20  L 59,20  L 59,18  L 60,18  L 60,16  L 61,16  L 61,13  L 62,13  L 62,7  L 61,7  L 61,5  L 60,5  L 60,4  L 59,4  L 59,2  L 57,2  L 57,1  L 56,1  L 56,0  L 54,0  L 54,1  L 51,1  L 51,0  L 50,0  L 50,1  L 37,1  L 37,2  L 31,2  L 31,3  L 26,3  L 26,4  Z  " style="fill:rgb(0, 0, 0); fill-opacity:1.000; stroke:none;" />
 <path d="  M 33,111  L 33,108  L 34,108  L 34,107  L 51,107  L 51,106  L 59,106  L 59,105  L 71,105  L 71,104  L 72,104  L 72,105  L 73,105  L 73,104  L 80,104  L 80,105  L 81,105  L 81,112  L 80,112  L 80,121  L 79,121  L 79,127  L 78,127  L 78,135  L 77,135  L 77,137  L 76,137  L 76,140  L 75,140  L 75,141  L 74,141  L 74,143  L 73,143  L 73,144  L 72,144  L 72,145  L 71,145  L 71,146  L 69,146  L 69,147  L 67,147  L 67,148  L 64,148  L 64,149  L 61,149  L 61,150  L 59,150  L 59,151  L 58,151  L 58,150  L 57,150  L 57,151  L 54,151  L 54,152  L 52,152  L 52,153  L 49,153  L 49,154  L 48,154  L 48,155  L 41,155  L 41,156  L 39,156  L 39,155  L 35,155  L 35,154  L 34,154  L 34,153  L 33,153  L 33,151  L 32,151  L 32,114  L 33,114  L 33,113  L 32,113  L 32,111  Z  M 86,99  L 84,99  L 84,98  L 80,98  L 80,97  L 74,97  L 74,98  L 67,98  L 67,99  L 54,99  L 54,100  L 39,100  L 39,101  L 38,101  L 38,100  L 32,100  L 32,99  L 26,99  L 26,100  L 24,100  L 24,101  L 23,101  L 23,100  L 22,100  L 22,101  L 19,101  L 19,102  L 18,102  L 18,103  L 17,103  L 17,104  L 16,104  L 16,107  L 17,107  L 17,109  L 23,109  L 23,108  L 24,108  L 24,109  L 25,109  L 25,151  L 26,151  L 26,152  L 27,152  L 27,153  L 28,153  L 28,154  L 29,154  L 29,155  L 30,155  L 30,156  L 31,156  L 31,158  L 32,158  L 32,159  L 33,159  L 33,161  L 34,161  L 34,162  L 45,162  L 45,161  L 48,161  L 48,160  L 50,160  L 50,159  L 51,159  L 51,160  L 52,160  L 52,159  L 55,159  L 55,158  L 58,158  L 58,157  L 61,157  L 61,156  L 62,156  L 62,155  L 65,155  L 65,154  L 68,154  L 68,153  L 69,153  L 69,152  L 72,152  L 72,151  L 74,151  L 74,150  L 77,150  L 77,149  L 78,149  L 78,148  L 79,148  L 79,147  L 80,147  L 80,144  L 81,144  L 81,142  L 82,142  L 82,140  L 83,140  L 83,136  L 84,136  L 84,133  L 85,133  L 85,126  L 86,126  L 86,120  L 87,120  L 87,115  L 88,115  L 88,102  L 87,102  L 87,100  L 86,100  Z  " style="fill:rgb(0, 0, 0); fill-opacity:1.000; stroke:none;" />
</svg>
