<?xml version="1.0" encoding="UTF-8" standalone="no"?>
<!DOCTYPE svg PUBLIC "-//W3C//DTD SVG 1.1//EN" 
  "http://www.w3.org/Graphics/SVG/1.1/DTD/svg11.dtd">
<svg width="109" height="160"
     xmlns="http://www.w3.org/2000/svg" version="1.1">
 <path d="  M 60,65  L 60,62  L 61,62  L 61,61  L 60,61  L 60,60  L 61,60  L 61,53  L 58,53  L 58,52  L 57,52  L 57,53  L 54,53  L 54,54  L 53,54  L 53,83  L 51,83  L 51,84  L 50,84  L 50,83  L 45,83  L 45,84  L 44,84  L 44,83  L 43,83  L 43,84  L 40,84  L 40,83  L 39,83  L 39,84  L 30,84  L 30,85  L 22,85  L 22,86  L 20,86  L 20,85  L 19,85  L 19,86  L 16,86  L 16,85  L 15,85  L 15,86  L 1,86  L 1,88  L 0,88  L 0,89  L 1,89  L 1,90  L 0,90  L 0,91  L 1,91  L 1,92  L 4,92  L 4,93  L 6,93  L 6,94  L 7,94  L 7,93  L 8,93  L 8,94  L 9,94  L 9,93  L 18,93  L 18,92  L 19,92  L 19,93  L 20,93  L 20,92  L 23,92  L 23,93  L 24,93  L 24,92  L 28,92  L 28,91  L 29,91  L 29,92  L 30,92  L 30,91  L 31,91  L 31,92  L 32,92  L 32,91  L 40,91  L 40,90  L 41,90  L 41,91  L 42,91  L 42,90  L 52,90  L 52,89  L 53,89  L 53,90  L 55,90  L 55,89  L 62,89  L 62,88  L 63,88  L 63,89  L 64,89  L 64,88  L 72,88  L 72,87  L 73,87  L 73,88  L 74,88  L 74,87  L 75,87  L 75,88  L 76,88  L 76,87  L 77,87  L 77,88  L 78,88  L 78,87  L 92,87  L 92,86  L 93,86  L 93,87  L 95,87  L 95,86  L 97,86  L 97,87  L 98,87  L 98,86  L 107,86  L 107,85  L 108,85  L 108,84  L 109,84  L 109,79  L 107,79  L 107,78  L 105,78  L 105,79  L 98,79  L 98,80  L 86,80  L 86,81  L 66,81  L 66,82  L 62,82  L 62,81  L 61,81  L 61,71  L 60,71  L 60,70  L 61,70  L 61,69  L 60,69  L 60,68  L 61,68  L 61,67  L 60,67  L 60,66  L 61,66  L 61,65  Z  " style="fill:rgb(0, 0, 0); fill-opacity:1.000; stroke:none;" />
 <path d="  M 63,33  L 63,34  L 64,34  L 64,35  L 67,35  L 67,36  L 68,36  L 68,37  L 69,37  L 69,38  L 71,38  L 71,39  L 72,39  L 72,40  L 74,40  L 74,41  L 76,41  L 76,42  L 77,42  L 77,43  L 78,43  L 78,44  L 80,44  L 80,45  L 81,45  L 81,46  L 82,46  L 82,48  L 84,48  L 84,50  L 87,50  L 87,51  L 89,51  L 89,50  L 90,50  L 90,48  L 89,48  L 89,44  L 88,44  L 88,43  L 87,43  L 87,42  L 86,42  L 86,40  L 85,40  L 85,39  L 84,39  L 84,38  L 83,38  L 83,36  L 81,36  L 81,35  L 78,35  L 78,34  L 77,34  L 77,33  L 76,33  L 76,32  L 74,32  L 74,31  L 72,31  L 72,30  L 71,30  L 71,29  L 70,29  L 70,28  L 67,28  L 67,27  L 66,27  L 66,26  L 65,26  L 65,25  L 63,25  L 63,23  L 62,23  L 62,22  L 63,22  L 63,18  L 64,18  L 64,16  L 65,16  L 65,15  L 66,15  L 66,14  L 67,14  L 67,9  L 66,9  L 66,7  L 65,7  L 65,5  L 64,5  L 64,3  L 63,3  L 63,2  L 62,2  L 62,1  L 46,1  L 46,2  L 45,2  L 45,1  L 43,1  L 43,2  L 37,2  L 37,3  L 31,3  L 31,4  L 27,4  L 27,5  L 25,5  L 25,6  L 23,6  L 23,7  L 21,7  L 21,8  L 19,8  L 19,9  L 18,9  L 18,10  L 17,10  L 17,12  L 18,12  L 18,13  L 17,13  L 17,15  L 18,15  L 18,16  L 19,16  L 19,17  L 21,17  L 21,16  L 22,16  L 22,15  L 23,15  L 23,14  L 24,14  L 24,13  L 27,13  L 27,12  L 29,12  L 29,11  L 31,11  L 31,10  L 36,10  L 36,9  L 45,9  L 45,8  L 47,8  L 47,9  L 48,9  L 48,8  L 58,8  L 58,9  L 60,9  L 60,10  L 59,10  L 59,13  L 58,13  L 58,14  L 57,14  L 57,15  L 56,15  L 56,17  L 55,17  L 55,18  L 54,18  L 54,19  L 53,19  L 53,20  L 52,20  L 52,21  L 51,21  L 51,24  L 50,24  L 50,25  L 49,25  L 49,26  L 48,26  L 48,28  L 47,28  L 47,30  L 46,30  L 46,31  L 45,31  L 45,33  L 44,33  L 44,34  L 43,34  L 43,36  L 42,36  L 42,37  L 41,37  L 41,38  L 40,38  L 40,40  L 39,40  L 39,41  L 38,41  L 38,43  L 37,43  L 37,44  L 36,44  L 36,45  L 35,45  L 35,47  L 34,47  L 34,48  L 33,48  L 33,50  L 32,50  L 32,51  L 31,51  L 31,52  L 30,52  L 30,53  L 29,53  L 29,55  L 27,55  L 27,57  L 25,57  L 25,59  L 23,59  L 23,60  L 22,60  L 22,61  L 21,61  L 21,62  L 20,62  L 20,63  L 19,63  L 19,64  L 20,64  L 20,65  L 19,65  L 19,66  L 20,66  L 20,67  L 22,67  L 22,68  L 23,68  L 23,67  L 24,67  L 24,66  L 26,66  L 26,65  L 27,65  L 27,64  L 28,64  L 28,63  L 30,63  L 30,62  L 31,62  L 31,61  L 32,61  L 32,60  L 33,60  L 33,59  L 34,59  L 34,58  L 35,58  L 35,57  L 36,57  L 36,56  L 37,56  L 37,54  L 38,54  L 38,53  L 39,53  L 39,52  L 40,52  L 40,50  L 41,50  L 41,49  L 42,49  L 42,47  L 43,47  L 43,46  L 44,46  L 44,45  L 45,45  L 45,43  L 46,43  L 46,42  L 47,42  L 47,41  L 48,41  L 48,39  L 49,39  L 49,37  L 50,37  L 50,35  L 51,35  L 51,34  L 52,34  L 52,33  L 53,33  L 53,32  L 54,32  L 54,31  L 55,31  L 55,30  L 57,30  L 57,31  L 59,31  L 59,32  L 61,32  L 61,33  Z  " style="fill:rgb(0, 0, 0); fill-opacity:1.000; stroke:none;" />
 <path d="  M 26,131  L 25,131  L 25,133  L 24,133  L 24,137  L 23,137  L 23,148  L 24,148  L 24,150  L 25,150  L 25,152  L 26,152  L 26,153  L 27,153  L 27,154  L 28,154  L 28,155  L 30,155  L 30,156  L 31,156  L 31,157  L 33,157  L 33,158  L 35,158  L 35,159  L 39,159  L 39,160  L 64,160  L 64,159  L 67,159  L 67,158  L 69,158  L 69,157  L 71,157  L 71,156  L 72,156  L 72,155  L 73,155  L 73,154  L 74,154  L 74,153  L 75,153  L 75,152  L 76,152  L 76,151  L 77,151  L 77,150  L 78,150  L 78,149  L 79,149  L 79,148  L 80,148  L 80,147  L 81,147  L 81,146  L 82,146  L 82,144  L 83,144  L 83,143  L 84,143  L 84,141  L 85,141  L 85,138  L 86,138  L 86,137  L 85,137  L 85,135  L 86,135  L 86,126  L 87,126  L 87,125  L 86,125  L 86,123  L 85,123  L 85,121  L 84,121  L 84,120  L 83,120  L 83,119  L 82,119  L 82,118  L 81,118  L 81,117  L 79,117  L 79,116  L 78,116  L 78,115  L 76,115  L 76,114  L 75,114  L 75,113  L 72,113  L 72,112  L 68,112  L 68,111  L 65,111  L 65,110  L 64,110  L 64,109  L 62,109  L 62,108  L 60,108  L 60,107  L 58,107  L 58,106  L 56,106  L 56,105  L 50,105  L 50,106  L 48,106  L 48,107  L 45,107  L 45,108  L 43,108  L 43,109  L 42,109  L 42,110  L 41,110  L 41,111  L 40,111  L 40,112  L 39,112  L 39,113  L 38,113  L 38,114  L 37,114  L 37,115  L 36,115  L 36,116  L 35,116  L 35,117  L 34,117  L 34,119  L 33,119  L 33,120  L 32,120  L 32,121  L 31,121  L 31,123  L 30,123  L 30,124  L 29,124  L 29,126  L 28,126  L 28,128  L 27,128  L 27,129  L 26,129  Z  M 79,128  L 79,129  L 78,129  L 78,130  L 79,130  L 79,131  L 78,131  L 78,137  L 77,137  L 77,140  L 76,140  L 76,141  L 75,141  L 75,142  L 74,142  L 74,143  L 73,143  L 73,145  L 72,145  L 72,146  L 71,146  L 71,147  L 70,147  L 70,148  L 69,148  L 69,149  L 67,149  L 67,150  L 66,150  L 66,151  L 63,151  L 63,152  L 60,152  L 60,153  L 54,153  L 54,154  L 53,154  L 53,153  L 43,153  L 43,152  L 36,152  L 36,151  L 34,151  L 34,150  L 33,150  L 33,149  L 32,149  L 32,146  L 31,146  L 31,143  L 30,143  L 30,142  L 31,142  L 31,138  L 32,138  L 32,135  L 33,135  L 33,134  L 34,134  L 34,132  L 35,132  L 35,129  L 36,129  L 36,127  L 37,127  L 37,126  L 38,126  L 38,124  L 39,124  L 39,123  L 40,123  L 40,121  L 41,121  L 41,120  L 43,120  L 43,119  L 44,119  L 44,118  L 45,118  L 45,117  L 47,117  L 47,116  L 48,116  L 48,115  L 59,115  L 59,116  L 63,116  L 63,117  L 66,117  L 66,118  L 69,118  L 69,119  L 71,119  L 71,120  L 73,120  L 73,121  L 74,121  L 74,122  L 75,122  L 75,123  L 77,123  L 77,124  L 78,124  L 78,128  Z  " style="fill:rgb(0, 0, 0); fill-opacity:1.000; stroke:none;" />
</svg>
