<?xml version="1.0" encoding="UTF-8" standalone="no"?>
<!DOCTYPE svg PUBLIC "-//W3C//DTD SVG 1.1//EN" 
  "http://www.w3.org/Graphics/SVG/1.1/DTD/svg11.dtd">
<svg width="112" height="166"
     xmlns="http://www.w3.org/2000/svg" version="1.1">
 <path d="  M 1,82  L 1,81  L 0,81  L 0,82  Z  " style="fill:rgb(0, 0, 0); fill-opacity:1.000; stroke:none;" />
 <path d="  M 60,53  L 59,53  L 59,52  L 58,52  L 58,51  L 54,51  L 54,52  L 52,52  L 52,55  L 51,55  L 51,56  L 52,56  L 52,65  L 53,65  L 53,67  L 52,67  L 52,68  L 53,68  L 53,78  L 35,78  L 35,79  L 26,79  L 26,80  L 25,80  L 25,79  L 24,79  L 24,80  L 21,80  L 21,79  L 20,79  L 20,80  L 14,80  L 14,81  L 2,81  L 2,82  L 1,82  L 1,83  L 0,83  L 0,84  L 1,84  L 1,85  L 2,85  L 2,86  L 3,86  L 3,87  L 4,87  L 4,88  L 26,88  L 26,87  L 27,87  L 27,88  L 28,88  L 28,87  L 31,87  L 31,88  L 32,88  L 32,87  L 37,87  L 37,86  L 51,86  L 51,85  L 52,85  L 52,86  L 53,86  L 53,85  L 54,85  L 54,86  L 55,86  L 55,85  L 56,85  L 56,86  L 57,86  L 57,85  L 58,85  L 58,86  L 59,86  L 59,85  L 63,85  L 63,84  L 68,84  L 68,83  L 71,83  L 71,84  L 72,84  L 72,83  L 78,83  L 78,82  L 80,82  L 80,83  L 81,83  L 81,82  L 95,82  L 95,81  L 96,81  L 96,82  L 97,82  L 97,81  L 98,81  L 98,82  L 99,82  L 99,81  L 100,81  L 100,82  L 101,82  L 101,81  L 103,81  L 103,80  L 105,80  L 105,78  L 106,78  L 106,76  L 107,76  L 107,75  L 106,75  L 106,74  L 104,74  L 104,73  L 100,73  L 100,74  L 86,74  L 86,75  L 85,75  L 85,74  L 84,74  L 84,75  L 65,75  L 65,76  L 64,76  L 64,77  L 61,77  L 61,75  L 60,75  Z  " style="fill:rgb(0, 0, 0); fill-opacity:1.000; stroke:none;" />
 <path d="  M 62,33  L 64,33  L 64,34  L 67,34  L 67,35  L 69,35  L 69,36  L 70,36  L 70,37  L 72,37  L 72,38  L 74,38  L 74,39  L 77,39  L 77,40  L 78,40  L 78,41  L 79,41  L 79,40  L 80,40  L 80,41  L 81,41  L 81,42  L 83,42  L 83,43  L 84,43  L 84,44  L 85,44  L 85,45  L 86,45  L 86,46  L 88,46  L 88,47  L 89,47  L 89,48  L 94,48  L 94,44  L 95,44  L 95,43  L 94,43  L 94,41  L 92,41  L 92,39  L 91,39  L 91,38  L 88,38  L 88,37  L 87,37  L 87,36  L 86,36  L 86,35  L 85,35  L 85,34  L 82,34  L 82,33  L 80,33  L 80,32  L 78,32  L 78,31  L 76,31  L 76,30  L 74,30  L 74,29  L 71,29  L 71,28  L 68,28  L 68,27  L 64,27  L 64,24  L 65,24  L 65,22  L 66,22  L 66,20  L 67,20  L 67,19  L 66,19  L 66,18  L 67,18  L 67,16  L 68,16  L 68,13  L 69,13  L 69,12  L 70,12  L 70,5  L 69,5  L 69,2  L 68,2  L 68,1  L 66,1  L 66,0  L 64,0  L 64,1  L 63,1  L 63,0  L 60,0  L 60,1  L 59,1  L 59,0  L 58,0  L 58,1  L 57,1  L 57,0  L 56,0  L 56,1  L 55,1  L 55,0  L 54,0  L 54,1  L 53,1  L 53,0  L 52,0  L 52,1  L 51,1  L 51,0  L 50,0  L 50,1  L 49,1  L 49,0  L 48,0  L 48,1  L 45,1  L 45,0  L 44,0  L 44,1  L 35,1  L 35,2  L 34,2  L 34,1  L 33,1  L 33,2  L 32,2  L 32,1  L 31,1  L 31,2  L 26,2  L 26,3  L 23,3  L 23,4  L 20,4  L 20,5  L 18,5  L 18,7  L 17,7  L 17,8  L 16,8  L 16,10  L 15,10  L 15,11  L 16,11  L 16,12  L 23,12  L 23,11  L 26,11  L 26,10  L 31,10  L 31,9  L 39,9  L 39,8  L 60,8  L 60,9  L 61,9  L 61,12  L 60,12  L 60,14  L 59,14  L 59,16  L 57,16  L 57,19  L 56,19  L 56,21  L 54,21  L 54,23  L 53,23  L 53,25  L 52,25  L 52,26  L 51,26  L 51,27  L 50,27  L 50,29  L 49,29  L 49,30  L 48,30  L 48,32  L 46,32  L 46,33  L 45,33  L 45,35  L 44,35  L 44,36  L 43,36  L 43,37  L 42,37  L 42,39  L 41,39  L 41,40  L 40,40  L 40,41  L 39,41  L 39,42  L 37,42  L 37,43  L 36,43  L 36,44  L 34,44  L 34,45  L 33,45  L 33,46  L 31,46  L 31,47  L 30,47  L 30,48  L 28,48  L 28,49  L 27,49  L 27,50  L 25,50  L 25,51  L 24,51  L 24,52  L 22,52  L 22,53  L 21,53  L 21,54  L 19,54  L 19,55  L 18,55  L 18,58  L 19,58  L 19,60  L 26,60  L 26,59  L 28,59  L 28,58  L 29,58  L 29,57  L 31,57  L 31,56  L 33,56  L 33,55  L 34,55  L 34,54  L 35,54  L 35,53  L 37,53  L 37,52  L 38,52  L 38,51  L 39,51  L 39,50  L 40,50  L 40,49  L 41,49  L 41,48  L 43,48  L 43,47  L 44,47  L 44,46  L 45,46  L 45,45  L 46,45  L 46,44  L 48,44  L 48,43  L 49,43  L 49,41  L 50,41  L 50,40  L 51,40  L 51,39  L 52,39  L 52,38  L 53,38  L 53,36  L 55,36  L 55,33  L 57,33  L 57,32  L 59,32  L 59,31  L 61,31  L 61,32  L 62,32  Z  " style="fill:rgb(0, 0, 0); fill-opacity:1.000; stroke:none;" />
 <path d="  M 78,124  L 79,124  L 79,121  L 80,121  L 80,117  L 79,117  L 79,115  L 77,115  L 77,114  L 74,114  L 74,113  L 71,113  L 71,112  L 70,112  L 70,113  L 68,113  L 68,114  L 65,114  L 65,115  L 60,115  L 60,116  L 57,116  L 57,117  L 50,117  L 50,118  L 49,118  L 49,117  L 48,117  L 48,118  L 45,118  L 45,117  L 44,117  L 44,118  L 31,118  L 31,119  L 27,119  L 27,120  L 26,120  L 26,122  L 27,122  L 27,125  L 30,125  L 30,126  L 33,126  L 33,125  L 34,125  L 34,126  L 35,126  L 35,125  L 45,125  L 45,124  L 46,124  L 46,125  L 47,125  L 47,124  L 53,124  L 53,123  L 63,123  L 63,122  L 65,122  L 65,121  L 68,121  L 68,120  L 71,120  L 71,124  L 70,124  L 70,126  L 69,126  L 69,127  L 68,127  L 68,129  L 67,129  L 67,131  L 66,131  L 66,133  L 65,133  L 65,134  L 64,134  L 64,136  L 63,136  L 63,137  L 62,137  L 62,138  L 61,138  L 61,139  L 60,139  L 60,140  L 59,140  L 59,141  L 58,141  L 58,142  L 57,142  L 57,144  L 56,144  L 56,146  L 55,146  L 55,147  L 54,147  L 54,149  L 53,149  L 53,150  L 52,150  L 52,151  L 51,151  L 51,152  L 50,152  L 50,154  L 48,154  L 48,155  L 47,155  L 47,156  L 46,156  L 46,157  L 43,157  L 43,158  L 42,158  L 42,159  L 40,159  L 40,160  L 38,160  L 38,162  L 37,162  L 37,161  L 36,161  L 36,162  L 35,162  L 35,163  L 34,163  L 34,166  L 43,166  L 43,165  L 44,165  L 44,164  L 46,164  L 46,163  L 48,163  L 48,162  L 50,162  L 50,161  L 52,161  L 52,160  L 53,160  L 53,159  L 54,159  L 54,158  L 56,158  L 56,156  L 57,156  L 57,155  L 58,155  L 58,154  L 59,154  L 59,153  L 60,153  L 60,152  L 62,152  L 62,150  L 63,150  L 63,149  L 64,149  L 64,147  L 65,147  L 65,146  L 69,146  L 69,147  L 70,147  L 70,148  L 73,148  L 73,149  L 74,149  L 74,150  L 77,150  L 77,151  L 80,151  L 80,152  L 81,152  L 81,153  L 83,153  L 83,154  L 85,154  L 85,155  L 88,155  L 88,156  L 90,156  L 90,157  L 92,157  L 92,158  L 94,158  L 94,159  L 97,159  L 97,160  L 100,160  L 100,161  L 103,161  L 103,162  L 109,162  L 109,163  L 110,163  L 110,162  L 112,162  L 112,158  L 110,158  L 110,157  L 108,157  L 108,156  L 105,156  L 105,155  L 101,155  L 101,154  L 99,154  L 99,153  L 97,153  L 97,152  L 94,152  L 94,151  L 93,151  L 93,150  L 91,150  L 91,149  L 89,149  L 89,148  L 87,148  L 87,147  L 85,147  L 85,146  L 83,146  L 83,145  L 81,145  L 81,144  L 79,144  L 79,143  L 78,143  L 78,142  L 76,142  L 76,141  L 74,141  L 74,140  L 73,140  L 73,139  L 72,139  L 72,138  L 71,138  L 71,137  L 72,137  L 72,135  L 73,135  L 73,134  L 74,134  L 74,132  L 75,132  L 75,130  L 76,130  L 76,127  L 77,127  L 77,125  L 78,125  Z  " style="fill:rgb(0, 0, 0); fill-opacity:1.000; stroke:none;" />
 <path d="  M 54,92  L 54,93  L 52,93  L 52,95  L 51,95  L 51,96  L 52,96  L 52,102  L 53,102  L 53,103  L 54,103  L 54,105  L 55,105  L 55,106  L 57,106  L 57,107  L 59,107  L 59,108  L 61,108  L 61,109  L 65,109  L 65,110  L 66,110  L 66,106  L 65,106  L 65,101  L 64,101  L 64,97  L 63,97  L 63,95  L 62,95  L 62,93  L 59,93  L 59,92  Z  " style="fill:rgb(0, 0, 0); fill-opacity:1.000; stroke:none;" />
</svg>
