<?xml version="1.0" encoding="UTF-8" standalone="no"?>
<!DOCTYPE svg PUBLIC "-//W3C//DTD SVG 1.1//EN" 
  "http://www.w3.org/Graphics/SVG/1.1/DTD/svg11.dtd">
<svg width="108" height="148"
     xmlns="http://www.w3.org/2000/svg" version="1.1">
 <path d="  M 38,46  L 34,46  L 34,47  L 32,47  L 32,48  L 31,48  L 31,49  L 30,49  L 30,51  L 31,51  L 31,74  L 30,74  L 30,75  L 29,75  L 29,76  L 24,76  L 24,77  L 19,77  L 19,78  L 14,78  L 14,79  L 13,79  L 13,78  L 12,78  L 12,79  L 8,79  L 8,80  L 2,80  L 2,81  L 1,81  L 1,82  L 0,82  L 0,83  L 1,83  L 1,84  L 2,84  L 2,85  L 3,85  L 3,86  L 10,86  L 10,85  L 13,85  L 13,84  L 19,84  L 19,83  L 24,83  L 24,82  L 31,82  L 31,81  L 36,81  L 36,80  L 38,80  L 38,81  L 39,81  L 39,80  L 48,80  L 48,79  L 68,79  L 68,77  L 69,77  L 69,75  L 68,75  L 68,73  L 65,73  L 65,72  L 64,72  L 64,73  L 63,73  L 63,72  L 61,72  L 61,73  L 39,73  L 39,74  L 38,74  L 38,73  L 37,73  L 37,55  L 38,55  L 38,54  L 37,54  L 37,52  L 38,52  Z  " style="fill:rgb(0, 0, 0); fill-opacity:1.000; stroke:none;" />
 <path d="  M 31,16  L 31,17  L 30,17  L 30,18  L 28,18  L 28,20  L 26,20  L 26,22  L 24,22  L 24,25  L 23,25  L 23,27  L 22,27  L 22,29  L 21,29  L 21,30  L 20,30  L 20,32  L 19,32  L 19,35  L 18,35  L 18,37  L 17,37  L 17,39  L 16,39  L 16,40  L 15,40  L 15,41  L 14,41  L 14,42  L 13,42  L 13,44  L 11,44  L 11,45  L 10,45  L 10,47  L 7,47  L 7,48  L 5,48  L 5,49  L 4,49  L 4,50  L 2,50  L 2,54  L 3,54  L 3,55  L 11,55  L 11,54  L 12,54  L 12,53  L 13,53  L 13,52  L 15,52  L 15,51  L 16,51  L 16,50  L 17,50  L 17,49  L 18,49  L 18,48  L 19,48  L 19,46  L 20,46  L 20,44  L 21,44  L 21,42  L 22,42  L 22,40  L 23,40  L 23,39  L 24,39  L 24,37  L 25,37  L 25,36  L 26,36  L 26,34  L 27,34  L 27,33  L 29,33  L 29,29  L 30,29  L 30,28  L 31,28  L 31,27  L 32,27  L 32,26  L 33,26  L 33,25  L 34,25  L 34,24  L 35,24  L 35,22  L 36,22  L 36,20  L 38,20  L 38,19  L 39,19  L 39,18  L 41,18  L 41,17  L 42,17  L 42,16  L 43,16  L 43,15  L 44,15  L 44,12  L 45,12  L 45,9  L 44,9  L 44,6  L 43,6  L 43,5  L 42,5  L 42,3  L 41,3  L 41,2  L 40,2  L 40,1  L 38,1  L 38,0  L 36,0  L 36,1  L 30,1  L 30,2  L 23,2  L 23,3  L 18,3  L 18,4  L 11,4  L 11,5  L 8,5  L 8,6  L 5,6  L 5,7  L 3,7  L 3,8  L 2,8  L 2,13  L 3,13  L 3,14  L 4,14  L 4,15  L 5,15  L 5,14  L 7,14  L 7,13  L 9,13  L 9,12  L 11,12  L 11,11  L 15,11  L 15,10  L 21,10  L 21,9  L 30,9  L 30,8  L 36,8  L 36,9  L 37,9  L 37,12  L 36,12  L 36,14  L 35,14  L 35,15  L 32,15  L 32,16  Z  " style="fill:rgb(0, 0, 0); fill-opacity:1.000; stroke:none;" />
 <path d="  M 70,148  L 70,147  L 71,147  L 71,143  L 72,143  L 72,136  L 73,136  L 73,130  L 74,130  L 74,123  L 75,123  L 75,122  L 74,122  L 74,121  L 75,121  L 75,118  L 76,118  L 76,114  L 77,114  L 77,109  L 76,109  L 76,105  L 75,105  L 75,104  L 74,104  L 74,102  L 73,102  L 73,101  L 71,101  L 71,100  L 69,100  L 69,99  L 66,99  L 66,98  L 44,98  L 44,99  L 40,99  L 40,100  L 35,100  L 35,101  L 33,101  L 33,100  L 30,100  L 30,102  L 29,102  L 29,106  L 30,106  L 30,107  L 31,107  L 31,108  L 32,108  L 32,109  L 33,109  L 33,108  L 37,108  L 37,107  L 41,107  L 41,106  L 44,106  L 44,105  L 53,105  L 53,104  L 54,104  L 54,105  L 55,105  L 55,104  L 62,104  L 62,105  L 65,105  L 65,106  L 67,106  L 67,107  L 68,107  L 68,108  L 69,108  L 69,109  L 70,109  L 70,111  L 71,111  L 71,112  L 70,112  L 70,116  L 69,116  L 69,121  L 68,121  L 68,127  L 67,127  L 67,132  L 66,132  L 66,137  L 65,137  L 65,142  L 64,142  L 64,143  L 65,143  L 65,144  L 64,144  L 64,147  L 65,147  L 65,148  Z  " style="fill:rgb(0, 0, 0); fill-opacity:1.000; stroke:none;" />
 <path d="  M 53,42  L 53,43  L 55,43  L 55,44  L 56,44  L 56,45  L 57,45  L 57,46  L 59,46  L 59,47  L 60,47  L 60,48  L 62,48  L 62,49  L 64,49  L 64,48  L 65,48  L 65,44  L 64,44  L 64,42  L 63,42  L 63,41  L 62,41  L 62,40  L 61,40  L 61,39  L 60,39  L 60,38  L 59,38  L 59,37  L 57,37  L 57,36  L 55,36  L 55,35  L 54,35  L 54,34  L 53,34  L 53,33  L 52,33  L 52,32  L 49,32  L 49,31  L 48,31  L 48,30  L 47,30  L 47,29  L 46,29  L 46,28  L 44,28  L 44,27  L 42,27  L 42,26  L 40,26  L 40,25  L 36,25  L 36,26  L 33,26  L 33,27  L 32,27  L 32,29  L 33,29  L 33,31  L 35,31  L 35,32  L 36,32  L 36,33  L 39,33  L 39,34  L 42,34  L 42,35  L 43,35  L 43,36  L 44,36  L 44,37  L 46,37  L 46,38  L 47,38  L 47,39  L 49,39  L 49,40  L 50,40  L 50,41  L 51,41  L 51,42  Z  " style="fill:rgb(0, 0, 0); fill-opacity:1.000; stroke:none;" />
 <path d="  M 78,68  L 77,68  L 77,69  L 78,69  L 78,84  L 79,84  L 79,85  L 80,85  L 80,86  L 83,86  L 83,85  L 84,85  L 84,71  L 83,71  L 83,70  L 84,70  L 84,68  L 83,68  L 83,65  L 84,65  L 84,64  L 83,64  L 83,61  L 84,61  L 84,60  L 83,60  L 83,49  L 82,49  L 82,44  L 83,44  L 83,43  L 85,43  L 85,42  L 86,42  L 86,41  L 87,41  L 87,40  L 108,40  L 108,36  L 107,36  L 107,35  L 106,35  L 106,34  L 105,34  L 105,33  L 104,33  L 104,34  L 99,34  L 99,33  L 98,33  L 98,34  L 97,34  L 97,33  L 95,33  L 95,34  L 93,34  L 93,33  L 92,33  L 92,34  L 86,34  L 86,33  L 84,33  L 84,34  L 82,34  L 82,32  L 81,32  L 81,31  L 82,31  L 82,24  L 81,24  L 81,18  L 80,18  L 80,12  L 79,12  L 79,9  L 78,9  L 78,7  L 77,7  L 77,5  L 76,5  L 76,4  L 75,4  L 75,5  L 73,5  L 73,12  L 74,12  L 74,17  L 75,17  L 75,27  L 76,27  L 76,38  L 77,38  L 77,40  L 76,40  L 76,41  L 77,41  L 77,58  L 78,58  L 78,59  L 77,59  L 77,62  L 78,62  L 78,63  L 77,63  L 77,66  L 78,66  Z  " style="fill:rgb(0, 0, 0); fill-opacity:1.000; stroke:none;" />
</svg>
