<?xml version="1.0" encoding="UTF-8" standalone="no"?>
<!DOCTYPE svg PUBLIC "-//W3C//DTD SVG 1.1//EN" 
  "http://www.w3.org/Graphics/SVG/1.1/DTD/svg11.dtd">
<svg width="107" height="138"
     xmlns="http://www.w3.org/2000/svg" version="1.1">
 <path d="  M 15,83  L 15,82  L 23,82  L 23,81  L 24,81  L 24,82  L 26,82  L 26,81  L 29,81  L 29,82  L 30,82  L 30,81  L 48,81  L 48,80  L 50,80  L 50,81  L 51,81  L 51,80  L 54,80  L 54,81  L 55,81  L 55,80  L 58,80  L 58,81  L 59,81  L 59,80  L 62,80  L 62,81  L 63,81  L 63,80  L 68,80  L 68,81  L 70,81  L 70,80  L 73,80  L 73,79  L 74,79  L 74,75  L 73,75  L 73,74  L 70,74  L 70,73  L 69,73  L 69,74  L 67,74  L 67,73  L 66,73  L 66,74  L 51,74  L 51,73  L 50,73  L 50,74  L 47,74  L 47,73  L 46,73  L 46,74  L 39,74  L 39,73  L 38,73  L 38,53  L 39,53  L 39,50  L 40,50  L 40,48  L 34,48  L 34,49  L 32,49  L 32,53  L 31,53  L 31,54  L 32,54  L 32,63  L 31,63  L 31,64  L 32,64  L 32,67  L 31,67  L 31,68  L 32,68  L 32,75  L 26,75  L 26,76  L 18,76  L 18,77  L 10,77  L 10,78  L 2,78  L 2,77  L 1,77  L 1,78  L 0,78  L 0,81  L 1,81  L 1,83  L 2,83  L 2,84  L 7,84  L 7,83  L 8,83  L 8,84  L 9,84  L 9,83  Z  " style="fill:rgb(0, 0, 0); fill-opacity:1.000; stroke:none;" />
 <path d="  M 22,45  L 23,45  L 23,43  L 24,43  L 24,42  L 25,42  L 25,41  L 26,41  L 26,39  L 27,39  L 27,38  L 28,38  L 28,37  L 29,37  L 29,35  L 30,35  L 30,34  L 31,34  L 31,32  L 34,32  L 34,33  L 36,33  L 36,34  L 37,34  L 37,35  L 38,35  L 38,36  L 41,36  L 41,37  L 44,37  L 44,38  L 46,38  L 46,39  L 47,39  L 47,40  L 48,40  L 48,41  L 50,41  L 50,42  L 51,42  L 51,43  L 52,43  L 52,44  L 53,44  L 53,45  L 55,45  L 55,46  L 57,46  L 57,47  L 58,47  L 58,48  L 59,48  L 59,49  L 62,49  L 62,50  L 63,50  L 63,51  L 66,51  L 66,50  L 67,50  L 67,48  L 66,48  L 66,45  L 65,45  L 65,44  L 64,44  L 64,43  L 63,43  L 63,42  L 62,42  L 62,41  L 60,41  L 60,40  L 59,40  L 59,39  L 57,39  L 57,38  L 56,38  L 56,37  L 55,37  L 55,36  L 53,36  L 53,35  L 51,35  L 51,34  L 50,34  L 50,33  L 49,33  L 49,32  L 48,32  L 48,31  L 45,31  L 45,30  L 44,30  L 44,29  L 43,29  L 43,28  L 42,28  L 42,27  L 41,27  L 41,26  L 38,26  L 38,23  L 39,23  L 39,22  L 40,22  L 40,21  L 41,21  L 41,20  L 42,20  L 42,19  L 43,19  L 43,18  L 44,18  L 44,14  L 45,14  L 45,12  L 44,12  L 44,11  L 45,11  L 45,10  L 44,10  L 44,5  L 42,5  L 42,3  L 41,3  L 41,2  L 40,2  L 40,1  L 39,1  L 39,0  L 36,0  L 36,1  L 33,1  L 33,2  L 30,2  L 30,3  L 24,3  L 24,4  L 23,4  L 23,3  L 22,3  L 22,4  L 18,4  L 18,5  L 12,5  L 12,6  L 8,6  L 8,7  L 7,7  L 7,8  L 6,8  L 6,9  L 5,9  L 5,10  L 4,10  L 4,16  L 7,16  L 7,15  L 9,15  L 9,14  L 11,14  L 11,13  L 13,13  L 13,12  L 17,12  L 17,11  L 23,11  L 23,10  L 24,10  L 24,11  L 25,11  L 25,10  L 32,10  L 32,9  L 35,9  L 35,8  L 37,8  L 37,9  L 38,9  L 38,11  L 39,11  L 39,12  L 38,12  L 38,15  L 37,15  L 37,16  L 36,16  L 36,17  L 34,17  L 34,18  L 33,18  L 33,19  L 32,19  L 32,21  L 31,21  L 31,22  L 30,22  L 30,23  L 29,23  L 29,24  L 28,24  L 28,25  L 27,25  L 27,27  L 26,27  L 26,28  L 25,28  L 25,30  L 24,30  L 24,32  L 23,32  L 23,34  L 22,34  L 22,36  L 21,36  L 21,37  L 20,37  L 20,39  L 19,39  L 19,41  L 18,41  L 18,42  L 17,42  L 17,43  L 16,43  L 16,45  L 15,45  L 15,46  L 14,46  L 14,47  L 12,47  L 12,49  L 10,49  L 10,50  L 8,50  L 8,51  L 7,51  L 7,52  L 6,52  L 6,53  L 5,53  L 5,56  L 9,56  L 9,57  L 10,57  L 10,56  L 12,56  L 12,55  L 14,55  L 14,54  L 16,54  L 16,53  L 17,53  L 17,52  L 19,52  L 19,51  L 20,51  L 20,49  L 21,49  L 21,48  L 22,48  Z  " style="fill:rgb(0, 0, 0); fill-opacity:1.000; stroke:none;" />
 <path d="  M 53,96  L 53,97  L 52,97  L 52,98  L 50,98  L 50,99  L 48,99  L 48,100  L 47,100  L 47,102  L 46,102  L 46,103  L 45,103  L 45,104  L 44,104  L 44,106  L 42,106  L 42,109  L 41,109  L 41,110  L 40,110  L 40,112  L 39,112  L 39,114  L 38,114  L 38,115  L 37,115  L 37,117  L 36,117  L 36,120  L 35,120  L 35,123  L 34,123  L 34,127  L 33,127  L 33,129  L 34,129  L 34,132  L 35,132  L 35,133  L 37,133  L 37,134  L 39,134  L 39,135  L 40,135  L 40,136  L 41,136  L 41,137  L 46,137  L 46,138  L 65,138  L 65,137  L 69,137  L 69,136  L 72,136  L 72,135  L 75,135  L 75,134  L 78,134  L 78,133  L 80,133  L 80,132  L 82,132  L 82,131  L 83,131  L 83,130  L 85,130  L 85,128  L 86,128  L 86,127  L 87,127  L 87,125  L 88,125  L 88,123  L 89,123  L 89,118  L 90,118  L 90,117  L 89,117  L 89,116  L 90,116  L 90,115  L 89,115  L 89,109  L 88,109  L 88,106  L 87,106  L 87,105  L 86,105  L 86,104  L 85,104  L 85,103  L 84,103  L 84,102  L 83,102  L 83,101  L 81,101  L 81,100  L 79,100  L 79,99  L 74,99  L 74,98  L 65,98  L 65,97  L 59,97  L 59,96  Z  M 50,132  L 50,131  L 46,131  L 46,130  L 43,130  L 43,129  L 41,129  L 41,127  L 40,127  L 40,124  L 41,124  L 41,122  L 42,122  L 42,120  L 43,120  L 43,117  L 44,117  L 44,116  L 45,116  L 45,113  L 46,113  L 46,112  L 47,112  L 47,111  L 48,111  L 48,110  L 49,110  L 49,109  L 50,109  L 50,108  L 51,108  L 51,107  L 52,107  L 52,106  L 54,106  L 54,105  L 55,105  L 55,104  L 64,104  L 64,105  L 73,105  L 73,106  L 77,106  L 77,107  L 79,107  L 79,108  L 80,108  L 80,109  L 81,109  L 81,110  L 82,110  L 82,113  L 83,113  L 83,119  L 82,119  L 82,121  L 81,121  L 81,123  L 80,123  L 80,125  L 79,125  L 79,126  L 78,126  L 78,127  L 76,127  L 76,128  L 74,128  L 74,129  L 72,129  L 72,130  L 67,130  L 67,131  L 62,131  L 62,132  L 55,132  L 55,133  L 54,133  L 54,132  Z  " style="fill:rgb(0, 0, 0); fill-opacity:1.000; stroke:none;" />
 <path d="  M 79,72  L 80,72  L 80,73  L 79,73  L 79,74  L 80,74  L 80,85  L 81,85  L 81,89  L 84,89  L 84,90  L 85,90  L 85,89  L 86,89  L 86,75  L 85,75  L 85,53  L 84,53  L 84,50  L 83,50  L 83,49  L 84,49  L 84,47  L 86,47  L 86,46  L 88,46  L 88,45  L 91,45  L 91,44  L 92,44  L 92,45  L 93,45  L 93,44  L 94,44  L 94,45  L 95,45  L 95,44  L 96,44  L 96,45  L 97,45  L 97,44  L 104,44  L 104,45  L 105,45  L 105,44  L 107,44  L 107,39  L 103,39  L 103,38  L 100,38  L 100,39  L 99,39  L 99,38  L 98,38  L 98,39  L 97,39  L 97,38  L 94,38  L 94,39  L 93,39  L 93,38  L 90,38  L 90,39  L 89,39  L 89,38  L 84,38  L 84,37  L 83,37  L 83,27  L 82,27  L 82,21  L 81,21  L 81,16  L 80,16  L 80,14  L 79,14  L 79,10  L 78,10  L 78,7  L 77,7  L 77,6  L 74,6  L 74,7  L 73,7  L 73,13  L 74,13  L 74,16  L 75,16  L 75,20  L 76,20  L 76,26  L 77,26  L 77,34  L 78,34  L 78,35  L 77,35  L 77,38  L 78,38  L 78,50  L 79,50  L 79,51  L 78,51  L 78,52  L 79,52  Z  " style="fill:rgb(0, 0, 0); fill-opacity:1.000; stroke:none;" />
</svg>
