<?xml version="1.0" encoding="UTF-8" standalone="no"?>
<!DOCTYPE svg PUBLIC "-//W3C//DTD SVG 1.1//EN" 
  "http://www.w3.org/Graphics/SVG/1.1/DTD/svg11.dtd">
<svg width="107" height="96"
     xmlns="http://www.w3.org/2000/svg" version="1.1">
 <path d="  M 17,83  L 17,82  L 24,82  L 24,81  L 30,81  L 30,80  L 34,80  L 34,79  L 37,79  L 37,78  L 42,78  L 42,77  L 46,77  L 46,76  L 50,76  L 50,75  L 53,75  L 53,74  L 54,74  L 54,75  L 55,75  L 55,74  L 57,74  L 57,73  L 58,73  L 58,74  L 60,74  L 60,73  L 62,73  L 62,74  L 64,74  L 64,75  L 65,75  L 65,74  L 66,74  L 66,69  L 65,69  L 65,68  L 63,68  L 63,67  L 58,67  L 58,68  L 54,68  L 54,69  L 52,69  L 52,70  L 51,70  L 51,69  L 49,69  L 49,70  L 45,70  L 45,71  L 44,71  L 44,70  L 43,70  L 43,71  L 41,71  L 41,70  L 40,70  L 40,45  L 41,45  L 41,44  L 40,44  L 40,43  L 36,43  L 36,44  L 35,44  L 35,45  L 34,45  L 34,47  L 33,47  L 33,48  L 34,48  L 34,72  L 33,72  L 33,73  L 32,73  L 32,74  L 27,74  L 27,73  L 26,73  L 26,74  L 24,74  L 24,75  L 20,75  L 20,76  L 19,76  L 19,75  L 18,75  L 18,76  L 14,76  L 14,77  L 10,77  L 10,78  L 8,78  L 8,79  L 5,79  L 5,80  L 2,80  L 2,82  L 1,82  L 1,83  L 0,83  L 0,84  L 1,84  L 1,86  L 2,86  L 2,87  L 5,87  L 5,86  L 8,86  L 8,85  L 10,85  L 10,84  L 13,84  L 13,83  Z  " style="fill:rgb(0, 0, 0); fill-opacity:1.000; stroke:none;" />
 <path d="  M 28,32  L 29,32  L 29,31  L 30,31  L 30,28  L 32,28  L 32,29  L 34,29  L 34,30  L 36,30  L 36,31  L 37,31  L 37,32  L 39,32  L 39,33  L 41,33  L 41,34  L 43,34  L 43,35  L 45,35  L 45,36  L 47,36  L 47,37  L 49,37  L 49,38  L 50,38  L 50,39  L 52,39  L 52,41  L 54,41  L 54,42  L 55,42  L 55,43  L 56,43  L 56,44  L 57,44  L 57,45  L 58,45  L 58,46  L 59,46  L 59,47  L 66,47  L 66,46  L 67,46  L 67,44  L 68,44  L 68,43  L 66,43  L 66,42  L 65,42  L 65,41  L 63,41  L 63,40  L 62,40  L 62,39  L 60,39  L 60,37  L 58,37  L 58,36  L 56,36  L 56,35  L 55,35  L 55,34  L 53,34  L 53,33  L 51,33  L 51,32  L 50,32  L 50,31  L 48,31  L 48,30  L 46,30  L 46,29  L 44,29  L 44,28  L 42,28  L 42,27  L 41,27  L 41,26  L 39,26  L 39,25  L 37,25  L 37,23  L 40,23  L 40,22  L 41,22  L 41,21  L 42,21  L 42,19  L 43,19  L 43,17  L 44,17  L 44,15  L 45,15  L 45,14  L 46,14  L 46,12  L 47,12  L 47,11  L 49,11  L 49,10  L 50,10  L 50,7  L 51,7  L 51,6  L 50,6  L 50,3  L 49,3  L 49,1  L 48,1  L 48,2  L 46,2  L 46,1  L 45,1  L 45,2  L 27,2  L 27,1  L 26,1  L 26,2  L 24,2  L 24,3  L 20,3  L 20,4  L 15,4  L 15,5  L 14,5  L 14,4  L 13,4  L 13,5  L 8,5  L 8,6  L 6,6  L 6,7  L 5,7  L 5,10  L 6,10  L 6,11  L 15,11  L 15,10  L 16,10  L 16,11  L 17,11  L 17,10  L 23,10  L 23,9  L 25,9  L 25,10  L 26,10  L 26,9  L 33,9  L 33,8  L 35,8  L 35,7  L 39,7  L 39,6  L 40,6  L 40,10  L 39,10  L 39,11  L 38,11  L 38,12  L 37,12  L 37,15  L 36,15  L 36,17  L 35,17  L 35,18  L 34,18  L 34,20  L 33,20  L 33,21  L 32,21  L 32,23  L 31,23  L 31,24  L 29,24  L 29,25  L 28,25  L 28,26  L 27,26  L 27,27  L 26,27  L 26,28  L 24,28  L 24,29  L 23,29  L 23,30  L 22,30  L 22,31  L 21,31  L 21,33  L 20,33  L 20,34  L 19,34  L 19,35  L 18,35  L 18,36  L 17,36  L 17,37  L 16,37  L 16,38  L 14,38  L 14,39  L 13,39  L 13,41  L 11,41  L 11,42  L 9,42  L 9,43  L 8,43  L 8,45  L 7,45  L 7,46  L 6,46  L 6,50  L 11,50  L 11,49  L 12,49  L 12,47  L 14,47  L 14,46  L 15,46  L 15,45  L 16,45  L 16,43  L 18,43  L 18,42  L 20,42  L 20,41  L 21,41  L 21,40  L 22,40  L 22,39  L 24,39  L 24,37  L 25,37  L 25,36  L 26,36  L 26,35  L 27,35  L 27,34  L 28,34  Z  " style="fill:rgb(0, 0, 0); fill-opacity:1.000; stroke:none;" />
 <path d="  M 75,65  L 74,65  L 74,66  L 75,66  L 75,69  L 74,69  L 74,70  L 75,70  L 75,73  L 74,73  L 74,74  L 75,74  L 75,75  L 74,75  L 74,91  L 79,91  L 79,90  L 80,90  L 80,89  L 81,89  L 81,58  L 82,58  L 82,57  L 81,57  L 81,54  L 82,54  L 82,52  L 81,52  L 81,48  L 87,48  L 87,47  L 88,47  L 88,48  L 91,48  L 91,47  L 92,47  L 92,48  L 93,48  L 93,47  L 94,47  L 94,48  L 95,48  L 95,47  L 96,47  L 96,48  L 101,48  L 101,55  L 100,55  L 100,56  L 101,56  L 101,59  L 100,59  L 100,60  L 101,60  L 101,63  L 100,63  L 100,64  L 101,64  L 101,67  L 100,67  L 100,68  L 101,68  L 101,71  L 100,71  L 100,72  L 101,72  L 101,75  L 100,75  L 100,76  L 101,76  L 101,79  L 100,79  L 100,80  L 101,80  L 101,95  L 102,95  L 102,96  L 106,96  L 106,94  L 107,94  L 107,29  L 106,29  L 106,17  L 105,17  L 105,9  L 104,9  L 104,6  L 103,6  L 103,1  L 98,1  L 98,2  L 97,2  L 97,6  L 98,6  L 98,14  L 99,14  L 99,20  L 100,20  L 100,32  L 101,32  L 101,40  L 100,40  L 100,41  L 90,41  L 90,42  L 89,42  L 89,41  L 86,41  L 86,42  L 82,42  L 82,29  L 81,29  L 81,28  L 82,28  L 82,27  L 81,27  L 81,19  L 80,19  L 80,18  L 81,18  L 81,17  L 80,17  L 80,13  L 79,13  L 79,12  L 80,12  L 80,11  L 79,11  L 79,7  L 78,7  L 78,6  L 75,6  L 75,5  L 74,5  L 74,6  L 73,6  L 73,7  L 72,7  L 72,12  L 73,12  L 73,18  L 74,18  L 74,26  L 75,26  Z  " style="fill:rgb(0, 0, 0); fill-opacity:1.000; stroke:none;" />
</svg>
