<?xml version="1.0" encoding="UTF-8" standalone="no"?>
<!DOCTYPE svg PUBLIC "-//W3C//DTD SVG 1.1//EN" 
  "http://www.w3.org/Graphics/SVG/1.1/DTD/svg11.dtd">
<svg width="106" height="140"
     xmlns="http://www.w3.org/2000/svg" version="1.1">
 <path d="  M 0,77  L 1,77  L 1,78  L 4,78  L 4,77  L 6,77  L 6,76  L 13,76  L 13,75  L 19,75  L 19,74  L 30,74  L 30,73  L 43,73  L 43,72  L 45,72  L 45,73  L 46,73  L 46,72  L 51,72  L 51,71  L 62,71  L 62,66  L 61,66  L 61,65  L 58,65  L 58,64  L 54,64  L 54,65  L 50,65  L 50,66  L 40,66  L 40,67  L 38,67  L 38,66  L 36,66  L 36,54  L 37,54  L 37,47  L 36,47  L 36,45  L 34,45  L 34,44  L 33,44  L 33,43  L 31,43  L 31,44  L 29,44  L 29,49  L 30,49  L 30,68  L 28,68  L 28,69  L 26,69  L 26,68  L 22,68  L 22,69  L 16,69  L 16,70  L 10,70  L 10,71  L 1,71  L 1,73  L 0,73  Z  " style="fill:rgb(0, 0, 0); fill-opacity:1.000; stroke:none;" />
 <path d="  M 61,41  L 60,41  L 60,40  L 59,40  L 59,41  L 58,41  L 58,40  L 57,40  L 57,39  L 56,39  L 56,38  L 54,38  L 54,37  L 53,37  L 53,36  L 51,36  L 51,35  L 49,35  L 49,34  L 47,34  L 47,33  L 45,33  L 45,32  L 43,32  L 43,31  L 42,31  L 42,30  L 39,30  L 39,29  L 38,29  L 38,28  L 35,28  L 35,27  L 32,27  L 32,26  L 33,26  L 33,25  L 34,25  L 34,24  L 35,24  L 35,23  L 36,23  L 36,22  L 37,22  L 37,21  L 38,21  L 38,20  L 39,20  L 39,19  L 40,19  L 40,18  L 41,18  L 41,17  L 42,17  L 42,16  L 43,16  L 43,15  L 44,15  L 44,14  L 45,14  L 45,13  L 46,13  L 46,10  L 47,10  L 47,6  L 46,6  L 46,2  L 45,2  L 45,1  L 42,1  L 42,2  L 41,2  L 41,3  L 39,3  L 39,4  L 34,4  L 34,5  L 24,5  L 24,6  L 9,6  L 9,7  L 7,7  L 7,8  L 6,8  L 6,9  L 5,9  L 5,13  L 6,13  L 6,14  L 10,14  L 10,13  L 12,13  L 12,12  L 25,12  L 25,11  L 26,11  L 26,12  L 31,12  L 31,11  L 36,11  L 36,10  L 39,10  L 39,12  L 38,12  L 38,13  L 37,13  L 37,14  L 35,14  L 35,15  L 34,15  L 34,16  L 33,16  L 33,17  L 31,17  L 31,18  L 30,18  L 30,19  L 28,19  L 28,20  L 27,20  L 27,23  L 26,23  L 26,24  L 25,24  L 25,27  L 24,27  L 24,30  L 23,30  L 23,31  L 22,31  L 22,32  L 21,32  L 21,35  L 20,35  L 20,37  L 19,37  L 19,38  L 18,38  L 18,40  L 17,40  L 17,41  L 16,41  L 16,43  L 15,43  L 15,44  L 14,44  L 14,45  L 13,45  L 13,46  L 12,46  L 12,47  L 11,47  L 11,48  L 8,48  L 8,49  L 7,49  L 7,50  L 6,50  L 6,51  L 5,51  L 5,54  L 6,54  L 6,56  L 10,56  L 10,55  L 11,55  L 11,54  L 12,54  L 12,53  L 14,53  L 14,52  L 15,52  L 15,51  L 16,51  L 16,50  L 18,50  L 18,49  L 19,49  L 19,48  L 20,48  L 20,47  L 21,47  L 21,46  L 22,46  L 22,44  L 23,44  L 23,42  L 24,42  L 24,41  L 25,41  L 25,40  L 26,40  L 26,38  L 28,38  L 28,35  L 29,35  L 29,34  L 30,34  L 30,33  L 31,33  L 31,34  L 33,34  L 33,35  L 35,35  L 35,36  L 38,36  L 38,37  L 39,37  L 39,38  L 41,38  L 41,39  L 43,39  L 43,40  L 44,40  L 44,41  L 46,41  L 46,42  L 47,42  L 47,43  L 48,43  L 48,44  L 50,44  L 50,45  L 51,45  L 51,46  L 58,46  L 58,45  L 60,45  L 60,44  L 61,44  Z  " style="fill:rgb(0, 0, 0); fill-opacity:1.000; stroke:none;" />
 <path d="  M 32,113  L 33,113  L 33,111  L 34,111  L 34,110  L 37,110  L 37,111  L 38,111  L 38,112  L 40,112  L 40,113  L 43,113  L 43,114  L 46,114  L 46,115  L 48,115  L 48,116  L 51,116  L 51,117  L 53,117  L 53,118  L 54,118  L 54,119  L 55,119  L 55,120  L 57,120  L 57,124  L 58,124  L 58,125  L 57,125  L 57,127  L 56,127  L 56,129  L 55,129  L 55,132  L 54,132  L 54,134  L 53,134  L 53,136  L 52,136  L 52,140  L 58,140  L 58,138  L 59,138  L 59,137  L 60,137  L 60,133  L 61,133  L 61,131  L 62,131  L 62,128  L 64,128  L 64,127  L 65,127  L 65,126  L 66,126  L 66,125  L 67,125  L 67,123  L 68,123  L 68,121  L 69,121  L 69,119  L 70,119  L 70,117  L 71,117  L 71,115  L 72,115  L 72,112  L 73,112  L 73,111  L 74,111  L 74,110  L 76,110  L 76,111  L 77,111  L 77,113  L 78,113  L 78,114  L 79,114  L 79,115  L 80,115  L 80,116  L 81,116  L 81,117  L 83,117  L 83,118  L 85,118  L 85,119  L 86,119  L 86,120  L 88,120  L 88,121  L 90,121  L 90,122  L 92,122  L 92,123  L 93,123  L 93,124  L 96,124  L 96,125  L 98,125  L 98,126  L 99,126  L 99,127  L 100,127  L 100,128  L 102,128  L 102,129  L 103,129  L 103,130  L 105,130  L 105,128  L 106,128  L 106,124  L 105,124  L 105,123  L 104,123  L 104,122  L 103,122  L 103,121  L 102,121  L 102,120  L 99,120  L 99,119  L 97,119  L 97,118  L 95,118  L 95,117  L 93,117  L 93,116  L 91,116  L 91,115  L 90,115  L 90,114  L 88,114  L 88,113  L 87,113  L 87,112  L 85,112  L 85,111  L 84,111  L 84,110  L 82,110  L 82,108  L 81,108  L 81,106  L 80,106  L 80,101  L 81,101  L 81,96  L 82,96  L 82,91  L 81,91  L 81,90  L 79,90  L 79,89  L 76,89  L 76,91  L 75,91  L 75,94  L 74,94  L 74,96  L 73,96  L 73,98  L 72,98  L 72,101  L 71,101  L 71,104  L 70,104  L 70,105  L 69,105  L 69,108  L 68,108  L 68,110  L 67,110  L 67,112  L 66,112  L 66,114  L 65,114  L 65,116  L 64,116  L 64,119  L 63,119  L 63,121  L 61,121  L 61,119  L 62,119  L 62,117  L 61,117  L 61,115  L 59,115  L 59,114  L 57,114  L 57,113  L 56,113  L 56,112  L 54,112  L 54,111  L 51,111  L 51,110  L 49,110  L 49,109  L 46,109  L 46,108  L 44,108  L 44,107  L 43,107  L 43,106  L 41,106  L 41,105  L 40,105  L 40,104  L 38,104  L 38,103  L 37,103  L 37,102  L 39,102  L 39,103  L 40,103  L 40,101  L 41,101  L 41,99  L 42,99  L 42,98  L 43,98  L 43,97  L 45,97  L 45,95  L 46,95  L 46,90  L 45,90  L 45,88  L 44,88  L 44,87  L 43,87  L 43,86  L 41,86  L 41,85  L 40,85  L 40,89  L 39,89  L 39,90  L 40,90  L 40,95  L 39,95  L 39,98  L 38,98  L 38,99  L 37,99  L 37,100  L 36,100  L 36,101  L 34,101  L 34,102  L 33,102  L 33,104  L 32,104  L 32,105  L 31,105  L 31,107  L 30,107  L 30,108  L 29,108  L 29,109  L 28,109  L 28,110  L 27,110  L 27,112  L 26,112  L 26,113  L 25,113  L 25,115  L 24,115  L 24,116  L 23,116  L 23,117  L 22,117  L 22,118  L 21,118  L 21,119  L 20,119  L 20,120  L 19,120  L 19,121  L 18,121  L 18,122  L 17,122  L 17,123  L 16,123  L 16,124  L 15,124  L 15,125  L 14,125  L 14,126  L 13,126  L 13,130  L 14,130  L 14,131  L 15,131  L 15,132  L 16,132  L 16,133  L 17,133  L 17,132  L 18,132  L 18,131  L 19,131  L 19,130  L 20,130  L 20,128  L 21,128  L 21,127  L 22,127  L 22,126  L 23,126  L 23,125  L 24,125  L 24,124  L 25,124  L 25,123  L 26,123  L 26,122  L 27,122  L 27,120  L 28,120  L 28,119  L 29,119  L 29,118  L 30,118  L 30,117  L 31,117  L 31,115  L 32,115  Z  M 61,122  L 61,123  L 59,123  L 59,122  Z  " style="fill:rgb(0, 0, 0); fill-opacity:1.000; stroke:none;" />
 <path d="  M 30,86  L 30,87  L 28,87  L 28,88  L 27,88  L 27,92  L 29,92  L 29,93  L 33,93  L 33,92  L 34,92  L 34,91  L 35,91  L 35,90  L 36,90  L 36,86  Z  " style="fill:rgb(0, 0, 0); fill-opacity:1.000; stroke:none;" />
 <path d="  M 85,74  L 85,76  L 84,76  L 84,77  L 85,77  L 85,79  L 91,79  L 91,64  L 92,64  L 92,62  L 91,62  L 91,60  L 92,60  L 92,58  L 91,58  L 91,56  L 92,56  L 92,54  L 91,54  L 91,52  L 92,52  L 92,49  L 91,49  L 91,48  L 92,48  L 92,46  L 91,46  L 91,44  L 92,44  L 92,42  L 91,42  L 91,39  L 92,39  L 92,38  L 91,38  L 91,31  L 90,31  L 90,28  L 89,28  L 89,24  L 88,24  L 88,19  L 87,19  L 87,11  L 86,11  L 86,7  L 82,7  L 82,8  L 81,8  L 81,22  L 82,22  L 82,23  L 81,23  L 81,25  L 82,25  L 82,30  L 74,30  L 74,29  L 73,29  L 73,22  L 72,22  L 72,21  L 73,21  L 73,20  L 72,20  L 72,4  L 71,4  L 71,2  L 70,2  L 70,1  L 68,1  L 68,0  L 67,0  L 67,1  L 66,1  L 66,17  L 67,17  L 67,20  L 66,20  L 66,21  L 67,21  L 67,34  L 68,34  L 68,35  L 67,35  L 67,37  L 68,37  L 68,75  L 69,75  L 69,76  L 70,76  L 70,77  L 71,77  L 71,76  L 73,76  L 73,75  L 74,75  L 74,69  L 75,69  L 75,68  L 74,68  L 74,65  L 75,65  L 75,64  L 74,64  L 74,62  L 75,62  L 75,60  L 74,60  L 74,59  L 75,59  L 75,49  L 76,49  L 76,48  L 75,48  L 75,45  L 76,45  L 76,44  L 75,44  L 75,43  L 76,43  L 76,42  L 75,42  L 75,41  L 76,41  L 76,40  L 75,40  L 75,39  L 76,39  L 76,37  L 84,37  L 84,45  L 85,45  L 85,46  L 84,46  L 84,47  L 85,47  L 85,48  L 84,48  L 84,49  L 85,49  L 85,50  L 84,50  L 84,51  L 85,51  L 85,54  L 84,54  L 84,55  L 85,55  L 85,66  L 84,66  L 84,67  L 85,67  L 85,70  L 84,70  L 84,71  L 85,71  L 85,73  L 84,73  L 84,74  Z  " style="fill:rgb(0, 0, 0); fill-opacity:1.000; stroke:none;" />
</svg>
