<?xml version="1.0" encoding="UTF-8" standalone="no"?>
<!DOCTYPE svg PUBLIC "-//W3C//DTD SVG 1.1//EN" 
  "http://www.w3.org/Graphics/SVG/1.1/DTD/svg11.dtd">
<svg width="103" height="158"
     xmlns="http://www.w3.org/2000/svg" version="1.1">
 <path d="  M 39,87  L 40,87  L 40,88  L 41,88  L 41,87  L 73,87  L 73,86  L 74,86  L 74,87  L 75,87  L 75,86  L 84,86  L 84,84  L 85,84  L 85,81  L 84,81  L 84,80  L 83,80  L 83,79  L 72,79  L 72,80  L 53,80  L 53,79  L 52,79  L 52,80  L 51,80  L 51,79  L 46,79  L 46,52  L 43,52  L 43,53  L 40,53  L 40,54  L 39,54  L 39,55  L 38,55  L 38,56  L 39,56  L 39,57  L 38,57  L 38,58  L 39,58  L 39,75  L 38,75  L 38,80  L 31,80  L 31,81  L 29,81  L 29,80  L 28,80  L 28,81  L 20,81  L 20,82  L 10,82  L 10,83  L 7,83  L 7,84  L 3,84  L 3,85  L 2,85  L 2,86  L 1,86  L 1,88  L 0,88  L 0,89  L 1,89  L 1,90  L 0,90  L 0,91  L 1,91  L 1,92  L 7,92  L 7,91  L 9,91  L 9,90  L 10,90  L 10,91  L 11,91  L 11,90  L 15,90  L 15,89  L 24,89  L 24,88  L 25,88  L 25,89  L 26,89  L 26,88  L 27,88  L 27,89  L 28,89  L 28,88  L 31,88  L 31,89  L 32,89  L 32,88  L 39,88  Z  " style="fill:rgb(0, 0, 0); fill-opacity:1.000; stroke:none;" />
 <path d="  M 6,12  L 6,15  L 7,15  L 7,17  L 10,17  L 10,16  L 15,16  L 15,15  L 19,15  L 19,14  L 31,14  L 31,13  L 32,13  L 32,14  L 33,14  L 33,13  L 41,13  L 41,12  L 44,12  L 44,15  L 43,15  L 43,16  L 42,16  L 42,17  L 41,17  L 41,18  L 40,18  L 40,19  L 39,19  L 39,21  L 38,21  L 38,22  L 37,22  L 37,23  L 36,23  L 36,24  L 35,24  L 35,26  L 34,26  L 34,27  L 33,27  L 33,29  L 32,29  L 32,30  L 31,30  L 31,31  L 30,31  L 30,32  L 29,32  L 29,35  L 27,35  L 27,37  L 26,37  L 26,38  L 25,38  L 25,40  L 24,40  L 24,41  L 23,41  L 23,43  L 22,43  L 22,44  L 21,44  L 21,45  L 20,45  L 20,46  L 19,46  L 19,47  L 18,47  L 18,48  L 17,48  L 17,49  L 15,49  L 15,50  L 13,50  L 13,51  L 12,51  L 12,52  L 10,52  L 10,53  L 9,53  L 9,54  L 7,54  L 7,55  L 6,55  L 6,54  L 5,54  L 5,56  L 3,56  L 3,59  L 7,59  L 7,60  L 8,60  L 8,59  L 10,59  L 10,60  L 11,60  L 11,59  L 15,59  L 15,58  L 17,58  L 17,57  L 19,57  L 19,56  L 20,56  L 20,55  L 21,55  L 21,54  L 22,54  L 22,53  L 23,53  L 23,52  L 24,52  L 24,51  L 25,51  L 25,50  L 26,50  L 26,49  L 27,49  L 27,47  L 28,47  L 28,46  L 29,46  L 29,45  L 30,45  L 30,43  L 31,43  L 31,42  L 32,42  L 32,41  L 33,41  L 33,39  L 34,39  L 34,37  L 35,37  L 35,36  L 36,36  L 36,35  L 37,35  L 37,34  L 38,34  L 38,33  L 42,33  L 42,34  L 47,34  L 47,35  L 49,35  L 49,36  L 50,36  L 50,37  L 53,37  L 53,38  L 54,38  L 54,39  L 57,39  L 57,40  L 59,40  L 59,41  L 60,41  L 60,42  L 61,42  L 61,43  L 63,43  L 63,44  L 64,44  L 64,45  L 65,45  L 65,46  L 67,46  L 67,47  L 68,47  L 68,49  L 69,49  L 69,50  L 72,50  L 72,51  L 74,51  L 74,52  L 75,52  L 75,51  L 76,51  L 76,50  L 77,50  L 77,49  L 76,49  L 76,48  L 77,48  L 77,47  L 76,47  L 76,45  L 75,45  L 75,43  L 74,43  L 74,42  L 73,42  L 73,41  L 71,41  L 71,40  L 69,40  L 69,39  L 67,39  L 67,38  L 65,38  L 65,37  L 64,37  L 64,36  L 62,36  L 62,35  L 61,35  L 61,34  L 59,34  L 59,33  L 58,33  L 58,32  L 57,32  L 57,31  L 56,31  L 56,30  L 54,30  L 54,29  L 53,29  L 53,28  L 51,28  L 51,27  L 50,27  L 50,26  L 48,26  L 48,24  L 47,24  L 47,21  L 48,21  L 48,19  L 49,19  L 49,17  L 50,17  L 50,16  L 51,16  L 51,15  L 52,15  L 52,14  L 53,14  L 53,9  L 52,9  L 52,7  L 50,7  L 50,6  L 49,6  L 49,5  L 41,5  L 41,6  L 31,6  L 31,7  L 22,7  L 22,8  L 21,8  L 21,7  L 20,7  L 20,8  L 15,8  L 15,9  L 10,9  L 10,10  L 6,10  L 6,11  L 7,11  L 7,12  Z  " style="fill:rgb(0, 0, 0); fill-opacity:1.000; stroke:none;" />
 <path d="  M 90,148  L 90,149  L 89,149  L 89,148  L 88,148  L 88,149  L 84,149  L 84,150  L 83,150  L 83,149  L 82,149  L 82,150  L 75,150  L 75,151  L 73,151  L 73,150  L 71,150  L 71,151  L 50,151  L 50,150  L 48,150  L 48,148  L 47,148  L 47,140  L 46,140  L 46,115  L 47,115  L 47,114  L 50,114  L 50,115  L 51,115  L 51,114  L 60,114  L 60,113  L 72,113  L 72,112  L 75,112  L 75,113  L 76,113  L 76,112  L 79,112  L 79,113  L 80,113  L 80,112  L 83,112  L 83,113  L 84,113  L 84,112  L 85,112  L 85,113  L 93,113  L 93,114  L 95,114  L 95,115  L 97,115  L 97,130  L 96,130  L 96,141  L 95,141  L 95,146  L 94,146  L 94,148  Z  M 43,156  L 45,156  L 45,157  L 46,157  L 46,158  L 69,158  L 69,157  L 70,157  L 70,158  L 73,158  L 73,157  L 74,157  L 74,158  L 76,158  L 76,157  L 88,157  L 88,156  L 92,156  L 92,155  L 93,155  L 93,154  L 96,154  L 96,153  L 97,153  L 97,152  L 99,152  L 99,151  L 100,151  L 100,150  L 101,150  L 101,146  L 102,146  L 102,138  L 103,138  L 103,111  L 102,111  L 102,110  L 101,110  L 101,109  L 99,109  L 99,108  L 97,108  L 97,107  L 95,107  L 95,106  L 91,106  L 91,105  L 72,105  L 72,106  L 60,106  L 60,107  L 46,107  L 46,106  L 44,106  L 44,105  L 40,105  L 40,106  L 38,106  L 38,107  L 36,107  L 36,108  L 32,108  L 32,109  L 30,109  L 30,110  L 29,110  L 29,112  L 28,112  L 28,114  L 29,114  L 29,115  L 30,115  L 30,116  L 33,116  L 33,117  L 34,117  L 34,116  L 39,116  L 39,120  L 40,120  L 40,121  L 39,121  L 39,123  L 40,123  L 40,126  L 39,126  L 39,127  L 40,127  L 40,128  L 39,128  L 39,129  L 40,129  L 40,130  L 39,130  L 39,131  L 40,131  L 40,132  L 39,132  L 39,133  L 40,133  L 40,136  L 39,136  L 39,137  L 40,137  L 40,149  L 41,149  L 41,152  L 42,152  L 42,154  L 43,154  Z  " style="fill:rgb(0, 0, 0); fill-opacity:1.000; stroke:none;" />
 <path d="  M 94,19  L 94,23  L 95,23  L 95,28  L 96,28  L 96,33  L 97,33  L 97,45  L 98,45  L 98,51  L 97,51  L 97,52  L 98,52  L 98,54  L 97,54  L 97,96  L 98,96  L 98,99  L 100,99  L 100,100  L 103,100  L 103,32  L 102,32  L 102,25  L 101,25  L 101,23  L 102,23  L 102,22  L 101,22  L 101,20  L 100,20  L 100,14  L 99,14  L 99,10  L 98,10  L 98,9  L 99,9  L 99,8  L 98,8  L 98,4  L 97,4  L 97,2  L 96,2  L 96,1  L 94,1  L 94,0  L 92,0  L 92,1  L 91,1  L 91,10  L 92,10  L 92,16  L 93,16  L 93,19  Z  " style="fill:rgb(0, 0, 0); fill-opacity:1.000; stroke:none;" />
</svg>
