<?xml version="1.0" encoding="UTF-8" standalone="no"?>
<!DOCTYPE svg PUBLIC "-//W3C//DTD SVG 1.1//EN" 
  "http://www.w3.org/Graphics/SVG/1.1/DTD/svg11.dtd">
<svg width="110" height="154"
     xmlns="http://www.w3.org/2000/svg" version="1.1">
 <path d="  M 38,62  L 38,65  L 37,65  L 37,66  L 38,66  L 38,78  L 37,78  L 37,79  L 30,79  L 30,80  L 23,80  L 23,81  L 13,81  L 13,82  L 8,82  L 8,83  L 4,83  L 4,84  L 3,84  L 3,83  L 2,83  L 2,84  L 1,84  L 1,85  L 0,85  L 0,88  L 1,88  L 1,90  L 6,90  L 6,89  L 11,89  L 11,88  L 15,88  L 15,87  L 22,87  L 22,86  L 30,86  L 30,85  L 37,85  L 37,84  L 43,84  L 43,83  L 44,83  L 44,84  L 45,84  L 45,83  L 67,83  L 67,82  L 68,82  L 68,83  L 70,83  L 70,82  L 72,82  L 72,83  L 78,83  L 78,82  L 82,82  L 82,81  L 83,81  L 83,80  L 84,80  L 84,77  L 83,77  L 83,76  L 81,76  L 81,75  L 74,75  L 74,76  L 56,76  L 56,77  L 55,77  L 55,76  L 54,76  L 54,77  L 51,77  L 51,76  L 49,76  L 49,77  L 45,77  L 45,61  L 44,61  L 44,60  L 45,60  L 45,54  L 46,54  L 46,53  L 45,53  L 45,51  L 46,51  L 46,50  L 45,50  L 45,49  L 38,49  L 38,51  L 37,51  L 37,60  L 38,60  L 38,61  L 37,61  L 37,62  Z  " style="fill:rgb(0, 0, 0); fill-opacity:1.000; stroke:none;" />
 <path d="  M 56,10  L 56,9  L 55,9  L 55,8  L 56,8  L 56,7  L 55,7  L 55,6  L 54,6  L 54,4  L 53,4  L 53,3  L 52,3  L 52,2  L 51,2  L 51,1  L 33,1  L 33,2  L 28,2  L 28,3  L 19,3  L 19,4  L 15,4  L 15,5  L 11,5  L 11,6  L 8,6  L 8,12  L 9,12  L 9,13  L 13,13  L 13,12  L 16,12  L 16,11  L 18,11  L 18,10  L 27,10  L 27,9  L 40,9  L 40,8  L 41,8  L 41,9  L 44,9  L 44,8  L 47,8  L 47,9  L 48,9  L 48,10  L 47,10  L 47,12  L 46,12  L 46,15  L 45,15  L 45,16  L 44,16  L 44,17  L 43,17  L 43,18  L 42,18  L 42,19  L 40,19  L 40,21  L 39,21  L 39,22  L 38,22  L 38,23  L 37,23  L 37,24  L 36,24  L 36,25  L 35,25  L 35,26  L 34,26  L 34,27  L 33,27  L 33,28  L 32,28  L 32,30  L 31,30  L 31,31  L 30,31  L 30,33  L 29,33  L 29,34  L 28,34  L 28,36  L 27,36  L 27,38  L 26,38  L 26,39  L 25,39  L 25,41  L 24,41  L 24,42  L 23,42  L 23,43  L 22,43  L 22,44  L 21,44  L 21,45  L 20,45  L 20,46  L 19,46  L 19,47  L 18,47  L 18,48  L 17,48  L 17,49  L 16,49  L 16,50  L 14,50  L 14,51  L 12,51  L 12,52  L 10,52  L 10,53  L 6,53  L 6,54  L 4,54  L 4,55  L 2,55  L 2,57  L 4,57  L 4,58  L 5,58  L 5,60  L 6,60  L 6,59  L 8,59  L 8,60  L 9,60  L 9,59  L 12,59  L 12,58  L 16,58  L 16,57  L 18,57  L 18,56  L 20,56  L 20,55  L 21,55  L 21,54  L 22,54  L 22,53  L 23,53  L 23,52  L 24,52  L 24,51  L 25,51  L 25,50  L 26,50  L 26,49  L 27,49  L 27,48  L 28,48  L 28,46  L 29,46  L 29,45  L 30,45  L 30,44  L 31,44  L 31,42  L 32,42  L 32,41  L 33,41  L 33,40  L 34,40  L 34,39  L 35,39  L 35,37  L 36,37  L 36,36  L 37,36  L 37,35  L 38,35  L 38,33  L 39,33  L 39,32  L 43,32  L 43,33  L 44,33  L 44,34  L 47,34  L 47,35  L 49,35  L 49,36  L 51,36  L 51,37  L 55,37  L 55,38  L 56,38  L 56,39  L 58,39  L 58,40  L 60,40  L 60,41  L 62,41  L 62,42  L 63,42  L 63,43  L 64,43  L 64,44  L 67,44  L 67,45  L 68,45  L 68,46  L 69,46  L 69,47  L 70,47  L 70,48  L 72,48  L 72,49  L 74,49  L 74,50  L 78,50  L 78,48  L 79,48  L 79,44  L 78,44  L 78,43  L 77,43  L 77,41  L 76,41  L 76,40  L 74,40  L 74,39  L 72,39  L 72,38  L 70,38  L 70,37  L 69,37  L 69,36  L 67,36  L 67,35  L 65,35  L 65,34  L 62,34  L 62,33  L 60,33  L 60,32  L 59,32  L 59,31  L 57,31  L 57,30  L 55,30  L 55,29  L 53,29  L 53,28  L 52,28  L 52,27  L 51,27  L 51,26  L 49,26  L 49,21  L 50,21  L 50,19  L 51,19  L 51,17  L 52,17  L 52,16  L 53,16  L 53,14  L 54,14  L 54,11  L 55,11  L 55,10  Z  " style="fill:rgb(0, 0, 0); fill-opacity:1.000; stroke:none;" />
 <path d="  M 51,132  L 52,132  L 52,131  L 53,131  L 53,130  L 54,130  L 54,129  L 55,129  L 55,126  L 56,126  L 56,124  L 57,124  L 57,122  L 58,122  L 58,121  L 61,121  L 61,123  L 62,123  L 62,124  L 63,124  L 63,126  L 65,126  L 65,127  L 67,127  L 67,128  L 69,128  L 69,129  L 70,129  L 70,130  L 71,130  L 71,131  L 73,131  L 73,132  L 75,132  L 75,133  L 77,133  L 77,134  L 78,134  L 78,135  L 80,135  L 80,136  L 82,136  L 82,137  L 84,137  L 84,138  L 86,138  L 86,139  L 88,139  L 88,140  L 90,140  L 90,141  L 93,141  L 93,142  L 95,142  L 95,143  L 96,143  L 96,144  L 98,144  L 98,145  L 99,145  L 99,146  L 101,146  L 101,147  L 102,147  L 102,148  L 104,148  L 104,149  L 109,149  L 109,148  L 110,148  L 110,144  L 109,144  L 109,143  L 108,143  L 108,142  L 107,142  L 107,141  L 106,141  L 106,140  L 105,140  L 105,139  L 103,139  L 103,138  L 100,138  L 100,137  L 98,137  L 98,136  L 96,136  L 96,135  L 94,135  L 94,134  L 91,134  L 91,133  L 89,133  L 89,132  L 87,132  L 87,131  L 86,131  L 86,130  L 84,130  L 84,129  L 82,129  L 82,128  L 80,128  L 80,127  L 78,127  L 78,126  L 76,126  L 76,125  L 74,125  L 74,124  L 73,124  L 73,123  L 72,123  L 72,122  L 71,122  L 71,121  L 69,121  L 69,120  L 68,120  L 68,119  L 66,119  L 66,117  L 65,117  L 65,116  L 64,116  L 64,112  L 65,112  L 65,111  L 66,111  L 66,110  L 67,110  L 67,109  L 68,109  L 68,108  L 69,108  L 69,106  L 70,106  L 70,105  L 71,105  L 71,104  L 72,104  L 72,102  L 73,102  L 73,100  L 72,100  L 72,97  L 66,97  L 66,99  L 63,99  L 63,102  L 62,102  L 62,103  L 61,103  L 61,105  L 60,105  L 60,107  L 59,107  L 59,108  L 58,108  L 58,109  L 57,109  L 57,111  L 56,111  L 56,113  L 55,113  L 55,115  L 54,115  L 54,116  L 53,116  L 53,118  L 52,118  L 52,119  L 51,119  L 51,121  L 50,121  L 50,122  L 49,122  L 49,123  L 48,123  L 48,125  L 47,125  L 47,127  L 46,127  L 46,128  L 45,128  L 45,129  L 44,129  L 44,131  L 43,131  L 43,133  L 42,133  L 42,134  L 41,134  L 41,135  L 40,135  L 40,137  L 39,137  L 39,138  L 38,138  L 38,139  L 37,139  L 37,140  L 36,140  L 36,142  L 34,142  L 34,143  L 33,143  L 33,144  L 32,144  L 32,146  L 31,146  L 31,147  L 30,147  L 30,148  L 29,148  L 29,149  L 28,149  L 28,154  L 35,154  L 35,152  L 36,152  L 36,151  L 37,151  L 37,150  L 38,150  L 38,149  L 39,149  L 39,148  L 40,148  L 40,147  L 41,147  L 41,145  L 43,145  L 43,143  L 44,143  L 44,142  L 45,142  L 45,141  L 46,141  L 46,140  L 47,140  L 47,138  L 48,138  L 48,137  L 49,137  L 49,136  L 50,136  L 50,134  L 51,134  Z  " style="fill:rgb(0, 0, 0); fill-opacity:1.000; stroke:none;" />
 <path d="  M 103,47  L 102,47  L 102,39  L 101,39  L 101,33  L 100,33  L 100,29  L 99,29  L 99,28  L 100,28  L 100,27  L 99,27  L 99,25  L 98,25  L 98,20  L 97,20  L 97,16  L 96,16  L 96,8  L 95,8  L 95,6  L 94,6  L 94,5  L 93,5  L 93,4  L 91,4  L 91,5  L 90,5  L 90,9  L 89,9  L 89,10  L 90,10  L 90,11  L 89,11  L 89,14  L 90,14  L 90,18  L 91,18  L 91,21  L 92,21  L 92,25  L 93,25  L 93,30  L 94,30  L 94,34  L 95,34  L 95,40  L 96,40  L 96,50  L 97,50  L 97,51  L 96,51  L 96,52  L 97,52  L 97,61  L 96,61  L 96,62  L 97,62  L 97,63  L 96,63  L 96,79  L 95,79  L 95,81  L 96,81  L 96,83  L 95,83  L 95,85  L 96,85  L 96,87  L 95,87  L 95,95  L 96,95  L 96,96  L 99,96  L 99,95  L 100,95  L 100,94  L 101,94  L 101,90  L 102,90  L 102,70  L 103,70  L 103,67  L 102,67  L 102,66  L 103,66  Z  " style="fill:rgb(0, 0, 0); fill-opacity:1.000; stroke:none;" />
</svg>
