<?xml version="1.0" encoding="UTF-8" standalone="no"?>
<!DOCTYPE svg PUBLIC "-//W3C//DTD SVG 1.1//EN" 
  "http://www.w3.org/Graphics/SVG/1.1/DTD/svg11.dtd">
<svg width="106" height="158"
     xmlns="http://www.w3.org/2000/svg" version="1.1">
 <path d="  M 42,87  L 43,87  L 43,88  L 44,88  L 44,87  L 45,87  L 45,88  L 48,88  L 48,87  L 49,87  L 49,88  L 50,88  L 50,87  L 53,87  L 53,88  L 54,88  L 54,87  L 70,87  L 70,86  L 71,86  L 71,87  L 74,87  L 74,86  L 75,86  L 75,87  L 76,87  L 76,86  L 77,86  L 77,87  L 78,87  L 78,86  L 79,86  L 79,87  L 85,87  L 85,86  L 86,86  L 86,85  L 87,85  L 87,84  L 86,84  L 86,82  L 85,82  L 85,81  L 84,81  L 84,80  L 83,80  L 83,79  L 73,79  L 73,80  L 48,80  L 48,78  L 47,78  L 47,77  L 48,77  L 48,76  L 47,76  L 47,73  L 48,73  L 48,72  L 47,72  L 47,55  L 48,55  L 48,53  L 49,53  L 49,52  L 48,52  L 48,51  L 47,51  L 47,50  L 46,50  L 46,51  L 41,51  L 41,52  L 40,52  L 40,81  L 32,81  L 32,82  L 23,82  L 23,83  L 22,83  L 22,82  L 21,82  L 21,83  L 16,83  L 16,84  L 15,84  L 15,83  L 14,83  L 14,84  L 7,84  L 7,85  L 2,85  L 2,86  L 0,86  L 0,89  L 1,89  L 1,91  L 3,91  L 3,92  L 8,92  L 8,91  L 12,91  L 12,90  L 17,90  L 17,89  L 25,89  L 25,88  L 28,88  L 28,89  L 29,89  L 29,88  L 32,88  L 32,89  L 33,89  L 33,88  L 42,88  Z  " style="fill:rgb(0, 0, 0); fill-opacity:1.000; stroke:none;" />
 <path d="  M 74,50  L 74,51  L 77,51  L 77,50  L 78,50  L 78,49  L 77,49  L 77,48  L 78,48  L 78,47  L 77,47  L 77,44  L 76,44  L 76,43  L 75,43  L 75,42  L 73,42  L 73,41  L 71,41  L 71,40  L 69,40  L 69,39  L 67,39  L 67,38  L 65,38  L 65,37  L 64,37  L 64,36  L 63,36  L 63,35  L 61,35  L 61,34  L 59,34  L 59,33  L 58,33  L 58,32  L 56,32  L 56,31  L 55,31  L 55,30  L 53,30  L 53,29  L 52,29  L 52,28  L 51,28  L 51,27  L 49,27  L 49,26  L 48,26  L 48,21  L 49,21  L 49,18  L 50,18  L 50,16  L 51,16  L 51,15  L 52,15  L 52,14  L 53,14  L 53,10  L 54,10  L 54,9  L 53,9  L 53,5  L 52,5  L 52,4  L 51,4  L 51,3  L 50,3  L 50,2  L 49,2  L 49,1  L 43,1  L 43,2  L 32,2  L 32,3  L 27,3  L 27,4  L 21,4  L 21,5  L 19,5  L 19,6  L 13,6  L 13,7  L 10,7  L 10,8  L 8,8  L 8,9  L 7,9  L 7,11  L 8,11  L 8,12  L 7,12  L 7,13  L 8,13  L 8,15  L 12,15  L 12,14  L 13,14  L 13,13  L 16,13  L 16,12  L 22,12  L 22,11  L 28,11  L 28,10  L 32,10  L 32,9  L 39,9  L 39,8  L 45,8  L 45,9  L 46,9  L 46,12  L 45,12  L 45,13  L 44,13  L 44,14  L 43,14  L 43,15  L 42,15  L 42,16  L 41,16  L 41,17  L 40,17  L 40,19  L 39,19  L 39,21  L 38,21  L 38,22  L 37,22  L 37,24  L 36,24  L 36,26  L 35,26  L 35,27  L 34,27  L 34,29  L 33,29  L 33,30  L 32,30  L 32,32  L 31,32  L 31,34  L 30,34  L 30,36  L 29,36  L 29,37  L 28,37  L 28,39  L 27,39  L 27,41  L 26,41  L 26,42  L 25,42  L 25,43  L 24,43  L 24,44  L 23,44  L 23,46  L 22,46  L 22,47  L 21,47  L 21,48  L 19,48  L 19,50  L 18,50  L 18,51  L 17,51  L 17,52  L 15,52  L 15,53  L 13,53  L 13,54  L 11,54  L 11,56  L 7,56  L 7,57  L 6,57  L 6,58  L 4,58  L 4,60  L 5,60  L 5,61  L 6,61  L 6,62  L 7,62  L 7,61  L 12,61  L 12,60  L 15,60  L 15,59  L 18,59  L 18,58  L 20,58  L 20,57  L 21,57  L 21,56  L 22,56  L 22,55  L 24,55  L 24,54  L 25,54  L 25,53  L 26,53  L 26,51  L 27,51  L 27,50  L 28,50  L 28,48  L 29,48  L 29,47  L 30,47  L 30,46  L 31,46  L 31,45  L 32,45  L 32,43  L 33,43  L 33,41  L 34,41  L 34,40  L 35,40  L 35,38  L 36,38  L 36,36  L 37,36  L 37,35  L 38,35  L 38,34  L 39,34  L 39,33  L 42,33  L 42,32  L 43,32  L 43,34  L 45,34  L 45,35  L 48,35  L 48,36  L 51,36  L 51,37  L 53,37  L 53,38  L 54,38  L 54,39  L 56,39  L 56,40  L 58,40  L 58,41  L 59,41  L 59,42  L 61,42  L 61,43  L 63,43  L 63,44  L 65,44  L 65,45  L 66,45  L 66,46  L 69,46  L 69,47  L 70,47  L 70,48  L 71,48  L 71,49  L 73,49  L 73,50  Z  " style="fill:rgb(0, 0, 0); fill-opacity:1.000; stroke:none;" />
 <path d="  M 59,116  L 61,116  L 61,115  L 64,115  L 64,114  L 68,114  L 68,113  L 74,113  L 74,114  L 82,114  L 82,115  L 86,115  L 86,116  L 89,116  L 89,117  L 90,117  L 90,118  L 93,118  L 93,119  L 95,119  L 95,121  L 96,121  L 96,123  L 97,123  L 97,127  L 98,127  L 98,132  L 97,132  L 97,137  L 96,137  L 96,139  L 95,139  L 95,140  L 94,140  L 94,142  L 92,142  L 92,144  L 91,144  L 91,145  L 89,145  L 89,146  L 87,146  L 87,147  L 85,147  L 85,148  L 83,148  L 83,149  L 79,149  L 79,150  L 78,150  L 78,151  L 74,151  L 74,152  L 68,152  L 68,153  L 67,153  L 67,152  L 65,152  L 65,153  L 63,153  L 63,152  L 57,152  L 57,151  L 50,151  L 50,150  L 47,150  L 47,149  L 45,149  L 45,148  L 44,148  L 44,146  L 43,146  L 43,141  L 44,141  L 44,140  L 43,140  L 43,139  L 44,139  L 44,135  L 45,135  L 45,132  L 46,132  L 46,130  L 47,130  L 47,128  L 48,128  L 48,127  L 49,127  L 49,126  L 50,126  L 50,125  L 51,125  L 51,124  L 52,124  L 52,123  L 53,123  L 53,121  L 54,121  L 54,119  L 56,119  L 56,118  L 57,118  L 57,117  L 59,117  Z  M 41,125  L 41,127  L 40,127  L 40,128  L 39,128  L 39,131  L 38,131  L 38,132  L 37,132  L 37,134  L 36,134  L 36,139  L 35,139  L 35,147  L 36,147  L 36,150  L 37,150  L 37,151  L 38,151  L 38,152  L 39,152  L 39,154  L 40,154  L 40,155  L 44,155  L 44,156  L 48,156  L 48,157  L 53,157  L 53,158  L 76,158  L 76,157  L 80,157  L 80,156  L 82,156  L 82,155  L 85,155  L 85,154  L 87,154  L 87,153  L 89,153  L 89,152  L 91,152  L 91,151  L 93,151  L 93,150  L 95,150  L 95,149  L 96,149  L 96,148  L 98,148  L 98,147  L 99,147  L 99,146  L 100,146  L 100,145  L 101,145  L 101,143  L 102,143  L 102,141  L 103,141  L 103,137  L 104,137  L 104,124  L 103,124  L 103,121  L 102,121  L 102,120  L 103,120  L 103,119  L 102,119  L 102,116  L 101,116  L 101,115  L 100,115  L 100,114  L 99,114  L 99,113  L 98,113  L 98,112  L 96,112  L 96,111  L 95,111  L 95,110  L 93,110  L 93,109  L 90,109  L 90,108  L 85,108  L 85,107  L 84,107  L 84,108  L 83,108  L 83,107  L 78,107  L 78,106  L 66,106  L 66,105  L 63,105  L 63,106  L 58,106  L 58,107  L 57,107  L 57,108  L 55,108  L 55,109  L 54,109  L 54,110  L 53,110  L 53,111  L 52,111  L 52,112  L 51,112  L 51,113  L 50,113  L 50,114  L 49,114  L 49,115  L 48,115  L 48,116  L 47,116  L 47,117  L 46,117  L 46,118  L 45,118  L 45,120  L 44,120  L 44,122  L 43,122  L 43,124  L 42,124  L 42,125  Z  " style="fill:rgb(0, 0, 0); fill-opacity:1.000; stroke:none;" />
 <path d="  M 102,107  L 103,107  L 103,108  L 104,108  L 104,107  L 106,107  L 106,91  L 105,91  L 105,76  L 104,76  L 104,75  L 105,75  L 105,74  L 104,74  L 104,73  L 105,73  L 105,72  L 104,72  L 104,71  L 105,71  L 105,70  L 104,70  L 104,52  L 103,52  L 103,41  L 102,41  L 102,37  L 101,37  L 101,32  L 100,32  L 100,28  L 99,28  L 99,26  L 98,26  L 98,22  L 97,22  L 97,20  L 96,20  L 96,16  L 95,16  L 95,14  L 94,14  L 94,7  L 93,7  L 93,4  L 92,4  L 92,3  L 91,3  L 91,2  L 87,2  L 87,3  L 86,3  L 86,7  L 87,7  L 87,11  L 88,11  L 88,15  L 89,15  L 89,18  L 90,18  L 90,21  L 91,21  L 91,23  L 92,23  L 92,28  L 93,28  L 93,30  L 94,30  L 94,33  L 95,33  L 95,37  L 96,37  L 96,41  L 97,41  L 97,54  L 98,54  L 98,84  L 99,84  L 99,95  L 100,95  L 100,96  L 99,96  L 99,99  L 100,99  L 100,103  L 101,103  L 101,106  L 102,106  Z  " style="fill:rgb(0, 0, 0); fill-opacity:1.000; stroke:none;" />
</svg>
