<?xml version="1.0" encoding="UTF-8" standalone="no"?>
<!DOCTYPE svg PUBLIC "-//W3C//DTD SVG 1.1//EN" 
  "http://www.w3.org/Graphics/SVG/1.1/DTD/svg11.dtd">
<svg width="106" height="167"
     xmlns="http://www.w3.org/2000/svg" version="1.1">
 <path d="  M 21,92  L 21,93  L 20,93  L 20,92  L 18,92  L 18,93  L 12,93  L 12,94  L 7,94  L 7,95  L 5,95  L 5,94  L 1,94  L 1,97  L 0,97  L 0,99  L 1,99  L 1,101  L 3,101  L 3,102  L 7,102  L 7,103  L 8,103  L 8,102  L 10,102  L 10,101  L 12,101  L 12,100  L 20,100  L 20,99  L 27,99  L 27,98  L 32,98  L 32,97  L 42,97  L 42,96  L 43,96  L 43,97  L 44,97  L 44,96  L 76,96  L 76,95  L 77,95  L 77,96  L 80,96  L 80,95  L 95,95  L 95,94  L 97,94  L 97,95  L 99,95  L 99,94  L 102,94  L 102,93  L 104,93  L 104,92  L 105,92  L 105,91  L 106,91  L 106,86  L 104,86  L 104,85  L 101,85  L 101,86  L 99,86  L 99,87  L 95,87  L 95,88  L 94,88  L 94,87  L 93,87  L 93,88  L 89,88  L 89,89  L 88,89  L 88,88  L 86,88  L 86,89  L 84,89  L 84,88  L 83,88  L 83,89  L 74,89  L 74,88  L 73,88  L 73,76  L 72,76  L 72,73  L 73,73  L 73,72  L 72,72  L 72,59  L 73,59  L 73,52  L 72,52  L 72,51  L 68,51  L 68,52  L 66,52  L 66,53  L 65,53  L 65,54  L 64,54  L 64,56  L 65,56  L 65,58  L 64,58  L 64,59  L 65,59  L 65,75  L 66,75  L 66,76  L 65,76  L 65,77  L 66,77  L 66,89  L 65,89  L 65,90  L 63,90  L 63,89  L 62,89  L 62,90  L 59,90  L 59,89  L 58,89  L 58,90  L 55,90  L 55,89  L 54,89  L 54,90  L 52,90  L 52,89  L 50,89  L 50,90  L 49,90  L 49,89  L 47,89  L 47,88  L 46,88  L 46,87  L 47,87  L 47,86  L 46,86  L 46,83  L 47,83  L 47,82  L 46,82  L 46,81  L 47,81  L 47,78  L 46,78  L 46,77  L 47,77  L 47,66  L 46,66  L 46,65  L 47,65  L 47,62  L 46,62  L 46,61  L 47,61  L 47,59  L 46,59  L 46,56  L 44,56  L 44,55  L 40,55  L 40,56  L 39,56  L 39,58  L 38,58  L 38,60  L 39,60  L 39,90  L 38,90  L 38,91  L 30,91  L 30,92  Z  " style="fill:rgb(0, 0, 0); fill-opacity:1.000; stroke:none;" />
 <path d="  M 34,46  L 33,46  L 33,48  L 32,48  L 32,49  L 30,49  L 30,50  L 28,50  L 28,51  L 25,51  L 25,52  L 24,52  L 24,53  L 22,53  L 22,54  L 20,54  L 20,55  L 17,55  L 17,56  L 14,56  L 14,57  L 13,57  L 13,59  L 12,59  L 12,60  L 13,60  L 13,61  L 20,61  L 20,60  L 23,60  L 23,59  L 27,59  L 27,58  L 29,58  L 29,57  L 31,57  L 31,56  L 33,56  L 33,55  L 36,55  L 36,54  L 38,54  L 38,53  L 39,53  L 39,52  L 40,52  L 40,49  L 41,49  L 41,47  L 42,47  L 42,45  L 43,45  L 43,44  L 44,44  L 44,41  L 45,41  L 45,39  L 46,39  L 46,38  L 48,38  L 48,37  L 49,37  L 49,35  L 50,35  L 50,33  L 52,33  L 52,31  L 53,31  L 53,30  L 55,30  L 55,29  L 56,29  L 56,30  L 60,30  L 60,31  L 61,31  L 61,32  L 62,32  L 62,31  L 63,31  L 63,33  L 66,33  L 66,34  L 68,34  L 68,35  L 69,35  L 69,36  L 70,36  L 70,35  L 71,35  L 71,36  L 73,36  L 73,37  L 75,37  L 75,38  L 77,38  L 77,39  L 80,39  L 80,40  L 82,40  L 82,41  L 83,41  L 83,42  L 84,42  L 84,45  L 85,45  L 85,47  L 87,47  L 87,48  L 85,48  L 85,49  L 88,49  L 88,50  L 89,50  L 89,49  L 90,49  L 90,48  L 91,48  L 91,47  L 92,47  L 92,45  L 93,45  L 93,44  L 92,44  L 92,40  L 91,40  L 91,39  L 90,39  L 90,37  L 89,37  L 89,36  L 88,36  L 88,35  L 86,35  L 86,34  L 84,34  L 84,33  L 83,33  L 83,32  L 79,32  L 79,31  L 77,31  L 77,30  L 74,30  L 74,29  L 73,29  L 73,28  L 70,28  L 70,27  L 67,27  L 67,26  L 64,26  L 64,25  L 63,25  L 63,24  L 62,24  L 62,20  L 63,20  L 63,18  L 64,18  L 64,17  L 65,17  L 65,15  L 66,15  L 66,7  L 65,7  L 65,5  L 64,5  L 64,4  L 63,4  L 63,2  L 61,2  L 61,1  L 57,1  L 57,0  L 56,0  L 56,1  L 43,1  L 43,2  L 42,2  L 42,1  L 39,1  L 39,2  L 38,2  L 38,1  L 37,1  L 37,2  L 34,2  L 34,3  L 33,3  L 33,2  L 32,2  L 32,3  L 29,3  L 29,4  L 25,4  L 25,5  L 23,5  L 23,6  L 20,6  L 20,7  L 18,7  L 18,8  L 16,8  L 16,9  L 15,9  L 15,10  L 14,10  L 14,13  L 16,13  L 16,14  L 23,14  L 23,13  L 24,13  L 24,12  L 26,12  L 26,11  L 28,11  L 28,10  L 36,10  L 36,9  L 44,9  L 44,8  L 45,8  L 45,9  L 46,9  L 46,8  L 57,8  L 57,9  L 58,9  L 58,10  L 59,10  L 59,12  L 58,12  L 58,13  L 57,13  L 57,14  L 56,14  L 56,16  L 55,16  L 55,17  L 54,17  L 54,18  L 53,18  L 53,19  L 52,19  L 52,20  L 51,20  L 51,23  L 50,23  L 50,24  L 49,24  L 49,25  L 48,25  L 48,26  L 47,26  L 47,27  L 46,27  L 46,28  L 45,28  L 45,30  L 44,30  L 44,31  L 43,31  L 43,32  L 42,32  L 42,34  L 41,34  L 41,35  L 40,35  L 40,37  L 39,37  L 39,38  L 38,38  L 38,39  L 37,39  L 37,41  L 36,41  L 36,43  L 35,43  L 35,45  L 34,45  Z  " style="fill:rgb(0, 0, 0); fill-opacity:1.000; stroke:none;" />
 <path d="  M 22,123  L 29,123  L 29,122  L 30,122  L 30,123  L 31,123  L 31,122  L 34,122  L 34,121  L 35,121  L 35,122  L 36,122  L 36,121  L 44,121  L 44,120  L 45,120  L 45,121  L 46,121  L 46,120  L 52,120  L 52,119  L 64,119  L 64,118  L 65,118  L 65,119  L 67,119  L 67,118  L 69,118  L 69,119  L 73,119  L 73,120  L 74,120  L 74,127  L 73,127  L 73,130  L 72,130  L 72,134  L 71,134  L 71,140  L 70,140  L 70,141  L 71,141  L 71,142  L 70,142  L 70,147  L 69,147  L 69,152  L 68,152  L 68,155  L 67,155  L 67,159  L 66,159  L 66,167  L 71,167  L 71,166  L 72,166  L 72,165  L 73,165  L 73,163  L 74,163  L 74,162  L 73,162  L 73,161  L 74,161  L 74,158  L 75,158  L 75,155  L 76,155  L 76,154  L 75,154  L 75,153  L 76,153  L 76,150  L 77,150  L 77,144  L 78,144  L 78,139  L 79,139  L 79,133  L 80,133  L 80,129  L 81,129  L 81,127  L 82,127  L 82,124  L 83,124  L 83,116  L 82,116  L 82,114  L 81,114  L 81,113  L 80,113  L 80,112  L 76,112  L 76,111  L 63,111  L 63,112  L 62,112  L 62,111  L 61,111  L 61,112  L 55,112  L 55,113  L 46,113  L 46,114  L 45,114  L 45,113  L 44,113  L 44,114  L 35,114  L 35,115  L 32,115  L 32,114  L 31,114  L 31,115  L 26,115  L 26,116  L 21,116  L 21,117  L 20,117  L 20,120  L 21,120  L 21,121  L 22,121  Z  " style="fill:rgb(0, 0, 0); fill-opacity:1.000; stroke:none;" />
</svg>
