<?xml version="1.0" encoding="UTF-8" standalone="no"?>
<!DOCTYPE svg PUBLIC "-//W3C//DTD SVG 1.1//EN" 
  "http://www.w3.org/Graphics/SVG/1.1/DTD/svg11.dtd">
<svg width="110" height="147"
     xmlns="http://www.w3.org/2000/svg" version="1.1">
 <path d="  M 54,78  L 54,79  L 55,79  L 55,91  L 56,91  L 56,92  L 55,92  L 55,93  L 56,93  L 56,96  L 55,96  L 55,97  L 56,97  L 56,116  L 55,116  L 55,124  L 54,124  L 54,134  L 53,134  L 53,135  L 54,135  L 54,145  L 55,145  L 55,147  L 60,147  L 60,146  L 61,146  L 61,145  L 60,145  L 60,141  L 61,141  L 61,131  L 62,131  L 62,123  L 63,123  L 63,111  L 64,111  L 64,110  L 63,110  L 63,109  L 64,109  L 64,106  L 63,106  L 63,105  L 64,105  L 64,100  L 63,100  L 63,99  L 64,99  L 64,98  L 63,98  L 63,88  L 62,88  L 62,87  L 63,87  L 63,86  L 62,86  L 62,78  L 63,78  L 63,77  L 82,77  L 82,76  L 92,76  L 92,75  L 100,75  L 100,74  L 106,74  L 106,73  L 108,73  L 108,71  L 110,71  L 110,66  L 109,66  L 109,65  L 105,65  L 105,64  L 104,64  L 104,65  L 103,65  L 103,66  L 101,66  L 101,67  L 97,67  L 97,68  L 92,68  L 92,69  L 85,69  L 85,70  L 57,70  L 57,71  L 54,71  L 54,70  L 53,70  L 53,71  L 49,71  L 49,72  L 43,72  L 43,73  L 42,73  L 42,72  L 41,72  L 41,73  L 35,73  L 35,74  L 31,74  L 31,75  L 28,75  L 28,76  L 25,76  L 25,77  L 22,77  L 22,78  L 17,78  L 17,79  L 11,79  L 11,80  L 9,80  L 9,81  L 3,81  L 3,82  L 2,82  L 2,84  L 0,84  L 0,85  L 2,85  L 2,86  L 3,86  L 3,87  L 4,87  L 4,88  L 6,88  L 6,87  L 10,87  L 10,86  L 15,86  L 15,85  L 21,85  L 21,84  L 26,84  L 26,83  L 30,83  L 30,82  L 33,82  L 33,81  L 37,81  L 37,80  L 40,80  L 40,79  L 49,79  L 49,78  Z  " style="fill:rgb(0, 0, 0); fill-opacity:1.000; stroke:none;" />
 <path d="  M 34,52  L 35,52  L 35,50  L 36,50  L 36,49  L 37,49  L 37,48  L 38,48  L 38,47  L 39,47  L 39,46  L 40,46  L 40,45  L 41,45  L 41,43  L 42,43  L 42,42  L 43,42  L 43,41  L 44,41  L 44,40  L 45,40  L 45,39  L 46,39  L 46,37  L 47,37  L 47,35  L 49,35  L 49,34  L 50,34  L 50,32  L 51,32  L 51,31  L 54,31  L 54,30  L 56,30  L 56,32  L 58,32  L 58,33  L 60,33  L 60,34  L 63,34  L 63,35  L 66,35  L 66,36  L 69,36  L 69,37  L 71,37  L 71,38  L 74,38  L 74,39  L 75,39  L 75,40  L 77,40  L 77,41  L 79,41  L 79,42  L 81,42  L 81,43  L 82,43  L 82,44  L 83,44  L 83,45  L 84,45  L 84,46  L 85,46  L 85,47  L 87,47  L 87,48  L 89,48  L 89,49  L 91,49  L 91,50  L 92,50  L 92,51  L 94,51  L 94,52  L 95,52  L 95,51  L 96,51  L 96,52  L 98,52  L 98,47  L 97,47  L 97,46  L 96,46  L 96,45  L 95,45  L 95,44  L 94,44  L 94,43  L 93,43  L 93,42  L 91,42  L 91,41  L 89,41  L 89,40  L 87,40  L 87,39  L 85,39  L 85,38  L 84,38  L 84,37  L 83,37  L 83,36  L 81,36  L 81,35  L 80,35  L 80,34  L 79,34  L 79,33  L 78,33  L 78,32  L 75,32  L 75,31  L 72,31  L 72,30  L 70,30  L 70,29  L 69,29  L 69,28  L 66,28  L 66,27  L 63,27  L 63,26  L 60,26  L 60,25  L 59,25  L 59,23  L 60,23  L 60,21  L 61,21  L 61,19  L 62,19  L 62,18  L 63,18  L 63,17  L 64,17  L 64,15  L 65,15  L 65,14  L 66,14  L 66,9  L 67,9  L 67,8  L 66,8  L 66,5  L 65,5  L 65,4  L 64,4  L 64,3  L 63,3  L 63,2  L 62,2  L 62,1  L 49,1  L 49,2  L 40,2  L 40,3  L 38,3  L 38,2  L 37,2  L 37,3  L 34,3  L 34,4  L 28,4  L 28,5  L 26,5  L 26,6  L 24,6  L 24,7  L 22,7  L 22,8  L 19,8  L 19,9  L 18,9  L 18,12  L 17,12  L 17,13  L 19,13  L 19,15  L 23,15  L 23,14  L 25,14  L 25,13  L 26,13  L 26,12  L 29,12  L 29,11  L 33,11  L 33,10  L 37,10  L 37,9  L 46,9  L 46,8  L 47,8  L 47,9  L 48,9  L 48,8  L 58,8  L 58,9  L 59,9  L 59,12  L 57,12  L 57,13  L 56,13  L 56,15  L 55,15  L 55,16  L 54,16  L 54,18  L 53,18  L 53,19  L 52,19  L 52,20  L 51,20  L 51,21  L 50,21  L 50,22  L 49,22  L 49,24  L 48,24  L 48,25  L 47,25  L 47,26  L 46,26  L 46,27  L 45,27  L 45,29  L 44,29  L 44,30  L 43,30  L 43,31  L 42,31  L 42,33  L 41,33  L 41,34  L 40,34  L 40,36  L 38,36  L 38,38  L 36,38  L 36,40  L 35,40  L 35,41  L 34,41  L 34,42  L 33,42  L 33,43  L 32,43  L 32,44  L 31,44  L 31,45  L 30,45  L 30,46  L 29,46  L 29,47  L 28,47  L 28,48  L 27,48  L 27,50  L 25,50  L 25,51  L 24,51  L 24,52  L 23,52  L 23,54  L 21,54  L 21,55  L 20,55  L 20,56  L 19,56  L 19,58  L 17,58  L 17,59  L 16,59  L 16,61  L 17,61  L 17,62  L 18,62  L 18,63  L 21,63  L 21,62  L 23,62  L 23,61  L 25,61  L 25,60  L 26,60  L 26,59  L 27,59  L 27,57  L 29,57  L 29,56  L 30,56  L 30,55  L 31,55  L 31,54  L 32,54  L 32,53  L 34,53  Z  " style="fill:rgb(0, 0, 0); fill-opacity:1.000; stroke:none;" />
</svg>
