<?xml version="1.0" encoding="UTF-8" standalone="no"?>
<!DOCTYPE svg PUBLIC "-//W3C//DTD SVG 1.1//EN" 
  "http://www.w3.org/Graphics/SVG/1.1/DTD/svg11.dtd">
<svg width="110" height="147"
     xmlns="http://www.w3.org/2000/svg" version="1.1">
 <path d="  M 54,147  L 54,146  L 59,146  L 59,145  L 66,145  L 66,144  L 70,144  L 70,143  L 74,143  L 74,142  L 78,142  L 78,141  L 79,141  L 79,140  L 82,140  L 82,139  L 83,139  L 83,138  L 84,138  L 84,137  L 86,137  L 86,134  L 87,134  L 87,133  L 88,133  L 88,129  L 89,129  L 89,124  L 90,124  L 90,119  L 91,119  L 91,112  L 92,112  L 92,97  L 91,97  L 91,96  L 90,96  L 90,95  L 89,95  L 89,94  L 87,94  L 87,93  L 84,93  L 84,94  L 83,94  L 83,93  L 82,93  L 82,94  L 73,94  L 73,95  L 71,95  L 71,94  L 70,94  L 70,95  L 65,95  L 65,94  L 64,94  L 64,89  L 65,89  L 65,88  L 64,88  L 64,86  L 65,86  L 65,68  L 66,68  L 66,67  L 74,67  L 74,66  L 82,66  L 82,65  L 90,65  L 90,64  L 92,64  L 92,65  L 93,65  L 93,64  L 100,64  L 100,63  L 103,63  L 103,62  L 105,62  L 105,61  L 107,61  L 107,60  L 109,60  L 109,58  L 110,58  L 110,53  L 108,53  L 108,52  L 107,52  L 107,53  L 106,53  L 106,52  L 105,52  L 105,53  L 104,53  L 104,52  L 99,52  L 99,51  L 98,51  L 98,52  L 95,52  L 95,56  L 93,56  L 93,57  L 85,57  L 85,58  L 84,58  L 84,57  L 82,57  L 82,58  L 79,58  L 79,59  L 74,59  L 74,60  L 72,60  L 72,59  L 71,59  L 71,60  L 56,60  L 56,61  L 43,61  L 43,62  L 35,62  L 35,63  L 30,63  L 30,64  L 28,64  L 28,63  L 26,63  L 26,64  L 20,64  L 20,65  L 11,65  L 11,66  L 3,66  L 3,67  L 2,67  L 2,68  L 1,68  L 1,69  L 0,69  L 0,71  L 1,71  L 1,72  L 2,72  L 2,73  L 11,73  L 11,72  L 16,72  L 16,71  L 25,71  L 25,70  L 26,70  L 26,71  L 27,71  L 27,70  L 39,70  L 39,69  L 48,69  L 48,68  L 54,68  L 54,67  L 57,67  L 57,68  L 58,68  L 58,91  L 57,91  L 57,93  L 58,93  L 58,95  L 57,95  L 57,96  L 56,96  L 56,97  L 47,97  L 47,98  L 34,98  L 34,97  L 32,97  L 32,98  L 30,98  L 30,99  L 24,99  L 24,100  L 23,100  L 23,101  L 22,101  L 22,102  L 20,102  L 20,104  L 19,104  L 19,105  L 20,105  L 20,106  L 21,106  L 21,107  L 28,107  L 28,143  L 29,143  L 29,145  L 31,145  L 31,146  L 32,146  L 32,147  Z  M 50,141  L 50,142  L 46,142  L 46,143  L 45,143  L 45,142  L 44,142  L 44,143  L 37,143  L 37,142  L 36,142  L 36,137  L 35,137  L 35,136  L 36,136  L 36,134  L 35,134  L 35,132  L 36,132  L 36,130  L 35,130  L 35,128  L 36,128  L 36,126  L 35,126  L 35,125  L 36,125  L 36,122  L 35,122  L 35,121  L 36,121  L 36,118  L 35,118  L 35,117  L 36,117  L 36,116  L 35,116  L 35,115  L 36,115  L 36,114  L 35,114  L 35,113  L 36,113  L 36,112  L 35,112  L 35,107  L 36,107  L 36,105  L 37,105  L 37,104  L 38,104  L 38,105  L 39,105  L 39,104  L 49,104  L 49,103  L 52,103  L 52,104  L 53,104  L 53,103  L 57,103  L 57,102  L 67,102  L 67,101  L 78,101  L 78,100  L 82,100  L 82,99  L 83,99  L 83,100  L 84,100  L 84,101  L 85,101  L 85,110  L 84,110  L 84,113  L 85,113  L 85,114  L 84,114  L 84,119  L 83,119  L 83,124  L 82,124  L 82,129  L 81,129  L 81,132  L 80,132  L 80,134  L 79,134  L 79,135  L 77,135  L 77,136  L 73,136  L 73,137  L 68,137  L 68,138  L 65,138  L 65,139  L 61,139  L 61,140  L 56,140  L 56,141  L 55,141  L 55,140  L 54,140  L 54,141  Z  " style="fill:rgb(0, 0, 0); fill-opacity:1.000; stroke:none;" />
 <path d="  M 14,57  L 15,57  L 15,56  L 14,56  Z  " style="fill:rgb(0, 0, 0); fill-opacity:1.000; stroke:none;" />
 <path d="  M 16,56  L 16,57  L 17,57  L 17,56  Z  " style="fill:rgb(0, 0, 0); fill-opacity:1.000; stroke:none;" />
 <path d="  M 62,33  L 64,33  L 64,34  L 66,34  L 66,35  L 69,35  L 69,36  L 72,36  L 72,38  L 74,38  L 74,39  L 76,39  L 76,40  L 78,40  L 78,41  L 80,41  L 80,42  L 82,42  L 82,43  L 83,43  L 83,44  L 84,44  L 84,45  L 86,45  L 86,46  L 87,46  L 87,47  L 88,47  L 88,48  L 90,48  L 90,49  L 91,49  L 91,50  L 93,50  L 93,49  L 94,49  L 94,47  L 93,47  L 93,43  L 92,43  L 92,42  L 91,42  L 91,40  L 90,40  L 90,39  L 89,39  L 89,38  L 87,38  L 87,37  L 86,37  L 86,36  L 85,36  L 85,35  L 83,35  L 83,34  L 81,34  L 81,33  L 77,33  L 77,32  L 76,32  L 76,31  L 74,31  L 74,30  L 73,30  L 73,29  L 71,29  L 71,28  L 69,28  L 69,27  L 68,27  L 68,26  L 67,26  L 67,25  L 66,25  L 66,24  L 65,24  L 65,20  L 64,20  L 64,18  L 65,18  L 65,17  L 66,17  L 66,10  L 67,10  L 67,9  L 66,9  L 66,7  L 65,7  L 65,6  L 64,6  L 64,4  L 63,4  L 63,3  L 62,3  L 62,2  L 61,2  L 61,1  L 56,1  L 56,2  L 55,2  L 55,1  L 54,1  L 54,2  L 46,2  L 46,3  L 40,3  L 40,4  L 36,4  L 36,5  L 32,5  L 32,6  L 28,6  L 28,7  L 25,7  L 25,8  L 23,8  L 23,10  L 22,10  L 22,11  L 21,11  L 21,12  L 20,12  L 20,13  L 19,13  L 19,16  L 18,16  L 18,17  L 19,17  L 19,18  L 20,18  L 20,19  L 23,19  L 23,18  L 24,18  L 24,17  L 25,17  L 25,16  L 27,16  L 27,15  L 29,15  L 29,14  L 31,14  L 31,13  L 34,13  L 34,12  L 39,12  L 39,11  L 43,11  L 43,10  L 49,10  L 49,9  L 56,9  L 56,8  L 58,8  L 58,9  L 59,9  L 59,12  L 58,12  L 58,14  L 57,14  L 57,16  L 56,16  L 56,17  L 55,17  L 55,18  L 54,18  L 54,19  L 53,19  L 53,20  L 52,20  L 52,22  L 51,22  L 51,23  L 50,23  L 50,25  L 49,25  L 49,26  L 48,26  L 48,27  L 47,27  L 47,29  L 46,29  L 46,30  L 45,30  L 45,31  L 44,31  L 44,32  L 43,32  L 43,34  L 42,34  L 42,35  L 41,35  L 41,37  L 40,37  L 40,38  L 39,38  L 39,39  L 38,39  L 38,40  L 37,40  L 37,41  L 36,41  L 36,42  L 35,42  L 35,43  L 34,43  L 34,44  L 33,44  L 33,45  L 32,45  L 32,46  L 31,46  L 31,47  L 30,47  L 30,48  L 29,48  L 29,49  L 28,49  L 28,50  L 27,50  L 27,51  L 26,51  L 26,53  L 24,53  L 24,54  L 23,54  L 23,55  L 22,55  L 22,56  L 20,56  L 20,57  L 19,57  L 19,58  L 20,58  L 20,59  L 21,59  L 21,61  L 26,61  L 26,60  L 29,60  L 29,59  L 30,59  L 30,57  L 31,57  L 31,56  L 32,56  L 32,55  L 33,55  L 33,54  L 34,54  L 34,53  L 35,53  L 35,52  L 36,52  L 36,51  L 37,51  L 37,50  L 38,50  L 38,48  L 39,48  L 39,47  L 40,47  L 40,45  L 42,45  L 42,44  L 43,44  L 43,42  L 44,42  L 44,41  L 46,41  L 46,40  L 47,40  L 47,38  L 48,38  L 48,37  L 49,37  L 49,35  L 50,35  L 50,34  L 51,34  L 51,32  L 52,32  L 52,31  L 53,31  L 53,30  L 58,30  L 58,31  L 60,31  L 60,32  L 62,32  Z  M 22,60  L 22,59  L 23,59  L 23,60  Z  " style="fill:rgb(0, 0, 0); fill-opacity:1.000; stroke:none;" />
 <path d="  M 18,58  L 18,59  L 19,59  L 19,58  Z  " style="fill:rgb(0, 0, 0); fill-opacity:1.000; stroke:none;" />
</svg>
