<?xml version="1.0" encoding="UTF-8" standalone="no"?>
<!DOCTYPE svg PUBLIC "-//W3C//DTD SVG 1.1//EN" 
  "http://www.w3.org/Graphics/SVG/1.1/DTD/svg11.dtd">
<svg width="105" height="162"
     xmlns="http://www.w3.org/2000/svg" version="1.1">
 <path d="  M 86,46  L 86,47  L 88,47  L 88,48  L 89,48  L 89,47  L 90,47  L 90,45  L 91,45  L 91,40  L 90,40  L 90,39  L 89,39  L 89,38  L 87,38  L 87,37  L 85,37  L 85,36  L 84,36  L 84,35  L 82,35  L 82,34  L 80,34  L 80,33  L 78,33  L 78,32  L 76,32  L 76,31  L 73,31  L 73,30  L 71,30  L 71,29  L 69,29  L 69,28  L 68,28  L 68,27  L 66,27  L 66,26  L 65,26  L 65,25  L 64,25  L 64,24  L 63,24  L 63,23  L 62,23  L 62,22  L 60,22  L 60,21  L 59,21  L 59,20  L 61,20  L 61,17  L 62,17  L 62,15  L 63,15  L 63,12  L 64,12  L 64,11  L 63,11  L 63,6  L 62,6  L 62,5  L 61,5  L 61,4  L 60,4  L 60,3  L 59,3  L 59,2  L 58,2  L 58,1  L 41,1  L 41,2  L 34,2  L 34,3  L 31,3  L 31,4  L 27,4  L 27,5  L 24,5  L 24,6  L 20,6  L 20,7  L 19,7  L 19,8  L 17,8  L 17,9  L 16,9  L 16,10  L 15,10  L 15,12  L 14,12  L 14,13  L 15,13  L 15,15  L 14,15  L 14,16  L 15,16  L 15,17  L 19,17  L 19,16  L 21,16  L 21,15  L 22,15  L 22,14  L 24,14  L 24,13  L 26,13  L 26,12  L 28,12  L 28,11  L 31,11  L 31,10  L 35,10  L 35,9  L 40,9  L 40,8  L 46,8  L 46,7  L 55,7  L 55,8  L 56,8  L 56,12  L 55,12  L 55,13  L 54,13  L 54,15  L 53,15  L 53,16  L 52,16  L 52,18  L 51,18  L 51,20  L 49,20  L 49,22  L 48,22  L 48,24  L 47,24  L 47,25  L 46,25  L 46,26  L 45,26  L 45,28  L 44,28  L 44,29  L 43,29  L 43,31  L 42,31  L 42,32  L 41,32  L 41,33  L 40,33  L 40,35  L 39,35  L 39,36  L 38,36  L 38,38  L 37,38  L 37,39  L 36,39  L 36,40  L 35,40  L 35,41  L 34,41  L 34,42  L 33,42  L 33,43  L 32,43  L 32,45  L 31,45  L 31,46  L 29,46  L 29,47  L 28,47  L 28,48  L 27,48  L 27,49  L 26,49  L 26,50  L 25,50  L 25,51  L 24,51  L 24,52  L 22,52  L 22,53  L 21,53  L 21,54  L 19,54  L 19,55  L 17,55  L 17,56  L 15,56  L 15,57  L 16,57  L 16,58  L 15,58  L 15,59  L 17,59  L 17,60  L 18,60  L 18,59  L 19,59  L 19,60  L 20,60  L 20,62  L 18,62  L 18,63  L 14,63  L 14,64  L 13,64  L 13,65  L 6,65  L 6,66  L 2,66  L 2,67  L 0,67  L 0,71  L 1,71  L 1,72  L 13,72  L 13,71  L 26,71  L 26,70  L 27,70  L 27,71  L 36,71  L 36,70  L 47,70  L 47,69  L 48,69  L 48,70  L 51,70  L 51,69  L 55,69  L 55,101  L 56,101  L 56,103  L 57,103  L 57,104  L 59,104  L 59,103  L 60,103  L 60,101  L 61,101  L 61,95  L 62,95  L 62,94  L 61,94  L 61,93  L 62,93  L 62,92  L 61,92  L 61,91  L 62,91  L 62,71  L 61,71  L 61,70  L 62,70  L 62,69  L 63,69  L 63,68  L 74,68  L 74,67  L 80,67  L 80,66  L 85,66  L 85,65  L 93,65  L 93,64  L 98,64  L 98,63  L 102,63  L 102,61  L 104,61  L 104,60  L 105,60  L 105,54  L 104,54  L 104,55  L 102,55  L 102,54  L 97,54  L 97,53  L 96,53  L 96,54  L 94,54  L 94,55  L 92,55  L 92,56  L 91,56  L 91,57  L 88,57  L 88,58  L 86,58  L 86,59  L 85,59  L 85,58  L 82,58  L 82,59  L 77,59  L 77,60  L 76,60  L 76,59  L 74,59  L 74,60  L 72,60  L 72,61  L 67,61  L 67,62  L 66,62  L 66,61  L 64,61  L 64,62  L 51,62  L 51,63  L 48,63  L 48,62  L 47,62  L 47,63  L 26,63  L 26,59  L 27,59  L 27,58  L 28,58  L 28,57  L 30,57  L 30,55  L 32,55  L 32,53  L 33,53  L 33,52  L 34,52  L 34,51  L 35,51  L 35,50  L 36,50  L 36,48  L 37,48  L 37,47  L 38,47  L 38,46  L 39,46  L 39,45  L 40,45  L 40,43  L 42,43  L 42,42  L 43,42  L 43,41  L 44,41  L 44,39  L 45,39  L 45,38  L 46,38  L 46,36  L 47,36  L 47,35  L 48,35  L 48,34  L 49,34  L 49,32  L 51,32  L 51,31  L 52,31  L 52,30  L 53,30  L 53,29  L 56,29  L 56,30  L 57,30  L 57,31  L 59,31  L 59,32  L 61,32  L 61,33  L 62,33  L 62,34  L 65,34  L 65,35  L 67,35  L 67,36  L 69,36  L 69,37  L 72,37  L 72,38  L 75,38  L 75,39  L 76,39  L 76,40  L 78,40  L 78,41  L 80,41  L 80,43  L 82,43  L 82,44  L 83,44  L 83,45  L 84,45  L 84,46  Z  M 23,62  L 22,62  L 22,61  L 23,61  Z  " style="fill:rgb(0, 0, 0); fill-opacity:1.000; stroke:none;" />
 <path d="  M 79,130  L 78,130  L 78,134  L 77,134  L 77,136  L 76,136  L 76,137  L 75,137  L 75,138  L 74,138  L 74,139  L 73,139  L 73,140  L 72,140  L 72,141  L 70,141  L 70,142  L 69,142  L 69,143  L 68,143  L 68,144  L 67,144  L 67,145  L 65,145  L 65,146  L 63,146  L 63,147  L 61,147  L 61,148  L 59,148  L 59,149  L 57,149  L 57,150  L 55,150  L 55,151  L 53,151  L 53,153  L 50,153  L 50,154  L 48,154  L 48,155  L 44,155  L 44,156  L 42,156  L 42,157  L 40,157  L 40,156  L 37,156  L 37,155  L 36,155  L 36,154  L 35,154  L 35,152  L 34,152  L 34,151  L 33,151  L 33,147  L 32,147  L 32,130  L 33,130  L 33,128  L 34,128  L 34,127  L 35,127  L 35,128  L 36,128  L 36,127  L 37,127  L 37,126  L 38,126  L 38,127  L 39,127  L 39,126  L 40,126  L 40,127  L 41,127  L 41,126  L 43,126  L 43,125  L 44,125  L 44,126  L 45,126  L 45,125  L 51,125  L 51,124  L 64,124  L 64,123  L 65,123  L 65,124  L 67,124  L 67,123  L 79,123  Z  M 51,119  L 51,120  L 48,120  L 48,119  L 47,119  L 47,120  L 41,120  L 41,121  L 40,121  L 40,120  L 39,120  L 39,121  L 34,121  L 34,120  L 33,120  L 33,119  L 32,119  L 32,116  L 33,116  L 33,112  L 34,112  L 34,103  L 35,103  L 35,99  L 36,99  L 36,95  L 35,95  L 35,94  L 34,94  L 34,95  L 31,95  L 31,97  L 30,97  L 30,98  L 29,98  L 29,101  L 28,101  L 28,102  L 27,102  L 27,103  L 28,103  L 28,104  L 27,104  L 27,107  L 26,107  L 26,111  L 25,111  L 25,117  L 24,117  L 24,118  L 25,118  L 25,120  L 24,120  L 24,131  L 25,131  L 25,133  L 24,133  L 24,135  L 25,135  L 25,137  L 24,137  L 24,139  L 25,139  L 25,141  L 24,141  L 24,142  L 25,142  L 25,148  L 26,148  L 26,151  L 27,151  L 27,153  L 28,153  L 28,155  L 29,155  L 29,157  L 30,157  L 30,158  L 31,158  L 31,159  L 32,159  L 32,160  L 33,160  L 33,161  L 34,161  L 34,162  L 46,162  L 46,161  L 49,161  L 49,160  L 50,160  L 50,159  L 54,159  L 54,158  L 56,158  L 56,157  L 58,157  L 58,156  L 59,156  L 59,155  L 62,155  L 62,154  L 63,154  L 63,153  L 64,153  L 64,152  L 66,152  L 66,151  L 69,151  L 69,150  L 70,150  L 70,149  L 71,149  L 71,148  L 72,148  L 72,147  L 74,147  L 74,146  L 76,146  L 76,144  L 78,144  L 78,143  L 80,143  L 80,140  L 81,140  L 81,139  L 82,139  L 82,137  L 83,137  L 83,135  L 84,135  L 84,133  L 85,133  L 85,131  L 86,131  L 86,130  L 85,130  L 85,129  L 86,129  L 86,127  L 87,127  L 87,110  L 86,110  L 86,102  L 85,102  L 85,96  L 84,96  L 84,87  L 83,87  L 83,86  L 80,86  L 80,87  L 79,87  L 79,88  L 78,88  L 78,97  L 79,97  L 79,107  L 80,107  L 80,117  L 74,117  L 74,118  L 65,118  L 65,119  L 64,119  L 64,118  L 63,118  L 63,119  L 62,119  L 62,118  L 61,118  L 61,119  L 60,119  L 60,118  L 59,118  L 59,119  L 58,119  L 58,118  L 57,118  L 57,119  Z  " style="fill:rgb(0, 0, 0); fill-opacity:1.000; stroke:none;" />
 <path d="  M 56,104  L 56,105  L 57,105  L 57,104  Z  " style="fill:rgb(0, 0, 0); fill-opacity:1.000; stroke:none;" />
</svg>
