<?xml version="1.0" encoding="UTF-8" standalone="no"?>
<!DOCTYPE svg PUBLIC "-//W3C//DTD SVG 1.1//EN" 
  "http://www.w3.org/Graphics/SVG/1.1/DTD/svg11.dtd">
<svg width="107" height="157"
     xmlns="http://www.w3.org/2000/svg" version="1.1">
 <path d="  M 58,103  L 57,103  L 57,104  L 58,104  L 58,106  L 57,106  L 57,109  L 51,109  L 51,108  L 49,108  L 49,109  L 45,109  L 45,110  L 44,110  L 44,111  L 42,111  L 42,112  L 41,112  L 41,114  L 39,114  L 39,115  L 38,115  L 38,117  L 37,117  L 37,118  L 36,118  L 36,119  L 35,119  L 35,120  L 34,120  L 34,121  L 33,121  L 33,122  L 32,122  L 32,123  L 31,123  L 31,124  L 30,124  L 30,126  L 29,126  L 29,128  L 28,128  L 28,131  L 27,131  L 27,132  L 26,132  L 26,138  L 25,138  L 25,139  L 26,139  L 26,140  L 25,140  L 25,142  L 26,142  L 26,147  L 27,147  L 27,150  L 28,150  L 28,151  L 30,151  L 30,153  L 31,153  L 31,154  L 33,154  L 33,155  L 35,155  L 35,156  L 37,156  L 37,157  L 67,157  L 67,156  L 68,156  L 68,155  L 71,155  L 71,154  L 72,154  L 72,153  L 73,153  L 73,152  L 74,152  L 74,151  L 75,151  L 75,149  L 76,149  L 76,148  L 77,148  L 77,147  L 78,147  L 78,146  L 79,146  L 79,144  L 80,144  L 80,143  L 81,143  L 81,141  L 82,141  L 82,140  L 83,140  L 83,136  L 84,136  L 84,131  L 85,131  L 85,128  L 84,128  L 84,127  L 85,127  L 85,126  L 84,126  L 84,124  L 83,124  L 83,122  L 82,122  L 82,121  L 81,121  L 81,120  L 80,120  L 80,119  L 79,119  L 79,118  L 78,118  L 78,117  L 77,117  L 77,116  L 76,116  L 76,115  L 75,115  L 75,114  L 74,114  L 74,113  L 71,113  L 71,112  L 69,112  L 69,111  L 66,111  L 66,110  L 65,110  L 65,75  L 73,75  L 73,74  L 88,74  L 88,73  L 89,73  L 89,74  L 90,74  L 90,73  L 91,73  L 91,74  L 92,74  L 92,73  L 104,73  L 104,72  L 107,72  L 107,66  L 104,66  L 104,65  L 98,65  L 98,66  L 91,66  L 91,67  L 83,67  L 83,68  L 80,68  L 80,67  L 79,67  L 79,68  L 65,68  L 65,69  L 45,69  L 45,70  L 44,70  L 44,69  L 42,69  L 42,70  L 40,70  L 40,69  L 39,69  L 39,70  L 30,70  L 30,71  L 28,71  L 28,70  L 27,70  L 27,71  L 19,71  L 19,72  L 11,72  L 11,73  L 0,73  L 0,77  L 1,77  L 1,78  L 2,78  L 2,79  L 16,79  L 16,78  L 24,78  L 24,77  L 25,77  L 25,78  L 26,78  L 26,77  L 36,77  L 36,76  L 58,76  Z  M 59,116  L 59,117  L 65,117  L 65,118  L 67,118  L 67,119  L 70,119  L 70,120  L 72,120  L 72,121  L 73,121  L 73,122  L 75,122  L 75,124  L 76,124  L 76,126  L 77,126  L 77,135  L 76,135  L 76,138  L 75,138  L 75,139  L 74,139  L 74,141  L 73,141  L 73,142  L 72,142  L 72,143  L 71,143  L 71,145  L 70,145  L 70,146  L 69,146  L 69,147  L 67,147  L 67,148  L 66,148  L 66,149  L 63,149  L 63,150  L 58,150  L 58,151  L 47,151  L 47,150  L 40,150  L 40,149  L 37,149  L 37,148  L 36,148  L 36,147  L 34,147  L 34,145  L 33,145  L 33,136  L 34,136  L 34,132  L 35,132  L 35,130  L 36,130  L 36,128  L 37,128  L 37,127  L 38,127  L 38,126  L 39,126  L 39,125  L 40,125  L 40,123  L 42,123  L 42,122  L 43,122  L 43,121  L 44,121  L 44,120  L 45,120  L 45,119  L 47,119  L 47,118  L 48,118  L 48,117  L 51,117  L 51,116  Z  " style="fill:rgb(0, 0, 0); fill-opacity:1.000; stroke:none;" />
 <path d="  M 47,33  L 46,33  L 46,34  L 45,34  L 45,35  L 44,35  L 44,37  L 43,37  L 43,38  L 42,38  L 42,40  L 41,40  L 41,41  L 40,41  L 40,42  L 39,42  L 39,43  L 38,43  L 38,44  L 37,44  L 37,45  L 36,45  L 36,46  L 35,46  L 35,47  L 34,47  L 34,48  L 33,48  L 33,49  L 32,49  L 32,51  L 30,51  L 30,52  L 29,52  L 29,53  L 28,53  L 28,54  L 27,54  L 27,56  L 25,56  L 25,57  L 24,57  L 24,59  L 23,59  L 23,60  L 22,60  L 22,61  L 21,61  L 21,64  L 20,64  L 20,65  L 21,65  L 21,66  L 26,66  L 26,65  L 27,65  L 27,64  L 28,64  L 28,63  L 30,63  L 30,62  L 31,62  L 31,61  L 32,61  L 32,60  L 33,60  L 33,58  L 34,58  L 34,57  L 35,57  L 35,56  L 36,56  L 36,55  L 37,55  L 37,54  L 38,54  L 38,53  L 39,53  L 39,51  L 40,51  L 40,50  L 41,50  L 41,49  L 42,49  L 42,48  L 43,48  L 43,47  L 44,47  L 44,45  L 45,45  L 45,44  L 47,44  L 47,43  L 48,43  L 48,41  L 49,41  L 49,40  L 50,40  L 50,38  L 51,38  L 51,37  L 52,37  L 52,35  L 53,35  L 53,34  L 54,34  L 54,33  L 55,33  L 55,32  L 57,32  L 57,33  L 59,33  L 59,34  L 61,34  L 61,36  L 64,36  L 64,37  L 65,37  L 65,38  L 66,38  L 66,39  L 69,39  L 69,40  L 71,40  L 71,41  L 72,41  L 72,42  L 74,42  L 74,43  L 77,43  L 77,44  L 79,44  L 79,45  L 80,45  L 80,46  L 81,46  L 81,47  L 83,47  L 83,48  L 84,48  L 84,49  L 85,49  L 85,50  L 88,50  L 88,51  L 90,51  L 90,48  L 91,48  L 91,47  L 90,47  L 90,44  L 89,44  L 89,43  L 88,43  L 88,42  L 87,42  L 87,41  L 85,41  L 85,40  L 84,40  L 84,39  L 82,39  L 82,38  L 81,38  L 81,37  L 78,37  L 78,36  L 77,36  L 77,35  L 75,35  L 75,34  L 74,34  L 74,33  L 72,33  L 72,32  L 71,32  L 71,31  L 70,31  L 70,30  L 68,30  L 68,29  L 67,29  L 67,27  L 66,27  L 66,26  L 65,26  L 65,25  L 64,25  L 64,24  L 63,24  L 63,21  L 64,21  L 64,18  L 65,18  L 65,17  L 66,17  L 66,16  L 67,16  L 67,13  L 68,13  L 68,10  L 67,10  L 67,9  L 68,9  L 68,8  L 67,8  L 67,6  L 66,6  L 66,5  L 65,5  L 65,4  L 64,4  L 64,3  L 63,3  L 63,2  L 62,2  L 62,1  L 50,1  L 50,2  L 40,2  L 40,3  L 34,3  L 34,4  L 32,4  L 32,5  L 29,5  L 29,6  L 26,6  L 26,7  L 22,7  L 22,8  L 21,8  L 21,9  L 19,9  L 19,10  L 18,10  L 18,12  L 17,12  L 17,14  L 18,14  L 18,15  L 19,15  L 19,16  L 20,16  L 20,17  L 21,17  L 21,16  L 22,16  L 22,15  L 24,15  L 24,14  L 25,14  L 25,13  L 27,13  L 27,12  L 30,12  L 30,11  L 34,11  L 34,10  L 40,10  L 40,9  L 45,9  L 45,8  L 59,8  L 59,9  L 61,9  L 61,12  L 60,12  L 60,13  L 59,13  L 59,14  L 58,14  L 58,15  L 57,15  L 57,16  L 56,16  L 56,17  L 55,17  L 55,19  L 54,19  L 54,21  L 53,21  L 53,22  L 52,22  L 52,24  L 51,24  L 51,26  L 50,26  L 50,28  L 49,28  L 49,29  L 48,29  L 48,31  L 47,31  Z  " style="fill:rgb(0, 0, 0); fill-opacity:1.000; stroke:none;" />
</svg>
