<?xml version="1.0" encoding="UTF-8" standalone="no"?>
<!DOCTYPE svg PUBLIC "-//W3C//DTD SVG 1.1//EN" 
  "http://www.w3.org/Graphics/SVG/1.1/DTD/svg11.dtd">
<svg width="106" height="149"
     xmlns="http://www.w3.org/2000/svg" version="1.1">
 <path d="  M 30,92  L 31,92  L 31,93  L 32,93  L 32,92  L 33,92  L 33,91  L 34,91  L 34,89  L 35,89  L 35,88  L 36,88  L 36,80  L 37,80  L 37,79  L 36,79  L 36,77  L 37,77  L 37,75  L 36,75  L 36,74  L 37,74  L 37,66  L 36,66  L 36,63  L 37,63  L 37,62  L 43,62  L 43,61  L 49,61  L 49,60  L 57,60  L 57,59  L 66,59  L 66,58  L 72,58  L 72,59  L 74,59  L 74,60  L 75,60  L 75,58  L 76,58  L 76,59  L 77,59  L 77,65  L 73,65  L 73,66  L 72,66  L 72,65  L 71,65  L 71,66  L 67,66  L 67,67  L 63,67  L 63,68  L 62,68  L 62,67  L 61,67  L 61,68  L 58,68  L 58,69  L 55,69  L 55,70  L 51,70  L 51,71  L 49,71  L 49,72  L 47,72  L 47,73  L 46,73  L 46,75  L 47,75  L 47,76  L 46,76  L 46,77  L 51,77  L 51,76  L 55,76  L 55,75  L 61,75  L 61,74  L 67,74  L 67,73  L 68,73  L 68,74  L 69,74  L 69,73  L 79,73  L 79,76  L 80,76  L 80,92  L 79,92  L 79,94  L 80,94  L 80,95  L 81,95  L 81,96  L 83,96  L 83,95  L 84,95  L 84,94  L 85,94  L 85,93  L 86,93  L 86,67  L 85,67  L 85,55  L 84,55  L 84,48  L 83,48  L 83,35  L 82,35  L 82,27  L 81,27  L 81,19  L 80,19  L 80,14  L 79,14  L 79,11  L 78,11  L 78,10  L 75,10  L 75,11  L 74,11  L 74,22  L 75,22  L 75,29  L 76,29  L 76,38  L 77,38  L 77,53  L 76,53  L 76,56  L 75,56  L 75,53  L 73,53  L 73,52  L 72,52  L 72,51  L 70,51  L 70,49  L 69,49  L 69,43  L 68,43  L 68,42  L 67,42  L 67,41  L 65,41  L 65,40  L 64,40  L 64,38  L 62,38  L 62,37  L 61,37  L 61,36  L 59,36  L 59,35  L 58,35  L 58,34  L 56,34  L 56,33  L 55,33  L 55,31  L 53,31  L 53,30  L 52,30  L 52,29  L 50,29  L 50,27  L 48,27  L 48,26  L 47,26  L 47,25  L 46,25  L 46,24  L 45,24  L 45,23  L 44,23  L 44,21  L 45,21  L 45,16  L 46,16  L 46,14  L 47,14  L 47,11  L 48,11  L 48,8  L 47,8  L 47,7  L 46,7  L 46,6  L 45,6  L 45,5  L 44,5  L 44,4  L 43,4  L 43,3  L 42,3  L 42,1  L 39,1  L 39,0  L 38,0  L 38,1  L 35,1  L 35,2  L 30,2  L 30,3  L 29,3  L 29,2  L 28,2  L 28,3  L 20,3  L 20,4  L 15,4  L 15,5  L 10,5  L 10,6  L 8,6  L 8,7  L 7,7  L 7,10  L 6,10  L 6,12  L 7,12  L 7,13  L 8,13  L 8,14  L 12,14  L 12,13  L 13,13  L 13,12  L 15,12  L 15,11  L 21,11  L 21,10  L 31,10  L 31,9  L 37,9  L 37,8  L 38,8  L 38,9  L 39,9  L 39,11  L 40,11  L 40,12  L 39,12  L 39,13  L 38,13  L 38,15  L 37,15  L 37,16  L 36,16  L 36,17  L 35,17  L 35,18  L 34,18  L 34,20  L 33,20  L 33,21  L 32,21  L 32,23  L 30,23  L 30,25  L 29,25  L 29,27  L 28,27  L 28,28  L 27,28  L 27,30  L 26,30  L 26,31  L 25,31  L 25,33  L 24,33  L 24,34  L 23,34  L 23,35  L 22,35  L 22,36  L 21,36  L 21,38  L 20,38  L 20,39  L 18,39  L 18,40  L 17,40  L 17,41  L 16,41  L 16,42  L 15,42  L 15,43  L 13,43  L 13,44  L 11,44  L 11,45  L 10,45  L 10,46  L 8,46  L 8,48  L 6,48  L 6,49  L 4,49  L 4,50  L 5,50  L 5,51  L 4,51  L 4,52  L 7,52  L 7,53  L 8,53  L 8,52  L 9,52  L 9,51  L 10,51  L 10,50  L 14,50  L 14,49  L 16,49  L 16,48  L 18,48  L 18,47  L 19,47  L 19,46  L 21,46  L 21,45  L 22,45  L 22,44  L 23,44  L 23,43  L 24,43  L 24,42  L 25,42  L 25,41  L 26,41  L 26,40  L 27,40  L 27,39  L 28,39  L 28,37  L 30,37  L 30,35  L 31,35  L 31,34  L 32,34  L 32,32  L 34,32  L 34,30  L 36,30  L 36,29  L 38,29  L 38,30  L 39,30  L 39,31  L 41,31  L 41,32  L 43,32  L 43,33  L 45,33  L 45,34  L 47,34  L 47,35  L 48,35  L 48,36  L 50,36  L 50,37  L 51,37  L 51,38  L 52,38  L 52,39  L 54,39  L 54,40  L 55,40  L 55,41  L 57,41  L 57,42  L 58,42  L 58,43  L 59,43  L 59,44  L 61,44  L 61,45  L 63,45  L 63,46  L 64,46  L 64,48  L 65,48  L 65,50  L 63,50  L 63,51  L 60,51  L 60,52  L 57,52  L 57,53  L 53,53  L 53,54  L 47,54  L 47,55  L 38,55  L 38,56  L 30,56  L 30,57  L 21,57  L 21,58  L 17,58  L 17,59  L 13,59  L 13,60  L 10,60  L 10,61  L 4,61  L 4,62  L 1,62  L 1,67  L 2,67  L 2,68  L 7,68  L 7,67  L 9,67  L 9,66  L 14,66  L 14,65  L 19,65  L 19,64  L 20,64  L 20,65  L 21,65  L 21,64  L 27,64  L 27,63  L 29,63  L 29,64  L 30,64  Z  " style="fill:rgb(0, 0, 0); fill-opacity:1.000; stroke:none;" />
 <path d="  M 14,131  L 14,132  L 13,132  L 13,133  L 12,133  L 12,134  L 11,134  L 11,136  L 10,136  L 10,140  L 11,140  L 11,141  L 12,141  L 12,142  L 15,142  L 15,141  L 17,141  L 17,139  L 18,139  L 18,137  L 19,137  L 19,136  L 20,136  L 20,134  L 21,134  L 21,133  L 22,133  L 22,132  L 23,132  L 23,131  L 24,131  L 24,130  L 25,130  L 25,129  L 26,129  L 26,128  L 27,128  L 27,126  L 28,126  L 28,125  L 29,125  L 29,123  L 30,123  L 30,121  L 32,121  L 32,120  L 33,120  L 33,119  L 34,119  L 34,120  L 38,120  L 38,121  L 39,121  L 39,122  L 41,122  L 41,123  L 44,123  L 44,124  L 46,124  L 46,125  L 48,125  L 48,126  L 49,126  L 49,127  L 52,127  L 52,128  L 53,128  L 53,129  L 54,129  L 54,130  L 55,130  L 55,131  L 56,131  L 56,133  L 58,133  L 58,132  L 59,132  L 59,126  L 58,126  L 58,125  L 57,125  L 57,124  L 55,124  L 55,123  L 53,123  L 53,122  L 51,122  L 51,121  L 50,121  L 50,120  L 48,120  L 48,119  L 46,119  L 46,118  L 44,118  L 44,117  L 43,117  L 43,116  L 42,116  L 42,115  L 41,115  L 41,110  L 44,110  L 44,108  L 45,108  L 45,107  L 46,107  L 46,106  L 47,106  L 47,101  L 46,101  L 46,100  L 40,100  L 40,101  L 39,101  L 39,100  L 37,100  L 37,101  L 33,101  L 33,100  L 30,100  L 30,101  L 28,101  L 28,102  L 26,102  L 26,104  L 27,104  L 27,105  L 28,105  L 28,106  L 29,106  L 29,107  L 30,107  L 30,108  L 31,108  L 31,109  L 33,109  L 33,111  L 32,111  L 32,114  L 31,114  L 31,115  L 29,115  L 29,117  L 28,117  L 28,118  L 27,118  L 27,119  L 25,119  L 25,120  L 24,120  L 24,121  L 23,121  L 23,123  L 22,123  L 22,124  L 21,124  L 21,125  L 20,125  L 20,126  L 19,126  L 19,127  L 18,127  L 18,128  L 17,128  L 17,129  L 16,129  L 16,130  L 15,130  L 15,131  Z  " style="fill:rgb(0, 0, 0); fill-opacity:1.000; stroke:none;" />
 <path d="  M 103,147  L 104,147  L 104,146  L 106,146  L 106,136  L 105,136  L 105,135  L 104,135  L 104,134  L 103,134  L 103,133  L 100,133  L 100,132  L 99,132  L 99,131  L 98,131  L 98,130  L 96,130  L 96,129  L 94,129  L 94,128  L 92,128  L 92,127  L 91,127  L 91,126  L 89,126  L 89,125  L 88,125  L 88,124  L 86,124  L 86,123  L 84,123  L 84,122  L 83,122  L 83,121  L 82,121  L 82,120  L 81,120  L 81,119  L 80,119  L 80,118  L 79,118  L 79,116  L 78,116  L 78,109  L 79,109  L 79,106  L 80,106  L 80,101  L 79,101  L 79,100  L 78,100  L 78,99  L 77,99  L 77,100  L 75,100  L 75,101  L 74,101  L 74,103  L 73,103  L 73,106  L 72,106  L 72,111  L 71,111  L 71,115  L 70,115  L 70,117  L 69,117  L 69,119  L 68,119  L 68,121  L 67,121  L 67,125  L 66,125  L 66,127  L 65,127  L 65,129  L 64,129  L 64,131  L 63,131  L 63,132  L 62,132  L 62,133  L 61,133  L 61,134  L 60,134  L 60,135  L 59,135  L 59,133  L 58,133  L 58,136  L 57,136  L 57,138  L 56,138  L 56,139  L 55,139  L 55,141  L 54,141  L 54,145  L 53,145  L 53,149  L 59,149  L 59,148  L 60,148  L 60,147  L 61,147  L 61,144  L 62,144  L 62,141  L 63,141  L 63,140  L 64,140  L 64,138  L 65,138  L 65,136  L 66,136  L 66,135  L 67,135  L 67,134  L 68,134  L 68,132  L 69,132  L 69,130  L 70,130  L 70,128  L 71,128  L 71,127  L 72,127  L 72,125  L 73,125  L 73,124  L 77,124  L 77,126  L 78,126  L 78,127  L 79,127  L 79,128  L 82,128  L 82,129  L 84,129  L 84,130  L 85,130  L 85,131  L 87,131  L 87,132  L 89,132  L 89,133  L 91,133  L 91,134  L 92,134  L 92,135  L 95,135  L 95,137  L 97,137  L 97,138  L 98,138  L 98,139  L 99,139  L 99,141  L 101,141  L 101,143  L 102,143  L 102,145  L 103,145  Z  " style="fill:rgb(0, 0, 0); fill-opacity:1.000; stroke:none;" />
</svg>
