<?xml version="1.0" encoding="UTF-8" standalone="no"?>
<!DOCTYPE svg PUBLIC "-//W3C//DTD SVG 1.1//EN" 
  "http://www.w3.org/Graphics/SVG/1.1/DTD/svg11.dtd">
<svg width="105" height="172"
     xmlns="http://www.w3.org/2000/svg" version="1.1">
 <path d="  M 42,82  L 42,85  L 41,85  L 41,86  L 42,86  L 42,89  L 41,89  L 41,90  L 42,90  L 42,93  L 41,93  L 41,94  L 42,94  L 42,96  L 41,96  L 41,100  L 40,100  L 40,104  L 45,104  L 45,103  L 48,103  L 48,102  L 49,102  L 49,100  L 48,100  L 48,74  L 47,74  L 47,73  L 48,73  L 48,72  L 49,72  L 49,71  L 54,71  L 54,70  L 55,70  L 55,71  L 56,71  L 56,70  L 66,70  L 66,69  L 67,69  L 67,70  L 68,70  L 68,69  L 72,69  L 72,68  L 77,68  L 77,67  L 80,67  L 80,66  L 84,66  L 84,65  L 87,65  L 87,64  L 89,64  L 89,62  L 88,62  L 88,60  L 87,60  L 87,59  L 86,59  L 86,58  L 84,58  L 84,57  L 83,57  L 83,56  L 82,56  L 82,57  L 80,57  L 80,58  L 78,58  L 78,59  L 76,59  L 76,60  L 75,60  L 75,59  L 74,59  L 74,60  L 73,60  L 73,61  L 69,61  L 69,62  L 66,62  L 66,63  L 59,63  L 59,64  L 46,64  L 46,65  L 37,65  L 37,66  L 29,66  L 29,67  L 28,67  L 28,66  L 27,66  L 27,67  L 20,67  L 20,68  L 16,68  L 16,69  L 9,69  L 9,70  L 7,70  L 7,71  L 4,71  L 4,72  L 1,72  L 1,73  L 0,73  L 0,76  L 1,76  L 1,77  L 5,77  L 5,78  L 6,78  L 6,77  L 9,77  L 9,76  L 14,76  L 14,75  L 22,75  L 22,74  L 27,74  L 27,73  L 37,73  L 37,72  L 40,72  L 40,73  L 41,73  L 41,74  L 42,74  L 42,76  L 41,76  L 41,78  L 42,78  L 42,80  L 41,80  L 41,82  Z  " style="fill:rgb(0, 0, 0); fill-opacity:1.000; stroke:none;" />
 <path d="  M 47,32  L 47,33  L 49,33  L 49,34  L 51,34  L 51,35  L 52,35  L 52,36  L 54,36  L 54,37  L 55,37  L 55,38  L 57,38  L 57,39  L 58,39  L 58,40  L 59,40  L 59,41  L 61,41  L 61,42  L 62,42  L 62,43  L 64,43  L 64,44  L 66,44  L 66,45  L 67,45  L 67,46  L 70,46  L 70,47  L 73,47  L 73,48  L 75,48  L 75,49  L 78,49  L 78,50  L 79,50  L 79,49  L 80,49  L 80,48  L 81,48  L 81,47  L 82,47  L 82,46  L 81,46  L 81,45  L 80,45  L 80,44  L 79,44  L 79,43  L 78,43  L 78,42  L 76,42  L 76,41  L 73,41  L 73,40  L 71,40  L 71,39  L 70,39  L 70,38  L 68,38  L 68,37  L 65,37  L 65,36  L 63,36  L 63,35  L 62,35  L 62,34  L 61,34  L 61,33  L 59,33  L 59,32  L 58,32  L 58,31  L 57,31  L 57,30  L 56,30  L 56,29  L 55,29  L 55,28  L 53,28  L 53,27  L 52,27  L 52,26  L 51,26  L 51,25  L 49,25  L 49,21  L 50,21  L 50,19  L 51,19  L 51,17  L 52,17  L 52,15  L 53,15  L 53,14  L 56,14  L 56,13  L 57,13  L 57,11  L 58,11  L 58,10  L 57,10  L 57,6  L 56,6  L 56,5  L 55,5  L 55,4  L 54,4  L 54,3  L 53,3  L 53,2  L 52,2  L 52,1  L 44,1  L 44,2  L 42,2  L 42,1  L 41,1  L 41,2  L 31,2  L 31,3  L 23,3  L 23,4  L 22,4  L 22,3  L 21,3  L 21,4  L 17,4  L 17,5  L 13,5  L 13,6  L 11,6  L 11,7  L 8,7  L 8,9  L 7,9  L 7,10  L 6,10  L 6,11  L 7,11  L 7,13  L 9,13  L 9,14  L 10,14  L 10,13  L 13,13  L 13,12  L 18,12  L 18,11  L 22,11  L 22,10  L 30,10  L 30,9  L 40,9  L 40,8  L 47,8  L 47,9  L 48,9  L 48,11  L 47,11  L 47,12  L 46,12  L 46,13  L 45,13  L 45,14  L 44,14  L 44,15  L 43,15  L 43,16  L 41,16  L 41,19  L 40,19  L 40,20  L 39,20  L 39,22  L 38,22  L 38,23  L 37,23  L 37,26  L 36,26  L 36,27  L 34,27  L 34,30  L 33,30  L 33,31  L 32,31  L 32,33  L 31,33  L 31,34  L 30,34  L 30,35  L 29,35  L 29,37  L 28,37  L 28,38  L 27,38  L 27,39  L 26,39  L 26,40  L 25,40  L 25,41  L 24,41  L 24,43  L 22,43  L 22,45  L 20,45  L 20,46  L 19,46  L 19,48  L 18,48  L 18,49  L 17,49  L 17,50  L 15,50  L 15,51  L 13,51  L 13,52  L 12,52  L 12,53  L 11,53  L 11,54  L 9,54  L 9,55  L 7,55  L 7,58  L 8,58  L 8,59  L 15,59  L 15,58  L 17,58  L 17,57  L 18,57  L 18,56  L 20,56  L 20,55  L 21,55  L 21,54  L 22,54  L 22,53  L 23,53  L 23,52  L 24,52  L 24,51  L 25,51  L 25,50  L 26,50  L 26,49  L 27,49  L 27,48  L 28,48  L 28,47  L 29,47  L 29,46  L 30,46  L 30,45  L 31,45  L 31,43  L 32,43  L 32,42  L 33,42  L 33,41  L 34,41  L 34,39  L 35,39  L 35,38  L 36,38  L 36,37  L 37,37  L 37,36  L 38,36  L 38,35  L 39,35  L 39,34  L 40,34  L 40,32  L 42,32  L 42,31  L 45,31  L 45,32  Z  " style="fill:rgb(0, 0, 0); fill-opacity:1.000; stroke:none;" />
 <path d="  M 6,58  L 6,59  L 7,59  L 7,58  Z  " style="fill:rgb(0, 0, 0); fill-opacity:1.000; stroke:none;" />
 <path d="  M 94,147  L 94,150  L 93,150  L 93,157  L 92,157  L 92,162  L 91,162  L 91,167  L 90,167  L 90,170  L 91,170  L 91,172  L 96,172  L 96,170  L 97,170  L 97,168  L 98,168  L 98,166  L 99,166  L 99,162  L 100,162  L 100,161  L 99,161  L 99,160  L 100,160  L 100,157  L 101,157  L 101,153  L 102,153  L 102,146  L 103,146  L 103,139  L 104,139  L 104,121  L 103,121  L 103,120  L 102,120  L 102,119  L 101,119  L 101,118  L 100,118  L 100,117  L 97,117  L 97,116  L 95,116  L 95,115  L 90,115  L 90,114  L 84,114  L 84,113  L 72,113  L 72,114  L 70,114  L 70,113  L 69,113  L 69,114  L 61,114  L 61,115  L 53,115  L 53,116  L 50,116  L 50,117  L 45,117  L 45,118  L 42,118  L 42,119  L 39,119  L 39,120  L 36,120  L 36,121  L 33,121  L 33,124  L 34,124  L 34,125  L 35,125  L 35,126  L 37,126  L 37,127  L 38,127  L 38,126  L 43,126  L 43,125  L 48,125  L 48,124  L 53,124  L 53,123  L 57,123  L 57,122  L 65,122  L 65,121  L 74,121  L 74,120  L 75,120  L 75,121  L 76,121  L 76,120  L 83,120  L 83,121  L 89,121  L 89,122  L 92,122  L 92,123  L 93,123  L 93,124  L 96,124  L 96,125  L 97,125  L 97,128  L 98,128  L 98,131  L 97,131  L 97,137  L 96,137  L 96,143  L 95,143  L 95,147  Z  " style="fill:rgb(0, 0, 0); fill-opacity:1.000; stroke:none;" />
 <path d="  M 105,31  L 104,31  L 104,30  L 105,30  L 105,29  L 104,29  L 104,23  L 103,23  L 103,22  L 104,22  L 104,21  L 103,21  L 103,15  L 102,15  L 102,9  L 101,9  L 101,6  L 100,6  L 100,5  L 96,5  L 96,6  L 95,6  L 95,13  L 96,13  L 96,18  L 97,18  L 97,26  L 98,26  L 98,33  L 99,33  L 99,108  L 101,108  L 101,109  L 104,109  L 104,108  L 105,108  Z  " style="fill:rgb(0, 0, 0); fill-opacity:1.000; stroke:none;" />
</svg>
