<?xml version="1.0" encoding="UTF-8" standalone="no"?>
<!DOCTYPE svg PUBLIC "-//W3C//DTD SVG 1.1//EN" 
  "http://www.w3.org/Graphics/SVG/1.1/DTD/svg11.dtd">
<svg width="103" height="169"
     xmlns="http://www.w3.org/2000/svg" version="1.1">
 <path d="  M 69,122  L 69,123  L 68,123  L 68,124  L 67,124  L 67,126  L 66,126  L 66,128  L 65,128  L 65,129  L 63,129  L 63,130  L 60,130  L 60,132  L 59,132  L 59,133  L 58,133  L 58,134  L 53,134  L 53,135  L 49,135  L 49,136  L 43,136  L 43,137  L 42,137  L 42,136  L 40,136  L 40,137  L 38,137  L 38,136  L 37,136  L 37,137  L 33,137  L 33,136  L 32,136  L 32,137  L 30,137  L 30,136  L 29,136  L 29,137  L 27,137  L 27,138  L 26,138  L 26,139  L 25,139  L 25,140  L 24,140  L 24,143  L 23,143  L 23,157  L 24,157  L 24,158  L 25,158  L 25,161  L 27,161  L 27,163  L 28,163  L 28,165  L 30,165  L 30,166  L 32,166  L 32,167  L 34,167  L 34,168  L 36,168  L 36,169  L 66,169  L 66,168  L 67,168  L 67,169  L 68,169  L 68,168  L 72,168  L 72,167  L 75,167  L 75,166  L 80,166  L 80,165  L 81,165  L 81,164  L 83,164  L 83,163  L 86,163  L 86,162  L 89,162  L 89,161  L 90,161  L 90,160  L 91,160  L 91,159  L 92,159  L 92,158  L 94,158  L 94,157  L 95,157  L 95,155  L 94,155  L 94,154  L 89,154  L 89,153  L 88,153  L 88,154  L 86,154  L 86,155  L 83,155  L 83,156  L 80,156  L 80,157  L 77,157  L 77,158  L 76,158  L 76,159  L 73,159  L 73,160  L 72,160  L 72,159  L 71,159  L 71,160  L 68,160  L 68,161  L 64,161  L 64,162  L 56,162  L 56,163  L 54,163  L 54,162  L 53,162  L 53,163  L 46,163  L 46,162  L 39,162  L 39,161  L 37,161  L 37,160  L 34,160  L 34,159  L 33,159  L 33,158  L 32,158  L 32,157  L 31,157  L 31,156  L 30,156  L 30,154  L 29,154  L 29,153  L 30,153  L 30,148  L 31,148  L 31,146  L 32,146  L 32,145  L 36,145  L 36,144  L 37,144  L 37,145  L 38,145  L 38,144  L 41,144  L 41,145  L 42,145  L 42,144  L 45,144  L 45,145  L 46,145  L 46,144  L 48,144  L 48,143  L 49,143  L 49,144  L 52,144  L 52,143  L 55,143  L 55,142  L 58,142  L 58,141  L 61,141  L 61,140  L 62,140  L 62,139  L 65,139  L 65,138  L 66,138  L 66,137  L 67,137  L 67,136  L 68,136  L 68,135  L 69,135  L 69,134  L 70,134  L 70,133  L 71,133  L 71,131  L 72,131  L 72,130  L 73,130  L 73,129  L 74,129  L 74,128  L 75,128  L 75,127  L 76,127  L 76,126  L 77,126  L 77,125  L 78,125  L 78,124  L 79,124  L 79,123  L 80,123  L 80,118  L 79,118  L 79,117  L 78,117  L 78,115  L 77,115  L 77,113  L 76,113  L 76,110  L 75,110  L 75,109  L 74,109  L 74,107  L 75,107  L 75,106  L 74,106  L 74,104  L 75,104  L 75,78  L 76,78  L 76,73  L 77,73  L 77,71  L 78,71  L 78,70  L 80,70  L 80,69  L 87,69  L 87,70  L 96,70  L 96,69  L 100,69  L 100,67  L 101,67  L 101,66  L 103,66  L 103,63  L 100,63  L 100,62  L 98,62  L 98,61  L 92,61  L 92,60  L 90,60  L 90,61  L 89,61  L 89,62  L 88,62  L 88,61  L 86,61  L 86,62  L 83,62  L 83,61  L 82,61  L 82,62  L 70,62  L 70,63  L 69,63  L 69,62  L 68,62  L 68,63  L 59,63  L 59,64  L 58,64  L 58,63  L 57,63  L 57,64  L 56,64  L 56,63  L 49,63  L 49,64  L 46,64  L 46,63  L 43,63  L 43,64  L 42,64  L 42,63  L 41,63  L 41,64  L 38,64  L 38,65  L 31,65  L 31,63  L 30,63  L 30,62  L 29,62  L 29,61  L 31,61  L 31,59  L 32,59  L 32,58  L 33,58  L 33,57  L 34,57  L 34,56  L 36,56  L 36,54  L 37,54  L 37,52  L 38,52  L 38,51  L 39,51  L 39,50  L 40,50  L 40,49  L 41,49  L 41,47  L 42,47  L 42,45  L 43,45  L 43,43  L 44,43  L 44,42  L 45,42  L 45,41  L 46,41  L 46,40  L 47,40  L 47,39  L 48,39  L 48,38  L 49,38  L 49,37  L 50,37  L 50,35  L 51,35  L 51,34  L 52,34  L 52,33  L 57,33  L 57,34  L 59,34  L 59,35  L 62,35  L 62,36  L 63,36  L 63,37  L 64,37  L 64,38  L 66,38  L 66,39  L 67,39  L 67,40  L 68,40  L 68,39  L 69,39  L 69,40  L 71,40  L 71,41  L 74,41  L 74,42  L 75,42  L 75,43  L 77,43  L 77,44  L 80,44  L 80,45  L 81,45  L 81,47  L 82,47  L 82,51  L 83,51  L 83,53  L 86,53  L 86,54  L 90,54  L 90,53  L 91,53  L 91,51  L 92,51  L 92,49  L 91,49  L 91,48  L 92,48  L 92,46  L 91,46  L 91,44  L 90,44  L 90,43  L 89,43  L 89,42  L 88,42  L 88,41  L 87,41  L 87,40  L 86,40  L 86,39  L 85,39  L 85,38  L 84,38  L 84,37  L 82,37  L 82,36  L 79,36  L 79,35  L 75,35  L 75,34  L 74,34  L 74,33  L 71,33  L 71,32  L 69,32  L 69,31  L 65,31  L 65,30  L 62,30  L 62,29  L 61,29  L 61,28  L 60,28  L 60,25  L 61,25  L 61,24  L 62,24  L 62,21  L 63,21  L 63,20  L 64,20  L 64,17  L 65,17  L 65,16  L 66,16  L 66,10  L 65,10  L 65,5  L 64,5  L 64,3  L 62,3  L 62,2  L 60,2  L 60,1  L 55,1  L 55,0  L 54,0  L 54,1  L 51,1  L 51,0  L 50,0  L 50,1  L 42,1  L 42,2  L 32,2  L 32,3  L 29,3  L 29,4  L 25,4  L 25,5  L 22,5  L 22,6  L 19,6  L 19,7  L 16,7  L 16,8  L 15,8  L 15,9  L 14,9  L 14,10  L 13,10  L 13,11  L 12,11  L 12,16  L 11,16  L 11,17  L 13,17  L 13,16  L 15,16  L 15,17  L 18,17  L 18,16  L 19,16  L 19,15  L 22,15  L 22,14  L 23,14  L 23,13  L 26,13  L 26,12  L 28,12  L 28,11  L 32,11  L 32,10  L 37,10  L 37,9  L 46,9  L 46,8  L 47,8  L 47,9  L 48,9  L 48,8  L 49,8  L 49,9  L 57,9  L 57,14  L 56,14  L 56,17  L 55,17  L 55,18  L 54,18  L 54,19  L 53,19  L 53,22  L 52,22  L 52,23  L 51,23  L 51,24  L 50,24  L 50,26  L 49,26  L 49,27  L 48,27  L 48,28  L 47,28  L 47,30  L 45,30  L 45,31  L 44,31  L 44,32  L 43,32  L 43,34  L 42,34  L 42,36  L 41,36  L 41,37  L 40,37  L 40,38  L 39,38  L 39,39  L 38,39  L 38,41  L 37,41  L 37,42  L 36,42  L 36,44  L 35,44  L 35,45  L 34,45  L 34,47  L 32,47  L 32,49  L 31,49  L 31,50  L 30,50  L 30,51  L 28,51  L 28,53  L 27,53  L 27,54  L 25,54  L 25,55  L 24,55  L 24,56  L 22,56  L 22,57  L 20,57  L 20,58  L 19,58  L 19,59  L 18,59  L 18,60  L 17,60  L 17,59  L 16,59  L 16,60  L 14,60  L 14,61  L 12,61  L 12,64  L 13,64  L 13,63  L 14,63  L 14,64  L 17,64  L 17,63  L 18,63  L 18,64  L 22,64  L 22,66  L 20,66  L 20,67  L 16,67  L 16,68  L 12,68  L 12,69  L 9,69  L 9,70  L 6,70  L 6,71  L 3,71  L 3,73  L 2,73  L 2,74  L 1,74  L 1,76  L 0,76  L 0,77  L 2,77  L 2,78  L 7,78  L 7,77  L 12,77  L 12,76  L 14,76  L 14,75  L 18,75  L 18,74  L 23,74  L 23,73  L 33,73  L 33,72  L 34,72  L 34,73  L 35,73  L 35,72  L 38,72  L 38,73  L 39,73  L 39,82  L 38,82  L 38,83  L 39,83  L 39,84  L 38,84  L 38,87  L 39,87  L 39,89  L 38,89  L 38,95  L 39,95  L 39,96  L 38,96  L 38,101  L 39,101  L 39,110  L 38,110  L 38,111  L 35,111  L 35,112  L 33,112  L 33,113  L 32,113  L 32,114  L 31,114  L 31,116  L 30,116  L 30,117  L 31,117  L 31,118  L 32,118  L 32,117  L 33,117  L 33,118  L 35,118  L 35,117  L 46,117  L 46,116  L 47,116  L 47,117  L 48,117  L 48,116  L 53,116  L 53,115  L 54,115  L 54,116  L 56,116  L 56,115  L 67,115  L 67,116  L 69,116  L 69,117  L 71,117  L 71,121  L 70,121  L 70,122  Z  M 62,71  L 62,70  L 65,70  L 65,71  L 66,71  L 66,70  L 67,70  L 67,71  L 68,71  L 68,80  L 67,80  L 67,81  L 68,81  L 68,84  L 67,84  L 67,85  L 68,85  L 68,88  L 67,88  L 67,89  L 68,89  L 68,106  L 67,106  L 67,107  L 58,107  L 58,108  L 52,108  L 52,109  L 47,109  L 47,108  L 45,108  L 45,92  L 46,92  L 46,83  L 47,83  L 47,82  L 46,82  L 46,79  L 47,79  L 47,78  L 46,78  L 46,77  L 47,77  L 47,76  L 46,76  L 46,75  L 47,75  L 47,72  L 48,72  L 48,71  Z  M 24,66  L 23,66  L 23,65  L 24,65  Z  M 25,65  L 24,65  L 24,64  L 25,64  Z  " style="fill:rgb(0, 0, 0); fill-opacity:1.000; stroke:none;" />
</svg>
