<?xml version="1.0" encoding="UTF-8" standalone="no"?>
<!DOCTYPE svg PUBLIC "-//W3C//DTD SVG 1.1//EN" 
  "http://www.w3.org/Graphics/SVG/1.1/DTD/svg11.dtd">
<svg width="104" height="110"
     xmlns="http://www.w3.org/2000/svg" version="1.1">
 <path d="  M 3,104  L 3,105  L 0,105  L 0,110  L 1,110  L 1,109  L 2,109  L 2,110  L 24,110  L 24,109  L 33,109  L 33,108  L 40,108  L 40,107  L 48,107  L 48,106  L 49,106  L 49,107  L 50,107  L 50,106  L 62,106  L 62,105  L 63,105  L 63,106  L 64,106  L 64,105  L 82,105  L 82,104  L 102,104  L 102,103  L 103,103  L 103,102  L 104,102  L 104,96  L 99,96  L 99,97  L 91,97  L 91,98  L 61,98  L 61,99  L 58,99  L 58,98  L 57,98  L 57,99  L 49,99  L 49,100  L 39,100  L 39,101  L 31,101  L 31,102  L 21,102  L 21,103  L 10,103  L 10,104  L 9,104  L 9,103  L 8,103  L 8,104  Z  " style="fill:rgb(0, 0, 0); fill-opacity:1.000; stroke:none;" />
 <path d="  M 94,51  L 93,51  L 93,49  L 92,49  L 92,47  L 91,47  L 91,46  L 90,46  L 90,45  L 89,45  L 89,44  L 88,44  L 88,43  L 85,43  L 85,42  L 84,42  L 84,41  L 81,41  L 81,40  L 79,40  L 79,39  L 77,39  L 77,38  L 76,38  L 76,37  L 74,37  L 74,36  L 71,36  L 71,35  L 68,35  L 68,34  L 66,34  L 66,33  L 64,33  L 64,32  L 62,32  L 62,31  L 59,31  L 59,30  L 58,30  L 58,29  L 55,29  L 55,27  L 56,27  L 56,25  L 57,25  L 57,24  L 58,24  L 58,23  L 59,23  L 59,22  L 60,22  L 60,21  L 61,21  L 61,20  L 63,20  L 63,19  L 64,19  L 64,18  L 65,18  L 65,16  L 66,16  L 66,13  L 67,13  L 67,12  L 68,12  L 68,10  L 67,10  L 67,6  L 66,6  L 66,5  L 65,5  L 65,4  L 64,4  L 64,3  L 63,3  L 63,2  L 62,2  L 62,1  L 61,1  L 61,0  L 58,0  L 58,1  L 33,1  L 33,2  L 25,2  L 25,3  L 22,3  L 22,4  L 18,4  L 18,5  L 17,5  L 17,6  L 16,6  L 16,7  L 15,7  L 15,9  L 16,9  L 16,11  L 17,11  L 17,12  L 22,12  L 22,11  L 24,11  L 24,10  L 28,10  L 28,9  L 36,9  L 36,8  L 39,8  L 39,9  L 40,9  L 40,8  L 59,8  L 59,9  L 60,9  L 60,12  L 59,12  L 59,14  L 58,14  L 58,15  L 56,15  L 56,16  L 55,16  L 55,17  L 53,17  L 53,18  L 52,18  L 52,19  L 51,19  L 51,20  L 50,20  L 50,21  L 49,21  L 49,22  L 48,22  L 48,23  L 47,23  L 47,24  L 46,24  L 46,25  L 45,25  L 45,26  L 44,26  L 44,27  L 43,27  L 43,28  L 42,28  L 42,29  L 41,29  L 41,30  L 40,30  L 40,31  L 39,31  L 39,32  L 38,32  L 38,34  L 37,34  L 37,35  L 36,35  L 36,37  L 35,37  L 35,38  L 34,38  L 34,39  L 33,39  L 33,41  L 32,41  L 32,42  L 31,42  L 31,44  L 30,44  L 30,46  L 28,46  L 28,48  L 26,48  L 26,50  L 25,50  L 25,51  L 24,51  L 24,52  L 23,52  L 23,53  L 22,53  L 22,54  L 21,54  L 21,55  L 20,55  L 20,57  L 19,57  L 19,58  L 17,58  L 17,59  L 16,59  L 16,60  L 15,60  L 15,62  L 13,62  L 13,63  L 11,63  L 11,64  L 10,64  L 10,65  L 8,65  L 8,66  L 5,66  L 5,67  L 3,67  L 3,68  L 2,68  L 2,69  L 3,69  L 3,70  L 4,70  L 4,71  L 6,71  L 6,72  L 13,72  L 13,71  L 15,71  L 15,70  L 16,70  L 16,69  L 18,69  L 18,68  L 19,68  L 19,67  L 20,67  L 20,66  L 21,66  L 21,64  L 22,64  L 22,63  L 23,63  L 23,62  L 24,62  L 24,61  L 25,61  L 25,60  L 26,60  L 26,59  L 27,59  L 27,58  L 28,58  L 28,57  L 29,57  L 29,56  L 30,56  L 30,55  L 31,55  L 31,54  L 32,54  L 32,53  L 33,53  L 33,52  L 34,52  L 34,51  L 35,51  L 35,49  L 36,49  L 36,48  L 37,48  L 37,47  L 38,47  L 38,45  L 39,45  L 39,44  L 41,44  L 41,41  L 42,41  L 42,40  L 43,40  L 43,38  L 44,38  L 44,37  L 45,37  L 45,36  L 46,36  L 46,35  L 47,35  L 47,34  L 49,34  L 49,33  L 50,33  L 50,34  L 52,34  L 52,35  L 54,35  L 54,36  L 55,36  L 55,37  L 58,37  L 58,38  L 62,38  L 62,39  L 65,39  L 65,41  L 68,41  L 68,42  L 71,42  L 71,43  L 73,43  L 73,44  L 75,44  L 75,45  L 77,45  L 77,46  L 78,46  L 78,47  L 81,47  L 81,48  L 82,48  L 82,49  L 84,49  L 84,50  L 85,50  L 85,51  L 86,51  L 86,52  L 87,52  L 87,53  L 90,53  L 90,54  L 92,54  L 92,55  L 94,55  L 94,54  L 95,54  L 95,52  L 94,52  Z  " style="fill:rgb(0, 0, 0); fill-opacity:1.000; stroke:none;" />
</svg>
