<?xml version="1.0" encoding="UTF-8" standalone="no"?>
<!DOCTYPE svg PUBLIC "-//W3C//DTD SVG 1.1//EN" 
  "http://www.w3.org/Graphics/SVG/1.1/DTD/svg11.dtd">
<svg width="107" height="157"
     xmlns="http://www.w3.org/2000/svg" version="1.1">
 <path d="  M 58,91  L 58,90  L 59,90  L 59,91  L 61,91  L 61,90  L 67,90  L 67,89  L 72,89  L 72,88  L 80,88  L 80,87  L 86,87  L 86,86  L 88,86  L 88,87  L 89,87  L 89,86  L 92,86  L 92,87  L 93,87  L 93,86  L 98,86  L 98,85  L 99,85  L 99,86  L 100,86  L 100,85  L 105,85  L 105,84  L 106,84  L 106,83  L 107,83  L 107,76  L 104,76  L 104,77  L 101,77  L 101,78  L 96,78  L 96,79  L 94,79  L 94,78  L 93,78  L 93,79  L 90,79  L 90,80  L 79,80  L 79,81  L 78,81  L 78,80  L 77,80  L 77,81  L 66,81  L 66,82  L 59,82  L 59,83  L 58,83  L 58,82  L 57,82  L 57,83  L 54,83  L 54,82  L 53,82  L 53,83  L 49,83  L 49,84  L 37,84  L 37,85  L 32,85  L 32,86  L 31,86  L 31,85  L 30,85  L 30,86  L 25,86  L 25,87  L 19,87  L 19,88  L 11,88  L 11,89  L 10,89  L 10,88  L 9,88  L 9,89  L 2,89  L 2,90  L 1,90  L 1,92  L 0,92  L 0,93  L 1,93  L 1,94  L 2,94  L 2,95  L 3,95  L 3,96  L 20,96  L 20,95  L 27,95  L 27,94  L 28,94  L 28,95  L 29,95  L 29,94  L 34,94  L 34,93  L 42,93  L 42,92  L 50,92  L 50,91  L 51,91  L 51,92  L 52,92  L 52,91  Z  " style="fill:rgb(0, 0, 0); fill-opacity:1.000; stroke:none;" />
 <path d="  M 51,7  L 51,8  L 52,8  L 52,7  L 54,7  L 54,8  L 58,8  L 58,9  L 59,9  L 59,12  L 58,12  L 58,13  L 57,13  L 57,14  L 56,14  L 56,16  L 55,16  L 55,18  L 54,18  L 54,19  L 53,19  L 53,20  L 51,20  L 51,21  L 50,21  L 50,22  L 49,22  L 49,23  L 48,23  L 48,24  L 47,24  L 47,25  L 46,25  L 46,26  L 45,26  L 45,28  L 44,28  L 44,29  L 43,29  L 43,30  L 42,30  L 42,31  L 41,31  L 41,32  L 40,32  L 40,34  L 39,34  L 39,35  L 38,35  L 38,37  L 37,37  L 37,38  L 36,38  L 36,40  L 35,40  L 35,41  L 34,41  L 34,42  L 33,42  L 33,44  L 32,44  L 32,45  L 31,45  L 31,46  L 30,46  L 30,47  L 29,47  L 29,48  L 28,48  L 28,49  L 27,49  L 27,50  L 26,50  L 26,52  L 24,52  L 24,54  L 22,54  L 22,55  L 21,55  L 21,56  L 20,56  L 20,57  L 19,57  L 19,58  L 17,58  L 17,59  L 15,59  L 15,60  L 14,60  L 14,62  L 13,62  L 13,63  L 14,63  L 14,64  L 15,64  L 15,65  L 22,65  L 22,64  L 23,64  L 23,63  L 25,63  L 25,62  L 26,62  L 26,61  L 27,61  L 27,60  L 28,60  L 28,59  L 29,59  L 29,58  L 30,58  L 30,57  L 31,57  L 31,56  L 32,56  L 32,55  L 33,55  L 33,54  L 34,54  L 34,52  L 35,52  L 35,51  L 36,51  L 36,50  L 37,50  L 37,49  L 38,49  L 38,48  L 39,48  L 39,46  L 40,46  L 40,45  L 41,45  L 41,44  L 42,44  L 42,42  L 43,42  L 43,41  L 44,41  L 44,40  L 45,40  L 45,39  L 46,39  L 46,37  L 47,37  L 47,35  L 49,35  L 49,33  L 50,33  L 50,32  L 51,32  L 51,31  L 53,31  L 53,30  L 55,30  L 55,29  L 56,29  L 56,30  L 58,30  L 58,31  L 59,31  L 59,32  L 60,32  L 60,33  L 62,33  L 62,34  L 63,34  L 63,35  L 66,35  L 66,36  L 67,36  L 67,37  L 70,37  L 70,38  L 71,38  L 71,39  L 74,39  L 74,40  L 75,40  L 75,41  L 77,41  L 77,42  L 79,42  L 79,43  L 81,43  L 81,44  L 82,44  L 82,45  L 83,45  L 83,46  L 84,46  L 84,47  L 85,47  L 85,48  L 86,48  L 86,49  L 88,49  L 88,50  L 91,50  L 91,51  L 93,51  L 93,52  L 95,52  L 95,51  L 96,51  L 96,50  L 97,50  L 97,47  L 96,47  L 96,45  L 94,45  L 94,44  L 93,44  L 93,43  L 92,43  L 92,42  L 89,42  L 89,41  L 88,41  L 88,40  L 86,40  L 86,39  L 85,39  L 85,38  L 84,38  L 84,37  L 83,37  L 83,36  L 81,36  L 81,35  L 79,35  L 79,34  L 78,34  L 78,33  L 75,33  L 75,32  L 74,32  L 74,31  L 73,31  L 73,30  L 70,30  L 70,29  L 69,29  L 69,28  L 68,28  L 68,27  L 67,27  L 67,26  L 66,26  L 66,25  L 65,25  L 65,24  L 64,24  L 64,23  L 63,23  L 63,19  L 64,19  L 64,17  L 65,17  L 65,12  L 66,12  L 66,11  L 65,11  L 65,8  L 64,8  L 64,5  L 63,5  L 63,4  L 62,4  L 62,3  L 61,3  L 61,2  L 60,2  L 60,1  L 57,1  L 57,0  L 56,0  L 56,1  L 55,1  L 55,0  L 54,0  L 54,1  L 41,1  L 41,2  L 40,2  L 40,1  L 39,1  L 39,2  L 36,2  L 36,3  L 31,3  L 31,4  L 27,4  L 27,5  L 23,5  L 23,6  L 19,6  L 19,7  L 16,7  L 16,8  L 14,8  L 14,10  L 13,10  L 13,15  L 15,15  L 15,17  L 16,17  L 16,16  L 19,16  L 19,14  L 22,14  L 22,13  L 24,13  L 24,12  L 28,12  L 28,11  L 32,11  L 32,10  L 37,10  L 37,9  L 42,9  L 42,8  L 48,8  L 48,7  Z  " style="fill:rgb(0, 0, 0); fill-opacity:1.000; stroke:none;" />
 <path d="  M 33,110  L 34,110  L 34,106  L 35,106  L 35,104  L 34,104  L 34,103  L 30,103  L 30,104  L 29,104  L 29,106  L 28,106  L 28,107  L 26,107  L 26,109  L 25,109  L 25,146  L 24,146  L 24,147  L 25,147  L 25,150  L 24,150  L 24,151  L 25,151  L 25,154  L 26,154  L 26,156  L 27,156  L 27,157  L 46,157  L 46,156  L 52,156  L 52,155  L 57,155  L 57,154  L 61,154  L 61,153  L 63,153  L 63,154  L 64,154  L 64,153  L 66,153  L 66,152  L 67,152  L 67,153  L 69,153  L 69,152  L 74,152  L 74,151  L 86,151  L 86,150  L 93,150  L 93,149  L 98,149  L 98,148  L 100,148  L 100,147  L 103,147  L 103,146  L 104,146  L 104,145  L 105,145  L 105,142  L 104,142  L 104,141  L 102,141  L 102,140  L 98,140  L 98,141  L 96,141  L 96,142  L 89,142  L 89,143  L 85,143  L 85,144  L 84,144  L 84,143  L 82,143  L 82,144  L 77,144  L 77,145  L 68,145  L 68,146  L 61,146  L 61,147  L 58,147  L 58,146  L 57,146  L 57,147  L 54,147  L 54,148  L 49,148  L 49,149  L 46,149  L 46,150  L 40,150  L 40,151  L 38,151  L 38,150  L 37,150  L 37,151  L 33,151  L 33,150  L 32,150  L 32,149  L 31,149  L 31,147  L 32,147  L 32,146  L 31,146  L 31,143  L 32,143  L 32,142  L 31,142  L 31,141  L 32,141  L 32,140  L 31,140  L 31,139  L 32,139  L 32,119  L 33,119  L 33,118  L 32,118  L 32,117  L 33,117  Z  " style="fill:rgb(0, 0, 0); fill-opacity:1.000; stroke:none;" />
</svg>
