<?xml version="1.0" encoding="UTF-8" standalone="no"?>
<!DOCTYPE svg PUBLIC "-//W3C//DTD SVG 1.1//EN" 
  "http://www.w3.org/Graphics/SVG/1.1/DTD/svg11.dtd">
<svg width="102" height="160"
     xmlns="http://www.w3.org/2000/svg" version="1.1">
 <path d="  M 83,77  L 83,76  L 84,76  L 84,77  L 86,77  L 86,76  L 89,76  L 89,77  L 90,77  L 90,76  L 98,76  L 98,75  L 100,75  L 100,74  L 102,74  L 102,69  L 100,69  L 100,68  L 91,68  L 91,69  L 75,69  L 75,70  L 72,70  L 72,69  L 71,69  L 71,70  L 68,70  L 68,69  L 67,69  L 67,70  L 60,70  L 60,69  L 59,69  L 59,70  L 41,70  L 41,71  L 31,71  L 31,72  L 25,72  L 25,73  L 19,73  L 19,74  L 15,74  L 15,75  L 11,75  L 11,76  L 9,76  L 9,77  L 7,77  L 7,78  L 4,78  L 4,79  L 2,79  L 2,80  L 1,80  L 1,85  L 2,85  L 2,86  L 3,86  L 3,85  L 8,85  L 8,84  L 11,84  L 11,83  L 13,83  L 13,82  L 18,82  L 18,81  L 23,81  L 23,80  L 31,80  L 31,79  L 34,79  L 34,80  L 35,80  L 35,79  L 40,79  L 40,78  L 41,78  L 41,79  L 42,79  L 42,78  L 48,78  L 48,77  L 49,77  L 49,78  L 50,78  L 50,77  Z  " style="fill:rgb(0, 0, 0); fill-opacity:1.000; stroke:none;" />
 <path d="  M 11,14  L 11,13  L 10,13  L 10,14  Z  " style="fill:rgb(0, 0, 0); fill-opacity:1.000; stroke:none;" />
 <path d="  M 61,19  L 62,19  L 62,17  L 63,17  L 63,15  L 64,15  L 64,14  L 65,14  L 65,9  L 66,9  L 66,8  L 65,8  L 65,5  L 64,5  L 64,3  L 63,3  L 63,2  L 61,2  L 61,1  L 60,1  L 60,0  L 59,0  L 59,1  L 56,1  L 56,0  L 55,0  L 55,1  L 52,1  L 52,0  L 51,0  L 51,1  L 48,1  L 48,0  L 47,0  L 47,1  L 44,1  L 44,0  L 43,0  L 43,1  L 30,1  L 30,2  L 25,2  L 25,3  L 22,3  L 22,4  L 20,4  L 20,5  L 18,5  L 18,6  L 16,6  L 16,7  L 15,7  L 15,8  L 14,8  L 14,9  L 13,9  L 13,10  L 12,10  L 12,11  L 11,11  L 11,12  L 12,12  L 12,14  L 13,14  L 13,15  L 15,15  L 15,16  L 16,16  L 16,15  L 18,15  L 18,14  L 20,14  L 20,13  L 21,13  L 21,12  L 23,12  L 23,11  L 25,11  L 25,10  L 32,10  L 32,9  L 38,9  L 38,8  L 39,8  L 39,9  L 42,9  L 42,8  L 53,8  L 53,9  L 54,9  L 54,8  L 55,8  L 55,9  L 56,9  L 56,10  L 57,10  L 57,11  L 56,11  L 56,13  L 55,13  L 55,14  L 54,14  L 54,16  L 53,16  L 53,17  L 52,17  L 52,18  L 51,18  L 51,20  L 50,20  L 50,21  L 49,21  L 49,23  L 48,23  L 48,25  L 47,25  L 47,26  L 46,26  L 46,27  L 45,27  L 45,28  L 44,28  L 44,29  L 43,29  L 43,31  L 42,31  L 42,32  L 41,32  L 41,33  L 40,33  L 40,35  L 39,35  L 39,37  L 38,37  L 38,38  L 37,38  L 37,39  L 36,39  L 36,41  L 35,41  L 35,42  L 34,42  L 34,43  L 33,43  L 33,45  L 32,45  L 32,46  L 31,46  L 31,47  L 30,47  L 30,48  L 29,48  L 29,49  L 28,49  L 28,50  L 27,50  L 27,51  L 26,51  L 26,52  L 25,52  L 25,53  L 24,53  L 24,55  L 23,55  L 23,56  L 21,56  L 21,57  L 20,57  L 20,58  L 19,58  L 19,59  L 18,59  L 18,60  L 17,60  L 17,63  L 15,63  L 15,64  L 17,64  L 17,66  L 18,66  L 18,65  L 19,65  L 19,66  L 20,66  L 20,67  L 21,67  L 21,66  L 24,66  L 24,65  L 26,65  L 26,63  L 27,63  L 27,62  L 28,62  L 28,61  L 29,61  L 29,60  L 30,60  L 30,58  L 31,58  L 31,57  L 32,57  L 32,56  L 33,56  L 33,55  L 34,55  L 34,53  L 35,53  L 35,52  L 36,52  L 36,51  L 37,51  L 37,49  L 39,49  L 39,47  L 40,47  L 40,46  L 41,46  L 41,44  L 42,44  L 42,43  L 43,43  L 43,42  L 44,42  L 44,40  L 45,40  L 45,39  L 46,39  L 46,38  L 47,38  L 47,37  L 48,37  L 48,36  L 49,36  L 49,34  L 50,34  L 50,33  L 51,33  L 51,32  L 52,32  L 52,31  L 53,31  L 53,32  L 57,32  L 57,33  L 59,33  L 59,34  L 61,34  L 61,35  L 63,35  L 63,36  L 64,36  L 64,37  L 65,37  L 65,38  L 68,38  L 68,39  L 69,39  L 69,40  L 72,40  L 72,41  L 74,41  L 74,42  L 76,42  L 76,43  L 77,43  L 77,44  L 79,44  L 79,45  L 80,45  L 80,46  L 81,46  L 81,47  L 82,47  L 82,48  L 83,48  L 83,49  L 84,49  L 84,50  L 88,50  L 88,49  L 89,49  L 89,43  L 88,43  L 88,42  L 87,42  L 87,41  L 85,41  L 85,40  L 84,40  L 84,39  L 83,39  L 83,38  L 81,38  L 81,37  L 80,37  L 80,36  L 78,36  L 78,35  L 77,35  L 77,34  L 75,34  L 75,33  L 73,33  L 73,32  L 71,32  L 71,31  L 70,31  L 70,30  L 68,30  L 68,29  L 66,29  L 66,28  L 63,28  L 63,27  L 59,27  L 59,23  L 60,23  L 60,21  L 61,21  Z  M 58,9  L 58,10  L 57,10  L 57,9  Z  " style="fill:rgb(0, 0, 0); fill-opacity:1.000; stroke:none;" />
 <path d="  M 71,156  L 71,155  L 73,155  L 73,154  L 75,154  L 75,153  L 78,153  L 78,152  L 80,152  L 80,151  L 83,151  L 83,150  L 86,150  L 86,149  L 87,149  L 87,148  L 88,148  L 88,147  L 89,147  L 89,146  L 90,146  L 90,145  L 91,145  L 91,141  L 90,141  L 90,140  L 85,140  L 85,141  L 83,141  L 83,142  L 81,142  L 81,143  L 77,143  L 77,144  L 76,144  L 76,145  L 75,145  L 75,146  L 73,146  L 73,147  L 71,147  L 71,148  L 68,148  L 68,149  L 67,149  L 67,150  L 64,150  L 64,151  L 59,151  L 59,152  L 56,152  L 56,153  L 50,153  L 50,154  L 44,154  L 44,153  L 43,153  L 43,154  L 40,154  L 40,153  L 35,153  L 35,152  L 32,152  L 32,151  L 30,151  L 30,150  L 29,150  L 29,149  L 28,149  L 28,147  L 27,147  L 27,146  L 28,146  L 28,143  L 29,143  L 29,141  L 30,141  L 30,140  L 31,140  L 31,139  L 32,139  L 32,140  L 33,140  L 33,139  L 38,139  L 38,138  L 43,138  L 43,137  L 46,137  L 46,136  L 48,136  L 48,134  L 50,134  L 50,133  L 52,133  L 52,132  L 53,132  L 53,131  L 55,131  L 55,130  L 57,130  L 57,129  L 58,129  L 58,128  L 59,128  L 59,127  L 60,127  L 60,125  L 62,125  L 62,124  L 63,124  L 63,123  L 64,123  L 64,122  L 66,122  L 66,121  L 69,121  L 69,120  L 70,120  L 70,119  L 72,119  L 72,118  L 73,118  L 73,117  L 74,117  L 74,113  L 75,113  L 75,112  L 74,112  L 74,110  L 75,110  L 75,109  L 74,109  L 74,106  L 73,106  L 73,103  L 72,103  L 72,101  L 71,101  L 71,100  L 70,100  L 70,99  L 68,99  L 68,98  L 67,98  L 67,97  L 65,97  L 65,96  L 64,96  L 64,95  L 62,95  L 62,94  L 58,94  L 58,93  L 48,93  L 48,94  L 41,94  L 41,95  L 31,95  L 31,96  L 29,96  L 29,97  L 28,97  L 28,99  L 27,99  L 27,102  L 26,102  L 26,103  L 27,103  L 27,105  L 33,105  L 33,104  L 36,104  L 36,103  L 38,103  L 38,102  L 43,102  L 43,101  L 50,101  L 50,100  L 55,100  L 55,101  L 58,101  L 58,102  L 60,102  L 60,103  L 62,103  L 62,104  L 64,104  L 64,106  L 65,106  L 65,107  L 66,107  L 66,112  L 65,112  L 65,113  L 64,113  L 64,115  L 62,115  L 62,116  L 61,116  L 61,117  L 59,117  L 59,118  L 58,118  L 58,119  L 56,119  L 56,120  L 55,120  L 55,121  L 54,121  L 54,122  L 53,122  L 53,123  L 51,123  L 51,125  L 49,125  L 49,126  L 47,126  L 47,127  L 44,127  L 44,129  L 42,129  L 42,131  L 38,131  L 38,132  L 29,132  L 29,133  L 28,133  L 28,132  L 26,132  L 26,133  L 25,133  L 25,134  L 24,134  L 24,135  L 23,135  L 23,136  L 22,136  L 22,138  L 21,138  L 21,150  L 22,150  L 22,153  L 23,153  L 23,154  L 24,154  L 24,155  L 25,155  L 25,156  L 26,156  L 26,158  L 28,158  L 28,157  L 29,157  L 29,158  L 30,158  L 30,159  L 35,159  L 35,160  L 57,160  L 57,159  L 62,159  L 62,158  L 64,158  L 64,157  L 68,157  L 68,156  Z  " style="fill:rgb(0, 0, 0); fill-opacity:1.000; stroke:none;" />
</svg>
