<?xml version="1.0" encoding="UTF-8" standalone="no"?>
<!DOCTYPE svg PUBLIC "-//W3C//DTD SVG 1.1//EN" 
  "http://www.w3.org/Graphics/SVG/1.1/DTD/svg11.dtd">
<svg width="107" height="158"
     xmlns="http://www.w3.org/2000/svg" version="1.1">
 <path d="  M 55,68  L 55,69  L 36,69  L 36,70  L 35,70  L 35,69  L 34,69  L 34,70  L 27,70  L 27,71  L 23,71  L 23,72  L 20,72  L 20,73  L 14,73  L 14,74  L 10,74  L 10,75  L 5,75  L 5,76  L 1,76  L 1,81  L 2,81  L 2,82  L 4,82  L 4,83  L 6,83  L 6,82  L 10,82  L 10,81  L 13,81  L 13,80  L 18,80  L 18,79  L 25,79  L 25,78  L 31,78  L 31,77  L 38,77  L 38,76  L 46,76  L 46,75  L 49,75  L 49,76  L 50,76  L 50,75  L 57,75  L 57,74  L 58,74  L 58,75  L 59,75  L 59,74  L 71,74  L 71,73  L 83,73  L 83,72  L 99,72  L 99,71  L 101,71  L 101,72  L 102,72  L 102,71  L 106,71  L 106,70  L 107,70  L 107,65  L 106,65  L 106,64  L 105,64  L 105,63  L 100,63  L 100,64  L 99,64  L 99,63  L 97,63  L 97,64  L 93,64  L 93,65  L 85,65  L 85,66  L 80,66  L 80,67  L 79,67  L 79,66  L 78,66  L 78,67  L 69,67  L 69,68  L 67,68  L 67,67  L 66,67  L 66,68  Z  " style="fill:rgb(0, 0, 0); fill-opacity:1.000; stroke:none;" />
 <path d="  M 81,43  L 81,44  L 82,44  L 82,45  L 83,45  L 83,46  L 84,46  L 84,47  L 85,47  L 85,48  L 87,48  L 87,49  L 90,49  L 90,50  L 91,50  L 91,48  L 92,48  L 92,42  L 91,42  L 91,41  L 90,41  L 90,39  L 88,39  L 88,38  L 86,38  L 86,37  L 84,37  L 84,36  L 82,36  L 82,35  L 81,35  L 81,34  L 78,34  L 78,33  L 75,33  L 75,32  L 74,32  L 74,31  L 72,31  L 72,30  L 70,30  L 70,29  L 69,29  L 69,28  L 68,28  L 68,27  L 66,27  L 66,25  L 65,25  L 65,24  L 64,24  L 64,23  L 63,23  L 63,22  L 62,22  L 62,21  L 63,21  L 63,19  L 64,19  L 64,17  L 65,17  L 65,15  L 66,15  L 66,13  L 67,13  L 67,12  L 66,12  L 66,6  L 65,6  L 65,5  L 64,5  L 64,3  L 63,3  L 63,2  L 61,2  L 61,1  L 59,1  L 59,0  L 58,0  L 58,1  L 38,1  L 38,2  L 32,2  L 32,3  L 29,3  L 29,4  L 27,4  L 27,5  L 25,5  L 25,6  L 22,6  L 22,7  L 20,7  L 20,8  L 18,8  L 18,9  L 16,9  L 16,10  L 15,10  L 15,14  L 16,14  L 16,18  L 19,18  L 19,17  L 21,17  L 21,16  L 22,16  L 22,15  L 23,15  L 23,14  L 25,14  L 25,13  L 26,13  L 26,12  L 28,12  L 28,11  L 31,11  L 31,10  L 35,10  L 35,9  L 41,9  L 41,8  L 55,8  L 55,7  L 56,7  L 56,8  L 58,8  L 58,9  L 59,9  L 59,12  L 58,12  L 58,14  L 57,14  L 57,16  L 56,16  L 56,17  L 55,17  L 55,18  L 54,18  L 54,20  L 53,20  L 53,21  L 52,21  L 52,22  L 51,22  L 51,24  L 50,24  L 50,26  L 48,26  L 48,29  L 47,29  L 47,30  L 46,30  L 46,31  L 45,31  L 45,33  L 44,33  L 44,34  L 43,34  L 43,36  L 42,36  L 42,37  L 41,37  L 41,39  L 40,39  L 40,40  L 39,40  L 39,42  L 38,42  L 38,43  L 37,43  L 37,44  L 36,44  L 36,45  L 35,45  L 35,46  L 34,46  L 34,47  L 33,47  L 33,48  L 32,48  L 32,49  L 31,49  L 31,50  L 30,50  L 30,51  L 29,51  L 29,52  L 28,52  L 28,53  L 27,53  L 27,54  L 26,54  L 26,56  L 24,56  L 24,57  L 23,57  L 23,58  L 22,58  L 22,59  L 20,59  L 20,60  L 19,60  L 19,61  L 18,61  L 18,62  L 19,62  L 19,63  L 18,63  L 18,64  L 21,64  L 21,65  L 26,65  L 26,64  L 28,64  L 28,63  L 29,63  L 29,62  L 30,62  L 30,61  L 31,61  L 31,60  L 32,60  L 32,59  L 33,59  L 33,58  L 34,58  L 34,56  L 35,56  L 35,55  L 36,55  L 36,54  L 37,54  L 37,53  L 38,53  L 38,51  L 39,51  L 39,50  L 40,50  L 40,49  L 41,49  L 41,48  L 42,48  L 42,47  L 43,47  L 43,45  L 44,45  L 44,44  L 45,44  L 45,43  L 47,43  L 47,41  L 48,41  L 48,39  L 49,39  L 49,37  L 50,37  L 50,36  L 51,36  L 51,35  L 52,35  L 52,33  L 54,33  L 54,32  L 59,32  L 59,33  L 60,33  L 60,34  L 63,34  L 63,35  L 64,35  L 64,36  L 67,36  L 67,37  L 69,37  L 69,38  L 71,38  L 71,39  L 73,39  L 73,40  L 75,40  L 75,41  L 76,41  L 76,42  L 79,42  L 79,43  Z  " style="fill:rgb(0, 0, 0); fill-opacity:1.000; stroke:none;" />
 <path d="  M 29,143  L 30,143  L 30,147  L 31,147  L 31,149  L 32,149  L 32,151  L 33,151  L 33,152  L 34,152  L 34,154  L 35,154  L 35,155  L 36,155  L 36,156  L 37,156  L 37,158  L 53,158  L 53,157  L 54,157  L 54,156  L 56,156  L 56,155  L 57,155  L 57,154  L 58,154  L 58,153  L 60,153  L 60,152  L 62,152  L 62,151  L 63,151  L 63,150  L 65,150  L 65,149  L 67,149  L 67,148  L 69,148  L 69,147  L 71,147  L 71,146  L 73,146  L 73,145  L 76,145  L 76,144  L 77,144  L 77,143  L 78,143  L 78,141  L 79,141  L 79,139  L 80,139  L 80,136  L 81,136  L 81,133  L 82,133  L 82,128  L 83,128  L 83,125  L 84,125  L 84,120  L 85,120  L 85,119  L 84,119  L 84,88  L 85,88  L 85,80  L 84,80  L 84,79  L 82,79  L 82,80  L 81,80  L 81,81  L 80,81  L 80,82  L 79,82  L 79,84  L 78,84  L 78,89  L 77,89  L 77,110  L 78,110  L 78,111  L 77,111  L 77,117  L 76,117  L 76,118  L 73,118  L 73,117  L 72,117  L 72,118  L 48,118  L 48,119  L 39,119  L 39,120  L 37,120  L 37,119  L 36,119  L 36,116  L 37,116  L 37,115  L 36,115  L 36,112  L 37,112  L 37,111  L 36,111  L 36,110  L 37,110  L 37,104  L 38,104  L 38,98  L 39,98  L 39,90  L 40,90  L 40,87  L 39,87  L 39,86  L 38,86  L 38,85  L 34,85  L 34,86  L 32,86  L 32,90  L 31,90  L 31,97  L 30,97  L 30,105  L 29,105  L 29,109  L 28,109  L 28,110  L 29,110  L 29,111  L 28,111  L 28,112  L 29,112  L 29,113  L 28,113  L 28,131  L 29,131  Z  M 40,126  L 40,125  L 46,125  L 46,124  L 75,124  L 75,125  L 76,125  L 76,129  L 75,129  L 75,134  L 74,134  L 74,136  L 73,136  L 73,137  L 72,137  L 72,138  L 71,138  L 71,139  L 69,139  L 69,140  L 68,140  L 68,141  L 67,141  L 67,142  L 65,142  L 65,143  L 64,143  L 64,144  L 63,144  L 63,145  L 61,145  L 61,146  L 60,146  L 60,147  L 58,147  L 58,148  L 56,148  L 56,149  L 54,149  L 54,150  L 52,150  L 52,151  L 49,151  L 49,152  L 47,152  L 47,151  L 45,151  L 45,152  L 44,152  L 44,151  L 42,151  L 42,150  L 40,150  L 40,149  L 39,149  L 39,148  L 38,148  L 38,146  L 37,146  L 37,141  L 36,141  L 36,140  L 37,140  L 37,139  L 36,139  L 36,136  L 37,136  L 37,135  L 36,135  L 36,126  Z  " style="fill:rgb(0, 0, 0); fill-opacity:1.000; stroke:none;" />
</svg>
