<?xml version="1.0" encoding="UTF-8" standalone="no"?>
<!DOCTYPE svg PUBLIC "-//W3C//DTD SVG 1.1//EN" 
  "http://www.w3.org/Graphics/SVG/1.1/DTD/svg11.dtd">
<svg width="108" height="128"
     xmlns="http://www.w3.org/2000/svg" version="1.1">
 <path d="  M 17,94  L 18,94  L 18,93  L 19,93  L 19,92  L 20,92  L 20,91  L 21,91  L 21,90  L 22,90  L 22,88  L 23,88  L 23,87  L 24,87  L 24,86  L 25,86  L 25,85  L 26,85  L 26,84  L 27,84  L 27,82  L 28,82  L 28,80  L 29,80  L 29,79  L 30,79  L 30,78  L 31,78  L 31,76  L 33,76  L 33,74  L 34,74  L 34,73  L 35,73  L 35,72  L 36,72  L 36,70  L 38,70  L 38,69  L 39,69  L 39,68  L 40,68  L 40,66  L 41,66  L 41,65  L 42,65  L 42,64  L 44,64  L 44,63  L 45,63  L 45,64  L 46,64  L 46,65  L 47,65  L 47,66  L 48,66  L 48,67  L 49,67  L 49,68  L 50,68  L 50,69  L 51,69  L 51,70  L 52,70  L 52,72  L 53,72  L 53,73  L 54,73  L 54,74  L 56,74  L 56,75  L 57,75  L 57,76  L 58,76  L 58,77  L 59,77  L 59,78  L 60,78  L 60,79  L 62,79  L 62,80  L 63,80  L 63,81  L 65,81  L 65,82  L 67,82  L 67,84  L 70,84  L 70,85  L 71,85  L 71,86  L 72,86  L 72,87  L 73,87  L 73,88  L 75,88  L 75,89  L 76,89  L 76,90  L 77,90  L 77,89  L 80,89  L 80,88  L 81,88  L 81,86  L 80,86  L 80,85  L 79,85  L 79,84  L 78,84  L 78,83  L 77,83  L 77,82  L 76,82  L 76,81  L 75,81  L 75,80  L 74,80  L 74,79  L 73,79  L 73,78  L 71,78  L 71,77  L 69,77  L 69,76  L 68,76  L 68,75  L 67,75  L 67,74  L 65,74  L 65,73  L 64,73  L 64,72  L 63,72  L 63,71  L 61,71  L 61,70  L 60,70  L 60,69  L 59,69  L 59,68  L 58,68  L 58,67  L 57,67  L 57,65  L 56,65  L 56,64  L 55,64  L 55,63  L 54,63  L 54,61  L 53,61  L 53,59  L 52,59  L 52,56  L 53,56  L 53,55  L 54,55  L 54,54  L 56,54  L 56,53  L 57,53  L 57,52  L 58,52  L 58,51  L 59,51  L 59,50  L 60,50  L 60,49  L 61,49  L 61,48  L 62,48  L 62,47  L 63,47  L 63,45  L 64,45  L 64,44  L 65,44  L 65,41  L 66,41  L 66,38  L 67,38  L 67,36  L 66,36  L 66,33  L 65,33  L 65,31  L 63,31  L 63,30  L 62,30  L 62,29  L 56,29  L 56,28  L 43,28  L 43,27  L 41,27  L 41,28  L 39,28  L 39,27  L 37,27  L 37,28  L 35,28  L 35,27  L 34,27  L 34,28  L 28,28  L 28,29  L 22,29  L 22,30  L 19,30  L 19,31  L 13,31  L 13,32  L 11,32  L 11,33  L 6,33  L 6,34  L 5,34  L 5,35  L 4,35  L 4,36  L 1,36  L 1,37  L 0,37  L 0,38  L 1,38  L 1,41  L 2,41  L 2,40  L 7,40  L 7,39  L 13,39  L 13,38  L 17,38  L 17,37  L 21,37  L 21,36  L 31,36  L 31,35  L 33,35  L 33,36  L 34,36  L 34,35  L 41,35  L 41,36  L 42,36  L 42,35  L 43,35  L 43,36  L 56,36  L 56,37  L 57,37  L 57,38  L 56,38  L 56,40  L 55,40  L 55,42  L 54,42  L 54,43  L 53,43  L 53,44  L 52,44  L 52,45  L 51,45  L 51,46  L 50,46  L 50,47  L 49,47  L 49,48  L 48,48  L 48,49  L 47,49  L 47,51  L 45,51  L 45,52  L 43,52  L 43,53  L 42,53  L 42,54  L 41,54  L 41,55  L 40,55  L 40,56  L 39,56  L 39,57  L 37,57  L 37,59  L 36,59  L 36,60  L 35,60  L 35,62  L 34,62  L 34,63  L 33,63  L 33,64  L 32,64  L 32,66  L 31,66  L 31,67  L 30,67  L 30,68  L 29,68  L 29,70  L 28,70  L 28,71  L 27,71  L 27,72  L 26,72  L 26,73  L 25,73  L 25,74  L 24,74  L 24,76  L 23,76  L 23,77  L 21,77  L 21,79  L 20,79  L 20,80  L 19,80  L 19,81  L 18,81  L 18,82  L 17,82  L 17,83  L 16,83  L 16,85  L 15,85  L 15,86  L 14,86  L 14,87  L 13,87  L 13,88  L 12,88  L 12,89  L 11,89  L 11,90  L 10,90  L 10,91  L 9,91  L 9,92  L 8,92  L 8,96  L 7,96  L 7,98  L 8,98  L 8,100  L 9,100  L 9,101  L 12,101  L 12,100  L 14,100  L 14,98  L 15,98  L 15,97  L 16,97  L 16,96  L 17,96  Z  " style="fill:rgb(0, 0, 0); fill-opacity:1.000; stroke:none;" />
 <path d="  M 97,10  L 98,10  L 98,16  L 99,16  L 99,19  L 100,19  L 100,20  L 99,20  L 99,21  L 100,21  L 100,26  L 101,26  L 101,32  L 102,32  L 102,57  L 103,57  L 103,60  L 102,60  L 102,61  L 103,61  L 103,63  L 102,63  L 102,64  L 103,64  L 103,65  L 102,65  L 102,69  L 103,69  L 103,71  L 102,71  L 102,115  L 101,115  L 101,116  L 102,116  L 102,119  L 101,119  L 101,127  L 102,127  L 102,128  L 108,128  L 108,25  L 107,25  L 107,20  L 106,20  L 106,13  L 105,13  L 105,7  L 104,7  L 104,2  L 103,2  L 103,1  L 102,1  L 102,0  L 100,0  L 100,1  L 98,1  L 98,2  L 97,2  L 97,3  L 96,3  L 96,4  L 97,4  Z  " style="fill:rgb(0, 0, 0); fill-opacity:1.000; stroke:none;" />
</svg>
