<?xml version="1.0" encoding="UTF-8" standalone="no"?>
<!DOCTYPE svg PUBLIC "-//W3C//DTD SVG 1.1//EN" 
  "http://www.w3.org/Graphics/SVG/1.1/DTD/svg11.dtd">
<svg width="101" height="172"
     xmlns="http://www.w3.org/2000/svg" version="1.1">
 <path d="  M 25,21  L 25,20  L 30,20  L 30,19  L 34,19  L 34,18  L 40,18  L 40,17  L 47,17  L 47,18  L 48,18  L 48,19  L 49,19  L 49,21  L 48,21  L 48,22  L 47,22  L 47,23  L 46,23  L 46,24  L 43,24  L 43,25  L 41,25  L 41,26  L 40,26  L 40,28  L 39,28  L 39,29  L 38,29  L 38,30  L 37,30  L 37,31  L 36,31  L 36,32  L 35,32  L 35,33  L 34,33  L 34,34  L 33,34  L 33,35  L 32,35  L 32,37  L 31,37  L 31,38  L 30,38  L 30,39  L 29,39  L 29,41  L 28,41  L 28,43  L 27,43  L 27,44  L 26,44  L 26,45  L 25,45  L 25,47  L 24,47  L 24,49  L 23,49  L 23,50  L 22,50  L 22,51  L 21,51  L 21,53  L 19,53  L 19,55  L 18,55  L 18,57  L 17,57  L 17,58  L 16,58  L 16,59  L 15,59  L 15,61  L 13,61  L 13,63  L 11,63  L 11,64  L 10,64  L 10,65  L 9,65  L 9,66  L 8,66  L 8,67  L 7,67  L 7,68  L 6,68  L 6,69  L 5,69  L 5,70  L 3,70  L 3,71  L 1,71  L 1,72  L 0,72  L 0,74  L 1,74  L 1,76  L 2,76  L 2,78  L 3,78  L 3,79  L 6,79  L 6,78  L 8,78  L 8,77  L 10,77  L 10,76  L 11,76  L 11,75  L 12,75  L 12,74  L 14,74  L 14,72  L 15,72  L 15,71  L 16,71  L 16,70  L 17,70  L 17,69  L 19,69  L 19,67  L 20,67  L 20,66  L 21,66  L 21,65  L 22,65  L 22,64  L 23,64  L 23,62  L 24,62  L 24,61  L 25,61  L 25,60  L 26,60  L 26,59  L 27,59  L 27,57  L 28,57  L 28,56  L 29,56  L 29,54  L 30,54  L 30,53  L 31,53  L 31,52  L 33,52  L 33,53  L 34,53  L 34,54  L 36,54  L 36,56  L 39,56  L 39,58  L 40,58  L 40,59  L 41,59  L 41,60  L 43,60  L 43,62  L 44,62  L 44,63  L 46,63  L 46,64  L 47,64  L 47,65  L 48,65  L 48,66  L 50,66  L 50,67  L 52,67  L 52,68  L 53,68  L 53,70  L 55,70  L 55,71  L 56,71  L 56,72  L 57,72  L 57,73  L 59,73  L 59,74  L 63,74  L 63,72  L 64,72  L 64,71  L 63,71  L 63,69  L 62,69  L 62,68  L 61,68  L 61,67  L 60,67  L 60,66  L 59,66  L 59,65  L 58,65  L 58,64  L 57,64  L 57,63  L 56,63  L 56,62  L 54,62  L 54,60  L 52,60  L 52,59  L 51,59  L 51,58  L 50,58  L 50,57  L 49,57  L 49,56  L 48,56  L 48,55  L 47,55  L 47,53  L 46,53  L 46,52  L 45,52  L 45,51  L 44,51  L 44,50  L 43,50  L 43,49  L 42,49  L 42,48  L 41,48  L 41,46  L 40,46  L 40,45  L 39,45  L 39,44  L 38,44  L 38,43  L 37,43  L 37,40  L 38,40  L 38,39  L 39,39  L 39,38  L 40,38  L 40,36  L 41,36  L 41,35  L 42,35  L 42,34  L 43,34  L 43,33  L 44,33  L 44,32  L 45,32  L 45,31  L 47,31  L 47,30  L 48,30  L 48,29  L 50,29  L 50,28  L 51,28  L 51,27  L 52,27  L 52,26  L 53,26  L 53,25  L 54,25  L 54,23  L 55,23  L 55,22  L 56,22  L 56,17  L 55,17  L 55,14  L 54,14  L 54,13  L 53,13  L 53,12  L 52,12  L 52,11  L 51,11  L 51,10  L 44,10  L 44,11  L 43,11  L 43,10  L 42,10  L 42,11  L 34,11  L 34,12  L 28,12  L 28,13  L 24,13  L 24,14  L 19,14  L 19,15  L 14,15  L 14,16  L 11,16  L 11,17  L 8,17  L 8,18  L 7,18  L 7,22  L 8,22  L 8,24  L 14,24  L 14,23  L 17,23  L 17,22  L 19,22  L 19,21  Z  " style="fill:rgb(0, 0, 0); fill-opacity:1.000; stroke:none;" />
 <path d="  M 78,141  L 77,141  L 77,152  L 76,152  L 76,156  L 75,156  L 75,160  L 74,160  L 74,162  L 73,162  L 73,165  L 72,165  L 72,170  L 73,170  L 73,171  L 74,171  L 74,172  L 81,172  L 81,170  L 82,170  L 82,165  L 83,165  L 83,162  L 84,162  L 84,160  L 85,160  L 85,159  L 84,159  L 84,158  L 85,158  L 85,154  L 86,154  L 86,153  L 85,153  L 85,152  L 86,152  L 86,126  L 87,126  L 87,121  L 88,121  L 88,116  L 87,116  L 87,112  L 86,112  L 86,111  L 85,111  L 85,110  L 84,110  L 84,109  L 82,109  L 82,108  L 79,108  L 79,107  L 75,107  L 75,106  L 55,106  L 55,107  L 48,107  L 48,108  L 47,108  L 47,107  L 46,107  L 46,108  L 43,108  L 43,109  L 41,109  L 41,110  L 38,110  L 38,111  L 37,111  L 37,112  L 36,112  L 36,113  L 35,113  L 35,114  L 36,114  L 36,117  L 37,117  L 37,118  L 39,118  L 39,117  L 40,117  L 40,116  L 45,116  L 45,115  L 51,115  L 51,114  L 57,114  L 57,113  L 73,113  L 73,114  L 77,114  L 77,115  L 78,115  L 78,116  L 79,116  L 79,117  L 80,117  L 80,121  L 79,121  L 79,125  L 78,125  Z  " style="fill:rgb(0, 0, 0); fill-opacity:1.000; stroke:none;" />
 <path d="  M 101,23  L 100,23  L 100,15  L 99,15  L 99,10  L 98,10  L 98,9  L 99,9  L 99,8  L 98,8  L 98,3  L 97,3  L 97,2  L 96,2  L 96,1  L 95,1  L 95,0  L 91,0  L 91,1  L 90,1  L 90,6  L 91,6  L 91,13  L 92,13  L 92,18  L 93,18  L 93,25  L 94,25  L 94,27  L 93,27  L 93,28  L 94,28  L 94,37  L 95,37  L 95,97  L 96,97  L 96,98  L 97,98  L 97,99  L 99,99  L 99,98  L 100,98  L 100,97  L 101,97  Z  " style="fill:rgb(0, 0, 0); fill-opacity:1.000; stroke:none;" />
</svg>
