<?xml version="1.0" encoding="UTF-8" standalone="no"?>
<!DOCTYPE svg PUBLIC "-//W3C//DTD SVG 1.1//EN" 
  "http://www.w3.org/Graphics/SVG/1.1/DTD/svg11.dtd">
<svg width="102" height="153"
     xmlns="http://www.w3.org/2000/svg" version="1.1">
 <path d="  M 7,75  L 7,74  L 8,74  L 8,73  L 10,73  L 10,72  L 11,72  L 11,71  L 12,71  L 12,70  L 13,70  L 13,69  L 14,69  L 14,68  L 15,68  L 15,67  L 16,67  L 16,66  L 17,66  L 17,65  L 19,65  L 19,64  L 21,64  L 21,62  L 22,62  L 22,61  L 23,61  L 23,60  L 24,60  L 24,58  L 25,58  L 25,57  L 26,57  L 26,55  L 27,55  L 27,56  L 28,56  L 28,53  L 29,53  L 29,51  L 30,51  L 30,50  L 31,50  L 31,48  L 35,48  L 35,49  L 37,49  L 37,50  L 40,50  L 40,51  L 41,51  L 41,52  L 42,52  L 42,53  L 44,53  L 44,54  L 45,54  L 45,55  L 46,55  L 46,56  L 48,56  L 48,57  L 50,57  L 50,58  L 52,58  L 52,60  L 53,60  L 53,61  L 54,61  L 54,62  L 56,62  L 56,63  L 57,63  L 57,64  L 58,64  L 58,65  L 59,65  L 59,66  L 61,66  L 61,67  L 62,67  L 62,68  L 63,68  L 63,69  L 65,69  L 65,70  L 67,70  L 67,69  L 69,69  L 69,67  L 70,67  L 70,66  L 69,66  L 69,65  L 68,65  L 68,64  L 67,64  L 67,63  L 65,63  L 65,61  L 63,61  L 63,60  L 62,60  L 62,58  L 61,58  L 61,57  L 59,57  L 59,55  L 57,55  L 57,54  L 56,54  L 56,53  L 54,53  L 54,52  L 53,52  L 53,51  L 52,51  L 52,50  L 51,50  L 51,49  L 50,49  L 50,48  L 48,48  L 48,47  L 47,47  L 47,46  L 46,46  L 46,45  L 44,45  L 44,44  L 43,44  L 43,42  L 42,42  L 42,41  L 40,41  L 40,38  L 41,38  L 41,35  L 43,35  L 43,33  L 44,33  L 44,32  L 45,32  L 45,30  L 47,30  L 47,29  L 48,29  L 48,28  L 49,28  L 49,26  L 50,26  L 50,24  L 51,24  L 51,23  L 52,23  L 52,17  L 51,17  L 51,15  L 50,15  L 50,14  L 49,14  L 49,13  L 48,13  L 48,11  L 47,11  L 47,10  L 45,10  L 45,9  L 38,9  L 38,10  L 31,10  L 31,11  L 25,11  L 25,12  L 14,12  L 14,13  L 13,13  L 13,12  L 12,12  L 12,13  L 9,13  L 9,14  L 5,14  L 5,16  L 4,16  L 4,20  L 3,20  L 3,21  L 6,21  L 6,22  L 9,22  L 9,21  L 11,21  L 11,20  L 12,20  L 12,19  L 20,19  L 20,18  L 33,18  L 33,17  L 39,17  L 39,16  L 41,16  L 41,17  L 45,17  L 45,21  L 44,21  L 44,23  L 43,23  L 43,24  L 41,24  L 41,25  L 40,25  L 40,26  L 39,26  L 39,28  L 37,28  L 37,29  L 36,29  L 36,30  L 35,30  L 35,31  L 34,31  L 34,32  L 33,32  L 33,33  L 32,33  L 32,34  L 31,34  L 31,36  L 30,36  L 30,38  L 29,38  L 29,39  L 28,39  L 28,40  L 27,40  L 27,41  L 26,41  L 26,43  L 25,43  L 25,45  L 24,45  L 24,46  L 23,46  L 23,47  L 22,47  L 22,48  L 21,48  L 21,50  L 20,50  L 20,51  L 19,51  L 19,53  L 18,53  L 18,54  L 17,54  L 17,55  L 16,55  L 16,56  L 15,56  L 15,57  L 14,57  L 14,58  L 13,58  L 13,59  L 12,59  L 12,60  L 11,60  L 11,61  L 10,61  L 10,62  L 9,62  L 9,63  L 8,63  L 8,64  L 7,64  L 7,65  L 6,65  L 6,66  L 4,66  L 4,67  L 2,67  L 2,69  L 1,69  L 1,71  L 0,71  L 0,73  L 1,73  L 1,74  L 2,74  L 2,75  Z  " style="fill:rgb(0, 0, 0); fill-opacity:1.000; stroke:none;" />
 <path d="  M 93,148  L 93,147  L 99,147  L 99,146  L 101,146  L 101,145  L 102,145  L 102,139  L 98,139  L 98,140  L 94,140  L 94,141  L 88,141  L 88,142  L 82,142  L 82,143  L 81,143  L 81,142  L 80,142  L 80,143  L 73,143  L 73,144  L 67,144  L 67,145  L 61,145  L 61,146  L 52,146  L 52,147  L 49,147  L 49,146  L 48,146  L 48,147  L 38,147  L 38,146  L 37,146  L 37,143  L 36,143  L 36,134  L 35,134  L 35,131  L 36,131  L 36,130  L 35,130  L 35,127  L 36,127  L 36,126  L 35,126  L 35,123  L 36,123  L 36,122  L 35,122  L 35,119  L 36,119  L 36,118  L 35,118  L 35,117  L 36,117  L 36,116  L 35,116  L 35,115  L 36,115  L 36,114  L 35,114  L 35,113  L 36,113  L 36,112  L 35,112  L 35,111  L 36,111  L 36,110  L 35,110  L 35,109  L 36,109  L 36,98  L 35,98  L 35,97  L 29,97  L 29,98  L 28,98  L 28,100  L 29,100  L 29,102  L 28,102  L 28,118  L 27,118  L 27,119  L 28,119  L 28,122  L 27,122  L 27,123  L 28,123  L 28,124  L 27,124  L 27,125  L 28,125  L 28,126  L 27,126  L 27,129  L 28,129  L 28,130  L 27,130  L 27,131  L 28,131  L 28,144  L 29,144  L 29,147  L 30,147  L 30,149  L 31,149  L 31,151  L 32,151  L 32,152  L 34,152  L 34,153  L 61,153  L 61,152  L 62,152  L 62,153  L 63,153  L 63,152  L 67,152  L 67,151  L 68,151  L 68,152  L 69,152  L 69,151  L 76,151  L 76,150  L 82,150  L 82,149  L 88,149  L 88,148  Z  " style="fill:rgb(0, 0, 0); fill-opacity:1.000; stroke:none;" />
 <path d="  M 90,90  L 91,90  L 91,92  L 92,92  L 92,93  L 93,93  L 93,94  L 94,94  L 94,93  L 96,93  L 96,91  L 97,91  L 97,85  L 96,85  L 96,84  L 97,84  L 97,69  L 98,69  L 98,68  L 97,68  L 97,61  L 98,61  L 98,60  L 97,60  L 97,53  L 96,53  L 96,52  L 97,52  L 97,49  L 96,49  L 96,28  L 95,28  L 95,14  L 94,14  L 94,11  L 95,11  L 95,10  L 94,10  L 94,3  L 93,3  L 93,1  L 91,1  L 91,0  L 88,0  L 88,1  L 87,1  L 87,11  L 88,11  L 88,35  L 89,35  L 89,51  L 90,51  Z  " style="fill:rgb(0, 0, 0); fill-opacity:1.000; stroke:none;" />
</svg>
