<?xml version="1.0" encoding="UTF-8" standalone="no"?>
<!DOCTYPE svg PUBLIC "-//W3C//DTD SVG 1.1//EN" 
  "http://www.w3.org/Graphics/SVG/1.1/DTD/svg11.dtd">
<svg width="100" height="164"
     xmlns="http://www.w3.org/2000/svg" version="1.1">
 <path d="  M 26,21  L 26,20  L 30,20  L 30,19  L 31,19  L 31,20  L 32,20  L 32,19  L 35,19  L 35,18  L 46,18  L 46,20  L 47,20  L 47,21  L 46,21  L 46,23  L 45,23  L 45,25  L 44,25  L 44,26  L 42,26  L 42,27  L 41,27  L 41,28  L 40,28  L 40,29  L 39,29  L 39,30  L 38,30  L 38,31  L 37,31  L 37,32  L 36,32  L 36,33  L 35,33  L 35,34  L 34,34  L 34,35  L 33,35  L 33,36  L 32,36  L 32,37  L 31,37  L 31,38  L 30,38  L 30,40  L 28,40  L 28,42  L 27,42  L 27,44  L 26,44  L 26,45  L 25,45  L 25,46  L 24,46  L 24,48  L 23,48  L 23,49  L 22,49  L 22,51  L 21,51  L 21,52  L 20,52  L 20,53  L 19,53  L 19,54  L 18,54  L 18,56  L 17,56  L 17,57  L 16,57  L 16,58  L 15,58  L 15,59  L 14,59  L 14,61  L 12,61  L 12,62  L 11,62  L 11,64  L 9,64  L 9,65  L 8,65  L 8,66  L 6,66  L 6,67  L 5,67  L 5,68  L 3,68  L 3,69  L 1,69  L 1,70  L 0,70  L 0,73  L 2,73  L 2,74  L 3,74  L 3,75  L 6,75  L 6,74  L 9,74  L 9,73  L 11,73  L 11,72  L 12,72  L 12,71  L 14,71  L 14,70  L 15,70  L 15,69  L 16,69  L 16,68  L 17,68  L 17,67  L 18,67  L 18,66  L 19,66  L 19,65  L 20,65  L 20,64  L 21,64  L 21,63  L 22,63  L 22,61  L 23,61  L 23,60  L 24,60  L 24,59  L 25,59  L 25,58  L 26,58  L 26,57  L 27,57  L 27,55  L 28,55  L 28,54  L 29,54  L 29,53  L 30,53  L 30,51  L 31,51  L 31,50  L 33,50  L 33,51  L 36,51  L 36,52  L 37,52  L 37,53  L 38,53  L 38,54  L 40,54  L 40,55  L 41,55  L 41,57  L 42,57  L 42,58  L 44,58  L 44,59  L 46,59  L 46,60  L 47,60  L 47,61  L 48,61  L 48,62  L 49,62  L 49,63  L 51,63  L 51,64  L 53,64  L 53,65  L 54,65  L 54,66  L 56,66  L 56,67  L 58,67  L 58,69  L 61,69  L 61,70  L 62,70  L 62,71  L 65,71  L 65,70  L 66,70  L 66,69  L 67,69  L 67,68  L 66,68  L 66,65  L 65,65  L 65,64  L 64,64  L 64,63  L 62,63  L 62,62  L 61,62  L 61,61  L 60,61  L 60,60  L 59,60  L 59,59  L 57,59  L 57,58  L 55,58  L 55,57  L 53,57  L 53,55  L 51,55  L 51,54  L 50,54  L 50,53  L 49,53  L 49,52  L 47,52  L 47,50  L 45,50  L 45,48  L 44,48  L 44,47  L 43,47  L 43,46  L 42,46  L 42,45  L 40,45  L 40,44  L 39,44  L 39,43  L 38,43  L 38,39  L 39,39  L 39,38  L 41,38  L 41,37  L 42,37  L 42,36  L 43,36  L 43,35  L 44,35  L 44,34  L 45,34  L 45,33  L 46,33  L 46,32  L 47,32  L 47,31  L 49,31  L 49,30  L 50,30  L 50,29  L 51,29  L 51,28  L 52,28  L 52,27  L 53,27  L 53,25  L 54,25  L 54,23  L 55,23  L 55,22  L 54,22  L 54,17  L 53,17  L 53,15  L 52,15  L 52,14  L 50,14  L 50,13  L 49,13  L 49,12  L 48,12  L 48,11  L 46,11  L 46,10  L 44,10  L 44,11  L 41,11  L 41,12  L 32,12  L 32,13  L 31,13  L 31,12  L 29,12  L 29,13  L 25,13  L 25,14  L 19,14  L 19,15  L 13,15  L 13,16  L 8,16  L 8,17  L 6,17  L 6,18  L 5,18  L 5,17  L 4,17  L 4,18  L 3,18  L 3,20  L 2,20  L 2,22  L 3,22  L 3,23  L 4,23  L 4,25  L 7,25  L 7,24  L 9,24  L 9,23  L 13,23  L 13,22  L 17,22  L 17,21  Z  " style="fill:rgb(0, 0, 0); fill-opacity:1.000; stroke:none;" />
 <path d="  M 91,100  L 91,101  L 90,101  L 90,100  L 89,100  L 89,101  L 73,101  L 73,102  L 52,102  L 52,103  L 33,103  L 33,104  L 29,104  L 29,105  L 28,105  L 28,106  L 27,106  L 27,107  L 26,107  L 26,110  L 27,110  L 27,111  L 30,111  L 30,142  L 31,142  L 31,143  L 30,143  L 30,145  L 31,145  L 31,149  L 32,149  L 32,150  L 31,150  L 31,151  L 32,151  L 32,158  L 33,158  L 33,159  L 32,159  L 32,160  L 33,160  L 33,161  L 34,161  L 34,162  L 35,162  L 35,163  L 36,163  L 36,164  L 61,164  L 61,163  L 66,163  L 66,162  L 72,162  L 72,161  L 77,161  L 77,160  L 81,160  L 81,159  L 84,159  L 84,158  L 88,158  L 88,157  L 90,157  L 90,156  L 94,156  L 94,155  L 95,155  L 95,154  L 97,154  L 97,152  L 98,152  L 98,151  L 97,151  L 97,149  L 91,149  L 91,150  L 89,150  L 89,151  L 86,151  L 86,152  L 83,152  L 83,153  L 82,153  L 82,152  L 81,152  L 81,153  L 79,153  L 79,154  L 75,154  L 75,155  L 70,155  L 70,156  L 65,156  L 65,157  L 62,157  L 62,156  L 61,156  L 61,157  L 58,157  L 58,158  L 41,158  L 41,157  L 40,157  L 40,154  L 39,154  L 39,142  L 38,142  L 38,133  L 37,133  L 37,116  L 38,116  L 38,112  L 39,112  L 39,111  L 41,111  L 41,110  L 43,110  L 43,111  L 44,111  L 44,110  L 45,110  L 45,111  L 46,111  L 46,110  L 47,110  L 47,111  L 48,111  L 48,110  L 56,110  L 56,109  L 65,109  L 65,108  L 84,108  L 84,107  L 85,107  L 85,108  L 86,108  L 86,107  L 87,107  L 87,108  L 88,108  L 88,107  L 95,107  L 95,108  L 99,108  L 99,107  L 100,107  L 100,101  L 99,101  L 99,100  Z  " style="fill:rgb(0, 0, 0); fill-opacity:1.000; stroke:none;" />
 <path d="  M 92,89  L 93,89  L 93,91  L 98,91  L 98,90  L 99,90  L 99,36  L 98,36  L 98,35  L 99,35  L 99,34  L 98,34  L 98,33  L 99,33  L 99,32  L 98,32  L 98,31  L 99,31  L 99,30  L 98,30  L 98,21  L 97,21  L 97,12  L 96,12  L 96,11  L 97,11  L 97,10  L 96,10  L 96,4  L 95,4  L 95,2  L 94,2  L 94,1  L 92,1  L 92,0  L 90,0  L 90,1  L 89,1  L 89,4  L 88,4  L 88,5  L 89,5  L 89,15  L 90,15  L 90,23  L 91,23  L 91,35  L 92,35  Z  " style="fill:rgb(0, 0, 0); fill-opacity:1.000; stroke:none;" />
</svg>
