<?xml version="1.0" encoding="UTF-8" standalone="no"?>
<!DOCTYPE svg PUBLIC "-//W3C//DTD SVG 1.1//EN" 
  "http://www.w3.org/Graphics/SVG/1.1/DTD/svg11.dtd">
<svg width="108" height="164"
     xmlns="http://www.w3.org/2000/svg" version="1.1">
 <path d="  M 9,64  L 7,64  L 7,65  L 6,65  L 6,66  L 4,66  L 4,67  L 2,67  L 2,68  L 1,68  L 1,73  L 2,73  L 2,76  L 3,76  L 3,77  L 7,77  L 7,76  L 8,76  L 8,75  L 9,75  L 9,74  L 10,74  L 10,73  L 11,73  L 11,72  L 12,72  L 12,71  L 13,71  L 13,70  L 14,70  L 14,68  L 16,68  L 16,66  L 18,66  L 18,64  L 20,64  L 20,63  L 21,63  L 21,61  L 22,61  L 22,60  L 23,60  L 23,58  L 24,58  L 24,57  L 25,57  L 25,56  L 26,56  L 26,54  L 27,54  L 27,53  L 28,53  L 28,52  L 29,52  L 29,50  L 30,50  L 30,48  L 31,48  L 31,47  L 32,47  L 32,45  L 34,45  L 34,46  L 36,46  L 36,47  L 37,47  L 37,48  L 38,48  L 38,49  L 40,49  L 40,50  L 41,50  L 41,51  L 42,51  L 42,52  L 43,52  L 43,53  L 44,53  L 44,54  L 45,54  L 45,55  L 46,55  L 46,56  L 47,56  L 47,57  L 48,57  L 48,58  L 49,58  L 49,59  L 50,59  L 50,61  L 51,61  L 51,62  L 53,62  L 53,64  L 54,64  L 54,65  L 55,65  L 55,66  L 56,66  L 56,67  L 57,67  L 57,68  L 58,68  L 58,71  L 60,71  L 60,72  L 61,72  L 61,73  L 65,73  L 65,70  L 66,70  L 66,69  L 65,69  L 65,65  L 64,65  L 64,64  L 63,64  L 63,62  L 62,62  L 62,60  L 60,60  L 60,59  L 59,59  L 59,58  L 58,58  L 58,56  L 57,56  L 57,55  L 56,55  L 56,54  L 55,54  L 55,53  L 54,53  L 54,52  L 53,52  L 53,51  L 52,51  L 52,50  L 51,50  L 51,49  L 50,49  L 50,48  L 49,48  L 49,47  L 48,47  L 48,45  L 47,45  L 47,44  L 46,44  L 46,43  L 44,43  L 44,42  L 43,42  L 43,41  L 42,41  L 42,40  L 41,40  L 41,39  L 39,39  L 39,37  L 40,37  L 40,36  L 41,36  L 41,35  L 43,35  L 43,33  L 44,33  L 44,32  L 45,32  L 45,31  L 46,31  L 46,30  L 47,30  L 47,29  L 48,29  L 48,28  L 50,28  L 50,27  L 51,27  L 51,25  L 52,25  L 52,24  L 54,24  L 54,21  L 55,21  L 55,19  L 56,19  L 56,15  L 55,15  L 55,14  L 54,14  L 54,12  L 52,12  L 52,11  L 51,11  L 51,10  L 50,10  L 50,9  L 49,9  L 49,8  L 48,8  L 48,7  L 42,7  L 42,8  L 35,8  L 35,9  L 30,9  L 30,10  L 29,10  L 29,9  L 28,9  L 28,10  L 23,10  L 23,11  L 17,11  L 17,12  L 12,12  L 12,13  L 7,13  L 7,14  L 6,14  L 6,19  L 5,19  L 5,20  L 6,20  L 6,21  L 7,21  L 7,22  L 8,22  L 8,21  L 11,21  L 11,20  L 15,20  L 15,19  L 20,19  L 20,18  L 27,18  L 27,17  L 31,17  L 31,16  L 38,16  L 38,15  L 43,15  L 43,14  L 44,14  L 44,15  L 46,15  L 46,16  L 47,16  L 47,19  L 46,19  L 46,20  L 45,20  L 45,21  L 44,21  L 44,23  L 42,23  L 42,24  L 41,24  L 41,25  L 40,25  L 40,26  L 39,26  L 39,27  L 38,27  L 38,28  L 36,28  L 36,29  L 35,29  L 35,30  L 34,30  L 34,31  L 33,31  L 33,32  L 32,32  L 32,33  L 31,33  L 31,34  L 30,34  L 30,36  L 29,36  L 29,38  L 28,38  L 28,39  L 27,39  L 27,41  L 26,41  L 26,42  L 25,42  L 25,44  L 24,44  L 24,45  L 23,45  L 23,47  L 22,47  L 22,48  L 21,48  L 21,50  L 20,50  L 20,51  L 19,51  L 19,52  L 18,52  L 18,54  L 17,54  L 17,55  L 16,55  L 16,56  L 15,56  L 15,58  L 13,58  L 13,60  L 12,60  L 12,61  L 11,61  L 11,62  L 9,62  Z  " style="fill:rgb(0, 0, 0); fill-opacity:1.000; stroke:none;" />
 <path d="  M 91,148  L 92,148  L 92,149  L 94,149  L 94,150  L 95,150  L 95,151  L 96,151  L 96,152  L 97,152  L 97,153  L 98,153  L 98,154  L 100,154  L 100,155  L 101,155  L 101,156  L 102,156  L 102,157  L 108,157  L 108,151  L 107,151  L 107,150  L 106,150  L 106,149  L 105,149  L 105,148  L 103,148  L 103,147  L 102,147  L 102,146  L 101,146  L 101,145  L 99,145  L 99,144  L 98,144  L 98,143  L 97,143  L 97,142  L 95,142  L 95,141  L 94,141  L 94,140  L 92,140  L 92,139  L 90,139  L 90,138  L 88,138  L 88,137  L 87,137  L 87,136  L 85,136  L 85,135  L 83,135  L 83,134  L 82,134  L 82,133  L 81,133  L 81,132  L 80,132  L 80,131  L 77,131  L 77,130  L 75,130  L 75,129  L 74,129  L 74,128  L 73,128  L 73,127  L 71,127  L 71,126  L 70,126  L 70,125  L 71,125  L 71,124  L 72,124  L 72,123  L 73,123  L 73,122  L 74,122  L 74,121  L 75,121  L 75,119  L 76,119  L 76,118  L 77,118  L 77,116  L 79,116  L 79,115  L 80,115  L 80,112  L 81,112  L 81,108  L 80,108  L 80,106  L 78,106  L 78,105  L 77,105  L 77,104  L 75,104  L 75,103  L 73,103  L 73,102  L 60,102  L 60,103  L 57,103  L 57,102  L 56,102  L 56,103  L 53,103  L 53,102  L 52,102  L 52,103  L 50,103  L 50,104  L 43,104  L 43,105  L 39,105  L 39,106  L 38,106  L 38,105  L 37,105  L 37,106  L 35,106  L 35,108  L 34,108  L 34,109  L 33,109  L 33,110  L 34,110  L 34,112  L 35,112  L 35,113  L 37,113  L 37,112  L 38,112  L 38,113  L 39,113  L 39,112  L 44,112  L 44,111  L 52,111  L 52,110  L 55,110  L 55,111  L 56,111  L 56,110  L 61,110  L 61,109  L 62,109  L 62,110  L 63,110  L 63,109  L 72,109  L 72,110  L 73,110  L 73,112  L 72,112  L 72,113  L 71,113  L 71,114  L 70,114  L 70,115  L 69,115  L 69,116  L 68,116  L 68,117  L 67,117  L 67,118  L 65,118  L 65,120  L 63,120  L 63,121  L 62,121  L 62,122  L 61,122  L 61,123  L 60,123  L 60,125  L 59,125  L 59,126  L 58,126  L 58,129  L 57,129  L 57,130  L 56,130  L 56,133  L 55,133  L 55,134  L 54,134  L 54,136  L 53,136  L 53,138  L 52,138  L 52,140  L 51,140  L 51,141  L 50,141  L 50,143  L 49,143  L 49,144  L 48,144  L 48,145  L 47,145  L 47,147  L 46,147  L 46,148  L 45,148  L 45,149  L 44,149  L 44,150  L 43,150  L 43,152  L 42,152  L 42,153  L 41,153  L 41,154  L 40,154  L 40,155  L 39,155  L 39,156  L 38,156  L 38,158  L 37,158  L 37,160  L 36,160  L 36,163  L 37,163  L 37,164  L 42,164  L 42,163  L 43,163  L 43,162  L 44,162  L 44,161  L 45,161  L 45,159  L 46,159  L 46,158  L 47,158  L 47,157  L 48,157  L 48,156  L 49,156  L 49,154  L 50,154  L 50,153  L 51,153  L 51,151  L 52,151  L 52,150  L 53,150  L 53,148  L 54,148  L 54,147  L 55,147  L 55,145  L 56,145  L 56,144  L 57,144  L 57,143  L 58,143  L 58,141  L 59,141  L 59,139  L 60,139  L 60,138  L 61,138  L 61,136  L 62,136  L 62,135  L 63,135  L 63,133  L 64,133  L 64,132  L 68,132  L 68,133  L 69,133  L 69,134  L 70,134  L 70,135  L 71,135  L 71,136  L 73,136  L 73,137  L 75,137  L 75,138  L 76,138  L 76,139  L 77,139  L 77,140  L 79,140  L 79,141  L 82,141  L 82,142  L 84,142  L 84,143  L 85,143  L 85,144  L 87,144  L 87,145  L 88,145  L 88,146  L 90,146  L 90,147  L 91,147  Z  " style="fill:rgb(0, 0, 0); fill-opacity:1.000; stroke:none;" />
 <path d="  M 103,23  L 104,23  L 104,22  L 103,22  L 103,21  L 104,21  L 104,20  L 103,20  L 103,19  L 104,19  L 104,18  L 103,18  L 103,15  L 104,15  L 104,14  L 103,14  L 103,5  L 102,5  L 102,2  L 101,2  L 101,1  L 100,1  L 100,0  L 96,0  L 96,2  L 95,2  L 95,4  L 96,4  L 96,47  L 97,47  L 97,49  L 96,49  L 96,51  L 97,51  L 97,54  L 96,54  L 96,55  L 97,55  L 97,66  L 96,66  L 96,67  L 97,67  L 97,70  L 96,70  L 96,71  L 97,71  L 97,74  L 96,74  L 96,76  L 97,76  L 97,77  L 96,77  L 96,80  L 97,80  L 97,81  L 96,81  L 96,93  L 97,93  L 97,94  L 101,94  L 101,93  L 102,93  L 102,91  L 103,91  L 103,89  L 104,89  L 104,79  L 105,79  L 105,78  L 104,78  L 104,77  L 105,77  L 105,76  L 104,76  L 104,75  L 105,75  L 105,74  L 104,74  L 104,73  L 105,73  L 105,44  L 104,44  L 104,28  L 103,28  L 103,27  L 104,27  L 104,26  L 103,26  L 103,25  L 104,25  L 104,24  L 103,24  Z  " style="fill:rgb(0, 0, 0); fill-opacity:1.000; stroke:none;" />
</svg>
