<?xml version="1.0" encoding="UTF-8" standalone="no"?>
<!DOCTYPE svg PUBLIC "-//W3C//DTD SVG 1.1//EN" 
  "http://www.w3.org/Graphics/SVG/1.1/DTD/svg11.dtd">
<svg width="106" height="173"
     xmlns="http://www.w3.org/2000/svg" version="1.1">
 <path d="  M 34,52  L 36,52  L 36,54  L 37,54  L 37,55  L 39,55  L 39,56  L 40,56  L 40,57  L 41,57  L 41,58  L 43,58  L 43,59  L 44,59  L 44,60  L 45,60  L 45,61  L 46,61  L 46,62  L 47,62  L 47,63  L 48,63  L 48,65  L 50,65  L 50,66  L 51,66  L 51,68  L 52,68  L 52,69  L 53,69  L 53,70  L 54,70  L 54,71  L 55,71  L 55,72  L 56,72  L 56,73  L 57,73  L 57,74  L 58,74  L 58,75  L 59,75  L 59,76  L 60,76  L 60,78  L 61,78  L 61,79  L 62,79  L 62,80  L 63,80  L 63,81  L 67,81  L 67,80  L 68,80  L 68,74  L 67,74  L 67,72  L 65,72  L 65,70  L 63,70  L 63,69  L 62,69  L 62,68  L 61,68  L 61,67  L 60,67  L 60,66  L 59,66  L 59,65  L 58,65  L 58,64  L 57,64  L 57,63  L 56,63  L 56,62  L 55,62  L 55,61  L 54,61  L 54,59  L 53,59  L 53,58  L 52,58  L 52,57  L 51,57  L 51,56  L 50,56  L 50,54  L 48,54  L 48,52  L 47,52  L 47,51  L 46,51  L 46,50  L 45,50  L 45,49  L 44,49  L 44,48  L 42,48  L 42,47  L 41,47  L 41,46  L 39,46  L 39,44  L 40,44  L 40,43  L 41,43  L 41,42  L 42,42  L 42,41  L 43,41  L 43,39  L 45,39  L 45,37  L 47,37  L 47,36  L 48,36  L 48,35  L 49,35  L 49,34  L 50,34  L 50,33  L 51,33  L 51,32  L 52,32  L 52,31  L 53,31  L 53,30  L 54,30  L 54,29  L 55,29  L 55,28  L 56,28  L 56,27  L 57,27  L 57,25  L 58,25  L 58,23  L 59,23  L 59,20  L 60,20  L 60,17  L 59,17  L 59,16  L 58,16  L 58,13  L 57,13  L 57,12  L 56,12  L 56,11  L 55,11  L 55,9  L 54,9  L 54,8  L 53,8  L 53,7  L 47,7  L 47,8  L 30,8  L 30,9  L 29,9  L 29,8  L 28,8  L 28,9  L 22,9  L 22,10  L 18,10  L 18,11  L 14,11  L 14,12  L 10,12  L 10,13  L 8,13  L 8,14  L 6,14  L 6,15  L 5,15  L 5,18  L 4,18  L 4,20  L 5,20  L 5,21  L 6,21  L 6,22  L 11,22  L 11,21  L 12,21  L 12,20  L 13,20  L 13,19  L 17,19  L 17,18  L 19,18  L 19,17  L 27,17  L 27,16  L 35,16  L 35,15  L 49,15  L 49,16  L 51,16  L 51,20  L 50,20  L 50,23  L 48,23  L 48,25  L 47,25  L 47,26  L 46,26  L 46,27  L 45,27  L 45,28  L 44,28  L 44,29  L 43,29  L 43,30  L 42,30  L 42,31  L 40,31  L 40,33  L 38,33  L 38,35  L 37,35  L 37,36  L 36,36  L 36,37  L 35,37  L 35,38  L 34,38  L 34,39  L 33,39  L 33,40  L 32,40  L 32,41  L 31,41  L 31,43  L 30,43  L 30,45  L 29,45  L 29,46  L 28,46  L 28,47  L 27,47  L 27,49  L 26,49  L 26,50  L 25,50  L 25,52  L 24,52  L 24,53  L 23,53  L 23,55  L 21,55  L 21,57  L 20,57  L 20,58  L 19,58  L 19,60  L 18,60  L 18,61  L 17,61  L 17,62  L 16,62  L 16,63  L 15,63  L 15,64  L 14,64  L 14,65  L 13,65  L 13,66  L 12,66  L 12,67  L 11,67  L 11,68  L 10,68  L 10,69  L 9,69  L 9,70  L 8,70  L 8,71  L 7,71  L 7,72  L 5,72  L 5,73  L 4,73  L 4,74  L 3,74  L 3,75  L 2,75  L 2,76  L 1,76  L 1,78  L 0,78  L 0,80  L 1,80  L 1,82  L 3,82  L 3,83  L 4,83  L 4,84  L 6,84  L 6,83  L 8,83  L 8,82  L 9,82  L 9,81  L 10,81  L 10,80  L 11,80  L 11,79  L 12,79  L 12,78  L 13,78  L 13,77  L 14,77  L 14,76  L 15,76  L 15,75  L 16,75  L 16,74  L 17,74  L 17,73  L 18,73  L 18,71  L 19,71  L 19,70  L 21,70  L 21,68  L 22,68  L 22,67  L 23,67  L 23,66  L 24,66  L 24,65  L 25,65  L 25,64  L 26,64  L 26,63  L 27,63  L 27,61  L 28,61  L 28,60  L 29,60  L 29,59  L 30,59  L 30,58  L 31,58  L 31,55  L 32,55  L 32,54  L 33,54  L 33,53  L 34,53  Z  " style="fill:rgb(0, 0, 0); fill-opacity:1.000; stroke:none;" />
 <path d="  M 63,136  L 63,135  L 62,135  L 62,136  L 57,136  L 57,137  L 54,137  L 54,138  L 53,138  L 53,137  L 52,137  L 52,138  L 51,138  L 51,137  L 50,137  L 50,138  L 45,138  L 45,136  L 46,136  L 46,119  L 47,119  L 47,116  L 48,116  L 48,115  L 50,115  L 50,114  L 54,114  L 54,113  L 59,113  L 59,112  L 71,112  L 71,111  L 72,111  L 72,112  L 88,112  L 88,113  L 93,113  L 93,114  L 96,114  L 96,115  L 101,115  L 101,114  L 102,114  L 102,113  L 103,113  L 103,112  L 102,112  L 102,109  L 100,109  L 100,108  L 99,108  L 99,107  L 91,107  L 91,106  L 84,106  L 84,105  L 82,105  L 82,106  L 81,106  L 81,105  L 58,105  L 58,106  L 47,106  L 47,107  L 45,107  L 45,108  L 44,108  L 44,109  L 43,109  L 43,110  L 42,110  L 42,112  L 41,112  L 41,115  L 40,115  L 40,119  L 39,119  L 39,125  L 38,125  L 38,126  L 39,126  L 39,128  L 38,128  L 38,130  L 39,130  L 39,132  L 38,132  L 38,137  L 39,137  L 39,142  L 38,142  L 38,145  L 37,145  L 37,146  L 38,146  L 38,148  L 39,148  L 39,153  L 40,153  L 40,157  L 41,157  L 41,161  L 42,161  L 42,166  L 43,166  L 43,167  L 44,167  L 44,169  L 45,169  L 45,170  L 47,170  L 47,171  L 49,171  L 49,172  L 52,172  L 52,173  L 70,173  L 70,172  L 74,172  L 74,171  L 78,171  L 78,170  L 82,170  L 82,169  L 84,169  L 84,168  L 87,168  L 87,167  L 90,167  L 90,166  L 92,166  L 92,165  L 94,165  L 94,164  L 97,164  L 97,163  L 100,163  L 100,161  L 101,161  L 101,160  L 102,160  L 102,159  L 103,159  L 103,152  L 102,152  L 102,153  L 99,153  L 99,154  L 97,154  L 97,155  L 95,155  L 95,156  L 93,156  L 93,157  L 92,157  L 92,158  L 90,158  L 90,159  L 88,159  L 88,160  L 85,160  L 85,161  L 82,161  L 82,162  L 79,162  L 79,163  L 76,163  L 76,164  L 73,164  L 73,165  L 66,165  L 66,166  L 56,166  L 56,165  L 53,165  L 53,164  L 52,164  L 52,163  L 50,163  L 50,162  L 49,162  L 49,158  L 48,158  L 48,148  L 49,148  L 49,147  L 51,147  L 51,146  L 54,146  L 54,145  L 56,145  L 56,144  L 63,144  L 63,143  L 67,143  L 67,142  L 71,142  L 71,141  L 74,141  L 74,140  L 77,140  L 77,139  L 79,139  L 79,138  L 81,138  L 81,137  L 86,137  L 86,136  L 89,136  L 89,135  L 93,135  L 93,134  L 96,134  L 96,133  L 97,133  L 97,132  L 99,132  L 99,131  L 100,131  L 100,125  L 99,125  L 99,124  L 97,124  L 97,125  L 94,125  L 94,126  L 91,126  L 91,127  L 89,127  L 89,128  L 87,128  L 87,129  L 83,129  L 83,130  L 80,130  L 80,131  L 77,131  L 77,132  L 74,132  L 74,133  L 70,133  L 70,134  L 67,134  L 67,135  L 64,135  L 64,136  Z  " style="fill:rgb(0, 0, 0); fill-opacity:1.000; stroke:none;" />
 <path d="  M 106,73  L 105,73  L 105,72  L 106,72  L 106,71  L 105,71  L 105,70  L 106,70  L 106,69  L 105,69  L 105,68  L 106,68  L 106,67  L 105,67  L 105,66  L 106,66  L 106,65  L 105,65  L 105,64  L 106,64  L 106,63  L 105,63  L 105,62  L 106,62  L 106,61  L 105,61  L 105,60  L 106,60  L 106,59  L 105,59  L 105,58  L 106,58  L 106,57  L 105,57  L 105,54  L 106,54  L 106,53  L 105,53  L 105,33  L 104,33  L 104,30  L 105,30  L 105,29  L 104,29  L 104,13  L 103,13  L 103,3  L 102,3  L 102,2  L 101,2  L 101,1  L 96,1  L 96,25  L 97,25  L 97,27  L 96,27  L 96,28  L 97,28  L 97,39  L 98,39  L 98,40  L 97,40  L 97,42  L 98,42  L 98,45  L 97,45  L 97,46  L 98,46  L 98,79  L 99,79  L 99,81  L 98,81  L 98,83  L 99,83  L 99,90  L 98,90  L 98,91  L 99,91  L 99,96  L 100,96  L 100,97  L 101,97  L 101,98  L 102,98  L 102,99  L 103,99  L 103,100  L 104,100  L 104,101  L 106,101  Z  " style="fill:rgb(0, 0, 0); fill-opacity:1.000; stroke:none;" />
</svg>
