<?xml version="1.0" encoding="UTF-8" standalone="no"?>
<!DOCTYPE svg PUBLIC "-//W3C//DTD SVG 1.1//EN" 
  "http://www.w3.org/Graphics/SVG/1.1/DTD/svg11.dtd">
<svg width="111" height="85"
     xmlns="http://www.w3.org/2000/svg" version="1.1">
 <path d="  M 1,19  L 1,18  L 0,18  L 0,19  Z  " style="fill:rgb(0, 0, 0); fill-opacity:1.000; stroke:none;" />
 <path d="  M 12,19  L 12,18  L 19,18  L 19,17  L 24,17  L 24,16  L 27,16  L 27,15  L 29,15  L 29,12  L 28,12  L 28,11  L 17,11  L 17,12  L 11,12  L 11,13  L 6,13  L 6,14  L 3,14  L 3,15  L 2,15  L 2,16  L 1,16  L 1,18  L 2,18  L 2,19  Z  " style="fill:rgb(0, 0, 0); fill-opacity:1.000; stroke:none;" />
 <path d="  M 62,33  L 63,33  L 63,30  L 64,30  L 64,29  L 65,29  L 65,27  L 66,27  L 66,25  L 67,25  L 67,23  L 68,23  L 68,22  L 69,22  L 69,20  L 70,20  L 70,18  L 71,18  L 71,17  L 72,17  L 72,16  L 73,16  L 73,15  L 74,15  L 74,14  L 72,14  L 72,13  L 66,13  L 66,14  L 64,14  L 64,13  L 49,13  L 49,14  L 36,14  L 36,15  L 34,15  L 34,18  L 32,18  L 32,21  L 31,21  L 31,22  L 30,22  L 30,24  L 29,24  L 29,25  L 28,25  L 28,26  L 27,26  L 27,28  L 26,28  L 26,29  L 25,29  L 25,30  L 24,30  L 24,31  L 23,31  L 23,32  L 22,32  L 22,33  L 21,33  L 21,34  L 20,34  L 20,35  L 19,35  L 19,36  L 18,36  L 18,37  L 17,37  L 17,38  L 16,38  L 16,39  L 15,39  L 15,41  L 14,41  L 14,43  L 13,43  L 13,44  L 12,44  L 12,46  L 11,46  L 11,48  L 10,48  L 10,49  L 9,49  L 9,51  L 8,51  L 8,52  L 7,52  L 7,54  L 6,54  L 6,57  L 5,57  L 5,58  L 4,58  L 4,59  L 3,59  L 3,60  L 2,60  L 2,62  L 1,62  L 1,66  L 2,66  L 2,67  L 3,67  L 3,68  L 5,68  L 5,67  L 6,67  L 6,66  L 7,66  L 7,65  L 8,65  L 8,63  L 9,63  L 9,61  L 10,61  L 10,60  L 11,60  L 11,57  L 12,57  L 12,56  L 13,56  L 13,54  L 14,54  L 14,52  L 15,52  L 15,50  L 16,50  L 16,49  L 17,49  L 17,47  L 18,47  L 18,46  L 19,46  L 19,45  L 20,45  L 20,40  L 21,40  L 21,39  L 24,39  L 24,40  L 25,40  L 25,41  L 26,41  L 26,42  L 27,42  L 27,43  L 29,43  L 29,44  L 30,44  L 30,45  L 31,45  L 31,46  L 32,46  L 32,47  L 33,47  L 33,48  L 38,48  L 38,49  L 39,49  L 39,48  L 40,48  L 40,47  L 42,47  L 42,44  L 40,44  L 40,42  L 37,42  L 37,41  L 35,41  L 35,40  L 33,40  L 33,39  L 31,39  L 31,38  L 30,38  L 30,37  L 29,37  L 29,36  L 28,36  L 28,35  L 27,35  L 27,34  L 29,34  L 29,33  L 30,33  L 30,32  L 31,32  L 31,30  L 32,30  L 32,29  L 33,29  L 33,28  L 35,28  L 35,27  L 36,27  L 36,25  L 37,25  L 37,24  L 38,24  L 38,23  L 39,23  L 39,22  L 40,22  L 40,21  L 42,21  L 42,20  L 48,20  L 48,19  L 49,19  L 49,20  L 50,20  L 50,19  L 56,19  L 56,18  L 61,18  L 61,17  L 62,17  L 62,23  L 61,23  L 61,24  L 60,24  L 60,26  L 59,26  L 59,28  L 58,28  L 58,30  L 57,30  L 57,32  L 56,32  L 56,33  L 55,33  L 55,35  L 54,35  L 54,38  L 53,38  L 53,40  L 52,40  L 52,42  L 51,42  L 51,44  L 50,44  L 50,45  L 49,45  L 49,47  L 48,47  L 48,48  L 47,48  L 47,49  L 46,49  L 46,51  L 45,51  L 45,52  L 44,52  L 44,54  L 43,54  L 43,56  L 42,56  L 42,58  L 41,58  L 41,59  L 40,59  L 40,60  L 39,60  L 39,61  L 38,61  L 38,63  L 37,63  L 37,64  L 36,64  L 36,65  L 35,65  L 35,67  L 34,67  L 34,69  L 33,69  L 33,70  L 34,70  L 34,72  L 36,72  L 36,73  L 38,73  L 38,72  L 39,72  L 39,70  L 40,70  L 40,68  L 41,68  L 41,66  L 42,66  L 42,65  L 43,65  L 43,63  L 44,63  L 44,62  L 45,62  L 45,61  L 46,61  L 46,59  L 47,59  L 47,58  L 48,58  L 48,56  L 49,56  L 49,55  L 50,55  L 50,54  L 51,54  L 51,52  L 52,52  L 52,50  L 53,50  L 53,49  L 54,49  L 54,48  L 56,48  L 56,49  L 57,49  L 57,50  L 58,50  L 58,51  L 59,51  L 59,53  L 60,53  L 60,54  L 61,54  L 61,55  L 62,55  L 62,56  L 63,56  L 63,57  L 64,57  L 64,59  L 66,59  L 66,61  L 67,61  L 67,62  L 68,62  L 68,63  L 69,63  L 69,66  L 70,66  L 70,67  L 72,67  L 72,68  L 75,68  L 75,67  L 76,67  L 76,66  L 77,66  L 77,65  L 78,65  L 78,62  L 79,62  L 79,61  L 78,61  L 78,60  L 77,60  L 77,61  L 76,61  L 76,60  L 75,60  L 75,59  L 74,59  L 74,58  L 72,58  L 72,56  L 70,56  L 70,55  L 69,55  L 69,54  L 68,54  L 68,52  L 67,52  L 67,51  L 65,51  L 65,50  L 64,50  L 64,48  L 63,48  L 63,47  L 62,47  L 62,45  L 60,45  L 60,43  L 59,43  L 59,39  L 60,39  L 60,37  L 61,37  L 61,35  L 62,35  Z  " style="fill:rgb(0, 0, 0); fill-opacity:1.000; stroke:none;" />
 <path d="  M 30,13  L 30,14  L 32,14  L 32,13  Z  " style="fill:rgb(0, 0, 0); fill-opacity:1.000; stroke:none;" />
 <path d="  M 86,55  L 85,55  L 85,85  L 90,85  L 90,77  L 91,77  L 91,76  L 90,76  L 90,73  L 91,73  L 91,72  L 90,72  L 90,70  L 91,70  L 91,53  L 92,53  L 92,52  L 91,52  L 91,49  L 92,49  L 92,48  L 91,48  L 91,45  L 92,45  L 92,43  L 91,43  L 91,42  L 92,42  L 92,39  L 99,39  L 99,38  L 100,38  L 100,39  L 101,39  L 101,38  L 102,38  L 102,39  L 105,39  L 105,38  L 106,38  L 106,39  L 110,39  L 110,38  L 111,38  L 111,34  L 109,34  L 109,33  L 106,33  L 106,34  L 105,34  L 105,33  L 100,33  L 100,34  L 99,34  L 99,33  L 96,33  L 96,34  L 93,34  L 93,33  L 92,33  L 92,14  L 91,14  L 91,13  L 92,13  L 92,12  L 91,12  L 91,4  L 90,4  L 90,1  L 89,1  L 89,0  L 86,0  L 86,1  L 85,1  L 85,10  L 86,10  Z  " style="fill:rgb(0, 0, 0); fill-opacity:1.000; stroke:none;" />
</svg>
