<?xml version="1.0" encoding="UTF-8" standalone="no"?>
<!DOCTYPE svg PUBLIC "-//W3C//DTD SVG 1.1//EN" 
  "http://www.w3.org/Graphics/SVG/1.1/DTD/svg11.dtd">
<svg width="106" height="131"
     xmlns="http://www.w3.org/2000/svg" version="1.1">
 <path d="  M 18,26  L 18,27  L 16,27  L 16,28  L 15,28  L 15,30  L 14,30  L 14,31  L 13,31  L 13,32  L 12,32  L 12,35  L 10,35  L 10,37  L 9,37  L 9,38  L 8,38  L 8,40  L 7,40  L 7,41  L 6,41  L 6,42  L 5,42  L 5,44  L 4,44  L 4,45  L 3,45  L 3,47  L 2,47  L 2,48  L 1,48  L 1,51  L 0,51  L 0,52  L 1,52  L 1,54  L 3,54  L 3,55  L 4,55  L 4,54  L 5,54  L 5,53  L 6,53  L 6,52  L 7,52  L 7,50  L 8,50  L 8,49  L 9,49  L 9,48  L 10,48  L 10,46  L 11,46  L 11,45  L 12,45  L 12,43  L 13,43  L 13,39  L 14,39  L 14,37  L 16,37  L 16,38  L 17,38  L 17,39  L 18,39  L 18,40  L 19,40  L 19,41  L 21,41  L 21,42  L 22,42  L 22,43  L 24,43  L 24,44  L 25,44  L 25,45  L 27,45  L 27,46  L 29,46  L 29,47  L 32,47  L 32,48  L 38,48  L 38,47  L 39,47  L 39,46  L 40,46  L 40,44  L 39,44  L 39,43  L 37,43  L 37,42  L 34,42  L 34,41  L 31,41  L 31,40  L 29,40  L 29,39  L 27,39  L 27,38  L 25,38  L 25,37  L 23,37  L 23,36  L 22,36  L 22,35  L 20,35  L 20,33  L 19,33  L 19,32  L 20,32  L 20,31  L 21,31  L 21,30  L 22,30  L 22,29  L 23,29  L 23,28  L 24,28  L 24,27  L 25,27  L 25,26  L 26,26  L 26,25  L 27,25  L 27,24  L 28,24  L 28,23  L 29,23  L 29,21  L 31,21  L 31,18  L 32,18  L 32,15  L 33,15  L 33,6  L 32,6  L 32,4  L 28,4  L 28,5  L 24,5  L 24,6  L 18,6  L 18,7  L 9,7  L 9,8  L 7,8  L 7,7  L 6,7  L 6,8  L 3,8  L 3,9  L 1,9  L 1,13  L 2,13  L 2,14  L 8,14  L 8,13  L 14,13  L 14,12  L 15,12  L 15,13  L 16,13  L 16,12  L 20,12  L 20,11  L 23,11  L 23,10  L 25,10  L 25,11  L 26,11  L 26,18  L 25,18  L 25,19  L 24,19  L 24,20  L 23,20  L 23,22  L 22,22  L 22,23  L 21,23  L 21,24  L 19,24  L 19,26  Z  " style="fill:rgb(0, 0, 0); fill-opacity:1.000; stroke:none;" />
 <path d="  M 61,91  L 61,92  L 64,92  L 64,93  L 65,93  L 65,94  L 66,94  L 66,95  L 67,95  L 67,99  L 66,99  L 66,103  L 65,103  L 65,109  L 64,109  L 64,115  L 63,115  L 63,119  L 62,119  L 62,121  L 61,121  L 61,125  L 60,125  L 60,130  L 61,130  L 61,131  L 67,131  L 67,130  L 68,130  L 68,125  L 69,125  L 69,118  L 70,118  L 70,112  L 71,112  L 71,105  L 72,105  L 72,100  L 73,100  L 73,96  L 74,96  L 74,95  L 73,95  L 73,91  L 72,91  L 72,89  L 70,89  L 70,88  L 69,88  L 69,87  L 66,87  L 66,86  L 63,86  L 63,85  L 50,85  L 50,86  L 41,86  L 41,87  L 33,87  L 33,88  L 32,88  L 32,90  L 31,90  L 31,92  L 32,92  L 32,94  L 37,94  L 37,93  L 39,93  L 39,92  L 47,92  L 47,91  L 49,91  L 49,92  L 50,92  L 50,91  Z  " style="fill:rgb(0, 0, 0); fill-opacity:1.000; stroke:none;" />
 <path d="  M 51,31  L 50,31  L 50,33  L 49,33  L 49,35  L 48,35  L 48,40  L 47,40  L 47,42  L 46,42  L 46,44  L 45,44  L 45,45  L 44,45  L 44,48  L 43,48  L 43,50  L 42,50  L 42,51  L 41,51  L 41,52  L 40,52  L 40,54  L 39,54  L 39,56  L 38,56  L 38,57  L 37,57  L 37,59  L 36,59  L 36,65  L 37,65  L 37,66  L 41,66  L 41,64  L 42,64  L 42,62  L 43,62  L 43,60  L 44,60  L 44,59  L 45,59  L 45,58  L 46,58  L 46,56  L 47,56  L 47,54  L 48,54  L 48,52  L 49,52  L 49,49  L 50,49  L 50,48  L 52,48  L 52,49  L 53,49  L 53,51  L 54,51  L 54,52  L 55,52  L 55,53  L 56,53  L 56,54  L 57,54  L 57,55  L 58,55  L 58,56  L 59,56  L 59,57  L 60,57  L 60,59  L 61,59  L 61,61  L 62,61  L 62,62  L 63,62  L 63,63  L 64,63  L 64,65  L 65,65  L 65,66  L 70,66  L 70,65  L 71,65  L 71,64  L 72,64  L 72,63  L 73,63  L 73,62  L 74,62  L 74,59  L 73,59  L 73,58  L 72,58  L 72,59  L 71,59  L 71,58  L 69,58  L 69,57  L 68,57  L 68,56  L 66,56  L 66,54  L 65,54  L 65,53  L 64,53  L 64,52  L 62,52  L 62,50  L 60,50  L 60,49  L 59,49  L 59,48  L 58,48  L 58,47  L 57,47  L 57,45  L 56,45  L 56,44  L 55,44  L 55,43  L 54,43  L 54,42  L 53,42  L 53,37  L 54,37  L 54,36  L 55,36  L 55,33  L 56,33  L 56,32  L 57,32  L 57,29  L 58,29  L 58,27  L 59,27  L 59,26  L 60,26  L 60,24  L 61,24  L 61,22  L 62,22  L 62,21  L 63,21  L 63,20  L 64,20  L 64,18  L 65,18  L 65,17  L 66,17  L 66,15  L 67,15  L 67,14  L 66,14  L 66,12  L 65,12  L 65,11  L 63,11  L 63,10  L 43,10  L 43,9  L 40,9  L 40,10  L 38,10  L 38,15  L 57,15  L 57,16  L 58,16  L 58,17  L 57,17  L 57,19  L 56,19  L 56,20  L 55,20  L 55,22  L 54,22  L 54,23  L 53,23  L 53,27  L 52,27  L 52,29  L 51,29  Z  " style="fill:rgb(0, 0, 0); fill-opacity:1.000; stroke:none;" />
 <path d="  M 83,73  L 83,72  L 84,72  L 84,66  L 85,66  L 85,33  L 89,33  L 89,32  L 106,32  L 106,28  L 105,28  L 105,27  L 101,27  L 101,26  L 100,26  L 100,27  L 91,27  L 91,26  L 90,26  L 90,27  L 85,27  L 85,16  L 86,16  L 86,15  L 85,15  L 85,14  L 86,14  L 86,1  L 85,1  L 85,0  L 82,0  L 82,1  L 81,1  L 81,3  L 80,3  L 80,21  L 79,21  L 79,22  L 80,22  L 80,33  L 79,33  L 79,34  L 80,34  L 80,45  L 79,45  L 79,48  L 80,48  L 80,49  L 79,49  L 79,52  L 80,52  L 80,53  L 79,53  L 79,58  L 80,58  L 80,59  L 79,59  L 79,72  L 80,72  L 80,73  Z  " style="fill:rgb(0, 0, 0); fill-opacity:1.000; stroke:none;" />
</svg>
