<?xml version="1.0" encoding="UTF-8" standalone="no"?>
<!DOCTYPE svg PUBLIC "-//W3C//DTD SVG 1.1//EN" 
  "http://www.w3.org/Graphics/SVG/1.1/DTD/svg11.dtd">
<svg width="107" height="136"
     xmlns="http://www.w3.org/2000/svg" version="1.1">
 <path d="  M 31,20  L 31,18  L 32,18  L 32,12  L 31,12  L 31,9  L 30,9  L 30,7  L 28,7  L 28,6  L 27,6  L 27,5  L 26,5  L 26,6  L 25,6  L 25,5  L 22,5  L 22,6  L 7,6  L 7,7  L 3,7  L 3,8  L 2,8  L 2,9  L 1,9  L 1,10  L 0,10  L 0,13  L 2,13  L 2,14  L 7,14  L 7,13  L 14,13  L 14,12  L 15,12  L 15,13  L 16,13  L 16,12  L 22,12  L 22,11  L 23,11  L 23,12  L 24,12  L 24,13  L 25,13  L 25,19  L 24,19  L 24,22  L 23,22  L 23,23  L 22,23  L 22,24  L 21,24  L 21,26  L 19,26  L 19,27  L 18,27  L 18,28  L 17,28  L 17,29  L 16,29  L 16,30  L 15,30  L 15,32  L 14,32  L 14,34  L 13,34  L 13,35  L 12,35  L 12,36  L 11,36  L 11,37  L 10,37  L 10,38  L 9,38  L 9,40  L 8,40  L 8,41  L 7,41  L 7,43  L 6,43  L 6,44  L 5,44  L 5,46  L 4,46  L 4,48  L 3,48  L 3,49  L 2,49  L 2,50  L 1,50  L 1,54  L 2,54  L 2,55  L 3,55  L 3,56  L 5,56  L 5,57  L 6,57  L 6,56  L 7,56  L 7,54  L 8,54  L 8,53  L 9,53  L 9,50  L 10,50  L 10,49  L 11,49  L 11,47  L 12,47  L 12,45  L 13,45  L 13,42  L 14,42  L 14,39  L 17,39  L 17,40  L 18,40  L 18,41  L 19,41  L 19,42  L 21,42  L 21,43  L 23,43  L 23,44  L 25,44  L 25,45  L 26,45  L 26,46  L 27,46  L 27,47  L 28,47  L 28,48  L 32,48  L 32,49  L 35,49  L 35,50  L 37,50  L 37,49  L 39,49  L 39,47  L 40,47  L 40,46  L 39,46  L 39,45  L 38,45  L 38,44  L 37,44  L 37,43  L 34,43  L 34,42  L 31,42  L 31,41  L 29,41  L 29,40  L 28,40  L 28,39  L 27,39  L 27,38  L 25,38  L 25,37  L 23,37  L 23,36  L 22,36  L 22,35  L 21,35  L 21,31  L 23,31  L 23,30  L 24,30  L 24,28  L 26,28  L 26,27  L 27,27  L 27,26  L 28,26  L 28,25  L 29,25  L 29,22  L 30,22  L 30,20  Z  " style="fill:rgb(0, 0, 0); fill-opacity:1.000; stroke:none;" />
 <path d="  M 67,85  L 67,83  L 66,83  L 66,82  L 64,82  L 64,80  L 62,80  L 62,79  L 59,79  L 59,78  L 53,78  L 53,77  L 39,77  L 39,78  L 38,78  L 38,79  L 37,79  L 37,80  L 36,80  L 36,84  L 53,84  L 53,85  L 57,85  L 57,86  L 60,86  L 60,87  L 61,87  L 61,88  L 62,88  L 62,89  L 64,89  L 64,91  L 65,91  L 65,92  L 66,92  L 66,94  L 67,94  L 67,95  L 66,95  L 66,97  L 65,97  L 65,98  L 63,98  L 63,99  L 61,99  L 61,100  L 58,100  L 58,101  L 56,101  L 56,102  L 54,102  L 54,103  L 53,103  L 53,104  L 50,104  L 50,105  L 49,105  L 49,106  L 48,106  L 48,107  L 46,107  L 46,108  L 45,108  L 45,109  L 43,109  L 43,110  L 42,110  L 42,111  L 41,111  L 41,112  L 39,112  L 39,113  L 38,113  L 38,114  L 37,114  L 37,115  L 36,115  L 36,116  L 35,116  L 35,117  L 34,117  L 34,118  L 33,118  L 33,120  L 32,120  L 32,123  L 31,123  L 31,124  L 30,124  L 30,133  L 31,133  L 31,134  L 32,134  L 32,136  L 55,136  L 55,135  L 59,135  L 59,134  L 61,134  L 61,133  L 65,133  L 65,132  L 68,132  L 68,131  L 71,131  L 71,130  L 74,130  L 74,129  L 79,129  L 79,128  L 82,128  L 82,127  L 84,127  L 84,126  L 87,126  L 87,124  L 88,124  L 88,121  L 89,121  L 89,120  L 88,120  L 88,119  L 82,119  L 82,120  L 80,120  L 80,121  L 77,121  L 77,122  L 74,122  L 74,123  L 72,123  L 72,124  L 69,124  L 69,125  L 66,125  L 66,126  L 61,126  L 61,127  L 59,127  L 59,128  L 56,128  L 56,129  L 54,129  L 54,130  L 48,130  L 48,131  L 47,131  L 47,130  L 44,130  L 44,131  L 43,131  L 43,130  L 40,130  L 40,129  L 38,129  L 38,123  L 39,123  L 39,122  L 40,122  L 40,120  L 41,120  L 41,119  L 42,119  L 42,118  L 43,118  L 43,117  L 45,117  L 45,116  L 46,116  L 46,115  L 47,115  L 47,114  L 50,114  L 50,113  L 51,113  L 51,112  L 52,112  L 52,111  L 54,111  L 54,110  L 55,110  L 55,109  L 58,109  L 58,108  L 60,108  L 60,107  L 62,107  L 62,106  L 65,106  L 65,105  L 67,105  L 67,104  L 70,104  L 70,103  L 71,103  L 71,102  L 73,102  L 73,100  L 74,100  L 74,95  L 73,95  L 73,93  L 72,93  L 72,92  L 71,92  L 71,91  L 70,91  L 70,87  L 69,87  L 69,86  L 68,86  L 68,85  Z  " style="fill:rgb(0, 0, 0); fill-opacity:1.000; stroke:none;" />
 <path d="  M 38,10  L 37,10  L 37,11  L 38,11  L 38,15  L 57,15  L 57,18  L 56,18  L 56,19  L 55,19  L 55,20  L 54,20  L 54,22  L 53,22  L 53,23  L 52,23  L 52,25  L 51,25  L 51,28  L 50,28  L 50,32  L 49,32  L 49,34  L 48,34  L 48,42  L 47,42  L 47,44  L 46,44  L 46,46  L 45,46  L 45,48  L 44,48  L 44,49  L 43,49  L 43,51  L 42,51  L 42,53  L 41,53  L 41,55  L 40,55  L 40,57  L 39,57  L 39,58  L 38,58  L 38,59  L 37,59  L 37,60  L 36,60  L 36,65  L 35,65  L 35,66  L 36,66  L 36,68  L 37,68  L 37,69  L 39,69  L 39,68  L 41,68  L 41,66  L 42,66  L 42,64  L 43,64  L 43,63  L 44,63  L 44,62  L 45,62  L 45,61  L 46,61  L 46,60  L 47,60  L 47,59  L 48,59  L 48,57  L 49,57  L 49,55  L 50,55  L 50,52  L 51,52  L 51,51  L 53,51  L 53,50  L 54,50  L 54,51  L 55,51  L 55,52  L 56,52  L 56,53  L 57,53  L 57,54  L 58,54  L 58,55  L 59,55  L 59,56  L 60,56  L 60,57  L 61,57  L 61,58  L 62,58  L 62,59  L 63,59  L 63,60  L 64,60  L 64,62  L 65,62  L 65,63  L 66,63  L 66,64  L 67,64  L 67,65  L 69,65  L 69,64  L 71,64  L 71,63  L 72,63  L 72,62  L 73,62  L 73,60  L 74,60  L 74,59  L 75,59  L 75,55  L 73,55  L 73,54  L 68,54  L 68,53  L 66,53  L 66,52  L 65,52  L 65,51  L 63,51  L 63,50  L 62,50  L 62,49  L 61,49  L 61,48  L 60,48  L 60,47  L 59,47  L 59,46  L 58,46  L 58,45  L 57,45  L 57,44  L 56,44  L 56,42  L 55,42  L 55,41  L 54,41  L 54,40  L 53,40  L 53,38  L 54,38  L 54,35  L 55,35  L 55,33  L 56,33  L 56,29  L 57,29  L 57,27  L 58,27  L 58,26  L 59,26  L 59,23  L 60,23  L 60,22  L 61,22  L 61,21  L 62,21  L 62,19  L 63,19  L 63,15  L 64,15  L 64,12  L 63,12  L 63,11  L 62,11  L 62,10  L 61,10  L 61,9  L 59,9  L 59,8  L 50,8  L 50,9  L 48,9  L 48,8  L 46,8  L 46,9  L 43,9  L 43,8  L 42,8  L 42,9  L 38,9  Z  " style="fill:rgb(0, 0, 0); fill-opacity:1.000; stroke:none;" />
 <path d="  M 87,67  L 88,67  L 88,66  L 87,66  L 87,56  L 86,56  L 86,44  L 85,44  L 85,43  L 86,43  L 86,42  L 85,42  L 85,41  L 86,41  L 86,38  L 85,38  L 85,37  L 86,37  L 86,34  L 85,34  L 85,30  L 86,30  L 86,29  L 88,29  L 88,28  L 106,28  L 106,27  L 107,27  L 107,23  L 106,23  L 106,22  L 86,22  L 86,21  L 85,21  L 85,19  L 86,19  L 86,1  L 85,1  L 85,0  L 82,0  L 82,1  L 81,1  L 81,4  L 80,4  L 80,56  L 81,56  L 81,69  L 82,69  L 82,72  L 83,72  L 83,73  L 86,73  L 86,72  L 87,72  L 87,71  L 88,71  L 88,68  L 87,68  Z  " style="fill:rgb(0, 0, 0); fill-opacity:1.000; stroke:none;" />
</svg>
