<?xml version="1.0" encoding="UTF-8" standalone="no"?>
<!DOCTYPE svg PUBLIC "-//W3C//DTD SVG 1.1//EN" 
  "http://www.w3.org/Graphics/SVG/1.1/DTD/svg11.dtd">
<svg width="104" height="131"
     xmlns="http://www.w3.org/2000/svg" version="1.1">
 <path d="  M 18,26  L 18,27  L 17,27  L 17,28  L 16,28  L 16,29  L 15,29  L 15,31  L 14,31  L 14,32  L 13,32  L 13,33  L 12,33  L 12,34  L 11,34  L 11,35  L 10,35  L 10,36  L 9,36  L 9,38  L 8,38  L 8,40  L 7,40  L 7,41  L 6,41  L 6,42  L 5,42  L 5,44  L 4,44  L 4,45  L 3,45  L 3,47  L 2,47  L 2,49  L 1,49  L 1,51  L 0,51  L 0,55  L 1,55  L 1,58  L 4,58  L 4,57  L 5,57  L 5,56  L 6,56  L 6,54  L 7,54  L 7,52  L 8,52  L 8,49  L 9,49  L 9,48  L 10,48  L 10,46  L 11,46  L 11,44  L 12,44  L 12,42  L 13,42  L 13,38  L 14,38  L 14,35  L 16,35  L 16,36  L 17,36  L 17,37  L 19,37  L 19,38  L 20,38  L 20,39  L 21,39  L 21,40  L 22,40  L 22,41  L 24,41  L 24,42  L 25,42  L 25,43  L 26,43  L 26,44  L 28,44  L 28,45  L 38,45  L 38,42  L 37,42  L 37,41  L 36,41  L 36,40  L 32,40  L 32,39  L 29,39  L 29,38  L 27,38  L 27,37  L 26,37  L 26,36  L 24,36  L 24,35  L 23,35  L 23,34  L 22,34  L 22,32  L 21,32  L 21,30  L 22,30  L 22,29  L 23,29  L 23,27  L 24,27  L 24,26  L 25,26  L 25,25  L 26,25  L 26,24  L 27,24  L 27,22  L 28,22  L 28,21  L 29,21  L 29,19  L 30,19  L 30,18  L 31,18  L 31,9  L 30,9  L 30,8  L 29,8  L 29,9  L 26,9  L 26,10  L 16,10  L 16,11  L 15,11  L 15,10  L 14,10  L 14,11  L 2,11  L 2,12  L 1,12  L 1,14  L 0,14  L 0,15  L 1,15  L 1,17  L 10,17  L 10,16  L 12,16  L 12,17  L 14,17  L 14,16  L 19,16  L 19,15  L 24,15  L 24,16  L 25,16  L 25,17  L 24,17  L 24,19  L 23,19  L 23,20  L 22,20  L 22,21  L 21,21  L 21,23  L 20,23  L 20,24  L 19,24  L 19,26  Z  " style="fill:rgb(0, 0, 0); fill-opacity:1.000; stroke:none;" />
 <path d="  M 56,119  L 50,119  L 50,120  L 48,120  L 48,121  L 46,121  L 46,122  L 41,122  L 41,123  L 38,123  L 38,124  L 33,124  L 33,125  L 20,125  L 20,124  L 18,124  L 18,123  L 17,123  L 17,120  L 16,120  L 16,119  L 17,119  L 17,117  L 18,117  L 18,115  L 19,115  L 19,114  L 20,114  L 20,113  L 22,113  L 22,112  L 23,112  L 23,111  L 25,111  L 25,110  L 27,110  L 27,109  L 30,109  L 30,108  L 32,108  L 32,107  L 35,107  L 35,106  L 38,106  L 38,105  L 42,105  L 42,104  L 46,104  L 46,103  L 51,103  L 51,102  L 52,102  L 52,100  L 51,100  L 51,98  L 50,98  L 50,91  L 51,91  L 51,89  L 50,89  L 50,88  L 49,88  L 49,86  L 47,86  L 47,85  L 46,85  L 46,84  L 45,84  L 45,83  L 44,83  L 44,82  L 41,82  L 41,81  L 39,81  L 39,80  L 37,80  L 37,79  L 35,79  L 35,78  L 34,78  L 34,79  L 33,79  L 33,78  L 32,78  L 32,79  L 31,79  L 31,78  L 30,78  L 30,79  L 21,79  L 21,80  L 20,80  L 20,79  L 19,79  L 19,80  L 14,80  L 14,81  L 13,81  L 13,82  L 12,82  L 12,83  L 13,83  L 13,84  L 12,84  L 12,87  L 15,87  L 15,88  L 16,88  L 16,87  L 18,87  L 18,86  L 21,86  L 21,85  L 28,85  L 28,84  L 29,84  L 29,85  L 30,85  L 30,84  L 33,84  L 33,85  L 37,85  L 37,86  L 38,86  L 38,87  L 39,87  L 39,88  L 40,88  L 40,90  L 41,90  L 41,91  L 42,91  L 42,92  L 43,92  L 43,97  L 44,97  L 44,99  L 43,99  L 43,100  L 40,100  L 40,101  L 31,101  L 31,102  L 28,102  L 28,103  L 25,103  L 25,104  L 24,104  L 24,105  L 23,105  L 23,104  L 22,104  L 22,105  L 21,105  L 21,106  L 18,106  L 18,107  L 17,107  L 17,108  L 15,108  L 15,109  L 14,109  L 14,111  L 13,111  L 13,112  L 12,112  L 12,114  L 11,114  L 11,116  L 10,116  L 10,121  L 11,121  L 11,124  L 12,124  L 12,127  L 13,127  L 13,129  L 14,129  L 14,130  L 16,130  L 16,131  L 35,131  L 35,130  L 39,130  L 39,129  L 43,129  L 43,128  L 49,128  L 49,127  L 51,127  L 51,126  L 54,126  L 54,125  L 56,125  L 56,124  L 57,124  L 57,121  L 56,121  Z  " style="fill:rgb(0, 0, 0); fill-opacity:1.000; stroke:none;" />
 <path d="  M 59,52  L 60,52  L 60,53  L 61,53  L 61,54  L 62,54  L 62,55  L 63,55  L 63,57  L 64,57  L 64,60  L 65,60  L 65,67  L 66,67  L 66,68  L 67,68  L 67,67  L 68,67  L 68,65  L 70,65  L 70,60  L 71,60  L 71,59  L 72,59  L 72,56  L 73,56  L 73,52  L 69,52  L 69,51  L 67,51  L 67,50  L 66,50  L 66,49  L 65,49  L 65,48  L 64,48  L 64,47  L 63,47  L 63,46  L 61,46  L 61,45  L 60,45  L 60,44  L 59,44  L 59,43  L 57,43  L 57,41  L 56,41  L 56,40  L 55,40  L 55,39  L 54,39  L 54,36  L 52,36  L 52,33  L 53,33  L 53,31  L 54,31  L 54,28  L 55,28  L 55,26  L 56,26  L 56,23  L 57,23  L 57,22  L 58,22  L 58,21  L 59,21  L 59,19  L 60,19  L 60,18  L 61,18  L 61,17  L 63,17  L 63,16  L 65,16  L 65,14  L 66,14  L 66,11  L 43,11  L 43,10  L 42,10  L 42,11  L 39,11  L 39,10  L 37,10  L 37,12  L 36,12  L 36,17  L 38,17  L 38,16  L 40,16  L 40,17  L 42,17  L 42,16  L 45,16  L 45,17  L 46,17  L 46,16  L 53,16  L 53,17  L 54,17  L 54,18  L 53,18  L 53,19  L 52,19  L 52,20  L 51,20  L 51,22  L 50,22  L 50,24  L 49,24  L 49,27  L 48,27  L 48,30  L 47,30  L 47,32  L 46,32  L 46,33  L 47,33  L 47,34  L 46,34  L 46,36  L 45,36  L 45,39  L 44,39  L 44,42  L 43,42  L 43,43  L 42,43  L 42,44  L 41,44  L 41,45  L 40,45  L 40,47  L 39,47  L 39,48  L 38,48  L 38,50  L 37,50  L 37,51  L 36,51  L 36,53  L 35,53  L 35,54  L 34,54  L 34,55  L 33,55  L 33,56  L 32,56  L 32,58  L 31,58  L 31,60  L 30,60  L 30,65  L 29,65  L 29,67  L 30,67  L 30,68  L 31,68  L 31,69  L 32,69  L 32,68  L 34,68  L 34,66  L 35,66  L 35,63  L 36,63  L 36,61  L 37,61  L 37,60  L 38,60  L 38,59  L 39,59  L 39,58  L 40,58  L 40,56  L 41,56  L 41,55  L 42,55  L 42,53  L 43,53  L 43,52  L 44,52  L 44,50  L 45,50  L 45,49  L 46,49  L 46,48  L 47,48  L 47,45  L 48,45  L 48,43  L 49,43  L 49,42  L 50,42  L 50,43  L 51,43  L 51,44  L 52,44  L 52,45  L 53,45  L 53,46  L 54,46  L 54,47  L 55,47  L 55,48  L 56,48  L 56,49  L 57,49  L 57,50  L 58,50  L 58,51  L 59,51  Z  " style="fill:rgb(0, 0, 0); fill-opacity:1.000; stroke:none;" />
 <path d="  M 61,82  L 61,83  L 60,83  L 60,84  L 59,84  L 59,87  L 60,87  L 60,96  L 61,96  L 61,110  L 62,110  L 62,117  L 63,117  L 63,121  L 64,121  L 64,125  L 65,125  L 65,126  L 66,126  L 66,127  L 70,127  L 70,125  L 71,125  L 71,123  L 72,123  L 72,122  L 77,122  L 77,123  L 82,123  L 82,122  L 84,122  L 84,121  L 87,121  L 87,120  L 88,120  L 88,119  L 90,119  L 90,118  L 92,118  L 92,117  L 93,117  L 93,115  L 95,115  L 95,113  L 96,113  L 96,111  L 97,111  L 97,110  L 98,110  L 98,109  L 99,109  L 99,108  L 100,108  L 100,107  L 101,107  L 101,103  L 102,103  L 102,99  L 101,99  L 101,96  L 100,96  L 100,94  L 99,94  L 99,92  L 98,92  L 98,89  L 97,89  L 97,88  L 96,88  L 96,85  L 95,85  L 95,83  L 94,83  L 94,81  L 93,81  L 93,80  L 90,80  L 90,81  L 89,81  L 89,83  L 88,83  L 88,85  L 89,85  L 89,88  L 90,88  L 90,90  L 91,90  L 91,93  L 92,93  L 92,95  L 91,95  L 91,96  L 88,96  L 88,97  L 87,97  L 87,96  L 86,96  L 86,97  L 70,97  L 70,98  L 68,98  L 68,97  L 67,97  L 67,85  L 66,85  L 66,83  L 65,83  L 65,82  Z  M 71,118  L 71,116  L 70,116  L 70,115  L 69,115  L 69,112  L 68,112  L 68,108  L 67,108  L 67,106  L 68,106  L 68,105  L 70,105  L 70,104  L 77,104  L 77,103  L 78,103  L 78,104  L 79,104  L 79,103  L 93,103  L 93,106  L 92,106  L 92,108  L 91,108  L 91,110  L 89,110  L 89,111  L 88,111  L 88,112  L 85,112  L 85,113  L 82,113  L 82,114  L 79,114  L 79,115  L 78,115  L 78,116  L 75,116  L 75,117  L 74,117  L 74,118  Z  " style="fill:rgb(0, 0, 0); fill-opacity:1.000; stroke:none;" />
 <path d="  M 86,0  L 82,0  L 82,1  L 81,1  L 81,3  L 80,3  L 80,60  L 81,60  L 81,61  L 80,61  L 80,63  L 81,63  L 81,67  L 82,67  L 82,68  L 86,68  L 86,32  L 87,32  L 87,31  L 90,31  L 90,32  L 91,32  L 91,31  L 100,31  L 100,32  L 103,32  L 103,31  L 104,31  L 104,27  L 103,27  L 103,26  L 91,26  L 91,25  L 90,25  L 90,26  L 87,26  L 87,25  L 86,25  Z  " style="fill:rgb(0, 0, 0); fill-opacity:1.000; stroke:none;" />
</svg>
