<?xml version="1.0" encoding="UTF-8" standalone="no"?>
<!DOCTYPE svg PUBLIC "-//W3C//DTD SVG 1.1//EN" 
  "http://www.w3.org/Graphics/SVG/1.1/DTD/svg11.dtd">
<svg width="106" height="129"
     xmlns="http://www.w3.org/2000/svg" version="1.1">
 <path d="  M 27,18  L 26,18  L 26,19  L 25,19  L 25,21  L 24,21  L 24,22  L 23,22  L 23,23  L 22,23  L 22,24  L 21,24  L 21,25  L 20,25  L 20,26  L 19,26  L 19,27  L 18,27  L 18,28  L 17,28  L 17,30  L 16,30  L 16,31  L 15,31  L 15,32  L 14,32  L 14,33  L 13,33  L 13,34  L 12,34  L 12,35  L 11,35  L 11,36  L 10,36  L 10,38  L 9,38  L 9,40  L 8,40  L 8,41  L 7,41  L 7,42  L 6,42  L 6,44  L 5,44  L 5,45  L 4,45  L 4,46  L 3,46  L 3,48  L 2,48  L 2,51  L 1,51  L 1,52  L 2,52  L 2,54  L 3,54  L 3,55  L 5,55  L 5,54  L 6,54  L 6,53  L 7,53  L 7,51  L 8,51  L 8,50  L 9,50  L 9,49  L 10,49  L 10,47  L 11,47  L 11,46  L 12,46  L 12,45  L 13,45  L 13,43  L 14,43  L 14,38  L 15,38  L 15,36  L 16,36  L 16,37  L 19,37  L 19,38  L 20,38  L 20,39  L 21,39  L 21,40  L 22,40  L 22,41  L 24,41  L 24,42  L 25,42  L 25,43  L 27,43  L 27,44  L 28,44  L 28,45  L 30,45  L 30,46  L 33,46  L 33,47  L 36,47  L 36,48  L 38,48  L 38,47  L 40,47  L 40,46  L 41,46  L 41,43  L 39,43  L 39,42  L 38,42  L 38,41  L 36,41  L 36,40  L 33,40  L 33,39  L 30,39  L 30,38  L 28,38  L 28,37  L 26,37  L 26,36  L 25,36  L 25,35  L 23,35  L 23,34  L 22,34  L 22,30  L 23,30  L 23,29  L 24,29  L 24,28  L 25,28  L 25,27  L 26,27  L 26,26  L 27,26  L 27,25  L 28,25  L 28,24  L 29,24  L 29,23  L 30,23  L 30,21  L 31,21  L 31,20  L 32,20  L 32,18  L 33,18  L 33,16  L 34,16  L 34,10  L 33,10  L 33,6  L 32,6  L 32,5  L 28,5  L 28,6  L 17,6  L 17,7  L 9,7  L 9,8  L 8,8  L 8,7  L 7,7  L 7,8  L 1,8  L 1,9  L 0,9  L 0,13  L 1,13  L 1,14  L 7,14  L 7,13  L 14,13  L 14,12  L 22,12  L 22,11  L 27,11  Z  " style="fill:rgb(0, 0, 0); fill-opacity:1.000; stroke:none;" />
 <path d="  M 69,104  L 69,105  L 71,105  L 71,112  L 70,112  L 70,115  L 69,115  L 69,117  L 68,117  L 68,118  L 66,118  L 66,119  L 62,119  L 62,120  L 56,120  L 56,121  L 53,121  L 53,122  L 49,122  L 49,123  L 47,123  L 47,122  L 46,122  L 46,123  L 43,123  L 43,122  L 41,122  L 41,121  L 40,121  L 40,117  L 39,117  L 39,109  L 38,109  L 38,108  L 39,108  L 39,106  L 40,106  L 40,105  L 41,105  L 41,106  L 42,106  L 42,105  L 48,105  L 48,104  L 49,104  L 49,105  L 52,105  L 52,104  Z  M 80,97  L 79,97  L 79,96  L 80,96  L 80,81  L 79,81  L 79,80  L 78,80  L 78,81  L 76,81  L 76,83  L 75,83  L 75,87  L 74,87  L 74,88  L 75,88  L 75,89  L 74,89  L 74,90  L 75,90  L 75,91  L 74,91  L 74,98  L 46,98  L 46,99  L 45,99  L 45,98  L 42,98  L 42,99  L 41,99  L 41,98  L 40,98  L 40,99  L 39,99  L 39,96  L 38,96  L 38,95  L 39,95  L 39,93  L 38,93  L 38,80  L 39,80  L 39,79  L 38,79  L 38,78  L 39,78  L 39,77  L 38,77  L 38,76  L 37,76  L 37,75  L 35,75  L 35,76  L 34,76  L 34,77  L 33,77  L 33,78  L 32,78  L 32,79  L 31,79  L 31,80  L 32,80  L 32,81  L 31,81  L 31,109  L 32,109  L 32,111  L 31,111  L 31,112  L 32,112  L 32,120  L 33,120  L 33,123  L 34,123  L 34,127  L 35,127  L 35,128  L 36,128  L 36,129  L 37,129  L 37,128  L 38,128  L 38,129  L 50,129  L 50,128  L 54,128  L 54,127  L 59,127  L 59,126  L 61,126  L 61,125  L 64,125  L 64,124  L 68,124  L 68,123  L 70,123  L 70,122  L 72,122  L 72,121  L 73,121  L 73,120  L 75,120  L 75,117  L 76,117  L 76,112  L 77,112  L 77,108  L 78,108  L 78,107  L 77,107  L 77,106  L 78,106  L 78,103  L 79,103  L 79,100  L 80,100  L 80,99  L 79,99  L 79,98  L 80,98  Z  " style="fill:rgb(0, 0, 0); fill-opacity:1.000; stroke:none;" />
 <path d="  M 51,31  L 50,31  L 50,34  L 49,34  L 49,39  L 48,39  L 48,42  L 47,42  L 47,43  L 46,43  L 46,44  L 45,44  L 45,45  L 44,45  L 44,48  L 43,48  L 43,49  L 42,49  L 42,51  L 41,51  L 41,52  L 40,52  L 40,53  L 39,53  L 39,54  L 38,54  L 38,55  L 37,55  L 37,57  L 36,57  L 36,59  L 35,59  L 35,64  L 36,64  L 36,65  L 37,65  L 37,66  L 39,66  L 39,64  L 40,64  L 40,63  L 41,63  L 41,61  L 42,61  L 42,59  L 43,59  L 43,58  L 44,58  L 44,57  L 45,57  L 45,56  L 46,56  L 46,54  L 48,54  L 48,52  L 49,52  L 49,50  L 50,50  L 50,48  L 51,48  L 51,47  L 52,47  L 52,46  L 53,46  L 53,47  L 54,47  L 54,48  L 56,48  L 56,49  L 57,49  L 57,50  L 58,50  L 58,51  L 59,51  L 59,52  L 60,52  L 60,53  L 61,53  L 61,54  L 62,54  L 62,55  L 63,55  L 63,56  L 64,56  L 64,58  L 65,58  L 65,60  L 66,60  L 66,62  L 67,62  L 67,63  L 68,63  L 68,64  L 71,64  L 71,63  L 72,63  L 72,64  L 73,64  L 73,63  L 74,63  L 74,62  L 75,62  L 75,57  L 74,57  L 74,56  L 71,56  L 71,55  L 70,55  L 70,54  L 69,54  L 69,52  L 68,52  L 68,51  L 67,51  L 67,50  L 65,50  L 65,49  L 64,49  L 64,48  L 63,48  L 63,47  L 62,47  L 62,46  L 61,46  L 61,45  L 60,45  L 60,44  L 59,44  L 59,43  L 57,43  L 57,42  L 56,42  L 56,40  L 55,40  L 55,39  L 54,39  L 54,38  L 55,38  L 55,36  L 56,36  L 56,34  L 57,34  L 57,32  L 58,32  L 58,31  L 57,31  L 57,30  L 58,30  L 58,28  L 59,28  L 59,26  L 60,26  L 60,24  L 61,24  L 61,22  L 62,22  L 62,20  L 63,20  L 63,19  L 64,19  L 64,17  L 65,17  L 65,16  L 66,16  L 66,12  L 65,12  L 65,11  L 64,11  L 64,10  L 62,10  L 62,9  L 61,9  L 61,10  L 60,10  L 60,9  L 40,9  L 40,10  L 39,10  L 39,15  L 52,15  L 52,14  L 54,14  L 54,15  L 57,15  L 57,16  L 58,16  L 58,17  L 56,17  L 56,19  L 55,19  L 55,21  L 54,21  L 54,24  L 53,24  L 53,27  L 52,27  L 52,30  L 51,30  Z  " style="fill:rgb(0, 0, 0); fill-opacity:1.000; stroke:none;" />
 <path d="  M 87,31  L 92,31  L 92,30  L 99,30  L 99,31  L 100,31  L 100,30  L 101,30  L 101,31  L 106,31  L 106,26  L 105,26  L 105,25  L 87,25  L 87,1  L 86,1  L 86,0  L 83,0  L 83,1  L 82,1  L 82,2  L 81,2  L 81,34  L 82,34  L 82,35  L 81,35  L 81,36  L 82,36  L 82,37  L 81,37  L 81,38  L 82,38  L 82,41  L 81,41  L 81,42  L 82,42  L 82,45  L 81,45  L 81,46  L 82,46  L 82,47  L 81,47  L 81,48  L 82,48  L 82,49  L 81,49  L 81,51  L 82,51  L 82,52  L 81,52  L 81,56  L 82,56  L 82,57  L 81,57  L 81,69  L 82,69  L 82,70  L 86,70  L 86,68  L 87,68  Z  " style="fill:rgb(0, 0, 0); fill-opacity:1.000; stroke:none;" />
</svg>
