<?xml version="1.0" encoding="UTF-8" standalone="no"?>
<!DOCTYPE svg PUBLIC "-//W3C//DTD SVG 1.1//EN" 
  "http://www.w3.org/Graphics/SVG/1.1/DTD/svg11.dtd">
<svg width="106" height="131"
     xmlns="http://www.w3.org/2000/svg" version="1.1">
 <path d="  M 26,6  L 25,6  L 25,5  L 24,5  L 24,6  L 18,6  L 18,7  L 7,7  L 7,8  L 6,8  L 6,7  L 5,7  L 5,8  L 2,8  L 2,9  L 1,9  L 1,11  L 0,11  L 0,12  L 2,12  L 2,13  L 10,13  L 10,12  L 11,12  L 11,13  L 12,13  L 12,12  L 13,12  L 13,13  L 14,13  L 14,12  L 19,12  L 19,11  L 22,11  L 22,12  L 23,12  L 23,16  L 22,16  L 22,19  L 21,19  L 21,22  L 20,22  L 20,24  L 19,24  L 19,26  L 18,26  L 18,28  L 17,28  L 17,30  L 16,30  L 16,32  L 15,32  L 15,34  L 14,34  L 14,37  L 13,37  L 13,38  L 11,38  L 11,40  L 10,40  L 10,41  L 9,41  L 9,42  L 7,42  L 7,44  L 6,44  L 6,45  L 5,45  L 5,47  L 4,47  L 4,49  L 3,49  L 3,50  L 4,50  L 4,51  L 3,51  L 3,52  L 4,52  L 4,53  L 5,53  L 5,54  L 6,54  L 6,53  L 8,53  L 8,52  L 9,52  L 9,50  L 10,50  L 10,49  L 11,49  L 11,47  L 12,47  L 12,46  L 13,46  L 13,42  L 14,42  L 14,43  L 15,43  L 15,42  L 16,42  L 16,41  L 19,41  L 19,42  L 20,42  L 20,43  L 22,43  L 22,44  L 23,44  L 23,45  L 25,45  L 25,46  L 27,46  L 27,47  L 34,47  L 34,46  L 35,46  L 35,43  L 34,43  L 34,42  L 32,42  L 32,41  L 29,41  L 29,40  L 27,40  L 27,39  L 25,39  L 25,38  L 24,38  L 24,37  L 23,37  L 23,36  L 22,36  L 22,35  L 21,35  L 21,32  L 22,32  L 22,31  L 23,31  L 23,29  L 24,29  L 24,27  L 25,27  L 25,25  L 26,25  L 26,22  L 27,22  L 27,21  L 28,21  L 28,18  L 29,18  L 29,11  L 32,11  L 32,12  L 52,12  L 52,13  L 53,13  L 53,12  L 54,12  L 54,16  L 53,16  L 53,18  L 52,18  L 52,20  L 51,20  L 51,22  L 50,22  L 50,24  L 49,24  L 49,26  L 48,26  L 48,28  L 47,28  L 47,29  L 46,29  L 46,33  L 45,33  L 45,35  L 44,35  L 44,42  L 40,42  L 40,44  L 39,44  L 39,46  L 38,46  L 38,49  L 37,49  L 37,51  L 36,51  L 36,52  L 35,52  L 35,54  L 34,54  L 34,56  L 33,56  L 33,58  L 32,58  L 32,61  L 33,61  L 33,62  L 34,62  L 34,61  L 37,61  L 37,60  L 38,60  L 38,59  L 39,59  L 39,57  L 40,57  L 40,56  L 41,56  L 41,54  L 42,54  L 42,53  L 43,53  L 43,51  L 44,51  L 44,50  L 45,50  L 45,46  L 46,46  L 46,45  L 49,45  L 49,46  L 51,46  L 51,47  L 52,47  L 52,49  L 53,49  L 53,50  L 54,50  L 54,51  L 55,51  L 55,52  L 56,52  L 56,53  L 57,53  L 57,54  L 58,54  L 58,55  L 59,55  L 59,56  L 60,56  L 60,57  L 61,57  L 61,56  L 65,56  L 65,54  L 66,54  L 66,50  L 65,50  L 65,49  L 63,49  L 63,48  L 62,48  L 62,47  L 60,47  L 60,45  L 59,45  L 59,44  L 58,44  L 58,43  L 57,43  L 57,42  L 56,42  L 56,41  L 54,41  L 54,40  L 53,40  L 53,39  L 52,39  L 52,38  L 51,38  L 51,35  L 50,35  L 50,34  L 51,34  L 51,32  L 52,32  L 52,30  L 53,30  L 53,29  L 54,29  L 54,27  L 55,27  L 55,26  L 56,26  L 56,23  L 57,23  L 57,21  L 58,21  L 58,19  L 59,19  L 59,15  L 60,15  L 60,12  L 61,12  L 61,7  L 60,7  L 60,6  L 55,6  L 55,7  L 32,7  L 32,8  L 31,8  L 31,9  L 28,9  L 28,8  L 27,8  L 27,7  L 26,7  Z  M 45,43  L 46,43  L 46,44  L 45,44  Z  " style="fill:rgb(0, 0, 0); fill-opacity:1.000; stroke:none;" />
 <path d="  M 22,107  L 22,109  L 21,109  L 21,110  L 20,110  L 20,111  L 19,111  L 19,112  L 18,112  L 18,113  L 17,113  L 17,114  L 16,114  L 16,115  L 15,115  L 15,117  L 14,117  L 14,121  L 15,121  L 15,122  L 16,122  L 16,123  L 18,123  L 18,122  L 19,122  L 19,120  L 20,120  L 20,119  L 21,119  L 21,118  L 22,118  L 22,116  L 23,116  L 23,115  L 24,115  L 24,113  L 26,113  L 26,111  L 27,111  L 27,110  L 28,110  L 28,108  L 29,108  L 29,107  L 30,107  L 30,106  L 31,106  L 31,104  L 32,104  L 32,103  L 33,103  L 33,102  L 36,102  L 36,103  L 37,103  L 37,104  L 39,104  L 39,105  L 42,105  L 42,106  L 45,106  L 45,107  L 48,107  L 48,108  L 50,108  L 50,109  L 52,109  L 52,110  L 53,110  L 53,111  L 55,111  L 55,112  L 56,112  L 56,113  L 60,113  L 60,112  L 61,112  L 61,109  L 60,109  L 60,108  L 59,108  L 59,107  L 58,107  L 58,106  L 56,106  L 56,105  L 55,105  L 55,104  L 52,104  L 52,103  L 50,103  L 50,102  L 47,102  L 47,101  L 45,101  L 45,100  L 43,100  L 43,99  L 41,99  L 41,98  L 39,98  L 39,97  L 37,97  L 37,96  L 36,96  L 36,95  L 37,95  L 37,94  L 38,94  L 38,92  L 39,92  L 39,90  L 40,90  L 40,89  L 41,89  L 41,88  L 42,88  L 42,87  L 43,87  L 43,85  L 44,85  L 44,83  L 45,83  L 45,74  L 44,74  L 44,73  L 43,73  L 43,72  L 40,72  L 40,74  L 39,74  L 39,76  L 40,76  L 40,78  L 41,78  L 41,79  L 40,79  L 40,82  L 39,82  L 39,84  L 38,84  L 38,85  L 37,85  L 37,86  L 36,86  L 36,88  L 35,88  L 35,89  L 34,89  L 34,90  L 33,90  L 33,92  L 32,92  L 32,94  L 31,94  L 31,96  L 30,96  L 30,97  L 29,97  L 29,99  L 28,99  L 28,101  L 27,101  L 27,102  L 26,102  L 26,103  L 25,103  L 25,105  L 24,105  L 24,106  L 23,106  L 23,107  Z  " style="fill:rgb(0, 0, 0); fill-opacity:1.000; stroke:none;" />
 <path d="  M 56,120  L 55,120  L 55,122  L 54,122  L 54,124  L 53,124  L 53,127  L 52,127  L 52,131  L 58,131  L 58,130  L 59,130  L 59,126  L 60,126  L 60,124  L 61,124  L 61,121  L 63,121  L 63,119  L 64,119  L 64,118  L 65,118  L 65,117  L 66,117  L 66,115  L 67,115  L 67,113  L 68,113  L 68,111  L 69,111  L 69,109  L 70,109  L 70,106  L 71,106  L 71,104  L 72,104  L 72,103  L 73,103  L 73,102  L 75,102  L 75,103  L 76,103  L 76,104  L 77,104  L 77,105  L 78,105  L 78,106  L 80,106  L 80,107  L 81,107  L 81,108  L 83,108  L 83,109  L 86,109  L 86,110  L 88,110  L 88,111  L 89,111  L 89,112  L 91,112  L 91,113  L 93,113  L 93,114  L 97,114  L 97,115  L 100,115  L 100,116  L 106,116  L 106,112  L 105,112  L 105,111  L 104,111  L 104,110  L 99,110  L 99,109  L 96,109  L 96,108  L 95,108  L 95,107  L 93,107  L 93,106  L 91,106  L 91,105  L 89,105  L 89,104  L 87,104  L 87,103  L 85,103  L 85,102  L 83,102  L 83,101  L 82,101  L 82,100  L 81,100  L 81,99  L 80,99  L 80,97  L 79,97  L 79,95  L 78,95  L 78,90  L 79,90  L 79,87  L 80,87  L 80,84  L 81,84  L 81,82  L 82,82  L 82,80  L 83,80  L 83,78  L 80,78  L 80,77  L 77,77  L 77,78  L 76,78  L 76,79  L 75,79  L 75,80  L 74,80  L 74,84  L 73,84  L 73,86  L 72,86  L 72,90  L 71,90  L 71,93  L 70,93  L 70,95  L 69,95  L 69,97  L 68,97  L 68,100  L 67,100  L 67,101  L 66,101  L 66,104  L 65,104  L 65,106  L 64,106  L 64,109  L 63,109  L 63,111  L 62,111  L 62,113  L 61,113  L 61,114  L 59,114  L 59,115  L 60,115  L 60,116  L 58,116  L 58,115  L 57,115  L 57,118  L 56,118  Z  " style="fill:rgb(0, 0, 0); fill-opacity:1.000; stroke:none;" />
 <path d="  M 86,66  L 87,66  L 87,70  L 91,70  L 91,66  L 92,66  L 92,65  L 91,65  L 91,64  L 92,64  L 92,63  L 91,63  L 91,62  L 92,62  L 92,61  L 91,61  L 91,58  L 92,58  L 92,57  L 91,57  L 91,56  L 92,56  L 92,55  L 91,55  L 91,54  L 92,54  L 92,53  L 91,53  L 91,51  L 92,51  L 92,33  L 91,33  L 91,32  L 92,32  L 92,31  L 91,31  L 91,30  L 92,30  L 92,29  L 91,29  L 91,28  L 92,28  L 92,27  L 91,27  L 91,26  L 92,26  L 92,25  L 91,25  L 91,22  L 90,22  L 90,20  L 89,20  L 89,17  L 88,17  L 88,15  L 86,15  L 86,14  L 87,14  L 87,12  L 86,12  L 86,7  L 84,7  L 84,18  L 85,18  L 85,20  L 86,20  L 86,21  L 85,21  L 85,23  L 80,23  L 80,24  L 79,24  L 79,23  L 78,23  L 78,22  L 77,22  L 77,19  L 78,19  L 78,16  L 77,16  L 77,11  L 78,11  L 78,2  L 77,2  L 77,1  L 75,1  L 75,0  L 73,0  L 73,1  L 72,1  L 72,34  L 73,34  L 73,39  L 72,39  L 72,42  L 73,42  L 73,43  L 72,43  L 72,67  L 73,67  L 73,68  L 75,68  L 75,67  L 77,67  L 77,62  L 78,62  L 78,60  L 77,60  L 77,59  L 78,59  L 78,50  L 79,50  L 79,49  L 78,49  L 78,46  L 79,46  L 79,30  L 80,30  L 80,29  L 84,29  L 84,30  L 85,30  L 85,36  L 86,36  L 86,39  L 85,39  L 85,40  L 86,40  Z  " style="fill:rgb(0, 0, 0); fill-opacity:1.000; stroke:none;" />
</svg>
