<?xml version="1.0" encoding="UTF-8" standalone="no"?>
<!DOCTYPE svg PUBLIC "-//W3C//DTD SVG 1.1//EN" 
  "http://www.w3.org/Graphics/SVG/1.1/DTD/svg11.dtd">
<svg width="106" height="128"
     xmlns="http://www.w3.org/2000/svg" version="1.1">
 <path d="  M 16,28  L 16,29  L 15,29  L 15,31  L 14,31  L 14,33  L 13,33  L 13,35  L 11,35  L 11,36  L 10,36  L 10,38  L 9,38  L 9,40  L 8,40  L 8,41  L 7,41  L 7,42  L 6,42  L 6,44  L 5,44  L 5,46  L 4,46  L 4,47  L 3,47  L 3,48  L 2,48  L 2,50  L 1,50  L 1,52  L 0,52  L 0,53  L 1,53  L 1,57  L 2,57  L 2,58  L 4,58  L 4,57  L 5,57  L 5,55  L 6,55  L 6,53  L 7,53  L 7,51  L 8,51  L 8,50  L 9,50  L 9,48  L 10,48  L 10,47  L 11,47  L 11,46  L 12,46  L 12,44  L 13,44  L 13,43  L 14,43  L 14,39  L 15,39  L 15,37  L 18,37  L 18,38  L 19,38  L 19,39  L 20,39  L 20,40  L 21,40  L 21,41  L 22,41  L 22,42  L 24,42  L 24,43  L 26,43  L 26,44  L 27,44  L 27,45  L 29,45  L 29,46  L 33,46  L 33,47  L 38,47  L 38,46  L 39,46  L 39,45  L 40,45  L 40,42  L 38,42  L 38,41  L 33,41  L 33,40  L 31,40  L 31,39  L 28,39  L 28,38  L 26,38  L 26,37  L 24,37  L 24,36  L 23,36  L 23,35  L 22,35  L 22,34  L 21,34  L 21,31  L 22,31  L 22,29  L 23,29  L 23,28  L 24,28  L 24,27  L 25,27  L 25,26  L 26,26  L 26,25  L 27,25  L 27,24  L 28,24  L 28,23  L 29,23  L 29,22  L 30,22  L 30,20  L 31,20  L 31,18  L 32,18  L 32,16  L 33,16  L 33,8  L 34,8  L 34,7  L 33,7  L 33,6  L 28,6  L 28,7  L 25,7  L 25,8  L 19,8  L 19,9  L 15,9  L 15,10  L 2,10  L 2,11  L 0,11  L 0,14  L 1,14  L 1,15  L 2,15  L 2,16  L 7,16  L 7,15  L 16,15  L 16,14  L 20,14  L 20,13  L 22,13  L 22,12  L 23,12  L 23,11  L 25,11  L 25,12  L 27,12  L 27,13  L 26,13  L 26,14  L 27,14  L 27,15  L 26,15  L 26,17  L 25,17  L 25,19  L 24,19  L 24,20  L 23,20  L 23,21  L 22,21  L 22,22  L 21,22  L 21,23  L 20,23  L 20,24  L 19,24  L 19,25  L 18,25  L 18,26  L 17,26  L 17,28  Z  " style="fill:rgb(0, 0, 0); fill-opacity:1.000; stroke:none;" />
 <path d="  M 37,126  L 39,126  L 39,127  L 40,127  L 40,128  L 41,128  L 41,127  L 42,127  L 42,128  L 60,128  L 60,127  L 64,127  L 64,126  L 67,126  L 67,125  L 70,125  L 70,124  L 72,124  L 72,123  L 74,123  L 74,122  L 76,122  L 76,121  L 77,121  L 77,120  L 79,120  L 79,118  L 80,118  L 80,117  L 81,117  L 81,116  L 82,116  L 82,115  L 83,115  L 83,114  L 84,114  L 84,111  L 85,111  L 85,109  L 86,109  L 86,107  L 87,107  L 87,97  L 86,97  L 86,90  L 85,90  L 85,88  L 83,88  L 83,87  L 82,87  L 82,86  L 80,86  L 80,85  L 78,85  L 78,84  L 75,84  L 75,83  L 71,83  L 71,82  L 65,82  L 65,81  L 59,81  L 59,80  L 55,80  L 55,79  L 48,79  L 48,81  L 47,81  L 47,82  L 46,82  L 46,83  L 45,83  L 45,84  L 44,84  L 44,86  L 43,86  L 43,87  L 42,87  L 42,88  L 41,88  L 41,89  L 40,89  L 40,90  L 39,90  L 39,92  L 38,92  L 38,93  L 37,93  L 37,95  L 36,95  L 36,98  L 35,98  L 35,100  L 34,100  L 34,102  L 33,102  L 33,104  L 32,104  L 32,107  L 31,107  L 31,113  L 30,113  L 30,118  L 31,118  L 31,120  L 32,120  L 32,122  L 34,122  L 34,123  L 35,123  L 35,125  L 37,125  Z  M 60,88  L 65,88  L 65,89  L 69,89  L 69,90  L 73,90  L 73,91  L 74,91  L 74,92  L 76,92  L 76,93  L 78,93  L 78,94  L 79,94  L 79,95  L 80,95  L 80,98  L 81,98  L 81,104  L 80,104  L 80,106  L 79,106  L 79,108  L 78,108  L 78,110  L 77,110  L 77,112  L 76,112  L 76,114  L 74,114  L 74,115  L 73,115  L 73,116  L 72,116  L 72,117  L 71,117  L 71,118  L 69,118  L 69,119  L 65,119  L 65,120  L 62,120  L 62,121  L 58,121  L 58,122  L 45,122  L 45,121  L 42,121  L 42,120  L 41,120  L 41,119  L 39,119  L 39,118  L 38,118  L 38,117  L 37,117  L 37,111  L 38,111  L 38,105  L 39,105  L 39,102  L 40,102  L 40,100  L 41,100  L 41,99  L 42,99  L 42,97  L 43,97  L 43,96  L 44,96  L 44,94  L 45,94  L 45,93  L 46,93  L 46,92  L 48,92  L 48,91  L 49,91  L 49,90  L 50,90  L 50,89  L 52,89  L 52,88  L 59,88  L 59,87  L 60,87  Z  " style="fill:rgb(0, 0, 0); fill-opacity:1.000; stroke:none;" />
 <path d="  M 46,38  L 46,41  L 45,41  L 45,43  L 44,43  L 44,44  L 43,44  L 43,47  L 42,47  L 42,49  L 41,49  L 41,51  L 40,51  L 40,52  L 38,52  L 38,54  L 37,54  L 37,56  L 36,56  L 36,60  L 35,60  L 35,62  L 36,62  L 36,64  L 37,64  L 37,65  L 40,65  L 40,63  L 41,63  L 41,60  L 42,60  L 42,58  L 43,58  L 43,56  L 44,56  L 44,55  L 45,55  L 45,53  L 46,53  L 46,52  L 47,52  L 47,50  L 48,50  L 48,49  L 49,49  L 49,48  L 50,48  L 50,50  L 52,50  L 52,51  L 53,51  L 53,52  L 54,52  L 54,53  L 55,53  L 55,54  L 56,54  L 56,55  L 57,55  L 57,56  L 58,56  L 58,57  L 59,57  L 59,58  L 60,58  L 60,59  L 61,59  L 61,60  L 62,60  L 62,61  L 64,61  L 64,62  L 65,62  L 65,63  L 67,63  L 67,64  L 69,64  L 69,65  L 71,65  L 71,64  L 73,64  L 73,63  L 74,63  L 74,62  L 75,62  L 75,60  L 76,60  L 76,59  L 75,59  L 75,58  L 72,58  L 72,57  L 70,57  L 70,56  L 67,56  L 67,55  L 66,55  L 66,54  L 64,54  L 64,53  L 62,53  L 62,52  L 61,52  L 61,51  L 60,51  L 60,50  L 58,50  L 58,49  L 57,49  L 57,48  L 56,48  L 56,47  L 55,47  L 55,46  L 54,46  L 54,44  L 53,44  L 53,43  L 52,43  L 52,42  L 51,42  L 51,40  L 52,40  L 52,38  L 53,38  L 53,37  L 54,37  L 54,36  L 55,36  L 55,34  L 56,34  L 56,31  L 57,31  L 57,28  L 58,28  L 58,27  L 59,27  L 59,25  L 60,25  L 60,23  L 61,23  L 61,22  L 62,22  L 62,20  L 63,20  L 63,18  L 64,18  L 64,17  L 65,17  L 65,15  L 66,15  L 66,14  L 65,14  L 65,11  L 63,11  L 63,10  L 39,10  L 39,11  L 38,11  L 38,15  L 41,15  L 41,16  L 42,16  L 42,15  L 55,15  L 55,16  L 56,16  L 56,18  L 55,18  L 55,21  L 54,21  L 54,24  L 53,24  L 53,26  L 52,26  L 52,28  L 51,28  L 51,30  L 50,30  L 50,31  L 49,31  L 49,34  L 48,34  L 48,37  L 47,37  L 47,38  Z  " style="fill:rgb(0, 0, 0); fill-opacity:1.000; stroke:none;" />
 <path d="  M 84,2  L 83,2  L 83,0  L 80,0  L 80,1  L 79,1  L 79,10  L 78,10  L 78,11  L 79,11  L 79,13  L 78,13  L 78,23  L 79,23  L 79,26  L 82,26  L 82,27  L 83,27  L 83,26  L 85,26  L 85,25  L 96,25  L 96,24  L 97,24  L 97,25  L 98,25  L 98,24  L 103,24  L 103,20  L 102,20  L 102,19  L 95,19  L 95,20  L 92,20  L 92,19  L 91,19  L 91,20  L 84,20  L 84,18  L 83,18  L 83,15  L 84,15  L 84,14  L 83,14  L 83,11  L 84,11  Z  " style="fill:rgb(0, 0, 0); fill-opacity:1.000; stroke:none;" />
 <path d="  M 79,65  L 80,65  L 80,70  L 79,70  L 79,71  L 80,71  L 80,74  L 84,74  L 84,69  L 85,69  L 85,67  L 84,67  L 84,65  L 85,65  L 85,64  L 84,64  L 84,57  L 85,57  L 85,55  L 84,55  L 84,54  L 83,54  L 83,52  L 81,52  L 81,53  L 80,53  L 80,54  L 79,54  L 79,57  L 78,57  L 78,60  L 79,60  Z  " style="fill:rgb(0, 0, 0); fill-opacity:1.000; stroke:none;" />
 <path d="  M 87,44  L 87,43  L 96,43  L 96,42  L 98,42  L 98,43  L 99,43  L 99,42  L 102,42  L 102,43  L 105,43  L 105,42  L 106,42  L 106,37  L 104,37  L 104,36  L 102,36  L 102,37  L 82,37  L 82,38  L 81,38  L 81,41  L 80,41  L 80,45  L 81,45  L 81,46  L 85,46  L 85,45  L 86,45  L 86,44  Z  " style="fill:rgb(0, 0, 0); fill-opacity:1.000; stroke:none;" />
</svg>
