<?xml version="1.0" encoding="UTF-8" standalone="no"?>
<!DOCTYPE svg PUBLIC "-//W3C//DTD SVG 1.1//EN" 
  "http://www.w3.org/Graphics/SVG/1.1/DTD/svg11.dtd">
<svg width="102" height="142"
     xmlns="http://www.w3.org/2000/svg" version="1.1">
 <path d="  M 11,61  L 11,60  L 12,60  L 12,59  L 13,59  L 13,57  L 14,57  L 14,55  L 15,55  L 15,53  L 16,53  L 16,51  L 17,51  L 17,50  L 18,50  L 18,51  L 19,51  L 19,52  L 20,52  L 20,53  L 23,53  L 23,54  L 24,54  L 24,55  L 25,55  L 25,56  L 27,56  L 27,57  L 29,57  L 29,58  L 31,58  L 31,59  L 32,59  L 32,60  L 35,60  L 35,61  L 39,61  L 39,66  L 38,66  L 38,67  L 37,67  L 37,68  L 36,68  L 36,70  L 35,70  L 35,73  L 36,73  L 36,74  L 37,74  L 37,75  L 39,75  L 39,76  L 40,76  L 40,75  L 41,75  L 41,74  L 42,74  L 42,72  L 43,72  L 43,70  L 44,70  L 44,68  L 45,68  L 45,67  L 46,67  L 46,66  L 47,66  L 47,63  L 48,63  L 48,62  L 49,62  L 49,61  L 50,61  L 50,59  L 51,59  L 51,58  L 52,58  L 52,57  L 53,57  L 53,56  L 55,56  L 55,57  L 56,57  L 56,58  L 57,58  L 57,59  L 58,59  L 58,60  L 59,60  L 59,61  L 60,61  L 60,62  L 62,62  L 62,63  L 63,63  L 63,64  L 64,64  L 64,65  L 65,65  L 65,66  L 66,66  L 66,67  L 67,67  L 67,69  L 68,69  L 68,71  L 69,71  L 69,72  L 70,72  L 70,73  L 71,73  L 71,74  L 72,74  L 72,75  L 73,75  L 73,74  L 75,74  L 75,73  L 76,73  L 76,70  L 75,70  L 75,68  L 74,68  L 74,66  L 73,66  L 73,65  L 72,65  L 72,64  L 71,64  L 71,63  L 70,63  L 70,62  L 69,62  L 69,61  L 68,61  L 68,60  L 67,60  L 67,59  L 66,59  L 66,58  L 65,58  L 65,57  L 64,57  L 64,56  L 63,56  L 63,55  L 61,55  L 61,53  L 60,53  L 60,51  L 59,51  L 59,50  L 58,50  L 58,49  L 57,49  L 57,46  L 56,46  L 56,40  L 57,40  L 57,37  L 58,37  L 58,35  L 59,35  L 59,34  L 60,34  L 60,32  L 61,32  L 61,31  L 62,31  L 62,29  L 63,29  L 63,28  L 64,28  L 64,26  L 65,26  L 65,25  L 66,25  L 66,24  L 67,24  L 67,23  L 68,23  L 68,17  L 67,17  L 67,16  L 66,16  L 66,15  L 65,15  L 65,14  L 62,14  L 62,13  L 57,13  L 57,14  L 54,14  L 54,13  L 53,13  L 53,14  L 50,14  L 50,13  L 49,13  L 49,14  L 41,14  L 41,15  L 40,15  L 40,18  L 41,18  L 41,20  L 43,20  L 43,21  L 46,21  L 46,20  L 60,20  L 60,24  L 59,24  L 59,25  L 58,25  L 58,26  L 57,26  L 57,27  L 56,27  L 56,28  L 54,28  L 54,29  L 53,29  L 53,32  L 52,32  L 52,34  L 51,34  L 51,37  L 50,37  L 50,46  L 49,46  L 49,50  L 48,50  L 48,53  L 47,53  L 47,54  L 45,54  L 45,55  L 44,55  L 44,56  L 43,56  L 43,57  L 42,57  L 42,56  L 40,56  L 40,55  L 39,55  L 39,54  L 36,54  L 36,53  L 34,53  L 34,52  L 32,52  L 32,51  L 30,51  L 30,50  L 29,50  L 29,49  L 27,49  L 27,48  L 26,48  L 26,47  L 24,47  L 24,45  L 23,45  L 23,40  L 24,40  L 24,39  L 26,39  L 26,37  L 28,37  L 28,35  L 29,35  L 29,34  L 30,34  L 30,32  L 31,32  L 31,30  L 32,30  L 32,28  L 33,28  L 33,25  L 34,25  L 34,23  L 35,23  L 35,16  L 34,16  L 34,11  L 32,11  L 32,10  L 31,10  L 31,11  L 27,11  L 27,12  L 21,12  L 21,13  L 15,13  L 15,14  L 14,14  L 14,13  L 13,13  L 13,14  L 7,14  L 7,15  L 3,15  L 3,17  L 2,17  L 2,18  L 1,18  L 1,19  L 0,19  L 0,21  L 1,21  L 1,22  L 6,22  L 6,21  L 8,21  L 8,20  L 11,20  L 11,19  L 24,19  L 24,18  L 27,18  L 27,19  L 28,19  L 28,25  L 27,25  L 27,28  L 26,28  L 26,31  L 25,31  L 25,32  L 24,32  L 24,33  L 23,33  L 23,34  L 22,34  L 22,35  L 20,35  L 20,36  L 19,36  L 19,37  L 18,37  L 18,39  L 17,39  L 17,40  L 16,40  L 16,41  L 15,41  L 15,42  L 14,42  L 14,45  L 13,45  L 13,47  L 12,47  L 12,49  L 11,49  L 11,50  L 10,50  L 10,51  L 9,51  L 9,53  L 8,53  L 8,54  L 7,54  L 7,56  L 6,56  L 6,57  L 5,57  L 5,58  L 4,58  L 4,60  L 3,60  L 3,61  L 1,61  L 1,62  L 0,62  L 0,65  L 1,65  L 1,66  L 2,66  L 2,67  L 3,67  L 3,68  L 5,68  L 5,67  L 6,67  L 6,66  L 7,66  L 7,64  L 8,64  L 8,63  L 9,63  L 9,62  L 10,62  L 10,61  Z  " style="fill:rgb(0, 0, 0); fill-opacity:1.000; stroke:none;" />
 <path d="  M 94,124  L 95,124  L 95,119  L 96,119  L 96,116  L 97,116  L 97,115  L 96,115  L 96,114  L 97,114  L 97,111  L 98,111  L 98,107  L 99,107  L 99,98  L 98,98  L 98,96  L 96,96  L 96,95  L 71,95  L 71,96  L 70,96  L 70,95  L 68,95  L 68,96  L 66,96  L 66,95  L 64,95  L 64,96  L 62,96  L 62,95  L 61,95  L 61,96  L 58,96  L 58,95  L 57,95  L 57,96  L 41,96  L 41,97  L 36,97  L 36,98  L 34,98  L 34,99  L 33,99  L 33,102  L 38,102  L 38,103  L 39,103  L 39,110  L 38,110  L 38,111  L 39,111  L 39,112  L 38,112  L 38,115  L 39,115  L 39,116  L 38,116  L 38,117  L 39,117  L 39,120  L 38,120  L 38,121  L 39,121  L 39,124  L 38,124  L 38,125  L 39,125  L 39,134  L 40,134  L 40,137  L 41,137  L 41,138  L 42,138  L 42,141  L 43,141  L 43,142  L 87,142  L 87,141  L 90,141  L 90,140  L 92,140  L 92,139  L 93,139  L 93,131  L 94,131  Z  M 70,137  L 70,136  L 67,136  L 67,137  L 66,137  L 66,136  L 63,136  L 63,137  L 62,137  L 62,136  L 59,136  L 59,137  L 58,137  L 58,136  L 57,136  L 57,137  L 47,137  L 47,136  L 46,136  L 46,131  L 45,131  L 45,130  L 46,130  L 46,129  L 45,129  L 45,104  L 46,104  L 46,103  L 50,103  L 50,102  L 62,102  L 62,101  L 63,101  L 63,102  L 65,102  L 65,101  L 92,101  L 92,102  L 93,102  L 93,103  L 92,103  L 92,111  L 91,111  L 91,115  L 90,115  L 90,119  L 89,119  L 89,123  L 88,123  L 88,131  L 87,131  L 87,135  L 85,135  L 85,136  L 71,136  L 71,137  Z  " style="fill:rgb(0, 0, 0); fill-opacity:1.000; stroke:none;" />
 <path d="  M 94,26  L 95,26  L 95,27  L 94,27  L 94,28  L 95,28  L 95,29  L 94,29  L 94,30  L 91,30  L 91,31  L 87,31  L 87,32  L 86,32  L 86,31  L 85,31  L 85,32  L 81,32  L 81,33  L 76,33  L 76,34  L 74,34  L 74,35  L 70,35  L 70,36  L 68,36  L 68,37  L 67,37  L 67,38  L 66,38  L 66,40  L 65,40  L 65,42  L 66,42  L 66,43  L 71,43  L 71,42  L 73,42  L 73,41  L 75,41  L 75,40  L 80,40  L 80,39  L 84,39  L 84,38  L 85,38  L 85,39  L 86,39  L 86,38  L 89,38  L 89,37  L 93,37  L 93,36  L 95,36  L 95,37  L 96,37  L 96,47  L 95,47  L 95,48  L 96,48  L 96,51  L 95,51  L 95,52  L 96,52  L 96,55  L 95,55  L 95,56  L 96,56  L 96,59  L 95,59  L 95,60  L 96,60  L 96,63  L 95,63  L 95,83  L 96,83  L 96,86  L 99,86  L 99,85  L 100,85  L 100,83  L 101,83  L 101,66  L 102,66  L 102,30  L 101,30  L 101,17  L 100,17  L 100,16  L 101,16  L 101,15  L 100,15  L 100,5  L 99,5  L 99,1  L 98,1  L 98,0  L 94,0  L 94,1  L 93,1  L 93,12  L 94,12  Z  " style="fill:rgb(0, 0, 0); fill-opacity:1.000; stroke:none;" />
</svg>
