<?xml version="1.0" encoding="UTF-8" standalone="no"?>
<!DOCTYPE svg PUBLIC "-//W3C//DTD SVG 1.1//EN" 
  "http://www.w3.org/Graphics/SVG/1.1/DTD/svg11.dtd">
<svg width="104" height="154"
     xmlns="http://www.w3.org/2000/svg" version="1.1">
 <path d="  M 33,60  L 33,61  L 35,61  L 35,62  L 36,62  L 36,63  L 42,63  L 42,62  L 45,62  L 45,61  L 44,61  L 44,59  L 45,59  L 45,58  L 44,58  L 44,57  L 41,57  L 41,56  L 38,56  L 38,55  L 35,55  L 35,54  L 33,54  L 33,53  L 32,53  L 32,52  L 31,52  L 31,51  L 29,51  L 29,50  L 27,50  L 27,49  L 26,49  L 26,48  L 25,48  L 25,47  L 24,47  L 24,45  L 25,45  L 25,44  L 24,44  L 24,42  L 26,42  L 26,41  L 27,41  L 27,40  L 28,40  L 28,39  L 29,39  L 29,38  L 30,38  L 30,37  L 31,37  L 31,34  L 32,34  L 32,33  L 33,33  L 33,31  L 34,31  L 34,28  L 35,28  L 35,26  L 36,26  L 36,16  L 35,16  L 35,14  L 33,14  L 33,13  L 32,13  L 32,14  L 30,14  L 30,15  L 28,15  L 28,16  L 22,16  L 22,17  L 12,17  L 12,18  L 6,18  L 6,19  L 4,19  L 4,21  L 3,21  L 3,22  L 2,22  L 2,23  L 1,23  L 1,24  L 2,24  L 2,25  L 3,25  L 3,26  L 4,26  L 4,25  L 5,25  L 5,26  L 6,26  L 6,25  L 8,25  L 8,24  L 10,24  L 10,23  L 14,23  L 14,22  L 26,22  L 26,21  L 28,21  L 28,22  L 29,22  L 29,28  L 28,28  L 28,31  L 27,31  L 27,33  L 26,33  L 26,35  L 25,35  L 25,36  L 23,36  L 23,37  L 22,37  L 22,38  L 21,38  L 21,39  L 20,39  L 20,40  L 19,40  L 19,42  L 18,42  L 18,43  L 17,43  L 17,44  L 16,44  L 16,46  L 15,46  L 15,48  L 14,48  L 14,49  L 13,49  L 13,51  L 12,51  L 12,52  L 11,52  L 11,53  L 10,53  L 10,54  L 9,54  L 9,56  L 8,56  L 8,58  L 7,58  L 7,59  L 6,59  L 6,60  L 5,60  L 5,62  L 4,62  L 4,63  L 3,63  L 3,65  L 2,65  L 2,66  L 1,66  L 1,68  L 0,68  L 0,69  L 1,69  L 1,73  L 3,73  L 3,74  L 4,74  L 4,73  L 5,73  L 5,72  L 6,72  L 6,70  L 7,70  L 7,68  L 8,68  L 8,67  L 9,67  L 9,66  L 10,66  L 10,64  L 11,64  L 11,63  L 12,63  L 12,62  L 13,62  L 13,61  L 14,61  L 14,59  L 15,59  L 15,57  L 16,57  L 16,53  L 17,53  L 17,52  L 20,52  L 20,53  L 21,53  L 21,54  L 23,54  L 23,55  L 25,55  L 25,56  L 26,56  L 26,57  L 27,57  L 27,58  L 29,58  L 29,59  L 31,59  L 31,60  Z  " style="fill:rgb(0, 0, 0); fill-opacity:1.000; stroke:none;" />
 <path d="  M 45,25  L 46,25  L 46,24  L 62,24  L 62,26  L 61,26  L 61,28  L 60,28  L 60,29  L 59,29  L 59,30  L 58,30  L 58,32  L 57,32  L 57,33  L 56,33  L 56,35  L 55,35  L 55,39  L 54,39  L 54,44  L 53,44  L 53,49  L 54,49  L 54,52  L 53,52  L 53,53  L 52,53  L 52,56  L 51,56  L 51,57  L 50,57  L 50,58  L 49,58  L 49,60  L 48,60  L 48,61  L 47,61  L 47,62  L 46,62  L 46,63  L 45,63  L 45,65  L 44,65  L 44,67  L 43,67  L 43,68  L 42,68  L 42,69  L 41,69  L 41,70  L 40,70  L 40,71  L 39,71  L 39,72  L 38,72  L 38,73  L 37,73  L 37,75  L 36,75  L 36,77  L 35,77  L 35,79  L 36,79  L 36,81  L 39,81  L 39,82  L 40,82  L 40,81  L 41,81  L 41,79  L 42,79  L 42,77  L 43,77  L 43,76  L 44,76  L 44,75  L 45,75  L 45,74  L 46,74  L 46,73  L 47,73  L 47,72  L 48,72  L 48,70  L 49,70  L 49,69  L 50,69  L 50,68  L 51,68  L 51,66  L 52,66  L 52,65  L 53,65  L 53,63  L 54,63  L 54,61  L 55,61  L 55,59  L 56,59  L 56,60  L 58,60  L 58,61  L 59,61  L 59,62  L 60,62  L 60,63  L 61,63  L 61,64  L 63,64  L 63,65  L 64,65  L 64,66  L 65,66  L 65,67  L 67,67  L 67,68  L 68,68  L 68,70  L 69,70  L 69,71  L 70,71  L 70,72  L 71,72  L 71,74  L 72,74  L 72,78  L 73,78  L 73,80  L 74,80  L 74,81  L 75,81  L 75,82  L 74,82  L 74,83  L 75,83  L 75,84  L 76,84  L 76,85  L 77,85  L 77,83  L 78,83  L 78,80  L 79,80  L 79,73  L 78,73  L 78,71  L 77,71  L 77,70  L 76,70  L 76,68  L 75,68  L 75,67  L 74,67  L 74,66  L 72,66  L 72,64  L 70,64  L 70,63  L 69,63  L 69,62  L 68,62  L 68,61  L 67,61  L 67,60  L 66,60  L 66,59  L 64,59  L 64,58  L 63,58  L 63,56  L 62,56  L 62,55  L 61,55  L 61,53  L 60,53  L 60,50  L 59,50  L 59,47  L 60,47  L 60,46  L 59,46  L 59,45  L 60,45  L 60,41  L 61,41  L 61,39  L 62,39  L 62,37  L 63,37  L 63,35  L 64,35  L 64,33  L 65,33  L 65,32  L 66,32  L 66,30  L 67,30  L 67,29  L 68,29  L 68,28  L 69,28  L 69,27  L 70,27  L 70,26  L 71,26  L 71,23  L 72,23  L 72,21  L 70,21  L 70,20  L 69,20  L 69,19  L 67,19  L 67,18  L 43,18  L 43,19  L 42,19  L 42,20  L 41,20  L 41,23  L 42,23  L 42,24  L 43,24  L 43,25  L 44,25  L 44,24  L 45,24  Z  M 58,50  L 59,50  L 59,51  L 58,51  Z  " style="fill:rgb(0, 0, 0); fill-opacity:1.000; stroke:none;" />
 <path d="  M 63,145  L 63,146  L 59,146  L 59,147  L 55,147  L 55,148  L 48,148  L 48,147  L 46,147  L 46,146  L 45,146  L 45,144  L 44,144  L 44,138  L 43,138  L 43,131  L 45,131  L 45,130  L 63,130  L 63,129  L 64,129  L 64,130  L 67,130  L 67,129  L 68,129  L 68,130  L 71,130  L 71,129  L 72,129  L 72,130  L 75,130  L 75,129  L 76,129  L 76,130  L 80,130  L 80,135  L 79,135  L 79,139  L 78,139  L 78,141  L 77,141  L 77,142  L 75,142  L 75,143  L 73,143  L 73,144  L 68,144  L 68,145  L 67,145  L 67,144  L 66,144  L 66,145  Z  M 36,132  L 37,132  L 37,141  L 38,141  L 38,143  L 37,143  L 37,144  L 38,144  L 38,147  L 39,147  L 39,150  L 40,150  L 40,151  L 41,151  L 41,152  L 42,152  L 42,153  L 45,153  L 45,154  L 55,154  L 55,153  L 59,153  L 59,152  L 60,152  L 60,153  L 61,153  L 61,152  L 66,152  L 66,151  L 69,151  L 69,150  L 72,150  L 72,149  L 75,149  L 75,148  L 78,148  L 78,147  L 82,147  L 82,146  L 83,146  L 83,145  L 84,145  L 84,143  L 85,143  L 85,142  L 86,142  L 86,135  L 87,135  L 87,129  L 88,129  L 88,125  L 89,125  L 89,108  L 88,108  L 88,107  L 89,107  L 89,104  L 88,104  L 88,103  L 89,103  L 89,100  L 88,100  L 88,97  L 82,97  L 82,117  L 83,117  L 83,120  L 82,120  L 82,123  L 43,123  L 43,122  L 42,122  L 42,121  L 43,121  L 43,101  L 44,101  L 44,98  L 43,98  L 43,96  L 39,96  L 39,97  L 38,97  L 38,98  L 37,98  L 37,100  L 36,100  L 36,101  L 37,101  L 37,103  L 36,103  L 36,105  L 37,105  L 37,107  L 36,107  L 36,110  L 37,110  L 37,111  L 36,111  Z  " style="fill:rgb(0, 0, 0); fill-opacity:1.000; stroke:none;" />
 <path d="  M 103,23  L 104,23  L 104,22  L 103,22  L 103,11  L 102,11  L 102,3  L 101,3  L 101,1  L 96,1  L 96,3  L 95,3  L 95,6  L 96,6  L 96,19  L 97,19  L 97,22  L 96,22  L 96,23  L 97,23  L 97,26  L 96,26  L 96,27  L 97,27  L 97,32  L 96,32  L 96,34  L 90,34  L 90,35  L 86,35  L 86,36  L 81,36  L 81,37  L 79,37  L 79,36  L 78,36  L 78,37  L 77,37  L 77,38  L 69,38  L 69,40  L 67,40  L 67,43  L 66,43  L 66,44  L 67,44  L 67,45  L 68,45  L 68,47  L 71,47  L 71,46  L 75,46  L 75,45  L 76,45  L 76,44  L 83,44  L 83,43  L 86,43  L 86,42  L 91,42  L 91,41  L 96,41  L 96,40  L 97,40  L 97,43  L 98,43  L 98,44  L 97,44  L 97,45  L 98,45  L 98,64  L 97,64  L 97,65  L 98,65  L 98,67  L 97,67  L 97,78  L 98,78  L 98,80  L 97,80  L 97,89  L 98,89  L 98,90  L 99,90  L 99,89  L 102,89  L 102,87  L 103,87  L 103,83  L 104,83  L 104,28  L 103,28  L 103,27  L 104,27  L 104,26  L 103,26  Z  " style="fill:rgb(0, 0, 0); fill-opacity:1.000; stroke:none;" />
</svg>
