<?xml version="1.0" encoding="UTF-8" standalone="no"?>
<!DOCTYPE svg PUBLIC "-//W3C//DTD SVG 1.1//EN" 
  "http://www.w3.org/Graphics/SVG/1.1/DTD/svg11.dtd">
<svg width="110" height="90"
     xmlns="http://www.w3.org/2000/svg" version="1.1">
 <path d="  M 31,16  L 31,18  L 30,18  L 30,21  L 28,21  L 28,22  L 27,22  L 27,24  L 26,24  L 26,25  L 25,25  L 25,27  L 24,27  L 24,28  L 23,28  L 23,29  L 22,29  L 22,30  L 21,30  L 21,31  L 20,31  L 20,33  L 19,33  L 19,34  L 18,34  L 18,35  L 17,35  L 17,36  L 16,36  L 16,38  L 15,38  L 15,39  L 14,39  L 14,41  L 13,41  L 13,42  L 12,42  L 12,44  L 11,44  L 11,45  L 10,45  L 10,47  L 9,47  L 9,48  L 8,48  L 8,50  L 7,50  L 7,52  L 6,52  L 6,53  L 5,53  L 5,55  L 3,55  L 3,57  L 2,57  L 2,58  L 1,58  L 1,60  L 0,60  L 0,62  L 1,62  L 1,63  L 2,63  L 2,64  L 4,64  L 4,63  L 6,63  L 6,62  L 7,62  L 7,61  L 8,61  L 8,60  L 9,60  L 9,58  L 10,58  L 10,55  L 11,55  L 11,54  L 12,54  L 12,52  L 13,52  L 13,51  L 14,51  L 14,49  L 15,49  L 15,48  L 16,48  L 16,47  L 17,47  L 17,45  L 18,45  L 18,44  L 19,44  L 19,41  L 20,41  L 20,40  L 21,40  L 21,39  L 22,39  L 22,40  L 24,40  L 24,41  L 25,41  L 25,42  L 27,42  L 27,43  L 28,43  L 28,44  L 30,44  L 30,45  L 32,45  L 32,46  L 34,46  L 34,47  L 35,47  L 35,48  L 40,48  L 40,47  L 41,47  L 41,46  L 42,46  L 42,44  L 40,44  L 40,43  L 37,43  L 37,42  L 35,42  L 35,41  L 33,41  L 33,40  L 31,40  L 31,39  L 30,39  L 30,38  L 29,38  L 29,37  L 28,37  L 28,36  L 27,36  L 27,35  L 26,35  L 26,33  L 27,33  L 27,32  L 28,32  L 28,31  L 30,31  L 30,29  L 31,29  L 31,27  L 32,27  L 32,26  L 33,26  L 33,25  L 34,25  L 34,24  L 35,24  L 35,23  L 36,23  L 36,22  L 38,22  L 38,21  L 40,21  L 40,19  L 45,19  L 45,18  L 46,18  L 46,19  L 47,19  L 47,18  L 53,18  L 53,17  L 56,17  L 56,18  L 58,18  L 58,22  L 57,22  L 57,24  L 56,24  L 56,25  L 57,25  L 57,26  L 56,26  L 56,30  L 55,30  L 55,33  L 54,33  L 54,38  L 53,38  L 53,41  L 52,41  L 52,44  L 50,44  L 50,45  L 49,45  L 49,47  L 47,47  L 47,48  L 46,48  L 46,50  L 45,50  L 45,52  L 44,52  L 44,53  L 43,53  L 43,55  L 42,55  L 42,57  L 41,57  L 41,59  L 40,59  L 40,60  L 39,60  L 39,62  L 38,62  L 38,64  L 37,64  L 37,66  L 36,66  L 36,67  L 35,67  L 35,69  L 34,69  L 34,74  L 35,74  L 35,75  L 38,75  L 38,74  L 39,74  L 39,72  L 40,72  L 40,71  L 41,71  L 41,69  L 42,69  L 42,66  L 43,66  L 43,65  L 44,65  L 44,63  L 45,63  L 45,62  L 46,62  L 46,60  L 47,60  L 47,59  L 48,59  L 48,58  L 49,58  L 49,56  L 50,56  L 50,54  L 51,54  L 51,53  L 52,53  L 52,51  L 54,51  L 54,52  L 55,52  L 55,54  L 56,54  L 56,55  L 57,55  L 57,56  L 58,56  L 58,57  L 59,57  L 59,59  L 61,59  L 61,60  L 62,60  L 62,61  L 63,61  L 63,62  L 64,62  L 64,64  L 65,64  L 65,66  L 66,66  L 66,67  L 67,67  L 67,68  L 68,68  L 68,69  L 71,69  L 71,68  L 72,68  L 72,67  L 73,67  L 73,63  L 72,63  L 72,62  L 71,62  L 71,60  L 70,60  L 70,59  L 69,59  L 69,58  L 68,58  L 68,57  L 67,57  L 67,56  L 65,56  L 65,55  L 64,55  L 64,54  L 63,54  L 63,53  L 62,53  L 62,52  L 61,52  L 61,50  L 60,50  L 60,49  L 59,49  L 59,48  L 58,48  L 58,47  L 57,47  L 57,46  L 56,46  L 56,44  L 55,44  L 55,43  L 56,43  L 56,42  L 57,42  L 57,41  L 58,41  L 58,38  L 59,38  L 59,37  L 60,37  L 60,34  L 61,34  L 61,33  L 62,33  L 62,29  L 63,29  L 63,25  L 64,25  L 64,22  L 65,22  L 65,18  L 66,18  L 66,17  L 67,17  L 67,15  L 66,15  L 66,14  L 63,14  L 63,13  L 56,13  L 56,12  L 42,12  L 42,13  L 41,13  L 41,12  L 39,12  L 39,13  L 36,13  L 36,12  L 35,12  L 35,13  L 32,13  L 32,11  L 31,11  L 31,12  L 29,12  L 29,10  L 27,10  L 27,9  L 26,9  L 26,10  L 25,10  L 25,9  L 15,9  L 15,10  L 10,10  L 10,11  L 9,11  L 9,10  L 8,10  L 8,11  L 5,11  L 5,12  L 3,12  L 3,13  L 2,13  L 2,16  L 3,16  L 3,17  L 12,17  L 12,16  L 15,16  L 15,17  L 16,17  L 16,16  L 24,16  L 24,15  L 29,15  L 29,14  L 30,14  L 30,16  Z  " style="fill:rgb(0, 0, 0); fill-opacity:1.000; stroke:none;" />
 <path d="  M 91,7  L 90,7  L 90,6  L 86,6  L 86,7  L 85,7  L 85,8  L 84,8  L 84,22  L 85,22  L 85,23  L 84,23  L 84,24  L 85,24  L 85,33  L 84,33  L 84,35  L 83,35  L 83,36  L 67,36  L 67,37  L 66,37  L 66,40  L 65,40  L 65,42  L 66,42  L 66,44  L 69,44  L 69,43  L 70,43  L 70,42  L 84,42  L 84,43  L 85,43  L 85,64  L 84,64  L 84,65  L 85,65  L 85,67  L 84,67  L 84,85  L 90,85  L 90,83  L 91,83  L 91,82  L 90,82  L 90,81  L 91,81  L 91,80  L 90,80  L 90,78  L 91,78  L 91,76  L 90,76  L 90,74  L 91,74  L 91,49  L 92,49  L 92,48  L 91,48  L 91,45  L 92,45  L 92,44  L 91,44  L 91,41  L 92,41  L 92,40  L 91,40  L 91,37  L 92,37  L 92,36  L 91,36  L 91,35  L 92,35  L 92,34  L 91,34  L 91,33  L 92,33  L 92,32  L 91,32  L 91,31  L 92,31  L 92,28  L 91,28  L 91,27  L 92,27  L 92,24  L 91,24  L 91,23  L 92,23  L 92,22  L 91,22  L 91,21  L 92,21  L 92,20  L 91,20  L 91,17  L 92,17  L 92,16  L 91,16  Z  " style="fill:rgb(0, 0, 0); fill-opacity:1.000; stroke:none;" />
 <path d="  M 105,28  L 106,28  L 106,29  L 105,29  L 105,32  L 106,32  L 106,33  L 105,33  L 105,35  L 106,35  L 106,37  L 105,37  L 105,39  L 106,39  L 106,41  L 105,41  L 105,42  L 106,42  L 106,43  L 105,43  L 105,44  L 106,44  L 106,45  L 105,45  L 105,48  L 106,48  L 106,49  L 105,49  L 105,52  L 106,52  L 106,53  L 105,53  L 105,90  L 110,90  L 110,2  L 109,2  L 109,1  L 108,1  L 108,0  L 106,0  L 106,1  L 104,1  L 104,2  L 103,2  L 103,3  L 104,3  L 104,11  L 105,11  Z  " style="fill:rgb(0, 0, 0); fill-opacity:1.000; stroke:none;" />
</svg>
