<?xml version="1.0" encoding="UTF-8" standalone="no"?>
<!DOCTYPE svg PUBLIC "-//W3C//DTD SVG 1.1//EN" 
  "http://www.w3.org/Graphics/SVG/1.1/DTD/svg11.dtd">
<svg width="103" height="136"
     xmlns="http://www.w3.org/2000/svg" version="1.1">
 <path d="  M 18,26  L 18,27  L 17,27  L 17,28  L 16,28  L 16,29  L 15,29  L 15,31  L 14,31  L 14,32  L 13,32  L 13,33  L 12,33  L 12,35  L 11,35  L 11,36  L 10,36  L 10,37  L 9,37  L 9,39  L 8,39  L 8,40  L 7,40  L 7,42  L 6,42  L 6,43  L 5,43  L 5,45  L 4,45  L 4,47  L 3,47  L 3,48  L 2,48  L 2,49  L 1,49  L 1,54  L 2,54  L 2,55  L 5,55  L 5,54  L 6,54  L 6,53  L 8,53  L 8,51  L 9,51  L 9,50  L 10,50  L 10,49  L 11,49  L 11,48  L 12,48  L 12,44  L 13,44  L 13,41  L 14,41  L 14,40  L 15,40  L 15,41  L 16,41  L 16,40  L 17,40  L 17,41  L 18,41  L 18,42  L 19,42  L 19,43  L 20,43  L 20,44  L 22,44  L 22,45  L 24,45  L 24,46  L 25,46  L 25,47  L 29,47  L 29,48  L 35,48  L 35,47  L 36,47  L 36,43  L 34,43  L 34,42  L 31,42  L 31,41  L 28,41  L 28,40  L 27,40  L 27,39  L 25,39  L 25,38  L 24,38  L 24,37  L 23,37  L 23,36  L 22,36  L 22,35  L 21,35  L 21,31  L 22,31  L 22,30  L 23,30  L 23,29  L 24,29  L 24,28  L 25,28  L 25,25  L 26,25  L 26,24  L 27,24  L 27,21  L 28,21  L 28,19  L 29,19  L 29,16  L 30,16  L 30,15  L 29,15  L 29,14  L 30,14  L 30,11  L 29,11  L 29,7  L 27,7  L 27,6  L 26,6  L 26,5  L 24,5  L 24,4  L 14,4  L 14,5  L 13,5  L 13,4  L 12,4  L 12,5  L 4,5  L 4,6  L 2,6  L 2,7  L 1,7  L 1,9  L 0,9  L 0,10  L 1,10  L 1,12  L 6,12  L 6,11  L 9,11  L 9,10  L 16,10  L 16,9  L 22,9  L 22,12  L 23,12  L 23,13  L 22,13  L 22,19  L 21,19  L 21,22  L 20,22  L 20,24  L 19,24  L 19,26  Z  " style="fill:rgb(0, 0, 0); fill-opacity:1.000; stroke:none;" />
 <path d="  M 95,109  L 94,109  L 94,111  L 93,111  L 93,113  L 92,113  L 92,115  L 91,115  L 91,118  L 90,118  L 90,119  L 89,119  L 89,120  L 88,120  L 88,121  L 87,121  L 87,122  L 86,122  L 86,123  L 85,123  L 85,124  L 83,124  L 83,125  L 81,125  L 81,126  L 79,126  L 79,127  L 77,127  L 77,128  L 72,128  L 72,129  L 68,129  L 68,130  L 49,130  L 49,129  L 46,129  L 46,128  L 45,128  L 45,129  L 44,129  L 44,128  L 43,128  L 43,127  L 41,127  L 41,125  L 40,125  L 40,124  L 39,124  L 39,113  L 40,113  L 40,109  L 41,109  L 41,106  L 42,106  L 42,104  L 43,104  L 43,102  L 44,102  L 44,101  L 45,101  L 45,99  L 46,99  L 46,98  L 47,98  L 47,97  L 48,97  L 48,96  L 49,96  L 49,95  L 50,95  L 50,94  L 51,94  L 51,93  L 53,93  L 53,92  L 54,92  L 54,91  L 56,91  L 56,90  L 58,90  L 58,89  L 59,89  L 59,88  L 62,88  L 62,87  L 65,87  L 65,86  L 68,86  L 68,85  L 79,85  L 79,86  L 84,86  L 84,87  L 86,87  L 86,88  L 88,88  L 88,89  L 90,89  L 90,90  L 92,90  L 92,92  L 93,92  L 93,95  L 94,95  L 94,96  L 95,96  Z  M 35,107  L 34,107  L 34,109  L 33,109  L 33,111  L 32,111  L 32,125  L 33,125  L 33,128  L 35,128  L 35,131  L 36,131  L 36,132  L 38,132  L 38,133  L 40,133  L 40,134  L 42,134  L 42,135  L 44,135  L 44,136  L 71,136  L 71,135  L 75,135  L 75,134  L 79,134  L 79,133  L 82,133  L 82,132  L 85,132  L 85,131  L 86,131  L 86,130  L 87,130  L 87,129  L 89,129  L 89,128  L 91,128  L 91,127  L 92,127  L 92,126  L 94,126  L 94,124  L 95,124  L 95,123  L 96,123  L 96,121  L 97,121  L 97,120  L 98,120  L 98,119  L 99,119  L 99,116  L 100,116  L 100,113  L 101,113  L 101,109  L 102,109  L 102,93  L 101,93  L 101,90  L 100,90  L 100,88  L 99,88  L 99,87  L 98,87  L 98,86  L 97,86  L 97,85  L 96,85  L 96,84  L 95,84  L 95,83  L 93,83  L 93,82  L 92,82  L 92,81  L 90,81  L 90,80  L 88,80  L 88,79  L 80,79  L 80,78  L 76,78  L 76,77  L 75,77  L 75,78  L 72,78  L 72,77  L 71,77  L 71,78  L 64,78  L 64,77  L 63,77  L 63,78  L 59,78  L 59,79  L 56,79  L 56,80  L 54,80  L 54,81  L 53,81  L 53,82  L 52,82  L 52,83  L 50,83  L 50,84  L 49,84  L 49,85  L 48,85  L 48,87  L 47,87  L 47,88  L 45,88  L 45,89  L 44,89  L 44,91  L 43,91  L 43,92  L 42,92  L 42,93  L 41,93  L 41,94  L 40,94  L 40,96  L 39,96  L 39,97  L 38,97  L 38,99  L 37,99  L 37,101  L 36,101  L 36,104  L 35,104  Z  " style="fill:rgb(0, 0, 0); fill-opacity:1.000; stroke:none;" />
 <path d="  M 46,39  L 45,39  L 45,42  L 44,42  L 44,43  L 43,43  L 43,44  L 42,44  L 42,45  L 41,45  L 41,46  L 40,46  L 40,48  L 39,48  L 39,53  L 38,53  L 38,55  L 37,55  L 37,56  L 36,56  L 36,58  L 35,58  L 35,64  L 36,64  L 36,65  L 38,65  L 38,64  L 40,64  L 40,62  L 41,62  L 41,61  L 42,61  L 42,59  L 43,59  L 43,58  L 44,58  L 44,57  L 45,57  L 45,54  L 46,54  L 46,53  L 45,53  L 45,52  L 46,52  L 46,47  L 47,47  L 47,48  L 49,48  L 49,49  L 50,49  L 50,51  L 52,51  L 52,52  L 53,52  L 53,54  L 54,54  L 54,55  L 55,55  L 55,57  L 56,57  L 56,59  L 57,59  L 57,61  L 58,61  L 58,62  L 59,62  L 59,65  L 60,65  L 60,66  L 62,66  L 62,67  L 63,67  L 63,66  L 65,66  L 65,64  L 66,64  L 66,63  L 65,63  L 65,62  L 66,62  L 66,60  L 65,60  L 65,57  L 64,57  L 64,55  L 63,55  L 63,54  L 62,54  L 62,52  L 61,52  L 61,51  L 59,51  L 59,50  L 58,50  L 58,49  L 57,49  L 57,48  L 56,48  L 56,47  L 55,47  L 55,46  L 54,46  L 54,44  L 53,44  L 53,43  L 51,43  L 51,42  L 50,42  L 50,39  L 49,39  L 49,38  L 50,38  L 50,36  L 51,36  L 51,34  L 52,34  L 52,33  L 53,33  L 53,28  L 54,28  L 54,25  L 55,25  L 55,22  L 56,22  L 56,20  L 57,20  L 57,18  L 58,18  L 58,14  L 59,14  L 59,12  L 60,12  L 60,11  L 61,11  L 61,7  L 60,7  L 60,6  L 51,6  L 51,5  L 50,5  L 50,6  L 49,6  L 49,5  L 48,5  L 48,6  L 47,6  L 47,5  L 46,5  L 46,6  L 45,6  L 45,5  L 44,5  L 44,6  L 43,6  L 43,5  L 36,5  L 36,6  L 34,6  L 34,9  L 35,9  L 35,10  L 36,10  L 36,11  L 54,11  L 54,12  L 55,12  L 55,14  L 54,14  L 54,15  L 53,15  L 53,16  L 52,16  L 52,17  L 51,17  L 51,18  L 50,18  L 50,20  L 49,20  L 49,22  L 48,22  L 48,25  L 47,25  L 47,30  L 46,30  L 46,34  L 45,34  L 45,37  L 46,37  Z  " style="fill:rgb(0, 0, 0); fill-opacity:1.000; stroke:none;" />
 <path d="  M 76,33  L 76,32  L 77,32  L 77,33  L 79,33  L 79,39  L 80,39  L 80,40  L 79,40  L 79,48  L 80,48  L 80,49  L 79,49  L 79,64  L 80,64  L 80,65  L 79,65  L 79,69  L 80,69  L 80,70  L 84,70  L 84,69  L 85,69  L 85,65  L 86,65  L 86,43  L 85,43  L 85,42  L 86,42  L 86,39  L 85,39  L 85,38  L 86,38  L 86,37  L 85,37  L 85,36  L 86,36  L 86,35  L 85,35  L 85,34  L 86,34  L 86,33  L 85,33  L 85,32  L 86,32  L 86,31  L 85,31  L 85,30  L 86,30  L 86,29  L 85,29  L 85,28  L 86,28  L 86,27  L 85,27  L 85,24  L 86,24  L 86,23  L 85,23  L 85,20  L 86,20  L 86,19  L 85,19  L 85,16  L 86,16  L 86,15  L 85,15  L 85,12  L 86,12  L 86,11  L 85,11  L 85,4  L 86,4  L 86,3  L 85,3  L 85,1  L 84,1  L 84,0  L 81,0  L 81,1  L 80,1  L 80,3  L 79,3  L 79,4  L 80,4  L 80,13  L 79,13  L 79,14  L 80,14  L 80,17  L 79,17  L 79,19  L 80,19  L 80,20  L 79,20  L 79,21  L 80,21  L 80,22  L 79,22  L 79,25  L 77,25  L 77,26  L 70,26  L 70,27  L 64,27  L 64,28  L 59,28  L 59,29  L 58,29  L 58,30  L 56,30  L 56,35  L 62,35  L 62,34  L 67,34  L 67,33  Z  " style="fill:rgb(0, 0, 0); fill-opacity:1.000; stroke:none;" />
 <path d="  M 103,42  L 102,42  L 102,40  L 103,40  L 103,39  L 102,39  L 102,13  L 101,13  L 101,12  L 102,12  L 102,11  L 101,11  L 101,10  L 102,10  L 102,9  L 101,9  L 101,8  L 102,8  L 102,7  L 101,7  L 101,2  L 98,2  L 98,1  L 97,1  L 97,2  L 96,2  L 96,3  L 95,3  L 95,20  L 96,20  L 96,23  L 95,23  L 95,24  L 96,24  L 96,42  L 97,42  L 97,43  L 96,43  L 96,44  L 97,44  L 97,45  L 96,45  L 96,46  L 97,46  L 97,47  L 96,47  L 96,48  L 97,48  L 97,49  L 96,49  L 96,50  L 97,50  L 97,53  L 96,53  L 96,54  L 97,54  L 97,57  L 96,57  L 96,58  L 97,58  L 97,72  L 98,72  L 98,74  L 99,74  L 99,73  L 102,73  L 102,72  L 103,72  Z  " style="fill:rgb(0, 0, 0); fill-opacity:1.000; stroke:none;" />
</svg>
