<?xml version="1.0" encoding="UTF-8" standalone="no"?>
<!DOCTYPE svg PUBLIC "-//W3C//DTD SVG 1.1//EN" 
  "http://www.w3.org/Graphics/SVG/1.1/DTD/svg11.dtd">
<svg width="103" height="134"
     xmlns="http://www.w3.org/2000/svg" version="1.1">
 <path d="  M 11,36  L 10,36  L 10,38  L 9,38  L 9,40  L 8,40  L 8,42  L 7,42  L 7,43  L 6,43  L 6,45  L 5,45  L 5,47  L 4,47  L 4,48  L 3,48  L 3,49  L 2,49  L 2,51  L 1,51  L 1,54  L 2,54  L 2,56  L 4,56  L 4,57  L 5,57  L 5,56  L 6,56  L 6,55  L 7,55  L 7,53  L 8,53  L 8,51  L 9,51  L 9,49  L 11,49  L 11,47  L 12,47  L 12,45  L 13,45  L 13,44  L 14,44  L 14,37  L 15,37  L 15,36  L 16,36  L 16,37  L 18,37  L 18,38  L 19,38  L 19,39  L 20,39  L 20,41  L 22,41  L 22,42  L 23,42  L 23,43  L 25,43  L 25,44  L 26,44  L 26,45  L 27,45  L 27,46  L 29,46  L 29,47  L 33,47  L 33,48  L 37,48  L 37,49  L 38,49  L 38,48  L 39,48  L 39,51  L 38,51  L 38,53  L 37,53  L 37,55  L 36,55  L 36,56  L 35,56  L 35,57  L 34,57  L 34,59  L 33,59  L 33,62  L 34,62  L 34,64  L 36,64  L 36,65  L 37,65  L 37,64  L 38,64  L 38,63  L 39,63  L 39,61  L 40,61  L 40,59  L 41,59  L 41,56  L 42,56  L 42,55  L 43,55  L 43,54  L 44,54  L 44,52  L 45,52  L 45,51  L 46,51  L 46,49  L 47,49  L 47,48  L 48,48  L 48,45  L 49,45  L 49,44  L 50,44  L 50,45  L 51,45  L 51,46  L 52,46  L 52,47  L 54,47  L 54,49  L 56,49  L 56,50  L 57,50  L 57,51  L 58,51  L 58,52  L 59,52  L 59,53  L 60,53  L 60,54  L 61,54  L 61,55  L 62,55  L 62,56  L 63,56  L 63,58  L 64,58  L 64,59  L 65,59  L 65,62  L 66,62  L 66,64  L 67,64  L 67,65  L 70,65  L 70,63  L 71,63  L 71,57  L 70,57  L 70,55  L 69,55  L 69,54  L 68,54  L 68,53  L 67,53  L 67,51  L 65,51  L 65,50  L 64,50  L 64,49  L 63,49  L 63,48  L 62,48  L 62,47  L 61,47  L 61,46  L 60,46  L 60,45  L 59,45  L 59,44  L 58,44  L 58,43  L 57,43  L 57,42  L 56,42  L 56,40  L 55,40  L 55,39  L 54,39  L 54,38  L 53,38  L 53,35  L 52,35  L 52,31  L 53,31  L 53,28  L 54,28  L 54,26  L 55,26  L 55,23  L 56,23  L 56,21  L 57,21  L 57,20  L 58,20  L 58,18  L 59,18  L 59,17  L 60,17  L 60,18  L 61,18  L 61,19  L 62,19  L 62,21  L 63,21  L 63,23  L 64,23  L 64,24  L 67,24  L 67,23  L 69,23  L 69,24  L 71,24  L 71,23  L 74,23  L 74,24  L 75,24  L 75,23  L 82,23  L 82,24  L 84,24  L 84,27  L 83,27  L 83,31  L 84,31  L 84,33  L 83,33  L 83,34  L 82,34  L 82,35  L 79,35  L 79,36  L 76,36  L 76,37  L 73,37  L 73,39  L 72,39  L 72,41  L 73,41  L 73,42  L 77,42  L 77,41  L 80,41  L 80,40  L 82,40  L 82,41  L 83,41  L 83,43  L 84,43  L 84,45  L 83,45  L 83,48  L 84,48  L 84,75  L 85,75  L 85,76  L 87,76  L 87,77  L 88,77  L 88,76  L 90,76  L 90,50  L 91,50  L 91,49  L 90,49  L 90,46  L 91,46  L 91,45  L 90,45  L 90,44  L 91,44  L 91,43  L 90,43  L 90,42  L 91,42  L 91,41  L 90,41  L 90,40  L 91,40  L 91,37  L 90,37  L 90,36  L 91,36  L 91,35  L 90,35  L 90,34  L 91,34  L 91,33  L 90,33  L 90,19  L 89,19  L 89,16  L 88,16  L 88,15  L 89,15  L 89,14  L 88,14  L 88,11  L 87,11  L 87,6  L 86,6  L 86,1  L 85,1  L 85,0  L 82,0  L 82,1  L 81,1  L 81,3  L 80,3  L 80,9  L 81,9  L 81,11  L 82,11  L 82,13  L 83,13  L 83,15  L 84,15  L 84,16  L 83,16  L 83,17  L 68,17  L 68,16  L 67,16  L 67,17  L 66,17  L 66,16  L 63,16  L 63,15  L 62,15  L 62,14  L 61,14  L 61,11  L 60,11  L 60,9  L 59,9  L 59,7  L 56,7  L 56,6  L 44,6  L 44,5  L 43,5  L 43,6  L 39,6  L 39,5  L 38,5  L 38,11  L 39,11  L 39,12  L 48,12  L 48,11  L 49,11  L 49,12  L 53,12  L 53,13  L 54,13  L 54,14  L 53,14  L 53,16  L 52,16  L 52,17  L 51,17  L 51,19  L 50,19  L 50,22  L 49,22  L 49,25  L 48,25  L 48,34  L 47,34  L 47,37  L 46,37  L 46,40  L 45,40  L 45,42  L 44,42  L 44,43  L 42,43  L 42,44  L 41,44  L 41,45  L 40,45  L 40,44  L 39,44  L 39,43  L 35,43  L 35,42  L 33,42  L 33,41  L 32,41  L 32,40  L 29,40  L 29,39  L 28,39  L 28,38  L 26,38  L 26,37  L 25,37  L 25,36  L 24,36  L 24,35  L 23,35  L 23,34  L 22,34  L 22,33  L 21,33  L 21,30  L 22,30  L 22,28  L 23,28  L 23,27  L 24,27  L 24,26  L 25,26  L 25,24  L 26,24  L 26,23  L 27,23  L 27,22  L 28,22  L 28,21  L 29,21  L 29,20  L 30,20  L 30,18  L 31,18  L 31,16  L 32,16  L 32,13  L 33,13  L 33,11  L 32,11  L 32,6  L 31,6  L 31,4  L 29,4  L 29,3  L 28,3  L 28,4  L 11,4  L 11,5  L 3,5  L 3,6  L 2,6  L 2,7  L 1,7  L 1,8  L 0,8  L 0,10  L 2,10  L 2,11  L 12,11  L 12,10  L 13,10  L 13,11  L 14,11  L 14,10  L 15,10  L 15,11  L 16,11  L 16,10  L 26,10  L 26,11  L 27,11  L 27,14  L 26,14  L 26,17  L 25,17  L 25,18  L 24,18  L 24,19  L 23,19  L 23,21  L 21,21  L 21,22  L 20,22  L 20,23  L 19,23  L 19,25  L 18,25  L 18,26  L 17,26  L 17,27  L 16,27  L 16,29  L 15,29  L 15,30  L 14,30  L 14,32  L 13,32  L 13,34  L 12,34  L 12,35  L 11,35  Z  M 14,35  L 15,35  L 15,36  L 14,36  Z  " style="fill:rgb(0, 0, 0); fill-opacity:1.000; stroke:none;" />
 <path d="  M 22,108  L 21,108  L 21,109  L 20,109  L 20,110  L 19,110  L 19,111  L 18,111  L 18,113  L 17,113  L 17,114  L 15,114  L 15,115  L 14,115  L 14,116  L 13,116  L 13,117  L 12,117  L 12,118  L 11,118  L 11,120  L 10,120  L 10,121  L 9,121  L 9,122  L 10,122  L 10,125  L 11,125  L 11,126  L 14,126  L 14,125  L 15,125  L 15,124  L 16,124  L 16,123  L 17,123  L 17,121  L 18,121  L 18,120  L 19,120  L 19,119  L 20,119  L 20,117  L 21,117  L 21,116  L 22,116  L 22,115  L 23,115  L 23,114  L 24,114  L 24,113  L 25,113  L 25,112  L 26,112  L 26,110  L 27,110  L 27,109  L 28,109  L 28,108  L 29,108  L 29,105  L 30,105  L 30,104  L 33,104  L 33,105  L 35,105  L 35,106  L 36,106  L 36,107  L 37,107  L 37,108  L 40,108  L 40,109  L 43,109  L 43,110  L 46,110  L 46,111  L 48,111  L 48,112  L 49,112  L 49,113  L 50,113  L 50,114  L 52,114  L 52,116  L 53,116  L 53,119  L 54,119  L 54,120  L 53,120  L 53,124  L 52,124  L 52,126  L 51,126  L 51,129  L 50,129  L 50,131  L 49,131  L 49,134  L 56,134  L 56,132  L 57,132  L 57,128  L 58,128  L 58,126  L 59,126  L 59,123  L 61,123  L 61,121  L 62,121  L 62,120  L 63,120  L 63,118  L 64,118  L 64,115  L 65,115  L 65,113  L 66,113  L 66,111  L 67,111  L 67,108  L 68,108  L 68,106  L 71,106  L 71,107  L 72,107  L 72,108  L 74,108  L 74,109  L 75,109  L 75,110  L 76,110  L 76,111  L 77,111  L 77,112  L 79,112  L 79,113  L 81,113  L 81,114  L 82,114  L 82,115  L 83,115  L 83,116  L 84,116  L 84,117  L 86,117  L 86,118  L 89,118  L 89,119  L 91,119  L 91,120  L 92,120  L 92,121  L 94,121  L 94,122  L 95,122  L 95,123  L 97,123  L 97,124  L 98,124  L 98,126  L 101,126  L 101,127  L 102,127  L 102,126  L 103,126  L 103,120  L 102,120  L 102,119  L 101,119  L 101,118  L 99,118  L 99,117  L 98,117  L 98,116  L 96,116  L 96,115  L 94,115  L 94,114  L 92,114  L 92,113  L 90,113  L 90,112  L 88,112  L 88,111  L 86,111  L 86,110  L 85,110  L 85,109  L 84,109  L 84,108  L 82,108  L 82,107  L 81,107  L 81,106  L 79,106  L 79,104  L 77,104  L 77,103  L 76,103  L 76,101  L 75,101  L 75,99  L 74,99  L 74,98  L 73,98  L 73,97  L 74,97  L 74,94  L 75,94  L 75,91  L 76,91  L 76,83  L 74,83  L 74,82  L 73,82  L 73,83  L 71,83  L 71,85  L 70,85  L 70,86  L 69,86  L 69,89  L 68,89  L 68,93  L 67,93  L 67,94  L 66,94  L 66,96  L 65,96  L 65,99  L 64,99  L 64,102  L 63,102  L 63,103  L 62,103  L 62,108  L 61,108  L 61,112  L 60,112  L 60,113  L 59,113  L 59,112  L 57,112  L 57,110  L 55,110  L 55,109  L 54,109  L 54,108  L 52,108  L 52,107  L 51,107  L 51,106  L 49,106  L 49,105  L 47,105  L 47,104  L 44,104  L 44,103  L 43,103  L 43,102  L 41,102  L 41,101  L 39,101  L 39,100  L 37,100  L 37,99  L 36,99  L 36,98  L 35,98  L 35,94  L 36,94  L 36,92  L 37,92  L 37,91  L 38,91  L 38,89  L 40,89  L 40,87  L 41,87  L 41,85  L 42,85  L 42,82  L 43,82  L 43,75  L 42,75  L 42,74  L 41,74  L 41,73  L 40,73  L 40,74  L 39,74  L 39,75  L 38,75  L 38,77  L 37,77  L 37,83  L 36,83  L 36,85  L 35,85  L 35,86  L 34,86  L 34,87  L 33,87  L 33,89  L 32,89  L 32,90  L 31,90  L 31,92  L 30,92  L 30,94  L 29,94  L 29,96  L 28,96  L 28,98  L 27,98  L 27,99  L 26,99  L 26,102  L 25,102  L 25,104  L 24,104  L 24,105  L 23,105  L 23,106  L 22,106  Z  " style="fill:rgb(0, 0, 0); fill-opacity:1.000; stroke:none;" />
</svg>
