<?xml version="1.0" encoding="UTF-8" standalone="no"?>
<!DOCTYPE svg PUBLIC "-//W3C//DTD SVG 1.1//EN" 
  "http://www.w3.org/Graphics/SVG/1.1/DTD/svg11.dtd">
<svg width="105" height="164"
     xmlns="http://www.w3.org/2000/svg" version="1.1">
 <path d="  M 14,3  L 14,4  L 11,4  L 11,5  L 9,5  L 9,6  L 7,6  L 7,7  L 5,7  L 5,8  L 4,8  L 4,13  L 6,13  L 6,14  L 10,14  L 10,13  L 12,13  L 12,12  L 13,12  L 13,11  L 16,11  L 16,10  L 22,10  L 22,9  L 23,9  L 23,10  L 24,10  L 24,9  L 33,9  L 33,10  L 34,10  L 34,12  L 33,12  L 33,14  L 32,14  L 32,15  L 31,15  L 31,18  L 30,18  L 30,19  L 29,19  L 29,20  L 28,20  L 28,22  L 27,22  L 27,23  L 26,23  L 26,25  L 25,25  L 25,27  L 24,27  L 24,28  L 23,28  L 23,30  L 22,30  L 22,31  L 21,31  L 21,33  L 20,33  L 20,34  L 19,34  L 19,36  L 18,36  L 18,38  L 17,38  L 17,41  L 16,41  L 16,43  L 15,43  L 15,44  L 14,44  L 14,45  L 13,45  L 13,48  L 12,48  L 12,49  L 13,49  L 13,51  L 15,51  L 15,52  L 16,52  L 16,51  L 17,51  L 17,50  L 18,50  L 18,49  L 19,49  L 19,48  L 20,48  L 20,47  L 21,47  L 21,45  L 22,45  L 22,43  L 23,43  L 23,41  L 24,41  L 24,40  L 25,40  L 25,39  L 26,39  L 26,38  L 28,38  L 28,37  L 29,37  L 29,38  L 30,38  L 30,39  L 32,39  L 32,40  L 34,40  L 34,41  L 35,41  L 35,42  L 36,42  L 36,43  L 37,43  L 37,44  L 39,44  L 39,45  L 41,45  L 41,46  L 43,46  L 43,47  L 44,47  L 44,48  L 45,48  L 45,50  L 46,50  L 46,52  L 47,52  L 47,57  L 48,57  L 48,70  L 49,70  L 49,73  L 48,73  L 48,75  L 43,75  L 43,76  L 36,76  L 36,77  L 32,77  L 32,78  L 27,78  L 27,79  L 23,79  L 23,80  L 22,80  L 22,79  L 21,79  L 21,80  L 16,80  L 16,81  L 9,81  L 9,82  L 6,82  L 6,81  L 5,81  L 5,82  L 3,82  L 3,81  L 1,81  L 1,86  L 2,86  L 2,87  L 4,87  L 4,88  L 14,88  L 14,87  L 20,87  L 20,86  L 27,86  L 27,85  L 28,85  L 28,86  L 29,86  L 29,85  L 34,85  L 34,84  L 40,84  L 40,83  L 46,83  L 46,82  L 58,82  L 58,81  L 59,81  L 59,82  L 61,82  L 61,81  L 71,81  L 71,80  L 73,80  L 73,81  L 74,81  L 74,80  L 84,80  L 84,79  L 96,79  L 96,78  L 98,78  L 98,77  L 99,77  L 99,76  L 100,76  L 100,74  L 101,74  L 101,73  L 100,73  L 100,71  L 90,71  L 90,72  L 67,72  L 67,73  L 66,73  L 66,72  L 62,72  L 62,73  L 57,73  L 57,70  L 56,70  L 56,61  L 55,61  L 55,50  L 56,50  L 56,47  L 57,47  L 57,45  L 58,45  L 58,44  L 59,44  L 59,43  L 61,43  L 61,41  L 62,41  L 62,40  L 63,40  L 63,38  L 64,38  L 64,37  L 65,37  L 65,36  L 66,36  L 66,35  L 67,35  L 67,34  L 68,34  L 68,35  L 74,35  L 74,36  L 76,36  L 76,37  L 78,37  L 78,38  L 81,38  L 81,39  L 83,39  L 83,40  L 86,40  L 86,41  L 87,41  L 87,42  L 89,42  L 89,43  L 91,43  L 91,44  L 94,44  L 94,45  L 96,45  L 96,42  L 97,42  L 97,41  L 96,41  L 96,38  L 95,38  L 95,37  L 93,37  L 93,36  L 90,36  L 90,35  L 88,35  L 88,34  L 87,34  L 87,33  L 86,33  L 86,32  L 83,32  L 83,31  L 81,31  L 81,30  L 80,30  L 80,29  L 79,29  L 79,28  L 78,28  L 78,27  L 76,27  L 76,25  L 75,25  L 75,23  L 76,23  L 76,20  L 77,20  L 77,18  L 78,18  L 78,16  L 79,16  L 79,14  L 80,14  L 80,12  L 81,12  L 81,9  L 80,9  L 80,5  L 79,5  L 79,3  L 78,3  L 78,1  L 60,1  L 60,2  L 59,2  L 59,1  L 56,1  L 56,2  L 55,2  L 55,1  L 54,1  L 54,2  L 52,2  L 52,3  L 51,3  L 51,5  L 50,5  L 50,6  L 51,6  L 51,8  L 52,8  L 52,10  L 54,10  L 54,11  L 55,11  L 55,10  L 58,10  L 58,9  L 59,9  L 59,10  L 60,10  L 60,9  L 61,9  L 61,10  L 62,10  L 62,9  L 72,9  L 72,10  L 73,10  L 73,13  L 72,13  L 72,15  L 71,15  L 71,17  L 70,17  L 70,18  L 69,18  L 69,20  L 68,20  L 68,22  L 67,22  L 67,24  L 66,24  L 66,25  L 65,25  L 65,27  L 64,27  L 64,30  L 62,30  L 62,31  L 61,31  L 61,32  L 60,32  L 60,33  L 58,33  L 58,34  L 57,34  L 57,35  L 56,35  L 56,36  L 55,36  L 55,38  L 54,38  L 54,41  L 53,41  L 53,42  L 52,42  L 52,43  L 48,43  L 48,42  L 47,42  L 47,41  L 46,41  L 46,40  L 44,40  L 44,39  L 42,39  L 42,37  L 40,37  L 40,36  L 39,36  L 39,35  L 37,35  L 37,33  L 36,33  L 36,32  L 35,32  L 35,30  L 34,30  L 34,28  L 35,28  L 35,27  L 36,27  L 36,23  L 37,23  L 37,21  L 38,21  L 38,19  L 39,19  L 39,16  L 40,16  L 40,14  L 41,14  L 41,11  L 42,11  L 42,5  L 41,5  L 41,3  L 40,3  L 40,2  L 38,2  L 38,1  L 32,1  L 32,2  L 31,2  L 31,1  L 28,1  L 28,2  L 21,2  L 21,3  Z  " style="fill:rgb(0, 0, 0); fill-opacity:1.000; stroke:none;" />
 <path d="  M 63,117  L 65,117  L 65,116  L 66,116  L 66,117  L 68,117  L 68,121  L 67,121  L 67,123  L 66,123  L 66,124  L 65,124  L 65,125  L 64,125  L 64,127  L 63,127  L 63,129  L 61,129  L 61,130  L 60,130  L 60,132  L 59,132  L 59,133  L 58,133  L 58,135  L 57,135  L 57,136  L 56,136  L 56,137  L 54,137  L 54,139  L 53,139  L 53,140  L 52,140  L 52,142  L 51,142  L 51,143  L 50,143  L 50,144  L 49,144  L 49,145  L 48,145  L 48,147  L 47,147  L 47,149  L 46,149  L 46,150  L 45,150  L 45,151  L 44,151  L 44,152  L 43,152  L 43,153  L 42,153  L 42,154  L 40,154  L 40,155  L 39,155  L 39,157  L 38,157  L 38,158  L 37,158  L 37,159  L 36,159  L 36,161  L 35,161  L 35,164  L 42,164  L 42,163  L 43,163  L 43,162  L 44,162  L 44,161  L 45,161  L 45,160  L 46,160  L 46,159  L 47,159  L 47,158  L 48,158  L 48,156  L 50,156  L 50,155  L 51,155  L 51,154  L 52,154  L 52,152  L 54,152  L 54,150  L 56,150  L 56,148  L 57,148  L 57,147  L 59,147  L 59,146  L 60,146  L 60,145  L 61,145  L 61,144  L 62,144  L 62,145  L 64,145  L 64,146  L 65,146  L 65,147  L 68,147  L 68,148  L 71,148  L 71,149  L 73,149  L 73,150  L 76,150  L 76,151  L 79,151  L 79,152  L 81,152  L 81,153  L 84,153  L 84,154  L 86,154  L 86,155  L 91,155  L 91,156  L 94,156  L 94,157  L 97,157  L 97,158  L 98,158  L 98,157  L 99,157  L 99,158  L 101,158  L 101,157  L 105,157  L 105,153  L 102,153  L 102,152  L 97,152  L 97,151  L 94,151  L 94,150  L 91,150  L 91,149  L 89,149  L 89,148  L 88,148  L 88,147  L 85,147  L 85,146  L 83,146  L 83,145  L 81,145  L 81,144  L 79,144  L 79,143  L 77,143  L 77,142  L 74,142  L 74,141  L 72,141  L 72,140  L 70,140  L 70,139  L 68,139  L 68,137  L 66,137  L 66,134  L 67,134  L 67,133  L 68,133  L 68,132  L 69,132  L 69,131  L 70,131  L 70,130  L 71,130  L 71,128  L 72,128  L 72,126  L 73,126  L 73,125  L 74,125  L 74,123  L 75,123  L 75,122  L 76,122  L 76,119  L 77,119  L 77,115  L 76,115  L 76,113  L 75,113  L 75,112  L 73,112  L 73,111  L 71,111  L 71,110  L 69,110  L 69,109  L 65,109  L 65,110  L 63,110  L 63,111  L 61,111  L 61,112  L 60,112  L 60,113  L 53,113  L 53,114  L 49,114  L 49,115  L 39,115  L 39,116  L 38,116  L 38,115  L 37,115  L 37,116  L 36,116  L 36,115  L 35,115  L 35,116  L 28,116  L 28,117  L 24,117  L 24,122  L 25,122  L 25,123  L 33,123  L 33,122  L 42,122  L 42,121  L 43,121  L 43,122  L 45,122  L 45,121  L 52,121  L 52,120  L 60,120  L 60,119  L 61,119  L 61,118  L 63,118  Z  " style="fill:rgb(0, 0, 0); fill-opacity:1.000; stroke:none;" />
 <path d="  M 61,107  L 61,106  L 63,106  L 63,105  L 62,105  L 62,102  L 61,102  L 61,96  L 60,96  L 60,93  L 58,93  L 58,92  L 55,92  L 55,91  L 49,91  L 49,92  L 47,92  L 47,94  L 48,94  L 48,97  L 49,97  L 49,99  L 50,99  L 50,101  L 51,101  L 51,102  L 52,102  L 52,103  L 54,103  L 54,104  L 56,104  L 56,105  L 57,105  L 57,106  L 60,106  L 60,107  Z  " style="fill:rgb(0, 0, 0); fill-opacity:1.000; stroke:none;" />
 <path d="  M 62,107  L 62,108  L 63,108  L 63,107  Z  " style="fill:rgb(0, 0, 0); fill-opacity:1.000; stroke:none;" />
</svg>
