<?xml version="1.0" encoding="UTF-8" standalone="no"?>
<!DOCTYPE svg PUBLIC "-//W3C//DTD SVG 1.1//EN" 
  "http://www.w3.org/Graphics/SVG/1.1/DTD/svg11.dtd">
<svg width="107" height="142"
     xmlns="http://www.w3.org/2000/svg" version="1.1">
 <path d="  M 42,67  L 42,66  L 41,66  L 41,44  L 42,44  L 42,41  L 43,41  L 43,37  L 44,37  L 44,36  L 45,36  L 45,35  L 46,35  L 46,33  L 47,33  L 47,32  L 49,32  L 49,31  L 50,31  L 50,32  L 51,32  L 51,33  L 52,33  L 52,34  L 53,34  L 53,36  L 54,36  L 54,38  L 56,38  L 56,39  L 58,39  L 58,40  L 59,40  L 59,42  L 61,42  L 61,43  L 62,43  L 62,44  L 64,44  L 64,45  L 65,45  L 65,46  L 67,46  L 67,47  L 70,47  L 70,43  L 69,43  L 69,40  L 68,40  L 68,39  L 67,39  L 67,38  L 66,38  L 66,37  L 65,37  L 65,36  L 64,36  L 64,35  L 63,35  L 63,34  L 62,34  L 62,33  L 60,33  L 60,32  L 59,32  L 59,31  L 58,31  L 58,30  L 57,30  L 57,28  L 56,28  L 56,27  L 55,27  L 55,26  L 54,26  L 54,23  L 53,23  L 53,21  L 54,21  L 54,20  L 55,20  L 55,18  L 56,18  L 56,17  L 57,17  L 57,12  L 59,12  L 59,10  L 58,10  L 58,9  L 59,9  L 59,1  L 58,1  L 58,0  L 55,0  L 55,1  L 49,1  L 49,2  L 48,2  L 48,1  L 47,1  L 47,2  L 36,2  L 36,4  L 35,4  L 35,6  L 36,6  L 36,9  L 44,9  L 44,8  L 45,8  L 45,9  L 46,9  L 46,8  L 52,8  L 52,13  L 51,13  L 51,14  L 49,14  L 49,15  L 48,15  L 48,16  L 47,16  L 47,19  L 46,19  L 46,21  L 45,21  L 45,24  L 44,24  L 44,26  L 43,26  L 43,29  L 42,29  L 42,31  L 41,31  L 41,32  L 40,32  L 40,35  L 39,35  L 39,37  L 38,37  L 38,38  L 36,38  L 36,39  L 35,39  L 35,38  L 34,38  L 34,37  L 33,37  L 33,36  L 30,36  L 30,35  L 29,35  L 29,34  L 28,34  L 28,33  L 27,33  L 27,32  L 26,32  L 26,31  L 25,31  L 25,30  L 24,30  L 24,29  L 23,29  L 23,24  L 24,24  L 24,21  L 25,21  L 25,20  L 26,20  L 26,17  L 27,17  L 27,15  L 28,15  L 28,11  L 29,11  L 29,4  L 28,4  L 28,3  L 27,3  L 27,2  L 25,2  L 25,1  L 23,1  L 23,2  L 22,2  L 22,1  L 21,1  L 21,2  L 20,2  L 20,1  L 19,1  L 19,2  L 6,2  L 6,3  L 3,3  L 3,5  L 2,5  L 2,6  L 1,6  L 1,11  L 3,11  L 3,10  L 8,10  L 8,9  L 11,9  L 11,8  L 21,8  L 21,9  L 22,9  L 22,10  L 21,10  L 21,11  L 22,11  L 22,12  L 21,12  L 21,15  L 20,15  L 20,19  L 19,19  L 19,21  L 18,21  L 18,22  L 17,22  L 17,25  L 16,25  L 16,26  L 15,26  L 15,28  L 14,28  L 14,29  L 13,29  L 13,30  L 12,30  L 12,32  L 11,32  L 11,33  L 10,33  L 10,34  L 9,34  L 9,35  L 8,35  L 8,36  L 7,36  L 7,38  L 6,38  L 6,40  L 4,40  L 4,43  L 3,43  L 3,49  L 4,49  L 4,50  L 6,50  L 6,49  L 7,49  L 7,48  L 8,48  L 8,47  L 9,47  L 9,45  L 10,45  L 10,43  L 11,43  L 11,42  L 12,42  L 12,41  L 13,41  L 13,39  L 14,39  L 14,38  L 15,38  L 15,36  L 16,36  L 16,34  L 17,34  L 17,33  L 19,33  L 19,34  L 20,34  L 20,35  L 21,35  L 21,36  L 22,36  L 22,37  L 23,37  L 23,38  L 25,38  L 25,39  L 27,39  L 27,40  L 30,40  L 30,41  L 34,41  L 34,45  L 35,45  L 35,49  L 34,49  L 34,63  L 35,63  L 35,66  L 27,66  L 27,67  L 24,67  L 24,68  L 20,68  L 20,69  L 16,69  L 16,70  L 13,70  L 13,71  L 10,71  L 10,72  L 5,72  L 5,73  L 4,73  L 4,74  L 5,74  L 5,77  L 8,77  L 8,78  L 11,78  L 11,77  L 14,77  L 14,76  L 19,76  L 19,75  L 22,75  L 22,74  L 26,74  L 26,73  L 58,73  L 58,74  L 61,74  L 61,75  L 67,75  L 67,76  L 68,76  L 68,75  L 70,75  L 70,74  L 72,74  L 72,73  L 73,73  L 73,67  L 72,67  L 72,66  L 68,66  L 68,67  Z  " style="fill:rgb(0, 0, 0); fill-opacity:1.000; stroke:none;" />
 <path d="  M 58,116  L 61,116  L 61,115  L 63,115  L 63,114  L 66,114  L 66,113  L 68,113  L 68,112  L 71,112  L 71,111  L 72,111  L 72,110  L 74,110  L 74,109  L 76,109  L 76,108  L 78,108  L 78,107  L 79,107  L 79,106  L 80,106  L 80,104  L 81,104  L 81,103  L 80,103  L 80,98  L 79,98  L 79,96  L 78,96  L 78,95  L 77,95  L 77,93  L 76,93  L 76,92  L 74,92  L 74,91  L 73,91  L 73,90  L 71,90  L 71,89  L 68,89  L 68,88  L 65,88  L 65,87  L 62,87  L 62,86  L 59,86  L 59,85  L 56,85  L 56,84  L 55,84  L 55,85  L 54,85  L 54,84  L 45,84  L 45,85  L 44,85  L 44,84  L 43,84  L 43,85  L 38,85  L 38,86  L 34,86  L 34,87  L 33,87  L 33,88  L 32,88  L 32,92  L 31,92  L 31,93  L 32,93  L 32,94  L 33,94  L 33,95  L 35,95  L 35,94  L 39,94  L 39,93  L 43,93  L 43,92  L 52,92  L 52,91  L 53,91  L 53,92  L 58,92  L 58,93  L 62,93  L 62,94  L 64,94  L 64,95  L 66,95  L 66,96  L 68,96  L 68,97  L 70,97  L 70,98  L 71,98  L 71,100  L 72,100  L 72,103  L 71,103  L 71,104  L 69,104  L 69,105  L 67,105  L 67,106  L 63,106  L 63,107  L 60,107  L 60,108  L 58,108  L 58,109  L 56,109  L 56,110  L 53,110  L 53,111  L 50,111  L 50,112  L 47,112  L 47,113  L 44,113  L 44,114  L 40,114  L 40,115  L 38,115  L 38,116  L 37,116  L 37,117  L 34,117  L 34,118  L 33,118  L 33,119  L 32,119  L 32,120  L 31,120  L 31,122  L 30,122  L 30,123  L 29,123  L 29,133  L 30,133  L 30,136  L 31,136  L 31,139  L 32,139  L 32,141  L 36,141  L 36,142  L 37,142  L 37,141  L 38,141  L 38,142  L 56,142  L 56,141  L 60,141  L 60,140  L 64,140  L 64,139  L 67,139  L 67,138  L 71,138  L 71,137  L 73,137  L 73,136  L 76,136  L 76,135  L 78,135  L 78,134  L 82,134  L 82,133  L 85,133  L 85,132  L 88,132  L 88,131  L 90,131  L 90,130  L 91,130  L 91,129  L 92,129  L 92,128  L 93,128  L 93,123  L 89,123  L 89,124  L 87,124  L 87,125  L 85,125  L 85,126  L 81,126  L 81,127  L 79,127  L 79,128  L 77,128  L 77,129  L 74,129  L 74,130  L 71,130  L 71,131  L 69,131  L 69,132  L 65,132  L 65,133  L 62,133  L 62,134  L 57,134  L 57,135  L 54,135  L 54,136  L 42,136  L 42,135  L 38,135  L 38,134  L 36,134  L 36,131  L 35,131  L 35,127  L 36,127  L 36,124  L 38,124  L 38,123  L 39,123  L 39,122  L 41,122  L 41,121  L 42,121  L 42,120  L 45,120  L 45,119  L 50,119  L 50,118  L 54,118  L 54,117  L 58,117  Z  " style="fill:rgb(0, 0, 0); fill-opacity:1.000; stroke:none;" />
 <path d="  M 84,8  L 83,8  L 83,7  L 84,7  L 84,6  L 83,6  L 83,2  L 82,2  L 82,1  L 81,1  L 81,0  L 78,0  L 78,2  L 77,2  L 77,7  L 78,7  L 78,17  L 79,17  L 79,18  L 78,18  L 78,19  L 79,19  L 79,37  L 80,37  L 80,40  L 79,40  L 79,41  L 80,41  L 80,67  L 81,67  L 81,78  L 82,78  L 82,79  L 83,79  L 83,80  L 87,80  L 87,71  L 86,71  L 86,69  L 87,69  L 87,68  L 86,68  L 86,51  L 85,51  L 85,45  L 86,45  L 86,44  L 85,44  L 85,37  L 86,37  L 86,36  L 90,36  L 90,35  L 106,35  L 106,36  L 107,36  L 107,29  L 85,29  L 85,17  L 84,17  Z  " style="fill:rgb(0, 0, 0); fill-opacity:1.000; stroke:none;" />
</svg>
