<?xml version="1.0" encoding="UTF-8" standalone="no"?>
<!DOCTYPE svg PUBLIC "-//W3C//DTD SVG 1.1//EN" 
  "http://www.w3.org/Graphics/SVG/1.1/DTD/svg11.dtd">
<svg width="105" height="125"
     xmlns="http://www.w3.org/2000/svg" version="1.1">
 <path d="  M 45,63  L 44,63  L 44,62  L 45,62  L 45,60  L 46,60  L 46,58  L 48,58  L 48,56  L 49,56  L 49,55  L 50,55  L 50,53  L 52,53  L 52,52  L 53,52  L 53,51  L 54,51  L 54,49  L 56,49  L 56,48  L 57,48  L 57,45  L 58,45  L 58,44  L 60,44  L 60,45  L 61,45  L 61,46  L 63,46  L 63,47  L 64,47  L 64,48  L 65,48  L 65,49  L 66,49  L 66,50  L 68,50  L 68,51  L 70,51  L 70,53  L 72,53  L 72,54  L 73,54  L 73,55  L 75,55  L 75,57  L 76,57  L 76,58  L 77,58  L 77,59  L 78,59  L 78,61  L 80,61  L 80,62  L 85,62  L 85,61  L 86,61  L 86,60  L 87,60  L 87,58  L 86,58  L 86,57  L 84,57  L 84,56  L 82,56  L 82,55  L 81,55  L 81,54  L 80,54  L 80,52  L 78,52  L 78,51  L 77,51  L 77,50  L 76,50  L 76,49  L 75,49  L 75,48  L 73,48  L 73,47  L 72,47  L 72,46  L 71,46  L 71,45  L 69,45  L 69,44  L 68,44  L 68,43  L 66,43  L 66,42  L 65,42  L 65,40  L 64,40  L 64,39  L 63,39  L 63,38  L 62,38  L 62,37  L 63,37  L 63,36  L 64,36  L 64,34  L 65,34  L 65,33  L 66,33  L 66,31  L 67,31  L 67,30  L 68,30  L 68,28  L 69,28  L 69,27  L 70,27  L 70,25  L 71,25  L 71,22  L 72,22  L 72,21  L 73,21  L 73,19  L 75,19  L 75,15  L 73,15  L 73,14  L 63,14  L 63,13  L 61,13  L 61,14  L 59,14  L 59,13  L 40,13  L 40,14  L 39,14  L 39,15  L 38,15  L 38,19  L 60,19  L 60,18  L 61,18  L 61,19  L 64,19  L 64,21  L 63,21  L 63,24  L 62,24  L 62,26  L 61,26  L 61,28  L 60,28  L 60,30  L 59,30  L 59,32  L 58,32  L 58,34  L 57,34  L 57,37  L 56,37  L 56,38  L 55,38  L 55,40  L 54,40  L 54,42  L 53,42  L 53,43  L 52,43  L 52,44  L 51,44  L 51,45  L 50,45  L 50,46  L 49,46  L 49,48  L 47,48  L 47,49  L 46,49  L 46,51  L 45,51  L 45,52  L 44,52  L 44,53  L 43,53  L 43,54  L 42,54  L 42,56  L 41,56  L 41,57  L 40,57  L 40,58  L 38,58  L 38,60  L 37,60  L 37,61  L 36,61  L 36,62  L 35,62  L 35,63  L 34,63  L 34,65  L 35,65  L 35,66  L 38,66  L 38,67  L 40,67  L 40,68  L 41,68  L 41,70  L 42,70  L 42,72  L 43,72  L 43,84  L 44,84  L 44,85  L 43,85  L 43,90  L 42,90  L 42,91  L 37,91  L 37,92  L 33,92  L 33,93  L 28,93  L 28,94  L 23,94  L 23,95  L 16,95  L 16,96  L 10,96  L 10,97  L 8,97  L 8,96  L 7,96  L 7,97  L 1,97  L 1,98  L 0,98  L 0,100  L 1,100  L 1,102  L 2,102  L 2,103  L 9,103  L 9,102  L 18,102  L 18,101  L 24,101  L 24,100  L 28,100  L 28,99  L 34,99  L 34,98  L 40,98  L 40,97  L 41,97  L 41,98  L 42,98  L 42,97  L 44,97  L 44,96  L 60,96  L 60,95  L 72,95  L 72,94  L 73,94  L 73,95  L 74,95  L 74,94  L 83,94  L 83,93  L 84,93  L 84,92  L 87,92  L 87,91  L 89,91  L 89,90  L 90,90  L 90,87  L 89,87  L 89,86  L 84,86  L 84,87  L 82,87  L 82,88  L 73,88  L 73,89  L 72,89  L 72,88  L 71,88  L 71,89  L 62,89  L 62,90  L 50,90  L 50,86  L 49,86  L 49,84  L 50,84  L 50,70  L 49,70  L 49,68  L 48,68  L 48,67  L 47,67  L 47,66  L 45,66  Z  " style="fill:rgb(0, 0, 0); fill-opacity:1.000; stroke:none;" />
 <path d="  M 12,54  L 13,54  L 13,52  L 15,52  L 15,50  L 16,50  L 16,48  L 17,48  L 17,47  L 18,47  L 18,45  L 19,45  L 19,44  L 20,44  L 20,43  L 21,43  L 21,42  L 22,42  L 22,41  L 25,41  L 25,42  L 27,42  L 27,43  L 30,43  L 30,45  L 34,45  L 34,46  L 36,46  L 36,47  L 41,47  L 41,48  L 42,48  L 42,47  L 45,47  L 45,44  L 44,44  L 44,43  L 42,43  L 42,42  L 40,42  L 40,41  L 36,41  L 36,40  L 33,40  L 33,39  L 32,39  L 32,38  L 30,38  L 30,37  L 29,37  L 29,36  L 28,36  L 28,35  L 27,35  L 27,34  L 26,34  L 26,32  L 28,32  L 28,31  L 29,31  L 29,30  L 30,30  L 30,28  L 31,28  L 31,27  L 32,27  L 32,25  L 33,25  L 33,23  L 34,23  L 34,22  L 35,22  L 35,20  L 36,20  L 36,15  L 37,15  L 37,12  L 36,12  L 36,11  L 35,11  L 35,10  L 31,10  L 31,11  L 23,11  L 23,12  L 22,12  L 22,11  L 21,11  L 21,12  L 13,12  L 13,13  L 12,13  L 12,12  L 11,12  L 11,13  L 8,13  L 8,12  L 7,12  L 7,13  L 6,13  L 6,12  L 1,12  L 1,17  L 3,17  L 3,18  L 6,18  L 6,19  L 11,19  L 11,18  L 18,18  L 18,17  L 20,17  L 20,18  L 21,18  L 21,17  L 25,17  L 25,16  L 27,16  L 27,15  L 29,15  L 29,16  L 30,16  L 30,19  L 29,19  L 29,21  L 28,21  L 28,23  L 27,23  L 27,24  L 26,24  L 26,26  L 25,26  L 25,27  L 24,27  L 24,29  L 23,29  L 23,30  L 22,30  L 22,33  L 21,33  L 21,34  L 20,34  L 20,35  L 19,35  L 19,36  L 18,36  L 18,38  L 17,38  L 17,39  L 16,39  L 16,40  L 15,40  L 15,41  L 14,41  L 14,42  L 13,42  L 13,43  L 12,43  L 12,45  L 11,45  L 11,46  L 10,46  L 10,48  L 9,48  L 9,50  L 8,50  L 8,52  L 7,52  L 7,53  L 6,53  L 6,54  L 5,54  L 5,56  L 4,56  L 4,57  L 3,57  L 3,59  L 2,59  L 2,62  L 1,62  L 1,63  L 2,63  L 2,66  L 3,66  L 3,67  L 6,67  L 6,66  L 7,66  L 7,64  L 8,64  L 8,62  L 9,62  L 9,59  L 10,59  L 10,57  L 11,57  L 11,56  L 12,56  Z  " style="fill:rgb(0, 0, 0); fill-opacity:1.000; stroke:none;" />
 <path d="  M 98,120  L 97,120  L 97,123  L 98,123  L 98,125  L 102,125  L 102,124  L 103,124  L 103,122  L 104,122  L 104,109  L 105,109  L 105,108  L 104,108  L 104,107  L 105,107  L 105,106  L 104,106  L 104,105  L 105,105  L 105,20  L 104,20  L 104,14  L 103,14  L 103,2  L 102,2  L 102,1  L 100,1  L 100,0  L 98,0  L 98,1  L 96,1  L 96,6  L 97,6  L 97,14  L 98,14  L 98,21  L 99,21  L 99,22  L 98,22  L 98,23  L 99,23  L 99,33  L 100,33  L 100,34  L 99,34  L 99,35  L 100,35  L 100,42  L 99,42  L 99,43  L 100,43  L 100,46  L 99,46  L 99,47  L 100,47  L 100,50  L 99,50  L 99,51  L 100,51  L 100,54  L 99,54  L 99,55  L 100,55  L 100,56  L 99,56  L 99,86  L 98,86  L 98,88  L 99,88  L 99,89  L 98,89  L 98,92  L 99,92  L 99,93  L 98,93  Z  " style="fill:rgb(0, 0, 0); fill-opacity:1.000; stroke:none;" />
</svg>
