<?xml version="1.0" encoding="UTF-8" standalone="no"?>
<!DOCTYPE svg PUBLIC "-//W3C//DTD SVG 1.1//EN" 
  "http://www.w3.org/Graphics/SVG/1.1/DTD/svg11.dtd">
<svg width="104" height="143"
     xmlns="http://www.w3.org/2000/svg" version="1.1">
 <path d="  M 29,10  L 29,11  L 30,11  L 30,10  L 31,10  L 31,11  L 32,11  L 32,9  L 35,9  L 35,5  L 34,5  L 34,4  L 33,4  L 33,3  L 32,3  L 32,2  L 29,2  L 29,1  L 22,1  L 22,2  L 21,2  L 21,1  L 20,1  L 20,2  L 17,2  L 17,1  L 16,1  L 16,2  L 7,2  L 7,3  L 3,3  L 3,4  L 2,4  L 2,5  L 1,5  L 1,6  L 0,6  L 0,9  L 5,9  L 5,10  L 7,10  L 7,9  L 13,9  L 13,8  L 16,8  L 16,9  L 17,9  L 17,8  L 20,8  L 20,9  L 21,9  L 21,8  L 24,8  L 24,9  L 26,9  L 26,10  Z  " style="fill:rgb(0, 0, 0); fill-opacity:1.000; stroke:none;" />
 <path d="  M 42,80  L 42,81  L 43,81  L 43,80  L 44,80  L 44,81  L 45,81  L 45,80  L 46,80  L 46,81  L 47,81  L 47,80  L 48,80  L 48,81  L 49,81  L 49,80  L 60,80  L 60,79  L 67,79  L 67,78  L 71,78  L 71,77  L 74,77  L 74,76  L 77,76  L 77,75  L 79,75  L 79,74  L 84,74  L 84,73  L 88,73  L 88,72  L 89,72  L 89,69  L 88,69  L 88,68  L 87,68  L 87,67  L 85,67  L 85,66  L 82,66  L 82,67  L 80,67  L 80,68  L 79,68  L 79,69  L 76,69  L 76,70  L 74,70  L 74,71  L 73,71  L 73,70  L 72,70  L 72,71  L 69,71  L 69,72  L 63,72  L 63,73  L 51,73  L 51,74  L 50,74  L 50,73  L 48,73  L 48,68  L 47,68  L 47,62  L 46,62  L 46,49  L 47,49  L 47,47  L 48,47  L 48,44  L 49,44  L 49,42  L 50,42  L 50,39  L 51,39  L 51,33  L 52,33  L 52,31  L 53,31  L 53,30  L 54,30  L 54,29  L 55,29  L 55,28  L 56,28  L 56,29  L 58,29  L 58,30  L 59,30  L 59,31  L 60,31  L 60,33  L 61,33  L 61,34  L 62,34  L 62,35  L 64,35  L 64,36  L 65,36  L 65,37  L 67,37  L 67,38  L 68,38  L 68,39  L 69,39  L 69,40  L 70,40  L 70,41  L 72,41  L 72,42  L 73,42  L 73,43  L 74,43  L 74,44  L 75,44  L 75,45  L 77,45  L 77,47  L 78,47  L 78,48  L 84,48  L 84,47  L 85,47  L 85,46  L 84,46  L 84,44  L 83,44  L 83,41  L 81,41  L 81,40  L 80,40  L 80,39  L 78,39  L 78,37  L 76,37  L 76,36  L 75,36  L 75,34  L 74,34  L 74,33  L 72,33  L 72,32  L 71,32  L 71,31  L 70,31  L 70,30  L 68,30  L 68,29  L 67,29  L 67,28  L 66,28  L 66,27  L 65,27  L 65,26  L 64,26  L 64,25  L 63,25  L 63,24  L 62,24  L 62,23  L 61,23  L 61,21  L 62,21  L 62,18  L 63,18  L 63,17  L 64,17  L 64,16  L 65,16  L 65,14  L 64,14  L 64,12  L 65,12  L 65,13  L 66,13  L 66,11  L 67,11  L 67,10  L 68,10  L 68,5  L 67,5  L 67,4  L 66,4  L 66,3  L 65,3  L 65,2  L 56,2  L 56,3  L 54,3  L 54,2  L 52,2  L 52,3  L 50,3  L 50,2  L 48,2  L 48,3  L 45,3  L 45,2  L 44,2  L 44,3  L 42,3  L 42,2  L 41,2  L 41,3  L 40,3  L 40,4  L 39,4  L 39,5  L 38,5  L 38,7  L 39,7  L 39,8  L 40,8  L 40,9  L 41,9  L 41,10  L 42,10  L 42,9  L 48,9  L 48,10  L 49,10  L 49,9  L 60,9  L 60,10  L 62,10  L 62,11  L 63,11  L 63,13  L 62,13  L 62,14  L 57,14  L 57,15  L 55,15  L 55,16  L 54,16  L 54,18  L 53,18  L 53,20  L 52,20  L 52,22  L 51,22  L 51,24  L 50,24  L 50,25  L 49,25  L 49,27  L 48,27  L 48,28  L 47,28  L 47,31  L 46,31  L 46,32  L 45,32  L 45,34  L 44,34  L 44,36  L 43,36  L 43,37  L 42,37  L 42,38  L 39,38  L 39,37  L 38,37  L 38,36  L 34,36  L 34,35  L 33,35  L 33,34  L 31,34  L 31,33  L 30,33  L 30,32  L 28,32  L 28,31  L 27,31  L 27,30  L 26,30  L 26,29  L 25,29  L 25,27  L 24,27  L 24,20  L 25,20  L 25,19  L 26,19  L 26,16  L 27,16  L 27,15  L 28,15  L 28,14  L 26,14  L 26,15  L 23,15  L 23,16  L 21,16  L 21,18  L 20,18  L 20,20  L 19,20  L 19,21  L 18,21  L 18,22  L 17,22  L 17,25  L 16,25  L 16,26  L 15,26  L 15,30  L 14,30  L 14,32  L 13,32  L 13,33  L 12,33  L 12,36  L 11,36  L 11,38  L 10,38  L 10,39  L 9,39  L 9,41  L 8,41  L 8,42  L 7,42  L 7,44  L 6,44  L 6,46  L 5,46  L 5,47  L 4,47  L 4,49  L 3,49  L 3,50  L 4,50  L 4,52  L 5,52  L 5,54  L 6,54  L 6,55  L 8,55  L 8,53  L 9,53  L 9,52  L 10,52  L 10,49  L 11,49  L 11,48  L 12,48  L 12,46  L 13,46  L 13,44  L 14,44  L 14,41  L 15,41  L 15,40  L 16,40  L 16,38  L 17,38  L 17,36  L 18,36  L 18,35  L 19,35  L 19,33  L 20,33  L 20,34  L 21,34  L 21,35  L 22,35  L 22,36  L 24,36  L 24,37  L 25,37  L 25,38  L 27,38  L 27,39  L 28,39  L 28,40  L 30,40  L 30,41  L 33,41  L 33,42  L 36,42  L 36,43  L 37,43  L 37,42  L 39,42  L 39,59  L 40,59  L 40,67  L 41,67  L 41,73  L 34,73  L 34,74  L 24,74  L 24,75  L 21,75  L 21,74  L 20,74  L 20,75  L 17,75  L 17,76  L 16,76  L 16,75  L 15,75  L 15,76  L 7,76  L 7,77  L 4,77  L 4,78  L 3,78  L 3,79  L 2,79  L 2,81  L 3,81  L 3,83  L 10,83  L 10,82  L 21,82  L 21,81  L 22,81  L 22,82  L 23,82  L 23,81  L 37,81  L 37,80  L 38,80  L 38,81  L 39,81  L 39,80  L 40,80  L 40,81  L 41,81  L 41,80  Z  " style="fill:rgb(0, 0, 0); fill-opacity:1.000; stroke:none;" />
 <path d="  M 35,135  L 36,135  L 36,137  L 37,137  L 37,140  L 38,140  L 38,141  L 39,141  L 39,142  L 40,142  L 40,143  L 60,143  L 60,142  L 67,142  L 67,141  L 68,141  L 68,142  L 69,142  L 69,141  L 74,141  L 74,140  L 81,140  L 81,139  L 82,139  L 82,140  L 83,140  L 83,139  L 89,139  L 89,138  L 90,138  L 90,139  L 92,139  L 92,138  L 100,138  L 100,137  L 102,137  L 102,136  L 103,136  L 103,135  L 104,135  L 104,130  L 101,130  L 101,129  L 100,129  L 100,130  L 95,130  L 95,131  L 89,131  L 89,132  L 82,132  L 82,133  L 81,133  L 81,132  L 80,132  L 80,133  L 73,133  L 73,134  L 66,134  L 66,135  L 65,135  L 65,134  L 64,134  L 64,135  L 60,135  L 60,136  L 59,136  L 59,135  L 58,135  L 58,136  L 44,136  L 44,135  L 43,135  L 43,134  L 42,134  L 42,131  L 43,131  L 43,130  L 42,130  L 42,129  L 43,129  L 43,126  L 42,126  L 42,125  L 43,125  L 43,103  L 44,103  L 44,102  L 43,102  L 43,97  L 42,97  L 42,96  L 38,96  L 38,97  L 37,97  L 37,98  L 36,98  L 36,114  L 35,114  L 35,115  L 36,115  L 36,116  L 35,116  Z  " style="fill:rgb(0, 0, 0); fill-opacity:1.000; stroke:none;" />
 <path d="  M 102,72  L 101,72  L 101,71  L 102,71  L 102,70  L 101,70  L 101,69  L 102,69  L 102,66  L 101,66  L 101,65  L 102,65  L 102,42  L 101,42  L 101,41  L 102,41  L 102,40  L 101,40  L 101,39  L 102,39  L 102,38  L 101,38  L 101,37  L 102,37  L 102,36  L 101,36  L 101,31  L 100,31  L 100,22  L 99,22  L 99,14  L 98,14  L 98,6  L 97,6  L 97,4  L 94,4  L 94,5  L 93,5  L 93,6  L 92,6  L 92,17  L 93,17  L 93,21  L 94,21  L 94,29  L 95,29  L 95,39  L 96,39  L 96,42  L 95,42  L 95,43  L 96,43  L 96,46  L 95,46  L 95,47  L 96,47  L 96,50  L 95,50  L 95,51  L 96,51  L 96,62  L 95,62  L 95,63  L 96,63  L 96,66  L 95,66  L 95,88  L 96,88  L 96,91  L 101,91  L 101,85  L 102,85  L 102,84  L 101,84  L 101,77  L 102,77  L 102,76  L 101,76  L 101,75  L 102,75  L 102,74  L 101,74  L 101,73  L 102,73  Z  " style="fill:rgb(0, 0, 0); fill-opacity:1.000; stroke:none;" />
</svg>
