<?xml version="1.0" encoding="UTF-8" standalone="no"?>
<!DOCTYPE svg PUBLIC "-//W3C//DTD SVG 1.1//EN" 
  "http://www.w3.org/Graphics/SVG/1.1/DTD/svg11.dtd">
<svg width="103" height="147"
     xmlns="http://www.w3.org/2000/svg" version="1.1">
 <path d="  M 28,2  L 28,3  L 25,3  L 25,2  L 24,2  L 24,3  L 21,3  L 21,2  L 20,2  L 20,3  L 17,3  L 17,2  L 16,2  L 16,3  L 9,3  L 9,4  L 8,4  L 8,3  L 7,3  L 7,4  L 3,4  L 3,5  L 2,5  L 2,6  L 1,6  L 1,8  L 0,8  L 0,9  L 1,9  L 1,10  L 3,10  L 3,11  L 9,11  L 9,10  L 24,10  L 24,11  L 26,11  L 26,10  L 27,10  L 27,12  L 28,12  L 28,13  L 29,13  L 29,15  L 30,15  L 30,13  L 32,13  L 32,12  L 34,12  L 34,11  L 35,11  L 35,6  L 34,6  L 34,5  L 33,5  L 33,4  L 32,4  L 32,3  L 31,3  L 31,2  Z  " style="fill:rgb(0, 0, 0); fill-opacity:1.000; stroke:none;" />
 <path d="  M 29,75  L 29,74  L 28,74  L 28,75  L 25,75  L 25,74  L 24,74  L 24,75  L 19,75  L 19,76  L 12,76  L 12,77  L 7,77  L 7,78  L 5,78  L 5,79  L 4,79  L 4,81  L 3,81  L 3,84  L 4,84  L 4,85  L 6,85  L 6,86  L 9,86  L 9,85  L 11,85  L 11,84  L 15,84  L 15,83  L 22,83  L 22,82  L 23,82  L 23,83  L 24,83  L 24,82  L 27,82  L 27,83  L 28,83  L 28,82  L 35,82  L 35,81  L 36,81  L 36,82  L 37,82  L 37,81  L 38,81  L 38,82  L 39,82  L 39,81  L 40,81  L 40,82  L 41,82  L 41,81  L 46,81  L 46,82  L 47,82  L 47,81  L 48,81  L 48,82  L 55,82  L 55,83  L 56,83  L 56,82  L 59,82  L 59,83  L 60,83  L 60,82  L 63,82  L 63,83  L 64,83  L 64,82  L 72,82  L 72,81  L 80,81  L 80,80  L 86,80  L 86,79  L 87,79  L 87,78  L 88,78  L 88,75  L 87,75  L 87,73  L 80,73  L 80,74  L 76,74  L 76,75  L 69,75  L 69,76  L 66,76  L 66,75  L 65,75  L 65,76  L 54,76  L 54,75  L 49,75  L 49,74  L 48,74  L 48,68  L 47,68  L 47,51  L 48,51  L 48,48  L 49,48  L 49,45  L 50,45  L 50,42  L 51,42  L 51,39  L 52,39  L 52,38  L 53,38  L 53,37  L 54,37  L 54,33  L 55,33  L 55,32  L 56,32  L 56,30  L 57,30  L 57,29  L 60,29  L 60,30  L 61,30  L 61,32  L 62,32  L 62,33  L 63,33  L 63,34  L 64,34  L 64,35  L 65,35  L 65,36  L 66,36  L 66,37  L 67,37  L 67,38  L 68,38  L 68,39  L 69,39  L 69,40  L 71,40  L 71,41  L 72,41  L 72,42  L 73,42  L 73,43  L 74,43  L 74,44  L 75,44  L 75,45  L 77,45  L 77,46  L 78,46  L 78,47  L 79,47  L 79,49  L 81,49  L 81,50  L 82,50  L 82,51  L 83,51  L 83,52  L 85,52  L 85,51  L 86,51  L 86,45  L 85,45  L 85,44  L 84,44  L 84,43  L 83,43  L 83,41  L 82,41  L 82,40  L 81,40  L 81,39  L 80,39  L 80,38  L 79,38  L 79,37  L 78,37  L 78,36  L 76,36  L 76,35  L 75,35  L 75,34  L 74,34  L 74,33  L 72,33  L 72,32  L 71,32  L 71,31  L 70,31  L 70,29  L 68,29  L 68,28  L 67,28  L 67,27  L 66,27  L 66,26  L 65,26  L 65,24  L 64,24  L 64,21  L 65,21  L 65,17  L 66,17  L 66,15  L 67,15  L 67,13  L 69,13  L 69,11  L 70,11  L 70,7  L 71,7  L 71,6  L 70,6  L 70,5  L 69,5  L 69,4  L 68,4  L 68,3  L 67,3  L 67,2  L 64,2  L 64,3  L 45,3  L 45,4  L 44,4  L 44,3  L 43,3  L 43,4  L 42,4  L 42,5  L 41,5  L 41,6  L 40,6  L 40,10  L 41,10  L 41,11  L 49,11  L 49,10  L 51,10  L 51,11  L 52,11  L 52,10  L 53,10  L 53,11  L 54,11  L 54,10  L 55,10  L 55,11  L 56,11  L 56,10  L 59,10  L 59,11  L 61,11  L 61,14  L 60,14  L 60,15  L 59,15  L 59,16  L 58,16  L 58,17  L 56,17  L 56,20  L 55,20  L 55,21  L 54,21  L 54,24  L 53,24  L 53,26  L 52,26  L 52,27  L 51,27  L 51,29  L 50,29  L 50,30  L 49,30  L 49,32  L 48,32  L 48,34  L 47,34  L 47,35  L 46,35  L 46,37  L 45,37  L 45,38  L 44,38  L 44,39  L 42,39  L 42,38  L 40,38  L 40,37  L 37,37  L 37,36  L 34,36  L 34,35  L 32,35  L 32,34  L 31,34  L 31,33  L 30,33  L 30,32  L 29,32  L 29,31  L 28,31  L 28,30  L 27,30  L 27,28  L 26,28  L 26,27  L 25,27  L 25,24  L 26,24  L 26,21  L 27,21  L 27,20  L 28,20  L 28,19  L 29,19  L 29,17  L 30,17  L 30,16  L 23,16  L 23,17  L 22,17  L 22,18  L 21,18  L 21,19  L 20,19  L 20,20  L 19,20  L 19,21  L 18,21  L 18,23  L 17,23  L 17,28  L 16,28  L 16,30  L 15,30  L 15,33  L 14,33  L 14,35  L 13,35  L 13,36  L 12,36  L 12,38  L 11,38  L 11,40  L 10,40  L 10,42  L 9,42  L 9,43  L 8,43  L 8,44  L 7,44  L 7,45  L 6,45  L 6,47  L 4,47  L 4,51  L 5,51  L 5,52  L 6,52  L 6,53  L 9,53  L 9,52  L 10,52  L 10,51  L 11,51  L 11,50  L 12,50  L 12,48  L 13,48  L 13,46  L 14,46  L 14,44  L 15,44  L 15,43  L 16,43  L 16,41  L 17,41  L 17,39  L 18,39  L 18,38  L 19,38  L 19,36  L 20,36  L 20,35  L 23,35  L 23,36  L 25,36  L 25,37  L 26,37  L 26,38  L 27,38  L 27,39  L 29,39  L 29,40  L 31,40  L 31,41  L 33,41  L 33,42  L 36,42  L 36,43  L 38,43  L 38,44  L 40,44  L 40,55  L 41,55  L 41,56  L 40,56  L 40,59  L 41,59  L 41,60  L 40,60  L 40,63  L 41,63  L 41,73  L 40,73  L 40,74  L 37,74  L 37,73  L 35,73  L 35,74  L 30,74  L 30,75  Z  " style="fill:rgb(0, 0, 0); fill-opacity:1.000; stroke:none;" />
 <path d="  M 97,116  L 96,116  L 96,117  L 97,117  L 97,118  L 96,118  L 96,130  L 95,130  L 95,135  L 94,135  L 94,138  L 93,138  L 93,139  L 89,139  L 89,140  L 78,140  L 78,141  L 77,141  L 77,140  L 75,140  L 75,141  L 73,141  L 73,140  L 72,140  L 72,141  L 69,141  L 69,140  L 68,140  L 68,141  L 65,141  L 65,140  L 64,140  L 64,141  L 53,141  L 53,140  L 51,140  L 51,139  L 50,139  L 50,128  L 49,128  L 49,108  L 50,108  L 50,107  L 51,107  L 51,106  L 59,106  L 59,105  L 69,105  L 69,104  L 91,104  L 91,105  L 94,105  L 94,106  L 95,106  L 95,107  L 96,107  L 96,109  L 97,109  Z  M 84,147  L 84,146  L 86,146  L 86,147  L 88,147  L 88,146  L 92,146  L 92,145  L 96,145  L 96,143  L 97,143  L 97,142  L 99,142  L 99,141  L 100,141  L 100,139  L 101,139  L 101,133  L 102,133  L 102,132  L 101,132  L 101,131  L 102,131  L 102,124  L 103,124  L 103,122  L 102,122  L 102,121  L 103,121  L 103,103  L 102,103  L 102,102  L 101,102  L 101,101  L 100,101  L 100,100  L 98,100  L 98,99  L 95,99  L 95,98  L 90,98  L 90,97  L 76,97  L 76,98  L 64,98  L 64,99  L 46,99  L 46,98  L 39,98  L 39,99  L 38,99  L 38,98  L 37,98  L 37,99  L 32,99  L 32,100  L 30,100  L 30,101  L 28,101  L 28,108  L 30,108  L 30,109  L 31,109  L 31,110  L 32,110  L 32,109  L 33,109  L 33,110  L 34,110  L 34,109  L 35,109  L 35,110  L 36,110  L 36,109  L 38,109  L 38,108  L 42,108  L 42,113  L 41,113  L 41,114  L 42,114  L 42,115  L 41,115  L 41,116  L 42,116  L 42,117  L 41,117  L 41,118  L 42,118  L 42,121  L 41,121  L 41,123  L 42,123  L 42,125  L 41,125  L 41,127  L 42,127  L 42,129  L 41,129  L 41,130  L 42,130  L 42,135  L 43,135  L 43,139  L 44,139  L 44,142  L 45,142  L 45,145  L 46,145  L 46,146  L 47,146  L 47,147  Z  " style="fill:rgb(0, 0, 0); fill-opacity:1.000; stroke:none;" />
 <path d="  M 103,24  L 102,24  L 102,23  L 103,23  L 103,22  L 102,22  L 102,16  L 101,16  L 101,11  L 100,11  L 100,10  L 101,10  L 101,9  L 100,9  L 100,5  L 99,5  L 99,2  L 98,2  L 98,1  L 97,1  L 97,0  L 95,0  L 95,1  L 94,1  L 94,2  L 93,2  L 93,8  L 94,8  L 94,12  L 95,12  L 95,19  L 96,19  L 96,24  L 97,24  L 97,33  L 98,33  L 98,65  L 97,65  L 97,66  L 98,66  L 98,69  L 97,69  L 97,70  L 98,70  L 98,72  L 97,72  L 97,88  L 98,88  L 98,91  L 99,91  L 99,93  L 103,93  Z  " style="fill:rgb(0, 0, 0); fill-opacity:1.000; stroke:none;" />
</svg>
