<?xml version="1.0" encoding="UTF-8" standalone="no"?>
<!DOCTYPE svg PUBLIC "-//W3C//DTD SVG 1.1//EN" 
  "http://www.w3.org/Graphics/SVG/1.1/DTD/svg11.dtd">
<svg width="104" height="155"
     xmlns="http://www.w3.org/2000/svg" version="1.1">
 <path d="  M 6,75  L 7,75  L 7,74  L 8,74  L 8,75  L 9,75  L 9,74  L 21,74  L 21,73  L 27,73  L 27,72  L 35,72  L 35,71  L 40,71  L 40,70  L 45,70  L 45,69  L 50,69  L 50,68  L 54,68  L 54,71  L 55,71  L 55,73  L 54,73  L 54,79  L 55,79  L 55,80  L 54,80  L 54,101  L 38,101  L 38,102  L 34,102  L 34,103  L 25,103  L 25,104  L 20,104  L 20,105  L 17,105  L 17,107  L 16,107  L 16,111  L 18,111  L 18,112  L 23,112  L 23,111  L 26,111  L 26,110  L 29,110  L 29,109  L 35,109  L 35,108  L 36,108  L 36,109  L 37,109  L 37,108  L 39,108  L 39,107  L 40,107  L 40,108  L 41,108  L 41,107  L 54,107  L 54,106  L 57,106  L 57,107  L 58,107  L 58,106  L 61,106  L 61,107  L 62,107  L 62,106  L 74,106  L 74,107  L 75,107  L 75,113  L 74,113  L 74,116  L 73,116  L 73,119  L 72,119  L 72,120  L 71,120  L 71,122  L 70,122  L 70,124  L 69,124  L 69,128  L 68,128  L 68,131  L 67,131  L 67,132  L 68,132  L 68,133  L 67,133  L 67,135  L 66,135  L 66,138  L 65,138  L 65,141  L 64,141  L 64,145  L 63,145  L 63,148  L 62,148  L 62,151  L 61,151  L 61,154  L 62,154  L 62,155  L 68,155  L 68,152  L 69,152  L 69,150  L 70,150  L 70,148  L 71,148  L 71,144  L 72,144  L 72,143  L 73,143  L 73,142  L 72,142  L 72,140  L 73,140  L 73,137  L 74,137  L 74,133  L 75,133  L 75,129  L 76,129  L 76,127  L 77,127  L 77,125  L 78,125  L 78,122  L 79,122  L 79,120  L 80,120  L 80,119  L 81,119  L 81,118  L 80,118  L 80,117  L 81,117  L 81,115  L 82,115  L 82,108  L 83,108  L 83,107  L 82,107  L 82,104  L 81,104  L 81,102  L 80,102  L 80,101  L 78,101  L 78,100  L 77,100  L 77,99  L 61,99  L 61,97  L 60,97  L 60,95  L 61,95  L 61,92  L 60,92  L 60,91  L 61,91  L 61,79  L 62,79  L 62,78  L 61,78  L 61,76  L 62,76  L 62,68  L 77,68  L 77,67  L 78,67  L 78,68  L 79,68  L 79,67  L 87,67  L 87,66  L 96,66  L 96,65  L 100,65  L 100,64  L 102,64  L 102,63  L 103,63  L 103,62  L 104,62  L 104,57  L 99,57  L 99,58  L 95,58  L 95,59  L 90,59  L 90,60  L 89,60  L 89,59  L 87,59  L 87,60  L 82,60  L 82,61  L 80,61  L 80,60  L 79,60  L 79,61  L 74,61  L 74,62  L 73,62  L 73,61  L 72,61  L 72,62  L 71,62  L 71,61  L 70,61  L 70,62  L 69,62  L 69,61  L 68,61  L 68,62  L 57,62  L 57,61  L 56,61  L 56,62  L 45,62  L 45,63  L 44,63  L 44,62  L 43,62  L 43,63  L 42,63  L 42,62  L 41,62  L 41,63  L 39,63  L 39,64  L 34,64  L 34,65  L 28,65  L 28,66  L 22,66  L 22,67  L 16,67  L 16,68  L 6,68  L 6,69  L 0,69  L 0,73  L 1,73  L 1,74  L 6,74  Z  " style="fill:rgb(0, 0, 0); fill-opacity:1.000; stroke:none;" />
 <path d="  M 76,17  L 76,16  L 77,16  L 77,14  L 78,14  L 78,10  L 79,10  L 79,7  L 78,7  L 78,5  L 77,5  L 77,3  L 76,3  L 76,2  L 75,2  L 75,1  L 70,1  L 70,2  L 58,2  L 58,3  L 56,3  L 56,2  L 54,2  L 54,3  L 50,3  L 50,2  L 49,2  L 49,3  L 47,3  L 47,4  L 46,4  L 46,5  L 44,5  L 44,6  L 43,6  L 43,7  L 45,7  L 45,8  L 47,8  L 47,9  L 48,9  L 48,10  L 63,10  L 63,9  L 64,9  L 64,10  L 66,10  L 66,9  L 71,9  L 71,12  L 70,12  L 70,13  L 69,13  L 69,15  L 68,15  L 68,16  L 67,16  L 67,18  L 66,18  L 66,19  L 65,19  L 65,21  L 64,21  L 64,23  L 63,23  L 63,24  L 62,24  L 62,26  L 61,26  L 61,28  L 60,28  L 60,29  L 59,29  L 59,30  L 58,30  L 58,31  L 57,31  L 57,33  L 56,33  L 56,35  L 55,35  L 55,36  L 54,36  L 54,38  L 53,38  L 53,39  L 52,39  L 52,41  L 51,41  L 51,42  L 50,42  L 50,43  L 48,43  L 48,42  L 46,42  L 46,41  L 45,41  L 45,40  L 43,40  L 43,39  L 42,39  L 42,38  L 41,38  L 41,37  L 39,37  L 39,36  L 37,36  L 37,35  L 36,35  L 36,34  L 34,34  L 34,33  L 33,33  L 33,32  L 32,32  L 32,31  L 31,31  L 31,30  L 30,30  L 30,29  L 29,29  L 29,27  L 28,27  L 28,26  L 27,26  L 27,25  L 28,25  L 28,24  L 29,24  L 29,23  L 31,23  L 31,22  L 32,22  L 32,21  L 33,21  L 33,20  L 34,20  L 34,18  L 35,18  L 35,16  L 36,16  L 36,13  L 37,13  L 37,12  L 38,12  L 38,11  L 39,11  L 39,9  L 40,9  L 40,8  L 41,8  L 41,7  L 42,7  L 42,6  L 41,6  L 41,5  L 40,5  L 40,4  L 38,4  L 38,3  L 37,3  L 37,1  L 36,1  L 36,2  L 35,2  L 35,1  L 34,1  L 34,2  L 25,2  L 25,3  L 24,3  L 24,2  L 22,2  L 22,3  L 15,3  L 15,4  L 8,4  L 8,5  L 4,5  L 4,6  L 3,6  L 3,8  L 2,8  L 2,13  L 4,13  L 4,14  L 5,14  L 5,13  L 8,13  L 8,12  L 10,12  L 10,11  L 14,11  L 14,10  L 19,10  L 19,9  L 20,9  L 20,10  L 21,10  L 21,9  L 29,9  L 29,10  L 30,10  L 30,11  L 31,11  L 31,13  L 30,13  L 30,14  L 29,14  L 29,15  L 28,15  L 28,16  L 27,16  L 27,17  L 25,17  L 25,18  L 24,18  L 24,20  L 23,20  L 23,21  L 22,21  L 22,23  L 21,23  L 21,24  L 20,24  L 20,26  L 19,26  L 19,29  L 18,29  L 18,32  L 17,32  L 17,35  L 16,35  L 16,37  L 15,37  L 15,40  L 14,40  L 14,42  L 13,42  L 13,44  L 12,44  L 12,46  L 11,46  L 11,48  L 9,48  L 9,50  L 8,50  L 8,51  L 9,51  L 9,53  L 15,53  L 15,52  L 16,52  L 16,51  L 17,51  L 17,50  L 18,50  L 18,47  L 19,47  L 19,45  L 20,45  L 20,43  L 21,43  L 21,42  L 22,42  L 22,40  L 23,40  L 23,37  L 24,37  L 24,36  L 27,36  L 27,37  L 28,37  L 28,38  L 30,38  L 30,39  L 31,39  L 31,40  L 32,40  L 32,41  L 34,41  L 34,42  L 35,42  L 35,43  L 37,43  L 37,44  L 38,44  L 38,45  L 40,45  L 40,46  L 44,46  L 44,45  L 45,45  L 45,46  L 46,46  L 46,47  L 47,47  L 47,48  L 48,48  L 48,49  L 49,49  L 49,50  L 52,50  L 52,49  L 53,49  L 53,48  L 54,48  L 54,47  L 55,47  L 55,46  L 56,46  L 56,45  L 57,45  L 57,44  L 58,44  L 58,43  L 59,43  L 59,41  L 60,41  L 60,39  L 61,39  L 61,38  L 62,38  L 62,37  L 63,37  L 63,34  L 64,34  L 64,33  L 65,33  L 65,32  L 66,32  L 66,30  L 68,30  L 68,31  L 69,31  L 69,32  L 71,32  L 71,33  L 73,33  L 73,34  L 74,34  L 74,35  L 75,35  L 75,36  L 76,36  L 76,37  L 79,37  L 79,38  L 80,38  L 80,39  L 83,39  L 83,40  L 84,40  L 84,41  L 86,41  L 86,42  L 88,42  L 88,44  L 89,44  L 89,45  L 92,45  L 92,46  L 94,46  L 94,47  L 95,47  L 95,48  L 100,48  L 100,47  L 101,47  L 101,45  L 102,45  L 102,44  L 101,44  L 101,42  L 100,42  L 100,41  L 98,41  L 98,40  L 96,40  L 96,39  L 94,39  L 94,38  L 93,38  L 93,37  L 91,37  L 91,36  L 89,36  L 89,35  L 88,35  L 88,34  L 86,34  L 86,33  L 84,33  L 84,32  L 81,32  L 81,31  L 80,31  L 80,30  L 79,30  L 79,29  L 78,29  L 78,28  L 77,28  L 77,27  L 75,27  L 75,26  L 74,26  L 74,25  L 73,25  L 73,21  L 74,21  L 74,18  L 75,18  L 75,17  Z  " style="fill:rgb(0, 0, 0); fill-opacity:1.000; stroke:none;" />
</svg>
