<?xml version="1.0" encoding="UTF-8" standalone="no"?>
<!DOCTYPE svg PUBLIC "-//W3C//DTD SVG 1.1//EN" 
  "http://www.w3.org/Graphics/SVG/1.1/DTD/svg11.dtd">
<svg width="110" height="148"
     xmlns="http://www.w3.org/2000/svg" version="1.1">
 <path d="  M 27,142  L 28,142  L 28,144  L 29,144  L 29,145  L 31,145  L 31,146  L 32,146  L 32,147  L 34,147  L 34,148  L 42,148  L 42,147  L 49,147  L 49,146  L 53,146  L 53,145  L 58,145  L 58,144  L 62,144  L 62,143  L 67,143  L 67,142  L 70,142  L 70,141  L 74,141  L 74,140  L 77,140  L 77,139  L 78,139  L 78,138  L 80,138  L 80,137  L 81,137  L 81,136  L 82,136  L 82,135  L 83,135  L 83,133  L 84,133  L 84,131  L 85,131  L 85,128  L 86,128  L 86,126  L 87,126  L 87,123  L 88,123  L 88,122  L 87,122  L 87,121  L 88,121  L 88,117  L 89,117  L 89,110  L 90,110  L 90,105  L 91,105  L 91,99  L 90,99  L 90,97  L 89,97  L 89,96  L 88,96  L 88,95  L 87,95  L 87,94  L 86,94  L 86,93  L 84,93  L 84,92  L 81,92  L 81,93  L 77,93  L 77,94  L 68,94  L 68,95  L 64,95  L 64,92  L 63,92  L 63,91  L 64,91  L 64,90  L 63,90  L 63,88  L 64,88  L 64,79  L 65,79  L 65,78  L 64,78  L 64,75  L 65,75  L 65,73  L 64,73  L 64,69  L 65,69  L 65,68  L 74,68  L 74,67  L 75,67  L 75,68  L 76,68  L 76,67  L 77,67  L 77,68  L 78,68  L 78,67  L 86,67  L 86,66  L 94,66  L 94,65  L 95,65  L 95,66  L 96,66  L 96,65  L 101,65  L 101,64  L 105,64  L 105,63  L 106,63  L 106,62  L 109,62  L 109,61  L 110,61  L 110,55  L 103,55  L 103,56  L 102,56  L 102,57  L 98,57  L 98,58  L 96,58  L 96,59  L 89,59  L 89,60  L 84,60  L 84,61  L 83,61  L 83,60  L 81,60  L 81,61  L 69,61  L 69,62  L 68,62  L 68,61  L 65,61  L 65,62  L 64,62  L 64,61  L 52,61  L 52,62  L 42,62  L 42,63  L 38,63  L 38,64  L 27,64  L 27,65  L 26,65  L 26,64  L 24,64  L 24,65  L 12,65  L 12,66  L 3,66  L 3,67  L 2,67  L 2,68  L 0,68  L 0,69  L 1,69  L 1,71  L 2,71  L 2,72  L 22,72  L 22,71  L 37,71  L 37,70  L 42,70  L 42,69  L 43,69  L 43,70  L 44,70  L 44,69  L 48,69  L 48,68  L 50,68  L 50,69  L 53,69  L 53,68  L 57,68  L 57,71  L 58,71  L 58,73  L 57,73  L 57,96  L 56,96  L 56,97  L 54,97  L 54,98  L 53,98  L 53,97  L 52,97  L 52,98  L 50,98  L 50,97  L 47,97  L 47,98  L 34,98  L 34,97  L 32,97  L 32,98  L 29,98  L 29,99  L 27,99  L 27,100  L 26,100  L 26,99  L 25,99  L 25,100  L 23,100  L 23,101  L 21,101  L 21,103  L 20,103  L 20,106  L 21,106  L 21,107  L 27,107  L 27,121  L 26,121  L 26,122  L 27,122  L 27,125  L 26,125  L 26,126  L 27,126  L 27,129  L 26,129  L 26,130  L 27,130  Z  M 50,104  L 50,103  L 59,103  L 59,102  L 60,102  L 60,103  L 61,103  L 61,102  L 68,102  L 68,101  L 74,101  L 74,100  L 80,100  L 80,99  L 82,99  L 82,100  L 83,100  L 83,111  L 82,111  L 82,118  L 81,118  L 81,122  L 80,122  L 80,125  L 79,125  L 79,128  L 78,128  L 78,131  L 77,131  L 77,132  L 76,132  L 76,133  L 75,133  L 75,134  L 73,134  L 73,135  L 69,135  L 69,136  L 67,136  L 67,137  L 63,137  L 63,138  L 59,138  L 59,139  L 58,139  L 58,138  L 57,138  L 57,139  L 55,139  L 55,140  L 51,140  L 51,141  L 50,141  L 50,140  L 49,140  L 49,141  L 46,141  L 46,142  L 40,142  L 40,143  L 37,143  L 37,142  L 36,142  L 36,143  L 35,143  L 35,140  L 34,140  L 34,109  L 35,109  L 35,106  L 36,106  L 36,105  L 41,105  L 41,104  Z  " style="fill:rgb(0, 0, 0); fill-opacity:1.000; stroke:none;" />
 <path d="  M 22,47  L 22,45  L 23,45  L 23,43  L 24,43  L 24,42  L 25,42  L 25,41  L 26,41  L 26,38  L 27,38  L 27,35  L 28,35  L 28,36  L 29,36  L 29,35  L 30,35  L 30,36  L 31,36  L 31,37  L 32,37  L 32,38  L 33,38  L 33,39  L 35,39  L 35,40  L 37,40  L 37,41  L 38,41  L 38,42  L 40,42  L 40,43  L 42,43  L 42,44  L 43,44  L 43,45  L 48,45  L 48,46  L 49,46  L 49,48  L 50,48  L 50,49  L 51,49  L 51,50  L 55,50  L 55,49  L 56,49  L 56,48  L 57,48  L 57,47  L 58,47  L 58,45  L 59,45  L 59,43  L 60,43  L 60,42  L 62,42  L 62,40  L 63,40  L 63,38  L 64,38  L 64,37  L 65,37  L 65,36  L 66,36  L 66,33  L 67,33  L 67,31  L 68,31  L 68,30  L 69,30  L 69,29  L 71,29  L 71,30  L 72,30  L 72,31  L 73,31  L 73,32  L 76,32  L 76,34  L 78,34  L 78,35  L 79,35  L 79,36  L 81,36  L 81,37  L 83,37  L 83,38  L 85,38  L 85,39  L 86,39  L 86,40  L 88,40  L 88,41  L 90,41  L 90,42  L 92,42  L 92,43  L 93,43  L 93,44  L 94,44  L 94,45  L 96,45  L 96,46  L 98,46  L 98,47  L 100,47  L 100,48  L 104,48  L 104,47  L 105,47  L 105,42  L 104,42  L 104,41  L 103,41  L 103,40  L 101,40  L 101,39  L 100,39  L 100,38  L 97,38  L 97,37  L 96,37  L 96,36  L 94,36  L 94,35  L 92,35  L 92,34  L 90,34  L 90,33  L 87,33  L 87,32  L 86,32  L 86,31  L 84,31  L 84,30  L 83,30  L 83,29  L 81,29  L 81,28  L 80,28  L 80,27  L 79,27  L 79,26  L 78,26  L 78,25  L 77,25  L 77,24  L 76,24  L 76,20  L 77,20  L 77,17  L 78,17  L 78,16  L 79,16  L 79,13  L 80,13  L 80,11  L 81,11  L 81,5  L 80,5  L 80,3  L 79,3  L 79,2  L 78,2  L 78,1  L 77,1  L 77,0  L 73,0  L 73,1  L 65,1  L 65,2  L 64,2  L 64,1  L 61,1  L 61,2  L 60,2  L 60,1  L 59,1  L 59,2  L 52,2  L 52,3  L 49,3  L 49,5  L 48,5  L 48,7  L 50,7  L 50,9  L 62,9  L 62,8  L 63,8  L 63,9  L 64,9  L 64,8  L 73,8  L 73,12  L 72,12  L 72,13  L 71,13  L 71,15  L 70,15  L 70,17  L 69,17  L 69,18  L 68,18  L 68,20  L 67,20  L 67,22  L 66,22  L 66,24  L 65,24  L 65,26  L 64,26  L 64,27  L 63,27  L 63,28  L 62,28  L 62,30  L 61,30  L 61,31  L 60,31  L 60,32  L 59,32  L 59,34  L 58,34  L 58,35  L 57,35  L 57,37  L 56,37  L 56,39  L 55,39  L 55,40  L 54,40  L 54,41  L 53,41  L 53,42  L 52,42  L 52,43  L 51,43  L 51,42  L 50,42  L 50,41  L 49,41  L 49,40  L 47,40  L 47,39  L 46,39  L 46,38  L 45,38  L 45,37  L 43,37  L 43,36  L 42,36  L 42,35  L 40,35  L 40,34  L 39,34  L 39,33  L 37,33  L 37,32  L 36,32  L 36,31  L 35,31  L 35,30  L 34,30  L 34,29  L 33,29  L 33,26  L 31,26  L 31,25  L 32,25  L 32,24  L 34,24  L 34,23  L 35,23  L 35,22  L 36,22  L 36,21  L 37,21  L 37,19  L 38,19  L 38,17  L 39,17  L 39,15  L 40,15  L 40,13  L 41,13  L 41,11  L 42,11  L 42,9  L 43,9  L 43,8  L 44,8  L 44,4  L 43,4  L 43,3  L 41,3  L 41,2  L 40,2  L 40,1  L 39,1  L 39,2  L 36,2  L 36,3  L 30,3  L 30,4  L 19,4  L 19,5  L 13,5  L 13,6  L 9,6  L 9,7  L 8,7  L 8,8  L 7,8  L 7,9  L 8,9  L 8,10  L 7,10  L 7,13  L 13,13  L 13,12  L 16,12  L 16,11  L 22,11  L 22,10  L 35,10  L 35,11  L 36,11  L 36,13  L 35,13  L 35,14  L 34,14  L 34,15  L 33,15  L 33,16  L 32,16  L 32,17  L 31,17  L 31,18  L 30,18  L 30,19  L 29,19  L 29,20  L 28,20  L 28,21  L 27,21  L 27,23  L 26,23  L 26,25  L 25,25  L 25,26  L 24,26  L 24,27  L 23,27  L 23,30  L 22,30  L 22,33  L 21,33  L 21,34  L 20,34  L 20,37  L 19,37  L 19,38  L 18,38  L 18,41  L 17,41  L 17,42  L 16,42  L 16,44  L 15,44  L 15,45  L 14,45  L 14,47  L 13,47  L 13,48  L 11,48  L 11,51  L 12,51  L 12,52  L 13,52  L 13,53  L 16,53  L 16,52  L 18,52  L 18,51  L 19,51  L 19,50  L 20,50  L 20,48  L 21,48  L 21,47  Z  " style="fill:rgb(0, 0, 0); fill-opacity:1.000; stroke:none;" />
</svg>
