<?xml version="1.0" encoding="UTF-8" standalone="no"?>
<!DOCTYPE svg PUBLIC "-//W3C//DTD SVG 1.1//EN" 
  "http://www.w3.org/Graphics/SVG/1.1/DTD/svg11.dtd">
<svg width="102" height="164"
     xmlns="http://www.w3.org/2000/svg" version="1.1">
 <path d="  M 34,75  L 34,74  L 38,74  L 38,73  L 44,73  L 44,72  L 48,72  L 48,71  L 51,71  L 51,72  L 52,72  L 52,78  L 53,78  L 53,79  L 52,79  L 52,83  L 53,83  L 53,84  L 52,84  L 52,86  L 53,86  L 53,88  L 52,88  L 52,91  L 53,91  L 53,92  L 52,92  L 52,95  L 53,95  L 53,96  L 52,96  L 52,98  L 53,98  L 53,100  L 52,100  L 52,101  L 53,101  L 53,105  L 54,105  L 54,106  L 56,106  L 56,104  L 57,104  L 57,103  L 58,103  L 58,100  L 59,100  L 59,95  L 60,95  L 60,93  L 59,93  L 59,91  L 60,91  L 60,88  L 59,88  L 59,87  L 60,87  L 60,84  L 59,84  L 59,83  L 60,83  L 60,82  L 59,82  L 59,79  L 60,79  L 60,77  L 59,77  L 59,73  L 60,73  L 60,72  L 59,72  L 59,71  L 60,71  L 60,70  L 75,70  L 75,69  L 76,69  L 76,70  L 77,70  L 77,69  L 87,69  L 87,68  L 95,68  L 95,67  L 96,67  L 96,68  L 97,68  L 97,67  L 99,67  L 99,66  L 101,66  L 101,65  L 102,65  L 102,59  L 93,59  L 93,60  L 91,60  L 91,61  L 90,61  L 90,60  L 89,60  L 89,61  L 88,61  L 88,60  L 87,60  L 87,61  L 86,61  L 86,62  L 85,62  L 85,61  L 83,61  L 83,62  L 79,62  L 79,63  L 68,63  L 68,64  L 55,64  L 55,63  L 54,63  L 54,64  L 50,64  L 50,63  L 48,63  L 48,64  L 47,64  L 47,63  L 46,63  L 46,64  L 45,64  L 45,65  L 41,65  L 41,66  L 38,66  L 38,67  L 34,67  L 34,68  L 27,68  L 27,69  L 22,69  L 22,70  L 14,70  L 14,71  L 6,71  L 6,72  L 4,72  L 4,73  L 1,73  L 1,76  L 0,76  L 0,77  L 5,77  L 5,78  L 9,78  L 9,77  L 21,77  L 21,76  L 27,76  L 27,75  Z  " style="fill:rgb(0, 0, 0); fill-opacity:1.000; stroke:none;" />
 <path d="  M 93,40  L 93,39  L 92,39  L 92,38  L 90,38  L 90,37  L 88,37  L 88,36  L 86,36  L 86,35  L 84,35  L 84,34  L 83,34  L 83,33  L 81,33  L 81,32  L 79,32  L 79,31  L 78,31  L 78,30  L 77,30  L 77,29  L 75,29  L 75,28  L 74,28  L 74,27  L 73,27  L 73,19  L 74,19  L 74,16  L 75,16  L 75,13  L 76,13  L 76,11  L 77,11  L 77,9  L 76,9  L 76,8  L 77,8  L 77,7  L 76,7  L 76,4  L 75,4  L 75,3  L 74,3  L 74,2  L 72,2  L 72,1  L 66,1  L 66,2  L 65,2  L 65,1  L 62,1  L 62,2  L 61,2  L 61,1  L 60,1  L 60,2  L 49,2  L 49,3  L 48,3  L 48,9  L 49,9  L 49,10  L 55,10  L 55,9  L 69,9  L 69,13  L 68,13  L 68,15  L 67,15  L 67,17  L 66,17  L 66,20  L 65,20  L 65,21  L 64,21  L 64,23  L 63,23  L 63,25  L 62,25  L 62,27  L 61,27  L 61,29  L 60,29  L 60,30  L 59,30  L 59,31  L 58,31  L 58,32  L 57,32  L 57,33  L 56,33  L 56,35  L 55,35  L 55,37  L 54,37  L 54,39  L 53,39  L 53,41  L 52,41  L 52,42  L 51,42  L 51,44  L 50,44  L 50,45  L 49,45  L 49,46  L 47,46  L 47,44  L 46,44  L 46,43  L 45,43  L 45,41  L 44,41  L 44,40  L 42,40  L 42,39  L 40,39  L 40,38  L 39,38  L 39,37  L 38,37  L 38,36  L 37,36  L 37,35  L 36,35  L 36,34  L 35,34  L 35,33  L 34,33  L 34,32  L 33,32  L 33,31  L 31,31  L 31,29  L 30,29  L 30,28  L 31,28  L 31,25  L 32,25  L 32,24  L 33,24  L 33,22  L 34,22  L 34,20  L 35,20  L 35,19  L 36,19  L 36,16  L 37,16  L 37,13  L 38,13  L 38,11  L 39,11  L 39,4  L 38,4  L 38,3  L 37,3  L 37,2  L 36,2  L 36,1  L 31,1  L 31,2  L 29,2  L 29,1  L 28,1  L 28,2  L 21,2  L 21,3  L 16,3  L 16,4  L 10,4  L 10,5  L 4,5  L 4,6  L 2,6  L 2,11  L 3,11  L 3,12  L 4,12  L 4,13  L 6,13  L 6,14  L 7,14  L 7,13  L 9,13  L 9,12  L 10,12  L 10,11  L 13,11  L 13,10  L 23,10  L 23,9  L 31,9  L 31,11  L 30,11  L 30,14  L 29,14  L 29,16  L 28,16  L 28,18  L 27,18  L 27,19  L 26,19  L 26,20  L 25,20  L 25,21  L 24,21  L 24,22  L 23,22  L 23,25  L 22,25  L 22,26  L 21,26  L 21,28  L 20,28  L 20,29  L 19,29  L 19,31  L 18,31  L 18,32  L 17,32  L 17,35  L 16,35  L 16,37  L 15,37  L 15,40  L 14,40  L 14,42  L 13,42  L 13,44  L 12,44  L 12,47  L 11,47  L 11,48  L 10,48  L 10,49  L 9,49  L 9,52  L 8,52  L 8,55  L 9,55  L 9,56  L 10,56  L 10,55  L 11,55  L 11,56  L 12,56  L 12,55  L 13,55  L 13,54  L 14,54  L 14,53  L 15,53  L 15,52  L 16,52  L 16,51  L 17,51  L 17,48  L 18,48  L 18,47  L 19,47  L 19,45  L 20,45  L 20,43  L 21,43  L 21,41  L 22,41  L 22,39  L 23,39  L 23,38  L 28,38  L 28,39  L 29,39  L 29,40  L 31,40  L 31,41  L 32,41  L 32,42  L 34,42  L 34,43  L 35,43  L 35,44  L 37,44  L 37,45  L 38,45  L 38,46  L 40,46  L 40,47  L 41,47  L 41,48  L 45,48  L 45,50  L 46,50  L 46,52  L 47,52  L 47,53  L 49,53  L 49,52  L 51,52  L 51,51  L 52,51  L 52,50  L 53,50  L 53,49  L 54,49  L 54,48  L 55,48  L 55,46  L 56,46  L 56,45  L 57,45  L 57,44  L 58,44  L 58,43  L 59,43  L 59,42  L 60,42  L 60,41  L 61,41  L 61,40  L 62,40  L 62,37  L 63,37  L 63,35  L 64,35  L 64,34  L 65,34  L 65,33  L 69,33  L 69,34  L 70,34  L 70,35  L 73,35  L 73,36  L 75,36  L 75,37  L 76,37  L 76,38  L 77,38  L 77,39  L 79,39  L 79,40  L 81,40  L 81,41  L 83,41  L 83,42  L 84,42  L 84,43  L 87,43  L 87,44  L 88,44  L 88,45  L 89,45  L 89,46  L 90,46  L 90,47  L 91,47  L 91,48  L 93,48  L 93,49  L 95,49  L 95,50  L 97,50  L 97,49  L 99,49  L 99,45  L 98,45  L 98,44  L 97,44  L 97,41  L 94,41  L 94,40  Z  " style="fill:rgb(0, 0, 0); fill-opacity:1.000; stroke:none;" />
 <path d="  M 52,162  L 52,161  L 54,161  L 54,160  L 57,160  L 57,159  L 61,159  L 61,158  L 63,158  L 63,157  L 66,157  L 66,156  L 67,156  L 67,155  L 68,155  L 68,154  L 70,154  L 70,152  L 71,152  L 71,151  L 72,151  L 72,150  L 73,150  L 73,149  L 74,149  L 74,148  L 75,148  L 75,147  L 76,147  L 76,144  L 77,144  L 77,143  L 78,143  L 78,140  L 79,140  L 79,136  L 80,136  L 80,133  L 81,133  L 81,131  L 82,131  L 82,128  L 83,128  L 83,125  L 84,125  L 84,108  L 83,108  L 83,101  L 82,101  L 82,100  L 83,100  L 83,99  L 82,99  L 82,93  L 81,93  L 81,91  L 78,91  L 78,92  L 77,92  L 77,94  L 76,94  L 76,96  L 77,96  L 77,97  L 76,97  L 76,99  L 77,99  L 77,109  L 78,109  L 78,110  L 77,110  L 77,117  L 78,117  L 78,122  L 77,122  L 77,123  L 69,123  L 69,124  L 64,124  L 64,125  L 61,125  L 61,126  L 34,126  L 34,125  L 32,125  L 32,124  L 31,124  L 31,123  L 29,123  L 29,118  L 30,118  L 30,112  L 31,112  L 31,107  L 32,107  L 32,102  L 33,102  L 33,94  L 31,94  L 31,93  L 30,93  L 30,94  L 29,94  L 29,96  L 28,96  L 28,97  L 27,97  L 27,99  L 26,99  L 26,101  L 25,101  L 25,103  L 24,103  L 24,107  L 23,107  L 23,108  L 24,108  L 24,109  L 23,109  L 23,114  L 22,114  L 22,115  L 23,115  L 23,117  L 22,117  L 22,140  L 23,140  L 23,141  L 22,141  L 22,144  L 23,144  L 23,145  L 22,145  L 22,147  L 23,147  L 23,154  L 24,154  L 24,156  L 25,156  L 25,158  L 27,158  L 27,159  L 28,159  L 28,161  L 29,161  L 29,162  L 31,162  L 31,163  L 33,163  L 33,164  L 44,164  L 44,163  L 47,163  L 47,162  Z  M 44,156  L 44,157  L 43,157  L 43,156  L 42,156  L 42,157  L 39,157  L 39,156  L 37,156  L 37,157  L 35,157  L 35,156  L 33,156  L 33,155  L 32,155  L 32,154  L 31,154  L 31,152  L 30,152  L 30,140  L 29,140  L 29,139  L 30,139  L 30,132  L 31,132  L 31,133  L 33,133  L 33,132  L 34,132  L 34,133  L 39,133  L 39,134  L 43,134  L 43,135  L 44,135  L 44,134  L 47,134  L 47,135  L 48,135  L 48,134  L 49,134  L 49,135  L 52,135  L 52,134  L 55,134  L 55,135  L 56,135  L 56,134  L 57,134  L 57,133  L 58,133  L 58,134  L 60,134  L 60,133  L 71,133  L 71,132  L 72,132  L 72,136  L 71,136  L 71,140  L 70,140  L 70,142  L 69,142  L 69,145  L 68,145  L 68,146  L 67,146  L 67,147  L 66,147  L 66,148  L 64,148  L 64,149  L 63,149  L 63,150  L 61,150  L 61,151  L 59,151  L 59,152  L 57,152  L 57,153  L 55,153  L 55,154  L 50,154  L 50,155  L 48,155  L 48,156  Z  " style="fill:rgb(0, 0, 0); fill-opacity:1.000; stroke:none;" />
</svg>
