<?xml version="1.0" encoding="UTF-8" standalone="no"?>
<!DOCTYPE svg PUBLIC "-//W3C//DTD SVG 1.1//EN" 
  "http://www.w3.org/Graphics/SVG/1.1/DTD/svg11.dtd">
<svg width="105" height="155"
     xmlns="http://www.w3.org/2000/svg" version="1.1">
 <path d="  M 69,122  L 69,123  L 70,123  L 70,125  L 71,125  L 71,126  L 72,126  L 72,129  L 73,129  L 73,134  L 72,134  L 72,136  L 71,136  L 71,138  L 70,138  L 70,139  L 69,139  L 69,140  L 68,140  L 68,141  L 67,141  L 67,142  L 65,142  L 65,144  L 63,144  L 63,145  L 61,145  L 61,146  L 60,146  L 60,147  L 55,147  L 55,148  L 37,148  L 37,147  L 34,147  L 34,146  L 33,146  L 33,145  L 32,145  L 32,144  L 31,144  L 31,140  L 30,140  L 30,139  L 31,139  L 31,135  L 32,135  L 32,134  L 31,134  L 31,133  L 32,133  L 32,131  L 33,131  L 33,129  L 34,129  L 34,128  L 35,128  L 35,127  L 36,127  L 36,125  L 37,125  L 37,124  L 38,124  L 38,123  L 40,123  L 40,122  L 41,122  L 41,121  L 42,121  L 42,120  L 44,120  L 44,119  L 47,119  L 47,118  L 59,118  L 59,119  L 63,119  L 63,120  L 65,120  L 65,121  L 68,121  L 68,122  Z  M 72,117  L 72,116  L 70,116  L 70,115  L 69,115  L 69,114  L 67,114  L 67,113  L 65,113  L 65,112  L 63,112  L 63,111  L 62,111  L 62,110  L 61,110  L 61,107  L 62,107  L 62,83  L 63,83  L 63,82  L 62,82  L 62,78  L 61,78  L 61,77  L 62,77  L 62,76  L 63,76  L 63,75  L 77,75  L 77,74  L 78,74  L 78,75  L 79,75  L 79,74  L 80,74  L 80,75  L 81,75  L 81,74  L 84,74  L 84,75  L 85,75  L 85,74  L 88,74  L 88,75  L 89,75  L 89,74  L 98,74  L 98,73  L 99,73  L 99,74  L 100,74  L 100,73  L 101,73  L 101,74  L 102,74  L 102,73  L 105,73  L 105,67  L 104,67  L 104,66  L 95,66  L 95,67  L 94,67  L 94,66  L 93,66  L 93,67  L 89,67  L 89,68  L 88,68  L 88,67  L 87,67  L 87,68  L 48,68  L 48,69  L 36,69  L 36,70  L 34,70  L 34,69  L 33,69  L 33,70  L 24,70  L 24,71  L 22,71  L 22,70  L 21,70  L 21,71  L 13,71  L 13,72  L 12,72  L 12,71  L 11,71  L 11,72  L 1,72  L 1,73  L 0,73  L 0,75  L 1,75  L 1,76  L 2,76  L 2,77  L 4,77  L 4,78  L 5,78  L 5,77  L 6,77  L 6,78  L 18,78  L 18,77  L 19,77  L 19,78  L 20,78  L 20,77  L 28,77  L 28,76  L 40,76  L 40,75  L 41,75  L 41,76  L 42,76  L 42,75  L 43,75  L 43,76  L 44,76  L 44,75  L 47,75  L 47,76  L 48,76  L 48,75  L 54,75  L 54,76  L 55,76  L 55,101  L 54,101  L 54,102  L 55,102  L 55,104  L 54,104  L 54,105  L 55,105  L 55,108  L 54,108  L 54,110  L 44,110  L 44,111  L 42,111  L 42,112  L 41,112  L 41,113  L 40,113  L 40,114  L 38,114  L 38,115  L 37,115  L 37,116  L 36,116  L 36,117  L 35,117  L 35,118  L 34,118  L 34,119  L 33,119  L 33,120  L 32,120  L 32,121  L 31,121  L 31,122  L 30,122  L 30,123  L 29,123  L 29,124  L 28,124  L 28,126  L 27,126  L 27,127  L 26,127  L 26,129  L 25,129  L 25,131  L 24,131  L 24,134  L 23,134  L 23,142  L 24,142  L 24,143  L 23,143  L 23,144  L 24,144  L 24,147  L 25,147  L 25,149  L 26,149  L 26,150  L 28,150  L 28,152  L 30,152  L 30,153  L 31,153  L 31,154  L 33,154  L 33,155  L 59,155  L 59,154  L 61,154  L 61,153  L 64,153  L 64,152  L 65,152  L 65,151  L 67,151  L 67,150  L 69,150  L 69,149  L 70,149  L 70,148  L 71,148  L 71,147  L 72,147  L 72,146  L 73,146  L 73,145  L 74,145  L 74,144  L 75,144  L 75,143  L 76,143  L 76,142  L 77,142  L 77,140  L 78,140  L 78,139  L 79,139  L 79,136  L 80,136  L 80,125  L 79,125  L 79,124  L 78,124  L 78,123  L 77,123  L 77,121  L 76,121  L 76,119  L 75,119  L 75,118  L 74,118  L 74,117  Z  " style="fill:rgb(0, 0, 0); fill-opacity:1.000; stroke:none;" />
 <path d="  M 0,76  L 0,77  L 1,77  L 1,76  Z  " style="fill:rgb(0, 0, 0); fill-opacity:1.000; stroke:none;" />
 <path d="  M 53,51  L 54,51  L 54,50  L 55,50  L 55,49  L 56,49  L 56,48  L 57,48  L 57,46  L 58,46  L 58,45  L 59,45  L 59,44  L 60,44  L 60,42  L 62,42  L 62,41  L 63,41  L 63,39  L 64,39  L 64,37  L 65,37  L 65,36  L 66,36  L 66,34  L 67,34  L 67,33  L 68,33  L 68,32  L 69,32  L 69,33  L 71,33  L 71,35  L 73,35  L 73,36  L 74,36  L 74,37  L 76,37  L 76,38  L 77,38  L 77,39  L 78,39  L 78,41  L 79,41  L 79,42  L 83,42  L 83,43  L 84,43  L 84,44  L 85,44  L 85,45  L 86,45  L 86,46  L 88,46  L 88,47  L 90,47  L 90,48  L 91,48  L 91,49  L 93,49  L 93,48  L 95,48  L 95,47  L 96,47  L 96,46  L 95,46  L 95,43  L 94,43  L 94,42  L 93,42  L 93,41  L 92,41  L 92,40  L 90,40  L 90,39  L 89,39  L 89,38  L 88,38  L 88,37  L 86,37  L 86,36  L 85,36  L 85,35  L 83,35  L 83,34  L 82,34  L 82,33  L 81,33  L 81,32  L 80,32  L 80,31  L 79,31  L 79,30  L 77,30  L 77,29  L 76,29  L 76,27  L 75,27  L 75,26  L 74,26  L 74,21  L 75,21  L 75,19  L 76,19  L 76,17  L 77,17  L 77,14  L 78,14  L 78,9  L 79,9  L 79,8  L 78,8  L 78,5  L 77,5  L 77,4  L 76,4  L 76,2  L 75,2  L 75,1  L 73,1  L 73,0  L 69,0  L 69,1  L 67,1  L 67,0  L 66,0  L 66,1  L 52,1  L 52,3  L 50,3  L 50,9  L 58,9  L 58,8  L 71,8  L 71,10  L 72,10  L 72,11  L 71,11  L 71,13  L 70,13  L 70,15  L 69,15  L 69,16  L 68,16  L 68,19  L 67,19  L 67,20  L 66,20  L 66,22  L 65,22  L 65,25  L 64,25  L 64,28  L 62,28  L 62,30  L 61,30  L 61,31  L 60,31  L 60,32  L 59,32  L 59,34  L 58,34  L 58,35  L 57,35  L 57,36  L 56,36  L 56,39  L 55,39  L 55,41  L 54,41  L 54,43  L 53,43  L 53,44  L 52,44  L 52,45  L 50,45  L 50,44  L 48,44  L 48,43  L 47,43  L 47,42  L 46,42  L 46,41  L 44,41  L 44,40  L 42,40  L 42,39  L 41,39  L 41,38  L 39,38  L 39,37  L 38,37  L 38,36  L 37,36  L 37,35  L 36,35  L 36,34  L 35,34  L 35,33  L 34,33  L 34,32  L 33,32  L 33,30  L 30,30  L 30,26  L 31,26  L 31,25  L 33,25  L 33,22  L 34,22  L 34,20  L 35,20  L 35,18  L 36,18  L 36,17  L 37,17  L 37,15  L 38,15  L 38,13  L 39,13  L 39,12  L 40,12  L 40,9  L 41,9  L 41,4  L 40,4  L 40,1  L 38,1  L 38,0  L 35,0  L 35,1  L 27,1  L 27,2  L 20,2  L 20,3  L 15,3  L 15,4  L 11,4  L 11,5  L 6,5  L 6,6  L 4,6  L 4,7  L 3,7  L 3,13  L 6,13  L 6,14  L 7,14  L 7,13  L 8,13  L 8,12  L 10,12  L 10,11  L 12,11  L 12,10  L 18,10  L 18,9  L 23,9  L 23,8  L 33,8  L 33,11  L 32,11  L 32,12  L 31,12  L 31,14  L 30,14  L 30,16  L 28,16  L 28,17  L 27,17  L 27,18  L 26,18  L 26,20  L 24,20  L 24,22  L 23,22  L 23,24  L 22,24  L 22,26  L 21,26  L 21,28  L 20,28  L 20,30  L 19,30  L 19,32  L 18,32  L 18,35  L 17,35  L 17,38  L 16,38  L 16,41  L 15,41  L 15,42  L 14,42  L 14,45  L 13,45  L 13,47  L 12,47  L 12,48  L 11,48  L 11,50  L 10,50  L 10,51  L 9,51  L 9,52  L 8,52  L 8,54  L 7,54  L 7,55  L 8,55  L 8,56  L 11,56  L 11,57  L 12,57  L 12,56  L 15,56  L 15,54  L 16,54  L 16,52  L 17,52  L 17,50  L 18,50  L 18,48  L 19,48  L 19,47  L 20,47  L 20,45  L 21,45  L 21,43  L 22,43  L 22,41  L 23,41  L 23,39  L 24,39  L 24,36  L 25,36  L 25,35  L 27,35  L 27,38  L 29,38  L 29,40  L 31,40  L 31,41  L 33,41  L 33,42  L 35,42  L 35,43  L 36,43  L 36,44  L 38,44  L 38,45  L 39,45  L 39,46  L 40,46  L 40,47  L 42,47  L 42,48  L 44,48  L 44,49  L 46,49  L 46,50  L 47,50  L 47,52  L 48,52  L 48,54  L 49,54  L 49,55  L 51,55  L 51,54  L 52,54  L 52,53  L 53,53  Z  " style="fill:rgb(0, 0, 0); fill-opacity:1.000; stroke:none;" />
</svg>
