<?xml version="1.0" encoding="UTF-8" standalone="no"?>
<!DOCTYPE svg PUBLIC "-//W3C//DTD SVG 1.1//EN" 
  "http://www.w3.org/Graphics/SVG/1.1/DTD/svg11.dtd">
<svg width="107" height="140"
     xmlns="http://www.w3.org/2000/svg" version="1.1">
 <path d="  M 17,1  L 17,2  L 10,2  L 10,3  L 4,3  L 4,4  L 2,4  L 2,6  L 1,6  L 1,9  L 0,9  L 0,10  L 1,10  L 1,11  L 2,11  L 2,12  L 4,12  L 4,11  L 7,11  L 7,10  L 9,10  L 9,9  L 13,9  L 13,8  L 14,8  L 14,9  L 15,9  L 15,8  L 29,8  L 29,9  L 30,9  L 30,10  L 31,10  L 31,11  L 30,11  L 30,12  L 29,12  L 29,13  L 28,13  L 28,14  L 27,14  L 27,15  L 26,15  L 26,16  L 25,16  L 25,17  L 24,17  L 24,18  L 23,18  L 23,20  L 22,20  L 22,21  L 21,21  L 21,22  L 20,22  L 20,25  L 19,25  L 19,28  L 18,28  L 18,31  L 17,31  L 17,33  L 16,33  L 16,35  L 15,35  L 15,37  L 14,37  L 14,39  L 13,39  L 13,41  L 12,41  L 12,43  L 11,43  L 11,45  L 10,45  L 10,46  L 9,46  L 9,47  L 8,47  L 8,50  L 9,50  L 9,53  L 14,53  L 14,52  L 15,52  L 15,51  L 16,51  L 16,49  L 17,49  L 17,47  L 18,47  L 18,44  L 19,44  L 19,42  L 20,42  L 20,40  L 21,40  L 21,39  L 22,39  L 22,36  L 23,36  L 23,34  L 24,34  L 24,32  L 25,32  L 25,33  L 26,33  L 26,34  L 28,34  L 28,36  L 30,36  L 30,37  L 31,37  L 31,38  L 33,38  L 33,39  L 34,39  L 34,40  L 36,40  L 36,41  L 37,41  L 37,42  L 39,42  L 39,43  L 42,43  L 42,44  L 45,44  L 45,46  L 46,46  L 46,53  L 48,53  L 48,52  L 49,52  L 49,50  L 50,50  L 50,49  L 52,49  L 52,47  L 53,47  L 53,46  L 54,46  L 54,45  L 55,45  L 55,44  L 56,44  L 56,43  L 57,43  L 57,41  L 58,41  L 58,40  L 59,40  L 59,38  L 60,38  L 60,36  L 61,36  L 61,35  L 62,35  L 62,34  L 63,34  L 63,31  L 64,31  L 64,30  L 65,30  L 65,28  L 66,28  L 66,27  L 68,27  L 68,28  L 69,28  L 69,29  L 70,29  L 70,30  L 73,30  L 73,31  L 74,31  L 74,32  L 75,32  L 75,34  L 77,34  L 77,35  L 80,35  L 80,36  L 81,36  L 81,37  L 82,37  L 82,38  L 84,38  L 84,39  L 85,39  L 85,40  L 87,40  L 87,41  L 88,41  L 88,42  L 89,42  L 89,43  L 91,43  L 91,44  L 94,44  L 94,45  L 97,45  L 97,44  L 98,44  L 98,43  L 99,43  L 99,41  L 98,41  L 98,39  L 96,39  L 96,38  L 95,38  L 95,37  L 94,37  L 94,36  L 92,36  L 92,35  L 91,35  L 91,34  L 89,34  L 89,33  L 87,33  L 87,32  L 86,32  L 86,31  L 84,31  L 84,30  L 82,30  L 82,29  L 80,29  L 80,28  L 79,28  L 79,27  L 78,27  L 78,26  L 77,26  L 77,25  L 75,25  L 75,24  L 74,24  L 74,23  L 73,23  L 73,16  L 74,16  L 74,13  L 75,13  L 75,10  L 76,10  L 76,4  L 75,4  L 75,2  L 74,2  L 74,1  L 73,1  L 73,0  L 72,0  L 72,1  L 65,1  L 65,2  L 64,2  L 64,1  L 61,1  L 61,2  L 60,2  L 60,1  L 58,1  L 58,2  L 51,2  L 51,1  L 48,1  L 48,2  L 46,2  L 46,3  L 44,3  L 44,4  L 43,4  L 43,7  L 44,7  L 44,8  L 46,8  L 46,9  L 50,9  L 50,8  L 68,8  L 68,9  L 69,9  L 69,10  L 68,10  L 68,12  L 67,12  L 67,14  L 66,14  L 66,15  L 65,15  L 65,16  L 64,16  L 64,17  L 63,17  L 63,19  L 62,19  L 62,22  L 61,22  L 61,24  L 60,24  L 60,25  L 59,25  L 59,27  L 58,27  L 58,28  L 57,28  L 57,30  L 56,30  L 56,32  L 55,32  L 55,34  L 54,34  L 54,35  L 53,35  L 53,37  L 52,37  L 52,39  L 50,39  L 50,40  L 49,40  L 49,41  L 48,41  L 48,40  L 47,40  L 47,39  L 46,39  L 46,38  L 44,38  L 44,37  L 42,37  L 42,36  L 41,36  L 41,35  L 39,35  L 39,34  L 38,34  L 38,33  L 35,33  L 35,32  L 34,32  L 34,31  L 32,31  L 32,29  L 31,29  L 31,28  L 30,28  L 30,27  L 29,27  L 29,26  L 28,26  L 28,24  L 27,24  L 27,22  L 28,22  L 28,21  L 30,21  L 30,20  L 31,20  L 31,19  L 32,19  L 32,18  L 33,18  L 33,17  L 34,17  L 34,15  L 35,15  L 35,12  L 36,12  L 36,11  L 35,11  L 35,10  L 36,10  L 36,8  L 37,8  L 37,7  L 39,7  L 39,6  L 40,6  L 40,4  L 38,4  L 38,3  L 37,3  L 37,2  L 36,2  L 36,1  L 35,1  L 35,0  L 34,0  L 34,1  L 33,1  L 33,0  L 32,0  L 32,1  Z  " style="fill:rgb(0, 0, 0); fill-opacity:1.000; stroke:none;" />
 <path d="  M 99,62  L 98,62  L 98,63  L 93,63  L 93,64  L 91,64  L 91,63  L 90,63  L 90,64  L 83,64  L 83,65  L 48,65  L 48,66  L 47,66  L 47,65  L 45,65  L 45,66  L 30,66  L 30,67  L 22,67  L 22,68  L 16,68  L 16,69  L 10,69  L 10,70  L 5,70  L 5,71  L 1,71  L 1,73  L 0,73  L 0,74  L 1,74  L 1,76  L 6,76  L 6,77  L 7,77  L 7,76  L 11,76  L 11,75  L 12,75  L 12,76  L 13,76  L 13,75  L 24,75  L 24,74  L 30,74  L 30,73  L 35,73  L 35,72  L 36,72  L 36,73  L 37,73  L 37,72  L 58,72  L 58,71  L 59,71  L 59,72  L 62,72  L 62,71  L 65,71  L 65,72  L 66,72  L 66,71  L 69,71  L 69,72  L 70,72  L 70,71  L 87,71  L 87,70  L 88,70  L 88,71  L 89,71  L 89,70  L 90,70  L 90,71  L 91,71  L 91,70  L 103,70  L 103,69  L 104,69  L 104,70  L 105,70  L 105,69  L 107,69  L 107,62  L 100,62  L 100,63  L 99,63  Z  " style="fill:rgb(0, 0, 0); fill-opacity:1.000; stroke:none;" />
 <path d="  M 20,92  L 20,93  L 19,93  L 19,94  L 18,94  L 18,97  L 17,97  L 17,98  L 18,98  L 18,99  L 19,99  L 19,100  L 23,100  L 23,99  L 25,99  L 25,100  L 26,100  L 26,131  L 25,131  L 25,132  L 26,132  L 26,134  L 25,134  L 25,135  L 26,135  L 26,138  L 27,138  L 27,139  L 29,139  L 29,140  L 55,140  L 55,139  L 59,139  L 59,138  L 63,138  L 63,137  L 67,137  L 67,136  L 71,136  L 71,135  L 74,135  L 74,134  L 76,134  L 76,133  L 77,133  L 77,132  L 78,132  L 78,131  L 79,131  L 79,128  L 80,128  L 80,125  L 81,125  L 81,120  L 82,120  L 82,117  L 83,117  L 83,112  L 84,112  L 84,108  L 85,108  L 85,107  L 84,107  L 84,105  L 85,105  L 85,100  L 86,100  L 86,92  L 84,92  L 84,91  L 83,91  L 83,90  L 81,90  L 81,89  L 79,89  L 79,88  L 70,88  L 70,89  L 62,89  L 62,90  L 56,90  L 56,91  L 55,91  L 55,90  L 53,90  L 53,91  L 45,91  L 45,92  L 43,92  L 43,91  L 42,91  L 42,92  L 37,92  L 37,91  L 33,91  L 33,90  L 31,90  L 31,89  L 27,89  L 27,90  L 26,90  L 26,91  L 25,91  L 25,92  Z  M 59,97  L 59,96  L 67,96  L 67,95  L 74,95  L 74,94  L 76,94  L 76,95  L 79,95  L 79,99  L 78,99  L 78,107  L 77,107  L 77,113  L 76,113  L 76,118  L 75,118  L 75,121  L 74,121  L 74,124  L 73,124  L 73,128  L 72,128  L 72,129  L 71,129  L 71,130  L 68,130  L 68,131  L 64,131  L 64,132  L 63,132  L 63,131  L 62,131  L 62,132  L 59,132  L 59,133  L 54,133  L 54,134  L 49,134  L 49,135  L 41,135  L 41,136  L 40,136  L 40,135  L 38,135  L 38,136  L 36,136  L 36,135  L 34,135  L 34,134  L 33,134  L 33,112  L 34,112  L 34,111  L 33,111  L 33,108  L 34,108  L 34,107  L 33,107  L 33,100  L 34,100  L 34,99  L 35,99  L 35,98  L 49,98  L 49,97  Z  " style="fill:rgb(0, 0, 0); fill-opacity:1.000; stroke:none;" />
</svg>
