<?xml version="1.0" encoding="UTF-8" standalone="no"?>
<!DOCTYPE svg PUBLIC "-//W3C//DTD SVG 1.1//EN" 
  "http://www.w3.org/Graphics/SVG/1.1/DTD/svg11.dtd">
<svg width="109" height="155"
     xmlns="http://www.w3.org/2000/svg" version="1.1">
 <path d="  M 36,72  L 36,73  L 24,73  L 24,74  L 23,74  L 23,73  L 22,73  L 22,74  L 19,74  L 19,73  L 18,73  L 18,74  L 11,74  L 11,75  L 9,75  L 9,74  L 8,74  L 8,75  L 1,75  L 1,77  L 0,77  L 0,78  L 1,78  L 1,80  L 3,80  L 3,81  L 5,81  L 5,82  L 23,82  L 23,81  L 25,81  L 25,82  L 26,82  L 26,81  L 29,81  L 29,82  L 30,82  L 30,81  L 40,81  L 40,80  L 42,80  L 42,81  L 43,81  L 43,80  L 46,80  L 46,81  L 47,81  L 47,80  L 50,80  L 50,81  L 51,81  L 51,80  L 63,80  L 63,79  L 64,79  L 64,80  L 65,80  L 65,79  L 66,79  L 66,80  L 67,80  L 67,79  L 68,79  L 68,80  L 69,80  L 69,79  L 79,79  L 79,78  L 80,78  L 80,79  L 81,79  L 81,78  L 108,78  L 108,77  L 109,77  L 109,70  L 107,70  L 107,69  L 106,69  L 106,70  L 97,70  L 97,71  L 66,71  L 66,72  L 63,72  L 63,71  L 62,71  L 62,72  Z  " style="fill:rgb(0, 0, 0); fill-opacity:1.000; stroke:none;" />
 <path d="  M 22,47  L 22,45  L 23,45  L 23,43  L 24,43  L 24,42  L 25,42  L 25,39  L 26,39  L 26,36  L 28,36  L 28,37  L 30,37  L 30,38  L 31,38  L 31,39  L 32,39  L 32,40  L 33,40  L 33,41  L 36,41  L 36,42  L 37,42  L 37,43  L 39,43  L 39,44  L 40,44  L 40,45  L 41,45  L 41,46  L 43,46  L 43,47  L 44,47  L 44,48  L 45,48  L 45,49  L 46,49  L 46,48  L 47,48  L 47,49  L 49,49  L 49,56  L 50,56  L 50,58  L 49,58  L 49,59  L 50,59  L 50,60  L 51,60  L 51,59  L 52,59  L 52,56  L 53,56  L 53,55  L 54,55  L 54,53  L 55,53  L 55,52  L 56,52  L 56,50  L 58,50  L 58,49  L 59,49  L 59,47  L 60,47  L 60,46  L 61,46  L 61,45  L 62,45  L 62,44  L 63,44  L 63,43  L 64,43  L 64,41  L 65,41  L 65,39  L 66,39  L 66,37  L 67,37  L 67,36  L 68,36  L 68,34  L 69,34  L 69,33  L 70,33  L 70,32  L 71,32  L 71,33  L 72,33  L 72,34  L 74,34  L 74,35  L 75,35  L 75,36  L 76,36  L 76,37  L 78,37  L 78,39  L 79,39  L 79,41  L 81,41  L 81,42  L 83,42  L 83,43  L 84,43  L 84,44  L 85,44  L 85,45  L 86,45  L 86,46  L 87,46  L 87,47  L 88,47  L 88,48  L 89,48  L 89,49  L 91,49  L 91,50  L 95,50  L 95,49  L 96,49  L 96,47  L 97,47  L 97,46  L 96,46  L 96,45  L 95,45  L 95,44  L 94,44  L 94,43  L 93,43  L 93,42  L 92,42  L 92,41  L 91,41  L 91,40  L 90,40  L 90,39  L 89,39  L 89,38  L 88,38  L 88,37  L 86,37  L 86,36  L 85,36  L 85,35  L 84,35  L 84,34  L 83,34  L 83,32  L 82,32  L 82,31  L 81,31  L 81,30  L 80,30  L 80,29  L 79,29  L 79,28  L 78,28  L 78,27  L 77,27  L 77,19  L 78,19  L 78,16  L 79,16  L 79,15  L 80,15  L 80,13  L 81,13  L 81,8  L 80,8  L 80,5  L 79,5  L 79,4  L 78,4  L 78,2  L 77,2  L 77,1  L 63,1  L 63,2  L 53,2  L 53,3  L 51,3  L 51,4  L 50,4  L 50,9  L 63,9  L 63,8  L 64,8  L 64,9  L 67,9  L 67,8  L 68,8  L 68,9  L 70,9  L 70,8  L 73,8  L 73,9  L 74,9  L 74,12  L 73,12  L 73,13  L 72,13  L 72,15  L 71,15  L 71,17  L 70,17  L 70,19  L 69,19  L 69,21  L 68,21  L 68,23  L 67,23  L 67,25  L 66,25  L 66,27  L 65,27  L 65,30  L 64,30  L 64,31  L 63,31  L 63,32  L 62,32  L 62,33  L 61,33  L 61,34  L 60,34  L 60,36  L 59,36  L 59,38  L 58,38  L 58,40  L 57,40  L 57,42  L 56,42  L 56,43  L 55,43  L 55,45  L 54,45  L 54,46  L 52,46  L 52,45  L 50,45  L 50,43  L 47,43  L 47,42  L 46,42  L 46,41  L 45,41  L 45,40  L 44,40  L 44,39  L 43,39  L 43,38  L 41,38  L 41,37  L 40,37  L 40,36  L 38,36  L 38,35  L 37,35  L 37,34  L 36,34  L 36,33  L 35,33  L 35,32  L 34,32  L 34,30  L 33,30  L 33,29  L 31,29  L 31,27  L 32,27  L 32,26  L 33,26  L 33,24  L 34,24  L 34,23  L 35,23  L 35,21  L 36,21  L 36,19  L 37,19  L 37,17  L 38,17  L 38,15  L 39,15  L 39,13  L 40,13  L 40,11  L 41,11  L 41,6  L 42,6  L 42,5  L 41,5  L 41,3  L 40,3  L 40,2  L 38,2  L 38,1  L 33,1  L 33,2  L 26,2  L 26,3  L 17,3  L 17,4  L 12,4  L 12,5  L 7,5  L 7,6  L 5,6  L 5,12  L 6,12  L 6,13  L 11,13  L 11,12  L 13,12  L 13,11  L 15,11  L 15,10  L 19,10  L 19,9  L 33,9  L 33,12  L 32,12  L 32,14  L 31,14  L 31,16  L 30,16  L 30,17  L 29,17  L 29,18  L 28,18  L 28,19  L 27,19  L 27,20  L 26,20  L 26,22  L 25,22  L 25,24  L 24,24  L 24,27  L 23,27  L 23,29  L 22,29  L 22,31  L 21,31  L 21,33  L 20,33  L 20,35  L 19,35  L 19,38  L 18,38  L 18,40  L 17,40  L 17,42  L 16,42  L 16,45  L 15,45  L 15,47  L 14,47  L 14,48  L 13,48  L 13,50  L 12,50  L 12,51  L 11,51  L 11,53  L 10,53  L 10,54  L 11,54  L 11,56  L 12,56  L 12,57  L 13,57  L 13,58  L 16,58  L 16,57  L 17,57  L 17,55  L 18,55  L 18,53  L 19,53  L 19,51  L 20,51  L 20,50  L 21,50  L 21,47  Z  " style="fill:rgb(0, 0, 0); fill-opacity:1.000; stroke:none;" />
 <path d="  M 38,154  L 38,155  L 61,155  L 61,154  L 62,154  L 62,153  L 64,153  L 64,152  L 66,152  L 66,151  L 67,151  L 67,150  L 69,150  L 69,149  L 70,149  L 70,148  L 71,148  L 71,147  L 73,147  L 73,146  L 74,146  L 74,145  L 75,145  L 75,144  L 76,144  L 76,142  L 77,142  L 77,141  L 78,141  L 78,140  L 79,140  L 79,138  L 80,138  L 80,136  L 81,136  L 81,134  L 82,134  L 82,131  L 83,131  L 83,127  L 84,127  L 84,126  L 83,126  L 83,125  L 84,125  L 84,124  L 83,124  L 83,119  L 82,119  L 82,117  L 81,117  L 81,116  L 79,116  L 79,115  L 78,115  L 78,113  L 77,113  L 77,112  L 75,112  L 75,111  L 74,111  L 74,109  L 71,109  L 71,108  L 68,108  L 68,107  L 67,107  L 67,106  L 64,106  L 64,105  L 62,105  L 62,104  L 61,104  L 61,103  L 60,103  L 60,102  L 59,102  L 59,101  L 57,101  L 57,100  L 56,100  L 56,99  L 55,99  L 55,98  L 54,98  L 54,97  L 53,97  L 53,98  L 50,98  L 50,99  L 48,99  L 48,100  L 47,100  L 47,102  L 46,102  L 46,103  L 43,103  L 43,104  L 42,104  L 42,105  L 41,105  L 41,106  L 40,106  L 40,107  L 39,107  L 39,108  L 38,108  L 38,109  L 37,109  L 37,110  L 36,110  L 36,111  L 35,111  L 35,113  L 34,113  L 34,114  L 33,114  L 33,116  L 32,116  L 32,117  L 31,117  L 31,119  L 30,119  L 30,120  L 29,120  L 29,121  L 28,121  L 28,123  L 27,123  L 27,125  L 26,125  L 26,127  L 25,127  L 25,130  L 24,130  L 24,132  L 23,132  L 23,143  L 24,143  L 24,145  L 25,145  L 25,148  L 27,148  L 27,149  L 28,149  L 28,150  L 29,150  L 29,151  L 30,151  L 30,152  L 32,152  L 32,153  L 34,153  L 34,154  Z  M 75,124  L 76,124  L 76,125  L 75,125  L 75,126  L 76,126  L 76,127  L 75,127  L 75,128  L 76,128  L 76,129  L 75,129  L 75,132  L 74,132  L 74,135  L 73,135  L 73,136  L 72,136  L 72,138  L 71,138  L 71,139  L 70,139  L 70,140  L 69,140  L 69,141  L 67,141  L 67,142  L 66,142  L 66,143  L 65,143  L 65,144  L 63,144  L 63,145  L 62,145  L 62,146  L 60,146  L 60,147  L 54,147  L 54,148  L 51,148  L 51,147  L 50,147  L 50,148  L 47,148  L 47,147  L 46,147  L 46,148  L 43,148  L 43,147  L 37,147  L 37,146  L 35,146  L 35,145  L 33,145  L 33,144  L 31,144  L 31,140  L 30,140  L 30,138  L 31,138  L 31,134  L 32,134  L 32,131  L 33,131  L 33,129  L 34,129  L 34,126  L 35,126  L 35,125  L 36,125  L 36,123  L 37,123  L 37,122  L 38,122  L 38,120  L 39,120  L 39,119  L 40,119  L 40,117  L 41,117  L 41,116  L 42,116  L 42,115  L 43,115  L 43,114  L 45,114  L 45,113  L 47,113  L 47,112  L 48,112  L 48,111  L 52,111  L 52,110  L 55,110  L 55,111  L 58,111  L 58,112  L 60,112  L 60,113  L 64,113  L 64,114  L 66,114  L 66,115  L 68,115  L 68,116  L 70,116  L 70,117  L 71,117  L 71,118  L 73,118  L 73,120  L 74,120  L 74,121  L 75,121  Z  " style="fill:rgb(0, 0, 0); fill-opacity:1.000; stroke:none;" />
</svg>
