<?xml version="1.0" encoding="UTF-8" standalone="no"?>
<!DOCTYPE svg PUBLIC "-//W3C//DTD SVG 1.1//EN" 
  "http://www.w3.org/Graphics/SVG/1.1/DTD/svg11.dtd">
<svg width="101" height="153"
     xmlns="http://www.w3.org/2000/svg" version="1.1">
 <path d="  M 36,17  L 35,17  L 35,16  L 36,16  L 36,13  L 35,13  L 35,11  L 34,11  L 34,10  L 30,10  L 30,11  L 27,11  L 27,12  L 20,12  L 20,13  L 19,13  L 19,12  L 18,12  L 18,13  L 10,13  L 10,14  L 9,14  L 9,13  L 8,13  L 8,14  L 5,14  L 5,15  L 3,15  L 3,19  L 2,19  L 2,20  L 3,20  L 3,21  L 4,21  L 4,22  L 5,22  L 5,21  L 7,21  L 7,20  L 9,20  L 9,19  L 15,19  L 15,18  L 17,18  L 17,19  L 19,19  L 19,18  L 21,18  L 21,19  L 22,19  L 22,18  L 26,18  L 26,17  L 28,17  L 28,18  L 29,18  L 29,25  L 28,25  L 28,28  L 27,28  L 27,30  L 26,30  L 26,32  L 25,32  L 25,34  L 24,34  L 24,35  L 23,35  L 23,36  L 22,36  L 22,37  L 20,37  L 20,38  L 19,38  L 19,39  L 18,39  L 18,40  L 17,40  L 17,41  L 16,41  L 16,42  L 15,42  L 15,44  L 14,44  L 14,45  L 13,45  L 13,46  L 12,46  L 12,48  L 11,48  L 11,50  L 9,50  L 9,52  L 8,52  L 8,53  L 7,53  L 7,55  L 6,55  L 6,57  L 5,57  L 5,58  L 3,58  L 3,60  L 1,60  L 1,62  L 0,62  L 0,65  L 1,65  L 1,67  L 2,67  L 2,68  L 5,68  L 5,67  L 6,67  L 6,66  L 7,66  L 7,65  L 8,65  L 8,64  L 9,64  L 9,62  L 10,62  L 10,60  L 12,60  L 12,58  L 13,58  L 13,56  L 14,56  L 14,55  L 15,55  L 15,54  L 16,54  L 16,50  L 17,50  L 17,51  L 18,51  L 18,50  L 21,50  L 21,51  L 22,51  L 22,52  L 23,52  L 23,53  L 25,53  L 25,54  L 27,54  L 27,55  L 28,55  L 28,56  L 30,56  L 30,57  L 31,57  L 31,58  L 32,58  L 32,59  L 34,59  L 34,60  L 35,60  L 35,61  L 37,61  L 37,62  L 38,62  L 38,63  L 43,63  L 43,62  L 44,62  L 44,60  L 45,60  L 45,58  L 44,58  L 44,56  L 43,56  L 43,55  L 40,55  L 40,54  L 38,54  L 38,53  L 35,53  L 35,52  L 34,52  L 34,51  L 33,51  L 33,50  L 31,50  L 31,49  L 30,49  L 30,48  L 29,48  L 29,47  L 28,47  L 28,46  L 27,46  L 27,45  L 26,45  L 26,44  L 25,44  L 25,42  L 24,42  L 24,40  L 26,40  L 26,39  L 27,39  L 27,38  L 28,38  L 28,37  L 29,37  L 29,36  L 30,36  L 30,35  L 31,35  L 31,34  L 32,34  L 32,32  L 33,32  L 33,31  L 34,31  L 34,30  L 35,30  L 35,27  L 36,27  L 36,25  L 37,25  L 37,19  L 36,19  Z  " style="fill:rgb(0, 0, 0); fill-opacity:1.000; stroke:none;" />
 <path d="  M 78,132  L 77,132  L 77,148  L 76,148  L 76,150  L 77,150  L 77,153  L 83,153  L 83,152  L 84,152  L 84,147  L 85,147  L 85,122  L 86,122  L 86,119  L 87,119  L 87,116  L 88,116  L 88,112  L 89,112  L 89,108  L 88,108  L 88,105  L 87,105  L 87,102  L 85,102  L 85,101  L 83,101  L 83,100  L 81,100  L 81,99  L 78,99  L 78,98  L 74,98  L 74,97  L 56,97  L 56,98  L 46,98  L 46,99  L 41,99  L 41,100  L 39,100  L 39,101  L 38,101  L 38,105  L 40,105  L 40,106  L 45,106  L 45,105  L 56,105  L 56,104  L 74,104  L 74,105  L 78,105  L 78,106  L 79,106  L 79,107  L 80,107  L 80,108  L 81,108  L 81,109  L 82,109  L 82,113  L 81,113  L 81,116  L 80,116  L 80,119  L 79,119  L 79,124  L 78,124  Z  " style="fill:rgb(0, 0, 0); fill-opacity:1.000; stroke:none;" />
 <path d="  M 67,21  L 67,24  L 66,24  L 66,25  L 65,25  L 65,26  L 64,26  L 64,27  L 63,27  L 63,30  L 62,30  L 62,31  L 61,31  L 61,33  L 60,33  L 60,37  L 59,37  L 59,39  L 58,39  L 58,42  L 57,42  L 57,45  L 56,45  L 56,47  L 55,47  L 55,49  L 54,49  L 54,52  L 53,52  L 53,54  L 52,54  L 52,56  L 51,56  L 51,58  L 50,58  L 50,59  L 49,59  L 49,60  L 48,60  L 48,62  L 47,62  L 47,64  L 46,64  L 46,65  L 45,65  L 45,66  L 44,66  L 44,67  L 43,67  L 43,68  L 42,68  L 42,70  L 41,70  L 41,72  L 40,72  L 40,74  L 41,74  L 41,77  L 42,77  L 42,78  L 43,78  L 43,79  L 46,79  L 46,75  L 47,75  L 47,74  L 48,74  L 48,73  L 49,73  L 49,71  L 50,71  L 50,70  L 51,70  L 51,68  L 52,68  L 52,67  L 53,67  L 53,66  L 54,66  L 54,64  L 55,64  L 55,63  L 56,63  L 56,62  L 57,62  L 57,60  L 58,60  L 58,58  L 61,58  L 61,59  L 62,59  L 62,60  L 63,60  L 63,61  L 64,61  L 64,62  L 65,62  L 65,63  L 66,63  L 66,64  L 67,64  L 67,65  L 68,65  L 68,66  L 69,66  L 69,67  L 70,67  L 70,69  L 71,69  L 71,70  L 72,70  L 72,71  L 73,71  L 73,73  L 74,73  L 74,75  L 75,75  L 75,77  L 76,77  L 76,78  L 78,78  L 78,79  L 79,79  L 79,78  L 81,78  L 81,77  L 82,77  L 82,74  L 83,74  L 83,73  L 82,73  L 82,72  L 81,72  L 81,71  L 80,71  L 80,70  L 79,70  L 79,69  L 78,69  L 78,67  L 77,67  L 77,66  L 76,66  L 76,65  L 75,65  L 75,63  L 74,63  L 74,62  L 73,62  L 73,61  L 72,61  L 72,60  L 71,60  L 71,59  L 70,59  L 70,58  L 69,58  L 69,57  L 68,57  L 68,56  L 67,56  L 67,54  L 66,54  L 66,53  L 64,53  L 64,51  L 63,51  L 63,49  L 62,49  L 62,46  L 63,46  L 63,43  L 64,43  L 64,41  L 65,41  L 65,40  L 66,40  L 66,38  L 67,38  L 67,34  L 68,34  L 68,33  L 69,33  L 69,30  L 70,30  L 70,29  L 71,29  L 71,27  L 72,27  L 72,25  L 73,25  L 73,24  L 74,24  L 74,23  L 75,23  L 75,22  L 76,22  L 76,18  L 75,18  L 75,17  L 73,17  L 73,16  L 69,16  L 69,15  L 42,15  L 42,17  L 41,17  L 41,20  L 42,20  L 42,22  L 45,22  L 45,21  L 46,21  L 46,22  L 48,22  L 48,21  L 51,21  L 51,22  L 52,22  L 52,21  L 55,21  L 55,22  L 56,22  L 56,21  L 59,21  L 59,22  L 60,22  L 60,21  Z  " style="fill:rgb(0, 0, 0); fill-opacity:1.000; stroke:none;" />
 <path d="  M 101,28  L 100,28  L 100,21  L 99,21  L 99,20  L 100,20  L 100,19  L 99,19  L 99,12  L 98,12  L 98,10  L 99,10  L 99,9  L 98,9  L 98,2  L 96,2  L 96,1  L 95,1  L 95,0  L 92,0  L 92,1  L 90,1  L 90,2  L 91,2  L 91,6  L 92,6  L 92,14  L 93,14  L 93,23  L 94,23  L 94,30  L 95,30  L 95,31  L 94,31  L 94,32  L 95,32  L 95,42  L 96,42  L 96,45  L 95,45  L 95,46  L 96,46  L 96,61  L 95,61  L 95,62  L 96,62  L 96,65  L 95,65  L 95,66  L 96,66  L 96,68  L 95,68  L 95,71  L 96,71  L 96,72  L 95,72  L 95,79  L 96,79  L 96,81  L 95,81  L 95,83  L 96,83  L 96,85  L 95,85  L 95,91  L 96,91  L 96,92  L 99,92  L 99,91  L 101,91  Z  " style="fill:rgb(0, 0, 0); fill-opacity:1.000; stroke:none;" />
</svg>
