<?xml version="1.0" encoding="UTF-8" standalone="no"?>
<!DOCTYPE svg PUBLIC "-//W3C//DTD SVG 1.1//EN" 
  "http://www.w3.org/Graphics/SVG/1.1/DTD/svg11.dtd">
<svg width="100" height="143"
     xmlns="http://www.w3.org/2000/svg" version="1.1">
 <path d="  M 72,58  L 71,58  L 71,57  L 70,57  L 70,56  L 69,56  L 69,55  L 68,55  L 68,54  L 67,54  L 67,53  L 66,53  L 66,52  L 65,52  L 65,50  L 64,50  L 64,49  L 63,49  L 63,47  L 62,47  L 62,43  L 63,43  L 63,40  L 64,40  L 64,38  L 65,38  L 65,36  L 66,36  L 66,33  L 67,33  L 67,32  L 68,32  L 68,30  L 69,30  L 69,28  L 70,28  L 70,27  L 71,27  L 71,25  L 72,25  L 72,24  L 73,24  L 73,22  L 74,22  L 74,21  L 75,21  L 75,20  L 76,20  L 76,19  L 75,19  L 75,17  L 74,17  L 74,16  L 73,16  L 73,15  L 72,15  L 72,14  L 70,14  L 70,13  L 64,13  L 64,12  L 63,12  L 63,13  L 42,13  L 42,14  L 41,14  L 41,17  L 42,17  L 42,19  L 44,19  L 44,20  L 45,20  L 45,19  L 48,19  L 48,20  L 49,20  L 49,19  L 52,19  L 52,20  L 53,20  L 53,19  L 68,19  L 68,21  L 67,21  L 67,22  L 66,22  L 66,23  L 65,23  L 65,25  L 64,25  L 64,26  L 63,26  L 63,27  L 62,27  L 62,30  L 61,30  L 61,31  L 60,31  L 60,34  L 59,34  L 59,35  L 58,35  L 58,39  L 57,39  L 57,42  L 56,42  L 56,45  L 55,45  L 55,48  L 54,48  L 54,50  L 53,50  L 53,53  L 52,53  L 52,54  L 51,54  L 51,56  L 50,56  L 50,57  L 48,57  L 48,59  L 47,59  L 47,60  L 46,60  L 46,58  L 45,58  L 45,56  L 44,56  L 44,55  L 42,55  L 42,54  L 40,54  L 40,53  L 38,53  L 38,52  L 36,52  L 36,51  L 35,51  L 35,50  L 33,50  L 33,49  L 31,49  L 31,48  L 30,48  L 30,47  L 29,47  L 29,46  L 28,46  L 28,45  L 27,45  L 27,44  L 26,44  L 26,42  L 25,42  L 25,38  L 27,38  L 27,37  L 28,37  L 28,36  L 29,36  L 29,35  L 30,35  L 30,34  L 31,34  L 31,33  L 32,33  L 32,31  L 33,31  L 33,30  L 34,30  L 34,29  L 35,29  L 35,28  L 36,28  L 36,26  L 37,26  L 37,23  L 38,23  L 38,18  L 37,18  L 37,16  L 36,16  L 36,11  L 35,11  L 35,9  L 31,9  L 31,10  L 25,10  L 25,11  L 13,11  L 13,12  L 6,12  L 6,13  L 4,13  L 4,14  L 3,14  L 3,18  L 4,18  L 4,19  L 5,19  L 5,20  L 6,20  L 6,19  L 8,19  L 8,18  L 12,18  L 12,17  L 30,17  L 30,25  L 29,25  L 29,27  L 28,27  L 28,29  L 27,29  L 27,31  L 26,31  L 26,32  L 25,32  L 25,33  L 23,33  L 23,35  L 20,35  L 20,36  L 19,36  L 19,37  L 18,37  L 18,39  L 16,39  L 16,42  L 15,42  L 15,44  L 14,44  L 14,45  L 13,45  L 13,47  L 12,47  L 12,48  L 11,48  L 11,49  L 10,49  L 10,51  L 9,51  L 9,52  L 8,52  L 8,54  L 7,54  L 7,55  L 6,55  L 6,56  L 5,56  L 5,57  L 4,57  L 4,58  L 3,58  L 3,59  L 2,59  L 2,60  L 0,60  L 0,63  L 1,63  L 1,65  L 2,65  L 2,66  L 3,66  L 3,67  L 4,67  L 4,66  L 6,66  L 6,65  L 7,65  L 7,64  L 8,64  L 8,63  L 9,63  L 9,62  L 10,62  L 10,60  L 11,60  L 11,59  L 12,59  L 12,58  L 13,58  L 13,57  L 14,57  L 14,55  L 15,55  L 15,53  L 17,53  L 17,49  L 21,49  L 21,50  L 23,50  L 23,51  L 24,51  L 24,52  L 26,52  L 26,53  L 27,53  L 27,54  L 28,54  L 28,55  L 31,55  L 31,56  L 32,56  L 32,57  L 33,57  L 33,58  L 35,58  L 35,59  L 36,59  L 36,60  L 38,60  L 38,61  L 39,61  L 39,63  L 41,63  L 41,65  L 39,65  L 39,68  L 38,68  L 38,72  L 39,72  L 39,74  L 42,74  L 42,75  L 43,75  L 43,74  L 45,74  L 45,72  L 47,72  L 47,69  L 48,69  L 48,68  L 49,68  L 49,67  L 50,67  L 50,66  L 51,66  L 51,65  L 52,65  L 52,63  L 53,63  L 53,62  L 55,62  L 55,60  L 56,60  L 56,58  L 57,58  L 57,57  L 58,57  L 58,56  L 60,56  L 60,57  L 62,57  L 62,58  L 63,58  L 63,59  L 64,59  L 64,60  L 65,60  L 65,61  L 66,61  L 66,62  L 67,62  L 67,63  L 68,63  L 68,64  L 69,64  L 69,65  L 70,65  L 70,67  L 71,67  L 71,68  L 72,68  L 72,70  L 73,70  L 73,71  L 74,71  L 74,73  L 75,73  L 75,74  L 78,74  L 78,75  L 79,75  L 79,74  L 81,74  L 81,70  L 80,70  L 80,67  L 79,67  L 79,66  L 78,66  L 78,65  L 77,65  L 77,63  L 76,63  L 76,62  L 75,62  L 75,61  L 74,61  L 74,60  L 73,60  L 73,59  L 72,59  Z  " style="fill:rgb(0, 0, 0); fill-opacity:1.000; stroke:none;" />
 <path d="  M 93,99  L 93,113  L 92,113  L 92,121  L 91,121  L 91,124  L 90,124  L 90,125  L 91,125  L 91,126  L 90,126  L 90,131  L 89,131  L 89,136  L 87,136  L 87,137  L 63,137  L 63,138  L 62,138  L 62,137  L 59,137  L 59,138  L 58,138  L 58,137  L 56,137  L 56,138  L 54,138  L 54,137  L 51,137  L 51,138  L 50,138  L 50,137  L 49,137  L 49,138  L 48,138  L 48,137  L 45,137  L 45,134  L 44,134  L 44,112  L 45,112  L 45,111  L 44,111  L 44,108  L 45,108  L 45,107  L 44,107  L 44,103  L 45,103  L 45,101  L 49,101  L 49,100  L 62,100  L 62,99  Z  M 38,132  L 39,132  L 39,138  L 40,138  L 40,140  L 41,140  L 41,141  L 42,141  L 42,142  L 44,142  L 44,143  L 89,143  L 89,142  L 91,142  L 91,141  L 94,141  L 94,140  L 95,140  L 95,136  L 96,136  L 96,135  L 95,135  L 95,134  L 96,134  L 96,133  L 95,133  L 95,132  L 96,132  L 96,126  L 97,126  L 97,119  L 98,119  L 98,114  L 99,114  L 99,105  L 100,105  L 100,97  L 99,97  L 99,95  L 98,95  L 98,94  L 96,94  L 96,93  L 63,93  L 63,94  L 62,94  L 62,93  L 59,93  L 59,94  L 58,94  L 58,93  L 56,93  L 56,94  L 36,94  L 36,95  L 34,95  L 34,94  L 33,94  L 33,95  L 32,95  L 32,96  L 30,96  L 30,98  L 29,98  L 29,99  L 30,99  L 30,101  L 39,101  L 39,104  L 38,104  Z  " style="fill:rgb(0, 0, 0); fill-opacity:1.000; stroke:none;" />
 <path d="  M 95,74  L 94,74  L 94,75  L 95,75  L 95,77  L 94,77  L 94,79  L 95,79  L 95,81  L 94,81  L 94,82  L 95,82  L 95,84  L 96,84  L 96,85  L 99,85  L 99,84  L 100,84  L 100,23  L 99,23  L 99,15  L 98,15  L 98,10  L 97,10  L 97,3  L 96,3  L 96,2  L 95,2  L 95,1  L 94,1  L 94,0  L 92,0  L 92,2  L 91,2  L 91,10  L 92,10  L 92,16  L 93,16  L 93,24  L 94,24  L 94,35  L 95,35  Z  " style="fill:rgb(0, 0, 0); fill-opacity:1.000; stroke:none;" />
</svg>
