<?xml version="1.0" encoding="UTF-8" standalone="no"?>
<!DOCTYPE svg PUBLIC "-//W3C//DTD SVG 1.1//EN" 
  "http://www.w3.org/Graphics/SVG/1.1/DTD/svg11.dtd">
<svg width="103" height="149"
     xmlns="http://www.w3.org/2000/svg" version="1.1">
 <path d="  M 26,43  L 26,41  L 25,41  L 25,40  L 27,40  L 27,39  L 28,39  L 28,38  L 29,38  L 29,37  L 30,37  L 30,36  L 31,36  L 31,35  L 32,35  L 32,34  L 33,34  L 33,31  L 34,31  L 34,30  L 35,30  L 35,29  L 36,29  L 36,26  L 37,26  L 37,24  L 38,24  L 38,19  L 37,19  L 37,13  L 36,13  L 36,11  L 34,11  L 34,10  L 32,10  L 32,11  L 26,11  L 26,12  L 16,12  L 16,13  L 10,13  L 10,14  L 6,14  L 6,15  L 5,15  L 5,17  L 4,17  L 4,20  L 5,20  L 5,21  L 6,21  L 6,22  L 7,22  L 7,21  L 9,21  L 9,20  L 10,20  L 10,19  L 13,19  L 13,18  L 14,18  L 14,19  L 15,19  L 15,18  L 28,18  L 28,17  L 30,17  L 30,20  L 31,20  L 31,21  L 30,21  L 30,27  L 29,27  L 29,29  L 28,29  L 28,31  L 27,31  L 27,33  L 26,33  L 26,34  L 25,34  L 25,35  L 24,35  L 24,36  L 22,36  L 22,37  L 21,37  L 21,38  L 20,38  L 20,39  L 19,39  L 19,41  L 18,41  L 18,42  L 17,42  L 17,45  L 16,45  L 16,46  L 15,46  L 15,47  L 14,47  L 14,49  L 13,49  L 13,50  L 12,50  L 12,51  L 11,51  L 11,52  L 10,52  L 10,54  L 9,54  L 9,56  L 8,56  L 8,57  L 7,57  L 7,58  L 6,58  L 6,59  L 5,59  L 5,60  L 4,60  L 4,62  L 3,62  L 3,63  L 2,63  L 2,64  L 1,64  L 1,69  L 2,69  L 2,70  L 6,70  L 6,69  L 7,69  L 7,67  L 8,67  L 8,65  L 9,65  L 9,64  L 10,64  L 10,63  L 11,63  L 11,62  L 12,62  L 12,60  L 14,60  L 14,58  L 15,58  L 15,56  L 16,56  L 16,55  L 17,55  L 17,54  L 18,54  L 18,50  L 23,50  L 23,51  L 25,51  L 25,52  L 26,52  L 26,53  L 28,53  L 28,54  L 29,54  L 29,55  L 30,55  L 30,56  L 32,56  L 32,57  L 34,57  L 34,58  L 35,58  L 35,59  L 37,59  L 37,60  L 39,60  L 39,61  L 45,61  L 45,59  L 46,59  L 46,55  L 45,55  L 45,54  L 41,54  L 41,53  L 39,53  L 39,52  L 36,52  L 36,51  L 34,51  L 34,50  L 33,50  L 33,49  L 31,49  L 31,47  L 29,47  L 29,45  L 27,45  L 27,43  Z  " style="fill:rgb(0, 0, 0); fill-opacity:1.000; stroke:none;" />
 <path d="  M 39,147  L 40,147  L 40,148  L 41,148  L 41,149  L 61,149  L 61,148  L 66,148  L 66,147  L 71,147  L 71,146  L 75,146  L 75,145  L 78,145  L 78,144  L 82,144  L 82,143  L 84,143  L 84,142  L 85,142  L 85,141  L 86,141  L 86,139  L 87,139  L 87,133  L 88,133  L 88,126  L 89,126  L 89,125  L 88,125  L 88,124  L 89,124  L 89,122  L 90,122  L 90,114  L 91,114  L 91,113  L 90,113  L 90,110  L 91,110  L 91,109  L 90,109  L 90,102  L 91,102  L 91,100  L 90,100  L 90,97  L 87,97  L 87,96  L 86,96  L 86,97  L 84,97  L 84,105  L 85,105  L 85,106  L 84,106  L 84,108  L 85,108  L 85,109  L 84,109  L 84,112  L 85,112  L 85,114  L 84,114  L 84,115  L 83,115  L 83,116  L 61,116  L 61,117  L 58,117  L 58,116  L 57,116  L 57,117  L 43,117  L 43,95  L 42,95  L 42,94  L 38,94  L 38,95  L 37,95  L 37,97  L 36,97  L 36,119  L 35,119  L 35,120  L 36,120  L 36,121  L 35,121  L 35,122  L 36,122  L 36,128  L 37,128  L 37,141  L 38,141  L 38,144  L 39,144  Z  M 54,143  L 54,144  L 47,144  L 47,143  L 45,143  L 45,142  L 44,142  L 44,138  L 43,138  L 43,133  L 42,133  L 42,125  L 43,125  L 43,124  L 47,124  L 47,123  L 48,123  L 48,124  L 49,124  L 49,123  L 63,123  L 63,122  L 64,122  L 64,123  L 67,123  L 67,122  L 80,122  L 80,123  L 82,123  L 82,133  L 81,133  L 81,136  L 80,136  L 80,138  L 79,138  L 79,139  L 76,139  L 76,140  L 72,140  L 72,141  L 66,141  L 66,142  L 60,142  L 60,143  Z  " style="fill:rgb(0, 0, 0); fill-opacity:1.000; stroke:none;" />
 <path d="  M 72,58  L 71,58  L 71,57  L 70,57  L 70,56  L 69,56  L 69,55  L 68,55  L 68,54  L 67,54  L 67,53  L 65,53  L 65,51  L 64,51  L 64,50  L 63,50  L 63,49  L 62,49  L 62,47  L 63,47  L 63,44  L 64,44  L 64,42  L 65,42  L 65,40  L 66,40  L 66,38  L 67,38  L 67,35  L 68,35  L 68,34  L 69,34  L 69,31  L 70,31  L 70,29  L 71,29  L 71,28  L 72,28  L 72,26  L 73,26  L 73,24  L 74,24  L 74,18  L 73,18  L 73,17  L 71,17  L 71,16  L 69,16  L 69,15  L 67,15  L 67,14  L 54,14  L 54,15  L 52,15  L 52,14  L 51,14  L 51,15  L 49,15  L 49,14  L 46,14  L 46,15  L 44,15  L 44,16  L 43,16  L 43,20  L 44,20  L 44,21  L 59,21  L 59,20  L 67,20  L 67,21  L 68,21  L 68,22  L 67,22  L 67,24  L 66,24  L 66,26  L 65,26  L 65,27  L 64,27  L 64,29  L 63,29  L 63,31  L 62,31  L 62,33  L 61,33  L 61,35  L 60,35  L 60,37  L 59,37  L 59,40  L 58,40  L 58,43  L 57,43  L 57,46  L 56,46  L 56,50  L 55,50  L 55,52  L 54,52  L 54,53  L 53,53  L 53,56  L 52,56  L 52,57  L 51,57  L 51,58  L 50,58  L 50,59  L 49,59  L 49,61  L 48,61  L 48,62  L 47,62  L 47,63  L 45,63  L 45,65  L 44,65  L 44,66  L 43,66  L 43,67  L 41,67  L 41,68  L 40,68  L 40,70  L 39,70  L 39,72  L 38,72  L 38,73  L 37,73  L 37,74  L 36,74  L 36,76  L 37,76  L 37,77  L 39,77  L 39,78  L 43,78  L 43,77  L 44,77  L 44,75  L 45,75  L 45,74  L 46,74  L 46,73  L 47,73  L 47,71  L 48,71  L 48,70  L 49,70  L 49,69  L 50,69  L 50,67  L 51,67  L 51,66  L 52,66  L 52,65  L 53,65  L 53,64  L 55,64  L 55,63  L 56,63  L 56,61  L 57,61  L 57,59  L 58,59  L 58,58  L 59,58  L 59,57  L 61,57  L 61,58  L 63,58  L 63,59  L 64,59  L 64,60  L 65,60  L 65,61  L 67,61  L 67,62  L 68,62  L 68,63  L 69,63  L 69,64  L 70,64  L 70,65  L 71,65  L 71,66  L 72,66  L 72,67  L 73,67  L 73,69  L 75,69  L 75,71  L 76,71  L 76,74  L 77,74  L 77,76  L 78,76  L 78,78  L 79,78  L 79,79  L 78,79  L 78,80  L 81,80  L 81,78  L 82,78  L 82,77  L 83,77  L 83,75  L 84,75  L 84,73  L 83,73  L 83,71  L 82,71  L 82,69  L 81,69  L 81,67  L 80,67  L 80,66  L 79,66  L 79,64  L 78,64  L 78,63  L 77,63  L 77,62  L 75,62  L 75,61  L 74,61  L 74,60  L 73,60  L 73,59  L 72,59  Z  " style="fill:rgb(0, 0, 0); fill-opacity:1.000; stroke:none;" />
 <path d="  M 103,25  L 102,25  L 102,17  L 101,17  L 101,11  L 100,11  L 100,10  L 101,10  L 101,9  L 100,9  L 100,5  L 99,5  L 99,2  L 98,2  L 98,1  L 96,1  L 96,0  L 94,0  L 94,1  L 93,1  L 93,7  L 94,7  L 94,12  L 95,12  L 95,20  L 96,20  L 96,28  L 97,28  L 97,38  L 98,38  L 98,41  L 97,41  L 97,42  L 98,42  L 98,89  L 101,89  L 101,88  L 103,88  Z  " style="fill:rgb(0, 0, 0); fill-opacity:1.000; stroke:none;" />
</svg>
