<?xml version="1.0" encoding="UTF-8" standalone="no"?>
<!DOCTYPE svg PUBLIC "-//W3C//DTD SVG 1.1//EN" 
  "http://www.w3.org/Graphics/SVG/1.1/DTD/svg11.dtd">
<svg width="101" height="149"
     xmlns="http://www.w3.org/2000/svg" version="1.1">
 <path d="  M 7,58  L 6,58  L 6,60  L 5,60  L 5,61  L 4,61  L 4,63  L 3,63  L 3,64  L 2,64  L 2,65  L 1,65  L 1,67  L 0,67  L 0,71  L 1,71  L 1,72  L 3,72  L 3,73  L 5,73  L 5,72  L 6,72  L 6,70  L 7,70  L 7,68  L 8,68  L 8,66  L 9,66  L 9,65  L 10,65  L 10,64  L 11,64  L 11,62  L 12,62  L 12,61  L 13,61  L 13,60  L 14,60  L 14,58  L 15,58  L 15,56  L 16,56  L 16,55  L 17,55  L 17,54  L 18,54  L 18,52  L 19,52  L 19,53  L 23,53  L 23,54  L 24,54  L 24,55  L 25,55  L 25,56  L 27,56  L 27,57  L 29,57  L 29,58  L 32,58  L 32,59  L 33,59  L 33,60  L 35,60  L 35,61  L 37,61  L 37,62  L 39,62  L 39,63  L 41,63  L 41,62  L 44,62  L 44,60  L 45,60  L 45,57  L 44,57  L 44,56  L 43,56  L 43,55  L 40,55  L 40,54  L 36,54  L 36,53  L 35,53  L 35,52  L 32,52  L 32,51  L 30,51  L 30,50  L 29,50  L 29,49  L 27,49  L 27,48  L 26,48  L 26,47  L 25,47  L 25,46  L 24,46  L 24,42  L 25,42  L 25,41  L 26,41  L 26,40  L 27,40  L 27,39  L 28,39  L 28,38  L 29,38  L 29,36  L 30,36  L 30,35  L 31,35  L 31,34  L 32,34  L 32,33  L 33,33  L 33,32  L 34,32  L 34,30  L 36,30  L 36,27  L 37,27  L 37,25  L 38,25  L 38,16  L 37,16  L 37,14  L 38,14  L 38,13  L 37,13  L 37,12  L 36,12  L 36,10  L 31,10  L 31,11  L 27,11  L 27,12  L 20,12  L 20,13  L 12,13  L 12,14  L 10,14  L 10,13  L 9,13  L 9,14  L 6,14  L 6,15  L 5,15  L 5,16  L 4,16  L 4,19  L 3,19  L 3,20  L 4,20  L 4,21  L 5,21  L 5,22  L 6,22  L 6,21  L 8,21  L 8,20  L 10,20  L 10,19  L 16,19  L 16,18  L 17,18  L 17,19  L 20,19  L 20,18  L 27,18  L 27,17  L 29,17  L 29,18  L 30,18  L 30,25  L 29,25  L 29,28  L 28,28  L 28,30  L 27,30  L 27,32  L 26,32  L 26,33  L 25,33  L 25,35  L 23,35  L 23,36  L 22,36  L 22,37  L 20,37  L 20,38  L 19,38  L 19,40  L 18,40  L 18,41  L 17,41  L 17,42  L 16,42  L 16,44  L 15,44  L 15,46  L 14,46  L 14,48  L 13,48  L 13,50  L 12,50  L 12,51  L 11,51  L 11,52  L 10,52  L 10,54  L 9,54  L 9,55  L 8,55  L 8,57  L 7,57  Z  " style="fill:rgb(0, 0, 0); fill-opacity:1.000; stroke:none;" />
 <path d="  M 72,142  L 66,142  L 66,143  L 53,143  L 53,142  L 52,142  L 52,143  L 51,143  L 51,142  L 47,142  L 47,141  L 45,141  L 45,140  L 43,140  L 43,139  L 42,139  L 42,138  L 41,138  L 41,136  L 42,136  L 42,135  L 41,135  L 41,130  L 42,130  L 42,123  L 43,123  L 43,120  L 44,120  L 44,117  L 45,117  L 45,116  L 46,116  L 46,114  L 47,114  L 47,113  L 48,113  L 48,111  L 49,111  L 49,110  L 50,110  L 50,109  L 51,109  L 51,108  L 52,108  L 52,107  L 54,107  L 54,106  L 55,106  L 55,105  L 57,105  L 57,104  L 58,104  L 58,103  L 59,103  L 59,102  L 62,102  L 62,101  L 64,101  L 64,100  L 67,100  L 67,101  L 68,101  L 68,100  L 71,100  L 71,101  L 72,101  L 72,100  L 73,100  L 73,101  L 74,101  L 74,100  L 75,100  L 75,101  L 76,101  L 76,100  L 79,100  L 79,101  L 80,101  L 80,100  L 83,100  L 83,101  L 85,101  L 85,102  L 88,102  L 88,103  L 89,103  L 89,104  L 91,104  L 91,105  L 92,105  L 92,107  L 93,107  L 93,108  L 94,108  L 94,111  L 95,111  L 95,119  L 94,119  L 94,124  L 93,124  L 93,127  L 92,127  L 92,129  L 91,129  L 91,131  L 90,131  L 90,132  L 89,132  L 89,133  L 88,133  L 88,134  L 87,134  L 87,135  L 86,135  L 86,136  L 84,136  L 84,137  L 82,137  L 82,138  L 79,138  L 79,139  L 78,139  L 78,140  L 75,140  L 75,141  L 72,141  Z  M 73,147  L 77,147  L 77,146  L 79,146  L 79,145  L 82,145  L 82,144  L 85,144  L 85,143  L 87,143  L 87,142  L 89,142  L 89,141  L 90,141  L 90,140  L 92,140  L 92,139  L 93,139  L 93,138  L 94,138  L 94,137  L 95,137  L 95,136  L 96,136  L 96,135  L 97,135  L 97,133  L 98,133  L 98,131  L 99,131  L 99,130  L 100,130  L 100,129  L 99,129  L 99,128  L 100,128  L 100,125  L 101,125  L 101,105  L 100,105  L 100,102  L 99,102  L 99,101  L 98,101  L 98,99  L 97,99  L 97,98  L 96,98  L 96,97  L 94,97  L 94,96  L 92,96  L 92,95  L 88,95  L 88,94  L 82,94  L 82,93  L 81,93  L 81,94  L 79,94  L 79,93  L 77,93  L 77,94  L 74,94  L 74,93  L 68,93  L 68,92  L 60,92  L 60,93  L 58,93  L 58,94  L 56,94  L 56,95  L 55,95  L 55,96  L 54,96  L 54,97  L 53,97  L 53,98  L 52,98  L 52,99  L 51,99  L 51,100  L 50,100  L 50,101  L 49,101  L 49,102  L 48,102  L 48,103  L 47,103  L 47,104  L 46,104  L 46,105  L 45,105  L 45,106  L 44,106  L 44,107  L 43,107  L 43,108  L 42,108  L 42,109  L 41,109  L 41,111  L 40,111  L 40,112  L 39,112  L 39,114  L 38,114  L 38,117  L 37,117  L 37,120  L 36,120  L 36,125  L 35,125  L 35,131  L 34,131  L 34,139  L 35,139  L 35,142  L 36,142  L 36,144  L 39,144  L 39,145  L 40,145  L 40,146  L 42,146  L 42,147  L 44,147  L 44,148  L 46,148  L 46,149  L 70,149  L 70,148  L 73,148  Z  " style="fill:rgb(0, 0, 0); fill-opacity:1.000; stroke:none;" />
 <path d="  M 67,23  L 66,23  L 66,24  L 65,24  L 65,25  L 64,25  L 64,27  L 63,27  L 63,29  L 62,29  L 62,31  L 61,31  L 61,33  L 60,33  L 60,36  L 59,36  L 59,39  L 58,39  L 58,41  L 57,41  L 57,43  L 56,43  L 56,46  L 55,46  L 55,50  L 54,50  L 54,53  L 53,53  L 53,55  L 52,55  L 52,57  L 51,57  L 51,58  L 50,58  L 50,59  L 49,59  L 49,61  L 48,61  L 48,63  L 47,63  L 47,64  L 46,64  L 46,65  L 45,65  L 45,66  L 44,66  L 44,68  L 43,68  L 43,70  L 42,70  L 42,71  L 41,71  L 41,73  L 40,73  L 40,75  L 39,75  L 39,76  L 40,76  L 40,78  L 42,78  L 42,79  L 45,79  L 45,78  L 46,78  L 46,76  L 47,76  L 47,74  L 48,74  L 48,72  L 49,72  L 49,71  L 50,71  L 50,70  L 51,70  L 51,68  L 52,68  L 52,67  L 53,67  L 53,65  L 54,65  L 54,64  L 55,64  L 55,62  L 56,62  L 56,60  L 57,60  L 57,59  L 59,59  L 59,60  L 60,60  L 60,61  L 62,61  L 62,62  L 63,62  L 63,63  L 64,63  L 64,65  L 66,65  L 66,67  L 67,67  L 67,68  L 68,68  L 68,69  L 69,69  L 69,70  L 70,70  L 70,71  L 71,71  L 71,73  L 72,73  L 72,74  L 73,74  L 73,75  L 74,75  L 74,77  L 75,77  L 75,78  L 77,78  L 77,79  L 81,79  L 81,78  L 82,78  L 82,77  L 83,77  L 83,74  L 82,74  L 82,73  L 81,73  L 81,72  L 79,72  L 79,71  L 78,71  L 78,69  L 77,69  L 77,68  L 76,68  L 76,67  L 75,67  L 75,66  L 74,66  L 74,65  L 73,65  L 73,64  L 72,64  L 72,63  L 71,63  L 71,62  L 70,62  L 70,61  L 69,61  L 69,60  L 68,60  L 68,59  L 67,59  L 67,58  L 66,58  L 66,57  L 65,57  L 65,56  L 64,56  L 64,55  L 63,55  L 63,53  L 62,53  L 62,50  L 61,50  L 61,47  L 62,47  L 62,45  L 63,45  L 63,43  L 64,43  L 64,41  L 65,41  L 65,39  L 66,39  L 66,36  L 67,36  L 67,34  L 68,34  L 68,31  L 69,31  L 69,29  L 70,29  L 70,28  L 71,28  L 71,26  L 72,26  L 72,25  L 73,25  L 73,23  L 74,23  L 74,18  L 73,18  L 73,17  L 72,17  L 72,16  L 70,16  L 70,15  L 65,15  L 65,14  L 63,14  L 63,15  L 43,15  L 43,17  L 42,17  L 42,19  L 43,19  L 43,21  L 61,21  L 61,20  L 67,20  Z  " style="fill:rgb(0, 0, 0); fill-opacity:1.000; stroke:none;" />
 <path d="  M 101,49  L 100,49  L 100,48  L 101,48  L 101,47  L 100,47  L 100,35  L 99,35  L 99,27  L 98,27  L 98,21  L 97,21  L 97,20  L 98,20  L 98,19  L 97,19  L 97,14  L 96,14  L 96,13  L 97,13  L 97,12  L 96,12  L 96,4  L 95,4  L 95,1  L 94,1  L 94,0  L 90,0  L 90,4  L 89,4  L 89,5  L 90,5  L 90,13  L 91,13  L 91,20  L 92,20  L 92,26  L 93,26  L 93,34  L 94,34  L 94,44  L 95,44  L 95,70  L 96,70  L 96,71  L 95,71  L 95,72  L 96,72  L 96,73  L 95,73  L 95,74  L 96,74  L 96,75  L 95,75  L 95,76  L 96,76  L 96,77  L 95,77  L 95,78  L 96,78  L 96,86  L 97,86  L 97,88  L 98,88  L 98,89  L 99,89  L 99,88  L 101,88  Z  " style="fill:rgb(0, 0, 0); fill-opacity:1.000; stroke:none;" />
</svg>
