<?xml version="1.0" encoding="UTF-8" standalone="no"?>
<!DOCTYPE svg PUBLIC "-//W3C//DTD SVG 1.1//EN" 
  "http://www.w3.org/Graphics/SVG/1.1/DTD/svg11.dtd">
<svg width="111" height="148"
     xmlns="http://www.w3.org/2000/svg" version="1.1">
 <path d="  M 38,60  L 40,60  L 40,61  L 41,61  L 41,62  L 43,62  L 43,64  L 44,64  L 44,65  L 46,65  L 46,66  L 47,66  L 47,67  L 49,67  L 49,68  L 50,68  L 50,69  L 52,69  L 52,70  L 53,70  L 53,71  L 55,71  L 55,72  L 62,72  L 62,69  L 61,69  L 61,68  L 60,68  L 60,67  L 59,67  L 59,66  L 58,66  L 58,65  L 57,65  L 57,64  L 56,64  L 56,63  L 54,63  L 54,62  L 52,62  L 52,61  L 50,61  L 50,60  L 49,60  L 49,59  L 47,59  L 47,58  L 46,58  L 46,57  L 45,57  L 45,56  L 44,56  L 44,55  L 43,55  L 43,54  L 42,54  L 42,53  L 40,53  L 40,51  L 38,51  L 38,50  L 37,50  L 37,49  L 36,49  L 36,48  L 35,48  L 35,46  L 37,46  L 37,44  L 38,44  L 38,43  L 39,43  L 39,41  L 40,41  L 40,40  L 41,40  L 41,39  L 42,39  L 42,38  L 43,38  L 43,37  L 44,37  L 44,35  L 45,35  L 45,34  L 46,34  L 46,33  L 47,33  L 47,32  L 48,32  L 48,30  L 49,30  L 49,27  L 48,27  L 48,25  L 47,25  L 47,24  L 46,24  L 46,23  L 45,23  L 45,22  L 44,22  L 44,21  L 43,21  L 43,20  L 35,20  L 35,21  L 32,21  L 32,22  L 29,22  L 29,23  L 25,23  L 25,24  L 20,24  L 20,25  L 14,25  L 14,26  L 10,26  L 10,27  L 5,27  L 5,28  L 4,28  L 4,27  L 1,27  L 1,33  L 2,33  L 2,34  L 7,34  L 7,33  L 8,33  L 8,32  L 11,32  L 11,31  L 15,31  L 15,30  L 22,30  L 22,29  L 31,29  L 31,28  L 36,28  L 36,27  L 41,27  L 41,29  L 42,29  L 42,30  L 41,30  L 41,31  L 40,31  L 40,33  L 38,33  L 38,34  L 37,34  L 37,35  L 36,35  L 36,36  L 35,36  L 35,37  L 34,37  L 34,38  L 33,38  L 33,40  L 32,40  L 32,41  L 31,41  L 31,42  L 30,42  L 30,43  L 29,43  L 29,44  L 28,44  L 28,45  L 27,45  L 27,46  L 26,46  L 26,48  L 25,48  L 25,50  L 23,50  L 23,52  L 22,52  L 22,53  L 21,53  L 21,54  L 20,54  L 20,55  L 19,55  L 19,57  L 18,57  L 18,58  L 17,58  L 17,59  L 16,59  L 16,60  L 15,60  L 15,61  L 14,61  L 14,63  L 13,63  L 13,64  L 12,64  L 12,65  L 11,65  L 11,66  L 10,66  L 10,67  L 9,67  L 9,68  L 8,68  L 8,70  L 7,70  L 7,74  L 9,74  L 9,75  L 10,75  L 10,74  L 12,74  L 12,73  L 13,73  L 13,72  L 15,72  L 15,71  L 16,71  L 16,69  L 17,69  L 17,68  L 18,68  L 18,67  L 19,67  L 19,65  L 20,65  L 20,64  L 21,64  L 21,63  L 22,63  L 22,62  L 23,62  L 23,60  L 24,60  L 24,59  L 25,59  L 25,58  L 26,58  L 26,56  L 27,56  L 27,55  L 28,55  L 28,54  L 29,54  L 29,53  L 30,53  L 30,52  L 31,52  L 31,53  L 32,53  L 32,54  L 33,54  L 33,55  L 34,55  L 34,56  L 35,56  L 35,57  L 36,57  L 36,58  L 38,58  Z  " style="fill:rgb(0, 0, 0); fill-opacity:1.000; stroke:none;" />
 <path d="  M 33,2  L 34,2  L 34,1  L 33,1  L 33,0  L 29,0  L 29,1  L 27,1  L 27,5  L 26,5  L 26,6  L 27,6  L 27,9  L 26,9  L 26,10  L 27,10  L 27,11  L 26,11  L 26,12  L 27,12  L 27,17  L 28,17  L 28,18  L 32,18  L 32,16  L 33,16  Z  " style="fill:rgb(0, 0, 0); fill-opacity:1.000; stroke:none;" />
 <path d="  M 65,102  L 65,103  L 66,103  L 66,104  L 68,104  L 68,105  L 69,105  L 69,113  L 68,113  L 68,117  L 67,117  L 67,121  L 66,121  L 66,127  L 65,127  L 65,131  L 64,131  L 64,136  L 63,136  L 63,139  L 62,139  L 62,142  L 61,142  L 61,148  L 66,148  L 66,147  L 67,147  L 67,146  L 68,146  L 68,144  L 69,144  L 69,142  L 70,142  L 70,139  L 71,139  L 71,134  L 72,134  L 72,130  L 73,130  L 73,129  L 72,129  L 72,128  L 73,128  L 73,122  L 74,122  L 74,116  L 75,116  L 75,112  L 76,112  L 76,104  L 75,104  L 75,102  L 74,102  L 74,100  L 73,100  L 73,99  L 71,99  L 71,98  L 70,98  L 70,97  L 68,97  L 68,96  L 65,96  L 65,95  L 52,95  L 52,96  L 51,96  L 51,95  L 50,95  L 50,96  L 43,96  L 43,97  L 33,97  L 33,98  L 32,98  L 32,103  L 33,103  L 33,104  L 34,104  L 34,105  L 37,105  L 37,104  L 41,104  L 41,103  L 46,103  L 46,102  L 55,102  L 55,101  L 56,101  L 56,102  L 59,102  L 59,101  L 60,101  L 60,102  Z  " style="fill:rgb(0, 0, 0); fill-opacity:1.000; stroke:none;" />
 <path d="  M 76,64  L 77,64  L 77,67  L 76,67  L 76,68  L 77,68  L 77,81  L 78,81  L 78,83  L 83,83  L 83,81  L 84,81  L 84,79  L 83,79  L 83,76  L 84,76  L 84,75  L 83,75  L 83,72  L 84,72  L 84,71  L 83,71  L 83,68  L 84,68  L 84,67  L 83,67  L 83,60  L 82,60  L 82,48  L 81,48  L 81,45  L 82,45  L 82,43  L 84,43  L 84,42  L 99,42  L 99,41  L 111,41  L 111,36  L 110,36  L 110,35  L 109,35  L 109,34  L 108,34  L 108,35  L 80,35  L 80,33  L 79,33  L 79,30  L 80,30  L 80,29  L 79,29  L 79,23  L 78,23  L 78,18  L 77,18  L 77,15  L 76,15  L 76,14  L 77,14  L 77,13  L 76,13  L 76,10  L 75,10  L 75,3  L 74,3  L 74,2  L 69,2  L 69,10  L 70,10  L 70,14  L 71,14  L 71,18  L 72,18  L 72,21  L 73,21  L 73,30  L 74,30  L 74,44  L 75,44  L 75,52  L 76,52  Z  " style="fill:rgb(0, 0, 0); fill-opacity:1.000; stroke:none;" />
</svg>
