<?xml version="1.0" encoding="UTF-8" standalone="no"?>
<!DOCTYPE svg PUBLIC "-//W3C//DTD SVG 1.1//EN" 
  "http://www.w3.org/Graphics/SVG/1.1/DTD/svg11.dtd">
<svg width="110" height="132"
     xmlns="http://www.w3.org/2000/svg" version="1.1">
 <path d="  M 49,63  L 49,62  L 48,62  L 48,61  L 46,61  L 46,60  L 45,60  L 45,59  L 44,59  L 44,58  L 43,58  L 43,57  L 42,57  L 42,56  L 41,56  L 41,55  L 40,55  L 40,54  L 39,54  L 39,53  L 38,53  L 38,52  L 37,52  L 37,50  L 36,50  L 36,46  L 37,46  L 37,45  L 38,45  L 38,44  L 39,44  L 39,43  L 40,43  L 40,42  L 41,42  L 41,40  L 42,40  L 42,39  L 43,39  L 43,37  L 44,37  L 44,35  L 45,35  L 45,34  L 46,34  L 46,31  L 47,31  L 47,27  L 46,27  L 46,25  L 44,25  L 44,24  L 43,24  L 43,23  L 35,23  L 35,24  L 31,24  L 31,25  L 26,25  L 26,26  L 19,26  L 19,27  L 13,27  L 13,28  L 12,28  L 12,27  L 11,27  L 11,28  L 7,28  L 7,29  L 1,29  L 1,30  L 0,30  L 0,33  L 1,33  L 1,34  L 2,34  L 2,35  L 8,35  L 8,34  L 10,34  L 10,33  L 16,33  L 16,32  L 23,32  L 23,31  L 26,31  L 26,32  L 27,32  L 27,31  L 32,31  L 32,30  L 37,30  L 37,29  L 41,29  L 41,31  L 40,31  L 40,32  L 39,32  L 39,33  L 38,33  L 38,35  L 37,35  L 37,36  L 36,36  L 36,37  L 35,37  L 35,39  L 34,39  L 34,40  L 33,40  L 33,41  L 32,41  L 32,42  L 31,42  L 31,43  L 30,43  L 30,44  L 29,44  L 29,45  L 28,45  L 28,47  L 26,47  L 26,49  L 25,49  L 25,51  L 24,51  L 24,52  L 23,52  L 23,53  L 22,53  L 22,54  L 21,54  L 21,55  L 20,55  L 20,56  L 19,56  L 19,57  L 18,57  L 18,58  L 17,58  L 17,59  L 16,59  L 16,60  L 15,60  L 15,61  L 14,61  L 14,62  L 13,62  L 13,63  L 12,63  L 12,64  L 10,64  L 10,65  L 9,65  L 9,66  L 8,66  L 8,67  L 6,67  L 6,68  L 5,68  L 5,69  L 4,69  L 4,71  L 3,71  L 3,72  L 4,72  L 4,73  L 5,73  L 5,74  L 10,74  L 10,73  L 11,73  L 11,72  L 12,72  L 12,71  L 14,71  L 14,70  L 15,70  L 15,69  L 16,69  L 16,68  L 17,68  L 17,67  L 18,67  L 18,66  L 19,66  L 19,65  L 20,65  L 20,64  L 21,64  L 21,63  L 22,63  L 22,62  L 23,62  L 23,61  L 24,61  L 24,60  L 25,60  L 25,59  L 26,59  L 26,58  L 27,58  L 27,57  L 28,57  L 28,55  L 30,55  L 30,54  L 33,54  L 33,56  L 34,56  L 34,58  L 35,58  L 35,60  L 36,60  L 36,61  L 37,61  L 37,62  L 38,62  L 38,63  L 40,63  L 40,64  L 41,64  L 41,65  L 42,65  L 42,66  L 43,66  L 43,67  L 45,67  L 45,68  L 46,68  L 46,70  L 48,70  L 48,71  L 49,71  L 49,72  L 50,72  L 50,73  L 51,73  L 51,74  L 53,74  L 53,75  L 55,75  L 55,76  L 60,76  L 60,75  L 62,75  L 62,73  L 61,73  L 61,71  L 60,71  L 60,70  L 58,70  L 58,69  L 57,69  L 57,68  L 56,68  L 56,67  L 54,67  L 54,66  L 53,66  L 53,65  L 51,65  L 51,64  L 50,64  L 50,63  Z  " style="fill:rgb(0, 0, 0); fill-opacity:1.000; stroke:none;" />
 <path d="  M 24,4  L 24,5  L 23,5  L 23,12  L 24,12  L 24,15  L 25,15  L 25,17  L 26,17  L 26,18  L 27,18  L 27,17  L 28,17  L 28,16  L 29,16  L 29,9  L 30,9  L 30,3  L 25,3  L 25,4  Z  " style="fill:rgb(0, 0, 0); fill-opacity:1.000; stroke:none;" />
 <path d="  M 35,117  L 35,107  L 34,107  L 34,106  L 35,106  L 35,105  L 34,105  L 34,92  L 33,92  L 33,91  L 32,91  L 32,90  L 30,90  L 30,91  L 28,91  L 28,94  L 27,94  L 27,96  L 28,96  L 28,98  L 27,98  L 27,100  L 28,100  L 28,101  L 27,101  L 27,102  L 28,102  L 28,103  L 27,103  L 27,104  L 28,104  L 28,113  L 29,113  L 29,114  L 28,114  L 28,115  L 29,115  L 29,121  L 30,121  L 30,125  L 31,125  L 31,128  L 32,128  L 32,129  L 33,129  L 33,130  L 34,130  L 34,132  L 56,132  L 56,131  L 57,131  L 57,132  L 59,132  L 59,131  L 68,131  L 68,130  L 76,130  L 76,129  L 92,129  L 92,128  L 93,128  L 93,126  L 94,126  L 94,122  L 92,122  L 92,121  L 90,121  L 90,122  L 79,122  L 79,123  L 67,123  L 67,124  L 64,124  L 64,123  L 63,123  L 63,124  L 59,124  L 59,125  L 46,125  L 46,126  L 40,126  L 40,125  L 37,125  L 37,122  L 36,122  L 36,117  Z  " style="fill:rgb(0, 0, 0); fill-opacity:1.000; stroke:none;" />
 <path d="  M 74,50  L 74,60  L 75,60  L 75,74  L 76,74  L 76,81  L 77,81  L 77,84  L 78,84  L 78,85  L 79,85  L 79,86  L 81,86  L 81,85  L 82,85  L 82,84  L 83,84  L 83,80  L 82,80  L 82,79  L 83,79  L 83,78  L 82,78  L 82,63  L 81,63  L 81,54  L 80,54  L 80,47  L 81,47  L 81,46  L 82,46  L 82,45  L 100,45  L 100,44  L 101,44  L 101,45  L 102,45  L 102,44  L 110,44  L 110,38  L 108,38  L 108,37  L 105,37  L 105,38  L 100,38  L 100,37  L 99,37  L 99,38  L 78,38  L 78,36  L 77,36  L 77,35  L 78,35  L 78,33  L 77,33  L 77,27  L 76,27  L 76,26  L 77,26  L 77,25  L 76,25  L 76,18  L 75,18  L 75,15  L 74,15  L 74,10  L 73,10  L 73,8  L 74,8  L 74,7  L 73,7  L 73,2  L 72,2  L 72,1  L 71,1  L 71,0  L 67,0  L 67,10  L 68,10  L 68,16  L 69,16  L 69,18  L 70,18  L 70,27  L 71,27  L 71,38  L 72,38  L 72,43  L 73,43  L 73,50  Z  " style="fill:rgb(0, 0, 0); fill-opacity:1.000; stroke:none;" />
</svg>
