<?xml version="1.0" encoding="UTF-8" standalone="no"?>
<!DOCTYPE svg PUBLIC "-//W3C//DTD SVG 1.1//EN" 
  "http://www.w3.org/Graphics/SVG/1.1/DTD/svg11.dtd">
<svg width="108" height="143"
     xmlns="http://www.w3.org/2000/svg" version="1.1">
 <path d="  M 25,25  L 25,26  L 18,26  L 18,27  L 15,27  L 15,26  L 14,26  L 14,27  L 12,27  L 12,28  L 9,28  L 9,29  L 1,29  L 1,30  L 0,30  L 0,33  L 1,33  L 1,36  L 4,36  L 4,35  L 7,35  L 7,34  L 11,34  L 11,33  L 14,33  L 14,32  L 19,32  L 19,31  L 20,31  L 20,32  L 21,32  L 21,31  L 30,31  L 30,30  L 36,30  L 36,29  L 39,29  L 39,28  L 40,28  L 40,29  L 41,29  L 41,30  L 42,30  L 42,31  L 41,31  L 41,33  L 40,33  L 40,34  L 38,34  L 38,35  L 37,35  L 37,36  L 36,36  L 36,37  L 34,37  L 34,39  L 33,39  L 33,40  L 32,40  L 32,42  L 31,42  L 31,43  L 30,43  L 30,44  L 29,44  L 29,45  L 28,45  L 28,46  L 27,46  L 27,47  L 26,47  L 26,48  L 25,48  L 25,50  L 24,50  L 24,51  L 23,51  L 23,52  L 22,52  L 22,53  L 21,53  L 21,54  L 20,54  L 20,55  L 19,55  L 19,56  L 18,56  L 18,57  L 17,57  L 17,58  L 16,58  L 16,59  L 15,59  L 15,60  L 13,60  L 13,61  L 12,61  L 12,62  L 11,62  L 11,63  L 10,63  L 10,64  L 9,64  L 9,65  L 7,65  L 7,66  L 6,66  L 6,67  L 5,67  L 5,68  L 4,68  L 4,71  L 5,71  L 5,72  L 10,72  L 10,71  L 11,71  L 11,70  L 12,70  L 12,69  L 14,69  L 14,68  L 15,68  L 15,67  L 16,67  L 16,66  L 17,66  L 17,65  L 18,65  L 18,64  L 20,64  L 20,63  L 21,63  L 21,61  L 22,61  L 22,60  L 23,60  L 23,59  L 25,59  L 25,57  L 27,57  L 27,55  L 29,55  L 29,53  L 30,53  L 30,52  L 33,52  L 33,54  L 34,54  L 34,56  L 35,56  L 35,57  L 36,57  L 36,58  L 37,58  L 37,59  L 39,59  L 39,60  L 40,60  L 40,62  L 42,62  L 42,63  L 43,63  L 43,64  L 45,64  L 45,65  L 47,65  L 47,66  L 48,66  L 48,67  L 49,67  L 49,68  L 50,68  L 50,69  L 51,69  L 51,70  L 52,70  L 52,71  L 54,71  L 54,72  L 55,72  L 55,73  L 62,73  L 62,68  L 61,68  L 61,66  L 60,66  L 60,65  L 58,65  L 58,64  L 56,64  L 56,63  L 54,63  L 54,62  L 52,62  L 52,61  L 50,61  L 50,60  L 48,60  L 48,59  L 47,59  L 47,58  L 46,58  L 46,57  L 45,57  L 45,56  L 43,56  L 43,55  L 42,55  L 42,54  L 41,54  L 41,53  L 40,53  L 40,52  L 39,52  L 39,51  L 37,51  L 37,50  L 36,50  L 36,49  L 35,49  L 35,47  L 37,47  L 37,45  L 38,45  L 38,44  L 39,44  L 39,42  L 40,42  L 40,41  L 41,41  L 41,40  L 42,40  L 42,39  L 43,39  L 43,38  L 44,38  L 44,36  L 45,36  L 45,35  L 46,35  L 46,34  L 47,34  L 47,33  L 48,33  L 48,31  L 49,31  L 49,30  L 48,30  L 48,28  L 47,28  L 47,26  L 46,26  L 46,25  L 45,25  L 45,24  L 43,24  L 43,23  L 36,23  L 36,24  L 29,24  L 29,25  Z  " style="fill:rgb(0, 0, 0); fill-opacity:1.000; stroke:none;" />
 <path d="  M 48,121  L 48,122  L 42,122  L 42,123  L 31,123  L 31,122  L 30,122  L 30,121  L 28,121  L 28,120  L 27,120  L 27,119  L 26,119  L 26,117  L 25,117  L 25,116  L 24,116  L 24,113  L 23,113  L 23,109  L 22,109  L 22,98  L 21,98  L 21,94  L 19,94  L 19,93  L 15,93  L 15,103  L 16,103  L 16,109  L 17,109  L 17,114  L 18,114  L 18,119  L 19,119  L 19,121  L 20,121  L 20,123  L 21,123  L 21,124  L 22,124  L 22,125  L 23,125  L 23,126  L 25,126  L 25,127  L 27,127  L 27,128  L 28,128  L 28,129  L 32,129  L 32,130  L 34,130  L 34,129  L 35,129  L 35,130  L 41,130  L 41,129  L 44,129  L 44,128  L 49,128  L 49,129  L 54,129  L 54,128  L 56,128  L 56,126  L 57,126  L 57,123  L 56,123  L 56,122  L 55,122  L 55,121  Z  " style="fill:rgb(0, 0, 0); fill-opacity:1.000; stroke:none;" />
 <path d="  M 24,5  L 24,4  L 23,4  L 23,5  L 18,5  L 18,6  L 17,6  L 17,7  L 18,7  L 18,8  L 19,8  L 19,9  L 27,9  L 27,11  L 28,11  L 28,13  L 29,13  L 29,14  L 30,14  L 30,15  L 32,15  L 32,14  L 33,14  L 33,11  L 34,11  L 34,4  L 33,4  L 33,3  L 28,3  L 28,4  L 26,4  L 26,5  Z  " style="fill:rgb(0, 0, 0); fill-opacity:1.000; stroke:none;" />
 <path d="  M 58,98  L 58,99  L 54,99  L 54,100  L 45,100  L 45,101  L 43,101  L 43,102  L 44,102  L 44,104  L 45,104  L 45,105  L 47,105  L 47,106  L 53,106  L 53,105  L 56,105  L 56,104  L 62,104  L 62,103  L 75,103  L 75,102  L 76,102  L 76,103  L 79,103  L 79,102  L 101,102  L 101,101  L 102,101  L 102,100  L 103,100  L 103,97  L 102,97  L 102,95  L 101,95  L 101,94  L 97,94  L 97,95  L 96,95  L 96,94  L 94,94  L 94,95  L 91,95  L 91,94  L 90,94  L 90,95  L 88,95  L 88,94  L 85,94  L 85,93  L 84,93  L 84,91  L 85,91  L 85,89  L 86,89  L 86,85  L 85,85  L 85,84  L 84,84  L 84,82  L 83,82  L 83,74  L 82,74  L 82,59  L 81,59  L 81,55  L 82,55  L 82,54  L 81,54  L 81,51  L 82,51  L 82,50  L 81,50  L 81,48  L 80,48  L 80,45  L 81,45  L 81,43  L 82,43  L 82,42  L 85,42  L 85,41  L 89,41  L 89,40  L 95,40  L 95,39  L 96,39  L 96,40  L 97,40  L 97,39  L 98,39  L 98,40  L 99,40  L 99,39  L 106,39  L 106,38  L 107,38  L 107,37  L 108,37  L 108,32  L 101,32  L 101,33  L 99,33  L 99,32  L 98,32  L 98,33  L 86,33  L 86,34  L 79,34  L 79,26  L 78,26  L 78,20  L 77,20  L 77,14  L 76,14  L 76,4  L 75,4  L 75,1  L 74,1  L 74,0  L 71,0  L 71,1  L 70,1  L 70,2  L 69,2  L 69,5  L 70,5  L 70,12  L 71,12  L 71,18  L 72,18  L 72,24  L 73,24  L 73,39  L 74,39  L 74,40  L 73,40  L 73,42  L 74,42  L 74,50  L 75,50  L 75,65  L 76,65  L 76,66  L 75,66  L 75,67  L 76,67  L 76,75  L 77,75  L 77,85  L 78,85  L 78,87  L 79,87  L 79,95  L 78,95  L 78,96  L 76,96  L 76,97  L 66,97  L 66,98  Z  " style="fill:rgb(0, 0, 0); fill-opacity:1.000; stroke:none;" />
 <path d="  M 88,110  L 87,110  L 87,109  L 85,109  L 85,108  L 81,108  L 81,107  L 78,107  L 78,106  L 77,106  L 77,107  L 74,107  L 74,108  L 71,108  L 71,109  L 70,109  L 70,111  L 68,111  L 68,113  L 67,113  L 67,115  L 66,115  L 66,117  L 65,117  L 65,118  L 64,118  L 64,122  L 63,122  L 63,124  L 64,124  L 64,125  L 63,125  L 63,128  L 64,128  L 64,133  L 65,133  L 65,135  L 66,135  L 66,136  L 67,136  L 67,137  L 68,137  L 68,139  L 69,139  L 69,141  L 74,141  L 74,143  L 87,143  L 87,142  L 89,142  L 89,141  L 90,141  L 90,140  L 91,140  L 91,139  L 92,139  L 92,138  L 93,138  L 93,137  L 94,137  L 94,136  L 95,136  L 95,135  L 96,135  L 96,132  L 97,132  L 97,130  L 98,130  L 98,126  L 99,126  L 99,119  L 98,119  L 98,118  L 97,118  L 97,117  L 96,117  L 96,116  L 95,116  L 95,115  L 94,115  L 94,114  L 93,114  L 93,113  L 92,113  L 92,112  L 91,112  L 91,111  L 88,111  Z  M 74,114  L 75,114  L 75,113  L 80,113  L 80,114  L 84,114  L 84,115  L 87,115  L 87,116  L 89,116  L 89,117  L 90,117  L 90,118  L 91,118  L 91,119  L 92,119  L 92,128  L 91,128  L 91,130  L 90,130  L 90,132  L 89,132  L 89,133  L 88,133  L 88,135  L 87,135  L 87,136  L 85,136  L 85,137  L 84,137  L 84,138  L 77,138  L 77,137  L 76,137  L 76,138  L 75,138  L 75,136  L 74,136  L 74,135  L 73,135  L 73,134  L 71,134  L 71,131  L 70,131  L 70,122  L 71,122  L 71,119  L 72,119  L 72,117  L 73,117  L 73,116  L 74,116  Z  " style="fill:rgb(0, 0, 0); fill-opacity:1.000; stroke:none;" />
</svg>
