<?xml version="1.0" encoding="UTF-8" standalone="no"?>
<!DOCTYPE svg PUBLIC "-//W3C//DTD SVG 1.1//EN" 
  "http://www.w3.org/Graphics/SVG/1.1/DTD/svg11.dtd">
<svg width="106" height="149"
     xmlns="http://www.w3.org/2000/svg" version="1.1">
 <path d="  M 39,31  L 39,35  L 38,35  L 38,36  L 37,36  L 37,37  L 35,37  L 35,38  L 34,38  L 34,39  L 33,39  L 33,40  L 32,40  L 32,42  L 31,42  L 31,43  L 30,43  L 30,45  L 29,45  L 29,46  L 28,46  L 28,48  L 27,48  L 27,49  L 26,49  L 26,50  L 25,50  L 25,51  L 24,51  L 24,52  L 23,52  L 23,54  L 22,54  L 22,55  L 21,55  L 21,56  L 20,56  L 20,57  L 19,57  L 19,58  L 18,58  L 18,59  L 17,59  L 17,60  L 16,60  L 16,61  L 15,61  L 15,62  L 14,62  L 14,63  L 13,63  L 13,64  L 12,64  L 12,65  L 11,65  L 11,66  L 10,66  L 10,67  L 9,67  L 9,68  L 6,68  L 6,73  L 7,73  L 7,74  L 12,74  L 12,73  L 14,73  L 14,72  L 15,72  L 15,71  L 16,71  L 16,70  L 17,70  L 17,69  L 18,69  L 18,68  L 19,68  L 19,66  L 20,66  L 20,65  L 21,65  L 21,64  L 22,64  L 22,63  L 23,63  L 23,62  L 24,62  L 24,61  L 25,61  L 25,60  L 26,60  L 26,59  L 27,59  L 27,57  L 28,57  L 28,56  L 29,56  L 29,55  L 30,55  L 30,54  L 32,54  L 32,55  L 33,55  L 33,57  L 34,57  L 34,58  L 35,58  L 35,59  L 37,59  L 37,60  L 38,60  L 38,61  L 39,61  L 39,62  L 42,62  L 42,63  L 43,63  L 43,64  L 44,64  L 44,65  L 45,65  L 45,66  L 47,66  L 47,67  L 48,67  L 48,68  L 49,68  L 49,69  L 51,69  L 51,70  L 52,70  L 52,71  L 53,71  L 53,72  L 54,72  L 54,73  L 55,73  L 55,74  L 56,74  L 56,75  L 57,75  L 57,76  L 59,76  L 59,77  L 62,77  L 62,76  L 63,76  L 63,74  L 64,74  L 64,72  L 63,72  L 63,70  L 62,70  L 62,69  L 61,69  L 61,68  L 59,68  L 59,67  L 58,67  L 58,66  L 57,66  L 57,65  L 55,65  L 55,64  L 54,64  L 54,63  L 53,63  L 53,62  L 52,62  L 52,61  L 50,61  L 50,60  L 48,60  L 48,59  L 47,59  L 47,58  L 45,58  L 45,57  L 44,57  L 44,56  L 42,56  L 42,55  L 41,55  L 41,54  L 40,54  L 40,53  L 39,53  L 39,52  L 38,52  L 38,51  L 37,51  L 37,50  L 35,50  L 35,47  L 36,47  L 36,45  L 37,45  L 37,44  L 38,44  L 38,43  L 39,43  L 39,42  L 40,42  L 40,41  L 41,41  L 41,40  L 42,40  L 42,39  L 43,39  L 43,38  L 44,38  L 44,37  L 45,37  L 45,36  L 46,36  L 46,35  L 47,35  L 47,29  L 46,29  L 46,28  L 45,28  L 45,27  L 44,27  L 44,26  L 43,26  L 43,25  L 41,25  L 41,24  L 39,24  L 39,23  L 38,23  L 38,24  L 33,24  L 33,25  L 27,25  L 27,26  L 20,26  L 20,27  L 17,27  L 17,28  L 12,28  L 12,29  L 8,29  L 8,30  L 4,30  L 4,31  L 1,31  L 1,32  L 0,32  L 0,35  L 1,35  L 1,36  L 2,36  L 2,37  L 3,37  L 3,38  L 4,38  L 4,37  L 5,37  L 5,36  L 7,36  L 7,35  L 9,35  L 9,34  L 15,34  L 15,33  L 21,33  L 21,32  L 22,32  L 22,33  L 23,33  L 23,32  L 34,32  L 34,31  Z  " style="fill:rgb(0, 0, 0); fill-opacity:1.000; stroke:none;" />
 <path d="  M 29,13  L 29,12  L 30,12  L 30,13  L 31,13  L 31,12  L 33,12  L 33,10  L 34,10  L 34,5  L 33,5  L 33,4  L 32,4  L 32,2  L 27,2  L 27,3  L 25,3  L 25,4  L 20,4  L 20,5  L 18,5  L 18,6  L 17,6  L 17,8  L 15,8  L 15,11  L 19,11  L 19,12  L 25,12  L 25,13  Z  " style="fill:rgb(0, 0, 0); fill-opacity:1.000; stroke:none;" />
 <path d="  M 34,96  L 34,95  L 40,95  L 40,94  L 47,94  L 47,93  L 53,93  L 53,94  L 56,94  L 56,95  L 60,95  L 60,96  L 63,96  L 63,97  L 65,97  L 65,98  L 66,98  L 66,99  L 68,99  L 68,101  L 69,101  L 69,102  L 71,102  L 71,105  L 70,105  L 70,107  L 69,107  L 69,108  L 68,108  L 68,107  L 67,107  L 67,108  L 65,108  L 65,109  L 62,109  L 62,110  L 59,110  L 59,111  L 57,111  L 57,112  L 54,112  L 54,113  L 51,113  L 51,114  L 48,114  L 48,115  L 45,115  L 45,116  L 42,116  L 42,117  L 41,117  L 41,116  L 40,116  L 40,117  L 38,117  L 38,118  L 36,118  L 36,119  L 33,119  L 33,120  L 31,120  L 31,121  L 30,121  L 30,122  L 29,122  L 29,123  L 27,123  L 27,124  L 26,124  L 26,127  L 25,127  L 25,128  L 24,128  L 24,132  L 25,132  L 25,134  L 24,134  L 24,135  L 25,135  L 25,140  L 26,140  L 26,142  L 27,142  L 27,146  L 28,146  L 28,145  L 29,145  L 29,146  L 30,146  L 30,147  L 32,147  L 32,148  L 34,148  L 34,149  L 57,149  L 57,148  L 62,148  L 62,147  L 65,147  L 65,146  L 69,146  L 69,145  L 72,145  L 72,144  L 75,144  L 75,143  L 77,143  L 77,142  L 80,142  L 80,141  L 84,141  L 84,140  L 86,140  L 86,139  L 87,139  L 87,138  L 88,138  L 88,137  L 89,137  L 89,135  L 90,135  L 90,133  L 89,133  L 89,132  L 84,132  L 84,133  L 82,133  L 82,134  L 79,134  L 79,135  L 77,135  L 77,136  L 74,136  L 74,137  L 72,137  L 72,138  L 70,138  L 70,139  L 66,139  L 66,140  L 62,140  L 62,141  L 59,141  L 59,142  L 36,142  L 36,141  L 34,141  L 34,140  L 33,140  L 33,139  L 32,139  L 32,132  L 31,132  L 31,131  L 32,131  L 32,130  L 31,130  L 31,129  L 32,129  L 32,128  L 34,128  L 34,127  L 35,127  L 35,126  L 36,126  L 36,125  L 39,125  L 39,124  L 42,124  L 42,123  L 45,123  L 45,122  L 49,122  L 49,121  L 53,121  L 53,120  L 57,120  L 57,119  L 60,119  L 60,118  L 62,118  L 62,117  L 65,117  L 65,116  L 67,116  L 67,115  L 69,115  L 69,114  L 72,114  L 72,113  L 73,113  L 73,112  L 75,112  L 75,111  L 77,111  L 77,110  L 78,110  L 78,108  L 79,108  L 79,101  L 78,101  L 78,99  L 76,99  L 76,97  L 75,97  L 75,95  L 74,95  L 74,94  L 73,94  L 73,93  L 71,93  L 71,92  L 68,92  L 68,91  L 66,91  L 66,90  L 62,90  L 62,89  L 61,89  L 61,88  L 56,88  L 56,87  L 53,87  L 53,86  L 52,86  L 52,87  L 51,87  L 51,86  L 48,86  L 48,87  L 45,87  L 45,86  L 44,86  L 44,87  L 38,87  L 38,88  L 31,88  L 31,90  L 30,90  L 30,95  L 32,95  L 32,96  Z  " style="fill:rgb(0, 0, 0); fill-opacity:1.000; stroke:none;" />
 <path d="  M 74,57  L 75,57  L 75,68  L 76,68  L 76,73  L 77,73  L 77,74  L 76,74  L 76,76  L 77,76  L 77,81  L 78,81  L 78,82  L 83,82  L 83,81  L 84,81  L 84,78  L 83,78  L 83,71  L 82,71  L 82,64  L 81,64  L 81,61  L 82,61  L 82,60  L 81,60  L 81,56  L 80,56  L 80,55  L 81,55  L 81,54  L 80,54  L 80,42  L 81,42  L 81,41  L 83,41  L 83,40  L 86,40  L 86,39  L 106,39  L 106,32  L 95,32  L 95,33  L 93,33  L 93,32  L 92,32  L 92,33  L 83,33  L 83,34  L 80,34  L 80,33  L 79,33  L 79,31  L 78,31  L 78,26  L 77,26  L 77,20  L 76,20  L 76,14  L 75,14  L 75,6  L 74,6  L 74,2  L 73,2  L 73,0  L 69,0  L 69,2  L 68,2  L 68,12  L 69,12  L 69,17  L 70,17  L 70,22  L 71,22  L 71,27  L 72,27  L 72,29  L 71,29  L 71,30  L 72,30  L 72,39  L 73,39  L 73,47  L 74,47  Z  " style="fill:rgb(0, 0, 0); fill-opacity:1.000; stroke:none;" />
</svg>
