<?xml version="1.0" encoding="UTF-8" standalone="no"?>
<!DOCTYPE svg PUBLIC "-//W3C//DTD SVG 1.1//EN" 
  "http://www.w3.org/Graphics/SVG/1.1/DTD/svg11.dtd">
<svg width="109" height="141"
     xmlns="http://www.w3.org/2000/svg" version="1.1">
 <path d="  M 38,60  L 40,60  L 40,61  L 41,61  L 41,62  L 42,62  L 42,63  L 44,63  L 44,64  L 45,64  L 45,65  L 47,65  L 47,66  L 48,66  L 48,67  L 49,67  L 49,68  L 51,68  L 51,69  L 52,69  L 52,70  L 54,70  L 54,71  L 56,71  L 56,72  L 59,72  L 59,71  L 61,71  L 61,67  L 60,67  L 60,66  L 59,66  L 59,65  L 58,65  L 58,64  L 56,64  L 56,63  L 55,63  L 55,62  L 52,62  L 52,61  L 51,61  L 51,60  L 48,60  L 48,59  L 47,59  L 47,58  L 46,58  L 46,57  L 45,57  L 45,56  L 43,56  L 43,55  L 42,55  L 42,54  L 41,54  L 41,53  L 39,53  L 39,52  L 38,52  L 38,51  L 37,51  L 37,50  L 36,50  L 36,49  L 35,49  L 35,47  L 36,47  L 36,45  L 38,45  L 38,43  L 39,43  L 39,42  L 40,42  L 40,40  L 41,40  L 41,39  L 42,39  L 42,38  L 43,38  L 43,37  L 44,37  L 44,35  L 45,35  L 45,34  L 46,34  L 46,32  L 47,32  L 47,31  L 48,31  L 48,27  L 47,27  L 47,25  L 46,25  L 46,24  L 44,24  L 44,23  L 40,23  L 40,22  L 37,22  L 37,23  L 34,23  L 34,24  L 29,24  L 29,25  L 28,25  L 28,24  L 27,24  L 27,25  L 23,25  L 23,26  L 22,26  L 22,25  L 21,25  L 21,26  L 18,26  L 18,27  L 12,27  L 12,28  L 9,28  L 9,29  L 8,29  L 8,28  L 7,28  L 7,29  L 5,29  L 5,28  L 1,28  L 1,33  L 2,33  L 2,35  L 4,35  L 4,34  L 5,34  L 5,35  L 7,35  L 7,34  L 10,34  L 10,33  L 15,33  L 15,32  L 20,32  L 20,31  L 26,31  L 26,30  L 34,30  L 34,29  L 37,29  L 37,28  L 42,28  L 42,31  L 41,31  L 41,32  L 40,32  L 40,33  L 39,33  L 39,34  L 38,34  L 38,35  L 37,35  L 37,36  L 35,36  L 35,38  L 34,38  L 34,39  L 33,39  L 33,40  L 32,40  L 32,41  L 31,41  L 31,42  L 30,42  L 30,44  L 28,44  L 28,47  L 27,47  L 27,48  L 26,48  L 26,50  L 25,50  L 25,51  L 24,51  L 24,53  L 23,53  L 23,54  L 22,54  L 22,55  L 21,55  L 21,56  L 20,56  L 20,57  L 19,57  L 19,58  L 18,58  L 18,59  L 17,59  L 17,60  L 16,60  L 16,61  L 15,61  L 15,62  L 14,62  L 14,63  L 13,63  L 13,65  L 12,65  L 12,66  L 10,66  L 10,67  L 9,67  L 9,68  L 8,68  L 8,69  L 7,69  L 7,70  L 6,70  L 6,71  L 5,71  L 5,75  L 6,75  L 6,77  L 9,77  L 9,76  L 10,76  L 10,75  L 11,75  L 11,74  L 12,74  L 12,73  L 13,73  L 13,72  L 14,72  L 14,71  L 15,71  L 15,70  L 16,70  L 16,69  L 17,69  L 17,67  L 19,67  L 19,66  L 20,66  L 20,64  L 21,64  L 21,63  L 22,63  L 22,62  L 23,62  L 23,61  L 24,61  L 24,60  L 25,60  L 25,59  L 26,59  L 26,58  L 27,58  L 27,57  L 28,57  L 28,55  L 29,55  L 29,54  L 31,54  L 31,53  L 32,53  L 32,54  L 33,54  L 33,55  L 34,55  L 34,56  L 35,56  L 35,57  L 36,57  L 36,58  L 38,58  Z  " style="fill:rgb(0, 0, 0); fill-opacity:1.000; stroke:none;" />
 <path d="  M 58,116  L 60,116  L 60,117  L 62,117  L 62,118  L 63,118  L 63,119  L 65,119  L 65,120  L 66,120  L 66,121  L 68,121  L 68,122  L 70,122  L 70,123  L 72,123  L 72,124  L 74,124  L 74,125  L 75,125  L 75,126  L 77,126  L 77,127  L 78,127  L 78,128  L 80,128  L 80,129  L 82,129  L 82,130  L 83,130  L 83,131  L 85,131  L 85,132  L 88,132  L 88,133  L 90,133  L 90,134  L 94,134  L 94,133  L 96,133  L 96,132  L 97,132  L 97,131  L 99,131  L 99,130  L 97,130  L 97,128  L 95,128  L 95,127  L 93,127  L 93,126  L 91,126  L 91,125  L 88,125  L 88,124  L 85,124  L 85,123  L 84,123  L 84,122  L 83,122  L 83,121  L 81,121  L 81,120  L 79,120  L 79,119  L 78,119  L 78,118  L 76,118  L 76,117  L 73,117  L 73,116  L 72,116  L 72,115  L 70,115  L 70,114  L 68,114  L 68,113  L 66,113  L 66,112  L 65,112  L 65,111  L 64,111  L 64,110  L 62,110  L 62,109  L 60,109  L 60,108  L 59,108  L 59,107  L 58,107  L 58,106  L 57,106  L 57,105  L 56,105  L 56,104  L 54,104  L 54,101  L 55,101  L 55,99  L 57,99  L 57,95  L 58,95  L 58,93  L 59,93  L 59,89  L 58,89  L 58,88  L 57,88  L 57,87  L 56,87  L 56,88  L 54,88  L 54,89  L 53,89  L 53,90  L 52,90  L 52,92  L 51,92  L 51,94  L 50,94  L 50,96  L 49,96  L 49,97  L 48,97  L 48,99  L 47,99  L 47,100  L 46,100  L 46,101  L 45,101  L 45,103  L 44,103  L 44,104  L 43,104  L 43,106  L 42,106  L 42,108  L 41,108  L 41,110  L 40,110  L 40,111  L 39,111  L 39,112  L 38,112  L 38,114  L 37,114  L 37,117  L 36,117  L 36,118  L 35,118  L 35,119  L 34,119  L 34,121  L 33,121  L 33,123  L 32,123  L 32,125  L 31,125  L 31,126  L 30,126  L 30,128  L 29,128  L 29,129  L 28,129  L 28,130  L 27,130  L 27,131  L 26,131  L 26,132  L 25,132  L 25,133  L 24,133  L 24,135  L 23,135  L 23,136  L 22,136  L 22,141  L 27,141  L 27,140  L 28,140  L 28,139  L 29,139  L 29,138  L 30,138  L 30,137  L 31,137  L 31,136  L 32,136  L 32,134  L 34,134  L 34,132  L 35,132  L 35,131  L 36,131  L 36,130  L 37,130  L 37,128  L 38,128  L 38,127  L 39,127  L 39,125  L 40,125  L 40,123  L 41,123  L 41,121  L 42,121  L 42,120  L 43,120  L 43,118  L 44,118  L 44,116  L 45,116  L 45,115  L 46,115  L 46,114  L 47,114  L 47,112  L 48,112  L 48,110  L 49,110  L 49,109  L 51,109  L 51,110  L 52,110  L 52,111  L 53,111  L 53,112  L 54,112  L 54,113  L 56,113  L 56,114  L 57,114  L 57,115  L 58,115  Z  " style="fill:rgb(0, 0, 0); fill-opacity:1.000; stroke:none;" />
 <path d="  M 33,6  L 33,5  L 32,5  L 32,2  L 31,2  L 31,1  L 30,1  L 30,0  L 29,0  L 29,1  L 28,1  L 28,2  L 27,2  L 27,3  L 26,3  L 26,11  L 27,11  L 27,17  L 28,17  L 28,18  L 30,18  L 30,19  L 31,19  L 31,18  L 32,18  L 32,6  Z  " style="fill:rgb(0, 0, 0); fill-opacity:1.000; stroke:none;" />
 <path d="  M 75,67  L 76,67  L 76,79  L 78,79  L 78,80  L 81,80  L 81,79  L 82,79  L 82,66  L 81,66  L 81,65  L 82,65  L 82,64  L 81,64  L 81,46  L 80,46  L 80,43  L 79,43  L 79,42  L 80,42  L 80,40  L 81,40  L 81,39  L 86,39  L 86,38  L 100,38  L 100,37  L 101,37  L 101,38  L 102,38  L 102,37  L 105,37  L 105,38  L 106,38  L 106,37  L 107,37  L 107,38  L 109,38  L 109,31  L 100,31  L 100,30  L 99,30  L 99,31  L 82,31  L 82,32  L 80,32  L 80,31  L 79,31  L 79,30  L 78,30  L 78,29  L 79,29  L 79,28  L 78,28  L 78,22  L 77,22  L 77,21  L 78,21  L 78,20  L 77,20  L 77,14  L 76,14  L 76,9  L 75,9  L 75,5  L 74,5  L 74,4  L 73,4  L 73,3  L 70,3  L 70,4  L 69,4  L 69,7  L 70,7  L 70,13  L 71,13  L 71,18  L 72,18  L 72,25  L 73,25  L 73,38  L 74,38  L 74,49  L 75,49  Z  " style="fill:rgb(0, 0, 0); fill-opacity:1.000; stroke:none;" />
</svg>
