<?xml version="1.0" encoding="UTF-8" standalone="no"?>
<!DOCTYPE svg PUBLIC "-//W3C//DTD SVG 1.1//EN" 
  "http://www.w3.org/Graphics/SVG/1.1/DTD/svg11.dtd">
<svg width="110" height="148"
     xmlns="http://www.w3.org/2000/svg" version="1.1">
 <path d="  M 45,27  L 45,26  L 43,26  L 43,25  L 41,25  L 41,24  L 36,24  L 36,25  L 30,25  L 30,26  L 26,26  L 26,27  L 19,27  L 19,28  L 15,28  L 15,29  L 10,29  L 10,30  L 6,30  L 6,31  L 5,31  L 5,30  L 2,30  L 2,31  L 1,31  L 1,32  L 0,32  L 0,33  L 1,33  L 1,35  L 2,35  L 2,36  L 8,36  L 8,35  L 12,35  L 12,34  L 16,34  L 16,33  L 17,33  L 17,34  L 18,34  L 18,33  L 24,33  L 24,32  L 33,32  L 33,31  L 37,31  L 37,30  L 40,30  L 40,31  L 41,31  L 41,32  L 40,32  L 40,33  L 39,33  L 39,34  L 38,34  L 38,35  L 37,35  L 37,36  L 36,36  L 36,37  L 35,37  L 35,38  L 34,38  L 34,39  L 33,39  L 33,40  L 32,40  L 32,42  L 31,42  L 31,43  L 30,43  L 30,44  L 29,44  L 29,45  L 28,45  L 28,47  L 27,47  L 27,48  L 26,48  L 26,50  L 25,50  L 25,51  L 24,51  L 24,52  L 23,52  L 23,53  L 22,53  L 22,55  L 21,55  L 21,56  L 20,56  L 20,57  L 19,57  L 19,58  L 18,58  L 18,59  L 17,59  L 17,60  L 16,60  L 16,61  L 15,61  L 15,62  L 14,62  L 14,63  L 13,63  L 13,65  L 12,65  L 12,66  L 11,66  L 11,67  L 10,67  L 10,68  L 9,68  L 9,69  L 8,69  L 8,72  L 9,72  L 9,74  L 14,74  L 14,73  L 15,73  L 15,72  L 16,72  L 16,71  L 17,71  L 17,69  L 18,69  L 18,68  L 19,68  L 19,67  L 20,67  L 20,65  L 21,65  L 21,64  L 22,64  L 22,62  L 23,62  L 23,61  L 24,61  L 24,60  L 25,60  L 25,59  L 26,59  L 26,57  L 27,57  L 27,56  L 32,56  L 32,58  L 33,58  L 33,59  L 34,59  L 34,60  L 36,60  L 36,61  L 37,61  L 37,62  L 38,62  L 38,63  L 39,63  L 39,64  L 40,64  L 40,65  L 41,65  L 41,66  L 42,66  L 42,67  L 45,67  L 45,68  L 46,68  L 46,69  L 47,69  L 47,70  L 48,70  L 48,71  L 49,71  L 49,72  L 51,72  L 51,73  L 56,73  L 56,67  L 55,67  L 55,66  L 53,66  L 53,65  L 51,65  L 51,64  L 50,64  L 50,63  L 48,63  L 48,62  L 47,62  L 47,61  L 45,61  L 45,60  L 44,60  L 44,59  L 43,59  L 43,58  L 42,58  L 42,56  L 40,56  L 40,55  L 39,55  L 39,54  L 38,54  L 38,53  L 37,53  L 37,52  L 35,52  L 35,47  L 36,47  L 36,46  L 37,46  L 37,44  L 38,44  L 38,43  L 39,43  L 39,42  L 40,42  L 40,41  L 41,41  L 41,40  L 42,40  L 42,38  L 43,38  L 43,37  L 44,37  L 44,36  L 45,36  L 45,35  L 46,35  L 46,34  L 47,34  L 47,30  L 46,30  L 46,27  Z  " style="fill:rgb(0, 0, 0); fill-opacity:1.000; stroke:none;" />
 <path d="  M 24,7  L 23,7  L 23,8  L 24,8  L 24,9  L 25,9  L 25,11  L 26,11  L 26,16  L 27,16  L 27,17  L 26,17  L 26,18  L 27,18  L 27,20  L 29,20  L 29,21  L 30,21  L 30,22  L 31,22  L 31,21  L 32,21  L 32,16  L 31,16  L 31,15  L 32,15  L 32,14  L 31,14  L 31,8  L 32,8  L 32,7  L 31,7  L 31,3  L 29,3  L 29,4  L 27,4  L 27,5  L 25,5  L 25,6  L 24,6  Z  " style="fill:rgb(0, 0, 0); fill-opacity:1.000; stroke:none;" />
 <path d="  M 73,99  L 73,101  L 72,101  L 72,102  L 71,102  L 71,104  L 70,104  L 70,106  L 69,106  L 69,107  L 67,107  L 67,109  L 66,109  L 66,110  L 65,110  L 65,111  L 64,111  L 64,113  L 62,113  L 62,115  L 61,115  L 61,116  L 60,116  L 60,118  L 59,118  L 59,119  L 58,119  L 58,120  L 57,120  L 57,121  L 56,121  L 56,123  L 55,123  L 55,124  L 54,124  L 54,126  L 53,126  L 53,128  L 51,128  L 51,130  L 50,130  L 50,131  L 49,131  L 49,133  L 48,133  L 48,134  L 47,134  L 47,135  L 46,135  L 46,136  L 45,136  L 45,137  L 44,137  L 44,138  L 43,138  L 43,139  L 42,139  L 42,141  L 41,141  L 41,142  L 39,142  L 39,143  L 38,143  L 38,144  L 37,144  L 37,146  L 36,146  L 36,148  L 42,148  L 42,147  L 43,147  L 43,146  L 44,146  L 44,145  L 45,145  L 45,144  L 46,144  L 46,143  L 47,143  L 47,142  L 48,142  L 48,141  L 50,141  L 50,140  L 51,140  L 51,138  L 52,138  L 52,137  L 53,137  L 53,136  L 54,136  L 54,134  L 56,134  L 56,132  L 58,132  L 58,130  L 59,130  L 59,129  L 60,129  L 60,128  L 61,128  L 61,127  L 62,127  L 62,125  L 63,125  L 63,124  L 68,124  L 68,125  L 70,125  L 70,126  L 72,126  L 72,127  L 73,127  L 73,128  L 75,128  L 75,129  L 78,129  L 78,130  L 80,130  L 80,131  L 83,131  L 83,132  L 84,132  L 84,133  L 86,133  L 86,134  L 89,134  L 89,135  L 91,135  L 91,136  L 93,136  L 93,137  L 95,137  L 95,138  L 96,138  L 96,137  L 97,137  L 97,138  L 99,138  L 99,137  L 100,137  L 100,136  L 101,136  L 101,134  L 100,134  L 100,132  L 98,132  L 98,131  L 97,131  L 97,130  L 96,130  L 96,129  L 93,129  L 93,128  L 91,128  L 91,127  L 88,127  L 88,126  L 86,126  L 86,125  L 83,125  L 83,124  L 81,124  L 81,123  L 79,123  L 79,122  L 78,122  L 78,121  L 75,121  L 75,120  L 72,120  L 72,119  L 69,119  L 69,116  L 70,116  L 70,114  L 71,114  L 71,113  L 74,113  L 74,111  L 75,111  L 75,110  L 76,110  L 76,108  L 77,108  L 77,107  L 78,107  L 78,106  L 79,106  L 79,103  L 80,103  L 80,101  L 81,101  L 81,97  L 80,97  L 80,96  L 79,96  L 79,95  L 77,95  L 77,94  L 72,94  L 72,93  L 63,93  L 63,94  L 54,94  L 54,95  L 45,95  L 45,96  L 44,96  L 44,95  L 43,95  L 43,96  L 39,96  L 39,97  L 37,97  L 37,98  L 36,98  L 36,99  L 35,99  L 35,100  L 36,100  L 36,101  L 37,101  L 37,102  L 42,102  L 42,101  L 48,101  L 48,100  L 49,100  L 49,101  L 51,101  L 51,100  L 64,100  L 64,99  Z  " style="fill:rgb(0, 0, 0); fill-opacity:1.000; stroke:none;" />
 <path d="  M 76,64  L 77,64  L 77,71  L 78,71  L 78,72  L 77,72  L 77,73  L 78,73  L 78,80  L 79,80  L 79,82  L 80,82  L 80,83  L 83,83  L 83,82  L 84,82  L 84,81  L 83,81  L 83,80  L 84,80  L 84,77  L 83,77  L 83,76  L 84,76  L 84,75  L 83,75  L 83,61  L 82,61  L 82,45  L 81,45  L 81,42  L 80,42  L 80,41  L 81,41  L 81,39  L 82,39  L 82,38  L 84,38  L 84,37  L 89,37  L 89,36  L 105,36  L 105,35  L 110,35  L 110,30  L 109,30  L 109,29  L 101,29  L 101,30  L 100,30  L 100,29  L 99,29  L 99,30  L 83,30  L 83,31  L 81,31  L 81,30  L 80,30  L 80,26  L 79,26  L 79,17  L 78,17  L 78,13  L 77,13  L 77,12  L 78,12  L 78,11  L 77,11  L 77,5  L 76,5  L 76,1  L 75,1  L 75,0  L 71,0  L 71,1  L 70,1  L 70,8  L 71,8  L 71,13  L 72,13  L 72,18  L 73,18  L 73,22  L 74,22  L 74,32  L 75,32  L 75,34  L 74,34  L 74,36  L 75,36  L 75,46  L 76,46  Z  " style="fill:rgb(0, 0, 0); fill-opacity:1.000; stroke:none;" />
</svg>
