<?xml version="1.0" encoding="UTF-8" standalone="no"?>
<!DOCTYPE svg PUBLIC "-//W3C//DTD SVG 1.1//EN" 
  "http://www.w3.org/Graphics/SVG/1.1/DTD/svg11.dtd">
<svg width="102" height="96"
     xmlns="http://www.w3.org/2000/svg" version="1.1">
 <path d="  M 39,23  L 40,23  L 40,22  L 38,22  L 38,21  L 37,21  L 37,20  L 34,20  L 34,21  L 30,21  L 30,22  L 26,22  L 26,23  L 22,23  L 22,24  L 18,24  L 18,25  L 15,25  L 15,26  L 12,26  L 12,27  L 11,27  L 11,26  L 10,26  L 10,27  L 5,27  L 5,28  L 1,28  L 1,29  L 0,29  L 0,33  L 1,33  L 1,34  L 9,34  L 9,33  L 14,33  L 14,32  L 15,32  L 15,33  L 16,33  L 16,32  L 21,32  L 21,31  L 25,31  L 25,30  L 30,30  L 30,29  L 35,29  L 35,28  L 37,28  L 37,27  L 38,27  L 38,25  L 39,25  Z  " style="fill:rgb(0, 0, 0); fill-opacity:1.000; stroke:none;" />
 <path d="  M 49,63  L 49,62  L 48,62  L 48,61  L 47,61  L 47,60  L 46,60  L 46,59  L 45,59  L 45,58  L 44,58  L 44,57  L 43,57  L 43,56  L 42,56  L 42,55  L 41,55  L 41,54  L 40,54  L 40,53  L 39,53  L 39,52  L 37,52  L 37,49  L 38,49  L 38,47  L 39,47  L 39,46  L 40,46  L 40,45  L 41,45  L 41,43  L 42,43  L 42,42  L 43,42  L 43,40  L 44,40  L 44,38  L 45,38  L 45,36  L 46,36  L 46,35  L 47,35  L 47,33  L 48,33  L 48,32  L 49,32  L 49,31  L 50,31  L 50,30  L 51,30  L 51,27  L 52,27  L 52,24  L 51,24  L 51,23  L 50,23  L 50,21  L 49,21  L 49,20  L 48,20  L 48,19  L 46,19  L 46,20  L 44,20  L 44,25  L 43,25  L 43,27  L 42,27  L 42,30  L 41,30  L 41,32  L 40,32  L 40,35  L 39,35  L 39,36  L 38,36  L 38,38  L 37,38  L 37,39  L 36,39  L 36,41  L 35,41  L 35,42  L 34,42  L 34,43  L 33,43  L 33,44  L 32,44  L 32,45  L 31,45  L 31,47  L 30,47  L 30,48  L 29,48  L 29,50  L 28,50  L 28,51  L 27,51  L 27,52  L 26,52  L 26,53  L 25,53  L 25,54  L 24,54  L 24,56  L 23,56  L 23,57  L 22,57  L 22,58  L 21,58  L 21,60  L 20,60  L 20,61  L 19,61  L 19,62  L 18,62  L 18,63  L 17,63  L 17,64  L 16,64  L 16,66  L 15,66  L 15,67  L 14,67  L 14,68  L 13,68  L 13,69  L 12,69  L 12,71  L 11,71  L 11,72  L 10,72  L 10,73  L 9,73  L 9,74  L 8,74  L 8,76  L 7,76  L 7,77  L 5,77  L 5,78  L 4,78  L 4,80  L 3,80  L 3,81  L 2,81  L 2,82  L 1,82  L 1,88  L 3,88  L 3,89  L 5,89  L 5,88  L 6,88  L 6,87  L 7,87  L 7,86  L 8,86  L 8,84  L 9,84  L 9,83  L 10,83  L 10,82  L 11,82  L 11,81  L 12,81  L 12,80  L 13,80  L 13,79  L 14,79  L 14,78  L 15,78  L 15,76  L 16,76  L 16,75  L 17,75  L 17,74  L 18,74  L 18,73  L 19,73  L 19,71  L 20,71  L 20,70  L 21,70  L 21,68  L 22,68  L 22,67  L 23,67  L 23,66  L 24,66  L 24,65  L 25,65  L 25,64  L 26,64  L 26,63  L 27,63  L 27,61  L 28,61  L 28,60  L 29,60  L 29,58  L 30,58  L 30,55  L 33,55  L 33,57  L 34,57  L 34,58  L 35,58  L 35,59  L 36,59  L 36,60  L 37,60  L 37,61  L 38,61  L 38,62  L 40,62  L 40,63  L 41,63  L 41,64  L 42,64  L 42,65  L 43,65  L 43,66  L 44,66  L 44,67  L 45,67  L 45,68  L 46,68  L 46,69  L 48,69  L 48,70  L 49,70  L 49,71  L 50,71  L 50,72  L 51,72  L 51,74  L 53,74  L 53,76  L 54,76  L 54,77  L 55,77  L 55,78  L 57,78  L 57,79  L 59,79  L 59,78  L 61,78  L 61,72  L 60,72  L 60,71  L 59,71  L 59,70  L 58,70  L 58,69  L 57,69  L 57,68  L 56,68  L 56,67  L 55,67  L 55,66  L 53,66  L 53,65  L 52,65  L 52,64  L 51,64  L 51,63  Z  " style="fill:rgb(0, 0, 0); fill-opacity:1.000; stroke:none;" />
 <path d="  M 24,8  L 23,8  L 23,11  L 33,11  L 33,12  L 38,12  L 38,13  L 41,13  L 41,12  L 42,12  L 42,9  L 41,9  L 41,8  L 40,8  L 40,7  L 39,7  L 39,6  L 36,6  L 36,5  L 35,5  L 35,4  L 32,4  L 32,3  L 30,3  L 30,2  L 28,2  L 28,3  L 27,3  L 27,2  L 24,2  Z  " style="fill:rgb(0, 0, 0); fill-opacity:1.000; stroke:none;" />
 <path d="  M 70,39  L 71,39  L 71,53  L 72,53  L 72,54  L 71,54  L 71,55  L 72,55  L 72,95  L 73,95  L 73,96  L 78,96  L 78,63  L 79,63  L 79,62  L 97,62  L 97,60  L 98,60  L 98,59  L 99,59  L 99,58  L 98,58  L 98,56  L 97,56  L 97,55  L 91,55  L 91,54  L 90,54  L 90,55  L 87,55  L 87,54  L 86,54  L 86,55  L 84,55  L 84,54  L 82,54  L 82,55  L 80,55  L 80,54  L 79,54  L 79,53  L 78,53  L 78,46  L 77,46  L 77,41  L 78,41  L 78,40  L 77,40  L 77,34  L 78,34  L 78,33  L 81,33  L 81,34  L 84,34  L 84,33  L 85,33  L 85,34  L 87,34  L 87,33  L 88,33  L 88,34  L 102,34  L 102,30  L 101,30  L 101,29  L 99,29  L 99,28  L 98,28  L 98,27  L 97,27  L 97,28  L 96,28  L 96,27  L 89,27  L 89,26  L 88,26  L 88,27  L 87,27  L 87,26  L 86,26  L 86,27  L 85,27  L 85,26  L 81,26  L 81,27  L 76,27  L 76,25  L 75,25  L 75,13  L 76,13  L 76,12  L 75,12  L 75,11  L 76,11  L 76,8  L 75,8  L 75,6  L 76,6  L 76,3  L 75,3  L 75,1  L 73,1  L 73,0  L 72,0  L 72,1  L 70,1  L 70,2  L 69,2  L 69,4  L 68,4  L 68,12  L 69,12  L 69,23  L 70,23  Z  " style="fill:rgb(0, 0, 0); fill-opacity:1.000; stroke:none;" />
</svg>
