<?xml version="1.0" encoding="UTF-8" standalone="no"?>
<!DOCTYPE svg PUBLIC "-//W3C//DTD SVG 1.1//EN" 
  "http://www.w3.org/Graphics/SVG/1.1/DTD/svg11.dtd">
<svg width="108" height="131"
     xmlns="http://www.w3.org/2000/svg" version="1.1">
 <path d="  M 42,68  L 44,68  L 44,69  L 45,69  L 45,70  L 46,70  L 46,71  L 47,71  L 47,72  L 48,72  L 48,73  L 50,73  L 50,74  L 52,74  L 52,75  L 58,75  L 58,74  L 60,74  L 60,71  L 59,71  L 59,70  L 58,70  L 58,69  L 57,69  L 57,68  L 56,68  L 56,67  L 53,67  L 53,66  L 52,66  L 52,65  L 50,65  L 50,64  L 48,64  L 48,63  L 47,63  L 47,62  L 46,62  L 46,61  L 45,61  L 45,60  L 44,60  L 44,59  L 43,59  L 43,58  L 41,58  L 41,57  L 40,57  L 40,56  L 39,56  L 39,55  L 38,55  L 38,54  L 37,54  L 37,53  L 36,53  L 36,52  L 35,52  L 35,50  L 34,50  L 34,49  L 33,49  L 33,48  L 34,48  L 34,46  L 35,46  L 35,45  L 36,45  L 36,43  L 37,43  L 37,42  L 38,42  L 38,41  L 39,41  L 39,40  L 40,40  L 40,39  L 41,39  L 41,38  L 42,38  L 42,36  L 43,36  L 43,35  L 44,35  L 44,33  L 45,33  L 45,31  L 46,31  L 46,25  L 44,25  L 44,24  L 43,24  L 43,23  L 40,23  L 40,22  L 39,22  L 39,23  L 34,23  L 34,24  L 30,24  L 30,25  L 23,25  L 23,26  L 20,26  L 20,25  L 19,25  L 19,26  L 17,26  L 17,27  L 11,27  L 11,28  L 6,28  L 6,29  L 5,29  L 5,28  L 1,28  L 1,30  L 0,30  L 0,31  L 1,31  L 1,33  L 2,33  L 2,35  L 6,35  L 6,34  L 10,34  L 10,33  L 16,33  L 16,32  L 20,32  L 20,31  L 21,31  L 21,32  L 22,32  L 22,31  L 29,31  L 29,30  L 35,30  L 35,29  L 39,29  L 39,31  L 38,31  L 38,33  L 37,33  L 37,34  L 35,34  L 35,36  L 34,36  L 34,37  L 33,37  L 33,38  L 32,38  L 32,39  L 31,39  L 31,40  L 30,40  L 30,41  L 29,41  L 29,42  L 28,42  L 28,44  L 27,44  L 27,45  L 26,45  L 26,47  L 25,47  L 25,48  L 24,48  L 24,49  L 23,49  L 23,50  L 22,50  L 22,51  L 21,51  L 21,53  L 20,53  L 20,54  L 18,54  L 18,56  L 17,56  L 17,57  L 16,57  L 16,58  L 15,58  L 15,59  L 14,59  L 14,60  L 13,60  L 13,61  L 12,61  L 12,62  L 11,62  L 11,63  L 10,63  L 10,64  L 8,64  L 8,65  L 7,65  L 7,66  L 6,66  L 6,67  L 4,67  L 4,71  L 5,71  L 5,73  L 9,73  L 9,72  L 11,72  L 11,71  L 12,71  L 12,70  L 13,70  L 13,69  L 14,69  L 14,68  L 15,68  L 15,67  L 17,67  L 17,65  L 18,65  L 18,64  L 19,64  L 19,63  L 20,63  L 20,62  L 21,62  L 21,61  L 22,61  L 22,59  L 24,59  L 24,58  L 25,58  L 25,57  L 26,57  L 26,55  L 28,55  L 28,54  L 30,54  L 30,55  L 31,55  L 31,57  L 32,57  L 32,59  L 34,59  L 34,61  L 37,61  L 37,62  L 38,62  L 38,64  L 39,64  L 39,65  L 40,65  L 40,66  L 41,66  L 41,67  L 42,67  Z  " style="fill:rgb(0, 0, 0); fill-opacity:1.000; stroke:none;" />
 <path d="  M 24,5  L 23,5  L 23,6  L 24,6  L 24,11  L 25,11  L 25,15  L 26,15  L 26,16  L 28,16  L 28,17  L 29,17  L 29,16  L 30,16  L 30,9  L 31,9  L 31,8  L 30,8  L 30,6  L 31,6  L 31,1  L 27,1  L 27,2  L 25,2  L 25,3  L 24,3  Z  " style="fill:rgb(0, 0, 0); fill-opacity:1.000; stroke:none;" />
 <path d="  M 39,124  L 39,123  L 37,123  L 37,120  L 36,120  L 36,116  L 35,116  L 35,109  L 34,109  L 34,101  L 33,101  L 33,91  L 32,91  L 32,90  L 30,90  L 30,89  L 28,89  L 28,91  L 27,91  L 27,93  L 26,93  L 26,94  L 27,94  L 27,106  L 28,106  L 28,113  L 29,113  L 29,119  L 30,119  L 30,125  L 31,125  L 31,126  L 32,126  L 32,128  L 33,128  L 33,129  L 34,129  L 34,130  L 35,130  L 35,131  L 50,131  L 50,130  L 58,130  L 58,129  L 68,129  L 68,128  L 76,128  L 76,127  L 88,127  L 88,126  L 92,126  L 92,125  L 94,125  L 94,124  L 95,124  L 95,123  L 96,123  L 96,119  L 86,119  L 86,120  L 75,120  L 75,121  L 65,121  L 65,122  L 64,122  L 64,121  L 63,121  L 63,122  L 59,122  L 59,123  L 50,123  L 50,124  Z  " style="fill:rgb(0, 0, 0); fill-opacity:1.000; stroke:none;" />
 <path d="  M 79,72  L 78,72  L 78,62  L 77,62  L 77,61  L 78,61  L 78,59  L 80,59  L 80,58  L 83,58  L 83,57  L 88,57  L 88,56  L 89,56  L 89,57  L 90,57  L 90,56  L 95,56  L 95,55  L 104,55  L 104,54  L 106,54  L 106,53  L 108,53  L 108,48  L 107,48  L 107,47  L 105,47  L 105,48  L 93,48  L 93,49  L 87,49  L 87,50  L 85,50  L 85,49  L 84,49  L 84,50  L 82,50  L 82,51  L 79,51  L 79,52  L 77,52  L 77,50  L 76,50  L 76,49  L 77,49  L 77,47  L 76,47  L 76,39  L 77,39  L 77,38  L 87,38  L 87,37  L 99,37  L 99,36  L 100,36  L 100,32  L 99,32  L 99,31  L 88,31  L 88,30  L 87,30  L 87,31  L 80,31  L 80,30  L 79,30  L 79,31  L 76,31  L 76,30  L 75,30  L 75,21  L 74,21  L 74,20  L 75,20  L 75,19  L 74,19  L 74,15  L 73,15  L 73,14  L 74,14  L 74,13  L 73,13  L 73,7  L 72,7  L 72,2  L 71,2  L 71,1  L 70,1  L 70,0  L 68,0  L 68,1  L 67,1  L 67,16  L 68,16  L 68,23  L 69,23  L 69,24  L 68,24  L 68,27  L 69,27  L 69,30  L 68,30  L 68,31  L 69,31  L 69,33  L 68,33  L 68,34  L 69,34  L 69,44  L 70,44  L 70,58  L 71,58  L 71,64  L 72,64  L 72,71  L 73,71  L 73,79  L 74,79  L 74,83  L 75,83  L 75,84  L 76,84  L 76,85  L 79,85  L 79,84  L 80,84  L 80,79  L 79,79  Z  " style="fill:rgb(0, 0, 0); fill-opacity:1.000; stroke:none;" />
</svg>
