<?xml version="1.0" encoding="UTF-8" standalone="no"?>
<!DOCTYPE svg PUBLIC "-//W3C//DTD SVG 1.1//EN" 
  "http://www.w3.org/Graphics/SVG/1.1/DTD/svg11.dtd">
<svg width="101" height="175"
     xmlns="http://www.w3.org/2000/svg" version="1.1">
 <path d="  M 16,30  L 16,31  L 15,31  L 15,30  L 13,30  L 13,31  L 9,31  L 9,32  L 5,32  L 5,33  L 2,33  L 2,34  L 1,34  L 1,36  L 0,36  L 0,39  L 1,39  L 1,40  L 6,40  L 6,39  L 8,39  L 8,38  L 11,38  L 11,37  L 18,37  L 18,36  L 27,36  L 27,35  L 28,35  L 28,36  L 29,36  L 29,35  L 31,35  L 31,34  L 34,34  L 34,33  L 40,33  L 40,34  L 41,34  L 41,38  L 40,38  L 40,41  L 39,41  L 39,43  L 38,43  L 38,45  L 37,45  L 37,46  L 36,46  L 36,47  L 35,47  L 35,49  L 34,49  L 34,50  L 33,50  L 33,51  L 32,51  L 32,52  L 31,52  L 31,54  L 30,54  L 30,55  L 29,55  L 29,57  L 28,57  L 28,58  L 27,58  L 27,60  L 26,60  L 26,61  L 25,61  L 25,63  L 24,63  L 24,64  L 23,64  L 23,65  L 22,65  L 22,66  L 21,66  L 21,68  L 20,68  L 20,69  L 18,69  L 18,70  L 17,70  L 17,71  L 16,71  L 16,72  L 15,72  L 15,73  L 14,73  L 14,74  L 13,74  L 13,75  L 12,75  L 12,76  L 9,76  L 9,77  L 8,77  L 8,78  L 7,78  L 7,79  L 4,79  L 4,80  L 3,80  L 3,82  L 2,82  L 2,87  L 3,87  L 3,88  L 4,88  L 4,89  L 7,89  L 7,88  L 8,88  L 8,87  L 9,87  L 9,86  L 11,86  L 11,85  L 12,85  L 12,84  L 13,84  L 13,83  L 14,83  L 14,82  L 16,82  L 16,81  L 17,81  L 17,80  L 18,80  L 18,79  L 19,79  L 19,78  L 20,78  L 20,77  L 21,77  L 21,76  L 22,76  L 22,75  L 23,75  L 23,74  L 24,74  L 24,73  L 25,73  L 25,72  L 26,72  L 26,71  L 27,71  L 27,70  L 28,70  L 28,69  L 29,69  L 29,67  L 30,67  L 30,66  L 33,66  L 33,67  L 34,67  L 34,68  L 35,68  L 35,70  L 38,70  L 38,71  L 40,71  L 40,72  L 42,72  L 42,73  L 43,73  L 43,74  L 45,74  L 45,75  L 47,75  L 47,76  L 48,76  L 48,77  L 49,77  L 49,79  L 50,79  L 50,80  L 51,80  L 51,82  L 53,82  L 53,84  L 55,84  L 55,86  L 56,86  L 56,87  L 59,87  L 59,88  L 60,88  L 60,87  L 61,87  L 61,85  L 62,85  L 62,82  L 61,82  L 61,80  L 60,80  L 60,79  L 59,79  L 59,78  L 58,78  L 58,77  L 57,77  L 57,76  L 56,76  L 56,75  L 55,75  L 55,74  L 54,74  L 54,73  L 53,73  L 53,72  L 52,72  L 52,71  L 51,71  L 51,70  L 50,70  L 50,69  L 49,69  L 49,68  L 47,68  L 47,67  L 46,67  L 46,66  L 45,66  L 45,65  L 43,65  L 43,64  L 42,64  L 42,63  L 40,63  L 40,62  L 39,62  L 39,61  L 38,61  L 38,60  L 37,60  L 37,59  L 38,59  L 38,57  L 39,57  L 39,54  L 40,54  L 40,53  L 41,53  L 41,52  L 42,52  L 42,51  L 43,51  L 43,50  L 44,50  L 44,49  L 45,49  L 45,47  L 46,47  L 46,44  L 47,44  L 47,42  L 48,42  L 48,38  L 49,38  L 49,25  L 48,25  L 48,24  L 43,24  L 43,23  L 42,23  L 42,24  L 36,24  L 36,25  L 33,25  L 33,26  L 31,26  L 31,27  L 30,27  L 30,28  L 26,28  L 26,29  L 20,29  L 20,30  Z  " style="fill:rgb(0, 0, 0); fill-opacity:1.000; stroke:none;" />
 <path d="  M 30,5  L 30,4  L 29,4  L 29,3  L 24,3  L 24,4  L 22,4  L 22,11  L 23,11  L 23,13  L 24,13  L 24,15  L 25,15  L 25,17  L 26,17  L 26,18  L 28,18  L 28,19  L 31,19  L 31,20  L 32,20  L 32,17  L 33,17  L 33,15  L 32,15  L 32,6  L 31,6  L 31,5  Z  " style="fill:rgb(0, 0, 0); fill-opacity:1.000; stroke:none;" />
 <path d="  M 57,168  L 57,169  L 56,169  L 56,168  L 46,168  L 46,167  L 41,167  L 41,166  L 39,166  L 39,165  L 38,165  L 38,164  L 37,164  L 37,158  L 36,158  L 36,157  L 37,157  L 37,155  L 38,155  L 38,153  L 39,153  L 39,152  L 40,152  L 40,151  L 41,151  L 41,150  L 43,150  L 43,149  L 46,149  L 46,148  L 48,148  L 48,147  L 51,147  L 51,146  L 53,146  L 53,145  L 56,145  L 56,144  L 58,144  L 58,143  L 60,143  L 60,142  L 63,142  L 63,141  L 66,141  L 66,140  L 67,140  L 67,139  L 69,139  L 69,138  L 72,138  L 72,137  L 73,137  L 73,136  L 75,136  L 75,135  L 77,135  L 77,134  L 79,134  L 79,133  L 80,133  L 80,132  L 82,132  L 82,131  L 83,131  L 83,130  L 84,130  L 84,129  L 85,129  L 85,128  L 86,128  L 86,127  L 87,127  L 87,126  L 88,126  L 88,125  L 89,125  L 89,121  L 88,121  L 88,120  L 87,120  L 87,119  L 86,119  L 86,116  L 85,116  L 85,115  L 84,115  L 84,114  L 83,114  L 83,113  L 82,113  L 82,112  L 81,112  L 81,111  L 79,111  L 79,110  L 76,110  L 76,109  L 73,109  L 73,108  L 71,108  L 71,107  L 67,107  L 67,106  L 63,106  L 63,105  L 59,105  L 59,104  L 58,104  L 58,105  L 55,105  L 55,104  L 54,104  L 54,105  L 51,105  L 51,104  L 50,104  L 50,105  L 44,105  L 44,106  L 40,106  L 40,107  L 38,107  L 38,108  L 36,108  L 36,113  L 37,113  L 37,114  L 41,114  L 41,113  L 45,113  L 45,112  L 50,112  L 50,111  L 56,111  L 56,112  L 58,112  L 58,111  L 59,111  L 59,112  L 64,112  L 64,113  L 67,113  L 67,114  L 69,114  L 69,115  L 72,115  L 72,116  L 73,116  L 73,117  L 74,117  L 74,118  L 76,118  L 76,119  L 77,119  L 77,120  L 78,120  L 78,121  L 79,121  L 79,123  L 78,123  L 78,124  L 77,124  L 77,126  L 75,126  L 75,127  L 74,127  L 74,128  L 72,128  L 72,129  L 69,129  L 69,130  L 67,130  L 67,131  L 65,131  L 65,132  L 63,132  L 63,133  L 61,133  L 61,134  L 59,134  L 59,135  L 57,135  L 57,136  L 54,136  L 54,138  L 50,138  L 50,139  L 47,139  L 47,140  L 45,140  L 45,141  L 43,141  L 43,142  L 42,142  L 42,143  L 39,143  L 39,144  L 37,144  L 37,145  L 36,145  L 36,146  L 34,146  L 34,147  L 33,147  L 33,148  L 32,148  L 32,150  L 31,150  L 31,151  L 30,151  L 30,153  L 29,153  L 29,155  L 28,155  L 28,164  L 29,164  L 29,165  L 30,165  L 30,166  L 29,166  L 29,168  L 30,168  L 30,169  L 31,169  L 31,170  L 32,170  L 32,171  L 33,171  L 33,172  L 34,172  L 34,171  L 35,171  L 35,172  L 37,172  L 37,173  L 38,173  L 38,174  L 40,174  L 40,175  L 67,175  L 67,174  L 71,174  L 71,173  L 74,173  L 74,172  L 76,172  L 76,171  L 78,171  L 78,170  L 81,170  L 81,169  L 83,169  L 83,168  L 86,168  L 86,167  L 88,167  L 88,166  L 90,166  L 90,165  L 93,165  L 93,164  L 95,164  L 95,163  L 98,163  L 98,162  L 99,162  L 99,161  L 100,161  L 100,160  L 101,160  L 101,154  L 99,154  L 99,153  L 98,153  L 98,154  L 96,154  L 96,155  L 94,155  L 94,156  L 92,156  L 92,157  L 90,157  L 90,158  L 88,158  L 88,159  L 86,159  L 86,160  L 85,160  L 85,161  L 83,161  L 83,162  L 80,162  L 80,163  L 77,163  L 77,164  L 74,164  L 74,165  L 71,165  L 71,166  L 69,166  L 69,167  L 65,167  L 65,168  Z  " style="fill:rgb(0, 0, 0); fill-opacity:1.000; stroke:none;" />
 <path d="  M 94,0  L 91,0  L 91,1  L 90,1  L 90,19  L 91,19  L 91,27  L 92,27  L 92,38  L 91,38  L 91,39  L 82,39  L 82,40  L 76,40  L 76,41  L 70,41  L 70,42  L 69,42  L 69,43  L 68,43  L 68,42  L 67,42  L 67,43  L 66,43  L 66,44  L 65,44  L 65,45  L 64,45  L 64,46  L 62,46  L 62,47  L 61,47  L 61,48  L 60,48  L 60,50  L 59,50  L 59,51  L 60,51  L 60,52  L 64,52  L 64,51  L 68,51  L 68,50  L 71,50  L 71,49  L 75,49  L 75,48  L 81,48  L 81,47  L 83,47  L 83,48  L 84,48  L 84,47  L 92,47  L 92,48  L 94,48  L 94,52  L 93,52  L 93,53  L 94,53  L 94,56  L 93,56  L 93,57  L 94,57  L 94,68  L 93,68  L 93,69  L 94,69  L 94,72  L 93,72  L 93,73  L 94,73  L 94,76  L 93,76  L 93,78  L 94,78  L 94,79  L 93,79  L 93,90  L 94,90  L 94,91  L 93,91  L 93,94  L 94,94  L 94,95  L 93,95  L 93,97  L 94,97  L 94,99  L 95,99  L 95,100  L 96,100  L 96,101  L 98,101  L 98,100  L 100,100  L 100,97  L 101,97  L 101,92  L 100,92  L 100,91  L 101,91  L 101,88  L 100,88  L 100,86  L 101,86  L 101,36  L 100,36  L 100,35  L 101,35  L 101,34  L 100,34  L 100,33  L 101,33  L 101,32  L 100,32  L 100,24  L 99,24  L 99,23  L 100,23  L 100,22  L 99,22  L 99,15  L 98,15  L 98,4  L 97,4  L 97,2  L 96,2  L 96,1  L 94,1  Z  " style="fill:rgb(0, 0, 0); fill-opacity:1.000; stroke:none;" />
</svg>
