<?xml version="1.0" encoding="UTF-8" standalone="no"?>
<!DOCTYPE svg PUBLIC "-//W3C//DTD SVG 1.1//EN" 
  "http://www.w3.org/Graphics/SVG/1.1/DTD/svg11.dtd">
<svg width="104" height="169"
     xmlns="http://www.w3.org/2000/svg" version="1.1">
 <path d="  M 36,48  L 36,49  L 35,49  L 35,51  L 34,51  L 34,52  L 33,52  L 33,53  L 32,53  L 32,55  L 31,55  L 31,57  L 30,57  L 30,58  L 29,58  L 29,59  L 28,59  L 28,61  L 27,61  L 27,63  L 26,63  L 26,64  L 25,64  L 25,66  L 24,66  L 24,67  L 23,67  L 23,68  L 22,68  L 22,69  L 21,69  L 21,70  L 20,70  L 20,71  L 19,71  L 19,73  L 17,73  L 17,74  L 16,74  L 16,75  L 15,75  L 15,76  L 14,76  L 14,77  L 12,77  L 12,78  L 11,78  L 11,79  L 10,79  L 10,80  L 9,80  L 9,81  L 7,81  L 7,83  L 5,83  L 5,84  L 4,84  L 4,85  L 3,85  L 3,88  L 4,88  L 4,90  L 6,90  L 6,91  L 7,91  L 7,90  L 9,90  L 9,89  L 10,89  L 10,88  L 12,88  L 12,87  L 13,87  L 13,86  L 14,86  L 14,85  L 15,85  L 15,84  L 16,84  L 16,83  L 17,83  L 17,82  L 18,82  L 18,81  L 19,81  L 19,80  L 20,80  L 20,79  L 21,79  L 21,78  L 23,78  L 23,76  L 24,76  L 24,75  L 25,75  L 25,74  L 26,74  L 26,73  L 27,73  L 27,72  L 28,72  L 28,71  L 29,71  L 29,70  L 30,70  L 30,69  L 31,69  L 31,67  L 33,67  L 33,66  L 36,66  L 36,67  L 37,67  L 37,68  L 38,68  L 38,69  L 39,69  L 39,70  L 41,70  L 41,71  L 42,71  L 42,72  L 43,72  L 43,73  L 45,73  L 45,74  L 46,74  L 46,75  L 47,75  L 47,76  L 48,76  L 48,77  L 49,77  L 49,78  L 50,78  L 50,79  L 51,79  L 51,80  L 52,80  L 52,81  L 54,81  L 54,82  L 56,82  L 56,83  L 57,83  L 57,84  L 58,84  L 58,85  L 59,85  L 59,86  L 61,86  L 61,87  L 62,87  L 62,89  L 63,89  L 63,90  L 67,90  L 67,88  L 68,88  L 68,87  L 67,87  L 67,84  L 66,84  L 66,82  L 65,82  L 65,81  L 64,81  L 64,80  L 63,80  L 63,79  L 62,79  L 62,78  L 60,78  L 60,77  L 58,77  L 58,76  L 57,76  L 57,75  L 56,75  L 56,74  L 54,74  L 54,73  L 53,73  L 53,72  L 52,72  L 52,71  L 51,71  L 51,70  L 50,70  L 50,69  L 49,69  L 49,68  L 48,68  L 48,67  L 46,67  L 46,66  L 45,66  L 45,65  L 44,65  L 44,64  L 43,64  L 43,63  L 42,63  L 42,62  L 41,62  L 41,61  L 39,61  L 39,60  L 38,60  L 38,58  L 39,58  L 39,56  L 40,56  L 40,55  L 41,55  L 41,54  L 42,54  L 42,52  L 43,52  L 43,51  L 44,51  L 44,49  L 45,49  L 45,48  L 46,48  L 46,47  L 47,47  L 47,46  L 48,46  L 48,44  L 49,44  L 49,43  L 50,43  L 50,40  L 51,40  L 51,35  L 50,35  L 50,33  L 49,33  L 49,32  L 48,32  L 48,31  L 46,31  L 46,30  L 42,30  L 42,31  L 38,31  L 38,30  L 36,30  L 36,32  L 34,32  L 34,33  L 29,33  L 29,34  L 25,34  L 25,35  L 20,35  L 20,36  L 16,36  L 16,37  L 15,37  L 15,36  L 14,36  L 14,37  L 11,37  L 11,38  L 7,38  L 7,39  L 3,39  L 3,40  L 0,40  L 0,41  L 1,41  L 1,42  L 2,42  L 2,44  L 3,44  L 3,45  L 4,45  L 4,46  L 6,46  L 6,45  L 7,45  L 7,44  L 10,44  L 10,43  L 13,43  L 13,42  L 18,42  L 18,41  L 20,41  L 20,42  L 21,42  L 21,41  L 26,41  L 26,40  L 27,40  L 27,41  L 28,41  L 28,40  L 34,40  L 34,39  L 40,39  L 40,38  L 43,38  L 43,39  L 44,39  L 44,40  L 43,40  L 43,41  L 42,41  L 42,42  L 41,42  L 41,43  L 40,43  L 40,44  L 39,44  L 39,46  L 38,46  L 38,47  L 37,47  L 37,48  Z  " style="fill:rgb(0, 0, 0); fill-opacity:1.000; stroke:none;" />
 <path d="  M 30,24  L 31,24  L 31,27  L 32,27  L 32,28  L 33,28  L 33,29  L 35,29  L 35,30  L 36,30  L 36,29  L 37,29  L 37,28  L 38,28  L 38,26  L 37,26  L 37,20  L 36,20  L 36,15  L 35,15  L 35,14  L 36,14  L 36,13  L 35,13  L 35,10  L 34,10  L 34,8  L 33,8  L 33,5  L 32,5  L 32,4  L 29,4  L 29,5  L 28,5  L 28,6  L 27,6  L 27,8  L 26,8  L 26,11  L 27,11  L 27,15  L 28,15  L 28,18  L 29,18  L 29,21  L 30,21  Z  " style="fill:rgb(0, 0, 0); fill-opacity:1.000; stroke:none;" />
 <path d="  M 95,142  L 96,142  L 96,139  L 97,139  L 97,136  L 98,136  L 98,115  L 99,115  L 99,113  L 98,113  L 98,111  L 97,111  L 97,110  L 93,110  L 93,111  L 92,111  L 92,113  L 91,113  L 91,114  L 92,114  L 92,119  L 91,119  L 91,120  L 92,120  L 92,123  L 91,123  L 91,124  L 92,124  L 92,131  L 91,131  L 91,133  L 53,133  L 53,134  L 52,134  L 52,133  L 45,133  L 45,134  L 43,134  L 43,133  L 42,133  L 42,131  L 41,131  L 41,129  L 42,129  L 42,127  L 41,127  L 41,124  L 42,124  L 42,123  L 41,123  L 41,120  L 42,120  L 42,119  L 41,119  L 41,116  L 42,116  L 42,115  L 41,115  L 41,112  L 42,112  L 42,107  L 41,107  L 41,105  L 40,105  L 40,104  L 37,104  L 37,105  L 35,105  L 35,106  L 34,106  L 34,111  L 33,111  L 33,112  L 34,112  L 34,117  L 33,117  L 33,118  L 34,118  L 34,121  L 33,121  L 33,122  L 34,122  L 34,124  L 33,124  L 33,126  L 34,126  L 34,128  L 33,128  L 33,130  L 34,130  L 34,137  L 33,137  L 33,138  L 34,138  L 34,143  L 35,143  L 35,144  L 34,144  L 34,145  L 35,145  L 35,150  L 36,150  L 36,158  L 37,158  L 37,160  L 36,160  L 36,161  L 37,161  L 37,162  L 38,162  L 38,163  L 37,163  L 37,164  L 38,164  L 38,167  L 40,167  L 40,168  L 43,168  L 43,169  L 73,169  L 73,168  L 78,168  L 78,167  L 80,167  L 80,166  L 82,166  L 82,165  L 86,165  L 86,164  L 89,164  L 89,163  L 90,163  L 90,162  L 92,162  L 92,160  L 93,160  L 93,156  L 94,156  L 94,151  L 95,151  Z  M 88,151  L 87,151  L 87,155  L 86,155  L 86,157  L 85,157  L 85,158  L 84,158  L 84,159  L 81,159  L 81,160  L 77,160  L 77,161  L 73,161  L 73,162  L 70,162  L 70,161  L 69,161  L 69,162  L 66,162  L 66,163  L 63,163  L 63,162  L 62,162  L 62,163  L 46,163  L 46,162  L 45,162  L 45,161  L 44,161  L 44,157  L 43,157  L 43,147  L 42,147  L 42,141  L 48,141  L 48,140  L 49,140  L 49,141  L 52,141  L 52,140  L 53,140  L 53,141  L 54,141  L 54,140  L 57,140  L 57,141  L 58,141  L 58,140  L 61,140  L 61,141  L 62,141  L 62,140  L 65,140  L 65,141  L 66,141  L 66,140  L 69,140  L 69,141  L 70,141  L 70,140  L 73,140  L 73,141  L 74,141  L 74,140  L 77,140  L 77,141  L 78,141  L 78,140  L 87,140  L 87,141  L 88,141  Z  " style="fill:rgb(0, 0, 0); fill-opacity:1.000; stroke:none;" />
 <path d="  M 97,68  L 98,68  L 98,69  L 97,69  L 97,71  L 98,71  L 98,81  L 97,81  L 97,92  L 98,92  L 98,93  L 97,93  L 97,95  L 98,95  L 98,98  L 97,98  L 97,99  L 98,99  L 98,100  L 99,100  L 99,101  L 104,101  L 104,35  L 103,35  L 103,34  L 104,34  L 104,33  L 103,33  L 103,25  L 102,25  L 102,20  L 101,20  L 101,15  L 100,15  L 100,9  L 99,9  L 99,3  L 98,3  L 98,2  L 97,2  L 97,1  L 96,1  L 96,0  L 93,0  L 93,1  L 91,1  L 91,10  L 92,10  L 92,16  L 93,16  L 93,21  L 94,21  L 94,25  L 95,25  L 95,30  L 96,30  L 96,31  L 95,31  L 95,32  L 96,32  L 96,39  L 97,39  L 97,40  L 96,40  L 96,42  L 92,42  L 92,43  L 84,43  L 84,44  L 78,44  L 78,45  L 72,45  L 72,46  L 70,46  L 70,47  L 69,47  L 69,48  L 68,48  L 68,49  L 65,49  L 65,50  L 64,50  L 64,51  L 63,51  L 63,52  L 62,52  L 62,53  L 60,53  L 60,55  L 59,55  L 59,58  L 63,58  L 63,57  L 65,57  L 65,56  L 67,56  L 67,55  L 71,55  L 71,54  L 74,54  L 74,53  L 78,53  L 78,52  L 82,52  L 82,51  L 84,51  L 84,50  L 93,50  L 93,49  L 94,49  L 94,50  L 95,50  L 95,49  L 97,49  L 97,50  L 98,50  L 98,51  L 97,51  L 97,58  L 98,58  L 98,59  L 97,59  L 97,62  L 98,62  L 98,63  L 97,63  Z  " style="fill:rgb(0, 0, 0); fill-opacity:1.000; stroke:none;" />
</svg>
