<?xml version="1.0" encoding="UTF-8" standalone="no"?>
<!DOCTYPE svg PUBLIC "-//W3C//DTD SVG 1.1//EN" 
  "http://www.w3.org/Graphics/SVG/1.1/DTD/svg11.dtd">
<svg width="109" height="158"
     xmlns="http://www.w3.org/2000/svg" version="1.1">
 <path d="  M 66,74  L 65,74  L 65,73  L 64,73  L 64,72  L 63,72  L 63,71  L 61,71  L 61,70  L 59,70  L 59,69  L 58,69  L 58,68  L 57,68  L 57,67  L 56,67  L 56,66  L 55,66  L 55,65  L 54,65  L 54,64  L 52,64  L 52,63  L 51,63  L 51,62  L 49,62  L 49,61  L 48,61  L 48,60  L 46,60  L 46,58  L 44,58  L 44,57  L 42,57  L 42,56  L 39,56  L 39,53  L 40,53  L 40,51  L 41,51  L 41,50  L 42,50  L 42,49  L 43,49  L 43,48  L 44,48  L 44,46  L 45,46  L 45,45  L 46,45  L 46,44  L 47,44  L 47,43  L 48,43  L 48,42  L 49,42  L 49,40  L 50,40  L 50,38  L 51,38  L 51,36  L 52,36  L 52,34  L 53,34  L 53,32  L 52,32  L 52,29  L 51,29  L 51,28  L 50,28  L 50,27  L 49,27  L 49,26  L 47,26  L 47,25  L 46,25  L 46,26  L 45,26  L 45,25  L 44,25  L 44,26  L 41,26  L 41,27  L 38,27  L 38,28  L 34,28  L 34,29  L 30,29  L 30,30  L 24,30  L 24,31  L 18,31  L 18,32  L 13,32  L 13,33  L 9,33  L 9,34  L 2,34  L 2,35  L 1,35  L 1,37  L 2,37  L 2,39  L 3,39  L 3,40  L 4,40  L 4,41  L 7,41  L 7,40  L 9,40  L 9,39  L 13,39  L 13,38  L 17,38  L 17,37  L 26,37  L 26,36  L 29,36  L 29,37  L 30,37  L 30,36  L 35,36  L 35,35  L 40,35  L 40,34  L 43,34  L 43,33  L 44,33  L 44,34  L 45,34  L 45,35  L 44,35  L 44,37  L 43,37  L 43,38  L 42,38  L 42,39  L 41,39  L 41,40  L 40,40  L 40,41  L 39,41  L 39,42  L 38,42  L 38,43  L 37,43  L 37,44  L 36,44  L 36,46  L 35,46  L 35,47  L 34,47  L 34,48  L 33,48  L 33,50  L 32,50  L 32,51  L 31,51  L 31,53  L 30,53  L 30,54  L 29,54  L 29,55  L 28,55  L 28,56  L 27,56  L 27,58  L 26,58  L 26,60  L 25,60  L 25,61  L 24,61  L 24,62  L 23,62  L 23,64  L 22,64  L 22,65  L 21,65  L 21,66  L 20,66  L 20,67  L 19,67  L 19,68  L 18,68  L 18,69  L 17,69  L 17,70  L 16,70  L 16,71  L 14,71  L 14,72  L 13,72  L 13,73  L 12,73  L 12,74  L 11,74  L 11,75  L 9,75  L 9,76  L 8,76  L 8,77  L 7,77  L 7,78  L 5,78  L 5,79  L 4,79  L 4,80  L 3,80  L 3,81  L 0,81  L 0,83  L 1,83  L 1,84  L 2,84  L 2,85  L 3,85  L 3,86  L 4,86  L 4,87  L 8,87  L 8,86  L 9,86  L 9,85  L 10,85  L 10,84  L 11,84  L 11,83  L 12,83  L 12,82  L 13,82  L 13,81  L 14,81  L 14,80  L 15,80  L 15,79  L 16,79  L 16,78  L 18,78  L 18,76  L 20,76  L 20,75  L 21,75  L 21,74  L 22,74  L 22,73  L 23,73  L 23,72  L 24,72  L 24,71  L 25,71  L 25,70  L 26,70  L 26,69  L 27,69  L 27,68  L 28,68  L 28,66  L 30,66  L 30,65  L 31,65  L 31,62  L 32,62  L 32,61  L 33,61  L 33,60  L 35,60  L 35,61  L 36,61  L 36,62  L 38,62  L 38,64  L 40,64  L 40,65  L 43,65  L 43,66  L 44,66  L 44,67  L 45,67  L 45,68  L 48,68  L 48,69  L 50,69  L 50,70  L 51,70  L 51,71  L 52,71  L 52,72  L 54,72  L 54,73  L 55,73  L 55,74  L 56,74  L 56,75  L 59,75  L 59,77  L 63,77  L 63,78  L 65,78  L 65,77  L 66,77  Z  " style="fill:rgb(0, 0, 0); fill-opacity:1.000; stroke:none;" />
 <path d="  M 37,19  L 37,16  L 38,16  L 38,15  L 37,15  L 37,13  L 38,13  L 38,5  L 37,5  L 37,3  L 35,3  L 35,2  L 34,2  L 34,1  L 30,1  L 30,2  L 29,2  L 29,3  L 28,3  L 28,4  L 27,4  L 27,5  L 26,5  L 26,6  L 24,6  L 24,7  L 22,7  L 22,8  L 21,8  L 21,9  L 22,9  L 22,10  L 24,10  L 24,9  L 26,9  L 26,10  L 28,10  L 28,11  L 29,11  L 29,12  L 30,12  L 30,13  L 31,13  L 31,14  L 32,14  L 32,15  L 33,15  L 33,19  Z  " style="fill:rgb(0, 0, 0); fill-opacity:1.000; stroke:none;" />
 <path d="  M 21,10  L 21,11  L 22,11  L 22,10  Z  " style="fill:rgb(0, 0, 0); fill-opacity:1.000; stroke:none;" />
 <path d="  M 52,129  L 52,127  L 53,127  L 53,125  L 54,125  L 54,124  L 56,124  L 56,125  L 57,125  L 57,126  L 59,126  L 59,127  L 60,127  L 60,128  L 61,128  L 61,129  L 63,129  L 63,130  L 64,130  L 64,131  L 65,131  L 65,132  L 67,132  L 67,133  L 69,133  L 69,135  L 71,135  L 71,136  L 73,136  L 73,137  L 74,137  L 74,138  L 75,138  L 75,139  L 76,139  L 76,140  L 78,140  L 78,141  L 79,141  L 79,142  L 81,142  L 81,143  L 83,143  L 83,144  L 86,144  L 86,145  L 87,145  L 87,146  L 88,146  L 88,147  L 90,147  L 90,148  L 92,148  L 92,149  L 94,149  L 94,150  L 96,150  L 96,151  L 98,151  L 98,152  L 99,152  L 99,153  L 104,153  L 104,154  L 107,154  L 107,153  L 109,153  L 109,149  L 108,149  L 108,148  L 107,148  L 107,147  L 105,147  L 105,146  L 104,146  L 104,145  L 101,145  L 101,144  L 99,144  L 99,143  L 97,143  L 97,142  L 95,142  L 95,141  L 93,141  L 93,140  L 91,140  L 91,139  L 90,139  L 90,138  L 88,138  L 88,137  L 86,137  L 86,136  L 84,136  L 84,135  L 83,135  L 83,134  L 82,134  L 82,133  L 80,133  L 80,132  L 78,132  L 78,131  L 77,131  L 77,130  L 75,130  L 75,129  L 73,129  L 73,128  L 71,128  L 71,127  L 70,127  L 70,126  L 68,126  L 68,125  L 67,125  L 67,124  L 66,124  L 66,123  L 65,123  L 65,122  L 63,122  L 63,121  L 62,121  L 62,120  L 61,120  L 61,118  L 60,118  L 60,114  L 61,114  L 61,113  L 62,113  L 62,112  L 63,112  L 63,111  L 64,111  L 64,110  L 65,110  L 65,109  L 66,109  L 66,106  L 67,106  L 67,104  L 66,104  L 66,102  L 61,102  L 61,103  L 60,103  L 60,104  L 59,104  L 59,106  L 58,106  L 58,108  L 57,108  L 57,109  L 56,109  L 56,110  L 55,110  L 55,111  L 54,111  L 54,112  L 53,112  L 53,114  L 52,114  L 52,116  L 51,116  L 51,117  L 50,117  L 50,118  L 49,118  L 49,120  L 48,120  L 48,122  L 47,122  L 47,123  L 46,123  L 46,124  L 45,124  L 45,126  L 44,126  L 44,128  L 43,128  L 43,130  L 42,130  L 42,131  L 41,131  L 41,132  L 40,132  L 40,134  L 39,134  L 39,136  L 38,136  L 38,138  L 37,138  L 37,139  L 36,139  L 36,141  L 35,141  L 35,142  L 34,142  L 34,143  L 33,143  L 33,144  L 32,144  L 32,146  L 31,146  L 31,147  L 30,147  L 30,148  L 29,148  L 29,149  L 28,149  L 28,150  L 27,150  L 27,151  L 26,151  L 26,153  L 25,153  L 25,156  L 24,156  L 24,157  L 25,157  L 25,158  L 31,158  L 31,157  L 32,157  L 32,156  L 33,156  L 33,155  L 34,155  L 34,154  L 35,154  L 35,153  L 36,153  L 36,151  L 37,151  L 37,150  L 38,150  L 38,149  L 39,149  L 39,148  L 40,148  L 40,146  L 41,146  L 41,145  L 42,145  L 42,144  L 43,144  L 43,142  L 44,142  L 44,141  L 45,141  L 45,139  L 46,139  L 46,137  L 47,137  L 47,135  L 48,135  L 48,134  L 49,134  L 49,132  L 50,132  L 50,131  L 51,131  L 51,129  Z  " style="fill:rgb(0, 0, 0); fill-opacity:1.000; stroke:none;" />
 <path d="  M 63,52  L 63,51  L 65,51  L 65,50  L 67,50  L 67,49  L 70,49  L 70,48  L 75,48  L 75,47  L 79,47  L 79,46  L 84,46  L 84,45  L 94,45  L 94,57  L 95,57  L 95,58  L 94,58  L 94,59  L 95,59  L 95,60  L 94,60  L 94,61  L 95,61  L 95,64  L 94,64  L 94,65  L 95,65  L 95,76  L 96,76  L 96,78  L 95,78  L 95,79  L 96,79  L 96,94  L 97,94  L 97,97  L 98,97  L 98,98  L 100,98  L 100,97  L 101,97  L 101,95  L 102,95  L 102,93  L 103,93  L 103,86  L 102,86  L 102,72  L 101,72  L 101,71  L 102,71  L 102,68  L 101,68  L 101,67  L 102,67  L 102,66  L 101,66  L 101,65  L 102,65  L 102,64  L 101,64  L 101,63  L 102,63  L 102,62  L 101,62  L 101,61  L 102,61  L 102,60  L 101,60  L 101,59  L 102,59  L 102,58  L 101,58  L 101,57  L 102,57  L 102,56  L 101,56  L 101,39  L 100,39  L 100,37  L 99,37  L 99,34  L 98,34  L 98,30  L 97,30  L 97,27  L 96,27  L 96,22  L 95,22  L 95,19  L 94,19  L 94,10  L 93,10  L 93,9  L 94,9  L 94,8  L 93,8  L 93,5  L 92,5  L 92,3  L 91,3  L 91,2  L 90,2  L 90,1  L 88,1  L 88,0  L 87,0  L 87,1  L 86,1  L 86,3  L 85,3  L 85,10  L 86,10  L 86,16  L 87,16  L 87,19  L 88,19  L 88,23  L 89,23  L 89,26  L 90,26  L 90,31  L 91,31  L 91,33  L 92,33  L 92,35  L 93,35  L 93,37  L 92,37  L 92,38  L 91,38  L 91,37  L 90,37  L 90,38  L 84,38  L 84,39  L 75,39  L 75,40  L 69,40  L 69,41  L 67,41  L 67,42  L 65,42  L 65,43  L 63,43  L 63,44  L 61,44  L 61,45  L 60,45  L 60,46  L 59,46  L 59,45  L 58,45  L 58,48  L 57,48  L 57,49  L 56,49  L 56,50  L 55,50  L 55,52  L 56,52  L 56,53  L 60,53  L 60,52  Z  " style="fill:rgb(0, 0, 0); fill-opacity:1.000; stroke:none;" />
</svg>
