<?xml version="1.0" encoding="UTF-8" standalone="no"?>
<!DOCTYPE svg PUBLIC "-//W3C//DTD SVG 1.1//EN" 
  "http://www.w3.org/Graphics/SVG/1.1/DTD/svg11.dtd">
<svg width="106" height="146"
     xmlns="http://www.w3.org/2000/svg" version="1.1">
 <path d="  M 50,62  L 48,62  L 48,61  L 46,61  L 46,60  L 45,60  L 45,59  L 43,59  L 43,58  L 42,58  L 42,57  L 40,57  L 40,56  L 38,56  L 38,55  L 37,55  L 37,54  L 36,54  L 36,53  L 35,53  L 35,52  L 34,52  L 34,51  L 32,51  L 32,50  L 33,50  L 33,48  L 34,48  L 34,46  L 36,46  L 36,45  L 37,45  L 37,44  L 38,44  L 38,41  L 39,41  L 39,40  L 40,40  L 40,39  L 41,39  L 41,37  L 42,37  L 42,36  L 44,36  L 44,33  L 45,33  L 45,32  L 46,32  L 46,31  L 48,31  L 48,29  L 49,29  L 49,24  L 47,24  L 47,23  L 35,23  L 35,24  L 34,24  L 34,23  L 33,23  L 33,24  L 29,24  L 29,25  L 21,25  L 21,26  L 16,26  L 16,27  L 11,27  L 11,28  L 10,28  L 10,27  L 9,27  L 9,28  L 6,28  L 6,29  L 5,29  L 5,28  L 4,28  L 4,29  L 0,29  L 0,33  L 1,33  L 1,34  L 2,34  L 2,35  L 6,35  L 6,34  L 8,34  L 8,33  L 12,33  L 12,32  L 17,32  L 17,31  L 20,31  L 20,32  L 21,32  L 21,31  L 30,31  L 30,30  L 33,30  L 33,29  L 39,29  L 39,32  L 38,32  L 38,33  L 36,33  L 36,35  L 35,35  L 35,36  L 34,36  L 34,37  L 33,37  L 33,39  L 32,39  L 32,40  L 31,40  L 31,41  L 30,41  L 30,43  L 28,43  L 28,45  L 27,45  L 27,46  L 26,46  L 26,47  L 25,47  L 25,49  L 24,49  L 24,51  L 23,51  L 23,52  L 22,52  L 22,53  L 21,53  L 21,54  L 20,54  L 20,56  L 19,56  L 19,57  L 18,57  L 18,58  L 17,58  L 17,59  L 16,59  L 16,60  L 15,60  L 15,61  L 14,61  L 14,62  L 13,62  L 13,63  L 12,63  L 12,64  L 11,64  L 11,65  L 10,65  L 10,66  L 8,66  L 8,67  L 7,67  L 7,68  L 5,68  L 5,69  L 4,69  L 4,70  L 3,70  L 3,74  L 4,74  L 4,75  L 5,75  L 5,76  L 8,76  L 8,75  L 10,75  L 10,74  L 11,74  L 11,72  L 13,72  L 13,71  L 14,71  L 14,70  L 15,70  L 15,69  L 16,69  L 16,68  L 17,68  L 17,67  L 18,67  L 18,66  L 19,66  L 19,65  L 20,65  L 20,64  L 21,64  L 21,63  L 22,63  L 22,62  L 23,62  L 23,61  L 24,61  L 24,60  L 25,60  L 25,58  L 26,58  L 26,56  L 27,56  L 27,55  L 28,55  L 28,56  L 29,56  L 29,57  L 30,57  L 30,58  L 32,58  L 32,59  L 33,59  L 33,60  L 35,60  L 35,61  L 36,61  L 36,62  L 38,62  L 38,63  L 39,63  L 39,64  L 41,64  L 41,65  L 43,65  L 43,66  L 44,66  L 44,67  L 47,67  L 47,68  L 52,68  L 52,67  L 54,67  L 54,64  L 53,64  L 53,63  L 50,63  Z  " style="fill:rgb(0, 0, 0); fill-opacity:1.000; stroke:none;" />
 <path d="  M 38,8  L 38,6  L 39,6  L 39,4  L 38,4  L 38,3  L 37,3  L 37,2  L 36,2  L 36,1  L 31,1  L 31,2  L 23,2  L 23,3  L 19,3  L 19,4  L 18,4  L 18,5  L 16,5  L 16,6  L 18,6  L 18,7  L 19,7  L 19,8  L 20,8  L 20,9  L 37,9  L 37,8  Z  " style="fill:rgb(0, 0, 0); fill-opacity:1.000; stroke:none;" />
 <path d="  M 40,122  L 39,122  L 39,124  L 38,124  L 38,125  L 37,125  L 37,127  L 36,127  L 36,128  L 35,128  L 35,130  L 34,130  L 34,131  L 33,131  L 33,132  L 32,132  L 32,134  L 31,134  L 31,135  L 30,135  L 30,136  L 29,136  L 29,137  L 28,137  L 28,139  L 27,139  L 27,140  L 26,140  L 26,141  L 25,141  L 25,144  L 26,144  L 26,146  L 31,146  L 31,145  L 32,145  L 32,144  L 33,144  L 33,143  L 34,143  L 34,141  L 35,141  L 35,140  L 36,140  L 36,139  L 37,139  L 37,137  L 38,137  L 38,136  L 39,136  L 39,135  L 40,135  L 40,134  L 41,134  L 41,132  L 42,132  L 42,130  L 43,130  L 43,129  L 44,129  L 44,127  L 45,127  L 45,125  L 46,125  L 46,124  L 47,124  L 47,122  L 48,122  L 48,121  L 49,121  L 49,119  L 50,119  L 50,117  L 51,117  L 51,116  L 52,116  L 52,113  L 53,113  L 53,112  L 57,112  L 57,113  L 58,113  L 58,114  L 59,114  L 59,115  L 60,115  L 60,116  L 62,116  L 62,117  L 63,117  L 63,119  L 65,119  L 65,120  L 66,120  L 66,121  L 67,121  L 67,122  L 68,122  L 68,123  L 70,123  L 70,125  L 72,125  L 72,126  L 74,126  L 74,127  L 76,127  L 76,128  L 77,128  L 77,129  L 79,129  L 79,130  L 80,130  L 80,131  L 81,131  L 81,132  L 82,132  L 82,133  L 83,133  L 83,132  L 84,132  L 84,133  L 86,133  L 86,134  L 88,134  L 88,135  L 90,135  L 90,136  L 93,136  L 93,137  L 95,137  L 95,138  L 97,138  L 97,139  L 99,139  L 99,140  L 105,140  L 105,139  L 106,139  L 106,134  L 104,134  L 104,133  L 102,133  L 102,132  L 99,132  L 99,131  L 97,131  L 97,130  L 94,130  L 94,129  L 92,129  L 92,128  L 90,128  L 90,127  L 88,127  L 88,126  L 86,126  L 86,125  L 85,125  L 85,124  L 83,124  L 83,123  L 81,123  L 81,122  L 80,122  L 80,121  L 78,121  L 78,120  L 76,120  L 76,119  L 75,119  L 75,118  L 74,118  L 74,117  L 73,117  L 73,116  L 71,116  L 71,115  L 70,115  L 70,114  L 69,114  L 69,113  L 68,113  L 68,112  L 66,112  L 66,111  L 65,111  L 65,110  L 64,110  L 64,109  L 63,109  L 63,108  L 62,108  L 62,107  L 60,107  L 60,106  L 61,106  L 61,103  L 62,103  L 62,102  L 63,102  L 63,101  L 64,101  L 64,98  L 65,98  L 65,95  L 66,95  L 66,94  L 65,94  L 65,92  L 64,92  L 64,91  L 60,91  L 60,92  L 59,92  L 59,94  L 58,94  L 58,96  L 57,96  L 57,97  L 56,97  L 56,99  L 55,99  L 55,100  L 54,100  L 54,102  L 53,102  L 53,103  L 52,103  L 52,104  L 51,104  L 51,105  L 50,105  L 50,107  L 49,107  L 49,108  L 48,108  L 48,110  L 47,110  L 47,111  L 46,111  L 46,113  L 45,113  L 45,114  L 44,114  L 44,116  L 43,116  L 43,118  L 42,118  L 42,119  L 41,119  L 41,121  L 40,121  Z  " style="fill:rgb(0, 0, 0); fill-opacity:1.000; stroke:none;" />
 <path d="  M 81,23  L 80,23  L 80,22  L 81,22  L 81,21  L 80,21  L 80,9  L 79,9  L 79,7  L 74,7  L 74,8  L 73,8  L 73,17  L 74,17  L 74,18  L 73,18  L 73,21  L 74,21  L 74,23  L 73,23  L 73,24  L 74,24  L 74,31  L 75,31  L 75,33  L 74,33  L 74,34  L 72,34  L 72,35  L 65,35  L 65,36  L 62,36  L 62,37  L 56,37  L 56,38  L 48,38  L 48,39  L 46,39  L 46,40  L 45,40  L 45,41  L 44,41  L 44,47  L 47,47  L 47,46  L 50,46  L 50,45  L 54,45  L 54,44  L 58,44  L 58,43  L 59,43  L 59,44  L 60,44  L 60,43  L 64,43  L 64,42  L 65,42  L 65,43  L 66,43  L 66,42  L 71,42  L 71,41  L 74,41  L 74,42  L 75,42  L 75,70  L 74,70  L 74,72  L 75,72  L 75,73  L 74,73  L 74,76  L 75,76  L 75,78  L 76,78  L 76,79  L 79,79  L 79,78  L 80,78  L 80,77  L 81,77  L 81,72  L 82,72  L 82,60  L 83,60  L 83,59  L 82,59  L 82,58  L 83,58  L 83,57  L 82,57  L 82,56  L 83,56  L 83,55  L 82,55  L 82,54  L 83,54  L 83,53  L 82,53  L 82,52  L 83,52  L 83,51  L 82,51  L 82,50  L 83,50  L 83,49  L 82,49  L 82,48  L 83,48  L 83,47  L 82,47  L 82,46  L 83,46  L 83,45  L 82,45  L 82,42  L 83,42  L 83,41  L 82,41  L 82,33  L 81,33  Z  " style="fill:rgb(0, 0, 0); fill-opacity:1.000; stroke:none;" />
 <path d="  M 94,22  L 95,22  L 95,26  L 96,26  L 96,40  L 97,40  L 97,43  L 96,43  L 96,44  L 97,44  L 97,66  L 98,66  L 98,67  L 97,67  L 97,68  L 98,68  L 98,71  L 97,71  L 97,72  L 98,72  L 98,75  L 97,75  L 97,76  L 98,76  L 98,79  L 97,79  L 97,80  L 98,80  L 98,89  L 102,89  L 102,88  L 103,88  L 103,86  L 104,86  L 104,51  L 103,51  L 103,50  L 104,50  L 104,47  L 103,47  L 103,44  L 104,44  L 104,43  L 103,43  L 103,31  L 102,31  L 102,30  L 103,30  L 103,29  L 102,29  L 102,24  L 101,24  L 101,17  L 100,17  L 100,16  L 101,16  L 101,15  L 100,15  L 100,11  L 97,11  L 97,10  L 94,10  L 94,11  L 93,11  L 93,13  L 92,13  L 92,16  L 93,16  L 93,18  L 94,18  Z  " style="fill:rgb(0, 0, 0); fill-opacity:1.000; stroke:none;" />
</svg>
