<?xml version="1.0" encoding="UTF-8" standalone="no"?>
<!DOCTYPE svg PUBLIC "-//W3C//DTD SVG 1.1//EN" 
  "http://www.w3.org/Graphics/SVG/1.1/DTD/svg11.dtd">
<svg width="106" height="144"
     xmlns="http://www.w3.org/2000/svg" version="1.1">
 <path d="  M 7,37  L 7,35  L 8,35  L 8,36  L 9,36  L 9,35  L 11,35  L 11,34  L 15,34  L 15,33  L 16,33  L 16,34  L 17,34  L 17,33  L 23,33  L 23,32  L 31,32  L 31,31  L 35,31  L 35,30  L 39,30  L 39,29  L 41,29  L 41,32  L 40,32  L 40,34  L 39,34  L 39,35  L 38,35  L 38,36  L 37,36  L 37,37  L 36,37  L 36,39  L 35,39  L 35,41  L 34,41  L 34,43  L 33,43  L 33,45  L 32,45  L 32,47  L 31,47  L 31,48  L 30,48  L 30,49  L 29,49  L 29,50  L 28,50  L 28,53  L 27,53  L 27,54  L 26,54  L 26,55  L 25,55  L 25,57  L 24,57  L 24,58  L 23,58  L 23,59  L 21,59  L 21,61  L 20,61  L 20,62  L 19,62  L 19,63  L 17,63  L 17,64  L 16,64  L 16,65  L 15,65  L 15,66  L 14,66  L 14,67  L 13,67  L 13,68  L 12,68  L 12,69  L 10,69  L 10,70  L 8,70  L 8,71  L 7,71  L 7,72  L 6,72  L 6,74  L 5,74  L 5,77  L 6,77  L 6,78  L 7,78  L 7,79  L 10,79  L 10,78  L 12,78  L 12,76  L 14,76  L 14,75  L 15,75  L 15,74  L 16,74  L 16,73  L 17,73  L 17,72  L 18,72  L 18,71  L 19,71  L 19,70  L 20,70  L 20,69  L 21,69  L 21,68  L 22,68  L 22,67  L 23,67  L 23,66  L 24,66  L 24,65  L 26,65  L 26,64  L 27,64  L 27,62  L 28,62  L 28,60  L 29,60  L 29,59  L 30,59  L 30,58  L 32,58  L 32,59  L 34,59  L 34,60  L 35,60  L 35,61  L 36,61  L 36,62  L 37,62  L 37,63  L 38,63  L 38,64  L 40,64  L 40,65  L 41,65  L 41,66  L 42,66  L 42,67  L 43,67  L 43,68  L 44,68  L 44,69  L 46,69  L 46,70  L 47,70  L 47,71  L 49,71  L 49,72  L 51,72  L 51,73  L 53,73  L 53,74  L 55,74  L 55,75  L 59,75  L 59,74  L 60,74  L 60,70  L 59,70  L 59,69  L 58,69  L 58,68  L 56,68  L 56,67  L 55,67  L 55,66  L 52,66  L 52,65  L 50,65  L 50,64  L 48,64  L 48,63  L 47,63  L 47,62  L 46,62  L 46,61  L 45,61  L 45,60  L 44,60  L 44,59  L 42,59  L 42,58  L 41,58  L 41,57  L 40,57  L 40,56  L 38,56  L 38,55  L 37,55  L 37,53  L 36,53  L 36,50  L 38,50  L 38,48  L 39,48  L 39,47  L 40,47  L 40,44  L 41,44  L 41,42  L 42,42  L 42,41  L 43,41  L 43,39  L 44,39  L 44,38  L 45,38  L 45,36  L 46,36  L 46,35  L 47,35  L 47,34  L 48,34  L 48,33  L 49,33  L 49,31  L 50,31  L 50,30  L 51,30  L 51,28  L 52,28  L 52,26  L 51,26  L 51,23  L 49,23  L 49,22  L 48,22  L 48,23  L 47,23  L 47,22  L 46,22  L 46,23  L 42,23  L 42,24  L 38,24  L 38,25  L 30,25  L 30,26  L 27,26  L 27,25  L 26,25  L 26,26  L 24,26  L 24,27  L 18,27  L 18,28  L 13,28  L 13,29  L 9,29  L 9,30  L 3,30  L 3,29  L 0,29  L 0,33  L 1,33  L 1,35  L 2,35  L 2,36  L 4,36  L 4,37  Z  " style="fill:rgb(0, 0, 0); fill-opacity:1.000; stroke:none;" />
 <path d="  M 26,2  L 26,3  L 20,3  L 20,4  L 18,4  L 18,6  L 19,6  L 19,7  L 22,7  L 22,8  L 25,8  L 25,9  L 29,9  L 29,10  L 30,10  L 30,9  L 33,9  L 33,10  L 35,10  L 35,9  L 36,9  L 36,10  L 40,10  L 40,9  L 41,9  L 41,8  L 42,8  L 42,5  L 41,5  L 41,4  L 40,4  L 40,2  L 39,2  L 39,0  L 38,0  L 38,1  L 37,1  L 37,0  L 36,0  L 36,1  L 33,1  L 33,2  Z  " style="fill:rgb(0, 0, 0); fill-opacity:1.000; stroke:none;" />
 <path d="  M 52,100  L 50,100  L 50,101  L 49,101  L 49,102  L 48,102  L 48,103  L 47,103  L 47,105  L 46,105  L 46,106  L 45,106  L 45,108  L 44,108  L 44,110  L 43,110  L 43,113  L 42,113  L 42,116  L 41,116  L 41,120  L 40,120  L 40,125  L 39,125  L 39,126  L 40,126  L 40,127  L 39,127  L 39,130  L 40,130  L 40,135  L 41,135  L 41,137  L 42,137  L 42,138  L 43,138  L 43,139  L 44,139  L 44,140  L 45,140  L 45,141  L 47,141  L 47,142  L 50,142  L 50,143  L 52,143  L 52,144  L 79,144  L 79,143  L 82,143  L 82,142  L 85,142  L 85,141  L 87,141  L 87,140  L 91,140  L 91,139  L 93,139  L 93,138  L 95,138  L 95,137  L 97,137  L 97,136  L 98,136  L 98,135  L 99,135  L 99,134  L 100,134  L 100,133  L 101,133  L 101,132  L 102,132  L 102,131  L 103,131  L 103,128  L 104,128  L 104,126  L 105,126  L 105,122  L 106,122  L 106,102  L 105,102  L 105,100  L 104,100  L 104,99  L 103,99  L 103,98  L 101,98  L 101,96  L 99,96  L 99,95  L 97,95  L 97,94  L 95,94  L 95,93  L 93,93  L 93,92  L 91,92  L 91,91  L 90,91  L 90,92  L 89,92  L 89,91  L 78,91  L 78,90  L 68,90  L 68,91  L 63,91  L 63,93  L 62,93  L 62,94  L 60,94  L 60,95  L 58,95  L 58,96  L 57,96  L 57,97  L 55,97  L 55,98  L 53,98  L 53,99  L 52,99  Z  M 71,99  L 71,98  L 72,98  L 72,99  L 73,99  L 73,98  L 80,98  L 80,97  L 82,97  L 82,98  L 88,98  L 88,99  L 91,99  L 91,100  L 93,100  L 93,101  L 95,101  L 95,102  L 97,102  L 97,104  L 98,104  L 98,106  L 99,106  L 99,108  L 100,108  L 100,115  L 99,115  L 99,121  L 98,121  L 98,123  L 97,123  L 97,125  L 96,125  L 96,127  L 95,127  L 95,129  L 94,129  L 94,130  L 93,130  L 93,131  L 91,131  L 91,132  L 89,132  L 89,133  L 88,133  L 88,134  L 85,134  L 85,135  L 83,135  L 83,136  L 81,136  L 81,137  L 76,137  L 76,138  L 56,138  L 56,137  L 52,137  L 52,136  L 51,136  L 51,135  L 49,135  L 49,134  L 48,134  L 48,133  L 47,133  L 47,119  L 48,119  L 48,116  L 49,116  L 49,113  L 50,113  L 50,111  L 51,111  L 51,110  L 52,110  L 52,109  L 53,109  L 53,107  L 54,107  L 54,106  L 55,106  L 55,105  L 56,105  L 56,104  L 59,104  L 59,103  L 61,103  L 61,102  L 63,102  L 63,101  L 64,101  L 64,100  L 67,100  L 67,99  Z  " style="fill:rgb(0, 0, 0); fill-opacity:1.000; stroke:none;" />
 <path d="  M 78,6  L 78,7  L 77,7  L 77,14  L 78,14  L 78,15  L 77,15  L 77,18  L 78,18  L 78,36  L 77,36  L 77,37  L 73,37  L 73,38  L 68,38  L 68,39  L 64,39  L 64,40  L 63,40  L 63,39  L 62,39  L 62,40  L 58,40  L 58,41  L 54,41  L 54,42  L 48,42  L 48,43  L 47,43  L 47,44  L 46,44  L 46,45  L 45,45  L 45,51  L 48,51  L 48,50  L 50,50  L 50,49  L 53,49  L 53,48  L 57,48  L 57,47  L 61,47  L 61,46  L 62,46  L 62,47  L 63,47  L 63,46  L 68,46  L 68,45  L 73,45  L 73,44  L 76,44  L 76,43  L 77,43  L 77,44  L 78,44  L 78,50  L 79,50  L 79,51  L 78,51  L 78,54  L 79,54  L 79,56  L 78,56  L 78,58  L 79,58  L 79,61  L 78,61  L 78,62  L 79,62  L 79,65  L 78,65  L 78,66  L 79,66  L 79,73  L 78,73  L 78,75  L 79,75  L 79,76  L 81,76  L 81,77  L 84,77  L 84,76  L 85,76  L 85,68  L 86,68  L 86,67  L 85,67  L 85,66  L 86,66  L 86,65  L 85,65  L 85,64  L 86,64  L 86,63  L 85,63  L 85,62  L 86,62  L 86,61  L 85,61  L 85,60  L 86,60  L 86,59  L 85,59  L 85,58  L 86,58  L 86,57  L 85,57  L 85,56  L 86,56  L 86,55  L 85,55  L 85,54  L 86,54  L 86,53  L 85,53  L 85,52  L 86,52  L 86,51  L 85,51  L 85,50  L 86,50  L 86,49  L 85,49  L 85,48  L 86,48  L 86,47  L 85,47  L 85,25  L 84,25  L 84,22  L 85,22  L 85,21  L 84,21  L 84,6  L 82,6  L 82,5  L 79,5  L 79,6  Z  " style="fill:rgb(0, 0, 0); fill-opacity:1.000; stroke:none;" />
 <path d="  M 104,85  L 104,84  L 105,84  L 105,83  L 106,83  L 106,77  L 105,77  L 105,76  L 106,76  L 106,75  L 105,75  L 105,74  L 106,74  L 106,73  L 105,73  L 105,72  L 106,72  L 106,71  L 105,71  L 105,70  L 106,70  L 106,69  L 105,69  L 105,68  L 106,68  L 106,67  L 105,67  L 105,29  L 104,29  L 104,17  L 103,17  L 103,16  L 104,16  L 104,15  L 103,15  L 103,7  L 102,7  L 102,6  L 101,6  L 101,5  L 98,5  L 98,6  L 97,6  L 97,7  L 96,7  L 96,12  L 97,12  L 97,23  L 98,23  L 98,24  L 97,24  L 97,26  L 98,26  L 98,59  L 99,59  L 99,80  L 100,80  L 100,83  L 101,83  L 101,84  L 102,84  L 102,85  Z  " style="fill:rgb(0, 0, 0); fill-opacity:1.000; stroke:none;" />
</svg>
