<?xml version="1.0" encoding="UTF-8" standalone="no"?>
<!DOCTYPE svg PUBLIC "-//W3C//DTD SVG 1.1//EN" 
  "http://www.w3.org/Graphics/SVG/1.1/DTD/svg11.dtd">
<svg width="106" height="143"
     xmlns="http://www.w3.org/2000/svg" version="1.1">
 <path d="  M 49,63  L 49,62  L 47,62  L 47,61  L 46,61  L 46,60  L 44,60  L 44,59  L 43,59  L 43,58  L 41,58  L 41,57  L 38,57  L 38,56  L 37,56  L 37,55  L 36,55  L 36,54  L 34,54  L 34,53  L 33,53  L 33,50  L 34,50  L 34,49  L 35,49  L 35,48  L 36,48  L 36,46  L 37,46  L 37,45  L 38,45  L 38,44  L 39,44  L 39,43  L 40,43  L 40,41  L 41,41  L 41,40  L 42,40  L 42,39  L 43,39  L 43,37  L 44,37  L 44,36  L 45,36  L 45,34  L 46,34  L 46,33  L 47,33  L 47,28  L 46,28  L 46,26  L 45,26  L 45,25  L 44,25  L 44,24  L 42,24  L 42,23  L 39,23  L 39,22  L 38,22  L 38,23  L 33,23  L 33,24  L 29,24  L 29,25  L 22,25  L 22,26  L 16,26  L 16,27  L 15,27  L 15,26  L 14,26  L 14,27  L 10,27  L 10,28  L 4,28  L 4,29  L 2,29  L 2,28  L 1,28  L 1,29  L 0,29  L 0,32  L 1,32  L 1,33  L 0,33  L 0,34  L 2,34  L 2,35  L 5,35  L 5,34  L 7,34  L 7,33  L 10,33  L 10,32  L 15,32  L 15,31  L 29,31  L 29,30  L 30,30  L 30,31  L 31,31  L 31,30  L 34,30  L 34,29  L 37,29  L 37,28  L 38,28  L 38,29  L 40,29  L 40,32  L 39,32  L 39,33  L 38,33  L 38,34  L 37,34  L 37,35  L 36,35  L 36,36  L 35,36  L 35,38  L 34,38  L 34,40  L 33,40  L 33,41  L 32,41  L 32,42  L 31,42  L 31,43  L 30,43  L 30,45  L 29,45  L 29,46  L 28,46  L 28,47  L 27,47  L 27,48  L 26,48  L 26,50  L 25,50  L 25,52  L 24,52  L 24,53  L 23,53  L 23,55  L 22,55  L 22,56  L 21,56  L 21,57  L 20,57  L 20,58  L 19,58  L 19,59  L 18,59  L 18,60  L 17,60  L 17,62  L 16,62  L 16,63  L 14,63  L 14,65  L 13,65  L 13,66  L 12,66  L 12,67  L 10,67  L 10,68  L 9,68  L 9,69  L 7,69  L 7,70  L 6,70  L 6,71  L 5,71  L 5,72  L 4,72  L 4,76  L 5,76  L 5,77  L 9,77  L 9,76  L 10,76  L 10,75  L 11,75  L 11,74  L 12,74  L 12,73  L 14,73  L 14,72  L 15,72  L 15,71  L 16,71  L 16,70  L 17,70  L 17,69  L 18,69  L 18,68  L 19,68  L 19,66  L 20,66  L 20,65  L 21,65  L 21,64  L 22,64  L 22,63  L 23,63  L 23,62  L 24,62  L 24,60  L 25,60  L 25,59  L 26,59  L 26,58  L 27,58  L 27,57  L 30,57  L 30,58  L 32,58  L 32,59  L 33,59  L 33,60  L 34,60  L 34,61  L 36,61  L 36,62  L 37,62  L 37,63  L 38,63  L 38,64  L 39,64  L 39,65  L 41,65  L 41,66  L 43,66  L 43,67  L 45,67  L 45,68  L 47,68  L 47,69  L 48,69  L 48,70  L 49,70  L 49,71  L 50,71  L 50,72  L 51,72  L 51,73  L 52,73  L 52,74  L 54,74  L 54,73  L 56,73  L 56,68  L 55,68  L 55,66  L 54,66  L 54,65  L 52,65  L 52,64  L 50,64  L 50,63  Z  " style="fill:rgb(0, 0, 0); fill-opacity:1.000; stroke:none;" />
 <path d="  M 37,93  L 36,93  L 36,95  L 35,95  L 35,96  L 34,96  L 34,97  L 33,97  L 33,100  L 32,100  L 32,102  L 31,102  L 31,104  L 30,104  L 30,105  L 29,105  L 29,107  L 28,107  L 28,109  L 27,109  L 27,111  L 26,111  L 26,113  L 25,113  L 25,115  L 24,115  L 24,116  L 23,116  L 23,117  L 22,117  L 22,118  L 21,118  L 21,119  L 20,119  L 20,121  L 19,121  L 19,122  L 18,122  L 18,123  L 17,123  L 17,124  L 16,124  L 16,125  L 15,125  L 15,126  L 14,126  L 14,127  L 13,127  L 13,129  L 12,129  L 12,132  L 13,132  L 13,133  L 14,133  L 14,134  L 17,134  L 17,133  L 18,133  L 18,132  L 19,132  L 19,130  L 20,130  L 20,128  L 21,128  L 21,127  L 22,127  L 22,126  L 23,126  L 23,124  L 24,124  L 24,123  L 25,123  L 25,122  L 26,122  L 26,121  L 27,121  L 27,120  L 28,120  L 28,119  L 29,119  L 29,117  L 30,117  L 30,116  L 31,116  L 31,114  L 35,114  L 35,115  L 36,115  L 36,116  L 39,116  L 39,117  L 40,117  L 40,118  L 41,118  L 41,119  L 42,119  L 42,118  L 43,118  L 43,119  L 46,119  L 46,120  L 49,120  L 49,121  L 52,121  L 52,122  L 53,122  L 53,123  L 54,123  L 54,124  L 55,124  L 55,125  L 56,125  L 56,130  L 55,130  L 55,133  L 54,133  L 54,135  L 53,135  L 53,137  L 52,137  L 52,143  L 57,143  L 57,142  L 58,142  L 58,140  L 59,140  L 59,138  L 60,138  L 60,135  L 61,135  L 61,132  L 62,132  L 62,130  L 64,130  L 64,128  L 65,128  L 65,126  L 66,126  L 66,125  L 67,125  L 67,123  L 68,123  L 68,120  L 69,120  L 69,119  L 70,119  L 70,117  L 71,117  L 71,115  L 72,115  L 72,116  L 73,116  L 73,117  L 74,117  L 74,118  L 75,118  L 75,119  L 76,119  L 76,120  L 77,120  L 77,121  L 79,121  L 79,122  L 80,122  L 80,123  L 83,123  L 83,124  L 85,124  L 85,125  L 86,125  L 86,126  L 88,126  L 88,127  L 90,127  L 90,128  L 93,128  L 93,129  L 94,129  L 94,130  L 96,130  L 96,131  L 97,131  L 97,132  L 99,132  L 99,134  L 100,134  L 100,135  L 102,135  L 102,136  L 103,136  L 103,138  L 104,138  L 104,139  L 106,139  L 106,130  L 105,130  L 105,129  L 104,129  L 104,128  L 102,128  L 102,127  L 100,127  L 100,126  L 99,126  L 99,125  L 97,125  L 97,124  L 96,124  L 96,123  L 94,123  L 94,122  L 92,122  L 92,121  L 90,121  L 90,120  L 88,120  L 88,119  L 86,119  L 86,118  L 85,118  L 85,117  L 83,117  L 83,116  L 82,116  L 82,115  L 81,115  L 81,114  L 79,114  L 79,113  L 78,113  L 78,112  L 77,112  L 77,111  L 76,111  L 76,105  L 77,105  L 77,102  L 78,102  L 78,95  L 76,95  L 76,94  L 74,94  L 74,95  L 73,95  L 73,96  L 72,96  L 72,99  L 71,99  L 71,101  L 70,101  L 70,103  L 69,103  L 69,105  L 68,105  L 68,107  L 67,107  L 67,110  L 66,110  L 66,112  L 65,112  L 65,115  L 64,115  L 64,119  L 63,119  L 63,121  L 62,121  L 62,122  L 60,122  L 60,121  L 59,121  L 59,119  L 58,119  L 58,118  L 56,118  L 56,117  L 53,117  L 53,116  L 51,116  L 51,115  L 48,115  L 48,114  L 47,114  L 47,113  L 43,113  L 43,112  L 42,112  L 42,111  L 40,111  L 40,110  L 39,110  L 39,109  L 37,109  L 37,107  L 36,107  L 36,104  L 37,104  L 37,102  L 38,102  L 38,100  L 39,100  L 39,98  L 40,98  L 40,97  L 41,97  L 41,96  L 42,96  L 42,93  L 43,93  L 43,88  L 42,88  L 42,84  L 40,84  L 40,85  L 39,85  L 39,86  L 38,86  L 38,88  L 37,88  Z  " style="fill:rgb(0, 0, 0); fill-opacity:1.000; stroke:none;" />
 <path d="  M 32,5  L 32,4  L 31,4  L 31,2  L 30,2  L 30,1  L 27,1  L 27,2  L 23,2  L 23,3  L 21,3  L 21,4  L 20,4  L 20,5  L 19,5  L 19,7  L 20,7  L 20,8  L 21,8  L 21,9  L 25,9  L 25,10  L 27,10  L 27,11  L 28,11  L 28,12  L 29,12  L 29,11  L 30,11  L 30,9  L 31,9  L 31,5  Z  " style="fill:rgb(0, 0, 0); fill-opacity:1.000; stroke:none;" />
 <path d="  M 63,30  L 63,31  L 59,31  L 59,32  L 58,32  L 58,31  L 57,31  L 57,32  L 56,32  L 56,34  L 55,34  L 55,38  L 56,38  L 56,39  L 58,39  L 58,38  L 61,38  L 61,37  L 65,37  L 65,36  L 67,36  L 67,37  L 69,37  L 69,36  L 77,36  L 77,45  L 76,45  L 76,48  L 74,48  L 74,49  L 69,49  L 69,50  L 63,50  L 63,51  L 61,51  L 61,52  L 60,52  L 60,51  L 59,51  L 59,52  L 58,52  L 58,53  L 56,53  L 56,55  L 55,55  L 55,58  L 56,58  L 56,59  L 57,59  L 57,58  L 59,58  L 59,57  L 61,57  L 61,56  L 67,56  L 67,55  L 68,55  L 68,56  L 69,56  L 69,55  L 74,55  L 74,56  L 75,56  L 75,55  L 76,55  L 76,56  L 77,56  L 77,60  L 78,60  L 78,62  L 77,62  L 77,63  L 78,63  L 78,87  L 80,87  L 80,88  L 84,88  L 84,87  L 85,87  L 85,59  L 84,59  L 84,56  L 85,56  L 85,55  L 84,55  L 84,52  L 85,52  L 85,51  L 84,51  L 84,48  L 85,48  L 85,47  L 84,47  L 84,33  L 83,33  L 83,27  L 82,27  L 82,22  L 81,22  L 81,17  L 80,17  L 80,16  L 81,16  L 81,15  L 80,15  L 80,7  L 79,7  L 79,3  L 78,3  L 78,1  L 72,1  L 72,2  L 71,2  L 71,7  L 72,7  L 72,12  L 73,12  L 73,13  L 72,13  L 72,14  L 73,14  L 73,19  L 74,19  L 74,24  L 75,24  L 75,26  L 76,26  L 76,27  L 77,27  L 77,28  L 76,28  L 76,29  L 70,29  L 70,30  Z  " style="fill:rgb(0, 0, 0); fill-opacity:1.000; stroke:none;" />
</svg>
