<?xml version="1.0" encoding="UTF-8" standalone="no"?>
<!DOCTYPE svg PUBLIC "-//W3C//DTD SVG 1.1//EN" 
  "http://www.w3.org/Graphics/SVG/1.1/DTD/svg11.dtd">
<svg width="108" height="102"
     xmlns="http://www.w3.org/2000/svg" version="1.1">
 <path d="  M 5,37  L 6,37  L 6,36  L 8,36  L 8,35  L 12,35  L 12,34  L 13,34  L 13,35  L 14,35  L 14,34  L 19,34  L 19,33  L 20,33  L 20,34  L 21,34  L 21,33  L 24,33  L 24,32  L 25,32  L 25,33  L 26,33  L 26,32  L 28,32  L 28,31  L 35,31  L 35,30  L 36,30  L 36,29  L 40,29  L 40,28  L 42,28  L 42,29  L 45,29  L 45,31  L 46,31  L 46,32  L 45,32  L 45,33  L 43,33  L 43,35  L 41,35  L 41,36  L 40,36  L 40,37  L 39,37  L 39,38  L 38,38  L 38,40  L 37,40  L 37,41  L 36,41  L 36,42  L 35,42  L 35,43  L 34,43  L 34,44  L 33,44  L 33,46  L 32,46  L 32,48  L 31,48  L 31,49  L 30,49  L 30,50  L 29,50  L 29,52  L 28,52  L 28,53  L 27,53  L 27,55  L 26,55  L 26,56  L 25,56  L 25,58  L 24,58  L 24,59  L 23,59  L 23,60  L 22,60  L 22,61  L 21,61  L 21,62  L 20,62  L 20,64  L 19,64  L 19,65  L 18,65  L 18,67  L 17,67  L 17,68  L 16,68  L 16,69  L 15,69  L 15,70  L 14,70  L 14,72  L 13,72  L 13,73  L 12,73  L 12,74  L 11,74  L 11,75  L 10,75  L 10,76  L 9,76  L 9,77  L 8,77  L 8,78  L 7,78  L 7,79  L 6,79  L 6,81  L 5,81  L 5,83  L 6,83  L 6,85  L 7,85  L 7,86  L 11,86  L 11,84  L 12,84  L 12,83  L 13,83  L 13,82  L 14,82  L 14,80  L 15,80  L 15,79  L 16,79  L 16,78  L 17,78  L 17,77  L 18,77  L 18,76  L 19,76  L 19,75  L 20,75  L 20,74  L 21,74  L 21,72  L 22,72  L 22,71  L 23,71  L 23,69  L 24,69  L 24,67  L 25,67  L 25,66  L 26,66  L 26,65  L 27,65  L 27,64  L 28,64  L 28,62  L 29,62  L 29,60  L 30,60  L 30,59  L 31,59  L 31,58  L 33,58  L 33,59  L 34,59  L 34,60  L 35,60  L 35,61  L 37,61  L 37,62  L 38,62  L 38,64  L 40,64  L 40,65  L 41,65  L 41,66  L 42,66  L 42,67  L 43,67  L 43,68  L 45,68  L 45,69  L 46,69  L 46,70  L 48,70  L 48,71  L 49,71  L 49,72  L 50,72  L 50,73  L 51,73  L 51,74  L 52,74  L 52,75  L 54,75  L 54,76  L 56,76  L 56,77  L 59,77  L 59,76  L 61,76  L 61,75  L 62,75  L 62,73  L 61,73  L 61,72  L 60,72  L 60,71  L 59,71  L 59,70  L 58,70  L 58,69  L 56,69  L 56,68  L 54,68  L 54,67  L 52,67  L 52,66  L 51,66  L 51,65  L 50,65  L 50,64  L 49,64  L 49,63  L 48,63  L 48,62  L 46,62  L 46,61  L 45,61  L 45,60  L 44,60  L 44,59  L 43,59  L 43,58  L 42,58  L 42,57  L 41,57  L 41,56  L 40,56  L 40,55  L 39,55  L 39,54  L 38,54  L 38,53  L 37,53  L 37,52  L 36,52  L 36,50  L 37,50  L 37,48  L 38,48  L 38,47  L 39,47  L 39,46  L 40,46  L 40,45  L 41,45  L 41,44  L 42,44  L 42,43  L 43,43  L 43,42  L 44,42  L 44,40  L 45,40  L 45,39  L 49,39  L 49,41  L 50,41  L 50,40  L 55,40  L 55,39  L 60,39  L 60,38  L 72,38  L 72,37  L 74,37  L 74,38  L 75,38  L 75,37  L 77,37  L 77,38  L 80,38  L 80,48  L 79,48  L 79,49  L 75,49  L 75,50  L 69,50  L 69,51  L 63,51  L 63,52  L 59,52  L 59,53  L 54,53  L 54,54  L 52,54  L 52,55  L 51,55  L 51,58  L 52,58  L 52,59  L 57,59  L 57,58  L 63,58  L 63,57  L 72,57  L 72,56  L 79,56  L 79,58  L 80,58  L 80,77  L 79,77  L 79,78  L 80,78  L 80,80  L 79,80  L 79,83  L 80,83  L 80,84  L 79,84  L 79,91  L 85,91  L 85,90  L 86,90  L 86,76  L 87,76  L 87,75  L 86,75  L 86,74  L 87,74  L 87,73  L 86,73  L 86,72  L 87,72  L 87,71  L 86,71  L 86,70  L 87,70  L 87,37  L 86,37  L 86,36  L 87,36  L 87,35  L 86,35  L 86,34  L 87,34  L 87,33  L 86,33  L 86,32  L 87,32  L 87,31  L 86,31  L 86,21  L 85,21  L 85,20  L 86,20  L 86,17  L 85,17  L 85,15  L 86,15  L 86,13  L 85,13  L 85,9  L 84,9  L 84,8  L 81,8  L 81,9  L 79,9  L 79,11  L 78,11  L 78,14  L 79,14  L 79,15  L 78,15  L 78,18  L 79,18  L 79,19  L 78,19  L 78,20  L 79,20  L 79,31  L 78,31  L 78,32  L 70,32  L 70,33  L 67,33  L 67,32  L 66,32  L 66,33  L 55,33  L 55,32  L 53,32  L 53,29  L 52,29  L 52,28  L 50,28  L 50,26  L 48,26  L 48,25  L 47,25  L 47,24  L 45,24  L 45,23  L 42,23  L 42,22  L 41,22  L 41,23  L 40,23  L 40,22  L 39,22  L 39,23  L 38,23  L 38,22  L 37,22  L 37,23  L 33,23  L 33,24  L 30,24  L 30,25  L 22,25  L 22,26  L 19,26  L 19,27  L 17,27  L 17,28  L 16,28  L 16,27  L 15,27  L 15,28  L 13,28  L 13,29  L 6,29  L 6,30  L 2,30  L 2,31  L 1,31  L 1,36  L 5,36  Z  " style="fill:rgb(0, 0, 0); fill-opacity:1.000; stroke:none;" />
 <path d="  M 34,5  L 34,4  L 32,4  L 32,3  L 31,3  L 31,2  L 29,2  L 29,1  L 26,1  L 26,0  L 24,0  L 24,1  L 22,1  L 22,4  L 23,4  L 23,8  L 22,8  L 22,9  L 23,9  L 23,10  L 22,10  L 22,12  L 21,12  L 21,13  L 20,13  L 20,15  L 22,15  L 22,16  L 25,16  L 25,15  L 26,15  L 26,16  L 27,16  L 27,15  L 33,15  L 33,14  L 35,14  L 35,13  L 43,13  L 43,12  L 44,12  L 44,11  L 45,11  L 45,10  L 43,10  L 43,9  L 42,9  L 42,8  L 40,8  L 40,6  L 39,6  L 39,5  Z  " style="fill:rgb(0, 0, 0); fill-opacity:1.000; stroke:none;" />
 <path d="  M 101,28  L 102,28  L 102,29  L 101,29  L 101,30  L 102,30  L 102,31  L 101,31  L 101,32  L 102,32  L 102,35  L 101,35  L 101,36  L 102,36  L 102,39  L 101,39  L 101,40  L 102,40  L 102,43  L 101,43  L 101,44  L 102,44  L 102,47  L 101,47  L 101,48  L 102,48  L 102,51  L 101,51  L 101,52  L 102,52  L 102,55  L 101,55  L 101,56  L 102,56  L 102,59  L 101,59  L 101,60  L 102,60  L 102,61  L 101,61  L 101,62  L 102,62  L 102,63  L 101,63  L 101,64  L 102,64  L 102,67  L 101,67  L 101,68  L 102,68  L 102,69  L 101,69  L 101,70  L 102,70  L 102,71  L 101,71  L 101,72  L 102,72  L 102,75  L 101,75  L 101,76  L 102,76  L 102,79  L 101,79  L 101,80  L 102,80  L 102,83  L 101,83  L 101,84  L 102,84  L 102,87  L 101,87  L 101,88  L 102,88  L 102,91  L 101,91  L 101,92  L 102,92  L 102,95  L 101,95  L 101,96  L 102,96  L 102,97  L 101,97  L 101,98  L 102,98  L 102,101  L 103,101  L 103,102  L 107,102  L 107,94  L 108,94  L 108,16  L 107,16  L 107,6  L 106,6  L 106,5  L 105,5  L 105,6  L 104,6  L 104,5  L 103,5  L 103,6  L 101,6  L 101,7  L 100,7  L 100,8  L 101,8  Z  " style="fill:rgb(0, 0, 0); fill-opacity:1.000; stroke:none;" />
</svg>
