<?xml version="1.0" encoding="UTF-8" standalone="no"?>
<!DOCTYPE svg PUBLIC "-//W3C//DTD SVG 1.1//EN" 
  "http://www.w3.org/Graphics/SVG/1.1/DTD/svg11.dtd">
<svg width="107" height="125"
     xmlns="http://www.w3.org/2000/svg" version="1.1">
 <path d="  M 25,123  L 25,122  L 31,122  L 31,121  L 32,121  L 32,122  L 33,122  L 33,121  L 39,121  L 39,120  L 50,120  L 50,119  L 71,119  L 71,118  L 72,118  L 72,119  L 75,119  L 75,118  L 76,118  L 76,119  L 79,119  L 79,118  L 87,118  L 87,117  L 88,117  L 88,118  L 89,118  L 89,117  L 95,117  L 95,116  L 105,116  L 105,115  L 107,115  L 107,109  L 106,109  L 106,108  L 102,108  L 102,109  L 101,109  L 101,108  L 100,108  L 100,109  L 94,109  L 94,110  L 89,110  L 89,111  L 88,111  L 88,110  L 87,110  L 87,111  L 82,111  L 82,112  L 81,112  L 81,111  L 80,111  L 80,112  L 79,112  L 79,111  L 78,111  L 78,112  L 61,112  L 61,99  L 60,99  L 60,98  L 61,98  L 61,95  L 60,95  L 60,94  L 61,94  L 61,91  L 60,91  L 60,90  L 61,90  L 61,69  L 60,69  L 60,68  L 57,68  L 57,69  L 56,69  L 56,70  L 55,70  L 55,71  L 54,71  L 54,72  L 53,72  L 53,74  L 54,74  L 54,75  L 53,75  L 53,80  L 54,80  L 54,81  L 53,81  L 53,82  L 54,82  L 54,83  L 53,83  L 53,86  L 54,86  L 54,87  L 53,87  L 53,90  L 54,90  L 54,91  L 53,91  L 53,98  L 54,98  L 54,99  L 53,99  L 53,113  L 46,113  L 46,114  L 39,114  L 39,115  L 38,115  L 38,114  L 37,114  L 37,115  L 30,115  L 30,116  L 27,116  L 27,115  L 26,115  L 26,116  L 23,116  L 23,117  L 16,117  L 16,118  L 15,118  L 15,117  L 14,117  L 14,118  L 4,118  L 4,119  L 2,119  L 2,120  L 1,120  L 1,121  L 0,121  L 0,123  L 1,123  L 1,125  L 8,125  L 8,124  L 10,124  L 10,125  L 11,125  L 11,124  L 18,124  L 18,123  Z  " style="fill:rgb(0, 0, 0); fill-opacity:1.000; stroke:none;" />
 <path d="  M 58,38  L 57,38  L 57,39  L 56,39  L 56,40  L 55,40  L 55,41  L 54,41  L 54,42  L 52,42  L 52,43  L 51,43  L 51,44  L 50,44  L 50,45  L 49,45  L 49,46  L 48,46  L 48,47  L 47,47  L 47,48  L 46,48  L 46,49  L 45,49  L 45,51  L 43,51  L 43,52  L 42,52  L 42,53  L 41,53  L 41,55  L 39,55  L 39,56  L 38,56  L 38,57  L 37,57  L 37,58  L 36,58  L 36,59  L 35,59  L 35,60  L 34,60  L 34,61  L 33,61  L 33,62  L 32,62  L 32,63  L 30,63  L 30,64  L 29,64  L 29,65  L 28,65  L 28,67  L 26,67  L 26,68  L 25,68  L 25,69  L 24,69  L 24,70  L 23,70  L 23,71  L 22,71  L 22,72  L 20,72  L 20,73  L 19,73  L 19,74  L 18,74  L 18,75  L 16,75  L 16,76  L 15,76  L 15,77  L 14,77  L 14,79  L 13,79  L 13,83  L 14,83  L 14,84  L 19,84  L 19,83  L 20,83  L 20,82  L 21,82  L 21,81  L 22,81  L 22,80  L 23,80  L 23,79  L 24,79  L 24,78  L 25,78  L 25,77  L 26,77  L 26,76  L 27,76  L 27,75  L 28,75  L 28,74  L 30,74  L 30,72  L 31,72  L 31,71  L 32,71  L 32,70  L 34,70  L 34,69  L 35,69  L 35,68  L 36,68  L 36,67  L 37,67  L 37,66  L 38,66  L 38,65  L 39,65  L 39,63  L 41,63  L 41,62  L 42,62  L 42,61  L 43,61  L 43,60  L 44,60  L 44,59  L 45,59  L 45,58  L 46,58  L 46,57  L 47,57  L 47,56  L 48,56  L 48,55  L 49,55  L 49,54  L 50,54  L 50,53  L 51,53  L 51,52  L 53,52  L 53,50  L 54,50  L 54,49  L 55,49  L 55,48  L 56,48  L 56,47  L 58,47  L 58,48  L 59,48  L 59,47  L 60,47  L 60,48  L 63,48  L 63,49  L 68,49  L 68,50  L 71,50  L 71,51  L 74,51  L 74,52  L 75,52  L 75,53  L 77,53  L 77,54  L 79,54  L 79,55  L 82,55  L 82,56  L 83,56  L 83,57  L 86,57  L 86,58  L 87,58  L 87,59  L 90,59  L 90,60  L 91,60  L 91,61  L 96,61  L 96,62  L 97,62  L 97,60  L 98,60  L 98,57  L 97,57  L 97,55  L 96,55  L 96,54  L 94,54  L 94,53  L 92,53  L 92,52  L 90,52  L 90,51  L 87,51  L 87,50  L 86,50  L 86,49  L 83,49  L 83,48  L 81,48  L 81,47  L 77,47  L 77,46  L 74,46  L 74,45  L 73,45  L 73,44  L 70,44  L 70,43  L 69,43  L 69,42  L 68,42  L 68,41  L 67,41  L 67,38  L 69,38  L 69,37  L 70,37  L 70,35  L 71,35  L 71,34  L 72,34  L 72,32  L 73,32  L 73,31  L 74,31  L 74,27  L 73,27  L 73,25  L 72,25  L 72,24  L 71,24  L 71,23  L 69,23  L 69,22  L 66,22  L 66,21  L 61,21  L 61,22  L 55,22  L 55,23  L 52,23  L 52,24  L 51,24  L 51,23  L 50,23  L 50,24  L 44,24  L 44,25  L 37,25  L 37,26  L 31,26  L 31,27  L 26,27  L 26,28  L 21,28  L 21,29  L 17,29  L 17,30  L 16,30  L 16,31  L 15,31  L 15,33  L 14,33  L 14,34  L 16,34  L 16,36  L 21,36  L 21,35  L 23,35  L 23,34  L 26,34  L 26,33  L 31,33  L 31,32  L 38,32  L 38,31  L 49,31  L 49,30  L 50,30  L 50,31  L 51,31  L 51,30  L 59,30  L 59,29  L 66,29  L 66,31  L 65,31  L 65,33  L 63,33  L 63,34  L 61,34  L 61,35  L 60,35  L 60,36  L 59,36  L 59,37  L 58,37  Z  " style="fill:rgb(0, 0, 0); fill-opacity:1.000; stroke:none;" />
 <path d="  M 13,85  L 14,85  L 14,84  L 13,84  Z  " style="fill:rgb(0, 0, 0); fill-opacity:1.000; stroke:none;" />
 <path d="  M 39,2  L 39,3  L 37,3  L 37,5  L 36,5  L 36,6  L 37,6  L 37,7  L 44,7  L 44,8  L 45,8  L 45,9  L 46,9  L 46,10  L 47,10  L 47,12  L 48,12  L 48,13  L 47,13  L 47,14  L 48,14  L 48,18  L 50,18  L 50,16  L 51,16  L 51,15  L 52,15  L 52,11  L 53,11  L 53,9  L 54,9  L 54,5  L 53,5  L 53,4  L 50,4  L 50,3  L 49,3  L 49,2  L 48,2  L 48,1  L 46,1  L 46,0  L 44,0  L 44,1  L 40,1  L 40,2  Z  " style="fill:rgb(0, 0, 0); fill-opacity:1.000; stroke:none;" />
</svg>
