<?xml version="1.0" encoding="UTF-8" standalone="no"?>
<!DOCTYPE svg PUBLIC "-//W3C//DTD SVG 1.1//EN" 
  "http://www.w3.org/Graphics/SVG/1.1/DTD/svg11.dtd">
<svg width="102" height="187"
     xmlns="http://www.w3.org/2000/svg" version="1.1">
 <path d="  M 45,104  L 45,103  L 57,103  L 57,102  L 58,102  L 58,103  L 59,103  L 59,102  L 60,102  L 60,103  L 61,103  L 61,102  L 62,102  L 62,103  L 63,103  L 63,102  L 77,102  L 77,101  L 88,101  L 88,100  L 89,100  L 89,101  L 92,101  L 92,100  L 95,100  L 95,101  L 96,101  L 96,100  L 99,100  L 99,99  L 100,99  L 100,98  L 101,98  L 101,97  L 102,97  L 102,91  L 101,91  L 101,90  L 100,90  L 100,91  L 95,91  L 95,92  L 92,92  L 92,93  L 85,93  L 85,94  L 78,94  L 78,95  L 77,95  L 77,94  L 76,94  L 76,95  L 57,95  L 57,94  L 56,94  L 56,93  L 57,93  L 57,92  L 56,92  L 56,77  L 57,77  L 57,74  L 56,74  L 56,72  L 55,72  L 55,71  L 51,71  L 51,72  L 50,72  L 50,74  L 49,74  L 49,96  L 44,96  L 44,97  L 41,97  L 41,96  L 40,96  L 40,97  L 37,97  L 37,96  L 36,96  L 36,97  L 33,97  L 33,96  L 32,96  L 32,97  L 28,97  L 28,98  L 19,98  L 19,99  L 9,99  L 9,100  L 1,100  L 1,102  L 0,102  L 0,105  L 1,105  L 1,106  L 2,106  L 2,107  L 6,107  L 6,108  L 7,108  L 7,107  L 17,107  L 17,106  L 18,106  L 18,107  L 19,107  L 19,106  L 25,106  L 25,105  L 32,105  L 32,104  L 34,104  L 34,105  L 36,105  L 36,104  L 39,104  L 39,105  L 40,105  L 40,104  Z  " style="fill:rgb(0, 0, 0); fill-opacity:1.000; stroke:none;" />
 <path d="  M 53,42  L 53,44  L 52,44  L 52,46  L 50,46  L 50,48  L 49,48  L 49,49  L 48,49  L 48,50  L 47,50  L 47,51  L 46,51  L 46,53  L 45,53  L 45,54  L 44,54  L 44,55  L 43,55  L 43,56  L 42,56  L 42,57  L 41,57  L 41,59  L 40,59  L 40,60  L 39,60  L 39,61  L 38,61  L 38,62  L 37,62  L 37,63  L 36,63  L 36,64  L 34,64  L 34,65  L 32,65  L 32,66  L 31,66  L 31,67  L 29,67  L 29,68  L 27,68  L 27,69  L 26,69  L 26,70  L 25,70  L 25,71  L 23,71  L 23,72  L 22,72  L 22,73  L 19,73  L 19,74  L 18,74  L 18,75  L 17,75  L 17,76  L 15,76  L 15,78  L 16,78  L 16,79  L 17,79  L 17,80  L 18,80  L 18,81  L 21,81  L 21,80  L 23,80  L 23,79  L 25,79  L 25,78  L 27,78  L 27,77  L 28,77  L 28,76  L 30,76  L 30,75  L 32,75  L 32,74  L 34,74  L 34,73  L 36,73  L 36,72  L 37,72  L 37,71  L 39,71  L 39,70  L 40,70  L 40,69  L 41,69  L 41,68  L 42,68  L 42,67  L 43,67  L 43,66  L 45,66  L 45,64  L 46,64  L 46,63  L 47,63  L 47,62  L 48,62  L 48,61  L 49,61  L 49,60  L 50,60  L 50,59  L 51,59  L 51,58  L 53,58  L 53,57  L 55,57  L 55,56  L 56,56  L 56,55  L 59,55  L 59,56  L 60,56  L 60,57  L 63,57  L 63,58  L 65,58  L 65,59  L 67,59  L 67,60  L 69,60  L 69,61  L 70,61  L 70,62  L 72,62  L 72,63  L 74,63  L 74,64  L 76,64  L 76,65  L 77,65  L 77,66  L 78,66  L 78,67  L 79,67  L 79,68  L 80,68  L 80,67  L 81,67  L 81,68  L 82,68  L 82,69  L 85,69  L 85,70  L 86,70  L 86,71  L 88,71  L 88,70  L 89,70  L 89,67  L 88,67  L 88,66  L 87,66  L 87,64  L 86,64  L 86,62  L 84,62  L 84,60  L 83,60  L 83,59  L 82,59  L 82,58  L 79,58  L 79,57  L 78,57  L 78,56  L 77,56  L 77,55  L 76,55  L 76,54  L 75,54  L 75,53  L 73,53  L 73,52  L 72,52  L 72,51  L 70,51  L 70,50  L 69,50  L 69,49  L 66,49  L 66,48  L 65,48  L 65,49  L 64,49  L 64,48  L 63,48  L 63,45  L 64,45  L 64,43  L 65,43  L 65,42  L 66,42  L 66,38  L 67,38  L 67,35  L 68,35  L 68,33  L 69,33  L 69,30  L 68,30  L 68,28  L 67,28  L 67,26  L 64,26  L 64,25  L 51,25  L 51,24  L 49,24  L 49,21  L 50,21  L 50,20  L 49,20  L 49,16  L 48,16  L 48,8  L 47,8  L 47,4  L 46,4  L 46,3  L 45,3  L 45,1  L 43,1  L 43,0  L 41,0  L 41,1  L 39,1  L 39,2  L 37,2  L 37,1  L 36,1  L 36,2  L 35,2  L 35,3  L 34,3  L 34,4  L 33,4  L 33,5  L 35,5  L 35,6  L 36,6  L 36,7  L 38,7  L 38,8  L 39,8  L 39,10  L 40,10  L 40,15  L 41,15  L 41,18  L 42,18  L 42,21  L 44,21  L 44,22  L 45,22  L 45,25  L 43,25  L 43,26  L 42,26  L 42,25  L 40,25  L 40,26  L 37,26  L 37,27  L 36,27  L 36,26  L 35,26  L 35,27  L 32,27  L 32,28  L 31,28  L 31,27  L 28,27  L 28,28  L 20,28  L 20,29  L 14,29  L 14,30  L 13,30  L 13,31  L 12,31  L 12,32  L 11,32  L 11,34  L 12,34  L 12,35  L 14,35  L 14,36  L 21,36  L 21,35  L 35,35  L 35,34  L 44,34  L 44,33  L 45,33  L 45,34  L 47,34  L 47,33  L 54,33  L 54,34  L 55,34  L 55,33  L 57,33  L 57,34  L 58,34  L 58,35  L 59,35  L 59,36  L 58,36  L 58,38  L 57,38  L 57,39  L 56,39  L 56,40  L 55,40  L 55,41  L 54,41  L 54,42  Z  " style="fill:rgb(0, 0, 0); fill-opacity:1.000; stroke:none;" />
 <path d="  M 40,122  L 33,122  L 33,121  L 27,121  L 27,122  L 25,122  L 25,123  L 24,123  L 24,124  L 23,124  L 23,125  L 22,125  L 22,126  L 21,126  L 21,129  L 22,129  L 22,151  L 21,151  L 21,152  L 22,152  L 22,155  L 21,155  L 21,156  L 22,156  L 22,158  L 21,158  L 21,161  L 22,161  L 22,162  L 21,162  L 21,173  L 22,173  L 22,174  L 21,174  L 21,176  L 22,176  L 22,181  L 23,181  L 23,184  L 24,184  L 24,185  L 25,185  L 25,186  L 26,186  L 26,187  L 47,187  L 47,186  L 53,186  L 53,185  L 56,185  L 56,184  L 60,184  L 60,183  L 65,183  L 65,182  L 69,182  L 69,181  L 70,181  L 70,182  L 71,182  L 71,181  L 75,181  L 75,180  L 77,180  L 77,179  L 78,179  L 78,180  L 79,180  L 79,179  L 81,179  L 81,178  L 83,178  L 83,177  L 85,177  L 85,175  L 86,175  L 86,174  L 87,174  L 87,170  L 86,170  L 86,169  L 85,169  L 85,167  L 86,167  L 86,149  L 87,149  L 87,148  L 86,148  L 86,147  L 87,147  L 87,145  L 88,145  L 88,144  L 87,144  L 87,143  L 88,143  L 88,133  L 89,133  L 89,132  L 88,132  L 88,131  L 89,131  L 89,123  L 88,123  L 88,121  L 87,121  L 87,120  L 86,120  L 86,119  L 83,119  L 83,118  L 76,118  L 76,119  L 56,119  L 56,120  L 46,120  L 46,121  L 45,121  L 45,120  L 44,120  L 44,121  L 40,121  Z  M 73,126  L 73,125  L 75,125  L 75,126  L 77,126  L 77,125  L 81,125  L 81,126  L 82,126  L 82,131  L 81,131  L 81,142  L 80,142  L 80,150  L 79,150  L 79,151  L 80,151  L 80,152  L 79,152  L 79,163  L 80,163  L 80,166  L 81,166  L 81,170  L 79,170  L 79,171  L 77,171  L 77,172  L 75,172  L 75,173  L 71,173  L 71,174  L 67,174  L 67,175  L 65,175  L 65,174  L 64,174  L 64,175  L 63,175  L 63,176  L 58,176  L 58,177  L 53,177  L 53,178  L 47,178  L 47,179  L 43,179  L 43,180  L 42,180  L 42,179  L 37,179  L 37,178  L 33,178  L 33,177  L 30,177  L 30,175  L 29,175  L 29,174  L 28,174  L 28,157  L 29,157  L 29,156  L 28,156  L 28,155  L 29,155  L 29,150  L 28,150  L 28,149  L 29,149  L 29,146  L 28,146  L 28,145  L 29,145  L 29,133  L 30,133  L 30,131  L 34,131  L 34,130  L 37,130  L 37,129  L 40,129  L 40,128  L 43,128  L 43,129  L 44,129  L 44,128  L 46,128  L 46,127  L 59,127  L 59,126  L 60,126  L 60,127  L 61,127  L 61,126  L 62,126  L 62,127  L 63,127  L 63,126  Z  " style="fill:rgb(0, 0, 0); fill-opacity:1.000; stroke:none;" />
</svg>
