<?xml version="1.0" encoding="UTF-8" standalone="no"?>
<!DOCTYPE svg PUBLIC "-//W3C//DTD SVG 1.1//EN" 
  "http://www.w3.org/Graphics/SVG/1.1/DTD/svg11.dtd">
<svg width="104" height="192"
     xmlns="http://www.w3.org/2000/svg" version="1.1">
 <path d="  M 22,107  L 22,108  L 23,108  L 23,107  L 25,107  L 25,106  L 32,106  L 32,105  L 33,105  L 33,106  L 34,106  L 34,105  L 40,105  L 40,104  L 41,104  L 41,105  L 43,105  L 43,104  L 52,104  L 52,103  L 53,103  L 53,104  L 56,104  L 56,103  L 57,103  L 57,104  L 60,104  L 60,103  L 61,103  L 61,104  L 63,104  L 63,103  L 66,103  L 66,104  L 67,104  L 67,103  L 70,103  L 70,104  L 71,104  L 71,103  L 76,103  L 76,102  L 86,102  L 86,101  L 87,101  L 87,102  L 88,102  L 88,101  L 98,101  L 98,100  L 101,100  L 101,99  L 103,99  L 103,98  L 104,98  L 104,91  L 97,91  L 97,92  L 93,92  L 93,93  L 87,93  L 87,94  L 79,94  L 79,95  L 77,95  L 77,94  L 76,94  L 76,95  L 59,95  L 59,96  L 57,96  L 57,95  L 55,95  L 55,75  L 54,75  L 54,73  L 52,73  L 52,72  L 50,72  L 50,73  L 49,73  L 49,74  L 48,74  L 48,75  L 47,75  L 47,84  L 48,84  L 48,86  L 47,86  L 47,89  L 48,89  L 48,90  L 47,90  L 47,92  L 48,92  L 48,95  L 47,95  L 47,97  L 39,97  L 39,98  L 28,98  L 28,99  L 19,99  L 19,100  L 13,100  L 13,101  L 7,101  L 7,102  L 0,102  L 0,106  L 1,106  L 1,109  L 5,109  L 5,110  L 6,110  L 6,109  L 7,109  L 7,110  L 9,110  L 9,109  L 14,109  L 14,108  L 16,108  L 16,109  L 17,109  L 17,108  L 19,108  L 19,107  Z  " style="fill:rgb(0, 0, 0); fill-opacity:1.000; stroke:none;" />
 <path d="  M 67,30  L 66,30  L 66,29  L 65,29  L 65,28  L 63,28  L 63,27  L 51,27  L 51,26  L 50,26  L 50,23  L 49,23  L 49,21  L 48,21  L 48,15  L 47,15  L 47,9  L 46,9  L 46,2  L 45,2  L 45,1  L 44,1  L 44,0  L 40,0  L 40,2  L 39,2  L 39,3  L 38,3  L 38,8  L 39,8  L 39,14  L 40,14  L 40,15  L 39,15  L 39,16  L 40,16  L 40,20  L 41,20  L 41,24  L 43,24  L 43,27  L 42,27  L 42,28  L 41,28  L 41,27  L 33,27  L 33,28  L 31,28  L 31,27  L 30,27  L 30,28  L 25,28  L 25,29  L 22,29  L 22,30  L 21,30  L 21,29  L 20,29  L 20,30  L 16,30  L 16,31  L 13,31  L 13,32  L 11,32  L 11,33  L 10,33  L 10,36  L 12,36  L 12,37  L 13,37  L 13,38  L 18,38  L 18,37  L 29,37  L 29,36  L 40,36  L 40,35  L 41,35  L 41,36  L 42,36  L 42,35  L 53,35  L 53,36  L 56,36  L 56,39  L 55,39  L 55,41  L 54,41  L 54,42  L 53,42  L 53,43  L 52,43  L 52,45  L 51,45  L 51,46  L 50,46  L 50,48  L 49,48  L 49,49  L 48,49  L 48,51  L 47,51  L 47,52  L 46,52  L 46,53  L 45,53  L 45,54  L 44,54  L 44,55  L 43,55  L 43,57  L 42,57  L 42,58  L 41,58  L 41,59  L 40,59  L 40,60  L 39,60  L 39,61  L 37,61  L 37,63  L 36,63  L 36,64  L 35,64  L 35,65  L 34,65  L 34,66  L 32,66  L 32,67  L 30,67  L 30,68  L 29,68  L 29,69  L 28,69  L 28,70  L 26,70  L 26,71  L 24,71  L 24,72  L 22,72  L 22,73  L 20,73  L 20,74  L 19,74  L 19,75  L 17,75  L 17,76  L 16,76  L 16,77  L 15,77  L 15,80  L 14,80  L 14,81  L 15,81  L 15,82  L 18,82  L 18,83  L 19,83  L 19,82  L 22,82  L 22,81  L 24,81  L 24,80  L 26,80  L 26,79  L 27,79  L 27,78  L 28,78  L 28,77  L 31,77  L 31,76  L 32,76  L 32,75  L 34,75  L 34,74  L 35,74  L 35,73  L 37,73  L 37,72  L 38,72  L 38,71  L 39,71  L 39,70  L 40,70  L 40,69  L 41,69  L 41,68  L 44,68  L 44,66  L 45,66  L 45,65  L 47,65  L 47,63  L 48,63  L 48,62  L 49,62  L 49,61  L 51,61  L 51,60  L 52,60  L 52,59  L 53,59  L 53,58  L 58,58  L 58,59  L 59,59  L 59,60  L 61,60  L 61,61  L 64,61  L 64,62  L 66,62  L 66,63  L 67,63  L 67,64  L 68,64  L 68,65  L 71,65  L 71,66  L 73,66  L 73,67  L 75,67  L 75,68  L 76,68  L 76,69  L 78,69  L 78,70  L 81,70  L 81,71  L 85,71  L 85,72  L 91,72  L 91,70  L 90,70  L 90,68  L 89,68  L 89,66  L 87,66  L 87,65  L 86,65  L 86,64  L 84,64  L 84,63  L 82,63  L 82,62  L 80,62  L 80,61  L 78,61  L 78,60  L 77,60  L 77,59  L 75,59  L 75,58  L 73,58  L 73,57  L 72,57  L 72,56  L 71,56  L 71,55  L 69,55  L 69,54  L 67,54  L 67,53  L 66,53  L 66,52  L 65,52  L 65,53  L 64,53  L 64,52  L 63,52  L 63,51  L 62,51  L 62,46  L 63,46  L 63,43  L 64,43  L 64,42  L 65,42  L 65,40  L 66,40  L 66,36  L 67,36  L 67,34  L 68,34  L 68,33  L 67,33  Z  " style="fill:rgb(0, 0, 0); fill-opacity:1.000; stroke:none;" />
 <path d="  M 88,126  L 87,126  L 87,115  L 86,115  L 86,112  L 84,112  L 84,111  L 81,111  L 81,112  L 80,112  L 80,129  L 81,129  L 81,131  L 80,131  L 80,133  L 81,133  L 81,134  L 80,134  L 80,137  L 77,137  L 77,138  L 73,138  L 73,139  L 66,139  L 66,140  L 64,140  L 64,139  L 63,139  L 63,140  L 59,140  L 59,141  L 53,141  L 53,142  L 52,142  L 52,141  L 50,141  L 50,142  L 48,142  L 48,141  L 46,141  L 46,142  L 43,142  L 43,141  L 42,141  L 42,142  L 40,142  L 40,141  L 34,141  L 34,140  L 31,140  L 31,139  L 29,139  L 29,137  L 28,137  L 28,133  L 29,133  L 29,128  L 30,128  L 30,118  L 29,118  L 29,116  L 28,116  L 28,115  L 26,115  L 26,116  L 23,116  L 23,125  L 22,125  L 22,126  L 23,126  L 23,127  L 22,127  L 22,154  L 21,154  L 21,155  L 22,155  L 22,158  L 21,158  L 21,160  L 22,160  L 22,162  L 21,162  L 21,164  L 22,164  L 22,165  L 21,165  L 21,182  L 22,182  L 22,186  L 23,186  L 23,188  L 24,188  L 24,190  L 26,190  L 26,192  L 45,192  L 45,191  L 49,191  L 49,190  L 52,190  L 52,189  L 54,189  L 54,188  L 59,188  L 59,187  L 62,187  L 62,186  L 66,186  L 66,185  L 70,185  L 70,184  L 73,184  L 73,183  L 75,183  L 75,182  L 79,182  L 79,181  L 80,181  L 80,180  L 82,180  L 82,179  L 84,179  L 84,176  L 85,176  L 85,173  L 84,173  L 84,172  L 83,172  L 83,170  L 84,170  L 84,152  L 85,152  L 85,148  L 86,148  L 86,147  L 85,147  L 85,146  L 86,146  L 86,142  L 87,142  L 87,136  L 88,136  Z  M 67,148  L 67,147  L 70,147  L 70,146  L 77,146  L 77,145  L 78,145  L 78,153  L 77,153  L 77,156  L 78,156  L 78,157  L 77,157  L 77,167  L 78,167  L 78,169  L 79,169  L 79,173  L 78,173  L 78,174  L 76,174  L 76,175  L 74,175  L 74,176  L 72,176  L 72,177  L 67,177  L 67,178  L 66,178  L 66,179  L 61,179  L 61,180  L 57,180  L 57,181  L 53,181  L 53,182  L 52,182  L 52,181  L 51,181  L 51,182  L 50,182  L 50,183  L 46,183  L 46,184  L 43,184  L 43,183  L 42,183  L 42,184  L 39,184  L 39,183  L 35,183  L 35,182  L 32,182  L 32,181  L 31,181  L 31,180  L 29,180  L 29,177  L 28,177  L 28,158  L 29,158  L 29,157  L 28,157  L 28,155  L 29,155  L 29,153  L 28,153  L 28,152  L 29,152  L 29,150  L 28,150  L 28,148  L 29,148  L 29,145  L 31,145  L 31,146  L 32,146  L 32,147  L 33,147  L 33,148  L 36,148  L 36,149  L 42,149  L 42,150  L 56,150  L 56,149  L 59,149  L 59,150  L 60,150  L 60,149  L 62,149  L 62,148  Z  " style="fill:rgb(0, 0, 0); fill-opacity:1.000; stroke:none;" />
</svg>
