<?xml version="1.0" encoding="UTF-8" standalone="no"?>
<!DOCTYPE svg PUBLIC "-//W3C//DTD SVG 1.1//EN" 
  "http://www.w3.org/Graphics/SVG/1.1/DTD/svg11.dtd">
<svg width="106" height="111"
     xmlns="http://www.w3.org/2000/svg" version="1.1">
 <path d="  M 8,37  L 8,36  L 11,36  L 11,35  L 12,35  L 12,36  L 13,36  L 13,35  L 15,35  L 15,34  L 16,34  L 16,35  L 17,35  L 17,34  L 22,34  L 22,33  L 29,33  L 29,32  L 33,32  L 33,31  L 36,31  L 36,30  L 39,30  L 39,29  L 41,29  L 41,30  L 43,30  L 43,32  L 42,32  L 42,35  L 41,35  L 41,37  L 39,37  L 39,39  L 38,39  L 38,40  L 37,40  L 37,42  L 36,42  L 36,43  L 35,43  L 35,44  L 34,44  L 34,45  L 33,45  L 33,46  L 32,46  L 32,47  L 31,47  L 31,49  L 30,49  L 30,50  L 29,50  L 29,51  L 28,51  L 28,53  L 27,53  L 27,54  L 26,54  L 26,55  L 25,55  L 25,56  L 24,56  L 24,58  L 22,58  L 22,59  L 21,59  L 21,61  L 20,61  L 20,62  L 18,62  L 18,63  L 16,63  L 16,65  L 14,65  L 14,66  L 12,66  L 12,67  L 11,67  L 11,68  L 10,68  L 10,69  L 9,69  L 9,70  L 8,70  L 8,72  L 7,72  L 7,75  L 8,75  L 8,76  L 10,76  L 10,75  L 11,75  L 11,74  L 12,74  L 12,73  L 13,73  L 13,72  L 15,72  L 15,71  L 16,71  L 16,70  L 17,70  L 17,69  L 19,69  L 19,68  L 20,68  L 20,67  L 21,67  L 21,66  L 23,66  L 23,65  L 24,65  L 24,64  L 25,64  L 25,63  L 26,63  L 26,62  L 27,62  L 27,61  L 28,61  L 28,60  L 29,60  L 29,59  L 30,59  L 30,58  L 31,58  L 31,57  L 32,57  L 32,56  L 33,56  L 33,55  L 34,55  L 34,53  L 35,53  L 35,51  L 36,51  L 36,49  L 38,49  L 38,48  L 40,48  L 40,49  L 42,49  L 42,50  L 44,50  L 44,51  L 45,51  L 45,52  L 46,52  L 46,53  L 47,53  L 47,54  L 49,54  L 49,55  L 50,55  L 50,56  L 53,56  L 53,57  L 54,57  L 54,58  L 55,58  L 55,59  L 57,59  L 57,60  L 58,60  L 58,61  L 60,61  L 60,63  L 61,63  L 61,64  L 63,64  L 63,65  L 68,65  L 68,64  L 69,64  L 69,61  L 68,61  L 68,60  L 67,60  L 67,59  L 65,59  L 65,58  L 64,58  L 64,57  L 63,57  L 63,56  L 62,56  L 62,55  L 60,55  L 60,54  L 59,54  L 59,53  L 58,53  L 58,52  L 56,52  L 56,51  L 54,51  L 54,50  L 53,50  L 53,49  L 51,49  L 51,48  L 49,48  L 49,47  L 48,47  L 48,46  L 47,46  L 47,45  L 45,45  L 45,44  L 44,44  L 44,40  L 45,40  L 45,39  L 47,39  L 47,37  L 48,37  L 48,36  L 49,36  L 49,34  L 50,34  L 50,27  L 49,27  L 49,25  L 47,25  L 47,24  L 46,24  L 46,23  L 41,23  L 41,24  L 36,24  L 36,25  L 32,25  L 32,26  L 31,26  L 31,25  L 30,25  L 30,26  L 27,26  L 27,27  L 24,27  L 24,28  L 23,28  L 23,27  L 20,27  L 20,28  L 19,28  L 19,27  L 18,27  L 18,28  L 16,28  L 16,29  L 12,29  L 12,30  L 11,30  L 11,29  L 10,29  L 10,30  L 7,30  L 7,31  L 1,31  L 1,32  L 0,32  L 0,36  L 1,36  L 1,37  L 2,37  L 2,38  L 3,38  L 3,37  Z  " style="fill:rgb(0, 0, 0); fill-opacity:1.000; stroke:none;" />
 <path d="  M 38,61  L 37,61  L 37,63  L 36,63  L 36,72  L 35,72  L 35,85  L 34,85  L 34,86  L 35,86  L 35,89  L 34,89  L 34,90  L 35,90  L 35,95  L 32,95  L 32,96  L 23,96  L 23,97  L 22,97  L 22,96  L 21,96  L 21,97  L 14,97  L 14,98  L 13,98  L 13,97  L 12,97  L 12,98  L 11,98  L 11,97  L 10,97  L 10,98  L 3,98  L 3,99  L 2,99  L 2,100  L 1,100  L 1,104  L 4,104  L 4,105  L 9,105  L 9,104  L 15,104  L 15,103  L 16,103  L 16,104  L 17,104  L 17,103  L 23,103  L 23,102  L 24,102  L 24,103  L 26,103  L 26,102  L 36,102  L 36,101  L 37,101  L 37,102  L 38,102  L 38,101  L 41,101  L 41,102  L 42,102  L 42,101  L 45,101  L 45,102  L 46,102  L 46,101  L 51,101  L 51,100  L 52,100  L 52,101  L 55,101  L 55,100  L 62,100  L 62,99  L 71,99  L 71,98  L 72,98  L 72,97  L 73,97  L 73,93  L 72,93  L 72,92  L 64,92  L 64,93  L 58,93  L 58,94  L 55,94  L 55,93  L 54,93  L 54,94  L 48,94  L 48,95  L 47,95  L 47,94  L 46,94  L 46,95  L 44,95  L 44,94  L 43,94  L 43,95  L 42,95  L 42,94  L 41,94  L 41,78  L 42,78  L 42,77  L 41,77  L 41,76  L 42,76  L 42,75  L 41,75  L 41,74  L 42,74  L 42,66  L 43,66  L 43,62  L 44,62  L 44,60  L 43,60  L 43,59  L 42,59  L 42,58  L 38,58  Z  " style="fill:rgb(0, 0, 0); fill-opacity:1.000; stroke:none;" />
 <path d="  M 29,12  L 30,12  L 30,16  L 31,16  L 31,18  L 32,18  L 32,19  L 33,19  L 33,20  L 36,20  L 36,19  L 38,19  L 38,18  L 39,18  L 39,17  L 38,17  L 38,13  L 37,13  L 37,11  L 36,11  L 36,10  L 37,10  L 37,9  L 36,9  L 36,6  L 35,6  L 35,5  L 36,5  L 36,2  L 35,2  L 35,1  L 34,1  L 34,0  L 31,0  L 31,1  L 29,1  L 29,5  L 28,5  L 28,6  L 29,6  L 29,7  L 28,7  L 28,8  L 29,8  Z  " style="fill:rgb(0, 0, 0); fill-opacity:1.000; stroke:none;" />
 <path d="  M 80,95  L 79,95  L 79,96  L 80,96  L 80,98  L 79,98  L 79,111  L 84,111  L 84,110  L 85,110  L 85,96  L 86,96  L 86,95  L 85,95  L 85,94  L 86,94  L 86,93  L 85,93  L 85,92  L 86,92  L 86,60  L 88,60  L 88,59  L 106,59  L 106,53  L 103,53  L 103,52  L 101,52  L 101,53  L 98,53  L 98,52  L 97,52  L 97,53  L 91,53  L 91,52  L 90,52  L 90,53  L 85,53  L 85,41  L 84,41  L 84,40  L 85,40  L 85,39  L 84,39  L 84,30  L 83,30  L 83,21  L 82,21  L 82,11  L 81,11  L 81,9  L 76,9  L 76,11  L 75,11  L 75,12  L 76,12  L 76,23  L 77,23  L 77,33  L 78,33  L 78,41  L 79,41  L 79,52  L 80,52  Z  " style="fill:rgb(0, 0, 0); fill-opacity:1.000; stroke:none;" />
</svg>
