<?xml version="1.0" encoding="UTF-8" standalone="no"?>
<!DOCTYPE svg PUBLIC "-//W3C//DTD SVG 1.1//EN" 
  "http://www.w3.org/Graphics/SVG/1.1/DTD/svg11.dtd">
<svg width="111" height="146"
     xmlns="http://www.w3.org/2000/svg" version="1.1">
 <path d="  M 30,87  L 30,86  L 64,86  L 64,85  L 71,85  L 71,84  L 74,84  L 74,83  L 75,83  L 75,81  L 76,81  L 76,77  L 75,77  L 75,76  L 73,76  L 73,77  L 70,77  L 70,78  L 67,78  L 67,79  L 58,79  L 58,80  L 48,80  L 48,79  L 43,79  L 43,64  L 42,64  L 42,63  L 43,63  L 43,58  L 42,58  L 42,57  L 38,57  L 38,58  L 37,58  L 37,59  L 36,59  L 36,63  L 37,63  L 37,80  L 34,80  L 34,81  L 32,81  L 32,80  L 31,80  L 31,81  L 28,81  L 28,80  L 27,80  L 27,81  L 19,81  L 19,82  L 18,82  L 18,81  L 17,81  L 17,82  L 1,82  L 1,85  L 0,85  L 0,86  L 1,86  L 1,87  L 4,87  L 4,88  L 6,88  L 6,89  L 8,89  L 8,88  L 16,88  L 16,87  L 19,87  L 19,88  L 20,88  L 20,87  L 28,87  L 28,86  L 29,86  L 29,87  Z  " style="fill:rgb(0, 0, 0); fill-opacity:1.000; stroke:none;" />
 <path d="  M 6,33  L 8,33  L 8,32  L 12,32  L 12,31  L 14,31  L 14,30  L 20,30  L 20,29  L 29,29  L 29,28  L 30,28  L 30,29  L 31,29  L 31,28  L 41,28  L 41,27  L 45,27  L 45,28  L 46,28  L 46,29  L 48,29  L 48,30  L 49,30  L 49,29  L 51,29  L 51,27  L 54,27  L 54,26  L 55,26  L 55,24  L 54,24  L 54,23  L 52,23  L 52,22  L 50,22  L 50,21  L 48,21  L 48,20  L 41,20  L 41,21  L 39,21  L 39,22  L 32,22  L 32,23  L 26,23  L 26,24  L 19,24  L 19,25  L 13,25  L 13,26  L 10,26  L 10,27  L 4,27  L 4,28  L 3,28  L 3,29  L 4,29  L 4,30  L 3,30  L 3,31  L 5,31  L 5,32  L 6,32  Z  " style="fill:rgb(0, 0, 0); fill-opacity:1.000; stroke:none;" />
 <path d="  M 34,42  L 34,43  L 33,43  L 33,45  L 32,45  L 32,47  L 31,47  L 31,48  L 30,48  L 30,49  L 29,49  L 29,50  L 28,50  L 28,51  L 27,51  L 27,52  L 26,52  L 26,53  L 25,53  L 25,54  L 24,54  L 24,55  L 23,55  L 23,56  L 21,56  L 21,57  L 20,57  L 20,58  L 17,58  L 17,60  L 15,60  L 15,61  L 14,61  L 14,62  L 13,62  L 13,63  L 12,63  L 12,64  L 11,64  L 11,65  L 10,65  L 10,68  L 12,68  L 12,67  L 16,67  L 16,66  L 18,66  L 18,65  L 20,65  L 20,64  L 22,64  L 22,63  L 23,63  L 23,62  L 24,62  L 24,61  L 26,61  L 26,60  L 27,60  L 27,59  L 29,59  L 29,58  L 30,58  L 30,57  L 31,57  L 31,56  L 32,56  L 32,55  L 33,55  L 33,54  L 34,54  L 34,53  L 35,53  L 35,52  L 36,52  L 36,50  L 37,50  L 37,49  L 38,49  L 38,48  L 39,48  L 39,47  L 40,47  L 40,46  L 42,46  L 42,47  L 44,47  L 44,48  L 45,48  L 45,49  L 46,49  L 46,50  L 47,50  L 47,51  L 48,51  L 48,52  L 50,52  L 50,53  L 52,53  L 52,54  L 54,54  L 54,55  L 56,55  L 56,56  L 57,56  L 57,57  L 59,57  L 59,58  L 61,58  L 61,59  L 63,59  L 63,60  L 65,60  L 65,61  L 71,61  L 71,59  L 73,59  L 73,58  L 72,58  L 72,57  L 71,57  L 71,56  L 69,56  L 69,55  L 67,55  L 67,54  L 66,54  L 66,53  L 64,53  L 64,52  L 63,52  L 63,51  L 61,51  L 61,50  L 60,50  L 60,49  L 57,49  L 57,48  L 55,48  L 55,47  L 54,47  L 54,46  L 51,46  L 51,45  L 50,45  L 50,44  L 48,44  L 48,43  L 47,43  L 47,42  L 46,42  L 46,41  L 45,41  L 45,37  L 46,37  L 46,35  L 47,35  L 47,34  L 48,34  L 48,33  L 49,33  L 49,32  L 48,32  L 48,31  L 47,31  L 47,30  L 46,30  L 46,31  L 45,31  L 45,30  L 44,30  L 44,31  L 43,31  L 43,32  L 42,32  L 42,33  L 41,33  L 41,34  L 40,34  L 40,36  L 39,36  L 39,37  L 38,37  L 38,38  L 37,38  L 37,39  L 36,39  L 36,40  L 35,40  L 35,42  Z  " style="fill:rgb(0, 0, 0); fill-opacity:1.000; stroke:none;" />
 <path d="  M 11,70  L 11,69  L 10,69  L 10,70  Z  " style="fill:rgb(0, 0, 0); fill-opacity:1.000; stroke:none;" />
 <path d="  M 25,9  L 25,10  L 26,10  L 26,9  L 32,9  L 32,10  L 33,10  L 33,11  L 35,11  L 35,12  L 37,12  L 37,13  L 39,13  L 39,12  L 40,12  L 40,10  L 41,10  L 41,8  L 40,8  L 40,3  L 39,3  L 39,0  L 36,0  L 36,1  L 35,1  L 35,2  L 34,2  L 34,3  L 29,3  L 29,4  L 20,4  L 20,5  L 19,5  L 19,6  L 17,6  L 17,9  Z  " style="fill:rgb(0, 0, 0); fill-opacity:1.000; stroke:none;" />
 <path d="  M 50,113  L 50,112  L 51,112  L 51,111  L 52,111  L 52,110  L 55,110  L 55,109  L 64,109  L 64,110  L 71,110  L 71,111  L 75,111  L 75,112  L 78,112  L 78,113  L 80,113  L 80,114  L 81,114  L 81,115  L 82,115  L 82,117  L 83,117  L 83,126  L 82,126  L 82,129  L 81,129  L 81,131  L 80,131  L 80,132  L 79,132  L 79,133  L 77,133  L 77,134  L 76,134  L 76,135  L 74,135  L 74,136  L 70,136  L 70,137  L 68,137  L 68,138  L 63,138  L 63,139  L 52,139  L 52,138  L 47,138  L 47,137  L 45,137  L 45,136  L 43,136  L 43,135  L 40,135  L 40,133  L 39,133  L 39,126  L 40,126  L 40,123  L 41,123  L 41,121  L 42,121  L 42,120  L 43,120  L 43,119  L 44,119  L 44,118  L 45,118  L 45,117  L 46,117  L 46,116  L 47,116  L 47,115  L 48,115  L 48,114  L 49,114  L 49,113  Z  M 80,139  L 80,138  L 82,138  L 82,137  L 83,137  L 83,136  L 84,136  L 84,135  L 85,135  L 85,133  L 86,133  L 86,132  L 87,132  L 87,131  L 88,131  L 88,130  L 89,130  L 89,127  L 90,127  L 90,116  L 89,116  L 89,113  L 88,113  L 88,110  L 87,110  L 87,109  L 86,109  L 86,108  L 84,108  L 84,107  L 82,107  L 82,106  L 79,106  L 79,105  L 76,105  L 76,104  L 71,104  L 71,103  L 70,103  L 70,104  L 69,104  L 69,103  L 64,103  L 64,102  L 58,102  L 58,101  L 51,101  L 51,102  L 49,102  L 49,103  L 48,103  L 48,104  L 47,104  L 47,105  L 46,105  L 46,106  L 45,106  L 45,107  L 44,107  L 44,108  L 43,108  L 43,110  L 42,110  L 42,111  L 41,111  L 41,113  L 40,113  L 40,114  L 39,114  L 39,116  L 38,116  L 38,117  L 37,117  L 37,119  L 36,119  L 36,120  L 35,120  L 35,121  L 34,121  L 34,123  L 33,123  L 33,125  L 32,125  L 32,135  L 33,135  L 33,137  L 34,137  L 34,138  L 35,138  L 35,139  L 36,139  L 36,140  L 38,140  L 38,141  L 39,141  L 39,142  L 41,142  L 41,143  L 44,143  L 44,144  L 48,144  L 48,145  L 53,145  L 53,146  L 65,146  L 65,145  L 70,145  L 70,144  L 71,144  L 71,143  L 73,143  L 73,142  L 75,142  L 75,141  L 77,141  L 77,140  L 79,140  L 79,139  Z  " style="fill:rgb(0, 0, 0); fill-opacity:1.000; stroke:none;" />
 <path d="  M 82,90  L 82,91  L 83,91  L 83,93  L 84,93  L 84,94  L 86,94  L 86,95  L 87,95  L 87,94  L 88,94  L 88,93  L 89,93  L 89,90  L 88,90  L 88,83  L 87,83  L 87,77  L 86,77  L 86,60  L 85,60  L 85,51  L 84,51  L 84,50  L 85,50  L 85,49  L 84,49  L 84,48  L 85,48  L 85,47  L 86,47  L 86,46  L 89,46  L 89,45  L 99,45  L 99,44  L 106,44  L 106,45  L 111,45  L 111,41  L 110,41  L 110,40  L 109,40  L 109,39  L 106,39  L 106,38  L 105,38  L 105,39  L 104,39  L 104,38  L 103,38  L 103,39  L 88,39  L 88,38  L 87,38  L 87,39  L 86,39  L 86,38  L 84,38  L 84,31  L 83,31  L 83,22  L 82,22  L 82,18  L 81,18  L 81,15  L 80,15  L 80,12  L 79,12  L 79,9  L 78,9  L 78,8  L 74,8  L 74,12  L 75,12  L 75,18  L 76,18  L 76,21  L 77,21  L 77,25  L 78,25  L 78,37  L 79,37  L 79,38  L 78,38  L 78,41  L 79,41  L 79,56  L 80,56  L 80,57  L 79,57  L 79,59  L 80,59  L 80,75  L 81,75  L 81,80  L 82,80  L 82,89  L 83,89  L 83,90  Z  " style="fill:rgb(0, 0, 0); fill-opacity:1.000; stroke:none;" />
</svg>
