<?xml version="1.0" encoding="UTF-8" standalone="no"?>
<!DOCTYPE svg PUBLIC "-//W3C//DTD SVG 1.1//EN" 
  "http://www.w3.org/Graphics/SVG/1.1/DTD/svg11.dtd">
<svg width="103" height="154"
     xmlns="http://www.w3.org/2000/svg" version="1.1">
 <path d="  M 51,32  L 51,30  L 52,30  L 52,29  L 53,29  L 53,27  L 52,27  L 52,26  L 51,26  L 51,25  L 49,25  L 49,24  L 44,24  L 44,23  L 41,23  L 41,24  L 34,24  L 34,25  L 27,25  L 27,26  L 22,26  L 22,27  L 20,27  L 20,26  L 19,26  L 19,27  L 15,27  L 15,28  L 12,28  L 12,29  L 10,29  L 10,30  L 6,30  L 6,31  L 3,31  L 3,32  L 2,32  L 2,33  L 1,33  L 1,34  L 2,34  L 2,35  L 3,35  L 3,36  L 8,36  L 8,35  L 12,35  L 12,34  L 18,34  L 18,33  L 26,33  L 26,32  L 39,32  L 39,31  L 46,31  L 46,32  Z  " style="fill:rgb(0, 0, 0); fill-opacity:1.000; stroke:none;" />
 <path d="  M 33,76  L 34,76  L 34,88  L 33,88  L 33,89  L 21,89  L 21,90  L 20,90  L 20,89  L 18,89  L 18,90  L 9,90  L 9,91  L 4,91  L 4,92  L 2,92  L 2,93  L 1,93  L 1,98  L 2,98  L 2,99  L 7,99  L 7,98  L 8,98  L 8,99  L 9,99  L 9,98  L 14,98  L 14,97  L 22,97  L 22,96  L 37,96  L 37,95  L 42,95  L 42,94  L 48,94  L 48,93  L 49,93  L 49,94  L 50,94  L 50,93  L 60,93  L 60,92  L 68,92  L 68,91  L 74,91  L 74,90  L 80,90  L 80,89  L 82,89  L 82,88  L 83,88  L 83,87  L 84,87  L 84,83  L 83,83  L 83,82  L 76,82  L 76,83  L 73,83  L 73,84  L 69,84  L 69,85  L 65,85  L 65,86  L 64,86  L 64,85  L 63,85  L 63,86  L 55,86  L 55,87  L 52,87  L 52,86  L 51,86  L 51,87  L 44,87  L 44,88  L 42,88  L 42,87  L 41,87  L 41,85  L 40,85  L 40,67  L 36,67  L 36,68  L 34,68  L 34,69  L 33,69  Z  " style="fill:rgb(0, 0, 0); fill-opacity:1.000; stroke:none;" />
 <path d="  M 3,70  L 3,69  L 2,69  L 2,70  Z  " style="fill:rgb(0, 0, 0); fill-opacity:1.000; stroke:none;" />
 <path d="  M 47,36  L 47,35  L 44,35  L 44,36  L 42,36  L 42,37  L 40,37  L 40,38  L 39,38  L 39,39  L 38,39  L 38,41  L 37,41  L 37,42  L 36,42  L 36,44  L 35,44  L 35,45  L 34,45  L 34,46  L 33,46  L 33,47  L 32,47  L 32,48  L 31,48  L 31,49  L 30,49  L 30,51  L 29,51  L 29,52  L 28,52  L 28,53  L 27,53  L 27,54  L 26,54  L 26,55  L 25,55  L 25,56  L 24,56  L 24,57  L 22,57  L 22,59  L 20,59  L 20,60  L 19,60  L 19,61  L 18,61  L 18,62  L 17,62  L 17,63  L 15,63  L 15,64  L 13,64  L 13,65  L 11,65  L 11,66  L 10,66  L 10,67  L 8,67  L 8,68  L 5,68  L 5,69  L 4,69  L 4,70  L 5,70  L 5,72  L 6,72  L 6,73  L 11,73  L 11,72  L 15,72  L 15,71  L 16,71  L 16,70  L 19,70  L 19,68  L 21,68  L 21,67  L 23,67  L 23,66  L 24,66  L 24,65  L 26,65  L 26,64  L 27,64  L 27,63  L 28,63  L 28,62  L 29,62  L 29,61  L 30,61  L 30,60  L 31,60  L 31,59  L 32,59  L 32,57  L 33,57  L 33,56  L 34,56  L 34,55  L 35,55  L 35,54  L 36,54  L 36,53  L 37,53  L 37,52  L 38,52  L 38,51  L 39,51  L 39,52  L 40,52  L 40,51  L 41,51  L 41,52  L 42,52  L 42,53  L 44,53  L 44,54  L 47,54  L 47,55  L 49,55  L 49,56  L 51,56  L 51,57  L 52,57  L 52,58  L 54,58  L 54,59  L 57,59  L 57,60  L 60,60  L 60,61  L 62,61  L 62,62  L 65,62  L 65,63  L 68,63  L 68,64  L 69,64  L 69,65  L 70,65  L 70,64  L 71,64  L 71,65  L 75,65  L 75,62  L 73,62  L 73,60  L 72,60  L 72,59  L 70,59  L 70,58  L 67,58  L 67,57  L 65,57  L 65,56  L 63,56  L 63,55  L 62,55  L 62,54  L 60,54  L 60,53  L 58,53  L 58,52  L 56,52  L 56,51  L 55,51  L 55,50  L 53,50  L 53,49  L 52,49  L 52,48  L 50,48  L 50,47  L 48,47  L 48,46  L 47,46  L 47,47  L 46,47  L 46,46  L 45,46  L 45,45  L 44,45  L 44,43  L 45,43  L 45,42  L 46,42  L 46,40  L 47,40  L 47,38  L 48,38  L 48,37  L 49,37  L 49,36  Z  " style="fill:rgb(0, 0, 0); fill-opacity:1.000; stroke:none;" />
 <path d="  M 26,2  L 25,2  L 25,5  L 26,5  L 26,8  L 25,8  L 25,10  L 27,10  L 27,11  L 29,11  L 29,13  L 30,13  L 30,14  L 31,14  L 31,16  L 32,16  L 32,17  L 33,17  L 33,19  L 34,19  L 34,20  L 36,20  L 36,13  L 35,13  L 35,8  L 34,8  L 34,5  L 33,5  L 33,4  L 32,4  L 32,2  L 31,2  L 31,1  L 30,1  L 30,0  L 27,0  L 27,1  L 26,1  Z  " style="fill:rgb(0, 0, 0); fill-opacity:1.000; stroke:none;" />
 <path d="  M 31,135  L 30,135  L 30,136  L 31,136  L 31,139  L 30,139  L 30,140  L 31,140  L 31,147  L 32,147  L 32,151  L 33,151  L 33,152  L 34,152  L 34,153  L 35,153  L 35,154  L 60,154  L 60,153  L 61,153  L 61,154  L 62,154  L 62,153  L 65,153  L 65,154  L 66,154  L 66,153  L 72,153  L 72,152  L 73,152  L 73,153  L 74,153  L 74,152  L 87,152  L 87,151  L 90,151  L 90,152  L 91,152  L 91,151  L 94,151  L 94,152  L 95,152  L 95,151  L 100,151  L 100,150  L 101,150  L 101,151  L 102,151  L 102,150  L 103,150  L 103,143  L 102,143  L 102,142  L 101,142  L 101,143  L 95,143  L 95,144  L 92,144  L 92,143  L 91,143  L 91,144  L 88,144  L 88,143  L 87,143  L 87,144  L 83,144  L 83,145  L 73,145  L 73,146  L 72,146  L 72,145  L 71,145  L 71,146  L 62,146  L 62,147  L 51,147  L 51,148  L 48,148  L 48,147  L 47,147  L 47,148  L 44,148  L 44,147  L 43,147  L 43,148  L 42,148  L 42,147  L 39,147  L 39,146  L 38,146  L 38,135  L 37,135  L 37,134  L 38,134  L 38,116  L 39,116  L 39,115  L 38,115  L 38,114  L 39,114  L 39,111  L 38,111  L 38,110  L 37,110  L 37,109  L 34,109  L 34,110  L 32,110  L 32,111  L 31,111  Z  " style="fill:rgb(0, 0, 0); fill-opacity:1.000; stroke:none;" />
 <path d="  M 92,98  L 93,98  L 93,101  L 92,101  L 92,102  L 93,102  L 93,108  L 94,108  L 94,109  L 95,109  L 95,110  L 96,110  L 96,111  L 97,111  L 97,110  L 98,110  L 98,109  L 100,109  L 100,99  L 99,99  L 99,73  L 98,73  L 98,72  L 99,72  L 99,69  L 98,69  L 98,66  L 99,66  L 99,65  L 98,65  L 98,53  L 97,53  L 97,45  L 96,45  L 96,44  L 95,44  L 95,40  L 94,40  L 94,37  L 93,37  L 93,33  L 92,33  L 92,30  L 91,30  L 91,23  L 90,23  L 90,19  L 89,19  L 89,16  L 90,16  L 90,15  L 89,15  L 89,12  L 88,12  L 88,11  L 86,11  L 86,10  L 84,10  L 84,11  L 83,11  L 83,12  L 82,12  L 82,18  L 83,18  L 83,25  L 84,25  L 84,28  L 85,28  L 85,30  L 86,30  L 86,36  L 87,36  L 87,40  L 88,40  L 88,42  L 89,42  L 89,46  L 90,46  L 90,51  L 91,51  L 91,58  L 92,58  Z  " style="fill:rgb(0, 0, 0); fill-opacity:1.000; stroke:none;" />
</svg>
