<?xml version="1.0" encoding="UTF-8" standalone="no"?>
<!DOCTYPE svg PUBLIC "-//W3C//DTD SVG 1.1//EN" 
  "http://www.w3.org/Graphics/SVG/1.1/DTD/svg11.dtd">
<svg width="104" height="159"
     xmlns="http://www.w3.org/2000/svg" version="1.1">
 <path d="  M 6,94  L 6,95  L 2,95  L 2,96  L 1,96  L 1,97  L 0,97  L 0,98  L 1,98  L 1,100  L 2,100  L 2,102  L 9,102  L 9,101  L 14,101  L 14,100  L 19,100  L 19,99  L 23,99  L 23,98  L 29,98  L 29,97  L 30,97  L 30,98  L 32,98  L 32,97  L 34,97  L 34,98  L 36,98  L 36,97  L 53,97  L 53,96  L 65,96  L 65,95  L 76,95  L 76,94  L 77,94  L 77,95  L 82,95  L 82,94  L 83,94  L 83,92  L 84,92  L 84,89  L 83,89  L 83,87  L 76,87  L 76,88  L 69,88  L 69,89  L 48,89  L 48,90  L 47,90  L 47,89  L 45,89  L 45,77  L 44,77  L 44,70  L 45,70  L 45,66  L 44,66  L 44,65  L 42,65  L 42,66  L 39,66  L 39,67  L 38,67  L 38,90  L 32,90  L 32,91  L 24,91  L 24,92  L 17,92  L 17,93  L 10,93  L 10,94  Z  " style="fill:rgb(0, 0, 0); fill-opacity:1.000; stroke:none;" />
 <path d="  M 40,21  L 40,16  L 39,16  L 39,12  L 38,12  L 38,7  L 37,7  L 37,5  L 36,5  L 36,3  L 35,3  L 35,1  L 34,1  L 34,0  L 30,0  L 30,1  L 29,1  L 29,8  L 30,8  L 30,9  L 31,9  L 31,11  L 32,11  L 32,12  L 33,12  L 33,14  L 34,14  L 34,16  L 35,16  L 35,17  L 36,17  L 36,18  L 37,18  L 37,20  L 38,20  L 38,23  L 35,23  L 35,24  L 30,24  L 30,25  L 29,25  L 29,24  L 28,24  L 28,25  L 20,25  L 20,26  L 17,26  L 17,27  L 12,27  L 12,28  L 7,28  L 7,29  L 4,29  L 4,30  L 3,30  L 3,35  L 4,35  L 4,36  L 5,36  L 5,35  L 6,35  L 6,36  L 8,36  L 8,35  L 10,35  L 10,34  L 12,34  L 12,33  L 19,33  L 19,32  L 27,32  L 27,31  L 36,31  L 36,30  L 47,30  L 47,31  L 49,31  L 49,32  L 50,32  L 50,31  L 52,31  L 52,30  L 53,30  L 53,31  L 55,31  L 55,30  L 56,30  L 56,29  L 57,29  L 57,25  L 56,25  L 56,24  L 54,24  L 54,23  L 53,23  L 53,22  L 51,22  L 51,23  L 49,23  L 49,22  L 48,22  L 48,23  L 42,23  L 42,22  L 41,22  L 41,21  Z  " style="fill:rgb(0, 0, 0); fill-opacity:1.000; stroke:none;" />
 <path d="  M 46,35  L 46,36  L 45,36  L 45,37  L 44,37  L 44,38  L 42,38  L 42,40  L 41,40  L 41,41  L 40,41  L 40,42  L 39,42  L 39,43  L 38,43  L 38,45  L 37,45  L 37,46  L 36,46  L 36,47  L 35,47  L 35,48  L 34,48  L 34,49  L 32,49  L 32,50  L 31,50  L 31,51  L 30,51  L 30,52  L 29,52  L 29,53  L 28,53  L 28,54  L 27,54  L 27,55  L 26,55  L 26,56  L 25,56  L 25,57  L 23,57  L 23,58  L 22,58  L 22,59  L 21,59  L 21,60  L 20,60  L 20,61  L 18,61  L 18,62  L 17,62  L 17,63  L 15,63  L 15,64  L 14,64  L 14,65  L 12,65  L 12,66  L 9,66  L 9,67  L 6,67  L 6,69  L 5,69  L 5,70  L 6,70  L 6,72  L 11,72  L 11,73  L 12,73  L 12,72  L 17,72  L 17,71  L 18,71  L 18,70  L 20,70  L 20,69  L 21,69  L 21,68  L 22,68  L 22,67  L 24,67  L 24,66  L 25,66  L 25,65  L 27,65  L 27,64  L 28,64  L 28,63  L 29,63  L 29,62  L 30,62  L 30,61  L 31,61  L 31,60  L 32,60  L 32,59  L 34,59  L 34,57  L 35,57  L 35,56  L 36,56  L 36,55  L 37,55  L 37,54  L 38,54  L 38,53  L 39,53  L 39,52  L 40,52  L 40,51  L 41,51  L 41,50  L 42,50  L 42,49  L 44,49  L 44,50  L 45,50  L 45,49  L 46,49  L 46,50  L 49,50  L 49,51  L 50,51  L 50,52  L 52,52  L 52,53  L 54,53  L 54,54  L 55,54  L 55,55  L 56,55  L 56,56  L 58,56  L 58,57  L 60,57  L 60,58  L 61,58  L 61,59  L 63,59  L 63,60  L 65,60  L 65,61  L 68,61  L 68,62  L 69,62  L 69,63  L 72,63  L 72,64  L 76,64  L 76,63  L 77,63  L 77,60  L 76,60  L 76,59  L 75,59  L 75,58  L 74,58  L 74,57  L 73,57  L 73,56  L 70,56  L 70,55  L 69,55  L 69,54  L 67,54  L 67,53  L 65,53  L 65,52  L 63,52  L 63,51  L 61,51  L 61,50  L 60,50  L 60,49  L 59,49  L 59,48  L 58,48  L 58,47  L 56,47  L 56,46  L 55,46  L 55,45  L 53,45  L 53,44  L 50,44  L 50,42  L 49,42  L 49,40  L 50,40  L 50,38  L 51,38  L 51,36  L 52,36  L 52,33  L 47,33  L 47,35  Z  " style="fill:rgb(0, 0, 0); fill-opacity:1.000; stroke:none;" />
 <path d="  M 81,159  L 81,158  L 82,158  L 82,159  L 85,159  L 85,158  L 93,158  L 93,157  L 96,157  L 96,156  L 98,156  L 98,155  L 100,155  L 100,154  L 101,154  L 101,152  L 102,152  L 102,150  L 103,150  L 103,149  L 102,149  L 102,148  L 103,148  L 103,142  L 104,142  L 104,117  L 103,117  L 103,116  L 101,116  L 101,115  L 100,115  L 100,114  L 98,114  L 98,113  L 95,113  L 95,112  L 89,112  L 89,111  L 88,111  L 88,112  L 87,112  L 87,111  L 72,111  L 72,112  L 71,112  L 71,111  L 70,111  L 70,112  L 59,112  L 59,113  L 58,113  L 58,112  L 57,112  L 57,113  L 47,113  L 47,112  L 46,112  L 46,111  L 40,111  L 40,112  L 32,112  L 32,113  L 29,113  L 29,114  L 28,114  L 28,116  L 27,116  L 27,120  L 29,120  L 29,121  L 30,121  L 30,122  L 35,122  L 35,121  L 37,121  L 37,122  L 39,122  L 39,125  L 40,125  L 40,127  L 39,127  L 39,132  L 40,132  L 40,133  L 39,133  L 39,134  L 40,134  L 40,150  L 41,150  L 41,155  L 42,155  L 42,157  L 43,157  L 43,158  L 45,158  L 45,159  Z  M 74,119  L 75,119  L 75,118  L 80,118  L 80,119  L 81,119  L 81,118  L 82,118  L 82,119  L 92,119  L 92,120  L 97,120  L 97,121  L 98,121  L 98,136  L 97,136  L 97,144  L 96,144  L 96,149  L 95,149  L 95,150  L 94,150  L 94,151  L 88,151  L 88,152  L 71,152  L 71,153  L 49,153  L 49,152  L 48,152  L 48,149  L 47,149  L 47,148  L 48,148  L 48,147  L 47,147  L 47,130  L 46,130  L 46,128  L 47,128  L 47,127  L 46,127  L 46,124  L 47,124  L 47,122  L 48,122  L 48,121  L 54,121  L 54,120  L 59,120  L 59,119  L 62,119  L 62,120  L 63,120  L 63,119  L 73,119  L 73,118  L 74,118  Z  " style="fill:rgb(0, 0, 0); fill-opacity:1.000; stroke:none;" />
 <path d="  M 99,48  L 98,48  L 98,43  L 97,43  L 97,39  L 96,39  L 96,35  L 95,35  L 95,31  L 94,31  L 94,30  L 95,30  L 95,29  L 94,29  L 94,25  L 93,25  L 93,16  L 92,16  L 92,11  L 91,11  L 91,10  L 89,10  L 89,9  L 88,9  L 88,10  L 86,10  L 86,12  L 85,12  L 85,23  L 86,23  L 86,28  L 87,28  L 87,29  L 86,29  L 86,30  L 87,30  L 87,32  L 88,32  L 88,38  L 89,38  L 89,41  L 90,41  L 90,44  L 91,44  L 91,49  L 92,49  L 92,57  L 93,57  L 93,59  L 92,59  L 92,60  L 93,60  L 93,88  L 94,88  L 94,96  L 95,96  L 95,98  L 96,98  L 96,99  L 97,99  L 97,100  L 101,100  L 101,88  L 100,88  L 100,87  L 101,87  L 101,84  L 100,84  L 100,55  L 99,55  Z  " style="fill:rgb(0, 0, 0); fill-opacity:1.000; stroke:none;" />
</svg>
