<?xml version="1.0" encoding="UTF-8" standalone="no"?>
<!DOCTYPE svg PUBLIC "-//W3C//DTD SVG 1.1//EN" 
  "http://www.w3.org/Graphics/SVG/1.1/DTD/svg11.dtd">
<svg width="113" height="135"
     xmlns="http://www.w3.org/2000/svg" version="1.1">
 <path d="  M 51,133  L 51,132  L 52,132  L 52,133  L 53,133  L 53,132  L 54,132  L 54,133  L 55,133  L 55,132  L 56,132  L 56,133  L 59,133  L 59,132  L 60,132  L 60,133  L 61,133  L 61,132  L 62,132  L 62,133  L 63,133  L 63,132  L 64,132  L 64,133  L 87,133  L 87,132  L 99,132  L 99,131  L 107,131  L 107,130  L 111,130  L 111,129  L 113,129  L 113,125  L 111,125  L 111,124  L 105,124  L 105,125  L 97,125  L 97,126  L 86,126  L 86,127  L 84,127  L 84,126  L 82,126  L 82,127  L 75,127  L 75,112  L 74,112  L 74,111  L 75,111  L 75,110  L 74,110  L 74,108  L 75,108  L 75,106  L 74,106  L 74,99  L 75,99  L 75,98  L 74,98  L 74,97  L 75,97  L 75,94  L 74,94  L 74,93  L 75,93  L 75,85  L 76,85  L 76,79  L 77,79  L 77,78  L 76,78  L 76,77  L 74,77  L 74,78  L 71,78  L 71,79  L 70,79  L 70,80  L 69,80  L 69,82  L 68,82  L 68,124  L 69,124  L 69,127  L 59,127  L 59,126  L 58,126  L 58,127  L 55,127  L 55,126  L 54,126  L 54,127  L 51,127  L 51,126  L 50,126  L 50,127  L 45,127  L 45,126  L 44,126  L 44,124  L 45,124  L 45,121  L 44,121  L 44,119  L 45,119  L 45,116  L 44,116  L 44,115  L 45,115  L 45,114  L 44,114  L 44,111  L 45,111  L 45,110  L 44,110  L 44,108  L 45,108  L 45,106  L 44,106  L 44,103  L 45,103  L 45,102  L 44,102  L 44,99  L 45,99  L 45,98  L 44,98  L 44,97  L 45,97  L 45,94  L 44,94  L 44,93  L 45,93  L 45,87  L 44,87  L 44,85  L 43,85  L 43,84  L 40,84  L 40,85  L 38,85  L 38,86  L 37,86  L 37,93  L 38,93  L 38,116  L 37,116  L 37,117  L 38,117  L 38,120  L 37,120  L 37,121  L 38,121  L 38,122  L 37,122  L 37,125  L 38,125  L 38,127  L 26,127  L 26,128  L 16,128  L 16,129  L 15,129  L 15,128  L 14,128  L 14,129  L 3,129  L 3,128  L 1,128  L 1,131  L 0,131  L 0,133  L 1,133  L 1,135  L 15,135  L 15,134  L 23,134  L 23,133  L 24,133  L 24,134  L 25,134  L 25,133  L 26,133  L 26,134  L 27,134  L 27,133  L 37,133  L 37,132  L 38,132  L 38,133  L 39,133  L 39,132  L 40,132  L 40,133  L 43,133  L 43,132  L 44,132  L 44,133  L 45,133  L 45,132  L 46,132  L 46,133  L 47,133  L 47,132  L 48,132  L 48,133  Z  " style="fill:rgb(0, 0, 0); fill-opacity:1.000; stroke:none;" />
 <path d="  M 88,68  L 88,69  L 91,69  L 91,70  L 94,70  L 94,69  L 95,69  L 95,70  L 96,70  L 96,68  L 97,68  L 97,66  L 96,66  L 96,64  L 95,64  L 95,63  L 94,63  L 94,62  L 93,62  L 93,61  L 92,61  L 92,60  L 90,60  L 90,59  L 88,59  L 88,58  L 87,58  L 87,57  L 84,57  L 84,56  L 80,56  L 80,55  L 76,55  L 76,54  L 74,54  L 74,53  L 70,53  L 70,52  L 69,52  L 69,51  L 66,51  L 66,48  L 67,48  L 67,47  L 69,47  L 69,46  L 68,46  L 68,45  L 69,45  L 69,42  L 70,42  L 70,37  L 69,37  L 69,35  L 68,35  L 68,34  L 67,34  L 67,33  L 66,33  L 66,32  L 62,32  L 62,31  L 59,31  L 59,32  L 49,32  L 49,30  L 50,30  L 50,26  L 51,26  L 51,25  L 50,25  L 50,16  L 49,16  L 49,14  L 48,14  L 48,10  L 47,10  L 47,8  L 46,8  L 46,4  L 45,4  L 45,2  L 44,2  L 44,1  L 42,1  L 42,0  L 41,0  L 41,1  L 40,1  L 40,4  L 41,4  L 41,11  L 40,11  L 40,14  L 41,14  L 41,16  L 42,16  L 42,17  L 43,17  L 43,18  L 44,18  L 44,20  L 45,20  L 45,23  L 46,23  L 46,24  L 45,24  L 45,26  L 46,26  L 46,29  L 47,29  L 47,31  L 48,31  L 48,33  L 45,33  L 45,34  L 37,34  L 37,35  L 35,35  L 35,34  L 34,34  L 34,35  L 31,35  L 31,36  L 25,36  L 25,37  L 21,37  L 21,38  L 19,38  L 19,39  L 18,39  L 18,40  L 17,40  L 17,45  L 19,45  L 19,46  L 20,46  L 20,45  L 22,45  L 22,44  L 23,44  L 23,43  L 26,43  L 26,42  L 33,42  L 33,41  L 39,41  L 39,40  L 40,40  L 40,41  L 41,41  L 41,40  L 51,40  L 51,39  L 56,39  L 56,38  L 62,38  L 62,39  L 63,39  L 63,41  L 62,41  L 62,42  L 61,42  L 61,43  L 60,43  L 60,44  L 59,44  L 59,45  L 57,45  L 57,46  L 56,46  L 56,47  L 55,47  L 55,48  L 54,48  L 54,49  L 52,49  L 52,50  L 51,50  L 51,51  L 50,51  L 50,53  L 48,53  L 48,54  L 47,54  L 47,56  L 46,56  L 46,57  L 44,57  L 44,58  L 43,58  L 43,60  L 41,60  L 41,61  L 40,61  L 40,62  L 39,62  L 39,63  L 38,63  L 38,64  L 37,64  L 37,65  L 36,65  L 36,67  L 35,67  L 35,68  L 34,68  L 34,69  L 33,69  L 33,70  L 32,70  L 32,71  L 31,71  L 31,72  L 29,72  L 29,73  L 28,73  L 28,74  L 27,74  L 27,75  L 26,75  L 26,76  L 25,76  L 25,77  L 24,77  L 24,78  L 23,78  L 23,79  L 22,79  L 22,80  L 21,80  L 21,81  L 20,81  L 20,82  L 19,82  L 19,83  L 17,83  L 17,84  L 16,84  L 16,86  L 15,86  L 15,88  L 16,88  L 16,89  L 17,89  L 17,90  L 19,90  L 19,89  L 21,89  L 21,88  L 22,88  L 22,87  L 24,87  L 24,86  L 25,86  L 25,85  L 26,85  L 26,84  L 28,84  L 28,83  L 30,83  L 30,82  L 31,82  L 31,81  L 32,81  L 32,80  L 33,80  L 33,79  L 35,79  L 35,77  L 37,77  L 37,75  L 38,75  L 38,74  L 39,74  L 39,72  L 40,72  L 40,71  L 41,71  L 41,70  L 42,70  L 42,69  L 43,69  L 43,68  L 44,68  L 44,67  L 45,67  L 45,66  L 47,66  L 47,64  L 48,64  L 48,63  L 49,63  L 49,62  L 50,62  L 50,61  L 51,61  L 51,60  L 52,60  L 52,59  L 53,59  L 53,58  L 54,58  L 54,57  L 61,57  L 61,58  L 64,58  L 64,59  L 65,59  L 65,58  L 66,58  L 66,59  L 70,59  L 70,60  L 72,60  L 72,61  L 76,61  L 76,62  L 79,62  L 79,63  L 80,63  L 80,64  L 82,64  L 82,65  L 83,65  L 83,66  L 84,66  L 84,67  L 85,67  L 85,66  L 86,66  L 86,67  L 87,67  L 87,68  Z  " style="fill:rgb(0, 0, 0); fill-opacity:1.000; stroke:none;" />
</svg>
