<?xml version="1.0" encoding="UTF-8" standalone="no"?>
<!DOCTYPE svg PUBLIC "-//W3C//DTD SVG 1.1//EN" 
  "http://www.w3.org/Graphics/SVG/1.1/DTD/svg11.dtd">
<svg width="105" height="169"
     xmlns="http://www.w3.org/2000/svg" version="1.1">
 <path d="  M 61,128  L 62,128  L 62,127  L 61,127  L 61,126  L 62,126  L 62,113  L 61,113  L 61,108  L 64,108  L 64,107  L 66,107  L 66,108  L 67,108  L 67,107  L 71,107  L 71,106  L 79,106  L 79,105  L 87,105  L 87,104  L 95,104  L 95,103  L 102,103  L 102,102  L 104,102  L 104,101  L 105,101  L 105,95  L 104,95  L 104,94  L 99,94  L 99,95  L 93,95  L 93,96  L 92,96  L 92,95  L 91,95  L 91,96  L 88,96  L 88,97  L 83,97  L 83,98  L 72,98  L 72,99  L 59,99  L 59,100  L 56,100  L 56,99  L 55,99  L 55,100  L 53,100  L 53,101  L 52,101  L 52,100  L 51,100  L 51,101  L 43,101  L 43,102  L 32,102  L 32,103  L 3,103  L 3,104  L 1,104  L 1,110  L 2,110  L 2,111  L 14,111  L 14,110  L 15,110  L 15,111  L 18,111  L 18,110  L 21,110  L 21,111  L 22,111  L 22,110  L 25,110  L 25,111  L 26,111  L 26,110  L 36,110  L 36,109  L 48,109  L 48,108  L 51,108  L 51,112  L 52,112  L 52,131  L 51,131  L 51,132  L 52,132  L 52,134  L 51,134  L 51,160  L 50,160  L 50,162  L 51,162  L 51,169  L 58,169  L 58,168  L 59,168  L 59,167  L 58,167  L 58,166  L 59,166  L 59,163  L 58,163  L 58,162  L 59,162  L 59,152  L 60,152  L 60,150  L 59,150  L 59,149  L 60,149  L 60,138  L 61,138  Z  " style="fill:rgb(0, 0, 0); fill-opacity:1.000; stroke:none;" />
 <path d="  M 67,30  L 65,30  L 65,29  L 62,29  L 62,28  L 57,28  L 57,29  L 52,29  L 52,30  L 43,30  L 43,31  L 34,31  L 34,32  L 30,32  L 30,33  L 25,33  L 25,34  L 19,34  L 19,35  L 18,35  L 18,36  L 17,36  L 17,38  L 16,38  L 16,42  L 17,42  L 17,43  L 20,43  L 20,42  L 22,42  L 22,41  L 26,41  L 26,40  L 31,40  L 31,39  L 38,39  L 38,38  L 48,38  L 48,37  L 53,37  L 53,36  L 57,36  L 57,35  L 59,35  L 59,36  L 61,36  L 61,39  L 60,39  L 60,41  L 59,41  L 59,43  L 58,43  L 58,44  L 57,44  L 57,46  L 56,46  L 56,47  L 55,47  L 55,49  L 53,49  L 53,51  L 52,51  L 52,52  L 51,52  L 51,53  L 50,53  L 50,54  L 49,54  L 49,55  L 48,55  L 48,57  L 47,57  L 47,58  L 46,58  L 46,59  L 45,59  L 45,60  L 44,60  L 44,62  L 43,62  L 43,63  L 41,63  L 41,64  L 40,64  L 40,66  L 39,66  L 39,67  L 37,67  L 37,68  L 36,68  L 36,69  L 35,69  L 35,70  L 34,70  L 34,71  L 33,71  L 33,72  L 32,72  L 32,73  L 30,73  L 30,74  L 29,74  L 29,75  L 28,75  L 28,76  L 27,76  L 27,77  L 25,77  L 25,79  L 23,79  L 23,80  L 21,80  L 21,81  L 19,81  L 19,82  L 18,82  L 18,83  L 17,83  L 17,85  L 16,85  L 16,87  L 17,87  L 17,88  L 18,88  L 18,89  L 21,89  L 21,88  L 23,88  L 23,87  L 24,87  L 24,86  L 25,86  L 25,85  L 27,85  L 27,84  L 28,84  L 28,83  L 30,83  L 30,82  L 31,82  L 31,81  L 32,81  L 32,80  L 34,80  L 34,79  L 35,79  L 35,78  L 36,78  L 36,77  L 37,77  L 37,76  L 39,76  L 39,75  L 40,75  L 40,74  L 41,74  L 41,73  L 42,73  L 42,72  L 43,72  L 43,71  L 44,71  L 44,69  L 45,69  L 45,68  L 46,68  L 46,67  L 47,67  L 47,66  L 48,66  L 48,65  L 49,65  L 49,64  L 51,64  L 51,63  L 52,63  L 52,62  L 53,62  L 53,61  L 59,61  L 59,62  L 60,62  L 60,63  L 61,63  L 61,64  L 64,64  L 64,65  L 67,65  L 67,66  L 69,66  L 69,67  L 71,67  L 71,68  L 72,68  L 72,69  L 74,69  L 74,70  L 77,70  L 77,71  L 80,71  L 80,72  L 82,72  L 82,73  L 84,73  L 84,74  L 86,74  L 86,75  L 87,75  L 87,76  L 91,76  L 91,77  L 92,77  L 92,76  L 95,76  L 95,73  L 94,73  L 94,71  L 93,71  L 93,70  L 92,70  L 92,69  L 90,69  L 90,68  L 88,68  L 88,67  L 86,67  L 86,66  L 83,66  L 83,65  L 80,65  L 80,64  L 78,64  L 78,63  L 76,63  L 76,62  L 74,62  L 74,61  L 72,61  L 72,60  L 71,60  L 71,59  L 68,59  L 68,58  L 66,58  L 66,57  L 64,57  L 64,56  L 63,56  L 63,55  L 61,55  L 61,54  L 62,54  L 62,52  L 63,52  L 63,50  L 64,50  L 64,49  L 65,49  L 65,48  L 66,48  L 66,46  L 67,46  L 67,44  L 68,44  L 68,42  L 69,42  L 69,40  L 70,40  L 70,35  L 69,35  L 69,32  L 68,32  L 68,31  L 67,31  Z  " style="fill:rgb(0, 0, 0); fill-opacity:1.000; stroke:none;" />
 <path d="  M 42,19  L 43,19  L 43,20  L 44,20  L 44,21  L 47,21  L 47,20  L 49,20  L 49,15  L 48,15  L 48,11  L 47,11  L 47,6  L 46,6  L 46,3  L 45,3  L 45,0  L 41,0  L 41,3  L 40,3  L 40,7  L 39,7  L 39,8  L 40,8  L 40,14  L 41,14  L 41,16  L 42,16  Z  " style="fill:rgb(0, 0, 0); fill-opacity:1.000; stroke:none;" />
</svg>
