<?xml version="1.0" encoding="UTF-8" standalone="no"?>
<!DOCTYPE svg PUBLIC "-//W3C//DTD SVG 1.1//EN" 
  "http://www.w3.org/Graphics/SVG/1.1/DTD/svg11.dtd">
<svg width="105" height="190"
     xmlns="http://www.w3.org/2000/svg" version="1.1">
 <path d="  M 22,88  L 5,88  L 5,89  L 4,89  L 4,88  L 3,88  L 3,89  L 1,89  L 1,90  L 0,90  L 0,94  L 1,94  L 1,95  L 15,95  L 15,94  L 17,94  L 17,95  L 18,95  L 18,94  L 31,94  L 31,93  L 32,93  L 32,94  L 33,94  L 33,93  L 41,93  L 41,92  L 44,92  L 44,93  L 45,93  L 45,92  L 50,92  L 50,95  L 51,95  L 51,96  L 50,96  L 50,99  L 51,99  L 51,100  L 50,100  L 50,122  L 44,122  L 44,123  L 43,123  L 43,122  L 42,122  L 42,123  L 38,123  L 38,124  L 36,124  L 36,125  L 29,125  L 29,126  L 28,126  L 28,125  L 27,125  L 27,126  L 26,126  L 26,127  L 24,127  L 24,128  L 22,128  L 22,131  L 20,131  L 20,161  L 19,161  L 19,162  L 20,162  L 20,165  L 19,165  L 19,166  L 20,166  L 20,168  L 19,168  L 19,170  L 20,170  L 20,172  L 19,172  L 19,174  L 20,174  L 20,176  L 19,176  L 19,178  L 20,178  L 20,184  L 21,184  L 21,187  L 22,187  L 22,188  L 23,188  L 23,189  L 26,189  L 26,190  L 40,190  L 40,189  L 43,189  L 43,188  L 46,188  L 46,187  L 50,187  L 50,186  L 53,186  L 53,185  L 55,185  L 55,184  L 58,184  L 58,183  L 63,183  L 63,182  L 66,182  L 66,181  L 69,181  L 69,180  L 71,180  L 71,179  L 74,179  L 74,178  L 77,178  L 77,177  L 78,177  L 78,176  L 79,176  L 79,175  L 82,175  L 82,174  L 85,174  L 85,173  L 86,173  L 86,171  L 87,171  L 87,162  L 86,162  L 86,160  L 87,160  L 87,152  L 88,152  L 88,147  L 89,147  L 89,146  L 88,146  L 88,145  L 89,145  L 89,139  L 90,139  L 90,138  L 89,138  L 89,137  L 90,137  L 90,121  L 89,121  L 89,118  L 88,118  L 88,117  L 77,117  L 77,118  L 74,118  L 74,119  L 71,119  L 71,118  L 70,118  L 70,119  L 68,119  L 68,120  L 58,120  L 58,92  L 59,92  L 59,91  L 60,91  L 60,90  L 67,90  L 67,89  L 77,89  L 77,88  L 83,88  L 83,87  L 84,87  L 84,88  L 85,88  L 85,87  L 89,87  L 89,86  L 94,86  L 94,85  L 97,85  L 97,84  L 98,84  L 98,85  L 99,85  L 99,84  L 101,84  L 101,83  L 103,83  L 103,82  L 105,82  L 105,76  L 104,76  L 104,75  L 102,75  L 102,74  L 96,74  L 96,75  L 95,75  L 95,74  L 94,74  L 94,76  L 95,76  L 95,77  L 94,77  L 94,78  L 92,78  L 92,79  L 89,79  L 89,80  L 83,80  L 83,81  L 80,81  L 80,80  L 79,80  L 79,81  L 78,81  L 78,82  L 77,82  L 77,81  L 75,81  L 75,82  L 70,82  L 70,83  L 58,83  L 58,84  L 52,84  L 52,85  L 41,85  L 41,86  L 32,86  L 32,87  L 31,87  L 31,86  L 30,86  L 30,87  L 22,87  Z  M 41,181  L 41,182  L 38,182  L 38,181  L 37,181  L 37,182  L 36,182  L 36,181  L 31,181  L 31,180  L 30,180  L 30,179  L 28,179  L 28,178  L 27,178  L 27,176  L 26,176  L 26,161  L 27,161  L 27,152  L 26,152  L 26,151  L 27,151  L 27,137  L 28,137  L 28,134  L 29,134  L 29,133  L 33,133  L 33,132  L 35,132  L 35,131  L 38,131  L 38,130  L 43,130  L 43,129  L 45,129  L 45,128  L 51,128  L 51,127  L 63,127  L 63,126  L 64,126  L 64,127  L 66,127  L 66,126  L 69,126  L 69,127  L 70,127  L 70,126  L 74,126  L 74,125  L 79,125  L 79,124  L 82,124  L 82,144  L 81,144  L 81,151  L 80,151  L 80,154  L 79,154  L 79,155  L 80,155  L 80,156  L 79,156  L 79,157  L 80,157  L 80,158  L 79,158  L 79,163  L 80,163  L 80,168  L 78,168  L 78,170  L 76,170  L 76,171  L 75,171  L 75,170  L 74,170  L 74,171  L 73,171  L 73,172  L 70,172  L 70,173  L 69,173  L 69,174  L 65,174  L 65,175  L 62,175  L 62,176  L 57,176  L 57,177  L 55,177  L 55,178  L 52,178  L 52,179  L 48,179  L 48,180  L 45,180  L 45,181  Z  " style="fill:rgb(0, 0, 0); fill-opacity:1.000; stroke:none;" />
 <path d="  M 53,42  L 53,44  L 51,44  L 51,46  L 50,46  L 50,48  L 48,48  L 48,49  L 47,49  L 47,50  L 46,50  L 46,52  L 44,52  L 44,54  L 43,54  L 43,55  L 42,55  L 42,56  L 41,56  L 41,57  L 40,57  L 40,58  L 39,58  L 39,60  L 37,60  L 37,62  L 36,62  L 36,63  L 35,63  L 35,64  L 33,64  L 33,65  L 32,65  L 32,66  L 31,66  L 31,67  L 29,67  L 29,68  L 27,68  L 27,69  L 26,69  L 26,70  L 25,70  L 25,71  L 24,71  L 24,72  L 23,72  L 23,73  L 21,73  L 21,74  L 20,74  L 20,75  L 19,75  L 19,76  L 18,76  L 18,77  L 17,77  L 17,78  L 16,78  L 16,79  L 15,79  L 15,80  L 16,80  L 16,82  L 17,82  L 17,83  L 18,83  L 18,82  L 21,82  L 21,81  L 23,81  L 23,80  L 24,80  L 24,79  L 26,79  L 26,78  L 27,78  L 27,77  L 29,77  L 29,76  L 32,76  L 32,75  L 33,75  L 33,74  L 34,74  L 34,73  L 35,73  L 35,72  L 36,72  L 36,71  L 37,71  L 37,70  L 38,70  L 38,69  L 39,69  L 39,68  L 40,68  L 40,67  L 41,67  L 41,66  L 43,66  L 43,65  L 44,65  L 44,63  L 46,63  L 46,61  L 48,61  L 48,59  L 49,59  L 49,60  L 50,60  L 50,58  L 51,58  L 51,57  L 53,57  L 53,56  L 54,56  L 54,57  L 55,57  L 55,56  L 57,56  L 57,57  L 60,57  L 60,58  L 62,58  L 62,59  L 64,59  L 64,60  L 67,60  L 67,61  L 69,61  L 69,62  L 70,62  L 70,61  L 71,61  L 71,62  L 72,62  L 72,63  L 74,63  L 74,64  L 77,64  L 77,65  L 78,65  L 78,66  L 80,66  L 80,68  L 83,68  L 83,69  L 84,69  L 84,70  L 86,70  L 86,71  L 92,71  L 92,68  L 91,68  L 91,65  L 90,65  L 90,64  L 89,64  L 89,63  L 88,63  L 88,62  L 86,62  L 86,61  L 84,61  L 84,60  L 82,60  L 82,59  L 81,59  L 81,58  L 80,58  L 80,57  L 78,57  L 78,56  L 75,56  L 75,55  L 73,55  L 73,54  L 71,54  L 71,53  L 68,53  L 68,52  L 67,52  L 67,51  L 64,51  L 64,50  L 62,50  L 62,49  L 61,49  L 61,47  L 62,47  L 62,45  L 63,45  L 63,43  L 64,43  L 64,40  L 65,40  L 65,35  L 66,35  L 66,34  L 65,34  L 65,33  L 66,33  L 66,32  L 65,32  L 65,31  L 64,31  L 64,30  L 63,30  L 63,29  L 62,29  L 62,28  L 60,28  L 60,27  L 58,27  L 58,28  L 56,28  L 56,27  L 48,27  L 48,26  L 47,26  L 47,24  L 48,24  L 48,23  L 47,23  L 47,20  L 46,20  L 46,14  L 45,14  L 45,10  L 44,10  L 44,7  L 45,7  L 45,6  L 44,6  L 44,1  L 42,1  L 42,0  L 40,0  L 40,1  L 39,1  L 39,2  L 38,2  L 38,4  L 37,4  L 37,5  L 38,5  L 38,6  L 37,6  L 37,7  L 38,7  L 38,15  L 39,15  L 39,16  L 38,16  L 38,17  L 39,17  L 39,21  L 40,21  L 40,23  L 42,23  L 42,24  L 43,24  L 43,28  L 41,28  L 41,29  L 40,29  L 40,28  L 39,28  L 39,29  L 35,29  L 35,30  L 29,30  L 29,31  L 28,31  L 28,30  L 27,30  L 27,31  L 26,31  L 26,30  L 25,30  L 25,31  L 20,31  L 20,32  L 15,32  L 15,33  L 14,33  L 14,34  L 13,34  L 13,36  L 12,36  L 12,37  L 13,37  L 13,39  L 15,39  L 15,40  L 16,40  L 16,39  L 19,39  L 19,38  L 31,38  L 31,37  L 38,37  L 38,36  L 45,36  L 45,35  L 48,35  L 48,36  L 49,36  L 49,35  L 51,35  L 51,36  L 53,36  L 53,35  L 54,35  L 54,36  L 55,36  L 55,37  L 56,37  L 56,39  L 55,39  L 55,41  L 54,41  L 54,42  Z  " style="fill:rgb(0, 0, 0); fill-opacity:1.000; stroke:none;" />
</svg>
