<?xml version="1.0" encoding="UTF-8" standalone="no"?>
<!DOCTYPE svg PUBLIC "-//W3C//DTD SVG 1.1//EN" 
  "http://www.w3.org/Graphics/SVG/1.1/DTD/svg11.dtd">
<svg width="109" height="186"
     xmlns="http://www.w3.org/2000/svg" version="1.1">
 <path d="  M 37,91  L 38,91  L 38,107  L 39,107  L 39,110  L 40,110  L 40,117  L 42,117  L 42,118  L 46,118  L 46,116  L 47,116  L 47,112  L 46,112  L 46,106  L 45,106  L 45,90  L 48,90  L 48,89  L 54,89  L 54,88  L 59,88  L 59,87  L 67,87  L 67,86  L 68,86  L 68,87  L 69,87  L 69,86  L 77,86  L 77,85  L 85,85  L 85,84  L 86,84  L 86,82  L 87,82  L 87,81  L 88,81  L 88,79  L 89,79  L 89,78  L 88,78  L 88,77  L 87,77  L 87,76  L 82,76  L 82,77  L 76,77  L 76,78  L 70,78  L 70,79  L 63,79  L 63,80  L 56,80  L 56,81  L 55,81  L 55,80  L 54,80  L 54,81  L 51,81  L 51,80  L 50,80  L 50,81  L 46,81  L 46,82  L 32,82  L 32,83  L 31,83  L 31,82  L 30,82  L 30,83  L 22,83  L 22,84  L 16,84  L 16,85  L 15,85  L 15,84  L 14,84  L 14,85  L 11,85  L 11,86  L 6,86  L 6,87  L 3,87  L 3,86  L 0,86  L 0,87  L 1,87  L 1,90  L 0,90  L 0,91  L 1,91  L 1,92  L 5,92  L 5,93  L 7,93  L 7,92  L 8,92  L 8,93  L 10,93  L 10,92  L 12,92  L 12,93  L 13,93  L 13,92  L 16,92  L 16,91  L 23,91  L 23,90  L 24,90  L 24,91  L 25,91  L 25,90  L 36,90  L 36,89  L 37,89  Z  " style="fill:rgb(0, 0, 0); fill-opacity:1.000; stroke:none;" />
 <path d="  M 39,60  L 39,58  L 40,58  L 40,57  L 42,57  L 42,56  L 43,56  L 43,54  L 45,54  L 45,53  L 47,53  L 47,52  L 50,52  L 50,53  L 51,53  L 51,55  L 53,55  L 53,56  L 54,56  L 54,57  L 55,57  L 55,58  L 57,58  L 57,59  L 59,59  L 59,60  L 60,60  L 60,61  L 62,61  L 62,62  L 63,62  L 63,63  L 64,63  L 64,64  L 66,64  L 66,65  L 69,65  L 69,66  L 73,66  L 73,67  L 79,67  L 79,66  L 80,66  L 80,63  L 79,63  L 79,62  L 78,62  L 78,61  L 77,61  L 77,60  L 76,60  L 76,59  L 73,59  L 73,58  L 71,58  L 71,57  L 68,57  L 68,56  L 66,56  L 66,55  L 64,55  L 64,54  L 63,54  L 63,53  L 61,53  L 61,52  L 60,52  L 60,51  L 58,51  L 58,50  L 57,50  L 57,49  L 55,49  L 55,48  L 54,48  L 54,47  L 53,47  L 53,43  L 54,43  L 54,41  L 55,41  L 55,40  L 56,40  L 56,32  L 59,32  L 59,31  L 60,31  L 60,30  L 61,30  L 61,29  L 62,29  L 62,27  L 64,27  L 64,24  L 62,24  L 62,23  L 61,23  L 61,22  L 60,22  L 60,21  L 56,21  L 56,20  L 53,20  L 53,21  L 47,21  L 47,22  L 43,22  L 43,24  L 40,24  L 40,25  L 37,25  L 37,26  L 29,26  L 29,27  L 24,27  L 24,28  L 18,28  L 18,29  L 15,29  L 15,30  L 13,30  L 13,31  L 11,31  L 11,34  L 10,34  L 10,35  L 11,35  L 11,36  L 12,36  L 12,37  L 18,37  L 18,36  L 21,36  L 21,35  L 28,35  L 28,34  L 35,34  L 35,33  L 39,33  L 39,32  L 43,32  L 43,31  L 45,31  L 45,32  L 46,32  L 46,31  L 48,31  L 48,32  L 50,32  L 50,34  L 49,34  L 49,36  L 48,36  L 48,38  L 47,38  L 47,39  L 46,39  L 46,40  L 45,40  L 45,42  L 44,42  L 44,43  L 43,43  L 43,45  L 42,45  L 42,46  L 41,46  L 41,47  L 40,47  L 40,48  L 39,48  L 39,49  L 38,49  L 38,50  L 37,50  L 37,51  L 36,51  L 36,53  L 35,53  L 35,54  L 34,54  L 34,56  L 32,56  L 32,57  L 31,57  L 31,59  L 30,59  L 30,60  L 29,60  L 29,61  L 27,61  L 27,62  L 26,62  L 26,63  L 25,63  L 25,64  L 24,64  L 24,65  L 23,65  L 23,66  L 21,66  L 21,67  L 20,67  L 20,68  L 18,68  L 18,69  L 16,69  L 16,70  L 12,70  L 12,72  L 14,72  L 14,73  L 13,73  L 13,74  L 14,74  L 14,75  L 16,75  L 16,76  L 21,76  L 21,75  L 23,75  L 23,74  L 24,74  L 24,73  L 26,73  L 26,72  L 27,72  L 27,71  L 28,71  L 28,70  L 29,70  L 29,69  L 30,69  L 30,68  L 31,68  L 31,67  L 32,67  L 32,66  L 33,66  L 33,65  L 34,65  L 34,64  L 35,64  L 35,62  L 36,62  L 36,61  L 38,61  L 38,60  Z  " style="fill:rgb(0, 0, 0); fill-opacity:1.000; stroke:none;" />
 <path d="  M 26,4  L 25,4  L 25,5  L 26,5  L 26,7  L 27,7  L 27,8  L 29,8  L 29,9  L 32,9  L 32,10  L 33,10  L 33,11  L 35,11  L 35,12  L 36,12  L 36,13  L 38,13  L 38,14  L 40,14  L 40,15  L 42,15  L 42,14  L 43,14  L 43,9  L 42,9  L 42,4  L 41,4  L 41,3  L 40,3  L 40,2  L 38,2  L 38,1  L 37,1  L 37,0  L 36,0  L 36,1  L 34,1  L 34,0  L 32,0  L 32,1  L 26,1  Z  " style="fill:rgb(0, 0, 0); fill-opacity:1.000; stroke:none;" />
 <path d="  M 68,147  L 68,148  L 64,148  L 64,149  L 54,149  L 54,150  L 48,150  L 48,151  L 43,151  L 43,152  L 41,152  L 41,153  L 40,153  L 40,154  L 38,154  L 38,155  L 37,155  L 37,156  L 36,156  L 36,157  L 35,157  L 35,160  L 34,160  L 34,165  L 35,165  L 35,166  L 34,166  L 34,167  L 36,167  L 36,168  L 37,168  L 37,166  L 38,166  L 38,163  L 39,163  L 39,162  L 40,162  L 40,161  L 41,161  L 41,160  L 44,160  L 44,159  L 47,159  L 47,158  L 53,158  L 53,157  L 54,157  L 54,158  L 55,158  L 55,157  L 64,157  L 64,156  L 69,156  L 69,155  L 75,155  L 75,154  L 77,154  L 77,153  L 82,153  L 82,152  L 84,152  L 84,151  L 85,151  L 85,150  L 86,150  L 86,149  L 88,149  L 88,143  L 89,143  L 89,140  L 90,140  L 90,139  L 91,139  L 91,138  L 92,138  L 92,137  L 93,137  L 93,136  L 94,136  L 94,134  L 95,134  L 95,133  L 94,133  L 94,129  L 93,129  L 93,128  L 92,128  L 92,127  L 91,127  L 91,126  L 90,126  L 90,125  L 88,125  L 88,124  L 86,124  L 86,123  L 85,123  L 85,122  L 83,122  L 83,120  L 80,120  L 80,119  L 78,119  L 78,118  L 76,118  L 76,119  L 75,119  L 75,118  L 72,118  L 72,119  L 71,119  L 71,118  L 68,118  L 68,119  L 67,119  L 67,118  L 66,118  L 66,119  L 63,119  L 63,120  L 62,120  L 62,119  L 59,119  L 59,120  L 44,120  L 44,121  L 43,121  L 43,122  L 41,122  L 41,123  L 38,123  L 38,124  L 37,124  L 37,128  L 38,128  L 38,129  L 41,129  L 41,130  L 46,130  L 46,131  L 47,131  L 47,130  L 50,130  L 50,131  L 51,131  L 51,130  L 54,130  L 54,129  L 55,129  L 55,130  L 56,130  L 56,129  L 75,129  L 75,130  L 78,130  L 78,131  L 80,131  L 80,132  L 81,132  L 81,133  L 83,133  L 83,135  L 84,135  L 84,139  L 83,139  L 83,140  L 82,140  L 82,142  L 81,142  L 81,143  L 80,143  L 80,144  L 77,144  L 77,145  L 75,145  L 75,146  L 72,146  L 72,147  Z  " style="fill:rgb(0, 0, 0); fill-opacity:1.000; stroke:none;" />
 <path d="  M 38,170  L 37,170  L 37,171  L 38,171  Z  " style="fill:rgb(0, 0, 0); fill-opacity:1.000; stroke:none;" />
 <path d="  M 85,174  L 85,175  L 81,175  L 81,176  L 77,176  L 77,177  L 72,177  L 72,178  L 64,178  L 64,179  L 63,179  L 63,178  L 60,178  L 60,179  L 59,179  L 59,178  L 56,178  L 56,179  L 55,179  L 55,178  L 49,178  L 49,177  L 47,177  L 47,176  L 46,176  L 46,175  L 44,175  L 44,174  L 41,174  L 41,178  L 42,178  L 42,179  L 43,179  L 43,180  L 44,180  L 44,181  L 45,181  L 45,183  L 47,183  L 47,184  L 48,184  L 48,185  L 51,185  L 51,186  L 74,186  L 74,185  L 82,185  L 82,184  L 86,184  L 86,183  L 89,183  L 89,182  L 92,182  L 92,181  L 98,181  L 98,180  L 101,180  L 101,179  L 105,179  L 105,178  L 107,178  L 107,177  L 109,177  L 109,172  L 106,172  L 106,171  L 98,171  L 98,172  L 94,172  L 94,173  L 91,173  L 91,174  Z  " style="fill:rgb(0, 0, 0); fill-opacity:1.000; stroke:none;" />
 <path d="  M 42,173  L 43,173  L 43,172  L 42,172  Z  " style="fill:rgb(0, 0, 0); fill-opacity:1.000; stroke:none;" />
 <path d="  M 98,110  L 97,110  L 97,111  L 98,111  L 98,112  L 103,112  L 103,111  L 104,111  L 104,110  L 105,110  L 105,99  L 106,99  L 106,98  L 105,98  L 105,95  L 106,95  L 106,94  L 105,94  L 105,93  L 106,93  L 106,92  L 105,92  L 105,91  L 106,91  L 106,90  L 105,90  L 105,89  L 106,89  L 106,88  L 105,88  L 105,87  L 106,87  L 106,86  L 105,86  L 105,85  L 106,85  L 106,84  L 105,84  L 105,83  L 106,83  L 106,82  L 105,82  L 105,81  L 106,81  L 106,80  L 105,80  L 105,79  L 106,79  L 106,78  L 105,78  L 105,77  L 106,77  L 106,76  L 105,76  L 105,75  L 106,75  L 106,74  L 105,74  L 105,73  L 106,73  L 106,72  L 105,72  L 105,71  L 106,71  L 106,70  L 105,70  L 105,69  L 106,69  L 106,66  L 105,66  L 105,65  L 106,65  L 106,58  L 105,58  L 105,57  L 106,57  L 106,56  L 105,56  L 105,55  L 106,55  L 106,54  L 105,54  L 105,53  L 106,53  L 106,52  L 105,52  L 105,51  L 106,51  L 106,50  L 105,50  L 105,40  L 104,40  L 104,39  L 105,39  L 105,38  L 104,38  L 104,30  L 103,30  L 103,23  L 102,23  L 102,14  L 101,14  L 101,12  L 100,12  L 100,10  L 98,10  L 98,9  L 97,9  L 97,10  L 96,10  L 96,11  L 95,11  L 95,21  L 96,21  L 96,28  L 97,28  L 97,37  L 98,37  L 98,50  L 99,50  L 99,52  L 98,52  L 98,53  L 99,53  L 99,68  L 98,68  L 98,69  L 99,69  L 99,72  L 98,72  L 98,73  L 99,73  L 99,76  L 98,76  L 98,77  L 99,77  L 99,78  L 98,78  L 98,79  L 99,79  L 99,80  L 98,80  Z  " style="fill:rgb(0, 0, 0); fill-opacity:1.000; stroke:none;" />
</svg>
