<?xml version="1.0" encoding="UTF-8" standalone="no"?>
<!DOCTYPE svg PUBLIC "-//W3C//DTD SVG 1.1//EN" 
  "http://www.w3.org/Graphics/SVG/1.1/DTD/svg11.dtd">
<svg width="107" height="177"
     xmlns="http://www.w3.org/2000/svg" version="1.1">
 <path d="  M 35,99  L 34,99  L 34,107  L 33,107  L 33,114  L 32,114  L 32,117  L 31,117  L 31,120  L 30,120  L 30,122  L 29,122  L 29,125  L 28,125  L 28,126  L 29,126  L 29,138  L 30,138  L 30,139  L 29,139  L 29,140  L 30,140  L 30,141  L 29,141  L 29,142  L 30,142  L 30,146  L 31,146  L 31,149  L 30,149  L 30,150  L 31,150  L 31,157  L 32,157  L 32,164  L 33,164  L 33,169  L 34,169  L 34,170  L 35,170  L 35,172  L 36,172  L 36,173  L 37,173  L 37,174  L 39,174  L 39,175  L 40,175  L 40,176  L 41,176  L 41,177  L 67,177  L 67,176  L 68,176  L 68,177  L 70,177  L 70,176  L 74,176  L 74,175  L 78,175  L 78,174  L 84,174  L 84,173  L 85,173  L 85,174  L 86,174  L 86,173  L 90,173  L 90,172  L 94,172  L 94,171  L 95,171  L 95,170  L 98,170  L 98,169  L 99,169  L 99,167  L 101,167  L 101,166  L 102,166  L 102,165  L 103,165  L 103,163  L 104,163  L 104,158  L 105,158  L 105,152  L 106,152  L 106,142  L 107,142  L 107,116  L 106,116  L 106,111  L 107,111  L 107,47  L 106,47  L 106,39  L 105,39  L 105,33  L 104,33  L 104,26  L 103,26  L 103,21  L 102,21  L 102,17  L 101,17  L 101,15  L 100,15  L 100,14  L 99,14  L 99,13  L 95,13  L 95,20  L 96,20  L 96,24  L 97,24  L 97,27  L 98,27  L 98,33  L 99,33  L 99,39  L 100,39  L 100,48  L 101,48  L 101,75  L 100,75  L 100,76  L 101,76  L 101,79  L 100,79  L 100,80  L 101,80  L 101,83  L 100,83  L 100,84  L 101,84  L 101,87  L 100,87  L 100,88  L 101,88  L 101,91  L 100,91  L 100,92  L 101,92  L 101,95  L 100,95  L 100,96  L 101,96  L 101,115  L 100,115  L 100,118  L 101,118  L 101,119  L 100,119  L 100,120  L 101,120  L 101,134  L 100,134  L 100,135  L 92,135  L 92,136  L 91,136  L 91,135  L 88,135  L 88,136  L 87,136  L 87,135  L 84,135  L 84,136  L 83,136  L 83,135  L 80,135  L 80,136  L 79,136  L 79,135  L 76,135  L 76,136  L 75,136  L 75,135  L 72,135  L 72,136  L 71,136  L 71,135  L 70,135  L 70,136  L 69,136  L 69,135  L 68,135  L 68,136  L 67,136  L 67,135  L 66,135  L 66,136  L 63,136  L 63,135  L 62,135  L 62,136  L 61,136  L 61,135  L 60,135  L 60,136  L 59,136  L 59,135  L 58,135  L 58,136  L 55,136  L 55,135  L 54,135  L 54,136  L 44,136  L 44,137  L 42,137  L 42,136  L 41,136  L 41,137  L 38,137  L 38,136  L 36,136  L 36,131  L 37,131  L 37,124  L 38,124  L 38,120  L 39,120  L 39,115  L 40,115  L 40,110  L 41,110  L 41,109  L 40,109  L 40,107  L 41,107  L 41,98  L 42,98  L 42,97  L 41,97  L 41,96  L 42,96  L 42,95  L 41,95  L 41,94  L 42,94  L 42,88  L 49,88  L 49,87  L 57,87  L 57,86  L 66,86  L 66,85  L 74,85  L 74,84  L 83,84  L 83,83  L 86,83  L 86,82  L 87,82  L 87,79  L 88,79  L 88,77  L 87,77  L 87,76  L 86,76  L 86,75  L 81,75  L 81,76  L 78,76  L 78,77  L 73,77  L 73,78  L 66,78  L 66,79  L 53,79  L 53,80  L 41,80  L 41,81  L 32,81  L 32,82  L 31,82  L 31,81  L 30,81  L 30,82  L 26,82  L 26,83  L 16,83  L 16,84  L 11,84  L 11,85  L 8,85  L 8,86  L 4,86  L 4,87  L 1,87  L 1,92  L 4,92  L 4,93  L 6,93  L 6,92  L 9,92  L 9,91  L 11,91  L 11,90  L 15,90  L 15,89  L 17,89  L 17,90  L 18,90  L 18,89  L 31,89  L 31,88  L 35,88  L 35,89  L 36,89  L 36,90  L 35,90  Z  M 38,155  L 37,155  L 37,149  L 38,149  L 38,146  L 39,146  L 39,145  L 40,145  L 40,144  L 43,144  L 43,143  L 75,143  L 75,142  L 76,142  L 76,143  L 79,143  L 79,142  L 80,142  L 80,143  L 82,143  L 82,142  L 84,142  L 84,143  L 86,143  L 86,142  L 88,142  L 88,143  L 90,143  L 90,142  L 92,142  L 92,143  L 98,143  L 98,144  L 99,144  L 99,153  L 98,153  L 98,159  L 97,159  L 97,161  L 96,161  L 96,162  L 95,162  L 95,163  L 93,163  L 93,164  L 91,164  L 91,165  L 85,165  L 85,166  L 82,166  L 82,167  L 77,167  L 77,168  L 73,168  L 73,169  L 68,169  L 68,170  L 67,170  L 67,169  L 66,169  L 66,170  L 63,170  L 63,169  L 62,169  L 62,170  L 47,170  L 47,169  L 42,169  L 42,168  L 41,168  L 41,167  L 40,167  L 40,166  L 39,166  L 39,161  L 38,161  Z  " style="fill:rgb(0, 0, 0); fill-opacity:1.000; stroke:none;" />
 <path d="  M 46,38  L 46,39  L 45,39  L 45,40  L 44,40  L 44,41  L 43,41  L 43,42  L 42,42  L 42,45  L 41,45  L 41,46  L 40,46  L 40,47  L 39,47  L 39,49  L 38,49  L 38,50  L 37,50  L 37,52  L 36,52  L 36,53  L 35,53  L 35,54  L 33,54  L 33,55  L 32,55  L 32,56  L 31,56  L 31,57  L 29,57  L 29,58  L 27,58  L 27,59  L 25,59  L 25,60  L 24,60  L 24,61  L 22,61  L 22,62  L 19,62  L 19,63  L 15,63  L 15,64  L 10,64  L 10,65  L 8,65  L 8,66  L 5,66  L 5,67  L 4,67  L 4,68  L 3,68  L 3,70  L 4,70  L 4,71  L 5,71  L 5,72  L 15,72  L 15,71  L 18,71  L 18,70  L 21,70  L 21,69  L 22,69  L 22,68  L 25,68  L 25,67  L 27,67  L 27,66  L 29,66  L 29,65  L 30,65  L 30,64  L 32,64  L 32,63  L 33,63  L 33,62  L 35,62  L 35,61  L 36,61  L 36,60  L 37,60  L 37,59  L 38,59  L 38,58  L 39,58  L 39,57  L 40,57  L 40,56  L 41,56  L 41,55  L 43,55  L 43,54  L 44,54  L 44,53  L 46,53  L 46,52  L 48,52  L 48,53  L 50,53  L 50,54  L 51,54  L 51,55  L 53,55  L 53,56  L 55,56  L 55,57  L 57,57  L 57,58  L 59,58  L 59,59  L 61,59  L 61,60  L 62,60  L 62,61  L 64,61  L 64,62  L 67,62  L 67,63  L 69,63  L 69,64  L 81,64  L 81,63  L 82,63  L 82,61  L 80,61  L 80,60  L 78,60  L 78,59  L 75,59  L 75,58  L 74,58  L 74,57  L 72,57  L 72,56  L 69,56  L 69,55  L 67,55  L 67,54  L 65,54  L 65,53  L 63,53  L 63,52  L 61,52  L 61,51  L 59,51  L 59,50  L 58,50  L 58,49  L 56,49  L 56,48  L 54,48  L 54,47  L 53,47  L 53,46  L 51,46  L 51,40  L 52,40  L 52,37  L 47,37  L 47,38  Z  " style="fill:rgb(0, 0, 0); fill-opacity:1.000; stroke:none;" />
 <path d="  M 52,25  L 49,25  L 49,26  L 48,26  L 48,25  L 44,25  L 44,26  L 36,26  L 36,27  L 28,27  L 28,28  L 21,28  L 21,29  L 14,29  L 14,30  L 8,30  L 8,31  L 5,31  L 5,35  L 4,35  L 4,36  L 7,36  L 7,37  L 13,37  L 13,36  L 15,36  L 15,35  L 16,35  L 16,36  L 17,36  L 17,35  L 25,35  L 25,34  L 40,34  L 40,33  L 48,33  L 48,34  L 51,34  L 51,33  L 53,33  L 53,34  L 54,34  L 54,33  L 59,33  L 59,32  L 60,32  L 60,33  L 61,33  L 61,31  L 63,31  L 63,30  L 62,30  L 62,28  L 61,28  L 61,27  L 59,27  L 59,26  L 56,26  L 56,25  L 53,25  L 53,26  L 52,26  Z  " style="fill:rgb(0, 0, 0); fill-opacity:1.000; stroke:none;" />
 <path d="  M 31,4  L 30,4  L 30,10  L 31,10  L 31,12  L 32,12  L 32,13  L 33,13  L 33,15  L 34,15  L 34,18  L 35,18  L 35,19  L 36,19  L 36,20  L 39,20  L 39,21  L 40,21  L 40,22  L 41,22  L 41,16  L 40,16  L 40,11  L 39,11  L 39,7  L 38,7  L 38,4  L 37,4  L 37,1  L 32,1  L 32,2  L 31,2  Z  " style="fill:rgb(0, 0, 0); fill-opacity:1.000; stroke:none;" />
</svg>
