<?xml version="1.0" encoding="UTF-8" standalone="no"?>
<!DOCTYPE svg PUBLIC "-//W3C//DTD SVG 1.1//EN" 
  "http://www.w3.org/Graphics/SVG/1.1/DTD/svg11.dtd">
<svg width="107" height="183"
     xmlns="http://www.w3.org/2000/svg" version="1.1">
 <path d="  M 51,133  L 51,132  L 54,132  L 54,133  L 55,133  L 55,132  L 61,132  L 61,131  L 78,131  L 78,132  L 79,132  L 79,135  L 80,135  L 80,137  L 79,137  L 79,141  L 78,141  L 78,142  L 77,142  L 77,144  L 74,144  L 74,145  L 70,145  L 70,146  L 68,146  L 68,147  L 61,147  L 61,148  L 56,148  L 56,149  L 44,149  L 44,150  L 41,150  L 41,149  L 40,149  L 40,150  L 38,150  L 38,149  L 22,149  L 22,150  L 20,150  L 20,152  L 19,152  L 19,153  L 18,153  L 18,171  L 19,171  L 19,174  L 20,174  L 20,177  L 21,177  L 21,178  L 22,178  L 22,179  L 23,179  L 23,180  L 24,180  L 24,181  L 26,181  L 26,182  L 28,182  L 28,183  L 69,183  L 69,182  L 74,182  L 74,181  L 76,181  L 76,182  L 77,182  L 77,181  L 80,181  L 80,180  L 82,180  L 82,179  L 86,179  L 86,178  L 90,178  L 90,177  L 93,177  L 93,176  L 96,176  L 96,175  L 98,175  L 98,174  L 103,174  L 103,173  L 105,173  L 105,172  L 106,172  L 106,170  L 105,170  L 105,169  L 104,169  L 104,168  L 103,168  L 103,167  L 102,167  L 102,166  L 99,166  L 99,167  L 97,167  L 97,168  L 95,168  L 95,169  L 92,169  L 92,170  L 90,170  L 90,171  L 87,171  L 87,172  L 86,172  L 86,171  L 85,171  L 85,172  L 84,172  L 84,173  L 79,173  L 79,174  L 78,174  L 78,173  L 77,173  L 77,174  L 74,174  L 74,175  L 68,175  L 68,176  L 64,176  L 64,177  L 41,177  L 41,176  L 38,176  L 38,175  L 37,175  L 37,176  L 34,176  L 34,175  L 30,175  L 30,174  L 27,174  L 27,173  L 25,173  L 25,171  L 24,171  L 24,168  L 25,168  L 25,167  L 24,167  L 24,166  L 25,166  L 25,164  L 24,164  L 24,162  L 25,162  L 25,158  L 26,158  L 26,157  L 27,157  L 27,156  L 28,156  L 28,155  L 29,155  L 29,156  L 38,156  L 38,157  L 44,157  L 44,156  L 45,156  L 45,157  L 46,157  L 46,156  L 47,156  L 47,157  L 48,157  L 48,156  L 62,156  L 62,155  L 65,155  L 65,156  L 66,156  L 66,155  L 68,155  L 68,154  L 73,154  L 73,153  L 76,153  L 76,152  L 78,152  L 78,151  L 79,151  L 79,150  L 81,150  L 81,149  L 82,149  L 82,148  L 83,148  L 83,147  L 84,147  L 84,146  L 85,146  L 85,145  L 87,145  L 87,144  L 88,144  L 88,142  L 89,142  L 89,141  L 90,141  L 90,134  L 89,134  L 89,129  L 88,129  L 88,128  L 87,128  L 87,127  L 86,127  L 86,126  L 85,126  L 85,125  L 82,125  L 82,124  L 80,124  L 80,123  L 79,123  L 79,122  L 78,122  L 78,121  L 77,121  L 77,117  L 76,117  L 76,116  L 77,116  L 77,115  L 76,115  L 76,101  L 75,101  L 75,100  L 76,100  L 76,98  L 75,98  L 75,90  L 76,90  L 76,89  L 77,89  L 77,88  L 79,88  L 79,89  L 87,89  L 87,88  L 96,88  L 96,87  L 101,87  L 101,86  L 103,86  L 103,85  L 106,85  L 106,84  L 107,84  L 107,78  L 106,78  L 106,77  L 104,77  L 104,76  L 103,76  L 103,75  L 102,75  L 102,76  L 101,76  L 101,74  L 98,74  L 98,76  L 100,76  L 100,77  L 99,77  L 99,78  L 96,78  L 96,79  L 94,79  L 94,80  L 90,80  L 90,81  L 76,81  L 76,82  L 69,82  L 69,83  L 60,83  L 60,84  L 52,84  L 52,85  L 50,85  L 50,84  L 49,84  L 49,85  L 37,85  L 37,86  L 35,86  L 35,85  L 33,85  L 33,86  L 23,86  L 23,87  L 19,87  L 19,88  L 16,88  L 16,89  L 12,89  L 12,90  L 9,90  L 9,91  L 5,91  L 5,92  L 1,92  L 1,91  L 0,91  L 0,94  L 1,94  L 1,95  L 2,95  L 2,96  L 4,96  L 4,97  L 5,97  L 5,96  L 8,96  L 8,97  L 10,97  L 10,96  L 18,96  L 18,95  L 28,95  L 28,94  L 29,94  L 29,95  L 33,95  L 33,94  L 36,94  L 36,115  L 35,115  L 35,117  L 36,117  L 36,123  L 35,123  L 35,124  L 31,124  L 31,125  L 27,125  L 27,126  L 24,126  L 24,127  L 22,127  L 22,128  L 21,128  L 21,129  L 20,129  L 20,132  L 21,132  L 21,134  L 22,134  L 22,135  L 23,135  L 23,134  L 25,134  L 25,133  L 26,133  L 26,134  L 27,134  L 27,133  L 29,133  L 29,132  L 30,132  L 30,133  L 32,133  L 32,132  L 38,132  L 38,133  L 39,133  L 39,132  L 42,132  L 42,133  L 43,133  L 43,132  L 46,132  L 46,133  L 48,133  L 48,132  L 50,132  L 50,133  Z  M 57,121  L 57,122  L 55,122  L 55,123  L 43,123  L 43,122  L 42,122  L 42,120  L 43,120  L 43,106  L 44,106  L 44,105  L 43,105  L 43,104  L 44,104  L 44,94  L 45,94  L 45,93  L 52,93  L 52,92  L 58,92  L 58,91  L 59,91  L 59,92  L 60,92  L 60,91  L 66,91  L 66,90  L 68,90  L 68,121  L 67,121  L 67,122  L 66,122  L 66,121  L 65,121  L 65,122  L 62,122  L 62,121  L 61,121  L 61,122  L 58,122  L 58,121  Z  " style="fill:rgb(0, 0, 0); fill-opacity:1.000; stroke:none;" />
 <path d="  M 49,63  L 49,62  L 50,62  L 50,61  L 52,61  L 52,59  L 54,59  L 54,58  L 56,58  L 56,57  L 59,57  L 59,58  L 62,58  L 62,59  L 65,59  L 65,60  L 66,60  L 66,61  L 69,61  L 69,62  L 70,62  L 70,63  L 73,63  L 73,64  L 74,64  L 74,65  L 75,65  L 75,66  L 76,66  L 76,67  L 79,67  L 79,68  L 83,68  L 83,70  L 84,70  L 84,71  L 86,71  L 86,72  L 91,72  L 91,73  L 92,73  L 92,72  L 93,72  L 93,71  L 91,71  L 91,70  L 90,70  L 90,69  L 88,69  L 88,67  L 87,67  L 87,66  L 86,66  L 86,65  L 85,65  L 85,64  L 84,64  L 84,62  L 83,62  L 83,60  L 82,60  L 82,59  L 80,59  L 80,58  L 79,58  L 79,57  L 77,57  L 77,56  L 75,56  L 75,55  L 73,55  L 73,54  L 71,54  L 71,53  L 68,53  L 68,50  L 65,50  L 65,47  L 64,47  L 64,45  L 65,45  L 65,43  L 66,43  L 66,42  L 67,42  L 67,38  L 68,38  L 68,37  L 69,37  L 69,36  L 70,36  L 70,34  L 71,34  L 71,31  L 70,31  L 70,30  L 69,30  L 69,29  L 68,29  L 68,28  L 65,28  L 65,27  L 56,27  L 56,28  L 55,28  L 55,27  L 53,27  L 53,25  L 52,25  L 52,24  L 51,24  L 51,18  L 50,18  L 50,12  L 49,12  L 49,1  L 47,1  L 47,0  L 45,0  L 45,1  L 42,1  L 42,2  L 41,2  L 41,5  L 40,5  L 40,6  L 41,6  L 41,10  L 42,10  L 42,15  L 43,15  L 43,16  L 42,16  L 42,17  L 43,17  L 43,18  L 42,18  L 42,19  L 43,19  L 43,25  L 44,25  L 44,27  L 45,27  L 45,28  L 44,28  L 44,29  L 41,29  L 41,28  L 39,28  L 39,29  L 38,29  L 38,28  L 37,28  L 37,27  L 36,27  L 36,28  L 34,28  L 34,29  L 33,29  L 33,28  L 32,28  L 32,29  L 30,29  L 30,30  L 29,30  L 29,29  L 28,29  L 28,30  L 24,30  L 24,31  L 17,31  L 17,32  L 15,32  L 15,37  L 16,37  L 16,38  L 26,38  L 26,37  L 27,37  L 27,38  L 28,38  L 28,37  L 42,37  L 42,36  L 50,36  L 50,35  L 53,35  L 53,36  L 54,36  L 54,35  L 57,35  L 57,36  L 59,36  L 59,37  L 61,37  L 61,38  L 59,38  L 59,39  L 58,39  L 58,40  L 57,40  L 57,41  L 56,41  L 56,42  L 55,42  L 55,43  L 53,43  L 53,45  L 52,45  L 52,47  L 51,47  L 51,49  L 50,49  L 50,51  L 49,51  L 49,52  L 47,52  L 47,54  L 46,54  L 46,55  L 45,55  L 45,56  L 43,56  L 43,57  L 42,57  L 42,59  L 41,59  L 41,60  L 40,60  L 40,61  L 39,61  L 39,62  L 38,62  L 38,63  L 37,63  L 37,65  L 36,65  L 36,66  L 35,66  L 35,67  L 34,67  L 34,68  L 33,68  L 33,69  L 31,69  L 31,70  L 30,70  L 30,71  L 29,71  L 29,72  L 28,72  L 28,73  L 27,73  L 27,74  L 24,74  L 24,75  L 22,75  L 22,76  L 20,76  L 20,77  L 19,77  L 19,78  L 20,78  L 20,79  L 21,79  L 21,80  L 28,80  L 28,79  L 31,79  L 31,78  L 32,78  L 32,77  L 33,77  L 33,76  L 35,76  L 35,75  L 36,75  L 36,74  L 37,74  L 37,73  L 38,73  L 38,72  L 39,72  L 39,71  L 41,71  L 41,70  L 42,70  L 42,68  L 43,68  L 43,67  L 45,67  L 45,66  L 46,66  L 46,65  L 47,65  L 47,64  L 48,64  L 48,63  Z  " style="fill:rgb(0, 0, 0); fill-opacity:1.000; stroke:none;" />
 <path d="  M 94,73  L 92,73  L 92,74  L 94,74  Z  " style="fill:rgb(0, 0, 0); fill-opacity:1.000; stroke:none;" />
 <path d="  M 98,74  L 98,73  L 95,73  L 95,74  Z  " style="fill:rgb(0, 0, 0); fill-opacity:1.000; stroke:none;" />
</svg>
