<?xml version="1.0" encoding="UTF-8" standalone="no"?>
<!DOCTYPE svg PUBLIC "-//W3C//DTD SVG 1.1//EN" 
  "http://www.w3.org/Graphics/SVG/1.1/DTD/svg11.dtd">
<svg width="105" height="189"
     xmlns="http://www.w3.org/2000/svg" version="1.1">
 <path d="  M 35,107  L 34,107  L 34,108  L 35,108  L 35,109  L 34,109  L 34,117  L 33,117  L 33,120  L 34,120  L 34,123  L 31,123  L 31,124  L 26,124  L 26,125  L 22,125  L 22,127  L 21,127  L 21,129  L 22,129  L 22,139  L 21,139  L 21,140  L 22,140  L 22,142  L 21,142  L 21,144  L 22,144  L 22,146  L 21,146  L 21,148  L 22,148  L 22,149  L 21,149  L 21,174  L 20,174  L 20,175  L 21,175  L 21,181  L 22,181  L 22,184  L 23,184  L 23,186  L 24,186  L 24,187  L 27,187  L 27,188  L 31,188  L 31,189  L 42,189  L 42,188  L 47,188  L 47,187  L 52,187  L 52,186  L 56,186  L 56,185  L 60,185  L 60,184  L 64,184  L 64,183  L 67,183  L 67,182  L 72,182  L 72,181  L 75,181  L 75,180  L 77,180  L 77,179  L 79,179  L 79,178  L 81,178  L 81,177  L 82,177  L 82,176  L 83,176  L 83,175  L 84,175  L 84,174  L 85,174  L 85,162  L 84,162  L 84,156  L 85,156  L 85,155  L 84,155  L 84,150  L 85,150  L 85,145  L 86,145  L 86,140  L 87,140  L 87,122  L 86,122  L 86,121  L 85,121  L 85,119  L 82,119  L 82,118  L 79,118  L 79,117  L 77,117  L 77,115  L 76,115  L 76,111  L 75,111  L 75,88  L 76,88  L 76,87  L 78,87  L 78,86  L 79,86  L 79,87  L 80,87  L 80,86  L 95,86  L 95,85  L 98,85  L 98,84  L 100,84  L 100,83  L 103,83  L 103,82  L 104,82  L 104,81  L 105,81  L 105,75  L 103,75  L 103,74  L 102,74  L 102,75  L 100,75  L 100,76  L 99,76  L 99,75  L 98,75  L 98,76  L 96,76  L 96,77  L 92,77  L 92,78  L 91,78  L 91,79  L 86,79  L 86,80  L 71,80  L 71,81  L 66,81  L 66,82  L 51,82  L 51,83  L 50,83  L 50,82  L 49,82  L 49,83  L 32,83  L 32,84  L 20,84  L 20,85  L 14,85  L 14,86  L 9,86  L 9,87  L 3,87  L 3,88  L 1,88  L 1,89  L 0,89  L 0,93  L 1,93  L 1,94  L 7,94  L 7,93  L 14,93  L 14,92  L 19,92  L 19,91  L 28,91  L 28,92  L 29,92  L 29,91  L 32,91  L 32,90  L 35,90  Z  M 69,126  L 78,126  L 78,127  L 79,127  L 79,128  L 80,128  L 80,140  L 79,140  L 79,147  L 78,147  L 78,156  L 77,156  L 77,157  L 78,157  L 78,158  L 77,158  L 77,159  L 78,159  L 78,160  L 77,160  L 77,161  L 78,161  L 78,164  L 79,164  L 79,170  L 78,170  L 78,171  L 76,171  L 76,172  L 74,172  L 74,173  L 71,173  L 71,174  L 70,174  L 70,175  L 65,175  L 65,176  L 61,176  L 61,177  L 57,177  L 57,178  L 56,178  L 56,177  L 55,177  L 55,178  L 53,178  L 53,179  L 49,179  L 49,180  L 47,180  L 47,179  L 46,179  L 46,180  L 39,180  L 39,179  L 35,179  L 35,178  L 32,178  L 32,177  L 30,177  L 30,176  L 29,176  L 29,175  L 28,175  L 28,173  L 27,173  L 27,165  L 28,165  L 28,142  L 29,142  L 29,141  L 28,141  L 28,140  L 29,140  L 29,137  L 28,137  L 28,136  L 29,136  L 29,132  L 30,132  L 30,130  L 36,130  L 36,129  L 44,129  L 44,128  L 59,128  L 59,127  L 62,127  L 62,128  L 63,128  L 63,127  L 69,127  Z  M 40,122  L 40,117  L 41,117  L 41,116  L 42,116  L 42,115  L 41,115  L 41,114  L 42,114  L 42,100  L 43,100  L 43,99  L 42,99  L 42,95  L 43,95  L 43,94  L 42,94  L 42,91  L 43,91  L 43,90  L 45,90  L 45,89  L 62,89  L 62,88  L 66,88  L 66,89  L 67,89  L 67,113  L 68,113  L 68,117  L 69,117  L 69,119  L 68,119  L 68,120  L 65,120  L 65,121  L 64,121  L 64,120  L 63,120  L 63,121  L 53,121  L 53,122  L 52,122  L 52,121  L 51,121  L 51,122  Z  " style="fill:rgb(0, 0, 0); fill-opacity:1.000; stroke:none;" />
 <path d="  M 53,43  L 52,43  L 52,44  L 51,44  L 51,46  L 49,46  L 49,47  L 48,47  L 48,49  L 47,49  L 47,50  L 46,50  L 46,51  L 45,51  L 45,53  L 44,53  L 44,54  L 43,54  L 43,56  L 41,56  L 41,57  L 40,57  L 40,59  L 39,59  L 39,61  L 38,61  L 38,62  L 36,62  L 36,63  L 35,63  L 35,64  L 34,64  L 34,65  L 32,65  L 32,66  L 30,66  L 30,67  L 29,67  L 29,68  L 27,68  L 27,69  L 25,69  L 25,70  L 23,70  L 23,71  L 21,71  L 21,72  L 20,72  L 20,73  L 19,73  L 19,74  L 18,74  L 18,75  L 16,75  L 16,77  L 15,77  L 15,78  L 16,78  L 16,79  L 15,79  L 15,80  L 22,80  L 22,79  L 23,79  L 23,78  L 26,78  L 26,77  L 27,77  L 27,76  L 28,76  L 28,75  L 30,75  L 30,74  L 33,74  L 33,73  L 34,73  L 34,72  L 36,72  L 36,71  L 37,71  L 37,70  L 38,70  L 38,69  L 39,69  L 39,68  L 40,68  L 40,67  L 41,67  L 41,66  L 42,66  L 42,65  L 43,65  L 43,64  L 44,64  L 44,63  L 45,63  L 45,62  L 46,62  L 46,61  L 47,61  L 47,60  L 48,60  L 48,59  L 49,59  L 49,58  L 50,58  L 50,57  L 52,57  L 52,56  L 54,56  L 54,55  L 59,55  L 59,56  L 60,56  L 60,57  L 63,57  L 63,58  L 65,58  L 65,59  L 68,59  L 68,60  L 71,60  L 71,61  L 73,61  L 73,62  L 75,62  L 75,63  L 79,63  L 79,64  L 80,64  L 80,65  L 81,65  L 81,66  L 83,66  L 83,67  L 85,67  L 85,68  L 93,68  L 93,65  L 92,65  L 92,62  L 91,62  L 91,61  L 89,61  L 89,60  L 87,60  L 87,59  L 86,59  L 86,58  L 83,58  L 83,57  L 80,57  L 80,56  L 78,56  L 78,55  L 76,55  L 76,54  L 73,54  L 73,53  L 72,53  L 72,52  L 69,52  L 69,51  L 68,51  L 68,50  L 67,50  L 67,49  L 66,49  L 66,48  L 65,48  L 65,49  L 64,49  L 64,48  L 63,48  L 63,47  L 61,47  L 61,45  L 62,45  L 62,43  L 63,43  L 63,41  L 65,41  L 65,37  L 66,37  L 66,31  L 65,31  L 65,30  L 64,30  L 64,29  L 63,29  L 63,28  L 60,28  L 60,27  L 50,27  L 50,26  L 49,26  L 49,21  L 48,21  L 48,18  L 47,18  L 47,11  L 46,11  L 46,5  L 45,5  L 45,4  L 46,4  L 46,3  L 45,3  L 45,1  L 40,1  L 40,3  L 39,3  L 39,8  L 40,8  L 40,9  L 39,9  L 39,10  L 40,10  L 40,11  L 39,11  L 39,12  L 40,12  L 40,17  L 41,17  L 41,21  L 42,21  L 42,24  L 43,24  L 43,25  L 44,25  L 44,27  L 43,27  L 43,28  L 38,28  L 38,29  L 33,29  L 33,30  L 23,30  L 23,31  L 16,31  L 16,32  L 13,32  L 13,33  L 12,33  L 12,35  L 11,35  L 11,36  L 12,36  L 12,38  L 22,38  L 22,37  L 33,37  L 33,36  L 42,36  L 42,35  L 48,35  L 48,34  L 50,34  L 50,35  L 52,35  L 52,34  L 53,34  L 53,35  L 55,35  L 55,36  L 56,36  L 56,38  L 55,38  L 55,40  L 54,40  L 54,41  L 53,41  Z  M 57,35  L 57,36  L 56,36  L 56,35  Z  " style="fill:rgb(0, 0, 0); fill-opacity:1.000; stroke:none;" />
</svg>
