<?xml version="1.0" encoding="UTF-8" standalone="no"?>
<!DOCTYPE svg PUBLIC "-//W3C//DTD SVG 1.1//EN" 
  "http://www.w3.org/Graphics/SVG/1.1/DTD/svg11.dtd">
<svg width="105" height="186"
     xmlns="http://www.w3.org/2000/svg" version="1.1">
 <path d="  M 43,93  L 43,94  L 36,94  L 36,95  L 31,95  L 31,96  L 30,96  L 30,95  L 29,95  L 29,96  L 27,96  L 27,97  L 22,97  L 22,98  L 16,98  L 16,99  L 15,99  L 15,98  L 14,98  L 14,99  L 7,99  L 7,100  L 2,100  L 2,101  L 1,101  L 1,102  L 0,102  L 0,105  L 1,105  L 1,106  L 2,106  L 2,107  L 3,107  L 3,109  L 7,109  L 7,108  L 11,108  L 11,107  L 12,107  L 12,108  L 13,108  L 13,107  L 14,107  L 14,106  L 18,106  L 18,105  L 19,105  L 19,106  L 20,106  L 20,105  L 26,105  L 26,104  L 34,104  L 34,103  L 35,103  L 35,104  L 37,104  L 37,103  L 42,103  L 42,102  L 48,102  L 48,101  L 58,101  L 58,100  L 59,100  L 59,101  L 60,101  L 60,100  L 70,100  L 70,99  L 71,99  L 71,100  L 73,100  L 73,99  L 76,99  L 76,100  L 77,100  L 77,99  L 82,99  L 82,98  L 83,98  L 83,99  L 84,99  L 84,98  L 98,98  L 98,97  L 99,97  L 99,98  L 100,98  L 100,97  L 103,97  L 103,96  L 104,96  L 104,95  L 105,95  L 105,90  L 104,90  L 104,89  L 102,89  L 102,88  L 101,88  L 101,89  L 96,89  L 96,90  L 89,90  L 89,91  L 79,91  L 79,92  L 78,92  L 78,91  L 77,91  L 77,92  L 74,92  L 74,91  L 73,91  L 73,92  L 62,92  L 62,93  Z  " style="fill:rgb(0, 0, 0); fill-opacity:1.000; stroke:none;" />
 <path d="  M 64,59  L 66,59  L 66,60  L 68,60  L 68,61  L 70,61  L 70,62  L 72,62  L 72,63  L 75,63  L 75,65  L 78,65  L 78,66  L 79,66  L 79,67  L 80,67  L 80,68  L 81,68  L 81,69  L 82,69  L 82,70  L 83,70  L 83,71  L 85,71  L 85,72  L 87,72  L 87,73  L 92,73  L 92,70  L 91,70  L 91,67  L 90,67  L 90,66  L 89,66  L 89,65  L 88,65  L 88,64  L 87,64  L 87,63  L 85,63  L 85,62  L 84,62  L 84,61  L 83,61  L 83,60  L 82,60  L 82,59  L 81,59  L 81,58  L 80,58  L 80,57  L 78,57  L 78,56  L 77,56  L 77,55  L 76,55  L 76,54  L 73,54  L 73,53  L 70,53  L 70,52  L 67,52  L 67,51  L 65,51  L 65,50  L 64,50  L 64,48  L 65,48  L 65,44  L 66,44  L 66,43  L 67,43  L 67,41  L 68,41  L 68,35  L 69,35  L 69,34  L 70,34  L 70,31  L 69,31  L 69,29  L 68,29  L 68,28  L 65,28  L 65,27  L 52,27  L 52,25  L 51,25  L 51,23  L 50,23  L 50,20  L 49,20  L 49,16  L 48,16  L 48,11  L 47,11  L 47,4  L 46,4  L 46,2  L 45,2  L 45,1  L 43,1  L 43,0  L 42,0  L 42,1  L 40,1  L 40,2  L 39,2  L 39,3  L 38,3  L 38,5  L 39,5  L 39,8  L 40,8  L 40,12  L 41,12  L 41,20  L 42,20  L 42,24  L 43,24  L 43,25  L 45,25  L 45,28  L 44,28  L 44,29  L 43,29  L 43,28  L 35,28  L 35,29  L 30,29  L 30,30  L 29,30  L 29,29  L 28,29  L 28,30  L 22,30  L 22,31  L 15,31  L 15,32  L 14,32  L 14,33  L 13,33  L 13,35  L 12,35  L 12,36  L 14,36  L 14,37  L 15,37  L 15,38  L 22,38  L 22,37  L 23,37  L 23,38  L 24,38  L 24,37  L 25,37  L 25,38  L 26,38  L 26,37  L 36,37  L 36,36  L 38,36  L 38,37  L 39,37  L 39,36  L 44,36  L 44,35  L 45,35  L 45,36  L 46,36  L 46,35  L 58,35  L 58,40  L 57,40  L 57,42  L 56,42  L 56,43  L 55,43  L 55,45  L 54,45  L 54,46  L 53,46  L 53,49  L 51,49  L 51,50  L 50,50  L 50,51  L 49,51  L 49,52  L 48,52  L 48,53  L 47,53  L 47,55  L 46,55  L 46,56  L 45,56  L 45,57  L 44,57  L 44,58  L 43,58  L 43,59  L 42,59  L 42,61  L 41,61  L 41,62  L 40,62  L 40,63  L 39,63  L 39,64  L 38,64  L 38,65  L 36,65  L 36,66  L 35,66  L 35,67  L 34,67  L 34,68  L 32,68  L 32,69  L 30,69  L 30,70  L 29,70  L 29,71  L 27,71  L 27,72  L 26,72  L 26,73  L 24,73  L 24,75  L 22,75  L 22,76  L 20,76  L 20,77  L 19,77  L 19,79  L 15,79  L 15,80  L 16,80  L 16,82  L 19,82  L 19,83  L 20,83  L 20,84  L 22,84  L 22,83  L 24,83  L 24,82  L 26,82  L 26,81  L 28,81  L 28,80  L 29,80  L 29,79  L 31,79  L 31,78  L 33,78  L 33,77  L 35,77  L 35,76  L 37,76  L 37,75  L 38,75  L 38,74  L 39,74  L 39,73  L 40,73  L 40,72  L 42,72  L 42,70  L 43,70  L 43,69  L 44,69  L 44,68  L 45,68  L 45,67  L 46,67  L 46,66  L 47,66  L 47,65  L 48,65  L 48,64  L 49,64  L 49,63  L 50,63  L 50,62  L 51,62  L 51,61  L 52,61  L 52,60  L 53,60  L 53,59  L 54,59  L 54,58  L 55,58  L 55,57  L 61,57  L 61,58  L 64,58  Z  " style="fill:rgb(0, 0, 0); fill-opacity:1.000; stroke:none;" />
 <path d="  M 79,132  L 79,131  L 78,131  L 78,129  L 77,129  L 77,128  L 76,128  L 76,127  L 74,127  L 74,126  L 72,126  L 72,125  L 68,125  L 68,124  L 61,124  L 61,125  L 60,125  L 60,124  L 59,124  L 59,125  L 49,125  L 49,126  L 40,126  L 40,127  L 25,127  L 25,128  L 23,128  L 23,129  L 21,129  L 21,132  L 20,132  L 20,135  L 21,135  L 21,136  L 25,136  L 25,137  L 26,137  L 26,136  L 31,136  L 31,135  L 32,135  L 32,136  L 33,136  L 33,135  L 40,135  L 40,134  L 48,134  L 48,133  L 62,133  L 62,132  L 63,132  L 63,133  L 68,133  L 68,134  L 71,134  L 71,135  L 72,135  L 72,153  L 71,153  L 71,162  L 70,162  L 70,167  L 69,167  L 69,185  L 70,185  L 70,186  L 76,186  L 76,185  L 77,185  L 77,176  L 78,176  L 78,174  L 77,174  L 77,173  L 78,173  L 78,162  L 79,162  L 79,156  L 80,156  L 80,155  L 79,155  L 79,153  L 80,153  L 80,146  L 81,146  L 81,140  L 82,140  L 82,136  L 81,136  L 81,133  L 80,133  L 80,132  Z  " style="fill:rgb(0, 0, 0); fill-opacity:1.000; stroke:none;" />
</svg>
