<?xml version="1.0" encoding="UTF-8" standalone="no"?>
<!DOCTYPE svg PUBLIC "-//W3C//DTD SVG 1.1//EN" 
  "http://www.w3.org/Graphics/SVG/1.1/DTD/svg11.dtd">
<svg width="102" height="167"
     xmlns="http://www.w3.org/2000/svg" version="1.1">
 <path d="  M 99,91  L 98,91  L 98,92  L 97,92  L 97,91  L 96,91  L 96,92  L 89,92  L 89,93  L 78,93  L 78,94  L 77,94  L 77,93  L 76,93  L 76,94  L 59,94  L 59,95  L 48,95  L 48,96  L 45,96  L 45,95  L 44,95  L 44,96  L 36,96  L 36,97  L 30,97  L 30,98  L 23,98  L 23,99  L 18,99  L 18,100  L 17,100  L 17,99  L 16,99  L 16,100  L 12,100  L 12,101  L 2,101  L 2,102  L 0,102  L 0,106  L 2,106  L 2,107  L 6,107  L 6,108  L 10,108  L 10,107  L 11,107  L 11,108  L 12,108  L 12,107  L 13,107  L 13,108  L 14,108  L 14,107  L 15,107  L 15,108  L 16,108  L 16,107  L 21,107  L 21,106  L 29,106  L 29,105  L 30,105  L 30,106  L 31,106  L 31,105  L 41,105  L 41,104  L 43,104  L 43,105  L 44,105  L 44,104  L 53,104  L 53,103  L 55,103  L 55,104  L 56,104  L 56,103  L 61,103  L 61,102  L 67,102  L 67,101  L 76,101  L 76,100  L 85,100  L 85,99  L 86,99  L 86,100  L 88,100  L 88,99  L 90,99  L 90,100  L 92,100  L 92,99  L 94,99  L 94,100  L 96,100  L 96,99  L 98,99  L 98,100  L 100,100  L 100,99  L 102,99  L 102,93  L 101,93  L 101,92  L 99,92  Z  " style="fill:rgb(0, 0, 0); fill-opacity:1.000; stroke:none;" />
 <path d="  M 42,68  L 43,68  L 43,67  L 44,67  L 44,66  L 45,66  L 45,64  L 46,64  L 46,63  L 47,63  L 47,62  L 48,62  L 48,61  L 49,61  L 49,60  L 50,60  L 50,59  L 51,59  L 51,58  L 52,58  L 52,57  L 53,57  L 53,55  L 54,55  L 54,56  L 55,56  L 55,55  L 56,55  L 56,56  L 57,56  L 57,55  L 58,55  L 58,56  L 59,56  L 59,57  L 62,57  L 62,58  L 66,58  L 66,59  L 68,59  L 68,60  L 69,60  L 69,61  L 71,61  L 71,62  L 72,62  L 72,63  L 73,63  L 73,64  L 74,64  L 74,65  L 75,65  L 75,66  L 77,66  L 77,67  L 78,67  L 78,68  L 81,68  L 81,69  L 82,69  L 82,70  L 85,70  L 85,71  L 86,71  L 86,72  L 92,72  L 92,67  L 91,67  L 91,66  L 90,66  L 90,65  L 88,65  L 88,64  L 87,64  L 87,63  L 84,63  L 84,62  L 82,62  L 82,61  L 81,61  L 81,60  L 80,60  L 80,59  L 78,59  L 78,58  L 77,58  L 77,57  L 75,57  L 75,56  L 74,56  L 74,55  L 72,55  L 72,53  L 71,53  L 71,52  L 69,52  L 69,51  L 67,51  L 67,50  L 66,50  L 66,49  L 64,49  L 64,43  L 65,43  L 65,41  L 66,41  L 66,39  L 67,39  L 67,37  L 68,37  L 68,35  L 69,35  L 69,34  L 70,34  L 70,29  L 71,29  L 71,28  L 70,28  L 70,24  L 68,24  L 68,22  L 67,22  L 67,21  L 65,21  L 65,20  L 61,20  L 61,21  L 59,21  L 59,22  L 57,22  L 57,23  L 56,23  L 56,22  L 53,22  L 53,23  L 43,23  L 43,24  L 35,24  L 35,25  L 25,25  L 25,26  L 20,26  L 20,27  L 16,27  L 16,28  L 14,28  L 14,29  L 13,29  L 13,33  L 14,33  L 14,34  L 19,34  L 19,33  L 31,33  L 31,32  L 45,32  L 45,31  L 46,31  L 46,32  L 47,32  L 47,31  L 60,31  L 60,32  L 59,32  L 59,34  L 58,34  L 58,37  L 57,37  L 57,38  L 56,38  L 56,41  L 54,41  L 54,43  L 52,43  L 52,45  L 50,45  L 50,47  L 49,47  L 49,48  L 48,48  L 48,50  L 47,50  L 47,51  L 46,51  L 46,53  L 45,53  L 45,54  L 44,54  L 44,56  L 43,56  L 43,58  L 42,58  L 42,59  L 41,59  L 41,60  L 40,60  L 40,61  L 39,61  L 39,62  L 38,62  L 38,64  L 36,64  L 36,65  L 35,65  L 35,66  L 34,66  L 34,68  L 32,68  L 32,69  L 30,69  L 30,70  L 29,70  L 29,71  L 28,71  L 28,72  L 26,72  L 26,73  L 25,73  L 25,74  L 24,74  L 24,75  L 23,75  L 23,76  L 22,76  L 22,78  L 21,78  L 21,79  L 20,79  L 20,80  L 19,80  L 19,84  L 21,84  L 21,85  L 23,85  L 23,84  L 25,84  L 25,83  L 27,83  L 27,82  L 28,82  L 28,81  L 29,81  L 29,80  L 30,80  L 30,79  L 31,79  L 31,78  L 33,78  L 33,77  L 34,77  L 34,76  L 35,76  L 35,75  L 36,75  L 36,74  L 37,74  L 37,73  L 38,73  L 38,72  L 39,72  L 39,71  L 40,71  L 40,70  L 41,70  L 41,69  L 42,69  Z  " style="fill:rgb(0, 0, 0); fill-opacity:1.000; stroke:none;" />
 <path d="  M 51,158  L 47,158  L 47,159  L 39,159  L 39,160  L 37,160  L 37,159  L 36,159  L 36,160  L 29,160  L 29,159  L 28,159  L 28,153  L 29,153  L 29,132  L 30,132  L 30,122  L 31,122  L 31,120  L 32,120  L 32,115  L 31,115  L 31,114  L 30,114  L 30,115  L 27,115  L 27,116  L 25,116  L 25,117  L 24,117  L 24,119  L 23,119  L 23,130  L 22,130  L 22,142  L 21,142  L 21,143  L 22,143  L 22,145  L 21,145  L 21,156  L 22,156  L 22,157  L 21,157  L 21,164  L 22,164  L 22,166  L 23,166  L 23,167  L 41,167  L 41,166  L 42,166  L 42,167  L 44,167  L 44,166  L 49,166  L 49,165  L 55,165  L 55,164  L 61,164  L 61,163  L 67,163  L 67,162  L 72,162  L 72,161  L 77,161  L 77,160  L 85,160  L 85,159  L 88,159  L 88,158  L 96,158  L 96,157  L 98,157  L 98,156  L 99,156  L 99,154  L 98,154  L 98,153  L 96,153  L 96,152  L 84,152  L 84,153  L 83,153  L 83,152  L 82,152  L 82,153  L 75,153  L 75,154  L 69,154  L 69,155  L 68,155  L 68,154  L 67,154  L 67,155  L 62,155  L 62,156  L 61,156  L 61,155  L 60,155  L 60,156  L 57,156  L 57,157  L 51,157  Z  " style="fill:rgb(0, 0, 0); fill-opacity:1.000; stroke:none;" />
 <path d="  M 26,2  L 26,3  L 25,3  L 25,6  L 24,6  L 24,8  L 35,8  L 35,7  L 36,7  L 36,8  L 38,8  L 38,9  L 40,9  L 40,10  L 41,10  L 41,12  L 42,12  L 42,13  L 43,13  L 43,14  L 44,14  L 44,15  L 46,15  L 46,16  L 47,16  L 47,15  L 48,15  L 48,13  L 49,13  L 49,6  L 48,6  L 48,4  L 47,4  L 47,3  L 46,3  L 46,2  L 44,2  L 44,1  L 43,1  L 43,0  L 42,0  L 42,1  L 41,1  L 41,0  L 38,0  L 38,1  L 37,1  L 37,0  L 36,0  L 36,1  L 33,1  L 33,0  L 32,0  L 32,1  L 29,1  L 29,2  Z  " style="fill:rgb(0, 0, 0); fill-opacity:1.000; stroke:none;" />
 <path d="  M 66,49  L 67,49  L 67,48  L 66,48  Z  " style="fill:rgb(0, 0, 0); fill-opacity:1.000; stroke:none;" />
</svg>
