<?xml version="1.0" encoding="UTF-8" standalone="no"?>
<!DOCTYPE svg PUBLIC "-//W3C//DTD SVG 1.1//EN" 
  "http://www.w3.org/Graphics/SVG/1.1/DTD/svg11.dtd">
<svg width="105" height="189"
     xmlns="http://www.w3.org/2000/svg" version="1.1">
 <path d="  M 37,97  L 37,96  L 40,96  L 40,97  L 41,97  L 41,96  L 50,96  L 50,95  L 51,95  L 51,96  L 52,96  L 52,95  L 53,95  L 53,96  L 54,96  L 54,95  L 66,95  L 66,94  L 67,94  L 67,95  L 68,95  L 68,94  L 78,94  L 78,93  L 79,93  L 79,94  L 80,94  L 80,93  L 97,93  L 97,92  L 101,92  L 101,91  L 103,91  L 103,89  L 104,89  L 104,88  L 105,88  L 105,83  L 104,83  L 104,82  L 102,82  L 102,83  L 98,83  L 98,84  L 94,84  L 94,85  L 90,85  L 90,86  L 83,86  L 83,87  L 68,87  L 68,88  L 66,88  L 66,87  L 65,87  L 65,88  L 45,88  L 45,89  L 42,89  L 42,88  L 41,88  L 41,89  L 38,89  L 38,88  L 37,88  L 37,89  L 32,89  L 32,90  L 22,90  L 22,91  L 17,91  L 17,92  L 9,92  L 9,93  L 5,93  L 5,94  L 3,94  L 3,95  L 1,95  L 1,98  L 0,98  L 0,100  L 3,100  L 3,101  L 10,101  L 10,100  L 15,100  L 15,99  L 21,99  L 21,98  L 29,98  L 29,97  Z  " style="fill:rgb(0, 0, 0); fill-opacity:1.000; stroke:none;" />
 <path d="  M 47,32  L 47,33  L 48,33  L 48,32  L 51,32  L 51,33  L 52,33  L 52,32  L 54,32  L 54,33  L 58,33  L 58,34  L 59,34  L 59,37  L 58,37  L 58,38  L 57,38  L 57,40  L 56,40  L 56,41  L 55,41  L 55,42  L 54,42  L 54,43  L 53,43  L 53,45  L 52,45  L 52,46  L 51,46  L 51,47  L 50,47  L 50,48  L 49,48  L 49,49  L 48,49  L 48,50  L 47,50  L 47,52  L 45,52  L 45,54  L 44,54  L 44,55  L 43,55  L 43,56  L 42,56  L 42,58  L 41,58  L 41,59  L 40,59  L 40,60  L 39,60  L 39,61  L 38,61  L 38,63  L 36,63  L 36,64  L 35,64  L 35,65  L 33,65  L 33,66  L 32,66  L 32,67  L 30,67  L 30,68  L 29,68  L 29,69  L 27,69  L 27,71  L 25,71  L 25,72  L 24,72  L 24,73  L 22,73  L 22,74  L 21,74  L 21,75  L 20,75  L 20,76  L 19,76  L 19,77  L 18,77  L 18,78  L 17,78  L 17,79  L 16,79  L 16,80  L 15,80  L 15,81  L 16,81  L 16,82  L 19,82  L 19,83  L 20,83  L 20,82  L 24,82  L 24,81  L 25,81  L 25,80  L 26,80  L 26,79  L 28,79  L 28,78  L 29,78  L 29,77  L 31,77  L 31,76  L 32,76  L 32,75  L 34,75  L 34,74  L 35,74  L 35,73  L 37,73  L 37,72  L 38,72  L 38,71  L 39,71  L 39,70  L 40,70  L 40,69  L 41,69  L 41,68  L 42,68  L 42,67  L 43,67  L 43,65  L 45,65  L 45,64  L 46,64  L 46,63  L 47,63  L 47,61  L 49,61  L 49,59  L 51,59  L 51,57  L 53,57  L 53,55  L 55,55  L 55,54  L 61,54  L 61,55  L 63,55  L 63,56  L 65,56  L 65,57  L 67,57  L 67,58  L 68,58  L 68,59  L 70,59  L 70,60  L 71,60  L 71,61  L 73,61  L 73,62  L 74,62  L 74,63  L 75,63  L 75,64  L 77,64  L 77,65  L 78,65  L 78,66  L 79,66  L 79,67  L 80,67  L 80,68  L 81,68  L 81,69  L 83,69  L 83,70  L 87,70  L 87,71  L 90,71  L 90,69  L 91,69  L 91,68  L 90,68  L 90,65  L 89,65  L 89,64  L 88,64  L 88,63  L 87,63  L 87,61  L 85,61  L 85,59  L 83,59  L 83,58  L 82,58  L 82,57  L 80,57  L 80,56  L 79,56  L 79,55  L 78,55  L 78,54  L 76,54  L 76,53  L 75,53  L 75,52  L 74,52  L 74,51  L 73,51  L 73,50  L 70,50  L 70,49  L 67,49  L 67,48  L 65,48  L 65,47  L 64,47  L 64,44  L 65,44  L 65,43  L 66,43  L 66,41  L 67,41  L 67,39  L 68,39  L 68,34  L 69,34  L 69,31  L 70,31  L 70,30  L 69,30  L 69,28  L 68,28  L 68,27  L 67,27  L 67,26  L 63,26  L 63,25  L 54,25  L 54,24  L 52,24  L 52,22  L 51,22  L 51,20  L 50,20  L 50,16  L 49,16  L 49,10  L 48,10  L 48,8  L 47,8  L 47,3  L 46,3  L 46,1  L 45,1  L 45,0  L 41,0  L 41,1  L 40,1  L 40,2  L 38,2  L 38,3  L 37,3  L 37,5  L 39,5  L 39,7  L 40,7  L 40,9  L 41,9  L 41,17  L 42,17  L 42,20  L 43,20  L 43,22  L 45,22  L 45,25  L 44,25  L 44,26  L 34,26  L 34,27  L 29,27  L 29,28  L 20,28  L 20,29  L 14,29  L 14,30  L 12,30  L 12,31  L 11,31  L 11,34  L 10,34  L 10,35  L 12,35  L 12,36  L 13,36  L 13,35  L 14,35  L 14,36  L 21,36  L 21,35  L 32,35  L 32,34  L 40,34  L 40,33  L 46,33  L 46,32  Z  " style="fill:rgb(0, 0, 0); fill-opacity:1.000; stroke:none;" />
 <path d="  M 38,126  L 38,125  L 42,125  L 42,124  L 43,124  L 43,125  L 45,125  L 45,124  L 53,124  L 53,123  L 62,123  L 62,122  L 70,122  L 70,121  L 71,121  L 71,122  L 73,122  L 73,121  L 80,121  L 80,120  L 81,120  L 81,121  L 83,121  L 83,133  L 82,133  L 82,141  L 81,141  L 81,147  L 80,147  L 80,154  L 79,154  L 79,167  L 80,167  L 80,169  L 79,169  L 79,170  L 78,170  L 78,171  L 77,171  L 77,172  L 75,172  L 75,173  L 73,173  L 73,174  L 69,174  L 69,175  L 68,175  L 68,176  L 63,176  L 63,177  L 59,177  L 59,178  L 56,178  L 56,179  L 52,179  L 52,180  L 51,180  L 51,181  L 49,181  L 49,180  L 48,180  L 48,181  L 38,181  L 38,180  L 35,180  L 35,179  L 33,179  L 33,178  L 32,178  L 32,177  L 31,177  L 31,176  L 30,176  L 30,160  L 31,160  L 31,158  L 30,158  L 30,157  L 31,157  L 31,129  L 32,129  L 32,127  L 36,127  L 36,126  Z  M 81,113  L 81,114  L 80,114  L 80,113  L 79,113  L 79,114  L 70,114  L 70,115  L 65,115  L 65,116  L 53,116  L 53,117  L 43,117  L 43,118  L 38,118  L 38,119  L 37,119  L 37,118  L 34,118  L 34,117  L 32,117  L 32,116  L 29,116  L 29,115  L 28,115  L 28,116  L 26,116  L 26,117  L 25,117  L 25,118  L 23,118  L 23,120  L 21,120  L 21,123  L 22,123  L 22,124  L 23,124  L 23,126  L 24,126  L 24,143  L 23,143  L 23,144  L 24,144  L 24,147  L 23,147  L 23,148  L 24,148  L 24,151  L 23,151  L 23,153  L 24,153  L 24,155  L 23,155  L 23,174  L 22,174  L 22,176  L 23,176  L 23,178  L 22,178  L 22,180  L 23,180  L 23,184  L 24,184  L 24,186  L 25,186  L 25,187  L 26,187  L 26,189  L 46,189  L 46,188  L 50,188  L 50,187  L 54,187  L 54,186  L 56,186  L 56,185  L 61,185  L 61,184  L 64,184  L 64,183  L 68,183  L 68,182  L 73,182  L 73,181  L 75,181  L 75,180  L 77,180  L 77,179  L 80,179  L 80,178  L 81,178  L 81,177  L 83,177  L 83,176  L 84,176  L 84,175  L 85,175  L 85,174  L 86,174  L 86,171  L 87,171  L 87,170  L 86,170  L 86,164  L 85,164  L 85,163  L 86,163  L 86,160  L 85,160  L 85,158  L 86,158  L 86,150  L 87,150  L 87,146  L 88,146  L 88,143  L 89,143  L 89,142  L 88,142  L 88,141  L 89,141  L 89,134  L 90,134  L 90,127  L 91,127  L 91,116  L 90,116  L 90,115  L 89,115  L 89,114  L 86,114  L 86,113  Z  " style="fill:rgb(0, 0, 0); fill-opacity:1.000; stroke:none;" />
 <path d="  M 34,5  L 35,5  L 35,4  L 34,4  Z  " style="fill:rgb(0, 0, 0); fill-opacity:1.000; stroke:none;" />
</svg>
