<?xml version="1.0" encoding="UTF-8" standalone="no"?>
<!DOCTYPE svg PUBLIC "-//W3C//DTD SVG 1.1//EN" 
  "http://www.w3.org/Graphics/SVG/1.1/DTD/svg11.dtd">
<svg width="105" height="190"
     xmlns="http://www.w3.org/2000/svg" version="1.1">
 <path d="  M 22,92  L 22,93  L 19,93  L 19,94  L 15,94  L 15,95  L 14,95  L 14,94  L 13,94  L 13,95  L 11,95  L 11,96  L 7,96  L 7,97  L 4,97  L 4,98  L 1,98  L 1,100  L 0,100  L 0,102  L 1,102  L 1,103  L 3,103  L 3,104  L 6,104  L 6,103  L 10,103  L 10,102  L 11,102  L 11,103  L 13,103  L 13,102  L 17,102  L 17,101  L 24,101  L 24,100  L 27,100  L 27,99  L 33,99  L 33,98  L 36,98  L 36,97  L 42,97  L 42,96  L 43,96  L 43,97  L 44,97  L 44,96  L 54,96  L 54,95  L 55,95  L 55,96  L 58,96  L 58,95  L 81,95  L 81,94  L 93,94  L 93,93  L 100,93  L 100,92  L 103,92  L 103,91  L 104,91  L 104,90  L 105,90  L 105,86  L 104,86  L 104,85  L 102,85  L 102,84  L 100,84  L 100,85  L 99,85  L 99,84  L 98,84  L 98,85  L 93,85  L 93,86  L 85,86  L 85,87  L 79,87  L 79,88  L 59,88  L 59,89  L 58,89  L 58,88  L 56,88  L 56,89  L 43,89  L 43,90  L 42,90  L 42,89  L 40,89  L 40,90  L 31,90  L 31,91  L 30,91  L 30,90  L 29,90  L 29,91  L 26,91  L 26,92  Z  " style="fill:rgb(0, 0, 0); fill-opacity:1.000; stroke:none;" />
 <path d="  M 49,62  L 50,62  L 50,61  L 52,61  L 52,60  L 53,60  L 53,59  L 54,59  L 54,58  L 55,58  L 55,57  L 60,57  L 60,58  L 61,58  L 61,59  L 64,59  L 64,60  L 66,60  L 66,61  L 67,61  L 67,62  L 69,62  L 69,63  L 70,63  L 70,64  L 71,64  L 71,65  L 73,65  L 73,66  L 75,66  L 75,68  L 76,68  L 76,69  L 79,69  L 79,70  L 81,70  L 81,71  L 83,71  L 83,72  L 86,72  L 86,73  L 89,73  L 89,70  L 88,70  L 88,68  L 87,68  L 87,66  L 86,66  L 86,65  L 85,65  L 85,64  L 83,64  L 83,63  L 82,63  L 82,62  L 81,62  L 81,61  L 79,61  L 79,60  L 78,60  L 78,59  L 77,59  L 77,58  L 75,58  L 75,57  L 74,57  L 74,56  L 73,56  L 73,54  L 70,54  L 70,53  L 69,53  L 69,52  L 68,52  L 68,51  L 65,51  L 65,50  L 63,50  L 63,48  L 64,48  L 64,45  L 65,45  L 65,42  L 66,42  L 66,41  L 67,41  L 67,38  L 68,38  L 68,31  L 67,31  L 67,30  L 66,30  L 66,29  L 65,29  L 65,28  L 63,28  L 63,27  L 57,27  L 57,26  L 54,26  L 54,27  L 52,27  L 52,26  L 51,26  L 51,22  L 50,22  L 50,20  L 49,20  L 49,16  L 48,16  L 48,10  L 47,10  L 47,4  L 46,4  L 46,1  L 43,1  L 43,0  L 42,0  L 42,1  L 41,1  L 41,2  L 39,2  L 39,7  L 40,7  L 40,11  L 41,11  L 41,19  L 42,19  L 42,23  L 43,23  L 43,24  L 45,24  L 45,25  L 46,25  L 46,26  L 45,26  L 45,27  L 44,27  L 44,28  L 43,28  L 43,27  L 41,27  L 41,28  L 34,28  L 34,29  L 29,29  L 29,30  L 22,30  L 22,31  L 17,31  L 17,32  L 16,32  L 16,34  L 15,34  L 15,37  L 16,37  L 16,38  L 22,38  L 22,37  L 23,37  L 23,38  L 24,38  L 24,37  L 34,37  L 34,36  L 40,36  L 40,35  L 42,35  L 42,36  L 44,36  L 44,35  L 55,35  L 55,36  L 56,36  L 56,35  L 57,35  L 57,37  L 58,37  L 58,40  L 57,40  L 57,41  L 56,41  L 56,42  L 55,42  L 55,43  L 54,43  L 54,44  L 53,44  L 53,47  L 52,47  L 52,48  L 51,48  L 51,50  L 50,50  L 50,51  L 49,51  L 49,52  L 48,52  L 48,53  L 47,53  L 47,55  L 46,55  L 46,56  L 45,56  L 45,58  L 44,58  L 44,59  L 43,59  L 43,60  L 42,60  L 42,61  L 41,61  L 41,62  L 40,62  L 40,63  L 39,63  L 39,64  L 38,64  L 38,65  L 37,65  L 37,66  L 35,66  L 35,67  L 34,67  L 34,68  L 32,68  L 32,69  L 31,69  L 31,70  L 29,70  L 29,71  L 28,71  L 28,72  L 26,72  L 26,73  L 25,73  L 25,74  L 23,74  L 23,75  L 22,75  L 22,76  L 21,76  L 21,77  L 20,77  L 20,79  L 19,79  L 19,83  L 22,83  L 22,84  L 23,84  L 23,83  L 25,83  L 25,82  L 26,82  L 26,81  L 28,81  L 28,80  L 29,80  L 29,79  L 30,79  L 30,78  L 31,78  L 31,77  L 33,77  L 33,76  L 35,76  L 35,75  L 37,75  L 37,74  L 38,74  L 38,73  L 39,73  L 39,72  L 40,72  L 40,71  L 41,71  L 41,70  L 42,70  L 42,69  L 43,69  L 43,68  L 45,68  L 45,67  L 46,67  L 46,66  L 47,66  L 47,64  L 49,64  Z  " style="fill:rgb(0, 0, 0); fill-opacity:1.000; stroke:none;" />
 <path d="  M 33,111  L 33,110  L 32,110  L 32,108  L 31,108  L 31,109  L 28,109  L 28,110  L 27,110  L 27,111  L 26,111  L 26,113  L 25,113  L 25,124  L 24,124  L 24,145  L 23,145  L 23,147  L 24,147  L 24,149  L 23,149  L 23,151  L 24,151  L 24,152  L 23,152  L 23,155  L 24,155  L 24,157  L 23,157  L 23,159  L 24,159  L 24,161  L 23,161  L 23,163  L 24,163  L 24,164  L 23,164  L 23,167  L 24,167  L 24,168  L 23,168  L 23,183  L 24,183  L 24,184  L 23,184  L 23,185  L 24,185  L 24,188  L 25,188  L 25,189  L 26,189  L 26,190  L 43,190  L 43,189  L 47,189  L 47,188  L 50,188  L 50,187  L 51,187  L 51,188  L 52,188  L 52,187  L 57,187  L 57,186  L 60,186  L 60,185  L 62,185  L 62,184  L 68,184  L 68,183  L 71,183  L 71,182  L 73,182  L 73,181  L 76,181  L 76,180  L 78,180  L 78,179  L 81,179  L 81,178  L 84,178  L 84,177  L 86,177  L 86,176  L 87,176  L 87,175  L 88,175  L 88,174  L 89,174  L 89,173  L 90,173  L 90,172  L 89,172  L 89,170  L 88,170  L 88,166  L 87,166  L 87,165  L 88,165  L 88,164  L 87,164  L 87,163  L 88,163  L 88,162  L 87,162  L 87,160  L 88,160  L 88,158  L 87,158  L 87,157  L 88,157  L 88,151  L 89,151  L 89,145  L 90,145  L 90,141  L 91,141  L 91,123  L 90,123  L 90,121  L 91,121  L 91,120  L 90,120  L 90,117  L 89,117  L 89,108  L 88,108  L 88,104  L 87,104  L 87,103  L 83,103  L 83,106  L 82,106  L 82,114  L 83,114  L 83,116  L 82,116  L 82,118  L 83,118  L 83,133  L 84,133  L 84,135  L 83,135  L 83,137  L 81,137  L 81,138  L 75,138  L 75,139  L 74,139  L 74,138  L 73,138  L 73,139  L 70,139  L 70,140  L 63,140  L 63,141  L 62,141  L 62,140  L 60,140  L 60,141  L 54,141  L 54,142  L 53,142  L 53,141  L 52,141  L 52,142  L 45,142  L 45,141  L 44,141  L 44,142  L 41,142  L 41,141  L 38,141  L 38,140  L 34,140  L 34,139  L 32,139  L 32,138  L 31,138  L 31,137  L 30,137  L 30,131  L 31,131  L 31,127  L 32,127  L 32,115  L 33,115  L 33,112  L 32,112  L 32,111  Z  M 66,148  L 68,148  L 68,147  L 69,147  L 69,148  L 70,148  L 70,147  L 73,147  L 73,146  L 74,146  L 74,147  L 75,147  L 75,146  L 78,146  L 78,145  L 79,145  L 79,144  L 80,144  L 80,145  L 81,145  L 81,156  L 80,156  L 80,160  L 81,160  L 81,161  L 80,161  L 80,164  L 81,164  L 81,166  L 82,166  L 82,168  L 83,168  L 83,169  L 82,169  L 82,170  L 81,170  L 81,171  L 80,171  L 80,172  L 79,172  L 79,173  L 78,173  L 78,172  L 77,172  L 77,173  L 76,173  L 76,174  L 74,174  L 74,175  L 71,175  L 71,176  L 67,176  L 67,177  L 66,177  L 66,176  L 65,176  L 65,177  L 64,177  L 64,178  L 60,178  L 60,179  L 56,179  L 56,180  L 53,180  L 53,181  L 49,181  L 49,182  L 43,182  L 43,183  L 41,183  L 41,182  L 37,182  L 37,181  L 34,181  L 34,180  L 33,180  L 33,179  L 31,179  L 31,178  L 30,178  L 30,153  L 31,153  L 31,152  L 30,152  L 30,146  L 31,146  L 31,145  L 33,145  L 33,146  L 34,146  L 34,147  L 35,147  L 35,148  L 36,148  L 36,149  L 42,149  L 42,150  L 46,150  L 46,151  L 47,151  L 47,150  L 48,150  L 48,151  L 49,151  L 49,150  L 50,150  L 50,151  L 51,151  L 51,150  L 52,150  L 52,151  L 53,151  L 53,150  L 60,150  L 60,149  L 66,149  Z  " style="fill:rgb(0, 0, 0); fill-opacity:1.000; stroke:none;" />
</svg>
