<?xml version="1.0" encoding="UTF-8" standalone="no"?>
<!DOCTYPE svg PUBLIC "-//W3C//DTD SVG 1.1//EN" 
  "http://www.w3.org/Graphics/SVG/1.1/DTD/svg11.dtd">
<svg width="109" height="180"
     xmlns="http://www.w3.org/2000/svg" version="1.1">
 <path d="  M 107,92  L 106,92  L 106,91  L 105,91  L 105,90  L 99,90  L 99,91  L 91,91  L 91,92  L 78,92  L 78,93  L 58,93  L 58,94  L 45,94  L 45,95  L 44,95  L 44,94  L 43,94  L 43,95  L 40,95  L 40,94  L 39,94  L 39,95  L 36,95  L 36,96  L 29,96  L 29,97  L 22,97  L 22,98  L 21,98  L 21,97  L 20,97  L 20,98  L 11,98  L 11,99  L 3,99  L 3,100  L 1,100  L 1,103  L 0,103  L 0,104  L 1,104  L 1,105  L 2,105  L 2,106  L 6,106  L 6,107  L 7,107  L 7,106  L 10,106  L 10,105  L 11,105  L 11,106  L 12,106  L 12,105  L 15,105  L 15,106  L 16,106  L 16,105  L 22,105  L 22,104  L 32,104  L 32,103  L 47,103  L 47,102  L 49,102  L 49,103  L 51,103  L 51,102  L 54,102  L 54,103  L 55,103  L 55,102  L 58,102  L 58,103  L 59,103  L 59,102  L 66,102  L 66,101  L 67,101  L 67,102  L 68,102  L 68,101  L 82,101  L 82,100  L 83,100  L 83,101  L 84,101  L 84,100  L 85,100  L 85,101  L 86,101  L 86,100  L 103,100  L 103,99  L 104,99  L 104,98  L 105,98  L 105,97  L 106,97  L 106,96  L 107,96  Z  " style="fill:rgb(0, 0, 0); fill-opacity:1.000; stroke:none;" />
 <path d="  M 67,30  L 66,30  L 66,29  L 65,29  L 65,30  L 64,30  L 64,29  L 55,29  L 55,28  L 54,28  L 54,27  L 53,27  L 53,24  L 52,24  L 52,21  L 51,21  L 51,16  L 50,16  L 50,2  L 49,2  L 49,0  L 45,0  L 45,1  L 44,1  L 44,6  L 43,6  L 43,7  L 44,7  L 44,10  L 43,10  L 43,11  L 44,11  L 44,12  L 43,12  L 43,13  L 44,13  L 44,14  L 43,14  L 43,15  L 44,15  L 44,20  L 45,20  L 45,24  L 46,24  L 46,27  L 47,27  L 47,28  L 48,28  L 48,30  L 44,30  L 44,31  L 43,31  L 43,30  L 41,30  L 41,31  L 36,31  L 36,32  L 28,32  L 28,33  L 21,33  L 21,34  L 19,34  L 19,35  L 17,35  L 17,37  L 16,37  L 16,38  L 17,38  L 17,40  L 19,40  L 19,41  L 20,41  L 20,40  L 27,40  L 27,39  L 41,39  L 41,38  L 47,38  L 47,37  L 50,37  L 50,36  L 59,36  L 59,37  L 61,37  L 61,39  L 60,39  L 60,41  L 59,41  L 59,42  L 58,42  L 58,43  L 57,43  L 57,44  L 56,44  L 56,45  L 55,45  L 55,47  L 54,47  L 54,48  L 53,48  L 53,49  L 52,49  L 52,50  L 51,50  L 51,52  L 50,52  L 50,53  L 49,53  L 49,55  L 48,55  L 48,56  L 47,56  L 47,58  L 46,58  L 46,59  L 45,59  L 45,60  L 44,60  L 44,61  L 43,61  L 43,62  L 42,62  L 42,63  L 41,63  L 41,64  L 40,64  L 40,65  L 39,65  L 39,66  L 38,66  L 38,67  L 36,67  L 36,68  L 34,68  L 34,70  L 33,70  L 33,71  L 31,71  L 31,72  L 30,72  L 30,73  L 29,73  L 29,74  L 27,74  L 27,75  L 25,75  L 25,76  L 24,76  L 24,77  L 23,77  L 23,79  L 22,79  L 22,80  L 21,80  L 21,84  L 20,84  L 20,85  L 22,85  L 22,86  L 25,86  L 25,85  L 26,85  L 26,84  L 27,84  L 27,83  L 28,83  L 28,82  L 29,82  L 29,81  L 31,81  L 31,80  L 32,80  L 32,79  L 34,79  L 34,77  L 36,77  L 36,76  L 38,76  L 38,75  L 39,75  L 39,74  L 40,74  L 40,73  L 41,73  L 41,72  L 42,72  L 42,71  L 43,71  L 43,70  L 44,70  L 44,69  L 45,69  L 45,68  L 47,68  L 47,66  L 48,66  L 48,65  L 49,65  L 49,64  L 50,64  L 50,63  L 51,63  L 51,62  L 52,62  L 52,61  L 53,61  L 53,60  L 55,60  L 55,59  L 56,59  L 56,58  L 59,58  L 59,57  L 60,57  L 60,58  L 63,58  L 63,59  L 64,59  L 64,60  L 65,60  L 65,61  L 66,61  L 66,62  L 68,62  L 68,63  L 69,63  L 69,64  L 70,64  L 70,65  L 72,65  L 72,67  L 73,67  L 73,68  L 74,68  L 74,69  L 76,69  L 76,70  L 77,70  L 77,71  L 79,71  L 79,72  L 80,72  L 80,73  L 82,73  L 82,74  L 84,74  L 84,75  L 87,75  L 87,76  L 91,76  L 91,70  L 89,70  L 89,69  L 87,69  L 87,68  L 86,68  L 86,67  L 85,67  L 85,66  L 84,66  L 84,65  L 83,65  L 83,64  L 82,64  L 82,63  L 81,63  L 81,62  L 80,62  L 80,61  L 78,61  L 78,60  L 77,60  L 77,59  L 76,59  L 76,58  L 75,58  L 75,57  L 74,57  L 74,56  L 72,56  L 72,55  L 71,55  L 71,54  L 70,54  L 70,53  L 69,53  L 69,52  L 68,52  L 68,51  L 66,51  L 66,50  L 65,50  L 65,48  L 66,48  L 66,46  L 67,46  L 67,44  L 68,44  L 68,42  L 69,42  L 69,38  L 70,38  L 70,34  L 69,34  L 69,32  L 68,32  L 68,31  L 67,31  Z  " style="fill:rgb(0, 0, 0); fill-opacity:1.000; stroke:none;" />
 <path d="  M 56,124  L 55,124  L 55,125  L 54,125  L 54,128  L 53,128  L 53,129  L 52,129  L 52,130  L 51,130  L 51,132  L 50,132  L 50,133  L 49,133  L 49,134  L 48,134  L 48,136  L 47,136  L 47,137  L 46,137  L 46,138  L 45,138  L 45,139  L 44,139  L 44,140  L 43,140  L 43,141  L 42,141  L 42,142  L 40,142  L 40,144  L 39,144  L 39,145  L 38,145  L 38,147  L 37,147  L 37,148  L 36,148  L 36,150  L 34,150  L 34,152  L 33,152  L 33,153  L 32,153  L 32,155  L 31,155  L 31,156  L 30,156  L 30,157  L 29,157  L 29,160  L 28,160  L 28,161  L 27,161  L 27,162  L 26,162  L 26,164  L 25,164  L 25,165  L 24,165  L 24,166  L 23,166  L 23,167  L 22,167  L 22,168  L 21,168  L 21,169  L 19,169  L 19,170  L 18,170  L 18,171  L 17,171  L 17,174  L 16,174  L 16,179  L 17,179  L 17,180  L 23,180  L 23,179  L 24,179  L 24,178  L 25,178  L 25,177  L 26,177  L 26,175  L 28,175  L 28,173  L 29,173  L 29,172  L 30,172  L 30,171  L 31,171  L 31,170  L 32,170  L 32,169  L 33,169  L 33,168  L 34,168  L 34,166  L 35,166  L 35,165  L 36,165  L 36,164  L 37,164  L 37,163  L 38,163  L 38,161  L 40,161  L 40,159  L 41,159  L 41,158  L 42,158  L 42,157  L 43,157  L 43,156  L 44,156  L 44,154  L 45,154  L 45,153  L 46,153  L 46,152  L 47,152  L 47,151  L 48,151  L 48,149  L 50,149  L 50,148  L 53,148  L 53,149  L 54,149  L 54,150  L 55,150  L 55,151  L 58,151  L 58,152  L 59,152  L 59,153  L 61,153  L 61,154  L 63,154  L 63,155  L 65,155  L 65,156  L 66,156  L 66,157  L 69,157  L 69,158  L 70,158  L 70,159  L 72,159  L 72,160  L 73,160  L 73,161  L 75,161  L 75,162  L 77,162  L 77,163  L 79,163  L 79,164  L 81,164  L 81,165  L 84,165  L 84,166  L 87,166  L 87,167  L 90,167  L 90,168  L 91,168  L 91,170  L 92,170  L 92,177  L 93,177  L 93,178  L 94,178  L 94,179  L 97,179  L 97,178  L 101,178  L 101,177  L 102,177  L 102,176  L 103,176  L 103,175  L 105,175  L 105,174  L 106,174  L 106,173  L 108,173  L 108,172  L 109,172  L 109,169  L 108,169  L 108,168  L 107,168  L 107,167  L 105,167  L 105,168  L 104,168  L 104,167  L 100,167  L 100,166  L 99,166  L 99,165  L 97,165  L 97,164  L 95,164  L 95,163  L 93,163  L 93,162  L 92,162  L 92,161  L 90,161  L 90,160  L 88,160  L 88,159  L 85,159  L 85,158  L 84,158  L 84,157  L 82,157  L 82,156  L 79,156  L 79,155  L 78,155  L 78,154  L 76,154  L 76,153  L 74,153  L 74,152  L 72,152  L 72,150  L 70,150  L 70,149  L 68,149  L 68,148  L 66,148  L 66,147  L 64,147  L 64,146  L 63,146  L 63,145  L 61,145  L 61,144  L 59,144  L 59,143  L 58,143  L 58,141  L 57,141  L 57,136  L 58,136  L 58,135  L 59,135  L 59,134  L 60,134  L 60,133  L 61,133  L 61,132  L 62,132  L 62,131  L 63,131  L 63,129  L 64,129  L 64,127  L 65,127  L 65,126  L 66,126  L 66,125  L 68,125  L 68,124  L 69,124  L 69,123  L 70,123  L 70,121  L 71,121  L 71,120  L 72,120  L 72,118  L 73,118  L 73,116  L 72,116  L 72,115  L 71,115  L 71,116  L 66,116  L 66,117  L 65,117  L 65,119  L 64,119  L 64,120  L 62,120  L 62,121  L 59,121  L 59,122  L 58,122  L 58,124  L 57,124  L 57,123  L 56,123  Z  " style="fill:rgb(0, 0, 0); fill-opacity:1.000; stroke:none;" />
</svg>
