<?xml version="1.0" encoding="UTF-8" standalone="no"?>
<!DOCTYPE svg PUBLIC "-//W3C//DTD SVG 1.1//EN" 
  "http://www.w3.org/Graphics/SVG/1.1/DTD/svg11.dtd">
<svg width="103" height="183"
     xmlns="http://www.w3.org/2000/svg" version="1.1">
 <path d="  M 49,63  L 49,62  L 47,62  L 47,61  L 46,61  L 46,60  L 45,60  L 45,59  L 43,59  L 43,58  L 42,58  L 42,56  L 43,56  L 43,55  L 44,55  L 44,54  L 45,54  L 45,52  L 46,52  L 46,51  L 47,51  L 47,50  L 48,50  L 48,49  L 49,49  L 49,48  L 50,48  L 50,47  L 52,47  L 52,46  L 53,46  L 53,44  L 54,44  L 54,43  L 55,43  L 55,42  L 56,42  L 56,40  L 57,40  L 57,37  L 58,37  L 58,36  L 57,36  L 57,33  L 56,33  L 56,30  L 55,30  L 55,29  L 54,29  L 54,28  L 52,28  L 52,27  L 43,27  L 43,28  L 41,28  L 41,27  L 39,27  L 39,26  L 38,26  L 38,21  L 37,21  L 37,17  L 36,17  L 36,12  L 35,12  L 35,3  L 34,3  L 34,2  L 33,2  L 33,1  L 29,1  L 29,2  L 28,2  L 28,4  L 27,4  L 27,5  L 28,5  L 28,6  L 27,6  L 27,7  L 28,7  L 28,15  L 29,15  L 29,18  L 30,18  L 30,21  L 31,21  L 31,24  L 32,24  L 32,27  L 33,27  L 33,28  L 34,28  L 34,29  L 33,29  L 33,30  L 32,30  L 32,31  L 28,31  L 28,32  L 23,32  L 23,33  L 18,33  L 18,34  L 17,34  L 17,33  L 16,33  L 16,34  L 12,34  L 12,35  L 10,35  L 10,36  L 7,36  L 7,37  L 3,37  L 3,38  L 2,38  L 2,37  L 1,37  L 1,38  L 0,38  L 0,39  L 1,39  L 1,40  L 0,40  L 0,41  L 1,41  L 1,42  L 2,42  L 2,44  L 6,44  L 6,43  L 8,43  L 8,42  L 11,42  L 11,41  L 12,41  L 12,40  L 17,40  L 17,39  L 24,39  L 24,38  L 33,38  L 33,37  L 34,37  L 34,38  L 35,38  L 35,37  L 39,37  L 39,36  L 44,36  L 44,35  L 50,35  L 50,36  L 49,36  L 49,38  L 48,38  L 48,40  L 47,40  L 47,41  L 46,41  L 46,43  L 44,43  L 44,44  L 43,44  L 43,45  L 42,45  L 42,46  L 41,46  L 41,47  L 40,47  L 40,48  L 39,48  L 39,49  L 38,49  L 38,50  L 37,50  L 37,52  L 36,52  L 36,53  L 35,53  L 35,54  L 34,54  L 34,55  L 33,55  L 33,57  L 32,57  L 32,58  L 31,58  L 31,59  L 30,59  L 30,60  L 29,60  L 29,62  L 28,62  L 28,63  L 27,63  L 27,64  L 26,64  L 26,66  L 25,66  L 25,67  L 24,67  L 24,68  L 23,68  L 23,69  L 22,69  L 22,70  L 21,70  L 21,71  L 20,71  L 20,72  L 19,72  L 19,73  L 18,73  L 18,74  L 16,74  L 16,75  L 15,75  L 15,76  L 13,76  L 13,77  L 12,77  L 12,78  L 11,78  L 11,79  L 9,79  L 9,80  L 8,80  L 8,81  L 7,81  L 7,82  L 6,82  L 6,83  L 5,83  L 5,84  L 3,84  L 3,87  L 4,87  L 4,88  L 5,88  L 5,89  L 10,89  L 10,88  L 12,88  L 12,87  L 13,87  L 13,86  L 14,86  L 14,85  L 16,85  L 16,83  L 17,83  L 17,82  L 19,82  L 19,81  L 20,81  L 20,80  L 21,80  L 21,79  L 22,79  L 22,78  L 23,78  L 23,77  L 24,77  L 24,76  L 25,76  L 25,75  L 27,75  L 27,73  L 29,73  L 29,71  L 31,71  L 31,69  L 32,69  L 32,68  L 33,68  L 33,67  L 34,67  L 34,66  L 35,66  L 35,65  L 37,65  L 37,64  L 38,64  L 38,65  L 39,65  L 39,66  L 42,66  L 42,67  L 43,67  L 43,68  L 44,68  L 44,69  L 46,69  L 46,70  L 48,70  L 48,71  L 49,71  L 49,72  L 51,72  L 51,73  L 52,73  L 52,74  L 53,74  L 53,75  L 54,75  L 54,76  L 55,76  L 55,77  L 56,77  L 56,78  L 57,78  L 57,80  L 58,80  L 58,81  L 59,81  L 59,82  L 60,82  L 60,83  L 61,83  L 61,84  L 62,84  L 62,85  L 65,85  L 65,86  L 67,86  L 67,85  L 68,85  L 68,84  L 69,84  L 69,83  L 70,83  L 70,80  L 69,80  L 69,79  L 68,79  L 68,78  L 66,78  L 66,77  L 65,77  L 65,76  L 64,76  L 64,75  L 63,75  L 63,74  L 62,74  L 62,73  L 61,73  L 61,72  L 60,72  L 60,71  L 59,71  L 59,70  L 57,70  L 57,69  L 56,69  L 56,68  L 55,68  L 55,67  L 54,67  L 54,66  L 53,66  L 53,65  L 52,65  L 52,64  L 50,64  L 50,63  Z  " style="fill:rgb(0, 0, 0); fill-opacity:1.000; stroke:none;" />
 <path d="  M 87,131  L 88,131  L 88,132  L 87,132  L 87,133  L 88,133  L 88,134  L 87,134  L 87,139  L 86,139  L 86,145  L 85,145  L 85,154  L 84,154  L 84,159  L 83,159  L 83,164  L 82,164  L 82,168  L 81,168  L 81,171  L 80,171  L 80,177  L 79,177  L 79,181  L 80,181  L 80,183  L 86,183  L 86,181  L 87,181  L 87,179  L 88,179  L 88,175  L 89,175  L 89,171  L 90,171  L 90,167  L 91,167  L 91,163  L 92,163  L 92,162  L 91,162  L 91,161  L 92,161  L 92,155  L 93,155  L 93,141  L 94,141  L 94,139  L 95,139  L 95,138  L 94,138  L 94,137  L 95,137  L 95,129  L 94,129  L 94,125  L 93,125  L 93,124  L 92,124  L 92,122  L 91,122  L 91,121  L 90,121  L 90,120  L 88,120  L 88,119  L 87,119  L 87,118  L 84,118  L 84,117  L 81,117  L 81,116  L 78,116  L 78,115  L 69,115  L 69,114  L 68,114  L 68,115  L 65,115  L 65,114  L 64,114  L 64,115  L 61,115  L 61,114  L 60,114  L 60,115  L 54,115  L 54,116  L 48,116  L 48,117  L 47,117  L 47,116  L 46,116  L 46,117  L 43,117  L 43,118  L 38,118  L 38,119  L 36,119  L 36,120  L 35,120  L 35,122  L 34,122  L 34,123  L 35,123  L 35,124  L 34,124  L 34,125  L 35,125  L 35,126  L 36,126  L 36,125  L 37,125  L 37,126  L 41,126  L 41,125  L 44,125  L 44,124  L 48,124  L 48,123  L 53,123  L 53,122  L 54,122  L 54,123  L 56,123  L 56,122  L 74,122  L 74,123  L 75,123  L 75,122  L 76,122  L 76,123  L 80,123  L 80,124  L 82,124  L 82,125  L 83,125  L 83,126  L 85,126  L 85,127  L 86,127  L 86,129  L 87,129  Z  " style="fill:rgb(0, 0, 0); fill-opacity:1.000; stroke:none;" />
 <path d="  M 94,22  L 95,22  L 95,24  L 94,24  L 94,25  L 95,25  L 95,31  L 96,31  L 96,34  L 95,34  L 95,35  L 96,35  L 96,49  L 97,49  L 97,104  L 98,104  L 98,105  L 99,105  L 99,106  L 101,106  L 101,105  L 103,105  L 103,26  L 102,26  L 102,23  L 103,23  L 103,22  L 102,22  L 102,18  L 101,18  L 101,17  L 102,17  L 102,16  L 101,16  L 101,15  L 102,15  L 102,14  L 101,14  L 101,9  L 100,9  L 100,8  L 101,8  L 101,7  L 100,7  L 100,3  L 99,3  L 99,2  L 98,2  L 98,1  L 95,1  L 95,0  L 93,0  L 93,1  L 92,1  L 92,7  L 93,7  L 93,13  L 94,13  Z  " style="fill:rgb(0, 0, 0); fill-opacity:1.000; stroke:none;" />
</svg>
