<?xml version="1.0" encoding="UTF-8" standalone="no"?>
<!DOCTYPE svg PUBLIC "-//W3C//DTD SVG 1.1//EN" 
  "http://www.w3.org/Graphics/SVG/1.1/DTD/svg11.dtd">
<svg width="108" height="157"
     xmlns="http://www.w3.org/2000/svg" version="1.1">
 <path d="  M 1,38  L 1,39  L 2,39  L 2,40  L 3,40  L 3,41  L 6,41  L 6,40  L 7,40  L 7,41  L 8,41  L 8,40  L 9,40  L 9,39  L 13,39  L 13,38  L 16,38  L 16,37  L 17,37  L 17,38  L 18,38  L 18,37  L 24,37  L 24,36  L 34,36  L 34,35  L 41,35  L 41,34  L 44,34  L 44,33  L 46,33  L 46,34  L 47,34  L 47,35  L 46,35  L 46,37  L 45,37  L 45,38  L 44,38  L 44,39  L 43,39  L 43,40  L 41,40  L 41,42  L 40,42  L 40,43  L 39,43  L 39,44  L 38,44  L 38,45  L 37,45  L 37,46  L 36,46  L 36,47  L 35,47  L 35,48  L 34,48  L 34,49  L 33,49  L 33,50  L 32,50  L 32,51  L 31,51  L 31,52  L 30,52  L 30,54  L 29,54  L 29,55  L 28,55  L 28,57  L 27,57  L 27,58  L 26,58  L 26,59  L 25,59  L 25,60  L 24,60  L 24,62  L 23,62  L 23,63  L 22,63  L 22,65  L 21,65  L 21,66  L 20,66  L 20,67  L 18,67  L 18,69  L 16,69  L 16,70  L 14,70  L 14,71  L 13,71  L 13,72  L 12,72  L 12,73  L 11,73  L 11,74  L 9,74  L 9,75  L 8,75  L 8,76  L 6,76  L 6,78  L 4,78  L 4,79  L 3,79  L 3,80  L 2,80  L 2,84  L 3,84  L 3,86  L 4,86  L 4,87  L 7,87  L 7,86  L 8,86  L 8,85  L 9,85  L 9,84  L 10,84  L 10,83  L 11,83  L 11,82  L 12,82  L 12,81  L 13,81  L 13,80  L 14,80  L 14,79  L 15,79  L 15,78  L 16,78  L 16,77  L 17,77  L 17,76  L 18,76  L 18,75  L 20,75  L 20,74  L 21,74  L 21,73  L 22,73  L 22,72  L 23,72  L 23,71  L 24,71  L 24,70  L 25,70  L 25,69  L 26,69  L 26,68  L 27,68  L 27,67  L 28,67  L 28,66  L 29,66  L 29,65  L 30,65  L 30,64  L 31,64  L 31,63  L 32,63  L 32,60  L 33,60  L 33,59  L 36,59  L 36,60  L 37,60  L 37,61  L 38,61  L 38,62  L 39,62  L 39,63  L 42,63  L 42,64  L 43,64  L 43,65  L 44,65  L 44,66  L 46,66  L 46,67  L 49,67  L 49,69  L 51,69  L 51,70  L 53,70  L 53,71  L 54,71  L 54,72  L 55,72  L 55,73  L 56,73  L 56,74  L 58,74  L 58,75  L 59,75  L 59,76  L 61,76  L 61,77  L 62,77  L 62,78  L 65,78  L 65,79  L 66,79  L 66,78  L 68,78  L 68,74  L 67,74  L 67,72  L 65,72  L 65,71  L 64,71  L 64,70  L 62,70  L 62,69  L 61,69  L 61,68  L 59,68  L 59,67  L 58,67  L 58,66  L 56,66  L 56,64  L 54,64  L 54,63  L 52,63  L 52,62  L 51,62  L 51,61  L 50,61  L 50,60  L 48,60  L 48,59  L 46,59  L 46,58  L 45,58  L 45,57  L 44,57  L 44,56  L 43,56  L 43,55  L 42,55  L 42,54  L 40,54  L 40,53  L 41,53  L 41,51  L 42,51  L 42,50  L 43,50  L 43,49  L 44,49  L 44,48  L 45,48  L 45,47  L 47,47  L 47,46  L 48,46  L 48,45  L 49,45  L 49,44  L 50,44  L 50,42  L 51,42  L 51,41  L 52,41  L 52,40  L 53,40  L 53,38  L 54,38  L 54,37  L 55,37  L 55,34  L 54,34  L 54,31  L 53,31  L 53,30  L 52,30  L 52,29  L 51,29  L 51,28  L 50,28  L 50,27  L 49,27  L 49,26  L 43,26  L 43,27  L 39,27  L 39,28  L 35,28  L 35,29  L 32,29  L 32,30  L 23,30  L 23,31  L 22,31  L 22,30  L 21,30  L 21,31  L 17,31  L 17,32  L 13,32  L 13,33  L 8,33  L 8,34  L 1,34  L 1,35  L 0,35  L 0,38  Z  " style="fill:rgb(0, 0, 0); fill-opacity:1.000; stroke:none;" />
 <path d="  M 41,142  L 42,142  L 42,140  L 43,140  L 43,139  L 44,139  L 44,137  L 45,137  L 45,136  L 46,136  L 46,134  L 47,134  L 47,132  L 48,132  L 48,130  L 49,130  L 49,129  L 50,129  L 50,127  L 51,127  L 51,125  L 52,125  L 52,124  L 55,124  L 55,125  L 56,125  L 56,126  L 58,126  L 58,127  L 60,127  L 60,128  L 61,128  L 61,129  L 63,129  L 63,130  L 65,130  L 65,131  L 66,131  L 66,132  L 68,132  L 68,133  L 70,133  L 70,134  L 71,134  L 71,135  L 73,135  L 73,136  L 74,136  L 74,137  L 75,137  L 75,138  L 77,138  L 77,139  L 78,139  L 78,140  L 80,140  L 80,141  L 82,141  L 82,142  L 84,142  L 84,143  L 86,143  L 86,144  L 87,144  L 87,145  L 89,145  L 89,146  L 90,146  L 90,147  L 92,147  L 92,148  L 93,148  L 93,149  L 95,149  L 95,150  L 97,150  L 97,151  L 98,151  L 98,152  L 100,152  L 100,153  L 103,153  L 103,154  L 107,154  L 107,153  L 108,153  L 108,149  L 107,149  L 107,148  L 106,148  L 106,147  L 105,147  L 105,146  L 103,146  L 103,145  L 102,145  L 102,144  L 100,144  L 100,143  L 98,143  L 98,142  L 97,142  L 97,141  L 95,141  L 95,140  L 93,140  L 93,139  L 91,139  L 91,138  L 90,138  L 90,137  L 88,137  L 88,136  L 86,136  L 86,135  L 84,135  L 84,134  L 82,134  L 82,132  L 80,132  L 80,131  L 79,131  L 79,130  L 77,130  L 77,129  L 76,129  L 76,128  L 74,128  L 74,127  L 72,127  L 72,126  L 70,126  L 70,125  L 68,125  L 68,124  L 67,124  L 67,123  L 66,123  L 66,122  L 64,122  L 64,121  L 63,121  L 63,120  L 61,120  L 61,119  L 60,119  L 60,118  L 59,118  L 59,116  L 58,116  L 58,111  L 59,111  L 59,110  L 60,110  L 60,109  L 61,109  L 61,106  L 62,106  L 62,103  L 63,103  L 63,101  L 62,101  L 62,100  L 60,100  L 60,99  L 59,99  L 59,100  L 58,100  L 58,101  L 56,101  L 56,102  L 55,102  L 55,105  L 54,105  L 54,106  L 53,106  L 53,108  L 52,108  L 52,109  L 51,109  L 51,112  L 50,112  L 50,113  L 49,113  L 49,115  L 48,115  L 48,116  L 47,116  L 47,119  L 46,119  L 46,121  L 45,121  L 45,122  L 44,122  L 44,124  L 43,124  L 43,127  L 42,127  L 42,128  L 41,128  L 41,129  L 40,129  L 40,130  L 39,130  L 39,132  L 38,132  L 38,135  L 37,135  L 37,136  L 36,136  L 36,137  L 35,137  L 35,139  L 34,139  L 34,140  L 33,140  L 33,141  L 32,141  L 32,142  L 31,142  L 31,144  L 30,144  L 30,145  L 29,145  L 29,146  L 28,146  L 28,147  L 27,147  L 27,148  L 26,148  L 26,149  L 25,149  L 25,150  L 24,150  L 24,152  L 23,152  L 23,157  L 29,157  L 29,156  L 30,156  L 30,155  L 31,155  L 31,154  L 32,154  L 32,153  L 33,153  L 33,152  L 34,152  L 34,150  L 35,150  L 35,149  L 36,149  L 36,148  L 37,148  L 37,147  L 38,147  L 38,146  L 39,146  L 39,144  L 40,144  L 40,143  L 41,143  Z  " style="fill:rgb(0, 0, 0); fill-opacity:1.000; stroke:none;" />
 <path d="  M 32,15  L 32,21  L 34,21  L 34,22  L 36,22  L 36,21  L 37,21  L 37,14  L 38,14  L 38,3  L 37,3  L 37,2  L 36,2  L 36,1  L 35,1  L 35,0  L 32,0  L 32,1  L 31,1  L 31,3  L 30,3  L 30,4  L 29,4  L 29,5  L 28,5  L 28,6  L 27,6  L 27,9  L 28,9  L 28,10  L 29,10  L 29,11  L 30,11  L 30,12  L 31,12  L 31,15  Z  " style="fill:rgb(0, 0, 0); fill-opacity:1.000; stroke:none;" />
 <path d="  M 95,97  L 96,97  L 96,99  L 97,99  L 97,100  L 98,100  L 98,99  L 99,99  L 99,98  L 100,98  L 100,96  L 101,96  L 101,91  L 102,91  L 102,90  L 101,90  L 101,64  L 100,64  L 100,63  L 101,63  L 101,62  L 100,62  L 100,61  L 101,61  L 101,60  L 100,60  L 100,59  L 101,59  L 101,58  L 100,58  L 100,57  L 101,57  L 101,56  L 100,56  L 100,42  L 99,42  L 99,32  L 98,32  L 98,26  L 97,26  L 97,20  L 96,20  L 96,9  L 95,9  L 95,6  L 90,6  L 90,7  L 89,7  L 89,15  L 90,15  L 90,21  L 91,21  L 91,29  L 92,29  L 92,35  L 93,35  L 93,43  L 94,43  L 94,54  L 95,54  L 95,55  L 94,55  L 94,57  L 95,57  Z  " style="fill:rgb(0, 0, 0); fill-opacity:1.000; stroke:none;" />
</svg>
