<?xml version="1.0" encoding="UTF-8" standalone="no"?>
<!DOCTYPE svg PUBLIC "-//W3C//DTD SVG 1.1//EN" 
  "http://www.w3.org/Graphics/SVG/1.1/DTD/svg11.dtd">
<svg width="103" height="165"
     xmlns="http://www.w3.org/2000/svg" version="1.1">
 <path d="  M 25,34  L 25,35  L 18,35  L 18,36  L 14,36  L 14,37  L 13,37  L 13,36  L 12,36  L 12,37  L 9,37  L 9,38  L 5,38  L 5,39  L 1,39  L 1,44  L 2,44  L 2,45  L 8,45  L 8,44  L 10,44  L 10,43  L 14,43  L 14,42  L 19,42  L 19,41  L 22,41  L 22,42  L 23,42  L 23,41  L 28,41  L 28,40  L 36,40  L 36,39  L 42,39  L 42,38  L 47,38  L 47,42  L 46,42  L 46,44  L 45,44  L 45,45  L 44,45  L 44,47  L 42,47  L 42,48  L 41,48  L 41,49  L 40,49  L 40,51  L 39,51  L 39,52  L 38,52  L 38,53  L 36,53  L 36,55  L 35,55  L 35,56  L 34,56  L 34,58  L 33,58  L 33,59  L 32,59  L 32,60  L 31,60  L 31,61  L 30,61  L 30,63  L 29,63  L 29,65  L 28,65  L 28,66  L 27,66  L 27,67  L 26,67  L 26,69  L 25,69  L 25,70  L 24,70  L 24,71  L 23,71  L 23,72  L 22,72  L 22,73  L 21,73  L 21,74  L 19,74  L 19,75  L 18,75  L 18,76  L 17,76  L 17,77  L 14,77  L 14,78  L 13,78  L 13,79  L 11,79  L 11,80  L 10,80  L 10,81  L 7,81  L 7,82  L 5,82  L 5,83  L 4,83  L 4,84  L 3,84  L 3,85  L 1,85  L 1,90  L 2,90  L 2,92  L 7,92  L 7,91  L 8,91  L 8,90  L 9,90  L 9,89  L 10,89  L 10,88  L 11,88  L 11,87  L 13,87  L 13,86  L 14,86  L 14,85  L 16,85  L 16,84  L 17,84  L 17,83  L 19,83  L 19,82  L 20,82  L 20,81  L 22,81  L 22,80  L 23,80  L 23,79  L 24,79  L 24,78  L 26,78  L 26,76  L 27,76  L 27,75  L 28,75  L 28,74  L 30,74  L 30,73  L 31,73  L 31,72  L 32,72  L 32,70  L 33,70  L 33,69  L 34,69  L 34,68  L 35,68  L 35,67  L 36,67  L 36,68  L 38,68  L 38,69  L 39,69  L 39,70  L 40,70  L 40,71  L 41,71  L 41,72  L 42,72  L 42,73  L 43,73  L 43,74  L 44,74  L 44,75  L 46,75  L 46,77  L 47,77  L 47,78  L 48,78  L 48,79  L 49,79  L 49,80  L 50,80  L 50,81  L 52,81  L 52,82  L 53,82  L 53,83  L 54,83  L 54,84  L 55,84  L 55,85  L 57,85  L 57,86  L 58,86  L 58,88  L 59,88  L 59,89  L 60,89  L 60,91  L 62,91  L 62,92  L 63,92  L 63,91  L 65,91  L 65,90  L 66,90  L 66,89  L 67,89  L 67,85  L 66,85  L 66,84  L 65,84  L 65,83  L 64,83  L 64,82  L 63,82  L 63,81  L 62,81  L 62,80  L 61,80  L 61,79  L 60,79  L 60,78  L 58,78  L 58,77  L 57,77  L 57,76  L 56,76  L 56,75  L 55,75  L 55,74  L 54,74  L 54,73  L 53,73  L 53,72  L 52,72  L 52,71  L 51,71  L 51,70  L 50,70  L 50,69  L 48,69  L 48,68  L 47,68  L 47,67  L 46,67  L 46,66  L 45,66  L 45,65  L 44,65  L 44,64  L 43,64  L 43,63  L 42,63  L 42,61  L 41,61  L 41,59  L 42,59  L 42,58  L 44,58  L 44,56  L 45,56  L 45,55  L 47,55  L 47,54  L 48,54  L 48,53  L 49,53  L 49,51  L 50,51  L 50,50  L 51,50  L 51,49  L 52,49  L 52,47  L 53,47  L 53,46  L 54,46  L 54,45  L 53,45  L 53,44  L 54,44  L 54,42  L 55,42  L 55,38  L 54,38  L 54,36  L 53,36  L 53,34  L 52,34  L 52,32  L 51,32  L 51,31  L 48,31  L 48,30  L 45,30  L 45,31  L 44,31  L 44,30  L 43,30  L 43,31  L 40,31  L 40,32  L 36,32  L 36,33  L 31,33  L 31,34  L 28,34  L 28,33  L 27,33  L 27,34  Z  " style="fill:rgb(0, 0, 0); fill-opacity:1.000; stroke:none;" />
 <path d="  M 27,14  L 28,14  L 28,15  L 29,15  L 29,18  L 30,18  L 30,19  L 31,19  L 31,22  L 32,22  L 32,24  L 33,24  L 33,25  L 34,25  L 34,26  L 36,26  L 36,23  L 37,23  L 37,20  L 36,20  L 36,16  L 35,16  L 35,10  L 34,10  L 34,5  L 33,5  L 33,4  L 32,4  L 32,3  L 29,3  L 29,4  L 28,4  L 28,5  L 27,5  Z  " style="fill:rgb(0, 0, 0); fill-opacity:1.000; stroke:none;" />
 <path d="  M 51,158  L 50,158  L 50,157  L 47,157  L 47,156  L 44,156  L 44,155  L 41,155  L 41,154  L 40,154  L 40,153  L 39,153  L 39,140  L 40,140  L 40,137  L 41,137  L 41,135  L 42,135  L 42,132  L 43,132  L 43,131  L 44,131  L 44,129  L 45,129  L 45,128  L 46,128  L 46,126  L 47,126  L 47,124  L 48,124  L 48,123  L 50,123  L 50,122  L 51,122  L 51,121  L 52,121  L 52,120  L 54,120  L 54,119  L 56,119  L 56,118  L 60,118  L 60,117  L 61,117  L 61,118  L 63,118  L 63,117  L 65,117  L 65,118  L 67,118  L 67,117  L 70,117  L 70,118  L 72,118  L 72,117  L 73,117  L 73,118  L 80,118  L 80,119  L 81,119  L 81,118  L 84,118  L 84,119  L 88,119  L 88,120  L 90,120  L 90,121  L 92,121  L 92,122  L 94,122  L 94,124  L 95,124  L 95,130  L 96,130  L 96,137  L 95,137  L 95,142  L 94,142  L 94,144  L 93,144  L 93,146  L 92,146  L 92,148  L 90,148  L 90,150  L 88,150  L 88,151  L 86,151  L 86,152  L 85,152  L 85,153  L 83,153  L 83,154  L 81,154  L 81,155  L 78,155  L 78,156  L 76,156  L 76,157  L 74,157  L 74,158  L 69,158  L 69,159  L 56,159  L 56,158  L 52,158  L 52,157  L 51,157  Z  M 64,110  L 64,109  L 61,109  L 61,110  L 60,110  L 60,109  L 59,109  L 59,110  L 56,110  L 56,109  L 55,109  L 55,110  L 53,110  L 53,111  L 50,111  L 50,112  L 49,112  L 49,113  L 47,113  L 47,114  L 46,114  L 46,115  L 45,115  L 45,116  L 44,116  L 44,117  L 43,117  L 43,118  L 42,118  L 42,119  L 41,119  L 41,120  L 40,120  L 40,121  L 39,121  L 39,123  L 38,123  L 38,124  L 37,124  L 37,126  L 36,126  L 36,129  L 35,129  L 35,131  L 34,131  L 34,133  L 33,133  L 33,136  L 32,136  L 32,140  L 31,140  L 31,152  L 32,152  L 32,157  L 33,157  L 33,158  L 34,158  L 34,159  L 35,159  L 35,160  L 37,160  L 37,161  L 41,161  L 41,162  L 44,162  L 44,163  L 46,163  L 46,164  L 51,164  L 51,165  L 73,165  L 73,164  L 76,164  L 76,163  L 79,163  L 79,162  L 82,162  L 82,161  L 84,161  L 84,160  L 85,160  L 85,159  L 87,159  L 87,158  L 89,158  L 89,157  L 91,157  L 91,156  L 92,156  L 92,155  L 94,155  L 94,154  L 96,154  L 96,153  L 97,153  L 97,151  L 99,151  L 99,149  L 100,149  L 100,147  L 101,147  L 101,146  L 102,146  L 102,140  L 103,140  L 103,128  L 102,128  L 102,125  L 101,125  L 101,120  L 100,120  L 100,119  L 99,119  L 99,117  L 98,117  L 98,116  L 97,116  L 97,115  L 96,115  L 96,114  L 94,114  L 94,113  L 92,113  L 92,112  L 90,112  L 90,111  L 83,111  L 83,110  L 68,110  L 68,109  L 67,109  L 67,110  Z  " style="fill:rgb(0, 0, 0); fill-opacity:1.000; stroke:none;" />
 <path d="  M 101,57  L 100,57  L 100,56  L 101,56  L 101,55  L 100,55  L 100,54  L 101,54  L 101,53  L 100,53  L 100,52  L 101,52  L 101,51  L 100,51  L 100,48  L 99,48  L 99,43  L 98,43  L 98,37  L 97,37  L 97,31  L 96,31  L 96,29  L 95,29  L 95,25  L 94,25  L 94,20  L 93,20  L 93,13  L 92,13  L 92,4  L 91,4  L 91,2  L 90,2  L 90,1  L 89,1  L 89,0  L 85,0  L 85,1  L 84,1  L 84,8  L 85,8  L 85,12  L 86,12  L 86,18  L 87,18  L 87,24  L 88,24  L 88,28  L 89,28  L 89,32  L 90,32  L 90,38  L 91,38  L 91,43  L 92,43  L 92,48  L 93,48  L 93,56  L 94,56  L 94,66  L 95,66  L 95,83  L 96,83  L 96,97  L 97,97  L 97,104  L 98,104  L 98,105  L 103,105  L 103,89  L 102,89  L 102,69  L 101,69  Z  " style="fill:rgb(0, 0, 0); fill-opacity:1.000; stroke:none;" />
</svg>
