<?xml version="1.0" encoding="UTF-8" standalone="no"?>
<!DOCTYPE svg PUBLIC "-//W3C//DTD SVG 1.1//EN" 
  "http://www.w3.org/Graphics/SVG/1.1/DTD/svg11.dtd">
<svg width="108" height="133"
     xmlns="http://www.w3.org/2000/svg" version="1.1">
 <path d="  M 1,38  L 1,39  L 2,39  L 2,40  L 7,40  L 7,39  L 9,39  L 9,38  L 17,38  L 17,37  L 18,37  L 18,38  L 19,38  L 19,37  L 34,37  L 34,41  L 33,41  L 33,44  L 32,44  L 32,47  L 31,47  L 31,50  L 30,50  L 30,51  L 29,51  L 29,53  L 27,53  L 27,56  L 26,56  L 26,58  L 25,58  L 25,60  L 24,60  L 24,62  L 23,62  L 23,66  L 25,66  L 25,67  L 27,67  L 27,66  L 28,66  L 28,65  L 29,65  L 29,64  L 30,64  L 30,62  L 31,62  L 31,61  L 32,61  L 32,60  L 33,60  L 33,58  L 34,58  L 34,57  L 35,57  L 35,55  L 36,55  L 36,53  L 37,53  L 37,51  L 38,51  L 38,49  L 39,49  L 39,47  L 40,47  L 40,44  L 41,44  L 41,40  L 42,40  L 42,38  L 43,38  L 43,35  L 44,35  L 44,33  L 45,33  L 45,30  L 46,30  L 46,29  L 47,29  L 47,27  L 48,27  L 48,24  L 49,24  L 49,20  L 50,20  L 50,18  L 51,18  L 51,13  L 52,13  L 52,8  L 51,8  L 51,7  L 50,7  L 50,6  L 49,6  L 49,5  L 48,5  L 48,4  L 47,4  L 47,3  L 45,3  L 45,2  L 44,2  L 44,1  L 43,1  L 43,0  L 42,0  L 42,1  L 41,1  L 41,0  L 40,0  L 40,1  L 24,1  L 24,2  L 23,2  L 23,1  L 21,1  L 21,2  L 13,2  L 13,3  L 12,3  L 12,2  L 11,2  L 11,3  L 8,3  L 8,4  L 5,4  L 5,9  L 4,9  L 4,10  L 8,10  L 8,11  L 10,11  L 10,10  L 13,10  L 13,9  L 17,9  L 17,8  L 45,8  L 45,14  L 44,14  L 44,18  L 43,18  L 43,21  L 42,21  L 42,23  L 41,23  L 41,25  L 40,25  L 40,27  L 39,27  L 39,28  L 38,28  L 38,29  L 33,29  L 33,30  L 22,30  L 22,31  L 19,31  L 19,30  L 18,30  L 18,31  L 10,31  L 10,32  L 5,32  L 5,33  L 2,33  L 2,34  L 1,34  L 1,35  L 0,35  L 0,38  Z  " style="fill:rgb(0, 0, 0); fill-opacity:1.000; stroke:none;" />
 <path d="  M 35,115  L 34,115  L 34,113  L 35,113  L 35,104  L 36,104  L 36,86  L 35,86  L 35,84  L 33,84  L 33,83  L 32,83  L 32,84  L 30,84  L 30,86  L 29,86  L 29,97  L 28,97  L 28,98  L 29,98  L 29,101  L 28,101  L 28,109  L 27,109  L 27,121  L 28,121  L 28,125  L 29,125  L 29,127  L 30,127  L 30,128  L 31,128  L 31,130  L 32,130  L 32,131  L 33,131  L 33,132  L 35,132  L 35,133  L 79,133  L 79,132  L 80,132  L 80,133  L 81,133  L 81,132  L 94,132  L 94,131  L 106,131  L 106,130  L 107,130  L 107,129  L 108,129  L 108,123  L 107,123  L 107,122  L 106,122  L 106,123  L 100,123  L 100,124  L 99,124  L 99,123  L 98,123  L 98,124  L 92,124  L 92,125  L 69,125  L 69,126  L 67,126  L 67,125  L 65,125  L 65,126  L 38,126  L 38,125  L 36,125  L 36,122  L 35,122  Z  " style="fill:rgb(0, 0, 0); fill-opacity:1.000; stroke:none;" />
 <path d="  M 65,46  L 66,46  L 66,47  L 65,47  L 65,48  L 66,48  L 66,51  L 65,51  L 65,52  L 66,52  L 66,55  L 65,55  L 65,56  L 66,56  L 66,77  L 70,77  L 70,76  L 72,76  L 72,72  L 73,72  L 73,71  L 72,71  L 72,69  L 73,69  L 73,67  L 72,67  L 72,65  L 73,65  L 73,63  L 72,63  L 72,62  L 73,62  L 73,59  L 72,59  L 72,58  L 73,58  L 73,55  L 72,55  L 72,54  L 73,54  L 73,51  L 72,51  L 72,50  L 73,50  L 73,47  L 72,47  L 72,46  L 73,46  L 73,44  L 72,44  L 72,39  L 73,39  L 73,38  L 77,38  L 77,37  L 90,37  L 90,43  L 89,43  L 89,44  L 90,44  L 90,47  L 89,47  L 89,48  L 90,48  L 90,54  L 89,54  L 89,56  L 90,56  L 90,58  L 89,58  L 89,59  L 90,59  L 90,63  L 89,63  L 89,65  L 90,65  L 90,66  L 89,66  L 89,73  L 90,73  L 90,75  L 92,75  L 92,74  L 95,74  L 95,73  L 96,73  L 96,72  L 97,72  L 97,71  L 96,71  L 96,70  L 97,70  L 97,67  L 96,67  L 96,66  L 97,66  L 97,31  L 96,31  L 96,30  L 95,30  L 95,27  L 94,27  L 94,17  L 93,17  L 93,13  L 92,13  L 92,12  L 93,12  L 93,11  L 92,11  L 92,4  L 90,4  L 90,3  L 89,3  L 89,2  L 86,2  L 86,3  L 85,3  L 85,12  L 86,12  L 86,13  L 85,13  L 85,14  L 86,14  L 86,20  L 87,20  L 87,22  L 88,22  L 88,25  L 89,25  L 89,28  L 90,28  L 90,29  L 88,29  L 88,30  L 87,30  L 87,29  L 86,29  L 86,30  L 74,30  L 74,31  L 72,31  L 72,27  L 71,27  L 71,12  L 70,12  L 70,3  L 69,3  L 69,1  L 66,1  L 66,2  L 65,2  L 65,3  L 64,3  L 64,4  L 63,4  L 63,9  L 62,9  L 62,10  L 63,10  L 63,17  L 64,17  L 64,26  L 65,26  Z  " style="fill:rgb(0, 0, 0); fill-opacity:1.000; stroke:none;" />
</svg>
