<?xml version="1.0" encoding="UTF-8" standalone="no"?>
<!DOCTYPE svg PUBLIC "-//W3C//DTD SVG 1.1//EN" 
  "http://www.w3.org/Graphics/SVG/1.1/DTD/svg11.dtd">
<svg width="104" height="164"
     xmlns="http://www.w3.org/2000/svg" version="1.1">
 <path d="  M 46,15  L 46,17  L 47,17  L 47,23  L 46,23  L 46,26  L 45,26  L 45,28  L 44,28  L 44,30  L 43,30  L 43,32  L 42,32  L 42,33  L 41,33  L 41,34  L 40,34  L 40,36  L 39,36  L 39,37  L 36,37  L 36,38  L 28,38  L 28,39  L 17,39  L 17,40  L 10,40  L 10,41  L 2,41  L 2,42  L 1,42  L 1,48  L 4,48  L 4,49  L 8,49  L 8,48  L 14,48  L 14,47  L 17,47  L 17,48  L 18,48  L 18,47  L 29,47  L 29,46  L 34,46  L 34,47  L 33,47  L 33,50  L 32,50  L 32,52  L 31,52  L 31,56  L 30,56  L 30,58  L 29,58  L 29,61  L 28,61  L 28,63  L 27,63  L 27,64  L 26,64  L 26,66  L 25,66  L 25,69  L 24,69  L 24,70  L 23,70  L 23,72  L 22,72  L 22,73  L 21,73  L 21,75  L 20,75  L 20,76  L 19,76  L 19,78  L 18,78  L 18,79  L 17,79  L 17,82  L 16,82  L 16,84  L 17,84  L 17,85  L 18,85  L 18,86  L 19,86  L 19,85  L 20,85  L 20,86  L 21,86  L 21,85  L 22,85  L 22,84  L 24,84  L 24,83  L 25,83  L 25,82  L 26,82  L 26,81  L 27,81  L 27,79  L 28,79  L 28,77  L 29,77  L 29,75  L 30,75  L 30,73  L 31,73  L 31,71  L 32,71  L 32,69  L 33,69  L 33,67  L 34,67  L 34,66  L 35,66  L 35,64  L 36,64  L 36,62  L 37,62  L 37,59  L 38,59  L 38,57  L 39,57  L 39,54  L 40,54  L 40,51  L 41,51  L 41,50  L 42,50  L 42,48  L 43,48  L 43,45  L 44,45  L 44,44  L 45,44  L 45,43  L 46,43  L 46,41  L 47,41  L 47,38  L 48,38  L 48,36  L 49,36  L 49,34  L 50,34  L 50,31  L 51,31  L 51,30  L 52,30  L 52,27  L 53,27  L 53,23  L 54,23  L 54,17  L 53,17  L 53,11  L 52,11  L 52,10  L 51,10  L 51,8  L 50,8  L 50,7  L 39,7  L 39,8  L 23,8  L 23,9  L 22,9  L 22,8  L 21,8  L 21,9  L 11,9  L 11,10  L 7,10  L 7,11  L 3,11  L 3,12  L 2,12  L 2,14  L 1,14  L 1,16  L 2,16  L 2,18  L 3,18  L 3,19  L 7,19  L 7,18  L 8,18  L 8,19  L 9,19  L 9,18  L 10,18  L 10,17  L 14,17  L 14,16  L 30,16  L 30,15  L 31,15  L 31,16  L 32,16  L 32,15  Z  " style="fill:rgb(0, 0, 0); fill-opacity:1.000; stroke:none;" />
 <path d="  M 46,143  L 46,142  L 47,142  L 47,140  L 48,140  L 48,139  L 50,139  L 50,138  L 52,138  L 52,137  L 54,137  L 54,136  L 56,136  L 56,135  L 58,135  L 58,134  L 60,134  L 60,133  L 63,133  L 63,132  L 66,132  L 66,131  L 69,131  L 69,130  L 71,130  L 71,129  L 73,129  L 73,128  L 76,128  L 76,127  L 78,127  L 78,126  L 80,126  L 80,125  L 82,125  L 82,124  L 84,124  L 84,123  L 85,123  L 85,122  L 87,122  L 87,119  L 88,119  L 88,114  L 87,114  L 87,112  L 86,112  L 86,109  L 85,109  L 85,108  L 84,108  L 84,107  L 83,107  L 83,105  L 81,105  L 81,104  L 80,104  L 80,103  L 78,103  L 78,102  L 74,102  L 74,101  L 72,101  L 72,100  L 60,100  L 60,99  L 59,99  L 59,100  L 46,100  L 46,101  L 43,101  L 43,102  L 41,102  L 41,104  L 40,104  L 40,105  L 39,105  L 39,106  L 40,106  L 40,107  L 41,107  L 41,108  L 47,108  L 47,107  L 55,107  L 55,106  L 56,106  L 56,107  L 57,107  L 57,106  L 68,106  L 68,107  L 71,107  L 71,108  L 73,108  L 73,109  L 75,109  L 75,110  L 77,110  L 77,112  L 78,112  L 78,113  L 79,113  L 79,114  L 80,114  L 80,117  L 79,117  L 79,118  L 78,118  L 78,119  L 76,119  L 76,120  L 74,120  L 74,121  L 71,121  L 71,122  L 68,122  L 68,123  L 65,123  L 65,124  L 63,124  L 63,125  L 61,125  L 61,126  L 59,126  L 59,127  L 56,127  L 56,128  L 54,128  L 54,129  L 51,129  L 51,130  L 49,130  L 49,131  L 47,131  L 47,132  L 46,132  L 46,133  L 45,133  L 45,134  L 44,134  L 44,135  L 43,135  L 43,136  L 42,136  L 42,137  L 41,137  L 41,139  L 40,139  L 40,140  L 39,140  L 39,142  L 38,142  L 38,143  L 37,143  L 37,152  L 38,152  L 38,155  L 39,155  L 39,158  L 40,158  L 40,159  L 41,159  L 41,161  L 43,161  L 43,162  L 47,162  L 47,163  L 49,163  L 49,164  L 64,164  L 64,163  L 68,163  L 68,162  L 71,162  L 71,161  L 72,161  L 72,160  L 75,160  L 75,159  L 77,159  L 77,158  L 78,158  L 78,157  L 80,157  L 80,156  L 82,156  L 82,155  L 84,155  L 84,154  L 87,154  L 87,153  L 89,153  L 89,152  L 91,152  L 91,151  L 95,151  L 95,150  L 97,150  L 97,149  L 98,149  L 98,147  L 100,147  L 100,144  L 101,144  L 101,142  L 100,142  L 100,141  L 95,141  L 95,142  L 91,142  L 91,143  L 89,143  L 89,144  L 87,144  L 87,145  L 85,145  L 85,146  L 83,146  L 83,147  L 81,147  L 81,148  L 80,148  L 80,149  L 79,149  L 79,150  L 76,150  L 76,151  L 75,151  L 75,152  L 73,152  L 73,153  L 71,153  L 71,154  L 68,154  L 68,155  L 66,155  L 66,156  L 62,156  L 62,157  L 61,157  L 61,156  L 60,156  L 60,157  L 51,157  L 51,156  L 48,156  L 48,155  L 46,155  L 46,154  L 45,154  L 45,150  L 44,150  L 44,145  L 45,145  L 45,143  Z  " style="fill:rgb(0, 0, 0); fill-opacity:1.000; stroke:none;" />
 <path d="  M 97,76  L 96,76  L 96,77  L 97,77  L 97,79  L 96,79  L 96,81  L 97,81  L 97,82  L 96,82  L 96,85  L 97,85  L 97,86  L 96,86  L 96,87  L 97,87  L 97,88  L 96,88  L 96,89  L 97,89  L 97,92  L 96,92  L 96,93  L 97,93  L 97,95  L 99,95  L 99,96  L 100,96  L 100,95  L 103,95  L 103,93  L 104,93  L 104,4  L 103,4  L 103,3  L 102,3  L 102,2  L 98,2  L 98,4  L 97,4  L 97,30  L 95,30  L 95,31  L 80,31  L 80,32  L 77,32  L 77,31  L 76,31  L 76,30  L 77,30  L 77,29  L 76,29  L 76,27  L 77,27  L 77,3  L 76,3  L 76,2  L 75,2  L 75,1  L 72,1  L 72,0  L 71,0  L 71,1  L 69,1  L 69,2  L 70,2  L 70,23  L 69,23  L 69,40  L 70,40  L 70,41  L 69,41  L 69,42  L 70,42  L 70,50  L 71,50  L 71,65  L 70,65  L 70,87  L 71,87  L 71,88  L 72,88  L 72,89  L 73,89  L 73,90  L 74,90  L 74,89  L 75,89  L 75,88  L 76,88  L 76,86  L 77,86  L 77,78  L 78,78  L 78,77  L 77,77  L 77,74  L 78,74  L 78,73  L 77,73  L 77,71  L 78,71  L 78,62  L 79,62  L 79,61  L 78,61  L 78,60  L 79,60  L 79,52  L 80,52  L 80,51  L 79,51  L 79,48  L 80,48  L 80,47  L 79,47  L 79,44  L 78,44  L 78,42  L 77,42  L 77,41  L 78,41  L 78,40  L 82,40  L 82,39  L 94,39  L 94,38  L 96,38  L 96,39  L 97,39  L 97,43  L 96,43  L 96,44  L 97,44  Z  " style="fill:rgb(0, 0, 0); fill-opacity:1.000; stroke:none;" />
</svg>
