<?xml version="1.0" encoding="UTF-8" standalone="no"?>
<!DOCTYPE svg PUBLIC "-//W3C//DTD SVG 1.1//EN" 
  "http://www.w3.org/Graphics/SVG/1.1/DTD/svg11.dtd">
<svg width="104" height="149"
     xmlns="http://www.w3.org/2000/svg" version="1.1">
 <path d="  M 29,75  L 29,74  L 30,74  L 30,73  L 31,73  L 31,72  L 32,72  L 32,71  L 33,71  L 33,69  L 34,69  L 34,67  L 35,67  L 35,65  L 36,65  L 36,63  L 37,63  L 37,62  L 38,62  L 38,58  L 39,58  L 39,55  L 40,55  L 40,52  L 41,52  L 41,50  L 42,50  L 42,46  L 43,46  L 43,44  L 44,44  L 44,42  L 45,42  L 45,39  L 46,39  L 46,38  L 47,38  L 47,35  L 48,35  L 48,32  L 49,32  L 49,28  L 50,28  L 50,26  L 51,26  L 51,22  L 52,22  L 52,16  L 53,16  L 53,14  L 52,14  L 52,11  L 51,11  L 51,9  L 50,9  L 50,7  L 49,7  L 49,6  L 48,6  L 48,5  L 46,5  L 46,4  L 35,4  L 35,5  L 32,5  L 32,4  L 31,4  L 31,5  L 19,5  L 19,6  L 12,6  L 12,7  L 4,7  L 4,8  L 3,8  L 3,9  L 2,9  L 2,11  L 1,11  L 1,12  L 2,12  L 2,13  L 3,13  L 3,14  L 12,14  L 12,13  L 15,13  L 15,12  L 17,12  L 17,13  L 18,13  L 18,12  L 28,12  L 28,11  L 38,11  L 38,10  L 39,10  L 39,11  L 41,11  L 41,10  L 43,10  L 43,11  L 45,11  L 45,12  L 46,12  L 46,14  L 47,14  L 47,16  L 46,16  L 46,20  L 45,20  L 45,24  L 44,24  L 44,27  L 43,27  L 43,29  L 42,29  L 42,30  L 41,30  L 41,32  L 40,32  L 40,33  L 38,33  L 38,34  L 34,34  L 34,35  L 33,35  L 33,34  L 32,34  L 32,35  L 29,35  L 29,36  L 19,36  L 19,37  L 10,37  L 10,38  L 5,38  L 5,39  L 2,39  L 2,40  L 1,40  L 1,42  L 0,42  L 0,44  L 1,44  L 1,45  L 3,45  L 3,46  L 5,46  L 5,45  L 10,45  L 10,44  L 14,44  L 14,43  L 24,43  L 24,42  L 25,42  L 25,43  L 26,43  L 26,42  L 32,42  L 32,41  L 35,41  L 35,47  L 34,47  L 34,49  L 33,49  L 33,53  L 32,53  L 32,56  L 31,56  L 31,59  L 30,59  L 30,61  L 29,61  L 29,63  L 28,63  L 28,64  L 27,64  L 27,66  L 26,66  L 26,67  L 25,67  L 25,70  L 24,70  L 24,72  L 25,72  L 25,73  L 24,73  L 24,74  L 25,74  L 25,75  Z  " style="fill:rgb(0, 0, 0); fill-opacity:1.000; stroke:none;" />
 <path d="  M 35,128  L 36,128  L 36,133  L 37,133  L 37,140  L 38,140  L 38,145  L 39,145  L 39,146  L 40,146  L 40,147  L 41,147  L 41,148  L 42,148  L 42,149  L 59,149  L 59,148  L 64,148  L 64,147  L 70,147  L 70,146  L 74,146  L 74,145  L 79,145  L 79,144  L 82,144  L 82,143  L 84,143  L 84,142  L 85,142  L 85,141  L 86,141  L 86,139  L 87,139  L 87,134  L 88,134  L 88,124  L 89,124  L 89,118  L 90,118  L 90,117  L 89,117  L 89,116  L 90,116  L 90,105  L 89,105  L 89,104  L 90,104  L 90,101  L 89,101  L 89,98  L 90,98  L 90,97  L 89,97  L 89,92  L 88,92  L 88,91  L 87,91  L 87,90  L 86,90  L 86,91  L 83,91  L 83,93  L 82,93  L 82,95  L 83,95  L 83,119  L 53,119  L 53,120  L 52,120  L 52,119  L 49,119  L 49,120  L 48,120  L 48,119  L 45,119  L 45,120  L 44,120  L 44,119  L 42,119  L 42,98  L 43,98  L 43,94  L 42,94  L 42,93  L 38,93  L 38,94  L 37,94  L 37,95  L 36,95  L 36,97  L 35,97  Z  M 53,143  L 53,144  L 48,144  L 48,143  L 45,143  L 45,142  L 44,142  L 44,138  L 43,138  L 43,132  L 42,132  L 42,127  L 44,127  L 44,126  L 59,126  L 59,125  L 62,125  L 62,126  L 63,126  L 63,125  L 66,125  L 66,126  L 67,126  L 67,125  L 70,125  L 70,126  L 71,126  L 71,125  L 81,125  L 81,126  L 82,126  L 82,128  L 81,128  L 81,129  L 82,129  L 82,131  L 81,131  L 81,135  L 80,135  L 80,138  L 79,138  L 79,139  L 76,139  L 76,140  L 71,140  L 71,141  L 65,141  L 65,142  L 64,142  L 64,141  L 63,141  L 63,142  L 59,142  L 59,143  Z  " style="fill:rgb(0, 0, 0); fill-opacity:1.000; stroke:none;" />
 <path d="  M 70,34  L 71,34  L 71,35  L 70,35  L 70,36  L 71,36  L 71,46  L 72,46  L 72,49  L 71,49  L 71,50  L 72,50  L 72,52  L 71,52  L 71,73  L 70,73  L 70,74  L 71,74  L 71,79  L 73,79  L 73,78  L 75,78  L 75,77  L 76,77  L 76,75  L 77,75  L 77,70  L 78,70  L 78,69  L 77,69  L 77,68  L 78,68  L 78,58  L 79,58  L 79,57  L 78,57  L 78,56  L 79,56  L 79,48  L 80,48  L 80,47  L 79,47  L 79,44  L 80,44  L 80,43  L 79,43  L 79,36  L 82,36  L 82,35  L 89,35  L 89,34  L 98,34  L 98,43  L 97,43  L 97,44  L 98,44  L 98,47  L 97,47  L 97,48  L 98,48  L 98,49  L 97,49  L 97,50  L 98,50  L 98,51  L 97,51  L 97,52  L 98,52  L 98,55  L 97,55  L 97,68  L 96,68  L 96,79  L 95,79  L 95,81  L 94,81  L 94,83  L 95,83  L 95,84  L 96,84  L 96,83  L 98,83  L 98,84  L 99,84  L 99,83  L 100,83  L 100,82  L 102,82  L 102,78  L 103,78  L 103,67  L 104,67  L 104,20  L 103,20  L 103,7  L 102,7  L 102,5  L 101,5  L 101,4  L 96,4  L 96,6  L 95,6  L 95,7  L 96,7  L 96,16  L 97,16  L 97,26  L 96,26  L 96,27  L 93,27  L 93,28  L 88,28  L 88,27  L 87,27  L 87,28  L 79,28  L 79,29  L 78,29  L 78,28  L 77,28  L 77,14  L 78,14  L 78,13  L 77,13  L 77,1  L 76,1  L 76,0  L 72,0  L 72,1  L 71,1  L 71,3  L 70,3  L 70,4  L 71,4  L 71,5  L 70,5  L 70,10  L 71,10  L 71,11  L 70,11  L 70,14  L 71,14  L 71,15  L 70,15  L 70,18  L 71,18  L 71,19  L 70,19  L 70,22  L 71,22  L 71,23  L 70,23  L 70,26  L 71,26  L 71,27  L 70,27  Z  " style="fill:rgb(0, 0, 0); fill-opacity:1.000; stroke:none;" />
</svg>
