<?xml version="1.0" encoding="UTF-8" standalone="no"?>
<!DOCTYPE svg PUBLIC "-//W3C//DTD SVG 1.1//EN" 
  "http://www.w3.org/Graphics/SVG/1.1/DTD/svg11.dtd">
<svg width="108" height="137"
     xmlns="http://www.w3.org/2000/svg" version="1.1">
 <path d="  M 1,38  L 1,43  L 3,43  L 3,44  L 5,44  L 5,43  L 11,43  L 11,42  L 16,42  L 16,41  L 24,41  L 24,40  L 32,40  L 32,39  L 33,39  L 33,40  L 34,40  L 34,39  L 35,39  L 35,41  L 34,41  L 34,42  L 35,42  L 35,43  L 34,43  L 34,45  L 33,45  L 33,48  L 32,48  L 32,51  L 31,51  L 31,53  L 30,53  L 30,55  L 29,55  L 29,57  L 28,57  L 28,59  L 27,59  L 27,61  L 26,61  L 26,63  L 25,63  L 25,64  L 24,64  L 24,66  L 23,66  L 23,72  L 24,72  L 24,73  L 25,73  L 25,72  L 27,72  L 27,71  L 28,71  L 28,70  L 29,70  L 29,69  L 30,69  L 30,67  L 31,67  L 31,65  L 32,65  L 32,63  L 33,63  L 33,61  L 34,61  L 34,60  L 35,60  L 35,57  L 36,57  L 36,56  L 37,56  L 37,53  L 38,53  L 38,51  L 39,51  L 39,48  L 40,48  L 40,45  L 41,45  L 41,42  L 42,42  L 42,40  L 43,40  L 43,38  L 44,38  L 44,36  L 45,36  L 45,34  L 46,34  L 46,32  L 47,32  L 47,28  L 48,28  L 48,24  L 49,24  L 49,20  L 50,20  L 50,17  L 51,17  L 51,13  L 52,13  L 52,11  L 51,11  L 51,8  L 49,8  L 49,6  L 48,6  L 48,5  L 46,5  L 46,4  L 39,4  L 39,5  L 38,5  L 38,4  L 37,4  L 37,5  L 23,5  L 23,6  L 11,6  L 11,7  L 9,7  L 9,8  L 8,8  L 8,9  L 7,9  L 7,10  L 8,10  L 8,12  L 10,12  L 10,13  L 16,13  L 16,12  L 22,12  L 22,11  L 24,11  L 24,12  L 25,12  L 25,11  L 32,11  L 32,12  L 33,12  L 33,11  L 41,11  L 41,10  L 43,10  L 43,11  L 45,11  L 45,15  L 44,15  L 44,18  L 43,18  L 43,21  L 42,21  L 42,25  L 41,25  L 41,28  L 40,28  L 40,30  L 39,30  L 39,32  L 38,32  L 38,33  L 37,33  L 37,34  L 26,34  L 26,35  L 17,35  L 17,36  L 11,36  L 11,37  L 2,37  L 2,38  Z  " style="fill:rgb(0, 0, 0); fill-opacity:1.000; stroke:none;" />
 <path d="  M 41,86  L 41,89  L 40,89  L 40,90  L 39,90  L 39,92  L 38,92  L 38,93  L 37,93  L 37,95  L 36,95  L 36,97  L 35,97  L 35,99  L 34,99  L 34,101  L 33,101  L 33,103  L 32,103  L 32,105  L 31,105  L 31,106  L 30,106  L 30,107  L 29,107  L 29,109  L 28,109  L 28,111  L 27,111  L 27,112  L 26,112  L 26,113  L 25,113  L 25,115  L 24,115  L 24,116  L 23,116  L 23,117  L 22,117  L 22,118  L 21,118  L 21,119  L 20,119  L 20,120  L 19,120  L 19,125  L 20,125  L 20,126  L 23,126  L 23,125  L 24,125  L 24,124  L 25,124  L 25,123  L 26,123  L 26,122  L 27,122  L 27,120  L 28,120  L 28,119  L 29,119  L 29,118  L 30,118  L 30,117  L 31,117  L 31,115  L 32,115  L 32,114  L 33,114  L 33,112  L 34,112  L 34,109  L 35,109  L 35,108  L 36,108  L 36,107  L 37,107  L 37,108  L 39,108  L 39,109  L 41,109  L 41,110  L 42,110  L 42,111  L 44,111  L 44,112  L 48,112  L 48,113  L 51,113  L 51,114  L 52,114  L 52,115  L 53,115  L 53,114  L 54,114  L 54,115  L 55,115  L 55,116  L 56,116  L 56,117  L 57,117  L 57,118  L 58,118  L 58,119  L 59,119  L 59,124  L 58,124  L 58,128  L 57,128  L 57,130  L 56,130  L 56,132  L 55,132  L 55,137  L 61,137  L 61,135  L 62,135  L 62,132  L 63,132  L 63,129  L 64,129  L 64,126  L 65,126  L 65,125  L 66,125  L 66,124  L 67,124  L 67,123  L 68,123  L 68,121  L 69,121  L 69,119  L 70,119  L 70,117  L 71,117  L 71,116  L 72,116  L 72,113  L 73,113  L 73,111  L 74,111  L 74,110  L 78,110  L 78,111  L 79,111  L 79,112  L 80,112  L 80,113  L 81,113  L 81,114  L 82,114  L 82,115  L 83,115  L 83,116  L 86,116  L 86,117  L 88,117  L 88,118  L 90,118  L 90,119  L 91,119  L 91,120  L 94,120  L 94,121  L 96,121  L 96,122  L 99,122  L 99,123  L 101,123  L 101,124  L 102,124  L 102,125  L 105,125  L 105,126  L 108,126  L 108,120  L 106,120  L 106,119  L 105,119  L 105,118  L 102,118  L 102,117  L 99,117  L 99,116  L 97,116  L 97,115  L 94,115  L 94,114  L 92,114  L 92,113  L 91,113  L 91,112  L 89,112  L 89,111  L 87,111  L 87,110  L 86,110  L 86,109  L 85,109  L 85,108  L 83,108  L 83,107  L 82,107  L 82,105  L 81,105  L 81,103  L 80,103  L 80,99  L 81,99  L 81,97  L 82,97  L 82,94  L 83,94  L 83,92  L 84,92  L 84,89  L 85,89  L 85,87  L 86,87  L 86,83  L 82,83  L 82,82  L 81,82  L 81,83  L 79,83  L 79,86  L 78,86  L 78,88  L 77,88  L 77,91  L 76,91  L 76,93  L 75,93  L 75,96  L 74,96  L 74,98  L 73,98  L 73,100  L 72,100  L 72,102  L 71,102  L 71,104  L 70,104  L 70,106  L 69,106  L 69,108  L 68,108  L 68,111  L 67,111  L 67,114  L 66,114  L 66,115  L 64,115  L 64,114  L 62,114  L 62,113  L 61,113  L 61,112  L 60,112  L 60,111  L 58,111  L 58,110  L 56,110  L 56,109  L 54,109  L 54,108  L 51,108  L 51,107  L 49,107  L 49,106  L 47,106  L 47,105  L 45,105  L 45,104  L 43,104  L 43,103  L 42,103  L 42,102  L 41,102  L 41,101  L 40,101  L 40,98  L 41,98  L 41,97  L 42,97  L 42,95  L 43,95  L 43,93  L 44,93  L 44,92  L 45,92  L 45,91  L 46,91  L 46,88  L 47,88  L 47,84  L 46,84  L 46,83  L 45,83  L 45,82  L 44,82  L 44,81  L 42,81  L 42,80  L 39,80  L 39,79  L 34,79  L 34,80  L 33,80  L 33,82  L 32,82  L 32,83  L 33,83  L 33,85  L 35,85  L 35,86  L 36,86  L 36,87  L 37,87  L 37,86  Z  " style="fill:rgb(0, 0, 0); fill-opacity:1.000; stroke:none;" />
 <path d="  M 66,65  L 67,65  L 67,68  L 66,68  L 66,70  L 67,70  L 67,72  L 68,72  L 68,73  L 71,73  L 71,72  L 72,72  L 72,69  L 73,69  L 73,67  L 72,67  L 72,66  L 73,66  L 73,39  L 72,39  L 72,33  L 75,33  L 75,32  L 86,32  L 86,36  L 85,36  L 85,37  L 86,37  L 86,75  L 87,75  L 87,76  L 91,76  L 91,75  L 92,75  L 92,56  L 93,56  L 93,55  L 92,55  L 92,54  L 93,54  L 93,53  L 92,53  L 92,52  L 93,52  L 93,45  L 92,45  L 92,44  L 93,44  L 93,43  L 92,43  L 92,42  L 93,42  L 93,41  L 92,41  L 92,40  L 93,40  L 93,32  L 92,32  L 92,30  L 93,30  L 93,29  L 92,29  L 92,26  L 91,26  L 91,22  L 90,22  L 90,15  L 89,15  L 89,3  L 87,3  L 87,2  L 86,2  L 86,1  L 85,1  L 85,0  L 83,0  L 83,1  L 82,1  L 82,4  L 81,4  L 81,6  L 82,6  L 82,15  L 83,15  L 83,20  L 84,20  L 84,23  L 85,23  L 85,26  L 82,26  L 82,25  L 81,25  L 81,26  L 74,26  L 74,27  L 72,27  L 72,26  L 71,26  L 71,24  L 70,24  L 70,23  L 71,23  L 71,19  L 70,19  L 70,18  L 71,18  L 71,17  L 70,17  L 70,14  L 71,14  L 71,13  L 70,13  L 70,6  L 69,6  L 69,3  L 68,3  L 68,2  L 66,2  L 66,3  L 65,3  L 65,5  L 64,5  L 64,20  L 65,20  L 65,28  L 66,28  L 66,29  L 65,29  L 65,30  L 66,30  L 66,31  L 65,31  L 65,32  L 66,32  L 66,43  L 67,43  L 67,44  L 66,44  L 66,47  L 67,47  L 67,48  L 66,48  L 66,49  L 67,49  L 67,50  L 66,50  L 66,51  L 67,51  L 67,52  L 66,52  L 66,55  L 67,55  L 67,56  L 66,56  L 66,58  L 67,58  L 67,60  L 66,60  L 66,62  L 67,62  L 67,64  L 66,64  Z  " style="fill:rgb(0, 0, 0); fill-opacity:1.000; stroke:none;" />
</svg>
