<?xml version="1.0" encoding="UTF-8" standalone="no"?>
<!DOCTYPE svg PUBLIC "-//W3C//DTD SVG 1.1//EN" 
  "http://www.w3.org/Graphics/SVG/1.1/DTD/svg11.dtd">
<svg width="112" height="106"
     xmlns="http://www.w3.org/2000/svg" version="1.1">
 <path d="  M 30,83  L 30,85  L 29,85  L 29,86  L 28,86  L 28,87  L 27,87  L 27,88  L 26,88  L 26,90  L 25,90  L 25,91  L 24,91  L 24,92  L 23,92  L 23,93  L 22,93  L 22,94  L 21,94  L 21,95  L 19,95  L 19,96  L 18,96  L 18,97  L 17,97  L 17,98  L 16,98  L 16,100  L 15,100  L 15,104  L 16,104  L 16,105  L 18,105  L 18,104  L 21,104  L 21,103  L 22,103  L 22,102  L 23,102  L 23,101  L 24,101  L 24,100  L 25,100  L 25,99  L 26,99  L 26,98  L 27,98  L 27,97  L 28,97  L 28,96  L 29,96  L 29,95  L 30,95  L 30,94  L 31,94  L 31,93  L 32,93  L 32,92  L 33,92  L 33,91  L 34,91  L 34,89  L 35,89  L 35,88  L 36,88  L 36,86  L 37,86  L 37,84  L 38,84  L 38,83  L 39,83  L 39,82  L 40,82  L 40,81  L 41,81  L 41,79  L 42,79  L 42,77  L 43,77  L 43,76  L 44,76  L 44,75  L 45,75  L 45,73  L 46,73  L 46,72  L 47,72  L 47,70  L 48,70  L 48,68  L 49,68  L 49,66  L 50,66  L 50,64  L 51,64  L 51,62  L 52,62  L 52,60  L 53,60  L 53,58  L 54,58  L 54,56  L 55,56  L 55,54  L 56,54  L 56,52  L 57,52  L 57,48  L 58,48  L 58,43  L 59,43  L 59,37  L 60,37  L 60,36  L 59,36  L 59,35  L 60,35  L 60,27  L 57,27  L 57,26  L 42,26  L 42,25  L 35,25  L 35,26  L 32,26  L 32,25  L 30,25  L 30,26  L 29,26  L 29,25  L 27,25  L 27,26  L 26,26  L 26,25  L 23,25  L 23,26  L 15,26  L 15,27  L 12,27  L 12,26  L 11,26  L 11,27  L 7,27  L 7,28  L 3,28  L 3,30  L 2,30  L 2,32  L 1,32  L 1,35  L 2,35  L 2,36  L 3,36  L 3,37  L 5,37  L 5,36  L 8,36  L 8,37  L 9,37  L 9,36  L 11,36  L 11,35  L 14,35  L 14,34  L 16,34  L 16,33  L 21,33  L 21,32  L 22,32  L 22,33  L 23,33  L 23,32  L 24,32  L 24,33  L 25,33  L 25,32  L 30,32  L 30,33  L 33,33  L 33,32  L 34,32  L 34,33  L 37,33  L 37,32  L 51,32  L 51,34  L 52,34  L 52,38  L 51,38  L 51,43  L 50,43  L 50,48  L 49,48  L 49,50  L 47,50  L 47,51  L 40,51  L 40,52  L 35,52  L 35,53  L 31,53  L 31,54  L 27,54  L 27,55  L 23,55  L 23,56  L 19,56  L 19,57  L 15,57  L 15,58  L 11,58  L 11,59  L 9,59  L 9,60  L 6,60  L 6,61  L 3,61  L 3,62  L 2,62  L 2,63  L 1,63  L 1,64  L 0,64  L 0,68  L 4,68  L 4,67  L 9,67  L 9,66  L 13,66  L 13,65  L 15,65  L 15,64  L 19,64  L 19,63  L 24,63  L 24,62  L 29,62  L 29,61  L 33,61  L 33,60  L 38,60  L 38,59  L 45,59  L 45,60  L 44,60  L 44,63  L 43,63  L 43,65  L 42,65  L 42,66  L 41,66  L 41,69  L 40,69  L 40,70  L 39,70  L 39,72  L 38,72  L 38,73  L 37,73  L 37,75  L 36,75  L 36,77  L 35,77  L 35,78  L 34,78  L 34,80  L 33,80  L 33,81  L 32,81  L 32,82  L 31,82  L 31,83  Z  " style="fill:rgb(0, 0, 0); fill-opacity:1.000; stroke:none;" />
 <path d="  M 111,33  L 111,32  L 110,32  L 110,33  L 107,33  L 107,32  L 106,32  L 106,33  L 105,33  L 105,32  L 104,32  L 104,33  L 93,33  L 93,32  L 92,32  L 92,33  L 89,33  L 89,32  L 88,32  L 88,33  L 87,33  L 87,34  L 85,34  L 85,32  L 84,32  L 84,19  L 85,19  L 85,2  L 84,2  L 84,0  L 81,0  L 81,1  L 80,1  L 80,2  L 79,2  L 79,8  L 78,8  L 78,19  L 79,19  L 79,20  L 78,20  L 78,21  L 79,21  L 79,40  L 78,40  L 78,41  L 79,41  L 79,42  L 78,42  L 78,43  L 79,43  L 79,44  L 78,44  L 78,67  L 77,67  L 77,106  L 83,106  L 83,105  L 84,105  L 84,98  L 83,98  L 83,93  L 84,93  L 84,92  L 83,92  L 83,87  L 84,87  L 84,86  L 83,86  L 83,83  L 84,83  L 84,82  L 83,82  L 83,79  L 84,79  L 84,78  L 83,78  L 83,72  L 84,72  L 84,68  L 86,68  L 86,67  L 87,67  L 87,68  L 88,68  L 88,67  L 96,67  L 96,68  L 97,68  L 97,67  L 98,67  L 98,68  L 101,68  L 101,67  L 102,67  L 102,68  L 110,68  L 110,67  L 111,67  L 111,62  L 108,62  L 108,61  L 106,61  L 106,62  L 105,62  L 105,61  L 93,61  L 93,60  L 92,60  L 92,61  L 87,61  L 87,62  L 85,62  L 85,61  L 84,61  L 84,51  L 85,51  L 85,50  L 84,50  L 84,47  L 85,47  L 85,44  L 84,44  L 84,43  L 85,43  L 85,40  L 86,40  L 86,39  L 92,39  L 92,40  L 93,40  L 93,39  L 96,39  L 96,40  L 97,40  L 97,39  L 98,39  L 98,40  L 101,40  L 101,39  L 102,39  L 102,40  L 105,40  L 105,39  L 106,39  L 106,40  L 109,40  L 109,39  L 110,39  L 110,40  L 111,40  L 111,39  L 112,39  L 112,33  Z  " style="fill:rgb(0, 0, 0); fill-opacity:1.000; stroke:none;" />
</svg>
