<?xml version="1.0" encoding="UTF-8" standalone="no"?>
<!DOCTYPE svg PUBLIC "-//W3C//DTD SVG 1.1//EN" 
  "http://www.w3.org/Graphics/SVG/1.1/DTD/svg11.dtd">
<svg width="109" height="140"
     xmlns="http://www.w3.org/2000/svg" version="1.1">
 <path d="  M 33,15  L 34,15  L 34,16  L 45,16  L 45,17  L 46,17  L 46,18  L 47,18  L 47,19  L 48,19  L 48,21  L 47,21  L 47,24  L 46,24  L 46,27  L 45,27  L 45,31  L 44,31  L 44,33  L 43,33  L 43,35  L 42,35  L 42,36  L 40,36  L 40,37  L 28,37  L 28,38  L 20,38  L 20,39  L 14,39  L 14,40  L 13,40  L 13,39  L 12,39  L 12,40  L 10,40  L 10,41  L 3,41  L 3,42  L 2,42  L 2,43  L 1,43  L 1,45  L 0,45  L 0,46  L 1,46  L 1,47  L 3,47  L 3,48  L 8,48  L 8,47  L 11,47  L 11,46  L 12,46  L 12,47  L 13,47  L 13,46  L 17,46  L 17,45  L 24,45  L 24,44  L 34,44  L 34,43  L 39,43  L 39,46  L 38,46  L 38,49  L 37,49  L 37,50  L 36,50  L 36,53  L 35,53  L 35,55  L 34,55  L 34,57  L 33,57  L 33,59  L 32,59  L 32,61  L 31,61  L 31,62  L 30,62  L 30,65  L 29,65  L 29,66  L 28,66  L 28,68  L 27,68  L 27,69  L 26,69  L 26,70  L 24,70  L 24,71  L 23,71  L 23,72  L 22,72  L 22,74  L 20,74  L 20,75  L 19,75  L 19,77  L 18,77  L 18,79  L 17,79  L 17,80  L 19,80  L 19,81  L 20,81  L 20,80  L 22,80  L 22,79  L 24,79  L 24,78  L 25,78  L 25,77  L 28,77  L 28,76  L 30,76  L 30,74  L 32,74  L 32,73  L 33,73  L 33,72  L 34,72  L 34,69  L 35,69  L 35,68  L 36,68  L 36,67  L 37,67  L 37,64  L 38,64  L 38,63  L 39,63  L 39,60  L 40,60  L 40,59  L 41,59  L 41,56  L 42,56  L 42,54  L 43,54  L 43,52  L 44,52  L 44,47  L 45,47  L 45,45  L 46,45  L 46,44  L 47,44  L 47,43  L 46,43  L 46,42  L 47,42  L 47,40  L 48,40  L 48,37  L 49,37  L 49,35  L 50,35  L 50,33  L 51,33  L 51,30  L 52,30  L 52,27  L 53,27  L 53,24  L 54,24  L 54,17  L 53,17  L 53,15  L 52,15  L 52,14  L 51,14  L 51,13  L 50,13  L 50,12  L 49,12  L 49,11  L 48,11  L 48,10  L 43,10  L 43,9  L 20,9  L 20,10  L 19,10  L 19,9  L 18,9  L 18,10  L 12,10  L 12,11  L 10,11  L 10,14  L 11,14  L 11,16  L 21,16  L 21,15  L 30,15  L 30,16  L 33,16  Z  " style="fill:rgb(0, 0, 0); fill-opacity:1.000; stroke:none;" />
 <path d="  M 64,140  L 64,139  L 66,139  L 66,138  L 71,138  L 71,137  L 74,137  L 74,136  L 75,136  L 75,135  L 77,135  L 77,134  L 79,134  L 79,133  L 80,133  L 80,132  L 82,132  L 82,131  L 83,131  L 83,130  L 84,130  L 84,129  L 85,129  L 85,128  L 87,128  L 87,126  L 88,126  L 88,125  L 89,125  L 89,123  L 90,123  L 90,120  L 91,120  L 91,119  L 90,119  L 90,118  L 91,118  L 91,107  L 90,107  L 90,105  L 89,105  L 89,102  L 88,102  L 88,100  L 87,100  L 87,99  L 86,99  L 86,98  L 85,98  L 85,97  L 83,97  L 83,96  L 81,96  L 81,95  L 76,95  L 76,94  L 69,94  L 69,93  L 61,93  L 61,92  L 57,92  L 57,91  L 54,91  L 54,90  L 50,90  L 50,91  L 49,91  L 49,92  L 48,92  L 48,93  L 47,93  L 47,94  L 46,94  L 46,96  L 44,96  L 44,97  L 43,97  L 43,98  L 42,98  L 42,100  L 41,100  L 41,101  L 40,101  L 40,102  L 39,102  L 39,103  L 38,103  L 38,105  L 37,105  L 37,106  L 36,106  L 36,107  L 35,107  L 35,110  L 34,110  L 34,112  L 33,112  L 33,113  L 32,113  L 32,115  L 31,115  L 31,119  L 30,119  L 30,123  L 29,123  L 29,129  L 30,129  L 30,132  L 31,132  L 31,135  L 33,135  L 33,137  L 35,137  L 35,138  L 38,138  L 38,139  L 42,139  L 42,140  Z  M 47,134  L 47,133  L 42,133  L 42,132  L 39,132  L 39,131  L 38,131  L 38,130  L 37,130  L 37,129  L 36,129  L 36,121  L 37,121  L 37,117  L 38,117  L 38,116  L 39,116  L 39,112  L 40,112  L 40,111  L 41,111  L 41,109  L 43,109  L 43,107  L 44,107  L 44,106  L 45,106  L 45,105  L 46,105  L 46,104  L 47,104  L 47,103  L 48,103  L 48,102  L 49,102  L 49,101  L 52,101  L 52,100  L 57,100  L 57,99  L 58,99  L 58,100  L 68,100  L 68,101  L 75,101  L 75,102  L 78,102  L 78,103  L 80,103  L 80,104  L 81,104  L 81,105  L 82,105  L 82,106  L 83,106  L 83,108  L 84,108  L 84,117  L 83,117  L 83,120  L 82,120  L 82,122  L 81,122  L 81,124  L 80,124  L 80,125  L 79,125  L 79,126  L 78,126  L 78,127  L 77,127  L 77,128  L 75,128  L 75,129  L 73,129  L 73,130  L 72,130  L 72,131  L 68,131  L 68,132  L 62,132  L 62,133  L 60,133  L 60,134  Z  " style="fill:rgb(0, 0, 0); fill-opacity:1.000; stroke:none;" />
 <path d="  M 74,64  L 75,64  L 75,65  L 74,65  L 74,66  L 75,66  L 75,69  L 74,69  L 74,70  L 75,70  L 75,79  L 76,79  L 76,85  L 78,85  L 78,86  L 81,86  L 81,85  L 82,85  L 82,75  L 81,75  L 81,74  L 82,74  L 82,73  L 81,73  L 81,72  L 82,72  L 82,71  L 81,71  L 81,70  L 82,70  L 82,69  L 81,69  L 81,68  L 82,68  L 82,67  L 81,67  L 81,57  L 80,57  L 80,56  L 81,56  L 81,53  L 82,53  L 82,52  L 84,52  L 84,51  L 109,51  L 109,45  L 108,45  L 108,44  L 106,44  L 106,43  L 105,43  L 105,44  L 80,44  L 80,41  L 79,41  L 79,37  L 80,37  L 80,35  L 81,35  L 81,34  L 89,34  L 89,33  L 90,33  L 90,34  L 91,34  L 91,33  L 92,33  L 92,34  L 93,34  L 93,33  L 94,33  L 94,34  L 95,34  L 95,33  L 100,33  L 100,32  L 101,32  L 101,31  L 102,31  L 102,30  L 103,30  L 103,29  L 102,29  L 102,28  L 101,28  L 101,27  L 93,27  L 93,26  L 92,26  L 92,27  L 84,27  L 84,28  L 81,28  L 81,27  L 79,27  L 79,17  L 78,17  L 78,16  L 79,16  L 79,15  L 78,15  L 78,3  L 77,3  L 77,1  L 76,1  L 76,0  L 73,0  L 73,2  L 72,2  L 72,14  L 73,14  L 73,22  L 74,22  Z  " style="fill:rgb(0, 0, 0); fill-opacity:1.000; stroke:none;" />
</svg>
