<?xml version="1.0" encoding="UTF-8" standalone="no"?>
<!DOCTYPE svg PUBLIC "-//W3C//DTD SVG 1.1//EN" 
  "http://www.w3.org/Graphics/SVG/1.1/DTD/svg11.dtd">
<svg width="103" height="147"
     xmlns="http://www.w3.org/2000/svg" version="1.1">
 <path d="  M 34,70  L 35,70  L 35,68  L 36,68  L 36,67  L 37,67  L 37,65  L 38,65  L 38,63  L 39,63  L 39,61  L 40,61  L 40,60  L 41,60  L 41,58  L 42,58  L 42,56  L 43,56  L 43,55  L 44,55  L 44,51  L 45,51  L 45,49  L 46,49  L 46,46  L 47,46  L 47,44  L 48,44  L 48,42  L 49,42  L 49,33  L 50,33  L 50,29  L 51,29  L 51,28  L 52,28  L 52,26  L 53,26  L 53,22  L 54,22  L 54,14  L 53,14  L 53,13  L 52,13  L 52,12  L 51,12  L 51,11  L 50,11  L 50,10  L 48,10  L 48,9  L 47,9  L 47,8  L 45,8  L 45,7  L 42,7  L 42,6  L 13,6  L 13,7  L 9,7  L 9,8  L 7,8  L 7,10  L 6,10  L 6,13  L 7,13  L 7,15  L 13,15  L 13,14  L 16,14  L 16,13  L 34,13  L 34,14  L 35,14  L 35,13  L 38,13  L 38,14  L 42,14  L 42,15  L 45,15  L 45,16  L 47,16  L 47,18  L 48,18  L 48,20  L 47,20  L 47,23  L 46,23  L 46,25  L 45,25  L 45,28  L 44,28  L 44,30  L 43,30  L 43,33  L 42,33  L 42,35  L 41,35  L 41,36  L 39,36  L 39,37  L 32,37  L 32,38  L 20,38  L 20,39  L 17,39  L 17,38  L 16,38  L 16,39  L 14,39  L 14,40  L 9,40  L 9,41  L 5,41  L 5,42  L 3,42  L 3,43  L 2,43  L 2,44  L 1,44  L 1,45  L 0,45  L 0,47  L 1,47  L 1,48  L 0,48  L 0,49  L 2,49  L 2,50  L 4,50  L 4,49  L 6,49  L 6,48  L 8,48  L 8,47  L 12,47  L 12,46  L 16,46  L 16,45  L 33,45  L 33,44  L 38,44  L 38,48  L 37,48  L 37,49  L 36,49  L 36,54  L 35,54  L 35,56  L 34,56  L 34,57  L 33,57  L 33,60  L 32,60  L 32,62  L 31,62  L 31,64  L 30,64  L 30,66  L 29,66  L 29,68  L 28,68  L 28,69  L 27,69  L 27,71  L 26,71  L 26,72  L 25,72  L 25,74  L 24,74  L 24,75  L 23,75  L 23,76  L 21,76  L 21,77  L 20,77  L 20,78  L 19,78  L 19,80  L 22,80  L 22,81  L 27,81  L 27,80  L 28,80  L 28,79  L 30,79  L 30,76  L 31,76  L 31,75  L 32,75  L 32,73  L 33,73  L 33,71  L 34,71  Z  " style="fill:rgb(0, 0, 0); fill-opacity:1.000; stroke:none;" />
 <path d="  M 57,147  L 57,146  L 65,146  L 65,145  L 72,145  L 72,144  L 81,144  L 81,143  L 89,143  L 89,142  L 90,142  L 90,143  L 91,143  L 91,142  L 100,142  L 100,141  L 102,141  L 102,140  L 103,140  L 103,135  L 102,135  L 102,134  L 96,134  L 96,135  L 92,135  L 92,136  L 82,136  L 82,137  L 73,137  L 73,138  L 64,138  L 64,139  L 57,139  L 57,140  L 50,140  L 50,141  L 43,141  L 43,140  L 40,140  L 40,137  L 39,137  L 39,132  L 38,132  L 38,124  L 37,124  L 37,118  L 36,118  L 36,102  L 35,102  L 35,101  L 36,101  L 36,98  L 35,98  L 35,96  L 31,96  L 31,97  L 30,97  L 30,115  L 31,115  L 31,125  L 32,125  L 32,126  L 31,126  L 31,127  L 32,127  L 32,135  L 33,135  L 33,140  L 34,140  L 34,142  L 35,142  L 35,145  L 37,145  L 37,146  L 38,146  L 38,147  Z  " style="fill:rgb(0, 0, 0); fill-opacity:1.000; stroke:none;" />
 <path d="  M 87,7  L 88,7  L 88,6  L 87,6  L 87,2  L 85,2  L 85,1  L 83,1  L 83,0  L 82,0  L 82,1  L 81,1  L 81,2  L 80,2  L 80,9  L 81,9  L 81,15  L 82,15  L 82,21  L 83,21  L 83,28  L 84,28  L 84,29  L 83,29  L 83,30  L 84,30  L 84,32  L 85,32  L 85,34  L 84,34  L 84,35  L 82,35  L 82,36  L 76,36  L 76,37  L 61,37  L 61,38  L 53,38  L 53,39  L 51,39  L 51,42  L 50,42  L 50,44  L 51,44  L 51,46  L 54,46  L 54,45  L 63,45  L 63,44  L 75,44  L 75,43  L 76,43  L 76,44  L 77,44  L 77,43  L 84,43  L 84,42  L 85,42  L 85,43  L 86,43  L 86,80  L 85,80  L 85,81  L 86,81  L 86,84  L 85,84  L 85,85  L 86,85  L 86,88  L 88,88  L 88,89  L 89,89  L 89,88  L 92,88  L 92,87  L 93,87  L 93,63  L 94,63  L 94,62  L 93,62  L 93,57  L 94,57  L 94,56  L 93,56  L 93,55  L 94,55  L 94,54  L 93,54  L 93,53  L 94,53  L 94,52  L 93,52  L 93,49  L 94,49  L 94,48  L 93,48  L 93,45  L 94,45  L 94,44  L 93,44  L 93,37  L 92,37  L 92,33  L 91,33  L 91,28  L 90,28  L 90,27  L 91,27  L 91,26  L 90,26  L 90,21  L 89,21  L 89,14  L 88,14  L 88,8  L 87,8  Z  " style="fill:rgb(0, 0, 0); fill-opacity:1.000; stroke:none;" />
</svg>
