<?xml version="1.0" encoding="UTF-8" standalone="no"?>
<!DOCTYPE svg PUBLIC "-//W3C//DTD SVG 1.1//EN" 
  "http://www.w3.org/Graphics/SVG/1.1/DTD/svg11.dtd">
<svg width="101" height="170"
     xmlns="http://www.w3.org/2000/svg" version="1.1">
 <path d="  M 47,33  L 46,33  L 46,36  L 45,36  L 45,38  L 44,38  L 44,40  L 43,40  L 43,42  L 40,42  L 40,43  L 27,43  L 27,44  L 17,44  L 17,45  L 13,45  L 13,46  L 9,46  L 9,47  L 5,47  L 5,48  L 4,48  L 4,49  L 2,49  L 2,51  L 1,51  L 1,52  L 0,52  L 0,53  L 1,53  L 1,54  L 0,54  L 0,56  L 2,56  L 2,55  L 3,55  L 3,56  L 6,56  L 6,55  L 7,55  L 7,54  L 9,54  L 9,53  L 14,53  L 14,52  L 18,52  L 18,51  L 26,51  L 26,50  L 38,50  L 38,55  L 37,55  L 37,60  L 36,60  L 36,63  L 35,63  L 35,65  L 34,65  L 34,68  L 33,68  L 33,69  L 32,69  L 32,71  L 31,71  L 31,73  L 30,73  L 30,75  L 28,75  L 28,77  L 27,77  L 27,78  L 26,78  L 26,79  L 25,79  L 25,80  L 24,80  L 24,81  L 23,81  L 23,82  L 22,82  L 22,83  L 21,83  L 21,85  L 20,85  L 20,87  L 22,87  L 22,88  L 23,88  L 23,87  L 28,87  L 28,86  L 29,86  L 29,85  L 31,85  L 31,84  L 32,84  L 32,83  L 33,83  L 33,81  L 34,81  L 34,80  L 35,80  L 35,79  L 36,79  L 36,77  L 37,77  L 37,75  L 38,75  L 38,73  L 39,73  L 39,71  L 40,71  L 40,69  L 41,69  L 41,67  L 42,67  L 42,65  L 43,65  L 43,62  L 44,62  L 44,58  L 45,58  L 45,54  L 46,54  L 46,51  L 47,51  L 47,48  L 48,48  L 48,45  L 49,45  L 49,43  L 50,43  L 50,41  L 51,41  L 51,39  L 52,39  L 52,36  L 53,36  L 53,34  L 54,34  L 54,32  L 55,32  L 55,30  L 56,30  L 56,28  L 57,28  L 57,27  L 58,27  L 58,26  L 59,26  L 59,24  L 60,24  L 60,19  L 59,19  L 59,18  L 58,18  L 58,17  L 57,17  L 57,16  L 55,16  L 55,15  L 54,15  L 54,14  L 50,14  L 50,13  L 40,13  L 40,12  L 10,12  L 10,13  L 8,13  L 8,14  L 6,14  L 6,16  L 5,16  L 5,18  L 6,18  L 6,20  L 7,20  L 7,21  L 12,21  L 12,20  L 15,20  L 15,19  L 44,19  L 44,20  L 50,20  L 50,21  L 52,21  L 52,22  L 53,22  L 53,23  L 52,23  L 52,25  L 51,25  L 51,27  L 50,27  L 50,28  L 49,28  L 49,30  L 48,30  L 48,31  L 47,31  Z  " style="fill:rgb(0, 0, 0); fill-opacity:1.000; stroke:none;" />
 <path d="  M 94,103  L 95,103  L 95,102  L 94,102  L 94,100  L 89,100  L 89,101  L 88,101  L 88,102  L 87,102  L 87,129  L 83,129  L 83,130  L 82,130  L 82,129  L 79,129  L 79,130  L 78,130  L 78,129  L 77,129  L 77,130  L 76,130  L 76,129  L 75,129  L 75,130  L 74,130  L 74,129  L 73,129  L 73,130  L 72,130  L 72,129  L 71,129  L 71,130  L 70,130  L 70,129  L 69,129  L 69,130  L 68,130  L 68,129  L 67,129  L 67,130  L 66,130  L 66,129  L 65,129  L 65,130  L 64,130  L 64,129  L 63,129  L 63,130  L 62,130  L 62,129  L 61,129  L 61,130  L 60,130  L 60,129  L 59,129  L 59,130  L 58,130  L 58,129  L 57,129  L 57,130  L 54,130  L 54,129  L 53,129  L 53,130  L 50,130  L 50,129  L 49,129  L 49,130  L 46,130  L 46,129  L 45,129  L 45,130  L 42,130  L 42,129  L 41,129  L 41,106  L 42,106  L 42,100  L 39,100  L 39,101  L 38,101  L 38,102  L 37,102  L 37,103  L 36,103  L 36,104  L 35,104  L 35,112  L 34,112  L 34,114  L 35,114  L 35,115  L 34,115  L 34,128  L 35,128  L 35,136  L 36,136  L 36,144  L 37,144  L 37,145  L 36,145  L 36,146  L 37,146  L 37,159  L 38,159  L 38,163  L 39,163  L 39,165  L 40,165  L 40,167  L 41,167  L 41,168  L 43,168  L 43,169  L 44,169  L 44,170  L 66,170  L 66,169  L 69,169  L 69,168  L 73,168  L 73,167  L 75,167  L 75,166  L 78,166  L 78,165  L 81,165  L 81,164  L 84,164  L 84,163  L 86,163  L 86,162  L 88,162  L 88,161  L 89,161  L 89,159  L 90,159  L 90,155  L 91,155  L 91,150  L 92,150  L 92,149  L 91,149  L 91,147  L 92,147  L 92,145  L 91,145  L 91,144  L 92,144  L 92,136  L 93,136  L 93,132  L 94,132  Z  M 69,162  L 66,162  L 66,161  L 65,161  L 65,162  L 62,162  L 62,163  L 55,163  L 55,164  L 54,164  L 54,163  L 51,163  L 51,164  L 50,164  L 50,163  L 47,163  L 47,162  L 46,162  L 46,161  L 45,161  L 45,158  L 44,158  L 44,151  L 43,151  L 43,150  L 44,150  L 44,149  L 43,149  L 43,142  L 42,142  L 42,140  L 43,140  L 43,138  L 50,138  L 50,137  L 52,137  L 52,138  L 54,138  L 54,137  L 56,137  L 56,138  L 58,138  L 58,137  L 60,137  L 60,138  L 61,138  L 61,137  L 64,137  L 64,138  L 65,138  L 65,137  L 68,137  L 68,138  L 69,138  L 69,137  L 72,137  L 72,138  L 73,138  L 73,137  L 76,137  L 76,138  L 77,138  L 77,137  L 83,137  L 83,138  L 84,138  L 84,139  L 85,139  L 85,149  L 84,149  L 84,154  L 83,154  L 83,156  L 82,156  L 82,157  L 81,157  L 81,158  L 79,158  L 79,159  L 76,159  L 76,160  L 72,160  L 72,161  L 69,161  Z  " style="fill:rgb(0, 0, 0); fill-opacity:1.000; stroke:none;" />
 <path d="  M 81,36  L 81,37  L 80,37  L 80,36  L 79,36  L 79,37  L 76,37  L 76,38  L 75,38  L 75,37  L 74,37  L 74,38  L 69,38  L 69,39  L 66,39  L 66,40  L 65,40  L 65,39  L 64,39  L 64,40  L 59,40  L 59,41  L 56,41  L 56,42  L 55,42  L 55,45  L 54,45  L 54,47  L 55,47  L 55,48  L 60,48  L 60,47  L 61,47  L 61,48  L 62,48  L 62,47  L 65,47  L 65,46  L 72,46  L 72,45  L 77,45  L 77,44  L 82,44  L 82,43  L 94,43  L 94,76  L 93,76  L 93,90  L 92,90  L 92,91  L 93,91  L 93,93  L 92,93  L 92,94  L 93,94  L 93,96  L 94,96  L 94,95  L 95,95  L 95,96  L 98,96  L 98,95  L 100,95  L 100,80  L 101,80  L 101,79  L 100,79  L 100,78  L 101,78  L 101,77  L 100,77  L 100,76  L 101,76  L 101,25  L 100,25  L 100,17  L 99,17  L 99,9  L 98,9  L 98,4  L 97,4  L 97,2  L 96,2  L 96,1  L 94,1  L 94,0  L 91,0  L 91,1  L 90,1  L 90,7  L 91,7  L 91,12  L 92,12  L 92,19  L 93,19  L 93,35  L 90,35  L 90,36  L 89,36  L 89,35  L 88,35  L 88,36  Z  " style="fill:rgb(0, 0, 0); fill-opacity:1.000; stroke:none;" />
</svg>
