<?xml version="1.0" encoding="UTF-8" standalone="no"?>
<!DOCTYPE svg PUBLIC "-//W3C//DTD SVG 1.1//EN" 
  "http://www.w3.org/Graphics/SVG/1.1/DTD/svg11.dtd">
<svg width="107" height="157"
     xmlns="http://www.w3.org/2000/svg" version="1.1">
 <path d="  M 47,35  L 46,35  L 46,37  L 45,37  L 45,38  L 44,38  L 44,39  L 42,39  L 42,40  L 36,40  L 36,41  L 28,41  L 28,42  L 26,42  L 26,41  L 25,41  L 25,42  L 18,42  L 18,43  L 7,43  L 7,44  L 2,44  L 2,46  L 0,46  L 0,50  L 1,50  L 1,51  L 5,51  L 5,50  L 13,50  L 13,49  L 24,49  L 24,48  L 25,48  L 25,49  L 26,49  L 26,48  L 27,48  L 27,49  L 28,49  L 28,48  L 36,48  L 36,47  L 40,47  L 40,49  L 39,49  L 39,51  L 38,51  L 38,52  L 37,52  L 37,58  L 36,58  L 36,60  L 35,60  L 35,61  L 34,61  L 34,62  L 35,62  L 35,63  L 34,63  L 34,65  L 33,65  L 33,67  L 32,67  L 32,69  L 31,69  L 31,70  L 30,70  L 30,72  L 29,72  L 29,74  L 28,74  L 28,75  L 27,75  L 27,77  L 26,77  L 26,78  L 25,78  L 25,79  L 24,79  L 24,80  L 23,80  L 23,82  L 22,82  L 22,83  L 21,83  L 21,84  L 20,84  L 20,85  L 19,85  L 19,88  L 20,88  L 20,89  L 21,89  L 21,90  L 23,90  L 23,89  L 25,89  L 25,88  L 26,88  L 26,87  L 28,87  L 28,85  L 30,85  L 30,83  L 31,83  L 31,82  L 32,82  L 32,80  L 33,80  L 33,78  L 34,78  L 34,77  L 35,77  L 35,75  L 36,75  L 36,74  L 37,74  L 37,73  L 38,73  L 38,71  L 39,71  L 39,70  L 40,70  L 40,68  L 41,68  L 41,66  L 42,66  L 42,64  L 43,64  L 43,62  L 44,62  L 44,60  L 45,60  L 45,58  L 46,58  L 46,54  L 47,54  L 47,51  L 48,51  L 48,50  L 49,50  L 49,47  L 50,47  L 50,44  L 51,44  L 51,42  L 52,42  L 52,41  L 51,41  L 51,40  L 52,40  L 52,38  L 53,38  L 53,37  L 54,37  L 54,34  L 55,34  L 55,32  L 56,32  L 56,29  L 57,29  L 57,27  L 58,27  L 58,24  L 59,24  L 59,23  L 60,23  L 60,20  L 61,20  L 61,15  L 60,15  L 60,14  L 59,14  L 59,13  L 58,13  L 58,12  L 57,12  L 57,11  L 56,11  L 56,10  L 55,10  L 55,9  L 54,9  L 54,8  L 53,8  L 53,7  L 51,7  L 51,6  L 38,6  L 38,7  L 19,7  L 19,8  L 13,8  L 13,9  L 6,9  L 6,10  L 4,10  L 4,13  L 3,13  L 3,16  L 4,16  L 4,17  L 5,17  L 5,18  L 8,18  L 8,17  L 9,17  L 9,18  L 10,18  L 10,17  L 12,17  L 12,16  L 14,16  L 14,15  L 19,15  L 19,14  L 30,14  L 30,13  L 45,13  L 45,14  L 48,14  L 48,13  L 49,13  L 49,14  L 51,14  L 51,15  L 52,15  L 52,17  L 53,17  L 53,18  L 52,18  L 52,20  L 51,20  L 51,22  L 50,22  L 50,25  L 49,25  L 49,29  L 48,29  L 48,31  L 47,31  Z  " style="fill:rgb(0, 0, 0); fill-opacity:1.000; stroke:none;" />
 <path d="  M 97,141  L 97,140  L 96,140  L 96,139  L 93,139  L 93,138  L 91,138  L 91,137  L 89,137  L 89,136  L 88,136  L 88,135  L 86,135  L 86,134  L 84,134  L 84,133  L 83,133  L 83,132  L 82,132  L 82,131  L 80,131  L 80,130  L 78,130  L 78,129  L 77,129  L 77,128  L 76,128  L 76,127  L 74,127  L 74,126  L 72,126  L 72,125  L 70,125  L 70,124  L 69,124  L 69,123  L 68,123  L 68,122  L 67,122  L 67,121  L 65,121  L 65,120  L 64,120  L 64,119  L 63,119  L 63,118  L 62,118  L 62,117  L 61,117  L 61,115  L 62,115  L 62,114  L 63,114  L 63,113  L 64,113  L 64,112  L 65,112  L 65,110  L 66,110  L 66,109  L 67,109  L 67,108  L 68,108  L 68,106  L 69,106  L 69,103  L 70,103  L 70,101  L 71,101  L 71,96  L 69,96  L 69,95  L 68,95  L 68,94  L 66,94  L 66,96  L 64,96  L 64,98  L 63,98  L 63,101  L 62,101  L 62,102  L 61,102  L 61,103  L 60,103  L 60,105  L 59,105  L 59,106  L 58,106  L 58,108  L 57,108  L 57,109  L 56,109  L 56,111  L 55,111  L 55,112  L 54,112  L 54,113  L 53,113  L 53,114  L 52,114  L 52,115  L 51,115  L 51,117  L 50,117  L 50,118  L 49,118  L 49,119  L 48,119  L 48,121  L 47,121  L 47,122  L 46,122  L 46,124  L 45,124  L 45,125  L 44,125  L 44,126  L 43,126  L 43,128  L 42,128  L 42,130  L 41,130  L 41,131  L 40,131  L 40,132  L 39,132  L 39,134  L 38,134  L 38,135  L 37,135  L 37,136  L 36,136  L 36,138  L 35,138  L 35,140  L 34,140  L 34,141  L 33,141  L 33,142  L 32,142  L 32,143  L 31,143  L 31,145  L 30,145  L 30,146  L 29,146  L 29,147  L 28,147  L 28,148  L 27,148  L 27,149  L 26,149  L 26,150  L 25,150  L 25,151  L 24,151  L 24,152  L 23,152  L 23,156  L 24,156  L 24,157  L 30,157  L 30,156  L 31,156  L 31,155  L 32,155  L 32,154  L 33,154  L 33,153  L 34,153  L 34,151  L 35,151  L 35,150  L 36,150  L 36,149  L 37,149  L 37,148  L 38,148  L 38,147  L 39,147  L 39,146  L 40,146  L 40,144  L 41,144  L 41,143  L 42,143  L 42,141  L 43,141  L 43,139  L 44,139  L 44,138  L 45,138  L 45,136  L 46,136  L 46,135  L 47,135  L 47,134  L 48,134  L 48,132  L 49,132  L 49,131  L 50,131  L 50,129  L 51,129  L 51,128  L 52,128  L 52,126  L 53,126  L 53,124  L 54,124  L 54,123  L 55,123  L 55,122  L 56,122  L 56,123  L 59,123  L 59,125  L 61,125  L 61,126  L 62,126  L 62,127  L 63,127  L 63,128  L 64,128  L 64,129  L 65,129  L 65,130  L 67,130  L 67,131  L 68,131  L 68,132  L 70,132  L 70,133  L 71,133  L 71,134  L 73,134  L 73,135  L 74,135  L 74,136  L 75,136  L 75,137  L 78,137  L 78,139  L 80,139  L 80,140  L 83,140  L 83,141  L 84,141  L 84,142  L 86,142  L 86,143  L 88,143  L 88,144  L 89,144  L 89,145  L 93,145  L 93,146  L 94,146  L 94,147  L 96,147  L 96,148  L 98,148  L 98,149  L 99,149  L 99,150  L 101,150  L 101,151  L 103,151  L 103,152  L 105,152  L 105,151  L 107,151  L 107,145  L 106,145  L 106,144  L 104,144  L 104,143  L 102,143  L 102,142  L 101,142  L 101,141  Z  " style="fill:rgb(0, 0, 0); fill-opacity:1.000; stroke:none;" />
 <path d="  M 99,32  L 98,32  L 98,33  L 97,33  L 97,34  L 95,34  L 95,35  L 80,35  L 80,36  L 79,36  L 79,35  L 78,35  L 78,36  L 66,36  L 66,37  L 61,37  L 61,38  L 59,38  L 59,39  L 58,39  L 58,40  L 57,40  L 57,41  L 56,41  L 56,43  L 57,43  L 57,44  L 58,44  L 58,45  L 61,45  L 61,44  L 64,44  L 64,43  L 65,43  L 65,44  L 68,44  L 68,43  L 69,43  L 69,44  L 71,44  L 71,43  L 88,43  L 88,42  L 90,42  L 90,43  L 91,43  L 91,42  L 99,42  L 99,43  L 100,43  L 100,47  L 99,47  L 99,53  L 100,53  L 100,55  L 99,55  L 99,56  L 100,56  L 100,59  L 99,59  L 99,60  L 100,60  L 100,63  L 99,63  L 99,64  L 100,64  L 100,98  L 101,98  L 101,99  L 103,99  L 103,98  L 105,98  L 105,97  L 107,97  L 107,34  L 106,34  L 106,3  L 105,3  L 105,1  L 104,1  L 104,0  L 100,0  L 100,1  L 99,1  L 99,23  L 98,23  L 98,25  L 99,25  L 99,27  L 98,27  L 98,29  L 99,29  Z  " style="fill:rgb(0, 0, 0); fill-opacity:1.000; stroke:none;" />
</svg>
