<?xml version="1.0" encoding="UTF-8" standalone="no"?>
<!DOCTYPE svg PUBLIC "-//W3C//DTD SVG 1.1//EN" 
  "http://www.w3.org/Graphics/SVG/1.1/DTD/svg11.dtd">
<svg width="109" height="93"
     xmlns="http://www.w3.org/2000/svg" version="1.1">
 <path d="  M 88,46  L 87,46  L 87,45  L 88,45  L 88,44  L 87,44  L 87,33  L 88,33  L 88,32  L 87,32  L 87,31  L 88,31  L 88,30  L 87,30  L 87,18  L 86,18  L 86,9  L 85,9  L 85,8  L 82,8  L 82,9  L 80,9  L 80,10  L 79,10  L 79,12  L 78,12  L 78,13  L 79,13  L 79,16  L 78,16  L 78,17  L 79,17  L 79,32  L 78,32  L 78,33  L 77,33  L 77,34  L 75,34  L 75,33  L 74,33  L 74,34  L 70,34  L 70,35  L 65,35  L 65,34  L 64,34  L 64,35  L 62,35  L 62,34  L 59,34  L 59,33  L 58,33  L 58,28  L 59,28  L 59,27  L 58,27  L 58,21  L 57,21  L 57,20  L 55,20  L 55,19  L 51,19  L 51,18  L 50,18  L 50,17  L 46,17  L 46,16  L 34,16  L 34,15  L 33,15  L 33,16  L 31,16  L 31,15  L 27,15  L 27,14  L 26,14  L 26,15  L 11,15  L 11,14  L 9,14  L 9,15  L 5,15  L 5,16  L 3,16  L 3,17  L 1,17  L 1,18  L 0,18  L 0,19  L 1,19  L 1,20  L 0,20  L 0,21  L 1,21  L 1,22  L 0,22  L 0,23  L 1,23  L 1,25  L 2,25  L 2,26  L 4,26  L 4,27  L 5,27  L 5,26  L 6,26  L 6,27  L 7,27  L 7,26  L 11,26  L 11,25  L 14,25  L 14,24  L 17,24  L 17,23  L 23,23  L 23,22  L 29,22  L 29,23  L 31,23  L 31,22  L 32,22  L 32,23  L 39,23  L 39,24  L 42,24  L 42,25  L 45,25  L 45,24  L 48,24  L 48,25  L 49,25  L 49,28  L 50,28  L 50,37  L 49,37  L 49,39  L 48,39  L 48,42  L 47,42  L 47,45  L 46,45  L 46,46  L 45,46  L 45,50  L 44,50  L 44,53  L 43,53  L 43,55  L 42,55  L 42,57  L 41,57  L 41,58  L 40,58  L 40,59  L 39,59  L 39,60  L 38,60  L 38,61  L 37,61  L 37,63  L 36,63  L 36,64  L 35,64  L 35,65  L 34,65  L 34,66  L 33,66  L 33,67  L 32,67  L 32,69  L 31,69  L 31,70  L 29,70  L 29,71  L 28,71  L 28,73  L 27,73  L 27,74  L 26,74  L 26,75  L 25,75  L 25,77  L 24,77  L 24,78  L 23,78  L 23,79  L 22,79  L 22,80  L 21,80  L 21,81  L 20,81  L 20,82  L 19,82  L 19,84  L 17,84  L 17,86  L 16,86  L 16,87  L 15,87  L 15,89  L 14,89  L 14,93  L 20,93  L 20,92  L 22,92  L 22,90  L 23,90  L 23,89  L 24,89  L 24,88  L 25,88  L 25,87  L 26,87  L 26,86  L 27,86  L 27,84  L 28,84  L 28,82  L 29,82  L 29,81  L 30,81  L 30,80  L 31,80  L 31,78  L 33,78  L 33,76  L 34,76  L 34,75  L 35,75  L 35,74  L 36,74  L 36,73  L 37,73  L 37,71  L 38,71  L 38,70  L 39,70  L 39,69  L 40,69  L 40,68  L 41,68  L 41,67  L 42,67  L 42,66  L 43,66  L 43,65  L 44,65  L 44,63  L 45,63  L 45,62  L 46,62  L 46,61  L 47,61  L 47,59  L 48,59  L 48,58  L 49,58  L 49,56  L 50,56  L 50,54  L 51,54  L 51,52  L 52,52  L 52,49  L 53,49  L 53,47  L 54,47  L 54,44  L 55,44  L 55,43  L 56,43  L 56,42  L 57,42  L 57,41  L 59,41  L 59,40  L 60,40  L 60,41  L 63,41  L 63,40  L 64,40  L 64,41  L 66,41  L 66,40  L 78,40  L 78,41  L 79,41  L 79,57  L 80,57  L 80,58  L 79,58  L 79,61  L 80,61  L 80,62  L 79,62  L 79,80  L 78,80  L 78,81  L 79,81  L 79,84  L 78,84  L 78,85  L 79,85  L 79,88  L 82,88  L 82,87  L 83,87  L 83,88  L 84,88  L 84,87  L 85,87  L 85,85  L 86,85  L 86,73  L 87,73  L 87,72  L 86,72  L 86,71  L 87,71  L 87,61  L 88,61  L 88,60  L 87,60  L 87,57  L 88,57  L 88,56  L 87,56  L 87,55  L 88,55  L 88,54  L 87,54  L 87,53  L 88,53  L 88,52  L 87,52  L 87,49  L 88,49  L 88,48  L 87,48  L 87,47  L 88,47  Z  " style="fill:rgb(0, 0, 0); fill-opacity:1.000; stroke:none;" />
 <path d="  M 38,48  L 38,47  L 40,47  L 40,46  L 41,46  L 41,45  L 43,45  L 43,44  L 44,44  L 44,42  L 45,42  L 45,41  L 46,41  L 46,40  L 45,40  L 45,37  L 44,37  L 44,38  L 40,38  L 40,39  L 36,39  L 36,40  L 33,40  L 33,41  L 29,41  L 29,42  L 26,42  L 26,43  L 23,43  L 23,44  L 18,44  L 18,45  L 16,45  L 16,46  L 13,46  L 13,47  L 9,47  L 9,48  L 6,48  L 6,49  L 5,49  L 5,50  L 4,50  L 4,51  L 3,51  L 3,53  L 2,53  L 2,56  L 4,56  L 4,55  L 7,55  L 7,54  L 10,54  L 10,53  L 14,53  L 14,52  L 17,52  L 17,51  L 22,51  L 22,50  L 25,50  L 25,49  L 26,49  L 26,50  L 27,50  L 27,49  L 34,49  L 34,48  L 35,48  L 35,49  L 36,49  L 36,48  Z  " style="fill:rgb(0, 0, 0); fill-opacity:1.000; stroke:none;" />
 <path d="  M 104,20  L 104,67  L 103,67  L 103,68  L 104,68  L 104,71  L 103,71  L 103,74  L 104,74  L 104,75  L 103,75  L 103,91  L 104,91  L 104,93  L 105,93  L 105,92  L 108,92  L 108,93  L 109,93  L 109,2  L 108,2  L 108,1  L 107,1  L 107,0  L 105,0  L 105,1  L 103,1  L 103,20  Z  " style="fill:rgb(0, 0, 0); fill-opacity:1.000; stroke:none;" />
</svg>
