<?xml version="1.0" encoding="UTF-8" standalone="no"?>
<!DOCTYPE svg PUBLIC "-//W3C//DTD SVG 1.1//EN" 
  "http://www.w3.org/Graphics/SVG/1.1/DTD/svg11.dtd">
<svg width="102" height="148"
     xmlns="http://www.w3.org/2000/svg" version="1.1">
 <path d="  M 74,74  L 75,74  L 75,75  L 76,75  L 76,74  L 77,74  L 77,75  L 78,75  L 78,74  L 79,74  L 79,75  L 80,75  L 80,73  L 81,73  L 81,71  L 82,71  L 82,2  L 80,2  L 80,1  L 79,1  L 79,0  L 78,0  L 78,1  L 75,1  L 75,5  L 74,5  L 74,7  L 75,7  L 75,8  L 74,8  L 74,26  L 73,26  L 73,27  L 71,27  L 71,26  L 69,26  L 69,27  L 68,27  L 68,26  L 65,26  L 65,27  L 64,27  L 64,26  L 63,26  L 63,27  L 62,27  L 62,26  L 61,26  L 61,27  L 60,27  L 60,26  L 59,26  L 59,27  L 58,27  L 58,26  L 57,26  L 57,27  L 55,27  L 55,26  L 50,26  L 50,24  L 51,24  L 51,20  L 52,20  L 52,18  L 53,18  L 53,15  L 54,15  L 54,8  L 53,8  L 53,7  L 52,7  L 52,6  L 50,6  L 50,5  L 49,5  L 49,4  L 47,4  L 47,3  L 46,3  L 46,2  L 26,2  L 26,3  L 23,3  L 23,2  L 22,2  L 22,3  L 15,3  L 15,4  L 9,4  L 9,5  L 5,5  L 5,6  L 4,6  L 4,9  L 5,9  L 5,10  L 6,10  L 6,11  L 13,11  L 13,10  L 25,10  L 25,9  L 26,9  L 26,10  L 27,10  L 27,9  L 35,9  L 35,8  L 42,8  L 42,9  L 47,9  L 47,12  L 48,12  L 48,13  L 47,13  L 47,16  L 46,16  L 46,18  L 45,18  L 45,21  L 44,21  L 44,25  L 43,25  L 43,28  L 42,28  L 42,29  L 41,29  L 41,30  L 40,30  L 40,31  L 36,31  L 36,32  L 33,32  L 33,33  L 25,33  L 25,34  L 17,34  L 17,35  L 15,35  L 15,34  L 14,34  L 14,35  L 11,35  L 11,36  L 6,36  L 6,37  L 2,37  L 2,38  L 1,38  L 1,39  L 0,39  L 0,43  L 2,43  L 2,44  L 7,44  L 7,43  L 10,43  L 10,42  L 15,42  L 15,41  L 19,41  L 19,40  L 29,40  L 29,39  L 32,39  L 32,40  L 33,40  L 33,39  L 36,39  L 36,44  L 35,44  L 35,48  L 34,48  L 34,51  L 33,51  L 33,53  L 32,53  L 32,55  L 31,55  L 31,57  L 30,57  L 30,59  L 29,59  L 29,60  L 28,60  L 28,62  L 27,62  L 27,64  L 26,64  L 26,65  L 25,65  L 25,67  L 24,67  L 24,69  L 23,69  L 23,73  L 24,73  L 24,75  L 25,75  L 25,76  L 26,76  L 26,75  L 28,75  L 28,74  L 29,74  L 29,73  L 30,73  L 30,72  L 31,72  L 31,70  L 32,70  L 32,68  L 33,68  L 33,66  L 34,66  L 34,65  L 35,65  L 35,63  L 36,63  L 36,61  L 37,61  L 37,59  L 38,59  L 38,57  L 39,57  L 39,55  L 40,55  L 40,52  L 41,52  L 41,50  L 42,50  L 42,46  L 43,46  L 43,44  L 44,44  L 44,42  L 45,42  L 45,36  L 46,36  L 46,34  L 50,34  L 50,33  L 51,33  L 51,34  L 52,34  L 52,33  L 63,33  L 63,34  L 64,34  L 64,33  L 68,33  L 68,34  L 71,34  L 71,33  L 72,33  L 72,34  L 73,34  L 73,35  L 74,35  Z  " style="fill:rgb(0, 0, 0); fill-opacity:1.000; stroke:none;" />
 <path d="  M 37,101  L 41,101  L 41,100  L 52,100  L 52,99  L 63,99  L 63,98  L 78,98  L 78,99  L 79,99  L 79,98  L 80,98  L 80,99  L 84,99  L 84,100  L 85,100  L 85,101  L 86,101  L 86,103  L 87,103  L 87,106  L 86,106  L 86,110  L 85,110  L 85,112  L 84,112  L 84,116  L 83,116  L 83,119  L 82,119  L 82,124  L 81,124  L 81,125  L 82,125  L 82,126  L 81,126  L 81,136  L 80,136  L 80,137  L 81,137  L 81,139  L 80,139  L 80,146  L 81,146  L 81,148  L 87,148  L 87,147  L 88,147  L 88,146  L 87,146  L 87,145  L 88,145  L 88,139  L 89,139  L 89,138  L 88,138  L 88,131  L 89,131  L 89,130  L 88,130  L 88,127  L 89,127  L 89,126  L 88,126  L 88,124  L 89,124  L 89,121  L 90,121  L 90,120  L 89,120  L 89,119  L 90,119  L 90,116  L 91,116  L 91,113  L 92,113  L 92,111  L 93,111  L 93,107  L 94,107  L 94,102  L 93,102  L 93,99  L 92,99  L 92,97  L 91,97  L 91,96  L 90,96  L 90,95  L 89,95  L 89,94  L 87,94  L 87,93  L 85,93  L 85,92  L 80,92  L 80,91  L 64,91  L 64,92  L 49,92  L 49,93  L 37,93  L 37,94  L 33,94  L 33,95  L 32,95  L 32,97  L 31,97  L 31,100  L 32,100  L 32,101  L 33,101  L 33,102  L 37,102  Z  " style="fill:rgb(0, 0, 0); fill-opacity:1.000; stroke:none;" />
 <path d="  M 94,21  L 95,21  L 95,80  L 97,80  L 97,81  L 100,81  L 100,80  L 102,80  L 102,6  L 101,6  L 101,5  L 99,5  L 99,4  L 95,4  L 95,5  L 94,5  Z  " style="fill:rgb(0, 0, 0); fill-opacity:1.000; stroke:none;" />
</svg>
