<?xml version="1.0" encoding="UTF-8" standalone="no"?>
<!DOCTYPE svg PUBLIC "-//W3C//DTD SVG 1.1//EN" 
  "http://www.w3.org/Graphics/SVG/1.1/DTD/svg11.dtd">
<svg width="103" height="161"
     xmlns="http://www.w3.org/2000/svg" version="1.1">
 <path d="  M 13,15  L 13,14  L 18,14  L 18,13  L 19,13  L 19,14  L 20,14  L 20,13  L 26,13  L 26,12  L 34,12  L 34,11  L 35,11  L 35,12  L 37,12  L 37,11  L 43,11  L 43,12  L 44,12  L 44,19  L 43,19  L 43,20  L 44,20  L 44,21  L 43,21  L 43,23  L 42,23  L 42,24  L 41,24  L 41,27  L 40,27  L 40,30  L 39,30  L 39,32  L 37,32  L 37,33  L 36,33  L 36,34  L 33,34  L 33,35  L 30,35  L 30,36  L 25,36  L 25,37  L 22,37  L 22,38  L 15,38  L 15,39  L 10,39  L 10,40  L 7,40  L 7,41  L 4,41  L 4,42  L 1,42  L 1,45  L 0,45  L 0,48  L 1,48  L 1,49  L 4,49  L 4,48  L 8,48  L 8,47  L 10,47  L 10,46  L 14,46  L 14,45  L 21,45  L 21,44  L 29,44  L 29,43  L 31,43  L 31,44  L 33,44  L 33,45  L 34,45  L 34,46  L 33,46  L 33,50  L 32,50  L 32,51  L 31,51  L 31,54  L 30,54  L 30,57  L 29,57  L 29,59  L 28,59  L 28,61  L 27,61  L 27,62  L 26,62  L 26,64  L 25,64  L 25,66  L 24,66  L 24,68  L 23,68  L 23,69  L 22,69  L 22,71  L 21,71  L 21,72  L 20,72  L 20,74  L 19,74  L 19,75  L 18,75  L 18,78  L 19,78  L 19,79  L 24,79  L 24,78  L 25,78  L 25,77  L 27,77  L 27,75  L 28,75  L 28,74  L 29,74  L 29,72  L 30,72  L 30,70  L 31,70  L 31,69  L 32,69  L 32,67  L 33,67  L 33,65  L 34,65  L 34,63  L 35,63  L 35,61  L 36,61  L 36,59  L 37,59  L 37,56  L 38,56  L 38,54  L 39,54  L 39,52  L 40,52  L 40,49  L 41,49  L 41,47  L 42,47  L 42,42  L 43,42  L 43,41  L 44,41  L 44,40  L 45,40  L 45,39  L 62,39  L 62,40  L 66,40  L 66,39  L 67,39  L 67,40  L 70,40  L 70,41  L 71,41  L 71,40  L 72,40  L 72,41  L 73,41  L 73,78  L 74,78  L 74,79  L 75,79  L 75,81  L 76,81  L 76,82  L 77,82  L 77,81  L 79,81  L 79,79  L 80,79  L 80,78  L 81,78  L 81,25  L 82,25  L 82,1  L 81,1  L 81,0  L 77,0  L 77,1  L 76,1  L 76,3  L 75,3  L 75,26  L 74,26  L 74,32  L 73,32  L 73,33  L 69,33  L 69,32  L 68,32  L 68,33  L 67,33  L 67,32  L 66,32  L 66,33  L 65,33  L 65,32  L 64,32  L 64,33  L 59,33  L 59,32  L 48,32  L 48,31  L 47,31  L 47,30  L 48,30  L 48,27  L 49,27  L 49,24  L 50,24  L 50,22  L 51,22  L 51,17  L 52,17  L 52,16  L 51,16  L 51,13  L 52,13  L 52,12  L 51,12  L 51,10  L 50,10  L 50,9  L 49,9  L 49,7  L 48,7  L 48,6  L 47,6  L 47,5  L 46,5  L 46,4  L 44,4  L 44,3  L 43,3  L 43,4  L 32,4  L 32,5  L 31,5  L 31,4  L 29,4  L 29,5  L 23,5  L 23,6  L 17,6  L 17,7  L 13,7  L 13,8  L 5,8  L 5,9  L 2,9  L 2,11  L 1,11  L 1,13  L 2,13  L 2,14  L 3,14  L 3,15  L 4,15  L 4,16  L 5,16  L 5,17  L 6,17  L 6,16  L 10,16  L 10,15  Z  " style="fill:rgb(0, 0, 0); fill-opacity:1.000; stroke:none;" />
 <path d="  M 51,133  L 51,132  L 53,132  L 53,131  L 55,131  L 55,130  L 58,130  L 58,129  L 60,129  L 60,128  L 64,128  L 64,127  L 66,127  L 66,126  L 69,126  L 69,125  L 72,125  L 72,124  L 74,124  L 74,123  L 78,123  L 78,122  L 79,122  L 79,121  L 82,121  L 82,120  L 83,120  L 83,119  L 84,119  L 84,118  L 85,118  L 85,117  L 86,117  L 86,115  L 87,115  L 87,110  L 86,110  L 86,108  L 85,108  L 85,105  L 84,105  L 84,103  L 83,103  L 83,102  L 82,102  L 82,101  L 81,101  L 81,100  L 80,100  L 80,99  L 79,99  L 79,98  L 77,98  L 77,97  L 75,97  L 75,96  L 71,96  L 71,95  L 68,95  L 68,94  L 67,94  L 67,95  L 66,95  L 66,94  L 43,94  L 43,95  L 40,95  L 40,96  L 39,96  L 39,97  L 37,97  L 37,98  L 36,98  L 36,100  L 35,100  L 35,103  L 42,103  L 42,102  L 45,102  L 45,101  L 53,101  L 53,100  L 63,100  L 63,101  L 70,101  L 70,102  L 71,102  L 71,103  L 73,103  L 73,104  L 74,104  L 74,105  L 75,105  L 75,106  L 76,106  L 76,107  L 77,107  L 77,109  L 78,109  L 78,111  L 79,111  L 79,114  L 77,114  L 77,115  L 75,115  L 75,116  L 73,116  L 73,117  L 70,117  L 70,118  L 67,118  L 67,119  L 65,119  L 65,120  L 61,120  L 61,121  L 59,121  L 59,122  L 57,122  L 57,123  L 54,123  L 54,124  L 51,124  L 51,125  L 50,125  L 50,126  L 47,126  L 47,127  L 44,127  L 44,128  L 43,128  L 43,129  L 42,129  L 42,130  L 39,130  L 39,131  L 37,131  L 37,132  L 36,132  L 36,133  L 35,133  L 35,135  L 33,135  L 33,136  L 32,136  L 32,138  L 31,138  L 31,144  L 30,144  L 30,145  L 31,145  L 31,150  L 32,150  L 32,152  L 33,152  L 33,155  L 34,155  L 34,156  L 35,156  L 35,157  L 34,157  L 34,158  L 35,158  L 35,159  L 38,159  L 38,160  L 43,160  L 43,161  L 66,161  L 66,160  L 70,160  L 70,159  L 74,159  L 74,158  L 77,158  L 77,157  L 80,157  L 80,156  L 82,156  L 82,155  L 84,155  L 84,154  L 87,154  L 87,153  L 89,153  L 89,152  L 91,152  L 91,151  L 93,151  L 93,150  L 95,150  L 95,149  L 96,149  L 96,148  L 97,148  L 97,147  L 98,147  L 98,146  L 99,146  L 99,145  L 100,145  L 100,142  L 99,142  L 99,141  L 95,141  L 95,142  L 93,142  L 93,143  L 91,143  L 91,144  L 89,144  L 89,145  L 87,145  L 87,146  L 85,146  L 85,147  L 84,147  L 84,148  L 81,148  L 81,149  L 79,149  L 79,150  L 77,150  L 77,151  L 74,151  L 74,152  L 69,152  L 69,153  L 65,153  L 65,154  L 59,154  L 59,155  L 58,155  L 58,154  L 57,154  L 57,155  L 56,155  L 56,154  L 55,154  L 55,155  L 54,155  L 54,154  L 53,154  L 53,155  L 50,155  L 50,154  L 43,154  L 43,153  L 40,153  L 40,152  L 39,152  L 39,147  L 38,147  L 38,146  L 39,146  L 39,144  L 38,144  L 38,142  L 39,142  L 39,139  L 40,139  L 40,138  L 41,138  L 41,137  L 43,137  L 43,136  L 44,136  L 44,135  L 46,135  L 46,134  L 49,134  L 49,133  Z  " style="fill:rgb(0, 0, 0); fill-opacity:1.000; stroke:none;" />
 <path d="  M 103,2  L 102,2  L 102,1  L 101,1  L 101,0  L 97,0  L 97,4  L 96,4  L 96,7  L 97,7  L 97,8  L 96,8  L 96,62  L 95,62  L 95,63  L 96,63  L 96,66  L 95,66  L 95,67  L 96,67  L 96,70  L 95,70  L 95,71  L 96,71  L 96,72  L 95,72  L 95,73  L 96,73  L 96,74  L 95,74  L 95,75  L 96,75  L 96,78  L 95,78  L 95,79  L 96,79  L 96,80  L 95,80  L 95,81  L 96,81  L 96,82  L 95,82  L 95,84  L 96,84  L 96,85  L 95,85  L 95,91  L 99,91  L 99,90  L 100,90  L 100,89  L 101,89  L 101,86  L 102,86  L 102,83  L 103,83  Z  " style="fill:rgb(0, 0, 0); fill-opacity:1.000; stroke:none;" />
</svg>
