<?xml version="1.0" encoding="UTF-8" standalone="no"?>
<!DOCTYPE svg PUBLIC "-//W3C//DTD SVG 1.1//EN" 
  "http://www.w3.org/Graphics/SVG/1.1/DTD/svg11.dtd">
<svg width="107" height="118"
     xmlns="http://www.w3.org/2000/svg" version="1.1">
 <path d="  M 52,28  L 52,29  L 54,29  L 54,30  L 55,30  L 55,31  L 56,31  L 56,33  L 57,33  L 57,35  L 56,35  L 56,40  L 55,40  L 55,43  L 54,43  L 54,45  L 53,45  L 53,46  L 52,46  L 52,48  L 51,48  L 51,49  L 50,49  L 50,48  L 49,48  L 49,47  L 48,47  L 48,48  L 46,48  L 46,49  L 43,49  L 43,50  L 38,50  L 38,51  L 35,51  L 35,52  L 33,52  L 33,53  L 30,53  L 30,54  L 26,54  L 26,55  L 23,55  L 23,56  L 21,56  L 21,57  L 18,57  L 18,58  L 13,58  L 13,59  L 11,59  L 11,60  L 8,60  L 8,61  L 5,61  L 5,63  L 4,63  L 4,64  L 3,64  L 3,67  L 4,67  L 4,68  L 9,68  L 9,67  L 11,67  L 11,66  L 14,66  L 14,65  L 17,65  L 17,64  L 19,64  L 19,63  L 24,63  L 24,62  L 25,62  L 25,61  L 26,61  L 26,62  L 27,62  L 27,61  L 30,61  L 30,60  L 34,60  L 34,59  L 42,59  L 42,58  L 44,58  L 44,57  L 46,57  L 46,56  L 47,56  L 47,55  L 48,55  L 48,54  L 49,54  L 49,59  L 48,59  L 48,60  L 47,60  L 47,65  L 46,65  L 46,67  L 45,67  L 45,68  L 44,68  L 44,70  L 43,70  L 43,71  L 42,71  L 42,73  L 41,73  L 41,74  L 40,74  L 40,76  L 39,76  L 39,78  L 38,78  L 38,79  L 37,79  L 37,80  L 36,80  L 36,82  L 35,82  L 35,84  L 34,84  L 34,86  L 33,86  L 33,88  L 32,88  L 32,89  L 31,89  L 31,91  L 30,91  L 30,92  L 29,92  L 29,94  L 28,94  L 28,96  L 27,96  L 27,97  L 26,97  L 26,98  L 25,98  L 25,100  L 24,100  L 24,101  L 23,101  L 23,102  L 21,102  L 21,104  L 20,104  L 20,105  L 19,105  L 19,108  L 20,108  L 20,109  L 21,109  L 21,111  L 26,111  L 26,110  L 27,110  L 27,109  L 28,109  L 28,108  L 29,108  L 29,107  L 30,107  L 30,105  L 31,105  L 31,104  L 32,104  L 32,103  L 33,103  L 33,101  L 34,101  L 34,99  L 35,99  L 35,97  L 36,97  L 36,96  L 37,96  L 37,94  L 38,94  L 38,91  L 39,91  L 39,89  L 40,89  L 40,88  L 41,88  L 41,86  L 42,86  L 42,85  L 43,85  L 43,83  L 44,83  L 44,81  L 45,81  L 45,80  L 46,80  L 46,79  L 47,79  L 47,77  L 48,77  L 48,75  L 49,75  L 49,74  L 50,74  L 50,72  L 51,72  L 51,70  L 52,70  L 52,68  L 53,68  L 53,66  L 54,66  L 54,64  L 55,64  L 55,61  L 56,61  L 56,59  L 57,59  L 57,56  L 58,56  L 58,54  L 59,54  L 59,51  L 60,51  L 60,49  L 61,49  L 61,46  L 62,46  L 62,44  L 63,44  L 63,41  L 64,41  L 64,40  L 65,40  L 65,34  L 64,34  L 64,30  L 63,30  L 63,29  L 62,29  L 62,27  L 61,27  L 61,26  L 60,26  L 60,25  L 59,25  L 59,24  L 58,24  L 58,23  L 56,23  L 56,22  L 50,22  L 50,21  L 43,21  L 43,20  L 37,20  L 37,19  L 36,19  L 36,20  L 35,20  L 35,19  L 20,19  L 20,20  L 7,20  L 7,21  L 5,21  L 5,22  L 3,22  L 3,24  L 1,24  L 1,27  L 0,27  L 0,31  L 1,31  L 1,32  L 2,32  L 2,33  L 3,33  L 3,34  L 4,34  L 4,33  L 7,33  L 7,31  L 8,31  L 8,30  L 12,30  L 12,29  L 15,29  L 15,28  L 18,28  L 18,27  L 23,27  L 23,26  L 37,26  L 37,27  L 38,27  L 38,26  L 41,26  L 41,27  L 42,27  L 42,26  L 43,26  L 43,27  L 48,27  L 48,28  Z  " style="fill:rgb(0, 0, 0); fill-opacity:1.000; stroke:none;" />
 <path d="  M 101,27  L 102,27  L 102,28  L 101,28  L 101,30  L 90,30  L 90,31  L 87,31  L 87,30  L 86,30  L 86,31  L 77,31  L 77,32  L 71,32  L 71,33  L 70,33  L 70,34  L 69,34  L 69,35  L 68,35  L 68,36  L 69,36  L 69,37  L 70,37  L 70,38  L 79,38  L 79,37  L 80,37  L 80,38  L 81,38  L 81,37  L 82,37  L 82,38  L 83,38  L 83,37  L 84,37  L 84,38  L 85,38  L 85,37  L 86,37  L 86,38  L 87,38  L 87,37  L 88,37  L 88,38  L 89,38  L 89,37  L 90,37  L 90,38  L 91,38  L 91,37  L 96,37  L 96,38  L 100,38  L 100,55  L 99,55  L 99,56  L 96,56  L 96,57  L 90,57  L 90,58  L 85,58  L 85,59  L 83,59  L 83,58  L 82,58  L 82,59  L 79,59  L 79,58  L 78,58  L 78,59  L 67,59  L 67,58  L 64,58  L 64,59  L 63,59  L 63,62  L 64,62  L 64,63  L 65,63  L 65,64  L 67,64  L 67,65  L 70,65  L 70,66  L 72,66  L 72,65  L 73,65  L 73,66  L 75,66  L 75,65  L 78,65  L 78,66  L 79,66  L 79,65  L 83,65  L 83,64  L 84,64  L 84,65  L 85,65  L 85,64  L 91,64  L 91,63  L 92,63  L 92,64  L 93,64  L 93,63  L 99,63  L 99,65  L 100,65  L 100,67  L 99,67  L 99,69  L 100,69  L 100,71  L 99,71  L 99,73  L 100,73  L 100,75  L 99,75  L 99,118  L 106,118  L 106,116  L 107,116  L 107,5  L 106,5  L 106,2  L 105,2  L 105,1  L 104,1  L 104,0  L 100,0  L 100,2  L 99,2  L 99,6  L 100,6  L 100,11  L 101,11  Z  " style="fill:rgb(0, 0, 0); fill-opacity:1.000; stroke:none;" />
</svg>
