<?xml version="1.0" encoding="UTF-8" standalone="no"?>
<!DOCTYPE svg PUBLIC "-//W3C//DTD SVG 1.1//EN" 
  "http://www.w3.org/Graphics/SVG/1.1/DTD/svg11.dtd">
<svg width="105" height="181"
     xmlns="http://www.w3.org/2000/svg" version="1.1">
 <path d="  M 3,5  L 3,2  L 2,2  L 2,0  L 1,0  L 1,6  L 2,6  L 2,5  Z  " style="fill:rgb(0, 0, 0); fill-opacity:1.000; stroke:none;" />
 <path d="  M 3,60  L 3,61  L 6,61  L 6,60  L 9,60  L 9,59  L 11,59  L 11,58  L 18,58  L 18,57  L 36,57  L 36,62  L 35,62  L 35,64  L 34,64  L 34,67  L 33,67  L 33,70  L 32,70  L 32,72  L 31,72  L 31,74  L 30,74  L 30,76  L 29,76  L 29,78  L 28,78  L 28,81  L 27,81  L 27,83  L 26,83  L 26,85  L 25,85  L 25,86  L 24,86  L 24,88  L 23,88  L 23,89  L 22,89  L 22,90  L 21,90  L 21,91  L 20,91  L 20,92  L 19,92  L 19,93  L 18,93  L 18,98  L 19,98  L 19,97  L 20,97  L 20,98  L 23,98  L 23,97  L 26,97  L 26,96  L 27,96  L 27,95  L 28,95  L 28,93  L 29,93  L 29,91  L 30,91  L 30,90  L 31,90  L 31,89  L 32,89  L 32,87  L 33,87  L 33,86  L 34,86  L 34,84  L 35,84  L 35,82  L 36,82  L 36,79  L 37,79  L 37,77  L 38,77  L 38,75  L 39,75  L 39,73  L 40,73  L 40,71  L 41,71  L 41,69  L 42,69  L 42,66  L 43,66  L 43,62  L 44,62  L 44,60  L 45,60  L 45,58  L 46,58  L 46,55  L 47,55  L 47,53  L 48,53  L 48,50  L 49,50  L 49,47  L 50,47  L 50,45  L 51,45  L 51,44  L 52,44  L 52,42  L 53,42  L 53,41  L 54,41  L 54,39  L 55,39  L 55,38  L 56,38  L 56,35  L 57,35  L 57,32  L 56,32  L 56,31  L 57,31  L 57,28  L 56,28  L 56,24  L 55,24  L 55,21  L 54,21  L 54,20  L 53,20  L 53,18  L 52,18  L 52,17  L 51,17  L 51,16  L 50,16  L 50,15  L 47,15  L 47,14  L 41,14  L 41,13  L 11,13  L 11,14  L 5,14  L 5,15  L 4,15  L 4,16  L 3,16  L 3,17  L 2,17  L 2,24  L 7,24  L 7,23  L 9,23  L 9,22  L 11,22  L 11,21  L 16,21  L 16,20  L 37,20  L 37,21  L 38,21  L 38,20  L 39,20  L 39,21  L 44,21  L 44,22  L 46,22  L 46,23  L 48,23  L 48,26  L 49,26  L 49,31  L 48,31  L 48,35  L 47,35  L 47,38  L 46,38  L 46,39  L 45,39  L 45,42  L 44,42  L 44,43  L 43,43  L 43,45  L 42,45  L 42,46  L 41,46  L 41,47  L 40,47  L 40,48  L 39,48  L 39,49  L 37,49  L 37,48  L 29,48  L 29,49  L 21,49  L 21,50  L 13,50  L 13,51  L 7,51  L 7,52  L 4,52  L 4,53  L 2,53  L 2,58  L 1,58  L 1,59  L 2,59  L 2,60  Z  " style="fill:rgb(0, 0, 0); fill-opacity:1.000; stroke:none;" />
 <path d="  M 53,181  L 69,181  L 69,180  L 72,180  L 72,179  L 76,179  L 76,178  L 78,178  L 78,177  L 80,177  L 80,176  L 83,176  L 83,175  L 85,175  L 85,174  L 87,174  L 87,173  L 90,173  L 90,172  L 92,172  L 92,171  L 93,171  L 93,170  L 95,170  L 95,169  L 98,169  L 98,168  L 99,168  L 99,167  L 100,167  L 100,166  L 102,166  L 102,165  L 103,165  L 103,163  L 104,163  L 104,162  L 105,162  L 105,158  L 104,158  L 104,157  L 101,157  L 101,158  L 100,158  L 100,159  L 98,159  L 98,160  L 95,160  L 95,161  L 94,161  L 94,162  L 92,162  L 92,163  L 90,163  L 90,164  L 88,164  L 88,165  L 87,165  L 87,166  L 85,166  L 85,167  L 84,167  L 84,168  L 81,168  L 81,169  L 80,169  L 80,170  L 77,170  L 77,171  L 74,171  L 74,172  L 69,172  L 69,173  L 68,173  L 68,172  L 67,172  L 67,174  L 52,174  L 52,173  L 48,173  L 48,172  L 45,172  L 45,171  L 44,171  L 44,170  L 42,170  L 42,161  L 43,161  L 43,159  L 44,159  L 44,158  L 46,158  L 46,157  L 47,157  L 47,156  L 50,156  L 50,155  L 52,155  L 52,154  L 54,154  L 54,153  L 57,153  L 57,152  L 59,152  L 59,151  L 61,151  L 61,150  L 64,150  L 64,149  L 66,149  L 66,148  L 67,148  L 67,147  L 69,147  L 69,146  L 70,146  L 70,145  L 72,145  L 72,144  L 75,144  L 75,143  L 76,143  L 76,142  L 77,142  L 77,141  L 80,141  L 80,140  L 81,140  L 81,139  L 83,139  L 83,138  L 85,138  L 85,137  L 87,137  L 87,136  L 88,136  L 88,135  L 90,135  L 90,134  L 91,134  L 91,133  L 92,133  L 92,132  L 93,132  L 93,131  L 94,131  L 94,124  L 93,124  L 93,123  L 92,123  L 92,120  L 91,120  L 91,119  L 90,119  L 90,118  L 88,118  L 88,117  L 87,117  L 87,116  L 85,116  L 85,115  L 81,115  L 81,114  L 76,114  L 76,113  L 70,113  L 70,112  L 63,112  L 63,113  L 49,113  L 49,114  L 45,114  L 45,115  L 42,115  L 42,116  L 41,116  L 41,117  L 40,117  L 40,119  L 39,119  L 39,121  L 40,121  L 40,122  L 45,122  L 45,121  L 48,121  L 48,120  L 49,120  L 49,121  L 50,121  L 50,120  L 54,120  L 54,119  L 72,119  L 72,120  L 77,120  L 77,121  L 80,121  L 80,122  L 81,122  L 81,123  L 84,123  L 84,125  L 85,125  L 85,126  L 84,126  L 84,127  L 85,127  L 85,128  L 84,128  L 84,129  L 83,129  L 83,130  L 82,130  L 82,131  L 80,131  L 80,132  L 78,132  L 78,133  L 77,133  L 77,134  L 76,134  L 76,135  L 73,135  L 73,136  L 71,136  L 71,137  L 69,137  L 69,138  L 67,138  L 67,139  L 66,139  L 66,140  L 63,140  L 63,141  L 61,141  L 61,142  L 60,142  L 60,143  L 58,143  L 58,144  L 55,144  L 55,146  L 53,146  L 53,147  L 50,147  L 50,148  L 47,148  L 47,149  L 45,149  L 45,150  L 43,150  L 43,152  L 40,152  L 40,153  L 39,153  L 39,154  L 38,154  L 38,155  L 37,155  L 37,156  L 36,156  L 36,157  L 35,157  L 35,158  L 34,158  L 34,160  L 33,160  L 33,171  L 34,171  L 34,173  L 35,173  L 35,174  L 37,174  L 37,175  L 38,175  L 38,176  L 39,176  L 39,177  L 42,177  L 42,179  L 44,179  L 44,178  L 45,178  L 45,179  L 49,179  L 49,180  L 53,180  Z  " style="fill:rgb(0, 0, 0); fill-opacity:1.000; stroke:none;" />
 <path d="  M 94,67  L 96,67  L 96,112  L 97,112  L 97,113  L 102,113  L 102,111  L 103,111  L 103,105  L 104,105  L 104,95  L 105,95  L 105,94  L 104,94  L 104,91  L 105,91  L 105,90  L 104,90  L 104,87  L 105,87  L 105,86  L 104,86  L 104,85  L 105,85  L 105,84  L 104,84  L 104,83  L 105,83  L 105,12  L 104,12  L 104,10  L 103,10  L 103,9  L 101,9  L 101,8  L 99,8  L 99,9  L 98,9  L 98,11  L 97,11  L 97,16  L 98,16  L 98,33  L 94,33  L 94,34  L 82,34  L 82,35  L 81,35  L 81,34  L 78,34  L 78,35  L 77,35  L 77,34  L 76,34  L 76,35  L 61,35  L 61,36  L 59,36  L 59,37  L 58,37  L 58,41  L 59,41  L 59,42  L 60,42  L 60,43  L 66,43  L 66,42  L 67,42  L 67,43  L 70,43  L 70,42  L 71,42  L 71,43  L 72,43  L 72,42  L 73,42  L 73,43  L 74,43  L 74,42  L 85,42  L 85,41  L 96,41  L 96,42  L 98,42  L 98,43  L 97,43  L 97,58  L 96,58  L 96,59  L 95,59  L 95,60  L 90,60  L 90,59  L 88,59  L 88,60  L 86,60  L 86,61  L 85,61  L 85,60  L 84,60  L 84,61  L 78,61  L 78,62  L 74,62  L 74,63  L 67,63  L 67,64  L 62,64  L 62,65  L 58,65  L 58,66  L 57,66  L 57,67  L 56,67  L 56,69  L 55,69  L 55,70  L 56,70  L 56,72  L 61,72  L 61,71  L 65,71  L 65,70  L 68,70  L 68,69  L 74,69  L 74,68  L 81,68  L 81,67  L 92,67  L 92,66  L 94,66  Z  " style="fill:rgb(0, 0, 0); fill-opacity:1.000; stroke:none;" />
</svg>
