<?xml version="1.0" encoding="UTF-8" standalone="no"?>
<!DOCTYPE svg PUBLIC "-//W3C//DTD SVG 1.1//EN" 
  "http://www.w3.org/Graphics/SVG/1.1/DTD/svg11.dtd">
<svg width="102" height="155"
     xmlns="http://www.w3.org/2000/svg" version="1.1">
 <path d="  M 12,6  L 12,7  L 10,7  L 10,8  L 8,8  L 8,9  L 7,9  L 7,10  L 6,10  L 6,13  L 7,13  L 7,14  L 8,14  L 8,15  L 13,15  L 13,14  L 18,14  L 18,13  L 39,13  L 39,14  L 42,14  L 42,15  L 45,15  L 45,16  L 46,16  L 46,17  L 47,17  L 47,18  L 48,18  L 48,20  L 49,20  L 49,21  L 48,21  L 48,23  L 47,23  L 47,26  L 46,26  L 46,29  L 45,29  L 45,32  L 44,32  L 44,34  L 43,34  L 43,36  L 41,36  L 41,37  L 33,37  L 33,38  L 25,38  L 25,39  L 24,39  L 24,38  L 22,38  L 22,39  L 14,39  L 14,40  L 10,40  L 10,41  L 6,41  L 6,42  L 3,42  L 3,43  L 2,43  L 2,44  L 1,44  L 1,45  L 0,45  L 0,46  L 1,46  L 1,49  L 2,49  L 2,50  L 6,50  L 6,49  L 9,49  L 9,48  L 10,48  L 10,47  L 15,47  L 15,46  L 22,46  L 22,45  L 35,45  L 35,44  L 39,44  L 39,49  L 38,49  L 38,53  L 37,53  L 37,56  L 36,56  L 36,59  L 35,59  L 35,60  L 34,60  L 34,63  L 33,63  L 33,65  L 32,65  L 32,67  L 31,67  L 31,68  L 30,68  L 30,70  L 29,70  L 29,72  L 28,72  L 28,73  L 27,73  L 27,75  L 26,75  L 26,76  L 25,76  L 25,79  L 24,79  L 24,81  L 23,81  L 23,83  L 22,83  L 22,86  L 24,86  L 24,87  L 28,87  L 28,86  L 29,86  L 29,84  L 30,84  L 30,82  L 31,82  L 31,80  L 32,80  L 32,78  L 33,78  L 33,77  L 34,77  L 34,75  L 35,75  L 35,73  L 36,73  L 36,72  L 37,72  L 37,70  L 38,70  L 38,68  L 39,68  L 39,66  L 40,66  L 40,64  L 41,64  L 41,62  L 42,62  L 42,61  L 43,61  L 43,58  L 44,58  L 44,53  L 45,53  L 45,50  L 46,50  L 46,47  L 47,47  L 47,43  L 48,43  L 48,40  L 49,40  L 49,37  L 50,37  L 50,35  L 51,35  L 51,33  L 52,33  L 52,30  L 53,30  L 53,26  L 54,26  L 54,23  L 55,23  L 55,19  L 56,19  L 56,16  L 55,16  L 55,13  L 53,13  L 53,12  L 52,12  L 52,11  L 50,11  L 50,10  L 49,10  L 49,9  L 47,9  L 47,8  L 45,8  L 45,7  L 40,7  L 40,6  Z  " style="fill:rgb(0, 0, 0); fill-opacity:1.000; stroke:none;" />
 <path d="  M 6,14  L 6,15  L 7,15  L 7,14  Z  " style="fill:rgb(0, 0, 0); fill-opacity:1.000; stroke:none;" />
 <path d="  M 39,147  L 40,147  L 40,152  L 41,152  L 41,153  L 42,153  L 42,154  L 43,154  L 43,155  L 88,155  L 88,154  L 89,154  L 89,155  L 92,155  L 92,154  L 95,154  L 95,153  L 96,153  L 96,151  L 97,151  L 97,150  L 98,150  L 98,149  L 99,149  L 99,147  L 100,147  L 100,145  L 101,145  L 101,133  L 102,133  L 102,132  L 101,132  L 101,130  L 102,130  L 102,128  L 101,128  L 101,127  L 102,127  L 102,103  L 101,103  L 101,101  L 99,101  L 99,100  L 97,100  L 97,99  L 77,99  L 77,100  L 76,100  L 76,99  L 73,99  L 73,100  L 59,100  L 59,101  L 56,101  L 56,100  L 55,100  L 55,101  L 35,101  L 35,102  L 32,102  L 32,103  L 31,103  L 31,104  L 29,104  L 29,108  L 30,108  L 30,109  L 34,109  L 34,108  L 35,108  L 35,109  L 38,109  L 38,110  L 39,110  Z  M 97,112  L 96,112  L 96,124  L 95,124  L 95,137  L 94,137  L 94,138  L 95,138  L 95,139  L 94,139  L 94,147  L 92,147  L 92,148  L 91,148  L 91,147  L 90,147  L 90,148  L 67,148  L 67,149  L 66,149  L 66,148  L 63,148  L 63,149  L 60,149  L 60,148  L 59,148  L 59,149  L 56,149  L 56,148  L 55,148  L 55,149  L 52,149  L 52,148  L 51,148  L 51,149  L 48,149  L 48,148  L 46,148  L 46,146  L 45,146  L 45,145  L 46,145  L 46,144  L 45,144  L 45,108  L 56,108  L 56,107  L 57,107  L 57,108  L 58,108  L 58,107  L 59,107  L 59,108  L 60,108  L 60,107  L 72,107  L 72,106  L 73,106  L 73,107  L 74,107  L 74,106  L 96,106  L 96,107  L 97,107  Z  " style="fill:rgb(0, 0, 0); fill-opacity:1.000; stroke:none;" />
 <path d="  M 86,46  L 86,47  L 83,47  L 83,48  L 79,48  L 79,49  L 73,49  L 73,50  L 66,50  L 66,51  L 65,51  L 65,50  L 64,50  L 64,51  L 60,51  L 60,53  L 59,53  L 59,52  L 58,52  L 58,54  L 57,54  L 57,57  L 58,57  L 58,58  L 59,58  L 59,59  L 60,59  L 60,58  L 63,58  L 63,57  L 67,57  L 67,56  L 76,56  L 76,55  L 77,55  L 77,56  L 78,56  L 78,55  L 83,55  L 83,54  L 91,54  L 91,53  L 93,53  L 93,54  L 94,54  L 94,62  L 93,62  L 93,63  L 94,63  L 94,66  L 93,66  L 93,67  L 94,67  L 94,70  L 93,70  L 93,86  L 92,86  L 92,87  L 93,87  L 93,89  L 92,89  L 92,91  L 93,91  L 93,93  L 98,93  L 98,92  L 100,92  L 100,79  L 101,79  L 101,78  L 100,78  L 100,77  L 101,77  L 101,76  L 100,76  L 100,75  L 101,75  L 101,61  L 102,61  L 102,60  L 101,60  L 101,58  L 102,58  L 102,56  L 101,56  L 101,54  L 102,54  L 102,22  L 101,22  L 101,14  L 100,14  L 100,7  L 99,7  L 99,4  L 98,4  L 98,1  L 96,1  L 96,0  L 92,0  L 92,1  L 91,1  L 91,5  L 92,5  L 92,12  L 93,12  L 93,17  L 94,17  L 94,22  L 92,22  L 92,23  L 85,23  L 85,24  L 74,24  L 74,25  L 72,25  L 72,24  L 71,24  L 71,25  L 70,25  L 70,24  L 67,24  L 67,25  L 62,25  L 62,26  L 61,26  L 61,27  L 60,27  L 60,29  L 59,29  L 59,30  L 58,30  L 58,32  L 59,32  L 59,34  L 63,34  L 63,33  L 64,33  L 64,34  L 65,34  L 65,33  L 67,33  L 67,32  L 74,32  L 74,31  L 82,31  L 82,30  L 94,30  L 94,31  L 95,31  L 95,44  L 94,44  L 94,45  L 93,45  L 93,46  Z  " style="fill:rgb(0, 0, 0); fill-opacity:1.000; stroke:none;" />
</svg>
