<?xml version="1.0" encoding="UTF-8" standalone="no"?>
<!DOCTYPE svg PUBLIC "-//W3C//DTD SVG 1.1//EN" 
  "http://www.w3.org/Graphics/SVG/1.1/DTD/svg11.dtd">
<svg width="106" height="105"
     xmlns="http://www.w3.org/2000/svg" version="1.1">
 <path d="  M 45,54  L 46,54  L 46,51  L 45,51  L 45,50  L 44,50  L 44,49  L 41,49  L 41,50  L 40,50  L 40,51  L 39,51  L 39,57  L 38,57  L 38,58  L 39,58  L 39,60  L 38,60  L 38,95  L 39,95  L 39,97  L 32,97  L 32,98  L 31,98  L 31,97  L 30,97  L 30,98  L 20,98  L 20,99  L 2,99  L 2,100  L 1,100  L 1,101  L 0,101  L 0,102  L 1,102  L 1,103  L 0,103  L 0,104  L 1,104  L 1,105  L 29,105  L 29,104  L 43,104  L 43,103  L 44,103  L 44,104  L 75,104  L 75,103  L 76,103  L 76,104  L 77,104  L 77,103  L 87,103  L 87,102  L 88,102  L 88,103  L 89,103  L 89,102  L 103,102  L 103,101  L 106,101  L 106,94  L 105,94  L 105,93  L 102,93  L 102,94  L 97,94  L 97,95  L 89,95  L 89,96  L 79,96  L 79,97  L 58,97  L 58,98  L 57,98  L 57,97  L 46,97  L 46,94  L 45,94  L 45,93  L 46,93  L 46,92  L 45,92  Z  " style="fill:rgb(0, 0, 0); fill-opacity:1.000; stroke:none;" />
 <path d="  M 79,63  L 80,63  L 80,62  L 79,62  L 79,61  L 80,61  L 80,60  L 79,60  L 79,59  L 80,59  L 80,51  L 81,51  L 81,44  L 82,44  L 82,38  L 83,38  L 83,31  L 84,31  L 84,26  L 85,26  L 85,20  L 86,20  L 86,9  L 85,9  L 85,7  L 84,7  L 84,6  L 82,6  L 82,5  L 81,5  L 81,4  L 79,4  L 79,3  L 78,3  L 78,2  L 77,2  L 77,3  L 75,3  L 75,2  L 72,2  L 72,1  L 57,1  L 57,2  L 56,2  L 56,1  L 54,1  L 54,2  L 43,2  L 43,3  L 42,3  L 42,2  L 41,2  L 41,3  L 30,3  L 30,4  L 27,4  L 27,6  L 26,6  L 26,7  L 25,7  L 25,10  L 27,10  L 27,11  L 30,11  L 30,10  L 31,10  L 31,11  L 32,11  L 32,10  L 43,10  L 43,9  L 50,9  L 50,8  L 52,8  L 52,9  L 53,9  L 53,8  L 64,8  L 64,9  L 73,9  L 73,10  L 76,10  L 76,11  L 77,11  L 77,12  L 79,12  L 79,13  L 80,13  L 80,19  L 79,19  L 79,21  L 78,21  L 78,25  L 77,25  L 77,30  L 76,30  L 76,31  L 75,31  L 75,32  L 73,32  L 73,33  L 72,33  L 72,32  L 62,32  L 62,33  L 38,33  L 38,34  L 36,34  L 36,33  L 34,33  L 34,34  L 29,34  L 29,35  L 24,35  L 24,36  L 21,36  L 21,37  L 19,37  L 19,38  L 17,38  L 17,39  L 16,39  L 16,40  L 17,40  L 17,41  L 16,41  L 16,42  L 17,42  L 17,43  L 16,43  L 16,44  L 19,44  L 19,43  L 23,43  L 23,42  L 27,42  L 27,41  L 33,41  L 33,40  L 41,40  L 41,39  L 42,39  L 42,40  L 43,40  L 43,39  L 73,39  L 73,40  L 74,40  L 74,43  L 73,43  L 73,51  L 72,51  L 72,52  L 73,52  L 73,55  L 72,55  L 72,63  L 71,63  L 71,64  L 72,64  L 72,65  L 71,65  L 71,70  L 70,70  L 70,72  L 71,72  L 71,73  L 73,73  L 73,74  L 77,74  L 77,73  L 78,73  L 78,71  L 79,71  Z  " style="fill:rgb(0, 0, 0); fill-opacity:1.000; stroke:none;" />
</svg>
