<?xml version="1.0" encoding="UTF-8" standalone="no"?>
<!DOCTYPE svg PUBLIC "-//W3C//DTD SVG 1.1//EN" 
  "http://www.w3.org/Graphics/SVG/1.1/DTD/svg11.dtd">
<svg width="103" height="161"
     xmlns="http://www.w3.org/2000/svg" version="1.1">
 <path d="  M 62,82  L 62,81  L 61,81  L 61,82  L 54,82  L 54,83  L 53,83  L 53,80  L 52,80  L 52,72  L 53,72  L 53,71  L 52,71  L 52,68  L 53,68  L 53,67  L 52,67  L 52,64  L 53,64  L 53,59  L 52,59  L 52,58  L 53,58  L 53,57  L 52,57  L 52,56  L 53,56  L 53,55  L 52,55  L 52,54  L 53,54  L 53,53  L 52,53  L 52,52  L 53,52  L 53,51  L 52,51  L 52,47  L 53,47  L 53,45  L 52,45  L 52,42  L 48,42  L 48,44  L 46,44  L 46,45  L 45,45  L 45,76  L 44,76  L 44,77  L 45,77  L 45,83  L 44,83  L 44,84  L 34,84  L 34,85  L 23,85  L 23,86  L 12,86  L 12,87  L 11,87  L 11,86  L 10,86  L 10,87  L 9,87  L 9,86  L 8,86  L 8,87  L 7,87  L 7,86  L 6,86  L 6,87  L 5,87  L 5,86  L 4,86  L 4,87  L 1,87  L 1,89  L 0,89  L 0,91  L 1,91  L 1,92  L 3,92  L 3,93  L 5,93  L 5,94  L 6,94  L 6,93  L 7,93  L 7,94  L 12,94  L 12,93  L 13,93  L 13,94  L 14,94  L 14,93  L 25,93  L 25,92  L 38,92  L 38,91  L 39,91  L 39,92  L 41,92  L 41,91  L 44,91  L 44,92  L 45,92  L 45,91  L 51,91  L 51,90  L 60,90  L 60,89  L 63,89  L 63,90  L 64,90  L 64,89  L 70,89  L 70,88  L 85,88  L 85,87  L 87,87  L 87,88  L 89,88  L 89,87  L 92,87  L 92,88  L 93,88  L 93,87  L 96,87  L 96,88  L 97,88  L 97,87  L 101,87  L 101,86  L 102,86  L 102,85  L 103,85  L 103,80  L 102,80  L 102,78  L 99,78  L 99,79  L 93,79  L 93,80  L 90,80  L 90,79  L 89,79  L 89,80  L 85,80  L 85,81  L 71,81  L 71,82  L 70,82  L 70,81  L 68,81  L 68,82  L 66,82  L 66,81  L 65,81  L 65,82  Z  " style="fill:rgb(0, 0, 0); fill-opacity:1.000; stroke:none;" />
 <path d="  M 76,14  L 75,14  L 75,10  L 74,10  L 74,9  L 73,9  L 73,7  L 71,7  L 71,6  L 69,6  L 69,5  L 65,5  L 65,4  L 63,4  L 63,3  L 59,3  L 59,2  L 52,2  L 52,1  L 34,1  L 34,2  L 29,2  L 29,3  L 22,3  L 22,4  L 21,4  L 21,5  L 20,5  L 20,6  L 19,6  L 19,8  L 18,8  L 18,14  L 19,14  L 19,15  L 21,15  L 21,14  L 22,14  L 22,13  L 24,13  L 24,12  L 26,12  L 26,11  L 27,11  L 27,10  L 30,10  L 30,9  L 36,9  L 36,8  L 54,8  L 54,9  L 60,9  L 60,10  L 63,10  L 63,11  L 65,11  L 65,12  L 66,12  L 66,13  L 67,13  L 67,15  L 68,15  L 68,21  L 67,21  L 67,22  L 68,22  L 68,25  L 66,25  L 66,27  L 62,27  L 62,28  L 59,28  L 59,29  L 56,29  L 56,30  L 50,30  L 50,31  L 48,31  L 48,32  L 43,32  L 43,33  L 37,33  L 37,34  L 33,34  L 33,35  L 27,35  L 27,36  L 24,36  L 24,37  L 22,37  L 22,38  L 21,38  L 21,39  L 20,39  L 20,41  L 19,41  L 19,42  L 20,42  L 20,43  L 24,43  L 24,42  L 27,42  L 27,41  L 36,41  L 36,40  L 40,40  L 40,39  L 49,39  L 49,38  L 53,38  L 53,37  L 56,37  L 56,36  L 62,36  L 62,35  L 64,35  L 64,34  L 66,34  L 66,35  L 68,35  L 68,36  L 69,36  L 69,37  L 68,37  L 68,41  L 67,41  L 67,43  L 68,43  L 68,51  L 67,51  L 67,52  L 68,52  L 68,53  L 67,53  L 67,54  L 68,54  L 68,62  L 72,62  L 72,60  L 74,60  L 74,53  L 75,53  L 75,50  L 74,50  L 74,49  L 75,49  L 75,47  L 74,47  L 74,38  L 75,38  L 75,37  L 74,37  L 74,34  L 75,34  L 75,33  L 74,33  L 74,32  L 76,32  L 76,31  L 75,31  L 75,29  L 76,29  Z  " style="fill:rgb(0, 0, 0); fill-opacity:1.000; stroke:none;" />
 <path d="  M 71,156  L 71,155  L 72,155  L 72,154  L 73,154  L 73,153  L 74,153  L 74,152  L 75,152  L 75,151  L 76,151  L 76,150  L 77,150  L 77,148  L 78,148  L 78,147  L 79,147  L 79,145  L 80,145  L 80,144  L 81,144  L 81,140  L 82,140  L 82,135  L 83,135  L 83,128  L 82,128  L 82,127  L 83,127  L 83,126  L 82,126  L 82,125  L 81,125  L 81,123  L 80,123  L 80,122  L 78,122  L 78,121  L 77,121  L 77,119  L 76,119  L 76,118  L 74,118  L 74,117  L 73,117  L 73,116  L 70,116  L 70,115  L 67,115  L 67,114  L 62,114  L 62,113  L 61,113  L 61,112  L 59,112  L 59,111  L 57,111  L 57,110  L 56,110  L 56,109  L 52,109  L 52,108  L 46,108  L 46,109  L 45,109  L 45,110  L 42,110  L 42,111  L 41,111  L 41,112  L 40,112  L 40,113  L 39,113  L 39,114  L 38,114  L 38,115  L 37,115  L 37,116  L 36,116  L 36,117  L 35,117  L 35,118  L 34,118  L 34,120  L 33,120  L 33,121  L 32,121  L 32,122  L 31,122  L 31,124  L 30,124  L 30,125  L 29,125  L 29,126  L 28,126  L 28,127  L 27,127  L 27,129  L 26,129  L 26,131  L 25,131  L 25,132  L 24,132  L 24,135  L 23,135  L 23,137  L 22,137  L 22,149  L 23,149  L 23,151  L 24,151  L 24,154  L 25,154  L 25,155  L 26,155  L 26,156  L 28,156  L 28,158  L 30,158  L 30,159  L 32,159  L 32,160  L 34,160  L 34,161  L 62,161  L 62,160  L 65,160  L 65,159  L 66,159  L 66,158  L 68,158  L 68,157  L 70,157  L 70,156  Z  M 38,127  L 38,126  L 39,126  L 39,125  L 40,125  L 40,124  L 41,124  L 41,123  L 42,123  L 42,122  L 43,122  L 43,121  L 45,121  L 45,120  L 47,120  L 47,119  L 57,119  L 57,120  L 63,120  L 63,121  L 67,121  L 67,122  L 68,122  L 68,123  L 70,123  L 70,124  L 72,124  L 72,125  L 73,125  L 73,127  L 74,127  L 74,128  L 75,128  L 75,137  L 74,137  L 74,138  L 75,138  L 75,139  L 74,139  L 74,141  L 73,141  L 73,142  L 72,142  L 72,144  L 71,144  L 71,145  L 70,145  L 70,147  L 69,147  L 69,148  L 68,148  L 68,149  L 66,149  L 66,150  L 65,150  L 65,151  L 64,151  L 64,152  L 62,152  L 62,153  L 60,153  L 60,154  L 58,154  L 58,153  L 57,153  L 57,154  L 55,154  L 55,155  L 45,155  L 45,154  L 44,154  L 44,155  L 43,155  L 43,154  L 36,154  L 36,153  L 34,153  L 34,152  L 33,152  L 33,151  L 31,151  L 31,150  L 30,150  L 30,146  L 29,146  L 29,142  L 30,142  L 30,138  L 31,138  L 31,136  L 32,136  L 32,134  L 33,134  L 33,132  L 34,132  L 34,131  L 35,131  L 35,129  L 36,129  L 36,128  L 37,128  L 37,127  Z  " style="fill:rgb(0, 0, 0); fill-opacity:1.000; stroke:none;" />
</svg>
