<?xml version="1.0" encoding="UTF-8" standalone="no"?>
<!DOCTYPE svg PUBLIC "-//W3C//DTD SVG 1.1//EN" 
  "http://www.w3.org/Graphics/SVG/1.1/DTD/svg11.dtd">
<svg width="113" height="135"
     xmlns="http://www.w3.org/2000/svg" version="1.1">
 <path d="  M 60,68  L 60,69  L 59,69  L 59,68  L 57,68  L 57,69  L 55,69  L 55,68  L 54,68  L 54,69  L 42,69  L 42,68  L 40,68  L 40,69  L 38,69  L 38,68  L 36,68  L 36,42  L 35,42  L 35,40  L 32,40  L 32,41  L 31,41  L 31,42  L 30,42  L 30,57  L 29,57  L 29,66  L 30,66  L 30,69  L 28,69  L 28,70  L 19,70  L 19,71  L 10,71  L 10,72  L 9,72  L 9,71  L 8,71  L 8,72  L 5,72  L 5,71  L 1,71  L 1,73  L 0,73  L 0,74  L 1,74  L 1,75  L 2,75  L 2,76  L 3,76  L 3,77  L 4,77  L 4,78  L 5,78  L 5,77  L 6,77  L 6,78  L 9,78  L 9,77  L 17,77  L 17,76  L 18,76  L 18,77  L 19,77  L 19,76  L 29,76  L 29,75  L 30,75  L 30,76  L 32,76  L 32,75  L 34,75  L 34,76  L 36,76  L 36,75  L 39,75  L 39,76  L 40,76  L 40,75  L 43,75  L 43,76  L 44,76  L 44,75  L 47,75  L 47,76  L 48,76  L 48,75  L 51,75  L 51,76  L 52,76  L 52,75  L 55,75  L 55,76  L 56,76  L 56,75  L 59,75  L 59,76  L 60,76  L 60,75  L 71,75  L 71,74  L 72,74  L 72,73  L 73,73  L 73,70  L 72,70  L 72,69  L 71,69  L 71,68  Z  " style="fill:rgb(0, 0, 0); fill-opacity:1.000; stroke:none;" />
 <path d="  M 14,31  L 13,31  L 13,33  L 12,33  L 12,34  L 11,34  L 11,35  L 12,35  L 12,36  L 13,36  L 13,37  L 14,37  L 14,36  L 17,36  L 17,35  L 19,35  L 19,34  L 20,34  L 20,33  L 23,33  L 23,32  L 28,32  L 28,31  L 32,31  L 32,30  L 36,30  L 36,29  L 42,29  L 42,28  L 47,28  L 47,27  L 49,27  L 49,26  L 53,26  L 53,30  L 52,30  L 52,34  L 51,34  L 51,41  L 50,41  L 50,47  L 51,47  L 51,49  L 50,49  L 50,50  L 51,50  L 51,53  L 54,53  L 54,52  L 55,52  L 55,51  L 56,51  L 56,48  L 57,48  L 57,44  L 58,44  L 58,38  L 59,38  L 59,32  L 60,32  L 60,24  L 61,24  L 61,17  L 62,17  L 62,14  L 61,14  L 61,10  L 60,10  L 60,9  L 58,9  L 58,8  L 57,8  L 57,7  L 55,7  L 55,6  L 53,6  L 53,5  L 49,5  L 49,4  L 46,4  L 46,3  L 42,3  L 42,2  L 37,2  L 37,1  L 22,1  L 22,2  L 17,2  L 17,3  L 16,3  L 16,4  L 15,4  L 15,10  L 20,10  L 20,9  L 23,9  L 23,8  L 40,8  L 40,9  L 45,9  L 45,10  L 48,10  L 48,11  L 51,11  L 51,12  L 53,12  L 53,13  L 54,13  L 54,15  L 55,15  L 55,17  L 54,17  L 54,19  L 47,19  L 47,20  L 43,20  L 43,21  L 39,21  L 39,22  L 36,22  L 36,23  L 32,23  L 32,24  L 29,24  L 29,25  L 24,25  L 24,26  L 21,26  L 21,27  L 18,27  L 18,28  L 16,28  L 16,29  L 15,29  L 15,30  L 14,30  Z  " style="fill:rgb(0, 0, 0); fill-opacity:1.000; stroke:none;" />
 <path d="  M 12,36  L 11,36  L 11,37  L 12,37  Z  " style="fill:rgb(0, 0, 0); fill-opacity:1.000; stroke:none;" />
 <path d="  M 70,100  L 79,100  L 79,101  L 82,101  L 82,102  L 83,102  L 83,104  L 84,104  L 84,105  L 85,105  L 85,115  L 84,115  L 84,117  L 83,117  L 83,119  L 82,119  L 82,121  L 81,121  L 81,122  L 80,122  L 80,123  L 78,123  L 78,124  L 75,124  L 75,125  L 71,125  L 71,126  L 68,126  L 68,127  L 62,127  L 62,128  L 50,128  L 50,127  L 45,127  L 45,126  L 43,126  L 43,125  L 42,125  L 42,124  L 41,124  L 41,123  L 40,123  L 40,120  L 41,120  L 41,117  L 42,117  L 42,115  L 43,115  L 43,112  L 44,112  L 44,110  L 45,110  L 45,107  L 46,107  L 46,106  L 47,106  L 47,105  L 48,105  L 48,104  L 49,104  L 49,103  L 50,103  L 50,102  L 52,102  L 52,101  L 53,101  L 53,100  L 56,100  L 56,99  L 63,99  L 63,100  L 64,100  L 64,99  L 66,99  L 66,100  L 69,100  L 69,99  L 70,99  Z  M 51,93  L 49,93  L 49,94  L 48,94  L 48,95  L 47,95  L 47,96  L 46,96  L 46,98  L 44,98  L 44,99  L 43,99  L 43,101  L 42,101  L 42,102  L 41,102  L 41,104  L 40,104  L 40,106  L 39,106  L 39,107  L 38,107  L 38,109  L 37,109  L 37,111  L 36,111  L 36,114  L 35,114  L 35,116  L 34,116  L 34,126  L 35,126  L 35,128  L 36,128  L 36,130  L 38,130  L 38,131  L 40,131  L 40,132  L 41,132  L 41,133  L 42,133  L 42,132  L 43,132  L 43,133  L 46,133  L 46,134  L 50,134  L 50,135  L 62,135  L 62,134  L 68,134  L 68,133  L 71,133  L 71,132  L 73,132  L 73,131  L 74,131  L 74,132  L 75,132  L 75,131  L 77,131  L 77,130  L 79,130  L 79,129  L 82,129  L 82,128  L 83,128  L 83,127  L 85,127  L 85,126  L 86,126  L 86,125  L 87,125  L 87,124  L 88,124  L 88,123  L 89,123  L 89,121  L 90,121  L 90,120  L 91,120  L 91,119  L 90,119  L 90,118  L 91,118  L 91,113  L 92,113  L 92,105  L 91,105  L 91,101  L 90,101  L 90,99  L 89,99  L 89,97  L 87,97  L 87,96  L 86,96  L 86,95  L 84,95  L 84,94  L 82,94  L 82,93  L 68,93  L 68,92  L 61,92  L 61,91  L 60,91  L 60,92  L 57,92  L 57,91  L 54,91  L 54,92  L 51,92  Z  " style="fill:rgb(0, 0, 0); fill-opacity:1.000; stroke:none;" />
 <path d="  M 78,75  L 79,75  L 79,83  L 84,83  L 84,82  L 85,82  L 85,74  L 84,74  L 84,53  L 83,53  L 83,52  L 84,52  L 84,49  L 83,49  L 83,48  L 84,48  L 84,47  L 83,47  L 83,43  L 84,43  L 84,42  L 85,42  L 85,41  L 89,41  L 89,40  L 113,40  L 113,34  L 111,34  L 111,33  L 108,33  L 108,34  L 105,34  L 105,33  L 104,33  L 104,34  L 93,34  L 93,33  L 92,33  L 92,34  L 89,34  L 89,33  L 88,33  L 88,34  L 86,34  L 86,35  L 85,35  L 85,34  L 84,34  L 84,33  L 83,33  L 83,21  L 82,21  L 82,20  L 83,20  L 83,19  L 82,19  L 82,17  L 81,17  L 81,15  L 80,15  L 80,9  L 79,9  L 79,8  L 77,8  L 77,7  L 75,7  L 75,6  L 74,6  L 74,7  L 73,7  L 73,8  L 72,8  L 72,12  L 73,12  L 73,16  L 75,16  L 75,20  L 76,20  L 76,26  L 77,26  L 77,29  L 76,29  L 76,30  L 77,30  L 77,46  L 78,46  L 78,47  L 77,47  L 77,49  L 78,49  Z  " style="fill:rgb(0, 0, 0); fill-opacity:1.000; stroke:none;" />
</svg>
