<?xml version="1.0" encoding="UTF-8" standalone="no"?>
<!DOCTYPE svg PUBLIC "-//W3C//DTD SVG 1.1//EN" 
  "http://www.w3.org/Graphics/SVG/1.1/DTD/svg11.dtd">
<svg width="107" height="145"
     xmlns="http://www.w3.org/2000/svg" version="1.1">
 <path d="  M 4,80  L 4,81  L 1,81  L 1,86  L 2,86  L 2,87  L 3,87  L 3,86  L 4,86  L 4,87  L 6,87  L 6,86  L 8,86  L 8,85  L 11,85  L 11,84  L 15,84  L 15,83  L 19,83  L 19,82  L 24,82  L 24,81  L 36,81  L 36,80  L 37,80  L 37,81  L 39,81  L 39,80  L 56,80  L 56,79  L 57,79  L 57,80  L 59,80  L 59,79  L 63,79  L 63,78  L 67,78  L 67,75  L 66,75  L 66,73  L 65,73  L 65,72  L 63,72  L 63,71  L 61,71  L 61,72  L 56,72  L 56,73  L 48,73  L 48,74  L 34,74  L 34,73  L 33,73  L 33,46  L 32,46  L 32,45  L 31,45  L 31,44  L 29,44  L 29,45  L 28,45  L 28,46  L 27,46  L 27,49  L 26,49  L 26,50  L 27,50  L 27,51  L 26,51  L 26,52  L 27,52  L 27,53  L 26,53  L 26,54  L 27,54  L 27,55  L 26,55  L 26,56  L 27,56  L 27,57  L 26,57  L 26,58  L 27,58  L 27,59  L 26,59  L 26,73  L 27,73  L 27,75  L 25,75  L 25,76  L 16,76  L 16,77  L 13,77  L 13,78  L 10,78  L 10,79  L 9,79  L 9,78  L 8,78  L 8,79  L 6,79  L 6,80  Z  " style="fill:rgb(0, 0, 0); fill-opacity:1.000; stroke:none;" />
 <path d="  M 31,30  L 31,31  L 26,31  L 26,32  L 22,32  L 22,33  L 19,33  L 19,34  L 15,34  L 15,35  L 14,35  L 14,36  L 12,36  L 12,37  L 10,37  L 10,39  L 9,39  L 9,44  L 13,44  L 13,43  L 14,43  L 14,42  L 15,42  L 15,41  L 18,41  L 18,40  L 21,40  L 21,39  L 26,39  L 26,38  L 31,38  L 31,37  L 39,37  L 39,36  L 47,36  L 47,39  L 46,39  L 46,43  L 45,43  L 45,50  L 46,50  L 46,51  L 45,51  L 45,52  L 46,52  L 46,53  L 47,53  L 47,54  L 48,54  L 48,53  L 49,53  L 49,54  L 50,54  L 50,53  L 51,53  L 51,51  L 52,51  L 52,48  L 53,48  L 53,41  L 54,41  L 54,38  L 55,38  L 55,34  L 56,34  L 56,31  L 57,31  L 57,28  L 58,28  L 58,27  L 57,27  L 57,26  L 58,26  L 58,22  L 59,22  L 59,15  L 60,15  L 60,12  L 59,12  L 59,9  L 58,9  L 58,8  L 57,8  L 57,7  L 56,7  L 56,6  L 55,6  L 55,5  L 53,5  L 53,3  L 52,3  L 52,2  L 51,2  L 51,1  L 38,1  L 38,2  L 36,2  L 36,1  L 35,1  L 35,2  L 23,2  L 23,3  L 16,3  L 16,4  L 14,4  L 14,5  L 13,5  L 13,10  L 14,10  L 14,11  L 15,11  L 15,12  L 16,12  L 16,11  L 18,11  L 18,10  L 21,10  L 21,9  L 34,9  L 34,8  L 48,8  L 48,9  L 51,9  L 51,10  L 53,10  L 53,13  L 54,13  L 54,18  L 53,18  L 53,22  L 52,22  L 52,25  L 51,25  L 51,27  L 50,27  L 50,28  L 40,28  L 40,29  L 36,29  L 36,30  Z  " style="fill:rgb(0, 0, 0); fill-opacity:1.000; stroke:none;" />
 <path d="  M 104,103  L 103,103  L 103,102  L 102,102  L 102,101  L 101,101  L 101,100  L 99,100  L 99,99  L 98,99  L 98,98  L 97,98  L 97,97  L 95,97  L 95,96  L 94,96  L 94,95  L 90,95  L 90,94  L 89,94  L 89,95  L 88,95  L 88,94  L 68,94  L 68,95  L 66,95  L 66,96  L 64,96  L 64,97  L 62,97  L 62,98  L 60,98  L 60,99  L 58,99  L 58,100  L 56,100  L 56,101  L 54,101  L 54,102  L 53,102  L 53,103  L 52,103  L 52,104  L 50,104  L 50,105  L 49,105  L 49,106  L 48,106  L 48,107  L 47,107  L 47,108  L 46,108  L 46,109  L 45,109  L 45,110  L 44,110  L 44,112  L 43,112  L 43,114  L 42,114  L 42,117  L 41,117  L 41,120  L 40,120  L 40,123  L 39,123  L 39,127  L 38,127  L 38,128  L 39,128  L 39,129  L 38,129  L 38,132  L 39,132  L 39,135  L 40,135  L 40,138  L 41,138  L 41,139  L 42,139  L 42,140  L 43,140  L 43,141  L 45,141  L 45,142  L 48,142  L 48,143  L 49,143  L 49,144  L 50,144  L 50,143  L 51,143  L 51,144  L 53,144  L 53,145  L 54,145  L 54,144  L 55,144  L 55,145  L 76,145  L 76,144  L 80,144  L 80,143  L 81,143  L 81,144  L 83,144  L 83,143  L 84,143  L 84,142  L 87,142  L 87,141  L 90,141  L 90,140  L 92,140  L 92,139  L 94,139  L 94,138  L 96,138  L 96,137  L 97,137  L 97,136  L 98,136  L 98,135  L 99,135  L 99,134  L 100,134  L 100,132  L 101,132  L 101,130  L 103,130  L 103,127  L 104,127  L 104,125  L 105,125  L 105,121  L 106,121  L 106,108  L 105,108  L 105,105  L 104,105  Z  M 46,123  L 47,123  L 47,120  L 48,120  L 48,117  L 49,117  L 49,115  L 50,115  L 50,114  L 51,114  L 51,113  L 52,113  L 52,111  L 54,111  L 54,110  L 55,110  L 55,109  L 56,109  L 56,108  L 58,108  L 58,107  L 60,107  L 60,106  L 62,106  L 62,105  L 64,105  L 64,104  L 67,104  L 67,103  L 70,103  L 70,102  L 74,102  L 74,101  L 85,101  L 85,102  L 90,102  L 90,103  L 92,103  L 92,104  L 94,104  L 94,105  L 95,105  L 95,106  L 97,106  L 97,108  L 98,108  L 98,111  L 99,111  L 99,119  L 98,119  L 98,124  L 97,124  L 97,125  L 96,125  L 96,127  L 95,127  L 95,129  L 94,129  L 94,130  L 93,130  L 93,131  L 92,131  L 92,132  L 91,132  L 91,133  L 89,133  L 89,134  L 87,134  L 87,135  L 84,135  L 84,136  L 81,136  L 81,137  L 78,137  L 78,138  L 70,138  L 70,139  L 59,139  L 59,138  L 54,138  L 54,137  L 51,137  L 51,136  L 48,136  L 48,135  L 47,135  L 47,133  L 46,133  Z  " style="fill:rgb(0, 0, 0); fill-opacity:1.000; stroke:none;" />
 <path d="  M 75,67  L 74,67  L 74,69  L 75,69  L 75,70  L 74,70  L 74,77  L 75,77  L 75,78  L 74,78  L 74,80  L 75,80  L 75,82  L 76,82  L 76,83  L 77,83  L 77,82  L 79,82  L 79,81  L 80,81  L 80,80  L 81,80  L 81,64  L 82,64  L 82,63  L 81,63  L 81,61  L 82,61  L 82,59  L 81,59  L 81,58  L 82,58  L 82,42  L 83,42  L 83,41  L 92,41  L 92,40  L 97,40  L 97,39  L 100,39  L 100,40  L 101,40  L 101,68  L 100,68  L 100,70  L 101,70  L 101,73  L 100,73  L 100,74  L 101,74  L 101,84  L 102,84  L 102,86  L 103,86  L 103,87  L 105,87  L 105,86  L 106,86  L 106,85  L 107,85  L 107,32  L 106,32  L 106,27  L 105,27  L 105,24  L 104,24  L 104,20  L 103,20  L 103,17  L 102,17  L 102,13  L 101,13  L 101,12  L 99,12  L 99,11  L 96,11  L 96,12  L 95,12  L 95,13  L 94,13  L 94,16  L 95,16  L 95,20  L 96,20  L 96,21  L 97,21  L 97,24  L 98,24  L 98,25  L 99,25  L 99,30  L 100,30  L 100,32  L 99,32  L 99,33  L 97,33  L 97,34  L 91,34  L 91,35  L 83,35  L 83,36  L 82,36  L 82,35  L 80,35  L 80,29  L 79,29  L 79,21  L 78,21  L 78,7  L 77,7  L 77,4  L 73,4  L 73,5  L 72,5  L 72,6  L 71,6  L 71,16  L 72,16  L 72,22  L 73,22  L 73,28  L 74,28  L 74,29  L 73,29  L 73,30  L 74,30  L 74,44  L 75,44  Z  " style="fill:rgb(0, 0, 0); fill-opacity:1.000; stroke:none;" />
</svg>
