<?xml version="1.0" encoding="UTF-8" standalone="no"?>
<!DOCTYPE svg PUBLIC "-//W3C//DTD SVG 1.1//EN" 
  "http://www.w3.org/Graphics/SVG/1.1/DTD/svg11.dtd">
<svg width="105" height="129"
     xmlns="http://www.w3.org/2000/svg" version="1.1">
 <path d="  M 86,88  L 85,88  L 85,87  L 84,87  L 84,88  L 80,88  L 80,89  L 74,89  L 74,90  L 67,90  L 67,91  L 58,91  L 58,92  L 49,92  L 49,93  L 47,93  L 47,92  L 46,92  L 46,93  L 43,93  L 43,92  L 41,92  L 41,89  L 40,89  L 40,86  L 41,86  L 41,85  L 40,85  L 40,83  L 41,83  L 41,81  L 40,81  L 40,80  L 41,80  L 41,72  L 42,72  L 42,66  L 41,66  L 41,65  L 39,65  L 39,66  L 36,66  L 36,67  L 35,67  L 35,77  L 34,77  L 34,78  L 35,78  L 35,79  L 34,79  L 34,91  L 35,91  L 35,93  L 33,93  L 33,94  L 27,94  L 27,95  L 20,95  L 20,96  L 17,96  L 17,97  L 12,97  L 12,98  L 9,98  L 9,99  L 6,99  L 6,100  L 1,100  L 1,103  L 0,103  L 0,104  L 1,104  L 1,106  L 2,106  L 2,107  L 6,107  L 6,106  L 9,106  L 9,105  L 13,105  L 13,104  L 17,104  L 17,103  L 23,103  L 23,102  L 30,102  L 30,101  L 35,101  L 35,100  L 36,100  L 36,101  L 37,101  L 37,100  L 41,100  L 41,99  L 51,99  L 51,98  L 52,98  L 52,99  L 53,99  L 53,98  L 59,98  L 59,97  L 66,97  L 66,96  L 73,96  L 73,95  L 82,95  L 82,94  L 85,94  L 85,93  L 86,93  L 86,91  L 87,91  L 87,90  L 86,90  Z  " style="fill:rgb(0, 0, 0); fill-opacity:1.000; stroke:none;" />
 <path d="  M 67,30  L 66,30  L 66,28  L 65,28  L 65,27  L 64,27  L 64,26  L 63,26  L 63,25  L 61,25  L 61,24  L 60,24  L 60,23  L 59,23  L 59,22  L 56,22  L 56,21  L 45,21  L 45,22  L 44,22  L 44,21  L 34,21  L 34,20  L 33,20  L 33,21  L 31,21  L 31,20  L 23,20  L 23,19  L 21,19  L 21,20  L 13,20  L 13,22  L 12,22  L 12,26  L 19,26  L 19,25  L 21,25  L 21,26  L 34,26  L 34,27  L 35,27  L 35,26  L 36,26  L 36,27  L 44,27  L 44,28  L 45,28  L 45,27  L 48,27  L 48,28  L 49,28  L 49,27  L 51,27  L 51,28  L 55,28  L 55,29  L 56,29  L 56,30  L 58,30  L 58,33  L 59,33  L 59,37  L 58,37  L 58,41  L 56,41  L 56,42  L 55,42  L 55,41  L 54,41  L 54,42  L 51,42  L 51,43  L 48,43  L 48,44  L 44,44  L 44,45  L 38,45  L 38,46  L 35,46  L 35,47  L 32,47  L 32,48  L 31,48  L 31,47  L 30,47  L 30,48  L 25,48  L 25,49  L 21,49  L 21,50  L 19,50  L 19,51  L 16,51  L 16,52  L 15,52  L 15,51  L 14,51  L 14,52  L 13,52  L 13,53  L 12,53  L 12,54  L 11,54  L 11,55  L 10,55  L 10,58  L 12,58  L 12,59  L 14,59  L 14,58  L 17,58  L 17,57  L 21,57  L 21,56  L 24,56  L 24,55  L 30,55  L 30,54  L 38,54  L 38,53  L 41,53  L 41,52  L 45,52  L 45,51  L 49,51  L 49,50  L 54,50  L 54,49  L 58,49  L 58,54  L 57,54  L 57,59  L 56,59  L 56,65  L 55,65  L 55,72  L 56,72  L 56,73  L 58,73  L 58,72  L 60,72  L 60,71  L 62,71  L 62,69  L 63,69  L 63,66  L 64,66  L 64,60  L 65,60  L 65,56  L 66,56  L 66,55  L 65,55  L 65,54  L 66,54  L 66,39  L 67,39  Z  " style="fill:rgb(0, 0, 0); fill-opacity:1.000; stroke:none;" />
 <path d="  M 105,32  L 104,32  L 104,25  L 103,25  L 103,24  L 104,24  L 104,23  L 103,23  L 103,20  L 102,20  L 102,15  L 101,15  L 101,13  L 100,13  L 100,10  L 101,10  L 101,9  L 100,9  L 100,7  L 99,7  L 99,4  L 98,4  L 98,1  L 92,1  L 92,8  L 93,8  L 93,14  L 94,14  L 94,17  L 95,17  L 95,20  L 96,20  L 96,25  L 97,25  L 97,31  L 98,31  L 98,43  L 99,43  L 99,85  L 100,85  L 100,86  L 99,86  L 99,89  L 100,89  L 100,108  L 99,108  L 99,109  L 100,109  L 100,111  L 99,111  L 99,129  L 104,129  L 104,127  L 105,127  Z  " style="fill:rgb(0, 0, 0); fill-opacity:1.000; stroke:none;" />
</svg>
