<?xml version="1.0" encoding="UTF-8" standalone="no"?>
<!DOCTYPE svg PUBLIC "-//W3C//DTD SVG 1.1//EN" 
  "http://www.w3.org/Graphics/SVG/1.1/DTD/svg11.dtd">
<svg width="107" height="176"
     xmlns="http://www.w3.org/2000/svg" version="1.1">
 <path d="  M 39,60  L 39,58  L 40,58  L 40,57  L 39,57  L 39,51  L 38,51  L 38,49  L 37,49  L 37,48  L 36,48  L 36,47  L 34,47  L 34,48  L 33,48  L 33,51  L 32,51  L 32,62  L 33,62  L 33,63  L 32,63  L 32,64  L 33,64  L 33,82  L 34,82  L 34,84  L 33,84  L 33,85  L 28,85  L 28,86  L 27,86  L 27,85  L 26,85  L 26,86  L 23,86  L 23,87  L 16,87  L 16,88  L 11,88  L 11,89  L 6,89  L 6,90  L 3,90  L 3,91  L 1,91  L 1,96  L 3,96  L 3,97  L 11,97  L 11,96  L 13,96  L 13,95  L 19,95  L 19,94  L 26,94  L 26,93  L 32,93  L 32,92  L 37,92  L 37,91  L 42,91  L 42,90  L 47,90  L 47,89  L 49,89  L 49,90  L 50,90  L 50,89  L 54,89  L 54,88  L 61,88  L 61,89  L 69,89  L 69,90  L 78,90  L 78,88  L 79,88  L 79,83  L 78,83  L 78,81  L 50,81  L 50,82  L 47,82  L 47,81  L 46,81  L 46,82  L 41,82  L 41,80  L 40,80  L 40,79  L 41,79  L 41,76  L 40,76  L 40,60  Z  " style="fill:rgb(0, 0, 0); fill-opacity:1.000; stroke:none;" />
 <path d="  M 12,8  L 13,8  L 13,10  L 14,10  L 14,11  L 15,11  L 15,12  L 17,12  L 17,11  L 20,11  L 20,10  L 21,10  L 21,9  L 22,9  L 22,10  L 23,10  L 23,9  L 29,9  L 29,8  L 47,8  L 47,9  L 56,9  L 56,10  L 59,10  L 59,11  L 62,11  L 62,12  L 63,12  L 63,14  L 64,14  L 64,16  L 65,16  L 65,18  L 66,18  L 66,24  L 65,24  L 65,25  L 64,25  L 64,26  L 62,26  L 62,27  L 47,27  L 47,28  L 38,28  L 38,29  L 37,29  L 37,28  L 34,28  L 34,29  L 28,29  L 28,30  L 27,30  L 27,29  L 26,29  L 26,30  L 20,30  L 20,31  L 18,31  L 18,32  L 16,32  L 16,34  L 15,34  L 15,36  L 16,36  L 16,37  L 18,37  L 18,38  L 19,38  L 19,37  L 24,37  L 24,36  L 43,36  L 43,35  L 44,35  L 44,36  L 45,36  L 45,35  L 53,35  L 53,34  L 54,34  L 54,35  L 57,35  L 57,34  L 59,34  L 59,35  L 61,35  L 61,34  L 62,34  L 62,36  L 63,36  L 63,39  L 62,39  L 62,43  L 61,43  L 61,47  L 59,47  L 59,50  L 58,50  L 58,55  L 57,55  L 57,58  L 58,58  L 58,60  L 60,60  L 60,61  L 62,61  L 62,60  L 63,60  L 63,59  L 64,59  L 64,58  L 65,58  L 65,55  L 66,55  L 66,53  L 67,53  L 67,50  L 68,50  L 68,47  L 69,47  L 69,44  L 70,44  L 70,40  L 71,40  L 71,36  L 72,36  L 72,35  L 71,35  L 71,32  L 72,32  L 72,30  L 73,30  L 73,29  L 72,29  L 72,28  L 73,28  L 73,25  L 74,25  L 74,17  L 73,17  L 73,13  L 72,13  L 72,11  L 71,11  L 71,10  L 70,10  L 70,9  L 69,9  L 69,8  L 68,8  L 68,7  L 66,7  L 66,5  L 64,5  L 64,4  L 62,4  L 62,3  L 60,3  L 60,2  L 48,2  L 48,1  L 47,1  L 47,2  L 44,2  L 44,1  L 38,1  L 38,2  L 36,2  L 36,1  L 30,1  L 30,2  L 20,2  L 20,3  L 19,3  L 19,2  L 18,2  L 18,3  L 15,3  L 15,4  L 14,4  L 14,5  L 13,5  L 13,7  L 12,7  Z  " style="fill:rgb(0, 0, 0); fill-opacity:1.000; stroke:none;" />
 <path d="  M 67,148  L 67,147  L 69,147  L 69,146  L 72,146  L 72,145  L 73,145  L 73,144  L 75,144  L 75,143  L 76,143  L 76,142  L 78,142  L 78,140  L 79,140  L 79,139  L 78,139  L 78,137  L 79,137  L 79,133  L 80,133  L 80,132  L 82,132  L 82,131  L 84,131  L 84,129  L 85,129  L 85,128  L 87,128  L 87,127  L 88,127  L 88,126  L 89,126  L 89,125  L 90,125  L 90,124  L 89,124  L 89,123  L 90,123  L 90,120  L 89,120  L 89,119  L 90,119  L 90,118  L 89,118  L 89,117  L 87,117  L 87,115  L 85,115  L 85,113  L 84,113  L 84,112  L 83,112  L 83,111  L 82,111  L 82,112  L 81,112  L 81,110  L 79,110  L 79,109  L 78,109  L 78,108  L 76,108  L 76,107  L 74,107  L 74,106  L 72,106  L 72,105  L 68,105  L 68,104  L 65,104  L 65,103  L 64,103  L 64,104  L 63,104  L 63,103  L 54,103  L 54,104  L 48,104  L 48,105  L 44,105  L 44,106  L 40,106  L 40,107  L 38,107  L 38,108  L 37,108  L 37,111  L 36,111  L 36,114  L 37,114  L 37,116  L 39,116  L 39,117  L 40,117  L 40,116  L 44,116  L 44,115  L 48,115  L 48,114  L 50,114  L 50,112  L 55,112  L 55,111  L 61,111  L 61,112  L 63,112  L 63,111  L 64,111  L 64,112  L 67,112  L 67,113  L 69,113  L 69,114  L 70,114  L 70,115  L 72,115  L 72,116  L 74,116  L 74,118  L 75,118  L 75,119  L 76,119  L 76,120  L 77,120  L 77,121  L 78,121  L 78,125  L 77,125  L 77,126  L 76,126  L 76,127  L 75,127  L 75,128  L 74,128  L 74,131  L 73,131  L 73,135  L 72,135  L 72,136  L 71,136  L 71,137  L 69,137  L 69,138  L 67,138  L 67,139  L 65,139  L 65,140  L 63,140  L 63,141  L 57,141  L 57,142  L 52,142  L 52,143  L 49,143  L 49,144  L 46,144  L 46,145  L 44,145  L 44,146  L 43,146  L 43,147  L 41,147  L 41,148  L 39,148  L 39,149  L 38,149  L 38,150  L 36,150  L 36,151  L 35,151  L 35,153  L 34,153  L 34,156  L 33,156  L 33,158  L 34,158  L 34,160  L 33,160  L 33,161  L 34,161  L 34,162  L 35,162  L 35,163  L 34,163  L 34,164  L 35,164  L 35,165  L 36,165  L 36,166  L 35,166  L 35,167  L 36,167  L 36,168  L 37,168  L 37,169  L 40,169  L 40,170  L 39,170  L 39,171  L 40,171  L 40,172  L 44,172  L 44,173  L 45,173  L 45,174  L 48,174  L 48,175  L 49,175  L 49,176  L 51,176  L 51,175  L 52,175  L 52,176  L 75,176  L 75,175  L 79,175  L 79,174  L 83,174  L 83,173  L 86,173  L 86,172  L 88,172  L 88,171  L 90,171  L 90,170  L 92,170  L 92,169  L 94,169  L 94,168  L 96,168  L 96,167  L 97,167  L 97,166  L 98,166  L 98,165  L 99,165  L 99,164  L 101,164  L 101,163  L 102,163  L 102,161  L 103,161  L 103,157  L 102,157  L 102,155  L 100,155  L 100,156  L 98,156  L 98,157  L 97,157  L 97,158  L 96,158  L 96,159  L 94,159  L 94,160  L 93,160  L 93,161  L 90,161  L 90,163  L 87,163  L 87,164  L 85,164  L 85,165  L 82,165  L 82,166  L 79,166  L 79,167  L 77,167  L 77,168  L 73,168  L 73,169  L 61,169  L 61,170  L 59,170  L 59,169  L 54,169  L 54,168  L 52,168  L 52,169  L 51,169  L 51,168  L 50,168  L 50,167  L 45,167  L 45,166  L 44,166  L 44,165  L 43,165  L 43,164  L 42,164  L 42,163  L 41,163  L 41,158  L 42,158  L 42,156  L 43,156  L 43,155  L 44,155  L 44,154  L 45,154  L 45,153  L 46,153  L 46,152  L 48,152  L 48,151  L 53,151  L 53,150  L 54,150  L 54,151  L 55,151  L 55,150  L 58,150  L 58,149  L 59,149  L 59,150  L 60,150  L 60,149  L 61,149  L 61,148  Z  " style="fill:rgb(0, 0, 0); fill-opacity:1.000; stroke:none;" />
 <path d="  M 107,31  L 106,31  L 106,9  L 105,9  L 105,1  L 103,1  L 103,0  L 99,0  L 99,1  L 98,1  L 98,14  L 99,14  L 99,17  L 98,17  L 98,18  L 99,18  L 99,53  L 100,53  L 100,54  L 99,54  L 99,57  L 100,57  L 100,58  L 99,58  L 99,61  L 100,61  L 100,62  L 99,62  L 99,65  L 100,65  L 100,66  L 99,66  L 99,69  L 100,69  L 100,70  L 99,70  L 99,73  L 100,73  L 100,74  L 99,74  L 99,75  L 100,75  L 100,76  L 99,76  L 99,77  L 100,77  L 100,78  L 99,78  L 99,79  L 100,79  L 100,80  L 99,80  L 99,81  L 100,81  L 100,82  L 99,82  L 99,83  L 100,83  L 100,92  L 99,92  L 99,93  L 100,93  L 100,99  L 99,99  L 99,100  L 100,100  L 100,101  L 101,101  L 101,102  L 105,102  L 105,101  L 106,101  L 106,98  L 107,98  L 107,96  L 106,96  L 106,94  L 107,94  Z  " style="fill:rgb(0, 0, 0); fill-opacity:1.000; stroke:none;" />
</svg>
