<?xml version="1.0" encoding="UTF-8" standalone="no"?>
<!DOCTYPE svg PUBLIC "-//W3C//DTD SVG 1.1//EN" 
  "http://www.w3.org/Graphics/SVG/1.1/DTD/svg11.dtd">
<svg width="108" height="109"
     xmlns="http://www.w3.org/2000/svg" version="1.1">
 <path d="  M 39,56  L 40,56  L 40,55  L 39,55  L 39,54  L 38,54  L 38,53  L 37,53  L 37,54  L 35,54  L 35,55  L 34,55  L 34,59  L 33,59  L 33,87  L 34,87  L 34,88  L 33,88  L 33,89  L 34,89  L 34,90  L 33,90  L 33,91  L 34,91  L 34,101  L 32,101  L 32,102  L 31,102  L 31,101  L 30,101  L 30,102  L 17,102  L 17,103  L 16,103  L 16,102  L 15,102  L 15,103  L 12,103  L 12,102  L 11,102  L 11,103  L 2,103  L 2,104  L 1,104  L 1,109  L 20,109  L 20,108  L 21,108  L 21,109  L 22,109  L 22,108  L 44,108  L 44,107  L 45,107  L 45,108  L 48,108  L 48,107  L 49,107  L 49,108  L 52,108  L 52,107  L 84,107  L 84,106  L 85,106  L 85,107  L 86,107  L 86,106  L 94,106  L 94,105  L 102,105  L 102,104  L 103,104  L 103,105  L 104,105  L 104,104  L 105,104  L 105,105  L 106,105  L 106,104  L 107,104  L 107,103  L 108,103  L 108,97  L 99,97  L 99,98  L 93,98  L 93,99  L 92,99  L 92,98  L 91,98  L 91,99  L 84,99  L 84,100  L 69,100  L 69,101  L 68,101  L 68,100  L 63,100  L 63,99  L 62,99  L 62,82  L 61,82  L 61,79  L 62,79  L 62,78  L 61,78  L 61,63  L 62,63  L 62,62  L 61,62  L 61,61  L 62,61  L 62,55  L 63,55  L 63,52  L 62,52  L 62,51  L 61,51  L 61,50  L 59,50  L 59,51  L 58,51  L 58,52  L 57,52  L 57,54  L 56,54  L 56,61  L 55,61  L 55,100  L 53,100  L 53,101  L 41,101  L 41,100  L 40,100  L 40,89  L 39,89  L 39,68  L 38,68  L 38,67  L 39,67  Z  " style="fill:rgb(0, 0, 0); fill-opacity:1.000; stroke:none;" />
 <path d="  M 74,62  L 75,62  L 75,69  L 76,69  L 76,71  L 77,71  L 77,72  L 79,72  L 79,71  L 80,71  L 80,70  L 81,70  L 81,67  L 82,67  L 82,66  L 81,66  L 81,65  L 82,65  L 82,64  L 81,64  L 81,63  L 82,63  L 82,62  L 81,62  L 81,59  L 82,59  L 82,58  L 81,58  L 81,55  L 82,55  L 82,54  L 81,54  L 81,52  L 82,52  L 82,46  L 83,46  L 83,36  L 84,36  L 84,28  L 85,28  L 85,23  L 86,23  L 86,18  L 87,18  L 87,10  L 86,10  L 86,8  L 85,8  L 85,6  L 84,6  L 84,5  L 83,5  L 83,4  L 81,4  L 81,3  L 80,3  L 80,2  L 72,2  L 72,1  L 71,1  L 71,2  L 70,2  L 70,1  L 67,1  L 67,2  L 66,2  L 66,1  L 61,1  L 61,2  L 60,2  L 60,1  L 59,1  L 59,2  L 43,2  L 43,3  L 40,3  L 40,2  L 39,2  L 39,3  L 32,3  L 32,4  L 30,4  L 30,5  L 29,5  L 29,7  L 28,7  L 28,8  L 29,8  L 29,10  L 30,10  L 30,11  L 36,11  L 36,10  L 48,10  L 48,9  L 49,9  L 49,10  L 50,10  L 50,9  L 72,9  L 72,10  L 77,10  L 77,11  L 80,11  L 80,13  L 81,13  L 81,17  L 80,17  L 80,20  L 79,20  L 79,23  L 78,23  L 78,26  L 77,26  L 77,30  L 76,30  L 76,31  L 65,31  L 65,32  L 56,32  L 56,33  L 50,33  L 50,34  L 38,34  L 38,35  L 37,35  L 37,34  L 36,34  L 36,35  L 33,35  L 33,36  L 29,36  L 29,37  L 28,37  L 28,36  L 27,36  L 27,37  L 25,37  L 25,38  L 23,38  L 23,39  L 22,39  L 22,40  L 21,40  L 21,41  L 20,41  L 20,44  L 19,44  L 19,45  L 21,45  L 21,46  L 23,46  L 23,45  L 26,45  L 26,44  L 29,44  L 29,43  L 32,43  L 32,42  L 36,42  L 36,41  L 44,41  L 44,40  L 45,40  L 45,41  L 46,41  L 46,40  L 60,40  L 60,39  L 72,39  L 72,38  L 74,38  L 74,39  L 75,39  L 75,45  L 74,45  Z  " style="fill:rgb(0, 0, 0); fill-opacity:1.000; stroke:none;" />
</svg>
