<?xml version="1.0" encoding="UTF-8" standalone="no"?>
<!DOCTYPE svg PUBLIC "-//W3C//DTD SVG 1.1//EN" 
  "http://www.w3.org/Graphics/SVG/1.1/DTD/svg11.dtd">
<svg width="100" height="160"
     xmlns="http://www.w3.org/2000/svg" version="1.1">
 <path d="  M 24,4  L 24,5  L 22,5  L 22,6  L 20,6  L 20,7  L 19,7  L 19,8  L 18,8  L 18,14  L 23,14  L 23,13  L 25,13  L 25,11  L 27,11  L 27,10  L 29,10  L 29,9  L 33,9  L 33,8  L 42,8  L 42,7  L 43,7  L 43,8  L 56,8  L 56,9  L 61,9  L 61,10  L 64,10  L 64,11  L 65,11  L 65,12  L 66,12  L 66,13  L 67,13  L 67,14  L 66,14  L 66,15  L 67,15  L 67,20  L 68,20  L 68,21  L 67,21  L 67,25  L 66,25  L 66,26  L 64,26  L 64,27  L 58,27  L 58,28  L 54,28  L 54,29  L 50,29  L 50,30  L 43,30  L 43,31  L 36,31  L 36,32  L 30,32  L 30,33  L 27,33  L 27,34  L 25,34  L 25,35  L 24,35  L 24,36  L 23,36  L 23,37  L 21,37  L 21,39  L 19,39  L 19,40  L 20,40  L 20,41  L 21,41  L 21,42  L 23,42  L 23,41  L 25,41  L 25,40  L 29,40  L 29,39  L 35,39  L 35,38  L 39,38  L 39,37  L 46,37  L 46,36  L 54,36  L 54,35  L 59,35  L 59,34  L 60,34  L 60,35  L 61,35  L 61,34  L 65,34  L 65,37  L 66,37  L 66,38  L 65,38  L 65,39  L 66,39  L 66,49  L 67,49  L 67,50  L 66,50  L 66,51  L 67,51  L 67,54  L 66,54  L 66,56  L 67,56  L 67,63  L 63,63  L 63,64  L 58,64  L 58,65  L 54,65  L 54,66  L 53,66  L 53,65  L 52,65  L 52,66  L 37,66  L 37,67  L 36,67  L 36,66  L 34,66  L 34,67  L 22,67  L 22,68  L 21,68  L 21,67  L 19,67  L 19,68  L 12,68  L 12,69  L 11,69  L 11,68  L 9,68  L 9,69  L 7,69  L 7,68  L 6,68  L 6,69  L 3,69  L 3,70  L 2,70  L 2,71  L 1,71  L 1,72  L 0,72  L 0,73  L 1,73  L 1,74  L 2,74  L 2,75  L 3,75  L 3,76  L 4,76  L 4,77  L 5,77  L 5,76  L 7,76  L 7,77  L 10,77  L 10,76  L 11,76  L 11,77  L 14,77  L 14,76  L 20,76  L 20,75  L 22,75  L 22,76  L 23,76  L 23,75  L 27,75  L 27,74  L 36,74  L 36,73  L 37,73  L 37,74  L 38,74  L 38,73  L 45,73  L 45,74  L 54,74  L 54,78  L 53,78  L 53,94  L 52,94  L 52,95  L 53,95  L 53,98  L 52,98  L 52,99  L 53,99  L 53,108  L 52,108  L 52,109  L 42,109  L 42,110  L 40,110  L 40,111  L 38,111  L 38,112  L 36,112  L 36,113  L 35,113  L 35,114  L 34,114  L 34,115  L 33,115  L 33,116  L 32,116  L 32,117  L 31,117  L 31,118  L 30,118  L 30,119  L 29,119  L 29,121  L 27,121  L 27,123  L 26,123  L 26,124  L 25,124  L 25,126  L 24,126  L 24,127  L 23,127  L 23,129  L 22,129  L 22,132  L 21,132  L 21,134  L 20,134  L 20,148  L 21,148  L 21,151  L 22,151  L 22,153  L 23,153  L 23,154  L 24,154  L 24,155  L 25,155  L 25,156  L 27,156  L 27,157  L 28,157  L 28,158  L 31,158  L 31,159  L 32,159  L 32,160  L 63,160  L 63,159  L 64,159  L 64,158  L 67,158  L 67,156  L 69,156  L 69,154  L 71,154  L 71,152  L 72,152  L 72,150  L 73,150  L 73,149  L 74,149  L 74,148  L 75,148  L 75,147  L 76,147  L 76,144  L 77,144  L 77,143  L 78,143  L 78,142  L 79,142  L 79,140  L 80,140  L 80,136  L 81,136  L 81,132  L 82,132  L 82,127  L 81,127  L 81,122  L 80,122  L 80,121  L 79,121  L 79,120  L 78,120  L 78,119  L 77,119  L 77,118  L 76,118  L 76,117  L 75,117  L 75,116  L 74,116  L 74,115  L 72,115  L 72,114  L 70,114  L 70,113  L 67,113  L 67,112  L 65,112  L 65,111  L 62,111  L 62,110  L 61,110  L 61,107  L 60,107  L 60,105  L 61,105  L 61,104  L 60,104  L 60,103  L 61,103  L 61,102  L 60,102  L 60,99  L 61,99  L 61,98  L 60,98  L 60,95  L 61,95  L 61,94  L 60,94  L 60,88  L 61,88  L 61,87  L 60,87  L 60,86  L 61,86  L 61,85  L 60,85  L 60,84  L 61,84  L 61,81  L 60,81  L 60,80  L 61,80  L 61,72  L 67,72  L 67,71  L 76,71  L 76,70  L 82,70  L 82,69  L 86,69  L 86,68  L 99,68  L 99,67  L 100,67  L 100,60  L 90,60  L 90,61  L 86,61  L 86,62  L 78,62  L 78,63  L 72,63  L 72,62  L 71,62  L 71,60  L 73,60  L 73,57  L 74,57  L 74,47  L 73,47  L 73,44  L 74,44  L 74,43  L 73,43  L 73,40  L 74,40  L 74,39  L 73,39  L 73,36  L 74,36  L 74,35  L 73,35  L 73,32  L 74,32  L 74,31  L 73,31  L 73,29  L 74,29  L 74,27  L 73,27  L 73,26  L 74,26  L 74,11  L 73,11  L 73,9  L 72,9  L 72,8  L 71,8  L 71,7  L 70,7  L 70,6  L 67,6  L 67,5  L 64,5  L 64,4  L 61,4  L 61,3  L 58,3  L 58,2  L 52,2  L 52,1  L 32,1  L 32,2  L 28,2  L 28,3  L 26,3  L 26,4  Z  M 36,153  L 36,152  L 33,152  L 33,151  L 31,151  L 31,150  L 30,150  L 30,149  L 28,149  L 28,147  L 27,147  L 27,138  L 28,138  L 28,134  L 29,134  L 29,133  L 30,133  L 30,130  L 31,130  L 31,128  L 32,128  L 32,127  L 33,127  L 33,126  L 34,126  L 34,125  L 35,125  L 35,124  L 36,124  L 36,123  L 37,123  L 37,122  L 38,122  L 38,121  L 39,121  L 39,120  L 41,120  L 41,119  L 43,119  L 43,118  L 46,118  L 46,117  L 55,117  L 55,118  L 63,118  L 63,119  L 66,119  L 66,120  L 69,120  L 69,121  L 70,121  L 70,122  L 71,122  L 71,124  L 72,124  L 72,126  L 73,126  L 73,129  L 74,129  L 74,134  L 73,134  L 73,137  L 72,137  L 72,139  L 71,139  L 71,140  L 70,140  L 70,142  L 69,142  L 69,144  L 68,144  L 68,146  L 67,146  L 67,147  L 66,147  L 66,148  L 65,148  L 65,149  L 64,149  L 64,150  L 63,150  L 63,151  L 62,151  L 62,152  L 60,152  L 60,153  L 54,153  L 54,154  L 52,154  L 52,153  L 51,153  L 51,154  L 48,154  L 48,153  L 47,153  L 47,154  L 44,154  L 44,153  Z  " style="fill:rgb(0, 0, 0); fill-opacity:1.000; stroke:none;" />
 <path d="  M 73,61  L 72,61  L 72,62  L 73,62  Z  " style="fill:rgb(0, 0, 0); fill-opacity:1.000; stroke:none;" />
</svg>
