<?xml version="1.0" encoding="UTF-8" standalone="no"?>
<!DOCTYPE svg PUBLIC "-//W3C//DTD SVG 1.1//EN" 
  "http://www.w3.org/Graphics/SVG/1.1/DTD/svg11.dtd">
<svg width="107" height="126"
     xmlns="http://www.w3.org/2000/svg" version="1.1">
 <path d="  M 50,70  L 50,69  L 57,69  L 57,68  L 62,68  L 62,67  L 63,67  L 63,68  L 64,68  L 64,67  L 68,67  L 68,66  L 77,66  L 77,65  L 84,65  L 84,64  L 88,64  L 88,63  L 90,63  L 90,62  L 93,62  L 93,61  L 92,61  L 92,58  L 88,58  L 88,57  L 85,57  L 85,58  L 77,58  L 77,59  L 71,59  L 71,60  L 70,60  L 70,59  L 69,59  L 69,60  L 64,60  L 64,61  L 57,61  L 57,62  L 53,62  L 53,63  L 49,63  L 49,64  L 41,64  L 41,65  L 38,65  L 38,64  L 37,64  L 37,65  L 35,65  L 35,66  L 32,66  L 32,67  L 26,67  L 26,68  L 20,68  L 20,69  L 15,69  L 15,70  L 11,70  L 11,71  L 10,71  L 10,70  L 9,70  L 9,71  L 4,71  L 4,72  L 2,72  L 2,73  L 1,73  L 1,74  L 0,74  L 0,77  L 2,77  L 2,78  L 3,78  L 3,79  L 5,79  L 5,78  L 7,78  L 7,77  L 13,77  L 13,76  L 17,76  L 17,75  L 23,75  L 23,74  L 30,74  L 30,73  L 34,73  L 34,74  L 33,74  L 33,90  L 32,90  L 32,91  L 33,91  L 33,92  L 32,92  L 32,97  L 31,97  L 31,101  L 30,101  L 30,104  L 29,104  L 29,108  L 28,108  L 28,111  L 27,111  L 27,117  L 31,117  L 31,115  L 32,115  L 32,114  L 33,114  L 33,112  L 34,112  L 34,110  L 35,110  L 35,106  L 36,106  L 36,103  L 37,103  L 37,100  L 38,100  L 38,94  L 39,94  L 39,85  L 40,85  L 40,84  L 39,84  L 39,83  L 40,83  L 40,72  L 41,72  L 41,71  L 46,71  L 46,70  Z  " style="fill:rgb(0, 0, 0); fill-opacity:1.000; stroke:none;" />
 <path d="  M 19,6  L 19,7  L 16,7  L 16,8  L 15,8  L 15,12  L 16,12  L 16,13  L 50,13  L 50,14  L 52,14  L 52,15  L 54,15  L 54,16  L 55,16  L 55,17  L 56,17  L 56,24  L 55,24  L 55,25  L 54,25  L 54,26  L 52,26  L 52,27  L 49,27  L 49,28  L 45,28  L 45,29  L 41,29  L 41,30  L 36,30  L 36,31  L 30,31  L 30,32  L 23,32  L 23,33  L 19,33  L 19,34  L 16,34  L 16,35  L 12,35  L 12,36  L 11,36  L 11,39  L 10,39  L 10,42  L 11,42  L 11,43  L 14,43  L 14,42  L 17,42  L 17,41  L 21,41  L 21,40  L 25,40  L 25,39  L 29,39  L 29,38  L 36,38  L 36,37  L 44,37  L 44,36  L 49,36  L 49,35  L 50,35  L 50,36  L 51,36  L 51,35  L 53,35  L 53,34  L 54,34  L 54,33  L 56,33  L 56,36  L 57,36  L 57,39  L 56,39  L 56,42  L 55,42  L 55,45  L 54,45  L 54,50  L 53,50  L 53,55  L 52,55  L 52,56  L 53,56  L 53,57  L 52,57  L 52,58  L 53,58  L 53,59  L 57,59  L 57,58  L 58,58  L 58,59  L 59,59  L 59,57  L 60,57  L 60,56  L 61,56  L 61,54  L 60,54  L 60,53  L 61,53  L 61,46  L 62,46  L 62,42  L 63,42  L 63,37  L 64,37  L 64,32  L 63,32  L 63,31  L 64,31  L 64,23  L 65,23  L 65,20  L 64,20  L 64,19  L 65,19  L 65,18  L 64,18  L 64,16  L 63,16  L 63,15  L 62,15  L 62,13  L 61,13  L 61,11  L 60,11  L 60,10  L 59,10  L 59,9  L 58,9  L 58,8  L 54,8  L 54,7  L 48,7  L 48,6  L 47,6  L 47,7  L 46,7  L 46,6  L 45,6  L 45,7  L 42,7  L 42,6  L 41,6  L 41,7  L 34,7  L 34,6  L 33,6  L 33,7  L 30,7  L 30,6  Z  " style="fill:rgb(0, 0, 0); fill-opacity:1.000; stroke:none;" />
 <path d="  M 99,35  L 100,35  L 100,57  L 101,57  L 101,60  L 100,60  L 100,61  L 101,61  L 101,76  L 100,76  L 100,78  L 97,78  L 97,77  L 86,77  L 86,78  L 83,78  L 83,79  L 81,79  L 81,80  L 77,80  L 77,81  L 73,81  L 73,82  L 65,82  L 65,83  L 57,83  L 57,84  L 55,84  L 55,85  L 54,85  L 54,87  L 53,87  L 53,88  L 54,88  L 54,89  L 55,89  L 55,90  L 59,90  L 59,89  L 62,89  L 62,88  L 70,88  L 70,87  L 76,87  L 76,86  L 80,86  L 80,85  L 84,85  L 84,84  L 85,84  L 85,85  L 86,85  L 86,84  L 100,84  L 100,85  L 101,85  L 101,126  L 107,126  L 107,38  L 106,38  L 106,37  L 107,37  L 107,36  L 106,36  L 106,35  L 107,35  L 107,34  L 106,34  L 106,28  L 105,28  L 105,22  L 104,22  L 104,18  L 103,18  L 103,14  L 102,14  L 102,10  L 101,10  L 101,4  L 100,4  L 100,2  L 99,2  L 99,1  L 97,1  L 97,0  L 95,0  L 95,1  L 94,1  L 94,10  L 95,10  L 95,13  L 96,13  L 96,16  L 97,16  L 97,21  L 98,21  L 98,24  L 99,24  Z  " style="fill:rgb(0, 0, 0); fill-opacity:1.000; stroke:none;" />
</svg>
