<?xml version="1.0" encoding="UTF-8" standalone="no"?>
<!DOCTYPE svg PUBLIC "-//W3C//DTD SVG 1.1//EN" 
  "http://www.w3.org/Graphics/SVG/1.1/DTD/svg11.dtd">
<svg width="108" height="156"
     xmlns="http://www.w3.org/2000/svg" version="1.1">
 <path d="  M 56,34  L 57,34  L 57,30  L 58,30  L 58,26  L 59,26  L 59,23  L 60,23  L 60,13  L 59,13  L 59,10  L 58,10  L 58,9  L 57,9  L 57,8  L 56,8  L 56,7  L 55,7  L 55,6  L 54,6  L 54,5  L 53,5  L 53,4  L 52,4  L 52,2  L 50,2  L 50,1  L 23,1  L 23,2  L 18,2  L 18,3  L 15,3  L 15,4  L 14,4  L 14,5  L 13,5  L 13,6  L 11,6  L 11,10  L 10,10  L 10,11  L 11,11  L 11,13  L 13,13  L 13,14  L 14,14  L 14,13  L 16,13  L 16,12  L 17,12  L 17,11  L 19,11  L 19,10  L 20,10  L 20,9  L 26,9  L 26,8  L 44,8  L 44,9  L 45,9  L 45,8  L 46,8  L 46,9  L 49,9  L 49,10  L 51,10  L 51,12  L 52,12  L 52,13  L 53,13  L 53,18  L 54,18  L 54,19  L 53,19  L 53,22  L 52,22  L 52,25  L 51,25  L 51,26  L 50,26  L 50,25  L 49,25  L 49,26  L 48,26  L 48,25  L 43,25  L 43,26  L 33,26  L 33,27  L 28,27  L 28,28  L 25,28  L 25,29  L 23,29  L 23,30  L 22,30  L 22,29  L 21,29  L 21,30  L 19,30  L 19,31  L 16,31  L 16,32  L 13,32  L 13,33  L 11,33  L 11,34  L 9,34  L 9,35  L 8,35  L 8,40  L 13,40  L 13,39  L 16,39  L 16,38  L 18,38  L 18,37  L 21,37  L 21,36  L 26,36  L 26,35  L 30,35  L 30,34  L 34,34  L 34,33  L 48,33  L 48,34  L 49,34  L 49,35  L 48,35  L 48,38  L 47,38  L 47,43  L 46,43  L 46,45  L 45,45  L 45,47  L 44,47  L 44,48  L 43,48  L 43,49  L 42,49  L 42,51  L 41,51  L 41,52  L 39,52  L 39,53  L 38,53  L 38,54  L 36,54  L 36,55  L 34,55  L 34,56  L 32,56  L 32,57  L 29,57  L 29,58  L 25,58  L 25,59  L 19,59  L 19,60  L 15,60  L 15,61  L 12,61  L 12,62  L 10,62  L 10,63  L 7,63  L 7,64  L 5,64  L 5,65  L 4,65  L 4,66  L 3,66  L 3,67  L 2,67  L 2,68  L 1,68  L 1,72  L 2,72  L 2,71  L 3,71  L 3,72  L 5,72  L 5,71  L 8,71  L 8,70  L 10,70  L 10,69  L 13,69  L 13,68  L 16,68  L 16,67  L 24,67  L 24,66  L 28,66  L 28,67  L 29,67  L 29,75  L 28,75  L 28,76  L 29,76  L 29,85  L 28,85  L 28,86  L 29,86  L 29,87  L 28,87  L 28,91  L 27,91  L 27,99  L 26,99  L 26,105  L 27,105  L 27,104  L 28,104  L 28,105  L 31,105  L 31,104  L 34,104  L 34,98  L 35,98  L 35,97  L 34,97  L 34,96  L 35,96  L 35,90  L 36,90  L 36,89  L 35,89  L 35,86  L 36,86  L 36,85  L 35,85  L 35,83  L 36,83  L 36,81  L 35,81  L 35,80  L 36,80  L 36,77  L 35,77  L 35,76  L 36,76  L 36,73  L 35,73  L 35,72  L 36,72  L 36,63  L 37,63  L 37,62  L 39,62  L 39,61  L 41,61  L 41,60  L 51,60  L 51,59  L 60,59  L 60,58  L 66,58  L 66,57  L 68,57  L 68,56  L 69,56  L 69,54  L 68,54  L 68,53  L 66,53  L 66,52  L 59,52  L 59,51  L 56,51  L 56,52  L 53,52  L 53,53  L 52,53  L 52,50  L 53,50  L 53,47  L 54,47  L 54,44  L 55,44  L 55,39  L 56,39  Z  " style="fill:rgb(0, 0, 0); fill-opacity:1.000; stroke:none;" />
 <path d="  M 63,110  L 63,111  L 62,111  L 62,112  L 60,112  L 60,113  L 58,113  L 58,114  L 57,114  L 57,115  L 55,115  L 55,116  L 54,116  L 54,118  L 53,118  L 53,119  L 52,119  L 52,120  L 51,120  L 51,122  L 50,122  L 50,124  L 49,124  L 49,125  L 48,125  L 48,127  L 47,127  L 47,129  L 46,129  L 46,131  L 45,131  L 45,133  L 44,133  L 44,138  L 43,138  L 43,144  L 44,144  L 44,146  L 45,146  L 45,148  L 47,148  L 47,150  L 48,150  L 48,151  L 49,151  L 49,152  L 51,152  L 51,153  L 53,153  L 53,154  L 54,154  L 54,155  L 55,155  L 55,154  L 56,154  L 56,155  L 59,155  L 59,156  L 77,156  L 77,155  L 80,155  L 80,154  L 82,154  L 82,153  L 83,153  L 83,154  L 84,154  L 84,153  L 86,153  L 86,152  L 89,152  L 89,151  L 91,151  L 91,150  L 93,150  L 93,149  L 94,149  L 94,148  L 97,148  L 97,147  L 99,147  L 99,146  L 100,146  L 100,145  L 101,145  L 101,143  L 102,143  L 102,141  L 103,141  L 103,139  L 104,139  L 104,136  L 105,136  L 105,123  L 104,123  L 104,119  L 103,119  L 103,117  L 102,117  L 102,115  L 100,115  L 100,114  L 99,114  L 99,113  L 97,113  L 97,112  L 95,112  L 95,111  L 93,111  L 93,110  L 91,110  L 91,109  L 87,109  L 87,108  L 75,108  L 75,109  L 67,109  L 67,110  Z  M 83,146  L 83,147  L 80,147  L 80,148  L 78,148  L 78,149  L 69,149  L 69,150  L 67,150  L 67,149  L 65,149  L 65,150  L 64,150  L 64,149  L 58,149  L 58,148  L 56,148  L 56,147  L 54,147  L 54,146  L 52,146  L 52,144  L 51,144  L 51,142  L 50,142  L 50,136  L 51,136  L 51,134  L 52,134  L 52,130  L 53,130  L 53,128  L 54,128  L 54,127  L 55,127  L 55,126  L 56,126  L 56,125  L 57,125  L 57,123  L 58,123  L 58,122  L 59,122  L 59,121  L 60,121  L 60,120  L 62,120  L 62,119  L 64,119  L 64,118  L 66,118  L 66,117  L 69,117  L 69,116  L 74,116  L 74,115  L 85,115  L 85,116  L 89,116  L 89,117  L 91,117  L 91,118  L 93,118  L 93,119  L 95,119  L 95,120  L 96,120  L 96,121  L 97,121  L 97,122  L 98,122  L 98,125  L 99,125  L 99,132  L 98,132  L 98,136  L 97,136  L 97,138  L 96,138  L 96,139  L 95,139  L 95,141  L 94,141  L 94,142  L 93,142  L 93,143  L 91,143  L 91,144  L 90,144  L 90,145  L 87,145  L 87,146  Z  " style="fill:rgb(0, 0, 0); fill-opacity:1.000; stroke:none;" />
 <path d="  M 78,69  L 72,69  L 72,70  L 71,70  L 71,69  L 67,69  L 67,70  L 65,70  L 65,69  L 64,69  L 64,70  L 60,70  L 60,71  L 58,71  L 58,72  L 57,72  L 57,73  L 51,73  L 51,74  L 48,74  L 48,75  L 46,75  L 46,77  L 45,77  L 45,78  L 44,78  L 44,81  L 45,81  L 45,83  L 47,83  L 47,82  L 50,82  L 50,81  L 52,81  L 52,80  L 55,80  L 55,79  L 61,79  L 61,78  L 64,78  L 64,77  L 78,77  L 78,78  L 79,78  L 79,92  L 80,92  L 80,94  L 79,94  L 79,95  L 80,95  L 80,96  L 79,96  L 79,99  L 80,99  L 80,101  L 81,101  L 81,102  L 82,102  L 82,101  L 83,101  L 83,100  L 84,100  L 84,99  L 85,99  L 85,95  L 86,95  L 86,71  L 85,71  L 85,70  L 86,70  L 86,69  L 85,69  L 85,57  L 84,57  L 84,56  L 85,56  L 85,55  L 84,55  L 84,45  L 83,45  L 83,43  L 84,43  L 84,41  L 83,41  L 83,38  L 84,38  L 84,37  L 83,37  L 83,22  L 84,22  L 84,21  L 83,21  L 83,18  L 82,18  L 82,17  L 78,17  L 78,18  L 77,18  L 77,21  L 76,21  L 76,22  L 77,22  L 77,23  L 76,23  L 76,31  L 77,31  L 77,32  L 76,32  L 76,34  L 77,34  L 77,58  L 78,58  Z  " style="fill:rgb(0, 0, 0); fill-opacity:1.000; stroke:none;" />
 <path d="  M 107,93  L 107,90  L 108,90  L 108,89  L 107,89  L 107,86  L 108,86  L 108,85  L 107,85  L 107,55  L 106,55  L 106,54  L 107,54  L 107,53  L 106,53  L 106,52  L 107,52  L 107,51  L 106,51  L 106,48  L 107,48  L 107,47  L 106,47  L 106,40  L 105,40  L 105,33  L 104,33  L 104,25  L 103,25  L 103,22  L 102,22  L 102,21  L 103,21  L 103,20  L 99,20  L 99,21  L 98,21  L 98,23  L 97,23  L 97,24  L 98,24  L 98,25  L 97,25  L 97,26  L 98,26  L 98,27  L 97,27  L 97,28  L 98,28  L 98,31  L 99,31  L 99,40  L 100,40  L 100,43  L 99,43  L 99,44  L 100,44  L 100,55  L 101,55  L 101,57  L 100,57  L 100,58  L 101,58  L 101,61  L 100,61  L 100,62  L 101,62  L 101,65  L 100,65  L 100,66  L 101,66  L 101,91  L 102,91  L 102,93  L 101,93  L 101,94  L 102,94  L 102,103  L 103,103  L 103,109  L 104,109  L 104,110  L 108,110  L 108,93  Z  " style="fill:rgb(0, 0, 0); fill-opacity:1.000; stroke:none;" />
</svg>
