<?xml version="1.0" encoding="UTF-8" standalone="no"?>
<!DOCTYPE svg PUBLIC "-//W3C//DTD SVG 1.1//EN" 
  "http://www.w3.org/Graphics/SVG/1.1/DTD/svg11.dtd">
<svg width="100" height="165"
     xmlns="http://www.w3.org/2000/svg" version="1.1">
 <path d="  M 43,68  L 47,68  L 47,67  L 49,67  L 49,66  L 53,66  L 53,65  L 54,65  L 54,64  L 55,64  L 55,65  L 56,65  L 56,64  L 67,64  L 67,63  L 70,63  L 70,62  L 74,62  L 74,61  L 75,61  L 75,60  L 76,60  L 76,59  L 77,59  L 77,58  L 78,58  L 78,56  L 76,56  L 76,55  L 74,55  L 74,54  L 67,54  L 67,55  L 66,55  L 66,56  L 65,56  L 65,55  L 64,55  L 64,56  L 59,56  L 59,55  L 58,55  L 58,52  L 60,52  L 60,48  L 61,48  L 61,44  L 62,44  L 62,35  L 63,35  L 63,29  L 64,29  L 64,25  L 65,25  L 65,23  L 64,23  L 64,21  L 65,21  L 65,19  L 64,19  L 64,15  L 63,15  L 63,14  L 62,14  L 62,12  L 61,12  L 61,11  L 60,11  L 60,10  L 59,10  L 59,9  L 58,9  L 58,8  L 57,8  L 57,7  L 56,7  L 56,6  L 55,6  L 55,5  L 52,5  L 52,4  L 50,4  L 50,3  L 48,3  L 48,2  L 40,2  L 40,1  L 19,1  L 19,2  L 15,2  L 15,3  L 12,3  L 12,5  L 10,5  L 10,7  L 9,7  L 9,8  L 10,8  L 10,9  L 9,9  L 9,10  L 11,10  L 11,11  L 14,11  L 14,10  L 17,10  L 17,9  L 21,9  L 21,8  L 39,8  L 39,9  L 46,9  L 46,10  L 50,10  L 50,11  L 52,11  L 52,12  L 53,12  L 53,13  L 54,13  L 54,14  L 55,14  L 55,16  L 56,16  L 56,18  L 57,18  L 57,23  L 55,23  L 55,24  L 52,24  L 52,25  L 45,25  L 45,26  L 44,26  L 44,25  L 43,25  L 43,26  L 42,26  L 42,25  L 41,25  L 41,26  L 34,26  L 34,27  L 33,27  L 33,26  L 30,26  L 30,27  L 29,27  L 29,26  L 27,26  L 27,27  L 21,27  L 21,28  L 20,28  L 20,27  L 19,27  L 19,28  L 16,28  L 16,30  L 15,30  L 15,31  L 13,31  L 13,34  L 14,34  L 14,36  L 15,36  L 15,35  L 16,35  L 16,36  L 17,36  L 17,35  L 24,35  L 24,34  L 39,34  L 39,33  L 40,33  L 40,34  L 41,34  L 41,33  L 49,33  L 49,32  L 50,32  L 50,33  L 52,33  L 52,32  L 54,32  L 54,38  L 53,38  L 53,41  L 52,41  L 52,45  L 51,45  L 51,47  L 50,47  L 50,51  L 49,51  L 49,53  L 48,53  L 48,56  L 47,56  L 47,58  L 46,58  L 46,59  L 44,59  L 44,60  L 41,60  L 41,61  L 33,61  L 33,62  L 24,62  L 24,63  L 18,63  L 18,64  L 15,64  L 15,65  L 12,65  L 12,66  L 10,66  L 10,67  L 8,67  L 8,68  L 7,68  L 7,69  L 2,69  L 2,70  L 1,70  L 1,73  L 0,73  L 0,74  L 1,74  L 1,75  L 2,75  L 2,76  L 7,76  L 7,75  L 8,75  L 8,74  L 10,74  L 10,73  L 13,73  L 13,72  L 16,72  L 16,71  L 21,71  L 21,70  L 24,70  L 24,71  L 25,71  L 25,70  L 32,70  L 32,71  L 33,71  L 33,74  L 32,74  L 32,90  L 33,90  L 33,93  L 32,93  L 32,94  L 33,94  L 33,98  L 34,98  L 34,100  L 35,100  L 35,102  L 37,102  L 37,103  L 40,103  L 40,102  L 41,102  L 41,100  L 42,100  L 42,99  L 41,99  L 41,94  L 40,94  L 40,82  L 39,82  L 39,81  L 40,81  L 40,79  L 39,79  L 39,74  L 40,74  L 40,73  L 39,73  L 39,72  L 40,72  L 40,70  L 41,70  L 41,69  L 43,69  Z  " style="fill:rgb(0, 0, 0); fill-opacity:1.000; stroke:none;" />
 <path d="  M 47,158  L 47,157  L 41,157  L 41,156  L 40,156  L 40,155  L 38,155  L 38,153  L 37,153  L 37,150  L 38,150  L 38,147  L 40,147  L 40,146  L 41,146  L 41,145  L 46,145  L 46,144  L 47,144  L 47,145  L 48,145  L 48,144  L 51,144  L 51,143  L 53,143  L 53,142  L 56,142  L 56,141  L 60,141  L 60,140  L 64,140  L 64,139  L 66,139  L 66,138  L 69,138  L 69,137  L 70,137  L 70,136  L 73,136  L 73,135  L 74,135  L 74,133  L 75,133  L 75,132  L 77,132  L 77,131  L 78,131  L 78,130  L 79,130  L 79,129  L 80,129  L 80,128  L 81,128  L 81,127  L 82,127  L 82,126  L 84,126  L 84,124  L 85,124  L 85,121  L 86,121  L 86,118  L 85,118  L 85,117  L 86,117  L 86,116  L 85,116  L 85,115  L 84,115  L 84,114  L 83,114  L 83,113  L 81,113  L 81,112  L 80,112  L 80,111  L 78,111  L 78,110  L 75,110  L 75,109  L 71,109  L 71,108  L 68,108  L 68,107  L 58,107  L 58,106  L 51,106  L 51,105  L 50,105  L 50,106  L 49,106  L 49,105  L 48,105  L 48,106  L 47,106  L 47,105  L 40,105  L 40,106  L 39,106  L 39,107  L 37,107  L 37,112  L 38,112  L 38,113  L 40,113  L 40,114  L 43,114  L 43,115  L 45,115  L 45,114  L 51,114  L 51,113  L 52,113  L 52,114  L 59,114  L 59,115  L 65,115  L 65,116  L 71,116  L 71,117  L 73,117  L 73,118  L 75,118  L 75,119  L 74,119  L 74,120  L 75,120  L 75,124  L 73,124  L 73,125  L 71,125  L 71,126  L 70,126  L 70,127  L 69,127  L 69,128  L 67,128  L 67,129  L 66,129  L 66,130  L 65,130  L 65,131  L 64,131  L 64,132  L 63,132  L 63,131  L 62,131  L 62,133  L 60,133  L 60,134  L 57,134  L 57,135  L 53,135  L 53,136  L 48,136  L 48,137  L 45,137  L 45,138  L 43,138  L 43,137  L 42,137  L 42,138  L 39,138  L 39,139  L 36,139  L 36,140  L 33,140  L 33,142  L 32,142  L 32,144  L 31,144  L 31,146  L 30,146  L 30,148  L 29,148  L 29,149  L 28,149  L 28,152  L 29,152  L 29,155  L 30,155  L 30,158  L 31,158  L 31,159  L 33,159  L 33,160  L 34,160  L 34,162  L 37,162  L 37,163  L 44,163  L 44,164  L 50,164  L 50,165  L 66,165  L 66,164  L 71,164  L 71,163  L 78,163  L 78,162  L 79,162  L 79,161  L 83,161  L 83,160  L 85,160  L 85,159  L 87,159  L 87,158  L 90,158  L 90,157  L 92,157  L 92,156  L 94,156  L 94,155  L 95,155  L 95,154  L 96,154  L 96,152  L 97,152  L 97,148  L 96,148  L 96,147  L 93,147  L 93,148  L 90,148  L 90,149  L 88,149  L 88,150  L 86,150  L 86,151  L 83,151  L 83,152  L 82,152  L 82,153  L 79,153  L 79,154  L 77,154  L 77,155  L 74,155  L 74,156  L 71,156  L 71,157  L 66,157  L 66,158  L 62,158  L 62,159  L 52,159  L 52,158  Z  " style="fill:rgb(0, 0, 0); fill-opacity:1.000; stroke:none;" />
 <path d="  M 94,97  L 93,97  L 93,98  L 94,98  L 94,100  L 100,100  L 100,15  L 99,15  L 99,14  L 100,14  L 100,12  L 99,12  L 99,8  L 98,8  L 98,6  L 97,6  L 97,5  L 94,5  L 94,6  L 92,6  L 92,15  L 93,15  L 93,17  L 92,17  L 92,18  L 93,18  L 93,25  L 94,25  L 94,27  L 93,27  L 93,28  L 94,28  L 94,31  L 93,31  L 93,32  L 94,32  Z  " style="fill:rgb(0, 0, 0); fill-opacity:1.000; stroke:none;" />
</svg>
