<?xml version="1.0" encoding="UTF-8" standalone="no"?>
<!DOCTYPE svg PUBLIC "-//W3C//DTD SVG 1.1//EN" 
  "http://www.w3.org/Graphics/SVG/1.1/DTD/svg11.dtd">
<svg width="104" height="155"
     xmlns="http://www.w3.org/2000/svg" version="1.1">
 <path d="  M 14,3  L 14,4  L 13,4  L 13,5  L 12,5  L 12,7  L 11,7  L 11,11  L 10,11  L 10,12  L 16,12  L 16,11  L 18,11  L 18,10  L 19,10  L 19,9  L 22,9  L 22,8  L 31,8  L 31,7  L 34,7  L 34,8  L 39,8  L 39,9  L 43,9  L 43,10  L 44,10  L 44,11  L 46,11  L 46,12  L 47,12  L 47,13  L 48,13  L 48,14  L 49,14  L 49,15  L 50,15  L 50,16  L 51,16  L 51,17  L 52,17  L 52,19  L 53,19  L 53,21  L 51,21  L 51,22  L 50,22  L 50,23  L 47,23  L 47,24  L 42,24  L 42,25  L 37,25  L 37,26  L 31,26  L 31,27  L 28,27  L 28,28  L 27,28  L 27,27  L 26,27  L 26,28  L 21,28  L 21,29  L 18,29  L 18,30  L 15,30  L 15,31  L 13,31  L 13,32  L 12,32  L 12,33  L 11,33  L 11,35  L 10,35  L 10,38  L 12,38  L 12,39  L 13,39  L 13,38  L 16,38  L 16,37  L 18,37  L 18,36  L 23,36  L 23,35  L 27,35  L 27,34  L 33,34  L 33,33  L 39,33  L 39,32  L 43,32  L 43,31  L 46,31  L 46,30  L 51,30  L 51,35  L 50,35  L 50,36  L 51,36  L 51,38  L 50,38  L 50,42  L 49,42  L 49,49  L 48,49  L 48,56  L 47,56  L 47,57  L 46,57  L 46,58  L 45,58  L 45,59  L 42,59  L 42,60  L 38,60  L 38,61  L 32,61  L 32,62  L 24,62  L 24,63  L 23,63  L 23,62  L 22,62  L 22,63  L 16,63  L 16,64  L 15,64  L 15,63  L 14,63  L 14,64  L 13,64  L 13,65  L 10,65  L 10,66  L 7,66  L 7,67  L 3,67  L 3,69  L 1,69  L 1,71  L 0,71  L 0,74  L 1,74  L 1,75  L 2,75  L 2,74  L 3,74  L 3,75  L 5,75  L 5,74  L 7,74  L 7,73  L 8,73  L 8,72  L 11,72  L 11,71  L 15,71  L 15,70  L 21,70  L 21,69  L 29,69  L 29,68  L 33,68  L 33,69  L 34,69  L 34,71  L 33,71  L 33,81  L 32,81  L 32,82  L 33,82  L 33,89  L 32,89  L 32,99  L 33,99  L 33,100  L 38,100  L 38,98  L 39,98  L 39,96  L 40,96  L 40,68  L 41,68  L 41,67  L 43,67  L 43,66  L 46,66  L 46,65  L 50,65  L 50,64  L 53,64  L 53,63  L 54,63  L 54,64  L 55,64  L 55,63  L 61,63  L 61,62  L 64,62  L 64,61  L 68,61  L 68,62  L 69,62  L 69,61  L 76,61  L 76,60  L 79,60  L 79,59  L 81,59  L 81,56  L 82,56  L 82,55  L 81,55  L 81,53  L 71,53  L 71,54  L 66,54  L 66,55  L 59,55  L 59,56  L 57,56  L 57,55  L 56,55  L 56,53  L 57,53  L 57,47  L 58,47  L 58,39  L 59,39  L 59,34  L 60,34  L 60,29  L 61,29  L 61,26  L 60,26  L 60,24  L 61,24  L 61,22  L 60,22  L 60,17  L 59,17  L 59,16  L 58,16  L 58,13  L 57,13  L 57,11  L 56,11  L 56,10  L 54,10  L 54,8  L 52,8  L 52,7  L 51,7  L 51,6  L 49,6  L 49,5  L 47,5  L 47,4  L 45,4  L 45,3  L 43,3  L 43,2  L 40,2  L 40,1  L 18,1  L 18,2  L 15,2  L 15,3  Z  " style="fill:rgb(0, 0, 0); fill-opacity:1.000; stroke:none;" />
 <path d="  M 74,155  L 74,154  L 78,154  L 78,153  L 80,153  L 80,152  L 83,152  L 83,151  L 84,151  L 84,152  L 85,152  L 85,151  L 87,151  L 87,150  L 89,150  L 89,149  L 92,149  L 92,148  L 94,148  L 94,147  L 96,147  L 96,146  L 97,146  L 97,145  L 99,145  L 99,144  L 100,144  L 100,142  L 101,142  L 101,140  L 102,140  L 102,136  L 103,136  L 103,123  L 102,123  L 102,118  L 101,118  L 101,116  L 100,116  L 100,115  L 99,115  L 99,114  L 98,114  L 98,113  L 97,113  L 97,112  L 96,112  L 96,111  L 94,111  L 94,110  L 92,110  L 92,109  L 90,109  L 90,108  L 84,108  L 84,107  L 58,107  L 58,108  L 56,108  L 56,109  L 55,109  L 55,110  L 53,110  L 53,111  L 52,111  L 52,112  L 51,112  L 51,113  L 50,113  L 50,114  L 49,114  L 49,115  L 47,115  L 47,116  L 46,116  L 46,117  L 45,117  L 45,119  L 44,119  L 44,120  L 43,120  L 43,122  L 42,122  L 42,123  L 41,123  L 41,125  L 40,125  L 40,127  L 39,127  L 39,128  L 38,128  L 38,131  L 37,131  L 37,133  L 36,133  L 36,134  L 35,134  L 35,137  L 34,137  L 34,143  L 35,143  L 35,146  L 36,146  L 36,148  L 37,148  L 37,150  L 39,150  L 39,151  L 41,151  L 41,152  L 43,152  L 43,153  L 45,153  L 45,154  L 50,154  L 50,155  Z  M 59,116  L 62,116  L 62,115  L 72,115  L 72,114  L 79,114  L 79,115  L 85,115  L 85,116  L 88,116  L 88,117  L 91,117  L 91,118  L 92,118  L 92,119  L 94,119  L 94,120  L 95,120  L 95,122  L 96,122  L 96,129  L 97,129  L 97,130  L 96,130  L 96,136  L 95,136  L 95,138  L 94,138  L 94,139  L 93,139  L 93,140  L 92,140  L 92,141  L 91,141  L 91,142  L 89,142  L 89,143  L 87,143  L 87,144  L 84,144  L 84,145  L 79,145  L 79,146  L 78,146  L 78,147  L 74,147  L 74,148  L 68,148  L 68,149  L 58,149  L 58,148  L 51,148  L 51,147  L 46,147  L 46,146  L 45,146  L 45,145  L 43,145  L 43,144  L 42,144  L 42,140  L 43,140  L 43,135  L 44,135  L 44,134  L 45,134  L 45,131  L 46,131  L 46,129  L 47,129  L 47,127  L 48,127  L 48,126  L 49,126  L 49,125  L 50,125  L 50,124  L 51,124  L 51,122  L 53,122  L 53,121  L 54,121  L 54,120  L 55,120  L 55,119  L 56,119  L 56,118  L 58,118  L 58,117  L 59,117  Z  " style="fill:rgb(0, 0, 0); fill-opacity:1.000; stroke:none;" />
 <path d="  M 101,51  L 101,50  L 102,50  L 102,49  L 101,49  L 101,39  L 100,39  L 100,32  L 99,32  L 99,30  L 100,30  L 100,29  L 99,29  L 99,25  L 98,25  L 98,20  L 97,20  L 97,15  L 96,15  L 96,11  L 95,11  L 95,7  L 94,7  L 94,5  L 93,5  L 93,3  L 89,3  L 89,4  L 88,4  L 88,14  L 89,14  L 89,17  L 90,17  L 90,20  L 91,20  L 91,23  L 92,23  L 92,30  L 93,30  L 93,36  L 94,36  L 94,44  L 95,44  L 95,63  L 96,63  L 96,83  L 97,83  L 97,85  L 96,85  L 96,86  L 97,86  L 97,89  L 96,89  L 96,90  L 97,90  L 97,100  L 98,100  L 98,105  L 99,105  L 99,107  L 104,107  L 104,93  L 103,93  L 103,79  L 102,79  L 102,53  L 101,53  L 101,52  L 102,52  L 102,51  Z  " style="fill:rgb(0, 0, 0); fill-opacity:1.000; stroke:none;" />
</svg>
