<?xml version="1.0" encoding="UTF-8" standalone="no"?>
<!DOCTYPE svg PUBLIC "-//W3C//DTD SVG 1.1//EN" 
  "http://www.w3.org/Graphics/SVG/1.1/DTD/svg11.dtd">
<svg width="106" height="159"
     xmlns="http://www.w3.org/2000/svg" version="1.1">
 <path d="  M 95,67  L 95,66  L 98,66  L 98,65  L 103,65  L 103,64  L 105,64  L 105,63  L 106,63  L 106,57  L 102,57  L 102,56  L 101,56  L 101,57  L 96,57  L 96,58  L 95,58  L 95,57  L 94,57  L 94,58  L 91,58  L 91,59  L 87,59  L 87,60  L 85,60  L 85,61  L 83,61  L 83,62  L 75,62  L 75,63  L 73,63  L 73,59  L 74,59  L 74,53  L 75,53  L 75,35  L 76,35  L 76,26  L 77,26  L 77,24  L 76,24  L 76,23  L 77,23  L 77,12  L 76,12  L 76,10  L 75,10  L 75,9  L 74,9  L 74,7  L 72,7  L 72,6  L 71,6  L 71,5  L 68,5  L 68,4  L 64,4  L 64,3  L 60,3  L 60,2  L 57,2  L 57,1  L 32,1  L 32,2  L 27,2  L 27,3  L 24,3  L 24,4  L 20,4  L 20,5  L 19,5  L 19,6  L 18,6  L 18,7  L 17,7  L 17,12  L 18,12  L 18,13  L 20,13  L 20,14  L 21,14  L 21,13  L 24,13  L 24,12  L 25,12  L 25,11  L 27,11  L 27,10  L 29,10  L 29,9  L 33,9  L 33,8  L 43,8  L 43,7  L 44,7  L 44,8  L 47,8  L 47,7  L 48,7  L 48,8  L 51,8  L 51,7  L 52,7  L 52,8  L 58,8  L 58,9  L 63,9  L 63,10  L 65,10  L 65,12  L 66,12  L 66,13  L 68,13  L 68,15  L 69,15  L 69,19  L 70,19  L 70,20  L 69,20  L 69,21  L 70,21  L 70,22  L 69,22  L 69,24  L 68,24  L 68,26  L 66,26  L 66,27  L 62,27  L 62,28  L 60,28  L 60,27  L 59,27  L 59,28  L 56,28  L 56,29  L 50,29  L 50,30  L 45,30  L 45,31  L 37,31  L 37,32  L 30,32  L 30,33  L 26,33  L 26,34  L 24,34  L 24,35  L 21,35  L 21,36  L 18,36  L 18,37  L 17,37  L 17,38  L 16,38  L 16,43  L 22,43  L 22,42  L 24,42  L 24,41  L 26,41  L 26,40  L 31,40  L 31,39  L 37,39  L 37,38  L 45,38  L 45,37  L 53,37  L 53,36  L 58,36  L 58,35  L 62,35  L 62,34  L 65,34  L 65,33  L 66,33  L 66,34  L 67,34  L 67,36  L 68,36  L 68,37  L 67,37  L 67,56  L 66,56  L 66,59  L 67,59  L 67,60  L 66,60  L 66,62  L 65,62  L 65,63  L 62,63  L 62,64  L 58,64  L 58,65  L 51,65  L 51,66  L 18,66  L 18,67  L 12,67  L 12,68  L 5,68  L 5,69  L 1,69  L 1,72  L 0,72  L 0,75  L 4,75  L 4,76  L 9,76  L 9,75  L 15,75  L 15,74  L 16,74  L 16,75  L 17,75  L 17,74  L 21,74  L 21,73  L 24,73  L 24,74  L 25,74  L 25,73  L 31,73  L 31,74  L 33,74  L 33,73  L 34,73  L 34,74  L 37,74  L 37,73  L 41,73  L 41,74  L 42,74  L 42,77  L 43,77  L 43,82  L 44,82  L 44,84  L 43,84  L 43,85  L 44,85  L 44,102  L 43,102  L 43,107  L 44,107  L 44,108  L 45,108  L 45,109  L 46,109  L 46,108  L 48,108  L 48,107  L 49,107  L 49,106  L 50,106  L 50,99  L 51,99  L 51,81  L 50,81  L 50,76  L 51,76  L 51,75  L 52,75  L 52,74  L 53,74  L 53,73  L 63,73  L 63,72  L 64,72  L 64,77  L 65,77  L 65,86  L 66,86  L 66,94  L 67,94  L 67,99  L 68,99  L 68,103  L 69,103  L 69,104  L 68,104  L 68,105  L 69,105  L 69,110  L 70,110  L 70,111  L 71,111  L 71,112  L 76,112  L 76,105  L 75,105  L 75,98  L 74,98  L 74,94  L 73,94  L 73,86  L 72,86  L 72,72  L 73,72  L 73,71  L 77,71  L 77,70  L 81,70  L 81,69  L 83,69  L 83,68  L 89,68  L 89,67  Z  " style="fill:rgb(0, 0, 0); fill-opacity:1.000; stroke:none;" />
 <path d="  M 39,159  L 39,158  L 46,158  L 46,157  L 52,157  L 52,156  L 56,156  L 56,155  L 59,155  L 59,154  L 63,154  L 63,153  L 71,153  L 71,152  L 78,152  L 78,151  L 83,151  L 83,150  L 84,150  L 84,151  L 85,151  L 85,150  L 88,150  L 88,149  L 94,149  L 94,148  L 98,148  L 98,147  L 99,147  L 99,145  L 100,145  L 100,144  L 99,144  L 99,142  L 98,142  L 98,141  L 94,141  L 94,142  L 93,142  L 93,141  L 92,141  L 92,142  L 90,142  L 90,143  L 85,143  L 85,144  L 77,144  L 77,145  L 75,145  L 75,144  L 74,144  L 74,145  L 70,145  L 70,146  L 69,146  L 69,145  L 68,145  L 68,146  L 61,146  L 61,147  L 57,147  L 57,148  L 52,148  L 52,149  L 51,149  L 51,148  L 50,148  L 50,149  L 47,149  L 47,150  L 41,150  L 41,151  L 37,151  L 37,152  L 26,152  L 26,148  L 25,148  L 25,147  L 26,147  L 26,146  L 25,146  L 25,120  L 26,120  L 26,117  L 25,117  L 25,115  L 23,115  L 23,114  L 19,114  L 19,115  L 18,115  L 18,145  L 19,145  L 19,154  L 20,154  L 20,156  L 21,156  L 21,158  L 22,158  L 22,159  Z  " style="fill:rgb(0, 0, 0); fill-opacity:1.000; stroke:none;" />
</svg>
