<?xml version="1.0" encoding="UTF-8" standalone="no"?>
<!DOCTYPE svg PUBLIC "-//W3C//DTD SVG 1.1//EN" 
  "http://www.w3.org/Graphics/SVG/1.1/DTD/svg11.dtd">
<svg width="107" height="171"
     xmlns="http://www.w3.org/2000/svg" version="1.1">
 <path d="  M 1,69  L 2,69  L 2,68  L 1,68  Z  " style="fill:rgb(0, 0, 0); fill-opacity:1.000; stroke:none;" />
 <path d="  M 78,40  L 77,40  L 77,39  L 78,39  L 78,38  L 77,38  L 77,37  L 76,37  L 76,36  L 74,36  L 74,37  L 75,37  L 75,38  L 73,38  L 73,40  L 71,40  L 71,43  L 70,43  L 70,45  L 69,45  L 69,48  L 68,48  L 68,53  L 67,53  L 67,54  L 64,54  L 64,56  L 61,56  L 61,57  L 58,57  L 58,58  L 55,58  L 55,59  L 46,59  L 46,60  L 43,60  L 43,59  L 42,59  L 42,60  L 31,60  L 31,61  L 25,61  L 25,62  L 18,62  L 18,63  L 12,63  L 12,64  L 9,64  L 9,65  L 8,65  L 8,64  L 7,64  L 7,65  L 5,65  L 5,66  L 3,66  L 3,69  L 4,69  L 4,72  L 9,72  L 9,71  L 13,71  L 13,70  L 14,70  L 14,71  L 15,71  L 15,70  L 17,70  L 17,69  L 24,69  L 24,68  L 29,68  L 29,67  L 30,67  L 30,68  L 33,68  L 33,67  L 38,67  L 38,66  L 40,66  L 40,75  L 39,75  L 39,76  L 40,76  L 40,77  L 39,77  L 39,107  L 40,107  L 40,109  L 39,109  L 39,110  L 36,110  L 36,111  L 33,111  L 33,112  L 32,112  L 32,113  L 30,113  L 30,118  L 36,118  L 36,117  L 45,117  L 45,116  L 46,116  L 46,117  L 47,117  L 47,116  L 48,116  L 48,117  L 49,117  L 49,116  L 53,116  L 53,115  L 54,115  L 54,116  L 56,116  L 56,115  L 66,115  L 66,114  L 68,114  L 68,115  L 71,115  L 71,117  L 73,117  L 73,118  L 74,118  L 74,119  L 73,119  L 73,120  L 72,120  L 72,121  L 70,121  L 70,122  L 69,122  L 69,123  L 68,123  L 68,124  L 67,124  L 67,125  L 66,125  L 66,128  L 65,128  L 65,129  L 64,129  L 64,130  L 63,130  L 63,132  L 62,132  L 62,133  L 61,133  L 61,134  L 59,134  L 59,135  L 57,135  L 57,136  L 53,136  L 53,137  L 45,137  L 45,138  L 31,138  L 31,137  L 30,137  L 30,138  L 29,138  L 29,139  L 28,139  L 28,140  L 27,140  L 27,142  L 26,142  L 26,146  L 25,146  L 25,158  L 26,158  L 26,159  L 27,159  L 27,161  L 28,161  L 28,164  L 29,164  L 29,166  L 30,166  L 30,167  L 31,167  L 31,168  L 32,168  L 32,169  L 34,169  L 34,170  L 37,170  L 37,171  L 56,171  L 56,170  L 57,170  L 57,171  L 58,171  L 58,170  L 62,170  L 62,169  L 66,169  L 66,168  L 70,168  L 70,167  L 74,167  L 74,166  L 77,166  L 77,165  L 79,165  L 79,164  L 81,164  L 81,163  L 84,163  L 84,162  L 87,162  L 87,161  L 90,161  L 90,160  L 92,160  L 92,159  L 93,159  L 93,158  L 96,158  L 96,157  L 98,157  L 98,156  L 100,156  L 100,155  L 101,155  L 101,153  L 102,153  L 102,152  L 101,152  L 101,151  L 92,151  L 92,152  L 90,152  L 90,153  L 87,153  L 87,154  L 84,154  L 84,155  L 82,155  L 82,156  L 79,156  L 79,157  L 77,157  L 77,158  L 74,158  L 74,159  L 71,159  L 71,160  L 69,160  L 69,161  L 65,161  L 65,162  L 61,162  L 61,163  L 55,163  L 55,164  L 49,164  L 49,165  L 47,165  L 47,164  L 45,164  L 45,165  L 43,165  L 43,164  L 39,164  L 39,163  L 36,163  L 36,162  L 35,162  L 35,161  L 34,161  L 34,159  L 33,159  L 33,158  L 32,158  L 32,156  L 31,156  L 31,150  L 32,150  L 32,147  L 33,147  L 33,146  L 34,146  L 34,145  L 44,145  L 44,146  L 46,146  L 46,145  L 57,145  L 57,144  L 58,144  L 58,145  L 59,145  L 59,144  L 61,144  L 61,143  L 62,143  L 62,142  L 64,142  L 64,141  L 65,141  L 65,140  L 66,140  L 66,139  L 67,139  L 67,138  L 68,138  L 68,137  L 69,137  L 69,135  L 70,135  L 70,133  L 71,133  L 71,131  L 72,131  L 72,129  L 74,129  L 74,127  L 75,127  L 75,126  L 76,126  L 76,125  L 78,125  L 78,124  L 80,124  L 80,123  L 81,123  L 81,122  L 82,122  L 82,121  L 81,121  L 81,120  L 82,120  L 82,118  L 81,118  L 81,117  L 80,117  L 80,115  L 79,115  L 79,114  L 78,114  L 78,112  L 77,112  L 77,110  L 76,110  L 76,109  L 75,109  L 75,107  L 74,107  L 74,99  L 75,99  L 75,96  L 74,96  L 74,95  L 75,95  L 75,94  L 74,94  L 74,91  L 75,91  L 75,90  L 74,90  L 74,85  L 75,85  L 75,69  L 76,69  L 76,65  L 77,65  L 77,59  L 78,59  Z  M 58,107  L 58,108  L 52,108  L 52,109  L 51,109  L 51,108  L 50,108  L 50,109  L 49,109  L 49,108  L 45,108  L 45,107  L 46,107  L 46,99  L 47,99  L 47,98  L 46,98  L 46,95  L 47,95  L 47,79  L 48,79  L 48,77  L 47,77  L 47,75  L 48,75  L 48,74  L 47,74  L 47,71  L 48,71  L 48,70  L 47,70  L 47,67  L 48,67  L 48,66  L 60,66  L 60,65  L 64,65  L 64,64  L 67,64  L 67,65  L 68,65  L 68,68  L 67,68  L 67,78  L 68,78  L 68,79  L 67,79  L 67,83  L 68,83  L 68,84  L 67,84  L 67,87  L 68,87  L 68,92  L 67,92  L 67,93  L 68,93  L 68,106  L 61,106  L 61,107  Z  " style="fill:rgb(0, 0, 0); fill-opacity:1.000; stroke:none;" />
 <path d="  M 19,13  L 18,13  L 18,14  L 19,14  L 19,15  L 20,15  L 20,16  L 22,16  L 22,15  L 24,15  L 24,14  L 26,14  L 26,13  L 27,13  L 27,12  L 28,12  L 28,11  L 31,11  L 31,10  L 34,10  L 34,9  L 39,9  L 39,8  L 45,8  L 45,7  L 51,7  L 51,8  L 53,8  L 53,7  L 54,7  L 54,8  L 64,8  L 64,9  L 67,9  L 67,10  L 68,10  L 68,11  L 69,11  L 69,15  L 70,15  L 70,25  L 69,25  L 69,26  L 66,26  L 66,27  L 63,27  L 63,26  L 62,26  L 62,25  L 59,25  L 59,26  L 55,26  L 55,27  L 54,27  L 54,28  L 49,28  L 49,29  L 40,29  L 40,30  L 39,30  L 39,31  L 38,31  L 38,30  L 37,30  L 37,31  L 32,31  L 32,32  L 31,32  L 31,31  L 30,31  L 30,32  L 27,32  L 27,33  L 26,33  L 26,34  L 25,34  L 25,35  L 26,35  L 26,36  L 25,36  L 25,37  L 27,37  L 27,38  L 38,38  L 38,37  L 45,37  L 45,36  L 46,36  L 46,37  L 47,37  L 47,36  L 53,36  L 53,35  L 61,35  L 61,34  L 66,34  L 66,33  L 67,33  L 67,34  L 68,34  L 68,33  L 71,33  L 71,34  L 72,34  L 72,33  L 73,33  L 73,34  L 74,34  L 74,33  L 75,33  L 75,34  L 76,34  L 76,33  L 77,33  L 77,32  L 78,32  L 78,30  L 79,30  L 79,28  L 80,28  L 80,27  L 79,27  L 79,24  L 80,24  L 80,19  L 81,19  L 81,18  L 80,18  L 80,15  L 81,15  L 81,14  L 80,14  L 80,11  L 81,11  L 81,10  L 80,10  L 80,5  L 78,5  L 78,4  L 77,4  L 77,3  L 76,3  L 76,2  L 60,2  L 60,1  L 58,1  L 58,2  L 57,2  L 57,1  L 38,1  L 38,2  L 32,2  L 32,3  L 28,3  L 28,4  L 22,4  L 22,5  L 21,5  L 21,6  L 20,6  L 20,8  L 19,8  Z  " style="fill:rgb(0, 0, 0); fill-opacity:1.000; stroke:none;" />
 <path d="  M 68,24  L 68,25  L 69,25  L 69,24  Z  " style="fill:rgb(0, 0, 0); fill-opacity:1.000; stroke:none;" />
 <path d="  M 73,35  L 73,34  L 72,34  L 72,35  Z  " style="fill:rgb(0, 0, 0); fill-opacity:1.000; stroke:none;" />
 <path d="  M 76,35  L 77,35  L 77,34  L 76,34  Z  " style="fill:rgb(0, 0, 0); fill-opacity:1.000; stroke:none;" />
 <path d="  M 78,33  L 79,33  L 79,32  L 78,32  Z  " style="fill:rgb(0, 0, 0); fill-opacity:1.000; stroke:none;" />
 <path d="  M 78,61  L 79,61  L 79,60  L 78,60  Z  " style="fill:rgb(0, 0, 0); fill-opacity:1.000; stroke:none;" />
 <path d="  M 101,64  L 101,63  L 103,63  L 103,64  L 104,64  L 104,63  L 107,63  L 107,57  L 106,57  L 106,56  L 105,56  L 105,55  L 102,55  L 102,56  L 96,56  L 96,57  L 94,57  L 94,58  L 91,58  L 91,59  L 90,59  L 90,58  L 89,58  L 89,59  L 86,59  L 86,60  L 85,60  L 85,61  L 84,61  L 84,60  L 83,60  L 83,61  L 82,61  L 82,63  L 81,63  L 81,64  L 83,64  L 83,65  L 84,65  L 84,66  L 88,66  L 88,65  L 94,65  L 94,64  Z  " style="fill:rgb(0, 0, 0); fill-opacity:1.000; stroke:none;" />
</svg>
