<?xml version="1.0" encoding="UTF-8" standalone="no"?>
<!DOCTYPE svg PUBLIC "-//W3C//DTD SVG 1.1//EN" 
  "http://www.w3.org/Graphics/SVG/1.1/DTD/svg11.dtd">
<svg width="102" height="166"
     xmlns="http://www.w3.org/2000/svg" version="1.1">
 <path d="  M 37,96  L 36,96  L 36,104  L 35,104  L 35,105  L 34,105  L 34,106  L 30,106  L 30,105  L 29,105  L 29,104  L 24,104  L 24,103  L 21,103  L 21,104  L 20,104  L 20,103  L 19,103  L 19,104  L 18,104  L 18,105  L 17,105  L 17,106  L 16,106  L 16,107  L 17,107  L 17,109  L 18,109  L 18,110  L 21,110  L 21,111  L 25,111  L 25,112  L 26,112  L 26,111  L 27,111  L 27,115  L 26,115  L 26,118  L 25,118  L 25,126  L 24,126  L 24,127  L 25,127  L 25,128  L 24,128  L 24,131  L 25,131  L 25,132  L 24,132  L 24,151  L 25,151  L 25,152  L 24,152  L 24,154  L 25,154  L 25,156  L 26,156  L 26,158  L 27,158  L 27,159  L 28,159  L 28,161  L 29,161  L 29,162  L 30,162  L 30,164  L 31,164  L 31,166  L 40,166  L 40,165  L 43,165  L 43,164  L 46,164  L 46,163  L 47,163  L 47,162  L 51,162  L 51,161  L 54,161  L 54,160  L 55,160  L 55,159  L 58,159  L 58,158  L 60,158  L 60,157  L 62,157  L 62,155  L 64,155  L 64,154  L 65,154  L 65,153  L 67,153  L 67,152  L 68,152  L 68,151  L 70,151  L 70,150  L 71,150  L 71,149  L 72,149  L 72,148  L 75,148  L 75,147  L 76,147  L 76,146  L 77,146  L 77,145  L 78,145  L 78,144  L 79,144  L 79,143  L 80,143  L 80,140  L 81,140  L 81,139  L 82,139  L 82,135  L 84,135  L 84,134  L 83,134  L 83,132  L 84,132  L 84,129  L 85,129  L 85,124  L 86,124  L 86,119  L 87,119  L 87,106  L 86,106  L 86,105  L 85,105  L 85,102  L 84,102  L 84,101  L 82,101  L 82,100  L 81,100  L 81,99  L 79,99  L 79,100  L 78,100  L 78,99  L 75,99  L 75,98  L 74,98  L 74,96  L 73,96  L 73,94  L 72,94  L 72,86  L 71,86  L 71,83  L 72,83  L 72,82  L 71,82  L 71,64  L 70,64  L 70,60  L 69,60  L 69,59  L 70,59  L 70,57  L 72,57  L 72,56  L 73,56  L 73,53  L 72,53  L 72,51  L 73,51  L 73,50  L 72,50  L 72,46  L 71,46  L 71,43  L 72,43  L 72,42  L 71,42  L 71,32  L 70,32  L 70,31  L 71,31  L 71,28  L 72,28  L 72,17  L 73,17  L 73,16  L 72,16  L 72,11  L 71,11  L 71,10  L 70,10  L 70,9  L 69,9  L 69,8  L 68,8  L 68,7  L 65,7  L 65,6  L 63,6  L 63,5  L 60,5  L 60,4  L 57,4  L 57,3  L 54,3  L 54,2  L 46,2  L 46,1  L 45,1  L 45,2  L 44,2  L 44,1  L 30,1  L 30,2  L 26,2  L 26,3  L 24,3  L 24,4  L 21,4  L 21,5  L 19,5  L 19,7  L 18,7  L 18,11  L 19,11  L 19,13  L 23,13  L 23,12  L 24,12  L 24,11  L 27,11  L 27,10  L 30,10  L 30,9  L 34,9  L 34,8  L 52,8  L 52,9  L 55,9  L 55,10  L 60,10  L 60,11  L 61,11  L 61,12  L 62,12  L 62,13  L 63,13  L 63,15  L 64,15  L 64,18  L 65,18  L 65,23  L 64,23  L 64,24  L 62,24  L 62,25  L 59,25  L 59,26  L 55,26  L 55,27  L 49,27  L 49,28  L 46,28  L 46,29  L 41,29  L 41,30  L 35,30  L 35,31  L 31,31  L 31,32  L 29,32  L 29,33  L 27,33  L 27,34  L 24,34  L 24,36  L 23,36  L 23,39  L 28,39  L 28,38  L 34,38  L 34,37  L 38,37  L 38,36  L 44,36  L 44,35  L 50,35  L 50,34  L 54,34  L 54,33  L 58,33  L 58,32  L 63,32  L 63,33  L 64,33  L 64,34  L 65,34  L 65,36  L 64,36  L 64,48  L 63,48  L 63,49  L 64,49  L 64,50  L 63,50  L 63,53  L 62,53  L 62,54  L 58,54  L 58,55  L 53,55  L 53,56  L 50,56  L 50,57  L 43,57  L 43,58  L 36,58  L 36,59  L 30,59  L 30,60  L 16,60  L 16,61  L 13,61  L 13,62  L 9,62  L 9,63  L 3,63  L 3,64  L 2,64  L 2,65  L 1,65  L 1,68  L 0,68  L 0,69  L 2,69  L 2,70  L 7,70  L 7,69  L 12,69  L 12,68  L 16,68  L 16,67  L 24,67  L 24,66  L 25,66  L 25,67  L 32,67  L 32,66  L 35,66  L 35,67  L 36,67  L 36,76  L 37,76  L 37,78  L 36,78  L 36,80  L 37,80  Z  M 43,96  L 43,95  L 44,95  L 44,78  L 43,78  L 43,77  L 44,77  L 44,76  L 43,76  L 43,70  L 44,70  L 44,69  L 43,69  L 43,66  L 44,66  L 44,64  L 52,64  L 52,63  L 57,63  L 57,62  L 61,62  L 61,61  L 63,61  L 63,60  L 65,60  L 65,64  L 64,64  L 64,83  L 65,83  L 65,86  L 64,86  L 64,87  L 65,87  L 65,96  L 66,96  L 66,101  L 65,101  L 65,102  L 60,102  L 60,103  L 49,103  L 49,104  L 48,104  L 48,103  L 45,103  L 45,102  L 44,102  L 44,96  Z  M 54,110  L 54,109  L 61,109  L 61,108  L 66,108  L 66,107  L 73,107  L 73,106  L 77,106  L 77,107  L 78,107  L 78,108  L 79,108  L 79,113  L 80,113  L 80,116  L 79,116  L 79,117  L 80,117  L 80,118  L 79,118  L 79,124  L 78,124  L 78,129  L 77,129  L 77,134  L 76,134  L 76,135  L 75,135  L 75,137  L 74,137  L 74,138  L 73,138  L 73,139  L 72,139  L 72,141  L 71,141  L 71,142  L 70,142  L 70,143  L 69,143  L 69,144  L 68,144  L 68,146  L 67,146  L 67,147  L 65,147  L 65,148  L 64,148  L 64,149  L 62,149  L 62,150  L 60,150  L 60,151  L 59,151  L 59,153  L 55,153  L 55,154  L 51,154  L 51,155  L 49,155  L 49,156  L 48,156  L 48,157  L 46,157  L 46,158  L 44,158  L 44,159  L 40,159  L 40,160  L 35,160  L 35,159  L 33,159  L 33,158  L 32,158  L 32,156  L 31,156  L 31,155  L 32,155  L 32,154  L 31,154  L 31,131  L 32,131  L 32,119  L 33,119  L 33,116  L 34,116  L 34,113  L 35,113  L 35,112  L 36,112  L 36,111  L 42,111  L 42,110  L 43,110  L 43,111  L 45,111  L 45,110  L 48,110  L 48,111  L 49,111  L 49,110  Z  M 68,59  L 68,58  L 69,58  L 69,59  Z  " style="fill:rgb(0, 0, 0); fill-opacity:1.000; stroke:none;" />
 <path d="  M 21,38  L 21,39  L 22,39  L 22,38  Z  " style="fill:rgb(0, 0, 0); fill-opacity:1.000; stroke:none;" />
 <path d="  M 95,51  L 95,52  L 90,52  L 90,53  L 85,53  L 85,54  L 80,54  L 80,55  L 74,55  L 74,56  L 73,56  L 73,59  L 74,59  L 74,61  L 84,61  L 84,60  L 92,60  L 92,59  L 96,59  L 96,58  L 97,58  L 97,59  L 98,59  L 98,58  L 99,58  L 99,59  L 100,59  L 100,58  L 102,58  L 102,52  L 101,52  L 101,51  Z  " style="fill:rgb(0, 0, 0); fill-opacity:1.000; stroke:none;" />
</svg>
