<?xml version="1.0" encoding="UTF-8" standalone="no"?>
<!DOCTYPE svg PUBLIC "-//W3C//DTD SVG 1.1//EN" 
  "http://www.w3.org/Graphics/SVG/1.1/DTD/svg11.dtd">
<svg width="100" height="154"
     xmlns="http://www.w3.org/2000/svg" version="1.1">
 <path d="  M 39,87  L 47,87  L 47,86  L 52,86  L 52,85  L 56,85  L 56,84  L 57,84  L 57,85  L 58,85  L 58,84  L 64,84  L 64,83  L 66,83  L 66,84  L 67,84  L 67,83  L 72,83  L 72,82  L 82,82  L 82,81  L 96,81  L 96,80  L 98,80  L 98,79  L 99,79  L 99,78  L 100,78  L 100,72  L 95,72  L 95,73  L 91,73  L 91,74  L 74,74  L 74,75  L 65,75  L 65,76  L 64,76  L 64,75  L 63,75  L 63,76  L 59,76  L 59,77  L 54,77  L 54,78  L 48,78  L 48,79  L 39,79  L 39,80  L 36,80  L 36,79  L 35,79  L 35,80  L 28,80  L 28,81  L 23,81  L 23,82  L 20,82  L 20,81  L 19,81  L 19,82  L 16,82  L 16,83  L 1,83  L 1,84  L 0,84  L 0,87  L 1,87  L 1,89  L 2,89  L 2,90  L 10,90  L 10,89  L 26,89  L 26,88  L 35,88  L 35,87  L 36,87  L 36,88  L 37,88  L 37,87  L 38,87  L 38,88  L 39,88  Z  " style="fill:rgb(0, 0, 0); fill-opacity:1.000; stroke:none;" />
 <path d="  M 51,7  L 51,8  L 59,8  L 59,9  L 61,9  L 61,10  L 62,10  L 62,11  L 65,11  L 65,12  L 66,12  L 66,13  L 67,13  L 67,14  L 68,14  L 68,16  L 69,16  L 69,19  L 70,19  L 70,20  L 69,20  L 69,23  L 68,23  L 68,24  L 67,24  L 67,25  L 65,25  L 65,26  L 60,26  L 60,27  L 56,27  L 56,28  L 51,28  L 51,29  L 46,29  L 46,30  L 42,30  L 42,31  L 34,31  L 34,32  L 32,32  L 32,33  L 27,33  L 27,34  L 25,34  L 25,35  L 23,35  L 23,36  L 19,36  L 19,37  L 18,37  L 18,39  L 17,39  L 17,42  L 18,42  L 18,43  L 19,43  L 19,44  L 20,44  L 20,43  L 23,43  L 23,42  L 25,42  L 25,41  L 27,41  L 27,40  L 30,40  L 30,39  L 36,39  L 36,38  L 41,38  L 41,37  L 47,37  L 47,36  L 52,36  L 52,35  L 59,35  L 59,34  L 62,34  L 62,33  L 66,33  L 66,35  L 67,35  L 67,37  L 66,37  L 66,48  L 67,48  L 67,51  L 66,51  L 66,52  L 67,52  L 67,54  L 66,54  L 66,55  L 67,55  L 67,58  L 66,58  L 66,59  L 67,59  L 67,66  L 68,66  L 68,67  L 69,67  L 69,68  L 70,68  L 70,69  L 71,69  L 71,68  L 72,68  L 72,67  L 73,67  L 73,66  L 74,66  L 74,47  L 73,47  L 73,46  L 74,46  L 74,36  L 75,36  L 75,35  L 74,35  L 74,34  L 75,34  L 75,24  L 76,24  L 76,13  L 75,13  L 75,9  L 74,9  L 74,8  L 73,8  L 73,7  L 71,7  L 71,6  L 69,6  L 69,5  L 66,5  L 66,4  L 64,4  L 64,3  L 61,3  L 61,2  L 56,2  L 56,1  L 46,1  L 46,0  L 44,0  L 44,1  L 42,1  L 42,0  L 41,0  L 41,1  L 38,1  L 38,0  L 37,0  L 37,1  L 30,1  L 30,2  L 27,2  L 27,3  L 23,3  L 23,4  L 20,4  L 20,6  L 19,6  L 19,12  L 21,12  L 21,13  L 24,13  L 24,12  L 26,12  L 26,11  L 29,11  L 29,10  L 31,10  L 31,9  L 34,9  L 34,8  L 42,8  L 42,7  L 43,7  L 43,8  L 44,8  L 44,7  L 47,7  L 47,8  L 48,8  L 48,7  L 49,7  L 49,8  L 50,8  L 50,7  Z  " style="fill:rgb(0, 0, 0); fill-opacity:1.000; stroke:none;" />
 <path d="  M 23,139  L 22,139  L 22,140  L 23,140  L 23,143  L 22,143  L 22,144  L 23,144  L 23,146  L 22,146  L 22,148  L 23,148  L 23,149  L 22,149  L 22,150  L 23,150  L 23,151  L 24,151  L 24,153  L 25,153  L 25,154  L 42,154  L 42,153  L 48,153  L 48,152  L 49,152  L 49,153  L 50,153  L 50,152  L 55,152  L 55,151  L 59,151  L 59,150  L 64,150  L 64,149  L 65,149  L 65,150  L 66,150  L 66,149  L 71,149  L 71,148  L 80,148  L 80,147  L 87,147  L 87,146  L 92,146  L 92,145  L 93,145  L 93,146  L 94,146  L 94,145  L 96,145  L 96,144  L 97,144  L 97,143  L 98,143  L 98,142  L 99,142  L 99,140  L 98,140  L 98,138  L 95,138  L 95,137  L 94,137  L 94,138  L 90,138  L 90,139  L 83,139  L 83,140  L 82,140  L 82,139  L 81,139  L 81,140  L 80,140  L 80,139  L 79,139  L 79,141  L 78,141  L 78,140  L 76,140  L 76,141  L 73,141  L 73,142  L 72,142  L 72,141  L 71,141  L 71,142  L 66,142  L 66,143  L 59,143  L 59,144  L 56,144  L 56,143  L 55,143  L 55,144  L 52,144  L 52,145  L 47,145  L 47,146  L 44,146  L 44,147  L 43,147  L 43,146  L 42,146  L 42,147  L 34,147  L 34,148  L 31,148  L 31,147  L 29,147  L 29,136  L 30,136  L 30,135  L 29,135  L 29,132  L 30,132  L 30,131  L 29,131  L 29,128  L 30,128  L 30,127  L 29,127  L 29,126  L 30,126  L 30,123  L 29,123  L 29,122  L 30,122  L 30,108  L 31,108  L 31,107  L 30,107  L 30,106  L 31,106  L 31,101  L 32,101  L 32,99  L 31,99  L 31,97  L 29,97  L 29,98  L 28,98  L 28,99  L 27,99  L 27,100  L 25,100  L 25,101  L 24,101  L 24,103  L 23,103  Z  " style="fill:rgb(0, 0, 0); fill-opacity:1.000; stroke:none;" />
</svg>
