<?xml version="1.0" encoding="UTF-8" standalone="no"?>
<!DOCTYPE svg PUBLIC "-//W3C//DTD SVG 1.1//EN" 
  "http://www.w3.org/Graphics/SVG/1.1/DTD/svg11.dtd">
<svg width="97" height="161"
     xmlns="http://www.w3.org/2000/svg" version="1.1">
 <path d="  M 26,34  L 23,34  L 23,35  L 21,35  L 21,36  L 20,36  L 20,37  L 19,37  L 19,38  L 20,38  L 20,39  L 23,39  L 23,40  L 30,40  L 30,39  L 38,39  L 38,38  L 41,38  L 41,39  L 42,39  L 42,38  L 52,38  L 52,37  L 59,37  L 59,36  L 60,36  L 60,37  L 63,37  L 63,36  L 64,36  L 64,37  L 67,37  L 67,38  L 68,38  L 68,40  L 67,40  L 67,68  L 53,68  L 53,69  L 52,69  L 52,68  L 50,68  L 50,69  L 19,69  L 19,70  L 18,70  L 18,69  L 17,69  L 17,70  L 12,70  L 12,71  L 9,71  L 9,72  L 6,72  L 6,73  L 3,73  L 3,74  L 2,74  L 2,75  L 1,75  L 1,80  L 2,80  L 2,82  L 8,82  L 8,81  L 10,81  L 10,80  L 14,80  L 14,79  L 22,79  L 22,78  L 32,78  L 32,77  L 33,77  L 33,78  L 35,78  L 35,77  L 38,77  L 38,78  L 39,78  L 39,77  L 52,77  L 52,76  L 53,76  L 53,77  L 54,77  L 54,76  L 55,76  L 55,77  L 56,77  L 56,76  L 57,76  L 57,77  L 58,77  L 58,76  L 59,76  L 59,77  L 60,77  L 60,76  L 61,76  L 61,77  L 62,77  L 62,76  L 63,76  L 63,77  L 66,77  L 66,76  L 67,76  L 67,77  L 90,77  L 90,78  L 91,78  L 91,77  L 94,77  L 94,76  L 95,76  L 95,75  L 97,75  L 97,70  L 96,70  L 96,69  L 84,69  L 84,68  L 83,68  L 83,69  L 80,69  L 80,68  L 79,68  L 79,69  L 74,69  L 74,64  L 75,64  L 75,44  L 76,44  L 76,37  L 77,37  L 77,34  L 78,34  L 78,33  L 77,33  L 77,32  L 78,32  L 78,20  L 79,20  L 79,9  L 80,9  L 80,8  L 79,8  L 79,4  L 78,4  L 78,3  L 77,3  L 77,2  L 76,2  L 76,1  L 59,1  L 59,2  L 58,2  L 58,1  L 56,1  L 56,2  L 53,2  L 53,1  L 51,1  L 51,2  L 49,2  L 49,1  L 48,1  L 48,2  L 45,2  L 45,1  L 44,1  L 44,2  L 29,2  L 29,3  L 26,3  L 26,4  L 22,4  L 22,5  L 19,5  L 19,6  L 16,6  L 16,7  L 15,7  L 15,8  L 14,8  L 14,9  L 13,9  L 13,12  L 12,12  L 12,16  L 13,16  L 13,17  L 16,17  L 16,16  L 18,16  L 18,15  L 19,15  L 19,14  L 20,14  L 20,13  L 23,13  L 23,12  L 28,12  L 28,11  L 30,11  L 30,10  L 34,10  L 34,9  L 35,9  L 35,10  L 36,10  L 36,9  L 37,9  L 37,10  L 38,10  L 38,9  L 39,9  L 39,10  L 40,10  L 40,9  L 41,9  L 41,10  L 42,10  L 42,9  L 45,9  L 45,10  L 46,10  L 46,9  L 49,9  L 49,10  L 50,10  L 50,9  L 53,9  L 53,10  L 54,10  L 54,9  L 57,9  L 57,10  L 58,10  L 58,9  L 59,9  L 59,10  L 62,10  L 62,9  L 63,9  L 63,10  L 67,10  L 67,11  L 70,11  L 70,12  L 69,12  L 69,24  L 68,24  L 68,27  L 67,27  L 67,28  L 65,28  L 65,29  L 62,29  L 62,28  L 57,28  L 57,29  L 54,29  L 54,30  L 51,30  L 51,29  L 50,29  L 50,30  L 45,30  L 45,31  L 44,31  L 44,30  L 43,30  L 43,31  L 36,31  L 36,32  L 28,32  L 28,33  L 26,33  Z  " style="fill:rgb(0, 0, 0); fill-opacity:1.000; stroke:none;" />
 <path d="  M 22,108  L 23,108  L 23,110  L 29,110  L 29,109  L 32,109  L 32,108  L 36,108  L 36,107  L 37,107  L 37,108  L 38,108  L 38,107  L 42,107  L 42,106  L 48,106  L 48,105  L 49,105  L 49,106  L 54,106  L 54,107  L 56,107  L 56,108  L 58,108  L 58,109  L 59,109  L 59,110  L 61,110  L 61,113  L 62,113  L 62,114  L 61,114  L 61,117  L 60,117  L 60,118  L 59,118  L 59,119  L 58,119  L 58,120  L 57,120  L 57,121  L 55,121  L 55,122  L 54,122  L 54,123  L 53,123  L 53,124  L 52,124  L 52,125  L 51,125  L 51,126  L 49,126  L 49,127  L 47,127  L 47,128  L 44,128  L 44,129  L 39,129  L 39,130  L 38,130  L 38,131  L 35,131  L 35,132  L 32,132  L 32,133  L 22,133  L 22,134  L 20,134  L 20,135  L 19,135  L 19,136  L 18,136  L 18,138  L 17,138  L 17,139  L 16,139  L 16,141  L 15,141  L 15,148  L 16,148  L 16,151  L 17,151  L 17,152  L 18,152  L 18,156  L 20,156  L 20,157  L 21,157  L 21,158  L 23,158  L 23,159  L 25,159  L 25,160  L 29,160  L 29,161  L 55,161  L 55,160  L 56,160  L 56,161  L 58,161  L 58,160  L 60,160  L 60,159  L 61,159  L 61,160  L 62,160  L 62,159  L 65,159  L 65,158  L 68,158  L 68,157  L 71,157  L 71,156  L 75,156  L 75,155  L 77,155  L 77,154  L 79,154  L 79,153  L 80,153  L 80,152  L 82,152  L 82,151  L 83,151  L 83,148  L 84,148  L 84,144  L 82,144  L 82,143  L 80,143  L 80,144  L 78,144  L 78,145  L 76,145  L 76,146  L 74,146  L 74,147  L 73,147  L 73,148  L 72,148  L 72,149  L 69,149  L 69,150  L 67,150  L 67,151  L 63,151  L 63,152  L 60,152  L 60,153  L 54,153  L 54,154  L 53,154  L 53,153  L 51,153  L 51,154  L 36,154  L 36,153  L 35,153  L 35,154  L 34,154  L 34,153  L 28,153  L 28,152  L 27,152  L 27,151  L 25,151  L 25,150  L 23,150  L 23,147  L 22,147  L 22,146  L 23,146  L 23,144  L 24,144  L 24,143  L 25,143  L 25,142  L 26,142  L 26,141  L 27,141  L 27,140  L 36,140  L 36,139  L 37,139  L 37,140  L 38,140  L 38,139  L 42,139  L 42,138  L 45,138  L 45,137  L 47,137  L 47,136  L 50,136  L 50,135  L 52,135  L 52,134  L 55,134  L 55,133  L 56,133  L 56,132  L 58,132  L 58,130  L 59,130  L 59,129  L 60,129  L 60,128  L 61,128  L 61,126  L 62,126  L 62,125  L 63,125  L 63,124  L 67,124  L 67,123  L 68,123  L 68,122  L 69,122  L 69,120  L 70,120  L 70,115  L 71,115  L 71,114  L 70,114  L 70,110  L 69,110  L 69,108  L 68,108  L 68,107  L 67,107  L 67,105  L 66,105  L 66,104  L 65,104  L 65,103  L 63,103  L 63,102  L 62,102  L 62,101  L 61,101  L 61,100  L 59,100  L 59,99  L 57,99  L 57,98  L 53,98  L 53,97  L 46,97  L 46,98  L 39,98  L 39,99  L 33,99  L 33,100  L 30,100  L 30,101  L 29,101  L 29,100  L 26,100  L 26,101  L 24,101  L 24,102  L 23,102  L 23,104  L 22,104  Z  " style="fill:rgb(0, 0, 0); fill-opacity:1.000; stroke:none;" />
</svg>
