<?xml version="1.0" encoding="UTF-8" standalone="no"?>
<!DOCTYPE svg PUBLIC "-//W3C//DTD SVG 1.1//EN" 
  "http://www.w3.org/Graphics/SVG/1.1/DTD/svg11.dtd">
<svg width="100" height="143"
     xmlns="http://www.w3.org/2000/svg" version="1.1">
 <path d="  M 96,69  L 96,68  L 99,68  L 99,67  L 100,67  L 100,61  L 85,61  L 85,62  L 81,62  L 81,63  L 74,63  L 74,62  L 72,62  L 72,60  L 73,60  L 73,58  L 74,58  L 74,57  L 73,57  L 73,55  L 74,55  L 74,52  L 73,52  L 73,51  L 74,51  L 74,26  L 75,26  L 75,23  L 76,23  L 76,12  L 75,12  L 75,10  L 74,10  L 74,9  L 73,9  L 73,7  L 72,7  L 72,6  L 70,6  L 70,5  L 68,5  L 68,4  L 65,4  L 65,3  L 61,3  L 61,2  L 55,2  L 55,1  L 49,1  L 49,2  L 48,2  L 48,1  L 31,1  L 31,2  L 26,2  L 26,3  L 24,3  L 24,4  L 21,4  L 21,5  L 19,5  L 19,10  L 18,10  L 18,11  L 19,11  L 19,12  L 20,12  L 20,13  L 21,13  L 21,12  L 25,12  L 25,11  L 28,11  L 28,10  L 30,10  L 30,9  L 42,9  L 42,8  L 43,8  L 43,9  L 44,9  L 44,8  L 51,8  L 51,9  L 59,9  L 59,10  L 64,10  L 64,11  L 66,11  L 66,12  L 67,12  L 67,13  L 68,13  L 68,14  L 69,14  L 69,19  L 68,19  L 68,20  L 67,20  L 67,22  L 66,22  L 66,23  L 62,23  L 62,24  L 58,24  L 58,25  L 54,25  L 54,26  L 49,26  L 49,27  L 44,27  L 44,28  L 41,28  L 41,29  L 33,29  L 33,30  L 30,30  L 30,31  L 25,31  L 25,32  L 22,32  L 22,33  L 20,33  L 20,34  L 19,34  L 19,35  L 18,35  L 18,37  L 17,37  L 17,38  L 18,38  L 18,39  L 19,39  L 19,40  L 22,40  L 22,39  L 25,39  L 25,38  L 30,38  L 30,37  L 33,37  L 33,36  L 39,36  L 39,35  L 46,35  L 46,34  L 51,34  L 51,33  L 57,33  L 57,32  L 61,32  L 61,31  L 65,31  L 65,32  L 66,32  L 66,36  L 67,36  L 67,37  L 66,37  L 66,59  L 67,59  L 67,61  L 68,61  L 68,62  L 67,62  L 67,63  L 66,63  L 66,64  L 58,64  L 58,65  L 49,65  L 49,66  L 46,66  L 46,65  L 45,65  L 45,66  L 34,66  L 34,67  L 23,67  L 23,68  L 22,68  L 22,67  L 21,67  L 21,68  L 16,68  L 16,69  L 8,69  L 8,70  L 3,70  L 3,71  L 1,71  L 1,72  L 0,72  L 0,73  L 1,73  L 1,76  L 2,76  L 2,75  L 3,75  L 3,76  L 4,76  L 4,77  L 5,77  L 5,78  L 6,78  L 6,77  L 13,77  L 13,76  L 22,76  L 22,75  L 28,75  L 28,74  L 29,74  L 29,75  L 30,75  L 30,74  L 31,74  L 31,75  L 32,75  L 32,74  L 42,74  L 42,73  L 43,73  L 43,74  L 45,74  L 45,73  L 53,73  L 53,72  L 60,72  L 60,71  L 73,71  L 73,70  L 82,70  L 82,69  L 84,69  L 84,70  L 85,70  L 85,69  Z  " style="fill:rgb(0, 0, 0); fill-opacity:1.000; stroke:none;" />
 <path d="  M 23,118  L 24,118  L 24,121  L 23,121  L 23,122  L 24,122  L 24,127  L 23,127  L 23,128  L 24,128  L 24,138  L 25,138  L 25,140  L 26,140  L 26,141  L 27,141  L 27,142  L 29,142  L 29,143  L 50,143  L 50,142  L 51,142  L 51,143  L 54,143  L 54,142  L 62,142  L 62,141  L 66,141  L 66,140  L 70,140  L 70,139  L 73,139  L 73,138  L 76,138  L 76,137  L 77,137  L 77,136  L 78,136  L 78,135  L 79,135  L 79,134  L 80,134  L 80,132  L 81,132  L 81,130  L 82,130  L 82,126  L 83,126  L 83,123  L 84,123  L 84,118  L 85,118  L 85,114  L 86,114  L 86,110  L 87,110  L 87,98  L 86,98  L 86,96  L 85,96  L 85,95  L 84,95  L 84,94  L 83,94  L 83,93  L 81,93  L 81,92  L 79,92  L 79,91  L 77,91  L 77,92  L 76,92  L 76,91  L 69,91  L 69,92  L 60,92  L 60,93  L 53,93  L 53,94  L 46,94  L 46,95  L 35,95  L 35,94  L 30,94  L 30,93  L 24,93  L 24,94  L 21,94  L 21,95  L 19,95  L 19,96  L 17,96  L 17,98  L 16,98  L 16,102  L 17,102  L 17,103  L 20,103  L 20,104  L 21,104  L 21,103  L 23,103  Z  M 78,120  L 77,120  L 77,124  L 76,124  L 76,126  L 75,126  L 75,130  L 74,130  L 74,131  L 73,131  L 73,132  L 72,132  L 72,133  L 69,133  L 69,134  L 65,134  L 65,135  L 60,135  L 60,136  L 52,136  L 52,137  L 36,137  L 36,138  L 35,138  L 35,137  L 31,137  L 31,115  L 30,115  L 30,114  L 31,114  L 31,111  L 30,111  L 30,110  L 31,110  L 31,107  L 30,107  L 30,104  L 31,104  L 31,102  L 38,102  L 38,101  L 39,101  L 39,102  L 42,102  L 42,101  L 43,101  L 43,102  L 45,102  L 45,101  L 52,101  L 52,100  L 60,100  L 60,99  L 66,99  L 66,98  L 67,98  L 67,99  L 68,99  L 68,98  L 78,98  L 78,99  L 79,99  L 79,100  L 80,100  L 80,111  L 79,111  L 79,115  L 78,115  Z  " style="fill:rgb(0, 0, 0); fill-opacity:1.000; stroke:none;" />
 <path d="  M 22,13  L 21,13  L 21,14  L 22,14  Z  " style="fill:rgb(0, 0, 0); fill-opacity:1.000; stroke:none;" />
</svg>
