<?xml version="1.0" encoding="UTF-8" standalone="no"?>
<!DOCTYPE svg PUBLIC "-//W3C//DTD SVG 1.1//EN" 
  "http://www.w3.org/Graphics/SVG/1.1/DTD/svg11.dtd">
<svg width="99" height="145"
     xmlns="http://www.w3.org/2000/svg" version="1.1">
 <path d="  M 19,14  L 21,14  L 21,13  L 23,13  L 23,12  L 26,12  L 26,11  L 28,11  L 28,10  L 31,10  L 31,9  L 35,9  L 35,8  L 44,8  L 44,7  L 45,7  L 45,8  L 46,8  L 46,7  L 47,7  L 47,8  L 48,8  L 48,7  L 49,7  L 49,8  L 58,8  L 58,9  L 61,9  L 61,10  L 63,10  L 63,11  L 64,11  L 64,12  L 66,12  L 66,14  L 67,14  L 67,15  L 68,15  L 68,21  L 67,21  L 67,23  L 66,23  L 66,24  L 65,24  L 65,25  L 62,25  L 62,26  L 57,26  L 57,27  L 51,27  L 51,28  L 45,28  L 45,29  L 40,29  L 40,30  L 34,30  L 34,31  L 28,31  L 28,32  L 25,32  L 25,33  L 23,33  L 23,34  L 21,34  L 21,35  L 20,35  L 20,36  L 19,36  L 19,39  L 20,39  L 20,40  L 23,40  L 23,39  L 25,39  L 25,38  L 30,38  L 30,37  L 36,37  L 36,36  L 42,36  L 42,35  L 43,35  L 43,36  L 44,36  L 44,35  L 53,35  L 53,34  L 57,34  L 57,33  L 60,33  L 60,32  L 65,32  L 65,36  L 66,36  L 66,38  L 65,38  L 65,40  L 66,40  L 66,54  L 67,54  L 67,57  L 68,57  L 68,58  L 70,58  L 70,59  L 71,59  L 71,60  L 69,60  L 69,61  L 60,61  L 60,62  L 52,62  L 52,63  L 41,63  L 41,64  L 30,64  L 30,65  L 29,65  L 29,64  L 28,64  L 28,65  L 21,65  L 21,66  L 20,66  L 20,65  L 19,65  L 19,66  L 4,66  L 4,67  L 2,67  L 2,69  L 0,69  L 0,70  L 1,70  L 1,72  L 2,72  L 2,73  L 3,73  L 3,74  L 10,74  L 10,73  L 19,73  L 19,72  L 30,72  L 30,71  L 38,71  L 38,70  L 39,70  L 39,71  L 40,71  L 40,70  L 48,70  L 48,69  L 54,69  L 54,68  L 55,68  L 55,69  L 56,69  L 56,68  L 63,68  L 63,67  L 64,67  L 64,68  L 65,68  L 65,67  L 76,67  L 76,66  L 77,66  L 77,67  L 78,67  L 78,66  L 84,66  L 84,65  L 99,65  L 99,59  L 98,59  L 98,58  L 97,58  L 97,59  L 96,59  L 96,58  L 95,58  L 95,59  L 77,59  L 77,60  L 72,60  L 72,58  L 73,58  L 73,24  L 74,24  L 74,18  L 75,18  L 75,10  L 74,10  L 74,8  L 73,8  L 73,7  L 72,7  L 72,6  L 70,6  L 70,5  L 68,5  L 68,4  L 67,4  L 67,5  L 66,5  L 66,4  L 63,4  L 63,3  L 59,3  L 59,2  L 54,2  L 54,1  L 29,1  L 29,2  L 26,2  L 26,3  L 23,3  L 23,4  L 20,4  L 20,5  L 19,5  L 19,7  L 18,7  L 18,9  L 19,9  Z  " style="fill:rgb(0, 0, 0); fill-opacity:1.000; stroke:none;" />
 <path d="  M 23,114  L 22,114  L 22,116  L 23,116  L 23,118  L 22,118  L 22,120  L 23,120  L 23,130  L 24,130  L 24,136  L 25,136  L 25,138  L 24,138  L 24,139  L 25,139  L 25,140  L 26,140  L 26,142  L 27,142  L 27,143  L 28,143  L 28,144  L 30,144  L 30,145  L 48,145  L 48,144  L 51,144  L 51,143  L 54,143  L 54,142  L 57,142  L 57,141  L 59,141  L 59,140  L 64,140  L 64,139  L 66,139  L 66,138  L 69,138  L 69,137  L 71,137  L 71,136  L 73,136  L 73,134  L 74,134  L 74,133  L 75,133  L 75,132  L 76,132  L 76,131  L 75,131  L 75,130  L 76,130  L 76,128  L 77,128  L 77,121  L 78,121  L 78,118  L 79,118  L 79,108  L 78,108  L 78,94  L 79,94  L 79,93  L 78,93  L 78,90  L 79,90  L 79,87  L 78,87  L 78,86  L 73,86  L 73,87  L 72,87  L 72,90  L 71,90  L 71,91  L 72,91  L 72,111  L 69,111  L 69,112  L 66,112  L 66,111  L 65,111  L 65,112  L 62,112  L 62,111  L 61,111  L 61,112  L 58,112  L 58,111  L 57,111  L 57,112  L 54,112  L 54,111  L 53,111  L 53,112  L 50,112  L 50,111  L 49,111  L 49,112  L 46,112  L 46,111  L 45,111  L 45,112  L 33,112  L 33,113  L 31,113  L 31,111  L 30,111  L 30,107  L 31,107  L 31,98  L 32,98  L 32,88  L 33,88  L 33,87  L 32,87  L 32,86  L 33,86  L 33,83  L 32,83  L 32,82  L 31,82  L 31,81  L 28,81  L 28,82  L 27,82  L 27,83  L 26,83  L 26,84  L 25,84  L 25,93  L 24,93  L 24,99  L 23,99  Z  M 34,139  L 34,138  L 33,138  L 33,137  L 32,137  L 32,135  L 31,135  L 31,125  L 30,125  L 30,120  L 33,120  L 33,119  L 35,119  L 35,118  L 42,118  L 42,117  L 43,117  L 43,118  L 44,118  L 44,117  L 45,117  L 45,118  L 46,118  L 46,117  L 47,117  L 47,118  L 48,118  L 48,117  L 49,117  L 49,118  L 50,118  L 50,117  L 51,117  L 51,118  L 52,118  L 52,117  L 53,117  L 53,118  L 54,118  L 54,117  L 55,117  L 55,118  L 56,118  L 56,117  L 70,117  L 70,118  L 71,118  L 71,124  L 70,124  L 70,129  L 69,129  L 69,131  L 67,131  L 67,132  L 64,132  L 64,133  L 61,133  L 61,134  L 59,134  L 59,135  L 55,135  L 55,136  L 53,136  L 53,137  L 49,137  L 49,138  L 44,138  L 44,139  Z  " style="fill:rgb(0, 0, 0); fill-opacity:1.000; stroke:none;" />
</svg>
