<?xml version="1.0" encoding="UTF-8" standalone="no"?>
<!DOCTYPE svg PUBLIC "-//W3C//DTD SVG 1.1//EN" 
  "http://www.w3.org/Graphics/SVG/1.1/DTD/svg11.dtd">
<svg width="102" height="143"
     xmlns="http://www.w3.org/2000/svg" version="1.1">
 <path d="  M 1,39  L 2,39  L 2,51  L 3,51  L 3,59  L 4,59  L 4,64  L 5,64  L 5,67  L 6,67  L 6,68  L 7,68  L 7,69  L 8,69  L 8,70  L 10,70  L 10,71  L 11,71  L 11,70  L 13,70  L 13,71  L 15,71  L 15,72  L 30,72  L 30,71  L 34,71  L 34,70  L 40,70  L 40,69  L 41,69  L 41,70  L 42,70  L 42,69  L 48,69  L 48,68  L 51,68  L 51,67  L 52,67  L 52,66  L 53,66  L 53,63  L 54,63  L 54,62  L 53,62  L 53,61  L 52,61  L 52,60  L 48,60  L 48,61  L 44,61  L 44,62  L 40,62  L 40,63  L 35,63  L 35,64  L 29,64  L 29,65  L 28,65  L 28,64  L 27,64  L 27,65  L 22,65  L 22,66  L 19,66  L 19,65  L 15,65  L 15,64  L 13,64  L 13,63  L 12,63  L 12,60  L 11,60  L 11,57  L 10,57  L 10,50  L 9,50  L 9,45  L 10,45  L 10,44  L 11,44  L 11,43  L 12,43  L 12,44  L 18,44  L 18,43  L 20,43  L 20,44  L 21,44  L 21,43  L 25,43  L 25,42  L 30,42  L 30,41  L 32,41  L 32,40  L 37,40  L 37,39  L 40,39  L 40,38  L 42,38  L 42,37  L 44,37  L 44,36  L 46,36  L 46,35  L 48,35  L 48,33  L 49,33  L 49,32  L 50,32  L 50,30  L 51,30  L 51,27  L 48,27  L 48,28  L 46,28  L 46,29  L 44,29  L 44,30  L 42,30  L 42,31  L 38,31  L 38,32  L 34,32  L 34,33  L 31,33  L 31,34  L 27,34  L 27,35  L 20,35  L 20,36  L 18,36  L 18,35  L 17,35  L 17,36  L 12,36  L 12,37  L 11,37  L 11,36  L 9,36  L 9,20  L 10,20  L 10,18  L 11,18  L 11,17  L 12,17  L 12,16  L 14,16  L 14,15  L 16,15  L 16,16  L 17,16  L 17,15  L 24,15  L 24,14  L 32,14  L 32,13  L 33,13  L 33,14  L 34,14  L 34,13  L 43,13  L 43,12  L 49,12  L 49,11  L 54,11  L 54,10  L 55,10  L 55,9  L 56,9  L 56,7  L 55,7  L 55,6  L 54,6  L 54,4  L 50,4  L 50,5  L 49,5  L 49,4  L 48,4  L 48,5  L 44,5  L 44,6  L 34,6  L 34,7  L 33,7  L 33,6  L 31,6  L 31,7  L 23,7  L 23,8  L 21,8  L 21,7  L 20,7  L 20,8  L 13,8  L 13,7  L 9,7  L 9,8  L 7,8  L 7,9  L 6,9  L 6,10  L 4,10  L 4,11  L 3,11  L 3,12  L 2,12  L 2,22  L 1,22  L 1,23  L 2,23  L 2,25  L 1,25  L 1,35  L 2,35  L 2,36  L 1,36  Z  " style="fill:rgb(0, 0, 0); fill-opacity:1.000; stroke:none;" />
 <path d="  M 80,99  L 80,100  L 81,100  L 81,108  L 80,108  L 80,113  L 79,113  L 79,118  L 78,118  L 78,121  L 77,121  L 77,123  L 76,123  L 76,126  L 75,126  L 75,128  L 74,128  L 74,130  L 73,130  L 73,131  L 72,131  L 72,133  L 70,133  L 70,134  L 67,134  L 67,135  L 63,135  L 63,136  L 59,136  L 59,137  L 50,137  L 50,138  L 47,138  L 47,137  L 46,137  L 46,138  L 45,138  L 45,137  L 42,137  L 42,134  L 41,134  L 41,131  L 42,131  L 42,130  L 41,130  L 41,127  L 42,127  L 42,126  L 41,126  L 41,123  L 42,123  L 42,122  L 41,122  L 41,119  L 42,119  L 42,118  L 41,118  L 41,117  L 42,117  L 42,116  L 41,116  L 41,115  L 42,115  L 42,114  L 41,114  L 41,113  L 42,113  L 42,104  L 43,104  L 43,103  L 44,103  L 44,102  L 45,102  L 45,103  L 46,103  L 46,102  L 52,102  L 52,101  L 58,101  L 58,100  L 67,100  L 67,99  Z  M 35,122  L 34,122  L 34,123  L 35,123  L 35,124  L 34,124  L 34,125  L 35,125  L 35,126  L 34,126  L 34,127  L 35,127  L 35,130  L 34,130  L 34,131  L 35,131  L 35,132  L 34,132  L 34,135  L 35,135  L 35,137  L 36,137  L 36,140  L 37,140  L 37,142  L 38,142  L 38,143  L 64,143  L 64,142  L 68,142  L 68,141  L 71,141  L 71,140  L 72,140  L 72,139  L 73,139  L 73,138  L 75,138  L 75,137  L 76,137  L 76,136  L 77,136  L 77,135  L 79,135  L 79,133  L 80,133  L 80,131  L 81,131  L 81,128  L 82,128  L 82,125  L 83,125  L 83,123  L 84,123  L 84,119  L 85,119  L 85,116  L 86,116  L 86,111  L 87,111  L 87,106  L 88,106  L 88,99  L 89,99  L 89,98  L 88,98  L 88,96  L 87,96  L 87,95  L 86,95  L 86,94  L 84,94  L 84,93  L 61,93  L 61,94  L 55,94  L 55,95  L 52,95  L 52,94  L 51,94  L 51,95  L 40,95  L 40,94  L 33,94  L 33,93  L 32,93  L 32,94  L 30,94  L 30,95  L 29,95  L 29,96  L 28,96  L 28,99  L 29,99  L 29,100  L 30,100  L 30,101  L 33,101  L 33,102  L 34,102  L 34,103  L 35,103  Z  " style="fill:rgb(0, 0, 0); fill-opacity:1.000; stroke:none;" />
 <path d="  M 51,27  L 52,27  L 52,26  L 51,26  Z  " style="fill:rgb(0, 0, 0); fill-opacity:1.000; stroke:none;" />
 <path d="  M 71,26  L 70,26  L 70,27  L 71,27  L 71,32  L 70,32  L 70,35  L 71,35  L 71,36  L 70,36  L 70,39  L 71,39  L 71,40  L 70,40  L 70,43  L 71,43  L 71,44  L 70,44  L 70,47  L 71,47  L 71,48  L 70,48  L 70,51  L 71,51  L 71,80  L 72,80  L 72,85  L 73,85  L 73,86  L 74,86  L 74,87  L 76,87  L 76,86  L 78,86  L 78,70  L 77,70  L 77,69  L 78,69  L 78,68  L 77,68  L 77,67  L 78,67  L 78,66  L 77,66  L 77,63  L 78,63  L 78,62  L 77,62  L 77,42  L 78,42  L 78,40  L 92,40  L 92,39  L 93,39  L 93,40  L 96,40  L 96,39  L 97,39  L 97,40  L 100,40  L 100,39  L 102,39  L 102,34  L 100,34  L 100,33  L 79,33  L 79,34  L 78,34  L 78,32  L 77,32  L 77,18  L 76,18  L 76,17  L 77,17  L 77,16  L 76,16  L 76,15  L 77,15  L 77,14  L 76,14  L 76,4  L 75,4  L 75,2  L 74,2  L 74,0  L 71,0  L 71,1  L 69,1  L 69,7  L 70,7  L 70,8  L 69,8  L 69,9  L 70,9  L 70,19  L 71,19  Z  " style="fill:rgb(0, 0, 0); fill-opacity:1.000; stroke:none;" />
</svg>
