<?xml version="1.0" encoding="UTF-8" standalone="no"?>
<!DOCTYPE svg PUBLIC "-//W3C//DTD SVG 1.1//EN" 
  "http://www.w3.org/Graphics/SVG/1.1/DTD/svg11.dtd">
<svg width="99" height="138"
     xmlns="http://www.w3.org/2000/svg" version="1.1">
 <path d="  M 49,62  L 48,62  L 48,60  L 47,60  L 47,61  L 43,61  L 43,62  L 38,62  L 38,63  L 35,63  L 35,64  L 30,64  L 30,65  L 27,65  L 27,66  L 21,66  L 21,67  L 19,67  L 19,66  L 14,66  L 14,65  L 12,65  L 12,64  L 11,64  L 11,63  L 10,63  L 10,62  L 9,62  L 9,56  L 8,56  L 8,47  L 9,47  L 9,46  L 8,46  L 8,44  L 10,44  L 10,45  L 20,45  L 20,44  L 25,44  L 25,43  L 29,43  L 29,42  L 33,42  L 33,41  L 36,41  L 36,40  L 39,40  L 39,39  L 42,39  L 42,38  L 45,38  L 45,37  L 47,37  L 47,36  L 48,36  L 48,34  L 49,34  L 49,30  L 48,30  L 48,29  L 46,29  L 46,30  L 43,30  L 43,31  L 40,31  L 40,32  L 38,32  L 38,33  L 35,33  L 35,34  L 32,34  L 32,35  L 28,35  L 28,36  L 24,36  L 24,37  L 21,37  L 21,38  L 11,38  L 11,39  L 10,39  L 10,40  L 8,40  L 8,37  L 7,37  L 7,22  L 8,22  L 8,20  L 9,20  L 9,19  L 10,19  L 10,18  L 11,18  L 11,17  L 15,17  L 15,16  L 26,16  L 26,15  L 27,15  L 27,16  L 28,16  L 28,15  L 39,15  L 39,14  L 40,14  L 40,15  L 41,15  L 41,14  L 50,14  L 50,13  L 54,13  L 54,12  L 53,12  L 53,11  L 54,11  L 54,10  L 53,10  L 53,8  L 51,8  L 51,7  L 50,7  L 50,8  L 49,8  L 49,7  L 47,7  L 47,8  L 38,8  L 38,9  L 37,9  L 37,8  L 36,8  L 36,9  L 35,9  L 35,8  L 34,8  L 34,9  L 11,9  L 11,8  L 9,8  L 9,7  L 8,7  L 8,8  L 6,8  L 6,9  L 5,9  L 5,10  L 4,10  L 4,11  L 2,11  L 2,13  L 1,13  L 1,26  L 0,26  L 0,27  L 1,27  L 1,30  L 0,30  L 0,31  L 1,31  L 1,34  L 0,34  L 0,35  L 1,35  L 1,36  L 0,36  L 0,37  L 1,37  L 1,38  L 0,38  L 0,39  L 1,39  L 1,51  L 2,51  L 2,62  L 3,62  L 3,66  L 4,66  L 4,68  L 5,68  L 5,69  L 7,69  L 7,71  L 10,71  L 10,72  L 13,72  L 13,73  L 19,73  L 19,74  L 21,74  L 21,73  L 27,73  L 27,72  L 31,72  L 31,71  L 35,71  L 35,70  L 41,70  L 41,69  L 45,69  L 45,68  L 47,68  L 47,67  L 48,67  L 48,65  L 49,65  Z  " style="fill:rgb(0, 0, 0); fill-opacity:1.000; stroke:none;" />
 <path d="  M 40,100  L 39,100  L 39,101  L 38,101  L 38,102  L 37,102  L 37,104  L 36,104  L 36,108  L 35,108  L 35,110  L 34,110  L 34,112  L 33,112  L 33,116  L 32,116  L 32,121  L 31,121  L 31,129  L 32,129  L 32,130  L 33,130  L 33,131  L 34,131  L 34,133  L 36,133  L 36,134  L 38,134  L 38,135  L 39,135  L 39,136  L 40,136  L 40,135  L 41,135  L 41,137  L 45,137  L 45,138  L 46,138  L 46,137  L 47,137  L 47,138  L 62,138  L 62,137  L 66,137  L 66,136  L 68,136  L 68,135  L 71,135  L 71,134  L 73,134  L 73,133  L 75,133  L 75,132  L 77,132  L 77,131  L 78,131  L 78,130  L 79,130  L 79,129  L 80,129  L 80,128  L 81,128  L 81,127  L 82,127  L 82,125  L 83,125  L 83,123  L 84,123  L 84,121  L 85,121  L 85,117  L 86,117  L 86,107  L 87,107  L 87,102  L 86,102  L 86,101  L 87,101  L 87,99  L 86,99  L 86,98  L 87,98  L 87,97  L 86,97  L 86,96  L 85,96  L 85,95  L 84,95  L 84,93  L 82,93  L 82,92  L 81,92  L 81,91  L 80,91  L 80,90  L 74,90  L 74,89  L 59,89  L 59,90  L 58,90  L 58,89  L 48,89  L 48,90  L 46,90  L 46,92  L 45,92  L 45,93  L 44,93  L 44,94  L 43,94  L 43,95  L 42,95  L 42,97  L 41,97  L 41,98  L 40,98  Z  M 50,132  L 50,131  L 46,131  L 46,130  L 43,130  L 43,129  L 41,129  L 41,128  L 40,128  L 40,127  L 39,127  L 39,126  L 38,126  L 38,125  L 37,125  L 37,118  L 38,118  L 38,115  L 39,115  L 39,112  L 40,112  L 40,109  L 41,109  L 41,108  L 42,108  L 42,106  L 43,106  L 43,105  L 44,105  L 44,104  L 45,104  L 45,103  L 46,103  L 46,102  L 47,102  L 47,100  L 50,100  L 50,99  L 51,99  L 51,98  L 55,98  L 55,97  L 63,97  L 63,96  L 68,96  L 68,97  L 73,97  L 73,98  L 74,98  L 74,97  L 75,97  L 75,98  L 77,98  L 77,100  L 78,100  L 78,101  L 79,101  L 79,113  L 78,113  L 78,118  L 77,118  L 77,121  L 76,121  L 76,123  L 75,123  L 75,125  L 74,125  L 74,126  L 73,126  L 73,127  L 71,127  L 71,128  L 69,128  L 69,129  L 68,129  L 68,130  L 64,130  L 64,131  L 56,131  L 56,132  Z  " style="fill:rgb(0, 0, 0); fill-opacity:1.000; stroke:none;" />
 <path d="  M 68,18  L 69,18  L 69,32  L 68,32  L 68,50  L 69,50  L 69,52  L 68,52  L 68,53  L 69,53  L 69,56  L 68,56  L 68,57  L 69,57  L 69,75  L 70,75  L 70,79  L 71,79  L 71,80  L 72,80  L 72,79  L 75,79  L 75,77  L 76,77  L 76,76  L 75,76  L 75,75  L 76,75  L 76,74  L 75,74  L 75,73  L 76,73  L 76,72  L 75,72  L 75,71  L 76,71  L 76,70  L 75,70  L 75,69  L 76,69  L 76,68  L 75,68  L 75,52  L 74,52  L 74,50  L 75,50  L 75,48  L 74,48  L 74,40  L 76,40  L 76,39  L 81,39  L 81,38  L 84,38  L 84,39  L 85,39  L 85,38  L 88,38  L 88,39  L 89,39  L 89,38  L 99,38  L 99,33  L 98,33  L 98,32  L 79,32  L 79,31  L 78,31  L 78,32  L 75,32  L 75,31  L 74,31  L 74,30  L 75,30  L 75,28  L 74,28  L 74,27  L 75,27  L 75,26  L 74,26  L 74,12  L 73,12  L 73,7  L 74,7  L 74,6  L 73,6  L 73,2  L 72,2  L 72,0  L 69,0  L 69,1  L 67,1  L 67,11  L 68,11  Z  " style="fill:rgb(0, 0, 0); fill-opacity:1.000; stroke:none;" />
</svg>
