<?xml version="1.0" encoding="UTF-8" standalone="no"?>
<!DOCTYPE svg PUBLIC "-//W3C//DTD SVG 1.1//EN" 
  "http://www.w3.org/Graphics/SVG/1.1/DTD/svg11.dtd">
<svg width="103" height="154"
     xmlns="http://www.w3.org/2000/svg" version="1.1">
 <path d="  M 11,61  L 11,59  L 10,59  L 10,52  L 9,52  L 9,45  L 10,45  L 10,44  L 9,44  L 9,43  L 10,43  L 10,40  L 11,40  L 11,42  L 13,42  L 13,43  L 18,43  L 18,42  L 25,42  L 25,41  L 28,41  L 28,40  L 32,40  L 32,39  L 36,39  L 36,38  L 40,38  L 40,37  L 42,37  L 42,36  L 46,36  L 46,35  L 47,35  L 47,34  L 48,34  L 48,33  L 49,33  L 49,28  L 48,28  L 48,27  L 46,27  L 46,28  L 43,28  L 43,29  L 42,29  L 42,30  L 40,30  L 40,31  L 35,31  L 35,32  L 31,32  L 31,33  L 28,33  L 28,34  L 23,34  L 23,35  L 13,35  L 13,36  L 12,36  L 12,37  L 10,37  L 10,36  L 9,36  L 9,17  L 10,17  L 10,15  L 12,15  L 12,14  L 13,14  L 13,15  L 14,15  L 14,14  L 19,14  L 19,13  L 22,13  L 22,14  L 23,14  L 23,13  L 30,13  L 30,12  L 31,12  L 31,13  L 32,13  L 32,12  L 36,12  L 36,11  L 37,11  L 37,10  L 40,10  L 40,9  L 43,9  L 43,8  L 44,8  L 44,9  L 45,9  L 45,8  L 48,8  L 48,7  L 50,7  L 50,2  L 49,2  L 49,1  L 44,1  L 44,2  L 41,2  L 41,3  L 38,3  L 38,4  L 34,4  L 34,5  L 28,5  L 28,6  L 14,6  L 14,5  L 11,5  L 11,4  L 9,4  L 9,3  L 5,3  L 5,4  L 4,4  L 4,5  L 3,5  L 3,7  L 2,7  L 2,8  L 1,8  L 1,13  L 2,13  L 2,16  L 1,16  L 1,17  L 2,17  L 2,47  L 3,47  L 3,56  L 4,56  L 4,60  L 5,60  L 5,61  L 4,61  L 4,62  L 5,62  L 5,64  L 6,64  L 6,65  L 7,65  L 7,67  L 10,67  L 10,68  L 11,68  L 11,69  L 15,69  L 15,70  L 17,70  L 17,71  L 18,71  L 18,70  L 21,70  L 21,71  L 22,71  L 22,70  L 23,70  L 23,71  L 24,71  L 24,70  L 25,70  L 25,71  L 26,71  L 26,70  L 29,70  L 29,69  L 31,69  L 31,70  L 32,70  L 32,69  L 38,69  L 38,68  L 39,68  L 39,69  L 40,69  L 40,68  L 48,68  L 48,67  L 50,67  L 50,66  L 53,66  L 53,65  L 54,65  L 54,64  L 55,64  L 55,63  L 57,63  L 57,62  L 56,62  L 56,60  L 55,60  L 55,59  L 54,59  L 54,57  L 51,57  L 51,58  L 49,58  L 49,59  L 47,59  L 47,60  L 44,60  L 44,61  L 41,61  L 41,62  L 36,62  L 36,63  L 27,63  L 27,64  L 17,64  L 17,63  L 13,63  L 13,62  L 12,62  L 12,61  Z  M 10,40  L 9,40  L 9,39  L 10,39  Z  " style="fill:rgb(0, 0, 0); fill-opacity:1.000; stroke:none;" />
 <path d="  M 86,110  L 85,110  L 85,114  L 84,114  L 84,118  L 83,118  L 83,121  L 82,121  L 82,126  L 81,126  L 81,134  L 80,134  L 80,140  L 79,140  L 79,143  L 78,143  L 78,147  L 77,147  L 77,153  L 78,153  L 78,154  L 83,154  L 83,153  L 84,153  L 84,151  L 85,151  L 85,148  L 86,148  L 86,145  L 87,145  L 87,144  L 86,144  L 86,143  L 87,143  L 87,135  L 88,135  L 88,134  L 87,134  L 87,133  L 88,133  L 88,127  L 89,127  L 89,122  L 90,122  L 90,119  L 91,119  L 91,116  L 92,116  L 92,113  L 93,113  L 93,108  L 94,108  L 94,105  L 93,105  L 93,100  L 92,100  L 92,98  L 91,98  L 91,97  L 90,97  L 90,96  L 87,96  L 87,95  L 82,95  L 82,94  L 74,94  L 74,93  L 73,93  L 73,94  L 71,94  L 71,93  L 64,93  L 64,94  L 62,94  L 62,93  L 61,93  L 61,94  L 53,94  L 53,95  L 42,95  L 42,96  L 35,96  L 35,97  L 33,97  L 33,98  L 32,98  L 32,101  L 34,101  L 34,102  L 35,102  L 35,103  L 40,103  L 40,102  L 41,102  L 41,103  L 42,103  L 42,102  L 43,102  L 43,103  L 44,103  L 44,102  L 52,102  L 52,101  L 62,101  L 62,100  L 77,100  L 77,101  L 80,101  L 80,102  L 82,102  L 82,103  L 84,103  L 84,104  L 85,104  L 85,105  L 86,105  Z  " style="fill:rgb(0, 0, 0); fill-opacity:1.000; stroke:none;" />
 <path d="  M 76,3  L 77,3  L 77,2  L 75,2  L 75,1  L 73,1  L 73,0  L 69,0  L 69,1  L 68,1  L 68,5  L 69,5  L 69,6  L 68,6  L 68,7  L 69,7  L 69,8  L 68,8  L 68,9  L 69,9  L 69,31  L 70,31  L 70,33  L 69,33  L 69,35  L 70,35  L 70,40  L 71,40  L 71,56  L 70,56  L 70,62  L 69,62  L 69,63  L 70,63  L 70,65  L 69,65  L 69,71  L 70,71  L 70,72  L 73,72  L 73,71  L 74,71  L 74,72  L 75,72  L 75,71  L 76,71  L 76,70  L 75,70  L 75,69  L 76,69  L 76,66  L 77,66  L 77,57  L 78,57  L 78,51  L 79,51  L 79,50  L 78,50  L 78,47  L 79,47  L 79,37  L 80,37  L 80,36  L 79,36  L 79,35  L 80,35  L 80,34  L 83,34  L 83,33  L 88,33  L 88,32  L 93,32  L 93,31  L 96,31  L 96,33  L 97,33  L 97,34  L 96,34  L 96,35  L 97,35  L 97,50  L 96,50  L 96,51  L 97,51  L 97,54  L 96,54  L 96,56  L 97,56  L 97,57  L 96,57  L 96,76  L 97,76  L 97,77  L 98,77  L 98,78  L 99,78  L 99,77  L 100,77  L 100,76  L 102,76  L 102,75  L 103,75  L 103,2  L 102,2  L 102,1  L 101,1  L 101,0  L 99,0  L 99,1  L 96,1  L 96,2  L 95,2  L 95,3  L 96,3  L 96,20  L 97,20  L 97,22  L 96,22  L 96,25  L 95,25  L 95,26  L 94,26  L 94,25  L 91,25  L 91,26  L 88,26  L 88,27  L 86,27  L 86,26  L 85,26  L 85,27  L 77,27  L 77,26  L 76,26  Z  " style="fill:rgb(0, 0, 0); fill-opacity:1.000; stroke:none;" />
</svg>
