<?xml version="1.0" encoding="UTF-8" standalone="no"?>
<!DOCTYPE svg PUBLIC "-//W3C//DTD SVG 1.1//EN" 
  "http://www.w3.org/Graphics/SVG/1.1/DTD/svg11.dtd">
<svg width="107" height="156"
     xmlns="http://www.w3.org/2000/svg" version="1.1">
 <path d="  M 1,39  L 2,39  L 2,40  L 1,40  L 1,41  L 2,41  L 2,57  L 3,57  L 3,65  L 4,65  L 4,68  L 5,68  L 5,69  L 6,69  L 6,70  L 7,70  L 7,71  L 10,71  L 10,72  L 12,72  L 12,73  L 22,73  L 22,74  L 24,74  L 24,73  L 25,73  L 25,74  L 26,74  L 26,73  L 27,73  L 27,74  L 28,74  L 28,73  L 34,73  L 34,72  L 35,72  L 35,73  L 36,73  L 36,72  L 37,72  L 37,73  L 38,73  L 38,72  L 49,72  L 49,73  L 50,73  L 50,72  L 53,72  L 53,71  L 56,71  L 56,70  L 57,70  L 57,69  L 59,69  L 59,67  L 60,67  L 60,66  L 59,66  L 59,64  L 58,64  L 58,63  L 57,63  L 57,62  L 56,62  L 56,61  L 55,61  L 55,62  L 54,62  L 54,61  L 53,61  L 53,62  L 50,62  L 50,63  L 48,63  L 48,64  L 47,64  L 47,63  L 46,63  L 46,64  L 42,64  L 42,65  L 34,65  L 34,66  L 33,66  L 33,65  L 32,65  L 32,66  L 18,66  L 18,65  L 17,65  L 17,64  L 13,64  L 13,63  L 12,63  L 12,62  L 11,62  L 11,61  L 10,61  L 10,58  L 9,58  L 9,47  L 10,47  L 10,45  L 12,45  L 12,44  L 20,44  L 20,43  L 28,43  L 28,42  L 33,42  L 33,41  L 37,41  L 37,40  L 40,40  L 40,39  L 43,39  L 43,38  L 47,38  L 47,37  L 50,37  L 50,36  L 51,36  L 51,35  L 52,35  L 52,33  L 53,33  L 53,31  L 54,31  L 54,28  L 52,28  L 52,27  L 49,27  L 49,28  L 48,28  L 48,29  L 45,29  L 45,30  L 42,30  L 42,31  L 41,31  L 41,32  L 39,32  L 39,33  L 35,33  L 35,34  L 30,34  L 30,35  L 29,35  L 29,36  L 21,36  L 21,37  L 9,37  L 9,32  L 8,32  L 8,25  L 9,25  L 9,21  L 10,21  L 10,19  L 11,19  L 11,18  L 13,18  L 13,17  L 15,17  L 15,16  L 16,16  L 16,15  L 26,15  L 26,14  L 27,14  L 27,15  L 28,15  L 28,14  L 34,14  L 34,13  L 38,13  L 38,12  L 42,12  L 42,11  L 43,11  L 43,12  L 44,12  L 44,11  L 45,11  L 45,10  L 51,10  L 51,9  L 52,9  L 52,8  L 53,8  L 53,7  L 54,7  L 54,3  L 53,3  L 53,2  L 50,2  L 50,3  L 47,3  L 47,4  L 41,4  L 41,5  L 37,5  L 37,6  L 30,6  L 30,7  L 12,7  L 12,8  L 9,8  L 9,9  L 7,9  L 7,10  L 6,10  L 6,11  L 5,11  L 5,12  L 4,12  L 4,13  L 3,13  L 3,17  L 2,17  L 2,22  L 1,22  Z  " style="fill:rgb(0, 0, 0); fill-opacity:1.000; stroke:none;" />
 <path d="  M 95,100  L 94,100  L 94,99  L 95,99  L 95,98  L 94,98  L 94,97  L 89,97  L 89,99  L 88,99  L 88,105  L 89,105  L 89,121  L 88,121  L 88,122  L 87,122  L 87,123  L 74,123  L 74,122  L 73,122  L 73,123  L 66,123  L 66,122  L 65,122  L 65,123  L 58,123  L 58,122  L 57,122  L 57,123  L 54,123  L 54,122  L 53,122  L 53,123  L 48,123  L 48,94  L 46,94  L 46,93  L 45,93  L 45,94  L 43,94  L 43,95  L 42,95  L 42,96  L 41,96  L 41,97  L 42,97  L 42,100  L 41,100  L 41,101  L 42,101  L 42,102  L 41,102  L 41,103  L 42,103  L 42,104  L 41,104  L 41,105  L 42,105  L 42,106  L 41,106  L 41,109  L 42,109  L 42,111  L 41,111  L 41,113  L 42,113  L 42,115  L 41,115  L 41,117  L 42,117  L 42,119  L 41,119  L 41,121  L 42,121  L 42,123  L 41,123  L 41,125  L 42,125  L 42,127  L 41,127  L 41,129  L 42,129  L 42,133  L 43,133  L 43,135  L 42,135  L 42,136  L 43,136  L 43,142  L 44,142  L 44,146  L 45,146  L 45,147  L 44,147  L 44,148  L 45,148  L 45,149  L 46,149  L 46,151  L 47,151  L 47,153  L 48,153  L 48,155  L 51,155  L 51,156  L 69,156  L 69,155  L 73,155  L 73,154  L 75,154  L 75,153  L 78,153  L 78,152  L 81,152  L 81,151  L 84,151  L 84,150  L 87,150  L 87,149  L 89,149  L 89,148  L 90,148  L 90,147  L 91,147  L 91,146  L 92,146  L 92,143  L 93,143  L 93,136  L 94,136  L 94,127  L 95,127  L 95,113  L 96,113  L 96,112  L 95,112  L 95,109  L 96,109  L 96,108  L 95,108  L 95,105  L 96,105  L 96,104  L 95,104  Z  M 62,130  L 62,129  L 63,129  L 63,130  L 66,130  L 66,129  L 67,129  L 67,130  L 70,130  L 70,129  L 71,129  L 71,130  L 74,130  L 74,129  L 75,129  L 75,130  L 78,130  L 78,129  L 79,129  L 79,130  L 82,130  L 82,129  L 83,129  L 83,130  L 86,130  L 86,131  L 87,131  L 87,132  L 86,132  L 86,141  L 85,141  L 85,143  L 83,143  L 83,144  L 81,144  L 81,145  L 78,145  L 78,146  L 74,146  L 74,147  L 72,147  L 72,148  L 67,148  L 67,149  L 64,149  L 64,150  L 54,150  L 54,149  L 52,149  L 52,148  L 51,148  L 51,143  L 50,143  L 50,137  L 49,137  L 49,131  L 50,131  L 50,130  Z  " style="fill:rgb(0, 0, 0); fill-opacity:1.000; stroke:none;" />
 <path d="  M 74,52  L 73,52  L 73,53  L 74,53  L 74,54  L 73,54  L 73,63  L 72,63  L 72,65  L 73,65  L 73,66  L 72,66  L 72,77  L 73,77  L 73,78  L 75,78  L 75,77  L 76,77  L 76,76  L 77,76  L 77,75  L 78,75  L 78,74  L 79,74  L 79,69  L 80,69  L 80,68  L 79,68  L 79,66  L 80,66  L 80,57  L 81,57  L 81,56  L 80,56  L 80,55  L 81,55  L 81,48  L 82,48  L 82,45  L 83,45  L 83,44  L 82,44  L 82,43  L 83,43  L 83,42  L 82,42  L 82,38  L 83,38  L 83,36  L 86,36  L 86,35  L 90,35  L 90,34  L 91,34  L 91,35  L 92,35  L 92,34  L 96,34  L 96,33  L 99,33  L 99,34  L 100,34  L 100,46  L 99,46  L 99,47  L 100,47  L 100,54  L 99,54  L 99,55  L 100,55  L 100,58  L 99,58  L 99,74  L 98,74  L 98,88  L 99,88  L 99,90  L 102,90  L 102,89  L 103,89  L 103,88  L 104,88  L 104,86  L 105,86  L 105,81  L 106,81  L 106,73  L 107,73  L 107,72  L 106,72  L 106,71  L 107,71  L 107,70  L 106,70  L 106,69  L 107,69  L 107,68  L 106,68  L 106,67  L 107,67  L 107,20  L 106,20  L 106,19  L 107,19  L 107,18  L 106,18  L 106,5  L 105,5  L 105,4  L 104,4  L 104,3  L 103,3  L 103,4  L 99,4  L 99,5  L 98,5  L 98,10  L 99,10  L 99,26  L 97,26  L 97,27  L 92,27  L 92,28  L 90,28  L 90,27  L 89,27  L 89,28  L 84,28  L 84,29  L 83,29  L 83,28  L 80,28  L 80,9  L 81,9  L 81,4  L 80,4  L 80,2  L 79,2  L 79,1  L 78,1  L 78,0  L 74,0  L 74,1  L 73,1  L 73,24  L 72,24  L 72,25  L 73,25  L 73,26  L 72,26  L 72,29  L 73,29  L 73,30  L 72,30  L 72,33  L 73,33  L 73,41  L 74,41  L 74,43  L 73,43  L 73,44  L 74,44  Z  " style="fill:rgb(0, 0, 0); fill-opacity:1.000; stroke:none;" />
</svg>
