<?xml version="1.0" encoding="UTF-8" standalone="no"?>
<!DOCTYPE svg PUBLIC "-//W3C//DTD SVG 1.1//EN" 
  "http://www.w3.org/Graphics/SVG/1.1/DTD/svg11.dtd">
<svg width="103" height="145"
     xmlns="http://www.w3.org/2000/svg" version="1.1">
 <path d="  M 1,48  L 2,48  L 2,49  L 1,49  L 1,50  L 2,50  L 2,58  L 3,58  L 3,59  L 2,59  L 2,60  L 3,60  L 3,64  L 4,64  L 4,66  L 5,66  L 5,67  L 6,67  L 6,68  L 5,68  L 5,69  L 7,69  L 7,70  L 9,70  L 9,71  L 11,71  L 11,72  L 17,72  L 17,73  L 23,73  L 23,72  L 29,72  L 29,71  L 36,71  L 36,70  L 41,70  L 41,69  L 47,69  L 47,68  L 51,68  L 51,67  L 53,67  L 53,66  L 54,66  L 54,65  L 56,65  L 56,63  L 55,63  L 55,61  L 54,61  L 54,60  L 53,60  L 53,59  L 50,59  L 50,60  L 48,60  L 48,61  L 46,61  L 46,62  L 44,62  L 44,63  L 39,63  L 39,64  L 31,64  L 31,65  L 20,65  L 20,66  L 19,66  L 19,65  L 12,65  L 12,64  L 11,64  L 11,63  L 10,63  L 10,60  L 9,60  L 9,52  L 8,52  L 8,50  L 9,50  L 9,49  L 8,49  L 8,48  L 9,48  L 9,45  L 10,45  L 10,44  L 12,44  L 12,45  L 21,45  L 21,44  L 29,44  L 29,43  L 33,43  L 33,42  L 39,42  L 39,41  L 44,41  L 44,40  L 48,40  L 48,39  L 49,39  L 49,36  L 50,36  L 50,34  L 49,34  L 49,31  L 47,31  L 47,32  L 44,32  L 44,33  L 41,33  L 41,34  L 36,34  L 36,35  L 32,35  L 32,36  L 26,36  L 26,37  L 18,37  L 18,38  L 17,38  L 17,37  L 14,37  L 14,38  L 11,38  L 11,39  L 10,39  L 10,38  L 9,38  L 9,37  L 8,37  L 8,27  L 7,27  L 7,26  L 8,26  L 8,25  L 7,25  L 7,24  L 8,24  L 8,20  L 9,20  L 9,18  L 10,18  L 10,17  L 11,17  L 11,16  L 12,16  L 12,15  L 13,15  L 13,16  L 14,16  L 14,15  L 23,15  L 23,14  L 25,14  L 25,15  L 27,15  L 27,14  L 32,14  L 32,13  L 39,13  L 39,12  L 42,12  L 42,11  L 46,11  L 46,10  L 49,10  L 49,8  L 50,8  L 50,7  L 51,7  L 51,6  L 50,6  L 50,5  L 49,5  L 49,4  L 48,4  L 48,3  L 45,3  L 45,4  L 43,4  L 43,5  L 38,5  L 38,6  L 33,6  L 33,7  L 12,7  L 12,6  L 8,6  L 8,7  L 7,7  L 7,8  L 6,8  L 6,10  L 5,10  L 5,11  L 4,11  L 4,12  L 2,12  L 2,18  L 1,18  L 1,27  L 0,27  L 0,28  L 1,28  L 1,29  L 0,29  L 0,32  L 1,32  L 1,35  L 0,35  L 0,36  L 1,36  Z  " style="fill:rgb(0, 0, 0); fill-opacity:1.000; stroke:none;" />
 <path d="  M 21,138  L 21,140  L 20,140  L 20,141  L 19,141  L 19,144  L 20,144  L 20,145  L 25,145  L 25,144  L 26,144  L 26,143  L 27,143  L 27,142  L 29,142  L 29,141  L 30,141  L 30,140  L 31,140  L 31,139  L 32,139  L 32,138  L 33,138  L 33,137  L 34,137  L 34,136  L 35,136  L 35,135  L 36,135  L 36,133  L 37,133  L 37,131  L 38,131  L 38,130  L 39,130  L 39,129  L 40,129  L 40,127  L 41,127  L 41,126  L 42,126  L 42,125  L 43,125  L 43,123  L 44,123  L 44,122  L 45,122  L 45,120  L 46,120  L 46,119  L 47,119  L 47,117  L 48,117  L 48,115  L 49,115  L 49,114  L 52,114  L 52,115  L 53,115  L 53,116  L 54,116  L 54,117  L 55,117  L 55,118  L 57,118  L 57,119  L 59,119  L 59,120  L 61,120  L 61,122  L 62,122  L 62,123  L 64,123  L 64,124  L 65,124  L 65,125  L 67,125  L 67,126  L 68,126  L 68,127  L 69,127  L 69,128  L 71,128  L 71,129  L 72,129  L 72,130  L 74,130  L 74,131  L 75,131  L 75,132  L 77,132  L 77,133  L 78,133  L 78,134  L 79,134  L 79,135  L 80,135  L 80,136  L 83,136  L 83,137  L 84,137  L 84,138  L 86,138  L 86,139  L 88,139  L 88,140  L 89,140  L 89,141  L 91,141  L 91,142  L 92,142  L 92,141  L 93,141  L 93,142  L 95,142  L 95,143  L 96,143  L 96,144  L 97,144  L 97,143  L 100,143  L 100,142  L 101,142  L 101,141  L 102,141  L 102,138  L 101,138  L 101,137  L 99,137  L 99,136  L 97,136  L 97,135  L 94,135  L 94,134  L 92,134  L 92,133  L 90,133  L 90,132  L 89,132  L 89,131  L 87,131  L 87,130  L 86,130  L 86,129  L 84,129  L 84,128  L 82,128  L 82,127  L 80,127  L 80,126  L 79,126  L 79,125  L 77,125  L 77,124  L 76,124  L 76,123  L 74,123  L 74,122  L 73,122  L 73,121  L 72,121  L 72,120  L 70,120  L 70,119  L 69,119  L 69,118  L 67,118  L 67,117  L 66,117  L 66,116  L 65,116  L 65,115  L 63,115  L 63,113  L 61,113  L 61,112  L 60,112  L 60,111  L 58,111  L 58,109  L 57,109  L 57,108  L 56,108  L 56,105  L 58,105  L 58,104  L 59,104  L 59,103  L 60,103  L 60,102  L 61,102  L 61,101  L 62,101  L 62,100  L 63,100  L 63,99  L 64,99  L 64,98  L 66,98  L 66,97  L 67,97  L 67,96  L 68,96  L 68,91  L 67,91  L 67,90  L 66,90  L 66,89  L 62,89  L 62,90  L 61,90  L 61,91  L 60,91  L 60,92  L 59,92  L 59,94  L 58,94  L 58,95  L 57,95  L 57,96  L 56,96  L 56,97  L 55,97  L 55,98  L 54,98  L 54,99  L 53,99  L 53,100  L 52,100  L 52,101  L 51,101  L 51,102  L 50,102  L 50,103  L 49,103  L 49,105  L 48,105  L 48,106  L 47,106  L 47,107  L 46,107  L 46,108  L 45,108  L 45,110  L 44,110  L 44,111  L 43,111  L 43,112  L 42,112  L 42,113  L 41,113  L 41,115  L 40,115  L 40,116  L 39,116  L 39,118  L 38,118  L 38,120  L 37,120  L 37,121  L 35,121  L 35,123  L 34,123  L 34,124  L 33,124  L 33,126  L 32,126  L 32,127  L 31,127  L 31,128  L 30,128  L 30,130  L 29,130  L 29,131  L 28,131  L 28,132  L 27,132  L 27,133  L 26,133  L 26,135  L 24,135  L 24,136  L 23,136  L 23,137  L 22,137  L 22,138  Z  " style="fill:rgb(0, 0, 0); fill-opacity:1.000; stroke:none;" />
 <path d="  M 102,7  L 101,7  L 101,6  L 99,6  L 99,5  L 98,5  L 98,6  L 97,6  L 97,7  L 96,7  L 96,25  L 95,25  L 95,27  L 91,27  L 91,28  L 83,28  L 83,29  L 82,29  L 82,28  L 81,28  L 81,29  L 75,29  L 75,23  L 74,23  L 74,22  L 75,22  L 75,19  L 74,19  L 74,2  L 73,2  L 73,1  L 68,1  L 68,3  L 67,3  L 67,16  L 68,16  L 68,17  L 67,17  L 67,18  L 68,18  L 68,19  L 67,19  L 67,20  L 68,20  L 68,44  L 69,44  L 69,46  L 68,46  L 68,48  L 69,48  L 69,49  L 68,49  L 68,61  L 67,61  L 67,73  L 68,73  L 68,74  L 69,74  L 69,75  L 70,75  L 70,74  L 71,74  L 71,73  L 73,73  L 73,72  L 74,72  L 74,65  L 75,65  L 75,56  L 76,56  L 76,55  L 75,55  L 75,54  L 76,54  L 76,47  L 77,47  L 77,37  L 78,37  L 78,36  L 84,36  L 84,35  L 85,35  L 85,36  L 86,36  L 86,35  L 92,35  L 92,34  L 94,34  L 94,35  L 95,35  L 95,40  L 96,40  L 96,57  L 97,57  L 97,59  L 96,59  L 96,61  L 97,61  L 97,63  L 96,63  L 96,64  L 97,64  L 97,67  L 96,67  L 96,68  L 97,68  L 97,83  L 99,83  L 99,84  L 101,84  L 101,83  L 102,83  L 102,82  L 103,82  L 103,15  L 102,15  L 102,12  L 103,12  L 103,11  L 102,11  Z  " style="fill:rgb(0, 0, 0); fill-opacity:1.000; stroke:none;" />
</svg>
