<?xml version="1.0" encoding="UTF-8" standalone="no"?>
<!DOCTYPE svg PUBLIC "-//W3C//DTD SVG 1.1//EN" 
  "http://www.w3.org/Graphics/SVG/1.1/DTD/svg11.dtd">
<svg width="105" height="141"
     xmlns="http://www.w3.org/2000/svg" version="1.1">
 <path d="  M 47,33  L 45,33  L 45,32  L 43,32  L 43,33  L 40,33  L 40,34  L 36,34  L 36,35  L 31,35  L 31,36  L 24,36  L 24,37  L 21,37  L 21,36  L 20,36  L 20,37  L 11,37  L 11,38  L 9,38  L 9,37  L 8,37  L 8,19  L 9,19  L 9,18  L 10,18  L 10,17  L 14,17  L 14,16  L 23,16  L 23,15  L 29,15  L 29,14  L 40,14  L 40,13  L 42,13  L 42,14  L 43,14  L 43,13  L 45,13  L 45,12  L 47,12  L 47,11  L 48,11  L 48,6  L 46,6  L 46,7  L 45,7  L 45,6  L 44,6  L 44,7  L 39,7  L 39,8  L 32,8  L 32,9  L 31,9  L 31,8  L 28,8  L 28,9  L 10,9  L 10,8  L 4,8  L 4,10  L 3,10  L 3,12  L 2,12  L 2,22  L 1,22  L 1,37  L 2,37  L 2,50  L 3,50  L 3,56  L 4,56  L 4,61  L 5,61  L 5,63  L 6,63  L 6,64  L 7,64  L 7,65  L 9,65  L 9,66  L 11,66  L 11,67  L 21,67  L 21,66  L 29,66  L 29,65  L 35,65  L 35,64  L 36,64  L 36,65  L 37,65  L 37,64  L 41,64  L 41,63  L 44,63  L 44,62  L 47,62  L 47,61  L 49,61  L 49,62  L 50,62  L 50,61  L 54,61  L 54,60  L 55,60  L 55,57  L 54,57  L 54,56  L 53,56  L 53,55  L 52,55  L 52,54  L 51,54  L 51,53  L 50,53  L 50,54  L 49,54  L 49,53  L 46,53  L 46,54  L 44,54  L 44,55  L 43,55  L 43,56  L 40,56  L 40,57  L 37,57  L 37,58  L 35,58  L 35,59  L 34,59  L 34,58  L 33,58  L 33,59  L 29,59  L 29,60  L 23,60  L 23,61  L 13,61  L 13,60  L 11,60  L 11,59  L 10,59  L 10,57  L 9,57  L 9,42  L 10,42  L 10,41  L 11,41  L 11,43  L 13,43  L 13,44  L 15,44  L 15,43  L 23,43  L 23,42  L 24,42  L 24,43  L 25,43  L 25,42  L 31,42  L 31,41  L 36,41  L 36,40  L 44,40  L 44,39  L 46,39  L 46,38  L 48,38  L 48,35  L 47,35  Z  " style="fill:rgb(0, 0, 0); fill-opacity:1.000; stroke:none;" />
 <path d="  M 35,107  L 34,107  L 34,106  L 35,106  L 35,103  L 36,103  L 36,102  L 37,102  L 37,101  L 38,101  L 38,99  L 39,99  L 39,98  L 40,98  L 40,97  L 41,97  L 41,95  L 42,95  L 42,93  L 43,93  L 43,92  L 44,92  L 44,88  L 45,88  L 45,81  L 40,81  L 40,82  L 39,82  L 39,84  L 38,84  L 38,93  L 37,93  L 37,94  L 36,94  L 36,95  L 35,95  L 35,97  L 34,97  L 34,98  L 33,98  L 33,99  L 32,99  L 32,100  L 31,100  L 31,101  L 30,101  L 30,103  L 29,103  L 29,104  L 28,104  L 28,106  L 27,106  L 27,107  L 26,107  L 26,108  L 25,108  L 25,109  L 24,109  L 24,110  L 23,110  L 23,111  L 22,111  L 22,112  L 21,112  L 21,113  L 20,113  L 20,114  L 19,114  L 19,116  L 17,116  L 17,117  L 16,117  L 16,118  L 15,118  L 15,119  L 14,119  L 14,120  L 13,120  L 13,121  L 12,121  L 12,122  L 11,122  L 11,124  L 10,124  L 10,126  L 9,126  L 9,129  L 10,129  L 10,130  L 14,130  L 14,129  L 15,129  L 15,127  L 16,127  L 16,126  L 17,126  L 17,125  L 18,125  L 18,124  L 19,124  L 19,123  L 20,123  L 20,122  L 21,122  L 21,121  L 22,121  L 22,120  L 23,120  L 23,119  L 24,119  L 24,118  L 26,118  L 26,117  L 27,117  L 27,116  L 28,116  L 28,114  L 32,114  L 32,113  L 33,113  L 33,114  L 35,114  L 35,115  L 38,115  L 38,116  L 42,116  L 42,117  L 45,117  L 45,118  L 47,118  L 47,119  L 50,119  L 50,120  L 51,120  L 51,121  L 52,121  L 52,122  L 53,122  L 53,124  L 54,124  L 54,129  L 53,129  L 53,130  L 52,130  L 52,133  L 51,133  L 51,135  L 50,135  L 50,141  L 55,141  L 55,140  L 56,140  L 56,137  L 57,137  L 57,135  L 58,135  L 58,133  L 59,133  L 59,131  L 60,131  L 60,130  L 61,130  L 61,129  L 62,129  L 62,128  L 63,128  L 63,127  L 64,127  L 64,125  L 65,125  L 65,124  L 66,124  L 66,121  L 67,121  L 67,119  L 68,119  L 68,117  L 69,117  L 69,114  L 70,114  L 70,112  L 72,112  L 72,113  L 73,113  L 73,115  L 74,115  L 74,116  L 76,116  L 76,117  L 77,117  L 77,118  L 78,118  L 78,119  L 80,119  L 80,120  L 83,120  L 83,121  L 85,121  L 85,122  L 87,122  L 87,123  L 89,123  L 89,124  L 91,124  L 91,125  L 93,125  L 93,126  L 95,126  L 95,127  L 97,127  L 97,128  L 100,128  L 100,129  L 105,129  L 105,125  L 104,125  L 104,124  L 103,124  L 103,123  L 101,123  L 101,122  L 98,122  L 98,121  L 96,121  L 96,120  L 94,120  L 94,119  L 93,119  L 93,118  L 91,118  L 91,117  L 89,117  L 89,116  L 86,116  L 86,115  L 85,115  L 85,114  L 83,114  L 83,113  L 81,113  L 81,112  L 80,112  L 80,111  L 79,111  L 79,110  L 78,110  L 78,109  L 77,109  L 77,108  L 75,108  L 75,104  L 76,104  L 76,101  L 77,101  L 77,99  L 78,99  L 78,95  L 79,95  L 79,93  L 80,93  L 80,88  L 79,88  L 79,87  L 73,87  L 73,91  L 72,91  L 72,94  L 71,94  L 71,97  L 70,97  L 70,99  L 69,99  L 69,101  L 68,101  L 68,103  L 67,103  L 67,105  L 66,105  L 66,108  L 65,108  L 65,111  L 64,111  L 64,112  L 63,112  L 63,116  L 62,116  L 62,119  L 61,119  L 61,120  L 60,120  L 60,121  L 58,121  L 58,118  L 57,118  L 57,116  L 55,116  L 55,115  L 53,115  L 53,114  L 50,114  L 50,113  L 48,113  L 48,112  L 46,112  L 46,111  L 44,111  L 44,110  L 41,110  L 41,109  L 39,109  L 39,108  L 35,108  Z  M 57,125  L 57,124  L 58,124  L 58,125  Z  " style="fill:rgb(0, 0, 0); fill-opacity:1.000; stroke:none;" />
 <path d="  M 31,83  L 29,83  L 29,86  L 30,86  L 30,85  L 31,85  Z  " style="fill:rgb(0, 0, 0); fill-opacity:1.000; stroke:none;" />
 <path d="  M 79,58  L 78,58  L 78,59  L 79,59  L 79,66  L 78,66  L 78,67  L 79,67  L 79,77  L 80,77  L 80,78  L 81,78  L 81,79  L 83,79  L 83,78  L 84,78  L 84,79  L 85,79  L 85,65  L 86,65  L 86,64  L 85,64  L 85,61  L 86,61  L 86,58  L 85,58  L 85,57  L 86,57  L 86,54  L 85,54  L 85,53  L 86,53  L 86,50  L 85,50  L 85,49  L 86,49  L 86,29  L 85,29  L 85,24  L 84,24  L 84,18  L 83,18  L 83,14  L 82,14  L 82,13  L 83,13  L 83,12  L 82,12  L 82,7  L 81,7  L 81,4  L 80,4  L 80,2  L 77,2  L 77,4  L 76,4  L 76,6  L 75,6  L 75,13  L 76,13  L 76,21  L 77,21  L 77,25  L 78,25  L 78,28  L 75,28  L 75,29  L 69,29  L 69,28  L 68,28  L 68,25  L 67,25  L 67,3  L 66,3  L 66,0  L 62,0  L 62,2  L 61,2  L 61,6  L 62,6  L 62,24  L 63,24  L 63,60  L 62,60  L 62,61  L 63,61  L 63,64  L 62,64  L 62,65  L 63,65  L 63,68  L 64,68  L 64,69  L 67,69  L 67,65  L 68,65  L 68,51  L 69,51  L 69,50  L 68,50  L 68,49  L 69,49  L 69,45  L 70,45  L 70,44  L 69,44  L 69,41  L 70,41  L 70,36  L 71,36  L 71,35  L 76,35  L 76,34  L 77,34  L 77,35  L 78,35  L 78,36  L 79,36  L 79,46  L 78,46  L 78,47  L 79,47  Z  " style="fill:rgb(0, 0, 0); fill-opacity:1.000; stroke:none;" />
</svg>
