<?xml version="1.0" encoding="UTF-8" standalone="no"?>
<!DOCTYPE svg PUBLIC "-//W3C//DTD SVG 1.1//EN" 
  "http://www.w3.org/Graphics/SVG/1.1/DTD/svg11.dtd">
<svg width="102" height="146"
     xmlns="http://www.w3.org/2000/svg" version="1.1">
 <path d="  M 1,48  L 2,48  L 2,49  L 1,49  L 1,50  L 2,50  L 2,53  L 1,53  L 1,54  L 2,54  L 2,64  L 3,64  L 3,68  L 4,68  L 4,71  L 6,71  L 6,72  L 9,72  L 9,73  L 11,73  L 11,74  L 15,74  L 15,75  L 22,75  L 22,74  L 23,74  L 23,75  L 24,75  L 24,74  L 28,74  L 28,73  L 34,73  L 34,72  L 38,72  L 38,71  L 39,71  L 39,72  L 40,72  L 40,71  L 41,71  L 41,72  L 42,72  L 42,71  L 49,71  L 49,70  L 52,70  L 52,69  L 54,69  L 54,68  L 55,68  L 55,67  L 56,67  L 56,66  L 57,66  L 57,65  L 58,65  L 58,63  L 59,63  L 59,62  L 60,62  L 60,61  L 61,61  L 61,59  L 56,59  L 56,60  L 54,60  L 54,61  L 52,61  L 52,62  L 50,62  L 50,63  L 45,63  L 45,64  L 38,64  L 38,65  L 32,65  L 32,66  L 28,66  L 28,67  L 21,67  L 21,68  L 18,68  L 18,67  L 17,67  L 17,68  L 16,68  L 16,67  L 12,67  L 12,66  L 11,66  L 11,65  L 10,65  L 10,64  L 9,64  L 9,61  L 8,61  L 8,60  L 9,60  L 9,59  L 8,59  L 8,47  L 9,47  L 9,44  L 10,44  L 10,47  L 11,47  L 11,48  L 18,48  L 18,47  L 25,47  L 25,46  L 32,46  L 32,45  L 38,45  L 38,44  L 46,44  L 46,43  L 49,43  L 49,42  L 54,42  L 54,43  L 62,43  L 62,42  L 63,42  L 63,43  L 64,43  L 64,42  L 69,42  L 69,41  L 74,41  L 74,40  L 75,40  L 75,41  L 76,41  L 76,40  L 81,40  L 81,86  L 82,86  L 82,88  L 88,88  L 88,44  L 89,44  L 89,43  L 88,43  L 88,42  L 89,42  L 89,28  L 88,28  L 88,11  L 87,11  L 87,8  L 88,8  L 88,7  L 87,7  L 87,1  L 86,1  L 86,0  L 82,0  L 82,1  L 81,1  L 81,2  L 80,2  L 80,12  L 81,12  L 81,26  L 82,26  L 82,28  L 81,28  L 81,29  L 82,29  L 82,31  L 80,31  L 80,32  L 79,32  L 79,33  L 72,33  L 72,34  L 68,34  L 68,35  L 67,35  L 67,34  L 65,34  L 65,35  L 60,35  L 60,36  L 56,36  L 56,37  L 53,37  L 53,36  L 50,36  L 50,35  L 45,35  L 45,36  L 42,36  L 42,37  L 38,37  L 38,38  L 34,38  L 34,39  L 27,39  L 27,40  L 26,40  L 26,39  L 25,39  L 25,40  L 18,40  L 18,41  L 11,41  L 11,42  L 10,42  L 10,43  L 9,43  L 9,41  L 8,41  L 8,23  L 9,23  L 9,21  L 11,21  L 11,20  L 14,20  L 14,19  L 16,19  L 16,18  L 26,18  L 26,17  L 32,17  L 32,16  L 33,16  L 33,17  L 34,17  L 34,16  L 41,16  L 41,15  L 49,15  L 49,14  L 51,14  L 51,13  L 52,13  L 52,11  L 51,11  L 51,10  L 50,10  L 50,9  L 48,9  L 48,8  L 45,8  L 45,9  L 44,9  L 44,8  L 43,8  L 43,9  L 37,9  L 37,10  L 30,10  L 30,11  L 13,11  L 13,10  L 8,10  L 8,9  L 7,9  L 7,10  L 4,10  L 4,11  L 2,11  L 2,13  L 1,13  L 1,16  L 0,16  L 0,19  L 1,19  Z  " style="fill:rgb(0, 0, 0); fill-opacity:1.000; stroke:none;" />
 <path d="  M 25,122  L 26,122  L 26,128  L 27,128  L 27,137  L 28,137  L 28,140  L 29,140  L 29,142  L 30,142  L 30,145  L 32,145  L 32,146  L 58,146  L 58,145  L 64,145  L 64,144  L 74,144  L 74,143  L 75,143  L 75,144  L 76,144  L 76,143  L 88,143  L 88,142  L 100,142  L 100,141  L 102,141  L 102,134  L 95,134  L 95,135  L 85,135  L 85,136  L 82,136  L 82,135  L 81,135  L 81,136  L 73,136  L 73,137  L 71,137  L 71,136  L 70,136  L 70,137  L 60,137  L 60,138  L 56,138  L 56,139  L 45,139  L 45,140  L 42,140  L 42,139  L 41,139  L 41,140  L 38,140  L 38,139  L 36,139  L 36,137  L 35,137  L 35,132  L 34,132  L 34,131  L 35,131  L 35,128  L 34,128  L 34,123  L 33,123  L 33,117  L 32,117  L 32,95  L 30,95  L 30,94  L 28,94  L 28,95  L 26,95  L 26,99  L 25,99  Z  " style="fill:rgb(0, 0, 0); fill-opacity:1.000; stroke:none;" />
</svg>
