<?xml version="1.0" encoding="UTF-8" standalone="no"?>
<!DOCTYPE svg PUBLIC "-//W3C//DTD SVG 1.1//EN" 
  "http://www.w3.org/Graphics/SVG/1.1/DTD/svg11.dtd">
<svg width="103" height="145"
     xmlns="http://www.w3.org/2000/svg" version="1.1">
 <path d="  M 45,68  L 45,67  L 48,67  L 48,66  L 50,66  L 50,65  L 51,65  L 51,64  L 52,64  L 52,63  L 53,63  L 53,62  L 54,62  L 54,61  L 55,61  L 55,56  L 54,56  L 54,55  L 50,55  L 50,56  L 49,56  L 49,58  L 47,58  L 47,59  L 45,59  L 45,60  L 43,60  L 43,61  L 38,61  L 38,62  L 34,62  L 34,63  L 27,63  L 27,64  L 22,64  L 22,63  L 15,63  L 15,62  L 14,62  L 14,61  L 13,61  L 13,60  L 12,60  L 12,51  L 11,51  L 11,15  L 12,15  L 12,12  L 15,12  L 15,13  L 27,13  L 27,12  L 35,12  L 35,11  L 38,11  L 38,10  L 41,10  L 41,9  L 51,9  L 51,8  L 53,8  L 53,7  L 54,7  L 54,2  L 53,2  L 53,1  L 50,1  L 50,2  L 45,2  L 45,3  L 42,3  L 42,4  L 41,4  L 41,3  L 40,3  L 40,4  L 36,4  L 36,5  L 29,5  L 29,6  L 28,6  L 28,5  L 27,5  L 27,6  L 16,6  L 16,5  L 13,5  L 13,4  L 11,4  L 11,3  L 6,3  L 6,4  L 5,4  L 5,5  L 4,5  L 4,6  L 3,6  L 3,7  L 2,7  L 2,8  L 1,8  L 1,11  L 0,11  L 0,12  L 1,12  L 1,13  L 4,13  L 4,16  L 5,16  L 5,17  L 4,17  L 4,19  L 5,19  L 5,21  L 4,21  L 4,49  L 5,49  L 5,50  L 4,50  L 4,51  L 5,51  L 5,58  L 6,58  L 6,63  L 7,63  L 7,64  L 8,64  L 8,66  L 9,66  L 9,67  L 11,67  L 11,68  L 12,68  L 12,69  L 16,69  L 16,70  L 22,70  L 22,71  L 23,71  L 23,70  L 33,70  L 33,69  L 37,69  L 37,68  Z  " style="fill:rgb(0, 0, 0); fill-opacity:1.000; stroke:none;" />
 <path d="  M 22,34  L 22,35  L 19,35  L 19,34  L 18,34  L 18,35  L 14,35  L 14,36  L 13,36  L 13,37  L 14,37  L 14,40  L 15,40  L 15,41  L 17,41  L 17,42  L 20,42  L 20,41  L 27,41  L 27,40  L 28,40  L 28,41  L 29,41  L 29,40  L 33,40  L 33,39  L 42,39  L 42,38  L 43,38  L 43,39  L 44,39  L 44,38  L 48,38  L 48,37  L 51,37  L 51,36  L 53,36  L 53,35  L 58,35  L 58,34  L 63,34  L 63,33  L 69,33  L 69,32  L 71,32  L 71,33  L 73,33  L 73,32  L 77,32  L 77,33  L 78,33  L 78,68  L 79,68  L 79,71  L 84,71  L 84,67  L 85,67  L 85,66  L 84,66  L 84,63  L 85,63  L 85,62  L 84,62  L 84,59  L 85,59  L 85,58  L 84,58  L 84,55  L 85,55  L 85,54  L 84,54  L 84,51  L 85,51  L 85,50  L 84,50  L 84,47  L 85,47  L 85,46  L 84,46  L 84,43  L 85,43  L 85,42  L 84,42  L 84,2  L 82,2  L 82,1  L 77,1  L 77,9  L 78,9  L 78,10  L 77,10  L 77,11  L 78,11  L 78,12  L 77,12  L 77,13  L 78,13  L 78,14  L 77,14  L 77,15  L 78,15  L 78,18  L 77,18  L 77,19  L 78,19  L 78,22  L 77,22  L 77,25  L 70,25  L 70,26  L 67,26  L 67,25  L 66,25  L 66,26  L 62,26  L 62,27  L 60,27  L 60,28  L 56,28  L 56,29  L 54,29  L 54,30  L 51,30  L 51,31  L 46,31  L 46,32  L 40,32  L 40,33  L 34,33  L 34,34  Z  " style="fill:rgb(0, 0, 0); fill-opacity:1.000; stroke:none;" />
 <path d="  M 63,99  L 63,98  L 64,98  L 64,99  L 65,99  L 65,98  L 80,98  L 80,99  L 81,99  L 81,98  L 82,98  L 82,99  L 83,99  L 83,98  L 84,98  L 84,99  L 90,99  L 90,100  L 91,100  L 91,102  L 92,102  L 92,103  L 91,103  L 91,108  L 90,108  L 90,110  L 89,110  L 89,112  L 88,112  L 88,114  L 87,114  L 87,117  L 86,117  L 86,120  L 85,120  L 85,124  L 84,124  L 84,129  L 83,129  L 83,134  L 82,134  L 82,145  L 88,145  L 88,139  L 89,139  L 89,133  L 90,133  L 90,127  L 91,127  L 91,123  L 92,123  L 92,120  L 93,120  L 93,118  L 94,118  L 94,116  L 95,116  L 95,113  L 96,113  L 96,111  L 97,111  L 97,107  L 98,107  L 98,105  L 99,105  L 99,103  L 100,103  L 100,102  L 99,102  L 99,99  L 98,99  L 98,97  L 97,97  L 97,96  L 96,96  L 96,95  L 93,95  L 93,94  L 91,94  L 91,93  L 88,93  L 88,92  L 77,92  L 77,91  L 76,91  L 76,92  L 73,92  L 73,91  L 72,91  L 72,92  L 56,92  L 56,93  L 49,93  L 49,94  L 42,94  L 42,95  L 39,95  L 39,96  L 37,96  L 37,99  L 38,99  L 38,100  L 40,100  L 40,101  L 47,101  L 47,100  L 55,100  L 55,99  Z  " style="fill:rgb(0, 0, 0); fill-opacity:1.000; stroke:none;" />
 <path d="  M 103,0  L 100,0  L 100,1  L 96,1  L 96,17  L 97,17  L 97,20  L 96,20  L 96,21  L 97,21  L 97,24  L 96,24  L 96,25  L 97,25  L 97,28  L 96,28  L 96,29  L 97,29  L 97,76  L 98,76  L 98,79  L 103,79  Z  " style="fill:rgb(0, 0, 0); fill-opacity:1.000; stroke:none;" />
</svg>
