<?xml version="1.0" encoding="UTF-8" standalone="no"?>
<!DOCTYPE svg PUBLIC "-//W3C//DTD SVG 1.1//EN" 
  "http://www.w3.org/Graphics/SVG/1.1/DTD/svg11.dtd">
<svg width="107" height="138"
     xmlns="http://www.w3.org/2000/svg" version="1.1">
 <path d="  M 49,63  L 49,62  L 50,62  L 50,61  L 51,61  L 51,60  L 52,60  L 52,59  L 53,59  L 53,58  L 54,58  L 54,56  L 55,56  L 55,55  L 54,55  L 54,54  L 53,54  L 53,53  L 47,53  L 47,54  L 46,54  L 46,55  L 44,55  L 44,56  L 42,56  L 42,57  L 40,57  L 40,58  L 38,58  L 38,59  L 35,59  L 35,60  L 28,60  L 28,61  L 19,61  L 19,62  L 18,62  L 18,61  L 13,61  L 13,60  L 11,60  L 11,59  L 10,59  L 10,57  L 9,57  L 9,41  L 10,41  L 10,40  L 12,40  L 12,42  L 13,42  L 13,43  L 18,43  L 18,42  L 26,42  L 26,41  L 32,41  L 32,40  L 33,40  L 33,41  L 34,41  L 34,40  L 48,40  L 48,39  L 49,39  L 49,40  L 50,40  L 50,39  L 54,39  L 54,38  L 56,38  L 56,37  L 60,37  L 60,36  L 68,36  L 68,37  L 69,37  L 69,74  L 73,74  L 73,73  L 74,73  L 74,72  L 75,72  L 75,68  L 76,68  L 76,67  L 75,67  L 75,64  L 76,64  L 76,61  L 75,61  L 75,60  L 76,60  L 76,33  L 75,33  L 75,32  L 76,32  L 76,29  L 75,29  L 75,28  L 76,28  L 76,25  L 75,25  L 75,24  L 76,24  L 76,23  L 75,23  L 75,4  L 76,4  L 76,2  L 75,2  L 75,1  L 73,1  L 73,0  L 70,0  L 70,1  L 69,1  L 69,27  L 68,27  L 68,28  L 65,28  L 65,29  L 61,29  L 61,30  L 57,30  L 57,31  L 56,31  L 56,30  L 55,30  L 55,31  L 54,31  L 54,32  L 52,32  L 52,33  L 49,33  L 49,34  L 32,34  L 32,35  L 23,35  L 23,36  L 12,36  L 12,37  L 9,37  L 9,29  L 8,29  L 8,28  L 9,28  L 9,25  L 8,25  L 8,23  L 9,23  L 9,21  L 8,21  L 8,19  L 9,19  L 9,17  L 10,17  L 10,16  L 11,16  L 11,15  L 14,15  L 14,14  L 22,14  L 22,13  L 30,13  L 30,12  L 36,12  L 36,11  L 42,11  L 42,10  L 50,10  L 50,9  L 51,9  L 51,8  L 52,8  L 52,6  L 53,6  L 53,5  L 52,5  L 52,2  L 51,2  L 51,3  L 50,3  L 50,2  L 49,2  L 49,3  L 46,3  L 46,4  L 43,4  L 43,5  L 42,5  L 42,4  L 41,4  L 41,5  L 35,5  L 35,6  L 28,6  L 28,7  L 13,7  L 13,6  L 10,6  L 10,5  L 9,5  L 9,6  L 8,6  L 8,5  L 7,5  L 7,6  L 5,6  L 5,7  L 4,7  L 4,8  L 3,8  L 3,10  L 2,10  L 2,19  L 1,19  L 1,21  L 2,21  L 2,22  L 1,22  L 1,28  L 2,28  L 2,30  L 1,30  L 1,32  L 2,32  L 2,33  L 1,33  L 1,34  L 2,34  L 2,35  L 1,35  L 1,36  L 2,36  L 2,51  L 3,51  L 3,59  L 4,59  L 4,61  L 5,61  L 5,64  L 7,64  L 7,66  L 8,66  L 8,67  L 12,67  L 12,68  L 28,68  L 28,67  L 35,67  L 35,66  L 38,66  L 38,65  L 41,65  L 41,64  L 46,64  L 46,63  L 47,63  L 47,64  L 48,64  L 48,63  Z  " style="fill:rgb(0, 0, 0); fill-opacity:1.000; stroke:none;" />
 <path d="  M 92,135  L 92,134  L 93,134  L 93,135  L 94,135  L 94,134  L 104,134  L 104,133  L 106,133  L 106,132  L 107,132  L 107,126  L 99,126  L 99,127  L 96,127  L 96,126  L 95,126  L 95,127  L 91,127  L 91,128  L 89,128  L 89,127  L 87,127  L 87,128  L 84,128  L 84,127  L 83,127  L 83,128  L 80,128  L 80,127  L 79,127  L 79,128  L 76,128  L 76,129  L 62,129  L 62,130  L 56,130  L 56,131  L 39,131  L 39,129  L 38,129  L 38,126  L 37,126  L 37,117  L 36,117  L 36,110  L 35,110  L 35,94  L 36,94  L 36,90  L 30,90  L 30,91  L 28,91  L 28,112  L 29,112  L 29,116  L 30,116  L 30,124  L 31,124  L 31,130  L 32,130  L 32,133  L 33,133  L 33,134  L 34,134  L 34,136  L 36,136  L 36,137  L 37,137  L 37,138  L 58,138  L 58,137  L 66,137  L 66,136  L 80,136  L 80,135  Z  " style="fill:rgb(0, 0, 0); fill-opacity:1.000; stroke:none;" />
 <path d="  M 87,58  L 88,58  L 88,59  L 87,59  L 87,62  L 88,62  L 88,63  L 87,63  L 87,66  L 88,66  L 88,68  L 87,68  L 87,70  L 88,70  L 88,72  L 87,72  L 87,74  L 88,74  L 88,76  L 87,76  L 87,78  L 88,78  L 88,79  L 89,79  L 89,80  L 90,80  L 90,79  L 91,79  L 91,80  L 92,80  L 92,79  L 93,79  L 93,78  L 94,78  L 94,6  L 93,6  L 93,4  L 92,4  L 92,3  L 88,3  L 88,4  L 87,4  Z  " style="fill:rgb(0, 0, 0); fill-opacity:1.000; stroke:none;" />
</svg>
