<?xml version="1.0" encoding="UTF-8" standalone="no"?>
<!DOCTYPE svg PUBLIC "-//W3C//DTD SVG 1.1//EN" 
  "http://www.w3.org/Graphics/SVG/1.1/DTD/svg11.dtd">
<svg width="101" height="125"
     xmlns="http://www.w3.org/2000/svg" version="1.1">
 <path d="  M 7,89  L 6,89  L 6,90  L 7,90  L 7,95  L 8,95  L 8,96  L 9,96  L 9,97  L 10,97  L 10,99  L 14,99  L 14,100  L 22,100  L 22,99  L 26,99  L 26,98  L 30,98  L 30,97  L 32,97  L 32,96  L 36,96  L 36,95  L 40,95  L 40,94  L 43,94  L 43,93  L 47,93  L 47,92  L 51,92  L 51,91  L 54,91  L 54,90  L 56,90  L 56,89  L 59,89  L 59,88  L 61,88  L 61,87  L 62,87  L 62,86  L 64,86  L 64,85  L 66,85  L 66,84  L 67,84  L 67,83  L 70,83  L 70,82  L 69,82  L 69,80  L 67,80  L 67,81  L 62,81  L 62,82  L 58,82  L 58,83  L 53,83  L 53,84  L 52,84  L 52,85  L 49,85  L 49,86  L 46,86  L 46,87  L 42,87  L 42,88  L 38,88  L 38,89  L 35,89  L 35,90  L 30,90  L 30,91  L 26,91  L 26,92  L 23,92  L 23,93  L 16,93  L 16,92  L 15,92  L 15,91  L 14,91  L 14,90  L 13,90  L 13,85  L 12,85  L 12,84  L 13,84  L 13,83  L 12,83  L 12,82  L 13,82  L 13,81  L 12,81  L 12,78  L 13,78  L 13,77  L 12,77  L 12,74  L 13,74  L 13,73  L 12,73  L 12,63  L 13,63  L 13,35  L 14,35  L 14,31  L 15,31  L 15,30  L 16,30  L 16,31  L 18,31  L 18,30  L 20,30  L 20,29  L 24,29  L 24,28  L 25,28  L 25,29  L 28,29  L 28,28  L 32,28  L 32,27  L 33,27  L 33,28  L 35,28  L 35,27  L 40,27  L 40,26  L 42,26  L 42,27  L 43,27  L 43,26  L 48,26  L 48,25  L 51,25  L 51,26  L 52,26  L 52,25  L 53,25  L 53,26  L 55,26  L 55,25  L 57,25  L 57,20  L 56,20  L 56,19  L 55,19  L 55,18  L 43,18  L 43,19  L 40,19  L 40,20  L 34,20  L 34,21  L 30,21  L 30,22  L 21,22  L 21,23  L 20,23  L 20,22  L 17,22  L 17,23  L 16,23  L 16,22  L 10,22  L 10,23  L 9,23  L 9,22  L 8,22  L 8,23  L 5,23  L 5,24  L 4,24  L 4,23  L 3,23  L 3,24  L 1,24  L 1,25  L 0,25  L 0,27  L 1,27  L 1,28  L 6,28  L 6,29  L 7,29  L 7,34  L 6,34  L 6,49  L 5,49  L 5,51  L 6,51  L 6,52  L 5,52  L 5,55  L 6,55  L 6,56  L 5,56  L 5,68  L 6,68  L 6,70  L 5,70  L 5,71  L 6,71  L 6,87  L 7,87  Z  " style="fill:rgb(0, 0, 0); fill-opacity:1.000; stroke:none;" />
 <path d="  M 60,65  L 60,64  L 57,64  L 57,65  L 58,65  L 58,66  L 59,66  L 59,68  L 60,68  L 60,69  L 61,69  L 61,71  L 68,71  L 68,72  L 73,72  L 73,71  L 74,71  L 74,72  L 75,72  L 75,71  L 80,71  L 80,70  L 81,70  L 81,71  L 83,71  L 83,70  L 86,70  L 86,71  L 87,71  L 87,70  L 88,70  L 88,69  L 89,69  L 89,70  L 91,70  L 91,69  L 92,69  L 92,67  L 94,67  L 94,71  L 95,71  L 95,73  L 94,73  L 94,75  L 95,75  L 95,78  L 94,78  L 94,79  L 95,79  L 95,82  L 94,82  L 94,83  L 95,83  L 95,86  L 94,86  L 94,88  L 95,88  L 95,89  L 94,89  L 94,92  L 95,92  L 95,93  L 94,93  L 94,100  L 95,100  L 95,101  L 94,101  L 94,124  L 95,124  L 95,125  L 100,125  L 100,124  L 101,124  L 101,20  L 100,20  L 100,9  L 99,9  L 99,2  L 98,2  L 98,1  L 93,1  L 93,2  L 92,2  L 92,13  L 93,13  L 93,21  L 94,21  L 94,35  L 95,35  L 95,37  L 94,37  L 94,39  L 93,39  L 93,38  L 89,38  L 89,39  L 88,39  L 88,38  L 87,38  L 87,39  L 81,39  L 81,40  L 80,40  L 80,39  L 79,39  L 79,40  L 70,40  L 70,41  L 68,41  L 68,40  L 64,40  L 64,39  L 60,39  L 60,38  L 58,38  L 58,41  L 59,41  L 59,42  L 58,42  L 58,43  L 59,43  L 59,44  L 58,44  L 58,45  L 59,45  L 59,46  L 58,46  L 58,47  L 57,47  L 57,48  L 55,48  L 55,49  L 54,49  L 54,51  L 53,51  L 53,50  L 52,50  L 52,51  L 51,51  L 51,52  L 49,52  L 49,53  L 46,53  L 46,54  L 43,54  L 43,55  L 40,55  L 40,56  L 37,56  L 37,57  L 34,57  L 34,58  L 29,58  L 29,59  L 28,59  L 28,58  L 27,58  L 27,59  L 23,59  L 23,60  L 15,60  L 15,61  L 14,61  L 14,65  L 15,65  L 15,66  L 26,66  L 26,65  L 32,65  L 32,64  L 36,64  L 36,63  L 39,63  L 39,62  L 42,62  L 42,61  L 44,61  L 44,60  L 48,60  L 48,59  L 54,59  L 54,60  L 55,60  L 55,61  L 56,61  L 56,59  L 57,59  L 57,57  L 56,57  L 56,51  L 57,51  L 57,49  L 60,49  L 60,48  L 61,48  L 61,49  L 66,49  L 66,48  L 68,48  L 68,47  L 76,47  L 76,46  L 86,46  L 86,45  L 87,45  L 87,46  L 94,46  L 94,47  L 95,47  L 95,58  L 94,58  L 94,60  L 92,60  L 92,59  L 91,59  L 91,60  L 89,60  L 89,61  L 86,61  L 86,62  L 83,62  L 83,63  L 81,63  L 81,64  L 79,64  L 79,65  L 75,65  L 75,66  L 64,66  L 64,65  Z  " style="fill:rgb(0, 0, 0); fill-opacity:1.000; stroke:none;" />
</svg>
