<?xml version="1.0" encoding="UTF-8" standalone="no"?>
<!DOCTYPE svg PUBLIC "-//W3C//DTD SVG 1.1//EN" 
  "http://www.w3.org/Graphics/SVG/1.1/DTD/svg11.dtd">
<svg width="105" height="148"
     xmlns="http://www.w3.org/2000/svg" version="1.1">
 <path d="  M 3,60  L 3,66  L 4,66  L 4,67  L 5,67  L 5,69  L 6,69  L 6,70  L 7,70  L 7,71  L 9,71  L 9,72  L 14,72  L 14,73  L 21,73  L 21,72  L 29,72  L 29,71  L 35,71  L 35,70  L 40,70  L 40,69  L 42,69  L 42,68  L 43,68  L 43,67  L 44,67  L 44,66  L 45,66  L 45,64  L 46,64  L 46,61  L 45,61  L 45,62  L 41,62  L 41,63  L 38,63  L 38,64  L 32,64  L 32,65  L 28,65  L 28,66  L 12,66  L 12,65  L 10,65  L 10,63  L 9,63  L 9,59  L 8,59  L 8,47  L 9,47  L 9,44  L 10,44  L 10,45  L 11,45  L 11,46  L 12,46  L 12,47  L 14,47  L 14,46  L 21,46  L 21,45  L 22,45  L 22,46  L 23,46  L 23,45  L 27,45  L 27,44  L 33,44  L 33,43  L 45,43  L 45,44  L 46,44  L 46,45  L 47,45  L 47,47  L 48,47  L 48,48  L 50,48  L 50,49  L 51,49  L 51,50  L 54,50  L 54,49  L 59,49  L 59,48  L 60,48  L 60,49  L 62,49  L 62,48  L 72,48  L 72,47  L 74,47  L 74,48  L 75,48  L 75,52  L 74,52  L 74,53  L 75,53  L 75,56  L 74,56  L 74,57  L 75,57  L 75,58  L 74,58  L 74,59  L 75,59  L 75,60  L 74,60  L 74,61  L 75,61  L 75,64  L 74,64  L 74,65  L 75,65  L 75,68  L 74,68  L 74,69  L 75,69  L 75,87  L 76,87  L 76,89  L 80,89  L 80,88  L 81,88  L 81,57  L 82,57  L 82,56  L 81,56  L 81,53  L 82,53  L 82,52  L 81,52  L 81,21  L 80,21  L 80,14  L 79,14  L 79,13  L 80,13  L 80,12  L 79,12  L 79,4  L 78,4  L 78,2  L 77,2  L 77,0  L 74,0  L 74,1  L 73,1  L 73,2  L 72,2  L 72,7  L 73,7  L 73,16  L 74,16  L 74,21  L 75,21  L 75,24  L 63,24  L 63,25  L 62,25  L 62,24  L 60,24  L 60,25  L 59,25  L 59,24  L 57,24  L 57,23  L 55,23  L 55,22  L 53,22  L 53,18  L 52,18  L 52,16  L 51,16  L 51,14  L 50,14  L 50,13  L 49,13  L 49,10  L 47,10  L 47,9  L 43,9  L 43,8  L 38,8  L 38,9  L 29,9  L 29,10  L 15,10  L 15,9  L 6,9  L 6,10  L 4,10  L 4,12  L 3,12  L 3,13  L 2,13  L 2,14  L 1,14  L 1,17  L 2,17  L 2,18  L 1,18  L 1,30  L 0,30  L 0,31  L 1,31  L 1,34  L 0,34  L 0,35  L 1,35  L 1,38  L 0,38  L 0,39  L 1,39  L 1,47  L 2,47  L 2,48  L 1,48  L 1,50  L 2,50  L 2,60  Z  M 75,34  L 74,34  L 74,40  L 70,40  L 70,41  L 66,41  L 66,42  L 60,42  L 60,43  L 55,43  L 55,42  L 52,42  L 52,41  L 49,41  L 49,40  L 47,40  L 47,39  L 46,39  L 46,38  L 45,38  L 45,37  L 46,37  L 46,36  L 47,36  L 47,33  L 49,33  L 49,32  L 51,32  L 51,31  L 53,31  L 53,32  L 55,32  L 55,31  L 72,31  L 72,30  L 74,30  L 74,31  L 75,31  Z  M 11,39  L 11,40  L 8,40  L 8,38  L 7,38  L 7,37  L 8,37  L 8,35  L 7,35  L 7,23  L 8,23  L 8,21  L 9,21  L 9,19  L 10,19  L 10,18  L 11,18  L 11,17  L 17,17  L 17,16  L 43,16  L 43,17  L 44,17  L 44,16  L 46,16  L 46,17  L 47,17  L 47,18  L 48,18  L 48,19  L 49,19  L 49,25  L 48,25  L 48,26  L 49,26  L 49,28  L 48,28  L 48,30  L 47,30  L 47,31  L 49,31  L 49,32  L 46,32  L 46,33  L 45,33  L 45,34  L 41,34  L 41,35  L 38,35  L 38,36  L 32,36  L 32,37  L 29,37  L 29,38  L 22,38  L 22,39  Z  " style="fill:rgb(0, 0, 0); fill-opacity:1.000; stroke:none;" />
 <path d="  M 74,111  L 75,111  L 75,110  L 74,110  L 74,109  L 75,109  L 75,106  L 76,106  L 76,102  L 77,102  L 77,101  L 76,101  L 76,97  L 75,97  L 75,96  L 72,96  L 72,98  L 71,98  L 71,100  L 70,100  L 70,103  L 69,103  L 69,105  L 68,105  L 68,107  L 67,107  L 67,109  L 66,109  L 66,111  L 65,111  L 65,114  L 64,114  L 64,118  L 63,118  L 63,122  L 62,122  L 62,124  L 61,124  L 61,126  L 58,126  L 58,125  L 57,125  L 57,123  L 56,123  L 56,122  L 54,122  L 54,121  L 50,121  L 50,120  L 48,120  L 48,119  L 46,119  L 46,118  L 43,118  L 43,117  L 40,117  L 40,116  L 37,116  L 37,115  L 35,115  L 35,114  L 34,114  L 34,111  L 35,111  L 35,109  L 36,109  L 36,108  L 37,108  L 37,107  L 38,107  L 38,105  L 39,105  L 39,103  L 40,103  L 40,102  L 41,102  L 41,101  L 42,101  L 42,99  L 43,99  L 43,97  L 44,97  L 44,93  L 43,93  L 43,92  L 42,92  L 42,91  L 38,91  L 38,99  L 37,99  L 37,100  L 36,100  L 36,102  L 35,102  L 35,103  L 34,103  L 34,105  L 32,105  L 32,106  L 31,106  L 31,107  L 30,107  L 30,109  L 29,109  L 29,110  L 28,110  L 28,112  L 27,112  L 27,113  L 26,113  L 26,115  L 25,115  L 25,116  L 24,116  L 24,118  L 23,118  L 23,119  L 22,119  L 22,120  L 21,120  L 21,121  L 20,121  L 20,122  L 19,122  L 19,124  L 17,124  L 17,126  L 15,126  L 15,128  L 13,128  L 13,130  L 12,130  L 12,132  L 11,132  L 11,134  L 10,134  L 10,137  L 11,137  L 11,139  L 13,139  L 13,140  L 14,140  L 14,139  L 15,139  L 15,138  L 16,138  L 16,136  L 17,136  L 17,134  L 18,134  L 18,132  L 19,132  L 19,131  L 20,131  L 20,130  L 21,130  L 21,129  L 22,129  L 22,128  L 23,128  L 23,127  L 24,127  L 24,126  L 25,126  L 25,124  L 26,124  L 26,123  L 27,123  L 27,122  L 28,122  L 28,121  L 29,121  L 29,120  L 30,120  L 30,121  L 31,121  L 31,120  L 32,120  L 32,121  L 35,121  L 35,122  L 38,122  L 38,123  L 41,123  L 41,124  L 45,124  L 45,125  L 47,125  L 47,126  L 49,126  L 49,127  L 51,127  L 51,128  L 52,128  L 52,129  L 53,129  L 53,132  L 54,132  L 54,134  L 53,134  L 53,136  L 52,136  L 52,137  L 51,137  L 51,139  L 50,139  L 50,141  L 49,141  L 49,144  L 48,144  L 48,146  L 47,146  L 47,147  L 49,147  L 49,148  L 54,148  L 54,147  L 55,147  L 55,143  L 56,143  L 56,142  L 57,142  L 57,140  L 58,140  L 58,139  L 59,139  L 59,137  L 60,137  L 60,136  L 61,136  L 61,135  L 62,135  L 62,134  L 63,134  L 63,132  L 64,132  L 64,131  L 65,131  L 65,129  L 66,129  L 66,127  L 67,127  L 67,125  L 68,125  L 68,123  L 69,123  L 69,121  L 72,121  L 72,122  L 73,122  L 73,123  L 75,123  L 75,124  L 76,124  L 76,125  L 77,125  L 77,126  L 79,126  L 79,127  L 81,127  L 81,128  L 83,128  L 83,129  L 85,129  L 85,130  L 87,130  L 87,131  L 89,131  L 89,132  L 90,132  L 90,133  L 91,133  L 91,134  L 94,134  L 94,135  L 97,135  L 97,136  L 101,136  L 101,137  L 105,137  L 105,132  L 104,132  L 104,131  L 102,131  L 102,130  L 99,130  L 99,129  L 96,129  L 96,128  L 94,128  L 94,127  L 92,127  L 92,126  L 90,126  L 90,125  L 88,125  L 88,124  L 86,124  L 86,123  L 85,123  L 85,122  L 83,122  L 83,121  L 82,121  L 82,120  L 80,120  L 80,119  L 79,119  L 79,118  L 78,118  L 78,117  L 76,117  L 76,116  L 75,116  L 75,115  L 74,115  Z  M 57,130  L 58,130  L 58,131  L 57,131  Z  " style="fill:rgb(0, 0, 0); fill-opacity:1.000; stroke:none;" />
 <path d="  M 28,91  L 28,92  L 27,92  L 27,93  L 29,93  L 29,94  L 31,94  L 31,91  L 32,91  L 32,90  L 31,90  L 31,89  L 27,89  L 27,91  Z  " style="fill:rgb(0, 0, 0); fill-opacity:1.000; stroke:none;" />
</svg>
