<?xml version="1.0" encoding="UTF-8" standalone="no"?>
<!DOCTYPE svg PUBLIC "-//W3C//DTD SVG 1.1//EN" 
  "http://www.w3.org/Graphics/SVG/1.1/DTD/svg11.dtd">
<svg width="106" height="103"
     xmlns="http://www.w3.org/2000/svg" version="1.1">
 <path d="  M 4,81  L 5,81  L 5,82  L 6,82  L 6,84  L 7,84  L 7,85  L 8,85  L 8,86  L 23,86  L 23,85  L 28,85  L 28,84  L 32,84  L 32,83  L 36,83  L 36,82  L 39,82  L 39,81  L 42,81  L 42,80  L 46,80  L 46,79  L 49,79  L 49,78  L 51,78  L 51,77  L 53,77  L 53,76  L 54,76  L 54,75  L 56,75  L 56,74  L 58,74  L 58,69  L 50,69  L 50,70  L 47,70  L 47,71  L 46,71  L 46,72  L 45,72  L 45,73  L 43,73  L 43,74  L 41,74  L 41,75  L 38,75  L 38,76  L 37,76  L 37,77  L 32,77  L 32,78  L 26,78  L 26,79  L 20,79  L 20,80  L 16,80  L 16,79  L 15,79  L 15,80  L 14,80  L 14,79  L 11,79  L 11,78  L 10,78  L 10,77  L 9,77  L 9,73  L 8,73  L 8,58  L 9,58  L 9,56  L 11,56  L 11,55  L 16,55  L 16,54  L 23,54  L 23,53  L 35,53  L 35,52  L 42,52  L 42,51  L 43,51  L 43,49  L 44,49  L 44,48  L 42,48  L 42,46  L 34,46  L 34,47  L 27,47  L 27,48  L 26,48  L 26,47  L 25,47  L 25,48  L 22,48  L 22,49  L 21,49  L 21,48  L 20,48  L 20,49  L 13,49  L 13,50  L 11,50  L 11,49  L 9,49  L 9,43  L 8,43  L 8,40  L 9,40  L 9,32  L 10,32  L 10,31  L 9,31  L 9,30  L 10,30  L 10,27  L 11,27  L 11,25  L 14,25  L 14,24  L 16,24  L 16,23  L 29,23  L 29,24  L 30,24  L 30,23  L 31,23  L 31,24  L 39,24  L 39,25  L 40,25  L 40,24  L 43,24  L 43,23  L 46,23  L 46,22  L 48,22  L 48,21  L 51,21  L 51,20  L 52,20  L 52,18  L 53,18  L 53,19  L 54,19  L 54,15  L 53,15  L 53,14  L 51,14  L 51,15  L 48,15  L 48,16  L 43,16  L 43,17  L 35,17  L 35,18  L 34,18  L 34,17  L 32,17  L 32,18  L 29,18  L 29,17  L 28,17  L 28,18  L 26,18  L 26,17  L 15,17  L 15,18  L 7,18  L 7,19  L 4,19  L 4,20  L 2,20  L 2,21  L 1,21  L 1,20  L 0,20  L 0,22  L 2,22  L 2,24  L 3,24  L 3,36  L 2,36  L 2,46  L 3,46  L 3,47  L 2,47  L 2,48  L 3,48  L 3,75  L 4,75  Z  " style="fill:rgb(0, 0, 0); fill-opacity:1.000; stroke:none;" />
 <path d="  M 66,59  L 66,58  L 76,58  L 76,59  L 77,59  L 77,70  L 78,70  L 78,71  L 77,71  L 77,74  L 78,74  L 78,75  L 77,75  L 77,87  L 78,87  L 78,89  L 79,89  L 79,88  L 80,88  L 80,89  L 84,89  L 84,35  L 83,35  L 83,29  L 82,29  L 82,20  L 81,20  L 81,19  L 82,19  L 82,14  L 81,14  L 81,8  L 77,8  L 77,9  L 76,9  L 76,11  L 75,11  L 75,21  L 74,21  L 74,22  L 75,22  L 75,29  L 76,29  L 76,31  L 77,31  L 77,34  L 75,34  L 75,35  L 67,35  L 67,36  L 66,36  L 66,35  L 64,35  L 64,36  L 58,36  L 58,35  L 57,35  L 57,36  L 52,36  L 52,37  L 51,37  L 51,38  L 50,38  L 50,40  L 49,40  L 49,42  L 51,42  L 51,43  L 52,43  L 52,42  L 57,42  L 57,41  L 60,41  L 60,42  L 61,42  L 61,41  L 72,41  L 72,42  L 73,42  L 73,41  L 74,41  L 74,42  L 76,42  L 76,43  L 77,43  L 77,47  L 76,47  L 76,49  L 75,49  L 75,50  L 68,50  L 68,51  L 63,51  L 63,52  L 61,52  L 61,53  L 57,53  L 57,54  L 53,54  L 53,55  L 47,55  L 47,57  L 48,57  L 48,60  L 49,60  L 49,61  L 52,61  L 52,62  L 53,62  L 53,61  L 56,61  L 56,60  L 61,60  L 61,59  Z  " style="fill:rgb(0, 0, 0); fill-opacity:1.000; stroke:none;" />
 <path d="  M 99,31  L 99,32  L 100,32  L 100,33  L 99,33  L 99,34  L 100,34  L 100,41  L 99,41  L 99,42  L 100,42  L 100,49  L 99,49  L 99,50  L 100,50  L 100,53  L 99,53  L 99,54  L 100,54  L 100,57  L 99,57  L 99,58  L 100,58  L 100,65  L 99,65  L 99,66  L 100,66  L 100,102  L 101,102  L 101,103  L 105,103  L 105,102  L 106,102  L 106,20  L 105,20  L 105,11  L 104,11  L 104,5  L 103,5  L 103,1  L 101,1  L 101,0  L 97,0  L 97,1  L 96,1  L 96,3  L 97,3  L 97,6  L 98,6  L 98,12  L 99,12  L 99,28  L 100,28  L 100,29  L 99,29  L 99,30  L 100,30  L 100,31  Z  " style="fill:rgb(0, 0, 0); fill-opacity:1.000; stroke:none;" />
</svg>
