<?xml version="1.0" encoding="UTF-8" standalone="no"?>
<!DOCTYPE svg PUBLIC "-//W3C//DTD SVG 1.1//EN" 
  "http://www.w3.org/Graphics/SVG/1.1/DTD/svg11.dtd">
<svg width="108" height="178"
     xmlns="http://www.w3.org/2000/svg" version="1.1">
 <path d="  M 61,30  L 61,31  L 60,31  L 60,30  L 59,30  L 59,31  L 58,31  L 58,30  L 57,30  L 57,31  L 45,31  L 45,32  L 33,32  L 33,31  L 32,31  L 32,30  L 33,30  L 33,20  L 34,20  L 34,17  L 33,17  L 33,14  L 34,14  L 34,13  L 37,13  L 37,12  L 58,12  L 58,13  L 59,13  L 59,12  L 64,12  L 64,13  L 65,13  L 65,12  L 72,12  L 72,13  L 79,13  L 79,12  L 81,12  L 81,11  L 82,11  L 82,10  L 83,10  L 83,6  L 82,6  L 82,5  L 81,5  L 81,4  L 53,4  L 53,3  L 52,3  L 52,4  L 51,4  L 51,3  L 36,3  L 36,4  L 27,4  L 27,3  L 26,3  L 26,2  L 25,2  L 25,1  L 24,1  L 24,0  L 20,0  L 20,5  L 21,5  L 21,9  L 22,9  L 22,11  L 23,11  L 23,13  L 24,13  L 24,17  L 25,17  L 25,19  L 24,19  L 24,21  L 25,21  L 25,22  L 24,22  L 24,25  L 25,25  L 25,26  L 24,26  L 24,38  L 25,38  L 25,44  L 26,44  L 26,45  L 25,45  L 25,49  L 26,49  L 26,50  L 25,50  L 25,52  L 26,52  L 26,58  L 27,58  L 27,60  L 28,60  L 28,62  L 29,62  L 29,63  L 30,63  L 30,64  L 31,64  L 31,65  L 37,65  L 37,66  L 38,66  L 38,65  L 47,65  L 47,64  L 53,64  L 53,66  L 52,66  L 52,102  L 51,102  L 51,103  L 49,103  L 49,104  L 48,104  L 48,103  L 47,103  L 47,104  L 46,104  L 46,103  L 45,103  L 45,104  L 38,104  L 38,105  L 37,105  L 37,104  L 36,104  L 36,105  L 33,105  L 33,106  L 27,106  L 27,107  L 26,107  L 26,106  L 24,106  L 24,107  L 21,107  L 21,106  L 20,106  L 20,107  L 17,107  L 17,106  L 16,106  L 16,107  L 7,107  L 7,108  L 6,108  L 6,107  L 5,107  L 5,108  L 3,108  L 3,109  L 2,109  L 2,110  L 1,110  L 1,112  L 0,112  L 0,113  L 1,113  L 1,115  L 4,115  L 4,116  L 7,116  L 7,115  L 17,115  L 17,114  L 18,114  L 18,115  L 19,115  L 19,114  L 20,114  L 20,115  L 21,115  L 21,114  L 28,114  L 28,115  L 29,115  L 29,114  L 32,114  L 32,113  L 40,113  L 40,112  L 45,112  L 45,111  L 51,111  L 51,110  L 57,110  L 57,109  L 66,109  L 66,108  L 67,108  L 67,109  L 68,109  L 68,108  L 75,108  L 75,107  L 76,107  L 76,108  L 77,108  L 77,107  L 87,107  L 87,106  L 97,106  L 97,105  L 105,105  L 105,104  L 107,104  L 107,103  L 108,103  L 108,97  L 107,97  L 107,96  L 100,96  L 100,97  L 97,97  L 97,98  L 92,98  L 92,99  L 83,99  L 83,100  L 82,100  L 82,99  L 81,99  L 81,100  L 67,100  L 67,101  L 66,101  L 66,100  L 65,100  L 65,101  L 60,101  L 60,96  L 59,96  L 59,95  L 60,95  L 60,92  L 59,92  L 59,91  L 60,91  L 60,88  L 59,88  L 59,87  L 60,87  L 60,64  L 62,64  L 62,63  L 68,63  L 68,64  L 70,64  L 70,63  L 72,63  L 72,64  L 73,64  L 73,63  L 79,63  L 79,62  L 81,62  L 81,61  L 83,61  L 83,55  L 84,55  L 84,54  L 83,54  L 83,53  L 82,53  L 82,52  L 81,52  L 81,53  L 80,53  L 80,52  L 79,52  L 79,53  L 74,53  L 74,54  L 71,54  L 71,55  L 69,55  L 69,56  L 68,56  L 68,57  L 56,57  L 56,58  L 43,58  L 43,59  L 42,59  L 42,58  L 41,58  L 41,59  L 36,59  L 36,58  L 34,58  L 34,57  L 33,57  L 33,50  L 32,50  L 32,42  L 33,42  L 33,41  L 34,41  L 34,40  L 38,40  L 38,39  L 53,39  L 53,38  L 60,38  L 60,37  L 61,37  L 61,38  L 63,38  L 63,37  L 77,37  L 77,36  L 78,36  L 78,37  L 81,37  L 81,36  L 83,36  L 83,35  L 84,35  L 84,33  L 85,33  L 85,29  L 84,29  L 84,28  L 83,28  L 83,29  L 71,29  L 71,30  Z  " style="fill:rgb(0, 0, 0); fill-opacity:1.000; stroke:none;" />
 <path d="  M 31,151  L 32,151  L 32,150  L 31,150  L 31,149  L 32,149  L 32,148  L 31,148  L 31,147  L 32,147  L 32,146  L 31,146  L 31,145  L 32,145  L 32,144  L 31,144  L 31,143  L 32,143  L 32,142  L 31,142  L 31,141  L 32,141  L 32,140  L 31,140  L 31,137  L 32,137  L 32,136  L 31,136  L 31,135  L 32,135  L 32,134  L 31,134  L 31,133  L 32,133  L 32,132  L 31,132  L 31,129  L 32,129  L 32,123  L 33,123  L 33,122  L 32,122  L 32,121  L 26,121  L 26,122  L 25,122  L 25,123  L 24,123  L 24,124  L 23,124  L 23,165  L 24,165  L 24,166  L 23,166  L 23,169  L 24,169  L 24,175  L 25,175  L 25,176  L 26,176  L 26,177  L 28,177  L 28,178  L 39,178  L 39,177  L 45,177  L 45,176  L 47,176  L 47,177  L 48,177  L 48,176  L 51,176  L 51,175  L 57,175  L 57,174  L 58,174  L 58,175  L 61,175  L 61,174  L 73,174  L 73,173  L 82,173  L 82,172  L 85,172  L 85,171  L 89,171  L 89,170  L 93,170  L 93,169  L 96,169  L 96,168  L 99,168  L 99,167  L 101,167  L 101,166  L 102,166  L 102,167  L 103,167  L 103,166  L 106,166  L 106,165  L 108,165  L 108,160  L 107,160  L 107,159  L 105,159  L 105,158  L 102,158  L 102,159  L 99,159  L 99,160  L 95,160  L 95,161  L 89,161  L 89,162  L 83,162  L 83,163  L 79,163  L 79,164  L 76,164  L 76,163  L 75,163  L 75,164  L 66,164  L 66,165  L 65,165  L 65,164  L 63,164  L 63,165  L 61,165  L 61,164  L 60,164  L 60,165  L 57,165  L 57,166  L 56,166  L 56,165  L 55,165  L 55,166  L 50,166  L 50,167  L 49,167  L 49,166  L 48,166  L 48,167  L 47,167  L 47,168  L 39,168  L 39,169  L 36,169  L 36,168  L 35,168  L 35,169  L 34,169  L 34,168  L 32,168  L 32,166  L 31,166  Z  " style="fill:rgb(0, 0, 0); fill-opacity:1.000; stroke:none;" />
</svg>
