<?xml version="1.0" encoding="UTF-8" standalone="no"?>
<!DOCTYPE svg PUBLIC "-//W3C//DTD SVG 1.1//EN" 
  "http://www.w3.org/Graphics/SVG/1.1/DTD/svg11.dtd">
<svg width="102" height="174"
     xmlns="http://www.w3.org/2000/svg" version="1.1">
 <path d="  M 37,99  L 38,99  L 38,98  L 56,98  L 56,97  L 63,97  L 63,96  L 66,96  L 66,97  L 67,97  L 67,96  L 82,96  L 82,95  L 83,95  L 83,96  L 84,96  L 84,95  L 85,95  L 85,96  L 86,96  L 86,95  L 94,95  L 94,94  L 95,94  L 95,95  L 96,95  L 96,94  L 100,94  L 100,93  L 101,93  L 101,92  L 102,92  L 102,86  L 100,86  L 100,85  L 99,85  L 99,86  L 96,86  L 96,87  L 91,87  L 91,88  L 79,88  L 79,89  L 78,89  L 78,88  L 75,88  L 75,89  L 74,89  L 74,88  L 71,88  L 71,89  L 68,89  L 68,88  L 67,88  L 67,89  L 64,89  L 64,88  L 63,88  L 63,89  L 57,89  L 57,90  L 55,90  L 55,89  L 54,89  L 54,77  L 55,77  L 55,76  L 54,76  L 54,73  L 55,73  L 55,72  L 54,72  L 54,71  L 55,71  L 55,70  L 54,70  L 54,69  L 55,69  L 55,68  L 54,68  L 54,66  L 55,66  L 55,62  L 56,62  L 56,61  L 63,61  L 63,60  L 69,60  L 69,59  L 72,59  L 72,58  L 73,58  L 73,57  L 75,57  L 75,56  L 76,56  L 76,55  L 77,55  L 77,50  L 76,50  L 76,49  L 75,49  L 75,50  L 69,50  L 69,51  L 67,51  L 67,52  L 64,52  L 64,53  L 58,53  L 58,54  L 54,54  L 54,55  L 53,55  L 53,54  L 52,54  L 52,55  L 48,55  L 48,56  L 40,56  L 40,57  L 31,57  L 31,56  L 30,56  L 30,53  L 29,53  L 29,42  L 30,42  L 30,41  L 32,41  L 32,40  L 45,40  L 45,39  L 54,39  L 54,38  L 62,38  L 62,37  L 71,37  L 71,36  L 73,36  L 73,35  L 75,35  L 75,33  L 76,33  L 76,32  L 77,32  L 77,29  L 75,29  L 75,28  L 70,28  L 70,29  L 64,29  L 64,30  L 60,30  L 60,31  L 59,31  L 59,30  L 56,30  L 56,31  L 52,31  L 52,32  L 42,32  L 42,33  L 40,33  L 40,32  L 38,32  L 38,33  L 31,33  L 31,32  L 30,32  L 30,25  L 31,25  L 31,24  L 30,24  L 30,15  L 31,15  L 31,14  L 33,14  L 33,13  L 48,13  L 48,14  L 54,14  L 54,15  L 65,15  L 65,16  L 72,16  L 72,15  L 73,15  L 73,13  L 74,13  L 74,12  L 73,12  L 73,10  L 72,10  L 72,9  L 71,9  L 71,8  L 65,8  L 65,7  L 57,7  L 57,6  L 50,6  L 50,5  L 42,5  L 42,4  L 39,4  L 39,5  L 36,5  L 36,4  L 35,4  L 35,5  L 23,5  L 23,4  L 22,4  L 22,3  L 21,3  L 21,2  L 20,2  L 20,1  L 18,1  L 18,0  L 17,0  L 17,6  L 18,6  L 18,9  L 20,9  L 20,10  L 21,10  L 21,15  L 22,15  L 22,53  L 23,53  L 23,57  L 24,57  L 24,60  L 25,60  L 25,61  L 26,61  L 26,62  L 28,62  L 28,63  L 31,63  L 31,64  L 35,64  L 35,63  L 41,63  L 41,62  L 44,62  L 44,61  L 46,61  L 46,62  L 47,62  L 47,79  L 46,79  L 46,80  L 47,80  L 47,87  L 46,87  L 46,90  L 45,90  L 45,91  L 43,91  L 43,90  L 42,90  L 42,91  L 33,91  L 33,92  L 27,92  L 27,93  L 23,93  L 23,94  L 15,94  L 15,95  L 3,95  L 3,96  L 1,96  L 1,103  L 9,103  L 9,102  L 16,102  L 16,101  L 24,101  L 24,100  L 26,100  L 26,101  L 27,101  L 27,100  L 30,100  L 30,99  L 36,99  L 36,98  L 37,98  Z  " style="fill:rgb(0, 0, 0); fill-opacity:1.000; stroke:none;" />
 <path d="  M 37,167  L 37,166  L 35,166  L 35,165  L 33,165  L 33,164  L 31,164  L 31,162  L 29,162  L 29,160  L 28,160  L 28,157  L 27,157  L 27,149  L 28,149  L 28,146  L 29,146  L 29,143  L 30,143  L 30,141  L 31,141  L 31,140  L 32,140  L 32,138  L 33,138  L 33,137  L 34,137  L 34,135  L 35,135  L 35,134  L 37,134  L 37,133  L 38,133  L 38,132  L 39,132  L 39,131  L 40,131  L 40,130  L 42,130  L 42,129  L 43,129  L 43,128  L 47,128  L 47,127  L 48,127  L 48,128  L 57,128  L 57,129  L 63,129  L 63,130  L 67,130  L 67,131  L 69,131  L 69,132  L 71,132  L 71,133  L 72,133  L 72,134  L 73,134  L 73,136  L 74,136  L 74,137  L 75,137  L 75,140  L 76,140  L 76,143  L 77,143  L 77,150  L 76,150  L 76,153  L 75,153  L 75,156  L 74,156  L 74,158  L 73,158  L 73,161  L 72,161  L 72,162  L 70,162  L 70,163  L 69,163  L 69,164  L 67,164  L 67,165  L 65,165  L 65,166  L 61,166  L 61,167  L 60,167  L 60,166  L 59,166  L 59,167  L 56,167  L 56,166  L 55,166  L 55,167  L 50,167  L 50,168  L 49,168  L 49,167  L 46,167  L 46,168  L 44,168  L 44,167  Z  M 22,165  L 23,165  L 23,167  L 24,167  L 24,168  L 26,168  L 26,170  L 28,170  L 28,171  L 30,171  L 30,172  L 32,172  L 32,173  L 34,173  L 34,174  L 64,174  L 64,173  L 68,173  L 68,172  L 71,172  L 71,171  L 73,171  L 73,170  L 75,170  L 75,169  L 76,169  L 76,168  L 77,168  L 77,167  L 78,167  L 78,166  L 79,166  L 79,164  L 80,164  L 80,163  L 81,163  L 81,161  L 82,161  L 82,157  L 83,157  L 83,154  L 84,154  L 84,149  L 85,149  L 85,142  L 84,142  L 84,140  L 85,140  L 85,139  L 84,139  L 84,137  L 83,137  L 83,132  L 82,132  L 82,131  L 80,131  L 80,130  L 79,130  L 79,128  L 77,128  L 77,127  L 76,127  L 76,126  L 74,126  L 74,125  L 72,125  L 72,124  L 70,124  L 70,123  L 66,123  L 66,122  L 64,122  L 64,121  L 60,121  L 60,120  L 55,120  L 55,119  L 53,119  L 53,118  L 49,118  L 49,117  L 47,117  L 47,118  L 46,118  L 46,117  L 42,117  L 42,118  L 39,118  L 39,119  L 38,119  L 38,120  L 37,120  L 37,121  L 36,121  L 36,122  L 35,122  L 35,123  L 34,123  L 34,125  L 33,125  L 33,126  L 32,126  L 32,128  L 30,128  L 30,130  L 29,130  L 29,131  L 28,131  L 28,132  L 27,132  L 27,133  L 26,133  L 26,135  L 25,135  L 25,136  L 24,136  L 24,137  L 23,137  L 23,140  L 22,140  L 22,141  L 21,141  L 21,143  L 20,143  L 20,148  L 19,148  L 19,149  L 20,149  L 20,150  L 19,150  L 19,155  L 20,155  L 20,159  L 21,159  L 21,163  L 22,163  Z  " style="fill:rgb(0, 0, 0); fill-opacity:1.000; stroke:none;" />
</svg>
