<?xml version="1.0" encoding="UTF-8" standalone="no"?>
<!DOCTYPE svg PUBLIC "-//W3C//DTD SVG 1.1//EN" 
  "http://www.w3.org/Graphics/SVG/1.1/DTD/svg11.dtd">
<svg width="106" height="131"
     xmlns="http://www.w3.org/2000/svg" version="1.1">
 <path d="  M 1,45  L 2,45  L 2,48  L 3,48  L 3,51  L 6,51  L 6,52  L 15,52  L 15,53  L 16,53  L 16,52  L 24,52  L 24,53  L 25,53  L 25,68  L 26,68  L 26,69  L 25,69  L 25,71  L 26,71  L 26,76  L 25,76  L 25,77  L 15,77  L 15,78  L 9,78  L 9,79  L 6,79  L 6,80  L 5,80  L 5,79  L 4,79  L 4,80  L 1,80  L 1,81  L 0,81  L 0,86  L 1,86  L 1,85  L 2,85  L 2,86  L 5,86  L 5,87  L 6,87  L 6,86  L 9,86  L 9,85  L 13,85  L 13,84  L 20,84  L 20,83  L 31,83  L 31,84  L 34,84  L 34,83  L 35,83  L 35,84  L 36,84  L 36,83  L 46,83  L 46,82  L 57,82  L 57,81  L 63,81  L 63,80  L 64,80  L 64,77  L 63,77  L 63,75  L 60,75  L 60,74  L 56,74  L 56,75  L 50,75  L 50,76  L 39,76  L 39,77  L 37,77  L 37,76  L 36,76  L 36,77  L 33,77  L 33,76  L 32,76  L 32,70  L 31,70  L 31,69  L 32,69  L 32,59  L 31,59  L 31,51  L 32,51  L 32,50  L 38,50  L 38,49  L 45,49  L 45,48  L 49,48  L 49,47  L 52,47  L 52,46  L 54,46  L 54,45  L 56,45  L 56,44  L 57,44  L 57,43  L 58,43  L 58,40  L 57,40  L 57,39  L 54,39  L 54,40  L 50,40  L 50,41  L 46,41  L 46,42  L 44,42  L 44,43  L 36,43  L 36,44  L 32,44  L 32,45  L 31,45  L 31,44  L 30,44  L 30,45  L 22,45  L 22,46  L 11,46  L 11,47  L 9,47  L 9,45  L 8,45  L 8,42  L 7,42  L 7,39  L 8,39  L 8,38  L 7,38  L 7,36  L 8,36  L 8,32  L 9,32  L 9,30  L 10,30  L 10,32  L 12,32  L 12,31  L 18,31  L 18,30  L 19,30  L 19,31  L 20,31  L 20,30  L 21,30  L 21,31  L 22,31  L 22,30  L 26,30  L 26,29  L 27,29  L 27,30  L 28,30  L 28,29  L 31,29  L 31,28  L 34,28  L 34,27  L 38,27  L 38,26  L 42,26  L 42,25  L 45,25  L 45,24  L 47,24  L 47,23  L 48,23  L 48,22  L 51,22  L 51,21  L 52,21  L 52,18  L 51,18  L 51,17  L 45,17  L 45,18  L 43,18  L 43,19  L 41,19  L 41,20  L 37,20  L 37,21  L 33,21  L 33,22  L 29,22  L 29,23  L 24,23  L 24,24  L 15,24  L 15,25  L 10,25  L 10,27  L 9,27  L 9,25  L 8,25  L 8,17  L 9,17  L 9,16  L 8,16  L 8,15  L 9,15  L 9,14  L 10,14  L 10,13  L 12,13  L 12,12  L 15,12  L 15,11  L 21,11  L 21,10  L 28,10  L 28,9  L 38,9  L 38,8  L 40,8  L 40,9  L 49,9  L 49,8  L 50,8  L 50,6  L 49,6  L 49,3  L 47,3  L 47,2  L 46,2  L 46,1  L 36,1  L 36,2  L 25,2  L 25,3  L 22,3  L 22,2  L 21,2  L 21,3  L 13,3  L 13,4  L 12,4  L 12,3  L 11,3  L 11,4  L 8,4  L 8,5  L 6,5  L 6,6  L 5,6  L 5,7  L 4,7  L 4,9  L 3,9  L 3,10  L 2,10  L 2,11  L 1,11  Z  " style="fill:rgb(0, 0, 0); fill-opacity:1.000; stroke:none;" />
 <path d="  M 51,124  L 51,125  L 50,125  L 50,124  L 49,124  L 49,125  L 40,125  L 40,124  L 38,124  L 38,123  L 37,123  L 37,117  L 36,117  L 36,105  L 37,105  L 37,104  L 36,104  L 36,103  L 37,103  L 37,97  L 35,97  L 35,96  L 31,96  L 31,97  L 30,97  L 30,98  L 29,98  L 29,100  L 28,100  L 28,102  L 29,102  L 29,119  L 30,119  L 30,124  L 31,124  L 31,128  L 32,128  L 32,130  L 34,130  L 34,131  L 58,131  L 58,130  L 59,130  L 59,131  L 61,131  L 61,130  L 72,130  L 72,129  L 86,129  L 86,128  L 87,128  L 87,127  L 88,127  L 88,125  L 89,125  L 89,123  L 88,123  L 88,122  L 87,122  L 87,121  L 83,121  L 83,122  L 75,122  L 75,123  L 74,123  L 74,122  L 73,122  L 73,123  L 70,123  L 70,122  L 69,122  L 69,123  L 62,123  L 62,124  Z  " style="fill:rgb(0, 0, 0); fill-opacity:1.000; stroke:none;" />
 <path d="  M 69,69  L 70,69  L 70,85  L 71,85  L 71,86  L 72,86  L 72,87  L 74,87  L 74,88  L 75,88  L 75,87  L 76,87  L 76,86  L 77,86  L 77,78  L 76,78  L 76,75  L 77,75  L 77,74  L 76,74  L 76,63  L 77,63  L 77,62  L 76,62  L 76,54  L 75,54  L 75,53  L 76,53  L 76,52  L 75,52  L 75,51  L 76,51  L 76,50  L 75,50  L 75,49  L 76,49  L 76,48  L 77,48  L 77,47  L 82,47  L 82,46  L 105,46  L 105,45  L 106,45  L 106,40  L 105,40  L 105,39  L 80,39  L 80,40  L 79,40  L 79,39  L 77,39  L 77,40  L 76,40  L 76,38  L 75,38  L 75,37  L 74,37  L 74,35  L 75,35  L 75,28  L 74,28  L 74,22  L 73,22  L 73,16  L 72,16  L 72,10  L 71,10  L 71,7  L 69,7  L 69,6  L 68,6  L 68,5  L 67,5  L 67,6  L 65,6  L 65,11  L 66,11  L 66,14  L 67,14  L 67,19  L 68,19  L 68,20  L 67,20  L 67,21  L 68,21  L 68,29  L 69,29  L 69,30  L 68,30  L 68,31  L 69,31  L 69,34  L 68,34  L 68,35  L 69,35  L 69,38  L 68,38  L 68,39  L 69,39  L 69,40  L 68,40  L 68,41  L 69,41  L 69,42  L 68,42  L 68,43  L 69,43  L 69,67  L 70,67  L 70,68  L 69,68  Z  " style="fill:rgb(0, 0, 0); fill-opacity:1.000; stroke:none;" />
</svg>
