<?xml version="1.0" encoding="UTF-8" standalone="no"?>
<!DOCTYPE svg PUBLIC "-//W3C//DTD SVG 1.1//EN" 
  "http://www.w3.org/Graphics/SVG/1.1/DTD/svg11.dtd">
<svg width="106" height="162"
     xmlns="http://www.w3.org/2000/svg" version="1.1">
 <path d="  M 20,92  L 20,91  L 26,91  L 26,90  L 27,90  L 27,91  L 28,91  L 28,90  L 37,90  L 37,89  L 47,89  L 47,88  L 66,88  L 66,87  L 72,87  L 72,86  L 76,86  L 76,85  L 78,85  L 78,84  L 81,84  L 81,82  L 82,82  L 82,76  L 81,76  L 81,75  L 82,75  L 82,74  L 80,74  L 80,73  L 79,73  L 79,75  L 77,75  L 77,76  L 76,76  L 76,77  L 74,77  L 74,78  L 71,78  L 71,79  L 68,79  L 68,80  L 62,80  L 62,81  L 52,81  L 52,82  L 48,82  L 48,79  L 47,79  L 47,74  L 48,74  L 48,73  L 47,73  L 47,71  L 48,71  L 48,69  L 47,69  L 47,68  L 48,68  L 48,65  L 47,65  L 47,64  L 48,64  L 48,62  L 47,62  L 47,57  L 48,57  L 48,55  L 49,55  L 49,54  L 50,54  L 50,53  L 53,53  L 53,54  L 54,54  L 54,53  L 59,53  L 59,52  L 64,52  L 64,51  L 65,51  L 65,50  L 70,50  L 70,49  L 71,49  L 71,50  L 72,50  L 72,49  L 75,49  L 75,48  L 76,48  L 76,47  L 80,47  L 80,46  L 82,46  L 82,45  L 83,45  L 83,43  L 82,43  L 82,41  L 78,41  L 78,40  L 77,40  L 77,39  L 72,39  L 72,40  L 71,40  L 71,41  L 68,41  L 68,42  L 65,42  L 65,43  L 62,43  L 62,44  L 60,44  L 60,45  L 58,45  L 58,46  L 57,46  L 57,45  L 56,45  L 56,46  L 53,46  L 53,47  L 50,47  L 50,48  L 46,48  L 46,49  L 38,49  L 38,50  L 29,50  L 29,51  L 17,51  L 17,50  L 16,50  L 16,45  L 15,45  L 15,44  L 16,44  L 16,43  L 15,43  L 15,40  L 16,40  L 16,36  L 18,36  L 18,35  L 23,35  L 23,34  L 38,34  L 38,33  L 39,33  L 39,34  L 40,34  L 40,33  L 46,33  L 46,32  L 50,32  L 50,31  L 56,31  L 56,30  L 60,30  L 60,29  L 65,29  L 65,28  L 66,28  L 66,27  L 67,27  L 67,26  L 68,26  L 68,22  L 67,22  L 67,21  L 65,21  L 65,20  L 64,20  L 64,21  L 63,21  L 63,22  L 60,22  L 60,23  L 57,23  L 57,24  L 53,24  L 53,25  L 44,25  L 44,26  L 33,26  L 33,27  L 32,27  L 32,26  L 29,26  L 29,27  L 28,27  L 28,26  L 27,26  L 27,27  L 26,27  L 26,26  L 25,26  L 25,27  L 18,27  L 18,28  L 17,28  L 17,27  L 16,27  L 16,22  L 17,22  L 17,15  L 18,15  L 18,14  L 19,14  L 19,13  L 20,13  L 20,12  L 23,12  L 23,11  L 28,11  L 28,10  L 38,10  L 38,9  L 39,9  L 39,10  L 40,10  L 40,9  L 45,9  L 45,10  L 46,10  L 46,9  L 47,9  L 47,10  L 54,10  L 54,11  L 60,11  L 60,12  L 62,12  L 62,11  L 63,11  L 63,10  L 64,10  L 64,9  L 63,9  L 63,7  L 62,7  L 62,6  L 61,6  L 61,5  L 60,5  L 60,4  L 58,4  L 58,3  L 56,3  L 56,2  L 52,2  L 52,1  L 39,1  L 39,2  L 23,2  L 23,3  L 19,3  L 19,4  L 14,4  L 14,5  L 11,5  L 11,6  L 9,6  L 9,7  L 8,7  L 8,8  L 7,8  L 7,9  L 4,9  L 4,10  L 3,10  L 3,11  L 2,11  L 2,13  L 3,13  L 3,14  L 7,14  L 7,15  L 8,15  L 8,18  L 9,18  L 9,29  L 8,29  L 8,30  L 9,30  L 9,31  L 8,31  L 8,34  L 9,34  L 9,35  L 8,35  L 8,42  L 9,42  L 9,43  L 8,43  L 8,44  L 9,44  L 9,45  L 8,45  L 8,46  L 9,46  L 9,54  L 10,54  L 10,55  L 11,55  L 11,56  L 12,56  L 12,57  L 13,57  L 13,58  L 30,58  L 30,57  L 34,57  L 34,56  L 37,56  L 37,55  L 39,55  L 39,56  L 40,56  L 40,83  L 32,83  L 32,84  L 25,84  L 25,85  L 17,85  L 17,86  L 14,86  L 14,85  L 13,85  L 13,86  L 11,86  L 11,87  L 5,87  L 5,88  L 2,88  L 2,89  L 1,89  L 1,91  L 0,91  L 0,94  L 2,94  L 2,95  L 5,95  L 5,94  L 9,94  L 9,93  L 13,93  L 13,92  Z  " style="fill:rgb(0, 0, 0); fill-opacity:1.000; stroke:none;" />
 <path d="  M 89,113  L 89,112  L 86,112  L 86,111  L 81,111  L 81,110  L 70,110  L 70,109  L 63,109  L 63,110  L 60,110  L 60,111  L 58,111  L 58,112  L 57,112  L 57,113  L 55,113  L 55,114  L 54,114  L 54,115  L 53,115  L 53,116  L 52,116  L 52,118  L 51,118  L 51,119  L 50,119  L 50,120  L 49,120  L 49,121  L 48,121  L 48,123  L 47,123  L 47,124  L 46,124  L 46,126  L 45,126  L 45,128  L 44,128  L 44,129  L 43,129  L 43,131  L 41,131  L 41,133  L 40,133  L 40,134  L 39,134  L 39,136  L 38,136  L 38,137  L 37,137  L 37,139  L 36,139  L 36,141  L 35,141  L 35,142  L 34,142  L 34,145  L 33,145  L 33,146  L 34,146  L 34,150  L 35,150  L 35,154  L 34,154  L 34,155  L 36,155  L 36,156  L 37,156  L 37,157  L 40,157  L 40,158  L 45,158  L 45,159  L 48,159  L 48,160  L 54,160  L 54,161  L 57,161  L 57,162  L 77,162  L 77,161  L 78,161  L 78,160  L 82,160  L 82,159  L 84,159  L 84,158  L 86,158  L 86,157  L 89,157  L 89,156  L 92,156  L 92,155  L 94,155  L 94,154  L 95,154  L 95,153  L 96,153  L 96,152  L 97,152  L 97,151  L 99,151  L 99,150  L 100,150  L 100,149  L 101,149  L 101,148  L 102,148  L 102,146  L 103,146  L 103,145  L 104,145  L 104,143  L 105,143  L 105,136  L 106,136  L 106,130  L 105,130  L 105,125  L 104,125  L 104,123  L 103,123  L 103,121  L 102,121  L 102,119  L 101,119  L 101,118  L 100,118  L 100,117  L 99,117  L 99,116  L 98,116  L 98,115  L 96,115  L 96,114  L 93,114  L 93,113  Z  M 90,148  L 90,149  L 88,149  L 88,150  L 85,150  L 85,151  L 83,151  L 83,152  L 81,152  L 81,153  L 79,153  L 79,154  L 74,154  L 74,155  L 67,155  L 67,156  L 66,156  L 66,155  L 58,155  L 58,154  L 54,154  L 54,153  L 49,153  L 49,152  L 44,152  L 44,151  L 43,151  L 43,150  L 42,150  L 42,149  L 41,149  L 41,148  L 42,148  L 42,147  L 43,147  L 43,142  L 44,142  L 44,140  L 45,140  L 45,138  L 46,138  L 46,136  L 47,136  L 47,135  L 48,135  L 48,134  L 49,134  L 49,132  L 50,132  L 50,131  L 51,131  L 51,130  L 52,130  L 52,129  L 53,129  L 53,128  L 54,128  L 54,127  L 55,127  L 55,126  L 56,126  L 56,125  L 57,125  L 57,124  L 58,124  L 58,123  L 59,123  L 59,122  L 61,122  L 61,121  L 62,121  L 62,120  L 64,120  L 64,119  L 66,119  L 66,118  L 70,118  L 70,117  L 71,117  L 71,118  L 74,118  L 74,117  L 75,117  L 75,118  L 82,118  L 82,119  L 88,119  L 88,120  L 91,120  L 91,121  L 93,121  L 93,122  L 95,122  L 95,123  L 96,123  L 96,124  L 97,124  L 97,126  L 98,126  L 98,128  L 99,128  L 99,139  L 98,139  L 98,140  L 97,140  L 97,142  L 96,142  L 96,144  L 95,144  L 95,146  L 93,146  L 93,147  L 92,147  L 92,148  Z  " style="fill:rgb(0, 0, 0); fill-opacity:1.000; stroke:none;" />
 <path d="  M 103,58  L 104,58  L 104,57  L 103,57  L 103,49  L 102,49  L 102,48  L 103,48  L 103,47  L 102,47  L 102,42  L 101,42  L 101,38  L 100,38  L 100,33  L 99,33  L 99,28  L 98,28  L 98,24  L 97,24  L 97,21  L 96,21  L 96,16  L 95,16  L 95,9  L 94,9  L 94,5  L 93,5  L 93,4  L 92,4  L 92,3  L 87,3  L 87,4  L 86,4  L 86,9  L 87,9  L 87,12  L 88,12  L 88,14  L 89,14  L 89,20  L 90,20  L 90,24  L 91,24  L 91,28  L 92,28  L 92,33  L 93,33  L 93,37  L 94,37  L 94,40  L 95,40  L 95,46  L 96,46  L 96,54  L 97,54  L 97,72  L 98,72  L 98,93  L 99,93  L 99,106  L 100,106  L 100,108  L 101,108  L 101,110  L 102,110  L 102,111  L 104,111  L 104,110  L 105,110  L 105,109  L 106,109  L 106,97  L 105,97  L 105,85  L 104,85  L 104,84  L 105,84  L 105,83  L 104,83  L 104,61  L 103,61  Z  " style="fill:rgb(0, 0, 0); fill-opacity:1.000; stroke:none;" />
</svg>
