<?xml version="1.0" encoding="UTF-8" standalone="no"?>
<!DOCTYPE svg PUBLIC "-//W3C//DTD SVG 1.1//EN" 
  "http://www.w3.org/Graphics/SVG/1.1/DTD/svg11.dtd">
<svg width="105" height="180"
     xmlns="http://www.w3.org/2000/svg" version="1.1">
 <path d="  M 79,128  L 79,139  L 78,139  L 78,143  L 77,143  L 77,147  L 76,147  L 76,148  L 77,148  L 77,149  L 76,149  L 76,162  L 75,162  L 75,166  L 74,166  L 74,169  L 73,169  L 73,173  L 72,173  L 72,180  L 78,180  L 78,179  L 79,179  L 79,178  L 80,178  L 80,176  L 81,176  L 81,175  L 82,175  L 82,172  L 83,172  L 83,170  L 84,170  L 84,164  L 85,164  L 85,162  L 86,162  L 86,160  L 85,160  L 85,159  L 86,159  L 86,148  L 87,148  L 87,147  L 86,147  L 86,144  L 87,144  L 87,134  L 88,134  L 88,133  L 87,133  L 87,132  L 88,132  L 88,129  L 87,129  L 87,126  L 88,126  L 88,125  L 87,125  L 87,124  L 86,124  L 86,123  L 85,123  L 85,121  L 84,121  L 84,120  L 83,120  L 83,119  L 81,119  L 81,118  L 78,118  L 78,117  L 77,117  L 77,118  L 74,118  L 74,117  L 73,117  L 73,118  L 70,118  L 70,117  L 69,117  L 69,118  L 66,118  L 66,117  L 65,117  L 65,118  L 62,118  L 62,117  L 61,117  L 61,82  L 62,82  L 62,81  L 63,81  L 63,80  L 70,80  L 70,81  L 71,81  L 71,80  L 94,80  L 94,79  L 96,79  L 96,80  L 97,80  L 97,79  L 101,79  L 101,78  L 104,78  L 104,77  L 105,77  L 105,70  L 103,70  L 103,69  L 98,69  L 98,70  L 94,70  L 94,71  L 90,71  L 90,72  L 78,72  L 78,73  L 74,73  L 74,74  L 73,74  L 73,73  L 72,73  L 72,74  L 71,74  L 71,73  L 70,73  L 70,74  L 67,74  L 67,73  L 66,73  L 66,74  L 63,74  L 63,73  L 62,73  L 62,74  L 59,74  L 59,73  L 58,73  L 58,74  L 55,74  L 55,73  L 54,73  L 54,74  L 44,74  L 44,75  L 38,75  L 38,76  L 34,76  L 34,77  L 28,77  L 28,78  L 17,78  L 17,79  L 1,79  L 1,80  L 0,80  L 0,84  L 1,84  L 1,85  L 3,85  L 3,86  L 6,86  L 6,87  L 7,87  L 7,86  L 20,86  L 20,85  L 27,85  L 27,84  L 34,84  L 34,83  L 38,83  L 38,82  L 46,82  L 46,81  L 53,81  L 53,119  L 47,119  L 47,120  L 36,120  L 36,121  L 35,121  L 35,120  L 34,120  L 34,121  L 27,121  L 27,122  L 26,122  L 26,121  L 25,121  L 25,122  L 19,122  L 19,123  L 16,123  L 16,128  L 17,128  L 17,129  L 19,129  L 19,130  L 25,130  L 25,129  L 29,129  L 29,128  L 38,128  L 38,127  L 39,127  L 39,128  L 40,128  L 40,127  L 55,127  L 55,126  L 75,126  L 75,127  L 77,127  L 77,128  Z  " style="fill:rgb(0, 0, 0); fill-opacity:1.000; stroke:none;" />
 <path d="  M 78,35  L 78,34  L 79,34  L 79,32  L 80,32  L 80,27  L 74,27  L 74,28  L 73,28  L 73,27  L 72,27  L 72,28  L 62,28  L 62,29  L 61,29  L 61,28  L 58,28  L 58,29  L 48,29  L 48,30  L 47,30  L 47,29  L 46,29  L 46,30  L 45,30  L 45,29  L 44,29  L 44,30  L 42,30  L 42,29  L 40,29  L 40,30  L 35,30  L 35,29  L 32,29  L 32,28  L 33,28  L 33,26  L 32,26  L 32,24  L 33,24  L 33,21  L 32,21  L 32,20  L 33,20  L 33,19  L 32,19  L 32,15  L 33,15  L 33,14  L 35,14  L 35,13  L 55,13  L 55,14  L 56,14  L 56,13  L 57,13  L 57,14  L 69,14  L 69,15  L 73,15  L 73,14  L 75,14  L 75,13  L 76,13  L 76,12  L 77,12  L 77,9  L 76,9  L 76,8  L 75,8  L 75,7  L 73,7  L 73,6  L 71,6  L 71,7  L 66,7  L 66,6  L 56,6  L 56,5  L 55,5  L 55,6  L 54,6  L 54,5  L 48,5  L 48,4  L 34,4  L 34,5  L 27,5  L 27,6  L 26,6  L 26,5  L 25,5  L 25,4  L 24,4  L 24,3  L 23,3  L 23,1  L 22,1  L 22,0  L 19,0  L 19,2  L 18,2  L 18,6  L 19,6  L 19,8  L 20,8  L 20,9  L 19,9  L 19,10  L 20,10  L 20,11  L 21,11  L 21,13  L 22,13  L 22,14  L 23,14  L 23,42  L 24,42  L 24,51  L 25,51  L 25,54  L 26,54  L 26,57  L 27,57  L 27,59  L 29,59  L 29,60  L 30,60  L 30,61  L 38,61  L 38,60  L 47,60  L 47,59  L 56,59  L 56,58  L 66,58  L 66,57  L 71,57  L 71,56  L 75,56  L 75,55  L 76,55  L 76,54  L 78,54  L 78,53  L 79,53  L 79,52  L 80,52  L 80,48  L 81,48  L 81,47  L 80,47  L 80,46  L 75,46  L 75,47  L 72,47  L 72,48  L 69,48  L 69,49  L 66,49  L 66,50  L 65,50  L 65,49  L 64,49  L 64,50  L 58,50  L 58,51  L 54,51  L 54,52  L 53,52  L 53,51  L 52,51  L 52,52  L 49,52  L 49,53  L 48,53  L 48,52  L 46,52  L 46,53  L 40,53  L 40,54  L 36,54  L 36,53  L 33,53  L 33,49  L 32,49  L 32,42  L 31,42  L 31,38  L 34,38  L 34,37  L 53,37  L 53,36  L 64,36  L 64,35  L 65,35  L 65,36  L 66,36  L 66,35  Z  " style="fill:rgb(0, 0, 0); fill-opacity:1.000; stroke:none;" />
</svg>
