<?xml version="1.0" encoding="UTF-8" standalone="no"?>
<!DOCTYPE svg PUBLIC "-//W3C//DTD SVG 1.1//EN" 
  "http://www.w3.org/Graphics/SVG/1.1/DTD/svg11.dtd">
<svg width="105" height="134"
     xmlns="http://www.w3.org/2000/svg" version="1.1">
 <path d="  M 4,80  L 4,81  L 2,81  L 2,83  L 1,83  L 1,84  L 0,84  L 0,85  L 1,85  L 1,86  L 0,86  L 0,87  L 3,87  L 3,88  L 5,88  L 5,87  L 8,87  L 8,86  L 11,86  L 11,85  L 15,85  L 15,84  L 19,84  L 19,83  L 24,83  L 24,82  L 29,82  L 29,81  L 34,81  L 34,80  L 43,80  L 43,81  L 45,81  L 45,83  L 44,83  L 44,85  L 43,85  L 43,89  L 44,89  L 44,90  L 43,90  L 43,91  L 44,91  L 44,106  L 43,106  L 43,112  L 42,112  L 42,115  L 41,115  L 41,120  L 40,120  L 40,122  L 41,122  L 41,123  L 40,123  L 40,130  L 45,130  L 45,129  L 47,129  L 47,127  L 46,127  L 46,126  L 47,126  L 47,121  L 48,121  L 48,118  L 49,118  L 49,114  L 50,114  L 50,109  L 51,109  L 51,108  L 50,108  L 50,107  L 51,107  L 51,101  L 52,101  L 52,100  L 51,100  L 51,99  L 52,99  L 52,98  L 51,98  L 51,97  L 52,97  L 52,96  L 51,96  L 51,89  L 50,89  L 50,83  L 48,83  L 48,82  L 47,82  L 47,81  L 48,81  L 48,80  L 49,80  L 49,79  L 50,79  L 50,78  L 53,78  L 53,77  L 61,77  L 61,76  L 68,76  L 68,75  L 73,75  L 73,74  L 76,74  L 76,73  L 79,73  L 79,72  L 80,72  L 80,73  L 81,73  L 81,72  L 84,72  L 84,71  L 87,71  L 87,72  L 91,72  L 91,71  L 92,71  L 92,68  L 91,68  L 91,66  L 90,66  L 90,65  L 87,65  L 87,64  L 82,64  L 82,65  L 81,65  L 81,66  L 79,66  L 79,67  L 76,67  L 76,68  L 74,68  L 74,69  L 67,69  L 67,70  L 61,70  L 61,71  L 53,71  L 53,72  L 44,72  L 44,73  L 37,73  L 37,74  L 28,74  L 28,75  L 24,75  L 24,76  L 19,76  L 19,77  L 18,77  L 18,76  L 17,76  L 17,77  L 15,77  L 15,78  L 12,78  L 12,79  L 9,79  L 9,80  Z  " style="fill:rgb(0, 0, 0); fill-opacity:1.000; stroke:none;" />
 <path d="  M 21,20  L 21,19  L 25,19  L 25,18  L 29,18  L 29,17  L 37,17  L 37,16  L 39,16  L 39,17  L 40,17  L 40,16  L 45,16  L 45,15  L 53,15  L 53,14  L 59,14  L 59,15  L 60,15  L 60,14  L 63,14  L 63,15  L 64,15  L 64,14  L 65,14  L 65,12  L 66,12  L 66,10  L 67,10  L 67,9  L 68,9  L 68,5  L 64,5  L 64,6  L 58,6  L 58,7  L 53,7  L 53,8  L 46,8  L 46,9  L 45,9  L 45,8  L 44,8  L 44,9  L 40,9  L 40,10  L 39,10  L 39,9  L 38,9  L 38,10  L 34,10  L 34,11  L 33,11  L 33,10  L 32,10  L 32,11  L 27,11  L 27,12  L 20,12  L 20,13  L 14,13  L 14,14  L 12,14  L 12,15  L 9,15  L 9,16  L 8,16  L 8,18  L 7,18  L 7,23  L 8,23  L 8,24  L 7,24  L 7,25  L 8,25  L 8,30  L 7,30  L 7,31  L 8,31  L 8,32  L 7,32  L 7,33  L 8,33  L 8,34  L 7,34  L 7,47  L 8,47  L 8,48  L 7,48  L 7,49  L 8,49  L 8,53  L 9,53  L 9,56  L 10,56  L 10,58  L 12,58  L 12,59  L 14,59  L 14,60  L 15,60  L 15,61  L 17,61  L 17,62  L 18,62  L 18,61  L 20,61  L 20,62  L 23,62  L 23,61  L 33,61  L 33,60  L 47,60  L 47,59  L 57,59  L 57,58  L 58,58  L 58,59  L 59,59  L 59,58  L 65,58  L 65,57  L 71,57  L 71,56  L 76,56  L 76,55  L 77,55  L 77,54  L 78,54  L 78,52  L 77,52  L 77,49  L 76,49  L 76,48  L 71,48  L 71,49  L 69,49  L 69,50  L 65,50  L 65,51  L 63,51  L 63,52  L 56,52  L 56,53  L 53,53  L 53,52  L 52,52  L 52,53  L 46,53  L 46,54  L 36,54  L 36,55  L 18,55  L 18,54  L 16,54  L 16,53  L 15,53  L 15,43  L 16,43  L 16,42  L 19,42  L 19,41  L 24,41  L 24,40  L 29,40  L 29,39  L 35,39  L 35,38  L 41,38  L 41,37  L 45,37  L 45,36  L 46,36  L 46,37  L 47,37  L 47,36  L 48,36  L 48,35  L 52,35  L 52,34  L 55,34  L 55,33  L 59,33  L 59,32  L 64,32  L 64,31  L 67,31  L 67,26  L 66,26  L 66,24  L 61,24  L 61,25  L 58,25  L 58,26  L 53,26  L 53,27  L 51,27  L 51,28  L 48,28  L 48,29  L 44,29  L 44,30  L 38,30  L 38,31  L 35,31  L 35,32  L 30,32  L 30,33  L 29,33  L 29,32  L 28,32  L 28,33  L 25,33  L 25,34  L 18,34  L 18,35  L 16,35  L 16,34  L 15,34  L 15,31  L 14,31  L 14,30  L 15,30  L 15,24  L 16,24  L 16,23  L 17,23  L 17,21  L 19,21  L 19,20  Z  " style="fill:rgb(0, 0, 0); fill-opacity:1.000; stroke:none;" />
 <path d="  M 99,131  L 98,131  L 98,133  L 99,133  L 99,134  L 104,134  L 104,133  L 105,133  L 105,74  L 104,74  L 104,73  L 105,73  L 105,70  L 104,70  L 104,69  L 105,69  L 105,68  L 104,68  L 104,65  L 105,65  L 105,64  L 104,64  L 104,57  L 105,57  L 105,56  L 104,56  L 104,30  L 103,30  L 103,29  L 104,29  L 104,28  L 103,28  L 103,20  L 102,20  L 102,14  L 101,14  L 101,7  L 100,7  L 100,1  L 99,1  L 99,0  L 96,0  L 96,1  L 95,1  L 95,2  L 94,2  L 94,4  L 93,4  L 93,5  L 94,5  L 94,12  L 95,12  L 95,18  L 96,18  L 96,25  L 97,25  L 97,32  L 98,32  L 98,33  L 97,33  L 97,34  L 98,34  L 98,89  L 99,89  L 99,90  L 98,90  L 98,91  L 99,91  L 99,94  L 98,94  L 98,95  L 99,95  L 99,98  L 98,98  L 98,99  L 99,99  L 99,102  L 98,102  L 98,103  L 99,103  L 99,106  L 98,106  L 98,107  L 99,107  L 99,110  L 98,110  L 98,111  L 99,111  L 99,114  L 98,114  L 98,115  L 99,115  Z  " style="fill:rgb(0, 0, 0); fill-opacity:1.000; stroke:none;" />
</svg>
