<?xml version="1.0" encoding="UTF-8" standalone="no"?>
<!DOCTYPE svg PUBLIC "-//W3C//DTD SVG 1.1//EN" 
  "http://www.w3.org/Graphics/SVG/1.1/DTD/svg11.dtd">
<svg width="107" height="175"
     xmlns="http://www.w3.org/2000/svg" version="1.1">
 <path d="  M 98,155  L 98,156  L 96,156  L 96,157  L 94,157  L 94,158  L 93,158  L 93,159  L 90,159  L 90,161  L 87,161  L 87,162  L 85,162  L 85,163  L 82,163  L 82,164  L 79,164  L 79,165  L 77,165  L 77,166  L 75,166  L 75,167  L 74,167  L 74,166  L 73,166  L 73,167  L 69,167  L 69,168  L 59,168  L 59,167  L 57,167  L 57,168  L 56,168  L 56,167  L 50,167  L 50,166  L 46,166  L 46,165  L 45,165  L 45,164  L 44,164  L 44,163  L 43,163  L 43,162  L 44,162  L 44,161  L 43,161  L 43,160  L 44,160  L 44,156  L 45,156  L 45,155  L 46,155  L 46,154  L 47,154  L 47,153  L 49,153  L 49,152  L 53,152  L 53,151  L 54,151  L 54,150  L 57,150  L 57,149  L 61,149  L 61,148  L 63,148  L 63,147  L 66,147  L 66,146  L 68,146  L 68,145  L 70,145  L 70,144  L 72,144  L 72,143  L 74,143  L 74,142  L 77,142  L 77,141  L 78,141  L 78,140  L 80,140  L 80,138  L 82,138  L 82,137  L 84,137  L 84,136  L 86,136  L 86,135  L 89,135  L 89,134  L 91,134  L 91,133  L 92,133  L 92,132  L 93,132  L 93,130  L 95,130  L 95,129  L 96,129  L 96,128  L 95,128  L 95,124  L 94,124  L 94,121  L 93,121  L 93,120  L 92,120  L 92,119  L 91,119  L 91,118  L 89,118  L 89,117  L 87,117  L 87,116  L 84,116  L 84,115  L 82,115  L 82,114  L 79,114  L 79,113  L 74,113  L 74,112  L 68,112  L 68,111  L 66,111  L 66,112  L 65,112  L 65,111  L 52,111  L 52,109  L 51,109  L 51,108  L 50,108  L 50,106  L 49,106  L 49,102  L 48,102  L 48,94  L 47,94  L 47,91  L 48,91  L 48,90  L 47,90  L 47,79  L 48,79  L 48,78  L 51,78  L 51,77  L 71,77  L 71,76  L 81,76  L 81,75  L 82,75  L 82,76  L 83,76  L 83,75  L 85,75  L 85,74  L 86,74  L 86,72  L 87,72  L 87,70  L 86,70  L 86,69  L 85,69  L 85,68  L 84,68  L 84,67  L 77,67  L 77,68  L 73,68  L 73,69  L 69,69  L 69,70  L 68,70  L 68,69  L 65,69  L 65,70  L 64,70  L 64,69  L 63,69  L 63,70  L 62,70  L 62,69  L 61,69  L 61,70  L 60,70  L 60,69  L 57,69  L 57,70  L 56,70  L 56,69  L 55,69  L 55,70  L 54,70  L 54,69  L 53,69  L 53,70  L 52,70  L 52,69  L 49,69  L 49,70  L 48,70  L 48,69  L 25,69  L 25,70  L 24,70  L 24,69  L 21,69  L 21,70  L 14,70  L 14,71  L 10,71  L 10,72  L 7,72  L 7,73  L 5,73  L 5,74  L 2,74  L 2,75  L 1,75  L 1,77  L 0,77  L 0,78  L 1,78  L 1,80  L 2,80  L 2,81  L 4,81  L 4,82  L 6,82  L 6,81  L 8,81  L 8,80  L 10,80  L 10,79  L 13,79  L 13,78  L 20,78  L 20,77  L 25,77  L 25,76  L 26,76  L 26,77  L 28,77  L 28,76  L 31,76  L 31,77  L 32,77  L 32,76  L 34,76  L 34,77  L 37,77  L 37,76  L 38,76  L 38,77  L 40,77  L 40,80  L 41,80  L 41,81  L 40,81  L 40,96  L 41,96  L 41,101  L 42,101  L 42,106  L 43,106  L 43,109  L 44,109  L 44,110  L 45,110  L 45,111  L 46,111  L 46,114  L 45,114  L 45,115  L 41,115  L 41,116  L 39,116  L 39,117  L 37,117  L 37,118  L 36,118  L 36,120  L 37,120  L 37,121  L 38,121  L 38,120  L 39,120  L 39,121  L 42,121  L 42,120  L 43,120  L 43,121  L 44,121  L 44,120  L 74,120  L 74,121  L 77,121  L 77,122  L 80,122  L 80,123  L 82,123  L 82,124  L 83,124  L 83,125  L 84,125  L 84,126  L 86,126  L 86,127  L 85,127  L 85,128  L 84,128  L 84,129  L 82,129  L 82,130  L 80,130  L 80,131  L 77,131  L 77,132  L 75,132  L 75,133  L 73,133  L 73,135  L 70,135  L 70,137  L 68,137  L 68,138  L 67,138  L 67,137  L 66,137  L 66,138  L 65,138  L 65,139  L 62,139  L 62,140  L 60,140  L 60,141  L 58,141  L 58,142  L 55,142  L 55,143  L 52,143  L 52,144  L 49,144  L 49,145  L 46,145  L 46,146  L 45,146  L 45,147  L 43,147  L 43,149  L 42,149  L 42,150  L 40,150  L 40,151  L 38,151  L 38,152  L 37,152  L 37,154  L 36,154  L 36,155  L 35,155  L 35,161  L 36,161  L 36,163  L 37,163  L 37,164  L 38,164  L 38,166  L 39,166  L 39,167  L 40,167  L 40,168  L 39,168  L 39,169  L 40,169  L 40,170  L 41,170  L 41,171  L 42,171  L 42,172  L 44,172  L 44,173  L 45,173  L 45,174  L 47,174  L 47,173  L 48,173  L 48,174  L 49,174  L 49,175  L 74,175  L 74,174  L 77,174  L 77,173  L 79,173  L 79,172  L 82,172  L 82,171  L 85,171  L 85,170  L 86,170  L 86,169  L 88,169  L 88,168  L 90,168  L 90,167  L 93,167  L 93,166  L 95,166  L 95,165  L 97,165  L 97,164  L 98,164  L 98,163  L 100,163  L 100,162  L 102,162  L 102,161  L 104,161  L 104,158  L 105,158  L 105,154  L 100,154  L 100,155  Z  " style="fill:rgb(0, 0, 0); fill-opacity:1.000; stroke:none;" />
 <path d="  M 66,33  L 66,32  L 67,32  L 67,33  L 69,33  L 69,32  L 73,32  L 73,31  L 75,31  L 75,30  L 76,30  L 76,27  L 75,27  L 75,26  L 74,26  L 74,25  L 59,25  L 59,26  L 56,26  L 56,25  L 55,25  L 55,26  L 50,26  L 50,27  L 49,27  L 49,26  L 46,26  L 46,27  L 43,27  L 43,28  L 42,28  L 42,27  L 41,27  L 41,28  L 40,28  L 40,27  L 39,27  L 39,28  L 38,28  L 38,27  L 37,27  L 37,28  L 24,28  L 24,25  L 25,25  L 25,20  L 24,20  L 24,13  L 25,13  L 25,12  L 27,12  L 27,11  L 32,11  L 32,10  L 43,10  L 43,9  L 44,9  L 44,10  L 45,10  L 45,9  L 46,9  L 46,10  L 47,10  L 47,9  L 50,9  L 50,10  L 51,10  L 51,9  L 58,9  L 58,10  L 59,10  L 59,9  L 62,9  L 62,10  L 63,10  L 63,9  L 64,9  L 64,10  L 69,10  L 69,9  L 70,9  L 70,8  L 71,8  L 71,6  L 72,6  L 72,5  L 71,5  L 71,4  L 70,4  L 70,3  L 69,3  L 69,2  L 66,2  L 66,1  L 55,1  L 55,2  L 46,2  L 46,3  L 45,3  L 45,2  L 42,2  L 42,3  L 41,3  L 41,2  L 40,2  L 40,3  L 30,3  L 30,4  L 21,4  L 21,5  L 18,5  L 18,6  L 16,6  L 16,7  L 14,7  L 14,8  L 13,8  L 13,13  L 14,13  L 14,16  L 15,16  L 15,17  L 16,17  L 16,26  L 15,26  L 15,28  L 16,28  L 16,30  L 15,30  L 15,32  L 16,32  L 16,33  L 15,33  L 15,43  L 14,43  L 14,44  L 15,44  L 15,50  L 16,50  L 16,52  L 17,52  L 17,53  L 18,53  L 18,54  L 19,54  L 19,55  L 21,55  L 21,56  L 23,56  L 23,57  L 28,57  L 28,58  L 30,58  L 30,57  L 34,57  L 34,58  L 40,58  L 40,57  L 42,57  L 42,58  L 49,58  L 49,57  L 50,57  L 50,58  L 51,58  L 51,57  L 63,57  L 63,56  L 71,56  L 71,55  L 74,55  L 74,54  L 76,54  L 76,52  L 77,52  L 77,51  L 78,51  L 78,48  L 76,48  L 76,47  L 71,47  L 71,48  L 66,48  L 66,49  L 61,49  L 61,50  L 60,50  L 60,49  L 59,49  L 59,50  L 56,50  L 56,49  L 55,49  L 55,50  L 31,50  L 31,51  L 30,51  L 30,50  L 29,50  L 29,51  L 28,51  L 28,50  L 27,50  L 27,51  L 26,51  L 26,50  L 24,50  L 24,44  L 23,44  L 23,37  L 25,37  L 25,36  L 27,36  L 27,35  L 35,35  L 35,34  L 50,34  L 50,33  Z  " style="fill:rgb(0, 0, 0); fill-opacity:1.000; stroke:none;" />
 <path d="  M 107,29  L 106,29  L 106,7  L 105,7  L 105,4  L 104,4  L 104,3  L 100,3  L 100,4  L 99,4  L 99,23  L 100,23  L 100,24  L 99,24  L 99,27  L 100,27  L 100,28  L 99,28  L 99,29  L 100,29  L 100,94  L 99,94  L 99,95  L 100,95  L 100,98  L 99,98  L 99,99  L 100,99  L 100,102  L 99,102  L 99,103  L 100,103  L 100,105  L 99,105  L 99,107  L 100,107  L 100,108  L 101,108  L 101,109  L 103,109  L 103,108  L 105,108  L 105,106  L 106,106  L 106,103  L 107,103  L 107,102  L 106,102  L 106,100  L 107,100  L 107,99  L 106,99  L 106,97  L 107,97  Z  " style="fill:rgb(0, 0, 0); fill-opacity:1.000; stroke:none;" />
</svg>
