<?xml version="1.0" encoding="UTF-8" standalone="no"?>
<!DOCTYPE svg PUBLIC "-//W3C//DTD SVG 1.1//EN" 
  "http://www.w3.org/Graphics/SVG/1.1/DTD/svg11.dtd">
<svg width="105" height="153"
     xmlns="http://www.w3.org/2000/svg" version="1.1">
 <path d="  M 71,36  L 68,36  L 68,37  L 67,37  L 67,38  L 66,38  L 66,39  L 64,39  L 64,40  L 63,40  L 63,41  L 59,41  L 59,42  L 56,42  L 56,43  L 55,43  L 55,42  L 54,42  L 54,43  L 50,43  L 50,44  L 31,44  L 31,45  L 21,45  L 21,44  L 19,44  L 19,45  L 16,45  L 16,44  L 15,44  L 15,42  L 14,42  L 14,34  L 15,34  L 15,33  L 16,33  L 16,32  L 18,32  L 18,31  L 24,31  L 24,30  L 25,30  L 25,31  L 26,31  L 26,30  L 27,30  L 27,31  L 28,31  L 28,30  L 48,30  L 48,29  L 54,29  L 54,28  L 62,28  L 62,27  L 65,27  L 65,26  L 66,26  L 66,25  L 67,25  L 67,23  L 68,23  L 68,22  L 67,22  L 67,21  L 65,21  L 65,20  L 64,20  L 64,21  L 57,21  L 57,22  L 50,22  L 50,23  L 37,23  L 37,24  L 36,24  L 36,23  L 34,23  L 34,24  L 32,24  L 32,23  L 30,23  L 30,24  L 14,24  L 14,14  L 15,14  L 15,12  L 16,12  L 16,11  L 20,11  L 20,10  L 28,10  L 28,9  L 50,9  L 50,8  L 51,8  L 51,9  L 63,9  L 63,10  L 66,10  L 66,5  L 65,5  L 65,4  L 64,4  L 64,3  L 63,3  L 63,2  L 61,2  L 61,1  L 58,1  L 58,0  L 57,0  L 57,1  L 43,1  L 43,2  L 40,2  L 40,1  L 39,1  L 39,2  L 27,2  L 27,3  L 26,3  L 26,2  L 23,2  L 23,3  L 17,3  L 17,4  L 12,4  L 12,5  L 7,5  L 7,6  L 5,6  L 5,7  L 4,7  L 4,8  L 2,8  L 2,9  L 1,9  L 1,10  L 0,10  L 0,11  L 3,11  L 3,12  L 5,12  L 5,13  L 6,13  L 6,16  L 7,16  L 7,18  L 6,18  L 6,19  L 7,19  L 7,22  L 6,22  L 6,23  L 7,23  L 7,26  L 6,26  L 6,27  L 7,27  L 7,30  L 6,30  L 6,31  L 7,31  L 7,34  L 6,34  L 6,35  L 7,35  L 7,43  L 8,43  L 8,45  L 9,45  L 9,47  L 10,47  L 10,48  L 11,48  L 11,49  L 14,49  L 14,50  L 15,50  L 15,51  L 16,51  L 16,50  L 22,50  L 22,51  L 24,51  L 24,50  L 25,50  L 25,51  L 38,51  L 38,50  L 50,50  L 50,49  L 56,49  L 56,48  L 62,48  L 62,47  L 66,47  L 66,46  L 69,46  L 69,45  L 72,45  L 72,44  L 73,44  L 73,43  L 75,43  L 75,41  L 76,41  L 76,39  L 77,39  L 77,37  L 76,37  L 76,36  L 74,36  L 74,35  L 71,35  Z  " style="fill:rgb(0, 0, 0); fill-opacity:1.000; stroke:none;" />
 <path d="  M 37,97  L 38,97  L 38,98  L 43,98  L 43,95  L 44,95  L 44,87  L 45,87  L 45,68  L 47,68  L 47,67  L 52,67  L 52,66  L 53,66  L 53,67  L 54,67  L 54,66  L 55,66  L 55,67  L 56,67  L 56,66  L 57,66  L 57,67  L 58,67  L 58,66  L 69,66  L 69,65  L 74,65  L 74,64  L 75,64  L 75,65  L 76,65  L 76,64  L 79,64  L 79,63  L 84,63  L 84,62  L 85,62  L 85,63  L 86,63  L 86,62  L 89,62  L 89,61  L 92,61  L 92,60  L 90,60  L 90,58  L 89,58  L 89,57  L 87,57  L 87,56  L 86,56  L 86,55  L 84,55  L 84,54  L 79,54  L 79,56  L 74,56  L 74,57  L 71,57  L 71,58  L 66,58  L 66,59  L 61,59  L 61,60  L 60,60  L 60,59  L 58,59  L 58,60  L 48,60  L 48,61  L 47,61  L 47,60  L 46,60  L 46,61  L 45,61  L 45,60  L 44,60  L 44,61  L 41,61  L 41,60  L 40,60  L 40,61  L 35,61  L 35,62  L 34,62  L 34,61  L 33,61  L 33,62  L 30,62  L 30,61  L 29,61  L 29,62  L 24,62  L 24,63  L 23,63  L 23,62  L 22,62  L 22,63  L 19,63  L 19,64  L 12,64  L 12,65  L 9,65  L 9,66  L 6,66  L 6,67  L 4,67  L 4,68  L 3,68  L 3,69  L 1,69  L 1,70  L 0,70  L 0,73  L 2,73  L 2,74  L 3,74  L 3,73  L 8,73  L 8,72  L 11,72  L 11,71  L 13,71  L 13,70  L 22,70  L 22,69  L 26,69  L 26,68  L 38,68  L 38,72  L 37,72  L 37,73  L 38,73  L 38,75  L 37,75  L 37,77  L 38,77  L 38,79  L 37,79  L 37,82  L 38,82  L 38,83  L 37,83  Z  " style="fill:rgb(0, 0, 0); fill-opacity:1.000; stroke:none;" />
 <path d="  M 46,143  L 46,142  L 45,142  L 45,137  L 44,137  L 44,129  L 45,129  L 45,128  L 44,128  L 44,120  L 45,120  L 45,119  L 48,119  L 48,118  L 52,118  L 52,117  L 62,117  L 62,116  L 63,116  L 63,117  L 65,117  L 65,116  L 68,116  L 68,117  L 69,117  L 69,116  L 72,116  L 72,117  L 73,117  L 73,116  L 80,116  L 80,117  L 81,117  L 81,116  L 84,116  L 84,117  L 85,117  L 85,116  L 87,116  L 87,117  L 94,117  L 94,118  L 95,118  L 95,119  L 96,119  L 96,121  L 97,121  L 97,124  L 96,124  L 96,134  L 95,134  L 95,140  L 94,140  L 94,143  L 93,143  L 93,144  L 87,144  L 87,145  L 86,145  L 86,144  L 85,144  L 85,145  L 82,145  L 82,144  L 81,144  L 81,145  L 78,145  L 78,146  L 63,146  L 63,147  L 62,147  L 62,146  L 60,146  L 60,147  L 58,147  L 58,146  L 56,146  L 56,147  L 54,147  L 54,146  L 53,146  L 53,147  L 52,147  L 52,146  L 51,146  L 51,147  L 50,147  L 50,146  L 47,146  L 47,145  L 46,145  L 46,144  L 45,144  L 45,143  Z  M 38,141  L 39,141  L 39,142  L 38,142  L 38,143  L 39,143  L 39,146  L 40,146  L 40,151  L 42,151  L 42,152  L 44,152  L 44,153  L 81,153  L 81,152  L 84,152  L 84,153  L 85,153  L 85,152  L 90,152  L 90,151  L 93,151  L 93,150  L 94,150  L 94,149  L 96,149  L 96,148  L 98,148  L 98,147  L 99,147  L 99,146  L 100,146  L 100,144  L 101,144  L 101,138  L 102,138  L 102,131  L 103,131  L 103,130  L 102,130  L 102,129  L 103,129  L 103,121  L 104,121  L 104,120  L 103,120  L 103,117  L 102,117  L 102,115  L 101,115  L 101,114  L 100,114  L 100,113  L 99,113  L 99,112  L 97,112  L 97,111  L 95,111  L 95,110  L 88,110  L 88,109  L 78,109  L 78,108  L 77,108  L 77,109  L 74,109  L 74,108  L 73,108  L 73,109  L 70,109  L 70,108  L 69,108  L 69,109  L 61,109  L 61,110  L 60,110  L 60,109  L 58,109  L 58,110  L 48,110  L 48,109  L 45,109  L 45,110  L 44,110  L 44,109  L 43,109  L 43,110  L 39,110  L 39,111  L 38,111  L 38,112  L 37,112  L 37,111  L 36,111  L 36,112  L 33,112  L 33,113  L 32,113  L 32,114  L 30,114  L 30,117  L 31,117  L 31,118  L 32,118  L 32,120  L 34,120  L 34,121  L 37,121  L 37,129  L 38,129  Z  " style="fill:rgb(0, 0, 0); fill-opacity:1.000; stroke:none;" />
 <path d="  M 105,40  L 104,40  L 104,39  L 105,39  L 105,38  L 104,38  L 104,30  L 103,30  L 103,29  L 104,29  L 104,28  L 103,28  L 103,21  L 102,21  L 102,19  L 103,19  L 103,18  L 102,18  L 102,15  L 101,15  L 101,8  L 100,8  L 100,4  L 99,4  L 99,2  L 98,2  L 98,1  L 95,1  L 95,2  L 94,2  L 94,12  L 95,12  L 95,19  L 96,19  L 96,25  L 97,25  L 97,33  L 98,33  L 98,44  L 99,44  L 99,45  L 98,45  L 98,48  L 99,48  L 99,51  L 98,51  L 98,52  L 99,52  L 99,54  L 98,54  L 98,55  L 99,55  L 99,56  L 98,56  L 98,88  L 99,88  L 99,89  L 98,89  L 98,95  L 99,95  L 99,98  L 98,98  L 98,100  L 99,100  L 99,102  L 100,102  L 100,103  L 105,103  Z  " style="fill:rgb(0, 0, 0); fill-opacity:1.000; stroke:none;" />
</svg>
