<?xml version="1.0" encoding="UTF-8" standalone="no"?>
<!DOCTYPE svg PUBLIC "-//W3C//DTD SVG 1.1//EN" 
  "http://www.w3.org/Graphics/SVG/1.1/DTD/svg11.dtd">
<svg width="107" height="161"
     xmlns="http://www.w3.org/2000/svg" version="1.1">
 <path d="  M 4,80  L 4,81  L 6,81  L 6,80  L 9,80  L 9,79  L 11,79  L 11,78  L 15,78  L 15,77  L 18,77  L 18,76  L 21,76  L 21,75  L 25,75  L 25,74  L 26,74  L 26,75  L 27,75  L 27,74  L 30,74  L 30,73  L 34,73  L 34,72  L 39,72  L 39,73  L 40,73  L 40,78  L 39,78  L 39,83  L 40,83  L 40,88  L 39,88  L 39,89  L 40,89  L 40,98  L 41,98  L 41,101  L 42,101  L 42,103  L 45,103  L 45,104  L 50,104  L 50,101  L 49,101  L 49,99  L 48,99  L 48,98  L 49,98  L 49,97  L 48,97  L 48,87  L 47,87  L 47,86  L 48,86  L 48,83  L 47,83  L 47,82  L 48,82  L 48,79  L 47,79  L 47,78  L 48,78  L 48,72  L 49,72  L 49,71  L 54,71  L 54,70  L 56,70  L 56,71  L 57,71  L 57,70  L 69,70  L 69,69  L 73,69  L 73,68  L 77,68  L 77,67  L 78,67  L 78,68  L 79,68  L 79,67  L 82,67  L 82,66  L 89,66  L 89,65  L 90,65  L 90,64  L 91,64  L 91,63  L 90,63  L 90,61  L 89,61  L 89,60  L 87,60  L 87,59  L 86,59  L 86,58  L 79,58  L 79,59  L 76,59  L 76,60  L 75,60  L 75,61  L 73,61  L 73,62  L 72,62  L 72,61  L 71,61  L 71,62  L 70,62  L 70,61  L 69,61  L 69,62  L 65,62  L 65,63  L 59,63  L 59,64  L 50,64  L 50,65  L 41,65  L 41,66  L 37,66  L 37,67  L 35,67  L 35,66  L 34,66  L 34,67  L 29,67  L 29,68  L 24,68  L 24,69  L 20,69  L 20,70  L 16,70  L 16,71  L 12,71  L 12,72  L 8,72  L 8,73  L 5,73  L 5,74  L 2,74  L 2,75  L 1,75  L 1,77  L 0,77  L 0,78  L 1,78  L 1,80  Z  " style="fill:rgb(0, 0, 0); fill-opacity:1.000; stroke:none;" />
 <path d="  M 61,52  L 61,51  L 64,51  L 64,50  L 67,50  L 67,49  L 68,49  L 68,50  L 69,50  L 69,49  L 72,49  L 72,48  L 76,48  L 76,47  L 77,47  L 77,46  L 78,46  L 78,45  L 80,45  L 80,44  L 83,44  L 83,42  L 82,42  L 82,41  L 79,41  L 79,40  L 77,40  L 77,39  L 71,39  L 71,40  L 70,40  L 70,41  L 69,41  L 69,42  L 65,42  L 65,43  L 62,43  L 62,44  L 61,44  L 61,45  L 59,45  L 59,46  L 54,46  L 54,47  L 52,47  L 52,48  L 47,48  L 47,49  L 34,49  L 34,50  L 23,50  L 23,49  L 20,49  L 20,50  L 17,50  L 17,48  L 16,48  L 16,45  L 15,45  L 15,43  L 16,43  L 16,42  L 15,42  L 15,41  L 16,41  L 16,38  L 17,38  L 17,36  L 20,36  L 20,35  L 25,35  L 25,34  L 41,34  L 41,33  L 47,33  L 47,32  L 51,32  L 51,31  L 58,31  L 58,30  L 65,30  L 65,29  L 68,29  L 68,28  L 69,28  L 69,23  L 68,23  L 68,22  L 66,22  L 66,23  L 62,23  L 62,24  L 58,24  L 58,25  L 49,25  L 49,26  L 29,26  L 29,27  L 20,27  L 20,28  L 17,28  L 17,29  L 16,29  L 16,28  L 15,28  L 15,19  L 16,19  L 16,18  L 15,18  L 15,16  L 16,16  L 16,15  L 17,15  L 17,14  L 20,14  L 20,13  L 23,13  L 23,12  L 27,12  L 27,11  L 33,11  L 33,10  L 43,10  L 43,9  L 46,9  L 46,10  L 47,10  L 47,9  L 48,9  L 48,10  L 57,10  L 57,11  L 61,11  L 61,12  L 64,12  L 64,13  L 66,13  L 66,11  L 67,11  L 67,9  L 66,9  L 66,7  L 65,7  L 65,6  L 64,6  L 64,5  L 63,5  L 63,4  L 62,4  L 62,3  L 59,3  L 59,2  L 52,2  L 52,1  L 38,1  L 38,2  L 30,2  L 30,3  L 29,3  L 29,2  L 28,2  L 28,3  L 24,3  L 24,4  L 19,4  L 19,5  L 15,5  L 15,6  L 12,6  L 12,7  L 11,7  L 11,6  L 10,6  L 10,7  L 9,7  L 9,8  L 7,8  L 7,9  L 5,9  L 5,10  L 2,10  L 2,12  L 1,12  L 1,16  L 4,16  L 4,17  L 6,17  L 6,18  L 7,18  L 7,20  L 8,20  L 8,23  L 7,23  L 7,24  L 8,24  L 8,44  L 9,44  L 9,48  L 10,48  L 10,51  L 11,51  L 11,52  L 12,52  L 12,53  L 13,53  L 13,54  L 15,54  L 15,55  L 23,55  L 23,56  L 43,56  L 43,55  L 50,55  L 50,54  L 54,54  L 54,53  L 58,53  L 58,52  Z  " style="fill:rgb(0, 0, 0); fill-opacity:1.000; stroke:none;" />
 <path d="  M 81,159  L 84,159  L 84,158  L 87,158  L 87,157  L 90,157  L 90,156  L 91,156  L 91,155  L 94,155  L 94,154  L 95,154  L 95,153  L 96,153  L 96,152  L 98,152  L 98,151  L 99,151  L 99,150  L 100,150  L 100,149  L 101,149  L 101,148  L 102,148  L 102,147  L 103,147  L 103,145  L 104,145  L 104,143  L 105,143  L 105,140  L 106,140  L 106,125  L 105,125  L 105,122  L 104,122  L 104,119  L 103,119  L 103,118  L 102,118  L 102,117  L 101,117  L 101,116  L 100,116  L 100,115  L 99,115  L 99,114  L 96,114  L 96,113  L 94,113  L 94,112  L 90,112  L 90,111  L 86,111  L 86,110  L 68,110  L 68,111  L 66,111  L 66,110  L 64,110  L 64,111  L 60,111  L 60,112  L 58,112  L 58,113  L 57,113  L 57,114  L 55,114  L 55,115  L 54,115  L 54,117  L 52,117  L 52,119  L 51,119  L 51,121  L 50,121  L 50,123  L 49,123  L 49,125  L 48,125  L 48,127  L 47,127  L 47,129  L 46,129  L 46,130  L 45,130  L 45,131  L 44,131  L 44,133  L 43,133  L 43,136  L 42,136  L 42,137  L 41,137  L 41,139  L 40,139  L 40,140  L 41,140  L 41,141  L 40,141  L 40,149  L 41,149  L 41,153  L 42,153  L 42,155  L 44,155  L 44,156  L 45,156  L 45,157  L 48,157  L 48,158  L 50,158  L 50,159  L 55,159  L 55,160  L 58,160  L 58,161  L 78,161  L 78,160  L 81,160  Z  M 94,147  L 93,147  L 93,148  L 91,148  L 91,149  L 88,149  L 88,150  L 86,150  L 86,151  L 84,151  L 84,152  L 81,152  L 81,153  L 78,153  L 78,154  L 75,154  L 75,153  L 74,153  L 74,154  L 59,154  L 59,153  L 54,153  L 54,152  L 51,152  L 51,151  L 49,151  L 49,150  L 47,150  L 47,148  L 48,148  L 48,142  L 49,142  L 49,140  L 50,140  L 50,136  L 51,136  L 51,135  L 52,135  L 52,133  L 53,133  L 53,131  L 54,131  L 54,128  L 55,128  L 55,127  L 56,127  L 56,126  L 57,126  L 57,125  L 58,125  L 58,124  L 59,124  L 59,123  L 60,123  L 60,122  L 61,122  L 61,121  L 63,121  L 63,120  L 65,120  L 65,119  L 69,119  L 69,118  L 89,118  L 89,119  L 91,119  L 91,120  L 93,120  L 93,121  L 95,121  L 95,122  L 97,122  L 97,124  L 98,124  L 98,126  L 99,126  L 99,127  L 100,127  L 100,135  L 99,135  L 99,139  L 98,139  L 98,141  L 97,141  L 97,143  L 96,143  L 96,146  L 94,146  Z  " style="fill:rgb(0, 0, 0); fill-opacity:1.000; stroke:none;" />
 <path d="  M 99,85  L 100,85  L 100,100  L 101,100  L 101,105  L 100,105  L 100,106  L 101,106  L 101,108  L 102,108  L 102,111  L 104,111  L 104,112  L 105,112  L 105,111  L 106,111  L 106,110  L 107,110  L 107,94  L 106,94  L 106,71  L 105,71  L 105,70  L 106,70  L 106,69  L 105,69  L 105,68  L 106,68  L 106,67  L 105,67  L 105,66  L 106,66  L 106,65  L 105,65  L 105,51  L 104,51  L 104,50  L 105,50  L 105,49  L 104,49  L 104,43  L 103,43  L 103,37  L 102,37  L 102,31  L 101,31  L 101,25  L 100,25  L 100,21  L 99,21  L 99,17  L 98,17  L 98,13  L 97,13  L 97,9  L 96,9  L 96,8  L 95,8  L 95,7  L 91,7  L 91,18  L 92,18  L 92,22  L 93,22  L 93,26  L 94,26  L 94,30  L 95,30  L 95,34  L 96,34  L 96,40  L 97,40  L 97,43  L 98,43  L 98,52  L 99,52  Z  " style="fill:rgb(0, 0, 0); fill-opacity:1.000; stroke:none;" />
</svg>
