<?xml version="1.0" encoding="UTF-8" standalone="no"?>
<!DOCTYPE svg PUBLIC "-//W3C//DTD SVG 1.1//EN" 
  "http://www.w3.org/Graphics/SVG/1.1/DTD/svg11.dtd">
<svg width="103" height="177"
     xmlns="http://www.w3.org/2000/svg" version="1.1">
 <path d="  M 47,84  L 51,84  L 51,83  L 63,83  L 63,82  L 65,82  L 65,83  L 66,83  L 66,84  L 67,84  L 67,86  L 66,86  L 66,111  L 67,111  L 67,112  L 66,112  L 66,113  L 67,113  L 67,115  L 68,115  L 68,116  L 51,116  L 51,115  L 50,115  L 50,116  L 49,116  L 49,115  L 48,115  L 48,107  L 47,107  L 47,105  L 48,105  L 48,104  L 47,104  Z  M 55,76  L 55,75  L 54,75  L 54,76  L 48,76  L 48,77  L 47,77  L 47,76  L 46,76  L 46,77  L 45,77  L 45,76  L 44,76  L 44,77  L 43,77  L 43,76  L 42,76  L 42,77  L 35,77  L 35,78  L 34,78  L 34,77  L 33,77  L 33,78  L 28,78  L 28,79  L 21,79  L 21,80  L 15,80  L 15,81  L 14,81  L 14,80  L 13,80  L 13,81  L 8,81  L 8,82  L 2,82  L 2,83  L 1,83  L 1,84  L 0,84  L 0,87  L 3,87  L 3,88  L 9,88  L 9,87  L 15,87  L 15,86  L 23,86  L 23,85  L 26,85  L 26,86  L 27,86  L 27,85  L 35,85  L 35,84  L 38,84  L 38,85  L 40,85  L 40,86  L 39,86  L 39,89  L 40,89  L 40,91  L 39,91  L 39,93  L 40,93  L 40,94  L 39,94  L 39,97  L 40,97  L 40,98  L 39,98  L 39,99  L 40,99  L 40,100  L 39,100  L 39,101  L 40,101  L 40,102  L 39,102  L 39,103  L 40,103  L 40,104  L 39,104  L 39,105  L 40,105  L 40,106  L 39,106  L 39,107  L 40,107  L 40,108  L 39,108  L 39,109  L 40,109  L 40,114  L 39,114  L 39,118  L 38,118  L 38,120  L 37,120  L 37,121  L 36,121  L 36,122  L 35,122  L 35,123  L 34,123  L 34,124  L 33,124  L 33,125  L 32,125  L 32,126  L 31,126  L 31,127  L 30,127  L 30,128  L 29,128  L 29,129  L 28,129  L 28,131  L 26,131  L 26,133  L 24,133  L 24,135  L 23,135  L 23,136  L 22,136  L 22,138  L 21,138  L 21,141  L 20,141  L 20,149  L 19,149  L 19,151  L 20,151  L 20,154  L 19,154  L 19,155  L 20,155  L 20,158  L 21,158  L 21,161  L 22,161  L 22,163  L 23,163  L 23,166  L 24,166  L 24,167  L 25,167  L 25,169  L 26,169  L 26,170  L 27,170  L 27,171  L 28,171  L 28,173  L 30,173  L 30,174  L 31,174  L 31,175  L 33,175  L 33,176  L 35,176  L 35,177  L 72,177  L 72,176  L 73,176  L 73,175  L 75,175  L 75,174  L 76,174  L 76,173  L 77,173  L 77,172  L 78,172  L 78,171  L 79,171  L 79,170  L 80,170  L 80,168  L 81,168  L 81,167  L 82,167  L 82,163  L 83,163  L 83,161  L 84,161  L 84,160  L 83,160  L 83,158  L 84,158  L 84,152  L 85,152  L 85,136  L 84,136  L 84,131  L 83,131  L 83,129  L 82,129  L 82,127  L 81,127  L 81,124  L 80,124  L 80,123  L 79,123  L 79,122  L 78,122  L 78,121  L 77,121  L 77,119  L 76,119  L 76,118  L 75,118  L 75,117  L 74,117  L 74,107  L 73,107  L 73,98  L 74,98  L 74,97  L 73,97  L 73,95  L 74,95  L 74,93  L 73,93  L 73,92  L 74,92  L 74,84  L 75,84  L 75,83  L 76,83  L 76,82  L 77,82  L 77,83  L 82,83  L 82,82  L 83,82  L 83,83  L 84,83  L 84,82  L 93,82  L 93,81  L 94,81  L 94,82  L 96,82  L 96,81  L 102,81  L 102,80  L 103,80  L 103,73  L 99,73  L 99,72  L 98,72  L 98,73  L 97,73  L 97,72  L 96,72  L 96,73  L 93,73  L 93,74  L 83,74  L 83,75  L 81,75  L 81,74  L 80,74  L 80,75  L 61,75  L 61,76  L 60,76  L 60,75  L 57,75  L 57,76  Z  M 56,169  L 56,170  L 52,170  L 52,169  L 50,169  L 50,170  L 49,170  L 49,169  L 42,169  L 42,168  L 37,168  L 37,167  L 34,167  L 34,166  L 32,166  L 32,165  L 31,165  L 31,164  L 30,164  L 30,162  L 29,162  L 29,159  L 28,159  L 28,156  L 27,156  L 27,153  L 28,153  L 28,152  L 27,152  L 27,149  L 28,149  L 28,148  L 27,148  L 27,147  L 28,147  L 28,143  L 29,143  L 29,140  L 30,140  L 30,139  L 31,139  L 31,137  L 32,137  L 32,135  L 33,135  L 33,134  L 34,134  L 34,133  L 35,133  L 35,132  L 36,132  L 36,131  L 37,131  L 37,130  L 38,130  L 38,129  L 39,129  L 39,128  L 41,128  L 41,127  L 42,127  L 42,126  L 44,126  L 44,125  L 50,125  L 50,124  L 52,124  L 52,125  L 53,125  L 53,124  L 54,124  L 54,125  L 67,125  L 67,126  L 69,126  L 69,127  L 71,127  L 71,128  L 73,128  L 73,129  L 74,129  L 74,131  L 75,131  L 75,132  L 76,132  L 76,136  L 77,136  L 77,144  L 78,144  L 78,145  L 77,145  L 77,152  L 76,152  L 76,155  L 75,155  L 75,156  L 76,156  L 76,157  L 75,157  L 75,161  L 74,161  L 74,163  L 73,163  L 73,166  L 72,166  L 72,167  L 70,167  L 70,168  L 67,168  L 67,169  L 66,169  L 66,168  L 65,168  L 65,169  Z  " style="fill:rgb(0, 0, 0); fill-opacity:1.000; stroke:none;" />
 <path d="  M 25,6  L 25,5  L 24,5  L 24,3  L 23,3  L 23,2  L 22,2  L 22,1  L 21,1  L 21,0  L 19,0  L 19,7  L 20,7  L 20,9  L 21,9  L 21,11  L 22,11  L 22,12  L 23,12  L 23,15  L 24,15  L 24,46  L 25,46  L 25,48  L 24,48  L 24,49  L 25,49  L 25,57  L 26,57  L 26,59  L 27,59  L 27,61  L 29,61  L 29,62  L 30,62  L 30,63  L 33,63  L 33,64  L 37,64  L 37,63  L 44,63  L 44,62  L 52,62  L 52,61  L 62,61  L 62,60  L 63,60  L 63,61  L 64,61  L 64,60  L 68,60  L 68,59  L 72,59  L 72,58  L 74,58  L 74,57  L 75,57  L 75,56  L 76,56  L 76,55  L 78,55  L 78,52  L 79,52  L 79,50  L 78,50  L 78,49  L 72,49  L 72,50  L 69,50  L 69,51  L 67,51  L 67,52  L 66,52  L 66,53  L 65,53  L 65,52  L 64,52  L 64,53  L 56,53  L 56,54  L 50,54  L 50,55  L 49,55  L 49,54  L 48,54  L 48,55  L 41,55  L 41,56  L 35,56  L 35,55  L 33,55  L 33,53  L 31,53  L 31,51  L 32,51  L 32,50  L 31,50  L 31,47  L 32,47  L 32,43  L 33,43  L 33,42  L 35,42  L 35,41  L 46,41  L 46,40  L 47,40  L 47,41  L 48,41  L 48,40  L 58,40  L 58,39  L 70,39  L 70,38  L 71,38  L 71,39  L 72,39  L 72,38  L 75,38  L 75,37  L 77,37  L 77,35  L 76,35  L 76,31  L 75,31  L 75,30  L 74,30  L 74,31  L 70,31  L 70,32  L 58,32  L 58,33  L 57,33  L 57,32  L 56,32  L 56,33  L 33,33  L 33,32  L 31,32  L 31,30  L 32,30  L 32,15  L 33,15  L 33,14  L 48,14  L 48,15  L 51,15  L 51,16  L 57,16  L 57,17  L 64,17  L 64,18  L 66,18  L 66,19  L 69,19  L 69,20  L 72,20  L 72,19  L 73,19  L 73,14  L 72,14  L 72,13  L 71,13  L 71,12  L 69,12  L 69,11  L 66,11  L 66,10  L 62,10  L 62,9  L 58,9  L 58,8  L 52,8  L 52,7  L 47,7  L 47,6  L 36,6  L 36,5  L 35,5  L 35,6  L 28,6  L 28,7  L 27,7  L 27,6  Z  " style="fill:rgb(0, 0, 0); fill-opacity:1.000; stroke:none;" />
</svg>
