<?xml version="1.0" encoding="UTF-8" standalone="no"?>
<!DOCTYPE svg PUBLIC "-//W3C//DTD SVG 1.1//EN" 
  "http://www.w3.org/Graphics/SVG/1.1/DTD/svg11.dtd">
<svg width="105" height="107"
     xmlns="http://www.w3.org/2000/svg" version="1.1">
 <path d="  M 24,98  L 24,99  L 13,99  L 13,100  L 12,100  L 12,99  L 11,99  L 11,100  L 6,100  L 6,101  L 5,101  L 5,100  L 4,100  L 4,101  L 1,101  L 1,102  L 0,102  L 0,103  L 1,103  L 1,106  L 2,106  L 2,107  L 13,107  L 13,106  L 22,106  L 22,105  L 23,105  L 23,106  L 24,106  L 24,105  L 25,105  L 25,106  L 26,106  L 26,105  L 27,105  L 27,106  L 28,106  L 28,105  L 43,105  L 43,104  L 60,104  L 60,103  L 76,103  L 76,102  L 77,102  L 77,103  L 78,103  L 78,102  L 104,102  L 104,100  L 105,100  L 105,93  L 104,93  L 104,92  L 103,92  L 103,93  L 99,93  L 99,94  L 96,94  L 96,95  L 81,95  L 81,96  L 80,96  L 80,95  L 79,95  L 79,96  L 78,96  L 78,95  L 77,95  L 77,96  L 59,96  L 59,97  L 57,97  L 57,96  L 55,96  L 55,97  L 39,97  L 39,98  Z  " style="fill:rgb(0, 0, 0); fill-opacity:1.000; stroke:none;" />
 <path d="  M 19,14  L 18,14  L 18,17  L 19,17  L 19,18  L 18,18  L 18,26  L 19,26  L 19,39  L 18,39  L 18,40  L 19,40  L 19,62  L 20,62  L 20,67  L 21,67  L 21,68  L 22,68  L 22,70  L 24,70  L 24,71  L 38,71  L 38,70  L 39,70  L 39,71  L 40,71  L 40,70  L 41,70  L 41,71  L 42,71  L 42,70  L 52,70  L 52,69  L 63,69  L 63,68  L 72,68  L 72,67  L 80,67  L 80,66  L 87,66  L 87,65  L 88,65  L 88,64  L 89,64  L 89,62  L 90,62  L 90,57  L 89,57  L 89,56  L 84,56  L 84,57  L 82,57  L 82,58  L 79,58  L 79,59  L 76,59  L 76,60  L 72,60  L 72,61  L 62,61  L 62,62  L 61,62  L 61,61  L 59,61  L 59,62  L 49,62  L 49,63  L 35,63  L 35,64  L 34,64  L 34,63  L 33,63  L 33,64  L 31,64  L 31,63  L 28,63  L 28,62  L 27,62  L 27,61  L 26,61  L 26,55  L 25,55  L 25,45  L 26,45  L 26,41  L 27,41  L 27,40  L 30,40  L 30,39  L 36,39  L 36,38  L 37,38  L 37,39  L 40,39  L 40,38  L 41,38  L 41,39  L 42,39  L 42,38  L 56,38  L 56,37  L 64,37  L 64,36  L 73,36  L 73,35  L 76,35  L 76,34  L 79,34  L 79,33  L 80,33  L 80,32  L 81,32  L 81,31  L 80,31  L 80,30  L 81,30  L 81,27  L 80,27  L 80,25  L 76,25  L 76,26  L 74,26  L 74,27  L 72,27  L 72,28  L 70,28  L 70,29  L 63,29  L 63,30  L 56,30  L 56,31  L 45,31  L 45,32  L 44,32  L 44,31  L 41,31  L 41,32  L 40,32  L 40,31  L 39,31  L 39,32  L 27,32  L 27,31  L 26,31  L 26,29  L 25,29  L 25,16  L 26,16  L 26,15  L 27,15  L 27,14  L 28,14  L 28,12  L 30,12  L 30,11  L 33,11  L 33,10  L 40,10  L 40,9  L 54,9  L 54,8  L 57,8  L 57,9  L 58,9  L 58,8  L 77,8  L 77,7  L 79,7  L 79,5  L 78,5  L 78,4  L 77,4  L 77,3  L 76,3  L 76,2  L 75,2  L 75,1  L 72,1  L 72,0  L 71,0  L 71,1  L 70,1  L 70,0  L 67,0  L 67,1  L 64,1  L 64,0  L 63,0  L 63,1  L 55,1  L 55,2  L 53,2  L 53,1  L 51,1  L 51,2  L 48,2  L 48,1  L 47,1  L 47,2  L 41,2  L 41,3  L 30,3  L 30,4  L 29,4  L 29,3  L 28,3  L 28,4  L 27,4  L 27,5  L 25,5  L 25,6  L 24,6  L 24,7  L 23,7  L 23,8  L 21,8  L 21,10  L 20,10  L 20,11  L 19,11  Z  " style="fill:rgb(0, 0, 0); fill-opacity:1.000; stroke:none;" />
</svg>
