<?xml version="1.0" encoding="UTF-8" standalone="no"?>
<!DOCTYPE svg PUBLIC "-//W3C//DTD SVG 1.1//EN" 
  "http://www.w3.org/Graphics/SVG/1.1/DTD/svg11.dtd">
<svg width="102" height="175"
     xmlns="http://www.w3.org/2000/svg" version="1.1">
 <path d="  M 35,79  L 35,80  L 24,80  L 24,81  L 16,81  L 16,82  L 8,82  L 8,83  L 4,83  L 4,84  L 1,84  L 1,86  L 0,86  L 0,90  L 1,90  L 1,91  L 2,91  L 2,92  L 4,92  L 4,91  L 6,91  L 6,90  L 9,90  L 9,89  L 13,89  L 13,88  L 25,88  L 25,87  L 27,87  L 27,88  L 28,88  L 28,87  L 34,87  L 34,86  L 36,86  L 36,87  L 37,87  L 37,86  L 85,86  L 85,85  L 87,85  L 87,86  L 89,86  L 89,85  L 91,85  L 91,86  L 93,86  L 93,85  L 95,85  L 95,84  L 97,84  L 97,83  L 98,83  L 98,82  L 99,82  L 99,81  L 100,81  L 100,77  L 99,77  L 99,76  L 98,76  L 98,75  L 95,75  L 95,76  L 94,76  L 94,77  L 91,77  L 91,78  L 88,78  L 88,79  Z  " style="fill:rgb(0, 0, 0); fill-opacity:1.000; stroke:none;" />
 <path d="  M 14,5  L 13,5  L 13,10  L 12,10  L 12,11  L 9,11  L 9,12  L 8,12  L 8,17  L 10,17  L 10,19  L 13,19  L 13,17  L 14,17  L 14,16  L 16,16  L 16,15  L 18,15  L 18,18  L 19,18  L 19,23  L 18,23  L 18,35  L 19,35  L 19,40  L 20,40  L 20,54  L 21,54  L 21,57  L 22,57  L 22,60  L 23,60  L 23,61  L 24,61  L 24,62  L 25,62  L 25,63  L 28,63  L 28,64  L 31,64  L 31,65  L 32,65  L 32,64  L 41,64  L 41,63  L 48,63  L 48,62  L 58,62  L 58,61  L 59,61  L 59,62  L 61,62  L 61,61  L 69,61  L 69,60  L 72,60  L 72,59  L 73,59  L 73,58  L 74,58  L 74,57  L 75,57  L 75,56  L 74,56  L 74,51  L 73,51  L 73,50  L 71,50  L 71,52  L 70,52  L 70,53  L 68,53  L 68,54  L 61,54  L 61,55  L 53,55  L 53,56  L 45,56  L 45,57  L 38,57  L 38,58  L 29,58  L 29,57  L 28,57  L 28,55  L 27,55  L 27,42  L 28,42  L 28,41  L 33,41  L 33,40  L 44,40  L 44,39  L 54,39  L 54,38  L 73,38  L 73,37  L 75,37  L 75,36  L 76,36  L 76,32  L 75,32  L 75,30  L 71,30  L 71,31  L 64,31  L 64,32  L 60,32  L 60,33  L 59,33  L 59,32  L 56,32  L 56,33  L 55,33  L 55,32  L 54,32  L 54,33  L 38,33  L 38,34  L 37,34  L 37,33  L 36,33  L 36,34  L 35,34  L 35,33  L 30,33  L 30,34  L 29,34  L 29,33  L 26,33  L 26,31  L 25,31  L 25,25  L 26,25  L 26,21  L 27,21  L 27,18  L 28,18  L 28,17  L 29,17  L 29,16  L 33,16  L 33,15  L 51,15  L 51,16  L 62,16  L 62,17  L 67,17  L 67,18  L 70,18  L 70,17  L 71,17  L 71,15  L 72,15  L 72,14  L 71,14  L 71,12  L 70,12  L 70,11  L 69,11  L 69,10  L 66,10  L 66,9  L 55,9  L 55,8  L 47,8  L 47,7  L 29,7  L 29,8  L 28,8  L 28,7  L 27,7  L 27,8  L 22,8  L 22,9  L 21,9  L 21,8  L 20,8  L 20,7  L 19,7  L 19,4  L 18,4  L 18,3  L 17,3  L 17,1  L 16,1  L 16,0  L 15,0  L 15,1  L 14,1  Z  " style="fill:rgb(0, 0, 0); fill-opacity:1.000; stroke:none;" />
 <path d="  M 38,107  L 38,108  L 34,108  L 34,109  L 33,109  L 33,108  L 28,108  L 28,107  L 27,107  L 27,108  L 24,108  L 24,109  L 23,109  L 23,110  L 22,110  L 22,111  L 21,111  L 21,112  L 20,112  L 20,114  L 19,114  L 19,115  L 17,115  L 17,117  L 18,117  L 18,120  L 19,120  L 19,126  L 18,126  L 18,170  L 19,170  L 19,171  L 20,171  L 20,173  L 21,173  L 21,175  L 46,175  L 46,174  L 48,174  L 48,175  L 49,175  L 49,174  L 54,174  L 54,173  L 62,173  L 62,172  L 69,172  L 69,171  L 74,171  L 74,170  L 78,170  L 78,169  L 80,169  L 80,168  L 84,168  L 84,167  L 87,167  L 87,166  L 89,166  L 89,165  L 92,165  L 92,164  L 94,164  L 94,163  L 99,163  L 99,162  L 102,162  L 102,156  L 95,156  L 95,157  L 92,157  L 92,158  L 89,158  L 89,159  L 86,159  L 86,160  L 84,160  L 84,161  L 82,161  L 82,160  L 81,160  L 81,161  L 80,161  L 80,162  L 76,162  L 76,163  L 70,163  L 70,164  L 65,164  L 65,165  L 60,165  L 60,166  L 48,166  L 48,167  L 39,167  L 39,168  L 33,168  L 33,167  L 27,167  L 27,166  L 25,166  L 25,163  L 24,163  L 24,160  L 25,160  L 25,158  L 24,158  L 24,157  L 25,157  L 25,128  L 24,128  L 24,127  L 25,127  L 25,123  L 26,123  L 26,121  L 27,121  L 27,120  L 28,120  L 28,119  L 29,119  L 29,118  L 34,118  L 34,117  L 36,117  L 36,116  L 40,116  L 40,115  L 45,115  L 45,114  L 52,114  L 52,113  L 56,113  L 56,112  L 66,112  L 66,111  L 86,111  L 86,110  L 87,110  L 87,109  L 88,109  L 88,105  L 87,105  L 87,104  L 86,104  L 86,103  L 77,103  L 77,104  L 76,104  L 76,103  L 75,103  L 75,104  L 59,104  L 59,105  L 52,105  L 52,106  L 45,106  L 45,107  Z  " style="fill:rgb(0, 0, 0); fill-opacity:1.000; stroke:none;" />
 <path d="  M 74,50  L 74,51  L 75,51  L 75,50  Z  " style="fill:rgb(0, 0, 0); fill-opacity:1.000; stroke:none;" />
</svg>
