<?xml version="1.0" encoding="UTF-8" standalone="no"?>
<!DOCTYPE svg PUBLIC "-//W3C//DTD SVG 1.1//EN" 
  "http://www.w3.org/Graphics/SVG/1.1/DTD/svg11.dtd">
<svg width="99" height="171"
     xmlns="http://www.w3.org/2000/svg" version="1.1">
 <path d="  M 15,83  L 15,82  L 21,82  L 21,81  L 22,81  L 22,82  L 23,82  L 23,81  L 27,81  L 27,80  L 28,80  L 28,81  L 29,81  L 29,80  L 34,80  L 34,79  L 55,79  L 55,78  L 63,78  L 63,77  L 79,77  L 79,76  L 88,76  L 88,75  L 94,75  L 94,74  L 98,74  L 98,73  L 99,73  L 99,66  L 98,66  L 98,65  L 97,65  L 97,64  L 96,64  L 96,65  L 95,65  L 95,64  L 94,64  L 94,65  L 93,65  L 93,66  L 92,66  L 92,67  L 91,67  L 91,68  L 88,68  L 88,69  L 83,69  L 83,70  L 70,70  L 70,71  L 67,71  L 67,70  L 66,70  L 66,71  L 53,71  L 53,72  L 52,72  L 52,71  L 50,71  L 50,72  L 48,72  L 48,71  L 47,71  L 47,72  L 35,72  L 35,73  L 29,73  L 29,74  L 23,74  L 23,75  L 21,75  L 21,74  L 20,74  L 20,75  L 15,75  L 15,76  L 9,76  L 9,77  L 1,77  L 1,82  L 2,82  L 2,84  L 5,84  L 5,85  L 6,85  L 6,84  L 10,84  L 10,83  Z  " style="fill:rgb(0, 0, 0); fill-opacity:1.000; stroke:none;" />
 <path d="  M 21,167  L 22,167  L 22,168  L 23,168  L 23,169  L 24,169  L 24,170  L 27,170  L 27,171  L 42,171  L 42,170  L 48,170  L 48,169  L 54,169  L 54,168  L 59,168  L 59,167  L 63,167  L 63,166  L 64,166  L 64,167  L 65,167  L 65,166  L 68,166  L 68,165  L 72,165  L 72,164  L 74,164  L 74,163  L 77,163  L 77,162  L 78,162  L 78,161  L 80,161  L 80,160  L 82,160  L 82,159  L 83,159  L 83,158  L 85,158  L 85,157  L 86,157  L 86,156  L 87,156  L 87,154  L 86,154  L 86,143  L 85,143  L 85,142  L 86,142  L 86,135  L 87,135  L 87,130  L 88,130  L 88,118  L 89,118  L 89,117  L 88,117  L 88,114  L 89,114  L 89,113  L 88,113  L 88,110  L 89,110  L 89,109  L 88,109  L 88,106  L 89,106  L 89,105  L 88,105  L 88,100  L 87,100  L 87,99  L 86,99  L 86,98  L 84,98  L 84,97  L 78,97  L 78,98  L 48,98  L 48,99  L 36,99  L 36,100  L 34,100  L 34,99  L 31,99  L 31,98  L 28,98  L 28,99  L 25,99  L 25,100  L 23,100  L 23,101  L 18,101  L 18,102  L 17,102  L 17,103  L 15,103  L 15,104  L 14,104  L 14,106  L 15,106  L 15,107  L 16,107  L 16,108  L 20,108  L 20,109  L 21,109  L 21,110  L 22,110  L 22,125  L 21,125  L 21,126  L 22,126  L 22,127  L 21,127  L 21,128  L 22,128  L 22,129  L 21,129  L 21,130  L 22,130  L 22,131  L 21,131  L 21,132  L 22,132  L 22,133  L 21,133  L 21,134  L 22,134  L 22,135  L 21,135  L 21,136  L 22,136  L 22,137  L 21,137  Z  M 81,123  L 80,123  L 80,133  L 79,133  L 79,139  L 78,139  L 78,150  L 79,150  L 79,152  L 78,152  L 78,154  L 77,154  L 77,155  L 74,155  L 74,156  L 72,156  L 72,157  L 69,157  L 69,158  L 67,158  L 67,159  L 62,159  L 62,160  L 57,160  L 57,161  L 52,161  L 52,162  L 47,162  L 47,163  L 42,163  L 42,164  L 39,164  L 39,163  L 38,163  L 38,164  L 35,164  L 35,163  L 32,163  L 32,162  L 29,162  L 29,161  L 28,161  L 28,158  L 27,158  L 27,155  L 28,155  L 28,120  L 29,120  L 29,119  L 28,119  L 28,117  L 29,117  L 29,111  L 30,111  L 30,108  L 31,108  L 31,107  L 39,107  L 39,106  L 40,106  L 40,107  L 41,107  L 41,106  L 50,106  L 50,105  L 63,105  L 63,104  L 64,104  L 64,105  L 66,105  L 66,104  L 68,104  L 68,105  L 70,105  L 70,104  L 72,104  L 72,105  L 74,105  L 74,104  L 80,104  L 80,105  L 81,105  Z  " style="fill:rgb(0, 0, 0); fill-opacity:1.000; stroke:none;" />
 <path d="  M 71,53  L 71,52  L 73,52  L 73,51  L 74,51  L 74,48  L 75,48  L 75,46  L 76,46  L 76,45  L 75,45  L 75,44  L 70,44  L 70,45  L 67,45  L 67,46  L 65,46  L 65,47  L 61,47  L 61,48  L 60,48  L 60,47  L 59,47  L 59,48  L 55,48  L 55,49  L 48,49  L 48,50  L 42,50  L 42,51  L 36,51  L 36,52  L 32,52  L 32,51  L 31,51  L 31,50  L 30,50  L 30,38  L 31,38  L 31,36  L 33,36  L 33,35  L 42,35  L 42,34  L 49,34  L 49,33  L 55,33  L 55,32  L 56,32  L 56,33  L 58,33  L 58,32  L 64,32  L 64,31  L 70,31  L 70,30  L 71,30  L 71,31  L 72,31  L 72,30  L 75,30  L 75,29  L 76,29  L 76,28  L 77,28  L 77,26  L 76,26  L 76,23  L 71,23  L 71,24  L 67,24  L 67,25  L 61,25  L 61,26  L 53,26  L 53,27  L 51,27  L 51,26  L 50,26  L 50,27  L 45,27  L 45,28  L 44,28  L 44,27  L 43,27  L 43,28  L 30,28  L 30,25  L 29,25  L 29,24  L 30,24  L 30,18  L 31,18  L 31,15  L 32,15  L 32,14  L 31,14  L 31,13  L 32,13  L 32,11  L 34,11  L 34,10  L 43,10  L 43,9  L 44,9  L 44,10  L 63,10  L 63,11  L 72,11  L 72,10  L 73,10  L 73,8  L 74,8  L 74,6  L 73,6  L 73,4  L 70,4  L 70,3  L 69,3  L 69,4  L 67,4  L 67,3  L 58,3  L 58,2  L 47,2  L 47,1  L 46,1  L 46,2  L 45,2  L 45,1  L 30,1  L 30,2  L 27,2  L 27,3  L 24,3  L 24,4  L 23,4  L 23,5  L 22,5  L 22,6  L 23,6  L 23,9  L 22,9  L 22,10  L 23,10  L 23,13  L 22,13  L 22,14  L 23,14  L 23,15  L 22,15  L 22,16  L 23,16  L 23,17  L 22,17  L 22,18  L 23,18  L 23,21  L 22,21  L 22,22  L 23,22  L 23,23  L 22,23  L 22,32  L 23,32  L 23,33  L 22,33  L 22,34  L 23,34  L 23,49  L 24,49  L 24,53  L 25,53  L 25,55  L 26,55  L 26,56  L 27,56  L 27,57  L 28,57  L 28,58  L 31,58  L 31,59  L 34,59  L 34,58  L 39,58  L 39,57  L 47,57  L 47,56  L 51,56  L 51,55  L 57,55  L 57,54  L 63,54  L 63,53  Z  " style="fill:rgb(0, 0, 0); fill-opacity:1.000; stroke:none;" />
</svg>
