<?xml version="1.0" encoding="UTF-8" standalone="no"?>
<!DOCTYPE svg PUBLIC "-//W3C//DTD SVG 1.1//EN" 
  "http://www.w3.org/Graphics/SVG/1.1/DTD/svg11.dtd">
<svg width="102" height="186"
     xmlns="http://www.w3.org/2000/svg" version="1.1">
 <path d="  M 31,75  L 31,76  L 24,76  L 24,77  L 16,77  L 16,78  L 10,78  L 10,79  L 5,79  L 5,80  L 2,80  L 2,81  L 0,81  L 0,85  L 1,85  L 1,86  L 2,86  L 2,87  L 4,87  L 4,86  L 8,86  L 8,85  L 9,85  L 9,86  L 10,86  L 10,85  L 15,85  L 15,84  L 25,84  L 25,83  L 36,83  L 36,82  L 38,82  L 38,83  L 39,83  L 39,82  L 51,82  L 51,81  L 76,81  L 76,80  L 77,80  L 77,81  L 78,81  L 78,80  L 79,80  L 79,81  L 80,81  L 80,80  L 81,80  L 81,81  L 82,81  L 82,80  L 94,80  L 94,79  L 101,79  L 101,78  L 102,78  L 102,73  L 101,73  L 101,72  L 100,72  L 100,71  L 97,71  L 97,72  L 96,72  L 96,71  L 95,71  L 95,72  L 93,72  L 93,73  L 88,73  L 88,74  L 59,74  L 59,75  L 58,75  L 58,74  L 57,74  L 57,75  L 56,75  L 56,74  L 53,74  L 53,75  L 46,75  L 46,74  L 45,74  L 45,75  Z  " style="fill:rgb(0, 0, 0); fill-opacity:1.000; stroke:none;" />
 <path d="  M 14,13  L 15,13  L 15,12  L 14,12  Z  " style="fill:rgb(0, 0, 0); fill-opacity:1.000; stroke:none;" />
 <path d="  M 22,6  L 22,3  L 21,3  L 21,1  L 20,1  L 20,0  L 17,0  L 17,10  L 19,10  L 19,9  L 21,9  L 21,10  L 22,10  L 22,17  L 23,17  L 23,19  L 22,19  L 22,21  L 23,21  L 23,24  L 22,24  L 22,39  L 23,39  L 23,49  L 24,49  L 24,54  L 25,54  L 25,57  L 26,57  L 26,59  L 27,59  L 27,60  L 28,60  L 28,61  L 29,61  L 29,62  L 31,62  L 31,63  L 38,63  L 38,62  L 49,62  L 49,61  L 58,61  L 58,60  L 64,60  L 64,59  L 67,59  L 67,58  L 71,58  L 71,57  L 73,57  L 73,56  L 74,56  L 74,53  L 75,53  L 75,52  L 74,52  L 74,50  L 75,50  L 75,49  L 74,49  L 74,48  L 72,48  L 72,49  L 70,49  L 70,50  L 69,50  L 69,51  L 67,51  L 67,52  L 64,52  L 64,53  L 60,53  L 60,54  L 53,54  L 53,55  L 52,55  L 52,54  L 51,54  L 51,55  L 44,55  L 44,56  L 33,56  L 33,55  L 31,55  L 31,54  L 30,54  L 30,41  L 31,41  L 31,39  L 33,39  L 33,38  L 36,38  L 36,37  L 37,37  L 37,38  L 38,38  L 38,37  L 50,37  L 50,36  L 57,36  L 57,35  L 64,35  L 64,34  L 74,34  L 74,33  L 76,33  L 76,31  L 77,31  L 77,28  L 76,28  L 76,27  L 72,27  L 72,26  L 70,26  L 70,27  L 63,27  L 63,28  L 56,28  L 56,29  L 52,29  L 52,30  L 41,30  L 41,31  L 30,31  L 30,30  L 29,30  L 29,29  L 30,29  L 30,22  L 31,22  L 31,15  L 33,15  L 33,14  L 35,14  L 35,13  L 54,13  L 54,14  L 63,14  L 63,15  L 72,15  L 72,13  L 73,13  L 73,12  L 72,12  L 72,10  L 71,10  L 71,9  L 68,9  L 68,8  L 64,8  L 64,7  L 57,7  L 57,6  L 48,6  L 48,5  L 29,5  L 29,6  Z  " style="fill:rgb(0, 0, 0); fill-opacity:1.000; stroke:none;" />
 <path d="  M 21,138  L 21,141  L 20,141  L 20,142  L 21,142  L 21,149  L 20,149  L 20,150  L 21,150  L 21,153  L 20,153  L 20,154  L 21,154  L 21,157  L 20,157  L 20,158  L 21,158  L 21,164  L 20,164  L 20,165  L 21,165  L 21,175  L 22,175  L 22,178  L 23,178  L 23,180  L 24,180  L 24,181  L 25,181  L 25,182  L 26,182  L 26,183  L 27,183  L 27,184  L 28,184  L 28,185  L 31,185  L 31,186  L 35,186  L 35,185  L 37,185  L 37,184  L 42,184  L 42,183  L 52,183  L 52,182  L 57,182  L 57,181  L 60,181  L 60,180  L 62,180  L 62,179  L 67,179  L 67,178  L 70,178  L 70,177  L 73,177  L 73,176  L 75,176  L 75,175  L 77,175  L 77,174  L 79,174  L 79,173  L 80,173  L 80,172  L 81,172  L 81,171  L 82,171  L 82,170  L 84,170  L 84,164  L 83,164  L 83,162  L 84,162  L 84,149  L 85,149  L 85,148  L 84,148  L 84,145  L 85,145  L 85,140  L 86,140  L 86,133  L 87,133  L 87,116  L 86,116  L 86,107  L 85,107  L 85,99  L 84,99  L 84,94  L 83,94  L 83,88  L 82,88  L 82,87  L 79,87  L 79,88  L 78,88  L 78,104  L 79,104  L 79,106  L 78,106  L 78,107  L 79,107  L 79,119  L 80,119  L 80,126  L 79,126  L 79,127  L 77,127  L 77,128  L 69,128  L 69,129  L 66,129  L 66,130  L 59,130  L 59,131  L 53,131  L 53,132  L 36,132  L 36,131  L 34,131  L 34,130  L 30,130  L 30,129  L 28,129  L 28,127  L 27,127  L 27,122  L 28,122  L 28,120  L 29,120  L 29,115  L 30,115  L 30,109  L 31,109  L 31,106  L 32,106  L 32,102  L 33,102  L 33,96  L 28,96  L 28,97  L 27,97  L 27,98  L 26,98  L 26,101  L 25,101  L 25,103  L 24,103  L 24,107  L 23,107  L 23,113  L 22,113  L 22,117  L 21,117  L 21,124  L 20,124  L 20,125  L 21,125  L 21,126  L 20,126  L 20,138  Z  M 65,138  L 65,137  L 72,137  L 72,136  L 73,136  L 73,137  L 74,137  L 74,136  L 78,136  L 78,148  L 77,148  L 77,157  L 78,157  L 78,159  L 79,159  L 79,162  L 80,162  L 80,163  L 79,163  L 79,165  L 78,165  L 78,166  L 76,166  L 76,167  L 75,167  L 75,168  L 73,168  L 73,169  L 72,169  L 72,168  L 71,168  L 71,169  L 70,169  L 70,170  L 67,170  L 67,171  L 64,171  L 64,172  L 61,172  L 61,173  L 60,173  L 60,172  L 59,172  L 59,173  L 58,173  L 58,174  L 54,174  L 54,175  L 49,175  L 49,176  L 39,176  L 39,175  L 36,175  L 36,174  L 33,174  L 33,173  L 32,173  L 32,172  L 31,172  L 31,171  L 29,171  L 29,169  L 28,169  L 28,167  L 27,167  L 27,155  L 28,155  L 28,152  L 27,152  L 27,151  L 28,151  L 28,148  L 27,148  L 27,147  L 28,147  L 28,144  L 27,144  L 27,141  L 28,141  L 28,140  L 27,140  L 27,139  L 28,139  L 28,137  L 29,137  L 29,136  L 31,136  L 31,137  L 32,137  L 32,138  L 33,138  L 33,139  L 40,139  L 40,140  L 47,140  L 47,141  L 48,141  L 48,140  L 51,140  L 51,141  L 52,141  L 52,140  L 57,140  L 57,139  L 61,139  L 61,138  Z  " style="fill:rgb(0, 0, 0); fill-opacity:1.000; stroke:none;" />
</svg>
