<?xml version="1.0" encoding="UTF-8" standalone="no"?>
<!DOCTYPE svg PUBLIC "-//W3C//DTD SVG 1.1//EN" 
  "http://www.w3.org/Graphics/SVG/1.1/DTD/svg11.dtd">
<svg width="103" height="136"
     xmlns="http://www.w3.org/2000/svg" version="1.1">
 <path d="  M 0,25  L 0,27  L 3,27  L 3,29  L 4,29  L 4,31  L 5,31  L 5,33  L 4,33  L 4,35  L 5,35  L 5,38  L 4,38  L 4,39  L 5,39  L 5,42  L 4,42  L 4,43  L 5,43  L 5,45  L 4,45  L 4,47  L 5,47  L 5,55  L 6,55  L 6,61  L 7,61  L 7,64  L 8,64  L 8,68  L 9,68  L 9,72  L 10,72  L 10,73  L 11,73  L 11,75  L 13,75  L 13,76  L 14,76  L 14,77  L 18,77  L 18,78  L 24,78  L 24,77  L 33,77  L 33,76  L 39,76  L 39,75  L 47,75  L 47,74  L 55,74  L 55,73  L 61,73  L 61,72  L 65,72  L 65,71  L 66,71  L 66,72  L 67,72  L 67,71  L 70,71  L 70,70  L 71,70  L 71,69  L 72,69  L 72,66  L 73,66  L 73,61  L 71,61  L 71,62  L 68,62  L 68,63  L 66,63  L 66,64  L 63,64  L 63,65  L 60,65  L 60,66  L 55,66  L 55,67  L 49,67  L 49,68  L 43,68  L 43,69  L 35,69  L 35,70  L 19,70  L 19,69  L 17,69  L 17,68  L 16,68  L 16,66  L 15,66  L 15,64  L 14,64  L 14,63  L 15,63  L 15,62  L 14,62  L 14,60  L 15,60  L 15,57  L 16,57  L 16,56  L 18,56  L 18,55  L 22,55  L 22,54  L 24,54  L 24,53  L 26,53  L 26,52  L 31,52  L 31,51  L 37,51  L 37,50  L 42,50  L 42,49  L 47,49  L 47,48  L 51,48  L 51,47  L 52,47  L 52,48  L 53,48  L 53,47  L 56,47  L 56,46  L 60,46  L 60,45  L 64,45  L 64,44  L 66,44  L 66,43  L 67,43  L 67,42  L 68,42  L 68,41  L 69,41  L 69,40  L 70,40  L 70,39  L 69,39  L 69,36  L 68,36  L 68,34  L 67,34  L 67,35  L 64,35  L 64,36  L 61,36  L 61,37  L 59,37  L 59,38  L 57,38  L 57,39  L 53,39  L 53,40  L 50,40  L 50,41  L 47,41  L 47,42  L 42,42  L 42,43  L 41,43  L 41,42  L 40,42  L 40,43  L 37,43  L 37,44  L 32,44  L 32,45  L 27,45  L 27,46  L 20,46  L 20,47  L 13,47  L 13,46  L 11,46  L 11,45  L 12,45  L 12,44  L 11,44  L 11,42  L 12,42  L 12,33  L 13,33  L 13,31  L 14,31  L 14,30  L 15,30  L 15,29  L 17,29  L 17,28  L 23,28  L 23,27  L 28,27  L 28,26  L 32,26  L 32,25  L 37,25  L 37,24  L 40,24  L 40,23  L 44,23  L 44,22  L 47,22  L 47,21  L 51,21  L 51,20  L 55,20  L 55,19  L 61,19  L 61,18  L 62,18  L 62,19  L 64,19  L 64,18  L 67,18  L 67,17  L 68,17  L 68,16  L 69,16  L 69,15  L 68,15  L 68,13  L 66,13  L 66,12  L 65,12  L 65,11  L 64,11  L 64,12  L 63,12  L 63,11  L 62,11  L 62,12  L 55,12  L 55,13  L 49,13  L 49,14  L 44,14  L 44,15  L 40,15  L 40,16  L 38,16  L 38,15  L 37,15  L 37,16  L 35,16  L 35,17  L 31,17  L 31,18  L 28,18  L 28,19  L 24,19  L 24,20  L 19,20  L 19,21  L 15,21  L 15,22  L 14,22  L 14,21  L 13,21  L 13,22  L 8,22  L 8,23  L 6,23  L 6,24  L 4,24  L 4,25  Z  " style="fill:rgb(0, 0, 0); fill-opacity:1.000; stroke:none;" />
 <path d="  M 27,103  L 27,102  L 32,102  L 32,101  L 36,101  L 36,100  L 42,100  L 42,99  L 45,99  L 45,98  L 53,98  L 53,97  L 58,97  L 58,96  L 66,96  L 66,95  L 71,95  L 71,94  L 72,94  L 72,95  L 73,95  L 73,94  L 77,94  L 77,93  L 81,93  L 81,92  L 82,92  L 82,91  L 84,91  L 84,89  L 85,89  L 85,88  L 84,88  L 84,85  L 77,85  L 77,86  L 75,86  L 75,87  L 71,87  L 71,88  L 69,88  L 69,89  L 64,89  L 64,90  L 52,90  L 52,91  L 50,91  L 50,90  L 48,90  L 48,91  L 41,91  L 41,92  L 36,92  L 36,93  L 32,93  L 32,94  L 27,94  L 27,95  L 26,95  L 26,94  L 25,94  L 25,95  L 22,95  L 22,96  L 15,96  L 15,97  L 12,97  L 12,98  L 7,98  L 7,99  L 5,99  L 5,100  L 4,100  L 4,99  L 3,99  L 3,100  L 2,100  L 2,102  L 1,102  L 1,104  L 2,104  L 2,105  L 3,105  L 3,106  L 4,106  L 4,107  L 5,107  L 5,106  L 8,106  L 8,107  L 9,107  L 9,106  L 11,106  L 11,105  L 16,105  L 16,104  L 22,104  L 22,103  Z  " style="fill:rgb(0, 0, 0); fill-opacity:1.000; stroke:none;" />
 <path d="  M 94,25  L 95,25  L 95,31  L 96,31  L 96,41  L 97,41  L 97,122  L 96,122  L 96,124  L 97,124  L 97,126  L 96,126  L 96,136  L 102,136  L 102,135  L 103,135  L 103,34  L 102,34  L 102,24  L 101,24  L 101,20  L 100,20  L 100,12  L 99,12  L 99,11  L 100,11  L 100,9  L 99,9  L 99,2  L 98,2  L 98,1  L 97,1  L 97,0  L 96,0  L 96,1  L 93,1  L 93,2  L 92,2  L 92,11  L 93,11  L 93,17  L 94,17  Z  " style="fill:rgb(0, 0, 0); fill-opacity:1.000; stroke:none;" />
</svg>
