<?xml version="1.0" encoding="UTF-8" standalone="no"?>
<!DOCTYPE svg PUBLIC "-//W3C//DTD SVG 1.1//EN" 
  "http://www.w3.org/Graphics/SVG/1.1/DTD/svg11.dtd">
<svg width="103" height="148"
     xmlns="http://www.w3.org/2000/svg" version="1.1">
 <path d="  M 7,40  L 8,40  L 8,41  L 7,41  L 7,42  L 8,42  L 8,46  L 9,46  L 9,50  L 10,50  L 10,53  L 11,53  L 11,54  L 12,54  L 12,55  L 13,55  L 13,56  L 16,56  L 16,57  L 28,57  L 28,56  L 39,56  L 39,55  L 41,55  L 41,56  L 42,56  L 42,55  L 48,55  L 48,54  L 54,54  L 54,53  L 61,53  L 61,52  L 68,52  L 68,51  L 74,51  L 74,50  L 76,50  L 76,49  L 77,49  L 77,43  L 75,43  L 75,42  L 71,42  L 71,43  L 68,43  L 68,44  L 65,44  L 65,45  L 64,45  L 64,46  L 59,46  L 59,47  L 54,47  L 54,48  L 51,48  L 51,49  L 49,49  L 49,48  L 48,48  L 48,49  L 43,49  L 43,50  L 42,50  L 42,49  L 41,49  L 41,50  L 40,50  L 40,49  L 39,49  L 39,50  L 38,50  L 38,49  L 37,49  L 37,50  L 20,50  L 20,51  L 19,51  L 19,50  L 17,50  L 17,49  L 16,49  L 16,47  L 15,47  L 15,38  L 16,38  L 16,36  L 18,36  L 18,35  L 28,35  L 28,34  L 37,34  L 37,33  L 47,33  L 47,32  L 52,32  L 52,31  L 63,31  L 63,30  L 66,30  L 66,29  L 67,29  L 67,28  L 68,28  L 68,24  L 67,24  L 67,23  L 64,23  L 64,24  L 60,24  L 60,25  L 53,25  L 53,26  L 43,26  L 43,27  L 30,27  L 30,28  L 17,28  L 17,29  L 15,29  L 15,27  L 14,27  L 14,26  L 15,26  L 15,18  L 16,18  L 16,16  L 17,16  L 17,12  L 18,12  L 18,11  L 22,11  L 22,10  L 28,10  L 28,9  L 44,9  L 44,8  L 45,8  L 45,9  L 46,9  L 46,8  L 53,8  L 53,9  L 54,9  L 54,8  L 57,8  L 57,9  L 62,9  L 62,8  L 63,8  L 63,4  L 62,4  L 62,2  L 61,2  L 61,1  L 58,1  L 58,0  L 54,0  L 54,1  L 35,1  L 35,2  L 33,2  L 33,1  L 31,1  L 31,2  L 29,2  L 29,1  L 27,1  L 27,2  L 25,2  L 25,1  L 23,1  L 23,2  L 14,2  L 14,3  L 12,3  L 12,4  L 10,4  L 10,5  L 9,5  L 9,6  L 7,6  L 7,8  L 6,8  L 6,9  L 5,9  L 5,10  L 2,10  L 2,11  L 1,11  L 1,13  L 0,13  L 0,14  L 1,14  L 1,15  L 5,15  L 5,16  L 7,16  L 7,17  L 8,17  L 8,20  L 7,20  Z  " style="fill:rgb(0, 0, 0); fill-opacity:1.000; stroke:none;" />
 <path d="  M 63,71  L 63,72  L 56,72  L 56,73  L 49,73  L 49,74  L 48,74  L 48,73  L 47,73  L 47,74  L 37,74  L 37,75  L 33,75  L 33,76  L 32,76  L 32,75  L 31,75  L 31,76  L 27,76  L 27,77  L 18,77  L 18,78  L 9,78  L 9,79  L 7,79  L 7,78  L 6,78  L 6,79  L 3,79  L 3,80  L 2,80  L 2,81  L 1,81  L 1,82  L 0,82  L 0,83  L 1,83  L 1,85  L 0,85  L 0,86  L 9,86  L 9,85  L 11,85  L 11,84  L 13,84  L 13,85  L 14,85  L 14,84  L 20,84  L 20,83  L 30,83  L 30,82  L 36,82  L 36,81  L 40,81  L 40,80  L 41,80  L 41,81  L 43,81  L 43,80  L 47,80  L 47,79  L 54,79  L 54,78  L 62,78  L 62,77  L 71,77  L 71,76  L 75,76  L 75,75  L 81,75  L 81,74  L 83,74  L 83,72  L 84,72  L 84,70  L 83,70  L 83,68  L 82,68  L 82,67  L 80,67  L 80,66  L 79,66  L 79,67  L 78,67  L 78,66  L 77,66  L 77,67  L 75,67  L 75,68  L 72,68  L 72,70  L 71,70  L 71,69  L 70,69  L 70,70  L 66,70  L 66,71  Z  " style="fill:rgb(0, 0, 0); fill-opacity:1.000; stroke:none;" />
 <path d="  M 64,140  L 64,141  L 55,141  L 55,142  L 45,142  L 45,141  L 43,141  L 43,140  L 42,140  L 42,139  L 41,139  L 41,115  L 40,115  L 40,114  L 41,114  L 41,111  L 40,111  L 40,110  L 41,110  L 41,107  L 40,107  L 40,106  L 41,106  L 41,103  L 40,103  L 40,99  L 39,99  L 39,98  L 36,98  L 36,99  L 35,99  L 35,101  L 34,101  L 34,103  L 33,103  L 33,120  L 32,120  L 32,121  L 33,121  L 33,124  L 32,124  L 32,125  L 33,125  L 33,128  L 32,128  L 32,129  L 33,129  L 33,136  L 34,136  L 34,141  L 35,141  L 35,144  L 36,144  L 36,146  L 37,146  L 37,147  L 38,147  L 38,148  L 63,148  L 63,147  L 69,147  L 69,146  L 76,146  L 76,145  L 77,145  L 77,146  L 78,146  L 78,145  L 88,145  L 88,144  L 95,144  L 95,143  L 102,143  L 102,142  L 103,142  L 103,136  L 102,136  L 102,135  L 101,135  L 101,136  L 95,136  L 95,137  L 87,137  L 87,138  L 79,138  L 79,139  L 78,139  L 78,138  L 77,138  L 77,139  L 70,139  L 70,140  Z  " style="fill:rgb(0, 0, 0); fill-opacity:1.000; stroke:none;" />
 <path d="  M 95,100  L 96,100  L 96,104  L 100,104  L 100,103  L 101,103  L 101,102  L 102,102  L 102,91  L 101,91  L 101,90  L 102,90  L 102,89  L 101,89  L 101,86  L 102,86  L 102,85  L 101,85  L 101,82  L 102,82  L 102,81  L 101,81  L 101,78  L 102,78  L 102,77  L 101,77  L 101,76  L 102,76  L 102,73  L 101,73  L 101,72  L 102,72  L 102,69  L 101,69  L 101,68  L 102,68  L 102,65  L 101,65  L 101,64  L 102,64  L 102,57  L 101,57  L 101,56  L 102,56  L 102,53  L 101,53  L 101,52  L 102,52  L 102,49  L 101,49  L 101,46  L 102,46  L 102,45  L 101,45  L 101,35  L 100,35  L 100,28  L 99,28  L 99,23  L 98,23  L 98,17  L 97,17  L 97,11  L 96,11  L 96,4  L 95,4  L 95,2  L 94,2  L 94,1  L 90,1  L 90,2  L 89,2  L 89,9  L 90,9  L 90,14  L 91,14  L 91,20  L 92,20  L 92,24  L 93,24  L 93,32  L 94,32  L 94,38  L 95,38  Z  " style="fill:rgb(0, 0, 0); fill-opacity:1.000; stroke:none;" />
</svg>
