<?xml version="1.0" encoding="UTF-8" standalone="no"?>
<!DOCTYPE svg PUBLIC "-//W3C//DTD SVG 1.1//EN" 
  "http://www.w3.org/Graphics/SVG/1.1/DTD/svg11.dtd">
<svg width="106" height="184"
     xmlns="http://www.w3.org/2000/svg" version="1.1">
 <path d="  M 41,83  L 41,82  L 43,82  L 43,83  L 45,83  L 45,82  L 47,82  L 47,83  L 77,83  L 77,82  L 79,82  L 79,81  L 81,81  L 81,80  L 82,80  L 82,75  L 79,75  L 79,74  L 76,74  L 76,75  L 65,75  L 65,76  L 62,76  L 62,75  L 61,75  L 61,76  L 58,76  L 58,75  L 57,75  L 57,76  L 56,76  L 56,75  L 55,75  L 55,76  L 54,76  L 54,75  L 53,75  L 53,76  L 50,76  L 50,75  L 49,75  L 49,76  L 32,76  L 32,77  L 24,77  L 24,78  L 21,78  L 21,79  L 16,79  L 16,80  L 12,80  L 12,81  L 9,81  L 9,82  L 4,82  L 4,83  L 2,83  L 2,84  L 0,84  L 0,88  L 1,88  L 1,89  L 3,89  L 3,90  L 6,90  L 6,89  L 8,89  L 8,88  L 11,88  L 11,87  L 16,87  L 16,86  L 21,86  L 21,85  L 26,85  L 26,84  L 31,84  L 31,83  Z  " style="fill:rgb(0, 0, 0); fill-opacity:1.000; stroke:none;" />
 <path d="  M 60,51  L 60,52  L 56,52  L 56,53  L 50,53  L 50,54  L 25,54  L 25,53  L 22,53  L 22,52  L 21,52  L 21,51  L 20,51  L 20,49  L 21,49  L 21,47  L 20,47  L 20,40  L 21,40  L 21,37  L 24,37  L 24,36  L 34,36  L 34,35  L 35,35  L 35,36  L 38,36  L 38,35  L 39,35  L 39,36  L 42,36  L 42,35  L 43,35  L 43,36  L 44,36  L 44,35  L 45,35  L 45,36  L 46,36  L 46,35  L 65,35  L 65,34  L 70,34  L 70,33  L 72,33  L 72,31  L 73,31  L 73,27  L 66,27  L 66,28  L 65,28  L 65,27  L 64,27  L 64,28  L 63,28  L 63,27  L 62,27  L 62,28  L 61,28  L 61,27  L 60,27  L 60,28  L 57,28  L 57,27  L 56,27  L 56,28  L 53,28  L 53,27  L 52,27  L 52,28  L 49,28  L 49,27  L 48,27  L 48,28  L 45,28  L 45,27  L 44,27  L 44,28  L 36,28  L 36,29  L 34,29  L 34,28  L 32,28  L 32,29  L 30,29  L 30,28  L 28,28  L 28,29  L 22,29  L 22,28  L 21,28  L 21,15  L 20,15  L 20,14  L 21,14  L 21,13  L 24,13  L 24,12  L 30,12  L 30,11  L 31,11  L 31,12  L 32,12  L 32,11  L 33,11  L 33,12  L 34,12  L 34,11  L 35,11  L 35,12  L 36,12  L 36,11  L 39,11  L 39,12  L 40,12  L 40,11  L 43,11  L 43,12  L 44,12  L 44,11  L 68,11  L 68,10  L 70,10  L 70,9  L 71,9  L 71,4  L 69,4  L 69,3  L 54,3  L 54,4  L 37,4  L 37,5  L 34,5  L 34,4  L 33,4  L 33,5  L 19,5  L 19,6  L 14,6  L 14,7  L 10,7  L 10,8  L 9,8  L 9,9  L 7,9  L 7,10  L 5,10  L 5,11  L 4,11  L 4,12  L 3,12  L 3,18  L 8,18  L 8,17  L 9,17  L 9,18  L 10,18  L 10,19  L 11,19  L 11,38  L 10,38  L 10,48  L 11,48  L 11,54  L 12,54  L 12,55  L 13,55  L 13,57  L 15,57  L 15,58  L 16,58  L 16,59  L 17,59  L 17,58  L 18,58  L 18,59  L 22,59  L 22,60  L 26,60  L 26,61  L 52,61  L 52,60  L 58,60  L 58,59  L 64,59  L 64,58  L 67,58  L 67,57  L 71,57  L 71,56  L 73,56  L 73,55  L 74,55  L 74,54  L 75,54  L 75,52  L 76,52  L 76,48  L 74,48  L 74,47  L 70,47  L 70,48  L 68,48  L 68,49  L 66,49  L 66,50  L 65,50  L 65,51  Z  " style="fill:rgb(0, 0, 0); fill-opacity:1.000; stroke:none;" />
 <path d="  M 97,175  L 97,173  L 98,173  L 98,172  L 100,172  L 100,171  L 102,171  L 102,170  L 103,170  L 103,169  L 104,169  L 104,167  L 105,167  L 105,165  L 104,165  L 104,164  L 99,164  L 99,165  L 97,165  L 97,166  L 95,166  L 95,167  L 93,167  L 93,168  L 91,168  L 91,170  L 88,170  L 88,171  L 85,171  L 85,172  L 83,172  L 83,173  L 81,173  L 81,174  L 80,174  L 80,175  L 79,175  L 79,174  L 78,174  L 78,175  L 75,175  L 75,176  L 71,176  L 71,177  L 67,177  L 67,178  L 66,178  L 66,177  L 65,177  L 65,178  L 62,178  L 62,177  L 61,177  L 61,178  L 58,178  L 58,177  L 57,177  L 57,178  L 54,178  L 54,177  L 49,177  L 49,176  L 46,176  L 46,175  L 45,175  L 45,174  L 43,174  L 43,173  L 42,173  L 42,171  L 40,171  L 40,169  L 39,169  L 39,168  L 38,168  L 38,165  L 37,165  L 37,159  L 38,159  L 38,158  L 40,158  L 40,157  L 41,157  L 41,158  L 43,158  L 43,157  L 44,157  L 44,156  L 55,156  L 55,155  L 63,155  L 63,154  L 68,154  L 68,153  L 69,153  L 69,154  L 70,154  L 70,153  L 72,153  L 72,152  L 75,152  L 75,151  L 76,151  L 76,150  L 79,150  L 79,149  L 81,149  L 81,148  L 83,148  L 83,146  L 84,146  L 84,143  L 83,143  L 83,142  L 81,142  L 81,141  L 77,141  L 77,142  L 76,142  L 76,143  L 72,143  L 72,144  L 70,144  L 70,145  L 63,145  L 63,146  L 56,146  L 56,147  L 50,147  L 50,148  L 46,148  L 46,149  L 41,149  L 41,150  L 38,150  L 38,151  L 35,151  L 35,152  L 34,152  L 34,153  L 32,153  L 32,154  L 31,154  L 31,156  L 30,156  L 30,165  L 31,165  L 31,169  L 33,169  L 33,170  L 34,170  L 34,171  L 35,171  L 35,173  L 36,173  L 36,175  L 37,175  L 37,174  L 39,174  L 39,176  L 40,176  L 40,178  L 42,178  L 42,179  L 43,179  L 43,180  L 44,180  L 44,182  L 47,182  L 47,183  L 49,183  L 49,184  L 50,184  L 50,183  L 51,183  L 51,184  L 75,184  L 75,183  L 79,183  L 79,182  L 82,182  L 82,181  L 84,181  L 84,180  L 87,180  L 87,179  L 89,179  L 89,178  L 91,178  L 91,177  L 93,177  L 93,176  L 95,176  L 95,175  Z  " style="fill:rgb(0, 0, 0); fill-opacity:1.000; stroke:none;" />
 <path d="  M 80,116  L 78,116  L 78,115  L 77,115  L 77,114  L 75,114  L 75,113  L 74,113  L 74,112  L 73,112  L 73,111  L 70,111  L 70,110  L 68,110  L 68,109  L 66,109  L 66,108  L 64,108  L 64,107  L 51,107  L 51,108  L 47,108  L 47,110  L 45,110  L 45,111  L 43,111  L 43,112  L 41,112  L 41,113  L 39,113  L 39,114  L 37,114  L 37,116  L 36,116  L 36,117  L 35,117  L 35,118  L 34,118  L 34,121  L 33,121  L 33,122  L 34,122  L 34,124  L 36,124  L 36,125  L 37,125  L 37,126  L 38,126  L 38,125  L 40,125  L 40,124  L 41,124  L 41,123  L 44,123  L 44,122  L 50,122  L 50,121  L 51,121  L 51,122  L 52,122  L 52,118  L 54,118  L 54,117  L 56,117  L 56,118  L 57,118  L 57,117  L 59,117  L 59,118  L 65,118  L 65,120  L 62,120  L 62,121  L 61,121  L 61,122  L 64,122  L 64,123  L 65,123  L 65,124  L 67,124  L 67,125  L 68,125  L 68,124  L 70,124  L 70,125  L 72,125  L 72,124  L 73,124  L 73,126  L 76,126  L 76,128  L 77,128  L 77,129  L 76,129  L 76,132  L 77,132  L 77,133  L 79,133  L 79,134  L 80,134  L 80,135  L 81,135  L 81,134  L 83,134  L 83,133  L 85,133  L 85,132  L 86,132  L 86,130  L 87,130  L 87,129  L 88,129  L 88,125  L 87,125  L 87,123  L 86,123  L 86,121  L 85,121  L 85,120  L 84,120  L 84,119  L 83,119  L 83,118  L 82,118  L 82,117  L 81,117  L 81,118  L 80,118  Z  " style="fill:rgb(0, 0, 0); fill-opacity:1.000; stroke:none;" />
 <path d="  M 55,121  L 55,122  L 56,122  L 56,121  Z  " style="fill:rgb(0, 0, 0); fill-opacity:1.000; stroke:none;" />
 <path d="  M 99,62  L 98,62  L 98,63  L 99,63  L 99,64  L 98,64  L 98,104  L 99,104  L 99,105  L 104,105  L 104,103  L 105,103  L 105,74  L 106,74  L 106,73  L 105,73  L 105,72  L 106,72  L 106,71  L 105,71  L 105,70  L 106,70  L 106,2  L 105,2  L 105,0  L 101,0  L 101,1  L 100,1  L 100,2  L 99,2  Z  " style="fill:rgb(0, 0, 0); fill-opacity:1.000; stroke:none;" />
</svg>
