<?xml version="1.0" encoding="UTF-8" standalone="no"?>
<!DOCTYPE svg PUBLIC "-//W3C//DTD SVG 1.1//EN" 
  "http://www.w3.org/Graphics/SVG/1.1/DTD/svg11.dtd">
<svg width="102" height="157"
     xmlns="http://www.w3.org/2000/svg" version="1.1">
 <path d="  M 55,51  L 55,50  L 61,50  L 61,49  L 64,49  L 64,48  L 67,48  L 67,47  L 69,47  L 69,46  L 72,46  L 72,45  L 74,45  L 74,43  L 75,43  L 75,42  L 76,42  L 76,41  L 79,41  L 79,40  L 81,40  L 81,39  L 77,39  L 77,38  L 76,38  L 76,37  L 70,37  L 70,38  L 68,38  L 68,39  L 66,39  L 66,40  L 65,40  L 65,41  L 63,41  L 63,42  L 60,42  L 60,43  L 57,43  L 57,44  L 56,44  L 56,45  L 55,45  L 55,44  L 54,44  L 54,45  L 51,45  L 51,46  L 44,46  L 44,47  L 35,47  L 35,48  L 18,48  L 18,47  L 16,47  L 16,43  L 15,43  L 15,42  L 16,42  L 16,41  L 15,41  L 15,36  L 16,36  L 16,35  L 18,35  L 18,34  L 19,34  L 19,33  L 29,33  L 29,32  L 30,32  L 30,33  L 33,33  L 33,32  L 44,32  L 44,31  L 51,31  L 51,30  L 57,30  L 57,29  L 63,29  L 63,28  L 64,28  L 64,27  L 65,27  L 65,26  L 66,26  L 66,24  L 67,24  L 67,22  L 66,22  L 66,21  L 63,21  L 63,22  L 60,22  L 60,23  L 55,23  L 55,24  L 54,24  L 54,23  L 53,23  L 53,24  L 49,24  L 49,25  L 38,25  L 38,26  L 37,26  L 37,25  L 36,25  L 36,26  L 35,26  L 35,25  L 34,25  L 34,26  L 18,26  L 18,27  L 17,27  L 17,28  L 16,28  L 16,27  L 15,27  L 15,14  L 16,14  L 16,12  L 17,12  L 17,11  L 20,11  L 20,10  L 27,10  L 27,9  L 52,9  L 52,10  L 53,10  L 53,9  L 54,9  L 54,10  L 64,10  L 64,6  L 63,6  L 63,5  L 62,5  L 62,4  L 61,4  L 61,3  L 60,3  L 60,2  L 57,2  L 57,1  L 56,1  L 56,2  L 55,2  L 55,1  L 44,1  L 44,2  L 41,2  L 41,1  L 40,1  L 40,2  L 28,2  L 28,3  L 27,3  L 27,2  L 26,2  L 26,3  L 16,3  L 16,4  L 12,4  L 12,5  L 8,5  L 8,6  L 4,6  L 4,7  L 3,7  L 3,8  L 1,8  L 1,9  L 0,9  L 0,12  L 1,12  L 1,13  L 5,13  L 5,14  L 6,14  L 6,15  L 7,15  L 7,22  L 8,22  L 8,23  L 7,23  L 7,26  L 8,26  L 8,27  L 7,27  L 7,38  L 8,38  L 8,46  L 9,46  L 9,49  L 10,49  L 10,51  L 11,51  L 11,53  L 13,53  L 13,54  L 17,54  L 17,55  L 19,55  L 19,54  L 20,54  L 20,55  L 22,55  L 22,54  L 24,54  L 24,55  L 29,55  L 29,54  L 31,54  L 31,55  L 33,55  L 33,54  L 41,54  L 41,53  L 47,53  L 47,52  L 49,52  L 49,51  Z  " style="fill:rgb(0, 0, 0); fill-opacity:1.000; stroke:none;" />
 <path d="  M 3,84  L 3,85  L 5,85  L 5,84  L 8,84  L 8,83  L 11,83  L 11,82  L 13,82  L 13,81  L 17,81  L 17,80  L 18,80  L 18,81  L 19,81  L 19,80  L 23,80  L 23,79  L 29,79  L 29,78  L 33,78  L 33,77  L 40,77  L 40,76  L 45,76  L 45,75  L 55,75  L 55,74  L 61,74  L 61,73  L 62,73  L 62,74  L 63,74  L 63,73  L 68,73  L 68,72  L 69,72  L 69,73  L 70,73  L 70,72  L 73,72  L 73,71  L 75,71  L 75,70  L 78,70  L 78,69  L 80,69  L 80,68  L 83,68  L 83,66  L 84,66  L 84,64  L 85,64  L 85,63  L 84,63  L 84,62  L 83,62  L 83,61  L 77,61  L 77,62  L 74,62  L 74,63  L 73,63  L 73,64  L 69,64  L 69,65  L 67,65  L 67,66  L 63,66  L 63,67  L 59,67  L 59,68  L 58,68  L 58,67  L 57,67  L 57,68  L 52,68  L 52,69  L 50,69  L 50,68  L 49,68  L 49,69  L 44,69  L 44,70  L 43,70  L 43,69  L 42,69  L 42,70  L 36,70  L 36,71  L 31,71  L 31,72  L 26,72  L 26,73  L 19,73  L 19,74  L 15,74  L 15,75  L 11,75  L 11,76  L 8,76  L 8,77  L 6,77  L 6,76  L 4,76  L 4,77  L 3,77  L 3,78  L 2,78  L 2,80  L 1,80  L 1,83  L 2,83  L 2,84  Z  " style="fill:rgb(0, 0, 0); fill-opacity:1.000; stroke:none;" />
 <path d="  M 46,143  L 46,127  L 45,127  L 45,126  L 46,126  L 46,123  L 45,123  L 45,122  L 46,122  L 46,112  L 47,112  L 47,111  L 49,111  L 49,110  L 53,110  L 53,109  L 57,109  L 57,108  L 58,108  L 58,109  L 59,109  L 59,108  L 65,108  L 65,107  L 69,107  L 69,106  L 75,106  L 75,105  L 76,105  L 76,106  L 81,106  L 81,107  L 85,107  L 85,108  L 87,108  L 87,109  L 90,109  L 90,110  L 94,110  L 94,111  L 95,111  L 95,114  L 96,114  L 96,134  L 95,134  L 95,135  L 96,135  L 96,137  L 95,137  L 95,142  L 94,142  L 94,145  L 93,145  L 93,146  L 92,146  L 92,147  L 90,147  L 90,148  L 85,148  L 85,149  L 78,149  L 78,150  L 77,150  L 77,149  L 76,149  L 76,150  L 73,150  L 73,149  L 72,149  L 72,150  L 68,150  L 68,151  L 67,151  L 67,150  L 66,150  L 66,151  L 51,151  L 51,150  L 49,150  L 49,149  L 48,149  L 48,147  L 47,147  L 47,143  Z  M 27,106  L 28,106  L 28,107  L 27,107  L 27,108  L 28,108  L 28,110  L 29,110  L 29,111  L 30,111  L 30,112  L 38,112  L 38,114  L 39,114  L 39,142  L 40,142  L 40,148  L 41,148  L 41,152  L 42,152  L 42,154  L 44,154  L 44,155  L 46,155  L 46,156  L 48,156  L 48,157  L 73,157  L 73,156  L 74,156  L 74,157  L 75,157  L 75,156  L 81,156  L 81,155  L 88,155  L 88,154  L 92,154  L 92,153  L 94,153  L 94,152  L 96,152  L 96,151  L 98,151  L 98,150  L 99,150  L 99,149  L 100,149  L 100,146  L 101,146  L 101,137  L 102,137  L 102,109  L 101,109  L 101,108  L 100,108  L 100,106  L 99,106  L 99,105  L 96,105  L 96,104  L 93,104  L 93,103  L 89,103  L 89,102  L 87,102  L 87,101  L 86,101  L 86,100  L 85,100  L 85,98  L 84,98  L 84,97  L 70,97  L 70,98  L 66,98  L 66,99  L 64,99  L 64,100  L 61,100  L 61,101  L 56,101  L 56,102  L 50,102  L 50,103  L 49,103  L 49,102  L 45,102  L 45,101  L 40,101  L 40,102  L 38,102  L 38,103  L 37,103  L 37,102  L 36,102  L 36,103  L 31,103  L 31,104  L 28,104  L 28,105  L 27,105  Z  " style="fill:rgb(0, 0, 0); fill-opacity:1.000; stroke:none;" />
 <path d="  M 102,37  L 101,37  L 101,36  L 102,36  L 102,35  L 101,35  L 101,31  L 100,31  L 100,26  L 99,26  L 99,20  L 98,20  L 98,15  L 97,15  L 97,9  L 96,9  L 96,5  L 95,5  L 95,3  L 94,3  L 94,2  L 93,2  L 93,1  L 90,1  L 90,2  L 89,2  L 89,9  L 90,9  L 90,14  L 91,14  L 91,19  L 92,19  L 92,24  L 93,24  L 93,28  L 94,28  L 94,34  L 95,34  L 95,42  L 96,42  L 96,59  L 97,59  L 97,70  L 96,70  L 96,72  L 97,72  L 97,73  L 96,73  L 96,74  L 97,74  L 97,99  L 98,99  L 98,101  L 102,101  Z  " style="fill:rgb(0, 0, 0); fill-opacity:1.000; stroke:none;" />
</svg>
