<?xml version="1.0" encoding="UTF-8" standalone="no"?>
<!DOCTYPE svg PUBLIC "-//W3C//DTD SVG 1.1//EN" 
  "http://www.w3.org/Graphics/SVG/1.1/DTD/svg11.dtd">
<svg width="106" height="160"
     xmlns="http://www.w3.org/2000/svg" version="1.1">
 <path d="  M 2,80  L 2,81  L 1,81  L 1,83  L 0,83  L 0,84  L 1,84  L 1,87  L 2,87  L 2,86  L 3,86  L 3,87  L 7,87  L 7,86  L 10,86  L 10,85  L 13,85  L 13,84  L 17,84  L 17,83  L 24,83  L 24,82  L 30,82  L 30,81  L 34,81  L 34,80  L 41,80  L 41,79  L 44,79  L 44,78  L 52,78  L 52,77  L 60,77  L 60,76  L 61,76  L 61,77  L 62,77  L 62,76  L 69,76  L 69,75  L 73,75  L 73,74  L 76,74  L 76,73  L 80,73  L 80,72  L 84,72  L 84,71  L 85,71  L 85,70  L 87,70  L 87,69  L 88,69  L 88,68  L 89,68  L 89,67  L 90,67  L 90,66  L 89,66  L 89,65  L 88,65  L 88,64  L 86,64  L 86,63  L 85,63  L 85,62  L 83,62  L 83,63  L 81,63  L 81,64  L 80,64  L 80,65  L 78,65  L 78,66  L 77,66  L 77,67  L 74,67  L 74,68  L 72,68  L 72,69  L 66,69  L 66,70  L 60,70  L 60,71  L 53,71  L 53,72  L 41,72  L 41,73  L 35,73  L 35,74  L 29,74  L 29,75  L 24,75  L 24,76  L 17,76  L 17,77  L 14,77  L 14,78  L 9,78  L 9,79  L 6,79  L 6,80  Z  " style="fill:rgb(0, 0, 0); fill-opacity:1.000; stroke:none;" />
 <path d="  M 54,56  L 54,55  L 58,55  L 58,54  L 62,54  L 62,53  L 65,53  L 65,52  L 69,52  L 69,51  L 71,51  L 71,50  L 74,50  L 74,49  L 76,49  L 76,48  L 77,48  L 77,47  L 80,47  L 80,46  L 81,46  L 81,45  L 82,45  L 82,44  L 83,44  L 83,41  L 82,41  L 82,40  L 80,40  L 80,39  L 79,39  L 79,40  L 78,40  L 78,39  L 77,39  L 77,38  L 76,38  L 76,39  L 73,39  L 73,40  L 72,40  L 72,41  L 71,41  L 71,42  L 69,42  L 69,43  L 67,43  L 67,45  L 65,45  L 65,46  L 64,46  L 64,47  L 61,47  L 61,48  L 57,48  L 57,49  L 52,49  L 52,50  L 44,50  L 44,51  L 37,51  L 37,52  L 23,52  L 23,51  L 19,51  L 19,50  L 17,50  L 17,42  L 16,42  L 16,40  L 17,40  L 17,37  L 18,37  L 18,36  L 20,36  L 20,35  L 26,35  L 26,34  L 27,34  L 27,35  L 28,35  L 28,34  L 33,34  L 33,35  L 34,35  L 34,34  L 35,34  L 35,35  L 36,35  L 36,34  L 45,34  L 45,33  L 49,33  L 49,32  L 54,32  L 54,31  L 57,31  L 57,30  L 64,30  L 64,29  L 70,29  L 70,28  L 72,28  L 72,27  L 73,27  L 73,26  L 74,26  L 74,25  L 75,25  L 75,22  L 73,22  L 73,21  L 72,21  L 72,22  L 67,22  L 67,23  L 63,23  L 63,24  L 59,24  L 59,25  L 49,25  L 49,26  L 44,26  L 44,27  L 27,27  L 27,28  L 23,28  L 23,27  L 22,27  L 22,28  L 19,28  L 19,29  L 17,29  L 17,20  L 18,20  L 18,16  L 19,16  L 19,14  L 20,14  L 20,13  L 23,13  L 23,12  L 26,12  L 26,11  L 32,11  L 32,10  L 33,10  L 33,11  L 34,11  L 34,10  L 65,10  L 65,9  L 70,9  L 70,7  L 71,7  L 71,6  L 70,6  L 70,4  L 69,4  L 69,2  L 68,2  L 68,1  L 57,1  L 57,2  L 41,2  L 41,3  L 40,3  L 40,2  L 39,2  L 39,3  L 29,3  L 29,4  L 21,4  L 21,5  L 16,5  L 16,6  L 13,6  L 13,7  L 9,7  L 9,8  L 5,8  L 5,9  L 3,9  L 3,10  L 1,10  L 1,13  L 2,13  L 2,14  L 3,14  L 3,15  L 7,15  L 7,16  L 9,16  L 9,21  L 10,21  L 10,23  L 9,23  L 9,26  L 10,26  L 10,27  L 9,27  L 9,46  L 10,46  L 10,48  L 9,48  L 9,49  L 10,49  L 10,51  L 11,51  L 11,52  L 12,52  L 12,53  L 13,53  L 13,55  L 15,55  L 15,56  L 16,56  L 16,57  L 18,57  L 18,58  L 42,58  L 42,57  L 43,57  L 43,58  L 44,58  L 44,57  L 49,57  L 49,56  Z  M 17,31  L 17,30  L 18,30  L 18,31  Z  " style="fill:rgb(0, 0, 0); fill-opacity:1.000; stroke:none;" />
 <path d="  M 97,112  L 96,112  L 96,113  L 97,113  L 97,114  L 96,114  L 96,115  L 97,115  L 97,116  L 96,116  L 96,119  L 97,119  L 97,120  L 96,120  L 96,126  L 87,126  L 87,127  L 86,127  L 86,126  L 83,126  L 83,127  L 82,127  L 82,126  L 79,126  L 79,127  L 78,127  L 78,126  L 75,126  L 75,127  L 74,127  L 74,126  L 71,126  L 71,127  L 70,127  L 70,126  L 67,126  L 67,127  L 66,127  L 66,126  L 63,126  L 63,127  L 62,127  L 62,126  L 59,126  L 59,127  L 58,127  L 58,126  L 55,126  L 55,127  L 54,127  L 54,126  L 51,126  L 51,127  L 50,127  L 50,126  L 49,126  L 49,127  L 46,127  L 46,126  L 45,126  L 45,127  L 42,127  L 42,126  L 41,126  L 41,124  L 42,124  L 42,119  L 43,119  L 43,118  L 42,118  L 42,116  L 43,116  L 43,109  L 44,109  L 44,108  L 43,108  L 43,107  L 44,107  L 44,100  L 43,100  L 43,99  L 42,99  L 42,98  L 39,98  L 39,100  L 38,100  L 38,101  L 37,101  L 37,104  L 36,104  L 36,106  L 35,106  L 35,111  L 34,111  L 34,120  L 33,120  L 33,121  L 34,121  L 34,123  L 33,123  L 33,125  L 34,125  L 34,126  L 33,126  L 33,134  L 34,134  L 34,135  L 33,135  L 33,137  L 34,137  L 34,148  L 35,148  L 35,155  L 36,155  L 36,156  L 37,156  L 37,157  L 38,157  L 38,158  L 39,158  L 39,159  L 44,159  L 44,160  L 68,160  L 68,159  L 74,159  L 74,158  L 80,158  L 80,157  L 86,157  L 86,156  L 90,156  L 90,155  L 92,155  L 92,154  L 93,154  L 93,153  L 94,153  L 94,152  L 97,152  L 97,150  L 98,150  L 98,149  L 99,149  L 99,145  L 100,145  L 100,144  L 99,144  L 99,143  L 100,143  L 100,137  L 101,137  L 101,133  L 102,133  L 102,116  L 103,116  L 103,113  L 102,113  L 102,111  L 103,111  L 103,110  L 102,110  L 102,107  L 103,107  L 103,106  L 102,106  L 102,104  L 101,104  L 101,105  L 99,105  L 99,106  L 97,106  L 97,108  L 96,108  L 96,109  L 97,109  Z  M 91,148  L 90,148  L 90,149  L 87,149  L 87,150  L 83,150  L 83,151  L 78,151  L 78,152  L 71,152  L 71,153  L 70,153  L 70,152  L 69,152  L 69,153  L 66,153  L 66,152  L 65,152  L 65,153  L 62,153  L 62,154  L 60,154  L 60,153  L 59,153  L 59,154  L 47,154  L 47,153  L 43,153  L 43,149  L 42,149  L 42,145  L 41,145  L 41,135  L 42,135  L 42,134  L 46,134  L 46,133  L 91,133  L 91,134  L 93,134  L 93,136  L 94,136  L 94,137  L 93,137  L 93,144  L 92,144  L 92,147  L 91,147  Z  " style="fill:rgb(0, 0, 0); fill-opacity:1.000; stroke:none;" />
 <path d="  M 106,42  L 105,42  L 105,41  L 106,41  L 106,40  L 105,40  L 105,32  L 104,32  L 104,31  L 105,31  L 105,30  L 104,30  L 104,22  L 103,22  L 103,21  L 104,21  L 104,20  L 103,20  L 103,16  L 102,16  L 102,15  L 103,15  L 103,14  L 102,14  L 102,11  L 101,11  L 101,5  L 100,5  L 100,4  L 99,4  L 99,3  L 93,3  L 93,5  L 94,5  L 94,8  L 95,8  L 95,12  L 96,12  L 96,17  L 97,17  L 97,25  L 98,25  L 98,32  L 99,32  L 99,47  L 100,47  L 100,50  L 99,50  L 99,51  L 100,51  L 100,54  L 99,54  L 99,55  L 100,55  L 100,58  L 99,58  L 99,59  L 100,59  L 100,62  L 99,62  L 99,63  L 100,63  L 100,66  L 99,66  L 99,69  L 100,69  L 100,70  L 99,70  L 99,80  L 100,80  L 100,81  L 99,81  L 99,85  L 100,85  L 100,86  L 99,86  L 99,88  L 100,88  L 100,89  L 99,89  L 99,91  L 100,91  L 100,98  L 101,98  L 101,99  L 106,99  Z  " style="fill:rgb(0, 0, 0); fill-opacity:1.000; stroke:none;" />
</svg>
