<?xml version="1.0" encoding="UTF-8" standalone="no"?>
<!DOCTYPE svg PUBLIC "-//W3C//DTD SVG 1.1//EN" 
  "http://www.w3.org/Graphics/SVG/1.1/DTD/svg11.dtd">
<svg width="100" height="168"
     xmlns="http://www.w3.org/2000/svg" version="1.1">
 <path d="  M 11,59  L 10,59  L 10,57  L 11,57  L 11,56  L 10,56  L 10,55  L 11,55  L 11,54  L 10,54  L 10,53  L 11,53  L 11,51  L 13,51  L 13,53  L 14,53  L 14,54  L 15,54  L 15,55  L 18,55  L 18,54  L 19,54  L 19,55  L 20,55  L 20,54  L 25,54  L 25,53  L 30,53  L 30,52  L 34,52  L 34,51  L 38,51  L 38,50  L 42,50  L 42,49  L 45,49  L 45,48  L 49,48  L 49,47  L 52,47  L 52,46  L 53,46  L 53,45  L 54,45  L 54,43  L 55,43  L 55,42  L 56,42  L 56,40  L 57,40  L 57,38  L 51,38  L 51,39  L 48,39  L 48,40  L 45,40  L 45,41  L 42,41  L 42,42  L 39,42  L 39,43  L 37,43  L 37,44  L 36,44  L 36,43  L 35,43  L 35,44  L 33,44  L 33,45  L 29,45  L 29,46  L 26,46  L 26,47  L 19,47  L 19,48  L 18,48  L 18,47  L 15,47  L 15,48  L 14,48  L 14,47  L 13,47  L 13,48  L 12,48  L 12,49  L 11,49  L 11,47  L 10,47  L 10,27  L 11,27  L 11,26  L 16,26  L 16,25  L 25,25  L 25,24  L 32,24  L 32,23  L 33,23  L 33,24  L 34,24  L 34,23  L 43,23  L 43,22  L 45,22  L 45,23  L 46,23  L 46,22  L 55,22  L 55,21  L 57,21  L 57,20  L 58,20  L 58,19  L 57,19  L 57,16  L 56,16  L 56,15  L 54,15  L 54,14  L 48,14  L 48,15  L 41,15  L 41,16  L 40,16  L 40,15  L 39,15  L 39,16  L 29,16  L 29,17  L 23,17  L 23,18  L 12,18  L 12,17  L 8,17  L 8,16  L 3,16  L 3,18  L 2,18  L 2,20  L 1,20  L 1,21  L 0,21  L 0,22  L 1,22  L 1,26  L 2,26  L 2,28  L 3,28  L 3,61  L 4,61  L 4,63  L 3,63  L 3,64  L 4,64  L 4,73  L 5,73  L 5,74  L 4,74  L 4,75  L 5,75  L 5,78  L 6,78  L 6,80  L 8,80  L 8,81  L 9,81  L 9,82  L 10,82  L 10,83  L 11,83  L 11,84  L 16,84  L 16,85  L 26,85  L 26,84  L 30,84  L 30,83  L 31,83  L 31,84  L 32,84  L 32,83  L 36,83  L 36,82  L 37,82  L 37,83  L 38,83  L 38,82  L 45,82  L 45,81  L 51,81  L 51,80  L 54,80  L 54,79  L 56,79  L 56,78  L 57,78  L 57,77  L 58,77  L 58,75  L 59,75  L 59,72  L 53,72  L 53,73  L 49,73  L 49,74  L 46,74  L 46,75  L 39,75  L 39,76  L 32,76  L 32,77  L 21,77  L 21,78  L 20,78  L 20,77  L 16,77  L 16,76  L 15,76  L 15,75  L 13,75  L 13,73  L 12,73  L 12,69  L 11,69  Z  " style="fill:rgb(0, 0, 0); fill-opacity:1.000; stroke:none;" />
 <path d="  M 59,116  L 61,116  L 61,115  L 83,115  L 83,116  L 87,116  L 87,117  L 89,117  L 89,118  L 90,118  L 90,120  L 91,120  L 91,122  L 92,122  L 92,125  L 93,125  L 93,139  L 92,139  L 92,145  L 91,145  L 91,147  L 90,147  L 90,149  L 89,149  L 89,151  L 88,151  L 88,152  L 87,152  L 87,153  L 85,153  L 85,154  L 84,154  L 84,155  L 82,155  L 82,156  L 79,156  L 79,157  L 77,157  L 77,158  L 75,158  L 75,159  L 71,159  L 71,160  L 67,160  L 67,161  L 62,161  L 62,162  L 54,162  L 54,161  L 51,161  L 51,160  L 50,160  L 50,161  L 49,161  L 49,160  L 48,160  L 48,159  L 44,159  L 44,158  L 43,158  L 43,156  L 42,156  L 42,153  L 41,153  L 41,152  L 42,152  L 42,151  L 41,151  L 41,141  L 42,141  L 42,136  L 43,136  L 43,134  L 44,134  L 44,132  L 45,132  L 45,130  L 46,130  L 46,129  L 47,129  L 47,126  L 48,126  L 48,125  L 49,125  L 49,124  L 50,124  L 50,123  L 51,123  L 51,122  L 52,122  L 52,121  L 53,121  L 53,120  L 54,120  L 54,119  L 55,119  L 55,118  L 56,118  L 56,117  L 59,117  Z  M 97,150  L 98,150  L 98,148  L 99,148  L 99,144  L 100,144  L 100,122  L 99,122  L 99,118  L 98,118  L 98,115  L 97,115  L 97,113  L 95,113  L 95,111  L 92,111  L 92,110  L 90,110  L 90,109  L 88,109  L 88,108  L 85,108  L 85,107  L 76,107  L 76,106  L 75,106  L 75,107  L 73,107  L 73,106  L 72,106  L 72,107  L 70,107  L 70,106  L 60,106  L 60,105  L 58,105  L 58,106  L 56,106  L 56,107  L 55,107  L 55,108  L 53,108  L 53,109  L 52,109  L 52,111  L 51,111  L 51,112  L 50,112  L 50,113  L 49,113  L 49,114  L 48,114  L 48,115  L 47,115  L 47,117  L 46,117  L 46,119  L 45,119  L 45,120  L 44,120  L 44,121  L 43,121  L 43,122  L 42,122  L 42,123  L 41,123  L 41,125  L 40,125  L 40,127  L 39,127  L 39,129  L 38,129  L 38,130  L 37,130  L 37,134  L 36,134  L 36,136  L 35,136  L 35,141  L 34,141  L 34,152  L 33,152  L 33,153  L 34,153  L 34,156  L 35,156  L 35,158  L 34,158  L 34,159  L 35,159  L 35,160  L 36,160  L 36,161  L 37,161  L 37,162  L 38,162  L 38,163  L 41,163  L 41,164  L 42,164  L 42,165  L 44,165  L 44,166  L 46,166  L 46,167  L 49,167  L 49,168  L 67,168  L 67,167  L 71,167  L 71,166  L 75,166  L 75,165  L 78,165  L 78,164  L 82,164  L 82,163  L 83,163  L 83,162  L 86,162  L 86,161  L 88,161  L 88,160  L 89,160  L 89,159  L 90,159  L 90,158  L 91,158  L 91,157  L 92,157  L 92,156  L 94,156  L 94,154  L 95,154  L 95,153  L 96,153  L 96,152  L 97,152  Z  " style="fill:rgb(0, 0, 0); fill-opacity:1.000; stroke:none;" />
 <path d="  M 90,77  L 91,77  L 91,79  L 90,79  L 90,80  L 91,80  L 91,83  L 90,83  L 90,84  L 91,84  L 91,94  L 92,94  L 92,95  L 91,95  L 91,96  L 92,96  L 92,98  L 93,98  L 93,99  L 94,99  L 94,100  L 96,100  L 96,101  L 97,101  L 97,100  L 98,100  L 98,83  L 97,83  L 97,80  L 98,80  L 98,79  L 97,79  L 97,76  L 98,76  L 98,75  L 97,75  L 97,72  L 98,72  L 98,71  L 97,71  L 97,68  L 98,68  L 98,67  L 97,67  L 97,64  L 98,64  L 98,63  L 97,63  L 97,60  L 98,60  L 98,59  L 97,59  L 97,56  L 98,56  L 98,55  L 97,55  L 97,31  L 96,31  L 96,30  L 97,30  L 97,29  L 96,29  L 96,22  L 95,22  L 95,17  L 94,17  L 94,7  L 93,7  L 93,5  L 92,5  L 92,4  L 91,4  L 91,3  L 90,3  L 90,2  L 89,2  L 89,1  L 88,1  L 88,0  L 86,0  L 86,2  L 85,2  L 85,7  L 86,7  L 86,12  L 87,12  L 87,19  L 88,19  L 88,26  L 89,26  L 89,38  L 90,38  L 90,41  L 89,41  L 89,42  L 90,42  Z  " style="fill:rgb(0, 0, 0); fill-opacity:1.000; stroke:none;" />
</svg>
