<?xml version="1.0" encoding="UTF-8" standalone="no"?>
<!DOCTYPE svg PUBLIC "-//W3C//DTD SVG 1.1//EN" 
  "http://www.w3.org/Graphics/SVG/1.1/DTD/svg11.dtd">
<svg width="112" height="125"
     xmlns="http://www.w3.org/2000/svg" version="1.1">
 <path d="  M 32,63  L 32,64  L 33,64  L 33,63  L 36,63  L 36,64  L 37,64  L 37,63  L 66,63  L 66,62  L 68,62  L 68,61  L 69,61  L 69,58  L 68,58  L 68,57  L 54,57  L 54,56  L 53,56  L 53,57  L 48,57  L 48,55  L 47,55  L 47,26  L 48,26  L 48,25  L 47,25  L 47,24  L 48,24  L 48,16  L 49,16  L 49,15  L 52,15  L 52,16  L 58,16  L 58,15  L 59,15  L 59,16  L 61,16  L 61,15  L 64,15  L 64,11  L 63,11  L 63,10  L 62,10  L 62,9  L 60,9  L 60,8  L 59,8  L 59,9  L 15,9  L 15,10  L 9,10  L 9,11  L 8,11  L 8,12  L 7,12  L 7,16  L 15,16  L 15,15  L 18,15  L 18,16  L 17,16  L 17,17  L 18,17  L 18,18  L 17,18  L 17,19  L 18,19  L 18,22  L 17,22  L 17,24  L 18,24  L 18,26  L 17,26  L 17,28  L 18,28  L 18,30  L 17,30  L 17,32  L 18,32  L 18,34  L 17,34  L 17,36  L 18,36  L 18,39  L 17,39  L 17,40  L 18,40  L 18,53  L 19,53  L 19,55  L 20,55  L 20,56  L 19,56  L 19,57  L 16,57  L 16,56  L 12,56  L 12,57  L 7,57  L 7,58  L 3,58  L 3,59  L 1,59  L 1,61  L 0,61  L 0,62  L 1,62  L 1,64  L 12,64  L 12,63  Z  M 43,15  L 43,16  L 42,16  L 42,19  L 41,19  L 41,27  L 40,27  L 40,56  L 39,56  L 39,57  L 27,57  L 27,56  L 26,56  L 26,57  L 25,57  L 25,56  L 24,56  L 24,20  L 25,20  L 25,19  L 24,19  L 24,16  L 25,16  L 25,15  Z  " style="fill:rgb(0, 0, 0); fill-opacity:1.000; stroke:none;" />
 <path d="  M 38,124  L 40,124  L 40,125  L 66,125  L 66,124  L 67,124  L 67,125  L 68,125  L 68,124  L 74,124  L 74,123  L 75,123  L 75,124  L 77,124  L 77,123  L 90,123  L 90,122  L 91,122  L 91,123  L 92,123  L 92,122  L 95,122  L 95,121  L 97,121  L 97,119  L 98,119  L 98,116  L 97,116  L 97,115  L 89,115  L 89,116  L 86,116  L 86,115  L 85,115  L 85,116  L 82,116  L 82,117  L 67,117  L 67,118  L 60,118  L 60,119  L 59,119  L 59,118  L 58,118  L 58,119  L 43,119  L 43,118  L 42,118  L 42,116  L 41,116  L 41,115  L 42,115  L 42,114  L 41,114  L 41,110  L 40,110  L 40,105  L 39,105  L 39,99  L 38,99  L 38,81  L 34,81  L 34,82  L 33,82  L 33,85  L 32,85  L 32,96  L 33,96  L 33,97  L 32,97  L 32,98  L 33,98  L 33,104  L 34,104  L 34,108  L 35,108  L 35,117  L 36,117  L 36,120  L 37,120  L 37,122  L 38,122  Z  " style="fill:rgb(0, 0, 0); fill-opacity:1.000; stroke:none;" />
 <path d="  M 78,72  L 79,72  L 79,73  L 78,73  L 78,75  L 79,75  L 79,81  L 81,81  L 81,82  L 82,82  L 82,81  L 84,81  L 84,80  L 85,80  L 85,63  L 84,63  L 84,62  L 85,62  L 85,43  L 84,43  L 84,41  L 85,41  L 85,40  L 86,40  L 86,39  L 90,39  L 90,38  L 97,38  L 97,39  L 98,39  L 98,38  L 99,38  L 99,39  L 100,39  L 100,38  L 101,38  L 101,39  L 102,39  L 102,38  L 103,38  L 103,39  L 104,39  L 104,38  L 105,38  L 105,39  L 106,39  L 106,38  L 107,38  L 107,39  L 112,39  L 112,34  L 111,34  L 111,33  L 110,33  L 110,32  L 107,32  L 107,31  L 105,31  L 105,32  L 103,32  L 103,31  L 101,31  L 101,32  L 99,32  L 99,31  L 97,31  L 97,32  L 96,32  L 96,31  L 86,31  L 86,32  L 85,32  L 85,31  L 84,31  L 84,15  L 83,15  L 83,10  L 82,10  L 82,6  L 81,6  L 81,3  L 80,3  L 80,2  L 79,2  L 79,1  L 78,1  L 78,0  L 75,0  L 75,2  L 76,2  L 76,7  L 77,7  L 77,14  L 78,14  Z  " style="fill:rgb(0, 0, 0); fill-opacity:1.000; stroke:none;" />
</svg>
