<?xml version="1.0" encoding="UTF-8" standalone="no"?>
<!DOCTYPE svg PUBLIC "-//W3C//DTD SVG 1.1//EN" 
  "http://www.w3.org/Graphics/SVG/1.1/DTD/svg11.dtd">
<svg width="108" height="137"
     xmlns="http://www.w3.org/2000/svg" version="1.1">
 <path d="  M 49,63  L 49,62  L 48,62  L 48,63  L 47,63  L 47,62  L 46,62  L 46,57  L 45,57  L 45,55  L 46,55  L 46,54  L 45,54  L 45,31  L 46,31  L 46,30  L 45,30  L 45,27  L 46,27  L 46,26  L 45,26  L 45,21  L 46,21  L 46,19  L 45,19  L 45,18  L 46,18  L 46,16  L 47,16  L 47,15  L 50,15  L 50,16  L 59,16  L 59,15  L 60,15  L 60,16  L 61,16  L 61,15  L 62,15  L 62,14  L 63,14  L 63,13  L 62,13  L 62,11  L 61,11  L 61,10  L 59,10  L 59,9  L 47,9  L 47,10  L 44,10  L 44,9  L 11,9  L 11,10  L 6,10  L 6,11  L 5,11  L 5,12  L 4,12  L 4,15  L 5,15  L 5,16  L 6,16  L 6,17  L 12,17  L 12,16  L 14,16  L 14,15  L 16,15  L 16,16  L 17,16  L 17,30  L 16,30  L 16,31  L 17,31  L 17,45  L 18,45  L 18,53  L 19,53  L 19,58  L 20,58  L 20,59  L 19,59  L 19,61  L 20,61  L 20,63  L 9,63  L 9,64  L 6,64  L 6,65  L 1,65  L 1,66  L 0,66  L 0,67  L 1,67  L 1,70  L 2,70  L 2,71  L 11,71  L 11,70  L 22,70  L 22,69  L 23,69  L 23,70  L 35,70  L 35,69  L 36,69  L 36,70  L 38,70  L 38,69  L 41,69  L 41,70  L 42,70  L 42,69  L 45,69  L 45,70  L 46,70  L 46,69  L 49,69  L 49,70  L 50,70  L 50,69  L 53,69  L 53,70  L 55,70  L 55,69  L 56,69  L 56,70  L 58,70  L 58,69  L 62,69  L 62,67  L 63,67  L 63,64  L 62,64  L 62,63  L 51,63  L 51,62  L 50,62  L 50,63  Z  M 39,15  L 39,32  L 38,32  L 38,59  L 39,59  L 39,62  L 34,62  L 34,63  L 33,63  L 33,62  L 28,62  L 28,61  L 27,61  L 27,59  L 26,59  L 26,56  L 25,56  L 25,51  L 24,51  L 24,42  L 23,42  L 23,41  L 24,41  L 24,39  L 23,39  L 23,29  L 24,29  L 24,27  L 23,27  L 23,25  L 24,25  L 24,23  L 23,23  L 23,20  L 24,20  L 24,19  L 23,19  L 23,17  L 24,17  L 24,15  Z  " style="fill:rgb(0, 0, 0); fill-opacity:1.000; stroke:none;" />
 <path d="  M 51,97  L 51,96  L 52,96  L 52,97  L 55,97  L 55,96  L 57,96  L 57,97  L 58,97  L 58,96  L 67,96  L 67,95  L 68,95  L 68,96  L 69,96  L 69,95  L 76,95  L 76,96  L 80,96  L 80,102  L 79,102  L 79,103  L 80,103  L 80,104  L 79,104  L 79,109  L 78,109  L 78,116  L 77,116  L 77,121  L 76,121  L 76,124  L 75,124  L 75,126  L 74,126  L 74,127  L 72,127  L 72,128  L 68,128  L 68,129  L 64,129  L 64,130  L 58,130  L 58,131  L 46,131  L 46,130  L 44,130  L 44,125  L 43,125  L 43,124  L 44,124  L 44,122  L 43,122  L 43,120  L 44,120  L 44,118  L 43,118  L 43,117  L 44,117  L 44,114  L 43,114  L 43,98  L 44,98  L 44,97  Z  M 35,119  L 35,121  L 36,121  L 36,129  L 37,129  L 37,133  L 38,133  L 38,136  L 40,136  L 40,137  L 63,137  L 63,136  L 67,136  L 67,135  L 69,135  L 69,136  L 70,136  L 70,135  L 71,135  L 71,134  L 74,134  L 74,133  L 75,133  L 75,132  L 76,132  L 76,131  L 78,131  L 78,130  L 79,130  L 79,129  L 80,129  L 80,127  L 81,127  L 81,124  L 82,124  L 82,121  L 83,121  L 83,116  L 84,116  L 84,111  L 85,111  L 85,103  L 86,103  L 86,92  L 85,92  L 85,91  L 83,91  L 83,90  L 82,90  L 82,89  L 60,89  L 60,90  L 42,90  L 42,89  L 39,89  L 39,88  L 33,88  L 33,89  L 30,89  L 30,90  L 28,90  L 28,91  L 26,91  L 26,92  L 25,92  L 25,95  L 27,95  L 27,96  L 28,96  L 28,97  L 33,97  L 33,98  L 34,98  L 34,99  L 35,99  L 35,106  L 36,106  L 36,107  L 35,107  L 35,109  L 36,109  L 36,111  L 35,111  L 35,113  L 36,113  L 36,115  L 35,115  L 35,117  L 36,117  L 36,119  Z  " style="fill:rgb(0, 0, 0); fill-opacity:1.000; stroke:none;" />
 <path d="  M 79,4  L 79,2  L 78,2  L 78,1  L 77,1  L 77,0  L 74,0  L 74,9  L 75,9  L 75,16  L 76,16  L 76,35  L 77,35  L 77,36  L 76,36  L 76,37  L 77,37  L 77,38  L 76,38  L 76,39  L 77,39  L 77,42  L 76,42  L 76,43  L 77,43  L 77,46  L 76,46  L 76,47  L 77,47  L 77,50  L 76,50  L 76,51  L 77,51  L 77,69  L 78,69  L 78,80  L 79,80  L 79,81  L 80,81  L 80,82  L 81,82  L 81,81  L 82,81  L 82,80  L 84,80  L 84,58  L 83,58  L 83,57  L 84,57  L 84,56  L 83,56  L 83,55  L 84,55  L 84,54  L 83,54  L 83,53  L 84,53  L 84,52  L 83,52  L 83,51  L 84,51  L 84,50  L 83,50  L 83,49  L 84,49  L 84,48  L 83,48  L 83,47  L 84,47  L 84,46  L 83,46  L 83,44  L 84,44  L 84,42  L 83,42  L 83,38  L 84,38  L 84,37  L 85,37  L 85,36  L 87,36  L 87,35  L 93,35  L 93,34  L 104,34  L 104,35  L 108,35  L 108,29  L 107,29  L 107,28  L 83,28  L 83,26  L 82,26  L 82,15  L 81,15  L 81,8  L 80,8  L 80,4  Z  " style="fill:rgb(0, 0, 0); fill-opacity:1.000; stroke:none;" />
</svg>
