<?xml version="1.0" encoding="UTF-8" standalone="no"?>
<!DOCTYPE svg PUBLIC "-//W3C//DTD SVG 1.1//EN" 
  "http://www.w3.org/Graphics/SVG/1.1/DTD/svg11.dtd">
<svg width="106" height="146"
     xmlns="http://www.w3.org/2000/svg" version="1.1">
 <path d="  M 6,12  L 6,13  L 4,13  L 4,14  L 3,14  L 3,15  L 2,15  L 2,16  L 3,16  L 3,17  L 2,17  L 2,19  L 3,19  L 3,20  L 7,20  L 7,21  L 8,21  L 8,20  L 11,20  L 11,19  L 16,19  L 16,51  L 17,51  L 17,64  L 18,64  L 18,66  L 15,66  L 15,67  L 7,67  L 7,68  L 3,68  L 3,69  L 0,69  L 0,70  L 1,70  L 1,71  L 2,71  L 2,72  L 3,72  L 3,73  L 4,73  L 4,74  L 17,74  L 17,73  L 18,73  L 18,74  L 23,74  L 23,73  L 25,73  L 25,74  L 27,74  L 27,73  L 29,73  L 29,74  L 30,74  L 30,73  L 40,73  L 40,72  L 41,72  L 41,73  L 42,73  L 42,72  L 43,72  L 43,73  L 44,73  L 44,72  L 55,72  L 55,73  L 56,73  L 56,72  L 60,72  L 60,71  L 61,71  L 61,70  L 62,70  L 62,66  L 53,66  L 53,65  L 52,65  L 52,66  L 49,66  L 49,65  L 48,65  L 48,64  L 47,64  L 47,62  L 46,62  L 46,59  L 47,59  L 47,58  L 46,58  L 46,57  L 47,57  L 47,56  L 46,56  L 46,51  L 47,51  L 47,50  L 46,50  L 46,49  L 47,49  L 47,48  L 46,48  L 46,43  L 47,43  L 47,42  L 46,42  L 46,19  L 47,19  L 47,18  L 62,18  L 62,15  L 61,15  L 61,13  L 60,13  L 60,12  L 58,12  L 58,11  L 50,11  L 50,12  Z  M 23,36  L 22,36  L 22,35  L 23,35  L 23,32  L 22,32  L 22,31  L 23,31  L 23,28  L 22,28  L 22,27  L 23,27  L 23,18  L 40,18  L 40,21  L 39,21  L 39,58  L 40,58  L 40,59  L 39,59  L 39,60  L 40,60  L 40,61  L 39,61  L 39,63  L 40,63  L 40,65  L 39,65  L 39,66  L 25,66  L 25,64  L 24,64  L 24,60  L 23,60  L 23,59  L 24,59  L 24,58  L 23,58  Z  " style="fill:rgb(0, 0, 0); fill-opacity:1.000; stroke:none;" />
 <path d="  M 38,97  L 38,96  L 41,96  L 41,95  L 45,95  L 45,94  L 49,94  L 49,93  L 59,93  L 59,94  L 69,94  L 69,95  L 70,95  L 70,94  L 71,94  L 71,95  L 79,95  L 79,96  L 82,96  L 82,97  L 84,97  L 84,96  L 85,96  L 85,95  L 86,95  L 86,91  L 85,91  L 85,89  L 82,89  L 82,88  L 71,88  L 71,87  L 64,87  L 64,86  L 44,86  L 44,87  L 35,87  L 35,88  L 33,88  L 33,89  L 32,89  L 32,90  L 31,90  L 31,93  L 30,93  L 30,95  L 29,95  L 29,97  L 28,97  L 28,99  L 27,99  L 27,118  L 26,118  L 26,130  L 27,130  L 27,137  L 28,137  L 28,142  L 29,142  L 29,143  L 30,143  L 30,144  L 31,144  L 31,145  L 32,145  L 32,146  L 61,146  L 61,145  L 65,145  L 65,144  L 70,144  L 70,143  L 73,143  L 73,142  L 77,142  L 77,141  L 78,141  L 78,140  L 82,140  L 82,139  L 84,139  L 84,138  L 85,138  L 85,137  L 87,137  L 87,136  L 88,136  L 88,135  L 89,135  L 89,133  L 90,133  L 90,131  L 91,131  L 91,130  L 90,130  L 90,129  L 87,129  L 87,130  L 85,130  L 85,131  L 82,131  L 82,132  L 79,132  L 79,133  L 77,133  L 77,134  L 75,134  L 75,135  L 73,135  L 73,136  L 70,136  L 70,137  L 66,137  L 66,138  L 61,138  L 61,139  L 58,139  L 58,140  L 36,140  L 36,139  L 35,139  L 35,131  L 34,131  L 34,130  L 35,130  L 35,127  L 37,127  L 37,125  L 40,125  L 40,124  L 43,124  L 43,123  L 47,123  L 47,122  L 48,122  L 48,123  L 49,123  L 49,122  L 53,122  L 53,121  L 57,121  L 57,120  L 61,120  L 61,119  L 65,119  L 65,118  L 66,118  L 66,117  L 70,117  L 70,116  L 72,116  L 72,115  L 76,115  L 76,114  L 78,114  L 78,113  L 81,113  L 81,112  L 83,112  L 83,111  L 84,111  L 84,109  L 85,109  L 85,106  L 83,106  L 83,105  L 79,105  L 79,106  L 77,106  L 77,107  L 73,107  L 73,108  L 70,108  L 70,109  L 68,109  L 68,110  L 65,110  L 65,111  L 62,111  L 62,112  L 59,112  L 59,113  L 56,113  L 56,114  L 51,114  L 51,115  L 49,115  L 49,116  L 43,116  L 43,117  L 42,117  L 42,116  L 41,116  L 41,117  L 38,117  L 38,118  L 34,118  L 34,117  L 33,117  L 33,115  L 34,115  L 34,100  L 35,100  L 35,98  L 36,98  L 36,97  Z  " style="fill:rgb(0, 0, 0); fill-opacity:1.000; stroke:none;" />
 <path d="  M 79,4  L 79,3  L 80,3  L 80,2  L 79,2  L 79,1  L 77,1  L 77,0  L 74,0  L 74,1  L 73,1  L 73,9  L 74,9  L 74,10  L 73,10  L 73,11  L 74,11  L 74,12  L 73,12  L 73,13  L 74,13  L 74,27  L 75,27  L 75,28  L 74,28  L 74,31  L 75,31  L 75,34  L 74,34  L 74,35  L 75,35  L 75,62  L 76,62  L 76,64  L 75,64  L 75,65  L 76,65  L 76,71  L 77,71  L 77,76  L 78,76  L 78,79  L 79,79  L 79,80  L 83,80  L 83,79  L 84,79  L 84,75  L 83,75  L 83,68  L 82,68  L 82,58  L 81,58  L 81,36  L 83,36  L 83,35  L 90,35  L 90,34  L 91,34  L 91,35  L 93,35  L 93,34  L 94,34  L 94,35  L 97,35  L 97,34  L 106,34  L 106,28  L 85,28  L 85,29  L 82,29  L 82,28  L 81,28  L 81,27  L 80,27  L 80,25  L 81,25  L 81,16  L 80,16  L 80,15  L 81,15  L 81,14  L 80,14  L 80,4  Z  " style="fill:rgb(0, 0, 0); fill-opacity:1.000; stroke:none;" />
</svg>
