<?xml version="1.0" encoding="UTF-8" standalone="no"?>
<!DOCTYPE svg PUBLIC "-//W3C//DTD SVG 1.1//EN" 
  "http://www.w3.org/Graphics/SVG/1.1/DTD/svg11.dtd">
<svg width="111" height="139"
     xmlns="http://www.w3.org/2000/svg" version="1.1">
 <path d="  M 41,15  L 41,20  L 40,20  L 40,22  L 41,22  L 41,35  L 42,35  L 42,36  L 41,36  L 41,37  L 42,37  L 42,38  L 41,38  L 41,39  L 42,39  L 42,40  L 41,40  L 41,41  L 42,41  L 42,42  L 41,42  L 41,43  L 42,43  L 42,44  L 41,44  L 41,45  L 42,45  L 42,46  L 41,46  L 41,47  L 42,47  L 42,49  L 41,49  L 41,51  L 42,51  L 42,53  L 41,53  L 41,60  L 40,60  L 40,61  L 37,61  L 37,62  L 35,62  L 35,61  L 32,61  L 32,62  L 24,62  L 24,57  L 23,57  L 23,56  L 24,56  L 24,55  L 23,55  L 23,46  L 22,46  L 22,38  L 21,38  L 21,35  L 22,35  L 22,34  L 21,34  L 21,15  Z  M 50,8  L 50,9  L 6,9  L 6,10  L 4,10  L 4,12  L 3,12  L 3,13  L 2,13  L 2,15  L 3,15  L 3,16  L 4,16  L 4,17  L 6,17  L 6,16  L 12,16  L 12,15  L 15,15  L 15,16  L 16,16  L 16,18  L 15,18  L 15,39  L 16,39  L 16,47  L 17,47  L 17,59  L 18,59  L 18,64  L 16,64  L 16,65  L 14,65  L 14,64  L 8,64  L 8,65  L 4,65  L 4,66  L 2,66  L 2,67  L 1,67  L 1,68  L 0,68  L 0,69  L 1,69  L 1,71  L 9,71  L 9,70  L 15,70  L 15,69  L 16,69  L 16,70  L 17,70  L 17,69  L 27,69  L 27,68  L 33,68  L 33,67  L 56,67  L 56,66  L 60,66  L 60,65  L 62,65  L 62,61  L 61,61  L 61,60  L 48,60  L 48,17  L 47,17  L 47,16  L 48,16  L 48,15  L 51,15  L 51,14  L 59,14  L 59,13  L 61,13  L 61,10  L 60,10  L 60,9  L 59,9  L 59,8  Z  " style="fill:rgb(0, 0, 0); fill-opacity:1.000; stroke:none;" />
 <path d="  M 104,126  L 98,126  L 98,125  L 95,125  L 95,124  L 93,124  L 93,123  L 91,123  L 91,122  L 89,122  L 89,121  L 87,121  L 87,120  L 86,120  L 86,119  L 83,119  L 83,118  L 82,118  L 82,117  L 80,117  L 80,116  L 79,116  L 79,115  L 77,115  L 77,114  L 75,114  L 75,112  L 73,112  L 73,111  L 71,111  L 71,110  L 70,110  L 70,109  L 68,109  L 68,108  L 67,108  L 67,107  L 66,107  L 66,106  L 65,106  L 65,105  L 64,105  L 64,104  L 63,104  L 63,103  L 62,103  L 62,102  L 61,102  L 61,100  L 62,100  L 62,97  L 64,97  L 64,96  L 65,96  L 65,95  L 66,95  L 66,94  L 67,94  L 67,93  L 68,93  L 68,91  L 69,91  L 69,89  L 70,89  L 70,87  L 69,87  L 69,86  L 68,86  L 68,85  L 63,85  L 63,86  L 62,86  L 62,87  L 61,87  L 61,89  L 60,89  L 60,90  L 59,90  L 59,91  L 57,91  L 57,92  L 56,92  L 56,94  L 54,94  L 54,96  L 53,96  L 53,98  L 52,98  L 52,99  L 51,99  L 51,100  L 50,100  L 50,101  L 49,101  L 49,103  L 48,103  L 48,105  L 47,105  L 47,106  L 46,106  L 46,108  L 45,108  L 45,110  L 44,110  L 44,111  L 43,111  L 43,113  L 42,113  L 42,114  L 41,114  L 41,116  L 40,116  L 40,118  L 39,118  L 39,119  L 38,119  L 38,120  L 37,120  L 37,122  L 36,122  L 36,123  L 35,123  L 35,125  L 34,125  L 34,126  L 33,126  L 33,127  L 32,127  L 32,128  L 31,128  L 31,129  L 30,129  L 30,130  L 29,130  L 29,131  L 28,131  L 28,132  L 27,132  L 27,135  L 26,135  L 26,137  L 27,137  L 27,139  L 32,139  L 32,138  L 33,138  L 33,137  L 34,137  L 34,136  L 35,136  L 35,134  L 36,134  L 36,133  L 37,133  L 37,132  L 38,132  L 38,131  L 39,131  L 39,129  L 40,129  L 40,128  L 41,128  L 41,127  L 42,127  L 42,125  L 43,125  L 43,123  L 44,123  L 44,122  L 45,122  L 45,121  L 46,121  L 46,119  L 47,119  L 47,118  L 48,118  L 48,116  L 49,116  L 49,114  L 50,114  L 50,113  L 51,113  L 51,111  L 52,111  L 52,110  L 53,110  L 53,108  L 54,108  L 54,107  L 57,107  L 57,108  L 58,108  L 58,110  L 60,110  L 60,111  L 61,111  L 61,112  L 62,112  L 62,113  L 63,113  L 63,114  L 64,114  L 64,115  L 66,115  L 66,116  L 67,116  L 67,117  L 69,117  L 69,118  L 71,118  L 71,120  L 73,120  L 73,121  L 75,121  L 75,122  L 76,122  L 76,123  L 79,123  L 79,124  L 80,124  L 80,125  L 81,125  L 81,126  L 84,126  L 84,127  L 86,127  L 86,128  L 88,128  L 88,129  L 89,129  L 89,130  L 92,130  L 92,131  L 93,131  L 93,130  L 94,130  L 94,131  L 95,131  L 95,132  L 96,132  L 96,131  L 97,131  L 97,132  L 101,132  L 101,133  L 102,133  L 102,132  L 103,132  L 103,133  L 107,133  L 107,132  L 109,132  L 109,131  L 111,131  L 111,128  L 108,128  L 108,127  L 104,127  Z  " style="fill:rgb(0, 0, 0); fill-opacity:1.000; stroke:none;" />
 <path d="  M 74,56  L 73,56  L 73,66  L 72,66  L 72,67  L 73,67  L 73,68  L 72,68  L 72,73  L 73,73  L 73,75  L 76,75  L 76,73  L 77,73  L 77,72  L 79,72  L 79,67  L 80,67  L 80,59  L 81,59  L 81,58  L 80,58  L 80,56  L 81,56  L 81,51  L 82,51  L 82,50  L 81,50  L 81,47  L 82,47  L 82,46  L 81,46  L 81,45  L 82,45  L 82,33  L 85,33  L 85,32  L 99,32  L 99,47  L 100,47  L 100,57  L 101,57  L 101,58  L 100,58  L 100,59  L 101,59  L 101,60  L 100,60  L 100,61  L 101,61  L 101,64  L 100,64  L 100,65  L 101,65  L 101,84  L 102,84  L 102,85  L 103,85  L 103,84  L 104,84  L 104,83  L 105,83  L 105,82  L 106,82  L 106,81  L 107,81  L 107,73  L 108,73  L 108,72  L 107,72  L 107,71  L 108,71  L 108,70  L 107,70  L 107,69  L 108,69  L 108,68  L 107,68  L 107,67  L 108,67  L 108,64  L 107,64  L 107,63  L 108,63  L 108,62  L 107,62  L 107,61  L 108,61  L 108,60  L 107,60  L 107,59  L 108,59  L 108,58  L 107,58  L 107,46  L 106,46  L 106,24  L 105,24  L 105,5  L 104,5  L 104,3  L 103,3  L 103,2  L 102,2  L 102,3  L 100,3  L 100,5  L 99,5  L 99,24  L 97,24  L 97,25  L 82,25  L 82,26  L 80,26  L 80,3  L 81,3  L 81,2  L 80,2  L 80,1  L 79,1  L 79,0  L 76,0  L 76,1  L 74,1  L 74,18  L 73,18  L 73,19  L 74,19  L 74,20  L 73,20  L 73,23  L 74,23  L 74,24  L 73,24  L 73,37  L 74,37  Z  " style="fill:rgb(0, 0, 0); fill-opacity:1.000; stroke:none;" />
</svg>
