<?xml version="1.0" encoding="UTF-8" standalone="no"?>
<!DOCTYPE svg PUBLIC "-//W3C//DTD SVG 1.1//EN" 
  "http://www.w3.org/Graphics/SVG/1.1/DTD/svg11.dtd">
<svg width="107" height="134"
     xmlns="http://www.w3.org/2000/svg" version="1.1">
 <path d="  M 45,18  L 46,18  L 46,12  L 47,12  L 47,11  L 48,11  L 48,12  L 53,12  L 53,13  L 54,13  L 54,12  L 60,12  L 60,11  L 61,11  L 61,8  L 60,8  L 60,7  L 59,7  L 59,6  L 41,6  L 41,5  L 22,5  L 22,4  L 21,4  L 21,5  L 18,5  L 18,4  L 17,4  L 17,5  L 16,5  L 16,4  L 15,4  L 15,5  L 8,5  L 8,4  L 7,4  L 7,5  L 5,5  L 5,6  L 4,6  L 4,7  L 3,7  L 3,10  L 4,10  L 4,11  L 6,11  L 6,12  L 7,12  L 7,11  L 17,11  L 17,35  L 18,35  L 18,37  L 17,37  L 17,39  L 18,39  L 18,47  L 19,47  L 19,52  L 20,52  L 20,58  L 19,58  L 19,59  L 10,59  L 10,60  L 5,60  L 5,61  L 2,61  L 2,62  L 0,62  L 0,63  L 1,63  L 1,66  L 3,66  L 3,67  L 5,67  L 5,68  L 6,68  L 6,67  L 10,67  L 10,66  L 34,66  L 34,65  L 58,65  L 58,64  L 62,64  L 62,62  L 63,62  L 63,61  L 64,61  L 64,60  L 63,60  L 63,59  L 58,59  L 58,58  L 57,58  L 57,59  L 54,59  L 54,58  L 53,58  L 53,59  L 50,59  L 50,58  L 49,58  L 49,59  L 47,59  L 47,58  L 45,58  L 45,57  L 46,57  L 46,54  L 45,54  Z  M 39,46  L 39,48  L 38,48  L 38,49  L 39,49  L 39,50  L 38,50  L 38,51  L 39,51  L 39,57  L 40,57  L 40,58  L 39,58  L 39,59  L 27,59  L 27,53  L 26,53  L 26,48  L 25,48  L 25,38  L 24,38  L 24,18  L 23,18  L 23,17  L 24,17  L 24,15  L 23,15  L 23,13  L 24,13  L 24,11  L 39,11  L 39,25  L 38,25  L 38,26  L 39,26  L 39,27  L 38,27  L 38,46  Z  " style="fill:rgb(0, 0, 0); fill-opacity:1.000; stroke:none;" />
 <path d="  M 71,89  L 71,88  L 69,88  L 69,87  L 67,87  L 67,86  L 65,86  L 65,85  L 62,85  L 62,84  L 45,84  L 45,85  L 40,85  L 40,86  L 39,86  L 39,85  L 38,85  L 38,86  L 32,86  L 32,87  L 29,87  L 29,88  L 28,88  L 28,89  L 27,89  L 27,91  L 28,91  L 28,93  L 30,93  L 30,94  L 35,94  L 35,93  L 36,93  L 36,92  L 40,92  L 40,91  L 41,91  L 41,92  L 42,92  L 42,91  L 46,91  L 46,90  L 47,90  L 47,91  L 48,91  L 48,90  L 55,90  L 55,91  L 62,91  L 62,92  L 64,92  L 64,93  L 66,93  L 66,94  L 67,94  L 67,95  L 68,95  L 68,96  L 69,96  L 69,97  L 70,97  L 70,98  L 69,98  L 69,99  L 70,99  L 70,101  L 69,101  L 69,104  L 68,104  L 68,109  L 67,109  L 67,114  L 66,114  L 66,118  L 65,118  L 65,122  L 64,122  L 64,124  L 63,124  L 63,129  L 62,129  L 62,130  L 63,130  L 63,133  L 64,133  L 64,134  L 70,134  L 70,131  L 71,131  L 71,127  L 72,127  L 72,126  L 71,126  L 71,124  L 72,124  L 72,119  L 73,119  L 73,113  L 74,113  L 74,106  L 75,106  L 75,103  L 76,103  L 76,94  L 75,94  L 75,92  L 74,92  L 74,91  L 73,91  L 73,89  Z  " style="fill:rgb(0, 0, 0); fill-opacity:1.000; stroke:none;" />
 <path d="  M 77,74  L 78,74  L 78,75  L 79,75  L 79,76  L 81,76  L 81,75  L 82,75  L 82,74  L 83,74  L 83,45  L 84,45  L 84,44  L 85,44  L 85,43  L 89,43  L 89,42  L 107,42  L 107,37  L 106,37  L 106,36  L 88,36  L 88,35  L 87,35  L 87,36  L 86,36  L 86,35  L 85,35  L 85,36  L 84,36  L 84,35  L 83,35  L 83,33  L 82,33  L 82,32  L 83,32  L 83,31  L 82,31  L 82,30  L 83,30  L 83,24  L 88,24  L 88,23  L 102,23  L 102,22  L 104,22  L 104,18  L 103,18  L 103,17  L 102,17  L 102,16  L 97,16  L 97,17  L 94,17  L 94,16  L 93,16  L 93,17  L 90,17  L 90,16  L 89,16  L 89,17  L 85,17  L 85,18  L 82,18  L 82,14  L 83,14  L 83,3  L 82,3  L 82,2  L 81,2  L 81,0  L 77,0  L 77,2  L 76,2  L 76,35  L 77,35  L 77,36  L 76,36  L 76,39  L 77,39  L 77,40  L 76,40  L 76,43  L 77,43  Z  " style="fill:rgb(0, 0, 0); fill-opacity:1.000; stroke:none;" />
</svg>
