<?xml version="1.0" encoding="UTF-8" standalone="no"?>
<!DOCTYPE svg PUBLIC "-//W3C//DTD SVG 1.1//EN" 
  "http://www.w3.org/Graphics/SVG/1.1/DTD/svg11.dtd">
<svg width="106" height="140"
     xmlns="http://www.w3.org/2000/svg" version="1.1">
 <path d="  M 3,60  L 3,61  L 1,61  L 1,62  L 0,62  L 0,66  L 2,66  L 2,67  L 16,67  L 16,66  L 52,66  L 52,65  L 63,65  L 63,64  L 69,64  L 69,63  L 71,63  L 71,62  L 73,62  L 73,61  L 75,61  L 75,60  L 77,60  L 77,58  L 78,58  L 78,57  L 76,57  L 76,56  L 73,56  L 73,57  L 69,57  L 69,58  L 67,58  L 67,57  L 66,57  L 66,58  L 53,58  L 53,59  L 52,59  L 52,58  L 47,58  L 47,57  L 46,57  L 46,45  L 45,45  L 45,44  L 46,44  L 46,41  L 45,41  L 45,40  L 46,40  L 46,39  L 45,39  L 45,38  L 46,38  L 46,37  L 45,37  L 45,36  L 46,36  L 46,33  L 45,33  L 45,32  L 46,32  L 46,16  L 47,16  L 47,11  L 48,11  L 48,12  L 51,12  L 51,13  L 63,13  L 63,12  L 64,12  L 64,13  L 65,13  L 65,9  L 64,9  L 64,7  L 62,7  L 62,6  L 17,6  L 17,7  L 6,7  L 6,8  L 5,8  L 5,10  L 4,10  L 4,15  L 5,15  L 5,16  L 6,16  L 6,15  L 10,15  L 10,14  L 14,14  L 14,13  L 17,13  L 17,18  L 18,18  L 18,21  L 17,21  L 17,22  L 18,22  L 18,23  L 17,23  L 17,24  L 18,24  L 18,25  L 17,25  L 17,26  L 18,26  L 18,27  L 17,27  L 17,28  L 18,28  L 18,29  L 17,29  L 17,30  L 18,30  L 18,31  L 17,31  L 17,34  L 18,34  L 18,35  L 17,35  L 17,42  L 18,42  L 18,43  L 17,43  L 17,46  L 18,46  L 18,55  L 19,55  L 19,57  L 18,57  L 18,59  L 8,59  L 8,60  Z  M 25,13  L 25,12  L 26,12  L 26,13  L 27,13  L 27,12  L 28,12  L 28,13  L 29,13  L 29,12  L 30,12  L 30,13  L 31,13  L 31,12  L 32,12  L 32,13  L 33,13  L 33,12  L 39,12  L 39,33  L 38,33  L 38,34  L 39,34  L 39,35  L 38,35  L 38,52  L 39,52  L 39,54  L 38,54  L 38,55  L 39,55  L 39,58  L 38,58  L 38,59  L 36,59  L 36,60  L 35,60  L 35,59  L 30,59  L 30,60  L 29,60  L 29,59  L 26,59  L 26,58  L 25,58  L 25,55  L 24,55  L 24,54  L 25,54  L 25,53  L 24,53  L 24,13  Z  " style="fill:rgb(0, 0, 0); fill-opacity:1.000; stroke:none;" />
 <path d="  M 80,131  L 80,132  L 69,132  L 69,133  L 61,133  L 61,134  L 59,134  L 59,133  L 58,133  L 58,134  L 40,134  L 40,130  L 39,130  L 39,124  L 38,124  L 38,108  L 39,108  L 39,107  L 38,107  L 38,106  L 39,106  L 39,90  L 40,90  L 40,89  L 39,89  L 39,88  L 34,88  L 34,89  L 33,89  L 33,103  L 32,103  L 32,104  L 33,104  L 33,105  L 32,105  L 32,106  L 33,106  L 33,107  L 32,107  L 32,124  L 33,124  L 33,125  L 32,125  L 32,126  L 33,126  L 33,133  L 34,133  L 34,135  L 35,135  L 35,136  L 36,136  L 36,138  L 38,138  L 38,139  L 40,139  L 40,140  L 63,140  L 63,139  L 64,139  L 64,140  L 65,140  L 65,139  L 75,139  L 75,138  L 76,138  L 76,139  L 77,139  L 77,138  L 87,138  L 87,137  L 88,137  L 88,138  L 90,138  L 90,137  L 102,137  L 102,136  L 105,136  L 105,135  L 106,135  L 106,129  L 102,129  L 102,130  L 99,130  L 99,129  L 98,129  L 98,130  L 94,130  L 94,131  Z  " style="fill:rgb(0, 0, 0); fill-opacity:1.000; stroke:none;" />
 <path d="  M 66,30  L 66,31  L 63,31  L 63,32  L 61,32  L 61,37  L 60,37  L 60,38  L 62,38  L 62,39  L 65,39  L 65,38  L 69,38  L 69,37  L 73,37  L 73,36  L 74,36  L 74,37  L 75,37  L 75,36  L 79,36  L 79,35  L 87,35  L 87,34  L 90,34  L 90,33  L 91,33  L 91,34  L 92,34  L 92,33  L 93,33  L 93,71  L 94,71  L 94,73  L 93,73  L 93,75  L 94,75  L 94,79  L 96,79  L 96,80  L 97,80  L 97,79  L 100,79  L 100,31  L 99,31  L 99,27  L 98,27  L 98,26  L 97,26  L 97,23  L 96,23  L 96,20  L 95,20  L 95,14  L 94,14  L 94,9  L 93,9  L 93,8  L 94,8  L 94,7  L 93,7  L 93,3  L 92,3  L 92,1  L 90,1  L 90,0  L 88,0  L 88,1  L 87,1  L 87,2  L 86,2  L 86,6  L 87,6  L 87,12  L 88,12  L 88,19  L 89,19  L 89,20  L 90,20  L 90,22  L 91,22  L 91,23  L 92,23  L 92,24  L 93,24  L 93,25  L 92,25  L 92,26  L 90,26  L 90,27  L 84,27  L 84,28  L 76,28  L 76,29  L 70,29  L 70,30  Z  " style="fill:rgb(0, 0, 0); fill-opacity:1.000; stroke:none;" />
</svg>
