<?xml version="1.0" encoding="UTF-8" standalone="no"?>
<!DOCTYPE svg PUBLIC "-//W3C//DTD SVG 1.1//EN" 
  "http://www.w3.org/Graphics/SVG/1.1/DTD/svg11.dtd">
<svg width="107" height="142"
     xmlns="http://www.w3.org/2000/svg" version="1.1">
 <path d="  M 10,8  L 10,9  L 7,9  L 7,10  L 6,10  L 6,11  L 5,11  L 5,12  L 4,12  L 4,14  L 5,14  L 5,15  L 6,15  L 6,16  L 8,16  L 8,15  L 14,15  L 14,14  L 17,14  L 17,15  L 18,15  L 18,44  L 19,44  L 19,50  L 20,50  L 20,59  L 21,59  L 21,61  L 20,61  L 20,63  L 10,63  L 10,64  L 3,64  L 3,65  L 1,65  L 1,66  L 0,66  L 0,68  L 1,68  L 1,69  L 2,69  L 2,70  L 5,70  L 5,71  L 6,71  L 6,70  L 9,70  L 9,69  L 10,69  L 10,70  L 11,70  L 11,69  L 21,69  L 21,68  L 27,68  L 27,67  L 37,67  L 37,66  L 49,66  L 49,65  L 50,65  L 50,66  L 52,66  L 52,65  L 61,65  L 61,64  L 63,64  L 63,63  L 65,63  L 65,62  L 66,62  L 66,61  L 67,61  L 67,59  L 65,59  L 65,58  L 62,58  L 62,59  L 54,59  L 54,60  L 53,60  L 53,59  L 52,59  L 52,60  L 48,60  L 48,59  L 47,59  L 47,57  L 46,57  L 46,14  L 47,14  L 47,13  L 51,13  L 51,14  L 56,14  L 56,15  L 57,15  L 57,14  L 64,14  L 64,11  L 62,11  L 62,10  L 61,10  L 61,9  L 60,9  L 60,8  Z  M 39,61  L 28,61  L 28,60  L 27,60  L 27,59  L 26,59  L 26,52  L 25,52  L 25,47  L 24,47  L 24,15  L 25,15  L 25,14  L 36,14  L 36,13  L 37,13  L 37,14  L 39,14  Z  " style="fill:rgb(0, 0, 0); fill-opacity:1.000; stroke:none;" />
 <path d="  M 40,87  L 40,88  L 41,88  L 41,91  L 40,91  L 40,92  L 39,92  L 39,93  L 38,93  L 38,94  L 37,94  L 37,95  L 36,95  L 36,96  L 35,96  L 35,98  L 34,98  L 34,100  L 33,100  L 33,101  L 32,101  L 32,103  L 31,103  L 31,106  L 30,106  L 30,107  L 29,107  L 29,109  L 28,109  L 28,111  L 27,111  L 27,113  L 26,113  L 26,114  L 25,114  L 25,115  L 24,115  L 24,117  L 23,117  L 23,118  L 22,118  L 22,119  L 21,119  L 21,120  L 20,120  L 20,121  L 19,121  L 19,122  L 18,122  L 18,123  L 17,123  L 17,125  L 16,125  L 16,126  L 15,126  L 15,128  L 14,128  L 14,131  L 15,131  L 15,132  L 16,132  L 16,133  L 17,133  L 17,134  L 20,134  L 20,132  L 21,132  L 21,130  L 22,130  L 22,127  L 23,127  L 23,126  L 24,126  L 24,125  L 25,125  L 25,123  L 26,123  L 26,122  L 27,122  L 27,120  L 29,120  L 29,118  L 30,118  L 30,117  L 31,117  L 31,115  L 32,115  L 32,112  L 33,112  L 33,111  L 37,111  L 37,112  L 38,112  L 38,113  L 40,113  L 40,114  L 41,114  L 41,115  L 43,115  L 43,116  L 46,116  L 46,117  L 48,117  L 48,118  L 51,118  L 51,119  L 54,119  L 54,120  L 55,120  L 55,121  L 56,121  L 56,122  L 57,122  L 57,123  L 58,123  L 58,129  L 57,129  L 57,131  L 56,131  L 56,133  L 55,133  L 55,135  L 54,135  L 54,137  L 53,137  L 53,142  L 59,142  L 59,140  L 60,140  L 60,138  L 61,138  L 61,136  L 62,136  L 62,134  L 63,134  L 63,130  L 64,130  L 64,129  L 65,129  L 65,128  L 66,128  L 66,126  L 67,126  L 67,124  L 68,124  L 68,123  L 69,123  L 69,120  L 70,120  L 70,118  L 71,118  L 71,116  L 72,116  L 72,114  L 73,114  L 73,112  L 77,112  L 77,113  L 78,113  L 78,114  L 79,114  L 79,115  L 80,115  L 80,116  L 81,116  L 81,117  L 82,117  L 82,118  L 84,118  L 84,119  L 86,119  L 86,120  L 87,120  L 87,121  L 89,121  L 89,122  L 91,122  L 91,123  L 92,123  L 92,124  L 94,124  L 94,125  L 96,125  L 96,126  L 97,126  L 97,127  L 99,127  L 99,129  L 101,129  L 101,131  L 102,131  L 102,132  L 103,132  L 103,134  L 104,134  L 104,135  L 106,135  L 106,134  L 107,134  L 107,126  L 106,126  L 106,125  L 105,125  L 105,124  L 103,124  L 103,123  L 101,123  L 101,122  L 100,122  L 100,121  L 98,121  L 98,120  L 97,120  L 97,119  L 95,119  L 95,118  L 93,118  L 93,117  L 91,117  L 91,116  L 90,116  L 90,115  L 89,115  L 89,114  L 87,114  L 87,113  L 86,113  L 86,112  L 85,112  L 85,111  L 84,111  L 84,110  L 82,110  L 82,109  L 81,109  L 81,107  L 80,107  L 80,106  L 79,106  L 79,102  L 80,102  L 80,98  L 81,98  L 81,95  L 82,95  L 82,93  L 83,93  L 83,90  L 84,90  L 84,89  L 83,89  L 83,87  L 79,87  L 79,88  L 77,88  L 77,89  L 76,89  L 76,91  L 75,91  L 75,93  L 74,93  L 74,97  L 73,97  L 73,99  L 72,99  L 72,101  L 71,101  L 71,103  L 70,103  L 70,105  L 69,105  L 69,108  L 68,108  L 68,110  L 67,110  L 67,113  L 66,113  L 66,118  L 65,118  L 65,120  L 64,120  L 64,121  L 63,121  L 63,119  L 62,119  L 62,118  L 61,118  L 61,117  L 59,117  L 59,116  L 57,116  L 57,115  L 55,115  L 55,114  L 53,114  L 53,113  L 51,113  L 51,112  L 49,112  L 49,111  L 47,111  L 47,110  L 45,110  L 45,109  L 43,109  L 43,108  L 42,108  L 42,107  L 41,107  L 41,106  L 40,106  L 40,105  L 38,105  L 38,102  L 39,102  L 39,100  L 40,100  L 40,98  L 41,98  L 41,97  L 42,97  L 42,96  L 43,96  L 43,95  L 44,95  L 44,94  L 45,94  L 45,92  L 46,92  L 46,90  L 47,90  L 47,87  L 46,87  L 46,86  L 45,86  L 45,85  L 44,85  L 44,84  L 41,84  L 41,85  L 39,85  L 39,86  L 38,86  L 38,84  L 36,84  L 36,83  L 33,83  L 33,84  L 31,84  L 31,86  L 32,86  L 32,88  L 33,88  L 33,89  L 36,89  L 36,88  L 37,88  L 37,87  Z  " style="fill:rgb(0, 0, 0); fill-opacity:1.000; stroke:none;" />
 <path d="  M 88,3  L 87,3  L 87,2  L 86,2  L 86,1  L 81,1  L 81,5  L 82,5  L 82,12  L 83,12  L 83,16  L 84,16  L 84,18  L 85,18  L 85,22  L 86,22  L 86,23  L 82,23  L 82,24  L 76,24  L 76,25  L 66,25  L 66,26  L 65,26  L 65,25  L 64,25  L 64,26  L 61,26  L 61,25  L 59,25  L 59,26  L 57,26  L 57,33  L 58,33  L 58,34  L 61,34  L 61,33  L 67,33  L 67,32  L 77,32  L 77,31  L 85,31  L 85,32  L 86,32  L 86,38  L 85,38  L 85,40  L 86,40  L 86,42  L 85,42  L 85,77  L 86,77  L 86,78  L 88,78  L 88,79  L 89,79  L 89,78  L 91,78  L 91,64  L 92,64  L 92,63  L 91,63  L 91,60  L 92,60  L 92,59  L 91,59  L 91,58  L 92,58  L 92,23  L 91,23  L 91,19  L 90,19  L 90,15  L 89,15  L 89,9  L 88,9  Z  " style="fill:rgb(0, 0, 0); fill-opacity:1.000; stroke:none;" />
</svg>
