<?xml version="1.0" encoding="UTF-8" standalone="no"?>
<!DOCTYPE svg PUBLIC "-//W3C//DTD SVG 1.1//EN" 
  "http://www.w3.org/Graphics/SVG/1.1/DTD/svg11.dtd">
<svg width="105" height="155"
     xmlns="http://www.w3.org/2000/svg" version="1.1">
 <path d="  M 49,52  L 48,52  L 48,51  L 49,51  L 49,48  L 48,48  L 48,47  L 49,47  L 49,44  L 48,44  L 48,42  L 49,42  L 49,40  L 48,40  L 48,38  L 49,38  L 49,36  L 48,36  L 48,26  L 49,26  L 49,25  L 48,25  L 48,23  L 49,23  L 49,22  L 50,22  L 50,21  L 51,21  L 51,22  L 54,22  L 54,23  L 55,23  L 55,22  L 60,22  L 60,23  L 61,23  L 61,22  L 67,22  L 67,21  L 69,21  L 69,20  L 70,20  L 70,19  L 71,19  L 71,17  L 70,17  L 70,16  L 69,16  L 69,15  L 65,15  L 65,14  L 64,14  L 64,15  L 19,15  L 19,16  L 8,16  L 8,17  L 7,17  L 7,18  L 6,18  L 6,21  L 7,21  L 7,22  L 16,22  L 16,21  L 17,21  L 17,22  L 19,22  L 19,28  L 18,28  L 18,29  L 19,29  L 19,32  L 18,32  L 18,33  L 19,33  L 19,36  L 18,36  L 18,37  L 19,37  L 19,39  L 18,39  L 18,41  L 19,41  L 19,43  L 18,43  L 18,45  L 19,45  L 19,47  L 18,47  L 18,49  L 19,49  L 19,52  L 18,52  L 18,53  L 19,53  L 19,61  L 20,61  L 20,69  L 21,69  L 21,72  L 14,72  L 14,71  L 13,71  L 13,72  L 8,72  L 8,73  L 3,73  L 3,74  L 1,74  L 1,76  L 0,76  L 0,79  L 4,79  L 4,80  L 7,80  L 7,79  L 13,79  L 13,78  L 22,78  L 22,77  L 23,77  L 23,78  L 39,78  L 39,77  L 40,77  L 40,78  L 42,78  L 42,77  L 69,77  L 69,76  L 70,76  L 70,74  L 71,74  L 71,70  L 70,70  L 70,69  L 63,69  L 63,70  L 61,70  L 61,69  L 60,69  L 60,70  L 56,70  L 56,69  L 54,69  L 54,70  L 50,70  L 50,66  L 49,66  Z  M 41,54  L 42,54  L 42,55  L 41,55  L 41,57  L 42,57  L 42,60  L 41,60  L 41,61  L 42,61  L 42,70  L 32,70  L 32,71  L 30,71  L 30,70  L 28,70  L 28,69  L 27,69  L 27,68  L 28,68  L 28,67  L 27,67  L 27,59  L 26,59  L 26,52  L 25,52  L 25,49  L 26,49  L 26,48  L 25,48  L 25,45  L 26,45  L 26,44  L 25,44  L 25,37  L 26,37  L 26,36  L 25,36  L 25,33  L 26,33  L 26,32  L 25,32  L 25,31  L 26,31  L 26,30  L 25,30  L 25,29  L 26,29  L 26,28  L 25,28  L 25,27  L 26,27  L 26,22  L 31,22  L 31,21  L 32,21  L 32,22  L 35,22  L 35,21  L 36,21  L 36,22  L 38,22  L 38,21  L 39,21  L 39,22  L 41,22  Z  " style="fill:rgb(0, 0, 0); fill-opacity:1.000; stroke:none;" />
 <path d="  M 39,147  L 40,147  L 40,149  L 41,149  L 41,151  L 44,151  L 44,152  L 46,152  L 46,153  L 47,153  L 47,154  L 52,154  L 52,155  L 77,155  L 77,154  L 79,154  L 79,153  L 82,153  L 82,152  L 85,152  L 85,151  L 89,151  L 89,150  L 91,150  L 91,149  L 93,149  L 93,148  L 95,148  L 95,147  L 96,147  L 96,146  L 99,146  L 99,145  L 100,145  L 100,144  L 101,144  L 101,143  L 102,143  L 102,142  L 103,142  L 103,140  L 104,140  L 104,137  L 105,137  L 105,108  L 104,108  L 104,106  L 103,106  L 103,105  L 102,105  L 102,104  L 101,104  L 101,103  L 100,103  L 100,102  L 99,102  L 99,101  L 96,101  L 96,100  L 93,100  L 93,99  L 75,99  L 75,98  L 71,98  L 71,97  L 64,97  L 64,98  L 62,98  L 62,99  L 61,99  L 61,100  L 60,100  L 60,101  L 58,101  L 58,102  L 57,102  L 57,103  L 56,103  L 56,104  L 55,104  L 55,105  L 54,105  L 54,106  L 52,106  L 52,107  L 51,107  L 51,108  L 50,108  L 50,109  L 49,109  L 49,110  L 48,110  L 48,111  L 47,111  L 47,112  L 46,112  L 46,113  L 45,113  L 45,114  L 44,114  L 44,116  L 43,116  L 43,117  L 42,117  L 42,119  L 41,119  L 41,122  L 40,122  L 40,126  L 39,126  L 39,128  L 38,128  L 38,132  L 37,132  L 37,133  L 38,133  L 38,134  L 37,134  L 37,135  L 38,135  L 38,136  L 37,136  L 37,140  L 38,140  L 38,145  L 39,145  Z  M 97,110  L 97,112  L 98,112  L 98,113  L 99,113  L 99,131  L 98,131  L 98,136  L 97,136  L 97,137  L 96,137  L 96,139  L 95,139  L 95,140  L 94,140  L 94,141  L 92,141  L 92,142  L 91,142  L 91,143  L 90,143  L 90,142  L 89,142  L 89,143  L 88,143  L 88,144  L 85,144  L 85,145  L 81,145  L 81,146  L 79,146  L 79,147  L 76,147  L 76,148  L 70,148  L 70,149  L 56,149  L 56,148  L 51,148  L 51,147  L 49,147  L 49,146  L 47,146  L 47,145  L 46,145  L 46,143  L 45,143  L 45,131  L 46,131  L 46,127  L 47,127  L 47,124  L 48,124  L 48,122  L 49,122  L 49,119  L 50,119  L 50,118  L 51,118  L 51,117  L 52,117  L 52,116  L 53,116  L 53,115  L 54,115  L 54,114  L 55,114  L 55,113  L 56,113  L 56,112  L 57,112  L 57,111  L 59,111  L 59,110  L 61,110  L 61,109  L 62,109  L 62,108  L 64,108  L 64,107  L 67,107  L 67,106  L 89,106  L 89,107  L 92,107  L 92,108  L 94,108  L 94,109  L 96,109  L 96,110  Z  " style="fill:rgb(0, 0, 0); fill-opacity:1.000; stroke:none;" />
 <path d="  M 103,19  L 104,19  L 104,18  L 103,18  L 103,14  L 102,14  L 102,8  L 101,8  L 101,4  L 100,4  L 100,2  L 99,2  L 99,1  L 97,1  L 97,0  L 95,0  L 95,1  L 94,1  L 94,11  L 95,11  L 95,15  L 96,15  L 96,21  L 97,21  L 97,31  L 94,31  L 94,32  L 90,32  L 90,33  L 87,33  L 87,34  L 81,34  L 81,35  L 72,35  L 72,36  L 71,36  L 71,35  L 70,35  L 70,36  L 66,36  L 66,37  L 62,37  L 62,38  L 61,38  L 61,39  L 59,39  L 59,42  L 60,42  L 60,44  L 61,44  L 61,45  L 62,45  L 62,46  L 67,46  L 67,45  L 70,45  L 70,44  L 75,44  L 75,43  L 76,43  L 76,44  L 77,44  L 77,43  L 81,43  L 81,42  L 87,42  L 87,41  L 92,41  L 92,40  L 95,40  L 95,39  L 97,39  L 97,40  L 99,40  L 99,87  L 100,87  L 100,89  L 103,89  L 103,90  L 104,90  L 104,89  L 105,89  L 105,28  L 104,28  L 104,20  L 103,20  Z  " style="fill:rgb(0, 0, 0); fill-opacity:1.000; stroke:none;" />
</svg>
