<?xml version="1.0" encoding="UTF-8" standalone="no"?>
<!DOCTYPE svg PUBLIC "-//W3C//DTD SVG 1.1//EN" 
  "http://www.w3.org/Graphics/SVG/1.1/DTD/svg11.dtd">
<svg width="105" height="133"
     xmlns="http://www.w3.org/2000/svg" version="1.1">
 <path d="  M 11,61  L 11,60  L 14,60  L 14,59  L 15,59  L 15,60  L 17,60  L 17,59  L 16,59  L 16,58  L 18,58  L 18,60  L 23,60  L 23,61  L 38,61  L 38,60  L 45,60  L 45,59  L 55,59  L 55,58  L 62,58  L 62,57  L 64,57  L 64,56  L 65,56  L 65,55  L 66,55  L 66,54  L 65,54  L 65,53  L 64,53  L 64,52  L 48,52  L 48,51  L 47,51  L 47,45  L 46,45  L 46,43  L 47,43  L 47,41  L 46,41  L 46,40  L 47,40  L 47,37  L 46,37  L 46,32  L 45,32  L 45,29  L 44,29  L 44,25  L 43,25  L 43,11  L 50,11  L 50,10  L 51,10  L 51,11  L 52,11  L 52,10  L 60,10  L 60,9  L 62,9  L 62,6  L 61,6  L 61,4  L 59,4  L 59,3  L 57,3  L 57,4  L 8,4  L 8,5  L 7,5  L 7,4  L 6,4  L 6,5  L 4,5  L 4,6  L 2,6  L 2,7  L 1,7  L 1,9  L 0,9  L 0,10  L 1,10  L 1,11  L 2,11  L 2,12  L 9,12  L 9,11  L 12,11  L 12,12  L 13,12  L 13,34  L 14,34  L 14,37  L 13,37  L 13,38  L 14,38  L 14,42  L 15,42  L 15,46  L 16,46  L 16,50  L 17,50  L 17,55  L 16,55  L 16,57  L 15,57  L 15,56  L 12,56  L 12,55  L 11,55  L 11,56  L 10,56  L 10,55  L 8,55  L 8,56  L 5,56  L 5,57  L 3,57  L 3,58  L 1,58  L 1,59  L 0,59  L 0,62  L 2,62  L 2,63  L 3,63  L 3,62  L 8,62  L 8,61  Z  M 21,11  L 36,11  L 36,12  L 37,12  L 37,13  L 36,13  L 36,20  L 37,20  L 37,21  L 36,21  L 36,22  L 37,22  L 37,30  L 38,30  L 38,33  L 39,33  L 39,38  L 40,38  L 40,39  L 39,39  L 39,40  L 40,40  L 40,53  L 36,53  L 36,54  L 35,54  L 35,53  L 31,53  L 31,54  L 28,54  L 28,53  L 27,53  L 27,54  L 26,54  L 26,53  L 24,53  L 24,50  L 23,50  L 23,46  L 22,46  L 22,38  L 21,38  L 21,25  L 20,25  L 20,24  L 21,24  Z  " style="fill:rgb(0, 0, 0); fill-opacity:1.000; stroke:none;" />
 <path d="  M 87,131  L 90,131  L 90,130  L 91,130  L 91,131  L 92,131  L 92,130  L 102,130  L 102,129  L 104,129  L 104,127  L 105,127  L 105,122  L 98,122  L 98,123  L 84,123  L 84,124  L 69,124  L 69,125  L 61,125  L 61,126  L 58,126  L 58,125  L 57,125  L 57,126  L 43,126  L 43,125  L 42,125  L 42,123  L 41,123  L 41,118  L 40,118  L 40,104  L 39,104  L 39,83  L 38,83  L 38,82  L 34,82  L 34,83  L 33,83  L 33,110  L 34,110  L 34,121  L 35,121  L 35,125  L 36,125  L 36,129  L 37,129  L 37,128  L 38,128  L 38,131  L 40,131  L 40,132  L 43,132  L 43,133  L 64,133  L 64,132  L 65,132  L 65,133  L 66,133  L 66,132  L 74,132  L 74,131  L 75,131  L 75,132  L 76,132  L 76,131  L 86,131  L 86,130  L 87,130  Z  " style="fill:rgb(0, 0, 0); fill-opacity:1.000; stroke:none;" />
 <path d="  M 76,56  L 76,59  L 75,59  L 75,60  L 76,60  L 76,61  L 75,61  L 75,62  L 76,62  L 76,63  L 75,63  L 75,66  L 76,66  L 76,68  L 77,68  L 77,69  L 79,69  L 79,68  L 82,68  L 82,66  L 83,66  L 83,14  L 84,14  L 84,13  L 83,13  L 83,10  L 84,10  L 84,9  L 83,9  L 83,8  L 84,8  L 84,7  L 83,7  L 83,6  L 84,6  L 84,3  L 83,3  L 83,1  L 78,1  L 78,3  L 77,3  L 77,17  L 76,17  L 76,18  L 77,18  L 77,20  L 76,20  L 76,21  L 77,21  L 77,22  L 76,22  L 76,23  L 75,23  L 75,24  L 65,24  L 65,25  L 64,25  L 64,24  L 63,24  L 63,25  L 56,25  L 56,26  L 50,26  L 50,27  L 49,27  L 49,31  L 50,31  L 50,33  L 51,33  L 51,34  L 53,34  L 53,33  L 57,33  L 57,32  L 66,32  L 66,31  L 67,31  L 67,32  L 68,32  L 68,31  L 76,31  L 76,43  L 75,43  L 75,44  L 76,44  L 76,47  L 75,47  L 75,48  L 76,48  L 76,55  L 75,55  L 75,56  Z  " style="fill:rgb(0, 0, 0); fill-opacity:1.000; stroke:none;" />
 <path d="  M 67,54  L 67,53  L 66,53  L 66,54  Z  " style="fill:rgb(0, 0, 0); fill-opacity:1.000; stroke:none;" />
 <path d="  M 99,43  L 98,43  L 98,42  L 99,42  L 99,39  L 98,39  L 98,38  L 99,38  L 99,35  L 98,35  L 98,34  L 99,34  L 99,31  L 98,31  L 98,29  L 99,29  L 99,27  L 98,27  L 98,25  L 99,25  L 99,23  L 98,23  L 98,21  L 99,21  L 99,19  L 98,19  L 98,10  L 97,10  L 97,6  L 96,6  L 96,5  L 93,5  L 93,6  L 92,6  L 92,72  L 93,72  L 93,73  L 96,73  L 96,72  L 98,72  L 98,71  L 99,71  Z  " style="fill:rgb(0, 0, 0); fill-opacity:1.000; stroke:none;" />
</svg>
