<?xml version="1.0" encoding="UTF-8" standalone="no"?>
<!DOCTYPE svg PUBLIC "-//W3C//DTD SVG 1.1//EN" 
  "http://www.w3.org/Graphics/SVG/1.1/DTD/svg11.dtd">
<svg width="106" height="148"
     xmlns="http://www.w3.org/2000/svg" version="1.1">
 <path d="  M 57,13  L 57,12  L 59,12  L 59,10  L 60,10  L 60,8  L 59,8  L 59,6  L 58,6  L 58,5  L 53,5  L 53,6  L 45,6  L 45,7  L 7,7  L 7,8  L 4,8  L 4,9  L 3,9  L 3,10  L 2,10  L 2,14  L 1,14  L 1,15  L 3,15  L 3,16  L 4,16  L 4,15  L 7,15  L 7,14  L 10,14  L 10,15  L 11,15  L 11,14  L 14,14  L 14,39  L 15,39  L 15,47  L 16,47  L 16,55  L 17,55  L 17,64  L 13,64  L 13,63  L 12,63  L 12,62  L 10,62  L 10,63  L 7,63  L 7,64  L 5,64  L 5,65  L 3,65  L 3,66  L 2,66  L 2,68  L 1,68  L 1,69  L 0,69  L 0,70  L 1,70  L 1,71  L 7,71  L 7,70  L 24,70  L 24,69  L 30,69  L 30,68  L 34,68  L 34,67  L 35,67  L 35,68  L 36,68  L 36,67  L 56,67  L 56,66  L 61,66  L 61,65  L 62,65  L 62,64  L 63,64  L 63,61  L 62,61  L 62,60  L 63,60  L 63,59  L 57,59  L 57,60  L 48,60  L 48,46  L 47,46  L 47,44  L 48,44  L 48,42  L 47,42  L 47,36  L 46,36  L 46,34  L 45,34  L 45,28  L 44,28  L 44,17  L 43,17  L 43,15  L 42,15  L 42,14  L 47,14  L 47,13  Z  M 21,15  L 22,15  L 22,14  L 38,14  L 38,16  L 37,16  L 37,18  L 36,18  L 36,20  L 37,20  L 37,22  L 36,22  L 36,24  L 37,24  L 37,26  L 36,26  L 36,27  L 37,27  L 37,35  L 38,35  L 38,39  L 39,39  L 39,41  L 40,41  L 40,47  L 41,47  L 41,48  L 40,48  L 40,51  L 41,51  L 41,53  L 40,53  L 40,54  L 41,54  L 41,60  L 40,60  L 40,61  L 39,61  L 39,60  L 25,60  L 25,59  L 24,59  L 24,56  L 23,56  L 23,55  L 24,55  L 24,54  L 23,54  L 23,44  L 22,44  L 22,36  L 21,36  Z  " style="fill:rgb(0, 0, 0); fill-opacity:1.000; stroke:none;" />
 <path d="  M 52,129  L 52,128  L 53,128  L 53,127  L 55,127  L 55,126  L 56,126  L 56,125  L 58,125  L 58,124  L 60,124  L 60,123  L 61,123  L 61,122  L 62,122  L 62,121  L 64,121  L 64,120  L 68,120  L 68,119  L 69,119  L 69,118  L 71,118  L 71,117  L 73,117  L 73,116  L 75,116  L 75,115  L 77,115  L 77,114  L 78,114  L 78,113  L 81,113  L 81,112  L 83,112  L 83,111  L 85,111  L 85,110  L 87,110  L 87,109  L 88,109  L 88,108  L 89,108  L 89,105  L 90,105  L 90,103  L 89,103  L 89,99  L 88,99  L 88,96  L 87,96  L 87,95  L 86,95  L 86,94  L 85,94  L 85,93  L 84,93  L 84,92  L 83,92  L 83,91  L 82,91  L 82,90  L 79,90  L 79,89  L 78,89  L 78,88  L 77,88  L 77,89  L 76,89  L 76,88  L 74,88  L 74,87  L 70,87  L 70,86  L 62,86  L 62,85  L 43,85  L 43,86  L 42,86  L 42,90  L 43,90  L 43,91  L 44,91  L 44,92  L 59,92  L 59,93  L 70,93  L 70,94  L 75,94  L 75,95  L 76,95  L 76,96  L 77,96  L 77,97  L 79,97  L 79,99  L 80,99  L 80,101  L 81,101  L 81,105  L 79,105  L 79,106  L 77,106  L 77,107  L 75,107  L 75,108  L 73,108  L 73,109  L 72,109  L 72,110  L 69,110  L 69,111  L 67,111  L 67,112  L 65,112  L 65,113  L 64,113  L 64,114  L 61,114  L 61,115  L 59,115  L 59,116  L 57,116  L 57,117  L 56,117  L 56,118  L 53,118  L 53,119  L 51,119  L 51,120  L 49,120  L 49,121  L 48,121  L 48,123  L 47,123  L 47,124  L 46,124  L 46,126  L 45,126  L 45,129  L 44,129  L 44,131  L 43,131  L 43,141  L 44,141  L 44,143  L 45,143  L 45,144  L 46,144  L 46,145  L 47,145  L 47,146  L 48,146  L 48,147  L 49,147  L 49,148  L 66,148  L 66,147  L 70,147  L 70,146  L 73,146  L 73,145  L 76,145  L 76,144  L 78,144  L 78,143  L 81,143  L 81,142  L 84,142  L 84,141  L 86,141  L 86,140  L 88,140  L 88,139  L 90,139  L 90,138  L 93,138  L 93,137  L 95,137  L 95,136  L 97,136  L 97,135  L 98,135  L 98,134  L 99,134  L 99,132  L 100,132  L 100,129  L 92,129  L 92,130  L 89,130  L 89,131  L 87,131  L 87,132  L 85,132  L 85,133  L 83,133  L 83,134  L 80,134  L 80,135  L 78,135  L 78,136  L 77,136  L 77,137  L 76,137  L 76,138  L 73,138  L 73,139  L 71,139  L 71,140  L 69,140  L 69,141  L 64,141  L 64,142  L 53,142  L 53,141  L 51,141  L 51,140  L 50,140  L 50,139  L 49,139  L 49,133  L 50,133  L 50,131  L 51,131  L 51,129  Z  " style="fill:rgb(0, 0, 0); fill-opacity:1.000; stroke:none;" />
 <path d="  M 82,73  L 83,73  L 83,75  L 84,75  L 84,76  L 85,76  L 85,75  L 87,75  L 87,74  L 88,74  L 88,71  L 89,71  L 89,70  L 88,70  L 88,68  L 89,68  L 89,50  L 88,50  L 88,49  L 89,49  L 89,46  L 88,46  L 88,45  L 89,45  L 89,42  L 88,42  L 88,41  L 89,41  L 89,38  L 88,38  L 88,37  L 89,37  L 89,34  L 88,34  L 88,33  L 89,33  L 89,30  L 88,30  L 88,2  L 87,2  L 87,1  L 86,1  L 86,0  L 83,0  L 83,1  L 82,1  L 82,2  L 81,2  L 81,5  L 82,5  L 82,6  L 81,6  L 81,7  L 82,7  L 82,10  L 81,10  L 81,11  L 82,11  L 82,25  L 80,25  L 80,26  L 78,26  L 78,25  L 77,25  L 77,26  L 74,26  L 74,25  L 73,25  L 73,26  L 56,26  L 56,27  L 53,27  L 53,28  L 52,28  L 52,33  L 53,33  L 53,35  L 58,35  L 58,34  L 68,34  L 68,33  L 69,33  L 69,34  L 70,34  L 70,33  L 75,33  L 75,34  L 76,34  L 76,33  L 80,33  L 80,34  L 81,34  L 81,35  L 82,35  L 82,37  L 81,37  L 81,38  L 82,38  L 82,41  L 81,41  L 81,43  L 82,43  L 82,45  L 81,45  L 81,47  L 82,47  L 82,49  L 81,49  L 81,51  L 82,51  L 82,53  L 81,53  L 81,55  L 82,55  L 82,57  L 81,57  L 81,59  L 82,59  L 82,61  L 81,61  L 81,63  L 82,63  L 82,66  L 81,66  L 81,67  L 82,67  L 82,68  L 81,68  L 81,72  L 82,72  Z  " style="fill:rgb(0, 0, 0); fill-opacity:1.000; stroke:none;" />
 <path d="  M 106,3  L 105,3  L 105,2  L 101,2  L 101,3  L 100,3  L 100,12  L 99,12  L 99,13  L 100,13  L 100,14  L 99,14  L 99,15  L 100,15  L 100,16  L 99,16  L 99,17  L 100,17  L 100,56  L 99,56  L 99,57  L 100,57  L 100,60  L 99,60  L 99,61  L 100,61  L 100,64  L 99,64  L 99,65  L 100,65  L 100,68  L 99,68  L 99,69  L 100,69  L 100,74  L 99,74  L 99,75  L 100,75  L 100,76  L 99,76  L 99,77  L 100,77  L 100,79  L 99,79  L 99,82  L 100,82  L 100,84  L 105,84  L 105,82  L 106,82  Z  " style="fill:rgb(0, 0, 0); fill-opacity:1.000; stroke:none;" />
</svg>
