<?xml version="1.0" encoding="UTF-8" standalone="no"?>
<!DOCTYPE svg PUBLIC "-//W3C//DTD SVG 1.1//EN" 
  "http://www.w3.org/Graphics/SVG/1.1/DTD/svg11.dtd">
<svg width="108" height="136"
     xmlns="http://www.w3.org/2000/svg" version="1.1">
 <path d="  M 12,15  L 13,15  L 13,41  L 14,41  L 14,47  L 15,47  L 15,52  L 16,52  L 16,57  L 17,57  L 17,58  L 16,58  L 16,60  L 6,60  L 6,61  L 3,61  L 3,62  L 2,62  L 2,63  L 1,63  L 1,64  L 0,64  L 0,68  L 7,68  L 7,67  L 9,67  L 9,66  L 11,66  L 11,65  L 13,65  L 13,64  L 14,64  L 14,65  L 15,65  L 15,64  L 26,64  L 26,63  L 34,63  L 34,62  L 35,62  L 35,63  L 36,63  L 36,62  L 53,62  L 53,61  L 59,61  L 59,60  L 61,60  L 61,59  L 63,59  L 63,57  L 64,57  L 64,55  L 62,55  L 62,54  L 57,54  L 57,55  L 54,55  L 54,54  L 53,54  L 53,55  L 47,55  L 47,45  L 46,45  L 46,44  L 47,44  L 47,43  L 46,43  L 46,40  L 47,40  L 47,39  L 46,39  L 46,36  L 47,36  L 47,35  L 46,35  L 46,31  L 45,31  L 45,29  L 44,29  L 44,27  L 43,27  L 43,13  L 45,13  L 45,12  L 58,12  L 58,11  L 61,11  L 61,9  L 62,9  L 62,8  L 61,8  L 61,7  L 60,7  L 60,6  L 58,6  L 58,5  L 56,5  L 56,6  L 47,6  L 47,7  L 5,7  L 5,8  L 4,8  L 4,9  L 3,9  L 3,10  L 1,10  L 1,14  L 3,14  L 3,15  L 7,15  L 7,14  L 12,14  Z  M 36,24  L 37,24  L 37,25  L 36,25  L 36,26  L 37,26  L 37,32  L 38,32  L 38,37  L 39,37  L 39,42  L 40,42  L 40,45  L 39,45  L 39,46  L 40,46  L 40,55  L 39,55  L 39,56  L 30,56  L 30,57  L 29,57  L 29,56  L 28,56  L 28,57  L 25,57  L 25,56  L 23,56  L 23,53  L 22,53  L 22,48  L 21,48  L 21,41  L 20,41  L 20,20  L 19,20  L 19,19  L 20,19  L 20,13  L 36,13  L 36,18  L 35,18  L 35,19  L 36,19  Z  " style="fill:rgb(0, 0, 0); fill-opacity:1.000; stroke:none;" />
 <path d="  M 74,119  L 76,119  L 76,120  L 78,120  L 78,121  L 79,121  L 79,122  L 80,122  L 80,123  L 81,123  L 81,124  L 84,124  L 84,125  L 85,125  L 85,126  L 87,126  L 87,127  L 89,127  L 89,128  L 92,128  L 92,129  L 95,129  L 95,130  L 99,130  L 99,131  L 101,131  L 101,130  L 105,130  L 105,129  L 106,129  L 106,126  L 105,126  L 105,125  L 102,125  L 102,124  L 96,124  L 96,123  L 94,123  L 94,122  L 92,122  L 92,121  L 90,121  L 90,120  L 88,120  L 88,119  L 87,119  L 87,118  L 86,118  L 86,117  L 84,117  L 84,116  L 82,116  L 82,115  L 80,115  L 80,114  L 79,114  L 79,113  L 78,113  L 78,112  L 76,112  L 76,111  L 74,111  L 74,109  L 72,109  L 72,108  L 70,108  L 70,107  L 69,107  L 69,106  L 68,106  L 68,105  L 66,105  L 66,104  L 65,104  L 65,102  L 64,102  L 64,101  L 63,101  L 63,100  L 62,100  L 62,99  L 61,99  L 61,97  L 62,97  L 62,95  L 63,95  L 63,94  L 64,94  L 64,93  L 66,93  L 66,91  L 67,91  L 67,90  L 68,90  L 68,89  L 69,89  L 69,84  L 68,84  L 68,83  L 67,83  L 67,82  L 66,82  L 66,83  L 63,83  L 63,82  L 62,82  L 62,83  L 61,83  L 61,84  L 60,84  L 60,86  L 59,86  L 59,88  L 58,88  L 58,89  L 57,89  L 57,90  L 56,90  L 56,92  L 55,92  L 55,93  L 54,93  L 54,95  L 53,95  L 53,96  L 52,96  L 52,98  L 51,98  L 51,99  L 50,99  L 50,101  L 49,101  L 49,103  L 48,103  L 48,104  L 47,104  L 47,105  L 46,105  L 46,107  L 45,107  L 45,109  L 44,109  L 44,110  L 43,110  L 43,112  L 42,112  L 42,114  L 41,114  L 41,115  L 40,115  L 40,116  L 39,116  L 39,117  L 38,117  L 38,119  L 37,119  L 37,121  L 36,121  L 36,122  L 35,122  L 35,124  L 34,124  L 34,125  L 33,125  L 33,126  L 32,126  L 32,127  L 31,127  L 31,128  L 30,128  L 30,129  L 29,129  L 29,130  L 28,130  L 28,131  L 27,131  L 27,135  L 28,135  L 28,136  L 33,136  L 33,135  L 34,135  L 34,134  L 35,134  L 35,132  L 36,132  L 36,131  L 37,131  L 37,130  L 38,130  L 38,129  L 39,129  L 39,127  L 40,127  L 40,126  L 41,126  L 41,125  L 42,125  L 42,124  L 43,124  L 43,122  L 44,122  L 44,121  L 45,121  L 45,119  L 46,119  L 46,118  L 47,118  L 47,116  L 48,116  L 48,114  L 49,114  L 49,113  L 50,113  L 50,111  L 51,111  L 51,110  L 52,110  L 52,109  L 53,109  L 53,106  L 54,106  L 54,105  L 57,105  L 57,106  L 58,106  L 58,107  L 59,107  L 59,108  L 60,108  L 60,109  L 61,109  L 61,110  L 63,110  L 63,111  L 64,111  L 64,112  L 66,112  L 66,113  L 67,113  L 67,114  L 69,114  L 69,115  L 70,115  L 70,117  L 71,117  L 71,116  L 72,116  L 72,118  L 74,118  Z  " style="fill:rgb(0, 0, 0); fill-opacity:1.000; stroke:none;" />
 <path d="  M 78,69  L 79,69  L 79,70  L 80,70  L 80,71  L 83,71  L 83,70  L 84,70  L 84,69  L 85,69  L 85,68  L 86,68  L 86,64  L 87,64  L 87,63  L 86,63  L 86,61  L 87,61  L 87,17  L 86,17  L 86,16  L 87,16  L 87,15  L 86,15  L 86,12  L 87,12  L 87,10  L 86,10  L 86,8  L 87,8  L 87,6  L 86,6  L 86,2  L 85,2  L 85,1  L 84,1  L 84,0  L 81,0  L 81,1  L 80,1  L 80,22  L 76,22  L 76,23  L 74,23  L 74,22  L 73,22  L 73,23  L 68,23  L 68,22  L 67,22  L 67,23  L 57,23  L 57,24  L 52,24  L 52,25  L 49,25  L 49,27  L 50,27  L 50,29  L 51,29  L 51,30  L 52,30  L 52,31  L 58,31  L 58,30  L 80,30  L 80,49  L 79,49  L 79,50  L 80,50  L 80,53  L 79,53  L 79,54  L 80,54  L 80,57  L 79,57  L 79,65  L 78,65  Z  " style="fill:rgb(0, 0, 0); fill-opacity:1.000; stroke:none;" />
 <path d="  M 108,35  L 107,35  L 107,34  L 108,34  L 108,33  L 107,33  L 107,32  L 108,32  L 108,31  L 107,31  L 107,21  L 106,21  L 106,15  L 105,15  L 105,3  L 103,3  L 103,2  L 102,2  L 102,3  L 99,3  L 99,23  L 100,23  L 100,25  L 99,25  L 99,26  L 100,26  L 100,44  L 101,44  L 101,47  L 100,47  L 100,48  L 101,48  L 101,79  L 100,79  L 100,80  L 101,80  L 101,82  L 104,82  L 104,81  L 105,81  L 105,80  L 107,80  L 107,78  L 108,78  Z  " style="fill:rgb(0, 0, 0); fill-opacity:1.000; stroke:none;" />
</svg>
