<?xml version="1.0" encoding="UTF-8" standalone="no"?>
<!DOCTYPE svg PUBLIC "-//W3C//DTD SVG 1.1//EN" 
  "http://www.w3.org/Graphics/SVG/1.1/DTD/svg11.dtd">
<svg width="109" height="170"
     xmlns="http://www.w3.org/2000/svg" version="1.1">
 <path d="  M 55,25  L 55,26  L 64,26  L 64,27  L 69,27  L 69,26  L 70,26  L 70,25  L 71,25  L 71,23  L 70,23  L 70,22  L 69,22  L 69,21  L 68,21  L 68,20  L 67,20  L 67,19  L 64,19  L 64,18  L 40,18  L 40,19  L 39,19  L 39,18  L 36,18  L 36,19  L 35,19  L 35,18  L 32,18  L 32,19  L 31,19  L 31,18  L 28,18  L 28,19  L 27,19  L 27,18  L 25,18  L 25,19  L 23,19  L 23,18  L 21,18  L 21,19  L 19,19  L 19,18  L 16,18  L 16,19  L 15,19  L 15,18  L 12,18  L 12,19  L 11,19  L 11,18  L 10,18  L 10,19  L 6,19  L 6,21  L 5,21  L 5,22  L 4,22  L 4,23  L 5,23  L 5,25  L 7,25  L 7,26  L 14,26  L 14,25  L 17,25  L 17,26  L 18,26  L 18,33  L 19,33  L 19,34  L 18,34  L 18,37  L 19,37  L 19,38  L 18,38  L 18,49  L 19,49  L 19,50  L 18,50  L 18,57  L 19,57  L 19,58  L 18,58  L 18,61  L 19,61  L 19,64  L 18,64  L 18,65  L 19,65  L 19,72  L 20,72  L 20,78  L 19,78  L 19,79  L 13,79  L 13,80  L 9,80  L 9,81  L 7,81  L 7,82  L 4,82  L 4,83  L 1,83  L 1,84  L 0,84  L 0,87  L 1,87  L 1,88  L 2,88  L 2,89  L 7,89  L 7,88  L 8,88  L 8,89  L 9,89  L 9,88  L 10,88  L 10,87  L 14,87  L 14,86  L 18,86  L 18,85  L 39,85  L 39,84  L 41,84  L 41,85  L 42,85  L 42,84  L 47,84  L 47,83  L 48,83  L 48,84  L 49,84  L 49,83  L 55,83  L 55,82  L 66,82  L 66,81  L 67,81  L 67,79  L 68,79  L 68,76  L 67,76  L 67,75  L 51,75  L 51,71  L 50,71  L 50,60  L 49,60  L 49,26  L 50,26  L 50,25  L 51,25  L 51,24  L 52,24  L 52,25  Z  M 42,25  L 42,28  L 41,28  L 41,30  L 42,30  L 42,63  L 43,63  L 43,64  L 42,64  L 42,66  L 43,66  L 43,69  L 42,69  L 42,70  L 43,70  L 43,73  L 42,73  L 42,76  L 36,76  L 36,77  L 35,77  L 35,76  L 34,76  L 34,77  L 29,77  L 29,76  L 27,76  L 27,71  L 26,71  L 26,60  L 25,60  L 25,37  L 26,37  L 26,36  L 25,36  L 25,33  L 26,33  L 26,32  L 25,32  L 25,26  L 26,26  L 26,25  Z  " style="fill:rgb(0, 0, 0); fill-opacity:1.000; stroke:none;" />
 <path d="  M 81,166  L 83,166  L 83,165  L 86,165  L 86,164  L 88,164  L 88,163  L 90,163  L 90,162  L 92,162  L 92,161  L 94,161  L 94,160  L 95,160  L 95,159  L 97,159  L 97,158  L 99,158  L 99,157  L 100,157  L 100,156  L 101,156  L 101,155  L 102,155  L 102,154  L 103,154  L 103,153  L 104,153  L 104,152  L 103,152  L 103,149  L 98,149  L 98,150  L 96,150  L 96,151  L 95,151  L 95,152  L 93,152  L 93,153  L 90,153  L 90,154  L 89,154  L 89,155  L 87,155  L 87,156  L 85,156  L 85,157  L 83,157  L 83,158  L 82,158  L 82,159  L 79,159  L 79,160  L 76,160  L 76,161  L 75,161  L 75,160  L 74,160  L 74,162  L 73,162  L 73,161  L 72,161  L 72,162  L 68,162  L 68,163  L 67,163  L 67,162  L 66,162  L 66,163  L 55,163  L 55,162  L 49,162  L 49,161  L 47,161  L 47,160  L 46,160  L 46,152  L 47,152  L 47,150  L 48,150  L 48,149  L 49,149  L 49,147  L 51,147  L 51,146  L 53,146  L 53,145  L 55,145  L 55,144  L 57,144  L 57,143  L 59,143  L 59,142  L 61,142  L 61,141  L 63,141  L 63,140  L 64,140  L 64,139  L 67,139  L 67,138  L 69,138  L 69,137  L 71,137  L 71,136  L 74,136  L 74,135  L 76,135  L 76,134  L 79,134  L 79,133  L 81,133  L 81,132  L 82,132  L 82,131  L 85,131  L 85,130  L 86,130  L 86,129  L 87,129  L 87,128  L 88,128  L 88,127  L 89,127  L 89,126  L 90,126  L 90,124  L 91,124  L 91,123  L 92,123  L 92,122  L 91,122  L 91,120  L 90,120  L 90,118  L 89,118  L 89,116  L 88,116  L 88,113  L 87,113  L 87,112  L 86,112  L 86,111  L 85,111  L 85,108  L 82,108  L 82,107  L 81,107  L 81,106  L 80,106  L 80,105  L 79,105  L 79,104  L 76,104  L 76,103  L 75,103  L 75,102  L 73,102  L 73,101  L 70,101  L 70,100  L 64,100  L 64,99  L 52,99  L 52,100  L 47,100  L 47,101  L 45,101  L 45,102  L 44,102  L 44,104  L 43,104  L 43,108  L 44,108  L 44,109  L 48,109  L 48,108  L 54,108  L 54,107  L 60,107  L 60,108  L 62,108  L 62,107  L 63,107  L 63,108  L 68,108  L 68,109  L 69,109  L 69,108  L 70,108  L 70,109  L 71,109  L 71,110  L 73,110  L 73,111  L 75,111  L 75,112  L 76,112  L 76,113  L 77,113  L 77,115  L 79,115  L 79,116  L 80,116  L 80,117  L 81,117  L 81,120  L 82,120  L 82,122  L 81,122  L 81,123  L 80,123  L 80,124  L 79,124  L 79,125  L 78,125  L 78,126  L 75,126  L 75,127  L 74,127  L 74,128  L 72,128  L 72,129  L 69,129  L 69,130  L 66,130  L 66,131  L 63,131  L 63,132  L 61,132  L 61,133  L 60,133  L 60,134  L 58,134  L 58,135  L 57,135  L 57,136  L 54,136  L 54,137  L 53,137  L 53,138  L 52,138  L 52,139  L 51,139  L 51,138  L 50,138  L 50,139  L 49,139  L 49,140  L 46,140  L 46,141  L 45,141  L 45,142  L 44,142  L 44,143  L 43,143  L 43,144  L 41,144  L 41,147  L 40,147  L 40,149  L 39,149  L 39,152  L 38,152  L 38,157  L 39,157  L 39,160  L 40,160  L 40,163  L 41,163  L 41,167  L 45,167  L 45,168  L 49,168  L 49,169  L 52,169  L 52,170  L 69,170  L 69,169  L 74,169  L 74,168  L 78,168  L 78,167  L 81,167  Z  " style="fill:rgb(0, 0, 0); fill-opacity:1.000; stroke:none;" />
 <path d="  M 100,54  L 100,56  L 101,56  L 101,57  L 100,57  L 100,59  L 101,59  L 101,62  L 100,62  L 100,63  L 101,63  L 101,66  L 100,66  L 100,67  L 101,67  L 101,95  L 100,95  L 100,97  L 101,97  L 101,98  L 104,98  L 104,99  L 106,99  L 106,98  L 107,98  L 107,97  L 109,97  L 109,96  L 108,96  L 108,94  L 109,94  L 109,2  L 108,2  L 108,1  L 106,1  L 106,0  L 104,0  L 104,1  L 102,1  L 102,9  L 103,9  L 103,10  L 102,10  L 102,13  L 103,13  L 103,16  L 102,16  L 102,17  L 103,17  L 103,19  L 102,19  L 102,25  L 101,25  L 101,26  L 96,26  L 96,27  L 95,27  L 95,26  L 94,26  L 94,27  L 91,27  L 91,26  L 90,26  L 90,27  L 87,27  L 87,26  L 86,26  L 86,27  L 72,27  L 72,28  L 69,28  L 69,29  L 68,29  L 68,28  L 67,28  L 67,32  L 68,32  L 68,33  L 71,33  L 71,35  L 72,35  L 72,34  L 74,34  L 74,35  L 81,35  L 81,34  L 84,34  L 84,35  L 85,35  L 85,34  L 101,34  L 101,35  L 102,35  L 102,39  L 101,39  L 101,42  L 102,42  L 102,43  L 101,43  L 101,46  L 100,46  L 100,47  L 96,47  L 96,48  L 95,48  L 95,47  L 94,47  L 94,48  L 85,48  L 85,49  L 81,49  L 81,50  L 78,50  L 78,51  L 74,51  L 74,52  L 71,52  L 71,53  L 69,53  L 69,54  L 68,54  L 68,55  L 65,55  L 65,59  L 71,59  L 71,58  L 76,58  L 76,57  L 79,57  L 79,56  L 84,56  L 84,55  L 92,55  L 92,54  Z  " style="fill:rgb(0, 0, 0); fill-opacity:1.000; stroke:none;" />
 <path d="  M 71,27  L 72,27  L 72,26  L 71,26  Z  " style="fill:rgb(0, 0, 0); fill-opacity:1.000; stroke:none;" />
</svg>
