<?xml version="1.0" encoding="UTF-8" standalone="no"?>
<!DOCTYPE svg PUBLIC "-//W3C//DTD SVG 1.1//EN" 
  "http://www.w3.org/Graphics/SVG/1.1/DTD/svg11.dtd">
<svg width="106" height="160"
     xmlns="http://www.w3.org/2000/svg" version="1.1">
 <path d="  M 29,75  L 29,73  L 28,73  L 28,68  L 27,68  L 27,60  L 26,60  L 26,47  L 25,47  L 25,44  L 26,44  L 26,43  L 25,43  L 25,40  L 26,40  L 26,39  L 25,39  L 25,37  L 26,37  L 26,35  L 25,35  L 25,34  L 26,34  L 26,31  L 25,31  L 25,30  L 26,30  L 26,20  L 27,20  L 27,19  L 40,19  L 40,18  L 41,18  L 41,19  L 42,19  L 42,53  L 43,53  L 43,64  L 44,64  L 44,65  L 43,65  L 43,66  L 44,66  L 44,71  L 45,71  L 45,75  L 36,75  L 36,76  L 35,76  L 35,75  Z  M 50,51  L 49,51  L 49,50  L 50,50  L 50,49  L 49,49  L 49,46  L 50,46  L 50,45  L 49,45  L 49,19  L 50,19  L 50,18  L 54,18  L 54,19  L 56,19  L 56,20  L 59,20  L 59,21  L 63,21  L 63,22  L 65,22  L 65,23  L 66,23  L 66,24  L 67,24  L 67,25  L 68,25  L 68,26  L 70,26  L 70,27  L 71,27  L 71,28  L 74,28  L 74,29  L 76,29  L 76,28  L 78,28  L 78,29  L 79,29  L 79,28  L 80,28  L 80,29  L 81,29  L 81,28  L 82,28  L 82,29  L 85,29  L 85,28  L 86,28  L 86,29  L 87,29  L 87,28  L 99,28  L 99,40  L 98,40  L 98,41  L 95,41  L 95,42  L 87,42  L 87,43  L 84,43  L 84,44  L 81,44  L 81,45  L 76,45  L 76,46  L 71,46  L 71,47  L 67,47  L 67,48  L 64,48  L 64,49  L 63,49  L 63,52  L 64,52  L 64,53  L 65,53  L 65,54  L 71,54  L 71,53  L 73,53  L 73,52  L 79,52  L 79,51  L 86,51  L 86,50  L 90,50  L 90,49  L 96,49  L 96,48  L 99,48  L 99,76  L 100,76  L 100,78  L 99,78  L 99,79  L 100,79  L 100,80  L 99,80  L 99,85  L 100,85  L 100,86  L 99,86  L 99,90  L 100,90  L 100,92  L 104,92  L 104,91  L 105,91  L 105,90  L 106,90  L 106,21  L 105,21  L 105,14  L 104,14  L 104,12  L 105,12  L 105,11  L 104,11  L 104,4  L 103,4  L 103,2  L 102,2  L 102,1  L 101,1  L 101,0  L 100,0  L 100,1  L 99,1  L 99,0  L 98,0  L 98,1  L 97,1  L 97,2  L 96,2  L 96,3  L 95,3  L 95,4  L 96,4  L 96,10  L 97,10  L 97,17  L 98,17  L 98,21  L 92,21  L 92,22  L 91,22  L 91,21  L 89,21  L 89,22  L 87,22  L 87,21  L 86,21  L 86,22  L 77,22  L 77,21  L 72,21  L 72,20  L 71,20  L 71,19  L 70,19  L 70,18  L 68,18  L 68,17  L 67,17  L 67,16  L 66,16  L 66,15  L 65,15  L 65,14  L 63,14  L 63,13  L 61,13  L 61,12  L 60,12  L 60,13  L 58,13  L 58,12  L 44,12  L 44,13  L 41,13  L 41,12  L 40,12  L 40,13  L 13,13  L 13,14  L 8,14  L 8,15  L 7,15  L 7,16  L 6,16  L 6,20  L 14,20  L 14,19  L 15,19  L 15,20  L 16,20  L 16,19  L 19,19  L 19,35  L 18,35  L 18,36  L 19,36  L 19,39  L 18,39  L 18,40  L 19,40  L 19,43  L 18,43  L 18,44  L 19,44  L 19,46  L 18,46  L 18,48  L 19,48  L 19,51  L 18,51  L 18,52  L 19,52  L 19,60  L 20,60  L 20,69  L 21,69  L 21,74  L 19,74  L 19,75  L 14,75  L 14,74  L 12,74  L 12,75  L 8,75  L 8,76  L 5,76  L 5,77  L 2,77  L 2,78  L 1,78  L 1,79  L 0,79  L 0,82  L 1,82  L 1,83  L 6,83  L 6,84  L 7,84  L 7,83  L 9,83  L 9,82  L 15,82  L 15,81  L 16,81  L 16,82  L 17,82  L 17,81  L 20,81  L 20,82  L 21,82  L 21,81  L 23,81  L 23,82  L 30,82  L 30,83  L 31,83  L 31,82  L 32,82  L 32,83  L 35,83  L 35,82  L 36,82  L 36,83  L 37,83  L 37,84  L 38,84  L 38,83  L 41,83  L 41,84  L 42,84  L 42,83  L 45,83  L 45,84  L 46,84  L 46,83  L 55,83  L 55,82  L 58,82  L 58,83  L 59,83  L 59,82  L 60,82  L 60,83  L 63,83  L 63,82  L 68,82  L 68,81  L 71,81  L 71,80  L 72,80  L 72,79  L 73,79  L 73,75  L 55,75  L 55,74  L 53,74  L 53,73  L 52,73  L 52,70  L 51,70  L 51,64  L 50,64  Z  " style="fill:rgb(0, 0, 0); fill-opacity:1.000; stroke:none;" />
 <path d="  M 51,133  L 51,132  L 52,132  L 52,133  L 55,133  L 55,132  L 56,132  L 56,133  L 59,133  L 59,132  L 60,132  L 60,133  L 63,133  L 63,132  L 64,132  L 64,133  L 67,133  L 67,132  L 68,132  L 68,133  L 71,133  L 71,132  L 72,132  L 72,133  L 75,133  L 75,132  L 76,132  L 76,133  L 79,133  L 79,132  L 80,132  L 80,133  L 83,133  L 83,132  L 84,132  L 84,133  L 86,133  L 86,134  L 87,134  L 87,142  L 86,142  L 86,147  L 85,147  L 85,148  L 84,148  L 84,149  L 83,149  L 83,150  L 80,150  L 80,151  L 76,151  L 76,152  L 75,152  L 75,151  L 74,151  L 74,152  L 71,152  L 71,153  L 65,153  L 65,154  L 51,154  L 51,153  L 48,153  L 48,151  L 47,151  L 47,148  L 46,148  L 46,143  L 45,143  L 45,134  L 46,134  L 46,133  Z  M 95,100  L 94,100  L 94,99  L 91,99  L 91,100  L 90,100  L 90,103  L 89,103  L 89,104  L 90,104  L 90,124  L 89,124  L 89,125  L 80,125  L 80,126  L 79,126  L 79,125  L 52,125  L 52,126  L 51,126  L 51,125  L 48,125  L 48,126  L 47,126  L 47,125  L 45,125  L 45,112  L 46,112  L 46,111  L 45,111  L 45,110  L 46,110  L 46,109  L 45,109  L 45,108  L 46,108  L 46,107  L 45,107  L 45,106  L 46,106  L 46,97  L 45,97  L 45,96  L 44,96  L 44,95  L 40,95  L 40,96  L 39,96  L 39,97  L 38,97  L 38,117  L 37,117  L 37,118  L 38,118  L 38,121  L 37,121  L 37,122  L 38,122  L 38,138  L 39,138  L 39,146  L 40,146  L 40,153  L 41,153  L 41,155  L 42,155  L 42,156  L 43,156  L 43,157  L 44,157  L 44,158  L 45,158  L 45,159  L 49,159  L 49,160  L 67,160  L 67,159  L 68,159  L 68,160  L 70,160  L 70,159  L 74,159  L 74,158  L 78,158  L 78,157  L 80,157  L 80,156  L 83,156  L 83,155  L 85,155  L 85,154  L 87,154  L 87,153  L 89,153  L 89,152  L 91,152  L 91,150  L 92,150  L 92,148  L 93,148  L 93,142  L 94,142  L 94,135  L 95,135  L 95,129  L 96,129  L 96,124  L 97,124  L 97,123  L 96,123  L 96,122  L 97,122  L 97,121  L 96,121  L 96,120  L 97,120  L 97,119  L 96,119  L 96,117  L 97,117  L 97,107  L 96,107  L 96,106  L 97,106  L 97,105  L 96,105  L 96,104  L 97,104  L 97,103  L 96,103  L 96,101  L 95,101  Z  " style="fill:rgb(0, 0, 0); fill-opacity:1.000; stroke:none;" />
</svg>
