<?xml version="1.0" encoding="UTF-8" standalone="no"?>
<!DOCTYPE svg PUBLIC "-//W3C//DTD SVG 1.1//EN" 
  "http://www.w3.org/Graphics/SVG/1.1/DTD/svg11.dtd">
<svg width="109" height="154"
     xmlns="http://www.w3.org/2000/svg" version="1.1">
 <path d="  M 36,17  L 36,18  L 37,18  L 37,17  L 40,17  L 40,18  L 41,18  L 41,17  L 44,17  L 44,18  L 45,18  L 45,52  L 46,52  L 46,53  L 45,53  L 45,54  L 46,54  L 46,65  L 47,65  L 47,67  L 46,67  L 46,68  L 42,68  L 42,67  L 41,67  L 41,68  L 38,68  L 38,67  L 35,67  L 35,68  L 32,68  L 32,67  L 31,67  L 31,66  L 30,66  L 30,65  L 31,65  L 31,64  L 30,64  L 30,63  L 31,63  L 31,62  L 30,62  L 30,53  L 29,53  L 29,20  L 30,20  L 30,18  L 31,18  L 31,17  Z  M 61,19  L 66,19  L 66,20  L 67,20  L 67,21  L 69,21  L 69,23  L 68,23  L 68,24  L 69,24  L 69,27  L 68,27  L 68,28  L 74,28  L 74,29  L 76,29  L 76,28  L 86,28  L 86,27  L 87,27  L 87,28  L 88,28  L 88,27  L 99,27  L 99,26  L 100,26  L 100,27  L 101,27  L 101,36  L 99,36  L 99,37  L 98,37  L 98,36  L 97,36  L 97,37  L 94,37  L 94,38  L 89,38  L 89,39  L 87,39  L 87,40  L 82,40  L 82,41  L 80,41  L 80,42  L 78,42  L 78,43  L 71,43  L 71,44  L 67,44  L 67,45  L 66,45  L 66,46  L 64,46  L 64,50  L 65,50  L 65,51  L 66,51  L 66,52  L 70,52  L 70,51  L 74,51  L 74,50  L 75,50  L 75,49  L 82,49  L 82,48  L 86,48  L 86,47  L 88,47  L 88,46  L 91,46  L 91,45  L 95,45  L 95,44  L 99,44  L 99,43  L 101,43  L 101,44  L 102,44  L 102,48  L 101,48  L 101,49  L 102,49  L 102,74  L 103,74  L 103,75  L 102,75  L 102,77  L 103,77  L 103,79  L 102,79  L 102,80  L 103,80  L 103,84  L 104,84  L 104,87  L 105,87  L 105,88  L 109,88  L 109,39  L 108,39  L 108,23  L 107,23  L 107,22  L 108,22  L 108,21  L 107,21  L 107,17  L 106,17  L 106,12  L 105,12  L 105,4  L 104,4  L 104,1  L 103,1  L 103,0  L 99,0  L 99,1  L 98,1  L 98,5  L 97,5  L 97,8  L 98,8  L 98,13  L 99,13  L 99,17  L 100,17  L 100,18  L 99,18  L 99,19  L 95,19  L 95,20  L 88,20  L 88,21  L 86,21  L 86,20  L 85,20  L 85,21  L 83,21  L 83,20  L 81,20  L 81,21  L 80,21  L 80,20  L 75,20  L 75,19  L 74,19  L 74,17  L 73,17  L 73,16  L 72,16  L 72,15  L 71,15  L 71,14  L 70,14  L 70,13  L 69,13  L 69,12  L 68,12  L 68,11  L 64,11  L 64,10  L 62,10  L 62,11  L 60,11  L 60,10  L 57,10  L 57,11  L 56,11  L 56,10  L 55,10  L 55,11  L 19,11  L 19,12  L 18,12  L 18,11  L 17,11  L 17,12  L 12,12  L 12,13  L 11,13  L 11,14  L 10,14  L 10,15  L 9,15  L 9,16  L 11,16  L 11,17  L 12,17  L 12,18  L 17,18  L 17,17  L 18,17  L 18,18  L 19,18  L 19,17  L 22,17  L 22,19  L 23,19  L 23,21  L 22,21  L 22,54  L 23,54  L 23,67  L 24,67  L 24,68  L 7,68  L 7,69  L 3,69  L 3,70  L 1,70  L 1,71  L 0,71  L 0,74  L 1,74  L 1,75  L 3,75  L 3,76  L 8,76  L 8,75  L 24,75  L 24,74  L 26,74  L 26,75  L 51,75  L 51,74  L 63,74  L 63,75  L 64,75  L 64,74  L 67,74  L 67,75  L 68,75  L 68,74  L 69,74  L 69,75  L 70,75  L 70,74  L 72,74  L 72,73  L 73,73  L 73,72  L 74,72  L 74,71  L 75,71  L 75,70  L 76,70  L 76,69  L 74,69  L 74,68  L 73,68  L 73,67  L 71,67  L 71,68  L 70,68  L 70,67  L 69,67  L 69,68  L 66,68  L 66,67  L 54,67  L 54,64  L 53,64  L 53,53  L 52,53  L 52,52  L 53,52  L 53,51  L 52,51  L 52,17  L 53,17  L 53,16  L 56,16  L 56,17  L 59,17  L 59,18  L 61,18  Z  " style="fill:rgb(0, 0, 0); fill-opacity:1.000; stroke:none;" />
 <path d="  M 58,98  L 58,99  L 57,99  L 57,100  L 56,100  L 56,102  L 55,102  L 55,103  L 54,103  L 54,104  L 53,104  L 53,105  L 51,105  L 51,106  L 50,106  L 50,107  L 49,107  L 49,109  L 48,109  L 48,111  L 47,111  L 47,112  L 46,112  L 46,114  L 45,114  L 45,115  L 44,115  L 44,117  L 43,117  L 43,120  L 42,120  L 42,123  L 41,123  L 41,126  L 40,126  L 40,129  L 39,129  L 39,144  L 40,144  L 40,148  L 42,148  L 42,149  L 43,149  L 43,150  L 44,150  L 44,152  L 48,152  L 48,153  L 52,153  L 52,154  L 78,154  L 78,153  L 82,153  L 82,152  L 86,152  L 86,151  L 89,151  L 89,150  L 92,150  L 92,149  L 93,149  L 93,148  L 95,148  L 95,147  L 97,147  L 97,146  L 98,146  L 98,145  L 99,145  L 99,144  L 101,144  L 101,143  L 102,143  L 102,141  L 103,141  L 103,139  L 104,139  L 104,138  L 105,138  L 105,136  L 106,136  L 106,133  L 107,133  L 107,130  L 108,130  L 108,129  L 107,129  L 107,128  L 108,128  L 108,124  L 109,124  L 109,105  L 108,105  L 108,104  L 107,104  L 107,103  L 106,103  L 106,102  L 105,102  L 105,100  L 103,100  L 103,99  L 102,99  L 102,98  L 100,98  L 100,96  L 95,96  L 95,95  L 77,95  L 77,94  L 65,94  L 65,95  L 61,95  L 61,96  L 60,96  L 60,97  L 59,97  L 59,98  Z  M 46,143  L 46,133  L 47,133  L 47,128  L 48,128  L 48,124  L 49,124  L 49,121  L 50,121  L 50,119  L 51,119  L 51,117  L 52,117  L 52,115  L 54,115  L 54,113  L 55,113  L 55,112  L 56,112  L 56,111  L 57,111  L 57,109  L 58,109  L 58,108  L 60,108  L 60,107  L 62,107  L 62,105  L 64,105  L 64,104  L 66,104  L 66,103  L 68,103  L 68,102  L 88,102  L 88,103  L 93,103  L 93,104  L 96,104  L 96,105  L 98,105  L 98,106  L 99,106  L 99,107  L 100,107  L 100,109  L 101,109  L 101,114  L 102,114  L 102,120  L 101,120  L 101,129  L 100,129  L 100,132  L 99,132  L 99,135  L 98,135  L 98,136  L 97,136  L 97,137  L 96,137  L 96,138  L 95,138  L 95,140  L 94,140  L 94,141  L 92,141  L 92,142  L 90,142  L 90,143  L 88,143  L 88,144  L 86,144  L 86,145  L 84,145  L 84,146  L 81,146  L 81,147  L 77,147  L 77,148  L 72,148  L 72,149  L 71,149  L 71,148  L 70,148  L 70,149  L 63,149  L 63,148  L 62,148  L 62,149  L 61,149  L 61,148  L 54,148  L 54,147  L 51,147  L 51,146  L 49,146  L 49,145  L 47,145  L 47,143  Z  " style="fill:rgb(0, 0, 0); fill-opacity:1.000; stroke:none;" />
</svg>
