<?xml version="1.0" encoding="UTF-8" standalone="no"?>
<!DOCTYPE svg PUBLIC "-//W3C//DTD SVG 1.1//EN" 
  "http://www.w3.org/Graphics/SVG/1.1/DTD/svg11.dtd">
<svg width="108" height="154"
     xmlns="http://www.w3.org/2000/svg" version="1.1">
 <path d="  M 22,46  L 21,46  L 21,38  L 20,38  L 20,37  L 21,37  L 21,34  L 20,34  L 20,33  L 21,33  L 21,30  L 20,30  L 20,29  L 21,29  L 21,25  L 20,25  L 20,24  L 21,24  L 21,19  L 35,19  L 35,20  L 36,20  L 36,21  L 35,21  L 35,31  L 36,31  L 36,32  L 35,32  L 35,33  L 36,33  L 36,39  L 37,39  L 37,44  L 38,44  L 38,48  L 39,48  L 39,51  L 40,51  L 40,66  L 25,66  L 25,65  L 24,65  L 24,64  L 23,64  L 23,63  L 24,63  L 24,62  L 23,62  L 23,52  L 22,52  Z  M 5,12  L 5,13  L 3,13  L 3,14  L 2,14  L 2,15  L 1,15  L 1,17  L 0,17  L 0,18  L 1,18  L 1,19  L 2,19  L 2,20  L 3,20  L 3,21  L 4,21  L 4,20  L 7,20  L 7,19  L 13,19  L 13,39  L 14,39  L 14,41  L 13,41  L 13,43  L 14,43  L 14,53  L 15,53  L 15,57  L 16,57  L 16,63  L 17,63  L 17,65  L 16,65  L 16,67  L 17,67  L 17,68  L 16,68  L 16,69  L 15,69  L 15,70  L 6,70  L 6,71  L 3,71  L 3,74  L 2,74  L 2,75  L 3,75  L 3,76  L 4,76  L 4,77  L 6,77  L 6,76  L 7,76  L 7,77  L 10,77  L 10,76  L 12,76  L 12,77  L 14,77  L 14,76  L 15,76  L 15,77  L 18,77  L 18,76  L 19,76  L 19,77  L 20,77  L 20,76  L 25,76  L 25,75  L 30,75  L 30,74  L 32,74  L 32,75  L 33,75  L 33,74  L 46,74  L 46,73  L 47,73  L 47,74  L 50,74  L 50,73  L 51,73  L 51,74  L 52,74  L 52,73  L 54,73  L 54,72  L 59,72  L 59,71  L 61,71  L 61,70  L 62,70  L 62,69  L 65,69  L 65,67  L 64,67  L 64,66  L 62,66  L 62,65  L 57,65  L 57,66  L 48,66  L 48,54  L 47,54  L 47,51  L 48,51  L 48,50  L 47,50  L 47,45  L 46,45  L 46,42  L 45,42  L 45,34  L 44,34  L 44,31  L 43,31  L 43,19  L 46,19  L 46,20  L 53,20  L 53,19  L 56,19  L 56,18  L 58,18  L 58,17  L 57,17  L 57,16  L 58,16  L 58,12  Z  " style="fill:rgb(0, 0, 0); fill-opacity:1.000; stroke:none;" />
 <path d="  M 61,147  L 61,148  L 59,148  L 59,147  L 58,147  L 58,148  L 52,148  L 52,147  L 50,147  L 50,146  L 49,146  L 49,145  L 48,145  L 48,142  L 47,142  L 47,137  L 48,137  L 48,133  L 49,133  L 49,132  L 51,132  L 51,131  L 53,131  L 53,130  L 55,130  L 55,129  L 58,129  L 58,128  L 61,128  L 61,127  L 64,127  L 64,126  L 67,126  L 67,125  L 70,125  L 70,124  L 74,124  L 74,123  L 77,123  L 77,122  L 79,122  L 79,121  L 82,121  L 82,120  L 84,120  L 84,119  L 86,119  L 86,118  L 88,118  L 88,117  L 89,117  L 89,116  L 91,116  L 91,115  L 92,115  L 92,106  L 91,106  L 91,105  L 90,105  L 90,104  L 89,104  L 89,102  L 88,102  L 88,101  L 87,101  L 87,100  L 85,100  L 85,99  L 84,99  L 84,98  L 82,98  L 82,97  L 80,97  L 80,96  L 76,96  L 76,95  L 72,95  L 72,94  L 65,94  L 65,93  L 57,93  L 57,92  L 50,92  L 50,91  L 47,91  L 47,92  L 44,92  L 44,94  L 43,94  L 43,99  L 44,99  L 44,100  L 48,100  L 48,99  L 49,99  L 49,100  L 51,100  L 51,99  L 54,99  L 54,100  L 56,100  L 56,99  L 58,99  L 58,100  L 67,100  L 67,101  L 71,101  L 71,102  L 74,102  L 74,103  L 78,103  L 78,104  L 79,104  L 79,105  L 80,105  L 80,106  L 81,106  L 81,107  L 83,107  L 83,108  L 84,108  L 84,110  L 85,110  L 85,112  L 84,112  L 84,113  L 81,113  L 81,114  L 77,114  L 77,115  L 75,115  L 75,116  L 72,116  L 72,117  L 70,117  L 70,118  L 65,118  L 65,119  L 62,119  L 62,120  L 60,120  L 60,121  L 56,121  L 56,122  L 53,122  L 53,123  L 51,123  L 51,124  L 48,124  L 48,125  L 47,125  L 47,126  L 46,126  L 46,127  L 45,127  L 45,128  L 44,128  L 44,129  L 43,129  L 43,131  L 42,131  L 42,133  L 41,133  L 41,137  L 40,137  L 40,142  L 41,142  L 41,147  L 42,147  L 42,150  L 43,150  L 43,151  L 44,151  L 44,153  L 47,153  L 47,154  L 66,154  L 66,153  L 67,153  L 67,154  L 68,154  L 68,153  L 71,153  L 71,152  L 74,152  L 74,151  L 77,151  L 77,150  L 79,150  L 79,149  L 82,149  L 82,148  L 84,148  L 84,147  L 87,147  L 87,146  L 89,146  L 89,145  L 92,145  L 92,144  L 95,144  L 95,143  L 98,143  L 98,142  L 100,142  L 100,141  L 101,141  L 101,140  L 103,140  L 103,138  L 104,138  L 104,135  L 103,135  L 103,134  L 97,134  L 97,135  L 94,135  L 94,136  L 92,136  L 92,137  L 90,137  L 90,138  L 87,138  L 87,139  L 86,139  L 86,140  L 83,140  L 83,141  L 81,141  L 81,142  L 79,142  L 79,143  L 77,143  L 77,144  L 73,144  L 73,145  L 72,145  L 72,146  L 65,146  L 65,147  Z  " style="fill:rgb(0, 0, 0); fill-opacity:1.000; stroke:none;" />
 <path d="  M 74,24  L 74,23  L 73,23  L 73,24  L 66,24  L 66,23  L 65,23  L 65,24  L 62,24  L 62,23  L 61,23  L 61,24  L 57,24  L 57,25  L 55,25  L 55,26  L 52,26  L 52,27  L 54,27  L 54,29  L 55,29  L 55,31  L 56,31  L 56,32  L 60,32  L 60,31  L 66,31  L 66,30  L 68,30  L 68,31  L 69,31  L 69,30  L 72,30  L 72,31  L 73,31  L 73,30  L 76,30  L 76,31  L 77,31  L 77,30  L 80,30  L 80,31  L 82,31  L 82,38  L 81,38  L 81,40  L 76,40  L 76,41  L 75,41  L 75,40  L 74,40  L 74,41  L 71,41  L 71,40  L 70,40  L 70,41  L 66,41  L 66,42  L 60,42  L 60,43  L 58,43  L 58,44  L 57,44  L 57,47  L 58,47  L 58,48  L 59,48  L 59,49  L 60,49  L 60,48  L 66,48  L 66,47  L 69,47  L 69,46  L 76,46  L 76,45  L 80,45  L 80,47  L 81,47  L 81,83  L 82,83  L 82,85  L 83,85  L 83,87  L 85,87  L 85,86  L 86,86  L 86,84  L 87,84  L 87,83  L 88,83  L 88,81  L 89,81  L 89,14  L 88,14  L 88,13  L 89,13  L 89,12  L 88,12  L 88,11  L 89,11  L 89,10  L 88,10  L 88,9  L 89,9  L 89,8  L 88,8  L 88,4  L 89,4  L 89,2  L 88,2  L 88,1  L 87,1  L 87,0  L 84,0  L 84,1  L 83,1  L 83,2  L 82,2  L 82,3  L 83,3  L 83,4  L 82,4  L 82,7  L 83,7  L 83,9  L 82,9  L 82,14  L 83,14  L 83,15  L 82,15  L 82,23  L 79,23  L 79,24  L 78,24  L 78,23  L 77,23  L 77,24  Z  " style="fill:rgb(0, 0, 0); fill-opacity:1.000; stroke:none;" />
 <path d="  M 108,4  L 107,4  L 107,3  L 106,3  L 106,2  L 102,2  L 102,3  L 101,3  L 101,86  L 100,86  L 100,88  L 101,88  L 101,90  L 106,90  L 106,89  L 107,89  L 107,87  L 108,87  Z  " style="fill:rgb(0, 0, 0); fill-opacity:1.000; stroke:none;" />
</svg>
