<?xml version="1.0" encoding="UTF-8" standalone="no"?>
<!DOCTYPE svg PUBLIC "-//W3C//DTD SVG 1.1//EN" 
  "http://www.w3.org/Graphics/SVG/1.1/DTD/svg11.dtd">
<svg width="108" height="134"
     xmlns="http://www.w3.org/2000/svg" version="1.1">
 <path d="  M 45,26  L 44,26  L 44,20  L 43,20  L 43,10  L 44,10  L 44,9  L 50,9  L 50,8  L 52,8  L 52,9  L 54,9  L 54,8  L 57,8  L 57,7  L 59,7  L 59,5  L 58,5  L 58,3  L 53,3  L 53,2  L 52,2  L 52,3  L 31,3  L 31,2  L 30,2  L 30,3  L 29,3  L 29,2  L 28,2  L 28,3  L 27,3  L 27,2  L 26,2  L 26,3  L 23,3  L 23,2  L 22,2  L 22,3  L 21,3  L 21,2  L 20,2  L 20,3  L 19,3  L 19,2  L 18,2  L 18,3  L 15,3  L 15,2  L 12,2  L 12,3  L 11,3  L 11,2  L 10,2  L 10,3  L 9,3  L 9,2  L 8,2  L 8,3  L 5,3  L 5,4  L 4,4  L 4,5  L 3,5  L 3,6  L 2,6  L 2,9  L 3,9  L 3,10  L 8,10  L 8,9  L 14,9  L 14,40  L 15,40  L 15,45  L 16,45  L 16,51  L 17,51  L 17,57  L 4,57  L 4,58  L 2,58  L 2,59  L 1,59  L 1,60  L 0,60  L 0,63  L 1,63  L 1,64  L 3,64  L 3,63  L 4,63  L 4,64  L 6,64  L 6,63  L 11,63  L 11,62  L 13,62  L 13,61  L 15,61  L 15,62  L 16,62  L 16,61  L 19,61  L 19,62  L 33,62  L 33,61  L 55,61  L 55,60  L 59,60  L 59,59  L 62,59  L 62,58  L 63,58  L 63,56  L 62,56  L 62,55  L 60,55  L 60,54  L 48,54  L 48,53  L 47,53  L 47,45  L 48,45  L 48,44  L 47,44  L 47,39  L 46,39  L 46,36  L 45,36  L 45,33  L 46,33  L 46,32  L 45,32  L 45,29  L 46,29  L 46,28  L 45,28  Z  M 22,47  L 22,40  L 21,40  L 21,24  L 20,24  L 20,23  L 21,23  L 21,17  L 20,17  L 20,16  L 21,16  L 21,9  L 22,9  L 22,8  L 25,8  L 25,9  L 26,9  L 26,8  L 29,8  L 29,9  L 30,9  L 30,8  L 33,8  L 33,9  L 36,9  L 36,21  L 37,21  L 37,22  L 36,22  L 36,23  L 37,23  L 37,29  L 38,29  L 38,38  L 39,38  L 39,53  L 40,53  L 40,54  L 39,54  L 39,55  L 24,55  L 24,53  L 23,53  L 23,47  Z  " style="fill:rgb(0, 0, 0); fill-opacity:1.000; stroke:none;" />
 <path d="  M 70,104  L 70,103  L 69,103  L 69,102  L 67,102  L 67,101  L 66,101  L 66,100  L 65,100  L 65,98  L 64,98  L 64,97  L 65,97  L 65,96  L 64,96  L 64,95  L 65,95  L 65,93  L 66,93  L 66,92  L 67,92  L 67,91  L 69,91  L 69,89  L 70,89  L 70,88  L 71,88  L 71,87  L 72,87  L 72,86  L 73,86  L 73,82  L 72,82  L 72,81  L 71,81  L 71,80  L 68,80  L 68,79  L 67,79  L 67,80  L 64,80  L 64,79  L 60,79  L 60,81  L 63,81  L 63,84  L 62,84  L 62,86  L 61,86  L 61,87  L 60,87  L 60,89  L 59,89  L 59,90  L 58,90  L 58,91  L 57,91  L 57,93  L 56,93  L 56,94  L 55,94  L 55,95  L 54,95  L 54,96  L 53,96  L 53,98  L 52,98  L 52,100  L 51,100  L 51,101  L 50,101  L 50,102  L 49,102  L 49,104  L 48,104  L 48,106  L 47,106  L 47,107  L 46,107  L 46,108  L 45,108  L 45,109  L 44,109  L 44,112  L 43,112  L 43,113  L 42,113  L 42,114  L 41,114  L 41,115  L 40,115  L 40,117  L 39,117  L 39,118  L 37,118  L 37,120  L 36,120  L 36,122  L 35,122  L 35,123  L 33,123  L 33,124  L 32,124  L 32,126  L 31,126  L 31,127  L 30,127  L 30,128  L 29,128  L 29,129  L 28,129  L 28,130  L 27,130  L 27,134  L 34,134  L 34,133  L 35,133  L 35,132  L 36,132  L 36,130  L 37,130  L 37,129  L 38,129  L 38,128  L 39,128  L 39,127  L 40,127  L 40,126  L 41,126  L 41,125  L 42,125  L 42,124  L 43,124  L 43,122  L 44,122  L 44,121  L 45,121  L 45,120  L 46,120  L 46,118  L 47,118  L 47,117  L 48,117  L 48,115  L 49,115  L 49,114  L 50,114  L 50,113  L 51,113  L 51,111  L 52,111  L 52,110  L 53,110  L 53,108  L 54,108  L 54,107  L 55,107  L 55,105  L 56,105  L 56,104  L 57,104  L 57,103  L 60,103  L 60,104  L 61,104  L 61,105  L 62,105  L 62,107  L 64,107  L 64,108  L 65,108  L 65,109  L 67,109  L 67,110  L 68,110  L 68,111  L 69,111  L 69,112  L 71,112  L 71,114  L 73,114  L 73,115  L 75,115  L 75,116  L 76,116  L 76,117  L 79,117  L 79,118  L 80,118  L 80,119  L 81,119  L 81,120  L 83,120  L 83,121  L 85,121  L 85,122  L 87,122  L 87,123  L 88,123  L 88,124  L 90,124  L 90,125  L 94,125  L 94,126  L 97,126  L 97,127  L 99,127  L 99,128  L 107,128  L 107,127  L 108,127  L 108,123  L 107,123  L 107,122  L 105,122  L 105,121  L 99,121  L 99,120  L 95,120  L 95,119  L 94,119  L 94,118  L 92,118  L 92,117  L 90,117  L 90,116  L 88,116  L 88,115  L 87,115  L 87,114  L 85,114  L 85,113  L 83,113  L 83,112  L 81,112  L 81,111  L 80,111  L 80,110  L 79,110  L 79,109  L 77,109  L 77,108  L 75,108  L 75,106  L 73,106  L 73,105  L 71,105  L 71,104  Z  " style="fill:rgb(0, 0, 0); fill-opacity:1.000; stroke:none;" />
 <path d="  M 81,70  L 82,70  L 82,71  L 87,71  L 87,70  L 88,70  L 88,61  L 89,61  L 89,60  L 88,60  L 88,57  L 89,57  L 89,56  L 88,56  L 88,55  L 89,55  L 89,54  L 88,54  L 88,53  L 89,53  L 89,52  L 88,52  L 88,51  L 89,51  L 89,44  L 88,44  L 88,43  L 89,43  L 89,32  L 88,32  L 88,31  L 89,31  L 89,30  L 88,30  L 88,29  L 89,29  L 89,28  L 88,28  L 88,27  L 89,27  L 89,22  L 88,22  L 88,21  L 89,21  L 89,20  L 88,20  L 88,19  L 89,19  L 89,18  L 88,18  L 88,17  L 89,17  L 89,16  L 88,16  L 88,15  L 89,15  L 89,14  L 88,14  L 88,2  L 87,2  L 87,0  L 83,0  L 83,3  L 82,3  L 82,14  L 75,14  L 75,15  L 54,15  L 54,16  L 53,16  L 53,17  L 52,17  L 52,18  L 51,18  L 51,19  L 52,19  L 52,21  L 53,21  L 53,22  L 54,22  L 54,23  L 55,23  L 55,22  L 63,22  L 63,21  L 64,21  L 64,22  L 65,22  L 65,21  L 66,21  L 66,22  L 67,22  L 67,21  L 81,21  L 81,22  L 83,22  L 83,25  L 84,25  L 84,28  L 83,28  L 83,29  L 82,29  L 82,30  L 81,30  L 81,31  L 74,31  L 74,32  L 73,32  L 73,31  L 70,31  L 70,32  L 63,32  L 63,33  L 62,33  L 62,32  L 61,32  L 61,33  L 58,33  L 58,34  L 55,34  L 55,35  L 54,35  L 54,41  L 57,41  L 57,40  L 62,40  L 62,39  L 65,39  L 65,38  L 76,38  L 76,37  L 80,37  L 80,38  L 81,38  L 81,41  L 82,41  L 82,43  L 81,43  L 81,45  L 82,45  L 82,54  L 81,54  L 81,55  L 82,55  L 82,56  L 81,56  L 81,57  L 82,57  L 82,58  L 81,58  L 81,61  L 82,61  L 82,62  L 81,62  Z  " style="fill:rgb(0, 0, 0); fill-opacity:1.000; stroke:none;" />
 <path d="  M 52,15  L 52,16  L 53,16  L 53,15  Z  " style="fill:rgb(0, 0, 0); fill-opacity:1.000; stroke:none;" />
 <path d="  M 99,41  L 100,41  L 100,63  L 101,63  L 101,66  L 100,66  L 100,67  L 101,67  L 101,70  L 100,70  L 100,71  L 101,71  L 101,74  L 100,74  L 100,75  L 101,75  L 101,82  L 102,82  L 102,83  L 103,83  L 103,82  L 105,82  L 105,81  L 106,81  L 106,79  L 107,79  L 107,71  L 108,71  L 108,70  L 107,70  L 107,69  L 108,69  L 108,68  L 107,68  L 107,67  L 108,67  L 108,66  L 107,66  L 107,65  L 108,65  L 108,64  L 107,64  L 107,63  L 108,63  L 108,62  L 107,62  L 107,61  L 108,61  L 108,60  L 107,60  L 107,48  L 106,48  L 106,30  L 105,30  L 105,29  L 106,29  L 106,28  L 105,28  L 105,27  L 106,27  L 106,26  L 105,26  L 105,12  L 104,12  L 104,9  L 105,9  L 105,8  L 104,8  L 104,4  L 103,4  L 103,3  L 99,3  L 99,4  L 98,4  L 98,14  L 99,14  L 99,16  L 98,16  L 98,17  L 99,17  Z  " style="fill:rgb(0, 0, 0); fill-opacity:1.000; stroke:none;" />
</svg>
