<?xml version="1.0" encoding="UTF-8" standalone="no"?>
<!DOCTYPE svg PUBLIC "-//W3C//DTD SVG 1.1//EN" 
  "http://www.w3.org/Graphics/SVG/1.1/DTD/svg11.dtd">
<svg width="104" height="116"
     xmlns="http://www.w3.org/2000/svg" version="1.1">
 <path d="  M 1,113  L 0,113  L 0,114  L 1,114  Z  " style="fill:rgb(0, 0, 0); fill-opacity:1.000; stroke:none;" />
 <path d="  M 100,111  L 100,110  L 103,110  L 103,109  L 104,109  L 104,103  L 103,103  L 103,102  L 95,102  L 95,103  L 88,103  L 88,104  L 81,104  L 81,105  L 72,105  L 72,106  L 61,106  L 61,105  L 59,105  L 59,103  L 58,103  L 58,96  L 59,96  L 59,95  L 58,95  L 58,92  L 59,92  L 59,91  L 58,91  L 58,88  L 59,88  L 59,87  L 58,87  L 58,84  L 59,84  L 59,83  L 58,83  L 58,65  L 59,65  L 59,64  L 62,64  L 62,63  L 66,63  L 66,62  L 67,62  L 67,63  L 68,63  L 68,62  L 77,62  L 77,61  L 86,61  L 86,60  L 88,60  L 88,61  L 89,61  L 89,60  L 91,60  L 91,59  L 92,59  L 92,54  L 86,54  L 86,55  L 76,55  L 76,56  L 70,56  L 70,55  L 69,55  L 69,28  L 70,28  L 70,11  L 71,11  L 71,10  L 73,10  L 73,9  L 85,9  L 85,8  L 86,8  L 86,9  L 87,9  L 87,8  L 88,8  L 88,4  L 87,4  L 87,3  L 86,3  L 86,2  L 83,2  L 83,1  L 78,1  L 78,2  L 72,2  L 72,3  L 64,3  L 64,4  L 56,4  L 56,5  L 32,5  L 32,6  L 24,6  L 24,7  L 21,7  L 21,8  L 19,8  L 19,9  L 18,9  L 18,10  L 17,10  L 17,14  L 22,14  L 22,15  L 23,15  L 23,14  L 29,14  L 29,13  L 31,13  L 31,14  L 32,14  L 32,57  L 33,57  L 33,58  L 32,58  L 32,61  L 31,61  L 31,62  L 29,62  L 29,61  L 26,61  L 26,62  L 20,62  L 20,63  L 18,63  L 18,64  L 17,64  L 17,65  L 14,65  L 14,66  L 13,66  L 13,65  L 12,65  L 12,66  L 9,66  L 9,67  L 8,67  L 8,68  L 7,68  L 7,69  L 6,69  L 6,70  L 7,70  L 7,71  L 8,71  L 8,72  L 9,72  L 9,73  L 10,73  L 10,74  L 13,74  L 13,73  L 16,73  L 16,72  L 19,72  L 19,71  L 20,71  L 20,70  L 24,70  L 24,69  L 28,69  L 28,68  L 32,68  L 32,67  L 33,67  L 33,68  L 34,68  L 34,67  L 35,67  L 35,68  L 36,68  L 36,67  L 45,67  L 45,66  L 48,66  L 48,67  L 49,67  L 49,68  L 50,68  L 50,72  L 51,72  L 51,74  L 50,74  L 50,75  L 51,75  L 51,97  L 50,97  L 50,98  L 51,98  L 51,99  L 50,99  L 50,107  L 44,107  L 44,108  L 43,108  L 43,107  L 42,107  L 42,108  L 41,108  L 41,107  L 40,107  L 40,108  L 32,108  L 32,109  L 22,109  L 22,110  L 21,110  L 21,109  L 20,109  L 20,110  L 3,110  L 3,111  L 1,111  L 1,113  L 2,113  L 2,116  L 40,116  L 40,115  L 49,115  L 49,114  L 60,114  L 60,113  L 62,113  L 62,114  L 63,114  L 63,113  L 77,113  L 77,112  L 78,112  L 78,113  L 79,113  L 79,112  L 80,112  L 80,113  L 81,113  L 81,112  L 89,112  L 89,111  L 90,111  L 90,112  L 92,112  L 92,111  Z  M 47,60  L 45,60  L 45,59  L 44,59  L 44,60  L 41,60  L 41,59  L 40,59  L 40,58  L 39,58  L 39,53  L 38,53  L 38,22  L 39,22  L 39,21  L 38,21  L 38,12  L 48,12  L 48,11  L 62,11  L 62,10  L 63,10  L 63,11  L 64,11  L 64,14  L 63,14  L 63,33  L 62,33  L 62,34  L 63,34  L 63,37  L 62,37  L 62,38  L 63,38  L 63,39  L 62,39  L 62,40  L 63,40  L 63,41  L 62,41  L 62,42  L 63,42  L 63,43  L 62,43  L 62,57  L 61,57  L 61,58  L 59,58  L 59,59  L 51,59  L 51,60  L 50,60  L 50,59  L 47,59  Z  " style="fill:rgb(0, 0, 0); fill-opacity:1.000; stroke:none;" />
</svg>
