<?xml version="1.0" encoding="UTF-8" standalone="no"?>
<!DOCTYPE svg PUBLIC "-//W3C//DTD SVG 1.1//EN" 
  "http://www.w3.org/Graphics/SVG/1.1/DTD/svg11.dtd">
<svg width="95" height="163"
     xmlns="http://www.w3.org/2000/svg" version="1.1">
 <path d="  M 61,43  L 61,42  L 62,42  L 62,38  L 61,38  L 61,37  L 62,37  L 62,31  L 61,31  L 61,30  L 62,30  L 62,28  L 61,28  L 61,27  L 62,27  L 62,24  L 61,24  L 61,23  L 62,23  L 62,22  L 61,22  L 61,21  L 62,21  L 62,20  L 61,20  L 61,17  L 62,17  L 62,16  L 61,16  L 61,14  L 62,14  L 62,7  L 63,7  L 63,6  L 64,6  L 64,2  L 62,2  L 62,1  L 53,1  L 53,2  L 52,2  L 52,1  L 51,1  L 51,2  L 24,2  L 24,3  L 20,3  L 20,4  L 18,4  L 18,5  L 12,5  L 12,6  L 10,6  L 10,7  L 8,7  L 8,8  L 7,8  L 7,9  L 8,9  L 8,10  L 7,10  L 7,11  L 8,11  L 8,12  L 9,12  L 9,14  L 12,14  L 12,15  L 13,15  L 13,14  L 14,14  L 14,13  L 18,13  L 18,12  L 21,12  L 21,11  L 23,11  L 23,10  L 24,10  L 24,9  L 25,9  L 25,10  L 26,10  L 26,13  L 27,13  L 27,14  L 26,14  L 26,15  L 27,15  L 27,47  L 22,47  L 22,48  L 18,48  L 18,49  L 14,49  L 14,50  L 10,50  L 10,51  L 7,51  L 7,52  L 5,52  L 5,53  L 4,53  L 4,54  L 2,54  L 2,55  L 3,55  L 3,56  L 2,56  L 2,59  L 3,59  L 3,58  L 5,58  L 5,59  L 10,59  L 10,58  L 13,58  L 13,57  L 17,57  L 17,56  L 24,56  L 24,55  L 25,55  L 25,56  L 26,56  L 26,55  L 30,55  L 30,54  L 31,54  L 31,55  L 32,55  L 32,54  L 44,54  L 44,55  L 45,55  L 45,56  L 46,56  L 46,59  L 45,59  L 45,61  L 46,61  L 46,62  L 45,62  L 45,64  L 46,64  L 46,66  L 45,66  L 45,67  L 46,67  L 46,70  L 45,70  L 45,71  L 46,71  L 46,82  L 45,82  L 45,83  L 35,83  L 35,84  L 31,84  L 31,85  L 25,85  L 25,86  L 22,86  L 22,87  L 18,87  L 18,88  L 11,88  L 11,89  L 8,89  L 8,90  L 2,90  L 2,91  L 0,91  L 0,94  L 1,94  L 1,97  L 2,97  L 2,98  L 3,98  L 3,99  L 4,99  L 4,98  L 7,98  L 7,97  L 10,97  L 10,96  L 14,96  L 14,95  L 18,95  L 18,94  L 19,94  L 19,95  L 20,95  L 20,94  L 24,94  L 24,93  L 27,93  L 27,92  L 31,92  L 31,91  L 34,91  L 34,90  L 39,90  L 39,89  L 47,89  L 47,88  L 60,88  L 60,87  L 61,87  L 61,88  L 62,88  L 62,87  L 72,87  L 72,86  L 73,86  L 73,87  L 74,87  L 74,86  L 92,86  L 92,85  L 93,85  L 93,84  L 94,84  L 94,83  L 95,83  L 95,78  L 94,78  L 94,77  L 89,77  L 89,78  L 84,78  L 84,79  L 77,79  L 77,80  L 58,80  L 58,81  L 54,81  L 54,80  L 53,80  L 53,57  L 54,57  L 54,54  L 57,54  L 57,53  L 59,53  L 59,52  L 62,52  L 62,53  L 63,53  L 63,52  L 70,52  L 70,51  L 78,51  L 78,50  L 80,50  L 80,51  L 81,51  L 81,50  L 84,50  L 84,45  L 83,45  L 83,44  L 82,44  L 82,43  L 75,43  L 75,44  L 69,44  L 69,45  L 62,45  L 62,43  Z  M 54,10  L 54,11  L 55,11  L 55,12  L 54,12  L 54,13  L 55,13  L 55,14  L 54,14  L 54,15  L 55,15  L 55,16  L 54,16  L 54,17  L 55,17  L 55,18  L 54,18  L 54,29  L 55,29  L 55,30  L 54,30  L 54,33  L 55,33  L 55,34  L 54,34  L 54,41  L 55,41  L 55,44  L 54,44  L 54,46  L 52,46  L 52,47  L 36,47  L 36,46  L 35,46  L 35,45  L 34,45  L 34,24  L 33,24  L 33,23  L 34,23  L 34,20  L 33,20  L 33,19  L 34,19  L 34,18  L 33,18  L 33,16  L 34,16  L 34,15  L 33,15  L 33,14  L 34,14  L 34,13  L 33,13  L 33,10  L 43,10  L 43,9  L 44,9  L 44,10  L 46,10  L 46,9  L 47,9  L 47,10  Z  " style="fill:rgb(0, 0, 0); fill-opacity:1.000; stroke:none;" />
 <path d="  M 70,140  L 69,140  L 69,138  L 70,138  L 70,135  L 71,135  L 71,134  L 70,134  L 70,133  L 71,133  L 71,129  L 72,129  L 72,124  L 73,124  L 73,121  L 74,121  L 74,120  L 73,120  L 73,119  L 74,119  L 74,111  L 73,111  L 73,110  L 72,110  L 72,109  L 70,109  L 70,108  L 65,108  L 65,107  L 54,107  L 54,108  L 46,108  L 46,109  L 44,109  L 44,108  L 43,108  L 43,109  L 36,109  L 36,110  L 29,110  L 29,111  L 26,111  L 26,110  L 25,110  L 25,111  L 20,111  L 20,112  L 17,112  L 17,113  L 16,113  L 16,114  L 15,114  L 15,115  L 14,115  L 14,117  L 15,117  L 15,118  L 14,118  L 14,119  L 15,119  L 15,120  L 22,120  L 22,119  L 24,119  L 24,118  L 32,118  L 32,117  L 40,117  L 40,116  L 47,116  L 47,115  L 55,115  L 55,114  L 57,114  L 57,115  L 64,115  L 64,116  L 65,116  L 65,117  L 66,117  L 66,121  L 65,121  L 65,124  L 64,124  L 64,128  L 63,128  L 63,134  L 62,134  L 62,138  L 61,138  L 61,143  L 60,143  L 60,148  L 59,148  L 59,153  L 58,153  L 58,158  L 57,158  L 57,163  L 64,163  L 64,161  L 65,161  L 65,157  L 66,157  L 66,153  L 67,153  L 67,150  L 68,150  L 68,144  L 69,144  L 69,141  L 70,141  Z  " style="fill:rgb(0, 0, 0); fill-opacity:1.000; stroke:none;" />
</svg>
