<?xml version="1.0" encoding="UTF-8" standalone="no"?>
<!DOCTYPE svg PUBLIC "-//W3C//DTD SVG 1.1//EN" 
  "http://www.w3.org/Graphics/SVG/1.1/DTD/svg11.dtd">
<svg width="105" height="160"
     xmlns="http://www.w3.org/2000/svg" version="1.1">
 <path d="  M 78,99  L 78,98  L 79,98  L 79,99  L 80,99  L 80,98  L 87,98  L 87,97  L 95,97  L 95,96  L 103,96  L 103,95  L 104,95  L 104,94  L 105,94  L 105,89  L 103,89  L 103,88  L 96,88  L 96,89  L 91,89  L 91,90  L 90,90  L 90,89  L 89,89  L 89,90  L 80,90  L 80,91  L 68,91  L 68,92  L 67,92  L 67,91  L 64,91  L 64,92  L 63,92  L 63,91  L 61,91  L 61,92  L 60,92  L 60,91  L 59,91  L 59,89  L 58,89  L 58,87  L 59,87  L 59,86  L 58,86  L 58,83  L 59,83  L 59,82  L 58,82  L 58,68  L 59,68  L 59,66  L 58,66  L 58,65  L 59,65  L 59,58  L 60,58  L 60,56  L 64,56  L 64,55  L 68,55  L 68,56  L 69,56  L 69,55  L 76,55  L 76,54  L 77,54  L 77,55  L 80,55  L 80,54  L 81,54  L 81,55  L 89,55  L 89,54  L 91,54  L 91,49  L 90,49  L 90,48  L 89,48  L 89,47  L 84,47  L 84,48  L 83,48  L 83,47  L 82,47  L 82,48  L 70,48  L 70,47  L 69,47  L 69,44  L 68,44  L 68,43  L 69,43  L 69,42  L 68,42  L 68,34  L 69,34  L 69,33  L 68,33  L 68,32  L 69,32  L 69,29  L 68,29  L 68,13  L 69,13  L 69,9  L 70,9  L 70,7  L 74,7  L 74,6  L 76,6  L 76,5  L 77,5  L 77,3  L 78,3  L 78,2  L 77,2  L 77,1  L 62,1  L 62,2  L 31,2  L 31,3  L 26,3  L 26,4  L 20,4  L 20,5  L 13,5  L 13,6  L 12,6  L 12,7  L 11,7  L 11,11  L 12,11  L 12,12  L 13,12  L 13,13  L 16,13  L 16,14  L 18,14  L 18,13  L 19,13  L 19,12  L 23,12  L 23,11  L 28,11  L 28,10  L 31,10  L 31,11  L 32,11  L 32,12  L 31,12  L 31,13  L 32,13  L 32,16  L 31,16  L 31,17  L 32,17  L 32,18  L 31,18  L 31,21  L 32,21  L 32,22  L 31,22  L 31,23  L 32,23  L 32,26  L 31,26  L 31,27  L 32,27  L 32,30  L 31,30  L 31,31  L 32,31  L 32,34  L 31,34  L 31,35  L 32,35  L 32,49  L 30,49  L 30,50  L 29,50  L 29,49  L 28,49  L 28,50  L 22,50  L 22,51  L 18,51  L 18,52  L 15,52  L 15,53  L 13,53  L 13,54  L 11,54  L 11,55  L 9,55  L 9,56  L 7,56  L 7,58  L 8,58  L 8,59  L 9,59  L 9,60  L 10,60  L 10,61  L 17,61  L 17,60  L 19,60  L 19,59  L 23,59  L 23,58  L 28,58  L 28,57  L 33,57  L 33,56  L 50,56  L 50,57  L 51,57  L 51,68  L 50,68  L 50,69  L 51,69  L 51,72  L 50,72  L 50,73  L 51,73  L 51,76  L 50,76  L 50,77  L 51,77  L 51,80  L 50,80  L 50,81  L 51,81  L 51,84  L 50,84  L 50,85  L 51,85  L 51,89  L 50,89  L 50,91  L 51,91  L 51,92  L 50,92  L 50,93  L 49,93  L 49,94  L 38,94  L 38,95  L 37,95  L 37,94  L 36,94  L 36,95  L 32,95  L 32,96  L 26,96  L 26,97  L 25,97  L 25,96  L 24,96  L 24,97  L 3,97  L 3,98  L 2,98  L 2,99  L 1,99  L 1,100  L 0,100  L 0,101  L 1,101  L 1,102  L 2,102  L 2,104  L 7,104  L 7,105  L 25,105  L 25,104  L 30,104  L 30,103  L 36,103  L 36,102  L 41,102  L 41,101  L 51,101  L 51,100  L 61,100  L 61,99  L 62,99  L 62,100  L 64,100  L 64,99  Z  M 40,47  L 39,47  L 39,44  L 38,44  L 38,12  L 39,12  L 39,11  L 40,11  L 40,10  L 46,10  L 46,9  L 62,9  L 62,12  L 61,12  L 61,21  L 62,21  L 62,22  L 61,22  L 61,24  L 62,24  L 62,26  L 61,26  L 61,34  L 62,34  L 62,35  L 61,35  L 61,41  L 62,41  L 62,42  L 61,42  L 61,46  L 60,46  L 60,48  L 51,48  L 51,49  L 49,49  L 49,48  L 40,48  Z  " style="fill:rgb(0, 0, 0); fill-opacity:1.000; stroke:none;" />
 <path d="  M 23,157  L 24,157  L 24,159  L 25,159  L 25,160  L 49,160  L 49,159  L 50,159  L 50,160  L 52,160  L 52,159  L 61,159  L 61,158  L 63,158  L 63,159  L 64,159  L 64,158  L 71,158  L 71,157  L 77,157  L 77,156  L 83,156  L 83,155  L 93,155  L 93,154  L 97,154  L 97,153  L 98,153  L 98,154  L 99,154  L 99,153  L 104,153  L 104,152  L 105,152  L 105,148  L 104,148  L 104,147  L 103,147  L 103,146  L 97,146  L 97,147  L 88,147  L 88,148  L 87,148  L 87,147  L 86,147  L 86,148  L 75,148  L 75,149  L 69,149  L 69,150  L 68,150  L 68,149  L 67,149  L 67,150  L 59,150  L 59,151  L 57,151  L 57,150  L 56,150  L 56,151  L 50,151  L 50,152  L 38,152  L 38,153  L 37,153  L 37,152  L 34,152  L 34,153  L 33,153  L 33,152  L 30,152  L 30,121  L 31,121  L 31,115  L 32,115  L 32,111  L 31,111  L 31,110  L 29,110  L 29,111  L 26,111  L 26,112  L 25,112  L 25,114  L 24,114  L 24,115  L 23,115  Z  " style="fill:rgb(0, 0, 0); fill-opacity:1.000; stroke:none;" />
</svg>
