<?xml version="1.0" encoding="UTF-8" standalone="no"?>
<!DOCTYPE svg PUBLIC "-//W3C//DTD SVG 1.1//EN" 
  "http://www.w3.org/Graphics/SVG/1.1/DTD/svg11.dtd">
<svg width="98" height="173"
     xmlns="http://www.w3.org/2000/svg" version="1.1">
 <path d="  M 91,76  L 91,77  L 85,77  L 85,78  L 74,78  L 74,79  L 57,79  L 57,80  L 55,80  L 55,79  L 54,79  L 54,57  L 55,57  L 55,55  L 56,55  L 56,54  L 57,54  L 57,55  L 58,55  L 58,54  L 59,54  L 59,53  L 61,53  L 61,52  L 64,52  L 64,53  L 69,53  L 69,52  L 70,52  L 70,53  L 71,53  L 71,52  L 83,52  L 83,51  L 84,51  L 84,50  L 85,50  L 85,49  L 86,49  L 86,48  L 85,48  L 85,46  L 84,46  L 84,45  L 82,45  L 82,44  L 72,44  L 72,45  L 71,45  L 71,46  L 68,46  L 68,47  L 66,47  L 66,33  L 67,33  L 67,32  L 66,32  L 66,29  L 67,29  L 67,28  L 66,28  L 66,26  L 67,26  L 67,24  L 66,24  L 66,23  L 67,23  L 67,22  L 66,22  L 66,21  L 67,21  L 67,17  L 68,17  L 68,16  L 67,16  L 67,15  L 68,15  L 68,14  L 69,14  L 69,13  L 70,13  L 70,12  L 71,12  L 71,11  L 74,11  L 74,10  L 76,10  L 76,9  L 77,9  L 77,8  L 78,8  L 78,6  L 79,6  L 79,5  L 78,5  L 78,4  L 77,4  L 77,3  L 76,3  L 76,2  L 72,2  L 72,1  L 67,1  L 67,2  L 61,2  L 61,3  L 56,3  L 56,4  L 32,4  L 32,5  L 24,5  L 24,6  L 12,6  L 12,7  L 11,7  L 11,8  L 10,8  L 10,10  L 9,10  L 9,16  L 12,16  L 12,17  L 14,17  L 14,16  L 16,16  L 16,15  L 19,15  L 19,14  L 23,14  L 23,13  L 28,13  L 28,15  L 29,15  L 29,16  L 28,16  L 28,33  L 29,33  L 29,35  L 28,35  L 28,37  L 29,37  L 29,40  L 28,40  L 28,41  L 29,41  L 29,47  L 27,47  L 27,48  L 25,48  L 25,47  L 23,47  L 23,48  L 20,48  L 20,49  L 19,49  L 19,48  L 17,48  L 17,49  L 14,49  L 14,50  L 13,50  L 13,49  L 12,49  L 12,50  L 9,50  L 9,51  L 8,51  L 8,52  L 7,52  L 7,53  L 8,53  L 8,55  L 9,55  L 9,56  L 10,56  L 10,57  L 13,57  L 13,58  L 14,58  L 14,57  L 30,57  L 30,56  L 31,56  L 31,57  L 32,57  L 32,55  L 33,55  L 33,56  L 34,56  L 34,55  L 39,55  L 39,54  L 45,54  L 45,55  L 46,55  L 46,80  L 36,80  L 36,81  L 29,81  L 29,82  L 28,82  L 28,81  L 27,81  L 27,82  L 23,82  L 23,83  L 20,83  L 20,84  L 16,84  L 16,85  L 14,85  L 14,86  L 11,86  L 11,87  L 9,87  L 9,88  L 6,88  L 6,89  L 5,89  L 5,90  L 2,90  L 2,91  L 1,91  L 1,92  L 0,92  L 0,93  L 1,93  L 1,94  L 2,94  L 2,95  L 3,95  L 3,96  L 5,96  L 5,97  L 6,97  L 6,96  L 7,96  L 7,97  L 8,97  L 8,96  L 9,96  L 9,95  L 10,95  L 10,94  L 14,94  L 14,93  L 17,93  L 17,92  L 19,92  L 19,93  L 20,93  L 20,92  L 21,92  L 21,91  L 25,91  L 25,90  L 30,90  L 30,89  L 37,89  L 37,88  L 38,88  L 38,89  L 40,89  L 40,88  L 43,88  L 43,89  L 44,89  L 44,88  L 58,88  L 58,87  L 69,87  L 69,86  L 79,86  L 79,85  L 92,85  L 92,84  L 95,84  L 95,83  L 96,83  L 96,82  L 97,82  L 97,81  L 98,81  L 98,77  L 97,77  L 97,76  L 95,76  L 95,75  L 94,75  L 94,76  Z  M 36,16  L 35,16  L 35,15  L 36,15  L 36,14  L 35,14  L 35,13  L 49,13  L 49,12  L 50,12  L 50,13  L 51,13  L 51,12  L 52,12  L 52,13  L 53,13  L 53,12  L 54,12  L 54,13  L 55,13  L 55,12  L 60,12  L 60,16  L 59,16  L 59,43  L 58,43  L 58,44  L 55,44  L 55,43  L 53,43  L 53,44  L 46,44  L 46,45  L 37,45  L 37,43  L 36,43  Z  " style="fill:rgb(0, 0, 0); fill-opacity:1.000; stroke:none;" />
 <path d="  M 50,147  L 50,146  L 52,146  L 52,147  L 53,147  L 53,146  L 54,146  L 54,145  L 56,145  L 56,144  L 58,144  L 58,143  L 59,143  L 59,141  L 60,141  L 60,140  L 61,140  L 61,138  L 62,138  L 62,133  L 63,133  L 63,132  L 64,132  L 64,131  L 65,131  L 65,130  L 68,130  L 68,128  L 69,128  L 69,127  L 73,127  L 73,126  L 75,126  L 75,125  L 76,125  L 76,124  L 77,124  L 77,121  L 76,121  L 76,118  L 75,118  L 75,116  L 74,116  L 74,114  L 73,114  L 73,113  L 72,113  L 72,112  L 71,112  L 71,111  L 70,111  L 70,110  L 69,110  L 69,109  L 68,109  L 68,108  L 67,108  L 67,107  L 65,107  L 65,106  L 63,106  L 63,105  L 61,105  L 61,104  L 58,104  L 58,103  L 57,103  L 57,102  L 51,102  L 51,101  L 50,101  L 50,102  L 42,102  L 42,103  L 35,103  L 35,104  L 28,104  L 28,105  L 25,105  L 25,106  L 23,106  L 23,107  L 22,107  L 22,108  L 21,108  L 21,110  L 20,110  L 20,111  L 19,111  L 19,114  L 20,114  L 20,115  L 21,115  L 21,116  L 23,116  L 23,115  L 27,115  L 27,114  L 29,114  L 29,113  L 32,113  L 32,112  L 35,112  L 35,111  L 41,111  L 41,110  L 54,110  L 54,111  L 57,111  L 57,112  L 59,112  L 59,113  L 60,113  L 60,114  L 61,114  L 61,115  L 63,115  L 63,116  L 64,116  L 64,118  L 65,118  L 65,119  L 66,119  L 66,120  L 67,120  L 67,121  L 66,121  L 66,122  L 65,122  L 65,123  L 63,123  L 63,124  L 61,124  L 61,125  L 58,125  L 58,126  L 57,126  L 57,127  L 56,127  L 56,129  L 55,129  L 55,130  L 54,130  L 54,131  L 53,131  L 53,132  L 52,132  L 52,135  L 51,135  L 51,136  L 48,136  L 48,137  L 45,137  L 45,138  L 40,138  L 40,139  L 35,139  L 35,140  L 34,140  L 34,139  L 19,139  L 19,140  L 17,140  L 17,141  L 16,141  L 16,143  L 15,143  L 15,144  L 14,144  L 14,147  L 13,147  L 13,154  L 14,154  L 14,155  L 13,155  L 13,156  L 14,156  L 14,159  L 15,159  L 15,161  L 16,161  L 16,163  L 18,163  L 18,167  L 19,167  L 19,168  L 22,168  L 22,169  L 23,169  L 23,171  L 27,171  L 27,172  L 32,172  L 32,173  L 61,173  L 61,172  L 67,172  L 67,171  L 69,171  L 69,170  L 73,170  L 73,169  L 76,169  L 76,168  L 79,168  L 79,167  L 81,167  L 81,166  L 83,166  L 83,165  L 85,165  L 85,164  L 86,164  L 86,163  L 89,163  L 89,162  L 90,162  L 90,161  L 91,161  L 91,160  L 93,160  L 93,159  L 95,159  L 95,155  L 91,155  L 91,156  L 90,156  L 90,157  L 86,157  L 86,158  L 81,158  L 81,159  L 78,159  L 78,160  L 75,160  L 75,161  L 72,161  L 72,162  L 68,162  L 68,163  L 66,163  L 66,164  L 60,164  L 60,165  L 56,165  L 56,166  L 54,166  L 54,165  L 53,165  L 53,166  L 42,166  L 42,165  L 41,165  L 41,166  L 38,166  L 38,165  L 33,165  L 33,164  L 28,164  L 28,163  L 26,163  L 26,162  L 24,162  L 24,161  L 22,161  L 22,159  L 21,159  L 21,154  L 20,154  L 20,151  L 21,151  L 21,148  L 22,148  L 22,147  Z  " style="fill:rgb(0, 0, 0); fill-opacity:1.000; stroke:none;" />
</svg>
