<?xml version="1.0" encoding="UTF-8" standalone="no"?>
<!DOCTYPE svg PUBLIC "-//W3C//DTD SVG 1.1//EN" 
  "http://www.w3.org/Graphics/SVG/1.1/DTD/svg11.dtd">
<svg width="109" height="161"
     xmlns="http://www.w3.org/2000/svg" version="1.1">
 <path d="  M 40,87  L 40,86  L 61,86  L 61,85  L 63,85  L 63,86  L 64,86  L 64,85  L 87,85  L 87,84  L 97,84  L 97,83  L 99,83  L 99,82  L 100,82  L 100,81  L 101,81  L 101,80  L 102,80  L 102,77  L 101,77  L 101,75  L 96,75  L 96,76  L 92,76  L 92,77  L 86,77  L 86,78  L 85,78  L 85,77  L 84,77  L 84,78  L 76,78  L 76,79  L 75,79  L 75,78  L 73,78  L 73,79  L 69,79  L 69,78  L 68,78  L 68,79  L 57,79  L 57,76  L 56,76  L 56,74  L 57,74  L 57,73  L 56,73  L 56,71  L 57,71  L 57,70  L 56,70  L 56,68  L 57,68  L 57,67  L 56,67  L 56,64  L 57,64  L 57,62  L 56,62  L 56,61  L 57,61  L 57,55  L 58,55  L 58,54  L 59,54  L 59,53  L 62,53  L 62,52  L 65,52  L 65,51  L 66,51  L 66,52  L 69,52  L 69,51  L 77,51  L 77,50  L 89,50  L 89,48  L 90,48  L 90,45  L 89,45  L 89,44  L 87,44  L 87,43  L 82,43  L 82,44  L 81,44  L 81,43  L 80,43  L 80,44  L 72,44  L 72,45  L 68,45  L 68,43  L 67,43  L 67,18  L 68,18  L 68,17  L 67,17  L 67,15  L 68,15  L 68,9  L 69,9  L 69,6  L 71,6  L 71,5  L 72,5  L 72,4  L 73,4  L 73,2  L 72,2  L 72,1  L 55,1  L 55,2  L 54,2  L 54,1  L 52,1  L 52,2  L 36,2  L 36,3  L 35,3  L 35,2  L 34,2  L 34,3  L 26,3  L 26,4  L 20,4  L 20,5  L 17,5  L 17,6  L 14,6  L 14,7  L 13,7  L 13,9  L 12,9  L 12,10  L 13,10  L 13,13  L 14,13  L 14,14  L 16,14  L 16,15  L 17,15  L 17,14  L 19,14  L 19,13  L 20,13  L 20,12  L 24,12  L 24,11  L 25,11  L 25,12  L 26,12  L 26,11  L 27,11  L 27,10  L 32,10  L 32,47  L 31,47  L 31,48  L 26,48  L 26,49  L 20,49  L 20,50  L 18,50  L 18,51  L 14,51  L 14,52  L 11,52  L 11,53  L 7,53  L 7,54  L 6,54  L 6,58  L 7,58  L 7,60  L 8,60  L 8,59  L 14,59  L 14,58  L 17,58  L 17,57  L 20,57  L 20,56  L 27,56  L 27,55  L 33,55  L 33,54  L 42,54  L 42,53  L 47,53  L 47,54  L 49,54  L 49,80  L 47,80  L 47,81  L 45,81  L 45,80  L 43,80  L 43,81  L 32,81  L 32,82  L 29,82  L 29,81  L 28,81  L 28,82  L 22,82  L 22,83  L 14,83  L 14,84  L 13,84  L 13,83  L 12,83  L 12,84  L 9,84  L 9,83  L 8,83  L 8,84  L 3,84  L 3,85  L 1,85  L 1,87  L 0,87  L 0,88  L 1,88  L 1,91  L 2,91  L 2,92  L 5,92  L 5,91  L 11,91  L 11,90  L 17,90  L 17,89  L 18,89  L 18,90  L 19,90  L 19,89  L 28,89  L 28,88  L 33,88  L 33,87  L 34,87  L 34,88  L 35,88  L 35,87  Z  M 38,39  L 39,39  L 39,38  L 38,38  L 38,35  L 39,35  L 39,34  L 38,34  L 38,24  L 39,24  L 39,23  L 38,23  L 38,11  L 39,11  L 39,10  L 41,10  L 41,9  L 60,9  L 60,10  L 61,10  L 61,11  L 60,11  L 60,45  L 59,45  L 59,46  L 55,46  L 55,47  L 54,47  L 54,46  L 53,46  L 53,47  L 52,47  L 52,46  L 51,46  L 51,47  L 48,47  L 48,46  L 47,46  L 47,47  L 42,47  L 42,46  L 39,46  L 39,42  L 38,42  Z  " style="fill:rgb(0, 0, 0); fill-opacity:1.000; stroke:none;" />
 <path d="  M 95,148  L 95,147  L 93,147  L 93,146  L 92,146  L 92,145  L 89,145  L 89,144  L 87,144  L 87,143  L 85,143  L 85,142  L 82,142  L 82,141  L 81,141  L 81,140  L 79,140  L 79,139  L 76,139  L 76,138  L 74,138  L 74,137  L 72,137  L 72,136  L 71,136  L 71,135  L 69,135  L 69,134  L 68,134  L 68,133  L 66,133  L 66,132  L 65,132  L 65,131  L 64,131  L 64,130  L 62,130  L 62,129  L 60,129  L 60,128  L 59,128  L 59,127  L 57,127  L 57,126  L 56,126  L 56,125  L 55,125  L 55,124  L 54,124  L 54,123  L 53,123  L 53,122  L 54,122  L 54,120  L 55,120  L 55,118  L 56,118  L 56,116  L 57,116  L 57,115  L 58,115  L 58,114  L 60,114  L 60,113  L 61,113  L 61,112  L 62,112  L 62,111  L 63,111  L 63,110  L 65,110  L 65,109  L 67,109  L 67,108  L 68,108  L 68,107  L 69,107  L 69,105  L 70,105  L 70,102  L 71,102  L 71,100  L 70,100  L 70,99  L 69,99  L 69,98  L 68,98  L 68,97  L 67,97  L 67,96  L 64,96  L 64,97  L 63,97  L 63,98  L 62,98  L 62,102  L 61,102  L 61,103  L 59,103  L 59,105  L 58,105  L 58,106  L 57,106  L 57,108  L 55,108  L 55,109  L 52,109  L 52,110  L 51,110  L 51,111  L 50,111  L 50,112  L 49,112  L 49,114  L 48,114  L 48,115  L 47,115  L 47,116  L 46,116  L 46,117  L 45,117  L 45,119  L 44,119  L 44,120  L 43,120  L 43,121  L 42,121  L 42,122  L 41,122  L 41,124  L 40,124  L 40,125  L 38,125  L 38,127  L 37,127  L 37,128  L 36,128  L 36,129  L 35,129  L 35,131  L 34,131  L 34,132  L 33,132  L 33,133  L 32,133  L 32,134  L 31,134  L 31,135  L 30,135  L 30,137  L 29,137  L 29,138  L 28,138  L 28,139  L 27,139  L 27,141  L 26,141  L 26,143  L 24,143  L 24,145  L 23,145  L 23,146  L 22,146  L 22,147  L 21,147  L 21,148  L 20,148  L 20,149  L 19,149  L 19,150  L 18,150  L 18,152  L 16,152  L 16,153  L 15,153  L 15,154  L 14,154  L 14,157  L 13,157  L 13,160  L 14,160  L 14,161  L 19,161  L 19,160  L 21,160  L 21,159  L 23,159  L 23,158  L 24,158  L 24,157  L 25,157  L 25,156  L 26,156  L 26,155  L 27,155  L 27,154  L 28,154  L 28,153  L 29,153  L 29,152  L 30,152  L 30,151  L 31,151  L 31,150  L 32,150  L 32,149  L 33,149  L 33,147  L 34,147  L 34,146  L 35,146  L 35,144  L 36,144  L 36,143  L 37,143  L 37,141  L 38,141  L 38,140  L 40,140  L 40,139  L 41,139  L 41,137  L 42,137  L 42,136  L 43,136  L 43,134  L 44,134  L 44,133  L 45,133  L 45,131  L 50,131  L 50,132  L 51,132  L 51,133  L 53,133  L 53,134  L 55,134  L 55,136  L 58,136  L 58,137  L 59,137  L 59,138  L 61,138  L 61,139  L 62,139  L 62,140  L 64,140  L 64,141  L 66,141  L 66,142  L 67,142  L 67,143  L 70,143  L 70,144  L 72,144  L 72,145  L 73,145  L 73,146  L 76,146  L 76,147  L 79,147  L 79,148  L 81,148  L 81,149  L 84,149  L 84,150  L 88,150  L 88,151  L 91,151  L 91,152  L 92,152  L 92,153  L 94,153  L 94,158  L 93,158  L 93,159  L 92,159  L 92,160  L 93,160  L 93,161  L 99,161  L 99,160  L 101,160  L 101,159  L 103,159  L 103,158  L 105,158  L 105,157  L 106,157  L 106,156  L 108,156  L 108,155  L 109,155  L 109,151  L 108,151  L 108,150  L 97,150  L 97,149  L 96,149  L 96,148  Z  " style="fill:rgb(0, 0, 0); fill-opacity:1.000; stroke:none;" />
</svg>
