<?xml version="1.0" encoding="UTF-8" standalone="no"?>
<!DOCTYPE svg PUBLIC "-//W3C//DTD SVG 1.1//EN" 
  "http://www.w3.org/Graphics/SVG/1.1/DTD/svg11.dtd">
<svg width="102" height="159"
     xmlns="http://www.w3.org/2000/svg" version="1.1">
 <path d="  M 40,87  L 40,86  L 41,86  L 41,87  L 42,87  L 42,86  L 43,86  L 43,87  L 44,87  L 44,86  L 45,86  L 45,87  L 46,87  L 46,86  L 49,86  L 49,87  L 50,87  L 50,86  L 58,86  L 58,85  L 59,85  L 59,86  L 60,86  L 60,85  L 74,85  L 74,84  L 101,84  L 101,82  L 102,82  L 102,76  L 101,76  L 101,75  L 95,75  L 95,76  L 94,76  L 94,75  L 93,75  L 93,76  L 88,76  L 88,77  L 71,77  L 71,78  L 70,78  L 70,77  L 62,77  L 62,78  L 58,78  L 58,71  L 57,71  L 57,70  L 58,70  L 58,67  L 57,67  L 57,66  L 58,66  L 58,64  L 57,64  L 57,63  L 58,63  L 58,56  L 59,56  L 59,54  L 62,54  L 62,53  L 78,53  L 78,52  L 79,52  L 79,53  L 80,53  L 80,52  L 83,52  L 83,53  L 84,53  L 84,52  L 89,52  L 89,51  L 90,51  L 90,48  L 89,48  L 89,46  L 87,46  L 87,45  L 85,45  L 85,46  L 82,46  L 82,45  L 79,45  L 79,46  L 78,46  L 78,45  L 77,45  L 77,46  L 69,46  L 69,45  L 68,45  L 68,32  L 69,32  L 69,31  L 68,31  L 68,24  L 69,24  L 69,23  L 68,23  L 68,20  L 69,20  L 69,19  L 68,19  L 68,16  L 69,16  L 69,5  L 70,5  L 70,2  L 69,2  L 69,1  L 31,1  L 31,2  L 27,2  L 27,3  L 24,3  L 24,4  L 19,4  L 19,5  L 16,5  L 16,6  L 15,6  L 15,7  L 14,7  L 14,11  L 15,11  L 15,12  L 14,12  L 14,13  L 15,13  L 15,14  L 20,14  L 20,13  L 23,13  L 23,12  L 27,12  L 27,11  L 28,11  L 28,10  L 29,10  L 29,9  L 32,9  L 32,28  L 33,28  L 33,29  L 32,29  L 32,32  L 33,32  L 33,35  L 32,35  L 32,36  L 33,36  L 33,45  L 32,45  L 32,46  L 31,46  L 31,47  L 30,47  L 30,46  L 29,46  L 29,47  L 25,47  L 25,48  L 20,48  L 20,49  L 14,49  L 14,50  L 11,50  L 11,51  L 10,51  L 10,53  L 8,53  L 8,54  L 9,54  L 9,56  L 10,56  L 10,57  L 18,57  L 18,56  L 25,56  L 25,55  L 32,55  L 32,54  L 33,54  L 33,55  L 34,55  L 34,54  L 50,54  L 50,79  L 45,79  L 45,78  L 44,78  L 44,79  L 42,79  L 42,78  L 41,78  L 41,79  L 29,79  L 29,80  L 26,80  L 26,79  L 25,79  L 25,80  L 19,80  L 19,81  L 11,81  L 11,82  L 4,82  L 4,83  L 1,83  L 1,84  L 0,84  L 0,87  L 1,87  L 1,88  L 2,88  L 2,89  L 3,89  L 3,90  L 10,90  L 10,89  L 14,89  L 14,88  L 25,88  L 25,87  L 27,87  L 27,88  L 29,88  L 29,87  Z  M 61,9  L 61,46  L 59,46  L 59,47  L 57,47  L 57,46  L 55,46  L 55,47  L 54,47  L 54,46  L 53,46  L 53,47  L 52,47  L 52,46  L 51,46  L 51,47  L 50,47  L 50,46  L 41,46  L 41,45  L 40,45  L 40,44  L 39,44  L 39,9  L 52,9  L 52,8  L 53,8  L 53,9  Z  " style="fill:rgb(0, 0, 0); fill-opacity:1.000; stroke:none;" />
 <path d="  M 72,142  L 71,142  L 71,145  L 70,145  L 70,146  L 69,146  L 69,147  L 68,147  L 68,148  L 67,148  L 67,149  L 65,149  L 65,150  L 64,150  L 64,151  L 61,151  L 61,152  L 54,152  L 54,153  L 46,153  L 46,152  L 42,152  L 42,151  L 41,151  L 41,152  L 39,152  L 39,151  L 35,151  L 35,150  L 33,150  L 33,149  L 31,149  L 31,148  L 30,148  L 30,147  L 29,147  L 29,143  L 28,143  L 28,139  L 29,139  L 29,134  L 30,134  L 30,132  L 31,132  L 31,130  L 32,130  L 32,127  L 33,127  L 33,126  L 34,126  L 34,123  L 35,123  L 35,122  L 36,122  L 36,121  L 37,121  L 37,120  L 38,120  L 38,118  L 40,118  L 40,117  L 41,117  L 41,116  L 43,116  L 43,115  L 45,115  L 45,114  L 57,114  L 57,115  L 60,115  L 60,116  L 63,116  L 63,117  L 65,117  L 65,118  L 67,118  L 67,119  L 68,119  L 68,120  L 71,120  L 71,121  L 72,121  L 72,122  L 73,122  L 73,125  L 74,125  L 74,128  L 75,128  L 75,129  L 74,129  L 74,130  L 75,130  L 75,131  L 74,131  L 74,138  L 73,138  L 73,141  L 72,141  Z  M 71,156  L 71,155  L 72,155  L 72,154  L 73,154  L 73,153  L 74,153  L 74,152  L 75,152  L 75,150  L 76,150  L 76,149  L 77,149  L 77,148  L 78,148  L 78,146  L 79,146  L 79,144  L 80,144  L 80,142  L 81,142  L 81,140  L 82,140  L 82,131  L 83,131  L 83,126  L 82,126  L 82,123  L 81,123  L 81,120  L 80,120  L 80,119  L 79,119  L 79,118  L 78,118  L 78,117  L 77,117  L 77,116  L 76,116  L 76,115  L 75,115  L 75,114  L 74,114  L 74,113  L 73,113  L 73,114  L 72,114  L 72,112  L 70,112  L 70,111  L 67,111  L 67,110  L 64,110  L 64,109  L 62,109  L 62,108  L 60,108  L 60,107  L 58,107  L 58,106  L 56,106  L 56,105  L 54,105  L 54,104  L 52,104  L 52,103  L 48,103  L 48,104  L 45,104  L 45,105  L 41,105  L 41,106  L 40,106  L 40,107  L 38,107  L 38,108  L 37,108  L 37,109  L 36,109  L 36,110  L 35,110  L 35,111  L 34,111  L 34,112  L 33,112  L 33,113  L 32,113  L 32,114  L 31,114  L 31,116  L 30,116  L 30,117  L 29,117  L 29,119  L 28,119  L 28,121  L 27,121  L 27,123  L 26,123  L 26,124  L 25,124  L 25,126  L 24,126  L 24,127  L 23,127  L 23,130  L 22,130  L 22,133  L 21,133  L 21,146  L 22,146  L 22,149  L 23,149  L 23,151  L 24,151  L 24,152  L 25,152  L 25,154  L 27,154  L 27,155  L 28,155  L 28,156  L 30,156  L 30,157  L 32,157  L 32,158  L 34,158  L 34,159  L 65,159  L 65,158  L 68,158  L 68,157  L 69,157  L 69,156  Z  " style="fill:rgb(0, 0, 0); fill-opacity:1.000; stroke:none;" />
</svg>
