<?xml version="1.0" encoding="UTF-8" standalone="no"?>
<!DOCTYPE svg PUBLIC "-//W3C//DTD SVG 1.1//EN" 
  "http://www.w3.org/Graphics/SVG/1.1/DTD/svg11.dtd">
<svg width="102" height="124"
     xmlns="http://www.w3.org/2000/svg" version="1.1">
 <path d="  M 23,92  L 22,92  L 22,93  L 18,93  L 18,94  L 12,94  L 12,95  L 11,95  L 11,94  L 10,94  L 10,95  L 5,95  L 5,96  L 3,96  L 3,97  L 1,97  L 1,98  L 0,98  L 0,99  L 1,99  L 1,100  L 0,100  L 0,101  L 1,101  L 1,103  L 6,103  L 6,102  L 9,102  L 9,101  L 16,101  L 16,100  L 17,100  L 17,101  L 18,101  L 18,100  L 23,100  L 23,99  L 24,99  L 24,100  L 25,100  L 25,99  L 29,99  L 29,98  L 33,98  L 33,97  L 38,97  L 38,96  L 42,96  L 42,95  L 43,95  L 43,94  L 49,94  L 49,93  L 55,93  L 55,92  L 61,92  L 61,91  L 63,91  L 63,90  L 69,90  L 69,89  L 71,89  L 71,88  L 75,88  L 75,87  L 78,87  L 78,86  L 80,86  L 80,85  L 81,85  L 81,84  L 82,84  L 82,85  L 83,85  L 83,84  L 86,84  L 86,83  L 88,83  L 88,80  L 87,80  L 87,78  L 85,78  L 85,77  L 80,77  L 80,78  L 79,78  L 79,79  L 77,79  L 77,80  L 76,80  L 76,81  L 73,81  L 73,82  L 71,82  L 71,83  L 68,83  L 68,84  L 64,84  L 64,85  L 63,85  L 63,84  L 62,84  L 62,85  L 58,85  L 58,86  L 46,86  L 46,78  L 45,78  L 45,77  L 46,77  L 46,75  L 45,75  L 45,73  L 46,73  L 46,66  L 45,66  L 45,65  L 46,65  L 46,64  L 48,64  L 48,63  L 51,63  L 51,62  L 57,62  L 57,61  L 65,61  L 65,60  L 73,60  L 73,59  L 79,59  L 79,58  L 80,58  L 80,57  L 81,57  L 81,53  L 80,53  L 80,52  L 77,52  L 77,53  L 70,53  L 70,54  L 65,54  L 65,55  L 56,55  L 56,37  L 57,37  L 57,29  L 58,29  L 58,25  L 59,25  L 59,24  L 65,24  L 65,23  L 66,23  L 66,24  L 68,24  L 68,23  L 71,23  L 71,22  L 74,22  L 74,20  L 75,20  L 75,19  L 76,19  L 76,18  L 75,18  L 75,17  L 74,17  L 74,16  L 70,16  L 70,15  L 69,15  L 69,16  L 60,16  L 60,17  L 59,17  L 59,16  L 57,16  L 57,17  L 43,17  L 43,18  L 37,18  L 37,19  L 33,19  L 33,20  L 28,20  L 28,21  L 27,21  L 27,20  L 26,20  L 26,21  L 20,21  L 20,22  L 18,22  L 18,21  L 1,21  L 1,22  L 0,22  L 0,25  L 1,25  L 1,26  L 2,26  L 2,27  L 3,27  L 3,26  L 4,26  L 4,27  L 10,27  L 10,28  L 17,28  L 17,29  L 19,29  L 19,42  L 20,42  L 20,43  L 19,43  L 19,44  L 20,44  L 20,47  L 19,47  L 19,48  L 20,48  L 20,50  L 19,50  L 19,52  L 20,52  L 20,53  L 19,53  L 19,55  L 20,55  L 20,57  L 19,57  L 19,58  L 20,58  L 20,59  L 21,59  L 21,60  L 22,60  L 22,61  L 23,61  L 23,62  L 21,62  L 21,63  L 15,63  L 15,64  L 5,64  L 5,65  L 4,65  L 4,64  L 1,64  L 1,65  L 0,65  L 0,67  L 1,67  L 1,69  L 2,69  L 2,70  L 4,70  L 4,71  L 7,71  L 7,70  L 10,70  L 10,69  L 18,69  L 18,68  L 23,68  L 23,67  L 24,67  L 24,68  L 25,68  L 25,67  L 32,67  L 32,66  L 38,66  L 38,65  L 39,65  L 39,67  L 40,67  L 40,68  L 39,68  L 39,77  L 40,77  L 40,78  L 39,78  L 39,80  L 40,80  L 40,82  L 39,82  L 39,84  L 40,84  L 40,89  L 39,89  L 39,90  L 38,90  L 38,91  L 32,91  L 32,92  L 31,92  L 31,91  L 29,91  L 29,92  L 24,92  L 24,93  L 23,93  Z  M 26,34  L 27,34  L 27,28  L 28,28  L 28,27  L 31,27  L 31,26  L 37,26  L 37,25  L 50,25  L 50,24  L 51,24  L 51,30  L 50,30  L 50,45  L 49,45  L 49,56  L 48,56  L 48,58  L 45,58  L 45,59  L 41,59  L 41,60  L 32,60  L 32,61  L 31,61  L 31,60  L 30,60  L 30,61  L 23,61  L 23,60  L 24,60  L 24,59  L 25,59  L 25,58  L 26,58  Z  " style="fill:rgb(0, 0, 0); fill-opacity:1.000; stroke:none;" />
 <path d="  M 95,120  L 94,120  L 94,123  L 95,123  L 95,124  L 100,124  L 100,121  L 101,121  L 101,105  L 102,105  L 102,104  L 101,104  L 101,103  L 102,103  L 102,22  L 101,22  L 101,16  L 100,16  L 100,7  L 99,7  L 99,1  L 97,1  L 97,0  L 93,0  L 93,2  L 92,2  L 92,6  L 93,6  L 93,12  L 94,12  L 94,19  L 95,19  L 95,27  L 96,27  L 96,91  L 95,91  L 95,92  L 96,92  L 96,95  L 95,95  L 95,96  L 96,96  L 96,98  L 95,98  Z  " style="fill:rgb(0, 0, 0); fill-opacity:1.000; stroke:none;" />
</svg>
