<?xml version="1.0" encoding="UTF-8" standalone="no"?>
<!DOCTYPE svg PUBLIC "-//W3C//DTD SVG 1.1//EN" 
  "http://www.w3.org/Graphics/SVG/1.1/DTD/svg11.dtd">
<svg width="110" height="162"
     xmlns="http://www.w3.org/2000/svg" version="1.1">
 <path d="  M 45,51  L 46,51  L 46,50  L 59,50  L 59,49  L 60,49  L 60,50  L 61,50  L 61,49  L 62,49  L 62,50  L 64,50  L 64,54  L 65,54  L 65,55  L 64,55  L 64,58  L 65,58  L 65,60  L 64,60  L 64,61  L 65,61  L 65,62  L 64,62  L 64,68  L 65,68  L 65,73  L 64,73  L 64,78  L 65,78  L 65,79  L 64,79  L 64,84  L 60,84  L 60,85  L 45,85  L 45,83  L 44,83  L 44,81  L 45,81  L 45,80  L 44,80  L 44,74  L 45,74  L 45,73  L 44,73  L 44,72  L 45,72  Z  M 34,52  L 35,52  L 35,51  L 36,51  L 36,53  L 37,53  L 37,56  L 38,56  L 38,58  L 37,58  L 37,60  L 38,60  L 38,62  L 37,62  L 37,64  L 38,64  L 38,65  L 37,65  L 37,85  L 31,85  L 31,86  L 22,86  L 22,87  L 15,87  L 15,88  L 12,88  L 12,87  L 11,87  L 11,88  L 4,88  L 4,89  L 3,89  L 3,88  L 2,88  L 2,89  L 1,89  L 1,90  L 0,90  L 0,93  L 1,93  L 1,94  L 2,94  L 2,95  L 3,95  L 3,96  L 9,96  L 9,95  L 18,95  L 18,94  L 24,94  L 24,93  L 25,93  L 25,94  L 26,94  L 26,93  L 32,93  L 32,92  L 48,92  L 48,91  L 49,91  L 49,92  L 55,92  L 55,91  L 56,91  L 56,92  L 59,92  L 59,91  L 60,91  L 60,92  L 63,92  L 63,91  L 68,91  L 68,90  L 78,90  L 78,89  L 84,89  L 84,88  L 99,88  L 99,87  L 100,87  L 100,85  L 101,85  L 101,84  L 102,84  L 102,82  L 103,82  L 103,81  L 102,81  L 102,80  L 100,80  L 100,79  L 97,79  L 97,80  L 96,80  L 96,79  L 95,79  L 95,80  L 93,80  L 93,81  L 86,81  L 86,82  L 84,82  L 84,81  L 83,81  L 83,82  L 74,82  L 74,83  L 73,83  L 73,82  L 72,82  L 72,64  L 73,64  L 73,63  L 72,63  L 72,62  L 73,62  L 73,61  L 72,61  L 72,58  L 73,58  L 73,57  L 72,57  L 72,56  L 73,56  L 73,55  L 72,55  L 72,54  L 73,54  L 73,53  L 72,53  L 72,52  L 73,52  L 73,51  L 72,51  L 72,50  L 73,50  L 73,48  L 74,48  L 74,46  L 75,46  L 75,44  L 74,44  L 74,43  L 72,43  L 72,42  L 71,42  L 71,40  L 70,40  L 70,21  L 69,21  L 69,20  L 70,20  L 70,19  L 69,19  L 69,18  L 70,18  L 70,17  L 69,17  L 69,16  L 70,16  L 70,9  L 71,9  L 71,2  L 69,2  L 69,1  L 37,1  L 37,2  L 31,2  L 31,3  L 24,3  L 24,4  L 22,4  L 22,5  L 17,5  L 17,7  L 16,7  L 16,11  L 17,11  L 17,13  L 22,13  L 22,12  L 26,12  L 26,11  L 28,11  L 28,12  L 29,12  L 29,11  L 31,11  L 31,10  L 34,10  L 34,12  L 35,12  L 35,13  L 34,13  L 34,14  L 35,14  L 35,41  L 36,41  L 36,42  L 35,42  L 35,45  L 36,45  L 36,46  L 35,46  L 35,47  L 34,47  L 34,48  L 33,48  L 33,47  L 32,47  L 32,46  L 31,46  L 31,47  L 29,47  L 29,48  L 28,48  L 28,49  L 25,49  L 25,50  L 19,50  L 19,51  L 14,51  L 14,52  L 10,52  L 10,53  L 9,53  L 9,54  L 8,54  L 8,56  L 7,56  L 7,57  L 6,57  L 6,58  L 7,58  L 7,59  L 10,59  L 10,60  L 12,60  L 12,59  L 15,59  L 15,58  L 18,58  L 18,57  L 22,57  L 22,56  L 23,56  L 23,57  L 24,57  L 24,56  L 29,56  L 29,57  L 30,57  L 30,56  L 31,56  L 31,55  L 33,55  L 33,53  L 34,53  Z  M 63,8  L 63,9  L 62,9  L 62,10  L 63,10  L 63,11  L 62,11  L 62,12  L 63,12  L 63,37  L 64,37  L 64,41  L 63,41  L 63,42  L 62,42  L 62,43  L 54,43  L 54,44  L 53,44  L 53,43  L 51,43  L 51,44  L 42,44  L 42,39  L 41,39  L 41,36  L 42,36  L 42,35  L 41,35  L 41,10  L 42,10  L 42,9  L 50,9  L 50,8  Z  M 35,50  L 35,49  L 36,49  L 36,50  Z  " style="fill:rgb(0, 0, 0); fill-opacity:1.000; stroke:none;" />
 <path d="  M 58,116  L 59,116  L 59,115  L 60,115  L 60,113  L 61,113  L 61,112  L 62,112  L 62,110  L 64,110  L 64,108  L 66,108  L 66,107  L 67,107  L 67,106  L 69,106  L 69,104  L 71,104  L 71,100  L 70,100  L 70,99  L 66,99  L 66,100  L 65,100  L 65,99  L 64,99  L 64,100  L 63,100  L 63,101  L 62,101  L 62,102  L 61,102  L 61,103  L 60,103  L 60,104  L 59,104  L 59,105  L 58,105  L 58,106  L 56,106  L 56,107  L 54,107  L 54,108  L 53,108  L 53,109  L 52,109  L 52,111  L 51,111  L 51,113  L 50,113  L 50,114  L 49,114  L 49,115  L 48,115  L 48,118  L 46,118  L 46,119  L 45,119  L 45,122  L 43,122  L 43,123  L 42,123  L 42,124  L 41,124  L 41,125  L 40,125  L 40,126  L 39,126  L 39,128  L 38,128  L 38,129  L 37,129  L 37,130  L 36,130  L 36,132  L 35,132  L 35,133  L 34,133  L 34,134  L 33,134  L 33,136  L 32,136  L 32,137  L 31,137  L 31,138  L 30,138  L 30,140  L 29,140  L 29,141  L 28,141  L 28,143  L 26,143  L 26,145  L 25,145  L 25,147  L 24,147  L 24,148  L 23,148  L 23,149  L 22,149  L 22,150  L 21,150  L 21,151  L 20,151  L 20,152  L 19,152  L 19,153  L 18,153  L 18,154  L 17,154  L 17,156  L 16,156  L 16,160  L 17,160  L 17,162  L 22,162  L 22,161  L 23,161  L 23,160  L 25,160  L 25,159  L 26,159  L 26,158  L 27,158  L 27,157  L 28,157  L 28,156  L 29,156  L 29,155  L 30,155  L 30,153  L 32,153  L 32,151  L 33,151  L 33,150  L 34,150  L 34,148  L 35,148  L 35,147  L 36,147  L 36,146  L 37,146  L 37,144  L 38,144  L 38,142  L 40,142  L 40,139  L 41,139  L 41,138  L 42,138  L 42,137  L 43,137  L 43,136  L 44,136  L 44,134  L 45,134  L 45,133  L 46,133  L 46,132  L 47,132  L 47,130  L 48,130  L 48,129  L 49,129  L 49,130  L 51,130  L 51,131  L 52,131  L 52,132  L 54,132  L 54,134  L 56,134  L 56,135  L 58,135  L 58,136  L 59,136  L 59,137  L 61,137  L 61,138  L 62,138  L 62,139  L 63,139  L 63,140  L 65,140  L 65,141  L 67,141  L 67,142  L 70,142  L 70,143  L 71,143  L 71,144  L 73,144  L 73,145  L 74,145  L 74,146  L 77,146  L 77,147  L 81,147  L 81,148  L 85,148  L 85,149  L 90,149  L 90,150  L 92,150  L 92,151  L 94,151  L 94,152  L 96,152  L 96,153  L 97,153  L 97,157  L 98,157  L 98,158  L 103,158  L 103,157  L 105,157  L 105,156  L 106,156  L 106,155  L 107,155  L 107,154  L 109,154  L 109,153  L 110,153  L 110,149  L 109,149  L 109,148  L 99,148  L 99,147  L 98,147  L 98,146  L 96,146  L 96,145  L 92,145  L 92,144  L 91,144  L 91,143  L 89,143  L 89,142  L 85,142  L 85,141  L 83,141  L 83,140  L 80,140  L 80,139  L 78,139  L 78,138  L 76,138  L 76,137  L 73,137  L 73,136  L 72,136  L 72,135  L 71,135  L 71,134  L 68,134  L 68,133  L 67,133  L 67,132  L 66,132  L 66,131  L 64,131  L 64,130  L 63,130  L 63,129  L 61,129  L 61,128  L 60,128  L 60,127  L 59,127  L 59,126  L 58,126  L 58,125  L 57,125  L 57,124  L 56,124  L 56,123  L 55,123  L 55,119  L 56,119  L 56,118  L 57,118  L 57,117  L 58,117  Z  " style="fill:rgb(0, 0, 0); fill-opacity:1.000; stroke:none;" />
 <path d="  M 35,54  L 35,53  L 34,53  L 34,54  Z  " style="fill:rgb(0, 0, 0); fill-opacity:1.000; stroke:none;" />
 <path d="  M 83,48  L 83,47  L 92,47  L 92,44  L 93,44  L 93,43  L 92,43  L 92,42  L 91,42  L 91,41  L 82,41  L 82,42  L 78,42  L 78,43  L 76,43  L 76,46  L 77,46  L 77,47  L 78,47  L 78,48  Z  " style="fill:rgb(0, 0, 0); fill-opacity:1.000; stroke:none;" />
</svg>
