<?xml version="1.0" encoding="UTF-8" standalone="no"?>
<!DOCTYPE svg PUBLIC "-//W3C//DTD SVG 1.1//EN" 
  "http://www.w3.org/Graphics/SVG/1.1/DTD/svg11.dtd">
<svg width="102" height="163"
     xmlns="http://www.w3.org/2000/svg" version="1.1">
 <path d="  M 54,105  L 53,105  L 53,106  L 51,106  L 51,105  L 50,105  L 50,106  L 49,106  L 49,105  L 39,105  L 39,106  L 31,106  L 31,107  L 25,107  L 25,108  L 21,108  L 21,109  L 18,109  L 18,110  L 16,110  L 16,112  L 15,112  L 15,115  L 16,115  L 16,116  L 17,116  L 17,117  L 20,117  L 20,116  L 24,116  L 24,115  L 27,115  L 27,114  L 32,114  L 32,113  L 38,113  L 38,112  L 43,112  L 43,111  L 46,111  L 46,112  L 47,112  L 47,111  L 59,111  L 59,110  L 62,110  L 62,111  L 63,111  L 63,110  L 66,110  L 66,111  L 67,111  L 67,110  L 75,110  L 75,111  L 76,111  L 76,113  L 77,113  L 77,116  L 76,116  L 76,120  L 75,120  L 75,122  L 74,122  L 74,126  L 73,126  L 73,129  L 72,129  L 72,133  L 71,133  L 71,136  L 70,136  L 70,137  L 71,137  L 71,138  L 70,138  L 70,143  L 69,143  L 69,147  L 68,147  L 68,150  L 67,150  L 67,155  L 66,155  L 66,163  L 71,163  L 71,162  L 72,162  L 72,161  L 73,161  L 73,159  L 74,159  L 74,158  L 73,158  L 73,157  L 74,157  L 74,155  L 75,155  L 75,152  L 76,152  L 76,147  L 77,147  L 77,143  L 78,143  L 78,142  L 77,142  L 77,140  L 78,140  L 78,137  L 79,137  L 79,132  L 80,132  L 80,131  L 81,131  L 81,127  L 82,127  L 82,125  L 83,125  L 83,124  L 82,124  L 82,123  L 83,123  L 83,116  L 84,116  L 84,110  L 83,110  L 83,107  L 82,107  L 82,106  L 81,106  L 81,104  L 79,104  L 79,103  L 76,103  L 76,102  L 74,102  L 74,103  L 72,103  L 72,102  L 71,102  L 71,103  L 62,103  L 62,102  L 61,102  L 61,71  L 62,71  L 62,70  L 69,70  L 69,69  L 71,69  L 71,70  L 72,70  L 72,69  L 82,69  L 82,68  L 92,68  L 92,67  L 93,67  L 93,68  L 94,68  L 94,67  L 98,67  L 98,66  L 101,66  L 101,65  L 102,65  L 102,58  L 101,58  L 101,57  L 100,57  L 100,58  L 99,58  L 99,57  L 98,57  L 98,56  L 97,56  L 97,54  L 94,54  L 94,55  L 96,55  L 96,58  L 94,58  L 94,59  L 93,59  L 93,60  L 92,60  L 92,61  L 87,61  L 87,62  L 86,62  L 86,61  L 85,61  L 85,62  L 82,62  L 82,63  L 81,63  L 81,62  L 78,62  L 78,63  L 67,63  L 67,64  L 64,64  L 64,63  L 63,63  L 63,64  L 59,64  L 59,65  L 52,65  L 52,66  L 43,66  L 43,67  L 36,67  L 36,68  L 27,68  L 27,69  L 18,69  L 18,70  L 10,70  L 10,71  L 5,71  L 5,72  L 1,72  L 1,74  L 0,74  L 0,76  L 1,76  L 1,77  L 2,77  L 2,78  L 3,78  L 3,77  L 4,77  L 4,78  L 9,78  L 9,77  L 14,77  L 14,76  L 22,76  L 22,75  L 30,75  L 30,74  L 33,74  L 33,75  L 34,75  L 34,74  L 38,74  L 38,73  L 47,73  L 47,72  L 48,72  L 48,73  L 49,73  L 49,72  L 50,72  L 50,71  L 54,71  Z  " style="fill:rgb(0, 0, 0); fill-opacity:1.000; stroke:none;" />
 <path d="  M 31,23  L 32,23  L 32,26  L 31,26  L 31,27  L 32,27  L 32,30  L 31,30  L 31,31  L 32,31  L 32,45  L 31,45  L 31,46  L 30,46  L 30,47  L 28,47  L 28,46  L 26,46  L 26,47  L 22,47  L 22,48  L 17,48  L 17,49  L 14,49  L 14,50  L 12,50  L 12,51  L 11,51  L 11,52  L 10,52  L 10,54  L 9,54  L 9,55  L 10,55  L 10,56  L 9,56  L 9,57  L 13,57  L 13,58  L 14,58  L 14,57  L 16,57  L 16,56  L 19,56  L 19,55  L 27,55  L 27,54  L 34,54  L 34,53  L 39,53  L 39,54  L 40,54  L 40,53  L 43,53  L 43,54  L 44,54  L 44,53  L 47,53  L 47,54  L 48,54  L 48,53  L 49,53  L 49,54  L 50,54  L 50,53  L 51,53  L 51,54  L 52,54  L 52,53  L 64,53  L 64,52  L 78,52  L 78,51  L 79,51  L 79,52  L 80,52  L 80,51  L 81,51  L 81,52  L 82,52  L 82,51  L 85,51  L 85,52  L 91,52  L 91,53  L 92,53  L 92,50  L 91,50  L 91,48  L 90,48  L 90,46  L 89,46  L 89,45  L 71,45  L 71,46  L 70,46  L 70,45  L 69,45  L 69,44  L 68,44  L 68,37  L 69,37  L 69,36  L 68,36  L 68,13  L 69,13  L 69,12  L 68,12  L 68,11  L 69,11  L 69,8  L 72,8  L 72,7  L 75,7  L 75,6  L 76,6  L 76,5  L 77,5  L 77,3  L 76,3  L 76,2  L 75,2  L 75,1  L 59,1  L 59,2  L 37,2  L 37,3  L 36,3  L 36,2  L 34,2  L 34,3  L 29,3  L 29,4  L 25,4  L 25,5  L 19,5  L 19,6  L 16,6  L 16,7  L 14,7  L 14,8  L 13,8  L 13,9  L 14,9  L 14,10  L 13,10  L 13,12  L 14,12  L 14,14  L 15,14  L 15,15  L 18,15  L 18,14  L 19,14  L 19,15  L 21,15  L 21,14  L 22,14  L 22,13  L 24,13  L 24,15  L 25,15  L 25,13  L 27,13  L 27,12  L 28,12  L 28,11  L 31,11  Z  M 56,10  L 56,9  L 57,9  L 57,10  L 59,10  L 59,9  L 61,9  L 61,10  L 62,10  L 62,16  L 61,16  L 61,18  L 62,18  L 62,20  L 61,20  L 61,22  L 62,22  L 62,24  L 61,24  L 61,26  L 62,26  L 62,28  L 61,28  L 61,29  L 62,29  L 62,32  L 61,32  L 61,33  L 62,33  L 62,36  L 61,36  L 61,37  L 62,37  L 62,41  L 61,41  L 61,42  L 62,42  L 62,45  L 61,45  L 61,46  L 58,46  L 58,47  L 57,47  L 57,46  L 41,46  L 41,45  L 39,45  L 39,26  L 38,26  L 38,25  L 39,25  L 39,22  L 38,22  L 38,21  L 39,21  L 39,17  L 38,17  L 38,12  L 39,12  L 39,11  L 40,11  L 40,10  L 48,10  L 48,9  L 49,9  L 49,10  L 52,10  L 52,9  L 53,9  L 53,10  Z  " style="fill:rgb(0, 0, 0); fill-opacity:1.000; stroke:none;" />
 <path d="  M 94,54  L 94,53  L 93,53  L 93,54  Z  " style="fill:rgb(0, 0, 0); fill-opacity:1.000; stroke:none;" />
</svg>
