<?xml version="1.0" encoding="UTF-8" standalone="no"?>
<!DOCTYPE svg PUBLIC "-//W3C//DTD SVG 1.1//EN" 
  "http://www.w3.org/Graphics/SVG/1.1/DTD/svg11.dtd">
<svg width="103" height="156"
     xmlns="http://www.w3.org/2000/svg" version="1.1">
 <path d="  M 56,99  L 55,99  L 55,100  L 56,100  L 56,103  L 55,103  L 55,117  L 56,117  L 56,118  L 55,118  L 55,119  L 56,119  L 56,122  L 60,122  L 60,121  L 62,121  L 62,114  L 63,114  L 63,101  L 64,101  L 64,81  L 65,81  L 65,80  L 80,80  L 80,79  L 87,79  L 87,78  L 94,78  L 94,77  L 96,77  L 96,76  L 99,76  L 99,75  L 101,75  L 101,74  L 102,74  L 102,73  L 103,73  L 103,69  L 102,69  L 102,67  L 101,67  L 101,66  L 100,66  L 100,67  L 98,67  L 98,68  L 96,68  L 96,69  L 94,69  L 94,70  L 93,70  L 93,71  L 92,71  L 92,70  L 91,70  L 91,71  L 87,71  L 87,72  L 80,72  L 80,73  L 79,73  L 79,72  L 78,72  L 78,73  L 60,73  L 60,74  L 53,74  L 53,75  L 45,75  L 45,76  L 43,76  L 43,75  L 42,75  L 42,76  L 33,76  L 33,77  L 32,77  L 32,76  L 30,76  L 30,77  L 23,77  L 23,78  L 14,78  L 14,79  L 7,79  L 7,80  L 6,80  L 6,79  L 5,79  L 5,80  L 3,80  L 3,81  L 1,81  L 1,82  L 0,82  L 0,83  L 1,83  L 1,84  L 0,84  L 0,85  L 1,85  L 1,86  L 0,86  L 0,87  L 7,87  L 7,86  L 13,86  L 13,85  L 23,85  L 23,84  L 24,84  L 24,85  L 26,85  L 26,84  L 37,84  L 37,83  L 45,83  L 45,82  L 54,82  L 54,81  L 55,81  L 55,82  L 56,82  Z  " style="fill:rgb(0, 0, 0); fill-opacity:1.000; stroke:none;" />
 <path d="  M 16,12  L 18,12  L 18,11  L 21,11  L 21,10  L 23,10  L 23,11  L 24,11  L 24,10  L 25,10  L 25,9  L 29,9  L 29,13  L 30,13  L 30,52  L 29,52  L 29,53  L 20,53  L 20,54  L 16,54  L 16,55  L 13,55  L 13,56  L 11,56  L 11,57  L 10,57  L 10,58  L 8,58  L 8,60  L 7,60  L 7,62  L 8,62  L 8,63  L 11,63  L 11,62  L 12,62  L 12,63  L 13,63  L 13,62  L 16,62  L 16,61  L 19,61  L 19,60  L 20,60  L 20,61  L 22,61  L 22,60  L 31,60  L 31,59  L 32,59  L 32,60  L 33,60  L 33,59  L 34,59  L 34,60  L 35,60  L 35,59  L 47,59  L 47,58  L 48,58  L 48,59  L 49,59  L 49,58  L 59,58  L 59,57  L 60,57  L 60,58  L 61,58  L 61,57  L 76,57  L 76,56  L 77,56  L 77,57  L 78,57  L 78,56  L 91,56  L 91,53  L 92,53  L 92,52  L 91,52  L 91,51  L 90,51  L 90,50  L 72,50  L 72,51  L 68,51  L 68,48  L 67,48  L 67,43  L 68,43  L 68,42  L 67,42  L 67,39  L 68,39  L 68,38  L 67,38  L 67,35  L 68,35  L 68,34  L 67,34  L 67,9  L 68,9  L 68,8  L 69,8  L 69,7  L 71,7  L 71,5  L 73,5  L 73,2  L 71,2  L 71,1  L 62,1  L 62,2  L 25,2  L 25,3  L 18,3  L 18,4  L 14,4  L 14,5  L 12,5  L 12,6  L 10,6  L 10,10  L 9,10  L 9,11  L 11,11  L 11,12  L 12,12  L 12,13  L 16,13  Z  M 36,10  L 45,10  L 45,9  L 60,9  L 60,28  L 61,28  L 61,30  L 60,30  L 60,31  L 61,31  L 61,34  L 60,34  L 60,35  L 61,35  L 61,38  L 60,38  L 60,39  L 61,39  L 61,42  L 60,42  L 60,43  L 61,43  L 61,46  L 60,46  L 60,47  L 61,47  L 61,51  L 57,51  L 57,52  L 55,52  L 55,51  L 54,51  L 54,52  L 37,52  L 37,48  L 36,48  L 36,46  L 37,46  L 37,42  L 36,42  L 36,41  L 37,41  L 37,40  L 36,40  L 36,39  L 37,39  L 37,38  L 36,38  L 36,37  L 37,37  L 37,36  L 36,36  L 36,35  L 37,35  L 37,34  L 36,34  L 36,33  L 37,33  L 37,32  L 36,32  L 36,31  L 37,31  L 37,30  L 36,30  L 36,29  L 37,29  L 37,28  L 36,28  L 36,26  L 37,26  L 37,24  L 36,24  L 36,23  L 37,23  L 37,22  L 36,22  Z  " style="fill:rgb(0, 0, 0); fill-opacity:1.000; stroke:none;" />
 <path d="  M 22,110  L 22,112  L 21,112  L 21,120  L 20,120  L 20,121  L 21,121  L 21,123  L 20,123  L 20,125  L 21,125  L 21,127  L 20,127  L 20,129  L 21,129  L 21,130  L 20,130  L 20,133  L 21,133  L 21,134  L 20,134  L 20,137  L 21,137  L 21,138  L 20,138  L 20,154  L 21,154  L 21,155  L 22,155  L 22,156  L 51,156  L 51,155  L 55,155  L 55,154  L 61,154  L 61,153  L 70,153  L 70,152  L 78,152  L 78,151  L 83,151  L 83,150  L 84,150  L 84,151  L 85,151  L 85,150  L 88,150  L 88,149  L 93,149  L 93,148  L 97,148  L 97,147  L 99,147  L 99,146  L 100,146  L 100,145  L 101,145  L 101,142  L 100,142  L 100,141  L 98,141  L 98,140  L 96,140  L 96,141  L 94,141  L 94,142  L 90,142  L 90,143  L 85,143  L 85,144  L 77,144  L 77,145  L 75,145  L 75,144  L 74,144  L 74,145  L 66,145  L 66,146  L 57,146  L 57,147  L 55,147  L 55,148  L 54,148  L 54,147  L 53,147  L 53,148  L 45,148  L 45,149  L 37,149  L 37,150  L 35,150  L 35,149  L 34,149  L 34,150  L 28,150  L 28,149  L 27,149  L 27,139  L 28,139  L 28,130  L 27,130  L 27,129  L 28,129  L 28,126  L 27,126  L 27,125  L 28,125  L 28,122  L 27,122  L 27,121  L 28,121  L 28,110  L 27,110  L 27,109  L 23,109  L 23,110  Z  " style="fill:rgb(0, 0, 0); fill-opacity:1.000; stroke:none;" />
</svg>
