<?xml version="1.0" encoding="UTF-8" standalone="no"?>
<!DOCTYPE svg PUBLIC "-//W3C//DTD SVG 1.1//EN" 
  "http://www.w3.org/Graphics/SVG/1.1/DTD/svg11.dtd">
<svg width="107" height="163"
     xmlns="http://www.w3.org/2000/svg" version="1.1">
 <path d="  M 57,102  L 57,107  L 56,107  L 56,111  L 55,111  L 55,112  L 54,112  L 54,113  L 53,113  L 53,114  L 52,114  L 52,115  L 51,115  L 51,116  L 50,116  L 50,118  L 49,118  L 49,119  L 48,119  L 48,121  L 46,121  L 46,122  L 45,122  L 45,123  L 44,123  L 44,124  L 43,124  L 43,125  L 42,125  L 42,126  L 41,126  L 41,128  L 40,128  L 40,129  L 39,129  L 39,130  L 38,130  L 38,131  L 37,131  L 37,132  L 36,132  L 36,133  L 35,133  L 35,134  L 34,134  L 34,135  L 33,135  L 33,137  L 32,137  L 32,138  L 31,138  L 31,139  L 30,139  L 30,140  L 29,140  L 29,141  L 28,141  L 28,142  L 27,142  L 27,143  L 26,143  L 26,144  L 25,144  L 25,146  L 24,146  L 24,147  L 22,147  L 22,149  L 21,149  L 21,150  L 20,150  L 20,151  L 18,151  L 18,153  L 17,153  L 17,154  L 16,154  L 16,155  L 15,155  L 15,156  L 14,156  L 14,157  L 13,157  L 13,158  L 12,158  L 12,159  L 11,159  L 11,160  L 12,160  L 12,163  L 18,163  L 18,162  L 20,162  L 20,161  L 21,161  L 21,160  L 22,160  L 22,159  L 24,159  L 24,158  L 25,158  L 25,157  L 26,157  L 26,155  L 28,155  L 28,154  L 29,154  L 29,153  L 30,153  L 30,152  L 31,152  L 31,151  L 32,151  L 32,149  L 33,149  L 33,148  L 34,148  L 34,147  L 35,147  L 35,146  L 36,146  L 36,145  L 37,145  L 37,144  L 38,144  L 38,143  L 40,143  L 40,141  L 41,141  L 41,140  L 42,140  L 42,139  L 43,139  L 43,138  L 44,138  L 44,136  L 46,136  L 46,135  L 50,135  L 50,136  L 52,136  L 52,137  L 54,137  L 54,138  L 55,138  L 55,139  L 57,139  L 57,140  L 58,140  L 58,141  L 59,141  L 59,142  L 61,142  L 61,143  L 62,143  L 62,144  L 64,144  L 64,145  L 66,145  L 66,146  L 68,146  L 68,147  L 70,147  L 70,148  L 73,148  L 73,149  L 75,149  L 75,150  L 77,150  L 77,151  L 78,151  L 78,152  L 81,152  L 81,153  L 85,153  L 85,154  L 88,154  L 88,155  L 90,155  L 90,156  L 92,156  L 92,157  L 94,157  L 94,158  L 95,158  L 95,163  L 101,163  L 101,162  L 102,162  L 102,161  L 103,161  L 103,160  L 105,160  L 105,159  L 106,159  L 106,158  L 107,158  L 107,154  L 105,154  L 105,153  L 97,153  L 97,152  L 96,152  L 96,151  L 94,151  L 94,150  L 92,150  L 92,149  L 90,149  L 90,148  L 87,148  L 87,147  L 84,147  L 84,146  L 83,146  L 83,145  L 81,145  L 81,144  L 78,144  L 78,143  L 76,143  L 76,142  L 75,142  L 75,141  L 73,141  L 73,140  L 72,140  L 72,139  L 71,139  L 71,138  L 68,138  L 68,137  L 67,137  L 67,136  L 66,136  L 66,135  L 64,135  L 64,134  L 63,134  L 63,133  L 62,133  L 62,132  L 60,132  L 60,131  L 58,131  L 58,130  L 56,130  L 56,129  L 55,129  L 55,128  L 54,128  L 54,124  L 55,124  L 55,123  L 56,123  L 56,122  L 57,122  L 57,121  L 58,121  L 58,119  L 60,119  L 60,117  L 61,117  L 61,116  L 62,116  L 62,115  L 64,115  L 64,114  L 65,114  L 65,112  L 66,112  L 66,110  L 67,110  L 67,103  L 66,103  L 66,100  L 65,100  L 65,99  L 64,99  L 64,98  L 63,98  L 63,95  L 62,95  L 62,93  L 61,93  L 61,89  L 60,89  L 60,86  L 59,86  L 59,77  L 60,77  L 60,76  L 66,76  L 66,75  L 81,75  L 81,74  L 92,74  L 92,73  L 93,73  L 93,74  L 95,74  L 95,73  L 99,73  L 99,72  L 101,72  L 101,71  L 102,71  L 102,70  L 103,70  L 103,67  L 102,67  L 102,66  L 100,66  L 100,65  L 97,65  L 97,66  L 95,66  L 95,67  L 90,67  L 90,68  L 88,68  L 88,67  L 86,67  L 86,68  L 80,68  L 80,69  L 78,69  L 78,68  L 77,68  L 77,69  L 58,69  L 58,70  L 56,70  L 56,69  L 55,69  L 55,70  L 48,70  L 48,71  L 41,71  L 41,72  L 32,72  L 32,73  L 22,73  L 22,74  L 21,74  L 21,73  L 19,73  L 19,74  L 16,74  L 16,75  L 10,75  L 10,76  L 6,76  L 6,77  L 1,77  L 1,82  L 2,82  L 2,83  L 10,83  L 10,82  L 15,82  L 15,81  L 20,81  L 20,80  L 21,80  L 21,81  L 22,81  L 22,80  L 28,80  L 28,79  L 29,79  L 29,80  L 30,80  L 30,79  L 38,79  L 38,78  L 39,78  L 39,79  L 40,79  L 40,78  L 49,78  L 49,77  L 50,77  L 50,80  L 51,80  L 51,81  L 50,81  L 50,82  L 51,82  L 51,90  L 52,90  L 52,92  L 53,92  L 53,94  L 54,94  L 54,97  L 55,97  L 55,99  L 56,99  L 56,102  Z  " style="fill:rgb(0, 0, 0); fill-opacity:1.000; stroke:none;" />
 <path d="  M 31,26  L 32,26  L 32,27  L 31,27  L 31,30  L 32,30  L 32,32  L 31,32  L 31,34  L 32,34  L 32,37  L 31,37  L 31,38  L 32,38  L 32,41  L 31,41  L 31,42  L 32,42  L 32,46  L 31,46  L 31,48  L 25,48  L 25,49  L 24,49  L 24,48  L 23,48  L 23,49  L 17,49  L 17,50  L 13,50  L 13,51  L 11,51  L 11,52  L 10,52  L 10,53  L 9,53  L 9,54  L 8,54  L 8,57  L 9,57  L 9,58  L 10,58  L 10,59  L 13,59  L 13,58  L 15,58  L 15,57  L 18,57  L 18,56  L 28,56  L 28,55  L 42,55  L 42,54  L 43,54  L 43,55  L 52,55  L 52,54  L 72,54  L 72,53  L 74,53  L 74,54  L 75,54  L 75,53  L 87,53  L 87,54  L 88,54  L 88,53  L 91,53  L 91,51  L 90,51  L 90,50  L 91,50  L 91,49  L 90,49  L 90,48  L 89,48  L 89,47  L 87,47  L 87,46  L 75,46  L 75,47  L 69,47  L 69,10  L 72,10  L 72,9  L 73,9  L 73,10  L 74,10  L 74,9  L 78,9  L 78,8  L 79,8  L 79,7  L 80,7  L 80,3  L 79,3  L 79,2  L 78,2  L 78,1  L 71,1  L 71,2  L 63,2  L 63,3  L 62,3  L 62,2  L 60,2  L 60,3  L 31,3  L 31,4  L 26,4  L 26,5  L 23,5  L 23,6  L 18,6  L 18,7  L 14,7  L 14,8  L 13,8  L 13,9  L 12,9  L 12,13  L 13,13  L 13,15  L 16,15  L 16,16  L 17,16  L 17,15  L 18,15  L 18,14  L 19,14  L 19,15  L 20,15  L 20,14  L 25,14  L 25,13  L 27,13  L 27,12  L 29,12  L 29,11  L 31,11  L 31,12  L 32,12  L 32,15  L 31,15  Z  M 44,10  L 44,11  L 45,11  L 45,10  L 61,10  L 61,11  L 62,11  L 62,10  L 63,10  L 63,15  L 62,15  L 62,47  L 57,47  L 57,48  L 51,48  L 51,47  L 50,47  L 50,48  L 48,48  L 48,47  L 39,47  L 39,44  L 38,44  L 38,42  L 39,42  L 39,40  L 38,40  L 38,39  L 39,39  L 39,37  L 38,37  L 38,35  L 39,35  L 39,33  L 38,33  L 38,32  L 39,32  L 39,29  L 38,29  L 38,28  L 39,28  L 39,25  L 38,25  L 38,24  L 39,24  L 39,21  L 38,21  L 38,19  L 39,19  L 39,16  L 38,16  L 38,11  L 42,11  L 42,10  Z  " style="fill:rgb(0, 0, 0); fill-opacity:1.000; stroke:none;" />
</svg>
