<?xml version="1.0" encoding="UTF-8" standalone="no"?>
<!DOCTYPE svg PUBLIC "-//W3C//DTD SVG 1.1//EN" 
  "http://www.w3.org/Graphics/SVG/1.1/DTD/svg11.dtd">
<svg width="105" height="127"
     xmlns="http://www.w3.org/2000/svg" version="1.1">
 <path d="  M 74,69  L 74,68  L 80,68  L 80,67  L 84,67  L 84,66  L 91,66  L 91,65  L 92,65  L 92,64  L 91,64  L 91,63  L 92,63  L 92,62  L 91,62  L 91,60  L 90,60  L 90,59  L 83,59  L 83,60  L 80,60  L 80,61  L 76,61  L 76,62  L 71,62  L 71,63  L 67,63  L 67,64  L 64,64  L 64,63  L 63,63  L 63,64  L 60,64  L 60,65  L 53,65  L 53,66  L 46,66  L 46,67  L 39,67  L 39,68  L 35,68  L 35,69  L 34,69  L 34,68  L 33,68  L 33,69  L 26,69  L 26,70  L 18,70  L 18,71  L 14,71  L 14,72  L 10,72  L 10,73  L 6,73  L 6,74  L 3,74  L 3,75  L 2,75  L 2,76  L 1,76  L 1,79  L 0,79  L 0,81  L 1,81  L 1,82  L 3,82  L 3,81  L 7,81  L 7,80  L 9,80  L 9,79  L 14,79  L 14,78  L 16,78  L 16,77  L 22,77  L 22,76  L 30,76  L 30,75  L 41,75  L 41,74  L 44,74  L 44,73  L 48,73  L 48,72  L 52,72  L 52,71  L 60,71  L 60,70  L 66,70  L 66,69  Z  " style="fill:rgb(0, 0, 0); fill-opacity:1.000; stroke:none;" />
 <path d="  M 26,40  L 27,40  L 27,39  L 26,39  L 26,36  L 27,36  L 27,35  L 26,35  L 26,32  L 27,32  L 27,31  L 26,31  L 26,28  L 27,28  L 27,25  L 26,25  L 26,24  L 27,24  L 27,20  L 28,20  L 28,18  L 30,18  L 30,17  L 32,17  L 32,16  L 33,16  L 33,17  L 34,17  L 34,16  L 40,16  L 40,15  L 42,15  L 42,16  L 43,16  L 43,15  L 44,15  L 44,16  L 45,16  L 45,15  L 50,15  L 50,29  L 49,29  L 49,30  L 50,30  L 50,33  L 49,33  L 49,44  L 48,44  L 48,46  L 49,46  L 49,49  L 45,49  L 45,50  L 44,50  L 44,49  L 43,49  L 43,50  L 38,50  L 38,51  L 35,51  L 35,50  L 34,50  L 34,51  L 27,51  L 27,47  L 26,47  Z  M 51,7  L 51,8  L 47,8  L 47,9  L 41,9  L 41,10  L 40,10  L 40,9  L 39,9  L 39,10  L 38,10  L 38,9  L 37,9  L 37,10  L 32,10  L 32,11  L 18,11  L 18,12  L 13,12  L 13,13  L 12,13  L 12,12  L 11,12  L 11,13  L 9,13  L 9,14  L 8,14  L 8,13  L 7,13  L 7,15  L 6,15  L 6,16  L 7,16  L 7,17  L 8,17  L 8,18  L 13,18  L 13,19  L 14,19  L 14,18  L 20,18  L 20,19  L 21,19  L 21,25  L 20,25  L 20,35  L 19,35  L 19,36  L 20,36  L 20,39  L 19,39  L 19,40  L 20,40  L 20,42  L 19,42  L 19,44  L 20,44  L 20,47  L 19,47  L 19,49  L 20,49  L 20,53  L 17,53  L 17,54  L 16,54  L 16,53  L 15,53  L 15,54  L 11,54  L 11,55  L 6,55  L 6,56  L 5,56  L 5,57  L 4,57  L 4,58  L 3,58  L 3,59  L 2,59  L 2,60  L 4,60  L 4,61  L 7,61  L 7,60  L 11,60  L 11,59  L 15,59  L 15,58  L 22,58  L 22,57  L 31,57  L 31,56  L 41,56  L 41,55  L 42,55  L 42,56  L 43,56  L 43,55  L 49,55  L 49,54  L 50,54  L 50,55  L 51,55  L 51,54  L 66,54  L 66,53  L 75,53  L 75,52  L 81,52  L 81,51  L 82,51  L 82,50  L 83,50  L 83,48  L 82,48  L 82,47  L 80,47  L 80,46  L 78,46  L 78,47  L 71,47  L 71,48  L 68,48  L 68,47  L 67,47  L 67,48  L 63,48  L 63,49  L 60,49  L 60,48  L 59,48  L 59,49  L 55,49  L 55,48  L 54,48  L 54,46  L 55,46  L 55,37  L 56,37  L 56,16  L 57,16  L 57,14  L 59,14  L 59,13  L 60,13  L 60,14  L 61,14  L 61,13  L 68,13  L 68,8  L 67,8  L 67,7  L 61,7  L 61,8  L 60,8  L 60,7  L 59,7  L 59,8  L 58,8  L 58,7  L 57,7  L 57,8  L 56,8  L 56,7  L 55,7  L 55,8  L 52,8  L 52,7  Z  " style="fill:rgb(0, 0, 0); fill-opacity:1.000; stroke:none;" />
 <path d="  M 35,93  L 34,93  L 34,98  L 33,98  L 33,101  L 32,101  L 32,106  L 31,106  L 31,108  L 30,108  L 30,111  L 29,111  L 29,114  L 28,114  L 28,120  L 30,120  L 30,121  L 31,121  L 31,120  L 33,120  L 33,117  L 34,117  L 34,115  L 35,115  L 35,113  L 36,113  L 36,110  L 37,110  L 37,108  L 38,108  L 38,107  L 37,107  L 37,106  L 38,106  L 38,104  L 39,104  L 39,100  L 40,100  L 40,96  L 41,96  L 41,92  L 42,92  L 42,91  L 41,91  L 41,90  L 42,90  L 42,80  L 41,80  L 41,79  L 40,79  L 40,78  L 39,78  L 39,79  L 38,79  L 38,80  L 36,80  L 36,85  L 35,85  Z  " style="fill:rgb(0, 0, 0); fill-opacity:1.000; stroke:none;" />
 <path d="  M 94,20  L 95,20  L 95,26  L 96,26  L 96,31  L 97,31  L 97,44  L 98,44  L 98,45  L 97,45  L 97,46  L 98,46  L 98,49  L 97,49  L 97,50  L 98,50  L 98,53  L 97,53  L 97,54  L 98,54  L 98,77  L 97,77  L 97,78  L 98,78  L 98,79  L 94,79  L 94,80  L 83,80  L 83,81  L 78,81  L 78,82  L 77,82  L 77,81  L 76,81  L 76,82  L 72,82  L 72,83  L 67,83  L 67,84  L 60,84  L 60,85  L 56,85  L 56,86  L 54,86  L 54,87  L 53,87  L 53,88  L 51,88  L 51,92  L 57,92  L 57,91  L 61,91  L 61,90  L 66,90  L 66,89  L 72,89  L 72,88  L 76,88  L 76,87  L 77,87  L 77,88  L 78,88  L 78,87  L 83,87  L 83,86  L 97,86  L 97,87  L 98,87  L 98,88  L 99,88  L 99,127  L 103,127  L 103,126  L 104,126  L 104,125  L 105,125  L 105,65  L 104,65  L 104,64  L 105,64  L 105,63  L 104,63  L 104,62  L 105,62  L 105,61  L 104,61  L 104,60  L 105,60  L 105,59  L 104,59  L 104,58  L 105,58  L 105,57  L 104,57  L 104,41  L 103,41  L 103,40  L 104,40  L 104,39  L 103,39  L 103,29  L 102,29  L 102,23  L 101,23  L 101,19  L 100,19  L 100,18  L 101,18  L 101,17  L 100,17  L 100,14  L 99,14  L 99,9  L 98,9  L 98,3  L 97,3  L 97,1  L 95,1  L 95,0  L 94,0  L 94,1  L 92,1  L 92,10  L 93,10  L 93,16  L 94,16  Z  " style="fill:rgb(0, 0, 0); fill-opacity:1.000; stroke:none;" />
</svg>
