<?xml version="1.0" encoding="UTF-8" standalone="no"?>
<!DOCTYPE svg PUBLIC "-//W3C//DTD SVG 1.1//EN" 
  "http://www.w3.org/Graphics/SVG/1.1/DTD/svg11.dtd">
<svg width="103" height="156"
     xmlns="http://www.w3.org/2000/svg" version="1.1">
 <path d="  M 11,68  L 13,68  L 13,67  L 19,67  L 19,66  L 26,66  L 26,65  L 27,65  L 27,66  L 28,66  L 28,65  L 31,65  L 31,64  L 35,64  L 35,73  L 34,73  L 34,74  L 35,74  L 35,77  L 34,77  L 34,78  L 35,78  L 35,79  L 34,79  L 34,80  L 35,80  L 35,81  L 34,81  L 34,82  L 35,82  L 35,85  L 34,85  L 34,86  L 35,86  L 35,87  L 34,87  L 34,91  L 35,91  L 35,92  L 34,92  L 34,98  L 35,98  L 35,99  L 40,99  L 40,98  L 42,98  L 42,95  L 43,95  L 43,90  L 44,90  L 44,89  L 43,89  L 43,83  L 42,83  L 42,82  L 43,82  L 43,74  L 42,74  L 42,73  L 43,73  L 43,70  L 42,70  L 42,69  L 43,69  L 43,64  L 44,64  L 44,62  L 46,62  L 46,61  L 51,61  L 51,60  L 58,60  L 58,59  L 65,59  L 65,58  L 71,58  L 71,57  L 76,57  L 76,56  L 83,56  L 83,55  L 85,55  L 85,54  L 87,54  L 87,55  L 88,55  L 88,53  L 87,53  L 87,52  L 86,52  L 86,50  L 85,50  L 85,49  L 83,49  L 83,48  L 82,48  L 82,47  L 81,47  L 81,46  L 80,46  L 80,48  L 77,48  L 77,49  L 76,49  L 76,50  L 73,50  L 73,51  L 69,51  L 69,52  L 66,52  L 66,53  L 65,53  L 65,52  L 64,52  L 64,53  L 61,53  L 61,54  L 54,54  L 54,55  L 49,55  L 49,56  L 48,56  L 48,55  L 47,55  L 47,56  L 42,56  L 42,57  L 34,57  L 34,58  L 27,58  L 27,59  L 20,59  L 20,60  L 19,60  L 19,59  L 18,59  L 18,60  L 15,60  L 15,61  L 10,61  L 10,62  L 9,62  L 9,63  L 6,63  L 6,64  L 4,64  L 4,65  L 2,65  L 2,66  L 1,66  L 1,67  L 0,67  L 0,68  L 1,68  L 1,69  L 0,69  L 0,70  L 1,70  L 1,71  L 0,71  L 0,72  L 3,72  L 3,71  L 6,71  L 6,70  L 8,70  L 8,69  L 11,69  Z  " style="fill:rgb(0, 0, 0); fill-opacity:1.000; stroke:none;" />
 <path d="  M 22,47  L 22,46  L 38,46  L 38,45  L 39,45  L 39,46  L 40,46  L 40,45  L 41,45  L 41,46  L 42,46  L 42,45  L 53,45  L 53,44  L 58,44  L 58,43  L 67,43  L 67,42  L 68,42  L 68,43  L 75,43  L 75,42  L 76,42  L 76,39  L 75,39  L 75,38  L 74,38  L 74,37  L 73,37  L 73,36  L 60,36  L 60,37  L 59,37  L 59,36  L 58,36  L 58,37  L 50,37  L 50,23  L 49,23  L 49,22  L 50,22  L 50,21  L 49,21  L 49,20  L 50,20  L 50,19  L 49,19  L 49,18  L 50,18  L 50,17  L 49,17  L 49,14  L 50,14  L 50,13  L 49,13  L 49,11  L 50,11  L 50,9  L 52,9  L 52,8  L 53,8  L 53,9  L 66,9  L 66,4  L 64,4  L 64,3  L 62,3  L 62,2  L 59,2  L 59,1  L 17,1  L 17,2  L 16,2  L 16,1  L 14,1  L 14,2  L 10,2  L 10,3  L 8,3  L 8,4  L 7,4  L 7,5  L 5,5  L 5,8  L 6,8  L 6,10  L 8,10  L 8,9  L 10,9  L 10,10  L 12,10  L 12,9  L 17,9  L 17,8  L 22,8  L 22,11  L 21,11  L 21,12  L 22,12  L 22,13  L 21,13  L 21,32  L 20,32  L 20,33  L 21,33  L 21,35  L 20,35  L 20,38  L 21,38  L 21,39  L 20,39  L 20,41  L 16,41  L 16,42  L 15,42  L 15,41  L 14,41  L 14,42  L 12,42  L 12,43  L 11,43  L 11,44  L 9,44  L 9,45  L 6,45  L 6,46  L 5,46  L 5,47  L 3,47  L 3,48  L 2,48  L 2,49  L 1,49  L 1,53  L 2,53  L 2,54  L 3,54  L 3,53  L 4,53  L 4,52  L 5,52  L 5,51  L 8,51  L 8,50  L 10,50  L 10,49  L 13,49  L 13,48  L 17,48  L 17,47  Z  M 28,39  L 28,38  L 27,38  L 27,22  L 28,22  L 28,20  L 27,20  L 27,18  L 28,18  L 28,15  L 27,15  L 27,14  L 28,14  L 28,8  L 43,8  L 43,13  L 42,13  L 42,14  L 43,14  L 43,22  L 44,22  L 44,35  L 45,35  L 45,37  L 44,37  L 44,38  L 41,38  L 41,39  Z  " style="fill:rgb(0, 0, 0); fill-opacity:1.000; stroke:none;" />
 <path d="  M 58,116  L 60,116  L 60,115  L 62,115  L 62,114  L 65,114  L 65,113  L 68,113  L 68,112  L 81,112  L 81,113  L 82,113  L 82,112  L 83,112  L 83,113  L 86,113  L 86,114  L 89,114  L 89,115  L 91,115  L 91,116  L 92,116  L 92,117  L 94,117  L 94,118  L 95,118  L 95,120  L 96,120  L 96,123  L 97,123  L 97,124  L 96,124  L 96,125  L 97,125  L 97,130  L 96,130  L 96,135  L 95,135  L 95,137  L 94,137  L 94,138  L 93,138  L 93,140  L 92,140  L 92,141  L 91,141  L 91,142  L 90,142  L 90,143  L 87,143  L 87,144  L 86,144  L 86,145  L 84,145  L 84,146  L 80,146  L 80,147  L 77,147  L 77,148  L 73,148  L 73,149  L 66,149  L 66,150  L 65,150  L 65,149  L 56,149  L 56,148  L 55,148  L 55,149  L 54,149  L 54,148  L 51,148  L 51,147  L 45,147  L 45,146  L 43,146  L 43,145  L 41,145  L 41,142  L 42,142  L 42,139  L 43,139  L 43,137  L 44,137  L 44,135  L 45,135  L 45,132  L 46,132  L 46,130  L 47,130  L 47,128  L 48,128  L 48,127  L 49,127  L 49,125  L 50,125  L 50,124  L 51,124  L 51,123  L 52,123  L 52,122  L 53,122  L 53,120  L 54,120  L 54,119  L 55,119  L 55,118  L 57,118  L 57,117  L 58,117  Z  M 59,108  L 57,108  L 57,109  L 54,109  L 54,110  L 53,110  L 53,111  L 51,111  L 51,112  L 50,112  L 50,113  L 49,113  L 49,114  L 48,114  L 48,116  L 47,116  L 47,117  L 46,117  L 46,118  L 45,118  L 45,120  L 44,120  L 44,122  L 43,122  L 43,123  L 42,123  L 42,125  L 41,125  L 41,126  L 40,126  L 40,127  L 39,127  L 39,129  L 38,129  L 38,131  L 37,131  L 37,133  L 36,133  L 36,136  L 35,136  L 35,140  L 34,140  L 34,142  L 35,142  L 35,147  L 34,147  L 34,148  L 35,148  L 35,149  L 36,149  L 36,150  L 37,150  L 37,151  L 38,151  L 38,152  L 39,152  L 39,151  L 40,151  L 40,152  L 41,152  L 41,153  L 48,153  L 48,154  L 51,154  L 51,155  L 56,155  L 56,156  L 74,156  L 74,155  L 79,155  L 79,154  L 82,154  L 82,153  L 83,153  L 83,152  L 86,152  L 86,151  L 88,151  L 88,150  L 90,150  L 90,149  L 92,149  L 92,148  L 94,148  L 94,147  L 95,147  L 95,146  L 96,146  L 96,145  L 97,145  L 97,144  L 98,144  L 98,143  L 99,143  L 99,142  L 101,142  L 101,140  L 102,140  L 102,137  L 103,137  L 103,121  L 102,121  L 102,118  L 101,118  L 101,115  L 100,115  L 100,113  L 99,113  L 99,111  L 97,111  L 97,110  L 96,110  L 96,109  L 94,109  L 94,108  L 92,108  L 92,106  L 90,106  L 90,105  L 84,105  L 84,104  L 73,104  L 73,105  L 66,105  L 66,106  L 62,106  L 62,107  L 59,107  Z  " style="fill:rgb(0, 0, 0); fill-opacity:1.000; stroke:none;" />
 <path d="  M 100,43  L 99,43  L 99,39  L 98,39  L 98,35  L 97,35  L 97,29  L 96,29  L 96,26  L 95,26  L 95,21  L 94,21  L 94,17  L 93,17  L 93,13  L 92,13  L 92,10  L 91,10  L 91,9  L 90,9  L 90,8  L 87,8  L 87,9  L 86,9  L 86,11  L 85,11  L 85,12  L 86,12  L 86,16  L 87,16  L 87,20  L 88,20  L 88,24  L 89,24  L 89,28  L 90,28  L 90,33  L 91,33  L 91,36  L 92,36  L 92,40  L 93,40  L 93,46  L 94,46  L 94,55  L 95,55  L 95,67  L 93,67  L 93,68  L 92,68  L 92,67  L 89,67  L 89,66  L 88,66  L 88,67  L 87,67  L 87,66  L 80,66  L 80,67  L 77,67  L 77,68  L 74,68  L 74,69  L 69,69  L 69,70  L 64,70  L 64,71  L 63,71  L 63,70  L 62,70  L 62,71  L 59,71  L 59,72  L 55,72  L 55,73  L 53,73  L 53,74  L 52,74  L 52,75  L 51,75  L 51,78  L 52,78  L 52,79  L 53,79  L 53,80  L 55,80  L 55,79  L 59,79  L 59,78  L 66,78  L 66,77  L 70,77  L 70,76  L 77,76  L 77,75  L 94,75  L 94,78  L 95,78  L 95,87  L 96,87  L 96,104  L 97,104  L 97,106  L 98,106  L 98,107  L 102,107  L 102,106  L 103,106  L 103,87  L 102,87  L 102,86  L 103,86  L 103,85  L 102,85  L 102,63  L 101,63  L 101,52  L 100,52  Z  " style="fill:rgb(0, 0, 0); fill-opacity:1.000; stroke:none;" />
</svg>
