<?xml version="1.0" encoding="UTF-8" standalone="no"?>
<!DOCTYPE svg PUBLIC "-//W3C//DTD SVG 1.1//EN" 
  "http://www.w3.org/Graphics/SVG/1.1/DTD/svg11.dtd">
<svg width="102" height="146"
     xmlns="http://www.w3.org/2000/svg" version="1.1">
 <path d="  M 13,12  L 13,11  L 20,11  L 20,48  L 19,48  L 19,49  L 12,49  L 12,50  L 10,50  L 10,51  L 6,51  L 6,52  L 4,52  L 4,53  L 3,53  L 3,54  L 2,54  L 2,55  L 1,55  L 1,56  L 0,56  L 0,57  L 1,57  L 1,59  L 3,59  L 3,58  L 4,58  L 4,59  L 5,59  L 5,58  L 8,58  L 8,57  L 10,57  L 10,56  L 13,56  L 13,55  L 18,55  L 18,54  L 29,54  L 29,53  L 42,53  L 42,52  L 49,52  L 49,51  L 50,51  L 50,52  L 51,52  L 51,51  L 55,51  L 55,50  L 59,50  L 59,49  L 60,49  L 60,50  L 61,50  L 61,49  L 65,49  L 65,48  L 69,48  L 69,47  L 76,47  L 76,46  L 79,46  L 79,45  L 80,45  L 80,42  L 79,42  L 79,40  L 72,40  L 72,41  L 64,41  L 64,42  L 60,42  L 60,43  L 56,43  L 56,44  L 54,44  L 54,45  L 50,45  L 50,44  L 49,44  L 49,40  L 48,40  L 48,37  L 49,37  L 49,36  L 48,36  L 48,11  L 49,11  L 49,10  L 56,10  L 56,9  L 57,9  L 57,10  L 59,10  L 59,9  L 60,9  L 60,10  L 63,10  L 63,9  L 66,9  L 66,8  L 67,8  L 67,6  L 66,6  L 66,5  L 65,5  L 65,4  L 63,4  L 63,3  L 20,3  L 20,4  L 19,4  L 19,3  L 18,3  L 18,4  L 10,4  L 10,5  L 8,5  L 8,6  L 5,6  L 5,8  L 4,8  L 4,11  L 5,11  L 5,12  L 9,12  L 9,11  L 12,11  L 12,12  Z  M 33,46  L 33,47  L 28,47  L 28,46  L 27,46  L 27,39  L 26,39  L 26,37  L 27,37  L 27,35  L 26,35  L 26,33  L 27,33  L 27,32  L 26,32  L 26,11  L 27,11  L 27,10  L 41,10  L 41,25  L 42,25  L 42,26  L 41,26  L 41,28  L 42,28  L 42,31  L 41,31  L 41,32  L 42,32  L 42,43  L 43,43  L 43,45  L 42,45  L 42,46  L 41,46  L 41,47  L 39,47  L 39,46  L 37,46  L 37,47  L 35,47  L 35,46  Z  " style="fill:rgb(0, 0, 0); fill-opacity:1.000; stroke:none;" />
 <path d="  M 2,75  L 1,75  L 1,76  L 2,76  L 2,77  L 3,77  L 3,78  L 4,78  L 4,79  L 6,79  L 6,78  L 9,78  L 9,77  L 13,77  L 13,76  L 17,76  L 17,75  L 23,75  L 23,74  L 31,74  L 31,73  L 33,73  L 33,72  L 35,72  L 35,71  L 38,71  L 38,77  L 39,77  L 39,80  L 38,80  L 38,81  L 39,81  L 39,89  L 40,89  L 40,90  L 39,90  L 39,92  L 40,92  L 40,95  L 41,95  L 41,96  L 42,96  L 42,97  L 43,97  L 43,98  L 44,98  L 44,99  L 45,99  L 45,100  L 47,100  L 47,92  L 46,92  L 46,84  L 45,84  L 45,70  L 46,70  L 46,69  L 51,69  L 51,68  L 58,68  L 58,67  L 65,67  L 65,66  L 72,66  L 72,65  L 76,65  L 76,64  L 80,64  L 80,63  L 86,63  L 86,60  L 87,60  L 87,58  L 86,58  L 86,57  L 85,57  L 85,56  L 79,56  L 79,57  L 76,57  L 76,58  L 72,58  L 72,59  L 68,59  L 68,60  L 65,60  L 65,61  L 64,61  L 64,60  L 62,60  L 62,61  L 54,61  L 54,62  L 51,62  L 51,61  L 50,61  L 50,62  L 49,62  L 49,63  L 48,63  L 48,62  L 47,62  L 47,63  L 42,63  L 42,64  L 37,64  L 37,65  L 34,65  L 34,66  L 30,66  L 30,67  L 26,67  L 26,68  L 21,68  L 21,69  L 16,69  L 16,70  L 10,70  L 10,71  L 4,71  L 4,72  L 2,72  Z  " style="fill:rgb(0, 0, 0); fill-opacity:1.000; stroke:none;" />
 <path d="  M 39,119  L 37,119  L 37,118  L 36,118  L 36,119  L 34,119  L 34,122  L 33,122  L 33,124  L 34,124  L 34,125  L 33,125  L 33,128  L 32,128  L 32,140  L 33,140  L 33,144  L 34,144  L 34,145  L 35,145  L 35,146  L 55,146  L 55,145  L 62,145  L 62,144  L 72,144  L 72,143  L 79,143  L 79,142  L 91,142  L 91,141  L 98,141  L 98,140  L 101,140  L 101,139  L 102,139  L 102,132  L 101,132  L 101,133  L 95,133  L 95,134  L 88,134  L 88,135  L 77,135  L 77,136  L 70,136  L 70,137  L 67,137  L 67,136  L 66,136  L 66,137  L 62,137  L 62,138  L 54,138  L 54,139  L 47,139  L 47,140  L 46,140  L 46,139  L 45,139  L 45,140  L 42,140  L 42,139  L 40,139  L 40,137  L 39,137  L 39,124  L 40,124  L 40,122  L 39,122  Z  " style="fill:rgb(0, 0, 0); fill-opacity:1.000; stroke:none;" />
 <path d="  M 94,103  L 95,103  L 95,106  L 96,106  L 96,105  L 100,105  L 100,103  L 101,103  L 101,102  L 100,102  L 100,101  L 101,101  L 101,100  L 100,100  L 100,48  L 99,48  L 99,47  L 100,47  L 100,46  L 99,46  L 99,39  L 98,39  L 98,34  L 97,34  L 97,30  L 96,30  L 96,25  L 95,25  L 95,21  L 94,21  L 94,15  L 93,15  L 93,12  L 92,12  L 92,4  L 91,4  L 91,1  L 90,1  L 90,0  L 87,0  L 87,1  L 86,1  L 86,4  L 85,4  L 85,8  L 86,8  L 86,13  L 87,13  L 87,17  L 88,17  L 88,22  L 89,22  L 89,28  L 90,28  L 90,32  L 91,32  L 91,36  L 92,36  L 92,43  L 93,43  L 93,53  L 94,53  L 94,56  L 93,56  L 93,57  L 94,57  Z  " style="fill:rgb(0, 0, 0); fill-opacity:1.000; stroke:none;" />
 <path d="  M 88,61  L 88,60  L 87,60  L 87,61  Z  " style="fill:rgb(0, 0, 0); fill-opacity:1.000; stroke:none;" />
</svg>
