<?xml version="1.0" encoding="UTF-8" standalone="no"?>
<!DOCTYPE svg PUBLIC "-//W3C//DTD SVG 1.1//EN" 
  "http://www.w3.org/Graphics/SVG/1.1/DTD/svg11.dtd">
<svg width="104" height="142"
     xmlns="http://www.w3.org/2000/svg" version="1.1">
 <path d="  M 35,98  L 34,98  L 34,99  L 35,99  L 35,101  L 34,101  L 34,114  L 33,114  L 33,124  L 32,124  L 32,127  L 33,127  L 33,128  L 32,128  L 32,129  L 33,129  L 33,133  L 34,133  L 34,135  L 36,135  L 36,136  L 38,136  L 38,135  L 39,135  L 39,123  L 40,123  L 40,121  L 39,121  L 39,120  L 40,120  L 40,111  L 41,111  L 41,110  L 40,110  L 40,109  L 41,109  L 41,95  L 42,95  L 42,94  L 41,94  L 41,87  L 42,87  L 42,86  L 41,86  L 41,82  L 40,82  L 40,79  L 42,79  L 42,78  L 44,78  L 44,77  L 52,77  L 52,76  L 62,76  L 62,75  L 65,75  L 65,76  L 66,76  L 66,85  L 67,85  L 67,90  L 68,90  L 68,91  L 67,91  L 67,92  L 68,92  L 68,96  L 69,96  L 69,103  L 70,103  L 70,115  L 71,115  L 71,134  L 72,134  L 72,136  L 71,136  L 71,137  L 72,137  L 72,140  L 71,140  L 71,141  L 72,141  L 72,142  L 78,142  L 78,124  L 77,124  L 77,123  L 78,123  L 78,122  L 77,122  L 77,121  L 78,121  L 78,120  L 77,120  L 77,119  L 78,119  L 78,118  L 77,118  L 77,110  L 76,110  L 76,109  L 77,109  L 77,106  L 76,106  L 76,99  L 75,99  L 75,97  L 76,97  L 76,96  L 75,96  L 75,91  L 74,91  L 74,84  L 73,84  L 73,83  L 74,83  L 74,82  L 73,82  L 73,76  L 74,76  L 74,75  L 75,75  L 75,74  L 90,74  L 90,73  L 98,73  L 98,72  L 101,72  L 101,71  L 102,71  L 102,70  L 103,70  L 103,69  L 104,69  L 104,62  L 103,62  L 103,61  L 102,61  L 102,62  L 101,62  L 101,63  L 99,63  L 99,64  L 98,64  L 98,65  L 95,65  L 95,66  L 90,66  L 90,67  L 82,67  L 82,68  L 66,68  L 66,69  L 58,69  L 58,70  L 50,70  L 50,71  L 43,71  L 43,72  L 33,72  L 33,73  L 23,73  L 23,74  L 15,74  L 15,75  L 12,75  L 12,76  L 9,76  L 9,77  L 5,77  L 5,78  L 2,78  L 2,79  L 1,79  L 1,80  L 0,80  L 0,81  L 1,81  L 1,82  L 0,82  L 0,83  L 1,83  L 1,84  L 0,84  L 0,85  L 3,85  L 3,84  L 8,84  L 8,83  L 9,83  L 9,82  L 13,82  L 13,81  L 19,81  L 19,80  L 35,80  L 35,82  L 34,82  L 34,83  L 35,83  L 35,85  L 34,85  L 34,87  L 35,87  Z  " style="fill:rgb(0, 0, 0); fill-opacity:1.000; stroke:none;" />
 <path d="  M 24,4  L 24,5  L 18,5  L 18,6  L 16,6  L 16,7  L 15,7  L 15,8  L 14,8  L 14,9  L 13,9  L 13,10  L 14,10  L 14,11  L 15,11  L 15,12  L 18,12  L 18,11  L 19,11  L 19,12  L 20,12  L 20,11  L 30,11  L 30,10  L 31,10  L 31,11  L 32,11  L 32,53  L 31,53  L 31,54  L 26,54  L 26,53  L 24,53  L 24,54  L 18,54  L 18,55  L 15,55  L 15,56  L 10,56  L 10,57  L 9,57  L 9,58  L 8,58  L 8,61  L 10,61  L 10,62  L 16,62  L 16,61  L 19,61  L 19,60  L 23,60  L 23,59  L 31,59  L 31,58  L 32,58  L 32,59  L 34,59  L 34,58  L 51,58  L 51,57  L 58,57  L 58,56  L 71,56  L 71,55  L 72,55  L 72,56  L 73,56  L 73,55  L 86,55  L 86,54  L 95,54  L 95,51  L 94,51  L 94,49  L 92,49  L 92,48  L 86,48  L 86,49  L 74,49  L 74,50  L 69,50  L 69,37  L 68,37  L 68,36  L 69,36  L 69,34  L 68,34  L 68,10  L 67,10  L 67,9  L 68,9  L 68,8  L 71,8  L 71,7  L 74,7  L 74,8  L 76,8  L 76,7  L 77,7  L 77,8  L 79,8  L 79,7  L 80,7  L 80,8  L 81,8  L 81,7  L 83,7  L 83,2  L 82,2  L 82,1  L 68,1  L 68,2  L 67,2  L 67,1  L 66,1  L 66,2  L 58,2  L 58,3  L 51,3  L 51,4  L 49,4  L 49,3  L 47,3  L 47,4  L 40,4  L 40,3  L 39,3  L 39,4  L 33,4  L 33,3  L 32,3  L 32,4  Z  M 62,51  L 51,51  L 51,52  L 40,52  L 40,51  L 39,51  L 39,12  L 38,12  L 38,11  L 39,11  L 39,10  L 51,10  L 51,9  L 52,9  L 52,10  L 53,10  L 53,9  L 54,9  L 54,10  L 55,10  L 55,9  L 62,9  L 62,13  L 61,13  L 61,19  L 62,19  L 62,20  L 61,20  L 61,21  L 62,21  L 62,44  L 63,44  L 63,48  L 64,48  L 64,50  L 62,50  Z  " style="fill:rgb(0, 0, 0); fill-opacity:1.000; stroke:none;" />
</svg>
