<?xml version="1.0" encoding="UTF-8" standalone="no"?>
<!DOCTYPE svg PUBLIC "-//W3C//DTD SVG 1.1//EN" 
  "http://www.w3.org/Graphics/SVG/1.1/DTD/svg11.dtd">
<svg width="102" height="169"
     xmlns="http://www.w3.org/2000/svg" version="1.1">
 <path d="  M 35,92  L 35,94  L 36,94  L 36,96  L 35,96  L 35,98  L 36,98  L 36,108  L 37,108  L 37,110  L 36,110  L 36,111  L 34,111  L 34,112  L 28,112  L 28,113  L 25,113  L 25,114  L 24,114  L 24,115  L 22,115  L 22,117  L 21,117  L 21,118  L 22,118  L 22,119  L 26,119  L 26,120  L 27,120  L 27,119  L 33,119  L 33,118  L 34,118  L 34,119  L 37,119  L 37,118  L 38,118  L 38,119  L 45,119  L 45,118  L 46,118  L 46,119  L 48,119  L 48,118  L 51,118  L 51,119  L 52,119  L 52,118  L 58,118  L 58,117  L 59,117  L 59,118  L 60,118  L 60,117  L 62,117  L 62,116  L 64,116  L 64,117  L 69,117  L 69,118  L 70,118  L 70,120  L 69,120  L 69,122  L 68,122  L 68,123  L 67,123  L 67,124  L 68,124  L 68,125  L 67,125  L 67,127  L 66,127  L 66,128  L 65,128  L 65,129  L 64,129  L 64,131  L 63,131  L 63,132  L 62,132  L 62,133  L 58,133  L 58,134  L 57,134  L 57,135  L 53,135  L 53,136  L 45,136  L 45,137  L 23,137  L 23,138  L 22,138  L 22,139  L 21,139  L 21,141  L 20,141  L 20,145  L 19,145  L 19,154  L 20,154  L 20,157  L 21,157  L 21,158  L 20,158  L 20,159  L 21,159  L 21,162  L 22,162  L 22,164  L 23,164  L 23,165  L 24,165  L 24,166  L 25,166  L 25,167  L 28,167  L 28,168  L 31,168  L 31,169  L 62,169  L 62,168  L 67,168  L 67,167  L 71,167  L 71,166  L 76,166  L 76,165  L 79,165  L 79,164  L 83,164  L 83,163  L 85,163  L 85,162  L 88,162  L 88,161  L 90,161  L 90,160  L 93,160  L 93,159  L 94,159  L 94,158  L 96,158  L 96,157  L 98,157  L 98,156  L 99,156  L 99,153  L 98,153  L 98,152  L 97,152  L 97,151  L 96,151  L 96,152  L 95,152  L 95,153  L 93,153  L 93,154  L 88,154  L 88,155  L 83,155  L 83,156  L 80,156  L 80,157  L 75,157  L 75,158  L 72,158  L 72,159  L 68,159  L 68,160  L 67,160  L 67,159  L 66,159  L 66,160  L 65,160  L 65,161  L 57,161  L 57,162  L 39,162  L 39,161  L 38,161  L 38,162  L 36,162  L 36,161  L 32,161  L 32,160  L 30,160  L 30,159  L 28,159  L 28,158  L 27,158  L 27,157  L 26,157  L 26,156  L 25,156  L 25,148  L 26,148  L 26,146  L 28,146  L 28,145  L 29,145  L 29,144  L 32,144  L 32,145  L 55,145  L 55,144  L 60,144  L 60,143  L 62,143  L 62,142  L 64,142  L 64,141  L 65,141  L 65,140  L 67,140  L 67,139  L 68,139  L 68,138  L 69,138  L 69,136  L 70,136  L 70,135  L 69,135  L 69,134  L 70,134  L 70,132  L 71,132  L 71,129  L 72,129  L 72,128  L 74,128  L 74,127  L 76,127  L 76,126  L 77,126  L 77,124  L 78,124  L 78,123  L 79,123  L 79,118  L 78,118  L 78,117  L 77,117  L 77,116  L 76,116  L 76,114  L 74,114  L 74,112  L 73,112  L 73,109  L 72,109  L 72,101  L 71,101  L 71,100  L 72,100  L 72,70  L 83,70  L 83,69  L 84,69  L 84,70  L 87,70  L 87,69  L 90,69  L 90,70  L 91,70  L 91,69  L 97,69  L 97,68  L 101,68  L 101,67  L 102,67  L 102,62  L 100,62  L 100,61  L 98,61  L 98,60  L 96,60  L 96,59  L 95,59  L 95,60  L 93,60  L 93,61  L 91,61  L 91,62  L 88,62  L 88,63  L 87,63  L 87,62  L 86,62  L 86,63  L 78,63  L 78,64  L 62,64  L 62,65  L 61,65  L 61,64  L 58,64  L 58,65  L 56,65  L 56,64  L 55,64  L 55,65  L 45,65  L 45,66  L 44,66  L 44,65  L 41,65  L 41,66  L 40,66  L 40,65  L 39,65  L 39,66  L 22,66  L 22,67  L 21,67  L 21,66  L 20,66  L 20,67  L 19,67  L 19,66  L 18,66  L 18,67  L 15,67  L 15,68  L 9,68  L 9,69  L 5,69  L 5,70  L 3,70  L 3,71  L 2,71  L 2,72  L 1,72  L 1,73  L 0,73  L 0,77  L 1,77  L 1,78  L 5,78  L 5,77  L 8,77  L 8,76  L 11,76  L 11,75  L 17,75  L 17,74  L 19,74  L 19,75  L 20,75  L 20,74  L 36,74  L 36,85  L 35,85  L 35,86  L 36,86  L 36,92  Z  M 43,90  L 44,90  L 44,87  L 43,87  L 43,86  L 44,86  L 44,83  L 43,83  L 43,82  L 44,82  L 44,73  L 46,73  L 46,72  L 47,72  L 47,73  L 48,73  L 48,72  L 58,72  L 58,71  L 64,71  L 64,106  L 65,106  L 65,108  L 53,108  L 53,109  L 46,109  L 46,110  L 45,110  L 45,109  L 43,109  L 43,108  L 42,108  L 42,107  L 43,107  Z  " style="fill:rgb(0, 0, 0); fill-opacity:1.000; stroke:none;" />
 <path d="  M 41,52  L 41,51  L 57,51  L 57,50  L 58,50  L 58,51  L 60,51  L 60,50  L 64,50  L 64,49  L 65,49  L 65,50  L 67,50  L 67,51  L 68,51  L 68,50  L 69,50  L 69,51  L 77,51  L 77,50  L 80,50  L 80,51  L 81,51  L 81,50  L 82,50  L 82,51  L 86,51  L 86,50  L 87,50  L 87,48  L 88,48  L 88,47  L 87,47  L 87,46  L 86,46  L 86,45  L 85,45  L 85,44  L 70,44  L 70,45  L 69,45  L 69,44  L 68,44  L 68,14  L 69,14  L 69,10  L 75,10  L 75,9  L 77,9  L 77,8  L 78,8  L 78,7  L 79,7  L 79,6  L 81,6  L 81,4  L 80,4  L 80,2  L 78,2  L 78,1  L 73,1  L 73,0  L 71,0  L 71,1  L 66,1  L 66,2  L 52,2  L 52,3  L 43,3  L 43,2  L 42,2  L 42,3  L 41,3  L 41,2  L 38,2  L 38,3  L 37,3  L 37,2  L 36,2  L 36,3  L 28,3  L 28,4  L 23,4  L 23,5  L 17,5  L 17,6  L 16,6  L 16,5  L 15,5  L 15,6  L 14,6  L 14,7  L 13,7  L 13,9  L 12,9  L 12,11  L 11,11  L 11,14  L 12,14  L 12,16  L 17,16  L 17,15  L 20,15  L 20,14  L 21,14  L 21,13  L 24,13  L 24,12  L 27,12  L 27,11  L 30,11  L 30,12  L 31,12  L 31,13  L 30,13  L 30,30  L 31,30  L 31,31  L 30,31  L 30,35  L 31,35  L 31,36  L 30,36  L 30,38  L 31,38  L 31,39  L 30,39  L 30,43  L 31,43  L 31,44  L 30,44  L 30,45  L 27,45  L 27,44  L 22,44  L 22,45  L 17,45  L 17,46  L 12,46  L 12,47  L 10,47  L 10,48  L 8,48  L 8,52  L 9,52  L 9,53  L 10,53  L 10,54  L 13,54  L 13,53  L 21,53  L 21,54  L 22,54  L 22,53  L 24,53  L 24,54  L 26,54  L 26,53  L 32,53  L 32,52  Z  M 61,42  L 60,42  L 60,43  L 59,43  L 59,42  L 54,42  L 54,43  L 38,43  L 38,40  L 37,40  L 37,39  L 38,39  L 38,37  L 37,37  L 37,36  L 38,36  L 38,33  L 37,33  L 37,32  L 38,32  L 38,12  L 40,12  L 40,11  L 56,11  L 56,10  L 58,10  L 58,11  L 61,11  L 61,19  L 60,19  L 60,20  L 61,20  L 61,23  L 60,23  L 60,24  L 61,24  L 61,27  L 60,27  L 60,28  L 61,28  Z  " style="fill:rgb(0, 0, 0); fill-opacity:1.000; stroke:none;" />
</svg>
