<?xml version="1.0" encoding="UTF-8" standalone="no"?>
<!DOCTYPE svg PUBLIC "-//W3C//DTD SVG 1.1//EN" 
  "http://www.w3.org/Graphics/SVG/1.1/DTD/svg11.dtd">
<svg width="99" height="140"
     xmlns="http://www.w3.org/2000/svg" version="1.1">
 <path d="  M 30,62  L 30,63  L 21,63  L 21,64  L 14,64  L 14,65  L 12,65  L 12,66  L 8,66  L 8,67  L 7,67  L 7,66  L 6,66  L 6,67  L 2,67  L 2,69  L 1,69  L 1,70  L 0,70  L 0,71  L 1,71  L 1,72  L 2,72  L 2,73  L 3,73  L 3,74  L 4,74  L 4,73  L 11,73  L 11,72  L 15,72  L 15,71  L 21,71  L 21,70  L 30,70  L 30,69  L 39,69  L 39,68  L 53,68  L 53,67  L 61,67  L 61,66  L 75,66  L 75,65  L 76,65  L 76,66  L 77,66  L 77,65  L 87,65  L 87,64  L 98,64  L 98,63  L 99,63  L 99,57  L 92,57  L 92,58  L 85,58  L 85,59  L 74,59  L 74,60  L 73,60  L 73,59  L 72,59  L 72,60  L 58,60  L 58,61  L 47,61  L 47,62  Z  " style="fill:rgb(0, 0, 0); fill-opacity:1.000; stroke:none;" />
 <path d="  M 68,20  L 67,20  L 67,19  L 68,19  L 68,18  L 67,18  L 67,17  L 68,17  L 68,16  L 67,16  L 67,15  L 68,15  L 68,14  L 67,14  L 67,13  L 68,13  L 68,12  L 67,12  L 67,7  L 68,7  L 68,6  L 70,6  L 70,5  L 75,5  L 75,2  L 74,2  L 74,1  L 63,1  L 63,2  L 24,2  L 24,3  L 17,3  L 17,4  L 15,4  L 15,5  L 13,5  L 13,10  L 14,10  L 14,11  L 15,11  L 15,10  L 16,10  L 16,11  L 17,11  L 17,10  L 21,10  L 21,9  L 22,9  L 22,10  L 25,10  L 25,9  L 31,9  L 31,10  L 32,10  L 32,43  L 22,43  L 22,44  L 21,44  L 21,43  L 20,43  L 20,44  L 16,44  L 16,45  L 13,45  L 13,46  L 10,46  L 10,47  L 9,47  L 9,51  L 10,51  L 10,52  L 16,52  L 16,51  L 18,51  L 18,50  L 27,50  L 27,49  L 46,49  L 46,48  L 47,48  L 47,49  L 48,49  L 48,48  L 49,48  L 49,49  L 50,49  L 50,48  L 53,48  L 53,49  L 54,49  L 54,48  L 73,48  L 73,47  L 79,47  L 79,46  L 82,46  L 82,47  L 83,47  L 83,46  L 84,46  L 84,47  L 89,47  L 89,46  L 91,46  L 91,45  L 90,45  L 90,42  L 89,42  L 89,41  L 88,41  L 88,40  L 87,40  L 87,39  L 86,39  L 86,40  L 85,40  L 85,39  L 84,39  L 84,40  L 83,40  L 83,39  L 82,39  L 82,40  L 81,40  L 81,39  L 80,39  L 80,40  L 79,40  L 79,39  L 78,39  L 78,40  L 73,40  L 73,41  L 71,41  L 71,42  L 70,42  L 70,41  L 69,41  L 69,40  L 68,40  Z  M 61,25  L 62,25  L 62,26  L 61,26  L 61,27  L 62,27  L 62,28  L 61,28  L 61,29  L 62,29  L 62,32  L 61,32  L 61,34  L 62,34  L 62,36  L 61,36  L 61,37  L 62,37  L 62,41  L 61,41  L 61,42  L 39,42  L 39,30  L 38,30  L 38,29  L 39,29  L 39,28  L 38,28  L 38,27  L 39,27  L 39,26  L 38,26  L 38,25  L 39,25  L 39,22  L 38,22  L 38,20  L 39,20  L 39,18  L 38,18  L 38,17  L 39,17  L 39,14  L 38,14  L 38,9  L 39,9  L 39,8  L 61,8  Z  " style="fill:rgb(0, 0, 0); fill-opacity:1.000; stroke:none;" />
 <path d="  M 24,119  L 23,119  L 23,120  L 24,120  L 24,123  L 23,123  L 23,125  L 24,125  L 24,127  L 23,127  L 23,128  L 24,128  L 24,137  L 25,137  L 25,138  L 26,138  L 26,139  L 27,139  L 27,140  L 36,140  L 36,139  L 37,139  L 37,140  L 48,140  L 48,139  L 51,139  L 51,138  L 56,138  L 56,137  L 60,137  L 60,136  L 61,136  L 61,137  L 62,137  L 62,136  L 66,136  L 66,135  L 70,135  L 70,134  L 72,134  L 72,133  L 75,133  L 75,132  L 77,132  L 77,131  L 79,131  L 79,130  L 80,130  L 80,129  L 81,129  L 81,126  L 82,126  L 82,122  L 83,122  L 83,117  L 84,117  L 84,113  L 85,113  L 85,112  L 84,112  L 84,111  L 85,111  L 85,103  L 86,103  L 86,102  L 85,102  L 85,101  L 86,101  L 86,89  L 85,89  L 85,88  L 83,88  L 83,87  L 81,87  L 81,86  L 79,86  L 79,85  L 62,85  L 62,86  L 50,86  L 50,87  L 41,87  L 41,88  L 31,88  L 31,87  L 29,87  L 29,88  L 28,88  L 28,87  L 26,87  L 26,88  L 22,88  L 22,89  L 19,89  L 19,90  L 17,90  L 17,91  L 14,91  L 14,92  L 13,92  L 13,95  L 14,95  L 14,96  L 15,96  L 15,97  L 16,97  L 16,98  L 17,98  L 17,99  L 18,99  L 18,98  L 24,98  L 24,115  L 23,115  L 23,116  L 24,116  Z  M 79,104  L 78,104  L 78,105  L 79,105  L 79,108  L 78,108  L 78,116  L 77,116  L 77,119  L 76,119  L 76,124  L 75,124  L 75,126  L 74,126  L 74,127  L 72,127  L 72,128  L 69,128  L 69,129  L 64,129  L 64,130  L 61,130  L 61,131  L 57,131  L 57,132  L 52,132  L 52,133  L 50,133  L 50,134  L 45,134  L 45,135  L 37,135  L 37,136  L 34,136  L 34,135  L 32,135  L 32,132  L 31,132  L 31,96  L 33,96  L 33,95  L 39,95  L 39,94  L 49,94  L 49,93  L 55,93  L 55,92  L 56,92  L 56,93  L 57,93  L 57,92  L 70,92  L 70,91  L 77,91  L 77,92  L 79,92  L 79,95  L 80,95  L 80,96  L 79,96  Z  " style="fill:rgb(0, 0, 0); fill-opacity:1.000; stroke:none;" />
</svg>
