<?xml version="1.0" encoding="UTF-8" standalone="no"?>
<!DOCTYPE svg PUBLIC "-//W3C//DTD SVG 1.1//EN" 
  "http://www.w3.org/Graphics/SVG/1.1/DTD/svg11.dtd">
<svg width="108" height="145"
     xmlns="http://www.w3.org/2000/svg" version="1.1">
 <path d="  M 54,51  L 53,51  L 53,49  L 54,49  L 54,48  L 53,48  L 53,20  L 54,20  L 54,18  L 53,18  L 53,16  L 54,16  L 54,15  L 58,15  L 58,16  L 72,16  L 72,11  L 71,11  L 71,10  L 70,10  L 70,9  L 69,9  L 69,8  L 46,8  L 46,7  L 43,7  L 43,8  L 42,8  L 42,7  L 39,7  L 39,8  L 38,8  L 38,7  L 35,7  L 35,8  L 34,8  L 34,7  L 23,7  L 23,8  L 22,8  L 22,7  L 19,7  L 19,8  L 17,8  L 17,7  L 16,7  L 16,8  L 11,8  L 11,9  L 9,9  L 9,11  L 8,11  L 8,14  L 7,14  L 7,15  L 8,15  L 8,16  L 9,16  L 9,17  L 11,17  L 11,16  L 12,16  L 12,15  L 14,15  L 14,17  L 15,17  L 15,16  L 16,16  L 16,15  L 22,15  L 22,28  L 21,28  L 21,29  L 22,29  L 22,32  L 21,32  L 21,33  L 22,33  L 22,35  L 21,35  L 21,37  L 22,37  L 22,39  L 21,39  L 21,41  L 22,41  L 22,43  L 21,43  L 21,45  L 22,45  L 22,48  L 21,48  L 21,49  L 22,49  L 22,57  L 23,57  L 23,60  L 22,60  L 22,61  L 21,61  L 21,62  L 18,62  L 18,61  L 16,61  L 16,62  L 7,62  L 7,63  L 2,63  L 2,64  L 1,64  L 1,65  L 0,65  L 0,67  L 1,67  L 1,68  L 2,68  L 2,70  L 3,70  L 3,69  L 5,69  L 5,70  L 8,70  L 8,69  L 9,69  L 9,70  L 11,70  L 11,69  L 13,69  L 13,70  L 19,70  L 19,69  L 22,69  L 22,70  L 23,70  L 23,69  L 26,69  L 26,70  L 27,70  L 27,69  L 30,69  L 30,70  L 42,70  L 42,69  L 55,69  L 55,68  L 63,68  L 63,67  L 68,67  L 68,66  L 73,66  L 73,65  L 80,65  L 80,64  L 83,64  L 83,63  L 85,63  L 85,62  L 87,62  L 87,61  L 88,61  L 88,59  L 87,59  L 87,58  L 82,58  L 82,59  L 70,59  L 70,60  L 55,60  L 55,58  L 54,58  Z  M 46,15  L 46,59  L 47,59  L 47,61  L 45,61  L 45,62  L 31,62  L 31,61  L 30,61  L 30,54  L 29,54  L 29,16  L 30,16  L 30,15  Z  " style="fill:rgb(0, 0, 0); fill-opacity:1.000; stroke:none;" />
 <path d="  M 70,136  L 69,136  L 69,137  L 65,137  L 65,138  L 64,138  L 64,137  L 63,137  L 63,138  L 51,138  L 51,139  L 48,139  L 48,138  L 47,138  L 47,139  L 46,139  L 46,138  L 44,138  L 44,136  L 43,136  L 43,123  L 42,123  L 42,112  L 43,112  L 43,111  L 42,111  L 42,108  L 43,108  L 43,106  L 42,106  L 42,105  L 43,105  L 43,102  L 42,102  L 42,101  L 43,101  L 43,100  L 42,100  L 42,99  L 43,99  L 43,98  L 42,98  L 42,97  L 43,97  L 43,91  L 38,91  L 38,92  L 37,92  L 37,94  L 36,94  L 36,134  L 37,134  L 37,135  L 36,135  L 36,136  L 37,136  L 37,139  L 38,139  L 38,141  L 39,141  L 39,143  L 40,143  L 40,144  L 42,144  L 42,145  L 66,145  L 66,144  L 67,144  L 67,145  L 69,145  L 69,144  L 76,144  L 76,143  L 84,143  L 84,142  L 94,142  L 94,141  L 102,141  L 102,140  L 103,140  L 103,141  L 105,141  L 105,140  L 106,140  L 106,139  L 108,139  L 108,133  L 107,133  L 107,132  L 105,132  L 105,133  L 99,133  L 99,134  L 90,134  L 90,135  L 80,135  L 80,136  L 72,136  L 72,137  L 70,137  Z  " style="fill:rgb(0, 0, 0); fill-opacity:1.000; stroke:none;" />
 <path d="  M 103,60  L 103,58  L 104,58  L 104,56  L 103,56  L 103,54  L 104,54  L 104,52  L 103,52  L 103,50  L 104,50  L 104,48  L 103,48  L 103,45  L 104,45  L 104,44  L 103,44  L 103,41  L 104,41  L 104,40  L 103,40  L 103,29  L 102,29  L 102,27  L 103,27  L 103,26  L 102,26  L 102,11  L 101,11  L 101,10  L 102,10  L 102,9  L 101,9  L 101,2  L 100,2  L 100,1  L 99,1  L 99,0  L 95,0  L 95,2  L 94,2  L 94,8  L 95,8  L 95,25  L 96,25  L 96,26  L 95,26  L 95,27  L 96,27  L 96,30  L 95,30  L 95,31  L 96,31  L 96,45  L 97,45  L 97,47  L 96,47  L 96,49  L 97,49  L 97,68  L 96,68  L 96,81  L 97,81  L 97,83  L 102,83  L 102,82  L 103,82  L 103,77  L 104,77  L 104,76  L 103,76  L 103,73  L 104,73  L 104,72  L 103,72  L 103,69  L 104,69  L 104,68  L 103,68  L 103,65  L 104,65  L 104,64  L 103,64  L 103,61  L 104,61  L 104,60  Z  " style="fill:rgb(0, 0, 0); fill-opacity:1.000; stroke:none;" />
</svg>
