<?xml version="1.0" encoding="UTF-8" standalone="no"?>
<!DOCTYPE svg PUBLIC "-//W3C//DTD SVG 1.1//EN" 
  "http://www.w3.org/Graphics/SVG/1.1/DTD/svg11.dtd">
<svg width="105" height="161"
     xmlns="http://www.w3.org/2000/svg" version="1.1">
 <path d="  M 40,15  L 40,16  L 39,16  L 39,15  L 38,15  L 38,16  L 36,16  L 36,15  L 30,15  L 30,16  L 29,16  L 29,15  L 24,15  L 24,16  L 23,16  L 23,15  L 20,15  L 20,16  L 10,16  L 10,17  L 8,17  L 8,21  L 9,21  L 9,22  L 11,22  L 11,23  L 12,23  L 12,22  L 21,22  L 21,23  L 22,23  L 22,62  L 23,62  L 23,71  L 24,71  L 24,72  L 23,72  L 23,74  L 19,74  L 19,73  L 14,73  L 14,74  L 10,74  L 10,75  L 6,75  L 6,76  L 1,76  L 1,77  L 0,77  L 0,78  L 1,78  L 1,81  L 4,81  L 4,82  L 11,82  L 11,81  L 12,81  L 12,82  L 13,82  L 13,81  L 29,81  L 29,82  L 30,82  L 30,81  L 33,81  L 33,82  L 34,82  L 34,81  L 36,81  L 36,82  L 38,82  L 38,81  L 41,81  L 41,82  L 42,82  L 42,81  L 59,81  L 59,80  L 62,80  L 62,81  L 63,81  L 63,80  L 79,80  L 79,79  L 82,79  L 82,74  L 80,74  L 80,73  L 73,73  L 73,74  L 72,74  L 72,73  L 58,73  L 58,72  L 57,72  L 57,67  L 56,67  L 56,66  L 57,66  L 57,65  L 56,65  L 56,64  L 57,64  L 57,63  L 56,63  L 56,39  L 55,39  L 55,36  L 56,36  L 56,35  L 55,35  L 55,24  L 54,24  L 54,22  L 55,22  L 55,21  L 57,21  L 57,22  L 71,22  L 71,21  L 73,21  L 73,20  L 74,20  L 74,17  L 73,17  L 73,16  L 72,16  L 72,15  L 69,15  L 69,14  L 68,14  L 68,15  Z  M 49,63  L 50,63  L 50,64  L 49,64  L 49,71  L 50,71  L 50,72  L 49,72  L 49,73  L 40,73  L 40,74  L 39,74  L 39,73  L 38,73  L 38,74  L 37,74  L 37,73  L 31,73  L 31,67  L 30,67  L 30,57  L 29,57  L 29,56  L 30,56  L 30,55  L 29,55  L 29,54  L 30,54  L 30,53  L 29,53  L 29,22  L 44,22  L 44,21  L 45,21  L 45,22  L 46,22  L 46,21  L 47,21  L 47,22  L 48,22  L 48,37  L 49,37  L 49,39  L 48,39  L 48,40  L 49,40  L 49,43  L 48,43  L 48,44  L 49,44  Z  " style="fill:rgb(0, 0, 0); fill-opacity:1.000; stroke:none;" />
 <path d="  M 94,126  L 95,126  L 95,103  L 94,103  L 94,101  L 93,101  L 93,100  L 90,100  L 90,101  L 88,101  L 88,106  L 89,106  L 89,107  L 88,107  L 88,109  L 89,109  L 89,111  L 88,111  L 88,112  L 89,112  L 89,114  L 88,114  L 88,116  L 89,116  L 89,118  L 88,118  L 88,120  L 89,120  L 89,121  L 88,121  L 88,123  L 76,123  L 76,124  L 75,124  L 75,123  L 72,123  L 72,124  L 71,124  L 71,123  L 68,123  L 68,124  L 67,124  L 67,123  L 64,123  L 64,124  L 63,124  L 63,123  L 60,123  L 60,124  L 59,124  L 59,123  L 56,123  L 56,124  L 55,124  L 55,123  L 46,123  L 46,121  L 47,121  L 47,106  L 48,106  L 48,103  L 47,103  L 47,102  L 48,102  L 48,96  L 47,96  L 47,95  L 43,95  L 43,96  L 42,96  L 42,97  L 41,97  L 41,99  L 40,99  L 40,108  L 39,108  L 39,110  L 40,110  L 40,111  L 39,111  L 39,114  L 40,114  L 40,115  L 39,115  L 39,128  L 40,128  L 40,134  L 41,134  L 41,144  L 42,144  L 42,151  L 43,151  L 43,155  L 44,155  L 44,157  L 45,157  L 45,158  L 46,158  L 46,159  L 48,159  L 48,160  L 49,160  L 49,161  L 67,161  L 67,160  L 73,160  L 73,159  L 75,159  L 75,158  L 77,158  L 77,157  L 79,157  L 79,156  L 82,156  L 82,155  L 84,155  L 84,154  L 86,154  L 86,153  L 88,153  L 88,152  L 89,152  L 89,151  L 90,151  L 90,150  L 91,150  L 91,147  L 92,147  L 92,138  L 93,138  L 93,137  L 92,137  L 92,135  L 93,135  L 93,130  L 94,130  Z  M 52,155  L 52,154  L 51,154  L 51,153  L 50,153  L 50,151  L 49,151  L 49,145  L 48,145  L 48,139  L 47,139  L 47,132  L 48,132  L 48,131  L 52,131  L 52,130  L 53,130  L 53,131  L 55,131  L 55,130  L 60,130  L 60,131  L 61,131  L 61,130  L 80,130  L 80,131  L 81,131  L 81,130  L 84,130  L 84,131  L 85,131  L 85,132  L 86,132  L 86,141  L 85,141  L 85,145  L 84,145  L 84,147  L 83,147  L 83,148  L 82,148  L 82,149  L 80,149  L 80,150  L 77,150  L 77,151  L 75,151  L 75,152  L 71,152  L 71,153  L 68,153  L 68,154  L 67,154  L 67,153  L 66,153  L 66,154  L 63,154  L 63,155  Z  " style="fill:rgb(0, 0, 0); fill-opacity:1.000; stroke:none;" />
 <path d="  M 105,17  L 104,17  L 104,10  L 103,10  L 103,4  L 102,4  L 102,2  L 101,2  L 101,1  L 96,1  L 96,7  L 97,7  L 97,15  L 98,15  L 98,17  L 97,17  L 97,18  L 98,18  L 98,27  L 99,27  L 99,91  L 100,91  L 100,92  L 104,92  L 104,91  L 105,91  Z  " style="fill:rgb(0, 0, 0); fill-opacity:1.000; stroke:none;" />
</svg>
