<?xml version="1.0" encoding="UTF-8" standalone="no"?>
<!DOCTYPE svg PUBLIC "-//W3C//DTD SVG 1.1//EN" 
  "http://www.w3.org/Graphics/SVG/1.1/DTD/svg11.dtd">
<svg width="107" height="154"
     xmlns="http://www.w3.org/2000/svg" version="1.1">
 <path d="  M 66,75  L 66,74  L 69,74  L 69,75  L 70,75  L 70,74  L 73,74  L 73,75  L 74,75  L 74,74  L 78,74  L 78,72  L 79,72  L 79,71  L 80,71  L 80,67  L 78,67  L 78,66  L 74,66  L 74,67  L 72,67  L 72,66  L 71,66  L 71,67  L 67,67  L 67,66  L 66,66  L 66,67  L 63,67  L 63,66  L 62,66  L 62,67  L 55,67  L 55,65  L 54,65  L 54,59  L 53,59  L 53,57  L 54,57  L 54,56  L 53,56  L 53,21  L 68,21  L 68,22  L 69,22  L 69,21  L 71,21  L 71,19  L 72,19  L 72,16  L 71,16  L 71,14  L 69,14  L 69,13  L 63,13  L 63,14  L 18,14  L 18,15  L 9,15  L 9,16  L 8,16  L 8,18  L 7,18  L 7,20  L 8,20  L 8,21  L 10,21  L 10,22  L 11,22  L 11,21  L 12,21  L 12,22  L 13,22  L 13,21  L 18,21  L 18,20  L 19,20  L 19,21  L 21,21  L 21,25  L 20,25  L 20,27  L 21,27  L 21,30  L 20,30  L 20,31  L 21,31  L 21,34  L 20,34  L 20,35  L 21,35  L 21,41  L 20,41  L 20,43  L 21,43  L 21,60  L 22,60  L 22,61  L 21,61  L 21,62  L 22,62  L 22,70  L 21,70  L 21,71  L 17,71  L 17,70  L 16,70  L 16,71  L 15,71  L 15,70  L 14,70  L 14,71  L 8,71  L 8,72  L 4,72  L 4,73  L 1,73  L 1,76  L 0,76  L 0,77  L 1,77  L 1,78  L 2,78  L 2,77  L 3,77  L 3,78  L 10,78  L 10,77  L 11,77  L 11,78  L 13,78  L 13,77  L 21,77  L 21,76  L 22,76  L 22,77  L 23,77  L 23,76  L 24,76  L 24,77  L 27,77  L 27,76  L 28,76  L 28,77  L 29,77  L 29,76  L 30,76  L 30,77  L 31,77  L 31,76  L 32,76  L 32,77  L 33,77  L 33,76  L 47,76  L 47,75  L 48,75  L 48,76  L 50,76  L 50,75  L 64,75  L 64,74  L 65,74  L 65,75  Z  M 28,32  L 27,32  L 27,31  L 28,31  L 28,21  L 29,21  L 29,20  L 30,20  L 30,21  L 46,21  L 46,64  L 47,64  L 47,67  L 46,67  L 46,68  L 45,68  L 45,69  L 30,69  L 30,67  L 29,67  L 29,58  L 28,58  Z  " style="fill:rgb(0, 0, 0); fill-opacity:1.000; stroke:none;" />
 <path d="  M 6,21  L 7,21  L 7,20  L 6,20  Z  " style="fill:rgb(0, 0, 0); fill-opacity:1.000; stroke:none;" />
 <path d="  M 70,147  L 69,147  L 69,148  L 59,148  L 59,147  L 52,147  L 52,146  L 49,146  L 49,145  L 47,145  L 47,144  L 46,144  L 46,143  L 45,143  L 45,131  L 46,131  L 46,128  L 47,128  L 47,125  L 48,125  L 48,124  L 49,124  L 49,122  L 50,122  L 50,121  L 51,121  L 51,118  L 52,118  L 52,117  L 54,117  L 54,115  L 55,115  L 55,114  L 56,114  L 56,113  L 58,113  L 58,112  L 59,112  L 59,111  L 61,111  L 61,110  L 62,110  L 62,109  L 63,109  L 63,108  L 66,108  L 66,107  L 70,107  L 70,106  L 73,106  L 73,107  L 74,107  L 74,106  L 77,106  L 77,107  L 78,107  L 78,106  L 90,106  L 90,107  L 94,107  L 94,108  L 96,108  L 96,109  L 97,109  L 97,110  L 98,110  L 98,111  L 99,111  L 99,115  L 100,115  L 100,130  L 99,130  L 99,134  L 98,134  L 98,135  L 97,135  L 97,137  L 96,137  L 96,138  L 95,138  L 95,139  L 93,139  L 93,140  L 91,140  L 91,141  L 89,141  L 89,142  L 86,142  L 86,143  L 83,143  L 83,144  L 80,144  L 80,145  L 78,145  L 78,146  L 74,146  L 74,147  L 71,147  L 71,148  L 70,148  Z  M 55,105  L 53,105  L 53,106  L 52,106  L 52,107  L 51,107  L 51,108  L 50,108  L 50,109  L 49,109  L 49,110  L 48,110  L 48,111  L 47,111  L 47,112  L 46,112  L 46,113  L 45,113  L 45,115  L 44,115  L 44,116  L 43,116  L 43,117  L 42,117  L 42,119  L 41,119  L 41,121  L 40,121  L 40,124  L 39,124  L 39,126  L 38,126  L 38,129  L 37,129  L 37,146  L 38,146  L 38,147  L 39,147  L 39,148  L 40,148  L 40,149  L 41,149  L 41,150  L 43,150  L 43,152  L 44,152  L 44,151  L 45,151  L 45,152  L 48,152  L 48,153  L 52,153  L 52,154  L 75,154  L 75,153  L 78,153  L 78,152  L 80,152  L 80,151  L 82,151  L 82,150  L 86,150  L 86,149  L 89,149  L 89,148  L 91,148  L 91,147  L 93,147  L 93,146  L 95,146  L 95,145  L 98,145  L 98,144  L 100,144  L 100,143  L 101,143  L 101,142  L 102,142  L 102,141  L 103,141  L 103,140  L 104,140  L 104,139  L 105,139  L 105,137  L 106,137  L 106,132  L 107,132  L 107,112  L 106,112  L 106,108  L 105,108  L 105,106  L 104,106  L 104,104  L 103,104  L 103,103  L 102,103  L 102,102  L 100,102  L 100,101  L 98,101  L 98,100  L 96,100  L 96,99  L 95,99  L 95,98  L 73,98  L 73,97  L 68,97  L 68,96  L 65,96  L 65,97  L 64,97  L 64,98  L 62,98  L 62,100  L 60,100  L 60,101  L 59,101  L 59,102  L 58,102  L 58,103  L 56,103  L 56,104  L 55,104  Z  " style="fill:rgb(0, 0, 0); fill-opacity:1.000; stroke:none;" />
 <path d="  M 94,19  L 94,24  L 95,24  L 95,29  L 96,29  L 96,39  L 97,39  L 97,40  L 96,40  L 96,41  L 97,41  L 97,51  L 98,51  L 98,53  L 97,53  L 97,55  L 98,55  L 98,58  L 97,58  L 97,59  L 98,59  L 98,81  L 99,81  L 99,82  L 98,82  L 98,84  L 99,84  L 99,89  L 100,89  L 100,90  L 101,90  L 101,91  L 105,91  L 105,62  L 104,62  L 104,61  L 105,61  L 105,58  L 104,58  L 104,56  L 105,56  L 105,54  L 104,54  L 104,38  L 103,38  L 103,37  L 104,37  L 104,36  L 103,36  L 103,31  L 102,31  L 102,24  L 101,24  L 101,18  L 100,18  L 100,12  L 99,12  L 99,4  L 98,4  L 98,2  L 97,2  L 97,1  L 95,1  L 95,0  L 94,0  L 94,1  L 92,1  L 92,2  L 91,2  L 91,5  L 92,5  L 92,13  L 93,13  L 93,19  Z  " style="fill:rgb(0, 0, 0); fill-opacity:1.000; stroke:none;" />
</svg>
