<?xml version="1.0" encoding="UTF-8" standalone="no"?>
<!DOCTYPE svg PUBLIC "-//W3C//DTD SVG 1.1//EN" 
  "http://www.w3.org/Graphics/SVG/1.1/DTD/svg11.dtd">
<svg width="106" height="144"
     xmlns="http://www.w3.org/2000/svg" version="1.1">
 <path d="  M 26,2  L 26,5  L 25,5  L 25,23  L 26,23  L 26,27  L 27,27  L 27,28  L 28,28  L 28,30  L 24,30  L 24,31  L 22,31  L 22,30  L 21,30  L 21,31  L 18,31  L 18,30  L 17,30  L 17,31  L 11,31  L 11,32  L 7,32  L 7,33  L 6,33  L 6,32  L 5,32  L 5,33  L 2,33  L 2,32  L 1,32  L 1,33  L 0,33  L 0,37  L 1,37  L 1,38  L 2,38  L 2,39  L 7,39  L 7,38  L 8,38  L 8,39  L 9,39  L 9,38  L 10,38  L 10,39  L 11,39  L 11,38  L 12,38  L 12,39  L 13,39  L 13,38  L 16,38  L 16,37  L 23,37  L 23,36  L 29,36  L 29,35  L 41,35  L 41,34  L 44,34  L 44,35  L 45,35  L 45,34  L 48,34  L 48,35  L 49,35  L 49,34  L 50,34  L 50,33  L 53,33  L 53,32  L 54,32  L 54,27  L 50,27  L 50,26  L 47,26  L 47,27  L 46,27  L 46,26  L 45,26  L 45,27  L 42,27  L 42,26  L 40,26  L 40,27  L 33,27  L 33,26  L 32,26  L 32,25  L 33,25  L 33,23  L 32,23  L 32,1  L 31,1  L 31,0  L 29,0  L 29,1  L 28,1  L 28,2  Z  " style="fill:rgb(0, 0, 0); fill-opacity:1.000; stroke:none;" />
 <path d="  M 23,46  L 23,47  L 22,47  L 22,48  L 21,48  L 21,49  L 20,49  L 20,51  L 19,51  L 19,52  L 18,52  L 18,53  L 17,53  L 17,56  L 16,56  L 16,57  L 15,57  L 15,61  L 14,61  L 14,63  L 13,63  L 13,68  L 12,68  L 12,78  L 13,78  L 13,79  L 14,79  L 14,81  L 15,81  L 15,82  L 16,82  L 16,83  L 18,83  L 18,84  L 19,84  L 19,85  L 22,85  L 22,86  L 24,86  L 24,87  L 33,87  L 33,86  L 37,86  L 37,85  L 40,85  L 40,84  L 41,84  L 41,83  L 42,83  L 42,82  L 44,82  L 44,81  L 46,81  L 46,80  L 47,80  L 47,79  L 48,79  L 48,78  L 49,78  L 49,77  L 50,77  L 50,76  L 51,76  L 51,75  L 52,75  L 52,73  L 53,73  L 53,70  L 54,70  L 54,66  L 55,66  L 55,63  L 54,63  L 54,58  L 53,58  L 53,57  L 52,57  L 52,56  L 51,56  L 51,55  L 50,55  L 50,54  L 49,54  L 49,53  L 47,53  L 47,52  L 46,52  L 46,51  L 43,51  L 43,50  L 41,50  L 41,49  L 38,49  L 38,48  L 35,48  L 35,47  L 34,47  L 34,46  L 29,46  L 29,45  L 25,45  L 25,46  Z  M 43,75  L 42,75  L 42,76  L 40,76  L 40,77  L 39,77  L 39,78  L 36,78  L 36,79  L 30,79  L 30,80  L 26,80  L 26,79  L 23,79  L 23,78  L 21,78  L 21,77  L 19,77  L 19,76  L 18,76  L 18,67  L 19,67  L 19,64  L 20,64  L 20,61  L 21,61  L 21,60  L 22,60  L 22,58  L 23,58  L 23,57  L 24,57  L 24,56  L 25,56  L 25,55  L 26,55  L 26,53  L 33,53  L 33,54  L 35,54  L 35,55  L 39,55  L 39,56  L 43,56  L 43,57  L 44,57  L 44,58  L 46,58  L 46,59  L 47,59  L 47,60  L 48,60  L 48,65  L 47,65  L 47,70  L 46,70  L 46,72  L 45,72  L 45,73  L 44,73  L 44,74  L 43,74  Z  " style="fill:rgb(0, 0, 0); fill-opacity:1.000; stroke:none;" />
 <path d="  M 62,93  L 60,93  L 60,92  L 59,92  L 59,93  L 57,93  L 57,94  L 55,94  L 55,95  L 54,95  L 54,97  L 53,97  L 53,98  L 52,98  L 52,99  L 51,99  L 51,101  L 50,101  L 50,102  L 49,102  L 49,104  L 48,104  L 48,106  L 47,106  L 47,107  L 46,107  L 46,109  L 45,109  L 45,110  L 44,110  L 44,112  L 43,112  L 43,114  L 42,114  L 42,115  L 41,115  L 41,116  L 40,116  L 40,118  L 39,118  L 39,120  L 38,120  L 38,121  L 37,121  L 37,122  L 36,122  L 36,124  L 35,124  L 35,127  L 33,127  L 33,128  L 32,128  L 32,129  L 31,129  L 31,131  L 30,131  L 30,132  L 29,132  L 29,133  L 28,133  L 28,134  L 27,134  L 27,135  L 26,135  L 26,136  L 24,136  L 24,137  L 23,137  L 23,139  L 22,139  L 22,141  L 21,141  L 21,143  L 22,143  L 22,144  L 27,144  L 27,143  L 28,143  L 28,142  L 29,142  L 29,141  L 30,141  L 30,140  L 31,140  L 31,139  L 32,139  L 32,138  L 33,138  L 33,137  L 34,137  L 34,136  L 35,136  L 35,135  L 36,135  L 36,134  L 37,134  L 37,133  L 38,133  L 38,131  L 39,131  L 39,130  L 40,130  L 40,129  L 41,129  L 41,128  L 42,128  L 42,126  L 43,126  L 43,124  L 44,124  L 44,123  L 45,123  L 45,122  L 46,122  L 46,120  L 47,120  L 47,119  L 48,119  L 48,116  L 49,116  L 49,115  L 50,115  L 50,113  L 52,113  L 52,114  L 53,114  L 53,115  L 54,115  L 54,116  L 55,116  L 55,118  L 57,118  L 57,119  L 59,119  L 59,120  L 60,120  L 60,121  L 62,121  L 62,122  L 64,122  L 64,123  L 65,123  L 65,124  L 67,124  L 67,125  L 68,125  L 68,126  L 71,126  L 71,127  L 73,127  L 73,128  L 74,128  L 74,129  L 75,129  L 75,130  L 77,130  L 77,131  L 78,131  L 78,132  L 79,132  L 79,131  L 80,131  L 80,132  L 81,132  L 81,133  L 83,133  L 83,134  L 86,134  L 86,135  L 88,135  L 88,136  L 89,136  L 89,137  L 91,137  L 91,138  L 97,138  L 97,137  L 99,137  L 99,136  L 100,136  L 100,134  L 99,134  L 99,133  L 98,133  L 98,132  L 96,132  L 96,131  L 94,131  L 94,130  L 93,130  L 93,129  L 91,129  L 91,128  L 89,128  L 89,127  L 86,127  L 86,126  L 83,126  L 83,125  L 82,125  L 82,124  L 80,124  L 80,123  L 78,123  L 78,122  L 76,122  L 76,121  L 74,121  L 74,120  L 73,120  L 73,119  L 70,119  L 70,118  L 69,118  L 69,117  L 68,117  L 68,116  L 65,116  L 65,115  L 64,115  L 64,114  L 62,114  L 62,113  L 61,113  L 61,112  L 60,112  L 60,111  L 58,111  L 58,110  L 57,110  L 57,109  L 56,109  L 56,108  L 55,108  L 55,105  L 56,105  L 56,103  L 57,103  L 57,102  L 58,102  L 58,101  L 59,101  L 59,100  L 60,100  L 60,99  L 61,99  L 61,96  L 62,96  Z  " style="fill:rgb(0, 0, 0); fill-opacity:1.000; stroke:none;" />
 <path d="  M 79,68  L 79,67  L 80,67  L 80,66  L 79,66  L 79,65  L 80,65  L 80,64  L 79,64  L 79,61  L 80,61  L 80,60  L 79,60  L 79,50  L 80,50  L 80,49  L 84,49  L 84,48  L 106,48  L 106,42  L 105,42  L 105,41  L 79,41  L 79,40  L 78,40  L 78,39  L 79,39  L 79,28  L 78,28  L 78,21  L 77,21  L 77,13  L 76,13  L 76,10  L 74,10  L 74,9  L 71,9  L 71,10  L 70,10  L 70,11  L 71,11  L 71,15  L 72,15  L 72,22  L 73,22  L 73,25  L 72,25  L 72,26  L 73,26  L 73,85  L 74,85  L 74,88  L 75,88  L 75,89  L 78,89  L 78,88  L 79,88  L 79,87  L 80,87  L 80,74  L 79,74  L 79,73  L 80,73  L 80,72  L 79,72  L 79,71  L 80,71  L 80,70  L 79,70  L 79,69  L 80,69  L 80,68  Z  " style="fill:rgb(0, 0, 0); fill-opacity:1.000; stroke:none;" />
</svg>
