<?xml version="1.0" encoding="UTF-8" standalone="no"?>
<!DOCTYPE svg PUBLIC "-//W3C//DTD SVG 1.1//EN" 
  "http://www.w3.org/Graphics/SVG/1.1/DTD/svg11.dtd">
<svg width="106" height="158"
     xmlns="http://www.w3.org/2000/svg" version="1.1">
 <path d="  M 1,30  L 1,31  L 0,31  L 0,35  L 3,35  L 3,36  L 6,36  L 6,35  L 14,35  L 14,34  L 22,34  L 22,33  L 24,33  L 24,34  L 25,34  L 25,33  L 30,33  L 30,32  L 38,32  L 38,31  L 39,31  L 39,32  L 40,32  L 40,31  L 59,31  L 59,32  L 60,32  L 60,31  L 62,31  L 62,30  L 63,30  L 63,28  L 64,28  L 64,25  L 62,25  L 62,24  L 35,24  L 35,21  L 36,21  L 36,13  L 35,13  L 35,6  L 36,6  L 36,2  L 37,2  L 37,1  L 35,1  L 35,0  L 34,0  L 34,1  L 31,1  L 31,2  L 29,2  L 29,3  L 28,3  L 28,4  L 27,4  L 27,5  L 26,5  L 26,14  L 27,14  L 27,22  L 28,22  L 28,23  L 29,23  L 29,24  L 30,24  L 30,25  L 29,25  L 29,26  L 26,26  L 26,27  L 19,27  L 19,28  L 18,28  L 18,27  L 17,27  L 17,28  L 12,28  L 12,29  L 11,29  L 11,28  L 10,28  L 10,29  L 5,29  L 5,30  Z  " style="fill:rgb(0, 0, 0); fill-opacity:1.000; stroke:none;" />
 <path d="  M 20,71  L 19,71  L 19,70  L 20,70  L 20,64  L 21,64  L 21,63  L 20,63  L 20,62  L 21,62  L 21,60  L 22,60  L 22,57  L 23,57  L 23,55  L 24,55  L 24,54  L 25,54  L 25,53  L 26,53  L 26,51  L 27,51  L 27,50  L 29,50  L 29,49  L 33,49  L 33,50  L 36,50  L 36,51  L 39,51  L 39,52  L 42,52  L 42,53  L 43,53  L 43,54  L 44,54  L 44,55  L 45,55  L 45,56  L 46,56  L 46,57  L 47,57  L 47,58  L 48,58  L 48,69  L 47,69  L 47,73  L 46,73  L 46,75  L 45,75  L 45,76  L 44,76  L 44,77  L 43,77  L 43,78  L 38,78  L 38,79  L 36,79  L 36,80  L 33,80  L 33,81  L 26,81  L 26,80  L 25,80  L 25,79  L 23,79  L 23,78  L 22,78  L 22,75  L 21,75  L 21,74  L 20,74  Z  M 15,59  L 14,59  L 14,63  L 13,63  L 13,74  L 14,74  L 14,76  L 15,76  L 15,79  L 16,79  L 16,81  L 17,81  L 17,82  L 18,82  L 18,83  L 19,83  L 19,84  L 20,84  L 20,85  L 23,85  L 23,86  L 25,86  L 25,87  L 32,87  L 32,86  L 35,86  L 35,85  L 39,85  L 39,84  L 41,84  L 41,83  L 45,83  L 45,82  L 47,82  L 47,81  L 48,81  L 48,80  L 50,80  L 50,79  L 51,79  L 51,77  L 52,77  L 52,76  L 53,76  L 53,74  L 54,74  L 54,71  L 55,71  L 55,60  L 54,60  L 54,58  L 53,58  L 53,56  L 52,56  L 52,54  L 51,54  L 51,53  L 50,53  L 50,52  L 49,52  L 49,51  L 48,51  L 48,50  L 47,50  L 47,49  L 46,49  L 46,48  L 44,48  L 44,47  L 42,47  L 42,46  L 40,46  L 40,45  L 37,45  L 37,44  L 35,44  L 35,43  L 32,43  L 32,42  L 25,42  L 25,43  L 23,43  L 23,44  L 22,44  L 22,46  L 21,46  L 21,47  L 20,47  L 20,49  L 19,49  L 19,50  L 18,50  L 18,52  L 17,52  L 17,54  L 16,54  L 16,56  L 15,56  Z  " style="fill:rgb(0, 0, 0); fill-opacity:1.000; stroke:none;" />
 <path d="  M 58,98  L 58,99  L 43,99  L 43,100  L 35,100  L 35,101  L 34,101  L 34,105  L 35,105  L 35,106  L 37,106  L 37,107  L 43,107  L 43,106  L 53,106  L 53,105  L 62,105  L 62,104  L 63,104  L 63,105  L 64,105  L 64,104  L 74,104  L 74,103  L 89,103  L 89,104  L 92,104  L 92,105  L 95,105  L 95,106  L 96,106  L 96,107  L 97,107  L 97,119  L 96,119  L 96,123  L 95,123  L 95,127  L 94,127  L 94,130  L 93,130  L 93,133  L 92,133  L 92,138  L 91,138  L 91,141  L 90,141  L 90,148  L 89,148  L 89,156  L 90,156  L 90,158  L 95,158  L 95,154  L 96,154  L 96,153  L 95,153  L 95,151  L 96,151  L 96,148  L 97,148  L 97,143  L 98,143  L 98,139  L 99,139  L 99,135  L 100,135  L 100,132  L 101,132  L 101,127  L 102,127  L 102,121  L 103,121  L 103,118  L 104,118  L 104,117  L 103,117  L 103,116  L 104,116  L 104,112  L 105,112  L 105,109  L 104,109  L 104,105  L 103,105  L 103,103  L 101,103  L 101,102  L 100,102  L 100,101  L 99,101  L 99,100  L 98,100  L 98,99  L 96,99  L 96,98  L 93,98  L 93,97  L 86,97  L 86,96  L 85,96  L 85,97  L 67,97  L 67,98  L 66,98  L 66,97  L 65,97  L 65,98  Z  " style="fill:rgb(0, 0, 0); fill-opacity:1.000; stroke:none;" />
 <path d="  M 75,67  L 74,67  L 74,81  L 75,81  L 75,82  L 76,82  L 76,83  L 77,83  L 77,82  L 78,82  L 78,83  L 79,83  L 79,82  L 80,82  L 80,78  L 81,78  L 81,64  L 82,64  L 82,62  L 83,62  L 83,61  L 82,61  L 82,60  L 83,60  L 83,59  L 82,59  L 82,58  L 83,58  L 83,47  L 84,47  L 84,46  L 93,46  L 93,45  L 94,45  L 94,46  L 95,46  L 95,45  L 100,45  L 100,55  L 99,55  L 99,56  L 100,56  L 100,59  L 99,59  L 99,60  L 100,60  L 100,63  L 99,63  L 99,64  L 100,64  L 100,67  L 99,67  L 99,68  L 100,68  L 100,71  L 99,71  L 99,72  L 100,72  L 100,75  L 99,75  L 99,83  L 100,83  L 100,84  L 101,84  L 101,85  L 103,85  L 103,84  L 104,84  L 104,83  L 105,83  L 105,82  L 106,82  L 106,81  L 105,81  L 105,80  L 106,80  L 106,24  L 105,24  L 105,13  L 104,13  L 104,12  L 102,12  L 102,11  L 101,11  L 101,12  L 99,12  L 99,13  L 98,13  L 98,18  L 99,18  L 99,33  L 100,33  L 100,36  L 99,36  L 99,37  L 98,37  L 98,38  L 95,38  L 95,39  L 94,39  L 94,38  L 93,38  L 93,39  L 90,39  L 90,38  L 89,38  L 89,39  L 87,39  L 87,38  L 86,38  L 86,39  L 83,39  L 83,40  L 82,40  L 82,39  L 81,39  L 81,29  L 80,29  L 80,28  L 81,28  L 81,27  L 80,27  L 80,11  L 79,11  L 79,10  L 78,10  L 78,9  L 73,9  L 73,26  L 74,26  L 74,27  L 73,27  L 73,30  L 74,30  L 74,33  L 73,33  L 73,34  L 74,34  L 74,37  L 73,37  L 73,38  L 74,38  L 74,49  L 75,49  Z  " style="fill:rgb(0, 0, 0); fill-opacity:1.000; stroke:none;" />
</svg>
