<?xml version="1.0" encoding="UTF-8" standalone="no"?>
<!DOCTYPE svg PUBLIC "-//W3C//DTD SVG 1.1//EN" 
  "http://www.w3.org/Graphics/SVG/1.1/DTD/svg11.dtd">
<svg width="105" height="141"
     xmlns="http://www.w3.org/2000/svg" version="1.1">
 <path d="  M 45,25  L 45,26  L 42,26  L 42,25  L 41,25  L 41,26  L 38,26  L 38,25  L 37,25  L 37,26  L 34,26  L 34,27  L 31,27  L 31,28  L 30,28  L 30,27  L 29,27  L 29,28  L 24,28  L 24,29  L 16,29  L 16,30  L 14,30  L 14,29  L 13,29  L 13,30  L 10,30  L 10,31  L 7,31  L 7,32  L 6,32  L 6,31  L 5,31  L 5,32  L 2,32  L 2,33  L 1,33  L 1,38  L 7,38  L 7,37  L 8,37  L 8,38  L 9,38  L 9,37  L 10,37  L 10,38  L 11,38  L 11,37  L 12,37  L 12,36  L 16,36  L 16,35  L 17,35  L 17,36  L 18,36  L 18,35  L 23,35  L 23,34  L 29,34  L 29,33  L 33,33  L 33,32  L 46,32  L 46,31  L 47,31  L 47,32  L 48,32  L 48,31  L 49,31  L 49,32  L 50,32  L 50,31  L 51,31  L 51,32  L 52,32  L 52,31  L 53,31  L 53,32  L 54,32  L 54,31  L 60,31  L 60,28  L 61,28  L 61,27  L 60,27  L 60,25  L 58,25  L 58,24  L 57,24  L 57,25  Z  " style="fill:rgb(0, 0, 0); fill-opacity:1.000; stroke:none;" />
 <path d="  M 39,87  L 41,87  L 41,86  L 44,86  L 44,85  L 45,85  L 45,84  L 48,84  L 48,83  L 49,83  L 49,82  L 50,82  L 50,80  L 51,80  L 51,79  L 52,79  L 52,78  L 53,78  L 53,57  L 52,57  L 52,56  L 51,56  L 51,54  L 50,54  L 50,52  L 49,52  L 49,51  L 48,51  L 48,50  L 47,50  L 47,49  L 45,49  L 45,48  L 43,48  L 43,47  L 41,47  L 41,46  L 39,46  L 39,45  L 36,45  L 36,44  L 34,44  L 34,43  L 30,43  L 30,42  L 29,42  L 29,43  L 28,43  L 28,42  L 26,42  L 26,43  L 24,43  L 24,44  L 22,44  L 22,45  L 21,45  L 21,46  L 20,46  L 20,48  L 19,48  L 19,49  L 18,49  L 18,51  L 17,51  L 17,52  L 16,52  L 16,55  L 15,55  L 15,58  L 14,58  L 14,60  L 13,60  L 13,63  L 12,63  L 12,68  L 11,68  L 11,76  L 12,76  L 12,79  L 13,79  L 13,80  L 14,80  L 14,83  L 15,83  L 15,84  L 16,84  L 16,85  L 17,85  L 17,86  L 18,86  L 18,87  L 20,87  L 20,88  L 23,88  L 23,89  L 25,89  L 25,90  L 28,90  L 28,91  L 29,91  L 29,90  L 34,90  L 34,89  L 37,89  L 37,88  L 39,88  Z  M 21,58  L 21,57  L 22,57  L 22,55  L 23,55  L 23,54  L 24,54  L 24,52  L 26,52  L 26,51  L 27,51  L 27,50  L 29,50  L 29,49  L 31,49  L 31,50  L 34,50  L 34,51  L 38,51  L 38,52  L 40,52  L 40,53  L 43,53  L 43,54  L 44,54  L 44,55  L 45,55  L 45,56  L 46,56  L 46,57  L 47,57  L 47,72  L 46,72  L 46,76  L 45,76  L 45,77  L 44,77  L 44,78  L 43,78  L 43,79  L 42,79  L 42,80  L 41,80  L 41,81  L 39,81  L 39,82  L 34,82  L 34,83  L 33,83  L 33,82  L 32,82  L 32,83  L 26,83  L 26,82  L 24,82  L 24,81  L 22,81  L 22,80  L 21,80  L 21,79  L 19,79  L 19,78  L 18,78  L 18,75  L 17,75  L 17,67  L 18,67  L 18,63  L 19,63  L 19,60  L 20,60  L 20,58  Z  " style="fill:rgb(0, 0, 0); fill-opacity:1.000; stroke:none;" />
 <path d="  M 33,15  L 34,15  L 34,9  L 35,9  L 35,7  L 36,7  L 36,2  L 37,2  L 37,1  L 35,1  L 35,0  L 32,0  L 32,1  L 29,1  L 29,2  L 28,2  L 28,3  L 27,3  L 27,12  L 26,12  L 26,13  L 27,13  L 27,15  L 26,15  L 26,18  L 27,18  L 27,19  L 26,19  L 26,20  L 27,20  L 27,23  L 28,23  L 28,24  L 29,24  L 29,25  L 30,25  L 30,24  L 32,24  L 32,23  L 33,23  L 33,18  L 34,18  L 34,17  L 33,17  Z  " style="fill:rgb(0, 0, 0); fill-opacity:1.000; stroke:none;" />
 <path d="  M 39,122  L 38,122  L 38,117  L 39,117  L 39,116  L 38,116  L 38,102  L 37,102  L 37,101  L 35,101  L 35,100  L 33,100  L 33,101  L 31,101  L 31,112  L 32,112  L 32,113  L 31,113  L 31,114  L 32,114  L 32,115  L 31,115  L 31,116  L 32,116  L 32,131  L 33,131  L 33,132  L 32,132  L 32,133  L 33,133  L 33,135  L 34,135  L 34,137  L 35,137  L 35,138  L 36,138  L 36,140  L 39,140  L 39,141  L 56,141  L 56,140  L 57,140  L 57,141  L 58,141  L 58,140  L 62,140  L 62,139  L 69,139  L 69,138  L 77,138  L 77,137  L 88,137  L 88,136  L 98,136  L 98,135  L 99,135  L 99,136  L 101,136  L 101,135  L 104,135  L 104,134  L 105,134  L 105,128  L 97,128  L 97,129  L 89,129  L 89,130  L 83,130  L 83,131  L 75,131  L 75,132  L 66,132  L 66,133  L 61,133  L 61,134  L 58,134  L 58,133  L 57,133  L 57,134  L 53,134  L 53,135  L 52,135  L 52,134  L 51,134  L 51,135  L 43,135  L 43,134  L 40,134  L 40,133  L 39,133  Z  " style="fill:rgb(0, 0, 0); fill-opacity:1.000; stroke:none;" />
 <path d="  M 91,85  L 90,85  L 90,86  L 91,86  L 91,88  L 94,88  L 94,87  L 96,87  L 96,86  L 97,86  L 97,82  L 98,82  L 98,81  L 97,81  L 97,79  L 98,79  L 98,77  L 97,77  L 97,75  L 98,75  L 98,73  L 97,73  L 97,71  L 98,71  L 98,68  L 97,68  L 97,67  L 98,67  L 98,65  L 97,65  L 97,63  L 98,63  L 98,61  L 97,61  L 97,40  L 96,40  L 96,33  L 95,33  L 95,30  L 96,30  L 96,29  L 95,29  L 95,26  L 96,26  L 96,25  L 95,25  L 95,19  L 94,19  L 94,10  L 93,10  L 93,7  L 92,7  L 92,6  L 88,6  L 88,26  L 89,26  L 89,36  L 90,36  L 90,40  L 91,40  L 91,41  L 89,41  L 89,42  L 86,42  L 86,41  L 84,41  L 84,42  L 82,42  L 82,41  L 81,41  L 81,42  L 78,42  L 78,43  L 75,43  L 75,19  L 74,19  L 74,18  L 75,18  L 75,6  L 74,6  L 74,5  L 69,5  L 69,9  L 68,9  L 68,62  L 69,62  L 69,65  L 68,65  L 68,66  L 69,66  L 69,88  L 70,88  L 70,89  L 71,89  L 71,90  L 72,90  L 72,89  L 75,89  L 75,86  L 76,86  L 76,85  L 75,85  L 75,82  L 76,82  L 76,81  L 75,81  L 75,78  L 76,78  L 76,77  L 75,77  L 75,74  L 76,74  L 76,73  L 75,73  L 75,70  L 76,70  L 76,69  L 75,69  L 75,52  L 76,52  L 76,50  L 79,50  L 79,49  L 90,49  L 90,52  L 91,52  L 91,53  L 90,53  L 90,55  L 91,55  Z  " style="fill:rgb(0, 0, 0); fill-opacity:1.000; stroke:none;" />
</svg>
