<?xml version="1.0" encoding="UTF-8" standalone="no"?>
<!DOCTYPE svg PUBLIC "-//W3C//DTD SVG 1.1//EN" 
  "http://www.w3.org/Graphics/SVG/1.1/DTD/svg11.dtd">
<svg width="105" height="145"
     xmlns="http://www.w3.org/2000/svg" version="1.1">
 <path d="  M 2,30  L 2,31  L 1,31  L 1,32  L 0,32  L 0,34  L 3,34  L 3,35  L 12,35  L 12,34  L 18,34  L 18,33  L 20,33  L 20,34  L 21,34  L 21,33  L 24,33  L 24,32  L 30,32  L 30,31  L 31,31  L 31,32  L 32,32  L 32,31  L 37,31  L 37,30  L 45,30  L 45,29  L 47,29  L 47,30  L 49,30  L 49,29  L 52,29  L 52,30  L 53,30  L 53,29  L 56,29  L 56,30  L 57,30  L 57,29  L 59,29  L 59,28  L 60,28  L 60,27  L 61,27  L 61,23  L 45,23  L 45,24  L 36,24  L 36,25  L 32,25  L 32,26  L 27,26  L 27,27  L 19,27  L 19,28  L 12,28  L 12,29  L 7,29  L 7,30  L 6,30  L 6,29  L 5,29  L 5,30  Z  " style="fill:rgb(0, 0, 0); fill-opacity:1.000; stroke:none;" />
 <path d="  M 40,87  L 40,86  L 41,86  L 41,85  L 43,85  L 43,84  L 46,84  L 46,83  L 48,83  L 48,82  L 50,82  L 50,80  L 52,80  L 52,79  L 53,79  L 53,77  L 54,77  L 54,76  L 55,76  L 55,74  L 56,74  L 56,61  L 55,61  L 55,58  L 54,58  L 54,56  L 53,56  L 53,55  L 52,55  L 52,54  L 51,54  L 51,53  L 50,53  L 50,52  L 49,52  L 49,51  L 48,51  L 48,50  L 46,50  L 46,49  L 45,49  L 45,48  L 43,48  L 43,47  L 40,47  L 40,46  L 38,46  L 38,45  L 35,45  L 35,44  L 32,44  L 32,43  L 31,43  L 31,42  L 25,42  L 25,43  L 23,43  L 23,45  L 22,45  L 22,47  L 21,47  L 21,48  L 20,48  L 20,50  L 19,50  L 19,52  L 18,52  L 18,53  L 17,53  L 17,55  L 16,55  L 16,57  L 15,57  L 15,60  L 14,60  L 14,63  L 13,63  L 13,74  L 14,74  L 14,78  L 15,78  L 15,81  L 16,81  L 16,82  L 17,82  L 17,83  L 18,83  L 18,84  L 19,84  L 19,86  L 21,86  L 21,87  L 23,87  L 23,89  L 24,89  L 24,90  L 31,90  L 31,89  L 33,89  L 33,88  L 38,88  L 38,87  Z  M 20,61  L 21,61  L 21,60  L 22,60  L 22,57  L 23,57  L 23,56  L 24,56  L 24,55  L 25,55  L 25,53  L 26,53  L 26,51  L 28,51  L 28,50  L 30,50  L 30,49  L 31,49  L 31,50  L 34,50  L 34,51  L 39,51  L 39,52  L 41,52  L 41,53  L 43,53  L 43,54  L 44,54  L 44,55  L 46,55  L 46,56  L 47,56  L 47,57  L 48,57  L 48,58  L 49,58  L 49,69  L 48,69  L 48,73  L 47,73  L 47,75  L 46,75  L 46,76  L 45,76  L 45,77  L 44,77  L 44,78  L 43,78  L 43,79  L 40,79  L 40,80  L 38,80  L 38,81  L 36,81  L 36,82  L 31,82  L 31,83  L 25,83  L 25,82  L 23,82  L 23,81  L 22,81  L 22,79  L 21,79  L 21,77  L 20,77  L 20,73  L 19,73  L 19,70  L 20,70  L 20,69  L 19,69  L 19,66  L 20,66  Z  " style="fill:rgb(0, 0, 0); fill-opacity:1.000; stroke:none;" />
 <path d="  M 31,17  L 32,17  L 32,18  L 31,18  L 31,19  L 33,19  L 33,20  L 35,20  L 35,19  L 36,19  L 36,17  L 37,17  L 37,16  L 38,16  L 38,14  L 39,14  L 39,12  L 40,12  L 40,11  L 43,11  L 43,10  L 44,10  L 44,8  L 45,8  L 45,3  L 44,3  L 44,1  L 43,1  L 43,0  L 40,0  L 40,1  L 38,1  L 38,2  L 35,2  L 35,3  L 31,3  L 31,5  L 30,5  L 30,7  L 31,7  Z  " style="fill:rgb(0, 0, 0); fill-opacity:1.000; stroke:none;" />
 <path d="  M 97,110  L 97,113  L 98,113  L 98,121  L 97,121  L 97,125  L 96,125  L 96,127  L 95,127  L 95,129  L 94,129  L 94,130  L 93,130  L 93,131  L 92,131  L 92,132  L 91,132  L 91,133  L 89,133  L 89,134  L 86,134  L 86,135  L 84,135  L 84,136  L 82,136  L 82,137  L 79,137  L 79,138  L 72,138  L 72,139  L 57,139  L 57,138  L 51,138  L 51,137  L 49,137  L 49,136  L 46,136  L 46,135  L 45,135  L 45,132  L 44,132  L 44,131  L 45,131  L 45,130  L 44,130  L 44,126  L 45,126  L 45,123  L 46,123  L 46,120  L 47,120  L 47,118  L 48,118  L 48,116  L 49,116  L 49,114  L 50,114  L 50,113  L 51,113  L 51,112  L 52,112  L 52,111  L 53,111  L 53,110  L 54,110  L 54,109  L 55,109  L 55,108  L 56,108  L 56,107  L 58,107  L 58,106  L 60,106  L 60,105  L 62,105  L 62,104  L 66,104  L 66,103  L 72,103  L 72,102  L 73,102  L 73,103  L 74,103  L 74,102  L 83,102  L 83,103  L 88,103  L 88,104  L 90,104  L 90,105  L 91,105  L 91,106  L 92,106  L 92,107  L 94,107  L 94,108  L 95,108  L 95,109  L 96,109  L 96,110  Z  M 59,98  L 59,99  L 56,99  L 56,100  L 55,100  L 55,101  L 54,101  L 54,102  L 52,102  L 52,103  L 51,103  L 51,105  L 50,105  L 50,106  L 49,106  L 49,107  L 48,107  L 48,108  L 47,108  L 47,109  L 46,109  L 46,110  L 45,110  L 45,111  L 44,111  L 44,113  L 43,113  L 43,116  L 42,116  L 42,118  L 41,118  L 41,120  L 40,120  L 40,123  L 39,123  L 39,127  L 38,127  L 38,135  L 39,135  L 39,138  L 40,138  L 40,139  L 42,139  L 42,140  L 43,140  L 43,141  L 45,141  L 45,142  L 46,142  L 46,143  L 50,143  L 50,144  L 54,144  L 54,145  L 76,145  L 76,144  L 80,144  L 80,143  L 82,143  L 82,142  L 86,142  L 86,141  L 89,141  L 89,140  L 92,140  L 92,139  L 93,139  L 93,138  L 95,138  L 95,137  L 96,137  L 96,136  L 97,136  L 97,135  L 98,135  L 98,134  L 100,134  L 100,132  L 101,132  L 101,130  L 102,130  L 102,128  L 103,128  L 103,126  L 104,126  L 104,125  L 103,125  L 103,124  L 104,124  L 104,120  L 105,120  L 105,119  L 104,119  L 104,118  L 105,118  L 105,117  L 104,117  L 104,109  L 103,109  L 103,106  L 102,106  L 102,105  L 101,105  L 101,104  L 100,104  L 100,103  L 99,103  L 99,102  L 98,102  L 98,101  L 97,101  L 97,99  L 95,99  L 95,98  L 93,98  L 93,97  L 88,97  L 88,96  L 68,96  L 68,97  L 67,97  L 67,96  L 65,96  L 65,97  L 62,97  L 62,98  Z  " style="fill:rgb(0, 0, 0); fill-opacity:1.000; stroke:none;" />
 <path d="  M 79,62  L 80,62  L 80,61  L 79,61  L 79,60  L 80,60  L 80,47  L 83,47  L 83,46  L 96,46  L 96,50  L 97,50  L 97,75  L 98,75  L 98,84  L 99,84  L 99,94  L 100,94  L 100,96  L 101,96  L 101,97  L 102,97  L 102,98  L 105,98  L 105,83  L 104,83  L 104,60  L 103,60  L 103,59  L 104,59  L 104,56  L 103,56  L 103,55  L 104,55  L 104,53  L 103,53  L 103,50  L 104,50  L 104,49  L 103,49  L 103,46  L 104,46  L 104,45  L 103,45  L 103,38  L 102,38  L 102,36  L 103,36  L 103,35  L 102,35  L 102,31  L 101,31  L 101,24  L 100,24  L 100,21  L 99,21  L 99,16  L 98,16  L 98,15  L 97,15  L 97,14  L 95,14  L 95,15  L 93,15  L 93,20  L 94,20  L 94,25  L 95,25  L 95,32  L 96,32  L 96,34  L 97,34  L 97,37  L 96,37  L 96,38  L 95,38  L 95,39  L 92,39  L 92,40  L 91,40  L 91,39  L 89,39  L 89,40  L 79,40  L 79,37  L 78,37  L 78,35  L 79,35  L 79,30  L 78,30  L 78,28  L 79,28  L 79,27  L 78,27  L 78,26  L 79,26  L 79,25  L 78,25  L 78,24  L 79,24  L 79,23  L 78,23  L 78,9  L 77,9  L 77,8  L 72,8  L 72,40  L 73,40  L 73,41  L 72,41  L 72,42  L 73,42  L 73,69  L 72,69  L 72,70  L 73,70  L 73,73  L 72,73  L 72,74  L 73,74  L 73,77  L 72,77  L 72,78  L 73,78  L 73,81  L 72,81  L 72,82  L 73,82  L 73,86  L 74,86  L 74,85  L 77,85  L 77,84  L 78,84  L 78,82  L 79,82  L 79,81  L 78,81  L 78,78  L 79,78  Z  " style="fill:rgb(0, 0, 0); fill-opacity:1.000; stroke:none;" />
</svg>
