<?xml version="1.0" encoding="UTF-8" standalone="no"?>
<!DOCTYPE svg PUBLIC "-//W3C//DTD SVG 1.1//EN" 
  "http://www.w3.org/Graphics/SVG/1.1/DTD/svg11.dtd">
<svg width="113" height="114"
     xmlns="http://www.w3.org/2000/svg" version="1.1">
 <path d="  M 1,42  L 3,42  L 3,43  L 9,43  L 9,44  L 10,44  L 10,43  L 17,43  L 17,42  L 19,42  L 19,43  L 20,43  L 20,42  L 24,42  L 24,41  L 25,41  L 25,42  L 31,42  L 31,41  L 33,41  L 33,40  L 40,40  L 40,39  L 41,39  L 41,40  L 47,40  L 47,41  L 52,41  L 52,42  L 56,42  L 56,43  L 57,43  L 57,42  L 61,42  L 61,41  L 63,41  L 63,40  L 65,40  L 65,39  L 66,39  L 66,38  L 68,38  L 68,37  L 66,37  L 66,36  L 64,36  L 64,35  L 62,35  L 62,34  L 55,34  L 55,33  L 51,33  L 51,32  L 39,32  L 39,31  L 38,31  L 38,32  L 35,32  L 35,31  L 34,31  L 34,32  L 30,32  L 30,33  L 29,33  L 29,32  L 27,32  L 27,33  L 22,33  L 22,34  L 17,34  L 17,35  L 10,35  L 10,36  L 4,36  L 4,37  L 1,37  Z  " style="fill:rgb(0, 0, 0); fill-opacity:1.000; stroke:none;" />
 <path d="  M 22,88  L 21,88  L 21,87  L 20,87  L 20,86  L 19,86  L 19,83  L 18,83  L 18,80  L 19,80  L 19,77  L 20,77  L 20,74  L 21,74  L 21,71  L 22,71  L 22,69  L 23,69  L 23,67  L 24,67  L 24,66  L 25,66  L 25,63  L 26,63  L 26,62  L 27,62  L 27,60  L 29,60  L 29,58  L 30,58  L 30,56  L 31,56  L 31,55  L 34,55  L 34,56  L 37,56  L 37,57  L 40,57  L 40,58  L 44,58  L 44,59  L 46,59  L 46,60  L 48,60  L 48,61  L 49,61  L 49,62  L 50,62  L 50,64  L 51,64  L 51,65  L 52,65  L 52,76  L 51,76  L 51,80  L 50,80  L 50,81  L 49,81  L 49,83  L 48,83  L 48,84  L 47,84  L 47,85  L 45,85  L 45,86  L 44,86  L 44,87  L 43,87  L 43,88  L 40,88  L 40,89  L 38,89  L 38,90  L 36,90  L 36,91  L 33,91  L 33,92  L 26,92  L 26,91  L 25,91  L 25,90  L 23,90  L 23,89  L 22,89  Z  M 45,94  L 45,93  L 46,93  L 46,92  L 48,92  L 48,91  L 49,91  L 49,90  L 50,90  L 50,89  L 52,89  L 52,88  L 53,88  L 53,86  L 54,86  L 54,85  L 55,85  L 55,83  L 56,83  L 56,81  L 57,81  L 57,80  L 58,80  L 58,77  L 59,77  L 59,71  L 58,71  L 58,64  L 57,64  L 57,62  L 56,62  L 56,59  L 55,59  L 55,58  L 54,58  L 54,57  L 53,57  L 53,56  L 52,56  L 52,55  L 51,55  L 51,54  L 50,54  L 50,53  L 48,53  L 48,52  L 47,52  L 47,51  L 44,51  L 44,50  L 41,50  L 41,49  L 39,49  L 39,48  L 36,48  L 36,47  L 33,47  L 33,45  L 32,45  L 32,46  L 30,46  L 30,47  L 29,47  L 29,48  L 28,48  L 28,49  L 27,49  L 27,50  L 26,50  L 26,51  L 25,51  L 25,53  L 24,53  L 24,55  L 23,55  L 23,56  L 22,56  L 22,58  L 21,58  L 21,59  L 20,59  L 20,62  L 19,62  L 19,63  L 18,63  L 18,65  L 17,65  L 17,67  L 16,67  L 16,70  L 15,70  L 15,73  L 14,73  L 14,77  L 13,77  L 13,83  L 12,83  L 12,86  L 13,86  L 13,89  L 14,89  L 14,90  L 15,90  L 15,91  L 16,91  L 16,92  L 17,92  L 17,94  L 19,94  L 19,95  L 20,95  L 20,96  L 21,96  L 21,97  L 22,97  L 22,98  L 24,98  L 24,99  L 25,99  L 25,100  L 28,100  L 28,101  L 30,101  L 30,100  L 34,100  L 34,99  L 35,99  L 35,98  L 38,98  L 38,97  L 40,97  L 40,96  L 42,96  L 42,95  L 43,95  L 43,94  Z  " style="fill:rgb(0, 0, 0); fill-opacity:1.000; stroke:none;" />
 <path d="  M 28,11  L 29,11  L 29,13  L 30,13  L 30,14  L 31,14  L 31,15  L 32,15  L 32,18  L 33,18  L 33,19  L 34,19  L 34,21  L 35,21  L 35,23  L 37,23  L 37,24  L 40,24  L 40,23  L 41,23  L 41,22  L 43,22  L 43,21  L 42,21  L 42,19  L 41,19  L 41,17  L 40,17  L 40,16  L 39,16  L 39,15  L 38,15  L 38,13  L 37,13  L 37,11  L 36,11  L 36,8  L 35,8  L 35,7  L 36,7  L 36,6  L 35,6  L 35,1  L 33,1  L 33,0  L 31,0  L 31,1  L 29,1  L 29,3  L 28,3  L 28,5  L 27,5  L 27,6  L 28,6  Z  " style="fill:rgb(0, 0, 0); fill-opacity:1.000; stroke:none;" />
 <path d="  M 99,68  L 99,67  L 98,67  L 98,68  L 95,68  L 95,67  L 94,67  L 94,68  L 91,68  L 91,67  L 90,67  L 90,68  L 89,68  L 89,67  L 86,67  L 86,68  L 83,68  L 83,67  L 82,67  L 82,62  L 83,62  L 83,61  L 82,61  L 82,46  L 83,46  L 83,45  L 90,45  L 90,46  L 91,46  L 91,45  L 102,45  L 102,46  L 103,46  L 103,45  L 106,45  L 106,46  L 112,46  L 112,45  L 113,45  L 113,41  L 111,41  L 111,39  L 106,39  L 106,38  L 91,38  L 91,37  L 90,37  L 90,38  L 87,38  L 87,37  L 86,37  L 86,38  L 82,38  L 82,37  L 81,37  L 81,34  L 82,34  L 82,10  L 81,10  L 81,9  L 80,9  L 80,8  L 76,8  L 76,10  L 75,10  L 75,24  L 76,24  L 76,25  L 75,25  L 75,31  L 76,31  L 76,75  L 75,75  L 75,113  L 76,113  L 76,114  L 81,114  L 81,113  L 82,113  L 82,75  L 83,75  L 83,74  L 86,74  L 86,75  L 95,75  L 95,74  L 96,74  L 96,75  L 103,75  L 103,74  L 106,74  L 106,69  L 105,69  L 105,68  L 103,68  L 103,67  L 102,67  L 102,68  Z  " style="fill:rgb(0, 0, 0); fill-opacity:1.000; stroke:none;" />
</svg>
