<?xml version="1.0" encoding="UTF-8" standalone="no"?>
<!DOCTYPE svg PUBLIC "-//W3C//DTD SVG 1.1//EN" 
  "http://www.w3.org/Graphics/SVG/1.1/DTD/svg11.dtd">
<svg width="107" height="143"
     xmlns="http://www.w3.org/2000/svg" version="1.1">
 <path d="  M 8,37  L 8,36  L 14,36  L 14,35  L 22,35  L 22,34  L 24,34  L 24,35  L 25,35  L 25,34  L 32,34  L 32,33  L 38,33  L 38,32  L 39,32  L 39,33  L 40,33  L 40,32  L 54,32  L 54,31  L 55,31  L 55,32  L 58,32  L 58,31  L 59,31  L 59,30  L 60,30  L 60,26  L 58,26  L 58,25  L 40,25  L 40,26  L 35,26  L 35,25  L 34,25  L 34,5  L 35,5  L 35,2  L 34,2  L 34,1  L 33,1  L 33,0  L 32,0  L 32,1  L 31,1  L 31,2  L 30,2  L 30,3  L 29,3  L 29,6  L 28,6  L 28,10  L 27,10  L 27,26  L 28,26  L 28,29  L 16,29  L 16,30  L 11,30  L 11,31  L 10,31  L 10,30  L 9,30  L 9,31  L 4,31  L 4,32  L 0,32  L 0,36  L 1,36  L 1,37  Z  " style="fill:rgb(0, 0, 0); fill-opacity:1.000; stroke:none;" />
 <path d="  M 24,46  L 22,46  L 22,48  L 21,48  L 21,49  L 20,49  L 20,50  L 19,50  L 19,52  L 18,52  L 18,53  L 17,53  L 17,54  L 16,54  L 16,56  L 15,56  L 15,58  L 14,58  L 14,60  L 13,60  L 13,64  L 12,64  L 12,70  L 11,70  L 11,72  L 12,72  L 12,75  L 13,75  L 13,79  L 14,79  L 14,80  L 15,80  L 15,82  L 16,82  L 16,83  L 17,83  L 17,84  L 19,84  L 19,85  L 20,85  L 20,86  L 22,86  L 22,87  L 24,87  L 24,88  L 25,88  L 25,89  L 32,89  L 32,88  L 34,88  L 34,87  L 37,87  L 37,86  L 40,86  L 40,85  L 42,85  L 42,84  L 44,84  L 44,83  L 46,83  L 46,82  L 47,82  L 47,81  L 49,81  L 49,80  L 50,80  L 50,79  L 51,79  L 51,77  L 52,77  L 52,75  L 53,75  L 53,74  L 54,74  L 54,69  L 55,69  L 55,63  L 56,63  L 56,62  L 55,62  L 55,59  L 54,59  L 54,58  L 53,58  L 53,56  L 52,56  L 52,55  L 51,55  L 51,54  L 50,54  L 50,53  L 48,53  L 48,52  L 47,52  L 47,51  L 46,51  L 46,50  L 44,50  L 44,49  L 42,49  L 42,48  L 39,48  L 39,47  L 38,47  L 38,46  L 35,46  L 35,45  L 33,45  L 33,44  L 32,44  L 32,43  L 26,43  L 26,44  L 24,44  Z  M 35,52  L 35,53  L 37,53  L 37,54  L 39,54  L 39,55  L 41,55  L 41,56  L 43,56  L 43,57  L 44,57  L 44,58  L 46,58  L 46,59  L 47,59  L 47,60  L 48,60  L 48,68  L 47,68  L 47,70  L 46,70  L 46,73  L 45,73  L 45,75  L 44,75  L 44,76  L 43,76  L 43,77  L 42,77  L 42,78  L 41,78  L 41,79  L 36,79  L 36,80  L 33,80  L 33,81  L 25,81  L 25,80  L 23,80  L 23,79  L 22,79  L 22,78  L 21,78  L 21,77  L 20,77  L 20,76  L 19,76  L 19,74  L 18,74  L 18,66  L 19,66  L 19,63  L 20,63  L 20,61  L 21,61  L 21,60  L 22,60  L 22,58  L 23,58  L 23,57  L 24,57  L 24,56  L 25,56  L 25,54  L 26,54  L 26,53  L 27,53  L 27,51  L 28,51  L 28,50  L 32,50  L 32,51  L 33,51  L 33,52  Z  " style="fill:rgb(0, 0, 0); fill-opacity:1.000; stroke:none;" />
 <path d="  M 62,142  L 66,142  L 66,141  L 70,141  L 70,140  L 73,140  L 73,139  L 74,139  L 74,138  L 76,138  L 76,137  L 78,137  L 78,136  L 80,136  L 80,135  L 81,135  L 81,134  L 82,134  L 82,133  L 83,133  L 83,131  L 84,131  L 84,130  L 85,130  L 85,128  L 86,128  L 86,125  L 87,125  L 87,123  L 88,123  L 88,122  L 87,122  L 87,119  L 88,119  L 88,118  L 87,118  L 87,117  L 88,117  L 88,113  L 87,113  L 87,111  L 88,111  L 88,110  L 87,110  L 87,108  L 86,108  L 86,107  L 85,107  L 85,106  L 84,106  L 84,105  L 83,105  L 83,104  L 82,104  L 82,103  L 80,103  L 80,102  L 78,102  L 78,101  L 66,101  L 66,100  L 56,100  L 56,99  L 48,99  L 48,100  L 46,100  L 46,101  L 45,101  L 45,102  L 43,102  L 43,103  L 42,103  L 42,104  L 41,104  L 41,105  L 40,105  L 40,106  L 39,106  L 39,107  L 38,107  L 38,109  L 37,109  L 37,110  L 36,110  L 36,112  L 35,112  L 35,114  L 34,114  L 34,115  L 33,115  L 33,117  L 32,117  L 32,118  L 31,118  L 31,121  L 30,121  L 30,122  L 29,122  L 29,125  L 28,125  L 28,134  L 29,134  L 29,135  L 30,135  L 30,137  L 31,137  L 31,138  L 32,138  L 32,139  L 33,139  L 33,140  L 35,140  L 35,141  L 36,141  L 36,142  L 39,142  L 39,143  L 62,143  Z  M 36,122  L 37,122  L 37,120  L 38,120  L 38,118  L 40,118  L 40,115  L 41,115  L 41,114  L 42,114  L 42,112  L 44,112  L 44,111  L 45,111  L 45,110  L 46,110  L 46,109  L 48,109  L 48,108  L 51,108  L 51,107  L 61,107  L 61,108  L 64,108  L 64,107  L 65,107  L 65,108  L 74,108  L 74,109  L 76,109  L 76,110  L 78,110  L 78,111  L 79,111  L 79,112  L 80,112  L 80,114  L 81,114  L 81,120  L 80,120  L 80,124  L 79,124  L 79,126  L 78,126  L 78,128  L 77,128  L 77,129  L 76,129  L 76,130  L 75,130  L 75,131  L 74,131  L 74,132  L 72,132  L 72,133  L 70,133  L 70,134  L 67,134  L 67,135  L 62,135  L 62,136  L 57,136  L 57,137  L 44,137  L 44,136  L 41,136  L 41,135  L 38,135  L 38,134  L 37,134  L 37,133  L 36,133  L 36,130  L 35,130  L 35,127  L 36,127  Z  " style="fill:rgb(0, 0, 0); fill-opacity:1.000; stroke:none;" />
 <path d="  M 100,50  L 100,51  L 99,51  L 99,50  L 96,50  L 96,51  L 95,51  L 95,50  L 92,50  L 92,51  L 85,51  L 85,52  L 84,52  L 84,51  L 79,51  L 79,50  L 78,50  L 78,49  L 77,49  L 77,47  L 76,47  L 76,44  L 77,44  L 77,42  L 79,42  L 79,41  L 85,41  L 85,40  L 98,40  L 98,39  L 102,39  L 102,38  L 103,38  L 103,35  L 102,35  L 102,34  L 101,34  L 101,33  L 95,33  L 95,34  L 94,34  L 94,33  L 92,33  L 92,34  L 90,34  L 90,33  L 89,33  L 89,34  L 81,34  L 81,35  L 80,35  L 80,34  L 77,34  L 77,30  L 76,30  L 76,29  L 77,29  L 77,28  L 76,28  L 76,20  L 75,20  L 75,19  L 76,19  L 76,18  L 75,18  L 75,13  L 74,13  L 74,12  L 73,12  L 73,11  L 72,11  L 72,10  L 70,10  L 70,11  L 69,11  L 69,13  L 70,13  L 70,21  L 71,21  L 71,27  L 72,27  L 72,28  L 71,28  L 71,29  L 72,29  L 72,59  L 73,59  L 73,60  L 72,60  L 72,62  L 73,62  L 73,70  L 74,70  L 74,81  L 75,81  L 75,88  L 76,88  L 76,91  L 78,91  L 78,92  L 79,92  L 79,91  L 81,91  L 81,89  L 82,89  L 82,88  L 81,88  L 81,80  L 80,80  L 80,67  L 79,67  L 79,65  L 80,65  L 80,64  L 79,64  L 79,61  L 80,61  L 80,60  L 81,60  L 81,59  L 84,59  L 84,58  L 94,58  L 94,57  L 95,57  L 95,58  L 96,58  L 96,57  L 107,57  L 107,50  Z  " style="fill:rgb(0, 0, 0); fill-opacity:1.000; stroke:none;" />
</svg>
