<?xml version="1.0" encoding="UTF-8" standalone="no"?>
<!DOCTYPE svg PUBLIC "-//W3C//DTD SVG 1.1//EN" 
  "http://www.w3.org/Graphics/SVG/1.1/DTD/svg11.dtd">
<svg width="101" height="185"
     xmlns="http://www.w3.org/2000/svg" version="1.1">
 <path d="  M 27,17  L 28,17  L 28,18  L 27,18  L 27,19  L 28,19  L 28,23  L 29,23  L 29,29  L 30,29  L 30,34  L 31,34  L 31,36  L 28,36  L 28,37  L 20,37  L 20,38  L 13,38  L 13,39  L 10,39  L 10,40  L 7,40  L 7,41  L 2,41  L 2,42  L 1,42  L 1,43  L 0,43  L 0,46  L 1,46  L 1,47  L 4,47  L 4,48  L 6,48  L 6,47  L 10,47  L 10,46  L 12,46  L 12,47  L 13,47  L 13,46  L 14,46  L 14,45  L 20,45  L 20,44  L 26,44  L 26,43  L 34,43  L 34,42  L 36,42  L 36,43  L 37,43  L 37,42  L 40,42  L 40,41  L 48,41  L 48,40  L 49,40  L 49,41  L 50,41  L 50,40  L 51,40  L 51,41  L 52,41  L 52,40  L 62,40  L 62,39  L 63,39  L 63,38  L 64,38  L 64,37  L 65,37  L 65,33  L 63,33  L 63,32  L 44,32  L 44,33  L 37,33  L 37,27  L 36,27  L 36,21  L 35,21  L 35,19  L 36,19  L 36,18  L 35,18  L 35,12  L 34,12  L 34,7  L 33,7  L 33,3  L 32,3  L 32,1  L 31,1  L 31,0  L 30,0  L 30,1  L 29,1  L 29,2  L 28,2  L 28,4  L 27,4  L 27,6  L 26,6  L 26,7  L 27,7  Z  " style="fill:rgb(0, 0, 0); fill-opacity:1.000; stroke:none;" />
 <path d="  M 47,100  L 47,99  L 48,99  L 48,98  L 50,98  L 50,97  L 51,97  L 51,96  L 52,96  L 52,95  L 53,95  L 53,94  L 54,94  L 54,92  L 56,92  L 56,90  L 57,90  L 57,88  L 58,88  L 58,86  L 59,86  L 59,83  L 60,83  L 60,74  L 59,74  L 59,71  L 58,71  L 58,70  L 57,70  L 57,69  L 56,69  L 56,67  L 55,67  L 55,66  L 54,66  L 54,65  L 53,65  L 53,64  L 52,64  L 52,63  L 51,63  L 51,62  L 49,62  L 49,61  L 48,61  L 48,60  L 46,60  L 46,59  L 45,59  L 45,58  L 43,58  L 43,57  L 42,57  L 42,56  L 40,56  L 40,55  L 39,55  L 39,54  L 37,54  L 37,53  L 29,53  L 29,54  L 27,54  L 27,55  L 26,55  L 26,56  L 24,56  L 24,58  L 23,58  L 23,59  L 22,59  L 22,61  L 21,61  L 21,62  L 20,62  L 20,64  L 19,64  L 19,65  L 18,65  L 18,67  L 17,67  L 17,69  L 16,69  L 16,70  L 15,70  L 15,71  L 16,71  L 16,72  L 15,72  L 15,73  L 14,73  L 14,76  L 13,76  L 13,80  L 12,80  L 12,85  L 11,85  L 11,93  L 12,93  L 12,97  L 13,97  L 13,98  L 14,98  L 14,99  L 15,99  L 15,100  L 16,100  L 16,101  L 18,101  L 18,102  L 20,102  L 20,103  L 22,103  L 22,104  L 27,104  L 27,105  L 30,105  L 30,104  L 31,104  L 31,105  L 33,105  L 33,104  L 38,104  L 38,103  L 41,103  L 41,102  L 43,102  L 43,101  L 45,101  L 45,100  Z  M 53,81  L 52,81  L 52,84  L 51,84  L 51,86  L 50,86  L 50,88  L 49,88  L 49,89  L 48,89  L 48,90  L 47,90  L 47,91  L 46,91  L 46,92  L 44,92  L 44,93  L 43,93  L 43,94  L 42,94  L 42,95  L 39,95  L 39,96  L 36,96  L 36,97  L 28,97  L 28,96  L 23,96  L 23,95  L 21,95  L 21,94  L 19,94  L 19,93  L 18,93  L 18,84  L 19,84  L 19,79  L 20,79  L 20,77  L 21,77  L 21,75  L 22,75  L 22,73  L 23,73  L 23,72  L 24,72  L 24,69  L 25,69  L 25,68  L 26,68  L 26,66  L 27,66  L 27,65  L 28,65  L 28,64  L 29,64  L 29,63  L 30,63  L 30,62  L 31,62  L 31,61  L 34,61  L 34,62  L 35,62  L 35,63  L 37,63  L 37,64  L 39,64  L 39,65  L 42,65  L 42,66  L 44,66  L 44,67  L 46,67  L 46,68  L 47,68  L 47,69  L 48,69  L 48,70  L 49,70  L 49,71  L 50,71  L 50,72  L 51,72  L 51,73  L 52,73  L 52,76  L 53,76  Z  " style="fill:rgb(0, 0, 0); fill-opacity:1.000; stroke:none;" />
 <path d="  M 54,119  L 54,118  L 53,118  L 53,119  L 49,119  L 49,120  L 43,120  L 43,121  L 39,121  L 39,122  L 36,122  L 36,123  L 34,123  L 34,124  L 32,124  L 32,129  L 35,129  L 35,130  L 39,130  L 39,129  L 41,129  L 41,128  L 45,128  L 45,127  L 50,127  L 50,126  L 51,126  L 51,127  L 53,127  L 53,126  L 62,126  L 62,125  L 63,125  L 63,126  L 64,126  L 64,125  L 78,125  L 78,126  L 81,126  L 81,127  L 84,127  L 84,128  L 86,128  L 86,129  L 88,129  L 88,130  L 89,130  L 89,131  L 90,131  L 90,133  L 91,133  L 91,134  L 92,134  L 92,136  L 91,136  L 91,139  L 90,139  L 90,142  L 89,142  L 89,144  L 88,144  L 88,148  L 87,148  L 87,154  L 86,154  L 86,158  L 85,158  L 85,164  L 84,164  L 84,169  L 83,169  L 83,171  L 82,171  L 82,173  L 81,173  L 81,176  L 80,176  L 80,180  L 79,180  L 79,182  L 80,182  L 80,185  L 84,185  L 84,184  L 85,184  L 85,183  L 86,183  L 86,182  L 87,182  L 87,180  L 88,180  L 88,178  L 89,178  L 89,176  L 90,176  L 90,172  L 91,172  L 91,171  L 92,171  L 92,170  L 91,170  L 91,168  L 92,168  L 92,164  L 93,164  L 93,159  L 94,159  L 94,155  L 95,155  L 95,151  L 96,151  L 96,150  L 95,150  L 95,148  L 96,148  L 96,145  L 97,145  L 97,138  L 98,138  L 98,131  L 97,131  L 97,128  L 96,128  L 96,126  L 95,126  L 95,125  L 94,125  L 94,124  L 92,124  L 92,123  L 90,123  L 90,122  L 89,122  L 89,121  L 87,121  L 87,120  L 84,120  L 84,119  L 81,119  L 81,118  L 76,118  L 76,117  L 69,117  L 69,118  L 59,118  L 59,119  L 58,119  L 58,118  L 57,118  L 57,119  Z  " style="fill:rgb(0, 0, 0); fill-opacity:1.000; stroke:none;" />
 <path d="  M 101,42  L 100,42  L 100,34  L 99,34  L 99,27  L 98,27  L 98,21  L 97,21  L 97,17  L 96,17  L 96,16  L 94,16  L 94,15  L 93,15  L 93,16  L 92,16  L 92,17  L 91,17  L 91,18  L 90,18  L 90,19  L 91,19  L 91,25  L 92,25  L 92,31  L 93,31  L 93,39  L 94,39  L 94,49  L 95,49  L 95,54  L 94,54  L 94,55  L 88,55  L 88,56  L 80,56  L 80,57  L 75,57  L 75,58  L 72,58  L 72,59  L 69,59  L 69,60  L 68,60  L 68,61  L 66,61  L 66,62  L 64,62  L 64,65  L 63,65  L 63,66  L 64,66  L 64,68  L 67,68  L 67,67  L 69,67  L 69,66  L 73,66  L 73,65  L 76,65  L 76,64  L 77,64  L 77,65  L 78,65  L 78,64  L 83,64  L 83,63  L 85,63  L 85,64  L 86,64  L 86,63  L 94,63  L 94,64  L 95,64  L 95,67  L 94,67  L 94,69  L 95,69  L 95,71  L 94,71  L 94,76  L 95,76  L 95,77  L 94,77  L 94,78  L 95,78  L 95,81  L 94,81  L 94,82  L 95,82  L 95,85  L 94,85  L 94,86  L 95,86  L 95,89  L 94,89  L 94,105  L 95,105  L 95,107  L 96,107  L 96,108  L 99,108  L 99,105  L 100,105  L 100,103  L 101,103  Z  " style="fill:rgb(0, 0, 0); fill-opacity:1.000; stroke:none;" />
</svg>
