<?xml version="1.0" encoding="UTF-8" standalone="no"?>
<!DOCTYPE svg PUBLIC "-//W3C//DTD SVG 1.1//EN" 
  "http://www.w3.org/Graphics/SVG/1.1/DTD/svg11.dtd">
<svg width="103" height="152"
     xmlns="http://www.w3.org/2000/svg" version="1.1">
 <path d="  M 34,2  L 33,2  L 33,0  L 29,0  L 29,2  L 28,2  L 28,4  L 27,4  L 27,6  L 28,6  L 28,7  L 27,7  L 27,10  L 28,10  L 28,11  L 27,11  L 27,12  L 28,12  L 28,17  L 29,17  L 29,29  L 30,29  L 30,30  L 32,30  L 32,31  L 30,31  L 30,32  L 17,32  L 17,33  L 15,33  L 15,32  L 14,32  L 14,33  L 12,33  L 12,34  L 8,34  L 8,35  L 1,35  L 1,37  L 0,37  L 0,39  L 1,39  L 1,41  L 8,41  L 8,40  L 9,40  L 9,41  L 10,41  L 10,40  L 12,40  L 12,39  L 17,39  L 17,38  L 18,38  L 18,39  L 19,39  L 19,38  L 20,38  L 20,39  L 21,39  L 21,38  L 30,38  L 30,37  L 39,37  L 39,36  L 40,36  L 40,37  L 42,37  L 42,36  L 44,36  L 44,37  L 46,37  L 46,36  L 57,36  L 57,37  L 58,37  L 58,36  L 59,36  L 59,35  L 60,35  L 60,31  L 59,31  L 59,30  L 57,30  L 57,29  L 51,29  L 51,28  L 50,28  L 50,29  L 47,29  L 47,28  L 46,28  L 46,29  L 42,29  L 42,30  L 36,30  L 36,28  L 37,28  L 37,24  L 36,24  L 36,16  L 35,16  L 35,15  L 36,15  L 36,14  L 35,14  L 35,7  L 34,7  Z  " style="fill:rgb(0, 0, 0); fill-opacity:1.000; stroke:none;" />
 <path d="  M 21,88  L 21,87  L 19,87  L 19,86  L 18,86  L 18,84  L 17,84  L 17,72  L 18,72  L 18,71  L 19,71  L 19,68  L 20,68  L 20,66  L 21,66  L 21,65  L 22,65  L 22,64  L 23,64  L 23,62  L 24,62  L 24,60  L 25,60  L 25,59  L 26,59  L 26,58  L 27,58  L 27,57  L 29,57  L 29,56  L 35,56  L 35,57  L 38,57  L 38,58  L 41,58  L 41,59  L 43,59  L 43,60  L 45,60  L 45,61  L 47,61  L 47,62  L 48,62  L 48,63  L 49,63  L 49,65  L 51,65  L 51,67  L 50,67  L 50,69  L 51,69  L 51,71  L 50,71  L 50,76  L 49,76  L 49,78  L 48,78  L 48,80  L 47,80  L 47,83  L 46,83  L 46,84  L 45,84  L 45,85  L 44,85  L 44,86  L 43,86  L 43,87  L 40,87  L 40,88  L 36,88  L 36,89  L 24,89  L 24,88  Z  M 67,65  L 67,64  L 73,64  L 73,63  L 80,63  L 80,62  L 84,62  L 84,61  L 85,61  L 85,63  L 86,63  L 86,97  L 87,97  L 87,98  L 91,98  L 91,97  L 93,97  L 93,96  L 92,96  L 92,95  L 93,95  L 93,94  L 92,94  L 92,93  L 93,93  L 93,92  L 92,92  L 92,89  L 93,89  L 93,88  L 92,88  L 92,85  L 93,85  L 93,84  L 92,84  L 92,81  L 93,81  L 93,80  L 92,80  L 92,77  L 93,77  L 93,76  L 92,76  L 92,73  L 93,73  L 93,72  L 92,72  L 92,69  L 93,69  L 93,68  L 92,68  L 92,65  L 93,65  L 93,64  L 92,64  L 92,61  L 93,61  L 93,60  L 92,60  L 92,57  L 93,57  L 93,56  L 92,56  L 92,53  L 91,53  L 91,46  L 90,46  L 90,38  L 89,38  L 89,32  L 88,32  L 88,29  L 89,29  L 89,28  L 88,28  L 88,23  L 87,23  L 87,15  L 86,15  L 86,14  L 87,14  L 87,13  L 86,13  L 86,12  L 80,12  L 80,19  L 81,19  L 81,26  L 82,26  L 82,35  L 83,35  L 83,43  L 84,43  L 84,51  L 85,51  L 85,55  L 79,55  L 79,56  L 73,56  L 73,57  L 67,57  L 67,58  L 64,58  L 64,59  L 62,59  L 62,60  L 61,60  L 61,61  L 60,61  L 60,63  L 59,63  L 59,64  L 58,64  L 58,63  L 56,63  L 56,61  L 55,61  L 55,60  L 54,60  L 54,59  L 53,59  L 53,58  L 52,58  L 52,57  L 51,57  L 51,56  L 49,56  L 49,55  L 48,55  L 48,54  L 46,54  L 46,53  L 44,53  L 44,52  L 42,52  L 42,51  L 40,51  L 40,50  L 37,50  L 37,49  L 35,49  L 35,48  L 27,48  L 27,49  L 25,49  L 25,50  L 24,50  L 24,51  L 23,51  L 23,52  L 22,52  L 22,53  L 21,53  L 21,54  L 20,54  L 20,56  L 19,56  L 19,57  L 18,57  L 18,58  L 17,58  L 17,60  L 16,60  L 16,62  L 15,62  L 15,63  L 14,63  L 14,65  L 13,65  L 13,67  L 12,67  L 12,70  L 11,70  L 11,74  L 10,74  L 10,85  L 11,85  L 11,88  L 12,88  L 12,89  L 13,89  L 13,91  L 15,91  L 15,92  L 16,92  L 16,93  L 18,93  L 18,94  L 20,94  L 20,95  L 21,95  L 21,96  L 24,96  L 24,97  L 31,97  L 31,96  L 37,96  L 37,95  L 41,95  L 41,94  L 42,94  L 42,93  L 45,93  L 45,92  L 46,92  L 46,91  L 47,91  L 47,90  L 49,90  L 49,89  L 50,89  L 50,88  L 51,88  L 51,87  L 52,87  L 52,86  L 53,86  L 53,84  L 54,84  L 54,82  L 55,82  L 55,80  L 56,80  L 56,77  L 57,77  L 57,75  L 58,75  L 58,71  L 59,71  L 59,69  L 58,69  L 58,68  L 59,68  L 59,67  L 61,67  L 61,66  L 65,66  L 65,65  Z  " style="fill:rgb(0, 0, 0); fill-opacity:1.000; stroke:none;" />
 <path d="  M 24,132  L 24,137  L 25,137  L 25,138  L 24,138  L 24,139  L 25,139  L 25,142  L 26,142  L 26,145  L 27,145  L 27,147  L 28,147  L 28,149  L 29,149  L 29,150  L 30,150  L 30,151  L 33,151  L 33,152  L 58,152  L 58,151  L 63,151  L 63,150  L 64,150  L 64,151  L 65,151  L 65,150  L 73,150  L 73,149  L 79,149  L 79,148  L 80,148  L 80,149  L 82,149  L 82,148  L 90,148  L 90,147  L 98,147  L 98,146  L 103,146  L 103,139  L 102,139  L 102,138  L 101,138  L 101,139  L 98,139  L 98,140  L 93,140  L 93,141  L 91,141  L 91,140  L 90,140  L 90,141  L 86,141  L 86,142  L 85,142  L 85,141  L 84,141  L 84,142  L 77,142  L 77,143  L 69,143  L 69,144  L 68,144  L 68,143  L 67,143  L 67,144  L 62,144  L 62,145  L 61,145  L 61,144  L 60,144  L 60,145  L 59,145  L 59,144  L 58,144  L 58,145  L 50,145  L 50,146  L 49,146  L 49,145  L 48,145  L 48,146  L 36,146  L 36,145  L 34,145  L 34,142  L 33,142  L 33,134  L 32,134  L 32,110  L 31,110  L 31,109  L 29,109  L 29,108  L 28,108  L 28,109  L 25,109  L 25,111  L 24,111  L 24,123  L 23,123  L 23,124  L 24,124  L 24,127  L 23,127  L 23,130  L 24,130  L 24,131  L 23,131  L 23,132  Z  " style="fill:rgb(0, 0, 0); fill-opacity:1.000; stroke:none;" />
</svg>
