<?xml version="1.0" encoding="UTF-8" standalone="no"?>
<!DOCTYPE svg PUBLIC "-//W3C//DTD SVG 1.1//EN" 
  "http://www.w3.org/Graphics/SVG/1.1/DTD/svg11.dtd">
<svg width="100" height="169"
     xmlns="http://www.w3.org/2000/svg" version="1.1">
 <path d="  M 28,8  L 28,9  L 27,9  L 27,10  L 28,10  L 28,19  L 29,19  L 29,24  L 30,24  L 30,32  L 31,32  L 31,35  L 23,35  L 23,34  L 22,34  L 22,35  L 18,35  L 18,36  L 13,36  L 13,37  L 9,37  L 9,38  L 6,38  L 6,39  L 3,39  L 3,40  L 0,40  L 0,44  L 1,44  L 1,45  L 3,45  L 3,46  L 5,46  L 5,45  L 9,45  L 9,44  L 13,44  L 13,43  L 22,43  L 22,42  L 25,42  L 25,43  L 26,43  L 26,42  L 32,42  L 32,41  L 34,41  L 34,42  L 35,42  L 35,41  L 39,41  L 39,40  L 40,40  L 40,41  L 41,41  L 41,40  L 51,40  L 51,39  L 52,39  L 52,40  L 54,40  L 54,39  L 62,39  L 62,37  L 63,37  L 63,35  L 64,35  L 64,32  L 60,32  L 60,31  L 58,31  L 58,32  L 40,32  L 40,33  L 39,33  L 39,32  L 38,32  L 38,30  L 37,30  L 37,29  L 38,29  L 38,28  L 37,28  L 37,22  L 36,22  L 36,19  L 37,19  L 37,18  L 36,18  L 36,12  L 35,12  L 35,7  L 34,7  L 34,3  L 33,3  L 33,1  L 32,1  L 32,0  L 29,0  L 29,2  L 28,2  L 28,5  L 27,5  L 27,8  Z  " style="fill:rgb(0, 0, 0); fill-opacity:1.000; stroke:none;" />
 <path d="  M 36,60  L 36,61  L 39,61  L 39,62  L 40,62  L 40,63  L 42,63  L 42,64  L 45,64  L 45,65  L 47,65  L 47,66  L 48,66  L 48,67  L 49,67  L 49,68  L 50,68  L 50,69  L 51,69  L 51,70  L 52,70  L 52,71  L 53,71  L 53,74  L 54,74  L 54,77  L 53,77  L 53,81  L 52,81  L 52,84  L 51,84  L 51,86  L 50,86  L 50,87  L 49,87  L 49,88  L 48,88  L 48,89  L 46,89  L 46,90  L 44,90  L 44,91  L 40,91  L 40,92  L 37,92  L 37,93  L 25,93  L 25,92  L 23,92  L 23,91  L 21,91  L 21,90  L 20,90  L 20,89  L 19,89  L 19,87  L 18,87  L 18,80  L 19,80  L 19,76  L 20,76  L 20,74  L 21,74  L 21,71  L 22,71  L 22,69  L 23,69  L 23,68  L 24,68  L 24,67  L 25,67  L 25,65  L 26,65  L 26,64  L 27,64  L 27,62  L 28,62  L 28,61  L 30,61  L 30,60  Z  M 14,69  L 14,72  L 13,72  L 13,74  L 12,74  L 12,80  L 11,80  L 11,86  L 12,86  L 12,91  L 13,91  L 13,93  L 14,93  L 14,94  L 15,94  L 15,95  L 16,95  L 16,96  L 17,96  L 17,97  L 20,97  L 20,98  L 22,98  L 22,99  L 23,99  L 23,100  L 29,100  L 29,101  L 35,101  L 35,100  L 39,100  L 39,99  L 42,99  L 42,98  L 44,98  L 44,97  L 47,97  L 47,96  L 50,96  L 50,95  L 52,95  L 52,94  L 53,94  L 53,93  L 54,93  L 54,92  L 55,92  L 55,91  L 56,91  L 56,90  L 57,90  L 57,88  L 58,88  L 58,86  L 59,86  L 59,84  L 60,84  L 60,80  L 61,80  L 61,72  L 60,72  L 60,69  L 59,69  L 59,68  L 58,68  L 58,66  L 56,66  L 56,65  L 55,65  L 55,63  L 54,63  L 54,62  L 52,62  L 52,61  L 51,61  L 51,60  L 50,60  L 50,59  L 48,59  L 48,58  L 46,58  L 46,57  L 45,57  L 45,56  L 43,56  L 43,55  L 41,55  L 41,54  L 39,54  L 39,53  L 35,53  L 35,52  L 31,52  L 31,53  L 27,53  L 27,54  L 25,54  L 25,55  L 24,55  L 24,56  L 23,56  L 23,57  L 22,57  L 22,58  L 21,58  L 21,60  L 20,60  L 20,61  L 19,61  L 19,63  L 18,63  L 18,64  L 17,64  L 17,66  L 16,66  L 16,68  L 15,68  L 15,69  Z  " style="fill:rgb(0, 0, 0); fill-opacity:1.000; stroke:none;" />
 <path d="  M 72,123  L 72,122  L 73,122  L 73,123  L 74,123  L 74,122  L 77,122  L 77,123  L 78,123  L 78,122  L 81,122  L 81,121  L 82,121  L 82,122  L 83,122  L 83,121  L 86,121  L 86,122  L 92,122  L 92,123  L 93,123  L 93,132  L 92,132  L 92,134  L 93,134  L 93,135  L 92,135  L 92,142  L 91,142  L 91,149  L 90,149  L 90,156  L 89,156  L 89,158  L 88,158  L 88,159  L 86,159  L 86,160  L 82,160  L 82,161  L 73,161  L 73,162  L 72,162  L 72,161  L 69,161  L 69,162  L 50,162  L 50,163  L 49,163  L 49,162  L 46,162  L 46,161  L 45,161  L 45,158  L 44,158  L 44,147  L 43,147  L 43,146  L 44,146  L 44,144  L 43,144  L 43,127  L 44,127  L 44,126  L 45,126  L 45,125  L 50,125  L 50,124  L 52,124  L 52,125  L 53,125  L 53,124  L 62,124  L 62,123  Z  M 37,155  L 38,155  L 38,157  L 37,157  L 37,159  L 38,159  L 38,164  L 39,164  L 39,166  L 40,166  L 40,167  L 42,167  L 42,168  L 44,168  L 44,169  L 73,169  L 73,168  L 79,168  L 79,167  L 86,167  L 86,166  L 87,166  L 87,165  L 90,165  L 90,164  L 92,164  L 92,163  L 95,163  L 95,162  L 96,162  L 96,159  L 97,159  L 97,153  L 98,153  L 98,144  L 99,144  L 99,137  L 100,137  L 100,136  L 99,136  L 99,133  L 100,133  L 100,121  L 99,121  L 99,119  L 98,119  L 98,118  L 97,118  L 97,116  L 95,116  L 95,115  L 93,115  L 93,114  L 78,114  L 78,115  L 75,115  L 75,114  L 74,114  L 74,115  L 71,115  L 71,116  L 64,116  L 64,117  L 63,117  L 63,116  L 62,116  L 62,117  L 53,117  L 53,118  L 52,118  L 52,117  L 51,117  L 51,118  L 37,118  L 37,119  L 32,119  L 32,120  L 30,120  L 30,123  L 31,123  L 31,124  L 32,124  L 32,125  L 33,125  L 33,126  L 36,126  L 36,128  L 37,128  Z  " style="fill:rgb(0, 0, 0); fill-opacity:1.000; stroke:none;" />
 <path d="  M 69,65  L 72,65  L 72,64  L 75,64  L 75,63  L 79,63  L 79,62  L 80,62  L 80,63  L 82,63  L 82,62  L 90,62  L 90,61  L 92,61  L 92,62  L 93,62  L 93,72  L 92,72  L 92,73  L 93,73  L 93,76  L 92,76  L 92,77  L 93,77  L 93,80  L 92,80  L 92,81  L 93,81  L 93,84  L 92,84  L 92,85  L 93,85  L 93,88  L 92,88  L 92,89  L 93,89  L 93,92  L 92,92  L 92,93  L 93,93  L 93,95  L 92,95  L 92,99  L 93,99  L 93,101  L 95,101  L 95,102  L 98,102  L 98,101  L 99,101  L 99,100  L 100,100  L 100,51  L 99,51  L 99,48  L 98,48  L 98,44  L 97,44  L 97,40  L 96,40  L 96,36  L 95,36  L 95,32  L 94,32  L 94,28  L 93,28  L 93,24  L 92,24  L 92,23  L 93,23  L 93,22  L 92,22  L 92,17  L 91,17  L 91,15  L 89,15  L 89,14  L 87,14  L 87,15  L 86,15  L 86,18  L 85,18  L 85,21  L 86,21  L 86,28  L 87,28  L 87,32  L 88,32  L 88,36  L 89,36  L 89,42  L 90,42  L 90,45  L 91,45  L 91,47  L 92,47  L 92,50  L 93,50  L 93,51  L 92,51  L 92,52  L 91,52  L 91,53  L 88,53  L 88,54  L 85,54  L 85,55  L 83,55  L 83,54  L 82,54  L 82,55  L 80,55  L 80,56  L 72,56  L 72,57  L 68,57  L 68,58  L 67,58  L 67,59  L 65,59  L 65,61  L 64,61  L 64,62  L 63,62  L 63,66  L 65,66  L 65,67  L 66,67  L 66,66  L 69,66  Z  " style="fill:rgb(0, 0, 0); fill-opacity:1.000; stroke:none;" />
</svg>
