<?xml version="1.0" encoding="UTF-8" standalone="no"?>
<!DOCTYPE svg PUBLIC "-//W3C//DTD SVG 1.1//EN" 
  "http://www.w3.org/Graphics/SVG/1.1/DTD/svg11.dtd">
<svg width="106" height="154"
     xmlns="http://www.w3.org/2000/svg" version="1.1">
 <path d="  M 3,33  L 3,34  L 5,34  L 5,35  L 6,35  L 6,34  L 8,34  L 8,33  L 14,33  L 14,32  L 22,32  L 22,31  L 24,31  L 24,32  L 25,32  L 25,31  L 28,31  L 28,32  L 29,32  L 29,31  L 36,31  L 36,30  L 37,30  L 37,31  L 38,31  L 38,30  L 46,30  L 46,29  L 47,29  L 47,30  L 48,30  L 48,29  L 49,29  L 49,30  L 50,30  L 50,29  L 51,29  L 51,30  L 52,30  L 52,29  L 60,29  L 60,24  L 59,24  L 59,23  L 54,23  L 54,22  L 53,22  L 53,23  L 50,23  L 50,22  L 49,22  L 49,23  L 42,23  L 42,22  L 41,22  L 41,23  L 32,23  L 32,22  L 33,22  L 33,10  L 34,10  L 34,7  L 35,7  L 35,1  L 32,1  L 32,0  L 31,0  L 31,1  L 30,1  L 30,2  L 28,2  L 28,3  L 26,3  L 26,6  L 25,6  L 25,12  L 26,12  L 26,13  L 25,13  L 25,14  L 26,14  L 26,15  L 25,15  L 25,16  L 26,16  L 26,19  L 27,19  L 27,22  L 28,22  L 28,24  L 24,24  L 24,25  L 19,25  L 19,26  L 18,26  L 18,25  L 17,25  L 17,26  L 14,26  L 14,27  L 8,27  L 8,28  L 3,28  L 3,29  L 0,29  L 0,32  L 1,32  L 1,33  Z  " style="fill:rgb(0, 0, 0); fill-opacity:1.000; stroke:none;" />
 <path d="  M 63,52  L 63,51  L 68,51  L 68,50  L 70,50  L 70,49  L 76,49  L 76,48  L 78,48  L 78,49  L 79,49  L 79,78  L 80,78  L 80,85  L 81,85  L 81,87  L 82,87  L 82,88  L 83,88  L 83,89  L 85,89  L 85,88  L 86,88  L 86,81  L 87,81  L 87,73  L 86,73  L 86,72  L 87,72  L 87,71  L 86,71  L 86,68  L 87,68  L 87,67  L 86,67  L 86,64  L 87,64  L 87,63  L 86,63  L 86,60  L 87,60  L 87,59  L 86,59  L 86,56  L 87,56  L 87,55  L 86,55  L 86,54  L 87,54  L 87,53  L 86,53  L 86,52  L 87,52  L 87,49  L 86,49  L 86,48  L 87,48  L 87,45  L 86,45  L 86,44  L 87,44  L 87,41  L 86,41  L 86,40  L 87,40  L 87,29  L 86,29  L 86,28  L 87,28  L 87,25  L 86,25  L 86,24  L 87,24  L 87,21  L 86,21  L 86,20  L 87,20  L 87,9  L 86,9  L 86,7  L 84,7  L 84,6  L 81,6  L 81,7  L 80,7  L 80,39  L 79,39  L 79,40  L 77,40  L 77,41  L 74,41  L 74,42  L 73,42  L 73,41  L 72,41  L 72,42  L 69,42  L 69,43  L 65,43  L 65,44  L 63,44  L 63,45  L 60,45  L 60,46  L 58,46  L 58,47  L 55,47  L 55,48  L 52,48  L 52,50  L 51,50  L 51,51  L 49,51  L 49,52  L 48,52  L 48,53  L 50,53  L 50,54  L 51,54  L 51,55  L 48,55  L 48,54  L 47,54  L 47,53  L 46,53  L 46,52  L 44,52  L 44,51  L 42,51  L 42,50  L 40,50  L 40,49  L 38,49  L 38,48  L 37,48  L 37,47  L 35,47  L 35,46  L 34,46  L 34,45  L 32,45  L 32,44  L 30,44  L 30,43  L 28,43  L 28,42  L 27,42  L 27,41  L 24,41  L 24,42  L 22,42  L 22,43  L 21,43  L 21,44  L 20,44  L 20,45  L 19,45  L 19,47  L 18,47  L 18,48  L 17,48  L 17,50  L 16,50  L 16,52  L 15,52  L 15,53  L 14,53  L 14,55  L 13,55  L 13,58  L 12,58  L 12,62  L 11,62  L 11,67  L 10,67  L 10,68  L 11,68  L 11,71  L 12,71  L 12,72  L 11,72  L 11,74  L 12,74  L 12,75  L 13,75  L 13,76  L 14,76  L 14,77  L 13,77  L 13,78  L 15,78  L 15,79  L 16,79  L 16,80  L 17,80  L 17,82  L 18,82  L 18,83  L 19,83  L 19,84  L 20,84  L 20,85  L 23,85  L 23,86  L 24,86  L 24,87  L 25,87  L 25,86  L 26,86  L 26,88  L 27,88  L 27,89  L 29,89  L 29,88  L 31,88  L 31,87  L 33,87  L 33,86  L 34,86  L 34,85  L 37,85  L 37,84  L 39,84  L 39,83  L 41,83  L 41,82  L 43,82  L 43,81  L 44,81  L 44,80  L 45,80  L 45,79  L 46,79  L 46,78  L 47,78  L 47,77  L 48,77  L 48,76  L 49,76  L 49,75  L 50,75  L 50,73  L 51,73  L 51,72  L 52,72  L 52,68  L 53,68  L 53,62  L 52,62  L 52,59  L 51,59  L 51,58  L 52,58  L 52,56  L 53,56  L 53,55  L 55,55  L 55,54  L 56,54  L 56,53  L 60,53  L 60,52  Z  M 17,63  L 18,63  L 18,59  L 19,59  L 19,58  L 20,58  L 20,57  L 21,57  L 21,55  L 22,55  L 22,54  L 23,54  L 23,52  L 24,52  L 24,51  L 26,51  L 26,50  L 28,50  L 28,51  L 31,51  L 31,52  L 33,52  L 33,53  L 35,53  L 35,54  L 37,54  L 37,55  L 38,55  L 38,56  L 39,56  L 39,57  L 40,57  L 40,58  L 43,58  L 43,59  L 44,59  L 44,60  L 45,60  L 45,62  L 46,62  L 46,68  L 45,68  L 45,70  L 44,70  L 44,72  L 43,72  L 43,74  L 41,74  L 41,75  L 40,75  L 40,76  L 38,76  L 38,77  L 36,77  L 36,78  L 33,78  L 33,79  L 29,79  L 29,80  L 25,80  L 25,79  L 23,79  L 23,78  L 22,78  L 22,77  L 20,77  L 20,76  L 18,76  L 18,73  L 17,73  Z  " style="fill:rgb(0, 0, 0); fill-opacity:1.000; stroke:none;" />
 <path d="  M 85,99  L 85,98  L 83,98  L 83,97  L 81,97  L 81,96  L 75,96  L 75,95  L 47,95  L 47,96  L 44,96  L 44,97  L 43,97  L 43,98  L 42,98  L 42,101  L 43,101  L 43,102  L 44,102  L 44,103  L 48,103  L 48,102  L 51,102  L 51,101  L 72,101  L 72,102  L 76,102  L 76,103  L 77,103  L 77,104  L 80,104  L 80,105  L 82,105  L 82,106  L 84,106  L 84,107  L 85,107  L 85,108  L 86,108  L 86,109  L 85,109  L 85,111  L 84,111  L 84,112  L 82,112  L 82,113  L 79,113  L 79,114  L 77,114  L 77,115  L 73,115  L 73,116  L 70,116  L 70,117  L 66,117  L 66,118  L 64,118  L 64,119  L 60,119  L 60,120  L 58,120  L 58,121  L 56,121  L 56,122  L 54,122  L 54,123  L 52,123  L 52,124  L 51,124  L 51,125  L 49,125  L 49,126  L 48,126  L 48,127  L 47,127  L 47,128  L 46,128  L 46,129  L 45,129  L 45,131  L 44,131  L 44,132  L 43,132  L 43,136  L 42,136  L 42,139  L 41,139  L 41,141  L 42,141  L 42,145  L 43,145  L 43,150  L 44,150  L 44,151  L 45,151  L 45,152  L 48,152  L 48,154  L 70,154  L 70,153  L 74,153  L 74,152  L 78,152  L 78,151  L 81,151  L 81,150  L 84,150  L 84,149  L 86,149  L 86,148  L 88,148  L 88,147  L 90,147  L 90,146  L 92,146  L 92,145  L 96,145  L 96,144  L 98,144  L 98,143  L 101,143  L 101,142  L 103,142  L 103,141  L 105,141  L 105,139  L 106,139  L 106,135  L 105,135  L 105,134  L 101,134  L 101,135  L 97,135  L 97,136  L 95,136  L 95,137  L 93,137  L 93,138  L 90,138  L 90,139  L 89,139  L 89,140  L 86,140  L 86,141  L 84,141  L 84,142  L 81,142  L 81,143  L 79,143  L 79,144  L 78,144  L 78,145  L 73,145  L 73,146  L 70,146  L 70,147  L 65,147  L 65,148  L 54,148  L 54,147  L 51,147  L 51,146  L 50,146  L 50,145  L 49,145  L 49,134  L 50,134  L 50,133  L 52,133  L 52,132  L 53,132  L 53,131  L 54,131  L 54,130  L 56,130  L 56,129  L 59,129  L 59,128  L 61,128  L 61,127  L 63,127  L 63,126  L 65,126  L 65,125  L 68,125  L 68,124  L 70,124  L 70,123  L 74,123  L 74,122  L 77,122  L 77,121  L 80,121  L 80,120  L 84,120  L 84,119  L 86,119  L 86,118  L 88,118  L 88,117  L 89,117  L 89,116  L 90,116  L 90,115  L 92,115  L 92,113  L 94,113  L 94,108  L 93,108  L 93,106  L 92,106  L 92,103  L 91,103  L 91,101  L 89,101  L 89,100  L 88,100  L 88,99  Z  " style="fill:rgb(0, 0, 0); fill-opacity:1.000; stroke:none;" />
 <path d="  M 99,90  L 100,90  L 100,91  L 101,91  L 101,92  L 104,92  L 104,91  L 105,91  L 105,89  L 106,89  L 106,86  L 105,86  L 105,84  L 106,84  L 106,82  L 105,82  L 105,81  L 106,81  L 106,9  L 105,9  L 105,8  L 104,8  L 104,7  L 103,7  L 103,8  L 101,8  L 101,9  L 100,9  L 100,12  L 99,12  Z  " style="fill:rgb(0, 0, 0); fill-opacity:1.000; stroke:none;" />
</svg>
