<?xml version="1.0" encoding="UTF-8" standalone="no"?>
<!DOCTYPE svg PUBLIC "-//W3C//DTD SVG 1.1//EN" 
  "http://www.w3.org/Graphics/SVG/1.1/DTD/svg11.dtd">
<svg width="107" height="145"
     xmlns="http://www.w3.org/2000/svg" version="1.1">
 <path d="  M 21,35  L 21,34  L 26,34  L 26,33  L 34,33  L 34,32  L 35,32  L 35,33  L 36,33  L 36,32  L 42,32  L 42,31  L 59,31  L 59,32  L 60,32  L 60,31  L 61,31  L 61,30  L 62,30  L 62,26  L 61,26  L 61,25  L 40,25  L 40,26  L 38,26  L 38,25  L 36,25  L 36,26  L 32,26  L 32,27  L 27,27  L 27,28  L 19,28  L 19,29  L 12,29  L 12,30  L 5,30  L 5,31  L 2,31  L 2,32  L 0,32  L 0,34  L 1,34  L 1,35  L 2,35  L 2,36  L 13,36  L 13,35  Z  " style="fill:rgb(0, 0, 0); fill-opacity:1.000; stroke:none;" />
 <path d="  M 72,53  L 72,52  L 78,52  L 78,62  L 79,62  L 79,85  L 83,85  L 83,84  L 84,84  L 84,80  L 85,80  L 85,60  L 84,60  L 84,59  L 85,59  L 85,58  L 84,58  L 84,57  L 85,57  L 85,56  L 84,56  L 84,55  L 85,55  L 85,54  L 84,54  L 84,34  L 83,34  L 83,31  L 84,31  L 84,30  L 83,30  L 83,23  L 84,23  L 84,22  L 83,22  L 83,14  L 80,14  L 80,13  L 78,13  L 78,14  L 77,14  L 77,40  L 78,40  L 78,44  L 76,44  L 76,45  L 73,45  L 73,46  L 68,46  L 68,47  L 65,47  L 65,48  L 62,48  L 62,49  L 60,49  L 60,50  L 55,50  L 55,51  L 54,51  L 54,52  L 52,52  L 52,53  L 47,53  L 47,52  L 44,52  L 44,51  L 43,51  L 43,50  L 41,50  L 41,49  L 38,49  L 38,48  L 35,48  L 35,47  L 32,47  L 32,46  L 30,46  L 30,45  L 27,45  L 27,44  L 23,44  L 23,45  L 22,45  L 22,46  L 21,46  L 21,48  L 20,48  L 20,49  L 19,49  L 19,51  L 18,51  L 18,52  L 17,52  L 17,54  L 16,54  L 16,56  L 15,56  L 15,58  L 14,58  L 14,60  L 13,60  L 13,64  L 12,64  L 12,75  L 13,75  L 13,79  L 14,79  L 14,80  L 15,80  L 15,83  L 16,83  L 16,84  L 17,84  L 17,85  L 19,85  L 19,86  L 20,86  L 20,87  L 21,87  L 21,88  L 23,88  L 23,89  L 24,89  L 24,90  L 25,90  L 25,91  L 27,91  L 27,90  L 29,90  L 29,89  L 33,89  L 33,88  L 34,88  L 34,87  L 39,87  L 39,86  L 40,86  L 40,85  L 42,85  L 42,84  L 44,84  L 44,83  L 46,83  L 46,82  L 48,82  L 48,81  L 49,81  L 49,80  L 50,80  L 50,79  L 51,79  L 51,76  L 52,76  L 52,75  L 53,75  L 53,70  L 54,70  L 54,60  L 55,60  L 55,57  L 56,57  L 56,56  L 58,56  L 58,55  L 61,55  L 61,54  L 66,54  L 66,53  Z  M 18,64  L 19,64  L 19,62  L 20,62  L 20,60  L 21,60  L 21,58  L 22,58  L 22,56  L 24,56  L 24,55  L 25,55  L 25,54  L 26,54  L 26,53  L 27,53  L 27,52  L 32,52  L 32,53  L 35,53  L 35,54  L 37,54  L 37,55  L 40,55  L 40,56  L 42,56  L 42,57  L 44,57  L 44,58  L 45,58  L 45,59  L 47,59  L 47,71  L 46,71  L 46,74  L 45,74  L 45,76  L 44,76  L 44,77  L 43,77  L 43,78  L 42,78  L 42,79  L 39,79  L 39,80  L 37,80  L 37,81  L 34,81  L 34,82  L 31,82  L 31,83  L 24,83  L 24,82  L 23,82  L 23,81  L 22,81  L 22,80  L 21,80  L 21,78  L 20,78  L 20,77  L 19,77  L 19,76  L 18,76  Z  " style="fill:rgb(0, 0, 0); fill-opacity:1.000; stroke:none;" />
 <path d="  M 27,11  L 28,11  L 28,12  L 27,12  L 27,13  L 28,13  L 28,23  L 29,23  L 29,24  L 33,24  L 33,23  L 34,23  L 34,22  L 35,22  L 35,20  L 36,20  L 36,15  L 37,15  L 37,8  L 38,8  L 38,6  L 39,6  L 39,0  L 35,0  L 35,1  L 34,1  L 34,2  L 32,2  L 32,3  L 30,3  L 30,4  L 28,4  L 28,7  L 27,7  Z  " style="fill:rgb(0, 0, 0); fill-opacity:1.000; stroke:none;" />
 <path d="  M 58,98  L 58,99  L 56,99  L 56,100  L 55,100  L 55,101  L 53,101  L 53,102  L 52,102  L 52,103  L 51,103  L 51,105  L 49,105  L 49,106  L 48,106  L 48,108  L 47,108  L 47,109  L 46,109  L 46,110  L 45,110  L 45,112  L 44,112  L 44,113  L 43,113  L 43,115  L 42,115  L 42,118  L 41,118  L 41,122  L 40,122  L 40,125  L 39,125  L 39,133  L 40,133  L 40,138  L 41,138  L 41,139  L 42,139  L 42,140  L 44,140  L 44,141  L 46,141  L 46,142  L 47,142  L 47,143  L 50,143  L 50,144  L 54,144  L 54,145  L 77,145  L 77,144  L 80,144  L 80,143  L 84,143  L 84,142  L 86,142  L 86,141  L 90,141  L 90,140  L 92,140  L 92,139  L 94,139  L 94,138  L 96,138  L 96,137  L 97,137  L 97,136  L 98,136  L 98,135  L 100,135  L 100,133  L 101,133  L 101,132  L 102,132  L 102,130  L 103,130  L 103,127  L 104,127  L 104,125  L 105,125  L 105,120  L 106,120  L 106,108  L 105,108  L 105,106  L 104,106  L 104,105  L 105,105  L 105,101  L 106,101  L 106,100  L 107,100  L 107,83  L 106,83  L 106,81  L 107,81  L 107,80  L 106,80  L 106,69  L 105,69  L 105,54  L 104,54  L 104,53  L 105,53  L 105,52  L 104,52  L 104,51  L 105,51  L 105,50  L 104,50  L 104,33  L 103,33  L 103,31  L 104,31  L 104,30  L 103,30  L 103,25  L 102,25  L 102,20  L 101,20  L 101,19  L 98,19  L 98,20  L 97,20  L 97,31  L 98,31  L 98,51  L 99,51  L 99,69  L 100,69  L 100,84  L 101,84  L 101,86  L 100,86  L 100,87  L 101,87  L 101,96  L 102,96  L 102,97  L 101,97  L 101,98  L 102,98  L 102,99  L 100,99  L 100,100  L 98,100  L 98,99  L 97,99  L 97,98  L 96,98  L 96,97  L 93,97  L 93,96  L 92,96  L 92,95  L 87,95  L 87,94  L 68,94  L 68,95  L 64,95  L 64,96  L 62,96  L 62,97  L 60,97  L 60,98  Z  M 54,110  L 54,109  L 55,109  L 55,108  L 56,108  L 56,107  L 58,107  L 58,106  L 60,106  L 60,105  L 62,105  L 62,104  L 64,104  L 64,103  L 66,103  L 66,102  L 70,102  L 70,101  L 83,101  L 83,102  L 89,102  L 89,103  L 92,103  L 92,104  L 95,104  L 95,105  L 96,105  L 96,106  L 97,106  L 97,107  L 98,107  L 98,109  L 99,109  L 99,111  L 100,111  L 100,112  L 99,112  L 99,120  L 98,120  L 98,124  L 97,124  L 97,126  L 96,126  L 96,128  L 95,128  L 95,130  L 94,130  L 94,131  L 93,131  L 93,132  L 91,132  L 91,133  L 89,133  L 89,134  L 87,134  L 87,135  L 84,135  L 84,136  L 82,136  L 82,137  L 79,137  L 79,138  L 75,138  L 75,139  L 57,139  L 57,138  L 53,138  L 53,137  L 50,137  L 50,136  L 49,136  L 49,135  L 47,135  L 47,133  L 46,133  L 46,124  L 47,124  L 47,120  L 48,120  L 48,117  L 49,117  L 49,115  L 50,115  L 50,113  L 51,113  L 51,112  L 52,112  L 52,111  L 53,111  L 53,110  Z  " style="fill:rgb(0, 0, 0); fill-opacity:1.000; stroke:none;" />
</svg>
