<?xml version="1.0" encoding="UTF-8" standalone="no"?>
<!DOCTYPE svg PUBLIC "-//W3C//DTD SVG 1.1//EN" 
  "http://www.w3.org/Graphics/SVG/1.1/DTD/svg11.dtd">
<svg width="104" height="172"
     xmlns="http://www.w3.org/2000/svg" version="1.1">
 <path d="  M 47,36  L 47,35  L 48,35  L 48,36  L 49,36  L 49,35  L 59,35  L 59,34  L 60,34  L 60,35  L 61,35  L 61,34  L 66,34  L 66,33  L 67,33  L 67,32  L 68,32  L 68,30  L 69,30  L 69,29  L 67,29  L 67,28  L 65,28  L 65,27  L 64,27  L 64,28  L 63,28  L 63,27  L 61,27  L 61,28  L 40,28  L 40,29  L 38,29  L 38,30  L 36,30  L 36,29  L 34,29  L 34,25  L 33,25  L 33,12  L 34,12  L 34,11  L 33,11  L 33,8  L 34,8  L 34,3  L 33,3  L 33,1  L 32,1  L 32,0  L 29,0  L 29,1  L 27,1  L 27,5  L 26,5  L 26,22  L 27,22  L 27,29  L 28,29  L 28,33  L 16,33  L 16,34  L 15,34  L 15,33  L 14,33  L 14,34  L 12,34  L 12,35  L 10,35  L 10,36  L 6,36  L 6,37  L 4,37  L 4,38  L 1,38  L 1,39  L 0,39  L 0,42  L 1,42  L 1,44  L 4,44  L 4,43  L 8,43  L 8,42  L 12,42  L 12,41  L 16,41  L 16,40  L 21,40  L 21,39  L 22,39  L 22,40  L 23,40  L 23,39  L 30,39  L 30,38  L 35,38  L 35,37  L 41,37  L 41,36  Z  " style="fill:rgb(0, 0, 0); fill-opacity:1.000; stroke:none;" />
 <path d="  M 49,70  L 50,70  L 50,73  L 51,73  L 51,76  L 50,76  L 50,78  L 49,78  L 49,80  L 48,80  L 48,81  L 46,81  L 46,82  L 44,82  L 44,83  L 42,83  L 42,84  L 40,84  L 40,85  L 39,85  L 39,86  L 35,86  L 35,87  L 26,87  L 26,86  L 24,86  L 24,85  L 22,85  L 22,83  L 20,83  L 20,81  L 19,81  L 19,80  L 20,80  L 20,79  L 19,79  L 19,75  L 20,75  L 20,72  L 21,72  L 21,70  L 22,70  L 22,68  L 23,68  L 23,66  L 24,66  L 24,65  L 25,65  L 25,63  L 26,63  L 26,61  L 27,61  L 27,60  L 28,60  L 28,59  L 30,59  L 30,58  L 31,58  L 31,59  L 34,59  L 34,60  L 37,60  L 37,61  L 38,61  L 38,62  L 41,62  L 41,63  L 43,63  L 43,64  L 44,64  L 44,65  L 45,65  L 45,66  L 47,66  L 47,68  L 48,68  L 48,69  L 49,69  Z  M 82,36  L 82,37  L 77,37  L 77,38  L 73,38  L 73,39  L 72,39  L 72,40  L 70,40  L 70,41  L 68,41  L 68,42  L 66,42  L 66,43  L 65,43  L 65,44  L 64,44  L 64,45  L 63,45  L 63,46  L 62,46  L 62,48  L 63,48  L 63,49  L 64,49  L 64,48  L 69,48  L 69,47  L 72,47  L 72,46  L 76,46  L 76,45  L 80,45  L 80,44  L 86,44  L 86,43  L 93,43  L 93,42  L 94,42  L 94,63  L 93,63  L 93,64  L 88,64  L 88,65  L 85,65  L 85,66  L 81,66  L 81,67  L 77,67  L 77,68  L 72,68  L 72,69  L 66,69  L 66,70  L 65,70  L 65,71  L 62,71  L 62,72  L 60,72  L 60,73  L 58,73  L 58,72  L 57,72  L 57,71  L 56,71  L 56,68  L 55,68  L 55,67  L 54,67  L 54,65  L 53,65  L 53,64  L 52,64  L 52,63  L 51,63  L 51,62  L 50,62  L 50,60  L 48,60  L 48,59  L 47,59  L 47,58  L 46,58  L 46,57  L 44,57  L 44,56  L 43,56  L 43,55  L 41,55  L 41,54  L 40,54  L 40,53  L 38,53  L 38,52  L 35,52  L 35,51  L 33,51  L 33,50  L 30,50  L 30,49  L 29,49  L 29,50  L 27,50  L 27,51  L 25,51  L 25,53  L 23,53  L 23,55  L 22,55  L 22,56  L 21,56  L 21,58  L 20,58  L 20,59  L 19,59  L 19,62  L 18,62  L 18,64  L 17,64  L 17,65  L 16,65  L 16,66  L 17,66  L 17,67  L 16,67  L 16,68  L 15,68  L 15,71  L 14,71  L 14,76  L 13,76  L 13,79  L 14,79  L 14,80  L 13,80  L 13,81  L 14,81  L 14,85  L 15,85  L 15,87  L 16,87  L 16,89  L 17,89  L 17,90  L 18,90  L 18,91  L 20,91  L 20,92  L 22,92  L 22,94  L 25,94  L 25,95  L 28,95  L 28,96  L 33,96  L 33,95  L 34,95  L 34,96  L 35,96  L 35,95  L 37,95  L 37,94  L 39,94  L 39,93  L 41,93  L 41,92  L 43,92  L 43,91  L 44,91  L 44,90  L 45,90  L 45,89  L 47,89  L 47,88  L 48,88  L 48,87  L 50,87  L 50,86  L 52,86  L 52,85  L 53,85  L 53,84  L 55,84  L 55,83  L 56,83  L 56,82  L 57,82  L 57,81  L 59,81  L 59,80  L 61,80  L 61,79  L 64,79  L 64,78  L 66,78  L 66,77  L 70,77  L 70,76  L 72,76  L 72,75  L 77,75  L 77,74  L 82,74  L 82,73  L 85,73  L 85,72  L 89,72  L 89,71  L 91,71  L 91,70  L 93,70  L 93,90  L 94,90  L 94,99  L 95,99  L 95,101  L 97,101  L 97,100  L 99,100  L 99,99  L 100,99  L 100,78  L 101,78  L 101,77  L 100,77  L 100,74  L 101,74  L 101,73  L 100,73  L 100,70  L 101,70  L 101,69  L 100,69  L 100,68  L 101,68  L 101,35  L 100,35  L 100,34  L 101,34  L 101,33  L 100,33  L 100,26  L 99,26  L 99,24  L 100,24  L 100,23  L 99,23  L 99,16  L 98,16  L 98,8  L 97,8  L 97,6  L 93,6  L 93,7  L 92,7  L 92,9  L 91,9  L 91,16  L 92,16  L 92,22  L 93,22  L 93,23  L 92,23  L 92,24  L 93,24  L 93,35  L 91,35  L 91,36  Z  " style="fill:rgb(0, 0, 0); fill-opacity:1.000; stroke:none;" />
 <path d="  M 63,112  L 63,113  L 68,113  L 68,114  L 74,114  L 74,115  L 76,115  L 76,116  L 79,116  L 79,117  L 81,117  L 81,118  L 82,118  L 82,119  L 83,119  L 83,121  L 82,121  L 82,124  L 80,124  L 80,125  L 79,125  L 79,126  L 76,126  L 76,127  L 73,127  L 73,128  L 71,128  L 71,129  L 69,129  L 69,130  L 66,130  L 66,131  L 64,131  L 64,132  L 63,132  L 63,133  L 62,133  L 62,134  L 59,134  L 59,135  L 56,135  L 56,136  L 54,136  L 54,137  L 52,137  L 52,138  L 51,138  L 51,139  L 48,139  L 48,140  L 46,140  L 46,141  L 45,141  L 45,142  L 43,142  L 43,143  L 41,143  L 41,144  L 38,144  L 38,145  L 37,145  L 37,146  L 36,146  L 36,148  L 35,148  L 35,149  L 33,149  L 33,151  L 32,151  L 32,160  L 33,160  L 33,161  L 34,161  L 34,162  L 35,162  L 35,163  L 34,163  L 34,164  L 36,164  L 36,165  L 37,165  L 37,168  L 40,168  L 40,169  L 41,169  L 41,170  L 45,170  L 45,171  L 48,171  L 48,172  L 70,172  L 70,171  L 74,171  L 74,170  L 76,170  L 76,169  L 77,169  L 77,170  L 78,170  L 78,169  L 79,169  L 79,168  L 83,168  L 83,167  L 85,167  L 85,166  L 87,166  L 87,165  L 90,165  L 90,164  L 92,164  L 92,163  L 94,163  L 94,162  L 96,162  L 96,161  L 98,161  L 98,160  L 100,160  L 100,159  L 102,159  L 102,157  L 103,157  L 103,156  L 104,156  L 104,149  L 103,149  L 103,148  L 102,148  L 102,149  L 100,149  L 100,150  L 98,150  L 98,151  L 97,151  L 97,152  L 96,152  L 96,153  L 94,153  L 94,154  L 93,154  L 93,155  L 92,155  L 92,156  L 90,156  L 90,157  L 88,157  L 88,158  L 87,158  L 87,159  L 85,159  L 85,160  L 82,160  L 82,161  L 78,161  L 78,162  L 75,162  L 75,163  L 73,163  L 73,164  L 69,164  L 69,165  L 64,165  L 64,166  L 63,166  L 63,165  L 62,165  L 62,166  L 59,166  L 59,165  L 58,165  L 58,166  L 56,166  L 56,165  L 50,165  L 50,164  L 46,164  L 46,163  L 44,163  L 44,162  L 42,162  L 42,161  L 41,161  L 41,159  L 40,159  L 40,153  L 41,153  L 41,151  L 42,151  L 42,150  L 43,150  L 43,149  L 45,149  L 45,148  L 48,148  L 48,147  L 50,147  L 50,146  L 52,146  L 52,145  L 54,145  L 54,144  L 56,144  L 56,143  L 58,143  L 58,142  L 62,142  L 62,141  L 63,141  L 63,140  L 66,140  L 66,139  L 67,139  L 67,138  L 70,138  L 70,137  L 71,137  L 71,136  L 73,136  L 73,135  L 75,135  L 75,134  L 77,134  L 77,133  L 79,133  L 79,132  L 82,132  L 82,131  L 84,131  L 84,130  L 85,130  L 85,129  L 86,129  L 86,128  L 88,128  L 88,127  L 89,127  L 89,126  L 90,126  L 90,124  L 91,124  L 91,119  L 90,119  L 90,116  L 89,116  L 89,113  L 88,113  L 88,112  L 86,112  L 86,111  L 85,111  L 85,110  L 82,110  L 82,109  L 80,109  L 80,108  L 77,108  L 77,107  L 72,107  L 72,106  L 67,106  L 67,105  L 66,105  L 66,106  L 64,106  L 64,105  L 62,105  L 62,106  L 61,106  L 61,105  L 53,105  L 53,106  L 51,106  L 51,105  L 50,105  L 50,106  L 46,106  L 46,107  L 41,107  L 41,108  L 39,108  L 39,109  L 38,109  L 38,113  L 39,113  L 39,114  L 46,114  L 46,113  L 53,113  L 53,112  Z  " style="fill:rgb(0, 0, 0); fill-opacity:1.000; stroke:none;" />
</svg>
