<?xml version="1.0" encoding="UTF-8" standalone="no"?>
<!DOCTYPE svg PUBLIC "-//W3C//DTD SVG 1.1//EN" 
  "http://www.w3.org/Graphics/SVG/1.1/DTD/svg11.dtd">
<svg width="101" height="172"
     xmlns="http://www.w3.org/2000/svg" version="1.1">
 <path d="  M 27,18  L 28,18  L 28,27  L 29,27  L 29,31  L 30,31  L 30,34  L 28,34  L 28,35  L 19,35  L 19,36  L 16,36  L 16,37  L 11,37  L 11,38  L 6,38  L 6,39  L 4,39  L 4,40  L 1,40  L 1,42  L 0,42  L 0,44  L 1,44  L 1,45  L 3,45  L 3,46  L 5,46  L 5,47  L 6,47  L 6,46  L 8,46  L 8,45  L 11,45  L 11,44  L 14,44  L 14,43  L 18,43  L 18,42  L 25,42  L 25,41  L 33,41  L 33,40  L 34,40  L 34,41  L 35,41  L 35,40  L 38,40  L 38,39  L 46,39  L 46,38  L 59,38  L 59,37  L 61,37  L 61,36  L 63,36  L 63,35  L 64,35  L 64,33  L 63,33  L 63,32  L 62,32  L 62,31  L 59,31  L 59,30  L 58,30  L 58,31  L 55,31  L 55,30  L 54,30  L 54,31  L 51,31  L 51,30  L 50,30  L 50,31  L 41,31  L 41,32  L 36,32  L 36,29  L 35,29  L 35,28  L 36,28  L 36,27  L 35,27  L 35,20  L 34,20  L 34,18  L 35,18  L 35,16  L 34,16  L 34,6  L 33,6  L 33,5  L 34,5  L 34,4  L 33,4  L 33,2  L 32,2  L 32,1  L 31,1  L 31,0  L 29,0  L 29,1  L 27,1  L 27,3  L 26,3  L 26,11  L 27,11  Z  " style="fill:rgb(0, 0, 0); fill-opacity:1.000; stroke:none;" />
 <path d="  M 94,96  L 95,96  L 95,100  L 96,100  L 96,101  L 97,101  L 97,102  L 100,102  L 100,101  L 101,101  L 101,37  L 100,37  L 100,31  L 99,31  L 99,27  L 98,27  L 98,23  L 97,23  L 97,18  L 96,18  L 96,13  L 95,13  L 95,10  L 93,10  L 93,9  L 89,9  L 89,10  L 88,10  L 88,16  L 89,16  L 89,20  L 90,20  L 90,25  L 91,25  L 91,28  L 92,28  L 92,32  L 93,32  L 93,37  L 94,37  L 94,40  L 92,40  L 92,41  L 86,41  L 86,42  L 85,42  L 85,41  L 84,41  L 84,42  L 80,42  L 80,43  L 75,43  L 75,44  L 70,44  L 70,45  L 67,45  L 67,46  L 66,46  L 66,47  L 65,47  L 65,48  L 63,48  L 63,49  L 62,49  L 62,54  L 64,54  L 64,55  L 65,55  L 65,54  L 68,54  L 68,53  L 69,53  L 69,52  L 71,52  L 71,51  L 75,51  L 75,50  L 83,50  L 83,49  L 88,49  L 88,48  L 95,48  L 95,66  L 94,66  L 94,69  L 93,69  L 93,70  L 89,70  L 89,71  L 86,71  L 86,72  L 82,72  L 82,73  L 78,73  L 78,74  L 73,74  L 73,75  L 69,75  L 69,76  L 65,76  L 65,77  L 64,77  L 64,78  L 58,78  L 58,77  L 57,77  L 57,74  L 56,74  L 56,70  L 55,70  L 55,69  L 54,69  L 54,67  L 53,67  L 53,66  L 52,66  L 52,65  L 51,65  L 51,64  L 50,64  L 50,62  L 49,62  L 49,61  L 47,61  L 47,60  L 46,60  L 46,59  L 45,59  L 45,58  L 44,58  L 44,57  L 42,57  L 42,56  L 41,56  L 41,55  L 39,55  L 39,54  L 37,54  L 37,53  L 35,53  L 35,52  L 32,52  L 32,51  L 31,51  L 31,52  L 27,52  L 27,53  L 26,53  L 26,54  L 25,54  L 25,56  L 23,56  L 23,58  L 22,58  L 22,59  L 21,59  L 21,60  L 20,60  L 20,63  L 19,63  L 19,64  L 18,64  L 18,66  L 17,66  L 17,68  L 16,68  L 16,69  L 15,69  L 15,71  L 14,71  L 14,74  L 13,74  L 13,77  L 12,77  L 12,80  L 11,80  L 11,88  L 12,88  L 12,91  L 13,91  L 13,93  L 14,93  L 14,94  L 16,94  L 16,95  L 17,95  L 17,96  L 20,96  L 20,97  L 23,97  L 23,98  L 26,98  L 26,99  L 30,99  L 30,100  L 32,100  L 32,101  L 33,101  L 33,100  L 35,100  L 35,99  L 38,99  L 38,98  L 42,98  L 42,97  L 45,97  L 45,96  L 47,96  L 47,95  L 49,95  L 49,94  L 50,94  L 50,93  L 51,93  L 51,92  L 53,92  L 53,91  L 54,91  L 54,90  L 55,90  L 55,89  L 56,89  L 56,88  L 57,88  L 57,87  L 59,87  L 59,86  L 60,86  L 60,85  L 62,85  L 62,84  L 69,84  L 69,83  L 71,83  L 71,82  L 72,82  L 72,83  L 74,83  L 74,82  L 77,82  L 77,81  L 81,81  L 81,80  L 86,80  L 86,79  L 90,79  L 90,78  L 91,78  L 91,77  L 93,77  L 93,79  L 94,79  Z  M 34,60  L 34,61  L 36,61  L 36,62  L 38,62  L 38,63  L 40,63  L 40,64  L 41,64  L 41,65  L 43,65  L 43,66  L 44,66  L 44,67  L 45,67  L 45,68  L 46,68  L 46,69  L 48,69  L 48,70  L 49,70  L 49,72  L 50,72  L 50,74  L 51,74  L 51,81  L 50,81  L 50,83  L 49,83  L 49,85  L 48,85  L 48,87  L 47,87  L 47,88  L 45,88  L 45,89  L 43,89  L 43,90  L 41,90  L 41,91  L 35,91  L 35,92  L 27,92  L 27,91  L 23,91  L 23,90  L 21,90  L 21,89  L 19,89  L 19,88  L 18,88  L 18,80  L 19,80  L 19,77  L 20,77  L 20,75  L 21,75  L 21,73  L 22,73  L 22,70  L 23,70  L 23,69  L 24,69  L 24,68  L 25,68  L 25,66  L 26,66  L 26,65  L 27,65  L 27,63  L 28,63  L 28,61  L 29,61  L 29,60  Z  " style="fill:rgb(0, 0, 0); fill-opacity:1.000; stroke:none;" />
 <path d="  M 38,127  L 38,118  L 37,118  L 37,116  L 36,116  L 36,115  L 35,115  L 35,114  L 30,114  L 30,118  L 29,118  L 29,119  L 30,119  L 30,127  L 31,127  L 31,130  L 30,130  L 30,131  L 31,131  L 31,135  L 32,135  L 32,138  L 31,138  L 31,141  L 32,141  L 32,142  L 31,142  L 31,143  L 32,143  L 32,148  L 33,148  L 33,160  L 34,160  L 34,161  L 33,161  L 33,162  L 34,162  L 34,163  L 35,163  L 35,164  L 34,164  L 34,165  L 36,165  L 36,168  L 37,168  L 37,169  L 40,169  L 40,170  L 41,170  L 41,171  L 45,171  L 45,172  L 71,172  L 71,171  L 72,171  L 72,172  L 73,172  L 73,171  L 78,171  L 78,170  L 82,170  L 82,169  L 83,169  L 83,168  L 85,168  L 85,167  L 87,167  L 87,166  L 88,166  L 88,165  L 91,165  L 91,164  L 92,164  L 92,163  L 94,163  L 94,161  L 95,161  L 95,158  L 96,158  L 96,155  L 97,155  L 97,154  L 96,154  L 96,152  L 97,152  L 97,146  L 98,146  L 98,140  L 99,140  L 99,117  L 100,117  L 100,116  L 99,116  L 99,113  L 100,113  L 100,111  L 99,111  L 99,110  L 97,110  L 97,109  L 96,109  L 96,110  L 94,110  L 94,111  L 93,111  L 93,134  L 92,134  L 92,135  L 83,135  L 83,134  L 82,134  L 82,135  L 79,135  L 79,134  L 78,134  L 78,135  L 76,135  L 76,136  L 75,136  L 75,135  L 72,135  L 72,136  L 71,136  L 71,135  L 68,135  L 68,136  L 67,136  L 67,135  L 64,135  L 64,136  L 63,136  L 63,135  L 62,135  L 62,136  L 39,136  L 39,127  Z  M 42,164  L 42,162  L 41,162  L 41,160  L 40,160  L 40,152  L 39,152  L 39,149  L 40,149  L 40,148  L 39,148  L 39,146  L 40,146  L 40,145  L 41,145  L 41,144  L 44,144  L 44,143  L 70,143  L 70,142  L 73,142  L 73,143  L 74,143  L 74,142  L 77,142  L 77,143  L 78,143  L 78,142  L 81,142  L 81,143  L 82,143  L 82,142  L 84,142  L 84,143  L 86,143  L 86,142  L 87,142  L 87,143  L 90,143  L 90,152  L 89,152  L 89,155  L 88,155  L 88,158  L 87,158  L 87,159  L 86,159  L 86,160  L 85,160  L 85,161  L 82,161  L 82,162  L 78,162  L 78,163  L 74,163  L 74,164  L 69,164  L 69,165  L 61,165  L 61,166  L 50,166  L 50,165  L 45,165  L 45,164  Z  " style="fill:rgb(0, 0, 0); fill-opacity:1.000; stroke:none;" />
</svg>
