<?xml version="1.0" encoding="UTF-8" standalone="no"?>
<!DOCTYPE svg PUBLIC "-//W3C//DTD SVG 1.1//EN" 
  "http://www.w3.org/Graphics/SVG/1.1/DTD/svg11.dtd">
<svg width="106" height="162"
     xmlns="http://www.w3.org/2000/svg" version="1.1">
 <path d="  M 58,35  L 58,34  L 55,34  L 55,33  L 53,33  L 53,34  L 50,34  L 50,33  L 49,33  L 49,34  L 46,34  L 46,33  L 44,33  L 44,34  L 41,34  L 41,33  L 40,33  L 40,34  L 38,34  L 38,35  L 36,35  L 36,33  L 35,33  L 35,24  L 34,24  L 34,21  L 35,21  L 35,20  L 34,20  L 34,13  L 33,13  L 33,12  L 34,12  L 34,10  L 33,10  L 33,3  L 32,3  L 32,0  L 28,0  L 28,2  L 27,2  L 27,8  L 26,8  L 26,9  L 27,9  L 27,12  L 26,12  L 26,13  L 27,13  L 27,14  L 26,14  L 26,15  L 27,15  L 27,16  L 26,16  L 26,17  L 27,17  L 27,20  L 26,20  L 26,21  L 27,21  L 27,27  L 28,27  L 28,35  L 29,35  L 29,36  L 28,36  L 28,37  L 27,37  L 27,38  L 20,38  L 20,39  L 11,39  L 11,40  L 7,40  L 7,41  L 5,41  L 5,40  L 4,40  L 4,41  L 2,41  L 2,42  L 0,42  L 0,43  L 1,43  L 1,45  L 2,45  L 2,46  L 4,46  L 4,47  L 5,47  L 5,46  L 6,46  L 6,47  L 7,47  L 7,46  L 16,46  L 16,45  L 25,45  L 25,44  L 26,44  L 26,45  L 28,45  L 28,44  L 31,44  L 31,43  L 37,43  L 37,42  L 38,42  L 38,43  L 39,43  L 39,42  L 44,42  L 44,41  L 58,41  L 58,40  L 59,40  L 59,38  L 60,38  L 60,36  L 59,36  L 59,35  Z  " style="fill:rgb(0, 0, 0); fill-opacity:1.000; stroke:none;" />
 <path d="  M 21,92  L 21,91  L 20,91  L 20,90  L 19,90  L 19,88  L 18,88  L 18,85  L 19,85  L 19,84  L 18,84  L 18,81  L 19,81  L 19,77  L 20,77  L 20,75  L 21,75  L 21,73  L 22,73  L 22,72  L 23,72  L 23,70  L 24,70  L 24,68  L 25,68  L 25,67  L 26,67  L 26,66  L 27,66  L 27,65  L 28,65  L 28,64  L 29,64  L 29,62  L 34,62  L 34,63  L 36,63  L 36,64  L 38,64  L 38,65  L 42,65  L 42,66  L 44,66  L 44,67  L 46,67  L 46,68  L 47,68  L 47,69  L 49,69  L 49,70  L 50,70  L 50,72  L 51,72  L 51,74  L 52,74  L 52,75  L 51,75  L 51,76  L 52,76  L 52,78  L 51,78  L 51,83  L 50,83  L 50,85  L 49,85  L 49,87  L 47,87  L 47,88  L 46,88  L 46,89  L 45,89  L 45,90  L 44,90  L 44,91  L 42,91  L 42,92  L 41,92  L 41,93  L 33,93  L 33,94  L 32,94  L 32,93  L 29,93  L 29,94  L 28,94  L 28,93  L 25,93  L 25,92  Z  M 88,46  L 82,46  L 82,47  L 81,47  L 81,46  L 80,46  L 80,47  L 75,47  L 75,48  L 68,48  L 68,49  L 65,49  L 65,50  L 64,50  L 64,51  L 63,51  L 63,53  L 62,53  L 62,54  L 61,54  L 61,55  L 60,55  L 60,58  L 61,58  L 61,59  L 63,59  L 63,58  L 64,58  L 64,57  L 66,57  L 66,56  L 70,56  L 70,55  L 71,55  L 71,54  L 72,54  L 72,55  L 73,55  L 73,54  L 74,54  L 74,55  L 75,55  L 75,54  L 81,54  L 81,53  L 88,53  L 88,52  L 91,52  L 91,55  L 92,55  L 92,56  L 91,56  L 91,57  L 92,57  L 92,70  L 91,70  L 91,71  L 86,71  L 86,72  L 83,72  L 83,73  L 79,73  L 79,74  L 72,74  L 72,75  L 66,75  L 66,76  L 62,76  L 62,77  L 61,77  L 61,78  L 58,78  L 58,73  L 57,73  L 57,70  L 56,70  L 56,68  L 55,68  L 55,67  L 54,67  L 54,66  L 53,66  L 53,64  L 52,64  L 52,63  L 50,63  L 50,62  L 48,62  L 48,61  L 46,61  L 46,60  L 44,60  L 44,59  L 41,59  L 41,58  L 39,58  L 39,57  L 37,57  L 37,56  L 34,56  L 34,55  L 32,55  L 32,54  L 27,54  L 27,55  L 26,55  L 26,56  L 25,56  L 25,57  L 24,57  L 24,58  L 23,58  L 23,59  L 22,59  L 22,60  L 21,60  L 21,62  L 20,62  L 20,64  L 19,64  L 19,66  L 18,66  L 18,67  L 17,67  L 17,68  L 16,68  L 16,70  L 15,70  L 15,72  L 14,72  L 14,77  L 13,77  L 13,80  L 12,80  L 12,89  L 13,89  L 13,90  L 12,90  L 12,91  L 13,91  L 13,94  L 14,94  L 14,95  L 15,95  L 15,96  L 18,96  L 18,97  L 19,97  L 19,98  L 22,98  L 22,99  L 24,99  L 24,100  L 30,100  L 30,101  L 31,101  L 31,100  L 32,100  L 32,101  L 33,101  L 33,100  L 38,100  L 38,99  L 41,99  L 41,98  L 43,98  L 43,97  L 46,97  L 46,96  L 47,96  L 47,95  L 49,95  L 49,94  L 50,94  L 50,93  L 52,93  L 52,92  L 53,92  L 53,90  L 54,90  L 54,89  L 56,89  L 56,88  L 57,88  L 57,86  L 58,86  L 58,85  L 60,85  L 60,84  L 62,84  L 62,83  L 64,83  L 64,82  L 69,82  L 69,81  L 73,81  L 73,80  L 74,80  L 74,81  L 75,81  L 75,80  L 81,80  L 81,79  L 84,79  L 84,78  L 88,78  L 88,77  L 91,77  L 91,78  L 92,78  L 92,94  L 93,94  L 93,104  L 94,104  L 94,106  L 95,106  L 95,107  L 97,107  L 97,106  L 98,106  L 98,105  L 99,105  L 99,103  L 100,103  L 100,100  L 99,100  L 99,75  L 98,75  L 98,73  L 99,73  L 99,72  L 98,72  L 98,65  L 99,65  L 99,64  L 98,64  L 98,53  L 97,53  L 97,52  L 98,52  L 98,50  L 97,50  L 97,46  L 96,46  L 96,45  L 95,45  L 95,42  L 94,42  L 94,41  L 93,41  L 93,37  L 92,37  L 92,34  L 91,34  L 91,30  L 90,30  L 90,29  L 91,29  L 91,28  L 90,28  L 90,24  L 89,24  L 89,21  L 84,21  L 84,22  L 83,22  L 83,23  L 84,23  L 84,24  L 83,24  L 83,27  L 84,27  L 84,34  L 85,34  L 85,37  L 86,37  L 86,38  L 87,38  L 87,41  L 89,41  L 89,43  L 90,43  L 90,45  L 88,45  Z  " style="fill:rgb(0, 0, 0); fill-opacity:1.000; stroke:none;" />
 <path d="  M 95,148  L 95,147  L 93,147  L 93,146  L 91,146  L 91,145  L 90,145  L 90,144  L 88,144  L 88,143  L 87,143  L 87,142  L 85,142  L 85,141  L 83,141  L 83,140  L 82,140  L 82,139  L 81,139  L 81,138  L 80,138  L 80,137  L 78,137  L 78,136  L 77,136  L 77,135  L 75,135  L 75,134  L 73,134  L 73,133  L 71,133  L 71,132  L 70,132  L 70,131  L 69,131  L 69,130  L 67,130  L 67,129  L 65,129  L 65,128  L 64,128  L 64,127  L 63,127  L 63,125  L 62,125  L 62,124  L 60,124  L 60,122  L 61,122  L 61,121  L 62,121  L 62,119  L 64,119  L 64,118  L 65,118  L 65,117  L 66,117  L 66,116  L 67,116  L 67,114  L 69,114  L 69,113  L 71,113  L 71,111  L 72,111  L 72,110  L 73,110  L 73,107  L 72,107  L 72,106  L 69,106  L 69,107  L 66,107  L 66,108  L 63,108  L 63,107  L 57,107  L 57,108  L 59,108  L 59,109  L 61,109  L 61,111  L 60,111  L 60,112  L 59,112  L 59,114  L 58,114  L 58,115  L 57,115  L 57,116  L 55,116  L 55,118  L 54,118  L 54,120  L 53,120  L 53,123  L 52,123  L 52,124  L 51,124  L 51,125  L 50,125  L 50,127  L 49,127  L 49,128  L 48,128  L 48,130  L 47,130  L 47,131  L 46,131  L 46,133  L 45,133  L 45,134  L 44,134  L 44,135  L 43,135  L 43,136  L 42,136  L 42,138  L 41,138  L 41,139  L 40,139  L 40,140  L 39,140  L 39,142  L 38,142  L 38,143  L 37,143  L 37,145  L 36,145  L 36,146  L 35,146  L 35,147  L 34,147  L 34,149  L 33,149  L 33,150  L 32,150  L 32,151  L 31,151  L 31,152  L 30,152  L 30,153  L 29,153  L 29,154  L 28,154  L 28,155  L 27,155  L 27,157  L 26,157  L 26,159  L 25,159  L 25,161  L 26,161  L 26,162  L 32,162  L 32,161  L 33,161  L 33,160  L 34,160  L 34,158  L 35,158  L 35,157  L 36,157  L 36,156  L 37,156  L 37,155  L 38,155  L 38,154  L 39,154  L 39,152  L 41,152  L 41,150  L 42,150  L 42,149  L 43,149  L 43,147  L 44,147  L 44,146  L 45,146  L 45,144  L 46,144  L 46,143  L 47,143  L 47,141  L 48,141  L 48,140  L 49,140  L 49,139  L 50,139  L 50,138  L 51,138  L 51,136  L 53,136  L 53,134  L 54,134  L 54,133  L 55,133  L 55,131  L 56,131  L 56,130  L 58,130  L 58,131  L 59,131  L 59,132  L 60,132  L 60,133  L 61,133  L 61,134  L 62,134  L 62,135  L 63,135  L 63,136  L 65,136  L 65,137  L 67,137  L 67,138  L 68,138  L 68,139  L 70,139  L 70,140  L 71,140  L 71,141  L 73,141  L 73,142  L 74,142  L 74,143  L 75,143  L 75,144  L 77,144  L 77,145  L 79,145  L 79,147  L 81,147  L 81,148  L 83,148  L 83,149  L 85,149  L 85,150  L 86,150  L 86,151  L 87,151  L 87,152  L 88,152  L 88,153  L 89,153  L 89,154  L 91,154  L 91,155  L 94,155  L 94,156  L 96,156  L 96,157  L 97,157  L 97,158  L 99,158  L 99,159  L 101,159  L 101,158  L 102,158  L 102,159  L 105,159  L 105,158  L 106,158  L 106,154  L 105,154  L 105,153  L 104,153  L 104,152  L 102,152  L 102,151  L 101,151  L 101,150  L 98,150  L 98,149  L 97,149  L 97,148  Z  " style="fill:rgb(0, 0, 0); fill-opacity:1.000; stroke:none;" />
</svg>
