<?xml version="1.0" encoding="UTF-8" standalone="no"?>
<!DOCTYPE svg PUBLIC "-//W3C//DTD SVG 1.1//EN" 
  "http://www.w3.org/Graphics/SVG/1.1/DTD/svg11.dtd">
<svg width="105" height="153"
     xmlns="http://www.w3.org/2000/svg" version="1.1">
 <path d="  M 1,39  L 2,39  L 2,40  L 7,40  L 7,39  L 13,39  L 13,38  L 19,38  L 19,37  L 27,37  L 27,36  L 28,36  L 28,37  L 29,37  L 29,36  L 34,36  L 34,35  L 44,35  L 44,34  L 47,34  L 47,35  L 48,35  L 48,34  L 55,34  L 55,35  L 56,35  L 56,34  L 57,34  L 57,33  L 58,33  L 58,31  L 59,31  L 59,30  L 58,30  L 58,29  L 57,29  L 57,28  L 55,28  L 55,27  L 40,27  L 40,28  L 37,28  L 37,29  L 36,29  L 36,28  L 34,28  L 34,15  L 33,15  L 33,13  L 34,13  L 34,7  L 33,7  L 33,6  L 34,6  L 34,5  L 33,5  L 33,1  L 32,1  L 32,0  L 30,0  L 30,1  L 29,1  L 29,3  L 28,3  L 28,6  L 27,6  L 27,27  L 28,27  L 28,30  L 26,30  L 26,31  L 21,31  L 21,30  L 20,30  L 20,31  L 16,31  L 16,32  L 11,32  L 11,33  L 3,33  L 3,34  L 1,34  L 1,36  L 0,36  L 0,37  L 1,37  Z  " style="fill:rgb(0, 0, 0); fill-opacity:1.000; stroke:none;" />
 <path d="  M 79,128  L 79,129  L 80,129  L 80,130  L 83,130  L 83,131  L 85,131  L 85,132  L 86,132  L 86,133  L 87,133  L 87,134  L 90,134  L 90,135  L 92,135  L 92,136  L 93,136  L 93,137  L 94,137  L 94,138  L 95,138  L 95,139  L 97,139  L 97,141  L 98,141  L 98,142  L 99,142  L 99,143  L 100,143  L 100,145  L 101,145  L 101,147  L 102,147  L 102,148  L 105,148  L 105,138  L 104,138  L 104,137  L 103,137  L 103,136  L 101,136  L 101,135  L 100,135  L 100,134  L 98,134  L 98,133  L 97,133  L 97,132  L 96,132  L 96,131  L 94,131  L 94,130  L 92,130  L 92,129  L 91,129  L 91,128  L 89,128  L 89,127  L 87,127  L 87,126  L 86,126  L 86,125  L 85,125  L 85,124  L 83,124  L 83,123  L 81,123  L 81,122  L 80,122  L 80,121  L 79,121  L 79,119  L 78,119  L 78,118  L 77,118  L 77,113  L 78,113  L 78,111  L 79,111  L 79,107  L 80,107  L 80,102  L 77,102  L 77,101  L 76,101  L 76,102  L 74,102  L 74,105  L 73,105  L 73,108  L 72,108  L 72,110  L 71,110  L 71,112  L 70,112  L 70,116  L 69,116  L 69,118  L 68,118  L 68,119  L 67,119  L 67,121  L 66,121  L 66,124  L 65,124  L 65,126  L 64,126  L 64,128  L 63,128  L 63,131  L 62,131  L 62,133  L 61,133  L 61,134  L 60,134  L 60,136  L 59,136  L 59,137  L 57,137  L 57,130  L 56,130  L 56,128  L 54,128  L 54,127  L 52,127  L 52,126  L 50,126  L 50,125  L 49,125  L 49,124  L 48,124  L 48,123  L 46,123  L 46,122  L 43,122  L 43,121  L 42,121  L 42,120  L 40,120  L 40,119  L 39,119  L 39,118  L 38,118  L 38,117  L 37,117  L 37,116  L 36,116  L 36,115  L 35,115  L 35,114  L 34,114  L 34,112  L 35,112  L 35,111  L 36,111  L 36,109  L 37,109  L 37,108  L 38,108  L 38,107  L 39,107  L 39,105  L 40,105  L 40,103  L 41,103  L 41,100  L 40,100  L 40,97  L 39,97  L 39,96  L 37,96  L 37,95  L 29,95  L 29,96  L 28,96  L 28,98  L 29,98  L 29,99  L 30,99  L 30,100  L 32,100  L 32,101  L 33,101  L 33,100  L 34,100  L 34,101  L 35,101  L 35,103  L 34,103  L 34,105  L 32,105  L 32,106  L 31,106  L 31,108  L 30,108  L 30,110  L 29,110  L 29,112  L 28,112  L 28,114  L 27,114  L 27,117  L 26,117  L 26,118  L 25,118  L 25,119  L 24,119  L 24,121  L 23,121  L 23,123  L 22,123  L 22,124  L 21,124  L 21,125  L 20,125  L 20,126  L 19,126  L 19,127  L 18,127  L 18,128  L 17,128  L 17,129  L 16,129  L 16,130  L 15,130  L 15,131  L 14,131  L 14,132  L 13,132  L 13,133  L 12,133  L 12,135  L 11,135  L 11,136  L 10,136  L 10,138  L 9,138  L 9,142  L 10,142  L 10,144  L 14,144  L 14,143  L 15,143  L 15,141  L 16,141  L 16,139  L 17,139  L 17,137  L 18,137  L 18,135  L 19,135  L 19,134  L 20,134  L 20,133  L 21,133  L 21,132  L 22,132  L 22,131  L 23,131  L 23,130  L 24,130  L 24,129  L 25,129  L 25,128  L 26,128  L 26,126  L 27,126  L 27,125  L 28,125  L 28,123  L 29,123  L 29,122  L 34,122  L 34,123  L 35,123  L 35,124  L 37,124  L 37,125  L 38,125  L 38,126  L 40,126  L 40,127  L 42,127  L 42,128  L 44,128  L 44,129  L 47,129  L 47,130  L 49,130  L 49,131  L 50,131  L 50,132  L 51,132  L 51,133  L 52,133  L 52,134  L 53,134  L 53,136  L 54,136  L 54,141  L 53,141  L 53,143  L 52,143  L 52,146  L 51,146  L 51,148  L 50,148  L 50,153  L 56,153  L 56,152  L 57,152  L 57,151  L 58,151  L 58,147  L 59,147  L 59,144  L 60,144  L 60,142  L 62,142  L 62,140  L 63,140  L 63,139  L 64,139  L 64,138  L 65,138  L 65,136  L 66,136  L 66,134  L 67,134  L 67,132  L 68,132  L 68,130  L 69,130  L 69,129  L 70,129  L 70,127  L 71,127  L 71,124  L 74,124  L 74,125  L 75,125  L 75,126  L 76,126  L 76,127  L 77,127  L 77,128  Z  " style="fill:rgb(0, 0, 0); fill-opacity:1.000; stroke:none;" />
 <path d="  M 40,87  L 40,86  L 43,86  L 43,85  L 44,85  L 44,84  L 46,84  L 46,83  L 47,83  L 47,82  L 48,82  L 48,81  L 49,81  L 49,80  L 50,80  L 50,79  L 51,79  L 51,77  L 52,77  L 52,76  L 54,76  L 54,75  L 55,75  L 55,76  L 62,76  L 62,75  L 64,75  L 64,74  L 76,74  L 76,73  L 78,73  L 78,74  L 79,74  L 79,94  L 80,94  L 80,96  L 81,96  L 81,97  L 83,97  L 83,96  L 85,96  L 85,92  L 86,92  L 86,51  L 85,51  L 85,49  L 86,49  L 86,48  L 85,48  L 85,41  L 84,41  L 84,38  L 83,38  L 83,34  L 82,34  L 82,31  L 81,31  L 81,30  L 82,30  L 82,29  L 81,29  L 81,25  L 80,25  L 80,16  L 79,16  L 79,13  L 78,13  L 78,12  L 77,12  L 77,11  L 74,11  L 74,12  L 73,12  L 73,22  L 74,22  L 74,26  L 75,26  L 75,35  L 76,35  L 76,37  L 77,37  L 77,39  L 78,39  L 78,42  L 71,42  L 71,43  L 69,43  L 69,42  L 68,42  L 68,43  L 63,43  L 63,44  L 62,44  L 62,45  L 60,45  L 60,46  L 59,46  L 59,47  L 58,47  L 58,49  L 57,49  L 57,50  L 56,50  L 56,52  L 57,52  L 57,53  L 59,53  L 59,52  L 63,52  L 63,51  L 64,51  L 64,50  L 65,50  L 65,51  L 67,51  L 67,50  L 79,50  L 79,54  L 78,54  L 78,55  L 79,55  L 79,56  L 78,56  L 78,59  L 79,59  L 79,60  L 78,60  L 78,61  L 79,61  L 79,65  L 78,65  L 78,66  L 75,66  L 75,67  L 66,67  L 66,68  L 59,68  L 59,69  L 57,69  L 57,70  L 56,70  L 56,71  L 55,71  L 55,73  L 54,73  L 54,65  L 53,65  L 53,63  L 52,63  L 52,62  L 51,62  L 51,59  L 50,59  L 50,58  L 49,58  L 49,57  L 48,57  L 48,56  L 47,56  L 47,55  L 45,55  L 45,54  L 44,54  L 44,53  L 42,53  L 42,52  L 40,52  L 40,51  L 38,51  L 38,50  L 36,50  L 36,49  L 35,49  L 35,48  L 32,48  L 32,47  L 31,47  L 31,46  L 25,46  L 25,47  L 24,47  L 24,48  L 23,48  L 23,49  L 22,49  L 22,50  L 21,50  L 21,52  L 20,52  L 20,54  L 19,54  L 19,56  L 18,56  L 18,57  L 17,57  L 17,59  L 16,59  L 16,61  L 15,61  L 15,64  L 14,64  L 14,69  L 13,69  L 13,78  L 14,78  L 14,81  L 15,81  L 15,83  L 16,83  L 16,84  L 17,84  L 17,85  L 18,85  L 18,86  L 20,86  L 20,87  L 21,87  L 21,88  L 23,88  L 23,89  L 26,89  L 26,90  L 30,90  L 30,89  L 35,89  L 35,88  L 37,88  L 37,87  Z  M 24,58  L 25,58  L 25,57  L 26,57  L 26,55  L 27,55  L 27,54  L 28,54  L 28,53  L 31,53  L 31,54  L 32,54  L 32,55  L 34,55  L 34,56  L 35,56  L 35,57  L 38,57  L 38,58  L 40,58  L 40,59  L 42,59  L 42,60  L 43,60  L 43,61  L 45,61  L 45,62  L 46,62  L 46,64  L 47,64  L 47,71  L 46,71  L 46,74  L 45,74  L 45,75  L 44,75  L 44,77  L 43,77  L 43,78  L 42,78  L 42,79  L 41,79  L 41,80  L 38,80  L 38,81  L 36,81  L 36,82  L 32,82  L 32,83  L 26,83  L 26,82  L 24,82  L 24,81  L 23,81  L 23,80  L 22,80  L 22,79  L 20,79  L 20,77  L 19,77  L 19,70  L 20,70  L 20,67  L 21,67  L 21,64  L 22,64  L 22,62  L 23,62  L 23,60  L 24,60  Z  M 53,73  L 54,73  L 54,74  L 53,74  Z  " style="fill:rgb(0, 0, 0); fill-opacity:1.000; stroke:none;" />
</svg>
