<?xml version="1.0" encoding="UTF-8" standalone="no"?>
<!DOCTYPE svg PUBLIC "-//W3C//DTD SVG 1.1//EN" 
  "http://www.w3.org/Graphics/SVG/1.1/DTD/svg11.dtd">
<svg width="106" height="156"
     xmlns="http://www.w3.org/2000/svg" version="1.1">
 <path d="  M 27,18  L 28,18  L 28,22  L 29,22  L 29,23  L 28,23  L 28,24  L 27,24  L 27,25  L 24,25  L 24,26  L 16,26  L 16,27  L 15,27  L 15,26  L 14,26  L 14,27  L 11,27  L 11,28  L 8,28  L 8,29  L 7,29  L 7,28  L 5,28  L 5,29  L 1,29  L 1,30  L 0,30  L 0,33  L 1,33  L 1,35  L 3,35  L 3,36  L 5,36  L 5,35  L 8,35  L 8,34  L 9,34  L 9,35  L 10,35  L 10,34  L 15,34  L 15,33  L 21,33  L 21,32  L 24,32  L 24,31  L 31,31  L 31,30  L 32,30  L 32,31  L 34,31  L 34,30  L 39,30  L 39,29  L 47,29  L 47,28  L 48,28  L 48,29  L 49,29  L 49,28  L 59,28  L 59,27  L 60,27  L 60,26  L 61,26  L 61,24  L 59,24  L 59,23  L 56,23  L 56,22  L 34,22  L 34,20  L 35,20  L 35,9  L 36,9  L 36,7  L 37,7  L 37,0  L 34,0  L 34,1  L 32,1  L 32,2  L 30,2  L 30,3  L 29,3  L 29,4  L 28,4  L 28,5  L 27,5  L 27,10  L 26,10  L 26,11  L 27,11  Z  " style="fill:rgb(0, 0, 0); fill-opacity:1.000; stroke:none;" />
 <path d="  M 86,88  L 86,87  L 87,87  L 87,80  L 88,80  L 88,72  L 87,72  L 87,71  L 88,71  L 88,70  L 87,70  L 87,67  L 88,67  L 88,66  L 87,66  L 87,63  L 88,63  L 88,62  L 87,62  L 87,32  L 86,32  L 86,31  L 87,31  L 87,30  L 86,30  L 86,17  L 87,17  L 87,8  L 86,8  L 86,6  L 84,6  L 84,5  L 82,5  L 82,6  L 80,6  L 80,35  L 78,35  L 78,36  L 69,36  L 69,37  L 65,37  L 65,38  L 61,38  L 61,39  L 58,39  L 58,40  L 56,40  L 56,41  L 55,41  L 55,42  L 52,42  L 52,43  L 51,43  L 51,44  L 50,44  L 50,48  L 51,48  L 51,49  L 52,49  L 52,48  L 55,48  L 55,47  L 58,47  L 58,46  L 61,46  L 61,45  L 63,45  L 63,44  L 67,44  L 67,43  L 74,43  L 74,42  L 75,42  L 75,43  L 76,43  L 76,42  L 77,42  L 77,43  L 78,43  L 78,42  L 79,42  L 79,43  L 80,43  L 80,56  L 79,56  L 79,57  L 76,57  L 76,58  L 73,58  L 73,59  L 68,59  L 68,60  L 66,60  L 66,61  L 65,61  L 65,60  L 64,60  L 64,61  L 61,61  L 61,62  L 56,62  L 56,63  L 54,63  L 54,62  L 52,62  L 52,60  L 51,60  L 51,58  L 50,58  L 50,56  L 49,56  L 49,55  L 48,55  L 48,51  L 47,51  L 47,50  L 46,50  L 46,49  L 43,49  L 43,48  L 42,48  L 42,47  L 39,47  L 39,46  L 37,46  L 37,45  L 35,45  L 35,44  L 33,44  L 33,43  L 31,43  L 31,42  L 28,42  L 28,41  L 24,41  L 24,42  L 23,42  L 23,43  L 21,43  L 21,44  L 20,44  L 20,45  L 19,45  L 19,47  L 18,47  L 18,48  L 17,48  L 17,49  L 16,49  L 16,51  L 15,51  L 15,52  L 14,52  L 14,56  L 13,56  L 13,58  L 12,58  L 12,62  L 11,62  L 11,69  L 12,69  L 12,73  L 13,73  L 13,74  L 14,74  L 14,75  L 15,75  L 15,76  L 16,76  L 16,78  L 17,78  L 17,79  L 18,79  L 18,81  L 20,81  L 20,82  L 21,82  L 21,83  L 23,83  L 23,84  L 24,84  L 24,85  L 27,85  L 27,88  L 28,88  L 28,89  L 30,89  L 30,87  L 33,87  L 33,86  L 34,86  L 34,85  L 39,85  L 39,84  L 40,84  L 40,83  L 42,83  L 42,82  L 44,82  L 44,81  L 45,81  L 45,80  L 46,80  L 46,79  L 47,79  L 47,78  L 48,78  L 48,77  L 49,77  L 49,76  L 50,76  L 50,75  L 51,75  L 51,74  L 52,74  L 52,73  L 53,73  L 53,72  L 55,72  L 55,71  L 58,71  L 58,70  L 61,70  L 61,69  L 63,69  L 63,68  L 66,68  L 66,67  L 70,67  L 70,66  L 74,66  L 74,65  L 78,65  L 78,63  L 79,63  L 79,65  L 80,65  L 80,71  L 81,71  L 81,80  L 80,80  L 80,81  L 81,81  L 81,86  L 82,86  L 82,88  L 83,88  L 83,89  L 84,89  L 84,88  Z  M 17,63  L 18,63  L 18,59  L 19,59  L 19,57  L 20,57  L 20,56  L 21,56  L 21,55  L 22,55  L 22,54  L 23,54  L 23,52  L 24,52  L 24,51  L 25,51  L 25,50  L 26,50  L 26,49  L 30,49  L 30,50  L 33,50  L 33,51  L 35,51  L 35,52  L 37,52  L 37,53  L 40,53  L 40,54  L 41,54  L 41,55  L 42,55  L 42,57  L 45,57  L 45,59  L 46,59  L 46,61  L 47,61  L 47,63  L 48,63  L 48,69  L 47,69  L 47,70  L 46,70  L 46,72  L 45,72  L 45,73  L 44,73  L 44,75  L 41,75  L 41,76  L 39,76  L 39,77  L 37,77  L 37,78  L 36,78  L 36,79  L 32,79  L 32,80  L 30,80  L 30,79  L 29,79  L 29,80  L 26,80  L 26,79  L 24,79  L 24,78  L 23,78  L 23,76  L 20,76  L 20,75  L 19,75  L 19,72  L 18,72  L 18,70  L 17,70  L 17,67  L 18,67  L 18,66  L 17,66  Z  " style="fill:rgb(0, 0, 0); fill-opacity:1.000; stroke:none;" />
 <path d="  M 62,128  L 62,127  L 66,127  L 66,126  L 67,126  L 67,125  L 71,125  L 71,124  L 73,124  L 73,123  L 78,123  L 78,122  L 80,122  L 80,121  L 83,121  L 83,120  L 86,120  L 86,119  L 87,119  L 87,118  L 89,118  L 89,117  L 90,117  L 90,116  L 92,116  L 92,115  L 93,115  L 93,112  L 95,112  L 95,107  L 94,107  L 94,105  L 93,105  L 93,102  L 92,102  L 92,101  L 91,101  L 91,100  L 89,100  L 89,99  L 86,99  L 86,98  L 84,98  L 84,97  L 81,97  L 81,96  L 77,96  L 77,95  L 71,95  L 71,94  L 70,94  L 70,95  L 68,95  L 68,94  L 66,94  L 66,95  L 65,95  L 65,94  L 50,94  L 50,95  L 43,95  L 43,96  L 40,96  L 40,97  L 39,97  L 39,100  L 40,100  L 40,103  L 46,103  L 46,102  L 49,102  L 49,101  L 59,101  L 59,100  L 60,100  L 60,101  L 72,101  L 72,102  L 76,102  L 76,103  L 79,103  L 79,104  L 81,104  L 81,105  L 83,105  L 83,106  L 85,106  L 85,107  L 86,107  L 86,111  L 85,111  L 85,112  L 84,112  L 84,113  L 82,113  L 82,114  L 80,114  L 80,115  L 76,115  L 76,116  L 73,116  L 73,117  L 71,117  L 71,118  L 66,118  L 66,119  L 62,119  L 62,120  L 59,120  L 59,121  L 57,121  L 57,122  L 54,122  L 54,123  L 52,123  L 52,124  L 50,124  L 50,125  L 46,125  L 46,126  L 43,126  L 43,127  L 41,127  L 41,128  L 38,128  L 38,129  L 37,129  L 37,130  L 36,130  L 36,132  L 35,132  L 35,134  L 34,134  L 34,137  L 33,137  L 33,138  L 34,138  L 34,141  L 35,141  L 35,144  L 36,144  L 36,147  L 35,147  L 35,148  L 36,148  L 36,149  L 37,149  L 37,150  L 38,150  L 38,151  L 39,151  L 39,152  L 40,152  L 40,153  L 41,153  L 41,154  L 45,154  L 45,155  L 50,155  L 50,156  L 70,156  L 70,155  L 75,155  L 75,154  L 79,154  L 79,153  L 83,153  L 83,152  L 85,152  L 85,151  L 89,151  L 89,150  L 91,150  L 91,149  L 94,149  L 94,148  L 96,148  L 96,147  L 99,147  L 99,146  L 102,146  L 102,145  L 103,145  L 103,144  L 105,144  L 105,143  L 106,143  L 106,137  L 102,137  L 102,138  L 100,138  L 100,139  L 98,139  L 98,140  L 95,140  L 95,141  L 93,141  L 93,142  L 90,142  L 90,143  L 88,143  L 88,144  L 86,144  L 86,145  L 83,145  L 83,146  L 81,146  L 81,147  L 79,147  L 79,146  L 78,146  L 78,147  L 77,147  L 77,148  L 72,148  L 72,149  L 66,149  L 66,150  L 51,150  L 51,149  L 49,149  L 49,148  L 45,148  L 45,147  L 44,147  L 44,146  L 43,146  L 43,144  L 42,144  L 42,141  L 43,141  L 43,140  L 42,140  L 42,138  L 43,138  L 43,136  L 44,136  L 44,135  L 45,135  L 45,133  L 47,133  L 47,132  L 49,132  L 49,131  L 54,131  L 54,130  L 55,130  L 55,129  L 58,129  L 58,128  Z  " style="fill:rgb(0, 0, 0); fill-opacity:1.000; stroke:none;" />
 <path d="  M 38,101  L 39,101  L 39,100  L 38,100  Z  " style="fill:rgb(0, 0, 0); fill-opacity:1.000; stroke:none;" />
 <path d="  M 99,82  L 100,82  L 100,91  L 101,91  L 101,92  L 104,92  L 104,91  L 106,91  L 106,34  L 105,34  L 105,33  L 106,33  L 106,32  L 105,32  L 105,31  L 106,31  L 106,30  L 105,30  L 105,29  L 106,29  L 106,28  L 105,28  L 105,14  L 104,14  L 104,7  L 103,7  L 103,6  L 99,6  L 99,7  L 98,7  L 98,19  L 99,19  Z  " style="fill:rgb(0, 0, 0); fill-opacity:1.000; stroke:none;" />
</svg>
