<?xml version="1.0" encoding="UTF-8" standalone="no"?>
<!DOCTYPE svg PUBLIC "-//W3C//DTD SVG 1.1//EN" 
  "http://www.w3.org/Graphics/SVG/1.1/DTD/svg11.dtd">
<svg width="109" height="145"
     xmlns="http://www.w3.org/2000/svg" version="1.1">
 <path d="  M 72,58  L 71,58  L 71,57  L 69,57  L 69,56  L 67,56  L 67,55  L 64,55  L 64,54  L 62,54  L 62,53  L 59,53  L 59,52  L 54,52  L 54,53  L 49,53  L 49,54  L 46,54  L 46,55  L 45,55  L 45,56  L 43,56  L 43,57  L 41,57  L 41,58  L 40,58  L 40,59  L 39,59  L 39,60  L 38,60  L 38,61  L 37,61  L 37,62  L 36,62  L 36,64  L 35,64  L 35,65  L 34,65  L 34,67  L 33,67  L 33,69  L 31,69  L 31,72  L 30,72  L 30,74  L 29,74  L 29,75  L 28,75  L 28,78  L 27,78  L 27,81  L 26,81  L 26,92  L 27,92  L 27,96  L 28,96  L 28,97  L 29,97  L 29,99  L 30,99  L 30,100  L 31,100  L 31,101  L 33,101  L 33,102  L 35,102  L 35,103  L 38,103  L 38,104  L 41,104  L 41,105  L 47,105  L 47,104  L 49,104  L 49,105  L 50,105  L 50,107  L 49,107  L 49,109  L 50,109  L 50,110  L 49,110  L 49,114  L 50,114  L 50,116  L 49,116  L 49,130  L 50,130  L 50,132  L 49,132  L 49,133  L 42,133  L 42,134  L 41,134  L 41,133  L 40,133  L 40,134  L 37,134  L 37,133  L 36,133  L 36,134  L 33,134  L 33,135  L 27,135  L 27,136  L 21,136  L 21,137  L 14,137  L 14,138  L 13,138  L 13,137  L 11,137  L 11,138  L 9,138  L 9,137  L 8,137  L 8,138  L 3,138  L 3,139  L 2,139  L 2,141  L 1,141  L 1,143  L 0,143  L 0,144  L 2,144  L 2,145  L 15,145  L 15,144  L 21,144  L 21,143  L 29,143  L 29,142  L 30,142  L 30,143  L 32,143  L 32,142  L 40,142  L 40,141  L 47,141  L 47,140  L 53,140  L 53,139  L 54,139  L 54,140  L 55,140  L 55,139  L 60,139  L 60,138  L 74,138  L 74,137  L 75,137  L 75,138  L 76,138  L 76,137  L 79,137  L 79,138  L 80,138  L 80,137  L 85,137  L 85,136  L 86,136  L 86,137  L 87,137  L 87,136  L 88,136  L 88,137  L 89,137  L 89,136  L 97,136  L 97,135  L 98,135  L 98,136  L 99,136  L 99,135  L 105,135  L 105,134  L 108,134  L 108,133  L 109,133  L 109,129  L 108,129  L 108,128  L 107,128  L 107,127  L 103,127  L 103,128  L 95,128  L 95,129  L 94,129  L 94,128  L 93,128  L 93,129  L 92,129  L 92,128  L 91,128  L 91,129  L 80,129  L 80,130  L 77,130  L 77,129  L 76,129  L 76,130  L 73,130  L 73,129  L 72,129  L 72,130  L 68,130  L 68,131  L 57,131  L 57,128  L 56,128  L 56,127  L 57,127  L 57,112  L 58,112  L 58,111  L 57,111  L 57,110  L 58,110  L 58,109  L 57,109  L 57,106  L 58,106  L 58,103  L 59,103  L 59,102  L 61,102  L 61,101  L 65,101  L 65,100  L 66,100  L 66,99  L 68,99  L 68,98  L 69,98  L 69,97  L 70,97  L 70,96  L 72,96  L 72,95  L 73,95  L 73,94  L 74,94  L 74,92  L 75,92  L 75,91  L 76,91  L 76,90  L 77,90  L 77,88  L 78,88  L 78,86  L 79,86  L 79,82  L 80,82  L 80,67  L 79,67  L 79,65  L 78,65  L 78,63  L 77,63  L 77,62  L 76,62  L 76,61  L 75,61  L 75,60  L 74,60  L 74,59  L 72,59  Z  M 45,64  L 45,63  L 47,63  L 47,62  L 49,62  L 49,61  L 52,61  L 52,60  L 61,60  L 61,61  L 64,61  L 64,62  L 65,62  L 65,63  L 67,63  L 67,64  L 69,64  L 69,65  L 70,65  L 70,66  L 71,66  L 71,68  L 72,68  L 72,70  L 73,70  L 73,77  L 72,77  L 72,81  L 71,81  L 71,83  L 70,83  L 70,85  L 69,85  L 69,87  L 68,87  L 68,89  L 67,89  L 67,90  L 66,90  L 66,91  L 65,91  L 65,92  L 63,92  L 63,93  L 62,93  L 62,94  L 59,94  L 59,95  L 58,95  L 58,96  L 57,96  L 57,97  L 54,97  L 54,98  L 49,98  L 49,97  L 48,97  L 48,98  L 47,98  L 47,97  L 41,97  L 41,96  L 38,96  L 38,95  L 36,95  L 36,94  L 35,94  L 35,93  L 34,93  L 34,90  L 33,90  L 33,86  L 32,86  L 32,85  L 33,85  L 33,81  L 34,81  L 34,79  L 35,79  L 35,77  L 36,77  L 36,75  L 37,75  L 37,73  L 38,73  L 38,71  L 39,71  L 39,70  L 40,70  L 40,69  L 41,69  L 41,67  L 42,67  L 42,66  L 43,66  L 43,65  L 44,65  L 44,64  Z  " style="fill:rgb(0, 0, 0); fill-opacity:1.000; stroke:none;" />
 <path d="  M 54,14  L 53,14  L 53,13  L 52,13  L 52,11  L 51,11  L 51,10  L 49,10  L 49,9  L 48,9  L 48,8  L 47,8  L 47,7  L 46,7  L 46,4  L 44,4  L 44,3  L 43,3  L 43,4  L 42,4  L 42,9  L 43,9  L 43,10  L 42,10  L 42,11  L 43,11  L 43,12  L 42,12  L 42,14  L 41,14  L 41,15  L 42,15  L 42,17  L 43,17  L 43,19  L 45,19  L 45,20  L 47,20  L 47,21  L 48,21  L 48,32  L 49,32  L 49,33  L 48,33  L 48,34  L 44,34  L 44,33  L 42,33  L 42,34  L 38,34  L 38,35  L 30,35  L 30,36  L 29,36  L 29,35  L 28,35  L 28,36  L 23,36  L 23,37  L 20,37  L 20,38  L 18,38  L 18,39  L 17,39  L 17,44  L 18,44  L 18,45  L 19,45  L 19,46  L 22,46  L 22,45  L 23,45  L 23,44  L 27,44  L 27,43  L 33,43  L 33,42  L 56,42  L 56,41  L 59,41  L 59,40  L 63,40  L 63,39  L 64,39  L 64,40  L 65,40  L 65,39  L 73,39  L 73,38  L 83,38  L 83,37  L 87,37  L 87,36  L 88,36  L 88,35  L 89,35  L 89,33  L 88,33  L 88,32  L 87,32  L 87,31  L 86,31  L 86,30  L 75,30  L 75,31  L 63,31  L 63,32  L 62,32  L 62,31  L 60,31  L 60,32  L 53,32  L 53,25  L 54,25  L 54,19  L 55,19  L 55,16  L 54,16  Z  " style="fill:rgb(0, 0, 0); fill-opacity:1.000; stroke:none;" />
 <path d="  M 42,3  L 43,3  L 43,1  L 42,1  Z  " style="fill:rgb(0, 0, 0); fill-opacity:1.000; stroke:none;" />
</svg>
