<?xml version="1.0" encoding="UTF-8" standalone="no"?>
<!DOCTYPE svg PUBLIC "-//W3C//DTD SVG 1.1//EN" 
  "http://www.w3.org/Graphics/SVG/1.1/DTD/svg11.dtd">
<svg width="103" height="200"
     xmlns="http://www.w3.org/2000/svg" version="1.1">
 <path d="  M 59,76  L 59,77  L 58,77  L 58,78  L 57,78  L 57,79  L 56,79  L 56,80  L 55,80  L 55,81  L 53,81  L 53,82  L 50,82  L 50,83  L 47,83  L 47,82  L 41,82  L 41,81  L 35,81  L 35,80  L 32,80  L 32,79  L 31,79  L 31,78  L 30,78  L 30,70  L 31,70  L 31,69  L 33,69  L 33,67  L 34,67  L 34,66  L 35,66  L 35,65  L 37,65  L 37,64  L 38,64  L 38,63  L 39,63  L 39,62  L 40,62  L 40,61  L 41,61  L 41,60  L 43,60  L 43,59  L 44,59  L 44,58  L 46,58  L 46,57  L 55,57  L 55,58  L 57,58  L 57,60  L 58,60  L 58,61  L 59,61  L 59,62  L 60,62  L 60,65  L 61,65  L 61,66  L 62,66  L 62,71  L 63,71  L 63,72  L 62,72  L 62,74  L 61,74  L 61,76  Z  M 66,115  L 66,116  L 68,116  L 68,117  L 74,117  L 74,118  L 82,118  L 82,117  L 83,117  L 83,118  L 84,118  L 84,117  L 94,117  L 94,116  L 95,116  L 95,115  L 96,115  L 96,112  L 97,112  L 97,108  L 73,108  L 73,107  L 71,107  L 71,106  L 70,106  L 70,107  L 67,107  L 67,106  L 59,106  L 59,105  L 55,105  L 55,104  L 52,104  L 52,99  L 53,99  L 53,98  L 52,98  L 52,96  L 53,96  L 53,91  L 54,91  L 54,90  L 58,90  L 58,89  L 59,89  L 59,88  L 60,88  L 60,87  L 62,87  L 62,86  L 64,86  L 64,85  L 66,85  L 66,83  L 68,83  L 68,82  L 69,82  L 69,80  L 70,80  L 70,78  L 71,78  L 71,71  L 72,71  L 72,70  L 71,70  L 71,69  L 72,69  L 72,66  L 71,66  L 71,61  L 70,61  L 70,60  L 69,60  L 69,59  L 68,59  L 68,58  L 67,58  L 67,57  L 65,57  L 65,56  L 64,56  L 64,55  L 63,55  L 63,54  L 61,54  L 61,52  L 60,52  L 60,51  L 57,51  L 57,50  L 46,50  L 46,51  L 42,51  L 42,52  L 39,52  L 39,54  L 37,54  L 37,55  L 35,55  L 35,56  L 34,56  L 34,58  L 33,58  L 33,59  L 32,59  L 32,60  L 31,60  L 31,61  L 30,61  L 30,62  L 29,62  L 29,64  L 28,64  L 28,65  L 27,65  L 27,68  L 26,68  L 26,71  L 25,71  L 25,72  L 24,72  L 24,74  L 23,74  L 23,79  L 24,79  L 24,81  L 25,81  L 25,83  L 27,83  L 27,84  L 28,84  L 28,85  L 29,85  L 29,86  L 30,86  L 30,87  L 31,87  L 31,88  L 34,88  L 34,89  L 40,89  L 40,90  L 44,90  L 44,104  L 45,104  L 45,105  L 44,105  L 44,106  L 40,106  L 40,107  L 39,107  L 39,106  L 38,106  L 38,107  L 35,107  L 35,108  L 28,108  L 28,109  L 27,109  L 27,108  L 24,108  L 24,109  L 17,109  L 17,110  L 2,110  L 2,111  L 1,111  L 1,112  L 0,112  L 0,113  L 1,113  L 1,115  L 3,115  L 3,116  L 5,116  L 5,117  L 7,117  L 7,118  L 13,118  L 13,119  L 15,119  L 15,120  L 16,120  L 16,119  L 20,119  L 20,118  L 21,118  L 21,117  L 28,117  L 28,116  L 33,116  L 33,115  L 40,115  L 40,114  L 41,114  L 41,115  L 42,115  L 42,114  L 45,114  L 45,113  L 51,113  L 51,114  L 52,114  L 52,113  L 54,113  L 54,114  L 57,114  L 57,115  L 58,115  L 58,114  L 59,114  L 59,115  L 60,115  L 60,114  L 61,114  L 61,115  Z  " style="fill:rgb(0, 0, 0); fill-opacity:1.000; stroke:none;" />
 <path d="  M 60,30  L 60,31  L 58,31  L 58,30  L 57,30  L 57,31  L 54,31  L 54,32  L 50,32  L 50,31  L 49,31  L 49,29  L 48,29  L 48,24  L 47,24  L 47,1  L 45,1  L 45,0  L 42,0  L 42,1  L 40,1  L 40,2  L 39,2  L 39,3  L 40,3  L 40,30  L 41,30  L 41,32  L 42,32  L 42,34  L 41,34  L 41,35  L 40,35  L 40,34  L 38,34  L 38,33  L 35,33  L 35,32  L 28,32  L 28,33  L 23,33  L 23,34  L 21,34  L 21,35  L 18,35  L 18,36  L 13,36  L 13,37  L 12,37  L 12,39  L 11,39  L 11,40  L 12,40  L 12,42  L 13,42  L 13,43  L 19,43  L 19,42  L 20,42  L 20,43  L 21,43  L 21,42  L 35,42  L 35,41  L 40,41  L 40,42  L 42,42  L 42,41  L 45,41  L 45,40  L 46,40  L 46,41  L 47,41  L 47,40  L 48,40  L 48,41  L 49,41  L 49,40  L 50,40  L 50,41  L 51,41  L 51,40  L 54,40  L 54,41  L 55,41  L 55,40  L 58,40  L 58,39  L 63,39  L 63,38  L 70,38  L 70,37  L 72,37  L 72,36  L 74,36  L 74,35  L 76,35  L 76,36  L 77,36  L 77,35  L 79,35  L 79,34  L 82,34  L 82,33  L 85,33  L 85,29  L 84,29  L 84,27  L 82,27  L 82,26  L 80,26  L 80,25  L 76,25  L 76,24  L 75,24  L 75,25  L 74,25  L 74,26  L 73,26  L 73,27  L 72,27  L 72,28  L 70,28  L 70,30  L 69,30  L 69,29  L 68,29  L 68,30  Z  " style="fill:rgb(0, 0, 0); fill-opacity:1.000; stroke:none;" />
 <path d="  M 24,164  L 25,164  L 25,162  L 32,162  L 32,163  L 40,163  L 40,164  L 41,164  L 41,163  L 42,163  L 42,164  L 45,164  L 45,163  L 46,163  L 46,164  L 49,164  L 49,163  L 50,163  L 50,164  L 51,164  L 51,163  L 52,163  L 52,164  L 53,164  L 53,163  L 62,163  L 62,162  L 66,162  L 66,161  L 71,161  L 71,160  L 73,160  L 73,159  L 76,159  L 76,158  L 77,158  L 77,157  L 78,157  L 78,155  L 80,155  L 80,154  L 79,154  L 79,151  L 78,151  L 78,149  L 79,149  L 79,144  L 80,144  L 80,143  L 79,143  L 79,140  L 80,140  L 80,139  L 79,139  L 79,138  L 78,138  L 78,137  L 77,137  L 77,136  L 75,136  L 75,135  L 74,135  L 74,133  L 73,133  L 73,132  L 72,132  L 72,131  L 70,131  L 70,130  L 66,130  L 66,129  L 63,129  L 63,128  L 62,128  L 62,129  L 61,129  L 61,128  L 57,128  L 57,127  L 54,127  L 54,128  L 49,128  L 49,129  L 45,129  L 45,130  L 33,130  L 33,131  L 31,131  L 31,130  L 30,130  L 30,131  L 24,131  L 24,132  L 23,132  L 23,131  L 22,131  L 22,132  L 20,132  L 20,133  L 19,133  L 19,134  L 18,134  L 18,135  L 17,135  L 17,137  L 18,137  L 18,141  L 23,141  L 23,140  L 26,140  L 26,141  L 27,141  L 27,140  L 29,140  L 29,139  L 30,139  L 30,140  L 32,140  L 32,139  L 36,139  L 36,138  L 41,138  L 41,137  L 42,137  L 42,138  L 45,138  L 45,137  L 47,137  L 47,138  L 48,138  L 48,137  L 51,137  L 51,138  L 52,138  L 52,137  L 55,137  L 55,138  L 56,138  L 56,137  L 58,137  L 58,138  L 60,138  L 60,139  L 62,139  L 62,140  L 66,140  L 66,141  L 69,141  L 69,142  L 71,142  L 71,143  L 72,143  L 72,146  L 73,146  L 73,147  L 74,147  L 74,149  L 73,149  L 73,151  L 70,151  L 70,152  L 69,152  L 69,153  L 65,153  L 65,154  L 57,154  L 57,155  L 51,155  L 51,156  L 22,156  L 22,157  L 19,157  L 19,158  L 18,158  L 18,162  L 17,162  L 17,169  L 18,169  L 18,170  L 17,170  L 17,171  L 18,171  L 18,172  L 17,172  L 17,173  L 18,173  L 18,174  L 17,174  L 17,175  L 18,175  L 18,176  L 17,176  L 17,177  L 18,177  L 18,178  L 17,178  L 17,179  L 18,179  L 18,181  L 19,181  L 19,186  L 20,186  L 20,189  L 21,189  L 21,192  L 22,192  L 22,195  L 23,195  L 23,196  L 24,196  L 24,198  L 25,198  L 25,199  L 27,199  L 27,200  L 47,200  L 47,199  L 54,199  L 54,198  L 59,198  L 59,197  L 63,197  L 63,196  L 67,196  L 67,195  L 70,195  L 70,194  L 73,194  L 73,193  L 75,193  L 75,192  L 77,192  L 77,191  L 80,191  L 80,190  L 83,190  L 83,189  L 87,189  L 87,188  L 89,188  L 89,187  L 92,187  L 92,186  L 94,186  L 94,185  L 95,185  L 95,184  L 97,184  L 97,183  L 102,183  L 102,182  L 103,182  L 103,178  L 99,178  L 99,177  L 97,177  L 97,178  L 93,178  L 93,179  L 91,179  L 91,180  L 88,180  L 88,181  L 85,181  L 85,182  L 81,182  L 81,183  L 79,183  L 79,184  L 74,184  L 74,185  L 73,185  L 73,186  L 70,186  L 70,187  L 67,187  L 67,188  L 62,188  L 62,189  L 59,189  L 59,188  L 58,188  L 58,189  L 57,189  L 57,190  L 55,190  L 55,189  L 53,189  L 53,190  L 48,190  L 48,191  L 47,191  L 47,190  L 44,190  L 44,191  L 43,191  L 43,190  L 40,190  L 40,191  L 39,191  L 39,190  L 38,190  L 38,189  L 35,189  L 35,188  L 31,188  L 31,187  L 30,187  L 30,186  L 29,186  L 29,187  L 28,187  L 28,186  L 27,186  L 27,184  L 25,184  L 25,182  L 24,182  L 24,176  L 23,176  L 23,175  L 24,175  Z  " style="fill:rgb(0, 0, 0); fill-opacity:1.000; stroke:none;" />
 <path d="  M 66,20  L 67,20  L 67,19  L 70,19  L 70,18  L 65,18  L 65,17  L 58,17  L 58,18  L 57,18  L 57,23  L 58,23  L 58,24  L 59,24  L 59,23  L 60,23  L 60,24  L 63,24  L 63,23  L 62,23  L 62,22  L 63,22  L 63,21  L 64,21  L 64,20  L 65,20  L 65,21  L 66,21  Z  " style="fill:rgb(0, 0, 0); fill-opacity:1.000; stroke:none;" />
 <path d="  M 65,22  L 65,21  L 64,21  L 64,22  Z  " style="fill:rgb(0, 0, 0); fill-opacity:1.000; stroke:none;" />
</svg>
