<?xml version="1.0" encoding="UTF-8" standalone="no"?>
<!DOCTYPE svg PUBLIC "-//W3C//DTD SVG 1.1//EN" 
  "http://www.w3.org/Graphics/SVG/1.1/DTD/svg11.dtd">
<svg width="107" height="185"
     xmlns="http://www.w3.org/2000/svg" version="1.1">
 <path d="  M 72,58  L 71,58  L 71,57  L 69,57  L 69,56  L 67,56  L 67,55  L 66,55  L 66,54  L 64,54  L 64,53  L 62,53  L 62,52  L 61,52  L 61,51  L 60,51  L 60,50  L 58,50  L 58,49  L 49,49  L 49,50  L 46,50  L 46,51  L 45,51  L 45,52  L 43,52  L 43,53  L 40,53  L 40,54  L 38,54  L 38,55  L 37,55  L 37,56  L 36,56  L 36,57  L 35,57  L 35,58  L 34,58  L 34,59  L 33,59  L 33,60  L 32,60  L 32,62  L 31,62  L 31,63  L 30,63  L 30,65  L 29,65  L 29,67  L 28,67  L 28,69  L 27,69  L 27,71  L 26,71  L 26,74  L 25,74  L 25,82  L 26,82  L 26,83  L 27,83  L 27,86  L 28,86  L 28,87  L 29,87  L 29,88  L 30,88  L 30,89  L 31,89  L 31,90  L 35,90  L 35,91  L 37,91  L 37,90  L 38,90  L 38,91  L 46,91  L 46,93  L 47,93  L 47,94  L 46,94  L 46,95  L 47,95  L 47,103  L 46,103  L 46,104  L 47,104  L 47,108  L 45,108  L 45,109  L 44,109  L 44,108  L 43,108  L 43,109  L 31,109  L 31,110  L 23,110  L 23,111  L 3,111  L 3,112  L 1,112  L 1,114  L 0,114  L 0,116  L 1,116  L 1,117  L 2,117  L 2,118  L 3,118  L 3,119  L 4,119  L 4,120  L 5,120  L 5,121  L 8,121  L 8,120  L 9,120  L 9,121  L 10,121  L 10,120  L 14,120  L 14,119  L 21,119  L 21,118  L 31,118  L 31,117  L 40,117  L 40,116  L 52,116  L 52,115  L 55,115  L 55,114  L 56,114  L 56,115  L 57,115  L 57,114  L 61,114  L 61,113  L 66,113  L 66,112  L 67,112  L 67,113  L 68,113  L 68,112  L 71,112  L 71,111  L 72,111  L 72,112  L 74,112  L 74,111  L 80,111  L 80,112  L 81,112  L 81,111  L 82,111  L 82,112  L 83,112  L 83,111  L 84,111  L 84,112  L 85,112  L 85,111  L 86,111  L 86,112  L 91,112  L 91,113  L 92,113  L 92,112  L 95,112  L 95,113  L 96,113  L 96,112  L 97,112  L 97,113  L 101,113  L 101,114  L 103,114  L 103,113  L 104,113  L 104,111  L 105,111  L 105,108  L 104,108  L 104,106  L 103,106  L 103,105  L 102,105  L 102,104  L 89,104  L 89,103  L 87,103  L 87,104  L 85,104  L 85,103  L 83,103  L 83,104  L 82,104  L 82,103  L 78,103  L 78,104  L 77,104  L 77,103  L 75,103  L 75,104  L 73,104  L 73,103  L 72,103  L 72,104  L 67,104  L 67,105  L 66,105  L 66,104  L 64,104  L 64,105  L 61,105  L 61,106  L 53,106  L 53,105  L 54,105  L 54,93  L 55,93  L 55,91  L 56,91  L 56,90  L 57,90  L 57,89  L 60,89  L 60,88  L 61,88  L 61,87  L 63,87  L 63,86  L 64,86  L 64,85  L 66,85  L 66,84  L 68,84  L 68,83  L 69,83  L 69,82  L 70,82  L 70,81  L 71,81  L 71,79  L 72,79  L 72,77  L 73,77  L 73,69  L 74,69  L 74,63  L 73,63  L 73,61  L 72,61  Z  M 37,83  L 37,82  L 34,82  L 34,81  L 32,81  L 32,79  L 31,79  L 31,75  L 32,75  L 32,72  L 33,72  L 33,71  L 34,71  L 34,69  L 35,69  L 35,67  L 36,67  L 36,65  L 38,65  L 38,64  L 39,64  L 39,63  L 40,63  L 40,62  L 42,62  L 42,61  L 43,61  L 43,60  L 44,60  L 44,59  L 47,59  L 47,58  L 48,58  L 48,57  L 50,57  L 50,56  L 57,56  L 57,57  L 58,57  L 58,58  L 59,58  L 59,59  L 60,59  L 60,60  L 61,60  L 61,61  L 62,61  L 62,62  L 63,62  L 63,64  L 64,64  L 64,65  L 65,65  L 65,68  L 66,68  L 66,74  L 65,74  L 65,75  L 64,75  L 64,76  L 63,76  L 63,77  L 62,77  L 62,78  L 61,78  L 61,79  L 60,79  L 60,80  L 58,80  L 58,81  L 56,81  L 56,82  L 54,82  L 54,83  L 51,83  L 51,84  L 47,84  L 47,83  L 45,83  L 45,84  L 44,84  L 44,83  Z  " style="fill:rgb(0, 0, 0); fill-opacity:1.000; stroke:none;" />
 <path d="  M 36,176  L 36,177  L 33,177  L 33,178  L 16,178  L 16,177  L 14,177  L 14,176  L 13,176  L 13,175  L 12,175  L 12,170  L 11,170  L 11,161  L 12,161  L 12,159  L 14,159  L 14,158  L 15,158  L 15,157  L 26,157  L 26,156  L 31,156  L 31,155  L 37,155  L 37,154  L 38,154  L 38,155  L 41,155  L 41,154  L 43,154  L 43,153  L 44,153  L 44,151  L 46,151  L 46,150  L 48,150  L 48,151  L 52,151  L 52,150  L 51,150  L 51,149  L 46,149  L 46,148  L 45,148  L 45,147  L 43,147  L 43,146  L 42,146  L 42,147  L 41,147  L 41,146  L 40,146  L 40,147  L 34,147  L 34,148  L 28,148  L 28,149  L 24,149  L 24,150  L 23,150  L 23,149  L 22,149  L 22,150  L 19,150  L 19,151  L 8,151  L 8,152  L 5,152  L 5,153  L 4,153  L 4,154  L 3,154  L 3,155  L 4,155  L 4,162  L 3,162  L 3,163  L 4,163  L 4,164  L 3,164  L 3,165  L 4,165  L 4,167  L 5,167  L 5,168  L 4,168  L 4,169  L 5,169  L 5,174  L 6,174  L 6,178  L 7,178  L 7,179  L 8,179  L 8,180  L 9,180  L 9,182  L 10,182  L 10,183  L 11,183  L 11,184  L 13,184  L 13,185  L 33,185  L 33,184  L 40,184  L 40,183  L 44,183  L 44,182  L 47,182  L 47,181  L 48,181  L 48,180  L 52,180  L 52,179  L 53,179  L 53,176  L 52,176  L 52,172  L 49,172  L 49,173  L 46,173  L 46,174  L 44,174  L 44,175  L 40,175  L 40,176  Z  " style="fill:rgb(0, 0, 0); fill-opacity:1.000; stroke:none;" />
 <path d="  M 101,179  L 101,178  L 102,178  L 102,179  L 104,179  L 104,178  L 105,178  L 105,177  L 107,177  L 107,171  L 105,171  L 105,170  L 102,170  L 102,171  L 101,171  L 101,170  L 100,170  L 100,171  L 98,171  L 98,172  L 93,172  L 93,173  L 89,173  L 89,174  L 83,174  L 83,175  L 81,175  L 81,174  L 80,174  L 80,175  L 69,175  L 69,174  L 67,174  L 67,171  L 66,171  L 66,170  L 67,170  L 67,154  L 68,154  L 68,153  L 78,153  L 78,152  L 79,152  L 79,153  L 80,153  L 80,152  L 81,152  L 81,153  L 82,153  L 82,152  L 85,152  L 85,151  L 86,151  L 86,152  L 87,152  L 87,151  L 90,151  L 90,150  L 97,150  L 97,149  L 99,149  L 99,148  L 100,148  L 100,147  L 101,147  L 101,145  L 100,145  L 100,143  L 86,143  L 86,144  L 80,144  L 80,145  L 69,145  L 69,146  L 68,146  L 68,144  L 67,144  L 67,135  L 68,135  L 68,134  L 69,134  L 69,133  L 72,133  L 72,132  L 77,132  L 77,131  L 83,131  L 83,130  L 94,130  L 94,131  L 95,131  L 95,130  L 97,130  L 97,126  L 96,126  L 96,124  L 95,124  L 95,123  L 89,123  L 89,124  L 88,124  L 88,123  L 87,123  L 87,124  L 76,124  L 76,125  L 73,125  L 73,124  L 72,124  L 72,125  L 68,125  L 68,126  L 63,126  L 63,127  L 61,127  L 61,128  L 57,128  L 57,129  L 54,129  L 54,130  L 51,130  L 51,131  L 50,131  L 50,132  L 49,132  L 49,133  L 48,133  L 48,132  L 45,132  L 45,131  L 43,131  L 43,130  L 40,130  L 40,129  L 39,129  L 39,130  L 37,130  L 37,129  L 24,129  L 24,130  L 15,130  L 15,131  L 10,131  L 10,132  L 7,132  L 7,136  L 6,136  L 6,137  L 7,137  L 7,138  L 6,138  L 6,139  L 14,139  L 14,138  L 19,138  L 19,137  L 20,137  L 20,138  L 22,138  L 22,137  L 33,137  L 33,138  L 34,138  L 34,137  L 35,137  L 35,138  L 36,138  L 36,139  L 37,139  L 37,138  L 38,138  L 38,140  L 39,140  L 39,142  L 41,142  L 41,143  L 42,143  L 42,144  L 46,144  L 46,143  L 47,143  L 47,142  L 48,142  L 48,138  L 49,138  L 49,136  L 51,136  L 51,135  L 52,135  L 52,134  L 53,134  L 53,135  L 54,135  L 54,134  L 57,134  L 57,133  L 58,133  L 58,134  L 59,134  L 59,149  L 60,149  L 60,179  L 61,179  L 61,180  L 62,180  L 62,181  L 67,181  L 67,182  L 77,182  L 77,181  L 78,181  L 78,182  L 80,182  L 80,181  L 89,181  L 89,180  L 95,180  L 95,179  Z  " style="fill:rgb(0, 0, 0); fill-opacity:1.000; stroke:none;" />
 <path d="  M 21,34  L 21,35  L 17,35  L 17,36  L 14,36  L 14,37  L 13,37  L 13,38  L 12,38  L 12,39  L 13,39  L 13,42  L 16,42  L 16,43  L 19,43  L 19,42  L 36,42  L 36,41  L 37,41  L 37,42  L 38,42  L 38,41  L 41,41  L 41,42  L 43,42  L 43,41  L 46,41  L 46,42  L 47,42  L 47,41  L 49,41  L 49,40  L 50,40  L 50,41  L 57,41  L 57,40  L 58,40  L 58,41  L 59,41  L 59,40  L 62,40  L 62,39  L 69,39  L 69,38  L 73,38  L 73,37  L 77,37  L 77,36  L 79,36  L 79,35  L 83,35  L 83,34  L 84,34  L 84,35  L 85,35  L 85,34  L 87,34  L 87,33  L 88,33  L 88,31  L 89,31  L 89,30  L 88,30  L 88,28  L 87,28  L 87,27  L 84,27  L 84,26  L 79,26  L 79,25  L 78,25  L 78,26  L 77,26  L 77,27  L 76,27  L 76,28  L 73,28  L 73,29  L 71,29  L 71,30  L 67,30  L 67,31  L 64,31  L 64,30  L 63,30  L 63,31  L 57,31  L 57,32  L 55,32  L 55,31  L 54,31  L 54,32  L 53,32  L 53,31  L 52,31  L 52,28  L 51,28  L 51,24  L 50,24  L 50,2  L 49,2  L 49,1  L 47,1  L 47,0  L 45,0  L 45,1  L 44,1  L 44,2  L 43,2  L 43,4  L 42,4  L 42,5  L 43,5  L 43,8  L 42,8  L 42,9  L 43,9  L 43,12  L 42,12  L 42,13  L 43,13  L 43,29  L 44,29  L 44,33  L 41,33  L 41,32  L 36,32  L 36,31  L 35,31  L 35,32  L 33,32  L 33,33  L 32,33  L 32,32  L 31,32  L 31,33  L 26,33  L 26,34  Z  " style="fill:rgb(0, 0, 0); fill-opacity:1.000; stroke:none;" />
 <path d="  M 51,159  L 52,159  L 52,158  L 51,158  Z  " style="fill:rgb(0, 0, 0); fill-opacity:1.000; stroke:none;" />
 <path d="  M 59,20  L 64,20  L 64,19  L 66,19  L 66,16  L 59,16  Z  " style="fill:rgb(0, 0, 0); fill-opacity:1.000; stroke:none;" />
</svg>
