<?xml version="1.0" encoding="UTF-8" standalone="no"?>
<!DOCTYPE svg PUBLIC "-//W3C//DTD SVG 1.1//EN" 
  "http://www.w3.org/Graphics/SVG/1.1/DTD/svg11.dtd">
<svg width="103" height="191"
     xmlns="http://www.w3.org/2000/svg" version="1.1">
 <path d="  M 62,51  L 60,51  L 60,50  L 50,50  L 50,51  L 46,51  L 46,52  L 44,52  L 44,53  L 42,53  L 42,54  L 40,54  L 40,55  L 38,55  L 38,56  L 36,56  L 36,57  L 35,57  L 35,58  L 34,58  L 34,59  L 33,59  L 33,60  L 32,60  L 32,62  L 30,62  L 30,64  L 29,64  L 29,65  L 28,65  L 28,67  L 27,67  L 27,68  L 26,68  L 26,70  L 25,70  L 25,71  L 24,71  L 24,74  L 23,74  L 23,79  L 24,79  L 24,81  L 25,81  L 25,83  L 26,83  L 26,84  L 27,84  L 27,85  L 28,85  L 28,86  L 29,86  L 29,87  L 31,87  L 31,88  L 32,88  L 32,89  L 33,89  L 33,90  L 35,90  L 35,91  L 36,91  L 36,92  L 38,92  L 38,93  L 40,93  L 40,94  L 47,94  L 47,99  L 48,99  L 48,102  L 47,102  L 47,103  L 48,103  L 48,111  L 32,111  L 32,112  L 19,112  L 19,113  L 18,113  L 18,112  L 17,112  L 17,113  L 14,113  L 14,112  L 13,112  L 13,113  L 10,113  L 10,114  L 1,114  L 1,115  L 0,115  L 0,118  L 1,118  L 1,119  L 3,119  L 3,120  L 6,120  L 6,121  L 8,121  L 8,122  L 10,122  L 10,121  L 30,121  L 30,120  L 32,120  L 32,121  L 33,121  L 33,120  L 36,120  L 36,121  L 37,121  L 37,120  L 48,120  L 48,119  L 49,119  L 49,120  L 50,120  L 50,119  L 53,119  L 53,120  L 54,120  L 54,119  L 66,119  L 66,118  L 67,118  L 67,119  L 68,119  L 68,118  L 69,118  L 69,119  L 70,119  L 70,118  L 89,118  L 89,119  L 90,119  L 90,118  L 91,118  L 91,119  L 94,119  L 94,118  L 95,118  L 95,119  L 101,119  L 101,118  L 102,118  L 102,117  L 103,117  L 103,111  L 100,111  L 100,110  L 95,110  L 95,111  L 94,111  L 94,110  L 93,110  L 93,111  L 90,111  L 90,110  L 89,110  L 89,111  L 86,111  L 86,110  L 85,110  L 85,111  L 82,111  L 82,110  L 79,110  L 79,111  L 78,111  L 78,110  L 75,110  L 75,111  L 74,111  L 74,110  L 71,110  L 71,111  L 70,111  L 70,110  L 63,110  L 63,111  L 62,111  L 62,110  L 56,110  L 56,109  L 55,109  L 55,94  L 56,94  L 56,93  L 62,93  L 62,92  L 65,92  L 65,91  L 67,91  L 67,90  L 69,90  L 69,89  L 71,89  L 71,88  L 72,88  L 72,87  L 74,87  L 74,85  L 76,85  L 76,82  L 77,82  L 77,80  L 78,80  L 78,77  L 79,77  L 79,69  L 78,69  L 78,66  L 77,66  L 77,62  L 76,62  L 76,60  L 75,60  L 75,59  L 73,59  L 73,58  L 72,58  L 72,57  L 70,57  L 70,56  L 69,56  L 69,55  L 68,55  L 68,54  L 66,54  L 66,53  L 63,53  L 63,52  L 62,52  Z  M 30,75  L 31,75  L 31,73  L 32,73  L 32,70  L 33,70  L 33,69  L 35,69  L 35,68  L 36,68  L 36,67  L 37,67  L 37,66  L 38,66  L 38,65  L 39,65  L 39,64  L 40,64  L 40,63  L 42,63  L 42,62  L 43,62  L 43,61  L 46,61  L 46,60  L 48,60  L 48,59  L 51,59  L 51,58  L 59,58  L 59,59  L 62,59  L 62,60  L 63,60  L 63,61  L 65,61  L 65,62  L 66,62  L 66,63  L 67,63  L 67,64  L 68,64  L 68,65  L 69,65  L 69,67  L 70,67  L 70,69  L 71,69  L 71,76  L 70,76  L 70,77  L 71,77  L 71,78  L 70,78  L 70,79  L 69,79  L 69,80  L 68,80  L 68,81  L 67,81  L 67,82  L 65,82  L 65,83  L 63,83  L 63,84  L 60,84  L 60,85  L 58,85  L 58,86  L 56,86  L 56,87  L 52,87  L 52,88  L 50,88  L 50,87  L 45,87  L 45,86  L 41,86  L 41,85  L 39,85  L 39,84  L 37,84  L 37,83  L 36,83  L 36,82  L 34,82  L 34,81  L 33,81  L 33,80  L 32,80  L 32,79  L 31,79  L 31,78  L 30,78  Z  " style="fill:rgb(0, 0, 0); fill-opacity:1.000; stroke:none;" />
 <path d="  M 16,34  L 16,35  L 13,35  L 13,36  L 12,36  L 12,40  L 14,40  L 14,41  L 18,41  L 18,42  L 20,42  L 20,41  L 22,41  L 22,42  L 23,42  L 23,41  L 26,41  L 26,42  L 27,42  L 27,41  L 46,41  L 46,40  L 63,40  L 63,39  L 72,39  L 72,38  L 73,38  L 73,39  L 74,39  L 74,38  L 77,38  L 77,37  L 79,37  L 79,38  L 80,38  L 80,37  L 81,37  L 81,36  L 85,36  L 85,35  L 86,35  L 86,36  L 87,36  L 87,35  L 88,35  L 88,34  L 89,34  L 89,33  L 90,33  L 90,32  L 91,32  L 91,30  L 90,30  L 90,29  L 89,29  L 89,28  L 88,28  L 88,27  L 87,27  L 87,26  L 84,26  L 84,25  L 83,25  L 83,24  L 80,24  L 80,25  L 79,25  L 79,27  L 78,27  L 78,28  L 77,28  L 77,29  L 76,29  L 76,30  L 71,30  L 71,31  L 63,31  L 63,32  L 54,32  L 54,31  L 53,31  L 53,28  L 52,28  L 52,24  L 51,24  L 51,21  L 52,21  L 52,20  L 51,20  L 51,15  L 50,15  L 50,4  L 49,4  L 49,2  L 47,2  L 47,1  L 42,1  L 42,3  L 41,3  L 41,5  L 42,5  L 42,22  L 43,22  L 43,23  L 42,23  L 42,24  L 43,24  L 43,29  L 44,29  L 44,33  L 41,33  L 41,32  L 37,32  L 37,31  L 34,31  L 34,32  L 33,32  L 33,31  L 32,31  L 32,32  L 28,32  L 28,33  L 23,33  L 23,34  Z  " style="fill:rgb(0, 0, 0); fill-opacity:1.000; stroke:none;" />
 <path d="  M 68,148  L 68,149  L 69,149  L 69,150  L 70,150  L 70,151  L 71,151  L 71,152  L 72,152  L 72,154  L 73,154  L 73,156  L 74,156  L 74,157  L 75,157  L 75,158  L 76,158  L 76,163  L 77,163  L 77,170  L 76,170  L 76,172  L 75,172  L 75,175  L 74,175  L 74,177  L 73,177  L 73,178  L 72,178  L 72,179  L 71,179  L 71,180  L 70,180  L 70,181  L 69,181  L 69,182  L 67,182  L 67,183  L 66,183  L 66,182  L 65,182  L 65,183  L 64,183  L 64,184  L 62,184  L 62,183  L 60,183  L 60,184  L 58,184  L 58,183  L 56,183  L 56,184  L 54,184  L 54,183  L 50,183  L 50,182  L 49,182  L 49,183  L 46,183  L 46,182  L 41,182  L 41,181  L 38,181  L 38,180  L 36,180  L 36,179  L 34,179  L 34,178  L 32,178  L 32,177  L 31,177  L 31,175  L 30,175  L 30,173  L 29,173  L 29,163  L 30,163  L 30,160  L 31,160  L 31,159  L 32,159  L 32,157  L 33,157  L 33,156  L 34,156  L 34,155  L 35,155  L 35,153  L 36,153  L 36,151  L 37,151  L 37,150  L 39,150  L 39,149  L 40,149  L 40,148  L 42,148  L 42,147  L 43,147  L 43,146  L 46,146  L 46,145  L 57,145  L 57,146  L 61,146  L 61,147  L 62,147  L 62,146  L 63,146  L 63,147  L 65,147  L 65,148  Z  M 85,166  L 86,166  L 86,161  L 85,161  L 85,155  L 84,155  L 84,152  L 83,152  L 83,151  L 82,151  L 82,150  L 81,150  L 81,149  L 80,149  L 80,148  L 79,148  L 79,147  L 77,147  L 77,146  L 75,146  L 75,145  L 74,145  L 74,144  L 73,144  L 73,143  L 70,143  L 70,142  L 69,142  L 69,141  L 67,141  L 67,140  L 64,140  L 64,139  L 62,139  L 62,138  L 56,138  L 56,137  L 45,137  L 45,138  L 42,138  L 42,139  L 40,139  L 40,140  L 38,140  L 38,141  L 37,141  L 37,142  L 36,142  L 36,143  L 35,143  L 35,145  L 34,145  L 34,146  L 32,146  L 32,148  L 31,148  L 31,149  L 29,149  L 29,150  L 28,150  L 28,151  L 26,151  L 26,152  L 25,152  L 25,153  L 24,153  L 24,155  L 23,155  L 23,157  L 22,157  L 22,162  L 21,162  L 21,171  L 22,171  L 22,172  L 21,172  L 21,173  L 22,173  L 22,175  L 23,175  L 23,178  L 24,178  L 24,179  L 25,179  L 25,181  L 26,181  L 26,182  L 27,182  L 27,183  L 28,183  L 28,184  L 29,184  L 29,185  L 31,185  L 31,186  L 32,186  L 32,187  L 34,187  L 34,188  L 37,188  L 37,189  L 41,189  L 41,190  L 45,190  L 45,191  L 68,191  L 68,190  L 70,190  L 70,189  L 72,189  L 72,188  L 73,188  L 73,187  L 74,187  L 74,186  L 75,186  L 75,185  L 77,185  L 77,184  L 78,184  L 78,183  L 79,183  L 79,181  L 80,181  L 80,179  L 81,179  L 81,178  L 82,178  L 82,176  L 83,176  L 83,174  L 84,174  L 84,171  L 85,171  Z  " style="fill:rgb(0, 0, 0); fill-opacity:1.000; stroke:none;" />
 <path d="  M 70,14  L 70,13  L 69,13  L 69,14  L 66,14  L 66,13  L 59,13  L 59,14  L 58,14  L 58,15  L 57,15  L 57,16  L 56,16  L 56,18  L 57,18  L 57,19  L 58,19  L 58,20  L 59,20  L 59,21  L 61,21  L 61,22  L 63,22  L 63,21  L 68,21  L 68,20  L 71,20  L 71,19  L 75,19  L 75,18  L 76,18  L 76,17  L 77,17  L 77,16  L 76,16  L 76,15  L 74,15  L 74,14  Z  " style="fill:rgb(0, 0, 0); fill-opacity:1.000; stroke:none;" />
</svg>
