<?xml version="1.0" encoding="UTF-8" standalone="no"?>
<!DOCTYPE svg PUBLIC "-//W3C//DTD SVG 1.1//EN" 
  "http://www.w3.org/Graphics/SVG/1.1/DTD/svg11.dtd">
<svg width="101" height="147"
     xmlns="http://www.w3.org/2000/svg" version="1.1">
 <path d="  M 23,92  L 22,92  L 22,83  L 23,83  L 23,80  L 24,80  L 24,78  L 25,78  L 25,76  L 26,76  L 26,75  L 27,75  L 27,73  L 28,73  L 28,71  L 29,71  L 29,70  L 30,70  L 30,69  L 31,69  L 31,68  L 33,68  L 33,67  L 34,67  L 34,66  L 35,66  L 35,65  L 48,65  L 48,66  L 50,66  L 50,67  L 54,67  L 54,68  L 55,68  L 55,69  L 57,69  L 57,70  L 58,70  L 58,71  L 59,71  L 59,72  L 60,72  L 60,75  L 61,75  L 61,76  L 60,76  L 60,81  L 59,81  L 59,85  L 58,85  L 58,87  L 57,87  L 57,88  L 56,88  L 56,90  L 55,90  L 55,91  L 54,91  L 54,92  L 52,92  L 52,93  L 51,93  L 51,94  L 49,94  L 49,95  L 48,95  L 48,96  L 45,96  L 45,97  L 43,97  L 43,98  L 41,98  L 41,99  L 40,99  L 40,98  L 38,98  L 38,97  L 30,97  L 30,96  L 25,96  L 25,95  L 24,95  L 24,94  L 23,94  Z  M 37,103  L 37,104  L 38,104  L 38,121  L 39,121  L 39,124  L 38,124  L 38,126  L 35,126  L 35,127  L 34,127  L 34,126  L 33,126  L 33,127  L 26,127  L 26,128  L 25,128  L 25,127  L 24,127  L 24,128  L 23,128  L 23,127  L 22,127  L 22,128  L 18,128  L 18,129  L 17,129  L 17,128  L 16,128  L 16,129  L 8,129  L 8,130  L 7,130  L 7,129  L 6,129  L 6,130  L 1,130  L 1,132  L 0,132  L 0,134  L 1,134  L 1,135  L 5,135  L 5,136  L 12,136  L 12,135  L 13,135  L 13,136  L 14,136  L 14,135  L 17,135  L 17,136  L 18,136  L 18,135  L 23,135  L 23,134  L 29,134  L 29,133  L 38,133  L 38,132  L 46,132  L 46,131  L 51,131  L 51,130  L 58,130  L 58,129  L 63,129  L 63,128  L 69,128  L 69,127  L 76,127  L 76,126  L 77,126  L 77,127  L 78,127  L 78,126  L 79,126  L 79,127  L 82,127  L 82,126  L 84,126  L 84,125  L 85,125  L 85,124  L 86,124  L 86,121  L 85,121  L 85,119  L 84,119  L 84,118  L 79,118  L 79,119  L 76,119  L 76,120  L 71,120  L 71,121  L 66,121  L 66,122  L 61,122  L 61,123  L 54,123  L 54,124  L 51,124  L 51,123  L 50,123  L 50,124  L 47,124  L 47,123  L 46,123  L 46,121  L 45,121  L 45,103  L 47,103  L 47,102  L 51,102  L 51,101  L 52,101  L 52,100  L 54,100  L 54,99  L 55,99  L 55,98  L 57,98  L 57,97  L 58,97  L 58,96  L 60,96  L 60,95  L 61,95  L 61,94  L 62,94  L 62,93  L 63,93  L 63,91  L 64,91  L 64,89  L 65,89  L 65,87  L 66,87  L 66,84  L 67,84  L 67,77  L 68,77  L 68,74  L 67,74  L 67,72  L 66,72  L 66,70  L 65,70  L 65,68  L 64,68  L 64,67  L 63,67  L 63,66  L 62,66  L 62,65  L 61,65  L 61,64  L 59,64  L 59,63  L 58,63  L 58,62  L 55,62  L 55,61  L 51,61  L 51,60  L 47,60  L 47,59  L 43,59  L 43,58  L 37,58  L 37,57  L 34,57  L 34,58  L 32,58  L 32,59  L 31,59  L 31,60  L 30,60  L 30,61  L 29,61  L 29,62  L 28,62  L 28,63  L 27,63  L 27,64  L 26,64  L 26,66  L 25,66  L 25,67  L 24,67  L 24,69  L 22,69  L 22,70  L 21,70  L 21,71  L 20,71  L 20,73  L 19,73  L 19,75  L 18,75  L 18,78  L 17,78  L 17,81  L 16,81  L 16,86  L 15,86  L 15,92  L 16,92  L 16,95  L 17,95  L 17,98  L 18,98  L 18,99  L 19,99  L 19,101  L 21,101  L 21,102  L 22,102  L 22,103  L 26,103  L 26,104  L 35,104  L 35,103  Z  " style="fill:rgb(0, 0, 0); fill-opacity:1.000; stroke:none;" />
 <path d="  M 63,49  L 63,48  L 62,48  L 62,47  L 61,47  L 61,46  L 59,46  L 59,45  L 58,45  L 58,44  L 57,44  L 57,43  L 54,43  L 54,42  L 51,42  L 51,41  L 40,41  L 40,42  L 39,42  L 39,41  L 38,41  L 38,42  L 25,42  L 25,43  L 14,43  L 14,44  L 11,44  L 11,43  L 10,43  L 10,44  L 9,44  L 9,45  L 5,45  L 5,47  L 4,47  L 4,48  L 3,48  L 3,49  L 2,49  L 2,50  L 3,50  L 3,51  L 4,51  L 4,52  L 8,52  L 8,51  L 9,51  L 9,52  L 10,52  L 10,51  L 17,51  L 17,50  L 18,50  L 18,51  L 19,51  L 19,50  L 28,50  L 28,49  L 31,49  L 31,50  L 32,50  L 32,49  L 42,49  L 42,50  L 43,50  L 43,49  L 53,49  L 53,50  L 56,50  L 56,51  L 60,51  L 60,52  L 62,52  L 62,53  L 66,53  L 66,54  L 67,54  L 67,53  L 68,53  L 68,52  L 67,52  L 67,51  L 66,51  L 66,50  L 64,50  L 64,49  Z  " style="fill:rgb(0, 0, 0); fill-opacity:1.000; stroke:none;" />
 <path d="  M 31,17  L 32,17  L 32,28  L 33,28  L 33,31  L 34,31  L 34,34  L 35,34  L 35,35  L 36,35  L 36,36  L 37,36  L 37,37  L 39,37  L 39,38  L 43,38  L 43,35  L 42,35  L 42,32  L 41,32  L 41,27  L 40,27  L 40,21  L 39,21  L 39,18  L 38,18  L 38,9  L 37,9  L 37,3  L 36,3  L 36,2  L 35,2  L 35,1  L 34,1  L 34,0  L 32,0  L 32,3  L 31,3  L 31,11  L 30,11  L 30,12  L 31,12  Z  " style="fill:rgb(0, 0, 0); fill-opacity:1.000; stroke:none;" />
 <path d="  M 96,138  L 95,138  L 95,139  L 96,139  L 96,141  L 95,141  L 95,146  L 96,146  L 96,147  L 101,147  L 101,59  L 100,59  L 100,56  L 101,56  L 101,55  L 100,55  L 100,49  L 99,49  L 99,44  L 98,44  L 98,39  L 97,39  L 97,35  L 96,35  L 96,31  L 95,31  L 95,23  L 94,23  L 94,22  L 93,22  L 93,21  L 90,21  L 90,20  L 89,20  L 89,21  L 87,21  L 87,27  L 88,27  L 88,32  L 89,32  L 89,33  L 88,33  L 88,34  L 89,34  L 89,36  L 90,36  L 90,41  L 91,41  L 91,45  L 92,45  L 92,50  L 93,50  L 93,57  L 94,57  L 94,58  L 93,58  L 93,60  L 94,60  L 94,70  L 95,70  L 95,101  L 96,101  L 96,102  L 95,102  L 95,103  L 96,103  Z  " style="fill:rgb(0, 0, 0); fill-opacity:1.000; stroke:none;" />
</svg>
