<?xml version="1.0" encoding="UTF-8" standalone="no"?>
<!DOCTYPE svg PUBLIC "-//W3C//DTD SVG 1.1//EN" 
  "http://www.w3.org/Graphics/SVG/1.1/DTD/svg11.dtd">
<svg width="102" height="170"
     xmlns="http://www.w3.org/2000/svg" version="1.1">
 <path d="  M 19,37  L 19,36  L 18,36  L 18,37  L 14,37  L 14,38  L 11,38  L 11,39  L 8,39  L 8,40  L 3,40  L 3,41  L 1,41  L 1,43  L 0,43  L 0,44  L 1,44  L 1,45  L 2,45  L 2,46  L 8,46  L 8,45  L 10,45  L 10,44  L 14,44  L 14,43  L 22,43  L 22,42  L 24,42  L 24,43  L 25,43  L 25,42  L 47,42  L 47,41  L 55,41  L 55,40  L 56,40  L 56,41  L 57,41  L 57,40  L 62,40  L 62,39  L 64,39  L 64,38  L 65,38  L 65,37  L 66,37  L 66,34  L 64,34  L 64,33  L 49,33  L 49,34  L 48,34  L 48,33  L 45,33  L 45,34  L 44,34  L 44,35  L 40,35  L 40,36  L 39,36  L 39,35  L 38,35  L 38,34  L 37,34  L 37,31  L 36,31  L 36,21  L 35,21  L 35,20  L 36,20  L 36,19  L 35,19  L 35,12  L 34,12  L 34,11  L 35,11  L 35,10  L 34,10  L 34,2  L 33,2  L 33,1  L 31,1  L 31,0  L 30,0  L 30,1  L 28,1  L 28,2  L 27,2  L 27,3  L 28,3  L 28,4  L 27,4  L 27,7  L 28,7  L 28,8  L 27,8  L 27,10  L 28,10  L 28,18  L 29,18  L 29,19  L 28,19  L 28,20  L 29,20  L 29,26  L 30,26  L 30,33  L 31,33  L 31,36  L 21,36  L 21,37  Z  " style="fill:rgb(0, 0, 0); fill-opacity:1.000; stroke:none;" />
 <path d="  M 42,82  L 42,83  L 39,83  L 39,84  L 35,84  L 35,85  L 34,85  L 34,84  L 26,84  L 26,83  L 22,83  L 22,82  L 20,82  L 20,81  L 19,81  L 19,73  L 20,73  L 20,71  L 21,71  L 21,69  L 22,69  L 22,67  L 23,67  L 23,66  L 24,66  L 24,64  L 26,64  L 26,63  L 27,63  L 27,62  L 29,62  L 29,61  L 30,61  L 30,60  L 31,60  L 31,59  L 42,59  L 42,60  L 44,60  L 44,61  L 46,61  L 46,62  L 48,62  L 48,63  L 49,63  L 49,64  L 50,64  L 50,65  L 52,65  L 52,67  L 53,67  L 53,70  L 54,70  L 54,72  L 53,72  L 53,74  L 52,74  L 52,75  L 51,75  L 51,76  L 50,76  L 50,77  L 49,77  L 49,78  L 48,78  L 48,79  L 47,79  L 47,80  L 46,80  L 46,81  L 45,81  L 45,82  Z  M 18,117  L 18,116  L 22,116  L 22,115  L 27,115  L 27,114  L 28,114  L 28,115  L 29,115  L 29,114  L 34,114  L 34,113  L 43,113  L 43,112  L 46,112  L 46,111  L 53,111  L 53,110  L 59,110  L 59,109  L 65,109  L 65,108  L 69,108  L 69,107  L 73,107  L 73,106  L 75,106  L 75,105  L 77,105  L 77,104  L 80,104  L 80,103  L 81,103  L 81,100  L 82,100  L 82,99  L 81,99  L 81,97  L 77,97  L 77,98  L 74,98  L 74,99  L 72,99  L 72,100  L 70,100  L 70,101  L 66,101  L 66,102  L 62,102  L 62,103  L 56,103  L 56,104  L 50,104  L 50,105  L 42,105  L 42,106  L 40,106  L 40,105  L 39,105  L 39,93  L 40,93  L 40,91  L 41,91  L 41,89  L 43,89  L 43,88  L 46,88  L 46,87  L 47,87  L 47,86  L 50,86  L 50,85  L 52,85  L 52,84  L 54,84  L 54,83  L 56,83  L 56,82  L 57,82  L 57,81  L 59,81  L 59,80  L 62,80  L 62,79  L 63,79  L 63,76  L 62,76  L 62,75  L 61,75  L 61,73  L 60,73  L 60,69  L 59,69  L 59,66  L 58,66  L 58,64  L 57,64  L 57,62  L 56,62  L 56,61  L 55,61  L 55,60  L 54,60  L 54,59  L 53,59  L 53,58  L 52,58  L 52,57  L 51,57  L 51,56  L 49,56  L 49,55  L 47,55  L 47,53  L 45,53  L 45,52  L 43,52  L 43,51  L 42,51  L 42,52  L 41,52  L 41,51  L 35,51  L 35,52  L 31,52  L 31,53  L 29,53  L 29,54  L 27,54  L 27,55  L 26,55  L 26,56  L 25,56  L 25,57  L 24,57  L 24,58  L 22,58  L 22,59  L 21,59  L 21,60  L 20,60  L 20,61  L 19,61  L 19,62  L 18,62  L 18,63  L 17,63  L 17,65  L 16,65  L 16,67  L 15,67  L 15,69  L 14,69  L 14,71  L 13,71  L 13,77  L 12,77  L 12,79  L 13,79  L 13,83  L 14,83  L 14,85  L 15,85  L 15,87  L 17,87  L 17,88  L 19,88  L 19,89  L 22,89  L 22,90  L 25,90  L 25,91  L 28,91  L 28,92  L 29,92  L 29,91  L 31,91  L 31,92  L 32,92  L 32,93  L 33,93  L 33,96  L 32,96  L 32,97  L 33,97  L 33,99  L 32,99  L 32,107  L 33,107  L 33,108  L 31,108  L 31,109  L 21,109  L 21,110  L 19,110  L 19,109  L 18,109  L 18,110  L 15,110  L 15,111  L 10,111  L 10,112  L 3,112  L 3,113  L 2,113  L 2,114  L 1,114  L 1,117  L 3,117  L 3,118  L 11,118  L 11,117  Z  " style="fill:rgb(0, 0, 0); fill-opacity:1.000; stroke:none;" />
 <path d="  M 46,163  L 46,164  L 43,164  L 43,163  L 41,163  L 41,162  L 40,162  L 40,155  L 39,155  L 39,135  L 40,135  L 40,128  L 39,128  L 39,127  L 37,127  L 37,128  L 35,128  L 35,129  L 34,129  L 34,130  L 33,130  L 33,131  L 32,131  L 32,140  L 31,140  L 31,141  L 32,141  L 32,144  L 31,144  L 31,146  L 32,146  L 32,148  L 31,148  L 31,150  L 32,150  L 32,152  L 31,152  L 31,154  L 32,154  L 32,161  L 33,161  L 33,165  L 34,165  L 34,167  L 35,167  L 35,168  L 36,168  L 36,169  L 38,169  L 38,170  L 66,170  L 66,169  L 75,169  L 75,168  L 81,168  L 81,167  L 90,167  L 90,166  L 98,166  L 98,165  L 100,165  L 100,164  L 102,164  L 102,158  L 98,158  L 98,159  L 94,159  L 94,160  L 87,160  L 87,161  L 80,161  L 80,162  L 79,162  L 79,161  L 78,161  L 78,162  L 70,162  L 70,163  L 56,163  L 56,164  L 55,164  L 55,163  L 54,163  L 54,164  L 47,164  L 47,163  Z  " style="fill:rgb(0, 0, 0); fill-opacity:1.000; stroke:none;" />
 <path d="  M 88,42  L 87,42  L 87,32  L 86,32  L 86,31  L 87,31  L 87,30  L 86,30  L 86,29  L 84,29  L 84,30  L 83,30  L 83,32  L 82,32  L 82,38  L 81,38  L 81,43  L 82,43  L 82,52  L 83,52  L 83,60  L 84,60  L 84,68  L 85,68  L 85,74  L 86,74  L 86,76  L 85,76  L 85,77  L 86,77  L 86,96  L 87,96  L 87,103  L 86,103  L 86,104  L 87,104  L 87,111  L 88,111  L 88,117  L 89,117  L 89,118  L 90,118  L 90,120  L 95,120  L 95,113  L 94,113  L 94,105  L 93,105  L 93,87  L 92,87  L 92,86  L 93,86  L 93,85  L 92,85  L 92,74  L 91,74  L 91,68  L 90,68  L 90,57  L 89,57  L 89,56  L 90,56  L 90,55  L 89,55  L 89,51  L 88,51  L 88,50  L 89,50  L 89,49  L 88,49  Z  " style="fill:rgb(0, 0, 0); fill-opacity:1.000; stroke:none;" />
</svg>
