<?xml version="1.0" encoding="UTF-8" standalone="no"?>
<!DOCTYPE svg PUBLIC "-//W3C//DTD SVG 1.1//EN" 
  "http://www.w3.org/Graphics/SVG/1.1/DTD/svg11.dtd">
<svg width="103" height="173"
     xmlns="http://www.w3.org/2000/svg" version="1.1">
 <path d="  M 29,75  L 29,74  L 25,74  L 25,73  L 23,73  L 23,72  L 21,72  L 21,71  L 20,71  L 20,64  L 21,64  L 21,61  L 22,61  L 22,59  L 23,59  L 23,57  L 24,57  L 24,56  L 25,56  L 25,55  L 26,55  L 26,54  L 28,54  L 28,53  L 30,53  L 30,52  L 32,52  L 32,51  L 37,51  L 37,50  L 40,50  L 40,51  L 41,51  L 41,50  L 42,50  L 42,51  L 46,51  L 46,52  L 48,52  L 48,53  L 49,53  L 49,54  L 51,54  L 51,55  L 52,55  L 52,56  L 54,56  L 54,58  L 55,58  L 55,60  L 56,60  L 56,61  L 57,61  L 57,64  L 56,64  L 56,66  L 55,66  L 55,67  L 54,67  L 54,68  L 53,68  L 53,69  L 52,69  L 52,70  L 51,70  L 51,71  L 49,71  L 49,72  L 48,72  L 48,73  L 46,73  L 46,74  L 45,74  L 45,75  L 43,75  L 43,76  L 33,76  L 33,75  Z  M 51,107  L 51,106  L 56,106  L 56,105  L 61,105  L 61,104  L 62,104  L 62,105  L 63,105  L 63,104  L 67,104  L 67,103  L 72,103  L 72,102  L 76,102  L 76,101  L 81,101  L 81,100  L 84,100  L 84,99  L 88,99  L 88,97  L 90,97  L 90,96  L 89,96  L 89,95  L 90,95  L 90,94  L 89,94  L 89,93  L 88,93  L 88,92  L 81,92  L 81,93  L 78,93  L 78,94  L 76,94  L 76,95  L 71,95  L 71,96  L 66,96  L 66,97  L 65,97  L 65,96  L 64,96  L 64,97  L 61,97  L 61,98  L 55,98  L 55,99  L 45,99  L 45,100  L 42,100  L 42,85  L 43,85  L 43,84  L 42,84  L 42,83  L 43,83  L 43,82  L 44,82  L 44,81  L 45,81  L 45,80  L 48,80  L 48,79  L 53,79  L 53,78  L 54,78  L 54,77  L 56,77  L 56,76  L 57,76  L 57,75  L 59,75  L 59,74  L 61,74  L 61,73  L 62,73  L 62,72  L 63,72  L 63,69  L 64,69  L 64,68  L 63,68  L 63,57  L 62,57  L 62,55  L 61,55  L 61,54  L 60,54  L 60,53  L 59,53  L 59,52  L 58,52  L 58,51  L 56,51  L 56,50  L 55,50  L 55,49  L 54,49  L 54,48  L 52,48  L 52,47  L 50,47  L 50,46  L 48,46  L 48,45  L 45,45  L 45,44  L 39,44  L 39,45  L 38,45  L 38,44  L 35,44  L 35,45  L 34,45  L 34,44  L 33,44  L 33,45  L 28,45  L 28,46  L 27,46  L 27,45  L 26,45  L 26,46  L 24,46  L 24,47  L 23,47  L 23,48  L 22,48  L 22,49  L 21,49  L 21,51  L 20,51  L 20,52  L 19,52  L 19,53  L 18,53  L 18,55  L 17,55  L 17,57  L 16,57  L 16,58  L 15,58  L 15,60  L 14,60  L 14,61  L 13,61  L 13,63  L 12,63  L 12,66  L 11,66  L 11,67  L 12,67  L 12,68  L 11,68  L 11,69  L 12,69  L 12,73  L 13,73  L 13,75  L 15,75  L 15,77  L 17,77  L 17,78  L 18,78  L 18,79  L 20,79  L 20,80  L 23,80  L 23,81  L 27,81  L 27,82  L 33,82  L 33,83  L 34,83  L 34,102  L 30,102  L 30,103  L 25,103  L 25,104  L 18,104  L 18,105  L 17,105  L 17,104  L 16,104  L 16,105  L 13,105  L 13,106  L 10,106  L 10,107  L 9,107  L 9,106  L 8,106  L 8,107  L 5,107  L 5,108  L 1,108  L 1,110  L 0,110  L 0,111  L 1,111  L 1,112  L 2,112  L 2,114  L 9,114  L 9,113  L 10,113  L 10,114  L 11,114  L 11,113  L 14,113  L 14,112  L 19,112  L 19,111  L 25,111  L 25,110  L 29,110  L 29,109  L 36,109  L 36,108  L 39,108  L 39,109  L 40,109  L 40,108  L 45,108  L 45,107  Z  " style="fill:rgb(0, 0, 0); fill-opacity:1.000; stroke:none;" />
 <path d="  M 26,3  L 25,3  L 25,6  L 26,6  L 26,11  L 27,11  L 27,13  L 28,13  L 28,17  L 29,17  L 29,24  L 30,24  L 30,27  L 31,27  L 31,29  L 30,29  L 30,30  L 23,30  L 23,31  L 11,31  L 11,32  L 7,32  L 7,33  L 3,33  L 3,34  L 2,34  L 2,35  L 3,35  L 3,36  L 2,36  L 2,37  L 3,37  L 3,38  L 2,38  L 2,39  L 5,39  L 5,40  L 6,40  L 6,39  L 9,39  L 9,38  L 15,38  L 15,37  L 44,37  L 44,36  L 51,36  L 51,35  L 61,35  L 61,34  L 62,34  L 62,35  L 63,35  L 63,34  L 69,34  L 69,33  L 70,33  L 70,32  L 71,32  L 71,31  L 72,31  L 72,30  L 73,30  L 73,27  L 72,27  L 72,26  L 71,26  L 71,25  L 70,25  L 70,26  L 69,26  L 69,25  L 68,25  L 68,26  L 66,26  L 66,27  L 52,27  L 52,28  L 49,28  L 49,27  L 48,27  L 48,28  L 44,28  L 44,29  L 37,29  L 37,23  L 36,23  L 36,18  L 35,18  L 35,10  L 34,10  L 34,9  L 35,9  L 35,8  L 34,8  L 34,6  L 33,6  L 33,3  L 32,3  L 32,2  L 31,2  L 31,1  L 26,1  Z  " style="fill:rgb(0, 0, 0); fill-opacity:1.000; stroke:none;" />
 <path d="  M 46,164  L 45,164  L 45,158  L 44,158  L 44,150  L 43,150  L 43,149  L 44,149  L 44,145  L 46,145  L 46,144  L 50,144  L 50,143  L 69,143  L 69,142  L 70,142  L 70,143  L 75,143  L 75,142  L 76,142  L 76,143  L 77,143  L 77,142  L 78,142  L 78,143  L 79,143  L 79,142  L 80,142  L 80,143  L 81,143  L 81,142  L 82,142  L 82,143  L 83,143  L 83,142  L 84,142  L 84,143  L 87,143  L 87,142  L 88,142  L 88,143  L 92,143  L 92,144  L 93,144  L 93,147  L 92,147  L 92,149  L 93,149  L 93,150  L 92,150  L 92,154  L 91,154  L 91,157  L 90,157  L 90,158  L 89,158  L 89,159  L 88,159  L 88,160  L 84,160  L 84,162  L 80,162  L 80,163  L 77,163  L 77,164  L 70,164  L 70,165  L 69,165  L 69,164  L 68,164  L 68,165  L 64,165  L 64,166  L 63,166  L 63,165  L 62,165  L 62,166  L 46,166  Z  M 102,123  L 101,123  L 101,121  L 100,121  L 100,120  L 96,120  L 96,135  L 95,135  L 95,136  L 58,136  L 58,137  L 57,137  L 57,136  L 56,136  L 56,137  L 53,137  L 53,136  L 52,136  L 52,137  L 49,137  L 49,136  L 48,136  L 48,137  L 46,137  L 46,136  L 45,136  L 45,120  L 44,120  L 44,118  L 43,118  L 43,117  L 40,117  L 40,118  L 38,118  L 38,120  L 37,120  L 37,131  L 36,131  L 36,133  L 37,133  L 37,136  L 36,136  L 36,137  L 37,137  L 37,138  L 36,138  L 36,149  L 37,149  L 37,152  L 36,152  L 36,153  L 37,153  L 37,160  L 38,160  L 38,167  L 39,167  L 39,169  L 40,169  L 40,170  L 41,170  L 41,171  L 42,171  L 42,172  L 46,172  L 46,173  L 69,173  L 69,172  L 73,172  L 73,171  L 74,171  L 74,172  L 75,172  L 75,171  L 79,171  L 79,170  L 81,170  L 81,169  L 84,169  L 84,168  L 88,168  L 88,167  L 89,167  L 89,166  L 90,166  L 90,165  L 92,165  L 92,164  L 93,164  L 93,163  L 96,163  L 96,162  L 97,162  L 97,161  L 98,161  L 98,158  L 99,158  L 99,153  L 100,153  L 100,146  L 101,146  L 101,141  L 102,141  L 102,140  L 101,140  L 101,139  L 102,139  Z  " style="fill:rgb(0, 0, 0); fill-opacity:1.000; stroke:none;" />
 <path d="  M 95,20  L 95,16  L 94,16  L 94,14  L 92,14  L 92,13  L 90,13  L 90,14  L 89,14  L 89,16  L 88,16  L 88,21  L 89,21  L 89,22  L 88,22  L 88,23  L 89,23  L 89,29  L 90,29  L 90,33  L 91,33  L 91,37  L 92,37  L 92,41  L 93,41  L 93,45  L 94,45  L 94,49  L 95,49  L 95,54  L 96,54  L 96,55  L 95,55  L 95,57  L 96,57  L 96,79  L 97,79  L 97,80  L 96,80  L 96,82  L 97,82  L 97,109  L 98,109  L 98,110  L 99,110  L 99,111  L 103,111  L 103,63  L 102,63  L 102,61  L 103,61  L 103,60  L 102,60  L 102,52  L 101,52  L 101,51  L 102,51  L 102,50  L 101,50  L 101,46  L 100,46  L 100,42  L 99,42  L 99,38  L 98,38  L 98,34  L 97,34  L 97,28  L 96,28  L 96,20  Z  " style="fill:rgb(0, 0, 0); fill-opacity:1.000; stroke:none;" />
</svg>
