<?xml version="1.0" encoding="UTF-8" standalone="no"?>
<!DOCTYPE svg PUBLIC "-//W3C//DTD SVG 1.1//EN" 
  "http://www.w3.org/Graphics/SVG/1.1/DTD/svg11.dtd">
<svg width="114" height="168"
     xmlns="http://www.w3.org/2000/svg" version="1.1">
 <path d="  M 1,104  L 1,105  L 0,105  L 0,108  L 1,108  L 1,110  L 3,110  L 3,111  L 7,111  L 7,110  L 14,110  L 14,109  L 15,109  L 15,110  L 16,110  L 16,109  L 21,109  L 21,108  L 22,108  L 22,109  L 23,109  L 23,108  L 29,108  L 29,107  L 39,107  L 39,106  L 55,106  L 55,105  L 57,105  L 57,106  L 58,106  L 58,105  L 61,105  L 61,106  L 62,106  L 62,105  L 67,105  L 67,104  L 70,104  L 70,105  L 73,105  L 73,106  L 78,106  L 78,105  L 81,105  L 81,104  L 83,104  L 83,103  L 86,103  L 86,101  L 87,101  L 87,100  L 89,100  L 89,99  L 90,99  L 90,98  L 89,98  L 89,97  L 90,97  L 90,96  L 88,96  L 88,97  L 85,97  L 85,98  L 82,98  L 82,97  L 74,97  L 74,98  L 71,98  L 71,97  L 70,97  L 70,98  L 67,98  L 67,97  L 66,97  L 66,98  L 63,98  L 63,97  L 62,97  L 62,98  L 50,98  L 50,99  L 48,99  L 48,98  L 46,98  L 46,99  L 44,99  L 44,97  L 43,97  L 43,87  L 44,87  L 44,84  L 45,84  L 45,83  L 49,83  L 49,82  L 51,82  L 51,81  L 53,81  L 53,80  L 55,80  L 55,79  L 58,79  L 58,78  L 59,78  L 59,77  L 60,77  L 60,76  L 61,76  L 61,75  L 62,75  L 62,74  L 63,74  L 63,73  L 64,73  L 64,71  L 65,71  L 65,64  L 64,64  L 64,60  L 63,60  L 63,59  L 62,59  L 62,57  L 61,57  L 61,56  L 60,56  L 60,55  L 59,55  L 59,54  L 58,54  L 58,53  L 57,53  L 57,52  L 56,52  L 56,51  L 54,51  L 54,50  L 52,50  L 52,49  L 51,49  L 51,48  L 49,48  L 49,47  L 47,47  L 47,46  L 35,46  L 35,47  L 31,47  L 31,48  L 30,48  L 30,49  L 28,49  L 28,50  L 27,50  L 27,52  L 25,52  L 25,53  L 24,53  L 24,54  L 23,54  L 23,55  L 22,55  L 22,56  L 21,56  L 21,58  L 20,58  L 20,59  L 19,59  L 19,61  L 18,61  L 18,63  L 17,63  L 17,67  L 16,67  L 16,71  L 17,71  L 17,75  L 18,75  L 18,76  L 19,76  L 19,78  L 20,78  L 20,79  L 21,79  L 21,80  L 23,80  L 23,81  L 25,81  L 25,82  L 27,82  L 27,83  L 29,83  L 29,84  L 36,84  L 36,85  L 37,85  L 37,87  L 36,87  L 36,93  L 37,93  L 37,94  L 36,94  L 36,95  L 37,95  L 37,96  L 36,96  L 36,98  L 37,98  L 37,99  L 36,99  L 36,100  L 35,100  L 35,101  L 28,101  L 28,102  L 27,102  L 27,101  L 26,101  L 26,102  L 18,102  L 18,103  L 17,103  L 17,102  L 16,102  L 16,103  L 9,103  L 9,104  Z  M 51,74  L 51,75  L 49,75  L 49,76  L 47,76  L 47,77  L 45,77  L 45,78  L 41,78  L 41,79  L 38,79  L 38,78  L 33,78  L 33,77  L 29,77  L 29,76  L 27,76  L 27,75  L 25,75  L 25,74  L 24,74  L 24,73  L 23,73  L 23,71  L 22,71  L 22,67  L 23,67  L 23,64  L 24,64  L 24,63  L 25,63  L 25,61  L 26,61  L 26,60  L 27,60  L 27,59  L 28,59  L 28,58  L 29,58  L 29,57  L 30,57  L 30,56  L 31,56  L 31,55  L 34,55  L 34,54  L 36,54  L 36,53  L 42,53  L 42,54  L 46,54  L 46,55  L 48,55  L 48,56  L 50,56  L 50,57  L 51,57  L 51,58  L 53,58  L 53,60  L 55,60  L 55,61  L 56,61  L 56,63  L 57,63  L 57,65  L 58,65  L 58,68  L 57,68  L 57,70  L 56,70  L 56,71  L 55,71  L 55,72  L 54,72  L 54,73  L 53,73  L 53,74  Z  " style="fill:rgb(0, 0, 0); fill-opacity:1.000; stroke:none;" />
 <path d="  M 5,37  L 6,37  L 6,40  L 10,40  L 10,39  L 13,39  L 13,38  L 18,38  L 18,37  L 41,37  L 41,36  L 47,36  L 47,35  L 55,35  L 55,34  L 56,34  L 56,35  L 59,35  L 59,34  L 60,34  L 60,35  L 61,35  L 61,34  L 62,34  L 62,35  L 63,35  L 63,34  L 64,34  L 64,35  L 65,35  L 65,34  L 66,34  L 66,35  L 67,35  L 67,34  L 69,34  L 69,33  L 70,33  L 70,30  L 69,30  L 69,29  L 68,29  L 68,28  L 51,28  L 51,27  L 50,27  L 50,28  L 46,28  L 46,29  L 41,29  L 41,28  L 40,28  L 40,23  L 39,23  L 39,17  L 38,17  L 38,9  L 37,9  L 37,8  L 38,8  L 38,7  L 37,7  L 37,1  L 35,1  L 35,0  L 32,0  L 32,1  L 31,1  L 31,2  L 30,2  L 30,11  L 31,11  L 31,15  L 32,15  L 32,20  L 33,20  L 33,26  L 34,26  L 34,29  L 27,29  L 27,30  L 23,30  L 23,31  L 16,31  L 16,32  L 11,32  L 11,33  L 9,33  L 9,34  L 7,34  L 7,35  L 6,35  L 6,36  L 5,36  Z  " style="fill:rgb(0, 0, 0); fill-opacity:1.000; stroke:none;" />
 <path d="  M 111,164  L 111,163  L 112,163  L 112,164  L 114,164  L 114,159  L 113,159  L 113,158  L 111,158  L 111,157  L 110,157  L 110,156  L 107,156  L 107,155  L 106,155  L 106,154  L 104,154  L 104,153  L 102,153  L 102,152  L 101,152  L 101,151  L 99,151  L 99,150  L 98,150  L 98,149  L 96,149  L 96,148  L 94,148  L 94,147  L 91,147  L 91,145  L 88,145  L 88,144  L 86,144  L 86,143  L 83,143  L 83,142  L 82,142  L 82,141  L 80,141  L 80,140  L 79,140  L 79,139  L 76,139  L 76,138  L 75,138  L 75,137  L 74,137  L 74,136  L 72,136  L 72,135  L 71,135  L 71,134  L 69,134  L 69,133  L 68,133  L 68,132  L 67,132  L 67,130  L 66,130  L 66,127  L 67,127  L 67,124  L 68,124  L 68,122  L 69,122  L 69,121  L 70,121  L 70,119  L 71,119  L 71,117  L 72,117  L 72,114  L 70,114  L 70,115  L 68,115  L 68,116  L 67,116  L 67,117  L 66,117  L 66,118  L 65,118  L 65,119  L 64,119  L 64,120  L 63,120  L 63,121  L 62,121  L 62,123  L 61,123  L 61,124  L 60,124  L 60,126  L 59,126  L 59,128  L 58,128  L 58,131  L 57,131  L 57,132  L 56,132  L 56,133  L 55,133  L 55,135  L 54,135  L 54,136  L 53,136  L 53,138  L 52,138  L 52,139  L 51,139  L 51,141  L 50,141  L 50,142  L 49,142  L 49,143  L 48,143  L 48,145  L 47,145  L 47,147  L 46,147  L 46,148  L 45,148  L 45,150  L 44,150  L 44,151  L 43,151  L 43,152  L 42,152  L 42,153  L 41,153  L 41,155  L 40,155  L 40,156  L 39,156  L 39,157  L 38,157  L 38,158  L 37,158  L 37,159  L 36,159  L 36,160  L 35,160  L 35,161  L 33,161  L 33,163  L 32,163  L 32,167  L 33,167  L 33,168  L 37,168  L 37,167  L 39,167  L 39,166  L 41,166  L 41,165  L 42,165  L 42,164  L 43,164  L 43,163  L 44,163  L 44,162  L 45,162  L 45,161  L 46,161  L 46,160  L 47,160  L 47,159  L 48,159  L 48,158  L 49,158  L 49,157  L 50,157  L 50,156  L 51,156  L 51,154  L 52,154  L 52,152  L 53,152  L 53,150  L 54,150  L 54,149  L 55,149  L 55,147  L 56,147  L 56,146  L 57,146  L 57,144  L 58,144  L 58,143  L 59,143  L 59,142  L 60,142  L 60,140  L 61,140  L 61,139  L 64,139  L 64,140  L 66,140  L 66,141  L 67,141  L 67,142  L 69,142  L 69,143  L 70,143  L 70,144  L 72,144  L 72,145  L 73,145  L 73,146  L 75,146  L 75,147  L 77,147  L 77,148  L 79,148  L 79,149  L 81,149  L 81,150  L 83,150  L 83,151  L 85,151  L 85,152  L 88,152  L 88,153  L 90,153  L 90,154  L 91,154  L 91,155  L 93,155  L 93,156  L 95,156  L 95,157  L 97,157  L 97,158  L 98,158  L 98,159  L 100,159  L 100,160  L 101,160  L 101,161  L 102,161  L 102,162  L 106,162  L 106,163  L 108,163  L 108,164  Z  " style="fill:rgb(0, 0, 0); fill-opacity:1.000; stroke:none;" />
 <path d="  M 96,118  L 97,118  L 97,119  L 98,119  L 98,120  L 102,120  L 102,119  L 103,119  L 103,118  L 104,118  L 104,117  L 103,117  L 103,104  L 102,104  L 102,87  L 101,87  L 101,86  L 102,86  L 102,85  L 101,85  L 101,84  L 102,84  L 102,83  L 101,83  L 101,65  L 100,65  L 100,57  L 99,57  L 99,56  L 100,56  L 100,55  L 99,55  L 99,53  L 98,53  L 98,49  L 97,49  L 97,45  L 96,45  L 96,42  L 95,42  L 95,40  L 94,40  L 94,37  L 93,37  L 93,35  L 92,35  L 92,32  L 90,32  L 90,30  L 89,30  L 89,28  L 88,28  L 88,27  L 87,27  L 87,25  L 86,25  L 86,26  L 85,26  L 85,28  L 86,28  L 86,30  L 87,30  L 87,34  L 88,34  L 88,38  L 89,38  L 89,41  L 90,41  L 90,44  L 91,44  L 91,48  L 92,48  L 92,52  L 93,52  L 93,58  L 94,58  L 94,70  L 95,70  L 95,91  L 96,91  L 96,92  L 95,92  L 95,93  L 96,93  Z  " style="fill:rgb(0, 0, 0); fill-opacity:1.000; stroke:none;" />
</svg>
