<?xml version="1.0" encoding="UTF-8" standalone="no"?>
<!DOCTYPE svg PUBLIC "-//W3C//DTD SVG 1.1//EN" 
  "http://www.w3.org/Graphics/SVG/1.1/DTD/svg11.dtd">
<svg width="103" height="192"
     xmlns="http://www.w3.org/2000/svg" version="1.1">
 <path d="  M 72,183  L 71,183  L 71,185  L 70,185  L 70,187  L 69,187  L 69,188  L 70,188  L 70,191  L 71,191  L 71,192  L 75,192  L 75,191  L 76,191  L 76,190  L 77,190  L 77,188  L 78,188  L 78,187  L 79,187  L 79,184  L 80,184  L 80,182  L 81,182  L 81,180  L 82,180  L 82,178  L 83,178  L 83,172  L 84,172  L 84,170  L 85,170  L 85,169  L 84,169  L 84,166  L 85,166  L 85,165  L 84,165  L 84,163  L 85,163  L 85,152  L 86,152  L 86,151  L 85,151  L 85,148  L 86,148  L 86,142  L 85,142  L 85,140  L 84,140  L 84,139  L 83,139  L 83,138  L 82,138  L 82,136  L 81,136  L 81,135  L 76,135  L 76,134  L 75,134  L 75,133  L 74,133  L 74,134  L 71,134  L 71,133  L 70,133  L 70,134  L 67,134  L 67,133  L 66,133  L 66,134  L 64,134  L 64,133  L 62,133  L 62,134  L 61,134  L 61,133  L 60,133  L 60,123  L 59,123  L 59,122  L 60,122  L 60,119  L 59,119  L 59,118  L 60,118  L 60,115  L 59,115  L 59,114  L 60,114  L 60,104  L 61,104  L 61,103  L 64,103  L 64,104  L 65,104  L 65,103  L 85,103  L 85,102  L 86,102  L 86,103  L 87,103  L 87,102  L 99,102  L 99,101  L 101,101  L 101,99  L 102,99  L 102,98  L 103,98  L 103,91  L 99,91  L 99,92  L 98,92  L 98,93  L 93,93  L 93,94  L 89,94  L 89,95  L 80,95  L 80,96  L 79,96  L 79,95  L 78,95  L 78,96  L 58,96  L 58,97  L 57,97  L 57,96  L 49,96  L 49,97  L 45,97  L 45,98  L 41,98  L 41,99  L 34,99  L 34,100  L 29,100  L 29,101  L 22,101  L 22,102  L 16,102  L 16,103  L 12,103  L 12,104  L 8,104  L 8,105  L 5,105  L 5,106  L 3,106  L 3,107  L 2,107  L 2,106  L 1,106  L 1,109  L 0,109  L 0,110  L 1,110  L 1,111  L 0,111  L 0,112  L 1,112  L 1,113  L 5,113  L 5,114  L 7,114  L 7,113  L 8,113  L 8,112  L 11,112  L 11,111  L 13,111  L 13,110  L 19,110  L 19,109  L 25,109  L 25,108  L 31,108  L 31,107  L 32,107  L 32,108  L 33,108  L 33,107  L 41,107  L 41,106  L 46,106  L 46,105  L 47,105  L 47,104  L 51,104  L 51,106  L 52,106  L 52,135  L 50,135  L 50,136  L 42,136  L 42,137  L 36,137  L 36,138  L 35,138  L 35,137  L 34,137  L 34,138  L 31,138  L 31,137  L 30,137  L 30,139  L 24,139  L 24,140  L 19,140  L 19,139  L 18,139  L 18,140  L 15,140  L 15,139  L 14,139  L 14,141  L 13,141  L 13,146  L 14,146  L 14,147  L 16,147  L 16,148  L 19,148  L 19,147  L 20,147  L 20,148  L 21,148  L 21,147  L 27,147  L 27,146  L 38,146  L 38,145  L 45,145  L 45,144  L 50,144  L 50,143  L 59,143  L 59,142  L 72,142  L 72,143  L 75,143  L 75,144  L 77,144  L 77,146  L 78,146  L 78,153  L 77,153  L 77,159  L 76,159  L 76,166  L 75,166  L 75,169  L 74,169  L 74,170  L 75,170  L 75,171  L 74,171  L 74,174  L 73,174  L 73,178  L 72,178  Z  " style="fill:rgb(0, 0, 0); fill-opacity:1.000; stroke:none;" />
 <path d="  M 55,32  L 55,33  L 53,33  L 53,32  L 51,32  L 51,30  L 50,30  L 50,27  L 49,27  L 49,21  L 48,21  L 48,15  L 47,15  L 47,1  L 45,1  L 45,0  L 44,0  L 44,1  L 41,1  L 41,3  L 40,3  L 40,10  L 41,10  L 41,11  L 40,11  L 40,12  L 41,12  L 41,13  L 40,13  L 40,14  L 41,14  L 41,22  L 42,22  L 42,28  L 43,28  L 43,29  L 42,29  L 42,30  L 43,30  L 43,33  L 42,33  L 42,34  L 40,34  L 40,33  L 35,33  L 35,34  L 34,34  L 34,33  L 33,33  L 33,34  L 24,34  L 24,35  L 17,35  L 17,36  L 15,36  L 15,37  L 13,37  L 13,38  L 12,38  L 12,40  L 11,40  L 11,41  L 12,41  L 12,43  L 21,43  L 21,42  L 23,42  L 23,43  L 24,43  L 24,42  L 27,42  L 27,43  L 28,43  L 28,42  L 43,42  L 43,41  L 48,41  L 48,40  L 59,40  L 59,39  L 66,39  L 66,38  L 67,38  L 67,39  L 68,39  L 68,38  L 75,38  L 75,37  L 76,37  L 76,38  L 77,38  L 77,37  L 82,37  L 82,36  L 84,36  L 84,34  L 85,34  L 85,33  L 84,33  L 84,30  L 82,30  L 82,29  L 77,29  L 77,30  L 74,30  L 74,31  L 65,31  L 65,32  Z  " style="fill:rgb(0, 0, 0); fill-opacity:1.000; stroke:none;" />
 <path d="  M 29,75  L 29,74  L 30,74  L 30,72  L 31,72  L 31,71  L 32,71  L 32,69  L 33,69  L 33,68  L 34,68  L 34,67  L 35,67  L 35,66  L 37,66  L 37,64  L 39,64  L 39,63  L 40,63  L 40,62  L 43,62  L 43,61  L 44,61  L 44,60  L 47,60  L 47,59  L 54,59  L 54,60  L 57,60  L 57,61  L 60,61  L 60,62  L 61,62  L 61,63  L 62,63  L 62,64  L 63,64  L 63,65  L 64,65  L 64,66  L 65,66  L 65,68  L 66,68  L 66,69  L 67,69  L 67,76  L 66,76  L 66,77  L 65,77  L 65,78  L 64,78  L 64,79  L 63,79  L 63,80  L 61,80  L 61,81  L 58,81  L 58,82  L 57,82  L 57,83  L 55,83  L 55,84  L 42,84  L 42,83  L 38,83  L 38,82  L 36,82  L 36,81  L 34,81  L 34,80  L 32,80  L 32,79  L 31,79  L 31,78  L 30,78  L 30,75  Z  M 51,92  L 52,92  L 52,91  L 54,91  L 54,90  L 58,90  L 58,89  L 61,89  L 61,88  L 63,88  L 63,87  L 65,87  L 65,86  L 67,86  L 67,85  L 69,85  L 69,84  L 70,84  L 70,83  L 71,83  L 71,82  L 72,82  L 72,80  L 73,80  L 73,78  L 74,78  L 74,68  L 73,68  L 73,64  L 72,64  L 72,62  L 71,62  L 71,61  L 70,61  L 70,60  L 69,60  L 69,59  L 68,59  L 68,58  L 67,58  L 67,57  L 65,57  L 65,56  L 64,56  L 64,55  L 63,55  L 63,54  L 61,54  L 61,53  L 60,53  L 60,52  L 59,52  L 59,51  L 56,51  L 56,50  L 48,50  L 48,51  L 45,51  L 45,52  L 43,52  L 43,53  L 40,53  L 40,54  L 38,54  L 38,56  L 36,56  L 36,57  L 35,57  L 35,58  L 33,58  L 33,59  L 32,59  L 32,60  L 31,60  L 31,61  L 29,61  L 29,63  L 28,63  L 28,65  L 27,65  L 27,67  L 26,67  L 26,69  L 25,69  L 25,70  L 24,70  L 24,73  L 23,73  L 23,80  L 24,80  L 24,82  L 25,82  L 25,83  L 26,83  L 26,84  L 27,84  L 27,85  L 28,85  L 28,86  L 30,86  L 30,87  L 32,87  L 32,88  L 34,88  L 34,89  L 36,89  L 36,90  L 40,90  L 40,91  L 48,91  L 48,92  L 49,92  L 49,91  L 51,91  Z  " style="fill:rgb(0, 0, 0); fill-opacity:1.000; stroke:none;" />
</svg>
