<?xml version="1.0" encoding="UTF-8" standalone="no"?>
<!DOCTYPE svg PUBLIC "-//W3C//DTD SVG 1.1//EN" 
  "http://www.w3.org/Graphics/SVG/1.1/DTD/svg11.dtd">
<svg width="107" height="197"
     xmlns="http://www.w3.org/2000/svg" version="1.1">
 <path d="  M 101,179  L 101,178  L 93,178  L 93,177  L 92,177  L 92,178  L 91,178  L 91,177  L 89,177  L 89,176  L 87,176  L 87,175  L 85,175  L 85,174  L 83,174  L 83,173  L 81,173  L 81,172  L 80,172  L 80,171  L 79,171  L 79,170  L 77,170  L 77,169  L 76,169  L 76,168  L 73,168  L 73,167  L 70,167  L 70,166  L 69,166  L 69,165  L 68,165  L 68,164  L 67,164  L 67,163  L 65,163  L 65,162  L 64,162  L 64,161  L 62,161  L 62,160  L 60,160  L 60,159  L 59,159  L 59,158  L 58,158  L 58,157  L 57,157  L 57,156  L 56,156  L 56,154  L 55,154  L 55,150  L 57,150  L 57,148  L 58,148  L 58,147  L 60,147  L 60,146  L 61,146  L 61,143  L 62,143  L 62,142  L 63,142  L 63,139  L 64,139  L 64,137  L 65,137  L 65,136  L 66,136  L 66,133  L 67,133  L 67,125  L 68,125  L 68,124  L 67,124  L 67,123  L 68,123  L 68,118  L 67,118  L 67,117  L 66,117  L 66,113  L 68,113  L 68,112  L 70,112  L 70,113  L 72,113  L 72,112  L 75,112  L 75,113  L 76,113  L 76,112  L 79,112  L 79,113  L 80,113  L 80,112  L 83,112  L 83,113  L 84,113  L 84,112  L 87,112  L 87,113  L 88,113  L 88,112  L 97,112  L 97,111  L 98,111  L 98,112  L 99,112  L 99,111  L 100,111  L 100,110  L 101,110  L 101,109  L 102,109  L 102,107  L 103,107  L 103,104  L 102,104  L 102,103  L 99,103  L 99,102  L 98,102  L 98,103  L 91,103  L 91,104  L 54,104  L 54,105  L 53,105  L 53,104  L 52,104  L 52,105  L 51,105  L 51,106  L 49,106  L 49,107  L 47,107  L 47,108  L 42,108  L 42,109  L 41,109  L 41,108  L 40,108  L 40,109  L 39,109  L 39,110  L 35,110  L 35,111  L 31,111  L 31,112  L 30,112  L 30,111  L 29,111  L 29,112  L 24,112  L 24,113  L 21,113  L 21,112  L 20,112  L 20,113  L 16,113  L 16,114  L 6,114  L 6,115  L 5,115  L 5,114  L 2,114  L 2,115  L 0,115  L 0,117  L 1,117  L 1,118  L 2,118  L 2,120  L 3,120  L 3,121  L 18,121  L 18,120  L 19,120  L 19,121  L 20,121  L 20,120  L 27,120  L 27,119  L 31,119  L 31,118  L 37,118  L 37,117  L 44,117  L 44,116  L 50,116  L 50,115  L 53,115  L 53,114  L 58,114  L 58,124  L 57,124  L 57,125  L 58,125  L 58,128  L 57,128  L 57,132  L 56,132  L 56,136  L 55,136  L 55,137  L 54,137  L 54,139  L 53,139  L 53,140  L 52,140  L 52,141  L 51,141  L 51,143  L 50,143  L 50,145  L 49,145  L 49,146  L 48,146  L 48,148  L 47,148  L 47,149  L 45,149  L 45,150  L 44,150  L 44,151  L 42,151  L 42,153  L 41,153  L 41,154  L 40,154  L 40,155  L 39,155  L 39,156  L 38,156  L 38,159  L 37,159  L 37,161  L 36,161  L 36,162  L 35,162  L 35,164  L 34,164  L 34,165  L 35,165  L 35,166  L 34,166  L 34,167  L 33,167  L 33,168  L 32,168  L 32,170  L 31,170  L 31,171  L 30,171  L 30,173  L 29,173  L 29,174  L 27,174  L 27,176  L 26,176  L 26,178  L 24,178  L 24,179  L 23,179  L 23,180  L 22,180  L 22,181  L 21,181  L 21,182  L 19,182  L 19,184  L 18,184  L 18,185  L 17,185  L 17,186  L 16,186  L 16,189  L 15,189  L 15,193  L 16,193  L 16,195  L 17,195  L 17,196  L 18,196  L 18,197  L 24,197  L 24,195  L 25,195  L 25,193  L 26,193  L 26,191  L 27,191  L 27,190  L 28,190  L 28,189  L 29,189  L 29,187  L 30,187  L 30,186  L 31,186  L 31,184  L 32,184  L 32,183  L 33,183  L 33,181  L 35,181  L 35,179  L 37,179  L 37,177  L 39,177  L 39,175  L 40,175  L 40,173  L 41,173  L 41,172  L 42,172  L 42,171  L 43,171  L 43,170  L 44,170  L 44,168  L 45,168  L 45,167  L 46,167  L 46,165  L 54,165  L 54,166  L 56,166  L 56,167  L 57,167  L 57,168  L 58,168  L 58,169  L 59,169  L 59,170  L 61,170  L 61,171  L 62,171  L 62,172  L 63,172  L 63,173  L 64,173  L 64,174  L 66,174  L 66,175  L 69,175  L 69,176  L 71,176  L 71,177  L 73,177  L 73,178  L 75,178  L 75,179  L 77,179  L 77,180  L 80,180  L 80,181  L 81,181  L 81,182  L 84,182  L 84,183  L 85,183  L 85,184  L 88,184  L 88,185  L 91,185  L 91,186  L 92,186  L 92,187  L 93,187  L 93,186  L 95,186  L 95,187  L 97,187  L 97,186  L 98,186  L 98,187  L 101,187  L 101,186  L 104,186  L 104,185  L 106,185  L 106,184  L 107,184  L 107,180  L 106,180  L 106,179  Z  " style="fill:rgb(0, 0, 0); fill-opacity:1.000; stroke:none;" />
 <path d="  M 82,27  L 82,26  L 79,26  L 79,27  L 78,27  L 78,28  L 76,28  L 76,29  L 75,29  L 75,30  L 71,30  L 71,31  L 66,31  L 66,32  L 52,32  L 52,28  L 51,28  L 51,24  L 50,24  L 50,16  L 49,16  L 49,6  L 50,6  L 50,5  L 49,5  L 49,2  L 48,2  L 48,1  L 43,1  L 43,2  L 42,2  L 42,3  L 41,3  L 41,10  L 42,10  L 42,11  L 41,11  L 41,14  L 42,14  L 42,15  L 41,15  L 41,17  L 42,17  L 42,19  L 41,19  L 41,21  L 42,21  L 42,27  L 43,27  L 43,30  L 44,30  L 44,31  L 43,31  L 43,32  L 44,32  L 44,35  L 43,35  L 43,36  L 42,36  L 42,34  L 38,34  L 38,33  L 36,33  L 36,32  L 35,32  L 35,33  L 32,33  L 32,32  L 31,32  L 31,33  L 26,33  L 26,34  L 21,34  L 21,35  L 16,35  L 16,36  L 12,36  L 12,37  L 10,37  L 10,38  L 11,38  L 11,41  L 13,41  L 13,42  L 16,42  L 16,43  L 17,43  L 17,42  L 18,42  L 18,43  L 19,43  L 19,42  L 43,42  L 43,41  L 47,41  L 47,40  L 54,40  L 54,41  L 55,41  L 55,40  L 56,40  L 56,41  L 57,41  L 57,40  L 58,40  L 58,41  L 59,41  L 59,40  L 60,40  L 60,41  L 61,41  L 61,40  L 66,40  L 66,39  L 75,39  L 75,38  L 76,38  L 76,39  L 77,39  L 77,38  L 80,38  L 80,37  L 85,37  L 85,36  L 88,36  L 88,35  L 89,35  L 89,34  L 90,34  L 90,31  L 89,31  L 89,30  L 88,30  L 88,29  L 87,29  L 87,28  L 84,28  L 84,27  Z  " style="fill:rgb(0, 0, 0); fill-opacity:1.000; stroke:none;" />
 <path d="  M 56,97  L 56,96  L 57,96  L 57,95  L 59,95  L 59,94  L 61,94  L 61,93  L 64,93  L 64,92  L 65,92  L 65,91  L 67,91  L 67,90  L 68,90  L 68,89  L 69,89  L 69,88  L 71,88  L 71,87  L 72,87  L 72,85  L 73,85  L 73,84  L 74,84  L 74,81  L 75,81  L 75,80  L 76,80  L 76,66  L 75,66  L 75,62  L 74,62  L 74,60  L 72,60  L 72,59  L 71,59  L 71,58  L 69,58  L 69,57  L 68,57  L 68,56  L 66,56  L 66,55  L 65,55  L 65,54  L 62,54  L 62,53  L 59,53  L 59,52  L 47,52  L 47,53  L 45,53  L 45,54  L 44,54  L 44,55  L 41,55  L 41,56  L 39,56  L 39,58  L 37,58  L 37,59  L 36,59  L 36,60  L 34,60  L 34,61  L 33,61  L 33,62  L 32,62  L 32,63  L 31,63  L 31,64  L 30,64  L 30,65  L 29,65  L 29,66  L 28,66  L 28,67  L 27,67  L 27,68  L 26,68  L 26,70  L 25,70  L 25,72  L 24,72  L 24,73  L 23,73  L 23,75  L 22,75  L 22,83  L 23,83  L 23,85  L 24,85  L 24,86  L 25,86  L 25,87  L 27,87  L 27,89  L 29,89  L 29,90  L 30,90  L 30,91  L 31,91  L 31,92  L 32,92  L 32,93  L 35,93  L 35,94  L 38,94  L 38,95  L 40,95  L 40,96  L 43,96  L 43,97  L 44,97  L 44,96  L 46,96  L 46,97  Z  M 35,70  L 35,69  L 36,69  L 36,68  L 37,68  L 37,67  L 39,67  L 39,66  L 40,66  L 40,65  L 42,65  L 42,64  L 43,64  L 43,63  L 45,63  L 45,62  L 49,62  L 49,61  L 60,61  L 60,62  L 64,62  L 64,63  L 65,63  L 65,64  L 66,64  L 66,66  L 67,66  L 67,68  L 68,68  L 68,72  L 69,72  L 69,74  L 68,74  L 68,79  L 67,79  L 67,81  L 66,81  L 66,82  L 65,82  L 65,84  L 63,84  L 63,85  L 62,85  L 62,86  L 61,86  L 61,87  L 59,87  L 59,88  L 55,88  L 55,89  L 45,89  L 45,88  L 41,88  L 41,87  L 37,87  L 37,86  L 35,86  L 35,85  L 33,85  L 33,84  L 32,84  L 32,83  L 31,83  L 31,82  L 30,82  L 30,81  L 29,81  L 29,75  L 31,75  L 31,73  L 32,73  L 32,71  L 33,71  L 33,70  Z  " style="fill:rgb(0, 0, 0); fill-opacity:1.000; stroke:none;" />
 <path d="  M 63,20  L 63,19  L 64,19  L 64,18  L 65,18  L 65,17  L 64,17  L 64,16  L 59,16  L 59,19  L 60,19  L 60,20  Z  " style="fill:rgb(0, 0, 0); fill-opacity:1.000; stroke:none;" />
</svg>
