<?xml version="1.0" encoding="UTF-8" standalone="no"?>
<!DOCTYPE svg PUBLIC "-//W3C//DTD SVG 1.1//EN" 
  "http://www.w3.org/Graphics/SVG/1.1/DTD/svg11.dtd">
<svg width="113" height="186"
     xmlns="http://www.w3.org/2000/svg" version="1.1">
 <path d="  M 69,122  L 69,123  L 67,123  L 67,124  L 63,124  L 63,125  L 58,125  L 58,126  L 48,126  L 48,127  L 47,127  L 47,126  L 45,126  L 45,127  L 39,127  L 39,115  L 40,115  L 40,114  L 39,114  L 39,112  L 40,112  L 40,110  L 39,110  L 39,109  L 40,109  L 40,99  L 41,99  L 41,98  L 40,98  L 40,97  L 41,97  L 41,96  L 40,96  L 40,95  L 41,95  L 41,94  L 40,94  L 40,93  L 41,93  L 41,87  L 42,87  L 42,86  L 43,86  L 43,87  L 46,87  L 46,88  L 47,88  L 47,87  L 58,87  L 58,86  L 60,86  L 60,87  L 61,87  L 61,86  L 64,86  L 64,85  L 74,85  L 74,84  L 80,84  L 80,83  L 83,83  L 83,82  L 85,82  L 85,81  L 87,81  L 87,80  L 89,80  L 89,78  L 90,78  L 90,77  L 89,77  L 89,76  L 84,76  L 84,75  L 83,75  L 83,76  L 80,76  L 80,77  L 76,77  L 76,78  L 68,78  L 68,79  L 62,79  L 62,80  L 53,80  L 53,81  L 42,81  L 42,80  L 41,80  L 41,81  L 27,81  L 27,82  L 19,82  L 19,83  L 18,83  L 18,82  L 17,82  L 17,83  L 13,83  L 13,84  L 9,84  L 9,85  L 0,85  L 0,90  L 1,90  L 1,89  L 2,89  L 2,90  L 3,90  L 3,91  L 9,91  L 9,90  L 14,90  L 14,89  L 21,89  L 21,88  L 35,88  L 35,92  L 34,92  L 34,102  L 33,102  L 33,103  L 34,103  L 34,106  L 33,106  L 33,107  L 34,107  L 34,108  L 33,108  L 33,125  L 34,125  L 34,129  L 33,129  L 33,130  L 32,130  L 32,134  L 33,134  L 33,135  L 34,135  L 34,136  L 36,136  L 36,137  L 46,137  L 46,136  L 49,136  L 49,137  L 50,137  L 50,136  L 56,136  L 56,135  L 59,135  L 59,134  L 64,134  L 64,133  L 66,133  L 66,132  L 69,132  L 69,131  L 70,131  L 70,132  L 71,132  L 71,131  L 82,131  L 82,132  L 85,132  L 85,133  L 86,133  L 86,134  L 85,134  L 85,135  L 86,135  L 86,136  L 85,136  L 85,137  L 83,137  L 83,138  L 82,138  L 82,139  L 80,139  L 80,140  L 79,140  L 79,141  L 78,141  L 78,142  L 77,142  L 77,143  L 76,143  L 76,144  L 75,144  L 75,145  L 74,145  L 74,146  L 72,146  L 72,147  L 70,147  L 70,148  L 65,148  L 65,149  L 63,149  L 63,150  L 57,150  L 57,151  L 53,151  L 53,152  L 51,152  L 51,153  L 46,153  L 46,154  L 43,154  L 43,155  L 41,155  L 41,156  L 39,156  L 39,158  L 38,158  L 38,159  L 37,159  L 37,160  L 38,160  L 38,161  L 46,161  L 46,160  L 55,160  L 55,159  L 61,159  L 61,158  L 65,158  L 65,157  L 66,157  L 66,158  L 68,158  L 68,157  L 74,157  L 74,156  L 79,156  L 79,155  L 80,155  L 80,154  L 81,154  L 81,153  L 83,153  L 83,152  L 84,152  L 84,151  L 85,151  L 85,149  L 86,149  L 86,145  L 88,145  L 88,144  L 87,144  L 87,143  L 88,143  L 88,141  L 89,141  L 89,140  L 91,140  L 91,139  L 90,139  L 90,137  L 92,137  L 92,136  L 94,136  L 94,130  L 93,130  L 93,127  L 92,127  L 92,126  L 91,126  L 91,125  L 90,125  L 90,124  L 86,124  L 86,123  L 85,123  L 85,122  L 81,122  L 81,121  L 75,121  L 75,122  Z  " style="fill:rgb(0, 0, 0); fill-opacity:1.000; stroke:none;" />
 <path d="  M 74,27  L 74,26  L 76,26  L 76,25  L 77,25  L 77,23  L 76,23  L 76,21  L 75,21  L 75,20  L 73,20  L 73,19  L 71,19  L 71,20  L 66,20  L 66,21  L 63,21  L 63,20  L 62,20  L 62,22  L 61,22  L 61,21  L 60,21  L 60,20  L 58,20  L 58,21  L 51,21  L 51,22  L 40,22  L 40,23  L 39,23  L 39,22  L 38,22  L 38,23  L 36,23  L 36,24  L 32,24  L 32,25  L 31,25  L 31,26  L 27,26  L 27,27  L 19,27  L 19,28  L 11,28  L 11,29  L 9,29  L 9,30  L 8,30  L 8,31  L 7,31  L 7,37  L 12,37  L 12,36  L 15,36  L 15,35  L 39,35  L 39,34  L 41,34  L 41,33  L 44,33  L 44,32  L 49,32  L 49,31  L 53,31  L 53,30  L 63,30  L 63,29  L 70,29  L 70,28  L 72,28  L 72,27  Z  " style="fill:rgb(0, 0, 0); fill-opacity:1.000; stroke:none;" />
 <path d="  M 20,57  L 19,57  L 19,64  L 20,64  L 20,66  L 21,66  L 21,67  L 22,67  L 22,68  L 23,68  L 23,70  L 24,70  L 24,71  L 25,71  L 25,72  L 27,72  L 27,73  L 29,73  L 29,74  L 36,74  L 36,75  L 37,75  L 37,74  L 39,74  L 39,75  L 41,75  L 41,74  L 45,74  L 45,73  L 50,73  L 50,72  L 52,72  L 52,71  L 54,71  L 54,70  L 57,70  L 57,69  L 58,69  L 58,68  L 59,68  L 59,67  L 61,67  L 61,66  L 62,66  L 62,65  L 63,65  L 63,63  L 64,63  L 64,55  L 65,55  L 65,54  L 64,54  L 64,53  L 63,53  L 63,52  L 62,52  L 62,51  L 61,51  L 61,50  L 60,50  L 60,48  L 58,48  L 58,46  L 56,46  L 56,44  L 54,44  L 54,43  L 45,43  L 45,42  L 44,42  L 44,43  L 41,43  L 41,42  L 40,42  L 40,43  L 37,43  L 37,42  L 36,42  L 36,43  L 32,43  L 32,44  L 29,44  L 29,45  L 27,45  L 27,46  L 26,46  L 26,47  L 25,47  L 25,48  L 24,48  L 24,49  L 23,49  L 23,50  L 22,50  L 22,51  L 21,51  L 21,53  L 20,53  Z  M 53,51  L 54,51  L 54,53  L 55,53  L 55,54  L 56,54  L 56,57  L 57,57  L 57,59  L 58,59  L 58,61  L 56,61  L 56,63  L 55,63  L 55,64  L 53,64  L 53,65  L 50,65  L 50,66  L 45,66  L 45,67  L 42,67  L 42,66  L 41,66  L 41,67  L 38,67  L 38,66  L 37,66  L 37,67  L 35,67  L 35,66  L 29,66  L 29,65  L 27,65  L 27,64  L 26,64  L 26,63  L 25,63  L 25,58  L 26,58  L 26,56  L 27,56  L 27,54  L 28,54  L 28,53  L 29,53  L 29,52  L 31,52  L 31,51  L 32,51  L 32,50  L 34,50  L 34,49  L 37,49  L 37,48  L 49,48  L 49,49  L 51,49  L 51,50  L 53,50  Z  " style="fill:rgb(0, 0, 0); fill-opacity:1.000; stroke:none;" />
 <path d="  M 25,6  L 25,7  L 31,7  L 31,8  L 32,8  L 32,12  L 33,12  L 33,17  L 34,17  L 34,20  L 35,20  L 35,21  L 41,21  L 41,19  L 42,19  L 42,16  L 41,16  L 41,6  L 40,6  L 40,4  L 39,4  L 39,3  L 37,3  L 37,2  L 30,2  L 30,1  L 23,1  L 23,2  L 21,2  L 21,4  L 22,4  L 22,6  Z  " style="fill:rgb(0, 0, 0); fill-opacity:1.000; stroke:none;" />
 <path d="  M 34,166  L 34,167  L 35,167  L 35,166  Z  " style="fill:rgb(0, 0, 0); fill-opacity:1.000; stroke:none;" />
 <path d="  M 36,176  L 36,178  L 38,178  L 38,177  L 39,177  L 39,179  L 40,179  L 40,180  L 43,180  L 43,181  L 44,181  L 44,182  L 45,182  L 45,183  L 47,183  L 47,184  L 48,184  L 48,185  L 50,185  L 50,184  L 51,184  L 51,185  L 54,185  L 54,186  L 76,186  L 76,185  L 78,185  L 78,184  L 79,184  L 79,185  L 80,185  L 80,184  L 84,184  L 84,183  L 87,183  L 87,182  L 89,182  L 89,181  L 93,181  L 93,180  L 96,180  L 96,179  L 99,179  L 99,178  L 101,178  L 101,177  L 104,177  L 104,176  L 105,176  L 105,175  L 107,175  L 107,174  L 109,174  L 109,173  L 110,173  L 110,172  L 112,172  L 112,171  L 113,171  L 113,167  L 106,167  L 106,168  L 104,168  L 104,169  L 100,169  L 100,170  L 97,170  L 97,171  L 95,171  L 95,172  L 92,172  L 92,173  L 90,173  L 90,174  L 85,174  L 85,175  L 82,175  L 82,176  L 79,176  L 79,177  L 78,177  L 78,176  L 77,176  L 77,177  L 76,177  L 76,178  L 68,178  L 68,179  L 62,179  L 62,178  L 60,178  L 60,179  L 58,179  L 58,178  L 54,178  L 54,177  L 52,177  L 52,178  L 51,178  L 51,177  L 47,177  L 47,176  L 44,176  L 44,175  L 42,175  L 42,174  L 40,174  L 40,175  L 38,175  L 38,174  L 37,174  L 37,176  Z  " style="fill:rgb(0, 0, 0); fill-opacity:1.000; stroke:none;" />
 <path d="  M 79,104  L 79,105  L 81,105  L 81,104  L 85,104  L 85,103  L 86,103  L 86,101  L 88,101  L 88,99  L 87,99  L 87,98  L 86,98  L 86,97  L 84,97  L 84,96  L 82,96  L 82,95  L 80,95  L 80,94  L 76,94  L 76,95  L 75,95  L 75,94  L 74,94  L 74,95  L 61,95  L 61,94  L 56,94  L 56,95  L 54,95  L 54,96  L 53,96  L 53,97  L 52,97  L 52,98  L 53,98  L 53,99  L 54,99  L 54,100  L 57,100  L 57,101  L 60,101  L 60,102  L 63,102  L 63,103  L 68,103  L 68,104  Z  " style="fill:rgb(0, 0, 0); fill-opacity:1.000; stroke:none;" />
 <path d="  M 94,19  L 94,20  L 93,20  L 93,24  L 92,24  L 92,27  L 93,27  L 93,28  L 92,28  L 92,29  L 93,29  L 93,37  L 94,37  L 94,44  L 95,44  L 95,53  L 96,53  L 96,84  L 95,84  L 95,86  L 96,86  L 96,87  L 95,87  L 95,99  L 94,99  L 94,106  L 93,106  L 93,114  L 94,114  L 94,115  L 96,115  L 96,116  L 97,116  L 97,115  L 98,115  L 98,114  L 99,114  L 99,112  L 100,112  L 100,110  L 101,110  L 101,103  L 102,103  L 102,89  L 103,89  L 103,88  L 102,88  L 102,87  L 103,87  L 103,86  L 102,86  L 102,85  L 103,85  L 103,82  L 102,82  L 102,81  L 103,81  L 103,58  L 102,58  L 102,57  L 103,57  L 103,56  L 102,56  L 102,48  L 101,48  L 101,40  L 100,40  L 100,30  L 99,30  L 99,21  L 98,21  L 98,19  Z  " style="fill:rgb(0, 0, 0); fill-opacity:1.000; stroke:none;" />
</svg>
