<?xml version="1.0" encoding="UTF-8" standalone="no"?>
<!DOCTYPE svg PUBLIC "-//W3C//DTD SVG 1.1//EN" 
  "http://www.w3.org/Graphics/SVG/1.1/DTD/svg11.dtd">
<svg width="107" height="126"
     xmlns="http://www.w3.org/2000/svg" version="1.1">
 <path d="  M 12,36  L 12,35  L 17,35  L 17,34  L 24,34  L 24,33  L 30,33  L 30,34  L 31,34  L 31,33  L 44,33  L 44,34  L 48,34  L 48,35  L 51,35  L 51,36  L 54,36  L 54,37  L 57,37  L 57,38  L 58,38  L 58,37  L 61,37  L 61,36  L 62,36  L 62,34  L 60,34  L 60,33  L 59,33  L 59,32  L 56,32  L 56,31  L 55,31  L 55,30  L 54,30  L 54,29  L 53,29  L 53,28  L 51,28  L 51,27  L 42,27  L 42,26  L 40,26  L 40,27  L 39,27  L 39,26  L 32,26  L 32,27  L 30,27  L 30,26  L 29,26  L 29,27  L 26,27  L 26,26  L 25,26  L 25,27  L 22,27  L 22,26  L 21,26  L 21,27  L 16,27  L 16,28  L 15,28  L 15,27  L 14,27  L 14,28  L 11,28  L 11,27  L 10,27  L 10,28  L 6,28  L 6,29  L 1,29  L 1,30  L 0,30  L 0,33  L 1,33  L 1,35  L 5,35  L 5,36  L 6,36  L 6,35  L 7,35  L 7,36  L 8,36  L 8,35  L 9,35  L 9,36  Z  " style="fill:rgb(0, 0, 0); fill-opacity:1.000; stroke:none;" />
 <path d="  M 37,96  L 36,96  L 36,93  L 37,93  L 37,92  L 40,92  L 40,91  L 41,91  L 41,92  L 42,92  L 42,91  L 44,91  L 44,90  L 49,90  L 49,89  L 53,89  L 53,88  L 62,88  L 62,87  L 65,87  L 65,86  L 69,86  L 69,85  L 74,85  L 74,84  L 75,84  L 75,82  L 74,82  L 74,80  L 72,80  L 72,79  L 68,79  L 68,80  L 67,80  L 67,81  L 65,81  L 65,82  L 60,82  L 60,83  L 54,83  L 54,84  L 51,84  L 51,85  L 46,85  L 46,86  L 41,86  L 41,87  L 36,87  L 36,88  L 32,88  L 32,89  L 24,89  L 24,90  L 15,90  L 15,91  L 14,91  L 14,90  L 13,90  L 13,91  L 1,91  L 1,93  L 0,93  L 0,94  L 1,94  L 1,96  L 3,96  L 3,97  L 11,97  L 11,96  L 26,96  L 26,95  L 27,95  L 27,96  L 28,96  L 28,95  L 31,95  L 31,115  L 30,115  L 30,116  L 31,116  L 31,117  L 30,117  L 30,121  L 31,121  L 31,123  L 32,123  L 32,124  L 34,124  L 34,123  L 35,123  L 35,122  L 36,122  L 36,120  L 37,120  L 37,119  L 36,119  L 36,118  L 37,118  Z  " style="fill:rgb(0, 0, 0); fill-opacity:1.000; stroke:none;" />
 <path d="  M 24,42  L 22,42  L 22,43  L 21,43  L 21,45  L 20,45  L 20,47  L 19,47  L 19,48  L 18,48  L 18,51  L 17,51  L 17,55  L 16,55  L 16,61  L 17,61  L 17,67  L 18,67  L 18,69  L 19,69  L 19,70  L 20,70  L 20,71  L 21,71  L 21,72  L 24,72  L 24,75  L 25,75  L 25,76  L 26,76  L 26,78  L 28,78  L 28,79  L 29,79  L 29,80  L 31,80  L 31,79  L 34,79  L 34,78  L 35,78  L 35,77  L 34,77  L 34,76  L 35,76  L 35,75  L 36,75  L 36,74  L 37,74  L 37,73  L 39,73  L 39,72  L 42,72  L 42,71  L 44,71  L 44,70  L 46,70  L 46,68  L 48,68  L 48,67  L 49,67  L 49,66  L 50,66  L 50,65  L 51,65  L 51,64  L 52,64  L 52,62  L 53,62  L 53,60  L 54,60  L 54,59  L 55,59  L 55,57  L 56,57  L 56,56  L 57,56  L 57,52  L 58,52  L 58,50  L 56,50  L 56,48  L 54,48  L 54,47  L 53,47  L 53,46  L 51,46  L 51,45  L 50,45  L 50,44  L 49,44  L 49,43  L 47,43  L 47,42  L 43,42  L 43,41  L 39,41  L 39,40  L 33,40  L 33,39  L 26,39  L 26,40  L 24,40  Z  M 47,60  L 46,60  L 46,61  L 45,61  L 45,62  L 44,62  L 44,64  L 42,64  L 42,65  L 40,65  L 40,66  L 38,66  L 38,67  L 36,67  L 36,68  L 33,68  L 33,69  L 27,69  L 27,68  L 26,68  L 26,67  L 25,67  L 25,65  L 24,65  L 24,64  L 23,64  L 23,63  L 22,63  L 22,58  L 23,58  L 23,57  L 22,57  L 22,56  L 23,56  L 23,53  L 24,53  L 24,50  L 25,50  L 25,49  L 26,49  L 26,48  L 27,48  L 27,47  L 28,47  L 28,46  L 30,46  L 30,45  L 36,45  L 36,46  L 39,46  L 39,47  L 42,47  L 42,48  L 48,48  L 48,49  L 49,49  L 49,50  L 50,50  L 50,54  L 49,54  L 49,55  L 48,55  L 48,57  L 47,57  Z  " style="fill:rgb(0, 0, 0); fill-opacity:1.000; stroke:none;" />
 <path d="  M 28,12  L 29,12  L 29,13  L 28,13  L 28,14  L 29,14  L 29,21  L 30,21  L 30,22  L 32,22  L 32,23  L 36,23  L 36,22  L 38,22  L 38,19  L 37,19  L 37,3  L 36,3  L 36,1  L 34,1  L 34,0  L 30,0  L 30,1  L 29,1  L 29,7  L 28,7  Z  " style="fill:rgb(0, 0, 0); fill-opacity:1.000; stroke:none;" />
 <path d="  M 56,96  L 55,96  L 55,95  L 54,95  L 54,96  L 50,96  L 50,97  L 46,97  L 46,98  L 44,98  L 44,102  L 45,102  L 45,103  L 53,103  L 53,102  L 59,102  L 59,101  L 61,101  L 61,100  L 63,100  L 63,99  L 66,99  L 66,98  L 71,98  L 71,97  L 72,97  L 72,98  L 73,98  L 73,97  L 77,97  L 77,98  L 78,98  L 78,108  L 79,108  L 79,110  L 78,110  L 78,112  L 79,112  L 79,117  L 80,117  L 80,118  L 82,118  L 82,119  L 84,119  L 84,116  L 85,116  L 85,106  L 84,106  L 84,105  L 85,105  L 85,103  L 84,103  L 84,101  L 85,101  L 85,95  L 84,95  L 84,94  L 85,94  L 85,91  L 84,91  L 84,88  L 85,88  L 85,87  L 84,87  L 84,84  L 85,84  L 85,83  L 84,83  L 84,80  L 85,80  L 85,79  L 84,79  L 84,57  L 83,57  L 83,56  L 84,56  L 84,55  L 83,55  L 83,54  L 84,54  L 84,53  L 83,53  L 83,46  L 82,46  L 82,36  L 81,36  L 81,29  L 80,29  L 80,28  L 81,28  L 81,27  L 75,27  L 75,30  L 74,30  L 74,36  L 75,36  L 75,42  L 76,42  L 76,56  L 77,56  L 77,57  L 76,57  L 76,58  L 77,58  L 77,73  L 78,73  L 78,75  L 77,75  L 77,76  L 78,76  L 78,79  L 77,79  L 77,80  L 78,80  L 78,83  L 77,83  L 77,84  L 78,84  L 78,90  L 77,90  L 77,91  L 73,91  L 73,92  L 72,92  L 72,91  L 71,91  L 71,92  L 70,92  L 70,91  L 69,91  L 69,92  L 65,92  L 65,93  L 62,93  L 62,94  L 61,94  L 61,95  L 60,95  L 60,94  L 59,94  L 59,95  L 56,95  Z  " style="fill:rgb(0, 0, 0); fill-opacity:1.000; stroke:none;" />
 <path d="  M 102,126  L 107,126  L 107,33  L 106,33  L 106,25  L 105,25  L 105,22  L 103,22  L 103,21  L 100,21  L 100,23  L 99,23  L 99,26  L 100,26  L 100,38  L 101,38  L 101,41  L 100,41  L 100,42  L 101,42  L 101,73  L 102,73  L 102,75  L 101,75  L 101,78  L 102,78  L 102,79  L 101,79  L 101,80  L 102,80  L 102,83  L 101,83  L 101,84  L 102,84  L 102,87  L 101,87  L 101,88  L 102,88  Z  " style="fill:rgb(0, 0, 0); fill-opacity:1.000; stroke:none;" />
</svg>
