<?xml version="1.0" encoding="UTF-8" standalone="no"?>
<!DOCTYPE svg PUBLIC "-//W3C//DTD SVG 1.1//EN" 
  "http://www.w3.org/Graphics/SVG/1.1/DTD/svg11.dtd">
<svg width="108" height="169"
     xmlns="http://www.w3.org/2000/svg" version="1.1">
 <path d="  M 9,37  L 9,36  L 12,36  L 12,35  L 23,35  L 23,34  L 25,34  L 25,35  L 26,35  L 26,34  L 36,34  L 36,33  L 43,33  L 43,32  L 65,32  L 65,30  L 66,30  L 66,28  L 65,28  L 65,26  L 63,26  L 63,25  L 62,25  L 62,26  L 39,26  L 39,27  L 36,27  L 36,26  L 35,26  L 35,18  L 34,18  L 34,12  L 35,12  L 35,5  L 34,5  L 34,1  L 33,1  L 33,0  L 31,0  L 31,1  L 30,1  L 30,4  L 29,4  L 29,9  L 28,9  L 28,13  L 27,13  L 27,18  L 28,18  L 28,28  L 27,28  L 27,29  L 23,29  L 23,28  L 22,28  L 22,29  L 16,29  L 16,30  L 12,30  L 12,31  L 11,31  L 11,30  L 10,30  L 10,31  L 8,31  L 8,32  L 1,32  L 1,33  L 0,33  L 0,35  L 1,35  L 1,37  L 3,37  L 3,38  L 7,38  L 7,37  Z  " style="fill:rgb(0, 0, 0); fill-opacity:1.000; stroke:none;" />
 <path d="  M 30,83  L 30,84  L 24,84  L 24,85  L 23,85  L 23,84  L 22,84  L 22,85  L 17,85  L 17,86  L 12,86  L 12,87  L 11,87  L 11,86  L 10,86  L 10,87  L 6,87  L 6,88  L 4,88  L 4,87  L 3,87  L 3,88  L 2,88  L 2,87  L 1,87  L 1,88  L 0,88  L 0,92  L 1,92  L 1,93  L 3,93  L 3,94  L 7,94  L 7,93  L 9,93  L 9,92  L 13,92  L 13,91  L 18,91  L 18,90  L 21,90  L 21,91  L 22,91  L 22,90  L 27,90  L 27,89  L 31,89  L 31,96  L 30,96  L 30,99  L 31,99  L 31,102  L 30,102  L 30,103  L 31,103  L 31,106  L 30,106  L 30,107  L 31,107  L 31,111  L 32,111  L 32,112  L 31,112  L 31,113  L 32,113  L 32,114  L 33,114  L 33,116  L 34,116  L 34,117  L 38,117  L 38,110  L 37,110  L 37,108  L 36,108  L 36,107  L 37,107  L 37,106  L 36,106  L 36,88  L 40,88  L 40,87  L 50,87  L 50,86  L 55,86  L 55,85  L 61,85  L 61,84  L 65,84  L 65,83  L 68,83  L 68,82  L 73,82  L 73,81  L 74,81  L 74,80  L 73,80  L 73,79  L 72,79  L 72,78  L 71,78  L 71,77  L 68,77  L 68,78  L 67,78  L 67,77  L 66,77  L 66,78  L 60,78  L 60,79  L 56,79  L 56,80  L 52,80  L 52,81  L 47,81  L 47,82  L 33,82  L 33,83  Z  " style="fill:rgb(0, 0, 0); fill-opacity:1.000; stroke:none;" />
 <path d="  M 24,42  L 23,42  L 23,44  L 22,44  L 22,45  L 21,45  L 21,46  L 20,46  L 20,48  L 19,48  L 19,50  L 18,50  L 18,51  L 17,51  L 17,54  L 16,54  L 16,58  L 15,58  L 15,65  L 16,65  L 16,67  L 17,67  L 17,70  L 19,70  L 19,71  L 20,71  L 20,72  L 21,72  L 21,73  L 23,73  L 23,74  L 25,74  L 25,75  L 34,75  L 34,74  L 38,74  L 38,73  L 39,73  L 39,72  L 41,72  L 41,71  L 43,71  L 43,70  L 44,70  L 44,69  L 46,69  L 46,67  L 49,67  L 49,66  L 50,66  L 50,65  L 51,65  L 51,64  L 53,64  L 53,63  L 54,63  L 54,62  L 55,62  L 55,60  L 56,60  L 56,59  L 55,59  L 55,56  L 56,56  L 56,55  L 55,55  L 55,53  L 54,53  L 54,51  L 53,51  L 53,50  L 52,50  L 52,49  L 51,49  L 51,48  L 50,48  L 50,47  L 48,47  L 48,46  L 46,46  L 46,45  L 44,45  L 44,44  L 42,44  L 42,43  L 40,43  L 40,42  L 37,42  L 37,41  L 35,41  L 35,40  L 31,40  L 31,39  L 28,39  L 28,40  L 25,40  L 25,41  L 24,41  Z  M 27,48  L 28,48  L 28,46  L 30,46  L 30,45  L 32,45  L 32,46  L 34,46  L 34,47  L 38,47  L 38,48  L 40,48  L 40,49  L 42,49  L 42,50  L 44,50  L 44,51  L 45,51  L 45,52  L 47,52  L 47,53  L 48,53  L 48,55  L 49,55  L 49,57  L 48,57  L 48,60  L 47,60  L 47,61  L 46,61  L 46,62  L 45,62  L 45,63  L 44,63  L 44,64  L 43,64  L 43,65  L 42,65  L 42,66  L 40,66  L 40,67  L 36,67  L 36,68  L 26,68  L 26,67  L 24,67  L 24,66  L 22,66  L 22,64  L 21,64  L 21,58  L 22,58  L 22,54  L 23,54  L 23,52  L 24,52  L 24,51  L 25,51  L 25,50  L 26,50  L 26,49  L 27,49  Z  " style="fill:rgb(0, 0, 0); fill-opacity:1.000; stroke:none;" />
 <path d="  M 70,131  L 70,130  L 79,130  L 79,129  L 92,129  L 92,130  L 97,130  L 97,131  L 99,131  L 99,132  L 100,132  L 100,133  L 101,133  L 101,144  L 100,144  L 100,150  L 99,150  L 99,154  L 98,154  L 98,156  L 99,156  L 99,157  L 98,157  L 98,165  L 97,165  L 97,167  L 98,167  L 98,169  L 103,169  L 103,167  L 104,167  L 104,166  L 103,166  L 103,163  L 104,163  L 104,159  L 105,159  L 105,153  L 106,153  L 106,145  L 107,145  L 107,131  L 106,131  L 106,128  L 105,128  L 105,127  L 104,127  L 104,126  L 102,126  L 102,125  L 100,125  L 100,124  L 95,124  L 95,123  L 87,123  L 87,122  L 86,122  L 86,123  L 83,123  L 83,122  L 82,122  L 82,123  L 74,123  L 74,124  L 68,124  L 68,125  L 67,125  L 67,124  L 66,124  L 66,125  L 60,125  L 60,126  L 50,126  L 50,127  L 45,127  L 45,128  L 44,128  L 44,129  L 43,129  L 43,130  L 42,130  L 42,132  L 44,132  L 44,133  L 45,133  L 45,134  L 50,134  L 50,135  L 51,135  L 51,134  L 53,134  L 53,133  L 58,133  L 58,132  L 61,132  L 61,131  Z  " style="fill:rgb(0, 0, 0); fill-opacity:1.000; stroke:none;" />
 <path d="  M 53,96  L 53,95  L 51,95  L 51,96  L 46,96  L 46,97  L 44,97  L 44,100  L 43,100  L 43,103  L 44,103  L 44,104  L 45,104  L 45,105  L 47,105  L 47,106  L 48,106  L 48,105  L 49,105  L 49,104  L 53,104  L 53,103  L 55,103  L 55,104  L 56,104  L 56,103  L 63,103  L 63,102  L 67,102  L 67,101  L 70,101  L 70,96  L 69,96  L 69,95  L 68,95  L 68,94  L 64,94  L 64,95  L 57,95  L 57,96  Z  " style="fill:rgb(0, 0, 0); fill-opacity:1.000; stroke:none;" />
 <path d="  M 81,107  L 82,107  L 82,109  L 83,109  L 83,111  L 84,111  L 84,112  L 85,112  L 85,111  L 86,111  L 86,110  L 87,110  L 87,108  L 88,108  L 88,96  L 87,96  L 87,72  L 86,72  L 86,71  L 87,71  L 87,68  L 86,68  L 86,48  L 85,48  L 85,47  L 86,47  L 86,46  L 85,46  L 85,45  L 86,45  L 86,44  L 85,44  L 85,43  L 86,43  L 86,42  L 85,42  L 85,41  L 86,41  L 86,40  L 85,40  L 85,39  L 86,39  L 86,38  L 85,38  L 85,37  L 86,37  L 86,30  L 85,30  L 85,29  L 83,29  L 83,28  L 81,28  L 81,30  L 80,30  L 80,40  L 79,40  L 79,42  L 80,42  L 80,45  L 79,45  L 79,46  L 80,46  L 80,67  L 81,67  L 81,68  L 80,68  L 80,69  L 81,69  L 81,70  L 80,70  L 80,71  L 81,71  L 81,74  L 80,74  L 80,75  L 81,75  Z  " style="fill:rgb(0, 0, 0); fill-opacity:1.000; stroke:none;" />
 <path d="  M 108,39  L 107,39  L 107,33  L 106,33  L 106,30  L 105,30  L 105,29  L 104,29  L 104,30  L 102,30  L 102,32  L 101,32  L 101,39  L 102,39  L 102,49  L 103,49  L 103,82  L 104,82  L 104,83  L 103,83  L 103,86  L 104,86  L 104,87  L 103,87  L 103,88  L 104,88  L 104,89  L 103,89  L 103,90  L 104,90  L 104,91  L 103,91  L 103,94  L 104,94  L 104,95  L 103,95  L 103,98  L 104,98  L 104,99  L 103,99  L 103,116  L 104,116  L 104,117  L 105,117  L 105,118  L 108,118  Z  " style="fill:rgb(0, 0, 0); fill-opacity:1.000; stroke:none;" />
</svg>
