<?xml version="1.0" encoding="UTF-8" standalone="no"?>
<!DOCTYPE svg PUBLIC "-//W3C//DTD SVG 1.1//EN" 
  "http://www.w3.org/Graphics/SVG/1.1/DTD/svg11.dtd">
<svg width="104" height="152"
     xmlns="http://www.w3.org/2000/svg" version="1.1">
 <path d="  M 46,139  L 47,139  L 47,138  L 46,138  L 46,137  L 47,137  L 47,132  L 48,132  L 48,125  L 49,125  L 49,117  L 50,117  L 50,116  L 49,116  L 49,115  L 48,115  L 48,111  L 51,111  L 51,110  L 52,110  L 52,109  L 55,109  L 55,108  L 59,108  L 59,107  L 64,107  L 64,106  L 69,106  L 69,105  L 75,105  L 75,104  L 79,104  L 79,103  L 82,103  L 82,102  L 88,102  L 88,101  L 91,101  L 91,97  L 90,97  L 90,96  L 82,96  L 82,97  L 78,97  L 78,98  L 72,98  L 72,99  L 70,99  L 70,100  L 66,100  L 66,101  L 65,101  L 65,100  L 64,100  L 64,101  L 59,101  L 59,102  L 52,102  L 52,103  L 48,103  L 48,104  L 44,104  L 44,105  L 39,105  L 39,106  L 32,106  L 32,107  L 25,107  L 25,108  L 18,108  L 18,109  L 17,109  L 17,108  L 16,108  L 16,109  L 7,109  L 7,110  L 6,110  L 6,109  L 1,109  L 1,110  L 0,110  L 0,111  L 1,111  L 1,112  L 0,112  L 0,113  L 1,113  L 1,116  L 2,116  L 2,117  L 5,117  L 5,116  L 13,116  L 13,115  L 24,115  L 24,114  L 41,114  L 41,115  L 42,115  L 42,125  L 41,125  L 41,130  L 40,130  L 40,137  L 39,137  L 39,144  L 38,144  L 38,152  L 44,152  L 44,151  L 45,151  L 45,148  L 46,148  Z  " style="fill:rgb(0, 0, 0); fill-opacity:1.000; stroke:none;" />
 <path d="  M 22,47  L 22,46  L 23,46  L 23,47  L 24,47  L 24,46  L 25,46  L 25,47  L 26,47  L 26,46  L 27,46  L 27,47  L 28,47  L 28,46  L 29,46  L 29,47  L 30,47  L 30,45  L 34,45  L 34,44  L 38,44  L 38,43  L 45,43  L 45,42  L 46,42  L 46,43  L 48,43  L 48,42  L 51,42  L 51,43  L 52,43  L 52,42  L 53,42  L 53,43  L 56,43  L 56,44  L 58,44  L 58,45  L 62,45  L 62,44  L 64,44  L 64,43  L 63,43  L 63,41  L 61,41  L 61,38  L 60,38  L 60,37  L 59,37  L 59,36  L 57,36  L 57,34  L 45,34  L 45,33  L 44,33  L 44,31  L 45,31  L 45,30  L 44,30  L 44,26  L 43,26  L 43,17  L 42,17  L 42,15  L 43,15  L 43,14  L 42,14  L 42,11  L 43,11  L 43,10  L 42,10  L 42,4  L 41,4  L 41,2  L 39,2  L 39,1  L 40,1  L 40,0  L 38,0  L 38,1  L 36,1  L 36,2  L 35,2  L 35,5  L 34,5  L 34,19  L 35,19  L 35,20  L 34,20  L 34,21  L 35,21  L 35,22  L 34,22  L 34,23  L 35,23  L 35,26  L 36,26  L 36,31  L 37,31  L 37,33  L 39,33  L 39,35  L 38,35  L 38,36  L 35,36  L 35,37  L 30,37  L 30,38  L 20,38  L 20,39  L 17,39  L 17,38  L 16,38  L 16,39  L 15,39  L 15,40  L 11,40  L 11,41  L 9,41  L 9,40  L 8,40  L 8,41  L 7,41  L 7,42  L 6,42  L 6,47  L 7,47  L 7,48  L 15,48  L 15,47  Z  " style="fill:rgb(0, 0, 0); fill-opacity:1.000; stroke:none;" />
 <path d="  M 37,97  L 39,97  L 39,98  L 42,98  L 42,97  L 45,97  L 45,95  L 47,95  L 47,94  L 49,94  L 49,93  L 51,93  L 51,92  L 52,92  L 52,91  L 53,91  L 53,90  L 55,90  L 55,89  L 57,89  L 57,88  L 58,88  L 58,87  L 59,87  L 59,86  L 60,86  L 60,85  L 61,85  L 61,84  L 63,84  L 63,83  L 64,83  L 64,82  L 65,82  L 65,80  L 66,80  L 66,79  L 67,79  L 67,78  L 68,78  L 68,76  L 69,76  L 69,74  L 70,74  L 70,72  L 71,72  L 71,69  L 70,69  L 70,66  L 69,66  L 69,65  L 68,65  L 68,64  L 67,64  L 67,63  L 66,63  L 66,62  L 65,62  L 65,61  L 64,61  L 64,60  L 63,60  L 63,59  L 61,59  L 61,58  L 60,58  L 60,57  L 58,57  L 58,56  L 56,56  L 56,55  L 53,55  L 53,54  L 49,54  L 49,53  L 46,53  L 46,52  L 43,52  L 43,51  L 35,51  L 35,52  L 33,52  L 33,53  L 32,53  L 32,54  L 31,54  L 31,55  L 30,55  L 30,56  L 29,56  L 29,57  L 28,57  L 28,58  L 27,58  L 27,60  L 26,60  L 26,62  L 25,62  L 25,63  L 24,63  L 24,64  L 23,64  L 23,65  L 22,65  L 22,67  L 21,67  L 21,68  L 20,68  L 20,70  L 19,70  L 19,73  L 18,73  L 18,84  L 19,84  L 19,86  L 20,86  L 20,87  L 21,87  L 21,88  L 22,88  L 22,89  L 23,89  L 23,90  L 24,90  L 24,91  L 26,91  L 26,93  L 29,93  L 29,94  L 32,94  L 32,95  L 35,95  L 35,96  L 37,96  Z  M 34,88  L 34,87  L 33,87  L 33,86  L 31,86  L 31,85  L 29,85  L 29,84  L 27,84  L 27,83  L 26,83  L 26,82  L 24,82  L 24,76  L 25,76  L 25,73  L 26,73  L 26,71  L 27,71  L 27,69  L 28,69  L 28,68  L 29,68  L 29,67  L 30,67  L 30,66  L 31,66  L 31,65  L 32,65  L 32,64  L 33,64  L 33,63  L 34,63  L 34,62  L 35,62  L 35,61  L 36,61  L 36,60  L 38,60  L 38,59  L 47,59  L 47,60  L 51,60  L 51,61  L 54,61  L 54,62  L 56,62  L 56,63  L 59,63  L 59,64  L 60,64  L 60,65  L 62,65  L 62,66  L 63,66  L 63,71  L 62,71  L 62,74  L 61,74  L 61,76  L 60,76  L 60,78  L 59,78  L 59,79  L 58,79  L 58,80  L 57,80  L 57,81  L 56,81  L 56,82  L 54,82  L 54,83  L 53,83  L 53,84  L 50,84  L 50,85  L 49,85  L 49,86  L 47,86  L 47,87  L 45,87  L 45,88  Z  " style="fill:rgb(0, 0, 0); fill-opacity:1.000; stroke:none;" />
 <path d="  M 98,119  L 99,119  L 99,120  L 98,120  L 98,121  L 99,121  L 99,124  L 98,124  L 98,125  L 99,125  L 99,128  L 98,128  L 98,129  L 99,129  L 99,150  L 100,150  L 100,151  L 102,151  L 102,150  L 104,150  L 104,86  L 103,86  L 103,85  L 104,85  L 104,84  L 103,84  L 103,83  L 104,83  L 104,82  L 103,82  L 103,81  L 104,81  L 104,80  L 103,80  L 103,79  L 104,79  L 104,78  L 103,78  L 103,77  L 104,77  L 104,76  L 103,76  L 103,58  L 102,58  L 102,48  L 101,48  L 101,44  L 100,44  L 100,39  L 99,39  L 99,34  L 98,34  L 98,33  L 97,33  L 97,31  L 96,31  L 96,30  L 93,30  L 93,31  L 92,31  L 92,37  L 93,37  L 93,42  L 94,42  L 94,45  L 95,45  L 95,51  L 96,51  L 96,63  L 97,63  L 97,91  L 98,91  Z  " style="fill:rgb(0, 0, 0); fill-opacity:1.000; stroke:none;" />
</svg>
