<?xml version="1.0" encoding="UTF-8" standalone="no"?>
<!DOCTYPE svg PUBLIC "-//W3C//DTD SVG 1.1//EN" 
  "http://www.w3.org/Graphics/SVG/1.1/DTD/svg11.dtd">
<svg width="104" height="164"
     xmlns="http://www.w3.org/2000/svg" version="1.1">
 <path d="  M 1,38  L 1,39  L 0,39  L 0,41  L 1,41  L 1,42  L 2,42  L 2,44  L 7,44  L 7,43  L 10,43  L 10,42  L 15,42  L 15,41  L 18,41  L 18,42  L 19,42  L 19,41  L 22,41  L 22,40  L 23,40  L 23,41  L 24,41  L 24,40  L 25,40  L 25,41  L 26,41  L 26,40  L 27,40  L 27,41  L 28,41  L 28,40  L 42,40  L 42,39  L 52,39  L 52,38  L 53,38  L 53,39  L 54,39  L 54,38  L 63,38  L 63,37  L 64,37  L 64,36  L 66,36  L 66,34  L 67,34  L 67,33  L 66,33  L 66,32  L 65,32  L 65,31  L 45,31  L 45,32  L 39,32  L 39,28  L 38,28  L 38,21  L 37,21  L 37,18  L 38,18  L 38,17  L 37,17  L 37,11  L 36,11  L 36,6  L 35,6  L 35,2  L 34,2  L 34,1  L 33,1  L 33,0  L 29,0  L 29,1  L 28,1  L 28,7  L 29,7  L 29,12  L 30,12  L 30,17  L 31,17  L 31,22  L 32,22  L 32,23  L 31,23  L 31,26  L 32,26  L 32,29  L 33,29  L 33,31  L 34,31  L 34,32  L 33,32  L 33,33  L 22,33  L 22,34  L 20,34  L 20,33  L 19,33  L 19,34  L 17,34  L 17,35  L 13,35  L 13,36  L 10,36  L 10,37  L 6,37  L 6,38  Z  " style="fill:rgb(0, 0, 0); fill-opacity:1.000; stroke:none;" />
 <path d="  M 78,99  L 78,98  L 79,98  L 79,99  L 81,99  L 81,98  L 84,98  L 84,97  L 87,97  L 87,96  L 88,96  L 88,91  L 87,91  L 87,90  L 85,90  L 85,89  L 84,89  L 84,90  L 80,90  L 80,91  L 75,91  L 75,92  L 71,92  L 71,93  L 63,93  L 63,94  L 60,94  L 60,93  L 59,93  L 59,94  L 55,94  L 55,95  L 37,95  L 37,96  L 26,96  L 26,97  L 23,97  L 23,98  L 20,98  L 20,97  L 19,97  L 19,98  L 15,98  L 15,99  L 14,99  L 14,98  L 13,98  L 13,99  L 9,99  L 9,100  L 8,100  L 8,99  L 7,99  L 7,100  L 0,100  L 0,103  L 1,103  L 1,104  L 2,104  L 2,106  L 4,106  L 4,107  L 8,107  L 8,106  L 12,106  L 12,105  L 13,105  L 13,106  L 15,106  L 15,105  L 19,105  L 19,104  L 24,104  L 24,103  L 25,103  L 25,104  L 26,104  L 26,103  L 39,103  L 39,104  L 40,104  L 40,103  L 41,103  L 41,104  L 42,104  L 42,103  L 47,103  L 47,102  L 55,102  L 55,101  L 62,101  L 62,100  L 70,100  L 70,99  Z  " style="fill:rgb(0, 0, 0); fill-opacity:1.000; stroke:none;" />
 <path d="  M 14,69  L 13,69  L 13,76  L 14,76  L 14,78  L 15,78  L 15,79  L 17,79  L 17,80  L 18,80  L 18,81  L 19,81  L 19,82  L 20,82  L 20,83  L 22,83  L 22,84  L 24,84  L 24,85  L 28,85  L 28,86  L 33,86  L 33,87  L 35,87  L 35,88  L 37,88  L 37,89  L 38,89  L 38,88  L 40,88  L 40,87  L 41,87  L 41,86  L 43,86  L 43,85  L 45,85  L 45,84  L 47,84  L 47,83  L 49,83  L 49,82  L 51,82  L 51,81  L 52,81  L 52,80  L 54,80  L 54,79  L 56,79  L 56,78  L 58,78  L 58,77  L 60,77  L 60,75  L 62,75  L 62,74  L 64,74  L 64,71  L 63,71  L 63,70  L 62,70  L 62,65  L 61,65  L 61,63  L 60,63  L 60,62  L 59,62  L 59,60  L 58,60  L 58,59  L 57,59  L 57,57  L 55,57  L 55,56  L 54,56  L 54,55  L 52,55  L 52,54  L 51,54  L 51,53  L 49,53  L 49,52  L 47,52  L 47,51  L 46,51  L 46,50  L 44,50  L 44,49  L 40,49  L 40,48  L 38,48  L 38,49  L 31,49  L 31,50  L 29,50  L 29,51  L 28,51  L 28,52  L 27,52  L 27,53  L 25,53  L 25,54  L 24,54  L 24,55  L 23,55  L 23,56  L 22,56  L 22,57  L 20,57  L 20,58  L 19,58  L 19,59  L 18,59  L 18,61  L 17,61  L 17,62  L 16,62  L 16,64  L 15,64  L 15,66  L 14,66  Z  M 20,68  L 21,68  L 21,66  L 22,66  L 22,65  L 23,65  L 23,64  L 24,64  L 24,63  L 25,63  L 25,61  L 27,61  L 27,60  L 28,60  L 28,59  L 29,59  L 29,58  L 31,58  L 31,57  L 32,57  L 32,56  L 36,56  L 36,55  L 37,55  L 37,56  L 41,56  L 41,57  L 44,57  L 44,58  L 46,58  L 46,59  L 47,59  L 47,60  L 50,60  L 50,61  L 51,61  L 51,62  L 53,62  L 53,64  L 54,64  L 54,66  L 55,66  L 55,69  L 54,69  L 54,71  L 52,71  L 52,73  L 51,73  L 51,74  L 50,74  L 50,75  L 48,75  L 48,76  L 46,76  L 46,77  L 43,77  L 43,78  L 39,78  L 39,79  L 33,79  L 33,78  L 32,78  L 32,79  L 31,79  L 31,78  L 26,78  L 26,77  L 23,77  L 23,76  L 22,76  L 22,75  L 20,75  Z  " style="fill:rgb(0, 0, 0); fill-opacity:1.000; stroke:none;" />
 <path d="  M 40,144  L 41,144  L 41,143  L 40,143  L 40,142  L 41,142  L 41,138  L 40,138  L 40,137  L 37,137  L 37,138  L 36,138  L 36,139  L 35,139  L 35,141  L 34,141  L 34,145  L 33,145  L 33,157  L 34,157  L 34,161  L 35,161  L 35,162  L 36,162  L 36,163  L 37,163  L 37,164  L 62,164  L 62,163  L 68,163  L 68,162  L 69,162  L 69,163  L 70,163  L 70,162  L 79,162  L 79,161  L 83,161  L 83,160  L 88,160  L 88,159  L 96,159  L 96,158  L 100,158  L 100,157  L 102,157  L 102,156  L 104,156  L 104,150  L 99,150  L 99,151  L 96,151  L 96,152  L 91,152  L 91,153  L 87,153  L 87,154  L 84,154  L 84,153  L 83,153  L 83,154  L 79,154  L 79,155  L 73,155  L 73,156  L 72,156  L 72,155  L 71,155  L 71,156  L 66,156  L 66,157  L 65,157  L 65,156  L 64,156  L 64,157  L 59,157  L 59,158  L 58,158  L 58,157  L 57,157  L 57,158  L 56,158  L 56,157  L 55,157  L 55,158  L 51,158  L 51,159  L 50,159  L 50,158  L 42,158  L 42,157  L 41,157  L 41,152  L 40,152  Z  " style="fill:rgb(0, 0, 0); fill-opacity:1.000; stroke:none;" />
 <path d="  M 45,110  L 45,109  L 44,109  L 44,108  L 43,108  L 43,107  L 42,107  L 42,108  L 41,108  L 41,109  L 40,109  L 40,114  L 41,114  L 41,116  L 42,116  L 42,118  L 43,118  L 43,122  L 44,122  L 44,124  L 46,124  L 46,125  L 47,125  L 47,124  L 48,124  L 48,123  L 49,123  L 49,121  L 48,121  L 48,117  L 47,117  L 47,112  L 46,112  L 46,110  Z  " style="fill:rgb(0, 0, 0); fill-opacity:1.000; stroke:none;" />
 <path d="  M 43,105  L 42,105  L 42,106  L 43,106  Z  " style="fill:rgb(0, 0, 0); fill-opacity:1.000; stroke:none;" />
 <path d="  M 86,43  L 86,44  L 87,44  L 87,48  L 88,48  L 88,51  L 89,51  L 89,55  L 90,55  L 90,62  L 91,62  L 91,69  L 92,69  L 92,96  L 93,96  L 93,110  L 94,110  L 94,111  L 93,111  L 93,112  L 94,112  L 94,123  L 95,123  L 95,124  L 96,124  L 96,123  L 99,123  L 99,122  L 100,122  L 100,120  L 101,120  L 101,119  L 100,119  L 100,116  L 101,116  L 101,115  L 100,115  L 100,104  L 99,104  L 99,87  L 98,87  L 98,84  L 99,84  L 99,83  L 98,83  L 98,63  L 97,63  L 97,58  L 96,58  L 96,54  L 95,54  L 95,51  L 94,51  L 94,47  L 93,47  L 93,44  L 92,44  L 92,42  L 91,42  L 91,39  L 90,39  L 90,35  L 89,35  L 89,32  L 88,32  L 88,28  L 85,28  L 85,29  L 84,29  L 84,33  L 83,33  L 83,35  L 84,35  L 84,39  L 85,39  L 85,43  Z  " style="fill:rgb(0, 0, 0); fill-opacity:1.000; stroke:none;" />
</svg>
