<?xml version="1.0" encoding="UTF-8" standalone="no"?>
<!DOCTYPE svg PUBLIC "-//W3C//DTD SVG 1.1//EN" 
  "http://www.w3.org/Graphics/SVG/1.1/DTD/svg11.dtd">
<svg width="113" height="164"
     xmlns="http://www.w3.org/2000/svg" version="1.1">
 <path d="  M 65,91  L 65,90  L 66,90  L 66,91  L 67,91  L 67,90  L 77,90  L 77,89  L 78,89  L 78,90  L 79,90  L 79,89  L 87,89  L 87,86  L 88,86  L 88,85  L 87,85  L 87,84  L 86,84  L 86,83  L 85,83  L 85,82  L 75,82  L 75,83  L 67,83  L 67,84  L 61,84  L 61,85  L 50,85  L 50,86  L 47,86  L 47,85  L 46,85  L 46,86  L 38,86  L 38,87  L 34,87  L 34,88  L 30,88  L 30,89  L 25,89  L 25,90  L 23,90  L 23,89  L 22,89  L 22,90  L 19,90  L 19,91  L 14,91  L 14,92  L 9,92  L 9,93  L 0,93  L 0,96  L 1,96  L 1,98  L 2,98  L 2,99  L 4,99  L 4,100  L 7,100  L 7,99  L 9,99  L 9,98  L 14,98  L 14,97  L 19,97  L 19,96  L 23,96  L 23,95  L 27,95  L 27,94  L 28,94  L 28,95  L 29,95  L 29,94  L 36,94  L 36,93  L 37,93  L 37,96  L 36,96  L 36,114  L 37,114  L 37,117  L 41,117  L 41,116  L 42,116  L 42,95  L 41,95  L 41,94  L 42,94  L 42,93  L 43,93  L 43,92  L 49,92  L 49,91  L 50,91  L 50,92  L 51,92  L 51,91  Z  " style="fill:rgb(0, 0, 0); fill-opacity:1.000; stroke:none;" />
 <path d="  M 9,30  L 9,31  L 1,31  L 1,33  L 2,33  L 2,34  L 3,34  L 3,36  L 4,36  L 4,37  L 5,37  L 5,38  L 8,38  L 8,37  L 11,37  L 11,36  L 13,36  L 13,35  L 17,35  L 17,34  L 40,34  L 40,33  L 41,33  L 41,34  L 42,34  L 42,33  L 47,33  L 47,32  L 66,32  L 66,31  L 68,31  L 68,27  L 67,27  L 67,26  L 66,26  L 66,25  L 40,25  L 40,20  L 39,20  L 39,13  L 38,13  L 38,6  L 37,6  L 37,3  L 36,3  L 36,1  L 35,1  L 35,0  L 31,0  L 31,1  L 30,1  L 30,10  L 31,10  L 31,13  L 32,13  L 32,16  L 33,16  L 33,22  L 34,22  L 34,27  L 32,27  L 32,26  L 30,26  L 30,25  L 29,25  L 29,26  L 27,26  L 27,27  L 20,27  L 20,28  L 14,28  L 14,29  L 11,29  L 11,30  Z  " style="fill:rgb(0, 0, 0); fill-opacity:1.000; stroke:none;" />
 <path d="  M 14,68  L 15,68  L 15,71  L 16,71  L 16,72  L 17,72  L 17,73  L 20,73  L 20,74  L 21,74  L 21,75  L 24,75  L 24,76  L 25,76  L 25,77  L 27,77  L 27,78  L 30,78  L 30,79  L 41,79  L 41,78  L 43,78  L 43,77  L 46,77  L 46,76  L 49,76  L 49,75  L 51,75  L 51,74  L 54,74  L 54,73  L 57,73  L 57,72  L 59,72  L 59,71  L 60,71  L 60,70  L 62,70  L 62,69  L 63,69  L 63,67  L 64,67  L 64,66  L 65,66  L 65,61  L 64,61  L 64,58  L 63,58  L 63,57  L 62,57  L 62,54  L 61,54  L 61,53  L 60,53  L 60,51  L 58,51  L 58,50  L 57,50  L 57,49  L 56,49  L 56,48  L 55,48  L 55,47  L 54,47  L 54,46  L 52,46  L 52,45  L 51,45  L 51,44  L 49,44  L 49,43  L 47,43  L 47,42  L 45,42  L 45,41  L 44,41  L 44,42  L 43,42  L 43,41  L 41,41  L 41,42  L 39,42  L 39,41  L 38,41  L 38,42  L 30,42  L 30,43  L 27,43  L 27,44  L 26,44  L 26,45  L 25,45  L 25,46  L 23,46  L 23,47  L 22,47  L 22,48  L 21,48  L 21,49  L 19,49  L 19,50  L 18,50  L 18,51  L 17,51  L 17,54  L 16,54  L 16,56  L 15,56  L 15,59  L 14,59  L 14,61  L 13,61  L 13,66  L 14,66  Z  M 51,68  L 51,69  L 49,69  L 49,70  L 47,70  L 47,71  L 43,71  L 43,72  L 31,72  L 31,71  L 27,71  L 27,70  L 25,70  L 25,69  L 23,69  L 23,68  L 22,68  L 22,67  L 20,67  L 20,65  L 19,65  L 19,62  L 20,62  L 20,61  L 21,61  L 21,58  L 22,58  L 22,56  L 23,56  L 23,55  L 24,55  L 24,54  L 26,54  L 26,52  L 27,52  L 27,51  L 30,51  L 30,50  L 34,50  L 34,49  L 45,49  L 45,50  L 47,50  L 47,51  L 49,51  L 49,52  L 50,52  L 50,53  L 51,53  L 51,54  L 53,54  L 53,56  L 54,56  L 54,57  L 56,57  L 56,59  L 57,59  L 57,64  L 56,64  L 56,65  L 55,65  L 55,66  L 54,66  L 54,67  L 53,67  L 53,68  Z  " style="fill:rgb(0, 0, 0); fill-opacity:1.000; stroke:none;" />
 <path d="  M 41,153  L 40,153  L 40,154  L 39,154  L 39,155  L 37,155  L 37,157  L 35,157  L 35,159  L 34,159  L 34,160  L 33,160  L 33,161  L 34,161  L 34,162  L 33,162  L 33,163  L 34,163  L 34,164  L 40,164  L 40,163  L 41,163  L 41,162  L 43,162  L 43,161  L 44,161  L 44,160  L 45,160  L 45,158  L 46,158  L 46,157  L 47,157  L 47,156  L 49,156  L 49,154  L 50,154  L 50,153  L 51,153  L 51,152  L 52,152  L 52,150  L 53,150  L 53,149  L 54,149  L 54,147  L 55,147  L 55,145  L 56,145  L 56,144  L 57,144  L 57,142  L 58,142  L 58,141  L 59,141  L 59,139  L 60,139  L 60,137  L 61,137  L 61,135  L 64,135  L 64,136  L 65,136  L 65,137  L 66,137  L 66,139  L 68,139  L 68,140  L 69,140  L 69,141  L 70,141  L 70,142  L 71,142  L 71,143  L 73,143  L 73,144  L 75,144  L 75,145  L 77,145  L 77,146  L 78,146  L 78,147  L 80,147  L 80,148  L 82,148  L 82,149  L 83,149  L 83,150  L 85,150  L 85,151  L 86,151  L 86,152  L 89,152  L 89,153  L 91,153  L 91,154  L 93,154  L 93,155  L 94,155  L 94,156  L 96,156  L 96,157  L 98,157  L 98,158  L 99,158  L 99,159  L 100,159  L 100,160  L 103,160  L 103,161  L 107,161  L 107,162  L 111,162  L 111,161  L 113,161  L 113,158  L 111,158  L 111,156  L 109,156  L 109,155  L 108,155  L 108,154  L 106,154  L 106,153  L 105,153  L 105,152  L 103,152  L 103,151  L 102,151  L 102,150  L 100,150  L 100,149  L 98,149  L 98,148  L 97,148  L 97,147  L 94,147  L 94,146  L 92,146  L 92,145  L 91,145  L 91,144  L 89,144  L 89,143  L 87,143  L 87,142  L 86,142  L 86,141  L 83,141  L 83,140  L 81,140  L 81,139  L 79,139  L 79,137  L 76,137  L 76,136  L 75,136  L 75,135  L 74,135  L 74,134  L 72,134  L 72,133  L 71,133  L 71,131  L 69,131  L 69,130  L 68,130  L 68,129  L 67,129  L 67,128  L 66,128  L 66,118  L 67,118  L 67,114  L 66,114  L 66,115  L 65,115  L 65,116  L 63,116  L 63,117  L 62,117  L 62,118  L 61,118  L 61,119  L 60,119  L 60,122  L 59,122  L 59,125  L 58,125  L 58,127  L 57,127  L 57,128  L 56,128  L 56,130  L 55,130  L 55,131  L 54,131  L 54,133  L 53,133  L 53,135  L 52,135  L 52,137  L 51,137  L 51,139  L 50,139  L 50,140  L 49,140  L 49,142  L 48,142  L 48,143  L 47,143  L 47,145  L 46,145  L 46,147  L 44,147  L 44,149  L 43,149  L 43,150  L 42,150  L 42,151  L 41,151  Z  " style="fill:rgb(0, 0, 0); fill-opacity:1.000; stroke:none;" />
 <path d="  M 102,109  L 101,109  L 101,104  L 100,104  L 100,94  L 99,94  L 99,92  L 100,92  L 100,91  L 99,91  L 99,85  L 98,85  L 98,77  L 97,77  L 97,76  L 98,76  L 98,75  L 97,75  L 97,64  L 96,64  L 96,57  L 95,57  L 95,54  L 94,54  L 94,51  L 93,51  L 93,47  L 92,47  L 92,44  L 91,44  L 91,43  L 90,43  L 90,40  L 89,40  L 89,39  L 88,39  L 88,38  L 89,38  L 89,37  L 88,37  L 88,36  L 87,36  L 87,33  L 86,33  L 86,25  L 85,25  L 85,23  L 84,23  L 84,22  L 82,22  L 82,23  L 81,23  L 81,31  L 82,31  L 82,37  L 83,37  L 83,39  L 84,39  L 84,41  L 85,41  L 85,44  L 86,44  L 86,46  L 87,46  L 87,49  L 88,49  L 88,52  L 89,52  L 89,55  L 90,55  L 90,62  L 91,62  L 91,73  L 92,73  L 92,74  L 91,74  L 91,76  L 92,76  L 92,86  L 93,86  L 93,87  L 92,87  L 92,88  L 93,88  L 93,98  L 94,98  L 94,108  L 95,108  L 95,109  L 94,109  L 94,110  L 95,110  L 95,112  L 96,112  L 96,113  L 97,113  L 97,114  L 101,114  L 101,113  L 102,113  Z  " style="fill:rgb(0, 0, 0); fill-opacity:1.000; stroke:none;" />
</svg>
