<?xml version="1.0" encoding="UTF-8" standalone="no"?>
<!DOCTYPE svg PUBLIC "-//W3C//DTD SVG 1.1//EN" 
  "http://www.w3.org/Graphics/SVG/1.1/DTD/svg11.dtd">
<svg width="105" height="191"
     xmlns="http://www.w3.org/2000/svg" version="1.1">
 <path d="  M 15,179  L 16,179  L 16,182  L 17,182  L 17,184  L 18,184  L 18,187  L 19,187  L 19,188  L 22,188  L 22,189  L 23,189  L 23,190  L 26,190  L 26,191  L 62,191  L 62,190  L 63,190  L 63,191  L 64,191  L 64,190  L 66,190  L 66,189  L 70,189  L 70,188  L 75,188  L 75,187  L 80,187  L 80,186  L 84,186  L 84,185  L 86,185  L 86,184  L 91,184  L 91,183  L 93,183  L 93,182  L 98,182  L 98,181  L 99,181  L 99,182  L 101,182  L 101,181  L 102,181  L 102,180  L 103,180  L 103,178  L 102,178  L 102,177  L 100,177  L 100,176  L 98,176  L 98,175  L 94,175  L 94,176  L 90,176  L 90,177  L 88,177  L 88,178  L 84,178  L 84,179  L 79,179  L 79,180  L 74,180  L 74,181  L 71,181  L 71,182  L 70,182  L 70,181  L 69,181  L 69,182  L 68,182  L 68,183  L 63,183  L 63,184  L 54,184  L 54,185  L 53,185  L 53,184  L 50,184  L 50,185  L 37,185  L 37,184  L 30,184  L 30,183  L 25,183  L 25,182  L 22,182  L 22,181  L 21,181  L 21,179  L 20,179  L 20,174  L 21,174  L 21,169  L 22,169  L 22,168  L 21,168  L 21,167  L 22,167  L 22,166  L 23,166  L 23,164  L 24,164  L 24,163  L 31,163  L 31,164  L 33,164  L 33,163  L 35,163  L 35,164  L 37,164  L 37,163  L 40,163  L 40,164  L 41,164  L 41,163  L 52,163  L 52,162  L 62,162  L 62,161  L 66,161  L 66,160  L 69,160  L 69,159  L 72,159  L 72,158  L 74,158  L 74,157  L 75,157  L 75,156  L 76,156  L 76,155  L 77,155  L 77,154  L 78,154  L 78,153  L 79,153  L 79,152  L 81,152  L 81,150  L 82,150  L 82,147  L 83,147  L 83,146  L 84,146  L 84,144  L 85,144  L 85,143  L 84,143  L 84,138  L 83,138  L 83,135  L 82,135  L 82,134  L 81,134  L 81,133  L 79,133  L 79,132  L 77,132  L 77,131  L 76,131  L 76,130  L 74,130  L 74,129  L 73,129  L 73,128  L 72,128  L 72,127  L 71,127  L 71,113  L 70,113  L 70,112  L 71,112  L 71,104  L 75,104  L 75,103  L 76,103  L 76,104  L 77,104  L 77,103  L 82,103  L 82,102  L 83,102  L 83,103  L 84,103  L 84,102  L 96,102  L 96,101  L 102,101  L 102,100  L 104,100  L 104,98  L 105,98  L 105,92  L 101,92  L 101,93  L 96,93  L 96,94  L 89,94  L 89,95  L 80,95  L 80,96  L 78,96  L 78,95  L 77,95  L 77,96  L 74,96  L 74,95  L 73,95  L 73,96  L 53,96  L 53,97  L 52,97  L 52,96  L 51,96  L 51,97  L 36,97  L 36,98  L 25,98  L 25,99  L 19,99  L 19,100  L 18,100  L 18,99  L 17,99  L 17,100  L 14,100  L 14,101  L 10,101  L 10,102  L 4,102  L 4,103  L 2,103  L 2,104  L 1,104  L 1,106  L 0,106  L 0,107  L 1,107  L 1,108  L 2,108  L 2,109  L 4,109  L 4,110  L 6,110  L 6,109  L 10,109  L 10,108  L 13,108  L 13,107  L 16,107  L 16,108  L 17,108  L 17,107  L 22,107  L 22,106  L 23,106  L 23,107  L 24,107  L 24,106  L 35,106  L 35,108  L 34,108  L 34,110  L 33,110  L 33,126  L 32,126  L 32,128  L 33,128  L 33,131  L 32,131  L 32,132  L 31,132  L 31,133  L 29,133  L 29,134  L 28,134  L 28,135  L 27,135  L 27,136  L 26,136  L 26,137  L 25,137  L 25,136  L 23,136  L 23,137  L 20,137  L 20,139  L 19,139  L 19,141  L 21,141  L 21,142  L 22,142  L 22,141  L 24,141  L 24,140  L 27,140  L 27,139  L 29,139  L 29,140  L 30,140  L 30,141  L 32,141  L 32,140  L 33,140  L 33,142  L 34,142  L 34,141  L 36,141  L 36,140  L 37,140  L 37,141  L 40,141  L 40,140  L 41,140  L 41,141  L 48,141  L 48,140  L 49,140  L 49,141  L 51,141  L 51,140  L 57,140  L 57,139  L 58,139  L 58,140  L 59,140  L 59,139  L 69,139  L 69,138  L 70,138  L 70,139  L 73,139  L 73,141  L 74,141  L 74,145  L 75,145  L 75,146  L 74,146  L 74,147  L 73,147  L 73,149  L 71,149  L 71,150  L 70,150  L 70,151  L 65,151  L 65,152  L 62,152  L 62,153  L 57,153  L 57,154  L 52,154  L 52,155  L 43,155  L 43,156  L 42,156  L 42,155  L 40,155  L 40,156  L 21,156  L 21,157  L 19,157  L 19,158  L 18,158  L 18,159  L 17,159  L 17,161  L 16,161  L 16,162  L 15,162  Z  M 63,111  L 64,111  L 64,113  L 63,113  L 63,115  L 64,115  L 64,125  L 65,125  L 65,127  L 64,127  L 64,128  L 63,128  L 63,129  L 61,129  L 61,130  L 56,130  L 56,131  L 41,131  L 41,130  L 39,130  L 39,129  L 38,129  L 38,127  L 39,127  L 39,116  L 40,116  L 40,112  L 39,112  L 39,110  L 40,110  L 40,109  L 39,109  L 39,108  L 40,108  L 40,106  L 42,106  L 42,105  L 46,105  L 46,104  L 47,104  L 47,105  L 50,105  L 50,104  L 64,104  L 64,108  L 63,108  Z  " style="fill:rgb(0, 0, 0); fill-opacity:1.000; stroke:none;" />
 <path d="  M 46,3  L 45,3  L 45,2  L 43,2  L 43,1  L 42,1  L 42,0  L 39,0  L 39,1  L 38,1  L 38,2  L 37,2  L 37,4  L 38,4  L 38,17  L 39,17  L 39,18  L 38,18  L 38,21  L 39,21  L 39,22  L 38,22  L 38,25  L 39,25  L 39,30  L 40,30  L 40,32  L 41,32  L 41,36  L 39,36  L 39,35  L 38,35  L 38,34  L 35,34  L 35,33  L 34,33  L 34,32  L 31,32  L 31,31  L 30,31  L 30,32  L 29,32  L 29,31  L 28,31  L 28,32  L 23,32  L 23,33  L 20,33  L 20,34  L 17,34  L 17,35  L 12,35  L 12,36  L 10,36  L 10,41  L 13,41  L 13,42  L 28,42  L 28,41  L 29,41  L 29,42  L 32,42  L 32,41  L 40,41  L 40,40  L 41,40  L 41,41  L 42,41  L 42,40  L 43,40  L 43,39  L 45,39  L 45,40  L 60,40  L 60,39  L 68,39  L 68,38  L 71,38  L 71,37  L 74,37  L 74,36  L 75,36  L 75,37  L 76,37  L 76,36  L 77,36  L 77,35  L 81,35  L 81,34  L 82,34  L 82,35  L 83,35  L 83,34  L 85,34  L 85,29  L 84,29  L 84,28  L 83,28  L 83,27  L 82,27  L 82,26  L 81,26  L 81,25  L 79,25  L 79,24  L 77,24  L 77,25  L 76,25  L 76,24  L 74,24  L 74,23  L 73,23  L 73,28  L 72,28  L 72,30  L 71,30  L 71,31  L 66,31  L 66,32  L 51,32  L 51,31  L 49,31  L 49,29  L 48,29  L 48,26  L 47,26  L 47,24  L 48,24  L 48,23  L 47,23  L 47,19  L 46,19  Z  " style="fill:rgb(0, 0, 0); fill-opacity:1.000; stroke:none;" />
 <path d="  M 59,79  L 57,79  L 57,80  L 55,80  L 55,81  L 53,81  L 53,82  L 49,82  L 49,83  L 41,83  L 41,82  L 35,82  L 35,81  L 33,81  L 33,80  L 31,80  L 31,76  L 32,76  L 32,75  L 33,75  L 33,70  L 34,70  L 34,69  L 35,69  L 35,68  L 36,68  L 36,66  L 38,66  L 38,65  L 39,65  L 39,64  L 40,64  L 40,63  L 41,63  L 41,62  L 42,62  L 42,61  L 43,61  L 43,60  L 46,60  L 46,59  L 48,59  L 48,58  L 54,58  L 54,59  L 56,59  L 56,60  L 58,60  L 58,61  L 59,61  L 59,62  L 60,62  L 60,63  L 61,63  L 61,64  L 62,64  L 62,65  L 63,65  L 63,66  L 64,66  L 64,73  L 63,73  L 63,75  L 62,75  L 62,76  L 61,76  L 61,77  L 60,77  L 60,78  L 59,78  Z  M 68,81  L 68,79  L 69,79  L 69,78  L 70,78  L 70,76  L 71,76  L 71,75  L 72,75  L 72,72  L 73,72  L 73,70  L 72,70  L 72,63  L 71,63  L 71,61  L 70,61  L 70,60  L 69,60  L 69,59  L 68,59  L 68,58  L 67,58  L 67,57  L 66,57  L 66,56  L 64,56  L 64,55  L 63,55  L 63,54  L 62,54  L 62,53  L 61,53  L 61,52  L 57,52  L 57,51  L 54,51  L 54,50  L 51,50  L 51,51  L 49,51  L 49,50  L 47,50  L 47,51  L 44,51  L 44,52  L 41,52  L 41,53  L 38,53  L 38,55  L 36,55  L 36,56  L 35,56  L 35,57  L 34,57  L 34,58  L 33,58  L 33,60  L 32,60  L 32,61  L 31,61  L 31,62  L 30,62  L 30,64  L 29,64  L 29,65  L 28,65  L 28,67  L 27,67  L 27,72  L 26,72  L 26,73  L 25,73  L 25,75  L 24,75  L 24,77  L 25,77  L 25,80  L 26,80  L 26,82  L 27,82  L 27,84  L 28,84  L 28,86  L 29,86  L 29,88  L 32,88  L 32,89  L 35,89  L 35,90  L 40,90  L 40,91  L 45,91  L 45,90  L 46,90  L 46,91  L 47,91  L 47,90  L 54,90  L 54,89  L 56,89  L 56,88  L 58,88  L 58,87  L 60,87  L 60,86  L 62,86  L 62,85  L 63,85  L 63,84  L 65,84  L 65,83  L 66,83  L 66,82  L 67,82  L 67,81  Z  " style="fill:rgb(0, 0, 0); fill-opacity:1.000; stroke:none;" />
 <path d="  M 62,22  L 62,23  L 63,23  L 63,22  L 65,22  L 65,21  L 66,21  L 66,22  L 71,22  L 71,21  L 72,21  L 72,22  L 73,22  L 73,21  L 74,21  L 74,20  L 75,20  L 75,19  L 74,19  L 74,18  L 73,18  L 73,17  L 72,17  L 72,16  L 68,16  L 68,15  L 56,15  L 56,16  L 55,16  L 55,17  L 54,17  L 54,21  L 55,21  L 55,22  L 56,22  L 56,23  L 61,23  L 61,22  Z  " style="fill:rgb(0, 0, 0); fill-opacity:1.000; stroke:none;" />
 <path d="  M 71,23  L 72,23  L 72,22  L 71,22  Z  " style="fill:rgb(0, 0, 0); fill-opacity:1.000; stroke:none;" />
</svg>
