<?xml version="1.0" encoding="UTF-8" standalone="no"?>
<!DOCTYPE svg PUBLIC "-//W3C//DTD SVG 1.1//EN" 
  "http://www.w3.org/Graphics/SVG/1.1/DTD/svg11.dtd">
<svg width="102" height="207"
     xmlns="http://www.w3.org/2000/svg" version="1.1">
 <path d="  M 72,117  L 72,116  L 73,116  L 73,115  L 72,115  L 72,114  L 73,114  L 73,113  L 72,113  L 72,112  L 73,112  L 73,111  L 72,111  L 72,110  L 73,110  L 73,109  L 72,109  L 72,108  L 73,108  L 73,107  L 72,107  L 72,105  L 73,105  L 73,103  L 75,103  L 75,102  L 98,102  L 98,101  L 100,101  L 100,100  L 101,100  L 101,99  L 102,99  L 102,91  L 101,91  L 101,90  L 99,90  L 99,91  L 98,91  L 98,92  L 93,92  L 93,93  L 84,93  L 84,94  L 82,94  L 82,93  L 81,93  L 81,94  L 78,94  L 78,93  L 75,93  L 75,94  L 74,94  L 74,93  L 67,93  L 67,94  L 65,94  L 65,93  L 64,93  L 64,94  L 57,94  L 57,95  L 53,95  L 53,96  L 51,96  L 51,95  L 50,95  L 50,96  L 48,96  L 48,97  L 36,97  L 36,98  L 31,98  L 31,99  L 28,99  L 28,100  L 24,100  L 24,101  L 19,101  L 19,102  L 15,102  L 15,103  L 13,103  L 13,104  L 10,104  L 10,105  L 7,105  L 7,106  L 4,106  L 4,107  L 2,107  L 2,108  L 0,108  L 0,109  L 1,109  L 1,112  L 2,112  L 2,113  L 4,113  L 4,114  L 7,114  L 7,113  L 10,113  L 10,112  L 13,112  L 13,111  L 17,111  L 17,110  L 21,110  L 21,109  L 22,109  L 22,110  L 23,110  L 23,109  L 24,109  L 24,108  L 31,108  L 31,109  L 32,109  L 32,111  L 31,111  L 31,113  L 32,113  L 32,114  L 31,114  L 31,118  L 30,118  L 30,125  L 29,125  L 29,126  L 30,126  L 30,132  L 33,132  L 33,131  L 35,131  L 35,127  L 36,127  L 36,119  L 37,119  L 37,108  L 38,108  L 38,107  L 39,107  L 39,106  L 43,106  L 43,105  L 48,105  L 48,104  L 57,104  L 57,103  L 59,103  L 59,104  L 60,104  L 60,103  L 65,103  L 65,122  L 66,122  L 66,126  L 67,126  L 67,131  L 68,131  L 68,133  L 69,133  L 69,134  L 75,134  L 75,133  L 76,133  L 76,132  L 77,132  L 77,131  L 75,131  L 75,130  L 76,130  L 76,129  L 75,129  L 75,126  L 74,126  L 74,123  L 73,123  L 73,117  Z  " style="fill:rgb(0, 0, 0); fill-opacity:1.000; stroke:none;" />
 <path d="  M 46,38  L 46,39  L 48,39  L 48,38  L 50,38  L 50,39  L 51,39  L 51,38  L 61,38  L 61,37  L 65,37  L 65,36  L 66,36  L 66,37  L 67,37  L 67,36  L 70,36  L 70,35  L 76,35  L 76,34  L 77,34  L 77,33  L 81,33  L 81,32  L 82,32  L 82,33  L 83,33  L 83,32  L 84,32  L 84,31  L 85,31  L 85,30  L 87,30  L 87,26  L 86,26  L 86,25  L 85,25  L 85,24  L 83,24  L 83,23  L 82,23  L 82,24  L 81,24  L 81,23  L 76,23  L 76,24  L 75,24  L 75,25  L 74,25  L 74,26  L 73,26  L 73,27  L 68,27  L 68,28  L 67,28  L 67,29  L 56,29  L 56,30  L 50,30  L 50,29  L 48,29  L 48,25  L 47,25  L 47,23  L 46,23  L 46,16  L 45,16  L 45,3  L 44,3  L 44,1  L 43,1  L 43,0  L 41,0  L 41,1  L 37,1  L 37,6  L 38,6  L 38,23  L 39,23  L 39,26  L 40,26  L 40,30  L 41,30  L 41,33  L 38,33  L 38,32  L 33,32  L 33,31  L 32,31  L 32,32  L 29,32  L 29,33  L 22,33  L 22,34  L 21,34  L 21,33  L 20,33  L 20,34  L 15,34  L 15,35  L 11,35  L 11,36  L 10,36  L 10,39  L 11,39  L 11,41  L 28,41  L 28,40  L 29,40  L 29,41  L 32,41  L 32,40  L 33,40  L 33,41  L 34,41  L 34,40  L 40,40  L 40,39  L 44,39  L 44,38  Z  " style="fill:rgb(0, 0, 0); fill-opacity:1.000; stroke:none;" />
 <path d="  M 34,190  L 34,189  L 33,189  L 33,188  L 30,188  L 30,187  L 29,187  L 29,185  L 26,185  L 26,179  L 25,179  L 25,156  L 26,156  L 26,155  L 25,155  L 25,152  L 26,152  L 26,150  L 27,150  L 27,149  L 29,149  L 29,150  L 33,150  L 33,151  L 34,151  L 34,150  L 37,150  L 37,151  L 45,151  L 45,152  L 46,152  L 46,151  L 49,151  L 49,152  L 50,152  L 50,151  L 55,151  L 55,150  L 63,150  L 63,149  L 74,149  L 74,148  L 76,148  L 76,149  L 77,149  L 77,150  L 78,150  L 78,166  L 79,166  L 79,169  L 78,169  L 78,170  L 79,170  L 79,173  L 80,173  L 80,176  L 81,176  L 81,179  L 80,179  L 80,181  L 79,181  L 79,182  L 78,182  L 78,183  L 76,183  L 76,184  L 74,184  L 74,185  L 72,185  L 72,186  L 70,186  L 70,187  L 69,187  L 69,186  L 68,186  L 68,187  L 65,187  L 65,188  L 64,188  L 64,189  L 60,189  L 60,190  L 56,190  L 56,191  L 53,191  L 53,190  L 52,190  L 52,191  L 41,191  L 41,190  L 40,190  L 40,191  L 37,191  L 37,189  L 36,189  L 36,190  Z  M 87,169  L 86,169  L 86,161  L 85,161  L 85,154  L 86,154  L 86,148  L 87,148  L 87,141  L 86,141  L 86,140  L 85,140  L 85,139  L 80,139  L 80,138  L 79,138  L 79,139  L 78,139  L 78,138  L 76,138  L 76,139  L 71,139  L 71,140  L 70,140  L 70,139  L 67,139  L 67,140  L 64,140  L 64,141  L 63,141  L 63,140  L 62,140  L 62,141  L 52,141  L 52,142  L 50,142  L 50,141  L 49,141  L 49,142  L 46,142  L 46,141  L 45,141  L 45,142  L 38,142  L 38,141  L 29,141  L 29,140  L 20,140  L 20,141  L 18,141  L 18,153  L 17,153  L 17,154  L 18,154  L 18,157  L 17,157  L 17,158  L 18,158  L 18,160  L 17,160  L 17,162  L 18,162  L 18,163  L 17,163  L 17,166  L 18,166  L 18,167  L 17,167  L 17,181  L 16,181  L 16,182  L 17,182  L 17,183  L 16,183  L 16,184  L 17,184  L 17,191  L 18,191  L 18,194  L 19,194  L 19,198  L 20,198  L 20,201  L 21,201  L 21,202  L 22,202  L 22,203  L 23,203  L 23,206  L 24,206  L 24,207  L 33,207  L 33,202  L 42,202  L 42,201  L 44,201  L 44,202  L 45,202  L 45,201  L 46,201  L 46,200  L 47,200  L 47,201  L 50,201  L 50,200  L 52,200  L 52,201  L 55,201  L 55,202  L 56,202  L 56,203  L 62,203  L 62,202  L 63,202  L 63,201  L 64,201  L 64,200  L 65,200  L 65,199  L 66,199  L 66,198  L 70,198  L 70,197  L 74,197  L 74,196  L 78,196  L 78,195  L 79,195  L 79,194  L 82,194  L 82,193  L 83,193  L 83,192  L 84,192  L 84,191  L 86,191  L 86,190  L 87,190  L 87,188  L 88,188  L 88,179  L 87,179  Z  " style="fill:rgb(0, 0, 0); fill-opacity:1.000; stroke:none;" />
 <path d="  M 63,52  L 63,51  L 62,51  L 62,50  L 59,50  L 59,49  L 57,49  L 57,48  L 45,48  L 45,49  L 43,49  L 43,50  L 41,50  L 41,51  L 38,51  L 38,52  L 37,52  L 37,53  L 36,53  L 36,54  L 35,54  L 35,55  L 34,55  L 34,56  L 33,56  L 33,57  L 31,57  L 31,58  L 30,58  L 30,59  L 29,59  L 29,60  L 28,60  L 28,61  L 27,61  L 27,62  L 26,62  L 26,64  L 25,64  L 25,65  L 24,65  L 24,68  L 23,68  L 23,69  L 22,69  L 22,71  L 21,71  L 21,75  L 20,75  L 20,78  L 21,78  L 21,80  L 22,80  L 22,81  L 23,81  L 23,82  L 24,82  L 24,83  L 25,83  L 25,84  L 27,84  L 27,85  L 28,85  L 28,86  L 30,86  L 30,87  L 32,87  L 32,88  L 35,88  L 35,89  L 39,89  L 39,90  L 50,90  L 50,89  L 53,89  L 53,88  L 56,88  L 56,87  L 60,87  L 60,86  L 62,86  L 62,85  L 63,85  L 63,84  L 65,84  L 65,83  L 67,83  L 67,82  L 68,82  L 68,81  L 70,81  L 70,79  L 71,79  L 71,78  L 72,78  L 72,77  L 73,77  L 73,68  L 72,68  L 72,63  L 71,63  L 71,59  L 70,59  L 70,57  L 69,57  L 69,56  L 68,56  L 68,55  L 66,55  L 66,54  L 65,54  L 65,53  L 64,53  L 64,52  Z  M 57,57  L 57,58  L 58,58  L 58,59  L 60,59  L 60,61  L 61,61  L 61,62  L 62,62  L 62,63  L 63,63  L 63,65  L 64,65  L 64,68  L 65,68  L 65,70  L 66,70  L 66,74  L 65,74  L 65,75  L 64,75  L 64,77  L 62,77  L 62,78  L 60,78  L 60,79  L 58,79  L 58,80  L 56,80  L 56,81  L 53,81  L 53,82  L 50,82  L 50,83  L 43,83  L 43,82  L 38,82  L 38,81  L 35,81  L 35,80  L 33,80  L 33,79  L 31,79  L 31,78  L 29,78  L 29,77  L 28,77  L 28,76  L 27,76  L 27,72  L 28,72  L 28,70  L 29,70  L 29,69  L 30,69  L 30,68  L 32,68  L 32,67  L 33,67  L 33,66  L 34,66  L 34,64  L 36,64  L 36,63  L 37,63  L 37,62  L 39,62  L 39,61  L 40,61  L 40,60  L 41,60  L 41,59  L 43,59  L 43,58  L 45,58  L 45,57  L 47,57  L 47,56  L 54,56  L 54,57  Z  " style="fill:rgb(0, 0, 0); fill-opacity:1.000; stroke:none;" />
 <path d="  M 61,16  L 61,14  L 60,14  L 60,15  L 59,15  L 59,16  Z  " style="fill:rgb(0, 0, 0); fill-opacity:1.000; stroke:none;" />
</svg>
