<?xml version="1.0" encoding="UTF-8" standalone="no"?>
<!DOCTYPE svg PUBLIC "-//W3C//DTD SVG 1.1//EN" 
  "http://www.w3.org/Graphics/SVG/1.1/DTD/svg11.dtd">
<svg width="102" height="190"
     xmlns="http://www.w3.org/2000/svg" version="1.1">
 <path d="  M 58,98  L 58,99  L 57,99  L 57,98  L 56,98  L 56,99  L 48,99  L 48,100  L 40,100  L 40,101  L 36,101  L 36,102  L 32,102  L 32,103  L 28,103  L 28,104  L 24,104  L 24,105  L 16,105  L 16,106  L 10,106  L 10,107  L 9,107  L 9,106  L 8,106  L 8,107  L 1,107  L 1,108  L 0,108  L 0,111  L 1,111  L 1,112  L 2,112  L 2,113  L 13,113  L 13,112  L 20,112  L 20,111  L 32,111  L 32,110  L 35,110  L 35,111  L 36,111  L 36,110  L 38,110  L 38,109  L 41,109  L 41,108  L 45,108  L 45,107  L 56,107  L 56,106  L 59,106  L 59,107  L 60,107  L 60,106  L 65,106  L 65,105  L 75,105  L 75,104  L 93,104  L 93,103  L 94,103  L 94,104  L 97,104  L 97,103  L 101,103  L 101,102  L 102,102  L 102,94  L 100,94  L 100,95  L 96,95  L 96,96  L 86,96  L 86,97  L 85,97  L 85,96  L 83,96  L 83,97  L 81,97  L 81,96  L 80,96  L 80,97  L 64,97  L 64,98  Z  " style="fill:rgb(0, 0, 0); fill-opacity:1.000; stroke:none;" />
 <path d="  M 80,29  L 80,28  L 79,28  L 79,29  L 78,29  L 78,30  L 75,30  L 75,31  L 62,31  L 62,32  L 61,32  L 61,31  L 60,31  L 60,32  L 57,32  L 57,33  L 56,33  L 56,32  L 54,32  L 54,31  L 53,31  L 53,30  L 52,30  L 52,26  L 51,26  L 51,22  L 50,22  L 50,19  L 49,19  L 49,1  L 48,1  L 48,0  L 44,0  L 44,1  L 43,1  L 43,2  L 42,2  L 42,21  L 43,21  L 43,25  L 44,25  L 44,29  L 45,29  L 45,30  L 44,30  L 44,31  L 45,31  L 45,34  L 44,34  L 44,35  L 42,35  L 42,34  L 37,34  L 37,35  L 36,35  L 36,34  L 35,34  L 35,35  L 30,35  L 30,36  L 29,36  L 29,35  L 27,35  L 27,36  L 21,36  L 21,37  L 17,37  L 17,38  L 16,38  L 16,39  L 14,39  L 14,43  L 15,43  L 15,44  L 16,44  L 16,45  L 19,45  L 19,44  L 35,44  L 35,43  L 36,43  L 36,44  L 38,44  L 38,43  L 41,43  L 41,44  L 42,44  L 42,43  L 46,43  L 46,42  L 47,42  L 47,43  L 48,43  L 48,42  L 57,42  L 57,41  L 58,41  L 58,42  L 59,42  L 59,41  L 63,41  L 63,40  L 67,40  L 67,39  L 73,39  L 73,38  L 82,38  L 82,37  L 85,37  L 85,35  L 86,35  L 86,31  L 85,31  L 85,30  L 83,30  L 83,29  Z  " style="fill:rgb(0, 0, 0); fill-opacity:1.000; stroke:none;" />
 <path d="  M 64,190  L 64,189  L 65,189  L 65,190  L 66,190  L 66,189  L 67,189  L 67,188  L 69,188  L 69,187  L 70,187  L 70,186  L 72,186  L 72,185  L 73,185  L 73,183  L 75,183  L 75,182  L 76,182  L 76,180  L 77,180  L 77,178  L 78,178  L 78,177  L 79,177  L 79,175  L 80,175  L 80,173  L 81,173  L 81,169  L 82,169  L 82,167  L 83,167  L 83,157  L 82,157  L 82,156  L 83,156  L 83,152  L 82,152  L 82,151  L 83,151  L 83,150  L 82,150  L 82,147  L 81,147  L 81,145  L 80,145  L 80,143  L 79,143  L 79,142  L 78,142  L 78,141  L 76,141  L 76,140  L 75,140  L 75,139  L 74,139  L 74,138  L 72,138  L 72,137  L 69,137  L 69,136  L 65,136  L 65,135  L 64,135  L 64,136  L 40,136  L 40,135  L 39,135  L 39,134  L 40,134  L 40,120  L 39,120  L 39,118  L 38,118  L 38,116  L 37,116  L 37,115  L 34,115  L 34,116  L 33,116  L 33,134  L 34,134  L 34,139  L 33,139  L 33,140  L 32,140  L 32,142  L 31,142  L 31,143  L 30,143  L 30,145  L 29,145  L 29,146  L 28,146  L 28,147  L 26,147  L 26,149  L 24,149  L 24,150  L 23,150  L 23,152  L 22,152  L 22,153  L 21,153  L 21,156  L 20,156  L 20,159  L 19,159  L 19,165  L 20,165  L 20,166  L 19,166  L 19,167  L 20,167  L 20,168  L 19,168  L 19,169  L 20,169  L 20,172  L 21,172  L 21,174  L 22,174  L 22,176  L 23,176  L 23,178  L 24,178  L 24,179  L 25,179  L 25,181  L 26,181  L 26,182  L 27,182  L 27,184  L 29,184  L 29,185  L 31,185  L 31,186  L 32,186  L 32,187  L 34,187  L 34,188  L 35,188  L 35,189  L 37,189  L 37,190  Z  M 75,164  L 75,165  L 74,165  L 74,171  L 73,171  L 73,175  L 72,175  L 72,176  L 71,176  L 71,177  L 70,177  L 70,178  L 69,178  L 69,179  L 68,179  L 68,180  L 66,180  L 66,181  L 63,181  L 63,182  L 41,182  L 41,181  L 38,181  L 38,180  L 36,180  L 36,179  L 34,179  L 34,178  L 32,178  L 32,176  L 31,176  L 31,175  L 30,175  L 30,174  L 29,174  L 29,172  L 28,172  L 28,170  L 27,170  L 27,166  L 26,166  L 26,163  L 27,163  L 27,158  L 28,158  L 28,157  L 29,157  L 29,155  L 30,155  L 30,154  L 31,154  L 31,153  L 32,153  L 32,152  L 33,152  L 33,151  L 34,151  L 34,150  L 35,150  L 35,149  L 36,149  L 36,148  L 37,148  L 37,147  L 39,147  L 39,146  L 40,146  L 40,145  L 42,145  L 42,144  L 48,144  L 48,143  L 66,143  L 66,144  L 68,144  L 68,145  L 70,145  L 70,146  L 71,146  L 71,147  L 72,147  L 72,150  L 73,150  L 73,154  L 74,154  L 74,158  L 75,158  L 75,161  L 74,161  L 74,162  L 75,162  L 75,163  L 74,163  L 74,164  Z  " style="fill:rgb(0, 0, 0); fill-opacity:1.000; stroke:none;" />
 <path d="  M 34,91  L 36,91  L 36,92  L 38,92  L 38,93  L 41,93  L 41,94  L 46,94  L 46,95  L 48,95  L 48,94  L 54,94  L 54,93  L 59,93  L 59,92  L 60,92  L 60,91  L 63,91  L 63,90  L 64,90  L 64,89  L 65,89  L 65,88  L 67,88  L 67,87  L 69,87  L 69,86  L 71,86  L 71,85  L 72,85  L 72,84  L 73,84  L 73,82  L 74,82  L 74,79  L 75,79  L 75,77  L 74,77  L 74,76  L 75,76  L 75,75  L 76,75  L 76,71  L 75,71  L 75,66  L 74,66  L 74,64  L 73,64  L 73,63  L 72,63  L 72,61  L 70,61  L 70,60  L 69,60  L 69,59  L 68,59  L 68,58  L 67,58  L 67,57  L 66,57  L 66,56  L 65,56  L 65,55  L 63,55  L 63,54  L 62,54  L 62,53  L 61,53  L 61,52  L 60,52  L 60,51  L 59,51  L 59,52  L 58,52  L 58,51  L 51,51  L 51,52  L 47,52  L 47,53  L 45,53  L 45,54  L 43,54  L 43,55  L 41,55  L 41,56  L 40,56  L 40,57  L 38,57  L 38,58  L 37,58  L 37,59  L 35,59  L 35,60  L 33,60  L 33,61  L 32,61  L 32,62  L 31,62  L 31,63  L 30,63  L 30,64  L 29,64  L 29,66  L 28,66  L 28,68  L 27,68  L 27,70  L 26,70  L 26,72  L 25,72  L 25,75  L 24,75  L 24,77  L 23,77  L 23,80  L 24,80  L 24,83  L 25,83  L 25,84  L 27,84  L 27,86  L 28,86  L 28,87  L 29,87  L 29,88  L 31,88  L 31,89  L 32,89  L 32,90  L 34,90  Z  M 64,82  L 62,82  L 62,83  L 60,83  L 60,84  L 59,84  L 59,85  L 57,85  L 57,86  L 52,86  L 52,87  L 46,87  L 46,86  L 41,86  L 41,85  L 38,85  L 38,84  L 36,84  L 36,83  L 35,83  L 35,82  L 33,82  L 33,81  L 32,81  L 32,80  L 31,80  L 31,78  L 30,78  L 30,75  L 31,75  L 31,73  L 32,73  L 32,72  L 33,72  L 33,70  L 34,70  L 34,69  L 35,69  L 35,68  L 36,68  L 36,67  L 38,67  L 38,66  L 39,66  L 39,65  L 40,65  L 40,64  L 42,64  L 42,63  L 45,63  L 45,62  L 47,62  L 47,61  L 50,61  L 50,60  L 55,60  L 55,61  L 58,61  L 58,62  L 60,62  L 60,63  L 62,63  L 62,64  L 64,64  L 64,65  L 65,65  L 65,66  L 66,66  L 66,67  L 67,67  L 67,69  L 68,69  L 68,71  L 69,71  L 69,74  L 68,74  L 68,75  L 69,75  L 69,77  L 68,77  L 68,78  L 67,78  L 67,79  L 66,79  L 66,80  L 65,80  L 65,81  L 64,81  Z  " style="fill:rgb(0, 0, 0); fill-opacity:1.000; stroke:none;" />
 <path d="  M 68,131  L 70,131  L 70,132  L 73,132  L 73,133  L 74,133  L 74,131  L 75,131  L 75,124  L 74,124  L 74,123  L 75,123  L 75,122  L 74,122  L 74,107  L 72,107  L 72,106  L 71,106  L 71,107  L 69,107  L 69,110  L 68,110  Z  " style="fill:rgb(0, 0, 0); fill-opacity:1.000; stroke:none;" />
</svg>
