<?xml version="1.0" encoding="UTF-8" standalone="no"?>
<!DOCTYPE svg PUBLIC "-//W3C//DTD SVG 1.1//EN" 
  "http://www.w3.org/Graphics/SVG/1.1/DTD/svg11.dtd">
<svg width="98" height="195"
     xmlns="http://www.w3.org/2000/svg" version="1.1">
 <path d="  M 45,117  L 45,116  L 48,116  L 48,115  L 54,115  L 54,114  L 55,114  L 55,115  L 56,115  L 56,114  L 61,114  L 61,113  L 73,113  L 73,112  L 76,112  L 76,113  L 77,113  L 77,112  L 92,112  L 92,113  L 93,113  L 93,112  L 97,112  L 97,111  L 98,111  L 98,104  L 97,104  L 97,103  L 91,103  L 91,104  L 81,104  L 81,105  L 78,105  L 78,104  L 77,104  L 77,105  L 65,105  L 65,106  L 48,106  L 48,107  L 43,107  L 43,108  L 42,108  L 42,107  L 41,107  L 41,108  L 37,108  L 37,109  L 34,109  L 34,108  L 33,108  L 33,109  L 31,109  L 31,110  L 25,110  L 25,111  L 20,111  L 20,112  L 19,112  L 19,111  L 18,111  L 18,112  L 13,112  L 13,113  L 11,113  L 11,114  L 7,114  L 7,115  L 6,115  L 6,114  L 5,114  L 5,115  L 2,115  L 2,116  L 1,116  L 1,117  L 0,117  L 0,118  L 1,118  L 1,120  L 2,120  L 2,121  L 3,121  L 3,122  L 4,122  L 4,123  L 7,123  L 7,124  L 8,124  L 8,123  L 10,123  L 10,122  L 12,122  L 12,121  L 17,121  L 17,120  L 20,120  L 20,119  L 26,119  L 26,118  L 34,118  L 34,117  Z  " style="fill:rgb(0, 0, 0); fill-opacity:1.000; stroke:none;" />
 <path d="  M 67,31  L 67,32  L 51,32  L 51,27  L 50,27  L 50,25  L 49,25  L 49,18  L 48,18  L 48,12  L 47,12  L 47,4  L 46,4  L 46,2  L 45,2  L 45,1  L 43,1  L 43,0  L 42,0  L 42,1  L 40,1  L 40,3  L 39,3  L 39,7  L 40,7  L 40,8  L 39,8  L 39,9  L 40,9  L 40,14  L 41,14  L 41,27  L 42,27  L 42,34  L 40,34  L 40,35  L 39,35  L 39,34  L 38,34  L 38,33  L 33,33  L 33,32  L 32,32  L 32,33  L 29,33  L 29,32  L 28,32  L 28,33  L 23,33  L 23,34  L 18,34  L 18,35  L 13,35  L 13,36  L 11,36  L 11,37  L 10,37  L 10,38  L 9,38  L 9,39  L 10,39  L 10,41  L 12,41  L 12,42  L 15,42  L 15,43  L 16,43  L 16,42  L 21,42  L 21,43  L 22,43  L 22,42  L 23,42  L 23,43  L 24,43  L 24,42  L 40,42  L 40,41  L 46,41  L 46,40  L 47,40  L 47,41  L 48,41  L 48,40  L 49,40  L 49,41  L 50,41  L 50,40  L 63,40  L 63,39  L 66,39  L 66,40  L 67,40  L 67,39  L 72,39  L 72,38  L 73,38  L 73,39  L 74,39  L 74,38  L 77,38  L 77,37  L 82,37  L 82,36  L 85,36  L 85,35  L 86,35  L 86,34  L 88,34  L 88,30  L 87,30  L 87,28  L 85,28  L 85,26  L 83,26  L 83,25  L 79,25  L 79,24  L 75,24  L 75,27  L 74,27  L 74,29  L 73,29  L 73,30  L 71,30  L 71,31  Z  " style="fill:rgb(0, 0, 0); fill-opacity:1.000; stroke:none;" />
 <path d="  M 67,136  L 67,135  L 66,135  L 66,136  L 65,136  L 65,135  L 64,135  L 64,136  L 63,136  L 63,135  L 60,135  L 60,136  L 59,136  L 59,135  L 58,135  L 58,136  L 57,136  L 57,135  L 56,135  L 56,136  L 45,136  L 45,137  L 42,137  L 42,136  L 41,136  L 41,137  L 38,137  L 38,136  L 37,136  L 37,137  L 34,137  L 34,138  L 24,138  L 24,137  L 19,137  L 19,136  L 18,136  L 18,137  L 16,137  L 16,138  L 15,138  L 15,140  L 16,140  L 16,141  L 15,141  L 15,143  L 16,143  L 16,145  L 19,145  L 19,146  L 28,146  L 28,145  L 45,145  L 45,144  L 48,144  L 48,145  L 49,145  L 49,144  L 66,144  L 66,145  L 69,145  L 69,146  L 70,146  L 70,147  L 71,147  L 71,154  L 70,154  L 70,155  L 71,155  L 71,156  L 70,156  L 70,160  L 69,160  L 69,162  L 70,162  L 70,164  L 69,164  L 69,172  L 68,172  L 68,178  L 67,178  L 67,181  L 66,181  L 66,186  L 65,186  L 65,190  L 64,190  L 64,191  L 65,191  L 65,193  L 66,193  L 66,195  L 71,195  L 71,193  L 72,193  L 72,188  L 73,188  L 73,186  L 74,186  L 74,183  L 75,183  L 75,181  L 76,181  L 76,180  L 75,180  L 75,178  L 76,178  L 76,173  L 77,173  L 77,172  L 76,172  L 76,171  L 77,171  L 77,166  L 78,166  L 78,159  L 79,159  L 79,153  L 80,153  L 80,152  L 79,152  L 79,151  L 80,151  L 80,147  L 81,147  L 81,146  L 80,146  L 80,145  L 81,145  L 81,144  L 80,144  L 80,143  L 79,143  L 79,142  L 78,142  L 78,140  L 77,140  L 77,139  L 75,139  L 75,138  L 73,138  L 73,137  L 72,137  L 72,136  Z  " style="fill:rgb(0, 0, 0); fill-opacity:1.000; stroke:none;" />
 <path d="  M 29,75  L 29,73  L 30,73  L 30,72  L 31,72  L 31,71  L 32,71  L 32,70  L 33,70  L 33,69  L 34,69  L 34,68  L 35,68  L 35,67  L 36,67  L 36,66  L 38,66  L 38,65  L 40,65  L 40,64  L 41,64  L 41,63  L 43,63  L 43,62  L 47,62  L 47,61  L 54,61  L 54,62  L 58,62  L 58,63  L 60,63  L 60,64  L 61,64  L 61,65  L 62,65  L 62,66  L 63,66  L 63,67  L 64,67  L 64,69  L 65,69  L 65,70  L 66,70  L 66,72  L 67,72  L 67,79  L 66,79  L 66,81  L 65,81  L 65,82  L 64,82  L 64,83  L 63,83  L 63,84  L 62,84  L 62,85  L 60,85  L 60,86  L 58,86  L 58,87  L 56,87  L 56,88  L 51,88  L 51,89  L 50,89  L 50,88  L 49,88  L 49,89  L 46,89  L 46,88  L 40,88  L 40,87  L 38,87  L 38,86  L 35,86  L 35,85  L 33,85  L 33,84  L 31,84  L 31,83  L 30,83  L 30,82  L 29,82  L 29,81  L 28,81  L 28,78  L 27,78  L 27,77  L 28,77  L 28,75  Z  M 53,97  L 53,96  L 55,96  L 55,95  L 57,95  L 57,94  L 60,94  L 60,93  L 62,93  L 62,92  L 63,92  L 63,91  L 65,91  L 65,90  L 67,90  L 67,89  L 68,89  L 68,88  L 70,88  L 70,86  L 71,86  L 71,85  L 72,85  L 72,84  L 73,84  L 73,82  L 74,82  L 74,78  L 75,78  L 75,72  L 74,72  L 74,70  L 73,70  L 73,67  L 72,67  L 72,64  L 71,64  L 71,63  L 70,63  L 70,62  L 69,62  L 69,60  L 68,60  L 68,59  L 67,59  L 67,58  L 64,58  L 64,57  L 63,57  L 63,56  L 61,56  L 61,54  L 58,54  L 58,53  L 57,53  L 57,52  L 56,52  L 56,51  L 54,51  L 54,50  L 52,50  L 52,49  L 51,49  L 51,50  L 47,50  L 47,51  L 46,51  L 46,52  L 44,52  L 44,53  L 43,53  L 43,54  L 41,54  L 41,55  L 38,55  L 38,57  L 35,57  L 35,58  L 34,58  L 34,59  L 33,59  L 33,60  L 30,60  L 30,61  L 29,61  L 29,62  L 28,62  L 28,64  L 26,64  L 26,67  L 25,67  L 25,68  L 24,68  L 24,71  L 23,71  L 23,73  L 22,73  L 22,75  L 21,75  L 21,79  L 20,79  L 20,81  L 21,81  L 21,83  L 22,83  L 22,85  L 23,85  L 23,86  L 24,86  L 24,87  L 25,87  L 25,88  L 26,88  L 26,89  L 28,89  L 28,91  L 31,91  L 31,92  L 33,92  L 33,93  L 34,93  L 34,94  L 36,94  L 36,95  L 38,95  L 38,96  L 43,96  L 43,97  Z  " style="fill:rgb(0, 0, 0); fill-opacity:1.000; stroke:none;" />
 <path d="  M 72,20  L 72,18  L 73,18  L 73,17  L 74,17  L 74,15  L 73,15  L 73,14  L 72,14  L 72,13  L 68,13  L 68,12  L 55,12  L 55,13  L 53,13  L 53,14  L 52,14  L 52,15  L 51,15  L 51,19  L 52,19  L 52,20  L 55,20  L 55,21  L 60,21  L 60,20  L 63,20  L 63,21  L 64,21  L 64,20  Z  " style="fill:rgb(0, 0, 0); fill-opacity:1.000; stroke:none;" />
</svg>
