<?xml version="1.0" encoding="UTF-8" standalone="no"?>
<!DOCTYPE svg PUBLIC "-//W3C//DTD SVG 1.1//EN" 
  "http://www.w3.org/Graphics/SVG/1.1/DTD/svg11.dtd">
<svg width="98" height="204"
     xmlns="http://www.w3.org/2000/svg" version="1.1">
 <path d="  M 22,110  L 22,111  L 19,111  L 19,112  L 16,112  L 16,113  L 15,113  L 15,112  L 13,112  L 13,113  L 1,113  L 1,116  L 0,116  L 0,117  L 1,117  L 1,118  L 2,118  L 2,119  L 4,119  L 4,120  L 6,120  L 6,121  L 13,121  L 13,120  L 14,120  L 14,121  L 15,121  L 15,120  L 18,120  L 18,119  L 24,119  L 24,118  L 25,118  L 25,119  L 26,119  L 26,118  L 27,118  L 27,117  L 33,117  L 33,116  L 42,116  L 42,115  L 60,115  L 60,114  L 61,114  L 61,115  L 62,115  L 62,114  L 65,114  L 65,115  L 66,115  L 66,114  L 69,114  L 69,115  L 70,115  L 70,114  L 73,114  L 73,115  L 74,115  L 74,114  L 77,114  L 77,115  L 78,115  L 78,114  L 81,114  L 81,115  L 82,115  L 82,114  L 85,114  L 85,115  L 86,115  L 86,114  L 89,114  L 89,115  L 90,115  L 90,114  L 91,114  L 91,115  L 92,115  L 92,114  L 94,114  L 94,113  L 95,113  L 95,112  L 96,112  L 96,111  L 97,111  L 97,108  L 98,108  L 98,106  L 96,106  L 96,105  L 95,105  L 95,106  L 46,106  L 46,107  L 43,107  L 43,106  L 42,106  L 42,107  L 39,107  L 39,108  L 33,108  L 33,109  L 26,109  L 26,110  Z  " style="fill:rgb(0, 0, 0); fill-opacity:1.000; stroke:none;" />
 <path d="  M 66,30  L 66,31  L 54,31  L 54,30  L 51,30  L 51,27  L 50,27  L 50,22  L 49,22  L 49,10  L 48,10  L 48,3  L 47,3  L 47,1  L 44,1  L 44,0  L 43,0  L 43,1  L 40,1  L 40,2  L 39,2  L 39,4  L 40,4  L 40,11  L 41,11  L 41,20  L 42,20  L 42,27  L 43,27  L 43,34  L 40,34  L 40,33  L 33,33  L 33,34  L 25,34  L 25,35  L 24,35  L 24,34  L 23,34  L 23,35  L 22,35  L 22,34  L 21,34  L 21,35  L 14,35  L 14,36  L 12,36  L 12,37  L 11,37  L 11,40  L 12,40  L 12,41  L 14,41  L 14,42  L 43,42  L 43,41  L 53,41  L 53,40  L 54,40  L 54,41  L 55,41  L 55,40  L 62,40  L 62,39  L 67,39  L 67,38  L 70,38  L 70,37  L 71,37  L 71,38  L 72,38  L 72,37  L 76,37  L 76,36  L 78,36  L 78,35  L 83,35  L 83,34  L 84,34  L 84,33  L 87,33  L 87,31  L 88,31  L 88,29  L 89,29  L 89,28  L 88,28  L 88,27  L 87,27  L 87,26  L 86,26  L 86,25  L 84,25  L 84,24  L 83,24  L 83,25  L 82,25  L 82,24  L 81,24  L 81,25  L 80,25  L 80,24  L 78,24  L 78,25  L 76,25  L 76,27  L 74,27  L 74,28  L 73,28  L 73,29  L 69,29  L 69,30  Z  " style="fill:rgb(0, 0, 0); fill-opacity:1.000; stroke:none;" />
 <path d="  M 19,182  L 18,182  L 18,189  L 19,189  L 19,191  L 20,191  L 20,194  L 21,194  L 21,195  L 22,195  L 22,196  L 24,196  L 24,197  L 25,197  L 25,198  L 26,198  L 26,199  L 29,199  L 29,200  L 30,200  L 30,201  L 31,201  L 31,202  L 33,202  L 33,201  L 34,201  L 34,202  L 35,202  L 35,203  L 38,203  L 38,204  L 39,204  L 39,203  L 40,203  L 40,204  L 51,204  L 51,200  L 53,200  L 53,199  L 57,199  L 57,198  L 60,198  L 60,197  L 63,197  L 63,196  L 67,196  L 67,195  L 71,195  L 71,194  L 74,194  L 74,193  L 75,193  L 75,192  L 78,192  L 78,191  L 82,191  L 82,190  L 85,190  L 85,189  L 89,189  L 89,188  L 90,188  L 90,187  L 92,187  L 92,186  L 94,186  L 94,185  L 95,185  L 95,183  L 96,183  L 96,182  L 97,182  L 97,180  L 98,180  L 98,176  L 94,176  L 94,177  L 91,177  L 91,178  L 89,178  L 89,179  L 88,179  L 88,180  L 85,180  L 85,181  L 84,181  L 84,180  L 82,180  L 82,181  L 81,181  L 81,182  L 78,182  L 78,183  L 76,183  L 76,184  L 73,184  L 73,185  L 69,185  L 69,186  L 68,186  L 68,187  L 63,187  L 63,188  L 62,188  L 62,187  L 60,187  L 60,188  L 50,188  L 50,189  L 49,189  L 49,188  L 46,188  L 46,189  L 43,189  L 43,188  L 42,188  L 42,189  L 39,189  L 39,188  L 34,188  L 34,187  L 30,187  L 30,186  L 29,186  L 29,184  L 28,184  L 28,182  L 27,182  L 27,173  L 26,173  L 26,171  L 27,171  L 27,170  L 26,170  L 26,151  L 27,151  L 27,150  L 28,150  L 28,149  L 30,149  L 30,150  L 32,150  L 32,151  L 33,151  L 33,150  L 34,150  L 34,151  L 36,151  L 36,150  L 39,150  L 39,151  L 40,151  L 40,150  L 41,150  L 41,151  L 42,151  L 42,150  L 43,150  L 43,151  L 44,151  L 44,150  L 49,150  L 49,149  L 57,149  L 57,147  L 60,147  L 60,146  L 63,146  L 63,145  L 65,145  L 65,144  L 67,144  L 67,143  L 68,143  L 68,142  L 71,142  L 71,141  L 74,141  L 74,140  L 76,140  L 76,139  L 78,139  L 78,138  L 80,138  L 80,137  L 83,137  L 83,136  L 85,136  L 85,135  L 86,135  L 86,131  L 85,131  L 85,129  L 81,129  L 81,130  L 78,130  L 78,131  L 75,131  L 75,132  L 72,132  L 72,133  L 70,133  L 70,134  L 66,134  L 66,135  L 64,135  L 64,136  L 61,136  L 61,137  L 57,137  L 57,138  L 50,138  L 50,139  L 47,139  L 47,140  L 44,140  L 44,141  L 43,141  L 43,140  L 41,140  L 41,141  L 27,141  L 27,140  L 26,140  L 26,141  L 23,141  L 23,140  L 22,140  L 22,141  L 18,141  L 18,142  L 17,142  L 17,149  L 18,149  L 18,167  L 19,167  L 19,168  L 18,168  L 18,171  L 19,171  L 19,174  L 18,174  L 18,175  L 19,175  L 19,178  L 18,178  L 18,179  L 19,179  L 19,180  L 18,180  L 18,181  L 19,181  Z  " style="fill:rgb(0, 0, 0); fill-opacity:1.000; stroke:none;" />
 <path d="  M 29,75  L 29,73  L 30,73  L 30,72  L 31,72  L 31,70  L 32,70  L 32,69  L 33,69  L 33,68  L 35,68  L 35,67  L 36,67  L 36,66  L 37,66  L 37,65  L 38,65  L 38,64  L 40,64  L 40,63  L 42,63  L 42,62  L 44,62  L 44,61  L 47,61  L 47,60  L 55,60  L 55,61  L 57,61  L 57,62  L 60,62  L 60,63  L 61,63  L 61,64  L 62,64  L 62,65  L 63,65  L 63,67  L 64,67  L 64,69  L 65,69  L 65,71  L 66,71  L 66,72  L 65,72  L 65,79  L 64,79  L 64,80  L 63,80  L 63,81  L 62,81  L 62,82  L 61,82  L 61,83  L 60,83  L 60,84  L 58,84  L 58,85  L 57,85  L 57,86  L 54,86  L 54,87  L 51,87  L 51,86  L 50,86  L 50,87  L 43,87  L 43,86  L 38,86  L 38,85  L 35,85  L 35,84  L 33,84  L 33,83  L 32,83  L 32,82  L 30,82  L 30,80  L 29,80  L 29,78  L 28,78  L 28,75  Z  M 70,61  L 69,61  L 69,59  L 68,59  L 68,58  L 67,58  L 67,57  L 66,57  L 66,56  L 65,56  L 65,55  L 64,55  L 64,54  L 63,54  L 63,53  L 62,53  L 62,52  L 61,52  L 61,51  L 59,51  L 59,50  L 56,50  L 56,49  L 54,49  L 54,48  L 49,48  L 49,49  L 47,49  L 47,50  L 45,50  L 45,51  L 44,51  L 44,52  L 43,52  L 43,54  L 41,54  L 41,55  L 39,55  L 39,56  L 37,56  L 37,57  L 35,57  L 35,58  L 34,58  L 34,59  L 32,59  L 32,60  L 31,60  L 31,61  L 30,61  L 30,62  L 29,62  L 29,63  L 28,63  L 28,64  L 27,64  L 27,66  L 26,66  L 26,68  L 25,68  L 25,70  L 24,70  L 24,72  L 23,72  L 23,75  L 22,75  L 22,78  L 21,78  L 21,79  L 22,79  L 22,83  L 23,83  L 23,84  L 25,84  L 25,86  L 26,86  L 26,87  L 27,87  L 27,88  L 29,88  L 29,89  L 30,89  L 30,90  L 31,90  L 31,91  L 33,91  L 33,92  L 34,92  L 34,93  L 37,93  L 37,94  L 40,94  L 40,95  L 55,95  L 55,94  L 56,94  L 56,93  L 58,93  L 58,92  L 60,92  L 60,91  L 62,91  L 62,90  L 63,90  L 63,89  L 65,89  L 65,88  L 67,88  L 67,87  L 68,87  L 68,86  L 69,86  L 69,85  L 70,85  L 70,84  L 71,84  L 71,82  L 72,82  L 72,79  L 73,79  L 73,74  L 74,74  L 74,73  L 73,73  L 73,68  L 72,68  L 72,65  L 71,65  L 71,63  L 70,63  Z  " style="fill:rgb(0, 0, 0); fill-opacity:1.000; stroke:none;" />
 <path d="  M 54,11  L 54,12  L 53,12  L 53,13  L 52,13  L 52,14  L 51,14  L 51,15  L 52,15  L 52,16  L 51,16  L 51,17  L 52,17  L 52,18  L 53,18  L 53,19  L 65,19  L 65,18  L 69,18  L 69,17  L 71,17  L 71,16  L 72,16  L 72,15  L 73,15  L 73,13  L 72,13  L 72,12  L 69,12  L 69,11  Z  " style="fill:rgb(0, 0, 0); fill-opacity:1.000; stroke:none;" />
</svg>
