<?xml version="1.0" encoding="UTF-8" standalone="no"?>
<!DOCTYPE svg PUBLIC "-//W3C//DTD SVG 1.1//EN" 
  "http://www.w3.org/Graphics/SVG/1.1/DTD/svg11.dtd">
<svg width="102" height="213"
     xmlns="http://www.w3.org/2000/svg" version="1.1">
 <path d="  M 22,110  L 22,111  L 19,111  L 19,112  L 18,112  L 18,111  L 17,111  L 17,112  L 9,112  L 9,113  L 7,113  L 7,112  L 4,112  L 4,113  L 3,113  L 3,112  L 2,112  L 2,113  L 1,113  L 1,116  L 0,116  L 0,118  L 1,118  L 1,120  L 3,120  L 3,121  L 4,121  L 4,122  L 8,122  L 8,123  L 12,123  L 12,122  L 17,122  L 17,121  L 20,121  L 20,120  L 24,120  L 24,119  L 28,119  L 28,118  L 33,118  L 33,117  L 38,117  L 38,116  L 44,116  L 44,115  L 45,115  L 45,116  L 46,116  L 46,115  L 66,115  L 66,114  L 67,114  L 67,115  L 71,115  L 71,114  L 72,114  L 72,115  L 74,115  L 74,114  L 75,114  L 75,115  L 79,115  L 79,114  L 82,114  L 82,115  L 83,115  L 83,114  L 86,114  L 86,115  L 87,115  L 87,114  L 90,114  L 90,115  L 91,115  L 91,114  L 98,114  L 98,113  L 101,113  L 101,112  L 102,112  L 102,105  L 101,105  L 101,104  L 96,104  L 96,105  L 89,105  L 89,106  L 86,106  L 86,105  L 85,105  L 85,106  L 82,106  L 82,105  L 81,105  L 81,106  L 73,106  L 73,107  L 72,107  L 72,106  L 69,106  L 69,107  L 68,107  L 68,106  L 65,106  L 65,107  L 64,107  L 64,106  L 61,106  L 61,107  L 60,107  L 60,106  L 57,106  L 57,107  L 56,107  L 56,106  L 49,106  L 49,107  L 45,107  L 45,108  L 36,108  L 36,109  L 35,109  L 35,108  L 34,108  L 34,109  L 29,109  L 29,110  L 26,110  L 26,109  L 25,109  L 25,110  Z  " style="fill:rgb(0, 0, 0); fill-opacity:1.000; stroke:none;" />
 <path d="  M 82,27  L 82,26  L 78,26  L 78,28  L 77,28  L 77,29  L 76,29  L 76,30  L 72,30  L 72,31  L 60,31  L 60,32  L 55,32  L 55,31  L 54,31  L 54,30  L 53,30  L 53,28  L 52,28  L 52,24  L 51,24  L 51,23  L 52,23  L 52,21  L 51,21  L 51,18  L 52,18  L 52,17  L 51,17  L 51,14  L 50,14  L 50,2  L 49,2  L 49,1  L 47,1  L 47,0  L 44,0  L 44,1  L 42,1  L 42,11  L 43,11  L 43,22  L 44,22  L 44,23  L 43,23  L 43,24  L 44,24  L 44,29  L 45,29  L 45,31  L 46,31  L 46,33  L 45,33  L 45,34  L 42,34  L 42,33  L 38,33  L 38,32  L 37,32  L 37,31  L 36,31  L 36,32  L 35,32  L 35,31  L 34,31  L 34,32  L 30,32  L 30,33  L 26,33  L 26,34  L 25,34  L 25,33  L 24,33  L 24,34  L 21,34  L 21,35  L 16,35  L 16,36  L 15,36  L 15,37  L 14,37  L 14,39  L 13,39  L 13,40  L 14,40  L 14,41  L 15,41  L 15,42  L 28,42  L 28,41  L 29,41  L 29,42  L 30,42  L 30,41  L 51,41  L 51,40  L 52,40  L 52,41  L 53,41  L 53,40  L 54,40  L 54,41  L 55,41  L 55,40  L 64,40  L 64,39  L 65,39  L 65,40  L 66,40  L 66,39  L 70,39  L 70,38  L 71,38  L 71,39  L 72,39  L 72,38  L 74,38  L 74,37  L 75,37  L 75,38  L 76,38  L 76,37  L 79,37  L 79,36  L 80,36  L 80,35  L 81,35  L 81,34  L 83,34  L 83,33  L 84,33  L 84,28  L 83,28  L 83,27  Z  " style="fill:rgb(0, 0, 0); fill-opacity:1.000; stroke:none;" />
 <path d="  M 69,211  L 69,207  L 71,207  L 71,206  L 72,206  L 72,205  L 73,205  L 73,204  L 74,204  L 74,203  L 77,203  L 77,202  L 79,202  L 79,201  L 82,201  L 82,200  L 83,200  L 83,199  L 85,199  L 85,198  L 87,198  L 87,196  L 88,196  L 88,195  L 89,195  L 89,194  L 90,194  L 90,193  L 91,193  L 91,188  L 90,188  L 90,185  L 91,185  L 91,183  L 90,183  L 90,169  L 89,169  L 89,167  L 90,167  L 90,166  L 89,166  L 89,159  L 90,159  L 90,154  L 91,154  L 91,146  L 92,146  L 92,145  L 91,145  L 91,142  L 92,142  L 92,141  L 91,141  L 91,131  L 90,131  L 90,126  L 89,126  L 89,124  L 88,124  L 88,123  L 84,123  L 84,125  L 83,125  L 83,140  L 84,140  L 84,141  L 85,141  L 85,147  L 84,147  L 84,149  L 80,149  L 80,150  L 77,150  L 77,151  L 71,151  L 71,152  L 70,152  L 70,151  L 69,151  L 69,152  L 39,152  L 39,151  L 36,151  L 36,150  L 30,150  L 30,149  L 29,149  L 29,148  L 26,148  L 26,147  L 25,147  L 25,146  L 24,146  L 24,145  L 23,145  L 23,143  L 22,143  L 22,138  L 23,138  L 23,137  L 24,137  L 24,134  L 23,134  L 23,133  L 24,133  L 24,132  L 23,132  L 23,130  L 19,130  L 19,133  L 18,133  L 18,141  L 17,141  L 17,142  L 18,142  L 18,155  L 19,155  L 19,156  L 18,156  L 18,157  L 19,157  L 19,160  L 18,160  L 18,161  L 19,161  L 19,177  L 20,177  L 20,178  L 19,178  L 19,181  L 20,181  L 20,183  L 19,183  L 19,184  L 20,184  L 20,186  L 19,186  L 19,188  L 20,188  L 20,197  L 21,197  L 21,199  L 22,199  L 22,202  L 23,202  L 23,205  L 24,205  L 24,206  L 25,206  L 25,207  L 26,207  L 26,208  L 27,208  L 27,209  L 26,209  L 26,210  L 27,210  L 27,211  L 28,211  L 28,212  L 31,212  L 31,213  L 62,213  L 62,212  L 68,212  L 68,211  Z  M 30,191  L 30,190  L 29,190  L 29,185  L 28,185  L 28,183  L 27,183  L 27,182  L 28,182  L 28,181  L 27,181  L 27,178  L 28,178  L 28,177  L 27,177  L 27,174  L 28,174  L 28,173  L 27,173  L 27,171  L 28,171  L 28,169  L 27,169  L 27,167  L 28,167  L 28,165  L 27,165  L 27,164  L 28,164  L 28,162  L 27,162  L 27,159  L 28,159  L 28,156  L 31,156  L 31,157  L 34,157  L 34,158  L 38,158  L 38,159  L 42,159  L 42,160  L 70,160  L 70,159  L 74,159  L 74,158  L 81,158  L 81,162  L 82,162  L 82,163  L 81,163  L 81,167  L 82,167  L 82,176  L 83,176  L 83,181  L 84,181  L 84,185  L 83,185  L 83,187  L 81,187  L 81,188  L 80,188  L 80,189  L 78,189  L 78,190  L 75,190  L 75,191  L 73,191  L 73,192  L 72,192  L 72,193  L 71,193  L 71,194  L 67,194  L 67,195  L 63,195  L 63,196  L 62,196  L 62,197  L 60,197  L 60,198  L 59,198  L 59,199  L 57,199  L 57,198  L 56,198  L 56,199  L 51,199  L 51,200  L 50,200  L 50,199  L 49,199  L 49,200  L 46,200  L 46,199  L 45,199  L 45,200  L 42,200  L 42,199  L 41,199  L 41,200  L 40,200  L 40,199  L 38,199  L 38,197  L 37,197  L 37,196  L 38,196  L 38,195  L 34,195  L 34,194  L 33,194  L 33,193  L 32,193  L 32,191  Z  M 55,200  L 56,200  L 56,201  L 55,201  Z  M 51,209  L 51,210  L 50,210  L 50,209  L 47,209  L 47,208  L 46,208  L 46,207  L 45,207  L 45,206  L 50,206  L 50,205  L 55,205  L 55,206  L 56,206  L 56,207  L 57,207  L 57,209  L 56,209  L 56,210  L 54,210  L 54,209  Z  M 58,207  L 57,207  L 57,206  L 58,206  Z  " style="fill:rgb(0, 0, 0); fill-opacity:1.000; stroke:none;" />
 <path d="  M 38,83  L 35,83  L 35,82  L 33,82  L 33,81  L 31,81  L 31,80  L 30,80  L 30,78  L 29,78  L 29,77  L 30,77  L 30,75  L 31,75  L 31,73  L 32,73  L 32,71  L 33,71  L 33,70  L 35,70  L 35,69  L 36,69  L 36,68  L 37,68  L 37,67  L 39,67  L 39,66  L 40,66  L 40,65  L 42,65  L 42,64  L 44,64  L 44,63  L 47,63  L 47,62  L 50,62  L 50,61  L 56,61  L 56,62  L 59,62  L 59,63  L 61,63  L 61,64  L 63,64  L 63,65  L 64,65  L 64,66  L 65,66  L 65,70  L 66,70  L 66,71  L 65,71  L 65,74  L 66,74  L 66,81  L 65,81  L 65,82  L 63,82  L 63,83  L 62,83  L 62,84  L 60,84  L 60,85  L 56,85  L 56,86  L 44,86  L 44,85  L 41,85  L 41,84  L 38,84  Z  M 35,91  L 35,92  L 38,92  L 38,93  L 41,93  L 41,94  L 42,94  L 42,95  L 48,95  L 48,96  L 49,96  L 49,95  L 50,95  L 50,96  L 52,96  L 52,95  L 54,95  L 54,94  L 57,94  L 57,93  L 58,93  L 58,92  L 60,92  L 60,91  L 61,91  L 61,90  L 63,90  L 63,89  L 65,89  L 65,88  L 66,88  L 66,87  L 69,87  L 69,86  L 71,86  L 71,85  L 72,85  L 72,84  L 73,84  L 73,79  L 74,79  L 74,64  L 73,64  L 73,61  L 72,61  L 72,60  L 69,60  L 69,59  L 68,59  L 68,58  L 67,58  L 67,57  L 66,57  L 66,56  L 65,56  L 65,55  L 64,55  L 64,54  L 62,54  L 62,53  L 58,53  L 58,52  L 50,52  L 50,53  L 46,53  L 46,54  L 44,54  L 44,55  L 42,55  L 42,56  L 41,56  L 41,57  L 39,57  L 39,58  L 37,58  L 37,59  L 36,59  L 36,60  L 34,60  L 34,61  L 33,61  L 33,62  L 32,62  L 32,63  L 31,63  L 31,64  L 30,64  L 30,65  L 29,65  L 29,66  L 28,66  L 28,68  L 27,68  L 27,69  L 26,69  L 26,72  L 25,72  L 25,74  L 24,74  L 24,83  L 25,83  L 25,84  L 26,84  L 26,85  L 27,85  L 27,86  L 28,86  L 28,87  L 29,87  L 29,88  L 30,88  L 30,89  L 31,89  L 31,90  L 33,90  L 33,91  Z  " style="fill:rgb(0, 0, 0); fill-opacity:1.000; stroke:none;" />
 <path d="  M 73,19  L 73,18  L 75,18  L 75,17  L 76,17  L 76,16  L 75,16  L 75,15  L 74,15  L 74,14  L 71,14  L 71,13  L 70,13  L 70,14  L 69,14  L 69,13  L 68,13  L 68,14  L 67,14  L 67,13  L 66,13  L 66,14  L 65,14  L 65,13  L 64,13  L 64,14  L 57,14  L 57,15  L 56,15  L 56,20  L 57,20  L 57,21  L 59,21  L 59,22  L 64,22  L 64,21  L 68,21  L 68,20  L 70,20  L 70,19  Z  " style="fill:rgb(0, 0, 0); fill-opacity:1.000; stroke:none;" />
 <path d="  M 62,195  L 61,195  L 61,196  L 62,196  Z  " style="fill:rgb(0, 0, 0); fill-opacity:1.000; stroke:none;" />
</svg>
