<?xml version="1.0" encoding="UTF-8" standalone="no"?>
<!DOCTYPE svg PUBLIC "-//W3C//DTD SVG 1.1//EN" 
  "http://www.w3.org/Graphics/SVG/1.1/DTD/svg11.dtd">
<svg width="102" height="140"
     xmlns="http://www.w3.org/2000/svg" version="1.1">
 <path d="  M 9,116  L 9,117  L 7,117  L 7,116  L 5,116  L 5,117  L 1,117  L 1,120  L 0,120  L 0,121  L 1,121  L 1,122  L 4,122  L 4,123  L 18,123  L 18,122  L 25,122  L 25,121  L 31,121  L 31,120  L 32,120  L 32,121  L 33,121  L 33,120  L 37,120  L 37,119  L 42,119  L 42,118  L 46,118  L 46,117  L 50,117  L 50,116  L 53,116  L 53,115  L 58,115  L 58,114  L 62,114  L 62,113  L 67,113  L 67,112  L 71,112  L 71,111  L 75,111  L 75,110  L 78,110  L 78,109  L 83,109  L 83,108  L 85,108  L 85,107  L 87,107  L 87,105  L 88,105  L 88,104  L 87,104  L 87,103  L 85,103  L 85,102  L 79,102  L 79,103  L 76,103  L 76,104  L 72,104  L 72,105  L 70,105  L 70,106  L 66,106  L 66,107  L 63,107  L 63,108  L 58,108  L 58,109  L 54,109  L 54,110  L 50,110  L 50,111  L 46,111  L 46,112  L 42,112  L 42,113  L 37,113  L 37,114  L 30,114  L 30,115  L 29,115  L 29,114  L 28,114  L 28,115  L 27,115  L 27,114  L 26,114  L 26,115  L 19,115  L 19,116  Z  " style="fill:rgb(0, 0, 0); fill-opacity:1.000; stroke:none;" />
 <path d="  M 22,34  L 22,35  L 19,35  L 19,34  L 18,34  L 18,35  L 17,35  L 17,36  L 13,36  L 13,37  L 9,37  L 9,38  L 5,38  L 5,40  L 4,40  L 4,42  L 3,42  L 3,43  L 4,43  L 4,45  L 8,45  L 8,44  L 14,44  L 14,43  L 20,43  L 20,42  L 21,42  L 21,43  L 22,43  L 22,42  L 23,42  L 23,43  L 24,43  L 24,42  L 31,42  L 31,43  L 32,43  L 32,42  L 38,42  L 38,41  L 40,41  L 40,42  L 42,42  L 42,41  L 53,41  L 53,42  L 57,42  L 57,43  L 62,43  L 62,44  L 64,44  L 64,45  L 66,45  L 66,46  L 69,46  L 69,45  L 71,45  L 71,43  L 70,43  L 70,41  L 68,41  L 68,40  L 67,40  L 67,39  L 65,39  L 65,38  L 63,38  L 63,37  L 62,37  L 62,36  L 61,36  L 61,35  L 60,35  L 60,36  L 59,36  L 59,35  L 57,35  L 57,34  L 51,34  L 51,33  L 41,33  L 41,34  L 40,34  L 40,33  L 37,33  L 37,34  Z  " style="fill:rgb(0, 0, 0); fill-opacity:1.000; stroke:none;" />
 <path d="  M 19,92  L 20,92  L 20,94  L 21,94  L 21,95  L 22,95  L 22,96  L 24,96  L 24,97  L 26,97  L 26,98  L 29,98  L 29,99  L 38,99  L 38,98  L 39,98  L 39,97  L 42,97  L 42,96  L 45,96  L 45,95  L 47,95  L 47,94  L 49,94  L 49,93  L 51,93  L 51,92  L 52,92  L 52,91  L 54,91  L 54,90  L 55,90  L 55,89  L 56,89  L 56,88  L 57,88  L 57,87  L 59,87  L 59,86  L 60,86  L 60,84  L 62,84  L 62,83  L 63,83  L 63,81  L 64,81  L 64,80  L 65,80  L 65,78  L 66,78  L 66,76  L 67,76  L 67,70  L 68,70  L 68,63  L 67,63  L 67,62  L 66,62  L 66,60  L 65,60  L 65,58  L 64,58  L 64,57  L 62,57  L 62,56  L 61,56  L 61,55  L 59,55  L 59,54  L 58,54  L 58,53  L 53,53  L 53,52  L 48,52  L 48,51  L 44,51  L 44,50  L 33,50  L 33,51  L 31,51  L 31,52  L 29,52  L 29,54  L 28,54  L 28,55  L 27,55  L 27,58  L 26,58  L 26,60  L 25,60  L 25,62  L 24,62  L 24,63  L 23,63  L 23,64  L 22,64  L 22,65  L 21,65  L 21,69  L 20,69  L 20,71  L 19,71  L 19,72  L 18,72  L 18,76  L 17,76  L 17,81  L 16,81  L 16,88  L 17,88  L 17,90  L 18,90  L 18,91  L 19,91  Z  M 42,89  L 42,90  L 41,90  L 41,91  L 36,91  L 36,92  L 32,92  L 32,91  L 30,91  L 30,90  L 27,90  L 27,89  L 25,89  L 25,88  L 24,88  L 24,87  L 23,87  L 23,80  L 24,80  L 24,79  L 25,79  L 25,78  L 24,78  L 24,77  L 25,77  L 25,73  L 26,73  L 26,71  L 27,71  L 27,69  L 28,69  L 28,67  L 29,67  L 29,65  L 30,65  L 30,63  L 31,63  L 31,62  L 32,62  L 32,61  L 33,61  L 33,60  L 34,60  L 34,59  L 36,59  L 36,58  L 38,58  L 38,57  L 48,57  L 48,58  L 52,58  L 52,59  L 55,59  L 55,60  L 57,60  L 57,61  L 59,61  L 59,62  L 60,62  L 60,63  L 61,63  L 61,69  L 60,69  L 60,72  L 59,72  L 59,75  L 58,75  L 58,77  L 57,77  L 57,79  L 56,79  L 56,80  L 55,80  L 55,81  L 54,81  L 54,82  L 53,82  L 53,83  L 52,83  L 52,84  L 51,84  L 51,85  L 50,85  L 50,86  L 48,86  L 48,87  L 47,87  L 47,88  L 44,88  L 44,89  Z  " style="fill:rgb(0, 0, 0); fill-opacity:1.000; stroke:none;" />
 <path d="  M 44,24  L 43,24  L 43,14  L 42,14  L 42,4  L 41,4  L 41,2  L 39,2  L 39,1  L 34,1  L 34,2  L 33,2  L 33,8  L 34,8  L 34,19  L 35,19  L 35,22  L 36,22  L 36,25  L 37,25  L 37,28  L 38,28  L 38,29  L 44,29  Z  " style="fill:rgb(0, 0, 0); fill-opacity:1.000; stroke:none;" />
 <path d="  M 96,136  L 95,136  L 95,137  L 96,137  L 96,140  L 101,140  L 101,139  L 102,139  L 102,38  L 101,38  L 101,37  L 102,37  L 102,36  L 101,36  L 101,28  L 100,28  L 100,23  L 99,23  L 99,14  L 98,14  L 98,13  L 97,13  L 97,12  L 93,12  L 93,13  L 92,13  L 92,21  L 93,21  L 93,27  L 94,27  L 94,33  L 95,33  L 95,46  L 96,46  L 96,47  L 95,47  L 95,50  L 96,50  Z  " style="fill:rgb(0, 0, 0); fill-opacity:1.000; stroke:none;" />
</svg>
