<?xml version="1.0" encoding="UTF-8" standalone="no"?>
<!DOCTYPE svg PUBLIC "-//W3C//DTD SVG 1.1//EN" 
  "http://www.w3.org/Graphics/SVG/1.1/DTD/svg11.dtd">
<svg width="104" height="178"
     xmlns="http://www.w3.org/2000/svg" version="1.1">
 <path d="  M 80,92  L 80,93  L 72,93  L 72,94  L 68,94  L 68,95  L 58,95  L 58,96  L 57,96  L 57,95  L 56,95  L 56,96  L 47,96  L 47,97  L 46,97  L 46,96  L 45,96  L 45,97  L 44,97  L 44,96  L 43,96  L 43,97  L 30,97  L 30,98  L 29,98  L 29,97  L 28,97  L 28,98  L 24,98  L 24,99  L 23,99  L 23,98  L 22,98  L 22,99  L 16,99  L 16,100  L 11,100  L 11,101  L 10,101  L 10,100  L 9,100  L 9,101  L 0,101  L 0,102  L 1,102  L 1,103  L 0,103  L 0,106  L 1,106  L 1,107  L 2,107  L 2,108  L 11,108  L 11,107  L 16,107  L 16,106  L 28,106  L 28,105  L 36,105  L 36,104  L 49,104  L 49,103  L 57,103  L 57,102  L 65,102  L 65,101  L 66,101  L 66,102  L 68,102  L 68,101  L 75,101  L 75,100  L 85,100  L 85,99  L 86,99  L 86,98  L 87,98  L 87,96  L 88,96  L 88,93  L 87,93  L 87,92  Z  " style="fill:rgb(0, 0, 0); fill-opacity:1.000; stroke:none;" />
 <path d="  M 46,26  L 46,27  L 40,27  L 40,21  L 39,21  L 39,20  L 40,20  L 40,19  L 39,19  L 39,9  L 38,9  L 38,6  L 37,6  L 37,2  L 36,2  L 36,1  L 35,1  L 35,0  L 33,0  L 33,1  L 31,1  L 31,2  L 30,2  L 30,3  L 29,3  L 29,5  L 28,5  L 28,6  L 29,6  L 29,9  L 30,9  L 30,12  L 31,12  L 31,15  L 32,15  L 32,18  L 33,18  L 33,19  L 32,19  L 32,20  L 33,20  L 33,21  L 32,21  L 32,22  L 33,22  L 33,24  L 34,24  L 34,27  L 31,27  L 31,28  L 23,28  L 23,29  L 16,29  L 16,30  L 12,30  L 12,31  L 8,31  L 8,32  L 5,32  L 5,33  L 4,33  L 4,34  L 3,34  L 3,37  L 4,37  L 4,38  L 11,38  L 11,37  L 15,37  L 15,36  L 23,36  L 23,35  L 24,35  L 24,36  L 25,36  L 25,35  L 26,35  L 26,36  L 27,36  L 27,35  L 28,35  L 28,36  L 29,36  L 29,35  L 46,35  L 46,34  L 56,34  L 56,33  L 59,33  L 59,34  L 60,34  L 60,33  L 69,33  L 69,32  L 70,32  L 70,33  L 71,33  L 71,32  L 75,32  L 75,31  L 76,31  L 76,29  L 77,29  L 77,25  L 63,25  L 63,26  Z  " style="fill:rgb(0, 0, 0); fill-opacity:1.000; stroke:none;" />
 <path d="  M 41,86  L 41,87  L 44,87  L 44,86  L 45,86  L 45,85  L 48,85  L 48,84  L 51,84  L 51,83  L 52,83  L 52,82  L 54,82  L 54,81  L 55,81  L 55,80  L 57,80  L 57,79  L 58,79  L 58,78  L 60,78  L 60,77  L 61,77  L 61,76  L 62,76  L 62,75  L 63,75  L 63,74  L 64,74  L 64,73  L 65,73  L 65,71  L 66,71  L 66,70  L 67,70  L 67,69  L 66,69  L 66,67  L 67,67  L 67,65  L 66,65  L 66,58  L 65,58  L 65,57  L 64,57  L 64,54  L 63,54  L 63,53  L 62,53  L 62,52  L 61,52  L 61,51  L 60,51  L 60,50  L 58,50  L 58,49  L 57,49  L 57,48  L 55,48  L 55,47  L 53,47  L 53,46  L 51,46  L 51,45  L 50,45  L 50,44  L 47,44  L 47,43  L 33,43  L 33,44  L 31,44  L 31,45  L 29,45  L 29,46  L 28,46  L 28,47  L 27,47  L 27,48  L 26,48  L 26,49  L 25,49  L 25,50  L 24,50  L 24,51  L 23,51  L 23,52  L 22,52  L 22,53  L 20,53  L 20,54  L 19,54  L 19,55  L 18,55  L 18,57  L 17,57  L 17,59  L 16,59  L 16,60  L 15,60  L 15,62  L 14,62  L 14,67  L 13,67  L 13,69  L 14,69  L 14,72  L 15,72  L 15,74  L 16,74  L 16,75  L 17,75  L 17,77  L 19,77  L 19,78  L 21,78  L 21,79  L 22,79  L 22,80  L 23,80  L 23,81  L 26,81  L 26,82  L 28,82  L 28,83  L 31,83  L 31,84  L 35,84  L 35,85  L 38,85  L 38,86  Z  M 50,52  L 50,53  L 51,53  L 51,54  L 53,54  L 53,55  L 54,55  L 54,56  L 55,56  L 55,57  L 57,57  L 57,58  L 58,58  L 58,60  L 59,60  L 59,61  L 60,61  L 60,64  L 59,64  L 59,68  L 58,68  L 58,71  L 57,71  L 57,72  L 55,72  L 55,73  L 54,73  L 54,74  L 52,74  L 52,75  L 50,75  L 50,76  L 48,76  L 48,77  L 44,77  L 44,78  L 38,78  L 38,77  L 32,77  L 32,76  L 29,76  L 29,75  L 26,75  L 26,74  L 24,74  L 24,73  L 23,73  L 23,71  L 22,71  L 22,69  L 21,69  L 21,67  L 22,67  L 22,63  L 23,63  L 23,61  L 24,61  L 24,59  L 25,59  L 25,58  L 26,58  L 26,57  L 27,57  L 27,56  L 28,56  L 28,55  L 29,55  L 29,54  L 31,54  L 31,53  L 32,53  L 32,52  L 33,52  L 33,51  L 37,51  L 37,50  L 45,50  L 45,51  L 48,51  L 48,52  Z  " style="fill:rgb(0, 0, 0); fill-opacity:1.000; stroke:none;" />
 <path d="  M 86,163  L 84,163  L 84,164  L 82,164  L 82,165  L 79,165  L 79,166  L 76,166  L 76,167  L 71,167  L 71,168  L 67,168  L 67,169  L 62,169  L 62,170  L 61,170  L 61,169  L 59,169  L 59,170  L 57,170  L 57,169  L 55,169  L 55,170  L 53,170  L 53,169  L 46,169  L 46,168  L 45,168  L 45,166  L 44,166  L 44,162  L 43,162  L 43,161  L 44,161  L 44,160  L 43,160  L 43,146  L 44,146  L 44,145  L 51,145  L 51,144  L 52,144  L 52,145  L 53,145  L 53,144  L 54,144  L 54,145  L 55,145  L 55,144  L 56,144  L 56,145  L 57,145  L 57,144  L 58,144  L 58,145  L 59,145  L 59,144  L 60,144  L 60,145  L 61,145  L 61,144  L 64,144  L 64,145  L 65,145  L 65,144  L 68,144  L 68,145  L 69,145  L 69,144  L 72,144  L 72,145  L 73,145  L 73,144  L 76,144  L 76,145  L 77,145  L 77,144  L 80,144  L 80,145  L 81,145  L 81,144  L 84,144  L 84,145  L 85,145  L 85,144  L 88,144  L 88,145  L 89,145  L 89,144  L 90,144  L 90,145  L 92,145  L 92,153  L 91,153  L 91,156  L 90,156  L 90,160  L 89,160  L 89,161  L 88,161  L 88,162  L 86,162  Z  M 95,137  L 88,137  L 88,136  L 87,136  L 87,137  L 84,137  L 84,136  L 83,136  L 83,137  L 81,137  L 81,136  L 79,136  L 79,137  L 77,137  L 77,136  L 75,136  L 75,137  L 73,137  L 73,136  L 71,136  L 71,137  L 69,137  L 69,136  L 67,136  L 67,137  L 65,137  L 65,136  L 63,136  L 63,137  L 60,137  L 60,136  L 59,136  L 59,137  L 42,137  L 42,135  L 43,135  L 43,122  L 44,122  L 44,119  L 43,119  L 43,117  L 42,117  L 42,116  L 40,116  L 40,117  L 38,117  L 38,118  L 37,118  L 37,119  L 36,119  L 36,121  L 35,121  L 35,136  L 34,136  L 34,137  L 35,137  L 35,138  L 34,138  L 34,142  L 35,142  L 35,143  L 34,143  L 34,144  L 35,144  L 35,152  L 36,152  L 36,162  L 37,162  L 37,168  L 38,168  L 38,172  L 39,172  L 39,174  L 40,174  L 40,175  L 41,175  L 41,176  L 42,176  L 42,177  L 46,177  L 46,178  L 58,178  L 58,177  L 59,177  L 59,178  L 60,178  L 60,177  L 68,177  L 68,176  L 72,176  L 72,175  L 76,175  L 76,174  L 80,174  L 80,173  L 84,173  L 84,172  L 88,172  L 88,170  L 89,170  L 89,168  L 92,168  L 92,167  L 93,167  L 93,165  L 96,165  L 96,164  L 97,164  L 97,162  L 98,162  L 98,158  L 99,158  L 99,157  L 98,157  L 98,156  L 99,156  L 99,152  L 100,152  L 100,145  L 101,145  L 101,137  L 102,137  L 102,136  L 101,136  L 101,129  L 102,129  L 102,122  L 101,122  L 101,117  L 97,117  L 97,119  L 96,119  L 96,121  L 95,121  L 95,122  L 96,122  L 96,125  L 95,125  L 95,126  L 96,126  L 96,127  L 95,127  L 95,128  L 96,128  L 96,129  L 95,129  L 95,134  L 96,134  L 96,135  L 95,135  Z  " style="fill:rgb(0, 0, 0); fill-opacity:1.000; stroke:none;" />
 <path d="  M 98,110  L 99,110  L 99,111  L 104,111  L 104,49  L 103,49  L 103,48  L 104,48  L 104,47  L 103,47  L 103,41  L 102,41  L 102,35  L 101,35  L 101,29  L 100,29  L 100,25  L 99,25  L 99,21  L 98,21  L 98,16  L 97,16  L 97,14  L 95,14  L 95,13  L 94,13  L 94,14  L 92,14  L 92,17  L 91,17  L 91,22  L 92,22  L 92,25  L 93,25  L 93,29  L 94,29  L 94,32  L 95,32  L 95,38  L 96,38  L 96,44  L 97,44  L 97,59  L 98,59  L 98,60  L 97,60  L 97,61  L 98,61  Z  " style="fill:rgb(0, 0, 0); fill-opacity:1.000; stroke:none;" />
</svg>
