<?xml version="1.0" encoding="UTF-8" standalone="no"?>
<!DOCTYPE svg PUBLIC "-//W3C//DTD SVG 1.1//EN" 
  "http://www.w3.org/Graphics/SVG/1.1/DTD/svg11.dtd">
<svg width="102" height="172"
     xmlns="http://www.w3.org/2000/svg" version="1.1">
 <path d="  M 46,103  L 46,102  L 49,102  L 49,103  L 50,103  L 50,102  L 55,102  L 55,101  L 65,101  L 65,100  L 66,100  L 66,101  L 67,101  L 67,100  L 80,100  L 80,101  L 82,101  L 82,100  L 83,100  L 83,99  L 84,99  L 84,97  L 85,97  L 85,93  L 83,93  L 83,92  L 75,92  L 75,93  L 65,93  L 65,94  L 54,94  L 54,95  L 51,95  L 51,94  L 50,94  L 50,95  L 42,95  L 42,96  L 32,96  L 32,97  L 31,97  L 31,96  L 30,96  L 30,97  L 22,97  L 22,98  L 14,98  L 14,99  L 9,99  L 9,100  L 5,100  L 5,101  L 1,101  L 1,102  L 0,102  L 0,106  L 1,106  L 1,107  L 3,107  L 3,108  L 4,108  L 4,107  L 5,107  L 5,108  L 6,108  L 6,107  L 10,107  L 10,106  L 14,106  L 14,105  L 19,105  L 19,104  L 20,104  L 20,105  L 21,105  L 21,104  L 26,104  L 26,103  L 39,103  L 39,102  L 40,102  L 40,103  L 42,103  L 42,102  L 45,102  L 45,103  Z  " style="fill:rgb(0, 0, 0); fill-opacity:1.000; stroke:none;" />
 <path d="  M 47,36  L 47,35  L 59,35  L 59,34  L 61,34  L 61,35  L 62,35  L 62,34  L 71,34  L 71,33  L 72,33  L 72,32  L 73,32  L 73,30  L 74,30  L 74,27  L 72,27  L 72,26  L 66,26  L 66,27  L 59,27  L 59,28  L 57,28  L 57,27  L 56,27  L 56,28  L 53,28  L 53,27  L 52,27  L 52,28  L 47,28  L 47,27  L 46,27  L 46,28  L 42,28  L 42,29  L 40,29  L 40,28  L 39,28  L 39,25  L 38,25  L 38,16  L 37,16  L 37,8  L 36,8  L 36,7  L 37,7  L 37,6  L 36,6  L 36,3  L 35,3  L 35,1  L 34,1  L 34,0  L 31,0  L 31,1  L 30,1  L 30,2  L 29,2  L 29,11  L 30,11  L 30,15  L 31,15  L 31,21  L 32,21  L 32,27  L 33,27  L 33,30  L 26,30  L 26,31  L 23,31  L 23,30  L 22,30  L 22,31  L 19,31  L 19,32  L 14,32  L 14,33  L 9,33  L 9,34  L 6,34  L 6,35  L 5,35  L 5,36  L 4,36  L 4,37  L 3,37  L 3,40  L 4,40  L 4,41  L 5,41  L 5,42  L 8,42  L 8,41  L 9,41  L 9,40  L 10,40  L 10,39  L 14,39  L 14,38  L 17,38  L 17,39  L 18,39  L 18,38  L 23,38  L 23,37  L 24,37  L 24,38  L 25,38  L 25,37  L 26,37  L 26,38  L 27,38  L 27,37  L 39,37  L 39,36  L 40,36  L 40,37  L 41,37  L 41,36  Z  " style="fill:rgb(0, 0, 0); fill-opacity:1.000; stroke:none;" />
 <path d="  M 37,52  L 37,51  L 39,51  L 39,52  L 40,52  L 40,51  L 42,51  L 42,52  L 45,52  L 45,53  L 46,53  L 46,54  L 48,54  L 48,55  L 49,55  L 49,56  L 51,56  L 51,57  L 53,57  L 53,58  L 54,58  L 54,59  L 55,59  L 55,60  L 56,60  L 56,62  L 57,62  L 57,69  L 56,69  L 56,71  L 55,71  L 55,72  L 53,72  L 53,73  L 52,73  L 52,74  L 50,74  L 50,75  L 48,75  L 48,76  L 46,76  L 46,77  L 43,77  L 43,78  L 40,78  L 40,79  L 35,79  L 35,78  L 30,78  L 30,77  L 26,77  L 26,76  L 24,76  L 24,75  L 22,75  L 22,72  L 21,72  L 21,67  L 22,67  L 22,65  L 23,65  L 23,62  L 25,62  L 25,60  L 26,60  L 26,59  L 27,59  L 27,57  L 28,57  L 28,56  L 29,56  L 29,55  L 30,55  L 30,54  L 31,54  L 31,53  L 33,53  L 33,52  Z  M 15,65  L 15,68  L 14,68  L 14,73  L 15,73  L 15,74  L 14,74  L 14,75  L 15,75  L 15,77  L 16,77  L 16,78  L 17,78  L 17,79  L 18,79  L 18,80  L 19,80  L 19,81  L 21,81  L 21,82  L 22,82  L 22,83  L 25,83  L 25,84  L 28,84  L 28,85  L 31,85  L 31,86  L 37,86  L 37,87  L 38,87  L 38,86  L 43,86  L 43,85  L 45,85  L 45,84  L 47,84  L 47,83  L 49,83  L 49,82  L 51,82  L 51,81  L 53,81  L 53,80  L 55,80  L 55,79  L 57,79  L 57,78  L 58,78  L 58,77  L 59,77  L 59,76  L 60,76  L 60,75  L 62,75  L 62,74  L 63,74  L 63,72  L 64,72  L 64,64  L 63,64  L 63,61  L 62,61  L 62,57  L 61,57  L 61,55  L 60,55  L 60,54  L 59,54  L 59,53  L 57,53  L 57,52  L 56,52  L 56,51  L 55,51  L 55,50  L 53,50  L 53,49  L 52,49  L 52,48  L 50,48  L 50,47  L 48,47  L 48,46  L 46,46  L 46,45  L 44,45  L 44,44  L 34,44  L 34,45  L 31,45  L 31,46  L 29,46  L 29,47  L 27,47  L 27,49  L 26,49  L 26,50  L 25,50  L 25,52  L 24,52  L 24,53  L 23,53  L 23,54  L 21,54  L 21,56  L 20,56  L 20,57  L 19,57  L 19,59  L 18,59  L 18,60  L 17,60  L 17,62  L 16,62  L 16,65  Z  " style="fill:rgb(0, 0, 0); fill-opacity:1.000; stroke:none;" />
 <path d="  M 51,133  L 51,132  L 54,132  L 54,131  L 55,131  L 55,130  L 57,130  L 57,129  L 59,129  L 59,128  L 63,128  L 63,127  L 83,127  L 83,128  L 88,128  L 88,129  L 90,129  L 90,130  L 91,130  L 91,131  L 92,131  L 92,132  L 93,132  L 93,133  L 94,133  L 94,134  L 95,134  L 95,141  L 96,141  L 96,142  L 95,142  L 95,143  L 96,143  L 96,144  L 95,144  L 95,146  L 94,146  L 94,151  L 93,151  L 93,153  L 92,153  L 92,155  L 90,155  L 90,156  L 89,156  L 89,157  L 88,157  L 88,159  L 86,159  L 86,160  L 84,160  L 84,161  L 82,161  L 82,162  L 80,162  L 80,163  L 77,163  L 77,164  L 72,164  L 72,165  L 71,165  L 71,164  L 70,164  L 70,165  L 68,165  L 68,166  L 58,166  L 58,165  L 57,165  L 57,166  L 56,166  L 56,165  L 53,165  L 53,164  L 50,164  L 50,163  L 47,163  L 47,162  L 44,162  L 44,160  L 43,160  L 43,159  L 42,159  L 42,152  L 41,152  L 41,151  L 42,151  L 42,146  L 43,146  L 43,142  L 44,142  L 44,141  L 45,141  L 45,139  L 46,139  L 46,138  L 47,138  L 47,136  L 49,136  L 49,135  L 50,135  L 50,133  Z  M 54,119  L 54,120  L 51,120  L 51,121  L 50,121  L 50,122  L 49,122  L 49,123  L 48,123  L 48,124  L 47,124  L 47,125  L 46,125  L 46,127  L 45,127  L 45,128  L 44,128  L 44,130  L 43,130  L 43,132  L 42,132  L 42,134  L 41,134  L 41,135  L 40,135  L 40,136  L 39,136  L 39,137  L 38,137  L 38,140  L 37,140  L 37,141  L 36,141  L 36,144  L 35,144  L 35,146  L 34,146  L 34,151  L 33,151  L 33,155  L 34,155  L 34,159  L 35,159  L 35,161  L 36,161  L 36,163  L 37,163  L 37,165  L 38,165  L 38,166  L 39,166  L 39,167  L 41,167  L 41,169  L 45,169  L 45,170  L 49,170  L 49,171  L 51,171  L 51,172  L 75,172  L 75,171  L 79,171  L 79,170  L 83,170  L 83,169  L 85,169  L 85,168  L 86,168  L 86,167  L 88,167  L 88,166  L 90,166  L 90,165  L 91,165  L 91,164  L 93,164  L 93,162  L 95,162  L 95,161  L 96,161  L 96,160  L 97,160  L 97,158  L 99,158  L 99,156  L 100,156  L 100,152  L 101,152  L 101,147  L 102,147  L 102,136  L 101,136  L 101,132  L 100,132  L 100,129  L 99,129  L 99,128  L 98,128  L 98,126  L 97,126  L 97,124  L 95,124  L 95,123  L 92,123  L 92,122  L 90,122  L 90,121  L 87,121  L 87,120  L 86,120  L 86,121  L 85,121  L 85,120  L 79,120  L 79,119  L 63,119  L 63,118  L 62,118  L 62,119  Z  " style="fill:rgb(0, 0, 0); fill-opacity:1.000; stroke:none;" />
 <path d="  M 96,113  L 97,113  L 97,115  L 98,115  L 98,116  L 99,116  L 99,117  L 102,117  L 102,90  L 101,90  L 101,89  L 102,89  L 102,88  L 101,88  L 101,87  L 102,87  L 102,86  L 101,86  L 101,70  L 100,70  L 100,67  L 101,67  L 101,66  L 100,66  L 100,58  L 99,58  L 99,57  L 100,57  L 100,56  L 99,56  L 99,52  L 98,52  L 98,48  L 97,48  L 97,44  L 96,44  L 96,41  L 95,41  L 95,36  L 94,36  L 94,32  L 93,32  L 93,29  L 92,29  L 92,27  L 91,27  L 91,23  L 90,23  L 90,22  L 89,22  L 89,21  L 88,21  L 88,22  L 87,22  L 87,24  L 86,24  L 86,29  L 87,29  L 87,35  L 88,35  L 88,39  L 89,39  L 89,43  L 90,43  L 90,47  L 91,47  L 91,50  L 92,50  L 92,54  L 93,54  L 93,63  L 94,63  L 94,65  L 93,65  L 93,67  L 94,67  L 94,77  L 95,77  L 95,98  L 96,98  Z  " style="fill:rgb(0, 0, 0); fill-opacity:1.000; stroke:none;" />
</svg>
