<?xml version="1.0" encoding="UTF-8" standalone="no"?>
<!DOCTYPE svg PUBLIC "-//W3C//DTD SVG 1.1//EN" 
  "http://www.w3.org/Graphics/SVG/1.1/DTD/svg11.dtd">
<svg width="104" height="156"
     xmlns="http://www.w3.org/2000/svg" version="1.1">
 <path d="  M 28,8  L 28,9  L 29,9  L 29,12  L 28,12  L 28,14  L 29,14  L 29,21  L 30,21  L 30,26  L 31,26  L 31,27  L 30,27  L 30,28  L 31,28  L 31,34  L 32,34  L 32,35  L 18,35  L 18,36  L 13,36  L 13,37  L 12,37  L 12,36  L 11,36  L 11,37  L 9,37  L 9,38  L 5,38  L 5,39  L 4,39  L 4,38  L 3,38  L 3,39  L 0,39  L 0,42  L 1,42  L 1,45  L 3,45  L 3,46  L 4,46  L 4,45  L 7,45  L 7,44  L 10,44  L 10,43  L 14,43  L 14,42  L 15,42  L 15,43  L 16,43  L 16,42  L 17,42  L 17,43  L 18,43  L 18,42  L 27,42  L 27,41  L 43,41  L 43,40  L 45,40  L 45,41  L 47,41  L 47,40  L 50,40  L 50,41  L 51,41  L 51,40  L 54,40  L 54,41  L 55,41  L 55,40  L 62,40  L 62,39  L 63,39  L 63,35  L 62,35  L 62,33  L 61,33  L 61,32  L 45,32  L 45,33  L 40,33  L 40,32  L 38,32  L 38,31  L 39,31  L 39,29  L 38,29  L 38,26  L 37,26  L 37,25  L 38,25  L 38,24  L 37,24  L 37,21  L 38,21  L 38,20  L 37,20  L 37,17  L 36,17  L 36,15  L 37,15  L 37,14  L 36,14  L 36,7  L 35,7  L 35,2  L 34,2  L 34,0  L 33,0  L 33,1  L 31,1  L 31,2  L 30,2  L 30,4  L 29,4  L 29,8  Z  " style="fill:rgb(0, 0, 0); fill-opacity:1.000; stroke:none;" />
 <path d="  M 54,81  L 53,81  L 53,84  L 52,84  L 52,86  L 51,86  L 51,87  L 50,87  L 50,88  L 49,88  L 49,90  L 48,90  L 48,91  L 46,91  L 46,92  L 45,92  L 45,93  L 41,93  L 41,94  L 38,94  L 38,95  L 30,95  L 30,94  L 29,94  L 29,95  L 28,95  L 28,94  L 25,94  L 25,93  L 24,93  L 24,92  L 22,92  L 22,91  L 21,91  L 21,89  L 20,89  L 20,88  L 19,88  L 19,78  L 20,78  L 20,74  L 21,74  L 21,71  L 22,71  L 22,70  L 23,70  L 23,68  L 24,68  L 24,67  L 25,67  L 25,66  L 26,66  L 26,64  L 27,64  L 27,63  L 28,63  L 28,62  L 29,62  L 29,61  L 30,61  L 30,60  L 31,60  L 31,59  L 36,59  L 36,60  L 39,60  L 39,61  L 42,61  L 42,62  L 46,62  L 46,63  L 47,63  L 47,64  L 49,64  L 49,65  L 51,65  L 51,66  L 52,66  L 52,67  L 53,67  L 53,68  L 54,68  L 54,71  L 55,71  L 55,76  L 54,76  Z  M 50,97  L 52,97  L 52,96  L 53,96  L 53,95  L 54,95  L 54,94  L 55,94  L 55,93  L 56,93  L 56,92  L 57,92  L 57,90  L 58,90  L 58,89  L 59,89  L 59,87  L 60,87  L 60,84  L 61,84  L 61,81  L 62,81  L 62,69  L 61,69  L 61,67  L 60,67  L 60,65  L 59,65  L 59,63  L 58,63  L 58,62  L 57,62  L 57,61  L 56,61  L 56,60  L 54,60  L 54,59  L 53,59  L 53,58  L 51,58  L 51,57  L 49,57  L 49,56  L 47,56  L 47,55  L 44,55  L 44,54  L 43,54  L 43,53  L 40,53  L 40,52  L 37,52  L 37,51  L 30,51  L 30,52  L 28,52  L 28,53  L 26,53  L 26,54  L 24,54  L 24,56  L 23,56  L 23,57  L 22,57  L 22,58  L 21,58  L 21,60  L 20,60  L 20,61  L 19,61  L 19,63  L 18,63  L 18,65  L 17,65  L 17,66  L 16,66  L 16,69  L 15,69  L 15,70  L 14,70  L 14,72  L 13,72  L 13,79  L 12,79  L 12,90  L 13,90  L 13,92  L 14,92  L 14,94  L 15,94  L 15,95  L 16,95  L 16,96  L 17,96  L 17,97  L 18,97  L 18,98  L 19,98  L 19,99  L 21,99  L 21,100  L 23,100  L 23,101  L 24,101  L 24,102  L 30,102  L 30,103  L 31,103  L 31,102  L 39,102  L 39,101  L 43,101  L 43,100  L 44,100  L 44,99  L 48,99  L 48,98  L 50,98  Z  " style="fill:rgb(0, 0, 0); fill-opacity:1.000; stroke:none;" />
 <path d="  M 35,115  L 34,115  L 34,114  L 30,114  L 30,115  L 29,115  L 29,116  L 27,116  L 27,141  L 28,141  L 28,147  L 29,147  L 29,151  L 30,151  L 30,153  L 31,153  L 31,154  L 32,154  L 32,155  L 34,155  L 34,156  L 60,156  L 60,155  L 67,155  L 67,154  L 69,154  L 69,155  L 70,155  L 70,154  L 72,154  L 72,153  L 73,153  L 73,154  L 74,154  L 74,153  L 79,153  L 79,152  L 88,152  L 88,151  L 89,151  L 89,152  L 90,152  L 90,151  L 98,151  L 98,150  L 104,150  L 104,143  L 102,143  L 102,142  L 101,142  L 101,143  L 96,143  L 96,144  L 91,144  L 91,145  L 88,145  L 88,144  L 87,144  L 87,145  L 83,145  L 83,146  L 82,146  L 82,145  L 81,145  L 81,146  L 75,146  L 75,147  L 70,147  L 70,148  L 69,148  L 69,147  L 68,147  L 68,148  L 63,148  L 63,149  L 60,149  L 60,148  L 59,148  L 59,149  L 56,149  L 56,150  L 37,150  L 37,147  L 36,147  L 36,138  L 35,138  Z  " style="fill:rgb(0, 0, 0); fill-opacity:1.000; stroke:none;" />
 <path d="  M 86,107  L 86,109  L 88,109  L 88,110  L 92,110  L 92,109  L 93,109  L 93,106  L 92,106  L 92,91  L 91,91  L 91,76  L 90,76  L 90,59  L 89,59  L 89,58  L 90,58  L 90,56  L 89,56  L 89,53  L 90,53  L 90,52  L 89,52  L 89,42  L 88,42  L 88,27  L 87,27  L 87,16  L 85,16  L 85,15  L 81,15  L 81,16  L 80,16  L 80,33  L 81,33  L 81,39  L 82,39  L 82,40  L 81,40  L 81,41  L 82,41  L 82,42  L 81,42  L 81,43  L 82,43  L 82,57  L 83,57  L 83,77  L 84,77  L 84,88  L 85,88  L 85,89  L 84,89  L 84,91  L 85,91  L 85,107  Z  " style="fill:rgb(0, 0, 0); fill-opacity:1.000; stroke:none;" />
</svg>
