<?xml version="1.0" encoding="UTF-8" standalone="no"?>
<!DOCTYPE svg PUBLIC "-//W3C//DTD SVG 1.1//EN" 
  "http://www.w3.org/Graphics/SVG/1.1/DTD/svg11.dtd">
<svg width="100" height="173"
     xmlns="http://www.w3.org/2000/svg" version="1.1">
 <path d="  M 27,18  L 28,18  L 28,22  L 29,22  L 29,27  L 30,27  L 30,28  L 29,28  L 29,29  L 30,29  L 30,32  L 31,32  L 31,34  L 30,34  L 30,35  L 31,35  L 31,37  L 18,37  L 18,38  L 14,38  L 14,39  L 12,39  L 12,40  L 9,40  L 9,41  L 8,41  L 8,40  L 7,40  L 7,41  L 5,41  L 5,42  L 1,42  L 1,43  L 0,43  L 0,47  L 1,47  L 1,48  L 7,48  L 7,47  L 11,47  L 11,46  L 18,46  L 18,45  L 21,45  L 21,44  L 22,44  L 22,45  L 23,45  L 23,44  L 35,44  L 35,43  L 36,43  L 36,44  L 37,44  L 37,43  L 46,43  L 46,42  L 62,42  L 62,41  L 63,41  L 63,40  L 65,40  L 65,38  L 66,38  L 66,36  L 65,36  L 65,35  L 64,35  L 64,34  L 42,34  L 42,35  L 38,35  L 38,31  L 37,31  L 37,25  L 36,25  L 36,22  L 37,22  L 37,21  L 36,21  L 36,17  L 35,17  L 35,16  L 36,16  L 36,15  L 35,15  L 35,10  L 34,10  L 34,2  L 33,2  L 33,1  L 28,1  L 28,4  L 27,4  L 27,9  L 26,9  L 26,10  L 27,10  Z  " style="fill:rgb(0, 0, 0); fill-opacity:1.000; stroke:none;" />
 <path d="  M 49,70  L 50,70  L 50,71  L 51,71  L 51,72  L 52,72  L 52,73  L 54,73  L 54,74  L 55,74  L 55,77  L 56,77  L 56,81  L 55,81  L 55,82  L 56,82  L 56,83  L 55,83  L 55,85  L 54,85  L 54,87  L 53,87  L 53,89  L 52,89  L 52,90  L 51,90  L 51,91  L 50,91  L 50,92  L 49,92  L 49,93  L 48,93  L 48,94  L 44,94  L 44,95  L 41,95  L 41,96  L 38,96  L 38,97  L 30,97  L 30,96  L 25,96  L 25,95  L 23,95  L 23,94  L 21,94  L 21,93  L 20,93  L 20,92  L 19,92  L 19,91  L 18,91  L 18,82  L 19,82  L 19,78  L 20,78  L 20,77  L 21,77  L 21,74  L 22,74  L 22,72  L 23,72  L 23,71  L 25,71  L 25,69  L 26,69  L 26,67  L 27,67  L 27,66  L 28,66  L 28,65  L 29,65  L 29,64  L 37,64  L 37,65  L 40,65  L 40,66  L 41,66  L 41,67  L 45,67  L 45,68  L 48,68  L 48,69  L 49,69  Z  M 57,94  L 58,94  L 58,93  L 59,93  L 59,91  L 60,91  L 60,90  L 61,90  L 61,88  L 62,88  L 62,86  L 63,86  L 63,77  L 62,77  L 62,75  L 61,75  L 61,73  L 60,73  L 60,72  L 59,72  L 59,70  L 58,70  L 58,69  L 57,69  L 57,68  L 56,68  L 56,67  L 55,67  L 55,66  L 54,66  L 54,65  L 53,65  L 53,64  L 52,64  L 52,63  L 51,63  L 51,62  L 49,62  L 49,61  L 47,61  L 47,60  L 45,60  L 45,59  L 43,59  L 43,58  L 41,58  L 41,57  L 39,57  L 39,56  L 35,56  L 35,55  L 34,55  L 34,56  L 33,56  L 33,55  L 32,55  L 32,56  L 28,56  L 28,57  L 26,57  L 26,58  L 24,58  L 24,59  L 23,59  L 23,60  L 22,60  L 22,61  L 21,61  L 21,63  L 20,63  L 20,64  L 19,64  L 19,65  L 18,65  L 18,66  L 17,66  L 17,69  L 16,69  L 16,70  L 15,70  L 15,71  L 14,71  L 14,73  L 13,73  L 13,76  L 12,76  L 12,80  L 11,80  L 11,91  L 12,91  L 12,94  L 13,94  L 13,96  L 14,96  L 14,97  L 15,97  L 15,99  L 17,99  L 17,100  L 19,100  L 19,101  L 22,101  L 22,102  L 23,102  L 23,103  L 24,103  L 24,102  L 25,102  L 25,103  L 28,103  L 28,104  L 33,104  L 33,105  L 34,105  L 34,104  L 39,104  L 39,103  L 42,103  L 42,102  L 45,102  L 45,101  L 46,101  L 46,100  L 51,100  L 51,99  L 52,99  L 52,98  L 54,98  L 54,97  L 55,97  L 55,96  L 56,96  L 56,95  L 57,95  Z  " style="fill:rgb(0, 0, 0); fill-opacity:1.000; stroke:none;" />
 <path d="  M 74,126  L 74,125  L 77,125  L 77,126  L 78,126  L 78,125  L 91,125  L 91,126  L 93,126  L 93,127  L 94,127  L 94,137  L 93,137  L 93,150  L 92,150  L 92,157  L 91,157  L 91,159  L 90,159  L 90,161  L 89,161  L 89,162  L 86,162  L 86,163  L 84,163  L 84,164  L 77,164  L 77,165  L 66,165  L 66,166  L 63,166  L 63,165  L 62,165  L 62,166  L 50,166  L 50,167  L 49,167  L 49,166  L 46,166  L 46,165  L 45,165  L 45,160  L 44,160  L 44,143  L 43,143  L 43,142  L 44,142  L 44,139  L 43,139  L 43,138  L 44,138  L 44,135  L 43,135  L 43,134  L 44,134  L 44,129  L 45,129  L 45,128  L 49,128  L 49,127  L 52,127  L 52,128  L 53,128  L 53,127  L 59,127  L 59,126  L 60,126  L 60,127  L 62,127  L 62,126  Z  M 37,165  L 38,165  L 38,168  L 39,168  L 39,171  L 41,171  L 41,172  L 44,172  L 44,173  L 71,173  L 71,172  L 72,172  L 72,173  L 73,173  L 73,172  L 77,172  L 77,171  L 82,171  L 82,170  L 86,170  L 86,169  L 88,169  L 88,168  L 89,168  L 89,169  L 90,169  L 90,168  L 91,168  L 91,167  L 94,167  L 94,166  L 97,166  L 97,163  L 98,163  L 98,158  L 99,158  L 99,148  L 100,148  L 100,124  L 99,124  L 99,123  L 98,123  L 98,121  L 97,121  L 97,120  L 96,120  L 96,119  L 94,119  L 94,118  L 91,118  L 91,117  L 90,117  L 90,118  L 87,118  L 87,117  L 86,117  L 86,118  L 83,118  L 83,117  L 82,117  L 82,118  L 76,118  L 76,119  L 68,119  L 68,120  L 67,120  L 67,119  L 66,119  L 66,120  L 53,120  L 53,121  L 44,121  L 44,120  L 43,120  L 43,121  L 42,121  L 42,120  L 38,120  L 38,121  L 34,121  L 34,122  L 30,122  L 30,123  L 29,123  L 29,126  L 30,126  L 30,127  L 32,127  L 32,128  L 33,128  L 33,129  L 36,129  L 36,134  L 37,134  L 37,136  L 36,136  L 36,138  L 37,138  L 37,141  L 36,141  L 36,142  L 37,142  Z  " style="fill:rgb(0, 0, 0); fill-opacity:1.000; stroke:none;" />
 <path d="  M 89,46  L 89,54  L 90,54  L 90,62  L 91,62  L 91,109  L 92,109  L 92,110  L 93,110  L 93,111  L 95,111  L 95,112  L 96,112  L 96,111  L 98,111  L 98,109  L 99,109  L 99,105  L 98,105  L 98,63  L 97,63  L 97,53  L 96,53  L 96,47  L 95,47  L 95,42  L 94,42  L 94,38  L 93,38  L 93,33  L 92,33  L 92,27  L 91,27  L 91,16  L 90,16  L 90,14  L 88,14  L 88,13  L 86,13  L 86,14  L 85,14  L 85,17  L 84,17  L 84,22  L 85,22  L 85,30  L 86,30  L 86,36  L 87,36  L 87,40  L 88,40  L 88,44  L 89,44  L 89,45  L 88,45  L 88,46  Z  " style="fill:rgb(0, 0, 0); fill-opacity:1.000; stroke:none;" />
</svg>
